<svg xmlns="http://www.w3.org/2000/svg" viewBox="0 0 16 16"><path d="M7.085.58a.75.75 0 0 1 .336 1.005c-.326.651-.606 1.268-.523 2.025.103.614.266 1.087.604 1.532l-2.506.902a.75.75 0 0 0 .508 1.412l3.442-1.24c.609.214 1.35.276 2.404.363.698.059 1.047.088 1.263.157a1.97 1.97 0 0 1 1.371 1.616c.033.224.013.464-.025.943-.034.42-.093.793-.193 1.056a1.6 1.6 0 0 1-.357.563c-.585.586-1.526.586-3.409.586H4c-.943 0-1.414 0-1.707-.293S2 10.443 2 9.5V6.32c0-1.092.013-1.638.328-2.131s.747-.693 1.612-1.093c.468-.216.991-.433 1.538-.617.136-.626.393-1.148.601-1.564A.75.75 0 0 1 7.085.579m6.444 12.867a.75.75 0 0 0-.557-1.392l-.774.309c-.226.09-.468.137-.712.137h-1.362a.75.75 0 0 0-1.415 0H4.957a.75.75 0 0 0-1.414 0H2.75a.75.75 0 0 0 0 1.5h8.736a3.4 3.4 0 0 0 1.27-.244z"/></svg>