<svg xmlns="http://www.w3.org/2000/svg" viewBox="0 0 44 44"><path d="M19.842 4.17a1.5 1.5 0 1 0-2.683-1.34c-.56 1.116-.86 2.409-.955 3.764-1.75.547-3.433 1.237-4.91 1.921-2.376 1.1-3.564 1.65-4.43 3.005C6 12.875 6 14.377 6 17.38v9.952c0 1.729 0 2.593.537 3.13S7.938 31 9.667 31H27.01c5.17 0 7.756 0 9.362-1.61.433-.436.75-.942.98-1.55.235-.617.387-1.409.484-2.29.134-1.207.201-1.81.127-2.438a5.51 5.51 0 0 0-3.774-4.585c-.601-.194-1.558-.274-3.473-.433-3.256-.272-5.022-.454-6.535-1.24l-9.208 3.07a1.5 1.5 0 1 1-.948-2.847l7.424-2.475c-1.532-1.76-1.968-3.598-2.266-6.47-.072-1.546.149-2.943.658-3.961m17.403 31.632a1.5 1.5 0 0 0-1.488-2.605l-1.81 1.034a5.83 5.83 0 0 1-2.894.768H27v-.5a1.5 1.5 0 0 0-3 0v.5H12v-.5a1.5 1.5 0 0 0-3 0v.5H7.5a1.5 1.5 0 0 0 0 3h23.552a8.83 8.83 0 0 0 4.383-1.164z"/></svg>