<svg xmlns="http://www.w3.org/2000/svg" viewBox="0 0 44 44"><path fill-rule="evenodd" d="M19.842 4.17a1.5 1.5 0 1 0-2.683-1.34c-.56 1.116-.86 2.409-.955 3.764l-.17.053a41 41 0 0 0-4.74 1.868c-2.376 1.1-3.564 1.65-4.43 3.005C6 12.875 6 14.377 6 17.38v9.952c0 1.729 0 2.593.537 3.13S7.938 31 9.667 31H27.01c5.17 0 7.756 0 9.362-1.61.433-.436.75-.942.98-1.55.235-.617.387-1.409.484-2.29.134-1.207.201-1.81.127-2.438a5.51 5.51 0 0 0-3.774-4.585c-.601-.194-1.558-.274-3.473-.433-4.903-.41-6.427-.614-8.795-2.987-1.762-1.766-2.322-3.516-2.654-6.228q-.044-.362-.084-.748c-.072-1.545.149-2.942.658-3.96m-7.289 7.068a40 40 0 0 1 3.767-1.526c.117.858.298 1.708.532 2.523q.017.058.038.115a11.1 11.1 0 0 0 1.546 3.257l-4.41 1.47a1.5 1.5 0 1 0 .948 2.846l5.68-1.893c1.143.997 2.326 1.708 3.829 2.173 1.666.515 3.633.684 5.985.88.977.082 1.638.137 2.133.195.24.027.407.052.524.073.117.022.154.035.144.031a2.51 2.51 0 0 1 1.715 2.084c.026.21.019.426-.128 1.753-.087.78-.204 1.284-.307 1.556-.097.255-.195.39-.3.496-.154.153-.462.398-1.621.555-1.247.168-2.947.174-5.617.174H9.667L9 28V17.381c0-3.324.102-3.79.394-4.248.303-.475.571-.697 3.16-1.895"/><path d="M37.244 35.803a1.5 1.5 0 0 0-1.488-2.605l-1.81 1.034a5.83 5.83 0 0 1-2.894.768H27v-.5a1.5 1.5 0 0 0-3 0v.5H12v-.5a1.5 1.5 0 0 0-3 0v.5H7.5a1.5 1.5 0 0 0 0 3h23.552a8.83 8.83 0 0 0 4.383-1.164z"/></svg>