<svg xmlns="http://www.w3.org/2000/svg" viewBox="0 0 24 24"><path d="M10.895 2.447a1 1 0 0 0-1.79-.894 7.6 7.6 0 0 0-.682 2.093 23 23 0 0 0-2.53.999c-1.298.6-1.947.9-2.42 1.638C3 7.023 3 7.842 3 9.48V15c0 .943 0 1.414.293 1.707S4.057 17 5 17h9.993c2.826 0 4.24 0 5.117-.879a2.35 2.35 0 0 0 .537-.845c.133-.351.218-.814.271-1.33.07-.682.105-1.023.06-1.367a2.99 2.99 0 0 0-2.051-2.472c-.33-.106-.856-.15-1.908-.238-1.643-.137-2.782-.231-3.716-.582l-4.987 1.662a1 1 0 0 1-.632-1.898l3.652-1.217c-.536-.66-.803-1.35-.969-2.236-.168-1.133.093-2.281.527-3.15m9.553 17.446a1 1 0 1 0-.894-1.788l-1.156.577a3 3 0 0 1-1.341.317H15a1 1 0 1 0-2 0H7a1 1 0 1 0-2 0H4a1 1 0 1 0 0 2h13.056a5 5 0 0 0 2.236-.528z"/></svg>