<svg xmlns="http://www.w3.org/2000/svg" viewBox="0 0 32 32"><path d="M14.371 3.309a1.25 1.25 0 0 0-2.236-1.118 8.7 8.7 0 0 0-.815 2.642 30 30 0 0 0-3.47 1.36c-1.728.8-2.592 1.2-3.221 2.185S4 10.456 4 12.64v7.192c0 1.257 0 1.886.39 2.277.391.39 1.02.39 2.277.39h13.315c3.786 0 5.666 0 6.835-1.172a3.1 3.1 0 0 0 .713-1.127c.167-.44.276-.998.348-1.62.1-.868.149-1.302.096-1.76a4.01 4.01 0 0 0-2.744-3.346c-.438-.142-1.134-.2-2.527-.316l-.014-.001c-2.296-.192-3.862-.322-5.147-.854l-6.397 2.132a1.25 1.25 0 0 1-.79-2.372l4.782-1.594a5.7 5.7 0 0 1-1.095-2.095 1 1 0 0 0-.03-.136c-.529-1.839-.29-3.63.36-4.93m12.977 23.039a1.25 1.25 0 0 0-1.198-2.194l-1.556.849c-.6.327-1.272.498-1.955.498H20v-.25a1.25 1.25 0 0 0-2.5 0v.25h-8v-.25a1.25 1.25 0 1 0-2.5 0v.25H5.25a1.25 1.25 0 0 0 0 2.5h17.39a6.6 6.6 0 0 0 3.152-.804z"/></svg>