<svg xmlns="http://www.w3.org/2000/svg" viewBox="0 0 44 44"><path fill-rule="evenodd" d="M11.014 24a122 122 0 0 1 0-4H7.5a1.5 1.5 0 0 1 0-3h3.603a96 96 0 0 1 .254-4H7.5a1.5 1.5 0 0 1 0-3h4.167c.207-1.667.464-2.663 1.504-3.767 1.239-1.316 2.26-1.49 4.306-1.841A27 27 0 0 1 21.998 4c1.657 0 3.19.163 4.522.392 2.044.35 3.067.525 4.305 1.84 1.04 1.105 1.297 2.101 1.504 3.768h4.169a1.5 1.5 0 1 1 0 3h-3.86c.102 1.188.19 2.522.255 4h3.605a1.5 1.5 0 1 1 0 3h-3.516a122 122 0 0 1 0 4h3.516a1.5 1.5 0 1 1 0 3h-3.605a96 96 0 0 1-.254 4h3.859a1.5 1.5 0 1 1 0 3h-4.17c-.206 1.666-.463 2.663-1.503 3.767-1.238 1.315-2.26 1.49-4.303 1.84a27 27 0 0 1-4.524.393c-1.658 0-3.191-.164-4.524-.392-2.043-.351-3.065-.526-4.303-1.841-1.04-1.105-1.297-2.1-1.504-3.767H7.5a1.5 1.5 0 0 1 0-3h3.857a96 96 0 0 1-.254-4H7.5a1.5 1.5 0 0 1 0-3zm2.984-2c0 4.536.252 8.087.533 10.636.137 1.25.21 1.826.339 2.263.083.285.184.491.485.811.342.363.533.46.728.533.339.128.788.217 1.898.408 1.193.204 2.554.349 4.017.349s2.824-.145 4.017-.35c1.11-.19 1.56-.279 1.898-.407.195-.074.386-.17.728-.533.301-.32.402-.526.485-.81.128-.438.202-1.013.34-2.264.28-2.55.532-6.1.532-10.636s-.252-8.086-.532-10.636c-.138-1.25-.212-1.827-.34-2.264-.083-.285-.184-.49-.485-.81-.342-.364-.533-.46-.728-.534-.34-.128-.789-.217-1.9-.407A24 24 0 0 0 21.998 7c-1.462 0-2.823.144-4.015.349-1.111.19-1.56.279-1.9.407-.195.074-.386.17-.728.533-.301.32-.402.526-.485.811-.128.438-.202 1.014-.34 2.264-.28 2.55-.532 6.101-.532 10.636"/></svg>