<svg xmlns="http://www.w3.org/2000/svg" viewBox="0 0 24 24"><path fill-rule="evenodd" d="M4 19h2.41c.11.736.282 1.228.789 1.767.687.732 1.25.829 2.373 1.022.718.123 1.54.211 2.428.211s1.71-.088 2.428-.211c1.124-.193 1.685-.29 2.373-1.022.507-.54.678-1.03.79-1.767H20a1 1 0 1 0 0-2h-2.196q.076-.9.129-2H20a1 1 0 1 0 0-2h-2.007a69 69 0 0 0 0-2H20a1 1 0 1 0 0-2h-2.067a54 54 0 0 0-.129-2H20a1 1 0 1 0 0-2h-2.41c-.11-.737-.282-1.228-.789-1.767-.688-.733-1.25-.83-2.374-1.022C13.709 2.088 12.887 2 12 2s-1.71.087-2.427.21C8.45 2.405 7.887 2.5 7.2 3.234c-.507.539-.678 1.03-.79 1.767H4a1 1 0 0 0 0 2h2.196q-.077.9-.129 2H4a1 1 0 0 0 0 2h2.007a69 69 0 0 0 0 2H4a1 1 0 1 0 0 2h2.067q.053 1.1.129 2H4a1 1 0 1 0 0 2m4-7c0 2.513.137 4.478.29 5.884.076.704.113.99.174 1.198.031.106.06.174.192.315.158.168.224.193.275.213l.003.001c.055.02.145.049.31.084.173.038.375.073.667.123A12.4 12.4 0 0 0 12 20c.758 0 1.465-.075 2.089-.182.292-.05.494-.085.666-.123.166-.035.256-.063.31-.084l.004-.001c.051-.02.117-.045.275-.213a.67.67 0 0 0 .192-.315c.06-.208.098-.494.175-1.198.152-1.406.289-3.37.289-5.884 0-2.513-.137-4.477-.29-5.883-.076-.705-.113-.99-.174-1.199-.031-.106-.06-.175-.192-.316-.158-.168-.224-.193-.275-.212l-.003-.001a2 2 0 0 0-.311-.085 17 17 0 0 0-.667-.122A12.4 12.4 0 0 0 12 4c-.757 0-1.465.075-2.088.182-.292.05-.494.085-.667.122a2 2 0 0 0-.31.085H8.93c-.051.02-.117.045-.275.213a.67.67 0 0 0-.192.316c-.06.208-.098.494-.175 1.199C8.137 7.523 8 9.487 8 12"/></svg>