<svg xmlns="http://www.w3.org/2000/svg" viewBox="0 0 17 17"><path d="M4.556 13.81H2.922a.797.797 0 1 1 0-1.593h1.466a42 42 0 0 1-.088-1.416H2.922a.797.797 0 1 1 0-1.594h1.332a54 54 0 0 1 0-1.416H2.922a.797.797 0 1 1 0-1.594H4.3q.037-.776.088-1.416H2.922a.797.797 0 1 1 0-1.594h1.634c.081-.496.214-.843.569-1.223.512-.548.918-.618 1.73-.758A9.7 9.7 0 0 1 8.5 1.062c.598 0 1.153.06 1.643.144.813.14 1.22.21 1.73.758.356.38.489.727.57 1.223h1.639a.797.797 0 0 1 0 1.594H12.61q.052.64.088 1.416h1.383a.797.797 0 0 1 0 1.594h-1.337a53 53 0 0 1 0 1.416h1.337a.797.797 0 0 1 0 1.594h-1.383q-.036.776-.088 1.416h1.47a.797.797 0 0 1 0 1.594h-1.638c-.081.496-.214.842-.569 1.222-.512.548-.918.618-1.73.758a9.7 9.7 0 0 1-1.644.144 9.7 9.7 0 0 1-1.644-.144c-.812-.14-1.219-.21-1.73-.758-.355-.38-.488-.726-.569-1.222"/></svg>