<svg xmlns="http://www.w3.org/2000/svg" viewBox="0 0 24 24"><path d="M4 19h2.41c.11.736.282 1.228.789 1.767.687.732 1.25.829 2.373 1.022.718.123 1.54.211 2.428.211s1.71-.088 2.428-.211c1.124-.193 1.685-.29 2.373-1.022.507-.54.678-1.03.79-1.767H20a1 1 0 1 0 0-2h-2.196q.076-.9.129-2H20a1 1 0 1 0 0-2h-2.007a69 69 0 0 0 0-2H20a1 1 0 1 0 0-2h-2.067a54 54 0 0 0-.129-2H20a1 1 0 1 0 0-2h-2.41c-.11-.737-.282-1.228-.789-1.767-.688-.733-1.25-.83-2.374-1.022C13.709 2.088 12.887 2 12 2s-1.71.087-2.427.21C8.45 2.405 7.887 2.5 7.2 3.234c-.507.539-.678 1.03-.79 1.767H4a1 1 0 0 0 0 2h2.196q-.077.9-.129 2H4a1 1 0 0 0 0 2h2.007a69 69 0 0 0 0 2H4a1 1 0 1 0 0 2h2.067q.053 1.1.129 2H4a1 1 0 1 0 0 2"/></svg>