<svg xmlns="http://www.w3.org/2000/svg" viewBox="0 0 32 32"><path d="M19.994 4a2.5 2.5 0 1 1-4.999.001 2.5 2.5 0 0 1 5-.001m.003 9.949v-3.802l3.421 2.662a1.501 1.501 0 0 1-1.842 2.369zM9.664 26.814l3.955-7.713 2.1 2.482-3.386 6.6a1.5 1.5 0 1 1-2.669-1.37"/><path d="M14.665 7.99a1.5 1.5 0 0 0-.8.232l-3.168 2.001a1.5 1.5 0 0 0-.501.524l-2 3.502a1.501 1.501 0 0 0 2.605 1.49l1.814-3.178.885-.559v3.289c0 .69.187 1.377.531 1.927q.072.135.175.255l4.387 5.187.93 5.108a1.5 1.5 0 1 0 2.951-.538l-1.002-5.502a1.5 1.5 0 0 0-.33-.7L18.5 17.904v-6.828c0-1.555-.948-3.086-2.502-3.086z"/></svg>