<svg xmlns="http://www.w3.org/2000/svg" viewBox="0 0 44 44"><path fill-rule="evenodd" d="M28.998 8.5a5.48 5.48 0 0 1-1.426 3.695l4.739 3.791a4.5 4.5 0 0 1-4.044 7.843l1.973 2.05a4.5 4.5 0 0 1 1.142 2.108l1.503 6.5a4.5 4.5 0 1 1-8.769 2.027l-.884-3.825-2.806 5.01a4.5 4.5 0 0 1-7.852-4.398l4.586-8.188a7 7 0 0 1-.406-.72 4.5 4.5 0 0 1-6.157-6.14l2.2-3.818a4.5 4.5 0 0 1 1.66-1.658l3.8-2.18.126-.07A5.5 5.5 0 1 1 28.997 8.5m-3 0a2.5 2.5 0 1 1-5 0 2.5 2.5 0 0 1 5 0m-6.248 4.699a1.5 1.5 0 0 1 .747-.199h1.528c1.796.025 2.947 1.775 2.947 3.58v8.152l3.107 3.228a1.5 1.5 0 0 1 .38.702l1.503 6.5a1.5 1.5 0 0 1-2.923.676l-1.41-6.096-5.38-5.59c-.8-.71-1.25-1.89-1.25-3.065v-3.999l-1.205.692-1.997 3.468a1.5 1.5 0 1 1-2.6-1.496l2.2-3.82a1.5 1.5 0 0 1 .553-.553zm7.248 2.378v3.842l1.565 1.252a1.5 1.5 0 0 0 1.874-2.342zm-7.206 10.978-4.6 8.212a1.5 1.5 0 1 0 2.617 1.466l4.155-7.418z"/></svg>