<svg xmlns="http://www.w3.org/2000/svg" viewBox="0 0 24 24"><path fill-rule="evenodd" d="M5.375 17c.51 0 .91.39 1.055.878l.009.028c.096.312.25.612.698 1.06.46.458.755.606 1.044.696.393.123.879.173 1.915.26a23 23 0 0 0 3.809 0c1.037-.087 1.522-.137 1.915-.26.288-.09.584-.238 1.043-.696.45-.448.603-.748.699-1.06l.008-.028c.146-.489.546-.878 1.056-.878.598 0 1.08.522.95 1.105-.189.842-.531 1.51-1.3 2.277-1.294 1.29-2.265 1.37-4.205 1.532a25 25 0 0 1-4.14 0c-1.941-.161-2.912-.242-4.205-1.532-.77-.766-1.113-1.435-1.301-2.277-.13-.583.352-1.105.95-1.105M6.43 6.122l.008-.025c.096-.313.25-.613.698-1.06.46-.458.756-.607 1.044-.697.394-.122.88-.173 1.917-.259a23 23 0 0 1 3.805 0c1.037.086 1.523.137 1.917.26.288.09.584.238 1.043.696.45.447.603.747.7 1.06l.007.025c.145.489.546.878 1.056.878.598 0 1.08-.522.95-1.106-.19-.84-.532-1.508-1.3-2.274-1.295-1.29-2.265-1.37-4.207-1.532a25 25 0 0 0-4.137 0c-1.94.162-2.911.242-4.205 1.532-.769.766-1.112 1.434-1.3 2.274-.132.584.351 1.106.95 1.106.509 0 .91-.39 1.055-.878m7.016 2.984a1 1 0 0 1 .447 1.341l-2 4a1 1 0 1 1-1.789-.894l2-4a1 1 0 0 1 1.342-.447m-4.86 1.704.01-.008.003-.002a1 1 0 1 0-1.2-1.6l-.006.004-.014.011-.051.04a19 19 0 0 0-.757.607c-.403.34-.985.857-1.287 1.306-.086.128-.285.438-.285.832 0 .35.156.627.234.754.098.158.218.307.331.434.229.257.515.523.776.752a20 20 0 0 0 1.032.84l.02.014.007.006a1 1 0 1 0 1.2-1.6l-.004-.003-.014-.01-.059-.046a19 19 0 0 1-.865-.706A9 9 0 0 1 7.192 12c.172-.175.407-.388.669-.609a19 19 0 0 1 .683-.548zm6.826 0-.01-.008-.003-.002a1 1 0 1 1 1.2-1.6l.006.004.014.011.051.04a20 20 0 0 1 .757.607c.403.34.985.857 1.287 1.306.086.128.285.438.285.832 0 .35-.157.627-.234.754a3 3 0 0 1-.331.434 9 9 0 0 1-.776.752 20 20 0 0 1-1.032.84l-.02.014-.007.006a1 1 0 1 1-1.2-1.6l.004-.003.014-.01.059-.046a19 19 0 0 0 .864-.706 9 9 0 0 0 .467-.435 10 10 0 0 0-.669-.609 19 19 0 0 0-.683-.548z"/></svg>