<svg xmlns="http://www.w3.org/2000/svg" viewBox="0 0 32 32"><path d="M10.16 6.163C11.66 4.721 12.412 4 13.334 4s1.672.721 3.174 2.163l3.288 3.16a6 6 0 0 0-1.04.585c-.61.423-1.263 1.012-1.913 1.6l-1.589 1.436c-.976.882-1.898 1.714-2.512 2.445-.55.655-1.652 2.147-.943 3.987.384 1 1.124 1.58 1.827 1.904q-.022.36-.04.735c-2.434.032-4.406.108-5.9.189l-.29.014-.24.012A74 74 0 0 1 7 17.646c0-1.068.03-2.136.078-3.156-2.123-.013-3.22-.108-3.513-.834-.336-.835.677-1.808 2.703-3.754z"/><path fill-rule="evenodd" d="M26.5 27H4.002c.079-.574.252-.998.696-1.45.706-.72 1.511-.763 3.122-.85 1.918-.103 4.656-.2 8.18-.2h.005a71 71 0 0 1 .28-5.172c-1.263-.068-2.011-.263-2.226-.816-.333-.855.762-1.834 2.95-3.791l1.389-1.243C19.872 12.16 20.61 11.5 21.5 11.5s1.628.66 3.102 1.978l1.389 1.243c2.188 1.957 3.283 2.936 2.95 3.79-.241.623-1.09.792-2.672.838l.01.112c.135 1.557.216 3.532.221 5.538zm-6.259-7.261c-.198.198-.21.39-.233.775a4 4 0 0 0 0 .47c.023.384.035.576.233.774.199.199.391.21.776.234a4 4 0 0 0 .469 0c.384-.023.577-.035.775-.233.198-.199.21-.391.234-.776a4 4 0 0 0 0-.469c-.024-.384-.036-.577-.234-.775s-.39-.21-.775-.234a4 4 0 0 0-.47 0c-.384.024-.576.036-.774.234"/></svg>