<svg xmlns="http://www.w3.org/2000/svg" viewBox="0 0 24 24"><path fill-rule="evenodd" d="M12 5c-2.558 0-4.578.184-6.051.395-1.271.181-1.907.272-2.61.962s-.804 1.32-1.008 2.578A25.6 25.6 0 0 0 2 13a25.6 25.6 0 0 0 .37 4.308.83.83 0 0 0 .8.692A3 3 0 0 0 8 19.236 3 3 0 0 0 12.83 18h2.34a3.002 3.002 0 0 0 5.678-.054 1 1 0 0 0 1.19-.447h.002c.668-.963.745-1.892.874-3.43q.033-.4.054-.82Q23 13.129 23 13c0-.308-.09-.6-.18-.827a5 5 0 0 0-.366-.73 11 11 0 0 0-1.07-1.469A10 10 0 0 0 20.089 8.7a4.3 4.3 0 0 0-.696-.46c-.226-.115-.54-.24-.893-.24H17V6.5c0-.066.01.057 0 0v-.35a.976.976 0 0 0-.89-.978l-.055-.004A47 47 0 0 0 12 5M7 17a1 1 0 1 0-2 0 1 1 0 0 0 2 0m2 0a1 1 0 1 0 2 0 1 1 0 0 0-2 0m11.698-1.312c.097-.374.145-.86.222-1.785q.037-.439.058-.903h-1.131a1 1 0 0 1-.987-.836l-.355-2.13-.068-.034H17v4.17a3 3 0 0 1 3.699 1.517M17 17a1 1 0 1 1 2 0 1 1 0 0 1-2 0"/></svg>