<svg xmlns="http://www.w3.org/2000/svg" viewBox="0 0 17 17"><path fill-rule="evenodd" d="M1.062 9.062V9c.002-1.096.109-2.089.24-2.9.152-.932.228-1.398.752-1.911s.998-.58 1.946-.712c1.095-.154 2.597-.288 4.499-.288.843 0 1.607.026 2.292.069a1 1 0 0 1 .12.018c.43.012.775.364.775.796v1.245h1.518c1.01 0 1.834.746 2.335 1.409.514.679.928 1.58.928 2.327l-.002.052-.007.23c-.011.404-.022.79-.064 1.151-.085.74-.144 1.263-.341 1.728a.8.8 0 0 1-.754.536h-.56a2.392 2.392 0 0 1-4.51 0h-.803a2.392 2.392 0 0 1-3.848.984 2.392 2.392 0 0 1-3.855-1.004.49.49 0 0 1-.358-.39l-.062-.377a18.4 18.4 0 0 1-.24-2.9m3.719 2.847v.083a.797.797 0 1 1 0-.083m1.594.083v-.083a.798.798 0 1 1 0 .083m5.311-2.296V6.91h1.518l.041.002.145 1.452c.038.38.358.67.74.67h.74l-.009.276c-.009.351-.019.72-.05.994-.04.345-.07.59-.099.778a2.39 2.39 0 0 0-3.026-1.386m0 2.255a.797.797 0 1 0 1.595 0 .797.797 0 0 0-1.595 0"/></svg>