<svg xmlns="http://www.w3.org/2000/svg" viewBox="0 0 16 16"><path fill-rule="evenodd" d="M14 6.57v.698a2 2 0 0 1 .732.732C15 8.464 15 9.087 15 10.333c0 .623 0 .935-.134 1.167a1 1 0 0 1-.366.366c-.13.075-.28.12-.5.134v.75a.75.75 0 0 1-1.5 0V12H3.495l.005.75a.75.75 0 0 1-1.5 0V12a1.1 1.1 0 0 1-.5-.134 1 1 0 0 1-.366-.367C1 11.267 1 10.956 1 10.333 1 9.087 1 8.464 1.268 8A2 2 0 0 1 2 7.268v-.699c0-1.738 0-2.607.66-3.361s1.375-.85 2.802-1.04a19.2 19.2 0 0 1 5.076 0c1.428.19 2.141.286 2.802 1.04.66.754.66 1.623.66 3.361M11.5 7a.58.58 0 0 0-.577-.5h-1.59a.58.58 0 0 0-.577.5zM7.244 7H4.5c.04-.283.284-.5.578-.5h1.589c.294 0 .537.217.577.5m-2.91 1.5c-.651 0-1.039.001-1.325.027-.33.03-.452.152-.482.482-.044.494-.027 1.49-.027 1.49h11l.002-.299c.003-.397.006-.796-.03-1.191-.03-.33-.151-.452-.48-.481-.287-.026-.674-.028-1.325-.028zM10.922 5h-1.59c-.507 0-.972.181-1.333.482A2.08 2.08 0 0 0 6.667 5h-1.59a2.08 2.08 0 0 0-1.573.718c.006-.421.022-.72.06-.967.049-.31.12-.434.225-.555a.86.86 0 0 1 .445-.292c.283-.09.665-.147 1.427-.249a17.7 17.7 0 0 1 4.678 0c.762.102 1.144.158 1.427.25.195.062.303.13.445.291.106.12.176.245.224.555.039.247.055.546.06.967A2.08 2.08 0 0 0 10.924 5"/></svg>