<svg xmlns="http://www.w3.org/2000/svg" viewBox="0 0 16 16"><path fill-rule="evenodd" d="M8 2c-.931 0-1.785.068-2.538.168-1.427.19-2.141.286-2.802 1.04C2 3.962 2 4.831 2 6.57v.699A2 2 0 0 0 1.268 8C1 8.464 1 9.087 1 10.333c0 .623 0 .934.134 1.166a1 1 0 0 0 .366.367c.13.075.28.12.5.134v.75a.75.75 0 0 0 1.5 0L3.495 12H12.5v.75a.75.75 0 0 0 1.5 0V12c.22-.015.37-.059.5-.134a1 1 0 0 0 .366-.366c.134-.232.134-.544.134-1.167 0-1.246 0-1.869-.268-2.333A2 2 0 0 0 14 7.268V6.57c0-1.738 0-2.607-.66-3.361s-1.374-.85-2.802-1.04A19 19 0 0 0 8 2M5 5.5a1 1 0 0 0-1 1V7h3.5v-.5a1 1 0 0 0-1-1zm7 1V7H8.5v-.5a1 1 0 0 1 1-1H11a1 1 0 0 1 1 1"/></svg>