<svg xmlns="http://www.w3.org/2000/svg" viewBox="0 0 24 24"><path fill-rule="evenodd" d="M16.479 3.007c-.654.053-1.061.405-1.876 1.11-1.307 1.13-3.154 2.772-4.657 4.274-1.502 1.502-3.144 3.348-4.275 4.655-.304.352-.543.628-.72.88-.325.407-.555 1.164-.909 2.327l-.527 1.736c-.48 1.578-.72 2.367-.295 2.791.424.424 1.213.185 2.791-.295l1.738-.527c1.231-.374 2.008-.61 2.395-.967.233-.17.489-.392.807-.667 1.307-1.13 3.154-2.772 4.657-4.274 1.502-1.502 3.144-3.348 4.275-4.655.705-.814 1.057-1.222 1.11-1.875.052-.654-.173-1.018-.624-1.747a6.7 6.7 0 0 0-.936-1.207 6.7 6.7 0 0 0-1.207-.936c-.729-.45-1.093-.675-1.747-.623M6.527 15.162l.003-.007.023-.028.036-.052c.106-.15.268-.34.596-.72 1.122-1.296 2.726-3.099 4.177-4.55a64 64 0 0 1 1.792-1.714l2.754 2.753c-.57.617-1.154 1.23-1.716 1.791-1.45 1.45-3.254 3.054-4.55 4.176-.34.293-.528.454-.682.567l-.09.067-.035.031a3 3 0 0 1-.281.121c-.32.121-.747.252-1.387.447l-1.737.527.527-1.737c.183-.601.31-1.017.428-1.335.08-.216.129-.312.142-.337m10.726-5.803c.404-.455.781-.886 1.116-1.273.182-.21.315-.365.426-.5a4 4 0 0 0 .182-.239l-.052-.096c-.063-.11-.14-.236-.259-.427a4.7 4.7 0 0 0-.648-.843 4.7 4.7 0 0 0-.843-.648 15 15 0 0 0-.524-.311 4 4 0 0 0-.238.182c-.136.11-.29.245-.5.426-.387.335-.82.712-1.274 1.116z"/></svg>