<svg xmlns="http://www.w3.org/2000/svg" viewBox="0 0 16 16"><path fill-rule="evenodd" d="M10.973 2.005c-.436.035-.708.27-1.252.74-.87.753-2.1 1.844-3.1 2.844s-2.09 2.228-2.844 3.098a8 8 0 0 0-.483.592c-.216.271-.37.777-.603 1.554L2.339 12c-.316 1.048-.474 1.572-.192 1.854s.806.124 1.855-.192l1.165-.351c.818-.247 1.336-.403 1.596-.638a9 9 0 0 0 .548-.452c.87-.753 2.1-1.844 3.1-2.844.999-1 2.09-2.228 2.844-3.098.47-.544.705-.816.74-1.252s-.116-.68-.417-1.167a4.5 4.5 0 0 0-.628-.809 4.5 4.5 0 0 0-.81-.628c-.487-.301-.731-.452-1.167-.417M4.49 10.187l.007-.01.027-.039a7 7 0 0 1 .389-.469c.746-.863 1.81-2.058 2.77-3.019.338-.338.705-.688 1.076-1.033l1.623 1.622c-.345.372-.695.739-1.033 1.076-.961.96-2.157 2.024-3.02 2.77a8 8 0 0 1-.45.374l-.063.046-.012.011a2 2 0 0 1-.158.066c-.207.077-.486.162-.912.291l-.868.262.262-.868c.121-.404.204-.677.28-.884.045-.122.073-.18.082-.196m6.902-4.06A85 85 0 0 0 12.4 4.966l.053-.067-.153-.25c-.13-.21-.27-.395-.413-.538a3 3 0 0 0-.537-.412 8 8 0 0 0-.251-.153l-.066.053c-.09.072-.19.16-.331.281-.253.219-.535.465-.83.728z"/></svg>