<svg xmlns="http://www.w3.org/2000/svg" viewBox="0 0 44 44"><path fill-rule="evenodd" d="M16.642 35.013c-.444.248-.883.402-1.76.712l-4.37 1.543c-2.567.905-3.85 1.358-4.518.69-.669-.669-.216-1.952.69-4.518l2.155-6.105c1-2 6.098-7.513 8.699-10.114 5.109-5.108 8.684-8.209 10.656-9.821.827-.677 1.24-1.015 2.044-1.141s1.19.024 1.96.327c.994.39 2.17 1.023 3.19 2.042.999 1 1.628 2.152 2.02 3.134.314.789.471 1.183.34 2-.13.816-.484 1.24-1.192 2.085-1.641 1.963-4.757 5.498-9.826 10.567-2.014 2.014-6.128 5.521-8.666 7.564-.651.525-.977.787-1.422 1.035M30.715 9.23c.088.031.197.074.387.148.73.287 1.517.725 2.164 1.371.634.635 1.068 1.404 1.355 2.125.079.197.123.31.156.401q-.034.05-.113.15a23 23 0 0 1-.409.497 106 106 0 0 1-2.423 2.788l-4.57-4.57a95 95 0 0 1 2.831-2.418c.217-.177.36-.294.484-.39zm-6.03 15.098a215 215 0 0 0 5.195-5.367l-4.768-4.767a192 192 0 0 0-5.377 5.185 124 124 0 0 0-4.822 5.146 63 63 0 0 0-2.225 2.641c-.548.698-.872 1.17-1.023 1.424l-2.077 5.885 4.372-1.543c.952-.336 1.122-.406 1.297-.504.18-.1.303-.188 1.002-.75 2.518-2.028 6.529-5.453 8.426-7.35"/></svg>