<svg xmlns="http://www.w3.org/2000/svg" viewBox="0 0 16 16"><path fill-rule="evenodd" d="M14 7.268V5.715c0-.74 0-1.275-.092-1.715A2.1 2.1 0 0 0 13 2.662C12.19 2.117 10.941 2 10 2c-.942 0-2.19.117-3 .662-.452.304-.786.75-.908 1.338C6 4.44 6 4.975 6 5.715v1.553A2 2 0 0 0 5.268 8C5 8.464 5 9.087 5 10.333c0 .623 0 .935.134 1.167a1 1 0 0 0 .366.366c.129.074.282.107.5.122v.762a.75.75 0 0 0 1.5 0V12h5v.75a.75.75 0 1 0 1.5 0v-.762c.217-.014.371-.047.5-.122a1 1 0 0 0 .366-.366c.134-.232.134-.544.134-1.167 0-1.246 0-1.869-.268-2.333A2 2 0 0 0 14 7.268M12.063 3.82c-.616-.253-1.405-.32-2.063-.32s-1.447.067-2.063.32c-.224.092-.353.326-.39.554-.043.269-.047.63-.047 1.341v.176A2.08 2.08 0 0 1 9.208 5h1.584a2.08 2.08 0 0 1 1.708.89v-.175c0-.71-.004-1.072-.048-1.34-.037-.229-.165-.463-.39-.555m-1.27 2.68c.293 0 .537.217.577.5H8.631c.04-.283.283-.5.577-.5zm2.68 2.509c.045.494.028 1.49.028 1.49h-7s-.017-.996.027-1.49c.03-.33.152-.452.482-.482.286-.026.674-.027 1.324-.027h3.334c.65 0 1.038.001 1.324.027.33.03.452.152.482.482"/><path d="M2.454 6.947c0-.355-.184-.504-.588-.504-.419 0-.582.089-.625.557H.021c.05-1.163.745-1.5 1.845-1.5 1.17 0 1.815.397 1.815 1.482 0 .978-.744 1.348-1.397 1.661-.474.228-.9.454-.958.857h2.355v1H0v-.589c0-1.248.857-1.643 1.558-1.966.485-.224.896-.427.896-.842z"/></svg>