<svg xmlns="http://www.w3.org/2000/svg" viewBox="0 0 16 16"><path fill-rule="evenodd" d="M14 5.715v1.553a2 2 0 0 1 .732.732C15 8.464 15 9.087 15 10.333c0 .623 0 .935-.134 1.167a1 1 0 0 1-.366.366c-.129.075-.283.108-.5.122v.762a.75.75 0 1 1-1.5 0V12h-5v.75a.75.75 0 0 1-1.5 0v-.762c-.218-.014-.371-.048-.5-.122a1 1 0 0 1-.366-.366C5 11.268 5 10.956 5 10.333 5 9.087 5 8.464 5.268 8A2 2 0 0 1 6 7.268V5.715C6 4.975 6 4.44 6.092 4A2.1 2.1 0 0 1 7 2.662C7.81 2.117 9.058 2 10 2c.941 0 2.19.117 3 .662.452.304.786.75.908 1.338.092.44.092.975.092 1.715M8.25 6.5a1 1 0 0 1 1-1h1.5a1 1 0 0 1 1 1V7h-3.5z"/><path d="M2.454 6.947c0-.355-.184-.504-.588-.504-.419 0-.582.089-.625.557H.021c.05-1.163.745-1.5 1.845-1.5 1.17 0 1.815.397 1.815 1.482 0 .978-.744 1.348-1.397 1.661-.474.228-.9.454-.958.857h2.355v1H0v-.589c0-1.248.857-1.643 1.558-1.966.485-.224.896-.427.896-.842z"/></svg>