<svg xmlns="http://www.w3.org/2000/svg" viewBox="0 0 16 16"><path fill-rule="evenodd" d="M12.526 11.102a4.3 4.3 0 0 1-.734.491c-.134.511-.373.938-.817 1.382-.928.928-1.78.958-3.483 1.016a14 14 0 0 1-.984 0c-1.703-.058-2.555-.088-3.483-1.016s-.958-1.78-1.016-3.483a14 14 0 0 1 0-.984c.058-1.703.088-2.555 1.016-3.483.444-.445.871-.683 1.382-.817.123-.238.283-.478.491-.734a6 6 0 0 1 .577-.576C6.578 2 7.385 2 9 2s2.423 0 3.526.898a6 6 0 0 1 .576.576C14 4.577 14 5.385 14 7s0 2.423-.898 3.526a6 6 0 0 1-.576.576m-.107-2.452c-.054.262-.152.51-.428.864v-.022a14 14 0 0 0 0-.984c-.058-1.703-.088-2.555-1.016-3.483s-1.78-.958-3.483-1.016a14 14 0 0 0-.984 0h-.021c.353-.276.6-.374.863-.428.36-.074.794-.081 1.65-.081s1.291.007 1.65.081c.278.058.54.164.93.48l.056.053a5 5 0 0 1 .303.307c.316.39.422.65.48.929.075.359.081.794.081 1.65s-.006 1.291-.08 1.65m-5.085-.332c.577.356.866.533.866.796 0 .262-.289.44-.866.795l-.25.153c-.438.27-.708.41-.907.415a.3.3 0 0 1-.162-.04c-.215-.125-.215-.44-.215-1.12V8.91c0-.68 0-.995.215-1.12a.3.3 0 0 1 .162-.04c.2.005.469.145.907.415z"/></svg>