<svg xmlns="http://www.w3.org/2000/svg" viewBox="0 0 44 44"><path fill-rule="evenodd" d="M24.844 9q-.368 0-.74.008c-2.436.054-3.825.099-4.94.361-.917.217-1.66.589-2.59 1.518-.45.45-.77.858-1.005 1.263l.368-.028c1-.076 2.031-.122 3.063-.122s2.064.046 3.063.122c3.754.284 5.631.426 7.51 2.305s2.02 3.756 2.305 7.51c.076 1 .122 2.031.122 3.063a41 41 0 0 1-.15 3.43c.405-.234.813-.553 1.264-1.004.928-.93 1.3-1.673 1.517-2.59.262-1.115.307-2.504.36-4.94a33 33 0 0 0 0-1.48c-.053-2.436-.098-3.825-.36-4.94-.217-.917-.589-1.66-1.517-2.59-.93-.928-1.673-1.3-2.59-1.517-1.116-.262-2.504-.307-4.94-.36a34 34 0 0 0-.74-.009m6.64 22.794c1.369-.366 2.53-1.026 3.75-2.247 2.604-2.603 2.655-4.93 2.757-9.585a37 37 0 0 0 0-1.611c-.102-4.655-.153-6.983-2.756-9.586s-4.93-2.654-9.585-2.756a37 37 0 0 0-1.612 0c-4.655.102-6.982.153-9.585 2.756-1.221 1.222-1.88 2.382-2.247 3.751-1.528.284-2.653.786-3.779 1.911-1.879 1.879-2.02 3.756-2.305 7.51C6.046 22.937 6 23.968 6 25s.046 2.064.122 3.063c.284 3.754.426 5.631 2.305 7.51s3.756 2.02 7.51 2.305c1 .076 2.031.122 3.063.122s2.064-.046 3.063-.122c3.754-.284 5.631-.426 7.51-2.305 1.125-1.126 1.628-2.25 1.91-3.779M19 15c-.944 0-1.9.042-2.836.113-3.958.3-4.645.466-5.615 1.436s-1.136 1.657-1.436 5.615A38 38 0 0 0 9 25c0 .944.042 1.9.113 2.836.3 3.958.466 4.645 1.436 5.615s1.657 1.136 5.615 1.436c.937.07 1.892.113 2.836.113s1.9-.042 2.836-.113c3.958-.3 4.645-.465 5.615-1.436s1.136-1.657 1.436-5.615C28.957 26.9 29 25.944 29 25s-.042-1.9-.113-2.836c-.3-3.958-.465-4.645-1.436-5.615s-1.657-1.136-5.615-1.436A38 38 0 0 0 19 15m4.5 10c0-.866-.962-1.452-2.887-2.624l-.832-.507c-1.461-.89-2.36-1.352-3.023-1.369a1 1 0 0 0-.541.133c-.717.412-.717 1.45-.717 3.696v1.342c0 2.246 0 3.284.717 3.696.165.095.342.138.54.133.664-.017 1.563-.48 3.024-1.37l.832-.506C22.538 26.452 23.5 25.866 23.5 25"/></svg>