<svg xmlns="http://www.w3.org/2000/svg" viewBox="0 0 16 16"><path fill-rule="evenodd" d="M11.792 11.593c.238-.123.478-.283.734-.491a6 6 0 0 0 .576-.576C14 9.423 14 8.615 14 7s0-2.423-.898-3.526a6 6 0 0 0-.576-.576C11.423 2 10.616 2 9 2s-2.422 0-3.525.898a6 6 0 0 0-.577.576 4.3 4.3 0 0 0-.49.734c-.512.134-.939.372-1.383.817-.928.928-.958 1.78-1.016 3.483a14 14 0 0 0 0 .984c.058 1.703.088 2.555 1.016 3.483s1.78.958 3.483 1.016a14 14 0 0 0 .984 0c1.703-.058 2.555-.088 3.483-1.016.444-.444.683-.87.817-1.382m.199-2.08c.276-.353.374-.6.428-.863.075-.359.081-.794.081-1.65s-.006-1.291-.08-1.65c-.059-.278-.165-.54-.481-.929l-.052-.057a5 5 0 0 0-.25-.25l-.058-.052c-.389-.317-.65-.423-.929-.481C10.292 3.507 9.856 3.5 9 3.5s-1.29.007-1.65.081c-.262.054-.51.152-.863.428h.02a14 14 0 0 1 .985 0c1.703.058 2.555.088 3.483 1.016s.958 1.78 1.016 3.483a14 14 0 0 1 0 .984zM7 5.5q-.22 0-.44.008c-.905.03-1.371.054-1.733.14-.265.065-.466.162-.742.437-.275.276-.372.477-.436.742-.087.362-.11.828-.141 1.732a13 13 0 0 0 0 .882c.03.904.054 1.37.14 1.732.065.265.162.466.437.742.276.275.477.372.742.436.362.087.828.11 1.732.141a13 13 0 0 0 .882 0c.904-.03 1.37-.054 1.732-.14.265-.065.466-.162.742-.437.275-.276.372-.477.436-.742.087-.362.11-.828.141-1.732a13 13 0 0 0 0-.882c-.03-.904-.054-1.37-.14-1.732-.065-.265-.162-.466-.437-.742-.276-.275-.477-.372-.742-.436-.362-.087-.828-.11-1.732-.141A13 13 0 0 0 7 5.5m1.2 3.614c0-.263-.289-.44-.866-.796l-.25-.153c-.438-.27-.708-.41-.907-.415a.3.3 0 0 0-.162.04c-.215.125-.215.44-.215 1.12v.407c0 .68 0 .995.215 1.12a.3.3 0 0 0 .162.04c.2-.005.469-.145.907-.415l.25-.153c.577-.355.866-.533.866-.795"/></svg>