<svg xmlns="http://www.w3.org/2000/svg" viewBox="0 0 16 16"><path d="M7.736 4.01a.726.726 0 0 0-.734.751 25 25 0 0 0 .334 3.018c.124.732.187 1.097.487 1.398s.666.362 1.398.487c.826.14 1.912.286 3.03.334.414.018.75-.32.75-.734a.78.78 0 0 0-.75-.769c-.86-.04-1.711-.141-2.42-.252l4.95-4.962a.75.75 0 1 0-1.062-1.061L8.76 7.19a23 23 0 0 1-.255-2.429.78.78 0 0 0-.769-.75M5.723 10.22a.75.75 0 1 1 1.06 1.06l-1.22 1.22 1.22 1.22a.75.75 0 1 1-1.06 1.06l-1.22-1.22-1.22 1.22a.75.75 0 0 1-1.06-1.06l1.22-1.22-1.22-1.22a.75.75 0 1 1 1.06-1.06l1.22 1.22z"/></svg>