<svg xmlns="http://www.w3.org/2000/svg" viewBox="0 0 24 24"><path d="M12.016 6.46a.97.97 0 0 0-.983 1.002c.067 1.724.29 3.394.507 4.666.187 1.098.28 1.647.732 2.099.451.45 1 .544 2.1.731a37 37 0 0 0 4.659.507.97.97 0 0 0 1.002-.982c0-.553-.45-1-1.002-1.023a35 35 0 0 1-4.13-.444l7.305-7.306a1.001 1.001 0 1 0-1.417-1.417L13.483 11.6a35 35 0 0 1-.444-4.138 1.036 1.036 0 0 0-1.023-1.002m-2.721 9.329a1 1 0 1 1 1.414 1.415l-1.793 1.794 1.793 1.794a1.001 1.001 0 0 1-1.414 1.415l-1.793-1.794-1.793 1.794a1 1 0 1 1-1.414-1.415l1.793-1.794-1.793-1.794a1 1 0 0 1 1.414-1.415l1.793 1.794z"/></svg>