<svg xmlns="http://www.w3.org/2000/svg" viewBox="0 0 16 16"><path d="M14.948 10.848c-.114 1.36-.17 2.039-1.073 2.945s-1.611.967-3.028 1.09A33 33 0 0 1 8.009 15a1.5 1.5 0 1 1 1.5-1.533q.653-.03 1.208-.079c.758-.065 1.113-.103 1.395-.19.201-.062.397-.16.7-.464.312-.312.406-.506.463-.69l.016-.054q-.203.01-.405.01c-.605-.002-.908-.004-1.347-.417-.44-.414-.463-.779-.51-1.508a9 9 0 0 1 0-1.15c.047-.728.07-1.093.51-1.507.439-.413.742-.415 1.347-.417h.532A5.501 5.501 0 0 0 2.6 7h.531c.606.002.909.004 1.348.417.44.414.463.779.51 1.508a9 9 0 0 1 0 1.149c-.047.73-.07 1.094-.51 1.508s-.742.415-1.348.417l-.198-.002c-.682-.023-1.024-.035-1.451-.46-.428-.427-.441-.785-.468-1.502C.986 9.259 1.01 8.478 1.01 7.7l.007-.007a7 7 0 0 1 13.986 0s-.012 2.642-.054 3.154"/><path d="M8.009 7.5a.75.75 0 0 1-.75-.75v-2a.75.75 0 0 1 1.5 0v2a.75.75 0 0 1-.75.75m-.001 1.098a.902.902 0 1 1 0 1.804.902.902 0 0 1 0-1.804"/></svg>