<svg xmlns="http://www.w3.org/2000/svg" viewBox="0 0 17 17"><path fill-rule="evenodd" d="M2.676 6.45C1.763 5.3.794 4.072 1.13 3.65c.732-.918 3.266-2.587 4.446-2.587 1.181 0 3.715 1.669 4.447 2.586.337.424-.632 1.65-1.545 2.8a2.922 2.922 0 0 1-5.803 0m3.857-2.307a.956.956 0 1 1-1.912 0 .956.956 0 0 1 1.912 0"/><path d="M1.186 11.232c.242-.24.468-.42.695-.558l4.73 4.73H0q.03-.585.074-1.099c.124-1.438.186-2.157 1.112-3.073m9.969 4.173H8.87l-5.21-5.211q.241-.023.517-.044a17.3 17.3 0 0 1 2.8 0c1.377.111 2.066.167 2.992 1.082.926.916.988 1.635 1.111 3.073q.045.512.075 1.1m4.525-4.618q-.15-.085-.278-.163V8.47c0-.274.001-.722-.245-.895-.202-.142-.48-.139-.725-.136h-2.219q-.29 0-.553.003l1.618 1.619v1.563q-.129.078-.278.163c-.573.33-1.316.757-1.316 1.43h5.312c0-.673-.743-1.1-1.316-1.43"/><path d="M10.14 7.488q.24-.012.54-.023l2.1 2.1h-.567c-.879 0-1.572-.024-2.073-.05-.44-.022-.66-.034-.867-.229l-.06-.063c-.185-.218-.185-.386-.185-.721 0-.336 0-.504.185-.721l.06-.064c.207-.195.427-.206.867-.229"/></svg>