<svg xmlns="http://www.w3.org/2000/svg" viewBox="0 0 44 44"><path fill-rule="evenodd" d="m7.788 16.362.076.095a6.662 6.662 0 0 0 13.27 0l.078-.095c2.132-2.642 4.418-5.474 3.628-6.447C23.14 7.815 17.246 4 14.5 4S5.861 7.816 4.16 9.915c-.79.973 1.496 3.805 3.628 6.447M14.5 13a2 2 0 1 0 0-4 2 2 0 0 0 0 4"/><path d="M3.093 27.958c.648-.647 1.251-1.127 1.859-1.488L18.482 40H-.004c.058-1.51.157-2.89.267-4.142.327-3.71.49-5.565 2.83-7.9M22.721 40h6.283a84 84 0 0 0-.26-4.143c-.326-3.71-.49-5.564-2.83-7.9-2.338-2.335-4.094-2.487-7.603-2.79A44 44 0 0 0 14.504 25a44 44 0 0 0-3.807.166c-.964.084-1.797.156-2.545.265zm16.694-21.074c-.39-.366-.788-.383-1.586-.418l-.627-.004c-.313-.002-.665-.004-.955-.004h-4.75q-.3 0-.587.002l4.101 4.1q-.015.628-.015 1.353V27.5c-.206.11-.443.224-.697.347-1.396.678-3.3 1.6-3.299 3.153h12.996c0-1.558-1.908-2.48-3.307-3.156-.252-.122-.488-.236-.693-.344h-.004v-3.545c0-1.406-.047-2.535-.103-3.377-.056-.857-.085-1.286-.474-1.652"/><path d="M26.83 18.614q.585-.03 1.307-.057L33.58 24h-2.083c-1.947 0-3.507-.053-4.667-.114-1.088-.058-1.633-.087-2.159-.555a3 3 0 0 1-.236-.249c-.439-.55-.439-.977-.439-1.832s0-1.282.44-1.832c.054-.069.17-.191.235-.25.527-.467 1.07-.496 2.16-.554"/></svg>