<svg xmlns="http://www.w3.org/2000/svg" viewBox="0 0 44 44"><path d="M16.504 12.502a2.002 2.002 0 1 1-4.004 0 2.002 2.002 0 0 1 4.003 0"/><path fill-rule="evenodd" d="M14.5 4c-1.543 0-3.656.763-5.442 1.667S5.369 7.842 4.42 9.17c-.494.693-.465 1.466-.348 2.01.117.545.368 1.085.634 1.568.525.95 1.326 2.05 2.096 3.106l.043.059q.361.495.719.991a6.996 6.996 0 0 0 13.873-.002q.357-.495.718-.99l.043-.06c.77-1.055 1.571-2.154 2.096-3.104.266-.483.517-1.023.634-1.569.117-.543.146-1.316-.348-2.009-.949-1.328-2.852-2.599-4.638-3.503S16.042 4 14.5 4m-7.189 7.31a4 4 0 0 1-.294-.63c.606-.692 1.857-1.584 3.385-2.357 1.695-.859 3.286-1.347 4.098-1.347s2.403.488 4.098 1.347c1.528.773 2.779 1.665 3.385 2.357-.048.14-.138.347-.294.629-.424.768-1.114 1.72-1.938 2.85l-.003.003c-.315.432-.644.884-.967 1.34l-.243.344-.027.42a4.02 4.02 0 0 1-8.02.002l-.028-.42-.243-.344c-.324-.457-.653-.909-.968-1.34l-.003-.005c-.823-1.13-1.514-2.082-1.938-2.85M18.31 25.167c3.51.303 5.266.455 7.605 2.79s2.503 4.19 2.83 7.9q.048.554.092 1.143.105 1.404.167 3H-.002a86 86 0 0 1 .265-4.142c.327-3.71.49-5.565 2.83-7.9s4.094-2.488 7.604-2.792A44 44 0 0 1 14.504 25c1.338 0 2.614.063 3.807.166m7.445 10.953q.039.43.073.88h-6.105l-8.84-8.838.073-.007A41 41 0 0 1 14.504 28c1.244 0 2.433.059 3.548.155 1.854.16 2.808.258 3.6.507.633.2 1.253.53 2.143 1.419.869.867 1.209 1.5 1.42 2.191.263.854.368 1.895.54 3.849M7.198 28.716 15.483 37H3.18q.035-.45.072-.88c.172-1.953.278-2.994.54-3.848.212-.69.552-1.324 1.421-2.191.815-.814 1.404-1.16 1.985-1.366"/><path d="M39.417 18.926c-.39-.366-.789-.383-1.586-.418l-.627-.004c-.313-.002-.665-.004-.955-.004h-4.75q-.3 0-.587.002l4.101 4.1q-.015.628-.015 1.353V27.5c-.206.11-.443.224-.697.347-1.396.678-3.3 1.6-3.299 3.153h12.996c0-1.558-1.908-2.48-3.307-3.156a24 24 0 0 1-.694-.344h-.003v-3.545c0-1.406-.047-2.535-.103-3.377-.056-.857-.085-1.286-.474-1.652"/><path d="M26.832 18.614q.585-.03 1.307-.057L33.582 24h-2.083c-1.947 0-3.507-.053-4.667-.114-1.088-.058-1.633-.087-2.159-.555a3 3 0 0 1-.236-.249c-.439-.55-.439-.977-.439-1.832s0-1.282.44-1.832c.054-.069.17-.191.235-.25.527-.467 1.07-.496 2.16-.554"/></svg>