<svg xmlns="http://www.w3.org/2000/svg" viewBox="0 0 32 32"><path fill-rule="evenodd" d="M15.307 12.255a4.834 4.834 0 0 1-9.615-.001c-1.519-1.976-3.14-4.09-2.578-4.818C4.33 5.862 8.539 3 10.5 3s6.17 2.862 7.386 4.436c.562.728-1.06 2.842-2.579 4.819M12.25 8a1.75 1.75 0 1 1-3.5 0 1.75 1.75 0 0 1 3.5 0"/><path d="M2.213 20.613a7.6 7.6 0 0 1 1.047-.885L12.533 29H0q.059-1.45.164-2.675c.226-2.673.34-4.01 2.049-5.712M20.499 29H16.06L5.851 18.79c.55-.079 1.16-.128 1.871-.185a31.5 31.5 0 0 1 5.055 0c2.533.204 3.8.306 5.509 2.008s1.822 3.039 2.049 5.712c.069.816.126 1.708.163 2.675m2.059-15.497 2.954 2.955q-.015.519-.015 1.134v2.453l-1.33.828c-.937.724-1.17 1.21-1.17 1.627h9c0-.416-.233-.903-1.17-1.627l-1.33-.828V17.59a36 36 0 0 0-.082-2.532c-.046-.643-.068-.965-.38-1.24-.312-.274-.631-.287-1.27-.313a13 13 0 0 0-.575-.006h-3.94q-.359 0-.692.003"/><path d="M19.566 13.589q.411-.023.915-.04l3.951 3.951H23.25c-1.552 0-2.784-.041-3.683-.088-.804-.043-1.206-.064-1.591-.417a2 2 0 0 1-.147-.155c-.33-.405-.33-.717-.33-1.34s0-.934.33-1.34a2 2 0 0 1 .147-.155c.385-.353.787-.374 1.591-.416"/></svg>