<svg xmlns="http://www.w3.org/2000/svg" viewBox="0 0 16 16"><path fill-rule="evenodd" d="M2.065 5.856c.092.7.138 1.049.478 1.346s.763.298 1.61.298h6.773a3 3 0 0 1 1.657-.5q.492.002.935.149c.288-.287.334-.635.42-1.293a6.9 6.9 0 0 0-.099-2.413c-.069-.32-.103-.48-.24-.677a1.4 1.4 0 0 0-.404-.365c-.21-.116-.4-.138-.78-.18-.978-.109-2.453-.22-4.413-.22-1.96.001-3.435.111-4.414.22-.38.042-.57.064-.78.18a1.4 1.4 0 0 0-.403.365c-.137.197-.172.357-.24.677-.093.43-.163.937-.163 1.487 0 .322.024.634.063.926M5.9 4.752a.9.9 0 1 1-1.8 0 .9.9 0 0 1 1.8 0m4.07 3.75q-.226.372-.347.799c-1.227.432-2.125 1.578-2.125 2.95 0 .651.203 1.252.546 1.749h-.042c-1.96 0-3.435-.11-4.414-.22-.38-.041-.57-.063-.78-.18a1.4 1.4 0 0 1-.403-.364c-.137-.197-.172-.357-.24-.677a7 7 0 0 1-.163-1.487c0-.322.024-.634.063-.926.092-.7.138-1.049.478-1.347.34-.297.763-.297 1.61-.297zM5.9 11.25a.9.9 0 1 0-1.8 0 .9.9 0 0 0 1.8 0"/><path d="M11.011 9.99c.1-.869.793-1.49 1.572-1.49.733 0 1.387.547 1.548 1.337l.082.406.387.147c.615.232.893.924.9 1.61.005.41-.078.818-.27 1.125a2.3 2.3 0 0 1-.512.53c-.395.268-.683.296-1.733.333q-.29.01-.598.01-.704-.002-1.253-.05c-.406-.033-.63-.055-.815-.104l-.01-.003-.01-.002c-.764-.181-1.3-.838-1.3-1.588 0-.782.584-1.463 1.398-1.608l.55-.098z"/></svg>