<svg xmlns="http://www.w3.org/2000/svg" viewBox="0 0 24 24"><path d="M6.764 20.774c.64.06 1.385.115 2.236.156.552 0 1-.456 1-1.008a1 1 0 0 0-1.07-.998 47 47 0 0 1-1.979-.142c-.697-.065-.965-.098-1.158-.154-.087-.025-.157-.05-.314-.198-.19-.18-.213-.249-.22-.27l-.001-.003a1.6 1.6 0 0 1-.063-.246 13 13 0 0 1-.097-.604 9 9 0 0 1-.069-2.04c.07-.906.109-1.32.189-1.619a.66.66 0 0 1 .231-.381c.075-.07.157-.138.498-.191.441-.07 1.045-.076 2.145-.076H12.5a1 1 0 1 0 0-2H8.092c-1.1 0-1.704-.006-2.145-.076-.341-.053-.423-.121-.498-.19a.66.66 0 0 1-.231-.382c-.08-.298-.12-.713-.189-1.62a9 9 0 0 1 .069-2.04c.04-.273.067-.452.097-.603.028-.142.05-.211.063-.246v-.004c.008-.02.031-.088.221-.269.157-.149.227-.173.314-.198.193-.056.46-.089 1.159-.154A54 54 0 0 1 12 5c2.12 0 3.804.1 5.048.217.698.066.966.099 1.159.155.087.025.157.05.314.198.19.18.213.249.22.27l.002.003c.013.035.035.104.062.246.03.152.057.33.097.605a9 9 0 0 1 .069 2.037c-.037.49-.066.836-.097 1.098q-.015.083-.015.171a1 1 0 0 0 1 1c.476 0 .879-.331.98-.776.053-.382.087-.821.126-1.34Q21 8.443 21 8c0-.57-.047-1.108-.119-1.598-.154-1.046-.231-1.569-.983-2.283-.752-.713-1.39-.773-2.663-.893A56 56 0 0 0 12 3c-2.183 0-3.93.104-5.236.226-1.273.12-1.91.18-2.661.893s-.83 1.236-.984 2.282a11 11 0 0 0-.084 2.483c.117 1.539.18 2.372.856 3.116-.675.744-.739 1.577-.856 3.116Q3 15.555 3 16c0 .57.047 1.109.12 1.6.154 1.045.23 1.567.983 2.28.752.714 1.388.774 2.661.894"/><path d="M9.25 8a1.25 1.25 0 1 1-2.5 0 1.25 1.25 0 0 1 2.5 0M8 17.25a1.25 1.25 0 1 0 0-2.5 1.25 1.25 0 0 0 0 2.5"/><path fill-rule="evenodd" d="M22.997 17.022a2.9 2.9 0 0 0-2.19-2.672 3.501 3.501 0 0 0-6.772.655l-.065-.001c-1.64 0-2.97 1.292-2.97 2.887a2.87 2.87 0 0 0 1.46 2.486c.578.39 1.156.44 2.107.523.692.06 1.503.1 2.433.1.655 0 1.272-.02 1.842-.053 1.05-.06 1.575-.09 2.216-.409.575-.285 1.203-.913 1.541-1.517q.07-.123.12-.244c.173-.404.24-.801.266-1.344l.012-.144v-.006a2 2 0 0 0 0-.255zm-2 .19-.007.063-.003.063c-.02.417-.063.552-.107.654a1.7 1.7 0 0 1-.308.423 1.7 1.7 0 0 1-.404.332c-.215.107-.322.14-1.442.204A30 30 0 0 1 17 19a26 26 0 0 1-2.26-.094c-.513-.044-.76-.069-.949-.11a.5.5 0 0 1-.211-.078l-.06-.04-.063-.036A.87.87 0 0 1 13 17.89c0-.436.38-.886.97-.886h.023l1.773.037.249-1.756a1.5 1.5 0 0 1 2.903-.278l.355 1.021 1.048.262a.9.9 0 0 1 .678.827v.002a1 1 0 0 1-.002.093"/></svg>