<svg xmlns="http://www.w3.org/2000/svg" viewBox="0 0 24 24"><path fill-rule="evenodd" d="M11 12c0 1.768-.077 3.324-.174 4.583C10.674 18.566 8.988 20 7 20h-.309c-1.946 0-3.718-1.142-4.144-3.041A22.7 22.7 0 0 1 2 12q0-1.495.069-2.99C2.199 6.266 4.25 4 7 4c.44 0 .84.03 1.198.08 1.509.207 2.428 1.549 2.58 3.065A49 49 0 0 1 11 12m-7 0c0 1.778.229 3.32.498 4.52.178.796.971 1.48 2.193 1.48H7c1.036 0 1.767-.72 1.832-1.57A58 58 0 0 0 9 12zm.066-2.895a58 58 0 0 0-.035.895h4.933a42 42 0 0 0-.176-2.656c-.044-.432-.192-.77-.358-.979a.74.74 0 0 0-.505-.304A7 7 0 0 0 7 6C5.478 6 4.154 7.26 4.066 9.105M13 12c0 1.768.077 3.324.174 4.583C13.326 18.566 15.012 20 17 20h.309c1.946 0 3.718-1.142 4.144-3.041.297-1.32.547-3.011.547-4.959q.002-1.495-.069-2.99C21.801 6.266 19.75 4 17 4c-.44 0-.84.03-1.198.08-1.509.207-2.427 1.549-2.58 3.065A49 49 0 0 0 13 12m2.212-4.656A42 42 0 0 0 15.036 10h4.933q-.015-.467-.035-.895C19.846 7.26 18.522 6 17 6c-.347 0-.655.024-.925.061a.74.74 0 0 0-.505.304c-.166.21-.314.547-.358.98M15 12c0 1.71.075 3.215.168 4.43.065.85.796 1.57 1.832 1.57h.309c1.222 0 2.015-.684 2.193-1.48.27-1.2.498-2.742.498-4.52z"/></svg>