<svg xmlns="http://www.w3.org/2000/svg" viewBox="0 0 16 16"><path fill-rule="evenodd" d="M1.372 11.402A16 16 0 0 1 1 8c0-.799.021-1.522.053-2.158.09-1.825 1.453-3.342 3.28-3.342q.412.002.752.047c1.035.133 1.66 1.06 1.762 2.099C6.927 5.472 7 6.6 7 8c0 1.23-.056 2.333-.125 3.222-.101 1.317-1.22 2.278-2.542 2.278h-.14c-1.33 0-2.537-.798-2.821-2.098M2.5 8c0 1.187.155 2.246.337 3.081.105.48.586.919 1.357.919h.14c.6 0 1.01-.418 1.046-.894.066-.857.12-1.92.12-3.106zm2.854-3.208c.045.465.089 1.037.116 1.708H2.526q.01-.304.025-.583C2.608 4.756 3.433 4 4.333 4q.314.002.56.035c.089.011.163.047.245.15.095.121.189.33.216.607M15 8.001a16 16 0 0 1-.372 3.4c-.284 1.301-1.49 2.099-2.821 2.099h-.14c-1.322 0-2.44-.96-2.542-2.278A42 42 0 0 1 9 8c0-1.399.072-2.528.153-3.355.102-1.04.727-1.966 1.763-2.1q.34-.044.75-.046c1.828 0 3.19 1.517 3.281 3.342A44 44 0 0 1 15 8.001M13.474 6.5a40 40 0 0 0-.025-.583C13.392 4.756 12.567 4 11.667 4q-.315.002-.56.035c-.088.011-.163.047-.245.15-.095.121-.189.33-.216.607A30 30 0 0 0 10.53 6.5zM10.5 8h3c0 1.187-.155 2.247-.337 3.082-.105.48-.586.918-1.356.918h-.14c-.6 0-1.01-.418-1.047-.894-.066-.857-.12-1.92-.12-3.106"/></svg>