<svg xmlns="http://www.w3.org/2000/svg" viewBox="0 0 16 16"><path fill-rule="evenodd" d="M1 8c0 1.315.171 2.483.372 3.402.284 1.3 1.49 2.098 2.822 2.098h.14c1.32 0 2.44-.96 2.541-2.278C6.944 10.332 7 9.23 7 8c0-1.399-.072-2.528-.153-3.354-.102-1.04-.727-1.966-1.763-2.1a6 6 0 0 0-.75-.046c-1.828 0-3.191 1.517-3.281 3.342C1.02 6.478 1 7.202 1 8m1.837 3.081A14.5 14.5 0 0 1 2.5 8h3c0 1.186-.054 2.25-.12 3.106-.037.476-.447.894-1.047.894h-.14c-.77 0-1.25-.439-1.356-.919m11.791.321c.2-.918.372-2.086.372-3.401a44 44 0 0 0-.053-2.159c-.09-1.825-1.453-3.342-3.28-3.342q-.412.002-.751.047c-1.036.133-1.66 1.06-1.763 2.099A35 35 0 0 0 9 8.001c0 1.23.056 2.332.125 3.22.101 1.318 1.22 2.279 2.542 2.279h.14c1.33 0 2.537-.798 2.821-2.098M13.5 8h-3c0 1.186.054 2.25.12 3.106.037.476.447.894 1.047.894h.14c.77 0 1.25-.438 1.356-.918.182-.835.337-1.895.337-3.082"/></svg>