<svg xmlns="http://www.w3.org/2000/svg" viewBox="0 0 24 24"><path d="M7.945 4.168C9.098 4.068 10.45 4 12 4s2.902.068 4.054.168c2.026.176 3.038.264 4.328 1.558.286.287.513.559.694.829-.741.66-2.185 1.862-3.906 2.88-.48.284-.993.559-1.51.82-1.967.988-2.535 1.243-3.66 1.243s-1.693-.255-3.66-1.244c-.517-.26-1.03-.535-1.51-.82-1.721-1.017-3.164-2.218-3.906-2.879.181-.27.408-.542.695-.83 1.29-1.293 2.302-1.381 4.326-1.557"/><path d="M2.22 8.59a27.5 27.5 0 0 0 3.592 2.566c.528.312 1.081.609 1.63.885 1.931.971 2.897 1.457 4.558 1.457 1.66 0 2.627-.486 4.558-1.457a28 28 0 0 0 1.63-.885A27.5 27.5 0 0 0 21.78 8.59c.054.397.09.837.133 1.343a25 25 0 0 1 0 4.137c-.162 1.941-.243 2.912-1.532 4.206s-2.302 1.382-4.328 1.558c-1.152.1-2.504.167-4.054.167s-2.902-.067-4.055-.167c-2.025-.176-3.037-.264-4.326-1.558-1.29-1.293-1.37-2.264-1.532-4.204a25 25 0 0 1 0-4.14c.042-.506.079-.945.133-1.342"/></svg>