<svg xmlns="http://www.w3.org/2000/svg" viewBox="0 0 28 28"><path fill-rule="evenodd" d="M2.125 16.832A33 33 0 0 1 2 14c0-1 .048-1.951.125-2.831.206-2.363.31-3.545 1.848-5.088s2.742-1.652 5.151-1.87A54 54 0 0 1 14 4c1.864 0 3.49.085 4.874.21 2.41.219 3.616.328 5.154 1.871 1.538 1.544 1.641 2.726 1.847 5.09C25.952 12.05 26 13 26 14s-.048 1.95-.125 2.83c-.206 2.363-.31 3.545-1.847 5.089-1.538 1.543-2.743 1.652-5.153 1.87A54 54 0 0 1 14 24c-1.864 0-3.49-.085-4.876-.21-2.409-.219-3.613-.328-5.151-1.871s-1.642-2.725-1.848-5.087m7.18-10.63A52 52 0 0 1 14 6c1.803 0 3.368.082 4.694.202 1.27.115 1.94.185 2.49.357.441.137.854.359 1.427.934.578.58.797.99.93 1.42q.04.123.07.257a29.4 29.4 0 0 1-3.41 2.383c-.569.336-1.173.66-1.782.967-2.288 1.151-3.017 1.487-4.419 1.487s-2.13-.336-4.419-1.487a30 30 0 0 1-1.782-.967 29.4 29.4 0 0 1-3.41-2.383q.031-.135.07-.258c.134-.43.352-.84.93-1.419.573-.575.986-.797 1.428-.934.549-.171 1.217-.241 2.488-.357M4 14c0-.885.04-1.73.106-2.518a30 30 0 0 0 2.675 1.793c.616.364 1.261.71 1.902 1.032 2.253 1.133 3.38 1.7 5.317 1.7s3.064-.567 5.317-1.7a32 32 0 0 0 1.902-1.032 30 30 0 0 0 2.675-1.793 30 30 0 0 1-.011 5.174c-.11 1.248-.175 1.896-.342 2.432-.133.429-.352.839-.93 1.419-.573.575-.986.797-1.428.934-.55.172-1.218.242-2.489.357-1.326.12-2.891.202-4.694.202s-3.37-.082-4.695-.202c-1.27-.116-1.94-.186-2.488-.357-.442-.137-.855-.359-1.428-.934-.578-.58-.796-.99-.93-1.419-.166-.535-.233-1.183-.342-2.43A31 31 0 0 1 4 14"/></svg>