<svg xmlns="http://www.w3.org/2000/svg" viewBox="0 0 24 24"><path fill-rule="evenodd" d="m8.907 11.07.091-.07c.836.628 1.876 1 3.002 1a4.98 4.98 0 0 0 3.002-1l.09.07A4.99 4.99 0 0 1 17 15c0 1.226-.383 2.598-1.031 3.612C15.318 19.63 14.614 20 14 20h-4c-.566 0-1.274-.359-1.945-1.397C7.395 17.582 7 16.21 7 15c0-1.592.742-3.01 1.907-3.93M12 4a3 3 0 0 1-3 3 3 3 0 1 0 6 0 3 3 0 0 1-3-3m4.33 5.5a5 5 0 1 0-8.662 0A6.99 6.99 0 0 0 5.001 15c0 3.171 2 7 5 7h4c3.077 0 5-3.829 5-7a6.99 6.99 0 0 0-2.67-5.5"/></svg>