<svg xmlns="http://www.w3.org/2000/svg" viewBox="0 0 16 16"><path fill-rule="evenodd" d="M4.882 6.091a3.5 3.5 0 1 1 6.236 0A4.99 4.99 0 0 1 13 10c0 2.419-1.5 5-3 5H6c-1.5 0-3-2.96-3-5a4.99 4.99 0 0 1 1.882-3.909M10 4.501a2 2 0 0 1-2-2h.077a2 2 0 0 0-.154 0H8a2 2 0 0 1-2 2 2 2 0 0 0 4 0M4.5 10a3.49 3.49 0 0 1 1.318-2.736l.017-.013C6.431 7.72 7.183 8 8 8s1.568-.28 2.164-.75l.018.013A3.49 3.49 0 0 1 11.5 9.999c0 .926-.295 1.914-.727 2.642-.215.36-.431.605-.605.744a.7.7 0 0 1-.187.114H6.055a1 1 0 0 1-.166-.12c-.189-.167-.42-.452-.646-.853-.462-.818-.743-1.816-.743-2.527"/></svg>