<svg xmlns="http://www.w3.org/2000/svg" viewBox="0 0 16 16"><path fill-rule="evenodd" d="m8.574 5.656-.59.36c-.038-1.045-.17-1.633-.63-1.896-.645-.372-1.505.149-3.214 1.19l-.532.325-.034.02C1.864 6.699 1 7.226 1 8s.863 1.302 2.574 2.344l.034.021.532.324c1.71 1.042 2.569 1.563 3.214 1.191.46-.264.592-.851.63-1.896l.59.36.034.021.532.324c1.71 1.042 2.569 1.563 3.214 1.191.646-.37.646-1.383.646-3.408v-.944c0-2.025 0-3.037-.646-3.408-.645-.372-1.505.149-3.214 1.19l-.532.325zM8 8.213c.318.217.753.484 1.354.85l.034.021.533.324c.708.432 1.186.72 1.544.901.033-.409.035-.982.035-1.837v-.944c0-.855-.002-1.428-.035-1.837-.358.18-.836.469-1.544.9l-.532.325-.035.02A35 35 0 0 0 8 7.788zm-3.612.871-.034-.02c-.812-.496-1.32-.81-1.648-1.064.328-.255.836-.568 1.648-1.063l.034-.021.533-.324c.708-.432 1.186-.72 1.544-.901.032.409.035.982.035 1.837v.944c0 .855-.003 1.428-.035 1.837-.358-.18-.836-.469-1.544-.9z"/></svg>