<svg xmlns="http://www.w3.org/2000/svg" viewBox="0 0 24 24"><path fill-rule="evenodd" d="m13.925 15.404.052.03 1.143.663h.002c2.606 1.513 3.909 2.269 4.893 1.73.985-.54.985-2.01.985-4.95v-1.755c0-2.94 0-4.41-.985-4.948-.984-.54-2.287.216-4.893 1.728l-.002.001-1.142.663-.053.03q-.503.292-.942.55c-.048-1.655-.235-2.571-.968-2.972-.984-.54-2.287.216-4.893 1.728l-.001.001-1.143.663-.053.03C3.317 10.11 2 10.874 2 12s1.317 1.89 3.925 3.403l.053.03 1.143.664c2.607 1.513 3.91 2.269 4.894 1.73.733-.402.92-1.318.968-2.972z"/></svg>