<svg width="44" height="44" viewBox="0 0 44 44" fill="none" xmlns="http://www.w3.org/2000/svg">
<g clip-path="url(#clip0_28728_8224)">
<path d="M29.7559 10.207C26.2539 6.70508 24.1455 5.01063 23.2094 4.4531C22.58 4.11703 21.54 4.00009 20.6436 4.00005L20.0515 4L20.0162 4.00002L19.5986 4L19.6001 4.00307C18.8797 4.01286 18.1914 4.04574 17.5375 4.09608C14.863 4.30197 13.5257 4.40492 11.1858 6.69517C8.84587 8.98543 8.69164 10.5495 8.38317 13.6777C8.15793 15.9618 8 18.738 8 22C8 24.7127 8.11192 27.0893 8.27916 29.1264C8.58474 32.8488 8.73754 34.7099 11.1333 37.0922C13.5291 39.4745 15.2799 39.6083 18.7814 39.8759C19.7996 39.9537 20.8773 40 22 40C23.1228 40 24.2005 39.9537 25.2188 39.8759C28.7202 39.6083 30.4708 39.4745 32.8666 37.0923C35.2624 34.71 35.4152 32.8489 35.7208 29.1267C35.8881 27.0896 36 24.7128 36 22C36 20.5088 36.0352 17.6289 35.5508 16.7773C35.4846 16.661 35.3615 16.5887 35.214 16.3981C34.4247 15.3781 32.7065 13.1577 29.7559 10.207Z" fill="url(#paint0_linear_28728_8224)"/>
<path fill-rule="evenodd" clip-rule="evenodd" d="M15.063 23.8844C15.2145 21.8498 15.2902 20.8324 16.3113 19.8113C17.3324 18.7902 18.3498 18.7145 20.3844 18.563C20.9119 18.5238 21.4559 18.5 22 18.5C22.5441 18.5 23.0881 18.5238 23.6156 18.563C25.6502 18.7145 26.6676 18.7902 27.6887 19.8113C28.7098 20.8324 28.7855 21.8498 28.937 23.8844C28.9762 24.4119 29 24.9559 29 25.5C29 26.0441 28.9762 26.5881 28.937 27.1156C28.7855 29.1502 28.7098 30.1676 27.6887 31.1887C26.6676 32.2098 25.6502 32.2855 23.6156 32.437C23.0881 32.4762 22.5441 32.5 22 32.5C21.4559 32.5 20.9119 32.4762 20.3844 32.437C18.3498 32.2855 17.3324 32.2098 16.3113 31.1887C15.2902 30.1676 15.2145 29.1502 15.063 27.1156C15.0238 26.5881 15 26.0441 15 25.5C15 24.9559 15.0238 24.4119 15.063 23.8844ZM17.4119 29.8057C17.4537 29.8539 17.4992 29.9017 17.5487 29.9513C18.039 30.4415 18.3621 30.5316 20.5143 30.6918C21.0059 30.7284 21.5061 30.75 22 30.75C22.4939 30.75 22.9941 30.7284 23.4857 30.6918C25.6379 30.5316 25.961 30.4415 26.4513 29.9513C26.9415 29.461 27.0316 29.1379 27.1918 26.9857C27.1962 26.927 27.2003 26.8682 27.2042 26.8093C27.2042 26.8093 27.0039 26.2599 26.8923 25.9554C26.8923 25.9554 26.8171 25.745 26.3659 24.7287C25.9147 23.7124 25.4048 23.1655 24.9561 23.1655C24.506 23.1655 24.2034 23.6835 23.6043 24.7257L22.3254 27.2732C22.1328 27.6568 21.8033 27.8338 21.4606 27.8322C21.1104 27.8305 20.7464 27.6424 20.5004 27.2795C20.2603 26.9254 19.9854 26.6655 19.6695 26.6655C19.2211 26.6655 18.9221 27.1857 18.3273 28.2205L18.3209 28.2316L17.4119 29.8057ZM21.7083 23.1655C21.7083 22.3601 21.0554 21.7072 20.25 21.7072C19.4446 21.7072 18.7917 22.3601 18.7917 23.1655C18.7917 23.9709 19.4446 24.6238 20.25 24.6238C21.0554 24.6238 21.7083 23.9709 21.7083 23.1655Z" fill="white"/>
<path d="M35.5711 16.8017C33.6427 11.4327 27.987 6.3383 23.168 4.42969C25.506 7.51031 24.457 12.8831 25.7983 14.2243C27.4018 15.8278 32.868 14.6089 35.5711 16.8017Z" fill="#839BFF"/>
</g>
<defs>
<linearGradient id="paint0_linear_28728_8224" x1="1.50692" y1="7.5" x2="43.1298" y2="15.9379" gradientUnits="userSpaceOnUse">
<stop stop-color="#7FA2FD"/>
<stop offset="1" stop-color="#3319CF"/>
</linearGradient>
<clipPath id="clip0_28728_8224">
<rect width="44" height="44" fill="white"/>
</clipPath>
</defs>
</svg>
