<svg width="32" height="32" viewBox="0 0 32 32" fill="none" xmlns="http://www.w3.org/2000/svg">
<g clip-path="url(#clip0_28728_8229)">
<path d="M21.541 7.48286C19.04 4.95367 17.5343 3.7299 16.8657 3.32724C16.4163 3.08452 15.6735 3.00006 15.0333 3.00003L14.6105 3L14.5852 3.00001L14.287 3L14.2881 3.00221C13.7736 3.00929 13.282 3.03304 12.815 3.06939C10.905 3.21809 9.94995 3.29244 8.27883 4.94652C6.60772 6.60059 6.49757 7.7302 6.27727 9.98943C6.11641 11.6391 6 13.6441 6 16C6 17.9381 6.07824 19.6387 6.19556 21.0994C6.41325 23.8095 6.5221 25.1645 8.27174 26.9023C10.0214 28.6401 11.2861 28.7331 13.8157 28.919C14.5091 28.97 15.2401 29 16 29C16.7599 29 17.491 28.97 18.1844 28.919C20.7139 28.7331 21.9786 28.6401 23.7282 26.9023C25.4778 25.1646 25.5867 23.8096 25.8044 21.0996C25.9217 19.6389 26.0008 17.9382 26.0008 16C26.0008 14.923 26.0255 12.8431 25.6796 12.2281C25.6323 12.144 25.5444 12.0918 25.4391 11.9542C24.8754 11.2175 23.6483 9.6139 21.541 7.48286Z" fill="url(#paint0_linear_28728_8229)"/>
<path fill-rule="evenodd" clip-rule="evenodd" d="M10.9541 17.3705C11.0642 15.8908 11.1192 15.1509 11.8619 14.4083C12.6045 13.6656 13.3444 13.6106 14.8241 13.5004C15.2077 13.4719 15.6034 13.4546 15.9991 13.4546C16.3948 13.4546 16.7905 13.4719 17.1741 13.5004C18.6538 13.6106 19.3937 13.6656 20.1363 14.4083C20.879 15.1509 20.934 15.8908 21.0442 17.3705C21.0727 17.7541 21.09 18.1498 21.09 18.5455C21.09 18.9412 21.0727 19.3369 21.0442 19.7205C20.934 21.2002 20.879 21.9401 20.1363 22.6827C19.3937 23.4254 18.6538 23.4804 17.1741 23.5906C16.7905 23.6191 16.3948 23.6364 15.9991 23.6364C15.6034 23.6364 15.2077 23.6191 14.8241 23.5906C13.3444 23.4804 12.6045 23.4254 11.8619 22.6827C11.1192 21.9401 11.0642 21.2002 10.9541 19.7205C10.9255 19.3369 10.9082 18.9412 10.9082 18.5455C10.9082 18.1498 10.9255 17.7541 10.9541 17.3705ZM12.6623 21.6769C12.6927 21.7119 12.7258 21.7467 12.7618 21.7828C13.1184 22.1393 13.3533 22.2048 14.9186 22.3213C15.2761 22.3479 15.6399 22.3637 15.9991 22.3637C16.3583 22.3637 16.7221 22.3479 17.0796 22.3213C18.6449 22.2048 18.8798 22.1393 19.2364 21.7828C19.593 21.4262 19.6585 21.1913 19.775 19.626C19.7781 19.5833 19.7812 19.5406 19.784 19.4977C19.784 19.4977 19.6383 19.0982 19.5571 18.8767C19.5571 18.8767 19.5024 18.7236 19.1743 17.9845C18.8462 17.2454 18.4753 16.8477 18.149 16.8477C17.8217 16.8477 17.6016 17.2244 17.1659 17.9824L16.2358 19.8351C16.0957 20.1141 15.8561 20.2428 15.6068 20.2416C15.3521 20.2404 15.0874 20.1036 14.9085 19.8396C14.7339 19.5822 14.5339 19.3931 14.3042 19.3931C13.9781 19.3931 13.7606 19.7715 13.328 20.5241L13.3234 20.5321L12.6623 21.6769ZM15.787 16.8477C15.787 16.2619 15.3121 15.7871 14.7264 15.7871C14.1406 15.7871 13.6658 16.2619 13.6658 16.8477C13.6658 17.4334 14.1406 17.9083 14.7264 17.9083C15.3121 17.9083 15.787 17.4334 15.787 16.8477Z" fill="white"/>
<path d="M25.6958 12.2459C24.3186 8.36828 20.2795 4.68899 16.8379 3.31055C18.5076 5.53544 17.7585 9.41576 18.7164 10.3844C19.8616 11.5425 23.7653 10.6622 25.6958 12.2459Z" fill="#839BFF"/>
</g>
<defs>
<linearGradient id="paint0_linear_28728_8229" x1="1.36189" y1="5.52778" x2="31.1193" y2="11.4942" gradientUnits="userSpaceOnUse">
<stop stop-color="#7FA2FD"/>
<stop offset="1" stop-color="#3319CF"/>
</linearGradient>
<clipPath id="clip0_28728_8229">
<rect width="32" height="32" fill="white"/>
</clipPath>
</defs>
</svg>
