<svg xmlns="http://www.w3.org/2000/svg" viewBox="0 0 44 44"><path fill-rule="evenodd" d="M15.12 11.27c1.955-.162 4.25-.27 6.88-.27s4.923.108 6.879.269c1.963.161 3 .26 3.855.522.69.211 1.336.557 2.231 1.458.919.923 1.252 1.555 1.447 2.184.244.785.332 1.727.473 3.58.072.948.115 1.948.115 2.987s-.043 2.04-.115 2.987c-.141 1.853-.229 2.795-.472 3.58-.196.629-.53 1.26-1.447 2.184-.896.901-1.542 1.247-2.232 1.458-.854.261-1.892.361-3.855.522-1.956.16-4.25.269-6.879.269-2.63 0-4.925-.108-6.881-.27-1.962-.16-3-.26-3.853-.521-.69-.211-1.335-.557-2.23-1.458-.92-.923-1.253-1.555-1.448-2.183-.244-.785-.331-1.726-.473-3.578A39 39 0 0 1 7 22c0-1.04.043-2.042.115-2.99.142-1.852.23-2.793.473-3.578.195-.628.529-1.26 1.447-2.183.896-.901 1.542-1.247 2.231-1.458.854-.261 1.891-.36 3.853-.522m-.246-2.99c-3.723.305-5.584.458-7.966 2.853s-2.516 4.147-2.784 7.648A42 42 0 0 0 4 22c0 1.123.046 2.2.124 3.219.268 3.501.402 5.252 2.784 7.648s4.243 2.548 7.965 2.854C16.91 35.888 19.287 36 22 36s5.088-.112 7.125-.279c3.724-.306 5.585-.458 7.968-2.855s2.516-4.148 2.783-7.65A42 42 0 0 0 40 22c0-1.121-.046-2.198-.124-3.215-.267-3.504-.4-5.255-2.783-7.651s-4.245-2.55-7.969-2.855A87 87 0 0 0 22 8c-2.713 0-5.09.112-7.126.28m-2.87 16.098v-6.576H10v8.28h5.28v-1.704zm6.316 1.703v-8.28h-2.004v8.28zm8.902-8.28-2.544 8.28h-2.892l-2.544-8.28h2.112l2.028 6.733 2.016-6.732zm6.835 1.657v-1.656H28.14v8.28h5.94v-1.657h-3.936v-1.788h2.964V21.03h-2.964v-1.572z"/></svg>