<svg xmlns="http://www.w3.org/2000/svg" viewBox="0 0 24 24"><path fill-rule="evenodd" d="M7.1 3.007c-1.515.025-2.32.14-2.904.419a2 2 0 0 0-.753.63c-.395.577-.56 1.296-.354 1.972.09.298.337.735.622 1.1.304.389.599.711 1.417 1.548a32 32 0 0 0 2.342 2.202l.529.457v2.776c0 2.799.004 3.239.033 3.907.069 1.6.315 2.359.889 2.743.16.107.33.178.523.217.189.038.533.025.763-.03.721-.171 1.502-.583 3.616-1.903 1.139-.712 1.437-.92 1.674-1.17.317-.334.436-.669.479-1.345.01-.16.016-1.217.016-2.73v-2.467l.314-.27a32 32 0 0 0 2.125-1.952c.793-.79 1.304-1.328 1.63-1.714.505-.603.768-1.055.886-1.527.192-.767-.151-1.74-.776-2.211-.496-.374-1.125-.542-2.335-.622a25 25 0 0 0-.906-.026c-.962-.012-9.082-.016-9.83-.004m9.925 2.003c.942.027 1.474.08 1.79.177.102.031.105.034.142.119a.5.5 0 0 1 .039.116c0 .037-.134.26-.25.414-.235.315-.491.597-1.259 1.384-1.013 1.04-1.586 1.566-3.068 2.82l-.421.357-.008 3.072c-.007 2.507-.012 3.077-.03 3.097-.052.065-1.489.973-2.433 1.54-.789.473-1.389.788-1.417.744a.1.1 0 0 1-.013-.035l-.024-.247c-.06-.581-.062-.726-.07-4.472l-.01-3.699-.326-.277C8.094 8.785 7.775 8.497 6.854 7.573c-.927-.93-1.342-1.377-1.61-1.736-.12-.161-.249-.378-.249-.419 0-.018.018-.07.039-.116.037-.08.041-.083.147-.116.312-.097 1.03-.163 1.952-.18.644-.012 9.446-.007 9.892.005"/></svg>