<svg xmlns="http://www.w3.org/2000/svg" viewBox="0 0 16 16"><path fill-rule="evenodd" d="M6.346 13.938c.624.245 1.409-.246 2.978-1.226.535-.335.802-.502.964-.755q.045-.07.081-.146c.129-.271.129-.587.129-1.218V7.686c.22-.182.457-.387.72-.615.325-.281.65-.58.96-.891 1.295-1.295 1.942-1.942 1.804-2.784a1.9 1.9 0 0 0-.291-.703C13.193 2 12.17 2 10.124 2H5.876c-2.046 0-3.069 0-3.567.693a1.9 1.9 0 0 0-.29.703c-.139.842.508 1.49 1.802 2.784.312.311.636.61.96.89.264.228.5.433.72.616v2.908c0 1.85 0 2.774.539 3.174q.142.105.306.17M9 6.98l.543-.45c.205-.169.428-.362.695-.593.301-.261.6-.536.882-.818.684-.685 1.061-1.069 1.278-1.373q.063-.09.087-.134a2 2 0 0 0-.22-.045c-.436-.066-1.068-.07-2.14-.07h-4.25c-1.072 0-1.704.004-2.14.07a2 2 0 0 0-.22.045q.024.044.087.134c.217.304.594.688 1.278 1.373.283.282.58.557.882.818.267.23.49.424.694.593L7 6.98v3.613c0 .82.002 1.359.034 1.742.342-.176.8-.46 1.496-.895a26 26 0 0 0 .463-.297q.003-.06.005-.157C9 10.879 9 10.754 9 10.593z"/></svg>