<svg xmlns="http://www.w3.org/2000/svg" viewBox="0 0 44 44"><path fill-rule="evenodd" d="M11.022 6.25h22c1.114 0 1.965.14 2.659.439.704.303 1.124.722 1.382.98l.02.02c.91.91.882 2.063.617 2.916-.25.808-.764 1.577-1.26 2.208-.797 1.013-1.841 2.017-2.474 2.625-.156.15-.288.276-.384.373a85 85 0 0 1-3.756 3.501c-.528.466-.98.857-1.304 1.133v5.43c0 2.286 0 3.95-.108 5.024a2 2 0 0 1-.373.945c-.134.188-.29.357-.435.5-.293.287-.669.592-1.069.89-.81.603-1.863 1.288-2.925 1.926a47 47 0 0 1-3.089 1.714c-.458.228-.89.428-1.26.575a6 6 0 0 1-.552.192 2.5 2.5 0 0 1-.69.109c-.689 0-1.203-.364-1.518-.743-.297-.357-.48-.788-.605-1.2-.25-.832-.376-2.002-.376-3.557V20.436l-.063-.054a178 178 0 0 1-1.434-1.26c-1.128-1.004-2.531-2.278-3.564-3.311a54 54 0 0 0-.593-.58c-.772-.747-1.772-1.716-2.492-2.648-.465-.602-.94-1.342-1.139-2.145-.221-.896-.098-1.927.724-2.749l.02-.02c.257-.257.676-.676 1.38-.98.694-.298 1.545-.439 2.66-.439"/></svg>