<svg xmlns="http://www.w3.org/2000/svg" viewBox="0 0 24 24"><path d="M7.1 3.007c-1.515.025-2.32.14-2.904.419a2 2 0 0 0-.753.63c-.395.577-.56 1.296-.354 1.972.09.298.337.735.622 1.1.304.389.599.711 1.417 1.548a32 32 0 0 0 2.342 2.202l.529.457v2.776c0 2.799.004 3.239.033 3.907.069 1.6.315 2.359.889 2.743.16.107.33.178.523.217.189.038.533.025.763-.03.721-.171 1.502-.583 3.616-1.903 1.139-.712 1.437-.92 1.674-1.17.317-.334.436-.669.479-1.345.01-.16.016-1.217.016-2.73v-2.467l.314-.27a32 32 0 0 0 2.125-1.952c.793-.79 1.304-1.328 1.63-1.714.505-.603.768-1.055.886-1.527.192-.767-.151-1.74-.776-2.211-.496-.374-1.125-.542-2.335-.622a25 25 0 0 0-.906-.026c-.962-.012-9.082-.016-9.83-.004"/></svg>