<svg xmlns="http://www.w3.org/2000/svg" viewBox="0 0 16 16"><path d="M6.346 13.938c.624.245 1.409-.246 2.978-1.226.535-.335.802-.502.964-.755q.045-.07.081-.146c.129-.271.129-.587.129-1.218V7.686c.22-.182.457-.387.72-.615.325-.281.65-.58.96-.891 1.295-1.295 1.942-1.942 1.804-2.784a1.9 1.9 0 0 0-.291-.703C13.193 2 12.17 2 10.124 2H5.876c-2.046 0-3.069 0-3.567.693a1.9 1.9 0 0 0-.29.703c-.139.842.508 1.49 1.802 2.784.312.311.636.61.96.89.264.228.5.433.72.616v2.908c0 1.85 0 2.774.539 3.174q.142.105.306.17"/></svg>