<svg xmlns="http://www.w3.org/2000/svg" viewBox="0 0 44 44"><path fill-rule="evenodd" d="M33.022 6.25h-22c-1.116 0-1.967.14-2.66.44-.705.303-1.124.722-1.382.98l-.02.02c-.82.821-.944 1.852-.723 2.748.199.803.674 1.543 1.139 2.145.72.932 1.72 1.901 2.492 2.648.22.213.422.409.593.58 1.033 1.033 2.436 2.307 3.564 3.31.567.505 1.072.946 1.434 1.26l.063.055V32.25c0 1.555.127 2.725.376 3.557.124.412.308.843.605 1.2.315.379.83.743 1.519.743.28 0 .536-.065.69-.109.18-.051.368-.12.552-.192a18 18 0 0 0 1.26-.575 47 47 0 0 0 3.088-1.714c1.062-.638 2.116-1.323 2.925-1.926.4-.298.776-.603 1.069-.89.145-.143.301-.312.435-.5.108-.152.328-.489.373-.945.108-1.075.108-2.738.108-5.023v-5.43c.324-.277.776-.668 1.305-1.134a85 85 0 0 0 3.755-3.501c.096-.097.228-.223.384-.373.633-.608 1.677-1.612 2.474-2.625.496-.63 1.01-1.4 1.26-2.208.265-.853.293-2.005-.618-2.916l-.02-.02c-.258-.258-.677-.677-1.381-.98-.694-.299-1.545-.439-2.66-.439M18.66 34.441c-.08-.478-.14-1.186-.14-2.191V19.06l-.524-.45-.037-.032-.113-.097-.42-.363c-.356-.31-.851-.743-1.409-1.24-1.122-.996-2.469-2.222-3.436-3.189a68 68 0 0 0-.748-.733c-.746-.723-1.51-1.464-2.084-2.206-.37-.479-.54-.815-.595-1.011.178-.176.255-.235.393-.294.184-.08.589-.195 1.474-.195h22c.885 0 1.289.115 1.473.194.125.054.2.108.347.25l-.007.021c-.087.28-.329.704-.753 1.243-.65.827-1.461 1.608-2.1 2.223-.192.186-.37.357-.521.508a82 82 0 0 1-3.62 3.374 105 105 0 0 1-1.652 1.428l-.096.08-.571.476v6.703c0 2.144-.002 3.569-.064 4.497a9 9 0 0 1-.714.582c-.7.521-1.662 1.15-2.678 1.76a44 44 0 0 1-2.882 1.6q-.285.142-.523.252"/></svg>