<svg xmlns="http://www.w3.org/2000/svg" viewBox="0 0 24 24"><path fill-rule="evenodd" d="M7 12c0-4.484 2.637-6.387 4.053-7.33l.002-.002-1.11-1.664L5.451 6H3a1 1 0 0 0-1 1v5a1 1 0 0 0 1 1h3a1 1 0 0 0 1-1M5.7 8c-.334.865-.573 1.86-.662 3H4V8zM17 12c0-4.484-2.637-6.387-4.053-7.33l-.002-.002 1.11-1.664L18.549 6H21a1 1 0 0 1 1 1v5a1 1 0 0 1-1 1h-3a1 1 0 0 1-1-1m1.3-4c.334.865.573 1.86.662 3H20V8z"/><path d="M7.839 18.247a1 1 0 0 1 1.317 0C9.582 18.62 10.619 19 12 19s2.415-.38 2.842-.753a1 1 0 0 1 1.316 0c.32.279.999.58 1.966.7a1 1 0 1 1-.248 1.984c-.868-.108-1.703-.347-2.376-.721-.937.52-2.207.79-3.5.79-1.292 0-2.564-.27-3.503-.79-.672.373-1.507.612-2.372.72a1 1 0 1 1-.25-1.984c.967-.122 1.647-.421 1.964-.699m1.526-4.743a1 1 0 0 0-1.736 0C7.124 14.387 6.137 15 4.994 15q-.392-.001-.753-.091a1 1 0 1 0-.482 1.94q.596.15 1.235.151a5.06 5.06 0 0 0 3.503-1.395A5.06 5.06 0 0 0 12 17c1.357 0 2.594-.53 3.498-1.395A5.06 5.06 0 0 0 19 17q.644-.002 1.243-.152a1 1 0 0 0-.485-1.94q-.363.091-.758.092c-1.143 0-2.13-.613-2.634-1.496a1 1 0 0 0-1.737 0A3.02 3.02 0 0 1 12 15c-1.143 0-2.13-.613-2.635-1.496"/></svg>