<svg xmlns="http://www.w3.org/2000/svg" viewBox="0 0 44 44"><path fill-rule="evenodd" d="M12.999 22c0-4.472 1.204-7.408 2.637-9.414 1.452-2.032 3.204-3.21 4.528-4.093L18.5 5.997l-7.456 4.97H5.498a1.5 1.5 0 0 0-1.5 1.5V22.5a1.5 1.5 0 0 0 1.5 1.5h6a1.5 1.5 0 0 0 1.5-1.5zm-2.982-1c.104-2.802.646-5.115 1.445-7.033H6.998V21zm20.981 1c0-4.472-1.205-7.408-2.638-9.414-1.452-2.032-3.203-3.21-4.528-4.093l1.664-2.496 7.456 4.97h5.546a1.5 1.5 0 0 1 1.5 1.5V22.5a1.5 1.5 0 0 1-1.5 1.5h-6a1.5 1.5 0 0 1-1.5-1.5zm2.981-1c-.104-2.802-.646-5.115-1.445-7.033h4.464V21z"/><path d="M14.808 33.439a1.5 1.5 0 0 1 2.12 0c.813.812 2.668 1.561 5.07 1.561s4.252-.748 5.065-1.561a1.5 1.5 0 0 1 2.12 0c.615.614 1.842 1.214 3.527 1.454a1.5 1.5 0 1 1-.424 2.97c-1.548-.22-3.01-.711-4.163-1.455C26.521 37.442 24.297 38 21.998 38s-4.527-.558-6.13-1.592c-1.152.742-2.613 1.232-4.157 1.453a1.5 1.5 0 0 1-.426-2.97c1.683-.241 2.91-.84 3.523-1.452m2.172-8.629a1.5 1.5 0 0 0-2.663 0C13.31 26.75 11.409 28 9.3 28c-.487 0-.957-.066-1.405-.189a1.5 1.5 0 1 0-.794 2.894c.704.193 1.44.295 2.199.295 2.517 0 4.765-1.121 6.349-2.883C17.232 29.88 19.48 31 21.998 31s4.76-1.122 6.34-2.882C29.92 29.879 32.167 31 34.685 31c.762 0 1.504-.104 2.21-.299a1.5 1.5 0 1 0-.797-2.892q-.678.19-1.413.191c-2.11 0-4.012-1.25-5.018-3.19a1.5 1.5 0 0 0-2.663 0c-1.007 1.943-2.9 3.19-5.007 3.19-2.11 0-4.012-1.25-5.017-3.19"/></svg>