<svg xmlns="http://www.w3.org/2000/svg" viewBox="0 0 32 32"><path fill-rule="evenodd" d="M9.502 16c0-3.248.866-5.408 1.899-6.894 1.046-1.504 2.317-2.397 3.29-3.046L13.304 4 7.28 7.996H4.248c-.69 0-1.25.56-1.25 1.25v7.004c0 .69.56 1.25 1.25 1.25h4.004c.69 0 1.25-.56 1.25-1.25zm-2.475-1c.088-1.739.404-3.227.869-4.504H5.498V15zm15.465 1c0-3.248-.866-5.408-1.899-6.894-1.046-1.504-2.317-2.397-3.29-3.046L18.69 4l6.024 3.996h3.032c.69 0 1.25.56 1.25 1.25v7.004c0 .69-.56 1.25-1.25 1.25h-4.004c-.69 0-1.25-.56-1.25-1.25zm2.475-1c-.088-1.739-.404-3.227-.868-4.504h2.397V15z"/><path d="M11.475 24c.335 0 .656.134.891.373.564.573 1.888 1.127 3.634 1.127s3.066-.554 3.63-1.127a1.25 1.25 0 0 1 1.782 0c.425.432 1.296.872 2.517 1.049a1.25 1.25 0 1 1-.358 2.474c-1.122-.163-2.191-.518-3.05-1.06C19.315 27.596 17.679 28 16 28c-1.68 0-3.319-.404-4.526-1.164-.858.54-1.926.895-3.045 1.058a1.25 1.25 0 1 1-.36-2.474c1.22-.178 2.091-.617 2.515-1.047a1.25 1.25 0 0 1 .89-.373m.88-5.904a1.25 1.25 0 0 0-2.13 0C9.548 19.196 8.195 20 6.582 20a4.7 4.7 0 0 1-1.054-.12 1.25 1.25 0 1 0-.563 2.437q.78.181 1.617.183c1.814 0 3.492-.676 4.707-1.802 1.215 1.126 2.893 1.802 4.707 1.802s3.488-.677 4.7-1.802c1.215 1.126 2.892 1.802 4.707 1.802a7.2 7.2 0 0 0 1.626-.186 1.25 1.25 0 0 0-.566-2.434 4.7 4.7 0 0 1-1.06.12c-1.614 0-2.967-.805-3.643-1.904a1.25 1.25 0 0 0-2.13 0c-.676 1.1-2.023 1.904-3.634 1.904-1.613 0-2.966-.805-3.642-1.904"/></svg>