<svg xmlns="http://www.w3.org/2000/svg" viewBox="0 0 24 24"><path fill-rule="evenodd" d="M12 6c-1.492 0-2.787.066-3.882.16-1.079.094-1.602.15-2.023.279-.312.096-.612.25-1.06.698-.457.46-.606.755-.695 1.043-.123.394-.173.88-.26 1.916a23 23 0 0 0 0 3.808c.087 1.037.137 1.523.26 1.916.09.288.238.584.696 1.043.447.449.747.602 1.06.698.42.13.943.185 2.021.279 1.096.095 2.391.16 3.883.16a45 45 0 0 0 3.88-.16c1.08-.094 1.603-.149 2.024-.278.312-.097.612-.25 1.06-.699.457-.46.606-.755.696-1.043.122-.394.173-.88.26-1.917a23 23 0 0 0 0-3.805c-.087-1.038-.138-1.523-.26-1.917-.09-.289-.239-.584-.696-1.044-.448-.449-.748-.602-1.06-.698-.421-.13-.945-.185-2.024-.278A45 45 0 0 0 12 6M7.945 4.168C9.097 4.068 10.45 4 11.999 4s2.902.068 4.054.168c2.025.176 3.038.264 4.327 1.558s1.37 2.264 1.532 4.206a25 25 0 0 1 0 4.137c-.162 1.941-.242 2.912-1.532 4.206-1.289 1.294-2.302 1.382-4.326 1.557-1.153.1-2.505.168-4.054.168s-2.903-.068-4.056-.168c-2.024-.176-3.036-.264-4.325-1.557-1.29-1.294-1.37-2.264-1.532-4.205a25 25 0 0 1 0-4.14c.162-1.94.243-2.91 1.532-4.204S5.92 4.344 7.945 4.168M6 10a1 1 0 0 1 1-1h9.999a1 1 0 0 1 0 2h-10a1 1 0 0 1-1-1m1 3a1 1 0 0 0 0 2h9.999a1 1 0 0 0 0-2z"/></svg>