<svg xmlns="http://www.w3.org/2000/svg" viewBox="0 0 16 16"><path fill-rule="evenodd" d="M4.917 4.63C5.757 4.555 6.785 4.5 8 4.5s2.241.055 3.081.13c.7.063 1.017.098 1.264.173.164.05.318.124.564.368.263.261.331.41.373.54.067.206.1.47.16 1.11a12.5 12.5 0 0 1 0 2.357c-.06.641-.093.904-.16 1.11-.042.13-.11.279-.373.54-.246.245-.4.318-.564.368-.247.075-.564.11-1.263.173-.84.075-1.868.13-3.082.13s-2.242-.055-3.082-.13c-.699-.063-1.015-.098-1.262-.173-.165-.05-.319-.123-.565-.368-.262-.26-.33-.41-.373-.539-.067-.206-.1-.47-.16-1.11a12.4 12.4 0 0 1 0-2.359c.06-.64.093-.903.16-1.11.042-.13.11-.278.373-.54.246-.243.4-.317.565-.367.247-.075.563-.11 1.262-.173M8 13c1.259 0 2.332-.058 3.216-.137 1.3-.117 1.95-.176 2.75-.971.8-.796.857-1.388.97-2.572a14 14 0 0 0 0-2.64c-.113-1.185-.17-1.777-.97-2.572s-1.45-.855-2.75-.972A36 36 0 0 0 7.999 3a36 36 0 0 0-3.216.136c-1.3.117-1.95.176-2.75.971-.8.796-.857 1.388-.97 2.571a14 14 0 0 0 0 2.643c.113 1.183.17 1.775.97 2.57.8.796 1.45.855 2.75.972.884.08 1.957.136 3.216.136M4 9.25c0-.415.359-.75.8-.75h6.4c.441 0 .8.335.8.75 0 .413-.359.75-.8.75H4.8c-.441 0-.8-.337-.8-.75m.8-3.251c-.441 0-.8.335-.8.75 0 .414.359.75.8.75h6.4c.441 0 .8-.336.8-.75 0-.415-.359-.75-.8-.75z"/></svg>