<svg xmlns="http://www.w3.org/2000/svg" viewBox="0 0 16 16"><path d="M3.124 3.103c.72-.721 1.44-.892 2.645-1.003.715 0 .831 1.479 0 1.51-1.008.102-1.251.22-1.584.553-.42.42-.498.697-.635 2.542-.031.422-.05.85-.05 1.274 0 .423.019.852.05 1.273.137 1.845.214 2.122.635 2.542.42.42.697.497 2.542.635.42.031.85.05 1.273.05s.852-.019 1.273-.05c1.845-.138 2.122-.215 2.542-.635s.498-.697.635-2.542c.042-.673 1.35-.773 1.497 0l-.001.111c-.13 1.744-.195 2.616-1.07 3.492s-1.747.94-3.491 1.07c-.452.033-.919.054-1.385.054s-.933-.02-1.385-.054c-1.744-.13-2.616-.195-3.491-1.07-.875-.876-.94-1.748-1.07-3.492A19 19 0 0 1 2 7.98c0-.467.02-.933.054-1.385.13-1.744.195-2.616 1.07-3.491"/><path fill-rule="evenodd" d="M12.381 7.904c.1-.101.172-.24.196-.412q.069-.507.15-1.17c.144-1.182.213-1.777.012-2.209a1.67 1.67 0 0 0-.81-.81c-.431-.2-1.027-.132-2.208.013-.443.055-.831.102-1.17.15a.7.7 0 0 0-.413.196c-.262.26-.273.71.045 1.028a.86.86 0 0 0 .723.241q.26-.034.579-.071l.423-.05.302-.037L8.982 6H7a1 1 0 0 0-1 1v1.996l-.47.47a.75.75 0 0 0 1.061 1.06L7.118 10H9a1 1 0 0 0 1-1V7.103l1.27-1.27-.087.723q-.037.321-.072.581a.86.86 0 0 0 .241.723c.318.317.77.307 1.03.044M7.5 7.5v1h1v-1z"/></svg>