<svg xmlns="http://www.w3.org/2000/svg" viewBox="0 0 16 16"><path fill-rule="evenodd" d="m9.23 11.446.256-3.256.539-.276a.77.77 0 0 0 .417-.605l.153-1.472c.077-.748-.229-1.318-.624-1.548l-.763-.444.298-.779q.095-.247.097-.53C9.603 1.655 8.858 1 8.014 1c-.843 0-1.588.654-1.588 1.534q.001.284.097.531l.298.78-.763.443c-.407.237-.719.814-.657 1.572l.119 1.467c.021.26.178.475.394.586l.524.269.341 3.262c.356-.03.763-.05 1.221-.05.462 0 .873.02 1.23.051"/><path d="M8 15h2.25c.472 0 .707 0 .854-.146.146-.147.146-.383.146-.854 0-.133-.023-.276-.057-.413-.067-.27-.1-.405-.313-.607-.213-.2-.373-.232-.693-.293-.49-.093-1.22-.187-2.187-.187s-1.697.094-2.187.187c-.32.062-.48.092-.693.293-.213.202-.246.337-.313.607-.034.137-.057.28-.057.413 0 .471 0 .707.146.854.147.146.383.146.854.146z"/></svg>