<svg xmlns="http://www.w3.org/2000/svg" viewBox="0 0 16 16"><path fill-rule="evenodd" d="M5.89 12.176 5.6 9.5a1.7 1.7 0 0 1-.879-1.36l-.107-1.406c-.072-.941.265-1.93 1.067-2.425a2.5 2.5 0 0 1-.145-.838A2.467 2.467 0 0 1 8 1a2.475 2.475 0 0 1 2.318 3.309c.8.494 1.127 1.486 1.036 2.422l-.138 1.411a1.74 1.74 0 0 1-.898 1.358l-.215 2.675c.418.073.642.126.966.463.34.355.365.541.413.912q.018.128.018.25c0 .468 0 .702-.107.873a.7.7 0 0 1-.22.22c-.171.107-.405.107-.873.107H5.7c-.468 0-.702 0-.872-.107a.7.7 0 0 1-.22-.22c-.108-.171-.108-.405-.108-.873q0-.122.017-.25c.05-.37.073-.556.414-.911.322-.336.546-.39.959-.463m2.721-.163a14 14 0 0 0-1.23 0L7.092 9.34l-.084-.78-.688-.376a.2.2 0 0 1-.102-.157L6.11 6.619c-.044-.58.184-.925.361-1.034l1.034-.64-.411-1.144a1 1 0 0 1-.057-.33c0-.54.435-.971.963-.971s.963.43.963.97q0 .18-.057.331l-.41 1.144 1.033.64c.164.1.387.434.332 1l-.138 1.411a.24.24 0 0 1-.124.187l-.711.389-.065.808z"/></svg>