<svg xmlns="http://www.w3.org/2000/svg" viewBox="0 0 44 44"><path fill-rule="evenodd" d="m16.647 31.979-.711-6.78-.218-.12a4 4 0 0 1-2.06-3.133l-.34-3.62c-.192-2.043.895-3.974 2.694-4.962.265-.146.488-.273.635-.364-.242-.676-.711-2.24-.711-3 0-3.525 2.566-6 6.064-6s6 2.475 6 6c0 .76-.405 2.324-.647 3 .147.091.37.218.635.364 1.799.988 2.886 2.919 2.694 4.962l-.34 3.62a4 4 0 0 1-2.06 3.133l-.218.12-.711 6.78a5 5 0 0 0-.04.47c1.096.194 1.687.336 2.548 1.242.908.954.97 1.454 1.095 2.455q.043.333.044.654c0 1.12 0 1.68-.218 2.109a2 2 0 0 1-.873.873C29.48 40 28.92 40 27.8 40H16.199c-1.12 0-1.68 0-2.107-.218a2 2 0 0 1-.874-.874C13 38.48 13 37.92 13 36.8q.001-.32.043-.653c.125-1 .187-1.501 1.095-2.456.862-.906 1.454-1.049 2.55-1.243q-.011-.258-.04-.47M22 35c-1.946 0-3.485.172-4.61.37-.324.057-.512.091-.668.126a2 2 0 0 0-.18.05l-.004.002a2 2 0 0 0-.226.21 3 3 0 0 0-.221.255l-.002.01a9 9 0 0 0-.069.495q-.021.183-.02.282v.2h12v-.2q.001-.099-.02-.283a9 9 0 0 0-.07-.495l-.001-.01a3 3 0 0 0-.221-.254 2 2 0 0 0-.226-.21l-.004-.003a2 2 0 0 0-.18-.049 16 16 0 0 0-.667-.126C25.485 35.174 23.947 35 22 35m-4.544-19.007c-.81.446-1.225 1.268-1.151 2.052l.34 3.62a1 1 0 0 0 .515.783l.218.12 1.377.755.164 1.562.707 6.731c.017.131.03.262.04.384h4.67c.01-.125.022-.255.038-.381l.707-6.734.164-1.562 1.377-.755.218-.12a1 1 0 0 0 .515-.783l.34-3.62c.074-.784-.34-1.606-1.151-2.052a18 18 0 0 1-.774-.445l-2.058-1.278.816-2.28a12 12 0 0 0 .442-1.764c.021-.135.027-.208.03-.23V9.99 10v-.01c-.002-1.027-.355-1.738-.806-2.187C23.74 7.35 23.024 7 22 7c-1.882 0-3.051 1.17-3.064 2.969v.004c.002.019.01.078.029.187.03.17.078.381.14.62.125.482.276.956.367 1.21l.816 2.28-2.058 1.278c-.22.137-.503.296-.774.445"/></svg>