<svg xmlns="http://www.w3.org/2000/svg" viewBox="0 0 44 44"><path fill-rule="evenodd" d="m25.864 30.296-.003.02a6 6 0 0 0-.03.299l-.052.682A23.6 23.6 0 0 0 22 31c-1.457 0-2.726.126-3.775.296l-.054-.675a6 6 0 0 0-.031-.305l-.003-.02-.79-7.534-.907-.497a2.5 2.5 0 0 1-1.288-1.958l-.34-3.62c-.132-1.407.612-2.787 1.923-3.507.268-.147.52-.29.705-.404l1.029-.64-.409-1.14a17 17 0 0 1-.406-1.339 10 10 0 0 1-.164-.728 5 5 0 0 1-.043-.284l-.011-.092v-.094c.01-1.228.421-2.377 1.283-3.22C19.578 4.397 20.744 4 22 4c1.388 0 2.496.487 3.253 1.241.752.75 1.247 1.845 1.247 3.25v.044l-.003.045v.011l-.001.013-.003.03-.008.08a5 5 0 0 1-.034.246c-.035.221-.085.474-.146.735a13 13 0 0 1-.365 1.3l-.408 1.14 1.03.64c.183.114.436.257.704.404 1.31.72 2.055 2.1 1.923 3.507l-.34 3.62a2.5 2.5 0 0 1-1.288 1.958l-.907.497zM26.8 40h-9.603c-1.119 0-1.678 0-2.106-.218a2 2 0 0 1-.874-.874C14 38.48 14 37.92 14 36.8c0-.713.16-1.308.335-1.747.106-.263.158-.394.49-.7.333-.307.52-.364.892-.48C16.865 33.518 19.044 33 22 33s5.136.518 6.283.873c.372.116.559.173.89.48.333.305.386.437.491.699A4.7 4.7 0 0 1 30 36.8c0 1.12 0 1.68-.218 2.109a2 2 0 0 1-.873.873C28.48 40 27.92 40 26.8 40"/></svg>