<svg xmlns="http://www.w3.org/2000/svg" viewBox="0 0 24 24"><path d="M15.08 8a1 1 0 0 0 .857-1.514l-.164-.274C14.088 3.404 13.246 2 12 2S9.912 3.404 8.227 6.212l-.164.274a1 1 0 0 0 1.715 1.029l.164-.274c.42-.699.763-1.269 1.057-1.734V14a1 1 0 1 0 2 0V5.504c.295.466.639 1.037 1.059 1.737l.164.274a1 1 0 0 0 .857.485"/><path d="M7.016 10.117q.67-.065 1.484-.117a1 1 0 1 1 0 2v.002q-.705.047-1.289.105c-.407.04-.54.057-.654.085a1.6 1.6 0 0 0-.4.17l-.002.001q-.016.01-.104.079a5 5 0 0 0-.603.581 2 2 0 0 0-.082.1l-.002.003c-.152.258-.183.35-.19.376-.014.044-.025.09-.067.4-.065.48-.107 1.002-.107 1.552s.042 1.07.107 1.546c.041.306.051.349.064.389.007.024.037.116.19.375l.002.003c.009.01.034.043.083.1a5 5 0 0 0 .604.582c.058.047.092.07.103.079l.003.001c.227.123.33.154.398.17.111.027.241.044.645.083A49 49 0 0 0 12 19c1.982 0 3.582-.098 4.794-.217.406-.04.538-.056.65-.084.068-.016.172-.047.4-.17l.002-.001q.016-.01.104-.08a5 5 0 0 0 .604-.582q.07-.082.082-.1l.002-.002c.152-.258.182-.351.19-.376.013-.042.024-.086.066-.395.064-.477.106-.998.106-1.548 0-.549-.042-1.07-.107-1.547-.041-.309-.052-.353-.065-.395-.008-.025-.038-.118-.19-.376l-.002-.003c-.009-.01-.034-.044-.083-.1a5 5 0 0 0-.707-.66l-.002-.003a1.6 1.6 0 0 0-.4-.17c-.112-.027-.244-.043-.65-.083a41 41 0 0 0-1.294-.106V12a1 1 0 1 1 0-2q.816.052 1.49.117c.745.073 1.117.11 1.832.5.429.234 1.273 1.047 1.523 1.467.416.7.454.982.53 1.545.076.556.125 1.167.125 1.816 0 .65-.05 1.261-.125 1.817-.076.563-.114.845-.53 1.544-.25.42-1.094 1.234-1.523 1.468-.715.39-1.087.426-1.832.5A51 51 0 0 1 12 21c-2.052 0-3.72-.102-4.996-.227-.742-.073-1.112-.11-1.827-.5-.428-.233-1.273-1.047-1.523-1.466-.415-.7-.453-.979-.53-1.537A13.5 13.5 0 0 1 3 15.454c0-.65.05-1.263.125-1.82.077-.567.115-.85.531-1.55.25-.42 1.094-1.233 1.524-1.468.715-.39 1.088-.426 1.836-.5"/></svg>