<svg xmlns="http://www.w3.org/2000/svg" viewBox="0 0 24 24"><path d="M15.08 8a1 1 0 0 0 .857-1.514l-.164-.274C14.088 3.404 13.246 2 12 2S9.912 3.404 8.227 6.212l-.164.274a1 1 0 0 0 1.715 1.029l.164-.274c.42-.699.763-1.269 1.057-1.734V14a1 1 0 1 0 2 0V5.504c.295.466.639 1.037 1.059 1.737l.164.274a1 1 0 0 0 .857.485"/><path d="M8.5 10q-.813.052-1.484.117c-.748.073-1.121.11-1.836.5-.43.234-1.273 1.046-1.524 1.467-.416.7-.454.983-.53 1.55a13.3 13.3 0 0 0-.001 3.636c.076.558.114.837.53 1.537.249.42 1.094 1.233 1.522 1.467.715.39 1.085.426 1.827.499C8.28 20.898 9.948 21 12 21a51 51 0 0 0 4.99-.227c.745-.073 1.117-.11 1.832-.499.429-.234 1.273-1.047 1.523-1.468.416-.7.454-.98.53-1.544.076-.556.125-1.167.125-1.817s-.05-1.26-.125-1.816c-.076-.563-.114-.845-.53-1.544-.25-.42-1.094-1.234-1.523-1.468-.715-.39-1.087-.427-1.833-.5A44 44 0 0 0 15.5 10a1 1 0 0 0-1 1v3a2.5 2.5 0 0 1-5 0v-3a1 1 0 0 0-1-1"/></svg>