<svg xmlns="http://www.w3.org/2000/svg" viewBox="0 0 24 24"><path d="M19.875 5.205c-.64-.642-1.183-.86-1.95-.976-.081-.437-.264-.808-.687-1.26-.737-.79-1.312-.839-2.462-.935A9 9 0 0 0 14 2q-.355 0-.706.028c-1.192.091-1.787.137-2.53.925l-.035.037c-.4.439-.58.808-.662 1.24-.762.116-1.303.335-1.941.975-.379.38-.609.72-.756 1.084.582-.165 1.192-.211 1.675-.248l.096-.007Q9.558 6 10 6c.324 0 .64.016.943.04l.094.009c.494.04 1.136.094 1.74.29.759.244 1.366.667 1.924 1.265.285.305.52.615.708.941q.2.074.403.171a5.3 5.3 0 0 1 1.48 1.078c.637.64 1.072 1.306 1.325 2.117.208.668.265 1.376.312 1.965l.009.1q.02.24.033.493c.303-.15.592-.361.904-.675.905-.908.96-1.583 1.07-2.932a17 17 0 0 0 0-2.724c-.11-1.35-.165-2.024-1.07-2.933"/><path fill-rule="evenodd" d="M13.926 10.229c.766.116 1.309.334 1.948.977.906.908.96 1.583 1.07 2.932a17 17 0 0 1 0 2.724c-.11 1.35-.164 2.024-1.07 2.933-.905.908-1.616.969-3.038 1.09A34 34 0 0 1 10 21c-1.084 0-2.03-.046-2.837-.115-1.421-.121-2.132-.182-3.037-1.09s-.96-1.583-1.07-2.932a17 17 0 0 1 0-2.726c.11-1.349.165-2.023 1.07-2.932.638-.64 1.18-.86 1.941-.975.082-.432.263-.801.662-1.24l.034-.037c.744-.788 1.34-.834 2.53-.925Q9.645 8.001 10 8q.392.001.776.034c1.15.096 1.725.145 2.462.934.423.453.606.824.688 1.26M10 17a2 2 0 1 0 0-4 2 2 0 0 0 0 4"/></svg>