<svg xmlns="http://www.w3.org/2000/svg" viewBox="0 0 32 32"><path d="M18.5 2.999c.397 0 .794.02 1.18.053h.006c.776.067 1.367.118 1.882.285s.957.452 1.449.988c.538.586.781 1.06.892 1.6.51.077.947.189 1.363.388.415.2.81.486 1.235.913.605.606.924 1.132 1.111 1.727s.241 1.265.312 2.147v.005a21 21 0 0 1 0 3.404v.004c-.07.883-.125 1.55-.312 2.147a3.6 3.6 0 0 1-.55 1.08 1.25 1.25 0 0 1-2.318-.649c0-.284.09-.55.25-.76q.069-.087.109-.152a1 1 0 0 0 .124-.267c.085-.273.127-.628.206-1.605a19 19 0 0 0 0-3.001c-.079-.977-.12-1.332-.206-1.604a1 1 0 0 0-.124-.268 2.7 2.7 0 0 0-.373-.444c-.269-.27-.436-.37-.545-.423-.115-.055-.29-.115-.656-.17l-1.726-.261-.35-1.71a.3.3 0 0 0-.03-.084 1.8 1.8 0 0 0-.254-.327 1.6 1.6 0 0 0-.27-.248.4.4 0 0 0-.11-.052c-.183-.06-.45-.097-1.329-.172a11 11 0 0 0-.966-.044c-.315 0-.64.016-.966.044-.88.075-1.145.112-1.329.172a.4.4 0 0 0-.11.052 1.6 1.6 0 0 0-.27.248 1.8 1.8 0 0 0-.254.327.3.3 0 0 0-.03.084l-.35 1.71-1.726.26c-.366.056-.54.116-.656.171-.109.052-.276.154-.545.423a2.5 2.5 0 0 0-.394.48 1.252 1.252 0 0 1-2.167-1.237l.034-.061q.04-.08.092-.152c.172-.258.388-.518.664-.794.426-.427.82-.714 1.236-.913.415-.2.852-.311 1.363-.388.11-.54.353-1.014.891-1.6.492-.536.935-.82 1.45-.988.515-.167 1.105-.218 1.882-.285h.006c.386-.033.782-.053 1.18-.053"/><path d="M18.5 2.999c.397 0 .794.02 1.18.053h.006c.776.067 1.367.118 1.882.285s.957.452 1.449.988c.538.586.781 1.06.892 1.6.51.077.947.189 1.363.388.415.2.81.486 1.235.913.605.606.924 1.132 1.111 1.727s.241 1.265.312 2.147v.005a21 21 0 0 1 0 3.404v.004c-.07.883-.125 1.55-.312 2.147a3.6 3.6 0 0 1-.55 1.08 1.25 1.25 0 0 1-2.318-.649c0-.284.09-.55.25-.76q.069-.087.109-.152a1 1 0 0 0 .124-.267c.085-.273.127-.628.206-1.605a19 19 0 0 0 0-3.001c-.079-.977-.12-1.332-.206-1.604a1 1 0 0 0-.124-.268 2.7 2.7 0 0 0-.373-.444c-.269-.27-.436-.37-.545-.423-.115-.055-.29-.115-.656-.17l-1.726-.261-.35-1.71a.3.3 0 0 0-.03-.084 1.8 1.8 0 0 0-.254-.327 1.6 1.6 0 0 0-.27-.248.4.4 0 0 0-.11-.052c-.183-.06-.45-.097-1.329-.172a11 11 0 0 0-.966-.044c-.315 0-.64.016-.966.044-.88.075-1.145.112-1.329.172a.4.4 0 0 0-.11.052 1.6 1.6 0 0 0-.27.248 1.8 1.8 0 0 0-.254.327.3.3 0 0 0-.03.084l-.35 1.71-1.726.26c-.366.056-.54.116-.656.171-.109.052-.276.154-.545.423a2.5 2.5 0 0 0-.394.48 1.252 1.252 0 0 1-2.167-1.237l.034-.061q.04-.08.092-.152c.172-.258.388-.518.664-.794.426-.427.82-.714 1.236-.913.415-.2.852-.311 1.363-.388.11-.54.353-1.014.891-1.6.492-.536.935-.82 1.45-.988.515-.167 1.105-.218 1.882-.285h.006c.386-.033.782-.053 1.18-.053M16 20.499a2.5 2.5 0 1 1-5 0 2.5 2.5 0 0 1 5 0"/><path d="M16 20.499a2.5 2.5 0 1 1-5 0 2.5 2.5 0 0 1 5 0"/><path fill-rule="evenodd" d="M13.5 10.999q.597.002 1.18.053h.005c.777.067 1.368.117 1.883.285s.957.452 1.449.988c.538.586.781 1.06.891 1.6.511.077.948.189 1.364.388.415.2.81.486 1.235.913.604.606.924 1.132 1.111 1.727s.241 1.265.312 2.147v.005a21 21 0 0 1 0 3.404v.004c-.071.883-.125 1.55-.312 2.147s-.507 1.12-1.111 1.727c-.605.607-1.146.93-1.774 1.122-.63.192-1.347.252-2.297.332h-.004A47 47 0 0 1 13.5 28a47 47 0 0 1-3.932-.157h-.004c-.95-.08-1.668-.141-2.297-.333-.628-.192-1.17-.515-1.774-1.122-.604-.606-.924-1.131-1.111-1.727s-.241-1.264-.312-2.147v-.004a21 21 0 0 1 0-3.404V19.1c.07-.882.125-1.55.312-2.147.187-.595.507-1.12 1.111-1.727.426-.427.82-.714 1.235-.913s.853-.311 1.364-.388c.11-.54.353-1.014.891-1.6.492-.536.934-.82 1.45-.988.514-.168 1.105-.218 1.882-.285h.005q.582-.051 1.18-.053m3.722 14.351a45 45 0 0 1-3.722.149 44 44 0 0 1-3.722-.149c-1.042-.087-1.462-.135-1.781-.232-.184-.056-.378-.14-.733-.495a2.7 2.7 0 0 1-.373-.444 1 1 0 0 1-.124-.267c-.085-.273-.127-.628-.206-1.604a19 19 0 0 1 0-3.002c.079-.977.12-1.332.206-1.604.03-.093.064-.173.124-.268.065-.102.174-.244.373-.444.269-.27.436-.37.545-.423.115-.055.29-.115.656-.17l1.726-.261.35-1.71a.2.2 0 0 1 .03-.084c.024-.046.09-.147.254-.327a1.6 1.6 0 0 1 .27-.248.4.4 0 0 1 .11-.053c.183-.06.45-.096 1.329-.171.326-.028.651-.044.966-.044s.64.016.966.044c.88.075 1.145.112 1.329.172a.4.4 0 0 1 .11.052c.046.03.132.098.27.248.165.18.23.281.254.327a.2.2 0 0 1 .03.084l.35 1.71 1.726.26c.366.056.54.116.656.171.109.052.276.154.545.423.199.2.308.342.373.444.06.095.095.175.124.268.085.272.127.627.206 1.604a19 19 0 0 1 0 3.002c-.08.976-.12 1.331-.206 1.604a1 1 0 0 1-.124.267 2.7 2.7 0 0 1-.373.444c-.355.356-.549.439-.733.495-.32.097-.739.145-1.78.232"/><path fill-rule="evenodd" d="M13.5 10.999q.597.002 1.18.053h.005c.777.067 1.368.117 1.883.285s.957.452 1.449.988c.538.586.781 1.06.891 1.6.511.077.948.189 1.364.388.415.2.81.486 1.235.913.604.606.924 1.132 1.111 1.727s.241 1.265.312 2.147v.005a21 21 0 0 1 0 3.404v.004c-.071.883-.125 1.55-.312 2.147s-.507 1.12-1.111 1.727c-.605.607-1.146.93-1.774 1.122-.63.192-1.347.252-2.297.332h-.004A47 47 0 0 1 13.5 28a47 47 0 0 1-3.932-.157h-.004c-.95-.08-1.668-.141-2.297-.333-.628-.192-1.17-.515-1.774-1.122-.604-.606-.924-1.131-1.111-1.727s-.241-1.264-.312-2.147v-.004a21 21 0 0 1 0-3.404V19.1c.07-.882.125-1.55.312-2.147.187-.595.507-1.12 1.111-1.727.426-.427.82-.714 1.235-.913s.853-.311 1.364-.388c.11-.54.353-1.014.891-1.6.492-.536.934-.82 1.45-.988.514-.168 1.105-.218 1.882-.285h.005q.582-.051 1.18-.053m3.722 14.351a45 45 0 0 1-3.722.149 44 44 0 0 1-3.722-.149c-1.042-.087-1.462-.135-1.781-.232-.184-.056-.378-.14-.733-.495a2.7 2.7 0 0 1-.373-.444 1 1 0 0 1-.124-.267c-.085-.273-.127-.628-.206-1.604a19 19 0 0 1 0-3.002c.079-.977.12-1.332.206-1.604.03-.093.064-.173.124-.268.065-.102.174-.244.373-.444.269-.27.436-.37.545-.423.115-.055.29-.115.656-.17l1.726-.261.35-1.71a.2.2 0 0 1 .03-.084c.024-.046.09-.147.254-.327a1.6 1.6 0 0 1 .27-.248.4.4 0 0 1 .11-.053c.183-.06.45-.096 1.329-.171.326-.028.651-.044.966-.044s.64.016.966.044c.88.075 1.145.112 1.329.172a.4.4 0 0 1 .11.052c.046.03.132.098.27.248.165.18.23.281.254.327a.2.2 0 0 1 .03.084l.35 1.71 1.726.26c.366.056.54.116.656.171.109.052.276.154.545.423.199.2.308.342.373.444.06.095.095.175.124.268.085.272.127.627.206 1.604a19 19 0 0 1 0 3.002c-.08.976-.12 1.331-.206 1.604a1 1 0 0 1-.124.267 2.7 2.7 0 0 1-.373.444c-.355.356-.549.439-.733.495-.32.097-.739.145-1.78.232"/></svg>