<svg xmlns="http://www.w3.org/2000/svg" viewBox="0 0 16 16"><path fill-rule="evenodd" d="M8 2c-1.26 0-2.332.057-3.217.136-1.3.117-1.95.176-2.75.972-.8.795-.857 1.387-.97 2.57a14 14 0 0 0 0 2.644c.113 1.183.17 1.775.97 2.57.75.746 1.367.844 2.51.95l.156-.26.047-.08.164-.272.036-.06c.364-.608.72-1.201 1.073-1.628C6.4 9.084 7.03 8.5 7.997 8.5c.966 0 1.598.584 1.977 1.042.353.427.71 1.02 1.073 1.627l.037.06.163.273.048.08.156.26c1.147-.105 1.766-.203 2.516-.95.8-.796.857-1.388.97-2.572a14 14 0 0 0 0-2.64c-.113-1.184-.17-1.776-.97-2.572s-1.45-.855-2.751-.972A36 36 0 0 0 8 2M6.196 12.002C7 10.662 7.402 10 7.996 10s.997.661 1.801 2.002l.164.272c.725 1.209 1.088 1.813.83 2.27-.26.456-.964.456-2.373.456h-.842c-1.41 0-2.114 0-2.373-.457-.258-.456.104-1.06.83-2.269z"/></svg>