<svg xmlns="http://www.w3.org/2000/svg" viewBox="0 0 24 24"><path fill-rule="evenodd" d="M12 5c-1.492 0-2.786.065-3.882.16-1.078.094-1.602.149-2.022.278-.312.097-.613.25-1.06.699-.458.46-.606.755-.696 1.043-.123.394-.173.879-.26 1.916a23 23 0 0 0 0 3.808c.087 1.037.137 1.523.26 1.916.09.288.238.584.696 1.043.259.26.772.4 1.218.49A.91.91 0 0 1 7 17.26c0 .644-.589 1.149-1.217 1.006-.788-.178-1.631-.456-2.164-.991-1.29-1.294-1.37-2.264-1.532-4.205a25 25 0 0 1 0-4.14c.162-1.94.243-2.911 1.532-4.205s2.302-1.382 4.326-1.557C9.098 3.068 10.45 3 12 3s2.901.068 4.054.168c2.025.175 3.038.263 4.327 1.557s1.37 2.265 1.532 4.207a25 25 0 0 1 0 4.136c-.162 1.942-.242 2.913-1.532 4.207-.533.534-1.376.813-2.163.992-.63.142-1.218-.363-1.218-1.007a.91.91 0 0 1 .745-.906c.447-.09.96-.231 1.22-.491.457-.46.606-.755.695-1.043.123-.394.174-.88.26-1.918a23 23 0 0 0 0-3.804c-.086-1.038-.137-1.524-.26-1.918-.09-.288-.238-.584-.696-1.043-.447-.449-.747-.602-1.06-.699-.42-.13-.944-.184-2.023-.278A45 45 0 0 0 12 5M9.277 17.536l-.021.036-.203.338c-1.087 1.813-1.631 2.719-1.243 3.404s1.444.685 3.558.685h1.263c2.114 0 3.171 0 3.559-.685s-.156-1.591-1.244-3.404l-.202-.338-.022-.036C13.512 15.518 12.9 14.5 12 14.5s-1.512 1.018-2.723 3.036"/></svg>