<svg xmlns="http://www.w3.org/2000/svg" viewBox="0 0 16 16"><path fill-rule="evenodd" d="M2.496 11.672c0 1.078.612 2.078 1.618 2.464 1.191.458 2.51.826 3.735.86 1.346.039 2.147-1.253 2.147-2.6V3.604c0-1.348-.801-2.64-2.148-2.601-1.224.034-2.543.403-3.734.86-1.006.386-1.618 1.386-1.618 2.464z"/><path d="M12.643 12.634c-.337.341-.693.488-1.218.589q.072-.414.071-.828V3.603q0-.413-.07-.828c.524.102.88.248 1.217.59.509.515.575 1.085.707 2.226.085.738.15 1.573.15 2.408 0 .836-.065 1.67-.15 2.409-.132 1.14-.198 1.71-.707 2.226"/></svg>