<svg xmlns="http://www.w3.org/2000/svg" viewBox="0 0 16 16"><path fill-rule="evenodd" d="M4.114 14.136c-1.006-.386-1.618-1.386-1.618-2.464V4.327c0-1.078.612-2.078 1.618-2.464 1.191-.457 2.51-.826 3.734-.86.989-.028 1.683.66 1.983 1.562q.332.03.646.071c1.105.143 1.658.214 2.166.729.509.515.575 1.085.707 2.226.085.738.15 1.573.15 2.409s-.065 1.67-.15 2.408c-.132 1.14-.198 1.711-.707 2.226s-1.06.586-2.166.729a18 18 0 0 1-.646.072c-.3.9-.994 1.59-1.982 1.562-1.224-.035-2.544-.403-3.735-.861m-.118-2.464c0 .532.296.926.656 1.064 1.12.43 2.258.734 3.239.761.123.004.223-.03.34-.187.143-.188.265-.516.265-.914V3.604c0-.398-.122-.727-.264-.915-.119-.156-.218-.19-.341-.187-.981.028-2.119.332-3.239.762-.36.138-.656.532-.656 1.063zm6 .238V4.09q.147.015.29.034c.595.077.874.117 1.075.176.125.037.16.063.215.119.05.05.077.085.116.224.059.213.097.508.168 1.12.08.7.14 1.475.14 2.237 0 .761-.06 1.537-.14 2.236-.071.612-.11.908-.168 1.12-.039.14-.067.174-.116.225-.055.055-.09.081-.215.118-.2.06-.48.1-1.076.176z"/></svg>