<svg xmlns="http://www.w3.org/2000/svg" viewBox="0 0 24 24"><path fill-rule="evenodd" d="M4 17.218c0 1.554.891 2.993 2.346 3.539 1.769.663 3.732 1.198 5.549 1.24 1.36.032 2.338-.868 2.802-2.077q.521-.046 1.012-.112c1.564-.206 2.347-.308 3.071-1.046s.817-1.555 1.002-3.19c.123-1.09.218-2.332.218-3.573a32 32 0 0 0-.218-3.572c-.185-1.635-.278-2.453-1.002-3.19s-1.507-.84-3.07-1.047a24 24 0 0 0-1.014-.112c-.465-1.208-1.443-2.107-2.802-2.075-1.816.042-3.779.577-5.547 1.24C4.892 3.789 4 5.227 4 6.782zm11.448.607q-.221.03-.448.055V6.119q.226.026.448.054c.84.11 1.245.17 1.54.258.194.058.265.106.365.207.09.09.14.163.2.384.088.319.143.756.242 1.63.117 1.04.205 2.203.205 3.347s-.088 2.308-.205 3.347c-.1.875-.154 1.312-.241 1.63-.06.222-.112.294-.201.385-.1.101-.17.149-.365.207-.295.088-.7.147-1.54.257m-8.4 1.06c1.676.628 3.398 1.078 4.893 1.113.245.006.443-.08.643-.343.232-.303.416-.81.416-1.41V5.755c0-.6-.185-1.106-.416-1.41-.2-.263-.398-.348-.644-.343-1.494.035-3.216.486-4.89 1.114-.59.22-1.05.848-1.05 1.666v10.436c0 .818.46 1.446 1.049 1.666"/></svg>