<svg xmlns="http://www.w3.org/2000/svg" viewBox="0 0 44 44"><path d="M14.598 7.751a1.5 1.5 0 0 1-2.049.55l-2.6-1.502a1.5 1.5 0 1 1 1.5-2.598l2.6 1.501a1.5 1.5 0 0 1 .55 2.05M26.68 9.239c.35.93-.486 1.761-1.48 1.761h-6.4c-.994 0-1.83-.831-1.48-1.761a5 5 0 0 1 9.36 0m-12.482 22.92a197 197 0 0 1 7.8-.159c2.775 0 5.41.064 7.799.159a882 882 0 0 0-2.484-15.19c-.243-1.414-.365-2.122-.867-2.545C25.943 14 25.22 14 23.776 14H20.22c-1.445 0-2.167 0-2.67.424-.502.423-.623 1.13-.867 2.546a885 885 0 0 0-2.484 15.189M9.998 38h24a3.5 3.5 0 0 0-.656-1.559c-.727-.992-1.56-1.053-3.226-1.173-1.922-.14-4.64-.268-8.12-.268-3.478 0-6.194.129-8.116.268-1.666.12-2.498.18-3.226 1.173A3.5 3.5 0 0 0 9.998 38M37 12.5a1.5 1.5 0 0 0-1.5-1.5h-3.002a1.5 1.5 0 0 0 0 3H35.5a1.5 1.5 0 0 0 1.5-1.5M11.5 11a1.5 1.5 0 0 1 0 3H8.498a1.5 1.5 0 0 1 0-3zm19.95-2.7a1.5 1.5 0 0 1-1.5-2.598l2.6-1.5a1.5 1.5 0 0 1 1.5 2.597zm-16.852 8.95a1.5 1.5 0 0 0-2.049-.549l-2.6 1.501a1.5 1.5 0 1 0 1.5 2.598l2.6-1.5a1.5 1.5 0 0 0 .55-2.05m16.851-.549a1.5 1.5 0 0 0-1.5 2.598l2.6 1.501a1.5 1.5 0 0 0 1.5-2.598z"/></svg>