<svg xmlns="http://www.w3.org/2000/svg" viewBox="0 0 32 32"><path d="M10.368 6.309a1.25 1.25 0 0 0-.559-1.677l-2-1a1.25 1.25 0 0 0-1.118 2.236l2 1a1.25 1.25 0 0 0 1.677-.56m9.422.415C20.02 7.403 19.419 8 18.7 8h-5.4c-.718 0-1.32-.597-1.09-1.277a3.999 3.999 0 0 1 7.58 0M10.37 23h11.262a2727 2727 0 0 1-1.424-10.254c-.147-1.07-.22-1.605-.587-1.926s-.908-.32-1.99-.32h-3.26c-1.081 0-1.622 0-1.99.32s-.44.856-.587 1.926A2509 2509 0 0 1 10.37 23M7 28h18c-.059-.574-.19-.997-.522-1.45-.53-.72-1.134-.763-2.342-.85-1.439-.103-3.493-.2-6.137-.2s-4.697.097-6.135.2c-1.208.087-1.813.13-2.342.85-.333.453-.463.876-.522 1.45M4.5 9.5c0-.69.56-1.25 1.25-1.25h2.5a1.25 1.25 0 1 1 0 2.5h-2.5c-.69 0-1.25-.56-1.25-1.25m21.746-1.25a1.25 1.25 0 0 1 0 2.5h-2.5a1.25 1.25 0 0 1 0-2.5zm-4.059-3.618a1.25 1.25 0 1 0 1.118 2.236l2-1a1.25 1.25 0 1 0-1.118-2.236zm-11.819 8.059a1.25 1.25 0 0 1-.559 1.677l-2 1a1.25 1.25 0 0 1-1.118-2.236l2-1a1.25 1.25 0 0 1 1.677.56m11.819 1.676a1.25 1.25 0 1 1 1.118-2.236l2 1a1.25 1.25 0 0 1-1.118 2.236z"/></svg>