<svg xmlns="http://www.w3.org/2000/svg" viewBox="0 0 16 16"><path fill-rule="evenodd" d="M8.968 3.488c2.74-1.254 4.11-1.88 4.768-1.224.656.657.03 2.027-1.224 4.768l-.892 1.95c-.41.895-.614 1.343-.955 1.683s-.788.546-1.683.956l-1.95.891c-2.74 1.254-4.11 1.88-4.768 1.224-.656-.657-.03-2.027 1.224-4.768l.892-1.95c.41-.895.614-1.343.955-1.683s.788-.546 1.683-.955zm2.18 2.92-.892 1.95c-.455.994-.546 1.141-.651 1.247l-3.21-3.21c.105-.105.253-.196 1.247-.651l1.95-.892c1.248-.571 2.107-.96 2.734-1.178-.217.627-.607 1.486-1.178 2.734"/></svg>