<svg xmlns="http://www.w3.org/2000/svg" viewBox="0 0 24 24"><path fill-rule="evenodd" d="M13.452 5.232c4.11-1.88 6.166-2.82 7.152-1.835s.045 3.04-1.836 7.15l-1.337 2.925c-.615 1.344-.922 2.015-1.433 2.526-.51.511-1.182.818-2.526 1.433l-2.924 1.337c-4.11 1.88-6.166 2.82-7.151 1.835-.986-.985-.046-3.04 1.835-7.15l1.337-2.925c.615-1.344.922-2.015 1.433-2.526.51-.511 1.182-.818 2.526-1.433zm3.498 4.484-1.338 2.924c-.675 1.476-.83 1.747-1.028 1.944L9.416 9.416c.197-.197.468-.353 1.944-1.028l2.924-1.338c2.115-.967 3.506-1.598 4.493-1.896l.097-.028-.028.097c-.298.987-.929 2.378-1.896 4.493"/></svg>