<svg xmlns="http://www.w3.org/2000/svg" viewBox="0 0 16 16"><path fill-rule="evenodd" d="M5.826 10c.576-.004.85-.205 1.398-.641.324-.259.698-.577 1.111-.963l5.388 5.388a.75.75 0 0 0 1.061-1.06L9.397 7.336c.394-.421.719-.802.981-1.132.437-.548.618-.822.622-1.398.004-.577-.167-.844-.582-1.38a11 11 0 0 0-.855-.973 10 10 0 0 0-.973-.855C8.054 1.183 7.787.996 7.21 1s-.85.201-1.398.638c-.463.368-1.026.858-1.66 1.493a20 20 0 0 0-1.495 1.661c-.436.548-.653.822-.657 1.398-.004.577.202.844.617 1.38.238.307.523.64.856.973s.666.618.973.856c.536.415.803.605 1.38.601"/><path d="M2.074 13.089A75 75 0 0 1 6 13c1.92 0 3.234.052 3.925.089.276.015.414.022.632.158.219.135.252.194.318.312A.9.9 0 0 1 11 14a.9.9 0 0 1-.125.441c-.066.118-.1.177-.318.313-.218.135-.356.143-.632.157-.691.037-2.005.09-3.925.09s-3.234-.053-3.926-.09c-.275-.014-.413-.022-.631-.157-.218-.136-.251-.194-.317-.312A.9.9 0 0 1 1 14c0-.164.054-.314.126-.442.066-.117.099-.176.317-.312.218-.135.356-.142.631-.157"/></svg>