<svg xmlns="http://www.w3.org/2000/svg" viewBox="0 0 24 24"><path d="M12 7.5q-.256 0-.498.02l-.07.004c-.52.038-.986.072-1.41.497-.425.425-.46.891-.497 1.411l-.005.07a7 7 0 0 0 0 .997l.005.069c.038.52.072.986.496 1.41.425.426.891.46 1.411.498l.07.005a7 7 0 0 0 .997 0l.07-.005c.519-.038.985-.072 1.41-.497s.459-.891.497-1.411l.005-.07a7 7 0 0 0 0-.997l-.005-.069c-.038-.52-.072-.986-.497-1.41-.425-.426-.891-.46-1.41-.498l-.07-.005A7 7 0 0 0 12 7.5"/><path fill-rule="evenodd" d="M18.248 16.103c-.217.315-.463.621-.957 1.233l-1.05 1.302c-1.598 1.984-2.398 2.975-3.397 3.248-.553.15-1.135.15-1.688 0-1-.273-1.799-1.264-3.398-3.248l-1.05-1.301c-.493-.613-.74-.919-.956-1.235a9.97 9.97 0 0 1-1.723-4.878A17 17 0 0 1 4 9.939v-.275c0-.525.036-1.037.079-1.557.287-3.505 1.837-5.29 5.322-5.876.83-.14 1.715-.232 2.599-.232s1.769.093 2.599.232c3.485.585 5.035 2.371 5.322 5.876.043.52.079 1.032.079 1.556 0 .786 0 1.179-.03 1.56a9.97 9.97 0 0 1-1.722 4.88M16.6 14.97c-.163.237-.351.473-.856 1.099l-1.06 1.314c-.826 1.025-1.351 1.673-1.787 2.114-.413.416-.567.456-.58.46a1.2 1.2 0 0 1-.635 0c-.013-.004-.167-.044-.579-.46-.436-.44-.961-1.089-1.788-2.114l-1.05-1.302c-.512-.635-.701-.873-.865-1.11a7.97 7.97 0 0 1-1.377-3.9A15 15 0 0 1 6 9.937v-.275a17 17 0 0 1 .072-1.393c.124-1.507.496-2.346.958-2.86.454-.507 1.229-.96 2.702-1.207A14 14 0 0 1 12 4c.749 0 1.52.079 2.268.204 1.473.248 2.248.7 2.702 1.206.462.515.834 1.354.958 2.861.042.512.072.955.072 1.393 0 .816-.001 1.12-.023 1.407a7.97 7.97 0 0 1-1.377 3.9"/></svg>