<svg xmlns="http://www.w3.org/2000/svg" viewBox="0 0 16 16"><path d="M7.668 4.846a4.5 4.5 0 0 1 .665 0l.046.004c.346.025.657.048.94.33.283.284.306.595.331.941l.004.047a4.5 4.5 0 0 1 0 .664l-.004.047c-.025.346-.048.657-.33.94-.284.283-.595.306-.941.331l-.046.004a4.5 4.5 0 0 1-.665 0l-.046-.004c-.347-.025-.658-.048-.941-.33-.283-.284-.306-.595-.331-.941l-.004-.047a4.5 4.5 0 0 1 0-.664l.004-.047c.025-.346.048-.657.33-.94.284-.283.595-.306.942-.331z"/><path fill-rule="evenodd" d="M2.118 4.83c.22-1.692 1.148-2.738 2.756-3.27C5.789 1.259 6.894 1 8 1s2.21.258 3.126.56c1.607.532 2.535 1.578 2.756 3.27.1.77.148 1.546.098 2.323a7 7 0 0 1-1.464 3.861c-.136.175-.288.346-.59.688l-1.01 1.14C9.76 14.144 9.183 14.795 8.47 14.95c-.31.067-.632.067-.942 0-.713-.155-1.29-.806-2.444-2.108l-1.01-1.14c-.303-.342-.455-.513-.591-.688a7 7 0 0 1-1.464-3.86c-.05-.778-.003-1.554.098-2.324m3.226-1.845C6.174 2.711 7.112 2.5 8 2.5s1.825.21 2.656.485c.605.2.983.463 1.227.749.24.282.432.68.511 1.29.092.704.13 1.379.09 2.034a5.5 5.5 0 0 1-1.151 3.034c-.1.13-.215.26-.53.615l-1.01 1.14c-.6.676-.972 1.093-1.277 1.372a2 2 0 0 1-.295.232.4.4 0 0 1-.053.028l-.014.005a.7.7 0 0 1-.308 0l-.014-.005a.4.4 0 0 1-.054-.028 2 2 0 0 1-.294-.232c-.305-.28-.678-.696-1.276-1.372l-1.01-1.14a14 14 0 0 1-.53-.615 5.5 5.5 0 0 1-1.151-3.034c-.042-.655-.003-1.33.088-2.034.08-.61.271-1.008.512-1.29.244-.286.622-.549 1.227-.749"/></svg>