<svg xmlns="http://www.w3.org/2000/svg" viewBox="0 0 24 24"><path fill-rule="evenodd" d="M12 5.001c-.642 0-1.292.029-1.929.076-2.75.205-3.265.318-3.97 1.025-.707.706-.82 1.22-1.025 3.97A26 26 0 0 0 5 12.003c0 .642.028 1.291.076 1.928.204 2.75.318 3.265 1.024 3.971.706.707 1.22.82 3.971 1.025.637.047 1.287.076 1.929.076s1.292-.029 1.929-.076c2.75-.205 3.265-.318 3.97-1.025q.133-.13.238-.259c.283-.345.663-.642 1.109-.642.684 0 1.205.65.88 1.25a4.7 4.7 0 0 1-.812 1.066c-1.313 1.312-2.62 1.41-5.237 1.604-.678.05-1.377.081-2.077.081s-1.399-.03-2.077-.08c-2.616-.195-3.924-.293-5.237-1.605s-1.41-2.621-1.605-5.237A28 28 0 0 1 3 12c0-.7.03-1.399.081-2.077.195-2.616.292-3.924 1.605-5.237 1.313-1.312 2.62-1.41 5.237-1.604C10.6 3.032 11.3 3 12 3s1.399.031 2.077.082c2.616.194 3.924.292 5.237 1.604.346.347.608.692.81 1.062.326.6-.196 1.251-.88 1.251-.446 0-.826-.296-1.109-.641a4 4 0 0 0-.235-.257c-.706-.707-1.22-.82-3.971-1.025A26 26 0 0 0 12 5.001M19 9a1 1 0 0 1 1 1v1h1a1 1 0 1 1 0 2h-1v1a1 1 0 1 1-2 0v-1h-1a1 1 0 1 1 0-2h1v-1a1 1 0 0 1 1-1m-5.428 5.461q.648-.791.648-2.439 0-3.222-2.61-3.222-1.332 0-1.971.801T9 12.022q0 1.647.639 2.44.639.782 1.971.782 1.323 0 1.962-.783m-.954-3.546q.054.288.054.657v.891q0 .792-.225 1.188-.216.396-.837.396-.315 0-.522-.099a.9.9 0 0 1-.324-.297 1.5 1.5 0 0 1-.171-.495 5 5 0 0 1-.045-.693v-.89q0-.38.045-.676.054-.297.17-.495a.8.8 0 0 1 .325-.297q.207-.108.522-.108a1.1 1.1 0 0 1 .513.108.8.8 0 0 1 .324.315q.125.198.17.495"/></svg>