<svg xmlns="http://www.w3.org/2000/svg" viewBox="0 0 24 24"><path d="M15.885 9.002c0 .808-.914 1.28-1.576.814l-.331-.233C11.659 7.952 10.5 7.136 10.5 6s1.16-1.952 3.478-3.583l.33-.233c.663-.466 1.577.006 1.577.814a1 1 0 0 1-.423.815l-.33.233c-.536.376-.976.687-1.34.953l.338.02c2.598.164 3.898.247 5.233 1.581.835.835 1.18 1.656 1.362 2.79A23 23 0 0 1 21 13c0 1.134-.346 2.142-1.215 3.148a7 7 0 0 1-.496.5c-.402.35-.778.6-1.162.78-.56.261-1.127-.222-1.127-.84v-.119c0-.443.304-.824.665-1.082.489-.35.898-.827 1.123-1.387.39-.966.246-2.18.123-3.22l-.028-.24c-.172-1.492-.362-1.953-.934-2.525-.722-.722-1.223-.828-3.946-1l-.208-.013c.362.266.802.576 1.336.952l.331.233c.265.187.423.49.423.815"/><path d="M9.293 9.293a1 1 0 0 1 1.414 0l4 4a1 1 0 1 1-1.414 1.414l-4-4a1 1 0 0 1 0-1.414"/><path d="M9.692 14.184a.998.998 0 1 0-1.154 1.629l.331.233c.535.376.974.686 1.336.952l-.208-.013c-2.723-.172-3.224-.278-3.946-1-.572-.572-.762-1.033-.934-2.524l-.028-.24c-.123-1.041-.266-2.255.123-3.221.226-.56.634-1.037 1.123-1.387.36-.258.665-.639.665-1.082v-.119c0-.618-.567-1.101-1.127-.84-.384.18-.76.43-1.162.78-.122.107-.39.377-.496.5C3.346 8.858 3 9.865 3 11c0 1.186.09 2.446.276 3.61.181 1.133.526 1.955 1.361 2.79 1.335 1.334 2.635 1.417 5.234 1.581l.336.02c-.363.266-.802.577-1.338.953l-.33.233a1 1 0 0 0-.424.814c0 .809.914 1.28 1.577.815l.33-.233C12.342 19.952 13.5 19.136 13.5 18s-1.16-1.952-3.477-3.583z"/></svg>