<svg xmlns="http://www.w3.org/2000/svg" viewBox="0 0 24 24"><path d="M14.336 3h.017c.758.027 1.217.913.802 1.548-.007.01-.002.004 0 .002l-.002.001-.322.456C13.972 6.224 13.516 6.871 13 7.15v3.11l2.718-1.569c-.005-.58.326-1.298.94-2.628l.194-.42.001-.001s-.004.01.002-.002c.342-.684 1.342-.73 1.745-.08l.008.014.015.025c.154.276.17.606.04.895l-.012.027-.175.38c-.349.754-.555 1.204-.677 1.541a3 3 0 0 0-.063.194.07.07 0 0 0 .005.057q.016.024.046.032.065.017.2.043c.354.063.847.11 1.674.185l.417.038.03.003a1 1 0 0 1 .755.482l.015.026.007.013c.362.674-.178 1.517-.942 1.471h-.004l-.46-.042c-1.483-.135-2.272-.207-2.771-.514L14 11.991l2.706 1.561c.501-.297 1.288-.369 2.753-.503l.48-.043h.004c.763-.046 1.302.797.941 1.47l-.007.014-.015.026a1 1 0 0 1-.755.482l-.03.003-.436.04c-.827.076-1.32.122-1.674.185a3 3 0 0 0-.2.043.07.07 0 0 0-.046.032.07.07 0 0 0-.005.056q.017.064.063.195c.122.337.328.787.677 1.54l.183.398.013.027a1 1 0 0 1-.04.895l-.016.026-.008.013c-.403.65-1.403.604-1.745-.08-.004-.008-.003-.004-.002-.002l-.202-.438c-.623-1.347-.954-2.065-.94-2.65L13 13.721v3.129c.516.279.972.925 1.831 2.142l.322.456.002.002c-.002-.002-.007-.01 0 .001.415.635-.043 1.52-.802 1.547l-.017.001h-.033a1 1 0 0 1-.793-.411l-.02-.028-.293-.415c-.478-.678-.765-1.081-.996-1.356a3 3 0 0 0-.137-.152.07.07 0 0 0-.051-.023q-.03.002-.051.023-.047.047-.137.152c-.231.275-.518.678-.997 1.356l-.293.415-.02.028a1 1 0 0 1-.792.41L9.69 21h-.018c-.758-.027-1.217-.913-.801-1.548.007-.01.002-.004 0-.002l.002-.001.321-.456c.845-1.197 1.3-1.842 1.806-2.128v-3.142L8.3 15.28c.014.586-.317 1.304-.94 2.651l-.202.438q0 .002 0 0s.003-.007-.002.003c-.342.683-1.342.728-1.745.08l-.008-.014-.015-.026a1 1 0 0 1-.04-.895l.012-.027.183-.397c.348-.754.554-1.204.677-1.541q.045-.13.063-.195a.07.07 0 0 0-.005-.056.07.07 0 0 0-.046-.032 3 3 0 0 0-.2-.043c-.354-.063-.847-.11-1.674-.185l-.436-.04-.03-.003a1 1 0 0 1-.755-.482l-.015-.026-.007-.014c-.361-.673.178-1.516.94-1.47h.005l.48.043c1.465.134 2.252.206 2.753.503l2.706-1.561-2.707-1.562c-.5.307-1.288.38-2.77.514l-.461.042h-.004c-.764.046-1.304-.797-.942-1.47l.008-.014.014-.026a1 1 0 0 1 .755-.482l.03-.003.417-.038c.827-.076 1.32-.122 1.674-.185q.135-.026.2-.043a.07.07 0 0 0 .046-.032.07.07 0 0 0 .005-.056A3 3 0 0 0 6.2 8.44c-.122-.337-.328-.787-.677-1.54l-.173-.38-.013-.027a1 1 0 0 1 .041-.895l.015-.025.008-.013c.403-.65 1.403-.605 1.745.079.005.01.002.002.002.002v.001l.194.42c.615 1.33.946 2.047.94 2.629L11 10.259V7.135c-.506-.286-.96-.931-1.806-2.128l-.322-.456V4.55c0 .002.006.008-.001-.002-.416-.635.043-1.52.801-1.547L9.69 3h.033a1 1 0 0 1 .793.411l.02.028.292.415c.48.678.766 1.081.997 1.356q.09.105.137.152a.07.07 0 0 0 .05.023q.03-.002.052-.023.047-.047.137-.152c.23-.275.518-.678.996-1.356l.293-.415.02-.028a1 1 0 0 1 .793-.41z"/></svg>