<svg xmlns="http://www.w3.org/2000/svg" viewBox="0 0 24 24"><path fill-rule="evenodd" d="M4.165 16.056a47 47 0 0 1-.167-4.055c0-1.55.067-2.901.167-4.054.176-2.025.264-3.038 1.558-4.327s2.265-1.37 4.206-1.532a25 25 0 0 1 4.137 0c1.942.161 2.912.242 4.206 1.532 1.294 1.289 1.382 2.302 1.558 4.327.1 1.152.168 2.505.168 4.054s-.068 2.903-.168 4.056c-.176 2.024-.264 3.036-1.558 4.325-1.293 1.29-2.264 1.37-4.204 1.532a25 25 0 0 1-4.14 0c-1.941-.162-2.911-.242-4.205-1.532s-1.382-2.301-1.558-4.326M14.998 10a1 1 0 0 1-1 1h-4a1 1 0 1 1 0-2h4a1 1 0 0 1 1 1m-1 4a1 1 0 0 1-1 1h-2a1 1 0 0 1 0-2h2a1 1 0 0 1 1 1M2.475 6.015a1 1 0 0 1 .81 1.158l-.002.011a5 5 0 0 0-.039.265c-.026.196-.062.496-.098.9A41 41 0 0 0 3 12c0 1.624.074 2.844.146 3.651a21 21 0 0 0 .137 1.165l.002.01a1 1 0 1 1-1.97.348v-.003l-.001-.006-.004-.02a7 7 0 0 1-.048-.328c-.03-.225-.07-.554-.108-.987A43 43 0 0 1 1 12c0-1.684.076-2.964.154-3.83a23 23 0 0 1 .145-1.245l.011-.07.004-.02V6.83l.001-.002v-.002a1 1 0 0 1 1.16-.81m18.24 1.159a1 1 0 0 1 1.97-.348v.003l.001.007.004.02.011.07q.015.09.037.258c.03.224.07.553.108.986.078.866.154 2.146.154 3.83s-.076 2.964-.154 3.83a23 23 0 0 1-.145 1.245l-.011.07-.004.02v.006l-.001.002v.001a1 1 0 0 1-1.97-.348l.002-.01.004-.025.004-.024q.011-.068.03-.215c.027-.197.063-.497.099-.9.072-.808.146-2.028.146-3.652s-.074-2.844-.146-3.651a21 21 0 0 0-.13-1.116q0-.015-.004-.028l-.003-.02z"/></svg>