<svg xmlns="http://www.w3.org/2000/svg" viewBox="0 0 16 16"><path fill-rule="evenodd" d="M8 14c.578 0 1.121-.033 1.615-.082l.01-.001c.537-.055.956-.097 1.325-.217.376-.121.698-.322 1.052-.687s.55-.697.668-1.084c.116-.38.158-.812.212-1.368v-.009C12.953 9.837 13 8.986 13 8c0-.985-.048-1.837-.117-2.552l-.001-.008c-.054-.557-.096-.989-.212-1.37-.119-.387-.313-.718-.668-1.083-.354-.365-.676-.566-1.053-.688-.369-.12-.787-.161-1.326-.216h-.009A16 16 0 0 0 8 2c-.577 0-1.12.033-1.614.082l-.01.001c-.538.055-.956.097-1.325.216-.377.122-.7.323-1.053.688-.355.365-.55.696-.668 1.084-.116.38-.158.812-.212 1.369v.008A27 27 0 0 0 3 8c0 .986.048 1.837.117 2.552l.001.009c.054.556.096.988.212 1.368.119.387.313.72.668 1.084.354.365.676.566 1.052.687.37.12.788.162 1.326.217h.009C6.879 13.968 7.422 14 8 14m-1.476-1.537c-.59-.06-.846-.091-1.047-.156-.13-.043-.26-.106-.473-.326-.214-.22-.276-.355-.318-.49-.064-.208-.095-.475-.154-1.084-.065-.667-.11-1.47-.11-2.407s.045-1.74.11-2.407c.059-.609.09-.875.154-1.084.042-.136.104-.27.318-.49s.343-.284.474-.326c.2-.065.457-.097 1.047-.156.453-.046.95-.076 1.475-.076s1.022.03 1.475.076c.59.06.847.091 1.047.156.13.042.26.106.474.326s.276.354.318.49c.064.209.095.475.154 1.084.065.668.11 1.47.11 2.407s-.045 1.74-.11 2.408c-.059.608-.09.875-.154 1.083-.042.135-.104.27-.318.49s-.343.284-.473.326c-.2.064-.458.097-1.047.156-.453.046-.95.076-1.476.076s-1.023-.03-1.476-.076M9.02 7.677a.72.72 0 0 0 .711-.73.72.72 0 0 0-.71-.732H6.978a.72.72 0 0 0-.711.731c0 .401.316.73.71.73zm-.408 2.532a.72.72 0 0 0 .71-.73.72.72 0 0 0-.71-.731H7.387a.72.72 0 0 0-.71.73.72.72 0 0 0 .71.731zM2.077 3.754a.75.75 0 0 1 .669.824v.004l-.002.016-.006.061a36 36 0 0 0-.09 1.056C2.598 6.385 2.55 7.24 2.55 8s.048 1.614.098 2.285a47 47 0 0 0 .09 1.056l.006.062.001.015v.004a.75.75 0 0 1-1.491.156v-.007l-.002-.018-.007-.066a37 37 0 0 1-.093-1.091A34 34 0 0 1 1.05 8c0-.814.051-1.71.102-2.395a49 49 0 0 1 .093-1.092l.007-.066.001-.018v-.006a.75.75 0 0 1 .824-.669m11.227.824a.75.75 0 1 1 1.492-.155v.006l.002.018.007.066.023.244c.02.209.045.503.07.848C14.948 6.29 15 7.186 15 8s-.052 1.71-.102 2.396a49 49 0 0 1-.093 1.092l-.007.066-.002.017v.007a.75.75 0 1 1-1.492-.156v-.004l.002-.015.006-.062.022-.235c.019-.201.043-.487.068-.82.05-.672.098-1.526.098-2.286s-.049-1.614-.098-2.285a47 47 0 0 0-.09-1.056l-.006-.061-.002-.016z"/></svg>