<svg xmlns="http://www.w3.org/2000/svg" viewBox="0 0 16 16"><path fill-rule="evenodd" d="M9.615 13.918a16 16 0 0 1-3.23 0l-.01-.001c-.537-.055-.956-.097-1.325-.217-.376-.121-.698-.322-1.052-.687s-.55-.697-.668-1.084c-.116-.38-.158-.812-.212-1.368v-.009A27 27 0 0 1 3 8c0-.985.048-1.836.117-2.552l.001-.008c.054-.557.096-.989.212-1.37.119-.387.313-.718.668-1.083.354-.365.676-.566 1.053-.688.369-.12.787-.161 1.326-.216h.009a15.8 15.8 0 0 1 3.228-.001l.01.001c.538.055.956.097 1.325.216.377.122.7.323 1.053.688.355.365.55.696.668 1.084.116.38.158.812.212 1.369v.008C12.953 6.163 13 7.015 13 8s-.048 1.837-.117 2.552l-.001.009c-.054.556-.096.988-.212 1.368-.119.387-.313.72-.668 1.084-.354.365-.676.566-1.052.687-.37.12-.787.162-1.326.217zm.117-6.972a.72.72 0 0 1-.71.73H6.978a.72.72 0 0 1-.71-.73c0-.4.315-.73.71-.73H9.02c.395 0 .711.33.711.73M9.324 9.48c0 .4-.316.73-.711.73H7.387a.72.72 0 0 1-.71-.73.72.72 0 0 1 .71-.73h1.226a.72.72 0 0 1 .71.73M2.077 3.754a.75.75 0 0 1 .669.824v.004l-.002.016-.006.061a36 36 0 0 0-.09 1.056C2.598 6.385 2.55 7.24 2.55 8s.048 1.614.098 2.285a47 47 0 0 0 .09 1.056l.006.062.001.015v.004a.75.75 0 0 1-1.491.156v-.007l-.002-.018-.007-.066a37 37 0 0 1-.093-1.091A34 34 0 0 1 1.05 8c0-.814.051-1.71.102-2.395a49 49 0 0 1 .093-1.092l.007-.066.001-.018v-.006a.75.75 0 0 1 .824-.669m11.227.824a.75.75 0 1 1 1.492-.155v.006l.002.018.007.066.023.244c.02.209.045.503.07.848C14.948 6.29 15 7.186 15 8s-.052 1.71-.102 2.396a49 49 0 0 1-.093 1.092l-.007.066-.002.017v.007a.75.75 0 1 1-1.492-.156v-.004l.002-.015.006-.062.022-.235c.019-.201.043-.487.068-.82.05-.672.098-1.526.098-2.286s-.049-1.614-.098-2.285a47 47 0 0 0-.09-1.056l-.006-.061-.002-.016z"/></svg>