<svg xmlns="http://www.w3.org/2000/svg" viewBox="0 0 16 16"><path fill-rule="evenodd" d="M5.93 7.635c.518.254 1.057.518 1.487.948s.694.969.948 1.486l.06.123 1.084 2.195c.055-.072.125-.18.211-.342.308-.578.625-1.455 1.12-2.84l.281-.791c.671-1.884 1.114-3.136 1.295-4.04.088-.44.089-.684.071-.807l-.008-.046-.046-.008c-.123-.018-.367-.017-.807.07-.904.182-2.156.625-4.04 1.296l-.79.282c-1.386.494-2.263.81-2.841 1.119-.161.086-.27.156-.342.21l2.195 1.084zm-.786 1.284c.642.317.964.476 1.212.725.249.248.408.57.725 1.212l1.14 2.31c.177.358.447.688.834.787.234.06.46.065.69.014 1.075-.242 1.553-1.581 2.507-4.259l.282-.79c1.308-3.671 1.963-5.507 1.009-6.46-.954-.955-2.79-.3-6.46 1.008l-.791.282c-2.678.954-4.017 1.432-4.259 2.506-.051.23-.046.457.014.69.1.388.429.658.786.835z"/></svg>