<svg xmlns="http://www.w3.org/2000/svg" viewBox="0 0 16 16"><path fill-rule="evenodd" d="M9.373 3.59c.442.677.92 1.482 1.285 2.283.372.818.592 1.559.592 2.127 0 .482-.159 1.095-.443 1.784a15 15 0 0 1-1.047 2.013 25 25 0 0 1-1.514 2.195l-.025.03-.005.008-.002.002a.75.75 0 1 0 1.172.936l.003-.004.008-.01.03-.037.106-.138a26 26 0 0 0 1.507-2.201 16.4 16.4 0 0 0 1.153-2.221c.316-.765.557-1.59.557-2.357 0-.892-.326-1.868-.727-2.748-.408-.896-.93-1.771-1.395-2.483a27 27 0 0 0-1.213-1.701l-.021-.026-.006-.007-.002-.003a.75.75 0 1 0-1.172.937h.001l.004.005.017.021.067.087c.06.076.145.19.252.333.212.288.504.696.818 1.176m-1.99-.063a.75.75 0 0 0-1.165.946l.005.006.016.02a13 13 0 0 1 .306.395c.2.266.464.63.728 1.033.265.404.52.831.705 1.224.197.415.272.7.272.849s-.075.434-.272.85c-.185.392-.44.82-.705 1.223a20 20 0 0 1-1.034 1.428l-.016.02-.004.005-.001.001a.75.75 0 0 0 1.164.946l.003-.003.005-.007.02-.025.074-.093q.096-.122.259-.337c.213-.283.498-.675.784-1.112.285-.434.58-.925.807-1.405.216-.456.416-.993.416-1.491s-.2-1.035-.416-1.491c-.227-.48-.522-.971-.807-1.405A21 21 0 0 0 7.41 3.562l-.02-.025-.005-.007zM4.5 6.551c-.258 0-.396.12-.672.357a4 4 0 0 0-.408.408c-.238.276-.357.414-.357.672s.12.396.357.672a4 4 0 0 0 .408.408c.276.238.414.357.672.357s.396-.12.672-.357a4 4 0 0 0 .408-.408c.238-.276.357-.414.357-.672s-.12-.396-.357-.672a4 4 0 0 0-.408-.408c-.276-.238-.414-.357-.672-.357"/></svg>