<svg xmlns="http://www.w3.org/2000/svg" viewBox="0 0 32 32"><path d="M11.333 5.5C9.424 5.5 8 6.93 8 8.75a1.25 1.25 0 1 1-2.5 0C5.5 5.506 8.088 3 11.333 3c1.888 0 3.58.876 4.667 2.247A5.95 5.95 0 0 1 20.667 3C23.913 3 26.5 5.506 26.5 8.75a1.25 1.25 0 1 1-2.5 0c0-1.82-1.424-3.25-3.333-3.25-1.908 0-3.417 1.514-3.417 3.335v2.172a4.7 4.7 0 0 1 2.125-.507c2.37 0 4.388 1.75 4.62 4.125a1.25 1.25 0 0 1-2.489.242C21.405 13.825 20.51 13 19.376 13c-1.198 0-2.126.927-2.126 2.077V18.5h7.546c1.78 0 2.896 1.867 1.719 3.202a14.3 14.3 0 0 1-4.828 3.577 10 10 0 0 1 2.06 1.904c.63.77.006 1.817-.989 1.817H9.242c-.995 0-1.618-1.047-.988-1.817a10 10 0 0 1 2.059-1.904 14.3 14.3 0 0 1-4.827-3.577C4.308 20.367 5.424 18.5 7.204 18.5h7.546v-3.454C14.733 13.91 13.811 13 12.625 13c-1.135 0-2.03.825-2.13 1.867a1.25 1.25 0 1 1-2.49-.242c.232-2.375 2.251-4.125 4.62-4.125.763 0 1.487.182 2.125.506V8.835c0-1.821-1.509-3.335-3.417-3.335"/></svg>