<svg xmlns="http://www.w3.org/2000/svg" viewBox="0 0 44 44"><path fill-rule="evenodd" d="M15.754 7a4.753 4.753 0 0 0-4.75 4.559 1.5 1.5 0 1 1-2.998-.118A7.753 7.753 0 0 1 15.754 4a7.75 7.75 0 0 1 6.248 3.158A7.75 7.75 0 0 1 28.25 4a7.753 7.753 0 0 1 7.748 7.441 1.5 1.5 0 0 1-2.997.118A4.753 4.753 0 0 0 28.25 7a4.753 4.753 0 0 0-4.746 4.453q.003.086-.005.17v4.285A6.23 6.23 0 0 1 26.75 15a6.253 6.253 0 0 1 6.249 5.923l.002.038v.539a1.5 1.5 0 0 1-3 0v-.458A3.253 3.253 0 0 0 26.75 18a3.253 3.253 0 0 0-3.25 3.042V26h10.974c2.462 0 3.989 2.591 2.336 4.416a20.2 20.2 0 0 1-4.11 3.47q-1.39.886-2.92 1.537c.863.601 1.649 1.3 2.339 2.08q.046.052.086.105c.773 1.025-.064 2.392-1.4 2.392H13.194c-1.335 0-2.172-1.367-1.399-2.392q.04-.053.086-.105c.69-.78 1.476-1.478 2.339-2.08a20 20 0 0 1-2.92-1.536 20.2 20.2 0 0 1-4.11-3.471C5.536 28.59 7.063 26 9.525 26H20.5v-4.958A3.253 3.253 0 0 0 17.25 18 3.253 3.253 0 0 0 14 21.042v.458a1.5 1.5 0 0 1-3 0v-.539l.002-.038A6.253 6.253 0 0 1 17.25 15c1.19 0 2.302.332 3.25.908v-4.466A4.753 4.753 0 0 0 15.754 7m1.449 28.113a3 3 0 0 0-1.812-2.451A17.1 17.1 0 0 1 9.981 29h24.037a17.1 17.1 0 0 1-5.41 3.662A3 3 0 0 0 27.228 37H16.77a3 3 0 0 0 .432-1.887"/></svg>