<svg xmlns="http://www.w3.org/2000/svg" viewBox="0 0 16 16"><path d="M3.221 5.892a.75.75 0 1 0 1.062 1.06l1.76-1.758c.74-.741 1.193-1.188 1.56-1.468.17-.13.273-.185.33-.208.043-.018.058-.018.066-.018h.002a.2.2 0 0 1 .066.018c.057.023.16.079.33.208.367.28.819.727 1.56 1.468l1.76 1.759a.75.75 0 0 0 1.061-1.061l-1.76-1.759C9.597 2.711 8.885 2 8 2s-1.596.711-3.019 2.133zm0 5.5a.75.75 0 1 0 1.062 1.06l1.76-1.758c.74-.741 1.193-1.188 1.56-1.468.17-.13.273-.185.33-.208C7.976 9 7.991 9 7.999 9h.002a.2.2 0 0 1 .066.018c.057.023.16.079.33.208.367.28.819.727 1.56 1.468l1.76 1.759a.75.75 0 0 0 1.061-1.061l-1.76-1.759C9.597 8.211 8.885 7.5 8 7.5s-1.596.711-3.019 2.133z"/></svg>