<svg xmlns="http://www.w3.org/2000/svg" viewBox="0 0 32 32"><path d="M15.752 5.75v-1.5a1.25 1.25 0 0 0-2.5 0v1.502a1.25 1.25 0 1 0 2.5 0"/><path fill-rule="evenodd" d="M29.255 17.894A7.5 7.5 0 0 0 29.496 16c0-.47-.556-.692-.976-.48a4.5 4.5 0 0 1-6.044-6.045c.212-.419-.01-.975-.48-.975a7.6 7.6 0 0 0-1.894.241l-.046.012a7.5 7.5 0 1 0 9.187 9.186zm-2.927.604a5 5 0 1 1-6.83-6.83 7 7 0 0 0 6.83 6.83"/><path d="M1.5 16c0-.69.56-1.25 1.25-1.25h1.497a1.25 1.25 0 1 1 0 2.5H2.75c-.69 0-1.25-.56-1.25-1.25m13.002 8.997c.69 0 1.25.56 1.25 1.25v1.505a1.25 1.25 0 0 1-2.5 0v-1.505c0-.69.56-1.25 1.25-1.25m-9.194-1.571a1.25 1.25 0 1 0 1.767 1.767l1.06-1.058a1.25 1.25 0 0 0-1.769-1.768zM5.31 6.807a1.25 1.25 0 0 1 1.767 0l1.059 1.058a1.25 1.25 0 0 1-1.768 1.768L5.31 8.574a1.25 1.25 0 0 1 0-1.767m8.592 4.227a1.25 1.25 0 1 0-.153-2.495 7.5 7.5 0 0 0 0 14.925l.071.002h.03a1.25 1.25 0 0 0 .054-2.5 5.003 5.003 0 0 1-.002-9.932"/></svg>