<svg xmlns="http://www.w3.org/2000/svg" viewBox="0 0 32 32"><path d="M15.752 4.249v1.502a1.25 1.25 0 0 1-2.5 0V4.249a1.25 1.25 0 1 1 2.5 0m2.015 4.994a7.502 7.502 0 1 0-.006 13.515C15.488 21.273 14 18.801 14 16.003c0-2.801 1.49-5.275 3.767-6.76"/><path d="M22.75 9.753c.303 0 .445.361.279.614a4.567 4.567 0 0 0 4.991 6.925c.394-.104.812.212.689.6a6.25 6.25 0 1 1-5.959-8.14m-20 4.998a1.25 1.25 0 1 0 0 2.5h1.497a1.25 1.25 0 0 0 0-2.5zm13.002 11.497a1.25 1.25 0 0 0-2.5 0v1.505a1.25 1.25 0 1 0 2.5 0zM5.308 25.193a1.25 1.25 0 0 1 0-1.767l1.058-1.06a1.25 1.25 0 0 1 1.768 1.769l-1.059 1.058a1.25 1.25 0 0 1-1.767 0M7.077 6.807A1.25 1.25 0 0 0 5.31 8.574l1.06 1.06a1.25 1.25 0 1 0 1.767-1.769z"/></svg>