<svg xmlns="http://www.w3.org/2000/svg" viewBox="0 0 24 24"><path d="M11 2a1 1 0 0 1 1 1v1a1 1 0 1 1-2 0V3a1 1 0 0 1 1-1m2.796 15.31C12.098 16.098 11 14.17 11 12s1.098-4.098 2.796-5.31a6 6 0 1 0 0 10.62"/><path d="M12.996 11.948a5.053 5.053 0 0 0 9.994 1.059c.05-.24-.21-.415-.438-.326a4.042 4.042 0 0 1-5.238-5.237c.089-.229-.086-.489-.326-.437a5.054 5.054 0 0 0-3.992 4.94M2 11a1 1 0 1 0 0 2h1a1 1 0 1 0 0-2zm10 9a1 1 0 1 0-2 0v1a1 1 0 1 0 2 0zM4.637 7.05l-.707-.707A1 1 0 1 1 5.344 4.93l.707.707A1 1 0 0 1 4.637 7.05M3.93 17.657a1 1 0 0 0 1.414 1.414l.707-.707a1 1 0 0 0-1.414-1.414z"/></svg>