<svg xmlns="http://www.w3.org/2000/svg" viewBox="0 0 16 16"><path d="M5.338 3.682c.268-.038.609-.071 1.057-.107.494-.039.98-.176.98-.799 0-.596-.551-.738-1.074-.698-.63.048-1.138.094-1.576.188a.735.735 0 0 0-.522.988c.183.464.715.489 1.135.428m5.324 0a18 18 0 0 0-1.057-.107c-.494-.039-.98-.176-.98-.799 0-.596.551-.738 1.074-.698.63.048 1.138.094 1.576.188a.735.735 0 0 1 .522.988c-.183.464-.715.489-1.135.428m1.656 1.656c.038.268.071.609.107 1.057.039.494.176.98.799.98.596 0 .738-.551.698-1.074-.048-.63-.094-1.138-.188-1.576a.735.735 0 0 0-.988-.522c-.464.183-.489.715-.428 1.135m0 5.324c.038-.268.071-.609.107-1.057.039-.494.176-.98.799-.98.596 0 .738.551.698 1.074-.048.63-.094 1.138-.188 1.576a.735.735 0 0 1-.988.522c-.464-.183-.489-.715-.428-1.135M3.682 5.338c.06-.42.036-.952-.428-1.135a.735.735 0 0 0-.988.522c-.094.438-.14.947-.189 1.576-.04.523.103 1.074.699 1.074.622 0 .76-.486.8-.98.035-.448.068-.79.106-1.057m0 5.324c.06.42.036.952-.428 1.135a.735.735 0 0 1-.988-.522c-.094-.438-.14-.947-.189-1.576-.04-.523.103-1.074.699-1.074.622 0 .76.486.8.98.035.448.068.79.106 1.057m2.713 1.763c-.448-.036-.79-.069-1.057-.107-.42-.06-.952-.037-1.135.428a.735.735 0 0 0 .522.988c.438.094.947.14 1.576.188.523.04 1.074-.102 1.074-.698 0-.623-.486-.76-.98-.8m4.267-.106c.42-.06.952-.037 1.135.428a.735.735 0 0 1-.522.988c-.438.094-.947.14-1.576.188-.523.04-1.074-.102-1.074-.698 0-.623.486-.76.98-.8.448-.035.79-.068 1.057-.106"/></svg>