<svg width="32" height="32" viewBox="0 0 32 32" fill="none" xmlns="http://www.w3.org/2000/svg">
<g clip-path="url(#clip0_28728_8196)">
<path d="M21.541 7.48286C19.04 4.95367 17.5343 3.7299 16.8657 3.32724C16.4163 3.08452 15.6735 3.00006 15.0333 3.00003L14.287 3L14.2881 3.00221C13.7736 3.00929 13.282 3.03304 12.815 3.06939C10.905 3.21809 9.94995 3.29244 8.27883 4.94652C6.60772 6.60059 6.49757 7.7302 6.27727 9.98943C6.11641 11.6391 6 13.6441 6 16C6 17.9381 6.07824 19.6387 6.19556 21.0994C6.41325 23.8095 6.5221 25.1645 8.27174 26.9023C10.0214 28.6401 11.2861 28.7331 13.8157 28.919C14.5091 28.97 15.2401 29 16 29C16.7599 29 17.491 28.97 18.1844 28.919C20.7139 28.7331 21.9786 28.6401 23.7282 26.9023C25.4778 25.1646 25.5867 23.8096 25.8044 21.0996C25.9217 19.6389 26.0008 17.9382 26.0008 16C26.0008 14.923 26.0255 12.8431 25.6796 12.2281C25.6323 12.144 25.5444 12.0918 25.4391 11.9542C24.8754 11.2175 23.6483 9.6139 21.541 7.48286Z" fill="url(#paint0_linear_28728_8196)"/>
<path fill-rule="evenodd" clip-rule="evenodd" d="M12.2709 12.0403C13.8373 10.2362 16.971 9.35029 18.1499 10.3738C19.3297 11.3982 18.8926 14.6253 17.3262 16.4294C16.2139 17.7105 14.3084 18.3226 12.5637 16.8078C10.8196 15.2936 11.1586 13.3214 12.2709 12.0403ZM13.341 13.3002C13.9611 12.586 15.0427 12.5097 15.7569 13.1298C16.4711 13.7499 16.5474 14.8315 15.9273 15.5457C15.3072 16.2598 14.2256 16.3361 13.5114 15.7161C12.7972 15.096 12.721 14.0144 13.341 13.3002Z" fill="white"/>
<path d="M10.1217 17.2831C10.3719 17.0362 10.7748 17.0389 11.0217 17.2891L11.9424 18.2221C12.1893 18.4723 12.1866 18.8752 11.9364 19.122C11.6863 19.3689 11.2834 19.3662 11.0365 19.1161L10.1158 18.183C9.8689 17.9328 9.87158 17.5299 10.1217 17.2831Z" fill="white"/>
<path d="M9.30292 18.9623C9.05606 18.7122 8.65315 18.7095 8.40299 18.9564C8.15283 19.2032 8.15015 19.6061 8.39701 19.8563L9.31776 20.7894C9.56462 21.0395 9.96753 21.0422 10.2177 20.7953C10.4679 20.5485 10.4705 20.1456 10.2237 19.8954L9.30292 18.9623Z" fill="white"/>
<path d="M7.62252 20.6179C7.37566 20.3677 6.97275 20.3651 6.72259 20.6119C6.47243 20.8588 6.46975 21.2617 6.71661 21.5118L7.63736 22.4449C7.88422 22.6951 8.28714 22.6977 8.5373 22.4509C8.78746 22.204 8.79013 21.8011 8.54327 21.5509L7.62252 20.6179Z" fill="white"/>
<path d="M25.6958 12.2459C24.3186 8.36828 20.2795 4.68899 16.8379 3.31055C18.5076 5.53544 17.7585 9.41576 18.7164 10.3844C19.8616 11.5425 23.7653 10.6622 25.6958 12.2459Z" fill="#FFDE80"/>
</g>
<defs>
<linearGradient id="paint0_linear_28728_8196" x1="1.36189" y1="5.52778" x2="31.1193" y2="11.4942" gradientUnits="userSpaceOnUse">
<stop stop-color="#FFC700"/>
<stop offset="1" stop-color="#FF9900"/>
</linearGradient>
<clipPath id="clip0_28728_8196">
<rect width="32" height="32" fill="white"/>
</clipPath>
</defs>
</svg>
