<svg width="44" height="44" viewBox="0 0 44 44" fill="none" xmlns="http://www.w3.org/2000/svg">
<g clip-path="url(#clip0_28728_8191)">
<path d="M29.7559 10.207C26.2539 6.70508 24.1455 5.01063 23.2094 4.4531C22.58 4.11703 21.54 4.00009 20.6436 4.00005L19.5986 4L19.6001 4.00307C18.8797 4.01286 18.1914 4.04574 17.5375 4.09608C14.863 4.30197 13.5257 4.40492 11.1858 6.69517C8.84587 8.98543 8.69164 10.5495 8.38317 13.6777C8.15793 15.9618 8 18.738 8 22C8 24.7127 8.11192 27.0893 8.27916 29.1264C8.58474 32.8488 8.73754 34.7099 11.1333 37.0922C13.5291 39.4745 15.2799 39.6083 18.7814 39.8759C19.7996 39.9537 20.8773 40 22 40C23.1228 40 24.2005 39.9537 25.2188 39.8759C28.7202 39.6083 30.4708 39.4745 32.8666 37.0923C35.2624 34.71 35.4152 32.8489 35.7208 29.1267C35.8881 27.0896 36 24.7128 36 22C36 20.5088 36.0352 17.6289 35.5508 16.7773C35.4846 16.661 35.3615 16.5887 35.214 16.3981C34.4247 15.3781 32.7065 13.1577 29.7559 10.207Z" fill="url(#paint0_linear_28728_8191)"/>
<path fill-rule="evenodd" clip-rule="evenodd" d="M16.8737 16.5551C19.0275 14.0744 23.3363 12.8563 24.9573 14.2637C26.5796 15.6722 25.9785 20.1095 23.8247 22.5902C22.2954 24.3517 19.6753 25.1933 17.2763 23.1105C14.8782 21.0284 15.3443 18.3166 16.8737 16.5551ZM18.3451 18.2874C19.1977 17.3054 20.685 17.2005 21.667 18.0531C22.649 18.9057 22.7539 20.393 21.9013 21.375C21.0487 22.357 19.5614 22.4619 18.5794 21.6093C17.5974 20.7567 17.4925 19.2694 18.3451 18.2874Z" fill="white"/>
<path d="M13.9186 23.7639C14.2626 23.4245 14.8166 23.4282 15.156 23.7721L16.422 25.0551C16.7615 25.3991 16.7578 25.9531 16.4138 26.2925C16.0699 26.6319 15.5159 26.6283 15.1764 26.2843L13.9104 25.0013C13.571 24.6574 13.5746 24.1034 13.9186 23.7639Z" fill="white"/>
<path d="M12.7927 26.0729C12.4533 25.729 11.8993 25.7253 11.5553 26.0647C11.2114 26.4041 11.2077 26.9581 11.5471 27.3021L12.8131 28.5851C13.1526 28.929 13.7066 28.9327 14.0505 28.5933C14.3945 28.2539 14.3982 27.6999 14.0588 27.3559L12.7927 26.0729Z" fill="white"/>
<path d="M10.4822 28.3493C10.1428 28.0053 9.58875 28.0016 9.24478 28.3411C8.90081 28.6805 8.89713 29.2345 9.23656 29.5785L10.5026 30.8614C10.842 31.2054 11.396 31.2091 11.74 30.8697C12.084 30.5302 12.0877 29.9762 11.7482 29.6323L10.4822 28.3493Z" fill="white"/>
<path d="M35.5711 16.8017C33.6427 11.4327 27.987 6.3383 23.168 4.42969C25.506 7.51031 24.457 12.8831 25.7983 14.2243C27.4018 15.8278 32.868 14.6089 35.5711 16.8017Z" fill="#FFDE80"/>
</g>
<defs>
<linearGradient id="paint0_linear_28728_8191" x1="1.50692" y1="7.5" x2="43.1298" y2="15.9379" gradientUnits="userSpaceOnUse">
<stop stop-color="#FFC700"/>
<stop offset="1" stop-color="#FF9900"/>
</linearGradient>
<clipPath id="clip0_28728_8191">
<rect width="44" height="44" fill="white"/>
</clipPath>
</defs>
</svg>
