<svg xmlns="http://www.w3.org/2000/svg" viewBox="0 0 24 24"><path d="M4.685 4.688C3.98 5.393 3.625 6.096 3.419 7h17.16c-.207-.904-.561-1.607-1.266-2.312-1.313-1.313-2.62-1.41-5.237-1.605A28 28 0 0 0 12 3.002c-.7 0-1.399.03-2.077.081-2.616.195-3.924.292-5.237 1.605M3.08 9.925c-.05.678-.08 1.377-.08 2.077s.03 1.399.081 2.077c.195 2.616.292 3.924 1.605 5.237.834.834 1.665 1.177 2.83 1.367A3 3 0 0 1 7.6 17.2l1.5-2a3 3 0 0 1 4.65-.186 3 3 0 0 1 3.75-.613 3 3 0 0 1 3.374.256q.023-.279.044-.579c.05-.678.081-1.378.081-2.077s-.03-1.4-.081-2.078v-.001q-.036-.49-.071-.923H3.15q-.036.434-.07.925"/><path d="M16.351 16.064a1 1 0 0 1 .585 1.287l-1.5 4a1 1 0 1 1-1.872-.702l1.5-4a1 1 0 0 1 1.287-.585M18.2 20.4a1 1 0 0 0 1.6 1.2l1.5-2a1 1 0 0 0 0-1.2l-1.5-2a1 1 0 1 0-1.6 1.2l1.05 1.4zm-7.5 1.2a1 1 0 0 0 1.6-1.2L11.25 19l1.05-1.4a1 1 0 1 0-1.6-1.2l-1.5 2a1 1 0 0 0 0 1.2z"/></svg>