<svg xmlns="http://www.w3.org/2000/svg" viewBox="0 0 24 24"><path fill-rule="evenodd" d="M14.077 3.083c2.616.195 3.924.292 5.237 1.605s1.41 2.62 1.605 5.237a26.5 26.5 0 0 1 .038 3.575 1 1 0 0 1-1 1 1.003 1.003 0 0 1-1.004-1c.03-.498.047-1 .047-1.498 0-.642-.028-1.292-.076-1.929-.03-.406-.058-.754-.087-1.07H5.163c-.029.316-.057.664-.087 1.07A26 26 0 0 0 5 12.002c0 .642.028 1.291.076 1.929.204 2.75.318 3.265 1.024 3.97.264.264.498.449.834.583a1 1 0 1 1-.94 1.765 4.5 4.5 0 0 1-1.308-.933c-1.313-1.313-1.41-2.62-1.605-5.237A28 28 0 0 1 3 12.002c0-.7.03-1.4.081-2.077.195-2.616.292-3.924 1.605-5.237s2.62-1.41 5.237-1.605c.678-.05 1.377-.081 2.077-.081s1.399.03 2.077.081m4.422 3.92c-.136-.366-.322-.624-.6-.9-.705-.707-1.22-.82-3.97-1.026A26 26 0 0 0 12 5.002c-.642 0-1.292.028-1.929.075-2.75.205-3.265.319-3.97 1.025-.278.277-.464.535-.6.9z"/><path d="M16.351 16.064a1 1 0 0 1 .585 1.287l-1.5 4a1 1 0 1 1-1.872-.702l1.5-4a1 1 0 0 1 1.287-.585M18.2 20.4a1 1 0 0 0 1.6 1.2l1.5-2a1 1 0 0 0 0-1.2l-1.5-2a1 1 0 1 0-1.6 1.2l1.05 1.4zm-7.5 1.2a1 1 0 0 0 1.6-1.2L11.25 19l1.05-1.4a1 1 0 1 0-1.6-1.2l-1.5 2a1 1 0 0 0 0 1.2z"/></svg>