<svg xmlns="http://www.w3.org/2000/svg" viewBox="0 0 16 16"><path fill-rule="evenodd" d="M2.195 14.805c.196.195.51.195 1.138.195h9.335c.628 0 .942 0 1.137-.195.195-.196.195-.51.195-1.138v-3.334q0-.269-.01-.527c-.054-1.28-.08-1.92-.98-2.835-.673-.686-1.23-.881-2.046-.97l-.01-.222c-.088-1.733-.132-2.6-1-3.498-.867-.899-1.797-.98-3.657-1.14A35 35 0 0 0 3.333 1c-.628 0-.942 0-1.138.195C2 1.391 2 1.705 2 2.332v11.336c0 .628 0 .942.195 1.137M12.5 13.5H11V7.517c.108.016.198.036.281.06.173.051.357.137.66.445.316.323.394.502.435.647.065.224.086.505.114 1.199q.01.229.01.465zM5.009 5.074c.016-.218.024-.328.134-.437.11-.11.219-.118.438-.135a2.4 2.4 0 0 1 .347 0c.218.017.328.025.437.135.11.11.118.219.134.437a2.4 2.4 0 0 1 0 .347c-.016.219-.024.328-.134.438s-.219.118-.437.134a2.4 2.4 0 0 1-.347 0c-.22-.016-.328-.024-.438-.134s-.118-.22-.134-.438a2.4 2.4 0 0 1 0-.347m0 3c.016-.218.024-.328.134-.437.11-.11.219-.118.437-.135a2.4 2.4 0 0 1 .348 0c.218.017.328.025.437.135.11.11.118.219.134.437a2.4 2.4 0 0 1 0 .347c-.016.219-.024.328-.134.438s-.219.118-.437.134a2.4 2.4 0 0 1-.348 0c-.218-.016-.327-.024-.437-.134s-.118-.22-.134-.438a2.4 2.4 0 0 1 0-.347"/></svg>