<svg xmlns="http://www.w3.org/2000/svg" viewBox="0 0 24 24"><path fill-rule="evenodd" d="M3.293 21.707c.293.293.764.293 1.706.293h14.003c.941 0 1.412 0 1.705-.293s.293-.764.293-1.706v-4.5q0-.385-.015-.752c-.072-1.82-.108-2.73-1.452-4.104-.888-.909-1.625-1.245-2.599-1.404-.128-2.62-.196-3.935-1.493-5.282-1.3-1.35-2.734-1.475-5.599-1.723C8.268 2.1 6.578 2 5 2c-.943 0-1.414 0-1.707.293S3 3.056 3 3.998v16.004c0 .942 0 1.412.293 1.705M17 12q0-.357-.004-.701l.03.008c.285.088.591.239 1.076.735.509.52.646.819.717 1.057.1.339.129.748.168 1.729q.012.33.013.672V20h-2zM7.011 7.77c.022-.291.032-.437.178-.583s.291-.156.582-.178a3 3 0 0 1 .462 0c.29.022.436.032.582.178s.156.292.178.582a3 3 0 0 1 0 .462c-.022.29-.033.436-.178.582-.146.146-.292.156-.582.178a3 3 0 0 1-.462 0c-.29-.022-.436-.032-.582-.178s-.156-.292-.178-.582a3 3 0 0 1 0-.462m0 4c.022-.291.032-.437.178-.583s.291-.156.582-.178a3 3 0 0 1 .462 0c.29.022.436.032.582.178s.156.292.178.582a3 3 0 0 1 0 .462c-.022.29-.033.436-.178.582-.146.146-.292.156-.582.178a3 3 0 0 1-.462 0c-.29-.022-.436-.032-.582-.178s-.156-.292-.178-.582a3 3 0 0 1 0-.462"/></svg>