<svg xmlns="http://www.w3.org/2000/svg" viewBox="0 0 16 16"><path fill-rule="evenodd" d="M9.965 14.903A20 20 0 0 1 8 15c-.703 0-1.364-.038-1.965-.097-1.336-.131-2.004-.197-2.848-1.039s-.91-1.51-1.044-2.848A30 30 0 0 1 2 8c0-1.165.059-2.17.143-3.015.133-1.339.2-2.008 1.044-2.85s1.512-.907 2.85-1.038a20 20 0 0 1 3.927 0c1.337.13 2.005.196 2.849 1.038s.91 1.511 1.044 2.85C13.942 5.829 14 6.835 14 8s-.059 2.171-.143 3.016c-.134 1.338-.2 2.007-1.044 2.848-.844.842-1.512.908-2.848 1.039M5.25 4.75A.75.75 0 0 1 6 4h4a.75.75 0 0 1 0 1.5H6a.75.75 0 0 1-.75-.75m2 3.25a1 1 0 1 1-2 0 1 1 0 0 1 2 0"/></svg>