<svg xmlns="http://www.w3.org/2000/svg" viewBox="0 0 16 16"><path d="M5.5 4.75A.75.75 0 0 1 6.25 4h3.5a.75.75 0 0 1 0 1.5h-3.5a.75.75 0 0 1-.75-.75M7.4 8a.9.9 0 1 1-1.8 0 .9.9 0 0 1 1.8 0"/><path fill-rule="evenodd" d="M8 15c.703 0 1.364-.038 1.965-.097 1.336-.131 2.004-.197 2.848-1.039s.91-1.51 1.044-2.848C13.942 10.17 14 9.166 14 8s-.059-2.17-.143-3.015c-.133-1.339-.2-2.008-1.044-2.85s-1.512-.907-2.85-1.038a20 20 0 0 0-3.927 0c-1.337.13-2.005.196-2.849 1.038s-.91 1.511-1.044 2.85C2.059 5.829 2 6.835 2 8s.059 2.171.143 3.016c.134 1.338.2 2.007 1.044 2.848.844.842 1.512.908 2.848 1.039C6.636 14.962 7.297 15 8 15M3.5 8c0 1.115.056 2.071.135 2.867.072.717.112 1.047.194 1.307.057.181.144.356.418.629.273.273.448.36.629.416.26.082.589.12 1.305.19a18.6 18.6 0 0 0 3.638.001c.716-.07 1.045-.11 1.305-.19.18-.058.355-.144.63-.417.273-.273.36-.448.417-.629.082-.26.122-.59.194-1.307.079-.796.135-1.752.135-2.867a29 29 0 0 0-.135-2.866c-.072-.718-.112-1.048-.194-1.308-.057-.181-.144-.356-.418-.63-.274-.272-.448-.359-.629-.415-.26-.082-.59-.121-1.306-.191a18.6 18.6 0 0 0-3.636 0c-.717.07-1.046.109-1.306.19-.18.057-.356.144-.63.417-.273.273-.36.448-.417.629-.082.26-.122.59-.194 1.308A29 29 0 0 0 3.5 8"/></svg>