<svg xmlns="http://www.w3.org/2000/svg" viewBox="0 0 24 24"><path d="M9 7a1 1 0 0 1 1-1h4a1 1 0 1 1 0 2h-4a1 1 0 0 1-1-1m1 5.25a1.25 1.25 0 1 0 0-2.5 1.25 1.25 0 0 0 0 2.5"/><path fill-rule="evenodd" d="M4.168 16.056A47 47 0 0 1 4 12c0-1.549.068-2.901.168-4.054.175-2.025.263-3.038 1.557-4.327s2.265-1.37 4.207-1.532a25 25 0 0 1 4.137 0c1.941.162 2.912.242 4.206 1.532s1.382 2.302 1.557 4.327c.1 1.153.168 2.505.168 4.054s-.068 2.903-.168 4.056c-.175 2.024-.263 3.036-1.557 4.325s-2.264 1.37-4.205 1.532a25 25 0 0 1-4.14 0c-1.94-.161-2.911-.242-4.205-1.532-1.294-1.289-1.381-2.301-1.557-4.325M6 12c0 1.492.065 2.787.16 3.883.094 1.078.149 1.601.278 2.022.097.312.25.612.699 1.06.46.458.755.606 1.043.696.394.123.879.173 1.916.26a23 23 0 0 0 3.808 0c1.037-.087 1.523-.137 1.916-.26.288-.09.584-.238 1.043-.696.45-.448.602-.748.699-1.06.13-.42.184-.944.278-2.022.095-1.096.16-2.391.16-3.883 0-1.49-.065-2.785-.16-3.881-.094-1.079-.149-1.602-.278-2.023-.097-.313-.25-.613-.699-1.06-.46-.458-.755-.607-1.043-.697-.394-.122-.88-.173-1.917-.259a23 23 0 0 0-3.805 0c-1.038.086-1.524.137-1.918.26-.288.09-.584.238-1.043.696-.449.447-.602.747-.699 1.06-.13.42-.184.944-.278 2.023A45 45 0 0 0 6 12"/></svg>