<svg xmlns="http://www.w3.org/2000/svg" viewBox="0 0 16 16"><path fill-rule="evenodd" d="M13.998 5.92v.165q.003.127.002.263V8q0 .36-.007.702A2.25 2.25 0 0 0 9.75 9.748v.001h-.002a2.25 2.25 0 1 0 0 4.5h.002q.001.349.1.665a20 20 0 0 1-3.815-.011c-1.336-.131-2.004-.197-2.848-1.039s-.91-1.51-1.044-2.848A30 30 0 0 1 2 8c0-1.165.059-2.17.143-3.015.133-1.339.2-2.008 1.044-2.85s1.512-.907 2.85-1.038C6.636 1.038 7.297 1 8 1h.515c.397-.001.724-.008 1.08.197.33.19.96.73 2.197 1.929a21 21 0 0 1 1.928 2.12l.122.152c.091.108.13.277.147.483a.1.1 0 0 1 .009.04M9 3q0-.194.009-.385.134.103.358.299c.325.283.77.697 1.381 1.289.817.792 1.332 1.4 1.646 1.788Q12.198 6 12 6c-.69 0-1.378-.089-1.883-.175-.366-.062-.548-.093-.698-.244-.15-.15-.182-.332-.244-.698A11.6 11.6 0 0 1 9 3"/><path d="M15 12a.75.75 0 0 1-.75.75h-1.5v1.5a.75.75 0 0 1-1.5 0v-1.5H9.748a.75.75 0 0 1 0-1.5h1.502V9.749a.75.75 0 0 1 1.5 0v1.501h1.5A.75.75 0 0 1 15 12"/></svg>