<svg xmlns="http://www.w3.org/2000/svg" viewBox="0 0 16 16"><path d="M10.524 6.79a.75.75 0 1 0-1.04-1.08l-2.25 2.165-.71-.684a.75.75 0 1 0-1.04 1.08l1.23 1.186c.29.28.75.28 1.04 0z"/><path fill-rule="evenodd" d="M2.25 2a.75.75 0 0 0 0 1.5h.055c-.087.35-.129.748-.18 1.241A25 25 0 0 0 2 7.292c0 1.185.074 2.685.177 3.672l.008.08c.12 1.153.204 1.956.609 2.621.145.238.392.34.655.335.211-.004.432-.076.618-.2.636-.428 1.425-.851 1.686-.851.28 0 1.013.44 1.647.868a1.08 1.08 0 0 0 1.205-.001c.633-.427 1.37-.863 1.658-.863.266 0 1.043.42 1.672.845.194.131.427.204.647.202.251-.004.485-.106.624-.335.404-.664.49-1.469.609-2.621l.008-.08c.102-.987.177-2.487.177-3.672 0-.975-.05-1.825-.126-2.55-.05-.494-.092-.892-.18-1.242h.056a.75.75 0 0 0 0-1.5zm1.553 1.723a.8.8 0 0 1 .122-.223h8.15a1 1 0 0 1 .122.223c.076.208.113.479.185 1.173.07.674.118 1.474.118 2.396 0 1.14-.073 2.588-.17 3.517a21 21 0 0 1-.17 1.37 10 10 0 0 0-.496-.281 6 6 0 0 0-.566-.265 2.3 2.3 0 0 0-.835-.18 2.3 2.3 0 0 0-.846.181c-.195.078-.39.175-.568.272a13 13 0 0 0-.847.51 13 13 0 0 0-.836-.508 6 6 0 0 0-.562-.273 2.3 2.3 0 0 0-.851-.186c-.375 0-.707.13-.837.18a6 6 0 0 0-.565.266 11 11 0 0 0-.51.288 21 21 0 0 1-.172-1.374 39 39 0 0 1-.17-3.517c0-.922.049-1.722.118-2.396.072-.694.11-.965.186-1.173"/></svg>