<svg xmlns="http://www.w3.org/2000/svg" viewBox="0 0 44 44"><path fill-rule="evenodd" d="M12.95 25.303a7 7 0 0 1-2.322-10.79C12.173 9.717 16.444 6 22 6s9.827 3.718 11.373 8.512a7 7 0 0 1-2.323 10.79q-.176.22-.346.424a28 28 0 0 1-2.658 2.756v.976c.327.124.623.315.942.625.767.744.826 1.255.945 2.276a10 10 0 0 1 0 2.282c-.119 1.021-.178 1.532-.945 2.276-.766.745-1.398.8-2.66.909-1.12.097-2.564.174-4.328.174s-3.208-.077-4.328-.174c-1.262-.11-1.894-.164-2.66-.909-.767-.744-.826-1.254-.945-2.275a10 10 0 0 1 0-2.284c.119-1.021.178-1.531.945-2.276.319-.31.615-.5.942-.624v-.976a28 28 0 0 1-2.658-2.756q-.17-.204-.345-.423M22 29h3.046v-1.164a1.5 1.5 0 0 1 .545-1.194s.354-.292.886-.796l.01-.01A7 7 0 0 1 22 22.608a7 7 0 0 1-4.487 3.228l.01.01c.532.504.886.796.886.796a1.5 1.5 0 0 1 .546 1.194V29zm0 3a47 47 0 0 0-4.069.163c-.333.029-.541.047-.715.07l-.112.016-.018.13-.039.325a7 7 0 0 0 0 1.592l.057.455.112.016c.174.023.382.041.715.07A47 47 0 0 0 22 35c1.676 0 3.034-.073 4.068-.163.333-.029.542-.047.716-.07l.112-.016.018-.13.04-.326a7 7 0 0 0 0-1.59l-.04-.326-.018-.13-.112-.016a18 18 0 0 0-.716-.07A47 47 0 0 0 22 32m0-23c2.67 0 4.993 1.177 6.609 3.026A7 7 0 0 0 22 15.392a7 7 0 0 0-6.609-3.366C17.007 10.177 19.33 9 22 9m6.01 18.48.003.013-.001-.006-.006-.025c-.003-.013-.005-.02 0-.002v.001zM20 19a4 4 0 1 1-8 0 4 4 0 0 1 8 0m8 4a4 4 0 1 0 0-8 4 4 0 0 0 0 8"/></svg>