<svg xmlns="http://www.w3.org/2000/svg" viewBox="0 0 24 24"><path fill-rule="evenodd" d="M12 3C8.93 3 6.755 4.901 5.901 7.47A3.98 3.98 0 0 0 5 10c0 1.303.623 2.461 1.588 3.191.198.305.403.584.6.831.493.623.99 1.121 1.312 1.424v.271c.216-.074.46-.093.797-.12A35 35 0 0 1 12 15.5c1.14 0 2.042.045 2.703.097.337.027.58.046.797.12v-.271c.322-.303.819-.801 1.313-1.424.196-.247.401-.526.599-.83A4 4 0 0 0 19 10c0-.96-.338-1.84-.901-2.53C17.245 4.902 15.069 3 12 3m-3 9a2 2 0 1 0 0-4 2 2 0 0 0 0 4m8-2a2 2 0 1 1-4 0 2 2 0 0 1 4 0m-7.703 7.097A35 35 0 0 1 12 17c1.14 0 2.042.045 2.703.097.606.048.909.071 1.294.435s.413.576.471 1.001a3.5 3.5 0 0 1 0 .934c-.058.425-.086.637-.471 1-.385.364-.688.388-1.294.436-.661.052-1.563.097-2.703.097s-2.042-.045-2.703-.097c-.606-.048-.909-.072-1.294-.435-.384-.364-.413-.576-.47-1a3.5 3.5 0 0 1 0-.936c.057-.424.086-.636.47-1 .385-.363.688-.387 1.294-.435"/></svg>