<svg xmlns="http://www.w3.org/2000/svg" viewBox="0 0 44 44"><path fill-rule="evenodd" d="M22 6c-5.556 0-9.827 3.718-11.372 8.512a7 7 0 0 0 2.323 10.79q.175.22.345.424a28 28 0 0 0 2.659 2.756v.376c.32-.08.69-.113 1.172-.156 1.18-.107 2.808-.2 4.873-.2s3.692.093 4.873.2c.48.043.852.076 1.172.156v-.376a28 28 0 0 0 2.659-2.756q.17-.204.345-.423a7 7 0 0 0 2.324-10.79C31.827 9.717 27.556 6 22 6m-6 17a4 4 0 1 0 0-8 4 4 0 0 0 0 8m16-4a4 4 0 1 1-8 0 4 4 0 0 1 8 0M17.085 30.693A58 58 0 0 1 22 30.5c2.09 0 3.73.09 4.915.192 1.032.088 1.548.132 2.18.717.63.586.692.97.816 1.74a6.9 6.9 0 0 1-.001 2.202c-.123.77-.185 1.155-.816 1.74-.63.586-1.147.63-2.18.718A58 58 0 0 1 22 38c-2.09 0-3.731-.09-4.915-.19-1.032-.089-1.548-.133-2.179-.718-.63-.586-.692-.97-.816-1.739a7 7 0 0 1-.09-1.102c0-.391.035-.762.09-1.103.124-.769.186-1.153.816-1.739.63-.585 1.147-.63 2.179-.717"/></svg>