<svg xmlns="http://www.w3.org/2000/svg" viewBox="0 0 16 16"><path fill-rule="evenodd" d="M4.86 9.353a2.751 2.751 0 0 1-.675-4.864C4.83 3.037 6.17 2 8 2s3.169 1.037 3.815 2.489a2.751 2.751 0 0 1-.676 4.864c-.3.41-.6.745-.798.954v.31c.249.031.41.08.602.254.245.223.276.382.34.7a3.5 3.5 0 0 1 0 1.358c-.064.318-.095.477-.34.7s-.441.241-.833.28A22 22 0 0 1 8 14c-.927 0-1.623-.043-2.11-.091-.392-.039-.588-.058-.833-.28s-.276-.381-.34-.7a3.5 3.5 0 0 1-.067-.679c0-.247.028-.477.068-.68.063-.318.094-.477.34-.699.19-.173.352-.223.601-.255v-.309a10 10 0 0 1-.799-.954M8 3.5c.647 0 1.215.204 1.664.563A2.75 2.75 0 0 0 8 5.168a2.75 2.75 0 0 0-1.664-1.105A2.62 2.62 0 0 1 8 3.5M6.774 9.303c.497-.2.922-.54 1.226-.971.304.431.73.772 1.226.971-.09.093-.146.147-.151.153a.76.76 0 0 0-.234.53v.504H7.159v-.504a.76.76 0 0 0-.234-.53 5 5 0 0 1-.151-.153M7 6.75a1.25 1.25 0 1 1-2.5 0 1.25 1.25 0 0 1 2.5 0M10.25 8a1.25 1.25 0 1 0 0-2.5 1.25 1.25 0 0 0 0 2.5M8 12c-.803 0-1.41.034-1.842.073a2 2 0 0 0 0 .354c.431.039 1.04.073 1.842.073s1.41-.034 1.841-.073a2 2 0 0 0 0-.354A21 21 0 0 0 8 12"/></svg>