<svg xmlns="http://www.w3.org/2000/svg" viewBox="0 0 32 32"><path d="M19.75 13.399c0 .718-.56 1.3-1.25 1.3h-5c-.69 0-1.25-.582-1.25-1.3s.56-1.3 1.25-1.3h5c.69 0 1.25.582 1.25 1.3m-1.25 5.2c0 .717-.56 1.3-1.25 1.3h-2.5c-.69 0-1.25-.583-1.25-1.3s.56-1.3 1.25-1.3h2.5c.69 0 1.25.582 1.25 1.3"/><path fill-rule="evenodd" d="M6.21 21.272A63 63 0 0 1 6 16c0-2.014.084-3.772.21-5.27.22-2.633.33-3.95 1.947-5.626s2.83-1.78 5.258-1.991A30 30 0 0 1 16 3c.908 0 1.775.043 2.586.113 2.426.21 3.64.315 5.257 1.991 1.618 1.677 1.728 2.993 1.947 5.626A63 63 0 0 1 26 16c0 2.015-.085 3.773-.21 5.272-.22 2.631-.33 3.947-1.947 5.623s-2.83 1.781-5.255 1.992c-.811.07-1.68.113-2.588.113s-1.777-.043-2.588-.113c-2.426-.21-3.638-.316-5.256-1.992C6.54 25.22 6.43 23.903 6.21 21.272m2.49-.225A61 61 0 0 1 8.5 16c0-1.938.081-3.621.2-5.045.117-1.403.186-2.084.348-2.63.12-.407.312-.797.873-1.379.574-.595.944-.788 1.305-.905.492-.16 1.1-.225 2.396-.337A28 28 0 0 1 16 5.6c.833 0 1.63.04 2.378.104 1.297.112 1.904.178 2.396.337.36.117.73.31 1.305.905.561.582.753.972.873 1.378.162.547.23 1.228.348 2.63.119 1.425.2 3.108.2 5.046 0 1.94-.081 3.622-.2 5.047-.117 1.402-.186 2.082-.348 2.629-.12.406-.312.796-.873 1.378-.574.595-.944.788-1.304.904-.492.16-1.099.225-2.395.338a27.5 27.5 0 0 1-4.76 0c-1.296-.113-1.903-.178-2.395-.338-.36-.116-.73-.31-1.304-.904-.561-.582-.753-.972-.873-1.378-.162-.547-.23-1.227-.348-2.63"/></svg>