<svg xmlns="http://www.w3.org/2000/svg" viewBox="0 0 32 32"><path fill-rule="evenodd" d="M6.21 21.272A63 63 0 0 1 6 16c0-2.014.084-3.772.21-5.27.22-2.633.33-3.95 1.947-5.626s2.83-1.78 5.258-1.991A30 30 0 0 1 16 3c.908 0 1.775.043 2.586.113 2.426.21 3.64.315 5.257 1.991 1.618 1.677 1.728 2.993 1.947 5.626A63 63 0 0 1 26 16c0 2.015-.085 3.773-.21 5.272-.22 2.631-.33 3.947-1.947 5.623s-2.83 1.781-5.255 1.992c-.811.07-1.68.113-2.588.113s-1.777-.043-2.588-.113c-2.426-.21-3.638-.316-5.256-1.992C6.54 25.22 6.43 23.903 6.21 21.272m13.54-7.873c0 .718-.56 1.3-1.25 1.3h-5c-.69 0-1.25-.582-1.25-1.3s.56-1.3 1.25-1.3h5c.69 0 1.25.582 1.25 1.3m-1.25 5.2c0 .717-.56 1.3-1.25 1.3h-2.5c-.69 0-1.25-.583-1.25-1.3s.56-1.3 1.25-1.3h2.5c.69 0 1.25.582 1.25 1.3"/></svg>