<svg xmlns="http://www.w3.org/2000/svg" viewBox="0 0 16 16"><path fill-rule="evenodd" d="M2.14 11.016A30 30 0 0 1 1.999 8c0-1.165.059-2.17.143-3.015.134-1.339.2-2.008 1.044-2.85s1.512-.907 2.85-1.038a20 20 0 0 1 3.925 0c1.337.13 2.005.196 2.849 1.038s.91 1.511 1.044 2.85c.085.844.143 1.85.143 3.015s-.058 2.171-.143 3.016c-.133 1.338-.2 2.007-1.044 2.848-.844.842-1.512.908-2.848 1.039A20 20 0 0 1 7.998 15c-.702 0-1.364-.038-1.965-.097-1.336-.131-2.004-.197-2.848-1.039s-.91-1.51-1.044-2.848M10 6.75a.75.75 0 0 1-.75.75H6.746a.75.75 0 1 1 0-1.5H9.25a.75.75 0 0 1 .75.75m-.5 3.004a.75.75 0 0 1-.75.75H7.246a.75.75 0 0 1 0-1.5h1.502a.75.75 0 0 1 .75.75"/></svg>