<svg xmlns="http://www.w3.org/2000/svg" viewBox="0 0 24 24"><path fill-rule="evenodd" d="m6.539 3.72 5-2.607a1 1 0 0 1 .922 0l5 2.607a1 1 0 0 1 .539.886V6.5c0 .532-.034 1.033-.085 1.487a3.19 3.19 0 0 1-1.614 2.442l1.688 11.425a1 1 0 0 1-1.761.781L12 17.678l-4.226 4.956a1 1 0 0 1-1.763-.78L7.7 10.43a3.19 3.19 0 0 1-1.615-2.442A13 13 0 0 1 6 6.5V4.606c0-.373.208-.714.539-.886M15.989 7H8.011q.019.4.06.764c.065.568.499 1.035 1.199 1.106.723.074 1.634.13 2.729.13s2.005-.056 2.729-.13c.7-.07 1.135-.538 1.199-1.107q.041-.363.06-.763M12 11c.893 0 1.677-.035 2.35-.088l.117.792L12 14.597l-2.467-2.893.117-.792A30 30 0 0 0 12 11m-3.501 7.702 2.187-2.565-1.541-1.806zm7.003 0-.646-4.372-1.542 1.807z"/></svg>