<svg xmlns="http://www.w3.org/2000/svg" viewBox="0 0 44 44"><path fill-rule="evenodd" d="m11.99 6.845 9.2-4.652a1.8 1.8 0 0 1 1.62 0l9.2 4.652A1.8 1.8 0 0 1 33 8.45v3.546c0 .93-.06 1.807-.15 2.604-.219 1.901-1.31 3.447-2.863 4.34l.002.013 2.5 20.363a1.5 1.5 0 0 1-2.596 1.195L22 31.879l-7.865 8.602a1.5 1.5 0 0 1-2.623-1.164l2.5-20.363.001-.013c-1.553-.892-2.644-2.437-2.862-4.338A23 23 0 0 1 11 11.997V8.45c0-.68.383-1.3.99-1.606M29.973 13H14.026q.036.659.106 1.261c.148 1.298 1.166 2.342 2.708 2.497 1.364.137 3.086.242 5.16.242s3.795-.105 5.16-.242c1.542-.155 2.56-1.2 2.709-2.498q.07-.601.105-1.26M22 20c1.985 0 3.675-.092 5.068-.22l.228 1.86L22 27.433l-5.296-5.792.228-1.86c1.393.127 3.083.219 5.068.219m-6.939 15.022 4.906-5.366-3.744-4.095zm13.878.002-1.162-9.464-3.745 4.096z"/></svg>