<svg xmlns="http://www.w3.org/2000/svg" viewBox="0 0 16 16"><path fill-rule="evenodd" d="M2 8c0 1.495.072 2.728.165 3.694.108 1.13.163 1.695.818 2.367s1.15.733 2.139.854a11.4 11.4 0 0 0 1.763.078 3.2 3.2 0 0 1-.275-.754c-.111-.485-.11-1.077-.11-1.489s-.001-1.004.11-1.49c.14-.611.455-1.14.905-1.612l.005-.128.005-.104c.035-.782.073-1.64.796-2.553.109-.137.247-.275.34-.364s.237-.22.38-.323a3.35 3.35 0 0 1 1.887-.666q-.04-.658-.093-1.204c-.108-1.13-.163-1.695-.818-2.368s-1.15-.732-2.14-.853A11 11 0 0 0 6.5 1c-.49 0-.952.033-1.377.085-.99.12-1.485.181-2.14.853-.655.673-.71 1.238-.818 2.368A39 39 0 0 0 2 8m3.002-3.75a.75.75 0 0 1 .75-.75H7.25a.75.75 0 0 1 0 1.5H5.752a.75.75 0 0 1-.75-.75"/><path fill-rule="evenodd" d="M9.007 10.356a11 11 0 0 1 .011-.766c.04-.844.06-1.266.479-1.796a3 3 0 0 1 .419-.4C10.464 7 10.812 7 11.506 7s1.043 0 1.59.394c.111.08.336.294.42.4.42.53.44.952.479 1.796a12 12 0 0 1 .01.774q.214.128.416.341c.579.607.579 1.086.579 2.045s0 1.438-.578 2.045c-.58.607-1.144.634-2.273.689a14 14 0 0 1-1.298 0c-1.13-.055-1.694-.082-2.272-.69C8 14.189 8 13.71 8 12.75s0-1.438.579-2.045c.14-.148.28-.261.428-.349m3.5-.322q-.002-.186-.01-.374a15 15 0 0 0-.03-.507c-.028-.341-.189-.632-.562-.648a10 10 0 0 0-.398-.005c-.183 0-.3 0-.399.005-.373.016-.534.307-.562.648a15 15 0 0 0-.04.88l.345-.017a14 14 0 0 1 1.298 0zM12.5 12.5a1 1 0 1 1-2 0 1 1 0 0 1 2 0"/></svg>