<svg xmlns="http://www.w3.org/2000/svg" viewBox="0 0 24 24"><path fill-rule="evenodd" d="M8.954 5.814c-.146 2.432.71 4.799 2.572 6.66 1.861 1.862 4.228 2.718 6.66 2.572-.332.687-.664 1.331-1.236 1.904a7 7 0 0 1-9.9-9.9c.573-.572 1.217-.904 1.904-1.236m2.027-.236c.113-1.007-.5-2.078-1.395-2.078q-.184 0-.382.063C7.9 3.988 6.673 4.599 5.636 5.636a9 9 0 0 0 12.728 12.728c1.037-1.037 1.648-2.263 2.073-3.568q.064-.199.063-.382c0-.895-1.072-1.508-2.078-1.395-1.996.224-3.952-.429-5.482-1.959s-2.183-3.486-1.959-5.482"/></svg>