<svg xmlns="http://www.w3.org/2000/svg" viewBox="0 0 16 16"><path d="M6.5 5.25a.75.75 0 1 0 0 1.5h.75V10a.75.75 0 0 0 1.5 0V6.75h.75a.75.75 0 0 0 0-1.5z"/><path fill-rule="evenodd" d="m11.016 13.351.093-.015.148-.025c.613-.1 1.277-.209 1.865-.567.49-.3.944-.77 1.226-1.27.337-.6.417-1.222.49-1.788l.016-.126c.087-.658.158-1.416.146-2.089a14 14 0 0 0-.143-1.604l-.015-.115c-.075-.553-.159-1.166-.518-1.777a3.74 3.74 0 0 0-1.301-1.274c-.618-.348-1.244-.42-1.81-.484l-.121-.014A27 27 0 0 0 8 2c-1.075 0-2.184.096-3.092.203l-.122.014c-.565.065-1.191.136-1.809.484a3.74 3.74 0 0 0-1.301 1.274c-.36.61-.443 1.224-.518 1.777l-.016.115A14 14 0 0 0 1 7.471c-.013.673.059 1.43.145 2.089l.017.126c.072.566.152 1.189.49 1.787a3.6 3.6 0 0 0 1.226 1.27c.588.36 1.252.468 1.865.568l.148.025.093.015c.15.025.234.04.298.052l.06.013a.5.5 0 0 1 .088.038c-.004-.002.005.002.05.034.053.037.121.088.244.18l.416.312.072.055c.25.19.66.504 1.151.633.418.11.856.11 1.273 0 .49-.13.902-.443 1.151-.633l.073-.055.416-.312c.122-.092.19-.143.243-.18.045-.032.055-.036.05-.034a.5.5 0 0 1 .089-.038l.06-.013c.063-.012.147-.027.298-.052M2.628 6.073c.091-.661.137-.991.34-1.336.159-.269.472-.576.744-.729.349-.196.69-.236 1.37-.316A26 26 0 0 1 8 3.5c.993 0 2.04.09 2.917.192.681.08 1.022.12 1.37.316.273.153.586.46.744.729.204.345.25.675.34 1.336.068.49.12.995.129 1.427.01.563-.05 1.234-.133 1.865-.09.69-.135 1.035-.326 1.372a2.14 2.14 0 0 1-.7.726c-.331.202-.714.266-1.479.393l-.092.016c-.287.047-.43.072-.568.115q-.183.06-.351.15a4 4 0 0 0-.475.331l-.416.312c-.344.258-.517.387-.706.437a1 1 0 0 1-.509 0c-.189-.05-.36-.179-.705-.437l-.416-.312a4 4 0 0 0-.475-.33 2 2 0 0 0-.351-.15 4 4 0 0 0-.568-.116l-.093-.016c-.765-.127-1.147-.191-1.478-.393a2.14 2.14 0 0 1-.7-.726c-.191-.337-.236-.682-.327-1.372C2.55 8.735 2.49 8.063 2.5 7.5c.008-.433.06-.938.128-1.427"/></svg>