<svg xmlns="http://www.w3.org/2000/svg" viewBox="0 0 44 44"><path d="M8.995 8.997c-2.334 2.334-2.507 4.66-2.853 9.31A50 50 0 0 0 5.998 22v8.89c0 3.351 0 5.027 1.041 6.069q.08.078.163.15L20 27.153v-4.44q0-.19.004-.386c.035-1.588.067-2.246.18-2.726.148-.625.738-1.187 1.356-1.338.542-.133 1.284-.178 2.96-.244a26 26 0 0 1 2 0c1.677.066 2.418.111 2.96.244.618.15 1.208.713 1.356 1.338.113.48.145 1.138.18 2.726q.004.195.004.386v4.334l5.652 10.173a3 3 0 0 0 .305-.262c1.041-1.042 1.041-2.718 1.041-6.07V22a50 50 0 0 0-.144-3.693c-.346-4.65-.52-6.976-2.853-9.31s-4.66-2.507-9.31-2.853A50 50 0 0 0 21.998 6c-1.244 0-2.487.054-3.693.144-4.65.346-6.976.52-9.31 2.853"/><path d="M22.513 29 10.96 37.985c.628.015 1.34.015 2.148.015h17.78c1.076 0 1.98 0 2.746-.035L28.653 29z"/></svg>