<svg xmlns="http://www.w3.org/2000/svg" viewBox="0 0 24 24"><path fill-rule="evenodd" d="M3.081 9.923c.195-2.616.292-3.924 1.605-5.237s2.62-1.41 5.237-1.605C10.6 3.031 11.3 3 12 3s1.399.03 2.077.081c2.616.195 3.924.292 5.237 1.605s1.41 2.62 1.605 5.237C20.969 10.6 21 11.3 21 12v5c0 1.886 0 2.828-.586 3.414S18.886 21 17 21H7c-1.886 0-2.828 0-3.414-.586S3 18.886 3 17v-5c0-.7.03-1.399.081-2.077m6.99-4.847A26 26 0 0 1 12 5c.642 0 1.292.028 1.929.076 2.75.204 3.265.318 3.97 1.024.707.706.82 1.22 1.025 3.971.048.637.076 1.287.076 1.929v5q0 .432-.002.76l-.979-1.957V13.57c0-.488-.025-.976-.064-1.437-.102-1.197-.152-1.796-.725-2.37s-1.137-.623-2.266-.721A11 11 0 0 0 14.02 9c-.319 0-.637.016-.945.043-1.128.098-1.693.147-2.266.72-.572.575-.623 1.174-.725 2.371-.039.46-.064.949-.064 1.437v1.895L5 18.979V12c0-.642.028-1.292.076-1.929.204-2.75.318-3.265 1.024-3.97.706-.707 1.22-.82 3.971-1.025M8.458 19h8.924l-1-2h-5.067zm4.79-7.964Q13.64 11 14.02 11c.25 0 .51.013.771.036.293.025.5.043.677.065.377.047.377.053.415.384l.01.092c.023.193.043.417.069.726.035.417.058.848.058 1.268V15h-4v-1.429c0-.42.022-.85.057-1.268a22 22 0 0 1 .08-.818c.037-.331.037-.337.414-.384.177-.022.385-.04.677-.066"/></svg>