<svg xmlns="http://www.w3.org/2000/svg" viewBox="0 0 32 32"><path fill-rule="evenodd" d="M4.106 13.23c.26-3.488.39-5.232 2.14-6.982s3.494-1.88 6.983-2.14A38 38 0 0 1 15.998 4c.933 0 1.865.04 2.77.108 3.488.26 5.232.39 6.982 2.14s1.88 3.494 2.14 6.982c.067.905.108 1.837.108 2.77v6.667c0 2.514 0 3.77-.781 4.552S25.179 28 22.665 28H9.331c-2.514 0-3.77 0-4.552-.781C4 26.438 4 25.181 4 22.667V16c-.001-.933.04-1.865.107-2.77m9.308-6.629a35 35 0 0 1 2.584-.101c.861 0 1.731.038 2.584.101 3.656.272 4.408.423 5.4 1.415s1.143 1.744 1.415 5.4c.063.853.101 1.723.101 2.584v6.667a85 85 0 0 1-.008 1.44l-1.492-3.143V18c0-.622-.032-1.243-.08-1.831-.132-1.596-.198-2.393-.966-3.161-.767-.768-1.518-.831-3.02-.956A14 14 0 0 0 18.749 12c-.399 0-.797.02-1.185.052-1.501.125-2.252.188-3.02.956-.767.768-.833 1.565-.965 3.16a22 22 0 0 0-.08 1.832v2.603l-6.84 4.81-.062-.01-.023-.143c-.07-.521-.075-1.265-.075-2.593V16c0-.861.038-1.731.101-2.584.272-3.656.423-4.408 1.415-5.4s1.744-1.143 5.4-1.415M10.88 25.5h11.785l.718-.001L21.96 22.5h-6.814zm6.891-10.957q.497-.042.977-.043.48.001.977.043c.388.033.667.056.905.085.233.028.361.054.436.074l.058.018a.6.6 0 0 1 .103.102 1 1 0 0 1 .027.086c.024.092.052.24.082.495.03.259.056.56.09.972.045.535.072 1.086.072 1.625v2h-5.5v-2c0-.539.028-1.09.072-1.625.034-.411.06-.713.09-.972.03-.255.058-.403.082-.495a1 1 0 0 1 .027-.086.6.6 0 0 1 .103-.102l.058-.018c.075-.02.203-.046.436-.074.238-.029.517-.053.905-.085"/></svg>