<svg xmlns="http://www.w3.org/2000/svg" viewBox="0 0 32 32"><path d="M6.246 6.248c-1.75 1.75-1.88 3.494-2.14 6.982A38 38 0 0 0 3.998 16v6.667c0 2.468 0 3.724.739 4.508l9.763-7.593v-2.94l.003-.298c.025-1.227.049-1.735.131-2.106.104-.468.521-.914.986-1.034.394-.103.934-.138 2.152-.188a18 18 0 0 1 1.456 0c1.218.05 1.758.085 2.152.188.465.12.882.566.986 1.034.082.371.105.879.13 2.106q.004.15.004.299v2.62l4.517 8.13q.105-.079.2-.174c.781-.781.781-2.038.781-4.552V16c0-.933-.04-1.865-.108-2.77-.26-3.488-.39-5.232-2.14-6.982s-3.494-1.88-6.982-2.14A38 38 0 0 0 15.998 4c-.933 0-1.865.04-2.77.108-3.488.26-5.231.39-6.982 2.14"/><path d="M16.106 21.5 7.76 27.99c.461.01.981.01 1.57.01h13.334c.698 0 1.3 0 1.82-.017L20.883 21.5z"/></svg>