<svg xmlns="http://www.w3.org/2000/svg" viewBox="0 0 24 24"><path fill-rule="evenodd" d="M4.724 19.716c1.454 1.454 2.18 2.181 3.072 2.268q.244.024.487 0c.845-.082 1.543-.74 2.854-2.05.61.041 1.236.066 1.862.066.93 0 1.861-.054 2.742-.137 2.35-.222 3.525-.333 4.657-1.465 1.131-1.131 1.242-2.306 1.464-4.657.083-.88.137-1.81.137-2.741v-.706c0-.58-.285-1.093-.731-1.463-.253-.21-.56-.32-.87-.331a1.4 1.4 0 0 0-1.007.371c-.523.482-.983.852-1.375 1.188-.696.597-1.044.896-1.849.93-.804.036-1.053-.142-1.551-.5a4.8 4.8 0 0 1-1.106-1.105c-.357-.498-.535-.747-.5-1.551.035-.805.334-1.153.93-1.849.337-.392.706-.852 1.187-1.375.246-.268.37-.608.373-.95a1.44 1.44 0 0 0-.332-.927c-.37-.447-.882-.731-1.463-.732H13c-.93 0-1.86.054-2.74.137-2.351.222-3.526.333-4.658 1.465C4.47 4.733 4.359 5.909 4.138 8.259A29 29 0 0 0 4 11c0 .627.025 1.253.066 1.864-1.308 1.31-1.966 2.008-2.05 2.853a2.5 2.5 0 0 0 0 .487c.088.892.815 1.619 2.27 3.073zm1.398-6.081-.641.642c-.679.68-1.068 1.084-1.31 1.4-.216.285-.188.329.037.614.284.36.729.81 1.49 1.572l.44.439c.761.762 1.21 1.206 1.571 1.49.285.225.33.254.614.037.317-.242.721-.631 1.4-1.31l.643-.641.906.06a26 26 0 0 0 1.727.062c.855 0 1.722-.05 2.554-.128 2.501-.236 2.893-.35 3.43-.888s.652-.93.888-3.43c.079-.832.128-1.699.128-2.554l-.74.628c-.296.254-.696.598-1.15.852-.578.324-1.178.478-1.854.508-.558.024-1.116-.016-1.683-.23-.48-.18-.862-.456-1.076-.61a9.4 9.4 0 0 1-1.644-1.644c-.154-.214-.43-.596-.61-1.076-.214-.567-.254-1.125-.23-1.683.03-.676.184-1.276.508-1.854.254-.454.598-.854.852-1.15L13 4c-.855 0-1.721.05-2.553.128-2.502.236-2.893.35-3.43.888-.539.538-.652.93-.888 3.43A27 27 0 0 0 5.999 11c0 .575.023 1.156.062 1.729z"/></svg>