<svg xmlns="http://www.w3.org/2000/svg" viewBox="0 0 32 32"><path fill-rule="evenodd" d="M4.073 13.131c.227-3.413.34-5.12 2.105-6.89C7.943 4.47 9.707 4.346 13.235 4.1A40 40 0 0 1 16 4c.931 0 1.862.038 2.765.101 3.528.246 5.292.369 7.057 2.14 1.765 1.77 1.878 3.477 2.105 6.89.046.697.073 1.408.073 2.12 0 .71-.027 1.421-.073 2.118-.227 3.414-.34 5.12-2.105 6.891-.368.37-.736.667-1.12.91L26.498 29h-2.762l-1.391-2.965c-.977.183-2.13.263-3.58.364A40 40 0 0 1 16 26.5a40 40 0 0 1-2.765-.1c-1.451-.102-2.604-.182-3.58-.365L8.262 29H5.5l1.798-3.83a6.4 6.4 0 0 1-1.12-.91c-1.765-1.77-1.878-3.477-2.105-6.891A32 32 0 0 1 4 15.25c0-.71.027-1.422.073-2.119M17.25 9v5.5h8.24q-.018-.602-.058-1.203c-.086-1.306-.16-2.23-.268-2.927A2.67 2.67 0 0 0 22.834 9zm-2.5 5.5V9H9.166a2.67 2.67 0 0 0-2.33 1.37c-.108.696-.182 1.62-.268 2.927q-.04.6-.057 1.203zm-2.75 6a2 2 0 1 1-4 0 2 2 0 0 1 4 0m10 2a2 2 0 1 0 0-4 2 2 0 0 0 0 4"/></svg>