<svg xmlns="http://www.w3.org/2000/svg" viewBox="0 0 24 24"><path d="M7.5 17a1.5 1.5 0 1 0 0-3 1.5 1.5 0 0 0 0 3M18 15.5a1.5 1.5 0 1 1-3 0 1.5 1.5 0 0 1 3 0"/><path fill-rule="evenodd" d="M4.64 4.68C3.317 6.006 3.23 7.29 3.058 9.858Q3 10.67 3 11.5c0 .551.021 1.103.058 1.643.173 2.567.26 3.85 1.582 5.177.255.256.51.466.775.64L4 22h2.206l1.09-2.34c.72.13 1.569.19 2.63.264.677.047 1.376.076 2.074.076s1.397-.029 2.074-.076c1.062-.075 1.91-.134 2.632-.265L17.796 22H20l-1.415-3.041a5 5 0 0 0 .774-.64c1.323-1.325 1.41-2.61 1.582-5.176.037-.54.058-1.092.058-1.643s-.021-1.103-.058-1.642c-.173-2.568-.26-3.852-1.582-5.178-1.322-1.325-2.643-1.418-5.286-1.604A30 30 0 0 0 12 3c-.698 0-1.397.029-2.074.076-2.643.186-3.964.279-5.286 1.604M17 7a2 2 0 0 1 1.785 1.097c.06.477.107 1.087.162 1.895q.034.503.047 1.008H13V7zM5.215 8.097c-.06.477-.107 1.087-.162 1.895q-.034.503-.047 1.008H11V7H7a2 2 0 0 0-1.785 1.097m-.162 4.91V13h13.894v.008c-.181 2.688-.287 3.182-1.003 3.9-.71.712-1.23.825-4.01 1.02-.639.045-1.29.072-1.934.072s-1.295-.027-1.934-.071c-2.78-.195-3.3-.309-4.01-1.022-.716-.717-.822-1.212-1.003-3.9"/></svg>