<svg xmlns="http://www.w3.org/2000/svg" viewBox="0 0 24 24"><path fill-rule="evenodd" d="M3.058 9.858c.173-2.568.26-3.852 1.582-5.178 1.322-1.325 2.643-1.418 5.286-1.604A30 30 0 0 1 12 3c.698 0 1.397.029 2.074.076 2.643.186 3.964.279 5.286 1.604 1.323 1.326 1.41 2.61 1.582 5.178Q21 10.67 21 11.5c0 .551-.021 1.103-.058 1.643-.173 2.567-.26 3.85-1.582 5.177-.255.255-.51.465-.774.639L20 22h-2.206l-1.09-2.341c-.72.13-1.57.19-2.631.265-.677.047-1.376.076-2.074.076s-1.397-.029-2.074-.076c-1.061-.075-1.91-.134-2.63-.265L6.206 22H4l1.415-3.04a5 5 0 0 1-.775-.64c-1.323-1.326-1.41-2.61-1.582-5.177A25 25 0 0 1 3 11.5c0-.551.021-1.103.058-1.642m15.727-1.76A2 2 0 0 0 17 7h-4v4h5.994a24 24 0 0 0-.047-1.008 36 36 0 0 0-.162-1.895M5.053 9.991c.055-.808.102-1.418.162-1.895A2 2 0 0 1 7 7h4v4H5.006q.013-.505.047-1.008M9 15.5a1.5 1.5 0 1 1-3 0 1.5 1.5 0 0 1 3 0m7.5 1.5a1.5 1.5 0 1 0 0-3 1.5 1.5 0 0 0 0 3"/></svg>