<svg xmlns="http://www.w3.org/2000/svg" viewBox="0 0 44 44"><path fill-rule="evenodd" d="M6.077 18.508c.277-4.674.416-7.011 2.864-9.47s4.866-2.615 9.705-2.926C19.746 6.042 20.873 6 22 6s2.255.042 3.354.112c4.839.31 7.258.466 9.705 2.925 2.448 2.46 2.587 4.797 2.864 9.471.05.822.077 1.657.077 2.492s-.028 1.67-.077 2.492c-.277 4.674-.416 7.011-2.864 9.47a8.7 8.7 0 0 1-1.76 1.39L35.995 40h-3.324l-2.21-4.625c-1.383.274-3.02.379-5.108.513-1.1.07-2.227.112-3.354.112s-2.255-.042-3.354-.112c-2.09-.134-3.728-.24-5.112-.514L11.321 40H7.995l2.704-5.65a8.7 8.7 0 0 1-1.758-1.387c-2.448-2.46-2.587-4.797-2.864-9.471A42 42 0 0 1 6 21c0-.835.028-1.67.077-2.492m3.277-3.416c-.113.919-.192 2.075-.283 3.594q-.039.656-.057 1.314H20.5v-7h-7.833a3.67 3.67 0 0 0-3.313 2.092M23.5 20v-7h7.833c1.462 0 2.724.855 3.313 2.092.113.919.192 2.075.283 3.594q.039.656.057 1.314zm-6.75 8a2.75 2.75 0 1 1-5.5 0 2.75 2.75 0 0 1 5.5 0M30 30.75a2.75 2.75 0 1 0 0-5.5 2.75 2.75 0 0 0 0 5.5"/></svg>