<svg xmlns="http://www.w3.org/2000/svg" viewBox="0 0 16 16"><path d="M7.25 10.25a.75.75 0 0 0 1.5 0V7.39l.39.546a.75.75 0 1 0 1.22-.871L9.402 5.72a1.722 1.722 0 0 0-2.801 0l-.96 1.344a.75.75 0 1 0 1.22.871l.39-.545z"/><path fill-rule="evenodd" d="M13.946 9.39c-.13 1.742-.195 2.613-1.069 3.487s-1.745.94-3.488 1.07C8.936 13.98 8.468 14 8 14s-.935-.021-1.389-.055c-1.742-.13-2.613-.195-3.488-1.069-.874-.874-.939-1.745-1.069-3.488A19 19 0 0 1 2 8c0-.468.02-.935.054-1.389.13-1.742.195-2.613 1.07-3.488.874-.874 1.745-.939 3.487-1.069.454-.033.921-.054 1.39-.054.467 0 .935.02 1.388.054 1.743.13 2.614.195 3.488 1.07.874.874.94 1.745 1.07 3.487.033.454.054.921.054 1.39 0 .467-.021.935-.055 1.388m-4.668 3.06c-.423.032-.853.05-1.278.05-.424 0-.855-.018-1.277-.05-1.843-.137-2.12-.214-2.539-.634-.42-.419-.496-.695-.634-2.538C3.52 8.855 3.5 8.425 3.5 8s.019-.855.05-1.277c.138-1.843.215-2.12.634-2.539s.696-.496 2.539-.634c.422-.03.853-.05 1.277-.05.425 0 .855.019 1.278.05 1.843.138 2.12.215 2.538.634.42.42.497.696.634 2.539.032.422.05.853.05 1.277 0 .425-.018.855-.05 1.278-.137 1.843-.214 2.12-.634 2.538-.419.42-.695.497-2.538.634"/></svg>