<svg xmlns="http://www.w3.org/2000/svg" viewBox="0 0 24 24"><path d="M5.173 12.772c.13.13.269.14.547.163.4.032.995.065 1.78.065.784 0 1.38-.033 1.78-.065.278-.023.418-.034.547-.163.13-.13.14-.25.161-.492a3.3 3.3 0 0 0 0-.56c-.02-.242-.03-.363-.16-.492-.13-.13-.27-.14-.548-.163A22 22 0 0 0 7.5 11c-.785 0-1.38.032-1.78.065-.278.022-.418.034-.547.163-.13.13-.14.25-.161.492a3.3 3.3 0 0 0 0 .56c.02.242.03.363.16.492m9.548.163c-.278-.023-.418-.034-.548-.163-.13-.13-.14-.25-.16-.492a3.3 3.3 0 0 1 0-.56c.02-.242.03-.363.16-.492.13-.13.27-.14.548-.163q.317-.027.798-.047.02-.48.047-.798c.022-.279.034-.418.163-.548.13-.13.25-.14.492-.16a3.3 3.3 0 0 1 .56 0c.242.02.362.03.492.16s.14.27.163.548q.026.317.047.798.48.02.798.047c.278.022.418.034.547.163.13.13.14.25.161.492a3.3 3.3 0 0 1 0 .56c-.02.242-.03.362-.16.492s-.27.14-.548.163q-.317.027-.798.047-.02.48-.047.798c-.023.278-.034.418-.163.547-.13.13-.25.14-.492.161a3.3 3.3 0 0 1-.56 0c-.242-.02-.363-.03-.492-.16-.13-.13-.14-.27-.163-.548a19 19 0 0 1-.047-.798q-.48-.02-.798-.047"/><path fill-rule="evenodd" d="M6.295 3.807c-.177.187-.197.392-.236.8a13 13 0 0 0-.051.75l-.239.031c-1.195.164-1.792.246-2.497.927-.706.682-.8 1.232-.99 2.333C2.122 9.575 2 10.708 2 12s.123 2.425.282 3.352c.19 1.1.284 1.65.99 2.332.705.682 1.303.764 2.497.928C7.256 18.816 9.336 19 12 19s4.745-.184 6.231-.388c1.194-.164 1.791-.246 2.497-.927.705-.682.8-1.232.99-2.332.16-.927.282-2.06.282-3.353s-.123-2.427-.283-3.353c-.19-1.1-.284-1.65-.99-2.332-.705-.681-1.302-.763-2.496-.927l-.239-.032c-.01-.266-.03-.522-.051-.748-.04-.41-.059-.614-.236-.801s-.355-.214-.71-.268a3 3 0 0 0-.495-.04c-.169 0-.337.016-.495.04-.355.054-.532.08-.71.268-.177.187-.197.392-.236.8a14 14 0 0 0-.037.477A53 53 0 0 0 12 5c-1.108 0-2.116.032-3.022.084q-.015-.253-.037-.476c-.04-.41-.059-.614-.236-.801-.178-.187-.355-.214-.71-.268a3 3 0 0 0-.495-.04c-.169 0-.337.016-.495.04-.355.054-.532.08-.71.268M6.041 7.37c-.655.09-.904.13-1.084.189-.083.027-.149.053-.295.195-.162.156-.186.22-.205.272l-.001.003c-.02.054-.048.143-.083.306-.036.169-.07.366-.12.652A18 18 0 0 0 4 12c0 1.166.11 2.185.253 3.012.05.287.084.484.12.653.035.163.062.252.083.306v.003c.02.052.044.116.206.272.146.142.212.168.295.195.18.059.429.1 1.084.19C7.439 16.821 9.429 17 12 17c2.572 0 4.561-.178 5.96-.37.654-.09.903-.13 1.083-.19.082-.026.148-.052.295-.194.161-.156.185-.22.205-.272l.001-.003c.02-.054.048-.143.082-.305.037-.17.071-.367.12-.653A18 18 0 0 0 20 12a18 18 0 0 0-.254-3.013 16 16 0 0 0-.12-.653 2 2 0 0 0-.082-.305l-.001-.003c-.02-.052-.044-.117-.205-.272-.147-.142-.213-.168-.295-.195-.18-.059-.429-.1-1.083-.19C16.562 7.179 14.572 7 12 7s-4.561.179-5.96.37"/></svg>