<svg xmlns="http://www.w3.org/2000/svg" viewBox="0 0 44 44"><path fill-rule="evenodd" d="M11.534 8.055c-.32.337-.356.705-.428 1.443-.037.381-.07.807-.09 1.25-1.695.247-2.662.488-3.79 1.591-1.273 1.244-1.435 2.247-1.759 4.254A37 37 0 0 0 5 22.5c0 2.272.202 4.267.467 5.907.324 2.007.486 3.01 1.758 4.254s2.34 1.391 4.475 1.687c2.505.348 5.944.652 10.3.652s7.796-.305 10.301-.652c2.134-.296 3.201-.444 4.473-1.687s1.434-2.246 1.758-4.251c.266-1.64.468-3.637.468-5.91s-.203-4.27-.468-5.91c-.324-2.005-.486-3.008-1.758-4.25-1.129-1.104-2.096-1.345-3.79-1.592a23 23 0 0 0-.09-1.25c-.072-.738-.108-1.106-.428-1.443s-.644-.385-1.292-.482a6 6 0 0 0-.924-.073c-.315 0-.63.03-.924.073-.648.097-.972.145-1.292.482s-.356.705-.428 1.443q-.032.321-.057.678A85 85 0 0 0 22 10a85 85 0 0 0-5.549.176 25 25 0 0 0-.057-.678c-.072-.738-.108-1.106-.428-1.443s-.644-.385-1.292-.482a6 6 0 0 0-.924-.073c-.315 0-.63.03-.924.073-.648.097-.972.145-1.292.482m-.747 15.557c.239.238.481.255.967.288.719.05 1.805.1 3.244.1 1.438 0 2.525-.05 3.244-.1.486-.034.729-.05.967-.288s.252-.433.279-.823a4 4 0 0 0 0-.578c-.027-.39-.041-.585-.28-.823-.237-.238-.48-.254-.966-.288-.719-.05-1.806-.1-3.244-.1s-2.525.05-3.244.1c-.486.034-.728.05-.967.288-.238.238-.252.433-.279.823a4 4 0 0 0 0 .578c.028.39.041.585.28.823m15.469.288c-.486-.033-.728-.05-.967-.288-.238-.238-.252-.433-.279-.823a4 4 0 0 1 0-.578c.027-.39.041-.585.28-.823.238-.238.48-.254.966-.288.447-.03 1.036-.062 1.763-.081.02-.727.05-1.316.081-1.763.033-.486.05-.728.288-.967.238-.238.433-.252.823-.279a4 4 0 0 1 .578 0c.39.027.585.041.823.28.238.238.254.48.288.966.03.447.062 1.036.081 1.763.727.02 1.316.05 1.763.081.486.034.728.05.967.288.238.238.252.433.279.823a4 4 0 0 1 0 .578c-.027.39-.041.585-.28.823-.238.238-.48.255-.966.288-.447.03-1.036.062-1.763.081-.02.727-.05 1.316-.081 1.763-.034.486-.05.728-.288.967-.238.238-.433.252-.823.279a4 4 0 0 1-.578 0c-.39-.027-.585-.041-.823-.28-.238-.238-.255-.48-.288-.966a42 42 0 0 1-.081-1.763 42 42 0 0 1-1.763-.081"/></svg>