<svg xmlns="http://www.w3.org/2000/svg" viewBox="0 0 32 32"><path d="M8.22 16.869c.17.169.35.183.71.21.519.041 1.296.082 2.319.082s1.8-.04 2.32-.081c.36-.028.54-.042.709-.211.17-.17.182-.323.208-.63a4 4 0 0 0 0-.655c-.026-.307-.039-.461-.208-.63-.17-.169-.35-.183-.71-.211a30 30 0 0 0-2.32-.082c-1.022 0-1.8.041-2.318.082-.36.028-.54.042-.71.21-.17.17-.182.324-.208.631a4 4 0 0 0 0 .654c.026.308.039.462.208.63m10.21.302c-.36-.029-.54-.043-.709-.212-.17-.168-.182-.322-.207-.63a4 4 0 0 1 0-.654c.025-.308.038-.462.207-.63.17-.17.35-.183.71-.212q.43-.035 1.09-.06.026-.66.06-1.09c.029-.36.043-.54.212-.71s.322-.182.63-.208a4 4 0 0 1 .654 0c.308.026.462.039.63.208.17.17.183.35.211.71q.036.43.061 1.09.66.026 1.09.06c.36.029.54.043.71.212s.182.322.207.63a4 4 0 0 1 0 .654c-.025.308-.038.462-.207.63-.17.17-.35.183-.71.211q-.43.036-1.09.06-.025.662-.06 1.091c-.029.36-.043.54-.212.71s-.322.182-.63.207a4 4 0 0 1-.654 0c-.308-.025-.462-.038-.63-.207-.17-.17-.183-.35-.212-.71a26 26 0 0 1-.06-1.09q-.66-.026-1.09-.06"/><path fill-rule="evenodd" d="M9.07 6.937c.053-.534.08-.8.314-1.044.234-.243.473-.277.95-.343.212-.03.44-.05.666-.05s.454.02.666.05c.477.066.716.1.95.343s.26.51.314 1.044q.03.297.05.63Q14.373 7.5 16 7.5q1.626.002 3.02.066.02-.332.05-.629c.053-.534.08-.8.314-1.044.234-.243.473-.277.95-.343.212-.03.44-.05.666-.05s.454.02.666.05c.477.066.716.1.95.343s.26.51.314 1.044c.028.29.053.613.064.947q.34.04.654.082c1.548.207 2.322.31 3.245 1.205.923.894 1.041 1.605 1.277 3.027.188 1.132.33 2.5.33 4.052s-.142 2.92-.33 4.052c-.236 1.422-.354 2.133-1.277 3.027s-1.697.998-3.245 1.205C21.8 24.78 19.246 25 16 25s-5.799-.219-7.647-.466c-1.549-.207-2.323-.31-3.247-1.205-.923-.894-1.04-1.606-1.277-3.029a25 25 0 0 1-.329-4.05c0-1.552.141-2.919.33-4.05.235-1.423.353-2.134 1.276-3.029.924-.894 1.698-.998 3.247-1.205q.313-.042.653-.082c.011-.334.036-.657.064-.947M16 22.5c3.134 0 5.576-.211 7.316-.444.847-.113 1.175-.166 1.415-.244.117-.038.216-.079.422-.278.23-.222.265-.317.294-.395.072-.194.127-.462.257-1.247.168-1.011.296-2.241.296-3.642s-.128-2.63-.296-3.642c-.13-.785-.185-1.053-.257-1.247-.029-.077-.065-.173-.294-.395-.206-.2-.305-.24-.422-.278-.24-.078-.568-.13-1.415-.244C21.576 10.211 19.134 10 16 10s-5.576.211-7.316.444c-.847.113-1.175.166-1.415.244-.118.038-.217.079-.423.278-.229.222-.265.318-.293.395-.073.194-.127.463-.257 1.248A22.3 22.3 0 0 0 6 16.25c0 1.4.128 2.63.296 3.641.13.785.184 1.054.257 1.248.028.078.064.173.293.395.206.2.305.24.423.278.24.078.568.13 1.415.244 1.74.233 4.183.444 7.316.444"/></svg>