<svg xmlns="http://www.w3.org/2000/svg" viewBox="0 0 24 24"><path fill-rule="evenodd" d="M7.945 4.168C9.097 4.068 10.45 4 11.999 4s2.902.068 4.054.168c2.025.175 3.038.263 4.327 1.557.779.781 1.117 1.445 1.298 2.275H2.32c.182-.83.52-1.494 1.298-2.275C4.91 4.431 5.92 4.343 7.945 4.168M2.08 10h19.837a25 25 0 0 1-.006 4.068c-.162 1.941-.242 2.912-1.532 4.206-1.289 1.294-2.302 1.382-4.326 1.558-1.153.1-2.505.167-4.054.167s-2.903-.067-4.056-.167c-2.024-.176-3.036-.264-4.325-1.558-1.29-1.293-1.37-2.264-1.532-4.204A25 25 0 0 1 2.081 10m16.167 4a1.25 1.25 0 1 1-2.5 0 1.25 1.25 0 0 1 2.5 0"/></svg>