<svg xmlns="http://www.w3.org/2000/svg" viewBox="0 0 28 28"><path stroke="#1D2023" stroke-linecap="square" stroke-width="2" d="M9.213 6.185A59 59 0 0 1 13.996 6c1.831 0 3.426.075 4.781.185 1.262.102 2.063.172 2.747.38.63.192 1.188.513 1.87 1.198.449.452.745.844.948 1.237H3.65c.203-.393.499-.785.948-1.237.682-.685 1.24-1.006 1.869-1.197.684-.208 1.485-.278 2.745-.381ZM2.996 14q0-.51.02-1h21.96a25 25 0 0 1-.052 2.899c-.089 1.166-.149 1.89-.346 2.522-.18.58-.494 1.12-1.185 1.816-.681.685-1.24 1.005-1.868 1.197-.685.208-1.486.278-2.747.38-1.356.11-2.95.186-4.782.186s-3.427-.075-4.783-.186c-1.26-.102-2.061-.172-2.745-.38-.63-.192-1.187-.512-1.869-1.197-.69-.695-1.004-1.236-1.185-1.816-.197-.63-.257-1.355-.345-2.52A25 25 0 0 1 2.996 14ZM19.5 19a2.5 2.5 0 1 0 0-5 2.5 2.5 0 0 0 0 5Z"/></svg>