<svg xmlns="http://www.w3.org/2000/svg" viewBox="0 0 28 28"><path d="M19.504 18a1.5 1.5 0 1 0 0-3 1.5 1.5 0 0 0 0 3"/><path fill-rule="evenodd" d="M9.136 5.189A60 60 0 0 1 14 5c1.858 0 3.48.076 4.863.188 2.454.2 3.682.3 5.243 1.87s1.647 2.703 1.819 4.968a26 26 0 0 1 0 3.948c-.172 2.265-.257 3.398-1.819 4.968-1.56 1.57-2.788 1.67-5.243 1.87A60 60 0 0 1 14 23a60 60 0 0 1-4.864-.189c-2.454-.2-3.68-.299-5.242-1.869s-1.647-2.702-1.818-4.965a26 26 0 0 1 0-3.953c.171-2.264.257-3.396 1.818-4.966s2.788-1.67 5.242-1.87M14 7c-1.804 0-3.372.074-4.702.182-1.294.105-1.976.17-2.535.34-.45.137-.869.36-1.45.946-.602.605-.816 1.012-.94 1.409q-.02.06-.036.123h19.326l-.035-.123c-.124-.397-.338-.804-.94-1.409-.582-.585-1.001-.809-1.45-.945-.56-.17-1.243-.236-2.538-.341A58 58 0 0 0 14 7m-9.93 5.175L4.083 12h19.834l.013.177a24 24 0 0 1 0 3.646c-.09 1.2-.146 1.8-.302 2.3-.124.397-.338.804-.94 1.409-.582.585-1.001.808-1.45.945-.56.17-1.243.236-2.537.341-1.33.108-2.897.182-4.701.182s-3.372-.074-4.702-.182c-1.294-.105-1.976-.17-2.535-.34-.45-.138-.869-.36-1.45-.946-.602-.605-.816-1.012-.94-1.409-.156-.5-.212-1.098-.303-2.298a24 24 0 0 1 0-3.65"/></svg>