<svg xmlns="http://www.w3.org/2000/svg" viewBox="0 0 16 16"><path fill-rule="evenodd" d="M4.783 3.136A36 36 0 0 1 8 3c1.259 0 2.332.057 3.216.136 1.3.117 1.951.176 2.751.972.56.556.755 1.013.861 1.642H1.172c.106-.63.301-1.086.86-1.642.801-.796 1.451-.855 2.751-.972M1.021 7.25h13.958a14 14 0 0 1-.042 2.07c-.113 1.184-.17 1.776-.97 2.572s-1.45.855-2.751.972A36 36 0 0 1 8 13c-1.26 0-2.332-.057-3.217-.136-1.3-.117-1.95-.176-2.75-.972-.8-.795-.857-1.387-.97-2.57a14 14 0 0 1-.042-2.072m10.981 1.9a.901.901 0 1 1-1.802 0 .901.901 0 0 1 1.802 0"/></svg>