<svg xmlns="http://www.w3.org/2000/svg" viewBox="0 0 16 16"><path d="M9.721 2.745c.544-.47.816-.705 1.252-.74s.68.116 1.167.417c.279.173.563.382.81.628.246.247.455.53.628.81.301.487.452.73.417 1.166s-.27.708-.74 1.252c-.238.274-.509.584-.8.912L8.809 3.545c.327-.291.637-.562.912-.8m-2.024 1.81c-.37.344-.736.694-1.075 1.034-1 1-2.092 2.228-2.845 3.098a8 8 0 0 0-.483.592c-.216.271-.37.777-.603 1.554L2.339 12c-.316 1.048-.474 1.572-.192 1.854s.806.124 1.855-.192l1.165-.351c.818-.247 1.336-.403 1.596-.638a9 9 0 0 0 .548-.452c.87-.753 2.1-1.844 3.1-2.844.339-.34.69-.705 1.033-1.075z"/></svg>