<svg xmlns="http://www.w3.org/2000/svg" viewBox="0 0 44 44"><path fill-rule="evenodd" d="m14.882 35.725-4.37 1.543c-2.567.905-3.85 1.358-4.518.69-.669-.669-.216-1.952.69-4.518l2.155-6.105c1-2 6.098-7.513 8.699-10.114a196 196 0 0 1 5.375-5.186l9.014 9.013a219 219 0 0 1-5.197 5.366c-2.014 2.014-6.128 5.521-8.666 7.564-.651.525-.977.787-1.422 1.035s-.883.402-1.76.712m19.074-16.89a111 111 0 0 0 2.6-2.988c.708-.846 1.062-1.269 1.193-2.085.13-.817-.027-1.211-.341-2-.392-.982-1.021-2.134-2.02-3.134-1.02-1.019-2.196-1.652-3.19-2.042-.77-.303-1.156-.454-1.96-.327-.804.126-1.217.464-2.044 1.14a99 99 0 0 0-3.057 2.617z"/></svg>