<svg xmlns="http://www.w3.org/2000/svg" viewBox="0 0 24 24"><path d="M14.603 4.117c.815-.705 1.222-1.057 1.876-1.11.654-.052 1.018.173 1.747.623.416.257.84.569 1.207.936s.68.791.936 1.207c.45.729.676 1.093.624 1.747-.053.653-.405 1.06-1.11 1.875-.36.415-.77.885-1.212 1.38L13.22 5.33c.497-.442.967-.853 1.382-1.212m-2.864 2.557A66 66 0 0 0 9.946 8.39c-1.502 1.502-3.144 3.348-4.275 4.655-.304.352-.543.628-.72.88-.325.407-.555 1.164-.909 2.327l-.527 1.736c-.48 1.578-.72 2.367-.295 2.791.424.424 1.213.185 2.791-.295l1.738-.527c1.231-.374 2.008-.61 2.395-.967.233-.17.489-.392.807-.667 1.307-1.13 3.154-2.772 4.657-4.274a65 65 0 0 0 1.716-1.79z"/></svg>