<svg xmlns="http://www.w3.org/2000/svg" viewBox="0 0 32 32"><path fill-rule="evenodd" d="M4 4h12c3.356 0 5.034 0 6.852 1.015.79.44 1.844 1.344 2.4 2.055 1.284 1.64 1.583 3.557 2.18 7.392.332 2.127.568 4.473.568 6.871 0 1.085 0 1.627-.105 2.075a4 4 0 0 1-2.987 2.987c-.448.105-.99.105-2.073.105h-8.303a4.5 4.5 0 0 1-8.064 0H4zm2.5 12h4.25c.69 0 1.25-.559 1.25-1.25v-4.5C12 9.56 11.44 9 10.75 9H6.5zm18.462-1.153A44 44 0 0 1 25.475 20h-.308a2.666 2.666 0 0 1-2.667-2.666v-5.668c0-.96.508-1.802 1.27-2.271.45.944.709 2.353 1.192 5.452m-9.921-5.015c-.272.354-.296.7-.344 1.393a80 80 0 0 0-.197 5.269c0 1.995.11 3.99.197 5.27.048.691.072 1.038.344 1.392.46.6 1.487.832 2.209.832s1.75-.232 2.21-.832c.271-.354.295-.7.342-1.393.088-1.28.198-3.274.198-5.269s-.11-3.99-.198-5.27c-.047-.691-.07-1.038-.343-1.392C19 9.232 17.972 9 17.25 9s-1.75.232-2.21.832M10.5 26.5a2 2 0 1 0 0-4 2 2 0 0 0 0 4"/></svg>