<svg xmlns="http://www.w3.org/2000/svg" viewBox="0 0 32 32"><path fill-rule="evenodd" d="M4 26.5V4h12c3.356 0 5.034 0 6.852 1.015.79.44 1.844 1.344 2.4 2.055 1.284 1.64 1.583 3.557 2.18 7.392.332 2.127.568 4.473.568 6.871 0 1.085 0 1.627-.105 2.075a4 4 0 0 1-2.987 2.987c-.448.105-.99.105-2.073.105h-8.303a4.5 4.5 0 0 1-8.064 0zm2.5-4.064a4.501 4.501 0 0 1 8.157.338A100 100 0 0 1 14.5 17.5c0-2.411.124-4.822.214-6.251.042-.652.062-.978.306-1.322C15.465 9.3 16.517 9 17.25 9s1.785.3 2.23.927c.244.344.264.67.305 1.322.09 1.429.215 3.84.215 6.251s-.125 4.822-.215 6.251L19.77 24h3.066c1.223 0 1.408-.017 1.506-.04a1.5 1.5 0 0 0 1.12-1.12c.023-.097.039-.282.039-1.507q0-.668-.025-1.333h-.308a2.666 2.666 0 0 1-2.667-2.666v-5.668c0-.96.508-1.802 1.27-2.271a4 4 0 0 0-.486-.784c-.352-.45-1.152-1.135-1.65-1.413C20.489 6.56 19.52 6.5 16 6.5H6.5V9h2.833A2.666 2.666 0 0 1 12 11.666v1.668A2.666 2.666 0 0 1 9.333 16H6.5zm6 2.064a2 2 0 1 1-4 0 2 2 0 0 1 4 0"/></svg>