<svg xmlns="http://www.w3.org/2000/svg" viewBox="0 0 24 24"><path fill-rule="evenodd" d="M3 3h9c2.517 0 3.776 0 5.14.761.59.33 1.382 1.008 1.8 1.542.962 1.23 1.186 2.668 1.634 5.544C20.823 12.442 21 14.2 21 16c0 .93 0 1.395-.102 1.776a3 3 0 0 1-2.122 2.122C18.396 20 17.93 20 17 20h-6.337a3.5 3.5 0 0 1-6.326 0H3zm5 4H5v5h3a1 1 0 0 0 1-1V8a1 1 0 0 0-1-1m10.598 4.155c-.318-2.041-.506-3.09-.766-3.779A2 2 0 0 0 17 9v4a2 2 0 0 0 1.981 2 33 33 0 0 0-.383-3.845M13 18c-.528 0-1.264-.17-1.6-.608-.205-.267-.223-.525-.258-1.043A59 59 0 0 1 11 12.5c0-1.455.079-2.91.142-3.849.036-.518.053-.776.258-1.043C11.736 7.171 12.472 7 13 7s1.264.17 1.6.608c.205.267.223.525.258 1.043.063.94.142 2.394.142 3.849s-.079 2.91-.142 3.849c-.036.518-.053.776-.258 1.043-.336.437-1.072.608-1.6.608m-5.5 2a1.5 1.5 0 1 0 0-3 1.5 1.5 0 0 0 0 3"/></svg>