<svg xmlns="http://www.w3.org/2000/svg" viewBox="0 0 24 24"><path d="M2 5a1 1 0 0 1 2 0v14a1 1 0 1 1-2 0z"/><path d="M17.052 13c-.205.167-.446.36-.734.591a113 113 0 0 1-1.468 1.163 1 1 0 0 0-.349.713l-.001.114.008.06c.08.65.93 1.074 1.492.745.044-.025-.003.012-.003.012l.008-.006c.448-.342.96-.752 1.556-1.23 1.364-1.092 2.047-1.638 2.287-2.3a2.53 2.53 0 0 0 0-1.724c-.24-.663-.922-1.209-2.286-2.3a95 95 0 0 0-1.557-1.23l-.008-.006s.047.037.003.012c-.562-.329-1.413.096-1.492.744l-.008.06.001.115c.015.282.135.53.35.713.018.016.045.036.097.077.38.294.827.652 1.37 1.086.288.23.529.424.733.591H6.95c.205-.167.446-.36.734-.591.542-.434.99-.792 1.37-1.086.052-.04.078-.06.097-.077a.98.98 0 0 0 .35-.713v-.114l-.007-.06c-.08-.65-.93-1.074-1.493-.745-.038.022-.007-.003.002-.01l.002-.002-.008.006c-.448.342-.96.752-1.557 1.23-1.364 1.091-2.046 1.637-2.287 2.3a2.52 2.52 0 0 0 0 1.724c.241.662.923 1.208 2.287 2.3.597.478 1.109.888 1.557 1.23l.008.006-.002-.001c-.01-.008-.04-.033-.002-.01.562.328 1.413-.097 1.493-.745l.007-.06v-.115a1 1 0 0 0-.35-.713l-.097-.077c-.38-.294-.828-.652-1.37-1.086-.288-.23-.53-.424-.734-.591z"/><path d="M21 4a1 1 0 0 1 1 1v14a1 1 0 1 1-2 0V5a1 1 0 0 1 1-1"/></svg>