<svg xmlns="http://www.w3.org/2000/svg" viewBox="0 0 16 16"><path d="M1 3.25a.75.75 0 0 1 1.5 0v9.5a.75.75 0 0 1-1.5 0z"/><path d="M11.158 7.25H4.843a149 149 0 0 1 1.09-.862.75.75 0 1 0-.818-1.257l-.003-.004c-.286.218-.61.477-.984.774-.91.725-1.366 1.087-1.527 1.528a1.67 1.67 0 0 0 0 1.144c.161.44.617.802 1.527 1.527.373.297.697.555.982.773l.003-.003a.75.75 0 1 0 .826-1.252A80 80 0 0 1 4.84 8.75h6.318a161 161 0 0 1-1.097.868.75.75 0 1 0 .826 1.252l.002.003c.285-.218.609-.476.982-.773.91-.725 1.366-1.087 1.527-1.527q.1-.28.101-.572v4.749a.75.75 0 0 0 1.5 0v-9.5a.75.75 0 0 0-1.5 0V8c0-.194-.034-.387-.101-.571-.161-.44-.616-.803-1.527-1.528-.374-.297-.698-.556-.984-.774l-.003.004a.75.75 0 1 0-.819 1.257c.243.187.528.413.872.687z"/></svg>