<svg xmlns="http://www.w3.org/2000/svg" viewBox="0 0 16 16"><path fill-rule="evenodd" d="M3.373 3.244A41 41 0 0 1 8 3c1.946 0 3.5.116 4.626.244.969.11 1.453.166 1.938.622s.563.91.722 1.82c.12.684.213 1.483.213 2.314 0 .83-.093 1.63-.213 2.314-.159.91-.239 1.364-.723 1.82s-.968.511-1.937.622C11.5 12.884 9.947 13 8 13s-3.502-.116-4.628-.244c-.969-.11-1.453-.166-1.937-.622s-.564-.91-.723-1.82A13.6 13.6 0 0 1 .5 8c0-.831.093-1.63.213-2.315.159-.909.238-1.363.723-1.82.484-.455.968-.51 1.937-.62M12.5 7c0 .552-.446 1-.998 1a1 1 0 1 1 .998-1m-.75 4h-7.5a.75.75 0 0 1 0-1.5h7.5a.75.75 0 0 1 0 1.5"/></svg>