<svg xmlns="http://www.w3.org/2000/svg" viewBox="0 0 16 16"><path d="M3.5 9.25a.75.75 0 0 1 .75-.75h7.5a.75.75 0 0 1 0 1.5h-7.5a.75.75 0 0 1-.75-.75m8-1.35a.9.9 0 1 0 0-1.8.9.9 0 0 0 0 1.8"/><path fill-rule="evenodd" d="M3.373 3.244A41 41 0 0 1 8 3c1.946 0 3.5.116 4.627.244.969.11 1.453.166 1.937.622s.564.91.723 1.82c.12.684.212 1.483.212 2.314 0 .83-.093 1.63-.212 2.314-.16.91-.239 1.364-.723 1.82s-.969.511-1.938.622C11.5 12.884 9.946 13 8 13s-3.502-.116-4.628-.244c-.969-.11-1.453-.166-1.937-.622s-.564-.91-.723-1.82A13.6 13.6 0 0 1 .5 8c0-.831.093-1.63.213-2.315.159-.909.238-1.363.723-1.82.484-.455.968-.51 1.937-.62m-.909 1.714a.4.4 0 0 0-.063.07.4.4 0 0 0-.034.077c-.02.055-.044.141-.074.286-.031.147-.062.318-.103.553C2.081 6.567 2 7.277 2 8s.081 1.433.19 2.056c.041.234.072.406.103.553.03.145.054.23.074.286.018.05.03.07.034.077.005.008.02.03.063.07a.3.3 0 0 0 .067.053c.01.005.035.018.095.035.162.045.39.075.917.135 1.072.123 2.57.235 4.458.235 1.886 0 3.384-.112 4.456-.234.527-.06.755-.09.917-.136a.4.4 0 0 0 .095-.035.3.3 0 0 0 .068-.053.4.4 0 0 0 .062-.07.4.4 0 0 0 .035-.077c.02-.056.043-.141.074-.286.03-.147.061-.319.102-.553.11-.623.19-1.333.19-2.056s-.08-1.433-.19-2.056a18 18 0 0 0-.102-.553 2 2 0 0 0-.074-.286.4.4 0 0 0-.035-.077.4.4 0 0 0-.062-.07.3.3 0 0 0-.068-.053.4.4 0 0 0-.095-.035c-.162-.045-.39-.076-.916-.136A40 40 0 0 0 8 4.5a40 40 0 0 0-4.458.234c-.527.06-.755.09-.917.136a.4.4 0 0 0-.095.035.3.3 0 0 0-.067.053"/></svg>