<svg xmlns="http://www.w3.org/2000/svg" viewBox="0 0 24 24"><path d="M12.748 13.076a1.25 1.25 0 1 1 2.5 0 1.25 1.25 0 0 1-2.5 0m2.5 3.424a1.25 1.25 0 1 1-2.5 0 1.25 1.25 0 0 1 2.5 0m-3.351-5.528a.28.28 0 0 1-.371-.371l.966-2.101-.966-2.1a.28.28 0 0 1 .371-.372l2.1.966 2.101-.966a.28.28 0 0 1 .372.371L15.504 8.5l.966 2.1a.28.28 0 0 1-.372.372l-2.1-.966z"/><path fill-rule="evenodd" d="M3 12.002q0 .379.011.757-.013.587-.013 1.241c0 1.64.068 2.964.15 3.967.123 1.486 1.062 2.802 2.542 2.982a7 7 0 0 0 1.671 0 2.7 2.7 0 0 0 .715-.19c.539.064 1.146.11 1.847.161.678.05 1.377.081 2.077.081s1.399-.03 2.077-.08c2.616-.195 3.924-.293 5.237-1.605s1.41-2.621 1.605-5.237C20.969 13.4 21 12.7 21 12s-.03-1.399-.081-2.077c-.195-2.616-.292-3.924-1.605-5.237-1.313-1.312-2.62-1.41-5.237-1.604A28 28 0 0 0 12 3c-.7 0-1.399.031-2.077.082-2.616.194-3.924.292-5.237 1.604s-1.41 2.621-1.605 5.237c-.05.678-.081 1.378-.081 2.078m9-7c-.642 0-1.292.028-1.929.075-2.75.205-3.265.318-3.97 1.025-.302.3-.495.567-.634.985q.11-.021.222-.036a7 7 0 0 1 1.673 0c1.48.18 2.418 1.498 2.54 2.983q.054.644.094 1.466c.026.537-.238.918-.501 1.297-.25.36-.497.717-.497 1.203s.248.844.497 1.203c.263.379.527.76.501 1.297a42 42 0 0 1-.094 1.466 4 4 0 0 1-.192.933l.361.027c.637.047 1.287.076 1.929.076s1.292-.029 1.929-.076c2.75-.205 3.265-.318 3.97-1.025.707-.706.82-1.22 1.025-3.97A26 26 0 0 0 19 12c0-.642-.028-1.291-.076-1.928-.204-2.75-.318-3.265-1.024-3.971-.706-.707-1.22-.82-3.971-1.025A26 26 0 0 0 12 5.001M4.998 14c0-1.585.066-2.854.144-3.803.032-.387.167-.694.323-.886a.68.68 0 0 1 .465-.274 5 5 0 0 1 1.19 0c.175.02.325.1.466.274.156.192.291.5.323.887q.046.552.082 1.25a5 5 0 0 1-.166.246c-.234.33-.827 1.165-.827 2.306s.593 1.976.827 2.306a8 8 0 0 1 .166.247q-.036.696-.082 1.249c-.032.386-.167.695-.323.887a.68.68 0 0 1-.466.274 5 5 0 0 1-1.19 0 .68.68 0 0 1-.465-.274c-.155-.192-.291-.5-.323-.886A47 47 0 0 1 4.998 14"/></svg>