<svg xmlns="http://www.w3.org/2000/svg" viewBox="0 0 24 24"><path fill-rule="evenodd" d="M11.998 3c-1.223 0-2.309.058-3.257.149-1.872.178-2.808.267-4.083 1.555C3.522 5.852 3.33 6.777 3.181 8.39 3.8 7.624 4.76 7 6.03 7c1.417 0 2.447.778 3.052 1.662.574.84.833 1.838.883 2.722q.015.247.028.522c.037.796-.195 1.538-.746 2.127-.22.234-.444.393-.569.478l-.156.105a2.4 2.4 0 0 0-.025.384c0 .187.013.31.025.384l.156.105c.125.085.35.244.568.478.552.589.784 1.33.747 2.127l-.028.522a5.6 5.6 0 0 1-.62 2.287c.798.06 1.682.097 2.652.097a34 34 0 0 0 3.256-.149c1.872-.178 2.809-.267 4.084-1.555s1.36-2.296 1.532-4.31c.077-.912.128-1.917.128-2.986s-.051-2.074-.128-2.986c-.172-2.014-.257-3.022-1.532-4.31-1.276-1.288-2.212-1.377-4.084-1.555A34 34 0 0 0 11.998 3m-.473 7.6a.28.28 0 0 0 .372.372l2.1-.966 2.101.966a.28.28 0 0 0 .371-.371L15.503 8.5l.966-2.1a.28.28 0 0 0-.371-.372l-2.1.966-2.101-.966a.28.28 0 0 0-.372.371l.966 2.101zm2.473 1.226a1.25 1.25 0 1 0 0 2.5 1.25 1.25 0 0 0 0-2.5m1.25 4.674a1.25 1.25 0 1 1-2.5 0 1.25 1.25 0 0 1 2.5 0"/><path d="M4.09 11.5c-.05.87-.092 2.04-.092 3.5 0 1.461.042 2.63.093 3.5.07 1.222.716 2.5 1.94 2.5s1.869-1.277 1.94-2.499L7.995 18c.026-.55-.237-.724-.55-.93-.428-.283-.948-.627-.948-2.07s.52-1.787.947-2.07c.314-.206.577-.38.551-.93l-.026-.5C7.9 10.277 7.254 9 6.03 9s-1.87 1.278-1.94 2.5"/></svg>