<svg xmlns="http://www.w3.org/2000/svg" viewBox="0 0 24 24"><path fill-rule="evenodd" d="M4 13.001c0 1.691.08 3.227.195 4.56q.033.383.065.727a9.5 9.5 0 0 1 1.291-.124l.22-.011A117 117 0 0 1 11.999 18a117 117 0 0 1 6.45.164 9 9 0 0 1 1.29.124q.032-.344.065-.726c.115-1.334.196-2.87.196-4.56 0-2.762-.43-5.112-.89-6.838-.58-2.171-2.085-3.69-4.35-3.99-.78-.103-1.7-.173-2.76-.173-1.061 0-1.982.07-2.761.174-2.264.3-3.769 1.818-4.348 3.987A26.6 26.6 0 0 0 4 13.002M14 10a1 1 0 1 0 0-2h-4a1 1 0 0 0 0 2zm-1 4a1 1 0 1 0 0-2h-2a1 1 0 1 0 0 2z"/><path d="M3.537 20.787c-.365.372-.486.717-.537 1.213h18c-.051-.496-.172-.841-.537-1.213-.53-.54-1.133-.572-2.342-.637C16.685 20.073 14.635 20 12 20s-4.684.073-6.12.15c-1.209.065-1.813.098-2.342.637"/></svg>