<svg xmlns="http://www.w3.org/2000/svg" viewBox="0 0 32 32"><path d="M18.75 13.5a1.25 1.25 0 1 0 0-2.5h-5.5a1.25 1.25 0 0 0 0 2.5zm-1.5 5a1.25 1.25 0 1 0 0-2.5h-2.502a1.25 1.25 0 0 0 0 2.5z"/><path fill-rule="evenodd" d="M25.364 26.78c.2-.912.286-1.976.395-3.325.142-1.744.24-3.75.24-5.955 0-3.604-.526-6.677-1.095-8.946-.717-2.856-2.722-4.978-5.711-5.36A25 25 0 0 0 15.999 3c-1.211 0-2.276.077-3.194.195-2.987.381-4.992 2.502-5.708 5.356A37 37 0 0 0 6 17.5c0 2.205.098 4.21.24 5.955.11 1.35.196 2.413.395 3.324-.873.086-1.432.254-1.939.77-.444.453-.617.877-.696 1.451h24c-.08-.574-.253-.997-.697-1.45-.507-.517-1.066-.685-1.939-.77M8.5 17.5c0 2.13.095 4.069.231 5.753.137 1.678.222 2.597.429 3.324q.007.03.017.058a161 161 0 0 1 6.821-.135c2.763 0 5.044.06 6.825.135l.016-.058c.207-.727.292-1.646.428-3.324.137-1.684.233-3.622.233-5.753 0-3.363-.492-6.229-1.021-8.337-.469-1.867-1.627-3.236-3.603-3.489a23 23 0 0 0-2.877-.174c-1.104 0-2.063.07-2.877.175-1.974.252-3.132 1.62-3.6 3.485A34.4 34.4 0 0 0 8.5 17.5"/></svg>