<svg xmlns="http://www.w3.org/2000/svg" viewBox="0 0 16 16"><path fill-rule="evenodd" d="M2.501 8.75c0 1.283.065 2.439.154 3.426l.004.052c.383-.089.747-.105 1.043-.119l.15-.007C4.831 12.049 6.22 12 7.998 12s3.167.049 4.149.102l.149.007c.297.014.661.03 1.044.12l.005-.052c.089-.988.153-2.144.153-3.427a19.2 19.2 0 0 0-.643-4.935c-.389-1.452-1.37-2.467-2.886-2.683A14 14 0 0 0 8 1c-.762 0-1.42.054-1.97.133-1.515.215-2.496 1.23-2.885 2.68a19.2 19.2 0 0 0-.644 4.937m7.499-3a.75.75 0 0 1-.75.75h-2.5a.75.75 0 0 1 0-1.5h2.5a.75.75 0 0 1 .75.75m-.5 3a.75.75 0 0 1-.75.75h-1.5a.75.75 0 0 1 0-1.5h1.5a.75.75 0 0 1 .75.75"/><path d="M14 15H2c.026-.424.09-.688.371-.975.353-.36.756-.382 1.561-.425.955-.052 2.317-.1 4.067-.1s3.113.048 4.068.1c.806.043 1.21.065 1.562.425.282.287.345.551.37.975"/></svg>