<svg xmlns="http://www.w3.org/2000/svg" viewBox="0 0 24 24"><path d="M15 9a1 1 0 0 1-1 1h-4a1 1 0 0 1 0-2h4a1 1 0 0 1 1 1m-1 4a1 1 0 0 1-1 1h-2a1 1 0 1 1 0-2h2a1 1 0 0 1 1 1"/><path fill-rule="evenodd" d="M19.445 20.27c.188-.73.262-1.588.359-2.708.115-1.334.196-2.87.196-4.56 0-2.762-.43-5.112-.89-6.838-.58-2.171-2.085-3.69-4.35-3.99-.78-.103-1.7-.173-2.76-.173-1.061 0-1.982.07-2.761.174-2.264.3-3.769 1.818-4.348 3.987A26.6 26.6 0 0 0 4 13.002c0 1.69.08 3.226.195 4.56.097 1.12.171 1.978.36 2.707-.419.08-.73.224-1.018.518-.365.372-.486.717-.537 1.213h18c-.051-.496-.173-.841-.537-1.213-.289-.294-.6-.437-1.018-.518M6 13a51 51 0 0 0 .188 4.388c.109 1.261.176 1.94.328 2.474q.038.13.084.251C7.972 20.052 9.777 20 12 20s4.027.052 5.4.114q.047-.12.084-.251c.152-.534.22-1.213.328-2.474a51 51 0 0 0 .189-4.388c0-2.556-.398-4.73-.823-6.321-.373-1.397-1.211-2.328-2.68-2.523A19 19 0 0 0 12 4.001c-.973 0-1.805.064-2.498.156-1.468.195-2.307 1.126-2.68 2.52A24.6 24.6 0 0 0 6 13.002"/></svg>