<svg xmlns="http://www.w3.org/2000/svg" viewBox="0 0 16 16"><path fill-rule="evenodd" d="M1.088 6.414a2 2 0 0 1 .972-1.18c.134-.932.364-1.558.963-2.146.886-.87 1.822-.93 3.694-1.046C7.137 2.016 7.569 2 8 2s.863.016 1.283.042c1.872.117 2.808.175 3.694 1.046.6.588.83 1.214.963 2.146a2 2 0 0 1 .972 1.18C15 6.7 15 7.052 15 7.757v.344c0 1.65 0 2.475-.54 3.052-.317.338-.716.495-1.306.588l.292.73a.75.75 0 0 1-1.392.557l-.46-1.147-.02.001A56 56 0 0 1 8 11.999a56 56 0 0 1-3.573-.117l-.02-.001-.46 1.147a.75.75 0 0 1-1.392-.556l.292-.731c-.59-.093-.989-.25-1.305-.588C1 10.576 1 9.751 1 8.101v-.344c0-.705 0-1.057.088-1.343m11.305-1.32c-.1-.5-.232-.705-.466-.936-.42-.41-.736-.494-2.737-.619A19 19 0 0 0 8 3.5c-.396 0-.796.014-1.19.039-2.001.125-2.318.208-2.737.62-.234.23-.366.434-.466.935A2 2 0 0 1 5 7v.5h6V7a2 2 0 0 1 1.393-1.906"/></svg>