<svg xmlns="http://www.w3.org/2000/svg" viewBox="0 0 24 24"><path fill-rule="evenodd" d="M12 4c-.774 0-1.548.034-2.295.088-2.66.194-3.99.29-5.308 1.612-.9.903-1.226 1.784-1.4 3.066a3 3 0 0 0-.955 1.737C2 10.75 2 11.046 2 11.637v.61c0 2.43 0 3.645.812 4.51.427.456.946.692 1.675.835l-.415 1.037a1 1 0 0 0 1.857.743l.624-1.561c1.814.12 3.63.19 5.447.19s3.634-.07 5.448-.19l.624 1.56a1 1 0 1 0 1.857-.742l-.415-1.037c.728-.143 1.247-.38 1.674-.835.812-.866.812-2.08.812-4.51v-.61c0-.591 0-.887-.041-1.134a3 3 0 0 0-.957-1.737c-.173-1.281-.5-2.163-1.4-3.066-1.317-1.321-2.647-1.418-5.307-1.612A32 32 0 0 0 12 4m8 8.853V11a1 1 0 1 0-2 0v2a1 1 0 0 1-1 1H7a1 1 0 0 1-1-1v-2a1 1 0 0 0-2 0v1.853c.004.914.018 1.504.082 1.955.077.542.18.69.717.806.492.107 1.173.155 2.373.233a75.5 75.5 0 0 0 9.656 0c1.2-.077 1.88-.126 2.373-.233.536-.115.64-.264.717-.806.064-.451.078-1.04.081-1.955M8 10.999a3 3 0 0 0-2.79-2.992c.134-.363.321-.611.604-.895.707-.709 1.234-.825 4.036-1.03A30 30 0 0 1 12 6c.718 0 1.443.031 2.15.083 2.802.204 3.33.32 4.036 1.029.283.284.47.532.605.895A3 3 0 0 0 15.999 11v1H8.001z"/></svg>