<svg xmlns="http://www.w3.org/2000/svg" viewBox="0 0 24 24"><path fill-rule="evenodd" d="M12 1.5a1 1 0 0 1 1 1v1a1 1 0 1 1-2 0v-1a1 1 0 0 1 1-1m-3.5 10C8.5 9.357 10 8 12 8s3.5 1.357 3.5 3.5c0 .861-.562 1.592-1.794 2.74a3 3 0 0 0-.956 2.196v.064h-1.5v-.064c0-.838-.35-1.631-.956-2.196C9.062 13.092 8.5 12.361 8.5 11.5m9 0c0 1.832-1.258 3.11-2.43 4.203-.204.19-.32.455-.32.733V17a1.5 1.5 0 0 1-1.5 1.5h-2.5a1.5 1.5 0 0 1-1.5-1.5v-.564c0-.278-.116-.543-.32-.733C7.758 14.611 6.5 13.332 6.5 11.5 6.5 8.186 8.962 6 12 6s5.5 2.186 5.5 5.5M10.25 20a1 1 0 1 0 0 2h3.5a1 1 0 1 0 0-2zM6.402 5.2A1.2 1.2 0 1 1 4 5.2a1.2 1.2 0 0 1 2.402 0M5 12a1 1 0 0 1-1 1H3a1 1 0 1 1 0-2h1a1 1 0 0 1 1 1m17 0a1 1 0 0 1-1 1h-1a1 1 0 1 1 0-2h1a1 1 0 0 1 1 1m-2-6.802a1.198 1.198 0 1 1-2.396 0 1.198 1.198 0 0 1 2.396 0"/></svg>