<svg xmlns="http://www.w3.org/2000/svg" viewBox="0 0 16 16"><path fill-rule="evenodd" d="M8 1a.75.75 0 0 0-.75.75v.5a.75.75 0 0 0 1.5 0v-.5A.75.75 0 0 0 8 1M3.464 4.365a.9.9 0 1 1 0-1.8.9.9 0 0 1 0 1.8m9.97-.9a.9.9 0 1 1-1.8 0 .9.9 0 0 1 1.8 0M15 7.25a.75.75 0 0 0-.75-.75h-.5a.75.75 0 0 0 0 1.5h.5a.75.75 0 0 0 .75-.75M2.25 6.5a.75.75 0 0 1 0 1.5h-.5a.75.75 0 0 1 0-1.5zm9.5 1.167c0 1.16-.638 1.99-1.403 2.694a1.05 1.05 0 0 0-.347.768v.371a1 1 0 0 1-1 1H7a1 1 0 0 1-1-1v-.37c0-.294-.131-.57-.347-.77-.765-.704-1.403-1.532-1.403-2.693C4.25 5.457 6 4 8 4s3.75 1.458 3.75 3.667M5.997 14.25a.75.75 0 0 1 .75-.75h2.515a.75.75 0 0 1 0 1.5H6.747a.75.75 0 0 1-.75-.75"/></svg>