<svg xmlns="http://www.w3.org/2000/svg" viewBox="0 0 44 44"><path fill-rule="evenodd" d="M23.5 5.5a1.5 1.5 0 0 0-3 0V8a1.5 1.5 0 0 0 3 0zM32 22.083c0 3.498-2.482 5.897-4.683 7.954a1 1 0 0 0-.317.73V32a2.5 2.5 0 0 1-2.5 2.5h-5A2.5 2.5 0 0 1 17 32v-1.234a1 1 0 0 0-.317-.729C14.482 27.98 12 25.581 12 22.083 12 16.008 16.477 12 22 12s10 4.008 10 10.083M17 38.5a1.5 1.5 0 0 1 1.5-1.5h7a1.5 1.5 0 0 1 0 3h-7a1.5 1.5 0 0 1-1.5-1.5M4 22a1.5 1.5 0 0 1 1.5-1.5H8a1.5 1.5 0 0 1 0 3H5.5A1.5 1.5 0 0 1 4 22m32-1.5a1.5 1.5 0 0 0 0 3h2.5a1.5 1.5 0 0 0 0-3zM12 10a2 2 0 1 1-4 0 2 2 0 0 1 4 0m22 2a2 2 0 1 0 0-4 2 2 0 0 0 0 4"/></svg>