<svg xmlns="http://www.w3.org/2000/svg" viewBox="0 0 16 16"><path d="M7.75 2.5a.75.75 0 0 0-.372 1.401L2.987 5.548a.75.75 0 0 0 .526 1.404l8-3A.75.75 0 0 0 11.25 2.5zm1.975 10.482c-.382-.047-.637-.383-.66-.768C9.035 11.7 9 10.874 9 9.75s.034-1.95.064-2.464c.023-.385.278-.721.66-.768a2.3 2.3 0 0 1 .551 0c.382.047.638.383.66.768.03.515.065 1.341.065 2.464s-.034 1.95-.065 2.464c-.022.385-.278.721-.66.768a2.3 2.3 0 0 1-.55 0m-3.973.006c-.394-.038-.67-.375-.694-.77A31 31 0 0 1 5 10.25c0-.869.029-1.528.057-1.967.025-.396.3-.733.694-.77a2.6 2.6 0 0 1 .498 0c.395.037.67.374.695.77.028.44.056 1.098.056 1.967s-.028 1.528-.056 1.967c-.026.396-.3.733-.695.77a2.7 2.7 0 0 1-.498 0m-4.704-.762c.028.404.321.737.725.766a3 3 0 0 0 .458 0c.404-.03.697-.362.725-.766.025-.354.047-.848.047-1.476s-.022-1.121-.047-1.476c-.028-.404-.321-.737-.725-.766a3 3 0 0 0-.458 0c-.404.03-.697.362-.725.766-.025.355-.047.849-.047 1.476 0 .628.022 1.122.047 1.476m12.649.75c-.369-.057-.605-.39-.625-.763A55 55 0 0 1 13 9.25c0-1.386.039-2.381.07-2.962.021-.373.257-.706.626-.763Q13.844 5.5 14 5.5q.156.001.304.025c.368.057.605.39.625.763.032.58.071 1.576.071 2.962a55 55 0 0 1-.07 2.962c-.021.373-.258.706-.626.763Q14.156 13 14 13q-.156-.001-.304-.025"/></svg>