<svg xmlns="http://www.w3.org/2000/svg" viewBox="0 0 24 24"><path fill-rule="evenodd" d="M20.377 19.5c.4-.397.434-.866.5-1.803.067-.924.123-2.16.123-3.696 0-1.538-.056-2.774-.122-3.698-.067-.937-.1-1.406-.5-1.802s-.839-.424-1.715-.48a11 11 0 0 0-1.326 0c-.876.056-1.314.083-1.714.48-.362.358-.424.775-.482 1.545q-.22-.015-.489-.028a13 13 0 0 0-1.304 0c-.893.046-1.34.069-1.745.465-.372.363-.431.779-.491 1.553q-.2-.011-.436-.021a16 16 0 0 0-1.351 0c-.896.038-1.344.057-1.754.454-.386.374-.437.783-.495 1.557l-.314-.012a22 22 0 0 0-1.524 0c-.866.03-1.3.046-1.714.447-.414.402-.44.79-.492 1.567a14.5 14.5 0 0 0 0 1.945c.052.776.078 1.164.492 1.566.414.4.847.416 1.714.447a22 22 0 0 0 1.524 0c.576-.02.96-.034 1.275-.159.316.117.708.133 1.287.158a16 16 0 0 0 1.352 0c.62-.026 1.027-.044 1.354-.184.32.13.718.15 1.318.181a13 13 0 0 0 1.304 0c.635-.032 1.044-.053 1.374-.205.317.139.711.164 1.31.201a11 11 0 0 0 1.327 0c.876-.055 1.314-.082 1.714-.479M18 18q.264 0 .538-.018l.314-.02A50 50 0 0 0 19 14a50 50 0 0 0-.148-3.963l-.314-.02a8.6 8.6 0 0 0-1.39.02A50 50 0 0 0 17 14a50 50 0 0 0 .148 3.962l.314.02Q17.736 18 18 18m-8 0q.294 0 .59-.013l.329-.015.022-.294c.034-.464.059-1.024.059-1.678a23 23 0 0 0-.082-1.972l-.328-.015a14 14 0 0 0-1.508.015l-.023.294A23 23 0 0 0 9 16a23 23 0 0 0 .081 1.972l.328.015q.297.012.591.013m4.55-.015a11 11 0 0 1-1.432-.018l-.028-.37C13.04 16.92 13 16.053 13 15a35 35 0 0 1 .118-2.967l.333-.018a11 11 0 0 1 1.43.018c.01.103.018.223.03.37.05.677.089 1.545.089 2.598s-.04 1.92-.09 2.596c-.01.147-.02.267-.028.37zM6 18q.347 0 .691-.013l.273-.01.009-.138a12.5 12.5 0 0 0 0-1.677l-.01-.139-.272-.01a20 20 0 0 0-1.382 0l-.272.01-.01.139a12.5 12.5 0 0 0 0 1.677l.01.138.272.01c.228.008.461.013.691.013"/><path d="M12 4a1 1 0 1 0 0 2h.765l-8.212 4.106a1 1 0 1 0 .895 1.788l12-6A1 1 0 0 0 17 4z"/></svg>