<svg xmlns="http://www.w3.org/2000/svg" viewBox="0 0 16 16"><path d="M7.75 2.5a.75.75 0 0 0-.372 1.401L2.987 5.548a.75.75 0 0 0 .526 1.404l8-3A.75.75 0 0 0 11.25 2.5z"/><path fill-rule="evenodd" d="M10.63 6.546c.041-.316.11-.52.294-.702.265-.26.566-.28 1.168-.32a9.4 9.4 0 0 1 1.316-.001c.602.04.903.06 1.168.32.264.261.29.568.34 1.18.046.568.084 1.312.084 2.227s-.038 1.66-.085 2.227c-.05.612-.075.918-.34 1.18-.264.26-.565.28-1.167.32a10 10 0 0 1-.658.023c-.223 0-.446-.01-.658-.023-.42-.028-.693-.046-.91-.143-.221.104-.5.12-.934.146a12 12 0 0 1-1.33 0c-.412-.024-.684-.04-.9-.131-.22.098-.493.111-.915.133a14 14 0 0 1-1.373 0c-.397-.02-.663-.034-.876-.117-.213.09-.475.1-.874.118a17 17 0 0 1-1.46 0c-.583-.025-.874-.038-1.147-.3-.272-.261-.294-.522-.337-1.045A11 11 0 0 1 1 10.75q.002-.502.036-.889c.043-.523.065-.784.337-1.045.273-.262.564-.275 1.147-.3a17 17 0 0 1 1.74.013c.04-.313.107-.515.302-.704.27-.26.57-.275 1.169-.306a14 14 0 0 1 1.372 0q.19.01.344.02c.041-.316.109-.52.299-.704.267-.26.569-.278 1.173-.314a12 12 0 0 1 1.329 0q.214.012.382.026m2.12 4.874a8 8 0 0 1-.553-.02l-.034-.002-.004-.05a26 26 0 0 1-.079-2.098c0-.87.036-1.572.08-2.098l.003-.05.034-.002a8 8 0 0 1 1.106 0l.033.002.005.05a26 26 0 0 1 .079 2.098c0 .871-.036 1.573-.08 2.098l-.003.05-.034.002c-.184.013-.372.02-.553.02m-6.333.08c-.203 0-.41-.006-.61-.017l-.089-.004-.004-.043a14 14 0 0 1-.047-1.186c0-.468.02-.864.047-1.186l.004-.043.088-.005a12 12 0 0 1 1.221 0l.088.005.004.043c.027.322.048.718.048 1.186s-.02.864-.048 1.186l-.004.043-.088.005c-.2.01-.408.016-.61.016m2.589-.018c.19.011.387.018.577.018.191 0 .387-.007.578-.018l.1-.006.008-.09c.036-.426.064-.973.064-1.636s-.028-1.21-.064-1.636l-.008-.09-.1-.006A10 10 0 0 0 9.583 8c-.19 0-.386.007-.577.018l-.1.006-.008.09c-.036.426-.065.973-.065 1.636s.029 1.21.065 1.636l.007.09zM3.25 11.5c-.222 0-.449-.006-.665-.015l-.057-.003a9 9 0 0 1 0-1.466l.057-.002a16 16 0 0 1 1.33 0l.057.002a9 9 0 0 1 0 1.466l-.057.003a16 16 0 0 1-.665.015"/></svg>