<svg xmlns="http://www.w3.org/2000/svg" viewBox="0 0 16 16"><path d="M1.013 7.003c.023.58.127 1.059.325 1.5.375.84 1.065 1.546 2.07 2.574a19 19 0 0 0 1.205 1.126C6.005 13.402 6.7 14.001 8 14.001c.612 0 1.09-.133 1.57-.399a.75.75 0 0 0-.32-1.428.75.75 0 0 0-.333.074A1.55 1.55 0 0 1 8 12.5c-.656 0-.94-.17-2.408-1.434a18 18 0 0 1-1.111-1.039c-1.376-1.407-1.82-1.918-1.94-2.7l-.032-.435a3 3 0 0 1-.009-.24c0-1.702 1.24-2.861 2.508-2.861.695 0 1.35.325 1.828.905L7.998 6.11l1.158-1.416c.478-.585 1.137-.914 1.835-.914 1.27 0 2.509 1.16 2.509 2.86q0 .056-.002.111a.752.752 0 0 0 1.502 0q.002-.237-.014-.474c-.17-2.238-1.893-3.997-3.995-3.997-.669 0-1.3.178-1.854.494-.433.246-.82.576-1.143.97a4.1 4.1 0 0 0-1.147-.966 3.73 3.73 0 0 0-1.84-.485c-2.104 0-3.83 1.765-3.994 4.01a5 5 0 0 0 0 .7"/><path d="M9.624 7.334a.75.75 0 0 0-1.248 0L7.599 8.5H6.25a.75.75 0 0 0 0 1.5H8a.75.75 0 0 0 .624-.334L9 9.102l1.376 2.064a.75.75 0 0 0 1.248 0L12.401 10h1.349a.75.75 0 0 0 0-1.5H12a.75.75 0 0 0-.624.334L11 9.398z"/></svg>