<svg xmlns="http://www.w3.org/2000/svg" viewBox="0 0 24 24"><path d="M5.44 16.82C3.948 15.292 2.942 14.263 2.42 13c-.331-.806-.42-1.652-.42-2.5q0-.252.018-.5c.234-3.207 2.7-5.73 5.708-5.73.997 0 1.935.278 2.752.766a5.9 5.9 0 0 1 1.513 1.309c.43-.526.94-.971 1.508-1.315a5.35 5.35 0 0 1 2.774-.778c3.002 0 5.465 2.512 5.707 5.71.031.408.027.82 0 1.228a5.6 5.6 0 0 1-.4 1.81H16a1 1 0 0 0-.857.486l-.643 1.07-2.142-3.57a1 1 0 0 0-1.716 0L9.435 13H7a1 1 0 1 0 0 2h3a1 1 0 0 0 .857-.486l.643-1.07 2.143 3.57a1 1 0 0 0 1.714 0L16.568 15h3.707c-.474.55-1.045 1.135-1.714 1.82a28 28 0 0 1-1.722 1.61c-1.989 1.71-2.982 2.566-4.839 2.566s-2.85-.856-4.838-2.568a28 28 0 0 1-1.722-1.61"/></svg>