<svg xmlns="http://www.w3.org/2000/svg" viewBox="0 0 24 24"><path d="M5.44 16.82C3.948 15.292 2.942 14.263 2.42 13c-.331-.806-.42-1.652-.42-2.5q0-.252.018-.5c.234-3.207 2.7-5.73 5.708-5.73.997 0 1.935.278 2.752.766a5.9 5.9 0 0 1 1.513 1.309c.43-.526.94-.971 1.508-1.315a5.35 5.35 0 0 1 2.774-.778c3.002 0 5.465 2.512 5.707 5.71q.02.266.02.533c0 .552-.448 1.009-1 1.009s-1-.457-1-1.01c0-2.496-1.823-4.242-3.727-4.242-1.044 0-2.025.492-2.733 1.358l-1.543 1.888-1.55-1.882c-.706-.858-1.682-1.345-2.721-1.345C5.823 6.27 4 8.002 4 10.5c0 .248.02.496.04.744v.004q.01.113.018.227c.18 1.176.841 1.93 2.812 3.946.51.522 1.05 1.02 1.597 1.493 2.09 1.8 2.534 2.083 3.533 2.083.519 0 .888-.076 1.416-.402l.053-.033.04-.026c.139-.072.297-.11.464-.11a1 1 0 0 1 1 1c0 .305-.131.587-.346.77-.822.534-1.59.801-2.627.801-1.857 0-2.85-.856-4.838-2.568a28 28 0 0 1-1.722-1.61"/><path d="M13.5 10.5a1 1 0 0 1 .857.486l2.143 3.57.642-1.07A1 1 0 0 1 18 13h3a1 1 0 1 1 0 2h-2.434l-1.208 2.015a1 1 0 0 1-1.716 0L13.5 13.444l-.643 1.07A1 1 0 0 1 12 15H9a1 1 0 1 1 0-2h2.434l1.209-2.014a1 1 0 0 1 .857-.486"/></svg>