<svg xmlns="http://www.w3.org/2000/svg" viewBox="0 0 44 44"><path d="M32.965 3.186a1.5 1.5 0 0 0-2.385-.872L25.622 6.15l-4.285-2.893A1.5 1.5 0 0 0 18.999 4.5v5a1.5 1.5 0 0 0 3 0V7.323l2.844 1.92a1.5 1.5 0 0 0 1.757-.057l3.932-3.041 1 4.67A1.5 1.5 0 0 0 32.998 12h3.973l-1.79 3.282a1.5 1.5 0 0 0 2.634 1.436l3-5.5A1.5 1.5 0 0 0 39.498 9h-5.287zM15 29a1.5 1.5 0 1 1-3 0 1.5 1.5 0 0 1 3 0m15.5 1.5a1.5 1.5 0 1 0 0-3 1.5 1.5 0 0 0 0 3M17 29a1.5 1.5 0 0 1 1.5-1.5h7a1.5 1.5 0 0 1 0 3h-7A1.5 1.5 0 0 1 17 29"/><path fill-rule="evenodd" d="M34.814 21H37.5a1.5 1.5 0 0 1 0 3h-1.483c.268.444.469.938.587 1.477.227 1.033.396 2.247.396 3.569v8.704a2.25 2.25 0 0 1-4.5 0V37h-21v.75a2.25 2.25 0 0 1-4.5 0v-8.704c0-1.325.17-2.54.398-3.575A4.9 4.9 0 0 1 7.982 24H6.5a1.5 1.5 0 0 1 0-3h2.686c1.049-3.263 1.62-4.93 3.701-6.447C15.017 13 17.345 13 22.001 13c4.655 0 6.982 0 9.112 1.553 2.081 1.518 2.653 3.184 3.701 6.447m-3.005.458c-.964-2.957-1.321-3.648-2.463-4.48C28.169 16.118 26.983 16 22 16s-6.17.12-7.346.977c-1.142.833-1.5 1.524-2.463 4.48 2.19-.235 5.419-.457 9.802-.457 4.386 0 7.618.222 9.812.458zM12.51 24.44c2.08-.223 5.201-.44 9.484-.44s7.41.217 9.492.44c1.28.138 2.013.884 2.188 1.68.189.861.326 1.857.326 2.926V34H10v-4.954c0-1.07.138-2.068.327-2.93.175-.794.906-1.538 2.183-1.676"/></svg>