<svg xmlns="http://www.w3.org/2000/svg" viewBox="0 0 32 32"><path d="M24.226 2.516a1.25 1.25 0 0 0-1.98-.765L18.65 4.455l-3.183-2.229A1.25 1.25 0 0 0 13.5 3.25v4a1.25 1.25 0 1 0 2.5 0V5.651l1.96 1.372c.443.31 1.035.3 1.468-.025l2.717-2.043.625 3.279a1.25 1.25 0 0 0 1.228 1.016h2.668l-1.02 1.912a1.25 1.25 0 1 0 2.207 1.176l1.998-3.75a1.25 1.25 0 0 0-1.103-1.838h-3.716zM10.25 22.5a1.25 1.25 0 1 0 0-2.5 1.25 1.25 0 0 0 0 2.5M23 21.25a1.25 1.25 0 1 1-2.5 0 1.25 1.25 0 0 1 2.5 0m-10 0c0-.69.56-1.25 1.25-1.25h3.5a1.25 1.25 0 1 1 0 2.5h-3.5c-.69 0-1.25-.56-1.25-1.25"/><path fill-rule="evenodd" d="m25.167 15.369.042.131h2.041a1.25 1.25 0 1 1 0 2.5h-.728q.094.238.154.493c.184.78.324 1.708.324 2.723v6.034a1.75 1.75 0 1 1-3.5 0v-.75h-15v.75a1.75 1.75 0 1 1-3.5 0v-6.034c0-1.017.14-1.946.325-2.727q.06-.254.153-.489H4.75a1.25 1.25 0 1 1 0-2.5h2.04l.042-.13c.779-2.384 1.168-3.576 2.65-4.69l.162-.117C11.164 9.5 12.776 9.5 16 9.5s4.835 0 6.354 1.062c.045.031.12.086.164.12 1.481 1.113 1.87 2.304 2.649 4.687m-9.171-.036c2.882 0 5.056.125 6.616.271-.667-2.005-.893-2.396-1.596-2.925l-.095-.068c-.741-.519-1.445-.611-4.92-.611-3.478 0-4.182.092-4.924.611l-.093.068c-.703.529-.93.92-1.596 2.925 1.557-.147 3.728-.27 6.608-.27m0 2.5c-3.238 0-5.523.161-7.008.324-.763.084-1.136.51-1.23.907a9.4 9.4 0 0 0-.258 2.152V24h17v-2.784c0-.788-.11-1.52-.257-2.15-.094-.396-.469-.825-1.234-.909-1.487-.163-3.775-.324-7.013-.324"/></svg>