<svg xmlns="http://www.w3.org/2000/svg" viewBox="0 0 32 32"><path d="M5.027 7.309c.065-.873.097-1.309.535-1.747s.874-.47 1.746-.535c.226-.017.46-.027.693-.027q.351 0 .692.027c.872.065 1.308.097 1.746.535s.47.874.535 1.747c.017.226.027.46.027.692q0 .353-.027.693c-.065.872-.097 1.309-.535 1.746s-.874.47-1.746.536c-.226.016-.46.027-.692.027q-.352 0-.693-.027c-.872-.065-1.308-.098-1.746-.536-.438-.437-.47-.874-.535-1.746A9 9 0 0 1 5 8.001q0-.351.027-.692m.003 8c.065-.872.097-1.308.535-1.746.437-.437.873-.47 1.745-.535q.34-.026.692-.027.351 0 .692.027c.872.065 1.308.098 1.745.535s.47.874.535 1.746q.026.34.027.692c0 .233-.01.467-.027.693-.065.872-.097 1.308-.535 1.745-.437.438-.873.47-1.745.535q-.34.026-.692.027-.351 0-.692-.027c-.872-.065-1.308-.097-1.745-.535-.438-.437-.47-.873-.535-1.745A9 9 0 0 1 5.003 16q0-.351.027-.692m.7 6.254c-.438.438-.47.874-.535 1.746q-.026.34-.027.692 0 .351.027.692c.065.872.097 1.308.535 1.746.437.438.873.47 1.745.535.226.017.46.027.692.027q.351 0 .692-.027c.872-.065 1.308-.097 1.746-.535s.47-.874.534-1.746q.026-.34.027-.692 0-.351-.027-.692c-.064-.872-.097-1.308-.534-1.746s-.874-.47-1.746-.535A9 9 0 0 0 8.167 21q-.351 0-.692.027c-.872.065-1.308.097-1.745.535M21.026 7.309c.065-.873.097-1.309.535-1.747s.874-.47 1.746-.535c.226-.017.46-.027.692-.027q.352 0 .693.027c.872.065 1.308.097 1.746.535s.47.874.535 1.747c.017.226.027.46.027.692q0 .353-.027.693c-.065.872-.097 1.309-.535 1.746s-.874.47-1.746.536c-.226.016-.46.027-.693.027q-.351 0-.692-.027c-.872-.065-1.308-.098-1.746-.536-.438-.437-.47-.874-.535-1.746a9 9 0 0 1-.027-.693q0-.351.027-.692m.534 6.254c-.437.438-.47.874-.534 1.746q-.026.34-.027.692c0 .233.01.467.027.693.065.872.097 1.308.535 1.745.437.438.873.47 1.745.535q.34.026.692.027.351 0 .692-.027c.872-.065 1.308-.097 1.745-.535.438-.437.47-.873.535-1.745a9 9 0 0 0 .027-.693q0-.351-.027-.692c-.065-.872-.097-1.308-.534-1.746s-.874-.47-1.746-.535a9 9 0 0 0-.692-.027q-.351 0-.692.027c-.872.065-1.308.098-1.745.535m-.535 9.745c.065-.872.097-1.308.535-1.746.437-.438.873-.47 1.745-.535q.34-.026.692-.027.351 0 .692.027c.872.065 1.308.097 1.745.535s.47.874.535 1.746q.026.34.027.692 0 .351-.027.692c-.065.872-.097 1.308-.534 1.746s-.874.47-1.746.535q-.34.026-.692.027-.351 0-.692-.027c-.872-.065-1.308-.097-1.745-.535s-.47-.874-.535-1.746a9 9 0 0 1-.027-.692q0-.351.027-.692M13.564 5.562c-.437.438-.47.874-.535 1.746q-.026.34-.027.692 0 .351.027.692c.065.872.098 1.308.535 1.746s.873.47 1.745.535a9 9 0 0 0 1.385 0c.871-.065 1.307-.097 1.745-.535.437-.438.47-.874.535-1.746Q19 8.352 19 8t-.027-.692c-.065-.872-.098-1.308-.535-1.746s-.874-.47-1.745-.535A9 9 0 0 0 16 5q-.351 0-.692.027c-.872.065-1.307.097-1.745.535m-.533 9.748c.065-.872.098-1.308.535-1.746s.873-.47 1.744-.534c.226-.017.46-.027.692-.027q.351 0 .692.027c.872.065 1.307.097 1.745.534.437.438.47.874.534 1.745.017.226.027.46.027.692q0 .351-.027.692c-.065.872-.097 1.308-.534 1.745s-.873.47-1.745.535a9 9 0 0 1-.692.027q-.351 0-.692-.027c-.871-.065-1.307-.097-1.744-.535-.437-.437-.47-.873-.535-1.745a9 9 0 0 1-.027-.692q0-.351.027-.692m.534 6.253c-.438.438-.47.874-.535 1.746q-.026.34-.027.692 0 .351.027.692c.065.872.097 1.308.535 1.746.437.438.873.47 1.745.535.226.017.46.027.692.027q.351 0 .692-.027c.872-.065 1.308-.097 1.746-.535s.47-.874.535-1.746q.025-.34.026-.692-.001-.351-.026-.692c-.065-.872-.098-1.308-.535-1.746s-.874-.47-1.745-.535A9 9 0 0 0 16 21q-.351 0-.692.027c-.872.065-1.308.097-1.745.535"/></svg>