<svg xmlns="http://www.w3.org/2000/svg" viewBox="0 0 16 16"><path d="M8.5 5a2 2 0 1 1-4 0 2 2 0 0 1 4 0m4.843 4.817c-.208-.21-.483-.402-.841-.628v3.315l-.003.065a2 2 0 1 1-1.497-2.001V8.287c0-.795.872-1.252 1.525-.846l.287.176c.57.348 1.168.714 1.594 1.143.266.269.498.59.633.985.137.399.161.826.083 1.283a.75.75 0 0 1-1.479-.254c.043-.247.021-.415-.022-.541a1.1 1.1 0 0 0-.28-.416m-10.271-1.1c.529-.554.99-.59 1.911-.66A19 19 0 0 1 6.5 8c.57 0 1.075.022 1.517.056.655.051 1.077.084 1.456.297a.75.75 0 1 1-.73 1.31.2.2 0 0 0-.046-.018 2 2 0 0 0-.248-.044c-.142-.017-.308-.03-.548-.049A18 18 0 0 0 6.5 9.5a18 18 0 0 0-1.949.1 2 2 0 0 0-.248.045.2.2 0 0 0-.045.018.6.6 0 0 0-.101.09.7.7 0 0 0-.096.117l-.01.025a1 1 0 0 0-.027.2 11 11 0 0 0-.021.815c.006.222.011.369.021.494.01.12.02.175.027.2l.01.025a.7.7 0 0 0 .096.118.6.6 0 0 0 .1.09c.006.003.015.009.046.018.04.011.11.027.248.044.142.017.308.03.548.049.404.031.871.052 1.401.052h.285a.75.75 0 0 1 0 1.5H6.5c-.57 0-1.075-.022-1.517-.056-.921-.072-1.382-.107-1.911-.661s-.542-.978-.569-1.826a7 7 0 0 1 0-.414c.027-.848.04-1.272.569-1.826"/></svg>