<svg xmlns="http://www.w3.org/2000/svg" viewBox="0 0 44 44"><path fill-rule="evenodd" d="M6.858 13.843c.222-2.85.332-4.274 1.668-5.687s2.491-1.569 4.802-1.88C14.558 6.11 15.957 6 17.5 6s2.942.11 4.172.276c2.311.311 3.466.467 4.802 1.88s1.446 2.838 1.668 5.687c.16 2.063.33 4.628.476 7.657h.882A1.5 1.5 0 0 1 31 23v5.5a3 3 0 0 0 6 0v-8.535q-.245.035-.5.035a3.5 3.5 0 0 1-1.418-6.7l-3.159-3.255a1.5 1.5 0 0 1 2.153-2.09l5.5 5.667A1.5 1.5 0 0 1 40 14.667V28.5a6 6 0 0 1-11.053 3.238A360 360 0 0 1 29 38H6q0-1.535.012-3c.075-9.312.485-16.508.846-21.157M17.501 28c2.485 0 4.5-2.18 4.5-4.87 0-2.053-2.625-5.703-3.865-7.313a.795.795 0 0 0-1.27 0c-1.24 1.61-3.864 5.26-3.864 7.314 0 2.689 2.014 4.869 4.5 4.869"/></svg>