<svg xmlns="http://www.w3.org/2000/svg" viewBox="0 0 16 16"><path fill-rule="evenodd" d="M2 14q0-.774.008-1.5c.038-3.34.194-5.923.331-7.603.086-1.048.129-1.572.61-2.082.482-.51.916-.571 1.784-.693A13 13 0 0 1 6.5 2c.66 0 1.254.05 1.767.122.868.122 1.302.183 1.784.693.481.51.524 1.034.61 2.082.058.711.12 1.584.174 2.608a.75.75 0 0 1 .665.745V10a1 1 0 0 0 2 0V7.5a1.5 1.5 0 0 1-.842-2.742l-.949-.989a.75.75 0 1 1 1.082-1.038l2 2.083a.75.75 0 0 1 .209.52V10a2.5 2.5 0 0 1-4.015 1.989A116 116 0 0 1 11 14zm4.5-4c.967 0 1.75-.825 1.75-1.842 0-.64-.692-1.69-1.206-2.38a.672.672 0 0 0-1.088 0c-.514.69-1.207 1.74-1.207 2.38 0 1.017.784 1.842 1.75 1.842"/></svg>