<svg xmlns="http://www.w3.org/2000/svg" viewBox="0 0 32 32"><path d="M12.5 20a3.5 3.5 0 0 0 3.5-3.5c0-1.482-2.058-4.121-3.018-5.271a.623.623 0 0 0-.964 0C11.058 12.379 9 15.018 9 16.5a3.5 3.5 0 0 0 3.5 3.5"/><path fill-rule="evenodd" d="M4.01 25.5Q4 26.718 4 28h17a286 286 0 0 0-.04-4.72A4.5 4.5 0 0 0 29 20.5v-9.833a1.25 1.25 0 0 0-.375-.893l-4-3.917a1.25 1.25 0 1 0-1.75 1.786l2.29 2.243A2.5 2.5 0 0 0 26.5 14.5v6a2 2 0 1 1-3.999 0v-3.75c0-.69-.56-1.25-1.25-1.25h-.538c-.11-2.296-.239-4.232-.359-5.778-.16-2.064-.24-3.096-1.203-4.122s-1.799-1.144-3.47-1.38c-.932-.131-2-.22-3.18-.22s-2.247.089-3.18.22c-1.671.236-2.507.354-3.47 1.38S4.807 7.658 4.647 9.722c-.267 3.44-.575 8.808-.636 15.778m14.479 0c-.061-6.897-.366-12.2-.628-15.585-.086-1.106-.135-1.642-.234-2.04-.262-1.05-1.414-1.054-2.296-1.18A20 20 0 0 0 12.5 6.5c-1.056 0-2.005.08-2.83.196-.883.125-2.035.129-2.297 1.18-.099.397-.148.933-.234 2.04-.262 3.383-.567 8.687-.628 15.584z"/></svg>