<svg xmlns="http://www.w3.org/2000/svg" viewBox="0 0 44 44"><path d="M17.501 28c2.485 0 4.5-2.18 4.5-4.87 0-2.053-2.625-5.703-3.865-7.313a.795.795 0 0 0-1.27 0c-1.24 1.61-3.864 5.26-3.864 7.314 0 2.689 2.014 4.869 4.5 4.869"/><path fill-rule="evenodd" d="M8.526 8.156C7.19 9.57 7.08 10.994 6.858 13.843 6.497 18.491 6.087 25.688 6.012 35Q6 36.465 6 38h23a371 371 0 0 0-.053-6.262A6 6 0 0 0 40 28.5V14.667a1.5 1.5 0 0 0-.424-1.045l-5.5-5.667a1.5 1.5 0 1 0-2.153 2.09l3.16 3.254A3.5 3.5 0 0 0 37 19.965V28.5a3 3 0 0 1-6 0V23a1.5 1.5 0 0 0-1.5-1.5h-.882c-.146-3.03-.316-5.594-.476-7.657-.222-2.85-.332-4.274-1.668-5.687s-2.491-1.569-4.802-1.88A31 31 0 0 0 17.5 6c-1.543 0-2.942.11-4.172.276-2.311.311-3.466.467-4.802 1.88M25.988 35c-.075-9.225-.481-16.343-.837-20.925-.118-1.514-.188-2.296-.336-2.886-.418-1.672-2.114-1.747-3.543-1.94A28 28 0 0 0 17.5 9c-1.4 0-2.665.1-3.772.25-1.43.192-3.125.267-3.543 1.939-.148.59-.218 1.372-.336 2.887-.356 4.58-.762 11.7-.837 20.924z"/></svg>