<svg xmlns="http://www.w3.org/2000/svg" viewBox="0 0 24 24"><path d="M9.5 15c1.38 0 2.5-1.175 2.5-2.625 0-1.099-1.435-3.044-2.131-3.923a.467.467 0 0 0-.738 0C8.436 9.331 7 11.276 7 12.375 7 13.825 8.12 15 9.5 15"/><path fill-rule="evenodd" d="m15.99 19-.013-1.074A3.5 3.5 0 0 0 22 15.5V8a1 1 0 0 0-.293-.707l-3-3a1 1 0 1 0-1.414 1.414l1.616 1.616A2 2 0 0 0 20 11v4.5a1.5 1.5 0 1 1-2.999 0v-3a1 1 0 0 0-1-1h-.226a145 145 0 0 0-.267-4.19c-.123-1.556-.184-2.334-.907-3.102-.722-.768-1.357-.858-2.627-1.037A18 18 0 0 0 9.5 3c-.92 0-1.75.07-2.473.171-1.27.18-1.905.269-2.627 1.037-.723.768-.784 1.546-.907 3.103C3.29 9.87 3.059 13.846 3.01 19Q3 19.972 3 21h13q0-1.028-.01-2M5.01 19c.049-5.095.278-9.018.477-11.532.066-.838.103-1.232.175-1.52.063-.254.243-.5.499-.589.186-.064.448-.11 1.145-.208C7.944 5.061 8.68 5 9.5 5s1.556.062 2.194.151c.697.099.959.144 1.145.208.255.088.436.335.499.589.072.288.11.682.175 1.52.199 2.514.428 6.437.477 11.532z"/></svg>