<svg xmlns="http://www.w3.org/2000/svg" viewBox="0 0 24 24"><path fill-rule="evenodd" d="M15.977 17.926A209 209 0 0 1 16 21H3q0-1.028.01-2c.049-5.154.28-9.13.483-11.69.123-1.556.184-2.334.907-3.102.722-.768 1.357-.858 2.627-1.037A18 18 0 0 1 9.5 3c.92 0 1.75.07 2.473.171 1.27.18 1.905.269 2.627 1.037.723.768.784 1.546.907 3.102.09 1.129.184 2.532.267 4.19H16a1 1 0 0 1 1 1v3a1.5 1.5 0 0 0 3 0V11a2 2 0 0 1-1.09-3.677l-1.617-1.616a1 1 0 1 1 1.414-1.414l3 3A1 1 0 0 1 22 8v7.5a3.5 3.5 0 0 1-6.023 2.426M9.5 15c1.38 0 2.5-1.175 2.5-2.625 0-1.099-1.435-3.044-2.131-3.923a.467.467 0 0 0-.738 0C8.436 9.331 7 11.276 7 12.375 7 13.825 8.12 15 9.5 15"/></svg>