<svg xmlns="http://www.w3.org/2000/svg" viewBox="0 0 44 44"><path fill-rule="evenodd" d="M23.81 15.804c-1.31-1.242-2.657-2.652-3.734-4.066C18.713 9.95 18 8.43 18 7.36V5.5a1.5 1.5 0 0 0-3 0v1.86c0 1.07-.713 2.59-2.076 4.378-1.31 1.72-3.022 3.435-4.577 4.849C5.742 18.956 4 22.3 4 25.953c0 3.367 1.47 6.566 4.02 8.759Q8 34.853 8 35v3a2 2 0 0 0 2 2h9v-3.936l-.697-.797a11.33 11.33 0 0 1 1.57-16.402zM23.5 11A1.5 1.5 0 0 1 25 9.5h2.5v-4a1.5 1.5 0 0 1 3 0v4H33a1.5 1.5 0 0 1 0 3h-2.5v2c0 .767.477 1.78 1.504 2.97.989 1.145 2.302 2.24 3.54 3.145 2.299 1.682 3.956 4.349 3.956 7.376a8.28 8.28 0 0 1-1.994 5.39l-1.367 1.595a2 2 0 0 1-.139.142V38a2 2 0 0 1-2 2H24a2 2 0 0 1-2-2v-2.882a2 2 0 0 1-.139-.142l-1.367-1.595a8.28 8.28 0 0 1-1.994-5.39c0-3.027 1.657-5.694 3.956-7.376 1.238-.906 2.551-2 3.54-3.145 1.027-1.19 1.504-2.203 1.504-2.97v-2H25a1.5 1.5 0 0 1-1.5-1.5"/></svg>