<svg xmlns="http://www.w3.org/2000/svg" viewBox="0 0 16 16"><path d="M5.999 1a.75.75 0 0 1 .75.75c0 1.465.583 2.362 1.371 3.206-.145.16-.344.35-.615.59l-.165.144c-.775.671-2.341 2.027-2.34 4.33 0 .71.136 1.492.542 2.255.25.468.574.88.958 1.239v.986H3.25a.75.75 0 0 1-.75-.75v-.674c-.475-.404-.833-.845-1.08-1.34-.306-.612-.418-1.255-.418-1.919 0-2.02 1.187-3.183 2.18-4.156l.166-.164C4.39 4.47 5.25 3.53 5.25 1.75A.75.75 0 0 1 6 1"/><path d="M10.75 1a.75.75 0 0 1 .75.75V3h.25a.75.75 0 0 1 0 1.5h-.221c.134.92.71 1.494 1.469 2.167l.15.133c.8.704 1.853 1.628 1.852 3.218 0 .52-.099 1.048-.366 1.552q-.373.705-1.134 1.229v.951a.75.75 0 0 1-.75.75h-4a.75.75 0 0 1-.75-.75v-.951q-.76-.525-1.134-1.229a3.26 3.26 0 0 1-.366-1.552c0-1.59 1.05-2.514 1.851-3.218l.15-.133C9.26 5.994 9.836 5.421 9.97 4.5h-.218a.75.75 0 0 1 0-1.5H10V1.75a.75.75 0 0 1 .75-.75"/></svg>