<svg xmlns="http://www.w3.org/2000/svg" viewBox="0 0 32 32"><path fill-rule="evenodd" d="M27.76 11.533q.025.229.048.471.094-.003.193-.004c.527 0 .96.098 1.272.203.198.067.395.15.573.26.344.213.567.588.59.991q.02.375.032.75c.016.457.032 1.09.032 1.796a52 52 0 0 1-.065 2.546 1.26 1.26 0 0 1-.59.992 2.8 2.8 0 0 1-.572.259 4 4 0 0 1-1.465.199l-.047.47c-.23 2.198-1.948 3.873-4.122 4.101-1.998.21-5.029.433-8.889.433s-6.891-.223-8.889-.433c-2.174-.228-3.892-1.903-4.122-4.1-.128-1.22-.239-2.77-.239-4.467s.111-3.246.24-4.467c.23-2.197 1.947-3.872 4.121-4.1C7.86 7.223 10.89 7 14.75 7s6.891.223 8.889.433c2.174.228 3.892 1.903 4.122 4.1m-18.005.571c1.298-.056 2.988-.104 4.995-.104v8.001c-2.004 0-3.693-.047-4.99-.104-1.398-.06-2.097-.09-2.634-.63s-.562-1.19-.61-2.488a21 21 0 0 1 0-1.567c.05-1.292.075-1.938.612-2.478s1.234-.57 2.627-.63"/></svg>