<svg xmlns="http://www.w3.org/2000/svg" viewBox="0 0 16 16"><path d="M7.25 9.5v-3c-.879 0-1.625.017-2.206.037-.625.021-.938.032-1.207.271a1 1 0 0 0-.108.111C3.5 7.196 3.5 7.464 3.5 8c0 .534 0 .8.226 1.077.029.035.08.089.115.119.268.235.579.246 1.2.267.582.02 1.33.037 2.21.037"/><path fill-rule="evenodd" d="m13.888 10.1.01-.098.097.002c.294 0 .535-.041.71-.086.243-.062.47-.146.62-.364.131-.19.14-.413.147-.633l.004-.086a18 18 0 0 0 0-1.663l-.004-.085c-.008-.22-.016-.443-.146-.633-.15-.218-.378-.302-.621-.364a3 3 0 0 0-.806-.085l-.011-.106a2.456 2.456 0 0 0-2.218-2.193A45 45 0 0 0 7.25 3.5c-1.912 0-3.418.106-4.42.206A2.456 2.456 0 0 0 .612 5.9C.552 6.482.5 7.207.5 8s.051 1.518.112 2.1a2.456 2.456 0 0 0 2.218 2.194c1.002.1 2.508.206 4.42.206s3.418-.106 4.42-.206a2.456 2.456 0 0 0 2.218-2.193m-1.393-2.096q0 .145.003.279c-.01.62-.053 1.19-.102 1.662a.956.956 0 0 1-.876.856c-.957.096-2.413.199-4.27.199s-3.313-.103-4.27-.199a.956.956 0 0 1-.876-.856A19 19 0 0 1 2 8c0-.73.047-1.402.104-1.945A.956.956 0 0 1 2.98 5.2 43 43 0 0 1 7.25 5c1.857 0 3.313.103 4.27.199.476.048.828.4.876.856.05.473.092 1.044.102 1.666q-.003.135-.003.283"/></svg>