<svg xmlns="http://www.w3.org/2000/svg" viewBox="0 0 32 32"><path d="M10.625 19.931v-7.86l-.87.033c-1.393.06-2.09.09-2.627.63s-.562 1.186-.612 2.478a20 20 0 0 0 0 1.567c.048 1.299.073 1.948.61 2.488s1.236.57 2.634.63q.407.019.865.034"/><path fill-rule="evenodd" d="M27.76 11.533q.025.229.048.471.094-.003.193-.004c.527 0 .96.098 1.272.203.198.067.395.15.573.26.344.213.567.588.59.991q.02.375.032.75c.016.457.032 1.09.032 1.796a52 52 0 0 1-.065 2.546 1.26 1.26 0 0 1-.59.992 2.8 2.8 0 0 1-.572.259 4 4 0 0 1-1.465.199l-.047.47c-.23 2.198-1.948 3.873-4.122 4.101-1.998.21-5.029.433-8.889.433s-6.891-.223-8.889-.433c-2.174-.228-3.892-1.903-4.122-4.1-.128-1.22-.239-2.77-.239-4.467s.111-3.246.24-4.467c.23-2.197 1.947-3.872 4.121-4.1C7.86 7.223 10.89 7 14.75 7s6.891.223 8.889.433c2.174.228 3.892 1.903 4.122 4.1M25.5 16c0-1.591-.105-3.051-.226-4.206-.104-1-.873-1.767-1.896-1.875-1.92-.202-4.864-.419-8.628-.419s-6.708.217-8.628.42c-1.023.107-1.792.874-1.896 1.874A41 41 0 0 0 4 16c0 1.591.105 3.051.226 4.206.104 1 .874 1.768 1.896 1.875 1.92.201 4.864.419 8.628.419s6.708-.218 8.628-.42c1.023-.106 1.792-.874 1.896-1.874.121-1.155.226-2.615.226-4.206"/></svg>