<svg xmlns="http://www.w3.org/2000/svg" viewBox="0 0 24 24"><path d="M12.408 6.385a1 1 0 1 0-1.846-.77l-2.5 6A1 1 0 0 0 8.985 13h2.386l-1.68 5.384c-.088.285.12.616.418.616.368 0 .487-.184.64-.479l2.843-5.497.288-.578A1 1 0 0 0 12.985 11h-2.5z"/><path d="m6.216 10.847 2.42-5.808a60 60 0 0 0-4.262.29 3.57 3.57 0 0 0-3.193 3.2C1.084 9.477 1 10.68 1 12s.084 2.524.18 3.47a3.57 3.57 0 0 0 3.194 3.2 57 57 0 0 0 3.33.254 2.45 2.45 0 0 1 .076-1.129l.002-.006.875-2.805a3 3 0 0 1-2.441-4.136m8.038-3.694a3 3 0 0 0 .086-2.075 58 58 0 0 1 3.286.25 3.57 3.57 0 0 1 3.193 3.2q.023.228.045.473c.38-.014.764.03 1.128.142.207.063.327.12.45.185.496.28.512.77.529 1.253q0 .053.003.104a35 35 0 0 1 0 2.627l-.003.104c-.017.484-.033.973-.53 1.254a2.3 2.3 0 0 1-.45.185 3.4 3.4 0 0 1-1.127.141q-.022.246-.045.473a3.57 3.57 0 0 1-3.193 3.2 60 60 0 0 1-4.862.308l2.605-5.034.302-.607a3 3 0 0 0-2.202-4.297z"/></svg>