<svg xmlns="http://www.w3.org/2000/svg" viewBox="0 0 32 32"><path d="M15.859 7.096c.638.264.94.995.676 1.633l-2.498 6.023h3.272a1.25 1.25 0 0 1 1.12 1.805l-.18.365-3.929 7.682c-.183.299-.383.393-.644.393a.617.617 0 0 1-.595-.785l2.216-6.962-3.132.002a1.25 1.25 0 0 1-1.155-1.729l3.215-7.752a1.25 1.25 0 0 1 1.634-.675"/><path d="M10.407 7.098a1.237 1.237 0 0 1 1.29 1.24c0 .675-.535 1.228-1.21 1.259a75 75 0 0 0-4.365.322c-1.023.108-1.792.875-1.896 1.875A41 41 0 0 0 4 16c0 1.592.105 3.052.226 4.207.104 1 .874 1.767 1.896 1.874a74 74 0 0 0 3.793.295 1.264 1.264 0 0 1 1.202 1.258c0 .709-.59 1.277-1.298 1.24a76 76 0 0 1-3.958-.306c-2.174-.229-3.892-1.904-4.122-4.1C1.611 19.246 1.5 17.697 1.5 16s.111-3.246.24-4.466c.23-2.198 1.947-3.873 4.121-4.1a78 78 0 0 1 4.546-.336m8.231 1.282c0 .671.528 1.221 1.198 1.259 1.411.079 2.6.181 3.542.28 1.023.108 1.792.875 1.896 1.875.121 1.155.226 2.615.226 4.206s-.105 3.052-.226 4.207c-.104 1-.873 1.767-1.896 1.874-1.244.13-2.916.268-4.964.349a1.264 1.264 0 0 0-1.218 1.258c0 .703.58 1.268 1.282 1.241a79 79 0 0 0 5.16-.361c2.175-.229 3.893-1.904 4.123-4.1l.047-.472Q27.9 20 28 20c.527 0 .96-.097 1.273-.203.198-.067.394-.15.572-.259a1.26 1.26 0 0 0 .59-.992q.02-.375.033-.749a52 52 0 0 0-.032-4.342 1.26 1.26 0 0 0-.59-.992 2.8 2.8 0 0 0-.573-.26 4 4 0 0 0-1.465-.198l-.047-.471c-.23-2.198-1.948-3.873-4.122-4.1a76 76 0 0 0-3.7-.293 1.236 1.236 0 0 0-1.301 1.24"/></svg>