<svg xmlns="http://www.w3.org/2000/svg" viewBox="0 0 24 24"><path fill-rule="evenodd" d="M20.864 9.003q-.022-.246-.045-.473a3.57 3.57 0 0 0-3.193-3.2A63 63 0 0 0 11 5c-2.866 0-5.124.169-6.626.33a3.57 3.57 0 0 0-3.193 3.2C1.084 9.476 1 10.68 1 12s.084 2.524.18 3.47a3.57 3.57 0 0 0 3.194 3.2c1.502.161 3.76.33 6.626.33a63 63 0 0 0 6.626-.33 3.57 3.57 0 0 0 3.193-3.2q.023-.227.045-.473c.38.015.764-.03 1.128-.141.207-.063.327-.12.45-.185.532-.3.512-.84.532-1.358a35 35 0 0 0 0-2.626c-.02-.517 0-1.057-.532-1.358a2.3 2.3 0 0 0-.45-.185 3.4 3.4 0 0 0-1.128-.141M19 12a33 33 0 0 0-.17-3.268 1.57 1.57 0 0 0-1.418-1.413A61 61 0 0 0 11 7c-2.788 0-4.974.164-6.412.319A1.57 1.57 0 0 0 3.17 8.732C3.08 9.628 3 10.762 3 12s.08 2.372.17 3.268a1.57 1.57 0 0 0 1.418 1.413C6.026 16.836 8.212 17 11 17s4.974-.164 6.412-.319a1.57 1.57 0 0 0 1.418-1.413c.09-.896.17-2.03.17-3.268"/></svg>