<svg xmlns="http://www.w3.org/2000/svg" viewBox="0 0 32 32"><path fill-rule="evenodd" d="m27.808 12.004-.047-.47c-.23-2.198-1.948-3.873-4.122-4.101C21.64 7.223 18.61 7 14.75 7s-6.891.223-8.889.433c-2.174.228-3.892 1.903-4.122 4.1-.128 1.22-.239 2.77-.239 4.467s.111 3.247.24 4.467c.23 2.197 1.947 3.872 4.121 4.1 1.998.21 5.029.433 8.889.433s6.891-.223 8.889-.433c2.174-.228 3.892-1.903 4.122-4.1l.047-.471Q27.9 20 28 20c.527 0 .96-.098 1.273-.203.198-.067.394-.15.572-.26a1.26 1.26 0 0 0 .59-.991q.02-.375.033-.75a52 52 0 0 0-.032-4.343 1.26 1.26 0 0 0-.59-.99 2.8 2.8 0 0 0-.573-.26 4 4 0 0 0-1.465-.199"/></svg>