<svg xmlns="http://www.w3.org/2000/svg" viewBox="0 0 16 16"><path fill-rule="evenodd" d="m13.898 10.002-.01.098a2.456 2.456 0 0 1-2.218 2.194c-1.002.1-2.508.206-4.42.206s-3.418-.106-4.42-.206A2.456 2.456 0 0 1 .612 10.1 20 20 0 0 1 .5 8c0-.793.051-1.518.112-2.1A2.456 2.456 0 0 1 2.83 3.705c1.002-.1 2.508-.206 4.42-.206s3.418.106 4.42.206A2.456 2.456 0 0 1 13.888 5.9l.01.105.097-.001c.294 0 .535.041.71.086.243.062.47.146.62.364.131.19.14.413.147.633l.004.085a18 18 0 0 1 0 1.663l-.004.086c-.008.22-.016.444-.146.633-.15.218-.378.302-.621.364a3 3 0 0 1-.807.084"/></svg>