<svg xmlns="http://www.w3.org/2000/svg" viewBox="0 0 44 44"><path d="M22.379 12.088a1.5 1.5 0 0 0-2.758-1.181l-4.5 10.503A1.5 1.5 0 0 0 16.5 23.5l4.625-.002-3.185 9.456c-.16.475.134 1.042.76 1.042a.96.96 0 0 0 .865-.533l5.301-10.852a1.5 1.5 0 0 0-1.37-2.11h-4.721z"/><path d="m12.364 20.228 4.365-10.189c-3.742.09-6.753.322-8.899.543-2.903.3-5.202 2.528-5.51 5.464A58 58 0 0 0 2 22c0 2.256.148 4.319.32 5.955.308 2.935 2.607 5.163 5.51 5.463 1.796.185 4.2.378 7.13.489a3.8 3.8 0 0 1 .137-1.91l1.851-5.497H16.5a4.5 4.5 0 0 1-4.136-6.272m12.772-6.958a4.48 4.48 0 0 0 .143-3.167c2.822.112 5.143.299 6.89.48 2.904.299 5.203 2.528 5.511 5.463q.05.472.096.99.335-.035.723-.036c.743 0 1.35.11 1.786.226.266.072.53.16.778.279.478.236.795.708.833 1.239q.032.48.053.959c.025.585.051 1.395.051 2.297a53 53 0 0 1-.104 3.256 1.5 1.5 0 0 1-.833 1.24 4.5 4.5 0 0 1-.778.278A7 7 0 0 1 38.5 27q-.388-.001-.723-.035-.046.518-.096.99c-.308 2.935-2.607 5.163-5.51 5.463-2.262.233-5.487.478-9.516.556l4.952-10.14a4.5 4.5 0 0 0-4.11-6.334h-.172z"/></svg>