<svg xmlns="http://www.w3.org/2000/svg" viewBox="0 0 32 32"><path d="M16.535 8.73a1.25 1.25 0 1 0-2.31-.959l-3.215 7.752a1.25 1.25 0 0 0 1.155 1.73l3.132-.003-2.216 6.962a.617.617 0 0 0 .595.785c.261 0 .46-.094.644-.393l3.928-7.682.181-.365a1.25 1.25 0 0 0-1.12-1.805h-3.272z"/><path d="m8.701 14.566 3.12-7.522a81 81 0 0 0-5.96.389c-2.174.228-3.892 1.903-4.122 4.1-.128 1.22-.239 2.77-.239 4.467s.111 3.247.24 4.467c.23 2.197 1.947 3.872 4.121 4.1 1.214.128 2.81.26 4.741.345a3.05 3.05 0 0 1 .097-1.458l1.181-3.713a3.75 3.75 0 0 1-3.179-5.175m10.143-4.879c.356-.86.37-1.776.102-2.596 1.91.084 3.489.216 4.693.342 2.174.228 3.892 1.903 4.122 4.1l.047.472Q27.902 12 28 12c.527 0 .96.098 1.272.203.198.067.395.15.573.26.344.213.567.588.59.992q.02.374.032.748c.016.458.032 1.092.032 1.797a52 52 0 0 1-.065 2.546 1.26 1.26 0 0 1-.59.992 2.8 2.8 0 0 1-.572.259 4 4 0 0 1-1.465.199l-.047.47c-.23 2.198-1.948 3.873-4.122 4.101a82 82 0 0 1-6.701.409l3.544-6.93.187-.38a3.75 3.75 0 0 0-2.9-5.386z"/></svg>