<svg xmlns="http://www.w3.org/2000/svg" viewBox="0 0 44 44"><path fill-rule="evenodd" d="M37.68 16.045q.05.473.096.99.335-.034.723-.035c.743 0 1.35.11 1.786.226.266.072.53.16.778.279.478.236.795.708.833 1.239q.032.48.053.959c.025.584.051 1.395.051 2.297a53 53 0 0 1-.104 3.256 1.5 1.5 0 0 1-.833 1.24 4.5 4.5 0 0 1-.778.278A7 7 0 0 1 38.5 27q-.388-.001-.723-.035-.046.517-.096.99c-.308 2.935-2.607 5.163-5.51 5.463C29.43 33.7 25.28 34 20 34s-9.43-.3-12.17-.582c-2.903-.3-5.202-2.528-5.51-5.463A58 58 0 0 1 2 22c0-2.256.148-4.318.32-5.955.308-2.935 2.607-5.163 5.51-5.463C10.57 10.3 14.72 10 20 10s9.43.3 12.17.582c2.903.3 5.202 2.528 5.51 5.463M14 27.895v-11.79q-.783.028-1.464.06c-1.93.089-2.894.134-3.633.872-.74.739-.782 1.644-.868 3.454a32 32 0 0 0-.001 3.005c.084 1.818.126 2.726.866 3.466s1.706.784 3.64.873q.68.032 1.46.06"/></svg>