<svg width="32" height="32" viewBox="0 0 32 32" fill="none" xmlns="http://www.w3.org/2000/svg">
<g clip-path="url(#clip0_28728_8262)">
<path d="M21.541 7.48286C19.04 4.95367 17.5343 3.7299 16.8657 3.32724C16.4163 3.08452 15.6735 3.00006 15.0333 3.00003L14.6105 3L14.5852 3.00001L14.287 3L14.2881 3.00221C13.7736 3.00929 13.282 3.03304 12.815 3.06939C10.905 3.21809 9.94995 3.29244 8.27883 4.94652C6.60772 6.60059 6.49757 7.7302 6.27727 9.98943C6.11641 11.6391 6 13.6441 6 16C6 17.9381 6.07824 19.6387 6.19556 21.0994C6.41325 23.8095 6.5221 25.1645 8.27174 26.9023C10.0214 28.6401 11.2861 28.7331 13.8157 28.919C14.5091 28.97 15.2401 29 16 29C16.7599 29 17.491 28.97 18.1844 28.919C20.7139 28.7331 21.9786 28.6401 23.7282 26.9023C25.4778 25.1646 25.5867 23.8096 25.8044 21.0996C25.9217 19.6389 26.0008 17.9382 26.0008 16C26.0008 14.923 26.0255 12.8431 25.6796 12.2281C25.6323 12.144 25.5444 12.0918 25.4391 11.9542C24.8754 11.2175 23.6483 9.6139 21.541 7.48286Z" fill="url(#paint0_linear_28728_8262)"/>
<path fill-rule="evenodd" clip-rule="evenodd" d="M21.8211 14.2727C22.1725 14.2727 22.4574 13.9878 22.4574 13.6363C22.4574 13.2849 22.1725 13 21.8211 13H10.1852C9.83373 13 9.54883 13.2849 9.54883 13.6363C9.54883 13.9878 9.83373 14.2727 10.1852 14.2727H10.2527L10.2376 14.6566C10.2049 15.095 10.1852 15.5472 10.1852 15.9994C10.1852 16.4516 10.2049 16.9038 10.2376 17.3422C10.3634 19.0332 10.4263 19.8788 11.275 20.7275C12.0162 21.4686 12.7549 21.6105 14.0563 21.7184L13.1577 23.7404C13.0149 24.0615 13.1596 24.4376 13.4807 24.5803C13.8019 24.723 14.1779 24.5784 14.3207 24.2573L15.4099 21.8065C15.6068 21.8135 15.805 21.8173 16.0031 21.8173C16.2004 21.8173 16.3977 21.8136 16.5939 21.8066L17.683 24.2573C17.8258 24.5784 18.2018 24.723 18.523 24.5803C18.8441 24.4376 18.9888 24.0615 18.846 23.7404L17.9475 21.7186C19.2504 21.6107 19.9896 21.469 20.7312 20.7275C21.5799 19.8788 21.6428 19.0332 21.7687 17.3422C21.8013 16.9038 21.8211 16.4516 21.8211 15.9994C21.8211 15.5472 21.8013 15.095 21.7687 14.6566L21.7535 14.2727H21.8211ZM17.133 16.0092C17.4845 16.0092 17.7694 16.2941 17.7694 16.6455V18.908C17.7694 19.2595 17.4845 19.5444 17.133 19.5444C16.7816 19.5444 16.4967 19.2595 16.4967 18.908V16.6455C16.4967 16.2941 16.7816 16.0092 17.133 16.0092ZM14.8711 17.1405C15.2225 17.1405 15.5074 17.4254 15.5074 17.7768V18.9081C15.5074 19.2596 15.2225 19.5445 14.8711 19.5445C14.5196 19.5445 14.2347 19.2596 14.2347 18.9081V17.7768C14.2347 17.4254 14.5196 17.1405 14.8711 17.1405Z" fill="white"/>
<path d="M25.6958 12.2459C24.3186 8.36828 20.2795 4.68899 16.8379 3.31055C18.5076 5.53544 17.7585 9.41576 18.7164 10.3844C19.8616 11.5425 23.7653 10.6622 25.6958 12.2459Z" fill="#FFB486"/>
</g>
<defs>
<linearGradient id="paint0_linear_28728_8262" x1="1.36189" y1="5.52778" x2="31.1193" y2="11.4942" gradientUnits="userSpaceOnUse">
<stop stop-color="#FF9B52"/>
<stop offset="1" stop-color="#F4501D"/>
</linearGradient>
<clipPath id="clip0_28728_8262">
<rect width="32" height="32" fill="white"/>
</clipPath>
</defs>
</svg>
