<svg width="44" height="44" viewBox="0 0 44 44" fill="none" xmlns="http://www.w3.org/2000/svg">
<g clip-path="url(#clip0_28728_8257)">
<path d="M29.7559 10.207C26.2539 6.70508 24.1455 5.01063 23.2094 4.4531C22.58 4.11703 21.54 4.00009 20.6436 4.00005L20.0515 4L20.0162 4.00002L19.5986 4L19.6001 4.00307C18.8797 4.01286 18.1914 4.04574 17.5375 4.09608C14.863 4.30197 13.5257 4.40492 11.1858 6.69517C8.84587 8.98543 8.69164 10.5495 8.38317 13.6777C8.15793 15.9618 8 18.738 8 22C8 24.7127 8.11192 27.0893 8.27916 29.1264C8.58474 32.8488 8.73754 34.7099 11.1333 37.0922C13.5291 39.4745 15.2799 39.6083 18.7814 39.8759C19.7996 39.9537 20.8773 40 22 40C23.1228 40 24.2005 39.9537 25.2188 39.8759C28.7202 39.6083 30.4708 39.4745 32.8666 37.0923C35.2624 34.71 35.4152 32.8489 35.7208 29.1267C35.8881 27.0896 36 24.7128 36 22C36 20.5088 36.0352 17.6289 35.5508 16.7773C35.4846 16.661 35.3615 16.5887 35.214 16.3981C34.4247 15.3781 32.7065 13.1577 29.7559 10.207Z" fill="url(#paint0_linear_28728_8257)"/>
<path fill-rule="evenodd" clip-rule="evenodd" d="M30.0039 19.875C30.4872 19.875 30.8789 19.4832 30.8789 19C30.8789 18.5168 30.4872 18.125 30.0039 18.125H14.0039C13.5207 18.125 13.1289 18.5168 13.1289 19C13.1289 19.4832 13.5207 19.875 14.0039 19.875H14.0968L14.076 20.1539C14.0311 20.7566 14.0039 21.3784 14.0039 22.0002C14.0039 22.622 14.0311 23.2438 14.076 23.8466C14.249 26.1719 14.3355 27.3346 15.5025 28.5016C16.5216 29.5207 17.5374 29.7158 19.327 29.8642L18.0913 32.6445C17.895 33.0861 18.0939 33.6032 18.5355 33.7995C18.9771 33.9957 19.4942 33.7969 19.6904 33.3553L21.1882 29.9854C21.459 29.995 21.7315 30.0002 22.0039 30.0002C22.2752 30.0002 22.5465 29.9951 22.8162 29.9855L24.3139 33.3553C24.5102 33.7969 25.0273 33.9957 25.4689 33.7995C25.9105 33.6032 26.1094 33.0861 25.9131 32.6445L24.6775 29.8645C26.4692 29.7161 27.4856 29.5213 28.5053 28.5016C29.6723 27.3346 29.7588 26.1719 29.9319 23.8466C29.9767 23.2438 30.0039 22.622 30.0039 22.0002C30.0039 21.3784 29.9767 20.7566 29.9319 20.1539L29.911 19.875H30.0039ZM23.5576 22.0137C24.0409 22.0137 24.4326 22.4054 24.4326 22.8887V25.9998C24.4326 26.483 24.0409 26.8748 23.5576 26.8748C23.0744 26.8748 22.6826 26.483 22.6826 25.9998V22.8887C22.6826 22.4054 23.0744 22.0137 23.5576 22.0137ZM20.4473 23.5693C20.9305 23.5693 21.3223 23.9611 21.3223 24.4443V25.9999C21.3223 26.4831 20.9305 26.8749 20.4473 26.8749C19.964 26.8749 19.5723 26.4831 19.5723 25.9999V24.4443C19.5723 23.9611 19.964 23.5693 20.4473 23.5693Z" fill="white"/>
<path d="M35.5711 16.8017C33.6427 11.4327 27.987 6.3383 23.168 4.42969C25.506 7.51031 24.457 12.8831 25.7983 14.2243C27.4018 15.8278 32.868 14.6089 35.5711 16.8017Z" fill="#FFB486"/>
</g>
<defs>
<linearGradient id="paint0_linear_28728_8257" x1="1.50692" y1="7.5" x2="43.1298" y2="15.9379" gradientUnits="userSpaceOnUse">
<stop stop-color="#FF9B52"/>
<stop offset="1" stop-color="#F4501D"/>
</linearGradient>
<clipPath id="clip0_28728_8257">
<rect width="44" height="44" fill="white"/>
</clipPath>
</defs>
</svg>
