<svg xmlns="http://www.w3.org/2000/svg" viewBox="0 0 16 16"><path d="M4.64 6.64c-.109.11-.117.219-.133.437a2.4 2.4 0 0 0 0 .346c.016.218.024.327.134.436.109.11.218.118.436.134a2.4 2.4 0 0 0 .346 0c.218-.016.327-.024.436-.134.11-.109.118-.218.134-.436a2.4 2.4 0 0 0 0-.346c-.016-.218-.024-.327-.134-.436-.109-.11-.218-.118-.436-.134a2.4 2.4 0 0 0-.346 0c-.218.016-.327.024-.436.134m2.616.436c.016-.218.024-.327.134-.436.109-.11.218-.118.436-.134a2.4 2.4 0 0 1 .346 0c.218.016.327.024.437.134.109.109.117.218.133.436a2.4 2.4 0 0 1 0 .346c-.016.218-.024.327-.133.436-.11.11-.219.118-.437.134a2.4 2.4 0 0 1-.346 0c-.218-.016-.327-.024-.436-.134-.11-.109-.118-.218-.134-.436a2.4 2.4 0 0 1 0-.346M6.14 8.14c-.109.11-.117.219-.133.437a2.4 2.4 0 0 0 0 .346c.016.218.024.327.134.437.109.109.218.117.436.133a2.4 2.4 0 0 0 .346 0c.218-.016.327-.024.436-.133.11-.11.118-.219.134-.437a2.4 2.4 0 0 0 0-.346c-.016-.218-.024-.327-.134-.437-.109-.109-.218-.117-.436-.133a2.4 2.4 0 0 0-.346 0c-.218.016-.327.024-.436.133m2.499 0c-.109.11-.117.219-.133.437a2.4 2.4 0 0 0 0 .346c.016.218.024.327.133.437s.219.117.437.133a2.4 2.4 0 0 0 .346 0c.218-.016.327-.024.437-.133s.117-.219.133-.437a2.4 2.4 0 0 0 0-.346c-.016-.218-.024-.327-.133-.437s-.219-.117-.437-.133a2.4 2.4 0 0 0-.346 0c-.218.016-.327.024-.437.133m1.5-1.5c-.109.11-.117.219-.133.437a2 2 0 0 0 0 .346c.016.218.024.327.133.436.11.11.219.118.437.134a2.4 2.4 0 0 0 .346 0c.218-.016.327-.024.437-.134.109-.109.117-.218.133-.436a2 2 0 0 0 0-.346c-.016-.218-.024-.327-.133-.436-.11-.11-.219-.118-.437-.134a2.4 2.4 0 0 0-.346 0c-.218.016-.327.024-.437.134"/><path fill-rule="evenodd" d="M1.289 11.5c-.13-.435-.173-.925-.228-1.574a17 17 0 0 1 0-2.852c.035-.413.065-.762.116-1.074C1.412 4.561 2.57 3.464 4 3.24c.32-.051.678-.082 1.1-.12C5.92 3.05 6.888 3 8 3s2.079.049 2.899.12c.423.037.782.069 1.101.12 1.429.224 2.589 1.321 2.823 2.76.051.312.08.661.116 1.075a17 17 0 0 1 0 2.85c-.055.649-.097 1.14-.228 1.575h.539a.75.75 0 0 1 0 1.5H.75a.75.75 0 0 1 0-1.5zm3.942-6.885C6.008 4.547 6.931 4.5 8 4.5c1.068 0 1.991.047 2.768.115.764.067 1.488.068 2.054.636.55.55.559 1.206.622 1.951a15.4 15.4 0 0 1 0 2.596c-.06.715-.095 1.033-.174 1.286a1.2 1.2 0 0 1-.224.416H2.955a1.2 1.2 0 0 1-.224-.415c-.08-.254-.114-.571-.175-1.286a15.4 15.4 0 0 1 0-2.598c.063-.745.073-1.4.622-1.95.566-.568 1.29-.57 2.053-.636"/></svg>