<svg xmlns="http://www.w3.org/2000/svg" viewBox="0 0 24 24"><path d="M7.187 10.187c-.146.146-.156.292-.178.582a3 3 0 0 0 0 .462c.022.29.032.436.178.582s.292.156.582.178a3 3 0 0 0 .462 0c.29-.022.436-.032.582-.178s.156-.292.178-.582a3 3 0 0 0 0-.462c-.022-.29-.032-.436-.178-.582s-.292-.156-.582-.178a3 3 0 0 0-.462 0c-.29.022-.436.032-.582.178m3.822.583c.022-.291.032-.437.178-.583s.292-.156.582-.178a3 3 0 0 1 .462 0c.29.022.436.032.582.178s.156.292.178.582a3 3 0 0 1 0 .462c-.022.29-.032.436-.178.582s-.292.156-.582.178a3 3 0 0 1-.462 0c-.29-.022-.436-.032-.582-.178s-.156-.292-.178-.582a3 3 0 0 1 0-.462m-1.822 1.418c-.146.146-.156.292-.178.582a3 3 0 0 0 0 .462c.022.29.032.436.178.582s.292.156.582.178a3 3 0 0 0 .462 0c.29-.022.436-.032.582-.178s.156-.292.178-.582a3 3 0 0 0 0-.462c-.022-.29-.032-.436-.178-.582s-.292-.156-.582-.178a3 3 0 0 0-.462 0c-.29.022-.436.032-.582.178m4 0c-.146.146-.156.292-.178.582a3 3 0 0 0 0 .462c.022.29.032.436.178.582s.292.156.582.178a3 3 0 0 0 .462 0c.29-.022.436-.032.582-.178s.156-.292.178-.582a3 3 0 0 0 0-.462c-.022-.29-.032-.436-.178-.582s-.292-.156-.582-.178a3 3 0 0 0-.462 0c-.29.022-.436.032-.582.178m2-2c-.146.146-.156.292-.178.582a3 3 0 0 0 0 .462c.022.29.032.436.178.582s.292.156.582.178a3 3 0 0 0 .462 0c.29-.022.436-.032.582-.178s.156-.292.178-.582a3 3 0 0 0 0-.462c-.022-.29-.032-.436-.178-.582s-.291-.156-.582-.178a3 3 0 0 0-.462 0c-.29.022-.436.032-.582.178"/><path fill-rule="evenodd" d="M2 17h.32c-.12-.544-.17-1.16-.235-1.93a25 25 0 0 1 0-4.14c.08-.965.141-1.69.34-2.333.428-1.387 1.69-2.64 3.075-3.068.668-.207 1.429-.273 2.443-.361C9.096 5.068 10.448 5 11.998 5s2.902.068 4.054.168c1.015.088 1.776.154 2.445.36 1.385.43 2.647 1.682 3.075 3.069.199.644.26 1.37.34 2.335a25 25 0 0 1 0 4.137v.002c-.064.768-.116 1.385-.235 1.929H22a1 1 0 1 1 0 2H2a1 1 0 1 1 0-2m9.998-10a45 45 0 0 0-3.882.16c-1.078.094-1.601.149-2.022.278-.76.235-1.52.981-1.756 1.742-.123.394-.173.879-.26 1.916a23 23 0 0 0 0 3.808c.087 1.037.202 1.703.325 2.096h15.191c.123-.394.238-1.06.325-2.097a23 23 0 0 0 0-3.805c-.087-1.038-.137-1.524-.26-1.918-.237-.76-.996-1.507-1.756-1.742-.42-.13-.944-.184-2.023-.278A45 45 0 0 0 11.998 7"/></svg>