<svg xmlns="http://www.w3.org/2000/svg" viewBox="0 0 16 16"><path fill-rule="evenodd" d="M8 4.25a.75.75 0 0 1-1.5 0c-.013-.19-.054-.391-.165-.55-.064-.091-.116-.115-.16-.126A2.5 2.5 0 0 0 5.58 3.5c-.206 0-.407.028-.594.074-.045.01-.097.035-.16.126-.074.104-.144.28-.163.51A50 50 0 0 0 4.5 7.5h9.75a.75.75 0 0 1 0 1.5h-.244q-.01.195-.025.385c-.13 1.742-.196 2.613-1.07 3.488s-1.748.94-3.495 1.071a18 18 0 0 1-2.831 0c-1.747-.13-2.62-.196-3.495-1.071s-.94-1.746-1.07-3.488Q2.005 9.194 1.994 9H1.75a.75.75 0 0 1 0-1.5H3c.025-1.472.101-2.612.168-3.415.075-.909.578-1.754 1.465-1.969.285-.069.604-.116.947-.116s.662.047.947.116C7.47 2.344 8 3.331 8 4.25M3.497 9l.018.273c.138 1.843.216 2.12.635 2.54s.698.497 2.547.635c.43.033.87.052 1.303.052.434 0 .873-.02 1.304-.052 1.848-.138 2.127-.216 2.546-.636s.497-.696.635-2.539L12.504 9z"/></svg>