<svg xmlns="http://www.w3.org/2000/svg" viewBox="0 0 24 24"><path fill-rule="evenodd" d="M3 6.402a3.4 3.4 0 0 0 2.128 3.154q-.033.385-.065.83c-.04.527-.063 1.071-.063 1.616 0 .543.024 1.088.063 1.615q.033.443.064.827a3.402 3.402 0 1 0 4.429 4.43q.384.032.828.064c.528.04 1.072.064 1.616.064s1.088-.024 1.616-.064q.444-.032.828-.064a3.402 3.402 0 1 0 4.428-4.43q.033-.383.065-.827c.04-.527.063-1.072.063-1.616s-.024-1.088-.063-1.615q-.032-.445-.065-.83a3.403 3.403 0 1 0-4.429-4.427q-.384-.032-.827-.064A22 22 0 0 0 12 5c-.544 0-1.088.024-1.616.064q-.443.032-.827.064A3.403 3.403 0 0 0 3 6.402m11.274.72c-.232-.02-.498-.04-.807-.063-.486-.036-.98-.058-1.467-.058s-.98.022-1.467.058q-.46.034-.806.063A3.41 3.41 0 0 1 7.12 9.727c-.02.232-.04.498-.063.807-.037.487-.058.98-.058 1.467s.021.981.058 1.468q.033.459.063.805a3.41 3.41 0 0 1 2.606 2.607q.346.03.806.063c.486.036.98.058 1.467.058s.98-.022 1.467-.058q.46-.034.806-.063a3.41 3.41 0 0 1 2.606-2.607q.03-.346.063-.805c.037-.487.058-.98.058-1.467s-.021-.981-.058-1.468a73 73 0 0 0-.063-.807 3.41 3.41 0 0 1-2.605-2.605"/></svg>