<svg xmlns="http://www.w3.org/2000/svg" viewBox="0 0 16 16"><path fill-rule="evenodd" d="m12.448 6.814.011.146a14 14 0 0 1 .001 2.083l-.012.143a2.5 2.5 0 1 1-3.261 3.263l-.145.011Q8.53 12.5 8 12.5c-.35 0-.701-.014-1.041-.04l-.146-.01a2.5 2.5 0 1 1-3.26-3.264l-.011-.143q-.04-.512-.041-1.042c0-.35.015-.701.04-1.041l.012-.146a2.5 2.5 0 1 1 3.262-3.26l.144-.011a14 14 0 0 1 2.083-.001l.143.011a2.5 2.5 0 1 1 3.263 3.26M4.5 5.5a1 1 0 1 0 0-2 1 1 0 0 0 0 2m.538 1.571.01-.131c.94-.21 1.681-.95 1.892-1.892l.13-.01c.31-.023.623-.036.93-.036a13 13 0 0 1 1.06.046c.21.941.952 1.682 1.893 1.892l.01.131c.023.31.037.623.037.93s-.014.621-.037.93l-.01.129a2.5 2.5 0 0 0-1.893 1.895l-.13.01c-.309.022-.622.036-.93.036-.307 0-.62-.014-.93-.037l-.13-.01A2.5 2.5 0 0 0 5.047 9.06l-.01-.129a12 12 0 0 1 .001-1.86M11.5 12.5a1 1 0 1 0 0-2 1 1 0 0 0 0 2m-6-1a1 1 0 1 1-2 0 1 1 0 0 1 2 0m7-7a1 1 0 1 1-2 0 1 1 0 0 1 2 0"/></svg>