<svg xmlns="http://www.w3.org/2000/svg" viewBox="0 0 16 16"><path fill-rule="evenodd" d="M2 4.45a2.45 2.45 0 0 0 1.559 2.283l-.017.227C3.516 7.3 3.5 7.65 3.5 8s.015.702.04 1.042l.018.224a2.45 2.45 0 1 0 3.173 3.176l.227.017a14 14 0 0 0 2.083 0l.23-.017a2.45 2.45 0 1 0 3.17-3.177l.017-.223q.04-.512.041-1.042a14 14 0 0 0-.054-1.219 2.45 2.45 0 1 0-3.156-3.22l-.248-.02Q8.53 3.504 8 3.503c-.35 0-.701.015-1.041.04l-.226.018A2.45 2.45 0 0 0 2 4.45m7.167.606L8.93 5.04a12 12 0 0 0-1.86 0l-.246.018a2.45 2.45 0 0 1-1.768 1.767l-.018.247a12 12 0 0 0 0 1.86l.018.245c.867.22 1.549.903 1.769 1.77l.246.018c.309.023.622.037.93.037.307 0 .62-.014.93-.037l.248-.019c.22-.865.9-1.547 1.766-1.769l.018-.245a13 13 0 0 0 .037-.93c0-.307-.014-.62-.037-.93l-.014-.196a2.45 2.45 0 0 1-1.782-1.819"/></svg>