<svg xmlns="http://www.w3.org/2000/svg" viewBox="0 0 24 24"><path fill-rule="evenodd" d="M18.886 9.715c.062.76.114 1.523.114 2.287 0 .762-.052 1.523-.114 2.283a3.5 3.5 0 1 1-4.6 4.602 28 28 0 0 1-2.286.114 28 28 0 0 1-2.286-.114 3.5 3.5 0 1 1-4.6-4.602A28 28 0 0 1 5 12.002c0-.764.052-1.526.114-2.287a3.5 3.5 0 1 1 4.602-4.6c.76-.061 1.52-.114 2.284-.114s1.524.053 2.284.115a3.5 3.5 0 1 1 4.602 4.599M6.5 8a1.5 1.5 0 1 0 0-3 1.5 1.5 0 0 0 0 3m.602 1.948a3.5 3.5 0 0 0 2.846-2.844A26 26 0 0 1 12 7c.686 0 1.369.048 2.052.103a3.5 3.5 0 0 0 2.846 2.844c.055.684.102 1.367.102 2.053s-.047 1.368-.102 2.05a3.5 3.5 0 0 0-2.848 2.85 26 26 0 0 1-2.051.102 26 26 0 0 1-2.051-.102 3.5 3.5 0 0 0-2.847-2.847A26 26 0 0 1 7 12.002c0-.687.047-1.37.102-2.054M17.5 19a1.5 1.5 0 1 0 0-3 1.5 1.5 0 0 0 0 3M8 17.5a1.5 1.5 0 1 1-3 0 1.5 1.5 0 0 1 3 0m11-11a1.5 1.5 0 1 1-3 0 1.5 1.5 0 0 1 3 0"/></svg>