<svg xmlns="http://www.w3.org/2000/svg" viewBox="0 0 16 16"><path d="M11.781 4.199a.726.726 0 0 0-.02-1.056q-.29-.259-.583-.501C9.86 1.55 9.202 1.004 8.002 1.004c-1.2-.001-1.86.544-3.179 1.634q-.293.24-.584.501a.726.726 0 0 0-.02 1.056.78.78 0 0 0 1.065.022q.245-.217.495-.423c1.396-1.154 1.647-1.29 2.222-1.29s.826.138 2.22 1.293q.25.206.494.423a.78.78 0 0 0 1.066-.021"/><path d="M7.998 3.752c.69 0 1.06.316 1.76.945A.75.75 0 0 1 9.25 6c-.38 0-.62-.31-.889-.533-.325-.27-.402-.272-.727-.002-.269.224-.504.535-.885.535a.75.75 0 0 1-.505-1.305c.697-.626 1.062-.943 1.753-.943"/><path fill-rule="evenodd" d="M4.089 12.667A15 15 0 0 1 4 11c0-.64.036-1.195.089-1.666.085-.76.127-1.141.631-1.638.505-.498.914-.538 1.734-.619a16 16 0 0 1 3.092 0c.82.08 1.23.121 1.734.619.504.497.546.877.631 1.638.053.47.089 1.026.089 1.666s-.036 1.196-.089 1.667c-.085.76-.127 1.14-.631 1.637s-.914.538-1.734.619A16 16 0 0 1 8 15c-.562 0-1.085-.032-1.546-.077-.82-.081-1.23-.121-1.734-.619-.503-.497-.546-.877-.631-1.638M8 11.397a.898.898 0 1 0 0-1.796.898.898 0 0 0 0 1.796"/></svg>