<svg xmlns="http://www.w3.org/2000/svg" viewBox="0 0 24 24"><path d="M17.716 6.725A1 1 0 0 0 18 6.004a1 1 0 0 0-.32-.726 31 31 0 0 0-.97-.834C14.736 2.816 13.797 2.001 12.003 2s-2.734.812-4.71 2.438q-.489.4-.973.833l.004-.004-.028.025.024-.021a1 1 0 0 0-.32.733 1 1 0 0 0 .284.714l.001.001a.98.98 0 0 0 1.371.04l.03-.027q.434-.385.877-.75c2.08-1.71 2.475-1.982 3.439-1.981.963 0 1.359.273 3.436 1.986.293.243.587.493.874.75l.03.027a.98.98 0 0 0 1.373-.039M12 16.25a1.25 1.25 0 1 0 0-2.5 1.25 1.25 0 0 0 0 2.5"/><path fill-rule="evenodd" d="M16.895 13.563c-.11-1.205-.164-1.808-.936-2.577-.771-.769-1.362-.82-2.544-.924a16.3 16.3 0 0 0-2.83 0c-1.181.104-1.773.155-2.544.924-.772.77-.827 1.372-.936 2.577A27 27 0 0 0 7 16c0 .932.043 1.745.105 2.438.11 1.204.164 1.807.936 2.576.771.769 1.362.82 2.544.924a16.3 16.3 0 0 0 2.83 0c1.182-.104 1.773-.155 2.544-.924.772-.77.827-1.372.936-2.576.063-.693.105-1.506.105-2.438s-.042-1.744-.105-2.437m-7.798 4.694A25 25 0 0 1 9 16a25 25 0 0 1 .17-2.969c.025-.176.047-.27.064-.325a.4.4 0 0 1 .044-.098 1.2 1.2 0 0 1 .175-.205c.11-.11.177-.157.209-.178a.4.4 0 0 1 .091-.04c.051-.017.14-.038.31-.06.18-.025.388-.043.696-.07a14.3 14.3 0 0 1 2.482 0c.308.027.517.045.695.07.17.022.26.043.31.06a.4.4 0 0 1 .092.04c.033.02.1.068.21.178.108.108.155.174.175.205a.4.4 0 0 1 .043.098c.017.055.04.149.064.325A25 25 0 0 1 15 16a25 25 0 0 1-.17 2.97 2 2 0 0 1-.064.324.4.4 0 0 1-.043.098 1.2 1.2 0 0 1-.176.205c-.11.11-.177.157-.209.178a.4.4 0 0 1-.091.04 2 2 0 0 1-.31.06c-.179.025-.387.043-.695.07a14.3 14.3 0 0 1-2.483 0 16 16 0 0 1-.696-.07 2 2 0 0 1-.31-.06.4.4 0 0 1-.091-.04 1.3 1.3 0 0 1-.21-.178 1.2 1.2 0 0 1-.174-.205.4.4 0 0 1-.044-.098 2 2 0 0 1-.063-.325 17 17 0 0 1-.074-.712"/><path d="M14.007 6.786C13.239 6.25 12.742 6 11.998 6c-.743 0-1.239.248-2.005.78-.446.31-1 .6-1 1.22a1 1 0 0 0 1.623.782.2.2 0 0 0 .044-.024c.58-.414.844-.579 1.056-.686A.5.5 0 0 1 11.998 8c.104 0 .154.01.281.073.214.108.479.274 1.06.69a.2.2 0 0 0 .06.03A1 1 0 0 0 15.007 8c0-.623-.553-.903-1-1.214"/></svg>