<svg xmlns="http://www.w3.org/2000/svg" viewBox="0 0 16 16"><path d="M5.892 3.221a.75.75 0 1 1 1.06 1.062l-1.758 1.76c-.741.74-1.188 1.193-1.468 1.56-.13.17-.185.273-.208.33-.018.043-.018.058-.018.066v.002c0 .008 0 .023.018.066.023.057.079.16.208.33.28.367.727.819 1.468 1.56l1.759 1.76a.75.75 0 0 1-1.061 1.061l-1.759-1.76C2.711 9.597 2 8.885 2 8s.711-1.596 2.133-3.019zm5.5 0a.75.75 0 1 1 1.06 1.062l-1.758 1.76c-.741.74-1.188 1.193-1.468 1.56-.13.17-.185.273-.208.33C9 7.976 9 7.991 9 7.999v.002c0 .008 0 .023.018.066.023.057.079.16.208.33.28.367.727.819 1.468 1.56l1.759 1.76a.75.75 0 0 1-1.061 1.061l-1.759-1.76C8.211 9.597 7.5 8.885 7.5 8s.711-1.596 2.133-3.019z"/></svg>