<svg xmlns="http://www.w3.org/2000/svg" viewBox="0 0 24 24"><path d="M17.716 6.704a.99.99 0 0 1-1.385.029l-.03-.028q-.346-.319-.7-.623C13.513 4.284 12.995 4 11.998 4S10.49 4.282 8.4 6.077q-.354.304-.701.622l-.03.028A1 1 0 0 1 7 7a1 1 0 0 1-.715-.302A1 1 0 0 1 6 6a1 1 0 0 1 .309-.74q.391-.36.788-.7C9.085 2.852 10.145 1.999 11.999 2s2.92.856 4.907 2.566q.395.34.786.701A1 1 0 0 1 18 6a1 1 0 0 1-.285.704"/><path d="m17.692 5.267-.004-.004.028.026zM6.309 5.26l-.024.023.028-.027zm3.325 1.883C10.524 6.385 11.087 6 12.007 6s1.47.385 2.359 1.143c.35.3.64.644.634 1.033-.004.197-.083.406-.27.626-.526.618-1.125.321-1.623-.103-.4-.341-.618-.507-.795-.61 0 0-.132-.089-.312-.089s-.312.088-.312.088c-.177.104-.396.27-.795.61-.498.425-1.097.722-1.623.104-.187-.22-.266-.429-.27-.626-.007-.39.284-.734.634-1.033"/><path fill-rule="evenodd" d="M12 10c-.548 0-.992.246-1.404.589-.39.325-.821.799-1.338 1.368l-1.114 1.225-2.24 2.464a3 3 0 0 0-.256.31c-.083.127-.223.398-.099.724a.79.79 0 0 0 .552.473c.125.033.277.049.395.061q.36.038.723.066.01.27.028.534l.007.109c.085 1.295.145 2.211 1.012 3.071s1.739.91 2.97.98c.247.015.506.026.764.026s.516-.011.765-.025c1.23-.071 2.102-.121 2.968-.98.868-.86.928-1.777 1.013-3.072l.007-.11q.018-.262.028-.533.362-.03.723-.066c.118-.012.27-.028.395-.061a.79.79 0 0 0 .552-.473c.124-.326-.016-.597-.099-.723-.071-.109-.175-.222-.256-.311a2271 2271 0 0 1-3.354-3.69c-.517-.568-.948-1.042-1.338-1.367C12.992 10.246 12.548 10 12 10m-1.552 3.33c.46-.51.77-.852 1.034-1.073.252-.213.397-.257.518-.257s.266.044.518.257c.264.221.574.564 1.034 1.074L16 16.047q-.249.021-.565.043a.506.506 0 0 0-.471.506q-.002.431-.03.853c-.08 1.202-.124 1.579-.55 2.005-.428.428-.774.466-1.885.53a9 9 0 0 1-.998 0c-1.112-.064-1.457-.102-1.886-.53-.426-.426-.47-.803-.549-2.005-.018-.28-.03-.567-.03-.853a.506.506 0 0 0-.47-.506A30 30 0 0 1 8 16.047z"/></svg>