<svg xmlns="http://www.w3.org/2000/svg" viewBox="0 0 24 24"><path d="M17.716 6.704a.99.99 0 0 1-1.385.029l-.03-.028q-.346-.319-.7-.623C13.513 4.284 12.995 4 11.998 4S10.49 4.282 8.4 6.077q-.354.304-.701.622l-.03.028A1 1 0 0 1 7 7a1 1 0 0 1-.715-.302A1 1 0 0 1 6 6a1 1 0 0 1 .309-.74q.391-.36.788-.7C9.085 2.852 10.145 1.999 11.999 2s2.92.856 4.907 2.566q.395.34.786.701A1 1 0 0 1 18 6a1 1 0 0 1-.285.704"/><path d="m17.692 5.267-.004-.004.028.026zM6.309 5.26l-.024.023.028-.027zm3.325 1.883C10.524 6.385 11.087 6 12.007 6s1.47.385 2.359 1.143c.35.3.64.644.634 1.033-.004.197-.083.406-.27.626-.526.618-1.125.321-1.623-.103-.4-.341-.618-.507-.795-.61 0 0-.132-.089-.312-.089s-.312.088-.312.088c-.177.104-.396.27-.795.61-.498.425-1.097.722-1.623.104-.187-.22-.266-.429-.27-.626-.007-.39.284-.734.634-1.033"/><path fill-rule="evenodd" d="M10.596 10.589c.412-.343.856-.589 1.404-.589s.992.246 1.404.589c.39.325.821.799 1.338 1.368q1.676 1.845 3.354 3.689c.081.089.185.202.256.31.083.127.223.398.099.724a.79.79 0 0 1-.552.473 3 3 0 0 1-.395.061q-.36.038-.723.066-.01.27-.028.534l-.007.109c-.085 1.295-.145 2.211-1.012 3.071s-1.739.91-2.97.98c-.248.015-.506.026-.764.026s-.517-.011-.765-.025c-1.23-.071-2.102-.121-2.969-.98-.867-.86-.927-1.777-1.012-3.072l-.007-.11a19 19 0 0 1-.028-.533q-.363-.03-.723-.066a3 3 0 0 1-.395-.061.79.79 0 0 1-.552-.473c-.124-.326.016-.597.099-.723.071-.109.174-.222.256-.311q1.678-1.844 3.354-3.69c.517-.568.948-1.042 1.338-1.367"/></svg>