<svg xmlns="http://www.w3.org/2000/svg" viewBox="0 0 16 16"><path fill-rule="evenodd" d="M2.467 2.468c-.365.365-.392.729-.446 1.456a8 8 0 0 0 0 1.154c.054.727.08 1.09.446 1.455.364.365.728.392 1.455.446a8 8 0 0 0 1.154 0c.727-.054 1.09-.081 1.455-.446s.392-.728.446-1.455a8 8 0 0 0 0-1.154c-.054-.727-.081-1.09-.446-1.456-.365-.364-.728-.391-1.455-.445a8 8 0 0 0-1.154 0c-.727.054-1.09.08-1.456.445m7 0c-.364.365-.391.729-.445 1.455a8 8 0 0 0 0 1.155c.054.727.081 1.09.446 1.455s.728.392 1.455.446a8 8 0 0 0 1.154 0c.727-.054 1.09-.081 1.455-.446s.392-.728.446-1.455a8 8 0 0 0 0-1.155c-.054-.726-.081-1.09-.446-1.455-.365-.364-.728-.391-1.455-.445a8 8 0 0 0-1.154 0c-.727.054-1.09.08-1.455.445m-7.445 8.455c.054-.727.081-1.09.446-1.455.365-.364.728-.391 1.455-.445a8 8 0 0 1 1.154 0c.726.054 1.09.08 1.454.445.365.365.392.728.446 1.455a8 8 0 0 1 0 1.154c-.054.727-.081 1.09-.446 1.455-.364.364-.728.391-1.454.445a8 8 0 0 1-1.154 0c-.727-.054-1.09-.08-1.455-.445s-.392-.728-.446-1.455a8 8 0 0 1 0-1.154m9.713.812c-.185.184-.198.367-.225.733a4 4 0 0 0 0 .564c.027.366.04.549.225.733.184.184.367.198.733.224a4 4 0 0 0 .563 0c.366-.026.55-.04.733-.224.185-.184.198-.367.225-.733a4 4 0 0 0 0-.564c-.027-.366-.04-.549-.225-.733-.184-.184-.367-.197-.733-.224a4 4 0 0 0-.563 0c-.366.027-.55.04-.733.224M10.5 11.25a.75.75 0 0 1 .75-.75h2a.75.75 0 1 0 0-1.5h-2A2.25 2.25 0 0 0 9 11.25v2a.75.75 0 1 0 1.5 0z"/></svg>