<svg xmlns="http://www.w3.org/2000/svg" viewBox="0 0 24 24"><path fill-rule="evenodd" d="M4.02 6.879c.063-1.09.096-1.635.66-2.199s1.109-.597 2.199-.66a11 11 0 0 1 1.242 0c1.09.063 1.635.096 2.199.66s.597 1.109.66 2.199a11 11 0 0 1 0 1.242c-.063 1.09-.096 1.635-.66 2.199s-1.109.597-2.199.66a11 11 0 0 1-1.242 0c-1.09-.063-1.635-.096-2.199-.66s-.597-1.109-.66-2.199a11 11 0 0 1 0-1.242m9.66-2.199c-.564.564-.597 1.109-.66 2.199a11 11 0 0 0 0 1.242c.063 1.09.096 1.635.66 2.199s1.11.597 2.199.66a11 11 0 0 0 1.243 0c1.089-.063 1.634-.096 2.198-.66s.597-1.109.66-2.199a11 11 0 0 0 0-1.242c-.063-1.09-.096-1.635-.66-2.199s-1.11-.597-2.198-.66a11 11 0 0 0-1.243 0c-1.09.063-1.635.096-2.199.66M4.02 15.879c.063-1.09.096-1.635.66-2.199s1.109-.597 2.199-.66a11 11 0 0 1 1.242 0c1.09.063 1.635.096 2.199.66s.597 1.11.66 2.199a11 11 0 0 1 0 1.243c-.063 1.089-.096 1.634-.66 2.198s-1.109.597-2.199.66a11 11 0 0 1-1.242 0c-1.09-.063-1.635-.096-2.199-.66s-.597-1.11-.66-2.198a11 11 0 0 1 0-1.243m11.983 1.926c.024-.682.035-1.023.407-1.395s.713-.383 1.395-.407a6 6 0 0 1 .39 0c.682.024 1.023.035 1.395.407s.383.713.407 1.395a6 6 0 0 1 0 .39c-.024.682-.035 1.023-.407 1.395s-.713.383-1.395.407a6 6 0 0 1-.39 0c-.682-.024-1.023-.035-1.395-.407s-.383-.713-.407-1.395a6 6 0 0 1 0-.39M15 16a1 1 0 0 1 1-1h3a1 1 0 1 0 0-2h-3a3 3 0 0 0-3 3v3a1 1 0 1 0 2 0z"/></svg>