<svg xmlns="http://www.w3.org/2000/svg" viewBox="0 0 24 24"><path fill-rule="evenodd" d="m16.5 10.946.237-.222c.342-.326.803-.786 1.266-1.315.46-.526.942-1.142 1.314-1.78.36-.617.683-1.365.683-2.129 0-.794-.318-1.456-.898-1.93-.53-.433-1.217-.663-1.906-.8-1.348-.27-3.177-.27-5.099-.27h-.193c-1.923 0-3.752 0-5.1.27-.689.137-1.376.367-1.906.8C4.318 4.044 4 4.705 4 5.5c0 .764.323 1.512.683 2.129.372.638.855 1.254 1.314 1.78A20 20 0 0 0 7.5 10.945v4.098a22 22 0 0 0 .008.541c.008.353.024.835.057 1.352.032.515.08 1.078.157 1.586.071.476.182 1.02.384 1.424.42.842 1.144 1.23 1.858 1.4.64.153 1.366.153 1.975.153h.123c.608 0 1.334 0 1.974-.152.714-.17 1.437-.559 1.859-1.4.201-.404.312-.95.383-1.425a19 19 0 0 0 .158-1.586 35 35 0 0 0 .064-1.893v-4.098M12 11a1 1 0 0 1 1 1v3a1 1 0 0 1-2 0v-3a1 1 0 0 1 1-1"/></svg>