<svg xmlns="http://www.w3.org/2000/svg" viewBox="0 0 44 44"><path fill-rule="evenodd" d="M29.988 19.542q-.276.27-.488.469v7.419l-.004.364c-.005.31-.013.748-.03 1.262a48 48 0 0 1-.241 3.61c-.124 1.112-.328 2.39-.733 3.225-.677 1.393-1.845 2.051-3.042 2.345-1.076.265-2.303.264-3.352.264h-.196c-1.048 0-2.275 0-3.352-.264-1.197-.294-2.365-.952-3.042-2.345-.405-.834-.608-2.113-.733-3.224a48 48 0 0 1-.24-3.611 67 67 0 0 1-.034-1.626v-7.42q-.212-.199-.489-.47a35 35 0 0 1-2.155-2.305c-.783-.921-1.598-1.994-2.225-3.1-.61-1.075-1.132-2.34-1.132-3.607 0-1.308.504-2.395 1.444-3.187.869-.732 2.01-1.129 3.182-1.37C15.42 5.5 18.542 5.5 21.85 5.5h.302c3.307 0 6.429 0 8.722.472 1.171.241 2.313.638 3.182 1.37.94.792 1.444 1.88 1.444 3.188 0 1.267-.523 2.531-1.133 3.607-.626 1.105-1.441 2.178-2.224 3.1a35 35 0 0 1-2.155 2.305M23.5 22a1.5 1.5 0 0 0-3 0v5a1.5 1.5 0 0 0 3 0z"/></svg>