<svg xmlns="http://www.w3.org/2000/svg" viewBox="0 0 24 24"><path fill-rule="evenodd" d="M6 5.5c0-.206.057-.294.164-.382.159-.13.47-.275 1.032-.387C8.326 4.505 9.958 4.5 12 4.5s3.674.005 4.804.23c.561.113.874.258 1.032.388.107.088.164.176.164.382 0 .236-.114.613-.41 1.121-.285.487-.677.996-1.093 1.47a19 19 0 0 1-1.617 1.623l-.025.022-.005.004-.35.3v5.102l-.008.398c-.007.335-.022.79-.053 1.273-.03.485-.075.985-.139 1.414-.07.462-.146.73-.194.826-.08.158-.201.27-.534.35-.386.091-.882.097-1.572.097s-1.186-.006-1.572-.098c-.333-.08-.455-.191-.534-.35-.048-.096-.125-.363-.194-.825a17 17 0 0 1-.14-1.414 33 33 0 0 1-.06-1.778V10.04l-.349-.299-.006-.005-.025-.022-.102-.09a18 18 0 0 1-1.515-1.532c-.416-.475-.808-.984-1.092-1.47C6.114 6.112 6 5.735 6 5.5m10.737 5.224q-.13.125-.237.222v4.098a20 20 0 0 1-.008.541c-.008.353-.024.835-.056 1.352a19 19 0 0 1-.158 1.586c-.071.476-.182 1.02-.383 1.424-.422.842-1.145 1.23-1.86 1.4-.639.153-1.365.153-1.973.153h-.123c-.609 0-1.335 0-1.975-.152-.714-.17-1.437-.559-1.858-1.4-.202-.404-.313-.95-.384-1.425a19 19 0 0 1-.157-1.586 35 35 0 0 1-.065-1.893v-.043.011-4.066a21 21 0 0 1-1.503-1.538c-.46-.525-.942-1.141-1.314-1.78C4.323 7.013 4 6.265 4 5.5c0-.795.318-1.456.898-1.93.53-.433 1.217-.663 1.906-.8 1.348-.27 3.177-.27 5.1-.27h.193c1.922 0 3.752 0 5.1.27.688.137 1.376.367 1.905.8.58.474.898 1.136.898 1.93 0 .764-.323 1.512-.683 2.129-.372.638-.855 1.254-1.314 1.78-.463.529-.924.989-1.266 1.315M13 12a1 1 0 0 0-2 0v3a1 1 0 1 0 2 0z"/></svg>