<svg xmlns="http://www.w3.org/2000/svg" viewBox="0 0 24 24"><path fill-rule="evenodd" d="M8.094 11.317A3 3 0 0 1 7 9V7a3 3 0 0 1 3-3h4a3 3 0 0 1 3 3v2c0 .933-.426 1.767-1.094 2.317L17.87 13H18a3 3 0 0 1 3 3v1a3 3 0 0 1-3 3h-2a3 3 0 0 1-3-3v-1a3 3 0 0 1 1.997-2.828L13.63 12h-3.26l-1.367 1.172A3 3 0 0 1 11 16v1a3 3 0 0 1-3 3H6a3 3 0 0 1-3-3v-1a3 3 0 0 1 3-3h.13zM10 6h4a1 1 0 0 1 1 1v2a1 1 0 0 1-1 1h-4a1 1 0 0 1-1-1V7a1 1 0 0 1 1-1M5 16a1 1 0 0 1 1-1h2a1 1 0 0 1 1 1v1a1 1 0 0 1-1 1H6a1 1 0 0 1-1-1zm14 0a1 1 0 0 0-1-1h-2a1 1 0 0 0-1 1v1a1 1 0 0 0 1 1h2a1 1 0 0 0 1-1z"/></svg>