<svg xmlns="http://www.w3.org/2000/svg" viewBox="0 0 16 16"><path fill-rule="evenodd" d="M4.5 4.504a2 2 0 0 1 2-2h3a2 2 0 0 1 2 2V6c0 .618-.28 1.17-.72 1.537l1.08.963H12a2 2 0 0 1 2 2v.999a2 2 0 0 1-2 2h-1.502a2 2 0 0 1-2-2V10.5a2 2 0 0 1 1.265-1.86L9.047 8H6.952l-.716.64a2 2 0 0 1 1.265 1.86v1a2 2 0 0 1-2 2H4a2 2 0 0 1-2-2v-1a2 2 0 0 1 2-2h.14l1.08-.964A2 2 0 0 1 4.5 6zm2-.5h3a.5.5 0 0 1 .5.5V6a.5.5 0 0 1-.5.5h-3A.5.5 0 0 1 6 6V4.504a.5.5 0 0 1 .5-.5M4 10h1.5a.5.5 0 0 1 .5.5v1a.5.5 0 0 1-.5.5H4a.5.5 0 0 1-.5-.5v-1A.5.5 0 0 1 4 10m8 0h-1.502a.5.5 0 0 0-.5.5v.999a.5.5 0 0 0 .5.5H12a.5.5 0 0 0 .5-.5V10.5a.5.5 0 0 0-.5-.5"/></svg>