<svg xmlns="http://www.w3.org/2000/svg" viewBox="0 0 16 16"><path d="M2 4.25A2.75 2.75 0 0 1 4.75 1.5a.75.75 0 0 1 0 1.5c-.69 0-1.25.56-1.25 1.25a.75.75 0 0 1-1.5 0m0 7.5a2.75 2.75 0 0 0 2.75 2.75.75.75 0 0 0 0-1.5c-.69 0-1.25-.56-1.25-1.25a.75.75 0 1 0-1.5 0M11.25 1.5A2.75 2.75 0 0 1 14 4.25a.75.75 0 0 1-1.5 0c0-.69-.56-1.25-1.25-1.25a.75.75 0 0 1 0-1.5M14 11.75a2.75 2.75 0 0 1-2.75 2.75.75.75 0 0 1 0-1.5c.69 0 1.25-.56 1.25-1.25a.75.75 0 0 1 1.5 0"/><path fill-rule="evenodd" d="M5.5 8c0 .906.036 1.662.083 2.266.06.777.09 1.165.575 1.652.484.487.787.512 1.394.563a5.4 5.4 0 0 0 .897 0c.606-.05.91-.076 1.393-.563.484-.486.515-.875.575-1.652.048-.604.083-1.36.083-2.266s-.035-1.662-.083-2.266c-.06-.777-.09-1.166-.575-1.652-.484-.487-.787-.512-1.394-.563a5.4 5.4 0 0 0-.896 0c-.607.05-.91.076-1.394.563s-.514.875-.575 1.652C5.536 6.338 5.5 7.094 5.5 8m1.578 2.15A28 28 0 0 1 7 8c0-.866.034-1.583.078-2.149.016-.203.027-.337.04-.45.014-.108.026-.156.032-.175l.002-.007.013-.018a1 1 0 0 1 .152-.15l.04-.006A6 6 0 0 1 8 5q.165 0 .323.014a6 6 0 0 1 .36.037 1 1 0 0 1 .165.168l.002.007c.006.019.018.067.031.175.014.113.025.247.041.45C8.966 6.417 9 7.134 9 8s-.034 1.584-.078 2.15c-.016.203-.027.336-.04.45a1 1 0 0 1-.032.174l-.002.007-.013.018a1 1 0 0 1-.152.15l-.039.006A6 6 0 0 1 8 11q-.165 0-.323-.014a6 6 0 0 1-.36-.037 1.2 1.2 0 0 1-.165-.168l-.002-.007a1 1 0 0 1-.031-.174 11 11 0 0 1-.04-.45"/></svg>