<svg xmlns="http://www.w3.org/2000/svg" viewBox="0 0 24 24"><path fill-rule="evenodd" d="m10.075 8.597-.052-.03-1.144-.664c-2.607-1.513-3.91-2.269-4.894-1.73C3 6.714 3 8.184 3 11.124v1.755c0 2.94 0 4.41.985 4.948.984.54 2.287-.216 4.893-1.728l.001-.001 1.144-.663.052-.03q.503-.292.942-.55c.048 1.655.235 2.571.968 2.973.984.539 2.287-.217 4.893-1.73h.002l1.143-.663.052-.03C20.683 13.89 22 13.125 22 12s-1.317-1.89-3.925-3.403l-.052-.03-1.143-.664h-.002c-2.606-1.513-3.909-2.269-4.893-1.73-.733.402-.92 1.318-.968 2.972z"/></svg>