<svg xmlns="http://www.w3.org/2000/svg" viewBox="0 0 16 16"><path fill-rule="evenodd" d="M13 4.5a1 1 0 1 0-1-1H4a1 1 0 1 0-1 1v7.03a15 15 0 0 1-1.045-.252.75.75 0 0 0-.41 1.444C2.88 13.1 5.161 13.5 8 13.5s5.12-.4 6.455-.778a.75.75 0 0 0-.41-1.444q-.44.127-1.045.252zm-1.5 5.794v1.484A27 27 0 0 1 8 12a27 27 0 0 1-3.5-.222v-1.484c1.025.125 2.193.206 3.5.206a29 29 0 0 0 3.5-.206M6 5.25a.75.75 0 0 0-1.5 0v2a.75.75 0 0 0 1.5 0zm2-.75a.75.75 0 0 1 .75.75v2a.75.75 0 0 1-1.5 0v-2A.75.75 0 0 1 8 4.5m3.5.75a.75.75 0 0 0-1.5 0v2a.75.75 0 0 0 1.5 0z"/></svg>