<svg xmlns="http://www.w3.org/2000/svg" viewBox="0 0 24 24"><path fill-rule="evenodd" d="M19.5 8a1.5 1.5 0 1 0-1.416-1.996H5.916A1.5 1.5 0 1 0 5 7.913v10.499a23 23 0 0 1-1.745-.38 1 1 0 1 0-.51 1.934C4.656 20.47 7.926 21 12 21s7.346-.531 9.255-1.033a1 1 0 0 0-.51-1.934 23 23 0 0 1-1.745.38V7.915q.236.084.5.085M12 17c1.856 0 3.523-.108 5-.278v1.989c-1.44.172-3.126.289-5 .289a42 42 0 0 1-5-.29v-1.989a44 44 0 0 0 5 .28M8 8a1 1 0 0 1 1 1v3a1 1 0 1 1-2 0V9a1 1 0 0 1 1-1m5 1a1 1 0 1 0-2 0v3a1 1 0 1 0 2 0zm4 0a1 1 0 1 0-2 0v3a1 1 0 1 0 2 0z"/></svg>