<svg xmlns="http://www.w3.org/2000/svg" viewBox="0 0 24 24"><path fill-rule="evenodd" d="M21 6.5a1.5 1.5 0 0 1-2 1.415v10.498c.68-.123 1.265-.254 1.746-.38a1 1 0 1 1 .509 1.934C19.346 20.47 16.075 21 12 21s-7.346-.531-9.254-1.033a1 1 0 1 1 .509-1.934c.48.126 1.066.257 1.745.38V7.915a1.5 1.5 0 1 1 .916-1.911h12.168A1.5 1.5 0 0 1 21 6.5M13 8h-2v6.989a45 45 0 0 0 2 0zm2 6.898V8h2v6.708q-.941.114-2 .19M7 8h2v6.898a39 39 0 0 1-2-.19zm10 10.71v-1.989c-1.477.171-3.144.28-5 .28s-3.523-.109-5-.28v1.99c1.44.172 3.127.289 5 .289s3.56-.117 5-.29"/></svg>