<svg xmlns="http://www.w3.org/2000/svg" viewBox="0 0 24 24"><path fill-rule="evenodd" d="M4.702 6.304c-.547 1.01-.585 1.642-.662 2.905a21 21 0 0 0-.001 2.584c.078 1.263.116 1.895.663 2.905.357.662 1.439 1.743 2.1 2.1 1.01.547 1.642.585 2.906.663q.64.04 1.291.04.653 0 1.292-.04c1.264-.078 1.895-.116 2.905-.662q.19-.104.414-.274l3.683 3.682a1 1 0 0 0 1.414-1.414l-3.683-3.683a3 3 0 0 0 .273-.412c.546-1.01.585-1.642.662-2.905a21 21 0 0 0 .001-2.584c-.078-1.263-.117-1.895-.663-2.905-.358-.662-1.439-1.743-2.1-2.101-1.01-.546-1.642-.585-2.906-.662A21 21 0 0 0 11 3.5q-.652.001-1.291.041c-1.264.077-1.896.116-2.905.662-.662.358-1.744 1.44-2.101 2.101m5.128-.767q.587-.036 1.17-.037c.387 0 .78.014 1.169.037 1.241.076 1.483.105 2.076.425l.02.012q.02.012.055.037.071.048.175.132a6 6 0 0 1 .862.863 3 3 0 0 1 .18.25c.321.592.35.834.426 2.075q.037.587.037 1.17c0 .387-.013.78-.037 1.17-.076 1.24-.105 1.483-.425 2.076l-.012.02q-.012.02-.037.054a3 3 0 0 1-.132.175 6 6 0 0 1-.41.452 6 6 0 0 1-.452.41 3 3 0 0 1-.25.181c-.593.32-.835.35-2.076.425q-.587.037-1.17.038c-.387 0-.78-.014-1.17-.038-1.24-.075-1.483-.104-2.075-.425l-.02-.011-.055-.037a3 3 0 0 1-.175-.133 6 6 0 0 1-.452-.41 6 6 0 0 1-.41-.452 3 3 0 0 1-.181-.25c-.32-.592-.35-.835-.425-2.075-.024-.39-.037-.783-.037-1.17q0-.583.037-1.17c.076-1.24.104-1.483.425-2.076l.012-.02.036-.055q.05-.07.133-.174c.112-.14.254-.296.41-.452.157-.157.313-.298.452-.41a3 3 0 0 1 .23-.17l.02-.012c.592-.32.835-.349 2.076-.425"/></svg>