<svg xmlns="http://www.w3.org/2000/svg" viewBox="0 0 28 28"><path fill-rule="evenodd" d="M4.056 10.568c.1-1.57.15-2.356.823-3.6.443-.817 1.772-2.146 2.59-2.589 1.243-.674 2.028-.724 3.599-.823A27 27 0 0 1 12.75 3.5c.566 0 1.13.02 1.684.056 1.57.1 2.356.15 3.6.823.817.443 2.146 1.772 2.589 2.59.674 1.243.723 2.028.823 3.599.035.553.056 1.118.056 1.683q-.001.851-.056 1.684c-.1 1.57-.15 2.356-.823 3.6a5 5 0 0 1-.482.694l4.565 4.564a.997.997 0 0 1 0 1.414.997.997 0 0 1-1.414 0l-4.566-4.564c-.248.201-.487.37-.693.48-1.243.675-2.029.724-3.599.824-.553.035-1.119.056-1.684.056s-1.13-.02-1.683-.056c-1.57-.1-2.356-.15-3.6-.823-.817-.443-2.146-1.772-2.589-2.59-.674-1.243-.724-2.029-.823-3.599A27 27 0 0 1 4 12.251c0-.565.02-1.13.056-1.683m7.138-5.016a25 25 0 0 1 1.557-.052c.518 0 1.04.019 1.557.052 1.551.098 1.947.137 2.774.585.157.086.534.37.973.81.44.44.725.816.81.974.448.827.488 1.222.586 2.773.033.517.052 1.04.052 1.557 0 .518-.02 1.04-.052 1.557-.098 1.551-.138 1.947-.586 2.774-.085.157-.37.534-.81.973-.44.44-.816.725-.973.81-.827.448-1.223.488-2.774.586-.517.033-1.04.052-1.557.052s-1.04-.02-1.557-.052c-1.55-.098-1.946-.138-2.773-.586-.158-.085-.534-.37-.974-.81s-.724-.816-.81-.973c-.448-.827-.487-1.223-.585-2.774A25 25 0 0 1 6 12.251c0-.517.019-1.04.052-1.557.098-1.55.137-1.946.585-2.773.086-.158.37-.534.81-.974s.816-.724.974-.81c.827-.448 1.222-.487 2.773-.585"/></svg>