<svg xmlns="http://www.w3.org/2000/svg" viewBox="0 0 16 16"><path fill-rule="evenodd" d="M3.035 6.033c.056-.793.083-1.19.417-1.803.221-.406.871-1.056 1.277-1.277.613-.334 1.01-.362 1.804-.418.316-.022.641-.035.967-.035q.49.001.967.035c.793.056 1.19.084 1.803.418.406.221 1.056.87 1.277 1.277.335.613.362 1.01.418 1.803.022.317.035.642.035.967s-.013.65-.035.967c-.056.794-.083 1.191-.418 1.804q-.034.063-.082.134l2.315 2.315a.75.75 0 0 1 0 1.06.75.75 0 0 1-1.06 0l-2.315-2.315q-.071.048-.135.083c-.613.334-1.01.361-1.803.417a14 14 0 0 1-.967.035q-.49-.001-.967-.035c-.794-.056-1.19-.083-1.804-.417-.406-.221-1.056-.87-1.277-1.277-.334-.613-.361-1.01-.417-1.803A14 14 0 0 1 3 7q.001-.49.035-.967m3.602-2.001Q7.07 4 7.5 4q.43.001.862.032c.786.055.89.074 1.19.238.008.005.047.03.114.084a3.3 3.3 0 0 1 .48.48c.054.068.079.106.084.114.164.3.184.404.238 1.19q.031.433.032.862c0 .285-.011.575-.032.862-.054.786-.073.89-.237 1.19-.006.009-.03.047-.085.115a3.3 3.3 0 0 1-.594.564c-.3.164-.404.183-1.19.238q-.432.031-.862.032-.43-.001-.863-.032c-.785-.055-.889-.074-1.19-.238a1 1 0 0 1-.113-.084 3.3 3.3 0 0 1-.48-.48 1 1 0 0 1-.085-.114c-.164-.3-.182-.404-.237-1.19A12 12 0 0 1 4.5 7c0-.285.012-.575.032-.862.055-.786.073-.889.237-1.19.005-.008.03-.046.084-.114a3.3 3.3 0 0 1 .594-.564c.3-.164.405-.183 1.19-.238"/></svg>