<svg xmlns="http://www.w3.org/2000/svg" viewBox="0 0 32 32"><path fill-rule="evenodd" d="M4.116 11.298c.146-1.783.219-2.674.943-3.988.49-.887 1.864-2.262 2.75-2.75 1.315-.725 2.206-.798 3.988-.944.878-.071 1.79-.116 2.703-.116s1.825.045 2.703.116c1.782.146 2.673.219 3.987.943.887.49 2.262 1.864 2.75 2.75.725 1.315.798 2.206.944 3.988.071.878.116 1.79.116 2.703s-.045 1.825-.116 2.703c-.146 1.782-.219 2.673-.943 3.987-.1.18-.235.38-.395.588l5.09 5.087a1.246 1.246 0 0 1 0 1.768 1.246 1.246 0 0 1-1.768 0l-5.09-5.087a5 5 0 0 1-.588.395c-1.314.724-2.205.797-3.988.943-.877.071-1.79.116-2.702.116s-1.825-.045-2.703-.116c-1.782-.146-2.673-.219-3.987-.943-.887-.49-2.262-1.864-2.75-2.75-.725-1.315-.798-2.206-.944-3.988A33 33 0 0 1 4 14c0-.912.045-1.825.116-2.703m7.885-5.19A31 31 0 0 1 14.5 6c.833 0 1.676.04 2.499.108 1.788.146 2.187.201 2.984.64.145.08.518.36.964.805s.724.819.804.964c.44.797.495 1.196.641 2.984.067.823.108 1.666.108 2.499s-.04 1.676-.108 2.499c-.146 1.788-.201 2.187-.64 2.984-.08.145-.36.518-.805.964s-.819.724-.964.804c-.797.44-1.196.495-2.984.641-.823.067-1.666.108-2.499.108s-1.676-.04-2.499-.108c-1.788-.146-2.187-.201-2.984-.64-.145-.08-.518-.36-.964-.805s-.724-.819-.804-.964c-.44-.797-.495-1.196-.64-2.984A31 31 0 0 1 6.5 14c0-.833.04-1.676.108-2.499.146-1.788.201-2.187.64-2.984.08-.145.36-.518.805-.964s.819-.724.964-.804c.797-.44 1.196-.495 2.984-.64"/></svg>