<svg xmlns="http://www.w3.org/2000/svg" viewBox="0 0 44 44"><path fill-rule="evenodd" d="M18.553 8.529a37 37 0 0 1 2.894 0c2.455.095 3.878.163 5.014.44.946.23 1.683.606 2.574 1.496s1.267 1.628 1.497 2.574c.276 1.136.344 2.559.44 5.014a37 37 0 0 1 0 2.894c-.096 2.455-.164 3.878-.44 5.014-.23.946-.607 1.683-1.497 2.574s-1.628 1.267-2.574 1.497c-1.136.276-2.559.344-5.014.44a37 37 0 0 1-2.894 0c-2.455-.096-3.878-.164-5.014-.44-.946-.23-1.683-.607-2.574-1.497s-1.267-1.628-1.497-2.574c-.276-1.136-.344-2.559-.44-5.014a37 37 0 0 1 0-2.894c.096-2.455.164-3.878.44-5.014.23-.946.607-1.683 1.497-2.574s1.628-1.267 2.574-1.497c1.136-.276 2.559-.344 5.014-.44M6.031 17.937c.182-4.702.273-7.053 2.813-9.593s4.891-2.63 9.593-2.813a41 41 0 0 1 3.126 0c4.702.182 7.053.273 9.593 2.813s2.63 4.891 2.813 9.593a41 41 0 0 1 0 3.126c-.155 3.998-.244 6.296-1.828 8.456l6.42 6.42a1.5 1.5 0 0 1-2.122 2.121l-6.42-6.42c-2.16 1.585-4.458 1.674-8.456 1.829a41 41 0 0 1-3.126 0c-4.702-.182-7.053-.273-9.593-2.813s-2.63-4.891-2.813-9.593a41 41 0 0 1 0-3.126"/></svg>