<svg xmlns="http://www.w3.org/2000/svg" viewBox="0 0 44 44"><path fill-rule="evenodd" d="M18.46 38.595c.718 1.207 1.453 1.265 2.922 1.38a8 8 0 0 0 1.235 0c1.47-.115 2.205-.173 2.923-1.38s.77-2.623.874-5.454c.102-2.775.19-6.551.19-11.19 1.559-.034 2.914-.083 4.061-.136 2.202-.102 3.303-.153 4.242-.855s.984-1.421 1.074-2.859a10 10 0 0 0 0-1.207c-.09-1.437-.135-2.156-1.074-2.858-.939-.703-2.04-.754-4.241-.856a168 168 0 0 0-4.181-.139q-.033-1.174-.071-2.182c-.104-2.83-.156-4.247-.874-5.454s-1.453-1.265-2.923-1.38a8 8 0 0 0-1.234 0c-1.47.115-2.205.173-2.923 1.38s-.77 2.623-.874 5.454q-.038 1.008-.07 2.182c-1.61.035-3.006.085-4.182.14-2.201.101-3.302.152-4.241.854-.94.703-.984 1.421-1.074 2.859a10 10 0 0 0 0 1.208c.09 1.437.135 2.156 1.074 2.858s2.04.753 4.242.855c1.147.053 2.502.102 4.061.136 0 4.64.087 8.415.19 11.19.104 2.831.156 4.247.874 5.454m2.124-5.563c-.101-2.74-.187-6.428-.187-11.03v-2.986l-2.935-.064a164 164 0 0 1-3.989-.134c-1.171-.054-1.785-.088-2.231-.163a3 3 0 0 1-.178-.036c-.017-.174-.03-.389-.05-.704a7 7 0 0 1 0-.835c.02-.315.033-.53.05-.704q.067-.016.178-.036c.446-.075 1.06-.109 2.23-.163 1.152-.053 2.523-.102 4.107-.136l2.855-.061.08-2.854q.033-1.161.07-2.157c.103-2.807.196-3.498.383-3.896A9 9 0 0 1 22 7c.344 0 .69.035 1.033.072.187.4.28 1.09.383 3.898q.036.995.07 2.156l.08 2.854 2.855.06c1.584.035 2.954.084 4.106.137 1.171.054 1.785.088 2.231.164q.11.018.178.035c.017.174.03.39.05.705a7 7 0 0 1 0 .834c-.02.315-.033.53-.05.704q-.067.016-.178.036c-.446.075-1.06.109-2.232.163-1.123.052-2.454.1-3.988.134l-2.935.064v2.986c0 4.601-.086 8.29-.187 11.029-.103 2.807-.196 3.498-.383 3.897A9 9 0 0 1 22 37c-.344 0-.69-.035-1.033-.072-.187-.4-.28-1.09-.383-3.896"/></svg>