<svg xmlns="http://www.w3.org/2000/svg" viewBox="0 0 24 24"><path fill-rule="evenodd" d="m9.061 9.958 1.942.058v1.942c-.001 2.056.033 4.105.12 6.146.037.83.06 1.288.113 1.626.018.114.036.19.052.24.156.02.38.03.716.03s.56-.01.716-.03c.016-.05.034-.126.052-.24.054-.339.076-.796.112-1.627.088-2.04.122-4.09.122-6.145v-1.943l1.94-.057a78 78 0 0 0 1.905-.078c.322-.018.568-.031.779-.049.15-.012.258-.024.34-.037a9 9 0 0 0 0-1.588 5 5 0 0 0-.34-.037c-.211-.018-.456-.031-.78-.049a79 79 0 0 0-2.015-.081l-1.865-.053-.076-1.864c-.038-.917-.06-1.443-.118-1.825a2 2 0 0 0-.052-.254 7 7 0 0 0-.72-.043q-.33 0-.72.043a2 2 0 0 0-.052.254c-.057.382-.08.908-.118 1.825l-.076 1.864-1.865.053q-1.152.033-2.016.081c-.323.018-.568.031-.779.049-.15.012-.258.024-.34.037a9 9 0 0 0 0 1.588c.082.013.19.025.34.038.211.017.457.03.78.048q.821.046 1.903.078m5.945 2q1.107-.035 1.952-.081c1.26-.068 1.889-.102 2.426-.57.411-.359.523-.724.575-1.307.06-.663.06-1.337 0-2-.052-.583-.163-.948-.575-1.307-.537-.468-1.167-.502-2.425-.57a81 81 0 0 0-2.067-.084l-.004-.087c-.033-.823-.06-1.454-.134-1.952s-.2-.874-.442-1.22c-.359-.514-.724-.652-1.307-.718a9 9 0 0 0-1-.062c-.334 0-.67.025-1.001.062-.584.066-.95.204-1.308.719-.241.345-.367.72-.442 1.219-.075.498-.1 1.129-.134 1.952l-.004.087q-1.178.035-2.067.084c-1.259.068-1.888.102-2.425.57-.411.359-.523.724-.575 1.307q-.09 1 0 2c.052.583.164.948.575 1.307.537.468 1.167.502 2.425.57q.846.046 1.953.08c0 2.078.034 4.157.124 6.233.068 1.572.102 2.359.57 3.03.244.349.49.525.807.623.472.145 1.008.157 1.501.157s1.029-.012 1.501-.157c.316-.098.563-.274.807-.624.469-.67.502-1.457.57-3.03.09-2.076.124-4.154.124-6.232"/></svg>