<svg xmlns="http://www.w3.org/2000/svg" viewBox="0 0 32 32"><path fill-rule="evenodd" d="m12.08 13.44 2.42.077v2.423c0 2.675.044 5.34.162 7.996.048 1.079.078 1.676.15 2.12.032.194.064.306.09.374.363.043.733.07 1.098.07s.735-.027 1.097-.07c.027-.068.06-.18.09-.375.073-.443.103-1.04.151-2.12.118-2.655.163-5.32.162-7.995v-2.423l2.42-.077q1.202-.039 2.134-.09c.404-.022.71-.04.973-.06.192-.016.33-.032.433-.048a11.4 11.4 0 0 0-.009-1.987 6 6 0 0 0-.423-.047c-.264-.022-.57-.039-.973-.06a98 98 0 0 0-2.27-.095l-2.329-.072-.093-2.327a113 113 0 0 0-.069-1.52c-.038-.705-.08-1.095-.138-1.358a1.3 1.3 0 0 0-.06-.206h-.003a14 14 0 0 0-.72-.057 6 6 0 0 0-.747 0c-.337.022-.547.036-.719.056h-.004c-.018.046-.038.11-.06.207-.057.263-.099.653-.137 1.359-.024.437-.046.947-.069 1.52l-.093 2.326-2.328.072q-1.286.04-2.271.095c-.403.021-.71.038-.973.06-.186.015-.322.03-.423.046q-.048.529-.049.995c0 .409.01.729.04.993.102.015.24.032.432.047.264.022.57.039.973.06a97 97 0 0 0 2.134.091M20 15.94q1.23-.04 2.19-.093c1.572-.085 2.359-.128 3.03-.713a1.86 1.86 0 0 0 .65-1.133c.113-.569.13-1.171.13-1.751 0-.416-.025-.835-.062-1.249-.065-.73-.204-1.187-.719-1.636-.67-.585-1.457-.628-3.03-.713a100 100 0 0 0-2.328-.097c-.023-.575-.046-1.1-.07-1.554-.078-1.432-.197-2.26-.715-2.985-.624-.872-1.263-.914-2.54-.997a8 8 0 0 0-1.072 0c-1.277.083-1.916.125-2.54.997-.518.724-.637 1.553-.714 2.985-.025.455-.048.979-.07 1.554q-1.316.041-2.33.097c-1.572.085-2.359.128-3.03.713-.514.449-.653.906-.718 1.636-.037.414-.062.833-.062 1.249 0 .58.017 1.182.13 1.751.09.456.265.797.65 1.133.671.586 1.458.628 3.03.713q.96.053 2.19.093c0 2.703.045 5.407.164 8.108.091 2.044.136 3.066.76 3.938s1.262.914 2.54.997a8 8 0 0 0 1.072 0c1.277-.083 1.916-.125 2.54-.997s.669-1.894.76-3.938c.12-2.701.165-5.405.164-8.108"/></svg>