<svg xmlns="http://www.w3.org/2000/svg" viewBox="0 0 24 24"><path d="M14.21 7.32c.564.151.846.226 1.01.15a.5.5 0 0 0 .276-.353c.036-.177-.104-.434-.383-.948L12.7 1.74c-.227-.417-.34-.626-.491-.695a.5.5 0 0 0-.414 0c-.15.069-.264.278-.491.695L8.89 6.17c-.28.513-.42.77-.384.947a.5.5 0 0 0 .277.352c.164.077.446.002 1.01-.149L11 6.998V8a1 1 0 1 0 2 0V6.997z"/><path fill-rule="evenodd" d="M12 10c1.615 0 2.801.184 3.55.352.412.093.618.139.827.358s.248.441.326.885c.139.788.297 1.997.297 3.405 0 1.225-.12 2.45-.243 3.382-.098.748-.147 1.122-.43 1.37a.8.8 0 0 1-.327.173V21a1 1 0 1 1-2 0v-1h-4v1a1 1 0 1 1-2 0v-1.075a.8.8 0 0 1-.327-.173c-.283-.248-.332-.622-.43-1.37A27 27 0 0 1 7 15c0-1.408.158-2.617.297-3.405.078-.444.117-.666.326-.885s.415-.265.828-.358C9.199 10.184 10.385 10 12 10m-2.782 2.235C9.108 12.933 9 13.901 9 15h6c0-1.099-.108-2.067-.218-2.765C14.155 12.117 13.226 12 12 12s-2.155.117-2.782.235"/></svg>