<svg xmlns="http://www.w3.org/2000/svg" viewBox="0 0 44 44"><path d="M25.765 12.696c.975.257 1.462.385 1.745.254a.85.85 0 0 0 .476-.6c.063-.303-.179-.74-.662-1.616l-4.123-7.473c-.392-.711-.588-1.067-.848-1.184a.87.87 0 0 0-.713 0c-.26.117-.457.473-.85 1.184l-4.122 7.474c-.483.875-.724 1.312-.662 1.615a.85.85 0 0 0 .476.6c.284.131.77.003 1.745-.254l2.27-.598v2.401a1.501 1.501 0 0 0 3.001 0v-2.401z"/><path fill-rule="evenodd" d="M14.998 36.913c-.323-.063-.573-.171-.788-.36-.509-.446-.598-1.12-.775-2.465-.22-1.676-.437-3.882-.437-6.088 0-2.534.286-4.711.535-6.13.14-.799.21-1.198.587-1.592.376-.394.747-.478 1.49-.645 1.346-.302 3.481-.633 6.388-.633s5.042.33 6.389.633c.742.167 1.114.25 1.49.645.376.394.446.794.587 1.593.249 1.419.534 3.596.534 6.13 0 2.205-.216 4.41-.437 6.086-.177 1.346-.265 2.02-.774 2.466-.215.189-.465.297-.789.36V38.5a1.5 1.5 0 1 1-3 0V37h-8v1.5a1.5 1.5 0 1 1-3 0zm13-8.913-11.992.008c0-2.243.237-4.194.46-5.491C17.622 22.27 19.47 22 21.998 22s4.377.271 5.533.517c.222 1.297.467 3.24.467 5.483"/></svg>