<svg xmlns="http://www.w3.org/2000/svg" viewBox="0 0 17 17"><path d="M6.83 5.177c-.431.112-.647.168-.772.11a.37.37 0 0 1-.21-.26c-.028-.132.078-.322.292-.702l1.825-3.247c.174-.31.26-.464.376-.515a.4.4 0 0 1 .316 0c.115.051.202.206.375.515l1.825 3.247c.214.38.321.57.293.702a.37.37 0 0 1-.21.26c-.126.058-.341.002-.773-.11l-.871-.225v.625a.797.797 0 1 1-1.594 0v-.625z"/><path fill-rule="evenodd" d="m5.312 14.182-.03-.024c-.21-.185-.247-.463-.32-1.02a20 20 0 0 1-.181-2.514c0-1.047.118-1.947.22-2.533.059-.33.088-.495.243-.658.156-.162.309-.197.616-.266.556-.125 1.438-.262 2.639-.262s2.083.137 2.64.262c.306.069.46.104.615.266s.184.328.242.658c.103.587.221 1.486.221 2.533 0 .91-.09 1.822-.18 2.515-.073.556-.11.834-.32 1.018l-.032.026v.957a.797.797 0 1 1-1.593 0v-.798H6.906v.798a.797.797 0 1 1-1.594 0zm1.062-3.557c0-.772.073-1.458.15-1.966.458-.083 1.117-.16 1.975-.16s1.517.077 1.976.16c.076.508.149 1.194.149 1.966z"/></svg>