<svg xmlns="http://www.w3.org/2000/svg" viewBox="0 0 24 24"><path fill-rule="evenodd" d="M22 13.813c0 4.698 0 7.047-1.521 7.909-1.3.736-2.96-.039-5.926-1.786-.78.04-1.632.064-2.553.064a47 47 0 0 1-4.055-.168c-2.024-.175-3.036-.263-4.326-1.557S2.25 16.01 2.087 14.07a25 25 0 0 1 0-4.14c.162-1.94.243-2.911 1.532-4.205s2.302-1.381 4.326-1.557A47 47 0 0 1 12 4c1.55 0 2.902.068 4.055.168 2.025.175 3.037.263 4.327 1.557s1.37 2.265 1.532 4.207c.107 1.29.079 2.587.086 3.88M12 7a1 1 0 0 1 1 1h2.5a1 1 0 1 1 0 2h-.618c-.288 1.282-.987 2.464-1.798 3.484.699.503 1.436.903 2.109 1.035a1 1 0 0 1-.386 1.962c-1.135-.223-2.226-.869-3.11-1.533-.72.635-1.516 1.163-2.331 1.483a1 1 0 1 1-.732-1.862c.497-.195 1.022-.523 1.532-.943q-.485-.47-.93-.98a1 1 0 1 1 1.528-1.292q.38.434.794.836c.591-.753 1.02-1.528 1.247-2.19H8.5a1 1 0 0 1 0-2H11a1 1 0 0 1 1-1"/></svg>