<svg xmlns="http://www.w3.org/2000/svg" viewBox="0 0 16 16"><path fill-rule="evenodd" d="M14.936 6.675c-.113-1.183-.17-1.774-.968-2.568-.799-.795-1.448-.853-2.747-.97C10.335 3.057 9.26 3 8 3s-2.336.057-3.221.137c-1.299.117-1.948.175-2.747.97s-.855 1.385-.968 2.566a14 14 0 0 0 0 2.654c.113 1.181.17 1.773.968 2.567.799.794 1.448.852 2.746.97a39 39 0 0 0 4.963.099c1.62.963 2.685 1.526 3.5 1.537.272.004.516-.056.744-.185C15 13.741 15 12.186 15 9.054l-.01-1.557q-.016-.428-.054-.822M8 4.995a.6.6 0 0 1 .593.505h1.806a.6.6 0 1 1 0 1.2H10c-.131.777-.573 1.6-1.109 2.29a6 6 0 0 1-.176.215c.432.295.883.527 1.302.609a.599.599 0 0 1-.228 1.175c-.705-.138-1.387-.527-1.953-.94a6 6 0 0 1-1.531.91.59.59 0 0 1-.766-.345.6.6 0 0 1 .341-.775 4.6 4.6 0 0 0 1.017-.575 12 12 0 0 1-.754-.777.6.6 0 0 1 .066-.844.595.595 0 0 1 .841.067 9 9 0 0 0 .736.748q.09-.102.173-.21c.423-.545.707-1.095.829-1.548H5.6a.6.6 0 1 1 0-1.2h1.807A.6.6 0 0 1 8 4.995"/></svg>