<svg xmlns="http://www.w3.org/2000/svg" viewBox="0 0 44 44"><path fill-rule="evenodd" d="M7.14 11.29a1.5 1.5 0 1 0 .727 2.911L20.5 11.045v4.967a87 87 0 0 0-3.855.142c-3.71.223-5.565.334-8.047 2.909s-2.518 4.141-2.59 7.275a29 29 0 0 0 0 1.324c.072 3.134.108 4.7 2.59 7.275s4.337 2.686 8.047 2.908C18.225 37.94 20.01 38 22 38c1.988 0 3.773-.06 5.353-.154 3.711-.223 5.567-.334 8.05-2.909 2.481-2.575 2.517-4.143 2.59-7.279a29 29 0 0 0 0-1.316c-.073-3.136-.109-4.704-2.59-7.28-2.483-2.574-4.339-2.686-8.05-2.908a87 87 0 0 0-3.853-.142v-5.716l13.363-3.34a1.5 1.5 0 0 0-.727-2.911zm9.685 7.86A87 87 0 0 1 22 19c1.927 0 3.653.058 5.173.149 1.964.117 2.964.195 3.79.447.658.2 1.319.552 2.28 1.549 1.02 1.059 1.33 1.69 1.482 2.2.153.516.208 1.093.244 2.155h-2.965a1.5 1.5 0 0 0 0 3h2.965c-.036 1.062-.09 1.639-.244 2.154-.151.51-.462 1.142-1.483 2.201-.96.997-1.62 1.349-2.278 1.549-.827.252-1.826.33-3.79.447l-.454.026a5.9 5.9 0 0 0 .471-2.015 36 36 0 0 0 0-4.057c-.143-2.52-1.798-4.668-4.318-4.788a16 16 0 0 0-1.497 0c-2.52.12-4.173 2.268-4.317 4.786a36 36 0 0 0 0 4.06c.04.719.205 1.407.477 2.027l-.712-.04c-1.963-.117-2.961-.194-3.788-.446-.657-.2-1.317-.552-2.278-1.549-1.02-1.059-1.331-1.69-1.483-2.2-.153-.515-.208-1.092-.243-2.155h3.026a1.5 1.5 0 1 0 0-3H9.032c.035-1.063.09-1.64.243-2.155.152-.51.462-1.142 1.483-2.2.96-.997 1.621-1.349 2.278-1.55.827-.251 1.825-.328 3.789-.446m4.694 7.864a13 13 0 0 1 1.211 0c.383.018.674.17.92.455.272.316.508.835.546 1.507a33 33 0 0 1 0 3.715c-.038.671-.274 1.19-.546 1.506a1.23 1.23 0 0 1-.92.455 13 13 0 0 1-1.211 0 1.22 1.22 0 0 1-.92-.454c-.271-.316-.507-.835-.545-1.506a33 33 0 0 1 0-3.717c.038-.671.274-1.19.546-1.506.245-.285.536-.437.919-.455"/></svg>