<svg xmlns="http://www.w3.org/2000/svg" viewBox="0 0 24 24"><path fill-rule="evenodd" d="M14.16 4.486c-.163.38-.354.897-.61 1.599l-3.176 8.658a.998.998 0 0 1-1.861.029l-.535-1.332a32 32 0 0 0-.595-1.423c-.158.337-.344.797-.596 1.423L4.955 18H19.14L14.772 6.085a35 35 0 0 0-.611-1.599m-1.068-2.035c.256-.247.615-.451 1.069-.451s.813.204 1.068.45c.235.227.408.511.544.776.265.512.533 1.245.847 2.101L22 20H2l2.964-7.373c.31-.772.58-1.442.842-1.913.231-.413.7-1.132 1.577-1.132s1.345.72 1.576 1.132c.14.252.283.56.433.912l2.31-6.299c.313-.856.582-1.589.846-2.101a3 3 0 0 1 .544-.775"/></svg>