<svg xmlns="http://www.w3.org/2000/svg" viewBox="0 0 17 17"><path fill-rule="evenodd" d="M10.084 3.597c-.106.246-.23.568-.392.987l-2.325 6.039a.795.795 0 0 1-1.474.023l-.392-.928c-.158-.374-.279-.66-.38-.878a26 26 0 0 0-.382.878l-1.281 3.036h10.163l-3.145-8.17a30 30 0 0 0-.392-.987m-1.231-1.11c.17-.314.531-.893 1.23-.893.7 0 1.062.58 1.232.894.197.364.396.88.624 1.473l3.997 10.381H1.062l2.212-5.241.022-.052c.225-.533.425-1.007.621-1.341.177-.301.538-.826 1.203-.826s1.026.525 1.203.826q.13.223.264.517l1.622-4.212.02-.052c.228-.592.427-1.11.624-1.473"/></svg>