<svg xmlns="http://www.w3.org/2000/svg" viewBox="0 0 44 44"><path fill-rule="evenodd" d="M25.998 7.405c-.38.722-.835 1.888-1.47 3.586l-5.87 15.691a1.497 1.497 0 0 1-2.787.044l-.99-2.413c-.633-1.544-1.058-2.563-1.426-3.207-.368.644-.793 1.663-1.427 3.207l-3.56 8.683H35.68l-8.232-22.005c-.636-1.698-1.07-2.864-1.45-3.586M24.263 4.72c.427-.405 1.006-.72 1.725-.72.718 0 1.297.315 1.724.72.395.373.697.853.944 1.322.48.912.97 2.226 1.556 3.791L40 35.996H4L9.301 23.07c.58-1.413 1.071-2.612 1.548-3.448.434-.76 1.212-1.881 2.606-1.881s2.172 1.121 2.605 1.88c.358.628.725 1.46 1.13 2.435l4.573-12.223c.586-1.565 1.077-2.879 1.557-3.791.247-.47.548-.949.943-1.322"/></svg>