<svg xmlns="http://www.w3.org/2000/svg" viewBox="0 0 32 32"><path fill-rule="evenodd" d="M18.833 6.536c-.23.51-.496 1.234-.865 2.245L13.81 20.143a1.24 1.24 0 0 1-1.142.818 1.24 1.24 0 0 1-1.167-.782l-.7-1.747c-.363-.904-.624-1.548-.844-2.003-.22.455-.48 1.1-.843 2.003L6.68 24.497h18.767L19.698 8.78c-.37-1.01-.636-1.735-.865-2.245m-1.35-2.464c.326-.316.78-.572 1.35-.572s1.023.256 1.35.572c.299.29.522.656.7 1.001.344.67.695 1.629 1.107 2.755L29.005 27h-26l3.847-9.592c.407-1.015.759-1.892 1.102-2.506.304-.545.9-1.452 2.003-1.452s1.7.907 2.003 1.452c.205.366.412.825.633 1.352l3.083-8.426c.412-1.126.762-2.085 1.107-2.755.177-.345.4-.711.7-1"/></svg>