<svg xmlns="http://www.w3.org/2000/svg" viewBox="0 0 16 16"><path d="M10.026 3.162c.357-.499 0-1.164-.619-1.164a.78.78 0 0 0-.637.33l-.015.023c-.24.345-.48.691-.75 1.01a13 13 0 0 1-.751-1.01l-.015-.022a.78.78 0 0 0-.638-.331c-.618 0-.976.665-.618 1.164l.124.174c.521.732.822 1.154 1.13 1.366v1.99l-1.74-.996c-.03-.372-.25-.841-.63-1.656l-.062-.135a.747.747 0 0 0-1.33-.053.76.76 0 0 0-.03.709l.006.01c.175.365.351.73.49 1.109-.4.07-.808.102-1.215.133l-.01.001a.77.77 0 0 0-.606.38.737.737 0 0 0 .71 1.114l.15-.014c.915-.083 1.437-.13 1.777-.295l1.738.994-1.741.996c-.34-.16-.86-.208-1.764-.29l-.163-.014a.737.737 0 0 0-.71 1.113.77.77 0 0 0 .605.38l.015.002c.41.031.82.064 1.223.134a13 13 0 0 1-.494 1.117l-.006.013a.76.76 0 0 0 .03.71.746.746 0 0 0 1.328-.053l.069-.147c.384-.825.604-1.296.63-1.67l1.73-.99v2c-.308.212-.609.635-1.13 1.366l-.124.174c-.358.499 0 1.164.618 1.164a.78.78 0 0 0 .638-.33l.015-.022c.24-.346.48-.692.75-1.011.27.319.511.665.75 1.01l.016.022a.77.77 0 0 0 .637.331c.618 0 .976-.665.619-1.164L9.9 12.66c-.53-.746-.833-1.17-1.149-1.378V9.29l1.741.995c.026.373.246.844.63 1.669l.069.147a.746.746 0 0 0 1.328.053.76.76 0 0 0 .03-.71l-.006-.013a13 13 0 0 1-.494-1.117c.403-.07.814-.103 1.223-.134l.015-.002a.77.77 0 0 0 .606-.38.737.737 0 0 0-.71-1.113l-.164.015c-.904.081-1.424.128-1.764.289l-1.742-.996 1.739-.994c.34.165.861.212 1.777.295l.15.014a.737.737 0 0 0 .71-1.114.77.77 0 0 0-.605-.38h-.011a13 13 0 0 1-1.215-.134c.139-.379.315-.744.49-1.109l.005-.01a.76.76 0 0 0-.03-.71.747.747 0 0 0-1.329.054l-.062.135c-.38.814-.6 1.284-.63 1.655l-1.75 1.001V4.714c.315-.208.617-.632 1.148-1.378z"/></svg>