<svg xmlns="http://www.w3.org/2000/svg" viewBox="0 0 16 16"><path d="M11.015 8.9a.9.9 0 1 0 0-1.8.9.9 0 0 0 0 1.8m-3.767.6v-3a.75.75 0 1 1 1.5 0v3a.75.75 0 0 1-1.5 0m-1.5-2a.75.75 0 0 0-1.5 0v1a.75.75 0 1 0 1.5 0z"/><path fill-rule="evenodd" d="M14.934 6.675c-.113-1.183-.17-1.774-.968-2.568-.798-.795-1.448-.853-2.747-.97-.885-.08-1.96-.137-3.22-.137-1.262 0-2.337.057-3.222.137-1.299.117-1.948.175-2.747.97s-.855 1.385-.968 2.566a14 14 0 0 0 0 2.654c.113 1.181.17 1.773.968 2.567.799.794 1.448.852 2.746.97a39 39 0 0 0 4.963.099c1.62.963 2.685 1.526 3.5 1.537.272.004.516-.056.744-.185 1.015-.574 1.015-2.129 1.015-5.261V8q-.002-.7-.064-1.325m-1.493.142c.035.372.057.769.057 1.183v1.054c0 1.617-.004 2.646-.11 3.364-.053.35-.114.513-.15.582a1.5 1.5 0 0 1-.396-.102c-.52-.188-1.231-.568-2.336-1.225l-.386-.23-.448.02a37 37 0 0 1-4.761-.094c-.698-.063-1.014-.098-1.26-.172-.165-.05-.318-.124-.563-.367-.262-.26-.33-.408-.372-.537-.067-.207-.1-.47-.16-1.11a12.4 12.4 0 0 1 0-2.367c.06-.64.093-.902.16-1.109.042-.129.11-.277.372-.537.245-.243.398-.317.563-.367.246-.074.562-.11 1.26-.172.841-.076 1.871-.131 3.087-.131s2.245.055 3.086.13c.699.064 1.015.099 1.262.173.164.05.318.124.562.367.262.26.33.408.372.538.067.206.1.469.16 1.11"/></svg>