<svg xmlns="http://www.w3.org/2000/svg" viewBox="0 0 24 24"><path fill-rule="evenodd" d="M22 13.813v-2.69l-.015-.007a25 25 0 0 0-.071-1.184c-.162-1.941-.243-2.912-1.532-4.206s-2.302-1.382-4.328-1.558A47 47 0 0 0 12 4c-1.55 0-2.902.068-4.055.168-2.024.176-3.036.264-4.326 1.558C2.33 7.019 2.25 7.99 2.087 9.93a25 25 0 0 0 0 4.14c.162 1.941.243 2.912 1.532 4.205s2.302 1.382 4.326 1.558c1.153.1 2.505.168 4.055.168q1.382-.002 2.553-.065c2.967 1.748 4.626 2.522 5.926 1.786C22 20.861 22 18.512 22 13.813M12 15a1 1 0 0 1-1-1v-4a1 1 0 1 1 2 0v4a1 1 0 0 1-1 1m-4-1a1 1 0 0 1-1-1v-2a1 1 0 1 1 2 0v2a1 1 0 0 1-1 1m9.4-2a1.4 1.4 0 1 1-2.8 0 1.4 1.4 0 0 1 2.8 0"/></svg>