<svg xmlns="http://www.w3.org/2000/svg" viewBox="0 0 24 24"><path d="M6 6.5a2.5 2.5 0 0 1 5 0v1.837A3.5 3.5 0 0 0 6 11.5a1 1 0 1 0 2 0 1.5 1.5 0 0 1 3 0V14H5.15c-1.344 0-2.176 1.416-1.27 2.41a11 11 0 0 0 4.061 2.815 7.4 7.4 0 0 0-1.575 1.414c-.479.574-.012 1.361.735 1.361h9.798c.748 0 1.214-.787.735-1.36a7.4 7.4 0 0 0-1.575-1.415 11 11 0 0 0 4.062-2.815c.906-.994.074-2.41-1.271-2.41H13v-2.5a1.5 1.5 0 0 1 3 0 1 1 0 1 0 2 0 3.5 3.5 0 0 0-5-3.163V6.5a2.5 2.5 0 0 1 5 0 1 1 0 1 0 2 0 4.5 4.5 0 0 0-8-2.829A4.5 4.5 0 0 0 4 6.5a1 1 0 0 0 2 0"/></svg>