<svg xmlns="http://www.w3.org/2000/svg" viewBox="0 0 24 24"><path fill-rule="evenodd" d="M6.002 6.5a2.5 2.5 0 0 1 5 0v1.837a3.5 3.5 0 0 0-5 3.163 1 1 0 1 0 2 0 1.5 1.5 0 0 1 3 0V14h-5.85c-1.344 0-2.176 1.416-1.27 2.41a11.05 11.05 0 0 0 4.061 2.815 7.4 7.4 0 0 0-1.618 1.47c-.406.568.055 1.305.778 1.305H16.9c.724 0 1.184-.737.778-1.305l-.043-.056a7.4 7.4 0 0 0-1.575-1.414 11.05 11.05 0 0 0 4.062-2.815c.906-.994.073-2.41-1.271-2.41h-5.85v-2.5a1.5 1.5 0 1 1 3 0 1 1 0 1 0 2 0 3.5 3.5 0 0 0-5-3.163V6.5a2.5 2.5 0 1 1 5 0 1 1 0 1 0 2 0 4.5 4.5 0 0 0-8-2.829 4.5 4.5 0 0 0-8 2.829 1 1 0 0 0 2 0m.35 9.5c.7.567 1.484 1.03 2.331 1.367A2 2 0 0 1 9.787 20h4.43a2 2 0 0 1 1.104-2.633A9 9 0 0 0 17.652 16z"/></svg>