<svg xmlns="http://www.w3.org/2000/svg" viewBox="0 0 16 16"><path fill-rule="evenodd" d="M5.625 2.5c-.898 0-1.626.728-1.626 1.626v.124a.75.75 0 1 1-1.5 0v-.124A3.126 3.126 0 0 1 8 2.094a3.126 3.126 0 0 1 5.501 2.031v.125a.75.75 0 0 1-1.5 0v-.124a1.626 1.626 0 1 0-3.25 0l-.001 1.04A2.4 2.4 0 0 1 9.627 5c1.23 0 2.377.86 2.377 2.25a.75.75 0 0 1-1.5 0c0-.406-.31-.75-.877-.75a.877.877 0 0 0-.877.86V9h3.483c1.046 0 1.687 1.102.95 1.843a7.34 7.34 0 0 1-2.88 1.786c.439.257.839.585 1.188.97q.215.236.402.5c.281.397-.035.901-.521.901H4.629c-.486 0-.803-.504-.521-.9a5 5 0 0 1 .402-.502 5 5 0 0 1 1.188-.969 7.3 7.3 0 0 1-2.88-1.786C2.08 10.102 2.72 9 3.768 9H7.25V7.377a.877.877 0 0 0-.877-.877c-.567 0-.877.344-.877.75a.75.75 0 1 1-1.5 0C3.996 5.86 5.143 5 6.373 5c.31 0 .606.06.877.167v-1.07A1.626 1.626 0 0 0 5.625 2.5m3.352 9.99c-.048.454.14.896.488 1.177h-2.93a1.334 1.334 0 0 0-.417-2.303 6 6 0 0 1-1.879-1.03h7.522a6 6 0 0 1-1.878 1.03 1.33 1.33 0 0 0-.906 1.127"/></svg>