<svg xmlns="http://www.w3.org/2000/svg" viewBox="0 0 24 24"><path d="M12 1.5a1 1 0 0 1 1 1v1a1 1 0 1 1-2 0v-1a1 1 0 0 1 1-1M21.5 13a1 1 0 1 0 0-2h-1a1 1 0 1 0 0 2zm-17-1a1 1 0 0 1-1 1h-1a1 1 0 1 1 0-2h1a1 1 0 0 1 1 1m1.902-6.8A1.2 1.2 0 1 1 4 5.2a1.2 1.2 0 0 1 2.402 0M20 5.198a1.198 1.198 0 1 1-2.396 0 1.198 1.198 0 0 1 2.396 0M6.11 13.153a3 3 0 0 1 1.673 1.384.9.9 0 0 0 .796.463c.35 0 .65-.19.802-.463a3 3 0 0 1 5.238 0 .92.92 0 0 0 .802.463.9.9 0 0 0 .796-.463 3 3 0 0 1 1.672-1.384Q18 12.593 18 12a6 6 0 1 0-11.89 1.153"/><path d="M5.163 15c-.758 0-1.025.712-.969 1.374.187 2.206 1.097 4.482 3.39 5.197 1.377.429 2.982.43 4.415.43 1.393 0 3.076-.013 4.415-.43 2.278-.71 3.203-2.991 3.39-5.187C19.86 15.72 19.6 15 18.836 15a1 1 0 0 0-.874.513A2.9 2.9 0 0 1 15.42 17a2.92 2.92 0 0 1-2.548-1.487 1 1 0 0 0-1.746 0A2.92 2.92 0 0 1 8.579 17c-1.094 0-2.046-.6-2.542-1.487A1 1 0 0 0 5.163 15"/></svg>