<svg xmlns="http://www.w3.org/2000/svg" viewBox="0 0 16 16"><path d="M8 1a.75.75 0 0 0-.75.75v.5a.75.75 0 0 0 1.5 0v-.5A.75.75 0 0 0 8 1M3.464 4.365a.9.9 0 1 1 0-1.8.9.9 0 0 1 0 1.8m9.071 0a.9.9 0 1 0 0-1.8.9.9 0 0 0 0 1.8M5.506 7.807a2.5 2.5 0 0 1 4.986 0 .75.75 0 0 0 1.495-.114 4 4 0 0 0-7.977 0 .75.75 0 1 0 1.496.114M15 7.25a.75.75 0 0 0-.75-.75h-.5a.75.75 0 0 0 0 1.5h.5a.75.75 0 0 0 .75-.75m-12 0a.75.75 0 0 0-.75-.75h-.5a.75.75 0 0 0 0 1.5h.5A.75.75 0 0 0 3 7.25"/><path fill-rule="evenodd" d="M8 9c.28 0 .538.156.667.405.35.674 1.004 1.098 1.72 1.098.71 0 1.345-.417 1.698-1.098a.75.75 0 0 1 1.41.442q-.03.614-.076 1.144c-.12 1.409-.179 2.113-.971 2.918-.793.804-1.477.872-2.845 1.009C9.094 14.968 8.552 15 8 15s-1.093-.032-1.602-.083c-1.368-.137-2.052-.205-2.845-1.01-.792-.804-.852-1.508-.97-2.917q-.046-.53-.077-1.144a.75.75 0 0 1 1.41-.442c.353.681.988 1.098 1.697 1.098.717 0 1.372-.424 1.721-1.098A.75.75 0 0 1 8 9m3.85 2.66a3.3 3.3 0 0 1-1.462.343c-.932 0-1.77-.385-2.388-1a3.37 3.37 0 0 1-2.387 1c-.53 0-1.023-.124-1.462-.342.03.263.062.447.107.605.057.199.135.358.364.59.234.238.39.316.576.373.269.082.616.123 1.349.196.468.047.959.076 1.453.076s.986-.029 1.454-.076c.733-.073 1.08-.114 1.35-.196.185-.056.341-.135.575-.373.229-.232.308-.391.364-.59a4 4 0 0 0 .107-.605"/></svg>