<svg xmlns="http://www.w3.org/2000/svg" viewBox="0 0 16 16"><path fill-rule="evenodd" d="M6.767 1.531C7.37 1.177 7.671 1 8 1c.328 0 .63.177 1.232.531l1.828 1.074c1.8 1.058 2.516 1.547 2.704 2.395 0 0 .236 1.491.236 3 0 1.306-.238 3-.238 3-.227.946-.832 1.3-2.427 2.235L9.232 14.47C8.63 14.823 8.328 15 8 15s-.63-.177-1.232-.53l-2.103-1.235C3.07 12.3 2.465 11.946 2.238 11 2.238 11 2 9.306 2 8c0-1.509.238-3 .238-3 .108-.872.881-1.326 2.635-2.356zM10.3 3.898 8.472 2.824A24 24 0 0 0 8 2.553l-.097.053c-.103.058-.222.128-.376.218l-.843.496 4.099 2.498c.6-.356 1.004-.606 1.281-.818-.346-.265-.887-.587-1.764-1.102M9.316 6.68 5.217 4.182c-.601.356-1.004.606-1.281.818.346.265.887.587 1.763 1.102l1.828 1.074A24 24 0 0 0 8 7.447l.097-.053c.103-.058.221-.128.375-.218zM6.767 8.47c.187.11.344.202.483.278v4.265L5.476 11.97c-.815-.478-1.24-.727-1.52-.956-.166-.134-.209-.198-.238-.3a24 24 0 0 1-.102-.875A20 20 0 0 1 3.506 8c0-.492.027-.99.064-1.43.377.243.833.511 1.37.826zm2.466 0c-.187.11-.344.202-.483.278v4.265l1.774-1.042c.815-.478 1.24-.727 1.52-.956.166-.134.208-.198.238-.3a31 31 0 0 0 .102-.875c.057-.57.11-1.261.11-1.84 0-.492-.027-.99-.064-1.43-.377.243-.833.511-1.37.826z"/></svg>