<svg xmlns="http://www.w3.org/2000/svg" viewBox="0 0 24 24"><path d="M7.07 3.052a2.3 2.3 0 0 1 1.315.101 5.2 5.2 0 0 1 1.73 1.133c.866.867 1.3 1.3 1.321 2.337.022 1.036-.445 1.545-1.38 2.562-.271.296-.562.587-.858.86l.305.36 4.091 4.09.358.304c.273-.296.564-.587.86-.859 1.018-.934 1.526-1.402 2.563-1.38 1.036.022 1.47.456 2.337 1.324a5.2 5.2 0 0 1 1.135 1.73c.162.401.195.893.1 1.315-.154.69-.525 1.782-1.4 2.618-.441.432-.866.744-1.364.976-1.73.804-3.779.525-5.48-.336-1.36-.688-2.977-1.697-4.999-3.72-2.022-2.021-3.203-3.81-3.89-5.169-.862-1.702-1.14-3.751-.336-5.48.23-.495.539-.918.967-1.357.837-.88 1.933-1.253 2.626-1.409"/></svg>