<svg xmlns="http://www.w3.org/2000/svg" viewBox="0 0 28 28"><path d="M7.975 3.064a2.8 2.8 0 0 1 1.607.123 6.4 6.4 0 0 1 2.113 1.385c1.06 1.06 1.59 1.59 1.616 2.856s-.544 1.888-1.686 3.131c-.332.362-.688.718-1.05 1.052l.374.44 5 4.999.437.37c.333-.361.69-.716 1.05-1.049 1.244-1.142 1.866-1.713 3.133-1.686s1.797.557 2.857 1.618a6.4 6.4 0 0 1 1.387 2.114c.198.49.239 1.092.123 1.607-.19.845-.643 2.182-1.715 3.204-.538.526-1.057.906-1.663 1.188-2.114.983-4.62.643-6.7-.41-1.66-.84-3.637-2.074-6.108-4.545-2.472-2.472-3.915-4.658-4.756-6.319-1.053-2.08-1.393-4.585-.41-6.699.28-.604.659-1.121 1.183-1.657C5.789 3.71 7.128 3.254 7.975 3.064"/></svg>