<svg xmlns="http://www.w3.org/2000/svg" viewBox="0 0 32 32"><path fill-rule="evenodd" d="m19.137 17.765-4.91-4.916.002-.004c1.131-1.257 1.697-1.886 1.689-3.126s-.549-1.826-1.631-2.999q-.168-.18-.343-.358a7.9 7.9 0 0 0-2.368-1.614c-.852-.377-1.76-.277-2.623-.016-.975.294-1.894.792-2.598 1.536-.581.596-.992 1.17-1.292 1.854-.949 2.167-.626 4.694.427 6.812.873 1.757 2.396 4.097 5.045 6.748 2.593 2.596 4.667 3.891 6.409 4.774 2.182 1.106 4.81 1.463 7.029.431.637-.297 1.182-.697 1.749-1.252 1.152-1.098 1.58-2.587 1.737-3.5a2.93 2.93 0 0 0-.182-1.605 7.9 7.9 0 0 0-1.66-2.482 13 13 0 0 0-.358-.344c-1.17-1.083-1.756-1.624-2.995-1.632s-1.867.558-3.123 1.69zm-6.974-5.787a1.28 1.28 0 0 0 .021 1.794l.56.56c1.814 1.815 3.646 3.62 5.464 5.426a1.277 1.277 0 0 0 1.709.084c.62-.506 1.187-1.143 1.871-1.555.142-.086.232-.12.462-.118.255.002.338.041.45.11.228.137.499.375 1.138.966q.153.142.297.286a5.8 5.8 0 0 1 1.213 1.817c.051.121.07.298.047.428-.127.733-.443 1.696-1.118 2.34l-.021.02c-.436.428-.79.674-1.167.85-1.465.681-3.398.511-5.199-.401-1.561-.791-3.45-1.96-5.874-4.386-2.494-2.497-3.882-4.652-4.65-6.2-.858-1.725-1.019-3.586-.384-5.035.178-.406.428-.775.872-1.23l.04-.042c.612-.637 1.51-.954 2.238-1.092.178-.033.43-.007.597.067.48.212 1.14.584 1.733 1.178.439.44.933.91 1.252 1.437a.92.92 0 0 1-.01.913c-.395.66-1.009 1.227-1.541 1.783"/></svg>