<svg xmlns="http://www.w3.org/2000/svg" viewBox="0 0 16 16"><path d="M8.742 1c.417 0 .752.34.768.757a15 15 0 0 0 .04.679c.061.763.097 1.158.174 1.46.057.224.13.367.3.551l.011.013.06.06.012.011c.185.17.328.243.551.3.286.072.655.109 1.34.164V3.903c0-.32.363-.514.64-.341C14.212 4.546 15 5.038 15 5.749s-.788 1.202-2.362 2.186c-.277.173-.64-.02-.64-.341V6.5c-1.437-.115-2.155-.172-2.908-.866a4 4 0 0 1-.17-.17c-.693-.752-.75-1.471-.865-2.909a19 19 0 0 1-.047-.812A.725.725 0 0 1 8.742 1M4.59 3.102a1.53 1.53 0 0 0-.876-.067c-.462.103-1.193.352-1.75.939a3.2 3.2 0 0 0-.646.904c-.536 1.153-.35 2.52.224 3.654.459.906 1.246 2.098 2.594 3.447 1.348 1.348 2.426 2.02 3.332 2.479 1.135.574 2.501.76 3.654.224.332-.155.615-.362.91-.65.583-.558.83-1.286.933-1.746.063-.281.04-.61-.067-.877a3.5 3.5 0 0 0-.756-1.153c-.579-.579-.868-.868-1.559-.882-.69-.015-1.03.296-1.708.92a10 10 0 0 0-.574.572l-.238-.202-2.727-2.728-.204-.24c.197-.181.391-.375.572-.573.623-.678.935-1.017.92-1.708-.014-.69-.303-.98-.881-1.557a3.5 3.5 0 0 0-1.153-.756"/></svg>