<svg xmlns="http://www.w3.org/2000/svg" viewBox="0 0 16 16"><path d="M9.22 2.22a.75.75 0 0 1 1.06 0l1.22 1.22 1.22-1.22a.75.75 0 1 1 1.06 1.06L12.56 4.5l1.22 1.22a.75.75 0 0 1-1.06 1.06L11.5 5.56l-1.22 1.22a.75.75 0 1 1-1.06-1.06l1.22-1.22-1.22-1.22a.75.75 0 0 1 0-1.06"/><path fill-rule="evenodd" d="M7.117 4.497c-.248-.41-.608-.763-.79-.942l-.061-.06c-.415-.417-1.102-.995-2.1-.995-.847 0-1.635.413-2.137.942-.21.22-.512.56-.718 1.032-.524 1.198-.345 2.587.23 3.746.471.95 1.291 2.21 2.712 3.635 1.392 1.396 2.508 2.096 3.448 2.573 1.193.605 2.638.805 3.866.232.354-.165.656-.386.963-.688.41-.394.662-.884.803-1.291.066-.193.154-.483.166-.826.024-.72-.297-1.27-.538-1.595-.23-.307-.503-.56-.65-.697l-.023-.02-.035-.034c-.112-.11-.438-.431-.771-.634a1.74 1.74 0 0 0-1.784.002 3.4 3.4 0 0 0-.416.307c-.111.092-.233.197-.354.304L6.496 7.056c.148-.156.428-.46.619-.78a1.75 1.75 0 0 0 .002-1.779M5.303 6.135l-.442.461a.684.684 0 0 0 .01.957l3.542 3.54a.68.68 0 0 0 .926.034q.18-.156.358-.317.27-.242.546-.475c.114-.096.185-.147.228-.173a.24.24 0 0 1 .232-.005c.162.098.305.236.444.37l.122.116.002.002c.315.292.745.69.73 1.16a1.3 1.3 0 0 1-.085.386 1.8 1.8 0 0 1-.43.704 2 2 0 0 1-.552.406c-.692.322-1.64.254-2.554-.21-.81-.412-1.795-1.02-3.066-2.295-1.31-1.314-2.033-2.442-2.43-3.243-.434-.875-.5-1.79-.2-2.478.101-.23.259-.42.43-.599.26-.274.671-.476 1.052-.476.378 0 .696.21 1.038.553l.08.08.002.002c.197.195.406.404.548.638a.25.25 0 0 1-.005.233c-.11.184-.263.347-.412.506z"/></svg>