<svg xmlns="http://www.w3.org/2000/svg" viewBox="0 0 24 24"><path fill-rule="evenodd" d="M7.033 3.749a1 1 0 0 0 .716 1.22L9 5.292v4.916l-3.001.78a4 4 0 0 0-2.994 3.864L3 19.002c0 .942 0 1.413.293 1.705S4.057 21 4.999 21h14.003c.941 0 1.412 0 1.705-.293s.293-.763.293-1.705V12c0-.7-.03-1.399-.081-2.077-.1-1.349-.175-2.35-.404-3.184a1 1 0 0 0-.719-.707l-11.544-3a1 1 0 0 0-1.219.717M11 5.813l7.701 2c.085.53.149 1.24.224 2.259.048.637.076 1.286.076 1.928v7h-2.5v-3a1 1 0 0 0-1-1h-1a1 1 0 0 0-1 1v3H11zm-2 6.462-2.498.65a2 2 0 0 0-1.497 1.932L5 19h3.999z"/></svg>