<svg xmlns="http://www.w3.org/2000/svg" viewBox="0 0 44 44"><path fill-rule="evenodd" d="m10.337 11.307 2.157-1.93c2.143-1.918 3.214-2.877 4.51-2.877s2.367.959 4.51 2.876l2.157 1.931c3.153 2.822 4.73 4.233 4.247 5.463-.323.825-1.387 1.096-3.336 1.186l.009.09c.19 2.145.37 4.85.403 7.608A40.5 40.5 0 0 0 13.5 24q-2.266.002-4.466.243a107 107 0 0 1 .383-6.287c-1.944-.09-3.005-.363-3.328-1.186-.482-1.23 1.095-2.64 4.248-5.463m4.713 6.9c.052-.446.079-.67.283-.874.205-.204.428-.23.874-.283.247-.029.52-.05.793-.05s.546.021.793.05c.446.052.67.079.874.283.204.205.23.428.283.874.029.247.05.52.05.793s-.021.546-.05.793c-.052.446-.079.67-.283.874-.205.204-.428.23-.874.283-.247.029-.52.05-.793.05s-.546-.021-.793-.05c-.446-.052-.67-.079-.874-.283-.204-.205-.23-.428-.283-.874A7 7 0 0 1 15 19c0-.273.021-.546.05-.793"/><path d="M37.077 31.567c.455-1.524.592-3.36.78-5.874.089-1.206.143-2.45.143-3.693 0-1.205-.05-2.41-.136-3.58a37.2 37.2 0 0 0-10.02 2.994c.092 1.618.155 3.362.155 5.113v.146a40.4 40.4 0 0 1 9.078 4.894m-2.074 3.436q.371-.371.673-.746A37.33 37.33 0 0 0 13.5 27c-2.462 0-4.87.237-7.2.69.295 3.372.724 5.34 2.697 7.313 2.334 2.334 4.66 2.507 9.31 2.853 1.206.09 2.45.144 3.693.144a50 50 0 0 0 3.693-.144c4.65-.346 6.976-.52 9.31-2.853"/></svg>