<svg xmlns="http://www.w3.org/2000/svg" viewBox="0 0 24 24"><path fill-rule="evenodd" d="M6.409 4.726C7.635 3.576 8.249 3 8.999 3c.751 0 1.364.575 2.591 1.726l1.103 1.035c1.689 1.583 2.533 2.375 2.258 3.057-.178.44-.725.596-1.715.651q.015.11.025.22a63 63 0 0 1 .232 4.24A23 23 0 0 0 7 13q-1.253 0-2.472.131c.041-1.26.126-2.46.211-3.443q.01-.11.025-.218c-.99-.056-1.538-.212-1.716-.652-.275-.682.57-1.474 2.257-3.057zm1.673 4.482c-.158.159-.171.318-.196.638a3.6 3.6 0 0 0 0 .558c.025.32.038.48.196.638.159.158.318.171.638.196a3.6 3.6 0 0 0 .558 0c.32-.025.48-.038.638-.196.158-.159.171-.318.196-.638a3.6 3.6 0 0 0 0-.558c-.025-.32-.038-.48-.196-.638-.159-.158-.318-.171-.638-.196a3.6 3.6 0 0 0-.558 0c-.32.025-.48.038-.638.196"/><path d="M19.498 19.122q-.088.096-.184.192c-1.312 1.313-2.62 1.41-5.236 1.605C13.4 20.969 12.7 21 12 21s-1.4-.03-2.078-.081c-2.616-.195-3.924-.292-5.237-1.605-1.081-1.081-1.338-2.16-1.503-3.968A21 21 0 0 1 7 15c4.681 0 9.005 1.532 12.497 4.122m-3.997-4.5a23 23 0 0 1 4.985 2.744c.252-.854.329-1.883.433-3.289C20.968 13.4 21 12.7 21 12c0-.597-.022-1.195-.06-1.779-1.94.284-3.793.832-5.522 1.607.048.887.08 1.838.083 2.794"/></svg>