<svg xmlns="http://www.w3.org/2000/svg" viewBox="0 0 32 32"><path fill-rule="evenodd" d="m7.315 8.064 1.547-1.391C10.473 5.224 11.278 4.5 12.25 4.5s1.777.724 3.388 2.173l1.547 1.391c2.408 2.166 3.612 3.249 3.25 4.195-.255.664-.9.862-2.518.922a6 6 0 0 1 .052.415c.131 1.486.257 3.328.296 5.233A30.5 30.5 0 0 0 9.333 17.5a31 31 0 0 0-3.063.152 83 83 0 0 1 .261-4.056q.02-.22.056-.437c-1.33-.08-2.292-.3-2.521-.9-.363-.946.84-2.03 3.25-4.195m3.725 4.226c-.238.237-.252.468-.28.929a5 5 0 0 0 0 .562c.028.461.042.692.28.93.237.237.468.251.93.28a5 5 0 0 0 .561 0c.461-.029.692-.043.93-.28.237-.238.252-.469.28-.93a5 5 0 0 0 0-.562c-.028-.461-.043-.692-.28-.93-.238-.237-.469-.251-.93-.28a5 5 0 0 0-.562 0c-.461.029-.692.043-.93.28"/><path d="M20.548 19.628a30.4 30.4 0 0 1 6.714 3.696c.379-1.173.484-2.586.63-4.555.068-.904.109-1.836.109-2.77 0-.796-.03-1.592-.08-2.37a27.8 27.8 0 0 0-7.507 2.206c.072 1.193.125 2.486.134 3.793m5.204 6.124q.128-.127.245-.256A27.88 27.88 0 0 0 9.333 20c-1.738 0-3.44.158-5.09.462.221 2.41.563 3.848 2.005 5.29 1.75 1.75 3.495 1.88 6.983 2.14.904.067 1.837.108 2.77.108.932 0 1.865-.04 2.769-.108 3.488-.26 5.232-.39 6.982-2.14"/></svg>