<svg xmlns="http://www.w3.org/2000/svg" viewBox="0 0 16 16"><path d="M2 4.25A2.75 2.75 0 0 1 4.75 1.5a.75.75 0 0 1 0 1.5c-.69 0-1.25.56-1.25 1.25a.75.75 0 0 1-1.5 0m0 7.5a2.75 2.75 0 0 0 2.75 2.75.75.75 0 0 0 0-1.5c-.69 0-1.25-.56-1.25-1.25a.75.75 0 1 0-1.5 0M11.25 1.5A2.75 2.75 0 0 1 14 4.25a.75.75 0 0 1-1.5 0c0-.69-.56-1.25-1.25-1.25a.75.75 0 0 1 0-1.5M14 11.75a2.75 2.75 0 0 1-2.75 2.75.75.75 0 0 1 0-1.5c.69 0 1.25-.56 1.25-1.25a.75.75 0 0 1 1.5 0m-8.417-1.484A29 29 0 0 1 5.5 8c0-.906.036-1.662.083-2.266.06-.777.09-1.166.575-1.652.484-.487.787-.512 1.394-.563a5.4 5.4 0 0 1 .896 0c.607.05.91.076 1.394.563s.515.875.575 1.652c.048.604.083 1.36.083 2.266s-.035 1.662-.083 2.266c-.06.777-.09 1.165-.575 1.652-.483.487-.787.512-1.393.563a5.4 5.4 0 0 1-.897 0c-.607-.05-.91-.076-1.394-.563s-.514-.875-.575-1.652"/></svg>