<svg xmlns="http://www.w3.org/2000/svg" viewBox="0 0 24 24"><path d="M3.5 6.5a4 4 0 0 1 4-4 1 1 0 0 1 0 2 2 2 0 0 0-2 2 1 1 0 0 1-2 0m17 0a4 4 0 0 0-4-4 1 1 0 1 0 0 2 2 2 0 0 1 2 2 1 1 0 1 0 2 0m-13 15a4 4 0 0 1-4-4 1 1 0 1 1 2 0 2 2 0 0 0 2 2 1 1 0 1 1 0 2m13-4a4 4 0 0 1-4 4 1 1 0 1 1 0-2 2 2 0 0 0 2-2 1 1 0 1 1 2 0"/><path fill-rule="evenodd" d="M12.874 5.044c.946.093 1.418.14 2.13.862.71.723.76 1.31.857 2.485.078.953.139 2.157.139 3.609s-.06 2.657-.14 3.61c-.097 1.174-.146 1.76-.856 2.483-.711.723-1.184.77-2.129.863a9 9 0 0 1-1.75 0c-.945-.093-1.418-.14-2.129-.863-.71-.722-.76-1.31-.856-2.483A44 44 0 0 1 8 12c0-1.452.06-2.656.14-3.61.097-1.174.145-1.761.857-2.484.71-.722 1.183-.769 2.129-.862a9 9 0 0 1 1.748 0m-2.741 10.4A42 42 0 0 1 10 12a42 42 0 0 1 .133-3.444c.025-.306.043-.516.066-.696.045-.356.206-.707.598-.767.125-.019.275-.034.526-.06a7 7 0 0 1 1.354 0c.25.026.4.041.526.06.393.06.553.41.598.767.023.18.041.39.066.696A42 42 0 0 1 14 12a42 42 0 0 1-.133 3.445 17 17 0 0 1-.066.695c-.088.694-.504.765-1.123.826a7 7 0 0 1-1.356 0c-.62-.061-1.035-.132-1.123-.826-.023-.18-.04-.39-.066-.695"/></svg>