<svg xmlns="http://www.w3.org/2000/svg" viewBox="0 0 16 16"><path d="M5.007 5.074c.016-.218.024-.328.134-.437.11-.11.219-.118.438-.135a2.4 2.4 0 0 1 .347 0c.218.017.328.025.437.135.11.11.118.219.134.437a2.4 2.4 0 0 1 0 .347c-.016.219-.024.328-.134.438s-.219.118-.437.134a2.4 2.4 0 0 1-.347 0c-.22-.016-.328-.024-.438-.134s-.118-.22-.134-.438a2.4 2.4 0 0 1 0-.347m.133 2.563c-.109.11-.117.219-.133.437a2.4 2.4 0 0 0 0 .347c.016.219.024.328.134.438s.219.118.438.134a2.4 2.4 0 0 0 .347 0c.218-.016.328-.024.437-.134.11-.11.118-.22.134-.438a2.4 2.4 0 0 0 0-.347c-.016-.218-.024-.328-.134-.437-.11-.11-.219-.118-.437-.135a2.4 2.4 0 0 0-.347 0c-.22.017-.328.025-.438.135"/><path fill-rule="evenodd" d="M3.333 15c-.628 0-.942 0-1.138-.195S2 14.295 2 13.668V2.332c0-.628 0-.941.195-1.137C2.391 1 2.705 1 3.333 1c.988 0 2.012.058 2.964.14 1.86.162 2.79.242 3.658 1.14.867.9.91 1.766.999 3.499l.01.222c.817.089 1.373.284 2.047.97.9.916.925 1.555.978 2.835q.01.258.011.527v3.334c0 .628 0 .942-.195 1.138s-.51.195-1.137.195zm.167-1.5v-11c.881.007 1.799.06 2.668.135 1.987.172 2.297.262 2.707.687.418.434.488.705.58 2.533q.044.818.045 1.812V13.5zm7.5 0h1.5v-3.167q0-.236-.01-.465c-.028-.694-.049-.975-.114-1.2-.041-.144-.119-.323-.436-.646-.302-.308-.486-.394-.659-.445a2 2 0 0 0-.281-.06z"/></svg>