<svg xmlns="http://www.w3.org/2000/svg" viewBox="0 0 24 24"><path d="M7.187 7.187c-.146.146-.156.292-.178.582a3 3 0 0 0 0 .462c.022.29.032.436.178.582s.292.156.582.178a3 3 0 0 0 .462 0c.29-.022.436-.032.582-.178s.156-.292.178-.582a3 3 0 0 0 0-.462c-.022-.29-.032-.436-.178-.582s-.292-.156-.582-.178a3 3 0 0 0-.462 0c-.29.022-.436.032-.582.178m0 4c-.146.146-.156.292-.178.582a3 3 0 0 0 0 .462c.022.29.032.436.178.582s.292.156.582.178a3 3 0 0 0 .462 0c.29-.022.436-.032.582-.178s.156-.292.178-.582a3 3 0 0 0 0-.462c-.022-.29-.032-.436-.178-.582s-.292-.156-.582-.178a3 3 0 0 0-.462 0c-.29.022-.436.032-.582.178"/><path fill-rule="evenodd" d="M5 22c-.943 0-1.414 0-1.707-.293S3 20.944 3 20.002V3.998c0-.942 0-1.412.293-1.705S4.057 2 5 2c1.578 0 3.268.1 4.842.236 2.865.248 4.298.372 5.6 1.723 1.296 1.347 1.364 2.662 1.492 5.282.974.16 1.711.495 2.599 1.404 1.344 1.375 1.38 2.284 1.452 4.104q.015.367.015.751V20c0 .943 0 1.414-.293 1.707s-.764.293-1.705.293zm11.996-10.701Q17 11.643 17 12v8h2v-4.5q0-.343-.013-.672c-.04-.98-.068-1.39-.168-1.729-.071-.238-.208-.537-.716-1.057-.486-.496-.792-.647-1.078-.735zM4.999 20H15v-8c0-.96-.024-1.838-.062-2.636-.135-2.772-.237-3.29-.937-4.017-.69-.716-1.283-.855-4.331-1.119C8.13 4.095 6.5 4 5 4z"/></svg>