<svg xmlns="http://www.w3.org/2000/svg" viewBox="0 0 24 24"><path d="M11 6a1 1 0 1 0 0 2h2a1 1 0 1 0 0-2z"/><path fill-rule="evenodd" d="M18.96 10.537a40 40 0 0 0-.515-4.475c-.125-.726-.829-1.335-1.548-1.493a14 14 0 0 0-.166-.974 1.71 1.71 0 0 0-1.456-1.343C14.424 2.132 13.212 2 12 2s-2.423.132-3.275.252A1.71 1.71 0 0 0 7.27 3.595c-.06.29-.12.62-.167.974-.719.158-1.423.767-1.547 1.493a40 40 0 0 0-.515 4.475c-.323.144-.552.297-.738.52-.358.428-.327.863-.264 1.733.105 1.437.373 2.86.998 4.192a1.004 1.004 0 0 0 1.881-.482c0-.17-.042-.33-.117-.47-.529-1.173-.713-2.455-.79-3.73.275-.106.557-.195.837-.287C8.404 11.501 10.376 11 12 11s3.596.501 5.152 1.013c.28.092.562.181.838.287-.078 1.275-.262 2.557-.791 3.73a1 1 0 0 0 .883 1.47c.378 0 .711-.209.881-.518.625-1.333.893-2.755.998-4.192.063-.87.094-1.304-.264-1.734-.186-.222-.415-.375-.737-.519m-3.858-4.314c-.09-.672-.163-1.349-.29-2.015A22 22 0 0 0 12 4c-1.002 0-2.028.102-2.813.208-.125.666-.198 1.343-.289 2.015l-1.36.299-.035.018a39 39 0 0 0-.412 3.302C8.577 9.402 10.38 9 12 9s3.424.403 4.91.842a39 39 0 0 0-.413-3.302l-.035-.018z"/><path d="M15.505 18a1 1 0 0 1 .87.504A3.02 3.02 0 0 0 19.002 20c.552 0 .997.448.997 1s-.445 1-.997 1a5.05 5.05 0 0 1-3.498-1.396A5.05 5.05 0 0 1 12.006 22a5.06 5.06 0 0 1-3.503-1.395A5.06 5.06 0 0 1 5 22a1 1 0 1 1 0-2c1.143 0 2.13-.613 2.635-1.496a1 1 0 0 1 1.736 0c.505.883 1.492 1.496 2.635 1.496a3.02 3.02 0 0 0 2.629-1.496 1 1 0 0 1 .87-.504"/></svg>