<svg xmlns="http://www.w3.org/2000/svg" viewBox="0 0 44 44"><path fill-rule="evenodd" d="M30 14.75c0 3.728-1.454 5.25-8 5.25s-8-1.522-8-5.25S17.983 8 22 8s8 3.022 8 6.75m-8 7.752c8.59 0 10.5-2.157 10.5-7.438q0-.124-.004-.248C37.04 16.236 40 18.556 40 21.174c0 2.716-3.182 5.109-8.014 6.512l2.414 6.276a1.5 1.5 0 0 1-2.8 1.076l-2.5-6.5a2 2 0 0 1-.052-.16c-1.727.32-3.593.525-5.548.595V32a1.5 1.5 0 0 1-3 0v-3.027a38 38 0 0 1-5.548-.596 2 2 0 0 1-.052.162l-2.5 6.5a1.5 1.5 0 0 1-2.8-1.078l2.414-6.275C7.182 26.283 4 23.89 4 21.174c0-2.619 2.96-4.937 7.504-6.358l-.004.248c0 5.281 1.91 7.438 10.5 7.438"/></svg>