<svg xmlns="http://www.w3.org/2000/svg" viewBox="0 0 24 24"><path fill-rule="evenodd" d="M15.397 9.403c.048-.13.103-.392.103-.903 0-.471-.264-1.067-.955-1.613A4.22 4.22 0 0 0 12 6c-.917 0-1.858.343-2.545.887C8.764 7.433 8.5 8.029 8.5 8.5c0 .51.055.773.103.903.03.08.049.1.1.136C8.957 9.716 9.755 10 12 10s3.043-.284 3.297-.46c.051-.037.07-.056.1-.137M12 12c3.929 0 5.19-.773 5.447-2.624q.408.152.766.322C19.85 10.476 20 11.158 20 11.25s-.15.774-1.787 1.552c-1.486.706-3.679 1.197-6.21 1.198H12c-2.532 0-4.726-.492-6.213-1.198C4.15 12.025 4 11.342 4 11.25s.15-.774 1.787-1.552q.357-.17.766-.322C6.81 11.226 8.071 12 12 12m-1 3.977a19 19 0 0 1-3.157-.406L6.42 18.894a1 1 0 0 1-1.838-.788l1.324-3.09C3.53 14.148 2 12.784 2 11.25c0-1.71 1.9-3.208 4.753-4.044C7.493 5.35 9.74 4 12 4c2.262 0 4.508 1.351 5.247 3.206C20.099 8.042 22 9.54 22 11.25c0 1.534-1.53 2.898-3.905 3.766l1.324 3.09a1 1 0 1 1-1.838.788l-1.424-3.323a19 19 0 0 1-3.157.406V17.5a1 1 0 1 1-2 0z"/></svg>