<svg xmlns="http://www.w3.org/2000/svg" viewBox="0 0 24 24"><path fill-rule="evenodd" d="M17 7.938C17 10.112 16.09 11 12 11s-5-.888-5-3.062S9.49 4 12 4s5 1.763 5 3.938m1.472-.309q.028.245.028.496c0 3.107-1.182 4.375-6.5 4.375s-6.5-1.268-6.5-4.375q0-.251.028-.496C3.369 8.5 2 9.799 2 11.25c0 1.534 1.53 2.898 3.905 3.766l-1.324 3.09a1 1 0 1 0 1.838.788l1.424-3.323c.978.213 2.04.353 3.157.406V17.5a1 1 0 1 0 2 0v-1.524a19 19 0 0 0 3.157-.405l1.424 3.323a1 1 0 1 0 1.838-.788l-1.324-3.09C20.47 14.148 22 12.784 22 11.25c0-1.45-1.37-2.75-3.528-3.621"/></svg>