<svg xmlns="http://www.w3.org/2000/svg" viewBox="0 0 16 16"><path fill-rule="evenodd" d="M3.124 3.124c-.875.875-.94 1.747-1.07 3.491C2.02 7.067 2 7.534 2 8s.02.933.054 1.385c.13 1.744.195 2.616 1.07 3.491s1.747.94 3.491 1.07C7.067 13.98 7.534 14 8 14s.933-.02 1.385-.054c1.744-.13 2.616-.195 3.491-1.07s.94-1.747 1.07-3.491C13.98 8.933 14 8.466 14 8s-.02-.933-.054-1.385c-.13-1.744-.195-2.616-1.07-3.491s-1.747-.94-3.491-1.07A19 19 0 0 0 8 2c-.466 0-.933.02-1.385.054-1.744.13-2.616.195-3.491 1.07m6.629 4.023A1.75 1.75 0 1 0 6.5 6.208 2.5 2.5 0 0 0 5 8.5c0 1.296.987 2.375 2.25 2.5v1.5h1.5V11H9a2 2 0 0 0 .753-3.853"/></svg>