<svg xmlns="http://www.w3.org/2000/svg" viewBox="0 0 16 16"><path d="M12.779 4.608a.75.75 0 1 0-1.062-1.06l-1.76 1.758c-.74.742-1.193 1.188-1.56 1.469a1.6 1.6 0 0 1-.33.208.2.2 0 0 1-.066.017h-.002c-.008 0-.023 0-.066-.017a1.6 1.6 0 0 1-.33-.208c-.367-.28-.819-.727-1.56-1.469l-1.76-1.758a.75.75 0 0 0-1.061 1.06l1.76 1.76C6.403 7.788 7.115 8.5 8 8.5s1.596-.71 3.019-2.133zm0 5.501a.75.75 0 1 0-1.062-1.061l-1.76 1.758c-.74.742-1.193 1.188-1.56 1.469a1.6 1.6 0 0 1-.33.208c-.043.018-.058.018-.066.018h-.002c-.008 0-.023 0-.066-.018a1.6 1.6 0 0 1-.33-.208c-.367-.28-.819-.727-1.56-1.469l-1.76-1.758a.75.75 0 0 0-1.061 1.06l1.76 1.76C6.403 13.288 7.115 14 8 14s1.596-.712 3.019-2.134z"/></svg>