<svg xmlns="http://www.w3.org/2000/svg" viewBox="0 0 32 32"><path fill-rule="evenodd" d="M15.307 12.255a4.834 4.834 0 0 1-9.615-.001c-1.519-1.976-3.14-4.09-2.578-4.818C4.33 5.862 8.539 3 10.5 3s6.17 2.862 7.386 4.436c.562.728-1.06 2.842-2.579 4.819M12.25 8a1.75 1.75 0 1 1-3.5 0 1.75 1.75 0 0 1 3.5 0"/><path d="M2.213 20.613a7.6 7.6 0 0 1 1.047-.885L12.533 29H0q.059-1.45.164-2.675c.226-2.673.34-4.01 2.049-5.712M16.061 29H20.5a59 59 0 0 0-.164-2.675c-.227-2.673-.34-4.01-2.05-5.712s-2.975-1.804-5.508-2.008a31.5 31.5 0 0 0-5.055 0c-.71.057-1.322.106-1.871.185z"/><path fill-rule="evenodd" d="M22.898 8.055a.954.954 0 0 0-.9.955V10h-1.043c-.581 0-1.156.18-1.548.608-.596.65-1.386 1.796-1.41 3.323V14c.01.423.036.828.069 1.211.067.778.114 1.332.312 1.831a.69.69 0 0 0 .653.457h.485a1.75 1.75 0 0 0 3.464 0l4.036.001a1.75 1.75 0 0 0 3.464 0h.085c.603 0 1.117-.403 1.21-.998.123-.794.223-1.769.223-2.846s-.1-2.052-.223-2.845c-.142-.913-.213-1.369-.698-1.847-.484-.478-.95-.544-1.882-.677A31 31 0 0 0 24.873 8q-1.051.001-1.975.055m-2.094 3.947L21.997 12v.972c0 .844-.683 1.528-1.527 1.528h-.472v-.545c.014-.804.39-1.484.805-1.953"/></svg>