<svg xmlns="http://www.w3.org/2000/svg" viewBox="0 0 24 24"><path d="M8 8.25a1.25 1.25 0 1 0 0-2.5 1.25 1.25 0 0 0 0 2.5"/><path fill-rule="evenodd" d="M4.902 2.937C5.896 2.437 7.1 2 8 2s2.104.437 3.098.937c.995.5 2.083 1.215 2.635 1.983.316.439.293.923.223 1.247s-.219.64-.37.911c-.296.533-.745 1.145-1.168 1.721l-.028.038-.367.502C11.85 11.389 10.115 13 8 13s-3.848-1.61-4.023-3.66l-.367-.502-.028-.038c-.422-.577-.872-1.19-1.168-1.721-.151-.272-.3-.587-.37-.912-.07-.324-.093-.808.223-1.247.552-.768 1.64-1.483 2.635-1.983M4.07 5.894q.036.085.11.22c.229.41.603.923 1.062 1.547l.002.003c.163.222.333.454.501.689l.236.233V9c0 1.105.904 2 2.018 2a2.01 2.01 0 0 0 2.019-2v-.318l.184-.259c.185-.26.373-.516.552-.76l.002-.002c.459-.625.833-1.138 1.061-1.548q.074-.134.111-.22c-.334-.34-.963-.78-1.744-1.173C9.252 4.251 8.404 4 8 4s-1.252.251-2.185.72c-.78.393-1.41.832-1.744 1.174M15.875 20l-.004-.054c-.177-2.025-.265-3.038-1.566-4.327-1.3-1.29-2.275-1.37-4.226-1.532a25 25 0 0 0-4.157 0c-1.952.162-2.927.242-4.227 1.532S.305 17.921.129 19.946L.125 20A44 44 0 0 0 0 22h16a44 44 0 0 0-.125-2m-2.017 0c-.088-.999-.144-1.499-.27-1.904-.096-.313-.25-.613-.701-1.06-.462-.458-.759-.607-1.049-.696-.395-.123-.884-.173-1.926-.26a23 23 0 0 0-3.446-.028L10.414 20zm-6.272 0-3.599-3.598c-.24.098-.504.267-.874.634-.451.447-.605.747-.702 1.06C2.286 18.5 2.23 19 2.142 20zm9.977-13.96a.597.597 0 0 0-.563.597V7.5l-.894.001c-.395 0-.787.113-1.06.4A3.9 3.9 0 0 0 14 10.5c.008.26.029.508.05.745.054.64.091 1.071.289 1.472a.5.5 0 0 0 .452.283h.233c.112.57.601 1 1.189 1s1.078-.43 1.189-1h3.196c.112.57.602 1 1.19 1s1.078-.431 1.189-1.003c.427-.032.782-.322.85-.752.095-.588.173-1.32.173-2.13 0-.812-.078-1.543-.172-2.132-.102-.633-.152-.95-.502-1.295s-.666-.392-1.299-.485A21 21 0 0 0 19 6q-.765.001-1.437.04M15.89 10.5c.614 0 1.111-.498 1.111-1.111V9l-.929.001A2.23 2.23 0 0 0 15.5 10.5z"/></svg>