<svg xmlns="http://www.w3.org/2000/svg" viewBox="0 0 17 17"><path d="M5.58 5.914a.956.956 0 1 0 0-1.912.956.956 0 0 0 0 1.912"/><path fill-rule="evenodd" d="M5.577 1.062c-.365 0-.77.095-1.145.218a8 8 0 0 0-1.189.506c-.744.385-1.561.936-1.978 1.532-.24.344-.222.722-.17.971.053.252.165.495.278.704.222.41.557.88.872 1.321l.15.211a3.185 3.185 0 0 0 6.364 0l.15-.211c.315-.44.65-.911.872-1.32a2.7 2.7 0 0 0 .278-.705c.053-.25.07-.627-.17-.97-.416-.597-1.234-1.148-1.978-1.533-.39-.202-.8-.378-1.188-.506-.376-.123-.78-.218-1.146-.218M2.698 4.081q.026.06.077.155c.169.312.446.703.789 1.182v.001l.279.392.156.222-.012.271-.001.071a1.591 1.591 0 1 0 3.181-.07l-.012-.272.157-.222q.14-.2.278-.391l.001-.002c.342-.479.62-.87.789-1.183q.05-.093.076-.154c-.247-.255-.705-.584-1.277-.88a7 7 0 0 0-.954-.407c-.307-.1-.527-.138-.648-.138-.12 0-.34.037-.648.138a7 7 0 0 0-.954.408c-.572.295-1.03.624-1.277.879m8.338 9.729q.023.233.044.495.045.512.075 1.1H0a31 31 0 0 1 .118-1.594c.108-1.122.255-1.775 1.068-2.579.926-.915 1.615-.97 2.992-1.082a17.4 17.4 0 0 1 2.8 0c1.376.111 2.065.167 2.99 1.082.814.804.96 1.457 1.068 2.579m-9.303 0c.038-.361.074-.582.132-.77.059-.19.15-.379.455-.679.313-.31.5-.397.67-.45l.1-.028 1.928 1.928zm5.543 0-2.119-2.118a16 16 0 0 1 1.69.046c.742.06 1.062.094 1.317.173.17.053.358.14.671.45.304.3.396.489.455.68.058.187.094.408.132.77zm5.244-9.509a.4.4 0 0 1 .176-.036q.364-.015.763-.016c.906 0 1.622.067 2.144.144.448.066.672.098.92.343.247.244.283.469.355.917.067.417.122.935.122 1.51a9.6 9.6 0 0 1-.122 1.509.62.62 0 0 1-.41.49.956.956 0 0 1-1.909.044h-2.024a.956.956 0 0 1-1.907-.004.36.36 0 0 1-.264-.196c-.14-.284-.2-.59-.239-1.043a10 10 0 0 1-.03-.527v-.044c.012-1.022.504-1.604.814-1.88.17-.15.395-.2.62-.2h.69V4.78c0-.211.123-.394.302-.48m-.3 2.072h-.674c-.147.157-.39.477-.39 1.063h.276a.787.787 0 0 0 .787-.787z"/></svg>