<svg xmlns="http://www.w3.org/2000/svg" viewBox="0 0 24 24"><path fill-rule="evenodd" d="M8 12.5c1.978 0 3.605-1.476 3.804-3.368 1.218-1.516 2.556-3.18 2.105-3.738C12.937 4.189 9.57 2 8 2S3.064 4.19 2.091 5.394c-.45.558.887 2.222 2.105 3.738C4.396 11.024 6.022 12.5 8 12.5M9.25 6a1.25 1.25 0 1 1-2.5 0 1.25 1.25 0 0 1 2.5 0"/><path d="M16 22h-3.586l-7.787-7.788c.384-.05.81-.085 1.295-.125a25 25 0 0 1 4.157 0c1.95.162 2.926.242 4.226 1.532s1.39 2.302 1.566 4.327c.054.626.1 1.31.129 2.054M2.517 14.931c-.268.18-.537.405-.822.688-1.3 1.29-1.39 2.302-1.566 4.327Q.047 20.884 0 22h9.586z"/><path fill-rule="evenodd" d="M17.563 6.04a.597.597 0 0 0-.563.597V7.5l-.894.001c-.395 0-.787.113-1.06.4A3.9 3.9 0 0 0 14 10.5c.008.259.029.508.05.745.054.64.091 1.071.289 1.472a.5.5 0 0 0 .452.283h.233c.112.57.601 1 1.189 1s1.078-.43 1.189-1h3.196c.112.57.602 1 1.19 1s1.078-.431 1.189-1.003c.427-.032.782-.322.85-.752.095-.588.173-1.32.173-2.13 0-.812-.078-1.544-.172-2.132-.102-.633-.152-.95-.502-1.295s-.666-.392-1.299-.485A21 21 0 0 0 19 6q-.765.001-1.437.04M15.89 10.5c.614 0 1.111-.498 1.111-1.111V9l-.929.001A2.23 2.23 0 0 0 15.5 10.5z"/></svg>