<svg xmlns="http://www.w3.org/2000/svg" viewBox="0 0 24 24"><path d="M2.806 6c-1.086 0-1.63 0-1.968.338S.5 7.219.5 8.306v6.387c0 1.087 0 1.63.338 1.969a1 1 0 0 0 .162.127V18a1 1 0 1 0 2 0v-1h1.115a1.835 1.835 0 0 0 3.27 0H8.5v1a1 1 0 1 0 2 0v-1.211a1 1 0 0 0 .162-.127c.337-.338.337-.882.337-1.97V8.308c0-1.087 0-1.631-.337-1.97C10.324 6 9.78 6 8.692 6z"/><path fill-rule="evenodd" d="M22.61 12c-.072-.495-.213-1-.382-1.477-.375-1.06-.562-1.59-1.222-2.056C20.346 8 19.635 8 18.213 8h-.428c-1.422 0-2.132 0-2.793.467-.66.467-.848.997-1.223 2.056A8 8 0 0 0 13.388 12h-.138a.75.75 0 0 0-.129 1.489c-.07.325-.121.703-.121 1.114V18a1 1 0 0 0 2 0v-.5h2.998l3.002.001V18a1 1 0 0 0 2 0v-3.393c0-.412-.052-.792-.122-1.118A.75.75 0 0 0 22.75 12zm-4.825-2c-.761 0-1.141.004-1.418.04-.178.025-.208.05-.218.058l-.002.002a.4.4 0 0 0-.072.059.4.4 0 0 0-.045.071 3 3 0 0 0-.142.32c-.066.168-.136.367-.233.64-.116.327-.2.63-.254.9a35 35 0 0 1 2.597-.09c1.065 0 1.926.039 2.599.09a6.5 6.5 0 0 0-.254-.9 22 22 0 0 0-.233-.64 3 3 0 0 0-.142-.32.4.4 0 0 0-.045-.07.4.4 0 0 0-.072-.06l-.002-.002c-.01-.009-.04-.033-.218-.057-.277-.037-.657-.041-1.418-.041z"/></svg>