<svg xmlns="http://www.w3.org/2000/svg" viewBox="0 0 32 32"><path d="M3.998 8.5c-1.413 0-2.12 0-2.558.44C1 9.377 1 10.084 1 11.497V19.5c0 1.413 0 2.12.44 2.56.149.148.329.247.557.312v1.377a1.25 1.25 0 0 0 2.5 0V22.5h1.22a2.385 2.385 0 0 0 4.065 0h1.222v1.25a1.25 1.25 0 0 0 2.5 0v-1.377c.227-.065.407-.164.556-.313.44-.44.44-1.146.44-2.56v-8c0-1.414 0-2.12-.44-2.56-.439-.439-1.145-.439-2.558-.439z"/><path fill-rule="evenodd" d="M31 17a1 1 0 0 0-1-1h-.054a10.5 10.5 0 0 0-.523-1.824c-.504-1.335-.757-2.003-1.606-2.59S26.065 11 24.257 11h-1.055c-1.807 0-2.71 0-3.56.587-.848.586-1.1 1.254-1.606 2.589A10.5 10.5 0 0 0 17.513 16H17.5a1 1 0 0 0-.35 1.937c-.088.396-.15.851-.15 1.343v4.468a1.25 1.25 0 0 0 2.5 0V23h8.499v.748a1.25 1.25 0 0 0 2.5 0V19.28a6.3 6.3 0 0 0-.15-1.343A1 1 0 0 0 31 17m-9.611-3.448c.359-.047.848-.052 1.814-.052h1.054c.966 0 1.455.005 1.814.052.242.032.292.067.32.087l.005.004c.073.051.1.08.11.09s.032.037.072.107c.045.078.105.2.192.41.09.215.185.466.315.81.144.38.255.738.333 1.063a50 50 0 0 0-3.67-.123c-1.537 0-2.768.057-3.708.128.078-.327.19-.686.335-1.068.13-.344.225-.595.314-.81.087-.21.148-.332.193-.41a.6.6 0 0 1 .072-.107.6.6 0 0 1 .11-.09l.005-.004c.028-.02.077-.055.32-.087"/></svg>