<svg xmlns="http://www.w3.org/2000/svg" viewBox="0 0 16 16"><path d="M8.622 8.24c-.942-.584-1.413-.876-1.768-.679-.354.198-.354.746-.354 1.843v.193c0 1.096 0 1.645.354 1.842.355.197.826-.095 1.768-.678.916-.567 1.374-.85 1.374-1.26s-.458-.695-1.374-1.262"/><path fill-rule="evenodd" d="M3.124 3.124c-.875.875-.94 1.747-1.07 3.491C2.02 7.067 2 7.534 2 8s.02.933.054 1.385c.13 1.744.195 2.616 1.07 3.491s1.747.94 3.491 1.07C7.067 13.98 7.534 14 8 14s.933-.02 1.385-.054c1.744-.13 2.616-.195 3.491-1.07s.94-1.747 1.07-3.491C13.98 8.933 14 8.466 14 8s-.02-.933-.054-1.385c-.13-1.744-.195-2.616-1.07-3.491s-1.747-.94-3.491-1.07A19 19 0 0 0 8 2c-.466 0-.933.02-1.385.054-1.744.13-2.616.195-3.491 1.07M8 3.5c-.423 0-.852.019-1.273.05-1.845.137-2.122.214-2.542.635-.226.225-.353.406-.443.814h8.516c-.09-.408-.217-.589-.443-.814-.42-.42-.697-.498-2.542-.635A17 17 0 0 0 8 3.5M3.567 6.499l-.012.153-.005.075c-.031.42-.05.85-.05 1.273s.019.852.05 1.273c.137 1.845.214 2.122.635 2.542.42.42.697.498 2.542.635.42.032.85.05 1.273.05s.852-.018 1.273-.05c1.845-.137 2.122-.214 2.542-.635.42-.42.498-.697.635-2.542.032-.42.05-.85.05-1.273s-.018-.852-.05-1.273l-.005-.075-.012-.153z"/></svg>