<svg xmlns="http://www.w3.org/2000/svg" viewBox="0 0 24 24"><path d="M15.502 14c0-.611-.67-1.031-2.01-1.872l-.822-.514c-1.401-.879-2.102-1.318-2.636-1.022-.534.295-.534 1.122-.534 2.776v1.263c0 1.654 0 2.482.534 2.777.534.296 1.235-.144 2.637-1.022l.82-.514c1.341-.84 2.011-1.26 2.011-1.872"/><path fill-rule="evenodd" d="M19.314 4.688c-1.313-1.313-2.62-1.41-5.237-1.605A28 28 0 0 0 12 3.002c-.7 0-1.399.03-2.077.081-2.616.195-3.924.292-5.237 1.605s-1.41 2.62-1.605 5.237c-.05.678-.081 1.377-.081 2.077s.03 1.399.081 2.077c.195 2.616.292 3.924 1.605 5.237s2.62 1.41 5.237 1.605c.678.05 1.377.081 2.077.081s1.399-.03 2.077-.081c2.616-.195 3.924-.292 5.237-1.605s1.41-2.62 1.605-5.237c.05-.678.081-1.378.081-2.077s-.03-1.4-.081-2.077c-.195-2.616-.292-3.924-1.605-5.237M19 12.002c0-.642-.028-1.292-.076-1.929-.03-.406-.058-.754-.087-1.07H5.163c-.029.316-.057.664-.087 1.07A26 26 0 0 0 5 12.002c0 .642.028 1.291.076 1.929.204 2.75.318 3.265 1.024 3.97.706.707 1.22.82 3.971 1.025.637.048 1.287.076 1.929.076s1.292-.028 1.929-.076c2.75-.204 3.265-.318 3.97-1.024.707-.706.82-1.221 1.025-3.971A26 26 0 0 0 19 12.002m-1.1-5.9c.277.277.463.535.599.9H5.501c.136-.365.322-.623.6-.9.705-.706 1.22-.82 3.97-1.025A26 26 0 0 1 12 5.002c.642 0 1.292.028 1.929.075 2.75.205 3.265.319 3.97 1.025"/></svg>