<svg xmlns="http://www.w3.org/2000/svg" viewBox="0 0 44 44"><path d="M32.965 3.186a1.5 1.5 0 0 0-2.385-.872L25.622 6.15l-4.285-2.893A1.5 1.5 0 0 0 18.999 4.5v5a1.5 1.5 0 0 0 3 0V7.323l2.844 1.92a1.5 1.5 0 0 0 1.757-.057l3.932-3.041 1 4.67A1.5 1.5 0 0 0 32.998 12h3.973l-1.79 3.282a1.5 1.5 0 0 0 2.634 1.436l3-5.5A1.5 1.5 0 0 0 39.498 9h-5.287z"/><path fill-rule="evenodd" d="M37.5 21h-2.686c-1.048-3.263-1.62-4.93-3.7-6.447C28.983 13 26.655 13 22 13s-6.984 0-9.114 1.553c-2.081 1.518-2.652 3.184-3.7 6.447H6.5a1.5 1.5 0 0 0 0 3h1.482a4.9 4.9 0 0 0-.584 1.471A16.7 16.7 0 0 0 7 29.046v8.704a2.25 2.25 0 0 0 4.5 0V37h21v.75a2.25 2.25 0 0 0 4.5 0v-8.704c0-1.322-.17-2.536-.396-3.57A4.9 4.9 0 0 0 36.017 24H37.5a1.5 1.5 0 0 0 0-3m-8.154-4.023c1.142.833 1.5 1.524 2.463 4.481h-.003C29.612 21.222 26.38 21 21.994 21c-4.383 0-7.611.222-9.802.457.963-2.956 1.32-3.647 2.463-4.48C15.83 16.12 17.018 16 22 16s6.168.12 7.345.977M15 29a1.5 1.5 0 1 1-3 0 1.5 1.5 0 0 1 3 0m2 0a1.5 1.5 0 0 1 1.5-1.5h7a1.5 1.5 0 0 1 0 3h-7A1.5 1.5 0 0 1 17 29m13.5 1.5a1.5 1.5 0 1 0 0-3 1.5 1.5 0 0 0 0 3"/></svg>