<svg xmlns="http://www.w3.org/2000/svg" viewBox="0 0 17 17"><path d="M13.001 1.185A.797.797 0 0 0 11.716.71L9.853 2.217 8.116 1.176a.797.797 0 0 0-1.206.683v1.594a.797.797 0 1 0 1.593 0v-.187l1.01.604c.286.172.65.147.91-.064l1.25-1.013.291 1.599a.8.8 0 0 0 .784.654h1.15l-.457.996a.797.797 0 0 0 1.448.664l.974-2.125a.797.797 0 0 0-.724-1.128h-1.726z"/><path fill-rule="evenodd" d="M14.148 9.561h.46a.797.797 0 0 0 0-1.593h-1.283l-.013-.043c-.401-1.227-.601-1.84-1.288-2.416a4 4 0 0 0-.35-.254c-.76-.474-1.565-.474-3.175-.474s-2.415 0-3.175.474a4 4 0 0 0-.35.254c-.686.575-.887 1.19-1.288 2.417l-.013.042H2.39a.797.797 0 0 0 0 1.593h.46l-.021.083a6.3 6.3 0 0 0-.173 1.449v3.78a1.062 1.062 0 0 0 2.125 0v-.531h7.436v.531a1.062 1.062 0 1 0 2.125 0v-3.78a6.3 6.3 0 0 0-.194-1.532M5.312 8.083a40 40 0 0 1 3.184-.115c1.34 0 2.393.05 3.19.115-.333-.995-.43-1.139-.685-1.352a2 2 0 0 0-.172-.124c-.29-.182-.567-.233-2.33-.233s-2.04.051-2.33.233a3 3 0 0 0-.172.124c-.254.213-.352.357-.685 1.352m.265 3.869a.797.797 0 1 0 0-1.594.797.797 0 0 0 0 1.594m2.125-1.594a.797.797 0 0 0 0 1.594h1.594a.797.797 0 1 0 0-1.594zm3.719 1.594a.797.797 0 1 0 0-1.594.797.797 0 0 0 0 1.594"/></svg>