<svg xmlns="http://www.w3.org/2000/svg" viewBox="0 0 17 17"><path d="M13.001 1.185A.797.797 0 0 0 11.716.71L9.853 2.217 8.116 1.176a.797.797 0 0 0-1.206.683v1.594a.797.797 0 1 0 1.593 0v-.187l1.01.604c.286.172.65.147.91-.064l1.25-1.013.291 1.599a.8.8 0 0 0 .784.654h1.15l-.457.996a.797.797 0 0 0 1.448.664l.974-2.125a.797.797 0 0 0-.724-1.128h-1.726zM11.42 11.952a.797.797 0 1 0 0-1.594.797.797 0 0 0 0 1.594m-5.843 0a.797.797 0 1 0 0-1.594.797.797 0 0 0 0 1.594m2.125-1.594a.797.797 0 0 0 0 1.594h1.594a.797.797 0 1 0 0-1.594z"/><path fill-rule="evenodd" d="M14.608 9.561h-.46l.022.085c.098.415.172.907.172 1.447v3.78a1.062 1.062 0 1 1-2.125 0v-.531H4.781v.531a1.062 1.062 0 0 1-2.125 0v-3.78A6.3 6.3 0 0 1 2.85 9.56h-.46a.797.797 0 0 1 0-1.593h1.283l.013-.042c.401-1.228.602-1.842 1.289-2.417.092-.078.247-.19.35-.254.76-.474 1.564-.474 3.174-.474s2.415 0 3.174.474c.103.064.258.176.35.254.688.575.888 1.189 1.289 2.416l.014.043h1.282a.797.797 0 0 1 0 1.593M8.496 7.968c-1.338 0-2.388.05-3.184.115.333-.995.43-1.139.685-1.352.037-.03.131-.099.172-.124.29-.182.566-.233 2.33-.233 1.763 0 2.04.051 2.33.233.04.025.135.094.172.124.255.213.352.357.685 1.352a40 40 0 0 0-3.19-.115M4.803 9.732c.778-.086 1.982-.17 3.693-.17s2.918.084 3.697.17c.152.016.26.07.324.121a.27.27 0 0 1 .102.159c.075.318.13.686.13 1.08v1.656h-8.5v-1.655c0-.395.055-.765.13-1.083a.27.27 0 0 1 .102-.157.6.6 0 0 1 .322-.121"/></svg>