<svg xmlns="http://www.w3.org/2000/svg" viewBox="0 0 24 24"><path d="M18.233 1.815a1 1 0 0 0-1.594-.607L13.966 3.27l-2.412-1.603A1 1 0 0 0 10 2.5v3a1 1 0 1 0 2 0V4.365l1.455.967a1 1 0 0 0 1.165-.04l1.948-1.503.45 2.395A1 1 0 0 0 18 7h1.882l-.776 1.553a1 1 0 1 0 1.788.894l1.5-3A1 1 0 0 0 21.5 5h-2.67zM8.5 16a1 1 0 1 1-2 0 1 1 0 0 1 2 0m8 1a1 1 0 1 0 0-2 1 1 0 0 0 0 2m-7-1a1 1 0 0 1 1-1h3a1 1 0 1 1 0 2h-3a1 1 0 0 1-1-1"/><path fill-rule="evenodd" d="M20.133 13.5q.087.208.14.437c.13.57.227 1.242.227 1.975v4.838a1.25 1.25 0 1 1-2.5 0V20H6v.75a1.25 1.25 0 1 1-2.5 0v-4.838c0-.734.098-1.407.228-1.978q.052-.227.139-.434H3.5a1 1 0 1 1 0-2h1.626l.027-.084c.578-1.769.867-2.653 1.927-3.48a5 5 0 0 1 .255-.186C8.451 7 9.635 7 12.001 7s3.549 0 4.665.75c.072.048.188.132.257.186 1.058.827 1.347 1.71 1.924 3.475h1.608a1.045 1.045 0 0 1 0 2.09zM7.17 11.683a58 58 0 0 1 4.827-.183c2.035 0 3.636.083 4.835.184-.51-1.537-.667-1.802-1.14-2.172l-.141-.102C15.045 9.07 14.566 9 12 9s-3.044.07-3.55.41c-.033.022-.11.077-.14.101-.474.37-.63.635-1.14 2.172m-.6 2.067c1.173-.124 2.962-.249 5.428-.249s4.257.125 5.432.25c.586.062.837.382.894.631.103.453.177.974.177 1.531V18h-13v-2.088c0-.558.075-1.08.178-1.533.057-.249.307-.567.89-.63"/></svg>