<svg xmlns="http://www.w3.org/2000/svg" viewBox="0 0 16 16"><path d="M11.02 6.311q.063.111.114.225a30 30 0 0 1 3.155.29c.408.062.82.209 1.035.56.1.165.178.371.178.612 0 .211-.06.399-.143.556-.217.417-.695.589-1.16.653-.628.086-1.664.2-3.066.256a4 4 0 0 1-.112.221l-2.523 4.588a1.4 1.4 0 0 1-1.227.725h-.572a.7.7 0 0 1-.66-.931l1.605-4.587a76 76 0 0 1-1.785-.064l-1.885.966c-1.003.513-1.504.77-1.803.531-.3-.238-.163-.785.11-1.88l.257-1.03-.257-1.03c-.273-1.095-.41-1.642-.11-1.88.3-.239.8.018 1.803.532l1.846.945c.55-.022 1.163-.041 1.824-.054L6.039 1.929a.7.7 0 0 1 .66-.931h.572a1.4 1.4 0 0 1 1.227.725z"/></svg>