<svg xmlns="http://www.w3.org/2000/svg" viewBox="0 0 24 24"><path fill-rule="evenodd" d="M8.119 6.16C9.214 6.067 10.509 6 12 6s2.785.066 3.881.16c1.08.094 1.603.15 2.024.279.312.096.612.25 1.06.699.457.459.606.755.696 1.043.122.394.173.88.26 1.917a23 23 0 0 1 0 3.805c-.087 1.037-.138 1.523-.26 1.917-.09.288-.239.584-.696 1.043-.448.45-.748.603-1.06.7-.421.129-.945.184-2.024.277-1.095.096-2.39.16-3.881.16-1.492 0-2.787-.064-3.883-.16-1.078-.093-1.601-.148-2.022-.278-.312-.096-.612-.25-1.06-.698-.457-.46-.606-.755-.696-1.044-.122-.393-.173-.878-.26-1.915a23 23 0 0 1 0-3.808c.087-1.037.138-1.523.26-1.916.09-.289.239-.584.696-1.044.448-.449.748-.602 1.06-.698.421-.13.944-.185 2.023-.278M12 4c-1.55 0-2.903.068-4.055.168-2.025.176-3.037.264-4.326 1.558C2.33 7.019 2.25 7.99 2.088 9.93a25 25 0 0 0 0 4.14c.161 1.941.242 2.912 1.532 4.205s2.301 1.382 4.325 1.558c1.153.1 2.506.168 4.056.168s2.902-.068 4.054-.168c2.025-.176 3.038-.264 4.327-1.558s1.37-2.264 1.532-4.206a25 25 0 0 0 0-4.137c-.161-1.941-.242-2.912-1.532-4.206s-2.302-1.382-4.327-1.558A47 47 0 0 0 12.001 4M8.56 8.175A31 31 0 0 1 12 8c1.428 0 2.576.08 3.44.175.857.095 1.285.143 1.775.614s.549.86.666 1.637c.07.468.12 1 .12 1.574s-.05 1.106-.12 1.574c-.117.777-.176 1.165-.666 1.637-.49.471-.918.519-1.774.614-.865.095-2.013.175-3.44.175s-2.577-.08-3.441-.175c-.856-.095-1.284-.143-1.774-.614s-.549-.86-.666-1.636C6.05 13.107 6 12.574 6 12s.05-1.107.12-1.575c.117-.776.176-1.165.666-1.636s.918-.519 1.774-.614"/></svg>