<svg xmlns="http://www.w3.org/2000/svg" viewBox="0 0 16 16"><path fill-rule="evenodd" d="M4.918 4.63A35 35 0 0 1 8 4.5a35 35 0 0 1 3.082.13c.699.063 1.016.099 1.263.173.165.05.319.124.564.368.263.262.332.41.374.54.067.207.1.47.16 1.111a12.5 12.5 0 0 1 0 2.357c-.06.64-.093.904-.16 1.11-.042.13-.11.279-.373.54-.246.244-.4.318-.565.368-.247.075-.564.11-1.263.173l.134 1.494-.134-1.494c-.84.075-1.868.13-3.082.13s-2.242-.055-3.082-.13c-.7-.063-1.016-.098-1.263-.173-.165-.05-.319-.123-.564-.368-.263-.261-.332-.41-.374-.54-.067-.206-.099-.469-.16-1.11a12.5 12.5 0 0 1 0-2.358c.061-.641.093-.904.16-1.11.042-.13.111-.278.374-.54.245-.244.4-.318.564-.368.247-.074.564-.11 1.263-.172M8 13a36 36 0 0 0 3.216-.136c1.3-.117 1.951-.176 2.751-.972.8-.795.857-1.387.97-2.571a14 14 0 0 0 0-2.641c-.113-1.184-.17-1.776-.97-2.572s-1.45-.854-2.751-.971A36 36 0 0 0 8 3c-1.26 0-2.332.057-3.217.137-1.3.117-1.95.175-2.75.97-.8.797-.857 1.388-.97 2.572a14 14 0 0 0 0 2.643c.113 1.183.17 1.775.97 2.57.8.796 1.45.855 2.75.972.885.08 1.958.136 3.217.136M5.138 5.656A24 24 0 0 1 8 5.5c1.266 0 2.222.078 2.862.156.435.053.653.08.889.295s.278.407.361.793c.076.35.138.78.138 1.256s-.062.906-.138 1.257c-.083.385-.125.577-.361.792s-.453.242-.889.295c-.64.078-1.596.156-2.862.156s-2.223-.078-2.862-.156c-.435-.053-.653-.08-.889-.295-.235-.215-.277-.407-.361-.792A6 6 0 0 1 3.75 8c0-.476.062-.906.138-1.257.084-.385.126-.577.361-.792.236-.215.454-.242.889-.295"/></svg>