<svg xmlns="http://www.w3.org/2000/svg" viewBox="0 0 24 24"><path d="M16.5 9.484a.98.98 0 0 1-.288.696l-4.516 4.532a.984.984 0 0 1-1.392 0l-2.016-2.016a.98.98 0 0 1 0-1.392.984.984 0 0 1 1.392 0l1.32 1.32 3.82-3.836a.98.98 0 0 1 1.392 0 .98.98 0 0 1 .288.696"/><path fill-rule="evenodd" d="M5.501 3.713C7.311 2.899 9.805 2 12 2s4.69.899 6.499 1.713c1.171.526 1.757.79 2.16 1.45s.368 1.33.297 2.667c-.202 3.804-.95 7.54-3.348 10.62C16.42 19.972 13.934 22 12 22s-4.42-2.027-5.608-3.55c-2.399-3.08-3.146-6.816-3.348-10.62-.07-1.337-.106-2.006.297-2.667.403-.66.989-.924 2.16-1.45m.824 1.823C8.083 4.746 10.252 4 12 4s3.917.745 5.675 1.536c.631.284.926.421 1.128.547.15.094.17.137.183.316.02.256.006.607-.032 1.325-.194 3.646-.901 6.895-2.93 9.498-.465.597-1.232 1.345-2.08 1.928-.903.623-1.592.85-1.944.85s-1.041-.227-1.944-.85c-.848-.584-1.615-1.331-2.08-1.928-2.029-2.603-2.736-5.852-2.93-9.498-.038-.718-.052-1.069-.032-1.325.014-.179.032-.222.183-.316.202-.126.497-.263 1.128-.547"/></svg>