<svg xmlns="http://www.w3.org/2000/svg" viewBox="0 0 16 16"><path fill-rule="evenodd" d="M3.998 3.5A2 2 0 1 1 8 3.5a2 2 0 0 1-4 0M6 3a.5.5 0 1 0 0 1.001A.5.5 0 0 0 6 3M2.511 8.783a12 12 0 0 1 .068-.853c.123-1.027.947-1.753 1.976-1.856a14.5 14.5 0 0 1 2.922 0c1.028.103 1.853.83 1.975 1.856q.031.264.052.57h3.164c.736 0 1.332.597 1.332 1.333v1.5c0 .331-.037.641-.092.92-.187.94-1.05 1.51-2.004 1.593C11.004 13.925 9.7 14 8 14s-3.004-.075-3.904-.154c-.955-.084-1.817-.652-2.003-1.592a4.7 4.7 0 0 1-.093-.92v-1.5c0-.427.2-.807.511-1.051m1.52-.283q.015-.21.038-.392c.03-.251.225-.5.635-.541a13 13 0 0 1 2.623 0c.41.04.605.29.635.54q.022.183.039.393zM3.5 11.334V10h9v1.334q-.002.33-.064.627c-.014.072-.05.14-.145.212a1 1 0 0 1-.518.179c-.858.075-2.118.148-3.773.148s-2.916-.073-3.773-.148a1 1 0 0 1-.518-.179c-.096-.072-.131-.14-.145-.211a3.2 3.2 0 0 1-.064-.628"/></svg>