<svg xmlns="http://www.w3.org/2000/svg" viewBox="0 0 16 16"><path fill-rule="evenodd" d="M7.295 3.328c-1.58.187-2.21.653-3.47 1.585a18 18 0 0 0-1.77 1.508c-.7.674-1.05 1.012-1.05 1.579s.35.904 1.05 1.579a18 18 0 0 0 1.77 1.508c1.26.931 1.89 1.397 3.47 1.585a9 9 0 0 0 1.415 0c1.58-.188 2.21-.654 3.47-1.585a18 18 0 0 0 1.77-1.508c.701-.675 1.051-1.012 1.051-1.58 0-.566-.35-.904-1.05-1.578a18 18 0 0 0-1.77-1.508C10.92 3.98 10.29 3.515 8.71 3.328a9 9 0 0 0-1.416 0M7.999 10a2 2 0 1 0 0-4 2 2 0 0 0 0 4"/></svg>