<svg xmlns="http://www.w3.org/2000/svg" viewBox="0 0 24 24"><path d="M10.5 12a1.5 1.5 0 1 1 3 0 1.5 1.5 0 0 1-3 0"/><path fill-rule="evenodd" d="M10.485 5.47c-2.11.361-2.896.943-4.469 2.105a26 26 0 0 0-2.432 2.061c-1.053 1.005-1.58 1.507-1.58 2.364 0 .856.527 1.358 1.58 2.363a26 26 0 0 0 2.432 2.061c1.573 1.163 2.36 1.744 4.469 2.105.658.113 2.38.113 3.038 0 2.109-.361 2.896-.942 4.468-2.105a26 26 0 0 0 2.433-2.061c1.053-1.005 1.58-1.507 1.58-2.363s-.527-1.359-1.58-2.364a26 26 0 0 0-2.433-2.06C16.42 6.412 15.632 5.83 13.523 5.47c-.658-.112-2.38-.112-3.038 0M12 8.5a3.5 3.5 0 1 0 0 7 3.5 3.5 0 0 0 0-7"/></svg>