<svg xmlns="http://www.w3.org/2000/svg" viewBox="0 0 44 44"><path fill-rule="evenodd" d="M35.277 19c.261 0 .392 0 .797.19.405.192.428.22.474.276.592.718 1.452 2.48 1.452 6.659C38 32.5 30.631 38 24.5 38h-6c-6.088 0-9.356-.383-11.044-.714-.529-.103-.793-.155-1.397-.68-.604-.524-.705-.814-.906-1.394C4.636 33.728 4 31.324 4 28.5s.636-5.227 1.153-6.712c.2-.58.302-.87.906-1.395.604-.524.869-.576 1.397-.68 1.047-.205 2.703-.43 5.263-.571l.337-.374c1.148-1.29 2.996-3.505 5.744-7.168.551-.735.947-1.647 1.36-2.6l.153-.351c.212-.485.465-1.046.764-1.488C21.327 6.79 21.937 6 23 6c.441 0 .856.146 1.172.302.347.17.703.413 1.039.726.68.636 1.3 1.578 1.62 2.858.54 2.16.202 5.125-1.792 9.114zM11.2 22.251c-1.225.125-2.504.276-3.167.406l-.007.002-.04.113C7.542 24.051 7 26.112 7 28.5s.542 4.45.986 5.728l.04.113.007.002c.661.13 1.674.28 3.167.405zm3 12.673c1.23.047 2.654.076 4.3.076h6c2.242 0 4.958-1.044 7.13-2.852 2.179-1.815 3.37-4.012 3.37-6.023 0-2.214-.266-3.468-.485-4.125H22.473a1.5 1.5 0 0 1-1.259-2.272c2.904-4.84 3.068-7.666 2.706-9.114-.152-.607-.402-1.01-.631-1.265-.01.02-.033.079-.068.168-.211.537-.864 2.197-1.721 3.483l-7.3 9z"/></svg>