<svg xmlns="http://www.w3.org/2000/svg" viewBox="0 0 44 44"><path fill-rule="evenodd" d="M18.842 11.529c.6-.727 1.305-1.689 1.738-2.711l.06-.134c.203-.478.444-1.044.73-1.488C21.605 6.831 21.91 6 23 6c.855 0 1.64.529 2.17 1.145.589.685 1.036 1.654 1.193 2.906.265 2.108-.286 5.027-2.359 9.007h11.273c.261 0 .392 0 .797.184.405.183.428.21.474.264.592.69 1.452 2.046 1.452 6.068C38 31.708 30.631 37 24.5 37h-6c-1.627 0-3.052-.026-4.3-.07V17.866c0-.356 0-.534.059-.698.059-.165.172-.302.4-.576zM11.2 19.29c-1.72.13-2.92.298-3.744.453-.528.1-.793.15-1.397.655s-.705.783-.906 1.341C4.636 23.17 4 25.143 4 27.86s.636 5.029 1.153 6.458c.201.558.302.836.906 1.341s.868.555 1.397.654c.824.156 2.024.323 3.744.454z"/></svg>