<svg xmlns="http://www.w3.org/2000/svg" viewBox="0 0 24 24"><path fill-rule="evenodd" d="M14.181 9.996h4.586c.687 0 1.03.001 1.294.194.983.719 1.036 3.432.86 4.308-.486 2.43-3.335 6.277-6.711 6.493q-.578.009-1.199.009c-3.106 0-5.692-.186-7.456-.365-1.201-.122-1.802-.183-2.412-.737-.61-.555-.709-1.049-.905-2.038A12 12 0 0 1 2 15.498c0-.87.1-1.673.238-2.362.196-.989.295-1.483.905-2.038s1.21-.615 2.412-.737a66 66 0 0 1 1.264-.115l2.27-3.026c.321-.428.44-.587.54-.754.1-.166.185-.346.412-.83l.523-1.117.023-.048c.104-.224.251-.54.467-.793.292-.343.66-.534 1.095-.62.3-.06.657-.1 1.02.017.332.108.562.321.656.408l.02.018c.854.779 1.213 2.031 1.143 3.383-.05.948-.309 2.002-.807 3.112m-2.67.934c.014-.295.148-.456.255-.634.827-1.373 1.174-2.583 1.222-3.516.049-.931-.198-1.49-.443-1.752l-.02.035a6 6 0 0 0-.148.305l-.544 1.162c-.199.423-.329.7-.488.966-.16.266-.344.51-.624.885l-2.414 3.216-.3.4v6.836a75 75 0 0 0 6.117.158c.968-.077 2.062-.7 3.055-1.774 1.007-1.089 1.625-2.337 1.78-3.112.145-.725 0-1.418-.22-2.108H13.01l-.5.001v-.001a.997.997 0 0 1-1-1.067m-5.506 1.397v6.342a59 59 0 0 1-.982-.106 3 3 0 0 1-.383-.068c-.231-.062-.267-.234-.317-.443a17 17 0 0 1-.122-.582c-.116-.583-.2-1.253-.2-1.972s.084-1.389.2-1.972c.051-.257.087-.433.122-.582.05-.208.09-.382.317-.443.075-.02.19-.042.383-.068a24 24 0 0 1 .982-.106"/></svg>