<svg xmlns="http://www.w3.org/2000/svg" viewBox="0 0 16 16"><path fill-rule="evenodd" d="M7.422 2.19q-.316.186-.52.576c-.026.048-.155.34-.288.65-.285.665-.343.791-.414.91-.065.108-.125.193-.723 1.018-.4.553-1.33 1.828-1.33 1.828s-.04.015-.097.019a42 42 0 0 0-1.253.121c-.424.053-.649.123-.873.27-.432.285-.637.677-.748 1.17a6.8 6.8 0 0 0-.172 1.743c.01.545.083 1.076.192 1.61.117.579.342 1.105.897 1.383.25.125.51.18 1.16.244 1.343.133 2.571.21 4.057.254.455.013 1.892.02 2.14.009.29-.012.47-.039.754-.11.996-.253 1.97-.945 2.688-1.908.598-.803.98-1.734 1.088-2.645.03-.257.03-.727 0-.965a4.3 4.3 0 0 0-.192-.828c-.066-.203-.123-.298-.233-.39a.7.7 0 0 0-.267-.131c-.102-.022-.551-.028-2.22-.029-.851 0-1.547-.003-1.547-.005 0-.003.018-.058.041-.122.162-.458.282-.98.335-1.455.05-.44.045-.918-.012-1.308q-.166-1.133-.805-1.772a1.07 1.07 0 0 0-.6-.306A1.4 1.4 0 0 0 8.238 2c-.285 0-.587.055-.816.19m.852 1.619c.058.152.107.359.135.576.02.162.02.646 0 .828a5.6 5.6 0 0 1-.607 1.949c-.167.323-.175.34-.195.415A.755.755 0 0 0 8 8.43a.6.6 0 0 0 .31.075l1.587-.008c1.414-.008 2.568-.006 2.58.006.193.185-.054 1.044-.113 1.247a4.2 4.2 0 0 1-.687 1.341c-.552.736-1.28 1.236-2.004 1.376-.096.018-.143.021-.418.029-1.22.034-2.49.04-3.708-.089l-.043-.004V7.866c.614-.85 1.252-1.686 1.842-2.553.216-.317.27-.426.646-1.305l.176-.41c.006-.01.071.12.105.21m-4.272 8.483s-.614-.05-.919-.088c-.18-.023-.294-.046-.319-.064s-.038-.062-.087-.3a8 8 0 0 1-.152-.968 5.8 5.8 0 0 1 .112-1.77c.027-.12.023-.25.166-.275.39-.068 1.203-.124 1.203-.124z"/></svg>