<svg xmlns="http://www.w3.org/2000/svg" viewBox="0 0 24 24"><path fill-rule="evenodd" d="M19.315 19.316c1.312-1.313 1.41-2.621 1.604-5.237C20.97 13.4 21 12.7 21 12s-.03-1.399-.08-2.077c-.195-2.616-.293-3.924-1.606-5.237-1.312-1.312-2.62-1.41-5.236-1.604A28 28 0 0 0 12 3c-.7 0-1.4.031-2.078.082-2.616.194-3.924.292-5.237 1.604C3.374 6 3.276 7.308 3.082 9.924A28 28 0 0 0 3 12.002c0 .699.031 1.398.082 2.077.194 2.616.292 3.924 1.604 5.236C6 20.629 7.307 20.726 9.923 20.92c.678.05 1.378.081 2.078.081.699 0 1.399-.03 2.077-.08 2.616-.195 3.924-.293 5.236-1.605M11 16.003a1 1 0 1 0 2 0v-5.62l1.236 1.464a1 1 0 1 0 1.528-1.291l-2.162-2.779a2 2 0 0 0-1.583-.772h-.038a2 2 0 0 0-1.583.772l-2.162 2.779a1 1 0 1 0 1.528 1.29L11 10.385z"/></svg>