<svg xmlns="http://www.w3.org/2000/svg" viewBox="0 0 16 16"><path fill-rule="evenodd" d="M12.877 12.877c.874-.874.94-1.745 1.07-3.488C13.98 8.936 14 8.468 14 8s-.021-.935-.055-1.389c-.13-1.742-.195-2.613-1.069-3.488-.874-.874-1.745-.939-3.488-1.069A19 19 0 0 0 8 2c-.468 0-.935.02-1.389.054-1.742.13-2.613.195-3.488 1.07-.874.874-.939 1.745-1.069 3.487-.033.454-.054.921-.054 1.39 0 .467.02.935.054 1.388.13 1.743.195 2.614 1.07 3.488.874.874 1.745.94 3.487 1.07.454.033.921.054 1.39.054.467 0 .935-.021 1.388-.055 1.743-.13 2.614-.195 3.488-1.069M7.25 10.251a.75.75 0 0 0 1.5 0V7.39l.39.545a.75.75 0 1 0 1.22-.871L9.402 5.72a1.722 1.722 0 0 0-2.801 0l-.96 1.344a.75.75 0 1 0 1.22.871l.39-.545z"/></svg>