<svg xmlns="http://www.w3.org/2000/svg" viewBox="0 0 44 44"><path fill-rule="evenodd" d="M23.943 4.413C22.461 3.357 20.5 4.46 20.5 6.197V18.53a1028 1028 0 0 0-6.33-5.609l-.182-.16a1.5 1.5 0 1 0-1.975 2.258l.18.157.52.457a1021 1021 0 0 1 7.036 6.25l-7.745 6.885a1.5 1.5 0 1 0 1.993 2.243L20.5 25.23v12.352c0 1.737 1.962 2.84 3.443 1.784 1.211-.863 3.253-2.381 5.007-4.003.874-.808 1.716-1.679 2.352-2.537.591-.797 1.198-1.837 1.198-2.936 0-.583-.247-1.073-.44-1.387a6.7 6.7 0 0 0-.787-1.003c-.591-.64-1.393-1.349-2.275-2.077-1.192-.984-2.637-2.086-4.071-3.18l-.498-.38c.539-.423 1.082-.844 1.619-1.26l.32-.246c.917-.71 1.815-1.402 2.609-2.046.879-.712 1.684-1.405 2.28-2.031.296-.313.579-.648.795-.995.2-.318.448-.808.448-1.396 0-1.1-.607-2.138-1.198-2.936-.636-.858-1.479-1.73-2.352-2.537-1.753-1.622-3.796-3.14-5.007-4.003m-.443 31.56V24.928c1.29.984 2.53 1.935 3.589 2.809.853.704 1.53 1.312 1.983 1.801.195.211.323.373.4.486a2 2 0 0 1-.08.205c-.1.219-.262.49-.5.811-.478.645-1.17 1.372-1.98 2.12-1.105 1.024-2.356 2.019-3.412 2.813m0-28.167v10.976l.713-.552.319-.246c.923-.713 1.791-1.384 2.557-2.004.86-.697 1.538-1.289 1.992-1.766.19-.2.314-.354.39-.462a2 2 0 0 0-.08-.202 4.5 4.5 0 0 0-.5-.811c-.477-.645-1.168-1.372-1.978-2.12C25.807 9.594 24.556 8.6 23.5 7.805"/></svg>