<svg xmlns="http://www.w3.org/2000/svg" viewBox="0 0 24 24"><path d="M20.017 13.007a.97.97 0 0 0 .982-1.002 37 37 0 0 0-.507-4.667c-.187-1.099-.28-1.648-.732-2.1-.451-.45-1-.544-2.099-.73A37 37 0 0 0 13.001 4 .97.97 0 0 0 12 4.983c0 .553.448 1 1.002 1.023 1.495.062 2.955.25 4.13.444l-7.048 7.13a1.002 1.002 0 1 0 1.418 1.417l7.047-7.13c.194 1.173.382 2.643.444 4.138.023.553.47 1.002 1.024 1.002M7 16.016a7 7 0 0 0-.997 0l-.069.005c-.52.038-.986.072-1.41.497-.426.425-.46.892-.498 1.412l-.005.07a7 7 0 0 0 0 .997l.005.07c.038.52.072.986.497 1.412s.891.459 1.411.497l.07.005a7 7 0 0 0 .997 0l.069-.006c.52-.037.986-.072 1.41-.497.426-.425.46-.891.497-1.412l.006-.069a7 7 0 0 0 0-.998l-.006-.07c-.037-.52-.071-.986-.496-1.411s-.891-.46-1.411-.497z"/></svg>