<svg xmlns="http://www.w3.org/2000/svg" viewBox="0 0 24 24"><path fill-rule="evenodd" d="M7.513 4.349c1.944-1.475 3.12-2.35 4.214-2.349.3 0 .585.079.88.226 1.389.689 1.389 2.436 1.389 5.93v7.68c0 3.5 0 5.25-1.39 5.939a2 2 0 0 1-.89.225c-1.11 0-2.269-.882-4.21-2.358a15 15 0 0 1-1.494-1.29A28 28 0 0 1 4.6 16.827C2.888 14.84 2 13.86 2 12.003s.888-2.846 2.6-4.833a28 28 0 0 1 1.412-1.526c.451-.452.962-.885 1.501-1.294m1.203 13.7c-.482-.366-.919-.74-1.29-1.11a26 26 0 0 1-1.31-1.418C4.315 13.431 4 13.001 4 12.002s.315-1.438 2.115-3.528c.417-.484.857-.963 1.31-1.417.374-.373.812-.747 1.297-1.115 1.306-.99 2.047-1.541 2.615-1.816.212-.102.315-.122.344-.125l.036.015c.023.044.083.176.137.479.134.74.142 1.832.142 3.66v7.682c0 1.83-.008 2.926-.142 3.667-.055.304-.114.436-.138.48l-.035.015a1.3 1.3 0 0 1-.345-.126c-.57-.277-1.312-.83-2.62-1.823"/><path d="M16.087 6.592a1 1 0 0 1 1.321-.505l2.718 1.228a1 1 0 1 1-.816 1.826l-2.718-1.228a1 1 0 0 1-.505-1.32m1.289 4.494a1 1 0 1 0-.816 1.827l3.032 1.353a1 1 0 0 0 .816-1.826zm.03 4.999a1 1 0 1 0-.811 1.828l2.173.978a1 1 0 1 0 .811-1.828z"/></svg>