<svg xmlns="http://www.w3.org/2000/svg" viewBox="0 0 32 32"><path d="M13.5 16.23a1.25 1.25 0 1 0-2.495.14c.015.494.058.98.114 1.433.14 1.124.21 1.686.825 2.294.614.609 1.159.672 2.248.797a15.8 15.8 0 0 0 3.552.009c1.156-.127 1.733-.19 2.356-.816.623-.627.685-1.226.809-2.425A17 17 0 0 0 21 16.25a1.25 1.25 0 0 0-2.5-.02h-.002c-.008.392-.036.79-.076 1.174-.032.313-.055.526-.08.706a4 4 0 0 1-.032.2q-.059.011-.164.027c-.17.025-.372.048-.674.08-.455.05-.952.083-1.472.083-.545 0-1.058-.036-1.52-.089a18 18 0 0 1-.63-.08l-.132-.022a3 3 0 0 1-.03-.161c-.027-.165-.051-.36-.088-.654a13 13 0 0 1-.097-1.264z"/><path fill-rule="evenodd" d="M21 8c0-.57-.037-1.136-.091-1.662-.124-1.199-.186-1.798-.809-2.425s-1.2-.69-2.356-.816a15.8 15.8 0 0 0-3.552.008c-1.09.126-1.634.19-2.248.798s-.685 1.17-.825 2.294A15 15 0 0 0 11 8H7.674c-.736 0-1.333.597-1.333 1.333h-.003c-.054.473-.095.99-.142 1.57A64 64 0 0 0 6 16c0 1.938.078 3.638.196 5.099.217 2.71.326 4.065 2.076 5.803s3.015 1.831 5.544 2.017a30 30 0 0 0 4.368 0c2.53-.186 3.794-.279 5.544-2.017s1.859-3.093 2.076-5.803A63 63 0 0 0 26 16c0-1.937-.078-3.637-.195-5.097a50 50 0 0 0-.142-1.57h-.002c0-.736-.597-1.333-1.333-1.333zM8.687 11.103l.036-.436h14.554l.036.435c.111 1.395.187 3.028.187 4.898s-.076 3.504-.187 4.899c-.116 1.44-.186 2.155-.363 2.736-.136.444-.356.87-.984 1.493-.648.645-1.065.855-1.457.977-.523.162-1.159.222-2.508.32a27 27 0 0 1-4.002 0c-1.35-.098-1.985-.158-2.508-.32-.392-.122-.809-.332-1.457-.977-.628-.623-.848-1.05-.984-1.493-.177-.58-.247-1.297-.363-2.736A61 61 0 0 1 8.5 16c0-1.87.075-3.503.187-4.897M16 5.5c-.545 0-1.058.036-1.52.089-.287.033-.473.055-.63.08l-.132.022q-.012.056-.03.161c-.027.165-.051.36-.088.654-.06.49-.1 1-.1 1.494h5c0-.466-.03-.944-.078-1.405a21 21 0 0 0-.08-.705 4 4 0 0 0-.032-.2l-.164-.027c-.17-.025-.372-.048-.674-.08A14 14 0 0 0 16 5.5"/></svg>