<svg xmlns="http://www.w3.org/2000/svg" viewBox="0 0 16 16"><path fill-rule="evenodd" d="M11 4c0-.41-.031-.814-.075-1.18-.077-.646-.115-.97-.438-1.295-.323-.326-.635-.365-1.258-.445a9.5 9.5 0 0 0-2.487.005c-.588.078-.882.118-1.2.434-.319.315-.362.619-.447 1.226A9 9 0 0 0 5 4H2.922a.75.75 0 0 0-.735.598h-.005l-.04.387C2.06 5.829 2 6.835 2 8s.059 2.171.143 3.016c.134 1.338.2 2.007 1.044 2.849s1.512.907 2.848 1.038a20 20 0 0 0 3.93 0c1.336-.131 2.004-.197 2.848-1.038.844-.842.91-1.511 1.044-2.85.085-.844.143-1.85.143-3.015s-.059-2.17-.143-3.015q-.02-.204-.04-.387h-.008A.75.75 0 0 0 13.074 4zM6.94 2.572a8 8 0 0 1 2.1-.004c.154.02.259.033.346.047l.001.005c.015.095.029.21.049.378.038.322.064.667.064 1.002h-3c0-.35.033-.71.08-1.046.021-.151.036-.253.05-.339.079-.012.173-.025.31-.043M6.507 7.77A.77.77 0 0 0 5.75 7a.75.75 0 0 0-.742.862c.015.316.047.623.087.904.085.607.128.91.447 1.226.318.316.612.355 1.2.434a9.5 9.5 0 0 0 2.487.005c.623-.08.935-.12 1.258-.445.323-.326.361-.649.438-1.296.031-.263.057-.546.068-.837A.75.75 0 0 0 10.25 7a.77.77 0 0 0-.755.77 12 12 0 0 1-.108 1.122v.004c-.088.014-.193.027-.348.047A8 8 0 0 1 6.94 8.94a12 12 0 0 1-.31-.044 14 14 0 0 1-.05-.338 8 8 0 0 1-.074-.787"/></svg>