<svg xmlns="http://www.w3.org/2000/svg" viewBox="0 0 28 28"><path fill-rule="evenodd" d="M18.89 5.156c.064.576.11 1.207.11 1.844h3.676c.552 0 1.005.448 1.005 1a54 54 0 0 1 .32 6 54 54 0 0 1-.212 4.876c-.218 2.409-.327 3.613-1.87 5.151s-2.725 1.642-5.087 1.848C15.952 25.952 15 26 14 26s-1.951-.048-2.831-.125c-2.363-.206-3.545-.31-5.088-1.848s-1.652-2.742-1.87-5.151A54 54 0 0 1 4 14a54 54 0 0 1 .32-6c0-.552.45-1 1.003-1H9c0-.686.06-1.365.142-1.976.142-1.057.213-1.586.777-2.145.563-.558 1.076-.623 2.1-.753A16 16 0 0 1 14 2c.695 0 1.347.048 1.927.118 1.085.13 1.628.196 2.2.772.571.576.635 1.14.762 2.266M14 4c-.627 0-1.213.045-1.73.11-.267.034-.451.058-.608.084-.354.058-.386.11-.447.465-.028.165-.054.357-.091.632A13 13 0 0 0 11 7h6c0-.545-.04-1.099-.098-1.62-.033-.291-.057-.5-.083-.678-.054-.363-.116-.456-.482-.514a19 19 0 0 0-.65-.084A14 14 0 0 0 14 4m-3 10c0 .707.076 1.43.177 2.07.036.233.062.393.088.53q.015.085.028.135l.112.023c.13.024.283.048.51.082.596.09 1.308.16 2.085.16.757 0 1.463-.066 2.063-.154.239-.035.404-.059.544-.084l.135-.027q.014-.059.031-.163c.025-.148.048-.321.082-.568.083-.624.145-1.32.145-2.004a1 1 0 0 1 2 0c0 .798-.072 1.586-.163 2.27-.128.952-.192 1.428-.65 1.891s-.917.53-1.835.664c-.678.1-1.481.175-2.352.175-.894 0-1.708-.08-2.386-.183-.867-.131-1.3-.197-1.751-.646-.451-.448-.522-.896-.662-1.79A16 16 0 0 1 9 14a1 1 0 1 1 2 0"/></svg>