<svg xmlns="http://www.w3.org/2000/svg" viewBox="0 0 24 24"><path fill-rule="evenodd" d="M16.98 11c.022.551.468 1 1.02 1a.97.97 0 0 0 .98-1l-.012-.287C19.854 11.32 20 11.827 20 12c0 .215-.226.948-1.823 1.747C16.699 14.485 14.518 15 12 15s-4.7-.515-6.177-1.253C4.226 12.948 4 12.215 4 12c0-.173.146-.68 1.032-1.287q-.008.142-.013.287A.97.97 0 0 0 6 12c.552 0 .998-.449 1.02-1 .117-2.757.692-4.694 1.131-5.8.196-.494.531-.767.874-.859.634-.17 1.61-.34 2.975-.34s2.34.17 2.975.34c.343.092.678.365.874.859.439 1.106 1.014 3.043 1.13 5.8M5.276 8.298c.262-1.673.665-2.954 1.016-3.836.395-.998 1.18-1.776 2.216-2.053C9.317 2.193 10.466 2 12 2s2.683.192 3.491.408c1.037.277 1.82 1.055 2.217 2.053.35.882.753 2.163 1.015 3.836C20.736 9.213 22 10.533 22 12c0 2.761-4.477 5-10 5S2 14.761 2 12c0-1.467 1.264-2.787 3.277-3.702m5.174-1.189A1 1 0 0 1 8.5 6.8v-.019c0-.49.23-1.237 1.027-1.499C10 5.127 10.755 5 12 5c1.17 0 1.873.111 2.315.3.558.237.796.77.867.928l.008.02c.13.287.31.779.31 1.352 0 .421-.1.873-.184 1.193-.235.894-1.05 1.407-1.867 1.407h-.469A1 1 0 0 1 11 10v-.153A1.646 1.646 0 0 1 12.647 8.2h.757c.06-.245.096-.46.096-.6 0-.165-.054-.349-.12-.503-.198-.041-.602-.096-1.353-.097h-.054c-.751.001-1.23.055-1.522.11M12 14a1 1 0 1 0 0-2 1 1 0 0 0 0 2m-3.476 4.171c-.891-.174-1.64.738-1.065 1.44C8.681 21.1 10.267 22 12 22s3.319-.9 4.541-2.39c.576-.701-.174-1.613-1.065-1.439a1.2 1.2 0 0 0-.653.373C13.928 19.55 12.928 20 12 20s-1.928-.451-2.823-1.456a1.2 1.2 0 0 0-.653-.373"/></svg>