<svg xmlns="http://www.w3.org/2000/svg" viewBox="0 0 24 24"><path d="M7 8a1 1 0 0 1 1-1h4a1 1 0 1 1 0 2H8a1 1 0 0 1-1-1"/><path fill-rule="evenodd" d="M15 14.5a2.5 2.5 0 0 0-2.5-2.5h-1A2.5 2.5 0 0 0 9 14.5v1a2.5 2.5 0 0 0 2.5 2.5h1a2.5 2.5 0 0 0 2.5-2.5zm-2 1v-1a.5.5 0 0 0-.5-.5h-1a.5.5 0 0 0-.5.5v1a.5.5 0 0 0 .5.5h1a.5.5 0 0 0 .5-.5"/><path fill-rule="evenodd" d="M3.081 14.079c.195 2.616.292 3.924 1.605 5.236 1.313 1.313 2.62 1.41 5.237 1.605.678.05 1.377.081 2.077.081s1.399-.03 2.077-.08c2.616-.195 3.924-.293 5.237-1.605s1.41-2.621 1.605-5.237C20.969 13.4 21 12.7 21 12s-.03-1.399-.081-2.077a6 6 0 0 0-.057-.56 3.1 3.1 0 0 0-.63-1.374 6 6 0 0 0-.404-.425l-3.391-3.392c-.206-.205-.308-.308-.426-.404a3.1 3.1 0 0 0-1.373-.63c-.15-.026-.287-.036-.56-.056A28 28 0 0 0 12 3c-.7 0-1.399.031-2.077.082-2.616.194-3.924.292-5.237 1.604s-1.41 2.621-1.605 5.237c-.05.678-.081 1.378-.081 2.078 0 .699.03 1.398.081 2.077M13.93 5.077A26 26 0 0 0 12 5.001c-.642 0-1.292.029-1.929.076-2.75.205-3.265.318-3.97 1.025-.707.706-.82 1.22-1.025 3.97A26 26 0 0 0 5 12.003c0 .642.028 1.291.076 1.928.204 2.75.318 3.265 1.024 3.971.706.707 1.22.82 3.971 1.025.637.047 1.287.076 1.929.076s1.292-.029 1.929-.076c2.75-.205 3.265-.318 3.97-1.025.707-.706.82-1.22 1.025-3.97A26 26 0 0 0 19 12a26 26 0 0 0-.108-2.288 1.1 1.1 0 0 0-.21-.458 5 5 0 0 0-.268-.276l-3.391-3.391a6 6 0 0 0-.276-.27 1.1 1.1 0 0 0-.458-.21 4 4 0 0 0-.36-.031"/></svg>