<svg xmlns="http://www.w3.org/2000/svg" viewBox="0 0 24 24"><path d="M10.795 14.294a.5.5 0 0 1 .498-.5h1.414a.5.5 0 0 1 .498.5v1.412a.5.5 0 0 1-.498.5h-1.414a.5.5 0 0 1-.498-.5z"/><path fill-rule="evenodd" d="M3.081 14.079c.195 2.616.292 3.924 1.605 5.236 1.313 1.313 2.62 1.41 5.237 1.605.678.05 1.377.081 2.077.081s1.399-.03 2.077-.08c2.616-.195 3.924-.293 5.237-1.605s1.41-2.621 1.605-5.237C20.969 13.4 21 12.7 21 12s-.03-1.399-.081-2.077a6 6 0 0 0-.057-.56 3.1 3.1 0 0 0-.63-1.374 6 6 0 0 0-.404-.425l-3.391-3.392c-.206-.205-.308-.308-.426-.404a3.1 3.1 0 0 0-1.373-.63c-.15-.026-.287-.036-.56-.056A28 28 0 0 0 12 3c-.7 0-1.399.031-2.077.082-2.616.194-3.924.292-5.237 1.604s-1.41 2.621-1.605 5.237c-.05.678-.081 1.378-.081 2.078 0 .699.03 1.398.081 2.077M8 7a1 1 0 0 0 0 2h4a1 1 0 1 0 0-2zm7 7.294A2.293 2.293 0 0 0 12.707 12h-1.414A2.293 2.293 0 0 0 9 14.294v1.412A2.293 2.293 0 0 0 11.294 18h1.412A2.293 2.293 0 0 0 15 15.707z"/></svg>