<svg xmlns="http://www.w3.org/2000/svg" viewBox="0 0 32 32"><path d="M9.5 19.75c0-.69.56-1.25 1.25-1.25h3a1.25 1.25 0 1 1 0 2.5h-3c-.69 0-1.25-.56-1.25-1.25m8.75-1.25a1.25 1.25 0 1 0 0 2.5h3a1.25 1.25 0 1 0 0-2.5z"/><path fill-rule="evenodd" d="M26 16h1.667c.736 0 1.333-.597 1.333-1.333v-1A2.667 2.667 0 0 0 26.333 11h-.517l-.008-.098c-.217-2.711-.326-4.067-2.076-5.805s-3.015-1.83-5.546-2.016a30 30 0 0 0-4.364 0c-2.53.185-3.796.278-5.546 2.016s-1.859 3.094-2.077 5.805L6.192 11h-.525A2.667 2.667 0 0 0 3 13.667v1C3 15.403 3.597 16 4.333 16H6v11a2 2 0 1 0 4 0v-.5h12v.5a2 2 0 1 0 4 0zM8.5 24v-7h15v7zm.02-9.5c.029-1.257.09-2.39.171-3.398.116-1.44.186-2.156.363-2.738.037-.121.08-.241.137-.364h13.626q.083.183.137.364c.177.582.247 1.298.363 2.738.08 1.008.142 2.14.17 3.398z"/></svg>