<svg xmlns="http://www.w3.org/2000/svg" viewBox="0 0 24 24"><path d="M7 15a1 1 0 0 1 1-1h2a1 1 0 1 1 0 2H8a1 1 0 0 1-1-1m7-1a1 1 0 1 0 0 2h2a1 1 0 1 0 0-2z"/><path fill-rule="evenodd" d="M20 12h1a1 1 0 0 0 1-1v-1a2 2 0 0 0-2-2q-.081 0-.16.013l-.005-.066c-.176-2.025-.264-3.038-1.558-4.327s-2.265-1.37-4.206-1.532a25 25 0 0 0-4.137 0c-1.941.162-2.912.242-4.206 1.532S4.346 5.922 4.17 7.947l-.006.066A1 1 0 0 0 4 8a2 2 0 0 0-2 2v1a1 1 0 0 0 1 1h1v8.5a1.5 1.5 0 0 0 3 0V20h10v.5a1.5 1.5 0 0 0 3 0zM6 18v-5h12v5zm11.842-9.88c.074.843.129 1.803.15 2.88H6.012c.022-1.077.077-2.037.15-2.88.094-1.079.181-1.699.31-2.12h11.06c.13.421.217 1.041.31 2.12"/></svg>