<svg xmlns="http://www.w3.org/2000/svg" viewBox="0 0 44 44"><path fill-rule="evenodd" d="M26.396 35.704a291 291 0 0 1-3.19.134c-3.886.142-5.829.212-7.71-.59-1.883-.801-3.243-2.324-5.963-5.37l-2.276-2.55C4.994 24.793 3.862 23.526 3.862 22s1.132-2.793 3.395-5.328l2.276-2.55c2.72-3.046 4.08-4.569 5.962-5.37s3.826-.732 7.712-.59c1.092.04 2.16.085 3.189.134 5.4.253 8.099.38 10.593 2.816s2.64 4.528 2.933 8.71c.05.71.078 1.439.078 2.178q-.002 1.111-.078 2.179c-.293 4.181-.44 6.272-2.933 8.709-2.494 2.436-5.194 2.563-10.593 2.816M18.439 16.44a1.5 1.5 0 0 1 2.122 0L24 19.88l3.44-3.44a1.5 1.5 0 1 1 2.12 2.122L26.122 22l3.44 3.44a1.5 1.5 0 1 1-2.122 2.12L24 24.122l-3.44 3.44a1.5 1.5 0 1 1-2.12-2.122L21.878 22l-3.44-3.44a1.5 1.5 0 0 1 0-2.12"/></svg>