<svg xmlns="http://www.w3.org/2000/svg" viewBox="0 0 44 44"><path fill-rule="evenodd" d="m11.771 27.88-.056-.064-2.22-2.486c-1.185-1.327-1.878-2.112-2.31-2.742-.197-.286-.275-.451-.305-.532a.4.4 0 0 1-.018-.054v-.004q-.002 0 .018-.054c.03-.08.108-.245.305-.532.432-.63 1.125-1.415 2.31-2.742l2.276-2.55c2.896-3.243 3.774-4.129 4.9-4.609 1.131-.481 2.298-.501 6.427-.35 1.08.039 2.138.083 3.157.131 5.69.267 7.106.47 8.637 1.966.907.886 1.274 1.572 1.503 2.377.281.985.38 2.202.535 4.396q.069.971.07 1.97-.001.996-.07 1.968c-.154 2.194-.254 3.411-.535 4.396-.229.805-.596 1.491-1.503 2.377-1.531 1.496-2.947 1.699-8.637 1.966-1.019.047-2.077.092-3.158.132-4.128.15-5.295.13-6.426-.352-1.126-.479-2.004-1.365-4.9-4.608m11.436 7.958c1.092-.04 2.16-.085 3.189-.134 5.4-.253 8.099-.38 10.593-2.816s2.64-4.528 2.933-8.71c.05-.71.078-1.439.078-2.178q-.002-1.11-.078-2.178c-.293-4.182-.44-6.273-2.933-8.71-2.494-2.436-5.194-2.563-10.593-2.816a306 306 0 0 0-3.19-.134c-3.886-.142-5.829-.212-7.71.59-1.883.801-3.243 2.324-5.963 5.37l-2.276 2.55C4.994 19.207 3.862 20.474 3.862 22s1.132 2.793 3.395 5.328l2.276 2.55c2.72 3.046 4.08 4.569 5.962 5.37s3.825.732 7.712.59m-4.768-19.399a1.5 1.5 0 0 1 2.122 0L24 19.88l3.44-3.44a1.5 1.5 0 1 1 2.12 2.122L26.122 22l3.44 3.44a1.5 1.5 0 1 1-2.122 2.12L24 24.122l-3.44 3.44a1.5 1.5 0 1 1-2.12-2.122L21.878 22l-3.44-3.44a1.5 1.5 0 0 1 0-2.12"/></svg>