<svg xmlns="http://www.w3.org/2000/svg" viewBox="0 0 24 24"><path fill-rule="evenodd" d="M8.188 4.48a5 5 0 0 1 .192-.086C9.312 4 10.21 4 12.007 4c1.548 0 2.9.068 4.051.168 2.024.176 3.036.264 4.324 1.558 1.289 1.294 1.37 2.265 1.531 4.206a25 25 0 0 1 0 4.137c-.161 1.941-.242 2.912-1.53 4.206-1.29 1.294-2.301 1.382-4.325 1.558-1.152.1-2.503.168-4.051.168-1.796 0-2.695 0-3.626-.393l-.193-.087c-.914-.432-1.558-1.153-2.847-2.593L4.511 16l-.042-.049C2.823 14.07 2 13.128 2 12.001s.823-2.069 2.468-3.952L4.512 8l.829-.927C6.63 5.633 7.274 4.912 8.188 4.48m.97 13.285-.116-.052c-.468-.222-.826-.57-2.211-2.12l-.823-.918-.035-.04c-.857-.982-1.374-1.578-1.698-2.06-.282-.418-.277-.551-.277-.573v-.004c0-.021-.005-.154.277-.573.324-.482.84-1.078 1.698-2.059l.035-.04.822-.919c1.386-1.55 1.744-1.898 2.212-2.119l.115-.052c.482-.203.928-.236 2.85-.236 1.49 0 2.783.066 3.878.16 1.079.094 1.602.15 2.022.279.313.096.613.25 1.06.699.457.459.606.755.695 1.043.123.394.173.88.26 1.917a23 23 0 0 1 0 3.805c-.087 1.037-.137 1.523-.26 1.917-.09.288-.238.584-.695 1.043-.447.45-.747.603-1.06.7-.42.129-.943.184-2.021.277-1.095.096-2.389.16-3.88.16-1.92 0-2.366-.032-2.848-.235m7.053-8.972a1 1 0 0 1 0 1.414L14.419 12l1.791 1.793a1 1 0 0 1-1.413 1.414l-1.792-1.793-1.79 1.793A.999.999 0 1 1 9.8 13.793L11.592 12l-1.791-1.793a1 1 0 0 1 1.413-1.414l1.791 1.793 1.792-1.793a1 1 0 0 1 1.414 0"/></svg>