<svg xmlns="http://www.w3.org/2000/svg" viewBox="0 0 16 16"><path fill-rule="evenodd" d="M6.607 11.422a2 2 0 0 1-.204-.084c-.178-.088-.33-.216-1.053-.925l-1.006-.987-.356-.365c-.515-.53-.795-.823-.965-1.052l-.006-.01.006-.008c.17-.229.45-.522.965-1.052l.356-.366 1.005-.986c.724-.71.876-.837 1.054-.925.052-.026.148-.066.203-.084.2-.066.326-.078 1.092-.078 1.18 0 2.178.055 2.995.13.68.063.987.098 1.227.173.16.05.31.124.549.368.255.261.322.41.362.54.066.206.097.47.156 1.11a13 13 0 0 1 0 2.357c-.059.642-.09.905-.156 1.111-.04.13-.107.279-.362.54-.239.244-.389.318-.549.368-.24.075-.548.11-1.227.173-.817.075-1.816.13-2.995.13-.765 0-.893-.012-1.091-.078M6.16 3.15c-.12.04-.278.105-.391.161-.429.213-.761.539-1.425 1.19L3.325 5.5l-.368.379C1.986 6.879 1.5 7.379 1.5 8s.486 1.121 1.458 2.121l.367.379 1.02.999c.663.65.995.976 1.424 1.19.113.056.272.121.392.161.453.15.814.15 1.537.15 1.223 0 2.266-.057 3.125-.136 1.264-.117 1.896-.176 2.674-.972.777-.796.832-1.388.941-2.572a14.4 14.4 0 0 0 0-2.64c-.11-1.184-.164-1.776-.941-2.572-.778-.796-1.41-.855-2.674-.972C9.963 3.056 8.921 3 7.698 3c-.723 0-1.084 0-1.538.15m4.564 3.63a.766.766 0 0 0 0-1.06.714.714 0 0 0-1.03 0L8.588 6.855 7.485 5.719a.714.714 0 0 0-1.031 0 .766.766 0 0 0 0 1.061l1.104 1.137-1.104 1.136a.766.766 0 0 0 0 1.06.714.714 0 0 0 1.03 0L8.59 8.977l1.104 1.136a.714.714 0 0 0 1.03 0 .766.766 0 0 0 0-1.06L9.62 7.917z"/></svg>