<svg xmlns="http://www.w3.org/2000/svg" viewBox="0 0 24 24"><path fill-rule="evenodd" d="M8.188 4.48a5 5 0 0 1 .192-.086C9.312 4 10.21 4 12.007 4c1.548 0 2.9.068 4.051.168 2.024.176 3.036.264 4.324 1.558 1.289 1.294 1.37 2.265 1.531 4.206a25 25 0 0 1 0 4.137c-.161 1.941-.242 2.912-1.53 4.206-1.29 1.294-2.301 1.382-4.325 1.558-1.152.1-2.503.168-4.051.168-1.796 0-2.695 0-3.626-.393l-.193-.087c-.914-.432-1.558-1.153-2.847-2.593L4.511 16l-.042-.049C2.823 14.07 2 13.128 2 12.001s.823-2.069 2.468-3.952L4.513 8l.829-.927C6.63 5.633 7.274 4.912 8.188 4.48m8.023 4.313a1 1 0 0 1 0 1.414L14.419 12l1.791 1.793a1 1 0 0 1-1.413 1.414l-1.792-1.793-1.79 1.793A.999.999 0 1 1 9.8 13.793L11.592 12l-1.791-1.793a1 1 0 0 1 1.413-1.414l1.791 1.793 1.792-1.793a1 1 0 0 1 1.414 0"/></svg>