<svg xmlns="http://www.w3.org/2000/svg" viewBox="0 0 17 17"><path fill-rule="evenodd" d="M14.871 8.499a6.374 6.374 0 1 1-12.748 0 6.374 6.374 0 0 1 12.748 0m-6.904 4.752v-.857a.71.71 0 0 0-.708-.708h-.18a.71.71 0 0 1-.708-.708v-.77a.7.7 0 0 0-.207-.501L3.846 7.389q-.129.536-.13 1.11a4.78 4.78 0 0 0 4.25 4.752m2.678-9.024-.875.877a.7.7 0 0 1-.502.208h-.593a.71.71 0 0 0-.708.708v.592a.7.7 0 0 1-.208.5l-.745.745a.375.375 0 0 0 .266.64h2.34c.187 0 .367.076.5.208l2.391 2.391a4.78 4.78 0 0 0-1.867-6.87"/></svg>