<svg xmlns="http://www.w3.org/2000/svg" viewBox="0 0 16 16"><path d="M3.422 3.995c.634-.473 1.384-.608 2.575-.646.016-.56.052-1.021.091-1.382.066-.614.481-1.126 1.09-1.23.238-.041.51-.07.804-.07s.567.029.804.07c.61.104 1.024.616 1.09 1.23.04.368.076.842.092 1.418.822.07 1.403.231 1.91.61.2.149.442.382.6.576.695.86.732 1.82.808 3.743q.014.348.014.686c0 .364-.013.729-.036 1.086-.11 1.734-.164 2.601-1.055 3.492-.78.78-1.54.918-2.879 1.014a21 21 0 0 0-.088-1.669c-.037-.381-.264-.721-.634-.818a2.4 2.4 0 0 0-.608-.08c-.226 0-.433.034-.607.08-.371.097-.598.437-.635.818a21 21 0 0 0-.088 1.714l-.092-.005c-1.731-.11-2.597-.164-3.488-1.054-.89-.89-.945-1.758-1.055-3.492l-.004-.068a20 20 0 0 0 1.737-.089c.382-.037.722-.264.819-.636.045-.175.08-.382.08-.609s-.035-.433-.08-.608c-.097-.372-.437-.6-.819-.637a21 21 0 0 0-1.712-.088c.069-1.307.198-2.078.766-2.78.157-.194.4-.427.6-.576"/></svg>