<svg xmlns="http://www.w3.org/2000/svg" viewBox="0 0 16 16"><path stroke="#1D2023" stroke-linecap="round" stroke-width="1.333" d="m5.37 4.055.589-.05.021-.59q.015-.388.043-.708c.065-.743.602-1.288 1.312-1.347a7.6 7.6 0 0 1 1.269 0c.71.06 1.247.604 1.312 1.347q.031.354.046.792l.016.534.525.1c.422.081.723.209.989.409.15.112.344.3.462.445.535.655.59 1.364.669 3.373q.013.337.013.658-.001.53-.035 1.055c-.113 1.776-.176 2.377-.861 3.062-.486.486-.936.662-1.794.761a19 19 0 0 0-.07-1.038c-.058-.583-.422-1.213-1.13-1.398a3 3 0 0 0-.776-.102 3 3 0 0 0-.776.102c-.708.185-1.073.815-1.13 1.398-.027.278-.055.644-.073 1.098-1.321-.097-1.857-.22-2.458-.82-.603-.603-.725-1.141-.822-2.47.45-.018.815-.046 1.092-.073.585-.057 1.214-.424 1.399-1.132.057-.219.101-.483.101-.777a3 3 0 0 0-.101-.776c-.185-.709-.814-1.075-1.4-1.132-.27-.027-.624-.054-1.06-.072.081-.84.232-1.296.576-1.717a3 3 0 0 1 .463-.445c.37-.278.815-.422 1.588-.487Z"/></svg>