<svg xmlns="http://www.w3.org/2000/svg" viewBox="0 0 24 24"><path stroke="#1D2023" stroke-linecap="round" stroke-width="2" d="m8.067 6.082.884-.073.033-.887q.021-.58.064-1.061c.097-1.114.904-1.931 1.97-2.02a11.5 11.5 0 0 1 1.92 0c1.067.089 1.873.906 1.97 2.02q.048.531.07 1.187l.024.801.788.15c.647.123 1.107.319 1.51.625.215.164.497.435.668.643.813.988.896 2.057 1.012 5.093q.02.494.02.967c0 .529-.02 1.06-.053 1.582-.17 2.663-.264 3.564-1.291 4.592-.732.73-1.41.994-2.707 1.144a29 29 0 0 0-.107-1.557c-.086-.877-.635-1.82-1.696-2.098a4.6 4.6 0 0 0-1.168-.153c-.44 0-.838.067-1.167.153-1.062.277-1.61 1.221-1.696 2.098a28 28 0 0 0-.11 1.645c-1.996-.146-2.802-.328-3.706-1.232s-1.086-1.71-1.232-3.702c.68-.028 1.23-.07 1.647-.11l-.097-.996.097.995c.876-.085 1.82-.633 2.098-1.695.086-.328.153-.726.153-1.167s-.067-.838-.153-1.167c-.278-1.062-1.222-1.61-2.098-1.695l-.097.995.097-.995a29 29 0 0 0-1.603-.109c.124-1.266.353-1.954.875-2.588.172-.208.453-.48.668-.643.56-.425 1.235-.644 2.413-.742Z"/></svg>