<svg xmlns="http://www.w3.org/2000/svg" viewBox="0 0 24 24"><path d="M5.049 6.028c.963-.732 2.11-.938 3.935-.996a27 27 0 0 1 .138-2.08c.1-.922.723-1.688 1.636-1.846.36-.062.774-.106 1.22-.106.447 0 .86.044 1.22.106.914.158 1.537.924 1.637 1.846.06.554.115 1.266.139 2.134 1.267.105 2.158.354 2.931.942.277.21.615.536.835.804 1.07 1.3 1.127 2.764 1.24 5.69q.02.51.02 1.005c0 .553-.02 1.105-.055 1.646-.165 2.6-.248 3.9-1.582 5.235-1.18 1.18-2.334 1.381-4.384 1.527a31 31 0 0 0-.132-2.55c-.056-.572-.397-1.082-.954-1.227a3.6 3.6 0 0 0-.915-.121c-.34 0-.652.052-.915.12-.556.146-.897.656-.953 1.229-.057.587-.118 1.46-.133 2.614l-.15-.01c-2.6-.165-3.9-.248-5.235-1.582s-1.417-2.635-1.583-5.235L3 15.027a31 31 0 0 0 2.617-.134c.572-.056 1.082-.396 1.227-.953a3.6 3.6 0 0 0 .121-.914c0-.34-.052-.651-.12-.914-.146-.557-.656-.897-1.228-.953a31 31 0 0 0-2.578-.133c.105-1.971.305-3.136 1.175-4.194a5.6 5.6 0 0 1 .835-.804"/></svg>