<svg xmlns="http://www.w3.org/2000/svg" viewBox="0 0 16 16"><path fill-rule="evenodd" d="M13.473 5.444q.029.449.027.898v.136c0 .207.001.415-.009.622-.152 3.091-2.339 5.246-4.455 7.227-.48.449-.72.674-1.036.674s-.556-.225-1.037-.675C4.848 12.346 2.66 10.192 2.508 7.1a12 12 0 0 1-.009-.622v-.136q0-.45.028-.898c.151-2.391 2.06-4.247 4.45-4.408C7.312 1.013 7.656 1 8 1q.519 0 1.023.036c2.39.16 4.298 2.017 4.45 4.408M8.002 2.248a.75.75 0 0 1 .749.75v1a.75.75 0 1 1-1.5 0v-1a.75.75 0 0 1 .75-.75m-.005 5.401a.9.9 0 1 0 0-1.8.9.9 0 0 0 0 1.8M5.249 7.5A.75.75 0 1 0 5.251 6h-1a.75.75 0 1 0-.002 1.5zm7.251-.75a.75.75 0 0 1-.75.75h-1a.75.75 0 1 1 0-1.5h1a.75.75 0 0 1 .75.75M8.751 9.5a.75.75 0 0 0-1.5 0l-.001 1a.75.75 0 0 0 1.5 0z"/></svg>