<svg xmlns="http://www.w3.org/2000/svg" viewBox="0 0 24 24"><path d="M11.996 11.25a1.25 1.25 0 1 0 0-2.5 1.25 1.25 0 0 0 0 2.5M12 13a1 1 0 0 1 1 1v2a1 1 0 0 1-2 0v-2a1 1 0 0 1 1-1"/><path fill-rule="evenodd" d="M12 21.999c-.468 0-.825-.329-1.539-.986C7.27 18.074 4.13 14.91 4.004 10.247c-.016-.577.032-1.153.08-1.727l.003-.047c.28-3.41 2.895-6.134 6.305-6.406A20 20 0 0 1 12 2c.543 0 1.083.025 1.608.067 3.41.272 6.025 2.997 6.305 6.406l.004.046c.047.575.095 1.15.079 1.728-.126 4.663-3.266 7.827-6.458 10.766-.713.657-1.07.986-1.538.986m0-2.288c-2.609-2.388-5.47-5.056-5.935-8.708h1.968a1 1 0 0 0 0-2H6.05l.02-.233.01-.133c.204-2.478 2.083-4.386 4.471-4.577q.224-.018.45-.03L11 6a1 1 0 0 0 2 0V4.03q.225.012.449.03c2.388.191 4.267 2.1 4.47 4.577l.012.133.019.232H16a1 1 0 0 0 0 2h1.935c-.464 3.652-3.326 6.32-5.935 8.709"/></svg>