<svg xmlns="http://www.w3.org/2000/svg" viewBox="0 0 16 16"><path d="M7.997 7.65a.9.9 0 1 0 0-1.8.9.9 0 0 0 0 1.8m.005 1.1a.75.75 0 0 1 .749.75v1a.75.75 0 1 1-1.5 0v-1a.75.75 0 0 1 .75-.75"/><path fill-rule="evenodd" d="M13.5 6.342q0-.45-.027-.898c-.152-2.391-2.06-4.247-4.45-4.408A15 15 0 0 0 8 1c-.344 0-.688.013-1.023.036-2.39.16-4.299 2.017-4.45 4.408q-.03.449-.027.898v.136c-.001.207-.002.415.008.622.152 3.091 2.34 5.246 4.455 7.227.48.449.721.674 1.037.674s.556-.225 1.036-.675c2.116-1.98 4.304-4.135 4.455-7.226.01-.207.01-.415.01-.622zM11.996 6a12 12 0 0 0-.02-.46c-.102-1.615-1.39-2.895-3.054-3.007l-.172-.01v1.476a.75.75 0 0 1-1.5 0V2.522l-.172.01c-1.665.112-2.952 1.392-3.054 3.006q-.015.231-.02.463H5.25a.75.75 0 1 1 0 1.5H4.051c.331 2.357 2.203 4.108 3.872 5.67l.077.071.077-.072c1.67-1.562 3.541-3.313 3.871-5.67l-1.198-.001a.75.75 0 0 1 0-1.5z"/></svg>