<svg xmlns="http://www.w3.org/2000/svg" viewBox="0 0 16 16"><path fill-rule="evenodd" d="M13.5 8a12 12 0 0 0-.01-.496H2.51a12 12 0 0 0 .03 1.49c.055.67.085.949.156 1.171.046.147.126.319.426.62.28.28.46.368.646.424.268.081.609.116 1.348.178.742.061 1.62.106 2.634.112a.75.75 0 1 1-.04 1.5 36 36 0 0 1-2.718-.117c-1.378-.115-2.068-.172-2.932-1.038s-.914-1.488-1.015-2.73a14 14 0 0 1 0-2.228c.1-1.242.15-1.863 1.015-2.73.865-.866 1.554-.923 2.932-1.038C5.835 3.048 6.838 3 8 3s2.164.048 3.007.118c1.38.115 2.069.172 2.933 1.038.865.867.915 1.488 1.015 2.731A14 14 0 0 1 15 8.25a.752.752 0 0 1-1.503 0q.003-.124.003-.25M5.116 4.613A35 35 0 0 1 8 4.5c1.12 0 2.081.047 2.883.113.74.062 1.08.097 1.35.178.185.056.365.144.645.425.3.3.38.473.427.619q.024.077.043.169H2.652q.019-.092.044-.17c.046-.146.126-.318.426-.618.28-.282.46-.369.646-.425.268-.081.609-.116 1.348-.178"/><path d="M14.25 11.5a.75.75 0 0 0 0-1.5h-4.5a.75.75 0 0 0 0 1.5z"/></svg>