<svg xmlns="http://www.w3.org/2000/svg" viewBox="0 0 24 24"><path d="M7.945 4.168A47 47 0 0 1 12 4c1.55 0 2.902.068 4.055.168 2.025.175 3.037.263 4.327 1.557.778.781 1.116 1.445 1.297 2.275H2.322c.18-.83.519-1.494 1.297-2.275 1.29-1.294 2.302-1.381 4.326-1.557M2.081 10a25 25 0 0 0 .006 4.07c.162 1.94.243 2.911 1.532 4.205s2.302 1.382 4.326 1.557c1.153.1 2.505.168 4.055.168s2.902-.067 4.055-.168c1.552-.134 2.51-.218 3.453-.832H15a3 3 0 1 1 0-6h6c.34 0 .668.057.973.161A25 25 0 0 0 21.919 10z"/><path d="M21 17a1 1 0 1 0 0-2h-6a1 1 0 1 0 0 2z"/></svg>