<svg xmlns="http://www.w3.org/2000/svg" viewBox="0 0 24 24"><path fill-rule="evenodd" d="M19.92 10.098 19.913 10H4.089l-.008.096a23 23 0 0 0 0 3.808c.087 1.037.137 1.523.26 1.916.09.288.238.584.696 1.043.447.45.748.602 1.06.699.42.13.943.184 2.022.278 1.096.095 2.39.16 3.882.16q.495 0 .959-.01A1.017 1.017 0 0 1 14 19a.984.984 0 0 1-.96.99Q12.536 20 12 20a47 47 0 0 1-4.055-.168c-2.024-.175-3.036-.263-4.326-1.557S2.25 16.01 2.087 14.07a25 25 0 0 1 0-4.14c.162-1.94.243-2.911 1.532-4.205s2.302-1.381 4.326-1.557A47 47 0 0 1 12 4c1.55 0 2.902.068 4.055.168 2.025.175 3.037.263 4.327 1.557s1.37 2.265 1.532 4.207a25 25 0 0 1 .08 2.63.97.97 0 0 1-.978.938c-.577 0-1.03-.488-1.02-1.064a22 22 0 0 0-.075-2.338M8.119 6.16C9.214 6.065 10.508 6 12 6s2.786.065 3.882.16c1.079.094 1.602.149 2.023.278.313.097.613.25 1.06.699.364.365.532.626.631.863H4.405c.099-.237.267-.498.63-.863.448-.449.749-.602 1.06-.699.421-.13.945-.184 2.023-.278"/><path d="M21 17a1 1 0 1 0 0-2h-6a1 1 0 1 0 0 2z"/></svg>