<svg xmlns="http://www.w3.org/2000/svg" viewBox="0 0 24 24"><path fill-rule="evenodd" d="M8.87 1.164C9.615 1.073 10.52 1 11.5 1s1.884.073 2.63.164c1.719.21 2.936 1.607 3.076 3.26.139 1.65.294 4.24.294 7.576s-.155 5.925-.294 7.576c-.14 1.653-1.357 3.05-3.075 3.26-.747.091-1.65.164-2.631.164s-1.884-.073-2.63-.164c-1.719-.21-2.936-1.607-3.076-3.26-.139-1.65-.294-4.24-.294-7.576s.155-5.925.294-7.576c.14-1.653 1.357-3.05 3.075-3.26M11.5 20a2 2 0 1 0 0-4 2 2 0 0 0 0 4m2-8a2 2 0 1 1-4 0 2 2 0 0 1 4 0m-2-4a2 2 0 1 0 0-4 2 2 0 0 0 0 4"/></svg>