<svg xmlns="http://www.w3.org/2000/svg" viewBox="0 0 16 16"><path fill-rule="evenodd" d="M6.8.608A14 14 0 0 1 8.498.5c.632 0 1.214.048 1.698.108 1.188.148 2.016 1.12 2.109 2.253.09 1.114.193 2.871.193 5.139s-.102 4.025-.193 5.14c-.093 1.131-.921 2.104-2.109 2.252-.484.06-1.066.108-1.698.108s-1.214-.048-1.698-.108c-1.188-.148-2.016-1.12-2.109-2.253A64 64 0 0 1 4.498 8c0-2.268.102-4.025.193-5.14.093-1.131.921-2.104 2.11-2.252M9.832 4a1.333 1.333 0 1 1-2.666 0 1.333 1.333 0 0 1 2.666 0M8.5 9.334a1.333 1.333 0 1 0 0-2.667 1.333 1.333 0 0 0 0 2.667m0 4a1.333 1.333 0 1 0 0-2.666 1.333 1.333 0 0 0 0 2.667"/></svg>