<svg xmlns="http://www.w3.org/2000/svg" viewBox="0 0 16 16"><path d="M8.499 13.335a1.333 1.333 0 1 0 0-2.667 1.333 1.333 0 0 0 0 2.667M9.832 8a1.333 1.333 0 1 1-2.666 0 1.333 1.333 0 0 1 2.666 0M8.499 5.334a1.333 1.333 0 1 0 0-2.667 1.333 1.333 0 0 0 0 2.667"/><path fill-rule="evenodd" d="M8.498.5A14 14 0 0 0 6.8.608c-1.188.148-2.016 1.12-2.109 2.253A64 64 0 0 0 4.498 8c0 2.268.102 4.025.193 5.14.093 1.131.921 2.104 2.11 2.252.483.06 1.065.108 1.697.108s1.214-.048 1.698-.108c1.188-.148 2.016-1.12 2.109-2.253.09-1.114.193-2.871.193-5.139s-.102-4.025-.193-5.14c-.093-1.13-.921-2.103-2.109-2.251A14 14 0 0 0 8.498.5M6.986 2.097C7.42 2.042 7.94 2 8.498 2s1.077.042 1.513.097c.422.052.76.4.799.886A62 62 0 0 1 10.998 8c0 2.223-.1 3.94-.188 5.017-.04.486-.377.834-.8.886-.435.055-.955.097-1.512.097s-1.077-.042-1.512-.097c-.423-.052-.76-.4-.8-.886A62 62 0 0 1 5.998 8c0-2.223.1-3.94.188-5.017.04-.486.377-.834.8-.886"/></svg>