<svg xmlns="http://www.w3.org/2000/svg" viewBox="0 0 32 32"><path d="M16.498 26.665a2.665 2.665 0 1 0 0-5.33 2.665 2.665 0 0 0 0 5.33M19.163 16a2.665 2.665 0 1 1-5.33 0 2.665 2.665 0 0 1 5.33 0m-2.665-5.335a2.665 2.665 0 1 0 0-5.33 2.665 2.665 0 0 0 0 5.33"/><path fill-rule="evenodd" d="M16.498 1.5c-1.33 0-2.555.098-3.565.22-2.248.27-3.854 2.095-4.04 4.267-.187 2.187-.395 5.609-.395 10.013s.208 7.826.395 10.013c.186 2.172 1.792 3.996 4.04 4.267 1.01.122 2.235.22 3.565.22s2.555-.098 3.565-.22c2.248-.27 3.854-2.095 4.04-4.268.187-2.186.395-5.608.395-10.012s-.208-7.826-.395-10.013c-.186-2.172-1.792-3.996-4.04-4.267a30 30 0 0 0-3.565-.22m-3.266 2.702A28 28 0 0 1 16.499 4c1.21 0 2.333.09 3.266.202.99.12 1.756.92 1.848 1.999.182 2.123.386 5.473.386 9.799s-.204 7.676-.386 9.8c-.092 1.077-.858 1.879-1.848 1.998-.933.113-2.056.202-3.266.202s-2.333-.09-3.266-.202c-.99-.12-1.755-.92-1.848-1.999-.181-2.123-.386-5.473-.386-9.799s.205-7.676.386-9.8c.092-1.077.858-1.879 1.848-1.998"/></svg>