<svg xmlns="http://www.w3.org/2000/svg" viewBox="0 0 24 24"><path d="M12.5 20a2 2 0 1 0 0-4 2 2 0 0 0 0 4m2-8a2 2 0 1 1-4 0 2 2 0 0 1 4 0m-2-4a2 2 0 1 0 0-4 2 2 0 0 0 0 4"/><path fill-rule="evenodd" d="M12.5 1c-.98 0-1.884.073-2.63.164-1.719.21-2.936 1.607-3.076 3.26C6.655 6.074 6.5 8.664 6.5 12s.155 5.925.294 7.576c.14 1.653 1.357 3.05 3.075 3.26.747.091 1.65.164 2.631.164s1.884-.073 2.63-.164c1.719-.21 2.936-1.607 3.076-3.26.139-1.65.294-4.24.294-7.576s-.155-5.925-.294-7.576c-.14-1.653-1.357-3.05-3.075-3.26A22 22 0 0 0 12.5 1m-2.389 2.15A20 20 0 0 1 12.5 3c.884 0 1.705.066 2.389.15.707.085 1.258.66 1.324 1.442.135 1.6.287 4.134.287 7.408s-.152 5.807-.287 7.408c-.066.782-.617 1.357-1.324 1.443-.684.083-1.505.149-2.389.149s-1.705-.066-2.389-.15c-.707-.085-1.258-.66-1.324-1.442A89 89 0 0 1 8.5 12c0-3.274.152-5.807.287-7.408.066-.782.617-1.357 1.324-1.443"/></svg>