<svg xmlns="http://www.w3.org/2000/svg" viewBox="0 0 32 32"><path d="M12.866 3.366A1.25 1.25 0 0 1 13.75 3h4.5c.331 0 .65.132.884.366l1.5 1.5a1.25 1.25 0 0 1-1.768 1.768L17.732 5.5h-3.464l-1.135 1.134a1.25 1.25 0 1 1-1.768-1.768z"/><path fill-rule="evenodd" d="M4.017 23.443Q4 23.593 4 23.75a2.75 2.75 0 0 0 2.75 2.75h-1.5a1.25 1.25 0 1 0 0 2.5h21.5a1.25 1.25 0 1 0 0-2.5h-13A2.75 2.75 0 0 0 16.2 25h8.055c.638 0 .956 0 1.222-.047a3.06 3.06 0 0 0 2.476-2.476c.047-.266.047-.584.047-1.222 0-1.834-.18-3.628-.434-5.254-.457-2.933-.686-4.4-1.667-5.653-.426-.544-1.232-1.235-1.835-1.572C22.674 8 21.39 8 18.824 8H4v14.334c0 .442 0 .806.017 1.109m10.646-.943a9 9 0 0 1-.063-.746 51 51 0 0 1-.1-3.004c0-1.078.048-2.156.1-3.004.05-.826.075-1.24.511-1.696.437-.458.68-.484 1.168-.537a2.3 2.3 0 0 1 .487 0c.487.053.73.08 1.167.537.436.457.462.87.512 1.696.052.848.1 1.926.1 3.004s-.049 2.156-.1 3.004a9 9 0 0 1-.064.746zm10.7-4.005a57 57 0 0 1-1.88-.105c-.92-.063-1.38-.095-1.789-.4a2 2 0 0 1-.418-.447C21 17.115 21 16.743 21 16s0-1.115.276-1.543a2 2 0 0 1 .418-.448c.408-.304.869-.336 1.79-.399.38-.026.766-.05 1.113-.07.142.637.293 1.528.499 2.846.106.68.198 1.387.267 2.109M6.5 13.5h2.82q.165 0 .33.007c.903.036 1.354.053 1.833.54.48.485.492.916.515 1.777a6 6 0 0 1 0 .352c-.023.861-.035 1.292-.515 1.778-.48.485-.93.503-1.832.54q-.165.006-.332.006H6.5zM9.2 25a2.75 2.75 0 0 1-2.45 1.5h7A2.75 2.75 0 0 1 11.3 25z"/></svg>