<svg xmlns="http://www.w3.org/2000/svg" viewBox="0 0 24 24"><path d="M9.293 2.293A1 1 0 0 1 10 2h4a1 1 0 0 1 .707.293l1 1a1 1 0 0 1-1.414 1.414L13.586 4h-3.172l-.707.707a1 1 0 0 1-1.414-1.414z"/><path fill-rule="evenodd" d="M3.01 17.793Q3 17.895 3 18a2 2 0 0 0 2 2H4a1 1 0 1 0 0 2h16a1 1 0 1 0 0-2H10a2 2 0 0 0 1.732-1h6.21c.71 0 1.066 0 1.358-.078a2.3 2.3 0 0 0 1.622-1.622c.078-.292.078-.648.078-1.359 0-1.375-.135-2.72-.326-3.94-.342-2.2-.514-3.3-1.25-4.24a5.4 5.4 0 0 0-1.376-1.179C17.005 6 16.043 6 14.118 6H3v11c0 .313 0 .573.01.793M5 13.94v-3.882C5.298 10 5.683 10 6.227 10h.858q.082 0 .166.003c.653.02.98.03 1.342.39s.376.696.402 1.368a6 6 0 0 1 0 .478c-.026.672-.04 1.008-.402 1.368s-.689.37-1.342.39Q7.169 14 7.085 14h-.858c-.544 0-.93 0-1.227-.06M13.855 17h-2.71c-.04-.184-.052-.398-.069-.676A40 40 0 0 1 11 14c0-.836.037-1.672.076-2.324.037-.612.055-.919.38-1.261.325-.343.502-.363.857-.404a1.6 1.6 0 0 1 .374 0c.355.04.533.06.857.404.325.342.343.649.38 1.261.04.652.076 1.488.076 2.324s-.037 1.672-.076 2.324a5 5 0 0 1-.069.676m5.053-3.004a26 26 0 0 1-.96-.06c-.78-.061-1.17-.092-1.49-.362a1.5 1.5 0 0 1-.213-.23C16 13.003 16 12.668 16 12s0-1.003.245-1.343c.053-.073.145-.172.214-.23.32-.271.71-.302 1.489-.362l.345-.026c.114.475.234 1.171.405 2.27.085.544.157 1.11.21 1.687M6.732 19A2 2 0 0 1 5 20h5a2 2 0 0 1-1.732-1z"/></svg>