<svg xmlns="http://www.w3.org/2000/svg" viewBox="0 0 24 24"><path d="M9.293 2.293A1 1 0 0 1 10 2h4a1 1 0 0 1 .707.293l1 1a1 1 0 0 1-1.414 1.414L13.586 4h-3.172l-.707.707a1 1 0 0 1-1.414-1.414z"/><path fill-rule="evenodd" d="M3 18q0-.106.01-.207C3 17.573 3 17.313 3 17V6h11.118c1.925 0 2.887 0 3.93.582.452.253 1.057.77 1.376 1.179.736.94.908 2.04 1.25 4.24.19 1.22.326 2.565.326 3.94 0 .711 0 1.067-.078 1.359a2.3 2.3 0 0 1-1.622 1.622c-.292.078-.648.078-1.358.078h-6.21a2 2 0 0 1-1.725 1H20a1 1 0 1 1 0 2H4a1 1 0 1 1 0-2h.993A2 2 0 0 1 3 18m2.007 2h4.986a2 2 0 0 1-1.725-1H6.732a2 2 0 0 1-1.725 1m2.078-10H5V8h9.118c2.055 0 2.451.047 2.955.328.22.123.62.467.776.665.186.239.31.491.444 1.046l-.345.026c-.78.06-1.17.09-1.49.361-.069.059-.16.158-.213.23C16 10.997 16 11.332 16 12s0 1.003.245 1.343c.053.073.144.172.213.23.32.271.71.302 1.49.362.364.028.711.052.96.06.058.639.092 1.291.092 1.946 0 .374 0 .587-.008.746q-.005.089-.008.113a.3.3 0 0 1-.184.184l-.113.008a19 19 0 0 1-.745.008h-4.087c.04-.184.052-.398.07-.676.038-.652.075-1.488.075-2.324s-.037-1.672-.076-2.324c-.037-.612-.055-.919-.38-1.261-.325-.343-.502-.363-.857-.404a1.6 1.6 0 0 0-.374 0c-.355.04-.532.06-.857.404-.325.342-.343.649-.38 1.261A40 40 0 0 0 11 14c0 .836.037 1.672.076 2.324.017.277.03.492.069.676H5v-3h2.085q.082 0 .166-.003c.653-.02.98-.03 1.342-.39s.376-.696.402-1.368a6 6 0 0 0 0-.478c-.026-.672-.04-1.008-.402-1.368s-.689-.37-1.342-.39z"/></svg>