<svg xmlns="http://www.w3.org/2000/svg" viewBox="0 0 16 16"><path d="M6.113 1.244A.75.75 0 0 1 6.666 1h2.667a.75.75 0 0 1 .553.244l.915 1a.75.75 0 1 1-1.106 1.012L9.003 2.5H6.997l-.692.756a.75.75 0 0 1-1.107-1.012z"/><path fill-rule="evenodd" d="M7.979 12.5h4.148c.32 0 .478 0 .611-.024a1.53 1.53 0 0 0 1.238-1.237c.024-.133.024-.293.024-.612 0-.917-.09-1.814-.217-2.627-.229-1.466-.343-2.2-.834-2.826a3.6 3.6 0 0 0-.917-.786C11.336 4 10.695 4 9.412 4H2v8.139A1.25 1.25 0 0 0 3.237 13.5H2.75a.75.75 0 0 0 0 1.5h10.5a.75.75 0 0 0 0-1.5H6.762c.6-.005 1.1-.432 1.217-1M3.499 7v2.5h1.2q.106 0 .207-.005c.414-.018.621-.028.844-.252.223-.223.23-.43.247-.844a4 4 0 0 0 0-.298c-.016-.414-.024-.62-.247-.844s-.43-.234-.844-.252A5 5 0 0 0 4.7 7zm.975 5.5h1.051c.116.568.616.995 1.217 1H3.258c.6-.005 1.1-.432 1.216-1m3.08-1.5-.008-.123A23 23 0 0 1 7.5 9.5c0-.49.021-.982.046-1.377.025-.419.038-.628.264-.859.225-.23.35-.24.597-.26a1 1 0 0 1 .186 0c.247.02.371.03.597.26s.238.44.264.86c.024.394.046.885.046 1.376a23 23 0 0 1-.054 1.5zm4.896-1.53a17 17 0 0 0-.15-1.239c-.08-.514-.143-.891-.198-1.176-.365.029-.564.054-.743.183-.08.057-.18.166-.232.25C11 7.696 11 7.88 11 8.25s0 .554.127.762a1 1 0 0 0 .232.25c.198.142.42.159.866.192z"/></svg>