<svg xmlns="http://www.w3.org/2000/svg" viewBox="0 0 24 24"><path fill-rule="evenodd" d="M9.715 11.206q1.139-.098 2.282-.087 1.142-.012 2.282.087a3.5 3.5 0 0 0-.274-1.154 22.7 22.7 0 0 0-2.008-3.71 22.6 22.6 0 0 0-2.01 3.712c-.157.37-.248.76-.272 1.152m6.564.452a4.97 4.97 0 0 1 2.044 1.641 21.3 21.3 0 0 1 2.195 3.83l.367.83c.372.841-.222 1.785-1.176 1.869l-.942.082a23.7 23.7 0 0 1-4.574-.043 5.2 5.2 0 0 1-2.196-.754 5.2 5.2 0 0 1-2.196.754 23.7 23.7 0 0 1-4.573.043l-.943-.082c-.954-.084-1.548-1.028-1.176-1.87l.367-.83A21.3 21.3 0 0 1 5.671 13.3a4.97 4.97 0 0 1 2.043-1.64 5.3 5.3 0 0 1 .421-2.322 24.5 24.5 0 0 1 2.3-4.203l.343-.503c.573-.841 1.865-.841 2.438 0l.344.504a24.5 24.5 0 0 1 2.298 4.2 5.3 5.3 0 0 1 .421 2.323m-2.748 6.088.029-.043a24.6 24.6 0 0 0 2.262-4.115c.333.204.624.472.853.79a19.4 19.4 0 0 1 2 3.49l.058.13-.15.014a21.6 21.6 0 0 1-4.168-.04 3.1 3.1 0 0 1-.884-.227m-3.068 0a3.1 3.1 0 0 1-.884.227c-1.385.147-2.781.16-4.169.039l-.149-.013.058-.13a19.4 19.4 0 0 1 2-3.491c.23-.318.52-.586.853-.79a24.5 24.5 0 0 0 2.263 4.117zm3.183-4.64a22 22 0 0 0-1.649-.08q-.825.008-1.65.08l-.147.013.058.132a19.4 19.4 0 0 0 1.74 3.117 19.4 19.4 0 0 0 1.738-3.117l.058-.132z"/></svg>