<svg xmlns="http://www.w3.org/2000/svg" viewBox="0 0 44 44"><path fill-rule="evenodd" d="M22.133 29.83a40.6 40.6 0 0 0 3.436-6.471l-1.034-.096A38 38 0 0 0 22 23.115q-1.269.031-2.535.148l-1.034.096a40.6 40.6 0 0 0 3.437 6.474l.132.202zm6.593-6.082-.758 1.808a41 41 0 0 1-3.89 7.185 6.05 6.05 0 0 0 2.72 1.005c2.54.285 5.103.31 7.65.076l1.095-.101-.426-1.018a38 38 0 0 0-3.671-6.755 6.07 6.07 0 0 0-2.72-2.2M22 34.958a9.04 9.04 0 0 1-4.464 1.789c-2.743.307-5.51.335-8.258.081l-2.457-.226c-1.349-.125-2.188-1.531-1.662-2.786l.957-2.285a41 41 0 0 1 3.962-7.292 9.07 9.07 0 0 1 4.697-3.518 9.7 9.7 0 0 1 .716-3.954 43.7 43.7 0 0 1 3.866-7.375l.97-1.484a1.996 1.996 0 0 1 3.346 0l.97 1.487a43.7 43.7 0 0 1 3.864 7.369 9.7 9.7 0 0 1 .717 3.956 9.07 9.07 0 0 1 4.698 3.52 41 41 0 0 1 3.963 7.291l.957 2.285c.525 1.255-.314 2.661-1.663 2.786l-2.457.226a40.6 40.6 0 0 1-8.258-.081A9.04 9.04 0 0 1 22 34.957m-6.726-11.21.758 1.808a41 41 0 0 0 3.89 7.185 6.05 6.05 0 0 1-2.72 1.005c-2.54.285-5.103.31-7.65.076l-1.095-.101.426-1.018a38 38 0 0 1 3.671-6.755 6.07 6.07 0 0 1 2.72-2.2m10.948-3.529A41 41 0 0 0 22 20.095a41 41 0 0 0-4.223.124 6.7 6.7 0 0 1 .492-2.306 40.6 40.6 0 0 1 3.599-6.864l.132-.202.133.204a40.6 40.6 0 0 1 3.596 6.86c.302.74.467 1.522.493 2.308"/></svg>