<svg xmlns="http://www.w3.org/2000/svg" viewBox="0 0 16 16"><path fill-rule="evenodd" d="M6.752 8.63c.338.749.756 1.46 1.248 2.122.491-.662.91-1.373 1.248-2.122a4 4 0 0 0-.24-.04v-.001l-.025-.002A8 8 0 0 0 8 8.532c-.43 0-.752.024-.983.055l-.026.002v.001a4 4 0 0 0-.24.04M6.63 7.1q.686-.063 1.37-.06.685-.003 1.369.058l-.123-.3A16 16 0 0 0 8 4.373c-.484.774-.9 1.586-1.246 2.428zm4.367.432a3.45 3.45 0 0 1 1.209 1.122 16 16 0 0 1 1.454 2.762l.263.645c.246.604-.131 1.265-.754 1.322l-.667.06c-.995.09-2 .074-3-.048A3.3 3.3 0 0 1 8 12.808c-.445.316-.96.52-1.503.587-1 .122-2.005.138-3 .048l-.667-.06c-.623-.057-1-.718-.754-1.322l.263-.645c.393-.967.88-1.892 1.454-2.762A3.45 3.45 0 0 1 5 7.532c.021-.3.09-.598.206-.882l.16-.39A17.6 17.6 0 0 1 6.94 3.279l.217-.33a1.014 1.014 0 0 1 1.684 0l.217.331a17.6 17.6 0 0 1 1.573 2.98l.16.39c.117.284.186.582.206.882m-1.903 4.225a13 13 0 0 0 1.581-2.68q.196.172.342.393a14.3 14.3 0 0 1 1.308 2.482 12.8 12.8 0 0 1-2.698-.044 1.8 1.8 0 0 1-.533-.151m-3.77-2.679c.416.951.947 1.85 1.58 2.679a1.8 1.8 0 0 1-.532.151 12.8 12.8 0 0 1-2.698.044c.354-.868.792-1.7 1.307-2.482q.147-.222.343-.392"/></svg>