<svg xmlns="http://www.w3.org/2000/svg" viewBox="0 0 24 24"><path fill-rule="evenodd" d="M15.447 6.265a46 46 0 0 1-2.507 2.71 46 46 0 0 1-2.698 2.516 12 12 0 0 1-.407.336l-.14-.102a2.9 2.9 0 0 1-.711-.752l.041-.055c.069-.088.154-.19.293-.353a46 46 0 0 1 2.508-2.71 46 46 0 0 1 2.698-2.516 12 12 0 0 1 .406-.336l.14.102a2.9 2.9 0 0 1 .711.752l-.041.055c-.068.088-.154.19-.293.353m.666 2.268q.49-.544.852-.972c.526-.62.788-.93.813-1.626s-.148-.93-.492-1.401a4.9 4.9 0 0 0-1.037-1.04c-.47-.347-.704-.52-1.396-.495s-1.001.288-1.62.816a48 48 0 0 0-2.816 2.627A48 48 0 0 0 7.8 9.269c-.525.62-.788.931-.813 1.626-.016.448.05.705.191.957l-.289.29a.75.75 0 0 0 0 1.06l.768.771a.745.745 0 0 0 1.056 0l.302-.303c.234.12.484.176.897.161.692-.024 1.002-.288 1.62-.816a48 48 0 0 0 3.124-2.937l.093.032c.296.108.708.305 1.136.655.83.678 1.836 2.023 2.065 4.736.038.46.055 1.042.058 1.645C18.013 18.16 17.17 19 16.094 19H8.98v-1h1.992c.55 0 .996-.448.996-1s-.446-1-.996-1H4.996A1 1 0 0 0 4 17c0 .552.446 1 .996 1h1.992v1c0 1.105.892 2 1.993 2h7.113c2.112 0 3.916-1.674 3.906-3.863a24 24 0 0 0-.065-1.805c-.27-3.203-1.505-5.067-2.792-6.118a6 6 0 0 0-1.03-.68"/></svg>