<svg xmlns="http://www.w3.org/2000/svg" viewBox="0 0 24 24"><path fill-rule="evenodd" d="M4.686 4.686c-1.313 1.313-1.41 2.62-1.605 5.237C3.031 10.6 3 11.3 3 12s.03 1.399.081 2.077c.195 2.616.292 3.924 1.605 5.237s2.62 1.41 5.237 1.605C10.6 20.969 11.3 21 12 21s1.399-.03 2.077-.081c2.616-.195 3.924-.292 5.237-1.605s1.41-2.62 1.605-5.237C20.969 13.4 21 12.7 21 12s-.03-1.399-.081-2.077c-.195-2.616-.292-3.924-1.605-5.237s-2.62-1.41-5.237-1.605A28 28 0 0 0 12 3c-.7 0-1.399.03-2.077.081-2.616.195-3.924.292-5.237 1.605m4.722 2.46C10.058 7.08 11.024 7 12 7a25 25 0 0 1 2.36.124c.569.052 1.118.145 1.56.54.492.44.592.927.669 1.296.07.343.117.69.117 1.04 0 .337-.043.669-.104.999-.075.407-.175.954-.7 1.414-.527.463-1.15.494-1.612.516q-.237.013-.472.031c-.273.02-.545.04-.818.04 0 0 0 1-1 1-.72 0-1.038-.583-.958-1.214.047-.37.162-.802.507-1.166.35-.369.786-.503 1.154-.568.338-.06.754-.082 1.192-.105.227-.012.684-.05.684-.05a3.4 3.4 0 0 0 .127-.897c0-.28-.047-.566-.122-.836a5 5 0 0 0-.416-.05A23 23 0 0 0 12 9a24 24 0 0 0-2.528.152c-.053.006-.058.032-.064.06l-.004.017a1 1 0 0 1-.973.772 1.013 1.013 0 0 1-.964-1.27c.05-.189.11-.416.304-.702.11-.16.25-.295.355-.386.106-.09.26-.208.436-.292.268-.128.553-.174.846-.204m3.841 9.354a1.249 1.249 0 1 0-2.498 0 1.249 1.249 0 0 0 2.498 0"/></svg>