<svg xmlns="http://www.w3.org/2000/svg" viewBox="0 0 16 16"><path fill-rule="evenodd" d="M3.124 3.124c-.875.875-.94 1.747-1.07 3.491C2.02 7.067 2 7.534 2 8s.02.933.054 1.385c.13 1.744.195 2.616 1.07 3.491s1.747.94 3.491 1.07C7.067 13.98 7.534 14 8 14s.933-.02 1.385-.054c1.744-.13 2.616-.195 3.491-1.07s.94-1.747 1.07-3.491C13.98 8.933 14 8.466 14 8s-.02-.933-.054-1.385c-.13-1.744-.195-2.616-1.07-3.491s-1.747-.94-3.491-1.07A19 19 0 0 0 8 2c-.466 0-.933.02-1.385.054-1.744.13-2.616.195-3.491 1.07m3.14 1.558A17 17 0 0 1 8 4.583c.548 0 1.095.038 1.641.089.276.025.676.06 1.028.376.285.255.404.581.48.945.04.197.072.427.072.674 0 .227-.027.443-.062.632-.073.397-.188.763-.502 1.04-.375.328-.82.35-1.125.364l-.158.008-.067.004h-.645c-.02.152-.124.619-.682.619-.468 0-.756-.386-.701-.82.032-.256.113-.564.36-.825.251-.264.562-.358.815-.403.23-.041.513-.056.802-.07l.086-.005q.155-.006.31-.021a2.5 2.5 0 0 0 .069-.523c0-.164-.03-.325-.066-.484q-.1-.014-.2-.022l-.018-.002A16 16 0 0 0 8 6.084c-.582 0-1.172.047-1.581.09q-.014.001-.036.008a.2.2 0 0 1-.042.008.75.75 0 1 1-1.439-.408 1.4 1.4 0 0 1 .21-.476c.079-.115.178-.21.251-.273s.183-.147.309-.207c.188-.09.386-.123.591-.144m2.636 6.25a.9.9 0 1 0-1.8 0 .9.9 0 0 0 1.8 0"/></svg>