<svg xmlns="http://www.w3.org/2000/svg" viewBox="0 0 32 32"><path d="M21.377 11.57a1.04 1.04 0 1 0 0-2.08 1.04 1.04 0 0 0 0 2.08"/><path fill-rule="evenodd" d="M16 11.341a4.66 4.66 0 1 1 0 9.322 4.66 4.66 0 0 1 0-9.322m3.026 4.661a3.025 3.025 0 1 1-6.05 0 3.025 3.025 0 0 1 6.05 0"/><path fill-rule="evenodd" d="M.146 12.31C.492 7.657.666 5.332 3 2.998S7.66.492 12.31.146C13.516.056 14.76 0 16.004 0s2.487.055 3.692.145c4.651.346 6.977.519 9.31 2.853 2.335 2.334 2.508 4.66 2.854 9.31.09 1.206.144 2.45.144 3.693 0 1.244-.054 2.487-.144 3.693-.346 4.65-.52 6.976-2.853 9.31s-4.66 2.508-9.31 2.854c-1.206.09-2.45.144-3.693.144a50 50 0 0 1-3.693-.144c-4.651-.347-6.977-.52-9.31-2.854C.666 26.67.493 24.344.147 19.694a50 50 0 0 1-.144-3.693c0-1.243.054-2.487.144-3.693m15.855-4.977c2.354 0 2.65.01 3.574.052s1.553.189 2.105.403c.57.221 1.053.518 1.535 1s.778.965 1 1.535c.214.552.36 1.182.403 2.105.042.924.052 1.22.052 3.574s-.01 2.65-.052 3.574-.189 1.553-.403 2.104a4.25 4.25 0 0 1-1 1.536 4.25 4.25 0 0 1-1.535 1c-.552.214-1.182.36-2.105.403-.924.042-1.22.052-3.574.052s-2.65-.01-3.574-.052c-.923-.043-1.553-.189-2.104-.403a4.25 4.25 0 0 1-1.536-1 4.25 4.25 0 0 1-1-1.536c-.214-.551-.36-1.181-.403-2.104-.042-.925-.052-1.22-.052-3.574s.01-2.65.052-3.574.189-1.553.403-2.105a4.25 4.25 0 0 1 1-1.535 4.25 4.25 0 0 1 1.535-1c.552-.214 1.182-.361 2.105-.403.925-.042 1.22-.052 3.574-.052"/></svg>