<svg xmlns="http://www.w3.org/2000/svg" viewBox="0 0 24 24"><path d="M16.03 8.677a.78.78 0 1 0 0-1.56.78.78 0 0 0 0 1.56"/><path fill-rule="evenodd" d="M11.998 8.506a3.496 3.496 0 1 1 0 6.991 3.496 3.496 0 0 1 0-6.991m2.269 3.496a2.27 2.27 0 1 1-4.538 0 2.27 2.27 0 0 1 4.538 0"/><path fill-rule="evenodd" d="M.106 9.232C.366 5.744.496 4 2.246 2.249S5.741.369 9.23.109A38 38 0 0 1 12 .001c.932 0 1.865.04 2.77.108C18.255.37 20 .5 21.75 2.25s1.88 3.495 2.14 6.983c.067.904.108 1.837.108 2.77 0 .932-.04 1.865-.108 2.77-.26 3.487-.39 5.231-2.14 6.982-1.75 1.75-3.495 1.88-6.983 2.14-.904.067-1.837.108-2.77.108-.932 0-1.865-.04-2.77-.108-3.487-.26-5.231-.39-6.982-2.14-1.75-1.75-1.88-3.495-2.14-6.983a38 38 0 0 1-.108-2.77c0-.932.04-1.865.108-2.77M11.998 5.5c1.766 0 1.987.007 2.68.039.692.031 1.165.141 1.579.302.427.166.79.388 1.151.75.362.361.584.724.75 1.151.161.414.27.887.302 1.579.032.693.04.915.04 2.68s-.008 1.987-.04 2.68c-.031.693-.141 1.166-.302 1.58-.166.427-.388.79-.75 1.15a3.2 3.2 0 0 1-1.151.75c-.414.161-.887.271-1.579.303-.693.032-.914.039-2.68.039s-1.987-.008-2.68-.04c-.693-.03-1.165-.14-1.579-.301a3.2 3.2 0 0 1-1.152-.75 3.2 3.2 0 0 1-.75-1.152c-.16-.413-.27-.886-.302-1.578-.031-.694-.039-.915-.039-2.68 0-1.767.008-1.988.04-2.681.03-.692.14-1.165.301-1.579.167-.427.389-.79.75-1.151a3.2 3.2 0 0 1 1.152-.75c.414-.16.886-.27 1.578-.302.694-.032.915-.04 2.68-.04"/></svg>