<svg xmlns="http://www.w3.org/2000/svg" viewBox="0 0 24 24"><path fill-rule="evenodd" d="M11.86 2.5a2.14 2.14 0 0 0-1.435.553L6.94 6.206a4 4 0 0 1-1.118.756l-.842.41A5.3 5.3 0 0 0 2 12.14v.238a5 5 0 0 0 3.787 4.85c.478.119.919.354 1.284.685l3.354 3.034A2.14 2.14 0 0 0 14 19.36V4.64a2.14 2.14 0 0 0-2.14-2.14M18 12.493c0 .92-.385 1.483-1.143 2.373-.3.35-.644.641-1.033.634-.198-.003-.406-.083-.626-.27-.618-.526-.322-1.125.103-1.623.34-.4.506-.618.61-.795 0 0 .089-.132.089-.312s-.089-.312-.089-.312c-.104-.177-.27-.396-.61-.795-.425-.498-.721-1.097-.103-1.623.22-.187.428-.266.625-.27.39-.007.735.284 1.034.635.758.889 1.143 1.438 1.143 2.358"/></svg>