<svg xmlns="http://www.w3.org/2000/svg" viewBox="0 0 16 16"><path fill-rule="evenodd" d="M7.429 1c-.457 0-.891.199-1.19.545L4.301 3.79a3 3 0 0 1-.884.699l-.34.176A3.85 3.85 0 0 0 1 8.085v.429c0 1.494 1.004 2.8 2.448 3.185.349.093.662.289.897.562l1.894 2.194A1.571 1.571 0 0 0 9 13.43V2.57A1.57 1.57 0 0 0 7.429 1m-.054 1.525a.071.071 0 0 1 .125.046V13.43a.071.071 0 0 1-.125.046L5.48 11.281a3.3 3.3 0 0 0-1.647-1.031A1.796 1.796 0 0 1 2.5 8.514v-.429c0-.878.49-1.684 1.269-2.088l.34-.177a4.5 4.5 0 0 0 1.328-1.05zm3.699 3.743c.607.703.921 1.066.921 1.736 0 .666-.31 1.026-.906 1.716l-.045.051a.75.75 0 0 1-1.168-.932c.066-.1.152-.189.237-.278q.092-.093.173-.193c.097-.121.149-.196.178-.245a.23.23 0 0 0-.001-.238 2 2 0 0 0-.179-.247q-.08-.096-.17-.19a2.3 2.3 0 0 1-.238-.283.75.75 0 0 1 1.165-.935z"/></svg>