<svg xmlns="http://www.w3.org/2000/svg" viewBox="0 0 24 24"><path fill-rule="evenodd" d="M12.004 3c-1.55 0-2.903.068-4.055.168-2.025.176-3.037.263-4.326 1.557C2.333 6.02 2.253 6.99 2.09 8.93a25 25 0 0 0 0 4.14c.161 1.94.242 2.911 1.532 4.205 1.289 1.294 2.301 1.382 4.325 1.557 1.153.1 2.506.168 4.056.168a49 49 0 0 0 3.023-.091A39 39 0 0 1 15 17.5c0-1.66.132-3.652.268-4.52.098-.628.147-.943.541-1.284.395-.34.75-.398 1.458-.513.626-.102 1.39-.183 2.234-.183a14 14 0 0 1 2.502.227 24 24 0 0 0-.086-2.295c-.162-1.942-.242-2.913-1.532-4.207s-2.302-1.382-4.327-1.557A47 47 0 0 0 12.004 3m3.076 17c.05.825.117 1.554.185 2H8.004a1 1 0 1 1 0-2zM11 7a1 1 0 0 1 1 1v2h2a1 1 0 1 1 0 2h-2v2a1 1 0 1 1-2 0v-2H8a1 1 0 1 1 0-2h2V8a1 1 0 0 1 1-1m6 10.5c0 1.15.073 2.528.149 3.13.054.434.081.652.3.888.22.236.416.276.81.355.348.07.773.127 1.242.127a6.3 6.3 0 0 0 1.242-.127c.393-.08.59-.12.809-.355.219-.236.246-.454.3-.889.076-.6.148-1.979.148-3.129s-.072-2.528-.147-3.13c-.055-.434-.082-.652-.301-.888-.22-.236-.416-.276-.81-.355A6.3 6.3 0 0 0 19.501 13c-.469 0-.894.056-1.242.127-.393.08-.59.119-.81.355-.219.236-.246.454-.3.889-.076.6-.149 1.98-.149 3.129"/></svg>