<svg xmlns="http://www.w3.org/2000/svg" viewBox="0 0 16 16"><path fill-rule="evenodd" d="M8.004 2c-1.162 0-2.165.048-3.008.118-1.378.115-2.068.172-2.932 1.038s-.915 1.488-1.015 2.73a14 14 0 0 0 0 2.228c.1 1.242.15 1.863 1.015 2.73.864.866 1.554.923 2.932 1.038.843.07 1.846.118 3.008.118q1.092-.002 1.996-.05c.002-1.118.088-1.976.176-2.568.065-.432.097-.648.319-.878.221-.23.432-.27.852-.348A9 9 0 0 1 13 8c.638 0 1.208.072 1.653.156q.168.03.297.059l.009-.102a14 14 0 0 0 0-2.226c-.1-1.243-.15-1.864-1.015-2.73-.864-.867-1.554-.924-2.933-1.039A36 36 0 0 0 8.004 2m-2.25 11.496h4.3c.032.444.076.818.122 1.122.022.148.04.271.064.378H5.754a.75.75 0 0 1 0-1.5M8 5a.75.75 0 1 0-1.5 0v1.25H5.25a.75.75 0 1 0 0 1.5H6.5V9A.75.75 0 0 0 8 9V7.75h1.25a.75.75 0 1 0 0-1.5H8zm3.088 8.72A16 16 0 0 1 11 12c0-.714.04-1.288.088-1.72.047-.428.07-.642.307-.887.235-.245.43-.275.818-.333a5.3 5.3 0 0 1 1.574 0c.388.058.583.088.818.333.236.245.26.459.307.887.048.432.088 1.006.088 1.72s-.04 1.288-.088 1.72c-.047.428-.07.642-.307.887-.235.245-.43.275-.818.333a5.3 5.3 0 0 1-1.574 0c-.389-.058-.583-.088-.818-.333-.236-.245-.26-.459-.307-.887"/></svg>