<svg xmlns="http://www.w3.org/2000/svg" viewBox="0 0 24 24"><path fill-rule="evenodd" d="M12 3c-1.55 0-2.902.068-4.055.168-2.024.175-3.036.263-4.326 1.557S2.25 6.99 2.087 8.93a25 25 0 0 0 0 4.14c.162 1.94.243 2.911 1.532 4.205.89.893 1.649 1.212 2.699 1.38.269-.522.608-1.088.954-1.664l.066-.11.224-.373.068-.114c.547-.91 1.068-1.78 1.58-2.403.549-.667 1.437-1.491 2.79-1.491s2.24.824 2.79 1.491c.512.624 1.033 1.492 1.579 2.403l.068.113.022.036.202.338.066.11c.346.576.686 1.142.954 1.665 1.051-.17 1.81-.488 2.7-1.381 1.29-1.294 1.37-2.265 1.532-4.207a25 25 0 0 0 0-4.136c-.162-1.942-.242-2.913-1.532-4.207s-2.302-1.382-4.327-1.557A47 47 0 0 0 12 3M9.256 17.572l.021-.036C10.488 15.518 11.1 14.5 12 14.5s1.511 1.018 2.722 3.036l.022.036.202.338c1.088 1.813 1.632 2.719 1.244 3.404s-1.445.685-3.559.685h-1.263c-2.114 0-3.17 0-3.558-.685s.156-1.591 1.243-3.404z"/></svg>