<svg xmlns="http://www.w3.org/2000/svg" viewBox="0 0 16 16"><path fill-rule="evenodd" d="M8 3.5c-1.214 0-2.242.055-3.082.13-.7.063-1.016.098-1.263.173-.165.05-.319.124-.564.368-.263.261-.332.41-.374.54-.067.206-.099.469-.16 1.11a12.4 12.4 0 0 0 0 2.358c.061.641.093.904.16 1.11.042.13.111.279.374.54.245.244.4.318.564.368.096.029.203.052.34.073.471.073.788.53.645.986a.72.72 0 0 1-.784.51c-.735-.105-1.24-.293-1.823-.874-.8-.795-.857-1.387-.97-2.57a14 14 0 0 1 0-2.644c.113-1.183.17-1.775.97-2.57.8-.796 1.45-.855 2.75-.972A36 36 0 0 1 8 2c1.259 0 2.332.057 3.216.136 1.3.117 1.951.176 2.751.972s.857 1.388.97 2.572a14 14 0 0 1 0 2.64c-.113 1.184-.17 1.776-.97 2.572-.584.581-1.088.77-1.824.874a.72.72 0 0 1-.783-.51c-.143-.456.174-.913.645-.986.137-.02.244-.044.34-.073.165-.05.319-.124.564-.368.263-.261.332-.41.374-.54.067-.206.1-.47.16-1.11a12.5 12.5 0 0 0 0-2.357c-.06-.642-.093-.905-.16-1.111-.042-.13-.11-.279-.373-.54-.246-.244-.4-.318-.565-.368-.247-.075-.564-.11-1.263-.173-.84-.075-1.869-.13-3.082-.13M7.997 10c-.595 0-.997.661-1.801 2.002l-.164.272c-.725 1.209-1.087 1.813-.829 2.27.259.456.963.456 2.373.456h.841c1.41 0 2.115 0 2.373-.457.259-.456-.104-1.06-.83-2.269l-.163-.272C8.993 10.662 8.591 10 7.997 10"/></svg>