<svg xmlns="http://www.w3.org/2000/svg" viewBox="0 0 24 24"><path fill-rule="evenodd" d="M5.081 8.923c.195-2.616.292-3.924 1.605-5.237s2.62-1.41 5.237-1.605C12.6 2.031 13.3 2 14 2h5a1 1 0 1 1 0 2c-.169 0-.338.144-.482.324-.328.406-.414.943-.427 1.465A326 326 0 0 0 18 13v4.583a5 5 0 0 1 .784 1.68c.343 1.342-.833 2.237-1.845 2.237h-11c-1.06 0-2.095-.892-1.92-2.136A7.7 7.7 0 0 1 5 16.52V11c0-.7.03-1.4.081-2.077M9.94 15.5c-.996 0-1.997.473-2.767 1.398-.582.698-.987 1.604-1.151 2.602h10.747a3 3 0 0 0-2.828-2c-.456 0-.904-.2-1.206-.569l-.027-.034c-.77-.924-1.772-1.397-2.768-1.397M8 8a1 1 0 0 1 2 0v1a1 1 0 0 1-2 0zm4 0a1 1 0 1 1 2 0v4a1 1 0 1 1-2 0z"/></svg>