<svg xmlns="http://www.w3.org/2000/svg" viewBox="0 0 17 17"><path fill-rule="evenodd" d="M1.296 1.296a.797.797 0 0 1 1.127 0l13.28 13.28a.797.797 0 0 1-1.128 1.126l-5.078-5.078H6.372v2.916a.797.797 0 1 1-1.593 0V7.167q0-.03.002-.058v-.42c0-.313 0-.565.006-.775L1.296 2.423a.797.797 0 0 1 0-1.127M6.374 7.5v1.53h1.53z"/><path d="M12.222 7.206c0 .445-.162.86-.455 1.181l1.129 1.128a3.3 3.3 0 0 0 .92-2.31c0-2.004-1.64-3.47-3.644-3.486h-2.42c-.254 0-.467 0-.65.003l1.59 1.59h1.467c1.24.01 2.063.87 2.063 1.894"/></svg>