<svg xmlns="http://www.w3.org/2000/svg" viewBox="0 0 44 44"><path fill-rule="evenodd" d="M22 10.5A3.25 3.25 0 1 0 22 4a3.25 3.25 0 0 0 0 6.5M10.38 7.286l-.002-.002a1.5 1.5 0 0 0-1.756 2.432l.001.001.002.001.006.004.02.014.07.05q.092.066.264.185a50 50 0 0 0 4.215 2.595c.675.37 1.4.743 2.151 1.093.711.332 1.101 1.28.982 2.055C16.16 16.835 16 18.434 16 20.5c0 1.052.042 1.983.105 2.791.087 1.099.249 2.217.412 3.34.24 1.662.483 3.332.483 4.964V38.5a1.5 1.5 0 0 0 3 0v-9.6q.321.029.698.054a19 19 0 0 0 2.604 0A36 36 0 0 0 24 28.9v9.6a1.5 1.5 0 0 0 3 0v-6.905c0-1.632.242-3.303.483-4.964.163-1.123.326-2.24.412-3.34.064-.808.105-1.739.105-2.791 0-2.066-.16-3.665-.333-4.786-.119-.776.271-1.723.982-2.055a38 38 0 0 0 2.151-1.093 50 50 0 0 0 4.48-2.78l.07-.05.02-.014.005-.004.003-.002a1.5 1.5 0 1 0-1.756-2.432l-.002.002-.014.01-.058.04-.237.166a47 47 0 0 1-3.95 2.432c-1.218.666-2.558 1.317-3.867 1.799-1.325.488-2.527.767-3.494.767s-2.168-.279-3.494-.767c-1.309-.482-2.649-1.133-3.867-1.8a47 47 0 0 1-4.186-2.596l-.059-.042zm24.997 2.431-.002.001z"/></svg>