<svg xmlns="http://www.w3.org/2000/svg" viewBox="0 0 32 32"><path d="M13.171 10.261c-.73.199-1.096.298-1.308.196a.65.65 0 0 1-.358-.463c-.046-.234.135-.572.497-1.248l3.092-5.774c.294-.55.442-.824.636-.915a.63.63 0 0 1 .535 0c.195.09.343.365.637.915l3.092 5.774c.362.676.543 1.014.497 1.248a.65.65 0 0 1-.358.463c-.212.102-.577.002-1.308-.196l-1.579-.429v.918a1.25 1.25 0 1 1-2.5 0v-.917z"/><path fill-rule="evenodd" d="M15.998 13.5c-2.1 0-3.642.239-4.614.457-.536.121-.804.181-1.076.466-.271.285-.322.573-.424 1.15A26 26 0 0 0 9.499 20c0 1.593.156 3.186.316 4.397.128.972.192 1.458.56 1.78.167.147.364.227.626.27v1.303a1.25 1.25 0 1 0 2.5 0V26.5h5v1.25a1.25 1.25 0 1 0 2.5 0v-1.303c.26-.043.456-.123.623-.27.368-.322.432-.808.56-1.78.16-1.21.315-2.804.315-4.397 0-1.83-.206-3.402-.386-4.427-.101-.577-.152-.865-.424-1.15-.271-.285-.54-.345-1.076-.466-.972-.218-2.514-.457-4.614-.457m4 6.5h-8c0-1.471.149-2.763.296-3.68.821-.159 2.058-.32 3.704-.32s2.883.161 3.705.32c.147.917.295 2.209.295 3.68"/></svg>