<svg xmlns="http://www.w3.org/2000/svg" viewBox="0 0 44 44"><path fill-rule="evenodd" d="M20.418 4.019a1.5 1.5 0 0 1 1.717 1.247l.207 1.31c1.063.152 2.117.38 3.173.577 3.577.669 7.157 1.338 10.687 2.216 2.14.533 4.868 1.211 4.797 3.774-.062 2.218-2.12 2.827-4.031 3.32-2.68.69-6.933 1.36-12.702 2.258l2.052 12.956c1.177.261 2.325.545 3.413.832 3.878 1.025 5.817 1.537 7.38 3.78.417.597.71 1.153.912 1.711H6q.042-.183.088-.364c.81-3.244 1.214-4.866 3.426-6.415s4.204-1.34 8.186-.92a82 82 0 0 1 5.482.752l-1.88-11.871c-5.767.896-10.472 1.62-13.237 1.776-1.974.111-4.121.157-4.878-1.934-.875-2.416 1.507-3.89 3.374-5.045 3.081-1.906 6.276-3.63 9.468-5.351 1.094-.59 2.174-1.263 3.326-1.731l-.183-1.162a1.5 1.5 0 0 1 1.246-1.716"/></svg>