<svg xmlns="http://www.w3.org/2000/svg" viewBox="0 0 16 16"><path fill-rule="evenodd" d="M7.38 1.51a.75.75 0 0 1 .86.62l.07.43q.18.031.425.08l.56.108c1.318.253 2.637.507 3.937.84.789.202 1.794.46 1.768 1.432-.023.841-.781 1.072-1.486 1.259-.959.255-2.43.496-4.462.822l.74 4.533c.4.087.79.18 1.16.273 1.408.357 2.113.535 2.677 1.345.184.264.3.504.371.748H2q.029-.128.061-.255c.293-1.144.44-1.715 1.254-2.286s1.538-.5 2.986-.36c.608.059 1.263.137 1.922.24l-.653-4c-2.124.34-3.685.587-4.704.646-.727.042-1.518.06-1.797-.733-.323-.917.555-1.476 1.243-1.914C3.447 4.614 4.624 3.96 5.8 3.307l.499-.277c.216-.12.382-.213.522-.284l-.061-.375a.75.75 0 0 1 .62-.861"/></svg>