<svg xmlns="http://www.w3.org/2000/svg" viewBox="0 0 24 24"><path fill-rule="evenodd" d="M2.421 13c.52 1.264 1.527 2.293 3.019 3.82a28 28 0 0 0 1.722 1.61c1.987 1.711 2.981 2.567 4.838 2.567s2.85-.856 4.838-2.568a28 28 0 0 0 1.722-1.61c1.492-1.526 2.498-2.555 3.019-3.819a5.6 5.6 0 0 0 .401-1.81c.027-.408.031-.82 0-1.228-.242-3.198-2.705-5.71-5.707-5.71a5.35 5.35 0 0 0-2.774.778 5.9 5.9 0 0 0-1.508 1.315 5.9 5.9 0 0 0-1.513-1.309 5.34 5.34 0 0 0-2.752-.765C4.718 4.27 2.252 6.793 2.018 10a7 7 0 0 0-.018.5c0 .848.089 1.694.421 2.5m1.637-1.525c.18 1.176.841 1.93 2.812 3.946.51.522 1.05 1.02 1.597 1.493 2.09 1.8 2.534 2.083 3.533 2.083s1.443-.283 3.532-2.083a26 26 0 0 0 1.598-1.493c1.95-1.995 2.619-2.754 2.806-3.91l.02-.247a9 9 0 0 0 .044-.783c0-2.497-1.823-4.229-3.727-4.229-1.044 0-2.025.492-2.733 1.358l-1.543 1.888-1.55-1.882c-.706-.858-1.682-1.345-2.721-1.345C5.823 6.27 4 8.002 4 10.5c0 .248.02.496.04.744zM9.5 14h5a1 1 0 1 0 0-2h-5a1 1 0 1 0 0 2"/></svg>