<svg xmlns="http://www.w3.org/2000/svg" viewBox="0 0 16 16"><path fill-rule="evenodd" d="M1.007 7.003c.023.58.133 1.058.33 1.5.376.84 1.066 1.545 2.07 2.573l.138.139c.346.346.708.677 1.068.988C6.005 13.4 6.7 14 8 14s1.995-.6 3.386-1.798a20 20 0 0 0 1.206-1.127c1.005-1.028 1.695-1.734 2.07-2.574.182-.406.29-.845.324-1.366l.007-.133h-.007a5 5 0 0 0 0-.727c-.17-2.238-1.893-3.997-3.995-3.997-.669 0-1.3.178-1.854.493-.433.247-.82.577-1.143.971a4.1 4.1 0 0 0-1.147-.966 3.73 3.73 0 0 0-1.84-.486c-2.104 0-3.83 1.766-3.994 4.01a5 5 0 0 0 0 .701zm1.534.324c.12.783.564 1.293 1.94 2.7l.125.127c.316.316.65.622.986.912C7.06 12.331 7.344 12.501 8 12.501s.94-.17 2.407-1.435a18 18 0 0 0 1.112-1.039c1.362-1.392 1.81-1.907 1.937-2.676l.035-.462q.009-.124.009-.25c0-1.7-1.24-2.86-2.509-2.86-.698 0-1.357.328-1.835.914L7.998 6.109 6.836 4.697c-.478-.58-1.133-.906-1.828-.906-1.269 0-2.508 1.16-2.508 2.86q0 .123.009.242zM6.25 9.5h3.5a.75.75 0 0 0 0-1.5h-3.5a.75.75 0 0 0 0 1.5"/></svg>