<svg xmlns="http://www.w3.org/2000/svg" viewBox="0 0 24 24"><path d="M4.686 4.61c1.313-1.313 2.62-1.41 5.237-1.605 1.577-.117 1.62 1.885.148 1.994-2.75.205-3.265.319-3.97 1.025-.707.706-.82 1.22-1.025 3.971A26 26 0 0 0 5 11.924c0 .642.028 1.292.076 1.929.204 2.75.318 3.265 1.024 3.97.706.707 1.22.82 3.971 1.025.637.048 1.287.076 1.929.076s1.292-.028 1.929-.076c2.75-.204 3.265-.318 3.97-1.024.707-.707.82-1.221 1.025-3.971.082-1.09 1.995-1.226 1.995.148-.195 2.616-.292 3.924-1.605 5.237s-2.62 1.41-5.237 1.605c-.678.05-1.377.08-2.077.08s-1.399-.03-2.077-.08c-2.616-.195-3.924-.292-5.237-1.605S3.276 16.618 3.081 14A28 28 0 0 1 3 11.924c0-.7.03-1.4.081-2.077.195-2.616.292-3.924 1.605-5.237"/><path fill-rule="evenodd" d="M18.983 4.983a2.5 2.5 0 0 0-.7-.493c-.649-.307-1.537-.202-3.312.008-.334.04-.64.07-.927.098-.354.034-.678.066-.985.11a.9.9 0 0 0-.369.205c-.369.34-.48.986-.16 1.389l.034.043v.001c.04.04.06.06.077.075a.98.98 0 0 0 .758.257c.024-.002.055-.007.117-.015a26 26 0 0 1 1.69-.176c.38-.045.7-.083.971-.112L13.49 9.06Q13.254 9 13 9h-2a2 2 0 0 0-2 2v2q.001.243.055.47l-.873.872a1 1 0 1 0 1.415 1.415l.838-.838q.27.08.565.081h2a2 2 0 0 0 2-2v-2q0-.284-.075-.545l2.667-2.667c-.029.272-.066.59-.111.971a26 26 0 0 1-.192 1.807.98.98 0 0 0 .257.758c.016.018.035.037.075.077h.001l.043.035c.403.319 1.049.208 1.39-.161a.9.9 0 0 0 .205-.369c.043-.307.075-.63.11-.985q.039-.428.097-.927c.21-1.775.315-2.663.008-3.313a2.5 2.5 0 0 0-.492-.698M11 11h2v2h-2z"/></svg>