<svg xmlns="http://www.w3.org/2000/svg" viewBox="0 0 24 24"><path fill-rule="evenodd" d="M2.295 3.293a1 1 0 0 1 1.414 0l17 17a1 1 0 0 1-1.414 1.414L18.588 21h-1.184c-1.408-.005-3.329-1.149-6.46-3.024l-.792-.474-.847-.508Q8.774 17 8.207 17H7.004c-1.886 0-2.829 0-3.414-.586-.586-.586-.586-1.529-.586-3.414v-2c0-1.886 0-2.829.586-3.414.27-.271.614-.417 1.089-.495L2.295 4.707a1 1 0 0 1 0-1.414m4.295 5.71 9.647 9.646c-1.002-.44-2.317-1.222-4.265-2.389l-.79-.473-.847-.507-.485-.292-.567.006C7.856 15.01 5.002 15 5.002 15q.006-3 0-6z"/><path d="M17.994 15c.007-.64.008-1.364.008-2.183v-1.634c0-2.414-.005-3.996-.168-5.096-.078-.53-.177-.811-.25-.954-.06-.118-.096-.14-.227-.131-.158.01-.448.068-.94.272-1.024.423-2.379 1.228-4.445 2.466l-.413.247a1 1 0 1 1-1.1-1.67v-.002l.485-.291c4.017-2.406 6.026-3.608 7.542-2.745s1.516 3.21 1.516 7.904v1.634q.002 1.123-.006 2.071.006.055.006.112a1 1 0 0 1-2 0z"/></svg>