<svg xmlns="http://www.w3.org/2000/svg" viewBox="0 0 16 16"><path fill-rule="evenodd" d="M2.222 2.219a.75.75 0 0 1 1.06 0l11.5 11.5a.75.75 0 0 1-1.06 1.06l-.78-.78h-1.108c-.947.038-2.233-.73-4.376-2.007l-.846-.504q-.543.01-1.147.01h-.793c-1.258 0-1.888 0-2.279-.39-.391-.391-.391-1.02-.391-2.277V7.165c0-1.257 0-1.886.391-2.276.24-.24.567-.333 1.07-.369L2.222 3.28a.75.75 0 0 1 0-1.061m2.718 3.78 6.395 6.394-.165-.064c-.668-.275-1.56-.801-2.945-1.626l-1.212-.722-.427.007q-.53.01-1.12.01h-.794c-.57 0-.91-.002-1.147-.023a16 16 0 0 1-.023-1.144V7.165c0-.57.002-.909.023-1.145.23-.02.561-.022 1.116-.022zm7.061 3.25.001-.701v-1.1c0-1.613-.004-2.65-.11-3.367-.052-.35-.114-.514-.15-.582-.076.004-.247.035-.572.168-.6.247-1.38.696-2.533 1.38l-.001-.001a.75.75 0 1 1-.713-1.319c2.375-1.41 3.617-2.084 4.568-1.542 1.011.576 1.011 2.138 1.011 5.263V9.25a.75.75 0 0 1-1.5 0"/></svg>