<svg xmlns="http://www.w3.org/2000/svg" viewBox="0 0 24 24"><path d="M19.009 10c0 .703-.121 1.378-.344 2.005-.115-.003-.218-.003-.293-.003h-.728c-.15 0-.42 0-.669.031a2.5 2.5 0 0 0-1.3.558 2.4 2.4 0 0 0-.475.55 2.4 2.4 0 0 0-.714.136 2.5 2.5 0 0 0-1.133.846c-.152.2-.287.434-.362.565l-.019.032-.326.564-.019.033c-.075.13-.21.364-.308.596-.13.314-.273.805-.166 1.403.048.267.137.492.24.687a2.35 2.35 0 0 0-.274.997h-.113c-1.551 0-2.904-.068-4.058-.168-1.575-.136-2.538-.22-3.495-.86C2.985 17.137 2 15.59 2 13.82c0-2.657 2.218-4.811 4.953-4.811l.131.001A6.004 6.004 0 0 1 13.006 4a6 6 0 0 1 6.003 6"/><path fill-rule="evenodd" d="M18.334 22h-.651c-.385 0-.578 0-.718-.118s-.17-.3-.233-.667l-.012-.071a.26.26 0 0 0-.146-.192 3 3 0 0 1-.405-.234.26.26 0 0 0-.24-.03l-.068.024c-.348.13-.522.194-.694.131-.172-.062-.268-.228-.461-.561l-.326-.564c-.192-.334-.289-.5-.256-.68s.175-.299.46-.536l.057-.047a.26.26 0 0 0 .093-.222 3 3 0 0 1 0-.466.26.26 0 0 0-.093-.222l-.057-.047c-.286-.238-.43-.356-.461-.536s.064-.346.256-.68l.326-.564c.193-.333.289-.5.46-.562.173-.062.347.002.695.131l.07.026c.08.03.169.017.24-.03q.193-.132.403-.234a.26.26 0 0 0 .146-.192l.013-.072c.062-.366.094-.55.233-.667.14-.118.333-.118.718-.118h.65c.386 0 .578 0 .718.118s.171.3.234.667l.012.072c.014.084.07.154.146.192q.21.102.405.233c.07.048.16.06.24.031l.067-.025c.348-.129.523-.193.695-.131s.268.228.46.562l.326.564c.193.333.289.5.257.68-.033.18-.175.298-.461.535l-.056.046a.26.26 0 0 0-.093.222 3 3 0 0 1 0 .468.26.26 0 0 0 .093.222l.057.047c.286.237.429.356.46.536.033.18-.063.346-.256.68l-.326.563c-.192.334-.288.5-.46.562s-.346-.002-.695-.13l-.069-.026a.26.26 0 0 0-.24.03 3 3 0 0 1-.404.234.26.26 0 0 0-.146.192l-.012.071c-.063.366-.094.55-.234.667-.14.118-.332.118-.717.118m.922-3.891c-.01.374-.016.561-.297.842s-.468.287-.843.297a4 4 0 0 1-.217 0c-.375-.01-.562-.016-.843-.297-.282-.28-.287-.468-.298-.842a4 4 0 0 1 0-.218c.011-.374.016-.561.298-.842.28-.281.468-.287.843-.297a4 4 0 0 1 .217 0c.375.01.562.016.843.297s.287.468.297.842a4 4 0 0 1 0 .218"/></svg>