<svg xmlns="http://www.w3.org/2000/svg" viewBox="0 0 16 16"><path d="M12.977 7.198q0 .184-.015.364a2 2 0 0 0-.202-.036c-.187-.025-.388-.024-.501-.024h-.545c-.113 0-.315 0-.502.024a1.86 1.86 0 0 0-.973.418c-.153.13-.265.27-.353.41a1.8 1.8 0 0 0-.537.102 1.86 1.86 0 0 0-.848.634c-.114.15-.215.325-.27.423l-.015.025-.244.423-.015.025a4 4 0 0 0-.23.446 1.86 1.86 0 0 0-.125 1.053c.036.202.107.37.185.517a1.74 1.74 0 0 0-.204.993 32 32 0 0 1-2.593-.13c-1.287-.12-1.963-.183-2.755-.917A3.33 3.33 0 0 1 1 9.366c0-1.862 1.55-3.372 3.461-3.372q.105 0 .21.006c.52-1.74 2.143-3 4.065-3 2.343 0 4.241 1.875 4.241 4.198"/><path fill-rule="evenodd" d="M12.23 15.002h-.488c-.288 0-.432 0-.537-.088-.104-.089-.128-.226-.175-.5l-.009-.056a.2.2 0 0 0-.11-.144 2.5 2.5 0 0 1-.3-.175.2.2 0 0 0-.18-.023l-.052.02c-.261.096-.391.145-.52.098s-.201-.171-.345-.421l-.244-.423c-.144-.25-.216-.375-.192-.51s.131-.224.345-.402l.042-.035a.2.2 0 0 0 .07-.167 2.5 2.5 0 0 1 0-.35.2.2 0 0 0-.07-.168l-.043-.035c-.214-.178-.32-.267-.345-.402s.048-.26.192-.51l.244-.423c.144-.25.216-.375.345-.421.129-.047.26.001.52.098l.053.02c.06.022.126.012.179-.024q.144-.097.302-.175a.2.2 0 0 0 .11-.143l.008-.053c.047-.274.07-.411.175-.5.105-.088.25-.088.537-.088h.488c.288 0 .432 0 .537.088.105.089.128.226.175.5l.009.052c.01.063.052.116.11.144q.158.077.304.177c.053.035.12.045.18.023l.049-.019c.26-.096.391-.145.52-.098.128.046.2.171.345.421l.244.423c.144.25.216.375.192.51s-.131.224-.345.402l-.042.034a.2.2 0 0 0-.07.167 3 3 0 0 1 0 .349.2.2 0 0 0 .07.167l.042.035c.214.178.321.267.345.401.024.135-.047.26-.192.51l-.244.423c-.144.25-.216.375-.345.422s-.259-.002-.52-.099l-.05-.019a.2.2 0 0 0-.18.024 2.5 2.5 0 0 1-.303.175.2.2 0 0 0-.11.144l-.01.055c-.046.275-.07.412-.174.5-.105.089-.249.089-.537.089m.653-2.927c-.007.27-.011.404-.213.606-.203.203-.337.207-.606.214a3 3 0 0 1-.157 0c-.269-.007-.403-.011-.605-.214-.203-.202-.207-.337-.214-.606a3 3 0 0 1 0-.157c.008-.27.011-.404.214-.606.202-.203.336-.207.605-.214a3 3 0 0 1 .157 0c.269.007.403.011.606.214s.206.337.213.606a3 3 0 0 1 0 .157"/></svg>