<svg xmlns="http://www.w3.org/2000/svg" viewBox="0 0 24 24"><path d="M16.824 11.205A4 4 0 0 0 13.006 6a4 4 0 0 0-3.948 3.337l-.285 1.716-1.74-.044-.08-.001c-1.685 0-2.952 1.312-2.952 2.81 0 1.005.556 1.912 1.442 2.416l.062.036.06.04c.456.305.873.384 2.556.53 1.094.095 2.397.16 3.884.16a1 1 0 1 1 0 2 47 47 0 0 1-4.057-.168c-1.575-.136-2.538-.22-3.495-.86C2.985 17.137 2 15.59 2 13.82c0-2.657 2.218-4.811 4.953-4.811l.131.001A6.004 6.004 0 0 1 13.006 4a6.002 6.002 0 0 1 5.75 7.73 1 1 0 1 1-1.933-.525"/><path fill-rule="evenodd" d="M17.683 22h.65c.386 0 .578 0 .718-.118s.171-.3.234-.667l.012-.07a.26.26 0 0 1 .146-.193q.21-.102.405-.234c.07-.047.16-.06.24-.03l.068.025c.349.129.523.194.695.131.172-.062.268-.228.46-.562l.326-.564c.193-.333.29-.5.257-.68s-.175-.298-.461-.535l-.057-.047a.26.26 0 0 1-.093-.222 3 3 0 0 0 0-.468.26.26 0 0 1 .093-.222l.056-.046c.286-.237.428-.356.46-.536s-.063-.346-.256-.68l-.326-.563c-.192-.334-.288-.5-.46-.562s-.347.002-.695.13l-.068.026a.26.26 0 0 1-.24-.03 3 3 0 0 0-.404-.234.26.26 0 0 1-.146-.192l-.012-.072c-.063-.366-.094-.55-.234-.667-.14-.118-.332-.118-.717-.118h-.651c-.385 0-.578 0-.718.118s-.17.3-.233.667l-.012.072a.26.26 0 0 1-.147.192q-.21.102-.404.233a.26.26 0 0 1-.239.031l-.07-.026c-.348-.129-.522-.193-.694-.13-.172.061-.268.228-.46.561l-.327.564c-.192.334-.288.5-.256.68s.175.298.46.536l.058.047a.26.26 0 0 1 .093.222 3 3 0 0 0 0 .466.26.26 0 0 1-.093.222l-.056.047c-.286.237-.43.356-.461.536-.033.18.064.346.256.68l.326.564c.193.333.289.5.46.561.173.063.347-.002.695-.13l.068-.026a.26.26 0 0 1 .24.03q.193.132.404.235a.26.26 0 0 1 .147.192l.012.071c.062.366.094.55.233.667.14.118.333.118.718.118m1.276-3.049c.281-.28.287-.468.297-.842a4 4 0 0 0 0-.218c-.01-.374-.016-.561-.297-.842s-.468-.287-.843-.297a4 4 0 0 0-.217 0c-.375.01-.562.016-.843.297-.282.28-.287.468-.298.842a4 4 0 0 0 0 .218c.011.374.016.561.298.842.28.281.468.287.843.297a4 4 0 0 0 .217 0c.375-.01.562-.016.843-.297"/></svg>