<svg xmlns="http://www.w3.org/2000/svg" viewBox="0 0 32 32"><path d="M14.176 5.286a17 17 0 0 1 1.002-.965c.99-.887 1.486-1.33 2.465-1.316l.064.002c.978.04 1.357.418 2.115 1.175.757.758 1.136 1.136 1.175 2.115L21 6.36c.015.978-.429 1.473-1.316 2.463a19 19 0 0 1-.966 1.003 38 38 0 0 0-2.178-2.362 38 38 0 0 0-2.363-2.179m2.594 6.113.054.064.186.223-5.356 5.358-.224-.187a35 35 0 0 1-2.23-2.054 35 35 0 0 1-2.055-2.23c-.698-.833-1.048-1.249-1.054-2.178-.005-.93.291-1.29.884-2.014a10 10 0 0 1 1.372-1.372c.723-.593 1.085-.889 2.015-.883.929.005 1.345.355 2.178 1.054l.062.052a35 35 0 0 1 2.168 2.002 35 35 0 0 1 2 2.165m-7.21 7.59q.12-.119.235-.24a38 38 0 0 1-2.363-2.178 38 38 0 0 1-2.178-2.363 17 17 0 0 0-.94.977c-.885.988-1.328 1.482-1.315 2.46l.002.07c.04.976.42 1.355 1.176 2.112.758.758 1.136 1.136 2.113 1.177l.07.002c.977.013 1.47-.43 2.458-1.315.248-.223.5-.459.742-.702M28.634 5.361a1.25 1.25 0 0 0-1.768 0l-21.5 21.505a1.25 1.25 0 0 0 1.768 1.768l21.5-21.505a1.25 1.25 0 0 0 0-1.768M23.747 17.25a1.25 1.25 0 0 0-2.5 0c0 2.182-1.817 4.001-3.997 4.001a1.25 1.25 0 0 0 0 2.5c3.563 0 6.497-2.94 6.497-6.501"/><path d="M29 17.25a1.25 1.25 0 1 0-2.5 0c0 5.052-4.198 9.25-9.25 9.25a1.25 1.25 0 1 0 0 2.5C23.683 29 29 23.683 29 17.25"/></svg>