<svg xmlns="http://www.w3.org/2000/svg" viewBox="0 0 24 24"><path d="m10.885 3.582-.151.153a29 29 0 0 1 1.839 1.696 29 29 0 0 1 1.695 1.837 14 14 0 0 0 .708-.738c.69-.77 1.035-1.155 1.023-1.916v-.05c-.032-.76-.326-1.055-.915-1.644-.59-.59-.884-.884-1.645-.914l-.05-.002c-.762-.011-1.147.334-1.917 1.024-.196.176-.395.362-.587.554m2.061 5.23q-.273-.332-.557-.654a28 28 0 0 0-1.653-1.722A28 28 0 0 0 9.47 5.291l-.049-.04c-.647-.544-.971-.816-1.694-.82s-1.004.225-1.567.686a7.6 7.6 0 0 0-1.067 1.067c-.461.563-.691.844-.687 1.567s.276 1.046.82 1.694c.409.487.936 1.072 1.598 1.734a27 27 0 0 0 1.734 1.598l.23.192zm-5.701 5.479-.142.144a15 15 0 0 1-.577.546c-.768.688-1.152 1.033-1.912 1.023l-.055-.002c-.76-.031-1.054-.326-1.643-.915-.588-.589-.883-.884-.914-1.643L2 13.389c-.01-.76.334-1.144 1.023-1.912a15 15 0 0 1 .688-.72 29 29 0 0 0 1.696 1.839 29 29 0 0 0 1.838 1.695m14.462-9.998a1 1 0 0 0-1.414 0l-16 16a1 1 0 1 0 1.414 1.414l16-16a1 1 0 0 0 0-1.414M18 13a1 1 0 1 0-2 0 3 3 0 0 1-3 3 1 1 0 1 0 0 2 5 5 0 0 0 5-5"/><path d="M20 13a7 7 0 0 1-7 7 1 1 0 1 0 0 2 9 9 0 0 0 9-9 1 1 0 1 0-2 0"/></svg>