<svg xmlns="http://www.w3.org/2000/svg" viewBox="0 0 17 17"><path d="M11.276 1.975c.206.206.395.43.558.644a.797.797 0 1 1-1.285.943 5 5 0 0 0-.4-.46 13 13 0 0 0-.43-.39l-.018.016a13 13 0 0 0-.743.666c-.125.125-.25.26-.37.396-.125.144-.213.245-.284.331a25 25 0 0 1 .948.956.797.797 0 1 1-1.159 1.094 23 23 0 0 0-1.585-1.53c-.18-.156-.3-.26-.406-.344a1 1 0 0 0-.182-.126.1.1 0 0 0-.04-.016 1 1 0 0 0-.189-.013 1 1 0 0 0-.227.02 1 1 0 0 0-.116.085 9 9 0 0 0-.807.765 9 9 0 0 0-.294.336 1 1 0 0 0-.084.116s-.002.002-.005.015a1 1 0 0 0-.016.212 1 1 0 0 0 .012.188.1.1 0 0 0 .017.041c.014.028.047.081.126.182a21 21 0 0 0 1.361 1.495q.279.277.532.515a.797.797 0 1 1-1.135 1.12 24 24 0 0 1-.934-.929c-.087.071-.187.16-.331.285a8 8 0 0 0-.765.765c-.134.153-.224.257-.297.347l-.015.018a13 13 0 0 0 .389.43c.147.147.312.288.476.413a.796.796 0 0 1-.469 1.441.8.8 0 0 1-.513-.187 6 6 0 0 1-.62-.54 6 6 0 0 1-.2-.21c-.473-.526-.71-.79-.714-1.337-.003-.548.253-.84.765-1.425a10 10 0 0 1 .913-.914q.176-.154.323-.279c-.348-.437-.521-.79-.515-1.433.008-.843.275-1.139.808-1.732a8 8 0 0 1 .59-.588c.592-.534.888-.8 1.73-.809.644-.005.997.167 1.435.516q.123-.149.28-.324a10 10 0 0 1 .913-.913c.584-.512.876-.768 1.424-.765s.811.24 1.338.714q.106.095.21.2m3.896.914a.797.797 0 0 0-1.127 0L2.888 14.043a.797.797 0 1 0 1.127 1.127L15.17 4.016a.797.797 0 0 0 0-1.127m.766 6.407a.797.797 0 1 0-1.594 0 5.046 5.046 0 0 1-5.046 5.046.797.797 0 1 0 0 1.594 6.64 6.64 0 0 0 6.64-6.64"/><path d="M13.014 9.296a.797.797 0 1 0-1.593 0 2.124 2.124 0 0 1-2.125 2.125.797.797 0 0 0 0 1.593 3.72 3.72 0 0 0 3.718-3.718"/></svg>