<svg xmlns="http://www.w3.org/2000/svg" viewBox="0 0 17 17"><path d="M7.739 2.327a10 10 0 0 1 .509-.485c.584-.523.876-.785 1.454-.776h.038c.577.024.8.247 1.248.694.444.444.667.667.693 1.235l-1.61 1.61q-.402-.454-.937-.992c-.525-.525-.995-.95-1.395-1.286m1.203 3.406c-.26-.296-.571-.63-.935-.993A21 21 0 0 0 6.69 3.528c-.491-.413-.737-.619-1.285-.622s-.762.171-1.189.52a6 6 0 0 0-.81.81c-.35.427-.524.64-.52 1.189.003.548.209.794.621 1.285l.032.037a21 21 0 0 0 1.18 1.278q.548.545.995.936zM2.99 11.684l1.596-1.594q-.454-.402-.992-.938a22 22 0 0 1-1.286-1.394 10 10 0 0 0-.47.494c-.522.583-.783.874-.775 1.45v.042c.024.576.248.8.695 1.247.443.443.666.667 1.233.693m12.18-8.794a.797.797 0 0 0-1.127 0L2.888 14.043a.797.797 0 1 0 1.126 1.127L15.171 4.016a.797.797 0 0 0 0-1.127m.764 6.407a.797.797 0 1 0-1.593 0 5.046 5.046 0 0 1-5.046 5.046.797.797 0 1 0 0 1.594 6.64 6.64 0 0 0 6.64-6.64"/><path d="M13.014 9.296a.797.797 0 0 0-1.594 0 2.124 2.124 0 0 1-2.124 2.125.797.797 0 0 0 0 1.593 3.72 3.72 0 0 0 3.718-3.718"/></svg>