<svg xmlns="http://www.w3.org/2000/svg" viewBox="0 0 16 16"><path fill-rule="evenodd" d="M2.182 5.213a2.7 2.7 0 0 1 1.84-.713c1.023 0 1.793.537 2.263 1.182.448.615.658 1.357.698 2.033l.012.205c.014.254-.009.537-.106.826-.1.298-.26.536-.432.722a2.5 2.5 0 0 1-.408.344l-.044.03a2 2 0 0 0 0 .316l.044.03c.086.06.249.174.408.344.173.186.331.424.432.722.097.29.12.572.106.826l-.012.205a4 4 0 0 1-.46 1.656l.087.006c.453.034.921.055 1.389.055s.935-.02 1.389-.055c1.742-.13 2.613-.195 3.488-1.069.874-.874.939-1.745 1.069-3.488.034-.453.054-.92.054-1.389 0-.467-.02-.935-.054-1.389-.13-1.742-.195-2.613-1.07-3.487-.874-.874-1.745-.94-3.487-1.07a19 19 0 0 0-1.39-.054c-.467 0-.935.02-1.388.055-1.743.13-2.614.195-3.488 1.069-.602.602-.82 1.203-.94 2.088m6.335 1.504a.2.2 0 0 0 .265.265l.967-.444.967.444a.2.2 0 0 0 .266-.265l-.445-.967.445-.967a.2.2 0 0 0-.266-.265l-.967.444-.967-.444a.2.2 0 0 0-.265.265l.445.967zm1.232.883a.9.9 0 1 0 0 1.8.9.9 0 0 0 0-1.8m.9 3.4a.9.9 0 1 1-1.8 0 .9.9 0 0 1 1.8 0"/><path d="M2.559 7.805C2.525 8.369 2.498 9.1 2.498 10s.027 1.632.06 2.196c.055.9.563 1.804 1.464 1.804.902 0 1.41-.905 1.464-1.804l.01-.196c.02-.367-.156-.483-.365-.621-.285-.188-.633-.418-.633-1.379s.348-1.19.633-1.379c.21-.138.385-.254.366-.621l-.011-.195C5.432 6.905 4.924 6 4.022 6s-1.41.905-1.463 1.805"/></svg>