<svg xmlns="http://www.w3.org/2000/svg" viewBox="0 0 16 16"><path d="M8.35 8.5a.9.9 0 1 1 1.8 0 .9.9 0 0 1-1.8 0m1.8 2.5a.9.9 0 1 1-1.8 0 .9.9 0 0 1 1.8 0M8.283 6.982a.2.2 0 0 1-.265-.265l.445-.967-.445-.967a.2.2 0 0 1 .265-.265l.967.444.967-.444a.2.2 0 0 1 .266.265l-.445.967.445.967a.2.2 0 0 1-.266.265l-.967-.444z"/><path fill-rule="evenodd" d="M2 8.001q0 .252.008.502Q2 8.859 2 9.25c0 1.117.049 2.018.108 2.7.088 1.002.734 1.875 1.732 2.005a5.3 5.3 0 0 0 1.36 0q.203-.028.385-.093c.307.032.646.057 1.026.085.454.034.921.055 1.39.055.467 0 .935-.02 1.388-.055 1.743-.13 2.614-.195 3.488-1.069s.94-1.745 1.07-3.488c.033-.453.054-.92.054-1.389 0-.467-.021-.935-.055-1.389-.13-1.742-.195-2.613-1.069-3.487s-1.745-.94-3.488-1.07A19 19 0 0 0 8 2.002c-.468 0-.935.02-1.389.055-1.742.13-2.613.195-3.488 1.069-.874.874-.939 1.745-1.069 3.487-.033.454-.054.922-.054 1.39m6-4.5c-.424 0-.855.019-1.277.05-1.843.138-2.12.215-2.539.634a1.6 1.6 0 0 0-.278.352 5.2 5.2 0 0 1 1.294.008c.997.13 1.643 1.004 1.73 2.006q.04.44.069 1.003c.018.366-.116.626-.25.885-.125.242-.25.483-.25.811s.125.57.25.811c.134.26.268.519.25.885q-.03.563-.068 1.003a2.6 2.6 0 0 1-.096.51c.386.027.778.043 1.165.043.425 0 .855-.019 1.278-.05 1.843-.138 2.12-.215 2.538-.634.42-.42.497-.696.634-2.54.032-.422.05-.852.05-1.277s-.018-.854-.05-1.277c-.137-1.843-.214-2.12-.634-2.539-.419-.419-.695-.496-2.538-.634-.423-.031-.853-.05-1.278-.05M3.5 9.25c0-1.073.047-1.931.103-2.57.02-.227.1-.4.186-.504a.36.36 0 0 1 .245-.144 3.7 3.7 0 0 1 .971 0c.09.012.168.052.245.144a.93.93 0 0 1 .186.505q.035.396.062.903-.013.036-.069.142l-.024.047C5.28 8.01 5 8.545 5 9.25s.28 1.239.405 1.477l.024.047c.038.073.058.118.07.142q-.028.508-.063.903c-.02.227-.1.4-.186.505a.36.36 0 0 1-.245.144 3.8 3.8 0 0 1-.97 0 .36.36 0 0 1-.246-.144.93.93 0 0 1-.186-.504A30 30 0 0 1 3.5 9.25"/></svg>