<svg xmlns="http://www.w3.org/2000/svg" viewBox="0 0 24 24"><path fill-rule="evenodd" d="M12 5.001c-.642 0-1.292.029-1.929.076-2.75.205-3.265.318-3.97 1.025-.707.706-.82 1.22-1.025 3.97A26 26 0 0 0 5 12.003c0 .642.028 1.291.076 1.928.204 2.75.318 3.265 1.024 3.971.706.707 1.22.82 3.971 1.025.637.047 1.287.076 1.929.076s1.292-.029 1.929-.076c2.75-.205 3.265-.318 3.97-1.025q.133-.13.238-.259c.283-.345.663-.642 1.109-.642.684 0 1.205.65.88 1.25a4.7 4.7 0 0 1-.812 1.066c-1.313 1.312-2.62 1.41-5.237 1.604-.678.05-1.377.081-2.077.081s-1.399-.03-2.077-.08c-2.616-.195-3.924-.293-5.237-1.605s-1.41-2.621-1.605-5.237A28 28 0 0 1 3 12c0-.7.03-1.399.081-2.077.195-2.616.292-3.924 1.605-5.237 1.313-1.312 2.62-1.41 5.237-1.604C10.6 3.032 11.3 3 12 3s1.399.031 2.077.082c2.616.194 3.924.292 5.237 1.604.346.347.608.692.81 1.062.326.6-.196 1.251-.88 1.251-.446 0-.826-.296-1.109-.641a4 4 0 0 0-.235-.257c-.706-.707-1.22-.82-3.971-1.025A26 26 0 0 0 12 5.001M19 9a1 1 0 0 1 1 1v1h1a1 1 0 1 1 0 2h-1v1a1 1 0 1 1-2 0v-1h-1a1 1 0 1 1 0-2h1v-1a1 1 0 0 1 1-1m-6.168 6.244q-1.243 0-1.908-.432-.666-.432-.666-1.422 0-1.278 1.287-1.575-.576-.153-.828-.513a1.45 1.45 0 0 1-.253-.855q0-.432.172-.738.171-.315.486-.513.315-.207.746-.297a4.3 4.3 0 0 1 .963-.1q.524 0 .963.1.441.09.747.297.316.198.486.513.18.306.18.738 0 .495-.26.855-.252.36-.828.513.638.153.963.549.332.396.332 1.026 0 .99-.675 1.422t-1.908.432m0-2.808q-.514 0-.784.18t-.27.567v.189q0 .378.288.558.288.17.765.17.46 0 .757-.17.306-.171.306-.558v-.19q0-.386-.28-.566-.279-.18-.783-.18m0-1.044q.395 0 .62-.153.235-.162.235-.504v-.144q0-.342-.226-.495-.225-.153-.63-.153t-.63.153q-.216.153-.216.495v.144q0 .351.216.504.225.153.63.153M6.504 9.925l1.278-1.008h1.503v6.21H7.782v-4.78l-1.278 1.045z"/></svg>