<svg xmlns="http://www.w3.org/2000/svg" viewBox="0 0 32 32"><path fill-rule="evenodd" d="M15.5 6.5c-.718 0-1.444.029-2.16.079-3.597.25-4.33.392-5.332 1.393-.999.997-1.149 1.755-1.411 5.44-.06.854-.097 1.725-.097 2.588s.036 1.734.097 2.588c.262 3.685.412 4.443 1.41 5.44 1.004 1.001 1.736 1.144 5.332 1.394.717.05 1.443.078 2.161.078s1.444-.029 2.16-.078c3.597-.25 4.33-.393 5.332-1.394.332-.33.57-.635.75-1.03.251-.553.74-.998 1.349-.998.784 0 1.403.71 1.151 1.454-.293.867-.744 1.605-1.484 2.344-1.763 1.76-3.483 1.879-6.924 2.118-.766.053-1.55.084-2.334.084s-1.568-.031-2.334-.084c-3.44-.24-5.161-.359-6.924-2.118-1.763-1.76-1.888-3.518-2.139-7.033A39 39 0 0 1 4 16c0-.931.039-1.863.103-2.765.25-3.515.376-5.273 2.139-7.033s3.483-1.879 6.924-2.117C13.932 4.03 14.716 4 15.5 4s1.568.031 2.334.085c3.44.238 5.161.358 6.924 2.117.74.739 1.191 1.477 1.485 2.344.25.743-.367 1.454-1.152 1.454-.609 0-1.098-.445-1.35-.999-.18-.394-.417-.698-.749-1.03-1.003-1-1.735-1.143-5.331-1.392A31 31 0 0 0 15.5 6.5m11.25 7.25a1.25 1.25 0 1 0-2.5 0v1h-1a1.25 1.25 0 1 0 0 2.5h1v1a1.25 1.25 0 1 0 2.5 0v-1h1a1.25 1.25 0 1 0 0-2.5h-1zm-16.542-2.03-1.704 1.344v1.956l1.704-1.392V20h2.004v-8.28zm4.189 7.86q.888.576 2.544.576 1.644 0 2.544-.576t.9-1.896q0-.84-.444-1.368-.432-.528-1.284-.732.768-.204 1.104-.684.348-.48.348-1.14 0-.576-.24-.984a1.83 1.83 0 0 0-.648-.684 2.7 2.7 0 0 0-.996-.396 6 6 0 0 0-1.284-.132q-.708 0-1.284.132-.576.12-.996.396a1.83 1.83 0 0 0-.648.684q-.228.408-.228.984 0 .66.336 1.14t1.104.684q-1.716.396-1.716 2.1 0 1.32.888 1.896m1.5-2.928q.36-.24 1.044-.24.672 0 1.044.24t.372.756v.252q0 .516-.408.744-.396.228-1.008.228-.636 0-1.02-.228-.384-.24-.384-.744v-.252q0-.516.36-.756m1.872-1.836q-.3.204-.828.204-.54 0-.84-.204-.288-.204-.288-.672v-.192q0-.456.288-.66.3-.204.84-.204t.84.204.3.66v.192q0 .456-.312.672"/></svg>