<svg xmlns="http://www.w3.org/2000/svg" viewBox="0 0 44 44"><path fill-rule="evenodd" d="M18.845 9.114A46 46 0 0 1 22 9c1.051 0 2.112.042 3.156.114 4.974.34 6.17.535 7.683 2.048.532.532.9 1.025 1.17 1.657.284.664.877 1.181 1.599 1.181.95 0 1.692-.866 1.384-1.765-.4-1.176-1.02-2.182-2.032-3.195-2.428-2.428-4.819-2.592-9.6-2.92A49 49 0 0 0 22 6c-1.13 0-2.26.045-3.36.12-4.781.328-7.171.492-9.6 2.92s-2.592 4.82-2.92 9.6A49 49 0 0 0 6 22c0 1.13.045 2.26.12 3.36.328 4.781.492 7.172 2.92 9.6s4.819 2.592 9.6 2.92c1.1.075 2.23.12 3.36.12s2.26-.045 3.36-.12c4.781-.328 7.172-.492 9.6-2.92 1.012-1.013 1.631-2.019 2.033-3.195.307-.9-.434-1.765-1.385-1.765-.722 0-1.315.517-1.598 1.181-.27.632-.64 1.125-1.171 1.658-1.513 1.513-2.71 1.707-7.683 2.048A46 46 0 0 1 22 35c-1.051 0-2.112-.042-3.155-.113-4.975-.341-6.17-.535-7.683-2.048s-1.708-2.709-2.049-7.683A46 46 0 0 1 9 22c0-1.051.042-2.112.113-3.155.341-4.974.536-6.17 2.049-7.683s2.708-1.707 7.682-2.048M34 25a1.5 1.5 0 1 0 3 0v-1.5h1.5a1.5 1.5 0 1 0 0-3H37V19a1.5 1.5 0 0 0-3 0v1.5h-1.5a1.5 1.5 0 0 0 0 3H34zm-19.796-9.61-2.698 2.128v3.097l2.698-2.204V28.5h3.173V15.39zm6.633 12.445q1.406.912 4.028.912 2.603 0 4.028-.912t1.424-3.002q0-1.33-.703-2.166-.683-.836-2.033-1.159 1.216-.323 1.749-1.083.55-.76.55-1.805 0-.912-.38-1.558a2.9 2.9 0 0 0-1.026-1.083q-.645-.437-1.576-.627a9.3 9.3 0 0 0-2.033-.209 9 9 0 0 0-2.033.209q-.912.19-1.578.627-.664.419-1.026 1.083-.36.645-.36 1.558 0 1.045.532 1.805.531.76 1.748 1.083-2.718.627-2.718 3.325 0 2.09 1.407 3.002m2.375-4.636q.57-.38 1.652-.38 1.064 0 1.653.38.59.38.59 1.197v.399q0 .817-.646 1.178-.627.36-1.596.361-1.008 0-1.615-.361-.609-.38-.608-1.178v-.399q0-.817.57-1.197m2.964-2.907q-.475.323-1.311.323-.855 0-1.33-.323-.457-.323-.457-1.064v-.304q0-.722.457-1.045.475-.323 1.33-.323t1.33.323q.474.323.474 1.045v.304q0 .722-.494 1.064"/></svg>