<svg xmlns="http://www.w3.org/2000/svg" viewBox="0 0 24 24"><path fill-rule="evenodd" d="m5.765 10.078.03.017C7.26 10.942 8 11.37 8 12s-.74 1.058-2.206 1.905l-.03.017-.455.263c-1.465.846-2.202 1.27-2.756.968S2 14.029 2 12.383v-.767c0-1.645 0-2.467.553-2.769.554-.302 1.29.122 2.756.968zm7 0 .03.017C14.26 10.942 15 11.37 15 12s-.74 1.058-2.206 1.905l-.03.017-.455.263c-1.465.846-2.202 1.27-2.756.968S9 14.029 9 12.383v-.767c0-1.645 0-2.467.553-2.769.554-.302 1.29.122 2.756.968zm7.03.017-.03-.017-.456-.263c-1.465-.846-2.202-1.27-2.756-.968S16 9.971 16 11.617v.767c0 1.645 0 2.467.553 2.769.554.302 1.29-.122 2.756-.968l.456-.263.03-.017C21.26 13.058 22 12.63 22 12s-.74-1.058-2.206-1.905"/></svg>