<svg xmlns="http://www.w3.org/2000/svg" viewBox="0 0 24 24"><path fill-rule="evenodd" d="M12.004 2c-1.082 0-2.098.479-2.862 1.243l-2.39 2.39C5.43 6.955 4.77 7.616 4.388 8.533s-.381 1.74-.384 3.385V12c0 1.55.068 2.903.168 4.056.175 2.024.263 3.036 1.557 4.325s2.264 1.37 4.205 1.532a25 25 0 0 0 4.14 0c1.94-.161 2.911-.242 4.205-1.532 1.294-1.289 1.381-2.301 1.557-4.325.1-1.153.168-2.506.168-4.056 0-1.549-.068-2.901-.168-4.054-.175-2.025-.263-3.038-1.557-4.327s-2.265-1.37-4.207-1.532A25 25 0 0 0 12.004 2m2 9a1 1 0 0 1 1 1v4a1 1 0 1 1-2 0v-4a1 1 0 0 1 1-1m-4 0a1 1 0 0 1 1 1v4a1 1 0 1 1-2 0v-4a1 1 0 0 1 1-1"/></svg>