<svg xmlns="http://www.w3.org/2000/svg" viewBox="0 0 24 24"><path d="M10 11a1 1 0 0 1 1 1v4a1 1 0 1 1-2 0v-4a1 1 0 0 1 1-1m5 1a1 1 0 1 0-2 0v4a1 1 0 1 0 2 0z"/><path fill-rule="evenodd" d="M12 2c-1.082 0-2.097.479-2.862 1.243l-2.39 2.39c-1.322 1.322-1.983 1.983-2.364 2.9s-.381 1.74-.384 3.385V12c0 1.55.068 2.903.168 4.056.176 2.024.263 3.036 1.557 4.325s2.264 1.37 4.205 1.532a25 25 0 0 0 4.14 0c1.94-.161 2.911-.242 4.205-1.532 1.294-1.289 1.382-2.301 1.557-4.325.1-1.153.168-2.506.168-4.056 0-1.549-.067-2.901-.168-4.054-.175-2.025-.263-3.038-1.557-4.327s-2.265-1.37-4.207-1.532A25 25 0 0 0 12 2m0 2c.666 0 1.304.03 1.902.08 1.038.086 1.524.137 1.918.26.288.09.584.238 1.043.696.45.447.602.747.699 1.06.13.42.184.944.278 2.023.095 1.096.16 2.39.16 3.881a45 45 0 0 1-.16 3.883c-.094 1.078-.149 1.601-.278 2.022-.097.312-.25.612-.699 1.06-.46.458-.755.606-1.043.696-.393.123-.879.173-1.916.26a23 23 0 0 1-3.808 0c-1.037-.087-1.522-.137-1.916-.26-.288-.09-.584-.238-1.043-.696-.449-.448-.602-.748-.698-1.06-.13-.42-.185-.944-.279-2.022A45 45 0 0 1 6 12v-.079c.003-1.748.032-2.141.232-2.621.195-.47.51-.832 1.93-2.253l2.39-2.39C10.995 4.216 11.52 4 12 4"/></svg>