<svg xmlns="http://www.w3.org/2000/svg" viewBox="0 0 32 32"><path fill-rule="evenodd" d="M18.277 3.117a1.25 1.25 0 0 0-1.66.606L16 5.049l-.617-1.326a1.25 1.25 0 1 0-2.266 1.054l1.49 3.203-6.449 13.99C6.46 25.653 5.561 27.604 6.214 29h19.572c.654-1.395-.246-3.346-1.944-7.03L17.394 7.98l1.49-3.203a1.25 1.25 0 0 0-.607-1.66M10.43 23.016 16 10.978l5.571 12.038c.708 1.535 1.21 2.635 1.532 3.484h-2.276l-.951-2.062C18.203 20.813 17.366 19 16.002 19s-2.202 1.813-3.874 5.438l-.952 2.062h-2.28c.322-.849.825-1.949 1.533-3.484m3.5 3.484h4.145l-.468-1.015c-.707-1.532-1.196-2.582-1.604-3.307-.408.725-.898 1.775-1.604 3.307z"/></svg>