<svg xmlns="http://www.w3.org/2000/svg" viewBox="0 0 24 24"><path fill-rule="evenodd" d="M10.057 2.104a1 1 0 0 1 1.34.453L12 3.777l.603-1.22a1 1 0 1 1 1.793.886l-1.281 2.59c.941 1.904 1.895 3.802 2.832 5.707l2.28 4.631c1.463 2.975 2.195 4.462 1.52 5.547l-.054.082H4.307l-.054-.082c-.675-1.085.057-2.572 1.52-5.547l2.28-4.631c.937-1.905 1.89-3.803 2.832-5.706l-1.28-2.59a1 1 0 0 1 .452-1.34m3.053 8.43c-.352-.68-.644-1.198-.914-1.59A5 5 0 0 0 12 8.679q-.082.101-.196.265c-.271.394-.565.916-.92 1.601l-3.317 6.71C6.96 18.487 6.542 19.345 6.283 20h1.729l1.126-2.253C10.39 15.249 11.013 14 12.002 14s1.613 1.249 2.862 3.747L15.99 20h1.728c-.26-.654-.678-1.513-1.285-2.745zM13.754 20l-.68-1.359c-.466-.933-.8-1.594-1.072-2.07-.274.476-.607 1.137-1.074 2.07L10.248 20z"/></svg>