<svg xmlns="http://www.w3.org/2000/svg" viewBox="0 0 16 16"><path fill-rule="evenodd" d="M6.68 1.072a.75.75 0 0 1 .998.358L8 2.112l.321-.682a.75.75 0 1 1 1.357.64l-.85 1.799 3.539 7.455c.94 1.971 1.41 2.957.959 3.672l-.003.004H2.676l-.003-.004c-.451-.715.019-1.7.959-3.672L7.17 3.87l-.849-1.8a.75.75 0 0 1 .358-.998m2.462 6.975C8.635 6.987 8.297 6.3 8 5.852c-.293.441-.627 1.117-1.122 2.153L4.986 11.97a41 41 0 0 0-.707 1.53h1.13l.571-1.19C6.857 10.483 7.295 9.5 8 9.5s1.143.983 2.02 2.81l.57 1.19h1.13a41 41 0 0 0-.707-1.53zM8.927 13.5l-.26-.54c-.28-.586-.492-1.094-.667-1.424-.175.33-.386.838-.667 1.423l-.26.54z"/></svg>