<svg xmlns="http://www.w3.org/2000/svg" viewBox="0 0 24 24"><path fill-rule="evenodd" d="M21 9.463v2.303q.063.053.121.113c.879.878.879 2.292.879 5.12A1 1 0 0 1 21 18v1a1 1 0 1 1-2 0v-1h-8v1a1 1 0 1 1-2 0v-1a1 1 0 0 1-1-1c0-2.829 0-4.243.879-5.121q.059-.06.121-.113V9.463C9 8.408 9 7.638 9.129 7c.204-1.013.912-1.95 1.871-2.363C12.197 4.122 13.714 4 15 4s2.803.122 4 .637c.959.413 1.667 1.35 1.871 2.363C21 7.638 21 8.408 21 9.463M15 6c1.015 0 2.24.076 3.191.467.404.166.666.595.735 1.01.068.409.074.95.074 1.986v1.535A3 3 0 0 0 16 8h-2a3 3 0 0 0-3 3V9.463c0-1.036.006-1.577.074-1.986.07-.415.33-.844.735-1.01C12.76 6.077 13.985 6 15 6m-2 5h4a1 1 0 0 0-1-1h-2a1 1 0 0 0-1 1m-2.998 5h9.996c-.005-.906-.024-1.536-.09-2.025-.095-.708-.175-.788-.883-.883-.652-.088-1.554-.092-3.024-.092H14c-1.471 0-2.373.004-3.025.092-.708.095-.788.175-.883.883-.066.49-.085 1.12-.09 2.025"/><path d="M3 15.5v-5.416L1 11.58V9.944L3 8.5h1.667v7z"/></svg>