<svg xmlns="http://www.w3.org/2000/svg" viewBox="0 0 16 16"><path fill-rule="evenodd" d="M14 5.715v1.553a2 2 0 0 1 .732.732C15 8.464 15 9.087 15 10.333c0 .623 0 .935-.134 1.167a1 1 0 0 1-.366.366c-.129.075-.283.108-.5.122v.762a.75.75 0 1 1-1.5 0V12h-5v.75a.75.75 0 0 1-1.5 0v-.762c-.218-.014-.371-.048-.5-.122a1 1 0 0 1-.366-.366C5 11.268 5 10.956 5 10.333 5 9.087 5 8.464 5.268 8A2 2 0 0 1 6 7.268V5.715C6 4.975 6 4.44 6.092 4A2.1 2.1 0 0 1 7 2.662C7.81 2.117 9.058 2 10 2c.941 0 2.19.117 3 .662.452.304.786.75.908 1.338.092.44.092.975.092 1.715M10 3.5c.658 0 1.447.067 2.063.32.223.092.352.326.39.554.043.269.047.63.047 1.341v.176A2.08 2.08 0 0 0 10.792 5H9.208a2.08 2.08 0 0 0-1.708.89v-.175c0-.71.004-1.072.048-1.34.037-.229.165-.463.39-.555.615-.253 1.404-.32 2.062-.32M11.37 7a.58.58 0 0 0-.578-.5H9.208a.58.58 0 0 0-.577.5zm2.13 3.5s.017-.997-.027-1.491c-.03-.33-.152-.452-.482-.482-.286-.026-.673-.027-1.324-.027H8.333c-.65 0-1.038.001-1.324.027-.33.03-.452.152-.482.482-.044.494-.027 1.49-.027 1.49z"/><path d="M1.308 6.631V10.5H2.5v-5H1.31L0 6.532V7.7z"/></svg>