<svg xmlns="http://www.w3.org/2000/svg" viewBox="0 0 16 16"><path fill-rule="evenodd" d="M14 7.268V5.715c0-.74 0-1.275-.092-1.715A2.1 2.1 0 0 0 13 2.662C12.19 2.117 10.941 2 10 2c-.942 0-2.19.117-3 .662-.452.304-.786.75-.908 1.338C6 4.44 6 4.975 6 5.715v1.553A2 2 0 0 0 5.268 8C5 8.464 5 9.087 5 10.333c0 .623 0 .935.134 1.167a1 1 0 0 0 .366.366c.129.074.282.107.5.122v.762a.75.75 0 0 0 1.5 0V12h5v.75a.75.75 0 1 0 1.5 0v-.762c.217-.014.371-.047.5-.122a1 1 0 0 0 .366-.366c.134-.232.134-.544.134-1.167 0-1.246 0-1.869-.268-2.333A2 2 0 0 0 14 7.268M9.25 5.5a1 1 0 0 0-1 1V7h3.5v-.5a1 1 0 0 0-1-1z"/><path d="M1.308 6.631V10.5H2.5v-5H1.31L0 6.532V7.7z"/></svg>