<svg xmlns="http://www.w3.org/2000/svg" viewBox="0 0 24 24"><path d="M4.048 5.462c-.716 1.096-.81 2.354-.967 4.46C3.031 10.602 3 11.3 3 12s.03 1.399.081 2.077c.195 2.616.292 3.924 1.605 5.237s2.62 1.41 5.237 1.605C10.6 20.969 11.3 21 12 21s1.399-.03 2.077-.081c2.107-.157 3.365-.25 4.461-.967L13.086 14.5H8a1.5 1.5 0 0 1 0-3h2.086z"/><path fill-rule="evenodd" d="M19.952 18.538c.716-1.096.81-2.354.967-4.46.05-.679.081-1.378.081-2.078s-.03-1.399-.081-2.077c-.195-2.616-.292-3.924-1.605-5.237s-2.62-1.41-5.237-1.605A28 28 0 0 0 12 3c-.7 0-1.399.03-2.077.081-2.107.157-3.365.25-4.461.967l7.452 7.452H16a1.5 1.5 0 0 1 1.5 1.5c0 .828-.757 1.5-1.586 1.5zM14.996 8.426A1.01 1.01 0 0 1 14 7.417a1 1 0 0 1 1.195-.98c.556.054.916.108 1.179.175.497.126.89.518 1.015 1.015.09.354.156.923.234 1.873a1 1 0 0 1-1.994.11 25 25 0 0 0-.113-1.125 15 15 0 0 0-.52-.059"/></svg>