<svg xmlns="http://www.w3.org/2000/svg" viewBox="0 0 24 24"><path fill-rule="evenodd" d="M12 2q.248 0 .5.006c.982.024 1.588.28 2.303.994l2 2c.75.751 1.008 1.414 1.07 2.5q.023.378.041.782l-.397-.038-.094-.009A58 58 0 0 0 12 8c-1.691 0-3.136.06-4.33.145a3.6 3.6 0 0 0-1.524-.973l.032-.478c.134-1.947.2-2.92 1.012-3.718s1.75-.846 3.628-.943C11.213 2.013 11.611 2 12 2m0 2a1 1 0 1 1 0 2h-1a1 1 0 1 1 0-2zM8.746 19.918c.948.05 2.033.082 3.254.082 2.183 0 3.93-.104 5.236-.226 1.273-.12 1.91-.18 2.662-.893s.83-1.237.983-2.283c.073-.49.12-1.028.12-1.598s-.047-1.108-.12-1.598c-.154-1.046-.231-1.57-.983-2.283s-1.389-.773-2.662-.893A56 56 0 0 0 12 10a62 62 0 0 0-3.254.082c.121.416.197.855.223 1.302l.027.523c.039.827-.219 1.563-.745 2.125a3.4 3.4 0 0 1-.568.479l-.157.1c-.012.07-.026.196-.026.389 0 .187.014.31.026.384l.154.103c.16.11.365.261.57.479.528.564.785 1.3.746 2.128l-.027.522a6 6 0 0 1-.223 1.302M13 13a1 1 0 0 1 1-1h3a1 1 0 1 1 0 2h-3a1 1 0 0 1-1-1"/><path d="M3 15c0-1.46.042-2.63.093-3.5.07-1.222.716-2.5 1.94-2.5s1.869 1.278 1.939 2.5q.014.235.026.5c.026.55-.238.724-.55.93-.428.283-.948.627-.948 2.07s.52 1.787.947 2.07c.313.206.577.38.551.93q-.012.266-.026.501C6.902 19.722 6.256 21 5.032 21s-1.87-1.278-1.94-2.5A62 62 0 0 1 3 15"/></svg>