<svg xmlns="http://www.w3.org/2000/svg" viewBox="0 0 16 16"><path fill-rule="evenodd" d="M8 1q.248 0 .5.011c.506.021.829.116 1.201.489l1.5 1.5c.461.461.668.823.71 1.5q.02.332.037.697l-.262-.027-.066-.006A37 37 0 0 0 8 5a37 37 0 0 0-3.62.164l-.066.006-.261.027q.028-.61.066-1.13c.088-1.235.132-1.852.66-2.38s1.118-.568 2.297-.652C7.383 1.013 7.696 1 8 1m.25 1.5a.75.75 0 0 1 0 1.5h-1a.75.75 0 0 1 0-1.5zm-2.5 10.938c.65.037 1.4.062 2.25.062 1.445 0 2.605-.072 3.473-.157.853-.083 1.28-.125 1.778-.6.499-.474.552-.834.66-1.556A8 8 0 0 0 14 10a8 8 0 0 0-.09-1.187c-.107-.722-.16-1.082-.659-1.557-.498-.474-.925-.516-1.778-.6A36 36 0 0 0 8 6.5c-.85 0-1.6.025-2.25.062.138.383.213.778.235 1.153l.012.205c.013.254-.01.537-.107.826-.1.298-.259.536-.432.722-.159.17-.321.285-.408.344l-.044.03a2 2 0 0 0 0 .316l.044.03c.087.06.25.174.408.344.173.186.332.424.432.722.098.29.12.572.107.826l-.012.205c-.022.375-.097.77-.236 1.153M8 8.75A.75.75 0 0 1 8.75 8h2a.75.75 0 0 1 0 1.5h-2A.75.75 0 0 1 8 8.75"/><path d="M1.5 10c0-.899.027-1.631.06-2.195C1.616 6.905 2.124 6 3.025 6s1.41.905 1.464 1.805l.01.195c.02.367-.156.483-.365.621-.285.188-.633.418-.633 1.379s.348 1.19.633 1.379c.21.138.385.254.366.621l-.011.196c-.054.9-.562 1.804-1.464 1.804s-1.41-.904-1.463-1.804A37 37 0 0 1 1.5 10"/></svg>