<svg xmlns="http://www.w3.org/2000/svg" viewBox="0 0 16 16"><path d="M9 4.25a.75.75 0 0 0-.75-.75h-1a.75.75 0 0 0 0 1.5h1A.75.75 0 0 0 9 4.25M8.75 8a.75.75 0 0 0 0 1.5h2a.75.75 0 0 0 0-1.5z"/><path fill-rule="evenodd" d="M11.91 4.5q.036.572.059 1.24c.527.075.868.186 1.245.549.49.471.55.86.666 1.637.07.468.12 1 .12 1.574s-.05 1.106-.12 1.574c-.117.777-.175 1.165-.666 1.637-.49.471-.918.519-1.774.614-.865.095-2.013.175-3.44.175a33 33 0 0 1-2.698-.104c-.286.297-.66.501-1.103.559a5.2 5.2 0 0 1-1.36 0c-.997-.13-1.643-1.003-1.73-2.005A31 31 0 0 1 1 9.25c0-1.117.05-2.019.108-2.7.088-1.002.734-1.874 1.731-2.005a5.2 5.2 0 0 1 1.249-.013l.03-.465c.089-1.235.133-1.852.66-2.38.529-.527 1.118-.568 2.297-.652A12 12 0 0 1 8.5 1.011c.506.021.828.116 1.2.489L11.2 3c.475.474.67.847.71 1.5M8 2.5q.29 0 .597.017l1.798 1.798q.04.578.067 1.271A34 34 0 0 0 8 5.5c-.944 0-1.765.035-2.463.086q.031-.778.077-1.412c.048-.663.075-.987.13-1.218.034-.147.06-.172.091-.204l.004-.003c.043-.043.065-.064.195-.096.212-.05.511-.077 1.147-.122.28-.02.557-.031.818-.031M5.97 7.06q.015.234.029.494c.018.366-.116.626-.25.885-.124.242-.249.483-.249.811s.125.57.25.811c.133.26.267.519.249.885q-.029.555-.067.991A33 33 0 0 0 8 12c1.371 0 2.464-.076 3.275-.166.222-.025.378-.042.513-.062.13-.02.202-.037.245-.05a.2.2 0 0 0 .056-.022.5.5 0 0 0 .086-.07.6.6 0 0 0 .084-.094.1.1 0 0 0 .016-.034c.01-.029.026-.084.048-.196.022-.116.043-.253.074-.455A9 9 0 0 0 12.5 9.5a9 9 0 0 0-.103-1.35c-.03-.203-.052-.34-.074-.457a1.4 1.4 0 0 0-.048-.195.1.1 0 0 0-.016-.034.6.6 0 0 0-.084-.094.5.5 0 0 0-.086-.07.2.2 0 0 0-.056-.022 2 2 0 0 0-.245-.05c-.135-.02-.291-.037-.513-.062A30 30 0 0 0 8 7c-.763 0-1.44.024-2.03.06M2.5 9.25c0-1.073.047-1.931.103-2.57.02-.227.1-.4.186-.504a.36.36 0 0 1 .245-.144 3.7 3.7 0 0 1 .971 0c.09.012.169.052.245.144a.93.93 0 0 1 .186.505q.035.396.062.903-.013.036-.069.142l-.024.047C4.28 8.01 4 8.545 4 9.25s.28 1.239.405 1.477l.024.047q.055.108.07.142-.028.508-.062.903a.93.93 0 0 1-.187.505.36.36 0 0 1-.245.144 3.8 3.8 0 0 1-.97 0 .36.36 0 0 1-.246-.144.93.93 0 0 1-.186-.504A30 30 0 0 1 2.5 9.25"/></svg>