<svg xmlns="http://www.w3.org/2000/svg" viewBox="0 0 24 24"><path d="M13 12a1 1 0 1 0 0 2h3a1 1 0 1 0 0-2zm0-6a1 1 0 0 0-1-1h-1a1 1 0 1 0 0 2h1a1 1 0 0 0 1-1"/><path fill-rule="evenodd" d="M17.874 7.5q.023.412.043.853c.813.114 1.33.278 1.905.83.736.708.823 1.29.999 2.456.105.702.18 1.5.18 2.361 0 .86-.075 1.66-.18 2.36-.176 1.166-.263 1.75-.999 2.456-.735.708-1.377.779-2.661.92-1.297.145-3.02.264-5.16.264-1.46 0-2.725-.055-3.793-.136-.44.582-1.067.99-1.845 1.085a7 7 0 0 1-1.671 0c-1.48-.18-2.419-1.497-2.541-2.982A49 49 0 0 1 2 14c0-1.64.068-2.964.15-3.968.123-1.484 1.062-2.8 2.54-2.98a7 7 0 0 1 1.465-.023l.022-.335c.134-1.947.201-2.92 1.013-3.718s1.75-.846 3.628-.943a23 23 0 0 1 1.682-.027c.982.024 1.588.28 2.303.994l2 2c.75.751 1.008 1.414 1.07 2.5M8.909 17.907c.897.056 1.928.093 3.091.093 2.067 0 3.716-.115 4.94-.251.702-.078.981-.116 1.182-.176.098-.03.167-.057.314-.198.167-.16.19-.227.211-.285l.001-.003a2 2 0 0 0 .082-.33c.035-.18.067-.391.113-.694.093-.618.157-1.316.157-2.063s-.064-1.445-.157-2.063a18 18 0 0 0-.113-.694 2 2 0 0 0-.082-.33v-.002c-.021-.059-.045-.125-.212-.286-.147-.141-.216-.169-.314-.198-.201-.06-.48-.098-1.181-.176A45 45 0 0 0 12 10c-1.164 0-2.195.037-3.092.093q.052.622.09 1.407c.025.537-.24.918-.502 1.297-.25.36-.497.717-.497 1.203s.248.844.497 1.203c.262.379.527.76.501 1.297q-.037.785-.089 1.407M11.999 4q.224 0 .452.006c.325.008.452.05.511.076.06.026.186.092.426.332l2 2c.242.242.323.386.364.485.047.112.101.302.125.715q.015.26.028.531A50 50 0 0 0 12 8c-1.51 0-2.813.06-3.905.145q.035-.699.078-1.314c.07-1.034.114-1.58.206-1.978.067-.293.13-.37.213-.45.093-.092.17-.15.437-.207.375-.082.892-.114 1.892-.166.367-.02.73-.03 1.079-.03M4.467 9.31a.68.68 0 0 1 .465-.273 5 5 0 0 1 1.19 0c.175.02.325.1.466.274.156.192.291.5.323.887q.046.552.082 1.25-.036.059-.12.18l-.046.066C6.593 12.024 6 12.859 6 14s.593 1.976.827 2.306a7 7 0 0 1 .166.247q-.036.696-.082 1.249c-.032.386-.167.695-.323.887a.68.68 0 0 1-.466.274 5 5 0 0 1-1.19 0 .68.68 0 0 1-.465-.274c-.156-.192-.291-.5-.323-.886A47 47 0 0 1 4 14c0-1.585.066-2.854.144-3.803.032-.387.167-.694.323-.886"/></svg>