<svg xmlns="http://www.w3.org/2000/svg" viewBox="0 0 24 24"><path fill-rule="evenodd" d="M5.96 3.276C7.407 3.131 9.423 3 12 3c2.575 0 4.592.13 6.039.276 1.312.132 1.618.189 2.08.62.279.258.392.443.467.636.094.239.149.53.246 1.094.1.573.167 1.215.167 1.9q-.002.584-.059 1.13c-.078.766-.127 1.201-.234 1.547-.09.284-.22.509-.522.781-.515.466-1.025.516-3.056.516H6.871c-2.031 0-2.54-.05-3.056-.516-.301-.272-.432-.497-.521-.781-.108-.345-.157-.78-.235-1.546A11 11 0 0 1 3 7.527c0-.687.068-1.33.167-1.903.098-.564.152-.854.246-1.092.076-.193.189-.378.467-.637.462-.43.768-.487 2.08-.619M8.75 7.5a1.25 1.25 0 1 1-2.5 0 1.25 1.25 0 0 1 2.5 0m-4.935 5.516c.515-.466 1.025-.516 3.056-.516h10.257c2.031 0 2.54.05 3.056.516.302.272.433.497.522.781.107.346.156.781.234 1.547q.057.546.059 1.13c0 .685-.067 1.328-.167 1.9-.097.565-.152.855-.246 1.094-.075.193-.188.378-.467.637-.462.43-.768.486-2.08.619-1.447.145-3.464.276-6.04.276s-4.592-.13-6.04-.276c-1.311-.133-1.617-.189-2.079-.62-.278-.258-.391-.443-.467-.636-.094-.238-.148-.528-.246-1.092-.1-.574-.167-1.216-.167-1.902q.002-.586.059-1.131c.078-.766.127-1.2.235-1.546.089-.284.22-.51.521-.781M8.75 16.5a1.25 1.25 0 1 1-2.5 0 1.25 1.25 0 0 1 2.5 0"/></svg>