<svg xmlns="http://www.w3.org/2000/svg" viewBox="0 0 24 24"><path fill-rule="evenodd" d="M16.5 6.5a4.5 4.5 0 1 1-9 0 4.5 4.5 0 0 1 9 0m-2 0a2.5 2.5 0 1 1-5 0 2.5 2.5 0 0 1 5 0m7.207 6.207-1.756 1.756c.54.849.64 1.745.801 3.194q.07.629.129 1.345.075.927.119 2H10.593l9.7-9.71a1 1 0 0 1 1.414 1.415m-6.294 6.294 3.045-3.045.007.023c.123.392.187.888.3 1.9q.058.527.109 1.122z"/><path d="M9 20a1 1 0 0 1-1 1l-5 .002q.044-1.073.12-2 .057-.716.128-1.345c.211-1.899.317-2.848 1.444-3.984s2.056-1.247 3.911-1.468A29 29 0 0 1 12 12c1.08 0 2.095.064 3.016.162a1 1 0 1 1-.257 1.984A27 27 0 0 0 12 14c-1.142 0-2.21.077-3.16.19-.99.119-1.467.184-1.845.307-.274.09-.52.219-.883.585-.358.36-.487.61-.577.897-.124.392-.187.888-.3 1.9q-.059.527-.109 1.122L8 19a1 1 0 0 1 1 1"/></svg>