<svg xmlns="http://www.w3.org/2000/svg" viewBox="0 0 16 16"><path fill-rule="evenodd" d="M5.186 2.188c.437-.06.814.292.814.733 0 .39-.298.71-.684.766-.64.094-.855.222-1.131.499-.277.276-.405.49-.499 1.13A.786.786 0 0 1 2.92 6c-.44 0-.794-.378-.733-.814.12-.87.34-1.465.937-2.06.597-.597 1.192-.818 2.062-.938M10 2.92c0-.44.377-.794.814-.733.87.12 1.466.34 2.062.937.597.597.817 1.192.938 2.062.06.437-.293.814-.734.814a.785.785 0 0 1-.766-.684c-.094-.64-.222-.855-.499-1.131-.276-.277-.49-.405-1.13-.5A.785.785 0 0 1 10 2.922M5.186 13.815c.437.06.814-.293.814-.734a.786.786 0 0 0-.684-.766c-.64-.094-.855-.222-1.131-.498-.277-.277-.405-.492-.5-1.133A.785.785 0 0 0 2.92 10c-.44 0-.794.377-.734.814.121.871.341 1.466.938 2.063.596.597 1.191.817 2.062.938m8.628-3c.06-.437-.293-.815-.734-.815a.785.785 0 0 0-.766.685c-.094.64-.222.855-.499 1.131-.276.277-.49.405-1.13.5a.786.786 0 0 0-.685.765c0 .44.378.794.815.734.87-.121 1.465-.341 2.061-.938.597-.597.817-1.192.938-2.063M8 4.75c-.62 0-1.162.028-1.623.069-.807.07-1.21.107-1.725.623-.424.425-.522.765-.58 1.308h7.856c-.058-.543-.155-.883-.58-1.308-.514-.516-.918-.552-1.725-.623A19 19 0 0 0 8 4.75M4.037 8.873a10 10 0 0 1-.034-.622h7.994q-.009.325-.034.62c-.066.782-.1 1.173-.614 1.689-.515.516-.919.552-1.726.623-.462.041-1.003.069-1.623.069s-1.162-.028-1.623-.069c-.807-.071-1.21-.107-1.725-.623s-.548-.907-.615-1.687"/></svg>