<svg xmlns="http://www.w3.org/2000/svg" viewBox="0 0 32 32"><path fill-rule="evenodd" d="M12 5.567c0-.734-.629-1.319-1.357-1.229-1.89.234-3.141.657-4.395 1.91-1.254 1.254-1.676 2.505-1.91 4.395-.09.728.494 1.357 1.228 1.357.65 0 1.186-.498 1.27-1.143.2-1.562.48-2.142 1.18-2.84.699-.7 1.279-.981 2.841-1.181C11.502 6.753 12 6.217 12 5.567m9.143 1.269C20.498 6.753 20 6.217 20 5.567c0-.734.629-1.319 1.357-1.229 1.89.234 3.141.657 4.395 1.91 1.254 1.254 1.676 2.505 1.91 4.395.09.728-.494 1.357-1.228 1.357-.65 0-1.186-.498-1.27-1.143-.2-1.562-.48-2.142-1.18-2.84-.699-.7-1.279-.981-2.841-1.181M20 26.434c0-.65.498-1.186 1.143-1.268 1.562-.2 2.142-.482 2.841-1.181s.98-1.28 1.181-2.842c.083-.645.619-1.143 1.269-1.143.734 0 1.319.628 1.228 1.357-.234 1.891-.656 3.142-1.91 4.396s-2.504 1.676-4.395 1.91c-.728.09-1.357-.494-1.357-1.229M5.566 20c.65 0 1.186.498 1.269 1.143.2 1.563.481 2.143 1.18 2.842.7.7 1.28.98 2.842 1.18.645.083 1.143.62 1.143 1.27 0 .734-.629 1.318-1.357 1.228-1.89-.234-3.141-.656-4.395-1.91s-1.676-2.505-1.91-4.396C4.248 20.628 4.832 20 5.566 20m4.936-3.75q.006.43.032.84c.057.94.09 1.26.163 1.5.033.11.092.283.464.659.357.362.533.427.666.468.27.083.629.122 1.61.193.747.055 1.601.09 2.563.09.961 0 1.816-.035 2.562-.09.982-.07 1.341-.11 1.611-.193.134-.041.309-.107.666-.468.372-.376.431-.55.464-.66.073-.24.106-.56.163-1.501q.026-.407.032-.838zm10.87-2.5H10.629a2 2 0 0 1 .069-.34c.033-.11.092-.283.464-.659.357-.362.533-.427.666-.468.27-.083.629-.122 1.61-.194.747-.054 1.601-.09 2.563-.09.961 0 1.815.036 2.562.09.981.072 1.341.111 1.611.194.134.04.309.106.666.468.372.376.431.55.464.659.028.092.05.195.07.34m-2.628 8.654c1.79-.13 2.685-.195 3.874-1.398 1.188-1.202 1.24-2.057 1.344-3.766a20 20 0 0 0 0-2.48c-.104-1.71-.156-2.564-1.344-3.766-1.189-1.203-2.084-1.268-3.875-1.398A38 38 0 0 0 16 9.5c-1.023 0-1.938.037-2.745.096-1.79.13-2.684.196-3.872 1.398s-1.24 2.056-1.345 3.764a20 20 0 0 0 0 2.483c.104 1.709.157 2.563 1.345 3.765s2.083 1.267 3.872 1.398c.807.059 1.722.096 2.745.096 1.022 0 1.937-.037 2.744-.096"/></svg>