<svg xmlns="http://www.w3.org/2000/svg" viewBox="0 0 32 32"><path fill-rule="evenodd" d="M5.585 17.917c.518-1.097.778-1.645.898-1.966l.02-.054c.089-.24.134-.36.17-.482s.063-.247.118-.497l.012-.056c.074-.335.18-1.136.391-2.738.205-1.548.535-2.856.871-3.892.628-1.935 1.596-3.455 3.493-4.314C12.652 3.423 14.133 3 16.003 3c1.869 0 3.35.423 4.444.918 1.897.859 2.865 2.379 3.493 4.314.336 1.036.666 2.344.87 3.892.213 1.61.32 2.416.394 2.753l.013.06c.054.244.08.367.116.487.035.12.079.237.166.472l.021.057c.12.323.382.876.904 1.982 1.087 2.302 1.414 3.829.687 5.084-1.146 1.978-4.154 1.98-10.17 1.98H15.06c-6.016 0-9.024-.002-10.17-1.98-.729-1.259-.399-2.79.696-5.102m18.579 1.086c.512 1.085.741 1.78.813 2.245.056.372-.004.474-.027.513-.026.045-.061.102-.216.183-.2.103-.573.233-1.254.335-1.417.213-3.446.22-6.539.22H15.06c-3.093 0-5.122-.006-6.54-.22-.68-.102-1.053-.232-1.253-.335-.155-.08-.187-.133-.213-.178l-.003-.005c-.023-.039-.084-.141-.026-.516.072-.468.304-1.168.82-2.259l.084-.177c.44-.93.74-1.561.897-1.984l.027-.074a9 9 0 0 0 .219-.63c.063-.212.11-.43.157-.646l.017-.077c.097-.441.213-1.317.392-2.675l.036-.272c.183-1.383.476-2.542.77-3.448.505-1.555 1.123-2.344 2.146-2.807.802-.363 1.933-.696 3.414-.696 1.48 0 2.611.333 3.413.696 1.023.463 1.641 1.252 2.146 2.807.294.906.587 2.066.77 3.448l.036.274c.18 1.365.297 2.245.394 2.689l.017.078c.047.213.094.428.156.637a9 9 0 0 0 .214.62l.028.075c.158.425.459 1.062.902 2z"/><path d="M14.75 26.5a1.25 1.25 0 1 0 0 2.5h2.5a1.25 1.25 0 0 0 0-2.5z"/></svg>