<svg xmlns="http://www.w3.org/2000/svg" viewBox="0 0 24 24"><path d="M11 20a1 1 0 1 0 0 2h2a1 1 0 1 0 0-2zm-7.704-2.484c.853 1.455 3.067 1.483 7.46 1.484h2.493c4.39 0 6.602-.03 7.455-1.484.555-.946.302-2.098-.534-3.84-.451-.939-.677-1.409-.78-1.696l-.014-.038c-.05-.137-.074-.206-.095-.276s-.038-.14-.072-.282l-.01-.04c-.07-.297-.162-.98-.345-2.344a16.7 16.7 0 0 0-.68-3c-.504-1.528-1.272-2.667-2.779-3.324C14.551 2.31 13.42 2 12.002 2s-2.548.309-3.393.676C7.102 3.333 6.334 4.472 5.831 6a16.7 16.7 0 0 0-.681 3c-.182 1.358-.273 2.037-.344 2.333l-.009.037a5 5 0 0 1-.073.29 5 5 0 0 1-.098.282l-.013.036c-.103.286-.327.752-.776 1.684-.842 1.75-1.098 2.905-.541 3.854"/></svg>