<svg xmlns="http://www.w3.org/2000/svg" viewBox="0 0 44 44"><path fill-rule="evenodd" d="M8.344 31.6C8.167 29.377 8 26.17 8 22s.167-7.376.344-9.599c.138-1.74.207-2.609.995-3.392.789-.783 1.567-.84 3.123-.953a21 21 0 0 1 3.076 0c1.556.113 2.334.17 3.123.953.788.783.857 1.653.995 3.392C19.833 14.624 20 17.83 20 22c0 4.171-.167 7.377-.344 9.6-.138 1.738-.207 2.608-.995 3.39-.789.784-1.566.84-3.12.953a21 21 0 0 1-3.081 0c-1.555-.113-2.333-.17-3.12-.952-.79-.783-.858-1.653-.996-3.391m16 0C24.167 29.377 24 26.17 24 22s.167-7.376.344-9.599c.138-1.74.207-2.609.995-3.392.789-.783 1.567-.84 3.123-.953a21 21 0 0 1 3.076 0c1.556.113 2.334.17 3.123.953.788.783.857 1.653.995 3.392C35.833 14.624 36 17.83 36 22c0 4.171-.167 7.377-.344 9.6-.138 1.738-.207 2.608-.995 3.39-.788.784-1.566.84-3.12.953a21 21 0 0 1-3.081 0c-1.555-.113-2.332-.17-3.12-.952-.79-.783-.858-1.653-.996-3.391"/></svg>