<svg xmlns="http://www.w3.org/2000/svg" viewBox="0 0 16 16"><path d="M6.456 13.558c.343-.345.37-.751.423-1.565C6.942 11.045 7 9.708 7 8s-.057-3.045-.12-3.994c-.053-.813-.08-1.22-.423-1.564s-.706-.37-1.434-.423a7 7 0 0 0-1.045 0c-.727.052-1.091.079-1.434.423s-.369.75-.423 1.564C2.057 4.956 2 6.292 2 8s.057 3.045.12 3.993c.054.814.08 1.22.423 1.565.343.344.707.37 1.434.422a7 7 0 0 0 1.045 0c.728-.052 1.092-.078 1.434-.422m7 0c.343-.345.37-.751.423-1.565.063-.948.12-2.285.12-3.993s-.057-3.045-.12-3.994c-.053-.813-.08-1.22-.423-1.564s-.706-.37-1.434-.423a7 7 0 0 0-1.045 0c-.727.052-1.091.079-1.434.423s-.369.75-.423 1.564C9.057 4.956 9 6.292 9 8s.057 3.045.12 3.993c.054.814.08 1.22.423 1.565.343.344.707.37 1.434.422a7 7 0 0 0 1.045 0c.728-.052 1.092-.078 1.434-.422"/></svg>