<svg xmlns="http://www.w3.org/2000/svg" viewBox="0 0 24 24"><path fill-rule="evenodd" d="M8.199 6.348C9.831 2.783 10.646 1 12 1s2.17 1.783 3.801 5.348l1.104 2.413C17.635 10.357 18 11.154 18 12s-.365 1.643-1.095 3.239l-1.104 2.412C14.169 21.217 13.354 23 12 23s-2.17-1.783-3.801-5.349L7.095 15.24C6.365 13.643 6 12.846 6 12s.365-1.643 1.095-3.239zm5.783.833 1.104 2.413C15.894 11.355 16 11.692 16 12H8c0-.308.107-.645.914-2.406l1.104-2.413c.844-1.846 1.386-3.018 1.864-3.757q.064-.099.118-.174.054.075.117.174c.479.739 1.021 1.911 1.865 3.757"/></svg>