<svg xmlns="http://www.w3.org/2000/svg" viewBox="0 0 32 32"><path fill-rule="evenodd" d="M11.249 8.546c2.04-4.7 3.059-7.05 4.751-7.05s2.712 2.35 4.751 7.05l1.38 3.181c.913 2.103 1.369 3.154 1.369 4.27 0 1.114-.456 2.165-1.369 4.268l-1.38 3.18c-2.04 4.701-3.059 7.051-4.751 7.051s-2.712-2.35-4.751-7.05l-1.38-3.181C8.956 18.162 8.5 17.111 8.5 15.996s.456-2.166 1.369-4.269zm7.209.995 1.38 3.181C20.835 15.022 21 15.525 21 16H11c0-.475.165-.979 1.162-3.278l1.38-3.18c1.053-2.428 1.737-3.989 2.343-4.975L16 4.385q.054.082.115.182c.606.986 1.29 2.547 2.343 4.974"/></svg>