<svg xmlns="http://www.w3.org/2000/svg" viewBox="0 0 44 44"><path fill-rule="evenodd" d="M15.348 11.725C18.203 5.24 19.631 2 21.999 2c2.37 0 3.797 3.241 6.652 9.725l1.932 4.387c1.277 2.9 1.916 4.35 1.916 5.888s-.639 2.988-1.916 5.888l-1.932 4.387C25.796 38.759 24.368 42 21.999 42s-3.796-3.242-6.651-9.724l-1.932-4.388c-1.277-2.9-1.916-4.35-1.916-5.888s.639-2.988 1.916-5.888zm10.557 1.209 1.932 4.387C29.22 20.46 29.5 21.24 29.5 22h-15c0-.76.279-1.54 1.662-4.68l1.932-4.386c1.468-3.335 2.44-5.523 3.308-6.916A6.6 6.6 0 0 1 22 5.18c.142.162.34.423.598.837.868 1.393 1.84 3.581 3.308 6.916"/></svg>