<svg xmlns="http://www.w3.org/2000/svg" viewBox="0 0 16 16"><path d="M3.077 9c-.785-.003-1.137-.033-1.276-.291a.4.4 0 0 1-.051-.205c-.001-.271.21-.64.556-1.246l.328-.575C3.082 5.899 3.42 5.5 3.75 5.5s.668.398 1.116 1.182l.328.575c.347.606.557.975.556 1.246a.4.4 0 0 1-.05.205c-.128.236-.529.281-1.113.29.033.253.08.364.183.554.165.256.42.512.678.678.3.164.404.183 1.19.238.287.02.577.032.862.032h3l.75-.001a.75.75 0 0 1 .53.22l2.003 2.005a.75.75 0 1 1-1.061 1.06L10.939 12l-3.439.001c-.325 0-.65-.013-.967-.035-.793-.056-1.19-.084-1.803-.418-.406-.221-1.056-.87-1.277-1.277-.25-.459-.329-.797-.376-1.27M4.75 4.5a.75.75 0 0 1 0-1.5H7.5q.49.001.968.035c.793.056 1.19.084 1.803.418.406.221 1.056.87 1.277 1.277.25.458.329.796.376 1.269.787.003 1.14.033 1.28.292q.05.093.05.205c.001.271-.21.64-.556 1.246l-.328.575c-.448.784-.785 1.182-1.116 1.182s-.668-.398-1.116-1.182l-.328-.575c-.347-.606-.557-.975-.556-1.246q0-.112.05-.205c.128-.236.527-.281 1.11-.29a1.3 1.3 0 0 0-.183-.553 2.4 2.4 0 0 0-.678-.678c-.3-.164-.404-.183-1.19-.238A12 12 0 0 0 7.5 4.5z"/></svg>