<svg xmlns="http://www.w3.org/2000/svg" viewBox="0 0 24 24"><path d="M14 13a1 1 0 1 0 0-2h-4a1 1 0 1 0 0 2z"/><path fill-rule="evenodd" d="M22 13.813v-2.69l-.016-.007q-.024-.614-.07-1.184c-.162-1.941-.243-2.912-1.533-4.206s-2.302-1.382-4.327-1.558A47 47 0 0 0 12 4c-1.55 0-2.902.068-4.055.168-2.025.176-3.037.264-4.326 1.558-1.29 1.293-1.37 2.264-1.532 4.204a25 25 0 0 0 0 4.14c.161 1.941.242 2.912 1.532 4.205s2.301 1.382 4.325 1.558c1.153.1 2.506.168 4.056.168q1.38-.002 2.553-.065c2.966 1.748 4.625 2.522 5.925 1.786C22 20.861 22 18.512 22 13.813m-2.08-3.715q.045.526.065 1.09L20 13.813c0 2.417-.005 4-.169 5.1-.078.53-.177.81-.25.954-.05.097-.076.109-.086.114h-.002l-.003.002c-.013.008-.027.016-.088.017-.09 0-.281-.02-.622-.134-.723-.244-1.71-.768-3.212-1.653l-.518-.305-.6.031q-1.12.06-2.45.062c-1.492 0-2.787-.066-3.883-.16-1.078-.094-1.601-.15-2.022-.279-.312-.096-.612-.25-1.06-.698-.457-.46-.606-.755-.696-1.044-.122-.393-.173-.878-.26-1.915a23 23 0 0 1 0-3.808c.087-1.037.138-1.523.26-1.916.09-.289.239-.584.696-1.044.448-.449.748-.602 1.06-.698.421-.13.944-.185 2.023-.278C9.213 6.066 10.508 6 12 6s2.785.065 3.881.16c1.08.093 1.602.148 2.024.278.312.096.612.25 1.06.699.457.459.606.755.696 1.043.122.394.173.88.26 1.917"/></svg>