<svg xmlns="http://www.w3.org/2000/svg" viewBox="0 0 24 24"><path fill-rule="evenodd" d="M22 11.122v2.691c0 4.699 0 7.048-1.522 7.91-1.3.735-2.959-.039-5.925-1.787-.781.04-1.632.065-2.553.065a47 47 0 0 1-4.056-.168c-2.024-.176-3.036-.264-4.325-1.558-1.29-1.293-1.37-2.264-1.532-4.204a25 25 0 0 1 0-4.14c.161-1.941.242-2.912 1.532-4.205S5.92 4.344 7.945 4.168C9.098 4.068 10.45 4 12 4s2.901.068 4.054.168c2.025.176 3.038.264 4.327 1.558s1.37 2.265 1.532 4.206q.048.57.071 1.184zM14 13a1 1 0 1 0 0-2h-4a1 1 0 1 0 0 2z"/></svg>