<svg xmlns="http://www.w3.org/2000/svg" viewBox="0 0 28 28"><path d="M16 15a1 1 0 1 0 0-2h-4a1 1 0 0 0 0 2z"/><path fill-rule="evenodd" d="M25.975 12.75a33 33 0 0 0-.1-1.58c-.206-2.363-.31-3.545-1.847-5.089-1.538-1.543-2.743-1.652-5.154-1.87A54 54 0 0 0 14 4c-1.864 0-3.49.085-4.876.21-2.409.219-3.613.328-5.151 1.871S2.33 8.806 2.125 11.168C2.048 12.049 2 13 2 14s.048 1.951.125 2.832c.206 2.362.31 3.544 1.848 5.087s2.742 1.652 5.151 1.87C10.51 23.915 12.136 24 14 24c1.392 0 2.651-.047 3.776-.124C20.123 25.241 21.734 26.016 23 26a2.5 2.5 0 0 0 1.224-.312C26 24.682 26 21.942 26 16.46v-3.7zm-1.998.078.023.59v3.042c0 2.809-.005 4.685-.2 5.999-.19 1.28-.481 1.443-.558 1.486l-.003.002-.003.002c-.07.04-.266.151-.99-.076-.795-.25-1.87-.798-3.464-1.725l-.53-.308-.61.04A53 53 0 0 1 14 22c-1.803 0-3.37-.082-4.695-.202-1.27-.116-1.94-.186-2.488-.357-.442-.137-.855-.359-1.428-.934-.578-.58-.796-.99-.93-1.419-.166-.535-.233-1.183-.342-2.43A31 31 0 0 1 4 14c0-.937.045-1.829.117-2.657.11-1.248.176-1.896.342-2.431.134-.43.352-.84.93-1.419.574-.575.986-.797 1.428-.934.549-.171 1.217-.241 2.488-.357A52 52 0 0 1 14 6c1.803 0 3.368.082 4.694.202 1.27.115 1.94.185 2.49.357.441.137.854.359 1.427.934.578.58.797.99.93 1.42.167.535.233 1.184.342 2.432q.063.712.094 1.483"/></svg>