<svg xmlns="http://www.w3.org/2000/svg" viewBox="0 0 16 16"><path d="M9.25 8.5a.75.75 0 0 0 0-1.5h-2.5a.75.75 0 0 0 0 1.5z"/><path fill-rule="evenodd" d="M14.936 6.675c-.113-1.183-.17-1.774-.968-2.568-.799-.795-1.448-.853-2.747-.97C10.335 3.057 9.26 3 8 3s-2.336.057-3.221.137c-1.299.117-1.948.175-2.747.97s-.855 1.385-.968 2.566a14 14 0 0 0 0 2.654c.113 1.181.17 1.773.968 2.567.799.794 1.448.852 2.746.97a39 39 0 0 0 4.963.099c1.62.963 2.685 1.526 3.5 1.537.272.004.516-.056.744-.185C15 13.741 15 12.186 15 9.054V7.501l-.01-.004q-.016-.428-.054-.822m-1.444.878.008.224v1.277c0 1.617-.004 2.646-.11 3.364-.053.35-.114.513-.15.582a1.5 1.5 0 0 1-.396-.102c-.52-.188-1.231-.568-2.336-1.225l-.386-.23-.448.02a37 37 0 0 1-4.761-.094c-.698-.063-1.014-.098-1.26-.172-.165-.05-.318-.124-.563-.367-.262-.26-.33-.408-.372-.537-.067-.207-.1-.47-.16-1.11a12.5 12.5 0 0 1 0-2.367c.06-.64.093-.902.16-1.109.042-.129.11-.277.372-.537.245-.243.398-.317.563-.367.246-.074.562-.11 1.26-.172C5.754 4.555 6.783 4.5 8 4.5c1.216 0 2.245.055 3.086.13.699.064 1.015.099 1.261.173.165.05.318.124.563.367.262.26.33.408.372.538.067.206.1.469.16 1.11q.035.353.05.735"/></svg>