<svg xmlns="http://www.w3.org/2000/svg" viewBox="0 0 16 16"><path d="m8.82 2.973-.868 1.889 1.206 1.272c.467.492.444 1.27-.05 1.735l-.947.89.826.758c.382.35.502.902.301 1.379l-1.307 3.105H8c1.3 0 1.995-.6 3.386-1.798a20 20 0 0 0 1.206-1.127c1.005-1.028 1.695-1.734 2.07-2.574.182-.406.29-.845.324-1.366l.007-.133h-.007a5 5 0 0 0 0-.727c-.17-2.238-1.893-3.997-3.995-3.997a3.74 3.74 0 0 0-2.17.694m-1.654.005-.598 1.3a1.43 1.43 0 0 0 .261 1.58l1.05 1.107-.962.905a1.225 1.225 0 0 0 .011 1.796l.902.826-1.326 3.15c-.565-.296-1.121-.776-1.892-1.44a20 20 0 0 1-1.205-1.126c-1.005-1.028-1.695-1.734-2.07-2.574a4 4 0 0 1-.331-1.5h.006a5 5 0 0 1 0-.7c.164-2.245 1.89-4.01 3.995-4.01a3.73 3.73 0 0 1 2.16.686"/></svg>