<svg xmlns="http://www.w3.org/2000/svg" viewBox="0 0 24 24"><path fill-rule="evenodd" d="M5.44 16.82C3.948 15.292 2.942 14.263 2.42 13c-.331-.806-.42-1.652-.42-2.5q0-.252.018-.5c.234-3.207 2.7-5.73 5.708-5.73.997 0 1.935.278 2.752.766a5.9 5.9 0 0 1 1.513 1.309c.43-.526.94-.971 1.508-1.315a5.35 5.35 0 0 1 2.774-.778c3.002 0 5.465 2.512 5.707 5.71.031.408.027.82 0 1.228a5.6 5.6 0 0 1-.4 1.81c-.52 1.264-1.527 2.293-3.02 3.82a28 28 0 0 1-1.721 1.61c-1.989 1.71-2.982 2.566-4.839 2.566s-2.85-.856-4.838-2.568a28 28 0 0 1-1.722-1.61m1.43-1.399c-1.97-2.016-2.633-2.77-2.812-3.946l-.018-.231a9 9 0 0 1-.04-.744C4 8 5.823 6.268 7.726 6.268c.847 0 1.652.325 2.304.91l-.132.287a2 2 0 0 0 .365 2.212l1.617 1.706-1.492 1.403a1.7 1.7 0 0 0 .016 2.492l1.382 1.267-.926 2.203c-.532-.266-1.19-.8-2.393-1.836A26 26 0 0 1 6.87 15.42m6.132 3.393c.559-.24 1.222-.773 2.53-1.9a26 26 0 0 0 1.598-1.493c1.95-1.995 2.619-2.754 2.806-3.91l.02-.247A9 9 0 0 0 20 10.48c0-2.497-1.823-4.229-3.727-4.229-1.044 0-2.025.492-2.733 1.358l-1.149 1.406 1.148 1.211a1.7 1.7 0 0 1-.07 2.408l-1.476 1.389 1.3 1.191a1.7 1.7 0 0 1 .419 1.913z"/></svg>