<svg xmlns="http://www.w3.org/2000/svg" viewBox="0 0 16 16"><path fill-rule="evenodd" d="M1.338 8.502a4 4 0 0 1-.331-1.5h.006a5 5 0 0 1 0-.7c.164-2.245 1.89-4.01 3.995-4.01a3.73 3.73 0 0 1 1.84.485c.434.244.822.573 1.146.966.322-.394.71-.724 1.143-.97a3.74 3.74 0 0 1 1.854-.494c2.102 0 3.825 1.759 3.995 3.997a5 5 0 0 1 0 .726h.007l-.007.134c-.034.521-.142.96-.324 1.366-.375.84-1.065 1.546-2.07 2.574l-.137.139c-.347.346-.708.677-1.069.988C9.996 13.4 9.3 14 8 14s-1.995-.6-3.387-1.798a20 20 0 0 1-1.205-1.127c-1.005-1.028-1.695-1.734-2.07-2.574m3.143 1.525C3.105 8.62 2.66 8.11 2.54 7.328l-.032-.434a3 3 0 0 1-.009-.241c0-1.702 1.24-2.86 2.508-2.86a2.3 2.3 0 0 1 1.52.586 1.43 1.43 0 0 0 .302 1.48l1.05 1.107-.962.905a1.225 1.225 0 0 0 .011 1.796l.902.826-.74 1.76c-.336-.202-.772-.56-1.499-1.186a18 18 0 0 1-1.111-1.039m4.183 2.353c.372-.161.827-.524 1.743-1.314a18 18 0 0 0 1.112-1.039c1.362-1.392 1.81-1.907 1.937-2.676l.035-.462q.009-.124.009-.25c0-1.7-1.24-2.86-2.509-2.86-.698 0-1.357.328-1.835.914l-.632.772.634.669c.467.492.444 1.27-.05 1.735l-.947.89.826.758c.382.35.502.902.301 1.379z"/></svg>