<svg xmlns="http://www.w3.org/2000/svg" viewBox="0 0 24 24"><path d="M10.89 5.308a6 6 0 0 0-.412-.272 5.34 5.34 0 0 0-2.752-.765C4.718 4.27 2.252 6.793 2.018 10a7 7 0 0 0-.018.5c0 .848.089 1.694.421 2.5.52 1.264 1.527 2.293 3.019 3.82a28 28 0 0 0 1.722 1.61c1.2 1.033 2.038 1.755 2.922 2.164l1.702-4.047-1.938-1.777a1 1 0 0 1-.01-1.465l2.042-1.92-2.082-2.197a1 1 0 0 1-.183-1.106z"/><path d="m13.097 5.297-1.382 3.006 2.308 2.434a1 1 0 0 1-.041 1.417l-1.989 1.87 1.664 1.524a1 1 0 0 1 .246 1.125l-1.818 4.324c1.802-.026 2.796-.882 4.753-2.568a28 28 0 0 0 1.722-1.61c1.492-1.526 2.498-2.555 3.019-3.819a5.6 5.6 0 0 0 .401-1.81c.027-.408.031-.82 0-1.228-.242-3.198-2.705-5.71-5.707-5.71a5.35 5.35 0 0 0-2.774.778 6 6 0 0 0-.402.267"/></svg>