<svg xmlns="http://www.w3.org/2000/svg" viewBox="0 0 44 44"><path fill-rule="evenodd" d="M23.525 13.38c-.208-1.042-.127-2.773.589-4.487 1.073-2.57 3.169-4.127 3.782-3.864s.968 2.873-.106 5.443a9 9 0 0 1-.834 1.546 8.8 8.8 0 0 1 1.654-.837c2.58-.974 5.136-.5 5.368.132.232.633-1.394 2.687-3.974 3.662-1.619.611-3.228.652-4.26.442q-.177.153-.412.374a18 18 0 0 0-1.88 2.078 8.7 8.7 0 0 1 2.658-.731c2.737-.298 5.098.802 5.169 1.473s-2.006 2.254-4.743 2.552c-2.015.219-3.825-.32-4.67-.886a17 17 0 0 0-1.572 3.939 8.7 8.7 0 0 1 2.624-1.175c2.667-.694 5.16.05 5.325.704s-1.666 2.523-4.333 3.217c-1.563.406-3.067.319-4.077.044-.105 1.658.164 3.299.579 4.762a9 9 0 0 1 1.747-1.66c2.247-1.613 4.838-1.819 5.222-1.268s-.669 2.96-2.916 4.572a8.7 8.7 0 0 1-2.927 1.36c.193.415.376.773.533 1.064a16 16 0 0 0 .451.784l.022.035.003.004a1.52 1.52 0 0 1-.42 2.09c-.684.46-1.607.27-2.06-.425l-.003-.003.002.003v-.001l-.002-.002-.004-.006-.011-.018-.013-.02-.024-.038-.127-.207a18 18 0 0 1-.425-.75 24 24 0 0 1-1.222-2.649c-.602-1.543-1.187-3.52-1.355-5.678-.927.064-2.907-.62-4.527-2.192-1.988-1.93-2.68-4.47-2.22-4.957.461-.487 2.993.103 4.982 2.033a8.9 8.9 0 0 1 1.787 2.47l.01-.096a19.4 19.4 0 0 1 1.47-5.598c-1.022-.411-2.622-1.723-3.677-3.69-1.43-2.667-1.317-5.53-.681-5.88s3.066 1.11 4.496 3.777a9.7 9.7 0 0 1 1.079 3.403 21.6 21.6 0 0 1 3.922-4.846"/></svg>