<svg xmlns="http://www.w3.org/2000/svg" viewBox="0 0 24 24"><path fill-rule="evenodd" d="M12.898 6.519c.001-.537.106-1.2.38-1.857.59-1.427 1.745-2.292 2.083-2.146s.534 1.595-.058 3.022q-.032.077-.066.15a5 5 0 0 1 .313-.102c1.46-.424 2.843-.047 2.943.314.1.36-.882 1.424-2.341 1.848a4.7 4.7 0 0 1-1.826.159l-.132.11a9 9 0 0 0-.696.675 10 10 0 0 0-.526.608 4.8 4.8 0 0 1 1.405-.38c1.508-.164 2.81.447 2.848.82.04.371-1.105 1.25-2.613 1.416-1.104.12-2.096-.174-2.565-.486a9.2 9.2 0 0 0-.887 2.19 4.8 4.8 0 0 1 1.458-.662c1.47-.385 2.843.029 2.934.392s-.918 1.4-2.387 1.786c-.867.227-1.7.176-2.257.022-.045.863.125 1.753.387 2.575.245-.297.547-.592.905-.851 1.238-.895 2.666-1.01 2.878-.703.211.305-.369 1.643-1.607 2.538a4.8 4.8 0 0 1-1.475.719 13 13 0 0 0 .638 1.126l.062.095.014.02.002.003c.314.45.212 1.074-.228 1.395a.966.966 0 0 1-1.365-.233h-.001v-.002l-.003-.004-.008-.01-.024-.036-.083-.126q-.107-.162-.28-.454a15 15 0 0 1-.808-1.592c-.402-.922-.805-2.113-.93-3.395-.57-.09-1.445-.475-2.184-1.198-1.095-1.072-1.476-2.482-1.223-2.752.254-.27 1.65.057 2.745 1.129.285.279.522.58.712.88.166-1.162.508-2.193.926-3.086-.516-.195-1.348-.871-1.894-1.896-.724-1.361-.667-2.823-.345-3.002s1.554.567 2.278 1.928c.343.645.511 1.313.559 1.855a12.4 12.4 0 0 1 1.526-2.01c.318-.341.602-.606.816-.792"/></svg>