<svg xmlns="http://www.w3.org/2000/svg" viewBox="0 0 24 24"><path d="M.293 9.292a1 1 0 0 1 1.415 0l1.294 1.293 1.293-1.293a1 1 0 0 1 1.415 1.415l-1.293 1.292 1.293 1.293a1 1 0 1 1-1.415 1.415l-1.293-1.293-1.294 1.293a1 1 0 0 1-1.415-1.415L1.587 12 .293 10.708a1 1 0 0 1 0-1.415"/><path fill-rule="evenodd" d="M11.994 4c-1.55 0-2.904.068-4.057.168-2.025.175-3.038.263-4.328 1.557-.58.582-.916 1.098-1.124 1.666q.273.156.517.372a3.003 3.003 0 0 1 4.123.115A3 3 0 0 1 7.24 12a3 3 0 0 1-.115 4.122 3.003 3.003 0 0 1-4.123.115 3 3 0 0 1-.517.372c.208.569.544 1.085 1.124 1.667 1.29 1.294 2.303 1.382 4.328 1.557 1.153.1 2.507.168 4.057.168s2.904-.067 4.057-.168c2.026-.175 3.04-.263 4.33-1.557s1.37-2.265 1.532-4.206a25 25 0 0 0 0-4.137c-.162-1.942-.243-2.913-1.533-4.207s-2.303-1.382-4.33-1.557A47 47 0 0 0 11.995 4m2.532 5.53c.656 0 .955.241.955.816v.253c0 .673-.667.98-1.454 1.343-1.138.524-2.527 1.077-2.527 3.102v.954h6v-1.656h-3.848c.092-.654.784-.899 1.554-1.268 1.059-.507 2.266-1.086 2.266-2.67 0-1.76-1.047-2.404-2.946-2.404-1.783 0-2.945.614-3.026 2.5h2c.069-.759.347-.97 1.026-.97"/></svg>