<svg xmlns="http://www.w3.org/2000/svg" viewBox="0 0 16 16"><path d="M3.644 4.803c.247-.075.565-.11 1.264-.173.842-.076 1.87-.13 3.086-.13 1.12 0 2.084.047 2.887.113.74.062 1.081.097 1.35.178.454.137.93.59 1.074 1.044.07.222.1.501.155 1.173a12.4 12.4 0 0 1 0 1.984c-.054.672-.085.95-.155 1.173-.145.454-.62.907-1.074 1.044-.269.081-.61.116-1.35.178-.803.066-1.766.112-2.887.112a35 35 0 0 1-3.086-.13c-.7-.063-1.017-.098-1.264-.173a2 2 0 0 1-.211-.085C3.309 11.055 3.188 11 3.04 11a.75.75 0 0 0-.325 1.426c.55.301 1.143.355 2.059.437.885.08 1.96.136 3.22.136 1.163 0 2.167-.048 3.01-.117 1.381-.115 2.072-.172 2.937-1.038s.915-1.489 1.016-2.731a14 14 0 0 0 0-2.226c-.1-1.243-.15-1.864-1.016-2.73-.866-.867-1.556-.924-2.936-1.039A37 37 0 0 0 7.994 3c-1.26 0-2.335.056-3.22.136-.925.083-1.522.137-2.077.446A.75.75 0 0 0 3.039 5c.147 0 .269-.055.393-.112.068-.031.138-.063.212-.085"/><path d="M9.041 6.997c0-.367-.19-.521-.61-.521-.433 0-.602.154-.646.638H6.522C6.573 5.91 7.293 5.5 8.432 5.5c1.211 0 1.88.41 1.88 1.533 0 .964-.77 1.333-1.447 1.657-.491.235-.933.337-.992.754h2.439V10.5H6.5v-.609c0-1.291.887-1.59 1.613-1.924.502-.231.928-.38.928-.81zm-4.754.033a.75.75 0 1 0-1.062-1.06l-.97.97-.971-.97A.751.751 0 0 0 .222 7.03l.97.97-.97.97a.75.75 0 1 0 1.062 1.06l.97-.97.971.97a.751.751 0 0 0 1.062-1.06L3.317 8z"/></svg>