<svg xmlns="http://www.w3.org/2000/svg" viewBox="0 0 24 24"><path d="M6.211 16.9A53 53 0 0 1 6 12c0-1.975.092-3.609.211-4.898.084-.91.131-1.322.226-1.642.063-.21.151-.397.442-.692.321-.328.497-.409.643-.459.246-.083.561-.128 1.364-.218A15 15 0 0 1 10.5 4c.567 0 1.109.035 1.614.091.803.09 1.118.135 1.364.218.146.05.322.131.643.459.29.295.38.482.442.692.095.32.141.733.226 1.641.041.452.083.946.115 1.483a1 1 0 1 0 1.988-.22q-.05-.78-.112-1.447c-.156-1.69-.235-2.534-1.231-3.55s-1.736-1.098-3.213-1.263A17 17 0 0 0 10.5 2a17 17 0 0 0-1.836.104c-1.477.165-2.216.247-3.213 1.263s-1.075 1.86-1.231 3.55A55 55 0 0 0 4 12c0 2.037.095 3.733.22 5.084.156 1.689.235 2.533 1.231 3.549.997 1.015 1.735 1.098 3.212 1.263q.559.064 1.17.09Q9.914 22 10 22a1 1 0 0 0 1-1c0-.552-.448-1.009-1-1.009q-.582-.022-1.115-.082c-.803-.09-1.118-.135-1.363-.219-.146-.05-.322-.13-.643-.458-.29-.296-.38-.482-.442-.692-.095-.32-.141-.732-.226-1.64"/><path d="M8 7a1 1 0 0 1 1-1h3a1 1 0 1 1 0 2H9a1 1 0 0 1-1-1"/><path fill-rule="evenodd" d="M22 16.5a5.5 5.5 0 1 1-11 0 5.5 5.5 0 0 1 11 0m-9 0v-.01l2.109 1.187c.52.292.891.842.891 1.438v.85a3.5 3.5 0 0 1-3-3.465m3.61-2.455c.272-.204.38-.674.39-1.01a3.5 3.5 0 0 1 2.991 3.712l-.447-.177a1.1 1.1 0 0 0-.602-.049l-1.598.36a1.1 1.1 0 0 1-1.211-.609l-.308-.653c-.223-.472.068-1.036.486-1.35z"/></svg>