<svg xmlns="http://www.w3.org/2000/svg" viewBox="0 0 44 44"><path d="M31.193 20.235a1.5 1.5 0 0 0 2.615-1.47l-.025-.044-.068-.12-.258-.451a142 142 0 0 0-3.968-6.473c-1.16-1.766-2.429-3.575-3.594-4.957-.58-.687-1.17-1.312-1.738-1.778C23.665 4.539 22.896 4 22 4c-.895 0-1.665.539-2.156.942-.568.466-1.159 1.091-1.738 1.778-1.166 1.382-2.435 3.19-3.594 4.957a140 140 0 0 0-4.226 6.924l-.069.12-.024.044a1.5 1.5 0 0 0 2.615 1.47v-.001l.02-.036.065-.114.25-.437a130 130 0 0 1 3.877-6.324c1.138-1.734 2.33-3.425 3.379-4.668l.101-.12V36.5a1.5 1.5 0 1 0 3 0V8.535l.102.12c1.05 1.243 2.24 2.934 3.379 4.668a128 128 0 0 1 2.958 4.755 137 137 0 0 1 1.168 2.006l.065.114z"/></svg>