<svg xmlns="http://www.w3.org/2000/svg" viewBox="0 0 44 44"><path fill-rule="evenodd" d="m35.95 17.97-.047.028-.45.258c-2.418 1.386-3.627 2.08-4.54 1.585-.802-.434-.9-1.527-.911-3.614A8.5 8.5 0 0 0 26.14 18.3L22.193 22l3.948 3.701a8.5 8.5 0 0 0 3.86 2.072c.012-2.087.11-3.18.912-3.614.913-.494 2.122.199 4.54 1.585l.45.258.048.028C38.642 27.574 40 28.352 40 29.5s-1.358 1.926-4.05 3.47l-.047.028-.45.258c-2.418 1.386-3.627 2.08-4.54 1.585-.851-.46-.909-1.663-.913-4.008a11.5 11.5 0 0 1-5.91-2.943L19.94 24H6a2 2 0 1 1 0-4h13.94l4.15-3.89A11.5 11.5 0 0 1 30 13.167c.004-2.345.062-3.547.913-4.008.913-.494 2.122.199 4.54 1.585l.45.258.048.028C38.642 12.574 40 13.352 40 14.5s-1.358 1.926-4.05 3.47"/></svg>