<svg xmlns="http://www.w3.org/2000/svg" viewBox="0 0 24 24"><path d="M6.04 9.147c-.294.509-.44.763-.612.825a.5.5 0 0 1-.447-.054c-.152-.1-.234-.382-.4-.946L3.165 4.16c-.135-.459-.202-.688-.144-.844a.5.5 0 0 1 .294-.294c.156-.058.385.01.843.144l4.814 1.416c.563.166.845.249.946.4a.5.5 0 0 1 .054.447c-.062.172-.317.319-.825.613l-1.092.632a19 19 0 0 1 2.834 4.08 1 1 0 1 1-1.778.917A17 17 0 0 0 6.648 8.1zm11.92 0c.295.509.442.763.614.825a.5.5 0 0 0 .446-.054c.152-.1.235-.382.4-.946l1.416-4.813c.135-.459.203-.688.144-.844a.5.5 0 0 0-.294-.294c-.155-.058-.385.01-.843.144L15.03 4.581c-.564.166-.846.249-.947.4a.5.5 0 0 0-.053.447c.062.172.316.319.824.613l1.091.631A19 19 0 0 0 11 19.458V20a1 1 0 1 0 2 0v-.542a17 17 0 0 1 4.353-11.36z"/></svg>