<svg xmlns="http://www.w3.org/2000/svg" viewBox="0 0 44 44"><path d="M10.16 17.95c.293-.107.545-.543 1.05-1.414l1.162-2.007a30.5 30.5 0 0 1 4.738 6.756 1.5 1.5 0 1 0 2.666-1.374 33.5 33.5 0 0 0-5.29-7.514l2.048-1.185c.872-.505 1.308-.757 1.414-1.051a.86.86 0 0 0-.092-.765c-.173-.26-.656-.402-1.622-.687l-8.25-2.426c-.786-.231-1.179-.347-1.446-.247a.86.86 0 0 0-.504.504c-.1.267.016.66.247 1.445l2.427 8.25c.284.967.426 1.45.686 1.623.226.15.51.184.765.091m21.467-3.42 1.163 2.009c.505.872.757 1.307 1.05 1.413a.86.86 0 0 0 .766-.091c.26-.173.402-.656.687-1.622l2.427-8.252c.23-.786.346-1.179.246-1.446a.86.86 0 0 0-.503-.504c-.268-.1-.66.016-1.446.247L27.764 8.71c-.967.284-1.45.426-1.622.687a.86.86 0 0 0-.092.765c.106.294.542.546 1.413 1.05l2.048 1.186a33.5 33.5 0 0 0-9.012 22.86V36.5a1.5 1.5 0 0 0 3 0v-1.242a30.5 30.5 0 0 1 8.127-20.73"/></svg>