<svg xmlns="http://www.w3.org/2000/svg" viewBox="0 0 24 24"><path d="M20.332 3.668a2.1 2.1 0 0 0-.638-.44 2.6 2.6 0 0 0-.684-.192c-.543-.078-1.194-.028-1.978.129-1.572.315-3.663 1.06-6.457 2.056l-1.223.436c-2.037.726-3.561 1.27-4.62 1.835l-.47.22c-1.604.755-1.7 2.998-.166 3.885q1.59.919 3.174 1.844c.265.121.48.179.705.17.438-.018.82-.285 1.584-.818l1.117-.78c1.697-1.185 2.545-1.777 2.83-1.493.284.285-.308 1.133-1.493 2.83l-.783 1.121c-.532.762-.798 1.143-.816 1.58-.01.243.057.475.199.771q.898 1.54 1.79 3.082c.887 1.534 3.13 1.438 3.884-.166l.221-.47c.565-1.059 1.108-2.583 1.835-4.62l.436-1.223c.996-2.794 1.74-4.885 2.056-6.457.157-.784.207-1.435.128-1.978a2.6 2.6 0 0 0-.191-.684 2.1 2.1 0 0 0-.44-.638"/></svg>