<svg xmlns="http://www.w3.org/2000/svg" viewBox="0 0 32 32"><path fill-rule="evenodd" d="M27.114 4.886a2.8 2.8 0 0 0-.845-.583 3.4 3.4 0 0 0-.908-.255c-.719-.103-1.582-.038-2.622.17-2.085.419-4.857 1.407-8.562 2.727l-1.62.578c-2.702.963-4.723 1.684-6.127 2.432l-.824.388c-2.042.96-2.164 3.815-.21 4.945a975 975 0 0 1 5.814 3.384l.077.045c.287.169.452.267.597.37a4.4 4.4 0 0 1 1.028 1.03c.104.145.203.31.371.596l.045.077a973 973 0 0 1 3.385 5.815c1.13 1.953 3.984 1.83 4.944-.21l.388-.825c.749-1.404 1.469-3.425 2.432-6.127l.578-1.62c1.32-3.705 2.308-6.477 2.726-8.562.209-1.04.274-1.903.17-2.622a3.4 3.4 0 0 0-.254-.908 2.8 2.8 0 0 0-.583-.845M25.33 8.77c.182-.91.193-1.456.147-1.775a1 1 0 0 0-.06-.24.3.3 0 0 0-.062-.093l-.009-.008-.008-.008a.3.3 0 0 0-.092-.062 1 1 0 0 0-.241-.061c-.319-.046-.866-.035-1.775.147-1.863.373-4.428 1.28-8.213 2.63l-1.62.578c-2.781.991-4.59 1.643-5.791 2.284l-.056.029-.88.414a.27.27 0 0 0-.125.1.3.3 0 0 0-.045.153.3.3 0 0 0 .032.155.27.27 0 0 0 .115.11q2.556 1.478 5.114 2.973c.18.093.317.144.46.155q.093.008.187 0c.24-.023.458-.154.895-.414 2.548-1.52 3.823-2.279 4.414-1.903.14.09.26.209.349.35.376.59-.384 1.865-1.904 4.415-.26.437-.39.655-.413.894a1 1 0 0 0-.001.186c.01.138.058.27.144.44q1.502 2.567 2.985 5.134a.27.27 0 0 0 .11.115.3.3 0 0 0 .155.032.3.3 0 0 0 .152-.045.27.27 0 0 0 .1-.125l.415-.88.03-.056c.64-1.202 1.292-3.01 2.283-5.79l.578-1.62c1.35-3.786 2.257-6.351 2.63-8.214"/></svg>