<svg xmlns="http://www.w3.org/2000/svg" viewBox="0 0 16 16"><path fill-rule="evenodd" d="m3.031 5.031-.112.053c-1.167.549-1.237 2.181-.12 2.828q1.334.77 2.662 1.55l.04.023c.145.086.229.136.303.189q.304.217.523.523c.052.073.102.157.188.303l.023.04q.78 1.328 1.55 2.661c.647 1.117 2.28 1.047 2.828-.12l.053-.112c.38-.714.747-1.741 1.236-3.115l.294-.823c.671-1.884 1.174-3.293 1.386-4.353.106-.528.14-.967.087-1.333a1.7 1.7 0 0 0-.13-.461 1.4 1.4 0 0 0-.296-.43 1.4 1.4 0 0 0-.43-.296 1.7 1.7 0 0 0-.461-.13c-.366-.052-.805-.019-1.333.087-1.06.213-2.469.715-4.352 1.386l-.824.294c-1.374.49-2.4.856-3.115 1.236m9.41-1.518.039.007.007.04c.018.124.018.373-.073.823-.185.927-.64 2.212-1.328 4.144l-.294.824c-.506 1.42-.831 2.32-1.147 2.912l-.017.034-.069.145c-.015.032-.027.04-.032.043a.1.1 0 0 1-.052.014.1.1 0 0 1-.053-.01c-.005-.003-.018-.01-.035-.04q-.682-1.178-1.372-2.357a.6.6 0 0 1-.081-.245v-.075c.01-.124.077-.238.211-.464.784-1.318 1.176-1.977.967-2.278a.6.6 0 0 0-.142-.142c-.3-.21-.96.183-2.278.966-.226.135-.34.202-.463.211h-.077a.64.64 0 0 1-.259-.088Q4.723 7.29 3.55 6.614c-.03-.018-.036-.03-.039-.036a.1.1 0 0 1-.01-.053.1.1 0 0 1 .015-.052c.003-.005.01-.017.042-.032l.145-.068.034-.018c.592-.316 1.492-.64 2.912-1.147l.824-.294c1.932-.688 3.217-1.142 4.144-1.328.45-.09.699-.09.824-.073"/></svg>