<svg xmlns="http://www.w3.org/2000/svg" viewBox="0 0 16 16"><path d="M13.55 2.45a1.4 1.4 0 0 0-.43-.296 1.7 1.7 0 0 0-.462-.13c-.366-.052-.805-.019-1.334.087-1.06.213-2.47.715-4.354 1.387l-.824.294c-1.374.49-2.402.856-3.116 1.237l-.11.052c-1.17.55-1.24 2.184-.121 2.83l1.343.778c.536.313.805.47 1.097.457s.547-.19 1.056-.546l.947-.662c1.068-.748 1.602-1.121 1.78-.943s-.197.712-.945 1.78l-.663.943c-.357.509-.535.763-.548 1.056-.012.292.144.56.456 1.098.276.475.5.868.766 1.33.647 1.117 2.282 1.048 2.831-.121l.052-.11c.381-.715.747-1.743 1.237-3.117l.294-.824c.672-1.884 1.174-3.294 1.387-4.354.106-.53.14-.968.086-1.334a1.7 1.7 0 0 0-.129-.461 1.4 1.4 0 0 0-.297-.43"/></svg>