<svg xmlns="http://www.w3.org/2000/svg" viewBox="0 0 16 16"><path fill-rule="evenodd" d="M11 4.118V4c0-.452-.043-.884-.1-1.259-.082-.543-.124-.814-.412-1.118-.288-.303-.554-.358-1.087-.468A7 7 0 0 0 8 1c-.494 0-.982.069-1.402.155-.532.11-.798.165-1.086.468s-.33.575-.412 1.118A8.5 8.5 0 0 0 5 4.118h-.008c-1.378.115-2.067.172-2.932 1.038s-.914 1.488-1.015 2.73a14 14 0 0 0 0 2.228c.1 1.242.15 1.863 1.015 2.73.864.866 1.554.923 2.932 1.038.843.07 1.846.118 3.008.118s2.165-.049 3.007-.118c1.38-.115 2.069-.172 2.933-1.038.865-.867.915-1.489 1.015-2.731a14 14 0 0 0 0-2.226c-.1-1.243-.15-1.864-1.015-2.73-.864-.867-1.554-.924-2.933-1.039zM8 2.5c-.362 0-.745.051-1.099.124-.121.025-.205.043-.273.059-.013.07-.026.157-.045.284A7 7 0 0 0 6.5 4v.028a39 39 0 0 1 3 0V4c0-.36-.035-.715-.083-1.033l-.045-.284-.274-.059A5.6 5.6 0 0 0 8 2.5m0 3q-1.103.002-2 .053v6.894q.897.051 2 .053 1.103-.002 2-.053V5.553A37 37 0 0 0 8 5.5M2.54 8.007c.055-.672.085-.95.156-1.172.144-.454.618-.907 1.072-1.044.18-.054.39-.088.732-.123v6.664c-.341-.035-.553-.069-.732-.123-.454-.137-.928-.59-1.072-1.044-.07-.222-.101-.5-.155-1.172a12.4 12.4 0 0 1 0-1.986m10.765 3.158c.07-.222.1-.501.155-1.173a12.3 12.3 0 0 0 0-1.984c-.055-.672-.085-.95-.155-1.173-.145-.454-.62-.907-1.072-1.044a3.7 3.7 0 0 0-.694-.119v6.656c.319-.034.521-.067.694-.12.453-.136.927-.59 1.072-1.043"/></svg>