<svg xmlns="http://www.w3.org/2000/svg" viewBox="0 0 16 16"><path d="M5.73 13.29a.73.73 0 0 0 .772-.736.775.775 0 0 0-.726-.765l-.047-.004c-1.845-.137-2.122-.214-2.542-.634s-.497-.698-.635-2.542a17 17 0 0 1-.05-1.274c0-.423.019-.852.05-1.273.138-1.845.215-2.122.635-2.542s.697-.498 2.542-.635c.421-.031.85-.05 1.273-.05.424 0 .853.019 1.274.05 1.845.137 2.122.215 2.542.635.29.29.417.512.513 1.23a.78.78 0 0 0 .762.687.73.73 0 0 0 .737-.812c-.118-.928-.332-1.546-.951-2.166-.876-.875-1.748-.94-3.492-1.07a19 19 0 0 0-1.385-.054c-.466 0-.932.02-1.384.054-1.744.13-2.616.195-3.492 1.07s-.94 1.747-1.07 3.491c-.033.453-.054.919-.054 1.385 0 .467.02.933.054 1.385.13 1.744.195 2.616 1.07 3.491.876.875 1.748.94 3.492 1.07z"/><path d="M7.752 5.09v2.214a.75.75 0 0 1-.219.562L6.285 9.114a.75.75 0 1 1-1.06-1.06l1.027-1.028V5.089a.75.75 0 0 1 1.5 0"/><path fill-rule="evenodd" d="M11.934 6.451q.217 0 .418.008c1.326.045 2.646.973 2.646 2.526 0 1.5-1.277 2.319-2.498 2.375a12 12 0 0 1-.566.013H10.41v.445h1.954a.759.759 0 1 1 0 1.518H10.41v.57a.759.759 0 1 1-1.517 0v-.57h-.438a.759.759 0 0 1 0-1.518h.438v-.445h-.438a.759.759 0 0 1 0-1.518h.438v-1.09c0-.34 0-.665.036-.934.04-.302.138-.641.42-.923s.621-.38.923-.42a8 8 0 0 1 .933-.037zm-.421 3.404H10.41V8.81c0-.398.002-.62.023-.776l.005-.036.036-.005c.156-.021.378-.023.777-.023h.682q.189 0 .367.006c.737.026 1.179.486 1.179 1.01 0 .432-.356.827-1.05.859q-.236.01-.496.011z"/></svg>