<svg xmlns="http://www.w3.org/2000/svg" viewBox="0 0 16 16"><path fill-rule="evenodd" d="M3.615 3.997A2.248 2.248 0 0 1 5.735 1C6.819 1 7.56 1.746 8 2.441 8.439 1.746 9.18 1 10.265 1a2.248 2.248 0 0 1 2.12 2.997h.697c.575 0 .728.506.775.981q.07.69.11 1.522H2.033q.04-.832.11-1.522c.047-.474.212-.981.779-.981zm1.372-.748c0-.413.335-.748.748-.748.34 0 .71.253 1.044.82a4 4 0 0 1 .31.679H5.735a.75.75 0 0 1-.748-.751M10.262 4H8.907a4 4 0 0 1 .314-.68c.334-.566.704-.819 1.044-.819.413 0 .748.335.748.748a.753.753 0 0 1-.751.751"/><path d="M2 8c0 1.164.059 2.17.143 3.013.134 1.339.2 2.008 1.044 2.85s1.512.909 2.848 1.04q.574.056 1.215.083L7.252 8zm6.75 6.986q.64-.026 1.215-.083c1.336-.131 2.004-.197 2.848-1.04.844-.842.91-1.511 1.044-2.85C13.941 10.17 14 9.164 14 8H8.752z"/></svg>