<svg xmlns="http://www.w3.org/2000/svg" viewBox="0 0 44 44"><path fill-rule="evenodd" d="M12.86 11.5c-1.234-2.324-.528-4.959.797-6.283 1.606-1.606 5.14-2.303 7.708.266.246.246.46.528.645.836a4.3 4.3 0 0 1 .645-.836c2.569-2.57 6.102-1.872 7.708-.266 1.325 1.324 2.03 3.96.797 6.283h2.895a1.5 1.5 0 0 1 1.5 1.5v.011c.06.57.11 1.186.166 1.865q.045.545.084 1.124H8.195q.039-.578.084-1.124c.056-.679.106-1.296.166-1.865V13a1.5 1.5 0 0 1 1.5-1.5zm6.384-3.896c.144.144.372.49.564 1.18.187.67.287 1.47.32 2.3q.009.211.012.416h-2.352a7 7 0 0 1-.563-.132c-.69-.192-1.037-.42-1.18-.564-.656-.655-.847-1.353-.823-1.98.027-.71.33-1.259.556-1.486s.776-.529 1.487-.556c.626-.024 1.324.167 1.979.822m6.988 3.896q.294-.057.563-.132c.69-.192 1.037-.42 1.18-.564.656-.655.847-1.353.823-1.98-.027-.71-.33-1.259-.556-1.486s-.776-.529-1.487-.556c-.626-.024-1.324.167-1.979.822-.144.144-.372.49-.564 1.18-.187.67-.287 1.47-.32 2.3q-.009.211-.012.416z"/><path d="M8.047 19Q8.001 20.425 8 22c0 2.713.112 5.09.28 7.127.305 3.722.458 5.583 2.853 7.965 2.396 2.383 4.147 2.517 7.648 2.784q.835.065 1.719.097V19zM21.87 40h.26zm1.63-.027q.885-.032 1.719-.097c3.501-.267 5.252-.401 7.648-2.784s2.548-4.243 2.854-7.965C35.888 27.09 36 24.713 36 22q-.001-1.575-.047-3H23.5z"/></svg>