<svg xmlns="http://www.w3.org/2000/svg" viewBox="0 0 28 28"><path fill-rule="evenodd" d="M7.327 7A3.6 3.6 0 0 1 7 5.5C7 3.611 8.473 2 10.387 2c1.743 0 2.906 1.322 3.565 2.491l.048.086.048-.086C14.707 3.322 15.87 2 17.613 2 19.527 2 21 3.611 21 5.5c0 .532-.117 1.042-.328 1.5h2.004c.552 0 .94.44 1 1q.049.446.098.959A54 54 0 0 1 24 14c0 1.94-.092 3.621-.226 5.042-.222 2.35-.332 3.525-1.822 5.011s-2.644 1.594-4.954 1.807c-.927.086-1.934.14-2.998.14s-2.071-.054-2.998-.14c-2.31-.213-3.465-.32-4.954-1.806-1.49-1.487-1.6-2.662-1.822-5.012A54 54 0 0 1 4 14c0-1.939.092-3.62.226-5.041l.046-.487L4.32 8c.06-.55.455-1 1.008-1zM9 5.5c0-.873.664-1.5 1.387-1.5.624 0 1.267.488 1.823 1.473A7 7 0 0 1 12.832 7h-2.445C9.664 7 9 6.373 9 5.5M17.613 7h-2.445c.13-.472.335-1.017.622-1.527C16.346 4.488 16.989 4 17.613 4 18.336 4 19 4.627 19 5.5S18.336 7 17.613 7M6.217 9.147 6.231 9H13v2H6.08q.055-.995.137-1.853M6.009 13Q6 13.487 6 14c0 1.876.089 3.495.217 4.855.117 1.24.187 1.89.353 2.42.31.991 1.253 1.94 2.245 2.25.519.163 1.15.23 2.371.344a31 31 0 0 0 1.814.114V13zM15 23.983a31 31 0 0 0 1.814-.114c1.22-.113 1.852-.181 2.371-.343.992-.311 1.935-1.26 2.245-2.25.166-.532.236-1.181.353-2.421A52 52 0 0 0 22 14q0-.513-.009-1H15zM21.92 11a47 47 0 0 0-.137-1.854L21.769 9H15v2z"/></svg>