<svg xmlns="http://www.w3.org/2000/svg" viewBox="0 0 24 24"><path fill-rule="evenodd" d="M7.5 9.5a4.5 4.5 0 1 1 8.718 1.573c.306.399.508.88.59 1.396.102.645.19 1.453.19 2.323v.692a3.51 3.51 0 0 1-1.498 2.88c0 .419-.026.798-.067 1.137-.172 1.43-1.375 2.404-2.812 2.485a11 11 0 0 1-1.242 0c-1.436-.081-2.64-1.056-2.811-2.485a10 10 0 0 1-.067-1.137 3.51 3.51 0 0 1-1.499-2.88v-.692c0-.87.088-1.678.19-2.323.083-.516.285-.997.59-1.396A4.5 4.5 0 0 1 7.5 9.5m3.991 10.489a9 9 0 0 0 1.018 0c.303-.017.537-.126.687-.255a.7.7 0 0 0 .252-.472c.031-.261.052-.561.052-.9l.001-1.038.85-.597a1.51 1.51 0 0 0 .648-1.243v-.692q0-.18-.006-.36c-.176-1.673-1.119-2.014-1.642-2.203-.208-.075-.35-.127-.35-.229 0-.091.141-.213.336-.383.34-.295.845-.734 1.062-1.406A2.503 2.503 0 0 0 12 7a2.5 2.5 0 0 0-2.398 3.21c.216.673.722 1.112 1.062 1.407.195.17.335.292.335.383 0 .102-.141.153-.35.229-.523.189-1.465.53-1.641 2.204q-.006.177-.006.359v.692c0 .512.252.966.648 1.243l.85.596v1.039c.001.339.022.639.053.9.024.197.111.35.252.472.15.13.384.238.686.255"/></svg>