<svg xmlns="http://www.w3.org/2000/svg" viewBox="0 0 16 16"><path fill-rule="evenodd" d="M7.554 14.987a8 8 0 0 0 .89 0c1.027-.058 1.89-.753 2.01-1.775a7 7 0 0 0 .043-.666 2.47 2.47 0 0 0 1.001-1.988v-.675c0-.611-.061-1.18-.133-1.634a2.2 2.2 0 0 0-.394-.955A3.176 3.176 0 0 0 7.998 3a3.173 3.173 0 0 0-2.97 4.294 2.2 2.2 0 0 0-.394.955A10.6 10.6 0 0 0 4.5 9.883v.675c0 .815.393 1.539 1.001 1.988q.007.363.044.666c.12 1.022.982 1.717 2.01 1.775m.085-1.498a6 6 0 0 0 .72 0 .76.76 0 0 0 .452-.165.43.43 0 0 0 .153-.286q.028-.23.033-.517l.013-.74.596-.44a.97.97 0 0 0 .392-.783v-.675q0-.108-.003-.215c-.119-1.192-.726-1.49-1.063-1.656-.135-.067-.226-.112-.226-.184 0-.066.093-.147.222-.26.44-.383.746-.8.746-1.392a1.673 1.673 0 1 0-3.349 0c0 .593.305 1.01.745 1.393.13.112.223.194.223.26 0 .071-.092.116-.226.183-.337.165-.945.464-1.064 1.656L6 9.883v.675c0 .322.154.605.393.782l.595.44.013.741q.006.286.034.517c.014.12.065.21.152.286a.76.76 0 0 0 .452.165"/></svg>