<svg xmlns="http://www.w3.org/2000/svg" viewBox="0 0 24 24"><path d="M4.016 5.54c.043-.582.065-.873.357-1.165s.583-.314 1.164-.357a6 6 0 0 1 .924 0c.581.043.872.065 1.164.357s.314.583.357 1.164a6 6 0 0 1 0 .924c-.043.581-.065.872-.357 1.164s-.583.314-1.164.357a6 6 0 0 1-.924 0c-.581-.043-.872-.065-1.164-.357s-.314-.583-.357-1.164a6 6 0 0 1 0-.924m0 6.001c.043-.582.065-.873.357-1.165s.583-.314 1.164-.357a6 6 0 0 1 .924 0c.581.043.872.065 1.164.357s.314.582.357 1.164a6 6 0 0 1 0 .924c-.043.581-.065.872-.357 1.164s-.583.314-1.164.357a6 6 0 0 1-.924 0c-.581-.043-.872-.065-1.164-.357s-.314-.583-.357-1.164a6 6 0 0 1 0-.924m.357 4.836c-.292.292-.314.582-.357 1.164a6 6 0 0 0 0 .924c.043.581.065.872.357 1.164s.583.314 1.164.357a6 6 0 0 0 .924 0c.581-.043.872-.065 1.164-.357s.314-.583.357-1.164a6 6 0 0 0 0-.924c-.043-.582-.065-.872-.357-1.164s-.583-.314-1.164-.357a6 6 0 0 0-.924 0c-.581.043-.872.065-1.164.357M16.018 5.54c.043-.582.065-.873.357-1.165s.582-.314 1.164-.357a6 6 0 0 1 .924 0c.581.043.872.065 1.164.357s.314.583.357 1.164a6 6 0 0 1 0 .924c-.043.581-.065.872-.357 1.164s-.583.314-1.164.357a6 6 0 0 1-.924 0c-.582-.043-.872-.065-1.164-.357s-.314-.583-.357-1.164a6 6 0 0 1 0-.924m.357 4.836c-.292.292-.314.582-.357 1.164a6 6 0 0 0 0 .924c.043.581.065.872.357 1.164s.582.314 1.164.357a6 6 0 0 0 .924 0c.581-.043.872-.065 1.164-.357s.314-.583.357-1.164a6 6 0 0 0 0-.924c-.043-.582-.065-.872-.357-1.164s-.583-.314-1.164-.357a6 6 0 0 0-.924 0c-.582.043-.872.065-1.164.357m-6-6c-.292.292-.314.583-.357 1.164a6 6 0 0 0 0 .924c.043.581.065.872.357 1.164s.582.314 1.164.357a6 6 0 0 0 .924 0c.581-.043.872-.065 1.164-.357s.314-.583.357-1.164a6 6 0 0 0 0-.924c-.043-.581-.065-.872-.357-1.164s-.583-.314-1.164-.357a6 6 0 0 0-.924 0c-.582.043-.872.065-1.164.357m-.357 7.165c.043-.582.065-.873.357-1.165s.582-.314 1.164-.357a6 6 0 0 1 .924 0c.581.043.872.065 1.164.357s.314.582.357 1.164a6 6 0 0 1 0 .924c-.043.581-.065.872-.357 1.164s-.583.314-1.164.357a6 6 0 0 1-.924 0c-.582-.043-.872-.065-1.164-.357s-.314-.583-.357-1.164a6 6 0 0 1 0-.924m.357 4.836c-.292.292-.314.582-.357 1.164a6 6 0 0 0 0 .924c.043.581.065.872.357 1.164s.582.314 1.164.357a6 6 0 0 0 .924 0c.581-.043.872-.065 1.164-.357s.314-.583.357-1.164a6 6 0 0 0 0-.924c-.043-.582-.065-.872-.357-1.164s-.583-.314-1.164-.357a6 6 0 0 0-.924 0c-.582.043-.872.065-1.164.357"/></svg>