<svg xmlns="http://www.w3.org/2000/svg" viewBox="0 0 16 16"><path d="M12.876 3.124c.554.554.783 1.102.91 1.875H2.214c.127-.773.356-1.321.91-1.875.875-.875 1.747-.94 3.491-1.07C7.067 2.02 7.534 2 8 2s.933.02 1.385.054c1.744.13 2.616.195 3.491 1.07"/><path fill-rule="evenodd" d="m2.054 6.615.008-.116h11.876l.008.116C13.98 7.067 14 7.534 14 8s-.02.933-.054 1.385c-.13 1.744-.195 2.616-1.07 3.491s-1.747.94-3.491 1.07C8.933 13.98 8.466 14 8 14s-.933-.02-1.385-.054c-1.744-.13-2.616-.195-3.491-1.07s-.94-1.747-1.07-3.491A19 19 0 0 1 2 8c0-.466.02-.933.054-1.385m6.568 2.128c-.942-.583-1.413-.875-1.768-.678-.354.198-.354.746-.354 1.843v.193c0 1.096 0 1.644.354 1.842.355.197.826-.095 1.768-.678.916-.567 1.374-.85 1.374-1.26s-.458-.695-1.374-1.262"/></svg>