<svg xmlns="http://www.w3.org/2000/svg" viewBox="0 0 24 24"><path d="M3.419 7c.207-.904.561-1.607 1.266-2.312 1.313-1.313 2.62-1.41 5.237-1.605.678-.05 1.377-.081 2.077-.081s1.4.03 2.077.081c2.616.195 3.924.292 5.237 1.605.705.705 1.06 1.408 1.267 2.312z"/><path fill-rule="evenodd" d="M2.999 12.002c0-.7.03-1.4.081-2.077q.036-.491.071-.925h17.696q.035.433.07.923v.001c.051.678.082 1.378.082 2.078s-.03 1.399-.081 2.077c-.195 2.616-.292 3.924-1.605 5.237s-2.62 1.41-5.237 1.605a28 28 0 0 1-2.077.081c-.7 0-1.399-.03-2.077-.081-2.616-.195-3.924-.292-5.237-1.605s-1.41-2.62-1.605-5.237A28 28 0 0 1 3 12.002M15.502 15c0-.611-.67-1.031-2.01-1.872l-.822-.514c-1.401-.879-2.102-1.318-2.636-1.022-.534.295-.534 1.122-.534 2.776v1.263c0 1.654 0 2.482.534 2.777.534.296 1.235-.144 2.637-1.022l.82-.514c1.341-.84 2.011-1.26 2.011-1.872"/></svg>