<svg xmlns="http://www.w3.org/2000/svg" viewBox="0 0 32 32"><path d="M11.649 12.5c.69 0 1.351.559 1.351 1.25 0 .69-.661 1.248-1.351 1.248H8.364C7.674 14.998 7 14.44 7 13.75s.674-1.249 1.364-1.249zm-.028 4.5c.704 0 1.379.559 1.379 1.25 0 .69-.675 1.248-1.379 1.248L9.43 19.5c-.705 0-1.43-.56-1.43-1.25 0-.691.725-1.25 1.429-1.25zM25 13.75c0-.691-.661-1.25-1.351-1.25h-3.285c-.69 0-1.364.559-1.364 1.25 0 .69.674 1.248 1.364 1.248h3.285c.69 0 1.351-.558 1.351-1.249m-1 4.501c0-.691-.675-1.25-1.379-1.25H20.43c-.704 0-1.429.559-1.429 1.25 0 .69.725 1.25 1.429 1.25l2.192-.002c.704 0 1.379-.558 1.379-1.249"/><path fill-rule="evenodd" d="M16 6c-1.938 0-3.639.078-5.1.196-2.71.217-4.065.326-5.802 2.076-1.738 1.75-1.831 3.014-2.017 5.544a30 30 0 0 0 0 4.368c.186 2.53.279 3.795 2.017 5.544 1.737 1.75 3.092 1.859 5.802 2.076 1.461.118 3.162.196 5.1.196a64 64 0 0 0 5.098-.195c2.711-.218 4.067-.327 5.805-2.077s1.83-3.015 2.016-5.546a30 30 0 0 0 0-4.364c-.185-2.53-.278-3.796-2.016-5.546s-3.094-1.859-5.805-2.077A64 64 0 0 0 16 6m-1.25 2.511c-1.358.026-2.575.09-3.65.177-1.439.115-2.155.185-2.736.362-.443.136-.87.356-1.493.983-.644.649-.854 1.065-.976 1.458-.162.523-.222 1.159-.32 2.508a27 27 0 0 0 0 4.002c.098 1.35.158 1.985.32 2.508.122.393.332.809.976 1.457.624.628 1.05.848 1.493.984.581.177 1.297.247 2.737.362a59 59 0 0 0 3.649.177zm2.5 14.978a60 60 0 0 0 3.648-.176c1.44-.116 2.156-.186 2.738-.363.443-.136.87-.356 1.493-.984.644-.648.854-1.065.976-1.458.162-.523.222-1.159.32-2.509a27 27 0 0 0 0-3.998c-.098-1.35-.158-1.986-.32-2.51-.122-.393-.332-.809-.976-1.457-.623-.628-1.05-.848-1.493-.984-.582-.177-1.298-.247-2.738-.363a59 59 0 0 0-3.648-.176z"/></svg>