<svg xmlns="http://www.w3.org/2000/svg" viewBox="0 0 32 32"><path fill-rule="evenodd" d="M14.75 6.011a62 62 0 0 0-3.85.185c-2.71.217-4.065.326-5.802 2.077-1.738 1.75-1.831 3.016-2.017 5.547a30 30 0 0 0 0 4.371c.186 2.531.279 3.796 2.017 5.547s3.092 1.86 5.802 2.077c1.138.092 2.422.16 3.85.185zm-3.351 6.493c.69 0 1.351.559 1.351 1.25 0 .69-.661 1.25-1.351 1.25H6.652c-.69 0-1.402-.56-1.402-1.25 0-.691.712-1.25 1.402-1.25zm1.351 5.752c0-.69-.661-1.25-1.351-1.25H8.3c-.69 0-1.3.56-1.3 1.25s.61 1.252 1.3 1.252l3.099-.002c.69 0 1.351-.56 1.351-1.25M17.25 26a62 62 0 0 0 3.848-.184c2.711-.218 4.067-.327 5.805-2.078s1.83-3.017 2.016-5.55a30 30 0 0 0 0-4.365c-.185-2.533-.278-3.799-2.016-5.55s-3.094-1.86-5.805-2.077a62 62 0 0 0-3.848-.185zm6.399-8.994c.69 0 1.351.56 1.351 1.25s-.661 1.25-1.351 1.25l-3.099.002c-.69 0-1.3-.561-1.3-1.252 0-.69.61-1.25 1.3-1.25zm3.101-3.252c0-.691-.661-1.25-1.351-1.25h-4.747c-.69 0-1.402.559-1.402 1.25 0 .69.712 1.25 1.402 1.25H25.4c.69 0 1.351-.56 1.351-1.25"/></svg>