<svg xmlns="http://www.w3.org/2000/svg" viewBox="0 0 16 16"><path fill-rule="evenodd" d="M8.5 13.003a35 35 0 0 0 2.716-.133c1.3-.117 1.951-.176 2.751-.972.8-.797.857-1.389.97-2.574a14 14 0 0 0 0-2.642c-.113-1.185-.17-1.777-.97-2.574s-1.45-.854-2.751-.971c-.765-.07-1.67-.121-2.716-.134zm1.75-5.75a.75.75 0 0 1 0-1.501h2.5a.75.75 0 0 1 0 1.5zm0 3.001a.75.75 0 0 1 0-1.5h1.5a.75.75 0 0 1 0 1.5zM7.5 3.003a35 35 0 0 0-2.717.134c-1.3.117-1.95.175-2.75.971-.8.797-.857 1.389-.97 2.573a14 14 0 0 0 0 2.645c.113 1.184.17 1.776.97 2.572s1.45.855 2.75.972c.765.069 1.671.12 2.717.133zm-5 3.499a.75.75 0 0 1 .75-.75h2.5a.75.75 0 0 1 0 1.5h-2.5a.75.75 0 0 1-.75-.75m1 3.002a.75.75 0 0 1 .75-.75h1.5a.75.75 0 0 1 0 1.5h-1.5a.75.75 0 0 1-.75-.75"/></svg>