<svg xmlns="http://www.w3.org/2000/svg" viewBox="0 0 16 16"><path d="M4.25 5.75a.75.75 0 0 0 0 1.5H5.5a.75.75 0 0 0 0-1.5zm.5 3a.75.75 0 0 0 0 1.5h.75a.75.75 0 0 0 0-1.5zm5-2.25c0 .414.336.75.75.75h1.25a.75.75 0 0 0 0-1.5H10.5a.75.75 0 0 0-.75.75m0 3c0 .414.336.75.75.75h.75a.75.75 0 0 0 0-1.5h-.75a.75.75 0 0 0-.75.75"/><path fill-rule="evenodd" d="M8 13a36 36 0 0 0 3.216-.136c1.3-.117 1.951-.176 2.751-.972.8-.795.857-1.387.97-2.571a14 14 0 0 0 0-2.641c-.113-1.184-.17-1.776-.97-2.572s-1.45-.854-2.751-.971A36 36 0 0 0 8 3c-1.26 0-2.332.057-3.217.137-1.3.117-1.95.175-2.75.97-.8.797-.857 1.388-.97 2.572a14 14 0 0 0 0 2.643c.113 1.183.17 1.775.97 2.57.8.796 1.45.855 2.75.972.885.08 1.958.136 3.217.136m-.75-8.493c-.893.018-1.67.064-2.332.124-.7.063-1.016.098-1.263.172-.165.05-.319.124-.564.368-.263.262-.332.41-.374.54-.067.206-.099.469-.16 1.11a12.4 12.4 0 0 0 0 2.359c.061.64.093.903.16 1.11.042.13.111.278.374.54.245.243.4.317.564.367.247.075.564.11 1.263.173.661.06 1.439.106 2.332.123zm1.5 6.986c.893-.017 1.67-.064 2.332-.123.7-.063 1.016-.098 1.263-.173.165-.05.319-.123.564-.368.263-.261.332-.41.374-.54.067-.206.1-.47.16-1.11a12.5 12.5 0 0 0 0-2.357c-.06-.641-.093-.904-.16-1.111-.042-.13-.11-.278-.373-.54-.246-.244-.4-.318-.565-.368-.247-.074-.564-.11-1.263-.172a33 33 0 0 0-2.332-.124z"/><path fill-rule="evenodd" d="M3.5 6.5a.75.75 0 0 1 .75-.75H5.5a.75.75 0 0 1 0 1.5H4.25a.75.75 0 0 1-.75-.75m.5 3a.75.75 0 0 1 .75-.75h.75a.75.75 0 0 1 0 1.5h-.75A.75.75 0 0 1 4 9.5"/></svg>