<svg xmlns="http://www.w3.org/2000/svg" viewBox="0 0 24 24"><path fill-rule="evenodd" d="M12.002 4.2c-.635-.74-1.52-1.2-2.5-1.2-1.933 0-3.5 1.79-3.5 4v.04a3 3 0 0 0-.5-.04c-1.933 0-3.5 1.79-3.5 4 0 2.151 1.486 3.906 3.35 3.996-.589 1.431-.509 3.154.713 4.545 1.667 1.897 4.217 1.77 5.935.608 1.718 1.162 4.268 1.289 5.935-.608 1.222-1.39 1.302-3.113.714-4.545 1.865-.088 3.353-1.843 3.353-3.996 0-2.21-1.567-4-3.5-4q-.255 0-.5.04V7c0-2.21-1.567-4-3.5-4-.98 0-1.865.46-2.5 1.2M9.502 9c.586 0 1.5-.636 1.5-2s-.914-2-1.5-2-1.5.636-1.5 2 .914 2 1.5 2m3.5-2c0 1.364.914 2 1.5 2s1.5-.636 1.5-2-.914-2-1.5-2-1.5.636-1.5 2m-7.5 6c.586 0 1.5-.636 1.5-2s-.914-2-1.5-2-1.5.636-1.5 2 .914 2 1.5 2m13 0c.586 0 1.5-.636 1.5-2s-.914-2-1.5-2-1.5.636-1.5 2 .914 2 1.5 2M12 11c.854 0 1.237.973 1.64 1.583.245.371.6.65.971.894.555.365 1.045.824 1.52 1.287.979.952 1.202 2.432.301 3.457-.901 1.027-2.4.998-3.473.154q-.388-.304-.843-.7a.18.18 0 0 0-.232 0q-.455.396-.843.7c-1.074.844-2.572.873-3.473-.154-.901-1.025-.678-2.505.3-3.457.476-.462.965-.921 1.52-1.287.372-.244.727-.523.972-.894.41-.621.783-1.583 1.64-1.583"/></svg>