<svg xmlns="http://www.w3.org/2000/svg" viewBox="0 0 16 16"><path d="M7.5 4.25C7.5 5.493 6.828 6.5 6 6.5c-.829 0-1.5-1.007-1.5-2.25S5.17 2 6 2c.828 0 1.5 1.007 1.5 2.25M4 6.75C4 7.993 3.328 9 2.5 9S1 7.993 1 6.75 1.672 4.5 2.5 4.5 4 5.507 4 6.75m6.001-.25c.829 0 1.501-1.007 1.501-2.25S10.83 2 10.001 2 8.5 3.007 8.5 4.25s.672 2.25 1.501 2.25m4.996.25c0 1.243-.67 2.25-1.498 2.25S12 7.993 12 6.75s.67-2.25 1.499-2.25c.827 0 1.498 1.007 1.498 2.25m-6.086.867c.355.586.97.928 1.588 1.271 1.038.577 2 1.29 2 2.612A2.5 2.5 0 0 1 8 13a2.5 2.5 0 0 1-4.5-1.5c.001-1.323.964-2.035 2.001-2.612.619-.343 1.234-.685 1.588-1.271C7.29 7.284 7.61 7 8 7s.71.284.911.617"/></svg>