<svg xmlns="http://www.w3.org/2000/svg" viewBox="0 0 44 44"><path d="M20.5 12c0 3.314-1.679 6-3.75 6S13 15.314 13 12s1.679-6 3.75-6 3.75 2.686 3.75 6m-9 7.5c0 3.314-1.679 6-3.75 6S4 22.814 4 19.5s1.679-6 3.75-6 3.75 2.686 3.75 6M27.25 18c2.071 0 3.75-2.686 3.75-6s-1.679-6-3.75-6-3.75 2.686-3.75 6 1.679 6 3.75 6M40 19.56c0 3.347-1.679 6.06-3.75 6.06s-3.75-2.713-3.75-6.06 1.679-6.06 3.75-6.06S40 16.213 40 19.56m-15.551 1.162c.955 1.787 2.656 2.806 4.371 3.833 1.123.673 2.245 1.351 3.174 2.248A6.5 6.5 0 1 1 22 34.965a6.5 6.5 0 1 1-9.993-8.162c.928-.897 2.05-1.575 3.173-2.248 1.715-1.027 3.417-2.047 4.372-3.834C20.055 19.78 20.932 19 22 19s1.945.78 2.449 1.721"/></svg>