<svg xmlns="http://www.w3.org/2000/svg" viewBox="0 0 16 16"><path fill-rule="evenodd" d="M6.25 2c.681 0 1.3.3 1.75.786A2.38 2.38 0 0 1 9.75 2c1.309 0 2.382 1.106 2.491 2.515A2 2 0 0 1 12.5 4.5c1.38 0 2.5 1.231 2.5 2.75 0 1.388-.935 2.537-2.15 2.723.307.967.188 2.08-.627 2.99-1.196 1.335-2.993 1.257-4.223.465-1.23.792-3.028.87-4.223-.465-.816-.91-.935-2.023-.627-2.99C1.935 9.786 1 8.638 1 7.25 1 5.73 2.12 4.5 3.5 4.5q.131 0 .259.015C3.868 3.106 4.941 2 6.25 2m1 2.75c0 .828-.579 1.25-1 1.25s-1-.422-1-1.25.579-1.25 1-1.25 1 .422 1 1.25M9.75 6c-.42 0-1-.422-1-1.25s.58-1.25 1-1.25 1 .422 1 1.25S10.171 6 9.75 6M3.5 8.5c.42 0 1-.422 1-1.25S3.92 6 3.5 6s-1 .422-1 1.25.58 1.25 1 1.25m9 0c.421 0 1-.422 1-1.25S12.921 6 12.5 6s-1 .422-1 1.25.579 1.25 1 1.25M8 7c.594 0 .866.668 1.151 1.091.17.253.416.442.672.607.393.252.74.57 1.075.892.68.65.835 1.671.207 2.372-.635.71-1.677.688-2.431.107q-.273-.21-.593-.483a.125.125 0 0 0-.163 0q-.32.274-.592.483c-.754.581-1.797.602-2.432-.107-.628-.7-.473-1.722.207-2.372.337-.322.684-.64 1.076-.892.257-.165.502-.355.672-.608C7.137 7.664 7.405 7 8 7"/></svg>