<svg xmlns="http://www.w3.org/2000/svg" viewBox="0 0 24 24"><path d="M17.716 6.725A1 1 0 0 0 18 6.004a1 1 0 0 0-.32-.726 31 31 0 0 0-.97-.834C14.736 2.816 13.797 2.001 12.003 2s-2.734.812-4.71 2.438q-.489.4-.973.833l.004-.004-.028.025.024-.021a1 1 0 0 0-.32.733 1 1 0 0 0 .284.714l.001.001a.98.98 0 0 0 1.371.04l.03-.027q.434-.385.877-.75c2.08-1.71 2.475-1.982 3.439-1.981.963 0 1.359.273 3.436 1.986.293.243.587.493.874.75l.03.027a.98.98 0 0 0 1.373-.039"/><path d="M14.007 6.786C13.239 6.25 12.742 6 11.998 6c-.743 0-1.239.248-2.005.78-.446.31-1 .6-1 1.22a1 1 0 0 0 1.623.782.2.2 0 0 0 .044-.024c.58-.414.844-.579 1.056-.686A.5.5 0 0 1 11.998 8c.104 0 .154.01.281.073.214.108.479.274 1.06.69a.2.2 0 0 0 .06.03A1 1 0 0 0 15.007 8c0-.623-.553-.903-1-1.214"/><path fill-rule="evenodd" d="M15.96 10.986c.771.77.826 1.372.935 2.577.063.693.105 1.505.105 2.437s-.042 1.745-.105 2.438c-.11 1.204-.164 1.807-.936 2.576-.771.769-1.362.82-2.543.924a16.3 16.3 0 0 1-2.831 0c-1.182-.104-1.773-.155-2.544-.924-.772-.77-.827-1.372-.936-2.576A27 27 0 0 1 7 16c0-.931.042-1.744.105-2.437.11-1.205.164-1.808.936-2.577.771-.769 1.363-.82 2.545-.924a16.3 16.3 0 0 1 2.829 0c1.182.104 1.773.155 2.544.924M12 16.25a1.25 1.25 0 1 0 0-2.5 1.25 1.25 0 0 0 0 2.5"/></svg>