<svg xmlns="http://www.w3.org/2000/svg" viewBox="0 0 16 16"><path d="M11.781 4.199a.726.726 0 0 0-.02-1.056q-.29-.259-.583-.501C9.86 1.55 9.202 1.004 8.002 1.004c-1.2-.001-1.86.544-3.179 1.634q-.293.24-.584.501a.726.726 0 0 0-.02 1.056.78.78 0 0 0 1.065.022q.245-.217.495-.423c1.396-1.154 1.647-1.29 2.222-1.29s.826.138 2.22 1.293q.25.206.494.423a.78.78 0 0 0 1.066-.021M8 11.398a.898.898 0 1 0 0-1.796.898.898 0 0 0 0 1.796"/><path fill-rule="evenodd" d="M4 11c0 .64.036 1.196.089 1.666.085.76.128 1.14.631 1.638.504.498.914.538 1.734.619.46.045.984.077 1.546.077a16 16 0 0 0 1.546-.077c.82-.081 1.23-.121 1.734-.619.504-.497.546-.877.631-1.637.053-.471.089-1.027.089-1.667s-.036-1.196-.089-1.666c-.085-.76-.127-1.141-.631-1.638-.505-.498-.914-.538-1.734-.619A16 16 0 0 0 8 7c-.562 0-1.085.032-1.546.077-.82.08-1.23.121-1.734.619-.504.497-.546.877-.631 1.638C4.036 9.804 4 10.36 4 11m1.58 1.5c-.047-.416-.08-.916-.08-1.5a13.5 13.5 0 0 1 .134-1.938c.016-.104.03-.15.036-.17.005-.013.006-.016.01-.02a.7.7 0 0 1 .094-.109.5.5 0 0 1 .1-.084c.005-.003.012-.008.036-.015.031-.01.09-.024.209-.041.124-.018.269-.032.482-.053.42-.041.892-.07 1.399-.07s.98.029 1.399.07c.213.02.358.035.482.053.118.017.178.031.21.04.023.008.03.012.035.016a.6.6 0 0 1 .1.084.7.7 0 0 1 .094.108l.01.02c.006.02.02.067.036.17A13.5 13.5 0 0 1 10.5 11a13.5 13.5 0 0 1-.134 1.94c-.016.103-.03.15-.036.17-.005.012-.006.015-.01.02a.7.7 0 0 1-.094.108.6.6 0 0 1-.1.084c-.005.003-.012.008-.036.015-.03.01-.09.024-.209.04a12 12 0 0 1-.482.054c-.419.041-.892.07-1.399.07s-.98-.029-1.4-.07a12 12 0 0 1-.481-.053 1.4 1.4 0 0 1-.21-.041c-.023-.007-.03-.012-.035-.015a.6.6 0 0 1-.1-.084.7.7 0 0 1-.094-.108l-.01-.02a1 1 0 0 1-.036-.17 12 12 0 0 1-.055-.44"/><path d="M7.998 3.752c.69 0 1.06.316 1.76.945A.75.75 0 0 1 9.25 6c-.38 0-.62-.31-.889-.533-.325-.27-.402-.272-.727-.002-.269.224-.504.535-.885.535a.75.75 0 0 1-.505-1.305c.697-.626 1.062-.943 1.753-.943"/></svg>