<svg xmlns="http://www.w3.org/2000/svg" viewBox="0 0 24 24"><path fill-rule="evenodd" d="M3.081 9.923c.195-2.616.292-3.924 1.605-5.237s2.62-1.41 5.237-1.605C10.6 3.031 11.3 3 12 3s1.399.03 2.077.081c2.616.195 3.924.292 5.237 1.605s1.41 2.62 1.605 5.237C20.969 10.6 21 11.3 21 12s-.03 1.399-.081 2.077c-.195 2.616-.292 3.924-1.605 5.237s-2.62 1.41-5.237 1.605C13.4 20.969 12.7 21 12 21s-1.399-.03-2.077-.081c-2.616-.195-3.924-.292-5.237-1.605s-1.41-2.62-1.605-5.237A28 28 0 0 1 3 12c0-.7.03-1.399.081-2.077m2.088 5.161c.163 1.764.338 2.222.931 2.816.706.706 1.22.82 3.971 1.024.637.048 1.287.076 1.929.076s1.292-.028 1.929-.076c2.75-.204 3.265-.318 3.97-1.024.475-.475.682-.862.83-1.9-1.39-.24-2.493-1.144-3-1.685a1 1 0 0 0-1.459 0C13.578 15.054 12.658 16 11 16c-1.66 0-2.579-.947-3.271-1.685a1 1 0 0 0-1.459 0c-.25.267-.602.548-1.1.77M9 7.25a2.25 2.25 0 1 1 0 4.5 2.25 2.25 0 0 1 0-4.5"/></svg>