<svg xmlns="http://www.w3.org/2000/svg" viewBox="0 0 16 16"><path fill-rule="evenodd" d="M2.054 6.615c.13-1.744.195-2.616 1.07-3.491s1.747-.94 3.491-1.07C7.067 2.02 7.534 2 8 2s.933.02 1.385.054c1.744.13 2.616.195 3.491 1.07s.94 1.747 1.07 3.491C13.98 7.067 14 7.534 14 8s-.02.933-.054 1.385c-.13 1.744-.195 2.616-1.07 3.491s-1.747.94-3.491 1.07C8.933 13.98 8.466 14 8 14s-.933-.02-1.385-.054c-1.744-.13-2.616-.195-3.491-1.07s-.94-1.747-1.07-3.491A19 19 0 0 1 2 8c0-.466.02-.933.054-1.385m1.534 3.14c.117 1.417.216 1.68.597 2.06.42.42.697.498 2.542.635.42.032.85.05 1.273.05s.852-.018 1.273-.05c1.845-.137 2.122-.214 2.542-.635.317-.317.44-.552.539-1.44-.86-.262-1.544-.873-1.896-1.249a.4.4 0 0 0-.583 0l-.125.135C9.262 9.79 8.61 10.5 7.5 10.5s-1.762-.71-2.25-1.24l-.125-.134a.4.4 0 0 0-.584 0 2.55 2.55 0 0 1-.953.63M6.5 5a1.5 1.5 0 1 1 0 3 1.5 1.5 0 0 1 0-3"/></svg>