<svg xmlns="http://www.w3.org/2000/svg" viewBox="0 0 16 16"><path fill-rule="evenodd" d="M9.634 13.398a1.25 1.25 0 0 1-.527.486C8.863 14 8.575 14 8 14s-.863 0-1.107-.116c-.212-.1-.41-.283-.527-.486-.134-.234-.156-.508-.2-1.056l-.042-.592H5.95A1.95 1.95 0 0 1 4 9.8v-.3a.75.75 0 0 1 1.5 0v.3c0 .248.201.45.45.45h.094a57 57 0 0 1-.03-3.5H5.55A2.05 2.05 0 0 1 3.5 4.7v-.956a.75.75 0 1 1 1.5 0V4.7c0 .304.246.55.55.55H6l.066.003a54 54 0 0 1 .1-1.595c.044-.548.066-.822.2-1.056.117-.204.315-.386.527-.487C7.137 2 7.425 2 8 2s.863 0 1.107.115c.212.101.41.283.527.487.134.234.156.508.2 1.056C9.916 4.711 10 6.212 10 8v.001h.45a.55.55 0 0 0 .55-.55V5.236a.75.75 0 0 1 1.5 0v2.215a2.05 2.05 0 0 1-2.05 2.05h-.47a54 54 0 0 1-.147 2.84c-.043.549-.065.823-.2 1.057m-1.972-1.174A54 54 0 0 1 7.5 8a54 54 0 0 1 .185-4.499 29 29 0 0 1 .63 0l.023.275A55 55 0 0 1 8.5 8a54 54 0 0 1-.185 4.499L8 12.5l-.315-.001z"/></svg>