<svg xmlns="http://www.w3.org/2000/svg" viewBox="0 0 24 24"><path d="M8.024 4.514c.648 0 .944.239.944.807v.25c0 .667-.66.97-1.438 1.33-1.125.518-2.5 1.151-2.5 3.155V11h5.907V9.361H7.159c.09-.647.775-.975 1.537-1.34 1.047-.502 2.24-1.075 2.24-2.643C10.937 3.638 9.902 3 8.025 3c-1.764 0-2.88.637-2.96 2.504h1.958c.069-.751.33-.99 1.002-.99"/><path fill-rule="evenodd" d="M19.214 7.11c0 2.778-1.26 3.88-3.846 3.88h-2.869V3h2.869c2.587 0 3.846 1.31 3.846 4.11m-4.836 2.295h.99c1.316 0 1.912-.495 1.912-1.856V6.66c0-1.293-.596-2.074-1.912-2.074h-.99z"/><path d="M4.853 16.288a7 7 0 0 0-.194.212h14.682a7 7 0 0 0-.194-.212 9 9 0 0 0-1.113-.972 10 10 0 0 0-.552-.387c-.47-.296-.622-.935-.34-1.427a.974.974 0 0 1 1.362-.356q.35.226.682.477c.386.289.897.705 1.363 1.193q.247.261.462.524l.072.088c.438.53.917 1.11.917 2.072 0 .961-.479 1.541-.917 2.072l-.072.088a10 10 0 0 1-.462.524c-.466.488-.977.904-1.363 1.193q-.334.25-.682.477a.974.974 0 0 1-1.363-.356c-.281-.492-.129-1.131.34-1.427a10 10 0 0 0 .553-.387 9 9 0 0 0 1.113-.972q.098-.103.194-.212H4.659q.096.11.194.212c.36.378.776.72 1.113.972q.27.203.553.387c.469.296.621.935.34 1.427a.974.974 0 0 1-1.363.356q-.35-.226-.682-.477a11 11 0 0 1-1.363-1.193 10 10 0 0 1-.462-.524l-.072-.088C2.479 19.042 2 18.462 2 17.5c0-.961.479-1.541.917-2.072l.072-.088q.215-.263.462-.524c.466-.488.977-.904 1.363-1.193q.334-.25.682-.477a.974.974 0 0 1 1.363.356c.281.492.129 1.131-.34 1.427a10 10 0 0 0-.553.387 9 9 0 0 0-1.113.972"/></svg>