<svg xmlns="http://www.w3.org/2000/svg" viewBox="0 0 32 32"><path d="M10.554 5.986c.879 0 1.28.314 1.28 1.06v.33c0 .874-.894 1.272-1.95 1.744C8.362 9.8 6.5 10.63 6.5 13.26v1.24h8v-2.15H9.382c.124-.85 1.05-1.28 2.082-1.76 1.419-.659 3.036-1.41 3.036-3.468C14.5 4.836 13.097 4 10.554 4c-2.39 0-3.9.836-4.008 3.286h2.651c.093-.986.448-1.3 1.357-1.3"/><path fill-rule="evenodd" d="M25.824 9.4c0 3.652-1.656 5.1-5.055 5.1H17V4h3.769c3.4 0 5.055 1.72 5.055 5.4m-6.356 3.016h1.301c1.73 0 2.513-.65 2.513-2.439V8.81c0-1.7-.784-2.726-2.513-2.726h-1.3z"/><path d="M8.893 19.822a1.25 1.25 0 0 0-1.286-2.144 16 16 0 0 0-2.683 2.036c-.467.45-.929.968-1.281 1.532C3.296 21.8 3 22.489 3 23.25c0 .762.296 1.45.643 2.005.352.564.814 1.082 1.281 1.53a16 16 0 0 0 2.683 2.037 1.25 1.25 0 0 0 1.286-2.144 13.5 13.5 0 0 1-2.237-1.695 8 8 0 0 1-.463-.483h19.613q-.208.238-.463.483c-.76.73-1.677 1.36-2.237 1.695a1.25 1.25 0 0 0 1.286 2.144c.667-.4 1.749-1.14 2.683-2.036.467-.449.93-.967 1.282-1.531.347-.556.642-1.243.642-2.005s-.295-1.449-.642-2.004c-.353-.564-.815-1.083-1.282-1.532a16 16 0 0 0-2.683-2.036 1.25 1.25 0 1 0-1.286 2.144c.56.336 1.477.966 2.237 1.696q.255.244.463.482H6.194q.208-.238.462-.482c.76-.73 1.677-1.36 2.237-1.696"/></svg>