<svg xmlns="http://www.w3.org/2000/svg" viewBox="0 0 32 32"><path d="M8.53 25H5.25a1.25 1.25 0 1 1 0-2.5h3.01a68 68 0 0 1-.175-2.667H5.25a1.25 1.25 0 0 1 0-2.5h2.758a88 88 0 0 1 0-2.666H5.25a1.25 1.25 0 1 1 0-2.5h2.835c.045-.98.106-1.869.174-2.667H5.25a1.25 1.25 0 1 1 0-2.5h3.28c.146-1.008.364-1.664 1.042-2.384.894-.949 1.635-1.076 3.118-1.33A19.7 19.7 0 0 1 15.998 3c1.214 0 2.335.12 3.309.286 1.482.254 2.223.381 3.117 1.33.679.72.896 1.376 1.043 2.384h3.282a1.25 1.25 0 1 1 0 2.5h-3.012q.104 1.197.175 2.667h2.837a1.25 1.25 0 0 1 0 2.5h-2.761a87 87 0 0 1 0 2.666h2.761a1.25 1.25 0 1 1 0 2.5h-2.837q-.071 1.47-.175 2.667h3.012a1.25 1.25 0 1 1 0 2.5h-3.282c-.147 1.007-.364 1.664-1.042 2.383-.895.95-1.635 1.076-3.117 1.33-.974.167-2.096.287-3.31.287s-2.336-.12-3.31-.287c-1.482-.254-2.222-.38-3.117-1.33-.678-.72-.895-1.376-1.042-2.383"/></svg>