<svg xmlns="http://www.w3.org/2000/svg" viewBox="0 0 17 17"><path fill-rule="evenodd" d="M4.254 9.207a54 54 0 0 1 0-1.416H2.922a.797.797 0 1 1 0-1.594H4.3q.037-.776.088-1.416H2.922a.797.797 0 1 1 0-1.594h1.634c.081-.496.214-.843.569-1.223.512-.548.918-.618 1.73-.758A9.7 9.7 0 0 1 8.5 1.062c.598 0 1.153.06 1.643.144.813.14 1.22.21 1.73.758.356.38.489.727.57 1.223h1.639a.797.797 0 0 1 0 1.594H12.61q.052.64.088 1.416h1.383a.797.797 0 0 1 0 1.594h-1.337a53 53 0 0 1 0 1.416h1.337a.797.797 0 0 1 0 1.594h-1.383q-.036.776-.088 1.416h1.47a.797.797 0 0 1 0 1.594h-1.638c-.081.496-.214.842-.569 1.222-.512.548-.918.618-1.73.758a9.7 9.7 0 0 1-1.644.144 9.7 9.7 0 0 1-1.644-.144c-.812-.14-1.219-.21-1.73-.758-.355-.38-.488-.726-.569-1.222H2.922a.797.797 0 1 1 0-1.594h1.466a42 42 0 0 1-.088-1.416H2.922a.797.797 0 1 1 0-1.594zM5.843 8.5c0 1.877.098 3.342.207 4.388.025.247.044.425.065.577.021.149.04.235.056.29.014.048.025.07.032.083.009.014.03.048.086.108a1 1 0 0 0 .12.112.2.2 0 0 0 .044.022c.03.012.085.03.2.055.12.026.26.05.473.087.414.072.879.12 1.373.12s.959-.048 1.373-.12c.212-.037.353-.061.473-.087.114-.025.17-.043.2-.055a.2.2 0 0 0 .043-.022 1 1 0 0 0 .12-.112.6.6 0 0 0 .086-.108.4.4 0 0 0 .033-.083 2 2 0 0 0 .056-.29c.021-.152.04-.33.065-.577.109-1.045.207-2.51.207-4.388 0-1.877-.098-3.343-.207-4.388a17 17 0 0 0-.066-.578 2 2 0 0 0-.055-.29.4.4 0 0 0-.033-.082.6.6 0 0 0-.085-.11 1 1 0 0 0-.12-.11.2.2 0 0 0-.045-.023 1.4 1.4 0 0 0-.199-.054c-.12-.026-.261-.051-.474-.088a8 8 0 0 0-1.372-.12c-.494 0-.958.049-1.372.12a12 12 0 0 0-.474.088 1.4 1.4 0 0 0-.2.054.2.2 0 0 0-.043.022 1 1 0 0 0-.12.112.6.6 0 0 0-.087.109.4.4 0 0 0-.032.083 2 2 0 0 0-.056.29c-.021.152-.04.33-.065.577A43 43 0 0 0 5.843 8.5"/></svg>