<svg xmlns="http://www.w3.org/2000/svg" viewBox="0 0 32 32"><path fill-rule="evenodd" d="M8.008 17.333a88 88 0 0 1 0-2.666H5.25a1.25 1.25 0 1 1 0-2.5h2.835c.045-.98.106-1.869.174-2.667H5.25a1.25 1.25 0 1 1 0-2.5h3.28c.146-1.008.364-1.664 1.042-2.384.894-.949 1.635-1.076 3.118-1.33A19.7 19.7 0 0 1 15.998 3c1.214 0 2.335.12 3.309.286 1.482.254 2.223.381 3.117 1.33.679.72.896 1.376 1.043 2.384h3.282a1.25 1.25 0 1 1 0 2.5h-3.012q.104 1.197.175 2.667h2.837a1.25 1.25 0 0 1 0 2.5h-2.761a87 87 0 0 1 0 2.666h2.761a1.25 1.25 0 1 1 0 2.5h-2.837q-.071 1.47-.175 2.667h3.012a1.25 1.25 0 1 1 0 2.5h-3.282c-.147 1.007-.364 1.664-1.042 2.383-.895.95-1.635 1.076-3.117 1.33-.974.167-2.096.287-3.31.287s-2.336-.12-3.31-.287c-1.482-.254-2.222-.38-3.117-1.33-.678-.72-.895-1.376-1.042-2.383H5.25a1.25 1.25 0 1 1 0-2.5h3.01a68 68 0 0 1-.175-2.667H5.25a1.25 1.25 0 0 1 0-2.5zM10.498 16c0 3.26.182 5.811.385 7.64.101.913.152 1.296.235 1.578.045.155.09.258.273.45.215.229.312.268.402.302.21.08.502.14 1.317.28.857.146 1.837.25 2.888.25s2.03-.104 2.888-.25c.815-.14 1.107-.2 1.317-.28.09-.034.187-.073.402-.301.182-.194.228-.296.273-.451.083-.282.134-.665.235-1.578.203-1.829.385-4.38.385-7.64s-.182-5.81-.385-7.64c-.1-.913-.152-1.296-.235-1.578-.045-.155-.09-.258-.273-.451-.215-.228-.312-.268-.402-.302-.21-.08-.503-.139-1.318-.279a17 17 0 0 0-2.887-.25c-1.05 0-2.03.104-2.886.25-.816.14-1.108.2-1.319.28-.09.034-.187.073-.402.3-.182.194-.228.297-.273.452-.083.282-.134.665-.235 1.579-.203 1.828-.385 4.379-.385 7.639"/></svg>