<svg xmlns="http://www.w3.org/2000/svg" viewBox="0 0 16 16"><path fill-rule="evenodd" d="M7.25 2.969A1 1 0 0 1 7.5 1h1a1 1 0 0 1 .25 1.969v1.048a13 13 0 0 1 2.48.342C12.368 4.636 13 5.716 13 6.887v4.558c0 1.372-1.178 2.446-2.547 2.347-.933-.068-1.897-.126-2.453-.126-.557 0-1.52.058-2.454.126-1.368.1-2.546-.975-2.546-2.347V6.887c0-1.17.632-2.251 1.77-2.528a13 13 0 0 1 2.48-.342zm.13 4.572a.875.875 0 1 1-1.75 0 .875.875 0 0 1 1.75 0m2.99 0a.875.875 0 1 1-1.75 0 .875.875 0 0 1 1.75 0m-4.429 2.68a.625.625 0 0 0 .28.838l.003.002.004.002.01.005.138.06c.088.034.211.079.365.123a4.6 4.6 0 0 0 2.883-.124l.138-.06.01-.005.004-.002h.002l.002-.001a.625.625 0 0 0-.556-1.12l-.009.004-.055.024a3 3 0 0 1-.244.082 3.4 3.4 0 0 1-.916.126c-.381 0-.698-.064-.916-.126a3 3 0 0 1-.3-.106l-.008-.004a.625.625 0 0 0-.835.281"/><path d="M1 7.428C1 6.86 1.46 6.4 2.029 6.4c.094 0 .171.077.171.171v3.957a.17.17 0 0 1-.171.172C1.46 10.7 1 10.24 1 9.67zm14 0c0-.568-.46-1.028-1.029-1.028a.17.17 0 0 0-.171.171v3.957c0 .095.077.172.171.172.569 0 1.029-.46 1.029-1.029z"/></svg>