<svg xmlns="http://www.w3.org/2000/svg" viewBox="0 0 16 16"><path fill-rule="evenodd" d="M3.615 3.997A2.248 2.248 0 0 1 5.735 1C6.819 1 7.56 1.746 8 2.441 8.439 1.746 9.18 1 10.265 1a2.248 2.248 0 0 1 2.12 2.997h.697c.575 0 .728.506.775.981.085.845.143 1.852.143 3.017a31 31 0 0 1-.143 3.018c-.134 1.339-.2 2.008-1.044 2.85s-1.512.909-2.848 1.04A20 20 0 0 1 8 15a20 20 0 0 1-1.965-.097c-1.336-.131-2.004-.197-2.848-1.04-.844-.842-.91-1.511-1.044-2.85A30 30 0 0 1 2 7.995c0-1.165.059-2.172.143-3.017.047-.474.212-.981.779-.981zm1.372-.748c0-.413.335-.748.748-.748.34 0 .71.253 1.044.82a4 4 0 0 1 .31.679H5.735a.75.75 0 0 1-.748-.751M10.262 4H8.907a4 4 0 0 1 .314-.68c.334-.566.704-.819 1.044-.819.413 0 .748.335.748.748a.753.753 0 0 1-.751.751M3.515 7q.027-.819.086-1.5H7.25V7zm-.011 1.5c.014.902.064 1.69.131 2.364.072.718.112 1.048.194 1.308.144.457.59.903 1.047 1.046.26.082.589.12 1.305.19q.508.052 1.069.075V8.5zm5.246 4.983q.56-.024 1.069-.074c.716-.07 1.045-.11 1.305-.191.457-.143.903-.589 1.047-1.045.082-.261.122-.591.194-1.309.067-.673.117-1.462.131-2.364H8.75zM12.485 7a28 28 0 0 0-.086-1.5H8.75V7z"/></svg>