<svg xmlns="http://www.w3.org/2000/svg" viewBox="0 0 44 44"><path fill-rule="evenodd" d="M13.657 5.217c-1.325 1.324-2.03 3.96-.797 6.283H9.945a1.5 1.5 0 0 0-1.5 1.5v.01c-.06.57-.11 1.187-.166 1.866A87 87 0 0 0 8 22c0 2.713.112 5.09.28 7.127.305 3.722.458 5.583 2.853 7.965 2.396 2.383 4.147 2.517 7.648 2.784a42 42 0 0 0 6.438 0c3.501-.267 5.252-.401 7.648-2.784s2.548-4.243 2.854-7.965C35.888 27.09 36 24.713 36 22s-.112-5.088-.279-7.124c-.056-.679-.106-1.296-.166-1.865V13a1.5 1.5 0 0 0-1.5-1.5H31.16c1.234-2.324.527-4.959-.797-6.283-1.606-1.606-5.14-2.303-7.708.266a4.3 4.3 0 0 0-.645.836 4.3 4.3 0 0 0-.645-.836c-2.569-2.57-6.102-1.872-7.708-.266m6.151 3.568c-.192-.69-.42-1.037-.564-1.181-.655-.655-1.353-.846-1.979-.822-.71.027-1.26.329-1.487.556s-.529.776-.556 1.487c-.024.626.167 1.324.822 1.979.144.144.49.372 1.18.564q.27.075.564.132h2.352a17 17 0 0 0-.012-.415c-.033-.831-.133-1.632-.32-2.3m6.987 2.583q-.269.075-.563.132H23.88q.003-.205.012-.415c.033-.831.133-1.632.32-2.3.192-.69.42-1.037.564-1.181.655-.655 1.353-.846 1.979-.822.71.027 1.26.329 1.487.556s.529.776.556 1.487c.024.626-.167 1.324-.822 1.979-.144.144-.49.372-1.18.564M23.5 14.5h9.18l.051.62a77 77 0 0 1 .157 2.38H23.5zm-3 0h-9.18l-.051.621a77 77 0 0 0-.158 2.379H20.5zm-9.488 6Q11 21.23 11 22c0 2.63.108 4.925.27 6.881.16 1.962.26 3 .521 3.853.211.69.557 1.335 1.458 2.231.923.918 1.555 1.252 2.183 1.447.785.244 1.726.331 3.578.473q.725.056 1.49.086V20.5zM23.5 36.97q.765-.029 1.49-.085c1.852-.142 2.793-.23 3.578-.473.628-.195 1.26-.529 2.183-1.447.901-.896 1.247-1.541 1.458-2.23.261-.854.36-1.892.522-3.854.16-1.956.269-4.25.269-6.88q0-.77-.012-1.501H23.5z"/></svg>