<svg xmlns="http://www.w3.org/2000/svg" viewBox="0 0 24 24"><path fill-rule="evenodd" d="M6 5c0-1.652 1.333-3 2.99-3 1.441 0 2.427.995 3.01 1.92.583-.925 1.569-1.92 3.01-1.92A2.995 2.995 0 0 1 18 5c0 .35-.06.687-.17 1h.908a1 1 0 0 1 .994.887c.036.322.067.672.1 1.059q.045.502.078 1.054H4.09q.034-.553.078-1.054c.033-.387.064-.737.1-1.06h.002a1 1 0 0 1 .993-.881h.909A3 3 0 0 1 6 5m2 0c0-.557.448-1 .99-1 .447 0 .937.334 1.382 1.092.177.301.314.617.414.908H8.989A.995.995 0 0 1 8 5m7.01-1c.542 0 .99.443.99 1s-.448 1-.99 1h-1.796c.1-.291.237-.607.414-.908.445-.758.935-1.092 1.383-1.092"/><path d="M4.01 11Q4 11.486 4 12c0 1.55.068 2.903.168 4.056.175 2.024.263 3.036 1.557 4.325s2.264 1.37 4.205 1.532c.274.023.686.043 1.07.057V11zm7.96 11h.06zm1.03-.03c.384-.014.796-.034 1.07-.056 1.94-.162 2.911-.243 4.205-1.533 1.294-1.289 1.382-2.301 1.557-4.325.1-1.153.168-2.506.168-4.056q0-.514-.01-1H13z"/></svg>