<svg xmlns="http://www.w3.org/2000/svg" viewBox="0 0 28 28"><path fill-rule="evenodd" d="M7 5.5c0 .532.117 1.042.327 1.5h-2c-.552 0-.947.45-1.007 1l-.048.472-.046.487q-.047.5-.087 1.041h19.722a48 48 0 0 0-.185-2c-.06-.56-.448-1-1-1h-2.003c.21-.458.327-.968.327-1.5C21 3.611 19.527 2 17.613 2c-1.743 0-2.906 1.322-3.565 2.491L14 4.577l-.048-.086C13.293 3.322 12.13 2 10.387 2 8.473 2 7 3.611 7 5.5m2 0c0-.873.664-1.5 1.387-1.5.624 0 1.267.488 1.823 1.473A7 7 0 0 1 12.832 7h-2.445C9.664 7 9 6.373 9 5.5M17.613 7h-2.445a7 7 0 0 1 .622-1.527C16.346 4.488 16.989 4 17.613 4 18.336 4 19 4.627 19 5.5S18.336 7 17.613 7"/><path d="M23.966 12H15v13.984a33 33 0 0 0 1.998-.124c2.31-.213 3.465-.32 4.954-1.806 1.49-1.487 1.6-2.662 1.822-5.012.134-1.42.226-3.103.226-5.042q0-1.05-.034-2M13 25.984V12H4.034Q4 12.95 4 14c0 1.94.092 3.621.226 5.042.222 2.35.332 3.525 1.822 5.011s2.644 1.594 4.954 1.807c.631.058 1.3.102 1.998.124"/></svg>