<svg xmlns="http://www.w3.org/2000/svg" viewBox="0 0 24 24"><path fill-rule="evenodd" d="M8.99 2A2.995 2.995 0 0 0 6 5c0 .352.06.69.172 1.005h-.91a1 1 0 0 0-.992.882h-.002A47 47 0 0 0 4 12c0 1.55.068 2.902.168 4.055.175 2.024.263 3.036 1.557 4.326s2.264 1.37 4.205 1.532a25 25 0 0 0 4.14 0c1.94-.162 2.911-.243 4.205-1.532s1.382-2.302 1.557-4.326c.1-1.153.168-2.506.168-4.056a47 47 0 0 0-.268-5.113A1 1 0 0 0 18.738 6h-.908c.11-.313.17-.65.17-1 0-1.652-1.333-3-2.99-3-1.441 0-2.427.996-3.01 1.92C11.417 2.997 10.431 2 8.99 2M8 5c0-.557.448-1 .99-1 .447 0 .937.334 1.382 1.092.177.302.314.617.414.908H8.989A.995.995 0 0 1 8 5m3 3.003-4.83.002-.01.114q-.076.86-.12 1.881H11zM6 12c0 1.492.065 2.787.16 3.883.094 1.078.149 1.601.278 2.022.235.76.981 1.519 1.742 1.756.394.123.879.173 1.916.26q.439.037.904.057V12zm7 7.978q.465-.02.904-.058c1.037-.086 1.523-.136 1.916-.259.76-.237 1.507-.996 1.742-1.756.13-.42.184-.944.278-2.022.095-1.096.16-2.39.16-3.883h-5zM17.96 10a42 42 0 0 0-.12-1.88L17.83 8 13 8.002V10zm-2.95-6c.542 0 .99.443.99 1s-.448 1-.99 1h-1.796c.1-.291.237-.606.414-.908.445-.758.935-1.092 1.383-1.092"/></svg>