<svg xmlns="http://www.w3.org/2000/svg" viewBox="0 0 44 44"><path fill-rule="evenodd" d="M29.73 17.56c.958-.962 1.095-1.788 1.207-3.279l7.81-1.301a1.5 1.5 0 1 0-.494-2.96l-7.355 1.226c-.114-1.203-.316-1.951-1.168-2.807-1.05-1.054-2.138-1.136-4.315-1.3A46 46 0 0 0 22 7c-1.172 0-2.344.057-3.415.138-2.177.165-3.265.247-4.315 1.301-1.05 1.055-1.113 1.946-1.24 3.728a12 12 0 0 0 0 1.666c.127 1.782.19 2.673 1.24 3.728 1.05 1.054 2.138 1.136 4.315 1.3 1.071.082 2.243.139 3.415.139s2.344-.057 3.415-.138c2.177-.165 3.265-.247 4.315-1.301m8.553 4.669c.143.124.364.345.488.488C40 24.128 40 25.456 40 28.11c0 5.987-6.931 8.937-12.91 9.26-1.471.08-3.16.129-5.09.129s-3.619-.049-5.09-.128C10.93 37.048 4 34.098 4 28.112c0-2.656 0-3.984 1.229-5.395a6 6 0 0 1 .488-.488C7.128 21 8.78 21 12.084 21h19.832c3.304 0 4.956 0 6.367 1.229M13 31a2.5 2.5 0 1 0 0-5 2.5 2.5 0 0 0 0 5m11.5-1.75a2.5 2.5 0 1 1-5 0 2.5 2.5 0 0 1 5 0m9-.75a2.5 2.5 0 1 1-5 0 2.5 2.5 0 0 1 5 0"/></svg>