<svg xmlns="http://www.w3.org/2000/svg" viewBox="0 0 44 44"><path fill-rule="evenodd" d="M18.81 10.13A43 43 0 0 1 22 10c1.078 0 2.172.053 3.19.13 1.183.089 1.698.138 2.061.231a.8.8 0 0 1 .204.072.7.7 0 0 1 .149.123c.122.122.162.186.171.202.006.01.017.028.034.087.021.076.05.213.08.477.032.274.055.594.088 1.058a9 9 0 0 1 .023.643q0 .29-.023.597c-.033.464-.056.784-.087 1.058-.03.264-.06.401-.081.477-.017.06-.028.077-.034.087a1 1 0 0 1-.171.202.7.7 0 0 1-.149.123.8.8 0 0 1-.204.072c-.363.093-.878.142-2.062.231A43 43 0 0 1 22 16a43 43 0 0 1-3.19-.13c-1.183-.089-1.698-.138-2.061-.231a.8.8 0 0 1-.204-.072.7.7 0 0 1-.149-.123 1 1 0 0 1-.171-.202c-.006-.01-.017-.028-.034-.087a3 3 0 0 1-.08-.477 26 26 0 0 1-.088-1.058 9 9 0 0 1 0-1.24c.033-.464.056-.784.087-1.058.03-.264.06-.401.081-.477.017-.06.028-.077.034-.087a1 1 0 0 1 .171-.202.7.7 0 0 1 .149-.123.8.8 0 0 1 .204-.072c.363-.093.878-.142 2.062-.231m12.127 4.151c-.113 1.491-.249 2.317-1.207 3.28-1.05 1.054-2.138 1.136-4.315 1.3A46 46 0 0 1 22 19c-1.172 0-2.344-.057-3.415-.138-2.177-.165-3.265-.247-4.315-1.301-1.05-1.055-1.113-1.946-1.24-3.728a12 12 0 0 1 0-1.666c.127-1.782.19-2.673 1.24-3.728 1.05-1.054 2.138-1.136 4.315-1.3A46 46 0 0 1 22 7c1.172 0 2.344.057 3.415.138 2.177.165 3.265.247 4.315 1.301.852.856 1.054 1.604 1.168 2.807l7.355-1.226a1.5 1.5 0 1 1 .494 2.96zm7.834 8.436a6 6 0 0 0-.488-.488C36.872 21 35.22 21 31.916 21H12.084c-3.304 0-4.956 0-6.367 1.229a6 6 0 0 0-.488.488C4 24.128 4 25.456 4 28.11c0 5.987 6.931 8.937 12.91 9.26 1.471.08 3.16.129 5.09.129s3.619-.049 5.09-.128C33.07 37.048 40 34.098 40 28.112c0-2.656 0-3.984-1.229-5.395M22 34.5c1.88 0 3.515-.047 4.929-.124 2.624-.142 5.334-.864 7.286-2.066C36.119 31.138 37 29.743 37 28.111c0-1.425-.01-2.11-.105-2.624-.06-.334-.141-.518-.386-.8l-.01-.011-.016-.016a4 4 0 0 0-.143-.143l-.02-.019-.007-.006c-.185-.162-.384-.285-.958-.373-.725-.111-1.698-.119-3.439-.119H12.084c-1.74 0-2.714.008-3.439.119-.574.088-.772.21-.958.372a2 2 0 0 0-.1.096l-.07.073-.026.028v-.001c-.245.281-.325.466-.386.8-.094.514-.105 1.2-.105 2.624 0 1.632.881 3.027 2.785 4.2 1.952 1.2 4.662 1.923 7.287 2.065 1.413.077 3.048.124 4.928.124M13 31a2.5 2.5 0 1 0 0-5 2.5 2.5 0 0 0 0 5m11.5-1.75a2.5 2.5 0 1 1-5 0 2.5 2.5 0 0 1 5 0M31 31a2.5 2.5 0 1 0 0-5 2.5 2.5 0 0 0 0 5"/></svg>