<svg xmlns="http://www.w3.org/2000/svg" viewBox="0 0 24 24"><path d="M16 9.25a1.25 1.25 0 1 0 0-2.5 1.25 1.25 0 0 0 0 2.5"/><path fill-rule="evenodd" d="M8.952 5.163C6.857 7.26 5.327 9.051 4.287 10.374c-.838 1.065-1.256 1.597-1.285 2.584-.03.986.321 1.491 1.023 2.5a18 18 0 0 0 2.051 2.462 18 18 0 0 0 2.461 2.051c1.01.702 1.514 1.052 2.5 1.023.987-.029 1.52-.447 2.584-1.285 1.323-1.04 3.115-2.57 5.21-4.666 1.564-1.564 1.987-3.002 2.092-5.058.03-.599.065-1.29.074-1.996.024-1.902-.088-3.897-.591-4.4s-2.497-.614-4.398-.59q-.307.004-.608.005c-1.779.01-3.415.02-4.977.993-.464.289-.975.67-1.47 1.166M5.86 11.611c.994-1.265 2.471-2.997 4.508-5.033.373-.374.76-.663 1.113-.883 1.06-.66 2.118-.671 4.015-.69l.538-.006c.918-.012 1.8.01 2.48.085q.2.022.352.046.024.153.046.353c.075.681.098 1.563.086 2.48-.008.663-.04 1.32-.071 1.92-.047.924-.16 1.56-.367 2.093-.198.512-.524 1.034-1.142 1.653-2.037 2.037-3.769 3.514-5.033 4.509-.577.453-.832.647-1.043.762a.67.67 0 0 1-.362.095c-.201.006-.268-.019-.351-.057-.178-.081-.396-.225-.95-.61a16 16 0 0 1-2.188-1.822 16 16 0 0 1-1.823-2.19c-.384-.552-.527-.77-.609-.948-.038-.084-.063-.15-.057-.351a.67.67 0 0 1 .095-.363c.116-.211.309-.466.763-1.043"/></svg>