<svg xmlns="http://www.w3.org/2000/svg" viewBox="0 0 16 16"><path fill-rule="evenodd" d="M2.86 6.917a40 40 0 0 1 3.11-3.474c.331-.33.671-.585.98-.778 1.042-.648 2.133-.655 3.318-.662L10.674 2c1.267-.016 2.597.057 2.932.393.335.335.41 1.666.394 2.934-.006.47-.029.931-.05 1.33-.07 1.371-.351 2.33-1.394 3.372a40 40 0 0 1-3.473 3.111c-.71.558-1.065.837-1.723.857-.657.02-.994-.215-1.667-.682a12 12 0 0 1-1.64-1.368c-.56-.56-1.013-1.13-1.368-1.64-.467-.674-.701-1.01-.682-1.668.02-.658.299-1.013.857-1.722m7.642-.516a.9.9 0 1 0 0-1.8.9.9 0 0 0 0 1.8"/></svg>