<svg xmlns="http://www.w3.org/2000/svg" viewBox="0 0 32 32"><path d="M13.504 8a4 4 0 1 1-8 0 4 4 0 0 1 8 0m11.678 6.564c.738.696 1.337 2.626 2.535 6.486.557 1.794.835 2.691.779 3.418a3.83 3.83 0 0 1-2.425 3.264c-.682.268-1.645.268-3.57.268s-2.887 0-3.57-.268a3.83 3.83 0 0 1-2.424-3.264c-.056-.727.222-1.624.779-3.418 1.198-3.86 1.797-5.79 2.535-6.487a3.91 3.91 0 0 1 5.36 0M12.185 26.937c.738-.697 1.337-2.627 2.535-6.488.557-1.793.835-2.69.779-3.417a3.83 3.83 0 0 0-2.425-3.264c-.682-.268-1.645-.268-3.57-.268s-2.887 0-3.57.268a3.83 3.83 0 0 0-2.424 3.264c-.056.727.222 1.624.779 3.418 1.198 3.86 1.797 5.79 2.535 6.486a3.91 3.91 0 0 0 5.36 0M22.502 12a4 4 0 1 0 0-8 4 4 0 0 0 0 8"/></svg>