<svg xmlns="http://www.w3.org/2000/svg" viewBox="0 0 16 16"><path fill-rule="evenodd" d="M4.5 6a2 2 0 1 0 0-4 2 2 0 0 0 0 4m0-1.5a.5.5 0 1 0 0-1 .5.5 0 0 0 0 1m9.607 5.907c-.599-1.997-.898-2.996-1.267-3.357a1.905 1.905 0 0 0-2.679 0c-.369.36-.668 1.36-1.266 3.357-.279.928-.418 1.393-.39 1.768a1.98 1.98 0 0 0 1.212 1.69c.34.138.822.138 1.784.138.961 0 1.442 0 1.783-.138a1.98 1.98 0 0 0 1.212-1.69c.028-.376-.111-.84-.39-1.768M11.5 12.503c.5 0 .806 0 1.033-.014.122-.008.182-.018.203-.022a.48.48 0 0 0 .262-.394 2 2 0 0 0-.043-.23 20 20 0 0 0-.286-1.005c-.305-1.017-.516-1.719-.694-2.216-.116-.32-.19-.467-.214-.518l-.007-.013a.4.4 0 0 0-.508 0l-.007.013c-.026.051-.1.198-.214.518-.18.497-.39 1.2-.695 2.216-.144.481-.233.78-.286 1.006-.036.15-.042.214-.043.229a.48.48 0 0 0 .263.394c.02.004.08.014.203.022.226.013.533.014 1.033.014m-4.393-2.407c-.599 1.998-.898 2.996-1.267 3.357a1.905 1.905 0 0 1-2.679 0c-.369-.36-.668-1.36-1.266-3.357-.279-.928-.418-1.392-.39-1.768a1.98 1.98 0 0 1 1.212-1.69c.34-.138.822-.138 1.784-.138.961 0 1.442 0 1.783.139a1.98 1.98 0 0 1 1.212 1.689c.028.376-.111.84-.39 1.768M4.5 8c.5 0 .806 0 1.033.015.122.007.182.017.203.02a.48.48 0 0 1 .262.395c-.001.015-.007.08-.043.23-.053.225-.142.524-.286 1.006-.305 1.016-.516 1.718-.694 2.215-.116.32-.19.467-.214.518l-.007.014a.4.4 0 0 1-.508 0l-.007-.014c-.026-.05-.1-.198-.214-.518-.18-.497-.39-1.2-.695-2.215-.144-.482-.233-.78-.286-1.007a2 2 0 0 1-.043-.229.48.48 0 0 1 .263-.394c.02-.004.08-.014.203-.021C3.694 8 4 8 4.5 8m9-4a2 2 0 1 1-4 0 2 2 0 0 1 4 0M12 4a.5.5 0 1 1-1 0 .5.5 0 0 1 1 0"/></svg>