<svg xmlns="http://www.w3.org/2000/svg" viewBox="0 0 44 44"><path d="M18.499 11.499a5.499 5.499 0 1 1-10.998 0 5.499 5.499 0 0 1 10.997 0m19.455 17.395c.742 2.35 1.113 3.526 1.037 4.478-.151 1.912-1.406 3.572-3.232 4.277C34.85 38 33.566 38 31 38s-3.849 0-4.758-.351c-1.826-.705-3.08-2.365-3.232-4.277-.076-.952.295-2.128 1.037-4.478 1.597-5.058 2.396-7.587 3.38-8.5 2.002-1.858 5.144-1.858 7.146 0 .984.913 1.783 3.442 3.38 8.5m-21.38 7.713c.984-.914 1.783-3.443 3.38-8.5.742-2.351 1.113-3.527 1.037-4.479-.151-1.912-1.406-3.572-3.232-4.277C16.85 19 15.566 19 13 19s-3.849 0-4.758.351c-1.826.705-3.08 2.365-3.232 4.277-.076.952.295 2.128 1.037 4.478 1.597 5.058 2.396 7.587 3.38 8.5 2.002 1.858 5.144 1.858 7.146 0m14.429-19.609a5.499 5.499 0 1 0 0-10.997 5.499 5.499 0 0 0 0 10.997"/></svg>