<svg xmlns="http://www.w3.org/2000/svg" viewBox="0 0 44 44"><path fill-rule="evenodd" d="M13 16.997A5.499 5.499 0 1 0 13 6a5.499 5.499 0 0 0 0 10.997m0-2.909a2.59 2.59 0 1 0 0-5.18 2.59 2.59 0 0 0 0 5.18m24.953 14.806c-1.597-5.058-2.396-7.587-3.38-8.5-2.002-1.858-5.144-1.858-7.146 0-.984.913-1.783 3.442-3.38 8.5-.742 2.35-1.113 3.526-1.037 4.478.151 1.912 1.406 3.572 3.232 4.277C27.15 38 28.434 38 31 38s3.849 0 4.758-.351c1.826-.705 3.08-2.365 3.232-4.277.076-.952-.295-2.128-1.037-4.478M31 35.103c1.318 0 2.181-.001 2.832-.04.65-.037.845-.102.883-.117.814-.314 1.326-1.03 1.387-1.803.002-.015.013-.192-.135-.785-.15-.6-.395-1.382-.777-2.592-.81-2.564-1.38-4.367-1.866-5.65-.419-1.105-.663-1.496-.72-1.585q-.023-.036-.002-.014a2.38 2.38 0 0 0-3.204 0q.021-.022-.003.014c-.056.089-.3.48-.719 1.585-.486 1.283-1.056 3.086-1.866 5.65-.382 1.21-.627 1.992-.777 2.592-.148.593-.137.77-.135.785.06.772.573 1.49 1.387 1.803.038.015.233.08.883.118.651.038 1.514.039 2.832.039m-11.047-6.997c-1.597 5.058-2.396 7.587-3.38 8.5-2.002 1.858-5.144 1.858-7.146 0-.984-.913-1.783-3.442-3.38-8.5-.742-2.35-1.113-3.526-1.037-4.478.151-1.912 1.406-3.572 3.232-4.277C9.15 19 10.434 19 13 19s3.849 0 4.758.351c1.826.705 3.08 2.365 3.232 4.277.076.952-.295 2.128-1.037 4.478M13 21.897c1.318 0 2.181.001 2.832.04.65.037.845.102.883.117.814.314 1.326 1.03 1.387 1.803.002.015.013.192-.135.785-.15.6-.395 1.382-.777 2.592-.81 2.564-1.38 4.367-1.866 5.65-.419 1.105-.663 1.496-.72 1.585-.015.026-.016.027-.002.014a2.38 2.38 0 0 1-3.204 0c.014.013.013.012-.003-.014-.056-.089-.3-.48-.719-1.585-.486-1.283-1.056-3.086-1.866-5.65-.382-1.21-.627-1.992-.777-2.592-.148-.593-.136-.77-.135-.785.06-.772.573-1.49 1.387-1.803.038-.015.233-.08.883-.118.651-.038 1.514-.039 2.832-.039m23.5-10.398a5.499 5.499 0 1 1-10.997 0 5.499 5.499 0 0 1 10.997 0m-2.909 0a2.59 2.59 0 1 1-5.18 0 2.59 2.59 0 0 1 5.18 0"/></svg>