<svg xmlns="http://www.w3.org/2000/svg" viewBox="0 0 16 16"><path fill-rule="evenodd" d="M8 .867A.643.643 0 0 1 9.015.34q.29.205.55.386c1.216.845 1.936 1.346 1.936 2.01 0 .665-.72 1.166-1.935 2.011l-.551.386A.643.643 0 0 1 8 4.608c0-.407.257-.75.618-1.007l.045-.032.097-.069H8c-.423 0-.852.019-1.273.05-1.845.137-2.122.214-2.542.635-.42.42-.497.697-.635 2.542-.031.421-.05.85-.05 1.273s.019.852.05 1.274c.138 1.844.215 2.121.635 2.541s.697.498 2.542.635c.421.032.85.05 1.273.05.424 0 .853-.018 1.274-.05 1.845-.137 2.122-.214 2.542-.635.42-.42.514-.697.651-2.541q.02-.261.032-.524a.78.78 0 0 1 .768-.75c.414 0 .751.336.734.75q-.014.321-.038.635c-.13 1.744-.211 2.616-1.086 3.491s-1.748.94-3.492 1.07C8.933 13.98 8.467 14 8 14s-.932-.02-1.384-.054c-1.744-.13-2.616-.195-3.492-1.07s-.94-1.747-1.07-3.491A19 19 0 0 1 2 8c0-.466.02-.933.055-1.385.13-1.744.194-2.616 1.07-3.491.875-.875 1.747-.94 3.49-1.07A19 19 0 0 1 8 2h.76l-.177-.127C8.223 1.617 8 1.273 8 .867M5.83 5.86l-.851.672v.978l.852-.696V10h1.002V5.86zm4.723 3.696q.432-.528.432-1.626 0-2.148-1.74-2.148-.888 0-1.314.534T7.505 7.93q0 1.098.426 1.626.426.522 1.314.522.882 0 1.308-.522m-.636-2.364q.036.192.036.438v.594q0 .528-.15.792-.144.264-.558.264a.8.8 0 0 1-.348-.066.6.6 0 0 1-.216-.198 1 1 0 0 1-.114-.33 3 3 0 0 1-.03-.462V7.63q0-.252.03-.45a1 1 0 0 1 .114-.33.54.54 0 0 1 .216-.198.75.75 0 0 1 .348-.072q.204 0 .342.072a.5.5 0 0 1 .216.21.85.85 0 0 1 .114.33"/></svg>