<svg xmlns="http://www.w3.org/2000/svg" viewBox="0 0 24 24"><path d="M10.577 7.841a1 1 0 0 1-1.154-1.634l.331-.233c.526-.371.96-.679 1.319-.942q-.504.02-1.002.057c-2.75.204-3.265.318-3.97 1.024-.707.707-.82 1.221-1.025 3.971A26 26 0 0 0 5 12a.99.99 0 0 1-.979 1h-.04A.97.97 0 0 1 3 12.04V12c0-.7.03-1.386.081-2.064.195-2.616.292-3.924 1.605-5.237s2.62-1.41 5.237-1.605q.59-.044 1.196-.065c-.368-.272-.816-.59-1.365-.977l-.33-.233A1 1 0 0 1 10.576.185l.33.233c2.319 1.637 3.478 2.455 3.478 3.595s-1.16 1.958-3.477 3.595zm3.039 13.105c-1.744-.13-2.617-.195-3.492-1.07-.875-.876-.94-1.748-1.07-3.492A19 19 0 0 1 9 15c0-.466.02-.933.054-1.385.13-1.744.195-2.616 1.07-3.491.875-.876 1.748-.94 3.492-1.07.452-.034.918-.054 1.385-.054s.933.02 1.385.054c1.744.13 2.616.194 3.491 1.07.876.875.94 1.747 1.07 3.491.034.452.055.919.055 1.385 0 .467-.02.933-.055 1.385-.13 1.744-.194 2.616-1.07 3.492-.875.875-1.747.94-3.491 1.07A19 19 0 0 1 15 21c-.467 0-.933-.02-1.385-.054"/></svg>