<svg xmlns="http://www.w3.org/2000/svg" viewBox="0 0 16 16"><path fill-rule="evenodd" d="M6.75 13.25c.583.585 1.164.628 2.327.714a12 12 0 0 0 1.847 0c1.163-.086 1.744-.13 2.328-.713.583-.584.626-1.165.713-2.328.022-.301.036-.612.036-.923s-.014-.622-.036-.923c-.087-1.163-.13-1.745-.713-2.328-.584-.584-1.165-.627-2.328-.714A13 13 0 0 0 10 6c-.311 0-.622.014-.924.036-1.163.087-1.744.13-2.328.714-.583.583-.626 1.165-.713 2.328A13 13 0 0 0 6 10c0 .31.014.622.036.923.087 1.163.13 1.744.713 2.328M7.5 10q.001.404.032.812c.047.63.073.911.126 1.115.03.116.057.168.152.263a.47.47 0 0 0 .264.152c.203.053.485.08 1.115.126.27.02.544.032.812.032q.402 0 .812-.032c.629-.046.91-.073 1.114-.126a.47.47 0 0 0 .264-.152.48.48 0 0 0 .152-.263c.053-.204.08-.486.126-1.115.02-.27.032-.544.032-.812q-.001-.404-.032-.812c-.047-.63-.073-.912-.126-1.115a.47.47 0 0 0-.152-.264.47.47 0 0 0-.264-.152c-.203-.053-.485-.079-1.114-.126-.271-.02-.545-.032-.812-.032-.268 0-.542.012-.812.032-.63.047-.912.073-1.115.126a.47.47 0 0 0-.264.152.47.47 0 0 0-.152.264c-.053.203-.08.485-.126 1.115-.02.27-.032.544-.032.812"/><path d="M6 .934A.643.643 0 0 1 7.014.408C8.56 1.5 9.5 2.045 9.5 2.805S8.56 4.11 7.014 5.2A.643.643 0 0 1 6 4.676c0-.422.208-.74.583-1.007.052-.037.097-.086.144-.119-1.845.137-2.122.214-2.542.635-.42.42-.498.697-.635 2.542a17 17 0 0 0-.05 1.479.775.775 0 0 1-.763.794.727.727 0 0 1-.734-.707L2 8c0-.466.02-.933.054-1.385.13-1.744.195-2.616 1.07-3.49.875-.876 1.747-.941 3.491-1.07l.115-.01-.147-.104C6.223 1.684 6 1.332 6 .934"/></svg>