<svg xmlns="http://www.w3.org/2000/svg" viewBox="0 0 16 16"><path d="M15.235 4.037a.9.9 0 1 0-1.273-1.273l-2.63 2.63-.795-.795A.9.9 0 1 0 9.265 5.87l1.432 1.432a.9.9 0 0 0 1.273 0zM3.714 3.035c.28-.063.609-.04.876.067a3.5 3.5 0 0 1 1.153.756c.578.577.867.866.881 1.557.015.69-.297 1.03-.92 1.708a10 10 0 0 1-.572.574l.204.24 2.727 2.727.238.202c.182-.197.376-.391.574-.573.678-.623 1.017-.934 1.708-.92.69.015.98.304 1.559.883.397.397.628.838.756 1.153.108.268.13.596.067.877-.103.46-.35 1.188-.933 1.745a3.2 3.2 0 0 1-.91.65c-1.153.537-2.52.351-3.654-.223-.906-.459-1.984-1.131-3.332-2.48s-2.135-2.54-2.594-3.446c-.574-1.135-.76-2.5-.224-3.654.154-.33.36-.611.646-.904.557-.587 1.288-.836 1.75-.94"/></svg>