<svg xmlns="http://www.w3.org/2000/svg" viewBox="0 0 16 16"><path fill-rule="evenodd" d="M8 1.004c-.87 0-1.366.647-1.64 1.131-.145.26-.267.541-.373.798l-.11.271a15 15 0 0 1-.24.571q-.094-.12-.185-.242a5 5 0 0 0-.47-.57c-.172-.172-.507-.463-.976-.463a.93.93 0 0 0-.674.283c-.247.255-.333.62-.332.962v3.006c0 2.415 1.877 4.354 4.25 4.696v2.803a.75.75 0 0 0 1.5 0v-2.803c2.373-.342 4.25-2.28 4.25-4.694V3.75c.002-.342-.058-.712-.305-.967a.93.93 0 0 0-.674-.283c-.466 0-.802.288-.975.459-.177.174-.327.37-.478.566q-.098.13-.201.258l-.056-.125a14 14 0 0 1-.188-.454q-.051-.129-.11-.271a7 7 0 0 0-.373-.798C9.367 1.651 8.87 1.004 8 1.004"/><path d="M3.422 12.925a.75.75 0 0 1 .657-1.35l1.5.731a.75.75 0 0 1-.657 1.349zm9.503-1.003a.75.75 0 0 1-.346 1.002l-1.5.73a.75.75 0 1 1-.657-1.348l1.5-.73a.75.75 0 0 1 1.003.346"/></svg>