<svg xmlns="http://www.w3.org/2000/svg" viewBox="0 0 16 16"><path d="M8 6.899a.9.9 0 1 0 0-1.8.9.9 0 0 0 0 1.8"/><path fill-rule="evenodd" d="m2.864 11.992 3.195-.492h3.886l3.191.491A.75.75 0 0 0 14 11.25V9.706a2.75 2.75 0 0 0-1.023-2.14l-1.48-1.195C11.402 3.52 9.592 1 7.998 1 6.407 1 4.597 3.52 4.504 6.372l-1.48 1.194A2.75 2.75 0 0 0 2 9.706v1.544a.75.75 0 0 0 .864.742m4.03-8.479C6.377 4.311 6 5.43 6 6.6c0 .4.149 1.49.331 2.623.044.272.087.535.128.777h3.073c.043-.262.09-.549.136-.844C9.853 7.985 10 6.906 10 6.6c0-1.17-.376-2.288-.895-3.087C8.528 2.624 8.045 2.5 8 2.5s-.527.124-1.104 1.013m-2.24 4.663c.09.653.206 1.373.308 1.975l-1.464.225v-.67c0-.377.171-.735.465-.972zm7.844 2.2-1.472-.227c.1-.608.214-1.333.306-1.982l.7.566c.295.237.466.595.466.973z"/><path d="M6.45 12.5c.271 0 .52.14.692.35.457.557.81.65.857.65.05 0 .402-.094.859-.65a.91.91 0 0 1 .693-.35c.595 0 .981.622.625 1.099C9.53 14.46 8.742 15 7.999 15c-.741 0-1.53-.539-2.175-1.402-.356-.476.03-1.098.625-1.098"/></svg>