<svg xmlns="http://www.w3.org/2000/svg" viewBox="0 0 24 24"><path d="M13.25 9a1.25 1.25 0 1 1-2.5 0 1.25 1.25 0 0 1 2.5 0"/><path fill-rule="evenodd" d="m9.097 17-4.9.98A1 1 0 0 1 3 17v-2.5a4 4 0 0 1 1.6-3.2l2.413-1.81C7.216 5.492 9.759 2 11.999 2c2.242 0 4.785 3.492 4.988 7.49L19.4 11.3a4 4 0 0 1 1.6 3.2V17a1 1 0 0 1-1.196.98L14.9 17zM9 10c0-1.701.546-3.325 1.3-4.487C11.136 4.228 11.86 4 12 4s.866.23 1.7 1.513C14.454 6.675 15 8.299 15 10c0 .45-.213 2.006-.476 3.674-.073.467-.147.92-.214 1.326H9.68c-.065-.378-.135-.797-.204-1.23C9.215 12.154 9 10.585 9 10m-1.309 5.242a97 97 0 0 1-.52-3.371L5.8 12.9a2 2 0 0 0-.8 1.6v1.28zm8.607-.002 2.702.54V14.5a2 2 0 0 0-.8-1.6l-1.386-1.04a127 127 0 0 1-.516 3.38"/><path d="M9.507 18.5c.36 0 .69.189.914.473.67.85 1.211 1.017 1.328 1.017.118 0 .66-.167 1.33-1.017.225-.284.554-.473.914-.473.786 0 1.295.833.829 1.474C13.914 21.22 12.799 22 11.749 22c-1.048 0-2.164-.78-3.07-2.027-.467-.64.042-1.473.828-1.473"/></svg>