<svg xmlns="http://www.w3.org/2000/svg" viewBox="0 0 24 24"><path d="M6.07 3.052a2.3 2.3 0 0 1 1.315.101 5.2 5.2 0 0 1 1.73 1.133c.866.867 1.3 1.3 1.321 2.337.022 1.036-.445 1.545-1.38 2.562-.271.296-.562.587-.858.86l.305.36 3.027 3.026-.003.056-.131.132c-.632.66-1.035 1.362-1.231 2.208-.157.678-.161 1.401-.164 2.002v.342c.002.324.004.684.03 1.053-.977-.64-2.074-1.504-3.327-2.756-2.022-2.022-3.203-3.811-3.89-5.17-.862-1.702-1.14-3.751-.336-5.48.23-.495.539-.918.967-1.357.837-.88 1.933-1.253 2.626-1.409"/><path fill-rule="evenodd" d="M13.5 14.48q0-.426.022-.843c.056-1.136.084-1.704.637-2.44a4.3 4.3 0 0 1 .716-.68C15.637 10 16.09 10 17 10c.908 0 1.362 0 2.124.516.193.13.577.496.716.682.553.735.581 1.303.637 2.44q.021.415.022.84c.229.13.445.299.661.525.827.863.831 1.557.84 2.945v.104c-.009 1.388-.013 2.082-.84 2.945-.826.863-1.633.902-3.246.98a19 19 0 0 1-1.828 0c-1.613-.078-2.42-.117-3.246-.98s-.832-1.557-.84-2.945v-.104c.008-1.388.013-2.082.84-2.945.216-.226.431-.395.66-.524m4.992-.427-.013-.317c-.03-.623-.048-.86-.087-1.037a.63.63 0 0 0-.135-.28 3 3 0 0 0-.276-.261c-.18-.12-.24-.13-.254-.132h-.003a1.4 1.4 0 0 0-.205-.02C17.39 12 17.24 12 17 12c-.238 0-.39 0-.52.006a1.3 1.3 0 0 0-.204.02h-.003c-.014.002-.074.012-.254.132a3 3 0 0 0-.276.262.64.64 0 0 0-.135.279c-.039.176-.057.414-.087 1.037q-.008.158-.013.317l.579-.03a19 19 0 0 1 1.828 0zM18.4 18a1.4 1.4 0 1 1-2.8 0 1.4 1.4 0 0 1 2.8 0"/></svg>