<svg xmlns="http://www.w3.org/2000/svg" viewBox="0 0 24 24"><path d="m9.612 9.54.002-.003q.084-.091.16-.179c.779-.868 1.168-1.357 1.162-2.266-.006-.97-.43-1.429-1.277-2.346a6.2 6.2 0 0 0-2.21-1.58c-.665-.282-1.371-.163-2.037.048-.635.201-1.37.555-1.96 1.178-.455.467-.777.916-1.011 1.45-.743 1.696-.49 3.672.333 5.329.684 1.375 1.876 3.204 3.949 5.278a24 24 0 0 0 2.202 1.948c.488.378 1.188.193 1.458-.361a1.05 1.05 0 0 0-.31-1.283 22 22 0 0 1-1.935-1.72c-1.925-1.926-2.988-3.58-3.572-4.754-.637-1.282-.735-2.622-.292-3.632.147-.337.379-.615.632-.878.356-.377.882-.6 1.364-.717a.96.96 0 0 1 .525.002c.444.147.882.529 1.18.828q.108.108.215.223c.22.238.374.406.5.555.123.145.182.228.212.278.056.092.047.249-.008.34a3 3 0 0 1-.238.318c-.133.161-.297.344-.534.604l-.65.677a1 1 0 0 0 .016 1.402l2.793 2.78a1.01 1.01 0 0 0 1.425-1.43z"/><path fill-rule="evenodd" d="M20.477 13.637q.021.417.022.842c.229.128.445.298.661.524.827.863.831 1.557.84 2.945v.104c-.009 1.388-.013 2.082-.84 2.945-.826.863-1.633.902-3.246.98a19 19 0 0 1-1.828 0c-1.613-.078-2.42-.117-3.246-.98s-.832-1.557-.84-2.945v-.104c.008-1.388.013-2.082.84-2.945.216-.226.431-.395.66-.524q0-.425.022-.842c.056-1.136.084-1.704.637-2.44a4.3 4.3 0 0 1 .716-.68C15.637 10 16.09 10 17 10c.908 0 1.362 0 2.124.516.193.13.577.496.716.682.553.735.581 1.303.637 2.44m-1.998.099q.009.158.013.317l-.578-.03a19 19 0 0 0-1.828 0l-.579.03q.005-.16.013-.317c.03-.623.048-.86.087-1.037a.64.64 0 0 1 .135-.28l.018-.019a3 3 0 0 1 .258-.242.75.75 0 0 1 .462-.152C16.61 12 16.76 12 17 12c.238 0 .39 0 .52.006a.75.75 0 0 1 .482.169 3 3 0 0 1 .237.225l.018.02a.64.64 0 0 1 .135.279c.039.176.057.414.087 1.037M17 16q-.406.001-.817.02c-.877.043-1.256.07-1.527.139-.142.035-.219.068-.373.228-.113.119-.16.19-.178.224a.4.4 0 0 0-.044.12 2.4 2.4 0 0 0-.045.398c-.012.218-.014.471-.016.831v.08c.002.36.004.613.016.83.01.211.029.328.045.4.014.06.028.09.044.119.019.034.065.105.178.224.154.16.231.193.373.229.271.068.65.095 1.527.137a17 17 0 0 0 1.634 0c.877-.042 1.256-.07 1.527-.137.142-.036.219-.069.372-.23.114-.118.16-.19.18-.223a.4.4 0 0 0 .043-.12c.016-.07.034-.188.045-.398.012-.218.014-.471.016-.831v-.08c-.002-.36-.004-.613-.016-.83a2.4 2.4 0 0 0-.045-.4.4.4 0 0 0-.044-.119 1.2 1.2 0 0 0-.178-.224c-.154-.16-.231-.193-.373-.229-.271-.068-.65-.095-1.527-.137Q17.407 16 17 16"/></svg>