<svg xmlns="http://www.w3.org/2000/svg" viewBox="0 0 24 24"><path d="m16.223 5.994-.262-1.396a.3.3 0 0 0-.016-.052 1 1 0 0 0-.168-.213 1 1 0 0 0-.182-.166.2.2 0 0 0-.048-.023 1.6 1.6 0 0 0-.27-.052c-.168-.023-.367-.04-.668-.065A7 7 0 0 0 14 4a7 7 0 0 0-.553.022c-.311.024-.52.04-.698.063-.17.021-.253.041-.295.054a.2.2 0 0 0-.058.026c-.02.013-.075.052-.172.155l-.02.022a1 1 0 0 0-.152.198h-.001a.2.2 0 0 0-.018.062l-.263 1.392-1.401.213c-.265.04-.381.082-.452.116-.183.088-.32.243-.46.384A1 1 0 0 1 8 5.337l.126-.132c.638-.64 1.18-.86 1.942-.975.081-.432.262-.801.661-1.24l.035-.037c.743-.788 1.339-.834 2.53-.925q.35-.027.706-.028.392.001.777.034c1.15.096 1.725.145 2.462.934.422.453.605.824.687 1.26.766.117 1.309.335 1.949.977.905.91.96 1.584 1.07 2.933a17 17 0 0 1 0 2.724c-.1 1.227-.155 1.896-.844 2.69a1 1 0 1 1-1.485-1.34.8.8 0 0 0 .183-.314c.06-.195.092-.457.152-1.198a15 15 0 0 0 0-2.4c-.06-.741-.092-1.003-.152-1.198-.029-.09-.073-.216-.341-.485-.195-.196-.31-.263-.375-.294-.071-.034-.188-.076-.456-.117zM10 17a2 2 0 1 0 0-4 2 2 0 0 0 0 4"/><path fill-rule="evenodd" d="m6.729 8.99.034-.037c.744-.788 1.34-.834 2.53-.925Q9.645 8.001 10 8q.392.001.776.034c1.15.096 1.725.145 2.462.934.423.453.606.824.688 1.26.766.117 1.309.335 1.948.978.906.908.96 1.583 1.07 2.932a17 17 0 0 1 0 2.724c-.11 1.35-.164 2.024-1.07 2.933-.905.908-1.616.969-3.038 1.09A34 34 0 0 1 10 21c-1.084 0-2.03-.046-2.837-.115-1.421-.121-2.132-.182-3.037-1.09s-.96-1.583-1.07-2.932a17 17 0 0 1 0-2.726c.11-1.349.165-2.023 1.07-2.932.638-.64 1.18-.86 1.941-.975.082-.432.263-.801.662-1.24m5.494 3.004-.263-1.396-.01-.04-.005-.012a1 1 0 0 0-.169-.213 1 1 0 0 0-.181-.166.2.2 0 0 0-.048-.023 1.6 1.6 0 0 0-.27-.052c-.168-.023-.367-.04-.668-.065A7 7 0 0 0 10 10q-.269 0-.554.022c-.31.024-.52.04-.697.063a2 2 0 0 0-.296.054.2.2 0 0 0-.057.026c-.02.013-.075.052-.172.155l-.02.022c-.11.12-.144.182-.153.198a.2.2 0 0 0-.018.062l-.264 1.392-1.4.213c-.266.04-.381.082-.452.116-.065.032-.18.098-.374.294-.268.269-.313.394-.341.484-.06.195-.092.457-.153 1.198a15 15 0 0 0 0 2.402c.06.741.092 1.002.153 1.197.028.09.073.216.34.485.256.256.383.306.496.34.221.068.518.103 1.295.17.75.063 1.64.107 2.667.107s1.916-.044 2.666-.108c.778-.066 1.075-.1 1.296-.169.113-.034.24-.084.495-.34.268-.269.313-.395.341-.485.061-.195.092-.456.153-1.198a15 15 0 0 0 0-2.4c-.06-.741-.092-1.003-.153-1.198-.028-.09-.073-.216-.34-.485-.196-.196-.31-.263-.376-.294-.07-.034-.187-.076-.455-.117z"/></svg>