<svg xmlns="http://www.w3.org/2000/svg" viewBox="0 0 32 32"><path d="M23.908 5.925c1.022.154 1.747.447 2.598 1.3 1.21 1.213 1.28 2.102 1.424 3.88a21 21 0 0 1 0 3.404c-.143 1.777-.215 2.666-1.424 3.878a4.7 4.7 0 0 1-1.061.824l-.023-.307-.01-.13c-.062-.779-.136-1.699-.409-2.569-.329-1.048-.894-1.91-1.726-2.744-.582-.584-1.203-1.056-1.925-1.402a6 6 0 0 0-.615-.255 7 7 0 0 0-.879-1.17c-.732-.797-1.527-1.352-2.518-1.674-.796-.26-1.646-.331-2.323-.388l-.124-.011a16 16 0 0 0-1.393-.062c-.492 0-.976.025-1.435.065l-.114.01c-.633.055-1.418.122-2.16.347a6 6 0 0 0-.446.156c.18-.648.502-1.203 1.148-1.851.852-.856 1.579-1.148 2.604-1.302.101-.47.31-.9.738-1.428a6 6 0 0 1 .301-.328c.953-.922 1.684-.986 3.146-1.113.4-.035.81-.056 1.218-.056.396 0 .793.02 1.18.053 1.568.134 2.353.202 3.336 1.273.538.585.782 1.06.892 1.6"/><path fill-rule="evenodd" d="M18.908 13.925c1.022.154 1.748.447 2.599 1.3 1.209 1.214 1.28 2.102 1.424 3.88a21 21 0 0 1 0 3.404c-.144 1.777-.216 2.666-1.424 3.878-1.209 1.213-2.164 1.294-4.075 1.454A47 47 0 0 1 13.5 28a47 47 0 0 1-3.933-.158c-1.91-.16-2.865-.24-4.074-1.453s-1.28-2.101-1.423-3.878a21 21 0 0 1 0-3.407c.143-1.777.215-2.665 1.423-3.878.853-.855 1.58-1.147 2.604-1.301.102-.47.31-.9.739-1.428.061-.075.23-.26.3-.328.953-.922 1.684-.986 3.147-1.113.4-.035.809-.056 1.217-.056q.598.002 1.18.053c1.569.134 2.353.202 3.337 1.273.537.585.781 1.06.891 1.6M16 20.499a2.5 2.5 0 1 1-5 0 2.5 2.5 0 0 1 5 0"/></svg>