<svg xmlns="http://www.w3.org/2000/svg" viewBox="0 0 16 16"><path fill-rule="evenodd" d="M11.22 12.863c1.3-.117 1.95-.175 2.748-.97s.855-1.385.968-2.568a14 14 0 0 0 0-2.65c-.113-1.183-.17-1.774-.968-2.568-.799-.795-1.448-.853-2.747-.97C10.335 3.057 9.26 3 8 3s-2.336.057-3.221.137c-1.299.117-1.948.175-2.747.97s-.855 1.385-.968 2.566a14 14 0 0 0 0 2.654c.113 1.181.17 1.773.968 2.567.799.794 1.448.852 2.746.97A36 36 0 0 0 8 13a36 36 0 0 0 3.22-.137M4.914 4.631A34 34 0 0 1 8 4.5c1.216 0 2.245.055 3.086.13.699.064 1.015.099 1.261.173.156.047.302.116.525.33-.135.1-.296.213-.497.355a15 15 0 0 1-2.01 1.2c-1.314.66-1.66.81-2.365.81s-1.05-.15-2.365-.81a15 15 0 0 1-2.01-1.199 27 27 0 0 1-.497-.357c.223-.213.37-.282.525-.329.246-.074.562-.11 1.26-.172M2.58 6.586l-.023.23a12.4 12.4 0 0 0 0 2.368c.062.64.094.902.16 1.109.043.129.111.277.373.537.245.243.398.317.563.367.246.074.562.11 1.26.172.841.076 1.87.131 3.087.131 1.216 0 2.245-.055 3.086-.13.699-.064 1.015-.099 1.261-.173.165-.05.318-.124.563-.367.262-.26.33-.408.372-.538.067-.206.1-.469.16-1.11a12.4 12.4 0 0 0-.022-2.596l-.18.128a16.4 16.4 0 0 1-2.201 1.313C9.75 8.675 9.107 9 8 9s-1.751-.324-3.038-.972A16.5 16.5 0 0 1 2.58 6.586"/></svg>