<svg xmlns="http://www.w3.org/2000/svg" viewBox="0 0 16 16"><path d="m1.972 4.167.06-.06c.799-.795 1.448-.853 2.747-.97C5.664 3.057 6.739 3 8 3s2.335.057 3.22.137c1.3.117 1.95.175 2.748.97l.06.06a17.3 17.3 0 0 1-2.666 1.98c-.317.186-.655.368-.997.54C9.05 7.348 8.705 7.5 8 7.5s-1.05-.15-2.365-.812c-.342-.172-.68-.354-.997-.54a17.3 17.3 0 0 1-2.666-1.98"/><path d="M14.78 5.504c.076.331.112.705.156 1.17a14 14 0 0 1 0 2.651c-.113 1.183-.17 1.774-.968 2.569-.799.794-1.448.852-2.747.97C10.336 12.942 9.26 13 8 13s-2.336-.057-3.222-.137c-1.298-.117-1.947-.175-2.746-.97-.798-.793-.855-1.384-.968-2.566a14 14 0 0 1 0-2.653c.045-.465.08-.84.156-1.17a18.6 18.6 0 0 0 2.655 1.934c.352.207.72.405 1.087.59 1.287.647 1.93.97 3.038.97s1.751-.323 3.039-.97c.366-.185.734-.383 1.086-.59a18.6 18.6 0 0 0 2.655-1.934"/></svg>