<svg xmlns="http://www.w3.org/2000/svg" viewBox="0 0 44 44"><path fill-rule="evenodd" d="M14.874 8.28A87 87 0 0 1 22 8c2.712 0 5.088.112 7.124.28 3.724.305 5.586.458 7.969 2.854q.313.314.577.617l-3.527 3.318a37 37 0 0 1-9.402 6.295c-1.8.84-3.88.84-5.679 0A37 37 0 0 1 9.66 15.07l-3.51-3.108q.334-.403.757-.828c2.382-2.396 4.243-2.549 7.966-2.855M4.676 14.701c-.327 1.134-.424 2.407-.552 4.08A42 42 0 0 0 4 22c0 1.123.046 2.2.124 3.219.268 3.501.402 5.252 2.784 7.648s4.243 2.548 7.965 2.854a87 87 0 0 0 7.127.28 87 87 0 0 0 7.125-.28c3.724-.305 5.585-.458 7.968-2.854s2.516-4.148 2.783-7.651C39.954 24.197 40 23.121 40 22a42 42 0 0 0-.124-3.215c-.14-1.849-.245-3.21-.661-4.435a27 27 0 0 1-1.187 1.224l-1.855 1.704a40 40 0 0 1-10.164 6.805 9.71 9.71 0 0 1-8.215 0A40 40 0 0 1 7.63 17.278l-1.855-1.704c-.121-.111-.363-.299-.655-.526q-.212-.163-.444-.347"/></svg>