<svg xmlns="http://www.w3.org/2000/svg" viewBox="0 0 44 44"><path fill-rule="evenodd" d="M14.874 8.28c-3.723.305-5.584.458-7.966 2.854s-2.516 4.146-2.784 7.648A42 42 0 0 0 4 22c0 1.123.046 2.2.124 3.219.268 3.501.402 5.252 2.784 7.648s4.243 2.548 7.965 2.854a87 87 0 0 0 7.127.28 87 87 0 0 0 7.125-.28c3.724-.305 5.585-.458 7.968-2.854s2.516-4.148 2.783-7.651C39.954 24.197 40 23.121 40 22a42 42 0 0 0-.124-3.215c-.267-3.503-.4-5.255-2.783-7.651s-4.245-2.55-7.969-2.855A87 87 0 0 0 22 8c-2.713 0-5.09.112-7.126.28m21.539 20.287c-.196.629-.53 1.26-1.447 2.184-.896.901-1.542 1.247-2.232 1.458-.854.261-1.892.361-3.855.522a84 84 0 0 1-6.879.27c-2.63 0-4.925-.11-6.881-.27-1.962-.161-3-.26-3.853-.522-.69-.21-1.335-.557-2.23-1.458-.92-.923-1.253-1.555-1.448-2.183-.244-.785-.331-1.726-.473-3.578A39 39 0 0 1 7 22c0-1.04.043-2.041.115-2.99a56 56 0 0 1 .18-2.039l.335.307a40 40 0 0 0 10.164 6.805 9.71 9.71 0 0 0 8.215 0 40 40 0 0 0 10.164-6.805l.512-.47c.071.568.129 1.27.2 2.205.072.948.115 1.948.115 2.987s-.043 2.04-.115 2.987c-.141 1.853-.229 2.795-.472 3.58m-.904-14.726a9 9 0 0 0-.544-.592c-.895-.901-1.541-1.247-2.23-1.458-.855-.261-1.893-.36-3.856-.522A84 84 0 0 0 22 11c-2.63 0-4.925.109-6.88.27-1.963.16-3 .26-3.854.521-.69.211-1.335.557-2.23 1.458a9 9 0 0 0-.59.647l1.214 1.173a37 37 0 0 0 9.402 6.295c1.8.84 3.879.84 5.679 0a37 37 0 0 0 9.402-6.295z"/></svg>