<svg xmlns="http://www.w3.org/2000/svg" viewBox="0 0 24 24"><path fill-rule="evenodd" d="M12 4c-1.55 0-2.902.068-4.055.168-2.024.176-3.037.264-4.326 1.558-1.29 1.293-1.37 2.264-1.532 4.204a25 25 0 0 0 0 4.14c.162 1.941.243 2.912 1.532 4.205s2.301 1.382 4.326 1.558c1.153.1 2.505.167 4.055.167s2.902-.067 4.054-.167c2.026-.176 3.038-.264 4.328-1.558 1.289-1.294 1.37-2.265 1.531-4.206a25 25 0 0 0 0-4.137c-.161-1.942-.242-2.912-1.531-4.206-1.29-1.294-2.303-1.382-4.328-1.558A47 47 0 0 0 12 4M8.118 6.16C9.214 6.066 10.508 6 12 6s2.786.065 3.881.16c1.08.094 1.603.149 2.024.279.312.096.612.25 1.06.698.288.29.453.513.559.712-.22.166-.483.351-.818.588a23 23 0 0 1-3.047 1.817c-1.966.99-2.534 1.244-3.659 1.244s-1.693-.255-3.66-1.244a23 23 0 0 1-3.047-1.817 35 35 0 0 1-.817-.588c.106-.198.272-.423.56-.712.447-.449.747-.602 1.06-.698.42-.13.943-.185 2.022-.278m-4.033 3.872-.005.064a23 23 0 0 0 0 3.809c.086 1.036.137 1.522.26 1.915.09.288.238.584.696 1.043.447.45.747.603 1.06.699.42.13.943.184 2.022.278 1.096.095 2.39.16 3.882.16s2.786-.065 3.882-.16c1.079-.093 1.602-.148 2.023-.278.312-.096.612-.25 1.06-.699.458-.459.606-.755.696-1.043.123-.394.173-.88.26-1.917a23 23 0 0 0 0-3.805l-.006-.066-.055.038a25 25 0 0 1-3.302 1.971c-1.931.971-2.897 1.457-4.558 1.457s-2.627-.486-4.558-1.457a25 25 0 0 1-3.302-1.97z"/></svg>