<svg xmlns="http://www.w3.org/2000/svg" viewBox="0 0 28 28"><path d="M9.124 4.21A54 54 0 0 1 14 4c1.864 0 3.49.085 4.874.21 2.41.219 3.616.328 5.154 1.871.582.585.959 1.118 1.213 1.682-.62.58-2.59 2.342-5.04 3.79-.568.336-1.173.66-1.782.967-2.288 1.151-3.017 1.487-4.419 1.487s-2.13-.336-4.419-1.487a30 30 0 0 1-1.782-.967c-2.45-1.448-4.419-3.21-5.04-3.79.254-.564.63-1.097 1.214-1.682C5.51 4.538 6.715 4.43 9.124 4.211"/><path d="M2.237 9.98c1.003.865 2.631 2.164 4.544 3.295.616.364 1.261.71 1.902 1.032 2.253 1.133 3.38 1.7 5.317 1.7s3.064-.567 5.317-1.7a32 32 0 0 0 1.902-1.032c1.913-1.13 3.541-2.43 4.544-3.295.04.364.074.758.112 1.19.077.88.125 1.83.125 2.83s-.048 1.95-.125 2.83c-.206 2.363-.31 3.545-1.847 5.089-1.538 1.543-2.743 1.652-5.153 1.87A54 54 0 0 1 14 24c-1.864 0-3.49-.085-4.876-.21-2.409-.219-3.613-.328-5.151-1.871s-1.642-2.725-1.848-5.087A33 33 0 0 1 2 14c0-1 .048-1.951.125-2.831.038-.433.072-.826.112-1.188"/></svg>