<svg xmlns="http://www.w3.org/2000/svg" viewBox="0 0 24 24"><path fill-rule="evenodd" d="M18.081 14.215a4 4 0 0 1-.345.44c-.94 1.031-2.353 1.458-3.37 1.65a11 11 0 0 1-1.592.178l-1.258.914c-.45.327-1.083.23-1.413-.216a.996.996 0 0 1 .217-1.4l1.517-1.103.276-.2.34.007h.02l.083-.001a9 9 0 0 0 1.433-.148c.901-.17 1.763-.494 2.246-1.024.423-.464.432-.974.291-1.469-.061-.217-.325-.48-.877-.55-1.235-.154-3.066-.308-4.386-.121-1.237.175-2.34.545-3.14.875a13 13 0 0 0-.985.456c-.966.614-1.537 1.713-1.354 2.898a14.6 14.6 0 0 0 1.015 3.58v.001c.178.437.341.839.52 1.179.227.43.501.807.915 1.101.803.571 2.017.738 4.062.738 2.063 0 3.336-.22 4.17-.812.851-.603 1.146-1.53 1.464-2.547.447-1.431.337-3.12.2-4.166a2 2 0 0 0-.049-.26m-3.177-7.036a41 41 0 0 1-.137 2.004c-1.17-.105-2.603-.163-3.79.005a15.2 15.2 0 0 0-3.959 1.148 43 43 0 0 1-.382-1.698c-.24-1.212-.467-2.844-.606-3.933-.104-.809.438-1.53 1.242-1.686a1.7 1.7 0 0 1 1.913 1.084c.369 1.045.903 2.598 1.246 3.777l.357 1.22c.055-.61.134-1.39.24-2.196.146-1.107.414-2.564.61-3.576a1.656 1.656 0 0 1 1.742-1.324 1.587 1.587 0 0 1 1.493 1.52c.037 1.03.073 2.527.03 3.655"/></svg>