<svg xmlns="http://www.w3.org/2000/svg" viewBox="0 0 24 24"><path fill-rule="evenodd" d="M13.388 2.006c1.19.082 2.138 1.013 2.19 2.208.043.948.087 2.304.052 3.346-.026.79-.11 1.769-.191 2.58.259.026.475.05.633.07.53.065 1.035.42 1.214.998.055.178.121.429.165.726.614.473 1.066 1.165 1.174 1.994.14 1.06.263 2.834-.217 4.369l-.013.041c-.305.974-.642 2.053-1.639 2.759-.975.69-2.395.903-4.46.903-2.029 0-3.402-.155-4.353-.83-.5-.354-.819-.803-1.067-1.273a14 14 0 0 1-.545-1.23l-.118-.289a15 15 0 0 1-.923-3.385c-.203-1.312.382-2.523 1.383-3.255v-.002a47 47 0 0 1-.66-2.792C5.806 7.877 5.627 6.47 5.515 5.5c-.136-1.182.66-2.217 1.827-2.443 1.19-.23 2.422.444 2.842 1.593.1.274.212.583.327.909.104-.579.215-1.147.31-1.618.241-1.198 1.355-2.02 2.567-1.936M9.93 10.38v.01l-.001.006c-.476.145-.95.31-1.397.478a41 41 0 0 1-.513-2.211c-.191-.988-.363-2.331-.475-3.297A.336.336 0 0 1 7.826 5a.386.386 0 0 1 .437.24c.336.92.788 2.196 1.074 3.16.188.634.402 1.347.593 1.981m2.05-.35.039-.47c.05-.57.126-1.339.233-2.132.128-.948.367-2.206.553-3.13a.383.383 0 0 1 .406-.3.36.36 0 0 1 .346.34c.042.942.083 2.233.05 3.192a41 41 0 0 1-.185 2.48c-.46-.012-.954-.01-1.441.02m4.703 4.715a3 3 0 0 1-.394.362c-.873.68-1.992.814-2.75.825-.4.006-.753-.022-1.006-.052l-.022-.002-1.37.835a1.017 1.017 0 0 1-1.39-.326.994.994 0 0 1 .33-1.376l1.684-1.027.34-.207.389.078.01.001.05.01q.074.011.216.029c.188.022.45.043.74.038.622-.009 1.187-.13 1.53-.398.286-.222.4-.501.428-.822a2.2 2.2 0 0 0-.028-.562 27 27 0 0 0-1.934-.139c-1.01-.032-1.987.012-2.62.189-.915.255-1.88.622-2.674.955-.668.28-1.022.905-.924 1.533.131.848.37 1.897.797 2.935l.138.336c.175.43.303.743.444 1.011.161.306.298.464.453.574.357.253 1.087.455 3.176.455 2.052 0 2.879-.242 3.284-.53.37-.261.552-.661.897-1.764.285-.913.287-2.037.206-2.961"/></svg>