<svg xmlns="http://www.w3.org/2000/svg" viewBox="0 0 44 44"><path fill-rule="evenodd" d="M26.364 21.099a28.6 28.6 0 0 0-6.435.37c-1.722.297-3.522 1.008-4.931 1.675-.563.267-1.05.52-1.431.727-1.376.897-2.222 2.438-2.043 4.14a24 24 0 0 0 1.432 6.008l.111.289c.736 1.923 1.304 3.406 2.584 4.352 1.345.994 3.387 1.34 6.94 1.34 3.542 0 5.632-.283 6.966-1.152 1.372-.893 1.853-2.344 2.41-4.251.767-2.633.55-5.793.305-7.7a3.5 3.5 0 0 0-.271-.964c-.515.847-1.219 1.669-2.181 2.308-1.46.969-3.527 1.372-5.022 1.56a26 26 0 0 1-2.332.183l-1.62 1.21a1.51 1.51 0 0 1-2.11-.3 1.497 1.497 0 0 1 .302-2.1l2.009-1.502.404-.302.505.002h.039l.137-.002a23 23 0 0 0 2.289-.167c1.448-.182 2.897-.529 3.727-1.08.806-.534 1.357-1.357 1.727-2.275.335-.832-.152-1.91-1.423-2.168a48 48 0 0 0-2.088-.201m.332-2.988.027-.27c.156-1.57.325-3.527.375-5.064.063-1.9-.015-4.416-.09-6.18-.059-1.391-1.157-2.49-2.547-2.59-1.414-.1-2.697.863-2.968 2.255-.337 1.732-.788 4.174-1.031 6.037-.216 1.645-.292 4.034-.316 5.89-.305-1.075-.622-2.196-.91-3.222-.656-2.338-1.682-5.444-2.368-7.469-.45-1.33-1.85-2.127-3.226-1.852-1.363.272-2.275 1.51-2.097 2.885.272 2.105.722 5.357 1.191 7.755a100 100 0 0 0 .933 4.164l.034-.016c1.516-.718 3.6-1.558 5.71-1.922a31.6 31.6 0 0 1 7.283-.4"/></svg>