<svg xmlns="http://www.w3.org/2000/svg" viewBox="0 0 44 44"><path fill-rule="evenodd" d="M24.47 4.013c1.977.14 3.56 1.698 3.661 3.697.084 1.635.172 3.93.12 5.698-.042 1.475-.202 3.33-.349 4.794-.057.576-.113 1.097-.16 1.517.694.07 1.242.138 1.556.18a1.96 1.96 0 0 1 1.605 1.314c.112.334.283.921.372 1.642 1.056.807 1.826 1.994 2.006 3.407.242 1.892.456 5.055-.358 7.768-.54 1.802-1.103 3.598-2.837 4.696-1.612 1.02-3.988 1.274-7.5 1.274-3.54 0-5.887-.317-7.521-1.49-1.53-1.099-2.205-2.817-2.9-4.59l-.146-.37a23.7 23.7 0 0 1-1.485-5.987c-.24-2.115.811-3.993 2.457-5.076l-.102-.376c-.123-.457-.294-1.097-.48-1.826-.372-1.45-.817-3.289-1.086-4.76-.326-1.779-.595-4.113-.764-5.766-.203-1.981 1.13-3.717 3.071-4.104 1.98-.396 4.022.723 4.72 2.647a139 139 0 0 1 1.078 3.078c.23-1.415.526-2.946.767-4.137.404-2.005 2.257-3.374 4.274-3.23m-2.53 15.541a28 28 0 0 1 2.795-.036c.048-.426.106-.968.167-1.57.145-1.451.296-3.22.336-4.584.047-1.64-.035-3.834-.118-5.46a.96.96 0 0 0-.908-.902 1 1 0 0 0-1.061.79c-.322 1.594-.727 3.727-.944 5.342-.176 1.31-.242 3.24-.261 4.897-.006.561-.007 1.082-.006 1.523m-3.414-.789.392 1.32a40 40 0 0 0-3.158 1.125c-.114-.421-.255-.957-.408-1.554-.368-1.437-.792-3.193-1.041-4.558-.303-1.655-.563-3.89-.731-5.534a.92.92 0 0 1 .755-.992c.5-.1.992.183 1.158.64.566 1.56 1.306 3.673 1.775 5.281.406 1.393.883 3.007 1.258 4.272m11.82 8.323c-.261.37-.586.724-.987 1.05-1.448 1.174-3.325 1.418-4.626 1.438a13 13 0 0 1-1.818-.105l-2.429 1.543a1.51 1.51 0 0 1-2.08-.457 1.496 1.496 0 0 1 .46-2.072l2.91-1.85.519-.33.598.126h.001l.018.003.092.017a10 10 0 0 0 1.683.125c1.084-.016 2.117-.235 2.77-.765.603-.489.829-1.135.86-1.852a4.8 4.8 0 0 0-.103-1.172 45 45 0 0 0-3.285-.26c-1.822-.073-3.647-.007-4.831.337-1.748.508-3.593 1.259-5.033 1.9-1.073.478-1.651 1.463-1.538 2.463.16 1.408.518 3.258 1.295 5.224.875 2.214 1.243 3.08 2.004 3.625.764.549 2.186.924 5.76.924 3.604 0 5.11-.316 5.885-.806.651-.412.979-1.066 1.566-3.024.576-1.918.504-4.308.31-6.082"/></svg>