<svg xmlns="http://www.w3.org/2000/svg" viewBox="0 0 17 17"><path fill-rule="evenodd" d="M4.108 2.763a2.11 2.11 0 0 0-1.343 1.343c-.107.323-.107.722-.107 1.521v.42l-.002.057v6.374a.797.797 0 0 0 1.593 0V9.561h3.868c1.968-.025 3.576-1.45 3.576-3.417 0-2.005-1.639-3.471-3.644-3.488H5.63c-.799 0-1.198 0-1.521.107m.144 5.205h3.67l.176-.001C9.316 7.952 10.1 7.12 10.1 6.144c0-1.024-.823-1.884-2.063-1.894H5.629c-.417 0-.665 0-.85.01a1.4 1.4 0 0 0-.178.018.52.52 0 0 0-.321.321 1.4 1.4 0 0 0-.018.177c-.01.186-.01.434-.01.851z"/><path d="M14.222 9.986a.956.956 0 1 1-1.912 0 .956.956 0 0 1 1.912 0m-1.352 1.475a.64.64 0 0 1 .495-.235h2.45a.637.637 0 1 1 0 1.274H14.15l.178.848h1.467c.292 0 .547.198.618.482l.48 1.916a.637.637 0 1 1-1.237.31l-.359-1.434H13.81a.64.64 0 0 1-.624-.506l-.445-2.122a.64.64 0 0 1 .13-.533"/><path d="M10.624 14.586a2.41 2.41 0 0 1 1.64-2.283l.265 1.268a1.133 1.133 0 1 0 1.484 1.583h.87l.181.724a2.408 2.408 0 0 1-4.44-1.292"/></svg>