<svg xmlns="http://www.w3.org/2000/svg" viewBox="0 0 24 24"><path d="M9.522 9.423c.054-.727.081-1.09.446-1.455s.728-.392 1.455-.446a8 8 0 0 1 1.154 0c.727.054 1.09.081 1.455.446s.392.728.446 1.455a8 8 0 0 1 0 1.154c-.054.727-.08 1.09-.446 1.455-.364.365-.728.392-1.455.446a8 8 0 0 1-1.154 0c-.727-.054-1.09-.081-1.455-.446s-.392-.728-.446-1.455a8 8 0 0 1 0-1.154"/><path fill-rule="evenodd" d="M10.462 21.013c.713.657 1.07.986 1.538.986s.825-.329 1.538-.986c3.192-2.939 6.332-6.103 6.458-10.766.016-.593-.034-1.184-.083-1.774-.28-3.41-2.895-6.134-6.305-6.406A20 20 0 0 0 12 2c-.543 0-1.083.025-1.608.067-3.41.272-6.025 2.997-6.305 6.406-.048.59-.099 1.181-.083 1.774.126 4.663 3.266 7.827 6.458 10.766M12 19.711c-2.798-2.561-5.887-5.445-5.997-9.518-.014-.52.035-1.039.077-1.556.204-2.478 2.083-4.386 4.471-4.577.48-.038.967-.06 1.449-.06s.969.022 1.449.06c2.388.191 4.267 2.1 4.47 4.577.043.517.092 1.036.078 1.556-.11 4.073-3.199 6.957-5.997 9.518"/></svg>