<svg xmlns="http://www.w3.org/2000/svg" viewBox="0 0 24 24"><path fill-rule="evenodd" d="M10.462 21.013C7.27 18.074 4.13 14.91 4.003 10.247c-.016-.577.032-1.153.08-1.727l.003-.047c.28-3.41 2.895-6.134 6.305-6.406A20 20 0 0 1 12 2c.543 0 1.083.025 1.608.067 3.41.272 6.025 2.997 6.305 6.406l.004.046c.047.575.095 1.15.079 1.728-.126 4.663-3.266 7.827-6.458 10.766-.713.657-1.07.986-1.538.986s-.825-.329-1.539-.986m-.94-11.59c.054-.727.081-1.09.446-1.455s.728-.392 1.455-.446a8 8 0 0 1 1.154 0c.727.054 1.09.081 1.455.446s.392.728.446 1.455a8 8 0 0 1 0 1.154c-.054.727-.08 1.09-.446 1.455-.364.365-.728.392-1.455.446a8 8 0 0 1-1.154 0c-.727-.054-1.09-.081-1.455-.446s-.392-.728-.446-1.455a8 8 0 0 1 0-1.154"/></svg>