<svg xmlns="http://www.w3.org/2000/svg" viewBox="0 0 44 44"><path d="M17.54 16.961c.097-1.308.145-1.963.802-2.62.657-.656 1.31-.705 2.62-.802.338-.025.688-.04 1.038-.04s.7.015 1.04.04c1.308.097 1.962.146 2.618.803.657.656.706 1.31.803 2.619.025.34.04.69.04 1.039 0 .35-.015.7-.04 1.039-.097 1.308-.146 1.962-.803 2.62-.656.656-1.31.704-2.619.802-.339.025-.689.04-1.039.04s-.7-.015-1.039-.04c-1.308-.098-1.962-.146-2.619-.803s-.705-1.31-.803-2.62c-.025-.338-.04-.688-.04-1.038s.015-.7.04-1.039"/><path fill-rule="evenodd" d="M19.136 38.108c1.322 1.26 1.983 1.891 2.864 1.891s1.542-.63 2.865-1.891c5.554-5.295 10.9-10.96 11.128-19.178.029-1.048-.053-2.057-.132-3.098-.48-6.246-5.232-11.303-11.48-11.745A34 34 0 0 0 22 4c-.802 0-1.6.032-2.381.087-6.249.442-11.001 5.499-11.48 11.745-.08 1.04-.161 2.05-.132 3.098.228 8.217 5.573 13.883 11.128 19.178m13.858-19.261c-.1 3.585-1.605 7.622-3.877 10.397-2.169 2.65-4.58 5.138-7.117 7.44-2.536-2.302-4.948-4.79-7.117-7.44-2.272-2.776-3.777-6.812-3.876-10.397-.027-.947.052-1.848.124-2.786.374-4.87 4.04-8.652 8.7-8.981C20.55 7.029 21.277 7 22 7c.721 0 1.448.029 2.168.08 4.66.33 8.327 4.11 8.7 8.982.072.937.15 1.838.125 2.785"/></svg>