<svg xmlns="http://www.w3.org/2000/svg" viewBox="0 0 16 16"><path fill-rule="evenodd" d="M13.5 6.342q0-.45-.027-.898c-.152-2.391-2.06-4.247-4.45-4.408A15 15 0 0 0 8 1c-.344 0-.688.013-1.023.036-2.39.16-4.299 2.017-4.45 4.408q-.03.449-.027.898v.136c-.001.207-.002.415.008.622.152 3.091 2.34 5.246 4.455 7.227.48.449.721.674 1.037.674s.556-.225 1.036-.675c2.116-1.98 4.304-4.135 4.455-7.226.01-.207.01-.415.01-.622zm-7.233-.246c.038-.508.056-.762.312-1.017.255-.255.509-.274 1.017-.312a5.5 5.5 0 0 1 .807 0c.509.038.763.057 1.018.312s.274.51.312 1.017a5.5 5.5 0 0 1 0 .808c-.038.508-.057.762-.312 1.017s-.51.274-1.018.312a5.5 5.5 0 0 1-.807 0c-.508-.038-.762-.057-1.017-.312-.256-.255-.274-.51-.312-1.017a5.5 5.5 0 0 1 0-.808"/></svg>