<svg xmlns="http://www.w3.org/2000/svg" viewBox="0 0 32 32"><path fill-rule="evenodd" d="m25.91 11.673-.006-.078c-.339-4.541-3.783-8.237-8.326-8.54A24 24 0 0 0 16 3q-.797.002-1.577.054c-4.544.304-7.988 4-8.326 8.54l-.007.091c-.052.692-.103 1.37-.086 2.067.143 5.911 3.929 10.01 7.9 13.847.966.933 1.45 1.4 2.096 1.4s1.13-.467 2.096-1.4c3.971-3.838 7.757-7.936 7.9-13.847.017-.702-.034-1.383-.086-2.08m-13.378.52c.075-1.018.113-1.527.624-2.037.51-.51 1.019-.549 2.036-.624Q15.59 9.5 16 9.5c.272 0 .544.012.808.032 1.017.075 1.526.113 2.036.624.51.51.549 1.019.624 2.036q.031.398.032.808c0 .272-.012.544-.032.808-.075 1.017-.113 1.526-.624 2.036-.51.51-1.019.549-2.036.624-.264.02-.536.032-.808.032s-.544-.012-.808-.032c-1.017-.075-1.526-.113-2.036-.624-.51-.51-.549-1.019-.625-2.036q-.03-.398-.031-.808c0-.272.012-.544.031-.808"/></svg>