<svg xmlns="http://www.w3.org/2000/svg" viewBox="0 0 24 24"><path d="M15.75 17.499a1.25 1.25 0 1 1-2.5 0 1.25 1.25 0 0 1 2.5 0"/><path fill-rule="evenodd" d="M9 10.79c.53-.223 1.194-.618 2.072-1.14l1.136-.674c1.86-1.104 2.79-1.657 2.79-2.477s-.93-1.372-2.79-2.477l-1.136-.674c-1.808-1.074-2.711-1.61-3.393-1.222s-.681 1.44-.681 3.544L7 9.69v4.023q-.56.178-1.058.396c-.799.35-1.509.791-2.032 1.333C3.38 15.99 3 16.685 3 17.5s.381 1.51.91 2.057c.523.542 1.233.984 2.032 1.334C7.544 21.59 9.686 22 12 22s4.456-.409 6.058-1.11c.799-.35 1.509-.791 2.032-1.333.529-.547.91-1.243.91-2.057 0-.815-.381-1.511-.91-2.058-.523-.542-1.233-.984-2.032-1.334C16.456 13.409 14.314 13 12 13c-1.046 0-2.058.084-3 .24zm1.05-2.859 1.137-.674c.536-.319.94-.561 1.25-.758a52 52 0 0 0-1.25-.757l-1.136-.674c-.41-.244-.749-.445-1.046-.613a62 62 0 0 0-.007 1.215v.766L9 6.499v1.656l.005.389c.297-.168.636-.37 1.046-.613M7 15.834V17a1 1 0 1 0 2 0v-1.73a16 16 0 0 1 3-.27c2.105 0 3.962.375 5.256.94.648.284 1.11.597 1.396.892.282.291.348.515.348.668 0 .152-.066.376-.348.667-.286.295-.748.607-1.396.891-1.294.566-3.151.942-5.256.942s-3.962-.376-5.256-.942c-.648-.284-1.11-.596-1.396-.891-.282-.291-.348-.515-.348-.668 0-.152.066-.376.348-.667.286-.296.748-.608 1.396-.891q.124-.055.256-.107"/></svg>