<svg xmlns="http://www.w3.org/2000/svg" viewBox="0 0 16 16"><path d="M9.5 12.4a.9.9 0 1 0 0-1.8.9.9 0 0 0 0 1.8"/><path fill-rule="evenodd" d="M7.209 6.1c-.494.293-.886.526-1.209.681v1.41A10.5 10.5 0 0 1 8.004 8c1.546 0 2.983.327 4.06.891 1.042.546 1.94 1.43 1.94 2.609 0 1.178-.898 2.063-1.94 2.609-1.077.564-2.514.891-4.06.891s-2.983-.327-4.06-.891c-1.043-.546-1.94-1.43-1.94-2.609 0-1.178.897-2.063 1.94-2.609q.265-.138.556-.257V3.447c0-1.403-.01-2.104.445-2.363s1.058.099 2.264.815l.758.45c1.24.736 1.861 1.104 1.861 1.65 0 .547-.62.915-1.861 1.652zM6 5.073v-2.15L7.805 4zM4.5 11.25v-.954c-.749.428-.996.883-.996 1.204 0 .34.278.83 1.136 1.28.822.431 2.01.72 3.364.72 1.353 0 2.542-.289 3.364-.72.858-.45 1.136-.94 1.136-1.28s-.278-.83-1.136-1.28c-.822-.431-2.01-.72-3.364-.72-.726 0-1.404.083-2.004.227v1.523a.75.75 0 0 1-1.5 0"/></svg>