<svg xmlns="http://www.w3.org/2000/svg" viewBox="0 0 16 16"><path fill-rule="evenodd" d="M9 6.499a1 1 0 0 0-.999-.999A1 1 0 0 0 7 6.501V8a1 1 0 0 0 1.001 1h3.796c.752 0 1.36.623 1.3 1.373a23 23 0 0 1-.253 2.084c-.205 1.204-1.05 2.153-2.255 2.351C9.927 14.918 9.07 15 8 15a16 16 0 0 1-2.589-.192c-1.205-.198-2.05-1.147-2.255-2.351C2.978 11.41 2.812 9.922 2.812 8s.166-3.41.344-4.456c.205-1.205 1.05-2.155 2.257-2.353A16 16 0 0 1 8 1c1.07 0 1.926.083 2.588.191 1.206.198 2.051 1.148 2.256 2.353.116.681.227 1.55.29 2.603.044.743-.56 1.353-1.304 1.353H10c-.552 0-1-.449-1-1.001m2.582 4.001a21 21 0 0 1-.217 1.705c-.112.658-.527 1.042-1.02 1.123A14.5 14.5 0 0 1 8 13.5a14.5 14.5 0 0 1-2.346-.172c-.492-.08-.907-.465-1.02-1.123-.164-.965-.322-2.37-.322-4.205s.158-3.24.322-4.204c.113-.659.528-1.044 1.021-1.124A14.5 14.5 0 0 1 8 2.5c.993 0 1.767.077 2.345.172.493.08.908.465 1.02 1.124.099.578.195 1.313.256 2.204h-1.17a2.5 2.5 0 0 0-4.951.501V8a2.5 2.5 0 0 0 2.501 2.5z"/></svg>