<svg xmlns="http://www.w3.org/2000/svg" viewBox="0 0 16 16"><path d="M6.096 9.254c-.369 0-.553-.14-.564-.468h-.988c.016.893.58 1.216 1.552 1.216 1.016 0 1.501-.435 1.501-1.2 0-.497-.279-.798-.798-.915.458-.14.664-.458.664-.877 0-.68-.53-1.01-1.379-1.01-.815 0-1.423.28-1.434 1.161h.982c.023-.34.196-.419.464-.419s.413.112.413.347v.122c0 .235-.134.374-.402.374h-.352v.71h.352c.357 0 .536.122.536.407v.134c0 .312-.185.418-.547.418"/><path fill-rule="evenodd" d="M11.5 7.997C11.5 6.663 10.97 6 9.881 6c-1.094 0-1.619.663-1.619 1.997 0 1.357.525 1.999 1.62 1.999 1.088 0 1.618-.642 1.618-1.999m-.96.274c0 .653-.145.982-.659.982-.519-.005-.659-.33-.659-.982v-.553c0-.63.14-.977.66-.977.513 0 .658.369.658.977z"/><path d="M8 .867A.643.643 0 0 1 9.014.34C10.56 1.432 11.5 1.977 11.5 2.737s-.94 1.306-2.486 2.397A.643.643 0 0 1 8 4.608c0-.407.257-.75.618-1.007l.142-.1H8c-.423 0-.852.018-1.273.049-1.845.137-2.122.214-2.542.635-.42.42-.498.697-.635 2.542-.031.421-.05.85-.05 1.273s.019.852.05 1.274c.137 1.844.214 2.121.635 2.541.42.42.697.498 2.542.635.42.032.85.05 1.273.05s.852-.018 1.273-.05c1.845-.137 2.122-.214 2.542-.635.42-.42.514-.697.652-2.541q.02-.261.031-.524a.78.78 0 0 1 .769-.75c.414 0 .75.336.733.75q-.015.321-.037.635c-.13 1.744-.212 2.616-1.087 3.491s-1.747.94-3.491 1.07C8.933 13.98 8.466 14 8 14s-.933-.02-1.385-.054c-1.744-.13-2.616-.195-3.491-1.07s-.94-1.747-1.07-3.491A19 19 0 0 1 2 8c0-.466.02-.933.054-1.385.13-1.744.195-2.616 1.07-3.491s1.747-.94 3.491-1.07A19 19 0 0 1 8 2h.76l-.177-.127C8.222 1.617 8 1.273 8 .867"/></svg>