<svg xmlns="http://www.w3.org/2000/svg" viewBox="0 0 24 24"><path d="M14.521.405A.965.965 0 0 0 13 1.194c0 .496.24.754.615 1.02.428.303.79.56 1.097.786H12c-.7 0-1.399.03-2.077.081-2.616.195-3.924.292-5.237 1.605s-1.41 2.62-1.605 5.237C3.031 10.6 3 11.3 3 12s.03 1.4.081 2.077c.195 2.616.292 3.924 1.605 5.237s2.62 1.41 5.237 1.605C10.6 20.969 11.3 21 12 21s1.399-.03 2.077-.081c2.616-.195 3.924-.292 5.237-1.605s1.43-2.62 1.625-5.237q.04-.532.061-1.077a.97.97 0 0 0-.98-1c-.552 0-.999.448-1.022 1q-.019.466-.054.929c-.204 2.75-.338 3.265-1.044 3.97-.706.707-1.22.82-3.971 1.025-.637.048-1.287.076-1.929.076s-1.292-.028-1.929-.076c-2.75-.204-3.265-.318-3.97-1.024-.707-.706-.82-1.22-1.025-3.971A26 26 0 0 1 5 12c0-.642.028-1.292.076-1.929.204-2.75.318-3.265 1.024-3.97.706-.707 1.22-.82 3.971-1.025A26 26 0 0 1 12 5h2.712c-.307.226-.669.483-1.097.786-.375.266-.615.524-.615 1.02a.965.965 0 0 0 1.521.789l.005-.004C16.841 5.957 18 5.14 18 4S16.841 2.043 14.526.409z"/><path d="M9.14 13.879c-.553 0-.829-.21-.846-.703h-1.48C6.837 14.515 7.683 15 9.14 15c1.523 0 2.25-.652 2.25-1.799 0-.745-.418-1.197-1.196-1.372.686-.21.996-.687.996-1.314C11.19 9.494 10.395 9 9.123 9c-1.222 0-2.134.418-2.15 1.74h1.472c.033-.51.293-.627.695-.627s.619.167.619.519v.184c0 .351-.201.56-.603.56H8.63v1.064h.527c.536 0 .804.184.804.61v.201c0 .469-.277.628-.82.628"/><path fill-rule="evenodd" d="M17.152 11.996c0-2-.795-2.996-2.427-2.996-1.64 0-2.426.996-2.426 2.996 0 2.034.786 2.996 2.426 2.996 1.632 0 2.427-.963 2.427-2.996m-1.44.41c0 .98-.217 1.473-.987 1.473-.778-.008-.987-.494-.987-1.473v-.828c0-.946.21-1.465.987-1.465.77 0 .988.552.988 1.465z"/></svg>