<svg xmlns="http://www.w3.org/2000/svg" viewBox="0 0 32 32"><path d="M11.25 6.5A3.25 3.25 0 0 0 8 9.75a1.25 1.25 0 1 1-2.5 0A5.75 5.75 0 0 1 11.25 4h.125c1.878 0 3.55.881 4.625 2.253A5.87 5.87 0 0 1 20.627 4h.125a5.75 5.75 0 0 1 5.75 5.75 1.25 1.25 0 0 1-2.5 0 3.25 3.25 0 0 0-3.25-3.25h-.125a3.375 3.375 0 0 0-3.375 3.375v1.64a4.625 4.625 0 0 1 6.75 4.11v.126a1.25 1.25 0 0 1-2.5 0v-.126a2.125 2.125 0 0 0-4.25-.037v1.435a41 41 0 0 1 1.932.118c.27 1.301.742 2.288 1.731 3.278 1.678 1.677 3.35 1.866 6.557 2.108-.271 1.275-.744 2.249-1.72 3.225-1.75 1.75-3.494 1.88-6.982 2.14-.904.067-1.837.108-2.77.108-.932 0-1.865-.04-2.77-.108-3.487-.26-5.231-.39-6.982-2.14-.976-.976-1.448-1.95-1.72-3.225 3.208-.242 4.88-.43 6.558-2.108.99-.99 1.461-1.977 1.731-3.278a41 41 0 0 1 1.934-.118v-1.435a2.125 2.125 0 0 0-4.25.037v.126a1.25 1.25 0 1 1-2.5 0v-.126a4.625 4.625 0 0 1 6.75-4.11v-1.64A3.375 3.375 0 0 0 11.375 6.5z"/></svg>