<svg xmlns="http://www.w3.org/2000/svg" viewBox="0 0 24 24"><path d="M8.5 5A2.5 2.5 0 0 0 6 7.5a1 1 0 0 1-2 0 4.5 4.5 0 0 1 8-2.829A4.5 4.5 0 0 1 20 7.5a1 1 0 1 1-2 0 2.5 2.5 0 0 0-5 0v.837a3.5 3.5 0 0 1 5 3.163 1 1 0 1 1-2 0 1.5 1.5 0 0 0-3 0v1.52q.737.03 1.445.09c.211.853.565 1.528 1.24 2.204 1.26 1.258 2.513 1.4 4.918 1.581-.203.957-.558 1.687-1.29 2.419-1.312 1.313-2.62 1.41-5.236 1.605-.678.05-1.378.081-2.078.081s-1.399-.03-2.077-.081c-2.616-.195-3.924-.292-5.237-1.605-.732-.732-1.086-1.462-1.29-2.419 2.406-.18 3.66-.322 4.919-1.581.676-.676 1.03-1.35 1.24-2.203A31 31 0 0 1 11 13.02V11.5a1.5 1.5 0 0 0-3 0 1 1 0 1 1-2 0 3.5 3.5 0 0 1 5-3.163V7.5A2.5 2.5 0 0 0 8.5 5"/></svg>