<svg xmlns="http://www.w3.org/2000/svg" viewBox="0 0 44 44"><path d="M31.398 6.262a.433.433 0 0 0-.796 0L28.992 10a.43.43 0 0 1-.358.26l-4.052.376a.433.433 0 0 0-.246.757l3.057 2.686a.43.43 0 0 1 .137.42l-.895 3.971a.433.433 0 0 0 .644.468l3.5-2.078a.43.43 0 0 1 .442 0l3.5 2.078a.433.433 0 0 0 .644-.468l-.895-3.97a.43.43 0 0 1 .137-.421l3.057-2.686a.433.433 0 0 0-.246-.757l-4.052-.376a.43.43 0 0 1-.358-.26z"/><path fill-rule="evenodd" d="M30.5 26c1.426 0 2.796-.239 4.072-.678 1.213-.418 2.416-1.017 3.428-1.765-.135 1.4-.45 2.746-.923 4.016C34.815 33.662 28.877 38 22 38c-8.837 0-16-7.163-16-16 0-6.876 4.338-12.815 10.427-15.077A16 16 0 0 1 20.443 6c-.748 1.012-1.347 2.215-1.765 3.428A12.5 12.5 0 0 0 18 13.5C18 20.404 23.596 26 30.5 26m0 3q1.326-.002 2.592-.216A13 13 0 0 1 22 35c-7.18 0-13-5.82-13-13 0-4.693 2.488-8.807 6.216-11.092-.142.843-.216 1.71-.216 2.592C15 22.06 21.94 29 30.5 29"/></svg>