<svg xmlns="http://www.w3.org/2000/svg" viewBox="0 0 16 16"><path d="M11.646 2.096a.16.16 0 0 0-.292 0l-.59 1.372a.16.16 0 0 1-.132.095l-1.487.138a.16.16 0 0 0-.09.278l1.121.986a.16.16 0 0 1 .05.154l-.328 1.457a.16.16 0 0 0 .237.172l1.284-.762c.05-.03.112-.03.162 0l1.284.762a.16.16 0 0 0 .237-.172l-.329-1.457a.16.16 0 0 1 .05-.154l1.123-.986a.16.16 0 0 0-.09-.278l-1.488-.138a.16.16 0 0 1-.131-.095z"/><path d="M10.68 10c1.28 0 2.441-.515 3.286-1.348a6.001 6.001 0 1 1-6.619-6.617A4.68 4.68 0 0 0 10.68 10"/></svg>