<svg xmlns="http://www.w3.org/2000/svg" viewBox="0 0 24 24"><path d="M17.215 3.141a.233.233 0 0 0-.43 0l-.866 2.013a.23.23 0 0 1-.193.14l-2.182.202a.233.233 0 0 0-.132.408l1.646 1.446a.23.23 0 0 1 .074.227l-.482 2.138c-.045.2.17.356.347.252l1.884-1.12a.23.23 0 0 1 .238 0l1.884 1.12a.233.233 0 0 0 .347-.252l-.482-2.138a.23.23 0 0 1 .074-.227l1.646-1.446a.233.233 0 0 0-.132-.408l-2.182-.202a.23.23 0 0 1-.193-.14z"/><path fill-rule="evenodd" d="M17 14a7.14 7.14 0 0 0 4-1.232 9 9 0 0 1-.613 2.585A9.05 9.05 0 0 1 12 21a9 9 0 0 1-9-9c0-3.785 2.369-7.057 5.679-8.387A9 9 0 0 1 11.264 3a7.2 7.2 0 0 0-1.037 2.226A7 7 0 0 0 17 14m0 2q.389 0 .768-.033a7 7 0 1 1-9.736-9.736Q8 6.612 8 7a9 9 0 0 0 9 9"/></svg>