<svg xmlns="http://www.w3.org/2000/svg" viewBox="0 0 32 32"><path d="M23.292 4.191a.319.319 0 0 0-.584 0l-1.182 2.732a.32.32 0 0 1-.262.19l-2.975.275a.316.316 0 0 0-.18.553l2.244 1.963a.32.32 0 0 1 .1.307l-.657 2.902a.318.318 0 0 0 .473.342l2.569-1.519a.32.32 0 0 1 .324 0l2.569 1.519a.318.318 0 0 0 .473-.342l-.657-2.902a.32.32 0 0 1 .1-.307l2.244-1.963a.316.316 0 0 0-.18-.553l-2.974-.275a.32.32 0 0 1-.263-.19z"/><path fill-rule="evenodd" d="M22.833 18.5a9.3 9.3 0 0 0 5.128-1.534 12 12 0 0 1-.695 3.175C25.58 24.728 21.172 28 16 28 9.373 28 4 22.627 4 16c0-5.172 3.272-9.58 7.86-11.266a12 12 0 0 1 3.174-.696A9.3 9.3 0 0 0 13.5 9.167a9.333 9.333 0 0 0 9.333 9.333m0 2.5q.654 0 1.29-.07A9.5 9.5 0 1 1 11.07 7.877q-.07.636-.07 1.29C11 15.702 16.298 21 22.833 21"/></svg>