<svg xmlns="http://www.w3.org/2000/svg" viewBox="0 0 44 44"><path fill-rule="evenodd" d="M16.615 13.112c9.897-9.88 19.439-9.282 21.622-8.983a1.964 1.964 0 0 1 1.693 1.79c.142 1.676.484 8.918-3.943 14.64-1.54 1.992-3.757 3.193-5.519 3.899q-.42.168-.814.304c.164.163.316.316.445.448.12.122.231.238.315.33.039.041.091.1.14.16.019.024.07.087.122.17a1.6 1.6 0 0 1 .225.633c.02.157.035.49-.147.858-2.098 4.234-6.443 6.219-10.387 6.784-1.846.264-3.684.233-5.295-.054 1.37-2.258 2.839-4.542 4.173-6.33 1.55-2.078 3.662-4.556 5.41-6.54a202 202 0 0 1 2.845-3.156l.174-.188.035-.038-.482.381c-.645.512-1.545 1.233-2.564 2.07-2.047 1.68-4.543 3.799-6.421 5.616-2.407 2.328-5.276 5.686-7.566 8.497a208 208 0 0 0-3.867 4.896l-.056.074-.013.018-.004.004v.001c-.507.67-1.46.803-2.131.297a1.517 1.517 0 0 1-.298-2.126l.002-.002.004-.006.015-.02.058-.077.225-.294a211 211 0 0 1 5.117-6.395c-.44-.92-.608-1.96-.6-3.004.012-1.503.386-3.154 1.005-4.812 1.238-3.32 3.55-6.918 6.482-9.845"/></svg>