<svg xmlns="http://www.w3.org/2000/svg" viewBox="0 0 24 24"><path fill-rule="evenodd" d="M10.184 8.217c3.56-3.568 7.955-4.14 9.82-4.21.018 1.424-.198 4.195-1.85 6.401-.562.752-1.433 1.277-2.264 1.624a8.3 8.3 0 0 1-1.584.487 1.01 1.01 0 0 0-.52 1.718c.074.072.446.434.796.78l.101.1a4.4 4.4 0 0 1-1.124.877c-.735.42-1.638.73-2.575.9-.938.172-1.87.195-2.654.074a4.5 4.5 0 0 1-.865-.215c.75-.92 1.523-1.82 2.23-2.55.781-.806 1.828-1.763 2.764-2.588a102 102 0 0 1 2.073-1.778l.052-.043.017-.014a1 1 0 0 0 .135-1.407.996.996 0 0 0-1.405-.134l-.019.015-.054.046a85 85 0 0 0-.936.79c-.341.292-.747.643-1.18 1.024-.947.835-2.04 1.833-2.877 2.696a40 40 0 0 0-2.018 2.28c-.009-.529.134-1.194.478-2.012.664-1.577 1.947-3.346 3.46-4.861M4.73 16.99c-.8-1.392-.487-3.158.158-4.69.793-1.882 2.252-3.86 3.886-5.497 4.528-4.537 10.191-4.817 11.779-4.802a1.435 1.435 0 0 1 1.423 1.355c.076 1.241.111 5.13-2.226 8.251-.866 1.158-2.106 1.858-3.092 2.27q-.143.06-.279.112l.265.275c.022.024.054.06.084.098a1.1 1.1 0 0 1 .168.294 1 1 0 0 1-.043.796c-.49.983-1.352 1.735-2.308 2.28-.963.548-2.085.925-3.205 1.129-1.118.204-2.275.243-3.314.083-.639-.099-1.277-.28-1.838-.576L6 18.61a105 105 0 0 0-2.097 2.838l-.068.095-.022.032a.996.996 0 0 1-1.39.242 1 1 0 0 1-.241-1.393l.025-.035.071-.1a75 75 0 0 1 .778-1.076A107 107 0 0 1 4.73 16.99"/></svg>