<svg xmlns="http://www.w3.org/2000/svg" viewBox="0 0 44 44"><path fill-rule="evenodd" d="M18.766 15.26c7.922-7.909 15.418-8.355 18.182-8.203.072 2.338-.189 7.536-3.369 11.647-1.064 1.375-2.707 2.32-4.243 2.935-1.513.606-2.765.83-2.88.85a1.525 1.525 0 0 0-.808 2.602 257 257 0 0 1 1.858 1.821c-1.642 2.436-4.539 3.792-7.571 4.227-1.672.24-3.297.181-4.622-.094a8 8 0 0 1-1.451-.439c1.481-1.707 3.006-3.371 4.38-4.7 1.878-1.817 4.374-3.937 6.42-5.616a203 203 0 0 1 3.527-2.827l.052-.04.012-.01.003-.003h.001a1.517 1.517 0 0 0 .268-2.132 1.523 1.523 0 0 0-2.135-.267l-.001.002-.004.002-.014.012-.055.042-.21.164-.772.61c-.655.52-1.568 1.251-2.603 2.1-2.062 1.692-4.636 3.875-6.607 5.782-1.258 1.217-2.62 2.684-3.954 4.197v-.13c.008-1.043.276-2.334.814-3.776 1.075-2.881 3.136-6.116 5.782-8.756M9.728 30.773c-.44-.92-.608-1.96-.6-3.004.012-1.503.386-3.154 1.005-4.812 1.238-3.32 3.55-6.918 6.482-9.845 9.897-9.88 19.439-9.282 21.622-8.983a1.964 1.964 0 0 1 1.693 1.79c.142 1.676.484 8.918-3.943 14.64-1.54 1.992-3.757 3.193-5.519 3.899q-.42.168-.814.304c.163.163.316.316.445.448.12.122.231.238.315.33.039.041.091.1.14.16.019.024.07.087.122.17a1.6 1.6 0 0 1 .225.633c.02.157.035.49-.147.858-2.098 4.234-6.443 6.219-10.387 6.784-1.993.285-3.975.226-5.674-.127-1.012-.21-2.008-.543-2.854-1.029a209 209 0 0 0-5.03 6.31l-.056.074-.013.018-.004.004v.001c-.507.67-1.46.803-2.131.297a1.517 1.517 0 0 1-.298-2.126l.002-.002.004-.006.015-.02.058-.077.225-.294a211 211 0 0 1 5.117-6.395"/></svg>