<svg xmlns="http://www.w3.org/2000/svg" viewBox="0 0 24 24"><path fill-rule="evenodd" d="M20.553 2c-1.588-.014-7.251.266-11.779 4.803-1.634 1.638-3.093 3.616-3.886 5.498-.645 1.53-.958 3.297-.158 4.689a99 99 0 0 0-1.82 2.422 95 95 0 0 0-.677.94l-.037.054-.014.02a.997.997 0 1 0 1.631 1.15l.011-.016.036-.05a74 74 0 0 1 .66-.919c.336-.46.77-1.047 1.265-1.697a88 88 0 0 1 1.357-1.74c.361-.452.732-.903 1.102-1.338.498-.587.99-1.138 1.452-1.614a39 39 0 0 1 1.51-1.46 81 81 0 0 1 1.656-1.48A107 107 0 0 1 14.47 9.89l.098-.082.033-.027q.052-.044.099-.093l-.044.051-.03.033-.088.099-.328.37c-.28.316-.667.759-1.102 1.268-.875 1.024-1.923 2.291-2.664 3.32-.917 1.275-1.888 2.768-2.702 4.066q.143.028.284.05c1.039.16 2.196.121 3.314-.083 1.12-.204 2.242-.58 3.205-1.13.956-.544 1.817-1.296 2.308-2.28a1 1 0 0 0-.045-.976 1 1 0 0 0-.08-.113 2 2 0 0 0-.084-.098 8 8 0 0 0-.265-.275q.136-.053.28-.112c.985-.412 2.225-1.112 3.091-2.27 2.337-3.122 2.302-7.01 2.226-8.251a1.435 1.435 0 0 0-1.423-1.355"/></svg>