<svg xmlns="http://www.w3.org/2000/svg" viewBox="0 0 16 16"><path fill-rule="evenodd" d="M7.018 5.07c2.387-2.272 5.18-2.572 6.46-2.574-.074 1.044-.374 2.958-1.5 4.385-.821 1.043-2.02 1.374-2.143 1.405-.527.133-.808.83-.344 1.28.058.056.305.295.536.522l.063.062q-.264.363-.773.64c-.513.279-1.169.46-1.863.545a7 7 0 0 1-1.942-.024 4 4 0 0 1-.452-.097c.383-.45.767-.877 1.125-1.238.587-.592 1.403-1.306 2.084-1.881a66 66 0 0 1 1.109-.915l.068-.055.017-.014.004-.003h.001a.747.747 0 0 0 .118-1.052.75.75 0 0 0-1.054-.118l-.002.002-.005.004-.019.015-.07.057a55 55 0 0 0-1.136.937c-.687.58-1.545 1.33-2.181 1.97-.226.229-.46.48-.696.742.046-.272.12-.573.227-.894.4-1.213 1.212-2.602 2.368-3.702m-3.989 6.254a3.1 3.1 0 0 1-.162-.98c-.01-.622.122-1.325.358-2.042C3.7 6.87 4.638 5.266 5.982 3.987c3.039-2.891 6.628-3.03 7.877-2.98.664.026 1.16.579 1.136 1.227-.037.99-.276 3.592-1.837 5.572a5.6 5.6 0 0 1-1.812 1.48l.055.057a5 5 0 0 1 .174.187.76.76 0 0 1 .164.356.75.75 0 0 1-.03.374c-.3.854-.947 1.45-1.675 1.845-.726.393-1.578.615-2.398.715-.824.1-1.656.083-2.364-.032a5 5 0 0 1-.99-.255 3 3 0 0 1-.223-.096q-.208.264-.402.514a66 66 0 0 0-1.2 1.603l-.072.098-.018.026-.004.006-.001.001a.75.75 0 0 1-1.047.177.747.747 0 0 1-.176-1.043l.002-.003.005-.007.02-.027.074-.104.276-.378a68 68 0 0 1 1.513-1.976"/></svg>