<svg xmlns="http://www.w3.org/2000/svg" viewBox="0 0 24 24"><path d="M22 12h-.005c0-5.523-4.476-10-9.998-10S2 6.477 2 12v2.5q0 .278.013.554c.053 1.141.08 1.712.703 2.316.622.604 1.137.612 2.167.628h.235c1.03-.017 1.544-.025 2.165-.628s.648-1.173.702-2.313a12 12 0 0 0 0-1.116c-.054-1.14-.08-1.71-.702-2.313-.621-.603-1.136-.611-2.165-.628H4.061a8 8 0 0 1 15.872 0c-.352 0-.704-.005-1.057 0-1.029.017-1.543.025-2.165.628-.62.603-.648 1.173-.701 2.313a12 12 0 0 0 0 1.116c.053 1.14.08 1.71.701 2.313.622.603 1.136.611 2.165.628.24.004.48-.002.72-.01-.098.24-.266.504-.636.875-.447.449-.747.602-1.06.699-.42.13-.944.184-2.022.278q-.86.076-1.882.12A1.998 1.998 0 1 0 11.997 22c1.55 0 2.901-.068 4.054-.168 2.024-.175 3.037-.263 4.326-1.557 1.287-1.293 1.37-2.263 1.53-4.2z"/><path d="M11.997 11.5a1 1 0 0 1-1-1V8a1 1 0 1 1 2 0v2.5a1 1 0 0 1-1 1m1.248 2.5a1.249 1.249 0 1 0-2.498 0 1.249 1.249 0 0 0 2.498 0"/></svg>