<svg xmlns="http://www.w3.org/2000/svg" viewBox="0 0 24 24"><path fill-rule="evenodd" d="M20.707 3.293a1 1 0 0 1 0 1.414l-2.059 2.059q.38.375.685.847c1.128 1.755 1.046 4.075-.382 5.682-.928 1.043-2.117 2.3-3.293 3.303-.586.5-1.192.96-1.778 1.297-.564.325-1.22.605-1.88.605-.604 0-1.205-.235-1.734-.523l2.855-2.856A3 3 0 1 0 8.88 10.88l-3.16 3.156q-.353-.383-.672-.741c-1.428-1.607-1.51-3.927-.382-5.682C6.317 5.048 9.801 4.64 12 6.531c1.39-1.195 3.293-1.472 4.921-.867l2.372-2.371a1 1 0 0 1 1.414 0m-9 9a1 1 0 0 1 0 1.414l-4.675 4.675a13 13 0 0 0 .526-.093l.016-.004h.003a1 1 0 0 1 .415 1.956H7.99l-.002.001-.007.002-.024.005a9 9 0 0 1-.39.072 14 14 0 0 1-.968.133 7 7 0 0 1-1.218.033 3 3 0 0 1-.639-.11 1.7 1.7 0 0 1-.712-.407 1.7 1.7 0 0 1-.406-.712 3 3 0 0 1-.11-.638 7 7 0 0 1 .031-1.219 14 14 0 0 1 .203-1.351l.007-.034.002-.01.001-.004a1 1 0 0 1 1.957.412v.006l-.006.024a9 9 0 0 0-.083.466l-.01.06 4.677-4.677a1 1 0 0 1 1.414 0"/></svg>