<svg xmlns="http://www.w3.org/2000/svg" viewBox="0 0 16 16"><path fill-rule="evenodd" d="M13.53 2.47a.75.75 0 0 1 0 1.06l-1.403 1.404q.338.299.595.707c.713 1.14.654 2.631-.257 3.677-.586.673-1.345 1.495-2.092 2.154a8 8 0 0 1-1.132.86c-.353.213-.79.418-1.241.418-.45 0-.888-.204-1.24-.418l-.162-.102 1.816-1.816a2 2 0 1 0-2.828-2.828L3.684 9.488l-.15-.17c-.91-1.046-.968-2.538-.256-3.677C4.322 3.969 6.548 3.666 8 4.819a3.22 3.22 0 0 1 2.727-.606L12.47 2.47a.75.75 0 0 1 1.06 0M4.374 12.687 7.53 9.53a.75.75 0 0 0-1.06-1.06l-1.58 1.578-.789.789-.789.789a16 16 0 0 1 .053-.436l.009-.061.002-.015v-.004a.75.75 0 0 0-1.484-.22v.008l-.004.02-.01.07a17 17 0 0 0-.106 1.029c-.02.288-.032.612-.015.895.009.14.026.295.061.441.03.121.098.354.286.542s.421.256.542.286c.146.035.3.052.441.06.284.018.607.006.895-.014a16 16 0 0 0 1.029-.107l.07-.01.02-.002.005-.001h.002a.75.75 0 0 0-.219-1.484h-.004l-.015.003-.061.008a14 14 0 0 1-.436.053"/></svg>