<svg xmlns="http://www.w3.org/2000/svg" viewBox="0 0 44 44"><path fill-rule="evenodd" d="M37.06 6.94a1.5 1.5 0 0 1 0 2.12l-4.364 4.366a8.4 8.4 0 0 1 2.015 2.215c1.864 2.958 1.737 6.829-.608 9.55-1.605 1.864-3.681 4.122-5.745 5.926-1.03.901-2.093 1.72-3.12 2.322-.994.583-2.12 1.061-3.238 1.061a5.1 5.1 0 0 1-1.712-.286l-.754-.288a1.5 1.5 0 1 1 1.179-2.746c.564.21 1.08.32 1.287.32.32 0 .886-.16 1.722-.65.802-.47 1.706-1.156 2.661-1.991 1.908-1.668 3.878-3.804 5.448-5.626 1.423-1.652 1.555-4.068.342-5.993-2.017-3.201-6.609-3.406-8.902-.397l-.078.102L22 18.51l-1.193-1.565-.078-.102c-2.293-3.01-6.885-2.804-8.902.397-1.213 1.925-1.08 4.342.342 5.993l.116.134a1.52 1.52 0 0 1-.066 2.071 1.48 1.48 0 0 1-2.167-.068l-.155-.179c-2.345-2.721-2.473-6.591-.608-9.55 2.832-4.496 8.934-5.187 12.711-1.822 2.2-1.96 5.189-2.544 7.861-1.801l5.078-5.079a1.5 1.5 0 0 1 2.122 0m-15.5 15.5a1.5 1.5 0 0 1 0 2.12l-9.78 9.782a23 23 0 0 0 .856-.138l.044-.008.027-.005.006-.002a1.5 1.5 0 1 1 .574 2.945h-.005l-.011.003-.039.007-.137.026c-.117.02-.283.049-.483.08-.398.063-.945.14-1.524.191-.57.05-1.221.082-1.813.038a4.7 4.7 0 0 1-.935-.158c-.294-.085-.713-.25-1.062-.599-.35-.35-.514-.768-.599-1.062a4.7 4.7 0 0 1-.158-.935 11.5 11.5 0 0 1 .038-1.812 23 23 0 0 1 .297-2.145l.007-.039.002-.01v-.004l.001-.002a1.5 1.5 0 1 1 2.944.575v.005l-.006.027a13 13 0 0 0-.091.535q-.027.168-.055.365l9.781-9.78a1.5 1.5 0 0 1 2.122 0"/></svg>