<svg xmlns="http://www.w3.org/2000/svg" viewBox="0 0 44 44"><path fill-rule="evenodd" d="M37.06 6.94a1.5 1.5 0 0 1 0 2.12l-4.364 4.366a8.4 8.4 0 0 1 2.015 2.215c1.864 2.958 1.737 6.829-.608 9.55-1.605 1.864-3.681 4.122-5.745 5.926-1.03.901-2.093 1.72-3.12 2.322-.994.583-2.12 1.061-3.238 1.061s-2.244-.478-3.238-1.06q-.552-.326-1.114-.724l6.034-6.034a4.5 4.5 0 0 0-6.364-6.364l-6.229 6.229a87 87 0 0 1-1.192-1.356c-2.345-2.721-2.473-6.591-.609-9.55 2.833-4.496 8.935-5.187 12.712-1.822 2.2-1.96 5.189-2.544 7.861-1.801l5.078-5.079a1.5 1.5 0 0 1 2.122 0m-15.5 17.62a1.5 1.5 0 0 0-2.12-2.12l-9.782 9.78a23 23 0 0 1 .146-.9l.005-.027.002-.006a1.5 1.5 0 1 0-2.945-.573v.004l-.003.011-.007.039a18 18 0 0 0-.106.62c-.063.398-.14.945-.191 1.524-.05.57-.082 1.221-.038 1.813.023.295.067.621.158.935.085.294.25.713.599 1.062.35.35.768.514 1.062.599.313.09.64.135.935.158a11.5 11.5 0 0 0 1.813-.038 23 23 0 0 0 2.144-.297l.039-.007.01-.002h.004l.002-.001a1.5 1.5 0 1 0-.575-2.944h-.005l-.027.006a14 14 0 0 1-.535.091l-.365.055z"/></svg>