<svg xmlns="http://www.w3.org/2000/svg" viewBox="0 0 44 44"><path fill-rule="evenodd" d="M12.035 7.034c-2.363 2.363-2.539 4.717-2.89 9.426A52 52 0 0 0 9 20.2v9.97a13.3 13.3 0 0 0-1.956 5.1C6.691 37.435 8.53 39 10.409 39h21.27c.969 0 1.895-.393 2.529-1.078.656-.708.99-1.735.668-2.818a9 9 0 0 0-.37-1.009A8.8 8.8 0 0 0 33 31.768V23.2c0-5.539.118-11.077.173-13.339.017-.706.112-1.419.466-2.03.247-.426.582-.831.962-.831v-.003a1.5 1.5 0 0 0-.101-2.998h-8.9v.002l-.4-.002c-1.26 0-2.518.055-3.739.146-4.709.35-7.063.526-9.426 2.889m.344 23.675C13.942 28.945 16.013 28 18.122 28s4.181.945 5.743 2.709l.048.054a2.65 2.65 0 0 0 2.001.903c.834 0 1.657.155 2.424.453a6.3 6.3 0 0 1 2.037 1.28 5.8 5.8 0 0 1 1.344 1.891q.135.306.23.622a.3.3 0 0 1-.083.05.5.5 0 0 1-.186.036H10.409a.44.44 0 0 1-.318-.12.2.2 0 0 1-.044-.068.13.13 0 0 1-.003-.065c.313-1.918 1.13-3.676 2.335-5.036M22 14.5a1.5 1.5 0 0 1 3 0v8a1.5 1.5 0 0 1-3 0zM16.5 13a1.5 1.5 0 0 0-1.5 1.5v2a1.5 1.5 0 0 0 3 0v-2a1.5 1.5 0 0 0-1.5-1.5"/></svg>