<svg xmlns="http://www.w3.org/2000/svg" viewBox="0 0 32 32"><path fill-rule="evenodd" d="M9.244 5.19C7.538 6.899 7.358 8.599 7.105 12A37 37 0 0 0 7 14.7v6.457a10.1 10.1 0 0 0-1.467 3.9c-.27 1.713 1.149 2.94 2.585 2.94h14.328a2.62 2.62 0 0 0 1.941-.847c.506-.56.765-1.374.518-2.232a6.6 6.6 0 0 0-.904-1.914V17.3c0-3.874.08-7.804.12-9.556.015-.625.112-1.265.48-1.77.188-.257.363-.474.6-.474h.049a1.25 1.25 0 1 0 0-2.5h-6.497c-.91 0-1.819.04-2.7.105-3.401.254-5.102.38-6.809 2.087M17.25 9.5c-.69 0-1.25.56-1.25 1.25v5a1.25 1.25 0 1 0 2.5 0v-5c0-.69-.56-1.25-1.25-1.25M11 10.749a1.25 1.25 0 0 1 2.5 0v1.5a1.25 1.25 0 1 1-2.5 0zM9.53 21.895c1.038-1.25 2.396-1.898 3.757-1.898 1.36 0 2.72.648 3.758 1.898l.036.044c.384.47.95.724 1.527.724a4.09 4.09 0 0 1 3.888 2.829.2.2 0 0 1-.05.005H8.118a.2.2 0 0 1-.143-.052l-.001-.001c.216-1.36.762-2.596 1.555-3.55"/></svg>