<svg xmlns="http://www.w3.org/2000/svg" viewBox="0 0 24 24"><path fill-rule="evenodd" d="M5.458 3.141c-.948.31-1.663.938-2.07 1.828-.392.857-.466 1.882-.316 2.98.265 1.932.722 2.94 1.518 4.695l.265.585c.101.225.209.474.322.738.403.935.884 2.054 1.446 2.903.367.553.843 1.115 1.468 1.448.687.367 1.47.412 2.267.055.704-.315 1.212-.761 1.515-1.315.3-.548.347-1.107.3-1.568a3.7 3.7 0 0 0-.303-1.114 4 4 0 0 0-.22-.427l-.008-.012-.027-.05-.112-.214c-.094-.186-.22-.446-.344-.742-.266-.63-.466-1.284-.466-1.73 0-2.548-.516-4.675-1.37-6.123C8.49 3.67 7.1 2.605 5.457 3.141m4.444 11.79.016.029.015.021v.002l.02.035a1.7 1.7 0 0 1 .224.67.7.7 0 0 1-.066.417c-.057.104-.196.279-.577.45-.233.104-.361.077-.494.006-.194-.104-.446-.344-.741-.789-.328-.494-.616-1.09-.898-1.723l1.765-.701q.073.187.142.352a14 14 0 0 0 .577 1.2l.012.022.003.006zm-1.21-3.543a4 4 0 0 1-.005-.188c0-2.316-.475-4.062-1.095-5.112C6.95 4.999 6.38 4.939 6.084 5.036c-.43.14-.701.39-.87.758-.183.401-.273 1.014-.154 1.886.224 1.637.57 2.4 1.368 4.163l.17.377zm8.799-5.47c-.815-.547-1.755-.71-2.725-.481-1.682.397-2.307 2.027-2.275 3.66.034 1.68.713 3.76 2.054 5.93.235.381.408 1.043.513 1.718a12 12 0 0 1 .115 1.052l.003.057v.014l.003.114a3.9 3.9 0 0 0 .36 1.471 2.7 2.7 0 0 0 1.082 1.18c.55.315 1.218.43 1.984.333.867-.11 1.51-.556 1.903-1.225.357-.61.467-1.336.488-1.998.033-1.016-.146-2.22-.295-3.226a50 50 0 0 1-.114-.797l-.082-.637c-.245-1.909-.385-3.006-1.177-4.79-.45-1.014-1.052-1.85-1.837-2.376m-.31 11.878v-.034a13 13 0 0 0-.026-.373 14 14 0 0 0-.18-1.326l1.875-.32c.093.687.16 1.344.141 1.936-.017.533-.106.868-.216 1.057-.077.13-.172.22-.425.252-.415.053-.625-.024-.728-.083a.7.7 0 0 1-.277-.32 1.7 1.7 0 0 1-.145-.508 2 2 0 0 1-.017-.18v-.068zm1.39-4.029-2.222.38a4 4 0 0 0-.095-.163c-1.219-1.974-1.733-3.708-1.757-4.926-.025-1.262.428-1.61.732-1.68.44-.105.803-.034 1.14.193.368.246.767.722 1.124 1.527.67 1.512.777 2.342 1.024 4.26z"/></svg>