<svg xmlns="http://www.w3.org/2000/svg" viewBox="0 0 24 24"><path fill-rule="evenodd" d="M8.06 1.655a1 1 0 0 1 1.285-.593S14.759 2.679 18 4.25c.27.132.642.307.847.404a4 4 0 0 1 .301.138c.412.21.808.507 1.234.934 1.29 1.294 1.37 2.265 1.532 4.206a25 25 0 0 1 0 4.137c-.162 1.942-.243 2.912-1.532 4.207s-2.302 1.381-4.327 1.557c-1.153.1-2.505.168-4.055.168s-2.902-.068-4.055-.168c-2.024-.176-3.036-.264-4.326-1.557-1.29-1.294-1.37-2.264-1.532-4.205a25 25 0 0 1 0-4.14C2.25 7.99 2.33 7.02 3.62 5.726s2.302-1.382 4.326-1.557a46 46 0 0 1 3.597-.166L8.654 2.939a1 1 0 0 1-.593-1.284M14 14a2 2 0 1 0 0-4 2 2 0 0 0 0 4m0 2a4 4 0 1 0 0-8 4 4 0 0 0 0 8M7 8a1 1 0 0 0 0 2h1a1 1 0 0 0 0-2zm-1 4a1 1 0 0 1 1-1h1a1 1 0 1 1 0 2H7a1 1 0 0 1-1-1m1 2a1 1 0 1 0 0 2h1a1 1 0 1 0 0-2z"/></svg>