<svg xmlns="http://www.w3.org/2000/svg" viewBox="0 0 24 24"><path d="M12.002 15H17.7a61 61 0 0 1 2.108 2.605.965.965 0 0 1-.096 1.27l-.834.835a.965.965 0 0 1-1.27.095c-1.014-.77-3.082-2.414-5.605-4.805m-5.701 0h5.697c-2.523 2.391-4.591 4.035-5.604 4.805a.965.965 0 0 1-1.271-.095l-.835-.835a.965.965 0 0 1-.095-1.27A61 61 0 0 1 6.302 15m11.396-6a61 61 0 0 0 2.109-2.606.965.965 0 0 0-.096-1.27l-.834-.835a.965.965 0 0 0-1.27-.095C16.592 4.964 14.524 6.609 12 9zM6.394 4.194C7.408 4.964 9.476 6.609 12 9H6.302a61 61 0 0 1-2.108-2.606.965.965 0 0 1 .095-1.27l.835-.835a.965.965 0 0 1 1.27-.095M14.464 14c1.107 0 1.792-.489 1.792-1.594v-.112a.5.5 0 0 0-.501-.5h-.9a.39.39 0 1 0 0 .778h.311c-.038.384-.238.54-.702.54-.388 0-.663-.1-.663-.75v-.706c0-.673.286-.767.663-.767.158 0 .292.02.396.079.082.047.159.109.235.17.152.124.303.245.49.245.329 0 .603-.29.471-.59-.25-.576-.804-.793-1.592-.793-1.106 0-1.77.478-1.77 1.983 0 1.561.664 2.017 1.77 2.017"/><path fill-rule="evenodd" d="M.501 13.917h.983C2.71 13.917 3.4 13.483 3.4 12c0-1.472-.69-1.917-1.916-1.917H.501a.5.5 0 0 0-.501.5v2.834a.5.5 0 0 0 .501.5m1.793-1.678c0 .605-.276.733-.81.733H1.08v-1.944h.405c.534 0 .81.166.81.722zm3.07-2.156a.5.5 0 0 0-.48.357l-.862 2.875a.468.468 0 1 0 .899.263l.113-.395h1.317l.101.344a.544.544 0 1 0 1.044-.31l-.833-2.777a.5.5 0 0 0-.48-.357zm-.087 2.267.416-1.417.415 1.417z"/><path d="M9.54 10.083c.203 0 .386.122.464.309l.875 2.102v-1.913a.499.499 0 0 1 .999 0v2.836a.5.5 0 0 1-.502.5h-.648a.5.5 0 0 1-.463-.308L9.39 11.51v1.908a.499.499 0 0 1-.999 0v-2.836a.5.5 0 0 1 .501-.5zm10.37 3.375a.46.46 0 0 1-.459.459H17.58a.5.5 0 0 1-.502-.5v-2.834a.5.5 0 0 1 .502-.5h1.867a.459.459 0 1 1 0 .917h-1.29v.5h.856a.445.445 0 1 1 0 .889h-.855V13h1.294c.254 0 .46.205.46.458"/><path fill-rule="evenodd" d="M23.406 12.467c.378-.2.594-.578.594-1.123 0-.822-.523-1.26-1.403-1.26h-1.34a.5.5 0 0 0-.5.5v2.794a.54.54 0 0 0 1.079 0v-.74h.513l.44.975a.517.517 0 0 0 .943-.424zm-.512-1.167v.111c0 .211-.124.339-.367.339h-.691v-.778h.69c.254 0 .368.122.368.328"/></svg>