<svg xmlns="http://www.w3.org/2000/svg" viewBox="0 0 32 32"><path d="M16.29 20h7.063a87 87 0 0 1 2.877 3.502 1.29 1.29 0 0 1-.12 1.706l-.905.905a1.29 1.29 0 0 1-1.706.12c-1.316-1.02-3.961-3.156-7.209-6.233m-7.643 0h7.063c-3.246 3.075-5.89 5.21-7.205 6.229a1.29 1.29 0 0 1-1.706-.12l-.905-.905a1.29 1.29 0 0 1-.12-1.707A87 87 0 0 1 8.647 20m14.708-8a87 87 0 0 0 2.87-3.495 1.29 1.29 0 0 0-.12-1.706l-.904-.905a1.29 1.29 0 0 0-1.706-.12C22.18 6.794 19.538 8.927 16.293 12zM8.5 5.77c1.316 1.02 3.96 3.155 7.207 6.23H8.644A87 87 0 0 1 5.77 8.501a1.29 1.29 0 0 1 .12-1.706l.905-.905A1.29 1.29 0 0 1 8.5 5.77m10.786 12.895c1.475 0 2.389-.651 2.389-2.126v-.148c0-.368-.3-.666-.668-.666h-1.201a.52.52 0 1 0 0 1.037h.415c-.05.51-.316.718-.935.718-.518 0-.885-.133-.885-1v-.94c0-.897.381-1.023.885-1.023.21 0 .388.026.527.105.11.063.212.146.314.229.203.163.403.325.654.325.438 0 .802-.387.628-.787-.335-.767-1.073-1.057-2.123-1.057-1.475 0-2.36.637-2.36 2.644 0 2.082.885 2.69 2.36 2.69"/><path fill-rule="evenodd" d="M.668 18.554h1.31c1.634 0 2.555-.577 2.555-2.555 0-1.963-.92-2.556-2.554-2.556H.669A.67.67 0 0 0 0 14.11v3.778c0 .368.3.666.668.666m2.39-2.237c0 .808-.367.978-1.08.978H1.44v-2.593h.54c.712 0 1.08.223 1.08.963zm4.094-2.874a.67.67 0 0 0-.64.476l-1.15 3.834a.623.623 0 1 0 1.2.35l.15-.527h1.756l.135.458a.726.726 0 1 0 1.392-.412L8.884 13.92a.67.67 0 0 0-.64-.476zm-.116 3.022.554-1.889.554 1.89z"/><path d="M12.72 13.443c.271 0 .515.162.618.411l1.168 2.804v-2.55a.665.665 0 0 1 1.33 0v3.78a.667.667 0 0 1-.668.666h-.864a.67.67 0 0 1-.617-.41l-1.168-2.797v2.543a.665.665 0 0 1-1.33 0v-3.78c0-.368.298-.667.668-.667zm13.828 4.5a.61.61 0 0 1-.613.611h-2.497a.67.67 0 0 1-.668-.666V14.11c0-.368.299-.667.668-.667h2.49a.612.612 0 1 1 0 1.222h-1.719v.667h1.14a.593.593 0 1 1 0 1.185h-1.14v.815h1.726c.338 0 .613.274.613.611"/><path fill-rule="evenodd" d="M31.208 16.62c.504-.266.792-.77.792-1.495 0-1.097-.698-1.682-1.871-1.682h-1.786a.67.67 0 0 0-.668.667v3.726a.719.719 0 0 0 1.44 0v-.985h.683l.587 1.298a.69.69 0 0 0 1.257-.564zm-.683-1.555v.149c0 .281-.166.451-.49.451h-.92v-1.037h.92c.339 0 .49.163.49.437"/></svg>