<svg xmlns="http://www.w3.org/2000/svg" viewBox="0 0 24 24"><path d="M10.002 4.162c0-.583-.497-1.047-1.075-.979a28 28 0 0 0-1.677.251A4.71 4.71 0 0 0 3.434 7.25 26.7 26.7 0 0 0 3 12c0 1.853.206 3.497.434 4.75a4.71 4.71 0 0 0 3.816 3.816c1.253.228 2.897.434 4.75.434s3.497-.206 4.75-.434a4.71 4.71 0 0 0 3.816-3.816c.09-.5.178-1.062.25-1.675.069-.578-.395-1.075-.978-1.075-.52 0-.954.399-1.017.915a25 25 0 0 1-.223 1.477 2.71 2.71 0 0 1-2.206 2.206A25 25 0 0 1 12 19c-1.708 0-3.23-.19-4.392-.402a2.71 2.71 0 0 1-2.206-2.206A24.7 24.7 0 0 1 5 12c0-1.708.19-3.23.402-4.392a2.71 2.71 0 0 1 2.206-2.206c.444-.08.94-.159 1.48-.224.515-.062.914-.496.914-1.016"/><path d="M21 11a.97.97 0 0 1-.983 1c-.553 0-1-.448-1.024-1a35 35 0 0 0-.441-4.12l-6.84 6.836a1 1 0 1 1-1.417-1.416l6.853-6.85a35 35 0 0 0-4.146-.446A1.035 1.035 0 0 1 12 3.982a.97.97 0 0 1 1.002-.981c1.725.066 3.386.29 4.66.506 1.098.187 1.647.28 2.099.731.451.45.545 1 .732 2.097.217 1.272.44 2.941.506 4.664"/></svg>