<svg xmlns="http://www.w3.org/2000/svg" viewBox="0 0 24 24"><path fill-rule="evenodd" d="M6.499 3A3 3 0 0 0 3.5 6v3c0 1.657 1.342 3 2.999 3H11v6.506a69 69 0 0 0-3.113.103c-1.228.07-1.842.105-2.372.659-.353.368-.474.725-.519 1.232h14.008c-.045-.507-.166-.863-.519-1.232-.53-.554-1.143-.589-2.372-.659A69 69 0 0 0 13 18.506V12h4.501A3 3 0 0 0 20.5 9V6c0-1.657-1.342-3-2.999-3zm1.026 2v1.833h.267L9.157 5h1.61L9.011 7.384 10.92 10H9.157l-1.41-1.935h-.222V10H6V5zm6.791 0 .694 2.862L15.713 5H18v5h-1.525V6.217l-.801 3.189H14.05l-.801-3.189V10h-1.411V5z"/></svg>