<svg xmlns="http://www.w3.org/2000/svg" viewBox="0 0 44 44"><path fill-rule="evenodd" d="M12.33 7h19.34A5.33 5.33 0 0 1 37 12.333v5.334A5.33 5.33 0 0 1 31.67 23H23.5v11.008c2.768.03 4.981.141 6.618.26 1.666.12 2.499.18 3.226 1.173.368.502.555.979.656 1.559H10c.1-.58.288-1.057.656-1.559.727-.992 1.56-1.053 3.226-1.173 1.636-.119 3.849-.23 6.618-.26V23h-8.17A5.33 5.33 0 0 1 7 17.667v-5.334A5.33 5.33 0 0 1 12.33 7m2.212 6.933V11H12v8h2.542v-3.096h.369L17.262 19h2.936l-3.177-4.185L19.944 11h-2.682l-2.275 2.933zm12.475 1.647L25.862 11H21.73v8h2.351v-6.052l1.335 5.101h2.707l1.335-5.101V19H32v-8h-3.813z"/></svg>