<svg xmlns="http://www.w3.org/2000/svg" viewBox="0 0 32 32"><path fill-rule="evenodd" d="M8.998 4h14.004C25.212 4 27 5.79 27 8v4c0 2.21-1.789 4-3.998 4H17.25v8.507c2.05.025 3.685.107 4.889.193 1.208.087 1.813.13 2.342.85.333.453.463.876.522 1.45H7c.059-.574.19-.998.522-1.45.53-.72 1.134-.763 2.342-.85a82 82 0 0 1 4.886-.193V16H8.998A4 4 0 0 1 5 12V8c0-2.21 1.789-4 3.998-4m1.036 5.111V6.667H8v6.666h2.034v-2.58h.294l1.882 2.58h2.349l-2.542-3.488 2.338-3.178H12.21L10.39 9.11zm9.98 1.372-.925-3.816h-3.305v6.666h1.881V8.29l1.068 4.251h2.166l1.067-4.251v5.043H24V6.667h-3.05z"/></svg>