<svg xmlns="http://www.w3.org/2000/svg" viewBox="0 0 17 17"><path fill-rule="evenodd" d="M8.538 2.693a.8.8 0 0 1 .228-.033h2.124a.797.797 0 1 1 0 1.594H9.562v5.042c0 .44-.356.797-.796.797h-.623c.34.275.603.642.751 1.063h1.2V5.577c0-.44.356-.796.796-.796h1.818c1.014 0 1.83.75 2.326 1.413.508.68.903 1.579.903 2.323v.117q-.007.689-.06 1.313c-.086 1.054-.14 1.721-.546 2.384a.8.8 0 0 1-.589.41 2.392 2.392 0 0 1-4.512.008H8.893a2.392 2.392 0 0 1-3.85.983 2.391 2.391 0 1 1-3.1-3.64H1.86a.797.797 0 0 1-.797-.796v-3.78c0-.352.232-.662.57-.763zm-.57 1.833v3.973h-5.31V6.11zm3.72 5.17a2.38 2.38 0 0 1 2.558.636l.043-.514a16 16 0 0 0 .054-1.301h.008v-.018h-.716a.744.744 0 0 1-.74-.67l-.145-1.453-.042-.002h-1.02zm-9.036 2.255a.798.798 0 1 1 1.595 0 .798.798 0 0 1-1.595 0m3.986-.798a.798.798 0 1 0 0 1.595.798.798 0 0 0 0-1.595m5.05.798a.798.798 0 1 1 1.594 0 .798.798 0 0 1-1.595 0"/></svg>