<svg xmlns="http://www.w3.org/2000/svg" viewBox="0 0 44 44"><path fill-rule="evenodd" d="M22.052 8.068A1.5 1.5 0 0 1 22.498 8h5a1.5 1.5 0 1 1 0 3h-3.5v13.5a1.5 1.5 0 0 1-1.5 1.5h-5.5v.1a5.01 5.01 0 0 1 3.9 3.9h5.1V14.5a1.5 1.5 0 0 1 1.5-1.5h4.399c1.092 0 2.133.505 2.976 1.083.876.6 1.717 1.401 2.443 2.257a14.5 14.5 0 0 1 1.853 2.747c.458.9.829 1.929.829 2.896V22a42 42 0 0 1-.137 3.383c-.257 3.21-.395 4.93-2.285 7.035A1.5 1.5 0 0 1 36.39 33h-.806a5.001 5.001 0 0 1-9.168 0h-5.834a5 5 0 0 1-8.084 1.57 5 5 0 1 1-3.5-8.57h-3.5a1.5 1.5 0 0 1-1.5-1.5v-9.698a1.5 1.5 0 0 1 1.053-1.432zM28.998 16h2.5l.749 4.48a1.8 1.8 0 0 0 1.775 1.503h2.976v.034c0 1.09-.048 2.138-.127 3.126-.147 1.828-.236 2.755-.477 3.525a4 4 0 0 1-.544 1.112 5.002 5.002 0 0 0-6.852-3.363zm-13 17a2 2 0 1 1 0-4 2 2 0 0 1 0 4m-7-4a2 2 0 1 1 0 4 2 2 0 0 1 0-4M29 31a2 2 0 1 1 4 0 2 2 0 0 1-4 0"/></svg>