<svg xmlns="http://www.w3.org/2000/svg" viewBox="0 0 24 24"><path fill-rule="evenodd" d="M7.945 4.168A47 47 0 0 1 12 4c1.55 0 2.902.068 4.055.168 2.025.175 3.037.263 4.327 1.557s1.37 2.265 1.532 4.207a25 25 0 0 1 0 4.137c-.162 1.941-.243 2.912-1.532 4.206s-2.302 1.382-4.327 1.557c-1.153.1-2.505.168-4.055.168a47 47 0 0 1-4.055-.168c-2.024-.175-3.036-.263-4.326-1.557S2.25 16.01 2.087 14.07a25 25 0 0 1 0-4.14c.162-1.94.243-2.911 1.532-4.205s2.302-1.381 4.326-1.557m2.82 8.258V8.79H8.46l-2.25 3.753v1.07h3.05V15h1.504v-1.386h.927v-1.188zm3.698-1.197h-.396v-2.44h-1.503V15h1.503v-2.492h.387l1.8 2.493h1.755l-2.313-3.222L17.82 8.79h-1.61zM9.262 9.735v2.69H7.65z"/></svg>