<svg xmlns="http://www.w3.org/2000/svg" viewBox="0 0 16 16"><path fill-rule="evenodd" d="M11.215 12.863c-.884.079-1.957.136-3.216.136s-2.332-.057-3.216-.136c-1.3-.117-1.95-.176-2.75-.972-.8-.795-.857-1.387-.97-2.57a14 14 0 0 1 0-2.643c.113-1.183.17-1.775.97-2.57.8-.796 1.45-.855 2.75-.972A36 36 0 0 1 7.999 3c1.259 0 2.331.057 3.216.136 1.3.117 1.95.175 2.75.971s.857 1.388.97 2.572a14 14 0 0 1 0 2.64c-.113 1.185-.17 1.776-.97 2.572s-1.45.855-2.75.972m-4.04-4.58V5.86H5.64l-1.5 2.5v.714h2.034V10h1.002v-.924h.618v-.792zm2.466-.798h-.264V5.86H8.375V10h1.002V8.336h.258l1.2 1.662h1.17L10.463 7.85l1.416-1.991h-1.074zM6.174 6.49v1.794H5.1z"/></svg>