<svg xmlns="http://www.w3.org/2000/svg" viewBox="0 0 24 24"><path d="M13 2c.553 0 .999.448 1.024 1q.017.35.043.698c.183 2.46.286 2.829.846 3.389.537.537.898.654 3.087.823V6.541c0-.427.484-.685.853-.455C20.95 7.398 22 8.054 22 9s-1.05 1.602-3.147 2.914c-.369.23-.853-.028-.853-.455V9.916c-2.223-.166-3.36-.274-4.501-1.415-1.167-1.167-1.254-2.33-1.427-4.655q-.03-.418-.05-.846A.967.967 0 0 1 13 2M7.387 4.153a2.3 2.3 0 0 0-1.314-.1c-.693.155-1.789.528-2.626 1.408-.428.439-.738.862-.967 1.356-.805 1.73-.526 3.78.335 5.481.688 1.359 1.87 3.148 3.891 5.17s3.64 3.031 4.998 3.719c1.702.861 3.752 1.14 5.481.335.498-.23.923-.543 1.365-.975.874-.836 1.245-1.928 1.4-2.618.094-.421.06-.914-.101-1.315a5.2 5.2 0 0 0-1.135-1.73c-.867-.868-1.301-1.302-2.337-1.324s-1.546.446-2.563 1.38c-.296.272-.588.563-.86.859l-.358-.304-4.09-4.09-.306-.36c.296-.273.587-.564.859-.86.934-1.017 1.401-1.526 1.38-2.562-.023-1.037-.456-1.47-1.323-2.337a5.2 5.2 0 0 0-1.729-1.133"/></svg>