<svg xmlns="http://www.w3.org/2000/svg" viewBox="0 0 16 16"><path fill-rule="evenodd" d="M2.5 9.408c0-.446.025-.76.077-.99.162-1.018.615-2.247 1.68-4.089a.64.64 0 0 1 .357-.291.744.744 0 0 1 .853.313l.096.15q.076-.156.156-.308.302-.579.642-1.086a9.3 9.3 0 0 1 1.671-1.914c.603-.516 1.436.06 1.642.826.317 1.184 1.084 2.173 1.849 3.159.99 1.276 1.977 2.548 1.977 4.233 0 3.148-2.406 5.59-5.5 5.59s-5.5-2.442-5.5-5.59zm1.5.003c0-.412.025-.595.04-.661l.01-.047.008-.047c.092-.576.317-1.313.858-2.395l.83 1.28 1.164-2.38c.44-.9.948-1.642 1.481-2.228.453 1.24 1.247 2.263 1.879 3.077l.068.087C11.386 7.449 12 8.32 12 9.41c0 1.082-.375 2.038-1 2.752-.007-1.096-.522-1.768-.835-2.178l-.04-.052c-.267-.35-.492-.65-.65-1.291a1.5 1.5 0 0 0-2.516-.706c-.897.896-1.95 2.408-1.96 4.227C4.376 11.448 4 10.493 4 9.411m2.941 1.054c.287-.568.68-1.07 1.078-1.467.171.7.42 1.153.666 1.508q.133.19.259.352c.307.403.556.73.556 1.328 0 .75-.605 1.312-1.481 1.312s-1.52-.562-1.52-1.312c0-.608.175-1.193.442-1.721"/></svg>