<svg xmlns="http://www.w3.org/2000/svg" viewBox="0 0 24 24"><path fill-rule="evenodd" d="M4 14c0-.588.03-1.017.094-1.338.218-1.542.866-3.468 2.443-6.199.39-.677 1.381-.63 1.798.031q.1.16.203.315c.965-1.893 2.151-3.41 3.445-4.516.902-.771 2.15.098 2.482 1.238.48 1.646 1.571 3.03 2.66 4.41C18.564 9.77 20 11.59 20 14.001c0 4.205-3.05 7.53-7.116 7.953Q12.514 22 12 22c-4.5 0-8-3.495-8-8m9.888.133c.614.896 1.112 1.622 1.112 2.95C15 18.75 13.79 20 12.038 20S9 18.75 9 17.083c0-2.8 1.502-5.38 3.038-7.083.465 2.114 1.22 3.214 1.85 4.133"/></svg>