<svg xmlns="http://www.w3.org/2000/svg" viewBox="0 0 16 16"><path fill-rule="evenodd" d="M12.566 2c.425 0 .77.35.77.783v.426h.382c.78 0 1.38.704 1.269 1.49l-.25 1.778a1.29 1.29 0 0 1-1.27 1.12h-2.316a9 9 0 0 1-.094.955c-.07.439-.196.954-.442 1.38-.256.444-.712.89-1.417.89H7.024a.26.26 0 0 0-.249.197l-.498 1.997A1.286 1.286 0 0 1 5.034 14H2.278a1.29 1.29 0 0 1-1.255-1.539c.116-.62.316-1.628.505-2.25.233-.765.727-1.28 1.143-1.599.296-.226.408-.464.408-.618a.393.393 0 0 0-.39-.397h-.397c-.147 0-.291-.149-.415-.34-.33-.505-.44-1.13-.38-1.733a7 7 0 0 1 .207-1.028 1.74 1.74 0 0 1 1.685-1.287h.086v-.426c0-.433.345-.783.77-.783.424 0 .769.35.769.783v.426h6.783v-.426c0-.433.344-.783.77-.783M9.61 7.597H8.552a.84.84 0 0 0-.831.846c0 .369.235.695.581.806l.024.008h.872a.4.4 0 0 0 .09-.118c.104-.179.192-.47.25-.838.039-.24.06-.484.072-.704M6.37 9.382a2.4 2.4 0 0 1-.188-.94c0-1.33 1.061-2.41 2.37-2.41h4.694l.176-1.257H3.39c-.12 0-.185.072-.2.132a5.4 5.4 0 0 0-.16.778 4 4 0 0 0-.018.374 1.95 1.95 0 0 1 1.606 1.935c0 .847-.53 1.494-1.021 1.87-.258.196-.492.463-.598.81-.134.442-.287 1.165-.403 1.76h2.24l.449-1.8A1.82 1.82 0 0 1 6.37 9.382"/></svg>