<svg xmlns="http://www.w3.org/2000/svg" viewBox="0 0 24 24"><path fill-rule="evenodd" d="M17.44 4.5a.98.98 0 0 1 .99.968v.484h.59c1.205 0 2.13 1.043 1.96 2.209l-.212 1.451c-.14.954-.975 1.662-1.96 1.662h-2.366a10 10 0 0 1-.116 1.123c-.088.527-.245 1.15-.555 1.666-.323.537-.9 1.082-1.795 1.082h-3.66l-.645 2.84C9.47 18.87 8.667 19.5 7.74 19.5H4.97c-1.198 0-2.138-1.04-1.945-2.22.146-.887.377-2.189.604-2.905.293-.926.915-1.55 1.437-1.934.366-.269.498-.546.498-.719a.453.453 0 0 0-.458-.448H4.61c-.204 0-.402-.215-.569-.48a3.2 3.2 0 0 1-.452-2.039c.051-.485.2-1.048.318-1.448.246-.835 1.03-1.355 1.865-1.355h.286v-.484c0-.535.443-.968.99-.968s.989.433.989.968v.484h8.412v-.484c0-.535.443-.968.99-.968m-5.159 8.71h1.685a.5.5 0 0 0 .099-.128c.126-.21.234-.555.307-.995.046-.276.073-.557.088-.813h-1.312c-.636 0-1.151.504-1.151 1.126v.212c0 .233.107.45.284.598m-2.193.012a1.965 1.965 0 0 0-1.704 1.503l-.645 2.84H4.983c.15-.917.36-2.062.537-2.618.13-.41.417-.724.736-.958.617-.454 1.287-1.237 1.287-2.267 0-1.172-.865-2.147-2.005-2.346a5 5 0 0 1 .02-.422 7 7 0 0 1 .239-1.067H19.02l-.212 1.452h-5.66c-1.73 0-3.13 1.37-3.13 3.06v.213q0 .313.07.61"/></svg>