<svg xmlns="http://www.w3.org/2000/svg" viewBox="0 0 44 44"><path fill-rule="evenodd" d="M32.308 9c.828 0 1.498.659 1.498 1.472v1.115h1.197c1.847 0 3.254 1.625 2.958 3.415l-.512 3.092c-.236 1.425-1.488 2.471-2.957 2.471h-5.319a18 18 0 0 1-.214 2.214c-.153.928-.426 2-.952 2.88-.545.912-1.498 1.804-2.962 1.804H18.34l-1.222 5.25C16.806 34.051 15.594 35 14.198 35H8.874C7.392 35 5.985 33.879 6 32.22c.015-1.604.28-4.388 1.711-7.199a6.9 6.9 0 0 1 1.124-1.626l.087-.092c.41-.431.779-.82 1.067-1.228.312-.442.394-.723.394-.885a.63.63 0 0 0-.636-.625H8.435c-.24 0-.475-.198-.686-.478-.795-1.05-1.006-2.43-.869-3.731.11-1.049.49-2.346.718-3.07.327-1.04 1.304-1.7 2.36-1.7h1.302v-1.114c0-.813.67-1.472 1.498-1.472s1.498.659 1.498 1.472v1.115H30.81v-1.115c0-.813.67-1.472 1.498-1.472M19.095 24.52h-1.153c-1.164 0-2.174.79-2.433 1.906l-1.312 5.63H9c.032-1.368.29-3.555 1.392-5.719.221-.434.444-.732.637-.937l.107-.112c.383-.403.897-.943 1.314-1.534.454-.641.93-1.523.93-2.564 0-1.947-1.586-3.529-3.558-3.567 0-.34.01-.685.04-.964.064-.612.281-1.449.484-2.129h24.658l-.511 3.092h-9.727c-3.163 0-5.727 2.52-5.727 5.627v.574q0 .353.057.697m3.126 0h2.83c.037.002.158.008.373-.352.248-.414.446-1.065.578-1.861.1-.601.15-1.213.173-1.741h-1.41c-1.508 0-2.731 1.2-2.731 2.683v.574c0 .247.066.486.187.697"/></svg>