<svg xmlns="http://www.w3.org/2000/svg" viewBox="0 0 24 24"><path fill-rule="evenodd" d="M18.582 5.484a.997.997 0 0 0-1.01-.984.997.997 0 0 0-1.01.984v.737h-8.59v-.737a.997.997 0 0 0-1.01-.984.997.997 0 0 0-1.01.984v.737H5.66c-.746 0-1.442.463-1.66 1.2-.12.404-.267.96-.317 1.43-.074.702.03 1.442.44 2.024.108.155.229.264.351.264h.506a.71.71 0 0 1 .72.701c0 .285-.203.631-.609.928-.507.372-1.1.966-1.378 1.842-.273.859-.564 2.619-.698 3.482-.117.748.48 1.408 1.245 1.408h3.813c.592 0 1.105-.4 1.233-.963l.747-3.27a.24.24 0 0 1 .095-.144h3.704c.757 0 1.316-.375 1.677-.838.337-.432.523-.957.635-1.414.149-.61.2-1.252.215-1.732h2.853c.729 0 1.347-.522 1.45-1.224l.303-2.066c.126-.859-.559-1.628-1.45-1.628h-.953zm-4.225 5.655H13.19c-.789 0-1.428.623-1.428 1.39v.216q0 .218.087.41h2.012a.3.3 0 0 0 .059-.06c.092-.118.195-.34.278-.68.104-.423.145-.895.16-1.276"/></svg>