<svg xmlns="http://www.w3.org/2000/svg" viewBox="0 0 16 16"><path fill-rule="evenodd" d="M13.514 2.8c0-.442-.356-.8-.794-.8a.797.797 0 0 0-.795.8v.703H4.922V2.8c0-.442-.356-.8-.795-.8a.797.797 0 0 0-.794.8v.703h-.09c-.669 0-1.297.429-1.483 1.118a7 7 0 0 0-.205 1.009c-.061.599-.018 1.265.377 1.717.058.066.118.108.18.108h.41a.67.67 0 0 1 .667.672c0 .276-.188.588-.527.845-.402.305-.868.79-1.086 1.5-.216.705-.452 1.926-.562 2.524A.848.848 0 0 0 1.846 14h3.262a.85.85 0 0 0 .82-.643l.556-2.203a.53.53 0 0 1 .289-.352H9c1.115 0 1.593-.96 1.782-1.58.187-.615.233-1.305.243-1.767h2.81a.85.85 0 0 0 .838-.733l.318-2.245a.85.85 0 0 0-.838-.974h-.64zM9.436 7.455h-.86c-.621 0-1.124.506-1.124 1.13 0 .225.066.438.18.617h1.372c.02 0 .028 0 .06-.036.056-.061.131-.19.2-.413.12-.397.162-.897.172-1.298"/></svg>