<svg xmlns="http://www.w3.org/2000/svg" viewBox="0 0 17 17"><path d="M5.207 6.062c-.776 0-1.24.37-1.24 1.991v.13c.389-.478 1.003-.74 1.758-.74 1.38 0 2.328.697 2.328 2.373 0 1.643-.97 2.579-2.889 2.579-2.08 0-3.04-1.056-3.04-3.874 0-3.069 1.283-3.917 3.137-3.917 1.725 0 2.576.881 2.652 2.034H6.102c-.097-.359-.356-.576-.895-.576m-.043 4.929c.658 0 1.046-.272 1.046-1.023v-.326c0-.73-.41-.98-1.046-.98-.69 0-1.1.327-1.1 1.165 0 .87.41 1.164 1.1 1.164M14.873 8.5c0 2.643-1.024 3.895-3.125 3.895-2.113 0-3.126-1.252-3.126-3.896 0-2.6 1.013-3.895 3.126-3.895 2.101 0 3.125 1.295 3.125 3.895m-1.854.532V7.955c0-1.186-.28-1.904-1.271-1.904-1.003 0-1.272.675-1.272 1.904v1.077c0 1.273.27 1.905 1.271 1.915.992 0 1.272-.642 1.272-1.915"/></svg>