<svg xmlns="http://www.w3.org/2000/svg" viewBox="0 0 24 24"><path d="M7.352 8.559c-1.095 0-1.75.522-1.75 2.811v.185c.548-.676 1.416-1.045 2.48-1.045 1.949 0 3.288.983 3.288 3.349 0 2.32-1.37 3.641-4.078 3.641C4.354 17.5 3 16.01 3 12.03 3 7.699 4.811 6.5 7.428 6.5c2.435 0 3.638 1.244 3.744 2.873H8.615c-.136-.507-.502-.814-1.263-.814m-.06 6.96c.928 0 1.476-.385 1.476-1.445v-.46c0-1.03-.579-1.384-1.477-1.384-.973 0-1.552.461-1.552 1.644 0 1.23.579 1.644 1.553 1.644M21 12c0 3.733-1.446 5.5-4.413 5.5-2.983 0-4.413-1.767-4.413-5.5 0-3.672 1.43-5.5 4.413-5.5C19.554 6.5 21 8.328 21 12m-2.617.753v-1.521c0-1.675-.396-2.689-1.796-2.689-1.415 0-1.796.953-1.796 2.689v1.52c0 1.798.38 2.69 1.796 2.705 1.4 0 1.796-.907 1.796-2.704"/></svg>