<svg xmlns="http://www.w3.org/2000/svg" viewBox="0 0 44 44"><path d="M13.736 15.882c-1.948 0-3.112.929-3.112 4.998v.328c.974-1.202 2.516-1.857 4.41-1.857 3.463 0 5.844 1.748 5.844 5.954 0 4.124-2.435 6.473-7.25 6.473-5.222 0-7.63-2.65-7.63-9.723 0-7.703 3.22-9.833 7.873-9.833 4.329 0 6.466 2.213 6.655 5.108h-4.545c-.243-.902-.893-1.448-2.245-1.448m-.109 12.372c1.65 0 2.625-.682 2.625-2.567v-.82c0-1.83-1.028-2.457-2.625-2.457-1.731 0-2.76.819-2.76 2.922 0 2.185 1.029 2.922 2.76 2.922M37.998 22c0 6.637-2.57 9.778-7.846 9.778-5.302 0-7.846-3.141-7.846-9.778 0-6.528 2.544-9.778 7.846-9.778 5.276 0 7.846 3.25 7.846 9.778m-4.653 1.338v-2.704c0-2.977-.704-4.78-3.193-4.78-2.516 0-3.192 1.694-3.192 4.78v2.704c0 3.196.676 4.78 3.192 4.807 2.49 0 3.193-1.611 3.193-4.807"/></svg>