<svg xmlns="http://www.w3.org/2000/svg" viewBox="0 0 24 24"><path fill-rule="evenodd" d="M3.081 9.923c.195-2.616.292-3.924 1.605-5.237s2.62-1.41 5.237-1.605C10.6 3.031 11.3 3 12 3s1.399.03 2.077.081c2.616.195 3.924.292 5.237 1.605s1.41 2.62 1.605 5.237C20.969 10.6 21 11.3 21 12s-.03 1.399-.081 2.077c-.195 2.616-.292 3.924-1.605 5.237s-2.62 1.41-5.237 1.605C13.4 20.969 12.7 21 12 21s-1.399-.03-2.077-.081c-2.616-.195-3.924-.292-5.237-1.605s-1.41-2.62-1.605-5.237A28 28 0 0 1 3 12c0-.7.03-1.399.081-2.077M13.217 8.12c.322-.396.538-.948.48-1.497-.464.02-1.025.315-1.358.71-.298.351-.559.913-.488 1.45.516.042 1.044-.266 1.366-.663m1.16 3.484c.012 1.392 1.178 1.873 1.233 1.896h.002l-.001.006c-.02.07-.206.689-.636 1.328-.384.571-.782 1.14-1.41 1.152-.301.006-.503-.083-.712-.175-.22-.097-.448-.197-.808-.197-.378 0-.616.103-.846.203-.2.086-.392.17-.663.18-.606.024-1.068-.617-1.455-1.186-.79-1.164-1.395-3.289-.583-4.723.403-.713 1.123-1.164 1.906-1.176.337-.006.663.126.95.241.218.088.412.167.57.167.14 0 .33-.076.55-.165.348-.14.774-.31 1.213-.265.3.013 1.143.124 1.685.93l-.004.002c-.08.05-1.002.62-.992 1.782"/></svg>