<svg xmlns="http://www.w3.org/2000/svg" viewBox="0 0 16 16"><path fill-rule="evenodd" d="M3.123 3.124C2.25 4 2.184 4.87 2.054 6.612 2.02 7.065 2 7.533 2 8s.02.935.054 1.389c.13 1.742.195 2.613 1.07 3.487.873.874 1.744.94 3.486 1.07.454.033.922.054 1.39.054s.935-.02 1.388-.055c1.742-.13 2.613-.195 3.487-1.069s.94-1.745 1.07-3.487c.033-.454.054-.921.054-1.39 0-.467-.02-.935-.055-1.388-.13-1.742-.195-2.613-1.069-3.488-.874-.874-1.745-.939-3.487-1.069A19 19 0 0 0 8 2.001c-.467 0-.935.02-1.389.054-1.742.13-2.613.195-3.487 1.07M10.495 8.9c-.037-.014-.814-.322-.822-1.213-.007-.743.608-1.109.66-1.14q.003 0 .003-.002c-.36-.516-.923-.587-1.123-.595-.292-.029-.576.08-.808.17-.147.057-.273.105-.367.105-.105 0-.235-.05-.38-.106-.19-.074-.409-.158-.633-.154a1.51 1.51 0 0 0-1.27.752c-.542.918-.139 2.278.388 3.022.258.364.566.775.97.76.18-.007.309-.06.442-.116.153-.064.312-.13.564-.13.24 0 .392.064.538.126.14.06.274.116.475.112.418-.007.684-.371.94-.737.286-.409.41-.806.424-.85zM9.22 4.5c.04.35-.105.704-.319.958-.214.253-.566.45-.91.424-.048-.344.126-.703.325-.928.222-.253.595-.442.904-.454"/></svg>