<svg xmlns="http://www.w3.org/2000/svg" viewBox="0 0 44 44"><path d="M14.048 8.49c2.004-1.93 3.006-2.991 4.237-2.991s2.233 1.061 4.237 2.99l4.542 4.373a7.3 7.3 0 0 0-1.55.85c-.8.56-1.66 1.348-2.54 2.153l-2.177 1.993c-1.293 1.183-2.491 2.28-3.283 3.236-.72.87-2.043 2.719-1.168 4.97.586 1.51 1.82 2.233 2.837 2.57a94 94 0 0 0-.123 2.383 192 192 0 0 0-8.338.27l-.162.008q-.382.019-.785.045a102 102 0 0 1-.275-7.118c0-1.508.045-3.016.114-4.449-2.662-.023-4.151-.17-4.529-1.108-.449-1.113.898-2.41 3.592-5.004z"/><path fill-rule="evenodd" d="M29 15.5c-1.193 0-2.177.896-4.146 2.688l-1.922 1.75c-2.864 2.607-4.296 3.91-3.853 5.044.31.791 1.35 1.03 3.272 1.102a7 7 0 0 0-.043.378c-.183 2.113-.355 4.825-.355 7.537-4.617 0-8.223.129-10.778.268-2.22.12-3.33.18-4.3 1.173-.49.502-.74.979-.875 1.559h30l-.003-.012.003-2.985c0-2.713-.146-5.426-.33-7.54a7 7 0 0 0-.043-.377c1.936-.071 2.983-.309 3.294-1.104.443-1.133-.99-2.437-3.852-5.043l-1.923-1.75C31.177 16.396 30.193 15.5 29 15.5m-1.486 12.153c.032-.436.048-.654.267-.873s.437-.235.873-.268a5 5 0 0 1 .692 0c.436.033.654.05.873.268s.235.437.267.873a5 5 0 0 1 0 .692c-.032.436-.048.654-.267.873s-.437.235-.873.267a5 5 0 0 1-.692 0c-.436-.032-.654-.048-.873-.267s-.235-.437-.267-.873a5 5 0 0 1 0-.692"/></svg>