<svg xmlns="http://www.w3.org/2000/svg" viewBox="0 0 24 24"><path d="M7.59 4.627c1.127-1.085 1.69-1.628 2.383-1.628s1.256.543 2.383 1.628l2.26 2.175c-.3.135-.566.301-.8.469-.472.34-.974.813-1.469 1.279l-1.204 1.133c-.696.654-1.366 1.284-1.813 1.84-.405.504-1.228 1.67-.664 3.09.308.777.885 1.224 1.428 1.474l-.023.404a108 108 0 0 0-4.52.15q-.214.01-.45.024A54 54 0 0 1 5 13.476c0-.848.025-1.696.064-2.502-1.497-.013-2.304-.096-2.516-.624-.253-.626.505-1.355 2.02-2.814z"/><path fill-rule="evenodd" d="M16 8.5c-.678 0-1.234.525-2.345 1.574l-1.035.977c-1.549 1.463-2.323 2.194-2.074 2.826.168.425.705.564 1.687.61l-.01.105a55 55 0 0 0-.204 3.908H12c-2.636 0-4.684.073-6.12.15-1.209.065-1.813.098-2.342.637-.365.372-.486.717-.537 1.213h17v-1.561c-.003-1.57-.118-3.136-.222-4.347l-.01-.106c.981-.045 1.518-.184 1.686-.61.25-.63-.525-1.362-2.074-2.825l-1.035-.977C17.234 9.024 16.678 8.5 16 8.5m-.813 6.187c-.146.146-.156.291-.178.582a3 3 0 0 0 0 .461c.022.291.032.436.178.582s.291.157.582.178a3 3 0 0 0 .461 0c.291-.021.436-.032.582-.178s.157-.29.178-.582a3 3 0 0 0 0-.461c-.021-.29-.032-.436-.178-.582s-.29-.156-.582-.178a3 3 0 0 0-.461 0c-.29.022-.436.032-.582.178"/></svg>