<svg xmlns="http://www.w3.org/2000/svg" viewBox="0 0 24 24"><path fill-rule="evenodd" d="M9.5 3H4a1 1 0 0 0 0 2h4.773l.948 2.933c-.204.414-.383.914-.61 1.554q-.09.254-.173.513H8a1 1 0 1 0 0 2h.189A7.4 7.4 0 0 0 8 13.634V17a1 1 0 1 0 2 0v-.5h2.493l1.132 3.5H4a1 1 0 1 0 0 2h11a1 1 0 0 0 .951-1.308L14.595 16.5H20v.5a1 1 0 1 0 2 0v-3.366c0-.607-.081-1.163-.189-1.634H22a1 1 0 1 0 0-2h-.938a14 14 0 0 0-.172-.513c-.523-1.465-.784-2.197-1.698-2.842C18.277 6 17.294 6 15.328 6h-.656c-1.613 0-2.564 0-3.359.356l-.862-2.664A1 1 0 0 0 9.5 3m8.934 5.72c.151.276.292.653.57 1.434A47 47 0 0 0 14.997 10c-1.688 0-3.013.069-4 .153.277-.78.418-1.157.569-1.433.104-.19.197-.3.395-.44.29-.205.537-.28 2.711-.28h.656c2.174 0 2.421.075 2.711.28.198.14.29.25.395.44M10 14.5h10v-.866c0-.443-.061-.857-.145-1.217a.16.16 0 0 0-.066-.096.6.6 0 0 0-.312-.113c-.954-.103-2.43-.208-4.48-.208s-3.524.105-4.476.208a.6.6 0 0 0-.31.113.16.16 0 0 0-.066.095c-.084.36-.145.775-.145 1.218z"/><path d="M4 7a1 1 0 0 1 1 1v2a1 1 0 1 1-2 0V8a1 1 0 0 1 1-1m1 7a1 1 0 1 0-2 0v3a1 1 0 1 0 2 0z"/></svg>