<svg xmlns="http://www.w3.org/2000/svg" viewBox="0 0 32 32"><path fill-rule="evenodd" d="M5.25 4h7.497c.547 0 1.03.356 1.194.878l1.137 3.645C16.138 8 17.388 8 19.572 8h.853c2.555 0 3.833 0 5.023.839 1.189.838 1.528 1.79 2.207 3.694q.082.231.16.467h1.433a1.25 1.25 0 0 1 0 2.5h-.556l.04.153c.15.664.266 1.443.266 2.27v4.327a1.25 1.25 0 0 1-2.5 0v-.75h-7.373l1.818 5.878A1.25 1.25 0 0 1 19.754 29H6.245a1.247 1.247 0 1 1 0-2.494h11.808L16.507 21.5h-3.01v.75a1.25 1.25 0 1 1-2.5 0v-4.326a10.3 10.3 0 0 1 .306-2.424h-.555a1.25 1.25 0 0 1 0-2.5h1.434q.077-.236.16-.467c.284-.795.508-1.425.76-1.95L11.828 6.5H5.25a1.25 1.25 0 1 1 0-2.5m18.757 6.882c-.408-.288-.766-.382-3.582-.382h-.853c-2.816 0-3.174.094-3.582.382-.27.19-.4.345-.544.606-.19.347-.366.812-.69 1.718C16.03 13.093 17.76 13 19.995 13c2.238 0 3.97.094 5.246.206-.324-.906-.5-1.37-.69-1.718a1.6 1.6 0 0 0-.544-.606m-10.51 7.368V19h13v-1.076c0-.6-.084-1.19-.204-1.717a.46.46 0 0 0-.166-.265.9.9 0 0 0-.487-.186c-1.22-.129-3.074-.256-5.645-.256s-4.424.127-5.641.256a.9.9 0 0 0-.486.186.46.46 0 0 0-.165.263 8 8 0 0 0-.205 1.719v.326"/><path d="M6.5 10.25a1.25 1.25 0 1 0-2.5 0v3a1.25 1.25 0 1 0 2.5 0zm0 8a1.25 1.25 0 1 0-2.5 0v4a1.25 1.25 0 1 0 2.5 0z"/></svg>