<svg xmlns="http://www.w3.org/2000/svg" viewBox="0 0 44 44"><path d="M6.437 6.44A1.5 1.5 0 0 1 7.498 6h10a1.5 1.5 0 0 1 1.428 1.044l.833 2.606a8 8 0 0 0-.748.468c-2.09 1.473-2.873 3.27-3.637 5.384a4 4 0 0 0-2.245 7.223 16 16 0 0 0-.133 2.015V31a4 4 0 0 0 7.71 1.5h6.35l1.77 5.544A1.5 1.5 0 0 1 27.399 40h-19.9a1.5 1.5 0 0 1-1.5-1.5v-6h.498a1.5 1.5 0 0 0 1.5-1.5v-6.5a1.5 1.5 0 0 0-1.5-1.5h-.498v-3h.498a1.5 1.5 0 0 0 1.5-1.5v-5a1.5 1.5 0 0 0-1.5-1.5h-.498V7.5c0-.398.158-.78.44-1.06"/><path fill-rule="evenodd" d="M40.496 18h-1.652q-.119-.366-.246-.724c-.94-2.636-1.41-3.954-3.056-5.115S32.126 11 28.586 11h-1.18c-3.538 0-5.308 0-6.955 1.161-1.646 1.161-2.116 2.48-3.056 5.115q-.128.358-.246.724h-1.653a1.5 1.5 0 0 0 0 3h.566q-.124.303-.2.633a14 14 0 0 0-.366 3.108V31a1.5 1.5 0 1 0 3 0v-1h19v1a1.5 1.5 0 1 0 3 0v-6.26c0-1.137-.158-2.2-.364-3.103A4 4 0 0 0 39.93 21h.566a1.5 1.5 0 0 0 0-3m-6.683-3.387c-.71-.5-1.375-.613-5.227-.613h-1.18c-3.85 0-4.517.113-5.226.613-.753.53-.97.898-1.96 3.67l-.017.05c1.81-.176 4.377-.333 7.788-.333 3.415 0 5.987.157 7.799.333l-.018-.05c-.989-2.772-1.206-3.14-1.96-3.67"/></svg>