<svg xmlns="http://www.w3.org/2000/svg" viewBox="0 0 44 44"><path fill-rule="evenodd" d="M7.498 6h10a1.5 1.5 0 0 1 1.428 1.044l1.615 5.055c1.622-1.1 3.39-1.1 6.866-1.1h1.18c3.539 0 5.308 0 6.955 1.162 1.646 1.161 2.116 2.48 3.056 5.115q.128.358.246.724h1.652a1.5 1.5 0 0 1 0 3h-.566q.124.305.202.637c.206.903.364 1.966.364 3.104V31a1.5 1.5 0 1 1-3 0v-1H26.258l2.569 8.044A1.5 1.5 0 0 1 27.397 40H7.499a1.5 1.5 0 0 1 0-3h17.846l-2.236-7h-4.612v1a1.5 1.5 0 0 1-3 0v-6.259c0-1.14.16-2.204.366-3.108q.076-.33.2-.633h-.566a1.5 1.5 0 0 1 0-3h1.653q.119-.366.246-.724c.334-.935.608-1.704.896-2.36L16.403 9H7.498a1.5 1.5 0 1 1 0-3m26.315 8.613c-.71-.5-1.375-.613-5.227-.613h-1.18c-3.85 0-4.517.113-5.226.613-.753.53-.97.898-1.96 3.67l-.017.05c1.81-.176 4.377-.333 7.788-.333 3.415 0 5.987.157 7.799.333l-.018-.05c-.989-2.772-1.206-3.14-1.96-3.67m3.683 10.45v-.322c0-.866-.12-1.7-.289-2.435-.092-.402-.473-.858-1.279-.943C34.212 21.18 31.602 21 27.99 21c-3.61 0-6.217.18-7.93.363-.803.085-1.183.54-1.274.94-.169.736-.29 1.571-.29 2.438V27h18.999v-1.936"/><path d="M8.998 13.5a1.5 1.5 0 0 0-3 0v5a1.5 1.5 0 0 0 3 0zm0 11a1.5 1.5 0 0 0-3 0V31a1.5 1.5 0 0 0 3 0z"/></svg>