<svg xmlns="http://www.w3.org/2000/svg" viewBox="0 0 24 24"><path d="M10.516 6.46a.97.97 0 0 0-.983 1.002c.067 1.724.29 3.395.507 4.667.187 1.099.28 1.648.732 2.099s1 .545 2.1.732a37 37 0 0 0 4.659.506.97.97 0 0 0 1.002-.982c0-.553-.45-1-1.002-1.023a35 35 0 0 1-4.13-.444l7.305-7.307a1.002 1.002 0 1 0-1.417-1.417l-7.306 7.308a35 35 0 0 1-.444-4.139 1.036 1.036 0 0 0-1.023-1.001M7 16.016a7 7 0 0 0-.997 0l-.069.005c-.52.038-.986.072-1.41.497-.426.425-.46.892-.498 1.412l-.005.07a7 7 0 0 0 0 .997l.005.07c.038.52.072.986.497 1.412s.891.459 1.411.497l.07.005a7 7 0 0 0 .997 0l.069-.006c.52-.037.986-.072 1.41-.497.426-.425.46-.891.497-1.412l.006-.069a7 7 0 0 0 0-.998l-.006-.07c-.037-.52-.071-.986-.496-1.411s-.891-.46-1.411-.497z"/></svg>