<svg xmlns="http://www.w3.org/2000/svg" viewBox="0 0 24 24"><path fill-rule="evenodd" d="M4.686 4.687C3.373 6 3.276 7.308 3.081 9.924c-.05.678-.081 1.378-.081 2.078 0 .699.03 1.398.081 2.077.195 2.616.292 3.924 1.605 5.236 1.313 1.313 2.62 1.41 5.237 1.605.678.05 1.377.081 2.077.081s1.399-.03 2.077-.08c2.616-.195 3.924-.293 5.237-1.605s1.41-2.621 1.605-5.237C20.969 13.4 21 12.7 21 12s-.03-1.399-.081-2.077c-.195-2.616-.292-3.924-1.605-5.237-1.313-1.312-2.62-1.41-5.237-1.604A28 28 0 0 0 12 3c-.7 0-1.399.031-2.077.082-2.616.194-3.924.292-5.237 1.604M9 11a1 1 0 1 0 0 2h6a1 1 0 1 0 0-2z"/></svg>