<svg xmlns="http://www.w3.org/2000/svg" viewBox="0 0 32 32"><path fill-rule="evenodd" d="M10.75 16c0-.69.56-1.25 1.25-1.25h8a1.25 1.25 0 1 1 0 2.5h-8c-.69 0-1.25-.56-1.25-1.25M16 6.502c-.862 0-1.732.037-2.585.1-3.655.273-4.407.423-5.4 1.415-.991.992-1.141 1.744-1.414 5.4a35 35 0 0 0-.1 2.584c0 .86.037 1.73.1 2.583.273 3.656.423 4.408 1.415 5.4s1.744 1.142 5.4 1.415c.852.063 1.722.1 2.583.1s1.731-.037 2.584-.1c3.656-.273 4.408-.423 5.4-1.415s1.142-1.744 1.414-5.4a35 35 0 0 0 .101-2.583c0-.861-.037-1.731-.1-2.584-.273-3.656-.423-4.408-1.415-5.4s-1.744-1.142-5.4-1.414A35 35 0 0 0 16 6.502m-9.752-.253c-1.75 1.75-1.88 3.495-2.14 6.982A38 38 0 0 0 4 16.001c0 .932.041 1.865.108 2.77.26 3.487.39 5.23 2.14 6.981s3.494 1.88 6.982 2.14c.904.067 1.837.108 2.77.108.932 0 1.865-.041 2.769-.108 3.487-.26 5.231-.39 6.982-2.14 1.75-1.75 1.88-3.494 2.14-6.982a38 38 0 0 0 .107-2.77c0-.932-.04-1.864-.108-2.769C27.63 9.744 27.5 8 25.75 6.25s-3.493-1.88-6.98-2.14A38 38 0 0 0 16 4.003c-.932 0-1.865.04-2.769.108-3.488.26-5.232.39-6.982 2.14"/></svg>