<svg xmlns="http://www.w3.org/2000/svg" viewBox="0 0 24 24"><path d="m7.312 8.785.608-.652c.222-.25.375-.427.5-.582s.188-.247.223-.306a.37.37 0 0 0 .007-.328c-.195-.331-.483-.625-.755-.902L7.783 5.9c-.68-.7-1.29-1.008-2.181-.596-.258.12-.501.279-.693.487-.237.253-.453.521-.591.846-.415.972-.323 2.264.273 3.499.547 1.13 1.073 2.019 2.735 3.98l.037.039c.062.065.181.19.426.437.402.404.416 1.065.033 1.487a1.005 1.005 0 0 1-1.467.034c-.25-.252-.377-.383-.446-.455l-.043-.046c-1.802-2.108-2.473-3.192-3.122-4.535-.79-1.636-1.036-3.598-.316-5.29.284-.665.699-1.147.988-1.457a4.2 4.2 0 0 1 1.339-.957c.817-.378 1.718-.506 2.637-.208.826.267 1.434.809 1.851 1.24l.085.085c.251.253.746.752 1.087 1.33.297.505.342 1.01.332 1.334a2.5 2.5 0 0 1-.335 1.18c-.11.189-.247.374-.404.57-.131.162-.279.333-.45.527l3.219 3.279a1.08 1.08 0 0 1 0 1.498 1.01 1.01 0 0 1-1.457.001l-3.994-4.073a.985.985 0 0 1-.014-1.351M16.286 22v-5.886h-1.429V22zm-2.43-1.878c0-1.283-.968-1.431-1.863-1.568l-.228-.035-.211-.034c-.583-.089-1.047-.16-1.047-.612 0-.484.347-.654.907-.654.528 0 .875.136.916.671h1.419c-.041-1.274-.94-1.776-2.335-1.776-1.402 0-2.252.553-2.252 1.776 0 1.399 1.04 1.557 1.96 1.696l.119.018q.175.026.339.045c.523.063.923.111.923.558 0 .527-.38.688-1.006.688-.619 0-.99-.17-1.015-.832H9.063C9.121 21.456 9.987 22 11.505 22c1.485 0 2.351-.544 2.351-1.878"/><path fill-rule="evenodd" d="M22 18.155c0-1.293-.627-2.04-1.971-2.04h-2.315V22h1.378v-1.9h.937c1.344 0 1.971-.704 1.971-1.945m-1.419.136c0 .391-.24.629-.71.629h-.78v-1.625h.78c.48 0 .71.247.71.663z"/></svg>