<svg xmlns="http://www.w3.org/2000/svg" viewBox="0 0 16 16"><path fill-rule="evenodd" d="M7.257 1.754a.75.75 0 0 1-.69.805c-.78.06-1.15.095-1.452.182q-.098.028-.186.066a.75.75 0 1 1-.59-1.38q.184-.077.361-.128c.48-.138 1.022-.18 1.751-.236a.75.75 0 0 1 .806.69m1.484 0a.75.75 0 0 1 .806-.69c.729.055 1.27.097 1.75.235q.18.051.362.128a.75.75 0 1 1-.59 1.38 2 2 0 0 0-.186-.066c-.302-.087-.672-.122-1.451-.182a.75.75 0 0 1-.69-.805M3.03 3.784a.75.75 0 0 1 .654.835c-.023.195-.045.42-.071.698q-.058.605-.09 1.327a.75.75 0 1 1-1.5-.065q.035-.76.096-1.403.038-.411.076-.737a.75.75 0 0 1 .835-.655m9.94 0a.75.75 0 0 1 .835.655q.038.327.075.737.061.643.096 1.403a.75.75 0 1 1-1.498.065 27 27 0 0 0-.09-1.327 28 28 0 0 0-.072-.698.75.75 0 0 1 .654-.835M2.74 8.641a.75.75 0 0 1 .782.716q.033.723.09 1.328c.027.276.048.501.072.696a.75.75 0 0 1-1.49.18q-.037-.326-.075-.736-.061-.643-.095-1.402a.75.75 0 0 1 .716-.782m10.52 0a.75.75 0 0 1 .716.782q-.034.76-.095 1.402-.038.41-.076.736a.75.75 0 0 1-1.49-.18 27 27 0 0 0 .162-2.024.75.75 0 0 1 .783-.716M3.944 13.59a.75.75 0 0 1 .985-.395q.088.037.186.066c.302.086.672.122 1.451.182a.75.75 0 0 1-.115 1.495c-.729-.056-1.27-.098-1.75-.236a3 3 0 0 1-.362-.128.75.75 0 0 1-.395-.984m8.11 0a.75.75 0 0 1-.395.984 3 3 0 0 1-.361.128c-.48.138-1.022.18-1.751.236a.75.75 0 0 1-.115-1.495c.779-.06 1.15-.096 1.45-.182q.1-.029.187-.066a.75.75 0 0 1 .985.395"/></svg>