<svg xmlns="http://www.w3.org/2000/svg" viewBox="0 0 16 16"><path fill-rule="evenodd" d="M9.965 14.903A20 20 0 0 1 8 15c-.703 0-1.364-.038-1.965-.097-1.336-.131-2.004-.197-2.848-1.039s-.91-1.51-1.044-2.848A30 30 0 0 1 2 8c0-1.165.059-2.17.143-3.015.133-1.339.2-2.008 1.044-2.85s1.512-.907 2.85-1.038a20 20 0 0 1 3.927 0c1.337.13 2.005.196 2.849 1.038s.91 1.511 1.044 2.85C13.942 5.829 14 6.835 14 8s-.059 2.171-.143 3.016c-.134 1.338-.2 2.007-1.044 2.848-.844.842-1.512.908-2.848 1.039m-3.957-3.546c.017-.21.026-.315.13-.419s.209-.113.419-.13a2.4 2.4 0 0 1 .386 0c.21.018.315.026.42.13.103.104.112.209.129.419a2.4 2.4 0 0 1 0 .386c-.017.21-.026.315-.13.42-.104.103-.209.112-.419.129a2.4 2.4 0 0 1-.386 0c-.21-.017-.315-.026-.42-.13-.103-.104-.112-.209-.129-.419a2.4 2.4 0 0 1 0-.386m2.63-.419c-.104.104-.113.209-.13.419a2.4 2.4 0 0 0 0 .386c.017.21.026.315.13.42.104.103.209.112.419.129a2.4 2.4 0 0 0 .386 0c.21-.017.315-.026.42-.13.103-.104.112-.209.129-.419a2.4 2.4 0 0 0 0-.386c-.017-.21-.026-.315-.13-.419s-.209-.113-.419-.13a2.4 2.4 0 0 0-.386 0c-.21.018-.315.026-.42.13M11 6.75a3 3 0 1 1-6 0 3 3 0 0 1 6 0m-3 1.5a1.5 1.5 0 1 0 0-3 1.5 1.5 0 0 0 0 3"/></svg>