<svg xmlns="http://www.w3.org/2000/svg" viewBox="0 0 16 16"><path d="M9.076 6.03c.388-.275.924-.655.924-1.529V4.5a2 2 0 1 0-3.98.28c.1.68.56 1.006.904 1.25.22.157.392.28.392.438 0 .147-.265.26-.624.413-.736.315-1.334.715-1.875 1.307a6 6 0 0 0-.403.49 3 3 0 0 0-.155.242l-.01.02c-.16.377-.206.556-.225.667-.02.122-.024.233-.024.57 0 1.078.016 1.286.055 1.414.125.412.447.734.859.859.128.039.335.055 1.413.055h.84q.026-.003.055-.001h.028c.414 0 .75.332.75.746a.75.75 0 0 1-.72.75l-.953.005c-.969 0-1.453 0-1.847-.12a2.79 2.79 0 0 1-1.86-1.86c-.12-.394-.12-.879-.12-1.847 0-.636 0-.954.367-1.822.275-.65 1.296-1.752 2.03-2.237a3.5 3.5 0 1 1 6.207 0 6 6 0 0 1 .729.593.8.8 0 0 1 .228.538.75.75 0 0 1-1.259.552c-.438-.412-.943-.685-1.494-.92-.36-.154-.624-.267-.624-.414 0-.159.172-.281.392-.437"/><path fill-rule="evenodd" d="M12.244 15.002h-.488c-.289 0-.433 0-.538-.088-.105-.089-.128-.226-.175-.5l-.01-.056a.2.2 0 0 0-.11-.144 2.5 2.5 0 0 1-.3-.175.2.2 0 0 0-.18-.023l-.053.02c-.26.096-.391.145-.52.098-.13-.046-.201-.171-.345-.421l-.245-.423c-.144-.25-.216-.375-.192-.51s.131-.224.346-.402l.042-.035a.2.2 0 0 0 .07-.167 2.5 2.5 0 0 1 0-.35.2.2 0 0 0-.07-.168l-.043-.035c-.215-.178-.322-.267-.346-.402s.048-.26.192-.51l.245-.423c.144-.25.216-.375.345-.421.129-.047.26.001.52.098l.053.02a.2.2 0 0 0 .18-.024q.144-.097.303-.175a.2.2 0 0 0 .109-.143l.009-.053c.047-.274.07-.411.175-.5.105-.088.25-.088.538-.088h.488c.288 0 .433 0 .537.088.105.089.129.226.176.5l.008.052a.2.2 0 0 0 .11.144q.16.077.305.177c.053.035.12.045.18.023l.05-.019c.26-.096.391-.145.52-.098s.2.171.345.421l.244.423c.145.25.217.375.193.51s-.132.224-.346.402l-.042.034a.2.2 0 0 0-.07.167 3 3 0 0 1 0 .349.2.2 0 0 0 .07.167l.043.035c.214.178.321.267.345.401.025.135-.048.26-.192.51l-.244.423c-.144.25-.217.375-.345.422-.13.046-.26-.002-.521-.099l-.051-.019a.2.2 0 0 0-.18.024 2.5 2.5 0 0 1-.303.175.2.2 0 0 0-.11.144l-.01.055c-.046.275-.07.412-.175.5s-.249.089-.537.089m.654-2.927c-.008.27-.012.404-.214.606-.202.203-.337.207-.607.214a3 3 0 0 1-.156 0c-.27-.007-.404-.011-.607-.214s-.206-.337-.214-.606a3 3 0 0 1 0-.157c.008-.27.012-.404.214-.606.203-.203.337-.207.607-.214a3 3 0 0 1 .156 0c.27.007.405.011.607.214s.206.337.214.606a3 3 0 0 1 0 .157"/></svg>