<svg xmlns="http://www.w3.org/2000/svg" viewBox="0 0 24 24"><path d="M14.62 10.159a4.5 4.5 0 1 0-5.241 0 8 8 0 0 0-.801.24c-1.453.5-3.89 3.068-4.314 4.544C4 15.862 4 15.924 4 16.05c0 .816 0 1.224.058 1.564a4.07 4.07 0 0 0 3.327 3.328c.341.058.75.058 1.565.058h3.854l-.162-.28-.019-.032c-.075-.13-.211-.364-.308-.596a2.5 2.5 0 0 1-.166-1.404c.047-.266.136-.49.238-.685a2.4 2.4 0 0 1-.24-.687 2.5 2.5 0 0 1 .167-1.403c.097-.232.232-.465.308-.596l.019-.033.325-.564.02-.033c.074-.13.209-.364.361-.564.207-.27.561-.64 1.133-.846.254-.092.493-.127.714-.136.117-.186.268-.376.474-.55a2.5 2.5 0 0 1 1.3-.558c.248-.032.517-.031.668-.031h.031c-.768-.756-1.603-1.381-2.245-1.602a8 8 0 0 0-.801-.241"/><path fill-rule="evenodd" d="M18.325 22h-.65c-.385 0-.578 0-.717-.118-.14-.118-.171-.3-.234-.667l-.012-.071a.26.26 0 0 0-.146-.192 3 3 0 0 1-.404-.234.26.26 0 0 0-.24-.03l-.068.024c-.348.13-.522.194-.694.131-.172-.062-.268-.228-.46-.561l-.326-.564c-.193-.334-.289-.5-.257-.68s.175-.299.461-.536l.056-.047a.26.26 0 0 0 .094-.222 3 3 0 0 1 0-.466.26.26 0 0 0-.094-.222l-.057-.047c-.286-.238-.428-.356-.46-.536s.063-.346.256-.68l.325-.564c.193-.333.289-.5.46-.562.173-.062.347.002.695.131l.07.026c.08.03.169.017.24-.03q.192-.132.403-.234a.26.26 0 0 0 .146-.192l.012-.072c.063-.366.094-.55.234-.667.14-.118.332-.118.716-.118h.651c.385 0 .578 0 .717.118.14.118.171.3.234.667l.012.072c.014.084.07.154.146.192q.211.102.404.233c.07.048.16.06.24.031l.068-.025c.348-.129.522-.193.694-.131s.268.228.46.562l.326.564c.192.333.288.5.256.68s-.175.298-.46.535l-.056.046a.26.26 0 0 0-.093.222 3 3 0 0 1 0 .468.26.26 0 0 0 .093.222l.057.047c.286.237.428.356.46.536s-.063.346-.256.68l-.326.563c-.192.334-.288.5-.46.562s-.346-.002-.694-.13l-.07-.026a.26.26 0 0 0-.239.03 3 3 0 0 1-.404.234.26.26 0 0 0-.146.192l-.012.071c-.063.366-.094.55-.234.667-.14.118-.332.118-.717.118m.922-3.891c-.01.374-.016.561-.297.842s-.468.287-.842.297a4 4 0 0 1-.218 0c-.374-.01-.561-.016-.842-.297s-.287-.468-.297-.842a4 4 0 0 1 0-.218c.01-.374.016-.561.297-.842s.468-.287.842-.297a4 4 0 0 1 .218 0c.374.01.561.016.842.297s.287.468.297.842a4 4 0 0 1 0 .218"/></svg>