<svg xmlns="http://www.w3.org/2000/svg" viewBox="0 0 16 16"><path d="M9.57 6.558a3 3 0 1 0-3.136 0c-.278.028-.532.085-.99.255-.907.339-2.443 1.958-2.734 2.882-.208.663-.208.752-.208.93 0 .614 0 .92.05 1.176a2.715 2.715 0 0 0 2.149 2.15c.255.049.562.049 1.176.049h2.081a4 4 0 0 1-.222-.431 1.86 1.86 0 0 1-.125-1.053c.036-.201.107-.367.184-.514a1.7 1.7 0 0 1-.184-.517c-.08-.448.026-.817.124-1.053.073-.173.174-.348.23-.446l.015-.025.245-.423.014-.025c.057-.098.157-.273.271-.423.155-.202.421-.48.85-.634.19-.07.371-.096.537-.102.088-.14.2-.28.354-.41.348-.294.721-.386.974-.418.13-.017.268-.022.378-.024-.371-.322-.742-.576-1.043-.689-.458-.17-.712-.227-.99-.255"/><path fill-rule="evenodd" d="M12.244 15.002h-.488c-.289 0-.433 0-.538-.088-.105-.089-.128-.226-.175-.5l-.01-.056a.2.2 0 0 0-.11-.144 2.5 2.5 0 0 1-.3-.175.2.2 0 0 0-.18-.023l-.053.02c-.26.096-.391.145-.52.098-.13-.046-.201-.171-.345-.421l-.245-.423c-.144-.25-.216-.375-.192-.51s.131-.224.346-.402l.042-.035a.2.2 0 0 0 .07-.167 2.5 2.5 0 0 1 0-.35.2.2 0 0 0-.07-.168l-.043-.035c-.215-.178-.322-.267-.346-.402s.048-.26.192-.51l.245-.423c.144-.25.216-.375.345-.421.129-.047.26.001.52.098l.053.02a.2.2 0 0 0 .18-.024q.144-.097.303-.175a.2.2 0 0 0 .109-.143l.009-.053c.047-.274.07-.411.175-.5.105-.088.25-.088.538-.088h.488c.288 0 .433 0 .537.088.105.089.129.226.176.5l.008.052a.2.2 0 0 0 .11.144q.16.077.305.177c.053.035.12.045.18.023l.05-.019c.26-.096.391-.145.52-.098s.2.171.345.421l.244.423c.145.25.217.375.193.51s-.132.224-.346.402l-.042.034a.2.2 0 0 0-.07.167 3 3 0 0 1 0 .349.2.2 0 0 0 .07.167l.043.035c.214.178.321.267.345.401.025.135-.048.26-.192.51l-.244.423c-.144.25-.217.375-.345.422-.13.046-.26-.002-.521-.099l-.051-.019a.2.2 0 0 0-.18.024 2.5 2.5 0 0 1-.303.175.2.2 0 0 0-.11.144l-.01.055c-.046.275-.07.412-.175.5s-.249.089-.537.089m.654-2.927c-.008.27-.012.404-.214.606-.202.203-.337.207-.607.214a3 3 0 0 1-.156 0c-.27-.007-.404-.011-.607-.214s-.206-.337-.214-.606a3 3 0 0 1 0-.157c.008-.27.012-.404.214-.606.203-.203.337-.207.607-.214a3 3 0 0 1 .156 0c.27.007.405.011.607.214s.206.337.214.606a3 3 0 0 1 0 .157"/></svg>