<svg xmlns="http://www.w3.org/2000/svg" viewBox="0 0 24 24"><path d="M5 3a1 1 0 0 1 1 1v4a2 2 0 0 0 1 1.732V4a1 1 0 0 1 2 0v5.732A2 2 0 0 0 10 8V4a1 1 0 1 1 2 0v4a4 4 0 0 1-3 3.874V20a1 1 0 1 1-2 0v-8.126A4 4 0 0 1 4 8V4a1 1 0 0 1 1-1"/><path fill-rule="evenodd" d="M16 3c-.545 0-1 .455-1 1v16a1 1 0 1 0 2 0v-5h.564c1.74 0 3.437-.917 3.437-2.855 0-1.575-.29-3.737-.98-5.54C19.351 4.86 18.073 3 16 3m1 10h.564c.597 0 1.437-.1 1.437-.855 0-1.386-.263-3.296-.849-4.825-.324-.848-.726-1.506-1.152-1.894z"/></svg>