<svg xmlns="http://www.w3.org/2000/svg" viewBox="0 0 16 16"><path d="M5.25 2a.6.6 0 0 1 .6.6v4.196a1.4 1.4 0 0 0 .955-1.327V2.602a.6.6 0 0 1 1.2 0v2.867A2.6 2.6 0 0 1 6 8v5.25a.75.75 0 0 1-1.5 0V8c-1.148-.27-2-1.3-2-2.531V2.602a.6.6 0 0 1 1.2 0v2.867a1.4 1.4 0 0 0 .95 1.327V2.6a.6.6 0 0 1 .6-.6"/><path fill-rule="evenodd" d="M13.434 4.434C13.037 3.309 12.244 2 10.75 2a.75.75 0 0 0-.75.75v10.5a.75.75 0 0 0 1.5 0V10h.21c.436 0 .99-.068 1.458-.366.522-.332.836-.889.836-1.621 0-1.04-.148-2.383-.57-3.58M11.5 8.5c.283 0 .613.027.861-.131.122-.078.142-.22.142-.356 0-.934-.138-2.096-.485-3.08-.16-.453-.336-.78-.519-1.008z"/></svg>