<svg xmlns="http://www.w3.org/2000/svg" viewBox="0 0 32 32"><path fill-rule="evenodd" d="M.144 12.307c.346-4.65.52-6.976 2.853-9.31S7.657.49 12.307.144C13.513.054 14.757 0 16 0c1.244 0 2.487.054 3.693.144 4.65.346 6.976.52 9.31 2.853s2.507 4.66 2.853 9.31c.09 1.206.144 2.45.144 3.693a50 50 0 0 1-.144 3.693c-.346 4.65-.52 6.976-2.853 9.31s-4.66 2.507-9.31 2.853A50 50 0 0 1 16 32a50 50 0 0 1-3.693-.144c-4.65-.346-6.976-.52-9.31-2.853S.49 24.343.144 19.693A50 50 0 0 1 0 16c0-1.244.054-2.487.144-3.693m14.459 1.322a5.6 5.6 0 0 0-1.777.029q-.586.105-1.137.334a5.7 5.7 0 0 0-1.61.954 6.2 6.2 0 0 0-1.357 1.657c-.133.23-.637 1.147-.699 2.641-.034.847.22 1.72.341 2.085v.003c.075.21.375.943.863 1.565q.213.27.455.516.424.43.922.774c1.529 1.037 3.228.967 3.228.967l.087-.003c.371-.012 1.283-.04 2.31-.524 1.242-.585 1.946-1.454 1.946-1.454l.035-.041c.164-.196.681-.811 1.026-1.71a6.5 6.5 0 0 0 .382-2.004v-6.452c.04.023.55.357.55.357s.739.468 1.887.774c.823.218 1.934.263 1.934.263v-3.123c-.21.022-.534-.002-.914-.09a5 5 0 0 1-1.072-.39c-.662-.33-1.177-.868-1.277-.977l-.018-.02c-1.266-1.447-1.092-2.92-1.092-2.92l-3.16.001v12.175c0 .422 0 .83-.143 1.235-.233.658-.725 1.252-1.381 1.511-.984.394-1.754.352-2.672-.254a2.5 2.5 0 0 1-.59-.572c-.428-.583-.52-1.257-.517-1.773.11-.949.484-1.481 1.187-2.026 1.006-.738 2.263-.32 2.263-.32z"/></svg>