<svg xmlns="http://www.w3.org/2000/svg" viewBox="0 0 24 24"><path fill-rule="evenodd" d="M.106 9.232C.366 5.744.496 4 2.246 2.249S5.741.369 9.23.109A38 38 0 0 1 12 .001c.932 0 1.865.04 2.77.108C18.255.37 20 .5 21.75 2.25s1.88 3.495 2.14 6.983c.067.904.108 1.837.108 2.77 0 .932-.04 1.865-.108 2.77-.26 3.487-.39 5.231-2.14 6.982-1.75 1.75-3.495 1.88-6.983 2.14-.904.067-1.837.108-2.77.108-.932 0-1.865-.04-2.77-.108-3.487-.26-5.231-.39-6.982-2.14-1.75-1.75-1.88-3.495-2.14-6.983a38 38 0 0 1-.108-2.77c0-.932.04-1.865.108-2.77m10.845.992a4.2 4.2 0 0 0-1.333.022 4 4 0 0 0-.852.25c-.44.17-.849.411-1.209.715a4.7 4.7 0 0 0-1.017 1.243c-.1.172-.478.86-.524 1.98-.026.636.165 1.291.256 1.565.056.158.28.71.647 1.175q.16.204.341.387.318.323.691.581c1.147.778 2.422.725 2.422.725l.065-.002c.278-.009.962-.03 1.733-.393a4.5 4.5 0 0 0 1.46-1.09l.025-.032a4.5 4.5 0 0 0 .77-1.282 4.9 4.9 0 0 0 .286-1.503V9.726c.031.017.413.268.413.268s.554.35 1.415.58c.617.164 1.45.198 1.45.198V8.429c-.157.017-.4-.001-.685-.068a3.7 3.7 0 0 1-.804-.292 3.7 3.7 0 0 1-.958-.733l-.013-.014c-.95-1.086-.82-2.19-.82-2.19h-2.37v9.132c0 .316 0 .622-.106.926-.175.494-.544.939-1.037 1.134-.738.295-1.315.263-2.003-.192a1.9 1.9 0 0 1-.443-.429c-.32-.437-.39-.942-.387-1.329.082-.712.362-1.11.89-1.52.754-.553 1.697-.24 1.697-.24z"/></svg>