<svg xmlns="http://www.w3.org/2000/svg" viewBox="0 0 17 17"><path fill-rule="evenodd" d="M13.212 2.394a.797.797 0 0 0-1.209.017c-.905 1.083-2.066 1.13-4.086 1.13-2.365 0-4.057.918-4.99 2.335-.916 1.391-1.021 3.143-.47 4.67l.022.054q.23.512.537.977c-.247.487-.43.933-.565 1.301a8 8 0 0 0-.31 1.027l-.003.01a.797.797 0 1 0 1.559.331l.003-.013c.009-.035.034-.135.05-.192.04-.145.104-.358.2-.619q.089-.246.213-.54a5.9 5.9 0 0 0 2.07 1.155c3.437 1.092 7.085-.854 8.262-4.598.803-2.554.304-5.247-1.283-7.045m-8.276 9.032a4.36 4.36 0 0 0 1.78 1.092c2.533.805 5.326-.59 6.259-3.557.554-1.763.326-3.53-.464-4.838-1.319 1.013-2.925 1.012-4.474 1.011h-.12c-1.93 0-3.072.728-3.66 1.619-.598.909-.703 2.113-.31 3.224l.02.047c1.139-1.55 2.944-3.117 5.713-3.636a.797.797 0 1 1 .294 1.566c-2.54.476-4.096 2.01-5.038 3.472"/></svg>