<svg xmlns="http://www.w3.org/2000/svg" viewBox="0 0 24 24"><path fill-rule="evenodd" d="M18.65 3.333a1 1 0 0 0-1.507.02C15.796 4.941 14.056 5 11.17 5 7.824 5 5.448 6.278 4.14 8.237c-1.29 1.929-1.441 4.366-.661 6.494l.028.068q.37.816.881 1.54a18 18 0 0 0-.884 1.954 15 15 0 0 0-.445 1.355l-.031.123a1 1 0 0 0 1.947.458c-.006.023.005-.023 0 0 0 0 .054-.204.086-.31.064-.215.166-.53.312-.915.121-.317.272-.68.457-1.075a8.4 8.4 0 0 0 2.974 1.654c4.834 1.512 9.991-1.176 11.661-6.411 1.14-3.576.429-7.337-1.814-9.84m-4.466 7.65a1 1 0 1 0-.368-1.966c-3.497.656-5.937 2.547-7.587 4.543a1 1 0 1 0 1.542 1.274c1.423-1.722 3.476-3.3 6.413-3.851"/></svg>