<svg xmlns="http://www.w3.org/2000/svg" viewBox="0 0 24 24"><path d="M6.325 5.536C8.083 4.746 10.252 4 12 4s3.917.745 5.675 1.536c.631.284.926.421 1.128.547.117.073.13.098.14.115l.004.006.001.002c.006.007.026.032.038.193.02.256.006.607-.032 1.325-.093 1.74-.302 3.39-.716 4.921q-.061.166-.06.355a1 1 0 0 0 1.977.218c.475-1.737.703-3.554.8-5.388.072-1.337.107-2.006-.296-2.667-.403-.66-.989-.924-2.16-1.45C16.689 2.899 14.195 2 12 2s-4.69.899-6.499 1.713c-1.171.526-1.757.79-2.16 1.45s-.368 1.33-.297 2.667c.202 3.804.95 7.54 3.348 10.62C7.58 19.972 10.066 22 12 22c.422 0 .87-.096 1.325-.263l.045-.017c.05-.018.093-.05.143-.07a1 1 0 0 0-.886-1.787A2 2 0 0 1 12 20c-.352 0-1.041-.227-1.944-.85-.848-.584-1.615-1.331-2.08-1.928-2.029-2.603-2.736-5.852-2.93-9.498-.038-.718-.052-1.069-.032-1.325.012-.161.032-.186.038-.193l.001-.002.003-.006c.01-.017.024-.042.14-.115.203-.126.498-.263 1.13-.547"/><path d="m22.207 16.207-4.5 4.5a1 1 0 0 1-1.414 0l-2-2a1 1 0 0 1 1.414-1.414L17 18.586l3.793-3.793a1 1 0 0 1 1.414 1.414"/></svg>