<svg xmlns="http://www.w3.org/2000/svg" viewBox="0 0 24 24"><path d="M12 2.001c-2.195 0-4.69.899-6.499 1.713-1.171.526-1.757.79-2.16 1.45s-.368 1.33-.297 2.667c.202 3.804.95 7.54 3.348 10.62C7.58 19.974 10.066 22 12 22c.67 0 1.407-.243 2.133-.625l-1.254-1.255a3 3 0 0 1 4.118-4.36l2.382-2.382c.268-.268.574-.475.9-.62.394-1.596.588-3.256.677-4.928.07-1.337.106-2.006-.297-2.667-.403-.66-.989-.924-2.16-1.45C16.689 2.9 14.195 2 12 2"/><path d="m22.207 16.207-4.5 4.5a1 1 0 0 1-1.414 0l-2-2a1 1 0 0 1 1.414-1.414L17 18.586l3.793-3.793a1 1 0 0 1 1.414 1.414"/></svg>