<svg xmlns="http://www.w3.org/2000/svg" viewBox="0 0 32 32"><path d="M7.696 5.14C10.008 4.125 13.196 3 16 3s5.992 1.124 8.304 2.14c1.497.66 2.245.989 2.76 1.814.516.826.47 1.662.38 3.333-.137 2.512-.468 5.28-1.201 7.9a3.8 3.8 0 0 0-.895.662l-2.851 2.853a3.75 3.75 0 0 0-5.15 5.448l1.17 1.172C17.659 28.74 16.794 29 16 29c-2.472 0-5.648-2.534-7.165-4.439-3.066-3.848-4.02-9.519-4.278-14.273-.091-1.672-.137-2.508.379-3.334.515-.825 1.263-1.155 2.76-1.813"/><path d="M28.884 22.384a1.25 1.25 0 0 0-1.768-1.768L22.5 25.234l-1.616-1.617a1.25 1.25 0 1 0-1.768 1.766l2.5 2.503a1.25 1.25 0 0 0 1.768 0z"/></svg>