<svg xmlns="http://www.w3.org/2000/svg" viewBox="0 0 32 32"><path d="M27.064 6.954c.516.826.47 1.662.38 3.333-.143 2.62-.496 5.518-1.298 8.236l-.013.043a1.251 1.251 0 1 1-2.374-.786c.704-2.405 1.049-5.063 1.188-7.628.049-.899.067-1.333.042-1.649-.015-.194-.039-.218-.044-.224l-.002-.001-.003-.006c-.013-.022-.033-.057-.191-.154-.263-.16-.647-.335-1.452-.689C21.05 6.44 18.26 5.5 16 5.5s-5.05.94-7.297 1.929c-.805.354-1.189.528-1.452.69-.159.096-.178.131-.19.153l-.004.006-.002.001c-.005.006-.029.03-.044.224-.025.316-.007.75.042 1.649.254 4.671 1.19 9.653 3.737 12.852.595.747 1.579 1.684 2.667 2.418C14.61 26.2 15.513 26.5 16 26.5q.16 0 .376-.045a1.25 1.25 0 0 1 .789 2.373c-.4.106-.79.172-1.165.172-2.472 0-5.648-2.534-7.165-4.439-3.066-3.848-4.02-9.519-4.278-14.273-.091-1.672-.137-2.508.379-3.334.515-.825 1.263-1.155 2.76-1.813C10.008 4.124 13.196 3 16 3s5.992 1.124 8.304 2.14c1.497.66 2.245.989 2.76 1.814"/><path d="M28.884 22.384a1.25 1.25 0 0 0-1.768-1.768L22.5 25.234l-1.616-1.617a1.25 1.25 0 1 0-1.768 1.766l2.5 2.503a1.25 1.25 0 0 0 1.768 0z"/></svg>