<svg xmlns="http://www.w3.org/2000/svg" viewBox="0 0 16 16"><path fill-rule="evenodd" d="m13.999 6.085-.001-.164a.1.1 0 0 0-.009-.04c-.016-.206-.056-.375-.147-.483l-.122-.152c-.279-.35-.886-1.11-1.928-2.12-1.237-1.2-1.867-1.738-2.198-1.93C9.24.993 8.912 1 8.515 1H8c-.702 0-1.363.038-1.964.097-1.337.13-2.005.196-2.849 1.038s-.91 1.511-1.044 2.85C2.059 5.829 2 6.835 2 8s.059 2.171.143 3.016c.134 1.338.2 2.007 1.044 2.848.844.842 1.512.908 2.848 1.039a20 20 0 0 0 3.93 0c1.336-.131 2.004-.197 2.848-1.039s.91-1.51 1.044-2.848C13.942 10.17 14 9.166 14 8V6.349zm-4.99-3.47A9 9 0 0 0 9 3c0 .689.089 1.378.175 1.883.062.366.093.548.244.698.15.15.332.182.698.244A11.6 11.6 0 0 0 12 6q.199 0 .394-.01a20 20 0 0 0-1.646-1.787 38 38 0 0 0-1.38-1.29 9 9 0 0 0-.36-.298M8 10a.75.75 0 0 1-.75-.75v-1a.75.75 0 0 1 1.5 0v1A.75.75 0 0 1 8 10m0 2.5a.9.9 0 1 0 0-1.8.9.9 0 0 0 0 1.8"/></svg>