<svg xmlns="http://www.w3.org/2000/svg" viewBox="0 0 16 16"><path d="M8 10a.75.75 0 0 1-.75-.75v-1a.75.75 0 0 1 1.5 0v1A.75.75 0 0 1 8 10m-.9 1.6a.9.9 0 1 0 1.8 0 .9.9 0 0 0-1.8 0"/><path fill-rule="evenodd" d="M8 15c.703 0 1.364-.038 1.965-.097 1.336-.131 2.004-.197 2.848-1.039s.91-1.51 1.044-2.848C13.942 10.17 14 9.166 14 8V6.349l-.001-.264-.001-.164a.1.1 0 0 0-.009-.04c-.016-.206-.056-.375-.147-.483l-.122-.152c-.279-.35-.886-1.11-1.928-2.12-1.237-1.2-1.867-1.738-2.198-1.93C9.231.988 8.896 1.002 8.49 1H8q-.162 0-.32.003h-.006c-.581.01-1.131.045-1.638.094-1.337.13-2.005.196-2.849 1.038s-.91 1.511-1.044 2.85C2.059 5.829 2 6.835 2 8s.059 2.171.143 3.016c.134 1.338.2 2.007 1.044 2.848.844.842 1.512.908 2.848 1.039C6.636 14.962 7.297 15 8 15M7.5 3c0 .806.103 1.586.196 2.135l.01.065c.042.27.142.932.652 1.442s1.171.61 1.442.652l.065.01c.549.093 1.33.196 2.135.196q.253 0 .5-.012V8a29 29 0 0 1-.136 2.867c-.071.717-.11 1.047-.193 1.307-.057.181-.144.356-.418.629s-.448.36-.629.416c-.26.082-.589.12-1.305.19a18.6 18.6 0 0 1-3.638.001c-.716-.07-1.045-.11-1.305-.19-.18-.058-.356-.144-.63-.417-.273-.273-.36-.448-.417-.629-.082-.26-.122-.59-.194-1.307A29 29 0 0 1 3.5 8c0-1.115.056-2.07.135-2.866.072-.718.112-1.048.194-1.308.057-.181.144-.356.418-.63.273-.272.448-.359.629-.415.26-.082.59-.121 1.306-.191q.626-.062 1.33-.083Q7.5 2.75 7.5 3m2.617 2.825c-.366-.062-.548-.093-.698-.244-.15-.15-.182-.332-.244-.698A11.6 11.6 0 0 1 9 3q0-.194.009-.385.134.103.358.299c.325.283.77.697 1.381 1.289.817.792 1.332 1.4 1.646 1.788Q12.198 6 12 6c-.69 0-1.378-.089-1.883-.175"/></svg>