<svg xmlns="http://www.w3.org/2000/svg" viewBox="0 0 44 44"><path fill-rule="evenodd" d="M23.452 24.509h.048c.563 0 .987.157 1.16.227.21.085.375.178.474.238.2.12.362.245.462.325.212.17.427.367.615.547.39.372.87.866 1.373 1.398a190 190 0 0 1 3.293 3.604 3.4 3.4 0 0 0 3.117 1.1c1.238-.215 2.013-1.024 2.192-1.91.411-2.033.814-4.842.814-8.03 0-1.04-.043-2.041-.115-2.99-.141-1.853-.229-2.795-.472-3.581-.196-.63-.53-1.262-1.447-2.185-.896-.902-1.542-1.248-2.232-1.459-.854-.261-1.892-.361-3.855-.522A84 84 0 0 0 22 11c-2.63 0-4.925.11-6.88.27-1.963.16-3 .26-3.854.522-.69.211-1.335.557-2.23 1.458-.92.924-1.253 1.556-1.448 2.185-.244.785-.331 1.727-.473 3.58A40 40 0 0 0 7 22.006c0 3.186.402 5.992.814 8.025.18.89.957 1.701 2.2 1.917a3.41 3.41 0 0 0 3.117-1.093c1.05-1.17 2.286-2.53 3.3-3.605a47 47 0 0 1 1.36-1.392c.185-.178.392-.371.592-.535.094-.077.248-.2.436-.318.092-.058.252-.153.458-.243.156-.067.61-.255 1.223-.255.429 0 .81.005 1.166.008.626.007 1.17.012 1.738-.006zm.048 3.001c.307 0 3.059 3.011 5.14 5.34a6.4 6.4 0 0 0 5.867 2.055c2.278-.396 4.16-2.005 4.62-4.271.44-2.18.873-5.193.873-8.627 0-1.122-.046-2.199-.124-3.216-.267-3.506-.4-5.258-2.783-7.656s-4.245-2.55-7.969-2.856A87 87 0 0 0 22 8c-2.713 0-5.09.112-7.126.28-3.723.305-5.584.458-7.966 2.855s-2.516 4.149-2.784 7.652A42 42 0 0 0 4 22.007c0 3.431.432 6.442.873 8.62.46 2.271 2.346 3.883 4.628 4.28a6.41 6.41 0 0 0 5.86-2.045c2.095-2.33 4.863-5.352 5.139-5.352q.534.001 1.05.007c.672.007 1.322.013 1.95-.007m4.5-9.005a1.5 1.5 0 1 1-3 .001 1.5 1.5 0 0 1 3 0m4.5 1.501a1.5 1.5 0 1 0 0-3 1.5 1.5 0 0 0 0 3m-3 0a1.5 1.5 0 1 1 0 3.001 1.5 1.5 0 0 1 0-3m1.5-4.502a1.5 1.5 0 1 0-3 0 1.5 1.5 0 0 0 3 0m-16-1.5a1.5 1.5 0 0 1 1.5 1.5v1.5H18a1.5 1.5 0 0 1 0 3.002h-1.5v1.501a1.5 1.5 0 1 1-3 0v-1.5H12a1.5 1.5 0 0 1 0-3.002h1.5v-1.501a1.5 1.5 0 0 1 1.5-1.5"/></svg>