<svg xmlns="http://www.w3.org/2000/svg" viewBox="0 0 32 32"><path d="M29 16h-.006c0-7.18-5.82-13-12.997-13C8.819 3 3 8.82 3 16v3.249q0 .364.017.721c.07 1.484.104 2.226.914 3.01.809.786 1.478.796 2.817.818h.306c1.338-.022 2.006-.033 2.814-.817s.843-1.525.912-3.007a16 16 0 0 0 0-1.45c-.07-1.483-.104-2.224-.912-3.007-.808-.784-1.476-.795-2.814-.817l-.155-.001H5.68c.64-5.13 5.015-9.1 10.317-9.1s9.677 3.97 10.317 9.1c-.458 0-.916-.006-1.374.001-1.338.022-2.007.033-2.815.817s-.842 1.524-.912 3.007a15 15 0 0 0 0 1.45c.07 1.482.104 2.224.912 3.007.808.784 1.477.795 2.815.816a17 17 0 0 0 .936-.013c-.128.312-.347.655-.827 1.138-.582.584-.972.783-1.378.908-.547.169-1.227.24-2.63.362a54 54 0 0 1-2.445.155A2.594 2.594 0 0 0 16 23.803 2.598 2.598 0 1 0 15.997 29a61 61 0 0 0 5.27-.218c2.631-.229 3.947-.343 5.623-2.025 1.674-1.68 1.78-2.941 1.99-5.459z"/></svg>