<svg xmlns="http://www.w3.org/2000/svg" viewBox="0 0 16 16"><path d="M2.025 5.997c.076.974.12 1.528.5 2.004-.381.475-.424 1.03-.5 2.004a7.5 7.5 0 0 0 .057 1.717c.104.703.156 1.055.657 1.53.5.475.925.515 1.775.596.692.066 1.568.123 2.628.144A.75.75 0 0 0 8 13.25a.75.75 0 0 0-.75-.75 33 33 0 0 1-3.1-.199 2 2 0 0 1-.237-.044.2.2 0 0 1-.05-.02.5.5 0 0 1-.092-.073 1 1 0 0 1-.105-.12 1 1 0 0 1-.036-.142 9 9 0 0 1-.064-.4 6 6 0 0 1-.046-1.38c.023-.29.04-.507.062-.694a3 3 0 0 1 .062-.37.4.4 0 0 1 .037-.098.4.4 0 0 1 .07-.079l.004-.004c.019-.019.051-.05.241-.08.183-.03.413-.041.756-.046q.306.004.671.003L8.75 8.75a.75.75 0 0 0 0-1.502H5.423q-.365 0-.67.003a6 6 0 0 1-.757-.046c-.19-.03-.222-.061-.241-.08l-.004-.004a.4.4 0 0 1-.07-.079.4.4 0 0 1-.037-.099 3 3 0 0 1-.062-.37 20 20 0 0 1-.062-.693 6 6 0 0 1 .045-1.38c.028-.185.046-.302.065-.4a1 1 0 0 1 .042-.154 1 1 0 0 1 .1-.108.5.5 0 0 1 .09-.074.2.2 0 0 1 .05-.02c.04-.011.11-.026.238-.044.132-.017.286-.032.507-.053A36 36 0 0 1 8 3.5c1.404 0 2.52.067 3.343.146.22.02.375.036.507.053.128.018.197.033.238.045.033.01.044.016.05.02a.5.5 0 0 1 .09.073 1 1 0 0 1 .107.12c.004.013.017.05.035.142.02.098.037.215.064.4a6 6 0 0 1 .046 1.38c-.023.291-.04.508-.062.694a2 2 0 0 0-.012.177.75.75 0 0 0 1.5.016c.027-.225.046-.479.07-.77q.023-.307.024-.62c0-.39-.032-.76-.082-1.096-.104-.704-.156-1.056-.657-1.531-.5-.475-.925-.516-1.776-.597A37 37 0 0 0 8 2c-1.452 0-2.616.07-3.485.152-.85.081-1.276.122-1.776.597s-.553.827-.657 1.53a7.5 7.5 0 0 0-.057 1.718"/><path d="M5.333 6.233a.9.9 0 1 0 0-1.8.9.9 0 0 0 0 1.8m0 5.334a.9.9 0 1 0 0-1.8.9.9 0 0 0 0 1.8m9.389-3.346a.75.75 0 0 1 1.28.53v2.25c0 .672 0 1.008-.192 1.229a1 1 0 0 1-.079.078c-.221.193-.557.193-1.229.193h-2.248a.75.75 0 1 1 0-1.5h1.078a1.75 1.75 0 1 0-.53 2.148.75.75 0 1 1 .876 1.217 3.25 3.25 0 1 1 .823-4.346l.001-.59v-.678a.75.75 0 0 1 .22-.53"/></svg>