<svg xmlns="http://www.w3.org/2000/svg" viewBox="0 0 24 24"><path d="M10.86 20.99a54 54 0 0 1-4.096-.216c-1.273-.12-1.91-.18-2.661-.893s-.83-1.236-.984-2.282a11 11 0 0 1-.084-2.483c.117-1.539.18-2.372.856-3.116-.675-.744-.739-1.577-.856-3.116a11 11 0 0 1 .084-2.483c.155-1.046.232-1.568.984-2.282.752-.713 1.388-.773 2.661-.893A56 56 0 0 1 12 3c2.182 0 3.93.103 5.235.226 1.274.12 1.91.18 2.663.893s.829 1.237.983 2.283a11 11 0 0 1 .084 2.481c-.092 1.208-.15 1.98-.498 2.618a1.001 1.001 0 0 1-1.737-.995 1 1 0 0 0 .052-.155c.08-.298.12-.713.189-1.62a9 9 0 0 0-.069-2.037c-.04-.274-.067-.453-.097-.605a1.6 1.6 0 0 0-.062-.246l-.002-.003c-.007-.021-.03-.09-.22-.27-.157-.149-.227-.173-.314-.198-.193-.056-.46-.089-1.16-.155A54 54 0 0 0 12 5c-2.12 0-3.805.1-5.048.218-.698.065-.966.098-1.159.154-.087.025-.157.049-.314.198-.19.18-.213.249-.22.27l-.001.003a1.6 1.6 0 0 0-.063.246c-.03.151-.057.33-.097.604a9 9 0 0 0-.069 2.039c.07.907.109 1.322.189 1.62a.66.66 0 0 0 .231.381c.075.07.157.138.498.191.441.07 1.045.076 2.145.076H13a1 1 0 1 1 0 2H8.092c-1.1 0-1.704.006-2.145.076-.341.053-.423.121-.498.19a.66.66 0 0 0-.231.382c-.08.298-.12.713-.189 1.62Q5 15.639 5 16c0 .462.038.901.098 1.307.04.274.067.453.097.604.028.142.05.21.063.246v.003c.008.021.031.09.221.27.157.149.227.173.314.198.193.056.46.089 1.158.154 1.042.098 2.393.185 4.049.21.552 0 1 .456 1 1.008s-.5.99-1.14.99"/><path d="M9.25 8a1.25 1.25 0 1 1-2.5 0 1.25 1.25 0 0 1 2.5 0M8 17.25a1.25 1.25 0 1 0 0-2.5 1.25 1.25 0 0 0 0 2.5m13.293-4.457c.63-.63 1.707-.184 1.707.707V16c0 .943 0 1.414-.293 1.707S21.943 18 21 18h-2.5c-.89 0-1.337-1.077-.707-1.707A1 1 0 0 1 18.5 16h1a2.5 2.5 0 1 0-2 4 2.5 2.5 0 0 0 1.362-.395 1 1 0 0 1 1.109 1.644q-.039.025-.076.054a1 1 0 0 1-.135.09A4.5 4.5 0 1 1 21 14.671V13.5a1 1 0 0 1 .293-.707"/></svg>