<svg xmlns="http://www.w3.org/2000/svg" viewBox="0 0 16 16"><path fill-rule="evenodd" d="M2.065 5.856c.092.7.138 1.049.478 1.346s.763.298 1.61.298h5.473A4.7 4.7 0 0 1 11.75 7c.565 0 1.108.099 1.61.28q.052-.035.1-.078c.34-.297.386-.647.479-1.346.038-.292.062-.604.062-.926 0-.55-.07-1.057-.162-1.487-.069-.32-.103-.48-.24-.677a1.4 1.4 0 0 0-.404-.365c-.21-.116-.4-.138-.78-.18-.978-.109-2.453-.22-4.413-.22-1.96.001-3.435.111-4.414.22-.38.042-.57.064-.78.18a1.4 1.4 0 0 0-.403.365c-.137.197-.172.357-.24.677-.093.43-.163.937-.163 1.487 0 .322.024.634.063.926M5.9 4.752a.9.9 0 1 1-1.8 0 .9.9 0 0 1 1.8 0m-1.746 3.75h4.13A4.73 4.73 0 0 0 7 11.75c0 .813.204 1.579.565 2.248a39 39 0 0 1-3.977-.217c-.38-.043-.57-.064-.78-.18a1.4 1.4 0 0 1-.403-.365c-.137-.197-.172-.357-.24-.677a7 7 0 0 1-.163-1.487c0-.322.024-.634.063-.926.092-.7.138-1.049.478-1.347.34-.297.763-.297 1.61-.297M5.9 11.25a.9.9 0 1 0-1.8 0 .9.9 0 0 0 1.8 0"/><path d="M14.722 8.221a.75.75 0 0 1 1.28.53v2.25c0 .672 0 1.008-.192 1.229a1 1 0 0 1-.079.078c-.221.193-.557.193-1.229.193h-2.248a.75.75 0 1 1 0-1.5h1.078a1.75 1.75 0 1 0-.53 2.148.75.75 0 1 1 .876 1.217 3.25 3.25 0 1 1 .823-4.346l.001-.59v-.678a.75.75 0 0 1 .22-.53"/></svg>