<svg xmlns="http://www.w3.org/2000/svg" viewBox="0 0 32 32"><path fill-rule="evenodd" d="M24.128 6.442a1.25 1.25 0 1 0-.755-2.384c-4.738 1.5-9.428 3.756-13.368 6.215a1 1 0 0 0-.123.087 81 81 0 0 0-3.987-2.834l-.015-.01a1.25 1.25 0 0 0-1.28 2.15v.001a78 78 0 0 1 4.153 2.977c.34.261.75.42 1.185.448l.54.035c3.383.222 7.2.473 10.233 1.166 1.602.366 2.863.83 3.698 1.399.799.544 1.091 1.09 1.091 1.7v4.112h-2.02a6 6 0 0 0-11.96 0H5.35l-.1-.004a1.25 1.25 0 1 0 .084 2.497v.007h6.509a6.003 6.003 0 0 0 11.314 0h2.698c1.258 0 2.145-1.03 2.145-2.177v-4.436c0-1.679-.93-2.912-2.184-3.765-1.217-.83-2.836-1.38-4.549-1.77-2.237-.512-4.84-.795-7.333-.992 3.166-1.75 6.674-3.308 10.194-4.422M21 22a3.5 3.5 0 1 1-7 0 3.5 3.5 0 0 1 7 0"/></svg>