<svg xmlns="http://www.w3.org/2000/svg" viewBox="0 0 24 24"><path fill-rule="evenodd" d="M21 11.766V9.463c0-1.055 0-1.825-.129-2.463-.204-1.013-.912-1.95-1.871-2.363C17.803 4.122 16.286 4 15 4s-2.803.122-4 .637C10.041 5.05 9.333 5.987 9.129 7 9 7.638 9 8.408 9 9.463v2.303a2 2 0 0 0-.121.113C8 12.757 8 14.17 8 16.999A1 1 0 0 0 9 18v1a1 1 0 1 0 2 0v-1h8v1a1 1 0 1 0 2 0v-1a1 1 0 0 0 1-1c0-2.829 0-4.243-.879-5.121q-.059-.06-.121-.113M16 9h-2a1.5 1.5 0 0 0-1.5 1.5v.5h5v-.5A1.5 1.5 0 0 0 16 9"/><path d="M3 15.5v-5.416L1 11.58V9.944L3 8.5h1.667v7z"/></svg>