<svg xmlns="http://www.w3.org/2000/svg" viewBox="0 0 16 16"><path d="M4.908 4.63c-.7.063-1.017.098-1.264.173-.075.022-.144.054-.213.085-.123.057-.245.112-.392.112a.75.75 0 0 1-.342-1.418c.555-.31 1.151-.363 2.076-.446C5.66 3.056 6.733 3 7.993 3c1.163 0 2.167.048 3.01.118 1.38.115 2.07.172 2.936 1.038.865.867.915 1.488 1.016 2.731a14 14 0 0 1 0 2.226c-.1 1.242-.15 1.864-1.016 2.73-.865.867-1.555.924-2.935 1.039a37 37 0 0 1-3.011.117 36 36 0 0 1-3.22-.136c-.915-.082-1.509-.136-2.059-.437A.75.75 0 0 1 3.04 11c.149 0 .27.055.393.111.068.031.137.063.212.085.247.075.564.11 1.264.173.84.076 1.87.13 3.085.13 1.12 0 2.084-.046 2.886-.112.74-.062 1.082-.097 1.35-.178.455-.137.93-.59 1.074-1.044.07-.222.1-.501.155-1.173a12.3 12.3 0 0 0 0-1.984c-.054-.672-.084-.95-.155-1.173-.144-.454-.62-.907-1.073-1.044-.27-.081-.61-.116-1.35-.178A35 35 0 0 0 7.992 4.5c-1.215 0-2.244.054-3.085.13"/><path d="M4.285 7.03a.75.75 0 1 0-1.062-1.06l-.97.97-.971-.97A.751.751 0 0 0 .22 7.03l.97.97-.97.97a.75.75 0 1 0 1.062 1.06l.97-.97.97.97a.751.751 0 0 0 1.063-1.06L3.314 8zm1.017.362.78-.637v2.918H7V5.881h-.918l-.78.615zm5.248 1.622c-.363 0-.517-.149-.561-.468H9.02c.044.83.583 1.198 1.528 1.198.918 0 1.451-.434 1.451-1.335 0-.791-.428-1.226-1.236-1.226-.374 0-.627.11-.77.259l.066-.77h1.676v-.791H9.351l-.17 1.973.808.176c.12-.149.291-.237.555-.237.335 0 .516.154.516.528v.17c0 .369-.175.523-.51.523m-1.908.252c0-.324-.176-.472-.494-.472-.319 0-.5.148-.5.472 0 .33.181.478.5.478.318 0 .494-.148.494-.478"/></svg>