<svg xmlns="http://www.w3.org/2000/svg" viewBox="0 0 16 16"><path fill-rule="evenodd" d="M13.94 11.844c-.866.866-1.556.923-2.936 1.038-.844.07-1.848.118-3.01.118a37 37 0 0 1-3.012-.118c-1.38-.115-2.07-.172-2.935-1.038a3.5 3.5 0 0 1-.586-.744c.192-.085.371-.206.528-.363l.263-.262.263.262a1.753 1.753 0 0 0 2.477 0 1.75 1.75 0 0 0 0-2.474L4.73 8l.263-.263a1.75 1.75 0 0 0 0-2.474 1.753 1.753 0 0 0-2.477 0l-.263.262-.263-.262a1.8 1.8 0 0 0-.528-.363 3.5 3.5 0 0 1 .586-.744c.866-.866 1.555-.923 2.935-1.038C5.826 3.048 6.83 3 7.993 3s2.167.048 3.01.118c1.38.115 2.07.172 2.936 1.038.865.867.915 1.488 1.016 2.731a14 14 0 0 1 0 2.226c-.1 1.242-.15 1.864-1.016 2.73M7.08 6.755l-.78.637v-.895l.78-.616H8v3.792h-.919zm3.726 1.792c.044.318.198.467.561.467.336 0 .512-.154.512-.522v-.17c0-.374-.182-.528-.517-.528-.264 0-.435.088-.556.236l-.809-.176.17-1.973h2.389v.792h-1.678l-.066.769c.143-.148.396-.258.77-.258.809 0 1.238.434 1.238 1.225 0 .902-.534 1.336-1.453 1.336-.946 0-1.485-.369-1.53-1.198zm-1.798.247c.319 0 .495.148.495.473 0 .33-.176.478-.495.478-.32 0-.5-.149-.5-.478 0-.325.18-.473.5-.473"/><path d="M4.285 7.03a.75.75 0 1 0-1.062-1.06l-.97.97-.971-.97A.751.751 0 0 0 .22 7.03l.97.97-.97.97a.75.75 0 1 0 1.062 1.06l.97-.97.97.97a.751.751 0 0 0 1.063-1.06L3.314 8z"/></svg>