<svg xmlns="http://www.w3.org/2000/svg" viewBox="0 0 17 17"><path fill-rule="evenodd" d="M1.271 8.06c.295-.19.578-.372.632-.624.167-.455.25-.682.307-.808.642-1.433 1.829-2.261 3.395-2.37.138-.009.314-.009.665-.009h.248c.548 0 .822 0 1.017.012 1.31.079 1.922.272 3.038.962.166.103.561.38 1.351.936.456.32.925.617 1.356.828.403.198.807.333 1.185.46 1.113.371 2.002.668 2.002 2.27 0 1.336 0 2.005-.373 2.452a1.6 1.6 0 0 1-.206.207c-.27.224-.617.313-1.143.349a2.391 2.391 0 0 1-4.516.023h-3.46a2.391 2.391 0 0 1-4.519-.03c-.584-.046-.967-.16-1.248-.44-.47-.472-.47-1.23-.47-2.747v-.594c0-.4.378-.644.74-.877m8.464-1.48c.111.068.438.297 1.234.858H5.318L4.771 6.08a2.6 2.6 0 0 1 .944-.231c.069-.005.175-.006.555-.006h.248c.576 0 .787 0 .922.009.596.035.928.092 1.206.18s.582.233 1.09.547m-4.292 5.373a.93.93 0 1 1-1.858 0 .93.93 0 0 1 1.858 0m7.968 0a.93.93 0 1 1-1.858 0 .93.93 0 0 1 1.858 0"/></svg>