<svg xmlns="http://www.w3.org/2000/svg" viewBox="0 0 32 32"><path fill-rule="evenodd" d="M11.788 23.997h8.424a3.752 3.752 0 0 0 7.101-.075c.79-.084 1.336-.264 1.761-.648q.105-.095.2-.2c.724-.801.724-2.035.724-4.502 0-2.973-1.56-3.524-3.517-4.216-.664-.234-1.374-.485-2.083-.852-.702-.363-1.454-.858-2.187-1.396-1.432-1.053-2.148-1.579-2.422-1.757-2.061-1.34-3.133-1.692-5.587-1.832-.327-.019-.803-.019-1.755-.019h-.137c-.816 0-1.224 0-1.557.032-2.608.25-4.608 1.671-5.7 4.052-.14.305-.308.787-.645 1.754-.095.468-.591.806-1.11 1.159-.634.432-1.3.886-1.3 1.627v1.268c0 2.642 0 3.963.821 4.784.438.438 1.018.642 1.865.738a3.752 3.752 0 0 0 7.104.083M12.448 11h-.138c-.876 0-1.135.003-1.319.02a5 5 0 0 0-1.332.306L11.08 14.5h10.177a27 27 0 0 1-.527-.378c-1.484-1.09-2.11-1.548-2.305-1.675-.958-.623-1.53-.912-2.062-1.087s-1.165-.28-2.305-.345C13.823 11 13.443 11 12.448 11m13.985 6H10.27a1.25 1.25 0 0 1-1.14-.739l-1.465-3.268a5 5 0 0 0-.342.634c-.073.16-.185.471-.517 1.426-.259.942-.868 1.548-1.225 1.857-.315.274-.708.54-.931.691l-.106.072-.047.033v.686c0 1.392.005 2.184.08 2.742q.023.157.042.241.052.012.13.025a3.751 3.751 0 0 1 7.036.097h8.428a3.752 3.752 0 0 1 7.04-.087l.132-.025q.019-.084.041-.25c.066-.524.071-1.264.071-2.563 0-.712-.126-.98-.164-1.05-.024-.042-.07-.12-.308-.253a5 5 0 0 0-.593-.269M9.5 22.75a1.25 1.25 0 1 1-2.5 0 1.25 1.25 0 0 1 2.5 0M23.75 24a1.25 1.25 0 1 0 0-2.5 1.25 1.25 0 0 0 0 2.5"/></svg>