<svg xmlns="http://www.w3.org/2000/svg" viewBox="0 0 44 44"><path fill-rule="evenodd" d="M3.17 31.827c.717.717 1.7.995 3.216 1.104a5.001 5.001 0 0 0 9.198.069h12.832a5.001 5.001 0 0 0 9.195-.063c1.463-.1 2.416-.357 3.124-1.022a4 4 0 0 0 .178-.178c1.085-1.156 1.085-2.966 1.085-6.585 0-4.145-2.23-4.914-5.024-5.877-.949-.327-1.962-.677-2.976-1.189-1.15-.58-2.424-1.412-3.655-2.303-1.798-1.301-2.697-1.952-3.093-2.205-2.814-1.8-4.54-2.36-7.875-2.551C18.905 11 18.25 11 16.939 11h-.296c-1.097 0-1.646 0-2.087.04-3.773.334-6.628 2.347-8.21 5.789-.186.402-.425 1.075-.905 2.42-.136.652-.845 1.124-1.585 1.616-.906.602-1.858 1.235-1.858 2.268v1.86c0 3.774 0 5.661 1.173 6.834m25.414-13.614a42 42 0 0 0 1.878 1.287H13.487l-1.9-4.433q1.368-.875 3.234-1.04c.275-.024.657-.027 1.822-.027h.296c1.361 0 1.904.001 2.263.022 1.534.088 2.518.252 3.381.531.863.28 1.757.724 3.05 1.552.302.193 1.094.764 2.951 2.108M13 31a2 2 0 1 1-4 0 2 2 0 0 1 4 0m22 0a2 2 0 1 1-4 0 2 2 0 0 1 4 0"/></svg>