<svg xmlns="http://www.w3.org/2000/svg" viewBox="0 0 17 17"><path fill-rule="evenodd" d="M1.903 7.436c-.054.252-.337.434-.632.624-.36.233-.74.478-.74.877v.594c0 1.517 0 2.275.471 2.746.281.281.664.395 1.248.44a2.391 2.391 0 0 0 4.52.031h3.459a2.391 2.391 0 0 0 4.516-.023c.526-.036.874-.125 1.143-.35q.113-.092.206-.206c.373-.447.373-1.116.373-2.452 0-1.602-.889-1.899-2.002-2.27-.378-.127-.782-.262-1.185-.46a10.4 10.4 0 0 1-1.353-.826c-.791-.557-1.187-.835-1.353-.938-1.117-.69-1.728-.883-3.039-.962-.194-.012-.469-.012-1.017-.012H6.27c-.351 0-.527 0-.665.01-1.566.108-2.753.936-3.395 2.37-.056.125-.14.352-.307.807m10.58 2.125c-1.04 0-1.926.665-2.254 1.594h-3.46a2.391 2.391 0 0 0-4.495-.035l-.078-.01-.023-.003-.004-.023c-.04-.307-.044-.75-.044-1.553v-.124c.13-.084.348-.225.525-.37.205-.17.6-.531.773-1.118.162-.438.215-.581.241-.64q.086-.19.187-.355l.65 1.608a.8.8 0 0 0 .738.498h8.934c.265.09.425.15.551.218a.5.5 0 0 1 .099.062c.011.028.05.14.05.407 0 .708-.002 1.097-.035 1.37l-.004.029-.028.004-.079.008a2.39 2.39 0 0 0-2.244-1.567M5.17 5.935l.606 1.502h5.194a46 46 0 0 0-1.235-.858c-.508-.314-.813-.46-1.09-.547s-.61-.144-1.206-.18a20 20 0 0 0-.922-.009H6.27c-.38 0-.486.001-.555.006a3 3 0 0 0-.544.086m9.657 3.38.002.002zm-9.384 2.637a.93.93 0 1 1-1.858 0 .93.93 0 0 1 1.858 0m7.039.929a.93.93 0 1 0 0-1.858.93.93 0 0 0 0 1.858"/></svg>