<svg xmlns="http://www.w3.org/2000/svg" viewBox="0 0 16 16"><path fill-rule="evenodd" d="m10.354 9.063.035.021.532.324c.708.432 1.186.72 1.544.901.033-.409.035-.982.035-1.837v-.944c0-.855-.002-1.428-.035-1.837-.358.18-.836.469-1.544.9l-.532.325-.035.02c-.812.496-1.32.81-1.648 1.064.328.255.836.568 1.648 1.063M8.44 8.24l-.002.003v.001zm1.135-2.583C7.864 6.698 7 7.224 7 8s.863 1.302 2.574 2.344l.034.021.532.324c1.71 1.042 2.569 1.563 3.214 1.192.646-.372.646-1.384.646-3.409v-.944c0-2.025 0-3.037-.646-3.408-.645-.372-1.505.15-3.214 1.19l-.532.325zM4.368 12h.033c.19 0 .4 0 .577-.023.211-.028.476-.1.706-.315.228-.215.317-.472.359-.681.035-.176.048-.383.06-.57l.002-.033C6.149 9.693 6.2 8.74 6.2 8s-.051-1.693-.095-2.378l-.002-.032a5 5 0 0 0-.06-.57 1.23 1.23 0 0 0-.36-.682 1.24 1.24 0 0 0-.705-.315A5 5 0 0 0 4.401 4H3c-.19 0-.399 0-.577.023-.21.028-.475.1-.705.315a1.23 1.23 0 0 0-.36.681 5 5 0 0 0-.06.57l-.002.033A41 41 0 0 0 1.2 8c0 .74.051 1.693.095 2.378l.003.033c.012.187.025.394.06.57.042.209.13.466.359.68.23.216.494.288.705.316C2.6 12 2.81 12 3 12zm.24-1.718-.015.217-.225.001H2.807l-.015-.218A40 40 0 0 1 2.7 8a40 40 0 0 1 .107-2.499l.225-.001h1.336l.225.001.015.217C4.652 6.4 4.7 7.312 4.7 8s-.048 1.6-.092 2.282"/></svg>