<svg xmlns="http://www.w3.org/2000/svg" viewBox="0 0 16 16"><path fill-rule="evenodd" d="M4.553 4h.029c.149 0 .326 0 .478.02.185.024.431.089.647.29.214.2.295.44.332.624.03.15.042.326.052.473l.002.029C6.139 6.128 6.2 7.192 6.2 8s-.061 1.872-.107 2.565l-.002.028c-.01.148-.022.323-.052.473a1.14 1.14 0 0 1-.332.624 1.14 1.14 0 0 1-.647.29c-.152.02-.329.02-.478.02H2.818c-.149 0-.325 0-.478-.02a1.14 1.14 0 0 1-.646-.29c-.215-.2-.296-.44-.333-.624a4 4 0 0 1-.051-.473l-.002-.028A43 43 0 0 1 1.2 8c0-.808.061-1.872.108-2.564l.002-.03c.01-.146.021-.322.051-.472.037-.184.118-.423.333-.624s.461-.266.646-.29C2.493 4 2.67 4 2.818 4zm5.02 1.656.035-.021.532-.324c1.71-1.042 2.569-1.563 3.214-1.191C14 4.49 14 5.503 14 7.528v.944c0 2.025 0 3.037-.646 3.409-.645.37-1.505-.15-3.214-1.192l-.532-.324-.034-.02C7.864 9.301 7 8.774 7 8s.863-1.302 2.574-2.344"/></svg>