<svg xmlns="http://www.w3.org/2000/svg" viewBox="0 0 24 24"><path d="M6 12.001c0 1.492.065 2.787.16 3.882.093 1.079.148 1.602.278 2.023.234.76.98 1.518 1.742 1.756.393.122.879.173 1.915.26a23 23 0 0 0 3.809 0c1.037-.087 1.522-.138 1.915-.26.289-.09.584-.239 1.044-.696q.17-.17.289-.316c.287-.35.68-.65 1.134-.65.677 0 1.201.638.878 1.233-.207.382-.491.752-.89 1.15-1.293 1.289-2.264 1.37-4.204 1.531a25 25 0 0 1-4.14 0c-1.941-.162-2.912-.242-4.205-1.532s-1.382-2.301-1.558-4.326A47 47 0 0 1 4 12.001c0-1.565.068-2.928.17-4.089.176-2.007.264-3.01 1.558-4.299C7.022 2.325 7.98 2.246 9.895 2.087a25 25 0 0 1 4.138.002c1.967.164 2.95.246 4.245 1.537.393.392.675.76.882 1.14.325.595-.2 1.234-.878 1.234-.452 0-.845-.298-1.132-.648a4 4 0 0 0-.285-.31c-.456-.455-.754-.605-1.049-.697-.402-.124-.899-.175-1.949-.263a23 23 0 0 0-3.806-.002c-1.024.085-1.499.134-1.884.255-.756.237-1.503.996-1.737 1.751-.129.415-.184.931-.277 2.001A45 45 0 0 0 6 12.001"/><path d="M21.707 8.293a1 1 0 0 0-1.414 0l-6 6a1 1 0 0 0 1.414 1.414l6-6a1 1 0 0 0 0-1.414M16.25 9a1.25 1.25 0 1 1-2.5 0 1.25 1.25 0 0 1 2.5 0M21 16.25a1.25 1.25 0 1 0 0-2.5 1.25 1.25 0 0 0 0 2.5"/></svg>