<svg xmlns="http://www.w3.org/2000/svg" viewBox="0 0 16 16"><path d="M2.521 5.884a1.76 1.76 0 0 0 1.544 1.544c.35.043.742.074 1.132.074.391 0 .782-.031 1.132-.074a1.76 1.76 0 0 0 1.545-1.544 10 10 0 0 0 .073-1.132c0-.39-.031-.781-.073-1.132a1.76 1.76 0 0 0-1.545-1.544 10 10 0 0 0-1.132-.074c-.39 0-.781.031-1.132.074A1.76 1.76 0 0 0 2.521 3.62a10 10 0 0 0-.074 1.132c0 .39.031.781.074 1.132"/><path fill-rule="evenodd" d="M4.065 13.928a1.76 1.76 0 0 1-1.544-1.544 10 10 0 0 1-.074-1.132c0-.39.031-.781.074-1.132a1.76 1.76 0 0 1 1.544-1.544c.35-.043.742-.074 1.132-.074.391 0 .782.031 1.132.074a1.76 1.76 0 0 1 1.545 1.544c.042.35.073.741.073 1.132s-.031.781-.073 1.132a1.76 1.76 0 0 1-1.545 1.544c-.35.043-.741.074-1.132.074s-.781-.031-1.132-.074m-.22-1.704a8 8 0 0 1-.064-.972c0-.323.026-.658.064-.972a.426.426 0 0 1 .38-.38c.314-.039.65-.065.972-.065.323 0 .658.026.972.064a.426.426 0 0 1 .38.381c.039.314.065.649.065.972s-.026.658-.064.972a.426.426 0 0 1-.38.38 8 8 0 0 1-.973.065 8 8 0 0 1-.972-.064.426.426 0 0 1-.38-.381"/><path d="M9.5 3.25a.75.75 0 0 1 .75-.75h3.5a.75.75 0 0 1 0 1.5h-3.5a.75.75 0 0 1-.75-.75m.75 2.25a.75.75 0 1 0 0 1.5h1.5a.75.75 0 0 0 0-1.5zM9.5 9.75a.75.75 0 0 1 .75-.75h3.5a.75.75 0 0 1 0 1.5h-3.5a.75.75 0 0 1-.75-.75m.75 2.25a.75.75 0 1 0 0 1.5h1.5a.75.75 0 0 0 0-1.5z"/></svg>