<svg xmlns="http://www.w3.org/2000/svg" viewBox="0 0 24 24"><path d="M7.5 3.5a1 1 0 0 1 1 1v2h2a1 1 0 1 1 0 2h-2v2a1 1 0 1 1-2 0v-2h-2a1 1 0 0 1 0-2h2v-2a1 1 0 0 1 1-1"/><path fill-rule="evenodd" d="M16 7.432c1.009.64 1.782 1.146 2.327 1.718.314.33.516.65.627.987s.151.75.06 1.299a1 1 0 1 0 1.972.328c.137-.818.094-1.564-.132-2.25-.225-.685-.612-1.253-1.079-1.743-.77-.809-1.86-1.497-2.95-2.185l-.503-.32C15.333 4.637 14 5.329 14 6.535v7.803a3.5 3.5 0 1 0 2 3.163zM12.5 19a1.5 1.5 0 1 0 0-3 1.5 1.5 0 0 0 0 3"/></svg>