<svg xmlns="http://www.w3.org/2000/svg" viewBox="0 0 44 44"><path fill-rule="evenodd" d="M22 6a1.5 1.5 0 0 1 1.5 1.5v4.509c2.289.042 3.715.292 5.551 1.787.29.237.916.862 1.153 1.153 1.495 1.836 1.745 3.262 1.787 5.551H36.5a1.5 1.5 0 0 1 0 3h-4.509c-.042 2.289-.292 3.715-1.787 5.551-.237.29-.862.916-1.153 1.153-1.836 1.495-3.262 1.745-5.551 1.787V36.5a1.5 1.5 0 0 1-3 0v-4.509c-2.289-.042-3.715-.292-5.551-1.787-.29-.237-.916-.862-1.153-1.153-1.495-1.836-1.745-3.262-1.787-5.551H7.5a1.5 1.5 0 0 1 0-3h4.509c.042-2.289.292-3.715 1.787-5.551.237-.29.862-.916 1.153-1.153 1.836-1.495 3.262-1.745 5.551-1.787V7.5A1.5 1.5 0 0 1 22 6m-6.99 17.5H17a1.5 1.5 0 0 0 0-3h-1.99c.015-.794.055-1.33.152-1.8.115-.556.328-1.08.96-1.857l.002-.001q.007-.011.103-.114a11 11 0 0 1 .615-.604l.001-.001c.777-.633 1.3-.846 1.856-.96.471-.098 1.007-.138 1.801-.153V17a1.5 1.5 0 0 0 3 0v-1.99c.794.015 1.33.055 1.8.152.556.115 1.08.328 1.857.96l.001.002q.011.007.114.103a11 11 0 0 1 .5.5c.066.07.098.107.104.115l.001.001c.633.777.846 1.3.96 1.856.099.471.138 1.007.153 1.801H27a1.5 1.5 0 0 0 0 3h1.99c-.015.794-.054 1.33-.152 1.8-.115.556-.328 1.08-.96 1.857l-.002.001c-.007.008-.038.045-.103.114a11 11 0 0 1-.5.5c-.07.066-.107.098-.115.104l-.001.001c-.777.633-1.3.846-1.856.96-.471.099-1.007.138-1.801.153V27a1.5 1.5 0 0 0-3 0v1.99c-.794-.015-1.33-.054-1.8-.152-.556-.115-1.08-.328-1.857-.96l-.001-.002q-.011-.007-.114-.103a11 11 0 0 1-.604-.615l-.001-.001c-.633-.777-.846-1.3-.96-1.856-.098-.471-.138-1.007-.153-1.801"/></svg>