<svg xmlns="http://www.w3.org/2000/svg" viewBox="0 0 16 16"><path fill-rule="evenodd" d="M8 1.5a.75.75 0 0 1 .75.75v1.755c1.018.024 1.646.155 2.363.865l.017.017c.71.717.84 1.345.865 2.363h1.755a.75.75 0 0 1 0 1.5h-1.755c-.024 1.018-.154 1.646-.865 2.363l-.017.017c-.717.71-1.345.84-2.363.865v1.755a.75.75 0 0 1-1.5 0v-1.755c-1.018-.024-1.646-.154-2.363-.865l-.017-.017c-.71-.717-.84-1.345-.865-2.363H2.25a.75.75 0 0 1 0-1.5h1.755c.024-1.018.155-1.646.865-2.363l.017-.017c.717-.71 1.345-.84 2.363-.865V2.25A.75.75 0 0 1 8 1.5M5.506 8.75H6a.75.75 0 0 0 0-1.5h-.494c.008-.322.026-.53.066-.706.041-.182.107-.342.363-.6v-.001l.004-.004.004-.003v-.001c.259-.256.419-.322.6-.363.176-.04.385-.058.707-.066V6a.75.75 0 0 0 1.5 0v-.494c.322.008.53.026.706.066.182.041.342.107.6.363h.001l.004.004.003.004h.001c.256.259.322.419.363.6.04.176.058.385.066.707H10a.75.75 0 0 0 0 1.5h.494c-.008.322-.027.53-.066.706-.041.182-.107.342-.363.6v.001l-.004.004-.004.003v.001c-.259.256-.419.322-.6.363-.176.04-.385.058-.707.066V10a.75.75 0 0 0-1.5 0v.494a3.7 3.7 0 0 1-.706-.066c-.182-.041-.342-.107-.6-.363h-.001l-.004-.004-.003-.004h-.001c-.256-.259-.322-.419-.363-.6a3.7 3.7 0 0 1-.066-.707"/></svg>