<svg xmlns="http://www.w3.org/2000/svg" viewBox="0 0 44 44"><path fill-rule="evenodd" d="M25.158 32.471c-.6.727-1.305 1.689-1.738 2.711l-.06.134c-.203.478-.444 1.044-.73 1.488C22.395 37.169 22.09 38 21 38c-.855 0-1.64-.529-2.17-1.145-.589-.685-1.036-1.654-1.193-2.906-.265-2.108.286-5.027 2.359-9.007H8.723c-.261 0-.392 0-.797-.184-.405-.183-.428-.21-.474-.264C6.86 23.804 6 22.448 6 18.426 6 12.292 13.369 7 19.5 7h6c1.627 0 3.052.026 4.3.07v19.063c0 .356 0 .534-.059.698-.059.165-.172.302-.4.576zM32.8 24.71c1.72-.13 2.92-.298 3.744-.453.529-.1.793-.15 1.397-.655s.705-.783.906-1.341C39.365 20.83 40 18.857 40 16.14s-.636-5.029-1.153-6.458c-.201-.558-.302-.836-.906-1.341s-.869-.555-1.397-.655c-.823-.155-2.023-.322-3.744-.453z"/></svg>