<svg xmlns="http://www.w3.org/2000/svg" viewBox="0 0 24 24"><path fill-rule="evenodd" d="M14.507 16.837c-.374.462-.561.692-.72.943-.318.504-.568 1.06-.816 1.61q-.144.32-.293.635c-.26.548-.391.822-.861.93-.47.11-.598.008-.853-.194-1.108-.881-1.438-3.108-.101-5.76-1.304.014-2.607.01-3.91.008q-.848-.003-1.696-.003c-.688-.001-1.032-.001-1.295-.194-.264-.193-.38-.561-.615-1.298l-.06-.186c-.246-.77-.4-1.751-.185-2.825.486-2.43 3.334-6.279 6.709-6.494Q10.385 4 11.003 4c1.58 0 2.994.018 3.995.129l1 .111V15zm6.363-2.968c-.501.455-1.096.601-1.867.674C18.4 14.6 18 14.6 18 14.6v-.974l-.002-9.26.34.032c1.275.117 1.913.176 2.532.738s.717 1.078.913 2.107c.126.666.217 1.432.217 2.26s-.09 1.593-.217 2.26c-.196 1.029-.294 1.544-.913 2.106"/></svg>