<svg xmlns="http://www.w3.org/2000/svg" viewBox="0 0 44 44"><path fill-rule="evenodd" d="M8.723 25c-.261 0-.392 0-.797-.19-.405-.192-.428-.22-.474-.276C6.86 23.816 6 22.054 6 17.875 6 11.5 13.369 6 19.5 6h6c6.088 0 9.356.383 11.044.713.529.104.793.156 1.397.68.604.525.705.815.906 1.394C39.364 10.274 40 12.678 40 15.5s-.636 5.227-1.153 6.712c-.2.58-.302.87-.906 1.395-.604.524-.869.576-1.397.68-1.047.205-2.703.43-5.263.571l-.337.374c-1.148 1.29-2.996 3.505-5.744 7.168-.551.735-.947 1.647-1.36 2.6l-.153.351c-.212.485-.465 1.046-.764 1.488-.25.37-.86 1.161-1.923 1.161-.441 0-.856-.146-1.172-.302a4.3 4.3 0 0 1-1.039-.726c-.68-.636-1.3-1.578-1.62-2.858-.54-2.16-.202-5.125 1.792-9.114zM32.8 21.749c1.225-.125 2.504-.276 3.167-.406l.007-.002.04-.113c.444-1.279.986-3.34.986-5.728s-.542-4.45-.986-5.728l-.04-.113-.007-.002c-.661-.13-1.674-.28-3.167-.405zm-3-12.673C28.57 9.029 27.146 9 25.5 9h-6c-2.242 0-4.958 1.044-7.13 2.852C10.191 13.667 9 15.864 9 17.875c0 2.214.266 3.468.485 4.125h12.043a1.5 1.5 0 0 1 1.259 2.272c-2.905 4.84-3.069 7.666-2.707 9.114.152.607.402 1.01.631 1.265l.068-.168c.211-.537.864-2.197 1.721-3.483l7.3-9z"/></svg>