<svg xmlns="http://www.w3.org/2000/svg" viewBox="0 0 24 24"><path fill-rule="evenodd" d="M9.819 14.004H5.233c-.687 0-1.03-.001-1.294-.194-.983-.719-1.036-3.432-.86-4.308.486-2.43 3.335-6.277 6.711-6.493Q10.368 3 10.989 3c3.106 0 5.692.187 7.456.365 1.201.122 1.802.183 2.412.737.61.555.709 1.049.905 2.038.138.69.238 1.491.238 2.362 0 .87-.1 1.673-.238 2.362-.196.989-.295 1.483-.905 2.038s-1.21.615-2.411.737q-.576.059-1.265.115l-2.27 3.026c-.321.428-.44.587-.54.754-.1.166-.185.346-.412.83l-.523 1.117-.023.048c-.104.224-.251.54-.467.793-.292.343-.66.534-1.095.62-.3.06-.657.1-1.02-.017-.332-.108-.562-.321-.656-.408l-.02-.018c-.854-.779-1.213-2.031-1.142-3.383.049-.948.308-2.002.806-3.112m2.67-.934c-.014.295-.148.456-.255.634-.827 1.373-1.174 2.583-1.222 3.515s.198 1.491.443 1.753l.02-.035a7 7 0 0 0 .148-.305l.544-1.162c.199-.423.329-.7.488-.966.16-.266.344-.51.624-.885l2.414-3.216.3-.4V5.167a75 75 0 0 0-6.117-.158c-.968.077-2.062.7-3.055 1.774C5.814 7.872 5.196 9.12 5.04 9.895c-.145.725 0 1.418.22 2.108h5.728l.5-.001v.001a.997.997 0 0 1 1 1.067m5.506-1.397V5.33a60 60 0 0 1 .982.106c.193.026.308.049.383.068.231.062.267.234.317.443.035.149.07.325.122.582.116.583.2 1.253.2 1.972s-.084 1.389-.2 1.972c-.051.257-.087.433-.122.582-.05.208-.09.382-.317.443-.075.02-.19.042-.383.068a24 24 0 0 1-.982.106"/></svg>