<svg xmlns="http://www.w3.org/2000/svg" viewBox="0 0 16 16"><path fill-rule="evenodd" d="M8.578 13.81q.316-.186.52-.576c.026-.048.155-.34.288-.65.285-.665.343-.791.414-.91.065-.108.125-.193.723-1.018.4-.553 1.33-1.828 1.33-1.828s.04-.015.097-.019a42 42 0 0 0 1.253-.121c.424-.053.649-.123.873-.27.432-.285.637-.677.748-1.17a6.8 6.8 0 0 0 .172-1.743 9 9 0 0 0-.192-1.61c-.117-.58-.342-1.105-.897-1.383-.25-.125-.51-.18-1.16-.244a56 56 0 0 0-4.057-.254 66 66 0 0 0-2.14-.009c-.29.012-.47.039-.754.11-.996.253-1.97.945-2.688 1.908-.598.803-.98 1.734-1.088 2.645-.03.257-.03.727 0 .965.034.272.09.508.192.828.066.203.123.298.233.39a.7.7 0 0 0 .267.131c.102.022.551.028 2.22.029.851 0 1.547.003 1.547.005 0 .003-.018.058-.041.122-.162.458-.282.98-.335 1.455-.049.44-.045.918.012 1.308q.166 1.133.805 1.772c.18.18.376.266.6.306q.117.02.242.021c.285 0 .587-.055.816-.19m-.852-1.619a2.7 2.7 0 0 1-.135-.576 5.5 5.5 0 0 1 0-.828 5.6 5.6 0 0 1 .607-1.949c.167-.323.175-.34.195-.415A.755.755 0 0 0 8 7.57a.6.6 0 0 0-.31-.075l-1.587.008c-1.414.008-2.568.006-2.58-.006-.193-.185.054-1.044.113-1.247.132-.457.367-.914.687-1.341.552-.736 1.28-1.236 2.004-1.376.096-.018.143-.021.418-.029 1.22-.034 2.49-.04 3.707.089l.044.004v4.537c-.614.85-1.252 1.686-1.842 2.553-.216.317-.27.426-.646 1.305l-.176.41c-.006.01-.071-.12-.105-.21m4.272-8.483s.614.05.919.088c.18.023.294.045.319.064s.038.062.087.3c.083.394.127.674.152.968a5.8 5.8 0 0 1-.112 1.77c-.027.12-.023.25-.165.275-.392.068-1.204.124-1.204.124z"/></svg>