<svg xmlns="http://www.w3.org/2000/svg" viewBox="0 0 16 16"><path fill-rule="evenodd" d="M9.656 11.298a7 7 0 0 0-.409.546c-.216.34-.393.711-.567 1.079q-.107.226-.217.449c-.227.451-.643.858-1.135.477-.75-.58-.978-2.074-.082-3.853-.819.008-1.638.006-2.457.004h-1.31c-.442-.001-.663-.002-.839-.125s-.25-.35-.403-.807l-.045-.137a3.44 3.44 0 0 1-.124-1.8c.323-1.544 2.21-3.972 4.449-4.124Q6.942 3 7.402 3c.906 0 1.983.002 2.445.047s.655.158.655.158v7.023zm4.595-2.032c-.393.34-.802.392-1.58.458l-.67.025V3.204l.146.012.386.033c.869.073 1.303.11 1.718.47s.48.693.61 1.358c.083.419.14.898.14 1.415 0 .518-.057.997-.14 1.416-.13.665-.195.998-.61 1.358"/></svg>