<svg xmlns="http://www.w3.org/2000/svg" viewBox="0 0 24 24"><path fill-rule="evenodd" d="M4 10c0-.528-.103-1.017-.317-1.432l-.572-1.11a1 1 0 0 1 1.778-.916l.572 1.11C5.848 8.402 6 9.218 6 10h4c.942 0 1.413 0 1.706-.293S12 8.943 12 8V5c0-.952 0-1.428.318-1.725.318-.296.772-.265 1.68-.201q.262.018.517.04c2.096.177 3.144.266 4.148 1.269 1.005 1.002 1.09 1.99 1.262 3.964.046.54.075 1.096.075 1.653s-.029 1.114-.075 1.654c-.172 1.974-.257 2.962-1.262 3.964a4 4 0 0 1-.433.375A3 3 0 1 1 13.17 17h-2.34a3 3 0 1 1-5.06-1.007 4 4 0 0 1-.433-.376c-1.005-1.002-1.09-1.99-1.262-3.964A19 19 0 0 1 4 10m2.75 4.202a1.44 1.44 0 0 1-.426-.727c-.091-.334-.144-.755-.21-1.475h3.965c.4 0 .876 0 1.285-.054.494-.067 1.177-.245 1.757-.824.58-.58.758-1.264.825-1.758.055-.41.055-.885.054-1.285v-3l.346.027c2.253.191 2.503.292 2.904.692.247.246.347.433.427.727.11.408.164.944.255 1.995.043.492.068.99.068 1.48s-.025.989-.068 1.48c-.09 1.051-.145 1.588-.255 1.995-.08.294-.18.481-.427.727-.4.4-.65.501-2.904.692-.762.065-1.56.106-2.346.106-.787 0-1.584-.041-2.346-.106-2.253-.19-2.503-.291-2.904-.692M9 18a1 1 0 1 1-2 0 1 1 0 0 1 2 0m7 1a1 1 0 1 0 0-2 1 1 0 0 0 0 2"/></svg>