<svg xmlns="http://www.w3.org/2000/svg" viewBox="0 0 16 16"><path fill-rule="evenodd" d="M13.096 11.008c-.169.17-.344.302-.535.405a2.248 2.248 0 1 1-3.925.575 18 18 0 0 1-1.271 0q.13.358.131.76a2.248 2.248 0 1 1-4.057-1.335 2.3 2.3 0 0 1-.535-.405c-.661-.665-.723-1.36-.845-2.748-.03-.341-.051-.693-.057-1.046q-.012-.27-.013-.547V6.5a2 2 0 0 0-.176-.834l-.257-.632a.75.75 0 1 1 1.389-.566l.261.643.057.14a3.1 3.1 0 0 1 .226 1.25h3.178c.629 0 .943 0 1.138-.195.196-.195.196-.51.196-1.138V3.312c0-.633 0-.95.21-1.148.13-.122.297-.161.548-.164.155-.002.343.01.574.026q.431.027.851.068c1.5.14 2.25.211 2.912.877.66.663.723 1.388.845 2.77.037.409.059.834.059 1.259s-.022.85-.059 1.26c-.122 1.389-.184 2.083-.845 2.748m-7.848 2.488a.748.748 0 1 0 0-1.496.748.748 0 0 0 0 1.496m5.504 0a.748.748 0 1 0 0-1.496.748.748 0 0 0 0 1.496"/></svg>