<svg xmlns="http://www.w3.org/2000/svg" viewBox="0 0 24 24"><path fill-rule="evenodd" d="M.106 9.232C.366 5.744.496 4 2.246 2.249S5.741.369 9.23.109A38 38 0 0 1 12 .001c.932 0 1.865.04 2.77.108C18.255.37 20 .5 21.75 2.25s1.88 3.495 2.14 6.983c.067.904.108 1.837.108 2.77 0 .932-.04 1.865-.108 2.77-.26 3.487-.39 5.231-2.14 6.982-1.75 1.75-3.495 1.88-6.983 2.14-.904.067-1.837.108-2.77.108-.932 0-1.865-.04-2.77-.108-3.487-.26-5.231-.39-6.982-2.14-1.75-1.75-1.88-3.495-2.14-6.983a38 38 0 0 1-.108-2.77c0-.932.04-1.865.108-2.77M14.058 21.44v-8.32h2.296l.304-2.866h-2.6l.004-1.435c0-.747.07-1.148 1.145-1.148h1.435V4.804h-2.297c-2.758 0-3.73 1.39-3.73 3.73v1.72H7.864v2.867h2.753v8.319z"/></svg>