<svg xmlns="http://www.w3.org/2000/svg" viewBox="0 0 32 32"><path fill-rule="evenodd" d="M.142 12.309c.346-4.65.52-6.976 2.853-9.31C5.33.665 7.655.492 12.305.145 13.512.055 14.756.001 16 .001s2.487.055 3.693.144c4.65.347 6.976.52 9.31 2.854s2.507 4.66 2.853 9.31c.09 1.206.144 2.45.144 3.693 0 1.244-.054 2.487-.144 3.693-.346 4.65-.519 6.976-2.853 9.31s-4.66 2.507-9.31 2.854c-1.206.09-2.45.144-3.693.144a50 50 0 0 1-3.693-.145c-4.651-.346-6.976-.519-9.31-2.853s-2.508-4.66-2.854-9.31a50 50 0 0 1-.144-3.693c0-1.244.054-2.487.144-3.693m18.602 16.277V17.494h3.061l.406-3.822h-3.467l.005-1.913c0-.997.094-1.531 1.526-1.531h1.914V6.405h-3.062c-3.678 0-4.973 1.855-4.973 4.973v2.295h-3.67v3.822h3.67v11.091z"/></svg>