<svg xmlns="http://www.w3.org/2000/svg" viewBox="0 0 44 44"><path fill-rule="evenodd" d="M.194 16.925C.67 10.53.908 7.333 4.118 4.123S10.524.676 16.919.2a69 69 0 0 1 5.078-.198c1.71 0 3.42.075 5.078.198 6.395.476 9.592.714 12.802 3.923s3.447 6.407 3.923 12.802c.123 1.658.198 3.368.198 5.078s-.075 3.42-.198 5.077c-.476 6.395-.714 9.593-3.923 12.802-3.21 3.21-6.407 3.448-12.802 3.923a69 69 0 0 1-5.078.199c-1.71 0-3.42-.075-5.078-.199-6.395-.475-9.592-.713-12.801-3.923C.908 36.672.67 33.475.194 27.08a69 69 0 0 1-.198-5.077c0-1.71.075-3.42.198-5.078m25.578 22.38v-15.25h4.21l.558-5.256h-4.768l.008-2.63c0-1.371.13-2.105 2.098-2.105h2.632V8.807H26.3c-5.058 0-6.838 2.55-6.838 6.837V18.8h-5.046v5.255h5.046v15.25z"/></svg>