<svg xmlns="http://www.w3.org/2000/svg" viewBox="0 0 16 16"><path fill-rule="evenodd" d="M9.25 13.25c-.583.585-1.164.628-2.327.714a12 12 0 0 1-1.847 0c-1.163-.086-1.744-.13-2.328-.713-.583-.584-.626-1.165-.713-2.328A13 13 0 0 1 1.999 10c0-.311.014-.622.036-.923.087-1.163.13-1.745.713-2.328.584-.584 1.165-.627 2.328-.714C5.378 6.013 5.69 6 6 6s.621.014.923.036c1.163.087 1.744.13 2.328.714.583.583.626 1.165.713 2.328.022.301.036.612.036.923 0 .31-.014.622-.036.923-.087 1.163-.13 1.744-.713 2.328M8.5 10q-.001.404-.032.812c-.047.63-.073.911-.126 1.115a.48.48 0 0 1-.152.263.47.47 0 0 1-.264.152c-.203.053-.485.08-1.115.126a10.5 10.5 0 0 1-1.623 0c-.63-.046-.912-.073-1.115-.126a.47.47 0 0 1-.264-.152.48.48 0 0 1-.152-.263c-.053-.204-.08-.486-.126-1.115A11 11 0 0 1 3.499 10a11 11 0 0 1 .032-.812c.047-.63.073-.912.126-1.115a.48.48 0 0 1 .152-.264.48.48 0 0 1 .264-.152c.203-.053.485-.079 1.115-.126.27-.02.544-.032.812-.032q.402.001.811.032c.63.047.912.073 1.115.126.117.03.169.057.264.152a.47.47 0 0 1 .152.264c.053.203.08.485.126 1.115.02.27.032.544.032.812"/><path d="M10 .934A.643.643 0 0 0 8.986.408C7.44 1.5 6.5 2.045 6.5 2.805S7.44 4.11 8.986 5.2A.643.643 0 0 0 10 4.676c0-.422-.208-.74-.583-1.007-.052-.037-.097-.086-.144-.119 1.845.137 2.122.214 2.542.635.42.42.498.697.635 2.542a17 17 0 0 1 .049 1.479.775.775 0 0 0 .764.794c.398 0 .728-.31.735-.707L14 8c0-.466-.02-.933-.054-1.385-.13-1.744-.195-2.616-1.07-3.49-.875-.876-1.747-.941-3.491-1.07l-.115-.01.147-.104c.36-.257.583-.609.583-1.007"/></svg>