<svg xmlns="http://www.w3.org/2000/svg" viewBox="0 0 16 16"><path d="M10 .934A.643.643 0 0 0 8.986.408C7.44 1.5 6.5 2.045 6.5 2.805S7.44 4.11 8.986 5.2A.643.643 0 0 0 10 4.676c0-.422-.208-.74-.583-1.007-.052-.037-.097-.086-.144-.119 1.845.137 2.122.214 2.542.635.42.42.498.697.635 2.542a17 17 0 0 1 .049 1.479.775.775 0 0 0 .764.794c.398 0 .728-.31.735-.707L14 8c0-.466-.02-.933-.054-1.385-.13-1.744-.195-2.616-1.07-3.49-.875-.876-1.747-.941-3.491-1.07l-.115-.01.147-.104c.36-.257.583-.609.583-1.007m-3.077 13.03c1.163-.086 1.744-.13 2.328-.713.583-.584.626-1.165.713-2.328.022-.301.036-.612.036-.923s-.014-.622-.036-.923c-.087-1.163-.13-1.745-.713-2.328-.584-.584-1.165-.627-2.328-.714A13 13 0 0 0 6 6c-.311 0-.622.014-.924.036-1.163.087-1.744.13-2.328.714-.583.583-.626 1.165-.713 2.328-.022.301-.036.612-.036.923 0 .31.014.622.036.923.087 1.163.13 1.744.713 2.328.584.584 1.165.627 2.328.713a12 12 0 0 0 1.847 0"/></svg>