<svg xmlns="http://www.w3.org/2000/svg" viewBox="0 0 24 24"><path d="M13.423 7.841a1 1 0 0 0 1.154-1.634l-.331-.233c-.526-.371-.96-.679-1.319-.942q.504.02 1.002.057c2.75.204 3.265.318 3.97 1.024.707.707.82 1.221 1.025 3.971.048.638.076 1.274.076 1.916 0 .546.433 1 .979 1h.04a.97.97 0 0 0 .981-.96V12c0-.7-.03-1.386-.081-2.064-.195-2.616-.292-3.924-1.605-5.237s-2.62-1.41-5.237-1.605a30 30 0 0 0-1.196-.065c.368-.272.816-.59 1.365-.977l.33-.233A1 1 0 0 0 13.424.185l-.33.233c-2.319 1.637-3.478 2.455-3.478 3.595s1.16 1.958 3.477 3.595z"/><path fill-rule="evenodd" d="M13.876 19.876c-.875.875-1.748.94-3.492 1.07C9.932 20.98 9.466 21 9 21s-.933-.02-1.385-.054c-1.744-.13-2.616-.195-3.491-1.07-.876-.876-.94-1.748-1.07-3.492A19 19 0 0 1 2.999 15c0-.466.02-.933.054-1.385.13-1.744.194-2.616 1.07-3.491.875-.876 1.747-.94 3.491-1.07A19 19 0 0 1 9 8.999c.467 0 .933.02 1.385.054 1.744.13 2.617.194 3.492 1.07.875.875.94 1.747 1.07 3.491.034.452.054.919.054 1.385 0 .467-.02.933-.054 1.385-.13 1.744-.195 2.616-1.07 3.492M13 14.999c0 .41-.018.826-.049 1.237-.07.936-.11 1.384-.196 1.716a.96.96 0 0 1-.293.51.96.96 0 0 1-.51.293c-.332.086-.78.127-1.716.197-.411.03-.828.048-1.237.048s-.825-.018-1.236-.049c-.937-.07-1.385-.11-1.717-.196a.96.96 0 0 1-.51-.293.96.96 0 0 1-.292-.51c-.087-.332-.127-.78-.197-1.716-.03-.411-.048-.828-.048-1.237s.017-.825.048-1.236c.07-.937.11-1.385.197-1.717a.95.95 0 0 1 .293-.51.96.96 0 0 1 .51-.292c.331-.087.78-.127 1.716-.197.41-.03.827-.049 1.236-.049s.826.019 1.237.05c.936.069 1.384.11 1.716.196a.96.96 0 0 1 .51.293.96.96 0 0 1 .293.51c.086.331.127.78.196 1.716.031.41.049.827.049 1.236"/></svg>