<svg xmlns="http://www.w3.org/2000/svg" viewBox="0 0 24 24"><path d="M14.168 10.328c.578 0 .842.21.842.71v.219c0 .584-.588.85-1.282 1.166l-.034.015c-.996.452-2.194.995-2.194 2.733v.83h5.265v-1.439h-3.368c.078-.547.649-.816 1.298-1.122l.072-.034c.934-.44 1.998-.943 1.998-2.319C16.765 9.56 15.842 9 14.168 9c-1.572 0-2.567.56-2.638 2.197h1.745c.061-.66.294-.869.893-.869m-6.316 1.818a.5.5 0 0 0-.706.706L8.294 14l-1.148 1.148a.5.5 0 1 0 .706.706L9 14.706l1.148 1.148a.5.5 0 1 0 .706-.706L9.706 14l1.148-1.148a.5.5 0 0 0-.706-.706L9 13.294z"/><path fill-rule="evenodd" d="M12 2c1.082 0 2.098.479 2.862 1.243l2.39 2.39c1.322 1.322 1.983 1.983 2.364 2.9s.381 1.74.384 3.385V12c0 1.55-.068 2.903-.168 4.056-.175 2.024-.263 3.036-1.557 4.325s-2.264 1.37-4.205 1.532a25 25 0 0 1-4.14 0c-1.94-.161-2.911-.242-4.205-1.532-1.294-1.289-1.381-2.301-1.557-4.325A47 47 0 0 1 4 12c0-1.549.068-2.901.168-4.054.175-2.025.263-3.038 1.557-4.327s2.265-1.37 4.207-1.532A25 25 0 0 1 12 2m0 2c-.666 0-1.304.03-1.902.08-1.038.086-1.524.137-1.918.26-.288.09-.584.238-1.043.696-.449.447-.602.747-.699 1.06-.13.42-.184.944-.278 2.023A45 45 0 0 0 6 12c0 1.492.065 2.787.16 3.883.094 1.078.149 1.601.278 2.022.097.312.25.612.699 1.06.46.458.755.606 1.043.696.394.123.879.173 1.916.26a23 23 0 0 0 3.808 0c1.037-.087 1.523-.137 1.916-.26.288-.09.584-.238 1.043-.696.45-.448.602-.748.699-1.06.13-.42.184-.944.278-2.022.095-1.096.16-2.391.16-3.883v-.079c-.003-1.748-.032-2.141-.232-2.621-.195-.47-.51-.832-1.93-2.253l-2.39-2.39C13.005 4.216 12.481 4 12 4"/></svg>