<svg xmlns="http://www.w3.org/2000/svg" viewBox="0 0 16 16"><path d="M9.866 6.943c.404 0 .588.15.588.504v.156c0 .415-.41.618-.896.842C8.857 8.768 8 9.163 8 10.411V11h3.681v-1H9.326c.057-.403.484-.629.958-.857.653-.313 1.397-.683 1.397-1.66C11.681 6.396 11.036 6 9.866 6c-1.1 0-1.795.337-1.845 1.5h1.22c.043-.468.206-.557.625-.557m-5.012.703a.5.5 0 1 0-.708.708L5 9.206l-.853.852a.5.5 0 1 0 .708.707l.852-.852.852.852a.5.5 0 1 0 .707-.707l-.852-.852.852-.852a.5.5 0 0 0-.707-.707l-.852.852z"/><path fill-rule="evenodd" d="M9.965 14.903A20 20 0 0 1 8 15c-.703 0-1.364-.038-1.965-.097-1.336-.131-2.004-.197-2.848-1.039s-.91-1.51-1.044-2.848A30 30 0 0 1 2 8c0-1.165.059-2.17.143-3.015.133-1.339.2-2.008 1.044-2.85s1.512-.907 2.85-1.038C6.636 1.038 7.297 1 8 1c.754 0 1.464.33 1.997.862l2.365 2.365c.682.682 1.023 1.023 1.26 1.476.082.159.171.373.225.545C14 6.735 14 7.157 14 8c0 1.165-.059 2.171-.143 3.016-.134 1.338-.2 2.007-1.044 2.848-.844.842-1.512.908-2.848 1.039m-.146-1.493c.716-.07 1.045-.11 1.305-.19.18-.058.355-.144.63-.417.273-.273.36-.448.417-.629.082-.26.122-.59.194-1.307.079-.796.135-1.752.135-2.867 0-.9-.013-1.077-.084-1.303a2 2 0 0 0-.124-.3c-.107-.205-.253-.371-.991-1.11L8.937 2.923C8.65 2.637 8.31 2.5 8 2.5c-.648 0-1.26.035-1.818.09-.717.07-1.046.109-1.306.19-.18.057-.356.144-.63.417-.273.273-.36.448-.417.629-.082.26-.122.59-.194 1.308A29 29 0 0 0 3.5 8c0 1.115.056 2.071.135 2.867.072.717.112 1.047.194 1.307.057.181.144.356.418.629.273.273.448.36.629.416.26.082.589.12 1.305.19a18.6 18.6 0 0 0 3.638.001"/></svg>