<svg xmlns="http://www.w3.org/2000/svg" viewBox="0 0 32 32"><path fill-rule="evenodd" d="M8.01 7.995A4.003 4.003 0 0 1 12.022 4h4.01a4.003 4.003 0 0 1 4.011 3.995v.02h6.705a1.25 1.25 0 0 1 1.253 1.248 1.25 1.25 0 0 1-1.253 1.249h-6.705v.093a4.003 4.003 0 0 1-4.01 3.996h-4.01a4.003 4.003 0 0 1-4.011-3.996v-.093H5.253a1.25 1.25 0 1 1-.002-2.497h2.76zm15.98 13.4a4.003 4.003 0 0 0-4.011-3.996h-4.01a4.003 4.003 0 0 0-4.011 3.996v.019H5.253A1.25 1.25 0 0 0 4 22.663a1.25 1.25 0 0 0 1.253 1.248h6.705v.094A4.003 4.003 0 0 0 15.968 28h4.01a4.003 4.003 0 0 0 4.011-3.995v-.094h2.758A1.25 1.25 0 0 0 28 22.663a1.25 1.25 0 0 0-1.253-1.25h-2.758z"/></svg>