<svg xmlns="http://www.w3.org/2000/svg" viewBox="0 0 16 16"><path fill-rule="evenodd" d="M2.75 12.75H6v.086C6 14.031 6.97 15 8.167 15h1.666A2.165 2.165 0 0 0 12 12.836v-.086h1.25a.75.75 0 0 0 0-1.5H12v-.086C12 9.969 11.03 9 9.833 9H8.167A2.165 2.165 0 0 0 6 11.164v.086H2.75a.75.75 0 0 0 0 1.5m7.083-2.252c.369 0 .667.298.667.666v1.672a.666.666 0 0 1-.667.666H8.167a.666.666 0 0 1-.667-.666v-1.672c0-.368.298-.666.667-.666zM13.25 4.75H10v.082A2.165 2.165 0 0 1 7.838 7H6.162A2.165 2.165 0 0 1 4 4.832V4.75H2.75a.75.75 0 0 1 0-1.5H4v-.082C4 1.971 4.968 1 6.162 1h1.676C9.032 1 10 1.97 10 3.168v.082h3.25a.75.75 0 0 1 0 1.5M7.838 2.501c.367 0 .665.299.665.667v1.664a.666.666 0 0 1-.665.667H6.162a.666.666 0 0 1-.665-.667V3.168c0-.368.298-.667.665-.667z"/></svg>