<svg xmlns="http://www.w3.org/2000/svg" viewBox="0 0 32 32"><path fill-rule="evenodd" d="M8.01 7.995A4.003 4.003 0 0 1 12.022 4h4.01a4.003 4.003 0 0 1 4.011 3.995v.02h6.705a1.25 1.25 0 0 1 1.253 1.248 1.25 1.25 0 0 1-1.253 1.249h-6.705v.093a4.003 4.003 0 0 1-4.01 3.996h-4.01a4.003 4.003 0 0 1-4.011-3.996v-.093H5.253a1.25 1.25 0 1 1-.002-2.497h2.76zm2.65.02v2.517c0 .8.65 1.449 1.453 1.449h3.803c.802 0 1.453-.649 1.453-1.448V8.015a1.45 1.45 0 0 0-1.453-1.395h-3.803c-.785 0-1.425.62-1.453 1.395m13.33 13.38a4.003 4.003 0 0 0-4.011-3.996h-4.01a4.003 4.003 0 0 0-4.011 3.996v.019H5.253A1.25 1.25 0 0 0 4 22.663a1.25 1.25 0 0 0 1.253 1.248h6.705v.094A4.003 4.003 0 0 0 15.968 28h4.01a4.003 4.003 0 0 0 4.011-3.995v-.094h2.758A1.25 1.25 0 0 0 28 22.663a1.25 1.25 0 0 0-1.253-1.25h-2.758zm-2.65.019a1.45 1.45 0 0 0-1.453-1.395h-3.803a1.45 1.45 0 0 0-1.453 1.449v2.463c0 .8.65 1.45 1.453 1.45h3.803c.803 0 1.454-.65 1.454-1.45v-2.463z"/></svg>