<svg xmlns="http://www.w3.org/2000/svg" viewBox="0 0 32 32"><path fill-rule="evenodd" d="M3 2.999C.664 5.333.491 7.659.145 12.309a50 50 0 0 0-.144 3.693c0 1.244.054 2.487.144 3.693.346 4.65.52 6.976 2.853 9.31s4.66 2.508 9.31 2.854c1.206.09 2.45.144 3.694.144s2.487-.055 3.692-.144c4.651-.347 6.977-.52 9.31-2.854 2.335-2.334 2.508-4.66 2.854-9.31.09-1.206.144-2.45.144-3.693s-.054-2.487-.144-3.693c-.346-4.65-.52-6.976-2.853-9.31S24.346.492 19.696.146A50 50 0 0 0 16.002 0c-1.244 0-2.488.055-3.693.145C7.659.492 5.333.665 3 2.999m23.547 7.848a2.72 2.72 0 0 0-1.94-1.888C22.888 8.5 16 8.5 16 8.5s-6.886 0-8.608.441a2.78 2.78 0 0 0-1.939 1.906C5 12.524 5 16 5 16s0 3.494.453 5.153a2.72 2.72 0 0 0 1.94 1.888C9.131 23.5 16 23.5 16 23.5s6.886 0 8.608-.441a2.72 2.72 0 0 0 1.939-1.888C27 19.494 27 16.018 27 16.018s.018-3.495-.453-5.17m-12.74 8.365L19.534 16l-5.727-3.212z"/></svg>