<svg xmlns="http://www.w3.org/2000/svg" viewBox="0 0 24 24"><path fill-rule="evenodd" d="M2.246 2.249C.496 3.999.366 5.744.106 9.232a38 38 0 0 0-.108 2.77c0 .932.04 1.865.108 2.77.26 3.487.39 5.231 2.14 6.982 1.75 1.75 3.495 1.88 6.983 2.14.904.067 1.837.108 2.77.108.932 0 1.865-.04 2.77-.108 3.487-.26 5.231-.39 6.982-2.14 1.75-1.75 1.88-3.495 2.14-6.983.067-.904.108-1.837.108-2.77 0-.932-.04-1.865-.108-2.77C23.63 5.745 23.5 4 21.75 2.25S18.255.37 14.767.11a38 38 0 0 0-2.77-.108c-.932 0-1.865.04-2.77.108-3.485.26-5.229.39-6.98 2.14M19.67 8.221a1.99 1.99 0 0 0-1.41-1.385C17.008 6.5 12 6.5 12 6.5s-5.008 0-6.26.324A2.03 2.03 0 0 0 4.33 8.22C4 9.451 4 12 4 12s0 2.562.33 3.779a1.99 1.99 0 0 0 1.41 1.384C7.005 17.5 12 17.5 12 17.5s5.008 0 6.26-.323a1.99 1.99 0 0 0 1.41-1.385c.33-1.23.33-3.78.33-3.78s.013-2.561-.33-3.79m-9.265 6.134L14.57 12l-4.165-2.355z"/></svg>