<svg xmlns="http://www.w3.org/2000/svg" viewBox="0 0 24 24"><path fill-rule="evenodd" d="m13.925 8.597.052-.03 1.143-.664h.002c2.606-1.513 3.909-2.269 4.893-1.73.985.54.985 2.01.985 4.95v1.755c0 2.94 0 4.41-.985 4.948-.984.54-2.287-.216-4.893-1.728l-.002-.001-1.142-.663-.053-.03C11.317 13.89 10 13.125 10 12s1.317-1.89 3.925-3.403M6.288 6h.048c.31 0 .634 0 .906.036.316.042.695.147 1.021.454.325.306.452.675.513.989.053.268.071.589.09.895l.002.048C8.93 9.469 9 10.892 9 12s-.07 2.531-.132 3.578l-.003.048c-.018.306-.036.627-.089.895-.06.314-.188.683-.513.989-.326.307-.705.412-1.021.454a7 7 0 0 1-.906.036H4.664c-.31 0-.634 0-.906-.036-.316-.042-.695-.147-1.021-.454-.325-.306-.452-.675-.513-.989-.053-.268-.071-.589-.09-.895l-.002-.048C2.07 14.531 2 13.108 2 12s.07-2.531.132-3.578l.003-.048c.018-.306.036-.627.089-.895.06-.314.188-.683.513-.989.326-.307.705-.412 1.021-.454C4.03 6 4.354 6 4.664 6z"/></svg>