<svg xmlns="http://www.w3.org/2000/svg" viewBox="0 0 24 24"><path fill-rule="evenodd" d="M14.929 13.674c-1.352-.785-2.175-1.268-2.688-1.674.513-.406 1.336-.89 2.688-1.674l.052-.03 1.143-.663h.002c1.352-.786 2.179-1.26 2.785-1.504.084.614.089 1.517.089 2.993v1.756c0 1.476-.005 2.38-.089 2.993-.606-.245-1.433-.718-2.785-1.503h-.002l-1.143-.664zm-3.004-1.967.007.01zm.007.576-.007.01zm8.083-6.11c-.984-.538-2.287.217-4.893 1.73h-.002l-1.142.663-.053.03C11.317 10.11 10 10.875 10 12s1.317 1.89 3.925 3.404l.052.03 1.143.663h.002c2.606 1.513 3.909 2.269 4.893 1.73.985-.54.985-2.01.985-4.95v-1.755c0-2.94 0-4.41-.985-4.948M19.325 8h-.012zm-.502-.29-.004-.01zm-.004 8.59.004-.009zm.494-.3h.013zM6.288 18h.048c.31 0 .634 0 .906-.036.316-.042.695-.146 1.021-.454.325-.306.452-.675.513-.989.053-.268.071-.589.09-.895l.002-.048C8.93 14.531 9 13.108 9 12s-.07-2.531-.132-3.578l-.003-.048c-.018-.306-.036-.627-.089-.895-.06-.314-.188-.683-.513-.989-.326-.307-.705-.412-1.021-.454C6.97 6 6.646 6 6.336 6H4.664c-.31 0-.634 0-.906.036-.316.042-.695.147-1.021.454-.325.306-.452.675-.513.989-.053.268-.071.589-.09.895l-.002.048C2.07 9.469 2 10.892 2 12s.07 2.531.132 3.578l.003.048c.018.306.036.627.089.895.06.314.188.683.513.989.326.307.705.412 1.021.454.272.036.596.036.906.036zm.555-2.104-.01.097-.104.004C6.61 16 6.468 16 6.288 16H4.712c-.18 0-.32 0-.441-.003l-.105-.004-.009-.097c-.01-.12-.018-.258-.029-.436C4.067 14.418 4 13.044 4 12s.067-2.418.128-3.46a18 18 0 0 1 .038-.533l.105-.004C4.39 8 4.532 8 4.712 8h1.576a19 19 0 0 1 .546.007l.009.097c.01.12.018.258.029.436C6.933 9.582 7 10.956 7 12s-.067 2.419-.128 3.46c-.01.178-.02.317-.03.436"/></svg>