<svg xmlns="http://www.w3.org/2000/svg" viewBox="0 0 16 16"><path d="M6.667 1a.75.75 0 0 0-.553.244l-.915 1a.75.75 0 0 0 1.107 1.012l.692-.756h2.005l.692.756a.75.75 0 0 0 1.107-1.012l-.915-1A.75.75 0 0 0 9.334 1z"/><path fill-rule="evenodd" d="M9.412 4H2.001v8.141A1.25 1.25 0 0 0 3.239 13.5H2.75a.75.75 0 0 0 0 1.5h10.5a.75.75 0 0 0 0-1.5H6.763c.6-.005 1.1-.432 1.217-1h4.148c.319 0 .478 0 .611-.024a1.53 1.53 0 0 0 1.238-1.237c.024-.133.024-.293.024-.612 0-.917-.09-1.814-.217-2.627-.23-1.466-.343-2.2-.834-2.826a3.6 3.6 0 0 0-.918-.786C11.337 4 10.696 4 9.412 4m-2.67 9.5H3.26c.6-.005 1.1-.432 1.216-1h1.05c.117.568.617.995 1.218 1M9.448 11h2.681c.168 0 .261 0 .33-.002l.027-.001a.03.03 0 0 0 .012-.013l.001-.027a14 14 0 0 0-.048-1.487l-.224-.016c-.446-.033-.669-.05-.866-.192a1 1 0 0 1-.232-.25C11 8.804 11 8.62 11 8.25s0-.554.127-.762a1 1 0 0 1 .232-.25c.178-.129.378-.154.743-.183-.118-.602-.2-.785-.334-.957a2.2 2.2 0 0 0-.468-.4c-.29-.163-.507-.198-1.889-.198h-5.91V7h1.198q.105 0 .208.005c.414.018.62.028.843.252.223.223.231.43.247.844a4 4 0 0 1 0 .298c-.016.414-.024.62-.247.844-.222.224-.43.234-.843.252a5 5 0 0 1-.208.005H3.501V11h3.146a1.3 1.3 0 0 1 .211 0h.696l-.008-.123A23 23 0 0 1 7.501 9.5c0-.49.021-.982.045-1.377.026-.419.039-.628.265-.859.225-.23.349-.24.596-.26a1 1 0 0 1 .187 0c.247.02.37.03.597.26.225.23.238.44.264.86.024.394.046.885.046 1.376a23 23 0 0 1-.054 1.5"/></svg>