<svg xmlns="http://www.w3.org/2000/svg" viewBox="0 0 44 44"><path d="M17.44 4.44A1.5 1.5 0 0 1 18.5 4h7a1.5 1.5 0 0 1 1.06.44l2 2a1.5 1.5 0 1 1-2.12 2.12L24.879 7h-5.757L17.56 8.56a1.5 1.5 0 1 1-2.121-2.12z"/><path fill-rule="evenodd" d="M21.665 35a3.5 3.5 0 0 1-6.326 0h-2.674a3.5 3.5 0 0 1-6.632-1.968C6 32.59 6 32.047 6 31.37V11h19.503c3.496 0 5.244 0 7.135 1.055.825.46 1.927 1.403 2.508 2.147 1.333 1.706 1.644 3.7 2.266 7.69.344 2.204.588 4.635.588 7.12 0 1.697 0 2.545-.244 3.226a4.17 4.17 0 0 1-2.518 2.518c-.68.244-1.529.244-3.225.244zM9 31.37V25h4.17q.309 0 .613-.016c1.24-.06 1.86-.091 2.504-.744.643-.652.665-1.238.707-2.411a9 9 0 0 0 0-.657c-.042-1.174-.064-1.76-.707-2.412-.644-.653-1.264-.683-2.504-.744Q13.48 18 13.17 18H9v-4h16.503c3.692 0 4.59.07 5.674.675.475.265 1.27.945 1.605 1.374.388.497.643 1.027.89 2.015-.385.023-.8.05-1.215.08-1.33.094-1.995.142-2.565.593a2.8 2.8 0 0 0-.482.517c-.41.6-.41 1.15-.41 2.246s0 1.645.41 2.246c.114.166.324.392.482.517.57.451 1.235.499 2.565.593.868.061 1.735.116 2.331.136a40 40 0 0 1 .212 4.02c0 .884-.001 1.416-.025 1.815a2.5 2.5 0 0 1-.045.406 1.17 1.17 0 0 1-.697.697c-.022.005-.13.028-.406.045-.399.024-.93.025-1.814.025H25.73c.053-.31.076-.672.104-1.125C25.917 29.543 26 27.77 26 26a81 81 0 0 0-.166-4.875c-.07-1.114-.104-1.672-.648-2.28-.545-.608-.892-.669-1.587-.79A3.5 3.5 0 0 0 23 18q-.303.001-.599.055c-.695.121-1.042.182-1.587.79s-.579 1.166-.648 2.28A81 81 0 0 0 20 26c0 1.771.083 3.543.166 4.875.028.453.05.815.104 1.125H9.627l-.626-.001z"/><path d="M7.502 37a1.5 1.5 0 0 0 0 3h29a1.5 1.5 0 0 0 0-3z"/></svg>