<svg xmlns="http://www.w3.org/2000/svg" viewBox="0 0 32 32"><path d="M12.866 3.366A1.25 1.25 0 0 1 13.75 3h4.5c.331 0 .65.132.884.366l1.5 1.5a1.25 1.25 0 0 1-1.768 1.768L17.732 5.5h-3.464l-1.135 1.134a1.25 1.25 0 1 1-1.768-1.768z"/><path fill-rule="evenodd" d="M4 23.75q0-.156.017-.307C4 23.14 4 22.776 4 22.334V8h14.824c2.566 0 3.85 0 5.24.776.603.337 1.41 1.028 1.835 1.572.981 1.254 1.21 2.72 1.667 5.652.254 1.627.434 3.42.434 5.255 0 .638 0 .956-.047 1.222a3.06 3.06 0 0 1-2.476 2.476c-.266.047-.584.047-1.222.047H16.2a2.75 2.75 0 0 1-2.432 1.5H26.75a1.25 1.25 0 1 1 0 2.5H5.25a1.25 1.25 0 1 1 0-2.5h1.482A2.75 2.75 0 0 1 4 23.75m2.5-5.25h2.82q.165 0 .33-.007c.903-.036 1.354-.053 1.833-.54.48-.485.492-.916.515-1.777a6 6 0 0 0 0-.352c-.023-.861-.035-1.292-.515-1.778s-.93-.503-1.832-.54a8 8 0 0 0-.332-.006H6.5v-3h12.324c2.73 0 3.304.059 4.02.46.314.174.865.646 1.086.928.288.368.469.761.667 1.652-.347.02-.732.044-1.113.07-.921.063-1.382.095-1.79.4a2 2 0 0 0-.418.447C21 14.885 21 15.257 21 16s0 1.115.276 1.543c.094.146.28.344.418.448.408.304.869.336 1.79.399.697.047 1.406.09 1.879.105a29 29 0 0 1 .126 3.556.56.56 0 0 1-.438.438c-.014.001-.05.004-.122.006-.146.005-.34.005-.674.005h-5.874c.031-.21.046-.452.064-.746.052-.848.1-1.926.1-3.004s-.049-2.156-.1-3.004c-.05-.826-.076-1.24-.512-1.696-.437-.458-.68-.484-1.167-.537a2.3 2.3 0 0 0-.487 0c-.487.053-.731.08-1.168.537s-.461.87-.511 1.696a51 51 0 0 0-.1 3.004c0 1.078.048 2.156.1 3.004.018.294.032.536.063.746H6.5zm.268 8h6.964A2.75 2.75 0 0 1 11.3 25H9.2a2.75 2.75 0 0 1-2.432 1.5"/></svg>