<svg xmlns="http://www.w3.org/2000/svg" viewBox="0 0 44 44"><path d="M17.44 4.44A1.5 1.5 0 0 1 18.5 4h7a1.5 1.5 0 0 1 1.06.44l2 2a1.5 1.5 0 1 1-2.12 2.12L24.879 7h-5.757L17.56 8.56a1.5 1.5 0 1 1-2.121-2.12z"/><path fill-rule="evenodd" d="M6.033 33.032C6 32.59 6 32.047 6 31.37V11h19.503c3.496 0 5.244 0 7.135 1.055.825.46 1.927 1.403 2.508 2.147 1.333 1.706 1.644 3.7 2.266 7.69.344 2.204.588 4.635.588 7.12 0 1.697 0 2.545-.244 3.226a4.17 4.17 0 0 1-2.518 2.518c-.68.244-1.529.244-3.225.244H21.665a3.5 3.5 0 0 1-6.326 0h-2.674a3.5 3.5 0 0 1-3.156 2h26.993a1.5 1.5 0 0 1 0 3h-29a1.5 1.5 0 0 1 0-3h1.993a3.5 3.5 0 0 1-3.462-3.968m28.755-8.04a49 49 0 0 0-.34-2.639c-.32-2.054-.545-3.37-.775-4.29-.386.024-.8.052-1.216.081-1.33.094-1.995.142-2.565.593a2.8 2.8 0 0 0-.482.517c-.41.6-.41 1.15-.41 2.246s0 1.645.41 2.246c.114.166.324.392.482.517.57.451 1.235.499 2.565.593.868.061 1.735.116 2.331.136M25.73 32h-5.46c-.053-.31-.076-.672-.104-1.125A81 81 0 0 1 20 26c0-1.771.083-3.543.166-4.875.07-1.114.104-1.672.648-2.28.545-.608.892-.669 1.587-.79Q22.697 18 23 18q.303.001.599.055c.695.121 1.042.182 1.587.79s.579 1.166.648 2.28A81 81 0 0 1 26 26a81 81 0 0 1-.166 4.875c-.028.453-.05.815-.104 1.125M9 25h4.17q.309 0 .613-.016c1.24-.06 1.86-.091 2.504-.744.643-.652.665-1.238.707-2.411a9 9 0 0 0 0-.657c-.042-1.174-.064-1.76-.707-2.412-.644-.653-1.264-.683-2.504-.744Q13.48 18 13.17 18H9z"/></svg>