<svg xmlns="http://www.w3.org/2000/svg" viewBox="0 0 16 16"><path fill-rule="evenodd" d="M5.248 2.696a.75.75 0 0 0-1.496 0l-.536 7.436A2 2 0 1 0 4.5 12a2 2 0 1 0 1.285-1.868zM7.3 12a.8.8 0 1 1-1.6 0 .8.8 0 0 1 1.6 0m-4.8.8a.8.8 0 1 0 0-1.6.8.8 0 0 0 0 1.6"/><path d="M9.75 2a.75.75 0 1 0 0 1.5H11v1.125H9.75a.75.75 0 1 0 0 1.5H11V7.25H9.75a.75.75 0 1 0 0 1.5H11v1.125H9.75a.75.75 0 0 0 0 1.5H11V12.5H9.75a.75.75 0 0 0 0 1.5h2.916c.737 0 1.334-.597 1.334-1.333V3.333C14 2.597 13.403 2 12.666 2z"/></svg>