<svg xmlns="http://www.w3.org/2000/svg" viewBox="0 0 16 16"><path fill-rule="evenodd" d="M5.248 2.696a.75.75 0 0 0-1.496 0l-.536 7.436A2 2 0 1 0 4.5 12a2 2 0 1 0 1.285-1.868zM7.3 12a.8.8 0 1 1-1.6 0 .8.8 0 0 1 1.6 0m-4.8.8a.8.8 0 1 0 0-1.6.8.8 0 0 0 0 1.6m7.25-9.3h.75v1.125h-.75a.75.75 0 0 0 0 1.5h.75V7.25h-.75a.75.75 0 1 0 0 1.5h.75v1.125h-.75a.75.75 0 0 0 0 1.5h.75V12.5h-.75a.75.75 0 0 0 0 1.5h2.166c1.15 0 2.084-.933 2.084-2.083V4.083C14 2.933 13.067 2 11.916 2H9.75a.75.75 0 0 0 0 1.5m2.25.006c.283.04.5.284.5.577v7.834a.58.58 0 0 1-.5.577z"/></svg>