<svg xmlns="http://www.w3.org/2000/svg" viewBox="0 0 44 44"><path fill-rule="evenodd" d="M13 6a1.5 1.5 0 0 1 1.496 1.39l1.48 20.222A5.5 5.5 0 1 1 13 32.5a5.5 5.5 0 1 1-2.976-4.888l1.48-20.221A1.5 1.5 0 0 1 13 6m5.5 29a2.5 2.5 0 1 0 0-5 2.5 2.5 0 0 0 0 5M10 32.5a2.5 2.5 0 1 1-5 0 2.5 2.5 0 0 1 5 0M27.5 6a1.5 1.5 0 0 0 0 3H30v2.8h-2.5a1.5 1.5 0 0 0 0 3H30v2.8h-2.5a1.5 1.5 0 0 0 0 3H30v2.8h-2.5a1.5 1.5 0 0 0 0 3H30v2.8h-2.5a1.5 1.5 0 0 0 0 3H30V35h-2.5a1.5 1.5 0 0 0 0 3h5.334A5.167 5.167 0 0 0 38 32.833V11.167A5.167 5.167 0 0 0 32.834 6zM33 34.994V9.006c1.119.085 2 1.02 2 2.16v21.667c0 1.14-.881 2.076-2 2.16"/></svg>