<svg xmlns="http://www.w3.org/2000/svg" viewBox="0 0 16 16"><path fill-rule="evenodd" d="M8 2c.414 0 .75.337.75.752V7.98a.751.751 0 1 1-1.5 0V2.752C7.25 2.337 7.586 2 8 2"/><path fill-rule="evenodd" d="M4.818 3.723a.754.754 0 0 1 0 1.065 4.52 4.52 0 0 0-.975 4.92c.34.825.917 1.53 1.657 2.026a4.49 4.49 0 0 0 5 0 4.528 4.528 0 0 0 .682-6.946.754.754 0 0 1 0-1.065.75.75 0 0 1 1.06 0 6.04 6.04 0 0 1 1.3 6.56 6 6 0 0 1-2.209 2.703 5.99 5.99 0 0 1-6.666 0 6 6 0 0 1-2.21-2.702 6.04 6.04 0 0 1 1.3-6.56.75.75 0 0 1 1.061 0"/></svg>