<svg xmlns="http://www.w3.org/2000/svg" viewBox="0 0 16 16"><path fill-rule="evenodd" d="M12.56 11.413c.192-.104.367-.235.536-.405.662-.665.723-1.36.845-2.748.037-.41.059-.835.059-1.26s-.022-.85-.059-1.26c-.122-1.38-.186-2.106-.845-2.77-.662-.665-1.412-.735-2.912-.876q-.42-.04-.851-.068A8 8 0 0 0 8.759 2c-.251.003-.417.042-.548.164-.21.198-.21.515-.21 1.148v1.855c0 .628 0 .943-.196 1.138-.195.195-.51.195-1.138.195H3.49v-.097a3.1 3.1 0 0 0-.226-1.153q-.018-.048-.057-.14l-.261-.643a.75.75 0 1 0-1.39.566l.258.632.049.122c.089.231.126.466.127.712v.168q0 .276.013.547c.006.353.026.705.057 1.046.122 1.389.184 2.083.845 2.748.169.17.344.302.535.405a2.248 2.248 0 1 0 3.925.575 18 18 0 0 0 1.272 0 2.248 2.248 0 1 0 3.925-.575M3.543 8l.01.128c.066.74.104 1.116.178 1.395a.8.8 0 0 0 .238.428c.113.114.216.179.453.24.316.082.74.126 1.535.2.685.065 1.392.109 2.044.109s1.36-.044 2.044-.108c.794-.075 1.22-.12 1.535-.2.237-.062.34-.127.453-.241a.8.8 0 0 0 .238-.428c.074-.28.112-.655.177-1.395A13 13 0 0 0 12.5 7c0-.374-.02-.754-.053-1.128-.065-.74-.103-1.123-.178-1.41a.82.82 0 0 0-.237-.434c-.113-.114-.216-.179-.453-.24-.316-.082-.74-.126-1.535-.201q-.27-.025-.543-.046v1.68c0 .264 0 .593-.038.877-.047.348-.174.845-.597 1.268-.423.422-.92.55-1.267.596-.285.039-.613.038-.877.038zm1.706 5.496a.748.748 0 1 0 0-1.496.748.748 0 0 0 0 1.496m5.504 0a.748.748 0 1 0 0-1.496.748.748 0 0 0 0 1.496"/></svg>