<svg xmlns="http://www.w3.org/2000/svg" viewBox="0 0 24 24"><path fill-rule="evenodd" d="M6 10c0-.782-.152-1.598-.54-2.348l-.57-1.11a1 1 0 1 0-1.779.916l.572 1.11C3.897 8.983 4 9.472 4 10c0 .553.028 1.104.075 1.654.172 1.974.257 2.962 1.262 3.964q.213.212.434.375A3 3 0 1 0 10.83 17h2.34c-.003.01.003-.009 0 0a3 3 0 1 0 5.059-1.008q.22-.161.433-.374c1.005-1.002 1.09-1.99 1.262-3.964.046-.54.075-1.097.075-1.654s-.029-1.114-.075-1.653c-.172-1.975-.257-2.962-1.262-3.964-1.004-1.003-2.052-1.092-4.148-1.27l-.517-.04c-.908-.063-1.362-.094-1.68.202S12 4.048 12 5v3c0 .943 0 1.414-.293 1.707S10.943 10 10 10zm3 8a1 1 0 1 1-2 0 1 1 0 0 1 2 0m7 1a1 1 0 1 0 0-2 1 1 0 0 0 0 2"/></svg>