<svg xmlns="http://www.w3.org/2000/svg" viewBox="0 0 16 16"><path d="M1.164 1.282a.75.75 0 0 1 1.055-.118l2.5 2a.75.75 0 0 1 .254.385l1.932 6.956a2.25 2.25 0 0 1 1.694.963l3.454-.941a.75.75 0 0 1 .394 1.447l-3.453.941a2.25 2.25 0 1 1-3.534-2.008L3.592 4.184l-2.31-1.848a.75.75 0 0 1-.118-1.054"/><path d="M13.846 6.342c.177.96.266 1.44-.076 2.03-.34.592-.8.755-1.719 1.082a11 11 0 0 1-.816.256c-.278.074-.56.136-.834.186-.96.177-1.438.266-2.03-.076-.59-.341-.754-.8-1.08-1.72a11 11 0 0 1-.255-.816 11 11 0 0 1-.187-.835c-.177-.96-.265-1.44.076-2.03.341-.592.8-.755 1.72-1.082l.005-.002.77 2.6 1.439-.427-.763-2.575.199-.038c.958-.177 1.438-.266 2.029.076.59.341.754.8 1.08 1.72q.141.396.256.817c.074.278.136.56.186.834"/></svg>