<svg xmlns="http://www.w3.org/2000/svg" viewBox="0 0 44 44"><path fill-rule="evenodd" d="M4.121 4.122C.912 7.332.674 10.53.198 16.924A69 69 0 0 0 0 22.002c0 1.71.075 3.42.198 5.078.476 6.395.714 9.592 3.923 12.801 3.21 3.21 6.407 3.448 12.802 3.924 1.658.123 3.368.198 5.078.198s3.42-.075 5.078-.198c6.395-.476 9.592-.714 12.801-3.924 3.21-3.209 3.448-6.407 3.924-12.801a69 69 0 0 0 .198-5.078c0-1.71-.075-3.42-.198-5.078-.476-6.395-.714-9.592-3.924-12.802S33.473.675 27.08.2A69 69 0 0 0 22 .001c-1.71 0-3.42.075-5.078.198C10.527.675 7.33.913 4.12 4.122M8 14c.227 11.243 5.684 18 15.25 18h.543v-6.433c3.515.36 6.173 3.01 7.24 6.433H36c-1.364-5.117-4.95-7.946-7.188-9.027C31.05 21.64 34.199 18.396 34.95 14h-4.512c-.98 3.568-3.882 6.81-6.645 7.117V14H19.28v12.468c-2.798-.72-6.33-4.216-6.488-12.468z"/></svg>