<svg xmlns="http://www.w3.org/2000/svg" viewBox="0 0 24 24"><path fill-rule="evenodd" d="M2.248 2.249C.498 3.999.368 5.744.108 9.232A38 38 0 0 0 0 12.002c0 .932.04 1.865.108 2.77.26 3.487.39 5.231 2.14 6.982 1.75 1.75 3.495 1.88 6.983 2.14.904.067 1.837.108 2.77.108.932 0 1.865-.04 2.77-.108 3.487-.26 5.231-.39 6.982-2.14 1.75-1.75 1.88-3.495 2.14-6.983.067-.904.108-1.837.108-2.77 0-.932-.04-1.865-.108-2.77-.26-3.487-.39-5.231-2.14-6.982-1.75-1.75-3.495-1.88-6.983-2.14A38 38 0 0 0 12 .001c-.932 0-1.865.04-2.77.108C5.744.37 4 .5 2.249 2.25M4 8.001c.13 6.247 3.248 10 8.715 10h.31v-3.573c2.008.2 3.527 1.672 4.137 3.573H20c-.78-2.842-2.828-4.414-4.107-5.015 1.279-.74 3.078-2.542 3.507-4.985h-2.578c-.56 1.982-2.219 3.784-3.798 3.954V8.001h-2.578v6.927c-1.6-.4-3.618-2.342-3.708-6.927z"/></svg>