<svg xmlns="http://www.w3.org/2000/svg" viewBox="0 0 32 32"><path fill-rule="evenodd" d="M2.997 2.998C.663 5.332.49 7.658.144 12.308A50 50 0 0 0 0 16.003c0 1.243.054 2.487.144 3.693.346 4.65.52 6.976 2.853 9.31s4.66 2.507 9.31 2.853c1.206.09 2.45.144 3.694.144s2.487-.054 3.693-.144c4.65-.346 6.976-.519 9.31-2.853s2.507-4.66 2.853-9.31c.09-1.206.144-2.45.144-3.693a50 50 0 0 0-.144-3.693c-.346-4.651-.519-6.977-2.853-9.31C26.67.663 24.344.49 19.694.144A50 50 0 0 0 16 .001a50 50 0 0 0-3.693.144c-4.651.346-6.977.52-9.31 2.853M5 10c.179 8.745 4.466 14 11.983 14h.425v-5.003c2.762.28 4.851 2.34 5.69 5.003H27c-1.072-3.98-3.889-6.18-5.648-7.021 1.759-1.037 4.232-3.56 4.823-6.979H22.63c-.77 2.775-3.05 5.297-5.221 5.536V10h-3.546v9.698c-2.198-.56-4.974-3.28-5.098-9.698z"/></svg>