<svg xmlns="http://www.w3.org/2000/svg" viewBox="0 0 16 16"><path fill-rule="evenodd" d="M3.123 3.123c-.874.875-.939 1.746-1.069 3.488-.033.454-.054.921-.054 1.39 0 .467.02.935.054 1.388.13 1.743.195 2.614 1.07 3.488.874.874 1.745.94 3.487 1.07.454.033.921.054 1.39.054.467 0 .935-.021 1.388-.055 1.743-.13 2.614-.195 3.488-1.069s.94-1.745 1.07-3.488C13.98 8.936 14 8.468 14 8s-.021-.935-.055-1.389c-.13-1.742-.195-2.613-1.069-3.488-.874-.874-1.745-.939-3.488-1.069A19 19 0 0 0 8 2c-.468 0-.935.02-1.389.054-1.742.13-2.613.195-3.488 1.07M5.25 4.5a.75.75 0 0 0 0 1.5h4.5a.75.75 0 0 0 0-1.5zM4.5 8a.75.75 0 0 1 .75-.75h5.5a.75.75 0 0 1 0 1.5h-5.5A.75.75 0 0 1 4.5 8m.75 2a.75.75 0 0 0 0 1.5h4a.75.75 0 0 0 0-1.5z"/></svg>