<svg xmlns="http://www.w3.org/2000/svg" viewBox="0 0 44 44"><path fill-rule="evenodd" d="M.194 16.925C.67 10.53.908 7.333 4.118 4.123S10.524.676 16.919.2a69 69 0 0 1 5.078-.198c1.71 0 3.42.075 5.078.198 6.395.476 9.592.714 12.802 3.923s3.447 6.407 3.923 12.802c.123 1.658.198 3.368.198 5.078s-.075 3.42-.198 5.077c-.476 6.395-.714 9.593-3.923 12.802-3.21 3.21-6.407 3.448-12.802 3.923a69 69 0 0 1-5.078.199c-1.71 0-3.42-.075-5.078-.199-6.395-.475-9.592-.713-12.801-3.923C.908 36.672.67 33.475.194 27.08a69 69 0 0 1-.198-5.077c0-1.71.075-3.42.198-5.078m29.083 14.594 3.722-17.553c.33-1.548-.556-2.153-1.57-1.773l-21.88 8.43c-1.492.584-1.47 1.421-.254 1.8l6.244 2.34 5.796-4.215a.852.852 0 0 1 1.146 1.26l-4.405 4.005-.4 5.679c.583 0 .836-.253 1.14-.556l2.735-2.633 5.672 4.18c1.04.583 1.773.275 2.054-.964"/></svg>