<svg xmlns="http://www.w3.org/2000/svg" viewBox="0 0 44 44"><path fill-rule="evenodd" d="M16.5 6c-2.715 0-5.246.67-7.146 1.832C7.479 8.978 6 10.762 6 13.002c0 1.841 1 3.375 2.398 4.5C7 18.624 6 20.158 6 22s1 3.376 2.4 4.5C7 27.624 6 29.158 6 31c0 2.239 1.479 4.023 3.354 5.169 1.9 1.161 4.43 1.83 7.146 1.83 1.456 0 2.86-.192 4.14-.55A10.46 10.46 0 0 0 27.5 40C33.299 40 38 35.299 38 29.5S33.299 19 27.5 19q-.72 0-1.413.094a7.2 7.2 0 0 0-1.485-1.593C26 16.377 27 14.843 27 13.001c0-2.239-1.479-4.023-3.354-5.17C21.746 6.67 19.216 6 16.5 6M9 13.002c0-.8.536-1.766 1.918-2.61C12.275 9.561 14.245 9 16.5 9s4.225.562 5.582 1.391c1.382.845 1.918 1.811 1.918 2.61 0 .8-.536 1.766-1.918 2.61-1.357.83-3.327 1.392-5.582 1.392s-4.225-.562-5.582-1.391C9.536 14.767 9 13.8 9 13.002m13.953 7.03a6 6 0 0 0-.871-.641 8 8 0 0 0-.454-.255c-1.532.56-3.288.867-5.128.867s-3.596-.308-5.128-.867a8 8 0 0 0-.454.255C9.536 20.236 9 21.201 9 22.001c0 .798.536 1.764 1.918 2.608C12.275 25.44 14.245 26 16.5 26q.57 0 1.114-.046a10.53 10.53 0 0 1 5.34-5.921m-5.94 8.96Q16.757 29 16.5 29c-1.84 0-3.594-.307-5.125-.866q-.238.123-.457.257C9.536 29.236 9 30.2 9 31s.536 1.764 1.918 2.61c1.357.828 3.327 1.39 5.582 1.39.684 0 1.342-.052 1.965-.147a10.45 10.45 0 0 1-1.453-5.86M20 29.5a7.5 7.5 0 1 1 15 0 7.5 7.5 0 0 1-15 0"/></svg>