<svg xmlns="http://www.w3.org/2000/svg" viewBox="0 0 32 32"><path d="M11.755 14.498a10.48 10.48 0 0 1 8.014-3.995c.15-.402.229-.821.229-1.253 0-2.9-3.582-5.25-8-5.25s-8 2.35-8 5.25c0 2.846 3.451 5.163 7.757 5.248m-1.419 2.389c-2.536-.352-4.63-1.493-5.656-3.013-.438.65-.682 1.369-.682 2.125 0 2.327 2.307 4.3 5.502 4.99.002-1.457.3-2.843.836-4.102m-.524 6.665c-2.299-.428-4.177-1.513-5.132-2.927-.438.65-.682 1.369-.682 2.125 0 2.9 3.582 5.25 8 5.25l.175-.001a10.5 10.5 0 0 1-2.36-4.447M19.998 13a8 8 0 1 0 0 16 8 8 0 0 0 0-16"/></svg>