<svg xmlns="http://www.w3.org/2000/svg" viewBox="0 0 17 17"><path fill-rule="evenodd" d="M6.374 2.125c-1.076 0-2.089.267-2.858.74-.757.466-1.39 1.215-1.39 2.182 0 .696.328 1.28.795 1.726-.467.446-.796 1.03-.796 1.726 0 .69.323 1.27.784 1.714-.459.434-.784 1.003-.784 1.686 0 .961.645 1.696 1.398 2.148.768.46 1.778.72 2.851.72.59 0 1.16-.078 1.683-.225A4.25 4.25 0 1 0 10 6.952a3 3 0 0 0-.173-.18c.467-.445.796-1.029.796-1.725 0-.967-.634-1.716-1.39-2.182-.77-.473-1.782-.74-2.859-.74M3.72 5.047c0-.207.14-.521.632-.825.48-.295 1.193-.504 2.023-.504s1.544.209 2.023.504c.493.304.632.618.632.825s-.139.52-.632.824c-.48.295-1.193.504-2.023.504s-1.543-.209-2.023-.504c-.493-.304-.632-.617-.632-.824m4.405 2.671c-.54.163-1.135.25-1.75.25a6 6 0 0 1-1.973-.323l-.05.03c-.494.304-.633.617-.633.824s.14.52.632.824c.48.295 1.194.504 2.024.504q.108 0 .213-.005a4.26 4.26 0 0 1 1.537-2.104m-1.742 3.703h-.008a6 6 0 0 1-1.989-.33l-.042.026c-.497.298-.625.6-.625.781 0 .183.128.484.625.782.481.289 1.197.493 2.031.493q.256 0 .496-.024a4.2 4.2 0 0 1-.488-1.728m1.586-.266a2.656 2.656 0 1 1 5.312 0 2.656 2.656 0 0 1-5.312 0"/></svg>