<svg xmlns="http://www.w3.org/2000/svg" viewBox="0 0 17 17"><path d="M5.75 7.936a5.84 5.84 0 0 1 4.856-2.624q.018-.132.018-.266c0-1.613-1.903-2.921-4.25-2.921s-4.25 1.308-4.25 2.921c0 1.468 1.575 2.683 3.625 2.89m-.702 1.48C3.776 9.129 2.77 8.44 2.344 7.569c-.142.292-.22.605-.22.93 0 1.227 1.101 2.277 2.66 2.71v-.054c0-.606.092-1.19.263-1.74m-.008 3.452c-1.267-.288-2.27-.975-2.695-1.845-.142.292-.22.605-.22.93 0 1.553 1.765 2.824 3.991 2.916a5.8 5.8 0 0 1-1.076-2.001m5.585-5.962a4.25 4.25 0 1 0 0 8.5 4.25 4.25 0 0 0 0-8.5"/></svg>