<svg xmlns="http://www.w3.org/2000/svg" viewBox="0 0 16 16"><path fill-rule="evenodd" d="M8 3.5c-.424 0-.855.019-1.277.05-1.843.138-2.12.215-2.539.634s-.496.695-.634 2.539c-.03.422-.05.852-.05 1.277s.019.855.05 1.277c.138 1.844.215 2.12.634 2.539s.696.496 2.539.634c.422.031.853.05 1.277.05.425 0 .855-.019 1.278-.05 1.843-.138 2.12-.215 2.538-.634.084-.083.153-.161.213-.246.207-.297.487-.571.849-.571.476 0 .854.435.677.876a2.9 2.9 0 0 1-.678 1.002c-.874.874-1.745.939-3.488 1.069C8.936 13.98 8.468 14 8 14s-.935-.02-1.389-.054c-1.742-.13-2.613-.195-3.488-1.07-.874-.873-.939-1.745-1.069-3.487A19 19 0 0 1 2 8c0-.468.02-.936.054-1.389.13-1.742.195-2.613 1.07-3.488.874-.874 1.745-.939 3.487-1.069.454-.033.921-.054 1.39-.054.467 0 .935.02 1.388.054 1.743.13 2.614.195 3.488 1.07.32.319.53.637.676.998.179.442-.2.877-.676.877-.362 0-.642-.274-.85-.57a2 2 0 0 0-.21-.245c-.42-.42-.696-.496-2.54-.634C8.856 3.52 8.426 3.5 8 3.5m5 2.499a.75.75 0 0 1 .75.75v.45h.5a.75.75 0 1 1 0 1.5h-.5v.55a.75.75 0 0 1-1.5 0v-.55h-.5a.75.75 0 1 1 0-1.5h.5v-.45a.75.75 0 0 1 .75-.75m-7.646-.04-.852.672v.978l.852-.696v3.186h1.002v-4.14zm2.094 3.93q.444.288 1.272.288.822 0 1.272-.288t.45-.948q0-.42-.222-.684-.216-.264-.642-.366.384-.102.552-.342a.95.95 0 0 0 .174-.57.95.95 0 0 0-.444-.834 1.4 1.4 0 0 0-.498-.198 3 3 0 0 0-.642-.066q-.354 0-.642.066-.288.06-.498.198a.9.9 0 0 0-.324.342 1 1 0 0 0-.114.492q0 .33.168.57t.552.342q-.858.198-.858 1.05 0 .66.444.948m.75-1.464q.18-.12.522-.12.336 0 .522.12t.186.378v.126q0 .258-.204.372a1 1 0 0 1-.504.114q-.318 0-.51-.114-.192-.12-.192-.372v-.126q0-.258.18-.378m.936-.918q-.15.102-.414.102-.27 0-.42-.102-.144-.102-.144-.336v-.096q0-.228.144-.33.15-.102.42-.102t.42.102.15.33v.096q0 .228-.156.336"/></svg>