<svg xmlns="http://www.w3.org/2000/svg" viewBox="0 0 17 17"><path d="M5.228 2.747a.797.797 0 0 0-.356-1.07l-1.063-.53a.797.797 0 0 0-.712 1.425l1.062.53a.797.797 0 0 0 1.069-.355m5.267.773c.14.387-.204.73-.615.73H7.118c-.411 0-.756-.343-.615-.73a2.124 2.124 0 0 1 3.992 0m-5.033 8.166c.243-1.737.478-3.442.631-4.558.084-.612.126-.919.336-1.102s.52-.183 1.138-.183h1.865c.619 0 .928 0 1.138.183s.252.49.336 1.102c.153 1.115.388 2.821.631 4.558zM3.72 14.873h9.559c-.02-.45-.071-.73-.296-1.036-.28-.382-.602-.405-1.244-.451a46 46 0 0 0-3.24-.106c-1.395 0-2.48.05-3.24.106-.642.046-.963.069-1.244.451-.225.305-.275.586-.296 1.036M2.125 5.046c0-.44.356-.797.797-.797h1.062a.797.797 0 1 1 0 1.594H2.922a.797.797 0 0 1-.797-.797m11.951-.796a.797.797 0 1 1 0 1.593h-1.062a.797.797 0 0 1 0-1.594zm-1.95-2.572a.797.797 0 0 0 .713 1.425l1.062-.531a.797.797 0 1 0-.712-1.426zM5.228 7.346a.797.797 0 0 1-.356 1.069l-1.063.531a.797.797 0 0 1-.712-1.425l1.062-.532a.797.797 0 0 1 1.069.357m6.898 1.069a.797.797 0 0 1 .713-1.426l1.062.532a.797.797 0 1 1-.712 1.425z"/></svg>