<svg xmlns="http://www.w3.org/2000/svg" viewBox="0 0 24 24"><path d="M7.395 3.947a1 1 0 0 0-.448-1.341l-1-.5a1 1 0 1 0-.894 1.788l1 .5a1 1 0 0 0 1.342-.447m7.44 1.071c.18.522-.283.982-.835.982h-4c-.553 0-1.016-.46-.835-.982a3 3 0 0 1 5.67 0M7.755 17h8.49c-.382-2.71-.77-5.527-1.01-7.272-.112-.824-.168-1.235-.451-1.482S14.085 8 13.254 8h-2.508c-.832 0-1.248 0-1.53.246-.283.247-.34.658-.452 1.482-.24 1.745-.628 4.563-1.01 7.272M19 21H5c.045-.507.166-.864.519-1.232.53-.554 1.144-.589 2.372-.66A73 73 0 0 1 11.999 19a73 73 0 0 1 4.11.109c1.228.07 1.842.105 2.372.659.353.368.474.725.519 1.232M3.5 7a1 1 0 0 1 1-1H6a1 1 0 0 1 0 2H4.5a1 1 0 0 1-1-1m16-1a1 1 0 1 1 0 2H18a1 1 0 1 1 0-2zM7.395 10.053a1 1 0 0 1-.448 1.341l-1 .5a1 1 0 1 1-.894-1.788l1-.5a1 1 0 0 1 1.342.447m9.658 1.341a1 1 0 1 1 .894-1.788l1 .5a1 1 0 1 1-.894 1.788zm0-8.788a1 1 0 1 0 .894 1.788l1-.5a1 1 0 1 0-.894-1.788z"/></svg>