<svg xmlns="http://www.w3.org/2000/svg" viewBox="0 0 44 44"><path d="M29.059 17.06a1.5 1.5 0 0 0-2.122-2.12l-6 6a1.5 1.5 0 0 0 2.122 2.12z"/><path fill-rule="evenodd" d="M29.556 35c1.152 0 2.294-.34 3.15-1.111A15.96 15.96 0 0 0 37.998 22c0-8.837-7.163-16-16-16s-16 7.163-16 16a15.96 15.96 0 0 0 5.292 11.889c.856.77 1.998 1.111 3.15 1.111zm5.442-13a12.96 12.96 0 0 1-4.3 9.66c-.182.164-.548.34-1.142.34H14.44c-.593 0-.96-.176-1.142-.34a12.96 12.96 0 0 1-4.3-9.66c0-7.18 5.82-13 13-13s13 5.82 13 13"/></svg>