<svg xmlns="http://www.w3.org/2000/svg" viewBox="0 0 24 24"><path fill-rule="evenodd" d="M7.945 4.168A47 47 0 0 1 12 4c1.55 0 2.902.068 4.055.168 2.025.175 3.037.263 4.327 1.557s1.37 2.265 1.532 4.207a25 25 0 0 1 0 4.137c-.162 1.941-.243 2.912-1.532 4.206s-2.302 1.382-4.327 1.557c-1.153.1-2.505.168-4.055.168a47 47 0 0 1-4.055-.168c-2.024-.175-3.036-.263-4.326-1.557S2.25 16.01 2.087 14.07a25 25 0 0 1 0-4.14c.162-1.94.243-2.911 1.532-4.205s2.302-1.381 4.326-1.557m1.41 9.752q.414 0 .621-.198.216-.198.216-.657v-.28q0-.458-.216-.656-.216-.207-.63-.207-.324 0-.54.108a1.1 1.1 0 0 0-.369.279l-1.323-.288.28-3.231h3.905v1.296H8.554l-.108 1.26q.18-.18.486-.297a2.1 2.1 0 0 1 .774-.126q.999 0 1.512.513t.513 1.494q0 1.116-.62 1.656-.622.53-1.756.53-1.17 0-1.809-.467-.639-.468-.693-1.494h1.584q.054.396.261.585.207.18.657.18m4.817.414q0 .405-.208.594-.206.189-.603.189-.396 0-.612-.19-.207-.188-.207-.593t.207-.585q.216-.19.612-.19t.603.19q.207.18.207.585m-.078-4.536 1.278-1.008h1.503V15h-1.503v-4.78l-1.278 1.045z"/></svg>