<svg xmlns="http://www.w3.org/2000/svg" viewBox="0 0 16 16"><path d="M2.093 10.899A43 43 0 0 1 2 8c0-1.112.038-2.078.093-2.898.097-1.44.146-2.16 1.11-3.095.963-.935 1.534-.957 2.675-1a10 10 0 0 1 .74 0c1.141.043 1.712.065 2.676 1 .964.936 1.012 1.655 1.11 3.095.055.82.092 1.786.092 2.898s-.037 2.079-.093 2.899c-.097 1.439-.146 2.158-1.109 3.094s-1.534.957-2.675 1a10 10 0 0 1-.742 0c-1.14-.043-1.711-.065-2.675-1-.963-.936-1.012-1.655-1.109-3.094m9.722 1.559-.087.13c.099-.5.133-1.012.166-1.496L11.9 11c.057-.853.096-1.854.096-3s-.039-2.146-.096-2.999l-.006-.092c-.035-.514-.071-1.06-.185-1.589a12 12 0 0 1 .777.454c1.015.644 1.523.966 1.868 2.196s.046 1.835-.55 3.043c-.26.527-.57 1.113-.94 1.753-.37.641-.723 1.203-1.049 1.692"/></svg>