<svg xmlns="http://www.w3.org/2000/svg" viewBox="0 0 24 24"><path fill-rule="evenodd" d="m11.623 21.963-.274.014a16 16 0 0 1-1.698 0c-1.727-.09-2.59-.136-3.94-1.46-1.35-1.326-1.424-2.357-1.572-4.42A58 58 0 0 1 4 12c0-1.568.056-2.934.14-4.096.146-2.063.22-3.095 1.57-4.42 1.351-1.326 2.215-1.371 3.943-1.462a16 16 0 0 1 1.694 0c1.728.091 2.592.136 3.942 1.462.447.437.753.843.97 1.265l.44.232a18 18 0 0 1 1.312.767c1.507.968 2.26 1.452 2.773 3.3.512 1.85.069 2.758-.817 4.574a46 46 0 0 1-1.396 2.635 46 46 0 0 1-1.556 2.542c-1.11 1.684-1.665 2.526-3.503 3.002-.768.198-1.353.24-1.89.162m5.299-6.852c.488-.864.9-1.655 1.247-2.365.474-.971.686-1.43.781-1.846.07-.304.09-.651-.094-1.317-.195-.704-.383-.973-.55-1.152-.235-.253-.564-.479-1.376-1l-.109-.07.04.543c.084 1.161.14 2.528.14 4.096 0 1.145-.03 2.183-.078 3.111m-10.788.844A56 56 0 0 1 6 12c0-1.52.055-2.839.134-3.954.079-1.1.127-1.628.254-2.051.094-.31.249-.618.723-1.084.518-.508.808-.644 1.028-.713.311-.097.686-.13 1.619-.178a14 14 0 0 1 1.485 0c.932.049 1.307.08 1.618.178.22.07.51.205 1.027.713.475.466.63.773.724 1.084.127.423.175.95.254 2.051C14.946 9.161 15 10.48 15 12s-.055 2.84-.134 3.955c-.079 1.1-.127 1.627-.255 2.05-.093.31-.248.618-.722 1.084-.518.508-.808.644-1.027.712-.312.098-.685.13-1.618.18a14 14 0 0 1-1.488 0c-.933-.05-1.306-.082-1.618-.18-.219-.068-.509-.204-1.027-.712-.474-.466-.629-.773-.723-1.084-.127-.423-.175-.95-.254-2.05"/></svg>