<svg xmlns="http://www.w3.org/2000/svg" viewBox="0 0 24 24"><path d="M4.132 16.15A62 62 0 0 1 4 12c0-1.592.054-2.975.132-4.148.137-2.055.206-3.082 1.588-4.42 1.38-1.339 2.188-1.367 3.8-1.424a14 14 0 0 1 .96 0c1.612.057 2.419.085 3.8 1.424 1.382 1.338 1.45 2.365 1.588 4.42C15.947 9.023 16 10.407 16 12s-.054 2.977-.132 4.15c-.138 2.053-.206 3.08-1.587 4.418s-2.187 1.367-3.8 1.423a14 14 0 0 1-.962 0c-1.612-.056-2.418-.085-3.8-1.423-1.38-1.338-1.45-2.365-1.587-4.418m13.723-8.559c-.044-.658-.09-1.344-.212-2.013l.337.209c1.522.966 2.284 1.45 2.801 3.294.518 1.846.07 2.752-.825 4.565a49 49 0 0 1-2.195 3.94c.042-.395.068-.79.094-1.176l.008-.127A64 64 0 0 0 18 12c0-1.637-.055-3.065-.136-4.282z"/></svg>