<svg xmlns="http://www.w3.org/2000/svg" viewBox="0 0 16 16"><path d="M9.5 2.25a.75.75 0 0 1-.75.75h-1.5a.75.75 0 0 1 0-1.5h1.5a.75.75 0 0 1 .75.75m-8.5 10a.75.75 0 0 1 .75-.75h12.5a.75.75 0 0 1 0 1.5H1.75a.75.75 0 0 1-.75-.75"/><path fill-rule="evenodd" d="M13.949 8.668a22 22 0 0 0-.038-.451 4.545 4.545 0 0 0-4.129-4.13A20 20 0 0 0 8 4c-.605 0-1.21.034-1.784.087a4.545 4.545 0 0 0-4.129 4.13q-.02.223-.037.45c-.044.606-.065.908.132 1.12.198.213.516.213 1.151.213h9.333c.636 0 .953 0 1.151-.212.198-.213.176-.515.132-1.12m-10.37-.313A3.045 3.045 0 0 1 6.354 5.58C6.891 5.531 7.45 5.5 8 5.5s1.107.031 1.645.081a3.045 3.045 0 0 1 2.774 2.774l.013.145H3.567z"/></svg>