<svg xmlns="http://www.w3.org/2000/svg" viewBox="0 0 24 24"><path d="M14 4a1 1 0 0 1-1 1h-2a1 1 0 1 1 0-2h2a1 1 0 0 1 1 1M2 18a1 1 0 0 1 1-1h18a1 1 0 1 1 0 2H3a1 1 0 0 1-1-1"/><path fill-rule="evenodd" d="M9.325 6.131a6.82 6.82 0 0 0-6.194 6.194q-.031.335-.056.677c-.065.907-.098 1.36.199 1.68C3.571 15 4.047 15 5 15h14c.953 0 1.43 0 1.726-.319.297-.318.264-.772.199-1.68a33 33 0 0 0-.056-.676 6.82 6.82 0 0 0-6.194-6.194C13.815 6.051 12.907 6 12 6s-1.815.051-2.675.131m-4.202 6.378a4.82 4.82 0 0 1 4.386-4.386A27 27 0 0 1 12 8c.834 0 1.678.047 2.491.123a4.82 4.82 0 0 1 4.387 4.386l.041.491H5.081q.019-.248.042-.491"/></svg>