<svg xmlns="http://www.w3.org/2000/svg" viewBox="0 0 24 24"><path d="M6 6h4.999c.387 0 .78.014 1.17.037 1.24.076 1.483.105 2.076.425.492.284 1.008.8 1.293 1.293.231.429.31.674.365 1.246-.963.007-1.624.057-1.827.415A.6.6 0 0 0 14 9.71c-.002.388.314.915.833 1.78l.494.823C15.998 13.43 16.503 14 17 14c.496 0 1.002-.569 1.674-1.688l.493-.822c.52-.866.835-1.393.833-1.781a.6.6 0 0 0-.076-.293c-.21-.37-.74-.412-1.924-.417h-.089c-.067-.83-.18-1.393-.614-2.195-.358-.662-1.44-1.743-2.101-2.101-1.01-.546-1.642-.585-2.905-.662A21 21 0 0 0 10.999 4H6a1 1 0 0 0 0 2m-1.913 7H4c-1.185-.004-1.715-.047-1.924-.416A.6.6 0 0 1 2 12.29c-.002-.388.314-.915.833-1.78l.494-.823C3.998 8.57 4.504 8 5 8c.497 0 1.002.569 1.673 1.688l.494.822c.52.866.835 1.393.833 1.781a.6.6 0 0 1-.076.293c-.203.358-.865.408-1.83.415.055.573.135.819.366 1.247a3.8 3.8 0 0 0 1.293 1.293c.593.32.835.35 2.076.425q.587.037 1.17.038L17 16c.256 0 .512.098.707.293l3 3a1 1 0 1 1-1.414 1.414l-2.706-2.705H11q-.653-.001-1.292-.041c-1.263-.078-1.895-.116-2.905-.662-.662-.358-1.743-1.44-2.101-2.101-.434-.803-.547-1.366-.614-2.197"/></svg>