<svg xmlns="http://www.w3.org/2000/svg" viewBox="0 0 44 44"><path fill-rule="evenodd" d="M18.156 5.606A63 63 0 0 1 22 5.496c1.483 0 2.766.045 3.845.11C28.55 5.772 31 7.537 31 10.249s-2.449 4.476-5.155 4.64q-1.046.066-2.345.096v2.022c2.96.025 5.417.122 7.364.238 3.323.198 6.677 1.952 7.093 5.092 0 0 .04.432.043.664 0 0-.002.149-.005.222-.056 1.98-.624 6.056-2.326 9.162-1.389 2.535-2.787 4.816-5.976 5.195-1.944.23-4.512.42-7.692.42s-5.748-.19-7.693-.42c-3.188-.38-4.587-2.66-5.976-5.195-1.7-3.104-2.27-7.175-2.327-9.157A5 5 0 0 1 6 23c0-.219.043-.665.043-.665.417-3.14 3.772-4.893 7.094-5.09a144 144 0 0 1 7.363-.239v-2.022a60 60 0 0 1-2.344-.095C15.449 14.724 13 12.959 13 10.248s2.45-4.477 5.156-4.642M22 8.496a61 61 0 0 0-3.662.105C17.43 8.656 16 9.126 16 10.248s1.43 1.591 2.338 1.646c1.019.062 2.24.106 3.662.106s2.643-.044 3.662-.106C26.571 11.84 28 11.37 28 10.248s-1.43-1.592-2.338-1.647A60 60 0 0 0 22 8.495M22 20c-3.578 0-6.476.107-8.684.239-1.329.079-2.534.491-3.322 1.06C9.268 21.825 9 22.374 9 23c0 .628.268 1.177.994 1.701.788.57 1.993.982 3.322 1.061 2.208.132 5.106.239 8.684.239s6.477-.108 8.686-.239c1.328-.08 2.533-.492 3.32-1.06.726-.525.994-1.074.994-1.701s-.268-1.176-.993-1.7c-.788-.57-1.993-.982-3.321-1.061A147 147 0 0 0 22 20M10.963 30.943c-.493-.9-.875-1.924-1.166-2.946 1.035.435 2.19.69 3.34.759C15.405 28.89 18.362 29 22 29s6.596-.11 8.864-.244a10.3 10.3 0 0 0 3.34-.759c-.29 1.022-.673 2.047-1.166 2.946q-.148.27-.291.544c-.77 1.457-1.528 2.89-3.408 3.113a56 56 0 0 1-3.89.318c-.02-.346-.045-.68-.072-.994-.095-1.106-.142-1.659-.643-2.18-.67-.694-1.818-.744-2.738-.744s-2.068.05-2.737.745c-.502.52-.55 1.073-.644 2.179a35 35 0 0 0-.071.994 56 56 0 0 1-3.882-.319c-1.879-.223-2.64-1.66-3.41-3.117q-.143-.27-.29-.54"/></svg>