<svg xmlns="http://www.w3.org/2000/svg" viewBox="0 0 32 32"><path fill-rule="evenodd" d="M13.28 4.08A45 45 0 0 1 16 4c1.046 0 1.953.032 2.72.078 1.99.121 3.78 1.428 3.78 3.422s-1.79 3.3-3.78 3.422a42 42 0 0 1-1.47.062v1.02c2.164.021 3.965.093 5.398.178C25.31 12.342 28 13.833 28 16.5c.015 1.301-.365 4.742-1.703 7.228-.514 1.07-1.22 2.019-1.794 2.697a3.74 3.74 0 0 1-2.452 1.317C20.93 27.87 19.04 28 16 28s-4.929-.13-6.052-.258a3.74 3.74 0 0 1-2.45-1.317c-.576-.68-1.285-1.633-1.8-2.706C4.364 21.235 3.986 17.8 4 16.5c0-2.667 2.69-4.158 5.353-4.317 1.433-.085 3.233-.157 5.397-.177v-1.02a42 42 0 0 1-1.47-.063C11.29 10.802 9.5 9.495 9.5 7.5s1.79-3.3 3.78-3.422M16 6.5c-.995 0-1.851.03-2.569.074-.52.031-.933.217-1.17.418-.203.173-.261.328-.261.508s.058.335.261.508c.237.2.65.387 1.17.418.718.044 1.574.074 2.569.074s1.852-.03 2.57-.074c.52-.031.932-.217 1.168-.418.204-.173.262-.328.262-.508s-.058-.335-.262-.508c-.236-.2-.649-.387-1.169-.418A43 43 0 0 0 16 6.5m0 7.999c-2.678 0-4.847.08-6.498.179-.96.057-1.815.355-2.36.749-.494.356-.642.698-.642 1.072s.148.716.641 1.072c.546.394 1.401.692 2.36.75 1.652.098 3.82.178 6.499.178s4.848-.08 6.5-.179c.959-.057 1.814-.355 2.359-.749.492-.355.64-.698.64-1.072s-.147-.716-.64-1.072c-.546-.394-1.4-.692-2.36-.75A110 110 0 0 0 16 14.5m-6.647 6.317a7.8 7.8 0 0 1-2.304-.488 11.8 11.8 0 0 0 2.357 4.482c.222.262.506.411.824.448.688.078 1.746.162 3.298.207.015-.295.035-.58.058-.846.067-.803.101-1.204.467-1.583.479-.497 1.289-.537 1.947-.537s1.468.04 1.947.537c.366.379.4.78.467 1.583q.035.4.058.846c1.552-.045 2.61-.13 3.297-.207.32-.037.603-.186.825-.448a11.8 11.8 0 0 0 2.357-4.482 7.8 7.8 0 0 1-2.303.488c-1.7.101-3.92.183-6.648.183s-4.947-.082-6.647-.183"/></svg>