<svg xmlns="http://www.w3.org/2000/svg" viewBox="0 0 44 44"><path fill-rule="evenodd" d="M18.156 5.608A63 63 0 0 1 22 5.498c1.484 0 2.766.045 3.846.11 2.706.165 5.154 1.93 5.154 4.64 0 2.712-2.448 4.476-5.154 4.64q-1.047.066-2.346.096v2.022c2.928.025 5.356.121 7.275.236 1.552.092 3.046.573 4.11 1.342 1.033.746 1.615 1.714 1.615 2.916s-.582 2.17-1.615 2.916c-1.064.769-2.558 1.25-4.11 1.342C28.537 25.892 25.61 26 22 26c-3.607 0-6.535-.108-8.773-.242-1.552-.092-3.047-.573-4.111-1.342C8.083 23.67 7.5 22.702 7.5 21.5s.583-2.17 1.616-2.916c1.064-.769 2.56-1.25 4.111-1.343 1.92-.114 4.346-.21 7.273-.235v-2.022a60 60 0 0 1-2.344-.095c-2.707-.165-5.156-1.93-5.156-4.64 0-2.712 2.45-4.476 5.156-4.64M22 8.498a60 60 0 0 0-3.662.105c-.79.048-1.443.329-1.842.665-.358.301-.496.614-.496.98 0 .367.138.68.496.981.399.336 1.052.617 1.842.665 1.019.062 2.24.106 3.662.106s2.644-.044 3.663-.106c.79-.048 1.443-.329 1.842-.665.357-.301.495-.614.495-.98 0-.367-.138-.68-.495-.981-.4-.336-1.052-.617-1.842-.665A60 60 0 0 0 22 8.497"/><path d="M6 25.901c.317 2.004 1.219 4.532 2.332 6.564 1.386 2.53 2.69 4.804 5.977 5.194 1.171.14 2.57.264 4.191.341a30 30 0 0 1 .116-2.995c.094-1.106.142-1.66.643-2.18.67-.694 1.818-.744 2.738-.744s2.068.05 2.737.745c.501.52.549 1.073.643 2.179.077.898.134 1.96.116 2.996a60 60 0 0 0 4.2-.341c3.288-.39 4.59-2.665 5.976-5.195 1.114-2.032 2.014-4.56 2.331-6.564-1.696 1.792-4.688 2.712-7.046 2.852C28.657 28.89 25.669 29 22 29c-3.667 0-6.655-.11-8.951-.247-2.358-.14-5.353-1.06-7.049-2.852"/></svg>