<svg xmlns="http://www.w3.org/2000/svg" viewBox="0 0 28 28"><g fill-rule="evenodd" clip-rule="evenodd"><path d="M17.458 14.943c-.074.86-.111 1.29-.668 1.847s-.987.594-1.847.669a11 11 0 0 1-1.886 0c-.86-.075-1.29-.112-1.848-.669-.556-.556-.593-.986-.668-1.847a11 11 0 0 1 0-1.886c.075-.86.112-1.29.668-1.847.557-.557.987-.594 1.848-.669a11 11 0 0 1 1.886 0c.86.075 1.29.112 1.847.669s.594.987.668 1.847a11 11 0 0 1 0 1.886m-2.688.523a9 9 0 0 1-1.54 0c-.228-.02-.367-.032-.482-.047l-.095-.015-.057-.057-.015-.095A11 11 0 0 1 12.5 14q0-.404.034-.77c.02-.228.032-.367.047-.482q.008-.064.015-.095l.056-.057q.032-.006.096-.014A11 11 0 0 1 14 12.5q.404.001.77.034c.228.02.366.032.482.047l.095.015.056.057q.007.031.015.095A11 11 0 0 1 15.5 14q-.001.406-.034.77c-.02.228-.032.367-.048.482l-.014.095-.057.057q-.033.007-.095.015a11 11 0 0 1-.482.047"/><path d="M14.997 25c.405 0 .798 0 1.128-.042.377-.048.777-.163 1.137-.466.356-.3.538-.666.651-1.027.098-.313.164-.691.23-1.076l.01-.05.023-.135q.433-.221.838-.485l.133.049.047.017c.367.135.727.267 1.047.339.369.082.777.108 1.214-.05.443-.161.743-.45.973-.753.202-.264.398-.604.6-.955l1-1.73c.202-.35.398-.69.526-.997.146-.35.247-.755.165-1.218-.081-.458-.308-.8-.564-1.078-.221-.24-.516-.487-.816-.737l-.039-.032-.11-.091a9 9 0 0 0 0-.967l.106-.088.039-.032c.3-.25.594-.496.816-.737.256-.279.482-.62.564-1.078.082-.463-.019-.867-.165-1.217-.128-.308-.325-.648-.527-.998l-.998-1.73c-.203-.35-.4-.69-.601-.955-.23-.302-.53-.591-.973-.752-.437-.158-.846-.133-1.214-.05-.32.071-.68.204-1.047.338l-.048.018-.13.048a9 9 0 0 0-.836-.484l-.024-.138-.009-.05c-.066-.384-.132-.763-.23-1.075-.113-.361-.295-.728-.65-1.027-.36-.303-.761-.418-1.138-.466C15.795 3 15.402 3 14.997 3h-1.995c-.405 0-.798 0-1.128.043-.377.048-.777.163-1.137.466-.356.3-.538.666-.651 1.027-.098.312-.164.69-.23 1.075l-.01.05-.023.138a9 9 0 0 0-.836.484l-.132-.049-.048-.018c-.366-.134-.727-.267-1.046-.338-.37-.082-.778-.108-1.215.05-.442.16-.742.45-.972.752-.202.265-.399.605-.601.955l-.999 1.73c-.202.35-.399.69-.527.998-.146.35-.247.755-.164 1.218.08.458.307.799.563 1.077.222.241.517.487.817.737l.039.033.108.09a9 9 0 0 0 0 .964l-.107.09-.04.032c-.3.25-.594.496-.816.737-.255.278-.482.62-.563 1.077-.083.464.018.868.164 1.218.129.308.325.648.527.998l.999 1.73c.202.35.399.69.6.955.23.302.53.591.973.752.437.158.846.132 1.215.05.32-.071.68-.204 1.046-.338l.048-.018.128-.047q.405.264.84.485l.023.136.009.05c.066.385.132.763.23 1.076.113.36.295.727.65 1.027.36.303.761.418 1.138.466.33.043.723.043 1.128.043zM7.325 7.83a1 1 0 0 0-.094-.016 1 1 0 0 0-.068.08c-.114.15-.246.374-.483.786l-.948 1.641c-.238.412-.367.639-.439.812a1 1 0 0 0-.035.099q.015.022.06.073c.121.131.31.292.665.587l.256.213c.417.343.615.86.578 1.363a7 7 0 0 0 0 1.065 1.61 1.61 0 0 1-.578 1.363l-.255.211c-.354.296-.543.456-.664.588a1 1 0 0 0-.061.073q.006.029.035.098c.073.174.201.4.439.812l.948 1.642c.237.41.37.636.483.785q.047.06.068.08a1 1 0 0 0 .094-.016c.174-.039.408-.122.84-.281l.31-.115a1.61 1.61 0 0 1 1.471.183q.44.3.923.534c.454.22.803.65.892 1.183l.056.325c.078.454.123.698.176.869a1 1 0 0 0 .033.089q.028.008.103.019c.186.024.447.026.922.026h1.895c.475 0 .736-.002.922-.026a1 1 0 0 0 .103-.019 1 1 0 0 0 .033-.09c.053-.17.098-.414.177-.868l.055-.325c.09-.533.438-.963.892-1.182q.483-.234.923-.534a1.61 1.61 0 0 1 1.472-.183q.16.061.312.116c.433.16.667.243.84.282q.068.014.095.016a1 1 0 0 0 .067-.08c.114-.15.246-.375.484-.786l.948-1.642c.237-.41.366-.638.438-.811q.029-.071.036-.099a1 1 0 0 0-.061-.073c-.12-.131-.31-.292-.664-.587l-.257-.214a1.61 1.61 0 0 1-.579-1.363 7 7 0 0 0 0-1.067 1.61 1.61 0 0 1 .578-1.363l.253-.21c.354-.296.544-.457.665-.588a1 1 0 0 0 .06-.073 1 1 0 0 0-.035-.099c-.072-.173-.201-.4-.439-.811l-.947-1.642c-.238-.411-.37-.636-.484-.785a1 1 0 0 0-.068-.08 1 1 0 0 0-.093.016c-.175.039-.408.122-.841.281l-.31.115a1.61 1.61 0 0 1-1.471-.182q-.44-.3-.922-.533a1.61 1.61 0 0 1-.892-1.183l-.055-.326c-.08-.454-.124-.699-.177-.87a1 1 0 0 0-.033-.088 1 1 0 0 0-.103-.019c-.186-.024-.447-.026-.922-.026h-1.894c-.476 0-.737.002-.923.026a1 1 0 0 0-.103.019 1 1 0 0 0-.033.089c-.053.17-.098.415-.176.869l-.056.327c-.09.534-.438.963-.892 1.183a7 7 0 0 0-.92.532 1.61 1.61 0 0 1-1.472.182l-.312-.116c-.433-.159-.667-.242-.841-.281"/></g></svg>