<svg xmlns="http://www.w3.org/2000/svg" viewBox="0 0 16 16"><path d="M9.348 9.347c.371-.371.381-.626.401-1.135a5 5 0 0 0 0-.424c-.02-.509-.03-.763-.401-1.135-.372-.371-.627-.381-1.136-.402a5 5 0 0 0-.425 0c-.509.02-.764.03-1.135.402-.372.372-.382.626-.402 1.135a5 5 0 0 0 0 .424c.02.51.03.764.402 1.135.371.372.626.382 1.135.402a5 5 0 0 0 .425 0c.51-.02.764-.03 1.136-.402"/><path fill-rule="evenodd" d="M8.472 14h-.945c-.226 0-.461 0-.662-.026a1.4 1.4 0 0 1-.742-.307 1.4 1.4 0 0 1-.428-.669 4 4 0 0 1-.107-.468 5 5 0 0 1-.304-.176c-.194.07-.395.143-.578.183a1.4 1.4 0 0 1-.794-.035 1.4 1.4 0 0 1-.64-.487 5 5 0 0 1-.356-.56l-.476-.815c-.114-.196-.233-.4-.312-.587a1.4 1.4 0 0 1-.107-.8c.055-.307.208-.532.37-.706.135-.145.311-.29.478-.426a5 5 0 0 1 0-.241 5 5 0 0 1-.479-.428 1.4 1.4 0 0 1-.37-.706 1.4 1.4 0 0 1 .107-.8c.079-.187.198-.39.312-.586l.476-.815c.114-.197.233-.4.357-.56a1.4 1.4 0 0 1 .64-.488c.291-.105.561-.087.794-.035.183.04.385.113.58.184q.147-.093.302-.175a4 4 0 0 1 .107-.469c.071-.226.19-.47.428-.669.241-.203.507-.277.742-.307C7.065 2 7.301 2 7.527 2h.945c.226 0 .462 0 .662.026.235.03.501.104.742.307.238.2.357.443.428.669.045.143.078.306.108.469q.155.082.302.175c.194-.07.396-.143.579-.184.232-.051.502-.07.794.035a1.4 1.4 0 0 1 .64.488c.123.16.242.364.356.56l.476.815c.114.196.233.4.312.586.092.22.163.488.107.8a1.4 1.4 0 0 1-.37.707 5 5 0 0 1-.477.426 5 5 0 0 1 0 .241c.167.138.344.283.479.428.162.174.315.4.37.707a1.4 1.4 0 0 1-.107.8c-.079.186-.198.39-.312.586l-.476.815c-.114.196-.233.4-.357.56a1.4 1.4 0 0 1-.64.488 1.4 1.4 0 0 1-.794.035 5 5 0 0 1-.58-.184q-.148.092-.303.175a4 4 0 0 1-.107.468c-.071.226-.19.47-.428.669a1.4 1.4 0 0 1-.742.307c-.2.026-.436.026-.662.026m2.98-9.022q.069-.024.114-.036.029.04.073.113c.046.075.098.163.164.276l.441.756c.066.113.118.202.16.279q.037.066.058.11-.031.03-.08.071a13 13 0 0 1-.358.297 1.1 1.1 0 0 0-.401.925 4 4 0 0 1 0 .462 1.1 1.1 0 0 0 .402.925l.359.297.08.072q-.02.044-.058.11c-.042.077-.094.166-.16.279l-.441.756-.164.277-.073.112-.115-.036c-.08-.027-.173-.06-.292-.104l-.117-.043a1.1 1.1 0 0 0-1.003.126q-.222.15-.465.268a1.1 1.1 0 0 0-.61.803v.005a13 13 0 0 1-.08.412l-.127.006c-.088.002-.19.002-.32.002H7.56c-.13 0-.233 0-.32-.002l-.128-.006-.025-.11-.054-.302-.001-.005a1.1 1.1 0 0 0-.61-.803 4 4 0 0 1-.465-.269 1.1 1.1 0 0 0-1.004-.126l-.114.043c-.12.043-.212.077-.292.104l-.115.036-.073-.113-.164-.277-.44-.755-.161-.28-.058-.109.08-.072a13 13 0 0 1 .358-.296c.287-.234.423-.584.402-.925a4 4 0 0 1 0-.462 1.1 1.1 0 0 0-.402-.925l-.359-.297-.08-.072.058-.11c.042-.076.094-.165.16-.278l.441-.756c.066-.114.118-.202.164-.277l.073-.113q.045.013.115.036c.08.027.173.061.292.105l.117.043a1.1 1.1 0 0 0 1.003-.126q.221-.15.464-.268c.307-.148.546-.439.61-.803v-.006a13 13 0 0 1 .08-.412q.048-.004.128-.006c.087-.002.19-.002.32-.002h.877c.13 0 .233 0 .32.002q.08.002.129.006l.024.11c.016.082.033.178.054.302l.001.006c.064.364.303.654.61.803q.243.117.464.268c.283.193.656.255 1.004.126l.115-.043c.12-.043.212-.077.292-.104"/></svg>