<svg xmlns="http://www.w3.org/2000/svg" viewBox="0 0 28 28"><path fill-rule="evenodd" d="M14.997 25c.405 0 .798 0 1.128-.042.377-.048.777-.163 1.137-.466.356-.3.538-.666.651-1.027.098-.313.164-.691.23-1.076l.01-.05.023-.135q.433-.221.838-.485l.133.049.047.017c.367.135.727.267 1.047.339.369.082.777.108 1.214-.05.443-.161.743-.45.973-.753.202-.264.398-.604.6-.955l1-1.73c.202-.35.398-.69.526-.997.146-.35.247-.755.165-1.218-.081-.458-.308-.8-.564-1.078-.221-.24-.516-.487-.816-.737l-.039-.032-.11-.091a9 9 0 0 0 0-.967l.106-.088.039-.032c.3-.25.594-.496.816-.737.256-.279.482-.62.564-1.078.082-.463-.019-.867-.165-1.217-.128-.308-.325-.648-.527-.998l-.998-1.73c-.203-.35-.4-.69-.601-.955-.23-.302-.53-.591-.973-.752-.437-.158-.846-.133-1.214-.05-.32.071-.68.204-1.047.338l-.048.018-.13.048a9 9 0 0 0-.836-.484l-.024-.138-.009-.05c-.066-.384-.132-.763-.23-1.075-.113-.361-.295-.728-.65-1.027-.36-.303-.761-.418-1.138-.466C15.795 3 15.402 3 14.997 3h-1.995c-.405 0-.798 0-1.128.043-.377.048-.777.163-1.137.466-.356.3-.538.666-.651 1.027-.098.312-.164.69-.23 1.075l-.01.05-.023.138a9 9 0 0 0-.836.484l-.132-.049-.048-.018c-.366-.134-.727-.267-1.046-.338-.37-.082-.778-.108-1.215.05-.442.16-.742.45-.972.752-.202.265-.399.605-.601.955l-.999 1.73c-.202.35-.399.69-.527.998-.146.35-.247.755-.164 1.218.08.458.307.799.563 1.077.222.241.517.487.817.737l.039.033.108.09a9 9 0 0 0 0 .964l-.107.09-.04.032c-.3.25-.594.496-.816.737-.255.278-.482.62-.563 1.077-.083.464.018.868.164 1.218.129.308.325.648.527.998l.999 1.73c.202.35.399.69.6.955.23.302.53.591.973.752.437.158.846.132 1.215.05.32-.071.68-.204 1.046-.338l.048-.018.128-.047q.405.264.84.485l.023.136.009.05c.066.385.132.763.23 1.076.113.36.295.727.65 1.027.36.303.761.418 1.138.466.33.043.723.043 1.128.043zm-.14-8.538a10 10 0 0 1-1.714 0c-.463-.04-.667-.062-.828-.112-.107-.033-.217-.085-.399-.267-.18-.181-.233-.292-.266-.398-.05-.161-.073-.365-.113-.828a10 10 0 0 1 0-1.714c.04-.463.063-.667.113-.828.033-.106.085-.217.266-.398.182-.182.292-.234.4-.267.16-.05.364-.072.827-.112a10 10 0 0 1 1.713 0c.464.04.668.062.828.112.107.033.217.085.399.267.181.181.234.292.267.399.05.16.072.364.112.827a10 10 0 0 1 0 1.714c-.04.463-.062.667-.112.828-.033.106-.086.217-.267.398s-.292.234-.399.267c-.16.05-.364.072-.828.112"/></svg>