<svg xmlns="http://www.w3.org/2000/svg" viewBox="0 0 24 24"><path fill-rule="evenodd" d="M11.3 21c-.342 0-.688 0-.98-.038-.34-.044-.712-.149-1.05-.433-.331-.28-.5-.622-.6-.948a7 7 0 0 1-.191-.887 8 8 0 0 1-.515-.298 7 7 0 0 1-.863.278c-.333.075-.713.1-1.121-.047-.415-.15-.693-.42-.9-.692-.18-.234-.352-.534-.523-.83l-.7-1.212c-.171-.297-.344-.596-.458-.868-.131-.316-.226-.692-.149-1.126.077-.427.289-.743.52-.994.188-.203.432-.409.674-.61a8 8 0 0 1 0-.59 7 7 0 0 1-.675-.61c-.232-.252-.444-.568-.52-.995-.078-.434.017-.81.149-1.126a8 8 0 0 1 .458-.868l.7-1.212c.17-.297.343-.596.522-.83.208-.272.486-.543.9-.693.409-.147.789-.122 1.122-.047.27.061.57.17.865.28q.25-.159.514-.297c.053-.31.108-.624.19-.888.102-.326.27-.668.602-.948.337-.284.71-.39 1.049-.433C10.613 3 10.958 3 11.3 3h1.398c.343 0 .688 0 .981.038.34.044.712.149 1.05.433.331.28.499.622.6.948.083.264.138.578.191.888q.264.138.514.297c.294-.109.593-.218.863-.279.333-.075.713-.1 1.121.047.415.15.693.42.9.692.18.235.352.534.523.831l.7 1.211c.171.297.344.597.458.869.131.316.226.691.149 1.125-.077.428-.289.744-.52.995a7 7 0 0 1-.673.608 8 8 0 0 1 0 .592c.242.202.488.407.676.611.231.251.443.567.52.995.077.434-.018.81-.15 1.125-.113.273-.286.572-.457.869l-.7 1.211a8 8 0 0 1-.523.831c-.208.272-.486.542-.9.692-.409.147-.788.122-1.121.047-.27-.06-.571-.17-.866-.28a8 8 0 0 1-.514.298 7 7 0 0 1-.19.887c-.102.326-.27.668-.602.948-.337.284-.71.39-1.05.433a8 8 0 0 1-.98.038zm1.29-7.021a8 8 0 0 1-1.18 0c-.426-.03-.595-.048-.727-.088-.078-.024-.17-.063-.34-.233s-.21-.263-.234-.34c-.04-.133-.057-.302-.088-.729a8 8 0 0 1 0-1.178c.03-.427.048-.596.088-.728.024-.078.063-.17.233-.34s.263-.21.34-.234c.133-.04.302-.057.729-.088a8 8 0 0 1 1.178 0c.427.03.596.048.728.088.078.024.17.063.34.233s.21.263.234.34c.04.133.057.302.088.729a8 8 0 0 1 0 1.178c-.03.427-.048.596-.088.728-.024.078-.063.17-.233.34s-.263.21-.34.234c-.133.04-.302.057-.729.088"/></svg>