<svg xmlns="http://www.w3.org/2000/svg" viewBox="0 0 24 24"><g fill-rule="evenodd" clip-rule="evenodd"><path d="M14.976 12.66c-.056.785-.084 1.177-.611 1.705-.528.528-.92.556-1.705.611a9 9 0 0 1-1.32 0c-.785-.056-1.177-.083-1.705-.611s-.556-.92-.611-1.705a9 9 0 0 1 0-1.32c.056-.785.083-1.177.611-1.705s.92-.555 1.705-.611a9 9 0 0 1 1.32 0c.785.056 1.177.083 1.705.611.527.528.555.92.611 1.705a9 9 0 0 1 0 1.32m-2.458.321a7 7 0 0 1-1.036 0 10 10 0 0 1-.426-.035h-.002v-.002A10 10 0 0 1 11 12q0-.269.019-.518c.014-.21.024-.329.035-.426v-.002h.002A10 10 0 0 1 12 11q.269 0 .518.019c.21.015.329.024.426.035h.002v.002A10 10 0 0 1 13 12q0 .269-.019.518c-.015.21-.024.33-.035.426v.002h-.002c-.097.011-.216.02-.426.035"/><path d="M12.699 21H11.3c-.343 0-.689 0-.981-.038-.34-.044-.712-.149-1.05-.433-.331-.28-.5-.622-.6-.948a7 7 0 0 1-.191-.887 8 8 0 0 1-.515-.298 7 7 0 0 1-.863.278c-.333.075-.713.1-1.121-.047-.415-.15-.693-.42-.9-.692-.18-.234-.352-.534-.523-.83l-.7-1.212c-.171-.297-.344-.596-.458-.868-.131-.316-.226-.692-.149-1.126.077-.427.289-.743.52-.994.188-.203.432-.409.674-.61a8 8 0 0 1 0-.59 7 7 0 0 1-.675-.61c-.232-.252-.444-.568-.52-.995-.078-.434.017-.81.149-1.126a8 8 0 0 1 .458-.868l.7-1.212c.17-.297.343-.596.522-.83.208-.272.486-.543.9-.693.409-.147.789-.122 1.122-.047.27.061.57.17.865.28q.25-.159.514-.297c.053-.31.108-.624.19-.888.102-.326.27-.668.602-.948.337-.284.71-.39 1.049-.433C10.613 3 10.958 3 11.3 3h1.398c.343 0 .688 0 .981.038.34.044.712.149 1.05.433.331.28.499.622.6.948.083.264.138.578.191.888q.264.138.514.297c.294-.109.593-.218.863-.279.333-.075.713-.1 1.121.047.415.15.693.42.9.692.18.235.352.534.523.831l.7 1.211c.171.297.344.597.458.869.131.316.226.691.149 1.125-.077.428-.289.744-.52.995a7 7 0 0 1-.673.608 8 8 0 0 1 0 .592c.242.202.488.407.676.611.231.251.443.567.52.995.077.434-.018.81-.15 1.125-.113.273-.286.572-.457.869l-.7 1.211a8 8 0 0 1-.523.831c-.208.272-.486.542-.9.692-.409.147-.788.122-1.121.047-.27-.06-.571-.17-.866-.28a8 8 0 0 1-.514.298 7 7 0 0 1-.19.887c-.102.326-.27.668-.602.948-.337.284-.71.39-1.05.433a8 8 0 0 1-.98.038m.867-2.738c-.066.385-.102.583-.143.717-.148.019-.361.021-.772.021h-1.302c-.411 0-.624-.002-.773-.021a7 7 0 0 1-.142-.717l-.024-.14a1.53 1.53 0 0 0-.84-1.117 6 6 0 0 1-.686-.397 1.53 1.53 0 0 0-1.39-.17l-.133.049a7 7 0 0 1-.692.234c-.09-.119-.199-.302-.404-.658l-.652-1.128c-.205-.356-.31-.542-.368-.68.096-.102.25-.232.55-.482l.11-.09c.395-.326.58-.814.547-1.286a6 6 0 0 1 0-.793 1.53 1.53 0 0 0-.547-1.286l-.112-.092c-.3-.25-.453-.38-.549-.483.058-.138.162-.323.368-.679l.651-1.128c.206-.356.314-.54.405-.659.136.032.325.1.692.235l.135.05c.48.18.997.096 1.39-.17q.326-.222.684-.396c.426-.207.756-.612.841-1.117l.024-.141c.066-.385.102-.583.143-.717.148-.019.36-.021.772-.021h1.302c.41 0 .624.002.772.021.041.134.077.332.143.717l.024.14c.085.506.415.91.84 1.118q.358.175.685.396c.393.266.909.35 1.39.17l.133-.049c.366-.135.555-.203.692-.234.09.118.199.302.404.658l.652 1.128c.205.356.31.541.368.68-.096.102-.249.232-.55.481l-.11.09c-.394.327-.58.814-.546 1.287a6 6 0 0 1 0 .793c-.033.473.152.96.547 1.286l.112.093c.3.25.454.38.55.482-.058.138-.163.323-.368.68l-.652 1.128c-.205.356-.314.54-.405.658-.136-.031-.325-.1-.692-.235l-.135-.05a1.53 1.53 0 0 0-1.39.17 6 6 0 0 1-.685.397 1.53 1.53 0 0 0-.84 1.117z"/></g></svg>