<svg xmlns="http://www.w3.org/2000/svg" viewBox="0 0 44 44"><path fill-rule="evenodd" d="M6.26 24.941c-.192.68.034 1.21.486 2.268.35.817.81 1.78 1.394 2.791a26 26 0 0 0 1.72 2.602c.69.921 1.036 1.382 1.72 1.556.686.173 1.243-.082 2.357-.594q.519-.24 1.146-.537l.826.551q.053.647.102 1.184c.114 1.22.171 1.83.664 2.337.493.506 1.064.575 2.207.712.883.106 1.946.189 3.114.189s2.231-.083 3.114-.189c1.143-.137 1.715-.206 2.207-.712.493-.506.55-1.117.664-2.337q.05-.537.102-1.184l.827-.55q.627.297 1.146.536c1.114.512 1.67.767 2.355.594s1.03-.635 1.721-1.556A26 26 0 0 0 35.852 30a26 26 0 0 0 1.394-2.791c.452-1.059.679-1.588.487-2.268s-.692-1.034-1.692-1.743a90 90 0 0 0-.795-.556v-1.284q.43-.298.794-.556c1.001-.709 1.502-1.064 1.693-1.744s-.034-1.21-.487-2.269A26 26 0 0 0 35.853 14a26 26 0 0 0-1.72-2.601c-.69-.922-1.036-1.383-1.72-1.557-.686-.174-1.243.082-2.357.594q-.52.24-1.146.537l-.827-.551a92 92 0 0 0-.102-1.184c-.114-1.22-.17-1.831-.664-2.338-.493-.506-1.065-.574-2.209-.712A26 26 0 0 0 21.996 6c-1.167 0-2.23.083-3.112.188-1.144.138-1.716.206-2.209.712-.493.507-.55 1.117-.664 2.338q-.05.537-.102 1.184l-.826.55q-.627-.297-1.146-.536c-1.115-.512-1.672-.768-2.357-.594s-1.03.635-1.721 1.557A26 26 0 0 0 8.139 14a26 26 0 0 0-1.392 2.79c-.453 1.059-.68 1.588-.488 2.268s.692 1.035 1.693 1.744q.365.259.794.556v1.284q-.43.298-.794.556c-1 .709-1.5 1.063-1.692 1.743m11.902-6.97c-.806.807-.852 1.585-.944 3.141a15 15 0 0 0 0 1.776c.092 1.556.138 2.334.944 3.14.806.807 1.584.853 3.14.945a15 15 0 0 0 1.776 0c1.557-.092 2.335-.138 3.141-.944.806-.807.852-1.585.944-3.141a15 15 0 0 0 0-1.776c-.092-1.556-.138-2.334-.944-3.14-.806-.807-1.584-.853-3.14-.945a15 15 0 0 0-1.776 0c-1.557.092-2.335.138-3.141.944"/></svg>