<svg xmlns="http://www.w3.org/2000/svg" viewBox="0 0 24 24"><path fill-rule="evenodd" d="M6.285 17.296a.99.99 0 0 1 1.384-.029l.03.028q.346.319.7.623C10.487 19.716 11.005 20 12.002 20s1.508-.282 3.598-2.077q.354-.304.702-.622l.03-.028A1 1 0 0 1 17 17c.256-.003.512.1.715.302A1 1 0 0 1 18 18a1 1 0 0 1-.309.74q-.391.36-.788.7c-1.988 1.707-3.048 2.561-4.902 2.56s-2.92-.856-4.907-2.566q-.395-.34-.786-.701A1 1 0 0 1 6 18c0-.257.095-.514.285-.704M7 7a.99.99 0 0 1-1-1 1 1 0 0 1 .308-.733q.392-.361.786-.7C9.08 2.856 10.146 2 12.001 2s2.914.852 4.902 2.56q.396.34.788.7A1 1 0 0 1 18 6a1 1 0 0 1-.285.698A1 1 0 0 1 17 7a1 1 0 0 1-.668-.273l-.03-.028q-.348-.319-.702-.622C13.51 4.282 13 4 12.002 4s-1.515.284-3.603 2.082q-.354.303-.7.623l-.03.028A1 1 0 0 1 7 7m2.005 4.707c.035-1.023.053-1.534.61-2.092.558-.557 1.07-.575 2.092-.61a9 9 0 0 1 .586 0c1.023.035 1.534.053 2.092.61.558.558.575 1.07.61 2.092a9 9 0 0 1 0 .586c-.035 1.023-.052 1.534-.61 2.092s-1.07.575-2.092.61a9 9 0 0 1-.586 0c-1.023-.035-1.534-.052-2.092-.61-.557-.558-.575-1.07-.61-2.092a9 9 0 0 1 0-.586"/></svg>