<svg xmlns="http://www.w3.org/2000/svg" viewBox="0 0 44 44"><path d="M21.112 26.973c-1.556-.092-2.334-.138-3.14-.944-.807-.807-.853-1.585-.945-3.141a15 15 0 0 1 0-1.776c.092-1.556.138-2.334.944-3.14.807-.807 1.585-.853 3.141-.945a15 15 0 0 1 1.776 0c1.556.092 2.334.138 3.14.944.807.807.853 1.585.945 3.141a15 15 0 0 1 0 1.776c-.092 1.556-.138 2.334-.944 3.14-.807.807-1.585.853-3.141.945a15 15 0 0 1-1.776 0"/><path fill-rule="evenodd" d="M11.94 31.94a1.5 1.5 0 0 0 0 2.12l.006.007.015.015.052.051q.068.068.193.187a37 37 0 0 0 3.075 2.625c.945.717 2.038 1.46 3.153 2.031C19.52 39.532 20.774 40 22 40c1.227 0 2.48-.468 3.566-1.024 1.115-.57 2.208-1.314 3.153-2.031a37 37 0 0 0 3.268-2.812l.052-.051.015-.015.006-.005v-.001a1.5 1.5 0 0 0-2.12-2.122l-.002.002-.01.009-.04.04-.168.162a34 34 0 0 1-2.814 2.403c-.868.658-1.806 1.29-2.706 1.75-.93.476-1.677.695-2.2.695s-1.27-.22-2.2-.695c-.45-.23-.91-.504-1.366-.801-.455-.298-.906-.62-1.34-.949a34 34 0 0 1-2.982-2.565l-.04-.04-.01-.01h-.001m-2.122 0a1.5 1.5 0 0 1 2.122 0zm.001-19.88a1.5 1.5 0 0 1 0-2.12l.006-.007.015-.015.052-.051q.068-.068.193-.187a37 37 0 0 1 3.075-2.625c.945-.717 2.038-1.46 3.153-2.031C19.52 4.468 20.774 4 22 4c1.227 0 2.48.468 3.566 1.024 1.115.57 2.208 1.314 3.153 2.031a37 37 0 0 1 3.268 2.812l.052.051.015.015.006.005v.001a1.5 1.5 0 0 1-2.12 2.122l-.002-.002-.01-.009-.04-.04-.168-.162a34 34 0 0 0-2.814-2.403c-.868-.658-1.806-1.29-2.706-1.75C23.27 7.219 22.523 7 22 7s-1.27.22-2.2.695c-.9.46-1.838 1.092-2.706 1.75a34 34 0 0 0-2.982 2.565l-.04.04-.01.01h-.001m-2.122 0a1.5 1.5 0 0 0 2.122 0z"/></svg>