<svg xmlns="http://www.w3.org/2000/svg" viewBox="0 0 24 24"><path fill-rule="evenodd" d="M8.118 5.16C9.214 5.065 10.508 5 12 5s2.785.065 3.88.16c1.08.094 1.603.149 2.024.278.313.097.613.25 1.06.699.458.46.607.755.697 1.043.122.394.173.88.259 1.918a23 23 0 0 1 0 3.804c-.086 1.038-.137 1.524-.26 1.918-.09.288-.238.584-.696 1.043-.259.26-.772.4-1.218.49a.91.91 0 0 0-.746.907c0 .644.589 1.149 1.218 1.006.787-.178 1.63-.457 2.163-.991 1.29-1.294 1.37-2.265 1.532-4.207a25 25 0 0 0 0-4.136c-.162-1.942-.242-2.913-1.532-4.207s-2.302-1.382-4.327-1.557A47 47 0 0 0 12 3c-1.55 0-2.902.068-4.055.168-2.024.175-3.036.263-4.326 1.557S2.25 6.99 2.087 8.93a25 25 0 0 0 0 4.14c.162 1.94.243 2.911 1.532 4.205.533.535 1.376.813 2.164.991C6.41 18.41 7 17.905 7 17.26a.91.91 0 0 0-.746-.906c-.446-.09-.959-.231-1.218-.491-.458-.46-.606-.755-.696-1.043-.123-.393-.173-.879-.26-1.916a23 23 0 0 1 0-3.808c.087-1.037.137-1.522.26-1.916.09-.288.238-.584.696-1.043.447-.45.748-.602 1.06-.699.42-.13.944-.184 2.022-.278m1.138 12.412.021-.036C10.488 15.518 11.1 14.5 12 14.5s1.511 1.018 2.722 3.036l.022.036.202.338c1.088 1.813 1.632 2.719 1.244 3.404s-1.445.685-3.559.685h-1.263c-2.114 0-3.17 0-3.558-.685s.156-1.591 1.243-3.404zm.037-10.28a1 1 0 0 1 1.414 0L12 8.587l1.293-1.293a1 1 0 1 1 1.414 1.414L13.414 10l1.293 1.293a1 1 0 1 1-1.414 1.414L12 11.414l-1.293 1.293a1 1 0 0 1-1.414-1.414L10.586 10 9.293 8.707a1 1 0 0 1 0-1.414"/></svg>