<svg xmlns="http://www.w3.org/2000/svg" viewBox="0 0 24 24"><path fill-rule="evenodd" d="M7.945 3.168C9.098 3.068 10.45 3 12 3s2.901.068 4.054.168c2.025.175 3.038.263 4.327 1.557s1.37 2.265 1.532 4.207a25 25 0 0 1 0 4.136c-.162 1.942-.242 2.913-1.532 4.207-.89.893-1.649 1.212-2.7 1.381-.268-.523-.608-1.089-.954-1.665l-.066-.11-.202-.338-.022-.036-.068-.113c-.546-.91-1.067-1.78-1.58-2.403-.548-.667-1.437-1.491-2.79-1.491s-2.24.824-2.789 1.491c-.512.624-1.033 1.492-1.58 2.403l-.068.114-.224.373-.066.11a30 30 0 0 0-.954 1.665c-1.05-.17-1.808-.488-2.699-1.381-1.29-1.294-1.37-2.264-1.532-4.205a25 25 0 0 1 0-4.14c.162-1.94.243-2.911 1.532-4.205s2.302-1.382 4.326-1.557m1.332 14.368-.021.036-.203.338c-1.087 1.813-1.631 2.719-1.243 3.404s1.444.685 3.558.685h1.263c2.114 0 3.171 0 3.559-.685s-.156-1.591-1.244-3.404l-.202-.338-.022-.036C13.512 15.518 12.9 14.5 12 14.5s-1.512 1.018-2.723 3.036m1.43-12.243a1 1 0 0 0-1.414 1.414L10.586 8 9.293 9.293a1 1 0 0 0 1.414 1.414L12 9.414l1.293 1.293a1 1 0 0 0 1.414-1.414L13.414 8l1.293-1.293a1 1 0 0 0-1.414-1.414L12 6.586z"/></svg>