<svg xmlns="http://www.w3.org/2000/svg" viewBox="0 0 16 16"><path fill-rule="evenodd" d="M4.783 2.136A36 36 0 0 1 8 2c1.259 0 2.332.057 3.216.136 1.3.117 1.951.176 2.751.972s.857 1.388.97 2.572a14 14 0 0 1 0 2.64c-.113 1.184-.17 1.776-.97 2.572-.75.747-1.369.845-2.516.95l-.156-.26-.048-.08-.163-.272-.037-.06c-.364-.608-.72-1.201-1.073-1.628C9.595 9.084 8.964 8.5 7.997 8.5s-1.599.584-1.978 1.042c-.353.427-.709 1.02-1.073 1.627l-.036.06-.164.273-.047.08-.156.26c-1.143-.106-1.76-.204-2.51-.95-.8-.795-.857-1.387-.97-2.57a14 14 0 0 1 0-2.644c.113-1.183.17-1.775.97-2.57.8-.796 1.45-.855 2.75-.972M7.997 10c-.595 0-.997.661-1.801 2.002l-.163.272c-.726 1.209-1.088 1.813-.83 2.27.259.456.963.456 2.373.456h.842c1.409 0 2.114 0 2.372-.457.259-.456-.104-1.06-.829-2.269l-.164-.272C8.993 10.662 8.591 10 7.997 10M7.11 3.47a.75.75 0 0 0-1.06 1.06l.886.887-.853.853a.75.75 0 0 0 1.06 1.06l.854-.853.853.853a.75.75 0 0 0 1.06-1.06l-.853-.853.887-.887a.75.75 0 0 0-1.06-1.06l-.887.886z"/></svg>