<svg xmlns="http://www.w3.org/2000/svg" viewBox="0 0 16 16"><path fill-rule="evenodd" d="M4.918 3.63C5.758 3.555 6.786 3.5 8 3.5s2.241.055 3.082.13c.699.063 1.016.098 1.263.173.165.05.319.124.564.368.263.261.332.41.374.54.067.206.1.47.16 1.11a12.5 12.5 0 0 1 0 2.357c-.06.642-.093.905-.16 1.111-.042.13-.11.279-.373.54-.246.244-.4.318-.565.368-.096.03-.203.052-.34.073-.472.073-.788.53-.645.986.106.337.434.56.784.51.735-.105 1.24-.293 1.823-.874.8-.796.857-1.388.97-2.572a14 14 0 0 0 0-2.64c-.113-1.184-.17-1.776-.97-2.572s-1.45-.855-2.751-.972A36 36 0 0 0 8 2c-1.26 0-2.332.057-3.217.136-1.3.117-1.95.176-2.75.972-.8.795-.857 1.387-.97 2.57a14 14 0 0 0 0 2.644c.113 1.183.17 1.775.97 2.57.584.581 1.088.77 1.823.874.35.05.678-.173.784-.51.143-.456-.174-.913-.646-.986a2.5 2.5 0 0 1-.339-.073c-.165-.05-.319-.124-.564-.368-.263-.261-.332-.41-.374-.54-.067-.206-.099-.469-.16-1.11a12.5 12.5 0 0 1 0-2.358c.061-.641.093-.904.16-1.11.042-.13.111-.279.374-.54.245-.244.4-.318.564-.368.247-.075.564-.11 1.263-.173m1.278 8.372C7 10.662 7.402 10 7.996 10s.997.661 1.801 2.002l.164.272c.725 1.209 1.088 1.813.83 2.27-.26.456-.964.456-2.374.456h-.841c-1.41 0-2.114 0-2.373-.457-.258-.456.104-1.06.83-2.269zM6.05 4.928a.75.75 0 0 1 1.06 0l.887.886.886-.886a.75.75 0 0 1 1.06 1.06l-.886.887.853.853a.75.75 0 0 1-1.06 1.06l-.853-.852-.853.853a.75.75 0 1 1-1.061-1.061l.853-.853-.886-.886a.75.75 0 0 1 0-1.061"/></svg>