<svg xmlns="http://www.w3.org/2000/svg" viewBox="0 0 24 24"><path d="M15 10a1 1 0 0 1-1 1h-4a1 1 0 1 1 0-2h4a1 1 0 0 1 1 1m-1 4a1 1 0 0 1-1 1h-2a1 1 0 1 1 0-2h2a1 1 0 0 1 1 1"/><path fill-rule="evenodd" d="M4.168 16.056A47 47 0 0 1 4 12.001c0-1.55.068-2.901.168-4.054.175-2.025.263-3.038 1.557-4.327S7.99 2.25 9.932 2.088a25 25 0 0 1 4.137 0c1.941.161 2.912.242 4.206 1.532 1.294 1.289 1.382 2.302 1.557 4.327.1 1.152.168 2.505.168 4.054s-.068 2.903-.168 4.056c-.175 2.024-.263 3.036-1.557 4.325s-2.264 1.37-4.205 1.532a25 25 0 0 1-4.14 0c-1.94-.162-2.911-.242-4.205-1.532s-1.381-2.301-1.557-4.326m1.992-.173A45 45 0 0 1 6 12.001c0-1.491.065-2.785.16-3.881.094-1.08.149-1.603.278-2.024.097-.312.25-.612.699-1.06.46-.457.755-.606 1.043-.696.394-.122.88-.173 1.918-.26a23 23 0 0 1 3.805 0c1.037.087 1.523.138 1.917.26.288.09.584.239 1.043.696.449.448.602.748.699 1.06.13.421.184.945.278 2.024.095 1.095.16 2.39.16 3.881 0 1.492-.065 2.787-.16 3.883-.094 1.078-.149 1.601-.278 2.022-.097.312-.25.612-.699 1.06-.46.457-.755.606-1.043.696-.393.122-.879.173-1.916.26a23 23 0 0 1-3.808 0c-1.037-.087-1.522-.138-1.916-.26-.288-.09-.584-.239-1.043-.696-.449-.448-.602-.748-.699-1.06-.13-.421-.184-.944-.278-2.023"/></svg>