<svg xmlns="http://www.w3.org/2000/svg" viewBox="0 0 16 16"><path d="M10 6.75a.75.75 0 0 1-.75.75h-2.5a.75.75 0 0 1 0-1.5h2.5a.75.75 0 0 1 .75.75m-.5 3.004a.75.75 0 0 1-.75.75h-1.5a.75.75 0 0 1 0-1.5h1.5a.75.75 0 0 1 .75.75"/><path fill-rule="evenodd" d="M9.965 14.903A20 20 0 0 1 8 15c-.703 0-1.364-.038-1.965-.097-1.336-.131-2.004-.197-2.848-1.039s-.91-1.51-1.044-2.848A30 30 0 0 1 2 8c0-1.165.059-2.17.143-3.015.133-1.339.2-2.008 1.044-2.85s1.512-.907 2.85-1.038a20 20 0 0 1 3.927 0c1.337.13 2.005.196 2.849 1.038s.91 1.511 1.044 2.85C13.942 5.829 14 6.835 14 8s-.059 2.171-.143 3.016c-.134 1.338-.2 2.007-1.044 2.848-.844.842-1.512.908-2.848 1.039m-6.33-4.036A29 29 0 0 1 3.5 8c0-1.115.056-2.07.135-2.866.072-.718.112-1.048.194-1.308.057-.181.144-.356.418-.63.273-.272.448-.359.629-.415.26-.082.59-.121 1.306-.191a18.6 18.6 0 0 1 3.636 0c.717.07 1.046.109 1.306.19.18.057.355.144.63.417.273.273.36.448.417.629.082.26.122.59.194 1.308A29 29 0 0 1 12.5 8a29 29 0 0 1-.136 2.867c-.071.717-.11 1.047-.193 1.307-.057.181-.144.356-.418.629s-.448.36-.629.416c-.26.082-.589.12-1.305.19a18.6 18.6 0 0 1-3.638.001c-.716-.07-1.045-.11-1.305-.19-.18-.058-.356-.144-.63-.417-.273-.273-.36-.448-.417-.629-.082-.26-.122-.59-.194-1.307"/></svg>