<svg xmlns="http://www.w3.org/2000/svg" viewBox="0 0 24 24"><path fill-rule="evenodd" d="M4.166 16.056a47 47 0 0 1-.168-4.055c0-1.55.068-2.901.168-4.054.175-2.025.263-3.038 1.557-4.327S7.988 2.25 9.93 2.088a25 25 0 0 1 4.137 0c1.941.161 2.912.242 4.206 1.532 1.294 1.289 1.382 2.302 1.558 4.327.1 1.152.167 2.505.167 4.054s-.068 2.903-.168 4.056c-.175 2.024-.263 3.036-1.557 4.325s-2.264 1.37-4.205 1.532a25 25 0 0 1-4.14 0c-1.94-.162-2.911-.242-4.205-1.532s-1.381-2.301-1.557-4.326M14.999 10a1 1 0 0 1-1 1h-4a1 1 0 1 1 0-2h4a1 1 0 0 1 1 1m-1 4a1 1 0 0 1-1 1h-2a1 1 0 0 1 0-2h2a1 1 0 0 1 1 1"/></svg>