<svg xmlns="http://www.w3.org/2000/svg" viewBox="0 0 24 24"><path fill-rule="evenodd" d="M11 6a1 1 0 1 0 0 2h.912a1 1 0 0 1 .84.457L13.75 10h-3.336l-.535-.536A5 5 0 0 0 6.343 8H4a1 1 0 1 0 0 2h2.343a3 3 0 0 1 1.478.389l-.333.72a4.5 4.5 0 1 0 3.4 5.391H12a1 1 0 0 0 1-1c0-1.575.662-2.995 1.722-3.997l.555.857a4.5 4.5 0 1 0 1.679-1.088L16.131 10H18a1 1 0 0 0 1-1V8a1 1 0 0 0-1-1h-.095A3 3 0 0 0 15.6 8.08l-.4.48-.77-1.19A3 3 0 0 0 11.913 6zm-4.5 7q.057 0 .114.003l-.959 2.078a1 1 0 0 0 .908 1.419h2.229A2.5 2.5 0 1 1 6.5 13m9.916 1.12 1.244 1.923a1 1 0 0 0 1.68-1.086l-1.245-1.924a2.5 2.5 0 1 1-1.68 1.087"/></svg>