<svg xmlns="http://www.w3.org/2000/svg" viewBox="0 0 44 44"><path fill-rule="evenodd" d="M20.498 11a1.5 1.5 0 0 0 0 3h1.32a2.5 2.5 0 0 1 2.101 1.145l1.772 2.746-.09.109h-6.95l-.774-.71A8.7 8.7 0 0 0 11.995 15H7.498a1.5 1.5 0 0 0 0 3h4.497c.884 0 1.747.205 2.526.59l-.754 1.606a8 8 0 1 0 6.09 9.304h2.341a1.8 1.8 0 0 0 1.8-1.8v-.2h.012a9.98 9.98 0 0 1 3.368-6.995l1.1 1.705a8 8 0 1 0 2.52-1.628l-1.665-2.579h3.465a1.8 1.8 0 0 0 1.8-1.8v-1.8a1.8 1.8 0 0 0-1.8-1.8h-.171a5.4 5.4 0 0 0-4.149 1.943l-.775.93-1.263-1.958A5.5 5.5 0 0 0 21.818 11zm-8.5 12q.224 0 .444.02l-1.84 3.915a1.8 1.8 0 0 0 1.63 2.565h4.537A5.002 5.002 0 0 1 7 28a5 5 0 0 1 4.999-5m18.154 1.805 2.586 4.008a1.5 1.5 0 1 0 2.52-1.626l-2.586-4.01a5 5 0 1 1-2.52 1.627"/></svg>