<svg xmlns="http://www.w3.org/2000/svg" viewBox="0 0 44 44"><path d="m7.807 22.737-1.8-13.744c-.072-.557.377-1.039.923-.992l4.785.415c.52.045.88.55.763 1.071l-2.986 13.33c-.214.952-1.559.889-1.685-.08m7.091 8.278L28.601 31c.524 0 .937.442.896.96l-.375 4.719a.898.898 0 0 1-1.197.769l-13.327-4.704c-.95-.335-.708-1.728.3-1.729"/><path fill-rule="evenodd" d="M31.642 19.891c1.575-1.864 2.661-3.4 3.37-4.5.75-1.17.712-2.63-.132-3.735a21.7 21.7 0 0 0-2.992-3.194c-1.242-1.077-2.997-.116-4.567 1.288-.709.634-2 .412-3.289.19-1.054-.181-2.105-.362-2.831-.072-.475.19-1.04.62-1.716 1.38-2.093 2.357-3.47 4.28-4.31 5.588-.751 1.168-.713 2.628.13 3.733a21.7 21.7 0 0 0 2.994 3.194 22 22 0 0 0 3.593 2.52c1.218.682 2.688.53 3.762-.357.995-.822 2.365-2.057 3.994-3.794l7.358 6.493a1.5 1.5 0 1 0 1.985-2.25zm.844-6.449a19 19 0 0 0-2.084-2.307q-.09.053-.198.125-.391.262-.87.688c-1.08.968-2.364 1.156-3.198 1.18-.837.024-1.676-.108-2.254-.205l-.432-.073c-.444-.076-.758-.13-1.063-.157l-.125-.009a5 5 0 0 0-.522.52c-1.99 2.24-3.273 4.04-4.033 5.222a.36.36 0 0 0-.066.205.25.25 0 0 0 .06.152 18.7 18.7 0 0 0 2.577 2.752 19 19 0 0 0 3.095 2.169.26.26 0 0 0 .16.038.37.37 0 0 0 .197-.091c1.087-.898 2.727-2.39 4.716-4.63s3.273-4.04 4.033-5.221a.36.36 0 0 0 .067-.206.26.26 0 0 0-.06-.152"/></svg>