<svg xmlns="http://www.w3.org/2000/svg" viewBox="0 0 24 24"><path fill-rule="evenodd" d="M10.585 5.848c.38-.433.699-.678.966-.786.408-.165 1-.062 1.592.042.725.126 1.451.252 1.85-.109.883-.799 1.87-1.346 2.569-.733a12.3 12.3 0 0 1 1.683 1.818c.475.63.496 1.46.074 2.125a25 25 0 0 1-1.775 2.417l4.117 3.628a1 1 0 0 1 .09 1.411 1 1 0 0 1-1.412.09l-4.114-3.626a25 25 0 0 1-2.17 2.077 1.85 1.85 0 0 1-2.116.203 12.3 12.3 0 0 1-2.021-1.434 12.3 12.3 0 0 1-1.684-1.818 1.85 1.85 0 0 1-.073-2.125c.473-.744 1.247-1.838 2.424-3.18m.652 5.62a10.3 10.3 0 0 1-1.343-1.437c.424-.66 1.125-1.645 2.195-2.864q.099-.112.168-.179c.137.016.285.042.496.078l.253.044c.325.054.824.135 1.33.12.502-.014 1.312-.13 2-.752q.193-.175.354-.294c.36.36.66.712.896 1.019-.424.66-1.125 1.645-2.195 2.863-1.07 1.219-1.955 2.042-2.554 2.548a10.3 10.3 0 0 1-1.6-1.146"/><path d="m4.054 12.396-1.05-7.83a.5.5 0 0 1 .538-.564l2.792.236a.5.5 0 0 1 .445.61l-1.742 7.594c-.125.542-.91.506-.983-.046m3.82 4.612L15.5 17c.291 0 .521.238.498.517l-.208 2.54c-.026.316-.356.52-.666.415l-7.417-2.533c-.529-.18-.394-.93.167-.93"/></svg>