<svg xmlns="http://www.w3.org/2000/svg" viewBox="0 0 24 24"><path d="M12 6a1 1 0 0 1 1 1v.045c.538.052.997.137 1.34.215a1.96 1.96 0 0 1 1.477 1.464A1.003 1.003 0 0 1 14.855 10a1 1 0 0 1-.98-.794 8.7 8.7 0 0 0-1.878-.21c-.467 0-.898.04-1.263.095-.446.067-.737.459-.734.917a.84.84 0 0 0 .563.757c.05.015.065.019.236.044l2.706.402s.313.046.52.11c1.141.356 1.97 1.49 1.974 2.68.004 1.075-.598 2.125-1.566 2.61-.452.227-.932.291-1.43.34V17a1 1 0 1 1-2 0v-.048a11 11 0 0 1-1.348-.216 1.96 1.96 0 0 1-1.481-1.48 1.002 1.002 0 0 1 .9-1.254 1 1 0 0 1 1.046.788c.438.099 1.106.21 1.877.21.468 0 .898-.04 1.264-.095.44-.066.742-.448.738-.904a.86.86 0 0 0-.567-.77 1.3 1.3 0 0 0-.237-.044l-2.705-.402s-.313-.046-.521-.11c-1.14-.355-1.965-1.48-1.969-2.668-.003-1.074.591-2.137 1.562-2.624.455-.228.938-.291 1.438-.34V7a1 1 0 0 1 1-1"/><path fill-rule="evenodd" d="M3.081 9.923c.195-2.616.292-3.924 1.605-5.237s2.62-1.41 5.237-1.605C10.6 3.031 11.3 3 12 3s1.399.03 2.077.081c2.616.195 3.924.292 5.237 1.605s1.41 2.62 1.605 5.237C20.969 10.6 21 11.3 21 12s-.03 1.399-.081 2.077c-.195 2.616-.292 3.924-1.605 5.237s-2.62 1.41-5.237 1.605C13.4 20.969 12.7 21 12 21s-1.399-.03-2.077-.081c-2.616-.195-3.924-.292-5.237-1.605s-1.41-2.62-1.605-5.237A28 28 0 0 1 3 12c0-.7.03-1.399.081-2.077m6.99-4.847A26 26 0 0 1 12 5c.642 0 1.292.028 1.929.076 2.75.204 3.265.318 3.97 1.024.707.706.82 1.22 1.025 3.971.048.637.076 1.287.076 1.929s-.028 1.292-.076 1.929c-.204 2.75-.318 3.265-1.024 3.97-.706.707-1.22.82-3.971 1.025-.637.048-1.287.076-1.929.076s-1.292-.028-1.929-.076c-2.75-.204-3.265-.318-3.97-1.024-.707-.706-.82-1.22-1.025-3.971A26 26 0 0 1 5 12c0-.642.028-1.292.076-1.929.204-2.75.318-3.265 1.024-3.97.706-.707 1.22-.82 3.971-1.025"/></svg>