<svg xmlns="http://www.w3.org/2000/svg" viewBox="0 0 24 24"><path fill-rule="evenodd" d="M4.688 4.687C3.375 6 3.278 7.307 3.083 9.924c-.05.678-.081 1.378-.081 2.077s.03 1.399.081 2.077c.195 2.616.292 3.924 1.605 5.237s2.62 1.41 5.237 1.605c.678.05 1.377.081 2.077.081s1.399-.03 2.077-.081c2.616-.195 3.924-.292 5.237-1.605s1.41-2.62 1.605-5.237c.05-.678.081-1.377.081-2.077s-.03-1.4-.081-2.077c-.195-2.616-.292-3.924-1.605-5.237s-2.62-1.41-5.237-1.605a28 28 0 0 0-2.077-.081c-.7 0-1.4.03-2.077.081-2.616.195-3.924.292-5.237 1.605M13.002 6a1 1 0 0 0-2 0v.502q-.455.039-.842.097a3.11 3.11 0 0 0-2.624 2.668c-.034.264-.047.53-.018.796.165 1.512 1.36 2.5 2.723 2.696l3.237.462c.565.081.965.5 1.012.935.009.105 0 .211-.013.316a1.1 1.1 0 0 1-.929.95 10.6 10.6 0 0 1-1.546.117c-.944 0-1.81-.162-2.33-.278-.125-.412-.535-.761-.99-.761a1.002 1.002 0 0 0-.93 1.376 2.09 2.09 0 0 0 1.534 1.364c.429.095 1.02.201 1.717.258v.504a1 1 0 1 0 1.999-.004l-.001-.5q.456-.039.844-.097a3.11 3.11 0 0 0 2.623-2.67c.034-.263.047-.529.018-.794-.163-1.49-1.408-2.507-2.723-2.695l-3.236-.463c-.605-.087-.963-.471-1.013-.935a1.5 1.5 0 0 1 .013-.316c.066-.495.446-.88.929-.951a10.6 10.6 0 0 1 1.546-.116c.944 0 1.81.162 2.33.278.113.43.517.761.983.761a1.002 1.002 0 0 0 .964-1.281 2.09 2.09 0 0 0-1.562-1.459 13 13 0 0 0-1.715-.258z"/></svg>