<svg xmlns="http://www.w3.org/2000/svg" viewBox="0 0 16 16"><path d="M8.002 3.998a.6.6 0 0 1 .6.6v.227a8 8 0 0 1 1.17.198c.359.09.637.375.716.745a.6.6 0 0 1-1.128.39 6.3 6.3 0 0 0-1.354-.16c-.259 0-.5.02-.713.05a.697.697 0 0 0-.584.8c.03.25.2.455.63.522l1.517.234c.77.118 1.517.607 1.633 1.561.006.052.012.122.015.185.043.95-.676 1.82-1.622 1.95a7 7 0 0 1-.28.033v.067a.6.6 0 1 1-1.2 0v-.067a7 7 0 0 1-.943-.15 1.23 1.23 0 0 1-.93-.908.6.6 0 1 1 1.163-.293l.001.001c.004.021.006.024.03.03a6 6 0 0 0 1.283.148c.259 0 .5-.02.713-.05a.693.693 0 0 0 .586-.706l-.007-.095c-.03-.25-.195-.454-.625-.52l-1.517-.234c-.77-.12-1.522-.608-1.638-1.562a3 3 0 0 1-.014-.185c-.043-.95.68-1.82 1.626-1.95a7 7 0 0 1 .272-.032v-.229a.6.6 0 0 1 .6-.6"/><path fill-rule="evenodd" d="M2.056 6.616c.13-1.744.195-2.616 1.07-3.491s1.747-.94 3.491-1.07c.452-.034.919-.054 1.385-.054s.933.02 1.385.054c1.744.13 2.616.195 3.491 1.07s.94 1.747 1.07 3.491c.034.452.054.919.054 1.385s-.02.933-.054 1.385c-.13 1.744-.195 2.616-1.07 3.491s-1.747.94-3.491 1.07c-.452.034-.919.054-1.385.054s-.933-.02-1.385-.054c-1.744-.13-2.616-.195-3.491-1.07s-.94-1.747-1.07-3.491A19 19 0 0 1 2.002 8c0-.466.02-.933.054-1.385M6.729 3.55c.42-.031.85-.05 1.273-.05s.852.019 1.273.05c1.845.137 2.122.214 2.542.635.42.42.498.697.635 2.542.031.42.05.85.05 1.273s-.019.852-.05 1.273c-.137 1.845-.214 2.122-.635 2.542-.42.42-.697.498-2.542.635-.42.031-.85.05-1.273.05s-.852-.019-1.274-.05c-1.844-.137-2.121-.214-2.541-.635-.42-.42-.498-.697-.635-2.542A17 17 0 0 1 3.502 8c0-.423.018-.852.05-1.273.137-1.845.214-2.122.635-2.542.42-.42.697-.498 2.542-.635"/></svg>