<svg xmlns="http://www.w3.org/2000/svg" viewBox="0 0 16 16"><path fill-rule="evenodd" d="M3.126 3.125c-.875.875-.94 1.747-1.07 3.491-.034.452-.054.919-.054 1.385s.02.933.054 1.385c.13 1.744.195 2.616 1.07 3.491s1.747.94 3.491 1.07c.452.034.919.054 1.385.054s.933-.02 1.385-.054c1.744-.13 2.616-.195 3.491-1.07s.94-1.747 1.07-3.491c.034-.452.054-.919.054-1.385s-.02-.933-.054-1.385c-.13-1.744-.195-2.616-1.07-3.491s-1.747-.94-3.491-1.07a19 19 0 0 0-1.385-.054c-.466 0-.933.02-1.385.054-1.744.13-2.616.195-3.491 1.07m4.878.377a.6.6 0 0 1 .6.6v.368c.509.034.953.105 1.274.168.563.111.991.547 1.105 1.099a.6.6 0 0 1 .02.165.6.6 0 0 1-1.196.072.21.21 0 0 0-.16-.158 8.7 8.7 0 0 0-1.64-.166 8 8 0 0 0-1.11.082.8.8 0 0 0-.683.821c.003.063.009.118.012.14a.53.53 0 0 0 .199.362c.114.09.292.167.542.201l2.24.304c.4.054.801.19 1.13.451.34.27.57.653.639 1.13a2.02 2.02 0 0 1-1.686 2.32q-.311.046-.688.073v.368a.6.6 0 0 1-1.2 0v-.368a10 10 0 0 1-1.199-.155 1.5 1.5 0 0 1-1.167-1.083.6.6 0 1 1 1.153-.33.3.3 0 0 0 .239.234c.39.075.957.154 1.579.154.415 0 .795-.035 1.11-.081a.8.8 0 0 0 .683-.822 2 2 0 0 0-.012-.139.53.53 0 0 0-.199-.362c-.114-.091-.292-.167-.543-.201l-2.24-.304c-.399-.054-.8-.19-1.13-.452a1.72 1.72 0 0 1-.638-1.13 2.017 2.017 0 0 1 1.686-2.32q.308-.045.68-.072v-.369a.6.6 0 0 1 .6-.6"/></svg>