<svg xmlns="http://www.w3.org/2000/svg" viewBox="0 0 24 24"><path fill-rule="evenodd" d="M2.999 12.985a1 1 0 0 1 1.079.913c.087 1.04.137 1.524.26 1.917q.038.13.092.242a1 1 0 1 1-1.815.84 4 4 0 0 1-.187-.487c-.202-.647-.262-1.376-.343-2.343v-.003a1 1 0 0 1 .914-1.08m0-1.975a1 1 0 0 1-.914-1.08v-.002c.08-.967.141-1.696.343-2.344q.073-.24.187-.486a1 1 0 1 1 1.815.84 2 2 0 0 0-.093.241c-.122.393-.172.878-.259 1.917a1 1 0 0 1-1.08.914m3.004 7.613a1 1 0 0 1 1.105-.883c.283.032.61.061 1.01.096.583.05 1.223.093 1.92.12a1 1 0 0 1-.082 2 44 44 0 0 1-2.012-.128 45 45 0 0 1-1.058-.1 1 1 0 0 1-.883-1.105m0-13.251a1 1 0 0 1 .883-1.105q.467-.05 1.058-.1a44 44 0 0 1 2.012-.128 1 1 0 0 1 .082 1.999q-1.045.044-1.92.12c-.4.036-.727.065-1.01.096a1 1 0 0 1-1.105-.882M13 18.997a1 1 0 0 1 .959-1.04q1.045-.043 1.92-.121a44 44 0 0 0 1.007-.095 1 1 0 1 1 .222 1.987q-.465.05-1.056.1-.921.082-2.012.127a1 1 0 0 1-1.04-.958m0-13.999a1 1 0 0 1 1.04-.959q1.09.046 2.012.127.591.05 1.056.1a1 1 0 1 1-.222 1.988c-.283-.032-.609-.06-1.006-.095a42 42 0 0 0-1.921-.121A1 1 0 0 1 13 4.998m7.055 12.387a1 1 0 0 1-.488-1.328 2 2 0 0 0 .092-.242c.123-.393.173-.877.26-1.917a1 1 0 1 1 1.993.166v.003c-.081.967-.142 1.696-.343 2.343q-.073.24-.187.487a1 1 0 0 1-1.327.488m0-10.775a1 1 0 0 1 1.327.488q.113.247.187.486c.201.648.262 1.377.343 2.344v.002a1 1 0 0 1-1.993.166c-.087-1.04-.137-1.524-.26-1.917a2 2 0 0 0-.092-.242 1 1 0 0 1 .488-1.327"/></svg>