<svg xmlns="http://www.w3.org/2000/svg" viewBox="0 0 24 24"><path d="M12 7a1 1 0 0 1 1 1h2.5a1 1 0 1 1 0 2h-.618c-.288 1.282-.987 2.464-1.798 3.484.699.503 1.436.903 2.109 1.035a1 1 0 0 1-.386 1.962c-1.135-.223-2.226-.869-3.11-1.533-.72.635-1.516 1.163-2.331 1.483a1 1 0 1 1-.732-1.862c.497-.195 1.022-.523 1.532-.943q-.485-.47-.93-.98a1 1 0 1 1 1.528-1.292q.38.434.794.836c.591-.753 1.02-1.528 1.247-2.19H8.5a1 1 0 0 1 0-2H11a1 1 0 0 1 1-1"/><path fill-rule="evenodd" d="M20.479 21.722C22 20.86 22 18.51 22 13.812v-.81c0-1.024 0-2.049-.085-3.07-.162-1.94-.243-2.912-1.532-4.206s-2.302-1.382-4.327-1.557A47 47 0 0 0 12 4c-1.55 0-2.902.068-4.055.168-2.024.175-3.036.263-4.326 1.557S2.25 7.99 2.087 9.93a25 25 0 0 0 0 4.14c.162 1.94.243 2.911 1.532 4.205s2.302 1.382 4.325 1.557c1.153.1 2.506.168 4.056.168q1.382-.002 2.553-.064c2.967 1.747 4.626 2.522 5.926 1.786M19.66 8.18c.123.394.173.88.26 1.918.08.967.08 1.938.079 2.909v.806c0 2.417-.005 4-.168 5.1-.079.529-.177.81-.25.953l-.002.001c-.062.121-.067.131-.177.132-.09.001-.282-.019-.622-.134-.723-.244-1.71-.767-3.213-1.652l-.518-.306-.6.032A48 48 0 0 1 12 18a45 45 0 0 1-3.882-.16c-1.079-.094-1.602-.149-2.022-.278-.312-.097-.613-.25-1.06-.699-.458-.46-.606-.755-.696-1.043-.123-.393-.173-.879-.26-1.916a23 23 0 0 1 0-3.808c.087-1.037.137-1.522.26-1.916.09-.288.238-.584.696-1.043.447-.449.748-.602 1.06-.699.42-.13.944-.184 2.022-.278C9.214 6.065 10.508 6 12 6s2.786.065 3.882.16c1.079.094 1.602.149 2.023.278.313.097.613.25 1.06.699.458.46.606.755.696 1.043"/></svg>