<svg xmlns="http://www.w3.org/2000/svg" viewBox="0 0 32 32"><path fill-rule="evenodd" d="M15.727 3.014a2.6 2.6 0 0 1 .533 0c1.602.163 2.546 2.586 4.433 7.432 4.88.24 7.321.36 8.02 1.693.13.247.22.513.265.788.248 1.484-1.623 3.054-5.367 6.194l-.183.154c1.253 4.458 1.88 6.688 1.093 7.73a2.63 2.63 0 0 1-1.343.934c-1.25.375-3.124-.986-6.872-3.708L16 24.01l-.007-.005-.313.227c-3.748 2.722-5.622 4.083-6.872 3.707a2.63 2.63 0 0 1-1.343-.934c-.786-1.041-.16-3.27 1.093-7.73l-.188-.158c-3.731-3.139-5.597-4.708-5.348-6.19a2.6 2.6 0 0 1 .266-.788c.699-1.331 3.134-1.451 8.005-1.692 1.887-4.846 2.83-7.27 4.434-7.432M16 20.958l1.757 1.276c1.922 1.396 3.204 2.323 4.16 2.877q.279.16.462.249a8 8 0 0 0-.072-.52c-.188-1.088-.613-2.611-1.255-4.898l-.432-1.534 1.405-1.178c1.926-1.616 3.185-2.678 3.961-3.51q.171-.185.282-.32a7 7 0 0 0-.419-.085c-1.121-.194-2.767-.28-5.278-.404l-1.598-.079-.58-1.49c-.971-2.493-1.613-4.128-2.19-5.186a7 7 0 0 0-.203-.35z"/></svg>