<svg xmlns="http://www.w3.org/2000/svg" viewBox="0 0 16 16"><path fill-rule="evenodd" d="M7.834 12.037c-2.002 1.42-3.002 2.13-3.669 1.93a1.4 1.4 0 0 1-.697-.475c-.424-.54-.09-1.704.58-4.03l-.07-.055C1.912 7.765.878 6.945 1.01 6.164q.036-.208.133-.395C1.51 5.063 2.84 5 5.5 4.875c1.007-2.526 1.51-3.79 2.367-3.869a1.4 1.4 0 0 1 .264 0c.856.08 1.36 1.343 2.367 3.87 2.66.124 3.99.187 4.357.893q.098.187.133.395c.132.78-.9 1.601-2.967 3.243l-.07.055c.67 2.326 1.004 3.49.58 4.03a1.4 1.4 0 0 1-.697.475c-.667.2-1.668-.51-3.669-1.93L8 11.919zM8 2.847v7.232l1.035.735c.966.686 1.62 1.148 2.11 1.436-.109-.54-.32-1.284-.634-2.374l-.277-.964.855-.68c.949-.754 1.596-1.27 2.023-1.675-.595-.083-1.44-.125-2.684-.183l-.965-.046-.358-.897C8.614 4.197 8.287 3.384 8 2.847"/></svg>