<svg xmlns="http://www.w3.org/2000/svg" viewBox="0 0 44 44"><path fill-rule="evenodd" d="M28.183 15.953a119 119 0 0 0-1.683-5.022c-.543-1.5-1.15-3.045-1.73-4.233-.285-.585-.594-1.146-.916-1.58a3.5 3.5 0 0 0-.61-.654C23.013 4.28 22.583 4 22 4s-1.013.28-1.242.464a3.5 3.5 0 0 0-.61.654c-.323.434-.632.995-.918 1.58-.58 1.188-1.186 2.733-1.729 4.233a119 119 0 0 0-1.683 5.022q-.324.023-.723.054a94 94 0 0 0-3.911.383c-1.425.173-2.916.399-4.096.69-.582.143-1.158.319-1.63.543a3.3 3.3 0 0 0-.742.466 2.04 2.04 0 0 0-.67 1.047 2.04 2.04 0 0 0 .091 1.227c.112.292.272.55.425.76.305.421.722.848 1.16 1.25.887.814 2.073 1.717 3.226 2.542a92 92 0 0 0 3.632 2.457l-.156.42c-.35.952-.804 2.245-1.211 3.594-.404 1.335-.78 2.78-.953 4.018-.085.616-.13 1.245-.08 1.815.046.517.193 1.275.76 1.842.707.707 1.63.679 2.175.585.588-.101 1.196-.35 1.75-.627 1.13-.563 2.417-1.438 3.592-2.311A68 68 0 0 0 22 33.87l.386.327a68 68 0 0 0 3.158 2.511c1.175.873 2.463 1.748 3.591 2.31.555.278 1.163.527 1.75.628.545.094 1.469.122 2.176-.585.567-.567.714-1.325.76-1.842.05-.57.005-1.2-.08-1.815-.173-1.238-.549-2.683-.953-4.018a66 66 0 0 0-1.367-4.014l.424-.275a92 92 0 0 0 3.208-2.182c1.153-.825 2.339-1.728 3.226-2.542.438-.402.855-.829 1.16-1.25.153-.21.313-.468.425-.76.108-.283.217-.725.092-1.227-.128-.51-.44-.85-.671-1.047a3.3 3.3 0 0 0-.742-.466c-.472-.224-1.048-.4-1.63-.543-1.18-.291-2.671-.517-4.096-.69a94 94 0 0 0-4.634-.437M22 7.864c.5 0 3.918 10.957 3.918 10.957s10.321.679 10.464 1.22c.118.449-8.665 6.114-8.665 6.114s3.457 10.096 3.12 10.349C30.5 36.756 22 29.868 22 29.868z"/></svg>