<svg xmlns="http://www.w3.org/2000/svg" viewBox="0 0 44 44"><path fill-rule="evenodd" d="M22 7c-.95 0-1.692.59-2.146 1.035-.512.5-1.005 1.164-1.468 1.883-.932 1.447-1.893 3.361-2.778 5.306-1.067 2.346-2.058 4.815-2.788 6.718C7.54 23.306 4 25.81 4 28.674c0 4.322 8.059 7.826 18 7.826s18-3.504 18-7.826c0-3.01-3.91-5.623-9.642-6.932l-1.3-2.719c.35-.021.712-.05 1.064-.089.401-.044.812-.102 1.188-.183.35-.075.777-.19 1.147-.392.279-.15 1.146-.702 1.045-1.802a1.9 1.9 0 0 0-.457-1.05 3 3 0 0 0-.61-.528c-3.45-2.296-5.432-4.16-6.723-5.449l-.48-.485c-.431-.437-.83-.841-1.17-1.136C23.608 7.515 22.92 7 22 7m9.933 18.286c.102.69-.08 1.466-.728 2.037C30.03 28.357 27.28 30 21.813 30c-5.588 0-8.337-1.716-9.465-2.742a2.22 2.22 0 0 1-.723-1.82q-.61.216-1.157.454c-1.403.61-2.35 1.26-2.903 1.828-.54.555-.565.873-.565.954 0 .082.025.4.565.954.553.57 1.5 1.218 2.903 1.829C13.266 32.673 17.341 33.5 22 33.5c4.66 0 8.734-.827 11.532-2.043 1.404-.61 2.35-1.26 2.903-1.829.54-.554.565-.872.565-.954 0-.08-.025-.399-.565-.954-.553-.568-1.5-1.218-2.903-1.828a19 19 0 0 0-1.599-.606m-5.21-9.195h-.002l-2.404-.02 4.469 9.334c-.92.62-2.993 1.595-6.974 1.595-4.113 0-6.189-1.04-7.063-1.657.62-1.7 2.025-5.437 3.59-8.877.866-1.903 1.756-3.661 2.57-4.924.41-.637.762-1.088 1.043-1.363q.038-.038.07-.066.035.028.075.063c.246.213.518.489.901.878.173.175.368.373.594.598a42.5 42.5 0 0 0 5.122 4.387 33 33 0 0 1-1.924.052h-.066"/></svg>