<svg xmlns="http://www.w3.org/2000/svg" viewBox="0 0 17 17"><path d="M10.522 2.162c-.25.118-.316.453-.447 1.125l-.192.98c-.18.923-.27 1.384-.008 1.591.177.14.429.094.835-.074l-.548 1.137c-.43.89-.645 1.335-.432 1.605.172.218.518.187 1.15.05l-.743 1.361c-.468.856-.703 1.284-.507 1.564.196.279.675.2 1.633.042l.954-.158v.567a.797.797 0 0 0 1.593 0v-.83l1.107-.183c.958-.158 1.437-.237 1.534-.565s-.26-.658-.976-1.319l-1.331-1.23c.762-.178 1.15-.299 1.216-.598.075-.336-.31-.642-1.082-1.256l-1.465-1.164c.615-.294.924-.48.934-.767.011-.335-.397-.562-1.215-1.016l-.868-.483c-.595-.33-.893-.496-1.142-.379"/><path d="M3.983 14.342a.8.8 0 0 1-.469-.152l-.001-.001-.003-.002-.007-.006-.024-.017-.08-.061a8.5 8.5 0 0 1-1.076-1.014c-.56-.633-1.262-1.635-1.262-2.793 0-.878.67-1.425 1.201-1.74.569-.337 1.293-.594 1.938-.806q.275-.09.528-.17c.463-.15.868-.279 1.196-.416q.082-.034.148-.065a3.2 3.2 0 0 0-.622-.353 7 7 0 0 0-1.04-.372l-.08-.02a.806.806 0 0 1-.594-.95.804.804 0 0 1 .94-.607l.039.008.113.025a10.6 10.6 0 0 1 1.584.495c.432.178.917.42 1.306.747.384.322.784.82.784 1.498a1.76 1.76 0 0 1-.594 1.346c-.287.26-.646.432-.887.548l-.035.017c-.292.14-.444.22-.542.308-.05.047-.07.074-.07.157a.5.5 0 0 0 .066.141q.107.18.365.442c.348.35.832.723 1.347 1.075a22 22 0 0 0 2.004 1.213l.033.018.007.004h.002a.797.797 0 0 1-.37 1.503z"/></svg>