<svg xmlns="http://www.w3.org/2000/svg" viewBox="0 0 32 32"><path d="M19.17 5.069c-.438.204-.553.787-.783 1.953l-.325 1.652c-.316 1.603-.474 2.405-.015 2.765.31.242.746.164 1.45-.122l-.942 1.937c-.753 1.548-1.13 2.322-.758 2.79.3.377.9.327 1.995.094l-1.281 2.324c-.82 1.489-1.23 2.233-.888 2.719.343.485 1.182.348 2.859.073l2.016-.33v1.826a1.25 1.25 0 0 0 2.5 0v-2.236l1.79-.293c1.677-.275 2.516-.413 2.686-.982.17-.57-.457-1.145-1.71-2.293l-2.295-2.104c1.32-.309 1.992-.519 2.108-1.036.131-.583-.545-1.117-1.897-2.183l-2.526-1.992c1.066-.507 1.6-.83 1.617-1.324.02-.582-.696-.977-2.128-1.767l-1.474-.813c-1.041-.575-1.562-.862-2-.658"/><path d="M8.04 10.435a1.25 1.25 0 0 0 .855 1.514 12 12 0 0 1 1.888.76c.478.243.886.503 1.157.756q.058.055.1.1a6 6 0 0 1-.502.23c-.591.243-1.32.473-2.146.734q-.446.14-.927.296c-1.146.37-2.415.815-3.407 1.394C4.13 16.759 3 17.678 3 19.142c0 1.978 1.282 3.808 2.305 4.99a18 18 0 0 0 2.115 2.055l.06.048c.22.172.49.265.77.265h10.5a1.25 1.25 0 0 0 1.212-.944c.14-.554-.155-1.156-.659-1.428a39 39 0 0 1-1.168-.667 46 46 0 0 1-2.675-1.698c-.976-.673-1.907-1.389-2.58-2.054-.337-.332-.578-.622-.728-.858-.135-.214-.15-.313-.15-.313.001-.164.042-.241.181-.359.214-.18.537-.335 1.079-.577l.06-.027c.457-.204 1.099-.49 1.611-.923.609-.513 1.069-1.254 1.069-2.277 0-1.112-.644-1.95-1.286-2.512-.653-.571-1.47-1.01-2.21-1.337a18 18 0 0 0-2.04-.743 18 18 0 0 0-.934-.25l-.007-.002a1.25 1.25 0 0 0-1.485.904"/></svg>