<svg xmlns="http://www.w3.org/2000/svg" viewBox="0 0 44 44"><path fill-rule="evenodd" d="m30.52 7.642 1.029.596c.864.5 1.648.955 2.2 1.396.566.452 1.285 1.197 1.247 2.357-.024.72-.333 1.268-.705 1.674l1 .829c.82.678 1.556 1.288 2.051 1.837.5.553 1.124 1.445.872 2.617-.152.71-.557 1.186-.997 1.508l.61.587c.758.73 1.44 1.388 1.892 1.969.456.587 1.008 1.517.683 2.658s-1.271 1.602-1.959 1.831c-.68.227-1.595.384-2.61.56l-1.835.315V31.5a1.5 1.5 0 1 1-3 0v-2.608l-1.52.262c-1.014.174-1.929.332-2.643.345-.722.013-1.759-.105-2.414-1.078-.654-.973-.414-2.039-.16-2.748.25-.702.697-1.554 1.193-2.5l.129-.245a2.3 2.3 0 0 1-.914-.724c-.712-.94-.52-2.029-.3-2.754.21-.692.595-1.534 1.028-2.47a2 2 0 0 1-.242-.175c-.87-.716-.952-1.772-.918-2.518.033-.727.207-1.65.397-2.666l.227-1.212c.136-.726.267-1.424.45-1.968.202-.6.567-1.322 1.36-1.71s1.555-.217 2.123.006c.514.203 1.108.547 1.725.905M27.95 9.61c-.086.31-.173.759-.306 1.47l-.19 1.012c-.183.979-.303 1.631-.349 2.1l.033-.013a1.38 1.38 0 0 1 1.55.402c.39.453.48 1.11.225 1.659l-.847 1.83c-.438.945-.73 1.58-.898 2.049q.222-.032.525-.093c.543-.11 1.098.12 1.424.59a1.56 1.56 0 0 1 .096 1.603l-1.208 2.303c-.477.909-.794 1.519-.983 1.97.469-.035 1.123-.144 2.098-.312l6.147-1.058c.976-.168 1.63-.283 2.084-.407-.316-.365-.802-.837-1.53-1.539l-2.232-2.149a1.55 1.55 0 0 1-.418-1.474c.13-.535.53-.951 1.04-1.084.383-.099.672-.183.889-.257-.346-.344-.872-.784-1.658-1.435l-2.467-2.043a1.53 1.53 0 0 1-.535-1.331c.05-.51.347-.959.785-1.187.247-.128.447-.239.61-.338-.371-.264-.924-.588-1.756-1.07l-.86-.498c-.605-.35-.988-.57-1.27-.7"/><path d="m12.084 15.945-.045-.016a1.506 1.506 0 0 1-.984-1.838 1.515 1.515 0 0 1 1.907-1.02q.098.024.275.072c.234.064.564.158.958.282.785.245 1.846.612 2.919 1.095 1.057.476 2.206 1.1 3.114 1.883.885.764 1.77 1.883 1.77 3.35 0 1.387-.674 2.359-1.515 3.015-.727.567-1.641.943-2.332 1.228l-.081.033c-.801.33-1.343.566-1.712.854-.284.221-.36.384-.36.648 0 0 0 .042.034.135.035.095.097.226.203.39.215.337.555.739 1.024 1.191.936.905 2.225 1.866 3.57 2.762a61 61 0 0 0 3.69 2.256 63 63 0 0 0 1.554.852c.755.396 1.18 1.263.758 2.08-.38.737-1.303 1.017-2.039.637l-.116-.06-.36-.193a67 67 0 0 1-1.275-.704 64 64 0 0 1-3.874-2.37c-1.405-.935-2.866-2.012-3.992-3.1-.563-.545-1.082-1.129-1.469-1.735-.376-.59-.708-1.326-.708-2.141 0-1.098.423-1.937 1.017-2.564l-.396.122c-.393.122-.786.243-1.167.364-1.63.518-3.115 1.045-4.179 1.653-1.15.657-1.275 1.097-1.275 1.25 0 1.517.956 3.207 2.16 4.672a18.5 18.5 0 0 0 2.244 2.282c.641.53.805 1.469.264 2.14-.519.646-1.483.732-2.129.212l-.055-.045-.18-.153a21.6 21.6 0 0 1-2.464-2.531c-1.296-1.58-2.84-3.966-2.84-6.577 0-1.91 1.5-3.121 2.787-3.856 1.374-.785 3.14-1.393 4.76-1.907q.67-.212 1.297-.406c1.171-.362 2.218-.686 3.065-1.027.45-.18.77-.339.982-.47a2.4 2.4 0 0 0-.358-.407c-.422-.399-1.04-.801-1.737-1.172a19 19 0 0 0-1.908-.87 20 20 0 0 0-.802-.296"/></svg>