<svg xmlns="http://www.w3.org/2000/svg" viewBox="0 0 32 32"><path fill-rule="evenodd" d="M18.538 16.763a1.8 1.8 0 0 1-.52-.466c-.572-.748-.41-1.607-.247-2.144.14-.455.381-.996.654-1.583l-.039-.03c-.697-.57-.755-1.406-.73-1.958.025-.539.153-1.216.291-1.943l.13-.687c.098-.519.195-1.034.333-1.439.153-.451.44-1.023 1.074-1.33.636-.309 1.24-.17 1.671 0 .386.15.828.404 1.273.66l.59.338c.623.358 1.204.691 1.616 1.017.423.335 1.001.92.971 1.841a1.97 1.97 0 0 1-.4 1.128l.49.402c.59.485 1.135.932 1.504 1.338.372.409.877 1.109.676 2.041a1.9 1.9 0 0 1-.582 1.017l.212.202c.547.522 1.053 1.004 1.389 1.434.34.434.787 1.165.527 2.073s-1.02 1.264-1.533 1.433c-.507.168-1.184.283-1.916.408l-.974.166v2.069a1.25 1.25 0 1 1-2.5 0v-1.642l-.827.141c-.733.125-1.41.24-1.942.25-.539.01-1.367-.075-1.892-.849-.526-.774-.326-1.615-.137-2.14.18-.5.494-1.099.838-1.747M20.59 7.65l-.028.122c-.043.202-.088.439-.144.735l-.1.53c-.106.559-.181.964-.225 1.27.384-.049.774.099 1.039.407.325.377.398.922.185 1.378l-.555 1.187c-.241.517-.419.9-.542 1.196l.032-.006a1.18 1.18 0 0 1 1.192.496c.272.392.303.91.079 1.334l-.804 1.519a33 33 0 0 0-.592 1.149 31 31 0 0 0 1.239-.196l4.134-.705c.537-.092.934-.161 1.234-.226a32 32 0 0 0-.913-.893l-1.5-1.432a1.28 1.28 0 0 1-.353-1.226c.109-.446.444-.793.872-.904q.16-.042.29-.08a32 32 0 0 0-.989-.83l-1.659-1.363a1.27 1.27 0 0 1-.45-1.107 1.25 1.25 0 0 1 .655-.99l.141-.074a30 30 0 0 0-1.043-.616l-.454-.26a29 29 0 0 0-.741-.415"/><path d="M8.895 11.95a1.25 1.25 0 0 1-.855-1.514 1.26 1.26 0 0 1 1.497-.902l.067.015.193.048a18.5 18.5 0 0 1 2.71.929c.739.327 1.556.766 2.209 1.338.642.562 1.286 1.4 1.286 2.513 0 1.023-.46 1.764-1.069 2.278-.512.433-1.154.72-1.61.923l-.061.027c-.542.242-.865.397-1.079.578-.14.117-.18.195-.181.359 0 0 .015.098.15.313.15.236.39.526.728.859.673.665 1.604 1.38 2.58 2.053a49 49 0 0 0 3.802 2.344l.072.04a1.26 1.26 0 0 1 .516 1.7c-.328.607-1.1.827-1.708.498l-.084-.046-.264-.147a49 49 0 0 1-3.753-2.33c-1.023-.705-2.091-1.517-2.917-2.333-.413-.407-.797-.846-1.085-1.303-.28-.442-.537-1.007-.537-1.64 0-.624.171-1.144.443-1.57q-.362.114-.71.226c-1.154.374-2.185.749-2.918 1.176-.797.465-.817.738-.817.764 0 1.001.718 2.226 1.695 3.354a15.3 15.3 0 0 0 1.795 1.747l.028.023c.543.425.642 1.213.217 1.757a1.26 1.26 0 0 1-1.765.207l-.05-.04-.143-.118a18 18 0 0 1-1.972-1.938C4.282 22.955 3 21.123 3 19.145c0-1.465 1.13-2.384 2.058-2.925.992-.578 2.26-1.023 3.407-1.394q.48-.155.927-.296c.826-.26 1.555-.491 2.146-.734a6 6 0 0 0 .502-.23 2 2 0 0 0-.1-.1c-.27-.253-.679-.514-1.157-.757a12 12 0 0 0-1.856-.75L8.9 11.95z"/></svg>