<svg xmlns="http://www.w3.org/2000/svg" viewBox="0 0 16 16"><path fill-rule="evenodd" d="M13 4.766c0 1.867-.846 2.607-2.585 2.607H8.5V2.005h1.915c1.739 0 2.585.88 2.585 2.761M9.75 6.308h.665c.885 0 1.285-.333 1.285-1.247v-.597c0-.87-.4-1.394-1.284-1.394H9.75z"/><path d="M4.532 5.832c.015.446.264.635.763.635.491 0 .74-.144.74-.567v-.181c0-.386-.241-.552-.725-.552h-.476v-.96h.476c.363 0 .544-.189.544-.506v-.166c0-.318-.196-.469-.559-.469-.362 0-.597.106-.627.567h-1.33c.015-1.194.839-1.572 1.942-1.572 1.149 0 1.867.446 1.867 1.368 0 .567-.28.997-.9 1.186.703.159 1.081.567 1.081 1.24 0 1.035-.657 1.624-2.033 1.624-1.315 0-2.078-.438-2.1-1.647zM2.383 13.96a.75.75 0 0 1-.959-.454l-.052-.155a9 9 0 0 1-.111-.38 7.5 7.5 0 0 1-.227-1.185 8 8 0 0 1-.03-.54L1 11c0-.386.05-.811.388-1.223.411-.5.925-.589 1.366-.664a7 7 0 0 1 .535-.077 7.5 7.5 0 0 1 1.206-.01c.162.01.395.034.395.034l.162.02a.75.75 0 0 1 .633.852c-.1.683-.666.638-1.158.6l-.131-.01a6 6 0 0 0-.932.004l.04.028c.42.29 1.003.661 1.664.989.418.206.873.396 1.306.559 1.275.481 1.777.481 3.052 0a15 15 0 0 0 1.306-.56 13.5 13.5 0 0 0 1.664-.988l.04-.028a6 6 0 0 0-1.063.006c-.492.038-1.057.083-1.158-.6a.75.75 0 0 1 .633-.851l.162-.02s.233-.025.395-.036c.32-.021.76-.033 1.206.011q.27.029.535.077c.441.075.955.163 1.366.664.337.412.388.837.388 1.223q0 .127-.004.247-.006.27-.03.54a7.5 7.5 0 0 1-.226 1.185 9 9 0 0 1-.164.534.75.75 0 0 1-.96.454c-.649-.233-.494-.778-.36-1.253l.035-.127c.067-.248.139-.562.175-.874l-.115.08c-.46.32-1.108.732-1.854 1.101-.476.235-.98.444-1.441.618l-.05.02c-1.493.563-2.519.563-4.011 0l-.05-.02a16 16 0 0 1-1.442-.618 15 15 0 0 1-1.969-1.181 6 6 0 0 0 .21 1.001c.134.475.289 1.02-.36 1.253"/></svg>