<svg xmlns="http://www.w3.org/2000/svg" viewBox="0 0 24 24"><path fill-rule="evenodd" d="M19.215 7.11c0 2.778-1.26 3.88-3.847 3.88H12.5V3h2.868c2.587 0 3.847 1.31 3.847 4.11m-4.837 2.295h.99c1.316 0 1.912-.495 1.912-1.856V6.66c0-1.293-.596-2.074-1.912-2.074h-.99z"/><path d="M6.838 8.696c.022.663.394.945 1.136.945.731 0 1.102-.214 1.102-.844v-.27c0-.574-.36-.821-1.08-.821h-.708V6.277h.709c.54 0 .81-.28.81-.753v-.248c0-.472-.293-.697-.833-.697s-.889.158-.934.844H5.06c.023-1.778 1.25-2.34 2.892-2.34 1.71 0 2.778.664 2.778 2.036 0 .844-.416 1.485-1.339 1.766C10.437 7.12 11 7.728 11 8.729c0 1.541-.979 2.419-3.026 2.419-1.957 0-3.093-.653-3.127-2.452zm-2.34 11.178v-.003a10 10 0 0 1-.182-.604 9 9 0 0 1-.276-1.433 7 7 0 0 1-.02-.25q.148.113.322.24c.66.483 1.59 1.109 2.66 1.669.614.321 1.248.603 1.89.866 1.141.467 1.903.777 3.107.78s1.986-.301 3.13-.762a22 22 0 0 0 1.947-.884 21 21 0 0 0 2.9-1.847q-.007.095-.017.188c-.05.51-.167 1.03-.276 1.433-.08.298-.153.52-.182.604v.003a1.002 1.002 0 1 0 1.887.642h.007a13 13 0 0 0 .22-.728c.124-.46.27-1.096.335-1.757.026-.264.037-.53.044-.795q.008-.225.006-.458c-.009-.543-.098-1.113-.553-1.669-.586-.715-1.313-.84-1.978-.954a11 11 0 0 0-.789-.113 11 11 0 0 0-1.789-.016 12 12 0 0 0-.756.073l.001.004a1.002 1.002 0 0 0 .186 1.987c.136 0 .274-.018.412-.036q.146-.021.29-.032a9 9 0 0 1 1.46.01q.132.014.267.033l-.196.145a19 19 0 0 1-2.406 1.51c-.54.283-1.129.544-1.701.775-1.202.484-1.655.647-2.443.645-.789-.003-1.221-.168-2.422-.66a20 20 0 0 1-1.654-.76 19 19 0 0 1-2.614-1.664l.201-.024a9 9 0 0 1 1.46-.01c.096.006.193.02.29.032.137.018.275.036.412.036a1.002 1.002 0 0 0 .185-1.987l.001-.004a12 12 0 0 0-.756-.073 11 11 0 0 0-1.789.016 11 11 0 0 0-.788.113c-.665.114-1.392.24-1.978.954-.456.556-.545 1.126-.553 1.669-.003.155.002.308.006.458.007.265.017.53.044.795.065.66.21 1.297.335 1.757.095.35.18.611.22.727l.005.002a1.002 1.002 0 1 0 1.888-.643"/></svg>