<svg xmlns="http://www.w3.org/2000/svg" viewBox="0 0 16 16"><path fill-rule="evenodd" d="M5.513 1.039a.75.75 0 0 1 .949.474l.35 1.05c.16-.019.336-.03.54-.043a10 10 0 0 1 1.296 0c.204.013.38.024.54.044l.35-1.051a.75.75 0 0 1 1.423.474l-.443 1.33c.36.437.388.823.44 1.507a16 16 0 0 1 .036 1.614q.147.1.3.249a.75.75 0 1 1-1.05 1.07h-.002c-.107-.105-.19-.118-.34-.14a12 12 0 0 0-.48-.05 15.4 15.4 0 0 0-3.323.05c-.257.036-.436.149-.48.416-.015.104-.03.226-.05.42-.041.364-.069.797-.069 1.297a12 12 0 0 0 .12 1.717c.043.268.222.38.479.415a16 16 0 0 0 1.153.098.75.75 0 0 1 0 1.5q-.432-.018-.814-.054c-.816-.076-1.224-.114-1.731-.613a2 2 0 0 1-.366-.465l-.969.553a.75.75 0 0 1-.744-1.302l1.41-.806q-.028-.368-.036-.793H2.75a.75.75 0 1 1 0-1.5h1.306l.021-.213c.022-.196.04-.366.067-.52l-1.516-.866A.75.75 0 0 1 3.372 5.6l1.56.891.074-.053a17 17 0 0 1 .036-1.613c.052-.684.08-1.07.44-1.507l-.444-1.33a.75.75 0 0 1 .475-.948M6.5 6.07a17 17 0 0 1 3 0 16 16 0 0 0-.038-1.133 10 10 0 0 0-.04-.45c-.031-.25-.182-.406-.43-.435a10 10 0 0 0-.441-.035 9 9 0 0 0-1.102 0 10 10 0 0 0-.44.035c-.25.029-.4.185-.431.435A14 14 0 0 0 6.5 6.068"/><path fill-rule="evenodd" d="M13.717 12.657a2.5 2.5 0 1 0-1.06 1.06l.563.564a.75.75 0 1 0 1.06-1.061zM11.5 12.5a1 1 0 1 0 0-2 1 1 0 0 0 0 2"/></svg>