<svg xmlns="http://www.w3.org/2000/svg" viewBox="0 0 24 24"><g fill-rule="evenodd" clip-rule="evenodd"><path d="M9.894 2.553a1 1 0 0 0-1.788.894l.772 1.545c-.723.755-.76 1.348-.832 2.483a24 24 0 0 0-.043 1.914 2.6 2.6 0 0 0-.846.539L5.015 8.643a1 1 0 0 0-1.03 1.715L6.2 11.686c-.034.214-.06.45-.09.718q-.03.284-.055.596H4a1 1 0 1 0 0 2h2.006q.02.754.082 1.381l-2.102 1.262a1 1 0 0 0 1.028 1.715l1.571-.943c.117.181.268.363.468.559.763.75 1.373.805 2.594.917q.63.06 1.353.088a1 1 0 1 0 0-2s-1.028-.066-1.17-.08c-.317-.029-.538-.05-.727-.075-.85-.115-.923-.704-1.004-1.446A17 17 0 0 1 8 14.5a17 17 0 0 1 .176-2.505c.08-.501.445-.753.927-.819.19-.026.41-.046.727-.075a23.7 23.7 0 0 1 4.34 0c.317.029.537.05.727.075.165.023.353.039.492.14a1 1 0 1 0 1.107-1.665 2.4 2.4 0 0 0-.499-.262 26 26 0 0 0-.043-1.914c-.072-1.135-.109-1.728-.832-2.483l.772-1.545a1 1 0 1 0-1.788-.894l-.756 1.511a12 12 0 0 0-.817-.052 12 12 0 0 0-1.065 0c-.31.013-.577.025-.818.052zM12 9c-.716 0-1.39.032-2 .08V9a22 22 0 0 1 .095-2.09c.051-.447.363-.818.825-.863.157-.016.342-.024.634-.037a10 10 0 0 1 .892 0c.292.013.477.021.634.037.462.045.774.416.825.864.02.174.033.38.053.69q.04.622.042 1.4v.078A26 26 0 0 0 12 9"/><path d="M17 21c.742 0 1.436-.202 2.032-.554l1.26 1.261a1 1 0 0 0 1.415-1.414l-1.26-1.261A4 4 0 1 0 17 21m0-2a2 2 0 1 0 0-4 2 2 0 0 0 0 4"/></g></svg>