<svg xmlns="http://www.w3.org/2000/svg" viewBox="0 0 24 24"><path d="M18.332 18H5.668c.36-1.947.782-4.023 1.202-6h10.26c.42 1.977.843 4.053 1.202 6M8.57 4.402A415 415 0 0 0 7.302 10h9.396c-.492-2.25-.951-4.246-1.267-5.599-.21-.897-.315-1.345-.754-1.75-.44-.406-.787-.458-1.48-.561a8.1 8.1 0 0 0-2.393 0c-.694.104-1.04.155-1.48.56-.44.406-.544.855-.754 1.752M3 22h18c-.051-.496-.173-.841-.537-1.213-.53-.54-1.134-.572-2.342-.637-1.436-.077-3.486-.15-6.122-.15s-4.684.073-6.12.15c-1.209.065-1.813.098-2.342.637-.365.372-.486.717-.537 1.213"/></svg>