<svg xmlns="http://www.w3.org/2000/svg" viewBox="0 0 16 16"><path d="M5.75 7.25a.75.75 0 0 0 0 1.5h4.5a.75.75 0 1 0 0-1.5z"/><path fill-rule="evenodd" d="M2.04 6.816c.118-1.822.178-2.733 1.11-3.665s1.843-.992 3.665-1.11c.389-.025.787-.04 1.185-.04s.796.015 1.185.04c1.822.118 2.733.178 3.665 1.11s.992 1.843 1.11 3.665c.025.389.04.787.04 1.185s-.015.796-.04 1.185c-.118 1.822-.178 2.733-1.11 3.665s-1.843.992-3.665 1.11c-.389.025-.787.04-1.185.04s-.796-.015-1.185-.04c-1.822-.118-2.733-.178-3.665-1.11s-.992-1.843-1.11-3.665Q2.001 8.601 2 8.001c-.001-.6.015-.796.04-1.185m4.872-3.278Q7.457 3.5 8 3.5t1.088.037c1.916.124 2.229.2 2.702.674.472.472.549.785.673 2.701Q12.5 7.457 12.5 8q-.001.543-.037 1.088c-.124 1.916-.2 2.229-.673 2.701-.473.473-.786.55-2.702.674A17 17 0 0 1 8 12.501q-.543 0-1.088-.037c-1.916-.124-2.229-.2-2.701-.674-.473-.472-.55-.785-.674-2.701A17 17 0 0 1 3.5 8q0-.543.037-1.088c.124-1.916.2-2.229.674-2.701.472-.473.785-.55 2.701-.674"/></svg>