<svg xmlns="http://www.w3.org/2000/svg" viewBox="0 0 32 32"><path fill-rule="evenodd" d="M14.097 12.16c.063.087.126.182.252.372.1.152.151.228.202.298.553.75 1.357 1.206 2.218 1.257.08.004.164.004.332.004h1.318c2.57 0 3.854 0 4.966 1.165.044.046.118.128.16.176 1.05 1.236 1.072 2.418 1.116 4.783q.006.294.006.6a17 17 0 0 1-.388 3.573c-.252 1.164-.378 1.747-1.442 2.83-1.063 1.084-1.677 1.179-2.906 1.367-1.473.226-3.485.415-6.098.415-1.81 0-3.38-.09-4.702-.221-2.215-.22-3.322-.329-4.519-1.688-1.196-1.36-1.29-2.628-1.48-5.166A47 47 0 0 1 3 18.477c0-1.06.08-2.046.203-2.937.263-1.9.394-2.85 1.48-3.903s2.21-1.053 4.458-1.053h1.77c.209 0 .314 0 .413.006 1.077.063 2.082.633 2.773 1.571"/><path d="M18.683 4.949c-.126-.19-.19-.285-.253-.372-.69-.939-1.695-1.508-2.772-1.571C15.558 3 15.453 3 15.243 3h-1.768c-2.249 0-3.373 0-4.459 1.053S7.8 6.056 7.536 7.956q-.03.225-.059.46h5.6c.21 0 .314 0 .414.006 1.077.063 2.082.633 2.772 1.571.064.087.127.182.253.373.1.152.15.228.202.297.552.751 1.356 1.207 2.218 1.257.08.005.163.005.331.005h1.319c2.57 0 3.854 0 4.966 1.165.044.046.117.127.159.176 1.051 1.235 1.073 2.418 1.117 4.782 0 .05.002.81.002 1.914q.164-.146.34-.327c1.065-1.084 1.19-1.666 1.443-2.83A17 17 0 0 0 29 13.232q0-.306-.006-.6c-.043-2.365-.065-3.547-1.117-4.783a5 5 0 0 0-.158-.176c-1.112-1.165-2.397-1.165-4.967-1.165h-1.318c-.168 0-.252 0-.332-.005-.861-.05-1.665-.506-2.217-1.257a8 8 0 0 1-.203-.297"/></svg>