<svg xmlns="http://www.w3.org/2000/svg" viewBox="0 0 24 24"><path fill-rule="evenodd" d="M14.376 3.336a10 10 0 0 0-.186-.255 2.8 2.8 0 0 0-2.049-1.077C12.068 2 11.991 2 11.835 2h-1.307c-1.66 0-2.491 0-3.294.722s-.9 1.373-1.094 2.676a.713.713 0 0 0 .718.811h.376c.303 0 .556-.23.6-.532.107-.71.157-.994.23-1.2.038-.105.083-.202.285-.384.134-.12.243-.18.492-.223.344-.06.804-.066 1.687-.066h1.307l.218.001c.318.018.615.174.82.431l.131.182.004.006.01.015c.06.083.123.172.19.256a3.94 3.94 0 0 0 3.177 1.514h.999c1.003 0 1.552.005 1.96.076.311.054.425.127.544.243l.007.006.018.019.017.018.005.005c.164.179.212.29.25.48.063.303.079.713.096 1.585q.004.184.004.374c0 .749-.1 1.434-.237 2.02-.103.442-.13.522-.163.588a1 1 0 0 1-.05.08c-.183.256-.335.54-.337.855l-.002.196c-.005.69.652 1.124 1.152.652.786-.744.88-1.143 1.066-1.941A10.8 10.8 0 0 0 22 9.015q0-.21-.004-.411c-.032-1.622-.049-2.432-.825-3.28l-.118-.12c-.821-.799-1.77-.799-3.67-.799h-.974c-.124 0-.186 0-.244-.003a2.25 2.25 0 0 1-1.64-.862c-.037-.047-.074-.1-.149-.204m-4.018 6.95c.074.108.111.162.149.212.407.534.999.858 1.633.894.059.003.12.003.244.003h.971c1.892 0 2.839 0 3.657.829.033.032.087.09.117.125.774.879.79 1.72.823 3.402q.004.21.004.427c0 .95-.121 1.812-.285 2.541-.186.829-.279 1.243-1.062 2.014s-1.236.838-2.14.972c-1.085.16-2.567.295-4.491.295a37 37 0 0 1-3.463-.157c-1.631-.156-2.447-.234-3.328-1.201s-.95-1.87-1.09-3.674A32 32 0 0 1 2 14.514c0-.755.059-1.456.15-2.089.193-1.352.29-2.028 1.09-2.777.8-.748 1.627-.748 3.283-.748h1.302c.155 0 .232 0 .305.004.793.044 1.533.45 2.042 1.117.047.062.093.13.186.265M8.99 11.409a6 6 0 0 0-.131-.19 1.11 1.11 0 0 0-.817-.446 5 5 0 0 0-.217-.002H6.523c-.88 0-1.34.006-1.682.068-.248.045-.357.107-.49.232-.202.188-.246.29-.284.399-.073.213-.123.507-.229 1.245a13 13 0 0 0-.128 1.799c0 .803.035 1.579.09 2.296.075.962.119 1.442.212 1.809.065.26.152.444.386.701.236.26.404.354.636.425.329.102.759.15 1.63.233.925.088 2.032.15 3.314.15 1.851 0 3.257-.129 4.261-.278.498-.073.641-.103.757-.15.064-.025.19-.082.47-.359.305-.3.366-.424.382-.458.032-.069.06-.151.163-.61a9.6 9.6 0 0 0 .236-2.095q0-.198-.004-.388c-.018-.905-.033-1.33-.095-1.645a.9.9 0 0 0-.25-.497v-.001l-.005-.005-.018-.02-.017-.018-.006-.006c-.12-.12-.233-.197-.543-.253-.406-.073-.954-.079-1.954-.079h-.995q-.15.001-.308-.005c-1.11-.063-2.146-.63-2.858-1.565-.067-.088-.13-.18-.189-.266l-.01-.016z"/></svg>