<svg xmlns="http://www.w3.org/2000/svg" viewBox="0 0 16 16"><path fill-rule="evenodd" d="M9.762 1.952a5 5 0 0 0-.128-.181 1.91 1.91 0 0 0-1.408-.768C8.176 1 8.122 1 8.016 1h-.898c-1.142 0-1.712 0-2.264.515-.55.514-.618.978-.751 1.907A.51.51 0 0 0 4.619 4h.22a.44.44 0 0 0 .428-.379c.073-.507.107-.708.158-.855.026-.075.057-.145.196-.274a.57.57 0 0 1 .337-.16c.237-.042.553-.046 1.16-.046h1.048a.77.77 0 0 1 .562.308c.009.01.02.026.091.13l.003.004.007.01q.06.091.13.183c.491.642 1.205 1.032 1.97 1.075q.11.005.213.004h.686c.69 0 1.067.004 1.347.054.214.039.292.09.374.173l.005.005.012.013.012.013.003.003v.002a.62.62 0 0 1 .173.34c.042.217.053.509.065 1.13L13.82 6a6.6 6.6 0 0 1-.162 1.44c-.071.315-.09.372-.112.419-.012.023-.053.108-.264.314-.16.157-.283.37-.283.594v.076c0 .46.44.81.801.527q.127-.1.27-.24c.54-.53.604-.815.732-1.384a8 8 0 0 0 .194-2.04c-.022-1.155-.033-1.732-.567-2.336l-.08-.086c-.565-.57-1.217-.57-2.522-.57h-.67c-.085 0-.127 0-.167-.002a1.53 1.53 0 0 1-1.127-.614l-.102-.146M6.634 6.771c.032.042.064.088.128.181.051.075.077.112.103.146a1.53 1.53 0 0 0 1.294.616h.669c1.305 0 1.957 0 2.522.57.022.022.059.062.08.086.534.604.545 1.181.567 2.337Q12 10.85 12 11c0 .653-.084 1.245-.197 1.746-.128.57-.192.854-.732 1.383-.54.53-.851.576-1.475.668-.748.11-1.77.203-3.096.203-.919 0-1.716-.044-2.387-.108-1.125-.107-1.687-.16-2.294-.825-.608-.664-.656-1.284-.752-2.524A22 22 0 0 1 1 9.857c0-.518.04-1 .103-1.435.133-.929.2-1.393.751-1.908C2.406 6 2.976 6 4.118 6h.898a1.91 1.91 0 0 1 1.618.77m-.815.953-.09-.13a.77.77 0 0 0-.564-.307l-.15-.001h-.897c-.607 0-.923.004-1.16.047a.57.57 0 0 0-.337.159c-.14.13-.17.199-.196.274-.05.147-.085.348-.158.855-.054.376-.088.79-.088 1.236 0 .552.024 1.085.063 1.578.05.66.08.99.145 1.242a1 1 0 0 0 .266.482c.163.178.279.243.438.292.227.07.524.103 1.124.16.638.06 1.401.103 2.285.103 1.276 0 2.245-.088 2.938-.19.343-.051.441-.072.522-.104.043-.017.13-.057.323-.247.21-.206.253-.291.264-.314.022-.047.041-.104.112-.42a6.6 6.6 0 0 0 .16-1.705c-.012-.622-.023-.914-.066-1.13a.62.62 0 0 0-.171-.342h-.001l-.003-.004-.012-.013-.013-.013-.004-.005c-.082-.082-.16-.134-.374-.173C9.895 9.004 9.517 9 8.828 9h-.686q-.103.001-.212-.004c-.766-.043-1.48-.433-1.97-1.075a4 4 0 0 1-.13-.182l-.008-.011z"/></svg>