<svg xmlns="http://www.w3.org/2000/svg" viewBox="0 0 32 32"><path fill-rule="evenodd" d="M15.513 3h-1.362c-1.6 0-2.477 0-3.391.443-.526.255-1.227.83-1.577 1.294-.607.806-.73 1.475-.95 2.684l-.006.027q-.075.406-.135.837c-.035.245-.052.367-.037.493.044.376.34.725.704.829.122.035.26.038.535.044s.413.008.519-.013a.94.94 0 0 0 .72-.608c.04-.101.063-.252.108-.555q.045-.295.097-.581c.117-.642.188-.985.257-1.208.064-.207.125-.303.237-.452a2.2 2.2 0 0 1 .307-.292c.142-.117.277-.21.348-.245.284-.138.507-.185 2.317-.185h1.31c.523 0 1.018.23 1.35.623a5.3 5.3 0 0 0 2.082 1.508 5.4 5.4 0 0 0 2.037.396h1.153c1.185 0 1.864.017 2.294.06.419.042.578.107.732.198.05.03.136.093.226.168.09.074.168.146.206.19.134.151.217.27.308.565.096.313.196.807.353 1.708.12.692.194 1.365.194 1.92q0 .47-.037.95c-.077 1.035-.121 1.468-.23 1.815-.043.136-.285.463-.477.71a1.13 1.13 0 0 0-.243.695v.28c0 1.107 1.092 1.815 1.877 1.035.688-.685 1.063-1.288 1.28-1.978.21-.67.266-1.413.335-2.35l.002-.023Q29 13.421 29 12.85c0-.743-.09-1.54-.226-2.32l-.008-.048c-.288-1.654-.447-2.568-1.246-3.473-.26-.296-.7-.66-1.041-.862-1.042-.619-2.184-.619-4.268-.619h-1.228a2.82 2.82 0 0 1-2.156-.996A4.33 4.33 0 0 0 15.513 3m-6.267 8.83h1.362c1.28 0 2.495.56 3.313 1.531a2.82 2.82 0 0 0 2.157.996h1.228c2.083 0 3.226 0 4.267.619.341.202.78.566 1.042.862.798.905.957 1.82 1.245 3.473l.008.049c.136.78.226 1.576.226 2.319q-.001.572-.043 1.133l-.002.023c-.07.938-.125 1.68-.336 2.35-.216.69-.592 1.293-1.28 1.978-.69.687-1.322 1.064-2.062 1.288-.72.218-1.537.287-2.578.376l-.022.002a50 50 0 0 1-4.224.171c-1.465 0-2.757-.056-3.878-.143l-.022-.002c-1.094-.084-1.95-.15-2.697-.363-.766-.218-1.414-.587-2.111-1.265s-1.08-1.315-1.31-2.074c-.225-.74-.301-1.591-.399-2.678l-.002-.023A32 32 0 0 1 3 19.657c0-1.197.133-2.349.322-3.378l.005-.028c.221-1.21.343-1.877.95-2.684.35-.463 1.051-1.039 1.577-1.294.914-.443 1.792-.443 3.392-.443m.052 2.512c-1.81 0-2.033.048-2.317.185a2.2 2.2 0 0 0-.348.245c-.143.117-.26.23-.307.293a1.3 1.3 0 0 0-.236.45c-.07.224-.14.567-.258 1.21a16.4 16.4 0 0 0-.281 2.932c0 .896.046 1.764.118 2.575.106 1.181.167 1.753.303 2.202.098.32.24.598.66 1.005.422.412.706.549 1.026.64.45.127 1.02.182 2.21.273a48 48 0 0 0 3.68.136c1.543 0 2.878-.066 4.003-.162 1.137-.097 1.659-.152 2.07-.277.286-.086.564-.22 1-.654.459-.457.583-.722.655-.951.109-.348.153-.781.23-1.816q.037-.48.037-.95c0-.555-.073-1.228-.193-1.92-.158-.9-.257-1.395-.354-1.708a1.3 1.3 0 0 0-.307-.565 2 2 0 0 0-.206-.19 2 2 0 0 0-.227-.168c-.153-.09-.313-.156-.732-.198-.43-.043-1.109-.06-2.293-.06h-1.153a5.4 5.4 0 0 1-2.41-.563 5.3 5.3 0 0 1-1.71-1.34 1.76 1.76 0 0 0-1.35-.623z"/></svg>