<svg xmlns="http://www.w3.org/2000/svg" viewBox="0 0 24 24"><path fill-rule="evenodd" d="M10.536 9.046c.049.067.097.14.194.286.078.117.116.176.156.23.425.577 1.043.927 1.706.966.06.004.125.004.255.004h1.014c1.976 0 2.965 0 3.82.896.034.035.09.098.122.135.809.95.826 1.86.86 3.68q.003.226.004.46c0 1.029-.127 1.96-.298 2.75-.194.895-.291 1.343-1.11 2.177-.818.833-1.29.906-2.235 1.05-1.133.175-2.681.32-4.69.32-1.393 0-2.6-.07-3.618-.17-1.704-.169-2.556-.253-3.476-1.299s-.993-2.021-1.138-3.973A36 36 0 0 1 2 13.905c0-.816.061-1.575.156-2.26.202-1.461.303-2.192 1.139-3.002.835-.81 1.7-.81 3.429-.81h1.36c.162 0 .243 0 .32.005.828.048 1.6.486 2.132 1.208"/><path d="M14.064 3.5a7 7 0 0 0-.195-.287c-.531-.722-1.304-1.16-2.132-1.209C11.66 2 11.579 2 11.418 2h-1.36c-1.73 0-2.595 0-3.43.81s-.936 1.54-1.139 3.002l-.045.355h4.307c.162 0 .242 0 .319.004.828.049 1.601.487 2.133 1.209.049.066.097.14.194.286.077.117.116.175.155.229.425.577 1.044.928 1.706.966.062.004.126.004.255.004h1.014c1.977 0 2.965 0 3.82.896a4 4 0 0 1 .123.136c.808.95.825 1.86.86 3.678l.001 1.473q.125-.112.262-.252c.818-.833.915-1.281 1.11-2.177.17-.789.297-1.72.297-2.749q0-.234-.004-.461c-.034-1.82-.05-2.728-.86-3.679a4 4 0 0 0-.122-.135c-.855-.897-1.843-.897-3.82-.897H16.18c-.13 0-.194 0-.255-.003-.663-.039-1.281-.39-1.706-.967a6 6 0 0 1-.155-.229"/></svg>