<svg xmlns="http://www.w3.org/2000/svg" viewBox="0 0 32 32"><path fill-rule="evenodd" d="M4.208 12q-.048.577-.095 1.23A38 38 0 0 0 4.005 16c0 .933.04 1.865.108 2.77q.048.653.095 1.23H3.25a1.25 1.25 0 1 0 0 2.5h1.277c.271 1.288.743 2.27 1.726 3.252 1.75 1.75 3.494 1.88 6.982 2.14.904.067 1.837.108 2.77.108s1.865-.04 2.77-.108c3.487-.26 5.231-.39 6.982-2.14 1.75-1.75 1.88-3.494 2.14-6.982.067-.905.108-1.837.108-2.77s-.041-1.865-.108-2.77c-.26-3.488-.39-5.232-2.14-6.982s-3.495-1.88-6.983-2.14A38 38 0 0 0 16.004 4c-.932 0-1.865.04-2.769.108-3.488.26-5.232.39-6.982 2.14-.983.983-1.455 1.964-1.726 3.252H3.25a1.25 1.25 0 1 0 0 2.5zm11.797-3.001a4.501 4.501 0 1 0 0 9.002 4.501 4.501 0 0 0 0-9.002m1.132 11.03c2.092.104 4.15.6 7.968 1.568-.198 1.229-.489 1.76-1.116 2.387-.992.992-1.744 1.143-5.4 1.415a35 35 0 0 1-2.584.101 35 35 0 0 1-2.584-.101c-3.656-.272-4.408-.423-5.4-1.415-.628-.627-.918-1.158-1.116-2.387 3.822-.968 5.881-1.465 7.973-1.569a23 23 0 0 1 2.26 0"/></svg>