<svg xmlns="http://www.w3.org/2000/svg" viewBox="0 0 16 16"><path fill-rule="evenodd" d="m2.097 6.003-.047.612A19 19 0 0 0 1.996 8c0 .466.02.933.054 1.385l.048.618h-.343a.75.75 0 1 0 0 1.5h.563c.143.524.377.948.802 1.373.875.875 1.747.94 3.491 1.07.452.034.919.054 1.385.054.467 0 .933-.02 1.385-.054 1.744-.13 2.616-.195 3.491-1.07s.94-1.747 1.07-3.491c.034-.452.054-.919.054-1.385s-.02-.933-.054-1.385c-.13-1.744-.195-2.616-1.07-3.491s-1.747-.94-3.491-1.07A19 19 0 0 0 7.996 2c-.466 0-.933.02-1.385.054-1.744.13-2.616.195-3.49 1.07a2.9 2.9 0 0 0-.804 1.379H1.75a.75.75 0 1 0 0 1.5zM7.997 5a2 2 0 1 0 0 4 2 2 0 0 0 0-4m4.305 5.736c-1.754-.443-2.739-.67-3.74-.72a11 11 0 0 0-1.129 0c-1 .05-1.986.277-3.743.72.094.6.222.81.49 1.078.421.42.698.498 2.543.635.421.031.85.05 1.273.05.424 0 .852-.019 1.274-.05 1.844-.137 2.121-.214 2.542-.635.268-.268.397-.479.49-1.078"/></svg>