<svg xmlns="http://www.w3.org/2000/svg" viewBox="0 0 24 24"><path fill-rule="evenodd" d="M3.148 9q-.035.433-.07.923C3.026 10.6 2.995 11.3 2.995 12s.03 1.399.081 2.077q.036.49.071.923H1.996a1 1 0 1 0 0 2h1.42c.207.906.561 1.609 1.266 2.314 1.313 1.313 2.62 1.41 5.237 1.605.678.05 1.378.081 2.077.081s1.4-.03 2.077-.081c2.616-.195 3.924-.292 5.237-1.605s1.41-2.62 1.605-5.237c.05-.678.081-1.377.081-2.077s-.03-1.399-.081-2.077c-.195-2.616-.292-3.924-1.605-5.237s-2.62-1.41-5.237-1.605A28 28 0 0 0 11.996 3c-.7 0-1.399.03-2.077.081-2.616.195-3.924.292-5.237 1.605-.705.705-1.06 1.409-1.267 2.314H1.996a1 1 0 0 0 0 2zm8.848-2.501a3.501 3.501 0 1 0 0 7.002 3.501 3.501 0 0 0 0-7.002m6.703 9.668c-2.786-.705-4.307-1.064-5.853-1.141a17 17 0 0 0-1.695 0c-1.546.076-3.069.436-5.858 1.141.146.914.355 1.285.803 1.733.706.706 1.221.82 3.971 1.024a26 26 0 0 0 1.93.076c.641 0 1.29-.028 1.928-.076 2.75-.204 3.265-.318 3.97-1.024.449-.448.659-.82.804-1.733"/></svg>