<svg xmlns="http://www.w3.org/2000/svg" viewBox="0 0 28 28"><path d="M9.72 11.5a4.28 4.28 0 1 1 8.56 0 4.28 4.28 0 0 1-8.56 0"/><path fill-rule="evenodd" d="M5.06 5.06C4.17 5.95 3.738 6.84 3.489 8H2a1 1 0 1 0 0 2h1.214q-.058.67-.115 1.461c-.062.83-.1 1.684-.1 2.539.001.855.038 1.71.1 2.539.04.528.075 1.013.115 1.461H2a1 1 0 1 0 0 2h1.488c.25 1.16.682 2.05 1.573 2.94 1.604 1.604 3.203 1.723 6.4 1.96.829.063 1.684.1 2.539.1s1.71-.037 2.539-.1c3.197-.237 4.796-.356 6.4-1.96s1.724-3.204 1.962-6.401c.062-.83.099-1.684.099-2.539s-.037-1.71-.1-2.539c-.237-3.197-.356-4.796-1.96-6.4s-3.204-1.724-6.401-1.962C15.709 3.037 14.855 3 14 3s-1.71.037-2.539.1c-3.197.237-4.796.356-6.4 1.96M14 5c-.798 0-1.602.035-2.39.094-3.332.248-4.137.383-5.135 1.38-.998.999-1.134 1.804-1.381 5.136A32 32 0 0 0 5 14c0 .798.035 1.602.093 2.39.108 1.45.195 2.42.34 3.137 3.65-.925 5.576-1.404 7.534-1.501a21 21 0 0 1 2.071 0c1.959.098 3.883.576 7.529 1.501.145-.717.232-1.688.34-3.137.058-.788.093-1.592.093-2.39s-.035-1.602-.094-2.39c-.248-3.332-.383-4.137-1.38-5.135-.999-.998-1.804-1.133-5.136-1.381A32 32 0 0 0 14 5"/></svg>