<svg xmlns="http://www.w3.org/2000/svg" viewBox="0 0 24 24"><path fill-rule="evenodd" d="M17.416.179 9.571 8.024a2.3 2.3 0 0 0-.565-.557C8.346 7 7.635 7 6.214 7h-.43c-1.42 0-2.131 0-2.792.467-.66.467-.847.997-1.222 2.056-.169.477-.31.982-.382 1.477H1.25a.75.75 0 0 0-.129 1.489c-.07.325-.121.703-.121 1.114v2.992l-.821.821q.22.48.477.938l.642-.642c.18.178.428.288.702.288h.423l-1.229 1.23q.282.42.596.818L5.337 16.5h1.456l-4.332 4.332q.34.367.707.707l5.039-5.038H9V17q0 .04.003.077l-5.097 5.097q.396.315.816.6l4.863-4.864q.191.089.415.09a1 1 0 0 0 1-1v-.505l2-2v1.414l-7.406 7.406q.456.258.933.48l6.513-6.512A1 1 0 0 0 15 17v-.5h2.999l3 .001V17a1 1 0 1 0 2 0v-3.393c0-.412-.05-.792-.121-1.118A.75.75 0 0 0 22.75 11h-.14c-.072-.495-.213-1-.381-1.477a13 13 0 0 0-.396-1.033l1.963-1.963q-.223-.478-.481-.933L21.248 7.66a3 3 0 0 0-.242-.193 2.2 2.2 0 0 0-.661-.317l2.428-2.428q-.285-.42-.6-.816l-3.098 3.1C18.819 7 18.535 7 18.213 7h-.505l3.831-3.832q-.34-.366-.707-.707l-4.58 4.58c-.51.051-.893.167-1.26.426-.66.467-.848.997-1.223 2.056v.001l-2.27 2.27v-.044a.75.75 0 0 0-.666-.745l9.215-9.215a13 13 0 0 0-.819-.596l-8.836 8.836a10 10 0 0 0-.164-.507q-.105-.299-.197-.546L18.354.656q-.458-.257-.938-.477M7.968 9.23c.03.054.069.136.124.273L6.59 11.004Q6.306 11 5.999 11c-1.06 0-1.922.039-2.598.09a7 7 0 0 1 .254-.9c.097-.273.167-.471.234-.64.064-.166.109-.26.14-.32a.4.4 0 0 1 .047-.071.4.4 0 0 1 .071-.059l.002-.002c.01-.009.04-.033.219-.057C4.644 9.004 5.024 9 5.785 9h.429c.76 0 1.14.004 1.417.04.179.025.208.05.218.058l.002.002a.4.4 0 0 1 .072.06.3.3 0 0 1 .045.07M11 13.708v1.372l2.03-2.03q.034-.3.091-.561a.75.75 0 0 1-.527-.375zM17.909 11q-.796.002-1.444.03L18.495 9c.577.002.896.009 1.136.04a.8.8 0 0 1 .194.044zm-2.369-.46 1.537-1.537a6 6 0 0 0-.71.038c-.178.024-.208.048-.218.057l-.002.002a.4.4 0 0 0-.071.059.4.4 0 0 0-.046.071 3 3 0 0 0-.142.32c-.066.168-.136.367-.233.64q-.063.18-.115.35m4.748-.505-.986.986q.736.025 1.295.068a6.5 6.5 0 0 0-.254-.899z"/></svg>