<svg xmlns="http://www.w3.org/2000/svg" viewBox="0 0 32 32"><path d="M11.865 10.458c.212.101.577.002 1.308-.197l1.575-.427v3.916a1.25 1.25 0 0 0 2.5 0V9.833l1.579.429c.73.198 1.096.297 1.308.196a.65.65 0 0 0 .358-.463c.046-.235-.135-.573-.497-1.249l-3.092-5.773c-.294-.55-.442-.825-.637-.916a.63.63 0 0 0-.534 0c-.195.091-.343.366-.637.915l-3.092 5.774c-.362.676-.543 1.014-.497 1.248.04.204.173.376.358.464m10.368 8.369.383-1.414c-2.355.217-3.019.456-3.852 1.29-.992.992-1.143 1.744-1.415 5.4a35 35 0 0 0-.1 2.584v.06c0 .692-.561 1.253-1.253 1.253a1.247 1.247 0 0 1-1.248-1.247v-.066c0-.933.04-1.866.108-2.77.26-3.488.39-5.232 2.14-6.982 1.523-1.523 3.04-1.82 5.704-2.041l-.467-1.72c-.199-.732-.298-1.097-.197-1.31a.65.65 0 0 1 .464-.357c.234-.046.572.135 1.248.497l5.774 3.092c.55.294.824.442.915.637a.63.63 0 0 1 0 .534c-.09.195-.366.343-.915.637l-5.774 3.092c-.676.362-1.014.543-1.248.497a.65.65 0 0 1-.464-.358c-.101-.212-.002-.577.197-1.308"/></svg>