<svg xmlns="http://www.w3.org/2000/svg" viewBox="0 0 17 17"><path d="M6.058 5.29c.126.056.341 0 .772-.111l.872-.226V6.64a.797.797 0 1 0 1.594 0V4.953l.872.226c.43.111.646.167.772.11a.37.37 0 0 0 .21-.26c.028-.132-.079-.322-.292-.702L9.032 1.079C8.86.77 8.772.616 8.657.565a.4.4 0 0 0-.316 0c-.115.05-.202.205-.376.514L6.14 4.327c-.213.38-.32.57-.293.702a.37.37 0 0 0 .211.26M11.82 6.83l.234.91c-1.665.126-2.542.234-3.423 1.115-.93.93-1 1.856-1.137 3.71-.036.48-.057.975-.057 1.47v.041a.797.797 0 1 0 1.593 0v-.04c0-.45.02-.906.053-1.353.146-1.96.228-2.254.674-2.7.412-.413.695-.515 2.276-.642l-.214.827c-.112.431-.167.647-.11.772a.37.37 0 0 0 .26.21c.132.028.322-.079.702-.292l3.248-1.825c.309-.174.463-.26.514-.376a.4.4 0 0 0 0-.316c-.05-.115-.205-.202-.514-.375L12.67 6.14c-.38-.214-.57-.32-.702-.293a.37.37 0 0 0-.26.21c-.057.126-.002.341.11.773"/></svg>