<svg xmlns="http://www.w3.org/2000/svg" viewBox="0 0 32 32"><path fill-rule="evenodd" d="M23.68 3.417a1.35 1.35 0 0 1 .242 1.608L19.346 13.5h3.46c1.047 0 1.77 1.2 1.098 2.135-.535.744-2.981 4.112-5 6.228-2.77 2.904-7.67 6.097-8.918 6.892a1.34 1.34 0 0 1-1.665-.172 1.35 1.35 0 0 1-.242-1.607l4.576-8.476H9.194c-1.047 0-1.77-1.2-1.098-2.135.535-.744 2.982-4.113 5-6.228 2.77-2.904 7.67-6.097 8.918-6.892a1.34 1.34 0 0 1 1.665.172M19.463 8.02c-1.6 1.173-3.33 2.555-4.56 3.844-1.138 1.193-2.45 2.848-3.428 4.137h3.106a1.35 1.35 0 0 1 1.188 1.991l-3.233 5.99c1.6-1.173 3.329-2.555 4.559-3.844 1.138-1.193 2.45-2.848 3.428-4.137h-3.106a1.35 1.35 0 0 1-1.188-1.991z"/></svg>