<svg xmlns="http://www.w3.org/2000/svg" viewBox="0 0 24 24"><path fill-rule="evenodd" d="M17.452 2.489c.34.295.508.826.26 1.322L14.619 10h2.188c.862 0 1.437.985.894 1.74-.472.655-2.418 3.328-3.98 4.953-1.81 1.885-4.83 4.157-5.8 4.873a1.098 1.098 0 0 1-1.632-1.377L9.381 14H7.193c-.862 0-1.437-.985-.893-1.74.471-.655 2.418-3.328 3.979-4.953 1.811-1.885 4.83-4.157 5.801-4.873a1.094 1.094 0 0 1 1.372.055m-3.318 4.005c-.865.721-1.737 1.495-2.413 2.199-.895.932-1.952 2.266-2.741 3.307h1.858c.818 0 1.35.86.984 1.592l-1.957 3.914c.865-.721 1.738-1.495 2.414-2.199.895-.932 1.951-2.266 2.74-3.307h-1.857a1.1 1.1 0 0 1-.984-1.592z"/></svg>