<svg xmlns="http://www.w3.org/2000/svg" viewBox="0 0 24 24"><path d="M19.978 19.956c.542-.093.883-.588.912-1.137.048-.917.11-2.536.11-4.818 0-2.283-.062-3.902-.11-4.82-.029-.55-.37-1.044-.912-1.137A3 3 0 0 0 19.5 8a3 3 0 0 0-.478.044c-.542.093-.883.588-.912 1.137-.048.918-.11 2.537-.11 4.82 0 2.282.062 3.9.11 4.818.03.55.37 1.044.912 1.137.153.027.316.044.478.044q.246-.002.478-.044M11 5a1 1 0 0 1 1-1h5a1 1 0 0 1 .448 1.894l-12 6a1 1 0 1 1-.895-1.788L12.764 6h-.763a1 1 0 0 1-1-1m-.083 13.827c-.039.595-.456 1.1-1.05 1.155a4 4 0 0 1-.736 0c-.594-.054-1.01-.56-1.05-1.155A44 44 0 0 1 8 16c0-1.24.041-2.188.083-2.827.038-.595.455-1.1 1.05-1.155a4 4 0 0 1 .735 0c.594.054 1.011.56 1.05 1.155.04.64.082 1.586.082 2.827s-.041 2.188-.082 2.827m4.984-.007c-.034.574-.412 1.078-.982 1.151a3 3 0 0 1-.42.029q-.215-.001-.42-.029c-.57-.073-.948-.577-.982-1.15A67 67 0 0 1 13 15c0-1.75.052-3.032.098-3.821.034-.574.412-1.078.982-1.152q.205-.027.42-.028.215.001.42.028c.57.073.948.578.982 1.152.046.79.098 2.071.098 3.82 0 1.75-.052 3.03-.098 3.82M4.832 19.99c.61-.04 1.063-.532 1.107-1.142C5.972 18.387 6 17.768 6 17s-.028-1.386-.061-1.848c-.044-.61-.497-1.103-1.108-1.141a5 5 0 0 0-.662 0c-.61.038-1.064.53-1.108 1.14A26 26 0 0 0 3 17.001c0 .768.028 1.386.061 1.848.044.61.497 1.102 1.107 1.14a5 5 0 0 0 .664 0"/></svg>