<svg xmlns="http://www.w3.org/2000/svg" viewBox="0 0 24 24"><path fill-rule="evenodd" d="M16.5 2c1.092 0 2.076.108 2.866.24a2.88 2.88 0 0 1 2.395 2.394c.13.79.239 1.774.239 2.866s-.109 2.076-.24 2.866a2.88 2.88 0 0 1-2.395 2.395c-.789.13-1.773.239-2.865.239s-2.077-.108-2.866-.24a2.88 2.88 0 0 1-2.395-2.394C11.11 9.576 11 8.592 11 7.5s.11-2.076.24-2.866a2.88 2.88 0 0 1 2.395-2.395A18 18 0 0 1 16.5 2m-1.7 3.474 1.235-.974h1.452v6h-1.452V5.883L14.8 6.89z"/><path d="M5.499 5.499c.776-.777 1.368-1.075 2.397-1.238C8.486 4.167 9 4.65 9 5.248c0 .525-.4.948-.916 1.05-.615.122-.849.293-1.171.615-.56.56-.663.93-.846 3.389A23 23 0 0 0 6 11.999h1.368c.512 0 .81.61.515 1.053C6.571 15.02 5.914 15.999 5 15.999s-1.57-.978-2.883-2.947c-.295-.443.003-1.053.515-1.053H4c0-.622.027-1.243.072-1.846.173-2.325.26-3.487 1.427-4.654M18.69 15a1.03 1.03 0 0 0-1 .851c-.05.27-.11.53-.164.649a1.6 1.6 0 0 1-.197.32c-.07.09-.15.175-.242.267-.38.38-.672.55-1.587.676-.435.06-1.01.111-1.802.17A23 23 0 0 1 12 18c-.677 0-1.364-.036-2.03-.094a30 30 0 0 1-1.525-.16c-.408-.057-.832.055-1.123.346a1.06 1.06 0 0 0-.322.771.79.79 0 0 0 .659.781c.591.12 1.266.18 2.138.255.712.062 1.458.1 2.203.1.622 0 1.243-.026 1.846-.071 1.38-.103 2.35-.175 3.154-.46.552-.196 1.026-.492 1.501-.967a4.1 4.1 0 0 0 .904-1.303c.109-.255.174-.485.255-.804q.032-.13.06-.277c.11-.597-.377-1.117-.984-1.117z"/></svg>