<svg xmlns="http://www.w3.org/2000/svg" viewBox="0 0 16 16"><path fill-rule="evenodd" d="M2.065 5.856c.092.7.138 1.049.478 1.346s.763.298 1.61.298h3.74l.068-.043c.182-.108.403-.205.598-.29.653-.285 1.692-.667 2.694-.667.848 0 1.723.274 2.368.53.198-.266.242-.604.318-1.174.038-.292.062-.604.062-.926 0-.55-.07-1.057-.162-1.487-.069-.32-.103-.48-.24-.677a1.4 1.4 0 0 0-.404-.365c-.21-.116-.4-.138-.78-.18-.978-.109-2.453-.22-4.413-.22-1.96.001-3.435.111-4.414.22-.38.042-.57.064-.78.18a1.4 1.4 0 0 0-.403.365c-.137.197-.172.357-.24.677-.093.43-.163.937-.163 1.487 0 .322.024.634.063.926M5.9 4.752a.9.9 0 1 1-1.8 0 .9.9 0 0 1 1.8 0m2.625 9.245-.099-.117c-1.049-1.306-1.333-2.836-1.408-4.204a6 6 0 0 1-.009-.678 2 2 0 0 1 .097-.496H4.154c-.848 0-1.272 0-1.611.297-.34.298-.386.648-.478 1.347a7 7 0 0 0-.063.926c0 .55.07 1.057.162 1.487.07.32.104.48.24.677.088.125.271.29.404.365.21.116.4.137.78.18.979.109 2.453.219 4.414.219q.267 0 .523-.003M5.9 11.25a.9.9 0 1 0-1.8 0 .9.9 0 0 0 1.8 0"/><path d="M9.159 8.542C9.772 8.275 10.575 8 11.253 8c.68 0 1.482.275 2.095.542.214.093.345.153.43.204a.42.42 0 0 1 .224.362c.007.1.002.247-.011.485-.068 1.242-.318 2.4-1.08 3.347-.182.227-.472.5-.792.713-.329.22-.638.343-.866.343s-.536-.123-.865-.343a3.7 3.7 0 0 1-.792-.713c-.762-.948-1.012-2.105-1.08-3.347a4 4 0 0 1-.01-.485.41.41 0 0 1 .223-.362c.085-.05.216-.11.43-.204"/></svg>