<svg xmlns="http://www.w3.org/2000/svg" viewBox="0 0 24 24"><path d="M6.764 20.774a54 54 0 0 0 3.736.21c.552 0 1-.455 1-1.007a1 1 0 0 0-1.09-.997 51 51 0 0 1-3.459-.198c-.697-.065-.965-.098-1.158-.154-.087-.025-.157-.05-.314-.198-.19-.18-.213-.249-.22-.27l-.001-.003a1.6 1.6 0 0 1-.063-.246 13 13 0 0 1-.097-.604 9 9 0 0 1-.069-2.04c.07-.906.109-1.32.189-1.619a.66.66 0 0 1 .231-.381c.075-.07.157-.138.498-.191.441-.07 1.045-.076 2.145-.076H8.5a1 1 0 1 0 0-2h-.408c-1.1 0-1.704-.006-2.145-.076-.341-.053-.423-.121-.498-.19a.66.66 0 0 1-.231-.382c-.08-.298-.12-.713-.189-1.62a9 9 0 0 1 .069-2.04c.04-.273.067-.452.097-.603.028-.142.05-.211.063-.246v-.004c.008-.02.031-.088.221-.269.157-.149.227-.173.314-.198.193-.056.46-.089 1.159-.154A54 54 0 0 1 12 5c2.12 0 3.804.1 5.048.217.698.066.966.099 1.159.155.087.025.157.05.314.198.19.18.213.249.22.27l.002.003c.013.035.035.104.062.246.03.152.057.33.097.605a9 9 0 0 1 .084 1.806c0 .552.462 1 1.014 1a.994.994 0 0 0 .994-1.04q.002-.04 0-.077a11 11 0 0 0-.113-1.98c-.154-1.047-.231-1.57-.983-2.284s-1.39-.773-2.663-.893A56 56 0 0 0 12 3c-2.183 0-3.93.104-5.236.226-1.273.12-1.91.18-2.661.893s-.83 1.236-.984 2.282a11 11 0 0 0-.084 2.483c.117 1.539.18 2.372.856 3.116-.675.744-.739 1.577-.856 3.116Q3 15.555 3 16c0 .57.047 1.109.12 1.6.154 1.045.23 1.567.983 2.28.752.714 1.388.774 2.661.894"/><path d="M9.25 8a1.25 1.25 0 1 1-2.5 0 1.25 1.25 0 0 1 2.5 0M8 17.25a1.25 1.25 0 1 0 0-2.5 1.25 1.25 0 0 0 0 2.5"/><path fill-rule="evenodd" d="M16.001 21c-.637 0-1.293-.323-1.826-.69a6.5 6.5 0 0 1-1.372-1.278c-1.292-1.658-1.676-3.649-1.78-5.59a8 8 0 0 1-.014-.852 1.63 1.63 0 0 1 .8-1.324c.188-.116.439-.231.738-.366.917-.412 2.245-.9 3.454-.9s2.537.488 3.455.9c.299.135.549.25.737.366a1.62 1.62 0 0 1 .8 1.324c.016.224.004.507-.015.851-.103 1.942-.487 3.933-1.779 5.59a6.5 6.5 0 0 1-1.372 1.279c-.533.367-1.19.69-1.826.69m-.69-2.337c.193.133.361.224.495.278.123.05.194.059.194.059s.073-.009.196-.059a2.7 2.7 0 0 0 .496-.278c.383-.264.73-.603.93-.86.921-1.183 1.264-2.684 1.359-4.468.01-.195.017-.339.018-.442a14 14 0 0 0-.364-.169c-.866-.39-1.87-.724-2.634-.724s-1.768.335-2.634.724c-.16.072-.277.126-.364.169.002.103.008.247.018.442.095 1.784.438 3.285 1.36 4.468.2.257.546.596.93.86"/></svg>