<svg xmlns="http://www.w3.org/2000/svg" viewBox="0 0 24 24"><path fill-rule="evenodd" d="M5.96 3.276C7.407 3.131 9.423 3 12 3c2.575 0 4.592.13 6.039.276 1.312.132 1.618.189 2.08.62.279.258.392.443.467.636.094.239.149.53.246 1.094.1.573.167 1.215.167 1.9q-.002.584-.059 1.13c-.07.68-.115 1.1-.2 1.427l-.033-.014C19.672 9.607 18.05 9 16.5 9s-3.173.607-4.208 1.069l-.058.026-.068.03c-.48.212-1.273.562-1.75 1.337l-.023.038H6.87c-2.031 0-2.54-.05-3.056-.516-.301-.272-.432-.497-.521-.781-.108-.345-.157-.78-.235-1.546A11 11 0 0 1 3 7.527c0-.687.068-1.33.167-1.903.098-.564.152-.854.246-1.092.076-.193.189-.378.467-.637.462-.43.768-.487 2.08-.619M8.75 7.5a1.25 1.25 0 1 1-2.5 0 1.25 1.25 0 0 1 2.5 0m1.294 5H6.87c-2.03 0-2.54.05-3.055.516-.301.272-.432.497-.521.781-.108.345-.157.78-.235 1.546q-.057.546-.059 1.13c0 .687.068 1.33.167 1.903.098.564.152.854.246 1.092.076.193.189.378.467.637.462.43.768.486 2.08.619C7.407 20.869 9.423 21 12 21q.335 0 .657-.003a7 7 0 0 1-.462-.527c-1.609-2.047-2.052-4.464-2.17-6.662l-.005-.093-.004-.075c-.017-.294-.04-.701.028-1.14m-1.294 4a1.25 1.25 0 1 1-2.5 0 1.25 1.25 0 0 1 2.5 0"/><path d="M12.119 12.51c.122-.198.348-.33.928-.588l.06-.027C14.089 11.457 15.39 11 16.5 11s2.41.457 3.392.895l.06.027c.58.258.806.39.928.589.122.197.137.46.102 1.093l-.006.097c-.109 2.037-.51 3.963-1.744 5.533a6.1 6.1 0 0 1-1.288 1.186c-.531.363-1.047.579-1.444.579-.398 0-.914-.216-1.445-.579a6.1 6.1 0 0 1-1.288-1.186c-1.234-1.57-1.635-3.496-1.744-5.533l-.006-.097c-.035-.634-.02-.896.102-1.093"/></svg>