<svg xmlns="http://www.w3.org/2000/svg" viewBox="0 0 16 16"><path d="M1.06 5.138c.201-.685 2.02-1.389 5.655-2.796C7.131 2.182 7.547 2 8 2s.87.181 1.285.342c3.636 1.407 5.454 2.11 5.656 2.796.08.271.078.556 0 .82-.244.827-1.218.904-1.941.96-.978.077-2.377.082-4.25.082v6.25a.75.75 0 0 1-1.5 0V7C5.377 7 3.978 6.995 3 6.918c-.723-.056-1.697-.133-1.94-.96a1.45 1.45 0 0 1 0-.82"/><path d="M2 8.748a.75.75 0 1 1 1.5 0V10.5h1.75a.75.75 0 0 1 .75.75v2a.75.75 0 0 1-1.5 0V12H3.415l-.447 1.469a.75.75 0 1 1-1.435-.438L2 11.497zm11.25-.75a.75.75 0 0 1 .75.75v2.749l.467 1.534a.75.75 0 1 1-1.434.438L12.585 12H11.5v1.25a.75.75 0 0 1-1.5 0v-2a.75.75 0 0 1 .75-.75h1.75V8.748a.75.75 0 0 1 .75-.75"/></svg>