<svg xmlns="http://www.w3.org/2000/svg" viewBox="0 0 24 24"><path fill-rule="evenodd" d="M11.65 3.02c-.379.041-.746.174-1.48.438-2.136.772-4.284 1.524-6.373 2.42-1.109.476-2.523 1.082-2.261 2.486.226 1.214 1.39 1.373 2.466 1.48C5.509 9.995 7.808 10 11 10v10a1 1 0 1 0 2 0V10c3.194 0 5.494-.005 7.002-.156 1.075-.107 2.239-.266 2.466-1.48.262-1.404-1.153-2.01-2.262-2.486-2.09-.896-4.237-1.648-6.374-2.42-.733-.264-1.1-.397-1.478-.439a3.2 3.2 0 0 0-.705 0"/><path d="M6 14a1 1 0 1 0-2 0v2.838l-.949 2.846a1 1 0 1 0 1.898.632L5.72 18H7v2a1 1 0 1 0 2 0v-3a1 1 0 0 0-1-1H6zm14 0a1 1 0 1 0-2 0v2h-2a1 1 0 0 0-1 1v3a1 1 0 1 0 2 0v-2h1.28l.771 2.316a1 1 0 0 0 1.898-.632L20 16.838z"/></svg>