<svg xmlns="http://www.w3.org/2000/svg" viewBox="0 0 16 16"><path fill-rule="evenodd" d="M2.065 5.856c.092.7.138 1.049.478 1.346s.763.298 1.61.298h5.664l.364-.366c.198-.2.432-.437.66-.616.27-.212.683-.472 1.248-.512q.161-.012.322 0c.565.04.979.3 1.248.512q.072.058.145.12c.058-.204.091-.455.135-.782.038-.292.062-.604.062-.926 0-.55-.07-1.057-.162-1.487-.069-.32-.103-.48-.24-.677a1.4 1.4 0 0 0-.404-.365c-.21-.116-.4-.138-.78-.18-.978-.109-2.453-.22-4.413-.22-1.96.001-3.435.111-4.414.22-.38.042-.57.064-.78.18a1.4 1.4 0 0 0-.403.365c-.137.197-.172.357-.24.677-.093.43-.163.937-.163 1.487 0 .322.024.634.063.926M5.9 4.752a.9.9 0 1 1-1.8 0 .9.9 0 0 1 1.8 0m-1.746 3.75h4.67l-.172.173c-1.33 1.34-.502 3.631 1.349 3.813l-.001.76q.002.372.113.707c-.627.027-1.33.045-2.111.045-1.96 0-3.435-.11-4.414-.22-.38-.041-.57-.063-.78-.18a1.4 1.4 0 0 1-.403-.364c-.137-.197-.172-.357-.24-.677a7 7 0 0 1-.163-1.487c0-.322.024-.634.063-.926.092-.7.138-1.049.478-1.347.34-.297.763-.297 1.61-.297M5.9 11.25a.9.9 0 1 0-1.8 0 .9.9 0 0 0 1.8 0"/><path d="m11.5 13.25.003-3.211q-.152.147-.345.342l-.398.401a.73.73 0 0 1-.521.218c-.657 0-.986-.8-.522-1.27l1.49-1.501c.467-.471.701-.707.989-.727a1 1 0 0 1 .108 0c.288.02.522.256.989.727l1.49 1.502c.464.468.135 1.269-.522 1.269a.73.73 0 0 1-.521-.218l-.398-.4q-.19-.194-.34-.338L13 13.251a.75.75 0 0 1-1.5-.002"/></svg>