<svg xmlns="http://www.w3.org/2000/svg" viewBox="0 0 24 24"><path d="M15.005 4.003a2.002 2.002 0 1 1-4.005 0 2.002 2.002 0 0 1 4.005 0"/><path fill-rule="evenodd" d="M5.663 6.42A1.25 1.25 0 0 1 6.598 6h3.628a2 2 0 0 1 1.036.29l.7.423-.003.007c.242.167.427.42.504.727l1.5 6a1.25 1.25 0 0 1-.5 1.331l4.332 2.563c.267-.5.555-1.124.818-1.722.35-.798 1.507-.835 1.884-.05l2.405 5.014A.992.992 0 0 1 21.999 22H14c.904-3.496 1.42-3.441 2.055-3.373.323.034.677.072 1.129-.352q.038-.036.08-.086l-4.267-2.525v5.086a1.25 1.25 0 0 1-2.5 0v-5.035l-3.631-2.138a1.25 1.25 0 0 1-.5-1.604l-.007-.004.094-.175-2.283-1.351a1 1 0 0 1-.109-.064l-.018-.011v-.001a1.25 1.25 0 0 1-.23-1.86zM8.215 8.5l-1.29 2.411-1.248-.738.008-.009L7.16 8.5zm2.403 1.88-.978 1.93 1.713 1.008z"/><path d="M6 16.688v-2.51q.164.146.359.261L8.5 15.7V17c0 .205-.05.407-.147.588l-2 3.75a1.25 1.25 0 0 1-2.206-1.178z"/></svg>