<svg xmlns="http://www.w3.org/2000/svg" viewBox="0 0 16 16"><path fill-rule="evenodd" d="m5.871 10.088.442 1.546c.055.195.087.306.114.39.017.052.026.074.028.079a.5.5 0 0 0 .286.251l.082.018c.082.015.189.032.37.059l.081.009a32 32 0 0 0 .57.051q.069.006.114.007L8 12.5l.042-.002q.046-.001.114-.007a16 16 0 0 0 .57-.051l.082-.01c.18-.026.287-.043.369-.058l.082-.018a.5.5 0 0 0 .286-.251c.002-.005.011-.027.028-.08.027-.083.059-.194.114-.39l.442-1.545.828-.207.053-.017a2 2 0 0 0 .25-.1 2.6 2.6 0 0 0 .706-.465c.29-.276.534-.663.534-1.3a8.2 8.2 0 0 0-.3-2.11q-.09-.334-.19-.632c-.128-.378-.175-.504-.232-.609a1.55 1.55 0 0 0-.703-.652c-.103-.047-.226-.083-.606-.18a11 11 0 0 0-.734-.158A10 10 0 0 0 8 3.5c-.623 0-1.21.064-1.735.158a11 11 0 0 0-.734.159c-.38.096-.503.132-.607.179a1.55 1.55 0 0 0-.702.652c-.057.105-.104.231-.232.61q-.1.297-.19.63A8.2 8.2 0 0 0 3.5 8c0 .636.245 1.023.534 1.299a2.6 2.6 0 0 0 .706.466 3 3 0 0 0 .303.116zm3.13 3.83S8.254 14 8 14c-.255 0-1-.081-1-.081-.382-.058-.572-.087-.741-.144a2 2 0 0 1-1.151-1.012c-.079-.16-.132-.346-.238-.717l-.203-.713s-.91-.227-1.667-.948C2.461 9.872 2 9.109 2 8c0-.897.15-1.755.35-2.5a12 12 0 0 1 .226-.741c.401-1.154 1.402-2.096 2.586-2.396q.388-.1.839-.182A11.4 11.4 0 0 1 8 2c.724 0 1.4.074 1.999.181q.45.082.838.182c1.185.3 2.185 1.241 2.586 2.395l.007.02q.115.338.219.722c.2.745.35 1.603.35 2.5 0 1.109-.461 1.872-1 2.385-.757.72-1.667.948-1.667.948l-.203.713c-.106.371-.16.556-.238.717a2 2 0 0 1-1.15 1.012c-.17.057-.36.086-.742.144M6.74 12.355"/><path fill-rule="evenodd" d="M4.91 8.166c-.365-.735-.331-1.99.677-1.99.35 0 1.163.543 1.592 1.075.37.458.42.529.385.915-.062.698-2.193.928-2.654 0m6.18 0c.365-.735.331-1.99-.677-1.99-.35 0-1.163.543-1.592 1.075-.37.458-.42.529-.385.915.062.698 2.193.928 2.654 0m-3.816 2.671a.525.525 0 0 0 .721.02.525.525 0 0 0 .721-.762l-.3-.3a.595.595 0 0 0-.842 0l-.3.3a.525.525 0 0 0 0 .742"/></svg>