<svg xmlns="http://www.w3.org/2000/svg" viewBox="0 0 44 44"><path fill-rule="evenodd" d="m28.09 28.513 1.662-.418.014-.004q.039-.01.143-.044a9.5 9.5 0 0 0 2.579-1.309c1.356-.985 2.512-2.425 2.512-4.74 0-2.671-.584-5.264-1.28-7.388-.336-1.027-.491-1.473-.706-1.866a5.63 5.63 0 0 0-2.565-2.382c-.396-.18-.835-.297-1.865-.549A28 28 0 0 0 22 9c-2.485 0-4.744.364-6.584.813-1.03.252-1.47.37-1.866.55a5.63 5.63 0 0 0-2.565 2.382c-.215.393-.37.839-.707 1.866C9.584 16.735 9 19.327 9 22c0 2.314 1.156 3.754 2.513 4.74a9.5 9.5 0 0 0 2.721 1.352l.014.004 1.662.418.52 1.82c.463 1.624.743 2.585 1.037 3.28.256.606.424.762.537.85.177.14.356.24.821.324.594.107 1.384.146 2.834.205a9 9 0 0 0 .682 0c1.45-.059 2.24-.097 2.834-.205.465-.084.644-.184.821-.323.113-.09.281-.245.537-.85.294-.696.573-1.657 1.037-3.28zm-.239 8.309c1.272-1 1.716-2.555 2.604-5.665L30.5 31s7.5-1.89 7.5-9.001c0-3.087-.67-6.007-1.428-8.322l-.018-.055c-1.101-3.249-3.925-5.908-7.258-6.723A31 31 0 0 0 22.001 6c-2.772 0-5.275.405-7.296.899-3.333.815-6.159 3.475-7.26 6.725l-.017.054C6.67 15.993 6 18.912 6 21.998 6 29.11 13.5 31 13.5 31l.045.157c.888 3.11 1.332 4.664 2.604 5.665 1.271 1 2.643 1.056 5.388 1.168a12 12 0 0 0 .926 0c2.744-.112 4.116-.168 5.388-1.168M15.233 17.606c-2.745 0-2.836 3.416-1.842 5.417 1.255 2.527 7.052 1.9 7.223 0 .095-1.051-.041-1.243-1.05-2.49-1.167-1.447-3.381-2.927-4.331-2.927m15.376 5.417c.994-2 .903-5.417-1.842-5.417-.95 0-3.164 1.48-4.332 2.926-1.008 1.248-1.143 1.44-1.049 2.491.171 1.9 5.968 2.527 7.223 0m-10.67 7.538a1.5 1.5 0 0 0 2.061.057 1.5 1.5 0 0 0 2.06-2.179l-.929-.929a1.6 1.6 0 0 0-2.262 0l-.93.93a1.5 1.5 0 0 0 0 2.12"/></svg>