<svg xmlns="http://www.w3.org/2000/svg" viewBox="0 0 24 24"><path fill-rule="evenodd" d="M7.86 3.516A17.4 17.4 0 0 1 12 3.001c1.577 0 2.998.233 4.14.515 1.852.457 3.42 1.933 4.035 3.737l.01.03C20.616 8.593 21 10.249 21 12c0 4-4 5-4 5-.494 1.729-.74 2.593-1.42 3.178a3 3 0 0 1-.165.133c-.718.536-1.486.582-3.021.675A7 7 0 0 1 12 21q-.177 0-.395-.014c-1.535-.093-2.303-.14-3.022-.675a3 3 0 0 1-.164-.133C7.74 19.593 7.494 18.728 7 17c0 0-4-1-4-5 0-1.752.384-3.408.815-4.716l.01-.03C4.44 5.45 6.008 3.973 7.86 3.516m.548 6.345c-1.439 0-1.487 1.791-.966 2.84.658 1.325 3.698.996 3.788 0 .05-.55-.022-.651-.55-1.306-.612-.758-1.774-1.534-2.272-1.534m8.15 2.84c.52-1.049.473-2.84-.966-2.84-.498 0-1.66.776-2.272 1.534-.528.655-.6.755-.55 1.306.09.996 3.13 1.325 3.788 0m-5.765 4.006a1 1 0 0 0 1.207.16 1 1 0 0 0 1.207-1.574l-.43-.43a1.1 1.1 0 0 0-1.555 0l-.43.43a1 1 0 0 0 0 1.414"/></svg>