<svg xmlns="http://www.w3.org/2000/svg" viewBox="0 0 24 24"><path fill-rule="evenodd" d="m15.394 15.34 1.106-.277.06-.018a4.5 4.5 0 0 0 1.24-.645c.636-.477 1.2-1.186 1.2-2.4 0-1.473-.325-2.91-.714-4.09-.191-.58-.27-.799-.373-.987a2.8 2.8 0 0 0-1.267-1.177c-.188-.085-.403-.145-.984-.288A15.4 15.4 0 0 0 12 5.001c-1.383 0-2.64.205-3.662.457-.581.143-.796.203-.985.288-.527.24-.989.669-1.267 1.177-.103.189-.182.408-.373.988C5.325 9.09 5 10.527 5 12c0 1.214.564 1.923 1.2 2.4a4.5 4.5 0 0 0 1.24.645l.06.018 1.106.277.317 1.11c.26.908.411 1.429.566 1.805.131.318.207.383.235.408h.002l.055.045c.067.05.14.096.382.142.316.06.74.09 1.537.138l.027.002q.176.01.273.01t.273-.01c.815-.05 1.244-.079 1.564-.14.242-.046.315-.092.382-.142l.055-.044.002-.001c.028-.025.104-.09.235-.407.155-.377.307-.898.566-1.805zm-6.81 4.97c.719.537 1.487.583 3.022.676q.218.015.395.014.175 0 .393-.014c1.535-.093 2.303-.14 3.021-.675a3 3 0 0 0 .165-.133c.68-.585.926-1.45 1.42-3.178 0 0 4-1 4-5 0-1.752-.384-3.408-.815-4.716l-.01-.03c-.616-1.805-2.183-3.281-4.034-3.738A17.4 17.4 0 0 0 12 3.001a17.4 17.4 0 0 0-4.141.515c-1.852.457-3.42 1.933-4.035 3.738l-.01.03C3.384 8.592 3 10.248 3 12c0 4 4 5 4 5 .494 1.728.74 2.593 1.42 3.178.048.042.113.094.164.133M8.408 9.862c-1.439 0-1.487 1.791-.966 2.84.658 1.325 3.698.996 3.788 0 .05-.55-.022-.651-.55-1.306-.612-.758-1.774-1.534-2.272-1.534m8.15 2.84c.52-1.049.473-2.84-.966-2.84-.498 0-1.66.776-2.272 1.534-.528.655-.6.755-.55 1.306.09.996 3.13 1.325 3.788 0m-5.765 4.006a1 1 0 0 0 1.207.16 1 1 0 0 0 1.207-1.574l-.43-.43a1.1 1.1 0 0 0-1.555 0l-.43.43a1 1 0 0 0 0 1.414"/></svg>