<svg xmlns="http://www.w3.org/2000/svg" viewBox="0 0 16 16"><path fill-rule="evenodd" d="M5.162 2.363A11.6 11.6 0 0 1 8 2c1.087 0 2.063.166 2.838.363 1.185.3 2.185 1.241 2.586 2.395l.007.02C13.729 5.66 14 6.797 14 8c0 2.666-2.667 3.333-2.667 3.333-.329 1.153-.494 1.729-.946 2.12a2 2 0 0 1-.11.087c-.479.358-.99.389-2.015.451a4 4 0 0 1-.524 0c-1.024-.062-1.536-.093-2.015-.45a2 2 0 0 1-.11-.089c-.452-.39-.617-.966-.946-2.119C4.667 11.333 2 10.666 2 8c0-1.203.271-2.338.569-3.222l.007-.02c.401-1.154 1.402-2.095 2.586-2.395m.425 3.813c-1.008 0-1.042 1.255-.677 1.99.461.928 2.592.698 2.654 0 .035-.386-.015-.457-.385-.915-.43-.532-1.243-1.075-1.592-1.075m5.503 1.99c.365-.735.331-1.99-.677-1.99-.35 0-1.163.543-1.592 1.075-.37.458-.42.529-.385.915.062.698 2.193.928 2.654 0m-3.816 2.671a.525.525 0 0 0 .721.02.525.525 0 0 0 .721-.762l-.3-.3a.595.595 0 0 0-.842 0l-.3.3a.525.525 0 0 0 0 .742"/></svg>