<svg xmlns="http://www.w3.org/2000/svg" viewBox="0 0 24 24"><path d="M9.48.405a.965.965 0 0 1 1.52.789c0 .496-.239.754-.614 1.02-.429.303-.79.56-1.097.786h2.712c.7 0 1.399.03 2.077.081 2.616.195 3.924.292 5.237 1.605s1.41 2.62 1.605 5.237C20.97 10.6 21 11.3 21 12s-.03 1.4-.08 2.077c-.195 2.616-.292 3.924-1.605 5.237s-2.621 1.41-5.237 1.605C13.4 20.969 12.7 21 12 21s-1.4-.03-2.077-.081c-2.616-.195-3.924-.292-5.237-1.605s-1.43-2.62-1.625-5.237A30 30 0 0 1 3.001 13a.97.97 0 0 1 .98-1c.552 0 .998.448 1.021 1q.02.466.055.929c.204 2.75.338 3.265 1.044 3.97.706.707 1.22.82 3.971 1.025.637.048 1.287.076 1.929.076s1.291-.028 1.929-.076c2.75-.204 3.264-.318 3.97-1.024s.82-1.22 1.025-3.971c.048-.637.076-1.287.076-1.929s-.028-1.292-.076-1.929c-.204-2.75-.318-3.265-1.024-3.97-.707-.707-1.221-.82-3.971-1.025A26 26 0 0 0 12 5H9.29c.306.226.667.483 1.096.786.375.266.615.524.615 1.02a.965.965 0 0 1-1.522.789l-.005-.004C7.16 5.957 6.001 5.14 6.001 4S7.159 2.043 9.474.409z"/><path d="m9.022 9.035-1.207.952v1.385l1.207-.986V14.9h1.42V9.035zm5.404 4.658q-.195.187-.586.187-.425 0-.62-.17-.195-.179-.247-.553h-1.496q.051.97.654 1.411.604.442 1.709.442 1.07 0 1.657-.501.587-.51.587-1.564 0-.927-.485-1.411-.484-.485-1.428-.485-.433 0-.73.12a1.3 1.3 0 0 0-.46.28l.102-1.19h2.593V9.035h-3.69l-.263 3.051 1.25.272a1 1 0 0 1 .348-.263q.204-.102.51-.102.392 0 .595.195.204.188.204.62v.264q0 .434-.204.62"/></svg>