<svg xmlns="http://www.w3.org/2000/svg" viewBox="0 0 24 24"><path fill-rule="evenodd" d="M5.5 19h13v.5a1.5 1.5 0 0 0 3 0V14c0-.845-.114-1.619-.266-2.273a3 3 0 0 0-.27-.727h.536a1 1 0 1 0 0-2h-1.742c-.653-2-.981-3-2.18-3.938a6 6 0 0 0-.292-.21c-1.264-.85-2.605-.85-5.286-.85s-4.022 0-5.287.85c-.081.054-.213.15-.29.21C5.223 5.999 4.896 7 4.242 9H2.5a1 1 0 1 0 0 2h.535q-.178.336-.269.726A10 10 0 0 0 2.5 14v5.5a1.5 1.5 0 0 0 3 0zM16.346 6.638c.606.474.804.848 1.384 2.597C16.37 9.108 14.482 9 12 9s-4.37.108-5.73.235c.58-1.749.778-2.123 1.385-2.597.04-.031.132-.098.173-.126.655-.44 1.292-.51 4.173-.51 2.88 0 3.516.07 4.17.51.042.028.135.095.175.126M7 15.25a1.25 1.25 0 1 0 0-2.5 1.25 1.25 0 0 0 0 2.5m10 0a1.25 1.25 0 1 0 0-2.5 1.25 1.25 0 0 0 0 2.5M9.5 14a1 1 0 0 1 1-1h3a1 1 0 1 1 0 2h-3a1 1 0 0 1-1-1"/></svg>