<svg xmlns="http://www.w3.org/2000/svg" viewBox="0 0 44 44"><path d="M12.5 27.5a2 2 0 1 0 0-4 2 2 0 0 0 0 4m21-2a2 2 0 1 1-4 0 2 2 0 0 1 4 0m-15-1.5a1.5 1.5 0 0 0 0 3h7a1.5 1.5 0 0 0 0-3z"/><path fill-rule="evenodd" d="M38.485 21.879A5.4 5.4 0 0 0 37.64 20h1.86a1.5 1.5 0 0 0 0-3h-3.33c-1.164-3.558-1.78-5.363-3.945-7.056a11 11 0 0 0-.534-.387C29.373 8 26.916 8 22.001 8c-4.917 0-7.376 0-9.694 1.558-.15.1-.39.275-.531.385C9.609 11.636 8.993 13.442 7.83 17H4.5a1.5 1.5 0 0 0 0 3h1.86a5.4 5.4 0 0 0-.844 1.876A18.6 18.6 0 0 0 5 26.166V35.5a2.5 2.5 0 0 0 5 0V34h24v1.5a2.5 2.5 0 0 0 5 0v-9.333c0-1.602-.224-3.064-.516-4.288m-24.862-9.572c-1.3 1.016-1.712 1.898-2.805 5.21C13.253 17.25 16.898 17 22 17s8.746.25 11.182.516c-1.093-3.31-1.505-4.192-2.804-5.208-.086-.067-.27-.2-.36-.26C28.616 11.104 27.215 11 22.002 11c-5.216 0-6.618.105-8.021 1.048a8 8 0 0 0-.357.26M8 26.167c0-1.327.186-2.553.435-3.595.246-1.034 1.173-1.904 2.642-2.066C13.392 20.25 16.947 20 22 20s8.607.25 10.922.506c1.47.162 2.398 1.033 2.644 2.067A15.6 15.6 0 0 1 36 26.167V31H8z"/></svg>