<svg xmlns="http://www.w3.org/2000/svg" viewBox="0 0 24 24"><path fill-rule="evenodd" d="M14.553 3.84a4 4 0 0 0-.173.136v-.001c-.34.28-.539.554-.831 1.045-.486-.004-.776.032-1.387.199V5.21a7 7 0 0 0-.78.259q-.485.195-1.01.5c-.457.268-.87.545-1.235.813l-2.609-1.63a1 1 0 0 0-1.06 1.696L7.631 8.2a3.71 3.71 0 0 0-.136 3.92c.174.306.39.544.59.723a3.2 3.2 0 0 0-.73.828l-2.88-1.551a1 1 0 0 0-.949 1.76l10.78 5.805A11 11 0 0 0 19.521 21h.48a1 1 0 1 0 0-2h-.48a9 9 0 0 1-4.267-1.076l-1.627-.876.775-.471a4.2 4.2 0 0 0 1.582-1.7l.388.245a3 3 0 1 0 3.212-5.068h-.002a4 4 0 0 0-5.032-6.217zm-2.967 12.109 1.776-1.08c.462-.281.776-.688.942-1.14l.009-.024c.126-.356.16-.74.103-1.111a3 3 0 0 0-.038-.177L9.33 9.26a1.71 1.71 0 0 0-.096 1.87c.063.111.17.218.306.319q.072.068.157.125l2.033 1.361-2.256 1.372q-.21.13-.349.316zm5.856-2.516-1.085-.666c-1.575-1.103-2.297-2.082-2.64-3.122l-2.73-1.707q.19-.122.396-.242a5.5 5.5 0 0 1 .745-.372A5 5 0 0 1 13.435 7c.265-.028.529-.031.774 0 .316.04.601.138.814.314a2.01 2.01 0 0 1 .667-1.826q.04-.035.082-.068a2 2 0 1 1-.286 2.888 4.07 4.07 0 0 0 1.82 2.67l1.206.765a1 1 0 0 1-1.07 1.69"/></svg>