<svg xmlns="http://www.w3.org/2000/svg" viewBox="0 0 24 24"><path d="M21 5.752a2.752 2.752 0 0 1-3.464 2.659c.183.734.64 1.388 1.304 1.808l1.014.643a1.5 1.5 0 1 1-1.607 2.534l-1.013-.643a6 6 0 0 1-2.068-2.22l-.635-.398a45 45 0 0 1-.542.316l.191.114c2.111 1.258 2.117 4.313.01 5.578l-1.06.637 2.124 1.144A9 9 0 0 0 19.522 19h.48a1 1 0 1 1 0 2h-.48a11 11 0 0 1-5.215-1.315l-10.78-5.804a1 1 0 0 1 .948-1.761l4.009 2.158 1.574-.931-1.282-.764a2.24 2.24 0 0 1-.936-1.094l-.018-.033c-.6-1.248-.26-2.649.606-3.69L6 6.366a1 1 0 0 1 1-1.732l3.108 1.793q.496-.32 1.037-.633c1.34-.774 3.14-1.072 4.374-.396A2.752 2.752 0 0 1 21 5.752"/></svg>