<svg xmlns="http://www.w3.org/2000/svg" viewBox="0 0 16 16"><path fill-rule="evenodd" d="M2.653 11.22a33 33 0 0 1-.15-3.218c0-1.26.063-2.332.15-3.217.127-1.283.19-1.925.975-2.713s1.4-.852 2.632-.98a17 17 0 0 1 1.742-.09c.621 0 1.207.036 1.742.09 1.232.128 1.848.192 2.632.98.785.788.848 1.43.975 2.713q.08.787.122 1.771-.077.015-.146.033a3.1 3.1 0 0 0-1.306.71 59 59 0 0 0-1.925 1.818 54 54 0 0 0-1.456 1.547 6.7 6.7 0 0 0-1.128 1.694l-.032.07-.32.836a2.34 2.34 0 0 0 0 1.716 17 17 0 0 1-.901-.07c-1.231-.127-1.847-.19-2.631-.978-.785-.788-.848-1.43-.975-2.713m6.095-5.724a.75.75 0 0 0 0-1.5H6.252a.75.75 0 1 0 0 1.5zM7.252 7h-.996a.75.75 0 1 0 0 1.5h.996a.75.75 0 0 0 0-1.5"/><path d="M13.696 8.042c.247-.063.583-.07.893.122.12.075.283.187.423.327s.25.302.326.423c.193.31.185.646.123.893a1.6 1.6 0 0 1-.366.665 57 57 0 0 1-1.765 1.87c-.454.45-1.07 1.02-1.5 1.411-.4.363-.847.66-1.314.876l-.023.01-.789.302a.885.885 0 0 1-1.143-1.143l.302-.789.01-.023a5.2 5.2 0 0 1 .876-1.313c.391-.43.96-1.046 1.411-1.5a57 57 0 0 1 1.87-1.765c.185-.168.413-.303.665-.366"/></svg>