<svg xmlns="http://www.w3.org/2000/svg" viewBox="0 0 24 24"><path fill-rule="evenodd" d="M21 11.766V9.463c0-1.055 0-1.825-.129-2.463-.204-1.013-.912-1.95-1.871-2.363C17.803 4.122 16.286 4 15 4s-2.803.122-4 .637C10.041 5.05 9.333 5.987 9.129 7 9 7.638 9 8.408 9 9.463v2.303a2 2 0 0 0-.121.113C8 12.757 8 14.17 8 16.999A1 1 0 0 0 9 18v1a1 1 0 1 0 2 0v-1h8v1a1 1 0 1 0 2 0v-1a1 1 0 0 0 1-1c0-2.829 0-4.243-.879-5.121q-.059-.06-.121-.113m-2.809-5.3C17.24 6.077 16.015 6 15 6s-2.24.076-3.191.467c-.404.166-.665.595-.735 1.01-.068.409-.074.95-.074 1.986V11a3 3 0 0 1 3-3h2a3 3 0 0 1 3 2.998V9.463c0-1.036-.006-1.577-.074-1.986-.07-.415-.33-.844-.735-1.01M17 11h-4a1 1 0 0 1 1-1h2a1 1 0 0 1 1 1m2.998 5h-9.996c.005-.906.024-1.536.09-2.025.095-.708.175-.788.883-.883C11.627 13.004 12.529 13 14 13h2c1.471 0 2.373.004 3.026.092.707.095.787.175.882.883.066.49.085 1.12.09 2.025"/><path d="M4.51 10.537c0-.5-.264-.709-.842-.709-.598 0-.832.21-.893.869H1.03C1.101 9.059 2.096 8.5 3.668 8.5c1.674 0 2.597.56 2.597 2.087 0 1.376-1.064 1.878-1.998 2.319l-.072.034c-.65.306-1.22.574-1.298 1.122h3.368V15.5H1v-.829c0-1.738 1.198-2.281 2.194-2.733l.034-.015c.694-.315 1.282-.582 1.282-1.166z"/></svg>