<svg xmlns="http://www.w3.org/2000/svg" viewBox="0 0 24 24"><path fill-rule="evenodd" d="M21 9.463v2.303q.063.053.121.113c.879.878.879 2.292.879 5.12A1 1 0 0 1 21 18v1a1 1 0 1 1-2 0v-1h-8v1a1 1 0 1 1-2 0v-1a1 1 0 0 1-1-1c0-2.829 0-4.243.879-5.121q.059-.06.121-.113V9.463C9 8.408 9 7.638 9.129 7c.204-1.013.912-1.95 1.871-2.363C12.197 4.122 13.714 4 15 4s2.803.122 4 .637c.959.413 1.667 1.35 1.871 2.363C21 7.638 21 8.408 21 9.463M14 9h2a1.5 1.5 0 0 1 1.5 1.5v.5h-5v-.5A1.5 1.5 0 0 1 14 9"/><path d="M4.51 10.537c0-.5-.264-.709-.842-.709-.598 0-.832.21-.893.869H1.03C1.101 9.059 2.096 8.5 3.668 8.5c1.674 0 2.597.56 2.597 2.087 0 1.376-1.064 1.878-1.998 2.319l-.072.034c-.65.306-1.22.574-1.298 1.122h3.368V15.5H1v-.829c0-1.738 1.198-2.281 2.194-2.733l.034-.015c.694-.315 1.282-.582 1.282-1.166z"/></svg>