<svg xmlns="http://www.w3.org/2000/svg" viewBox="0 0 16 16"><path d="M6.636 5.443a.748.748 0 1 0-1.446-.386l-.665 2.5a.75.75 0 0 0 .723.943h1.518l-.41 2.553a.386.386 0 0 0 .736.209l1.398-3.39A.75.75 0 0 0 7.752 7h-1.53z"/><path fill-rule="evenodd" d="M2.008 12.5Q2 13.226 2 14h9a132 132 0 0 0-.015-2.011A2.5 2.5 0 0 0 15 10v-.176c0-.447-.112-.888-.327-1.28l-.52-.955A1.25 1.25 0 0 1 14 6.99v-.158c.591-.281 1-.884 1-1.582v-.583a.67.67 0 0 0-.5-.646V3a.5.5 0 0 0-1 0v1H13V3a.5.5 0 0 0-1 0v1.021a.67.67 0 0 0-.5.646v.583c0 .698.409 1.3 1 1.582v.158c0 .46.116.913.336 1.317l.52.954c.095.173.144.367.144.563V10a1 1 0 0 1-2 0V8.25a.75.75 0 0 0-.665-.746 92 92 0 0 0-.174-2.607c-.086-1.048-.129-1.572-.61-2.082-.482-.51-.916-.571-1.784-.693A13 13 0 0 0 6.5 2c-.66 0-1.254.05-1.767.122-.868.122-1.302.183-1.784.693-.481.51-.524 1.034-.61 2.082a109 109 0 0 0-.33 7.603m7.484 0a108 108 0 0 0-.326-7.48c-.047-.569-.072-.821-.117-1.001a.5.5 0 0 0-.036-.106.3.3 0 0 0-.053-.069.5.5 0 0 0-.087-.078.2.2 0 0 0-.052-.023 2 2 0 0 0-.244-.057 14 14 0 0 0-.519-.079C7.608 3.544 7.086 3.5 6.5 3.5s-1.109.044-1.558.107c-.225.032-.384.054-.519.079a2 2 0 0 0-.244.057.2.2 0 0 0-.052.023.5.5 0 0 0-.087.078.3.3 0 0 0-.053.07.5.5 0 0 0-.036.105c-.045.18-.07.432-.117 1a108 108 0 0 0-.326 7.481z"/></svg>