<svg xmlns="http://www.w3.org/2000/svg" viewBox="0 0 24 24"><path d="M9.953 8.274a1 1 0 0 0-1.923-.548l-.992 3.483a1 1 0 0 0 .164.876c.173.23.435.392.719.415h1.77l-.586 3.876c-.048.319.192.583.498.618a.545.545 0 0 0 .54-.349l1.781-4.756.038-.132a1 1 0 0 0-.164-.877.98.98 0 0 0-.798-.38H9.324z"/><path fill-rule="evenodd" d="M4.4 4.208c-.723.768-.784 1.546-.907 3.103C3.29 9.87 3.059 13.846 3.01 19Q3 19.972 3 21h13a209 209 0 0 0-.023-3.074A3.5 3.5 0 0 0 22 15.5v-.27a4.72 4.72 0 0 0-.944-2.822 2.78 2.78 0 0 1-.556-1.658v-.458A2.5 2.5 0 0 0 22 8V7a1 1 0 0 0-.5-.866V4.75a.75.75 0 0 0-1.5 0V6h-1V4.75a.75.75 0 0 0-1.5 0v1.384A1 1 0 0 0 17 7v1a2.5 2.5 0 0 0 1.5 2.292v.458c0 1.03.34 2.038.956 2.858A2.72 2.72 0 0 1 20 15.23v.269a1.5 1.5 0 0 1-3 0v-3a1 1 0 0 0-1-1h-.226a145 145 0 0 0-.267-4.19c-.123-1.556-.184-2.334-.907-3.102-.722-.768-1.357-.858-2.627-1.037A18 18 0 0 0 9.5 3c-.92 0-1.75.07-2.473.171-1.27.18-1.905.269-2.627 1.037M13.99 19c-.049-5.095-.278-9.018-.477-11.532-.066-.838-.103-1.232-.175-1.52a.7.7 0 0 0-.195-.37c-.155-.165-.223-.191-.304-.219-.186-.064-.448-.11-1.145-.208A16 16 0 0 0 9.5 5c-.82 0-1.556.062-2.194.151-.697.099-.959.144-1.145.208-.08.028-.15.054-.304.219a.7.7 0 0 0-.195.37c-.072.288-.11.682-.175 1.52C5.288 9.982 5.059 13.905 5.01 19z"/></svg>