<svg xmlns="http://www.w3.org/2000/svg" viewBox="0 0 44 44"><path fill-rule="evenodd" d="M6.858 13.843c.222-2.85.332-4.274 1.668-5.687s2.491-1.569 4.802-1.88C14.558 6.11 15.957 6 17.5 6s2.942.11 4.172.276c2.311.311 3.466.467 4.802 1.88s1.446 2.838 1.668 5.687c.16 2.063.33 4.628.476 7.657h.882A1.5 1.5 0 0 1 31 23v5.5a3 3 0 0 0 6 0v-.47c0-1.181-.41-2.33-1.16-3.245A8.14 8.14 0 0 1 34 19.63v-.887a4.5 4.5 0 0 1-3-4.244v-1.667c0-.712.406-1.33 1-1.633V8.75a1.25 1.25 0 1 1 2.5 0V11h2V8.75a1.25 1.25 0 1 1 2.5 0v2.45c.594.303 1 .92 1 1.633V14.5a4.5 4.5 0 0 1-3 4.244v.887c0 1.185.411 2.336 1.162 3.254A8.13 8.13 0 0 1 40 28.031v.469a6 6 0 0 1-11.053 3.238A360 360 0 0 1 29 38H6q0-1.535.012-3c.075-9.312.485-16.508.846-21.157m11.076 1.098a1.5 1.5 0 0 0-2.868-.882l-2 6.5A1.5 1.5 0 0 0 14.5 22.5h4.027l-1.803 7.546a.776.776 0 0 0 1.474.473l3.753-9.137A1.5 1.5 0 0 0 20.5 19.5h-3.969z"/></svg>