<svg xmlns="http://www.w3.org/2000/svg" viewBox="0 0 32 32"><path d="M12.754 11.043a1.25 1.25 0 0 0-.911-1.508 1.233 1.233 0 0 0-1.489.922l-1.07 4.5c-.088.372-.003.765.23 1.066.235.301.592.477.97.477h2.38l-1.033 5.152a.706.706 0 0 0 .686.848.7.7 0 0 0 .65-.448l2.565-6.587a1.26 1.26 0 0 0-.227-.964 1.23 1.23 0 0 0-.99-.501h-2.464z"/><path fill-rule="evenodd" d="M4.01 25.5Q4 26.718 4 28h17a286 286 0 0 0-.04-4.72A4.5 4.5 0 0 0 29 20.5v-.27a5.94 5.94 0 0 0-1.188-3.564l-.062-.083a3.75 3.75 0 0 1-.75-2.25V13.33a3 3 0 0 0 2-2.829V9.333a1.33 1.33 0 0 0-.5-1.04V6.5a1 1 0 0 0-2 0V8H25V6.5a1 1 0 1 0-2 0v1.792c-.305.245-.5.62-.5 1.041V10.5c0 1.306.835 2.418 2 2.83v1.003a6.25 6.25 0 0 0 1.25 3.75l.062.083a3.44 3.44 0 0 1 .688 2.064v.27a2 2 0 1 1-4 0v-3.75c0-.69-.56-1.25-1.25-1.25h-.538a198 198 0 0 0-.359-5.778c-.16-2.064-.24-3.096-1.203-4.122s-1.799-1.144-3.47-1.38c-.932-.131-2-.22-3.18-.22s-2.247.089-3.18.22c-1.671.236-2.507.354-3.47 1.38S4.807 7.658 4.647 9.722c-.267 3.44-.575 8.808-.636 15.778m14.479 0c-.061-6.897-.366-12.201-.628-15.585-.086-1.106-.135-1.643-.234-2.04-.066-.262-.133-.386-.3-.563-.228-.243-.341-.293-.468-.337-.259-.09-.615-.15-1.528-.28A20 20 0 0 0 12.5 6.5c-1.056 0-2.005.08-2.83.196-.914.129-1.27.19-1.53.28-.126.043-.24.093-.468.336-.166.177-.233.3-.299.564-.099.397-.148.933-.234 2.04-.262 3.383-.567 8.687-.628 15.584z"/></svg>