<svg xmlns="http://www.w3.org/2000/svg" viewBox="0 0 16 16"><path d="M8.5 10.5a2.5 2.5 0 1 0 0-5 2.5 2.5 0 0 0 0 5"/><path fill-rule="evenodd" d="M8.36 1.501c-.954 0-1.789.482-2.429.938-.29.206-.568.428-.813.625l-.094.074c-.28.224-.505.398-.701.52q-.166.103-.347.211C3.485 4.165 2.93 4.5 2.5 4.91c-.594.568-.997 1.31-.997 2.371 0 .638.097 1.162.295 1.612.2.453.482.78.775 1.05.166.154.376.322.567.474.101.081.198.158.279.226.267.224.528.47.776.802.15.2.286.43.452.713l.054.09c.18.308.396.665.665.993.572.698 1.387 1.258 2.677 1.258 1.765 0 3.37-.28 4.551-1.083 1.237-.839 1.897-2.169 1.907-3.975.008-1.658-.35-3.602-1.29-5.159-.958-1.59-2.534-2.781-4.85-2.781m-3.246 3.43c.282-.176.573-.405.844-.621l.095-.076c.25-.2.493-.394.747-.575C7.387 3.241 7.896 3 8.36 3c1.705 0 2.833.837 3.568 2.057.756 1.254 1.082 2.904 1.074 4.377-.008 1.403-.492 2.23-1.25 2.744-.813.552-2.055.824-3.71.824-.762 0-1.177-.293-1.519-.71a6 6 0 0 1-.533-.803l-.055-.095a9 9 0 0 0-.543-.848 6.2 6.2 0 0 0-1.012-1.05A17 17 0 0 0 4 9.187c-.15-.12-.276-.219-.412-.344a1.65 1.65 0 0 1-.42-.556C3.073 8.075 3 7.768 3 7.281c0-.612.206-.974.534-1.288.299-.285.666-.507 1.134-.79q.21-.126.446-.273"/></svg>