<svg xmlns="http://www.w3.org/2000/svg" viewBox="0 0 24 24"><g fill-rule="evenodd" clip-rule="evenodd"><path d="M17 12a4 4 0 1 1-8 0 4 4 0 0 1 8 0m-2 0a2 2 0 1 1-4 0 2 2 0 0 1 4 0"/><path d="M12.5 3c-1.314 0-2.466.664-3.355 1.297-.759.54-1.448 1.206-2.24 1.698a39 39 0 0 1-.485.295c-.683.411-1.451.874-2.045 1.442C3.555 8.514 3 9.537 3 11c0 .884.134 1.607.407 2.225.276.624.664 1.075 1.068 1.448.23.212.52.444.784.655.142.114.277.221.391.317a6.6 6.6 0 0 1 1.088 1.122c.599.798.99 1.723 1.627 2.498.79.963 1.912 1.735 3.692 1.735 2.453 0 4.674-.39 6.309-1.499 1.707-1.158 2.62-2.995 2.634-5.496.012-2.302-.487-4.998-1.787-7.155C17.885 4.647 15.705 3 12.5 3M7.961 7.693c.83-.516 1.548-1.2 2.344-1.766C11.123 5.344 11.84 5 12.5 5c2.389 0 3.97 1.174 5 2.882 1.057 1.753 1.51 4.057 1.5 6.113-.01 1.962-.689 3.126-1.758 3.851-1.141.776-2.88 1.154-5.185 1.154-1.075 0-1.663-.415-2.146-1.003-.613-.748-.994-1.658-1.574-2.43a8.6 8.6 0 0 0-1.402-1.455 24 24 0 0 0-.526-.426 10 10 0 0 1-.577-.482c-.275-.254-.464-.49-.595-.787C5.103 12.114 5 11.682 5 11c0-.864.293-1.38.757-1.823.418-.4.934-.712 1.587-1.106q.29-.175.617-.378"/></g></svg>