<svg xmlns="http://www.w3.org/2000/svg" viewBox="0 0 16 16"><path fill-rule="evenodd" d="M11.25 8a2.75 2.75 0 1 1-5.5 0 2.75 2.75 0 0 1 5.5 0m-1.5 0a1.25 1.25 0 1 1-2.5 0 1.25 1.25 0 0 1 2.5 0"/><path fill-rule="evenodd" d="M8.364 1.5c-.955 0-1.79.483-2.43.938-.29.207-.568.429-.814.625l-.093.075c-.28.223-.506.398-.702.52q-.165.102-.346.21c-.491.296-1.047.63-1.477 1.042-.594.568-.998 1.31-.998 2.372 0 .638.097 1.162.295 1.612.2.453.483.78.775 1.05.166.154.376.322.567.475.102.08.198.158.28.226.267.223.527.47.776.8.15.2.285.431.451.714l.054.09c.18.308.396.665.665.993.572.698 1.388 1.259 2.678 1.259 1.765 0 3.37-.28 4.552-1.083 1.237-.84 1.898-2.17 1.908-3.976.008-1.66-.351-3.603-1.29-5.16C12.256 2.692 10.68 1.5 8.364 1.5M5.118 4.932c.282-.176.573-.405.844-.62l.095-.077c.25-.199.493-.393.747-.574C7.391 3.243 7.9 3 8.364 3c1.704 0 2.83.836 3.566 2.056.756 1.254 1.082 2.904 1.074 4.377-.008 1.402-.491 2.228-1.25 2.742-.812.552-2.054.824-3.709.824-.761 0-1.176-.293-1.518-.71a6 6 0 0 1-.532-.802l-.056-.095a9 9 0 0 0-.542-.848 6.2 6.2 0 0 0-1.013-1.051 17 17 0 0 0-.38-.308 7 7 0 0 1-.412-.344 1.6 1.6 0 0 1-.42-.555c-.094-.212-.167-.519-.167-1.005 0-.612.206-.974.534-1.288.298-.284.665-.506 1.133-.79q.21-.125.446-.272"/></svg>