<svg xmlns="http://www.w3.org/2000/svg" viewBox="0 0 24 24"><path fill-rule="evenodd" d="M4 17.218c0 1.554.891 2.993 2.346 3.539 1.769.663 3.732 1.198 5.549 1.24 1.942.045 3.105-1.809 3.105-3.752V5.755c0-1.943-1.164-3.797-3.106-3.752-1.816.042-3.779.577-5.547 1.24C4.892 3.789 4 5.227 4 6.782z"/><path d="M18.78 5.237c-.521-.531-1.073-.733-1.925-.882.097.463.145.934.145 1.4v12.49c0 .465-.048.936-.145 1.398.852-.148 1.404-.35 1.925-.88.724-.738.817-1.556 1.002-3.192.123-1.09.218-2.33.218-3.572a32 32 0 0 0-.218-3.571c-.185-1.636-.278-2.454-1.002-3.191"/></svg>