<svg xmlns="http://www.w3.org/2000/svg" viewBox="0 0 24 24"><path fill-rule="evenodd" d="M20 9.95c0-.204 0-.368-.01-.502-.017-.365-.07-.668-.22-.851q-.066-.081-.179-.228a32 32 0 0 0-2.803-3.18c-1.8-1.799-2.716-2.607-3.197-2.894-.34-.202-.688-.267-1.05-.286A12 12 0 0 0 12.126 2L12 1.999c-.726 0-1.42.033-2.068.087-1.942.162-2.913.242-4.207 1.532S4.343 5.92 4.168 7.946A47 47 0 0 0 4 12c0 1.55.068 2.903.168 4.056.175 2.024.263 3.036 1.557 4.325s2.264 1.37 4.205 1.532a25 25 0 0 0 4.14 0c.382-.031.726-.06 1.043-.095A3 3 0 0 1 15 21a3 3 0 1 1 0-6 3 3 0 0 1 4.995-2.24Q20 12.387 20 12zm-6.643-5.288a16 16 0 0 0-.356-.312v.15c0 1.034.133 2.067.262 2.825.093.548.14.822.365 1.047s.5.272 1.047.365c.758.13 1.791.263 2.825.263h.042a30 30 0 0 0-2.169-2.397 56 56 0 0 0-2.016-1.941"/><path d="M22 18a1 1 0 0 1-1 1h-2v2a1 1 0 1 1-2 0v-2h-2a1 1 0 1 1 0-2h2v-2a1 1 0 1 1 2 0v2h2a1 1 0 0 1 1 1"/></svg>