<svg xmlns="http://www.w3.org/2000/svg" viewBox="0 0 16 16"><path fill-rule="evenodd" d="M3.354 2.51c.21.03.36.14.45.238.024.027 1.158 1.246 3.396 1.506 1.057.123 1.78.713 2.218 1.229l.08.096.326-.342a2.23 2.23 0 0 1 1.612-.689c1.1 0 2.002.802 2.193 1.836l.55.39a.76.76 0 0 1-.155 1.325l-1.003.404v.093c0 1.579-.528 3.701-2.368 4.557-.905.42-1.868.39-2.636.263a12 12 0 0 1-1.474-.37q-.168-.051-.267-.078c-.412-.11-.954-.044-1.475.1a6 6 0 0 0-.924.344.76.76 0 0 1-1.022-.358l-1.243-2.626a.76.76 0 0 1 .607-1.08l.925-.1c-.692-.674-1.459-1.683-1.605-2.965-.28-2.46 1.028-3.483 1.286-3.654a.76.76 0 0 1 .529-.119m2.098 6.627 2.1 1.15-4.137.441.496 1.05q.222-.08.487-.154c.605-.168 1.461-.32 2.264-.106q.203.055.423.124c.34.103.72.219 1.177.295.632.104 1.245.094 1.758-.144 1.016-.473 1.5-1.785 1.5-3.197V7.49l.755-.304a.77.77 0 0 1-.11-.396.74.74 0 0 0-.73-.742.73.73 0 0 0-.526.225L9.106 8.158 8.674 7.08l-.001-.003-.014-.03a2.8 2.8 0 0 0-.385-.591c-.287-.338-.692-.647-1.247-.711-1.8-.21-3.04-.93-3.72-1.444-.195.343-.378.919-.276 1.813.095.837.644 1.582 1.263 2.16a7 7 0 0 0 1.142.855l.015.009z"/></svg>