<svg xmlns="http://www.w3.org/2000/svg" viewBox="0 0 44 44"><path fill-rule="evenodd" d="M9.073 7.116c.246.101.404.243.477.315 0 0 3.338 3.252 10.011 4.08 2.797.348 4.703 2.012 5.861 3.465.25.314.47.623.661.916l1.674-1.704a5.508 5.508 0 0 1 9.43 3.58l1.367 1.358a1.51 1.51 0 0 1-.393 2.424l-2.78 1.38v.87c0 4.706-1.491 9.91-6.273 12.284-2.44 1.211-5.06 1.025-7.17.557a26 26 0 0 1-2.879-.842l-.787-.279c-.463-.165-.82-.292-1.118-.377-1.256-.356-2.33-.074-3.157.351a5.4 5.4 0 0 0-1.381 1.01 1.51 1.51 0 0 1-2.463-.346l-3.488-6.975a1.51 1.51 0 0 1 1.128-2.169l3.707-.552c-.37-.305-.755-.639-1.144-1-2.141-1.985-4.628-4.982-5.156-8.648-.474-3.294-.043-5.583.632-7.126.674-1.541 1.548-2.237 1.802-2.414-.026.018.028-.021.08-.053a1.5 1.5 0 0 1 1.359-.105m7.066 18.986 3.723 2.148-9.594 1.429 1.747 3.494q.283-.178.609-.346c1.299-.668 3.167-1.19 5.349-.57.397.113.908.295 1.432.482q.322.115.64.226c.781.272 1.64.548 2.541.747 1.828.405 3.64.453 5.188-.316 3.252-1.614 4.606-5.322 4.606-9.596v-2.73l2.582-1.282-.313-.31a1.54 1.54 0 0 1-.456-1.096v-.335a2.507 2.507 0 0 0-4.296-1.757l-4.754 4.84-.824-2.198v-.002l-.01-.022-.048-.115a9.3 9.3 0 0 0-1.185-1.947c-.882-1.107-2.149-2.142-3.884-2.357-5.251-.652-8.742-2.643-10.475-3.885a5 5 0 0 0-.136.286c-.415.95-.819 2.66-.41 5.496.378 2.634 2.242 5.037 4.226 6.877a24.7 24.7 0 0 0 3.454 2.662l.276.17.01.006z"/></svg>