<svg xmlns="http://www.w3.org/2000/svg" viewBox="0 0 24 24"><path fill-rule="evenodd" d="M4.638 3.511c.254.033.447.155.573.278.026.025 1.833 1.771 5.42 2.22 1.607.2 2.695 1.163 3.348 1.99q.09.113.17.224l.367-.459a3.364 3.364 0 0 1 5.979 1.812l.71.71a1.01 1.01 0 0 1-.263 1.618l-1.435.718v.464c0 1.188 0 2.584-.431 3.82-.475 1.357-1.449 2.476-3.233 3.113-2.242.8-4.071.058-5.082-.352a6 6 0 0 0-.529-.199c-.637-.182-1.35-.045-1.997.218a5.5 5.5 0 0 0-1.12.616 1.01 1.01 0 0 1-1.508-.359L3.62 15.965a1.01 1.01 0 0 1 .772-1.453l1.376-.182a14 14 0 0 1-.313-.29c-1.167-1.115-2.539-2.81-2.836-4.896-.529-3.702.872-5.122 1.273-5.432a1 1 0 0 1 .747-.2M8.82 14.146l2.476 1.475-5.266.693.888 1.776q.257-.131.563-.257c.839-.341 2.049-.646 3.301-.288.352.1.678.227 1 .352.997.388 1.94.755 3.389.238 1.214-.434 1.74-1.103 2.016-1.89.308-.882.32-1.95.32-3.24v-1.62l1.311-.656-.012-.012a1.02 1.02 0 0 1-.3-.724v-.128a1.363 1.363 0 0 0-2.428-.851l-2.393 2.993-.614-1.651-.004-.01-.025-.06a5 5 0 0 0-.632-1.046c-.471-.596-1.133-1.134-2.027-1.246-2.728-.34-4.608-1.335-5.64-2.039-.197.542-.352 1.456-.145 2.906.203 1.416 1.18 2.721 2.238 3.733a13.3 13.3 0 0 0 1.835 1.458l.117.074.027.017z"/></svg>