<svg xmlns="http://www.w3.org/2000/svg" viewBox="0 0 24 24"><path fill-rule="evenodd" d="M5.02 5.383C6.664 5.184 8.995 5 12 5s5.336.184 6.979.383c1.3.158 1.95.237 2.666.908.716.672.826 1.26 1.046 2.437.175.934.309 2.05.309 3.272s-.134 2.338-.309 3.272c-.22 1.176-.33 1.765-1.046 2.437s-1.366.75-2.666.908C17.336 18.816 15.006 19 12 19s-5.337-.184-6.98-.383c-1.299-.158-1.949-.237-2.665-.908-.716-.672-.826-1.26-1.046-2.436C1.134 14.34 1 13.223 1 12s.134-2.339.31-3.273c.22-1.176.33-1.764 1.045-2.436.716-.671 1.366-.75 2.666-.908M18.903 10.5c0 .773-.625 1.4-1.398 1.4a1.4 1.4 0 1 1 1.398-1.4M5 15a1 1 0 0 1 1-1h12a1 1 0 1 1 0 2H6a1 1 0 0 1-1-1"/></svg>