<svg xmlns="http://www.w3.org/2000/svg" viewBox="0 0 24 24"><path d="M18.75 10.5a1.25 1.25 0 1 1-2.5 0 1.25 1.25 0 0 1 2.5 0M6 13a1 1 0 1 0 0 2h12a1 1 0 1 0 0-2z"/><path fill-rule="evenodd" d="M5.02 5.383c-1.299.158-1.948.237-2.665.908-.716.672-.826 1.26-1.046 2.436C1.134 9.66 1 10.777 1 12s.134 2.339.31 3.273c.22 1.176.33 1.764 1.045 2.436.716.671 1.366.75 2.665.908C6.663 18.816 8.994 19 12 19s5.336-.184 6.98-.383c1.299-.158 1.949-.237 2.665-.909.716-.671.826-1.26 1.046-2.436.175-.934.309-2.05.309-3.272s-.134-2.338-.309-3.272c-.22-1.176-.33-1.765-1.046-2.437s-1.366-.75-2.666-.908C17.336 5.183 15.006 5 12 5s-5.337.184-6.98.383M12 7c-2.924 0-5.174.179-6.739.369-.706.085-1.004.128-1.221.192a.84.84 0 0 0-.526.473c-.066.173-.118.415-.239 1.06A16 16 0 0 0 3 12c0 1.078.119 2.07.275 2.905.12.646.173.888.24 1.06.084.221.3.407.525.474.217.064.515.107 1.221.192C6.825 16.821 9.076 17 12 17s5.174-.179 6.738-.369c.707-.085 1.005-.128 1.223-.192a.84.84 0 0 0 .525-.473c.066-.174.119-.416.24-1.061.155-.836.274-1.827.274-2.905s-.119-2.069-.275-2.904c-.12-.646-.173-.888-.239-1.062a.84.84 0 0 0-.526-.473c-.217-.064-.515-.107-1.222-.192C17.174 7.179 14.924 7 12 7"/></svg>