<svg xmlns="http://www.w3.org/2000/svg" viewBox="0 0 24 24"><path d="M7.5 6A1.5 1.5 0 0 0 9 4.5c0-.554-.67-1.636-1.114-2.292a.462.462 0 0 0-.772 0C6.67 2.864 6 3.946 6 4.5A1.5 1.5 0 0 0 7.5 6M12 6a1.5 1.5 0 0 0 1.5-1.5c0-.554-.67-1.636-1.114-2.292a.462.462 0 0 0-.772 0C11.17 2.864 10.5 3.946 10.5 4.5A1.5 1.5 0 0 0 12 6m6-1.5a1.5 1.5 0 0 1-3 0c0-.554.67-1.636 1.114-2.292a.462.462 0 0 1 .772 0C17.33 2.864 18 3.946 18 4.5M8.5 16a1 1 0 1 1-2 0 1 1 0 0 1 2 0m8 1a1 1 0 1 0 0-2 1 1 0 0 0 0 2m-6-2a1 1 0 1 0 0 2h3a1 1 0 1 0 0-2z"/><path fill-rule="evenodd" d="M20.133 13.5q.087.208.14.437c.13.57.227 1.242.227 1.975v4.838a1.25 1.25 0 1 1-2.5 0V20H6v.75a1.25 1.25 0 1 1-2.5 0v-4.838c0-.734.098-1.407.228-1.978q.052-.227.139-.434H3.5a1 1 0 0 1 0-2h1.625l.027-.084c.578-1.769.867-2.653 1.927-3.48a5 5 0 0 1 .255-.186C8.45 7 9.634 7 12 7s3.549 0 4.665.75c.072.048.188.132.257.186 1.059.828 1.348 1.711 1.926 3.479l.027.085H20.5a1 1 0 1 1 0 2zM7.17 11.683c.51-1.537.667-1.801 1.14-2.172.031-.023.109-.08.14-.101C8.957 9.07 9.436 9 12 9s3.044.07 3.55.41c.032.021.11.078.14.102.474.37.63.634 1.14 2.172a58 58 0 0 0-4.833-.184c-2.033 0-3.631.082-4.828.183m-.6 2.066c1.173-.124 2.962-.249 5.428-.249s4.257.125 5.432.25c.586.062.837.382.894.631.103.453.177.974.177 1.531V18h-13v-2.088c0-.558.075-1.08.178-1.533.057-.249.307-.567.89-.63"/></svg>