<svg xmlns="http://www.w3.org/2000/svg" viewBox="0 0 16 16"><path d="M5 4c.552 0 1-.464 1-1.037 0-.374-.426-1.24-.722-1.795a.312.312 0 0 0-.556 0C4.426 1.724 4 2.589 4 2.963 4 3.536 4.448 4 5 4m3 0c.552 0 1-.464 1-1.037 0-.374-.426-1.24-.722-1.795a.312.312 0 0 0-.556 0C7.426 1.724 7 2.589 7 2.963 7 3.536 7.448 4 8 4m4-1.037C12 3.536 11.552 4 11 4s-1-.464-1-1.037c0-.374.426-1.24.722-1.795a.312.312 0 0 1 .556 0c.296.556.722 1.421.722 1.795"/><path fill-rule="evenodd" d="M13.75 9h-.433q.012.04.021.08c.092.39.162.854.162 1.361V14a1 1 0 1 1-2 0v-.5h-7v.5a1 1 0 1 1-2 0v-3.56A6 6 0 0 1 2.683 9H2.25a.75.75 0 0 1 0-1.5h1.207l.013-.04c.377-1.155.566-1.733 1.213-2.274.087-.074.232-.179.329-.24C5.727 4.5 6.485 4.5 8 4.5s2.273 0 2.988.446a4 4 0 0 1 .33.24c.646.541.835 1.119 1.212 2.274l.013.04h1.207a.75.75 0 0 1 0 1.5M7.998 7.5c-1.26 0-2.248.047-2.997.108.313-.936.405-1.071.644-1.272.035-.029.124-.093.162-.117.274-.171.533-.22 2.193-.22s1.92.049 2.193.22c.038.024.128.088.162.117.24.2.332.336.645 1.273-.75-.061-1.74-.11-3.002-.11M6 10.5a.75.75 0 1 1-1.5 0 .75.75 0 0 1 1.5 0m.5 0a.75.75 0 0 1 .75-.75h1.5a.75.75 0 0 1 0 1.5h-1.5a.75.75 0 0 1-.75-.75m5 0a.75.75 0 1 1-1.5 0 .75.75 0 0 1 1.5 0"/></svg>