<svg xmlns="http://www.w3.org/2000/svg" viewBox="0 0 44 44"><path d="M13.75 11a2.75 2.75 0 0 0 2.75-2.75c0-1.03-1.264-2.846-2.078-3.91a.84.84 0 0 0-1.344 0C12.264 5.404 11 7.22 11 8.25A2.75 2.75 0 0 0 13.75 11M22 11a2.75 2.75 0 0 0 2.75-2.75c0-1.03-1.264-2.846-2.078-3.91a.84.84 0 0 0-1.344 0c-.814 1.064-2.078 2.88-2.078 3.91A2.75 2.75 0 0 0 22 11m11-2.75a2.75 2.75 0 1 1-5.5 0c0-1.03 1.264-2.846 2.078-3.91a.84.84 0 0 1 1.344 0C31.736 5.404 33 7.22 33 8.25M13.5 30.5a1.5 1.5 0 1 0 0-3 1.5 1.5 0 0 0 0 3M32 29a1.5 1.5 0 1 1-3 0 1.5 1.5 0 0 1 3 0m-15 0a1.5 1.5 0 0 1 1.5-1.5h7a1.5 1.5 0 0 1 0 3h-7A1.5 1.5 0 0 1 17 29"/><path fill-rule="evenodd" d="M37.5 21h-2.686c-1.048-3.263-1.62-4.93-3.7-6.447C28.983 13 26.655 13 22 13s-6.984 0-9.114 1.553c-2.081 1.518-2.652 3.184-3.7 6.447H6.5a1.5 1.5 0 0 0 0 3h1.482a4.9 4.9 0 0 0-.584 1.471A16.7 16.7 0 0 0 7 29.046v8.704a2.25 2.25 0 1 0 4.5 0V37h21v.75a2.25 2.25 0 0 0 4.5 0v-8.704c0-1.322-.17-2.536-.396-3.57A4.9 4.9 0 0 0 36.017 24H37.5a1.5 1.5 0 0 0 0-3m-8.154-4.023c1.142.833 1.5 1.524 2.463 4.481h-.003C29.612 21.222 26.38 21 21.994 21c-4.383 0-7.611.222-9.802.457.963-2.956 1.32-3.647 2.463-4.48C15.83 16.12 17.018 16 22 16s6.168.12 7.345.977M21.994 24c-4.283 0-7.405.217-9.484.44-1.277.138-2.008.882-2.183 1.676a13.7 13.7 0 0 0-.327 2.93V34h24v-4.954c0-1.07-.137-2.065-.326-2.926-.175-.796-.908-1.542-2.188-1.68-2.082-.223-5.208-.44-9.492-.44"/></svg>