<svg xmlns="http://www.w3.org/2000/svg" viewBox="0 0 32 32"><path fill-rule="evenodd" d="m23.428 19.275.183-.154c3.744-3.14 5.616-4.71 5.367-6.194a2.6 2.6 0 0 0-.265-.788c-.699-1.332-3.14-1.453-8.02-1.693-1.887-4.846-2.83-7.27-4.433-7.432a2.6 2.6 0 0 0-.534 0c-1.602.163-2.546 2.586-4.433 7.432-4.87.24-7.306.36-8.005 1.692a2.6 2.6 0 0 0-.266.787c-.25 1.483 1.617 3.052 5.348 6.191l.188.159c-1.253 4.458-1.88 6.688-1.093 7.73.337.445.808.772 1.343.934 1.25.375 3.124-.986 6.872-3.708l.313-.227.313.227c3.748 2.722 5.622 4.083 6.872 3.707a2.63 2.63 0 0 0 1.343-.934c.786-1.041.16-3.27-1.093-7.73m-5.671 2.959c1.922 1.396 3.204 2.323 4.16 2.877q.279.16.462.249a8 8 0 0 0-.072-.52c-.188-1.088-.613-2.611-1.255-4.898l-.432-1.534 1.405-1.178c1.926-1.616 3.185-2.678 3.961-3.51q.171-.185.282-.32a7 7 0 0 0-.419-.085c-1.121-.194-2.767-.28-5.278-.404l-1.598-.079-.58-1.49c-.971-2.493-1.613-4.128-2.19-5.186a7 7 0 0 0-.21-.361 7 7 0 0 0-.21.36c-.577 1.059-1.219 2.694-2.19 5.187l-.58 1.49-1.598.08c-2.506.123-4.148.209-5.267.403a7 7 0 0 0-.417.085q.11.135.28.319c.773.832 2.028 1.893 3.948 3.508l1.406 1.183-.43 1.532c-.643 2.287-1.068 3.81-1.255 4.899q-.055.316-.073.519c.123-.06.276-.14.463-.25.955-.553 2.237-1.48 4.16-2.876l1.763-1.281z"/></svg>