<svg xmlns="http://www.w3.org/2000/svg" viewBox="0 0 32 32"><path d="m23.428 19.275.183-.154c3.744-3.14 5.616-4.71 5.367-6.194a2.6 2.6 0 0 0-.265-.788c-.699-1.332-3.14-1.453-8.02-1.693-1.887-4.846-2.83-7.27-4.433-7.432a2.6 2.6 0 0 0-.534 0c-1.602.163-2.546 2.586-4.433 7.432-4.87.24-7.306.36-8.005 1.692a2.6 2.6 0 0 0-.266.787c-.25 1.483 1.617 3.052 5.348 6.191l.188.159c-1.253 4.458-1.88 6.688-1.093 7.73.337.445.808.772 1.343.934 1.25.375 3.124-.986 6.872-3.708l.313-.227.313.227c3.748 2.722 5.622 4.083 6.872 3.707a2.63 2.63 0 0 0 1.343-.934c.786-1.041.16-3.27-1.093-7.73"/></svg>