<svg xmlns="http://www.w3.org/2000/svg" viewBox="0 0 28 28"><path fill-rule="evenodd" d="m13.993 18.843 1.176.855.215.157 1.004.728c1.447 1.047 2.43 1.73 3.158 2.123.309.166.498.239.596.27l.002-.001c.005-.12.003-.394-.086-.911-.175-1.022-.573-2.446-1.164-4.553l-.351-1.25 1.15-.954c1.793-1.489 2.987-2.484 3.726-3.27a4.4 4.4 0 0 0 .504-.614 4.6 4.6 0 0 0-.771-.189c-1.062-.184-2.614-.264-4.942-.378l-1.295-.063-.47-1.21c-.893-2.293-1.493-3.822-2.036-4.816a5 5 0 0 0-.416-.657 5 5 0 0 0-.416.657c-.543.994-1.142 2.523-2.035 4.817l-.47 1.209-1.296.063c-2.323.114-3.87.194-4.93.378a4.5 4.5 0 0 0-.77.189c.08.122.228.322.502.614.736.785 1.925 1.78 3.713 3.267l1.152.959-.35 1.248c-.592 2.107-.99 3.53-1.165 4.553-.089.517-.091.79-.086.91l.002.002c.098-.031.287-.104.596-.27.728-.393 1.71-1.076 3.158-2.123q.502-.363 1.005-.73l.214-.155zm-11.744-8.41a2.4 2.4 0 0 0-.227.682c-.24 1.374 1.503 2.825 4.99 5.726l.155.13c-1.157 4.12-1.736 6.18-1 7.137.303.394.72.685 1.194.832 1.044.324 2.562-.677 5.41-2.737l1.007-.731.215-.156.215.156 1.008.731c2.847 2.06 4.365 3.061 5.409 2.737a2.4 2.4 0 0 0 1.194-.832c.736-.957.157-3.017-1-7.138l.15-.124c3.499-2.903 5.248-4.354 5.01-5.729a2.4 2.4 0 0 0-.228-.682c-.634-1.243-2.903-1.354-7.443-1.576-1.741-4.475-2.612-6.712-4.094-6.849a2.4 2.4 0 0 0-.442 0c-1.482.137-2.353 2.374-4.094 6.849-4.53.222-6.795.333-7.429 1.575"/></svg>