<svg xmlns="http://www.w3.org/2000/svg" viewBox="0 0 44 44"><path fill-rule="evenodd" d="M27.903 15.069c.106.33.2.628.28.884q.324.023.723.054c1.056.082 2.475.208 3.911.383 1.425.173 2.915.399 4.096.69.582.143 1.158.319 1.63.543.236.111.502.261.742.466.23.198.543.538.67 1.047a2.04 2.04 0 0 1-.091 1.227c-.112.292-.272.55-.425.76-.305.421-.722.848-1.16 1.25-.887.814-2.073 1.717-3.226 2.542a92 92 0 0 1-3.632 2.457l.155.42a66 66 0 0 1 1.212 3.594c.404 1.335.78 2.78.953 4.018.085.616.13 1.245.08 1.815-.046.517-.193 1.275-.76 1.842-.707.707-1.631.679-2.175.585-.588-.101-1.196-.35-1.751-.627-1.128-.563-2.416-1.438-3.591-2.311A68 68 0 0 1 22 33.87l-.385.327a68 68 0 0 1-3.158 2.511c-1.175.873-2.463 1.748-3.591 2.31-.555.278-1.163.527-1.75.628-.545.094-1.469.122-2.176-.585-.567-.567-.714-1.325-.76-1.842-.05-.57-.005-1.2.08-1.815.173-1.238.549-2.683.953-4.018a66 66 0 0 1 1.367-4.014l-.424-.275a92 92 0 0 1-3.208-2.182c-1.153-.825-2.339-1.728-3.226-2.542-.438-.402-.855-.829-1.16-1.25a3.3 3.3 0 0 1-.425-.76 2.04 2.04 0 0 1-.092-1.227c.128-.509.44-.85.671-1.047a3.3 3.3 0 0 1 .742-.466c.472-.224 1.048-.4 1.63-.543 1.18-.291 2.671-.517 4.096-.69a94 94 0 0 1 4.634-.437 119 119 0 0 1 1.683-5.022c.543-1.5 1.15-3.045 1.73-4.233.285-.585.594-1.146.916-1.58a3.5 3.5 0 0 1 .61-.654C20.988 4.28 21.418 4 22 4s1.014.28 1.243.464c.248.199.451.438.61.654.322.434.631.995.918 1.58.58 1.188 1.186 2.733 1.729 4.233a119 119 0 0 1 1.403 4.138M22 7.864c-.5 0-3.917 10.957-3.917 10.957S7.762 19.5 7.62 20.041c-.119.449 8.665 6.114 8.665 6.114s-3.457 10.093-3.12 10.349C13.5 36.759 22 29.868 22 29.868s8.5 6.888 8.837 6.636c.337-.253-3.12-10.35-3.12-10.35s8.783-5.664 8.665-6.114c-.143-.54-10.464-1.219-10.464-1.219S22.5 7.864 22 7.864"/></svg>