<svg xmlns="http://www.w3.org/2000/svg" viewBox="0 0 16 16"><path d="M6.986.341a.643.643 0 0 1 1.015.526c0 .407-.222.75-.583 1.006L7.24 2H8c.466 0 .932.02 1.384.054 1.744.13 2.616.195 3.492 1.07s.94 1.747 1.07 3.491C13.98 7.067 14 7.534 14 8s-.02.933-.054 1.385c-.13 1.744-.195 2.616-1.07 3.491-.876.875-1.748.94-3.492 1.07A19 19 0 0 1 8 14c-.467 0-.933-.02-1.385-.054-1.744-.13-2.616-.195-3.491-1.07-.876-.875-.957-1.747-1.087-3.491A20 20 0 0 1 2 8.75.725.725 0 0 1 2.733 8c.414 0 .749.336.768.75q.013.263.032.524c.137 1.844.231 2.121.651 2.541s.697.498 2.542.635c.422.032.85.05 1.274.05.423 0 .852-.018 1.273-.05 1.845-.137 2.122-.214 2.542-.635.42-.42.497-.697.635-2.541.031-.422.05-.85.05-1.274 0-.423-.019-.852-.05-1.273-.138-1.845-.215-2.122-.635-2.542s-.697-.498-2.542-.635C8.852 3.519 8.423 3.5 8 3.5h-.76l.097.07.045.031c.36.257.618.6.618 1.007a.643.643 0 0 1-1.015.526l-.55-.386C5.22 3.903 4.5 3.402 4.5 2.738c0-.665.72-1.166 1.934-2.011z"/><path d="M5.532 8.786c.01.329.195.468.564.468.362 0 .547-.106.547-.418v-.134c0-.285-.179-.408-.536-.408h-.352v-.709h.352c.268 0 .402-.14.402-.374V7.09c0-.235-.145-.347-.413-.347s-.441.079-.464.42H4.65C4.66 6.278 5.27 6 6.084 6c.849 0 1.38.33 1.38 1.01 0 .42-.207.737-.665.877.52.117.798.418.798.915 0 .765-.485 1.2-1.501 1.2-.972 0-1.536-.323-1.552-1.216z"/><path fill-rule="evenodd" d="M9.881 6c1.089 0 1.619.663 1.619 1.997 0 1.357-.53 1.999-1.619 1.999-1.094 0-1.619-.642-1.619-1.999C8.262 6.663 8.787 6 9.882 6m0 3.253c.514 0 .659-.329.659-.982v-.553c0-.608-.145-.977-.659-.977-.519 0-.659.346-.659.977v.553c0 .653.14.977.66.982"/></svg>