<svg xmlns="http://www.w3.org/2000/svg" viewBox="0 0 24 24"><path d="M11 1.194A.965.965 0 0 0 9.48.405L9.473.41C7.16 2.043 6.001 2.86 6.001 4s1.158 1.957 3.473 3.591l.005.004a.965.965 0 0 0 1.522-.789c0-.496-.24-.754-.615-1.02A74 74 0 0 1 9.289 5h2.712c.642 0 1.291.028 1.929.076 2.75.204 3.264.318 3.97 1.024s.82 1.22 1.025 3.971c.048.637.076 1.287.076 1.929s-.028 1.292-.076 1.929c-.204 2.75-.318 3.265-1.024 3.97-.707.707-1.221.82-3.971 1.025A26 26 0 0 1 12 19c-.642 0-1.29-.028-1.928-.076-2.75-.204-3.265-.318-3.971-1.024s-.84-1.22-1.044-3.971a28 28 0 0 1-.055-.93A1.034 1.034 0 0 0 3.981 12a.97.97 0 0 0-.98 1q.021.545.061 1.077c.195 2.616.312 3.924 1.625 5.237s2.62 1.41 5.237 1.605c.678.05 1.377.081 2.077.081s1.399-.03 2.077-.081c2.616-.195 3.924-.292 5.237-1.605s1.41-2.62 1.605-5.237C20.97 13.4 21 12.7 21 12s-.03-1.399-.08-2.077c-.195-2.616-.292-3.924-1.605-5.237s-2.621-1.41-5.237-1.605A28 28 0 0 0 12 3H9.289c.307-.226.668-.483 1.097-.786.375-.266.615-.524.615-1.02"/><path d="M8.294 13.176c.017.494.293.703.846.703.543 0 .82-.16.82-.628v-.2c0-.427-.268-.611-.804-.611H8.63v-1.063h.527c.402 0 .603-.21.603-.561v-.184c0-.352-.218-.519-.62-.519-.401 0-.66.117-.694.628H6.972C6.99 9.418 7.901 9 9.122 9c1.273 0 2.068.494 2.068 1.515 0 .627-.31 1.104-.996 1.314.778.175 1.197.627 1.197 1.372 0 1.146-.728 1.8-2.251 1.8-1.457 0-2.302-.486-2.327-1.825z"/><path fill-rule="evenodd" d="M14.725 9c1.632 0 2.427.996 2.427 2.996 0 2.034-.795 2.996-2.427 2.996-1.64 0-2.426-.963-2.426-2.996 0-2 .786-2.996 2.426-2.996m0 4.879c.77 0 .988-.494.988-1.473v-.828c0-.913-.218-1.465-.988-1.465-.778 0-.987.519-.987 1.465v.828c0 .98.21 1.464.987 1.473"/></svg>