<svg xmlns="http://www.w3.org/2000/svg" viewBox="0 0 44 44"><path fill-rule="evenodd" d="M14.94 4.44a1.5 1.5 0 0 1 2.12 0L22 9.378l4.94-4.94a1.5 1.5 0 0 1 2.12 2.122l-3.505 3.506c1.287.049 2.477.123 3.57.212 3.723.306 5.585.459 7.968 2.855s2.516 4.148 2.783 7.651A42 42 0 0 1 40 24c0 1.122-.046 2.198-.124 3.215-.267 3.504-.4 5.255-2.783 7.652-2.383 2.396-4.245 2.549-7.968 2.854a87 87 0 0 1-7.125.28 87 87 0 0 1-7.127-.28c-3.722-.306-5.583-.458-7.965-2.854-2.383-2.396-2.516-4.147-2.784-7.648A42 42 0 0 1 4 24c0-1.122.046-2.2.124-3.218.268-3.502.401-5.253 2.784-7.648 2.382-2.396 4.243-2.549 7.966-2.855a82 82 0 0 1 3.571-.212L14.94 6.56a1.5 1.5 0 0 1 0-2.122M22 13c-2.63 0-4.925.109-6.88.27-1.963.16-3 .26-3.854.521-.69.211-1.335.557-2.23 1.458-.92.923-1.253 1.555-1.448 2.183-.244.785-.331 1.726-.473 3.578a39 39 0 0 0 0 5.98c.142 1.852.23 2.793.473 3.578.195.628.529 1.26 1.447 2.183.896.901 1.541 1.247 2.23 1.458.855.261 1.892.361 3.854.522 1.956.16 4.25.27 6.881.27 2.63 0 4.923-.11 6.88-.27 1.962-.16 3-.26 3.854-.522.69-.21 1.336-.557 2.231-1.458.919-.923 1.252-1.555 1.447-2.184.244-.785.332-1.727.473-3.58C36.957 26.04 37 25.04 37 24s-.043-2.04-.115-2.987c-.141-1.853-.229-2.794-.472-3.58-.196-.629-.53-1.26-1.447-2.184-.896-.901-1.542-1.247-2.232-1.458-.854-.261-1.892-.36-3.855-.522A84 84 0 0 0 22 13"/></svg>