<svg xmlns="http://www.w3.org/2000/svg" viewBox="0 0 32 32"><path fill-rule="evenodd" d="M13.919 3.402a1.25 1.25 0 1 0-1.838 1.696l1.788 1.936a58 58 0 0 0-2.974.172c-2.687.227-4.03.34-5.756 2.075-1.727 1.734-1.83 3.025-2.034 5.608A33 33 0 0 0 3 17.5c0 .915.04 1.79.105 2.612.205 2.582.307 3.873 2.034 5.607 1.726 1.735 3.069 1.848 5.756 2.075C12.357 27.918 14.06 28 16 28s3.642-.082 5.104-.206c2.688-.227 4.032-.34 5.758-2.075s1.829-3.027 2.034-5.61a33 33 0 0 0 0-5.218c-.205-2.583-.308-3.875-2.034-5.61s-3.07-1.848-5.759-2.075c-.9-.076-1.89-.137-2.972-.172l1.788-1.936a1.25 1.25 0 1 0-1.838-1.696L16 5.657z"/></svg>