<svg xmlns="http://www.w3.org/2000/svg" viewBox="0 0 16 16"><path fill-rule="evenodd" d="M7.03 1.97a.75.75 0 0 0-1.06 1.06l.983.983q-1.094.031-1.961.105c-1.378.115-2.067.172-2.932 1.038s-.914 1.488-1.015 2.73a14 14 0 0 0 0 2.228c.1 1.242.15 1.863 1.015 2.73.864.866 1.554.923 2.932 1.038.843.07 1.846.118 3.008.118s2.165-.049 3.007-.118c1.38-.115 2.069-.172 2.933-1.038.865-.867.915-1.489 1.015-2.731a14 14 0 0 0 0-2.226c-.1-1.243-.15-1.864-1.015-2.73-.864-.867-1.554-.924-2.933-1.039a35 35 0 0 0-1.96-.105l.983-.983a.75.75 0 1 0-1.06-1.06L8 2.94z"/></svg>