<svg xmlns="http://www.w3.org/2000/svg" viewBox="0 0 16 16"><path d="M1.013 7.003A5 5 0 0 1 1 6.653c0-2.409 1.794-4.361 4.008-4.361 1.186 0 2.252.56 2.986 1.452.734-.899 1.805-1.465 2.997-1.465C13.205 2.28 15 4.231 15 6.64q0 .184-.014.364c-.023.58-.126 1.057-.322 1.497H10.5a.75.75 0 0 0-.624.334l-.376.564-1.376-2.064a.75.75 0 0 0-1.248 0L6.099 8.5H4.75a.75.75 0 0 0 0 1.5H6.5a.75.75 0 0 0 .624-.334l.376-.564 1.376 2.064a.75.75 0 0 0 1.248 0L10.901 10h2.717c-.295.328-.637.678-1.026 1.077a18 18 0 0 1-1.206 1.126C9.996 13.402 9.3 14.001 8 14.001s-1.995-.6-3.387-1.798a20 20 0 0 1-1.205-1.126C1.875 9.509 1.08 8.69 1.013 7.003"/></svg>