<svg xmlns="http://www.w3.org/2000/svg" viewBox="0 0 17 17"><path fill-rule="evenodd" d="M7.438 2.924c0-.44.356-.797.796-.797h1.884c.643 0 1.215.408 1.424 1.015l1.843 5.361q.08-.004.16-.004a2.922 2.922 0 1 1-1.667.522l-.51-1.484-1.72 2.753a1.442 1.442 0 0 1-1.289 2.454l-2.116-.438a2.925 2.925 0 0 1-5.712-.883 2.924 2.924 0 0 1 5.653-1.053l1.07-.222L4.753 6.21l-.472.202a.708.708 0 0 1-.96-.456L3.014 4.88a.496.496 0 0 1 .477-.632h2.884a.797.797 0 0 1 .032 1.593L8.494 9.13l2.207-3.531-.646-1.878h-1.82a.797.797 0 0 1-.797-.796m-2.653 8.499a1.33 1.33 0 1 1-2.66 0 1.33 1.33 0 0 1 2.66 0m10.088-.002a1.328 1.328 0 1 1-2.656 0 1.328 1.328 0 0 1 2.656 0"/></svg>