<svg xmlns="http://www.w3.org/2000/svg" viewBox="0 0 24 24"><path fill-rule="evenodd" d="M10.5 4a1 1 0 0 1 1-1h2.78a2 2 0 0 1 1.897 1.368l2.547 7.641a4 4 0 1 1-1.898.632l-.756-2.267-2.638 4.221a2.021 2.021 0 0 1-1.877 3.38l-2.798-.599A4.002 4.002 0 0 1 1 16a4 4 0 0 1 7.757-1.376l1.613-.346-3.49-5.584-.836.359a1 1 0 0 1-1.356-.645l-.433-1.516A.7.7 0 0 1 4.928 6H9a1 1 0 0 1 0 2h-.196L12 13.113l3.25-5.2L14.28 5H11.5a1 1 0 0 1-1-1M5 14a2 2 0 1 1 0 4 2 2 0 0 1 0-4m16 2a2 2 0 1 1-4 0 2 2 0 0 1 4 0"/></svg>