<svg xmlns="http://www.w3.org/2000/svg" viewBox="0 0 16 16"><path d="M10.961 8.365a.747.747 0 0 0 0-1.06.75.75 0 0 0-1.06 0L7.514 9.687l-1.053-1.04a.75.75 0 1 0-1.06 1.061l1.583 1.57a.75.75 0 0 0 1.06 0z"/><path fill-rule="evenodd" d="M2.054 6.616c.13-1.744.195-2.616 1.07-3.491s1.747-.94 3.491-1.07A19 19 0 0 1 8 2.001c.466 0 .933.02 1.385.054 1.744.13 2.616.195 3.491 1.07s.94 1.747 1.07 3.491c.034.452.054.919.054 1.385s-.02.933-.054 1.385c-.13 1.744-.195 2.616-1.07 3.491s-1.747.94-3.491 1.07C8.933 13.98 8.466 14 8 14s-.933-.02-1.385-.054c-1.744-.13-2.616-.195-3.491-1.07s-.94-1.747-1.07-3.491A19 19 0 0 1 2 8c0-.466.02-.933.054-1.385M6.727 3.55c.42-.031.85-.05 1.273-.05s.852.019 1.273.05c1.845.137 2.122.214 2.542.635.226.225.353.406.443.814H3.742c.09-.408.217-.589.443-.814.42-.42.697-.498 2.542-.635M3.555 6.653l.012-.153h8.866l.012.153.005.075c.032.42.05.85.05 1.273s-.018.852-.05 1.273c-.137 1.845-.214 2.122-.635 2.542-.42.42-.697.498-2.542.635-.42.031-.85.05-1.273.05s-.852-.019-1.273-.05c-1.845-.137-2.122-.214-2.542-.635-.42-.42-.498-.697-.635-2.542a17 17 0 0 1-.05-1.273 17 17 0 0 1 .055-1.348"/></svg>