<svg xmlns="http://www.w3.org/2000/svg" viewBox="0 0 16 16"><path d="M9.385 2.054c.58.043 1.063.082 1.483.143a.75.75 0 0 1-.118 1.49c-.031 0-.092-.005-.092-.005a24 24 0 0 0-1.385-.132A17 17 0 0 0 8 3.5c-.423 0-.852.019-1.273.05-1.845.137-2.122.214-2.542.635-.42.42-.498.697-.635 2.542-.031.42-.05.85-.05 1.273s.019.852.05 1.273c.137 1.845.214 2.122.635 2.542.42.42.697.498 2.542.635.42.032.85.05 1.273.05s.852-.018 1.273-.05c1.845-.137 2.122-.214 2.542-.635.42-.42.498-.697.635-2.542.025-.337.042-.68.048-1.02a.75.75 0 1 1 1.499.066q-.011.541-.051 1.066c-.13 1.744-.195 2.616-1.07 3.491s-1.747.94-3.491 1.07C8.933 13.98 8.466 14 8 14s-.933-.02-1.385-.054c-1.744-.13-2.616-.195-3.491-1.07s-.94-1.747-1.07-3.491A19 19 0 0 1 2 8c0-.466.02-.933.054-1.385.13-1.744.195-2.616 1.07-3.491s1.747-.94 3.491-1.07C7.067 2.02 7.534 2 8 2s.933.02 1.385.054"/><path d="M14.164 2.851c.365 0 .532.135.532.455v.14c0 .375-.368.546-.803.748-.627.292-1.393.648-1.393 1.775V6.5h3.303v-1h-2.108c.091-.313.45-.485.847-.676.59-.282 1.261-.604 1.261-1.486 0-.98-.583-1.338-1.639-1.338-.992 0-1.62.358-1.664 1.408h1.101c.038-.422.186-.557.563-.557M7.324 6H5.5v4h1V6.736l.94 2.736H8.5l1-2.718V10h1V6H8.852l-.793 2.288z"/></svg>