<svg xmlns="http://www.w3.org/2000/svg" viewBox="0 0 24 24"><path d="M21.534 3.73c.549 0 .8.195.8.657v.203c0 .542-.559.788-1.218 1.08-.953.421-2.116.936-2.116 2.563v.768h5V7.669h-3.198c.077-.525.656-.792 1.3-1.089C22.99 6.172 24 5.707 24 4.433c0-1.414-.877-1.932-2.466-1.932-1.493 0-2.438.483-2.505 1.999h1.657c.058-.61.28-.77.848-.77M10.983 9H8.5v6H10v-4.574l1.127 4.074h1.655L14 10.17V15h1.5V9h-2.295l-1.115 4.088z"/><path d="M12 3c.7 0 1.4.03 2.077.081 1.048.078 1.885.14 2.598.271a1.003 1.003 0 1 1-.392 1.964c-.537-.094-1.273-.16-2.354-.24A26 26 0 0 0 12 5c-.642 0-1.292.028-1.929.076-2.75.204-3.265.318-3.97 1.024-.707.706-.82 1.22-1.025 3.971A26 26 0 0 0 5 12c0 .642.028 1.292.076 1.929.204 2.75.318 3.265 1.024 3.97.706.707 1.22.82 3.971 1.025.637.048 1.287.076 1.929.076s1.292-.028 1.929-.076c2.75-.204 3.265-.318 3.97-1.024.707-.706.82-1.22 1.025-3.971a26 26 0 0 0 .07-2.445A1.005 1.005 0 0 1 20 10.5a1 1 0 0 1 1 1c.002.095.001.23 0 .35V12c0 .7-.03 1.399-.081 2.077-.195 2.616-.292 3.924-1.605 5.237s-2.62 1.41-5.237 1.605C13.4 20.969 12.7 21 12 21s-1.399-.03-2.077-.081c-2.616-.195-3.924-.292-5.237-1.605s-1.41-2.62-1.605-5.237A28 28 0 0 1 3 12c0-.7.03-1.399.081-2.077.195-2.616.292-3.924 1.605-5.237s2.62-1.41 5.237-1.605C10.6 3.031 11.3 3 12 3"/></svg>