<svg xmlns="http://www.w3.org/2000/svg" viewBox="0 0 24 24"><path d="M21.534 3.73c.549 0 .8.195.8.657v.203c0 .542-.559.788-1.218 1.08-.953.421-2.116.936-2.116 2.563v.768h5V7.669h-3.198c.077-.525.656-.792 1.3-1.089C22.99 6.172 24 5.707 24 4.433c0-1.414-.877-1.932-2.466-1.932-1.493 0-2.438.483-2.505 1.999h1.657c.058-.61.28-.77.848-.77"/><path fill-rule="evenodd" d="M17.5 5.747c0-1.054 0-1.581-.392-2.01-.393-.43-.852-.472-1.77-.556q-.576-.05-1.26-.1A28 28 0 0 0 12 3c-.7 0-1.399.03-2.077.081-2.616.195-3.924.292-5.237 1.605s-1.41 2.62-1.605 5.237C3.031 10.6 3 11.3 3 12s.03 1.399.081 2.077c.195 2.616.292 3.924 1.605 5.237s2.62 1.41 5.237 1.605C10.6 20.969 11.3 21 12 21s1.399-.03 2.077-.081c2.616-.195 3.924-.292 5.237-1.605s1.41-2.62 1.605-5.237a30 30 0 0 0 .077-1.61c.008-.442.013-.663-.05-.88a1.56 1.56 0 0 0-1-1.02 1.8 1.8 0 0 0-.477-.063c-.437 0-.656 0-.838-.046a1.5 1.5 0 0 1-1.085-1.086c-.046-.181-.046-.401-.046-.841zM8.5 9h2.483l1.107 4.088L13.205 9H15.5v6H14v-4.83l-1.218 4.33h-1.655L10 10.426V15H8.5z"/></svg>