<svg xmlns="http://www.w3.org/2000/svg" viewBox="0 0 32 32"><path fill-rule="evenodd" d="M27.996 16c0 6.627-5.372 12-12 12-6.627 0-12-5.373-12-12s5.373-12 12-12 12 5.373 12 12M15 25.448v-1.614c0-.737-.597-1.334-1.334-1.334h-.335a1.333 1.333 0 0 1-1.333-1.333v-1.95c0-.354-.14-.693-.39-.943L6.83 13.497A9.5 9.5 0 0 0 6.496 16c0 4.91 3.725 8.95 8.503 9.448m5.41-17.863L18.886 9.11c-.25.25-.589.39-.942.39h-.611c-.737 0-1.334.597-1.334 1.334v.613c0 .354-.14.694-.39.944l-1.799 1.797a1.06 1.06 0 0 0 .75 1.81h3.552c.354 0 .693.14.943.39l4.861 4.862a9.46 9.46 0 0 0 1.58-5.25 9.5 9.5 0 0 0-5.086-8.415"/></svg>