<svg xmlns="http://www.w3.org/2000/svg" viewBox="0 0 44 44"><path fill-rule="evenodd" d="M37.998 22c0 8.838-7.164 16.002-16.001 16.002s-16-7.164-16-16.001S13.16 6 21.996 6s16 7.164 16 16m-18 12.849V32.5a1.5 1.5 0 0 0-1.5-1.5 1.5 1.5 0 0 1-1.5-1.5v-2.77c0-.468-.185-.917-.514-1.25l-6.986-7.07a13 13 0 0 0-.5 3.59c0 6.5 4.77 11.887 11.001 12.849m8.074-24.345-2.058 1.995a1.78 1.78 0 0 1-1.237.5h-1.003c-.982 0-1.778.797-1.778 1.779v.986c0 .471-.187.923-.52 1.257l-3.169 3.169a1.06 1.06 0 0 0 .75 1.808h5.759c.471 0 .924.187 1.257.52l6.723 6.724A12.94 12.94 0 0 0 34.998 22a13 13 0 0 0-6.926-11.497"/></svg>