<svg xmlns="http://www.w3.org/2000/svg" viewBox="0 0 44 44"><path d="M16.517 16.626C16.74 18.514 19.109 20 21.999 20c2.893 0 5.265-1.49 5.483-3.382-.511-2.879-1.116-5.74-1.63-8.618h-7.704c-.514 2.88-1.12 5.744-1.631 8.625M15.1 8c-.634 3.506-1.195 6.141-1.578 8.333C13 18.5 11.344 20 8.714 20 6.403 20 4.434 18.733 4 17.052c.237-1.507 1.492-3.343 3.388-6.21q.428-.648.902-1.37A3.26 3.26 0 0 1 11.015 8zM7.117 22.848A90 90 0 0 0 7 27.5c0 2.906.13 5.438.322 7.59.1 1.116.184 2.065.319 2.91H18.5v-5.001c0-.723.041-1.446.096-2.093.096-1.112.144-1.668.656-2.19.513-.523.991-.573 1.948-.674a8 8 0 0 1 .8-.044q.406.001.8.044c.956.1 1.435.151 1.947.674.513.522.56 1.078.656 2.19.056.647.097 1.37.097 2.093V38h10.859c.134-.845.219-1.794.319-2.91.192-2.152.322-4.683.322-7.59 0-1.677-.044-3.23-.117-4.656a8.7 8.7 0 0 1-1.62.156c-2.243 0-4.789-.94-6.334-2.758a7.4 7.4 0 0 1-1.377 1.18C25.999 22.457 24.027 23 21.999 23s-4-.543-5.553-1.578a7.4 7.4 0 0 1-1.387-1.191C13.514 22.056 10.962 23 8.714 23c-.522 0-1.06-.05-1.597-.152M40 17.052c-.254-1.468-1.47-3.309-3.283-6.052l-.105-.158q-.43-.648-.902-1.37A3.26 3.26 0 0 0 32.985 8H28.9c.634 3.506 1.195 6.141 1.577 8.333C31 18.5 32.656 20 35.286 20c2.311 0 4.28-1.267 4.714-2.948"/></svg>