<svg xmlns="http://www.w3.org/2000/svg" viewBox="0 0 24 24"><path fill-rule="evenodd" d="M19.617 4.888A1.84 1.84 0 0 0 18.043 4H5.956c-.643 0-1.24.337-1.573.888a70 70 0 0 1-1.052 1.679C2.465 7.916 2 8.684 2 9.5c0 1.397.875 2.486 2.06 3.058A50 50 0 0 0 4 15c0 1.55.068 2.903.168 4.056.067.77.121 1.395.234 1.943H19.6c.113-.548.167-1.172.234-1.943a50 50 0 0 0 .109-6.5C21.126 11.985 22 10.896 22 9.499c0-.82-.464-1.584-1.33-2.933a70 70 0 0 1-1.053-1.68M14 19h3.83a48 48 0 0 0 .13-6c-1.114-.01-2.206-.442-2.96-1.177-.763.744-1.872 1.177-3 1.177s-2.237-.433-3-1.177c-.754.735-1.845 1.166-2.959 1.177a48 48 0 0 0 .13 6H10v-1c0-.486.03-.973.067-1.394.054-.606.081-.908.353-1.19C10.8 15.02 11.478 15 12 15s1.2.021 1.58.416c.272.282.299.584.353 1.19.037.421.067.908.067 1.394zm5.66-10.276C19.12 7.8 18.507 6.916 17.952 6h-2.635c.402 1.645.653 2.677.683 3.5 0 .665.717 1.5 2 1.5 1.087 0 1.767-.599 1.95-1.186.126-.404-.092-.752-.29-1.09M6 11c1.283 0 2-.835 2-1.5.03-.823.28-1.855.682-3.5H6.048c-.555.916-1.167 1.8-1.708 2.724-.198.338-.416.686-.29 1.09C4.233 10.4 4.913 11 6 11m4.741-5h2.518c.226.927.473 1.851.643 2.79.06.34.089.586.096.772C13.955 10.216 13.243 11 12 11s-1.955-.784-1.998-1.438c.007-.186.035-.432.096-.772.17-.939.417-1.864.643-2.79"/></svg>