<svg xmlns="http://www.w3.org/2000/svg" viewBox="0 0 16 16"><path d="M13.483 8.938a3.4 3.4 0 0 1-.632.062c-.839 0-1.78-.341-2.413-.998C9.794 8.663 8.836 9 8 9s-1.795-.337-2.439-.998C4.928 8.659 3.987 9 3.148 9c-.206 0-.42-.02-.632-.062q-.016.506-.016 1.063c0 .99.041 1.858.103 2.605.047.557.084 1.004.166 1.394H6.5v-1.752c0-.213.012-.427.028-.624.036-.433.053-.65.238-.84.28-.288.847-.288 1.235-.288s.956 0 1.234.287c.185.19.203.408.239.841.016.197.027.41.027.624V14h3.73c.083-.39.12-.836.166-1.394.062-.747.104-1.615.104-2.605q0-.557-.017-1.063M5.493 2.5H4.058c-.41 0-.793.213-1.01.562-.926 1.495-1.506 2.493-1.546 3.188.053.698.77 1.25 1.646 1.25.832 0 1.527-.55 1.64-1.198.195-1.274.473-2.535.705-3.802m.822 3.75c.043-.26.095-.548.156-.873.146-.773.339-1.725.547-2.877h1.964c.208 1.152.4 2.104.546 2.877q.093.486.156.873a1.16 1.16 0 0 1-.274.64c-.299.367-.819.61-1.41.61-.892 0-1.63-.552-1.685-1.25m6.536 1.25c-.828 0-1.522-.55-1.64-1.194-.194-1.275-.472-2.537-.705-3.806h1.434c.411 0 .793.213 1.01.562.927 1.495 1.508 2.493 1.548 3.188h-.002c-.053.698-.77 1.25-1.645 1.25"/></svg>