<svg xmlns="http://www.w3.org/2000/svg" viewBox="0 0 24 24"><path d="m21.48 4.795.018.085q.025.109.063.31c.05.27.116.666.181 1.186.13 1.04.258 2.582.258 4.624s-.128 3.583-.258 4.624c-.065.52-.13.915-.181 1.185q-.038.203-.063.31l-.028.123a1 1 0 0 1-.564.672l-3.554 1.58a.25.25 0 0 1-.352-.229V5.624a.25.25 0 0 1 .148-.229l2.946-1.309a1 1 0 0 1 .844.015c.28.137.47.395.541.694M2.52 19.205l-.018-.085a11 11 0 0 1-.063-.31c-.05-.27-.116-.666-.181-1.186C2.128 16.584 2 15.042 2 13s.128-3.583.258-4.624c.065-.52.13-.915.181-1.185q.038-.203.063-.31l.028-.124a1 1 0 0 1 .564-.67l3.554-1.58A.25.25 0 0 1 7 4.734v13.641a.25.25 0 0 1-.148.229l-2.946 1.309a1 1 0 0 1-.844-.015 1.02 1.02 0 0 1-.541-.694M9 18.086a.25.25 0 0 0 .19.242l5.5 1.375a.25.25 0 0 0 .31-.242V5.914a.25.25 0 0 0-.19-.242l-5.5-1.375a.25.25 0 0 0-.31.242z"/></svg>