<svg xmlns="http://www.w3.org/2000/svg" viewBox="0 0 17 17"><path d="m15.547 3.236.014.062q.018.08.046.227c.038.197.087.486.135.866.097.76.192 1.886.192 3.377a27 27 0 0 1-.192 3.378 14 14 0 0 1-.181 1.093l-.021.09a.73.73 0 0 1-.42.49l-2.651 1.157a.18.18 0 0 1-.253-.165V3.84a.18.18 0 0 1 .108-.166l2.193-.957a.76.76 0 0 1 .628.011c.208.1.349.289.402.507M1.45 13.761l-.015-.062-.046-.226a14 14 0 0 1-.135-.866 27 27 0 0 1-.192-3.378c0-1.491.095-2.617.192-3.377a14 14 0 0 1 .181-1.093l.021-.09a.73.73 0 0 1 .42-.49l2.651-1.157a.18.18 0 0 1 .253.165v9.97a.18.18 0 0 1-.108.165l-2.192.957a.76.76 0 0 1-.628-.01.75.75 0 0 1-.402-.508m4.924-.814a.18.18 0 0 0 .135.175l3.889 1.002a.18.18 0 0 0 .225-.175V4.051a.18.18 0 0 0-.135-.175L6.599 2.874a.18.18 0 0 0-.225.175z"/></svg>