<svg xmlns="http://www.w3.org/2000/svg" viewBox="0 0 44 44"><path d="M31.623 7.5H21.046a4.9 4.9 0 0 0-3.449 1.425 4.85 4.85 0 0 0-1.428 3.434v5.262h-5.084a5.1 5.1 0 0 0-3.596 1.482A5.05 5.05 0 0 0 6 22.683a5.05 5.05 0 0 0 1.49 3.58 5.1 5.1 0 0 0 3.595 1.482h5.084v5.059a5.04 5.04 0 0 0 1.44 3.666A5.1 5.1 0 0 0 21.252 38a5.1 5.1 0 0 0 3.642-1.53 5.06 5.06 0 0 0 1.44-3.666v-5.059h5.289a4.9 4.9 0 0 0 3.449-1.425 4.85 4.85 0 0 0 1.428-3.434V12.359a4.85 4.85 0 0 0-1.428-3.434 4.9 4.9 0 0 0-3.45-1.425"/></svg>