<svg xmlns="http://www.w3.org/2000/svg" viewBox="0 0 24 24"><path d="M7 7c0 .552-.47 1-1.05 1h-3.9C1.47 8 1 7.552 1 7s.47-1 1.05-1h3.9C6.53 6 7 6.448 7 7m-.05 5C7.53 12 8 11.552 8 11s-.47-1-1.05-1h-3.9C2.47 10 2 10.448 2 11s.47 1 1.05 1z"/><path fill-rule="evenodd" d="M18.393 7.24c-.226-.115-.54-.24-.893-.24H16V5.08a.98.98 0 0 0-.915-.985A50 50 0 0 0 9.5 4.063a1 1 0 0 0 0 2v.001Q10.642 6.002 12 6q1.068.001 2 .04V16H9.83a3.001 3.001 0 0 0-5.532-.305q-.054-.332-.1-.695h-.01a1 1 0 1 0-2 0h-.006l.008.066q.003.06.014.117.06.463.127.882c.093.573.165 1.015.281 1.392.108.348.453.543.816.543h.743a3.001 3.001 0 0 0 5.659 0h4.34a3.001 3.001 0 0 0 5.678-.054 1 1 0 0 0 1.19-.447h.002c.668-.963.746-1.892.874-3.43.054-.649.086-1.343.086-2.069 0-.308-.09-.6-.18-.827a5 5 0 0 0-.366-.73 11 11 0 0 0-1.07-1.469A10 10 0 0 0 19.09 7.7a4.3 4.3 0 0 0-.697-.46m1.528 6.663c.05-.599.072-1.237.072-1.903h-1.146a1 1 0 0 1-.986-.836l-.402-2.152L16 9v5.17a3 3 0 0 1 3.699 1.517c.096-.373.145-.86.222-1.784M7 16a1 1 0 1 0 0 2 1 1 0 0 0 0-2m9 1a1 1 0 1 1 2 0 1 1 0 0 1-2 0"/></svg>