<svg xmlns="http://www.w3.org/2000/svg" viewBox="0 0 24 24"><path fill-rule="evenodd" d="M8.606 8.483A2.94 2.94 0 0 0 9 7c0-1.287-.791-2.307-1.845-2.754 1.31-.14 2.926-.244 4.846-.244 1.134 0 2.162.036 3.084.095A.98.98 0 0 1 16 5.08V7h1.5c.353 0 .667.125.893.24.241.124.477.287.697.46.439.348.891.804 1.294 1.274a11 11 0 0 1 1.07 1.47c.142.24.271.487.366.729.09.226.18.519.18.827 0 .726-.032 1.42-.086 2.068-.128 1.539-.206 2.468-.874 3.43h-.001a1 1 0 0 1-1.191.448A3.001 3.001 0 0 1 14.17 18l-2.284.001H9.829a3.001 3.001 0 0 1-5.658 0l-.743.001c-.363 0-.708-.195-.815-.543-.117-.377-.189-.82-.281-1.392a26 26 0 0 1-.263-2.228c.313.105.644.161.98.161h3.902C8.543 14 10 12.747 10 11a2.95 2.95 0 0 0-1.395-2.517M19.993 12c0 .666-.022 1.304-.072 1.902-.077.925-.126 1.412-.222 1.786A3 3 0 0 0 16 14.17V9l1.46.012.4 2.152a1 1 0 0 0 .987.836zM17 16a1 1 0 1 0 0 2 1 1 0 0 0 0-2m-9 1a1 1 0 1 1-2 0 1 1 0 0 1 2 0"/><path d="M7 7c0 .552-.47 1-1.05 1h-3.9C1.47 8 1 7.552 1 7s.47-1 1.05-1h3.9C6.53 6 7 6.448 7 7m1 4c0 .552-.47 1-1.05 1h-3.9C2.47 12 2 11.552 2 11s.47-1 1.05-1h3.9c.58 0 1.05.448 1.05 1"/></svg>