<svg xmlns="http://www.w3.org/2000/svg" viewBox="0 0 16 16"><path fill-rule="evenodd" d="M5.515 1.418a1.17 1.17 0 0 0-.806.993q-.03.235-.06.529a1.19 1.19 0 0 0-.79.943c-.096.596-.221 1.48-.296 2.462C4.708 5.965 6.415 5.5 8 5.5s3.292.466 4.437.845c-.074-.982-.2-1.866-.296-2.462a1.19 1.19 0 0 0-.789-.943l-.06-.53a1.17 1.17 0 0 0-.807-.992C9.871 1.228 8.935 1 8 1s-1.87.229-2.485.418M7.25 2.5a.75.75 0 0 0 0 1.5h1.5a.75.75 0 0 0 0-1.5z"/><path d="M8 7c-1.341 0-2.866.404-3.971.77-.716.238-1.074.356-1.32.653-.247.298-.225.599-.182 1.2.059.812.192 1.617.473 2.387q.123-.014.25-.014c.096 0 .263-.057.38-.282a2.25 2.25 0 0 1 3.994 0c.117.225.284.282.38.282.09 0 .256-.053.374-.282a2.245 2.245 0 0 1 2.54-1.148c.606.15 1.147.55 1.457 1.148.118.229.283.282.375.282q.127 0 .25.014c.281-.77.414-1.575.473-2.387.043-.601.065-.902-.181-1.2-.247-.297-.605-.415-1.32-.652C10.866 7.404 9.342 7 8 7"/><path d="M10.377 12a.75.75 0 0 1 .666.405c.348.67.996 1.091 1.707 1.091a.75.75 0 0 1 0 1.5c-.929 0-1.76-.383-2.373-.994a3.35 3.35 0 0 1-2.374.994 3.36 3.36 0 0 1-2.376-.994 3.36 3.36 0 0 1-2.377.994.75.75 0 0 1 0-1.5c.712 0 1.363-.421 1.71-1.091a.75.75 0 0 1 1.332 0c.348.67.999 1.091 1.711 1.091.711 0 1.359-.42 1.707-1.091a.75.75 0 0 1 .666-.405"/></svg>