<svg xmlns="http://www.w3.org/2000/svg" viewBox="0 0 32 32"><path fill-rule="evenodd" d="M11.634 3.336c-.966.137-1.744.835-1.94 1.79-.069.331-.136.702-.194 1.096l-.392.082A2.39 2.39 0 0 0 7.25 8.24a53 53 0 0 0-.552 4.023C9.703 11.3 12.828 10.5 16 10.5s6.297.8 9.302 1.762a53 53 0 0 0-.553-4.023 2.39 2.39 0 0 0-1.856-1.935l-.392-.081a20 20 0 0 0-.193-1.097c-.197-.955-.975-1.653-1.94-1.79C19.231 3.176 17.615 3 16 3s-3.232.176-4.367.336M14.75 5.5a1.25 1.25 0 1 0 0 2.5h2.5a1.25 1.25 0 1 0 0-2.5z"/><path d="M16 13c-2.682 0-5.732.764-7.943 1.456-1.431.447-2.147.671-2.64 1.233-.493.561-.45 1.13-.363 2.267.158 2.07.59 4.115 1.648 6.007.67-.115 1.097-.467 1.263-.728a3.75 3.75 0 0 1 6.326 0c.2.316.785.765 1.715.765.924 0 1.503-.445 1.707-.765a3.75 3.75 0 0 1 6.33 0c.168.265.592.614 1.255.727 1.059-1.89 1.49-3.937 1.648-6.006.087-1.137.13-1.706-.363-2.267-.493-.562-1.209-.786-2.64-1.233C21.732 13.764 18.683 13 16 13"/><path d="M20.878 24c.413 0 .818.204 1.056.578.702 1.101 2.111 1.922 3.816 1.922a1.25 1.25 0 0 1 0 2.5c-1.879 0-3.617-.684-4.872-1.83-1.254 1.146-2.993 1.83-4.872 1.83-1.877 0-3.62-.683-4.878-1.83-1.257 1.147-3 1.83-4.878 1.83a1.25 1.25 0 1 1 0-2.5c1.707 0 3.124-.822 3.824-1.922a1.25 1.25 0 0 1 2.108 0c.7 1.1 2.117 1.922 3.824 1.922 1.705 0 3.115-.82 3.816-1.922A1.25 1.25 0 0 1 20.878 24"/></svg>