<svg xmlns="http://www.w3.org/2000/svg" viewBox="0 0 24 24"><path fill-rule="evenodd" d="m16.897 4.57.165.035a1.79 1.79 0 0 1 1.383 1.457c.14.816.316 1.993.432 3.309C16.663 8.622 14.35 8 12 8s-4.663.622-6.877 1.37c.116-1.315.292-2.492.432-3.308a1.79 1.79 0 0 1 1.383-1.457l.165-.036c.048-.353.107-.684.167-.974a1.71 1.71 0 0 1 1.455-1.343C9.576 2.132 10.788 2 12 2s2.424.132 3.275.252a1.71 1.71 0 0 1 1.455 1.343c.06.29.12.62.167.974M11 4a1 1 0 1 0 0 2h2a1 1 0 1 0 0-2z"/><path d="M12 10c-1.95 0-4.169.584-5.777 1.113-1.04.343-1.561.514-1.92.943-.358.43-.327.864-.264 1.734.105 1.443.375 2.872 1.006 4.21.399-.016.707-.233.854-.489a3 3 0 0 1 5.208 0c.152.265.479.489.899.489.415 0 .738-.22.893-.489a3 3 0 0 1 1.854-1.416 3 3 0 0 1 1.503 0 3 3 0 0 1 1.854 1.416c.149.26.453.472.845.488.63-1.337.9-2.766 1.006-4.21.063-.869.094-1.303-.264-1.733-.359-.43-.88-.6-1.92-.943C16.169 10.584 13.95 10 12 10"/><path d="M15.505 18a1 1 0 0 1 .87.504A3.02 3.02 0 0 0 19.002 20a1 1 0 0 1 0 2 5.05 5.05 0 0 1-3.498-1.396A5.05 5.05 0 0 1 12.006 22a5.06 5.06 0 0 1-3.503-1.395A5.06 5.06 0 0 1 5 22a1 1 0 1 1 0-2c1.143 0 2.13-.613 2.635-1.496a1 1 0 0 1 1.736 0c.505.883 1.492 1.496 2.635 1.496a3.02 3.02 0 0 0 2.629-1.496 1 1 0 0 1 .87-.504"/></svg>