<svg xmlns="http://www.w3.org/2000/svg" viewBox="0 0 44 44"><path d="M19.5 11a1.5 1.5 0 0 0 0 3h5a1.5 1.5 0 0 0 0-3z"/><path fill-rule="evenodd" d="M29.592 6.914q.086.469.165 1 .43.095.808.183c1.306.307 2.266 1.37 2.477 2.696.297 1.869.691 4.77.867 7.924.71.302 1.186.606 1.56 1.079.628.793.573 1.595.462 3.2-.218 3.163-.852 6.282-2.457 9.132a1.5 1.5 0 1 1-2.596-1.483c1.31-2.333 1.861-4.965 2.06-7.855l.015-.208c.023-.327.047-.654.047-.982-.465-.238-.97-.406-1.467-.573q-.206-.068-.407-.138C28.39 19.94 24.897 19 22 19s-6.391.94-9.126 1.89l-.407.137c-.498.167-1.003.335-1.467.573 0 .328.024.655.047.982l.015.208c.199 2.89.75 5.523 2.06 7.855A1.5 1.5 0 0 1 11.89 33a1.51 1.51 0 0 1-1.373-.867c-1.605-2.85-2.23-5.974-2.448-9.137-.11-1.605-.166-2.407.462-3.2.374-.473.85-.777 1.56-1.079.176-3.155.57-6.055.867-7.924.21-1.325 1.171-2.39 2.477-2.696q.379-.09.808-.182.079-.533.166-1c.243-1.328 1.301-2.32 2.636-2.516C18.385 4.2 20.193 4 22 4s3.614.2 4.955.399c1.335.196 2.393 1.188 2.637 2.515M13.169 17.63c.19-2.52.503-4.802.752-6.366.026-.164.092-.221.2-.247a101 101 0 0 1 2.031-.447l.759-.162.11-.766c.102-.73.205-1.461.338-2.186.011-.059.07-.082.124-.09C18.745 7.18 20.394 7 22 7s3.255.18 4.517.366c.055.008.113.031.124.09.133.725.236 1.455.339 2.185q.053.383.11.767l.758.162c.678.144 1.356.289 2.03.447.11.026.175.083.201.247.25 1.564.563 3.846.752 6.366C28.186 16.79 24.922 16 22 16s-6.186.79-8.831 1.63"/><path d="M28.254 33.997c.48 0 .953.23 1.243.657C30.397 35.979 32.24 37 34.5 37a1.5 1.5 0 1 1 0 3c-2.404 0-4.644-.837-6.246-2.258C26.652 39.163 24.412 40 22.008 40c-2.402 0-4.648-.836-6.254-2.257C14.148 39.164 11.902 40 9.5 40a1.5 1.5 0 0 1 0-3c2.263 0 4.114-1.023 5.014-2.346a1.5 1.5 0 0 1 2.48 0c.9 1.323 2.752 2.346 5.014 2.346 2.26 0 4.102-1.021 5.003-2.346a1.5 1.5 0 0 1 1.243-.657"/></svg>