<svg xmlns="http://www.w3.org/2000/svg" viewBox="0 0 44 44"><path fill-rule="evenodd" d="M17.045 4.399c-1.335.196-2.393 1.188-2.637 2.515q-.086.469-.165 1-.43.095-.808.183c-1.306.307-2.266 1.37-2.477 2.696a83 83 0 0 0-.702 5.651C14.036 15.14 17.966 14 22 14s7.963 1.14 11.744 2.444a83 83 0 0 0-.702-5.651c-.211-1.325-1.172-2.39-2.478-2.696q-.377-.09-.808-.182-.078-.533-.165-1c-.243-1.328-1.302-2.32-2.636-2.516C25.615 4.2 23.807 4 22 4s-3.615.2-4.955.399M19.5 8a1.5 1.5 0 0 0 0 3h5a1.5 1.5 0 0 0 0-3z"/><path d="M11.89 19.055C14.706 18.08 18.587 17 22 17s7.295 1.079 10.11 2.055c1.821.632 2.732.948 3.36 1.741s.572 1.595.461 3.2c-.234 3.397-.937 6.75-2.82 9.765-.59-.222-.97-.554-1.133-.794a4.52 4.52 0 0 0-3.724-1.97 4.52 4.52 0 0 0-3.724 1.97C24.263 33.36 23.416 34 22.008 34c-1.415 0-2.269-.645-2.533-1.033a4.5 4.5 0 0 0-7.442 0c-.162.238-.545.572-1.143.795-1.883-3.016-2.587-6.368-2.821-9.766-.11-1.605-.166-2.407.462-3.2.627-.793 1.538-1.109 3.36-1.74"/><path d="M29.497 34.654a1.5 1.5 0 0 0-1.243-.657 1.5 1.5 0 0 0-1.243.657c-.9 1.325-2.743 2.346-5.003 2.346-2.262 0-4.114-1.023-5.014-2.346a1.5 1.5 0 0 0-2.48 0C13.614 35.977 11.763 37 9.5 37a1.5 1.5 0 1 0 0 3c2.402 0 4.648-.836 6.254-2.257C17.36 39.164 19.606 40 22.008 40c2.404 0 4.644-.837 6.246-2.258C29.856 39.163 32.096 40 34.5 40a1.5 1.5 0 0 0 0-3c-2.26 0-4.102-1.021-5.003-2.346"/></svg>