<svg xmlns="http://www.w3.org/2000/svg" viewBox="0 0 32 32"><path d="M14.75 8a1.25 1.25 0 1 0 0 2.5h2.5a1.25 1.25 0 1 0 0-2.5z"/><path fill-rule="evenodd" d="M25.435 13.955a51 51 0 0 0-.687-5.716 2.39 2.39 0 0 0-1.856-1.935l-.391-.081a20 20 0 0 0-.194-1.097c-.196-.955-.975-1.653-1.94-1.79C19.23 3.176 17.616 3 16 3s-3.232.176-4.367.336c-.965.137-1.744.835-1.94 1.79-.068.331-.136.702-.194 1.096l-.392.082A2.39 2.39 0 0 0 7.251 8.24a51 51 0 0 0-.686 5.716c-.515.204-.868.415-1.148.734-.493.561-.45 1.13-.363 2.267.153 2.003.562 3.983 1.548 5.823a1.25 1.25 0 1 0 2.224-1.138c-.896-1.65-1.203-3.52-1.315-5.372.264-.103.642-.224 1.292-.427C10.95 15.17 13.706 14.5 16 14.5s5.05.67 7.197 1.342c.65.203 1.028.324 1.292.427-.112 1.853-.421 3.722-1.317 5.37-.1.181-.156.39-.156.611a1.25 1.25 0 0 0 2.382.53c.986-1.84 1.395-3.821 1.548-5.824.087-1.137.13-1.706-.363-2.267-.28-.32-.633-.53-1.148-.734M11.81 7.677l-.092.645-.614.124q-.701.14-1.402.288a50 50 0 0 0-.573 4.401C11.195 12.548 13.73 12 16 12s4.804.547 6.87 1.135a50 50 0 0 0-.573-4.401c-.466-.1-.934-.193-1.4-.288q-.307-.06-.615-.124-.048-.322-.092-.645a35 35 0 0 0-.299-1.883C18.827 5.648 17.397 5.5 16 5.5s-2.827.148-3.891.294c-.122.624-.21 1.254-.299 1.883"/><path d="M20.878 24c.413 0 .818.204 1.056.578.702 1.101 2.111 1.922 3.816 1.922a1.25 1.25 0 0 1 0 2.5c-1.879 0-3.617-.684-4.872-1.83-1.254 1.146-2.993 1.83-4.872 1.83-1.877 0-3.62-.683-4.878-1.83-1.257 1.147-3 1.83-4.878 1.83a1.25 1.25 0 1 1 0-2.5c1.707 0 3.124-.822 3.824-1.922a1.25 1.25 0 0 1 2.108 0c.7 1.1 2.117 1.922 3.824 1.922 1.705 0 3.115-.82 3.816-1.922A1.25 1.25 0 0 1 20.878 24"/></svg>