<svg xmlns="http://www.w3.org/2000/svg" viewBox="0 0 16 16"><path d="M7.25 4a.75.75 0 0 0 0 1.5h1.5a.75.75 0 0 0 0-1.5z"/><path fill-rule="evenodd" d="M3.526 6.941c-.397.143-.637.265-.818.482-.246.298-.224.599-.18 1.2.057.805.189 1.603.464 2.367a.75.75 0 1 0 1.409-.515c-.245-.68-.34-1.397-.389-2.114q.243-.087.488-.166C5.566 7.84 6.906 7.5 8 7.5s2.434.341 3.5.695q.245.08.488.166c-.049.717-.144 1.434-.389 2.113a.75.75 0 1 0 1.408.517c.276-.764.408-1.562.466-2.368.043-.601.065-.902-.181-1.2-.18-.217-.421-.339-.818-.482a28 28 0 0 0-.334-3.058 1.2 1.2 0 0 0-.745-.928l-.062-.542a1.17 1.17 0 0 0-.812-.993C9.9 1.23 8.95 1 8 1s-1.9.23-2.521.42a1.17 1.17 0 0 0-.811.993q-.03.241-.063.542a1.2 1.2 0 0 0-.745.928 28 28 0 0 0-.334 3.058m1.533-.482C5.986 6.207 7.04 6 8 6s2.014.207 2.941.46a28 28 0 0 0-.255-2.17l-.682-.264q-.066-.618-.137-1.235C9.33 2.641 8.645 2.5 8 2.5s-1.33.141-1.867.291q-.07.617-.137 1.235l-.682.264a28 28 0 0 0-.255 2.17"/><path d="M10.377 12a.75.75 0 0 1 .666.405c.348.67.996 1.091 1.707 1.091a.75.75 0 0 1 0 1.5c-.929 0-1.76-.383-2.373-.994a3.35 3.35 0 0 1-2.374.994 3.36 3.36 0 0 1-2.376-.994 3.36 3.36 0 0 1-2.377.994.75.75 0 0 1 0-1.5c.712 0 1.363-.421 1.71-1.091a.75.75 0 0 1 1.332 0c.348.67.999 1.091 1.711 1.091.711 0 1.359-.42 1.707-1.091a.75.75 0 0 1 .666-.405"/></svg>