<svg xmlns="http://www.w3.org/2000/svg" viewBox="0 0 16 16"><path d="M8.63 4.245c.007-.364.082-.802.261-1.237.41-.996 1.211-1.599 1.445-1.497s.37 1.113-.04 2.108l-.048.11q.099-.038.202-.071c1.004-.32 1.969-.082 2.044.168.076.25-.588 1.008-1.592 1.33a3.2 3.2 0 0 1-1.248.143l-.002.001a5 5 0 0 0-.24.21 7 7 0 0 0-.648.697c.26-.107.563-.192.89-.228 1.046-.115 1.948.31 1.975.57s-.766.873-1.812.989c-.738.081-1.404-.107-1.742-.316a6.4 6.4 0 0 0-.598 1.468 3.3 3.3 0 0 1 .958-.425c1.018-.269 1.97.02 2.034.273s-.637.977-1.655 1.246a3.1 3.1 0 0 1-1.523.026c-.033.614.081 1.215.255 1.751a3.4 3.4 0 0 1 .599-.56c.858-.623 1.848-.703 1.995-.49.146.214-.256 1.146-1.114 1.77a3.3 3.3 0 0 1-.956.482 7 7 0 0 0 .329.535l.008.011a.756.756 0 0 1-.137 1.04.71.71 0 0 1-1.01-.142l-.002-.001-.002-.003-.005-.007-.017-.023-.056-.08a8.7 8.7 0 0 1-.715-1.31 7.3 7.3 0 0 1-.598-2.25c-.394-.076-.973-.342-1.465-.826-.76-.748-1.024-1.731-.848-1.92s1.143.04 1.903.787c.18.178.333.369.458.56.119-.795.352-1.5.638-2.114-.36-.155-.91-.618-1.273-1.307-.503-.95-.463-1.97-.24-2.094.223-.125 1.077.396 1.58 1.345.223.422.34.858.38 1.223a8.6 8.6 0 0 1 1.631-1.942"/></svg>