<svg xmlns="http://www.w3.org/2000/svg" viewBox="0 0 16 16"><path fill-rule="evenodd" d="M10.416 7.73a4.6 4.6 0 0 0-3.278-3.534 3.13 3.13 0 0 1 2.706-2.164q.325-.031.656-.032.331.001.656.032c1.403.132 2.532 1.156 2.789 2.493q.017.054.029.111c.022.105.025.228.026.447V5.2c0 .38 0 .569-.017.753a4 4 0 0 1-.695 1.91c-.105.152-.227.298-.47.589l-.526.626c-.747.89-1.12 1.336-1.597 1.41q-.188.029-.378.002.117-.442.16-.9a9 9 0 0 0 .023-.834v-.054a5 5 0 0 0-.084-.972m-.521-2.835c-.12.12-.126.235-.14.466a2 2 0 0 0 0 .278c.014.231.02.347.14.466s.235.126.466.14a2 2 0 0 0 .278 0c.231-.014.347-.02.466-.14s.126-.235.14-.466a2 2 0 0 0 0-.278c-.014-.231-.02-.347-.14-.466s-.235-.126-.466-.14a2 2 0 0 0-.278 0c-.231.014-.347.02-.466.14"/><path d="M4.895 8.395c-.12.119-.126.235-.14.466a2 2 0 0 0 0 .278c.014.231.02.347.14.466s.235.126.466.14a2 2 0 0 0 .278 0c.231-.014.347-.02.466-.14.12-.119.126-.235.14-.466a2 2 0 0 0 0-.278c-.014-.231-.02-.347-.14-.466s-.235-.126-.466-.14a2 2 0 0 0-.278 0c-.231.014-.347.02-.466.14"/><path fill-rule="evenodd" d="M6.156 5.532c1.404.132 2.532 1.156 2.789 2.493.046.221.056.45.055.676 0 .38 0 .569-.017.753a4 4 0 0 1-.695 1.91 9 9 0 0 1-.47.589l-.526.626c-.747.89-1.12 1.336-1.597 1.41q-.195.03-.39 0c-.477-.074-.85-.52-1.597-1.41l-.525-.626c-.244-.291-.366-.436-.471-.588a4 4 0 0 1-.695-1.911A9 9 0 0 1 2 8.7c0-.39.056-.68.056-.68.258-1.335 1.386-2.357 2.788-2.489q.325-.031.656-.032.331.001.656.032m-.013 6.083c-.299.356-.494.587-.643.746-.15-.16-.345-.39-.643-.746l-.525-.626a8 8 0 0 1-.387-.478 2.5 2.5 0 0 1-.434-1.195c-.096-1.04.158-2.167 1.473-2.29Q5.25 7 5.5 7q.251 0 .516.026c1.355.127 1.569 1.256 1.473 2.29-.04.429-.19.84-.435 1.195a8 8 0 0 1-.386.478z"/><path d="m12.448 11.414-.145-.145.094-.087c.261-.245.535-.561.813-.891l.18.18c1.302 1.302.382 3.528-1.46 3.528H8.034q.168-.196.34-.402l.605-.723.174-.208h2.777c.652 0 .98-.79.518-1.252"/></svg>