<svg xmlns="http://www.w3.org/2000/svg" viewBox="0 0 16 16"><path d="M3.935 6.286a.723.723 0 0 1 1.074-.04.784.784 0 0 1 .041 1.046c-.704.872-1.08 1.582-1.282 2.104-.29.747-.141 1.862.416 2.42.51.509 1.542.697 2.252.462.528-.175 1.296-.545 2.271-1.33a.785.785 0 0 1 1.046.042.723.723 0 0 1-.04 1.074c-1.125.916-2.071 1.395-2.806 1.638-1.24.41-2.865.093-3.783-.825-.985-.985-1.256-2.727-.755-4.022.27-.699.745-1.564 1.566-2.57m7.015 2.423a.784.784 0 0 0 .042 1.046.724.724 0 0 0 1.073-.04c.772-.941 1.24-1.758 1.522-2.43.552-1.32.314-3.134-.711-4.16-1.052-1.051-2.91-1.264-4.25-.677-.656.288-1.443.75-2.341 1.487a.724.724 0 0 0-.04 1.074.783.783 0 0 0 1.047.04c.78-.631 1.432-1.005 1.937-1.227.776-.34 1.969-.253 2.586.364.598.598.707 1.759.388 2.52-.214.51-.59 1.185-1.252 2.003"/><path d="M9.777 7.283a.75.75 0 0 0-1.06-1.06L6.22 8.719a.75.75 0 0 0 1.06 1.06z"/></svg>