<svg xmlns="http://www.w3.org/2000/svg" viewBox="0 0 24 24"><path d="M5.971 9.345a1.02 1.02 0 0 1 1.471-.064l.002.002a.976.976 0 0 1 .066 1.339l-.03.037c-1.134 1.382-1.739 2.51-2.061 3.345-.47 1.212-.226 2.99.681 3.897.829.829 2.482 1.134 3.633.753.846-.28 2.066-.875 3.607-2.135l.038-.031a.975.975 0 0 1 1.338.066l.002.003a1.02 1.02 0 0 1-.065 1.471c-1.723 1.419-3.171 2.154-4.292 2.525-1.86.616-4.297.14-5.675-1.238-1.478-1.478-1.884-4.09-1.133-6.033.413-1.067 1.144-2.393 2.418-3.937"/><path d="m5.971 9.345.023-.028-.027.033zm8.682 8.683-.005.004.032-.026zm1.903-3.31.002.002a1.02 1.02 0 0 0 1.448-.037l.027-.031-.004.004c1.199-1.448 1.921-2.702 2.352-3.731.83-1.986.469-4.701-1.067-6.238-1.58-1.58-4.357-1.9-6.373-1.016-1.006.441-2.215 1.155-3.598 2.3l.005-.004-.03.024.025-.02a1.02 1.02 0 0 0-.063 1.47l.002.002a.976.976 0 0 0 1.34.065l.037-.03c1.239-1.02 2.277-1.621 3.085-1.975 1.25-.548 3.172-.385 4.156.599.946.946 1.148 2.826.636 4.05-.342.818-.947 1.891-2.015 3.189l-.03.036a.976.976 0 0 0 .065 1.34M9.315 5.994l.003-.001z"/><path d="M14.707 10.707a1 1 0 0 0-1.414-1.414l-4 4a1 1 0 1 0 1.414 1.414z"/></svg>