<svg xmlns="http://www.w3.org/2000/svg" viewBox="0 0 24 24"><path d="M13.423 7.841a1 1 0 0 0 1.154-1.634l-.331-.233c-.526-.371-.96-.679-1.319-.942q.504.02 1.002.057c2.75.204 3.265.318 3.97 1.024.707.707.82 1.221 1.025 3.971.048.638.076 1.274.076 1.916 0 .546.433 1 .979 1h.04a.97.97 0 0 0 .981-.96V12c0-.7-.03-1.386-.081-2.064-.195-2.616-.292-3.924-1.605-5.237s-2.62-1.41-5.237-1.605a30 30 0 0 0-1.196-.065c.368-.272.816-.59 1.365-.977l.33-.233A1 1 0 0 0 13.424.185l-.33.233c-2.319 1.637-3.478 2.455-3.478 3.595s1.16 1.958 3.477 3.595zm-3.039 13.105c1.744-.13 2.617-.195 3.492-1.07.875-.876.94-1.748 1.07-3.492.034-.452.054-.918.054-1.385s-.02-.933-.054-1.385c-.13-1.744-.195-2.616-1.07-3.491-.875-.876-1.748-.94-3.492-1.07A19 19 0 0 0 9 8.999c-.466 0-.933.02-1.385.054-1.744.13-2.616.194-3.491 1.07-.876.875-.94 1.747-1.07 3.491-.034.452-.054.919-.054 1.385 0 .467.02.933.054 1.385.13 1.744.194 2.616 1.07 3.492.875.875 1.747.94 3.491 1.07.452.034.919.054 1.385.054.467 0 .933-.02 1.385-.054"/></svg>