<svg xmlns="http://www.w3.org/2000/svg" viewBox="0 0 44 44"><path fill-rule="evenodd" d="M.198 16.922c.476-6.394.714-9.591 3.923-12.8S10.528.673 16.923.197A69 69 0 0 1 22 0c1.71 0 3.42.075 5.078.198 6.394.476 9.592.714 12.8 3.923 3.21 3.21 3.448 6.407 3.924 12.802A69 69 0 0 1 44 22c0 1.71-.075 3.42-.198 5.078-.476 6.394-.714 9.592-3.923 12.8-3.21 3.21-6.407 3.448-12.801 3.924A69 69 0 0 1 22 44c-1.71 0-3.42-.075-5.078-.198-6.394-.476-9.591-.714-12.8-3.923S.673 33.472.197 27.078A69 69 0 0 1 0 22c0-1.71.075-3.42.198-5.078m19.881 1.819a7.7 7.7 0 0 0-2.443.04 7.6 7.6 0 0 0-1.563.459 7.8 7.8 0 0 0-2.215 1.311 8.6 8.6 0 0 0-1.865 2.278c-.184.316-.876 1.577-.96 3.632-.048 1.164.301 2.366.468 2.867v.004c.103.288.515 1.297 1.186 2.151q.293.372.626.71.583.591 1.267 1.064c2.103 1.427 4.44 1.33 4.44 1.33l.119-.004c.51-.016 1.764-.056 3.176-.721 1.708-.804 2.676-1.999 2.676-1.999l.048-.057a8.3 8.3 0 0 0 1.41-2.351c.396-1.03.525-2.262.525-2.756v-8.87c.057.03.758.49.758.49s1.015.644 2.594 1.064c1.13.3 2.659.362 2.659.362v-4.294c-.29.03-.734-.003-1.257-.125a6.8 6.8 0 0 1-1.474-.535c-.91-.455-1.618-1.194-1.756-1.343l-.025-.027c-1.74-1.99-1.501-4.015-1.501-4.015h-4.346v16.742c0 .579 0 1.14-.195 1.698-.32.904-.997 1.72-1.9 2.078-1.353.541-2.41.483-3.673-.351a3.5 3.5 0 0 1-.813-.786c-.587-.802-.714-1.728-.71-2.438.151-1.305.666-2.036 1.632-2.785 1.384-1.015 3.112-.441 3.112-.441z"/></svg>