<svg xmlns="http://www.w3.org/2000/svg" viewBox="0 0 44 44"><path fill-rule="evenodd" d="M13.357 25.648c.822.748 3.2 2.352 8.456 2.352 5.144 0 7.53-1.536 8.4-2.303.275-.241.314-.629.156-.958l-3.66-7.648s.596.076 1.791 0a3.63 3.63 0 0 0 1.917-.568c.7-.443.517-1.384-.173-1.842-.776-.515-1.72-1.159-2.244-1.58-1.84-1.478-3.028-2.683-3.883-3.55C23.13 8.551 22.587 8 22 8c-2.644 0-7.818 13.99-8.827 16.789-.11.307-.058.64.184.86M4 28.174c0-2.641 3.01-4.977 7.62-6.394a167 167 0 0 0-.8 2.161c-.386 1.073-.271 2.533.855 3.557 1.332 1.21 4.328 3.002 10.138 3.002 5.682 0 8.676-1.714 10.053-2.926 1.287-1.134 1.291-2.801.758-3.915l-1.005-2.1C36.656 22.946 40 25.39 40 28.174 40 32.496 31.941 36 22 36S4 32.496 4 28.174"/></svg>