<svg xmlns="http://www.w3.org/2000/svg" viewBox="0 0 24 24"><path fill-rule="evenodd" d="M7.83 13.84C8.356 14.285 9.581 15 12 15c2.336 0 3.558-.668 4.113-1.113.267-.214.303-.577.163-.89L14.5 9s.53.009 1.12-.027a1.5 1.5 0 0 0 .823-.31c.399-.302.246-.867-.166-1.15-.551-.38-1.275-.896-1.638-1.23-.453-.418-.833-.793-1.157-1.112C12.739 4.44 12.292 4 11.95 4c-1.302 0-3.698 7.164-4.307 9.05-.092.286-.043.597.187.79M2 15.256c0-1.692 1.862-3.177 4.665-4.018a88 88 0 0 0-.45 1.352c-.226.702-.167 1.712.65 2.4.82.69 2.396 1.511 5.135 1.511 2.643 0 4.204-.764 5.05-1.442.951-.761.926-1.93.597-2.67l-.541-1.218c2.93.828 4.894 2.347 4.894 4.085 0 2.623-4.477 4.75-10 4.75s-10-2.127-10-4.75"/></svg>