<svg xmlns="http://www.w3.org/2000/svg" viewBox="0 0 16 16"><path fill-rule="evenodd" d="M5.165 9.676c.32.286 1.146.824 2.835.824 1.657 0 2.441-.518 2.75-.807.118-.11.133-.28.072-.428L9.604 6.313s.172-.033.396-.088c.125-.03.283-.076.45-.127.41-.126.466-.687.105-.921a10 10 0 0 1-1.055-.77c-.303-.265-.577-.637-.816-.962-.28-.38-.51-.694-.684-.694-.878 0-2.57 5.347-2.93 6.523a.38.38 0 0 0 .095.402M1 10.348C1 8.95 2.505 7.736 4.716 7.122a65 65 0 0 0-.603 1.858c-.134.437-.078 1.026.385 1.441C5.011 10.88 6.078 11.5 8 11.5c1.885 0 2.922-.597 3.435-1.078.497-.467.486-1.114.311-1.538l-.759-1.84C13.36 7.63 15 8.89 15 10.348 15 12.365 11.866 14 8 14s-7-1.635-7-3.652"/></svg>