<svg xmlns="http://www.w3.org/2000/svg" viewBox="0 0 24 24"><path fill-rule="evenodd" d="M11.95 3c-.597 0-1.028.382-1.256.62-.267.278-.515.64-.74 1.017-.455.764-.917 1.771-1.342 2.798a67 67 0 0 0-1.363 3.64C4.123 11.876 2 13.447 2 15.254c0 2.623 4.477 4.75 10 4.75s10-2.127 10-4.75c0-1.857-2.243-3.465-5.513-4.246l-.472-1.062q.127-.011.252-.026a6 6 0 0 0 .64-.104c.189-.044.44-.115.664-.247.194-.114.674-.467.628-1.125-.037-.544-.429-.867-.599-.995-1.444-1.083-2.492-2.106-3.289-2.884l-.025-.025c-.378-.369-.733-.716-1.04-.967a3.4 3.4 0 0 0-.527-.364A1.6 1.6 0 0 0 11.95 3m5.404 10.348a1.62 1.62 0 0 1-.616 1.32C15.989 15.268 14.54 16 12 16c-2.632 0-4.091-.786-4.814-1.394a1.64 1.64 0 0 1-.585-1.242q-.436.16-.814.338C4.15 14.48 4 15.163 4 15.256s.15.774 1.787 1.552c1.487.706 3.681 1.198 6.213 1.198s4.726-.492 6.213-1.198C19.85 16.029 20 15.347 20 15.255s-.15-.775-1.787-1.553a10 10 0 0 0-.859-.354M14.516 8l-1.566-.025.636 1.431 1.707 3.841C14.82 13.556 13.827 14 12 14c-1.91 0-2.908-.485-3.356-.795.328-1.01 1.036-3.117 1.816-5.005.414-1 .832-1.902 1.212-2.54q.196-.327.341-.51c.225.188.508.463.9.847l.01.009c.554.54 1.261 1.231 2.156 1.99h-.06a16 16 0 0 1-.47.004z"/></svg>