<svg xmlns="http://www.w3.org/2000/svg" viewBox="0 0 16 16"><path fill-rule="evenodd" d="M8 2.001a1.07 1.07 0 0 0-.582.182c-.137.089-.252.2-.344.304a4.3 4.3 0 0 0-.508.755c-.312.564-.631 1.306-.924 2.057-.227.585-.445 1.19-.636 1.747C2.638 7.632 1 8.89 1 10.348 1 12.365 4.134 14 8 14s7-1.635 7-3.652c0-1.52-1.78-2.823-4.312-3.373l-.06-.146.037-.012c.194-.062.482-.165.695-.325a.93.93 0 0 0 .383-.625c.056-.443-.232-.718-.387-.827a8.3 8.3 0 0 1-1.867-1.814l-.18-.236c-.13-.172-.26-.344-.367-.47a2 2 0 0 0-.326-.309A1.05 1.05 0 0 0 8 2.001m3.414 6.733.101.245c.147.356.151.883-.252 1.26-.461.434-1.435 1.011-3.263 1.011-1.864 0-2.87-.6-3.335-1.015a1.13 1.13 0 0 1-.313-1.181l.082-.265a6 6 0 0 0-.69.307C2.66 9.662 2.5 10.18 2.5 10.348s.16.687 1.244 1.252c1.012.529 2.514.9 4.256.9s3.244-.371 4.256-.9c1.085-.565 1.244-1.084 1.244-1.252s-.16-.686-1.244-1.252a6.5 6.5 0 0 0-.842-.362M8.302 4.143c.308.399.718.894 1.288 1.407l-.063.013-.05.01-.011.003h-.003l-.903.172.35.85 1.117 2.706c-.305.19-.917.446-2.027.446-1.176 0-1.827-.287-2.142-.489.222-.709.678-2.123 1.182-3.417.285-.733.576-1.4.839-1.876q.067-.12.126-.216l.062.083q.097.13.235.308"/></svg>