<svg xmlns="http://www.w3.org/2000/svg" viewBox="0 0 16 16"><path d="M4.994 3.118C5.837 3.048 6.84 3 8.002 3s2.164.048 3.007.118c1.38.115 2.069.172 2.933 1.038.633.634.829 1.137.928 1.848H1.134c.099-.71.295-1.214.928-1.848.864-.866 1.554-.923 2.932-1.038M1.011 7.504a14 14 0 0 0 .036 1.61c.1 1.242.15 1.863 1.015 2.73.864.866 1.554.923 2.932 1.038a39 39 0 0 0 4.422.094A2.25 2.25 0 0 1 9.752 8.5h4.5q.388.002.736.123a14 14 0 0 0 .005-1.12z"/><path d="M14.252 11.5a.75.75 0 0 0 0-1.5h-4.5a.75.75 0 0 0 0 1.5z"/></svg>