<svg xmlns="http://www.w3.org/2000/svg" viewBox="0 0 44 44"><path fill-rule="evenodd" d="M28.04 11.202q-.235.236-.467.49c-.359.392-.619.676-.832.93-.21.248-.318.401-.38.502-.052.087-.062.124-.066.137a1 1 0 0 0-.021.239c0 .159.017.224.021.24.004.012.014.049.067.136a4 4 0 0 0 .379.502 33 33 0 0 0 1.3 1.42q.235.236.49.468c.392.359.676.618.93.832.248.21.4.318.502.38a.5.5 0 0 0 .137.066 1 1 0 0 0 .239.02 1 1 0 0 0 .24-.02.5.5 0 0 0 .136-.067c.1-.061.254-.17.502-.379a33 33 0 0 0 1.42-1.3q.236-.236.468-.49c.359-.392.618-.676.832-.93a4 4 0 0 0 .379-.502.5.5 0 0 0 .066-.137 1 1 0 0 0 .022-.239 1 1 0 0 0-.022-.24.5.5 0 0 0-.066-.136 4 4 0 0 0-.38-.502 33 33 0 0 0-1.3-1.42 33 33 0 0 0-1.42-1.3 4 4 0 0 0-.501-.38.5.5 0 0 0-.137-.066 1 1 0 0 0-.24-.02 1 1 0 0 0-.238.02.5.5 0 0 0-.137.067 4 4 0 0 0-.502.379 33 33 0 0 0-1.42 1.3M23.275 13.5c0 1.554.695 2.314 2.086 3.834a18 18 0 0 0 1.145 1.145c1.52 1.39 2.28 2.086 3.834 2.086s2.314-.695 3.833-2.086a18 18 0 0 0 1.146-1.145c1.39-1.52 2.086-2.28 2.086-3.834s-.696-2.314-2.086-3.834a18 18 0 0 0-1.146-1.145c-1.52-1.39-2.28-2.086-3.833-2.086s-2.314.695-3.834 2.086a18 18 0 0 0-1.145 1.145c-1.39 1.52-2.086 2.28-2.086 3.834m-10.648-3.476a16 16 0 0 1 1.748 0c.534.029.922.05 1.257.081.327.03.518.064.639.094a.6.6 0 0 1 .154.054 1 1 0 0 1 .176.147c.107.107.14.162.147.176s.028.05.054.154c.03.121.063.312.094.64.03.334.052.722.08 1.256a16 16 0 0 1 0 1.748c-.028.534-.05.922-.08 1.257-.03.327-.064.518-.094.639a.6.6 0 0 1-.054.154 1 1 0 0 1-.147.176 1 1 0 0 1-.176.147.6.6 0 0 1-.154.054 4.5 4.5 0 0 1-.64.094c-.334.03-.722.052-1.256.08a16 16 0 0 1-1.748 0 36 36 0 0 1-1.257-.08 4.4 4.4 0 0 1-.639-.094.6.6 0 0 1-.154-.054 1 1 0 0 1-.176-.147 1 1 0 0 1-.147-.176.6.6 0 0 1-.054-.154 4.4 4.4 0 0 1-.094-.64 34 34 0 0 1-.08-1.256 16 16 0 0 1 0-1.748c.028-.534.05-.922.08-1.257.03-.327.064-.518.094-.639a.6.6 0 0 1 .054-.154 1 1 0 0 1 .147-.176 1 1 0 0 1 .176-.147.6.6 0 0 1 .154-.054 4.5 4.5 0 0 1 .64-.094c.334-.03.722-.052 1.256-.08M7.03 12.466c.11-2.069.166-3.103 1.25-4.187s2.118-1.14 4.187-1.25a19 19 0 0 1 2.068 0c2.069.11 3.103.166 4.187 1.25s1.14 2.118 1.25 4.187a19 19 0 0 1 0 2.068c-.11 2.069-.166 3.103-1.25 4.187s-2.118 1.14-4.187 1.25a19 19 0 0 1-2.068 0c-2.069-.11-3.103-.166-4.187-1.25s-1.14-2.118-1.25-4.187a19 19 0 0 1 0-2.068m5.597 14.558a16 16 0 0 1 1.748 0c.534.029.922.05 1.257.081.327.03.518.064.639.094a.6.6 0 0 1 .154.054 1 1 0 0 1 .176.147c.107.107.14.162.147.176s.028.05.054.154c.03.121.063.312.094.64.03.333.052.722.08 1.256a16 16 0 0 1 0 1.748c-.028.534-.05.923-.08 1.257-.03.327-.064.518-.094.639a.6.6 0 0 1-.054.154 1 1 0 0 1-.147.176 1 1 0 0 1-.176.147.6.6 0 0 1-.154.054 4.5 4.5 0 0 1-.64.094c-.334.03-.722.052-1.256.08a16 16 0 0 1-1.748 0 36 36 0 0 1-1.257-.08 4.4 4.4 0 0 1-.639-.094.6.6 0 0 1-.154-.054 1 1 0 0 1-.176-.147 1 1 0 0 1-.147-.176.6.6 0 0 1-.054-.154 4.4 4.4 0 0 1-.094-.64 34 34 0 0 1-.08-1.256 16 16 0 0 1 0-1.748c.028-.534.05-.923.08-1.257.03-.327.064-.518.094-.639a.6.6 0 0 1 .054-.154 1 1 0 0 1 .147-.176 1 1 0 0 1 .176-.147.6.6 0 0 1 .154-.054 4.5 4.5 0 0 1 .64-.094c.334-.03.722-.052 1.256-.08M7.03 29.466c.11-2.069.166-3.103 1.25-4.187s2.118-1.14 4.187-1.25a19 19 0 0 1 2.068 0c2.069.11 3.103.166 4.187 1.25s1.14 2.118 1.25 4.187a19 19 0 0 1 0 2.068c-.11 2.069-.166 3.103-1.25 4.187s-2.118 1.14-4.187 1.25a19 19 0 0 1-2.068 0c-2.069-.11-3.103-.166-4.187-1.25s-1.14-2.118-1.25-4.187a19 19 0 0 1 0-2.068m22.597-2.442a16 16 0 0 1 1.748 0c.534.029.923.05 1.257.081.327.03.518.064.639.094a.6.6 0 0 1 .154.054 1 1 0 0 1 .176.147c.107.107.14.162.147.176s.028.05.054.154c.03.121.063.312.094.64.03.333.052.722.08 1.256a16 16 0 0 1 0 1.748c-.028.534-.05.923-.08 1.257-.03.327-.064.518-.094.639a.6.6 0 0 1-.054.154 1 1 0 0 1-.147.176 1 1 0 0 1-.176.147.6.6 0 0 1-.154.054 4.5 4.5 0 0 1-.64.094c-.334.03-.722.052-1.256.08a16 16 0 0 1-1.748 0c-.534-.028-.923-.05-1.257-.08a4.4 4.4 0 0 1-.639-.094.6.6 0 0 1-.154-.054 1 1 0 0 1-.176-.147 1 1 0 0 1-.147-.176.6.6 0 0 1-.054-.154 4.4 4.4 0 0 1-.094-.64 34 34 0 0 1-.08-1.256 16 16 0 0 1 0-1.748c.028-.534.05-.923.08-1.257.03-.327.064-.518.094-.639a.6.6 0 0 1 .054-.154 1 1 0 0 1 .147-.176 1 1 0 0 1 .176-.147.6.6 0 0 1 .154-.054 4.5 4.5 0 0 1 .64-.094c.333-.03.722-.052 1.256-.08m-5.597 2.442c.11-2.069.166-3.103 1.25-4.187s2.118-1.14 4.187-1.25a19 19 0 0 1 2.068 0c2.069.11 3.103.166 4.187 1.25s1.14 2.118 1.25 4.187a19 19 0 0 1 0 2.068c-.11 2.069-.166 3.103-1.25 4.187s-2.118 1.14-4.187 1.25a19 19 0 0 1-2.068 0c-2.069-.11-3.103-.166-4.187-1.25s-1.14-2.118-1.25-4.187a19 19 0 0 1 0-2.068"/></svg>