<svg xmlns="http://www.w3.org/2000/svg" viewBox="0 0 28 28"><path fill-rule="evenodd" d="M7.819 6.021a12 12 0 0 1 1.362 0c.361.021.626.037.854.06.223.022.355.045.44.066a.5.5 0 0 1 .116.04c.011.008.05.03.12.101.072.072.094.11.101.122.007.01.022.04.04.114.022.086.046.218.067.441.023.228.039.493.06.854a12 12 0 0 1 0 1.362 21 21 0 0 1-.06.854 3 3 0 0 1-.066.44.5.5 0 0 1-.04.116.6.6 0 0 1-.102.12.6.6 0 0 1-.12.101.5.5 0 0 1-.115.04 3 3 0 0 1-.442.067c-.227.023-.492.039-.853.06a12 12 0 0 1-1.362 0 24 24 0 0 1-.854-.06 3 3 0 0 1-.44-.066.5.5 0 0 1-.115-.04.6.6 0 0 1-.122-.102.6.6 0 0 1-.1-.12.5.5 0 0 1-.04-.115 3 3 0 0 1-.067-.442 23 23 0 0 1-.06-.853 12 12 0 0 1 0-1.362 21 21 0 0 1 .06-.854c.022-.223.045-.355.066-.44a.5.5 0 0 1 .04-.115.6.6 0 0 1 .101-.122.6.6 0 0 1 .122-.1.5.5 0 0 1 .114-.04 3 3 0 0 1 .441-.067 21 21 0 0 1 .854-.06m-3.794 1.68c.082-1.4.124-2.101.85-2.827C5.6 4.15 6.3 4.107 7.7 4.024a14 14 0 0 1 1.598 0c1.4.083 2.101.125 2.827.85.725.726.767 1.426.85 2.827a14 14 0 0 1 0 1.598c-.083 1.4-.125 2.101-.85 2.827-.726.725-1.426.767-2.827.85a14 14 0 0 1-1.598 0c-1.4-.083-2.101-.125-2.827-.85-.725-.726-.767-1.426-.85-2.827a14 14 0 0 1 0-1.598m3.794 9.32a12 12 0 0 1 1.362 0c.361.021.626.037.854.06.223.021.355.045.44.066a.5.5 0 0 1 .116.04c.011.008.05.03.12.101.072.072.094.11.101.122.007.01.022.04.04.114.022.086.046.218.067.441.023.228.039.493.06.854a12 12 0 0 1 0 1.362 21 21 0 0 1-.06.854 3 3 0 0 1-.066.44.5.5 0 0 1-.04.115.6.6 0 0 1-.102.122.6.6 0 0 1-.12.1.5.5 0 0 1-.115.04 3 3 0 0 1-.442.067c-.227.023-.492.039-.853.06a12 12 0 0 1-1.362 0 24 24 0 0 1-.854-.06 3 3 0 0 1-.44-.066.5.5 0 0 1-.115-.04.6.6 0 0 1-.122-.101.6.6 0 0 1-.1-.122.5.5 0 0 1-.04-.114 3 3 0 0 1-.067-.441 23 23 0 0 1-.06-.854 12 12 0 0 1 0-1.362 21 21 0 0 1 .06-.854c.022-.223.045-.355.066-.44a.5.5 0 0 1 .04-.115.6.6 0 0 1 .101-.122.6.6 0 0 1 .122-.1.5.5 0 0 1 .114-.04 3 3 0 0 1 .441-.067 21 21 0 0 1 .854-.06m-3.794 1.68c.082-1.4.124-2.101.85-2.827.725-.725 1.425-.767 2.826-.85a14 14 0 0 1 1.598 0c1.4.083 2.101.125 2.827.85.725.726.767 1.426.85 2.827a14 14 0 0 1 0 1.598c-.083 1.4-.125 2.101-.85 2.827-.726.725-1.426.767-2.827.85a14 14 0 0 1-1.598 0c-1.4-.083-2.101-.125-2.827-.85-.725-.726-.767-1.426-.85-2.827a14 14 0 0 1 0-1.598M19.5 17q-.337 0-.681.021a21 21 0 0 0-.854.06 3 3 0 0 0-.44.066.5.5 0 0 0-.115.04.6.6 0 0 0-.122.101.6.6 0 0 0-.1.122.5.5 0 0 0-.04.114 3 3 0 0 0-.067.441 21 21 0 0 0-.06.854 12 12 0 0 0 0 1.362c.021.361.037.626.06.854.021.223.045.355.066.44a.5.5 0 0 0 .04.115c.008.012.03.05.101.122.072.07.11.093.122.1.01.006.04.022.114.04.086.022.218.046.441.067.228.023.493.039.854.06a12 12 0 0 0 1.362 0 21 21 0 0 0 .854-.06c.223-.021.355-.045.44-.066a.5.5 0 0 0 .115-.04.6.6 0 0 0 .122-.101.6.6 0 0 0 .1-.122.5.5 0 0 0 .04-.114 3 3 0 0 0 .067-.441 21 21 0 0 0 .06-.854 12 12 0 0 0 0-1.362 24 24 0 0 0-.06-.854 3 3 0 0 0-.066-.44.5.5 0 0 0-.04-.115.6.6 0 0 0-.101-.122.6.6 0 0 0-.122-.1.5.5 0 0 0-.114-.04 3 3 0 0 0-.441-.067 24 24 0 0 0-.854-.06A12 12 0 0 0 19.5 17m-3.626-1.126c-.725.726-.767 1.426-.85 2.827a14 14 0 0 0 0 1.598c.083 1.4.125 2.101.85 2.827.726.725 1.426.767 2.827.85a14 14 0 0 0 1.598 0c1.4-.083 2.101-.125 2.827-.85.725-.726.767-1.426.85-2.827a14 14 0 0 0 0-1.598c-.083-1.4-.125-2.101-.85-2.827-.726-.725-1.426-.767-2.827-.85a14 14 0 0 0-1.598 0c-1.4.083-2.101.125-2.827.85m2.068-8.58a10 10 0 0 1 .408-.41c.26-.243.447-.418.613-.562.163-.14.262-.212.327-.252a.3.3 0 0 1 .088-.043.7.7 0 0 1 .179-.016c.117 0 .166.013.179.016.01.003.033.01.088.043.064.04.164.111.326.252a21 21 0 0 1 .821.764q.1.1.201.207c.244.26.42.447.563.613.14.163.212.262.252.327a.3.3 0 0 1 .043.088.7.7 0 0 1 .016.179.7.7 0 0 1-.016.18.3.3 0 0 1-.043.087 3 3 0 0 1-.252.327 21 21 0 0 1-.764.82 21 21 0 0 1-.82.764c-.163.14-.263.212-.327.252a.3.3 0 0 1-.088.043.7.7 0 0 1-.18.016.7.7 0 0 1-.178-.016.3.3 0 0 1-.088-.043 3 3 0 0 1-.327-.252 21 21 0 0 1-.82-.764 21 21 0 0 1-.764-.82 3 3 0 0 1-.252-.327.3.3 0 0 1-.043-.088.7.7 0 0 1-.016-.179c0-.117.012-.166.016-.18a.3.3 0 0 1 .043-.087 3 3 0 0 1 .252-.327c.143-.166.319-.353.563-.613m-1.457 3.783c-.945-1.005-1.417-1.507-1.417-2.577s.472-1.572 1.417-2.577a11 11 0 0 1 .495-.495c1.005-.945 1.507-1.417 2.577-1.417s1.572.472 2.577 1.417a12 12 0 0 1 .495.495c.945 1.005 1.417 1.507 1.417 2.577s-.472 1.572-1.417 2.577a11 11 0 0 1-.495.495c-1.005.945-1.507 1.417-2.577 1.417s-1.572-.472-2.577-1.417a11 11 0 0 1-.495-.495"/></svg>