<svg xmlns="http://www.w3.org/2000/svg" viewBox="0 0 24 24"><path fill-rule="evenodd" d="M15.33 6.914a8 8 0 0 1 .58-.58c.201-.18.338-.303.459-.403a3 3 0 0 1 .127-.1q.046.033.128.1a17 17 0 0 1 .756.685q.142.143.282.298c.18.201.303.338.403.458q.067.082.101.128a3 3 0 0 1-.101.128 17 17 0 0 1-.685.756 17 17 0 0 1-.756.685 3 3 0 0 1-.128.1 3 3 0 0 1-.127-.1 17 17 0 0 1-.757-.685 16 16 0 0 1-.685-.756 3 3 0 0 1-.1-.128q.034-.046.1-.128c.1-.12.223-.257.403-.458m-1.487 2.508c-.693-.77-1.039-1.156-1.039-1.922s.346-1.152 1.039-1.922a10 10 0 0 1 .73-.732c.771-.692 1.157-1.038 1.923-1.038.767 0 1.152.346 1.923 1.038a10 10 0 0 1 .73.732c.693.77 1.04 1.156 1.04 1.922s-.347 1.152-1.04 1.922a10 10 0 0 1-.73.732c-.771.692-1.156 1.038-1.923 1.038-.766 0-1.151-.346-1.922-1.038a10 10 0 0 1-.731-.732m-6.946-3.4Q7.204 6 7.5 6q.297 0 .603.022c.272.019.46.032.619.049.082.009.14.017.183.024q.01.061.024.183c.017.16.03.347.049.619q.021.307.022.603 0 .297-.022.603c-.019.272-.032.46-.049.619-.009.082-.017.14-.024.183a3 3 0 0 1-.183.024c-.16.017-.347.03-.619.049A9 9 0 0 1 7.5 9q-.297 0-.603-.022c-.272-.019-.46-.032-.619-.049a3 3 0 0 1-.183-.024 3 3 0 0 1-.024-.183c-.017-.16-.03-.347-.049-.619A9 9 0 0 1 6 7.5q0-.297.022-.603c.019-.272.032-.46.049-.619.009-.082.017-.14.024-.183q.061-.01.183-.024c.16-.017.347-.03.619-.049m-2.87.737c.072-1.044.108-1.565.637-2.095.53-.53 1.051-.565 2.095-.637Q7.125 4 7.5 4q.376 0 .741.027c1.044.072 1.565.108 2.095.637.53.53.565 1.051.637 2.095Q11 7.125 11 7.5q0 .376-.027.741c-.072 1.044-.108 1.565-.637 2.095-.53.53-1.051.565-2.095.637A11 11 0 0 1 7.5 11q-.376 0-.741-.027c-1.044-.072-1.565-.108-2.095-.637-.53-.53-.565-1.051-.637-2.095A11 11 0 0 1 4 7.5q0-.376.027-.741M7.5 15a9 9 0 0 0-.603.022c-.272.019-.46.032-.619.049-.082.009-.14.017-.183.024a3 3 0 0 0-.024.183c-.017.16-.03.347-.049.619A9 9 0 0 0 6 16.5q0 .297.022.603c.019.272.032.46.049.619.009.082.017.14.024.183q.061.01.183.024c.16.017.347.03.619.049A9 9 0 0 0 7.5 18q.297 0 .603-.022c.272-.019.46-.032.619-.049.082-.009.14-.017.183-.024q.01-.061.024-.183c.017-.16.03-.347.049-.619q.021-.307.022-.603 0-.297-.022-.603c-.019-.272-.032-.46-.049-.619a3 3 0 0 0-.024-.183 3 3 0 0 0-.183-.024c-.16-.017-.347-.03-.619-.049A9 9 0 0 0 7.5 15m-2.836-1.336c-.53.53-.565 1.051-.637 2.095Q4 16.125 4 16.5q0 .376.027.741c.072 1.044.108 1.565.637 2.095.53.53 1.051.565 2.095.637Q7.125 20 7.5 20q.376 0 .741-.027c1.044-.072 1.565-.108 2.095-.637.53-.53.565-1.051.637-2.095Q11 16.875 11 16.5q0-.376-.027-.741c-.072-1.044-.108-1.565-.637-2.095-.53-.53-1.051-.565-2.095-.637A11 11 0 0 0 7.5 13q-.376 0-.741.027c-1.044.072-1.565.108-2.095.637m11.233 1.358q.307-.021.603-.022.297 0 .603.022c.272.019.46.032.619.049.082.009.14.017.183.024q.01.061.024.183c.017.16.03.347.049.619q.021.307.022.603 0 .297-.022.603c-.019.272-.032.46-.049.619-.009.082-.017.14-.024.183a3 3 0 0 1-.183.024c-.16.017-.347.03-.619.049A9 9 0 0 1 16.5 18q-.297 0-.603-.022c-.272-.019-.46-.032-.619-.049a3 3 0 0 1-.183-.024 3 3 0 0 1-.024-.183c-.017-.16-.03-.347-.049-.619A9 9 0 0 1 15 16.5q0-.297.022-.603c.019-.272.032-.46.049-.619.009-.082.017-.14.024-.183q.061-.01.183-.024c.16-.017.347-.03.619-.049m-2.87.737c.072-1.044.108-1.565.637-2.095.53-.53 1.051-.565 2.095-.637Q16.125 13 16.5 13q.376 0 .741.027c1.044.072 1.565.108 2.095.637.53.53.565 1.051.637 2.095q.026.366.027.741 0 .376-.027.741c-.072 1.044-.108 1.565-.637 2.095-.53.53-1.051.565-2.095.637A11 11 0 0 1 16.5 20q-.376 0-.741-.027c-1.044-.072-1.565-.108-2.095-.637-.53-.53-.565-1.051-.637-2.095A11 11 0 0 1 13 16.5q0-.376.027-.741"/></svg>