<svg xmlns="http://www.w3.org/2000/svg" viewBox="0 0 32 32"><path fill-rule="evenodd" d="M18.777 12.866c-1.048-1.122-1.572-1.683-1.572-2.866s.524-1.744 1.572-2.866a13 13 0 0 1 .621-.621c1.122-1.048 1.683-1.572 2.866-1.572s1.744.524 2.866 1.572a13 13 0 0 1 .621.621C26.8 8.256 27.323 8.817 27.323 10s-.524 1.744-1.572 2.866a13 13 0 0 1-.621.621c-1.122 1.048-1.683 1.572-2.866 1.572s-1.744-.524-2.866-1.572a13 13 0 0 1-.621-.621m-12.83-6.92c-.82.821-.857 1.594-.93 3.14a14 14 0 0 0 0 1.328c.073 1.546.11 2.32.93 3.14s1.593.856 3.14.93a14 14 0 0 0 1.327 0c1.546-.074 2.319-.11 3.14-.93.82-.82.856-1.594.93-3.14a14 14 0 0 0 0-1.328c-.074-1.546-.11-2.319-.93-3.14-.821-.82-1.594-.856-3.14-.93a14 14 0 0 0-1.328 0c-1.546.074-2.319.11-3.14.93m0 12.5c-.82.821-.857 1.594-.93 3.14a14 14 0 0 0 0 1.328c.073 1.546.11 2.32.93 3.14s1.593.856 3.14.93a14 14 0 0 0 1.327 0c1.546-.074 2.319-.11 3.14-.93.82-.82.856-1.594.93-3.14a14 14 0 0 0 0-1.328c-.074-1.546-.11-2.319-.93-3.14-.821-.82-1.594-.856-3.14-.93a14 14 0 0 0-1.328 0c-1.546.074-2.319.11-3.14.93m12.5 0c-.82.821-.857 1.594-.93 3.14a14 14 0 0 0 0 1.328c.073 1.546.11 2.32.93 3.14s1.593.856 3.14.93a14 14 0 0 0 1.327 0c1.546-.074 2.319-.11 3.14-.93.82-.82.856-1.594.93-3.14a14 14 0 0 0 0-1.328c-.074-1.546-.11-2.319-.93-3.14-.821-.82-1.594-.856-3.14-.93a14 14 0 0 0-1.328 0c-1.546.074-2.319.11-3.14.93"/></svg>