<svg xmlns="http://www.w3.org/2000/svg" viewBox="0 0 16 16"><path fill-rule="evenodd" d="M9.539 5.71c-.428-.497-.643-.745-.643-1.21s.215-.712.643-1.21a7 7 0 0 1 .734-.734c.497-.428.745-.642 1.21-.642s.712.214 1.209.642a7 7 0 0 1 .734.735c.428.497.642.745.642 1.21 0 .463-.214.712-.642 1.209a7 7 0 0 1-.734.734c-.497.428-.745.642-1.21.642s-.712-.214-1.21-.642a7 7 0 0 1-.733-.734M2.467 2.468c-.364.365-.391.728-.445 1.455a8 8 0 0 0 0 1.155c.054.726.08 1.09.445 1.455.365.364.729.391 1.456.446a8 8 0 0 0 1.154 0c.727-.055 1.09-.082 1.455-.446.365-.365.392-.729.446-1.455a8 8 0 0 0 0-1.155c-.054-.727-.081-1.09-.446-1.455s-.728-.392-1.455-.446a8 8 0 0 0-1.154 0c-.727.054-1.09.081-1.456.446m6.556 8.455c.054-.727.08-1.09.446-1.455.364-.365.728-.392 1.454-.446a8 8 0 0 1 1.154 0c.727.054 1.09.081 1.455.446s.392.728.446 1.455a8 8 0 0 1 0 1.154c-.054.726-.081 1.09-.446 1.454-.365.365-.728.392-1.455.446a8 8 0 0 1-1.154 0c-.726-.054-1.09-.08-1.454-.446-.365-.364-.392-.728-.446-1.454a8 8 0 0 1 0-1.154m-7 0c.054-.727.081-1.09.446-1.455s.728-.392 1.455-.446a8 8 0 0 1 1.153 0c.727.054 1.09.081 1.455.446s.392.728.446 1.455a8 8 0 0 1 0 1.154c-.054.726-.081 1.09-.446 1.454-.364.365-.728.392-1.455.446a8 8 0 0 1-1.153 0c-.727-.054-1.09-.08-1.455-.446-.365-.364-.392-.728-.446-1.454a8 8 0 0 1 0-1.154"/></svg>