<svg xmlns="http://www.w3.org/2000/svg" viewBox="0 0 24 24"><path fill-rule="evenodd" d="M13.688 9.248c-.618-.718-.927-1.077-.927-1.747s.31-1.03.927-1.747c.16-.186.332-.373.51-.551q.27-.27.551-.51c.718-.618 1.077-.927 1.747-.927s1.03.309 1.747.927a10 10 0 0 1 1.061 1.06c.618.718.927 1.077.927 1.748 0 .67-.309 1.03-.927 1.747q-.24.281-.51.55c-.178.18-.365.35-.55.51-.718.619-1.077.928-1.748.928-.67 0-1.03-.31-1.747-.927a10 10 0 0 1-.55-.51 10 10 0 0 1-.51-.551M4.654 4.656c-.51.51-.549 1.02-.624 2.037q-.031.398-.032.808.001.41.032.808c.075 1.017.113 1.526.624 2.037.51.51 1.02.548 2.037.624q.398.031.808.032.41-.001.808-.032c1.017-.076 1.526-.114 2.037-.624s.549-1.02.624-2.037Q11 7.91 11 7.5q-.001-.41-.032-.808c-.075-1.018-.113-1.527-.624-2.037-.51-.51-1.02-.549-2.037-.625C8.043 4.011 7.77 4 7.499 4q-.41.001-.808.031c-1.018.076-1.526.114-2.037.625m8.378 11.036c.075-1.017.113-1.526.624-2.036.51-.51 1.019-.549 2.036-.625a11 11 0 0 1 1.616 0c1.017.076 1.526.114 2.036.625.51.51.549 1.019.624 2.036.02.264.032.536.032.808s-.012.544-.032.808c-.075 1.017-.113 1.526-.624 2.036-.51.51-1.019.549-2.036.624-.264.02-.536.032-.808.032s-.544-.012-.808-.032c-1.017-.075-1.526-.113-2.036-.624-.51-.51-.549-1.019-.625-2.036a11 11 0 0 1 0-1.616m-9 0c.075-1.017.113-1.526.624-2.036.51-.51 1.019-.549 2.036-.625q.398-.03.808-.031.41.001.808.031c1.017.076 1.526.114 2.037.625.51.51.548 1.019.624 2.036a11 11 0 0 1 0 1.616c-.076 1.017-.114 1.526-.624 2.037-.511.51-1.02.548-2.037.624q-.398.03-.808.031-.41-.001-.808-.031c-1.017-.076-1.526-.114-2.036-.625-.51-.51-.549-1.019-.624-2.036-.02-.264-.032-.536-.032-.808s.012-.544.032-.808"/></svg>