<svg xmlns="http://www.w3.org/2000/svg" viewBox="0 0 16 16"><path fill-rule="evenodd" d="M10.835 4.09a5 5 0 0 1 .238-.237c.146-.137.245-.229.33-.302l.079-.065.079.065a12 12 0 0 1 .451.419q.06.06.117.12c.137.148.229.246.302.332q.042.048.065.078l-.065.079a11 11 0 0 1-.419.451q-.06.06-.12.117c-.148.137-.246.229-.332.302q-.048.042-.078.065l-.079-.065a11 11 0 0 1-.451-.419l-.117-.12a11 11 0 0 1-.302-.331l-.065-.079.065-.079c.073-.085.165-.183.302-.33M9.738 5.934c-.524-.561-.785-.841-.785-1.433 0-.591.261-.872.785-1.433a7 7 0 0 1 .311-.31c.561-.524.841-.786 1.433-.786.591 0 .872.262 1.433.785a6 6 0 0 1 .31.311c.524.561.786.841.786 1.433s-.261.872-.785 1.433a7 7 0 0 1-.311.31c-.561.525-.841.786-1.433.786-.591 0-.872-.261-1.433-.785a7 7 0 0 1-.31-.311M4.5 3.5q-.175 0-.355.011c-.203.012-.342.02-.46.032q-.083.007-.127.015-.007.044-.015.127A13 13 0 0 0 3.5 4.5q0 .175.011.355c.012.203.02.342.032.46q.007.083.015.127.044.007.127.015A13 13 0 0 0 4.5 5.5q.175 0 .355-.011c.203-.012.342-.02.46-.032q.083-.008.127-.015.007-.044.015-.127A13 13 0 0 0 5.5 4.5q0-.175-.011-.355c-.012-.203-.02-.342-.032-.46l-.015-.127-.127-.015A13 13 0 0 0 4.5 3.5M2.486 2.486c-.403.403-.426.792-.472 1.57a8 8 0 0 0 0 .888c.046.778.069 1.167.472 1.57s.792.426 1.57.472a8 8 0 0 0 .888 0c.778-.046 1.167-.069 1.57-.472s.426-.792.472-1.57a8 8 0 0 0 0-.888c-.046-.778-.069-1.167-.472-1.57s-.792-.426-1.57-.472a8 8 0 0 0-.888 0c-.778.046-1.167.069-1.57.472m1.659 8.025a6 6 0 0 1 .71 0c.203.012.342.02.46.032q.083.008.127.015.007.044.015.127a13 13 0 0 1 .043.815q0 .174-.011.355a13 13 0 0 1-.032.46q-.008.083-.015.127-.044.007-.127.015a13 13 0 0 1-.815.043 13 13 0 0 1-.815-.043l-.127-.015-.015-.127A13 13 0 0 1 3.5 11.5q0-.174.011-.355c.012-.203.02-.342.032-.46q.007-.083.015-.127.044-.007.127-.015c.118-.012.257-.02.46-.032m-2.131.545c.046-.778.069-1.167.472-1.57s.792-.426 1.57-.472a8 8 0 0 1 .888 0c.778.046 1.167.069 1.57.472s.426.792.472 1.57a8 8 0 0 1 0 .888c-.046.778-.069 1.167-.472 1.57s-.792.426-1.57.472a8 8 0 0 1-.888 0c-.778-.046-1.167-.069-1.57-.472s-.426-.792-.472-1.57a8 8 0 0 1 0-.888m9.13-.545a6 6 0 0 1 .711 0c.203.012.342.02.46.032q.083.008.127.015.007.044.015.127a13 13 0 0 1 .043.815q0 .174-.011.355c-.012.203-.02.342-.032.46q-.008.083-.015.127-.044.007-.127.015a13 13 0 0 1-.815.043q-.174 0-.355-.011c-.203-.012-.342-.02-.46-.032l-.127-.015-.015-.127a13 13 0 0 1-.043-.815q0-.174.011-.355c.012-.203.02-.342.032-.46l.015-.127q.044-.007.127-.015c.118-.012.257-.02.46-.032m-2.13.545c.046-.778.069-1.167.472-1.57s.792-.426 1.57-.472a8 8 0 0 1 .888 0c.778.046 1.167.069 1.57.472s.426.792.472 1.57a8 8 0 0 1 0 .888c-.046.778-.069 1.167-.472 1.57s-.792.426-1.57.472a8 8 0 0 1-.888 0c-.778-.046-1.167-.069-1.57-.472s-.426-.792-.472-1.57a8 8 0 0 1 0-.888"/></svg>