<svg xmlns="http://www.w3.org/2000/svg" viewBox="0 0 24 24"><path fill-rule="evenodd" d="m18.235 13.922-.03-.017C16.74 13.058 16 12.63 16 12s.74-1.058 2.206-1.905l.03-.017.455-.263c1.465-.846 2.202-1.27 2.756-.968S22 9.971 22 11.617v.767c0 1.645 0 2.467-.553 2.769-.554.302-1.29-.122-2.756-.968zm-7 0-.03-.017C9.74 13.058 9 12.63 9 12s.74-1.058 2.206-1.905l.03-.017.455-.263c1.465-.846 2.202-1.27 2.756-.968S15 9.971 15 11.617v.767c0 1.645 0 2.467-.553 2.769-.554.302-1.29-.122-2.756-.968zm-7.03-.017.03.017.456.263c1.465.846 2.202 1.27 2.756.968S8 14.029 8 12.383v-.767c0-1.645 0-2.467-.553-2.769-.554-.302-1.29.122-2.756.968l-.456.263-.03.017C2.74 10.942 2 11.37 2 12s.74 1.058 2.206 1.905"/></svg>