<svg xmlns="http://www.w3.org/2000/svg" viewBox="0 0 16 16"><path d="M2.025 5.997c.076.974.12 1.528.5 2.004-.381.475-.424 1.03-.5 2.004a7.5 7.5 0 0 0 .057 1.717c.104.703.156 1.055.657 1.53.5.475.925.515 1.775.596.692.066 1.568.123 2.628.144A.75.75 0 0 0 8 13.25a.75.75 0 0 0-.75-.75 33 33 0 0 1-3.1-.199 2 2 0 0 1-.237-.044.2.2 0 0 1-.05-.02.5.5 0 0 1-.092-.073 1 1 0 0 1-.105-.12 1 1 0 0 1-.036-.142 9 9 0 0 1-.064-.4 6 6 0 0 1-.046-1.38c.023-.29.04-.507.062-.694a3 3 0 0 1 .062-.37.4.4 0 0 1 .037-.098.4.4 0 0 1 .07-.079l.004-.004c.019-.019.051-.05.241-.08.183-.03.413-.041.756-.046q.306.004.671.003H8.25c.414 0 .75-.34.75-.754a.75.75 0 0 0-.75-.75l-2.827-.002q-.365 0-.67.003a6 6 0 0 1-.757-.046c-.19-.03-.222-.061-.241-.08l-.004-.004a.4.4 0 0 1-.07-.079.4.4 0 0 1-.037-.099 3 3 0 0 1-.062-.37 20 20 0 0 1-.062-.693 6 6 0 0 1 .045-1.38c.028-.185.046-.302.065-.4a1 1 0 0 1 .042-.154 1 1 0 0 1 .1-.108.5.5 0 0 1 .09-.074.2.2 0 0 1 .05-.02c.04-.011.11-.026.238-.044.132-.017.286-.032.507-.053A36 36 0 0 1 8 3.5c1.404 0 2.52.067 3.343.146.22.02.375.036.507.053.128.018.197.033.238.045.033.01.044.016.05.02a.5.5 0 0 1 .09.073 1 1 0 0 1 .107.12c.004.013.017.05.035.142.02.098.037.215.064.4a6 6 0 0 1 .046 1.38c-.023.291-.04.508-.062.694a3 3 0 0 1-.062.37l-.005.018-.016.054a.75.75 0 1 0 1.439.422c.118-.369.153-.82.201-1.441q.024-.307.025-.62c0-.39-.032-.76-.082-1.096-.104-.704-.156-1.056-.657-1.531-.5-.475-.925-.516-1.776-.597A37 37 0 0 0 8 2c-1.452 0-2.616.07-3.485.152-.85.081-1.276.122-1.776.597s-.553.827-.657 1.53a7.5 7.5 0 0 0-.057 1.718"/><path d="M5.333 6.233a.9.9 0 1 0 0-1.8.9.9 0 0 0 0 1.8m0 5.334a.9.9 0 1 0 0-1.8.9.9 0 0 0 0 1.8m4.947 1.713A.75.75 0 0 1 9 12.748V10.5c0-.672 0-1.008.192-1.23a1 1 0 0 1 .078-.078C9.492 9 9.828 9 10.5 9h2.249a.75.75 0 1 1 0 1.5h-.679q-.284-.001-.501.004l2.212 2.216a.75.75 0 0 1-1.062 1.06l-2.215-2.22q-.005.221-.004.51v.679a.75.75 0 0 1-.22.53"/></svg>