<svg xmlns="http://www.w3.org/2000/svg" viewBox="0 0 24 24"><path d="M20.965 8.883c-.117 1.54-.18 2.373-.856 3.117l-.143.132a1 1 0 1 1-1.402-1.411.65.65 0 0 0 .218-.37c.08-.298.12-.713.189-1.62a9 9 0 0 0-.069-2.037c-.04-.274-.067-.453-.097-.605a1.6 1.6 0 0 0-.062-.246l-.002-.003c-.007-.021-.03-.09-.22-.27-.157-.149-.227-.173-.314-.198-.193-.056-.46-.089-1.16-.155A54 54 0 0 0 12 5c-2.12 0-3.805.1-5.048.218-.698.065-.966.098-1.159.154-.087.025-.157.049-.314.198-.19.18-.213.249-.22.27l-.001.003a1.6 1.6 0 0 0-.063.246c-.03.151-.057.33-.097.604a9 9 0 0 0-.069 2.039c.07.907.109 1.322.189 1.62a.66.66 0 0 0 .231.381c.075.07.157.138.498.191.441.07 1.045.076 2.145.076H13a1 1 0 1 1 0 2H8.092c-1.1 0-1.704.006-2.145.076-.341.053-.423.121-.498.19a.66.66 0 0 0-.231.382c-.08.298-.12.713-.189 1.62Q5 15.639 5 16c0 .462.038.901.098 1.307.04.274.067.453.097.604.028.142.05.21.063.246v.003c.008.021.031.09.221.27.157.149.227.173.314.198.193.056.46.089 1.158.154A54 54 0 0 0 12 19a1 1 0 1 1 0 2c-2.183 0-3.93-.104-5.236-.226-1.273-.12-1.91-.18-2.661-.893s-.83-1.236-.984-2.282a11 11 0 0 1-.084-2.483c.117-1.539.18-2.372.856-3.116-.675-.744-.739-1.577-.856-3.116a11 11 0 0 1 .084-2.483c.155-1.046.232-1.568.984-2.282.752-.713 1.388-.773 2.661-.893A56 56 0 0 1 12 3c2.182 0 3.93.103 5.235.226 1.274.12 1.91.18 2.663.893s.829 1.237.983 2.283a11 11 0 0 1 .084 2.481"/><path d="M8 9.25a1.25 1.25 0 1 0 0-2.5 1.25 1.25 0 0 0 0 2.5M9.25 16a1.25 1.25 0 1 1-2.5 0 1.25 1.25 0 0 1 2.5 0m6.457 3.207c-.63.63-1.707.184-1.707-.707V16c0-.943 0-1.414.293-1.707S15.057 14 16 14h2.5c.89 0 1.337 1.077.707 1.707A1 1 0 0 1 18.5 16H18q-.324 0-.578.003l2.786 2.79a1 1 0 0 1-1.416 1.414l-2.788-2.793q-.005.257-.004.586v.5a1 1 0 0 1-.293.707"/></svg>