<svg xmlns="http://www.w3.org/2000/svg" viewBox="0 0 24 24"><path fill-rule="evenodd" d="M5.96 3.276C7.407 3.131 9.423 3 12 3c2.575 0 4.592.13 6.039.276 1.312.132 1.618.189 2.08.62.279.258.392.443.467.636.094.239.149.53.246 1.094.1.573.167 1.215.167 1.9q-.002.584-.059 1.13c-.078.766-.127 1.201-.234 1.547-.09.284-.22.509-.522.781-.515.466-1.025.516-3.056.516H6.871c-2.031 0-2.54-.05-3.056-.516-.301-.272-.432-.497-.521-.781-.108-.345-.157-.78-.235-1.546A11 11 0 0 1 3 7.527c0-.687.068-1.33.167-1.903.098-.564.152-.854.246-1.092.076-.193.189-.378.467-.637.462-.43.768-.487 2.08-.619M8.75 7.5a1.25 1.25 0 1 1-2.5 0 1.25 1.25 0 0 1 2.5 0m-4.935 5.516c.515-.466 1.025-.516 3.056-.516h6.47a3 3 0 0 0-1.032 1.173c-.31.627-.31 1.444-.31 3.077s0 2.45.31 3.077a3 3 0 0 0 1.015 1.161q-.636.012-1.325.012c-2.576 0-4.592-.13-6.04-.276-1.311-.133-1.617-.189-2.079-.62-.278-.258-.391-.443-.467-.636-.094-.238-.148-.528-.246-1.092-.1-.574-.167-1.216-.167-1.902q.002-.586.059-1.131c.078-.766.127-1.2.235-1.546.089-.284.22-.51.521-.781M8.75 16.5a1.25 1.25 0 1 1-2.5 0 1.25 1.25 0 0 1 2.5 0"/><path d="M14 18.5c0 .89 1.077 1.337 1.707.707a1 1 0 0 0 .292-.707V18q-.001-.329.004-.586l2.789 2.793a1 1 0 0 0 1.415-1.414l-2.785-2.79Q17.676 16 18 16h.5a1 1 0 0 0 .707-.293c.63-.63.183-1.707-.707-1.707H16c-.943 0-1.415 0-1.708.293S14 15.057 14 16z"/></svg>