<svg xmlns="http://www.w3.org/2000/svg" viewBox="0 0 16 16"><path d="M5.998 3a2 2 0 1 1 3.094 1.675q.104.038.225.087c.582.239 1.624 1.255 1.877 1.832.278.63.284.907.298 1.459q.004.15.004.298c0 .979 0 1.468-.16 1.854A2.1 2.1 0 0 1 10.2 11.34a2 2 0 0 1-.204.068v.091c0 .944-.054 1.678-.113 2.2-.068.607-.467 1.12-1.07 1.228a4.6 4.6 0 0 1-1.63 0c-.603-.108-1.002-.62-1.07-1.228A20 20 0 0 1 6 11.5v-.091a2 2 0 0 1-.204-.068 2.1 2.1 0 0 1-1.136-1.136C4.5 9.819 4.5 9.33 4.5 8.35q0-.15.004-.298c.014-.552.02-.828.298-1.46.253-.576 1.295-1.592 1.877-1.83q.122-.05.225-.088A2 2 0 0 1 5.998 3"/></svg>