<svg xmlns="http://www.w3.org/2000/svg" viewBox="0 0 16 16"><path fill-rule="evenodd" d="M7.2 1.962V6.27L5.619 4.885l-.275-.241a.83.83 0 0 0-1.13.04.73.73 0 0 0 .042 1.07l.275.242 2.292 2.006-2.292 2.017-.275.24a.73.73 0 0 0-.043 1.071c.3.307.807.325 1.131.04l.275-.241L7.2 9.739v4.3c0 .767.937 1.26 1.624.756a21 21 0 0 0 1.814-1.486c.323-.303.641-.635.885-.964.22-.298.477-.72.477-1.179 0-.303-.111-.576-.228-.789a4 4 0 0 0-.453-.63c-.341-.394-.78-.788-1.193-1.13a20 20 0 0 0-.788-.616c.242-.178.513-.386.786-.61a10 10 0 0 0 1.194-1.125 4 4 0 0 0 .453-.629c.118-.212.229-.486.229-.789 0-.458-.257-.88-.476-1.179a7.6 7.6 0 0 0-.884-.968 21 21 0 0 0-1.814-1.494C8.14.699 7.2 1.193 7.2 1.962m1.6 4.506V3.149c.237.197.481.41.71.624.29.276.535.537.701.763.134.181.173.28.184.31a1 1 0 0 1-.041.088 2.3 2.3 0 0 1-.272.37c-.259.297-.62.626-1.006.942q-.139.114-.276.222m0 6.388V9.537q.136.108.274.222c.386.318.748.65 1.007.948q.194.226.272.371a1 1 0 0 1 .042.09c-.011.03-.05.128-.183.308a6 6 0 0 1-.702.758 15 15 0 0 1-.71.622"/></svg>