<svg xmlns="http://www.w3.org/2000/svg" viewBox="0 0 24 24"><path fill-rule="evenodd" d="M11 3.202v6.725l-2.946-2.35-.43-.342a.999.999 0 1 0-1.249 1.56l.43.343 3.594 2.865-3.594 2.88-.43.344a.998.998 0 1 0 1.25 1.56l.43-.344L11 14.083v6.715c0 .92 1.03 1.541 1.852 1 .552-.362 1.763-1.182 2.846-2.085.539-.449 1.075-.943 1.485-1.43.205-.243.398-.507.544-.782.14-.267.273-.61.273-.995 0-.449-.18-.845-.36-1.14a5.3 5.3 0 0 0-.696-.884c-.525-.552-1.2-1.107-1.843-1.59a31 31 0 0 0-1.252-.89c.383-.257.815-.558 1.25-.883.642-.48 1.318-1.032 1.843-1.581.262-.275.51-.572.698-.882.18-.295.36-.691.36-1.14 0-.385-.132-.729-.273-.995a4.5 4.5 0 0 0-.542-.784c-.41-.488-.946-.984-1.484-1.435-1.083-.908-2.294-1.733-2.845-2.098-.822-.545-1.856.075-1.856.998m2 6.961V4.736c.452.327.949.705 1.415 1.096.5.42.936.83 1.237 1.189.151.18.25.324.306.431l.03.061a1 1 0 0 1-.058.107c-.085.14-.228.322-.435.538-.412.432-.986.907-1.594 1.361-.306.229-.613.446-.901.644m0 9.107v-5.427c.287.198.594.417.899.646.607.457 1.182.935 1.595 1.37q.309.327.436.54a1 1 0 0 1 .057.109l-.029.06c-.056.106-.154.25-.305.429-.3.357-.736.765-1.236 1.182-.467.39-.965.765-1.417 1.091"/></svg>