<svg xmlns="http://www.w3.org/2000/svg" viewBox="0 0 16 16"><path d="M5 11.333a1 1 0 1 0 0-2 1 1 0 0 0 0 2m7-1a1 1 0 1 1-2 0 1 1 0 0 1 2 0"/><path fill-rule="evenodd" d="M3.101 3.12c-.88.882-.94 1.743-1.059 3.463C2.016 6.966 2 7.358 2 7.75s.016.784.042 1.167c.12 1.72.18 2.58 1.06 3.462q.213.215.433.37L2.505 15h1.65l.786-1.717c.463.079 1.006.118 1.677.165.45.032.916.052 1.382.052s.931-.02 1.382-.052c.67-.047 1.213-.086 1.677-.164L11.845 15h1.65l-1.03-2.25q.218-.157.434-.37c.88-.883.94-1.743 1.059-3.463.026-.383.042-.775.042-1.167s-.016-.784-.042-1.167c-.12-1.72-.18-2.58-1.06-3.462s-1.758-.944-3.516-1.07A20 20 0 0 0 8 2c-.466 0-.931.02-1.382.052C4.86 2.177 3.98 2.239 3.1 3.12M8.75 7V4.5h2.417c.485 0 .91.26 1.143.647.06.34.101.817.151 1.54q.011.156.02.313zm-1.5-2.5V7H3.52q.007-.157.019-.313c.05-.723.092-1.2.15-1.54A1.33 1.33 0 0 1 4.834 4.5zM3.539 8.813l-.02-.313h8.961q-.007.156-.019.313c-.126 1.813-.2 2.08-.624 2.506-.422.423-.701.5-2.561.633-.422.03-.852.048-1.276.048s-.854-.018-1.276-.048c-1.86-.132-2.139-.21-2.561-.633-.425-.425-.499-.693-.624-2.506"/></svg>