<svg xmlns="http://www.w3.org/2000/svg" viewBox="0 0 44 44"><path d="M14 30.75a2.75 2.75 0 1 0 0-5.5 2.75 2.75 0 0 0 0 5.5M32.75 28a2.75 2.75 0 1 1-5.5 0 2.75 2.75 0 0 1 5.5 0"/><path fill-rule="evenodd" d="M8.94 9.037c-2.447 2.46-2.586 4.797-2.863 9.471A42 42 0 0 0 6 21c0 .835.028 1.67.077 2.492.277 4.674.416 7.011 2.864 9.47a8.7 8.7 0 0 0 1.758 1.388L7.996 40h3.325l2.214-4.626c1.384.274 3.022.38 5.111.514 1.1.07 2.227.112 3.354.112s2.255-.042 3.354-.112c2.088-.134 3.725-.24 5.109-.513L32.673 40h3.324l-2.699-5.648a8.7 8.7 0 0 0 1.761-1.39c2.448-2.459 2.587-4.796 2.864-9.47.05-.822.077-1.657.077-2.492s-.028-1.67-.077-2.492c-.277-4.674-.416-7.011-2.864-9.47s-4.866-2.615-9.705-2.926C24.254 6.042 23.127 6 22 6s-2.255.042-3.354.112c-4.839.31-7.258.466-9.705 2.925M23.5 20v-7h7.833c1.462 0 2.724.855 3.313 2.092.113.919.192 2.075.283 3.594q.039.656.057 1.314zm-3-7v7H9.014q.018-.658.057-1.314c.09-1.52.17-2.675.283-3.594A3.67 3.67 0 0 1 12.667 13zM9.071 23.314 9.054 23h25.892l-.017.314c-.288 4.842-.463 5.993-1.996 7.532-1.525 1.532-2.734 1.725-7.771 2.048A50 50 0 0 1 22 33c-1.054 0-2.117-.04-3.162-.106-5.037-.323-6.246-.516-7.771-2.048-1.533-1.54-1.708-2.69-1.996-7.532"/></svg>