<svg xmlns="http://www.w3.org/2000/svg" viewBox="0 0 16 16"><path fill-rule="evenodd" d="M3.101 3.12c-.88.882-.94 1.743-1.059 3.463C2.016 6.966 2 7.358 2 7.75s.016.784.042 1.167c.12 1.72.18 2.58 1.06 3.462q.213.215.433.37L2.505 15h1.65l.786-1.716c.463.078 1.006.117 1.676.164.452.032.917.052 1.383.052s.931-.02 1.382-.052c.67-.047 1.213-.086 1.677-.165L11.845 15h1.65l-1.03-2.251q.22-.155.434-.37c.88-.881.94-1.742 1.059-3.462.026-.383.042-.775.042-1.167s-.016-.784-.042-1.167c-.12-1.72-.18-2.58-1.06-3.462s-1.758-.944-3.516-1.07A20 20 0 0 0 8 2c-.466 0-.931.02-1.382.052C4.86 2.177 3.98 2.239 3.1 3.12m9.21 2.027a1.33 1.33 0 0 0-1.144-.647H8.75V7h3.73l-.019-.313c-.05-.723-.092-1.2-.15-1.54m-8.772 1.54c.05-.723.092-1.2.15-1.54A1.33 1.33 0 0 1 4.834 4.5H7.25V7H3.52q.007-.157.019-.313M6 10.333a1 1 0 1 1-2 0 1 1 0 0 1 2 0m6 0a1 1 0 1 1-2 0 1 1 0 0 1 2 0"/></svg>