<svg xmlns="http://www.w3.org/2000/svg" viewBox="0 0 32 32"><path d="M10 22.5a2 2 0 1 0 0-4 2 2 0 0 0 0 4m14-2a2 2 0 1 1-4 0 2 2 0 0 1 4 0"/><path fill-rule="evenodd" d="M6.178 6.24C4.413 8.01 4.3 9.718 4.073 13.131A32 32 0 0 0 4 15.251c0 .71.027 1.421.073 2.118.227 3.414.34 5.12 2.105 6.891.368.37.736.667 1.12.91L5.5 29h2.763l1.391-2.965c.977.183 2.13.263 3.58.364.903.063 1.835.101 2.766.101s1.862-.038 2.765-.1c1.451-.102 2.604-.182 3.58-.365L23.738 29H26.5l-1.798-3.83a6.4 6.4 0 0 0 1.121-.91c1.765-1.77 1.878-3.477 2.105-6.891.046-.697.073-1.408.073-2.119 0-.71-.027-1.422-.073-2.119-.227-3.413-.34-5.12-2.105-6.89-1.765-1.771-3.529-1.894-7.057-2.14A40 40 0 0 0 16 4c-.931 0-1.862.038-2.765.101-3.528.246-5.292.369-7.057 2.14M17.25 14.5V9h5.583c1.002 0 1.875.553 2.331 1.37.108.696.181 1.62.268 2.927q.04.6.057 1.203zM14.75 9v5.5H6.51q.018-.602.058-1.203c.086-1.306.16-2.23.268-2.927A2.67 2.67 0 0 1 9.166 9zm-8.182 8.203L6.555 17h18.89l-.013.203c-.236 3.562-.374 4.283-1.38 5.292-1 1.003-1.76 1.152-5.46 1.41-.855.06-1.728.095-2.592.095s-1.737-.035-2.591-.095c-3.7-.258-4.46-.407-5.46-1.41-1.006-1.01-1.145-1.73-1.381-5.292"/></svg>