<svg xmlns="http://www.w3.org/2000/svg" viewBox="0 0 16 16"><path d="M12.17 5.545a5 5 0 0 0-.645-.045c-1.067 0-2.178.407-2.88.71l-.065.03c-.34.144-.917.39-1.268.944-.195.309-.28.622-.304.944a6 6 0 0 0 .01.719c.074 1.36.343 2.835 1.282 4.15Q8.044 13 7.778 13c-1.033 0-1.935-.045-2.703-.112-.705-.06-1.226-.106-1.685-.258C2.01 12.246 1 11.01 1 9.546 1 7.775 2.478 6.34 4.3 6.34q.1 0 .197.006a4.001 4.001 0 0 1 7.674-.8"/><path d="M11.525 7c-.746 0-1.636.3-2.299.587-.43.187-.58.27-.662.4a.5.5 0 0 0-.075.25 5 5 0 0 0 .011.527c.074 1.334.359 2.555 1.19 3.583.2.247.517.543.867.776.358.237.704.377.968.377s.61-.14.967-.377c.35-.232.667-.529.867-.776.831-1.028 1.056-2.25 1.13-3.583.013-.254.02-.415.011-.526a.5.5 0 0 0-.075-.25.5.5 0 0 0-.193-.179 5 5 0 0 0-.47-.222C13.1 7.3 12.27 7 11.525 7"/></svg>