<svg xmlns="http://www.w3.org/2000/svg" viewBox="0 0 16 16"><path d="M8.443 4.5c.533 0 1.027.167 1.433.45a.75.75 0 0 0 1.234-.572.75.75 0 0 0-.3-.603 4 4 0 0 0-6.313 2.57 4 4 0 0 0-.196-.006C2.478 6.339 1 7.775 1 9.546c0 1.465 1.01 2.7 2.39 3.084.46.152.98.197 1.685.258.611.054 1.307.098 2.087.112.557 0 .838-.339.838-.752a.747.747 0 0 0-.745-.747 29 29 0 0 1-2.05-.107 24 24 0 0 1-.793-.078c-.385-.048-.804-.148-1.133-.363A1.69 1.69 0 0 1 2.5 9.546c0-.902.765-1.707 1.8-1.707.485 0 .974.052 1.458.08l.219-1.33A2.5 2.5 0 0 1 8.443 4.5"/><path fill-rule="evenodd" d="M8.003 7.807a1.16 1.16 0 0 1 .588-.952c.134-.079.31-.157.514-.247.633-.276 1.554-.604 2.395-.604.84 0 1.761.328 2.394.604.205.09.38.168.514.248a1.17 1.17 0 0 1 .588.951 5 5 0 0 1-.01.581c-.072 1.306-.338 2.649-1.244 3.776a4.5 4.5 0 0 1-.96.867c-.371.248-.832.469-1.282.469s-.912-.221-1.283-.47a4.5 4.5 0 0 1-.96-.866c-.906-1.127-1.172-2.47-1.244-3.776a5 5 0 0 1-.01-.581m3.047 3.977q.197.129.331.18c.07.028.11.034.119.036a.6.6 0 0 0 .118-.036q.133-.051.33-.18a3 3 0 0 0 .625-.56c.617-.768.85-1.738.915-2.918l.011-.232-.205-.09c-.594-.26-1.278-.48-1.794-.48-.517 0-1.201.22-1.795.48q-.126.054-.205.09l.011.232c.065 1.18.298 2.15.915 2.918.133.165.366.387.624.56"/></svg>