<svg xmlns="http://www.w3.org/2000/svg" viewBox="0 0 24 24"><path d="M13 6c1.1 0 2.096.444 2.819 1.162a1 1 0 1 0 1.437-1.386V5.77A6.002 6.002 0 0 0 7.081 9.01C4.397 8.943 2 11.087 2 13.82c0 1.772.986 3.32 2.455 4.155 1.709 1.14 4.405.98 6.396 1.025.55-.002.976-.469.976-1.02a.983.983 0 0 0-1-.98c-1.493 0-3.585.094-4.968-.524C4.805 16.005 4 15.008 4 13.819c0-1.499 1.267-2.81 2.95-2.81.607 0 1.083 0 1.881.045.053-.865.223-1.716.223-1.716A4 4 0 0 1 13 6"/><path fill-rule="evenodd" d="M17.001 20c-.637 0-1.293-.323-1.826-.69a6.5 6.5 0 0 1-1.372-1.278c-1.292-1.658-1.676-3.649-1.78-5.59-.028-.551-.078-1.13.222-1.62.293-.482.808-.7 1.302-.922.917-.412 2.245-.9 3.454-.9s2.537.488 3.454.9c.494.222 1.009.44 1.302.921.3.491.25 1.07.221 1.62-.103 1.942-.487 3.933-1.779 5.59a6.5 6.5 0 0 1-1.372 1.279c-.533.367-1.19.69-1.826.69m0-2c.617-.073 1.272-.75 1.62-1.197 1.077-1.381 1.342-3.205 1.378-4.91-.92-.449-1.96-.893-2.998-.893s-2.078.444-2.999.893c0 1.691.317 3.548 1.378 4.91.348.446 1.004 1.124 1.62 1.197"/></svg>