<svg xmlns="http://www.w3.org/2000/svg" viewBox="0 0 16 16"><path fill-rule="evenodd" d="M11.5 1c.695 0 1.321.069 1.824.152.79.131 1.393.734 1.524 1.524C14.93 3.18 15 3.805 15 4.5s-.069 1.321-.152 1.824a1.835 1.835 0 0 1-1.524 1.524A11 11 0 0 1 11.5 8c-.695 0-1.321-.069-1.824-.152a1.835 1.835 0 0 1-1.524-1.524A11 11 0 0 1 8 4.5c0-.695.07-1.321.152-1.824a1.835 1.835 0 0 1 1.524-1.524A11 11 0 0 1 11.5 1m-1.082 2.21.786-.62h.924v3.82h-.924V3.47l-.786.643zM6.2 2.564a.74.74 0 0 1 .801.74.767.767 0 0 1-.695.756c-.482.05-.827.107-1.071.17a1.23 1.23 0 0 0-.64.366c-.21.211-.299.379-.366.639-.09.348-.127.803-.187 1.666C4.015 7.265 4 7.635 4 8h.02c.609 0 1.02 0 1.19.117a.67.67 0 0 1 .29.559c-.004.207-.18.456-.531.954-.744 1.054-1.221 1.58-1.74 1.58s-.956-.526-1.7-1.58c-.351-.498-.527-.747-.53-.954a.67.67 0 0 1 .29-.559C1.46 8 1.83 8 2.44 8h.06c0-.405.017-.811.044-1.205.115-1.629.172-2.443.99-3.26.675-.676 1.487-.863 2.665-.972m5.573 8.203c.062-.244.12-.59.169-1.071A.767.767 0 0 1 12.697 9c.434 0 .78.369.74.8-.109 1.179-.296 1.99-.971 2.666-.818.818-1.632.875-3.26.99-.395.027-.8.044-1.206.044a18 18 0 0 1-1.517-.069l-.091-.008a27 27 0 0 1-.806-.076c-.382-.045-.59-.33-.586-.644a.8.8 0 0 1 .249-.562.93.93 0 0 1 .75-.26c.172.018.382.036.613.056.456.039.926.063 1.388.063.365 0 .735-.015 1.1-.04.863-.061 1.318-.099 1.666-.188a1.24 1.24 0 0 0 .64-.367c.21-.211.299-.379.366-.639"/></svg>