<svg xmlns="http://www.w3.org/2000/svg" viewBox="0 0 24 24"><path d="M21 11a.97.97 0 0 1-.983 1c-.553 0-1-.448-1.024-1a35 35 0 0 0-.441-4.12l-3.84 3.836A1 1 0 1 1 13.296 9.3l3.853-3.85a35 35 0 0 0-4.146-.446A1.035 1.035 0 0 1 12 3.982a.97.97 0 0 1 1.002-.981c1.725.066 3.386.29 4.66.506 1.098.187 1.647.28 2.099.731.451.45.545 1 .732 2.097.217 1.272.44 2.941.506 4.664M3 13a.97.97 0 0 1 .983-1c.554 0 1 .448 1.024 1a35 35 0 0 0 .444 4.137l3.836-3.833a1.003 1.003 0 0 1 1.417 1.416l-3.836 3.832c1.175.194 2.635.382 4.13.444.553.022 1.002.47 1.002 1.022a.97.97 0 0 1-1.002.981 37 37 0 0 1-4.66-.506c-1.098-.187-1.647-.28-2.099-.731-.451-.45-.545-1-.732-2.097A37 37 0 0 1 3.001 13"/></svg>