<svg xmlns="http://www.w3.org/2000/svg" viewBox="0 0 16 16"><path d="M14 7.243a.727.727 0 0 1-.736.75.78.78 0 0 1-.77-.75c-.04-.86-.142-1.701-.253-2.41l-2.314 2.31a.753.753 0 0 1-1.064-1.062l2.324-2.32a23 23 0 0 0-2.435-.256.78.78 0 0 1-.752-.77c0-.415.337-.752.752-.734a25 25 0 0 1 3.024.334c.733.124 1.1.187 1.4.488.302.3.364.666.489 1.398.141.828.286 1.902.334 3.022M2 8.757a.727.727 0 0 1 .736-.75.78.78 0 0 1 .77.75c.04.865.143 1.71.255 2.422l2.344-2.341A.753.753 0 0 1 7.168 9.9l-2.344 2.341c.713.112 1.559.214 2.424.254a.78.78 0 0 1 .752.77.727.727 0 0 1-.752.734 25 25 0 0 1-3.024-.334c-.733-.124-1.1-.187-1.4-.488-.302-.3-.364-.666-.489-1.398a25 25 0 0 1-.334-3.022"/></svg>