<svg xmlns="http://www.w3.org/2000/svg" viewBox="0 0 44 44"><path d="M22.235 12.807a1.5 1.5 0 0 0-1.47-2.614h-.001l-.003.002-.008.004-.032.018-.12.068-.451.259a140 140 0 0 0-6.473 3.968c-1.766 1.159-3.575 2.428-4.957 3.593-.687.58-1.312 1.17-1.778 1.739C6.539 20.334 6 21.104 6 22s.539 1.665.942 2.156c.466.569 1.091 1.159 1.778 1.739 1.382 1.165 3.19 2.434 4.957 3.593a142 142 0 0 0 6.924 4.226l.12.069.044.024a1.5 1.5 0 0 0 1.47-2.614l-.001-.001-.007-.004-.029-.016-.114-.065-.437-.25a142 142 0 0 1-1.569-.918 128 128 0 0 1-4.755-2.959c-1.734-1.137-3.425-2.33-4.668-3.378l-.12-.102H38.5a1.5 1.5 0 0 0 0-3H10.535l.12-.102c1.243-1.049 2.934-2.24 4.668-3.378a128 128 0 0 1 4.755-2.959 137 137 0 0 1 2.006-1.168l.114-.065.029-.016.007-.004z"/></svg>