<svg xmlns="http://www.w3.org/2000/svg" viewBox="0 0 16 16"><path d="M3.714 1.535c.28-.063.609-.04.876.067a3.5 3.5 0 0 1 1.153.756c.578.577.867.866.881 1.557.015.69-.296 1.03-.92 1.708a10 10 0 0 1-.572.574l.204.24 2.202 2.202q-.015.255-.023.509c-.23.24-.437.503-.596.796a3.1 3.1 0 0 0-.309.817c-.111.485-.11 1-.11 1.413v.236c-.687-.435-1.466-1.033-2.364-1.931C2.788 9.13 2.001 7.938 1.542 7.032c-.574-1.134-.76-2.5-.224-3.654.154-.33.36-.611.646-.904.557-.587 1.288-.836 1.75-.94"/><path fill-rule="evenodd" d="M9.007 9.856Q9 9.47 9.018 9.09c.04-.844.06-1.266.479-1.796.507-.64 1.219-.794 2.003-.794.788 0 1.506.15 2.016.794.42.53.44.952.479 1.796.012.254.016.515.01.774q.214.128.416.341c.579.607.579 1.086.579 2.045s0 1.438-.578 2.045c-.58.607-1.144.634-2.273.689a14 14 0 0 1-1.298 0c-1.13-.055-1.694-.082-2.272-.69C8 13.689 8 13.21 8 12.25s0-1.438.579-2.045c.14-.148.28-.261.428-.349m3.5-.322V9.36c-.002-.32-.004-.65-.073-.957-.052-.235-.307-.388-.53-.398a9 9 0 0 0-.796 0c-.222.01-.477.163-.53.398-.068.307-.07.637-.071.956q0 .088-.002.175c.301-.017.653-.034.995-.034.347 0 .703.018 1.007.034M12.5 12a1 1 0 1 1-2 0 1 1 0 0 1 2 0"/></svg>