<svg xmlns="http://www.w3.org/2000/svg" viewBox="0 0 16 16"><path d="m5.305 5.135-.442.461a.684.684 0 0 0 .01.957L6.37 8.047a.75.75 0 1 0 1.06-1.062l-.934-.93c.125-.139.232-.26.328-.375q.172-.205.294-.403a1.75 1.75 0 0 0 .002-1.78c-.248-.41-.608-.763-.79-.942l-.062-.06c-.304-.305-.746-.69-1.346-.878-.669-.211-1.325-.12-1.919.147-.31.14-.665.353-.973.678-.21.22-.512.56-.719 1.032-.524 1.198-.345 2.587.23 3.746.472.95 1.292 2.21 2.713 3.635l.493.485c.3.294.78.283 1.067-.024a.756.756 0 0 0-.024-1.054l-.474-.466c-1.31-1.314-2.034-2.442-2.431-3.243-.434-.874-.5-1.79-.2-2.478.101-.23.259-.42.43-.599.14-.147.317-.26.504-.344.65-.293 1.092-.074 1.587.422l.081.08c.198.197.407.405.55.64.038.063.031.17-.006.232a2 2 0 0 1-.162.217c-.09.11-.202.234-.364.412"/><path fill-rule="evenodd" d="M13.858 8.728q.015.313.016.631c.172.096.334.224.496.393.62.647.624 1.168.63 2.209v.078c-.006 1.041-.01 1.562-.63 2.209s-1.225.676-2.434.735a14 14 0 0 1-1.372 0c-1.21-.059-1.814-.088-2.434-.735s-.624-1.168-.63-2.209v-.078c.006-1.041.01-1.562.63-2.209.162-.17.324-.296.495-.393q0-.319.017-.631c.041-.852.062-1.278.477-1.83a3.2 3.2 0 0 1 .537-.51C10.227 6 10.568 6 11.25 6c.681 0 1.022 0 1.593.387a3.2 3.2 0 0 1 .537.511c.415.552.436.978.478 1.83m-1.498.074.009.238-.433-.023a14 14 0 0 0-1.372 0l-.434.023.01-.238c.023-.467.036-.646.065-.778a.5.5 0 0 1 .102-.21l.013-.014a2 2 0 0 1 .178-.169l.015-.013c.135-.09.18-.097.191-.098h.002a1 1 0 0 1 .154-.015c.097-.005.21-.005.39-.005.179 0 .292 0 .39.005.09.004.132.01.153.014h.002c.01.002.056.01.19.1l.016.012a2 2 0 0 1 .178.17l.014.014c.074.102.088.15.101.21.03.131.043.31.066.777M11.25 10.5q-.305 0-.613.015c-.658.032-.942.053-1.145.104a.5.5 0 0 0-.28.171 1 1 0 0 0-.133.168.3.3 0 0 0-.033.09 2 2 0 0 0-.034.299c-.009.163-.01.353-.012.623v.06c.002.27.003.46.012.623.008.158.022.246.034.3a.3.3 0 0 0 .033.089 1 1 0 0 0 .134.168c.115.12.173.144.279.171.203.051.487.072 1.145.104a13 13 0 0 0 1.226 0c.658-.032.942-.053 1.145-.104a.5.5 0 0 0 .28-.171 1 1 0 0 0 .133-.168.3.3 0 0 0 .033-.09c.012-.053.026-.141.034-.299.009-.163.01-.353.012-.623v-.06c-.002-.27-.003-.46-.012-.623a2 2 0 0 0-.034-.3.3.3 0 0 0-.033-.089 1 1 0 0 0-.134-.168.5.5 0 0 0-.279-.171c-.203-.051-.487-.072-1.145-.104q-.308-.015-.613-.015"/></svg>