<svg xmlns="http://www.w3.org/2000/svg" viewBox="0 0 32 32"><path fill-rule="evenodd" d="m11.648 9 2.178-3.531C14.794 3.823 15.279 3 16 3s1.206.823 2.175 2.469L20.352 9h4.577c1.759 0 2.638 0 2.964.57s-.12 1.329-1.012 2.844L24.67 16l2.211 3.586c.893 1.515 1.339 2.273 1.012 2.844s-1.205.57-2.964.57h-4.577l-2.178 3.531c-.968 1.646-1.453 2.47-2.174 2.47s-1.206-.824-2.174-2.47L11.648 23H7.07c-1.758 0-2.638 0-2.964-.57s.12-1.329 1.012-2.844L7.33 16l-2.21-3.586C4.227 10.9 3.78 10.141 4.107 9.57S5.312 9 7.07 9zm4.387-2.242L17.417 9h-2.834l1.383-2.242L16 6.7zm-7.237 6.863-1.309-2.123h2.618zM10.266 16l2.776-4.503h5.916L21.734 16l-2.776 4.502h-5.916zm-1.468 2.38L7.49 20.5h2.617zM14.583 23l1.383 2.242.034.058.034-.058L17.417 23zm7.31-2.498h2.618l-1.309-2.123zm1.309-6.882 1.308-2.121h-2.617z"/></svg>