<svg xmlns="http://www.w3.org/2000/svg" viewBox="0 0 44 44"><path fill-rule="evenodd" d="m33.393 22 3.115 5.376c1.19 2.053 1.785 3.079 1.35 3.851-.435.773-1.607.773-3.952.773h-6.308l-2.699 4.657C23.608 38.886 22.962 40 22 40s-1.608-1.114-2.9-3.343L16.403 32h-6.308c-2.344 0-3.517 0-3.952-.773-.435-.772.16-1.798 1.35-3.85L10.606 22l-3.115-5.376c-1.19-2.053-1.785-3.079-1.35-3.851C6.577 12 7.75 12 10.094 12h6.308L19.1 7.343C20.392 5.114 21.038 4 22 4s1.607 1.114 2.899 3.343L27.598 12h6.308c2.345 0 3.517 0 3.952.773.435.772-.16 1.798-1.35 3.85zm-1.734 2.992L33.982 29h-4.646zM29.926 22l-4.057 7h-7.738l-4.057-7 4.057-7h7.738zm-.59-7h4.646l-2.323 4.009zm-5.206-3-1.827-3.152L22 8.325l-.304.523L19.87 12zm-9.467 3h-4.645l2.323 4.008zm-2.322 9.991L10.018 29h4.646zM19.869 32l1.827 3.152.304.523.304-.523L24.13 32z"/></svg>