<svg xmlns="http://www.w3.org/2000/svg" viewBox="0 0 24 24"><path fill-rule="evenodd" d="m8.804 6.5 1.56-2.65c.727-1.233 1.09-1.85 1.63-1.85.542 0 .905.617 1.632 1.85l1.56 2.65h3.51c1.32 0 1.98 0 2.224.428.245.427-.09.995-.759 2.132l-1.734 2.944 1.73 2.936c.668 1.137 1.003 1.705.758 2.132s-.904.428-2.223.428H15.19l-1.56 2.65C12.904 21.382 12.54 22 12 22s-.904-.617-1.63-1.85L8.81 17.5H5.297c-1.319 0-1.978 0-2.223-.428-.245-.427.09-.995.76-2.132l1.733-2.944L3.839 9.06c-.67-1.137-1.004-1.705-.759-2.132S3.984 6.5 5.303 6.5zm2.321 0 .87-1.477.87 1.477zm-4.397 3.525L5.83 8.5h1.796zm1.16 1.97L9.949 8.5h4.095l2.063 3.504-2.058 3.496H9.952zm-1.16 1.972L5.826 15.5H7.63zM11.13 17.5l.87 1.477.87-1.477zm5.239-2h1.796l-.898-1.525zm.898-5.467L18.17 8.5h-1.806z"/></svg>