<svg xmlns="http://www.w3.org/2000/svg" viewBox="0 0 16 16"><path fill-rule="evenodd" d="M13.94 11.844c-.866.866-1.556.923-2.936 1.038-.844.07-1.848.118-3.01.118a37 37 0 0 1-3.012-.118c-1.38-.115-2.07-.172-2.935-1.038a3.5 3.5 0 0 1-.586-.744c.192-.085.371-.206.528-.363l.263-.262.263.262a1.753 1.753 0 0 0 2.477 0 1.75 1.75 0 0 0 0-2.474L4.73 8l.263-.263a1.75 1.75 0 0 0 0-2.474 1.753 1.753 0 0 0-2.477 0l-.263.262-.263-.262a1.8 1.8 0 0 0-.528-.363 3.5 3.5 0 0 1 .586-.744c.866-.866 1.555-.923 2.935-1.038C5.826 3.048 6.83 3 7.993 3s2.167.048 3.01.118c1.38.115 2.07.172 2.936 1.038.865.867.915 1.488 1.016 2.731a14 14 0 0 1 0 2.226c-.1 1.242-.15 1.864-1.016 2.73M8.773 6.666l-1.043.851V6.322L8.774 5.5H10v5H8.774z"/><path d="M1.282 5.97A.751.751 0 0 0 .22 7.03l.97.97-.97.97a.75.75 0 1 0 1.062 1.06l.97-.97.97.97a.751.751 0 0 0 1.063-1.06L3.314 8l.97-.97a.75.75 0 1 0-1.061-1.06l-.97.97z"/></svg>