<svg xmlns="http://www.w3.org/2000/svg" viewBox="0 0 44 44"><path d="M26.057 5.523c-.143.305-.004.83.275 1.877l.957 3.608c.049.183.073.275.083.368a1.2 1.2 0 0 1 0 .248c-.01.093-.034.185-.083.368l-.957 3.608c-.279 1.048-.418 1.572-.276 1.877a.92.92 0 0 0 .65.513c.329.067.803-.193 1.75-.713l8.177-4.48c.771-.423 1.157-.634 1.284-.913a.93.93 0 0 0 0-.768c-.127-.28-.513-.49-1.284-.913l-8.176-4.48c-.948-.52-1.422-.78-1.75-.713a.92.92 0 0 0-.65.513M10 20.389C10 14.65 14.651 10 20.389 10H23.5a1.5 1.5 0 0 1 0 3h-3.111A7.39 7.39 0 0 0 13 20.389V23.5a1.5 1.5 0 0 1-3 0z"/><path fill-rule="evenodd" d="M11.5 38a5.5 5.5 0 1 0 0-11 5.5 5.5 0 0 0 0 11m0-3a2.5 2.5 0 1 0 0-5 2.5 2.5 0 0 0 0 5m7.565-6.753c.168-2.362.252-3.543 1.446-4.736 1.193-1.194 2.374-1.278 4.736-1.446C25.821 22.025 26.41 22 27 22s1.18.024 1.753.065c2.362.168 3.543.252 4.736 1.446.888.887 1.162 1.768 1.313 3.132l.645-.337c2.036-1.064 3.054-1.596 3.803-1.141.75.454.75 1.602.75 3.899v1.875c0 2.297 0 3.445-.75 3.9-.75.454-1.767-.078-3.803-1.142l-.645-.337c-.152 1.363-.426 2.242-1.313 3.13-1.193 1.193-2.374 1.277-4.736 1.445-.574.04-1.163.065-1.753.065s-1.18-.025-1.753-.065c-2.362-.168-3.543-.252-4.736-1.446-1.194-1.193-1.278-2.374-1.446-4.736A25 25 0 0 1 19 30c0-.59.024-1.18.065-1.753m6.395-3.19A22 22 0 0 1 27 25c.508 0 1.026.021 1.54.058 1.278.09 1.852.142 2.268.25.24.062.355.12.56.324s.262.32.324.56c.108.416.16.99.25 2.268.037.514.058 1.032.058 1.54s-.021 1.026-.058 1.54c-.09 1.278-.142 1.852-.25 2.269-.062.24-.12.355-.324.559s-.32.262-.56.324c-.416.108-.99.16-2.268.25A22 22 0 0 1 27 35a22 22 0 0 1-1.54-.058c-1.278-.09-1.852-.142-2.268-.25-.24-.062-.355-.12-.56-.324s-.262-.32-.324-.56c-.108-.416-.16-.99-.25-2.268A22 22 0 0 1 22 30c0-.508.021-1.026.058-1.54.09-1.278.142-1.852.25-2.268.062-.24.12-.355.324-.56s.32-.262.56-.324c.416-.108.99-.16 2.268-.25"/></svg>