<svg xmlns="http://www.w3.org/2000/svg" viewBox="0 0 24 24"><path d="M14.53 2.783c-.076.164-.001.446.15 1.01l.518 1.943c.027.099.04.148.045.198a.6.6 0 0 1 0 .134c-.005.05-.018.1-.045.198l-.518 1.942c-.151.565-.226.847-.15 1.011a.5.5 0 0 0 .353.276c.177.036.434-.103.948-.383l4.429-2.413c.417-.227.626-.34.695-.491a.5.5 0 0 0 0-.414c-.069-.15-.278-.264-.695-.491L15.83 2.89c-.513-.28-.77-.42-.947-.383a.5.5 0 0 0-.352.276M5 11a6 6 0 0 1 6-6h2a1 1 0 1 1 0 2h-2a4 4 0 0 0-4 4v2a1 1 0 1 1-2 0zm1 10a3 3 0 1 0 0-6 3 3 0 0 0 0 6m4.037-5.486c.094-1.329.141-1.993.813-2.664.671-.672 1.335-.719 2.664-.813Q14 12 14.5 12q.5.001.986.037c1.329.094 1.993.141 2.664.813.492.492.649.98.735 1.728l.512-.285c1.158-.643 1.737-.965 2.169-.711.431.253.431.916.431 2.241v1.347c0 1.325 0 1.988-.431 2.241-.432.254-1.01-.068-2.17-.711l-.51-.284c-.086.752-.243 1.241-.736 1.734-.671.672-1.335.719-2.664.813Q15 21 14.5 21q-.5-.001-.986-.037c-1.329-.094-1.993-.142-2.664-.813s-.719-1.335-.813-2.664A14 14 0 0 1 10 16.5c0-.332.014-.664.037-.986"/></svg>