<svg xmlns="http://www.w3.org/2000/svg" viewBox="0 0 32 32"><path d="M19.042 3.402c-.106.235-.002.638.207 1.444l.718 2.775c.036.141.055.212.062.283a1 1 0 0 1 0 .191c-.007.072-.026.142-.062.283l-.718 2.775c-.209.806-.313 1.21-.207 1.444.093.204.274.35.488.394.246.052.601-.148 1.313-.548l6.132-3.446c.578-.325.867-.487.963-.702a.73.73 0 0 0 0-.59c-.096-.216-.385-.378-.963-.703l-6.132-3.446c-.712-.4-1.067-.6-1.313-.548a.7.7 0 0 0-.488.394M6.75 14.667a7.917 7.917 0 0 1 7.917-7.917h2.583a1.25 1.25 0 1 1 0 2.5h-2.583a5.417 5.417 0 0 0-5.417 5.417v2.583a1.25 1.25 0 1 1-2.5 0z"/><path fill-rule="evenodd" d="M8 28a4 4 0 1 0 0-8 4 4 0 0 0 0 8m0-2.5a1.5 1.5 0 1 0 0-3 1.5 1.5 0 0 0 0 3m5.549-4.815c.126-1.771.189-2.657 1.084-3.552s1.78-.958 3.552-1.084a18 18 0 0 1 2.63.001c1.771.125 2.657.188 3.552 1.083.599.6.825 1.194.947 2.053l.218-.121c1.545-.858 2.317-1.288 2.892-.949.576.338.576 1.222.576 2.989V22.9c0 1.767 0 2.65-.576 2.99-.575.337-1.347-.092-2.892-.95l-.218-.121c-.122.856-.35 1.45-.947 2.048-.895.895-1.78.958-3.552 1.084-.43.03-.873.05-1.315.05s-.885-.02-1.315-.05c-1.771-.126-2.657-.189-3.552-1.084s-.958-1.78-1.084-3.552c-.03-.43-.049-.873-.049-1.315s.018-.884.049-1.315m4.814-2.142c.38-.027.763-.043 1.137-.043s.757.016 1.137.043c.456.032.794.056 1.084.088.286.031.459.063.573.092a.6.6 0 0 1 .16.057c.016.01.061.037.145.12a.6.6 0 0 1 .12.147c.01.017.032.057.058.16.03.113.061.286.092.572.032.29.056.628.088 1.084.027.38.043.763.043 1.137s-.016.757-.043 1.137c-.032.456-.056.794-.088 1.084a4 4 0 0 1-.092.573.6.6 0 0 1-.057.16.7.7 0 0 1-.12.145.7.7 0 0 1-.147.121.6.6 0 0 1-.16.057c-.113.03-.286.061-.572.092-.29.032-.628.056-1.084.088-.38.028-.763.043-1.137.043s-.757-.015-1.137-.043a31 31 0 0 1-1.084-.088 4 4 0 0 1-.573-.092.6.6 0 0 1-.16-.057.7.7 0 0 1-.145-.12.7.7 0 0 1-.12-.147.6.6 0 0 1-.058-.159 4 4 0 0 1-.092-.573c-.032-.29-.056-.628-.088-1.084-.027-.38-.043-.763-.043-1.137s.016-.756.043-1.137c.032-.456.056-.793.088-1.084a4 4 0 0 1 .092-.573.6.6 0 0 1 .057-.159.7.7 0 0 1 .12-.146.7.7 0 0 1 .147-.12.6.6 0 0 1 .16-.058c.113-.03.286-.06.572-.092.29-.032.628-.056 1.084-.088"/></svg>