<svg xmlns="http://www.w3.org/2000/svg" viewBox="0 0 24 24"><path d="M4 19a1 1 0 1 0 0 2h16a1 1 0 1 0 0-2zm9.001-14.033V16a1 1 0 0 1-2 0V4.965c-.172.214-.371.466-.61.768-.504.64-.905 1.15-1.223 1.572C8.866 7.708 8.538 8 8 8a.92.92 0 0 1-.645-.292c-.28-.295-.385-.788.027-1.35.38-.52.86-1.129 1.44-1.864 1.106-1.404 1.66-2.106 2.336-2.348a2.5 2.5 0 0 1 1.685 0c.676.242 1.23.944 2.337 2.348.579.735 1.06 1.344 1.44 1.863.41.563.306 1.056.026 1.351a.92.92 0 0 1-.645.292c-.539 0-.867-.292-1.169-.695a91 91 0 0 0-1.223-1.572 93 93 0 0 0-.608-.766"/></svg>