<svg xmlns="http://www.w3.org/2000/svg" viewBox="0 0 44 44"><path d="M39.06 9.392q.014.053.035.148.044.19.113.544c.09.472.209 1.163.326 2.074.234 1.821.464 4.519.464 8.092s-.23 6.27-.464 8.092c-.117.91-.235 1.602-.326 2.074q-.07.354-.113.544l-.05.215a1.76 1.76 0 0 1-1.016 1.174l-6.333 2.737a.5.5 0 0 1-.698-.46v-23.74a.5.5 0 0 1 .302-.46l5.267-2.275c.486-.21 1.042-.2 1.52.026.504.24.845.691.974 1.215M4.935 34.608l-.034-.148a18 18 0 0 1-.113-.544 34 34 0 0 1-.326-2.074c-.234-1.821-.464-4.519-.464-8.092s.23-6.27.464-8.092a34 34 0 0 1 .326-2.074q.07-.354.113-.544l.05-.215a1.76 1.76 0 0 1 1.016-1.174L12.3 8.914a.5.5 0 0 1 .698.46v23.74a.5.5 0 0 1-.302.46L7.43 35.848c-.486.21-1.042.2-1.52-.026a1.8 1.8 0 0 1-.974-1.215m11.062-2.017a.5.5 0 0 0 .393.488l11 2.406a.5.5 0 0 0 .607-.489V11.412a.5.5 0 0 0-.393-.488l-11-2.406a.5.5 0 0 0-.607.488z"/></svg>