<svg xmlns="http://www.w3.org/2000/svg" viewBox="0 0 32 32"><path d="m28.321 6.542.025.111q.031.143.082.408c.066.354.15.873.235 1.556.17 1.367.335 3.39.335 6.07s-.166 4.705-.335 6.07a27 27 0 0 1-.235 1.557q-.05.265-.082.408l-.036.16a1.31 1.31 0 0 1-.734.882l-4.612 2.07a.33.33 0 0 1-.466-.3V7.63a.33.33 0 0 1 .195-.301L26.52 5.61a1.29 1.29 0 0 1 1.098.02c.364.18.61.519.703.911M3.675 25.458l-.025-.11q-.03-.144-.081-.409a26 26 0 0 1-.236-1.556c-.17-1.366-.335-3.39-.335-6.07s.166-4.704.335-6.07c.085-.684.17-1.202.236-1.556q.05-.266.081-.408l.037-.161a1.31 1.31 0 0 1 .733-.881l4.613-2.07a.33.33 0 0 1 .466.3v17.904a.33.33 0 0 1-.195.3L5.476 26.39c-.35.158-.753.15-1.098-.02a1.34 1.34 0 0 1-.703-.91m8.324-1.473a.33.33 0 0 0 .25.32l7.34 1.807a.33.33 0 0 0 .41-.32V8.014a.33.33 0 0 0-.252-.321l-7.34-1.807a.33.33 0 0 0-.409.32z"/></svg>