<svg xmlns="http://www.w3.org/2000/svg" viewBox="0 0 32 32"><path fill-rule="evenodd" d="M15.5 6.5c-.718 0-1.444.029-2.16.079-3.597.25-4.33.392-5.332 1.393-.999.997-1.149 1.755-1.411 5.44-.06.854-.097 1.725-.097 2.588s.036 1.734.097 2.588c.262 3.685.412 4.443 1.41 5.44 1.004 1.001 1.736 1.144 5.332 1.394.717.05 1.443.078 2.161.078s1.444-.029 2.16-.078c3.597-.25 4.33-.393 5.332-1.394.332-.33.57-.635.75-1.03.251-.553.74-.998 1.349-.998.784 0 1.403.71 1.151 1.454-.293.867-.744 1.605-1.484 2.344-1.763 1.76-3.483 1.879-6.924 2.118-.766.053-1.55.084-2.334.084s-1.568-.031-2.334-.084c-3.44-.24-5.161-.359-6.924-2.118-1.763-1.76-1.888-3.518-2.139-7.033A39 39 0 0 1 4 16c0-.931.039-1.863.103-2.765.25-3.515.376-5.273 2.139-7.033s3.483-1.879 6.924-2.117C13.932 4.03 14.716 4 15.5 4s1.568.031 2.334.085c3.44.238 5.161.358 6.924 2.117.74.739 1.191 1.477 1.485 2.344.25.743-.367 1.454-1.152 1.454-.609 0-1.098-.445-1.35-.999-.18-.394-.417-.698-.749-1.03-1.003-1-1.735-1.143-5.331-1.392A31 31 0 0 0 15.5 6.5m11.25 7.25a1.25 1.25 0 1 0-2.5 0v1h-1a1.25 1.25 0 1 0 0 2.5h1v1a1.25 1.25 0 1 0 2.5 0v-1h1a1.25 1.25 0 1 0 0-2.5h-1zm-11.693-.482a1.7 1.7 0 0 1 .588-.096q.456 0 .684.168a.84.84 0 0 1 .312.468h2.016q-.036-.48-.228-.888a2 2 0 0 0-.564-.708 2.6 2.6 0 0 0-.9-.468q-.54-.18-1.26-.18-.78 0-1.428.204a2.4 2.4 0 0 0-1.092.684q-.456.492-.72 1.332-.252.828-.252 2.1 0 1.164.204 1.98t.612 1.332q.42.504 1.056.732.648.228 1.512.228 1.608 0 2.412-.732.804-.744.804-2.112 0-.696-.192-1.188a2.1 2.1 0 0 0-.54-.804 2 2 0 0 0-.816-.468 3.3 3.3 0 0 0-1.044-.156q-1.284 0-1.956.816v-.144q0-.672.096-1.092.096-.432.264-.672a.87.87 0 0 1 .432-.336m1.392 5.088q-.3.252-.852.252-.576 0-.9-.276-.324-.288-.324-1.008 0-.696.324-.984.324-.3.9-.3.528 0 .84.24.324.24.324.84v.36q0 .624-.312.876"/></svg>