<svg xmlns="http://www.w3.org/2000/svg" viewBox="0 0 16 16"><path fill-rule="evenodd" d="M8 3.5c-.424 0-.855.019-1.277.05-1.843.138-2.12.215-2.539.634s-.496.695-.634 2.539c-.03.422-.05.852-.05 1.277s.019.855.05 1.277c.138 1.844.215 2.12.634 2.539s.696.496 2.539.634c.422.031.853.05 1.277.05.425 0 .855-.019 1.278-.05 1.843-.138 2.12-.215 2.538-.634.084-.083.153-.161.213-.246.207-.297.487-.571.849-.571.476 0 .854.435.677.876a2.9 2.9 0 0 1-.678 1.002c-.874.874-1.745.939-3.488 1.069C8.936 13.98 8.468 14 8 14s-.935-.02-1.389-.054c-1.742-.13-2.613-.195-3.488-1.07-.874-.873-.939-1.745-1.069-3.487A19 19 0 0 1 2 8c0-.468.02-.936.054-1.389.13-1.742.195-2.613 1.07-3.488.874-.874 1.745-.939 3.487-1.069.454-.033.921-.054 1.39-.054.467 0 .935.02 1.388.054 1.743.13 2.614.195 3.488 1.07.32.319.53.637.676.998.179.442-.2.877-.676.877-.362 0-.642-.274-.85-.57a2 2 0 0 0-.21-.245c-.42-.42-.696-.496-2.54-.634C8.856 3.52 8.426 3.5 8 3.5m5 2.499a.75.75 0 0 1 .75.75v.45h.5a.75.75 0 1 1 0 1.5h-.5v.55a.75.75 0 0 1-1.5 0v-.55h-.5a.75.75 0 1 1 0-1.5h.5v-.45a.75.75 0 0 1 .75-.75m-5.222.734a.9.9 0 0 1 .294-.048q.228 0 .342.084a.42.42 0 0 1 .156.234h1.008a1.3 1.3 0 0 0-.114-.444 1 1 0 0 0-.282-.354q-.18-.15-.45-.234-.27-.09-.63-.09-.39 0-.714.102a1.2 1.2 0 0 0-.546.342 1.7 1.7 0 0 0-.36.666q-.126.414-.126 1.05 0 .582.102.99t.306.666q.21.252.528.366.324.113.756.114.804 0 1.206-.366.402-.372.402-1.056 0-.348-.096-.594a1 1 0 0 0-.27-.402 1 1 0 0 0-.408-.234 1.7 1.7 0 0 0-.522-.078q-.642 0-.978.408v-.072q0-.336.048-.546a1 1 0 0 1 .132-.336.43.43 0 0 1 .216-.168m.696 2.544q-.15.126-.426.126-.288 0-.45-.138-.162-.144-.162-.504 0-.348.162-.492.162-.15.45-.15.264 0 .42.12.162.12.162.42v.18q0 .312-.156.438"/></svg>