<svg xmlns="http://www.w3.org/2000/svg" viewBox="0 0 17 17"><path fill-rule="evenodd" d="M4.47 2.344c-.133.14-.147.292-.175.596-.014.15-.026.317-.033.49l-.388.051c-.888.124-1.332.186-1.854.693-.523.508-.594.92-.735 1.746-.122.71-.216 1.581-.216 2.579 0 .997.094 1.87.216 2.58.141.825.212 1.237.735 1.744.522.508.966.57 1.854.694 1.105.154 2.652.294 4.631.294s3.526-.14 4.632-.294c.887-.124 1.33-.186 1.854-.693.522-.507.593-.92.735-1.745.121-.71.216-1.582.216-2.58s-.095-1.87-.216-2.58c-.142-.825-.213-1.238-.735-1.745-.523-.507-.967-.569-1.854-.693l-.388-.05a9 9 0 0 0-.033-.49c-.028-.305-.043-.457-.177-.597-.133-.14-.264-.159-.527-.195a2 2 0 0 0-.32-.024q-.164.002-.32.024c-.262.036-.393.055-.527.195s-.148.292-.176.596a10 10 0 0 0-.024.305 39 39 0 0 0-2.14-.058q-1.17.002-2.14.058a10 10 0 0 0-.024-.305c-.028-.304-.042-.456-.176-.596s-.265-.159-.527-.195a2 2 0 0 0-.32-.024q-.164.002-.32.024c-.262.036-.393.055-.527.195m-.62 6.78c.096.095.2.104.408.122.297.026.739.051 1.32.051.58 0 1.022-.025 1.319-.05.208-.019.312-.028.408-.124.096-.095.104-.188.12-.373a3 3 0 0 0 0-.498c-.016-.186-.024-.279-.12-.374-.096-.096-.2-.105-.408-.123a15 15 0 0 0-1.32-.051c-.58 0-1.022.025-1.319.051-.208.018-.312.027-.408.123-.096.095-.104.188-.12.374a3 3 0 0 0 0 .498c.016.185.024.278.12.373m6.251.122c-.208-.018-.312-.027-.408-.123-.096-.095-.104-.188-.12-.373a3 3 0 0 1 0-.498c.016-.186.024-.279.12-.374.096-.096.2-.105.408-.123q.217-.02.54-.034.014-.321.034-.54c.018-.208.027-.312.123-.408.095-.096.188-.104.373-.12a3 3 0 0 1 .498 0c.186.016.279.024.374.12.096.096.105.2.123.408q.019.219.035.54.32.016.539.034c.208.018.312.027.408.123.096.095.104.188.12.374a3 3 0 0 1 0 .498c-.016.185-.024.278-.12.373-.096.096-.2.105-.408.123q-.219.02-.54.035-.015.32-.034.539c-.018.208-.027.313-.123.408-.095.096-.188.104-.374.12a3 3 0 0 1-.498 0c-.185-.016-.278-.024-.373-.12-.096-.095-.105-.2-.123-.408a13 13 0 0 1-.035-.54q-.32-.014-.539-.034"/></svg>