<svg xmlns="http://www.w3.org/2000/svg" viewBox="0 0 32 32"><path fill-rule="evenodd" d="M9.384 5.893c-.234.243-.26.51-.314 1.044-.028.29-.053.613-.064.947a45 45 0 0 0-.653.082c-1.549.207-2.323.31-3.247 1.205s-1.04 1.606-1.277 3.028c-.188 1.132-.329 2.5-.329 4.051s.141 2.919.33 4.05c.235 1.423.353 2.135 1.276 3.029.924.895 1.698.998 3.247 1.205 1.848.247 4.401.466 7.647.466s5.8-.219 7.648-.466c1.548-.207 2.322-.31 3.245-1.205.923-.894 1.041-1.605 1.277-3.027.188-1.132.33-2.5.33-4.052s-.142-2.92-.33-4.052c-.236-1.422-.354-2.133-1.277-3.027s-1.697-.998-3.245-1.205a45 45 0 0 0-.654-.082 15 15 0 0 0-.064-.947c-.053-.534-.08-.8-.314-1.044-.234-.243-.473-.277-.95-.343A5 5 0 0 0 21 5.5c-.227 0-.454.02-.666.05-.477.066-.716.1-.95.343s-.26.51-.314 1.044q-.03.297-.05.63A67 67 0 0 0 16 7.5q-1.626.002-3.02.066-.02-.332-.05-.629c-.053-.534-.08-.8-.314-1.044-.234-.243-.473-.277-.95-.343A5 5 0 0 0 11 5.5c-.227 0-.454.02-.666.05-.477.066-.716.1-.95.343M8.22 16.869c.17.169.35.183.71.21.519.041 1.296.082 2.319.082s1.8-.04 2.32-.081c.36-.028.54-.042.709-.211.17-.17.182-.323.208-.63a4 4 0 0 0 0-.655c-.026-.307-.039-.461-.208-.63-.17-.169-.35-.183-.71-.211a30 30 0 0 0-2.32-.082c-1.022 0-1.8.041-2.318.082-.36.028-.54.042-.71.21-.17.17-.182.324-.208.631a4 4 0 0 0 0 .654c.026.308.039.462.208.63m10.21.3c-.36-.028-.54-.042-.709-.21-.17-.17-.182-.323-.207-.631a4 4 0 0 1 0-.654c.025-.308.038-.462.207-.63.17-.17.35-.183.71-.212q.43-.035 1.09-.06.026-.66.06-1.09c.029-.36.043-.54.212-.71s.322-.182.63-.208a4 4 0 0 1 .654 0c.308.026.462.039.63.208.17.17.183.35.211.71q.036.43.061 1.09.66.026 1.09.06c.36.029.54.043.71.212s.182.322.207.63a4 4 0 0 1 0 .654c-.025.308-.038.462-.207.63-.17.17-.35.183-.71.211q-.43.036-1.09.06-.025.662-.06 1.091c-.029.36-.043.54-.212.71s-.322.182-.63.207a4 4 0 0 1-.654 0c-.308-.025-.462-.038-.63-.207-.17-.17-.183-.35-.212-.71a26 26 0 0 1-.06-1.09q-.66-.026-1.09-.06"/></svg>