<svg xmlns="http://www.w3.org/2000/svg" viewBox="0 0 44 44"><path d="M10.787 23.612c.238.238.481.255.967.288.718.05 1.805.1 3.243.1 1.439 0 2.526-.05 3.245-.1.485-.034.728-.05.967-.288.238-.238.252-.433.279-.823a4 4 0 0 0 0-.578c-.027-.39-.041-.585-.28-.823-.238-.238-.48-.254-.966-.288-.719-.05-1.806-.1-3.245-.1-1.438 0-2.525.05-3.243.1-.486.034-.729.05-.967.288s-.252.433-.279.823a4 4 0 0 0 0 .578c.027.39.04.585.28.823m15.468.288c-.486-.033-.729-.05-.967-.288s-.252-.433-.28-.823a4 4 0 0 1 .001-.578c.027-.39.04-.585.28-.823.237-.238.48-.254.966-.288a43 43 0 0 1 1.763-.081c.019-.727.05-1.316.08-1.763.034-.486.051-.728.289-.967.238-.238.433-.252.823-.279a4 4 0 0 1 .578 0c.39.027.585.041.822.28.238.238.255.48.289.966.03.447.062 1.036.08 1.763.728.02 1.317.05 1.764.081.486.034.728.05.967.288.238.238.251.433.279.823a4 4 0 0 1 0 .578c-.028.39-.041.585-.28.823-.238.238-.48.255-.966.288a42 42 0 0 1-1.763.081c-.02.727-.05 1.316-.081 1.763-.034.486-.05.728-.288.967-.238.238-.433.252-.823.279a4 4 0 0 1-.578 0c-.39-.027-.585-.041-.823-.28-.238-.238-.255-.48-.288-.966a42 42 0 0 1-.081-1.763 43 43 0 0 1-1.763-.081"/><path fill-rule="evenodd" d="M22 35c4.357 0 7.796-.305 10.3-.652 2.135-.296 3.202-.444 4.474-1.687s1.434-2.246 1.758-4.251c.266-1.64.468-3.637.468-5.91s-.203-4.27-.468-5.91c-.324-2.005-.486-3.008-1.758-4.25-1.129-1.104-2.096-1.345-3.79-1.592-.02-.443-.053-.869-.09-1.25-.072-.738-.108-1.106-.428-1.443s-.644-.385-1.292-.482a6 6 0 0 0-.924-.073c-.315 0-.63.03-.924.073-.648.097-.972.145-1.292.482s-.356.705-.428 1.443q-.03.321-.057.678A85 85 0 0 0 22 10c-2.054 0-3.905.068-5.55.176a25 25 0 0 0-.056-.678c-.072-.738-.108-1.106-.428-1.443s-.644-.385-1.292-.482a6 6 0 0 0-.924-.073c-.315 0-.63.03-.924.073-.648.097-.972.145-1.292.482s-.356.705-.428 1.443c-.037.381-.07.807-.09 1.25-1.694.247-2.661.488-3.79 1.591-1.272 1.243-1.434 2.246-1.758 4.251A37 37 0 0 0 5 22.5c0 2.273.202 4.27.468 5.91.324 2.005.486 3.008 1.758 4.251s2.339 1.391 4.473 1.687C14.204 34.695 17.643 35 22 35m0-3c4.217 0 7.518-.295 9.889-.623 1.154-.16 1.651-.24 2.028-.365.231-.076.428-.172.76-.496.352-.344.444-.534.514-.725.121-.332.203-.77.38-1.86.242-1.5.429-3.336.429-5.431s-.187-3.93-.43-5.43c-.176-1.09-.258-1.53-.38-1.861-.069-.19-.161-.38-.513-.725-.332-.324-.529-.42-.76-.496-.377-.125-.874-.204-2.028-.364C29.52 13.294 26.217 13 22 13s-7.518.295-9.89.624c-1.153.16-1.65.24-2.028.364-.23.077-.427.172-.759.496-.352.344-.444.534-.514.725-.121.332-.203.77-.38 1.86C8.187 18.57 8 20.405 8 22.5s.187 3.93.43 5.43c.176 1.09.258 1.53.38 1.861.069.19.161.38.513.725.332.324.529.42.76.496.377.125.874.204 2.028.364 2.37.33 5.672.624 9.889.624"/></svg>