<svg xmlns="http://www.w3.org/2000/svg" viewBox="0 0 16 16"><path d="M11.5 4.5c0 .585-.143 1.136-.396 1.62.213.14.45.333.686.551A.749.749 0 0 1 11.313 8a.75.75 0 0 1-.518-.207c-.437-.407-.94-.678-1.487-.912-.36-.153-.624-.266-.624-.413 0-.159.172-.281.392-.437.388-.276.924-.656.924-1.53V4.5a2 2 0 1 0-3.98.28c.1.68.56 1.006.904 1.25.22.157.392.28.392.438 0 .147-.265.26-.624.413-.736.315-1.334.715-1.875 1.307a6 6 0 0 0-.403.49 3 3 0 0 0-.155.242c-.16.376-.216.576-.235.687-.02.122-.024.233-.024.57 0 1.078.016 1.286.055 1.414.125.412.447.734.859.859.128.039.335.055 1.413.055h1.34A.75.75 0 1 1 7.75 14v.005H6.326c-.969 0-1.453 0-1.847-.12a2.79 2.79 0 0 1-1.86-1.86c-.12-.394-.12-.879-.12-1.847 0-.636 0-.954.367-1.822.275-.65 1.296-1.752 2.03-2.237A3.5 3.5 0 1 1 11.5 4.5"/><path fill-rule="evenodd" d="M13.717 12.657a2.5 2.5 0 1 0-1.06 1.06l.563.564a.75.75 0 1 0 1.06-1.062zM11.5 12.5a1 1 0 1 0 0-2 1 1 0 0 0 0 2"/></svg>