<svg xmlns="http://www.w3.org/2000/svg" viewBox="0 0 16 16"><path d="M11.002 4c0 1.082-.573 2.03-1.432 2.558.278.028.532.085.99.255.3.113.671.366 1.042.688L11.5 7.5A4 4 0 0 0 8.377 14h-2.5c-.614 0-.92 0-1.176-.05a2.715 2.715 0 0 1-2.15-2.149c-.05-.255-.05-.562-.05-1.176.001-.178.001-.267.21-.93.29-.924 1.826-2.543 2.733-2.882.458-.17.712-.227.99-.255A3 3 0 1 1 11.002 4"/><path fill-rule="evenodd" d="M13.717 12.657a2.5 2.5 0 1 0-1.06 1.06l.563.564a.75.75 0 1 0 1.06-1.062zM11.5 12.5a1 1 0 1 0 0-2 1 1 0 0 0 0 2"/></svg>