<svg xmlns="http://www.w3.org/2000/svg" viewBox="0 0 24 24"><path fill-rule="evenodd" d="M8.826 7.594A3.502 3.502 0 0 1 2 6.5a3.5 3.5 0 0 1 6.87-.947 4 4 0 0 1 2.86 2.032l1.295 2.373A2 2 0 0 0 14.781 11h4.273a96 96 0 0 0-.736-.593 113 113 0 0 0-1.468-1.162.98.98 0 0 1-.349-.713l-.001-.114.008-.06c.08-.648.93-1.073 1.492-.744.448.342.965.746 1.561 1.223 1.364 1.091 2.047 1.637 2.287 2.3a2.52 2.52 0 0 1 0 1.721c-.24.663-.922 1.209-2.286 2.3-.597.477-1.11.887-1.557 1.23-.562.327-1.418-.103-1.497-.751l-.008-.06.001-.114a.98.98 0 0 1 .35-.713c.018-.017.045-.037.097-.077.38-.294.828-.651 1.37-1.085.286-.229.526-.421.73-.588H14.78a2 2 0 0 0-1.756 1.042l-1.294 2.373a4 4 0 0 1-2.86 2.032A3.501 3.501 0 0 1 2 17.5a3.5 3.5 0 0 1 6.826-1.094 2 2 0 0 0 1.149-.948l1.294-2.373c.227-.416.522-.781.866-1.085a4 4 0 0 1-.866-1.085L9.975 8.542a2 2 0 0 0-1.15-.948"/></svg>