<svg xmlns="http://www.w3.org/2000/svg" viewBox="0 0 16 16"><path fill-rule="evenodd" d="M5.866 5.303a2.501 2.501 0 1 1 .026-1.526 2.75 2.75 0 0 1 2.002 1.359l.848 1.485c.223.39.637.63 1.085.63h2.831a168 168 0 0 0-1.091-.863.75.75 0 1 1 .818-1.257q.427.326.987.77c.91.725 1.366 1.087 1.527 1.528.135.37.135.774 0 1.144-.161.44-.617.803-1.527 1.527q-.558.444-.985.77a.75.75 0 1 1-.825-1.253 81 81 0 0 0 1.096-.866h-2.83c-.45 0-.864.24-1.086.629l-.848 1.484a2.75 2.75 0 0 1-2.002 1.359 2.501 2.501 0 1 1-.026-1.526 1.25 1.25 0 0 0 .725-.577l.849-1.484q.206-.36.5-.636a2.8 2.8 0 0 1-.5-.635L6.59 5.88a1.25 1.25 0 0 0-.725-.577"/></svg>