<svg xmlns="http://www.w3.org/2000/svg" viewBox="0 0 32 32"><path d="M10.504 11.002a1.75 1.75 0 1 0 0-3.5 1.75 1.75 0 0 0 0 3.5"/><path fill-rule="evenodd" d="M6.624 4.2c1.245-.64 2.752-1.199 3.88-1.199s2.635.56 3.88 1.2c1.246.641 2.605 1.555 3.293 2.534.387.55.36 1.156.273 1.563-.087.41-.27.81-.459 1.156-.37.68-.932 1.463-1.462 2.202l-.034.048q-.256.355-.507.71a5.002 5.002 0 0 1-9.968 0q-.251-.354-.507-.71l-.034-.047c-.53-.74-1.092-1.522-1.462-2.202-.189-.347-.372-.746-.46-1.157-.086-.407-.113-1.013.274-1.563.688-.979 2.046-1.893 3.293-2.534M5.561 7.95q.048.116.152.31c.287.528.757 1.187 1.331 1.987l.003.003c.204.285.418.583.63.885l.328.333-.003.516v.011a2.501 2.501 0 0 0 5.003 0v-.011l-.002-.516.328-.333c.212-.302.426-.6.63-.885l.003-.004c.573-.8 1.044-1.458 1.33-1.985q.105-.194.152-.312c-.417-.443-1.215-1.015-2.206-1.525-1.169-.601-2.231-.923-2.736-.923s-1.567.322-2.737.923c-.99.51-1.789 1.082-2.206 1.525M19.998 29a61 61 0 0 0-.146-2.5l-.014-.175c-.221-2.674-.332-4.01-2-5.712s-2.903-1.805-5.374-2.009a30 30 0 0 0-2.466-.103c-.863 0-1.69.04-2.466.103-2.471.204-3.707.307-5.375 2.009C.49 22.315.38 23.652.158 26.325l-.014.175A61 61 0 0 0-.002 29zm-17.05-5.162c-.17.567-.24 1.266-.357 2.662h7.443l-4.986-4.986c-.322.136-.676.367-1.17.87-.591.604-.8 1.019-.93 1.454m5.18-2.772 5.435 5.434h3.842c-.116-1.396-.186-2.095-.356-2.662-.13-.435-.34-.85-.931-1.454-.608-.62-1.005-.827-1.39-.95-.514-.164-1.143-.229-2.46-.338a27.6 27.6 0 0 0-4.14-.03"/><path d="m22.559 13.503 2.954 2.954q-.015.52-.015 1.134v2.453l-1.33.83c-.937.722-1.17 1.21-1.17 1.626h9c0-.417-.233-.904-1.17-1.627l-1.33-.829v-2.453a37 37 0 0 0-.082-2.532c-.046-.644-.068-.965-.38-1.24-.312-.274-.631-.287-1.27-.314q-.287-.009-.575-.006h-3.94q-.359 0-.692.004"/><path d="M19.568 13.588q.411-.021.915-.04l3.951 3.952h-1.183c-1.552 0-2.784-.042-3.683-.089-.804-.042-1.206-.063-1.591-.416a2 2 0 0 1-.146-.155c-.331-.406-.331-.717-.331-1.34s0-.934.33-1.34a2 2 0 0 1 .147-.155c.385-.354.787-.375 1.591-.417"/></svg>