<svg xmlns="http://www.w3.org/2000/svg" viewBox="0 0 24 24"><path fill-rule="evenodd" d="M8 12.5c1.978 0 3.605-1.476 3.804-3.368 1.218-1.516 2.556-3.18 2.105-3.738C12.937 4.189 9.57 2 8 2S3.064 4.19 2.091 5.394c-.45.558.887 2.222 2.105 3.738C4.396 11.024 6.022 12.5 8 12.5M9.25 6a1.25 1.25 0 1 1-2.5 0 1.25 1.25 0 0 1 2.5 0"/><path d="M16 22h-3.586l-7.787-7.788c.384-.05.81-.085 1.295-.125a25 25 0 0 1 4.157 0c1.95.162 2.926.242 4.226 1.532s1.39 2.302 1.566 4.327c.054.626.1 1.31.129 2.054M1.695 15.619c.285-.283.554-.508.822-.688L9.586 22H0q.046-1.115.13-2.054c.176-2.025.264-3.038 1.565-4.327M16.708 10l2.3 2.3A30 30 0 0 0 19 13v2l-1.09.699c-.73.578-.91.968-.91 1.301h7c0-.333-.181-.723-.91-1.301L22 15v-2c0-.773-.029-1.394-.062-1.857-.034-.472-.05-.708-.285-.909s-.473-.21-.952-.23C20.5 10.004 20 10 19.5 10z"/><path d="M14.541 10.06q.345-.018.779-.033L18.293 13H17c-1.021 0-1.844-.028-2.459-.06-.588-.032-.882-.048-1.168-.3a1.4 1.4 0 0 1-.138-.144C13 12.197 13 11.965 13 11.5s0-.697.235-.996c.032-.04.1-.111.138-.145.286-.251.58-.267 1.168-.298"/></svg>