<svg xmlns="http://www.w3.org/2000/svg" viewBox="0 0 17 17"><path d="M5.58 5.914a.956.956 0 1 0 0-1.912.956.956 0 0 0 0 1.912"/><path fill-rule="evenodd" d="M5.577 1.062c-.365 0-.77.095-1.145.218a8 8 0 0 0-1.189.506c-.744.385-1.561.936-1.978 1.532-.24.344-.222.722-.17.971.053.252.165.495.278.704.222.41.557.88.872 1.321l.15.211a3.185 3.185 0 0 0 6.364 0l.15-.211c.315-.44.65-.911.872-1.32a2.7 2.7 0 0 0 .278-.705c.053-.25.07-.627-.17-.97-.416-.597-1.234-1.148-1.978-1.533-.39-.202-.8-.378-1.188-.506-.376-.123-.78-.218-1.146-.218M2.698 4.081q.026.06.077.155c.169.312.446.703.789 1.182v.001l.279.392.156.222-.012.271-.001.071a1.591 1.591 0 1 0 3.181-.07l-.012-.272.157-.222q.14-.2.278-.391l.001-.002c.342-.479.62-.87.789-1.183q.05-.093.076-.154c-.247-.255-.705-.584-1.277-.88a7 7 0 0 0-.954-.407c-.307-.1-.527-.138-.648-.138-.12 0-.34.037-.648.138a7 7 0 0 0-.954.408c-.572.295-1.03.624-1.277.879m8.382 10.224q-.022-.262-.044-.494c-.107-1.122-.254-1.775-1.067-2.579-.926-.915-1.615-.97-2.992-1.082a17.4 17.4 0 0 0-2.8 0c-1.376.111-2.065.167-2.99 1.082-.814.804-.961 1.457-1.069 2.579l-.044.494q-.044.512-.074 1.1h11.155q-.03-.587-.075-1.1M1.865 13.04c-.058.188-.094.409-.132.77h3.285L3.09 11.884l-.1.028c-.17.053-.357.14-.67.45-.304.3-.396.489-.455.68m3.292-1.348 2.12 2.119h2.145c-.038-.362-.074-.583-.132-.77-.059-.191-.151-.38-.455-.68-.313-.31-.5-.397-.67-.45-.256-.079-.576-.113-1.318-.173a16 16 0 0 0-1.69-.046"/><path d="M15.682 10.787q-.15-.085-.278-.163V8.47c0-.274.002-.722-.245-.895-.202-.142-.48-.139-.725-.136h-2.219q-.29 0-.553.003l1.618 1.619v1.563q-.129.077-.278.163c-.573.33-1.316.757-1.316 1.43h5.312c0-.673-.743-1.1-1.316-1.43"/><path d="M10.142 7.488q.24-.012.54-.023l2.1 2.099h-.567a41 41 0 0 1-2.073-.049c-.44-.022-.66-.034-.867-.23l-.06-.062c-.185-.218-.185-.386-.185-.721 0-.336 0-.504.185-.722l.06-.063c.208-.195.427-.207.867-.23"/></svg>