<svg xmlns="http://www.w3.org/2000/svg" viewBox="0 0 24 24"><path d="M8 8.25a1.25 1.25 0 1 0 0-2.5 1.25 1.25 0 0 0 0 2.5"/><path fill-rule="evenodd" d="M4.902 2.937C5.896 2.437 7.1 2 8 2s2.104.437 3.098.937c.995.5 2.083 1.215 2.635 1.983.316.439.293.923.223 1.247s-.219.64-.37.911c-.296.533-.745 1.145-1.168 1.721l-.028.038-.367.502C11.85 11.389 10.115 13 8 13s-3.848-1.61-4.023-3.66l-.367-.502-.028-.038c-.422-.577-.872-1.19-1.168-1.721-.151-.272-.3-.587-.37-.912-.07-.324-.093-.808.223-1.247.552-.768 1.64-1.483 2.635-1.983M4.07 5.894q.036.085.11.22c.229.41.603.923 1.062 1.547l.002.003c.163.222.333.454.501.689l.236.233V9c0 1.105.904 2 2.018 2a2.01 2.01 0 0 0 2.019-2v-.318l.184-.259c.185-.26.373-.516.552-.76l.002-.002c.459-.625.833-1.138 1.061-1.548q.074-.134.111-.22c-.334-.34-.963-.78-1.744-1.173C9.252 4.251 8.404 4 8 4s-1.252.251-2.185.72c-.78.393-1.41.832-1.744 1.174M15.87 19.946l.005.054q.08.917.125 2H0q.045-1.083.125-2l.004-.054c.177-2.025.265-3.038 1.566-4.327 1.3-1.29 2.275-1.37 4.227-1.532a25 25 0 0 1 4.157 0c1.95.162 2.926.242 4.226 1.532s1.39 2.302 1.566 4.327m-2.281-1.85c.125.405.181.905.269 1.904h-3.444l-3.948-3.948a23 23 0 0 1 3.446.028c1.042.087 1.53.137 1.926.26.29.09.587.238 1.049.696.451.447.605.747.702 1.06m-9.602-1.694L7.586 20H2.142c.088-.999.144-1.499.27-1.904.096-.313.25-.613.701-1.06.37-.367.635-.536.874-.634"/><path d="m16.708 10 2.3 2.3A30 30 0 0 0 19 13v2l-1.09.699c-.73.578-.91.968-.91 1.301h7c0-.333-.181-.723-.91-1.301L22 15v-2c0-.773-.029-1.394-.062-1.857-.034-.472-.05-.708-.285-.909-.234-.2-.473-.21-.952-.23-.201 0-.701-.004-1.2-.004z"/><path d="M14.541 10.06q.345-.017.779-.033L18.293 13H17a46 46 0 0 1-2.459-.06c-.588-.032-.882-.048-1.168-.299a1.4 1.4 0 0 1-.138-.145C13 12.197 13 11.965 13 11.5s0-.697.235-.996c.032-.04.1-.111.138-.145.286-.25.58-.267 1.168-.298"/></svg>