<svg xmlns="http://www.w3.org/2000/svg" viewBox="0 0 24 24"><path d="M7.031 3.145c.442.18 1.059.508 1.615 1.07.81.819 1.215 1.228 1.235 2.207s-.416 1.46-1.289 2.42c-.254.28-.525.555-.802.813l.285.34 4.294 4.34h-1.642c-.85 0-1.877.21-2.698.987a3.4 3.4 0 0 0-.816 1.192 25 25 0 0 1-.818-.792c-1.89-1.91-2.993-3.6-3.635-4.883-.805-1.608-1.065-3.544-.314-5.178.215-.467.504-.866.904-1.28.782-.832 1.806-1.185 2.453-1.332a2.13 2.13 0 0 1 1.228.096M16.177 22v-5.906H14.72V22zM13.7 20.116c0-1.288-.986-1.436-1.898-1.573l-.232-.036-.216-.033c-.593-.09-1.067-.161-1.067-.615 0-.486.353-.656.925-.656.538 0 .891.136.933.673h1.446c-.042-1.279-.958-1.782-2.379-1.782-1.43 0-2.295.554-2.295 1.782 0 1.404 1.06 1.562 1.998 1.702l.12.018q.18.026.345.045c.534.063.942.112.942.56 0 .529-.387.69-1.026.69-.63 0-1.009-.17-1.034-.835H8.816C8.875 21.454 9.758 22 11.305 22c1.513 0 2.396-.546 2.396-1.884"/><path fill-rule="evenodd" d="M22 18.142c0-1.297-.639-2.048-2.01-2.048h-2.358V22h1.404v-1.905h.955c1.37 0 2.009-.708 2.009-1.953m-1.446.137c0 .392-.244.63-.723.63h-.795v-1.63h.795c.488 0 .723.248.723.665z"/></svg>