<svg xmlns="http://www.w3.org/2000/svg" viewBox="0 0 16 16"><path d="M5.743 2.358a3.5 3.5 0 0 0-1.153-.756 1.53 1.53 0 0 0-.876-.067c-.462.103-1.193.352-1.75.939a3.2 3.2 0 0 0-.646.904c-.536 1.153-.35 2.52.224 3.654.459.906 1.246 2.099 2.594 3.447q.3.3.584.558c.127-.303.315-.59.582-.84.586-.549 1.32-.697 1.926-.697h1.171L5.336 6.436l-.204-.24a10 10 0 0 0 .573-.573c.623-.678.934-1.017.92-1.708-.015-.69-.304-.98-.882-1.557M11 15v-4h-1v4zm-1.7-1.276c0-.872-.678-.973-1.305-1.066l-.16-.024-.148-.023c-.407-.06-.732-.108-.732-.416 0-.329.242-.444.635-.444.37 0 .612.092.641.456h.993C9.195 11.34 8.566 11 7.59 11c-.982 0-1.576.375-1.576 1.207 0 .95.728 1.058 1.372 1.152l.082.013q.124.017.238.03c.366.043.646.076.646.38 0 .358-.265.467-.704.467-.433 0-.693-.115-.71-.566h-.994c.04.947.647 1.317 1.71 1.317 1.039 0 1.645-.37 1.645-1.276"/><path fill-rule="evenodd" d="M15 12.387c0-.879-.439-1.387-1.38-1.387H12v4h.964v-1.29h.656c.941 0 1.38-.48 1.38-1.323m-.993.092c0 .266-.168.428-.497.428h-.546v-1.104h.546c.335 0 .497.167.497.45z"/></svg>