<svg xmlns="http://www.w3.org/2000/svg" viewBox="0 0 16 16"><path d="m5.305 5.135-.442.461a.684.684 0 0 0 .01.957l2.905 2.885a.75.75 0 1 0 1.06-1.062L6.496 6.054c.125-.138.232-.259.328-.373.114-.139.213-.27.294-.404a1.75 1.75 0 0 0 .002-1.78c-.248-.41-.608-.763-.79-.942l-.062-.06c-.304-.305-.746-.689-1.346-.878-.669-.211-1.325-.12-1.919.147-.31.14-.665.353-.973.678-.21.22-.512.56-.719 1.032-.524 1.198-.345 2.587.23 3.746.472.95.96 1.718 2.27 3.211.04.04.126.13.356.355.3.294.781.283 1.067-.024a.756.756 0 0 0-.023-1.054c-.224-.22-.304-.303-.337-.336-1.21-1.39-1.592-2.018-1.99-2.819-.433-.874-.5-1.789-.198-2.478.1-.23.258-.42.43-.599a1.6 1.6 0 0 1 .503-.344c.65-.293 1.092-.074 1.587.422l.081.08c.198.197.407.405.55.64.038.063.031.17-.006.232a2 2 0 0 1-.162.217c-.09.11-.202.234-.364.412M11 15v-4h-1v4zm-1.7-1.276c0-.872-.678-.973-1.305-1.066l-.16-.024-.148-.023c-.407-.06-.732-.108-.732-.416 0-.329.242-.444.635-.444.37 0 .612.092.641.456h.993C9.195 11.34 8.566 11 7.59 11c-.982 0-1.576.375-1.576 1.207 0 .95.728 1.058 1.372 1.152l.082.013q.124.017.238.03c.366.043.646.076.646.38 0 .358-.265.467-.704.467-.433 0-.693-.115-.71-.566h-.994c.04.947.647 1.317 1.71 1.317 1.039 0 1.645-.37 1.645-1.276"/><path fill-rule="evenodd" d="M13.62 11c.941 0 1.38.508 1.38 1.387 0 .843-.439 1.322-1.38 1.322h-.656V15H12v-4zm-.11 1.907c.33 0 .497-.162.497-.428v-.226c0-.283-.162-.45-.497-.45h-.546v1.104z"/></svg>