<svg xmlns="http://www.w3.org/2000/svg" viewBox="0 0 16 16"><path d="M4.5 9.75A.75.75 0 0 1 5.25 9h1.5a.75.75 0 0 1 0 1.5h-1.5a.75.75 0 0 1-.75-.75m4 0A.75.75 0 0 1 9.25 9h1.5a.75.75 0 0 1 0 1.5h-1.5a.75.75 0 0 1-.75-.75"/><path fill-rule="evenodd" d="M13.41 5.5h.257c.736 0 1.333.597 1.333 1.333v.5a.667.667 0 0 1-.667.667H13.5v6a1 1 0 1 1-2 0v-.5h-7v.5a1 1 0 1 1-2 0V8h-.833A.667.667 0 0 1 1 7.333v-.5C1 6.097 1.597 5.5 2.333 5.5h.258q.027-.374.061-.711c.127-1.286.19-1.929.976-2.718.786-.79 1.403-.853 2.637-.98a17 17 0 0 1 3.471 0c1.233.127 1.85.19 2.636.98s.85 1.432.976 2.717q.034.338.061.712M11.982 7c-.022-.782-.07-1.47-.128-2.064a15 15 0 0 0-.11-.936h-7.49c-.036.213-.067.499-.11.936A30 30 0 0 0 4.017 7zM4 12h8V8.5H4z"/></svg>