<svg xmlns="http://www.w3.org/2000/svg" viewBox="0 0 16 16"><path fill-rule="evenodd" d="M1.667 8H2.5v6a1 1 0 1 0 2 0v-.5h7v.5a1 1 0 1 0 2 0V8h.833A.667.667 0 0 0 15 7.333v-.5c0-.736-.597-1.333-1.333-1.333h-.258q-.027-.375-.061-.712c-.127-1.285-.19-1.928-.976-2.717s-1.403-.853-2.636-.98A17 17 0 0 0 8 1c-.618 0-1.202.035-1.735.09-1.234.127-1.85.19-2.637.98s-.85 1.432-.976 2.718q-.034.337-.061.711h-.258A1.335 1.335 0 0 0 1 6.833v.5c0 .369.298.667.667.667m10.33 0c0-1.207-.06-2.23-.142-3.064a15 15 0 0 0-.11-.936h-7.49c-.036.213-.067.499-.11.936A31 31 0 0 0 4.002 8zM5.25 9a.75.75 0 0 0 0 1.5h1.5a.75.75 0 0 0 0-1.5zm4 0a.75.75 0 0 0 0 1.5h1.5a.75.75 0 0 0 0-1.5z"/></svg>