<svg xmlns="http://www.w3.org/2000/svg" viewBox="0 0 32 32"><path fill-rule="evenodd" d="M26.003 16v11a2 2 0 1 1-4 0v-.5h-12v.5a2 2 0 1 1-4 0l.004-11h-1.67a1.333 1.333 0 0 1-1.334-1.333v-1A2.667 2.667 0 0 1 5.67 11h.524l.008-.098c.218-2.711.327-4.067 2.077-5.805s3.015-1.83 5.546-2.016a30 30 0 0 1 4.364 0c2.53.185 3.796.278 5.546 2.016s1.859 3.094 2.076 5.805l.008.098h.517a2.667 2.667 0 0 1 2.667 2.667v1c0 .736-.597 1.333-1.333 1.333zM8.507 16h15c0-1.87-.076-3.504-.188-4.898-.115-1.44-.185-2.156-.362-2.738A3 3 0 0 0 22.82 8H9.194c-.057.123-.1.243-.137.364-.177.582-.247 1.298-.363 2.738A61 61 0 0 0 8.507 16m.996 3.75c0-.69.56-1.25 1.25-1.25h3a1.25 1.25 0 1 1 0 2.5h-3c-.69 0-1.25-.56-1.25-1.25m8.75-1.25a1.25 1.25 0 0 0 0 2.5h3a1.25 1.25 0 1 0 0-2.5z"/></svg>