<svg xmlns="http://www.w3.org/2000/svg" viewBox="0 0 24 24"><path fill-rule="evenodd" d="M20 20.5V12h1a1 1 0 0 0 1-1v-1a2 2 0 0 0-2-2q-.068 0-.135.009c-.154-2.08-.365-3.252-1.546-4.423-1.343-1.332-2.595-1.404-5.1-1.55Q12.613 2.001 12 2t-1.219.036c-2.505.146-3.757.218-5.1 1.55C4.5 4.757 4.289 5.93 4.135 8.01A1 1 0 0 0 4 8a2 2 0 0 0-2 2v1a1 1 0 0 0 1 1h1v8.5a1.5 1.5 0 0 0 3 0V20h10v.5a1.5 1.5 0 0 0 3 0M6.447 6c-.189.575-.272 1.433-.38 3.051A27 27 0 0 0 6.018 12h11.964a27 27 0 0 0-.049-2.949c-.107-1.618-.19-2.476-.38-3.051zM8 14a1 1 0 1 0 0 2h2a1 1 0 1 0 0-2zm6 0a1 1 0 1 0 0 2h2a1 1 0 1 0 0-2z"/></svg>