<svg xmlns="http://www.w3.org/2000/svg" viewBox="0 0 44 44"><path fill-rule="evenodd" d="m35.737 15-.01-.124c-.306-3.724-.459-5.586-2.855-7.969s-4.148-2.516-7.65-2.783A42 42 0 0 0 22.005 4a42 42 0 0 0-3.215.124c-3.504.267-5.255.4-7.652 2.783-2.396 2.383-2.549 4.245-2.854 7.969l-.01.124h-.606a3.667 3.667 0 0 0-3.667 3.667v1.5c0 1.012.82 1.833 1.833 1.833h2.167v15.5a2.5 2.5 0 0 0 5 0V37h18v.5a2.5 2.5 0 1 0 5 0V22h2.167c1.012 0 1.833-.82 1.833-1.833v-1.5A3.667 3.667 0 0 0 36.335 15zm-2.731 7c0-2.63-.109-4.923-.27-6.879-.16-1.963-.26-3-.521-3.855a5 5 0 0 0-.09-.266H11.886a5 5 0 0 0-.09.266c-.26.854-.36 1.893-.521 3.855a84 84 0 0 0-.27 6.879zm-20.004 5.5a1.5 1.5 0 0 1 1.5-1.5h4a1.5 1.5 0 0 1 0 3h-4a1.5 1.5 0 0 1-1.5-1.5m12.5-1.5a1.5 1.5 0 1 0 0 3h4a1.5 1.5 0 0 0 0-3z"/></svg>