<svg xmlns="http://www.w3.org/2000/svg" viewBox="0 0 44 44"><path d="M13 27.5a1.5 1.5 0 0 1 1.5-1.5h4a1.5 1.5 0 0 1 0 3h-4a1.5 1.5 0 0 1-1.5-1.5M25.5 26a1.5 1.5 0 0 0 0 3h4a1.5 1.5 0 0 0 0-3z"/><path fill-rule="evenodd" d="m35.725 14.876.01.124h.598A3.667 3.667 0 0 1 40 18.667v1.5C40 21.179 39.18 22 38.167 22H36v15.5a2.5 2.5 0 0 1-5 0V37H13v.5a2.5 2.5 0 0 1-5 0V22H5.833A1.833 1.833 0 0 1 4 20.167v-1.5A3.667 3.667 0 0 1 7.667 15h.606l.01-.124c.305-3.724.458-5.586 2.855-7.969s4.147-2.516 7.65-2.783A42 42 0 0 1 22.005 4c1.121 0 2.198.046 3.215.124 3.503.267 5.255.4 7.651 2.783s2.55 4.245 2.855 7.969M11 34V24h22v10zm21.735-18.879c.14 1.704.24 3.664.264 5.879h-21.99c.024-2.215.124-4.175.264-5.879.16-1.963.26-3 .522-3.855q.04-.135.09-.266h20.238q.05.132.09.266c.261.854.36 1.892.522 3.855"/></svg>