<svg xmlns="http://www.w3.org/2000/svg" viewBox="0 0 32 32"><path fill-rule="evenodd" d="M14.5 14a1 1 0 0 1 .35 1.937c.088.396.15.851.15 1.343l-.001 4.468a1.25 1.25 0 0 1-2.5 0V21H4v.748a1.25 1.25 0 0 1-2.5 0V17.28c0-.492.062-.947.15-1.343A1 1 0 0 1 2 14h.014c.11-.615.3-1.238.522-1.824.505-1.335.758-2.003 1.607-2.59S5.895 9 7.703 9h1.054c1.808 0 2.712 0 3.56.587.85.586 1.102 1.254 1.607 2.589.222.586.411 1.209.523 1.824zm-6.797-2.5c-.966 0-1.455.005-1.814.052-.242.032-.292.067-.32.087l-.005.004c-.073.051-.1.08-.11.09a.6.6 0 0 0-.072.107 4 4 0 0 0-.193.41c-.089.215-.184.466-.314.81a9 9 0 0 0-.335 1.068C5.48 14.057 6.711 14 8.248 14c1.524 0 2.74.054 3.67.123a9 9 0 0 0-.333-1.063c-.13-.344-.225-.595-.314-.81a4 4 0 0 0-.193-.41.6.6 0 0 0-.072-.107.6.6 0 0 0-.11-.09l-.005-.004c-.028-.02-.078-.055-.32-.087-.359-.047-.848-.052-1.814-.052zM30 14a1 1 0 0 1 .35 1.937c.088.396.15.851.15 1.343l-.001 4.468a1.25 1.25 0 0 1-2.5 0V21H19.5v.748a1.25 1.25 0 0 1-2.5 0V17.28c0-.492.063-.947.15-1.343A1 1 0 0 1 17.5 14h.014c.11-.615.3-1.238.523-1.824.504-1.335.757-2.003 1.606-2.59S21.395 9 23.203 9h1.054c1.808 0 2.711 0 3.56.587.85.586 1.102 1.254 1.607 2.589.221.586.411 1.209.523 1.824zm-6.797-2.5c-.966 0-1.455.005-1.814.052-.242.032-.292.067-.32.087l-.005.004c-.073.051-.1.08-.11.09a.6.6 0 0 0-.072.107 4 4 0 0 0-.193.41c-.089.215-.184.466-.314.81a9 9 0 0 0-.335 1.068A49 49 0 0 1 23.748 14c1.524 0 2.74.054 3.67.123a9 9 0 0 0-.333-1.063c-.13-.344-.225-.595-.314-.81a4 4 0 0 0-.193-.41.6.6 0 0 0-.072-.107.6.6 0 0 0-.11-.09l-.005-.004c-.028-.02-.077-.055-.32-.087-.359-.047-.848-.052-1.814-.052z"/></svg>