<svg xmlns="http://www.w3.org/2000/svg" viewBox="0 0 24 24"><path d="M17.937 5.71c.048.178.063.31.063.7v.116c0 .41 0 .616-.013.816a6 6 0 0 1-1.159 3.165c-.118.16-.251.318-.517.632l-.769.91q-.32.381-.58.681.012-.128.02-.255c.018-.267.018-.536.018-.893v-.179c0-.405-.013-.729-.108-1.12-.532-2.852-2.94-4.983-5.853-5.236a12 12 0 0 0-.79-.044c.572-1.62 2.076-2.807 3.886-2.964Q12.564 2.001 13 2q.436 0 .866.039c2.064.18 3.73 1.697 4.07 3.67"/><path fill-rule="evenodd" d="M12.937 10.71c.049.178.063.31.063.7v.115c0 .412 0 .617-.013.817a6 6 0 0 1-1.158 3.165c-.119.16-.252.318-.517.632l-.77.91c-.988 1.17-1.482 1.754-2.097 1.9-.293.07-.597.07-.889 0-.615-.146-1.11-.73-2.098-1.9l-.77-.91a13 13 0 0 1-.516-.632 6 6 0 0 1-1.158-3.165C3 12.142 3 11.937 3 11.526v-.082c0-.249-.001-.498.065-.74.343-1.97 2.008-3.486 4.07-3.665q.43-.038.866-.039.436 0 .865.039c2.064.18 3.73 1.697 4.071 3.67m-5.731.495c-.187.186-.192.357-.204.698a3 3 0 0 0 0 .194c.012.341.017.512.204.698.186.186.356.192.698.203a3 3 0 0 0 .193 0c.341-.011.512-.017.698-.203s.192-.357.204-.698a3 3 0 0 0 0-.194c-.012-.341-.018-.512-.204-.698s-.357-.192-.698-.203a3 3 0 0 0-.193 0c-.342.011-.512.017-.698.203"/><path d="m18.532 15.879-2.656 2.657.95.951c.348.348.136.966-.364 1.066l-.09.018c-2.224.444-3.357.67-3.985.042-.628-.629-.402-1.762.042-3.987l.018-.09c.1-.5.717-.712 1.065-.365l.95.951 2.657-2.658-.95-.95c-.348-.348-.136-.966.365-1.066l.09-.018c2.226-.445 3.36-.671 3.989-.042.628.629.402 1.763-.043 3.99l-.018.09c-.1.502-.718.713-1.065.365z"/></svg>