<svg xmlns="http://www.w3.org/2000/svg" viewBox="0 0 16 16"><path d="M11.941 3.525c-.257-1.337-1.385-2.36-2.789-2.493A7 7 0 0 0 8.496 1q-.331.001-.656.032A3.13 3.13 0 0 0 5.2 3.006a8 8 0 0 1 1.097.033c2.032.191 3.816 1.764 4.138 3.8q.013.077.027.204c.02.164.038.393.038.658v.125l.313-.373a8 8 0 0 0 .47-.588 4 4 0 0 0 .696-1.911c.017-.184.017-.374.017-.753 0-.226-.009-.455-.055-.676"/><path fill-rule="evenodd" d="M8.941 7.025c-.257-1.337-1.385-2.36-2.789-2.493a7 7 0 0 0-.656-.032q-.331.001-.656.032c-1.402.132-2.53 1.154-2.788 2.489 0 0-.056.29-.056.68 0 .38 0 .569.017.753.063.686.303 1.344.695 1.91.105.152.227.298.47.589l.526.626c.747.89 1.12 1.336 1.597 1.41q.195.03.39 0c.477-.074.85-.52 1.597-1.41l.525-.626a9 9 0 0 0 .47-.588 4 4 0 0 0 .696-1.911c.017-.184.017-.374.017-.753a3.3 3.3 0 0 0-.055-.676m-4.05.37c-.12.12-.126.235-.14.466a2 2 0 0 0 0 .278c.014.231.02.347.14.466s.235.126.466.14a2 2 0 0 0 .278 0c.231-.014.347-.02.466-.14.12-.119.126-.235.14-.466a2 2 0 0 0 0-.278c-.014-.231-.02-.347-.14-.466-.119-.12-.235-.126-.466-.14a2 2 0 0 0-.278 0c-.231.014-.347.02-.466.14"/><path d="m11.25 9.688-.629-.629c-.243-.243-.095-.676.255-.746l.064-.012c1.556-.311 2.35-.47 2.789-.03s.281 1.234-.03 2.791l-.012.064c-.07.35-.502.498-.745.255l-.632-.632-1.56 1.562.629.63c.243.243.095.676-.255.746l-.064.012c-1.556.311-2.35.47-2.789.03s-.281-1.234.03-2.792l.012-.063c.07-.35.502-.499.746-.255l.63.63z"/></svg>