<svg xmlns="http://www.w3.org/2000/svg" viewBox="0 0 16 16"><path d="M5.753 8.525v-1.11l.941-.741h1.12v4.674h-1.12V7.765z"/><path fill-rule="evenodd" d="M12.539 2.9c.15.12.46.431.58.581l-.02-.02C14 4.572 14 5.373 14 6.994c0 1.622 0 2.432-.9 3.533-.12.15-.431.46-.581.58-.25.21-.49.37-.73.491-.14.51-.381.94-.822 1.381-.93.93-1.781.96-3.482 1.021h-.981c-1.702-.06-2.552-.09-3.483-1.02-.93-.932-.961-1.782-1.021-3.484v-.98c.06-1.702.09-2.553 1.02-3.483.441-.45.872-.691 1.382-.821.12-.23.28-.47.49-.73.12-.15.43-.461.58-.581C6.585 2 7.385 2 9.007 2s2.432 0 3.533.9m-2.172 8.288c.09-.36.11-.831.14-1.732v-.88c-.03-.901-.05-1.372-.14-1.732-.07-.26-.16-.46-.44-.74-.27-.28-.47-.38-.741-.44-.36-.091-.83-.111-1.731-.141h-.881c-.9.03-1.371.05-1.732.14-.26.07-.46.16-.74.44-.28.27-.38.48-.44.741-.09.36-.11.83-.14 1.731v.881c.03.901.05 1.371.14 1.732.07.26.17.46.44.74s.47.38.74.44c.36.09.831.11 1.732.14h.88c.901-.03 1.372-.05 1.732-.14.26-.07.46-.17.74-.44s.38-.47.441-.74m1.641-1.662c.28-.35.38-.6.43-.86.08-.36.08-.791.08-1.652s-.01-1.29-.08-1.651c-.06-.28-.16-.54-.48-.931 0-.01-.02-.03-.05-.06-.03-.04-.07-.08-.12-.13a1 1 0 0 1-.069-.064q-.03-.033-.06-.056c-.041-.03-.061-.05-.061-.05-.39-.32-.65-.42-.93-.48-.361-.08-.791-.08-1.652-.08s-1.291.01-1.652.08c-.26.06-.51.15-.86.43h1c1.702.06 2.553.09 3.484 1.02.93.931.96 1.782 1.02 3.483z"/></svg>