<svg xmlns="http://www.w3.org/2000/svg" viewBox="0 0 44 44"><g fill-rule="evenodd" clip-rule="evenodd"><path d="M38 18.35c-.1-4.65-.15-6.98-2.76-9.59-2.602-2.6-4.932-2.65-9.584-2.76h-1.62c-4.652.1-6.983.15-9.593 2.76-1.22 1.22-1.88 2.38-2.251 3.75-1.53.28-2.65.79-3.781 1.91-1.86 1.89-2 3.76-2.291 7.52-.08 1-.12 2.03-.12 3.06s.05 2.06.12 3.06c.28 3.75.43 5.63 2.31 7.51s3.762 2.02 7.513 2.31c1 .08 2.03.12 3.061.12 1.03 0 2.06-.05 3.061-.12 3.751-.28 5.632-.43 7.512-2.31 1.13-1.13 1.63-2.25 1.911-3.78 1.37-.37 2.53-1.03 3.751-2.25 2.6-2.6 2.651-4.93 2.761-9.59v-1.62zm-9.103 9.49c-.3 3.96-.47 4.65-1.44 5.62s-1.66 1.14-5.622 1.44c-.94.07-1.89.11-2.84.11-.951 0-1.902-.04-2.842-.11-3.961-.3-4.651-.47-5.622-1.44-.97-.97-1.14-1.66-1.44-5.62-.07-.94-.11-1.89-.11-2.84s.04-1.9.11-2.84c.3-3.96.47-4.65 1.44-5.62s1.66-1.14 5.622-1.44c.94-.07 1.89-.11 2.841-.11.95 0 1.9.04 2.84.11 3.962.3 4.652.47 5.623 1.44.97.97 1.14 1.66 1.44 5.62.07.94.11 1.89.11 2.84s-.04 1.9-.11 2.84M35 19.9c-.05 2.44-.1 3.82-.36 4.94-.22.92-.59 1.66-1.52 2.59-.45.45-.86.77-1.26 1.01 0-.12.02-.24.03-.37.08-1 .12-2.03.12-3.06s-.05-2.06-.12-3.06c-.281-3.75-.431-5.63-2.312-7.51s-3.76-2.02-7.512-2.31c-1-.08-2.03-.12-3.06-.12s-2.062.05-3.062.12c-.12 0-.25.02-.37.03.23-.4.55-.81 1.01-1.26.93-.93 1.67-1.3 2.591-1.52 1.12-.26 2.5-.31 4.942-.36h1.48c2.44.05 3.821.1 4.942.36.92.22 1.66.59 2.59 1.52s1.3 1.67 1.521 2.59c.26 1.12.31 2.5.36 4.94v1.48z"/><path d="M15.57 20.54v3.12l2.62-2.15v10.05h3.17V18.45h-3.17z"/></g></svg>