<svg xmlns="http://www.w3.org/2000/svg" viewBox="0 0 24 24"><path d="M8.43 12.9v-1.74L9.9 9.99h1.78v7.34H9.9V11.7z"/><path fill-rule="evenodd" d="M18.79 4.35c.21.17.68.64.86.86C21 6.87 21 8.08 21 10.5s0 3.64-1.35 5.29c-.17.21-.64.68-.86.86-.38.32-.74.56-1.1.74-.21.76-.56 1.4-1.23 2.07-1.385 1.395-2.66 1.44-5.202 1.529l-.028.001c-.24.01-.49.01-.73.01q-.18-.001-.365-.005-.185-.005-.365-.005c-2.56-.09-3.84-.14-5.23-1.53-1.395-1.385-1.44-2.66-1.529-5.202l-.001-.028C3 13.99 3 13.74 3 13.5q0-.18.005-.365.004-.185.005-.365c.09-2.56.14-3.84 1.53-5.23.66-.67 1.3-1.03 2.07-1.23.19-.36.43-.72.74-1.1.17-.21.64-.68.86-.86C9.87 3 11.08 3 13.5 3s3.64 0 5.29 1.35m-3.02 12.46c.14-.57.17-1.3.22-2.65.01-.22.01-.44.01-.66q0-.165-.005-.33-.004-.165-.005-.33c-.05-1.35-.08-2.08-.22-2.65-.1-.44-.27-.78-.72-1.23-.44-.44-.79-.61-1.23-.72-.57-.14-1.3-.17-2.65-.22-.22-.01-.44-.01-.66-.01q-.165 0-.33.005-.165.004-.33.005c-1.35.05-2.08.08-2.65.22-.44.1-.78.27-1.23.72-.44.44-.61.79-.72 1.23-.14.57-.17 1.3-.22 2.65-.01.22-.01.44-.01.66q.001.165.005.33t.005.33c.05 1.35.08 2.08.22 2.65.1.44.27.78.72 1.23.44.44.79.61 1.23.72.57.14 1.3.17 2.65.22a15 15 0 0 0 .99.005q.165-.004.33-.005c1.35-.05 2.08-.08 2.65-.22.44-.1.78-.27 1.23-.72.44-.44.61-.79.72-1.23m2.34-2.29c.5-.61.67-1.04.77-1.5l.02.01c.13-.57.13-1.25.13-2.53s-.01-1.96-.13-2.53c-.09-.46-.27-.89-.77-1.5 0 0-.01-.01-.02-.03l-.07-.07c-.05-.06-.12-.13-.19-.2s-.14-.14-.2-.19l-.07-.07c-.02-.02-.03-.02-.03-.02-.61-.5-1.04-.67-1.5-.77-.57-.13-1.25-.13-2.53-.13s-1.96.01-2.53.13c-.46.09-.89.27-1.5.77 0 0-.01.01-.03.02l-.11.11c.14-.01.28-.02.43-.02.24-.01.49-.01.73-.01q.18 0 .365.005.185.004.365.005c2.56.09 3.84.14 5.23 1.53 1.395 1.385 1.44 2.66 1.529 5.202l.001.028a18 18 0 0 1 .005 1.095q-.004.184-.005.365c-.01.15-.02.3-.02.44l.11-.11c.02-.02.02-.03.02-.03"/></svg>