<svg xmlns="http://www.w3.org/2000/svg" viewBox="0 0 24 24"><path fill-rule="evenodd" d="M19.66 5.21c-.18-.22-.65-.69-.86-.86C17.14 3 15.93 3 13.5 3S9.87 3 8.21 4.35c-.22.18-.69.65-.86.86-.31.38-.55.74-.74 1.1-.77.2-1.41.56-2.07 1.23-1.39 1.39-1.44 2.67-1.53 5.23 0 .24-.01.49-.01.73s0 .49.01.73c.09 2.56.13 3.84 1.53 5.23 1.39 1.39 2.67 1.44 5.23 1.53.24 0 .49.01.73.01s.49 0 .73-.01c2.56-.09 3.84-.13 5.23-1.53.67-.67 1.02-1.31 1.23-2.07.36-.18.72-.42 1.1-.74.22-.18.69-.65.86-.86C21 14.14 21 12.92 21 10.5s0-3.63-1.35-5.29zm-8.09 12.54H9.65v-6.07l-1.58 1.3V11.1l1.58-1.26h1.92v7.92zm7.31-4.73c-.1.46-.27.89-.77 1.5 0 0 0 .01-.02.03l-.07.07-.04.04c0-.14 0-.29.02-.44 0-.24.01-.49.01-.73s0-.49-.01-.73c-.09-2.56-.13-3.84-1.53-5.23S13.8 6.09 11.24 6c-.24 0-.49-.01-.73-.01s-.49 0-.73.01c-.15 0-.29.01-.43.02l.04-.04.07-.07c.02-.01.03-.02.03-.02.61-.5 1.04-.68 1.5-.77.57-.12 1.25-.13 2.53-.13s1.96 0 2.53.13c.46.1.89.27 1.5.77 0 0 .01 0 .03.02l.07.07c.06.05.13.12.2.19s.14.14.19.2l.07.07c.01.02.02.03.02.03.5.61.68 1.04.77 1.5.12.57.13 1.25.13 2.53s0 1.96-.13 2.53z"/></svg>