<svg xmlns="http://www.w3.org/2000/svg" viewBox="0 0 44 44"><path d="M29 9.5A1.5 1.5 0 0 0 27.5 8h-11a1.5 1.5 0 0 0 0 3h2.002v2h-.634a3.6 3.6 0 0 0-2.483.993l-1.272 1.213c-1.349.181-2.247.493-3.28 1.512-1.227 1.21-1.444 2.148-1.63 3.782H7v-2a1.5 1.5 0 0 0-3 0v11a1.5 1.5 0 0 0 3 0v-2h2.304c.187 1.187.508 2.006 1.529 3.012 1.372 1.354 2.507 1.46 4.775 1.67a63 63 0 0 0 3.566.228l1.205 1.53A5.4 5.4 0 0 0 24.622 36H29.6a5.4 5.4 0 0 0 5.4-5.4V29h2v3.5a1.5 1.5 0 0 0 3 0v-14a1.5 1.5 0 0 0-3 0V22h-2.057a24 24 0 0 0-.078-.885c-.216-2.028-.325-3.043-1.697-4.397-1.034-1.02-1.933-1.33-3.282-1.513l-1.273-1.212A3.6 3.6 0 0 0 26.13 13h-.628v-2H27.5A1.5 1.5 0 0 0 29 9.5"/></svg>