<svg xmlns="http://www.w3.org/2000/svg" viewBox="0 0 17 17"><path d="M11.686 3.453a.797.797 0 0 0-.797-.797H6.11a.797.797 0 1 0 0 1.593h.796v.532h-.08c-.386 0-.757.15-1.035.42l-.513.497c-.545.076-.912.207-1.333.623-.458.452-.575.814-.65 1.381h-.638v-.531a.797.797 0 0 0-1.594 0v4.25a.797.797 0 0 0 1.594 0v-.532h.668c.08.456.22.782.62 1.178.567.56 1.035.604 1.97.691q.627.06 1.43.093l.485.626a2.23 2.23 0 0 0 1.765.866h1.986a2.23 2.23 0 0 0 2.231-2.231v-.426h.53v1.328a.797.797 0 1 0 1.595 0V7.171a.797.797 0 0 0-1.594 0v1.328h-.556q-.014-.18-.031-.352c-.09-.844-.134-1.266-.701-1.826-.421-.416-.788-.547-1.332-.623l-.513-.497a1.5 1.5 0 0 0-1.036-.42h-.08V4.25h.796c.44 0 .797-.356.797-.796"/></svg>