<svg xmlns="http://www.w3.org/2000/svg" viewBox="0 0 24 24"><path d="M16 5a1 1 0 0 0-1-1H9a1 1 0 1 0 0 2h1v1h-.172a2 2 0 0 0-1.414.586l-.661.661c-.702.104-1.183.285-1.736.832-.628.623-.78 1.122-.88 1.921H4v-1a1 1 0 1 0-2 0v6a1 1 0 1 0 2 0v-1h1.137c.1.8.252 1.298.88 1.92.762.755 1.389.814 2.643.932.534.05 1.14.093 1.818.12l.622.828a3 3 0 0 0 2.4 1.2H16a3 3 0 0 0 3-3v-1h1v2a1 1 0 1 0 2 0v-8a1 1 0 1 0-2 0v2h-1.037q-.016-.228-.039-.445c-.12-1.147-.179-1.72-.94-2.476-.554-.547-1.035-.728-1.737-.832l-.661-.661A2 2 0 0 0 14.172 7H14V6h1a1 1 0 0 0 1-1"/></svg>