<svg xmlns="http://www.w3.org/2000/svg" viewBox="0 0 17 17"><path fill-rule="evenodd" d="M11.686 3.453a.797.797 0 0 0-.797-.797H6.11a.797.797 0 1 0 0 1.593h.796v.532h-.08c-.386 0-.757.15-1.035.42l-.513.497c-.545.076-.912.207-1.333.623-.458.452-.575.814-.65 1.381h-.638v-.531a.797.797 0 0 0-1.594 0v4.25a.797.797 0 0 0 1.594 0v-.532h.668c.08.456.22.782.62 1.178.567.56 1.035.604 1.97.691q.627.06 1.43.093l.485.626a2.23 2.23 0 0 0 1.765.866h1.986a2.23 2.23 0 0 0 2.231-2.231v-.426h.53v1.328a.797.797 0 1 0 1.595 0V7.171a.797.797 0 0 0-1.594 0v1.328h-.556q-.014-.18-.031-.352c-.09-.844-.134-1.266-.701-1.826-.421-.416-.788-.547-1.332-.623l-.513-.497a1.5 1.5 0 0 0-1.036-.42h-.08V4.25h.796c.44 0 .797-.356.797-.796M6.012 7.205l-.516.072a1 1 0 0 0-.286.062.5.5 0 0 0-.146.116 1 1 0 0 0-.12.136.1.1 0 0 0-.017.038c-.009.026-.024.08-.041.196-.02.123-.035.268-.058.489a8.4 8.4 0 0 0 0 1.761c.023.22.039.365.058.488.017.116.032.17.04.196a.2.2 0 0 0 .019.038c.01.016.04.06.119.137.07.069.11.095.125.104a.2.2 0 0 0 .062.026c.043.013.117.03.256.05a24 24 0 0 0 1.898.145l.744.027.94 1.216a.64.64 0 0 0 .505.247h1.986a.637.637 0 0 0 .637-.637V9.194q-.002-.463-.047-.88c-.023-.22-.039-.365-.058-.488a1.3 1.3 0 0 0-.041-.197.1.1 0 0 0-.018-.038 1 1 0 0 0-.119-.136.5.5 0 0 0-.146-.116 1 1 0 0 0-.286-.062l-.515-.072-.857-.83H6.868z"/></svg>