<svg xmlns="http://www.w3.org/2000/svg" viewBox="0 0 24 24"><path fill-rule="evenodd" d="M7.914 3.263C8.497 3.19 9 3.657 9 4.245c0 .52-.398.948-.913 1.017-1.103.147-1.5.352-1.987.84-.487.487-.692.883-.84 1.985-.07.515-.497.913-1.017.913-.587 0-1.056-.503-.981-1.086.177-1.379.499-2.301 1.424-3.226.925-.926 1.848-1.247 3.228-1.425M15 4.245c0-.588.503-1.056 1.085-.981 1.38.177 2.303.498 3.229 1.424.925.925 1.247 1.848 1.424 3.228.075.583-.394 1.086-.981 1.086-.52 0-.948-.398-1.017-.914-.148-1.103-.353-1.499-.84-1.986-.488-.488-.884-.693-1.987-.84a1.04 1.04 0 0 1-.914-1.017M7.913 20.74c.583.075 1.086-.394 1.086-.981 0-.52-.398-.948-.914-1.017-1.103-.148-1.499-.353-1.986-.84-.488-.488-.693-.884-.84-1.989A1.04 1.04 0 0 0 4.242 15c-.588 0-1.057.503-.982 1.085.178 1.382.499 2.305 1.425 3.23.925.926 1.848 1.248 3.228 1.425m12.824-4.654c.075-.583-.394-1.086-.981-1.086-.52 0-.948.398-1.017.914-.148 1.104-.353 1.5-.84 1.988-.488.487-.884.692-1.986.84A1.04 1.04 0 0 0 15 19.759c0 .587.503 1.056 1.086.98 1.38-.177 2.303-.498 3.228-1.423.925-.926 1.247-1.85 1.424-3.23M12 7.5c-.93 0-1.74.038-2.432.094-1.227.1-1.84.15-2.621.935-.653.657-.79 1.16-.867 1.971h11.84c-.077-.81-.214-1.314-.867-1.971-.78-.785-1.394-.835-2.622-.935A30 30 0 0 0 12 7.5m-5.962 5.488a13 13 0 0 1-.028-.488h11.98a13 13 0 0 1-.028.487c-.085 1.133-.128 1.699-.909 2.484-.78.785-1.394.835-2.622.935-.691.056-1.502.094-2.431.094-.93 0-1.74-.038-2.432-.094-1.227-.1-1.84-.15-2.621-.935s-.823-1.35-.91-2.483"/></svg>