<svg xmlns="http://www.w3.org/2000/svg" viewBox="0 0 44 44"><path fill-rule="evenodd" d="M16 7.975c0-.888-.765-1.594-1.643-1.46-2.193.332-3.747.956-5.317 2.525-1.442 1.443-2.086 2.873-2.44 4.798-.161.882.55 1.662 1.448 1.662.767 0 1.397-.578 1.546-1.33.277-1.397.711-2.152 1.568-3.008.949-.95 1.773-1.38 3.484-1.653C15.411 9.387 16 8.75 16 7.975M29.354 9.51C28.589 9.387 28 8.75 28 7.975c0-.888.765-1.594 1.643-1.46 2.194.332 3.747.956 5.317 2.525 1.443 1.443 2.086 2.873 2.44 4.798.161.882-.55 1.662-1.448 1.662-.767 0-1.397-.578-1.546-1.33-.277-1.397-.71-2.152-1.567-3.008-.95-.95-1.774-1.38-3.485-1.653M28 36.025c0-.774.589-1.412 1.354-1.534 1.711-.273 2.535-.703 3.485-1.652 1.034-1.035 1.452-1.92 1.722-3.968.102-.773.745-1.371 1.525-1.371.882 0 1.583.755 1.472 1.63-.315 2.47-.909 4.14-2.598 5.83-1.57 1.57-3.123 2.193-5.317 2.526-.878.134-1.643-.573-1.643-1.46M7.914 27.5c.78 0 1.423.598 1.525 1.371.27 2.047.688 2.933 1.723 3.968.949.949 1.773 1.38 3.484 1.652.765.122 1.354.76 1.354 1.534 0 .888-.765 1.595-1.643 1.461-2.193-.333-3.747-.956-5.317-2.526-1.69-1.69-2.282-3.36-2.598-5.83-.111-.875.59-1.63 1.472-1.63M22 16.5c-1.595 0-2.992.06-4.187.15-1.326.1-1.877.157-2.303.286-.26.079-.541.203-1.037.704-.53.537-.64.81-.7 1.005a3 3 0 0 0-.082.355H30.31a3 3 0 0 0-.082-.355c-.06-.195-.17-.468-.7-1.005-.495-.5-.777-.625-1.037-.704-.426-.13-.978-.186-2.304-.286A56 56 0 0 0 22 16.5m8.5 5.5h-17q.001.697.043 1.35c.078 1.213.123 1.658.23 2.005.06.195.17.468.7 1.005.496.5.777.625 1.037.704.426.13.977.186 2.302.286 1.196.09 2.592.15 4.188.15s2.991-.06 4.186-.15c1.327-.1 1.878-.157 2.304-.286.26-.079.542-.203 1.037-.704.53-.537.64-.81.7-1.005.107-.348.152-.793.23-2.007q.042-.652.043-1.348m-12.913-8.341A59 59 0 0 1 22 13.5c1.67 0 3.142.063 4.411.159 2.447.184 3.671.276 5.25 1.872 1.578 1.597 1.648 2.708 1.79 4.931a24 24 0 0 1 0 3.076c-.142 2.223-.212 3.334-1.79 4.93-1.579 1.597-2.803 1.69-5.25 1.873-1.27.096-2.74.159-4.411.159s-3.143-.063-4.413-.159c-2.446-.184-3.669-.276-5.247-1.872s-1.649-2.707-1.79-4.929a24 24 0 0 1 0-3.08c.141-2.222.212-3.332 1.79-4.929 1.578-1.596 2.801-1.688 5.247-1.872"/></svg>