<svg xmlns="http://www.w3.org/2000/svg" viewBox="0 0 44 44"><path fill-rule="evenodd" d="M14.357 6.514C15.235 6.381 16 7.087 16 7.975c0 .775-.589 1.412-1.354 1.534-1.71.273-2.535.704-3.484 1.653-.857.856-1.29 1.611-1.568 3.008-.15.752-.78 1.33-1.546 1.33-.897 0-1.61-.78-1.447-1.662.353-1.925.997-3.355 2.44-4.798 1.569-1.57 3.123-2.193 5.316-2.526M28 7.975c0 .775.589 1.412 1.354 1.534 1.711.273 2.535.704 3.485 1.653.856.856 1.29 1.611 1.567 3.008.15.752.78 1.33 1.546 1.33.897 0 1.61-.78 1.447-1.662-.353-1.925-.996-3.355-2.44-4.798-1.569-1.57-3.122-2.193-5.316-2.526C28.765 6.381 28 7.087 28 7.975m1.354 26.516c-.765.122-1.354.76-1.354 1.534 0 .888.765 1.595 1.643 1.461 2.194-.333 3.747-.956 5.317-2.526 1.69-1.69 2.283-3.36 2.598-5.83.111-.875-.59-1.63-1.472-1.63-.78 0-1.423.598-1.525 1.371-.27 2.047-.688 2.933-1.722 3.968-.95.949-1.774 1.38-3.485 1.652m-19.915-5.62c-.102-.773-.745-1.371-1.525-1.371-.882 0-1.583.755-1.472 1.63.316 2.47.909 4.14 2.598 5.83 1.57 1.57 3.124 2.193 5.317 2.526.878.134 1.643-.573 1.643-1.46 0-.775-.589-1.413-1.354-1.535-1.71-.273-2.535-.703-3.484-1.652-1.035-1.035-1.453-1.92-1.723-3.968M22 13.5c-1.671 0-3.143.063-4.413.159-2.446.184-3.669.276-5.247 1.872-1.19 1.204-1.523 2.132-1.676 3.469h22.672c-.153-1.337-.486-2.265-1.676-3.469-1.578-1.596-2.802-1.688-5.249-1.872A59 59 0 0 0 22 13.5M10.55 23.54A24 24 0 0 1 10.5 22h23q-.001.797-.05 1.538c-.14 2.223-.211 3.334-1.79 4.93-1.578 1.597-2.802 1.69-5.249 1.873-1.27.096-2.74.159-4.411.159s-3.143-.063-4.413-.159c-2.446-.184-3.669-.276-5.247-1.872s-1.649-2.707-1.79-4.929"/></svg>