<svg xmlns="http://www.w3.org/2000/svg" viewBox="0 0 24 24"><path fill-rule="evenodd" d="M9 4.245c0-.588-.503-1.056-1.086-.982-1.38.178-2.303.5-3.228 1.425S3.439 6.535 3.262 7.914C3.187 8.497 3.656 9 4.243 9c.52 0 .948-.398 1.017-.913.148-1.102.353-1.498.84-1.985s.884-.693 1.987-.84c.515-.07.913-.497.913-1.017m7.085-.981c-.582-.075-1.086.393-1.086.98 0 .52.399.949.914 1.018 1.103.147 1.5.353 1.986.84.488.487.693.883.84 1.986.07.516.497.914 1.018.914.587 0 1.056-.503.981-1.086-.177-1.38-.499-2.303-1.424-3.228-.926-.926-1.849-1.247-3.229-1.424M9 19.759c0 .587-.503 1.056-1.086.981-1.38-.177-2.303-.499-3.228-1.424-.926-.926-1.247-1.85-1.425-3.23-.075-.583.394-1.086.982-1.086.52 0 .947.398 1.016.913.148 1.105.353 1.5.84 1.989.488.487.884.692 1.987.84.516.069.914.497.914 1.017M19.757 15c.587 0 1.056.503.981 1.086-.177 1.38-.499 2.304-1.424 3.23-.925.925-1.848 1.247-3.228 1.424-.583.075-1.086-.394-1.086-.981 0-.52.398-.948.914-1.017 1.102-.148 1.498-.353 1.986-.84.487-.488.692-.884.84-1.988A1.04 1.04 0 0 1 19.757 15M12 9.5a28 28 0 0 0-2.996.156c-.18.023-.275.045-.331.062a.4.4 0 0 0-.1.043c-.031.02-.098.068-.208.178a1.4 1.4 0 0 0-.19.223.3.3 0 0 0-.034.074c-.012.038-.03.112-.05.264h7.818a1.6 1.6 0 0 0-.05-.264.3.3 0 0 0-.034-.074 1.4 1.4 0 0 0-.19-.223 1.2 1.2 0 0 0-.209-.178.4.4 0 0 0-.098-.043 2 2 0 0 0-.333-.062A28 28 0 0 0 12 9.5m3.989 3q-.009.171-.021.336c-.022.297-.038.491-.059.657-.02.156-.038.232-.05.27a.3.3 0 0 1-.034.075 1.4 1.4 0 0 1-.19.223c-.11.11-.177.157-.209.178a.4.4 0 0 1-.098.043 2 2 0 0 1-.333.062A28 28 0 0 1 12 14.5a28 28 0 0 1-2.996-.156 2 2 0 0 1-.331-.062.4.4 0 0 1-.1-.043 1.2 1.2 0 0 1-.208-.178 1.4 1.4 0 0 1-.19-.223.3.3 0 0 1-.034-.074 1.6 1.6 0 0 1-.05-.27 14 14 0 0 1-.08-.994zm-9.951.488a13 13 0 0 1 0-1.976c.086-1.132.128-1.698.909-2.483.78-.785 1.394-.835 2.621-.935A30 30 0 0 1 12 7.5c.93 0 1.74.038 2.431.094 1.228.1 1.842.15 2.622.935s.824 1.351.91 2.484a13 13 0 0 1 0 1.974c-.086 1.133-.13 1.699-.91 2.484s-1.394.835-2.622.935c-.691.056-1.502.094-2.431.094-.93 0-1.74-.038-2.432-.094-1.227-.1-1.84-.15-2.621-.935s-.823-1.35-.91-2.483"/></svg>