<svg xmlns="http://www.w3.org/2000/svg" viewBox="0 0 16 16"><path fill-rule="evenodd" d="M6 2.921c0-.44-.377-.794-.814-.733-.87.12-1.465.34-2.062.937-.596.596-.816 1.191-.937 2.06-.06.437.292.815.733.815.39 0 .71-.299.766-.684.094-.64.222-.854.499-1.13.276-.277.49-.405 1.13-.5A.785.785 0 0 0 6 2.922m4.814-.733c-.437-.06-.814.292-.814.733 0 .39.299.71.684.766.64.094.855.222 1.131.499.277.276.405.49.5 1.13a.785.785 0 0 0 .765.685c.44 0 .794-.377.733-.814-.12-.87-.34-1.465-.937-2.062-.596-.596-1.191-.816-2.062-.937M6 13.08c0 .44-.377.794-.814.734-.87-.121-1.465-.341-2.062-.938s-.817-1.192-.938-2.063c-.06-.437.293-.814.734-.814.39 0 .709.299.766.684.094.641.222.856.499 1.133.276.276.49.404 1.13.498A.786.786 0 0 1 6 13.08M13.08 10c.44 0 .794.377.734.813-.121.871-.341 1.467-.938 2.063-.596.596-1.191.817-2.061.938-.437.06-.815-.293-.815-.734 0-.39.299-.709.685-.766.64-.094.854-.222 1.13-.498.277-.277.405-.492.5-1.132A.785.785 0 0 1 13.08 10M8 6.25a17 17 0 0 0-1.961.11 1 1 0 0 0-.191.036l-.026.011a.7.7 0 0 0-.108.094.7.7 0 0 0-.097.112 1 1 0 0 0-.032.137h4.831a1 1 0 0 0-.024-.117l-.008-.02a.7.7 0 0 0-.098-.112.7.7 0 0 0-.108-.094l-.026-.01a1 1 0 0 0-.191-.037A17 17 0 0 0 8 6.251m2.496 2a9 9 0 0 1-.028.494 10 10 0 0 1-.044.45 1 1 0 0 1-.032.174l-.008.02a.7.7 0 0 1-.098.112.7.7 0 0 1-.108.094l-.026.01a1 1 0 0 1-.191.037c-.119.016-.259.028-.47.047-.418.037-.915.062-1.491.062a17 17 0 0 1-1.961-.11 1 1 0 0 1-.191-.035l-.026-.011a.7.7 0 0 1-.108-.094.7.7 0 0 1-.097-.112v-.001l-.009-.019a1 1 0 0 1-.032-.173 10 10 0 0 1-.044-.45 9 9 0 0 1-.028-.495zM6.377 4.82C6.838 4.779 7.38 4.75 8 4.75s1.161.028 1.623.069c.807.07 1.211.107 1.726.623s.547.907.614 1.688a10.3 10.3 0 0 1 0 1.74c-.067.782-.1 1.173-.614 1.689-.515.516-.919.552-1.726.623-.462.041-1.003.069-1.623.069s-1.162-.028-1.623-.069c-.807-.071-1.21-.107-1.726-.623-.514-.516-.547-.907-.614-1.687a10.3 10.3 0 0 1 0-1.743c.067-.78.1-1.17.614-1.687.515-.516.919-.552 1.726-.623"/></svg>