<svg xmlns="http://www.w3.org/2000/svg" viewBox="0 0 32 32"><path fill-rule="evenodd" d="M10.643 4.338C11.37 4.248 12 4.833 12 5.567c0 .65-.498 1.186-1.143 1.269-1.562.2-2.142.481-2.841 1.18-.7.7-.98 1.28-1.18 2.84-.084.646-.62 1.144-1.27 1.144-.734 0-1.318-.629-1.228-1.357.234-1.89.656-3.14 1.91-4.394s2.504-1.677 4.395-1.91M20 5.567c0 .65.498 1.186 1.143 1.269 1.562.2 2.142.481 2.841 1.18.7.7.98 1.28 1.18 2.84.084.646.62 1.144 1.27 1.144.734 0 1.319-.629 1.228-1.357-.234-1.89-.656-3.14-1.91-4.394s-2.504-1.677-4.395-1.91C20.63 4.248 20 4.832 20 5.566m1.143 19.599c-.645.082-1.143.618-1.143 1.268 0 .735.629 1.32 1.357 1.229 1.89-.234 3.141-.656 4.395-1.91s1.676-2.505 1.91-4.396c.09-.729-.494-1.357-1.228-1.357-.65 0-1.186.498-1.269 1.143-.2 1.563-.481 2.143-1.18 2.842-.7.7-1.28.98-2.842 1.18M6.835 21.143C6.752 20.498 6.216 20 5.566 20c-.734 0-1.319.628-1.228 1.357.234 1.891.656 3.142 1.91 4.396s2.504 1.676 4.395 1.91c.728.09 1.357-.494 1.357-1.229 0-.65-.498-1.186-1.143-1.268-1.562-.2-2.142-.482-2.841-1.181s-.98-1.28-1.181-2.842M16 9.5c-1.023 0-1.938.037-2.745.096-1.79.13-2.684.196-3.872 1.398-.93.94-1.164 1.667-1.272 2.756H23.89c-.108-1.09-.343-1.817-1.272-2.756-1.188-1.203-2.083-1.268-3.874-1.398A38 38 0 0 0 16 9.5m-7.962 7.74q-.03-.48-.037-.991h15.997q-.007.51-.036.99c-.104 1.71-.156 2.564-1.345 3.766-1.188 1.203-2.083 1.268-3.873 1.398A38 38 0 0 1 16 22.5c-1.023 0-1.938-.037-2.745-.096-1.79-.13-2.684-.196-3.872-1.398s-1.24-2.056-1.345-3.765"/></svg>