<svg xmlns="http://www.w3.org/2000/svg" viewBox="0 0 16 16"><path fill-rule="evenodd" d="M5.058 8.028c.084-.75.125-1.124.504-1.497.379-.374.757-.41 1.513-.484C7.37 6.02 7.684 6 8 6s.63.019.925.047c.756.074 1.134.11 1.513.484.378.373.42.748.504 1.497.035.31.058.641.058.972 0 .346-.025.69-.063 1.008-.083.711-.125 1.067-.493 1.435s-.724.41-1.435.494A9 9 0 0 1 8 12a9 9 0 0 1-1.01-.063c-.71-.084-1.066-.126-1.434-.494s-.41-.724-.493-1.435A9 9 0 0 1 5 9c0-.33.023-.661.058-.972M7.22 7.54A8 8 0 0 1 8 7.5c.258 0 .523.016.78.04.196.02.333.033.45.048l.143.023q.01.046.024.139c.017.114.033.25.054.445.03.268.049.542.049.805 0 .275-.02.559-.052.833-.022.185-.037.312-.054.42l-.021.12-.12.02c-.107.017-.234.032-.42.054A7 7 0 0 1 8 10.5c-.275 0-.559-.02-.833-.053a13 13 0 0 1-.42-.053l-.12-.021-.021-.12a13 13 0 0 1-.054-.42A7 7 0 0 1 6.5 9c0-.263.018-.537.048-.805.022-.195.038-.33.055-.445q.014-.093.024-.139.047-.01.143-.023c.117-.015.254-.029.45-.048"/><path fill-rule="evenodd" d="M9.997 1.863C9.464 1.329 8.754 1 8 1c-.702 0-1.363.038-1.964.097-1.337.13-2.005.196-2.849 1.038s-.91 1.512-1.044 2.85C2.059 5.829 2 6.835 2 8s.059 2.171.143 3.016c.134 1.338.2 2.007 1.044 2.849s1.512.907 2.848 1.038a20 20 0 0 0 3.93 0c1.336-.13 2.004-.196 2.848-1.038s.91-1.511 1.044-2.849C13.942 10.171 14 9.166 14 8c0-.843 0-1.265-.153-1.752a4 4 0 0 0-.226-.545c-.236-.453-.577-.794-1.26-1.476zm1.127 11.356c-.26.082-.589.12-1.305.191a18.6 18.6 0 0 1-3.638 0c-.716-.07-1.045-.11-1.305-.19-.18-.057-.356-.144-.63-.417-.273-.273-.36-.448-.417-.629-.082-.26-.122-.59-.194-1.307A29 29 0 0 1 3.5 8c0-1.115.056-2.07.135-2.866.072-.718.112-1.048.194-1.308.057-.181.144-.356.418-.629.273-.273.448-.36.629-.416.26-.082.59-.12 1.306-.19C6.74 2.535 7.352 2.5 8 2.5c.31 0 .65.136.937.422L11.3 5.287c.738.739.884.905.99 1.11.043.08.098.213.125.3.07.226.084.403.084 1.303a29 29 0 0 1-.136 2.867c-.071.717-.11 1.047-.193 1.307-.057.181-.144.356-.418.629s-.448.36-.629.416"/></svg>