<svg xmlns="http://www.w3.org/2000/svg" viewBox="0 0 24 24"><g fill-rule="evenodd" clip-rule="evenodd"><path d="M8.077 12.704c.112-1 .168-1.499.673-1.997.505-.497 1.009-.546 2.017-.644C11.16 10.025 11.58 10 12 10s.84.025 1.233.063c1.008.098 1.512.147 2.017.644.505.498.561.997.673 1.996.046.415.077.856.077 1.297 0 .462-.034.92-.084 1.344-.111.948-.167 1.422-.658 1.913-.49.491-.964.547-1.912.659-.425.05-.884.084-1.346.084s-.92-.034-1.346-.084c-.948-.112-1.422-.168-1.913-.659-.49-.49-.546-.965-.657-1.913C8.034 14.919 8 14.46 8 14c0-.441.03-.882.077-1.296m2.883-.65c.343-.034.695-.054 1.04-.054s.697.02 1.04.054c.262.025.445.043.6.064q.128.017.191.03.014.061.032.185c.023.153.043.333.072.593.04.358.065.723.065 1.074 0 .367-.027.745-.07 1.11-.03.248-.05.417-.071.56q-.016.105-.029.16a3 3 0 0 1-.16.028c-.143.022-.312.042-.558.072-.367.043-.745.07-1.112.07s-.745-.027-1.111-.07c-.247-.03-.416-.05-.56-.072a3 3 0 0 1-.16-.028 3 3 0 0 1-.028-.16 17 17 0 0 1-.071-.56A10 10 0 0 1 10 14c0-.35.025-.716.065-1.074.029-.26.05-.44.072-.593a3 3 0 0 1 .032-.185 3 3 0 0 1 .191-.03c.155-.02.338-.039.6-.064"/><path d="M14.862 3.243C14.098 2.48 13.082 2 12 2c-.726 0-1.42.033-2.068.087-1.942.162-2.913.242-4.207 1.532S4.343 5.92 4.168 7.946A47 47 0 0 0 4 12c0 1.55.068 2.903.168 4.056.175 2.024.263 3.036 1.557 4.325 1.637 1.632 4.095 1.62 6.275 1.62s4.638.012 6.275-1.62c1.294-1.289 1.382-2.301 1.557-4.325.1-1.153.168-2.506.168-4.056v-.082c-.003-1.645-.004-2.468-.384-3.385s-1.042-1.578-2.364-2.9zm-4.764.837C10.696 4.03 11.334 4 12 4c.48 0 1.005.215 1.448.658l2.39 2.389c1.42 1.42 1.735 1.782 1.93 2.253.2.48.23.873.232 2.621v.08a45 45 0 0 1-.16 3.882c-.094 1.078-.149 1.601-.278 2.022-.097.312-.25.612-.699 1.06-.46.458-.755.606-1.043.696-1.179.367-2.593.34-3.82.34s-2.641.027-3.82-.34c-.288-.09-.584-.238-1.043-.696-.449-.448-.602-.748-.699-1.06-.13-.42-.184-.944-.278-2.022A45 45 0 0 1 6 12c0-1.49.065-2.785.16-3.88.094-1.08.149-1.603.278-2.024.097-.313.25-.613.699-1.06.46-.458.755-.607 1.043-.697.394-.122.88-.173 1.918-.259"/></g></svg>