<svg xmlns="http://www.w3.org/2000/svg" viewBox="0 0 32 32"><g fill-rule="evenodd" clip-rule="evenodd"><path d="M11.016 17.936c.075-1.712.112-2.568 1.026-3.476.913-.909 1.751-.94 3.427-1.005a14 14 0 0 1 1.065 0c1.676.064 2.513.096 3.427 1.005.913.908.95 1.764 1.025 3.476a16 16 0 0 1 0 1.365c-.074 1.712-.112 2.568-1.025 3.476-.914.909-1.751.94-3.427 1.005a14 14 0 0 1-1.065 0c-1.676-.064-2.514-.096-3.427-1.005s-.95-1.764-1.026-3.476a16 16 0 0 1 0-1.365m4.549-1.983a11 11 0 0 1 .873 0c.434.017.744.029 1.01.05.261.021.407.046.494.067.073.017.096.03.103.035.01.005.058.033.153.127a.7.7 0 0 1 .123.147c.005.008.02.034.04.113.022.095.048.248.07.517a27 27 0 0 1 .07 1.61q0 .283-.012.573c-.02.442-.034.762-.057 1.036a3.5 3.5 0 0 1-.072.517.4.4 0 0 1-.039.113.7.7 0 0 1-.123.147.8.8 0 0 1-.152.127.4.4 0 0 1-.104.035 3 3 0 0 1-.493.067 26 26 0 0 1-1.448.059q-.215 0-.436-.009a26 26 0 0 1-1.011-.05 3 3 0 0 1-.494-.067.4.4 0 0 1-.102-.035.8.8 0 0 1-.153-.127.7.7 0 0 1-.123-.147.4.4 0 0 1-.04-.113 3.5 3.5 0 0 1-.071-.517 27 27 0 0 1-.07-1.61q0-.283.013-.573c.02-.442.034-.762.057-1.036.023-.269.049-.422.072-.517.02-.08.034-.105.038-.113a.7.7 0 0 1 .124-.147.8.8 0 0 1 .152-.127.4.4 0 0 1 .103-.035 3 3 0 0 1 .494-.067c.266-.021.577-.033 1.01-.05"/><path d="M6 16c0 1.938.078 3.639.196 5.1.217 2.71.326 4.064 2.076 5.802s3.014 1.831 5.544 2.017a30 30 0 0 0 4.368 0c2.53-.186 3.795-.279 5.544-2.017 1.75-1.738 1.859-3.092 2.076-5.802.118-1.461.196-3.162.196-5.1 0-2.066 0-3.1-.331-4.11a7 7 0 0 0-.393-.947c-.482-.948-1.22-1.684-2.697-3.156l-3.547-3.535A4.27 4.27 0 0 0 16 3c-.759 0-1.49.03-2.182.08-2.53.186-3.796.28-5.546 2.017-1.75 1.738-1.859 3.094-2.077 5.805A64 64 0 0 0 6 16m2.688 4.9A61 61 0 0 1 8.5 16c0-1.87.075-3.503.187-4.898.116-1.44.186-2.156.363-2.738.136-.443.356-.87.984-1.493.648-.644 1.064-.854 1.458-.976.523-.162 1.159-.222 2.51-.32A27 27 0 0 1 16 5.5c.484 0 .927.183 1.267.522l3.547 3.536c1.581 1.576 1.973 2.005 2.233 2.518.092.181.183.4.246.592.18.548.207 1.12.207 3.332a61 61 0 0 1-.188 4.9c-.115 1.439-.185 2.155-.362 2.736-.136.443-.356.87-.983 1.493-.649.644-1.065.854-1.458.976-.523.162-1.158.221-2.508.32a27 27 0 0 1-4.002 0c-1.35-.099-1.985-.158-2.508-.32-.393-.122-.81-.332-1.457-.976-.628-.623-.848-1.05-.984-1.493-.177-.581-.247-1.297-.362-2.737"/></g></svg>