<svg xmlns="http://www.w3.org/2000/svg" viewBox="0 0 44 44"><path fill-rule="evenodd" d="M29.126 35.72c3.723-.305 5.584-.457 7.966-2.853s2.516-4.147 2.784-7.648A42 42 0 0 0 40 22c0-1.123-.046-2.2-.124-3.219-.268-3.501-.401-5.252-2.784-7.648S32.85 8.585 29.127 8.28A87 87 0 0 0 22 8c-2.712 0-5.088.112-7.125.279-3.723.306-5.585.458-7.968 2.855s-2.516 4.147-2.783 7.65A42 42 0 0 0 4 22c0 1.121.046 2.198.124 3.215.267 3.503.4 5.255 2.783 7.651s4.245 2.55 7.969 2.855A87 87 0 0 0 22 36c2.713 0 5.09-.112 7.126-.28M7.588 15.434c.195-.629.528-1.26 1.447-2.184.895-.901 1.541-1.247 2.23-1.458.855-.261 1.893-.361 3.856-.522A84 84 0 0 1 22 11c2.63 0 4.925.108 6.881.27 1.962.16 3 .26 3.853.521.69.211 1.335.557 2.23 1.458.92.923 1.253 1.555 1.448 2.183.244.785.331 1.726.473 3.578a39 39 0 0 1 0 5.98c-.142 1.852-.23 2.793-.473 3.578-.195.628-.529 1.26-1.447 2.183-.896.901-1.542 1.247-2.231 1.458-.854.261-1.891.36-3.853.522-1.956.16-4.25.269-6.881.269a84 84 0 0 1-6.879-.269c-1.963-.161-3-.26-3.855-.522-.69-.211-1.336-.557-2.231-1.458-.919-.923-1.252-1.555-1.447-2.184-.244-.785-.332-1.727-.473-3.58A39 39 0 0 1 7 22c0-1.04.043-2.04.115-2.987.141-1.853.229-2.795.473-3.58m20.069 8.05c.796-.102 1.586.557 1.25 1.286a7.29 7.29 0 1 1-9.676-9.675c.729-.337 1.388.453 1.286 1.25a6.377 6.377 0 0 0 7.14 7.14"/></svg>