<svg xmlns="http://www.w3.org/2000/svg" viewBox="0 0 44 44"><path fill-rule="evenodd" d="M22 36c2.713 0 5.09-.112 7.126-.279 3.723-.305 5.584-.458 7.966-2.854s2.516-4.147 2.784-7.648a42 42 0 0 0 0-6.437c-.268-3.502-.401-5.253-2.784-7.648-2.382-2.396-4.243-2.549-7.965-2.855A87 87 0 0 0 22 8c-2.712 0-5.088.112-7.125.28-3.723.305-5.585.458-7.968 2.854s-2.516 4.148-2.783 7.651A42 42 0 0 0 4 22c0 1.122.046 2.198.124 3.215.267 3.504.4 5.255 2.783 7.652 2.383 2.396 4.245 2.549 7.969 2.854 2.036.167 4.412.28 7.124.28m5.657-12.517c.796-.102 1.586.557 1.25 1.286a7.29 7.29 0 1 1-9.676-9.675c.729-.337 1.388.453 1.286 1.25a6.377 6.377 0 0 0 7.14 7.14"/></svg>