<svg xmlns="http://www.w3.org/2000/svg" viewBox="0 0 24 24"><path fill-rule="evenodd" d="M12 20.001c1.55 0 2.903-.067 4.056-.167 2.024-.176 3.036-.264 4.325-1.558s1.37-2.264 1.532-4.204a25 25 0 0 0 0-4.141c-.161-1.94-.242-2.91-1.532-4.205-1.289-1.293-2.301-1.381-4.325-1.557A47 47 0 0 0 12 4.001c-1.55 0-2.901.068-4.054.168-2.025.176-3.038.264-4.327 1.558S2.249 7.99 2.087 9.933a25 25 0 0 0 0 4.137c.162 1.941.242 2.912 1.532 4.206s2.302 1.382 4.327 1.558C9.1 19.934 10.451 20 12 20m3.561-7.25c.396-.067.792.26.637.63a4.26 4.26 0 1 1-5.573-5.573c.37-.155.697.241.63.637a3.727 3.727 0 0 0 4.307 4.307"/></svg>