<svg xmlns="http://www.w3.org/2000/svg" viewBox="0 0 24 24"><path fill-rule="evenodd" d="M12 20.001c1.55 0 2.903-.067 4.056-.167 2.024-.176 3.036-.264 4.325-1.558s1.37-2.264 1.532-4.204a25 25 0 0 0 0-4.141c-.161-1.94-.242-2.91-1.532-4.205-1.289-1.293-2.301-1.381-4.325-1.557A47 47 0 0 0 12 4.001c-1.55 0-2.901.068-4.054.168-2.025.176-3.038.264-4.327 1.558S2.249 7.99 2.087 9.933a25 25 0 0 0 0 4.137c.162 1.941.242 2.912 1.532 4.206s2.302 1.382 4.327 1.558C9.1 19.934 10.451 20 12 20m3.883-2.16c-1.096.095-2.391.16-3.883.16a45 45 0 0 1-3.88-.16c-1.08-.094-1.603-.148-2.024-.278-.313-.096-.613-.25-1.06-.699-.458-.459-.607-.755-.697-1.043-.122-.394-.173-.88-.259-1.917a23 23 0 0 1 0-3.805c.086-1.038.137-1.524.26-1.917.09-.289.238-.584.696-1.044.447-.449.747-.602 1.06-.698.42-.13.944-.185 2.023-.279C9.215 6.065 10.509 6 12 6c1.492 0 2.787.065 3.883.16 1.078.094 1.601.149 2.022.279.312.096.612.25 1.06.698.458.46.606.755.696 1.043.123.394.173.88.26 1.916a23 23 0 0 1 0 3.808c-.087 1.037-.137 1.523-.26 1.916-.09.288-.238.584-.696 1.043-.448.45-.748.603-1.06.699-.42.13-.944.184-2.022.278m-.322-5.09c.396-.067.792.26.637.63a4.26 4.26 0 1 1-5.573-5.573c.37-.155.697.241.63.637a3.727 3.727 0 0 0 4.307 4.307"/></svg>