<svg xmlns="http://www.w3.org/2000/svg" viewBox="0 0 16 16"><path fill-rule="evenodd" d="M8 3c-1.259 0-2.332.057-3.216.137-1.3.117-1.951.175-2.751.97-.8.797-.857 1.389-.97 2.573a14 14 0 0 0 0 2.64c.113 1.185.17 1.777.97 2.573.8.795 1.45.854 2.751.97C5.67 12.944 6.741 13 8 13s2.332-.057 3.217-.136c1.3-.117 1.95-.176 2.75-.971.8-.796.857-1.388.97-2.571a14 14 0 0 0 0-2.643c-.114-1.184-.17-1.775-.97-2.571s-1.45-.854-2.75-.971A36 36 0 0 0 8 3m3.082 8.37c-.84.075-1.868.13-3.082.13s-2.241-.055-3.082-.13c-.699-.063-1.016-.098-1.263-.173-.165-.05-.319-.123-.564-.368-.263-.261-.332-.41-.374-.54-.067-.206-.1-.47-.16-1.11a12.5 12.5 0 0 1 0-2.357c.06-.641.093-.905.16-1.111.042-.13.11-.278.373-.54.246-.244.4-.318.565-.368.247-.074.564-.11 1.263-.172.84-.076 1.868-.13 3.082-.13s2.242.054 3.082.13c.7.063 1.016.098 1.263.172.164.05.319.124.564.368.263.262.332.41.374.54.067.206.099.469.16 1.11a12.4 12.4 0 0 1 0 2.359c-.061.64-.093.903-.16 1.11-.042.13-.111.278-.374.54-.245.243-.4.317-.564.367-.247.075-.564.11-1.263.173M9.601 8.423c.24-.027.476.171.372.389A2.088 2.088 0 1 1 7.19 6.029c.217-.104.416.133.389.372A1.827 1.827 0 0 0 9.6 8.423"/></svg>