<svg xmlns="http://www.w3.org/2000/svg" viewBox="0 0 24 24"><path fill-rule="evenodd" d="m3.82 7.689-.484.294a1.728 1.728 0 0 0 0 2.96l.486.297a33.6 33.6 0 0 0 5.512 2.697 7.5 7.5 0 0 0 5.33 0 33.6 33.6 0 0 0 4.819-2.287v1.805c0 .55.451.998 1.008.998s1.009-.447 1.009-.998V9.464q0-.045-.004-.09a1.72 1.72 0 0 0-.834-1.39l-.484-.295a33.5 33.5 0 0 0-5.516-2.7 7.5 7.5 0 0 0-5.326 0 33.5 33.5 0 0 0-5.516 2.7m2.234 6.292q.053.515.12.982c.152 1.08.229 1.62.754 2.265.525.644.981.81 1.895 1.143.928.338 2.052.629 3.176.629s2.249-.29 3.176-.629c.914-.333 1.37-.5 1.895-1.143.525-.645.602-1.185.755-2.265.044-.31.085-.64.12-.982a34 34 0 0 1-3.28 1.453 7.5 7.5 0 0 1-5.331 0 34 34 0 0 1-3.28-1.453"/></svg>