<svg xmlns="http://www.w3.org/2000/svg" viewBox="0 0 16 16"><path fill-rule="evenodd" d="m12.756 6.511-.515-.32A19.4 19.4 0 0 0 9.587 4.82a4.08 4.08 0 0 0-3.174 0q-1.382.585-2.654 1.373l-.514.319.513.318q1.274.79 2.657 1.375a4.07 4.07 0 0 0 3.17 0c.92-.39 1.809-.85 2.657-1.375zm1.152-1.056-.856-.53a21 21 0 0 0-2.864-1.482 5.62 5.62 0 0 0-4.376 0c-.992.42-1.95.915-2.864 1.482l-.856.53c-.79.49-.79 1.622 0 2.112l.855.53q.49.303.995.579c.009.57.061 1.134.128 1.633.105.794.157 1.19.552 1.643.395.451.746.552 1.45.752.58.164 1.254.296 1.928.296s1.348-.132 1.928-.296c.704-.2 1.055-.3 1.45-.752s.447-.85.552-1.642c.067-.5.12-1.064.128-1.634q.464-.254.915-.53v.86c0 .414.34.75.76.75a.756.756 0 0 0 .762-.75V6.624c.04-.442-.156-.9-.587-1.168m-8.329 4.66q-.043-.324-.073-.669.153.069.308.134a5.62 5.62 0 0 0 4.372 0q.155-.066.308-.134-.03.346-.073.67a15 15 0 0 1-.068.48c-.02.124-.038.196-.052.243a.3.3 0 0 1-.025.066.4.4 0 0 1-.053.07.5.5 0 0 1-.073.074.2.2 0 0 1-.04.023 2 2 0 0 1-.189.07c-.107.035-.232.07-.415.123-.497.141-1.022.237-1.506.237s-1.01-.096-1.506-.237a13 13 0 0 1-.415-.123 2 2 0 0 1-.188-.07.2.2 0 0 1-.04-.023.5.5 0 0 1-.074-.073.4.4 0 0 1-.053-.071.3.3 0 0 1-.025-.066 2 2 0 0 1-.052-.243c-.021-.127-.04-.275-.068-.48"/></svg>