<svg xmlns="http://www.w3.org/2000/svg" viewBox="0 0 24 24"><path d="M17.628 6.181A3.7 3.7 0 0 0 16.5 6c-.946 0-1.839.393-2.607.952-.774.563-1.48 1.336-2.077 2.214-1.186 1.744-2.029 4.038-2.029 6.24 0 1.228.298 2.488.948 3.579a45 45 0 0 1-2.79-.152c-1.573-.137-2.535-.22-3.49-.858C2.985 17.14 2 15.59 2 13.819c0-2.657 2.217-4.81 4.95-4.81l.131.001a6.002 6.002 0 0 1 10.547-2.829"/><path d="M11.787 15.406c0-1.732.68-3.64 1.683-5.116.498-.732 1.052-1.323 1.6-1.721C15.623 8.166 16.11 8 16.5 8s.878.166 1.431.569c.548.399 1.103.989 1.601 1.721 1.003 1.475 1.683 3.384 1.683 5.116 0 1.196-.379 2.344-1.123 3.179C19.365 19.4 18.219 20 16.5 20c-1.718 0-2.864-.6-3.59-1.415-.744-.835-1.123-1.983-1.123-3.18"/></svg>