<svg xmlns="http://www.w3.org/2000/svg" viewBox="0 0 16 16"><path d="M5.977 6.589A2.5 2.5 0 0 1 8.444 4.5c.081 0 .162.009.243.017q.12.015.242.017a.75.75 0 0 0 .75-.75c0-.39-.312-.695-.683-.746a4 4 0 0 0-4.5 3.307 4 4 0 0 0-.195-.006C2.478 6.339 1 7.775 1 9.546c0 1.465 1.01 2.701 2.392 3.085.459.151.98.213 1.683.274q.73.065 1.616.095c.489 0 .785-.336.785-.75a.75.75 0 0 0-.68-.746 28 28 0 0 1-1.591-.093 14 14 0 0 1-.854-.094c-.316-.049-.676-.14-.959-.296A1.7 1.7 0 0 1 2.5 9.546c0-.902.765-1.707 1.8-1.707q.057 0 .112.003l1.346.077z"/><path fill-rule="evenodd" d="M8.002 9.9c0-2.523 1.864-5.4 3.498-5.4 1.636 0 3.5 2.877 3.5 5.4 0 1.793-1.082 3.6-3.5 3.6-2.417 0-3.498-1.807-3.498-3.6m1.5 0c0-.926.355-1.997.895-2.83.266-.41.541-.708.778-.89.193-.146.301-.174.325-.179.024.005.133.032.326.18.237.18.513.479.778.889.54.833.896 1.904.896 2.83 0 .614-.187 1.149-.488 1.503-.269.317-.714.598-1.512.598-.797 0-1.242-.28-1.51-.598-.3-.354-.488-.889-.488-1.502"/></svg>