<svg xmlns="http://www.w3.org/2000/svg" viewBox="0 0 16 16"><path fill-rule="evenodd" d="M2.097 10.873c.102 1.443.153 2.164 1.1 3.093.949.93 1.548.96 2.746 1.02a11 11 0 0 0 1.114 0c.78-.04 1.306-.066 1.84-.336q.254-.031.559-.11c1.237-.316 1.611-.876 2.36-1.996.325-.489.678-1.051 1.047-1.692.37-.64.68-1.226.94-1.753.597-1.208.896-1.813.55-3.043-.344-1.23-.852-1.552-1.867-2.196a12 12 0 0 0-.884-.51c-.459-.24-.82-.429-1.18-.54a3.6 3.6 0 0 0-.62-.777c-.948-.929-1.548-.959-2.747-1.019a11 11 0 0 0-1.11 0c-1.2.06-1.799.09-2.747 1.02-.948.928-1 1.65-1.101 3.094A41 41 0 0 0 2 8c0 1.1.04 2.058.097 2.873m1.496-.106A39 39 0 0 1 3.5 8c0-1.064.038-1.987.093-2.766.055-.774.088-1.13.173-1.413.06-.198.158-.399.482-.716.357-.35.547-.435.678-.476.2-.062.442-.084 1.094-.117a10 10 0 0 1 .96 0c.652.033.894.055 1.094.117.131.041.32.125.678.476.324.317.422.518.482.716.085.283.118.639.173 1.413.055.78.093 1.702.093 2.766a39 39 0 0 1-.093 2.767c-.055.774-.088 1.129-.173 1.412-.06.198-.158.399-.482.716-.357.35-.547.434-.678.476-.2.062-.442.084-1.093.117a10 10 0 0 1-.962 0c-.651-.033-.894-.055-1.093-.117-.131-.042-.32-.126-.678-.476-.324-.317-.422-.518-.482-.716-.085-.283-.118-.639-.173-1.412m7.276-6.108q.018.221.034.47C10.961 5.941 11 6.9 11 8s-.04 2.058-.097 2.873l-.026.363a30 30 0 0 0 1.582-2.8c.322-.653.453-.938.512-1.19.039-.167.056-.366-.061-.785-.126-.447-.24-.6-.33-.693-.142-.151-.345-.291-.898-.642a11 11 0 0 0-.813-.467"/></svg>