<svg xmlns="http://www.w3.org/2000/svg" viewBox="0 0 24 24"><path d="M12 2c-.946 0-1.725.047-2.333.108a.78.78 0 0 0-.455.188.5.5 0 0 0-.16.32 7.6 7.6 0 0 0 0 1.769.5.5 0 0 0 .16.32.78.78 0 0 0 .455.187C10.275 4.952 11.054 5 12 5s1.724-.047 2.333-.107a.78.78 0 0 0 .455-.189.5.5 0 0 0 .16-.32 7.6 7.6 0 0 0 0-1.768.5.5 0 0 0-.16-.32.78.78 0 0 0-.455-.189A24 24 0 0 0 12 2"/><path fill-rule="evenodd" d="M7.001 3.643c-.43.21-.845.513-1.3.965-1.301 1.294-1.386 2.29-1.554 4.28A43 43 0 0 0 4 12.5c0 1.366.058 2.57.147 3.613.168 1.99.253 2.985 1.555 4.279 1.301 1.294 2.279 1.371 4.234 1.526a26 26 0 0 0 4.128 0c1.955-.155 2.933-.232 4.234-1.526s1.387-2.29 1.555-4.28c.089-1.041.147-2.246.147-3.612s-.058-2.57-.146-3.612c-.17-1.99-.254-2.986-1.556-4.28-.454-.452-.869-.755-1.3-.965a9 9 0 0 1-.064.973c-.146 1.25-1.152 2.143-2.404 2.267C13.857 6.949 13.013 7 12 7a26 26 0 0 1-2.53-.117c-1.252-.124-2.258-1.017-2.404-2.266a10 10 0 0 1-.065-.974M16 14a1 1 0 0 1-1 1h-2v2a1 1 0 1 1-2 0v-2H9a1 1 0 0 1 0-2h2v-2a1 1 0 1 1 2 0v2h2a1 1 0 0 1 1 1"/></svg>