<svg xmlns="http://www.w3.org/2000/svg" viewBox="0 0 16 16"><path fill-rule="evenodd" d="M3.235 6.538C3.093 7.428 3 8.395 3 9.4c0 1.143.024 2.028.06 2.71.072 1.42.993 2.524 2.399 2.738.581.089 1.267.152 2.04.152s1.46-.063 2.042-.152c1.406-.214 2.326-1.318 2.4-2.738.034-.682.058-1.567.058-2.71 0-1.845-.314-3.564-.665-4.907l.04.017c.4.184.776.602.898.967.08.239.114.539.175 1.27a15 15 0 0 1 .05.986c.01.42.346.767.767.767a.727.727 0 0 0 .735-.734 20 20 0 0 0-.017-.528q-.015-.317-.04-.616c-.056-.676-.098-1.176-.247-1.622-.263-.784-.944-1.508-1.695-1.853-.346-.16-.715-.236-1.166-.29-.33-.837-.912-1.546-1.797-1.722A8 8 0 0 0 7.5 1c-.633 0-1.138.055-1.538.135-.755.15-1.29.69-1.636 1.366q-.785.002-1.571-.001a.75.75 0 0 0-.693 1.05c.123.282.29.568.439.823l.012.022c.152.26.295.504.418.76.228.474.356.918.304 1.383M4.5 9.4q0 .599.008 1.1h5.983q.008-.501.008-1.1c0-2.355-.564-4.517-1.004-5.839-.236-.708-.555-.916-.75-.955A6.4 6.4 0 0 0 7.5 2.5c-.545 0-.952.048-1.245.106-.194.038-.509.244-.744.937A.75.75 0 0 1 4.818 4H4.15l-.131.001c.089.159.18.327.264.502.316.657.582 1.49.407 2.446-.116.771-.19 1.599-.19 2.451m.057 2.6h-.001 5.888-.002c-.04.77-.483 1.267-1.127 1.365-.513.078-1.124.135-1.815.135-.692 0-1.302-.057-1.815-.135-.645-.098-1.088-.596-1.128-1.365"/></svg>