<svg xmlns="http://www.w3.org/2000/svg" viewBox="0 0 24 24"><path fill-rule="evenodd" d="M16.794 6.408c1.135 3.705 1.324 7.48 1.122 11.321-.112 2.125-1.522 3.732-3.628 4.038-.928.135-2.034.233-3.288.233a23 23 0 0 1-3.288-.233c-2.106-.306-3.516-1.913-3.628-4.038-.143-2.718-.16-5.448.338-8.134.107-.71-.027-1.345-.278-1.984-.299-.763-.734-1.462-1.06-2.212A1 1 0 0 1 4.006 4c.718.005 1.437.002 2.156 0 .561-.914 1.376-1.614 2.46-1.81C9.243 2.078 10.024 2 11 2s1.757.078 2.377.19c1.182.214 2.044 1.027 2.606 2.065.642.067 1.174.153 1.66.322 1.397.487 2.622 1.803 2.99 3.232.152.592.208 1.262.28 2.124.053.648.086 1.382.086 2.109 0 .535-.463.958-.999.958-.545 0-1-.455-1-1 0-.665-.03-1.303-.08-1.902-.087-1.037-.138-1.523-.26-1.917-.251-.806-1.057-1.557-1.866-1.773M6.348 10.183c-.34 1.93-.372 3.865-.326 5.817h9.956c.082-3.495-.31-6.892-1.494-10.206-.389-1.089-.96-1.545-1.463-1.636A11.4 11.4 0 0 0 11 4c-.87 0-1.531.07-2.02.158-.425.077-.899.414-1.27 1.173A1 1 0 0 1 6.766 6l-1.153.002c.135.274.271.568.393.877.414 1.056.572 2.188.342 3.304M8 19.788c-1.003-.146-1.692-.79-1.874-1.788h9.75c-.182.997-.871 1.642-1.874 1.788a21 21 0 0 1-3.001.212c-1.15 0-2.16-.09-3-.212"/></svg>