<svg xmlns="http://www.w3.org/2000/svg" viewBox="0 0 24 24"><path d="M6.704 6.285a.99.99 0 0 1 .029 1.384l-.028.03q-.319.346-.623.7C4.284 10.487 4 11.005 4 12.002s.282 1.508 2.077 3.598q.304.354.622.702l.028.03A1 1 0 0 1 7 17a1 1 0 0 1-.302.715A1 1 0 0 1 6 18a1 1 0 0 1-.74-.309q-.36-.391-.7-.788C2.852 14.915 1.999 13.855 2 12.001s.856-2.92 2.566-4.907q.34-.395.701-.786A1 1 0 0 1 6 6c.257 0 .514.095.704.285"/><path d="m5.267 6.308-.004.004.026-.028zM5.26 17.691l.023.024-.027-.028zm1.883-3.325C6.385 13.476 6 12.913 6 11.993s.385-1.47 1.143-2.359c.3-.35.644-.64 1.033-.634.197.003.406.083.626.27.618.526.321 1.125-.103 1.623-.341.4-.507.618-.61.795 0 0-.089.132-.089.312s.088.312.088.312c.104.177.27.396.61.795.425.498.722 1.097.104 1.623-.22.187-.429.266-.626.27-.39.007-.734-.284-1.033-.634M12 13.252a1.252 1.252 0 1 0 0-2.504 1.252 1.252 0 0 0 0 2.504M17 7a.99.99 0 0 1 1-1 1 1 0 0 1 .733.308q.36.392.7.786C21.144 9.08 22 10.146 22 12.001s-.852 2.914-2.56 4.902q-.34.396-.7.788A1 1 0 0 1 18 18a1 1 0 0 1-.698-.285A1 1 0 0 1 17 17a1 1 0 0 1 .273-.668l.028-.03q.319-.348.622-.702C19.718 13.51 20 13 20 12.002s-.284-1.515-2.082-3.603a28 28 0 0 0-.623-.7l-.028-.03A1 1 0 0 1 17 7"/><path d="M18 11.993c0 .92-.385 1.483-1.143 2.373-.299.35-.644.64-1.033.634-.197-.004-.406-.083-.626-.27-.618-.526-.321-1.125.103-1.623.341-.4.507-.618.61-.795 0 0 .089-.132.089-.312s-.088-.312-.088-.312c-.104-.177-.27-.396-.61-.795-.425-.498-.722-1.097-.104-1.623.22-.187.429-.267.626-.27.39-.007.734.284 1.033.634.758.89 1.143 1.44 1.143 2.36"/></svg>