<svg xmlns="http://www.w3.org/2000/svg" viewBox="0 0 16 16"><path fill-rule="evenodd" d="M14 6.085v-.164a.1.1 0 0 0-.009-.04c-.016-.206-.056-.375-.147-.483l-.122-.152c-.279-.35-.886-1.11-1.928-2.12-1.237-1.2-1.867-1.738-2.198-1.93C9.241.993 8.914 1 8.517 1h-.515c-.702 0-1.363.038-1.964.097-1.337.13-2.005.196-2.849 1.038s-.91 1.511-1.044 2.85c-.085.844-.143 1.85-.143 3.015s.058 2.171.143 3.016c.133 1.338.2 2.007 1.044 2.848.68.68 1.247.854 2.142.964l-.338-.422a2.25 2.25 0 0 1 0-2.812l1-1.25a2.25 2.25 0 0 1 3.257-.271 2.25 2.25 0 0 1 2.5-.339 2.25 2.25 0 0 1 2.2.112Q14 9.002 14.002 8V6.349q0-.137-.002-.264m-4.99-3.47A9 9 0 0 0 9.003 3c0 .689.089 1.378.175 1.883.062.366.093.548.244.698.15.15.332.182.698.244.505.086 1.194.175 1.883.175q.198 0 .394-.01a20 20 0 0 0-1.646-1.787 38 38 0 0 0-1.38-1.29 9 9 0 0 0-.36-.298"/><path d="M7.164 14.719a.75.75 0 1 0 1.172-.937L7.71 13l.626-.781a.75.75 0 1 0-1.172-.937l-1 1.25a.75.75 0 0 0 0 .937zm5.118.117a.75.75 0 0 0 1.054-.117l1-1.25a.75.75 0 0 0 0-.937l-1-1.25a.75.75 0 0 0-1.172.937l.626.781-.626.781a.75.75 0 0 0 .117 1.055m-.835-2.807a.75.75 0 0 0-1.392-.557l-1 2.5a.75.75 0 0 0 1.392.556z"/></svg>