<svg xmlns="http://www.w3.org/2000/svg" viewBox="0 0 24 24"><path fill-rule="evenodd" d="M5.725 3.619c1.294-1.29 2.265-1.37 4.207-1.532A25 25 0 0 1 12 2h.127a12 12 0 0 1 .414.009c.362.02.71.084 1.05.286.48.287 1.398 1.095 3.197 2.894a32 32 0 0 1 2.803 3.18h.001q.112.148.178.228c.15.183.203.486.22.851.01.134.01.298.01.502V12q0 .784-.022 1.5h-.001a1 1 0 1 1-1.997-.08A49 49 0 0 0 18 12v-1.009q-.248.009-.5.009c-1.189 0-2.344-.152-3.16-.291l-.102-.016c-.413-.064-1.322-.204-2.024-.907-.703-.702-.843-1.611-.907-2.024l-.016-.101c-.139-.817-.29-1.972-.29-3.161q0-.24.007-.478-.468.021-.91.058c-1.038.086-1.524.137-1.918.26-.288.09-.584.238-1.043.696-.449.447-.602.747-.699 1.06-.13.42-.184.944-.278 2.023A45 45 0 0 0 6 12c0 1.492.065 2.787.16 3.883.094 1.078.149 1.601.278 2.022.097.312.25.612.699 1.06l.093.09-.003.003a1 1 0 1 1-1.474 1.352l-.028-.029c-1.294-1.289-1.381-2.301-1.557-4.325A47 47 0 0 1 4 12c0-1.549.068-2.901.168-4.054.175-2.025.263-3.038 1.557-4.327m8.95 5.118c-.548-.093-.822-.14-1.047-.365s-.272-.5-.365-1.047C13.133 6.567 13 5.534 13 4.5l.001-.15q.149.125.356.312a56 56 0 0 1 2.017 1.941A30 30 0 0 1 17.542 9H17.5c-1.033 0-2.067-.134-2.825-.263"/><path d="M16.351 16.064a1 1 0 0 1 .585 1.287l-1.5 4a1 1 0 1 1-1.872-.702l1.5-4a1 1 0 0 1 1.287-.585M18.2 20.4a1 1 0 0 0 1.6 1.2l1.5-2a1 1 0 0 0 0-1.2l-1.5-2a1 1 0 1 0-1.6 1.2l1.05 1.4zm-7.5 1.2a1 1 0 0 0 1.6-1.2L11.25 19l1.05-1.4a1 1 0 1 0-1.6-1.2l-1.5 2a1 1 0 0 0 0 1.2z"/></svg>