<svg width="32" height="32" viewBox="0 0 32 32" fill="none" xmlns="http://www.w3.org/2000/svg">
<g clip-path="url(#clip0_28728_8273)">
<path d="M21.541 7.48286C19.04 4.95367 17.5343 3.7299 16.8657 3.32724C16.4163 3.08452 15.6735 3.00006 15.0333 3.00003L14.6105 3L14.5852 3.00001L14.287 3L14.2881 3.00221C13.7736 3.00929 13.282 3.03304 12.815 3.06939C10.905 3.21809 9.94995 3.29244 8.27883 4.94652C6.60772 6.60059 6.49757 7.7302 6.27727 9.98943C6.11641 11.6391 6 13.6441 6 16C6 17.9381 6.07824 19.6387 6.19556 21.0994C6.41325 23.8095 6.5221 25.1645 8.27174 26.9023C10.0214 28.6401 11.2861 28.7331 13.8157 28.919C14.5091 28.97 15.2401 29 16 29C16.7599 29 17.491 28.97 18.1844 28.919C20.7139 28.7331 21.9786 28.6401 23.7282 26.9023C25.4778 25.1646 25.5867 23.8096 25.8044 21.0996C25.9217 19.6389 26.0008 17.9382 26.0008 16C26.0008 14.923 26.0255 12.8431 25.6796 12.2281C25.6323 12.144 25.5444 12.0918 25.4391 11.9542C24.8754 11.2175 23.6483 9.6139 21.541 7.48286Z" fill="url(#paint0_linear_28728_8273)"/>
<path d="M11.4091 15.9995C10.907 15.9995 10.5 16.4065 10.5 16.9086C10.5 17.4107 10.907 17.8177 11.4091 17.8177L17.0909 17.8177C17.593 17.8177 18 17.4107 18 16.9086C18 16.4065 17.593 15.9995 17.0909 15.9995H11.4091Z" fill="white"/>
<path d="M11.4091 19.9588C10.907 19.9588 10.5 20.3658 10.5 20.8679C10.5 21.37 10.907 21.777 11.4091 21.777H20.5909C21.093 21.777 21.5 21.37 21.5 20.8679C21.5 20.3658 21.093 19.9588 20.5909 19.9588H11.4091Z" fill="white"/>
<path d="M25.6958 12.2459C24.3186 8.36828 20.2795 4.68899 16.8379 3.31055C18.5076 5.53544 17.7585 9.41576 18.7164 10.3844C19.8616 11.5425 23.7653 10.6622 25.6958 12.2459Z" fill="#779BFF"/>
</g>
<defs>
<linearGradient id="paint0_linear_28728_8273" x1="1.36039" y1="5.5221" x2="31.1215" y2="11.5046" gradientUnits="userSpaceOnUse">
<stop stop-color="#50A6F5"/>
<stop offset="1" stop-color="#010AEC"/>
</linearGradient>
<clipPath id="clip0_28728_8273">
<rect width="32" height="32" fill="white"/>
</clipPath>
</defs>
</svg>
