<svg xmlns="http://www.w3.org/2000/svg" viewBox="0 0 24 24"><path fill-rule="evenodd" d="M4.038 13.988A50 50 0 0 1 4 12.001c0-1.549.068-2.901.168-4.054.175-2.025.263-3.038 1.557-4.327S7.99 2.25 9.932 2.088a25 25 0 0 1 4.137 0c1.941.162 2.912.242 4.206 1.532s1.382 2.302 1.557 4.327c.1 1.153.168 2.505.168 4.054q-.001 1.055-.038 1.987c-.177 4.462-3.497 8.014-7.962 8.014s-7.785-3.553-7.962-8.014M13 15a1 1 0 1 1-2 0 1 1 0 0 1 2 0m2 0a3 3 0 1 1-6 0 3 3 0 0 1 6 0m-6.75-5a1 1 0 0 1 1-1h1a1 1 0 1 1 0 2h-1a1 1 0 0 1-1-1m1-4a1 1 0 0 0 0 2h1a1 1 0 1 0 0-2zm3.5 4a1 1 0 0 1 1-1h1a1 1 0 1 1 0 2h-1a1 1 0 0 1-1-1m1-4a1 1 0 1 0 0 2h1a1 1 0 1 0 0-2z"/></svg>