<svg xmlns="http://www.w3.org/2000/svg" viewBox="0 0 16 16"><path fill-rule="evenodd" d="M4.544 9.823a37 37 0 0 1 .086-4.904c.063-.7.098-1.017.173-1.264.05-.164.124-.319.368-.564.261-.263.41-.331.54-.374.206-.067.47-.099 1.11-.16a12.5 12.5 0 0 1 2.357 0c.642.061.905.093 1.111.16.13.043.279.111.54.374.244.245.318.4.368.564.075.247.11.564.173 1.264a37 37 0 0 1 .087 4.904C11.35 11.978 9.852 13.5 8 13.5s-3.35-1.522-3.456-3.677M3 8q.002 1.032.045 1.896C3.183 12.694 5.2 15 8 15s4.817-2.306 4.955-5.104a38.5 38.5 0 0 0-.091-5.112c-.117-1.3-.176-1.951-.972-2.751s-1.388-.857-2.572-.97a14 14 0 0 0-2.64 0c-1.184.113-1.776.17-2.572.97s-.855 1.45-.972 2.751A36 36 0 0 0 3 8m6 2a1 1 0 1 1-2 0 1 1 0 0 1 2 0m1 0a2 2 0 1 1-4 0 2 2 0 0 1 4 0M5.5 6.5a.75.75 0 0 1 .75-.75h.5a.75.75 0 0 1 0 1.5h-.5a.75.75 0 0 1-.75-.75m.75-2.75a.75.75 0 0 0 0 1.5h.5a.75.75 0 0 0 0-1.5zM8.5 6.5a.75.75 0 0 1 .75-.75h.5a.75.75 0 0 1 0 1.5h-.5a.75.75 0 0 1-.75-.75m.75-2.75a.75.75 0 0 0 0 1.5h.5a.75.75 0 0 0 0-1.5z"/></svg>