<svg xmlns="http://www.w3.org/2000/svg" viewBox="0 0 24 24"><path fill-rule="evenodd" d="M6.037 13.91A48 48 0 0 1 6 12c0-1.49.065-2.785.16-3.88.094-1.08.149-1.603.278-2.024.097-.313.25-.613.699-1.06.46-.458.755-.607 1.043-.697.394-.122.88-.173 1.918-.259a23 23 0 0 1 3.805 0c1.037.086 1.523.137 1.917.26.288.09.584.238 1.043.696l.695-.698.695-.697-1.39 1.395c.449.447.602.747.699 1.06.13.42.184.944.278 2.023.095 1.096.16 2.39.16 3.881q0 1.015-.037 1.909c-.138 3.508-2.69 6.092-5.963 6.092s-5.825-2.584-5.963-6.093M4 12q.001 1.055.038 1.987c.177 4.461 3.497 8.014 7.962 8.014s7.785-3.552 7.962-8.014a50 50 0 0 0-.13-6.041c-.175-2.025-.263-3.038-1.557-4.327s-2.265-1.37-4.206-1.532a25 25 0 0 0-4.137 0C7.99 2.25 7.019 2.33 5.725 3.62S4.343 5.922 4.168 7.947A47 47 0 0 0 4 12.001M13 15a1 1 0 1 1-2 0 1 1 0 0 1 2 0m2 0a3 3 0 1 1-6 0 3 3 0 0 1 6 0m-6.75-5a1 1 0 0 1 1-1h1a1 1 0 1 1 0 2h-1a1 1 0 0 1-1-1m1-4a1 1 0 0 0 0 2h1a1 1 0 1 0 0-2zm3.5 4a1 1 0 0 1 1-1h1a1 1 0 1 1 0 2h-1a1 1 0 0 1-1-1m1-4a1 1 0 1 0 0 2h1a1 1 0 1 0 0-2z"/></svg>