<svg xmlns="http://www.w3.org/2000/svg" viewBox="0 0 32 32"><path fill-rule="evenodd" d="M3 7.25a1.25 1.25 0 0 1 2.5 0V17.5h2.377a4.75 4.75 0 0 1 6.03-6.983q.999-.017 2.091-.017c3.352 0 6.043.128 8.048.278 2.045.153 3.067.229 3.939 1.282s.914 2.13.997 4.285q.017.451.018.905v9.5a1.25 1.25 0 0 1-2.5 0v-1.745h-21v1.745a1.25 1.25 0 1 1-2.5 0zM5.5 20h21v2.505h-21zm10.994-5.5a4.7 4.7 0 0 0-.327-1.5 106 106 0 0 1 7.693.27c.525.04.92.07 1.26.109.687.078 1.059.131 1.205.885.085.44.114 1.03.159 2.178q.018.528.016 1.058h-10v-3zM11.75 17a2.25 2.25 0 1 0 0-4.5 2.25 2.25 0 0 0 0 4.5"/></svg>