<svg xmlns="http://www.w3.org/2000/svg" viewBox="0 0 44 44"><path fill-rule="evenodd" d="M5.5 8A1.5 1.5 0 0 0 4 9.5v27a1.5 1.5 0 0 0 3 0V34h30v2.5a1.5 1.5 0 0 0 3 0V24q0-.606-.025-1.207c-.115-2.873-.172-4.31-1.376-5.713s-2.615-1.506-5.438-1.71c-2.769-.2-6.545-.37-11.172-.37q-1.913 0-3.618.036A6 6 0 0 0 10.528 24H7V9.5A1.5 1.5 0 0 0 5.5 8M15 23a3 3 0 1 0 0-6 3 3 0 0 0 0 6m5.66-4.995c.22.624.34 1.296.34 1.995v4h16q0-.54-.023-1.087c-.06-1.523-.101-2.329-.223-2.938-.091-.455-.206-.678-.432-.942-.169-.197-.275-.271-.602-.358-.524-.138-1.258-.203-2.775-.313-2.698-.194-6.401-.362-10.956-.362q-.678 0-1.329.005M37 31H7v-4h30z"/></svg>