<svg xmlns="http://www.w3.org/2000/svg" viewBox="0 0 16 16"><path fill-rule="evenodd" d="M1.75 3a.75.75 0 0 0-.75.75v9.5a.75.75 0 1 0 1.5 0v-.75h11v.75a.75.75 0 0 0 1.5 0V8.501q0-.237-.01-.47c-.045-1.118-.067-1.676-.537-2.222-.469-.546-1.02-.586-2.12-.665A61 61 0 0 0 7.999 5q-.514 0-.99.007A2.5 2.5 0 0 0 3.208 8H2.5V3.75A.75.75 0 0 0 1.75 3m.75 6.5h11V11h-11zM8 8h5.488c-.022-.54-.038-.805-.077-.999-.053-.263-.197-.276-.421-.296l-.09-.01c-.181-.02-.392-.035-.675-.055a59 59 0 0 0-4.226-.14H7.95Q8 6.743 8 7zM6.5 7a1 1 0 1 1-2 0 1 1 0 0 1 2 0"/></svg>