<svg xmlns="http://www.w3.org/2000/svg" viewBox="0 0 17 17"><path d="M9.977 3.939c-.059.125-.001.34.113.772l.231.866h-.463c-1.287 0-2.333 0-3.157.111-.86.116-1.598.365-2.185.953-.588.587-.837 1.325-.952 2.184-.111.825-.111 1.871-.111 3.158v1.031a.797.797 0 1 0 1.593 0v-.974c0-1.358.002-2.296.097-3.002.092-.683.257-1.028.5-1.27.242-.243.587-.409 1.27-.5.706-.095 1.644-.097 3.002-.097h.409l-.234.877c-.114.431-.172.647-.113.772a.38.38 0 0 0 .268.211c.136.028.331-.08.723-.293l3.342-1.825c.318-.174.477-.26.53-.376a.38.38 0 0 0 0-.315c-.053-.116-.212-.202-.53-.376L10.968 4.02c-.392-.214-.587-.32-.723-.293a.38.38 0 0 0-.268.21"/></svg>