<svg xmlns="http://www.w3.org/2000/svg" viewBox="0 0 24 24"><path d="M14.53 12.218c-.076-.164-.001-.446.15-1.01L15.002 10H14c-1.914 0-3.249.002-4.256.137-.978.132-1.496.373-1.865.742-.37.369-.61.887-.741 1.865C7.002 13.751 7 15.086 7 17v2a1 1 0 1 1-2 0v-2.073c0-1.824 0-3.293.155-4.45.162-1.2.507-2.21 1.31-3.013.802-.802 1.813-1.147 3.013-1.309C10.634 8 12.103 8 13.927 8h1.075l-.322-1.208c-.151-.564-.226-.846-.15-1.01a.5.5 0 0 1 .353-.276c.177-.036.434.103.948.383l4.429 2.413c.417.227.626.34.695.491.06.132.06.282 0 .414-.069.15-.278.264-.695.491l-4.43 2.413c-.513.28-.77.42-.947.383a.5.5 0 0 1-.352-.276"/></svg>