<svg xmlns="http://www.w3.org/2000/svg" viewBox="0 0 24 24"><path fill-rule="evenodd" d="M10 2a1 1 0 0 0-1 1v1.5H7v-1a1 1 0 0 0-2 0v4a5 5 0 0 0 .115 1.084c.204.916.982 1.453 1.885 1.668v7.905q.29-.021.549-.033l.224-.012A75 75 0 0 1 11.995 18a75 75 0 0 1 4.447.124q.264.012.558.034v-7.906c.903-.215 1.681-.752 1.885-1.668.07-.315.115-.677.115-1.084v-4a1 1 0 1 0-2 0v1h-2V3a1 1 0 1 0-2 0v1.5h-2V3a1 1 0 0 0-1-1m1.009 11.769c.022-.29.032-.436.178-.582s.291-.156.582-.178a3 3 0 0 1 .461 0c.291.022.436.032.582.178s.157.291.179.582a3 3 0 0 1 0 .461c-.022.291-.033.436-.179.582s-.29.157-.582.179a3 3 0 0 1-.461 0c-.29-.022-.436-.033-.582-.179s-.156-.29-.178-.582a3 3 0 0 1 0-.461m.178-4.582c-.146.146-.156.291-.178.582a3 3 0 0 0 0 .461c.022.291.032.436.178.582s.291.157.582.179a3 3 0 0 0 .461 0c.291-.022.436-.033.582-.179s.157-.29.179-.582a3 3 0 0 0 0-.461c-.022-.29-.033-.436-.179-.582s-.29-.156-.582-.178a3 3 0 0 0-.461 0c-.29.022-.436.032-.582.178"/><path d="M4.996 22h14c-.045-.507-.166-.864-.519-1.232-.53-.554-1.143-.589-2.372-.659a73 73 0 0 0-4.11-.109c-1.68 0-3.053.049-4.108.109-1.228.07-1.842.105-2.372.659-.353.368-.474.725-.519 1.232"/></svg>