<svg xmlns="http://www.w3.org/2000/svg" viewBox="0 0 32 32"><path d="M15.999 26.5q1.322.002 2.421.036z"/><path fill-rule="evenodd" d="M12.167 4.25a1.25 1.25 0 1 1 2.5 0V6h2.666V4.25a1.25 1.25 0 0 1 2.5 0V6H22.5V4.75a1.25 1.25 0 1 1 2.5 0v5.034c0 .596-.064 1.124-.162 1.581-.29 1.352-1.487 2.123-2.838 2.368v10.503l-.242-.02-.103-.008A71 71 0 0 0 16 24c-2.418 0-4.311.1-5.655.208l-.103.008-.241.02V13.733c-1.351-.245-2.549-1.016-2.838-2.368A7.5 7.5 0 0 1 7 9.784V4.75a1.25 1.25 0 1 1 2.5 0V6h2.667zm2.816 8.234c-.182.182-.196.364-.223.727a4 4 0 0 0 0 .578c.027.363.04.545.223.727.182.182.364.196.727.223a4 4 0 0 0 .578 0c.363-.027.544-.04.727-.223.182-.182.196-.364.223-.727a4 4 0 0 0 0-.578c-.027-.363-.04-.545-.223-.727s-.364-.196-.727-.223a4 4 0 0 0-.578 0c-.363.027-.545.04-.727.223m0 5c-.182.182-.196.364-.223.727a4 4 0 0 0 0 .578c.027.363.04.544.223.727.182.182.364.196.727.223a4 4 0 0 0 .578 0c.363-.027.544-.04.727-.223.182-.182.196-.364.223-.727a4 4 0 0 0 0-.578c-.027-.363-.04-.544-.223-.727s-.364-.196-.727-.223a4 4 0 0 0-.578 0c-.363.027-.545.04-.727.223"/><path d="M21.454 26.7a63 63 0 0 0-3.034-.164L16 26.5c-1.029 0-1.957.019-2.783.048a60 60 0 0 0-2.67.152q-.299.022-.546.049c-.725.077-1.153.215-1.536.8-.296.453-.412.877-.464 1.451h16c-.052-.574-.168-.997-.464-1.45-.47-.72-1.008-.763-2.082-.85"/></svg>