<svg xmlns="http://www.w3.org/2000/svg" viewBox="0 0 16 16"><path fill-rule="evenodd" d="M6.75 2a.75.75 0 0 1 .75.75v1.261l.109-.003q.391-.015.781 0 .056 0 .11.003V2.75a.75.75 0 0 1 1.5 0v1.399c.442.104.803.295 1.18.672s.568.738.672 1.179h1.398a.75.75 0 0 1 0 1.5h-1.26l.003.11q.015.392 0 .782l-.003.108h1.26a.75.75 0 0 1 0 1.5h-1.398c-.103.443-.295.804-.672 1.182s-.738.568-1.18.672v1.396a.75.75 0 0 1-1.5 0v-1.258l-.11.003q-.391.015-.781 0l-.109-.003v1.258a.75.75 0 0 1-1.5 0v-1.396c-.442-.103-.804-.295-1.18-.672-.378-.378-.57-.74-.674-1.182H2.75a.75.75 0 0 1 0-1.5h1.26l-.004-.108a12 12 0 0 1 0-.781l.003-.111H2.75a.75.75 0 0 1 0-1.5h1.397c.104-.441.296-.802.672-1.179S5.558 4.252 6 4.15v-1.4A.75.75 0 0 1 6.75 2M5.505 7.662c.025-.735.043-1.074.104-1.327.082-.34.385-.642.724-.724.253-.06.592-.08 1.327-.104.226-.004.452-.008.679 0 .735.025 1.074.043 1.327.104.34.082.642.385.724.724.06.253.079.592.104 1.327.008.228.008.451 0 .679-.025.735-.043 1.074-.104 1.327-.082.34-.385.642-.724.724-.253.06-.592.079-1.327.104a10 10 0 0 1-.68 0c-.734-.025-1.073-.043-1.326-.104a1.03 1.03 0 0 1-.724-.724c-.06-.253-.08-.592-.104-1.327a10 10 0 0 1 0-.68"/></svg>