<svg xmlns="http://www.w3.org/2000/svg" viewBox="0 0 24 24"><path fill-rule="evenodd" d="m16 6-.001.153.053.004c2.046.166 3.069.25 4.37 1.558s1.372 2.252 1.515 4.14a22 22 0 0 1 0 3.29c-.143 1.888-.214 2.832-1.515 4.14s-2.324 1.392-4.37 1.558A50 50 0 0 1 12 21c-1.55 0-2.9-.063-4.053-.157-2.045-.166-3.068-.25-4.369-1.558s-1.372-2.251-1.515-4.138a22 22 0 0 1 0-3.294c.143-1.887.214-2.83 1.515-4.138s2.324-1.392 4.369-1.558L8 6.153V6c0-.52.043-1.02.103-1.469.109-.804.163-1.206.609-1.675s.84-.543 1.627-.69A9 9 0 0 1 12 2c.579 0 1.151.07 1.66.166.788.147 1.182.22 1.628.69s.5.871.609 1.675c.06.449.103.95.103 1.469m-4-2c-.423 0-.868.052-1.293.132a13 13 0 0 0-.537.11l-.018.095c-.02.114-.038.25-.067.462A9 9 0 0 0 10 6v.037a54 54 0 0 1 4 0V6a9 9 0 0 0-.085-1.201 14 14 0 0 0-.085-.557l-.086-.021c-.111-.025-.244-.05-.451-.09A7 7 0 0 0 12 4m7.943 10.994c-.077 1.012-.122 1.47-.238 1.842-.237.76-1.013 1.512-1.77 1.743a5 5 0 0 1-.935.17V8.25c.406.046.687.095.934.17.758.23 1.534.983 1.77 1.743.117.373.162.83.239 1.842a20 20 0 0 1 0 2.988M10 18.962a52 52 0 0 0 5-.05V8.088q-.48-.029-1-.049a52 52 0 0 0-5 .05v10.825q.48.028 1 .049m-5.943-6.958c.077-1.01.122-1.468.239-1.84.237-.76 1.012-1.512 1.77-1.743.247-.075.528-.124.934-.17V18.75a5 5 0 0 1-.934-.17c-.758-.23-1.533-.983-1.77-1.742-.117-.373-.162-.83-.239-1.841a20 20 0 0 1 0-2.992"/></svg>