<svg xmlns="http://www.w3.org/2000/svg" viewBox="0 0 24 24"><path fill-rule="evenodd" d="m16 6-.001.152.053.005c2.046.166 3.069.25 4.37 1.558s1.372 2.252 1.515 4.14a22 22 0 0 1 0 3.29c-.143 1.888-.214 2.832-1.515 4.14-1.301 1.309-2.324 1.392-4.37 1.558A50 50 0 0 1 12 21c-1.55 0-2.9-.064-4.053-.157-2.045-.166-3.068-.25-4.369-1.558s-1.372-2.252-1.515-4.137A22 22 0 0 1 2 13.5q.002-.86.063-1.648c.143-1.885.214-2.829 1.515-4.137C4.88 6.406 5.902 6.323 7.947 6.157L8 6.152V6c0-.323.017-.639.044-.94l.014-.147.013-.118q.014-.135.032-.264c.091-.673.144-1.064.42-1.449q.048-.067.105-.134l.084-.092c.227-.239.44-.376.7-.471.25-.092.541-.147.927-.219A9 9 0 0 1 12 2c.579 0 1.151.07 1.66.166.449.084.77.144 1.045.267a2 2 0 0 1 .253.14q.166.11.33.283c.446.47.5.872.609 1.675q.047.346.075.725Q16 5.618 16 6m-4-2c-.423 0-.868.053-1.293.132l-.07.013c-.168.032-.283.053-.38.076l-.087.02-.018.096c-.02.114-.038.25-.067.462A9 9 0 0 0 10 6v.036a56 56 0 0 1 4 0V6c0-.413-.034-.822-.085-1.201-.029-.211-.047-.348-.067-.462l-.018-.096-.086-.02c-.069-.016-.146-.03-.244-.05l-.207-.04A7 7 0 0 0 12 4M8 8.3c-.552 0-1 .647-1 1.2v8.2a1 1 0 1 0 2 0V9.3a1 1 0 0 0-1-1m7.351.238A1 1 0 0 0 15 9.3v8.4a1 1 0 1 0 2 0V9.3a1 1 0 0 0-1.649-.762"/></svg>