<svg xmlns="http://www.w3.org/2000/svg" viewBox="0 0 24 24"><path fill-rule="evenodd" d="M9 4.245c0-.588-.503-1.056-1.086-.982-1.38.178-2.303.5-3.228 1.425S3.439 6.535 3.262 7.914C3.187 8.497 3.656 9 4.243 9c.52 0 .948-.398 1.017-.913.148-1.102.353-1.498.84-1.985s.884-.693 1.987-.84c.515-.07.913-.497.913-1.017m7.085-.981c-.582-.075-1.086.393-1.086.98 0 .52.399.949.914 1.018 1.103.147 1.5.353 1.986.84.488.487.693.883.84 1.986.07.516.497.914 1.018.914.587 0 1.056-.503.981-1.086-.177-1.38-.499-2.303-1.424-3.228-.926-.926-1.849-1.247-3.229-1.424M9 19.759c0 .587-.503 1.056-1.086.981-1.38-.177-2.303-.499-3.228-1.424-.926-.926-1.247-1.85-1.425-3.23-.075-.583.394-1.086.982-1.086.52 0 .947.398 1.016.913.148 1.105.353 1.5.84 1.989.488.487.884.692 1.987.84.516.069.914.497.914 1.017M19.757 15c.587 0 1.056.503.981 1.086-.177 1.38-.499 2.304-1.424 3.23-.925.925-1.848 1.247-3.228 1.424-.583.075-1.086-.394-1.086-.981 0-.52.398-.948.914-1.017 1.102-.148 1.498-.353 1.986-.84.487-.488.692-.884.84-1.988A1.04 1.04 0 0 1 19.757 15m-12.4-7.642c-.255.255-.28.52-.328 1.048a6 6 0 0 0 .001 1.188c.048.529.072.793.328 1.048.255.256.52.28 1.048.329a6 6 0 0 0 1.188-.001c.529-.048.793-.072 1.048-.328.256-.255.28-.52.329-1.048a6 6 0 0 0-.001-1.188c-.048-.529-.072-.793-.328-1.048-.255-.256-.52-.28-1.048-.329A7 7 0 0 0 9 7a6 6 0 0 0-.594.03c-.529.048-.793.072-1.048.328m5.672 1.048c.049-.529.073-.793.329-1.048.255-.256.52-.28 1.047-.329q.29-.028.595-.029c.202 0 .403.011.595.03.528.048.792.072 1.047.328.256.255.28.52.329 1.048a6 6 0 0 1-.001 1.188c-.048.529-.072.793-.328 1.048-.255.256-.52.28-1.047.329q-.29.028-.595.029a6 6 0 0 1-.594-.03c-.529-.048-.793-.072-1.048-.328-.256-.255-.28-.52-.329-1.048A7 7 0 0 1 13 9c0-.202.011-.403.03-.594m-6 6c.049-.529.073-.793.329-1.048.255-.256.52-.28 1.048-.329a6 6 0 0 1 1.188.001c.529.048.793.072 1.048.328.256.255.28.52.329 1.047q.028.29.029.595c0 .202-.011.403-.03.595-.048.528-.072.792-.328 1.047-.255.256-.52.28-1.048.329a6 6 0 0 1-1.188-.001c-.529-.048-.793-.072-1.048-.328-.256-.255-.28-.52-.329-1.047A7 7 0 0 1 7 15c0-.202.011-.403.03-.594M15.5 15a.5.5 0 0 0-.5.5v.5a1 1 0 1 1-2 0v-1.5a1.5 1.5 0 0 1 1.5-1.5H16a1 1 0 1 1 0 2z"/></svg>