<svg xmlns="http://www.w3.org/2000/svg" viewBox="0 0 16 16"><path fill-rule="evenodd" d="M7.68 3c-.7.019-1.275.056-2.044.132-.328.033-.462.058-.626.12-.19.07-.34.165-.514.324-.169.155-.29.337-.377.561-.035.093-.093.3-.109.388a.75.75 0 0 0 1.371.528.8.8 0 0 0 .111-.274.5.5 0 0 1 .037-.114c.01-.011.03-.015.173-.03.41-.045.974-.09 1.418-.112.363-.018.443-.02.88-.02.426 0 .494.002.827.018.595.03 1.494.111 1.521.14.013.013.073.282.1.451.037.23.052.427.052.68 0 .298-.021.51-.078.792a2 2 0 0 1-.054.227c-.015.015-.278.034-.849.063-.508.025-.71.04-.905.072-.357.057-.618.165-.833.345-.05.042-.14.134-.18.185q-.26.322-.321.837c-.02.17-.029.367-.03.732 0 .272 0 .279.009.33a.755.755 0 0 0 1.175.486 1 1 0 0 0 .18-.179 1 1 0 0 0 .1-.204.7.7 0 0 0 .034-.243c.01-.602.012-.66.025-.756l.005-.037.038-.007c.116-.024.282-.037.75-.06.35-.018.703-.039.797-.047.323-.028.558-.096.779-.227.106-.063.192-.132.297-.237s.17-.19.236-.307c.092-.162.148-.33.212-.64.06-.287.093-.545.11-.843.005-.093.003-.58-.004-.66a6 6 0 0 0-.127-.885 2.5 2.5 0 0 0-.124-.435 1.5 1.5 0 0 0-.566-.69 1.66 1.66 0 0 0-.7-.25 23 23 0 0 0-1.933-.147A35 35 0 0 0 7.682 3m.215 8.538a.906.906 0 0 0-.794.96c.01.122.037.221.089.326a.903.903 0 0 0 1.694-.574.9.9 0 0 0-.736-.706 1.5 1.5 0 0 0-.253-.006"/></svg>