<svg xmlns="http://www.w3.org/2000/svg" viewBox="0 0 44 44"><path fill-rule="evenodd" d="M14.652 11.654a2.4 2.4 0 0 0-.375.155A3.5 3.5 0 0 0 14 13.005v.006A1.5 1.5 0 0 1 11 13v-.035a4 4 0 0 1 .012-.244 6.4 6.4 0 0 1 .647-2.392c.242-.486.626-.81.957-1.02a5 5 0 0 1 1.084-.5c.734-.245 1.62-.408 2.524-.522C18.047 8.06 20.213 8 22 8c1.792 0 3.81.069 5.5.305.841.117 1.661.284 2.354.53.626.223 1.453.615 1.923 1.378.32.52.62 1.42.835 2.355.227.989.404 2.209.388 3.45-.03 2.376-.27 3.876-1.158 5.653-.278.556-.73.9-1.124 1.112a4.8 4.8 0 0 1-1.227.432c-.796.177-1.724.237-2.559.266-.427.014-.854.021-1.25.027q-.603.009-1.096.025-.498.018-.787.055a2 2 0 0 0-.17.027l-.01.008-.004.003-.005.004-.002.003-.003.004a.5.5 0 0 0-.055.153 2.6 2.6 0 0 0-.049.481 10 10 0 0 0-.002.456L23.5 25v2.499a1.5 1.5 0 0 1-3 .001V25l-.001-.18c-.005-.421-.012-1.089.127-1.698.186-.817.658-1.691 1.703-2.214.375-.187.796-.258 1.086-.296.33-.042.696-.064 1.06-.077.361-.014.754-.02 1.142-.026h.017c.4-.007.8-.013 1.195-.027.81-.027 1.503-.083 2.013-.196.19-.042.317-.084.395-.117.55-1.153.738-2.156.763-4.188a12 12 0 0 0-.6-3.76 5 5 0 0 0-.147-.375 2 2 0 0 0-.406-.185c-.42-.15-1.014-.28-1.762-.385C25.6 11.068 23.745 11 22 11c-1.75 0-3.767.059-5.402.264-.824.103-1.486.236-1.946.39m14.664 8.476-.003.002zM22 32a2 2 0 1 0 0 4 2 2 0 0 0 0-4"/></svg>