<svg xmlns="http://www.w3.org/2000/svg" viewBox="0 0 24 24"><path fill-rule="evenodd" d="M17 10a4 4 0 0 0-7.946-.662l-.285 1.715-1.738-.044h-.08C5.267 11.008 4 12.32 4 13.818c0 1.004.556 1.912 1.44 2.416l.063.035.06.04c.455.305.872.384 2.555.53.185.016.342.031.488.046s.282.027.425.039c.539.045.969.482.969 1.023 0 .564-.467 1.022-1.029.977a36 36 0 0 1-.541-.048l-.485-.044c-1.575-.137-2.538-.22-3.495-.86C2.984 17.137 2 15.59 2 13.819c0-2.657 2.217-4.81 4.95-4.81l.131.001A6.002 6.002 0 0 1 19 9.991V10l-.001.13c-.011.505-.451.87-.956.87h-.148A.9.9 0 0 1 17 10m4.268 4.14a1 1 0 1 0-1.536-1.28l-4.3 5.159-2.225-2.226a1 1 0 0 0-1.414 1.414l2.884 2.884a1.15 1.15 0 0 0 1.696-.077z"/></svg>