<svg xmlns="http://www.w3.org/2000/svg" viewBox="0 0 16 16"><path fill-rule="evenodd" d="M11.216 12.864A36 36 0 0 1 8 13c-1.26 0-2.332-.057-3.217-.136-1.3-.117-1.95-.176-2.75-.972-.8-.795-.857-1.387-.97-2.57a14 14 0 0 1 0-2.644c.113-1.183.17-1.775.97-2.57.8-.796 1.45-.855 2.75-.972A36 36 0 0 1 8 3c1.259 0 2.332.057 3.216.136 1.3.117 1.951.176 2.751.972s.857 1.388.97 2.572a14 14 0 0 1 0 2.64c-.113 1.184-.17 1.776-.97 2.572s-1.45.855-2.751.972M6.733 9.652q.486-.432.486-1.302v-.564H5.413v.726h.792q-.03.414-.234.594-.198.174-.66.174-.426 0-.654-.222-.222-.228-.222-.804v-.636q0-.294.06-.492a.8.8 0 0 1 .174-.318.6.6 0 0 1 .276-.174q.162-.054.366-.054.348 0 .552.144.21.138.258.486H7.16q-.084-.762-.558-1.092-.474-.336-1.29-.336-.462 0-.816.12t-.6.378q-.24.252-.366.66a3.3 3.3 0 0 0-.126.978q0 .588.12 1.002.126.408.366.666.246.258.6.378.36.114.822.114.936 0 1.422-.426m1.15-3.792V10h1.003V5.86zM9.724 10V5.86h2.863v.846h-1.86v.852h1.398v.846h-1.398V10z"/></svg>