<svg xmlns="http://www.w3.org/2000/svg" viewBox="0 0 24 24"><path fill-rule="evenodd" d="M12 6a45 45 0 0 0-3.882.16c-1.078.094-1.602.149-2.022.278-.312.097-.613.25-1.06.699-.458.46-.606.755-.696 1.043-.123.394-.173.879-.26 1.916a23 23 0 0 0 0 3.808c.087 1.037.137 1.523.26 1.916.09.288.238.584.696 1.043.447.45.748.602 1.06.699.42.13.943.184 2.022.278 1.096.095 2.39.16 3.882.16s2.786-.065 3.882-.16c1.079-.094 1.602-.149 2.023-.278.313-.097.613-.25 1.06-.699.458-.46.606-.755.696-1.043.123-.394.173-.88.26-1.917a23 23 0 0 0 0-3.805c-.087-1.038-.137-1.524-.26-1.918-.09-.288-.238-.584-.696-1.043-.447-.449-.747-.602-1.06-.699-.421-.13-.944-.184-2.024-.278a45 45 0 0 0-3.88-.16M7.945 4.168A47 47 0 0 1 12 4c1.55 0 2.902.068 4.055.168 2.025.175 3.037.263 4.327 1.557s1.37 2.265 1.532 4.207a25 25 0 0 1 0 4.137c-.162 1.941-.243 2.912-1.532 4.206s-2.302 1.382-4.327 1.557c-1.153.1-2.505.168-4.055.168a47 47 0 0 1-4.055-.168c-2.024-.175-3.036-.263-4.326-1.557S2.25 16.01 2.087 14.07a25 25 0 0 1 0-4.14c.162-1.94.243-2.911 1.532-4.205s2.302-1.381 4.326-1.557m3.014 8.356q0 1.16-.648 1.736-.648.568-1.896.568-.616 0-1.096-.152a1.95 1.95 0 0 1-.8-.504 2.26 2.26 0 0 1-.488-.888q-.16-.552-.16-1.336 0-.768.168-1.304.167-.544.488-.88.327-.344.8-.504.471-.16 1.088-.16 1.087 0 1.72.448.632.44.744 1.456H9.495q-.065-.464-.344-.648-.273-.192-.736-.192-.273 0-.488.072a.8.8 0 0 0-.368.232 1.04 1.04 0 0 0-.232.424q-.08.264-.08.656v.848q0 .768.296 1.072.303.296.872.296.616 0 .88-.232.271-.24.312-.792H8.55v-.968h2.408zm.886 2.2v-5.52h1.336v5.52zm2.453 0v-5.52h3.816v1.128h-2.48v1.136h1.864v1.128h-1.864v2.128z"/></svg>