<svg xmlns="http://www.w3.org/2000/svg" viewBox="0 0 44 44"><path fill-rule="evenodd" d="M4.118 4.123C.908 7.333.67 10.53.194 16.925a69 69 0 0 0-.198 5.078c0 1.71.075 3.42.198 5.078.476 6.394.714 9.592 3.924 12.801 3.209 3.21 6.406 3.448 12.801 3.924 1.658.123 3.368.198 5.078.198s3.42-.075 5.078-.198c6.395-.476 9.592-.714 12.802-3.924s3.447-6.407 3.923-12.801c.123-1.658.198-3.368.198-5.078s-.075-3.42-.198-5.078c-.476-6.395-.714-9.592-3.923-12.802S33.47.676 27.075.2a69 69 0 0 0-5.078-.198c-1.71 0-3.42.075-5.078.198-6.395.476-9.592.714-12.801 3.923M36.382 15.13c-.346-1.223-1.36-2.188-2.644-2.517C31.39 12 22 12 22 12s-9.39 0-11.738.588c-1.26.33-2.298 1.318-2.644 2.541C7 17.365 7 22 7 22s0 4.659.618 6.87c.346 1.224 1.359 2.189 2.644 2.518C12.634 32 22 32 22 32s9.39 0 11.738-.588c1.285-.33 2.298-1.294 2.644-2.518.618-2.235.618-6.87.618-6.87s.025-4.66-.618-6.895M19.01 26.282 26.819 22l-7.81-4.282z"/></svg>