<svg xmlns="http://www.w3.org/2000/svg" viewBox="0 0 24 24"><path d="M12 15a1 1 0 0 1-1-1v-4a1 1 0 1 1 2 0v4a1 1 0 0 1-1 1m-5-2a1 1 0 1 0 2 0v-2a1 1 0 1 0-2 0zm9 .25a1.25 1.25 0 1 0 0-2.5 1.25 1.25 0 0 0 0 2.5"/><path fill-rule="evenodd" d="M22 11.122v2.691c0 4.699 0 7.048-1.521 7.91-1.3.735-2.96-.039-5.926-1.787-.78.04-1.632.065-2.553.065a47 47 0 0 1-4.055-.168c-2.024-.176-3.036-.264-4.326-1.558-1.29-1.293-1.37-2.264-1.532-4.204a25 25 0 0 1 0-4.14C2.25 7.99 2.33 7.018 3.62 5.725s2.302-1.382 4.326-1.558C9.098 4.068 10.45 4 12 4s2.902.068 4.055.168c2.025.176 3.037.264 4.327 1.558s1.37 2.265 1.532 4.206q.048.57.07 1.184zm-2.014.066q-.021-.564-.065-1.09c-.087-1.037-.137-1.523-.26-1.917-.09-.288-.238-.584-.696-1.043-.447-.45-.747-.603-1.06-.7-.421-.129-.944-.184-2.024-.277a45 45 0 0 0-3.88-.16c-1.492 0-2.787.065-3.883.16-1.078.093-1.602.148-2.022.278-.312.096-.613.25-1.06.698-.458.46-.606.755-.696 1.044-.123.393-.173.879-.26 1.916a23 23 0 0 0 0 3.808c.087 1.037.137 1.522.26 1.915.09.289.238.584.696 1.044.447.449.748.602 1.06.698.42.13.943.185 2.022.278 1.096.096 2.39.16 3.882.16q1.33-.001 2.45-.061l.6-.031.518.305c1.503.885 2.49 1.409 3.213 1.653.34.115.531.134.622.134.06-.001.075-.01.088-.017l.002-.001.003-.001c.01-.005.035-.017.085-.114.074-.143.172-.425.25-.954.164-1.1.17-2.683.17-5.1z"/></svg>