<svg xmlns="http://www.w3.org/2000/svg" viewBox="0 0 16 16"><path fill-rule="evenodd" d="M14.936 6.675c-.113-1.183-.17-1.774-.968-2.568-.799-.795-1.448-.853-2.747-.97C10.335 3.057 9.26 3 8 3s-2.336.057-3.221.137c-1.299.117-1.948.175-2.747.97s-.855 1.385-.968 2.566a14 14 0 0 0 0 2.654c.113 1.181.17 1.773.968 2.567.799.794 1.448.852 2.746.97a39 39 0 0 0 4.963.099c1.62.963 2.685 1.526 3.5 1.537.272.004.516-.056.744-.185C15 13.741 15 12.186 15 9.054V8q-.002-.7-.064-1.325M7.25 6.5v3a.75.75 0 0 0 1.5 0v-3a.75.75 0 0 0-1.5 0m3.767 2.4a.9.9 0 1 0 0-1.8.9.9 0 0 0 0 1.8M5 6.75a.75.75 0 0 1 .75.75v1a.75.75 0 0 1-1.5 0v-1A.75.75 0 0 1 5 6.75"/></svg>