<svg xmlns="http://www.w3.org/2000/svg" viewBox="0 0 44 44"><path fill-rule="evenodd" d="M20.5 12a4.5 4.5 0 1 0 0-9 4.5 4.5 0 0 0 0 9M14 8.5a3.5 3.5 0 1 1-7 0 3.5 3.5 0 0 1 7 0m13.526 10.84c-.216-1.248-.596-2.147-1.613-3.179-1.492-1.511-2.632-1.64-4.913-1.895A45 45 0 0 0 16 14c-1.92 0-3.587.108-5 .266-2.28.256-3.421.384-4.913 1.896-1.492 1.511-1.613 2.741-1.856 5.2A47 47 0 0 0 4 26c0 1.687.095 3.255.231 4.638.243 2.459.364 3.689 1.856 5.2S8.72 37.479 11 37.735c1.412.158 3.08.266 4.999.266 1.92 0 3.588-.108 5-.266 2.28-.256 3.42-.384 4.913-1.895 1.017-1.032 1.397-1.931 1.613-3.18 1.148.543 2.693 1.252 3.924 1.736 1.213.479 2.777.998 4.004 1.389 1.97.627 4.107-.618 4.365-2.768a35 35 0 0 0 .178-1.92c.144-2.264.144-7.928 0-10.191a35 35 0 0 0-.178-1.92c-.258-2.151-2.395-3.396-4.365-2.769-1.227.39-2.79.91-4.004 1.388-1.23.486-2.776 1.194-3.924 1.737"/></svg>