<svg xmlns="http://www.w3.org/2000/svg" viewBox="0 0 16 16"><path fill-rule="evenodd" d="M7.5 3.5a1.5 1.5 0 1 0 0-3 1.5 1.5 0 0 0 0 3m-2-1.25a1.25 1.25 0 1 1-2.5 0 1.25 1.25 0 0 1 2.5 0M1.045 7.846c.108-1.453.162-2.18.892-2.91.729-.729 1.456-.783 2.909-.891C5.223 4.017 5.611 4 6 4s.777.017 1.154.045c1.453.108 2.18.162 2.91.892.445.445.638.89.746 1.499l.397-.228.037-.02c1.279-.733 2.069-1.186 2.65-1.189a.9.9 0 0 1 .477.122c.632.367.632 1.342.632 3.287v1.187c0 1.945 0 2.915-.632 3.282a.9.9 0 0 1-.476.122c-.588-.003-1.387-.46-2.688-1.204l-.397-.228c-.108.608-.302 1.052-.747 1.496-.729.73-1.456.784-2.909.892C6.777 13.983 6.389 14 6 14s-.777-.017-1.154-.045c-1.453-.108-2.18-.162-2.91-.892-.729-.729-.783-1.456-.891-2.909A16 16 0 0 1 1 9c0-.389.017-.777.045-1.154"/></svg>