<svg xmlns="http://www.w3.org/2000/svg" viewBox="0 0 44 44"><path fill-rule="evenodd" d="M20.5 12a4.5 4.5 0 1 0 0-9 4.5 4.5 0 0 0 0 9M14 8.5a3.5 3.5 0 1 1-7 0 3.5 3.5 0 0 1 7 0m6.666 26.252A42 42 0 0 1 16 35c-1.807 0-3.362-.102-4.665-.248-1.237-.138-1.743-.209-2.136-.34-.242-.08-.508-.205-.977-.68-.443-.45-.573-.725-.664-1.02-.14-.455-.21-1.043-.341-2.369A44 44 0 0 1 7 26c0-1.576.089-3.044.217-4.343.13-1.326.201-1.914.341-2.369.09-.295.221-.57.664-1.02.47-.475.735-.6.976-.68.394-.131.9-.202 2.137-.34A42 42 0 0 1 16 17c1.807 0 3.363.102 4.666.248 1.236.138 1.742.209 2.135.34.241.08.507.205.976.68.444.45.574.725.665 1.02.14.455.21 1.042.341 2.367.128 1.3.217 2.769.217 4.345a44 44 0 0 1-.217 4.345c-.13 1.325-.202 1.912-.341 2.367-.091.295-.221.57-.665 1.02-.469.475-.735.6-.976.68-.393.131-.899.202-2.135.34m6.86-15.411c-.216-1.249-.596-2.148-1.613-3.18-1.492-1.511-2.632-1.64-4.913-1.895A45 45 0 0 0 16 14c-1.92 0-3.587.108-5 .266-2.28.256-3.421.384-4.913 1.896-1.492 1.511-1.613 2.741-1.856 5.2A47 47 0 0 0 4 26c0 1.687.095 3.255.231 4.638.243 2.459.364 3.689 1.856 5.2S8.72 37.479 11 37.735c1.412.158 3.08.266 4.999.266 1.92 0 3.588-.108 5-.266 2.28-.256 3.42-.384 4.913-1.895 1.017-1.032 1.397-1.931 1.613-3.18 1.148.543 2.693 1.252 3.924 1.736 1.213.479 2.777.998 4.004 1.389 1.97.627 4.107-.618 4.365-2.768a35 35 0 0 0 .178-1.92c.144-2.264.144-7.928 0-10.191a35 35 0 0 0-.178-1.92c-.258-2.151-2.395-3.396-4.365-2.769-1.227.39-2.79.91-4.004 1.388-1.23.486-2.776 1.194-3.924 1.737M28 26v3.258c0 .193.108.356.264.43 1.158.554 2.95 1.39 4.286 1.917 1.115.439 2.599.933 3.814 1.32.135.043.25.019.331-.032a.3.3 0 0 0 .145-.235 32 32 0 0 0 .163-1.753c.136-2.137.136-7.673 0-9.81a32 32 0 0 0-.163-1.753.3.3 0 0 0-.145-.235.4.4 0 0 0-.33-.032c-1.216.387-2.7.881-3.815 1.32-1.336.527-3.128 1.363-4.286 1.917a.47.47 0 0 0-.264.43z"/></svg>