<svg xmlns="http://www.w3.org/2000/svg" viewBox="0 0 16 16"><path d="M3 9.4c0-1.005.093-1.972.235-2.862.052-.465-.076-.91-.304-1.383-.123-.256-.266-.5-.418-.76l-.012-.022a8 8 0 0 1-.439-.823.75.75 0 0 1 .693-1.05 157 157 0 0 0 1.57 0c.347-.675.882-1.215 1.637-1.365.4-.08.905-.135 1.538-.135a8 8 0 0 1 1.537.135c.885.176 1.467.885 1.797 1.721.451.055.82.132 1.166.291.751.345 1.432 1.069 1.695 1.853.149.446.19.946.247 1.622a17 17 0 0 1 .056 1.144.727.727 0 0 1-.734.734.776.776 0 0 1-.766-.767 17 17 0 0 0-.051-.987c-.06-.73-.095-1.03-.175-1.27-.122-.364-.497-.782-.898-.966l-.04-.017C11.686 5.836 12 7.555 12 9.4q0 .595-.008 1.1H3.008A70 70 0 0 1 3 9.4m.054 2.6.005.11c.073 1.42.994 2.524 2.4 2.738.581.089 1.267.152 2.04.152s1.46-.063 2.042-.152c1.406-.214 2.326-1.318 2.4-2.738l.005-.11z"/></svg>