<svg xmlns="http://www.w3.org/2000/svg" viewBox="0 0 24 24"><path d="M17.979 16c.06-3.247-.221-6.444-1.185-9.592.81.216 1.615.967 1.866 1.773.122.394.173.88.26 1.917.05.599.08 1.237.08 1.903 0 .544.455.999 1 .999.535 0 .998-.423 1-.958 0-.727-.034-1.461-.088-2.11-.071-.86-.127-1.53-.28-2.123-.367-1.429-1.592-2.745-2.988-3.232-.487-.17-1.019-.255-1.66-.322-.563-1.038-1.425-1.851-2.607-2.065C12.757 2.078 11.976 2 11 2s-1.757.078-2.377.19c-1.084.196-1.899.896-2.46 1.81-.652.002-1.505.004-2.156 0a1 1 0 0 0-.924 1.4c.145.332.312.656.478.978.209.405.417.809.583 1.233.251.639.385 1.274.278 1.984-.393 2.117-.465 4.26-.408 6.405zm-.085 2H4.106c.213 1.99 1.59 3.474 3.606 3.767A23 23 0 0 0 11 22c1.254 0 2.36-.098 3.288-.233 2.015-.293 3.393-1.778 3.606-3.767"/></svg>