<svg xmlns="http://www.w3.org/2000/svg" viewBox="0 0 17 17"><path d="M8.469.057a.8.8 0 0 1 .592 0l5.312 2.125a.797.797 0 0 1-.592 1.48L8.765 1.654 3.749 3.66a.797.797 0 0 1-.592-1.48z"/><path fill-rule="evenodd" d="M6.233 4.887A2.11 2.11 0 0 0 4.89 6.23c-.107.323-.107.723-.107 1.522v.42l-.002.057v6.374a.797.797 0 0 0 1.593 0v-2.917h3.674l.194-.001c1.968-.024 3.576-1.449 3.576-3.417 0-2.005-1.639-3.47-3.644-3.487h-2.42c-.799 0-1.198 0-1.521.106m.144 5.206h3.67q.09 0 .176-.002c1.218-.015 2.002-.845 2.002-1.823 0-1.023-.823-1.883-2.063-1.893H7.754c-.417 0-.665 0-.85.01a1.4 1.4 0 0 0-.178.018.52.52 0 0 0-.321.321 1.4 1.4 0 0 0-.018.177c-.01.186-.01.434-.01.85z"/></svg>