<svg xmlns="http://www.w3.org/2000/svg" viewBox="0 0 24 24"><path d="M12.645.076a1 1 0 0 0-.765 0l-7.263 3a1 1 0 0 0 .764 1.848l6.88-2.842 6.855 2.842a1 1 0 0 0 .766-1.848z"/><path fill-rule="evenodd" d="M13.992 16H8.999v4a1 1 0 1 1-2 0v-9.128c0-.96 0-1.439.115-1.83a2.84 2.84 0 0 1 1.927-1.927C9.432 7 9.912 7 10.871 7h3.12l.244.001C16.85 7.031 19 8.931 19 11.545c0 2.568-2.108 4.413-4.675 4.452q-.165.003-.332.003M9 10.872V14h4.993q.152 0 .301-.002C15.94 13.972 17 12.856 17 11.545c0-1.369-1.11-2.525-2.787-2.544L13.992 9h-3.12c-.5 0-.802 0-1.03.012a1.5 1.5 0 0 0-.24.023.84.84 0 0 0-.568.567 2 2 0 0 0-.023.241C9 10.071 9 10.373 9 10.873"/></svg>