<svg xmlns="http://www.w3.org/2000/svg" viewBox="0 0 32 32"><path d="M16.74.55a1.25 1.25 0 0 0-.98 0L6.26 4.6a1.25 1.25 0 0 0 .98 2.3l9.01-3.841 9.01 3.84a1.25 1.25 0 0 0 .98-2.299z"/><path fill-rule="evenodd" d="M9.498 14.665c0-1.368 0-2.052.18-2.606a3.7 3.7 0 0 1 2.378-2.378c.554-.18 1.238-.18 2.606-.18h3.868l.15.001c3.481.02 6.318 2.579 6.318 6.06 0 3.418-2.783 5.904-6.2 5.938l-.268.002h-6.527v5.248a1.25 1.25 0 0 1-2.5 0zm2.5 4.337v-4.337c0-.711.001-1.145.02-1.473.013-.262.035-.351.038-.364.118-.365.404-.65.769-.768a2 2 0 0 1 .364-.04 31 31 0 0 1 1.473-.018h4.003c2.265.013 3.833 1.606 3.833 3.56 0 1.876-1.502 3.416-3.726 3.438l-.242.002z"/></svg>