<svg xmlns="http://www.w3.org/2000/svg" viewBox="0 0 16 16"><path d="M1.502 4.75A2.75 2.75 0 0 1 4.25 2a.75.75 0 0 1 0 1.5C3.56 3.5 3 4.06 3 4.75a.75.75 0 1 1-1.5 0M11.752 2a2.75 2.75 0 0 1 2.75 2.75.75.75 0 0 1-1.5 0c0-.69-.56-1.25-1.25-1.25a.75.75 0 0 1 0-1.5M4.667 5.5A.667.667 0 0 0 4 6.167v3.666c0 .368.298.667.667.667H6v-5zm2.833 0h-1v5h1zm.5 0h2v5H8zm3.333 0H10.5v5h.833A.667.667 0 0 0 12 9.833V6.167a.667.667 0 0 0-.667-.667m.419 8.5a2.75 2.75 0 0 0 2.75-2.75.75.75 0 0 0-1.5 0c0 .69-.56 1.25-1.25 1.25a.75.75 0 0 0 0 1.5m-10.25-2.75A2.75 2.75 0 0 0 4.252 14a.75.75 0 0 0 0-1.5c-.69 0-1.25-.56-1.25-1.25a.75.75 0 0 0-1.5 0"/></svg>