<svg xmlns="http://www.w3.org/2000/svg" viewBox="0 0 16 16"><path d="M2.525 8c-.38-.475-.424-1.029-.5-2.003a7.5 7.5 0 0 1 .057-1.718c.104-.703.156-1.055.657-1.53.5-.475.925-.516 1.776-.597C5.385 2.07 6.548 2 8 2s2.616.07 3.485.152c.85.081 1.276.122 1.776.597.501.475.553.827.657 1.531a7.5 7.5 0 0 1 .057 1.716l-.02.254a.752.752 0 0 1-1.502 0q.008-.087.014-.187.005-.087.013-.183.02-.256.02-.503c0-.31-.026-.605-.066-.878a9 9 0 0 0-.064-.4 1 1 0 0 0-.042-.154 1 1 0 0 0-.1-.108.5.5 0 0 0-.09-.074.2.2 0 0 0-.05-.02 2 2 0 0 0-.238-.044 14 14 0 0 0-.507-.053A36 36 0 0 0 8 3.5c-1.404 0-2.52.067-3.343.146-.221.02-.375.036-.507.053a2 2 0 0 0-.237.045.2.2 0 0 0-.05.019.5.5 0 0 0-.091.074 1 1 0 0 0-.106.12 1 1 0 0 0-.036.142 9 9 0 0 0-.064.4A6 6 0 0 0 3.52 5.88c.023.29.04.507.062.693.021.184.042.296.062.37a.4.4 0 0 0 .037.1.4.4 0 0 0 .07.078l.004.004c.019.019.051.05.241.08.183.03.413.041.756.046q.306-.004.671-.003H8.25a.752.752 0 0 1 0 1.502l-2.827.004q-.365 0-.67-.003a6 6 0 0 0-.757.045c-.19.03-.222.062-.241.08l-.005.005a.4.4 0 0 0-.07.079.4.4 0 0 0-.036.099c-.02.074-.041.186-.062.37-.022.186-.039.402-.062.692q-.02.257-.02.503c0 .31.026.606.066.878.027.185.045.302.064.4a1 1 0 0 0 .042.154.7.7 0 0 0 .1.108c.054.052.083.07.09.074s.017.01.05.019c.04.012.11.027.238.044a33 33 0 0 0 3.1.199.75.75 0 1 1-.108 1.492 35 35 0 0 1-2.628-.144c-.85-.08-1.275-.121-1.775-.596s-.553-.827-.657-1.53a7.5 7.5 0 0 1-.057-1.717c.076-.975.119-1.529.5-2.004"/><path d="M6.233 5.333a.9.9 0 1 1-1.8 0 .9.9 0 0 1 1.8 0m-.9 6.234a.9.9 0 1 0 0-1.8.9.9 0 0 0 0 1.8"/><path fill-rule="evenodd" d="m14.823 14.787.028-.032c.185-.226.163-.536.118-1.155l-.028-.35c-.078-.942-.118-1.425-.54-2.049a2.5 2.5 0 1 0-4.801 0c-.423.624-.463 1.107-.541 2.048l-.028.35c-.045.62-.067.93.118 1.156l.028.032c.198.213.504.213 1.115.213h3.416c.611 0 .917 0 1.115-.213m-2.186-3.497c.146-.152.355-.372.363-.813a1 1 0 0 0-2 .001c.008.44.217.66.363.812.078.082.137.144.137.211 0 .085-.055.113-.154.164-.123.064-.313.162-.549.445-.137.217-.17.383-.243 1.263l-.01.127h2.913l-.01-.127c-.074-.88-.107-1.046-.244-1.263-.236-.283-.426-.381-.549-.445-.099-.051-.154-.08-.154-.164 0-.067.06-.13.137-.211"/></svg>