<svg xmlns="http://www.w3.org/2000/svg" viewBox="0 0 16 16"><path d="M6 4.834a1.167 1.167 0 1 1 0 2.333 1.167 1.167 0 0 1 0-2.333"/><path fill-rule="evenodd" d="M2.054 6.615c.13-1.744.195-2.616 1.07-3.491s1.747-.94 3.491-1.07C7.067 2.02 7.534 2 8 2s.933.02 1.385.054c1.744.13 2.616.195 3.491 1.07s.94 1.747 1.07 3.491C13.98 7.067 14 7.534 14 8s-.02.933-.054 1.385c-.13 1.744-.195 2.616-1.07 3.491s-1.747.94-3.491 1.07C8.933 13.98 8.466 14 8 14s-.933-.02-1.385-.054c-1.744-.13-2.616-.195-3.491-1.07s-.94-1.747-1.07-3.491A19 19 0 0 1 2 8c0-.466.02-.933.054-1.385M6.727 3.55c.42-.031.85-.05 1.273-.05s.852.019 1.273.05c1.845.137 2.122.214 2.542.635.42.42.498.697.635 2.542.032.42.05.85.05 1.273s-.018.852-.05 1.273c-.064.857-.114 1.375-.192 1.727H11.5v-.234c-.003-.193-.164-.453-.429-.88L10.212 8.5h.172c.643 0 .964 0 1.08-.207.115-.208-.054-.48-.393-1.027l-.634-1.023c-.308-.497-.462-.746-.687-.746s-.38.249-.687.746l-.635 1.023c-.338.546-.507.82-.392 1.027.116.207.437.207 1.08.207h.172l-.86 1.387c-.264.426-.425.686-.428.879V11H3.743c-.079-.352-.13-.87-.193-1.727A17 17 0 0 1 3.5 8c0-.423.019-.852.05-1.273.137-1.845.214-2.122.635-2.542.42-.42.697-.498 2.542-.635"/></svg>