<svg xmlns="http://www.w3.org/2000/svg" viewBox="0 0 24 24"><path d="M10.75 9a1.75 1.75 0 1 0-3.5 0 1.75 1.75 0 0 0 3.5 0"/><path fill-rule="evenodd" d="M4.686 4.686c-1.313 1.313-1.41 2.62-1.605 5.237C3.031 10.6 3 11.3 3 12s.03 1.399.081 2.077c.195 2.616.292 3.924 1.605 5.237s2.62 1.41 5.237 1.605C10.6 20.969 11.3 21 12 21s1.399-.03 2.077-.081c2.616-.195 3.924-.292 5.237-1.605s1.41-2.62 1.605-5.237C20.969 13.4 21 12.7 21 12s-.03-1.399-.081-2.077c-.195-2.616-.292-3.924-1.605-5.237s-2.62-1.41-5.237-1.605A28 28 0 0 0 12 3c-.7 0-1.399.03-2.077.081-2.616.195-3.924.292-5.237 1.605M12 5c-.642 0-1.292.028-1.929.076-2.75.204-3.265.318-3.97 1.024-.707.706-.82 1.22-1.025 3.971A26 26 0 0 0 5 12c0 .642.028 1.292.076 1.929.067.902.124 1.564.196 2.071h7.365c.102-.219.258-.486.455-.823l.685-1.174c-.7-.005-1.069-.042-1.22-.304-.174-.304.062-.71.535-1.52l.862-1.477c.466-.799.699-1.198 1.047-1.198s.582.4 1.048 1.198l.862 1.478c.472.81.709 1.215.534 1.519-.15.262-.52.299-1.22.303l.686 1.175c.197.337.352.604.455.823h1.362c.072-.507.13-1.169.196-2.071.048-.637.076-1.287.076-1.929s-.028-1.292-.076-1.929c-.204-2.75-.318-3.265-1.024-3.97-.706-.707-1.22-.82-3.971-1.025A26 26 0 0 0 12 5"/></svg>