<svg xmlns="http://www.w3.org/2000/svg" viewBox="0 0 44 44"><path fill-rule="evenodd" d="M34.857 29.128c-.168-.786-.517-1.71-.974-2.665v-.001l-.015-.03a269 269 0 0 1-1.723-3.643c-.39-.851-.728-1.631-.905-2.258l1.464-.403 1.463-.404c.212.746.962 2.317 2.464 5.457 1.021 2.136 1.816 4.634 1.085 6.319-1.354 3.117-7.824 3.062-13.61 3.012-.712-.006-1.413-.012-2.093-.012s-1.381.006-2.093.012c-5.787.05-12.257.105-13.61-3.012-.807-1.86.101-4.708 1.13-6.969 1.186-2.603 1.778-3.905 1.96-4.525s.294-1.404.52-2.972l.238-1.65c.556-3.863.834-5.795 2.681-7.856 1.848-2.06 3.026-2.374 5.383-3 1.201-.32 2.486-.528 3.79-.528 1.163 0 2.309.165 3.394.427 2.468.595 3.702.893 5.636 3.081s2.15 4.23 2.581 8.314l.038.362c.197 1.863.295 2.795.506 3.54l-1.463.404-1.464.404c-.281-.996-.405-2.167-.572-3.761l-.03-.276-.038-.363c-.447-4.24-.644-5.29-1.848-6.651-.79-.894-1.28-1.227-1.683-1.426-.497-.244-1.07-.396-2.384-.714A11.5 11.5 0 0 0 22.013 7c-.983 0-1.997.158-3 .425-1.255.333-1.808.493-2.29.736-.392.198-.859.52-1.608 1.356-1.15 1.281-1.371 2.28-1.948 6.29l-.238 1.65-.033.233c-.193 1.34-.334 2.322-.577 3.15-.243.83-.903 2.278-1.9 4.47l-.206.45c-.467 1.027-.856 2.081-1.05 3.009-.2.968-.108 1.423-.063 1.54.033.043.177.189.623.377.657.276 1.649.5 3.002.643 2.12.224 4.545.204 7.051.183q1.112-.01 2.237-.012 1.125.002 2.236.012c2.507.021 4.932.041 7.051-.183 1.354-.142 2.345-.367 3.003-.643.44-.186.586-.331.622-.376.008-.025.03-.11.035-.28a4 4 0 0 0-.103-.902M9.09 30.296l.007.01zm25.844 0-.007.01zM18.974 37c-.84 0-1.52.672-1.52 1.5s.68 1.5 1.52 1.5h6.078c.84 0 1.52-.672 1.52-1.5s-.68-1.5-1.52-1.5z"/></svg>