<svg xmlns="http://www.w3.org/2000/svg" viewBox="0 0 28 28"><path fill-rule="evenodd" d="M3.932 16.865c.685-1.44 1.028-2.16 1.174-2.623l.008-.023.054-.182.006-.023c.13-.468.268-1.493.542-3.542.183-1.367.472-2.533.772-3.472.589-1.846 1.435-3.273 3.24-4.105C10.766 2.417 12.191 2 14.002 2c1.812 0 3.237.417 4.274.895 1.805.832 2.651 2.259 3.24 4.105.3.939.59 2.105.773 3.472.275 2.056.412 3.083.543 3.553l.006.022.052.174.007.022c.146.465.49 1.19 1.178 2.638.941 1.979 1.219 3.298.583 4.386C23.644 23 20.98 23 15.65 23h-3.302c-5.329 0-7.993 0-9.007-1.733-.637-1.09-.357-2.414.59-4.402m18.337.874c.444.934.648 1.547.711 1.967.054.357-.006.478-.049.551-.046.079-.212.364-1.452.548-1.277.19-3.096.195-5.828.195h-3.302c-2.732 0-4.55-.005-5.828-.195-1.24-.184-1.406-.47-1.452-.548-.043-.073-.103-.194-.049-.554.065-.422.27-1.039.718-1.978l.103-.217c.588-1.234.984-2.064 1.173-2.664l.006-.02a8 8 0 0 0 .075-.252l.006-.02c.169-.607.32-1.737.553-3.488l.044-.327c.166-1.24.428-2.291.695-3.129.504-1.579 1.086-2.396 2.172-2.896.802-.37 1.943-.712 3.437-.712 1.495 0 2.636.342 3.438.712 1.085.5 1.668 1.317 2.171 2.896.268.838.53 1.889.695 3.13l.044.327c.235 1.757.386 2.89.556 3.497l.005.02.072.241.006.02c.189.601.586 1.436 1.176 2.677z"/><path d="M12.683 24a1 1 0 1 0 0 2h2.634a1 1 0 1 0 0-2z"/></svg>