<svg xmlns="http://www.w3.org/2000/svg" viewBox="0 0 16 16"><path d="M13.608 9.288c-.251-.583-.417-.967-.518-1.225a3.7 3.7 0 0 1-.21-.806c-.05-.31-.112-.78-.204-1.468-.126-.94-.34-1.717-.546-2.294-.36-1.006-.942-1.683-1.945-2.088A5.8 5.8 0 0 0 8.002 1a5.8 5.8 0 0 0-2.183.407c-1.004.405-1.586 1.082-1.945 2.088-.206.577-.42 1.354-.547 2.294-.092.689-.154 1.158-.203 1.468a3.7 3.7 0 0 1-.212.806c-.1.256-.265.636-.514 1.214-.432.998-.535 1.673-.196 2.245.581.978 2.083.978 5.086.978h1.424c3.003 0 4.505 0 5.086-.978.339-.57.237-1.242-.19-2.234m-7.041 4.958a.75.75 0 0 1 .75-.75h1.367a.75.75 0 0 1 0 1.5H7.317a.75.75 0 0 1-.75-.75"/></svg>