<svg xmlns="http://www.w3.org/2000/svg" viewBox="0 0 16 16"><path fill-rule="evenodd" d="M13.608 9.288c-.251-.583-.417-.967-.518-1.225a3.7 3.7 0 0 1-.21-.806c-.05-.31-.112-.78-.204-1.468-.126-.94-.34-1.717-.546-2.294-.36-1.006-.942-1.683-1.945-2.088A5.8 5.8 0 0 0 8.002 1a5.8 5.8 0 0 0-2.183.407c-1.004.405-1.586 1.082-1.945 2.088-.206.577-.42 1.354-.547 2.294-.092.689-.154 1.158-.203 1.468a3.7 3.7 0 0 1-.212.806c-.1.256-.265.636-.514 1.214-.432.998-.535 1.673-.196 2.245.581.978 2.083.978 5.086.978h1.424c3.003 0 4.505 0 5.086-.978.339-.57.237-1.242-.19-2.234M4.81 6.015l.003-.027c.11-.826.298-1.5.473-1.989.233-.654.535-.976 1.094-1.201.395-.16.933-.298 1.62-.298.689 0 1.226.138 1.622.298.559.225.86.547 1.094 1.201a10 10 0 0 1 .472 1.989l.004.027c.089.664.153 1.147.205 1.475.057.366.142.728.296 1.12.11.281.283.683.52 1.236l.017.037c.19.443.253.693.267.83l.002.038h-.002c-.068.036-.228.095-.555.143-.687.102-1.679.106-3.23.106H7.287c-1.552 0-2.544-.004-3.23-.106-.328-.049-.487-.107-.556-.143H3.5l.003-.039c.014-.14.078-.393.272-.84l.015-.036c.236-.546.408-.945.518-1.224.154-.393.24-.752.297-1.121.052-.328.117-.811.206-1.476"/><path d="M6.567 14.246a.75.75 0 0 1 .75-.75h1.367a.75.75 0 0 1 0 1.5H7.317a.75.75 0 0 1-.75-.75"/></svg>