<svg xmlns="http://www.w3.org/2000/svg" viewBox="0 0 44 44"><path fill-rule="evenodd" d="m10.158 15.384-.238 1.65c-.226 1.568-.338 2.352-.52 2.972s-.774 1.922-1.96 4.525c-1.029 2.261-1.937 5.11-1.13 6.969 1.353 3.117 7.823 3.062 13.61 3.012.712-.006 1.413-.012 2.093-.012s1.381.006 2.092.012c5.787.05 12.257.105 13.61-3.012.732-1.685-.063-4.183-1.084-6.319-1.502-3.14-2.252-4.71-2.464-5.457-.21-.745-.309-1.677-.506-3.54l-.038-.362c-.43-4.084-.646-6.126-2.58-8.314s-3.169-2.486-5.637-3.08A14.5 14.5 0 0 0 22.013 4c-1.305 0-2.59.209-3.791.528-2.357.626-3.536.94-5.383 3s-2.125 3.993-2.681 7.856M18.974 37c-.84 0-1.52.672-1.52 1.5s.68 1.5 1.52 1.5h6.078c.84 0 1.52-.672 1.52-1.5s-.68-1.5-1.52-1.5z"/></svg>