<svg xmlns="http://www.w3.org/2000/svg" viewBox="0 0 28 28"><path d="M12.683 24a1 1 0 1 0 0 2h2.634a1 1 0 1 0 0-2zm-7.668-9.5c-.18.468-.513 1.168-1.083 2.365-.946 1.988-1.227 3.312-.59 4.402C4.356 23 7.02 23 12.35 23h3.302c5.329 0 7.993 0 9.007-1.733.636-1.088.358-2.407-.583-4.386-.573-1.207-.907-1.91-1.088-2.381a5 5 0 0 1-.213-.717c-.116-.548-.25-1.554-.485-3.311A20.3 20.3 0 0 0 21.517 7c-.59-1.846-1.436-3.273-3.24-4.105C17.239 2.417 15.813 2 14.001 2s-3.236.417-4.274.895C7.924 3.727 7.077 5.154 6.488 7c-.3.939-.59 2.105-.772 3.472-.236 1.762-.37 2.767-.486 3.311a5 5 0 0 1-.215.717"/></svg>