<svg xmlns="http://www.w3.org/2000/svg" viewBox="0 0 32 32"><path d="M14.75 26.5a1.25 1.25 0 1 0 0 2.5h2.5a1.25 1.25 0 0 0 0-2.5zM6.483 15.951c-.12.32-.38.869-.898 1.966-1.095 2.312-1.425 3.843-.696 5.102 1.146 1.978 4.154 1.98 10.17 1.98h1.882c6.016 0 9.024-.002 10.17-1.98.727-1.255.4-2.782-.687-5.084-.522-1.106-.784-1.66-.904-1.982l-.02-.057c-.088-.235-.132-.352-.167-.472s-.062-.243-.116-.488l-.013-.06c-.074-.336-.18-1.141-.393-2.752a22 22 0 0 0-.871-3.892c-.628-1.935-1.596-3.455-3.493-4.314C19.353 3.423 17.872 3 16.003 3c-1.87 0-3.351.423-4.445.918-1.897.859-2.865 2.38-3.493 4.314a22 22 0 0 0-.87 3.892c-.212 1.602-.318 2.403-.392 2.738l-.012.056c-.055.25-.082.375-.118.498-.036.122-.081.242-.17.481z"/></svg>