<svg xmlns="http://www.w3.org/2000/svg" viewBox="0 0 24 24"><g fill-rule="evenodd" clip-rule="evenodd"><path d="M11.5 12c0 .35-.06.687-.17 1h1.34a3 3 0 1 1 2.83 2h-7a3 3 0 1 1 3-3m-1.8 0a1.2 1.2 0 1 1-2.4 0 1.2 1.2 0 0 1 2.4 0m7 0a1.2 1.2 0 1 1-2.4 0 1.2 1.2 0 0 1 2.4 0"/><path d="M22.003 11.122v2.691c0 4.699 0 7.048-1.522 7.91-1.3.735-2.96-.039-5.926-1.787a50 50 0 0 1-6.608-.103c-2.024-.176-3.036-.264-4.326-1.558-1.29-1.293-1.37-2.264-1.532-4.204a25 25 0 0 1 0-4.14c.162-1.941.243-2.912 1.532-4.205s2.302-1.382 4.326-1.558C9.1 4.068 10.452 4 12.002 4s2.902.068 4.054.168c2.026.176 3.038.264 4.328 1.558s1.37 2.265 1.532 4.206q.048.57.07 1.184zm-2.015.066a23 23 0 0 0-.065-1.09c-.087-1.037-.137-1.523-.26-1.917-.09-.288-.238-.584-.696-1.043-.447-.45-.748-.603-1.06-.7-.421-.129-.944-.184-2.024-.277a45 45 0 0 0-3.88-.16c-1.492 0-2.787.065-3.883.16-1.079.093-1.602.148-2.022.278-.313.096-.613.25-1.06.698-.458.46-.606.755-.696 1.044-.123.393-.173.879-.26 1.916a23 23 0 0 0 0 3.808c.087 1.037.137 1.522.26 1.915.09.289.238.584.696 1.044.447.449.747.602 1.06.698.42.13.943.185 2.022.278 1.096.096 2.39.16 3.882.16q1.33-.001 2.45-.061l.6-.031.518.305c1.503.885 2.49 1.409 3.212 1.653.341.115.532.134.623.134.06-.001.075-.01.088-.017l.002-.001.002-.001c.01-.005.036-.017.086-.114.074-.143.172-.425.25-.954.164-1.1.17-2.683.17-5.1z"/></g></svg>