<svg xmlns="http://www.w3.org/2000/svg" viewBox="0 0 24 24"><path fill-rule="evenodd" d="M5.96 3.276C7.407 3.131 9.423 3 12 3c2.575 0 4.592.13 6.039.276 1.312.132 1.618.189 2.08.62.279.258.392.443.467.636.094.239.149.53.246 1.094.1.573.167 1.215.167 1.9q-.002.584-.059 1.13c-.078.766-.127 1.201-.234 1.547-.09.284-.22.509-.522.781a1.55 1.55 0 0 1-.61.354A6.5 6.5 0 0 0 17.499 11a6.5 6.5 0 0 0-2.504.5H6.871c-2.031 0-2.54-.05-3.056-.516-.301-.272-.432-.497-.521-.781-.108-.345-.157-.78-.235-1.546A11 11 0 0 1 3 7.527c0-.687.068-1.33.167-1.903.098-.564.152-.854.246-1.092.076-.193.189-.378.467-.637.462-.43.768-.487 2.08-.619M8.75 7.5a1.25 1.25 0 1 1-2.5 0 1.25 1.25 0 0 1 2.5 0m2.25 10c0-2.01.912-3.808 2.346-5H6.87c-2.031 0-2.54.05-3.056.516-.301.272-.432.497-.521.781-.108.345-.157.78-.235 1.546q-.057.546-.059 1.13c0 .687.068 1.33.167 1.903.098.564.152.854.246 1.092.076.193.189.378.467.637.462.43.768.486 2.08.619C7.407 20.869 9.423 21 12 21h.021A6.47 6.47 0 0 1 11 17.5m-2.25-1a1.25 1.25 0 1 1-2.5 0 1.25 1.25 0 0 1 2.5 0"/><path d="M23 13.5c0-.89-1.078-1.337-1.708-.707A1 1 0 0 0 21 13.5v1.171a4.5 4.5 0 1 0-1.24 6.721c.048-.024.091-.057.135-.089q.037-.028.076-.054a1 1 0 0 0-1.109-1.644A2.5 2.5 0 0 1 17.5 20a2.5 2.5 0 1 1 2-4h-1a1 1 0 0 0-.708.293c-.63.63-.183 1.707.708 1.707H21c.942 0 1.414 0 1.707-.293S23 16.943 23 16z"/></svg>