<svg xmlns="http://www.w3.org/2000/svg" viewBox="0 0 24 24"><path d="M12 5c0 .957-.449 1.81-1.147 2.36.833.34 2.355 1.807 2.717 2.631.395.9.405 1.293.424 2.078q.006.215.006.431c0 1.398 0 2.097-.228 2.648A3 3 0 0 1 12 16.826V17c0 1.293-.07 2.311-.15 3.05-.1.92-.723 1.687-1.636 1.844-.359.062-.77.106-1.214.106s-.855-.044-1.214-.106c-.913-.157-1.536-.923-1.635-1.844A29 29 0 0 1 6 16.826q-.076-.024-.149-.054a3 3 0 0 1-1.624-1.624C4 14.597 4 13.898 4 12.5q0-.216.006-.431c.02-.785.03-1.178.424-2.078.362-.824 1.884-2.29 2.717-2.631A3 3 0 1 1 12 5m7.416 7.562a2.5 2.5 0 1 0-2.83-.001c-.912.63-1.586 1.677-1.586 2.785v.966c0 .782.219 1.588.947 1.87q.238.095.555.168v.289c0 .977.069 1.722.139 2.227.072.52.391.983.905 1.088a2.3 2.3 0 0 0 .952-.01c.485-.108.793-.54.864-1.032.07-.475.137-1.183.137-2.149v-.414a4 4 0 0 0 .561-.17c.722-.283.94-1.082.94-1.857v-.976c0-1.107-.672-2.153-1.584-2.784"/></svg>