<svg xmlns="http://www.w3.org/2000/svg" viewBox="0 0 16 16"><path fill-rule="evenodd" d="M1.829 6.25c-.444 0-.805.385-.725.822.108.593.31 1.036.848 1.57.8.796 1.45.855 2.75.972.885.08 1.958.136 3.217.136s2.332-.057 3.216-.136c1.301-.117 1.951-.176 2.752-.971.537-.535.74-.978.848-1.57.08-.438-.28-.823-.725-.823-.386 0-.685.297-.775.672q-.015.062-.033.118c-.042.13-.11.278-.373.54-.246.243-.4.317-.565.367-.247.075-.564.11-1.263.173-.84.075-1.868.13-3.082.13s-2.242-.055-3.082-.13c-.7-.063-1.016-.098-1.263-.173-.164-.05-.318-.124-.564-.368-.263-.261-.331-.41-.373-.54l-.033-.117c-.09-.376-.39-.672-.775-.672"/></svg>