<svg xmlns="http://www.w3.org/2000/svg" viewBox="0 0 24 24"><path fill-rule="evenodd" d="M6.087 2.38A5 5 0 0 1 12 4a5 5 0 0 1 2.087-1.62A5 5 0 0 1 21 7a1 1 0 0 1-1 1h-.965l.01.013a4.9 4.9 0 0 1 .819 1.733c.155.628.187 1.283.094 1.926a5.1 5.1 0 0 1-.635 1.83 1 1 0 0 1-1.366.366l-2.979-1.72Q15 13.617 15 15.499a28 28 0 0 0 .367 4.543 99 99 0 0 1 2.754.108c1.209.065 1.813.098 2.342.637.364.372.486.717.537 1.213H3c.051-.496.172-.841.537-1.213.53-.54 1.133-.572 2.342-.637a96 96 0 0 1 2.19-.092L8.073 20c.18-2.632.662-5.532 1.15-7.969l-3.178 1.835A1 1 0 0 1 4.68 13.5a5.1 5.1 0 0 1-.635-1.829 5 5 0 0 1 .094-1.926 4.9 4.9 0 0 1 .819-1.733L4.966 8H4a1 1 0 0 1-1-1 5 5 0 0 1 3.087-4.62M8 4a3 3 0 0 0-2.828 2H8a1 1 0 0 1 1 1v.186a1 1 0 0 1-.8.98 2.73 2.73 0 0 0-1.64 1.042c-.224.3-.388.646-.48 1.02a3 3 0 0 0-.027 1.325l5.446-3.145a1 1 0 0 1 1 0l5.45 3.146.03-.168c.056-.39.036-.784-.056-1.157a2.9 2.9 0 0 0-.481-1.02A2.74 2.74 0 0 0 15.8 8.166a1 1 0 0 1-.8-.98V7a1 1 0 0 1 1-1h2.828q-.026-.075-.056-.148a2.999 2.999 0 0 0-5.37-.352 1 1 0 0 1-.866.5h-1.072a1 1 0 0 1-.866-.5A3 3 0 0 0 8 4m3.549 6.688c-.57 2.604-1.246 6.17-1.472 9.312h3.258A30 30 0 0 1 13 15.5c0-1.791-.017-3.291-.041-4.518l-.96-.554z"/></svg>