<svg xmlns="http://www.w3.org/2000/svg" viewBox="0 0 16 16"><path d="M7.016 5.953c-.418 1.498-1.003 3.816-1.31 6.048h3.858a22 22 0 0 1-.064-1.67v-4.08l2.82 1.629c.319.184.734.075.848-.275q.078-.242.117-.494a3 3 0 0 0-.044-1.15 2.8 2.8 0 0 0-.47-1.02 2.7 2.7 0 0 0-.403-.44h1.019c.368 0 .673-.302.606-.664a3.6 3.6 0 0 0-.195-.676 3.5 3.5 0 0 0-.728-1.135 3.4 3.4 0 0 0-1.089-.759 3.24 3.24 0 0 0-2.57 0A3.35 3.35 0 0 0 8.004 2.41a3.35 3.35 0 0 0-1.408-1.144 3.24 3.24 0 0 0-2.57 0 3.4 3.4 0 0 0-1.09.759c-.311.325-.558.71-.727 1.135a3.6 3.6 0 0 0-.195.676c-.067.362.238.663.606.663h1.014q-.226.197-.405.441c-.222.302-.381.65-.47 1.022a3 3 0 0 0 .073 1.643c.114.35.53.46.848.275zM2 15h12c-.025-.424-.09-.688-.37-.975-.354-.36-.757-.382-1.562-.425-.956-.052-2.318-.1-4.069-.1s-3.112.048-4.067.1c-.805.043-1.208.065-1.561.425-.282.287-.345.551-.371.975"/></svg>