<svg xmlns="http://www.w3.org/2000/svg" viewBox="0 0 24 24"><path d="M11.523 3.464q.26.257.477.547a5 5 0 0 1 2.112-1.63 5.08 5.08 0 0 1 5.495 1.083 5 5 0 0 1 1.376 2.543c.11.54-.348.993-.9.993h-1.828c.353.25.664.556.923.909.332.453.572.974.704 1.533s.154 1.144.066 1.723a5 5 0 0 1-.176.741c-.17.526-.794.688-1.272.412L13.93 9.68c.039 1.426.071 3.351.071 5.821 0 .885.04 1.72.109 2.5H9.26c.365-3.192 1.047-6.504 1.563-8.751L5.5 12.322c-.478.276-1.101.113-1.272-.412a5 5 0 0 1-.175-.741 4.5 4.5 0 0 1 .066-1.724c.132-.56.372-1.08.704-1.533.26-.354.573-.662.928-.912H3.917c-.553 0-1.011-.452-.9-.993a4.97 4.97 0 0 1 1.376-2.543 5.08 5.08 0 0 1 7.13 0M21 22H3c.051-.496.172-.841.537-1.213.53-.54 1.133-.572 2.342-.637 1.436-.077 3.484-.15 6.12-.15s4.686.073 6.122.15c1.209.065 1.813.098 2.342.637.364.372.486.717.537 1.213"/></svg>