<svg xmlns="http://www.w3.org/2000/svg" viewBox="0 0 32 32"><path d="M24.88 12.966c-.22-.08-.41-.407-.788-1.06l-.807-1.395a22.75 22.75 0 0 0-6.035 15.433v.806a1.25 1.25 0 1 1-2.5 0v-.806a25.25 25.25 0 0 1 6.772-17.208l-1.425-.825c-.654-.379-.981-.568-1.06-.789a.64.64 0 0 1 .068-.574c.13-.195.492-.301 1.217-.515l6.19-1.82c.59-.174.884-.26 1.085-.186a.64.64 0 0 1 .378.378c.075.201-.012.496-.185 1.085l-1.821 6.19c-.213.725-.32 1.087-.515 1.217a.64.64 0 0 1-.574.069m-17.76-.004c.22-.08.41-.407.788-1.06l.806-1.392a22.7 22.7 0 0 1 3.508 5.011 1.25 1.25 0 1 0 2.222-1.145 25.2 25.2 0 0 0-3.968-5.642l1.425-.825c.654-.378.98-.568 1.06-.788a.64.64 0 0 0-.068-.574c-.13-.195-.492-.301-1.217-.515L5.49 4.212c-.59-.173-.884-.26-1.084-.185a.64.64 0 0 0-.378.378c-.075.2.012.495.185 1.084l1.82 6.188c.213.724.32 1.086.515 1.216.17.112.382.138.574.069"/></svg>