<svg xmlns="http://www.w3.org/2000/svg" viewBox="0 0 17 17"><path d="M13.032 7.415c-.13-.047-.242-.24-.465-.626l-.43-.743a11.95 11.95 0 0 0-2.841 7.735v.3a.797.797 0 0 1-1.594 0v-.3c0-3.273 1.185-6.425 3.317-8.88l-.81-.469c-.385-.223-.578-.335-.625-.465a.38.38 0 0 1 .04-.339c.077-.115.291-.178.719-.304l3.652-1.074c.348-.102.522-.153.64-.11a.38.38 0 0 1 .223.224c.044.118-.007.292-.109.64l-1.074 3.652c-.126.428-.189.642-.304.718a.38.38 0 0 1-.339.04m-9.065.001c.13-.047.241-.24.465-.626l.43-.743a12 12 0 0 1 1.513 2.26.797.797 0 1 0 1.416-.73A13.5 13.5 0 0 0 5.98 4.9l.81-.469c.385-.223.578-.335.625-.465a.38.38 0 0 0-.04-.338c-.077-.116-.29-.179-.718-.304L3.004 2.25c-.348-.102-.522-.153-.64-.109a.38.38 0 0 0-.223.223c-.044.119.007.292.109.64l1.074 3.652c.126.428.189.642.304.718a.38.38 0 0 0 .339.04"/></svg>