<svg xmlns="http://www.w3.org/2000/svg" viewBox="0 0 24 24"><path fill-rule="evenodd" d="M7.133 6.566c.942-.97 2.306-1.495 3.69-1.26l.848.143q.329.056.658 0l.805-.136c1.417-.24 2.8.317 3.75 1.298.381.394.817.812 1.253 1.169 1.311 1.073 3.19 2.329 3.405 2.472a1.035 1.035 0 0 1-.094 1.775l.002.005-.258.139c-.169.094-.4.23-.645.396-.532.359-.982.757-1.166 1.086-.117.212-.242.45-.374.701-.299.57-.632 1.205-.992 1.741-.552.821-1.289 1.62-2.394 2.04-.94.356-2.135.615-3.621.615-1.485 0-2.68-.258-3.618-.614-1.117-.424-1.84-1.244-2.378-2.063a17 17 0 0 1-.722-1.238l-.078-.143a22 22 0 0 0-.565-1.003c-.248-.407-.727-.817-1.227-1.153a8 8 0 0 0-.613-.374l-.236-.124.001-.004c-.662-.328-.8-1.33-.096-1.788.242-.158 2.227-1.46 3.376-2.45.446-.385.897-.825 1.29-1.23m1.152 4.558c.289.178.557.362.809.535l.02.013c1.051.72 1.81 1.226 2.886 1.226 1.075 0 1.835-.505 2.886-1.226l.02-.013c.253-.174.522-.358.812-.537l-.316-.212-.023-.016c-.374-.252-.69-.465-.97-.618-.258-.141-.38-.17-.403-.176q-.007 0-.003-.001c-.291 0-.43.06-.645.16l-.047.023c-.27.128-.689.326-1.311.326-.62 0-1.038-.198-1.308-.325l-.048-.023c-.216-.1-.355-.161-.647-.161l-.003.001a1.7 1.7 0 0 0-.401.176c-.28.154-.596.367-.97.62l-.017.012q-.155.106-.32.216"/></svg>