<svg xmlns="http://www.w3.org/2000/svg" viewBox="0 0 44 44"><path fill-rule="evenodd" d="M18.99 13.312c-1.184-.195-2.428.235-3.33 1.15a42 42 0 0 1-2.79 2.605 42 42 0 0 1-2.5 1.909q.456.029.879.077c.482-.022.96-.057 1.416-.105.856-.092 1.633-.513 2.667-1.101l.118-.068c.893-.51 2.14-1.22 3.547-1.22.68 0 1.29.162 1.719.276l.092.025c.47.124.806.201 1.191.201.389 0 .725-.078 1.194-.201l.092-.025c.429-.114 1.037-.276 1.717-.276 1.41 0 2.657.709 3.554 1.218l.111.064c1.036.587 1.816 1.01 2.675 1.107.444.05.892.088 1.336.114q.475-.057.994-.089a62 62 0 0 1-2.513-1.882c-.974-.776-1.88-1.657-2.622-2.438-.971-1.022-2.302-1.523-3.55-1.324l-1.953.313a6.5 6.5 0 0 1-2.076-.006zm-8.568 8.785q.352-.007.706-.02c2.052.273 3.298.968 4.458 1.685l.415.261c1.482.934 3.169 1.996 5.998 1.996s4.516-1.062 5.998-1.996l.416-.26c1.144-.709 2.372-1.395 4.375-1.676q.38.02.751.03c-.35.373-.667.777-.914 1.208-.31.542-.586 1.055-.85 1.547-.493.917-.945 1.757-1.5 2.563-.802 1.166-1.654 1.982-2.768 2.398-1.343.5-3.151.902-5.507.902s-4.16-.4-5.504-.9c-1.096-.41-1.92-1.226-2.72-2.412-.401-.596-.774-1.25-1.171-1.963l-.135-.242c-.35-.63-.724-1.301-1.128-1.945a7.7 7.7 0 0 0-.92-1.176m-5.56-.29a1.52 1.52 0 0 1-.155-2.65c.344-.218 4.08-2.594 6.237-4.404a39 39 0 0 0 2.583-2.412c1.526-1.549 3.726-2.37 5.949-2.005l1.968.325c.37.061.748.062 1.118.003l1.953-.312c2.36-.378 4.645.588 6.195 2.22.684.721 1.487 1.497 2.315 2.157 2.452 1.952 5.968 4.234 6.28 4.436a1.52 1.52 0 0 1-.148 2.634l.004.008-.003.002-.022.01a11 11 0 0 0-.464.243 17 17 0 0 0-1.206.72c-.982.645-1.862 1.39-2.237 2.045-.225.392-.46.827-.704 1.282-.542 1.004-1.134 2.103-1.78 3.04-.986 1.434-2.277 2.796-4.192 3.51-1.687.63-3.85 1.091-6.553 1.091s-4.863-.46-6.549-1.089c-1.932-.72-3.198-2.117-4.162-3.548-.48-.713-.908-1.468-1.305-2.18l-.136-.245a40 40 0 0 0-1.046-1.808c-.491-.783-1.415-1.546-2.344-2.154a15 15 0 0 0-1.58-.9l-.02-.009zm12.3-.611a24 24 0 0 0-.795-.474l.353-.2.091-.051c1.078-.613 1.655-.897 2.186-.897.27 0 .527.065 1.048.202.483.127 1.148.3 1.954.3.81 0 1.474-.173 1.957-.3.52-.138.776-.202 1.046-.202.533 0 1.114.283 2.19.893l.1.056.346.196q-.416.236-.8.477l-.405.252c-1.466.916-2.489 1.556-4.434 1.556-1.944 0-2.967-.64-4.433-1.556z"/></svg>