<svg xmlns="http://www.w3.org/2000/svg" viewBox="0 0 16 16"><path fill-rule="evenodd" d="M6.836 3.528a2.35 2.35 0 0 0-2.024.668c-.313.313-.717.695-1.118 1.018-.781.631-2.125 1.459-2.332 1.585a.751.751 0 0 0 .064 1.32l-.001.009.005.003.03.015q.045.02.127.062c.108.056.259.138.422.24.347.22.67.48.832.73.134.205.259.42.394.656l.048.082c.15.258.315.54.5.806.373.536.875 1.08 1.645 1.36.664.242 1.512.418 2.571.418s1.91-.177 2.573-.419c.762-.277 1.273-.806 1.655-1.344.248-.348.481-.763.688-1.132.092-.164.178-.318.259-.453.116-.197.416-.448.787-.683a6 6 0 0 1 .58-.325l.035-.016.007-.003v-.001l-.002-.007a.75.75 0 0 0 .063-1.313c-.188-.118-1.462-.917-2.355-1.601-.393-.302-.786-.67-1.093-.98a2.38 2.38 0 0 0-2.055-.691l-1.023.162a.8.8 0 0 1-.238 0zm3.431 4.07-.13-.08-.102-.063c-.49-.3-.776-.438-1.029-.438-.222 0-.329.018-.427.036l-.035.007A2.7 2.7 0 0 1 8 7.116c-.251 0-.43-.032-.563-.056l-.03-.006a2 2 0 0 0-.41-.037c-.254 0-.54.14-1.031.44l-.1.061-.132.081q.136.1.263.198l.016.012c.6.458 1.056.797 1.987.797s1.387-.339 1.987-.796l.017-.013z"/></svg>