<svg xmlns="http://www.w3.org/2000/svg" viewBox="0 0 44 44"><path fill-rule="evenodd" d="M19.476 10.337c-2.223-.367-4.423.455-5.95 2.004 0 0-1.534 1.514-2.582 2.412-2.265 1.94-6.237 4.404-6.237 4.404a1.52 1.52 0 0 0 .153 2.65l-.002.008v.002l.02.009.086.042q.121.06.345.178c.296.157.704.39 1.149.68.929.608 1.853 1.37 2.344 2.154.358.572.692 1.17 1.046 1.808l.136.244c.397.713.825 1.468 1.305 2.18.964 1.432 2.23 2.829 4.163 3.55 1.685.627 3.846 1.088 6.548 1.088 2.704 0 4.866-.462 6.553-1.091 1.915-.714 3.206-2.076 4.193-3.51.645-.937 1.237-2.036 1.779-3.04.245-.455.48-.89.704-1.282.375-.656 1.255-1.4 2.237-2.045a17 17 0 0 1 1.67-.963l.022-.01.003-.002-.001-.001-.002-.008a1.52 1.52 0 0 0 .147-2.634c-.312-.201-3.828-2.483-6.28-4.435-.828-.66-1.63-1.436-2.315-2.156-1.55-1.633-3.835-2.599-6.195-2.221l-1.953.312a3.5 3.5 0 0 1-1.118-.003zm8.162 10.382-.347-.196-.1-.056c-1.075-.61-1.656-.893-2.189-.893-.27 0-.525.064-1.046.202-.483.127-1.147.3-1.957.3-.806 0-1.471-.173-1.954-.3-.52-.137-.778-.202-1.048-.202-.531 0-1.108.284-2.186.897l-.091.052-.353.2q.412.235.794.473l.405.252c1.466.916 2.489 1.556 4.433 1.556 1.945 0 2.968-.64 4.434-1.556l.405-.252q.384-.24.8-.477"/></svg>