<svg xmlns="http://www.w3.org/2000/svg" viewBox="0 0 24 24"><path fill-rule="evenodd" d="M13.614 14.783a6.3 6.3 0 0 1-1.613.217c-.59 0-1.136-.09-1.614-.217C9.02 14.42 8.3 13.29 8.16 11.932A33 33 0 0 1 8.001 8.5c0-1.498.075-2.647.166-3.493.138-1.272.828-2.36 2.095-2.742A6 6 0 0 1 12 2c.642 0 1.233.112 1.74.265 1.266.381 1.955 1.47 2.093 2.742.092.846.167 1.995.167 3.493 0 1.453-.07 2.585-.158 3.432-.141 1.358-.86 2.487-2.229 2.851M12.001 13c-.388 0-.76-.06-1.1-.15a.8.8 0 0 1-.48-.31c-.116-.155-.231-.418-.273-.815a32 32 0 0 1-.147-3.225c0-1.432.071-2.508.155-3.277.038-.349.143-.594.253-.745a.77.77 0 0 1 .43-.298C11.195 4.072 11.59 4 12 4s.805.072 1.162.18c.203.06.33.162.43.298.11.151.215.396.253.745.083.769.155 1.845.155 3.277 0 1.388-.067 2.451-.148 3.225-.04.397-.157.66-.271.815a.8.8 0 0 1-.482.31c-.34.09-.711.15-1.1.15m-8-1a.967.967 0 0 1 .978-1c.552 0 .998.448 1.024 1l.004.081c.134 2.692.231 3.178.972 3.919.74.74 1.248.837 3.94.972q.541.027 1.08.028c.546 0 1.001.431 1.002.976V21a1 1 0 1 1-2 0v-2.022l-.182-.009h-.007c-2.575-.129-3.887-.194-5.247-1.555-1.362-1.362-1.427-2.653-1.556-5.233zm15.706 5.293a1 1 0 0 0-1.414 0l-.793.793-.793-.793a1 1 0 0 0-1.414 1.414l.793.793-.793.793a1 1 0 0 0 1.414 1.414l.793-.793.793.793a1 1 0 0 0 1.414-1.414l-.793-.793.793-.793a1 1 0 0 0 0-1.414"/></svg>