<svg xmlns="http://www.w3.org/2000/svg" viewBox="0 0 16 16"><path fill-rule="evenodd" d="M10.863 6h-6.3c-.765 0-1.21.012-1.68.353q-.103.075-.21.174c-.538.494-.594.786-.64 1.31l-.01.108A7 7 0 0 0 2 8.5c0 1.053 0 1.712.142 2.188.048.159.11.297.195.423a2 2 0 0 0 .552.552c.253.17.556.253.973.295l.186.016c.047.545.136.883.575 1.327.525.53.984.566 1.903.637C6.994 13.975 7.5 14 8 14s1.006-.025 1.474-.062c.92-.071 1.378-.107 1.902-.637.44-.444.529-.782.576-1.327q.112-.007.215-.019c.402-.043.697-.127.944-.292.218-.146.406-.334.552-.552C14 10.607 14 9.904 14 8.5a7 7 0 0 0-.032-.662c-.047-.524-.102-.816-.64-1.31C12.754 6 12.287 6 11.352 6zM5.52 11.535q-.019-.286-.02-.628V10h5v.907q-.001.341-.02.628c-.014.2-.022.325-.035.43-.035.3-.258.395-.538.429-.143.017-.31.03-.549.049-.44.034-.907.057-1.358.057s-.917-.023-1.358-.057a14 14 0 0 1-.549-.05c-.283-.033-.503-.131-.538-.428a9 9 0 0 1-.035-.43"/><path d="M11.824 4.503c-.07-.77-.16-1.212-.56-1.646-.47-.507-.943-.583-1.892-.736A9 9 0 0 0 8 2c-.453 0-.925.05-1.372.121-.948.153-1.422.229-1.892.736-.4.434-.49.877-.56 1.646q.21-.004.397-.003h6.854q.187 0 .397.003"/></svg>