<svg xmlns="http://www.w3.org/2000/svg" viewBox="0 0 24 24"><path fill-rule="evenodd" d="M17.811 8.283q-.265-.029-.576-.057A56 56 0 0 0 12 8c-2.183 0-3.93.104-5.236.226l-.575.057c-.795.088-1.314.205-1.853.633a4 4 0 0 0-.233.203c-.752.713-.83 1.236-.984 2.282A11 11 0 0 0 3 13c0 1.87 0 2.804.402 3.5A3 3 0 0 0 4.5 17.598c.409.236.9.333 1.613.374.095.849.2 1.33.906 2.019.77.754 1.37.805 2.57.906.713.06 1.53.103 2.411.103s1.698-.043 2.412-.103c1.199-.102 1.799-.152 2.57-.906.705-.69.81-1.17.905-2.02l.114-.006c.652-.044 1.112-.144 1.499-.367a3 3 0 0 0 1.098-1.098C21 15.804 21 14.87 21 13a11 11 0 0 0-.12-1.598c-.134-.915-.21-1.43-.73-2.023a4 4 0 0 0-.252-.26c-.63-.597-1.178-.736-2.087-.836M8 15v1.05c0 .552.03 1.04.075 1.464.028.265.047.43.069.568.074.46.472.697.903.753A27 27 0 0 0 12 19a27 27 0 0 0 2.953-.165c.43-.056.83-.294.903-.753.022-.138.04-.303.069-.568.045-.424.075-.912.075-1.464V15z"/><path d="M17.684 6.26c-.105-.861-.279-1.423-.788-1.974-.704-.761-1.415-.876-2.838-1.104A13 13 0 0 0 12 3c-.68 0-1.388.074-2.057.182-1.423.228-2.135.343-2.838 1.104-.51.551-.683 1.113-.788 1.974l.165-.016.095-.009A58 58 0 0 1 12 6c2.246 0 4.056.107 5.423.235l.094.009z"/></svg>