<svg xmlns="http://www.w3.org/2000/svg" viewBox="0 0 16 16"><path fill-rule="evenodd" d="M9.372 2.121c.949.153 1.423.229 1.892.736.469.508.511 1.029.595 2.07.013.163.026.416.038.595.612.041 1.026.162 1.405.516.576.537.61 1.037.68 2.037.012.166.018.252.018.425 0 1.404 0 2.107-.337 2.611a2 2 0 0 1-.552.552c-.379.253-.852.316-1.668.332-.176 1.278-.987 1.867-2.301 1.963a16 16 0 0 1-2.284 0c-1.314-.096-2.124-.685-2.3-1.963-.817-.016-1.29-.079-1.67-.332a2 2 0 0 1-.55-.552C2 10.607 2 9.904 2 8.5c0-.173.006-.26.018-.426.07-1 .104-1.5.68-2.037.38-.353.793-.474 1.405-.515.013-.179.025-.432.038-.594.084-1.042.126-1.563.596-2.07.469-.508.943-.584 1.891-.737A9 9 0 0 1 8 2c.453 0 .925.05 1.372.121M5.609 5.5h4.783c-.009-.128-.018-.334-.028-.451-.046-.565-.07-.818-.115-.998-.063-.258-.278-.3-.507-.344l-.03-.006c-.154-.03-.334-.06-.578-.099A7 7 0 0 0 8 3.5c-.35 0-.739.039-1.134.102-.244.04-.423.068-.577.099l-.03.006c-.23.044-.445.086-.508.343-.044.181-.07.434-.115.999-.01.117-.018.323-.027.451M5.249 7h5.502c.706 0 1.055.005 1.305.047.306.05.35.25.38.531.019.158.032.342.05.601.009.134.014.186.014.321 0 .733-.002 1.17-.034 1.491-.02.19-.045.27-.054.292a.5.5 0 0 1-.13.13c-.021.008-.1.033-.29.053a6 6 0 0 1-.492.027v-.16c0-.628 0-.942-.195-1.137s-.51-.195-1.138-.195H5.833c-.628 0-.942 0-1.138.195s-.195.51-.195 1.137v.16a6 6 0 0 1-.491-.027 1.2 1.2 0 0 1-.292-.054.5.5 0 0 1-.13-.13 1.2 1.2 0 0 1-.053-.29C3.502 9.67 3.5 9.232 3.5 8.5c0-.136.005-.188.014-.322.018-.258.032-.443.05-.6.031-.282.075-.48.38-.531.25-.042.599-.047 1.304-.047m7.04 3.41-.004.003zM6 10.907q.001.425.03.765c.036.43.156.547.192.579.06.054.248.175.746.211a14.4 14.4 0 0 0 2.064 0c.498-.036.686-.157.746-.211.036-.032.156-.148.191-.578q.03-.342.031-.766V10.5H6z"/></svg>