<svg xmlns="http://www.w3.org/2000/svg" viewBox="0 0 32 32"><path fill-rule="evenodd" d="M27.978 20.258c-.127 2.258-.191 3.386-1.603 4.82-1.187 1.205-2.398 1.47-4.473 1.647q-.075.008-.152.013a1.258 1.258 0 0 1 0-2.512c1.92-.175 2.305-.355 2.844-.903.451-.458.578-.738.657-1.02.12-.427.162-.97.231-2.186a11 11 0 0 0 0-1.234c-.069-1.215-.112-1.76-.231-2.185-.08-.283-.206-.563-.657-1.021-.644-.654-1.068-.784-4.142-1.005A63 63 0 0 0 16 14.5c-1.516 0-3.045.07-4.452.172-3.074.22-3.498.351-4.142 1.005-.451.458-.578.738-.657 1.02-.12.427-.162.97-.231 2.186a11 11 0 0 0 0 1.234c.069 1.215.112 1.76.231 2.185.08.283.206.563.657 1.021.54.548.924.728 2.844.902.69 0 1.25.569 1.25 1.26 0 .69-.56 1.253-1.25 1.253q-.075-.005-.152-.013c-2.075-.177-3.286-.442-4.473-1.648-1.412-1.433-1.476-2.561-1.603-4.819C4 18.5 4 17.083 4 15.5c0-.784.031-1.568.084-2.333.24-3.441.359-5.162 2.119-6.925s3.517-1.888 7.032-2.139A39 39 0 0 1 16 4c.931 0 1.862.039 2.765.103 3.515.25 5.273.376 7.032 2.139s1.88 3.484 2.119 6.925c.053.765.084 1.55.084 2.333 0 1.583 0 3-.022 4.758M13.413 6.597c.854-.06 1.724-.097 2.587-.097s1.733.036 2.587.097c3.686.262 4.444.412 5.441 1.411.983.985 1.139 1.708 1.38 5.137-1.162-.707-2.535-.806-4.777-.967A65 65 0 0 0 16 12c-1.59 0-3.181.074-4.63.178-2.244.161-3.616.26-4.778.967.242-3.429.397-4.152 1.38-5.137.997-.999 1.755-1.149 5.44-1.411"/><path d="M14.833 22.5c-.736 0-1.333.597-1.333 1.333v3.834c0 .736.597 1.333 1.333 1.333h2.334c.736 0 1.333-.597 1.333-1.333v-3.834c0-.736-.597-1.333-1.333-1.333zM22 20a2 2 0 1 0 0-4 2 2 0 0 0 0 4m-12 0a2 2 0 1 0 0-4 2 2 0 0 0 0 4"/></svg>