<svg xmlns="http://www.w3.org/2000/svg" viewBox="0 0 32 32"><path fill-rule="evenodd" d="M4 19.25V15.5c0-.784.031-1.568.084-2.333.24-3.441.359-5.162 2.119-6.925s3.517-1.888 7.032-2.139A39 39 0 0 1 16 4c.931 0 1.862.039 2.765.103 3.515.25 5.273.376 7.032 2.139s1.88 3.484 2.119 6.925c.053.765.084 1.55.084 2.333l-.003 3.75c0 .25-.019.75-.019 1.008-.127 2.258-.191 3.386-1.603 4.82-1.35 1.37-2.73 1.525-5.375 1.717v-1.462a3.833 3.833 0 0 0-3.834-3.833h-2.333A3.833 3.833 0 0 0 11 25.333v1.462c-2.645-.192-4.025-.347-5.375-1.718-1.412-1.433-1.476-2.561-1.603-4.819C4.022 20 4 19.5 4 19.25m9.413-12.653c.854-.06 1.724-.097 2.587-.097s1.733.036 2.587.097c3.686.262 4.444.412 5.441 1.411.983.985 1.139 1.708 1.38 5.137-1.162-.707-2.535-.806-4.777-.967A65 65 0 0 0 16 12c-1.59 0-3.181.074-4.63.178-2.244.161-3.616.26-4.778.967.242-3.429.397-4.152 1.38-5.137.997-.999 1.755-1.149 5.44-1.411M22 20a2 2 0 1 0 0-4 2 2 0 0 0 0 4m-10-2a2 2 0 1 1-4 0 2 2 0 0 1 4 0"/><path d="M13.5 25.333c0-.736.597-1.333 1.333-1.333h2.333c.737 0 1.334.597 1.334 1.333v2.334c0 .736-.597 1.333-1.334 1.333h-2.333a1.333 1.333 0 0 1-1.333-1.333z"/></svg>