<svg xmlns="http://www.w3.org/2000/svg" viewBox="0 0 16 16"><path fill-rule="evenodd" d="M3.598 3.563c.16-.02.33-.038.5-.05a6 6 0 0 1 1.053.021c.122.012.211.021.285.03a15 15 0 0 1 .05.534 6 6 0 0 1-.035 1.19l-.018.145c-.17.022-.35.041-.531.053a6 6 0 0 1-.804 0 8 8 0 0 1-.531-.053 9 9 0 0 1-.053-.531 6 6 0 0 1 .049-1.304l.004-.031zm-1.523-.154c.033-.259.049-.388.136-.574.105-.224.4-.519.624-.624.186-.087.315-.103.574-.136q.28-.037.591-.058a7.7 7.7 0 0 1 1.297.025c.56.055.841.082 1.145.33.054.044.142.132.186.186.248.304.275.584.33 1.145A9 9 0 0 1 7 4.5q0 .253-.017.5a10 10 0 0 1-.068.672 1.5 1.5 0 0 1-.094.415c-.109.277-.457.625-.734.734-.147.058-.236.07-.415.094A10 10 0 0 1 5 6.983a8 8 0 0 1-1 0 10 10 0 0 1-.642-.064c-.208-.028-.313-.041-.474-.11-.257-.108-.585-.436-.694-.693-.068-.161-.081-.266-.109-.474A10 10 0 0 1 2.017 5a7.7 7.7 0 0 1 .058-1.591m1.523 7.154c.16-.02.33-.038.5-.05a6 6 0 0 1 1.053.021c.122.012.211.021.285.03a15 15 0 0 1 .05.534 6 6 0 0 1-.035 1.19l-.018.145c-.17.022-.35.041-.531.053a6.2 6.2 0 0 1-1.335-.053 9 9 0 0 1-.053-.531 6 6 0 0 1 .049-1.304l.004-.031zm-1.523-.154c.033-.259.049-.388.136-.574.105-.224.4-.519.624-.624.186-.087.315-.103.574-.136q.28-.037.591-.058a7.7 7.7 0 0 1 1.297.025c.56.055.841.082 1.145.33.054.044.142.132.186.186.248.304.275.584.33 1.145A9 9 0 0 1 7 11.5q0 .253-.017.5a10 10 0 0 1-.068.672 1.5 1.5 0 0 1-.094.414c-.109.278-.457.626-.734.735-.147.058-.236.07-.415.094a10 10 0 0 1-.672.068 8 8 0 0 1-1 0 10 10 0 0 1-.642-.064c-.208-.028-.313-.042-.474-.11-.257-.108-.585-.436-.694-.693-.068-.161-.081-.266-.109-.474-.026-.2-.05-.418-.064-.642a7.7 7.7 0 0 1 .058-1.591m9.023-6.895a8 8 0 0 0-.5.049l-.031.004-.004.031c-.02.16-.038.33-.05.5a6.2 6.2 0 0 0 .054 1.335c.17.022.35.041.531.053a6 6 0 0 0 .804 0c.182-.012.362-.03.531-.053a10 10 0 0 0 .053-.531 6 6 0 0 0-.02-1.053l-.03-.285a15 15 0 0 0-.534-.05 6 6 0 0 0-.804 0m-1.887-.679c-.087.186-.103.315-.136.574A10 10 0 0 0 9.017 4a8 8 0 0 0 0 1c.015.224.038.441.064.642.028.208.041.313.11.474.108.257.436.585.693.694.161.068.266.081.474.109.2.026.418.05.642.064a8 8 0 0 0 1 0 10 10 0 0 0 .672-.068 1.5 1.5 0 0 0 .414-.094c.278-.109.626-.457.735-.734.058-.147.07-.236.094-.415A11 11 0 0 0 13.983 5a7.6 7.6 0 0 0-.025-1.297c-.055-.56-.082-.841-.33-1.145a2 2 0 0 0-.186-.186c-.304-.248-.584-.275-1.145-.33A9 9 0 0 0 11.5 2a8 8 0 0 0-.5.017 10 10 0 0 0-.591.058c-.259.033-.388.049-.574.136-.224.105-.519.4-.624.624m2.524 8.9c-.184.184-.197.367-.224.733a4 4 0 0 0 0 .564c.027.366.04.549.224.733s.367.197.733.224a4 4 0 0 0 .564 0c.366-.027.549-.04.733-.224s.197-.367.224-.733a4 4 0 0 0 0-.564c-.027-.366-.04-.549-.224-.733s-.367-.197-.733-.224a4 4 0 0 0-.564 0c-.366.027-.549.04-.733.224M10.5 11.25a.75.75 0 0 1 .75-.75h2a.75.75 0 0 0 0-1.5h-2A2.25 2.25 0 0 0 9 11.25v2a.75.75 0 0 0 1.5 0z"/></svg>