<svg xmlns="http://www.w3.org/2000/svg" viewBox="0 0 24 24"><path fill-rule="evenodd" d="M7.5 6q-.247 0-.504.016c-.283.016-.48.028-.646.045a2 2 0 0 0-.254.035c-.01.043-.022.12-.035.254-.017.167-.029.363-.045.646a9 9 0 0 0 0 1.008c.016.283.028.48.045.646.013.134.025.211.035.254.043.01.12.022.254.035.167.017.363.029.646.045a9 9 0 0 0 1.008 0c.283-.016.48-.028.646-.045.134-.013.211-.025.254-.035.01-.043.022-.12.035-.254.017-.167.029-.363.045-.646a9 9 0 0 0 0-1.008c-.016-.283-.028-.48-.045-.646a2 2 0 0 0-.035-.254 2 2 0 0 0-.254-.035 18 18 0 0 0-.646-.045Q7.747 6 7.5 6M4.68 4.68c-.564.564-.597 1.109-.66 2.199a11 11 0 0 0 0 1.242c.063 1.09.096 1.635.66 2.199s1.109.597 2.199.66a11 11 0 0 0 1.242 0c1.09-.063 1.635-.096 2.199-.66s.597-1.109.66-2.199a11 11 0 0 0 0-1.242c-.063-1.09-.096-1.635-.66-2.199s-1.109-.597-2.199-.66a11 11 0 0 0-1.242 0c-1.09.063-1.635.096-2.199.66m11.317 1.336a9 9 0 0 1 1.006 0c.284.016.48.028.647.045.134.013.211.025.254.035.01.043.022.12.035.254.017.167.029.363.045.646a9 9 0 0 1 0 1.008c-.016.283-.028.48-.045.646a2 2 0 0 1-.035.254c-.043.01-.12.022-.254.035-.167.017-.363.029-.646.045a9 9 0 0 1-1.008 0c-.283-.016-.48-.028-.646-.045a2 2 0 0 1-.254-.035 2 2 0 0 1-.035-.254 18 18 0 0 1-.045-.646 9 9 0 0 1 0-1.008c.016-.283.028-.48.045-.646.013-.134.025-.211.035-.254.043-.01.12-.022.254-.035.167-.017.363-.029.646-.045m-2.978.863c.064-1.09.097-1.635.661-2.199s1.11-.597 2.199-.66a11 11 0 0 1 1.243 0c1.089.063 1.634.096 2.198.66s.597 1.109.66 2.199a11 11 0 0 1 0 1.242c-.063 1.09-.096 1.635-.66 2.199s-1.11.597-2.198.66a11 11 0 0 1-1.243 0c-1.09-.063-1.635-.096-2.199-.66s-.597-1.109-.66-2.199a11 11 0 0 1 0-1.242M7.5 15q-.247 0-.504.016c-.283.016-.48.028-.646.045a2 2 0 0 0-.254.035c-.01.043-.022.12-.035.254-.017.167-.029.363-.045.646a9 9 0 0 0 0 1.007c.016.284.028.48.045.647.013.134.025.211.035.254.043.01.12.022.254.035.167.017.363.029.646.045a9 9 0 0 0 1.008 0c.283-.016.48-.028.646-.045a2 2 0 0 0 .254-.035c.01-.043.022-.12.035-.254.017-.167.029-.363.045-.646a9 9 0 0 0 0-1.008c-.016-.283-.028-.48-.045-.646a2 2 0 0 0-.035-.254 2 2 0 0 0-.254-.035 18 18 0 0 0-.646-.045Q7.747 15 7.5 15m-2.82-1.32c-.564.564-.597 1.11-.66 2.199a11 11 0 0 0 0 1.243c.063 1.089.096 1.634.66 2.198s1.109.597 2.199.66a11 11 0 0 0 1.242 0c1.09-.063 1.635-.096 2.199-.66s.597-1.11.66-2.198a11 11 0 0 0 0-1.243c-.063-1.09-.096-1.635-.66-2.199s-1.109-.597-2.199-.66a11 11 0 0 0-1.242 0c-1.09.063-1.635.096-2.199.66m11.323 4.125c.024-.682.035-1.023.407-1.395s.713-.383 1.395-.407a6 6 0 0 1 .39 0c.682.024 1.023.035 1.395.407s.383.713.407 1.395a6 6 0 0 1 0 .39c-.024.682-.035 1.023-.407 1.395s-.713.383-1.395.407a6 6 0 0 1-.39 0c-.682-.024-1.023-.035-1.395-.407s-.383-.713-.407-1.395a6 6 0 0 1 0-.39M15 16a1 1 0 0 1 1-1h3a1 1 0 1 0 0-2h-3a3 3 0 0 0-3 3v3a1 1 0 1 0 2 0z"/></svg>