<svg xmlns="http://www.w3.org/2000/svg" viewBox="0 0 44 44"><path fill-rule="evenodd" d="M16.6 33.75a7.17 7.17 0 0 0 5.4-2.448 7.17 7.17 0 0 0 5.4 2.448c3.976 0 7.2-3.237 7.2-7.23 0-.684-.095-1.345-.27-1.972A7.226 7.226 0 0 0 40 17.481c0-3.994-3.224-7.231-7.2-7.231a7.17 7.17 0 0 0-5.4 2.448A7.17 7.17 0 0 0 22 10.25a7.17 7.17 0 0 0-5.4 2.448 7.17 7.17 0 0 0-5.4-2.448c-3.976 0-7.2 3.237-7.2 7.23a7.226 7.226 0 0 0 5.67 7.068 7.3 7.3 0 0 0-.27 1.971c0 3.994 3.224 7.231 7.2 7.231M22 13.263a4.2 4.2 0 0 0-3.816 2.453 4.2 4.2 0 0 0-.384 1.765 4.2 4.2 0 0 0 .508 2.012 4.2 4.2 0 0 0 3.659 2.206h.066a4.2 4.2 0 0 0 3.783-2.454 4.2 4.2 0 0 0 .384-1.764c0-.63-.137-1.228-.384-1.765A4.2 4.2 0 0 0 22 13.263m-7.108 6.23a4.2 4.2 0 0 1-3.658 2.206H11.2c-2.32 0-4.2-1.889-4.2-4.218q0-.219.022-.432a4.207 4.207 0 0 1 4.178-3.786 4.2 4.2 0 0 1 3.816 2.453c.246.537.384 1.135.384 1.765a4.2 4.2 0 0 1-.508 2.012m-1.984 5.014a4.2 4.2 0 0 0-.508 2.012c0 2.33 1.88 4.218 4.2 4.218a4.2 4.2 0 0 0 3.816-2.453 4.2 4.2 0 0 0 .384-1.765 4.2 4.2 0 0 0-.508-2.012 4.2 4.2 0 0 0-3.659-2.206h-.067a4.2 4.2 0 0 0-3.658 2.206m16.2-5.014a4.2 4.2 0 0 0 3.659 2.206h.033c2.32 0 4.2-1.889 4.2-4.218q0-.219-.022-.432a4.207 4.207 0 0 0-4.178-3.786 4.2 4.2 0 0 0-3.816 2.453 4.2 4.2 0 0 0-.384 1.765 4.2 4.2 0 0 0 .508 2.012m1.984 5.014c.324.598.508 1.284.508 2.012 0 2.33-1.88 4.218-4.2 4.218a4.2 4.2 0 0 1-3.816-2.453 4.2 4.2 0 0 1-.384-1.765 4.2 4.2 0 0 1 .508-2.012 4.2 4.2 0 0 1 3.659-2.206h.066a4.2 4.2 0 0 1 3.659 2.206"/></svg>