<svg xmlns="http://www.w3.org/2000/svg" viewBox="0 0 24 24"><path fill-rule="evenodd" d="M6 11.5q.205 0 .4-.04A2 2 0 0 0 8 9.5a2 2 0 1 0-2 2m-4-2c0 1.918 1.35 3.52 3.15 3.91q-.149.521-.15 1.09a4 4 0 0 0 7 2.646 4 4 0 0 0 6.85-3.736A4.001 4.001 0 0 0 18 5.5a4 4 0 0 0-3 1.354A4 4 0 0 0 12 5.5a4 4 0 0 0-3 1.354A4 4 0 0 0 2 9.5m5 5a1.999 1.999 0 1 1 4 0 2 2 0 1 1-4 0m3.458-3.726a2 2 0 1 1 3.083-2.548 2 2 0 0 1-3.083 2.548m6 0a2 2 0 1 1 3.083-2.548 2 2 0 0 1-3.083 2.548m.084 2.452A2 2 0 0 0 13 14.5a2 2 0 1 0 3.542-1.274"/></svg>