<svg xmlns="http://www.w3.org/2000/svg" viewBox="0 0 16 16"><path fill-rule="evenodd" d="M14 5.92v.165q.003.127.002.263V8q0 .191-.002.377a4 4 0 1 0-4.533 6.568 20 20 0 0 1-3.43-.042c-1.336-.131-2.004-.197-2.848-1.039s-.91-1.51-1.044-2.848A30 30 0 0 1 2.002 8c0-1.165.058-2.17.143-3.015.133-1.339.2-2.008 1.044-2.85s1.512-.907 2.85-1.038A20 20 0 0 1 8.001 1h.515c.397-.001.724-.008 1.079.197.33.19.961.73 2.198 1.929a21 21 0 0 1 1.928 2.12l.122.152c.091.108.13.277.147.483a.1.1 0 0 1 .009.04M9.002 3q0-.194.009-.385.134.103.358.299c.325.283.77.697 1.38 1.289.818.792 1.332 1.4 1.647 1.788Q12.2 6 12.002 6c-.69 0-1.378-.089-1.883-.175-.366-.062-.548-.093-.698-.244-.15-.15-.182-.332-.244-.698A11.6 11.6 0 0 1 9.002 3"/><path fill-rule="evenodd" d="M13.717 12.657a2.5 2.5 0 1 0-1.06 1.06l.563.564a.75.75 0 1 0 1.06-1.062zM11.5 12.5a1 1 0 1 0 0-2 1 1 0 0 0 0 2"/></svg>