<svg xmlns="http://www.w3.org/2000/svg" viewBox="0 0 16 16"><path fill-rule="evenodd" d="M13.989 5.881c-.016-.206-.056-.375-.147-.483l-.122-.152c-.279-.35-.886-1.11-1.928-2.12-1.237-1.2-1.867-1.738-2.198-1.93C9.231.988 8.896 1.002 8.49 1H8q-.162 0-.32.003h-.006c-.581.01-1.131.045-1.638.094-1.337.13-2.005.196-2.849 1.038s-.91 1.511-1.044 2.85C2.059 5.829 2 6.835 2 8s.059 2.171.143 3.016c.134 1.338.2 2.007 1.044 2.848.844.842 1.512.908 2.848 1.039A20 20 0 0 0 8.25 15a.75.75 0 0 0 0-1.5v-.002a19 19 0 0 1-2.069-.088c-.716-.07-1.045-.11-1.305-.19-.18-.058-.356-.144-.63-.417-.273-.273-.36-.448-.417-.629-.082-.26-.122-.59-.194-1.307A29 29 0 0 1 3.5 8c0-1.115.056-2.07.135-2.866.072-.718.112-1.048.194-1.308.057-.181.144-.356.418-.63.273-.272.448-.359.629-.415.26-.082.59-.121 1.306-.191q.626-.062 1.33-.083Q7.5 2.75 7.5 3c0 .806.103 1.586.196 2.135l.01.065c.042.27.142.932.652 1.442s1.171.61 1.442.652l.065.01c.549.093 1.33.196 2.135.196q.253 0 .5-.012v.262a.75.75 0 0 0 1.5 0V6.349l-.001-.264-.001-.164a.1.1 0 0 0-.009-.04m-3.872-.056A11.6 11.6 0 0 0 12 6q.199 0 .394-.01a20 20 0 0 0-1.646-1.787 38 38 0 0 0-1.38-1.29 9 9 0 0 0-.36-.298A9 9 0 0 0 9 3c0 .689.089 1.378.175 1.883.062.366.093.548.244.698.15.15.332.182.698.244"/><path fill-rule="evenodd" d="M13.717 12.657a2.5 2.5 0 1 0-1.06 1.06l.563.564a.75.75 0 1 0 1.06-1.062zM11.5 12.5a1 1 0 1 0 0-2 1 1 0 0 0 0 2"/></svg>