<svg xmlns="http://www.w3.org/2000/svg" viewBox="0 0 16 16"><path d="M11.917 6.916c-.195.195-.21.389-.238.776a4 4 0 0 0 0 .616c.029.387.043.58.238.775.194.195.388.21.776.238a4 4 0 0 0 .615 0c.388-.029.581-.043.776-.238.194-.194.209-.388.238-.775a4 4 0 0 0 0-.616c-.03-.387-.044-.581-.238-.776-.195-.194-.388-.209-.776-.237a4 4 0 0 0-.615 0c-.388.028-.582.043-.776.237m-10.238.776c.029-.387.043-.581.238-.775.194-.195.388-.21.776-.238a4 4 0 0 1 .615 0c.388.029.581.043.776.238.194.194.209.388.238.775a4 4 0 0 1 0 .616c-.03.387-.044.581-.238.776-.195.194-.388.209-.776.237a4 4 0 0 1-.615 0c-.388-.028-.582-.043-.776-.237-.195-.195-.21-.389-.238-.776a4 4 0 0 1 0-.616m5.001 0c.028-.387.042-.581.237-.775s.388-.21.776-.238a4 4 0 0 1 .615 0c.388.029.581.043.776.238.194.194.209.388.238.775a4 4 0 0 1 0 .616c-.03.387-.044.581-.238.776-.195.194-.388.209-.776.237a4 4 0 0 1-.615 0c-.388-.028-.582-.043-.776-.237-.195-.195-.21-.389-.238-.776a4 4 0 0 1 0-.616"/></svg>