<svg xmlns="http://www.w3.org/2000/svg" viewBox="0 0 24 24"><path d="M3.018 11.538c.043-.58.065-.872.357-1.163.291-.292.582-.314 1.163-.357a6 6 0 0 1 .924 0c.58.043.872.065 1.163.357.292.291.314.582.357 1.163a6 6 0 0 1 0 .924c-.043.58-.065.872-.357 1.163-.291.292-.582.314-1.163.357a6 6 0 0 1-.924 0c-.58-.043-.872-.065-1.163-.357-.292-.291-.314-.582-.357-1.163a6 6 0 0 1 0-.924m7 0c.043-.58.065-.872.357-1.163.291-.292.582-.314 1.163-.357a6 6 0 0 1 .924 0c.58.043.872.065 1.163.357.292.291.314.582.357 1.163a6 6 0 0 1 0 .924c-.043.58-.065.872-.357 1.163-.291.292-.582.314-1.163.357a6 6 0 0 1-.924 0c-.58-.043-.872-.065-1.163-.357-.292-.291-.314-.582-.357-1.163a6 6 0 0 1 0-.924m7.357-1.163c-.292.291-.314.582-.357 1.163a6 6 0 0 0 0 .924c.043.58.065.872.357 1.163.291.292.582.314 1.163.357a6 6 0 0 0 .924 0c.58-.043.872-.065 1.163-.357.292-.291.314-.582.357-1.163a6 6 0 0 0 0-.924c-.043-.58-.065-.872-.357-1.163-.291-.292-.582-.314-1.163-.357a6 6 0 0 0-.924 0c-.58.043-.872.065-1.163.357"/></svg>