<svg xmlns="http://www.w3.org/2000/svg" viewBox="0 0 32 32"><path d="M4.023 15.423c.054-.727.08-1.09.445-1.455.365-.364.728-.391 1.455-.445a8 8 0 0 1 1.154 0c.727.054 1.09.08 1.455.445.364.365.391.728.445 1.455a8 8 0 0 1 0 1.154c-.054.727-.08 1.09-.445 1.455-.365.364-.728.391-1.455.445a8 8 0 0 1-1.154 0c-.727-.054-1.09-.08-1.455-.445-.364-.365-.391-.728-.445-1.455a8 8 0 0 1 0-1.154m9.5 0c.054-.727.08-1.09.445-1.455.365-.364.728-.391 1.455-.445a8 8 0 0 1 1.154 0c.727.054 1.09.08 1.455.445.364.365.391.728.445 1.455a8 8 0 0 1 0 1.154c-.054.727-.08 1.09-.445 1.455-.365.364-.728.391-1.455.445a8 8 0 0 1-1.154 0c-.727-.054-1.09-.08-1.455-.445-.364-.365-.391-.728-.445-1.455a8 8 0 0 1 0-1.154m9.5 0c.054-.727.08-1.09.445-1.455.365-.364.728-.391 1.455-.445a8 8 0 0 1 1.154 0c.727.054 1.09.08 1.455.445.364.365.391.728.445 1.455a8 8 0 0 1 0 1.154c-.054.727-.08 1.09-.445 1.455-.365.364-.728.391-1.455.445a8 8 0 0 1-1.154 0c-.727-.054-1.09-.08-1.455-.445-.364-.365-.391-.728-.445-1.455a8 8 0 0 1 0-1.154"/></svg>