<svg xmlns="http://www.w3.org/2000/svg" viewBox="0 0 16 16"><path fill-rule="evenodd" d="M3.12 3.124c-.875.875-.94 1.747-1.07 3.491-.034.452-.054.919-.054 1.385s.02.933.054 1.385c.13 1.744.195 2.616 1.07 3.491s1.747.94 3.491 1.07c.452.034.919.054 1.385.054s.933-.02 1.385-.054c1.744-.13 2.616-.195 3.491-1.07s.94-1.747 1.07-3.491c.034-.452.054-.919.054-1.385s-.02-.933-.054-1.385c-.13-1.744-.195-2.616-1.07-3.491s-1.747-.94-3.491-1.07A19 19 0 0 0 7.996 2c-.466 0-.933.02-1.385.054-1.744.13-2.616.195-3.49 1.07m4.876 1.877a2 2 0 1 0 0 4 2 2 0 0 0 0-4m4.306 5.735c-1.755-.443-2.739-.67-3.74-.72a11 11 0 0 0-1.13 0c-1 .05-1.985.277-3.742.72.093.6.222.81.49 1.08.421.42.698.497 2.543.634.421.031.85.05 1.273.05s.852-.019 1.274-.05c1.844-.137 2.121-.214 2.542-.635.268-.269.397-.479.49-1.079"/></svg>