<svg xmlns="http://www.w3.org/2000/svg" viewBox="0 0 32 32"><path fill-rule="evenodd" d="M6.244 6.248c-1.75 1.75-1.88 3.494-2.14 6.982A38 38 0 0 0 3.996 16c0 .933.04 1.865.108 2.77.26 3.488.39 5.232 2.14 6.982s3.495 1.88 6.983 2.14c.904.067 1.836.108 2.77.108.932 0 1.864-.04 2.769-.108 3.488-.26 5.232-.39 6.982-2.14s1.88-3.494 2.14-6.982c.067-.905.108-1.837.108-2.77s-.04-1.865-.108-2.77c-.26-3.488-.39-5.232-2.14-6.982s-3.494-1.88-6.982-2.14A38 38 0 0 0 15.996 4c-.933 0-1.865.04-2.77.108-3.487.26-5.231.39-6.982 2.14m9.752 2.751a4.501 4.501 0 1 0 0 9.002 4.501 4.501 0 0 0 0-9.002m9.1 12.598c-3.818-.967-5.875-1.464-7.967-1.569a23 23 0 0 0-2.26 0c-2.091.104-4.15.601-7.973 1.57.198 1.228.489 1.76 1.116 2.387.992.992 1.744 1.142 5.4 1.414.853.063 1.723.101 2.584.101s1.731-.038 2.584-.101c3.656-.272 4.408-.422 5.4-1.415.627-.627.918-1.158 1.116-2.387"/></svg>