<svg xmlns="http://www.w3.org/2000/svg" viewBox="0 0 32 32"><path fill-rule="evenodd" d="M15 6.502c-.862 0-1.732.037-2.585.1-3.655.273-4.407.423-5.4 1.415-.991.992-1.141 1.744-1.414 5.4a35 35 0 0 0-.1 2.584c0 .86.037 1.73.1 2.583.273 3.656.423 4.408 1.415 5.4s1.744 1.142 5.4 1.415c.852.063 1.722.1 2.583.1s1.731-.037 2.584-.1c3.656-.273 4.408-.423 5.4-1.415.287-.287.665-.484 1.07-.484h.088c1.005 0 1.688 1.008 1.044 1.779a7 7 0 0 1-.434.473c-1.75 1.75-3.495 1.88-6.982 2.14-.904.067-1.837.108-2.77.108a38 38 0 0 1-2.769-.108c-3.488-.26-5.232-.39-6.982-2.14s-1.88-3.494-2.14-6.982A38 38 0 0 1 3 16c0-.932.041-1.864.108-2.769.26-3.487.39-5.231 2.14-6.982 1.75-1.75 3.494-1.88 6.982-2.14A38 38 0 0 1 15 4.003c.932 0 1.865.04 2.769.108 3.487.26 5.231.39 6.982 2.14q.234.234.432.47c.645.772-.039 1.78-1.044 1.78h-.088c-.405 0-.782-.196-1.068-.483-.992-.992-1.744-1.142-5.4-1.414A35 35 0 0 0 15 6.502M22.237 21.5a1.251 1.251 0 0 1-.631-2.324l.49-.294a99 99 0 0 0 2.667-1.633H13.25a1.25 1.25 0 1 1 0-2.5h11.511a100 100 0 0 0-2.663-1.63l-.491-.295a1.25 1.25 0 0 1 1.286-2.144l.52.312C27.138 13.227 29 14.344 29 16.001c0 1.655-1.86 2.77-5.579 5.002l-.528.317c-.21.127-.436.183-.655.18"/></svg>