<svg xmlns="http://www.w3.org/2000/svg" viewBox="0 0 44 44"><path fill-rule="evenodd" d="m35.264 13.673.117.067c-.357-1.876-1.003-3.281-2.421-4.7-2.428-2.428-4.819-2.592-9.6-2.92A49 49 0 0 0 20 6c-1.13 0-2.26.045-3.36.12-4.781.328-7.171.492-9.6 2.92s-2.592 4.82-2.92 9.6A49 49 0 0 0 4 22c0 1.13.045 2.26.12 3.36.328 4.781.492 7.172 2.92 9.6s4.819 2.592 9.6 2.92c1.1.075 2.23.12 3.36.12s2.26-.045 3.36-.12c4.781-.328 7.172-.492 9.6-2.92 1.418-1.418 2.064-2.824 2.421-4.7l-.117.067a56 56 0 0 1-1.034.583l-.066.036-.02.01-.007.004-.002.001-.002.001a4.5 4.5 0 0 1-6.606-4.462H17.5a4.5 4.5 0 1 1 0-9h10.028a4.5 4.5 0 0 1 6.606-4.462h.001l.002.002.007.004.02.01.066.036a49 49 0 0 1 1.034.582m-4.585 2.616a1.5 1.5 0 0 1 2.032-.61l.002.002.005.002.016.008.058.032a40 40 0 0 1 .973.548c.624.36 1.462.86 2.306 1.411.834.545 1.717 1.17 2.407 1.78.343.303.682.641.947.998.232.313.575.858.575 1.54s-.343 1.227-.575 1.54a6.8 6.8 0 0 1-.947.998c-.69.61-1.573 1.235-2.407 1.78a50 50 0 0 1-3.279 1.959l-.058.032-.016.008-.005.003h-.001a1.5 1.5 0 0 1-1.423-2.64l.003-.002.012-.007.05-.027.197-.109a47 47 0 0 0 2.878-1.728q.234-.153.461-.307H17.5a1.5 1.5 0 1 1 0-3h17.39q-.226-.153-.46-.307a47 47 0 0 0-3.076-1.837l-.05-.027-.012-.007-.003-.001a1.5 1.5 0 0 1-.61-2.032"/></svg>