<svg xmlns="http://www.w3.org/2000/svg" viewBox="0 0 44 44"><path fill-rule="evenodd" d="M20 35a47 47 0 0 0 3.156-.113c4.974-.341 6.17-.535 7.683-2.048l.15-.154c.384-.404.9-.685 1.458-.685 1.192 0 1.995 1.2 1.254 2.133a10 10 0 0 1-.741.827c-2.428 2.428-4.819 2.592-9.6 2.92-1.1.075-2.23.12-3.36.12s-2.26-.045-3.36-.12c-4.781-.328-7.171-.492-9.6-2.92s-2.592-4.819-2.92-9.6A49 49 0 0 1 4 22c0-1.13.045-2.26.12-3.36.328-4.78.492-7.171 2.92-9.6s4.819-2.592 9.6-2.92C17.74 6.046 18.87 6 20 6s2.26.045 3.36.12c4.781.328 7.172.492 9.6 2.92q.41.412.74.827c.742.933-.062 2.133-1.254 2.133-.558 0-1.073-.281-1.458-.685l-.15-.153c-1.512-1.513-2.708-1.707-7.683-2.048A46 46 0 0 0 20 9c-1.051 0-2.112.042-3.155.114-4.975.34-6.17.535-7.683 2.048s-1.708 2.708-2.049 7.683A46 46 0 0 0 7 22c0 1.052.042 2.112.113 3.156.341 4.974.536 6.17 2.049 7.683s2.708 1.707 7.682 2.048C17.889 34.958 18.95 35 20 35m10.68-18.71a1.5 1.5 0 0 1 2.031-.61l.002.002.005.002.016.008.058.032a43 43 0 0 1 .973.548c.624.36 1.462.86 2.306 1.411.834.545 1.717 1.17 2.407 1.78.343.303.682.641.947.998.232.313.575.858.575 1.54s-.343 1.227-.575 1.54a6.8 6.8 0 0 1-.947.998c-.69.61-1.573 1.235-2.407 1.78a50 50 0 0 1-3.279 1.959l-.058.032-.016.008-.005.003h-.001l.006-.003-.006.003a1.5 1.5 0 0 1-1.423-2.64l.003-.002.012-.007.05-.027.198-.109a49 49 0 0 0 2.877-1.728q.234-.153.461-.307H17.5a1.5 1.5 0 1 1 0-3h17.39q-.226-.153-.46-.307a47 47 0 0 0-3.076-1.837l-.05-.027-.012-.007-.003-.001a1.5 1.5 0 0 1-.61-2.032"/></svg>