<svg xmlns="http://www.w3.org/2000/svg" viewBox="0 0 16 16"><path fill-rule="evenodd" d="M7 3.501c-.424 0-.855.019-1.277.05-1.843.138-2.12.215-2.539.634s-.496.696-.634 2.54c-.03.421-.05.851-.05 1.275s.019.855.05 1.278c.138 1.843.215 2.12.634 2.539s.696.496 2.539.633c.422.032.853.05 1.277.05.425 0 .855-.018 1.278-.05 1.216-.09 1.75-.155 2.093-.309a.8.8 0 0 0 .172-.11c.198-.164.43-.282.688-.282h.018c.66 0 1.095.661.628 1.128-.874.874-1.745.94-3.488 1.07-.453.033-.921.054-1.389.054s-.935-.02-1.389-.055c-1.742-.13-2.613-.195-3.488-1.069-.874-.874-.939-1.745-1.069-3.488A19 19 0 0 1 1 8.001c0-.467.02-.935.054-1.389.13-1.742.195-2.613 1.07-3.487.874-.874 1.745-.94 3.487-1.07.454-.033.921-.054 1.39-.054.467 0 .935.02 1.388.055 1.743.13 2.614.195 3.488 1.069.466.465.03 1.125-.63 1.125-.254 0-.489-.113-.694-.263A1.4 1.4 0 0 0 10 3.744c-.351-.078-.869-.129-1.722-.193-.423-.031-.853-.05-1.278-.05m5.136 7.048a.75.75 0 0 1-.772-1.286l.056-.034c.314-.188.555-.333.731-.48H6.75a.75.75 0 0 1 0-1.5h5.4c-.176-.146-.417-.29-.73-.478l-.056-.033a.75.75 0 1 1 .772-1.287l.056.034C14.064 6.608 15 7.17 15 8s-.936 1.392-2.808 2.516z"/></svg>