<svg xmlns="http://www.w3.org/2000/svg" viewBox="0 0 32 32"><path fill-rule="evenodd" d="M3.108 13.231c.26-3.487.39-5.231 2.14-6.982 1.75-1.75 3.494-1.88 6.982-2.14A38 38 0 0 1 15 4.003c.932 0 1.865.04 2.769.108 3.487.26 5.231.39 6.982 2.14 1.322 1.322 1.72 2.641 1.947 4.712l-.211-.139a35 35 0 0 0-2.846-1.655l-.054-.028-.017-.009-.008-.004A3 3 0 0 0 19.45 13H13a3 3 0 1 0 0 6h6.45a3 3 0 0 0 4.112 3.873h.001l.002-.002.005-.002.017-.009.054-.028a31 31 0 0 0 .846-.456 35 35 0 0 0 2.211-1.338c-.227 2.072-.624 3.39-1.947 4.714-1.75 1.75-3.495 1.88-6.982 2.14-.904.067-1.837.108-2.77.108a38 38 0 0 1-2.769-.108c-3.488-.26-5.232-.39-6.982-2.14s-1.88-3.494-2.14-6.982A38 38 0 0 1 3 16c0-.932.041-1.864.108-2.769m19.13 8.269a1.251 1.251 0 0 1-.63-2.324l.49-.295a101 101 0 0 0 2.666-1.632H13.25a1.25 1.25 0 1 1 0-2.5h11.511c-.683-.442-1.553-.965-2.663-1.631l-.49-.295a1.25 1.25 0 0 1 1.285-2.143l.52.312C27.139 13.226 29 14.344 29 16c0 1.655-1.86 2.771-5.579 5.003l-.528.317c-.21.126-.436.182-.655.18"/></svg>