<svg xmlns="http://www.w3.org/2000/svg" viewBox="0 0 24 24"><path fill-rule="evenodd" d="M18.85 7.106c.26.147.598.344.968.57-.184-1.25-.52-2.118-1.39-2.989-1.314-1.312-2.622-1.41-5.238-1.604A28 28 0 0 0 11.113 3c-.7 0-1.399.031-2.077.082-2.616.194-3.924.292-5.237 1.604S2.39 7.308 2.194 9.924c-.05.678-.08 1.378-.08 2.078 0 .699.03 1.398.08 2.077.195 2.616.292 3.924 1.605 5.236 1.313 1.313 2.62 1.41 5.237 1.605.678.05 1.378.081 2.077.081s1.4-.03 2.077-.08c2.616-.195 3.924-.293 5.237-1.605.871-.872 1.207-1.74 1.392-2.992a38 38 0 0 1-1.361.79l-.113.062-.031.017-.014.007a2.5 2.5 0 0 1-3.636-2.7h-4.55a2.5 2.5 0 1 1 0-5h4.55A2.5 2.5 0 0 1 18.3 6.8l.014.007.031.017a29 29 0 0 1 .505.282m-1.335 8.831a1 1 0 0 1-1.03-1.715l.274-.164c.7-.42 1.27-.764 1.737-1.059H10a1 1 0 1 1 0-2h8.493a92 92 0 0 0-1.734-1.057l-.274-.164a1 1 0 0 1 1.03-1.715l.273.164C20.596 9.912 22 10.754 22 12s-1.404 2.088-4.212 3.773z"/></svg>