<svg xmlns="http://www.w3.org/2000/svg" viewBox="0 0 16 16"><path fill-rule="evenodd" d="M1.054 6.612C1.184 4.87 1.25 4 2.124 3.125c.874-.874 1.745-.94 3.487-1.07.454-.033.921-.054 1.39-.054.467 0 .935.02 1.388.055 1.743.13 2.614.195 3.488 1.069.453.453.688.905.829 1.477l-.014-.007-.007-.005h-.002l-.001-.002a1.75 1.75 0 0 0-2.626 1.662H6.6a1.75 1.75 0 1 0 0 3.5h3.456a1.75 1.75 0 0 0 2.626 1.662l.001-.001.002-.002.007-.004.014-.008a2.95 2.95 0 0 1-.829 1.481c-.874.874-1.745.94-3.488 1.07-.453.033-.921.054-1.389.054s-.935-.02-1.389-.055c-1.742-.13-2.613-.195-3.488-1.069-.874-.874-.939-1.745-1.069-3.488A19 19 0 0 1 1 8.001c0-.467.02-.935.054-1.389m11.082 3.937a.75.75 0 0 1-.772-1.286l.056-.034c.314-.188.555-.333.731-.48H6.75a.75.75 0 0 1 0-1.5h5.4c-.176-.146-.417-.29-.73-.478l-.056-.033a.75.75 0 1 1 .772-1.287l.056.034C14.064 6.608 15 7.17 15 8s-.936 1.392-2.808 2.516z"/></svg>