<svg xmlns="http://www.w3.org/2000/svg" viewBox="0 0 24 24"><path fill-rule="evenodd" d="M7.945 4.168C9.098 4.068 10.45 4 12 4s2.901.068 4.054.168c2.025.175 3.038.263 4.327 1.557s1.37 2.265 1.532 4.207q.071.839.085 1.766c-.738-.47-1.473-.525-2.649-.613A31 31 0 0 0 17 11c-.873 0-1.657.033-2.35.085-1.568.117-2.352.176-3.404 1.238s-1.102 1.835-1.203 3.38a20 20 0 0 0 0 2.595c.044.675.078 1.203.191 1.672a44 44 0 0 1-2.29-.138c-2.023-.175-3.035-.263-4.325-1.557S2.25 16.01 2.087 14.07a25 25 0 0 1 0-4.14c.162-1.94.243-2.911 1.532-4.205s2.302-1.382 4.326-1.557M5.5 12.002c-.89 0-1.337-1.077-.707-1.707a1 1 0 0 1 .707-.293H6q.329.001.586-.004v-.002L5.293 8.703a1 1 0 0 1 1.414-1.414l1.29 1.29Q8 8.323 8 8.001v-.5a1 1 0 0 1 .293-.707c.63-.63 1.707-.184 1.707.707v2.5c0 .943 0 1.414-.293 1.707s-.764.293-1.707.293zm8.973 1.132A23 23 0 0 1 17 13c1.011 0 1.854.058 2.526.134.83.093 1.244.14 1.738.629.493.489.542.893.641 1.703.056.458.095.977.095 1.534s-.039 1.076-.095 1.534c-.099.81-.148 1.214-.642 1.703-.493.489-.907.536-1.736.63-.673.075-1.516.133-2.527.133s-1.854-.058-2.527-.134c-.829-.093-1.243-.14-1.736-.629-.493-.488-.543-.893-.642-1.702A13 13 0 0 1 12 17c0-.558.039-1.076.095-1.535.1-.809.149-1.213.642-1.702s.907-.536 1.736-.63"/></svg>