<svg xmlns="http://www.w3.org/2000/svg" viewBox="0 0 16 16"><path fill-rule="evenodd" d="M8 4.5c-1.214 0-2.242.055-3.082.13-.7.063-1.016.098-1.263.173-.165.05-.319.124-.564.368-.263.261-.332.41-.374.54-.067.206-.099.469-.16 1.11a12.4 12.4 0 0 0 0 2.358c.061.641.093.904.16 1.11.042.13.111.279.374.54.245.244.4.318.564.368.247.075.564.11 1.263.173a32 32 0 0 0 1.351.09c.407.02.731.351.731.758a.74.74 0 0 1-.769.743 33 33 0 0 1-1.448-.098c-1.3-.116-1.95-.175-2.75-.97-.8-.796-.857-1.388-.97-2.571a14 14 0 0 1 0-2.644c.113-1.183.17-1.775.97-2.57.8-.796 1.45-.855 2.75-.972A36 36 0 0 1 8 3c1.259 0 2.332.057 3.216.136 1.3.117 1.951.176 2.751.972s.857 1.388.97 2.572q.026.277.042.57a.72.72 0 0 1-.729.75.79.79 0 0 1-.773-.75q-.014-.22-.034-.428c-.06-.642-.093-.905-.16-1.111-.042-.13-.11-.279-.373-.54-.246-.244-.4-.318-.565-.368-.247-.075-.564-.11-1.263-.173-.84-.075-1.869-.13-3.082-.13M3.972 7.975A.747.747 0 0 0 4.5 9.25h1.506c.67 0 1.004 0 1.225-.191a1 1 0 0 0 .078-.078c.191-.22.191-.555.191-1.225V6.295a.747.747 0 1 0-1.494 0q0 .223-.002.399L5.28 5.97a.75.75 0 0 0-1.06 1.06l.724.724q-.176.002-.4.002H4.5a.75.75 0 0 0-.528.22M11.5 9c-.66 0-1.216.031-1.67.074-.627.059-.94.088-1.321.466-.381.377-.411.664-.471 1.237a7 7 0 0 0 0 1.446c.06.573.09.86.47 1.237.382.378.695.407 1.322.466.454.043 1.01.074 1.67.074s1.216-.031 1.67-.074c.627-.059.94-.088 1.322-.466.38-.377.41-.664.47-1.237a7 7 0 0 0 0-1.446c-.06-.573-.09-.86-.47-1.237-.382-.378-.695-.407-1.322-.466A18 18 0 0 0 11.5 9"/></svg>