<svg xmlns="http://www.w3.org/2000/svg" viewBox="0 0 24 24"><path fill-rule="evenodd" d="M12 6c-1.492 0-2.786.065-3.882.16-1.078.094-1.602.149-2.022.278-.312.097-.613.25-1.06.699-.458.46-.606.755-.696 1.043-.123.394-.173.879-.26 1.916a23 23 0 0 0 0 3.808c.087 1.037.137 1.523.26 1.916.09.288.238.584.696 1.043.447.449.748.602 1.06.698.42.13.943.185 2.022.279q.44.038.923.07c.536.033.959.473.959 1.01a.984.984 0 0 1-1.04.988 43 43 0 0 1-1.015-.076c-2.024-.175-3.036-.263-4.326-1.557S2.25 16.01 2.087 14.07a25 25 0 0 1 0-4.14c.162-1.94.243-2.911 1.532-4.205s2.302-1.382 4.326-1.557C9.098 4.068 10.45 4 12 4s2.901.068 4.054.168c2.025.175 3.038.263 4.327 1.557s1.37 2.265 1.532 4.207l.002.026a.97.97 0 0 1-.98 1.042h-.053a.975.975 0 0 1-.962-.902c-.086-1.038-.137-1.524-.26-1.918-.09-.288-.238-.584-.696-1.043-.447-.449-.747-.602-1.06-.699-.42-.13-.944-.184-2.023-.278A45 45 0 0 0 12 6m-4.998 7.502c-.891 0-1.337-1.077-.707-1.707a1 1 0 0 1 .707-.293h.5q.329.001.586-.004v-.002l-1.293-1.293a1 1 0 0 1 1.414-1.414l1.29 1.29q.004-.255.003-.577v-.5a1 1 0 0 1 .293-.707c.63-.63 1.707-.184 1.707.707v2.5c0 .943 0 1.414-.293 1.707s-.764.293-1.707.293zM17 13c-1.011 0-1.854.058-2.527.134-.829.093-1.243.14-1.736.629s-.543.893-.642 1.702c-.056.459-.095.977-.095 1.535s.039 1.076.095 1.535c.1.809.149 1.213.642 1.702s.907.536 1.736.63c.673.075 1.516.133 2.527.133s1.854-.058 2.527-.134c.829-.093 1.243-.14 1.736-.629.494-.489.543-.893.642-1.703.056-.458.095-.977.095-1.534s-.039-1.076-.095-1.534c-.099-.81-.148-1.214-.642-1.703-.493-.489-.907-.536-1.737-.63A23 23 0 0 0 17 13"/></svg>