<svg xmlns="http://www.w3.org/2000/svg" viewBox="0 0 16 16"><path fill-rule="evenodd" d="M4.783 3.136A36 36 0 0 1 8 3c1.259 0 2.332.057 3.216.136 1.3.117 1.951.176 2.751.972s.857 1.388.97 2.572q.045.468.059.98a12 12 0 0 0-1.015-.095A29 29 0 0 0 12 7.5c-.743 0-1.404.026-1.982.066-1.218.083-1.827.125-2.625.939s-.825 1.357-.88 2.442a11 11 0 0 0 0 1.106c.019.356.033.654.073.922a35 35 0 0 1-1.803-.111c-1.3-.117-1.95-.176-2.75-.972-.8-.795-.857-1.387-.97-2.57a14 14 0 0 1 0-2.644c.113-1.183.17-1.775.97-2.57.8-.796 1.45-.855 2.75-.972m-1.811 3.84A.747.747 0 0 0 3.5 8.25h1.506c.67 0 1.004 0 1.225-.191a1 1 0 0 0 .078-.078c.191-.22.191-.555.191-1.225V5.295a.747.747 0 1 0-1.494 0q0 .223-.002.399L4.28 4.97a.75.75 0 1 0-1.06 1.06l.724.724q-.176.002-.4.002H3.5a.75.75 0 0 0-.528.22M9.83 9.073A18 18 0 0 1 11.5 9c.659 0 1.216.031 1.67.074.627.059.94.088 1.322.466.38.377.41.664.47 1.237a7 7 0 0 1 0 1.446c-.06.573-.09.86-.47 1.237-.382.378-.695.407-1.322.466A18 18 0 0 1 11.5 14c-.66 0-1.216-.031-1.67-.074-.627-.059-.94-.088-1.321-.466-.381-.377-.411-.664-.471-1.237a7 7 0 0 1 0-1.446c.06-.573.09-.86.47-1.237.382-.378.695-.407 1.322-.466"/></svg>