<svg xmlns="http://www.w3.org/2000/svg" viewBox="0 0 32 32"><path fill-rule="evenodd" d="M6.998 16V6.545c0-2.221.101-3.823.188-4.79.047-.517.07-.775.317-1.082.246-.306.433-.365.808-.484A4 4 0 0 1 9.498 0c.444 0 .849.083 1.186.19.375.118.562.177.809.483.246.307.27.565.316 1.081.054.604.114 1.456.152 2.55.51-.087 1.082-.138 1.759-.2A25 25 0 0 1 15.998 4c.799 0 1.562.04 2.277.104 2.163.196 3.244.294 4.71 1.764 1.467 1.47 1.57 2.657 1.78 5.03a64 64 0 0 1 .233 5.602c0 2.182-.097 4.051-.233 5.603-.21 2.372-.314 3.559-1.78 5.028-1.465 1.47-2.546 1.568-4.707 1.764a25 25 0 0 1-4.56 0c-2.162-.196-3.243-.294-4.709-1.764s-1.57-2.656-1.778-5.028a64 64 0 0 1-.233-5.603q-.002-.253 0-.5m5 6.75c0-.69.56-1.25 1.25-1.25h5.5a1.25 1.25 0 1 1 0 2.5h-5.5c-.69 0-1.25-.56-1.25-1.25m.614-13.136c-.306.307-.357.659-.457 1.363A15 15 0 0 0 11.998 13c0 .713.071 1.425.157 2.023.1.704.15 1.056.457 1.363.306.306.658.356 1.362.457a14.5 14.5 0 0 0 2.024.157c.712 0 1.425-.071 2.023-.157.704-.1 1.056-.151 1.362-.457s.357-.659.458-1.363c.085-.598.157-1.31.157-2.023s-.072-1.425-.157-2.023c-.101-.704-.152-1.056-.458-1.363s-.658-.356-1.362-.457A15 15 0 0 0 15.998 9c-.713 0-1.425.071-2.024.157-.704.1-1.056.151-1.362.457"/></svg>