<svg xmlns="http://www.w3.org/2000/svg" viewBox="0 0 44 44"><path fill-rule="evenodd" d="M10 22 9.998 9c0-3.038.14-5.233.262-6.565.066-.72.099-1.08.443-1.505s.607-.506 1.135-.67a5.6 5.6 0 0 1 1.66-.26 5.6 5.6 0 0 1 1.661.26c.527.164.791.246 1.135.67s.377.785.442 1.505c.083.908.175 2.218.225 3.922.665-.104 1.406-.166 2.276-.24A33 33 0 0 1 21.998 6c.964 0 1.889.044 2.762.117 2.95.249 4.426.373 6.475 2.421s2.187 3.692 2.464 6.978c.176 2.084.3 4.58.3 7.484s-.124 5.402-.3 7.486c-.277 3.285-.416 4.927-2.464 6.975s-3.523 2.172-6.472 2.421c-.874.074-1.8.118-2.765.118-.964 0-1.89-.044-2.765-.118-2.949-.249-4.423-.373-6.471-2.421s-2.187-3.69-2.464-6.975a89 89 0 0 1-.3-7.486q-.001-.508.002-1m6.998 9.5a1.5 1.5 0 0 1 1.5-1.5h7a1.5 1.5 0 0 1 0 3h-7a1.5 1.5 0 0 1-1.5-1.5m.793-17.707c-.43.43-.496.916-.625 1.886A18 18 0 0 0 16.998 18c0 .81.074 1.619.168 2.321.13.97.194 1.456.625 1.886.43.431.916.496 1.886.626.702.093 1.512.167 2.321.167s1.62-.074 2.321-.167c.97-.13 1.456-.195 1.887-.625.43-.431.495-.916.625-1.887.094-.702.167-1.512.167-2.321s-.073-1.619-.167-2.321c-.13-.97-.194-1.456-.625-1.886-.431-.431-.916-.496-1.887-.626A18 18 0 0 0 22 13c-.81 0-1.62.074-2.322.167-.97.13-1.455.195-1.886.626"/></svg>