<svg xmlns="http://www.w3.org/2000/svg" viewBox="0 0 24 24"><path fill-rule="evenodd" d="M5 12V4.91c0-1.634.078-2.82.146-3.55.039-.406.058-.61.252-.846.195-.236.347-.281.652-.372C6.32.062 6.644 0 7 0c.355 0 .68.062.95.142.304.09.456.136.651.372.194.237.214.44.252.846.042.447.088 1.066.117 1.854.359-.054.758-.09 1.22-.131a20 20 0 0 1 3.62 0c1.677.151 2.516.227 3.644 1.357s1.209 2.04 1.37 3.86A48 48 0 0 1 19 12.5a48 48 0 0 1-.177 4.2c-.16 1.819-.241 2.728-1.369 3.858s-1.966 1.206-3.643 1.358a20 20 0 0 1-3.622 0c-1.677-.152-2.516-.228-3.644-1.358-1.127-1.13-1.208-2.04-1.37-3.858A48 48 0 0 1 5 12.5q-.002-.255 0-.5m4 5a1 1 0 0 1 1-1h4a1 1 0 1 1 0 2h-4a1 1 0 0 1-1-1m.464-9.536c-.237.237-.275.507-.35 1.048C9.05 8.955 9 9.477 9 10s.05 1.045.113 1.488c.076.54.114.811.351 1.048.236.236.507.274 1.048.35.442.063.965.114 1.488.114.522 0 1.045-.051 1.488-.114.54-.076.81-.114 1.047-.35.237-.237.275-.507.351-1.048.063-.443.114-.965.114-1.488s-.052-1.045-.114-1.488c-.076-.54-.114-.811-.35-1.048-.237-.236-.508-.274-1.048-.35A11 11 0 0 0 12 7c-.523 0-1.046.051-1.488.114-.541.076-.812.114-1.048.35"/></svg>