<svg xmlns="http://www.w3.org/2000/svg" viewBox="0 0 24 24"><path d="M9 17a1 1 0 0 1 1-1h4a1 1 0 1 1 0 2h-4a1 1 0 0 1-1-1m.464-9.536c-.237.237-.275.507-.35 1.048C9.05 8.955 9 9.477 9 10s.05 1.045.113 1.488c.076.54.114.811.351 1.048.236.236.507.274 1.048.35.442.063.965.114 1.488.114.522 0 1.045-.051 1.488-.114.54-.076.81-.114 1.047-.35.237-.237.275-.507.351-1.048.063-.443.114-.965.114-1.488s-.052-1.045-.114-1.488c-.076-.54-.114-.811-.35-1.048-.237-.236-.508-.274-1.048-.35A11 11 0 0 0 12 7c-.523 0-1.046.051-1.488.114-.541.076-.812.114-1.048.35"/><path fill-rule="evenodd" d="M5 4.91V12q-.002.245 0 .5c0 1.63.072 3.032.176 4.2.161 1.819.242 2.728 1.37 3.858 1.127 1.13 1.966 1.206 3.643 1.358a20 20 0 0 0 3.622 0c1.677-.152 2.515-.228 3.643-1.358s1.208-2.039 1.37-3.858A48 48 0 0 0 19 12.5a48 48 0 0 0-.176-4.2c-.162-1.82-.242-2.73-1.37-3.86s-1.967-1.206-3.645-1.357a20 20 0 0 0-3.619 0c-.462.041-.861.077-1.22.131a33 33 0 0 0-.117-1.854C8.815.954 8.795.75 8.6.514 8.406.278 8.254.233 7.949.142A3.4 3.4 0 0 0 7 0c-.355 0-.68.062-.95.142-.304.09-.456.136-.65.372-.195.237-.214.44-.253.846C5.078 2.09 5 3.276 5 4.91m2.168 11.614A46 46 0 0 1 7 12.499c0-1.571.07-2.913.168-4.023.086-.976.135-1.428.244-1.783.074-.246.188-.479.549-.84.38-.381.605-.488.81-.554.307-.098.694-.143 1.6-.225a18 18 0 0 1 3.258 0c.905.082 1.292.127 1.6.225.204.066.43.173.81.554.36.361.474.594.549.84.108.355.157.807.243 1.783A45 45 0 0 1 17 12.499c0 1.572-.07 2.915-.169 4.025-.086.975-.135 1.426-.243 1.782-.075.245-.189.478-.55.84-.38.38-.605.488-.809.553-.307.098-.694.143-1.598.225a18 18 0 0 1-3.262 0c-.905-.082-1.292-.127-1.599-.225-.204-.065-.429-.173-.81-.554-.36-.361-.474-.594-.548-.84-.109-.355-.158-.806-.244-1.781"/></svg>