<svg xmlns="http://www.w3.org/2000/svg" viewBox="0 0 17 17"><path d="M6.374 11.953a.8.8 0 0 1 .799-.799h2.652a.799.799 0 1 1 0 1.598H7.173a.8.8 0 0 1-.799-.799m.329-6.313c-.167.168-.194.36-.248.743-.044.313-.08.683-.08 1.054 0 .37.036.74.08 1.053.054.383.08.575.248.743.168.167.36.194.742.248.314.044.684.08 1.054.08s.74-.036 1.054-.08c.383-.054.574-.081.742-.248.168-.168.194-.36.248-.743.045-.313.08-.683.08-1.053s-.035-.74-.08-1.054c-.054-.383-.08-.575-.248-.742s-.36-.195-.742-.249a8 8 0 0 0-1.054-.08c-.37 0-.74.036-1.054.08-.383.054-.574.081-.742.249"/><path fill-rule="evenodd" d="M3.187 3.65v5.381c0 1.151.052 2.144.127 2.978.12 1.342.18 2.013 1.02 2.853.838.839 1.471.896 2.736 1.01a16 16 0 0 0 2.858 0c1.265-.114 1.898-.171 2.736-1.01.84-.84.9-1.51 1.02-2.853.075-.834.127-1.827.127-2.978 0-1.15-.052-2.143-.127-2.977-.12-1.343-.18-2.014-1.02-2.853-.839-.84-1.471-.897-2.737-1.01a16 16 0 0 0-2.856 0c-.267.024-.507.045-.726.072a22 22 0 0 0-.086-1.234c-.03-.31-.046-.464-.193-.639-.147-.176-.267-.21-.508-.278A3 3 0 0 0 4.781 0c-.293 0-.559.05-.778.112-.24.068-.36.102-.507.278-.147.175-.163.33-.194.638-.054.544-.115 1.42-.115 2.623m1.714 8.216c-.07-.787-.12-1.733-.12-2.836s.05-2.048.12-2.835c.065-.723.1-1.043.177-1.29.05-.162.124-.32.383-.579.27-.27.424-.34.562-.384.222-.07.506-.104 1.191-.165a14.4 14.4 0 0 1 2.57 0c.686.061.97.095 1.19.165.139.044.293.114.563.384.26.26.334.417.383.578.076.248.112.568.177 1.291.07.787.12 1.733.12 2.835 0 1.103-.05 2.049-.12 2.836-.065.723-.1 1.042-.177 1.29-.05.161-.123.319-.383.578-.27.27-.424.34-.562.384-.221.07-.505.104-1.19.165a14.3 14.3 0 0 1-2.572 0c-.685-.061-.968-.095-1.19-.165-.138-.043-.292-.114-.562-.384-.26-.26-.334-.417-.383-.578-.076-.248-.112-.567-.177-1.29"/></svg>