<svg xmlns="http://www.w3.org/2000/svg" viewBox="0 0 17 17"><path fill-rule="evenodd" d="M3.187 8.499V3.651c0-1.203.061-2.08.115-2.623.031-.309.047-.463.194-.638.146-.176.267-.21.507-.278.22-.063.485-.112.778-.112.292 0 .558.05.777.112.24.068.361.102.508.278.147.175.162.33.193.638.03.306.063.718.086 1.234.22-.027.459-.048.726-.072a16 16 0 0 1 2.856 0c1.266.113 1.898.17 2.737 1.01.84.839.9 1.51 1.02 2.853.075.834.127 1.827.127 2.977a33 33 0 0 1-.127 2.978c-.12 1.342-.18 2.013-1.02 2.853-.838.839-1.47.896-2.736 1.01a16 16 0 0 1-2.858 0c-1.265-.114-1.898-.171-2.737-1.01-.838-.84-.899-1.51-1.02-2.853a33 33 0 0 1-.126-2.978zm3.187 3.454a.8.8 0 0 1 .799-.799h2.652a.799.799 0 1 1 0 1.598H7.173a.8.8 0 0 1-.799-.799m.33-6.312c-.168.167-.195.359-.25.742-.043.313-.08.683-.08 1.054 0 .37.037.74.08 1.053.055.383.082.575.25.743.167.167.358.194.741.248.314.044.684.08 1.054.08s.74-.036 1.054-.08c.383-.054.574-.081.742-.248.167-.168.194-.36.248-.743a8 8 0 0 0 .08-1.053c0-.37-.035-.74-.08-1.054-.054-.383-.08-.575-.248-.742s-.36-.195-.742-.249a8 8 0 0 0-1.054-.08c-.37 0-.74.036-1.054.08-.383.054-.574.081-.742.249"/></svg>