<svg xmlns="http://www.w3.org/2000/svg" viewBox="0 0 32 32"><path fill-rule="evenodd" d="M20.909 6.338c.054.526.09 1.092.09 1.662h3.33c.735 0 1.332.597 1.332 1.333h.002A64 64 0 0 1 26 16a63 63 0 0 1-.196 5.099c-.217 2.71-.326 4.065-2.076 5.803s-3.015 1.831-5.544 2.017a30 30 0 0 1-4.368 0c-2.53-.186-3.794-.279-5.544-2.017S6.413 23.81 6.196 21.1A64 64 0 0 1 6 16c0-1.937.078-3.637.195-5.097.047-.58.088-1.097.142-1.57h.003C6.34 8.597 6.937 8 7.673 8H11c0-.622.049-1.238.12-1.803.14-1.124.21-1.686.824-2.294s1.159-.672 2.248-.797a15.8 15.8 0 0 1 3.552-.009c1.156.127 1.733.19 2.356.816.623.627.685 1.226.809 2.425m-4.91-.838c-.544 0-1.057.036-1.52.089-.286.033-.472.055-.63.08l-.131.022q-.012.056-.03.161c-.027.165-.051.36-.088.654-.06.49-.1 1-.1 1.494h5c0-.466-.03-.944-.078-1.405a21 21 0 0 0-.08-.705 4 4 0 0 0-.032-.2l-.164-.027c-.17-.025-.372-.048-.674-.08A14 14 0 0 0 16 5.5m-3.749 9.501a1.25 1.25 0 0 1 1.25 1.229h.003c.01.422.046.85.097 1.264.037.293.062.49.088.654q.018.105.03.161l.132.023c.157.024.343.046.63.079a13.3 13.3 0 0 0 2.992.007c.302-.033.504-.056.674-.081q.105-.016.163-.027.014-.067.033-.2c.026-.18.048-.393.08-.706.04-.384.068-.782.076-1.174h.002a1.25 1.25 0 1 1 2.495.13c-.011.447-.043.887-.086 1.302-.124 1.199-.186 1.798-.809 2.425s-1.2.69-2.356.816a15.8 15.8 0 0 1-3.552-.008c-1.09-.126-1.634-.19-2.248-.798s-.685-1.17-.825-2.294a16 16 0 0 1-.114-1.434 1.25 1.25 0 0 1 1.245-1.368"/></svg>