<svg xmlns="http://www.w3.org/2000/svg" viewBox="0 0 44 44"><path fill-rule="evenodd" d="M29.46 11.5h4.595a1.5 1.5 0 0 1 1.5 1.5v.011c.06.57.11 1.186.166 1.865.167 2.036.279 4.412.279 7.124 0 2.713-.112 5.09-.28 7.127-.305 3.722-.458 5.583-2.853 7.965-2.396 2.383-4.147 2.517-7.648 2.784A42 42 0 0 1 22 40c-1.123 0-2.2-.046-3.219-.124-3.501-.267-5.252-.401-7.648-2.784S8.585 32.85 8.28 29.127A87 87 0 0 1 8 22c0-2.711.112-5.087.279-7.124.056-.679.106-1.296.166-1.865V13a1.5 1.5 0 0 1 1.5-1.5h4.596c.059-1.432.177-2.632.308-3.597.173-1.27.259-1.905.956-2.616.697-.71 1.32-.808 2.57-1.002A24 24 0 0 1 22 4c1.362 0 2.6.125 3.626.285 1.248.194 1.872.292 2.57 1.002.696.71.782 1.346.955 2.615.131.966.25 2.166.308 3.598m-3.003 0a36 36 0 0 0-.386-3.929l-.033-.17-.154-.032a21 21 0 0 0-.72-.12C24.264 7.11 23.181 7 22 7s-2.263.109-3.164.25c-.327.05-.541.084-.72.119l-.154.032q-.014.062-.033.17a35 35 0 0 0-.386 3.929zm1.043 9A1.5 1.5 0 0 1 29 22c0 1.138-.093 2.091-.217 2.855l-.01.061c-.052.324-.119.737-.261 1.123-.178.482-.45.879-.835 1.249-.847.814-1.723.918-2.497 1.01l-.11.014c-.841.102-1.895.188-3.07.188s-2.229-.086-3.07-.188l-.11-.013c-.774-.093-1.65-.197-2.497-1.011a3.25 3.25 0 0 1-.835-1.25c-.142-.385-.209-.798-.261-1.122l-.01-.06A18 18 0 0 1 15 22a1.5 1.5 0 0 1 3 0 15 15 0 0 0 .255 2.815c.022.106.038.159.048.185.007.02.011.026.015.032a.6.6 0 0 0 .084.093c.05.047.076.064.083.068a.2.2 0 0 0 .057.023c.043.013.115.03.244.051A23 23 0 0 0 22 25.5a23 23 0 0 0 3.214-.233c.13-.02.2-.038.244-.051a.2.2 0 0 0 .057-.023.5.5 0 0 0 .083-.068.6.6 0 0 0 .084-.093c.004-.006.008-.012.015-.032.01-.026.026-.079.048-.185A15 15 0 0 0 26 22a1.5 1.5 0 0 1 1.5-1.5"/></svg>