<svg xmlns="http://www.w3.org/2000/svg" viewBox="0 0 24 24"><path fill-rule="evenodd" d="M15.927 4.67c.044.421.073.874.073 1.33h2.74a1 1 0 0 1 1 1h.005q.044.434.087.946C19.932 9.099 20 10.45 20 12s-.068 2.903-.168 4.056c-.175 2.024-.263 3.036-1.557 4.325s-2.264 1.37-4.205 1.532a25 25 0 0 1-4.14 0c-1.94-.161-2.911-.242-4.205-1.532-1.294-1.289-1.381-2.301-1.557-4.325A47 47 0 0 1 4 12a47 47 0 0 1 .255-5h.003a1 1 0 0 1 1-1H8c0-.497.04-.99.095-1.442.113-.9.169-1.349.66-1.836s.927-.537 1.799-.638a12.6 12.6 0 0 1 2.841-.006c.925.1 1.387.151 1.885.653.498.5.548.98.647 1.94m-5.144-.599a10.7 10.7 0 0 1 2.395-.005c.241.026.403.044.539.064l.13.022q.012.054.027.16c.02.144.038.314.064.564.038.369.062.75.062 1.124h-4c0-.396.031-.804.08-1.195.03-.235.05-.392.07-.523l.024-.13.106-.017c.125-.02.275-.037.503-.064m0 9.858a10.7 10.7 0 0 0 2.395.005c.241-.026.403-.044.539-.064l.13-.022q.012-.055.027-.16c.02-.144.038-.314.064-.564.038-.369.062-.751.062-1.124a1 1 0 1 1 2 0c0 .456-.03.909-.073 1.33-.099.959-.149 1.438-.647 1.94-.498.5-.96.551-1.885.652a12.7 12.7 0 0 1-2.841-.007c-.872-.1-1.308-.15-1.8-.637-.49-.487-.546-.937-.659-1.836A12 12 0 0 1 8 12a1 1 0 1 1 2 0c0 .396.031.804.08 1.195.03.235.05.392.07.523l.024.13.106.018c.125.019.275.036.503.063"/></svg>