<svg xmlns="http://www.w3.org/2000/svg" viewBox="0 0 28 28"><path d="M11 14c0 .707.076 1.43.177 2.07.036.233.062.393.088.53q.015.085.028.135l.112.023c.13.024.283.048.51.082.596.09 1.308.16 2.085.16.757 0 1.463-.066 2.063-.154.239-.035.404-.059.544-.084l.135-.027q.014-.059.031-.163c.025-.148.048-.321.082-.568.083-.624.145-1.32.145-2.004a1 1 0 0 1 2 0c0 .798-.072 1.586-.163 2.27-.128.952-.192 1.428-.65 1.891s-.917.53-1.835.664c-.678.1-1.481.175-2.352.175-.894 0-1.708-.08-2.386-.183-.867-.131-1.3-.197-1.751-.646-.451-.448-.522-.896-.662-1.79A16 16 0 0 1 9 14a1 1 0 1 1 2 0"/><path fill-rule="evenodd" d="M19 7c0-.637-.046-1.268-.11-1.844-.128-1.127-.192-1.69-.763-2.266-.572-.576-1.114-.641-2.2-.772C15.347 2.048 14.695 2 14 2c-.723 0-1.393.052-1.981.126-1.024.13-1.537.195-2.1.753-.564.56-.635 1.088-.777 2.145C9.06 5.635 9 6.314 9 7H5.323c-.552 0-1.004.448-1.004 1a61 61 0 0 0-.109 1.126A54 54 0 0 0 4 14c0 1.864.085 3.49.21 4.876.219 2.409.328 3.613 1.871 5.151s2.725 1.642 5.087 1.848C12.049 25.952 13 26 14 26s1.951-.048 2.832-.125c2.362-.206 3.544-.31 5.087-1.848s1.652-2.742 1.87-5.151A54 54 0 0 0 24 14c0-1.864-.085-3.49-.21-4.875A60 60 0 0 0 23.68 8c0-.552-.452-1-1.004-1zm-5-3c-.627 0-1.213.045-1.73.11-.267.034-.451.058-.608.084-.354.058-.386.11-.447.465-.028.165-.054.357-.091.632A13 13 0 0 0 11 7h6c0-.545-.04-1.099-.098-1.62-.033-.291-.057-.5-.083-.678-.054-.363-.116-.456-.482-.514a19 19 0 0 0-.65-.084A14 14 0 0 0 14 4M6.202 9.306 6.23 9h15.54l.028.306c.12 1.326.202 2.891.202 4.694s-.082 3.37-.202 4.695c-.116 1.27-.186 1.94-.357 2.488-.137.442-.359.855-.934 1.428-.58.578-.99.796-1.419.93-.535.166-1.183.233-2.43.342-.829.072-1.721.117-2.658.117s-1.829-.045-2.657-.117c-1.248-.11-1.896-.176-2.431-.342-.43-.134-.84-.352-1.419-.93-.575-.573-.797-.986-.934-1.428-.171-.549-.241-1.217-.357-2.488A52 52 0 0 1 6 14c0-1.803.082-3.368.202-4.694"/></svg>