<svg xmlns="http://www.w3.org/2000/svg" viewBox="0 0 44 44"><path fill-rule="evenodd" d="M34.055 11.5h-4.596a39 39 0 0 0-.308-3.598c-.173-1.27-.259-1.904-.956-2.615-.697-.71-1.32-.808-2.57-1.002A24 24 0 0 0 22 4c-1.362 0-2.6.125-3.626.285-1.248.194-1.872.292-2.57 1.002-.696.71-.782 1.346-.955 2.616a39 39 0 0 0-.308 3.597H9.945a1.5 1.5 0 0 0-1.5 1.5v.01c-.06.57-.11 1.187-.166 1.866A87 87 0 0 0 8 22c0 2.713.112 5.09.28 7.127.305 3.722.458 5.583 2.853 7.965 2.396 2.383 4.147 2.517 7.648 2.784a42 42 0 0 0 6.438 0c3.501-.267 5.252-.401 7.648-2.784s2.548-4.243 2.854-7.965C35.888 27.09 36 24.713 36 22s-.112-5.088-.279-7.124c-.056-.679-.106-1.296-.166-1.865V13a1.5 1.5 0 0 0-1.5-1.5m-7.877-3.193c.115.846.222 1.911.279 3.193h-8.914a35 35 0 0 1 .386-3.929l.033-.17q.056-.014.154-.032c.179-.035.393-.069.72-.12C19.736 7.11 20.819 7 22 7s2.263.109 3.164.25c.327.05.541.084.72.119q.098.018.154.032.014.062.033.17c.032.184.062.403.107.736M32.68 14.5H11.321l-.052.621a84 84 0 0 0-.269 6.88c0 2.63.108 4.924.27 6.88.16 1.962.26 3 .521 3.853.211.69.557 1.335 1.458 2.231.923.918 1.555 1.252 2.183 1.447.785.244 1.726.331 3.578.473a39 39 0 0 0 5.98 0c1.852-.142 2.793-.23 3.578-.473.628-.195 1.26-.529 2.183-1.447.901-.896 1.247-1.541 1.458-2.23.261-.854.36-1.892.522-3.854.16-1.956.269-4.25.269-6.88a84 84 0 0 0-.32-7.501M29 22a1.5 1.5 0 0 0-3 0 15 15 0 0 1-.255 2.815 1.3 1.3 0 0 1-.048.185.1.1 0 0 1-.015.032.6.6 0 0 1-.084.093.5.5 0 0 1-.083.068.2.2 0 0 1-.057.023c-.043.013-.115.03-.244.051A23 23 0 0 1 22 25.5a23 23 0 0 1-3.214-.233c-.13-.02-.2-.038-.244-.051a.2.2 0 0 1-.057-.023.5.5 0 0 1-.083-.068.6.6 0 0 1-.084-.093c-.004-.006-.008-.012-.015-.032a1.3 1.3 0 0 1-.048-.185A15 15 0 0 1 18 22a1.5 1.5 0 0 0-3 0c0 1.138.093 2.09.217 2.855l.01.061c.052.324.119.737.261 1.122.178.483.45.88.835 1.25.847.814 1.723.918 2.497 1.01l.11.014c.841.102 1.895.188 3.07.188s2.229-.086 3.07-.188l.11-.013c.774-.093 1.65-.197 2.497-1.011a3.25 3.25 0 0 0 .835-1.25c.142-.385.209-.798.261-1.122l.01-.06C28.907 24.09 29 23.138 29 22"/></svg>