<svg xmlns="http://www.w3.org/2000/svg" viewBox="0 0 16 16"><path d="M11.395 7.847a.7.7 0 0 1-.43.153c-.369.002-.696-.31-.696-.759a.86.86 0 0 1 .34-.681c.226-.172.487-.382.795-.622l.24-.188H3.25a.75.75 0 0 1 0-1.5h8.394l-.24-.187c-.308-.241-.569-.45-.794-.623a.86.86 0 0 1-.34-.681c0-.45.326-.761.695-.759.142 0 .291.048.43.153.273.206.581.447.933.722.938.733 1.407 1.105 1.57 1.553a1.67 1.67 0 0 1 0 1.144c-.163.448-.632.82-1.57 1.553-.352.275-.66.516-.933.722m-5.641 5.395c0 .45-.326.762-.695.758a.7.7 0 0 1-.421-.15 68 68 0 0 1-.957-.732c-.94-.727-1.411-1.092-1.577-1.536a1.67 1.67 0 0 1 0-1.169c.166-.444.636-.804 1.577-1.531.362-.28.678-.525.957-.733A.7.7 0 0 1 5.058 8c.37-.004.696.309.696.758a.87.87 0 0 1-.348.69 81 81 0 0 0-1.047.802h8.391a.75.75 0 0 1 0 1.5H4.366l.232.18c.315.244.58.45.808.622a.87.87 0 0 1 .348.69"/></svg>