<svg xmlns="http://www.w3.org/2000/svg" viewBox="0 0 24 24"><path d="M21 7c0-.285-.049-.57-.146-.842-.242-.676-.944-1.23-2.348-2.337a45 45 0 0 1-.724-.586 24 24 0 0 0-.774-.62.9.9 0 0 0-.406-.115c-.503-.02-1.037.358-1.097.869l-.006.054v.002l.001.107a.98.98 0 0 0 .355.717 26 26 0 0 1 1.412 1.142c.301.238.553.437.766.609H4.5a1 1 0 1 0 0 2h13.533c-.213.172-.465.371-.766.609a26 26 0 0 1-1.412 1.142.98.98 0 0 0-.355.717l-.001.107v.002l.006.054c.06.511.594.89 1.097.87a.9.9 0 0 0 .406-.116c.247-.187.498-.393.774-.62.222-.182.46-.378.724-.586 1.404-1.107 2.106-1.66 2.348-2.337C20.95 7.57 21 7.285 21 7M3 17c0-.285.049-.57.146-.842.242-.676.944-1.23 2.348-2.337.264-.208.502-.404.724-.586.276-.226.527-.433.774-.62A.9.9 0 0 1 7.4 12.5c.501-.02 1.036.358 1.095.869l.007.054v.002l-.001.107a.98.98 0 0 1-.355.717 26 26 0 0 0-1.412 1.142c-.301.238-.553.437-.766.609H19.5a1 1 0 1 1 0 2H5.967c.213.172.465.371.766.609a26 26 0 0 0 1.412 1.142.98.98 0 0 1 .355.717l.001.107v.002l-.007.054c-.059.511-.594.89-1.095.87a.9.9 0 0 1-.407-.116 25 25 0 0 1-.774-.62c-.222-.182-.46-.378-.724-.586-1.404-1.107-2.106-1.66-2.348-2.337A2.5 2.5 0 0 1 3 17"/></svg>