<svg xmlns="http://www.w3.org/2000/svg" viewBox="0 0 44 44"><path fill-rule="evenodd" d="M29.84 7.05a1.5 1.5 0 0 1 2.11-.21l.019.015-.02-.016.003.002.003.003.014.01.049.041.181.151a56 56 0 0 1 2.587 2.307c.704.672 1.444 1.425 2.017 2.13.286.35.559.722.767 1.092.185.327.43.84.43 1.425s-.245 1.098-.43 1.425c-.208.37-.481.742-.767 1.093-.573.704-1.313 1.457-2.017 2.13a54 54 0 0 1-2.768 2.457l-.05.04-.013.012-.003.003h-.002a1.5 1.5 0 0 1-1.9-2.32l.003-.003.01-.008.043-.036.167-.14a53 53 0 0 0 2.441-2.175c.343-.328.676-.658.982-.978H8.5a1.5 1.5 0 1 1 0-3h25.196c-.306-.32-.64-.65-.982-.977a51 51 0 0 0-2.608-2.316l-.043-.036-.01-.008-.003-.002a1.5 1.5 0 0 1-.21-2.11m-15.68 16a1.5 1.5 0 0 0-2.11-.21h-.002l-.003.004-.014.01-.049.041-.181.152a54 54 0 0 0-2.586 2.306c-.705.672-1.445 1.425-2.018 2.13-.286.35-.559.722-.767 1.092-.185.327-.43.84-.43 1.425s.245 1.098.43 1.425c.208.37.481.742.767 1.093.573.704 1.313 1.457 2.017 2.13a54 54 0 0 0 2.768 2.457l.05.04.013.011.003.004h.002a1.5 1.5 0 0 0 1.9-2.32l-.003-.003-.01-.008-.043-.036-.167-.14a54 54 0 0 1-2.441-2.175 30 30 0 0 1-.982-.978H35.5a1.5 1.5 0 1 0 0-3H10.304c.306-.32.64-.65.982-.977a51 51 0 0 1 2.608-2.316l.043-.036.01-.008.003-.002a1.5 1.5 0 0 0 .21-2.11"/></svg>