<svg xmlns="http://www.w3.org/2000/svg" viewBox="0 0 44 44"><path fill-rule="evenodd" d="M6.12 18.64c.328-4.781.492-7.171 2.92-9.6s4.819-2.592 9.6-2.92C19.74 6.046 20.87 6 22 6s2.26.045 3.36.12c4.781.328 7.172.492 9.6 2.92s2.592 4.819 2.92 9.6c.075 1.1.12 2.23.12 3.36s-.045 2.26-.12 3.36c-.328 4.781-.492 7.172-2.92 9.6s-4.819 2.592-9.6 2.92c-1.1.075-2.23.12-3.36.12s-2.26-.045-3.36-.12c-4.781-.328-7.171-.492-9.6-2.92s-2.592-4.819-2.92-9.6A49 49 0 0 1 6 22c0-1.13.045-2.26.12-3.36M17 20.5a1.5 1.5 0 0 1 1.5-1.5H21a2.5 2.5 0 0 1 2.5 2.5v8a1.5 1.5 0 0 1-3 0V22h-2a1.5 1.5 0 0 1-1.5-1.5m4.5-3.5a2 2 0 1 0 0-4 2 2 0 0 0 0 4"/></svg>