<svg xmlns="http://www.w3.org/2000/svg" viewBox="0 0 16 16"><path fill-rule="evenodd" d="M9.464 4.82c.256.118.566.09.765-.11l1.69-1.69c.252-.252.23-.67-.067-.866A6.97 6.97 0 0 0 8 1a6.97 6.97 0 0 0-3.852 1.154c-.298.197-.32.614-.067.866l1.69 1.69c.2.2.509.228.765.11.445-.205.941-.32 1.464-.32s1.019.115 1.464.32M1 8c0-1.423.425-2.747 1.154-3.852.197-.298.614-.32.866-.067l1.69 1.69c.2.2.228.509.11.765-.205.445-.32.941-.32 1.464s.115 1.019.32 1.464c.118.256.09.566-.11.765l-1.69 1.69c-.252.252-.67.23-.866-.067A6.97 6.97 0 0 1 1 8m14 0a6.97 6.97 0 0 1-1.154 3.852c-.197.298-.614.32-.866.067l-1.69-1.69c-.2-.2-.228-.509-.11-.765.205-.445.32-.941.32-1.464s-.115-1.019-.32-1.464c-.118-.256-.09-.566.11-.765l1.69-1.69c.252-.252.67-.23.866.067A6.97 6.97 0 0 1 15 8m-5.536 3.18c.256-.118.566-.09.765.11l1.69 1.69c.252.252.23.67-.067.866A6.97 6.97 0 0 1 8 15a6.97 6.97 0 0 1-3.852-1.154c-.298-.197-.32-.614-.067-.866l1.69-1.69c.2-.2.509-.228.765-.11.445.205.941.32 1.464.32s1.019-.115 1.464-.32"/></svg>