<svg xmlns="http://www.w3.org/2000/svg" viewBox="0 0 32 32"><path d="M11.998 22.75c0-.69.56-1.25 1.25-1.25h5.5a1.25 1.25 0 1 1 0 2.5h-5.5c-.69 0-1.25-.56-1.25-1.25m.614-13.136c-.306.307-.356.659-.457 1.363-.086.598-.157 1.31-.157 2.023s.071 1.425.157 2.023c.1.704.151 1.056.457 1.363s.659.356 1.363.457c.598.086 1.31.157 2.023.157s1.425-.071 2.023-.157c.704-.1 1.056-.151 1.363-.457s.356-.659.457-1.363c.086-.598.157-1.31.157-2.023s-.071-1.425-.157-2.023c-.1-.704-.151-1.056-.457-1.363s-.659-.356-1.363-.457A15 15 0 0 0 15.998 9c-.712 0-1.425.071-2.023.157-.704.1-1.056.151-1.363.457"/><path fill-rule="evenodd" d="M6.998 6.545 7 16l-.002.5c0 2.182.097 4.05.233 5.603.209 2.372.313 3.558 1.779 5.028s2.547 1.568 4.708 1.764a25 25 0 0 0 4.56 0c2.162-.196 3.242-.294 4.708-1.764s1.57-2.656 1.779-5.028c.136-1.552.233-3.42.233-5.603 0-2.181-.096-4.05-.233-5.602-.209-2.373-.313-3.56-1.78-5.03-1.465-1.47-2.547-1.568-4.71-1.764A25 25 0 0 0 15.999 4c-.799 0-1.562.04-2.277.104-.678.062-1.25.113-1.76.2a46 46 0 0 0-.152-2.55c-.046-.516-.07-.774-.316-1.08s-.434-.366-.809-.485A4 4 0 0 0 9.498 0a4 4 0 0 0-1.186.19c-.375.118-.563.177-.809.483-.246.307-.27.565-.316 1.081-.088.968-.189 2.57-.189 4.791m2.723 15.339a62 62 0 0 1-.223-5.384c0-2.107.093-3.903.223-5.383.112-1.269.176-1.87.32-2.348.104-.34.261-.656.74-1.135.505-.508.81-.656 1.088-.746.406-.13.913-.189 2.077-.294a23 23 0 0 1 2.052-.094c.717 0 1.405.035 2.052.094 1.164.105 1.671.164 2.077.294.278.09.583.238 1.089.746.478.479.636.796.738 1.135.145.477.21 1.08.32 2.348.13 1.48.224 3.275.224 5.383s-.093 3.904-.223 5.384c-.112 1.268-.176 1.87-.32 2.347-.103.34-.26.656-.74 1.135-.505.508-.81.656-1.088.745-.405.13-.912.19-2.075.295a22.7 22.7 0 0 1-4.108 0c-1.163-.106-1.67-.164-2.075-.295-.278-.089-.583-.237-1.089-.745-.478-.48-.635-.796-.738-1.135-.145-.477-.209-1.079-.32-2.347"/></svg>