<svg xmlns="http://www.w3.org/2000/svg" viewBox="0 0 44 44"><path d="M16.998 31.5a1.5 1.5 0 0 1 1.5-1.5h7a1.5 1.5 0 0 1 0 3h-7a1.5 1.5 0 0 1-1.5-1.5m.792-17.707c-.43.43-.495.916-.624 1.886A18 18 0 0 0 16.998 18c0 .81.074 1.619.168 2.321.13.97.194 1.456.625 1.886.43.431.916.496 1.886.626.702.093 1.512.167 2.321.167s1.62-.074 2.321-.167c.97-.13 1.456-.195 1.887-.625.43-.431.495-.916.625-1.887.094-.702.167-1.512.167-2.321s-.073-1.619-.167-2.321c-.13-.97-.194-1.456-.625-1.886-.431-.431-.916-.496-1.887-.626A18 18 0 0 0 22 13c-.81 0-1.62.074-2.322.167-.97.13-1.455.195-1.886.626"/><path fill-rule="evenodd" d="M9.998 9 10 22q-.003.492-.002 1c0 2.905.124 5.402.3 7.486.277 3.285.415 4.927 2.464 6.975s3.522 2.172 6.471 2.421c.875.074 1.8.118 2.765.118s1.89-.044 2.765-.118c2.95-.249 4.424-.373 6.472-2.421s2.187-3.69 2.464-6.975c.176-2.084.3-4.581.3-7.486s-.124-5.4-.3-7.484c-.277-3.286-.416-4.93-2.464-6.978s-3.524-2.172-6.475-2.42A33 33 0 0 0 21.998 6c-.963 0-1.888.044-2.762.117-.869.074-1.61.136-2.275.24a64 64 0 0 0-.225-3.922c-.066-.72-.098-1.08-.442-1.505s-.608-.506-1.135-.67a5.6 5.6 0 0 0-1.66-.26 5.6 5.6 0 0 0-1.661.26c-.528.164-.791.246-1.135.67s-.377.785-.443 1.505C10.14 3.767 9.998 5.962 9.998 9m3.289 21.233A86 86 0 0 1 12.998 23c0-2.819.12-5.231.289-7.232.147-1.742.235-2.625.45-3.338.166-.547.427-1.051 1.146-1.77.758-.758 1.241-1.005 1.693-1.15.603-.193 1.337-.27 2.912-.403A30 30 0 0 1 21.998 9c.873 0 1.714.04 2.51.107 1.576.133 2.31.21 2.913.403.451.145.934.392 1.692 1.15.72.719.981 1.223 1.146 1.77.215.713.304 1.595.45 3.338.17 2 .29 4.413.29 7.232s-.12 5.233-.29 7.233c-.146 1.742-.235 2.625-.45 3.337-.165.547-.426 1.05-1.145 1.77-.758.758-1.241 1.005-1.692 1.15-.603.192-1.336.27-2.91.403-.799.067-1.64.107-2.514.107s-1.715-.04-2.513-.107c-1.574-.133-2.307-.21-2.91-.404-.451-.144-.934-.391-1.692-1.15-.72-.718-.98-1.222-1.146-1.77-.215-.712-.303-1.594-.45-3.336"/></svg>