<svg xmlns="http://www.w3.org/2000/svg" viewBox="0 0 32 32"><path fill-rule="evenodd" d="M6.18 9.447 3.365 6.634a1.25 1.25 0 1 1 1.768-1.768l21.25 21.25a1.25 1.25 0 0 1-1.768 1.768l-3.192-3.192c-.091.546-.227 1.126-.447 1.57-.534 1.074-1.452 1.572-2.366 1.792-.82.197-1.75.196-2.533.196h-.156c-.783 0-1.713 0-2.533-.196-.914-.22-1.832-.718-2.366-1.792-.255-.515-.396-1.213-.488-1.828a25 25 0 0 1-.202-2.048 45 45 0 0 1-.083-2.447v-5.325a27 27 0 0 1-1.943-2c-.59-.679-1.209-1.474-1.685-2.296a8 8 0 0 1-.443-.87m8.57 8.57V21a1.25 1.25 0 1 0 2.5 0v-.482zm7-.035v-3.368a27 27 0 0 0 1.943-2c.59-.679 1.209-1.473 1.685-2.296.462-.796.872-1.755.872-2.73 0-1.012-.402-1.854-1.138-2.461-.675-.555-1.553-.851-2.437-1.029-1.73-.348-4.08-.348-6.553-.348h-.243c-2.474 0-4.824 0-6.554.348a8 8 0 0 0-1.145.315z"/></svg>