<svg xmlns="http://www.w3.org/2000/svg" viewBox="0 0 32 32"><path fill-rule="evenodd" d="M19.25 15.482v-1.996l.433-.373.001-.001.007-.007.033-.028.131-.117a24 24 0 0 0 1.951-1.985c.535-.616 1.042-1.277 1.41-1.91.381-.66.534-1.157.534-1.477 0-.282-.08-.41-.228-.531-.21-.173-.617-.362-1.34-.508-1.456-.293-3.557-.299-6.182-.299-2.009 0-3.711.003-5.052.136a1.5 1.5 0 0 1-1.21-.415c-.725-.726-.414-1.837.606-1.956 1.205-.14 2.99-.265 5.535-.265h.243c2.474 0 4.823 0 6.553.348.884.178 1.762.474 2.437 1.029.736.607 1.138 1.45 1.138 2.461 0 .975-.41 1.934-.872 2.73-.476.823-1.094 1.617-1.685 2.296a26 26 0 0 1-1.943 2v.868c0 1.114-1.346 1.672-2.134.884a1.25 1.25 0 0 1-.366-.884M5.134 4.866a1.25 1.25 0 1 0-1.768 1.768L6.18 9.447c.132.306.284.598.443.87.476.823 1.094 1.618 1.685 2.297a26 26 0 0 0 1.943 2v5.325a29 29 0 0 0 .01.7c.01.455.031 1.079.073 1.747.041.665.104 1.392.202 2.048.091.615.233 1.313.488 1.828.534 1.074 1.452 1.572 2.366 1.792.82.197 1.75.196 2.533.196h.156c.783 0 1.714 0 2.533-.196.914-.22 1.832-.718 2.366-1.792.22-.444.356-1.024.447-1.57l3.192 3.192a1.25 1.25 0 0 0 1.768-1.768zm7.616 15.016v-3.864l2 2V21a1.25 1.25 0 1 0 2.5 0v-.482l1.91 1.91a22 22 0 0 1-.168 1.638c-.089.599-.189.952-.254 1.084-.11.22-.278.369-.71.473-.5.12-1.142.127-2.028.127s-1.527-.007-2.027-.127c-.433-.104-.601-.254-.71-.473-.066-.132-.166-.485-.255-1.084a22 22 0 0 1-.18-1.835 43 43 0 0 1-.078-2.303z"/></svg>