<svg xmlns="http://www.w3.org/2000/svg" viewBox="0 0 24 24"><path fill-rule="evenodd" d="M4.207 6.621 2.293 4.707a1 1 0 0 1 1.414-1.414l16.5 16.5a1 1 0 0 1-1.414 1.414l-2.538-2.538c-.072.438-.18.915-.36 1.278-.422.842-1.145 1.23-1.86 1.4-.639.153-1.365.153-1.973.153h-.123c-.609 0-1.335 0-1.975-.152-.714-.17-1.437-.559-1.858-1.4-.202-.404-.313-.95-.384-1.425a19 19 0 0 1-.158-1.586 35 35 0 0 1-.064-1.893v-4.098a21 21 0 0 1-1.503-1.538c-.46-.525-.942-1.141-1.314-1.78a6 6 0 0 1-.476-1.007M11 13.414V16a1 1 0 1 0 2 0v-.586zm5.5-.078v-2.39a21 21 0 0 0 1.503-1.537c.46-.526.942-1.142 1.314-1.78.36-.617.683-1.365.683-2.129 0-.794-.318-1.456-.898-1.93-.53-.433-1.217-.663-1.906-.8-1.348-.27-3.177-.27-5.099-.27h-.193c-1.923 0-3.752 0-5.1.27a7 7 0 0 0-.694.176z"/></svg>