<svg xmlns="http://www.w3.org/2000/svg" viewBox="0 0 44 44"><path fill-rule="evenodd" d="M9.218 13.34 4.44 8.56a1.5 1.5 0 1 1 2.122-2.12l29.5 29.5a1.5 1.5 0 0 1-2.122 2.12l-4.789-4.788c-.04.3-.087.595-.14.874-.111.595-.27 1.233-.518 1.745-.677 1.393-1.845 2.051-3.042 2.345-1.076.265-2.303.264-3.352.264h-.196c-1.048 0-2.275 0-3.352-.264-1.197-.294-2.365-.952-3.042-2.345-.405-.834-.608-2.113-.733-3.224a48 48 0 0 1-.24-3.611 66 66 0 0 1-.034-1.626v-7.42q-.212-.199-.489-.47a35 35 0 0 1-2.155-2.305c-.783-.921-1.598-1.994-2.225-3.1a12 12 0 0 1-.414-.796M20.5 24.62V29a1.5 1.5 0 0 0 3 0v-1.379zm9 .758V20.01a36 36 0 0 0 2.643-2.775c.783-.92 1.598-1.994 2.224-3.1.61-1.075 1.133-2.34 1.133-3.606 0-1.308-.504-2.396-1.444-3.188-.869-.732-2.01-1.129-3.182-1.37C28.58 5.5 25.459 5.5 22.152 5.5h-.302c-3.308 0-6.43 0-8.724.472-.795.164-1.578.4-2.27.763z"/></svg>