<svg xmlns="http://www.w3.org/2000/svg" viewBox="0 0 16 16"><path fill-rule="evenodd" d="m11.375 7.099-.125.139v1.951L3.808 1.748c.217-.112.449-.193.683-.254C5.37 1.267 6.6 1.25 8 1.25s2.63.017 3.51.244c.45.117.895.309 1.23.656.354.37.51.838.51 1.35 0 .515-.178 1.025-.387 1.46-.214.443-.492.87-.758 1.233-.267.365-.532.681-.73.906M3.419 5.48c.152.254.316.495.476.713a13 13 0 0 0 .855 1.045v2.995a23 23 0 0 0 .046 1.255c.023.364.058.763.113 1.125.051.335.131.727.279 1.02.309.61.837.887 1.352 1.009.46.108.981.108 1.415.108h.09c.434 0 .955 0 1.416-.108.514-.122 1.043-.4 1.351-1.01.084-.165.146-.364.194-.566l1.464 1.464a.75.75 0 1 0 1.06-1.06L2.28 2.22a.75.75 0 0 0-1.06 1.06zm5.331 5.33-1.5-1.5V11a.75.75 0 0 0 1.5 0z"/></svg>