<svg xmlns="http://www.w3.org/2000/svg" viewBox="0 0 16 16"><path fill-rule="evenodd" d="M13.968 4.107c.799.794.855 1.385.968 2.568q.038.395.055.822l.009.004v1.553c0 3.132 0 4.687-1.015 5.261a1.4 1.4 0 0 1-.745.185c-.814-.011-1.878-.574-3.499-1.538a39 39 0 0 1-4.963-.099c-1.298-.117-1.947-.175-2.746-.97-.798-.793-.855-1.385-.968-2.566a14 14 0 0 1 0-2.654c.113-1.181.17-1.772.968-2.567.799-.794 1.448-.852 2.747-.97C5.664 3.058 6.739 3 8 3s2.335.057 3.22.137c1.3.117 1.95.175 2.748.97M9.25 8.5a.75.75 0 0 0 0-1.5h-2.5a.75.75 0 0 0 0 1.5z"/></svg>