<svg xmlns="http://www.w3.org/2000/svg" viewBox="0 0 28 28"><path fill-rule="evenodd" d="M25.875 11.17q.067.758.1 1.58l.025.009v3.701c0 5.482 0 8.222-1.776 9.228A2.5 2.5 0 0 1 23 26c-1.266.016-2.877-.759-5.224-2.124A56 56 0 0 1 14 24c-1.864 0-3.49-.085-4.876-.21-2.409-.219-3.613-.328-5.151-1.871s-1.642-2.725-1.848-5.087A33 33 0 0 1 2 14c0-1 .048-1.951.125-2.831.206-2.363.31-3.545 1.848-5.088s2.742-1.652 5.151-1.87A54 54 0 0 1 14 4c1.864 0 3.49.085 4.874.21 2.41.219 3.616.328 5.154 1.871 1.538 1.544 1.641 2.726 1.847 5.09M16 15a1 1 0 1 0 0-2h-4a1 1 0 0 0 0 2z"/></svg>