<svg xmlns="http://www.w3.org/2000/svg" viewBox="0 0 24 24"><path d="M8 13a1 1 0 1 0 0 2h2a1 1 0 1 0 0-2z"/><path fill-rule="evenodd" d="M3 9c0-2.828 0-4.243.879-5.121C4.757 3 6.172 3 8.999 3H12c1.226 0 2.124.094 2.779.224.376.075.563.113 1.278.525s1.07.82 1.782 1.63C19.166 6.894 21 9.447 21 12c0 .7-.03 1.399-.081 2.077-.047.63-.546 1.119-1.171 1.207-1.29.182-2.175.514-3.062 1.402-.888.887-1.22 1.773-1.402 3.062-.088.625-.577 1.124-1.207 1.17A27 27 0 0 1 12 21H9c-2.828 0-4.243 0-5.121-.879C3 19.243 3 17.828 3 15.001zm2.092-3.025C5.004 6.627 5 7.529 5 9v1h13.525a9 9 0 0 0-.364-.744c-.53-.974-1.22-1.867-1.825-2.558-.728-.83-.887-.99-1.279-1.217a4 4 0 0 0-.482-.253l-.002-.001a1.3 1.3 0 0 0-.185-.041C13.891 5.086 13.13 5 12 5H9c-1.47 0-2.373.004-3.025.092-.574.077-.67.187-.681.2h-.001l-.001.002c-.013.011-.123.107-.2.68M5 15v-3h14c0 .46-.015.925-.04 1.386-1.357.25-2.544.742-3.688 1.886s-1.635 2.331-1.886 3.688c-.46.025-.925.04-1.386.04H9c-1.47 0-2.373-.004-3.025-.092-.574-.077-.67-.187-.681-.2h-.001l-.001-.002c-.013-.011-.123-.107-.2-.68C5.004 17.372 5 16.47 5 15"/></svg>