<svg xmlns="http://www.w3.org/2000/svg" viewBox="0 0 44 44"><path fill-rule="evenodd" d="M7.562 7.562C6 9.124 6 11.638 6 16.666v10.668c0 5.028 0 7.542 1.562 9.104S11.638 38 16.666 38H22a50 50 0 0 0 3.693-.144c1.12-.083 1.989-.97 2.146-2.082.324-2.291.914-3.866 2.492-5.443 1.578-1.578 3.152-2.168 5.443-2.492 1.111-.157 1.999-1.027 2.082-2.146.09-1.206.144-2.45.144-3.693 0-4.54-3.26-9.08-5.619-11.77-1.265-1.442-1.897-2.164-3.168-2.898-1.27-.734-1.605-.8-2.273-.933C25.776 6.167 24.18 6 22 6h-5.334c-5.028 0-7.542 0-9.104 1.562M9 16.666c0-2.599.006-4.246.169-5.452.15-1.12.384-1.4.514-1.53.131-.131.412-.365 1.531-.515C12.42 9.006 14.067 9 16.666 9H22c2.034 0 3.427.157 4.354.341.335.067.36.076.42.1h.002c.104.04.345.147.937.49.786.453 1.123.807 2.412 2.277 1.093 1.246 2.347 2.87 3.315 4.648.394.724.724 1.442.977 2.144H9zM14.5 24a1.5 1.5 0 0 0 0 3h4a1.5 1.5 0 0 0 0-3z"/></svg>