<svg xmlns="http://www.w3.org/2000/svg" viewBox="0 0 32 32"><path d="M10.25 17.5a1.25 1.25 0 1 0 0 2.5h3a1.25 1.25 0 1 0 0-2.5z"/><path fill-rule="evenodd" d="M4 12c0-3.771 0-5.657 1.172-6.828S8.229 4 12 4h4c1.635 0 2.832.125 3.705.3.501.099.752.149 1.705.7s1.427 1.09 2.376 2.173C25.554 9.19 28 12.595 28 16c0 .933-.04 1.865-.108 2.77-.063.84-.728 1.491-1.562 1.609-1.718.243-2.898.686-4.082 1.869s-1.626 2.364-1.869 4.082c-.118.834-.77 1.5-1.61 1.562A38 38 0 0 1 16 28h-4c-3.771 0-5.657 0-6.828-1.172S4 23.771 4 20zm2.624-4.056c-.119.884-.124 2.1-.124 4.056v1.498h18.449a12 12 0 0 0-.589-1.237c-.714-1.312-1.642-2.514-2.454-3.44-.969-1.105-1.197-1.34-1.747-1.657-.44-.254-.607-.327-.666-.35l-.006-.002a2 2 0 0 0-.27-.061C18.54 6.617 17.514 6.5 16 6.5h-4c-1.957 0-3.172.005-4.056.124-.798.107-.955.266-1.002.313l-.003.002-.002.003c-.047.047-.206.204-.313 1.002M6.5 20v-4.002h19V16c0 .662-.022 1.329-.061 1.99-1.84.322-3.427.959-4.959 2.49-1.53 1.532-2.168 3.12-2.49 4.959-.661.039-1.328.061-1.99.061h-4c-1.957 0-3.172-.005-4.056-.124-.798-.107-.955-.266-1.002-.313l-.003-.002-.002-.003c-.047-.047-.206-.204-.313-1.002-.119-.884-.124-2.1-.124-4.056"/></svg>