<svg xmlns="http://www.w3.org/2000/svg" viewBox="0 0 17 17"><path fill-rule="evenodd" d="M2.747 14.25c-.622-.621-.622-1.623-.622-3.626v-4.25c0-2.003 0-3.005.622-3.627s1.624-.622 3.627-.622H8.5c.869 0 1.504.066 1.968.159.266.053.4.08.906.372s.758.58 1.262 1.154c.94 1.072 2.238 2.88 2.238 4.689 0 .495-.021.99-.057 1.471-.033.446-.387.792-.83.855-.913.129-1.54.364-2.168.993-.629.628-.864 1.255-.993 2.168-.063.443-.409.797-.855.83-.48.035-.976.057-1.471.057H6.374c-2.003 0-3.005 0-3.627-.622m.971-7.876c0-1.047.004-1.671.064-2.119a1.5 1.5 0 0 1 .089-.376l.003-.005.005-.003.022-.01a1.5 1.5 0 0 1 .354-.08c.448-.06 1.072-.063 2.12-.063h2.124c.791 0 1.319.061 1.657.129l.105.021c.017.007.095.04.315.167.248.144.344.236.86.826.424.483.904 1.105 1.27 1.78q.074.133.138.264H3.718zM7.171 9.03H5.578a.797.797 0 1 0 0 1.594H7.17a.797.797 0 1 0 0-1.594"/></svg>