<svg xmlns="http://www.w3.org/2000/svg" viewBox="0 0 44 44"><path d="M14.5 24a1.5 1.5 0 0 0 0 3h4a1.5 1.5 0 0 0 0-3z"/><path fill-rule="evenodd" d="M6 16.666c0-5.028 0-7.542 1.562-9.104S11.638 6 16.666 6H22c2.18 0 3.776.167 4.94.399.668.133 1.002.2 2.273.933 1.27.734 1.903 1.456 3.168 2.898C34.74 12.92 38 17.46 38 22a50 50 0 0 1-.144 3.693c-.083 1.12-.97 1.989-2.082 2.146-2.291.324-3.866.914-5.443 2.492-1.578 1.578-2.168 3.152-2.492 5.443-.157 1.111-1.027 1.999-2.146 2.082A50 50 0 0 1 22 38h-5.334c-5.028 0-7.542 0-9.104-1.562S6 32.362 6 27.334zm3.169-5.452C9.006 12.42 9 14.067 9 16.666V19h25.417a15.5 15.5 0 0 0-.977-2.144c-.968-1.779-2.222-3.402-3.315-4.648-1.289-1.47-1.626-1.824-2.412-2.278-.592-.342-.833-.449-.937-.489h-.001c-.061-.024-.086-.033-.42-.1C25.426 9.157 24.034 9 22 9h-5.334c-2.599 0-4.246.006-5.452.169-1.12.15-1.4.384-1.53.514-.131.131-.365.412-.515 1.531M9 27.334V22h26c0 .978-.036 1.964-.099 2.937-2.516.407-4.64 1.22-6.692 3.272-2.051 2.052-2.865 4.176-3.272 6.692A46 46 0 0 1 22 35h-5.334c-2.599 0-4.246-.006-5.452-.169-1.12-.15-1.4-.384-1.53-.514-.131-.131-.365-.412-.515-1.531C9.006 31.58 9 29.933 9 27.334"/></svg>