<svg xmlns="http://www.w3.org/2000/svg" viewBox="0 0 16 16"><path fill-rule="evenodd" d="M13.607 9.288c-.25-.583-.416-.967-.517-1.225a3.7 3.7 0 0 1-.21-.806c-.05-.31-.113-.78-.204-1.468a11.3 11.3 0 0 0-.547-2.294c-.359-1.006-.941-1.683-1.945-2.088A5.8 5.8 0 0 0 8.001 1a5.8 5.8 0 0 0-2.183.407c-.571.23-1.006.55-1.341.968l9.4 8.992c.238-.537.12-1.175-.27-2.079M3.327 5.786v.003c-.092.689-.154 1.158-.203 1.468a3.7 3.7 0 0 1-.212.806c-.1.256-.265.636-.514 1.214-.432.998-.535 1.673-.196 2.245.581.978 2.083.978 5.086.978h1.424q.9.002 1.627-.008l2.143 2.05a.75.75 0 0 0 1.036-1.084l-11.5-11A.75.75 0 0 0 .982 3.542zm3.99 7.71a.75.75 0 0 0 0 1.5h1.367a.75.75 0 0 0 0-1.5z"/></svg>