<svg xmlns="http://www.w3.org/2000/svg" viewBox="0 0 44 44"><path fill-rule="evenodd" d="m30.294 34.415 5.145 5.146a1.5 1.5 0 0 0 2.122-2.122l-31-31a1.5 1.5 0 1 0-2.122 2.122l5.98 5.979q-.06.406-.121.844l-.235 1.65c-.222 1.568-.334 2.352-.513 2.972-.18.62-.764 1.922-1.934 4.525C6.6 26.792 5.703 29.641 6.5 31.5c1.336 3.117 7.722 3.062 13.435 3.012.702-.006 1.394-.012 2.065-.012s1.363.006 2.065.012c2.08.018 4.247.037 6.229-.097M37.5 31.5a3.1 3.1 0 0 1-.792 1.087l-24.34-24.34q.258-.36.577-.719c1.823-2.06 2.986-2.374 5.313-3C19.444 4.208 20.712 4 22 4c1.147 0 2.278.165 3.35.427 2.435.595 3.653.893 5.563 3.081s2.122 4.23 2.548 8.314l.037.362c.194 1.863.291 2.795.5 3.54.208.746.949 2.316 2.431 5.457 1.008 2.136 1.793 4.634 1.071 6.319M19 40a1.5 1.5 0 0 1 0-3h6a1.5 1.5 0 0 1 0 3z"/></svg>