<svg xmlns="http://www.w3.org/2000/svg" viewBox="0 0 24 24"><path fill-rule="evenodd" d="M20.17 13.676c.793 1.653 1.062 2.774.613 3.693L7.115 3.7a4.55 4.55 0 0 1 1.494-1.024C9.454 2.31 10.585 2 12.002 2c1.418 0 2.549.309 3.393.676 1.507.657 2.275 1.796 2.778 3.324.263.797.522 1.806.681 3 .183 1.365.274 2.047.346 2.345l.01.04c.033.14.05.212.07.281.022.07.046.139.096.276l.013.038c.104.287.33.757.78 1.696M5.359 7.773 2.293 4.707a1 1 0 0 1 1.414-1.414l17 17a1 1 0 0 1-1.414 1.414l-2.75-2.749c-.927.04-2.019.042-3.294.042h-2.493c-4.393 0-6.607-.03-7.46-1.484-.557-.95-.3-2.104.541-3.854.449-.932.673-1.398.776-1.684l.013-.036c.051-.14.077-.21.098-.282s.039-.144.073-.29l.01-.037c.07-.296.161-.975.343-2.333q.088-.652.209-1.227M13 20h-2a1 1 0 1 0 0 2h2a1 1 0 1 0 0-2"/></svg>