<svg xmlns="http://www.w3.org/2000/svg" viewBox="0 0 44 44"><path fill-rule="evenodd" d="M37.728 30.446c.14-1.758-.593-3.768-1.299-5.265-1.482-3.14-2.223-4.71-2.431-5.457-.209-.745-.306-1.677-.5-3.54l-.037-.362c-.426-4.084-.639-6.126-2.548-8.314s-3.128-2.486-5.563-3.08A14.2 14.2 0 0 0 22 4c-1.288 0-2.556.209-3.742.528-1.927.519-3.361 1.147-4.834 2.518-.546.509-.513 1.365.015 1.893.575.575 1.523.548 2.158.04.497-.398.963-.706 1.182-.818.475-.243 1.021-.403 2.259-.736C20.029 7.158 21.03 7 22 7c.863 0 1.751.125 2.638.341 1.297.318 1.862.47 2.353.714.399.199.881.532 1.661 1.426 1.188 1.361 1.383 2.41 1.825 6.652l.037.362.03.276c.165 1.594.286 2.765.564 3.76.175.627.51 1.407.893 2.258.407.902.972 2.098 1.701 3.643l.014.03c.452.957.797 1.88.962 2.666.021.1.032.221.036.348.017.585.214 1.148.648 1.541.88.796 2.272.61 2.366-.572M6.561 6.438A1.5 1.5 0 1 0 4.439 8.56l5.98 5.979q-.06.406-.121.844l-.235 1.65c-.222 1.568-.334 2.352-.513 2.972-.18.62-.764 1.922-1.934 4.525C6.6 26.792 5.703 29.641 6.5 31.5c1.336 3.117 7.722 3.062 13.435 3.012.702-.006 1.394-.012 2.065-.012s1.363.006 2.065.012c2.08.018 4.247.037 6.229-.097l5.145 5.146a1.5 1.5 0 0 0 2.122-2.122zm6.473 11.017.037-.264L27.398 31.52c-1.036.012-2.105.003-3.19-.007Q23.11 31.502 22 31.5q-1.11.002-2.207.012c-2.474.021-4.869.041-6.96-.183-1.337-.142-2.315-.367-2.964-.643-.44-.188-.582-.334-.615-.377-.045-.117-.136-.572.063-1.54.19-.928.574-1.982 1.035-3.008l.203-.451c.985-2.192 1.637-3.64 1.877-4.47.24-.828.378-1.81.568-3.15zM17.5 38.5A1.5 1.5 0 0 0 19 40h6a1.5 1.5 0 0 0 0-3h-6a1.5 1.5 0 0 0-1.5 1.5m-8.255-8.204.007.01-.002-.002-.002-.005z"/></svg>