<svg xmlns="http://www.w3.org/2000/svg" viewBox="0 0 16 16"><path fill-rule="evenodd" d="M2.5 7.939q0 .88.019 1.694c.049 2.227.073 3.34.712 4.24.755 1.065 1.849 1.53 2.871.707.915-.735 1.372-1.102 1.898-1.102s.983.367 1.897 1.102c1.021.821 2.167.287 2.872-.707.638-.9.663-2.013.712-4.24q.017-.813.018-1.694c0-1.073-.046-2.01-.114-2.808-.12-1.39-.18-2.084-1.002-2.974s-1.46-.953-2.736-1.076a17 17 0 0 0-3.294 0c-1.276.123-1.914.185-2.737 1.076-.822.89-.882 1.585-1.001 2.974A33 33 0 0 0 2.5 7.939M7.243 9a.75.75 0 0 0 1.5 0V7.75h1.249a.75.75 0 1 0 0-1.5H8.743V4.986a.75.75 0 1 0-1.5 0V6.25H5.992a.75.75 0 1 0 0 1.5h1.251z"/></svg>