<svg xmlns="http://www.w3.org/2000/svg" viewBox="0 0 44 44"><path fill-rule="evenodd" d="M14 37c-.251 0-.376-.052-.516-.167-.196-.16-.584-.593-.998-1.664C11.632 32.959 11 28.922 11 22c0-2.63.108-4.923.269-6.879.161-1.963.26-3 .522-3.855.211-.69.557-1.336 1.458-2.231.923-.919 1.555-1.252 2.184-1.447.785-.244 1.727-.332 3.58-.473A39 39 0 0 1 22 7c1.04 0 2.04.043 2.987.115 1.853.141 2.795.229 3.58.473.629.195 1.26.528 2.184 1.447.901.895 1.247 1.541 1.458 2.23.261.855.361 1.893.522 3.856.16 1.956.269 4.25.269 6.879 0 6.782-.63 10.83-1.49 13.082-.42 1.098-.818 1.565-1.033 1.746A.64.64 0 0 1 30 37c-.527 0-1.002-.24-2.255-1.295l-.23-.197C26.51 34.644 24.598 33 22 33s-4.51 1.644-5.514 2.508l-.23.197C15.001 36.76 14.526 37 14 37m21.721-22.125c-.306-3.723-.458-5.585-2.855-7.968s-4.148-2.516-7.65-2.783A42 42 0 0 0 22 4a42 42 0 0 0-3.215.124c-3.504.267-5.255.4-7.651 2.783s-2.55 4.245-2.855 7.969A87 87 0 0 0 8 22c0 14 2.5 18 6 18 1.817 0 3.096-1.079 4.325-2.116C19.462 36.924 20.558 36 22 36s2.538.924 3.675 1.884C26.906 38.921 28.184 40 30 40c3.5 0 6-4.261 6-18 0-2.712-.112-5.088-.279-7.125M22 11a1.5 1.5 0 0 1 1.5 1.5V17H28a1.5 1.5 0 0 1 0 3h-4.5v4.5a1.5 1.5 0 0 1-3 0V20H16a1.5 1.5 0 0 1 0-3h4.5v-4.5A1.5 1.5 0 0 1 22 11"/></svg>