<svg xmlns="http://www.w3.org/2000/svg" viewBox="0 0 16 16"><path fill-rule="evenodd" d="M13.349 7.25a.594.594 0 0 0 .597-.634c-.13-1.744-.194-2.616-1.07-3.49-.875-.876-1.747-.941-3.49-1.07a.594.594 0 0 0-.635.597V5.91c0 .632 0 .948.196 1.144s.512.196 1.144.196zm-4.598 6.1c0 .345.289.623.634.597 1.744-.13 2.616-.195 3.491-1.07.876-.875.94-1.747 1.07-3.491a.596.596 0 0 0-.6-.636h-3.255c-.632 0-.948 0-1.144.196s-.196.512-.196 1.144zM3.124 3.125c.876-.875 1.748-.94 3.492-1.07a.595.595 0 0 1 .635.6V5.91c0 .632 0 .948-.196 1.144s-.512.196-1.144.196h-3.26a.594.594 0 0 1-.597-.634c.13-1.744.195-2.616 1.07-3.49m-.47 5.624a.596.596 0 0 0-.6.636c.13 1.744.195 2.616 1.07 3.491.876.875 1.748.94 3.492 1.07a.595.595 0 0 0 .635-.6V10.09c0-.632 0-.948-.196-1.144S6.543 8.75 5.91 8.75z"/></svg>