<svg xmlns="http://www.w3.org/2000/svg" viewBox="0 0 24 24"><path d="M14.998 6.5c0-.82-.93-1.372-2.79-2.477l-1.136-.674c-1.808-1.074-2.711-1.61-3.393-1.222s-.681 1.44-.681 3.544L7 16a1 1 0 1 0 2 0v-5.21c.529-.223 1.192-.617 2.068-1.137l1.14-.677c1.86-1.104 2.79-1.657 2.79-2.477"/><path fill-rule="evenodd" d="M3.91 15.443a5.4 5.4 0 0 1 1.09-.85V16a3 3 0 0 0 6 0v-2.974A19 19 0 0 1 12 13c2.314 0 4.456.408 6.058 1.109.799.35 1.509.792 2.032 1.334.529.546.91 1.243.91 2.057s-.381 1.51-.91 2.057c-.523.542-1.233.984-2.032 1.334C16.456 21.591 14.314 22 12 22s-4.456-.408-6.058-1.109c-.799-.35-1.509-.792-2.032-1.334C3.38 19.011 3 18.314 3 17.5s.381-1.51.91-2.057M15.5 18.9a1.4 1.4 0 1 0 0-2.8 1.4 1.4 0 0 0 0 2.8"/></svg>