<svg xmlns="http://www.w3.org/2000/svg" viewBox="0 0 16 16"><path d="M7.976 2.348C9.218 3.085 9.838 3.453 9.838 4s-.62.914-1.862 1.65l-.758.45c-.498.296-.893.53-1.218.686v3.464a.75.75 0 0 1-1.5 0V3.447c0-1.403 0-2.104.455-2.363.454-.259 1.057.099 2.263.815z"/><path fill-rule="evenodd" d="M3 9.528c-.587.515-.996 1.176-.996 1.972 0 1.178.897 2.063 1.94 2.609 1.077.564 2.514.891 4.06.891s2.983-.327 4.06-.891c1.042-.546 1.94-1.43 1.94-2.609 0-1.178-.898-2.063-1.94-2.609C10.987 8.327 9.55 8 8.004 8q-.255 0-.504.012v2.238a2.25 2.25 0 0 1-4.5 0zm7.498 1.972a1 1 0 1 1-2 0 1 1 0 0 1 2 0"/></svg>