<svg xmlns="http://www.w3.org/2000/svg" viewBox="0 0 24 24"><path fill-rule="evenodd" d="M5.707 3.293a1 1 0 0 0-1.414 1.414l2.509 2.509a41 41 0 0 0-2.295 1.212 49 49 0 0 0-2.01 1.206l-.03.02-.008.005-.004.003a1 1 0 1 0 1.09 1.676h.001l.006-.004.026-.017a28 28 0 0 1 .503-.315c.344-.212.833-.506 1.412-.834a37 37 0 0 1 2.811-1.45l1.77 1.77q-.166.067-.324.136c-.768.334-1.575.757-2.236 1.124a41 41 0 0 0-1.423.83l-.088.054-.024.014-.009.006a1 1 0 1 0 1.06 1.696l.006-.003.02-.013.08-.049q.106-.066.304-.184c.26-.155.626-.37 1.046-.603a25 25 0 0 1 2.061-1.038c.463-.201.833-.33 1.098-.399l6.648 6.648a1 1 0 0 0 1.414-1.414zm7.656 2.275a1 1 0 1 0-.725 1.864l.016.006.052.02a46 46 0 0 1 .912.37 50 50 0 0 1 2.456 1.077c.793.373 1.887.98 2.803 1.507a97 97 0 0 1 1.484.87l.09.055.032.019a1 1 0 1 0 1.034-1.712l-.033-.02-.095-.057-.348-.207a85 85 0 0 0-1.168-.682c-.918-.528-2.073-1.171-2.946-1.583a59 59 0 0 0-3.28-1.415l-.208-.082-.056-.022zM9.7 17.001c0 .413.19.634.572 1.076a6 6 0 0 0 .653.653c.441.38.662.57 1.075.57s.634-.19 1.076-.57a6 6 0 0 0 .653-.653c.38-.442.57-.663.57-1.076s-.19-.634-.57-1.076a6 6 0 0 0-.653-.653c-.442-.38-.663-.57-1.076-.57s-.633.19-1.075.57a6 6 0 0 0-.653.653c-.381.442-.572.663-.572 1.076"/></svg>