<svg xmlns="http://www.w3.org/2000/svg" viewBox="0 0 16 16"><path d="M3.635 10.867A29 29 0 0 1 3.5 8c0-1.115.056-2.07.135-2.866.072-.718.112-1.048.194-1.308.057-.181.144-.356.418-.63.273-.272.448-.359.629-.415.26-.082.59-.121 1.306-.191a18.6 18.6 0 0 1 3.636 0c.717.07 1.046.109 1.306.19.18.057.355.144.63.417.273.273.36.448.417.629.082.26.122.59.194 1.308.073.735.126 1.608.134 2.616a.75.75 0 1 0 1.5-.044 30 30 0 0 0-.142-2.721c-.133-1.339-.2-2.008-1.044-2.85s-1.512-.907-2.85-1.038a20 20 0 0 0-3.927 0c-1.337.13-2.005.196-2.849 1.038s-.91 1.511-1.044 2.85C2.059 5.829 2 6.835 2 8s.059 2.171.143 3.016c.134 1.338.2 2.007 1.044 2.848.844.842 1.512.908 2.848 1.039C6.636 14.962 7.297 15 8 15c.256 0 .506-.01.75-.02a.75.75 0 1 0-.111-1.491 18 18 0 0 1-2.458-.08c-.716-.07-1.045-.108-1.305-.19-.18-.056-.356-.143-.63-.416-.273-.273-.36-.448-.417-.629-.082-.26-.122-.59-.194-1.307"/><path d="M15 12a.75.75 0 0 1-.75.75h-1.5v1.5a.75.75 0 0 1-1.5 0v-1.5H9.748a.75.75 0 0 1 0-1.5h1.502V9.749a.75.75 0 0 1 1.5 0v1.501h1.5A.75.75 0 0 1 15 12M4.998 5.25a.75.75 0 0 1 .75-.75H8.75a.75.75 0 0 1 0 1.5H5.748a.75.75 0 0 1-.75-.75M7.25 9.002a.75.75 0 1 0 0-1.5h-1.5a.75.75 0 0 0 0 1.5z"/></svg>