<svg xmlns="http://www.w3.org/2000/svg" viewBox="0 0 24 24"><path d="M6 12c0 1.492.065 2.787.16 3.883.094 1.078.149 1.601.278 2.022.097.312.25.612.699 1.06.46.458.755.606 1.043.696.394.123.879.173 1.916.26a23 23 0 0 0 2.905.06 1 1 0 0 1 1 1c0 .552-.456 1-1.008 1a25 25 0 0 1-3.063-.068c-1.94-.161-2.911-.242-4.205-1.532-1.294-1.289-1.381-2.301-1.557-4.325A47 47 0 0 1 4 12c0-1.549.068-2.901.168-4.054.175-2.025.263-3.038 1.557-4.327s2.265-1.37 4.207-1.532a25 25 0 0 1 4.137 0c1.941.162 2.912.242 4.206 1.532s1.382 2.302 1.557 4.327a46 46 0 0 1 .165 3.468L20 11.5a1 1 0 0 1-1 1 1 1 0 0 1-1.002-.996 44 44 0 0 0-.158-3.385c-.094-1.079-.149-1.602-.278-2.023-.097-.313-.25-.613-.699-1.06-.46-.458-.755-.607-1.043-.697-.394-.122-.88-.173-1.917-.259a23 23 0 0 0-3.805 0c-1.038.086-1.524.137-1.918.26-.288.09-.584.238-1.043.696-.449.447-.602.747-.699 1.06-.13.42-.184.944-.278 2.023A45 45 0 0 0 6 12"/><path d="M18 22a1 1 0 0 1-1-1v-2h-2a1 1 0 1 1 0-2h2v-2a1 1 0 1 1 2 0v2h2a1 1 0 1 1 0 2h-2v2a1 1 0 0 1-1 1M14 8a1 1 0 0 1-1 1H9a1 1 0 1 1 0-2h4a1 1 0 0 1 1 1m-3 5a1 1 0 1 0 0-2H9a1 1 0 1 0 0 2z"/></svg>