<svg xmlns="http://www.w3.org/2000/svg" viewBox="0 0 16 16"><path d="M5.644 5.75a.9.9 0 1 1-1.8 0 .9.9 0 0 1 1.8 0"/><path fill-rule="evenodd" d="M10.667 3.445c-.476.007-2.636-.615-4.795-1.277C3.462 1.428 1 3.221 1 5.75a3.73 3.73 0 0 0 2.003 3.312q.09 1.546.325 3.075l.113.734c.1.65.66 1.13 1.318 1.13h1.915c.817 0 1.442-.728 1.318-1.535l-.05-.329a33 33 0 0 1-.339-3.325c1.48-.434 2.718-.762 3.063-.757l2.282.902A.77.77 0 0 0 14 8.238V3.262a.77.77 0 0 0-1.052-.719zM10 4.87a10 10 0 0 1-.306-.065 29 29 0 0 1-1.189-.3c-.891-.244-1.988-.57-3.072-.903C3.973 3.154 2.5 4.244 2.5 5.75s1.472 2.596 2.932 2.148a109 109 0 0 1 3.073-.902c.445-.122.852-.226 1.189-.301.09-.02.195-.043.306-.064zm1.5 1.902 1 .395V4.333l-1 .396zM6.124 9.254l-.253.078c-.45.138-.9.188-1.337.161q.09 1.213.276 2.416l.09.593h1.58l-.02-.137a34 34 0 0 1-.335-3.11"/></svg>