<svg xmlns="http://www.w3.org/2000/svg" viewBox="0 0 24 24"><path d="M8.75 8.5a1.25 1.25 0 1 1-2.5 0 1.25 1.25 0 0 1 2.5 0"/><path fill-rule="evenodd" d="m19.629 3.581-3.63 1.425c-.703.01-3.76-.845-6.838-1.768C5.61 2.175 2 4.801 2 8.5c0 2.177 1.251 3.982 3.004 4.883a49 49 0 0 0 .5 4.821l.169 1.1A2 2 0 0 0 7.649 21H9.5a2 2 0 0 0 1.977-2.304l-.076-.492a49 49 0 0 1-.506-4.955c2.42-.703 4.536-1.264 5.106-1.255l3.629 1.425q.186.073.371.072a1 1 0 0 0 1-1V4.509a1 1 0 0 0-1.371-.927M15 10.111V6.889a15 15 0 0 1-.354-.072 38 38 0 0 1-1.689-.415 151 151 0 0 1-4.371-1.25C6.291 4.463 4 6.169 4 8.5s2.291 4.037 4.586 3.35a151 151 0 0 1 4.371-1.252 38 38 0 0 1 1.69-.414q.164-.037.353-.072m4 .906-2-.78v-3.48l2-.799zm-10.077 2.81a5.6 5.6 0 0 1-1.879.15q.135 1.97.436 3.923l.17 1.1H9.5l-.076-.492a51 51 0 0 1-.5-4.68"/></svg>