<svg xmlns="http://www.w3.org/2000/svg" viewBox="0 0 32 32"><path fill-rule="evenodd" d="M5.5 12.252v.248h9.199a61 61 0 0 0 5.27-.218c2.633-.229 3.95-.643 5.626-2.325.771-.774 1.21-1.46 1.48-2.22.149-.422.525-.737.972-.737a.95.95 0 0 1 .951.95v15.1a.95.95 0 0 1-.95.95c-.447 0-.823-.315-.972-.736-.27-.761-.708-1.447-1.48-2.221-1.619-1.624-2.901-2.01-5.357-2.24a4.36 4.36 0 0 1 .759 2.446c0 2.9-2.91 5.251-6.5 5.251s-6.5-2.35-6.5-5.251c0-.992.34-1.91.932-2.688H5.5v.189a1.25 1.25 0 1 1-2.5 0v-6.498a1.25 1.25 0 1 1 2.5 0m12.998 8.997c0 1.048-1.266 2.751-4 2.751s-4-1.703-4-2.751 1.266-2.671 4-2.671 4 1.624 4 2.671"/></svg>