<svg xmlns="http://www.w3.org/2000/svg" viewBox="0 0 24 24"><path fill-rule="evenodd" d="M15.469 14.204c1.755.158 2.714.319 3.913 1.521.247.249.45.485.618.719q.081.113.15.224a4 4 0 0 1 .37.765c.115.324.405.567.749.567a.73.73 0 0 0 .731-.732V4.731A.73.73 0 0 0 21.268 4c-.343 0-.633.243-.748.567q-.03.083-.062.164a4 4 0 0 1-.458.825c-.168.234-.37.47-.618.719-1.29 1.294-2.302 1.382-4.327 1.557C13.902 7.932 12.55 8 11 8H4a1 1 0 0 0-2 0v6a1 1 0 1 0 2 0h2.669A3.4 3.4 0 0 0 6 16c0 2.21 2.239 4 5 4s5-1.79 5-4a3.35 3.35 0 0 0-.531-1.796M4.03 10q-.03.485-.03.998v.004q0 .513.03.998H11c1.608 0 3.018.07 4.227.175l.122.01c.91.08 1.86.161 2.734.43a6 6 0 0 1 1.917.993V8.392a6 6 0 0 1-1.917.992c-.875.27-1.824.352-2.734.43l-.121.01A49 49 0 0 1 11 10zM11 14c-2.096 0-3 1.289-3 2s.904 2 3 2 3-1.289 3-2-.904-2-3-2"/></svg>