<svg xmlns="http://www.w3.org/2000/svg" viewBox="0 0 17 17"><path fill-rule="evenodd" d="M2.656 6.107v.267h5.1c1.152 0 2.157-.05 3.014-.124 1.506-.131 2.26-.196 3.218-1.159.442-.443.693-1.047.847-1.482.085-.241.3-.422.556-.422.3 0 .545.244.545.544v9.005c0 .3-.244.544-.545.544-.255 0-.47-.18-.556-.422-.154-.435-.405-1.04-.847-1.482-.82-.823-1.49-.99-2.609-1.103.2.357.312.751.312 1.166 0 1.603-1.665 2.903-3.719 2.903s-3.718-1.3-3.718-2.903a2.4 2.4 0 0 1 .423-1.346H2.656v.266a.797.797 0 1 1-1.594 0V6.107a.797.797 0 0 1 1.594 0m5.26 3.986c-1.52.023-2.069.972-2.069 1.346 0 .378.562 1.31 2.125 1.31 1.564 0 2.126-.932 2.126-1.31 0-.37-.538-1.304-2.024-1.345z"/></svg>