<svg xmlns="http://www.w3.org/2000/svg" viewBox="0 0 32 32"><path fill-rule="evenodd" d="M14.699 11H5.5v-.25a1.25 1.25 0 1 0-2.5 0v3.772a10 10 0 0 0 0 .466v3.762a1.25 1.25 0 1 0 2.5 0v-.19h3.43c-.592.78-.932 1.697-.932 2.689 0 2.9 2.91 5.251 6.5 5.251s6.5-2.35 6.5-5.251c0-.89-.274-1.722-.759-2.446 2.456.23 3.738.616 5.357 2.24.372.373.666.726.902 1.076q.084.124.158.25a5 5 0 0 1 .42.895c.149.42.525.736.972.736a.95.95 0 0 0 .95-.95V6.45a.95.95 0 0 0-.95-.95c-.448 0-.824.315-.973.737a5 5 0 0 1-.577 1.142 7.3 7.3 0 0 1-.903 1.078c-1.677 1.682-2.993 2.096-5.626 2.325A61 61 0 0 1 14.7 11m-9.2 3.545v.426c.005.358.02.728.043 1.09H14.7c2.087 0 3.916.09 5.486.227 1.35.117 2.629.282 3.838.738a8.5 8.5 0 0 1 2.474 1.456V11.02a8.8 8.8 0 0 1-2.44 1.47c-1.214.478-2.495.662-3.872.782-1.57.136-3.4.227-5.487.227H5.543a27 27 0 0 0-.043 1.045m12.998 6.704c0 1.048-1.266 2.751-4 2.751s-4-1.703-4-2.751 1.266-2.671 4-2.671 4 1.624 4 2.671"/></svg>