<svg xmlns="http://www.w3.org/2000/svg" viewBox="0 0 24 24"><path fill-rule="evenodd" d="M21 5.175c0-.143 0-.214-.006-.27a1 1 0 0 0-1.09-.883c-.056.005-.126.02-.265.05l-.61.129a10.3 10.3 0 0 1-5.911-.49 10.32 10.32 0 0 0-6.36-.383l-.867.224a2 2 0 0 0-.26.076 1 1 0 0 0-.623.805C5 4.495 5 4.564 5 4.703V20a1 1 0 1 0 2 0v-4.153a10.3 10.3 0 0 1 6.118.444c1.88.738 3.935.908 5.911.489l.985-.209c.183-.039.275-.058.352-.088a1 1 0 0 0 .62-.766c.014-.082.014-.175.014-.362zM15 6.28a12.3 12.3 0 0 1-2.613-.707A8.3 8.3 0 0 0 11 5.164V9.42a10.3 10.3 0 0 0-4 .137v4.246a12.3 12.3 0 0 1 4-.114v-4.27c.72.118 1.43.312 2.118.581.611.24 1.242.42 1.882.54v4.247a8.3 8.3 0 0 0 3.614.036l.386-.081v-4.246a10.3 10.3 0 0 1-4 .044z"/></svg>