<svg xmlns="http://www.w3.org/2000/svg" viewBox="0 0 32 32"><path fill-rule="evenodd" d="M28 6.984c0-.286 0-.43-.02-.542a1.33 1.33 0 0 0-1.355-1.106c-.114.004-.254.033-.534.09l-.813.166a14.63 14.63 0 0 1-8.117-.652A14.6 14.6 0 0 0 12 4a14.6 14.6 0 0 0-3.572.428l-1.158.29c-.247.062-.37.092-.475.138-.409.18-.7.554-.776.994C6 5.962 6 6.09 6 6.344V26.75a1.25 1.25 0 1 0 2.5 0v-5.644a14.63 14.63 0 0 1 8.661.53 14.63 14.63 0 0 0 8.117.652l1.32-.27c.318-.065.477-.098.609-.156.388-.172.671-.519.762-.934.031-.14.031-.303.031-.627zm-8 1.244a17 17 0 0 1-3.724-.95c-.74-.28-1.503-.487-2.276-.617v5.898c-1.903-.3-3.617-.222-5.5.241v5.744a17.1 17.1 0 0 1 5.5-.237v-5.748c.99.156 2.217.414 3.162.774.841.32 1.958.56 2.838.719v5.804a12.1 12.1 0 0 0 4.776-.017l.724-.148v-5.75l-.21.044c-1.833.377-3.465.396-5.29.067z"/></svg>