<svg xmlns="http://www.w3.org/2000/svg" viewBox="0 0 16 16"><path d="M5.186 13.815c.436.06.814-.293.814-.734a.786.786 0 0 0-.685-.766c-.64-.094-.854-.222-1.13-.498-.277-.277-.405-.492-.5-1.133A.785.785 0 0 0 2.92 10c-.441 0-.794.377-.734.814.121.871.341 1.466.938 2.063.596.597 1.191.817 2.062.938m8.627-3.001c.06-.436-.292-.814-.733-.814a.785.785 0 0 0-.766.685c-.094.64-.222.855-.499 1.131-.276.277-.49.405-1.13.5a.786.786 0 0 0-.685.765c0 .44.378.794.814.734.87-.121 1.466-.341 2.062-.938.597-.597.817-1.192.937-2.063m-2.999-8.626c-.437-.06-.814.292-.814.733 0 .39.298.71.684.766.64.094.855.222 1.131.499.277.276.405.49.5 1.13a.785.785 0 0 0 .765.685c.44 0 .794-.377.733-.814-.12-.87-.34-1.465-.937-2.062s-1.192-.816-2.062-.937m-5.628 0c.437-.06.814.292.814.733 0 .39-.299.71-.684.766-.64.094-.855.222-1.132.499-.276.276-.404.49-.498 1.13A.786.786 0 0 1 2.92 6c-.44 0-.794-.378-.733-.814.12-.87.34-1.465.937-2.06.596-.597 1.191-.818 2.062-.938M3.75 7.25a.75.75 0 0 0 0 1.5h8.5a.75.75 0 0 0 0-1.5z"/></svg>