<svg xmlns="http://www.w3.org/2000/svg" viewBox="0 0 32 32"><path fill-rule="evenodd" d="M18.498 6.493c0-1.483-1.217-2.702-2.68-2.463C9.08 5.133 3.998 10.072 3.998 16c0 5.927 5.082 10.867 11.82 11.97 1.463.239 2.68-.98 2.68-2.463zM6.498 16c0-4.31 3.733-8.432 9.5-9.464v18.928c-5.767-1.032-9.5-5.153-9.5-9.464"/><path d="M21.002 8.254c0-.69.56-1.25 1.25-1.25h4.497a1.25 1.25 0 0 1 0 2.5h-4.497c-.69 0-1.25-.56-1.25-1.25m0 16.496c0-.69.56-1.25 1.25-1.25h4.497a1.25 1.25 0 1 1 0 2.5h-4.497c-.69 0-1.25-.56-1.25-1.25m1.252-12.247a1.25 1.25 0 0 0 0 2.5h5.497a1.25 1.25 0 0 0 0-2.5zm-1.25 6.749c0-.69.56-1.25 1.25-1.25h5.497a1.25 1.25 0 0 1 0 2.5h-5.497c-.69 0-1.25-.56-1.25-1.25"/></svg>