<svg xmlns="http://www.w3.org/2000/svg" viewBox="0 0 17 17"><path d="M8.68 2.138c.774-.113 1.412.532 1.412 1.315v10.092c0 .783-.638 1.428-1.412 1.316-3.727-.541-6.555-3.184-6.555-6.362s2.828-5.82 6.555-6.361m3.006 1.85c0-.44.357-.797.797-.797h2.125a.797.797 0 0 1 0 1.594h-2.125a.797.797 0 0 1-.797-.797m0 3.008c0-.44.357-.797.797-.797h2.656a.797.797 0 0 1 0 1.594h-2.656a.797.797 0 0 1-.797-.797m.797 2.212a.797.797 0 1 0 0 1.593h2.656a.797.797 0 0 0 0-1.593zm-.797 3.805c0-.44.357-.796.797-.796h2.125a.797.797 0 0 1 0 1.593h-2.125a.797.797 0 0 1-.797-.797"/></svg>