<svg xmlns="http://www.w3.org/2000/svg" viewBox="0 0 16 16"><path fill-rule="evenodd" d="M7.223 3.523C7.48 3.51 7.743 3.5 8 3.5c.258 0 .52.009.777.023s.443.025.604.04c.156.015.247.031.305.045.05.013.067.022.074.026a.4.4 0 0 1 .082.066l.001.001.02.02.02.021v.002a.7.7 0 0 1 .088.118v.001l.006.015c.004.019.012.065.017.17.006.113.006.246.006.452s0 .339-.006.451a1 1 0 0 1-.022.186H9.97a.7.7 0 0 1-.087.12h-.002l-.02.022-.019.02-.001.001a.4.4 0 0 1-.082.066.3.3 0 0 1-.074.026 2 2 0 0 1-.305.045c-.16.015-.347.025-.604.04a13 13 0 0 1-1.553 0 17 17 0 0 1-.604-.04 2 2 0 0 1-.305-.045.3.3 0 0 1-.074-.026.4.4 0 0 1-.082-.066h-.001l-.02-.02-.02-.021v-.002a.7.7 0 0 1-.088-.118v-.001l-.006-.015a1 1 0 0 1-.017-.17A10 10 0 0 1 6 4.5c0-.206 0-.339.006-.451a1 1 0 0 1 .022-.186h.001a.7.7 0 0 1 .087-.12h.002l.02-.022.019-.02.001-.001a.4.4 0 0 1 .082-.066.3.3 0 0 1 .074-.026 2 2 0 0 1 .305-.045c.16-.015.347-.025.604-.04M4.5 4.5c0-.785 0-1.178.484-1.74a3 3 0 0 1 .128-.136c.535-.515 1.032-.543 2.026-.599a15 15 0 0 1 1.723 0c.995.056 1.492.084 2.027.6.031.03.1.102.128.135.279.324.397.591.447.91l2.673-.411a.75.75 0 1 1 .228 1.482l-2.883.444c-.037.386-.145.683-.465 1.055a3 3 0 0 1-.128.136c-.535.515-1.032.543-2.026.599a15 15 0 0 1-1.723 0c-.995-.056-1.492-.084-2.027-.6a3 3 0 0 1-.128-.135C4.5 5.678 4.5 5.285 4.5 4.5m3.5 8c.62 0 1.151-.023 1.607-.061.986-.083 2.08-.36 2.876-.806.806-.45 1.017-.884 1.017-1.244 0-.596-.005-.853-.038-1.036a.4.4 0 0 0-.028-.102.4.4 0 0 0-.056-.078l-.004-.005-.021-.021-.012-.012-.01-.009-.004-.005.003.003-.005-.004c-.019-.018-.051-.047-.232-.075-.269-.041-.642-.045-1.36-.045H4.267c-.717 0-1.09.004-1.36.045-.18.028-.212.057-.232.075l-.004.004.003-.003-.005.005-.042.042-.004.005a.4.4 0 0 0-.056.078.4.4 0 0 0-.028.102c-.033.183-.038.44-.038 1.036 0 .36.21.793 1.017 1.245.797.445 1.89.722 2.876.805q.68.059 1.607.061m6.503-4.32C15 8.748 15 9.295 15 10.39c0 2.273-3.003 3.356-5.268 3.544C9.23 13.975 8.657 14 8 14s-1.23-.025-1.732-.067C4.003 13.745 1 12.662 1 10.39c0-1.095 0-1.642.497-2.208.047-.054.13-.137.184-.184C2.247 7.5 2.92 7.5 4.266 7.5h7.468c1.346 0 2.02 0 2.585.497.054.047.137.13.184.184M5 11.5a1 1 0 1 0 0-2 1 1 0 0 0 0 2m4-.75a1 1 0 1 1-2 0 1 1 0 0 1 2 0m2 .75a1 1 0 1 0 0-2 1 1 0 0 0 0 2"/></svg>