<svg xmlns="http://www.w3.org/2000/svg" viewBox="0 0 24 24"><path fill-rule="evenodd" d="M16.263 10.12c.545-.562.66-1.035.706-1.794l4.227-.845a1 1 0 1 0-.392-1.962l-3.868.774c-.068-.55-.225-.951-.673-1.412-.668-.688-1.349-.734-2.71-.826A23 23 0 0 0 12 4c-.528 0-1.056.022-1.554.055-1.36.092-2.04.138-2.71.826-.668.688-.689 1.244-.73 2.357a7 7 0 0 0 0 .524c.041 1.113.062 1.67.73 2.357.67.688 1.35.734 2.71.826A23 23 0 0 0 12 11c.528 0 1.056-.022 1.554-.055 1.36-.092 2.04-.138 2.71-.826M12 21q1.07 0 1.939-.04C17.39 20.81 22 19.454 22 16c0-1.304 0-1.957-.554-2.736a3.6 3.6 0 0 0-.71-.71C19.957 12 19.126 12 17.46 12H6.54c-1.665 0-2.497 0-3.277.554a3.6 3.6 0 0 0-.71.71C2 14.044 2 14.696 2 16c0 3.454 4.61 4.81 8.061 4.96Q10.93 21 12 21m-4.75-3.5a1.25 1.25 0 1 0 0-2.5 1.25 1.25 0 0 0 0 2.5m6-1a1.25 1.25 0 1 1-2.5 0 1.25 1.25 0 0 1 2.5 0m4.25-.25a1.25 1.25 0 1 1-2.5 0 1.25 1.25 0 0 1 2.5 0"/></svg>