<svg xmlns="http://www.w3.org/2000/svg" viewBox="0 0 24 24"><path fill-rule="evenodd" d="M10.58 6.05c.464-.03.946-.05 1.42-.05s.956.02 1.42.05c.35.024.608.042.828.065.217.023.343.046.422.066a1 1 0 0 1 .085.029q.002 0 .016.011.016.01.057.053a1 1 0 0 1 .095.112l.004.015c.009.032.024.105.037.263a15 15 0 0 1 .036.853q0 .083-.004.169c-.01.29-.019.485-.032.65a2 2 0 0 1-.037.263l-.004.015-.018.026a1 1 0 0 1-.15.15l-.016.007-.069.022c-.079.02-.205.043-.422.066-.22.023-.477.04-.828.064C12.956 8.98 12.474 9 12 9s-.956-.02-1.42-.05c-.35-.024-.608-.042-.828-.065a3 3 0 0 1-.422-.066 1 1 0 0 1-.085-.029l-.016-.011a1 1 0 0 1-.152-.165l-.004-.015a2 2 0 0 1-.037-.263A15 15 0 0 1 9 7.5q0-.09.004-.186c.01-.29.018-.485.032-.65a2 2 0 0 1 .04-.278l.02-.026a1 1 0 0 1 .149-.15l.016-.007.069-.022c.079-.02.205-.043.422-.066.22-.023.477-.04.828-.064m6.39 2.276c-.047.759-.162 1.232-.707 1.793-.668.688-1.349.734-2.71.826A23 23 0 0 1 12 11a23 23 0 0 1-1.554-.055c-1.36-.092-2.04-.138-2.71-.826-.668-.688-.689-1.244-.73-2.357a7 7 0 0 1 0-.524c.041-1.113.062-1.67.73-2.357.67-.688 1.35-.734 2.71-.826A23 23 0 0 1 12 4c.528 0 1.056.022 1.554.055 1.36.092 2.04.138 2.71.826.447.46.604.863.672 1.412l3.868-.774a1 1 0 0 1 .392 1.962zM7.25 17.5a1.25 1.25 0 1 0 0-2.5 1.25 1.25 0 0 0 0 2.5m6-1a1.25 1.25 0 1 1-2.5 0 1.25 1.25 0 0 1 2.5 0m3 1a1.25 1.25 0 1 0 0-2.5 1.25 1.25 0 0 0 0 2.5M12 19q1.03-.001 1.852-.038c1.552-.068 3.267-.409 4.52-1.033C19.626 17.303 20 16.644 20 16c0-.707-.006-1.014-.043-1.242a.67.67 0 0 0-.138-.332l-.026-.03a2 2 0 0 0-.22-.215c-.068-.049-.149-.095-.41-.13-.35-.047-.82-.051-1.703-.051H6.54c-.883 0-1.353.004-1.703.051-.261.035-.342.081-.41.13l-.032.026a2 2 0 0 0-.188.188l-.026.031a.67.67 0 0 0-.138.332C4.006 14.986 4 15.293 4 16c0 .643.373 1.303 1.629 1.929 1.252.624 2.967.965 4.52 1.033Q10.968 19 12 19m1.939 1.96Q13.07 21 12 21t-1.939-.04C6.61 20.81 2 19.454 2 16c0-1.304 0-1.957.554-2.736.16-.226.484-.55.71-.71C4.043 12 4.874 12 6.54 12h10.92c1.665 0 2.496 0 3.276.554.226.16.55.483.71.71C22 14.044 22 14.696 22 16c0 3.454-4.61 4.81-8.061 4.96"/></svg>