<svg xmlns="http://www.w3.org/2000/svg" viewBox="0 0 16 16"><path fill-rule="evenodd" d="M4.5 4.5c0-.785 0-1.178.484-1.74a3 3 0 0 1 .128-.136c.535-.515 1.032-.543 2.026-.599a15 15 0 0 1 1.723 0c.995.056 1.492.084 2.027.6.031.03.1.102.128.135.279.324.397.591.447.91l2.673-.411a.75.75 0 1 1 .228 1.482l-2.883.444c-.037.386-.145.683-.465 1.055a3 3 0 0 1-.128.136c-.535.515-1.032.543-2.026.599a15 15 0 0 1-1.723 0c-.995-.056-1.492-.084-2.027-.6a3 3 0 0 1-.128-.135C4.5 5.678 4.5 5.285 4.5 4.5m10.003 3.68C15 8.748 15 9.295 15 10.39c0 2.273-3.003 3.356-5.268 3.544C9.23 13.975 8.657 14 8 14s-1.23-.025-1.732-.067C4.003 13.745 1 12.662 1 10.39c0-1.095 0-1.642.497-2.208.047-.054.13-.137.184-.184C2.247 7.5 2.92 7.5 4.266 7.5h7.468c1.346 0 2.02 0 2.585.497.054.047.137.13.184.184M5 11.5a1 1 0 1 0 0-2 1 1 0 0 0 0 2m4-.75a1 1 0 1 1-2 0 1 1 0 0 1 2 0m2 .75a1 1 0 1 0 0-2 1 1 0 0 0 0 2"/></svg>