<svg xmlns="http://www.w3.org/2000/svg" viewBox="0 0 24 24"><path fill-rule="evenodd" d="M7 20.5V4.998c0-.941 0-1.412.293-1.705S8.057 3 8.999 3h6.002c.942 0 1.413 0 1.706.293S17 4.057 17 4.998V20.5zm6.966-12.697c-.026-.303-.04-.454-.176-.595s-.265-.158-.523-.19a2 2 0 0 0-.534 0c-.258.032-.387.049-.523.19-.136.14-.15.292-.176.595-.02.21-.034.454-.034.697s.015.486.034.697c.026.303.04.454.176.595s.265.158.523.19a2 2 0 0 0 .534 0c.258-.032.387-.049.523-.19.136-.14.15-.292.176-.595.02-.21.034-.454.034-.697s-.015-.486-.034-.697m-2.176 4.405c.136.14.15.292.176.595.02.21.034.454.034.697s-.015.486-.034.697c-.026.303-.04.454-.176.595s-.265.158-.523.19a2 2 0 0 1-.534 0c-.258-.032-.387-.049-.523-.19-.136-.14-.15-.292-.176-.595A8 8 0 0 1 10 13.5a8 8 0 0 1 .034-.697c.026-.303.04-.454.176-.595s.265-.158.523-.19a2 2 0 0 1 .534 0c.258.032.387.049.523.19"/><path d="M21 20.5h-2V11c.942 0 1.414 0 1.707.293s.293.764.293 1.706zM4.999 7H5v13.5H3V8.999c0-.942 0-1.413.293-1.706S4.057 7 4.999 7"/></svg>