<svg xmlns="http://www.w3.org/2000/svg" viewBox="0 0 16 16"><path d="M4.437 3.91a2.08 2.08 0 0 1 1.941-1.327h.955c1.151 0 2.084.933 2.084 2.084v.666c0 1.15-.933 2.084-2.084 2.084h-4a.75.75 0 1 1 0-1.5h4a.583.583 0 0 0 .584-.584v-.666a.583.583 0 0 0-.583-.584h-.956a.58.58 0 0 0-.543.372l-.06.15a.75.75 0 0 1-1.397-.544zm2.17 8.538a2.08 2.08 0 0 0 1.76.969h.966c1.15 0 2.084-.933 2.084-2.084v-.666c0-1.15-.933-2.084-2.084-2.084H2a.75.75 0 1 0 0 1.5h7.333c.322 0 .584.262.584.584v.666a.583.583 0 0 1-.584.584h-.966a.58.58 0 0 1-.493-.271l-.24-.38a.75.75 0 1 0-1.268.802zm4.727-8.942a.75.75 0 0 0 0 1.5h1.333c.322 0 .583.261.583.583v.744a.583.583 0 0 1-.583.584h-.615a.75.75 0 0 0 0 1.5h.615c1.15 0 2.083-.933 2.083-2.084V5.59c0-1.15-.933-2.083-2.083-2.083z"/></svg>