<svg xmlns="http://www.w3.org/2000/svg" viewBox="0 0 16 16"><path d="M12.777 1.22a.75.75 0 0 0-.53-.22q-2.597 0-5.195.006c-.603 0-1.245.05-1.79.332a2.2 2.2 0 0 0-.92.899Q3.997 2.862 4 3.75c0 .414.336.75.75.75h5.32c.13.691.379 1.31.868 1.767.593.551 1.395.733 2.312.733a.75.75 0 0 0 0-1.5c-.75 0-1.098-.153-1.29-.331-.199-.186-.374-.535-.466-1.262l-.112-.902h.865a.75.75 0 0 0 .75-.75V1.75a.75.75 0 0 0-.22-.53"/><path d="M4.709 6a37 37 0 0 0-1.048 2.005c-.302.63-.587 1.29-.797 1.915-.207.615-.36 1.249-.36 1.813v.162c0 1.302.784 2.618 2.238 2.884.68.124 1.547.222 2.59.222 1.035 0 1.875-.096 2.53-.22C11.275 14.513 12 13.226 12 11.983v-.25c0-.555-.138-1.182-.33-1.796a18 18 0 0 0-.739-1.914A33 33 0 0 0 9.936 6z"/></svg>