<svg xmlns="http://www.w3.org/2000/svg" viewBox="0 0 24 24"><path d="M22 18a1 1 0 0 1-1 1h-2v2a1 1 0 1 1-2 0v-2h-2a1 1 0 1 1 0-2h2v-2a1 1 0 1 1 2 0v2h2a1 1 0 0 1 1 1"/><path fill-rule="evenodd" d="M16.691 4.428c2.285 1.324 3.267 1.923 3.81 2.973.22.429.289.835.336 1.31Q21 10.35 21 12a1 1 0 1 1-2-.043q0-.87-.05-1.74c-.611.4-1.376.843-2.296 1.376l-2.78 1.61c-.348.202-.63.366-.874.49V21a1 1 0 0 1-1 1c-.5 0-.958-.265-1.874-.796l-2.8-1.623c-2.366-1.37-3.339-1.935-3.871-3.041-.188-.39-.243-.762-.286-1.19a33 33 0 0 1-.006-6.64c.047-.474.115-.88.337-1.31.542-1.048 1.524-1.649 3.807-2.971l2.817-1.632C11.042 2.266 11.5 2 12 2s.958.266 1.875.797zm-3.82.1 2.78 1.61c1.438.832 2.167 1.26 2.634 1.644.112.092.2.173.272.255l-.07.058c-.419.335-1.036.717-1.962 1.26L9.712 5.347l1.415-.82c.234-.135.417-.241.576-.33.13-.07.224-.12.296-.155a6 6 0 0 1 .296.155c.16.089.343.195.577.33m-7.67 11.02a31 31 0 0 1-.15-5.33c.61.4 1.375.842 2.294 1.375l2.78 1.61c.348.203.631.366.875.492v5.704l-2.646-1.533c-1.437-.833-2.166-1.262-2.633-1.646-.282-.232-.411-.398-.52-.673m2.524-9.05c-1.035.605-1.616.96-2.01 1.284-.112.092-.2.173-.272.255l.07.058c.538.43 1.405.94 2.834 1.767l2.78 1.61c.234.136.417.242.576.33.13.072.224.121.296.156.073-.035.167-.084.296-.155.16-.089.343-.195.577-.33l1.667-.966z"/></svg>