<svg xmlns="http://www.w3.org/2000/svg" viewBox="0 0 16 16"><path d="M6.783 1.498C7.38 1.166 7.677 1 8.002 1c.324 0 .622.166 1.218.498l1.807 1.006c1.78.991 2.67 1.487 2.67 2.244 0 .555-.477.969-1.432 1.54l-7.05-3.917zM3.687 3.239l7.049 3.916-1.516.843c-.596.332-.894.498-1.218.498-.325 0-.623-.166-1.219-.498L4.977 6.992c-1.78-.99-2.67-1.487-2.67-2.244 0-.545.46-.954 1.38-1.51M2.035 6.953c-.02.335-.033.69-.033 1.047 0 1.306.238 3 .238 3 .227.947.832 1.301 2.427 2.235L6.77 14.47q.277.165.482.277V9.881a3 3 0 0 1-.36-.135 10 10 0 0 1-.797-.414l-1.94-1.08c-.81-.451-1.561-.87-2.096-1.28zM15 12a.75.75 0 0 1-.75.75h-1.5v1.5a.75.75 0 0 1-1.5 0v-1.5H9.748a.75.75 0 0 1 0-1.5h1.502V9.749a.75.75 0 0 1 1.5 0v1.501h1.5A.75.75 0 0 1 15 12"/></svg>