<svg xmlns="http://www.w3.org/2000/svg" viewBox="0 0 24 24"><path fill-rule="evenodd" d="M20.707 3.293a1 1 0 0 1 0 1.414l-2.059 2.059q.38.375.685.847c1.128 1.755 1.046 4.075-.382 5.682-.928 1.043-2.117 2.3-3.293 3.303-.586.5-1.192.96-1.778 1.297-.564.325-1.22.605-1.88.605h-.25a1 1 0 1 1 0-2c.132 0 .668-.07 1.13-.338.44-.253.942-.626 1.48-1.085 1.072-.916 2.192-2.094 3.096-3.111.79-.89.872-2.217.195-3.271a2.918 2.918 0 0 0-4.758-.214l-.104.133L12 9.629l-.79-1.015-.103-.133a2.918 2.918 0 0 0-4.758.214c-.677 1.054-.595 2.382.195 3.271l.06.067a1.017 1.017 0 0 1-.033 1.396c-.4.4-1.054.39-1.431-.033l-.09-.101c-1.429-1.607-1.511-3.927-.383-5.682C6.317 5.048 9.801 4.64 12 6.531c1.39-1.195 3.293-1.472 4.921-.867l2.372-2.371a1 1 0 0 1 1.414 0m-9 10.414a1 1 0 0 0-1.414-1.414l-4.676 4.676.009-.059a13 13 0 0 1 .083-.466l.005-.024.001-.006a1 1 0 1 0-1.957-.412v.004l-.003.01-.007.034a11 11 0 0 0-.097.544c-.037.23-.076.51-.106.807a7 7 0 0 0-.031 1.219c.015.201.046.424.11.638.06.205.174.48.406.712.231.232.507.346.712.407.215.064.438.095.639.11.402.03.841.005 1.218-.033a14 14 0 0 0 1.358-.205l.024-.005.007-.002h.004a1 1 0 1 0-.415-1.957h-.003l-.016.004-.07.014a12 12 0 0 1-.456.08z"/></svg>