<svg xmlns="http://www.w3.org/2000/svg" viewBox="0 0 16 16"><path fill-rule="evenodd" d="M13.53 2.47a.75.75 0 0 1 0 1.06l-1.403 1.404q.338.299.595.707c.713 1.14.654 2.631-.257 3.677-.586.673-1.345 1.495-2.092 2.154a8 8 0 0 1-1.132.86c-.353.213-.79.418-1.241.418-.325 0-.636-.106-.92-.245v-.002a.75.75 0 1 1 .745-1.304l.04.016a1 1 0 0 0 .126.034h.007l.001.001.037-.005a1 1 0 0 0 .099-.03 2 2 0 0 0 .329-.166c.267-.162.578-.402.916-.7.674-.597 1.384-1.362 1.954-2.017.45-.515.502-1.28.116-1.896a1.717 1.717 0 0 0-2.825-.126l-.027.035L8 7.136l-.598-.79-.027-.036a1.717 1.717 0 0 0-2.825.126 1.62 1.62 0 0 0-.137 1.493.75.75 0 1 1-1.37.61 3.13 3.13 0 0 1 .235-2.898C4.322 3.969 6.548 3.666 8 4.819a3.22 3.22 0 0 1 2.727-.606L12.47 2.47a.75.75 0 0 1 1.06 0m-6 7.06-3.156 3.157a15 15 0 0 0 .436-.053l.061-.008.015-.003h.004a.75.75 0 1 1 .219 1.484h-.007l-.02.004-.07.01a16 16 0 0 1-1.029.106 7 7 0 0 1-.895.015 2.5 2.5 0 0 1-.441-.061 1.14 1.14 0 0 1-.542-.286 1.14 1.14 0 0 1-.286-.542 2.5 2.5 0 0 1-.06-.441 7 7 0 0 1 .014-.895 16 16 0 0 1 .107-1.029l.01-.07.002-.02.001-.005v-.003a.75.75 0 1 1 1.484.22v.004l-.002.015-.009.061a15 15 0 0 0-.053.436l.79-.79.788-.788L6.47 8.47a.75.75 0 0 1 1.06 1.06"/></svg>