<svg xmlns="http://www.w3.org/2000/svg" viewBox="0 0 24 24"><path fill-rule="evenodd" d="M12.756 5.645C12.878 7.181 13 9.379 13 12s-.122 4.819-.244 6.355c-.027.346-.042.514-.059.635h-.008c-.135.01-.322.01-.689.01s-.554 0-.69-.01h-.007c-.017-.12-.032-.289-.06-.635A81 81 0 0 1 11 12c0-2.621.122-4.819.244-6.355.027-.346.042-.515.059-.635h.008C11.446 5 11.633 5 12 5s.554 0 .69.01h.007c.017.12.032.289.06.635M9.25 18.513c.051.647.077.97.205 1.27.215.505.684.939 1.204 1.113.31.104.653.104 1.341.104s1.031 0 1.34-.104c.521-.174.99-.608 1.205-1.113.128-.3.154-.623.205-1.27.092-1.17.185-2.706.227-4.513H16a3 3 0 0 0 3-3V8a1 1 0 1 0-2 0v3a1 1 0 0 1-1 1h-1c0-2.683-.125-4.933-.25-6.513-.051-.647-.077-.97-.205-1.27a2.08 2.08 0 0 0-1.204-1.113C13.03 3 12.688 3 12 3s-1.031 0-1.34.104c-.521.174-.99.607-1.205 1.113-.128.3-.154.623-.205 1.27-.056.71-.112 1.554-.157 2.513H8a1 1 0 0 1-1-1V5a1 1 0 0 0-2 0v2a3 3 0 0 0 3 3h1.023a86 86 0 0 0 .07 6H9a1 1 0 0 1-1-1v-1a1 1 0 1 0-2 0v1a3 3 0 0 0 3 3h.211z"/></svg>