<svg xmlns="http://www.w3.org/2000/svg" viewBox="0 0 44 44"><path fill-rule="evenodd" d="M17.13 28.5a163 163 0 0 1-.068-11H15a4.5 4.5 0 0 1-4.5-4.5V9.5a1.5 1.5 0 0 1 3 0V13a1.5 1.5 0 0 0 1.5 1.5h2.172c.078-1.669.172-3.134.266-4.356.103-1.353.155-2.03.476-2.606a3.1 3.1 0 0 1 1.361-1.261C19.874 6 20.583 6 22 6s2.126 0 2.725.277a3.1 3.1 0 0 1 1.36 1.26c.322.577.374 1.254.477 2.607.215 2.82.438 6.928.438 11.856h2a1.5 1.5 0 0 0 1.5-1.5v-8a1.5 1.5 0 0 1 3 0v8A4.5 4.5 0 0 1 29 25h-2.027c-.066 3.602-.24 6.63-.41 8.856-.104 1.353-.156 2.03-.477 2.606a3.1 3.1 0 0 1-1.361 1.261C24.126 38 23.417 38 22 38s-2.126 0-2.725-.277a3.1 3.1 0 0 1-1.36-1.26c-.322-.577-.374-1.254-.477-2.607q-.082-1.062-.16-2.356H15.5a4 4 0 0 1-4-4V26a1.5 1.5 0 0 1 3 0v1.5a1 1 0 0 0 1 1z"/></svg>