<svg xmlns="http://www.w3.org/2000/svg" viewBox="0 0 44 44"><path fill-rule="evenodd" d="M20.43 33.628A155 155 0 0 1 20 22c0-4.84.219-8.87.43-11.628.054-.725.085-1.087.126-1.346l.016-.001C20.852 9.002 21.244 9 22 9s1.147.002 1.428.025l.016.001c.041.259.072.621.127 1.346C23.78 13.13 24 17.16 24 22s-.219 8.87-.43 11.628c-.054.725-.085 1.087-.126 1.346l-.016.001c-.28.023-.672.025-1.428.025s-1.147-.002-1.428-.025l-.016-.001c-.041-.259-.072-.621-.127-1.346M17.277 31.5c.051.861.106 1.65.16 2.356.103 1.353.155 2.03.476 2.606a3.1 3.1 0 0 0 1.361 1.261C19.874 38 20.583 38 22 38s2.126 0 2.725-.277a3.1 3.1 0 0 0 1.36-1.26c.322-.577.374-1.254.477-2.607.17-2.226.345-5.254.41-8.856H29a4.5 4.5 0 0 0 4.5-4.5v-8a1.5 1.5 0 0 0-3 0v8A1.5 1.5 0 0 1 29 22h-2c0-4.928-.223-9.037-.438-11.856-.103-1.353-.155-2.03-.476-2.606a3.1 3.1 0 0 0-1.361-1.261C24.126 6 23.417 6 22 6s-2.126 0-2.725.277a3.1 3.1 0 0 0-1.36 1.26c-.322.577-.374 1.254-.477 2.607a146 146 0 0 0-.265 4.356H15a1.5 1.5 0 0 1-1.5-1.5V9.5a1.5 1.5 0 0 0-3 0V13a4.5 4.5 0 0 0 4.5 4.5h2.062a164 164 0 0 0 .067 11H15.5a1 1 0 0 1-1-1V26a1.5 1.5 0 0 0-3 0v1.5a4 4 0 0 0 4 4z"/></svg>