<svg xmlns="http://www.w3.org/2000/svg" viewBox="0 0 16 16"><path fill-rule="evenodd" d="M2.165 11.694A39 39 0 0 1 2 8c0-1.495.072-2.727.165-3.694.108-1.13.163-1.695.818-2.368s1.15-.732 2.14-.853A11 11 0 0 1 6.5 1c.49 0 .952.033 1.377.085.99.12 1.485.181 2.14.853.655.673.71 1.238.818 2.368q.074.746.12 1.702a5.25 5.25 0 0 0-3.427 8.944 11.2 11.2 0 0 1-2.406-.037c-.99-.121-1.485-.182-2.14-.854-.654-.672-.709-1.237-.817-2.367M5.752 3.5a.75.75 0 0 0 0 1.5H7.25a.75.75 0 0 0 0-1.5z"/><path fill-rule="evenodd" d="M15 11.25a3.75 3.75 0 1 1-7.501 0 3.75 3.75 0 0 1 7.501 0m-4.09 2.224A2.25 2.25 0 0 1 9 11.321l1.3.732c.355.199.608.573.608.98zm2.59-2.224a2.25 2.25 0 0 0-1.92-2.226c-.027.206-.104.44-.255.552l-.204.153c-.285.214-.483.598-.331.92l.21.446a.75.75 0 0 0 .825.415l1.09-.245a.76.76 0 0 1 .41.033l.172.068z"/></svg>