<svg xmlns="http://www.w3.org/2000/svg" viewBox="0 0 16 16"><path d="M3.658 11.551A37 37 0 0 1 3.5 8c0-1.447.07-2.631.158-3.55.059-.613.09-.875.149-1.072.034-.117.08-.217.25-.393.193-.198.289-.237.362-.263.147-.05.343-.082.886-.148A10 10 0 0 1 6.5 2.5c.422 0 .824.029 1.195.074.543.066.74.097.886.148.073.026.169.065.362.263.17.176.216.276.25.393.059.197.09.46.149 1.071q.058.591.099 1.326a.753.753 0 1 0 1.495-.134q-.043-.735-.101-1.335c-.108-1.13-.163-1.695-.818-2.368s-1.15-.732-2.14-.853A11 11 0 0 0 6.5 1c-.49 0-.952.033-1.377.085-.99.12-1.485.181-2.14.853-.655.673-.71 1.238-.818 2.368A39 39 0 0 0 2 8c0 1.495.072 2.728.165 3.694.108 1.13.163 1.695.818 2.367s1.15.733 2.139.854A11.4 11.4 0 0 0 6.75 15a.75.75 0 1 0-.023-1.501q-.015-.002-.03-.001a10 10 0 0 1-1.393-.072c-.543-.066-.738-.097-.886-.148-.073-.026-.168-.065-.361-.264-.17-.175-.216-.275-.25-.392-.059-.197-.09-.459-.149-1.071"/><path d="M5 4.75A.75.75 0 0 1 5.75 4h1.5a.75.75 0 0 1 0 1.5h-1.5A.75.75 0 0 1 5 4.75"/><path fill-rule="evenodd" d="M15 11.25a3.75 3.75 0 1 1-7.501 0 3.75 3.75 0 0 1 7.501 0m-4.09 2.224A2.25 2.25 0 0 1 9 11.321l1.3.732c.355.199.608.573.608.98zm2.59-2.224a2.25 2.25 0 0 0-1.92-2.226c-.027.206-.104.44-.255.552l-.204.153c-.285.214-.483.598-.331.92l.21.446a.75.75 0 0 0 .825.415l1.09-.245a.76.76 0 0 1 .41.033l.172.068z"/></svg>