<svg xmlns="http://www.w3.org/2000/svg" viewBox="0 0 24 24"><g fill-rule="evenodd" clip-rule="evenodd"><path d="M4 12c0 2.037.095 3.733.22 5.084.156 1.689.235 2.533 1.231 3.549.997 1.015 1.735 1.098 3.212 1.263a16.6 16.6 0 0 0 2.712.08 7.5 7.5 0 0 1 5.553-12.964q-.06-1.158-.148-2.095c-.156-1.69-.235-2.534-1.231-3.55s-1.736-1.098-3.213-1.263A17 17 0 0 0 10.5 2a17 17 0 0 0-1.836.104c-1.477.165-2.216.247-3.213 1.263s-1.075 1.86-1.231 3.55A55 55 0 0 0 4 12m5-7a1 1 0 0 0 0 2h3a1 1 0 1 0 0-2z"/><path d="M22 16.5a5.5 5.5 0 1 1-11 0 5.5 5.5 0 0 1 11 0m-9 0v-.01l2.109 1.187c.52.292.891.842.891 1.438v.85a3.5 3.5 0 0 1-3-3.465m3.61-2.455c.272-.204.38-.674.39-1.01a3.5 3.5 0 0 1 2.991 3.712l-.447-.177a1.1 1.1 0 0 0-.602-.049l-1.598.36a1.1 1.1 0 0 1-1.211-.609l-.308-.653c-.223-.472.068-1.036.486-1.35z"/></g></svg>