<svg xmlns="http://www.w3.org/2000/svg" viewBox="0 0 44 44"><path d="M16.547 14.465a1.5 1.5 0 0 1-.81-2.889l.049-.013.133-.037a111 111 0 0 1 2.299-.606c1.492-.38 3.507-.87 5.586-1.301 2.068-.43 4.245-.811 6.046-.964.895-.076 1.755-.1 2.486-.028.633.062 1.558.225 2.191.858.633.634.797 1.559.859 2.191.072.732.047 1.591-.029 2.487-.152 1.8-.534 3.977-.963 6.046a131 131 0 0 1-1.301 5.586 139 139 0 0 1-.607 2.299l-.037.133-.013.048a1.5 1.5 0 0 1-2.889-.81v-.001l.012-.04.034-.126.133-.486c.113-.421.273-1.026.46-1.758a129 129 0 0 0 1.27-5.455c.422-2.03.775-4.068.912-5.69l.013-.156L11.62 34.5a1.5 1.5 0 1 1-2.12-2.121l20.76-20.747-.157.012c-1.621.138-3.66.49-5.69.912a138 138 0 0 0-7.7 1.863l-.125.035z"/></svg>