<svg xmlns="http://www.w3.org/2000/svg" viewBox="0 0 24 24"><path d="M11 3.988c0 .517-.393.943-.904 1.019-1.06.158-1.463.371-1.921.834-.606.613-.774 1.1-.935 3.068.326-.319.71-.708 1.177-1.184l.235-.238a1 1 0 1 1 1.426 1.402l-.234.238c-1.99 2.024-2.984 3.036-4.109 2.852S3.99 10.519 2.75 7.967l-.146-.3A1 1 0 0 1 4.4 6.792l.146.3c.28.576.512 1.05.714 1.446.159-1.89.405-3.005 1.492-4.104.882-.89 1.799-1.23 3.151-1.424.586-.084 1.096.386 1.096.978"/><path fill-rule="evenodd" d="M4 15v2l-.962 2.308A.5.5 0 0 0 3.5 20h8a.5.5 0 0 0 .461-.692L11 17v-2c0-.943 0-1.414-.293-1.707S9.943 13 9 13H6c-.943 0-1.414 0-1.707.293S4 14.057 4 15m5 0H6v2h3zm4-7V6c0-.943 0-1.414.293-1.707S14.058 4 15 4h3c.943 0 1.415 0 1.707.293S20 5.057 20 6v2l.962 2.308A.5.5 0 0 1 20.5 11h-8a.5.5 0 0 1-.461-.692zm2-2h3v2h-3z"/><path d="M13 20.012c0-.517.393-.943.904-1.019 1.06-.158 1.463-.371 1.92-.834.607-.613.775-1.1.936-3.068-.326.319-.71.708-1.178 1.184l-.234.238a1 1 0 1 1-1.426-1.402l.234-.238c1.989-2.024 2.983-3.036 4.108-2.852s1.746 1.46 2.987 4.012l.146.3a1 1 0 0 1-1.798.875l-.147-.3c-.28-.576-.512-1.05-.713-1.446-.159 1.89-.405 3.005-1.493 4.104-.881.89-1.798 1.23-3.15 1.424-.586.084-1.096-.386-1.096-.978"/></svg>