<svg xmlns="http://www.w3.org/2000/svg" viewBox="0 0 16 16"><path d="M6.867 3.49a.75.75 0 1 0-.24-1.48v-.002c-.86.131-1.454.428-2.025 1.005-.618.624-.829 1.256-.943 2.21a8 8 0 0 1-.279-.57l-.026-.056a.72.72 0 0 0-.524-.413c-.568-.098-1.005.522-.753 1.069l.026.056C2.886 7.01 3.278 7.86 3.988 7.983s1.339-.552 2.595-1.9l.041-.046c.404-.433.177-1.167-.392-1.265a.69.69 0 0 0-.621.214l-.042.045c-.165.177-.3.323-.425.437.096-.854.22-1.093.524-1.4.274-.277.502-.475 1.2-.577"/><path fill-rule="evenodd" d="M8.5 3.833V5.5l-.486 1.568a.333.333 0 0 0 .319.432h5.335a.333.333 0 0 0 .319-.432L13.5 5.5V3.833c0-.628 0-.942-.196-1.138-.195-.195-.51-.195-1.138-.195H9.834c-.629 0-.943 0-1.138.195-.196.196-.196.51-.196 1.138M10 4v1.5h2V4zM2.5 9.833V11.5l-.486 1.568a.333.333 0 0 0 .319.432h5.335a.333.333 0 0 0 .318-.432L7.5 11.5V9.833c0-.628 0-.942-.195-1.138S6.795 8.5 6.167 8.5H3.834c-.629 0-.943 0-1.138.195-.196.196-.196.51-.196 1.138M4 10v1.5h2V10z"/><path d="M8.5 13.25a.75.75 0 0 1 .633-.74c.698-.104.926-.301 1.2-.578.304-.307.428-.546.524-1.4-.124.114-.26.26-.426.437l-.041.045a.69.69 0 0 1-.621.215c-.569-.099-.796-.833-.393-1.266l.042-.045c1.256-1.35 1.884-2.024 2.594-1.901.71.122 1.102.973 1.886 2.674l.026.056c.252.547-.185 1.167-.753 1.069a.72.72 0 0 1-.524-.413l-.027-.056a8 8 0 0 0-.278-.57c-.115.954-.325 1.586-.943 2.21-.571.577-1.164.874-2.025 1.005v-.002a.75.75 0 0 1-.873-.74"/></svg>