<svg xmlns="http://www.w3.org/2000/svg" viewBox="0 0 16 16"><path fill-rule="evenodd" d="M3.124 3.125c-.875.875-.94 1.747-1.07 3.491C2.02 7.068 2 7.535 2 8.001s.02.933.054 1.385c.13 1.744.195 2.616 1.07 3.491s1.747.94 3.491 1.07C7.067 13.98 7.534 14 8 14s.933-.02 1.385-.054c1.744-.13 2.616-.195 3.491-1.07s.94-1.747 1.07-3.491C13.98 8.934 14 8.467 14 8s-.02-.933-.054-1.385c-.13-1.744-.195-2.616-1.07-3.491s-1.747-.94-3.491-1.07A19 19 0 0 0 8 2.001c-.466 0-.933.02-1.385.054-1.744.13-2.616.195-3.491 1.07m7.073 2.678a.75.75 0 0 1 0 1.06L9.061 8l1.136 1.136a.75.75 0 1 1-1.06 1.06L8 9.06l-1.136 1.137a.75.75 0 1 1-1.061-1.061L6.939 8 5.803 6.863a.75.75 0 0 1 1.06-1.06L8 6.939l1.136-1.136a.75.75 0 0 1 1.061 0"/></svg>