<svg xmlns="http://www.w3.org/2000/svg" viewBox="0 0 16 16"><path fill-rule="evenodd" d="M4.918 4.63C5.758 4.555 6.786 4.5 8 4.5s2.241.055 3.082.13c.699.063 1.016.098 1.263.173.165.05.319.124.564.368.263.261.332.41.374.54.067.206.1.47.16 1.11a12.5 12.5 0 0 1 0 2.357c-.06.642-.093.905-.16 1.111-.042.13-.11.279-.373.54-.246.244-.4.318-.565.368-.247.075-.564.11-1.263.173-.84.075-1.868.13-3.082.13s-2.242-.055-3.082-.13c-.7-.063-1.016-.098-1.263-.173-.165-.05-.319-.124-.564-.368-.263-.261-.332-.41-.374-.54-.067-.206-.099-.469-.16-1.11a12.5 12.5 0 0 1 0-2.358c.061-.641.093-.904.16-1.11.042-.13.111-.279.374-.54.245-.244.4-.318.564-.368.247-.075.564-.11 1.263-.173M8 13a36 36 0 0 0 3.216-.136c1.3-.117 1.951-.176 2.751-.972s.857-1.388.97-2.572a14 14 0 0 0 0-2.64c-.113-1.184-.17-1.776-.97-2.572s-1.45-.855-2.751-.972A36 36 0 0 0 8 3c-1.26 0-2.332.057-3.217.136-1.3.117-1.95.176-2.75.972-.8.795-.857 1.387-.97 2.57a14 14 0 0 0 0 2.644c.113 1.183.17 1.775.97 2.57.8.796 1.45.855 2.75.972A36 36 0 0 0 8 13M5.442 9.605V8.341H4.303v1.264h-.751V6.5h.751v1.206h1.139V6.5h.751v3.105zm2.527-.635q.396 0 .58-.166.185-.167.185-.576v-.356q0-.39-.185-.562-.184-.175-.58-.175h-.396V8.97zm-1.148.635V6.5H7.97q.387 0 .675.085.292.086.481.27.194.185.288.482.095.297.095.716 0 .418-.095.715a1.16 1.16 0 0 1-.288.481 1.1 1.1 0 0 1-.481.27 2.4 2.4 0 0 1-.675.086zm5.17-1.206q.518-.234.518-.9 0-.49-.283-.742-.284-.257-.842-.257h-1.372v3.105h.751V8.511h.482l.53 1.094h.81zm-.656-1.291q.4 0 .4.337v.121a.32.32 0 0 1-.099.253q-.099.084-.301.085h-.572v-.796z"/></svg>