<svg xmlns="http://www.w3.org/2000/svg" viewBox="0 0 16 16"><path fill-rule="evenodd" d="M11.216 12.864A36 36 0 0 1 8 13c-1.26 0-2.332-.057-3.217-.136-1.3-.117-1.95-.176-2.75-.972-.8-.795-.857-1.387-.97-2.57a14 14 0 0 1 0-2.644c.113-1.183.17-1.775.97-2.57.8-.796 1.45-.855 2.75-.972A36 36 0 0 1 8 3c1.259 0 2.332.057 3.216.136 1.3.117 1.951.176 2.751.972s.857 1.388.97 2.572a14 14 0 0 1 0 2.64c-.113 1.184-.17 1.776-.97 2.572s-1.45.855-2.751.972M5.442 8.34v1.264h.751V6.5h-.751v1.206H4.303V6.5h-.751v3.105h.751V8.341zm1.38-1.84v3.105h1.147q.387 0 .675-.085.292-.085.481-.27.194-.19.288-.482.095-.297.095-.716 0-.418-.095-.715a1.1 1.1 0 0 0-.288-.481 1.1 1.1 0 0 0-.481-.27 2.4 2.4 0 0 0-.675-.086zm5.17 1.899q.517-.234.517-.9 0-.49-.283-.742-.284-.257-.842-.257h-1.372v3.105h.751V8.511h.482l.53 1.094h.81zm-.657-1.291q.4 0 .4.337v.122a.32.32 0 0 1-.099.252q-.099.085-.301.085h-.572v-.796zM7.969 8.97q.396 0 .58-.167.185-.167.185-.576v-.355q0-.392-.185-.563-.184-.175-.58-.175h-.396V8.97z"/></svg>