<svg xmlns="http://www.w3.org/2000/svg" viewBox="0 0 24 24"><path fill-rule="evenodd" d="M12 6a45 45 0 0 0-3.882.16c-1.078.094-1.602.149-2.022.278-.312.097-.613.25-1.06.699-.458.46-.606.755-.696 1.043-.123.394-.173.879-.26 1.916a23 23 0 0 0 0 3.808c.087 1.037.137 1.523.26 1.916.09.288.238.584.696 1.043.447.45.748.602 1.06.699.42.13.943.184 2.022.278 1.096.095 2.39.16 3.882.16s2.786-.065 3.882-.16c1.079-.094 1.602-.149 2.023-.278.313-.097.613-.25 1.06-.699.458-.46.606-.755.696-1.043.123-.394.173-.88.26-1.917a23 23 0 0 0 0-3.805c-.087-1.038-.137-1.524-.26-1.918-.09-.288-.238-.584-.696-1.043-.447-.449-.747-.602-1.06-.699-.421-.13-.944-.184-2.024-.278a45 45 0 0 0-3.88-.16M7.945 4.168A47 47 0 0 1 12 4c1.55 0 2.902.068 4.055.168 2.025.175 3.037.263 4.327 1.557s1.37 2.265 1.532 4.207a25 25 0 0 1 0 4.137c-.162 1.941-.243 2.912-1.532 4.206s-2.302 1.382-4.327 1.557c-1.153.1-2.505.168-4.055.168a47 47 0 0 1-4.055-.168c-2.024-.175-3.036-.263-4.326-1.557S2.25 16.01 2.087 14.07a25 25 0 0 1 0-4.14c.162-1.94.243-2.911 1.532-4.205s2.302-1.381 4.326-1.557m.258 9.636v-1.808H6.575v1.808H5.5v-4.44h1.075v1.724h1.628V9.365h1.075v4.44zm1.973 0v-4.44h1.641q.553 0 .965.122.42.123.689.386a1.6 1.6 0 0 1 .412.689 3.4 3.4 0 0 1 .135 1.023 3.4 3.4 0 0 1-.135 1.023q-.135.42-.412.689-.27.264-.689.386a3.4 3.4 0 0 1-.965.122zm8.135-3.011q0 .953-.74 1.287l.849 1.724h-1.158l-.76-1.563h-.688v1.563h-1.075v-4.44h1.963q.798 0 1.203.367.406.36.406 1.062m-5.663 1.866q-.264.237-.83.238h-.567V10.27h.566q.567 0 .83.251.264.244.264.804v.509q0 .585-.263.824m3.983-2.427q.573 0 .573.483v.174a.46.46 0 0 1-.142.36q-.141.123-.431.122h-.818v-1.139z"/></svg>