<svg xmlns="http://www.w3.org/2000/svg" viewBox="0 0 24 24"><path fill-rule="evenodd" d="M12 4c-1.55 0-2.902.068-4.055.168-2.024.175-3.036.263-4.326 1.557S2.25 7.99 2.087 9.93a25 25 0 0 0 0 4.14c.162 1.94.243 2.911 1.532 4.205s2.302 1.382 4.326 1.557c1.153.1 2.505.168 4.055.168s2.902-.067 4.055-.168c2.025-.175 3.037-.263 4.327-1.557s1.37-2.265 1.532-4.206a25 25 0 0 0 0-4.137c-.162-1.942-.243-2.913-1.532-4.207s-2.302-1.382-4.328-1.557A47 47 0 0 0 12 4m-3.797 7.996v1.808h1.075v-4.44H8.203v1.724H6.575V9.365H5.5v4.44h1.075v-1.808zm1.973-2.632v4.44h1.641q.553 0 .965-.122.42-.122.689-.386.276-.27.412-.689a3.4 3.4 0 0 0 .135-1.023 3.4 3.4 0 0 0-.135-1.023 1.6 1.6 0 0 0-.412-.689 1.6 1.6 0 0 0-.689-.386 3.4 3.4 0 0 0-.965-.122zm8.135 1.428q0 .954-.74 1.288l.849 1.724h-1.158l-.76-1.563h-.688v1.563h-1.075v-4.44h1.963q.798 0 1.203.367.406.36.406 1.062m-1.68-.56q.573 0 .573.483v.174a.46.46 0 0 1-.142.36q-.141.123-.431.122h-.818v-1.139zm-3.983 2.427q-.264.237-.83.238h-.567V10.27h.566q.567 0 .83.251.264.244.264.804v.509q0 .585-.263.824"/></svg>