<svg xmlns="http://www.w3.org/2000/svg" viewBox="0 0 24 24"><path fill-rule="evenodd" d="m15.942 18.972-.191-.114A48 48 0 0 1 12 19a47 47 0 0 1-4.056-.168c-2.024-.175-3.036-.263-4.325-1.557s-1.37-2.264-1.532-4.205a25 25 0 0 1 0-4.14c.161-1.94.242-2.911 1.532-4.205S5.92 3.344 7.945 3.168C9.098 3.068 10.45 3 12 3s2.901.068 4.054.168c2.025.175 3.038.263 4.327 1.557s1.37 2.265 1.532 4.207C21.967 9.58 22 10.274 22 11v4.542c0 3.133 0 4.699-1.015 5.273-1.014.575-2.357-.231-5.043-1.843m-4.058-5.104.116-.085.116.085c1.387 1.008 2.08 1.512 2.544 1.372a.98.98 0 0 0 .497-.346c.29-.385.059-1.21-.405-2.862l.048-.04c1.434-1.165 2.15-1.747 2.062-2.302a1 1 0 0 0-.097-.295c-.258-.499-1.18-.543-3.025-.632-.699-1.795-1.048-2.692-1.642-2.752a1 1 0 0 0-.197 0c-.593.06-.942.957-1.64 2.752-1.846.089-2.769.133-3.027.632a1 1 0 0 0-.097.295c-.088.555.63 1.137 2.062 2.303l.049.04c-.464 1.65-.696 2.476-.405 2.861a.98.98 0 0 0 .497.346c.463.14 1.156-.364 2.544-1.372"/></svg>