<svg xmlns="http://www.w3.org/2000/svg" viewBox="0 0 24 24"><path d="m12 13.783-.116.085c-1.388 1.008-2.081 1.512-2.544 1.372a.98.98 0 0 1-.497-.346c-.291-.385-.06-1.21.405-2.862l-.049-.04c-1.433-1.165-2.15-1.747-2.062-2.302a1 1 0 0 1 .097-.295c.258-.499 1.18-.543 3.026-.632.699-1.795 1.048-2.692 1.641-2.752a1 1 0 0 1 .197 0c.594.06.943.957 1.642 2.752 1.845.089 2.767.133 3.025.632q.072.14.097.295c.088.555-.628 1.137-2.062 2.303l-.048.04c.464 1.65.696 2.476.405 2.861a.98.98 0 0 1-.497.346c-.463.14-1.157-.364-2.544-1.372z"/><path fill-rule="evenodd" d="m15.942 18.972-.191-.114A48 48 0 0 1 12 19a47 47 0 0 1-4.056-.168c-2.024-.175-3.036-.263-4.325-1.557s-1.37-2.264-1.532-4.205a25 25 0 0 1 0-4.14c.161-1.94.242-2.911 1.532-4.205S5.92 3.344 7.945 3.168C9.098 3.068 10.45 3 12 3s2.901.068 4.054.168c2.025.175 3.038.263 4.327 1.557s1.37 2.265 1.532 4.207C21.967 9.58 22 10.274 22 11v4.542c0 3.133 0 4.699-1.015 5.273-1.014.575-2.357-.231-5.043-1.843M20 11v4.542c0 1.634-.005 2.63-.105 3.302l-.005.035-.033-.013c-.628-.26-1.482-.767-2.88-1.605l-.746-.448-.638.05C14.56 16.947 13.363 17 12 17c-1.492 0-2.787-.065-3.883-.16-1.078-.094-1.601-.149-2.022-.278-.312-.097-.612-.25-1.06-.699-.457-.46-.606-.755-.696-1.043-.122-.393-.173-.879-.26-1.916a23 23 0 0 1 0-3.808c.087-1.037.138-1.522.26-1.916.09-.288.239-.584.696-1.043.448-.449.748-.602 1.06-.699.421-.13.944-.184 2.023-.278C9.213 5.065 10.508 5 12 5s2.785.065 3.881.16c1.08.094 1.602.149 2.024.278.312.097.612.25 1.06.699.457.46.606.755.696 1.043.122.394.173.88.26 1.918.049.598.08 1.236.08 1.902"/></svg>