<svg xmlns="http://www.w3.org/2000/svg" viewBox="0 0 16 16"><path d="M9.57 6.558a3 3 0 1 0-3.136 0c-.278.028-.532.085-.99.255-.907.339-2.443 1.958-2.734 2.882-.208.663-.208.752-.208.93 0 .614 0 .92.05 1.176a2.715 2.715 0 0 0 2.149 2.15c.255.049.562.049 1.176.049h2.09a4.5 4.5 0 0 1 3.651-6.484c-.376-.33-.753-.589-1.058-.703-.458-.17-.712-.227-.99-.255"/><path fill-rule="evenodd" d="M15 12a3 3 0 1 1-6 0 3 3 0 0 1 6 0m-3-2a.75.75 0 0 1 .75.75v.94l.53.53a.75.75 0 0 1-1.06 1.06l-.75-.75a.75.75 0 0 1-.22-.53v-1.25A.75.75 0 0 1 12 10"/></svg>