<svg xmlns="http://www.w3.org/2000/svg" viewBox="0 0 24 24"><path d="M14.62 10.159a4.5 4.5 0 1 0-5.241 0 8 8 0 0 0-.801.24c-1.453.5-3.89 3.068-4.314 4.544C4 15.862 4 15.924 4 16.05c0 .816 0 1.224.058 1.564a4.07 4.07 0 0 0 3.327 3.328c.341.058.75.058 1.565.058h3.853a6 6 0 0 1 4.871-8.991c-.77-.76-1.608-1.387-2.252-1.61a8 8 0 0 0-.801-.24"/><path fill-rule="evenodd" d="M22 18a4 4 0 1 1-8 0 4 4 0 0 1 8 0m-4-2.5a1 1 0 0 1 1 1v1.086l.707.707a1 1 0 0 1-1.414 1.414l-1-1A1 1 0 0 1 17 18v-1.5a1 1 0 0 1 1-1"/></svg>