<svg xmlns="http://www.w3.org/2000/svg" viewBox="0 0 44 44"><path fill-rule="evenodd" d="M7.716 7.716c-.511.51-.56 1.039-.658 2.095C7.023 10.194 7 10.597 7 11s.023.806.058 1.189c.098 1.056.147 1.585.658 2.095.51.511 1.039.56 2.095.658.383.035.786.058 1.189.058s.806-.023 1.189-.058c1.056-.098 1.585-.147 2.095-.658.511-.51.56-1.039.658-2.095.035-.383.058-.786.058-1.189s-.023-.806-.058-1.189c-.098-1.056-.147-1.585-.658-2.095-.51-.511-1.039-.56-2.095-.658A13 13 0 0 0 11 7c-.403 0-.806.023-1.189.058-1.056.098-1.585.147-2.095.658m0 11c-.511.51-.56 1.039-.658 2.095C7.023 21.194 7 21.597 7 22s.023.806.058 1.189c.098 1.056.147 1.585.658 2.096.51.51 1.039.56 2.095.657.383.035.786.058 1.189.058s.806-.023 1.189-.058c1.056-.098 1.585-.147 2.095-.657.511-.511.56-1.04.658-2.096.035-.383.058-.786.058-1.189s-.023-.806-.058-1.189c-.098-1.056-.147-1.585-.658-2.096-.51-.51-1.039-.56-2.095-.657A13 13 0 0 0 11 18c-.403 0-.806.023-1.189.058-1.056.098-1.585.147-2.095.657M7.058 31.81c.098-1.056.147-1.585.658-2.096.51-.51 1.039-.56 2.095-.657.383-.035.786-.058 1.189-.058s.806.023 1.189.058c1.056.098 1.585.147 2.095.657.511.511.56 1.04.658 2.096.035.383.058.786.058 1.189s-.023.806-.058 1.189c-.098 1.056-.147 1.585-.658 2.096-.51.51-1.039.56-2.095.657-.383.035-.786.058-1.189.058s-.806-.023-1.189-.058c-1.056-.098-1.585-.147-2.095-.657-.511-.511-.56-1.04-.658-2.096A13 13 0 0 1 7 33c0-.403.023-.806.058-1.189M18.715 7.716c-.51.51-.56 1.039-.657 2.095-.035.383-.058.786-.058 1.189s.023.806.058 1.189c.098 1.056.147 1.585.657 2.095.511.511 1.04.56 2.096.658.383.035.786.058 1.189.058s.806-.023 1.189-.058c1.056-.098 1.585-.147 2.096-.658.51-.51.56-1.039.657-2.095.035-.383.058-.786.058-1.189s-.023-.806-.058-1.189c-.098-1.056-.147-1.585-.657-2.095-.511-.511-1.04-.56-2.096-.658A13 13 0 0 0 22 7c-.403 0-.806.023-1.189.058-1.056.098-1.585.147-2.096.658m-.657 13.095c.098-1.056.147-1.585.657-2.096.511-.51 1.04-.56 2.096-.657.383-.035.786-.058 1.189-.058s.806.023 1.189.058c1.056.098 1.585.147 2.096.657.51.511.56 1.04.657 2.096.035.383.058.786.058 1.189s-.023.806-.058 1.189c-.098 1.056-.147 1.585-.657 2.096-.511.51-1.04.56-2.096.657-.383.035-.786.058-1.189.058s-.806-.023-1.189-.058c-1.056-.098-1.585-.147-2.096-.657-.51-.511-.56-1.04-.657-2.096A13 13 0 0 1 18 22c0-.403.023-.806.058-1.189m.657 8.904c-.51.511-.56 1.04-.657 2.096-.035.383-.058.786-.058 1.189s.023.806.058 1.189c.098 1.056.147 1.585.657 2.096.511.51 1.04.56 2.096.657.383.035.786.058 1.189.058s.806-.023 1.189-.058c1.056-.098 1.585-.147 2.096-.657.51-.511.56-1.04.657-2.096.035-.383.058-.786.058-1.189s-.023-.806-.058-1.189c-.098-1.056-.147-1.585-.657-2.096-.511-.51-1.04-.56-2.096-.657A13 13 0 0 0 22 29c-.403 0-.806.023-1.189.058-1.056.098-1.585.147-2.096.657M29.059 9.811c.098-1.056.147-1.585.657-2.095.511-.511 1.04-.56 2.096-.658C32.194 7.023 32.597 7 33 7s.806.023 1.189.058c1.056.098 1.585.147 2.096.658.51.51.56 1.039.657 2.095.035.383.058.786.058 1.189s-.023.806-.058 1.189c-.098 1.056-.147 1.585-.657 2.095-.511.511-1.04.56-2.096.658-.383.035-.786.058-1.189.058s-.806-.023-1.189-.058c-1.056-.098-1.585-.147-2.096-.658-.51-.51-.56-1.039-.657-2.095A13 13 0 0 1 29 11c0-.403.023-.806.058-1.189m.657 8.904c-.51.511-.56 1.04-.657 2.096-.035.383-.058.786-.058 1.189s.023.806.058 1.189c.098 1.056.147 1.585.657 2.096.511.51 1.04.56 2.096.657.383.035.786.058 1.189.058s.806-.023 1.189-.058c1.056-.098 1.585-.147 2.096-.657.51-.511.56-1.04.657-2.096.035-.383.058-.786.058-1.189s-.023-.806-.058-1.189c-.098-1.056-.147-1.585-.657-2.096-.511-.51-1.04-.56-2.096-.657A13 13 0 0 0 33 18c-.403 0-.806.023-1.189.058-1.056.098-1.585.147-2.096.657"/></svg>