<svg xmlns="http://www.w3.org/2000/svg" viewBox="0 0 24 24"><path fill-rule="evenodd" d="M14.358 9.408a2.96 2.96 0 0 0 4.017 1.294 3.04 3.04 0 0 0 1.308-4.059 2.96 2.96 0 0 0-4.017-1.294 3.04 3.04 0 0 0-1.308 4.059m1.25 3.441a4.93 4.93 0 0 0 3.67-.362 5.064 5.064 0 0 0 2.18-6.766 4.937 4.937 0 0 0-6.695-2.157 5.04 5.04 0 0 0-2.573 3.275l-.354.236c-.386.26-.922.622-1.524 1.037-1.196.826-2.674 1.878-3.739 2.74-1.308 1.06-3.026 2.628-3.926 3.461a2.015 2.015 0 0 0-.308 2.593l.115.173a1.96 1.96 0 0 0 2.25.779 82 82 0 0 0 3.332-1.175l.014.132c.044.39.065.585.316.833.198.197.368.25.634.286V21a1 1 0 1 0 2 0v-3.066c.267-.035.437-.09.635-.286.25-.248.272-.443.316-.833.03-.256.05-.564.05-.92 0-.392-.025-.724-.058-.995a77 77 0 0 0 1.639-.889 97 97 0 0 0 1.952-1.118zm-2.003-1.147a5.03 5.03 0 0 1-1.421-2.451c-.233.158-.487.332-.753.516-1.192.823-2.616 1.838-3.617 2.648-1.247 1.01-2.915 2.532-3.818 3.367l.11.164c1.114-.368 3.244-1.095 4.695-1.733 1.169-.514 2.635-1.295 3.826-1.958.36-.2.69-.388.978-.553"/></svg>