<svg xmlns="http://www.w3.org/2000/svg" viewBox="0 0 44 44"><path fill-rule="evenodd" d="M22.825 19.374a9.003 9.003 0 0 0 12.213 3.938c4.47-2.323 6.251-7.852 3.977-12.35a9.003 9.003 0 0 0-12.213-3.938c-4.47 2.323-6.251 7.852-3.977 12.35m-3.45-3.287-.592.416c-2.084 1.469-4.669 3.338-6.62 4.907-2.368 1.904-5.476 4.711-7.18 6.273a3.024 3.024 0 0 0-.47 3.905l.046.07a2.93 2.93 0 0 0 3.374 1.16c1.684-.563 4.614-1.57 7.153-2.587.058.425.17.72.567 1.113.437.432.786.525 1.35.578V37.5a1.5 1.5 0 1 0 3 0v-5.578c.565-.053.913-.146 1.35-.578.523-.518.553-.867.612-1.567q.037-.424.039-.943c0-.631-.05-1.272-.115-1.844a153 153 0 0 0 3.145-1.73 11.5 11.5 0 0 1-4.428-4.733 11.7 11.7 0 0 1-1.23-4.44"/></svg>