<svg xmlns="http://www.w3.org/2000/svg" viewBox="0 0 16 16"><path fill-rule="evenodd" d="M9.846 6.354a1.92 1.92 0 0 0 2.6.838 1.967 1.967 0 0 0 .847-2.628 1.92 1.92 0 0 0-2.6-.838 1.967 1.967 0 0 0-.847 2.628m.724 2.417c.819.247 1.73.186 2.553-.241a3.486 3.486 0 0 0 1.501-4.657 3.4 3.4 0 0 0-4.609-1.485A3.47 3.47 0 0 0 8.35 4.295a133 133 0 0 0-1.306.938 70 70 0 0 0-2.621 1.98c-.9.728-2.219 1.907-2.917 2.538a1.52 1.52 0 0 0-.247 1.968c.38.57 1.099.81 1.747.572.519-.19 1.342-.497 2.144-.813q.06.1.172.212a.86.86 0 0 0 .43.254v2.307a.75.75 0 0 0 1.5 0v-2.307a.86.86 0 0 0 .428-.254c.268-.266.281-.453.306-.826a7 7 0 0 0 .012-.664c.461-.24.916-.487 1.317-.71a67 67 0 0 0 1.256-.719m-1.46-.888a3.46 3.46 0 0 1-.888-1.656l-.311.226a69 69 0 0 0-2.558 1.931c-.864.7-2.154 1.852-2.855 2.486v.004l.002.001.001.001c.85-.312 2.462-.916 3.468-1.358.802-.353 1.81-.89 2.63-1.346z"/></svg>