<svg xmlns="http://www.w3.org/2000/svg" viewBox="0 0 24 24"><path fill-rule="evenodd" d="M12.577 10.33a4.94 4.94 0 0 0 6.699 2.157 5.06 5.06 0 0 0 2.181-6.766 4.94 4.94 0 0 0-6.698-2.157 5.06 5.06 0 0 0-2.182 6.765M10.54 8.088l-.334.23c-1.197.825-2.67 1.873-3.726 2.728-1.302 1.054-3.015 2.617-3.916 3.45a1.76 1.76 0 0 0-.27 2.268l.116.173a1.72 1.72 0 0 0 1.969.681c.835-.275 2.296-.77 3.624-1.287q.014.266.039.483c.044.39.066.585.316.833.199.197.369.251.636.286V21a1 1 0 1 0 2 0v-3.066c.266-.035.437-.089.635-.286.25-.248.273-.443.317-.832.029-.257.049-.564.049-.921a7.5 7.5 0 0 0-.117-1.373 79 79 0 0 0 1.71-.937 6.4 6.4 0 0 1-2.342-2.564 6.5 6.5 0 0 1-.706-2.932m.454 6.913v-.019l.041-.021z"/></svg>