<svg xmlns="http://www.w3.org/2000/svg" viewBox="0 0 24 24"><path fill-rule="evenodd" d="M4.686 4.686c-1.313 1.313-1.41 2.62-1.605 5.237C3.031 10.6 3 11.3 3 12s.03 1.399.081 2.077c.195 2.616.292 3.924 1.605 5.237s2.62 1.41 5.237 1.605C10.6 20.969 11.3 21 12 21s1.399-.03 2.077-.081c2.616-.195 3.924-.292 5.237-1.605s1.41-2.62 1.605-5.237C20.969 13.4 21 12.7 21 12s-.03-1.399-.081-2.077c-.195-2.616-.292-3.924-1.605-5.237s-2.62-1.41-5.237-1.605A28 28 0 0 0 12 3c-.7 0-1.399.03-2.077.081-2.616.195-3.924.292-5.237 1.605m6.063 4.055a1.426 1.426 0 0 1 2.503 0l.608 1.112a.7.7 0 0 0 .286.285l1.112.608a1.427 1.427 0 0 1 0 2.504l-1.112.608a.7.7 0 0 0-.286.286l-.609 1.113a1.426 1.426 0 0 1-2.503 0l-.608-1.112a.7.7 0 0 0-.286-.286l-1.112-.608a1.427 1.427 0 0 1 0-2.503l1.112-.609a.7.7 0 0 0 .286-.286z"/></svg>