<svg xmlns="http://www.w3.org/2000/svg" viewBox="0 0 24 24"><path d="M4.1 8.587A2.624 2.624 0 0 0 6.414 10.9c.494.058 1.04.1 1.586.1s1.092-.042 1.586-.1A2.624 2.624 0 0 0 11.9 8.586c.058-.494.1-1.04.1-1.586s-.042-1.092-.1-1.586A2.624 2.624 0 0 0 9.586 3.1C9.093 3.042 8.546 3 8 3s-1.092.042-1.586.1A2.624 2.624 0 0 0 4.1 5.414C4.042 5.908 4 6.454 4 7s.042 1.092.1 1.586"/><path fill-rule="evenodd" d="M6.414 20.9A2.624 2.624 0 0 1 4.1 18.587C4.042 18.092 4 17.546 4 17s.042-1.092.1-1.586A2.624 2.624 0 0 1 6.414 13.1c.494-.058 1.04-.1 1.586-.1s1.092.042 1.586.1a2.624 2.624 0 0 1 2.314 2.314c.058.494.1 1.04.1 1.586s-.042 1.092-.1 1.587A2.624 2.624 0 0 1 9.586 20.9c-.494.058-1.04.1-1.586.1s-1.092-.042-1.586-.1m-.328-2.547C6.035 17.913 6 17.448 6 17s.035-.913.086-1.353a.625.625 0 0 1 .56-.56C7.087 15.034 7.553 15 8 15s.913.035 1.353.086a.625.625 0 0 1 .56.56c.052.44.087.906.087 1.354s-.035.913-.086 1.353a.625.625 0 0 1-.56.56C8.913 18.966 8.447 19 8 19s-.913-.035-1.353-.086a.625.625 0 0 1-.56-.56"/><path d="M14 5a1 1 0 0 1 1-1h6a1 1 0 1 1 0 2h-6a1 1 0 0 1-1-1m1 3a1 1 0 1 0 0 2h3a1 1 0 1 0 0-2zm-1 7a1 1 0 0 1 1-1h6a1 1 0 1 1 0 2h-6a1 1 0 0 1-1-1m1 3a1 1 0 1 0 0 2h3a1 1 0 1 0 0-2z"/></svg>