<svg xmlns="http://www.w3.org/2000/svg" viewBox="0 0 17 17"><path d="M10.115 1.807c-.057.125-.001.339.11.767l.381 1.474c.02.075.03.113.033.15a.5.5 0 0 1 0 .102 1 1 0 0 1-.033.15l-.381 1.475c-.111.428-.167.642-.11.767.05.108.145.185.259.21.13.026.32-.08.697-.292l3.258-1.83c.307-.173.46-.26.511-.374a.4.4 0 0 0 0-.313c-.05-.115-.204-.2-.511-.373L11.07 1.889c-.377-.212-.566-.319-.697-.291a.37.37 0 0 0-.259.21"/><path d="M3.453 7.79A4.34 4.34 0 0 1 7.79 3.454h1.505a.797.797 0 0 1 0 1.593H7.79a2.744 2.744 0 0 0-2.745 2.745v1.505a.797.797 0 0 1-1.593 0zm2.921 4.958a2.125 2.125 0 1 1-4.25 0 2.125 2.125 0 0 1 4.25 0M7.507 9.1c-.475.476-.509.947-.576 1.888a10 10 0 0 0-.026.698q.001.354.026.698c.067.941.1 1.412.576 1.887s.946.51 1.887.576q.345.025.698.026.355-.001.699-.026c.94-.067 1.411-.1 1.887-.576.35-.35.46-.696.52-1.23l.365.203c.82.456 1.231.684 1.537.504s.305-.649.305-1.588v-.953c0-.939 0-1.408-.305-1.588-.306-.18-.716.048-1.537.504l-.365.203c-.06-.53-.172-.877-.52-1.225-.476-.476-.946-.51-1.887-.576a10 10 0 0 0-.699-.026c-.234 0-.47.01-.698.026-.94.067-1.411.1-1.887.576"/></svg>