<svg xmlns="http://www.w3.org/2000/svg" viewBox="0 0 17 17"><path d="M10.115 1.807c-.057.125-.001.339.11.767l.381 1.474c.02.075.03.113.033.15a.5.5 0 0 1 0 .102 1 1 0 0 1-.033.15l-.381 1.475c-.111.428-.167.642-.11.767.05.108.145.185.259.21.13.026.32-.08.697-.292l3.258-1.83c.307-.173.46-.26.511-.374a.4.4 0 0 0 0-.313c-.05-.115-.204-.2-.511-.373L11.07 1.889c-.377-.212-.566-.319-.697-.291a.37.37 0 0 0-.259.21"/><path d="M3.453 7.79A4.34 4.34 0 0 1 7.79 3.454h1.505a.797.797 0 0 1 0 1.593H7.79a2.744 2.744 0 0 0-2.745 2.745v1.505a.797.797 0 0 1-1.593 0z"/><path fill-rule="evenodd" d="M4.25 14.873a2.125 2.125 0 1 0 0-4.25 2.125 2.125 0 0 0 0 4.25m0-1.593a.531.531 0 1 0 0-1.063.531.531 0 0 0 0 1.063m2.681-2.292c.067-.941.1-1.412.576-1.887s.946-.51 1.887-.576q.345-.025.698-.026.355.001.699.026c.94.067 1.411.1 1.887.576.348.348.46.694.52 1.225l.365-.203c.82-.456 1.231-.684 1.537-.504s.305.65.305 1.588v.953c0 .94 0 1.408-.305 1.588-.306.18-.716-.048-1.537-.504l-.364-.203c-.061.534-.172.88-.521 1.23-.476.476-.946.51-1.887.576a10 10 0 0 1-.699.026c-.234 0-.47-.01-.698-.026-.94-.067-1.411-.1-1.887-.576-.475-.475-.509-.946-.576-1.887a10 10 0 0 1-.026-.698q.001-.354.026-.698m2.576-.873q.297-.022.585-.023.29 0 .586.022c.243.018.417.03.566.046a2 2 0 0 1 .286.048l.04.04.006.02c.011.044.026.122.042.267.016.148.029.322.046.566q.022.296.022.585t-.022.585c-.017.244-.03.418-.046.566a2 2 0 0 1-.048.287.4.4 0 0 1-.04.04l-.02.006a2 2 0 0 1-.266.042 17 17 0 0 1-.566.046 8 8 0 0 1-1.17 0c-.244-.018-.418-.03-.567-.046a2 2 0 0 1-.266-.042l-.02-.006-.04-.04-.003-.008-.003-.012a2 2 0 0 1-.042-.267 16 16 0 0 1-.046-.566 8 8 0 0 1-.022-.585q0-.288.022-.585c.017-.244.03-.418.046-.566a2 2 0 0 1 .048-.287l.04-.04.02-.005a2 2 0 0 1 .266-.042c.149-.017.323-.03.566-.046"/></svg>