<svg xmlns="http://www.w3.org/2000/svg" viewBox="0 0 44 44"><path d="M26.057 5.523c-.143.305-.004.83.275 1.877l.957 3.608c.049.183.073.275.083.368a1.2 1.2 0 0 1 0 .248c-.01.093-.034.185-.083.368l-.957 3.608c-.279 1.048-.418 1.572-.276 1.877a.92.92 0 0 0 .65.513c.329.067.803-.193 1.75-.713l8.177-4.48c.771-.423 1.157-.634 1.284-.913a.93.93 0 0 0 0-.768c-.127-.28-.513-.49-1.284-.913l-8.176-4.48c-.948-.52-1.422-.78-1.75-.713a.92.92 0 0 0-.65.513M10 20.389C10 14.65 14.651 10 20.389 10H23.5a1.5 1.5 0 0 1 0 3h-3.111A7.39 7.39 0 0 0 13 20.389V23.5a1.5 1.5 0 0 1-3 0zM17 32.5a5.5 5.5 0 1 1-11 0 5.5 5.5 0 0 1 11 0m3.51-8.99c-1.193 1.194-1.277 2.375-1.445 4.737C19.025 28.821 19 29.41 19 30s.024 1.18.065 1.753c.168 2.362.252 3.543 1.446 4.736 1.193 1.194 2.374 1.278 4.736 1.446.574.04 1.163.065 1.753.065s1.18-.025 1.753-.065c2.362-.168 3.543-.252 4.736-1.446.887-.886 1.161-1.766 1.313-3.129l.645.337c2.036 1.064 3.054 1.596 3.803 1.142s.75-1.603.75-3.9v-1.875c0-2.297 0-3.445-.75-3.9-.75-.454-1.767.078-3.803 1.142l-.645.337c-.151-1.364-.425-2.245-1.313-3.132-1.193-1.194-2.374-1.278-4.736-1.446A25 25 0 0 0 27 22c-.59 0-1.18.024-1.753.065-2.362.168-3.543.252-4.736 1.446"/></svg>