<svg xmlns="http://www.w3.org/2000/svg" viewBox="0 0 24 24"><path d="M14.53 2.783c-.076.164-.001.446.15 1.01l.518 1.943c.027.099.04.148.045.198a.6.6 0 0 1 0 .134c-.005.05-.018.1-.045.198l-.518 1.942c-.151.565-.226.847-.15 1.011a.5.5 0 0 0 .353.276c.177.036.434-.103.948-.383l4.429-2.413c.417-.227.626-.34.695-.491a.5.5 0 0 0 0-.414c-.069-.15-.278-.264-.695-.491L15.83 2.89c-.513-.28-.77-.42-.947-.383a.5.5 0 0 0-.352.276M5 11a6 6 0 0 1 6-6h2a1 1 0 1 1 0 2h-2a4 4 0 0 0-4 4v2a1 1 0 1 1-2 0z"/><path fill-rule="evenodd" d="M9 18a3 3 0 1 1-6 0 3 3 0 0 1 6 0m-2 0a1 1 0 1 1-2 0 1 1 0 0 1 2 0m3.85-5.15c-.671.671-.719 1.335-.813 2.664-.023.322-.037.654-.037.986q.001.5.037.986c.094 1.329.141 1.993.813 2.664.671.672 1.335.719 2.664.813Q14 21 14.5 21q.5-.001.986-.037c1.329-.094 1.993-.142 2.664-.813.493-.493.65-.982.736-1.734l.51.284c1.16.643 1.738.965 2.17.712.431-.254.431-.917.431-2.242v-1.347c0-1.325 0-1.988-.431-2.241-.432-.254-1.01.068-2.17.711l-.511.285c-.086-.748-.243-1.236-.735-1.728-.671-.672-1.335-.719-2.664-.813A14 14 0 0 0 14.5 12q-.5.001-.986.037c-1.329.094-1.993.141-2.664.813M14.5 14c-.277 0-.561.011-.844.032-.343.024-.593.042-.808.066a3 3 0 0 0-.412.065.4.4 0 0 0-.09.03c-.002.002-.027.016-.082.071s-.069.08-.07.083a.3.3 0 0 0-.03.089c-.02.077-.043.2-.066.412-.024.215-.042.465-.066.808q-.031.426-.032.844 0 .418.032.844c.024.343.042.593.066.808.022.212.045.335.065.412.017.066.03.087.03.09a.4.4 0 0 0 .071.082c.055.055.08.069.083.07a.4.4 0 0 0 .089.03c.077.02.2.044.412.067.215.023.465.04.808.065.283.02.567.032.844.032s.561-.012.844-.032c.343-.024.593-.042.808-.066.212-.023.335-.045.412-.065.068-.018.088-.03.09-.03 0-.002.026-.015.082-.071a.4.4 0 0 0 .07-.083.3.3 0 0 0 .03-.089c.02-.077.044-.2.067-.412.023-.215.041-.465.065-.808q.031-.427.032-.844-.001-.418-.032-.844a23 23 0 0 0-.066-.808 3 3 0 0 0-.065-.412c-.017-.066-.03-.087-.03-.09-.002-.002-.016-.027-.071-.082a.4.4 0 0 0-.083-.07.4.4 0 0 0-.089-.03c-.077-.02-.2-.044-.412-.066a23 23 0 0 0-.808-.066c-.283-.02-.567-.032-.844-.032"/></svg>