<svg xmlns="http://www.w3.org/2000/svg" viewBox="0 0 32 32"><path d="M19.042 3.402c-.106.235-.002.638.207 1.444l.718 2.775c.036.141.055.212.062.283a1 1 0 0 1 0 .191c-.007.072-.026.142-.062.283l-.718 2.775c-.209.806-.313 1.21-.207 1.444.093.204.274.35.488.394.246.052.601-.148 1.313-.548l6.132-3.446c.578-.325.867-.487.963-.702a.73.73 0 0 0 0-.59c-.096-.216-.385-.378-.963-.703l-6.132-3.446c-.712-.4-1.067-.6-1.313-.548a.7.7 0 0 0-.488.394M6.75 14.667a7.917 7.917 0 0 1 7.917-7.917h2.583a1.25 1.25 0 1 1 0 2.5h-2.583a5.417 5.417 0 0 0-5.417 5.417v2.583a1.25 1.25 0 1 1-2.5 0zM12 24a4 4 0 1 1-8 0 4 4 0 0 1 8 0m2.633-6.867c-.895.895-.958 1.781-1.084 3.552-.03.43-.049.873-.049 1.315s.018.885.049 1.315c.126 1.771.189 2.657 1.084 3.552s1.78.958 3.552 1.084c.43.03.873.05 1.315.05s.885-.02 1.315-.05c1.771-.126 2.657-.189 3.552-1.084.598-.598.825-1.192.947-2.048l.218.121c1.545.858 2.317 1.287 2.892.95.576-.34.576-1.223.576-2.99v-1.795c0-1.767 0-2.65-.576-2.989-.575-.338-1.347.09-2.892.949l-.218.12c-.122-.858-.348-1.453-.947-2.052-.895-.895-1.78-.958-3.552-1.084a18 18 0 0 0-2.63.001c-1.771.125-2.657.188-3.552 1.083"/></svg>