<svg xmlns="http://www.w3.org/2000/svg" viewBox="0 0 32 32"><path fill-rule="evenodd" d="M21 21a81 81 0 0 0-.052-2.5c-.162-4.533-.661-9.024-1.03-11.86-.193-1.486-.29-2.229-.963-2.864-.674-.635-1.253-.675-2.41-.756a8 8 0 0 0-1.089 0c-1.157.08-1.735.121-2.409.756s-.77 1.377-.963 2.862c-.37 2.837-.87 7.328-1.032 11.862A81 81 0 0 0 11 21zm-7.446-2.5h4.892c-.16-4.385-.645-8.75-1.007-11.539-.05-.382-.087-.665-.126-.907a4 4 0 0 0-.095-.46v-.002a3 3 0 0 0-.177-.024 18 18 0 0 0-.671-.054 5 5 0 0 0-.739 0c-.303.02-.502.035-.67.054q-.12.013-.177.024v.002a4 4 0 0 0-.095.46c-.04.242-.077.525-.126.907-.363 2.789-.848 7.153-1.01 11.539m1.222-12.922h-.002l-.02.01-.04.018.047-.01q-.001.002 0 0l.03-.027zm2.464.018.047.01q.002 0 0 0a.4.4 0 0 1-.06-.028h-.001a.4.4 0 0 1-.03-.049l.014.039v.001z"/><path d="M28 29H4c.079-.574.252-.998.696-1.45.706-.72 1.511-.763 3.122-.85 1.918-.103 4.657-.2 8.18-.2 3.526 0 6.265.097 8.184.2 1.61.087 2.416.13 3.122.85.444.453.617.876.696 1.45M6.5 25h19c-.038-.42-.143-.756-.433-1.178a3.4 3.4 0 0 0-.563-.594c-.638-.488-1.24-.52-2.443-.582a117 117 0 0 0-6.062-.146c-2.548 0-4.575.068-6.06.146-1.204.063-1.806.094-2.444.582a3.4 3.4 0 0 0-.562.593c-.29.423-.395.758-.433 1.179"/></svg>