<svg xmlns="http://www.w3.org/2000/svg" viewBox="0 0 44 44"><path d="M16.002 30h11.996l.002-.665c0-7.257-.685-15.45-1.16-20.268-.208-2.099-.312-3.148-1.288-4.064-.976-.917-1.734-.944-3.25-.998a9 9 0 0 0-.602 0c-1.516.054-2.274.081-3.25.998-.976.916-1.08 1.965-1.287 4.063C16.686 13.884 16 22.077 16 29.336q0 .34.002.664M38 40H6c.134-.58.384-1.057.874-1.559.97-.992 2.081-1.053 4.301-1.173 2.563-.14 6.185-.268 10.823-.268 4.64 0 8.263.129 10.826.268 2.221.12 3.332.18 4.302 1.173.49.502.74.979.874 1.559M9 35h26c-.082-.392-.238-.755-.53-1.183a4.7 4.7 0 0 0-.775-.815c-.877-.672-1.705-.715-3.36-.802-2.042-.107-4.831-.2-8.337-.2s-6.293.093-8.334.2c-1.656.087-2.483.13-3.36.802-.227.173-.613.58-.774.815-.293.427-.449.79-.531 1.183"/></svg>