<svg xmlns="http://www.w3.org/2000/svg" viewBox="0 0 16 16"><path fill-rule="evenodd" d="M10.976 9.5a37 37 0 0 1 .023 1.5H5.001v-.402q.003-.545.023-1.098c.09-2.506.41-5.057.639-6.624.11-.755.165-1.132.487-1.44s.64-.341 1.277-.405Q7.71 1 8.001 1q.291.002.573.03c.637.065.955.097 1.277.406.322.308.377.685.487 1.44.228 1.567.548 4.118.638 6.624m-4.45 0h2.949c-.09-2.404-.397-4.868-.621-6.408a17 17 0 0 0-.084-.531 14 14 0 0 0-.347-.038A4 4 0 0 0 8 2.5q-.203 0-.423.023c-.152.015-.258.026-.347.038l-.014.074c-.02.12-.042.262-.07.457-.224 1.54-.532 4.004-.622 6.408"/><path d="M14 15H2c.026-.424.09-.688.371-.975.353-.36.756-.382 1.561-.425.955-.052 2.317-.1 4.067-.1s3.113.048 4.069.1c.805.043 1.208.065 1.561.425.282.287.346.551.371.975M3.5 13h9c-.004-.357-.03-.57-.24-.865a1.7 1.7 0 0 0-.25-.264c-.325-.257-.628-.273-1.235-.305A53 53 0 0 0 8 11.5c-1.173 0-2.093.03-2.774.066-.607.032-.91.047-1.234.305a1.7 1.7 0 0 0-.251.264c-.21.294-.236.508-.24.865"/></svg>