<svg xmlns="http://www.w3.org/2000/svg" viewBox="0 0 24 24"><path d="M16 13a1 1 0 0 1-1 1h-2v2a1 1 0 1 1-2 0v-2H9a1 1 0 0 1 0-2h2v-2a1 1 0 1 1 2 0v2h2a1 1 0 0 1 1 1"/><path fill-rule="evenodd" d="M7.01 3.64c-.434.21-.851.514-1.308.968C4.4 5.903 4.315 6.898 4.146 8.89A43 43 0 0 0 4 12.501c0 1.366.058 2.57.147 3.612.168 1.99.253 2.985 1.555 4.28 1.301 1.294 2.279 1.37 4.234 1.525a26 26 0 0 0 4.128 0c1.955-.154 2.933-.231 4.234-1.525 1.302-1.295 1.387-2.29 1.555-4.28.089-1.041.147-2.246.147-3.612s-.058-2.57-.146-3.612c-.17-1.99-.254-2.986-1.556-4.28-.457-.455-.874-.76-1.307-.97a7 7 0 0 0-.03-.367c-.128-1.23-1.168-2.063-2.4-2.169A30 30 0 0 0 12 1a30 30 0 0 0-2.562.103c-1.23.107-2.271.94-2.4 2.168a7 7 0 0 0-.028.368m9.585 2.117q.135.112.293.27c.458.454.61.753.703 1.054.127.408.18.915.27 1.977.083.986.139 2.134.139 3.443s-.056 2.457-.14 3.443c-.09 1.062-.142 1.568-.27 1.976-.093.3-.244.6-.702 1.054-.462.46-.76.608-1.05.697-.397.122-.887.171-1.931.253a24 24 0 0 1-3.814 0c-1.044-.082-1.534-.13-1.931-.253-.291-.09-.589-.238-1.05-.697-.458-.454-.61-.753-.703-1.054-.127-.408-.18-.914-.27-1.976A41 41 0 0 1 6 12.501c0-1.31.056-2.457.14-3.443.09-1.062.142-1.569.27-1.977.093-.3.244-.6.702-1.054a5 5 0 0 1 .293-.27c.432.651 1.188 1.067 2.033 1.14C10.116 6.955 10.97 7 12 7s1.883-.045 2.562-.103c.845-.073 1.6-.489 2.033-1.14M9.61 3.096C10.232 3.042 11.03 3 12 3s1.768.042 2.39.096a.83.83 0 0 1 .47.177.3.3 0 0 1 .112.206 5 5 0 0 1 0 1.042.3.3 0 0 1-.112.206.83.83 0 0 1-.47.177C13.768 4.958 12.97 5 12 5s-1.768-.042-2.39-.096a.83.83 0 0 1-.47-.177.3.3 0 0 1-.112-.206 5 5 0 0 1 0-1.042.3.3 0 0 1 .112-.206.83.83 0 0 1 .47-.177"/></svg>