<svg xmlns="http://www.w3.org/2000/svg" viewBox="0 0 16 16"><path d="M8.75 8.5H10a.75.75 0 0 1 0 1.5H8.75v1.25a.75.75 0 0 1-1.5 0V10H6a.75.75 0 0 1 0-1.5h1.25V7.25a.75.75 0 0 1 1.5 0z"/><path fill-rule="evenodd" d="M6.142 1.083A20 20 0 0 1 8 1c.752 0 1.372.036 1.858.083.783.075 1.436.592 1.59 1.346.302.141.59.347.904.66.861.858.92 1.523 1.039 2.854a29 29 0 0 1 .108 2.558c0 .973-.043 1.826-.109 2.559-.117 1.33-.177 1.994-1.038 2.851-.86.858-1.517.913-2.83 1.024a18 18 0 0 1-3.045 0c-1.312-.111-1.969-.166-2.83-1.024-.86-.857-.92-1.522-1.038-2.852a29 29 0 0 1-.108-2.558c0-.973.043-1.826.108-2.558.118-1.33.177-1.996 1.039-2.853.315-.314.602-.52.905-.661.154-.754.806-1.271 1.59-1.346M8 2.5c-.704 0-1.276.034-1.715.076a.4.4 0 0 0-.22.084.12.12 0 0 0-.045.082 4.2 4.2 0 0 0 0 1.012.12.12 0 0 0 .044.082.4.4 0 0 0 .221.084c.439.042 1.01.076 1.715.076.704 0 1.276-.034 1.715-.076a.4.4 0 0 0 .22-.084.12.12 0 0 0 .045-.083 4.2 4.2 0 0 0 0-1.01.12.12 0 0 0-.044-.083.4.4 0 0 0-.221-.084A18 18 0 0 0 8 2.5M4.604 4.259c-.205.223-.275.376-.322.527-.08.253-.115.574-.179 1.29A28 28 0 0 0 4.001 8.5c0 .928.041 1.737.102 2.426.064.715.1 1.035.179 1.29.054.172.14.348.424.631.287.286.462.37.63.422.248.077.56.11 1.267.17a16.7 16.7 0 0 0 2.794 0c.706-.06 1.019-.093 1.267-.17.168-.052.343-.136.63-.421.285-.284.37-.46.424-.633.08-.254.115-.574.178-1.29.061-.688.103-1.497.103-2.425s-.042-1.737-.103-2.426c-.063-.715-.099-1.036-.178-1.29-.047-.15-.117-.303-.322-.526-.217.65-.824 1.086-1.538 1.154-.486.047-1.105.083-1.858.083s-1.373-.036-1.858-.083c-.715-.068-1.32-.505-1.538-1.154"/></svg>