<svg xmlns="http://www.w3.org/2000/svg" viewBox="0 0 16 16"><path fill-rule="evenodd" d="M8.008 1c-.754 0-1.464.33-1.998.862L3.646 4.227c-.682.682-1.023 1.023-1.26 1.476a4 4 0 0 0-.225.545c-.153.487-.153.909-.153 1.752 0 1.165.058 2.171.143 3.016.133 1.338.2 2.007 1.044 2.848.844.842 1.512.908 2.848 1.039A20 20 0 0 0 8.008 15c.702 0 1.364-.038 1.965-.097 1.336-.131 2.004-.197 2.848-1.039s.91-1.51 1.044-2.848c.084-.845.143-1.85.143-3.016s-.059-2.17-.143-3.015c-.134-1.339-.2-2.008-1.044-2.85s-1.513-.907-2.85-1.038A20 20 0 0 0 8.009 1M8.5 6.25v-1.5a.75.75 0 1 0-1.5 0v1.5a.75.75 0 1 0 1.5 0m2.5-1.5v1.5a.75.75 0 0 1-1.5 0v-1.5a.75.75 0 0 1 1.5 0"/></svg>