<svg xmlns="http://www.w3.org/2000/svg" viewBox="0 0 24 24"><path fill-rule="evenodd" d="M12.008 2c-1.165 0-2.257.52-3.081 1.343L6.754 5.516C5.438 6.832 4.78 7.49 4.4 8.403s-.384 1.731-.39 3.367l-.001.23c0 1.55.067 2.903.168 4.056.175 2.024.263 3.036 1.557 4.325s2.264 1.37 4.205 1.532a25 25 0 0 0 4.14 0c1.94-.161 2.91-.242 4.205-1.532 1.293-1.289 1.381-2.301 1.557-4.325.1-1.153.168-2.506.168-4.056 0-1.549-.068-2.901-.168-4.054-.175-2.025-.263-3.038-1.557-4.327s-2.265-1.37-4.207-1.532A25 25 0 0 0 12.008 2m0 8a1 1 0 0 1-1-1V7a1 1 0 1 1 2 0v2a1 1 0 0 1-1 1m3 0a1 1 0 0 1-1-1V7a1 1 0 1 1 2 0v2a1 1 0 0 1-1 1"/></svg>