<svg xmlns="http://www.w3.org/2000/svg" viewBox="0 0 32 32"><path fill-rule="evenodd" d="M19.597 26.112c-.292.101-.667.158-1.648.273A17 17 0 0 1 16 26.5c-.684 0-1.338-.044-1.95-.116-.98-.114-1.355-.17-1.647-.273-.172-.06-.389-.16-.793-.575-.36-.368-.47-.6-.548-.866-.12-.402-.177-.92-.28-2.057A73 73 0 0 1 10.5 16c0-2.689.124-4.895.281-6.612.104-1.137.162-1.656.28-2.058.08-.266.19-.499.549-.867.404-.415.622-.515.793-.575.292-.102.668-.158 1.65-.273.61-.071 1.263-.115 1.947-.115a17 17 0 0 1 1.948.115c.981.115 1.357.171 1.649.273.171.06.388.16.793.575.36.368.47.601.549.867.118.402.176.92.28 2.058.157 1.717.281 3.923.281 6.612s-.124 4.896-.281 6.613c-.104 1.137-.162 1.656-.28 2.057-.08.266-.19.498-.549.866-.404.416-.621.516-.793.575M23.71 9.16c.163 1.792.291 4.074.291 6.84s-.128 5.05-.291 6.84c-.194 2.115-.29 3.172-1.529 4.442-1.237 1.27-2.138 1.375-3.94 1.585-.697.082-1.45.133-2.24.133s-1.543-.05-2.24-.132c-1.802-.211-2.703-.317-3.94-1.586S8.485 24.955 8.29 22.84A75 75 0 0 1 8 16c0-2.766.127-5.048.291-6.84.194-2.115.29-3.173 1.529-4.442s2.14-1.375 3.942-1.586A19 19 0 0 1 16 3c.79 0 1.541.05 2.238.132 1.803.21 2.704.316 3.942 1.586 1.238 1.269 1.335 2.327 1.529 4.442M16 24a1.75 1.75 0 1 0 0-3.5 1.75 1.75 0 0 0 0 3.5"/></svg>