<svg xmlns="http://www.w3.org/2000/svg" viewBox="0 0 32 32"><path fill-rule="evenodd" d="M8.292 22.84A75 75 0 0 1 8 16c0-2.766.127-5.048.291-6.84.194-2.115.29-3.173 1.529-4.442s2.14-1.375 3.942-1.586A19 19 0 0 1 16 3c.79 0 1.541.05 2.238.132 1.803.21 2.704.316 3.942 1.586 1.238 1.269 1.335 2.327 1.529 4.442.163 1.792.291 4.074.291 6.84s-.128 5.05-.291 6.84c-.194 2.115-.29 3.172-1.529 4.442-1.237 1.27-2.138 1.375-3.94 1.585-.697.082-1.45.133-2.24.133s-1.543-.05-2.24-.132c-1.802-.211-2.703-.317-3.94-1.586s-1.335-2.327-1.53-4.442M16 24a1.75 1.75 0 1 0 0-3.5 1.75 1.75 0 0 0 0 3.5"/></svg>