<svg xmlns="http://www.w3.org/2000/svg" viewBox="0 0 44 44"><path fill-rule="evenodd" d="M11 22c0 3.795.172 6.933.395 9.403.266 2.957.399 4.435 2.14 6.217s2.993 1.925 5.497 2.21c.927.105 1.923.17 2.968.17s2.04-.065 2.968-.17c2.504-.285 3.756-.427 5.497-2.21 1.74-1.782 1.874-3.26 2.14-6.217.223-2.47.395-5.608.395-9.403 0-3.794-.172-6.931-.395-9.401-.266-2.959-.399-4.438-2.14-6.22s-2.995-1.925-5.5-2.209A26 26 0 0 0 22 4a26 26 0 0 0-2.964.17c-2.506.284-3.759.426-5.5 2.209-1.742 1.782-1.875 3.261-2.142 6.22C11.172 15.069 11 18.206 11 22m11 11a2.25 2.25 0 1 0 0-4.5 2.25 2.25 0 0 0 0 4.5"/></svg>