<svg xmlns="http://www.w3.org/2000/svg" viewBox="0 0 44 44"><path fill-rule="evenodd" d="M16.78 9.268q.356.234.722.467a85 85 0 0 0 3.174 1.923l.052.03.016.01a1.5 1.5 0 0 1-1.488 2.604l-.021-.011-.057-.033a111 111 0 0 1-.966-.566c-.624-.37-1.464-.88-2.323-1.427-.918-.586-1.888-1.235-2.64-1.819a9 9 0 0 1-1.013-.887 3.4 3.4 0 0 1-.424-.534A1.94 1.94 0 0 1 11.5 8c0-.467.19-.824.297-1 .125-.205.274-.383.407-.525.269-.288.611-.581.963-.858.713-.56 1.635-1.184 2.522-1.754a86 86 0 0 1 3.483-2.118l.061-.035.022-.012a1.5 1.5 0 0 1 1.49 2.604l-.019.01-.056.033-.217.125a89 89 0 0 0-2.836 1.722q.492-.036 1.022-.071C19.741 6.045 20.87 6 22 6s2.26.044 3.36.12c4.781.327 7.172.491 9.6 2.92s2.592 4.818 2.92 9.599c.075 1.1.12 2.23.12 3.36s-.045 2.26-.12 3.36c-.328 4.781-.492 7.172-2.92 9.6s-4.819 2.592-9.6 2.92c-1.1.075-2.23.12-3.36.12s-2.26-.045-3.36-.12c-4.781-.328-7.171-.492-9.6-2.92s-2.592-4.819-2.92-9.6a53 53 0 0 1-.095-1.86c-.027-.828.647-1.5 1.475-1.5s1.498.672 1.527 1.5q.03.832.086 1.656c.341 4.974.536 6.17 2.049 7.683s2.708 1.707 7.682 2.048A46 46 0 0 0 22 35a46 46 0 0 0 3.156-.113c4.974-.341 6.17-.535 7.683-2.048s1.707-2.709 2.048-7.683A46 46 0 0 0 35 22c0-1.051-.042-2.112-.113-3.155-.341-4.974-.536-6.17-2.048-7.683s-2.71-1.707-7.683-2.048A46 46 0 0 0 22 9a46 46 0 0 0-3.155.114c-.775.053-1.458.102-2.065.154m1.935 9.447c-.51.511-.56 1.04-.657 2.096-.035.383-.058.786-.058 1.189s.023.806.058 1.189c.098 1.056.147 1.585.657 2.096.511.51 1.04.56 2.096.657.383.035.786.058 1.189.058s.806-.023 1.189-.058c1.056-.098 1.585-.147 2.096-.657.51-.511.56-1.04.657-2.096.035-.383.058-.786.058-1.189s-.023-.806-.058-1.189c-.098-1.056-.147-1.585-.657-2.096-.511-.51-1.04-.56-2.096-.657A13 13 0 0 0 22 18c-.403 0-.806.023-1.189.058-1.056.098-1.585.147-2.096.657"/></svg>