<svg xmlns="http://www.w3.org/2000/svg" viewBox="0 0 32 32"><path d="M0 11.25C0 10.56.56 10 1.25 10h29.499a1.25 1.25 0 1 1 0 2.5H1.25C.56 12.5 0 11.94 0 11.25m2.042 8.894a1.1 1.1 0 0 1-.178-.464H-.002q.05.603.286 1.037.247.424.691.7.455.277 1.136.406.68.128 1.609.128 1.817 0 2.705-.523.888-.524.889-1.728 0-.553-.237-.908a1.6 1.6 0 0 0-.612-.563 2.8 2.8 0 0 0-.86-.316 8 8 0 0 0-.996-.158q-.504-.05-.988-.079a8 8 0 0 1-.868-.099 1.9 1.9 0 0 1-.613-.207.45.45 0 0 1-.227-.405q0-.444.405-.592.415-.159 1.303-.158.741 0 1.185.158.444.148.523.632h1.866q-.089-1.155-1.007-1.65-.908-.492-2.567-.493-.83 0-1.48.119a3.4 3.4 0 0 0-1.106.385 1.8 1.8 0 0 0-.691.661q-.237.405-.237.978 0 .572.227.938.237.364.612.592.385.217.869.326.483.099.987.148.504.05.987.079.484.03.86.098.384.07.611.218a.45.45 0 0 1 .237.414q0 .444-.434.612t-1.343.168q-.435 0-.76-.04a2 2 0 0 1-.553-.137.9.9 0 0 1-.365-.277M7.649 15v1.491h2.754v5.322h1.837V16.49h2.764V15z"/><path fill-rule="evenodd" d="M15.3 18.367q0-.987.276-1.658.276-.682.82-1.086.542-.405 1.332-.583a8.3 8.3 0 0 1 1.817-.178q1.027 0 1.816.178t1.333.583.82 1.086q.276.67.276 1.658 0 1.017-.276 1.708a2.6 2.6 0 0 1-.82 1.106q-.543.415-1.333.592a8.3 8.3 0 0 1-1.816.178q-1.027 0-1.817-.178-.789-.177-1.333-.592a2.6 2.6 0 0 1-.819-1.106q-.276-.69-.276-1.708m6.624-.336q0-.976-.602-1.362-.592-.385-1.777-.385t-1.787.385q-.603.385-.602 1.362v.721q0 .514.148.859.158.336.454.543t.74.296q.454.08 1.047.08.592 0 1.036-.08.446-.088.74-.286.307-.208.455-.543.148-.345.148-.869zm9.472-2.418Q30.803 15 29.54 15H24.9v6.812h1.836V19.68h2.804q1.273 0 1.866-.612.592-.612.592-1.747 0-1.096-.602-1.708m-1.461 1.036q.207.218.207.553v.267q0 .355-.207.572-.199.218-.652.218h-2.547v-1.837h2.547q.454 0 .652.227"/></svg>