<svg xmlns="http://www.w3.org/2000/svg" viewBox="0 0 24 24"><path d="M3.419 7c.207-.905.561-1.608 1.266-2.313 1.313-1.312 2.62-1.41 5.237-1.604C10.6 3.032 11.299 3 11.999 3s1.4.031 2.077.082c2.616.194 3.924.292 5.237 1.604.705.705 1.06 1.408 1.267 2.313zM3.08 9.924q.036-.49.071-.924h17.696q.035.433.07.922v.002c.047.623.077 1.264.081 1.907-.937-.394-2.243-.831-3.502-.831-1.43 0-2.921.564-3.865.988l-.052.024-.064.029c-.435.193-1.18.525-1.629 1.259-.45.737-.402 1.562-.374 2.039l.004.07.004.086c.095 1.788.423 3.744 1.52 5.485a26 26 0 0 1-3.118-.06c-2.616-.194-3.924-.292-5.237-1.605s-1.41-2.62-1.605-5.236A28 28 0 0 1 3 12c0-.7.03-1.399.081-2.077"/><path d="m14.398 13.837.054-.025c.891-.4 2.058-.812 3.044-.812s2.153.411 3.044.812l.055.025c.53.238.709.35.804.505s.113.372.08.958l-.004.088c-.1 1.863-.463 3.609-1.57 5.03a5.5 5.5 0 0 1-1.15 1.068c-.479.33-.928.514-1.259.514s-.78-.184-1.258-.514a5.5 5.5 0 0 1-1.151-1.069c-1.107-1.42-1.47-3.166-1.57-5.029l-.004-.088c-.033-.586-.015-.802.08-.958.096-.156.274-.267.805-.505"/></svg>