<svg xmlns="http://www.w3.org/2000/svg" viewBox="0 0 16 16"><path fill-rule="evenodd" d="M3.124 3.125c-.875.875-.94 1.747-1.07 3.491C2.02 7.068 2 7.535 2 8.001s.02.933.054 1.385c.13 1.744.195 2.616 1.07 3.491s1.747.97 3.491 1.1l.382.015a.73.73 0 0 0 .712-.742.76.76 0 0 0-.4-.663c-.144-.078-.32-.088-.493-.1l-.09-.005c-1.844-.137-2.121-.245-2.541-.666-.42-.42-.498-.697-.635-2.542a17 17 0 0 1-.05-1.273c0-.423.019-.852.05-1.273l.005-.075.012-.153h8.892c.102.293.38.5.709.5a.747.747 0 0 0 .742-.854c-.113-1.438-.241-2.228-1.034-3.021-.875-.875-1.747-.94-3.491-1.07A19 19 0 0 0 8 2.001c-.466 0-.933.02-1.385.054-1.744.13-2.616.195-3.491 1.07M8 3.501c-.423 0-.852.019-1.273.05-1.845.137-2.122.214-2.542.635-.226.225-.353.406-.443.814h8.516c-.09-.408-.217-.589-.443-.814-.42-.42-.697-.498-2.542-.635-.42-.031-.85-.05-1.273-.05"/><path fill-rule="evenodd" d="M8.18 8.75a1.16 1.16 0 0 0-.177.557 5 5 0 0 0 .01.581c.072 1.306.338 2.649 1.244 3.776.232.288.579.612.96.867.371.248.832.469 1.283.469s.91-.221 1.282-.47a4.5 4.5 0 0 0 .96-.866c.906-1.127 1.172-2.47 1.244-3.776a5 5 0 0 0 .01-.581 1.16 1.16 0 0 0-.588-.951 5 5 0 0 0-.514-.248c-.633-.276-1.554-.604-2.394-.604s-1.762.328-2.395.604c-.205.09-.38.168-.514.247a1.2 1.2 0 0 0-.411.395m3.201 4.714a2 2 0 0 1-.33-.18 3 3 0 0 1-.625-.56c-.617-.768-.85-1.738-.915-2.918l-.01-.232.204-.09c.594-.26 1.278-.48 1.795-.48s1.2.22 1.794.48q.126.054.205.09l-.01.232c-.066 1.18-.299 2.15-.916 2.918a3 3 0 0 1-.624.56c-.13.087-.243.145-.331.18a.6.6 0 0 1-.118.036.6.6 0 0 1-.119-.036"/></svg>