<svg xmlns="http://www.w3.org/2000/svg" viewBox="0 0 24 24"><path fill-rule="evenodd" d="M4.682 4.686c-1.313 1.313-1.41 2.62-1.605 5.237-.05.678-.08 1.377-.08 2.077s.03 1.399.08 2.077c.195 2.616.292 3.924 1.605 5.237s2.62 1.41 5.237 1.605c.678.05 1.378.081 2.077.081s1.4-.03 2.077-.081c2.616-.195 3.924-.292 5.237-1.605s1.41-2.62 1.605-5.237c.05-.678.081-1.377.081-2.077s-.03-1.399-.081-2.077c-.195-2.616-.292-3.924-1.605-5.237s-2.62-1.41-5.237-1.605A28 28 0 0 0 11.996 3c-.7 0-1.399.03-2.077.081-2.616.195-3.924.292-5.237 1.605M8.495 10a3.501 3.501 0 1 1 7.002 0 3.501 3.501 0 0 1-7.002 0m4.35 5.021c1.547.077 3.068.44 5.854 1.145-.145.915-.355 1.285-.803 1.734-.706.706-1.22.82-3.971 1.024-.637.048-1.287.076-1.929.076s-1.292-.028-1.929-.076c-2.75-.204-3.265-.318-3.97-1.024-.449-.448-.658-.82-.804-1.733 2.79-.706 4.312-1.069 5.858-1.146a17 17 0 0 1 1.695 0"/></svg>