<svg xmlns="http://www.w3.org/2000/svg" viewBox="0 0 28 28"><path fill-rule="evenodd" d="M5.057 5.06c-1.605 1.605-1.724 3.204-1.962 6.401A34 34 0 0 0 2.996 14c0 .855.037 1.71.1 2.539.237 3.197.356 4.796 1.96 6.4s3.204 1.724 6.401 1.962c.83.062 1.684.099 2.54.099.854 0 1.709-.037 2.538-.1 3.197-.237 4.796-.356 6.4-1.96s1.724-3.204 1.962-6.401c.062-.83.1-1.684.1-2.539s-.038-1.71-.1-2.539c-.238-3.197-.357-4.796-1.961-6.4s-3.204-1.724-6.401-1.962C15.706 3.037 14.85 3 13.996 3s-1.71.037-2.539.1c-3.197.237-4.796.356-6.4 1.96m8.939 2.16a4.28 4.28 0 1 0 0 8.56 4.28 4.28 0 0 0 0-8.56m8.567 12.307c-3.645-.924-5.57-1.403-7.529-1.501a21 21 0 0 0-2.07 0c-1.959.097-3.885.577-7.534 1.502.189.931.477 1.433 1.04 1.997.999.998 1.804 1.134 5.136 1.382.788.058 1.592.093 2.39.093s1.603-.035 2.39-.093c3.332-.248 4.137-.384 5.135-1.382.564-.564.853-1.066 1.042-1.998"/></svg>