<svg xmlns="http://www.w3.org/2000/svg" viewBox="0 0 28 28"><path d="M14 7.22a4.28 4.28 0 1 0 0 8.56 4.28 4.28 0 0 0 0-8.56"/><path fill-rule="evenodd" d="M3.1 11.461c.237-3.197.356-4.796 1.96-6.4s3.204-1.724 6.401-1.962C12.291 3.037 13.145 3 14 3s1.71.037 2.539.1c3.197.237 4.796.356 6.4 1.96s1.724 3.204 1.962 6.401c.062.83.099 1.684.099 2.539s-.037 1.71-.1 2.539c-.237 3.197-.356 4.796-1.96 6.4s-3.204 1.724-6.401 1.962c-.83.062-1.684.099-2.539.099s-1.71-.037-2.539-.1c-3.197-.237-4.796-.356-6.4-1.96s-1.724-3.204-1.962-6.401C3.037 15.709 3 14.855 3 14s.037-1.71.1-2.539m8.51-6.367A32 32 0 0 1 14 5c.798 0 1.602.035 2.39.094 3.332.248 4.137.383 5.135 1.38.998.999 1.134 1.804 1.382 5.136.058.788.093 1.592.093 2.39s-.035 1.602-.093 2.39c-.108 1.449-.195 2.42-.34 3.137-3.646-.925-5.57-1.403-7.529-1.501a21 21 0 0 0-2.07 0c-1.959.097-3.886.576-7.535 1.501-.145-.717-.232-1.688-.34-3.137A32 32 0 0 1 5 14c0-.798.035-1.602.094-2.39.248-3.332.383-4.137 1.38-5.135.999-.998 1.804-1.133 5.136-1.381"/></svg>