<svg xmlns="http://www.w3.org/2000/svg" viewBox="0 0 32 32"><path d="M16 8.999a4.5 4.5 0 1 0 0 9.002 4.5 4.5 0 0 0 0-9.002"/><path fill-rule="evenodd" d="M4.108 13.23c.26-3.488.39-5.232 2.14-6.982s3.494-1.88 6.982-2.14A38 38 0 0 1 16 4c.933 0 1.865.04 2.77.108 3.488.26 5.232.39 6.982 2.14s1.88 3.494 2.14 6.982c.067.905.108 1.837.108 2.77s-.04 1.865-.108 2.77c-.26 3.488-.39 5.232-2.14 6.982s-3.494 1.88-6.982 2.14c-.905.067-1.837.108-2.77.108s-1.865-.04-2.77-.108c-3.488-.26-5.232-.39-6.982-2.14s-1.88-3.494-2.14-6.982A38 38 0 0 1 4 16c0-.933.04-1.865.108-2.77m9.308-6.629A35 35 0 0 1 16 6.5c.861 0 1.731.038 2.584.101 3.656.272 4.408.423 5.4 1.415s1.143 1.744 1.415 5.4c.063.853.101 1.723.101 2.584s-.038 1.731-.101 2.584c-.1 1.345-.184 2.297-.299 3.013-3.818-.968-5.875-1.464-7.967-1.569a23 23 0 0 0-2.26 0c-2.091.104-4.15.601-7.973 1.569-.115-.716-.199-1.668-.299-3.013A35 35 0 0 1 6.5 16c0-.861.038-1.731.101-2.584.272-3.656.423-4.408 1.415-5.4s1.744-1.143 5.4-1.415"/></svg>