<svg xmlns="http://www.w3.org/2000/svg" viewBox="0 0 16 16"><path fill-rule="evenodd" d="M2.054 6.612C2.184 4.87 2.25 4 3.124 3.125c.874-.874 1.745-.94 3.487-1.07.454-.033.921-.054 1.39-.054.467 0 .935.02 1.388.055 1.743.13 2.614.195 3.488 1.069s.94 1.745 1.07 3.487c.033.454.054.922.054 1.39s-.021.935-.055 1.388c-.13 1.743-.195 2.614-1.069 3.488s-1.745.94-3.488 1.07c-.453.033-.921.054-1.389.054s-.935-.02-1.389-.055c-1.742-.13-2.613-.195-3.488-1.069-.874-.874-.939-1.745-1.069-3.488A19 19 0 0 1 2 8.001c0-.467.02-.935.054-1.389m5.837 2.096Q8 8.388 8 7.902q0-.454-.108-.756a1.1 1.1 0 0 0-.31-.481 1.16 1.16 0 0 0-.5-.261 2.7 2.7 0 0 0-.679-.077q-.383 0-.68.077a1.2 1.2 0 0 0-.504.261q-.202.18-.31.481a2.4 2.4 0 0 0-.104.757q0 .486.104.805.108.32.31.513.207.189.504.27.297.077.68.077.382 0 .68-.077.296-.081.499-.27.207-.194.31-.513m-.859-1.31q.045.132.045.325v.44q0 .216-.045.351a.45.45 0 0 1-.126.208.5.5 0 0 1-.212.098 1.4 1.4 0 0 1-.292.027q-.167 0-.293-.027a.5.5 0 0 1-.211-.098.5.5 0 0 1-.13-.207 1.3 1.3 0 0 1-.041-.351v-.441q0-.194.04-.324a.47.47 0 0 1 .342-.32q.126-.031.293-.031t.292.031a.45.45 0 0 1 .338.32m2.454.136h-.158v-1.14h-.9V9.5h.9V8.299h.13l.833 1.201h1.04l-1.125-1.625 1.035-1.48h-.95z"/></svg>