<svg xmlns="http://www.w3.org/2000/svg" viewBox="0 0 24 24"><path fill-rule="evenodd" d="M10.072 5.077A26 26 0 0 1 12 5.001c.642 0 1.291.029 1.928.076 2.75.205 3.265.318 3.971 1.025.707.706.82 1.22 1.025 3.97.047.638.075 1.287.075 1.93 0 .642-.028 1.291-.075 1.928-.205 2.75-.319 3.265-1.025 3.971-.706.707-1.22.82-3.97 1.025-.638.047-1.287.076-1.93.076-.642 0-1.291-.029-1.928-.076-2.75-.205-3.265-.318-3.971-1.025-.707-.706-.82-1.22-1.025-3.97A26 26 0 0 1 5 12c0-.642.029-1.291.076-1.928.205-2.75.318-3.265 1.025-3.971.706-.707 1.22-.82 3.97-1.025m-6.99 4.847C3.276 7.308 3.374 6 4.686 4.687 6 3.375 7.307 3.277 9.923 3.083A28 28 0 0 1 12.001 3c.699 0 1.399.031 2.077.082 2.616.194 3.924.292 5.236 1.604C20.627 6 20.725 7.308 20.92 9.924c.05.678.081 1.378.081 2.078 0 .699-.03 1.398-.08 2.077-.195 2.616-.293 3.924-1.606 5.236-1.312 1.313-2.62 1.41-5.236 1.605-.678.05-1.378.081-2.077.081s-1.4-.03-2.078-.08c-2.616-.195-3.924-.293-5.237-1.605-1.312-1.313-1.41-2.621-1.604-5.237A28 28 0 0 1 3 12c0-.7.031-1.399.082-2.077m8.75 3.244q.167-.497.167-1.253 0-.707-.168-1.176a1.7 1.7 0 0 0-.483-.749 1.8 1.8 0 0 0-.777-.406 4.3 4.3 0 0 0-1.057-.119q-.595 0-1.057.119a1.85 1.85 0 0 0-.784.406q-.314.28-.483.749-.16.47-.16 1.176 0 .756.16 1.253.168.496.483.798.322.294.784.42.462.12 1.057.119.596 0 1.057-.119.462-.126.777-.42.322-.3.483-.798m-1.338-2.037q.07.203.07.504v.686q0 .336-.07.546a.7.7 0 0 1-.196.322.74.74 0 0 1-.329.154 2.2 2.2 0 0 1-.455.042 2.2 2.2 0 0 1-.455-.042.74.74 0 0 1-.329-.154.75.75 0 0 1-.203-.322 2 2 0 0 1-.063-.546v-.686q0-.3.063-.504a.75.75 0 0 1 .203-.322.7.7 0 0 1 .33-.175 2 2 0 0 1 .454-.049q.26 0 .455.049.195.05.33.175a.7.7 0 0 1 .195.322m3.817.21h-.245V9.57h-1.4v4.83h1.4v-1.869h.203l1.295 1.869h1.617l-1.75-2.527 1.61-2.303h-1.477z"/></svg>