<svg xmlns="http://www.w3.org/2000/svg" viewBox="0 0 44 44"><path fill-rule="evenodd" d="M38.485 21.879A5.4 5.4 0 0 0 37.64 20h1.86a1.5 1.5 0 0 0 0-3h-3.33c-1.164-3.558-1.78-5.363-3.945-7.056a11 11 0 0 0-.534-.387C29.373 8 26.916 8 22.001 8c-4.917 0-7.376 0-9.694 1.558-.15.1-.39.275-.531.385C9.609 11.636 8.993 13.442 7.83 17H4.5a1.5 1.5 0 0 0 0 3h1.86a5.4 5.4 0 0 0-.844 1.876A18.6 18.6 0 0 0 5 26.166V35.5a2.5 2.5 0 0 0 5 0V34h24v1.5a2.5 2.5 0 0 0 5 0v-9.333c0-1.602-.224-3.064-.516-4.288M22 17c-5.103 0-8.747.25-11.182.516 1.093-3.311 1.504-4.193 2.805-5.209a8 8 0 0 1 .357-.259C15.383 11.105 16.785 11 22 11s6.615.105 8.018 1.047c.09.06.274.194.36.26 1.3 1.017 1.71 1.898 2.804 5.21C30.746 17.25 27.102 17 22 17m-7.5 8.5a2 2 0 1 1-4 0 2 2 0 0 1 4 0m19 0a2 2 0 1 1-4 0 2 2 0 0 1 4 0m-15-1.5a1.5 1.5 0 1 0 0 3h7a1.5 1.5 0 0 0 0-3z"/></svg>