<svg xmlns="http://www.w3.org/2000/svg" viewBox="0 0 32 32"><path fill-rule="evenodd" d="M7.5 25h17v1a2 2 0 0 0 4 0v-7.333c0-1.147-.158-2.195-.365-3.077a4 4 0 0 0-.431-1.09h1.046a1.25 1.25 0 1 0 0-2.5h-2.5q-.062 0-.122.006c-.74-2.237-1.23-3.45-2.692-4.592a8 8 0 0 0-.388-.282C21.362 6 19.575 6 16 6s-5.364 0-7.05 1.133c-.108.073-.283.2-.386.28C7.102 8.555 6.61 9.77 5.87 12.006A1 1 0 0 0 5.75 12h-2.5a1.25 1.25 0 1 0 0 2.5h1.046a4 4 0 0 0-.43 1.088 13.5 13.5 0 0 0-.366 3.079V26a2 2 0 1 0 4 0zM21.897 9.384c.77.602 1.071 1.107 1.696 2.93C21.813 12.146 19.318 12 16 12c-3.32 0-5.814.145-7.594.315.625-1.824.925-2.329 1.697-2.932.056-.043.182-.135.241-.175.924-.62 1.832-.708 5.656-.708s4.73.087 5.654.708c.06.04.186.132.243.176M11.25 18.5a1.75 1.75 0 1 1-3.5 0 1.75 1.75 0 0 1 3.5 0m13 0a1.75 1.75 0 1 1-3.5 0 1.75 1.75 0 0 1 3.5 0m-10.5-1.25a1.25 1.25 0 0 0 0 2.5h4.5a1.25 1.25 0 0 0 0-2.5z"/></svg>