<svg xmlns="http://www.w3.org/2000/svg" viewBox="0 0 24 24"><path d="M8.25 14a1.25 1.25 0 1 1-2.5 0 1.25 1.25 0 0 1 2.5 0M17 15.25a1.25 1.25 0 1 0 0-2.5 1.25 1.25 0 0 0 0 2.5M9.5 14a1 1 0 0 1 1-1h3a1 1 0 1 1 0 2h-3a1 1 0 0 1-1-1"/><path fill-rule="evenodd" d="M4.242 9H2.5a1 1 0 1 0 0 2h.535q-.178.336-.269.726A10 10 0 0 0 2.5 14v5.5a1.5 1.5 0 0 0 3 0V19h13v.5a1.5 1.5 0 0 0 3 0V14c0-.845-.114-1.619-.266-2.273a3 3 0 0 0-.27-.727h.536a1 1 0 1 0 0-2h-1.742c-.653-2-.981-3-2.18-3.938a6 6 0 0 0-.292-.21c-1.264-.85-2.605-.85-5.286-.85s-4.022 0-5.287.85c-.081.054-.213.15-.29.21C5.223 5.999 4.896 7 4.242 9m13.488.235c-.58-1.749-.778-2.123-1.384-2.597a4 4 0 0 0-.175-.127c-.654-.44-1.29-.51-4.17-.51s-3.518.071-4.173.51a4 4 0 0 0-.173.127c-.607.474-.805.848-1.385 2.597C7.63 9.108 9.518 9 12 9s4.37.108 5.73.235M4.715 12.177A8 8 0 0 0 4.5 14v3h15v-3c0-.667-.09-1.288-.214-1.822-.094-.407-.478-.82-1.204-.898C16.775 11.14 14.78 11 12 11s-4.776.14-6.082.28c-.726.079-1.11.49-1.203.897"/></svg>