<svg xmlns="http://www.w3.org/2000/svg" viewBox="0 0 16 16"><path fill-rule="evenodd" d="M8.75 1.754a.75.75 0 1 0-1.5 0v.496a.75.75 0 0 0 1.5 0zm0 11.996a.75.75 0 0 0-1.5 0v.5a.75.75 0 0 0 1.5 0zM15 8a.75.75 0 0 1-.75.75h-.5a.75.75 0 0 1 0-1.5h.5A.75.75 0 0 1 15 8m-12.75.75a.75.75 0 0 0 0-1.5h-.496a.75.75 0 1 0 0 1.5zm2.543-3.956c-.681.68-.714 1.326-.778 2.616a12 12 0 0 0 0 1.182c.064 1.29.097 1.935.778 2.616.68.681 1.326.713 2.616.778a12 12 0 0 0 1.181 0c1.29-.065 1.936-.097 2.617-.778.68-.68.713-1.326.778-2.616a12 12 0 0 0 0-1.182c-.065-1.29-.097-1.935-.778-2.616S9.88 4.08 8.59 4.016a12 12 0 0 0-1.18 0c-1.291.065-1.936.097-2.617.778M8 5.5q.256 0 .515.013c.697.035 1.015.057 1.25.116a.7.7 0 0 1 .381.224c.149.149.19.239.225.381.059.236.08.554.116 1.25a10 10 0 0 1 0 1.032c-.035.696-.057 1.014-.116 1.25a.7.7 0 0 1-.225.38.7.7 0 0 1-.38.225c-.236.059-.554.08-1.25.116q-.26.012-.516.013zm-3.603 7a.898.898 0 1 1-1.795 0 .898.898 0 0 1 1.795 0m.001-9a.898.898 0 1 1-1.796 0 .898.898 0 0 1 1.796 0m9 9a.898.898 0 1 1-1.796 0 .898.898 0 0 1 1.796 0m0-9a.898.898 0 1 1-1.796 0 .898.898 0 0 1 1.796 0"/></svg>