<svg xmlns="http://www.w3.org/2000/svg" viewBox="0 0 24 24"><path d="M12 3.997c0 .521-.4.953-.92 1.004-1.838.18-2.326.367-2.905.951-.593.6-.767 1.079-.925 2.944a79 79 0 0 0 1.167-1.173l.235-.238a1 1 0 1 1 1.426 1.402l-.234.238c-1.99 2.024-2.984 3.036-4.109 2.852S3.99 10.517 2.75 7.965l-.146-.3A1 1 0 0 1 4.4 6.79l.146.3c.284.584.519 1.064.722 1.463.16-1.833.416-2.928 1.485-4.008 1.085-1.097 2.224-1.358 4.165-1.54A.993.993 0 0 1 12 3.996"/><path fill-rule="evenodd" d="M21 13v-2c0-1.886 0-2.828-.586-3.414S18.885 7 17 7h-2c-1.886 0-2.828 0-3.414.586S11 9.114 11 11v1c-1.886 0-2.829 0-3.414.586C7 13.172 7 14.114 7 16v2l-.866 1.503A1 1 0 0 0 7.002 21h9.996a1 1 0 0 0 .867-1.498L17 18v-2h3.998a1 1 0 0 0 .867-1.498zm-8-2v1c1.886 0 2.828 0 3.414.586q.18.18.293.414H19v-2c0-1-.013-1.556-.064-1.936C18.556 9.013 18 9 17 9h-2c-1 0-1.556.013-1.937.064C13.013 9.444 13 10 13 11m-2 3h2c1 0 1.556.012 1.936.064.051.38.064.937.064 1.936v2H9v-2c0-1 .012-1.556.064-1.936C9.444 14.012 10 14 11 14"/></svg>