<svg xmlns="http://www.w3.org/2000/svg" viewBox="0 0 16 16"><path fill-rule="evenodd" d="M13.95 6.618c-.13-1.743-.19-2.625-1.072-3.496-.881-.872-1.753-.942-3.496-1.072C8.932 2.02 8.461 2 8 2s-.932.02-1.382.05c-1.743.13-2.625.19-3.496 1.072-.872.881-.942 1.753-1.072 3.496C2.02 7.068 2 7.539 2 8s.02.932.05 1.382c.13 1.743.19 2.625 1.072 3.496.881.882 1.753.942 3.496 1.072.45.03.921.05 1.382.05s.932-.02 1.382-.05c1.743-.13 2.625-.19 3.496-1.072.882-.881.942-1.753 1.072-3.496.03-.45.05-.921.05-1.382s-.02-.932-.05-1.382m-5.09 4.507H7.37V6.387L6.137 7.4V5.927l1.232-.982H8.86z"/></svg>