<svg xmlns="http://www.w3.org/2000/svg" viewBox="0 0 24 24"><path d="M9.51 11.03V8.81l1.87-1.49h2.26v9.35h-2.26V9.5z"/><path fill-rule="evenodd" d="M19.32 4.68c1.31 1.32 1.41 2.62 1.6 5.24.05.68.08 1.38.08 2.08s-.03 1.4-.08 2.08c-.19 2.62-.29 3.93-1.6 5.24-1.32 1.31-2.62 1.41-5.24 1.6-.68.05-1.38.08-2.08.08s-1.4-.03-2.08-.08c-2.62-.19-3.93-.29-5.24-1.6-1.31-1.32-1.41-2.62-1.6-5.24C3.03 13.4 3 12.7 3 12s.03-1.4.08-2.08l.002-.032c.189-2.599.283-3.903 1.598-5.208C6 3.37 7.3 3.27 9.92 3.08 10.6 3.03 11.3 3 12 3s1.4.03 2.08.08c2.62.19 3.93.29 5.24 1.6M17.91 17.9c.7-.71.82-1.22 1.02-3.97.05-.64.08-1.29.08-1.93s-.03-1.29-.08-1.93c-.2-2.75-.31-3.27-1.02-3.97s-1.22-.82-3.97-1.02C13.3 5.03 12.65 5 12.01 5s-1.29.03-1.93.08c-2.75.2-3.27.31-3.97 1.02s-.82 1.22-1.02 3.97c-.05.64-.08 1.29-.08 1.93s.03 1.29.08 1.93c.2 2.75.31 3.27 1.02 3.97s1.22.82 3.97 1.02c.64.05 1.29.08 1.93.08s1.29-.03 1.93-.08c2.75-.2 3.27-.31 3.97-1.02"/></svg>