<svg xmlns="http://www.w3.org/2000/svg" viewBox="0 0 44 44"><path d="M17.28 20.3v-3.91l3.3-2.63h3.99v16.48h-3.99V17.61z"/><path fill-rule="evenodd" d="M6.122 18.608c.329-4.758.493-7.143 2.918-9.568s4.81-2.59 9.568-2.918l.032-.002C19.74 6.04 20.87 6 22 6s2.26.04 3.36.12l.032.002c4.759.329 7.143.493 9.568 2.918s2.59 4.81 2.918 9.568l.002.032c.08 1.1.12 2.23.12 3.36s-.04 2.26-.12 3.36l-.002.032c-.329 4.759-.493 7.143-2.918 9.568s-4.81 2.59-9.568 2.918l-.032.002c-1.1.08-2.23.12-3.36.12s-2.26-.04-3.36-.12l-.032-.002c-4.758-.329-7.143-.493-9.568-2.918s-2.59-4.81-2.918-9.568l-.002-.032C6.04 24.26 6 23.13 6 22s.04-2.26.12-3.36zM18.84 9.11C19.89 9.04 20.95 9 22 9c1.06 0 2.12.04 3.16.11 4.97.34 6.17.54 7.68 2.05s1.71 2.71 2.05 7.68c.07 1.05.11 2.1.11 3.16s-.04 2.12-.11 3.16c-.34 4.97-.54 6.17-2.05 7.68s-2.71 1.71-7.68 2.05c-1.05.07-2.1.11-3.16.11s-2.12-.04-3.16-.11c-4.97-.34-6.17-.54-7.68-2.05s-1.71-2.71-2.05-7.68C9.04 24.11 9 23.06 9 22s.04-2.12.11-3.16c.34-4.97.54-6.17 2.05-7.68s2.71-1.71 7.68-2.05"/></svg>