<svg xmlns="http://www.w3.org/2000/svg" viewBox="0 0 24 24"><path fill-rule="evenodd" d="M4 4a1 1 0 0 0-1 1v4a1 1 0 0 0 1 1h2.485L3.79 11.01A2 2 0 0 0 2 13v3a2 2 0 0 0 2 2h.17a3.001 3.001 0 0 0 5.66 0H14q.086 0 .17-.007V18a3.001 3.001 0 0 0 5.678-.054 1 1 0 0 0 1.19-.447h.002c.668-.963.746-1.892.874-3.43.054-.649.086-1.343.086-2.069 0-.308-.09-.6-.18-.827a5 5 0 0 0-.366-.73 11 11 0 0 0-1.07-1.469A10 10 0 0 0 19.09 7.7a4.3 4.3 0 0 0-.697-.46c-.226-.115-.54-.24-.893-.24H15a1 1 0 0 0-1 1v3H9.515l2.814-1.055A1 1 0 0 0 13 9V5a1 1 0 0 0-1-1zm10 9H4v3h.17a3.001 3.001 0 0 1 5.66 0H14zm2 1.17a3 3 0 0 1 3.699 1.517c.096-.373.145-.86.222-1.784.05-.599.072-1.237.072-1.903h-1.146a1 1 0 0 1-.986-.836l-.402-2.152L16 9zM5 8V6h6v2zm2 8a1 1 0 1 0 0 2 1 1 0 0 0 0-2m10 0a1 1 0 1 0 0 2 1 1 0 0 0 0-2"/></svg>