<svg xmlns="http://www.w3.org/2000/svg" viewBox="0 0 16 16"><path fill-rule="evenodd" d="M2.25 2.496a.75.75 0 0 0-.75.75V5.75c0 .414.336.75.75.75h1.39l-1.617.537a1.334 1.334 0 0 0-1.021 1.296v2.334c0 .737.597 1.334 1.333 1.334h.043a2.251 2.251 0 0 0 4.244 0h2.547q.106 0 .207-.016l.004.014a2.25 2.25 0 0 0 4.249-.013.67.67 0 0 0 .711-.32h.021c.446-.642.497-1.262.583-2.288.036-.432.058-.894.058-1.378 0-.206-.054-.403-.108-.557a4 4 0 0 0-.222-.5 7.5 7.5 0 0 0-.655-1.02 6.3 6.3 0 0 0-.812-.899 2.7 2.7 0 0 0-.461-.337 1.34 1.34 0 0 0-.648-.187H9.752a.75.75 0 0 0-.75.75V7H6.364l1.595-.53a.75.75 0 0 0 .541-.72V3.246a.75.75 0 0 0-.75-.75zm8.252 6.738a2.25 2.25 0 0 1 2.875.773c.023-.188.045-.428.072-.753.033-.39.052-.822.053-1.254h-.88a.67.67 0 0 1-.657-.557L11.725 6h-1.223zM4.5 10.5a.75.75 0 1 0 0 1.5.75.75 0 0 0 0-1.5m7.002 0a.75.75 0 1 0 0 1.5.75.75 0 0 0 0-1.5"/></svg>