<svg xmlns="http://www.w3.org/2000/svg" viewBox="0 0 16 16"><path fill-rule="evenodd" d="M2.248 2.496a.75.75 0 0 0-.75.75V5.75c0 .414.336.75.75.75h1.39l-1.617.537A1.334 1.334 0 0 0 1 8.333v2.334c0 .737.597 1.334 1.333 1.334h.043a2.251 2.251 0 0 0 4.244 0h2.547q.106 0 .207-.016l.004.014a2.251 2.251 0 0 0 4.249-.013.67.67 0 0 0 .711-.32h.021c.446-.642.498-1.262.583-2.288C14.978 8.946 15 8.484 15 8c0-.206-.054-.403-.108-.557a4 4 0 0 0-.222-.5 7.5 7.5 0 0 0-.655-1.02 6.3 6.3 0 0 0-.812-.899 2.7 2.7 0 0 0-.461-.337 1.34 1.34 0 0 0-.648-.187H9.75a.75.75 0 0 0-.75.75V7H6.362l1.595-.53a.75.75 0 0 0 .541-.72V3.246a.75.75 0 0 0-.75-.75zM9 8.5H2.5v1.714a2.25 2.25 0 0 1 4.12.287H9zm1.5.734a2.25 2.25 0 0 1 2.876.773c.023-.188.044-.428.071-.753.033-.39.052-.822.053-1.254h-.88a.67.67 0 0 1-.657-.557L11.723 6H10.5zM2.998 5V3.996h4V5zm1.5 5.5a.75.75 0 1 0 0 1.5.75.75 0 0 0 0-1.5m7.002 0a.75.75 0 1 0 0 1.5.75.75 0 0 0 0-1.5"/></svg>