<svg xmlns="http://www.w3.org/2000/svg" viewBox="0 0 32 32"><path fill-rule="evenodd" d="M26 13.335c0-.264 0-.477-.011-.65-.023-.476-.09-.871-.277-1.11l-.223-.296a41 41 0 0 0-3.504-4.134c-2.249-2.338-3.395-3.389-3.997-3.761-.628-.39-1.28-.386-1.973-.383H16c-.908 0-1.775.043-2.585.113-2.427.21-3.622.401-5.24 2.077-1.617 1.677-1.746 2.907-1.965 5.54A64 64 0 0 0 6 16c0 2.014.085 3.772.21 5.27.22 2.632.384 3.904 2 5.58 1.618 1.677 2.776 1.825 5.202 2.036.811.07 1.68.113 2.588.113s1.777-.043 2.588-.113c2.425-.21 3.603-.383 5.22-2.059 1.626-1.642 1.763-2.925 1.982-5.556.125-1.499.21-3.257.21-5.272zM17.697 6.46a20 20 0 0 0-.446-.405v.195c0 1.344.166 2.688.327 3.672.117.713.175 1.07.457 1.362.281.293.624.353 1.31.475.946.168 2.238.341 3.53.341h.053a39 39 0 0 0-2.711-3.116c-1.112-1.156-1.925-1.967-2.52-2.524M12.25 16a1.25 1.25 0 1 0 0 2.5h2.5a1.25 1.25 0 1 0 0-2.5zm0 4.5a1.25 1.25 0 1 0 0 2.5h5.5a1.25 1.25 0 1 0 0-2.5z"/></svg>