<svg xmlns="http://www.w3.org/2000/svg" viewBox="0 0 24 24"><path fill-rule="evenodd" d="M19.99 9.45c.01.133.01.297.01.5V12c0 1.55-.068 2.903-.168 4.056-.175 2.024-.263 3.036-1.557 4.325s-2.264 1.37-4.205 1.532a25 25 0 0 1-4.14 0c-1.94-.161-2.911-.242-4.205-1.532-1.294-1.289-1.381-2.301-1.557-4.325A47 47 0 0 1 4 12c0-1.549.068-2.901.168-4.054.175-2.025.263-3.038 1.557-4.327s2.265-1.37 4.207-1.532A25 25 0 0 1 12 2h.012c.554-.002 1.076-.004 1.579.295.48.286 1.398 1.095 3.197 2.893 1.515 1.516 2.398 2.657 2.803 3.18q.114.148.179.228c.15.184.203.487.22.853M14 17a1 1 0 0 0-1-1H9a1 1 0 1 0 0 2h4a1 1 0 0 0 1-1m-3-5a1 1 0 1 1 0 2H9a1 1 0 1 1 0-2zm2.357-7.339a16 16 0 0 0-.356-.312V4.5c0 1.034.133 2.067.262 2.825.093.548.14.822.365 1.047s.5.272 1.047.365c.758.13 1.791.263 2.825.263h.042a30 30 0 0 0-2.169-2.397 56 56 0 0 0-2.016-1.942"/></svg>