<svg xmlns="http://www.w3.org/2000/svg" viewBox="0 0 24 24"><path d="M13 16a1 1 0 1 1 0 2H9a1 1 0 1 1 0-2zm-1-3a1 1 0 0 0-1-1H9a1 1 0 1 0 0 2h2a1 1 0 0 0 1-1"/><path fill-rule="evenodd" d="M19.99 9.45c.01.133.01.297.01.5V12c0 1.55-.068 2.903-.168 4.056-.175 2.024-.263 3.036-1.557 4.325s-2.264 1.37-4.205 1.532a25 25 0 0 1-4.14 0c-1.94-.161-2.911-.242-4.205-1.532-1.294-1.289-1.381-2.301-1.557-4.325A47 47 0 0 1 4 12c0-1.549.068-2.901.168-4.054.175-2.025.263-3.038 1.557-4.327s2.265-1.37 4.207-1.532A25 25 0 0 1 12 2h.012c.554-.002 1.076-.004 1.579.295.48.286 1.398 1.095 3.197 2.893 1.515 1.516 2.398 2.657 2.803 3.18q.114.148.179.228c.15.184.203.487.22.853m-6.989-5.1q.149.124.356.311a56 56 0 0 1 2.017 1.942A30 30 0 0 1 17.542 9H17.5c-1.033 0-2.067-.134-2.825-.263-.548-.093-.822-.14-1.047-.365s-.272-.5-.365-1.047C13.133 6.567 13 5.534 13 4.5zm-2 .15c0 1.189.151 2.344.29 3.16l.016.102c.064.413.204 1.322.907 2.024.702.703 1.611.843 2.024.907l.101.016c.817.139 1.972.291 3.161.291q.252 0 .5-.009V12a45 45 0 0 1-.16 3.882c-.094 1.078-.149 1.601-.278 2.022-.097.312-.25.612-.699 1.06-.46.458-.755.606-1.043.696-.393.123-.879.173-1.916.26a23 23 0 0 1-3.808 0c-1.037-.087-1.522-.137-1.916-.26-.288-.09-.584-.238-1.043-.696-.449-.448-.602-.748-.699-1.06-.13-.42-.184-.944-.278-2.022A45 45 0 0 1 6 12c0-1.49.065-2.785.16-3.88.094-1.08.149-1.603.278-2.024.097-.313.25-.613.699-1.06.46-.458.755-.607 1.043-.697.394-.122.88-.173 1.918-.259q.442-.037.91-.058Q11 4.259 11 4.5"/></svg>