<svg xmlns="http://www.w3.org/2000/svg" viewBox="0 0 32 32"><path d="M11 17.25c0-.69.56-1.25 1.25-1.25h2.5a1.25 1.25 0 1 1 0 2.5h-2.5c-.69 0-1.25-.56-1.25-1.25m1.25 3.25a1.25 1.25 0 1 0 0 2.5h5.5a1.25 1.25 0 1 0 0-2.5z"/><path fill-rule="evenodd" d="M26 13.335c0-.264 0-.477-.011-.65-.023-.476-.09-.871-.277-1.11l-.223-.296a41 41 0 0 0-3.504-4.134c-2.249-2.338-3.395-3.389-3.997-3.761-.628-.39-1.28-.386-1.973-.383H16c-.908 0-1.775.043-2.585.113-2.427.21-3.622.401-5.24 2.077-1.617 1.677-1.746 2.907-1.965 5.54A64 64 0 0 0 6 16c0 2.014.085 3.772.21 5.27.22 2.632.384 3.904 2 5.58 1.618 1.677 2.776 1.825 5.202 2.036.811.07 1.68.113 2.588.113s1.777-.043 2.588-.113c2.425-.21 3.603-.383 5.22-2.059 1.626-1.642 1.763-2.925 1.982-5.556.125-1.499.21-3.257.21-5.272zM17.697 6.46a20 20 0 0 0-.446-.405v.195c0 1.344.166 2.688.327 3.672.117.713.175 1.07.457 1.362.281.293.624.353 1.31.475.946.168 2.238.341 3.53.341h.053a39 39 0 0 0-2.711-3.116c-1.112-1.156-1.925-1.967-2.52-2.524m-2.583 3.899c-.174-1.061-.364-2.563-.364-4.109q0-.313.01-.62-.586.026-1.138.075c-1.297.112-1.904.177-2.396.337-.36.117-.73.31-1.305.905-.561.581-.753.972-.873 1.378-.162.547-.23 1.227-.348 2.63A61 61 0 0 0 8.5 16c0 1.94.081 3.622.2 5.047.117 1.402.186 2.082.348 2.629.12.406.344.781.905 1.363.574.595.758.723 1.238.957.479.233 1.127.29 2.41.4l.019.002c.749.065 1.547.105 2.38.105.834 0 1.631-.04 2.38-.105 1.296-.112 1.986-.183 2.413-.402s.691-.362 1.266-.957c.56-.582.766-.965.886-1.371.162-.547.238-1.219.355-2.62.119-1.425.2-3.109.2-5.048v-1.31q-.31.01-.625.01c-1.486 0-2.93-.197-3.95-.377l-.127-.021c-.517-.083-1.652-.265-2.53-1.179-.88-.913-1.054-2.094-1.134-2.631z"/></svg>