<svg xmlns="http://www.w3.org/2000/svg" viewBox="0 0 16 16"><path d="M8 5a.75.75 0 0 1 .75.75v1.5h1.502a.75.75 0 0 1 0 1.5H8.75v1.5a.75.75 0 0 1-1.5 0v-1.5H5.748a.75.75 0 1 1 0-1.5H7.25v-1.5A.75.75 0 0 1 8 5"/><path fill-rule="evenodd" d="M3.15 3.15c-.932.933-.992 1.844-1.11 3.666C2.015 7.205 2 7.603 2 8s.015.796.04 1.185c.118 1.822.178 2.733 1.11 3.665s1.843.992 3.665 1.11c.389.025.787.04 1.185.04s.796-.015 1.185-.04c1.822-.118 2.733-.178 3.665-1.11s.992-1.843 1.11-3.665c.025-.389.04-.787.04-1.185s-.015-.796-.04-1.185c-.118-1.822-.178-2.733-1.11-3.665s-1.843-.992-3.665-1.11C8.796 2.015 8.398 2 8 2s-.796.015-1.185.04c-1.822.118-2.733.178-3.665 1.11M8 3.502q-.543 0-1.088.037c-1.916.124-2.229.2-2.701.674-.473.472-.55.785-.674 2.701Q3.5 7.458 3.5 8.001t.037 1.088c.124 1.916.2 2.229.674 2.701.472.473.785.55 2.701.674q.545.036 1.088.037.543 0 1.088-.037c1.916-.124 2.229-.2 2.702-.674.472-.472.549-.785.673-2.701Q12.5 8.544 12.5 8q-.001-.543-.037-1.088c-.124-1.916-.2-2.229-.673-2.701-.473-.473-.786-.55-2.702-.674A17 17 0 0 0 8 3.5"/></svg>