<svg xmlns="http://www.w3.org/2000/svg" viewBox="0 0 28 28"><path d="M14 9a1 1 0 0 1 1 1v3h3a1 1 0 1 1 0 2h-3v3a1 1 0 1 1-2 0v-3h-3a1 1 0 1 1 0-2h3v-3a1 1 0 0 1 1-1"/><path fill-rule="evenodd" d="M5.044 5.045c-1.568 1.567-1.69 3.14-1.935 6.285C3.041 12.2 3 13.1 3 14.002c0 .9.041 1.8.11 2.67.244 3.146.366 4.719 1.934 6.286 1.567 1.567 3.14 1.69 6.285 1.934.87.068 1.77.11 2.671.11s1.801-.042 2.671-.11c3.146-.244 4.718-.367 6.285-1.934s1.69-3.14 1.935-6.285c.068-.87.109-1.77.109-2.671s-.041-1.802-.11-2.672c-.244-3.145-.366-4.718-1.934-6.285-1.567-1.567-3.14-1.69-6.285-1.934C15.801 3.043 14.901 3 14 3s-1.801.042-2.671.11c-3.146.244-4.718.367-6.285 1.934M14 5.001c-.84 0-1.689.04-2.516.104-3.283.255-4.063.391-5.026 1.354s-1.1 1.744-1.355 5.026A33 33 0 0 0 5 14.002c0 .84.039 1.688.103 2.516.255 3.282.392 4.063 1.355 5.026s1.743 1.099 5.026 1.354c.827.065 1.676.104 2.516.104s1.689-.04 2.516-.104c3.283-.255 4.064-.391 5.026-1.354.963-.963 1.1-1.744 1.355-5.026A33 33 0 0 0 23 14c0-.84-.039-1.688-.103-2.516-.255-3.282-.392-4.063-1.355-5.026s-1.743-1.1-5.026-1.354A33 33 0 0 0 14 5"/></svg>