<svg xmlns="http://www.w3.org/2000/svg" viewBox="0 0 16 16"><path fill-rule="evenodd" d="M3.15 3.15c-.932.933-.992 1.844-1.11 3.666C2.015 7.205 2 7.603 2 8s.015.796.04 1.185c.118 1.822.178 2.733 1.11 3.665s1.843.992 3.665 1.11c.389.025.787.04 1.185.04s.796-.015 1.185-.04c1.822-.118 2.733-.178 3.665-1.11s.992-1.843 1.11-3.665c.025-.389.04-.787.04-1.185s-.015-.796-.04-1.185c-.118-1.822-.178-2.733-1.11-3.665s-1.843-.992-3.665-1.11C8.796 2.015 8.398 2 8 2s-.796.015-1.185.04c-1.822.118-2.733.178-3.665 1.11M8 5a.75.75 0 0 1 .75.75v1.5h1.502a.75.75 0 0 1 0 1.5H8.75v1.5a.75.75 0 0 1-1.5 0v-1.5H5.748a.75.75 0 1 1 0-1.5H7.25v-1.5A.75.75 0 0 1 8 5"/></svg>