<svg xmlns="http://www.w3.org/2000/svg" viewBox="0 0 16 16"><path fill-rule="evenodd" d="M4.86 9.353a2.751 2.751 0 0 1-.675-4.864C4.83 3.037 6.17 2 8 2s3.169 1.037 3.815 2.489a2.751 2.751 0 0 1-.676 4.864c-.3.41-.6.745-.798.954v.294l-.193-.018A25 25 0 0 0 8 10.501c-.952 0-1.66.04-2.148.082l-.193.018v-.294a10 10 0 0 1-.799-.954M5.75 8a1.25 1.25 0 1 0 0-2.5 1.25 1.25 0 0 0 0 2.5m5.75-1.25a1.25 1.25 0 1 1-2.5 0 1.25 1.25 0 0 1 2.5 0"/><path d="M8 11.502c-.99 0-1.717.035-2.206.072-.356.027-.534.04-.785.26-.25.22-.274.331-.32.553a1.8 1.8 0 0 0 0 .729c.046.222.07.333.32.553.251.22.429.233.785.26.49.037 1.215.072 2.206.072s1.716-.035 2.206-.072c.356-.027.534-.04.785-.26.25-.22.274-.332.32-.554a1.8 1.8 0 0 0 0-.727c-.046-.223-.07-.334-.32-.554-.251-.22-.43-.233-.785-.26A30 30 0 0 0 8 11.502"/></svg>