<svg xmlns="http://www.w3.org/2000/svg" viewBox="0 0 24 24"><path fill-rule="evenodd" d="M6.791 13.585A4 4 0 0 1 5 10.25c0-.887.289-1.707.778-2.37C6.53 5.104 8.77 3 12 3s5.47 2.105 6.222 4.88c.49.663.778 1.483.778 2.37 0 1.393-.712 2.62-1.791 3.335q-.193.288-.38.54A15 15 0 0 1 15.5 15.67v.699c.133.08.265.187.405.328.528.535.547.851.585 1.483a5 5 0 0 1 0 .638c-.038.632-.057.948-.585 1.483s-.941.565-1.768.625A30 30 0 0 1 12 21c-.843 0-1.556-.03-2.138-.073-.826-.06-1.239-.09-1.767-.625s-.547-.85-.585-1.482a5 5 0 0 1 0-.64c.038-.631.057-.947.585-1.482.14-.141.272-.248.405-.328v-.7a15 15 0 0 1-1.328-1.546 13 13 0 0 1-.38-.539m6.709 2.45a31 31 0 0 0-3 0v-.781.012-.006a1 1 0 0 0-.323-.746 9 9 0 0 1-.352-.35A4 4 0 0 0 12 12.897a4 4 0 0 0 2.175 1.269c-.21.217-.346.343-.352.349a1 1 0 0 0-.323.746v-.006.013-.007zM12 18c-.794 0-1.459.03-1.992.068-.22.016-.35.026-.457.039l-.033.004-.012.19a3 3 0 0 0 0 .399l.012.19.033.003c.107.013.237.023.457.04.533.038 1.198.067 1.992.067s1.458-.03 1.992-.068c.22-.016.35-.026.457-.039l.033-.004.012-.19a3 3 0 0 0 0-.398l-.012-.19-.033-.004a11 11 0 0 0-.457-.04A28 28 0 0 0 12 18m0-13c1.255 0 2.32.463 3.1 1.251L15 6.25a4 4 0 0 0-3 1.354 3.99 3.99 0 0 0-3.1-1.353C9.68 5.463 10.745 5 12 5M9 8.25a2 2 0 1 1 0 4 2 2 0 0 1 0-4m4.5 7.04c.002.042.005.067.004.054zm-3 0-.004.054c-.001.013.002-.012.003-.054m4.5-3.04a2 2 0 1 0 0-4 2 2 0 0 0 0 4"/></svg>