<svg xmlns="http://www.w3.org/2000/svg" viewBox="0 0 16 16"><path d="M9.507 9.017c.024-.385.036-.577.234-.776.199-.198.391-.21.776-.234a4 4 0 0 1 .466 0c.385.024.577.036.776.234.198.199.21.391.233.776a4 4 0 0 1 0 .466c-.023.385-.035.577-.233.776-.199.198-.391.21-.776.233a4 4 0 0 1-.466 0c-.385-.023-.577-.035-.776-.233-.198-.199-.21-.391-.234-.776a4 4 0 0 1 0-.466"/><path fill-rule="evenodd" d="M8 13a36 36 0 0 0 3.216-.136c1.3-.117 1.951-.176 2.751-.972.8-.795.857-1.387.97-2.571a14 14 0 0 0 0-2.641c-.113-1.184-.17-1.776-.97-2.572s-1.45-.854-2.751-.971A36 36 0 0 0 8 3c-1.26 0-2.332.057-3.217.137-1.3.117-1.95.175-2.75.97-.8.797-.857 1.388-.97 2.572a14 14 0 0 0 0 2.643c.113 1.183.17 1.775.97 2.57.8.796 1.45.855 2.75.972.885.08 1.958.136 3.217.136M4.918 4.63A35 35 0 0 1 8 4.5a35 35 0 0 1 3.082.13c.699.063 1.016.099 1.263.173.165.05.319.124.564.368.137.136.22.241.276.329H2.815c.055-.088.14-.193.276-.329.245-.244.4-.318.564-.368.247-.074.564-.11 1.263-.172M2.54 7a12.4 12.4 0 0 0 .016 2.18c.061.64.093.903.16 1.11.042.13.111.278.374.54.245.243.4.317.564.367.247.075.564.11 1.263.173.84.075 1.868.13 3.082.13s2.242-.055 3.082-.13c.7-.063 1.016-.098 1.263-.173.165-.05.319-.124.564-.368.263-.261.332-.41.374-.54.067-.206.1-.47.16-1.11A12.5 12.5 0 0 0 13.46 7z"/></svg>