<svg xmlns="http://www.w3.org/2000/svg" viewBox="0 0 44 44"><path d="M26.67 22.67c-.542.543-.577 1.073-.646 2.134a11 11 0 0 0 0 1.392c.069 1.06.104 1.591.646 2.134.543.542 1.073.577 2.134.646a11 11 0 0 0 1.392 0c1.06-.069 1.591-.104 2.134-.646.542-.543.577-1.073.646-2.134a11 11 0 0 0 0-1.392c-.069-1.06-.104-1.591-.646-2.134-.543-.542-1.073-.577-2.134-.646a11 11 0 0 0-1.392 0c-1.06.069-1.591.104-2.134.646"/><path fill-rule="evenodd" d="M14.874 8.28A87 87 0 0 1 22 8c2.711 0 5.087.112 7.124.279 3.724.305 5.586.458 7.969 2.855s2.516 4.148 2.783 7.652a42 42 0 0 1 0 6.429c-.267 3.503-.4 5.255-2.783 7.651s-4.245 2.55-7.97 2.855A87 87 0 0 1 22 36c-2.712 0-5.089-.112-7.126-.28-3.722-.305-5.584-.457-7.966-2.854-2.383-2.396-2.516-4.146-2.784-7.648A42 42 0 0 1 4 22c0-1.122.046-2.2.124-3.218.268-3.502.401-5.252 2.784-7.648s4.244-2.55 7.966-2.855M22 11a84 84 0 0 0-6.88.269c-1.962.161-3 .26-3.854.522-.69.211-1.335.557-2.23 1.458-.71.713-1.07 1.253-1.288 1.751h28.504c-.217-.498-.577-1.038-1.287-1.751-.896-.901-1.542-1.247-2.231-1.458-.855-.261-1.893-.361-3.856-.522A84 84 0 0 0 22 11M7.115 19.01l.08-1.01h29.61l.08 1.014C36.957 19.96 37 20.96 37 22s-.043 2.04-.115 2.986c-.141 1.853-.229 2.795-.472 3.58-.195.63-.53 1.261-1.448 2.185-.896.901-1.541 1.247-2.231 1.458-.855.261-1.893.361-3.855.522-1.956.16-4.25.269-6.879.269-2.63 0-4.924-.108-6.88-.27-1.962-.16-3-.26-3.854-.521-.69-.211-1.335-.557-2.23-1.458-.92-.923-1.253-1.555-1.448-2.184-.244-.785-.331-1.726-.473-3.578A39 39 0 0 1 7 22c0-1.04.043-2.041.115-2.99"/></svg>