<svg xmlns="http://www.w3.org/2000/svg" viewBox="0 0 24 24"><path d="M14.377 12.375c-.292.292-.314.582-.357 1.164a6 6 0 0 0 0 .924c.043.581.065.872.357 1.164s.582.314 1.164.357a6 6 0 0 0 .924 0c.581-.043.872-.065 1.164-.357s.314-.583.357-1.164a6 6 0 0 0 0-.924c-.043-.582-.065-.872-.357-1.164s-.583-.314-1.164-.357a6 6 0 0 0-.924 0c-.582.043-.872.065-1.164.357"/><path fill-rule="evenodd" d="M7.947 4.168C9.1 4.068 10.452 4 12.002 4s2.902.068 4.054.168c2.026.175 3.038.263 4.328 1.557s1.37 2.265 1.532 4.207a25 25 0 0 1 0 4.137c-.162 1.941-.243 2.912-1.532 4.206s-2.302 1.382-4.327 1.557a47 47 0 0 1-4.055.168c-1.55 0-2.902-.068-4.055-.168-2.024-.175-3.036-.263-4.326-1.557S2.251 16.01 2.09 14.07a25 25 0 0 1 0-4.14c.162-1.94.243-2.911 1.532-4.205s2.302-1.381 4.326-1.557M12.002 6a45 45 0 0 0-3.882.16c-1.079.094-1.602.149-2.022.278-.313.097-.613.25-1.06.699-.364.365-.532.626-.631.863h15.191c-.099-.237-.267-.498-.63-.863-.448-.449-.749-.602-1.061-.699-.421-.13-.944-.184-2.024-.278a45 45 0 0 0-3.88-.16m-7.92 4.096L4.09 10h15.824l.009.098a23 23 0 0 1 0 3.805c-.087 1.037-.137 1.523-.26 1.917-.09.288-.238.584-.696 1.043-.447.449-.748.602-1.06.699-.42.13-.944.184-2.023.278-1.096.095-2.39.16-3.882.16s-2.786-.065-3.882-.16c-1.079-.094-1.602-.149-2.022-.278-.313-.097-.613-.25-1.06-.699-.458-.46-.606-.755-.696-1.043-.123-.393-.173-.879-.26-1.916a23 23 0 0 1 0-3.808"/></svg>