<svg xmlns="http://www.w3.org/2000/svg" viewBox="0 0 32 32"><path d="M19.483 16.483c-.397.397-.42.782-.468 1.552a8 8 0 0 0 0 .93c.047.77.071 1.155.468 1.552s.782.42 1.552.468a8 8 0 0 0 .93 0c.77-.047 1.155-.071 1.552-.468s.42-.782.468-1.552a8 8 0 0 0 0-.93c-.047-.77-.071-1.155-.468-1.552s-.782-.42-1.552-.468a8 8 0 0 0-.93 0c-.77.047-1.155.071-1.552.468"/><path fill-rule="evenodd" d="M26.903 23.728c-1.738 1.75-3.094 1.859-5.805 2.077-1.46.117-3.16.195-5.098.195s-3.639-.078-5.099-.195c-2.71-.218-4.065-.327-5.803-2.077s-1.831-3.015-2.017-5.544a30 30 0 0 1 0-4.368c.186-2.53.279-3.794 2.017-5.544S8.19 6.413 10.9 6.196A64 64 0 0 1 16 6c1.937 0 3.637.078 5.097.195 2.712.218 4.068.327 5.806 2.077s1.83 3.016 2.016 5.547a30 30 0 0 1 0 4.362c-.185 2.531-.278 3.797-2.016 5.547M16 8.5c-1.87 0-3.504.075-4.899.187-1.44.116-2.155.186-2.736.363-.444.136-.87.356-1.493.984q-.253.254-.424.466h19.104a6 6 0 0 0-.423-.466c-.623-.628-1.05-.848-1.494-.984-.581-.177-1.298-.247-2.738-.363A61 61 0 0 0 16 8.5M26.347 13H5.653c-.025.284-.05.612-.079 1a27 27 0 0 0 0 4c.1 1.35.16 1.986.321 2.509.122.392.332.809.977 1.457.623.628 1.05.848 1.493.984.58.177 1.297.247 2.736.363 1.395.111 3.028.187 4.899.187s3.503-.075 4.898-.187c1.44-.116 2.156-.186 2.737-.363.444-.136.87-.356 1.494-.984.644-.648.854-1.065.976-1.458.162-.523.222-1.16.321-2.51a27.4 27.4 0 0 0 0-3.996 66 66 0 0 0-.08-1.002"/></svg>