<svg xmlns="http://www.w3.org/2000/svg" viewBox="0 0 44 44"><path d="M28 26a6 6 0 0 1-10.242 4.243l8.485-8.485A5.98 5.98 0 0 1 28 26"/><path fill-rule="evenodd" d="M10.118 7.952c-2.44 2.425-2.613 4.878-2.96 9.783A61 61 0 0 0 7 22c0 1.44.06 2.878.158 4.265.347 4.905.52 7.358 2.96 9.783s4.74 2.572 9.34 2.867c.839.054 1.69.085 2.542.085s1.703-.03 2.541-.085c4.6-.295 6.9-.443 9.341-2.867s2.613-4.878 2.96-9.783C36.94 24.878 37 23.44 37 22s-.06-2.878-.158-4.265c-.347-4.905-.52-7.358-2.96-9.783s-4.74-2.572-9.34-2.867A40 40 0 0 0 22 5c-.852 0-1.703.03-2.541.085-4.6.295-6.9.443-9.341 2.867M12 12.5a1.5 1.5 0 0 1 1.5-1.5h4a1.5 1.5 0 0 1 0 3h-4a1.5 1.5 0 0 1-1.5-1.5M31 26a9 9 0 1 1-18 0 9 9 0 0 1 18 0"/></svg>