<svg xmlns="http://www.w3.org/2000/svg" viewBox="0 0 32 32"><path d="M20.5 18.5a4.5 4.5 0 0 1-7.682 3.182l6.364-6.364A4.5 4.5 0 0 1 20.5 18.5"/><path fill-rule="evenodd" d="M6.786 5.711C5.032 7.461 4.9 9.235 4.632 12.785A43 43 0 0 0 4.505 16c0 1.085.049 2.17.127 3.215.267 3.55.4 5.325 2.154 7.074 1.754 1.75 3.458 1.874 6.866 2.122.772.056 1.562.089 2.353.089.79 0 1.58-.033 2.353-.09 3.408-.247 5.112-.372 6.866-2.121s1.887-3.524 2.154-7.074c.078-1.044.127-2.13.127-3.215s-.049-2.17-.127-3.215c-.267-3.55-.4-5.325-2.154-7.074-1.754-1.75-3.458-1.873-6.866-2.122a33 33 0 0 0-2.353-.089c-.79 0-1.581.033-2.353.09-3.408.248-5.112.372-6.866 2.121M8 9.25C8 8.56 8.56 8 9.25 8h3a1.25 1.25 0 1 1 0 2.5h-3C8.56 10.5 8 9.94 8 9.25m15 9.25a7 7 0 1 1-14 0 7 7 0 0 1 14 0"/></svg>