<svg xmlns="http://www.w3.org/2000/svg" viewBox="0 0 24 24"><path d="M15 14a3 3 0 0 1-5.121 2.121l4.242-4.242A3 3 0 0 1 15 14"/><path fill-rule="evenodd" d="M5.219 4.149C3.902 5.46 3.802 6.799 3.6 9.473c-.061.82-.1 1.673-.1 2.527s.039 1.708.1 2.527c.202 2.675.302 4.012 1.619 5.325 1.316 1.312 2.583 1.403 5.116 1.585.547.04 1.106.063 1.665.063s1.118-.023 1.665-.062c2.533-.183 3.8-.274 5.116-1.586 1.317-1.313 1.418-2.65 1.619-5.325.061-.82.1-1.673.1-2.527s-.039-1.708-.1-2.527c-.201-2.675-.302-4.012-1.619-5.324s-2.583-1.404-5.116-1.587A23 23 0 0 0 12 2.5c-.559 0-1.118.023-1.665.062-2.533.183-3.8.274-5.116 1.587M6 7a1 1 0 0 1 1-1h2a1 1 0 0 1 0 2H7a1 1 0 0 1-1-1m11 7a5 5 0 1 1-10 0 5 5 0 0 1 10 0"/></svg>