<svg xmlns="http://www.w3.org/2000/svg" viewBox="0 0 24 24"><path fill-rule="evenodd" d="M3.08 9.923c.194-2.616.291-3.924 1.604-5.237s2.62-1.41 5.237-1.605c.678-.05 1.378-.081 2.077-.081s1.4.03 2.077.081c2.616.195 3.924.292 5.237 1.605s1.41 2.62 1.605 5.237c.05.678.081 1.377.081 2.077s-.03 1.399-.081 2.077c-.195 2.616-.292 3.924-1.605 5.237s-2.62 1.41-5.237 1.605c-.678.05-1.377.081-2.077.081s-1.399-.03-2.077-.081c-2.616-.195-3.924-.292-5.237-1.605s-1.41-2.62-1.605-5.237A28 28 0 0 1 2.998 12c0-.7.03-1.399.081-2.077m12.916 2.808-5.225-.358 5.225 2.16v1.465l-5.682-3.031 2.943 3.031h-1.802L9.46 13.123V16H7.996V8H9.46v2.875L11.454 8h1.802l-3.063 3.154L15.995 8v1.465l-5.212 2.148 5.213-.346z"/></svg>