<svg xmlns="http://www.w3.org/2000/svg" viewBox="0 0 16 16"><path fill-rule="evenodd" d="M8 3.501c-.425 0-.855.019-1.278.05-1.843.138-2.12.215-2.538.634-.42.42-.497.695-.634 2.539-.032.422-.05.852-.05 1.277s.018.855.05 1.277c.137 1.843.214 2.12.634 2.539.419.419.695.496 2.538.633.423.032.853.05 1.277.05.425 0 .855-.018 1.277-.05 1.844-.137 2.12-.214 2.539-.633s.496-.696.634-2.539c.031-.422.05-.853.05-1.277 0-.425-.019-.855-.05-1.277-.138-1.844-.215-2.12-.634-2.539s-.695-.496-2.539-.634c-.422-.031-.852-.05-1.277-.05m-4.877-.377C2.25 4 2.184 4.87 2.054 6.612 2.02 7.065 2 7.533 2 8s.02.935.054 1.389c.13 1.742.195 2.613 1.07 3.487.873.874 1.744.94 3.486 1.07.454.033.922.054 1.39.054s.935-.02 1.388-.055c1.742-.13 2.613-.195 3.487-1.069s.94-1.745 1.07-3.487c.033-.454.054-.921.054-1.39 0-.467-.02-.935-.055-1.388-.13-1.742-.195-2.613-1.069-3.488-.874-.874-1.745-.939-3.487-1.069A19 19 0 0 0 8 2.001c-.467 0-.935.02-1.389.054-1.742.13-2.613.195-3.487 1.07m4.034 5.133 3.592.246V7.496l-3.583.238 3.583-1.477V5.25L6.76 7.418 8.866 5.25H7.627l-1.37 1.976V5.25H5.249v5.5l1.008-.001V8.773l1.37 1.976h1.239L6.844 8.665l3.905 2.084V9.741z"/></svg>