<svg xmlns="http://www.w3.org/2000/svg" viewBox="0 0 16 16"><path d="M7.906 3.623a1.9 1.9 0 0 0-2.457 1.12l-.352.956-1.02.025C3.18 5.745 2.5 6.46 2.5 7.288c0 .502.247.961.647 1.252.22.16.48.264.748.307.209.033.509.059.992.091.516.035 1.101.057 1.753.057h.13c.405.01.703.33.703.731 0 .493-.328.769-.833.769 0 0-1.304-.023-1.854-.06-.838-.057-1.409-.095-1.941-.349A3.06 3.06 0 0 1 1 7.288C1 5.62 2.355 4.264 4.042 4.224A3.4 3.4 0 0 1 7.232 2c.46 0 .853.081 1.252.246.282.116.47.39.47.688a.75.75 0 0 1-1.048.689"/><path d="M11.415 9.356c.018-.485.052-.971.052-1.456a1.9 1.9 0 0 0-3.64-.766l-.19.43a.753.753 0 0 1-1.434-.313c0-.137.037-.266.102-.377l.15-.346a3.4 3.4 0 0 1 6.51 1.498c1.029.12 1.82.87 1.82 2.1 0 1.206-1.223 2.406-2.358 2.639-.437.113-.946.142-1.688.185Q9.93 12.998 9 13H6.248a.748.748 0 1 1 0-1.496c1.467 0 2.94.033 4.405-.051.347-.02.608-.037.813-.054.317-.027.673-.067.961-.219.163-.086.344-.217.508-.393.28-.3.35-.554.35-.662 0-.278-.082-.4-.13-.452-.055-.06-.164-.134-.364-.157z"/></svg>