<svg xmlns="http://www.w3.org/2000/svg" viewBox="0 0 24 24"><g fill-rule="evenodd" clip-rule="evenodd"><path d="M9.5 14.5h3.092q.359 0 .695-.013C15.34 14.412 17 13.054 17 11c0-2.309-1.885-3.973-4.194-3.999L10.404 7c-.379 0-.568 0-.727.02a2.5 2.5 0 0 0-2.16 2.16c-.02.16-.02.349-.02.728L7.5 16.5a1 1 0 1 0 2 0zm0-2c0-.864-.004-1.728-.004-2.592 0-.198 0-.314.002-.402A.506.506 0 0 1 10 9l2.783.001c1.37.016 2.216.937 2.216 1.999 0 .73-.54 1.443-1.784 1.489q-.303.01-.623.011z"/><path d="M4.686 4.688C3.373 6 3.276 7.308 3.081 9.925c-.05.678-.081 1.377-.081 2.077s.03 1.399.081 2.077c.195 2.616.292 3.924 1.605 5.237s2.62 1.41 5.237 1.605c.678.05 1.377.081 2.077.081s1.399-.03 2.077-.081c2.616-.195 3.924-.292 5.237-1.605s1.41-2.62 1.605-5.237c.05-.678.081-1.378.081-2.077s-.03-1.4-.081-2.077c-.195-2.616-.292-3.924-1.605-5.237s-2.62-1.41-5.237-1.605A28 28 0 0 0 12 3.002c-.7 0-1.399.03-2.077.081-2.616.195-3.924.292-5.237 1.605M12 5.002c-.642 0-1.292.028-1.929.075-2.75.205-3.265.319-3.97 1.025-.707.706-.82 1.22-1.025 3.971A26 26 0 0 0 5 12.002c0 .642.028 1.291.076 1.929.204 2.75.318 3.265 1.024 3.97.706.707 1.22.82 3.971 1.025.637.048 1.287.076 1.929.076s1.292-.028 1.929-.076c2.75-.204 3.265-.318 3.97-1.024.707-.706.82-1.221 1.025-3.971A26 26 0 0 0 19 12.002c0-.642-.028-1.292-.076-1.929-.204-2.75-.318-3.265-1.024-3.97-.706-.707-1.22-.82-3.971-1.026A26 26 0 0 0 12 5.002"/></g></svg>