<svg xmlns="http://www.w3.org/2000/svg" viewBox="0 0 16 16"><path fill-rule="evenodd" d="M8.782 9.665C10.279 9.64 11.5 8.578 11.5 7.08c0-1.494-1.218-2.551-2.712-2.578L7.104 4.5c-.408 0-.612 0-.782.036a1.67 1.67 0 0 0-1.288 1.288c-.036.17-.036.374-.036.782L5 10.75a.75.75 0 0 0 1.5 0V9.667c.76 0 1.522.012 2.282-.002M6.5 8.167c.752 0 1.504.012 2.256-.002C9.57 8.151 10 7.63 10 7.08c0-.545-.425-1.064-1.239-1.078L7.104 6c-.215 0-.337 0-.426.003-.11.004-.173.067-.176.177z"/><path fill-rule="evenodd" d="M2.054 6.617c.13-1.744.195-2.616 1.07-3.491s1.747-.94 3.491-1.07c.452-.034.919-.054 1.385-.054s.933.02 1.385.054c1.744.13 2.616.195 3.491 1.07s.94 1.747 1.07 3.491c.034.452.054.919.054 1.385s-.02.933-.054 1.385c-.13 1.744-.195 2.616-1.07 3.491s-1.747.94-3.491 1.07c-.452.034-.919.054-1.385.054s-.933-.02-1.385-.054c-1.744-.13-2.616-.195-3.491-1.07s-.94-1.747-1.07-3.491A19 19 0 0 1 2 8.002c0-.466.02-.933.054-1.385m4.673-3.065c.42-.032.85-.05 1.273-.05s.852.018 1.273.05c1.845.137 2.122.214 2.542.635.42.42.498.697.635 2.542.032.42.05.85.05 1.273s-.018.852-.05 1.273c-.137 1.845-.214 2.122-.635 2.542-.42.42-.697.498-2.542.635-.42.031-.85.05-1.273.05s-.852-.019-1.273-.05c-1.845-.137-2.122-.214-2.542-.635-.42-.42-.498-.697-.635-2.542a17 17 0 0 1-.05-1.273c0-.423.019-.852.05-1.274.137-1.844.214-2.121.635-2.541.42-.42.697-.498 2.542-.635"/></svg>