<svg xmlns="http://www.w3.org/2000/svg" viewBox="0 0 16 16"><path fill-rule="evenodd" d="M15.5 3v6.053c0 1.212-1.423 1.865-2.342 1.074l-.18-.171a2 2 0 0 1-3.437 1.079l-3.046 1.11A2 2 0 0 1 3.05 13.38c-.498.144-.843.17-1.153.022-.501-.24-.714-.84-1.14-2.042l-.227-.64c-.116-.326.116-.636.337-.932.18-.241.354-.473.324-.695.002-.476.003-.714.016-.86.114-1.274.783-2.235 1.93-2.77.131-.062.299-.123.634-.245l1.772-.647c.582-.212 1.612.081 2.666.382.676.192 1.362.388 1.948.455.38.044.742.037 1.081.03.998-.02 1.795-.037 2.26 1.272.299.843.493 1.391.5 1.818V3zM2.84 7.755a2.2 2.2 0 0 0-.139.613c-.005.061-.007.2-.01.668.033.555-.188.986-.308 1.192-.09.153-.205.314-.287.423l.074.206c.15.422.254.713.34.926a2 2 0 0 1 3.523-1.066L9 9.635a2 2 0 0 1 3.443-1.352 18 18 0 0 0-.358-1.07 1.2 1.2 0 0 0-.118-.257s-.952-.001-1.421-.017l-5.54 2.016A.75.75 0 0 1 4.3 8.85zm1.144-1.017c.672-.25 1.348-.492 2.022-.738.026 0 .103-.001.25.018.256.035.583.112.994.224l.465.131-2.84 1.033zM4.5 12.8a.8.8 0 1 0 0-1.6.8.8 0 0 0 0 1.6m7.3-3.133a.8.8 0 1 1-1.6 0 .8.8 0 0 1 1.6 0"/></svg>