<svg xmlns="http://www.w3.org/2000/svg" viewBox="0 0 24 24"><path fill-rule="evenodd" d="M23 13.5V5h-2v7.789c-.039-.605-.323-1.38-.75-2.54-.478-1.3-1.183-1.593-2.057-1.71-.42-.055-.846-.047-1.27-.039l-.194.003a11 11 0 0 1-1.44-.052c-.806-.094-1.742-.456-2.674-.719l-.216-.06C11.224 7.34 10.07 7.013 9.204 7q-.108-.001-.21.004-.308.013-.551.098l-2.572.906c-.486.171-.728.257-.918.341-1.742.78-2.758 2.194-2.916 4.064-.017.203-.017.537-.016 1.207.045.321-.21.655-.476 1.003-.326.427-.668.875-.494 1.348l.34.924c.64 1.743.96 2.615 1.712 2.961.427.197.899.181 1.552.016a3 3 0 0 0 5.344-1.834l4.288-1.51a3 3 0 0 0 5.194-1.705l.177.159c1.284 1.16 3.342.252 3.342-1.483M12.704 9.832l-6.37 2.275-1.498-1.48a1 1 0 0 1 .382-.245L9.087 9c.048-.002.182-.005.44.03.4.054.899.172 1.512.338q.333.091.717.2c.3.085.62.176.948.264M16.5 15.5a1 1 0 1 0 0-2 1 1 0 0 0 0 2M7 19a1 1 0 1 0 0-2 1 1 0 0 0 0 2"/></svg>