<svg xmlns="http://www.w3.org/2000/svg" viewBox="0 0 16 16"><path fill-rule="evenodd" d="M15.5 9.08V3H14v5.544c-.003-.429-.199-.98-.502-1.833-.13-.366-.285-.628-.464-.815-.46-.485-1.075-.41-1.795-.396a8 8 0 0 1-1.081-.03c-.67-.076-1.32-.34-1.966-.521-1.048-.299-2.069-.588-2.648-.377l-1.772.647c-.335.122-.503.183-.634.244C1.991 6 1.322 6.96 1.208 8.235c-.013.145-.014.383-.016.86.03.221-.143.453-.324.694-.22.296-.453.606-.337.932l.226.638c.427 1.202.64 1.803 1.14 2.042.31.148.656.122 1.154-.022a2 2 0 0 0 3.444-1.233l3.046-1.111a2 2 0 0 0 3.432-1.04l.184.159c.923.798 2.343.134 2.343-1.075M11 10.466a.8.8 0 1 0 0-1.6.8.8 0 0 0 0 1.6M4.5 12.8a.8.8 0 1 0 0-1.6.8.8 0 0 0 0 1.6M3.058 7.235a.75.75 0 0 1 .355-.272L6.027 6c.081 0 .22.013.403.046.752.137 1.481.394 2.22.586l-4.29 1.58z"/></svg>