<svg xmlns="http://www.w3.org/2000/svg" viewBox="0 0 44 44"><path fill-rule="evenodd" d="M42 9v15.662c0 2.851-3.348 4.39-5.51 2.526l-.496-.428a5.5 5.5 0 0 1-9.665 3.325l-8.357 2.97a5.5 5.5 0 0 1-9.445 3.249c-1.113.267-1.934.278-2.68-.07-1.378-.64-1.965-2.25-3.138-5.472l-.623-1.71c-.318-.873.305-1.7.9-2.487.484-.643.949-1.26.865-1.853-.002-1.226-.003-1.838.027-2.21.282-3.466 2.148-6.094 5.353-7.535.342-.154.783-.31 1.663-.623l4.663-1.658c1.573-.559 4.364.242 7.223 1.062 1.832.526 3.692 1.06 5.279 1.25 1.03.122 2.01.108 2.926.095 2.701-.039 4.857-.07 6.135 3.438 1.173 3.222 1.76 4.833 1.111 6.194v.002l.218.189a.334.334 0 0 0 .551-.254V9zM7.778 19.9q-.778 1.202-.91 2.846c-.017.203-.02.619-.018 1.82.088 1.213-.396 2.174-.688 2.674-.22.375-.479.722-.738 1.069q-.14.187-.278.377l.381 1.049c.616 1.69.98 2.67 1.33 3.335.096.183.17.302.224.376a5.5 5.5 0 0 1 10.351-3.382l7.633-2.713a5.5 5.5 0 0 1 10.121-3.73 2.5 2.5 0 0 0 .313-.195 3 3 0 0 0-.072-.462c-.158-.73-.51-1.715-1.126-3.406-.306-.839-.58-1.114-.676-1.195-.076-.064-.209-.152-.606-.213-.477-.073-1.053-.07-2.028-.057h-.029c-.674.01-1.5.022-2.397-.038a1.5 1.5 0 0 1-.23.109l-15.308 5.74a1.5 1.5 0 0 1-1.588-.343zm2.255-1.989q.206-.108.428-.208c.203-.091.498-.199 1.438-.532l4.663-1.658q-.015.004.005.001c.06-.007.361-.046 1.048.05.771.107 1.716.334 2.84.644.42.115.872.245 1.346.382.4.115.817.235 1.243.354l-10.166 3.813zM12.5 35a2.5 2.5 0 1 0 0-5 2.5 2.5 0 0 0 0 5M33 26.5a2.5 2.5 0 1 1-5 0 2.5 2.5 0 0 1 5 0"/></svg>