<svg xmlns="http://www.w3.org/2000/svg" viewBox="0 0 16 16"><path d="M6.461 1.513a.75.75 0 0 0-1.423.474l.444 1.33c-.352.427-.387.806-.436 1.462.41-.12.844-.16 1.187-.193L6.3 4.58a18.4 18.4 0 0 1 3.402 0l.066.006c.343.032.777.072 1.187.193-.05-.656-.085-1.035-.436-1.462l.443-1.33a.75.75 0 0 0-1.423-.474l-.35 1.05c-.16-.019-.336-.03-.54-.043a10 10 0 0 0-1.296 0c-.204.013-.38.024-.54.044zM3.372 12.901l.969-.553c.083.152.2.302.366.465.507.499.915.537 1.73.613a16.7 16.7 0 0 0 3.125 0c.816-.076 1.224-.114 1.731-.613.166-.163.283-.313.367-.465l.968.553a.75.75 0 0 0 .744-1.302l-1.41-.806q.028-.368.036-.793h1.252a.75.75 0 0 0 0-1.5h-1.306l-.021-.213c-.022-.196-.04-.367-.066-.52l1.515-.866a.75.75 0 0 0-.744-1.302l-1.56.891c-.415-.314-.814-.352-1.506-.416a17 17 0 0 0-3.124 0c-.692.064-1.09.102-1.506.416l-1.56-.89a.75.75 0 1 0-.744 1.3l1.516.866a10 10 0 0 0-.067.52l-.021.213H2.75a.75.75 0 0 0 0 1.5h1.252q.008.425.036.793l-1.41.806a.75.75 0 0 0 .744 1.302"/></svg>