<svg xmlns="http://www.w3.org/2000/svg" viewBox="0 0 24 24"><path fill-rule="evenodd" d="M9.894 2.553a1 1 0 0 0-1.788.894l.772 1.545c-.723.755-.76 1.348-.832 2.483a24 24 0 0 0-.043 1.914 2.6 2.6 0 0 0-.846.539L5.015 8.643a1 1 0 0 0-1.03 1.715L6.2 11.686c-.034.214-.06.45-.09.718q-.03.285-.055.596H4a1 1 0 1 0 0 2h2.006q.02.754.082 1.381l-2.102 1.262a1 1 0 0 0 1.028 1.715l1.571-.943c.117.181.268.363.468.559.763.75 1.373.805 2.594.917.7.064 1.496.11 2.353.11s1.653-.046 2.353-.11c1.22-.112 1.831-.168 2.594-.917.2-.196.35-.378.468-.559l1.57.943a1 1 0 1 0 1.03-1.715l-2.103-1.262c.04-.418.07-.878.082-1.38H20a1 1 0 1 0 0-2h-2.055a18 18 0 0 0-.055-.597 16 16 0 0 0-.09-.718l2.215-1.328a1 1 0 1 0-1.03-1.715l-2.142 1.285a2.6 2.6 0 0 0-.846-.54 26 26 0 0 0-.043-1.913c-.072-1.135-.109-1.728-.832-2.483l.772-1.545a1 1 0 1 0-1.788-.894l-.756 1.511a12 12 0 0 0-.817-.052 12 12 0 0 0-1.065 0c-.31.013-.577.025-.818.052zM14 9.079V9a22 22 0 0 0-.095-2.09 2 2 0 0 0-.05-.286.3.3 0 0 0-.036-.078 1.4 1.4 0 0 0-.199-.228 1.5 1.5 0 0 0-.243-.205.2.2 0 0 0-.06-.029 1.3 1.3 0 0 0-.237-.037 13 13 0 0 0-.634-.037 10 10 0 0 0-.892 0 13 13 0 0 0-.634.037c-.146.014-.21.03-.237.037a.2.2 0 0 0-.06.029 1.5 1.5 0 0 0-.243.205 1.4 1.4 0 0 0-.199.228.3.3 0 0 0-.035.078 2 2 0 0 0-.05.287A22 22 0 0 0 10 9v.078a26 26 0 0 1 3.999 0M8 14.5c0 .72.04 1.346.099 1.878.03.284.052.47.077.628.024.148.044.22.056.256l.001.004c.006.02.028.09.221.28.104.103.167.146.198.166a.5.5 0 0 0 .107.046c.062.018.162.041.344.066.19.026.41.046.726.075a23.7 23.7 0 0 0 4.341.001c.318-.03.538-.05.727-.076.182-.025.282-.048.344-.066a.4.4 0 0 0 .107-.046c.03-.02.094-.063.198-.165.193-.19.215-.26.22-.281l.002-.004c.012-.036.032-.108.056-.256A17 17 0 0 0 16 14.5a17 17 0 0 0-.176-2.505 1.6 1.6 0 0 0-.056-.257.3.3 0 0 0-.036-.072 1.4 1.4 0 0 0-.186-.213 1.2 1.2 0 0 0-.198-.164.4.4 0 0 0-.108-.046 2 2 0 0 0-.343-.067c-.19-.026-.41-.046-.727-.075a23.7 23.7 0 0 0-4.34 0c-.317.029-.537.05-.727.075a2 2 0 0 0-.343.066.4.4 0 0 0-.108.047 1.2 1.2 0 0 0-.198.164c-.114.113-.165.18-.186.213a.3.3 0 0 0-.036.072 1.6 1.6 0 0 0-.056.257A17 17 0 0 0 8 14.5"/></svg>