<svg xmlns="http://www.w3.org/2000/svg" viewBox="0 0 24 24"><path d="M8.553 2.106a1 1 0 0 1 1.341.447l.756 1.511c.241-.027.508-.039.817-.052a12 12 0 0 1 1.066 0c.31.013.576.025.817.052l.755-1.511a1 1 0 0 1 1.79.894l-.773 1.545c.685.715.754 1.284.82 2.307a12 12 0 0 0-1.313-.173l-.094-.009A28 28 0 0 0 12 7c-.926 0-1.783.048-2.535.117l-.094.009c-.396.036-.855.078-1.313.173.066-1.023.135-1.592.82-2.307l-.772-1.545a1 1 0 0 1 .447-1.341M5.015 8.643a1 1 0 0 0-1.03 1.715L6.2 11.686c-.034.214-.06.45-.09.718q-.03.285-.055.596H4a1 1 0 1 0 0 2h2.006q.02.753.082 1.381l-2.102 1.262a1 1 0 1 0 1.028 1.715l1.571-.943c.117.181.268.363.468.559.763.749 1.373.805 2.594.917.7.064 1.496.11 2.353.11s1.653-.046 2.353-.11c1.22-.112 1.831-.168 2.594-.917.2-.196.35-.378.468-.559l1.57.943a1 1 0 1 0 1.03-1.715l-2.103-1.262c.04-.418.07-.879.082-1.38H20a1 1 0 0 0 0-2h-2.055a18 18 0 0 0-.055-.598c-.03-.268-.056-.503-.09-.717l2.215-1.328a1 1 0 1 0-1.03-1.715l-2.142 1.285c-.716-.656-1.325-.712-2.49-.819a25.5 25.5 0 0 0-4.705.001c-1.166.106-1.775.162-2.491.818z"/></svg>