<svg xmlns="http://www.w3.org/2000/svg" viewBox="0 0 16 16"><path fill-rule="evenodd" d="M6.462 1.513a.75.75 0 0 0-1.424.474l.444 1.33c-.36.437-.388.823-.44 1.507a16 16 0 0 0-.036 1.614l-.074.052-1.56-.891a.75.75 0 1 0-.744 1.302l1.516.866a10 10 0 0 0-.067.52l-.021.213H2.75a.75.75 0 0 0 0 1.5h1.252q.008.426.036.793l-1.41.806a.75.75 0 0 0 .744 1.302l.969-.553c.083.153.2.302.366.465.507.5.915.537 1.73.613a16.7 16.7 0 0 0 3.125 0c.816-.076 1.224-.114 1.731-.613.167-.163.283-.312.367-.465l.968.553a.75.75 0 0 0 .744-1.302l-1.41-.806q.028-.368.036-.793h1.252a.75.75 0 0 0 0-1.5h-1.306l-.021-.213c-.022-.196-.04-.366-.066-.52l1.515-.866a.75.75 0 0 0-.744-1.302l-1.56.891-.074-.052a17 17 0 0 0-.036-1.614c-.052-.684-.08-1.07-.44-1.507l.443-1.33a.75.75 0 0 0-1.423-.474l-.35 1.05c-.16-.019-.336-.03-.54-.043a10 10 0 0 0-1.296 0c-.204.013-.38.024-.54.044zM9.5 6.068a16 16 0 0 0-.038-1.132 10 10 0 0 0-.04-.45 1 1 0 0 0-.03-.167c-.002-.008-.003-.009-.006-.013v-.001a1 1 0 0 0-.103-.118 1 1 0 0 0-.121-.104H9.16l-.004-.003-.007-.002a1 1 0 0 0-.158-.027 10 10 0 0 0-.441-.035 9 9 0 0 0-1.102 0 10 10 0 0 0-.44.035 1 1 0 0 0-.166.03l-.004.001v.001a1 1 0 0 0-.122.104 1 1 0 0 0-.103.118v.001l-.006.013a1 1 0 0 0-.03.167A14 14 0 0 0 6.5 6.068a17 17 0 0 1 3 0m-4 3.682a12 12 0 0 0 .12 1.717 1 1 0 0 0 .032.15l.006.013c.006.01.032.046.1.113.062.06.094.082.102.086a.1.1 0 0 0 .034.014c.03.01.087.023.205.04A15 15 0 0 0 8 12a15 15 0 0 0 1.901-.118c.117-.017.175-.03.205-.04.023-.006.029-.01.034-.013a.6.6 0 0 0 .102-.087 1 1 0 0 0 .106-.125 1 1 0 0 0 .032-.15 12 12 0 0 0 .12-1.717 12 12 0 0 0-.12-1.718 1 1 0 0 0-.038-.163 1 1 0 0 0-.1-.113.6.6 0 0 0-.102-.086c-.005-.003-.011-.007-.034-.014a1.4 1.4 0 0 0-.205-.04 12 12 0 0 0-.479-.05 15.4 15.4 0 0 0-3.323.05c-.117.017-.175.03-.205.04a.1.1 0 0 0-.034.014.6.6 0 0 0-.102.086 1 1 0 0 0-.106.126 1 1 0 0 0-.032.15A12 12 0 0 0 5.5 9.75"/></svg>