<svg xmlns="http://www.w3.org/2000/svg" viewBox="0 0 32 32"><path fill-rule="evenodd" d="M12.933 1.717c1.01-.121 2.235-.22 3.565-.22s2.555.099 3.565.22c2.249.271 3.854 2.095 4.04 4.268.187 2.187.395 5.61.395 10.015s-.208 7.828-.395 10.015c-.186 2.173-1.792 3.997-4.04 4.268-1.01.121-2.235.22-3.565.22s-2.555-.099-3.565-.22c-2.248-.271-3.854-2.095-4.04-4.268-.187-2.187-.395-5.61-.395-10.015s.208-7.828.395-10.015c.186-2.173 1.792-3.997 4.04-4.268m3.565 24.95a2.667 2.667 0 1 0 0-5.334 2.667 2.667 0 0 0 0 5.334M19.165 16a2.667 2.667 0 1 1-5.333 0 2.667 2.667 0 0 1 5.333 0m-2.667-5.333a2.667 2.667 0 1 0 0-5.334 2.667 2.667 0 0 0 0 5.334"/></svg>