<svg xmlns="http://www.w3.org/2000/svg" viewBox="0 0 44 44"><path d="M21.502 36.667a3.667 3.667 0 1 0 0-7.334 3.667 3.667 0 0 0 0 7.334M25.169 22a3.667 3.667 0 1 1-7.334 0 3.667 3.667 0 0 1 7.334 0m-3.667-7.333a3.667 3.667 0 1 0 0-7.334 3.667 3.667 0 0 0 0 7.334"/><path fill-rule="evenodd" d="M21.503 2.5c-1.555 0-2.997.115-4.213.263-2.984.365-5.066 2.814-5.292 5.677-.235 2.964-.496 7.598-.496 13.56s.26 10.596.495 13.56c.227 2.863 2.31 5.312 5.293 5.677 1.216.148 2.658.263 4.213.263s2.998-.115 4.214-.263c2.984-.365 5.065-2.814 5.292-5.678.235-2.963.496-7.596.496-13.559s-.26-10.596-.496-13.56c-.227-2.863-2.308-5.312-5.292-5.677a35 35 0 0 0-4.214-.263m-3.849 3.241a32 32 0 0 1 3.85-.241c1.41 0 2.729.104 3.849.241 1.438.176 2.54 1.36 2.666 2.936.229 2.894.486 7.448.486 13.323s-.257 10.43-.486 13.323c-.125 1.576-1.228 2.76-2.666 2.936-1.12.137-2.438.241-3.85.241-1.41 0-2.729-.104-3.849-.241-1.438-.176-2.54-1.36-2.666-2.936-.23-2.894-.486-7.448-.486-13.323s.257-10.43.486-13.323c.125-1.576 1.228-2.76 2.666-2.936"/></svg>