<svg xmlns="http://www.w3.org/2000/svg" viewBox="0 0 44 44"><path fill-rule="evenodd" d="M17.29 2.763a35 35 0 0 1 4.213-.263c1.556 0 2.998.115 4.214.263 2.984.365 5.065 2.814 5.292 5.677.235 2.964.496 7.598.496 13.56s-.26 10.596-.496 13.56c-.227 2.863-2.308 5.312-5.292 5.677a35 35 0 0 1-4.214.263c-1.555 0-2.997-.115-4.213-.263-2.984-.365-5.066-2.814-5.292-5.677-.235-2.964-.496-7.598-.496-13.56s.26-10.596.495-13.56c.227-2.863 2.31-5.312 5.293-5.677m4.212 33.904a3.667 3.667 0 1 0 0-7.334 3.667 3.667 0 0 0 0 7.334M25.17 22a3.667 3.667 0 1 1-7.334 0 3.667 3.667 0 0 1 7.334 0m-3.667-7.333a3.667 3.667 0 1 0 0-7.334 3.667 3.667 0 0 0 0 7.334"/></svg>