<svg xmlns="http://www.w3.org/2000/svg" viewBox="0 0 44 44"><path d="M24.307 31.22c.468-.671.502-1.458.57-3.03.038-.896.074-1.97.097-3.216 1.247-.023 2.32-.059 3.216-.097 1.572-.068 2.359-.102 3.03-.57s.702-.947.766-1.905a6 6 0 0 0 0-.804c-.064-.958-.096-1.437-.767-1.905-.67-.468-1.457-.502-3.03-.57-.895-.038-1.968-.074-3.215-.097-.023-1.247-.059-2.32-.097-3.215-.068-1.573-.102-2.36-.57-3.03-.468-.671-.947-.703-1.905-.767a6 6 0 0 0-.804 0c-.958.064-1.437.096-1.905.767-.468.67-.502 1.457-.57 3.03-.038.895-.074 1.968-.097 3.215-1.247.023-2.32.059-3.215.097-1.573.068-2.36.102-3.03.57-.671.468-.703.947-.767 1.905a6 6 0 0 0 0 .804c.064.958.096 1.437.767 1.905.67.468 1.457.502 3.03.57.895.038 1.968.074 3.215.097.023 1.247.059 2.32.097 3.216.068 1.572.102 2.359.57 3.03s.947.702 1.905.766a6 6 0 0 0 .804 0c.958-.064 1.437-.096 1.905-.767"/><path fill-rule="evenodd" d="M6.124 18.64c.328-4.78.492-7.171 2.92-9.6s4.819-2.592 9.6-2.92c1.1-.075 2.23-.12 3.36-.12s2.26.045 3.36.12c4.781.328 7.171.492 9.6 2.92s2.592 4.82 2.92 9.6c.075 1.1.12 2.23.12 3.36s-.045 2.26-.12 3.36c-.328 4.781-.492 7.172-2.92 9.6s-4.819 2.592-9.6 2.92c-1.1.075-2.23.12-3.36.12s-2.26-.045-3.36-.12c-4.781-.328-7.172-.492-9.6-2.92s-2.592-4.819-2.92-9.6a49 49 0 0 1-.12-3.36c0-1.13.045-2.26.12-3.36m12.724-9.526A46 46 0 0 1 22.004 9c1.051 0 2.112.042 3.155.114 4.975.34 6.17.535 7.683 2.048s1.708 2.708 2.049 7.683c.071 1.043.113 2.104.113 3.155a46 46 0 0 1-.113 3.156c-.341 4.974-.536 6.17-2.049 7.683s-2.708 1.707-7.683 2.048a46 46 0 0 1-3.155.113c-1.052 0-2.112-.042-3.156-.113-4.974-.341-6.17-.535-7.683-2.048s-1.707-2.709-2.048-7.683A46 46 0 0 1 9.004 22c0-1.051.042-2.112.113-3.155.341-4.974.536-6.17 2.048-7.683s2.71-1.707 7.683-2.048"/></svg>