<svg xmlns="http://www.w3.org/2000/svg" viewBox="0 0 16 16"><path fill-rule="evenodd" d="M6 15q-.323-.001-.627-.026c-1.165-.09-2.033-1.004-2.118-2.17a18 18 0 0 1-.045-1.501 2.1 2.1 0 0 1-1.05-1.099C2 9.818 2 9.33 2 8.351c0-.807 0-1.21.403-1.976.149-.282.536-.719.905-1.05a3 3 0 1 1 5.385 0 6 6 0 0 1 .541.552 2.75 2.75 0 0 1 4.576 2.877c.199.321.325.693.358 1.093.024.284.039.57.039.84v.245c0 .62-.274 1.178-.707 1.557v.362q0 .3-.027.556c-.089.914-.873 1.522-1.79 1.578a7 7 0 0 1-.866 0c-.917-.056-1.702-.664-1.791-1.578A6 6 0 0 1 9 12.851v-.362a2 2 0 0 1-.224-.229 17 17 0 0 1-.03.545c-.086 1.165-.954 2.078-2.119 2.17A8 8 0 0 1 6 15M4.5 4a1.5 1.5 0 1 1 3 0c0 .598-.472.958-.767 1.183-.134.102-.232.177-.232.233 0 .118.136.212.362.367.607.42 1.478 1.053 1.608 1.815.025.15.029.318.029.753 0 .51 0 .817-.017 1.047-.016.24-.09.435-.329.546l-.874.409.01.965a18 18 0 0 1-.04 1.377c-.035.462-.35.753-.74.784a6.6 6.6 0 0 1-1.02 0c-.39-.03-.705-.322-.74-.784a16 16 0 0 1-.04-1.377l.01-.965-.874-.409c-.239-.111-.313-.305-.33-.546A18 18 0 0 1 3.5 8.35c0-.435.004-.604.03-.753.129-.762 1-1.396 1.607-1.815.226-.155.362-.249.362-.367 0-.056-.097-.13-.231-.233C4.973 4.96 4.5 4.598 4.5 4m8 3.748q-.001.246-.086.457c-.12.29-.34.47-.496.595-.103.084-.178.144-.178.2 0 .071.097.11.228.164.255.103.638.26.705.802.021.256.034.505.034.722v.243a.57.57 0 0 1-.195.43l-.512.447v1.043q-.001.228-.02.41c-.004.044-.017.075-.062.114a.56.56 0 0 1-.327.113 6 6 0 0 1-.683 0 .56.56 0 0 1-.326-.114c-.045-.038-.059-.069-.063-.112a4 4 0 0 1-.02-.411v-1.043l-.511-.448a.56.56 0 0 1-.195-.428v-.245c0-.216.013-.465.034-.721.067-.543.45-.699.705-.802.131-.053.228-.093.228-.164 0-.056-.075-.116-.178-.2-.156-.126-.376-.304-.496-.595a1.25 1.25 0 1 1 2.414-.457"/></svg>