<svg xmlns="http://www.w3.org/2000/svg" viewBox="0 0 16 16"><path d="M5.498 1a2 2 0 0 0-1.094 3.675q-.103.038-.225.087c-.582.239-1.624 1.255-1.877 1.832-.278.63-.284.907-.298 1.459Q2 8.203 2 8.35c0 .979 0 1.468.16 1.854a2.1 2.1 0 0 0 1.136 1.136q.097.04.204.068v.091c0 .944.054 1.678.113 2.2.068.607.467 1.12 1.07 1.228a4.6 4.6 0 0 0 1.63 0c.603-.108 1.002-.62 1.07-1.228.06-.522.113-1.256.113-2.2v-.091q.108-.028.204-.068a2.1 2.1 0 0 0 1.136-1.136c.16-.386.16-.875.16-1.854q0-.15-.004-.298c-.013-.552-.02-.828-.297-1.46C8.441 6.016 7.399 5 6.817 4.762a6 6 0 0 0-.225-.088A2 2 0 0 0 5.498 1m7.468 7.41a1.75 1.75 0 1 0-1.931 0C10.43 8.862 10 9.59 10 10.342v.713c0 .524.137 1.069.621 1.269q.162.068.379.12c.002.79.054 1.38.103 1.763.045.347.24.67.58.753a1.3 1.3 0 0 0 .66-.006c.322-.086.511-.389.556-.719.05-.366.101-.936.101-1.735v-.056q.22-.053.382-.123c.48-.2.617-.74.617-1.26v-.719c0-.751-.43-1.48-1.033-1.931"/></svg>