<svg xmlns="http://www.w3.org/2000/svg" viewBox="0 0 24 24"><path fill-rule="evenodd" d="M9 2a4 4 0 0 1 3.598 5.75c.39.254.962.803 1.37 1.289A3.75 3.75 0 0 1 17.002 7.5a3.746 3.746 0 0 1 3.427 5.271c.265.426.436.92.488 1.449A16 16 0 0 1 21 15.747V16a3 3 0 0 1-1 2.236v.649q-.002.535-.055.97c-.146 1.225-1.18 2.06-2.412 2.13a10 10 0 0 1-1.065 0c-1.233-.07-2.265-.905-2.411-2.13a8 8 0 0 1-.056-.97v-.65a3 3 0 0 1-.895-1.446l-.106.037a25 25 0 0 1-.083 2.201c-.137 1.575-1.306 2.798-2.88 2.93a12.5 12.5 0 0 1-2.071 0c-1.575-.132-2.744-1.355-2.881-2.93a24 24 0 0 1-.083-2.2 3 3 0 0 1-1.772-1.678C3 14.596 3 13.897 3 12.5c0-1.179 0-1.768.622-2.895.29-.525 1.223-1.491 1.78-1.855A4 4 0 0 1 9 2m2 4a2 2 0 1 0-3.813.847c.239.48.654.741.935.917.17.108.291.183.291.258 0 .2-.252.349-.616.563-.257.153-.507.318-.756.483L7 9.095c-.837.555-1.768 1.252-1.953 2.29-.041.228-.047.482-.047 1.115 0 .726.001 1.17.024 1.505.028.412.18.748.593.919l1.393.455q0 .227-.003.452c-.01 1.009-.018 2.017.07 3.024.056.653.498 1.062 1.054 1.108a10.5 10.5 0 0 0 1.738 0c.556-.046.998-.455 1.055-1.108.087-1.007.078-2.015.07-3.023l-.004-.453 1.393-.455c.413-.171.565-.507.593-.919.023-.334.024-.779.024-1.505 0-.633-.006-.887-.047-1.115-.185-1.038-1.116-1.735-1.953-2.29l-.041-.027c-.25-.165-.498-.33-.756-.483-.364-.214-.616-.363-.616-.563 0-.075.12-.15.291-.258.28-.176.696-.436.935-.917A2 2 0 0 0 11 6m6 14q-.217 0-.421-.012a.7.7 0 0 1-.42-.15.32.32 0 0 1-.117-.22 6 6 0 0 1-.042-.733v-1.543l-.666-.596A1 1 0 0 1 15 16v-.253c0-.404.028-.864.074-1.335.059-.607.438-.838.976-1.077.215-.095.36-.16.36-.313 0-.077-.107-.15-.256-.25-.22-.15-.532-.363-.726-.748a1.95 1.95 0 0 1-.178-.81A1.747 1.747 0 0 1 17 9.5c.956 0 1.731.762 1.75 1.714 0 .287-.063.55-.179.81-.194.385-.506.598-.726.747-.149.101-.255.174-.255.251 0 .153.144.218.359.313.538.239.917.47.976 1.077.046.47.074.931.074 1.335V16c0 .296-.126.56-.334.746l-.666.596v1.543q-.002.415-.041.733a.32.32 0 0 1-.118.22.7.7 0 0 1-.42.15A8 8 0 0 1 17 20"/></svg>