<svg xmlns="http://www.w3.org/2000/svg" viewBox="0 0 16 16"><path d="M9.545 1.563a.75.75 0 0 0-.114 1.495l.364.031c.644.06 1.096.106 1.445.166a.75.75 0 1 0 .254-1.479 22 22 0 0 0-1.561-.18zM6.546 3.06a.75.75 0 1 0-.116-1.495l-.362.03c-.644.06-1.163.111-1.585.186a.75.75 0 1 0 .259 1.477c.351-.062.808-.108 1.465-.169zm7.68 1.452a.75.75 0 1 0-1.479.253c.06.35.106.8.165 1.442q.017.182.031.366a.75.75 0 0 0 1.496-.114q-.015-.196-.033-.39c-.058-.63-.109-1.14-.18-1.557M3.25 4.785a.75.75 0 1 0-1.479-.249c-.069.411-.119.914-.176 1.533q-.018.194-.033.39a.75.75 0 1 0 1.496.114l.03-.366c.059-.63.104-1.076.162-1.422m-.19 4.673a.75.75 0 0 0-1.495.116q.014.18.03.358c.059.633.11 1.145.181 1.563a.75.75 0 1 0 1.478-.255c-.06-.35-.106-.801-.165-1.446zm11.376.116a.75.75 0 1 0-1.495-.116l-.029.336c-.06.657-.107 1.114-.169 1.465a.75.75 0 1 0 1.478.26c.074-.423.125-.942.185-1.587q.016-.177.03-.358m-9.671 3.173a.75.75 0 1 0-.253 1.479c.417.071.926.121 1.556.18q.18.016.362.03a.75.75 0 0 0 .116-1.495l-.34-.029a20 20 0 0 1-1.44-.165m6.699 1.483a.75.75 0 1 0-.249-1.48c-.346.059-.792.104-1.421.162q-.18.017-.364.03a.75.75 0 0 0 .114 1.496q.196-.014.388-.032a22 22 0 0 0 1.532-.176M5.493 9.201c.13-.245.277-.497.42-.744l.689-1.187c.27-.467.55-.95.83-1.304.262-.328.729-.812 1.45-.936a2.749 2.749 0 1 0-3.39 4.171m2.364-1.104C8.473 7.032 8.782 6.5 9.238 6.5s.765.532 1.382 1.597l.602 1.039c.609 1.05.913 1.575.696 1.971s-.808.397-1.991.397H8.549c-1.183 0-1.774 0-1.991-.397-.217-.396.087-.921.696-1.971z"/></svg>