<svg xmlns="http://www.w3.org/2000/svg" viewBox="0 0 16 16"><path d="M9.544 1.562a.75.75 0 0 0-.114 1.495l.364.031c.644.06 1.096.106 1.445.166a.75.75 0 0 0 .255-1.479 22 22 0 0 0-1.562-.18zM6.545 3.06a.75.75 0 1 0-.116-1.496l-.361.03c-.644.06-1.164.111-1.586.186a.75.75 0 0 0 .26 1.477c.35-.062.807-.108 1.464-.169zm7.68 1.451a.75.75 0 1 0-1.478.253c.06.35.105.8.165 1.442q.016.182.03.366a.75.75 0 1 0 1.496-.114q-.014-.197-.033-.39c-.058-.63-.108-1.14-.18-1.557M3.25 4.784a.75.75 0 0 0-1.48-.249c-.069.411-.118.914-.176 1.533l-.032.39a.75.75 0 0 0 1.495.114l.031-.366c.058-.63.103-1.076.162-1.422m-.19 4.673a.75.75 0 0 0-1.496.116l.03.358c.059.633.11 1.145.181 1.563a.75.75 0 1 0 1.479-.255 20 20 0 0 1-.166-1.446q-.015-.166-.028-.336m11.376.116a.75.75 0 0 0-1.496-.116q-.012.17-.028.336c-.061.658-.108 1.114-.17 1.465a.75.75 0 0 0 1.478.26c.074-.423.126-.942.185-1.587q.017-.177.03-.358m-9.67 3.173a.75.75 0 0 0-.253 1.479c.416.071.926.121 1.556.18q.18.016.361.03a.75.75 0 1 0 .116-1.495l-.34-.029a20 20 0 0 1-1.44-.165m6.699 1.483a.75.75 0 1 0-.248-1.48c-.347.059-.793.104-1.422.162q-.18.016-.364.03a.75.75 0 1 0 .114 1.496q.196-.014.388-.032a22 22 0 0 0 1.532-.176"/><path fill-rule="evenodd" d="M3.987 6.999a3 3 0 0 0 2.547 2.966c-.466.802-.67 1.255-.47 1.61.236.423.881.423 2.172.423h1.503c1.29 0 1.935 0 2.172-.422.237-.423-.095-.982-.76-2.101l-.656-1.108c-.21-.353-.386-.65-.545-.893q.037-.232.037-.475a3 3 0 1 0-6 0m3 1.5a1.5 1.5 0 0 0 .456-.07l.037-.062c.428-.721.72-1.213 1.003-1.476a1.5 1.5 0 1 0-1.496 1.608m2.875 1.741-.658-1.108-.217-.365-.217.365-.657 1.108-.153.258h2.055z"/></svg>