<svg xmlns="http://www.w3.org/2000/svg" viewBox="0 0 16 16"><path fill-rule="evenodd" d="M8 3.501c-.424 0-.855.019-1.277.05-1.843.138-2.12.215-2.539.634s-.496.696-.634 2.54c-.03.421-.05.851-.05 1.275s.019.855.05 1.278c.138 1.843.215 2.12.634 2.539s.696.496 2.539.633c.422.032.853.05 1.277.05.425 0 .855-.018 1.278-.05 1.843-.137 2.12-.214 2.538-.633.42-.42.497-.696.634-2.54.032-.422.05-.852.05-1.277s-.018-.854-.05-1.277c-.137-1.843-.214-2.12-.634-2.539-.419-.419-.695-.496-2.538-.634C8.855 3.519 8.425 3.5 8 3.5m-4.877-.376c-.874.874-.939 1.745-1.069 3.487-.033.454-.054.922-.054 1.39s.02.935.054 1.388c.13 1.743.195 2.614 1.07 3.488.874.874 1.745.94 3.487 1.07.454.033.921.054 1.39.054.467 0 .935-.02 1.388-.055 1.743-.13 2.614-.195 3.488-1.069s.94-1.745 1.07-3.488c.033-.453.054-.92.054-1.389 0-.467-.021-.935-.055-1.389-.13-1.742-.195-2.613-1.069-3.487s-1.745-.94-3.488-1.07A19 19 0 0 0 8 2.002c-.468 0-.935.02-1.389.055-1.742.13-2.613.195-3.488 1.069m7.86 3.373c.067-.2-.069-.4-.267-.472l-.007-.002c-.232-.073-.475.026-.565.23L9.142 8.58l-.051-.108c-.098-.215-.369-.28-.568-.21-.24.079-.34.315-.244.506l.474.993c.072.174.266.238.417.238a.47.47 0 0 0 .41-.239l.004-.008 1.397-3.25zm-2.45 1.04c.108-.225-.048-.433-.255-.503l-.007-.002c-.23-.068-.481.018-.582.203l-.703 1.356L5.903 6.25v-.002c-.099-.205-.353-.295-.587-.226a.46.46 0 0 0-.267.191.32.32 0 0 0-.016.313l1.488 3.22c.069.16.237.253.436.253a.53.53 0 0 0 .418-.208l.008-.01 1.149-2.24z"/></svg>