<svg xmlns="http://www.w3.org/2000/svg" viewBox="0 0 24 24"><path fill-rule="evenodd" d="M12 5.001c-.642 0-1.291.029-1.928.076-2.75.205-3.265.318-3.971 1.025-.707.706-.82 1.22-1.025 3.97A26 26 0 0 0 5 12.003c0 .642.029 1.291.076 1.928.205 2.75.318 3.265 1.025 3.971.706.707 1.22.82 3.97 1.025.638.047 1.287.076 1.93.076.642 0 1.291-.029 1.928-.076 2.75-.205 3.265-.318 3.971-1.025.707-.706.82-1.22 1.025-3.97A26 26 0 0 0 19 12c0-.642-.028-1.291-.075-1.928-.205-2.75-.319-3.265-1.025-3.971-.706-.707-1.22-.82-3.97-1.025A26 26 0 0 0 12 5.001m-7.314-.314C3.374 6 3.276 7.308 3.082 9.924A28 28 0 0 0 3 12.002c0 .699.031 1.398.082 2.077.194 2.616.292 3.924 1.604 5.236C6 20.629 7.307 20.726 9.923 20.92c.678.05 1.378.081 2.078.081.699 0 1.399-.03 2.077-.08 2.616-.195 3.924-.293 5.236-1.605 1.313-1.313 1.41-2.621 1.605-5.237C20.97 13.4 21 12.7 21 12s-.03-1.399-.08-2.077c-.195-2.616-.293-3.924-1.606-5.237-1.312-1.312-2.62-1.41-5.236-1.604A28 28 0 0 0 12 3c-.7 0-1.4.031-2.078.082-2.616.194-3.924.292-5.237 1.604m7.853 6.488c.135-.299-.052-.59-.345-.694l-.007-.002c-.328-.102-.67.032-.802.288l-1.161 2.364-1.74-3.975-.001-.001c-.13-.286-.474-.424-.806-.32a.63.63 0 0 0-.365.27.45.45 0 0 0-.019.424l2.295 5.246c.089.219.31.358.596.358a.72.72 0 0 0 .58-.303l.007-.01 1.766-3.641zm4.186-1.68c.098-.276-.101-.558-.394-.66l-.006-.001c-.338-.102-.692.033-.826.32l-1.814 4.007-.198-.39c-.14-.298-.537-.39-.828-.29-.348.106-.498.434-.356.703l.813 1.62c.101.237.38.33.61.33a.7.7 0 0 0 .603-.34l.005-.008L16.722 9.5z"/></svg>