<svg xmlns="http://www.w3.org/2000/svg" viewBox="0 0 44 44"><g fill-rule="evenodd" clip-rule="evenodd"><path d="M21.998 28a6 6 0 1 0 0-12 6 6 0 0 0 0 12m0-3a3 3 0 1 0 0-6 3 3 0 0 0 0 6"/><path d="M8.51 12.443c-2.091 2.128-2.201 3.815-2.422 7.19a41 41 0 0 0 0 5.359c.22 3.375.33 5.062 2.422 7.19 1.498 1.525 2.84 2.033 4.794 2.308L10.549 40h3.354l2.601-5.202c1.223.092 2.557.159 3.994.187V40h3v-5.015a73 73 0 0 0 3.994-.187l2.6 5.202h3.355l-2.755-5.51c1.956-.274 3.298-.782 4.797-2.308 2.09-2.128 2.201-3.815 2.421-7.19a41 41 0 0 0 0-5.359c-.22-3.375-.33-5.062-2.421-7.19-1.56-1.587-2.949-2.073-5.035-2.34-.201-.45-.494-.921-.922-1.472a10 10 0 0 0-.711-.772c-1.622-1.497-2.732-1.59-4.953-1.777A22 22 0 0 0 22 6c-.628 0-1.257.03-1.87.082-2.22.186-3.33.28-4.952 1.777-.162.15-.575.598-.71.772-.43.55-.722 1.023-.923 1.471-2.086.268-3.476.754-5.035 2.34m21.562.635-1.67-.214-.688-1.538c-.349-.782-1.21-1.728-2.029-1.98-.385-.12-.864-.173-2.068-.275A19 19 0 0 0 22 9c-.532 0-1.076.026-1.618.071-1.204.102-1.683.156-2.068.275-.82.252-1.68 1.198-2.03 1.98l-.686 1.538-1.671.214c-.913.117-1.462.258-1.89.446-.397.175-.828.452-1.387 1.021-.741.754-1.006 1.281-1.167 1.848-.21.737-.284 1.647-.401 3.436a38 38 0 0 0 0 4.967c.117 1.79.19 2.699.4 3.436.162.567.427 1.094 1.168 1.848.719.731 1.253 1.014 1.877 1.198.797.235 1.793.33 3.68.487 1.695.14 3.636.235 5.793.235s4.096-.094 5.792-.235c1.886-.156 2.883-.252 3.68-.487.624-.184 1.158-.467 1.877-1.198.74-.754 1.005-1.281 1.167-1.848.21-.737.284-1.647.4-3.436a38 38 0 0 0 0-4.967c-.116-1.79-.19-2.699-.4-3.436-.162-.567-.426-1.094-1.167-1.848-.56-.57-.99-.846-1.388-1.021-.428-.188-.976-.329-1.889-.446"/></g></svg>