<svg xmlns="http://www.w3.org/2000/svg" viewBox="0 0 32 32"><g fill-rule="evenodd" clip-rule="evenodd"><path d="M20.5 15.5a4.5 4.5 0 1 1-9 0 4.5 4.5 0 0 1 9 0m-2.5 0a2 2 0 1 1-4 0 2 2 0 0 1 4 0"/><path d="M12.288 24.882q1.15.076 2.46.105V29h2.5v-4.013a57 57 0 0 0 2.46-.105L21.767 29h2.795l-2.176-4.352c1.57-.196 2.608-.55 3.77-1.734 1.545-1.572 1.624-2.802 1.782-5.261a29 29 0 0 0 0-3.68c-.158-2.46-.237-3.69-1.782-5.262-1.186-1.208-2.243-1.552-3.868-1.746a6 6 0 0 0-.367-.647c-.193-.303-.81-.98-1.094-1.2-1.093-.846-1.793-.91-3.192-1.039A18 18 0 0 0 15.998 4c-.55 0-1.102.03-1.637.08-1.4.128-2.1.192-3.192 1.039-.284.22-.902.896-1.094 1.199a6 6 0 0 0-.367.647c-1.626.194-2.682.538-3.868 1.746-1.545 1.572-1.624 2.802-1.782 5.261a29 29 0 0 0 0 3.68c.158 2.46.237 3.69 1.782 5.262 1.162 1.183 2.2 1.538 3.77 1.734L7.434 29h2.795zM15.998 6.5c-.46 0-.935.025-1.409.069-.764.07-1.038.104-1.257.166-.593.168-1.111.775-1.372 1.316l-.596 1.235-1.36.162c-.72.085-1.12.185-1.418.311-.266.113-.561.294-.963.704-.522.532-.689.878-.791 1.235-.143.497-.195 1.12-.28 2.435a26 26 0 0 0 0 3.36c.085 1.314.137 1.937.28 2.434.102.357.269.704.791 1.236.499.507.853.689 1.266.81.558.164 1.267.233 2.676.35a54 54 0 0 0 4.433.177c1.657 0 3.142-.072 4.433-.178 1.409-.116 2.117-.185 2.675-.349.414-.121.768-.303 1.266-.81.523-.532.69-.879.792-1.236.142-.497.194-1.12.279-2.435a26 26 0 0 0 0-3.36c-.085-1.314-.137-1.937-.28-2.434-.102-.357-.268-.703-.79-1.235-.403-.41-.697-.591-.963-.704-.298-.126-.699-.226-1.418-.311l-1.36-.162-.596-1.235c-.261-.54-.78-1.148-1.372-1.316-.22-.062-.494-.096-1.258-.166a16 16 0 0 0-1.408-.069"/></g></svg>