<svg xmlns="http://www.w3.org/2000/svg" viewBox="0 0 17 17"><g fill-rule="evenodd" clip-rule="evenodd"><path d="M11.155 8.499a2.656 2.656 0 1 1-5.312 0 2.656 2.656 0 0 1 5.312 0m-1.594 0a1.062 1.062 0 1 1-2.124 0 1.062 1.062 0 0 1 2.124 0"/><path d="M3.123 4.654c.62-.63 1.173-.815 2.018-.921a3 3 0 0 1 .24-.42c.093-.14.385-.46.517-.565.594-.478.985-.513 1.767-.584.273-.024.554-.04.834-.04s.561.016.834.04c.782.07 1.173.106 1.767.584.132.106.424.425.517.565.103.155.181.292.24.42.845.106 1.398.292 2.018.921.815.828.862 1.496.956 2.83a17 17 0 0 1 0 2.384c-.094 1.335-.141 2.002-.956 2.83-.513.52-.98.738-1.603.857l1.19 2.378v.003h-1.781l-1.1-2.199q-.6.045-1.285.063v2.136H7.702V13.8a28 28 0 0 1-1.285-.063l-1.1 2.199H3.536v-.003l1.19-2.378c-.624-.12-1.09-.337-1.603-.857-.815-.828-.862-1.495-.956-2.83a17 17 0 0 1 0-2.384c.094-1.334.141-2.002.956-2.83M8.5 3.718q-.338 0-.692.033c-.204.019-.34.031-.456.047-.354.047-.607.263-.762.6l-.37.806-.88.11c-.36.045-.54.095-.66.147-.103.044-.23.118-.42.311-.243.247-.308.394-.352.547-.07.242-.1.557-.15 1.278a15 15 0 0 0 0 2.159c.05.72.08 1.035.15 1.277.044.153.109.3.352.547.234.237.382.309.554.36.264.078.608.114 1.36.18a27 27 0 0 0 4.652-.001c.752-.065 1.096-.101 1.36-.18.172-.05.32-.122.554-.359.243-.247.308-.394.352-.546.07-.243.1-.558.15-1.278a15.4 15.4 0 0 0 0-2.16c-.05-.72-.08-1.035-.15-1.277-.044-.153-.109-.3-.352-.547-.19-.193-.317-.267-.42-.311-.12-.052-.3-.102-.66-.147l-.88-.11-.37-.806c-.155-.337-.409-.553-.762-.6a12 12 0 0 0-1.148-.08"/></g></svg>