<svg xmlns="http://www.w3.org/2000/svg" viewBox="0 0 24 24"><path fill-rule="evenodd" d="M4.39 6.566C3.234 7.742 3.172 8.671 3.05 10.53a22 22 0 0 0 0 2.942c.122 1.858.184 2.787 1.34 3.963.824.837 1.564 1.12 2.639 1.274L5.383 22h2.236l1.547-3.093q.857.058 1.835.082V22h2v-3.011a42 42 0 0 0 1.835-.082L16.383 22h2.236l-1.646-3.292c1.074-.154 1.814-.437 2.637-1.274 1.156-1.176 1.218-2.105 1.34-3.963a22 22 0 0 0 0-2.942c-.122-1.858-.184-2.787-1.34-3.963-.882-.897-1.668-1.158-2.872-1.305a4.4 4.4 0 0 0-.335-.583 5.4 5.4 0 0 0-.73-.798c-.838-.675-1.39-.725-2.495-.824A13 13 0 0 0 12 3c-.396 0-.793.021-1.178.056-1.105.1-1.657.149-2.495.824a5.4 5.4 0 0 0-.73.798 4.4 4.4 0 0 0-.334.583c-1.204.147-1.99.408-2.873 1.305M15.5 12a3.5 3.5 0 1 1-7 0 3.5 3.5 0 0 1 7 0M12 13.5a1.5 1.5 0 1 0 0-3 1.5 1.5 0 0 0 0 3"/></svg>