<svg xmlns="http://www.w3.org/2000/svg" viewBox="0 0 17 17"><path fill-rule="evenodd" d="M5.14 3.733c-.844.106-1.397.292-2.017.921-.815.828-.862 1.496-.956 2.83a17 17 0 0 0 0 2.384c.094 1.335.141 2.002.956 2.83.513.52.98.737 1.603.857l-1.19 2.378v.003h1.781l1.1-2.199q.6.045 1.285.063v2.136h1.594V13.8a28 28 0 0 0 1.285-.063l1.1 2.199h1.781v-.003l-1.19-2.378c.624-.12 1.09-.337 1.603-.857.815-.828.862-1.495.956-2.83a17 17 0 0 0 0-2.384c-.094-1.334-.141-2.002-.956-2.83-.62-.63-1.173-.815-2.018-.921a3 3 0 0 0-.24-.42 4 4 0 0 0-.517-.565c-.594-.478-.985-.513-1.767-.584a9 9 0 0 0-.834-.04c-.28 0-.561.016-.834.04-.782.07-1.173.106-1.767.584a4 4 0 0 0-.517.565 3 3 0 0 0-.24.42m6.015 4.766a2.656 2.656 0 1 1-5.312 0 2.656 2.656 0 0 1 5.312 0M8.499 9.561a1.062 1.062 0 1 0 0-2.124 1.062 1.062 0 0 0 0 2.124"/></svg>