<svg xmlns="http://www.w3.org/2000/svg" viewBox="0 0 44 44"><path d="M27 7.5a3.5 3.5 0 1 1-7 0 3.5 3.5 0 0 1 7 0"/><path fill-rule="evenodd" d="M10.921 11.772a2 2 0 0 1 1.58-.772h5.617a3.6 3.6 0 0 1 2.291.824l1.465 1.209-.004.01c.26.244.46.56.56.93l3 11a2 2 0 0 1-.518 1.944l7.53 4.455c.493-.936 1.029-2.105 1.516-3.227.643-1.482 2.762-1.552 3.453-.092l4.409 9.31c.579 1.222-.308 2.632-1.655 2.632H25.5c1.658-6.493 2.602-6.391 3.767-6.265.592.064 1.241.134 2.07-.652l.023-.023L24 28.701v9.3a2 2 0 0 1-4 0v-9.418l-6.963-3.83a2 2 0 0 1-.8-2.696l.117-.246-4.487-2.654.004-.006-.099-.072a2 2 0 0 1-.35-2.807zM21.204 24.68l-1.054-.58-2.299-1.36 1.78-3.82zM15.592 15l-2.376 4.998-2.483-1.469L13.478 15z"/><path d="M12 30.413v-3.95q.036.022.073.042L16 28.665V31a2 2 0 0 1-.317 1.081l-4.5 7a2 2 0 1 1-3.365-2.163z"/></svg>