<svg xmlns="http://www.w3.org/2000/svg" viewBox="0 0 17 17"><path d="M11.155 2.656a1.594 1.594 0 1 1-3.187 0 1.594 1.594 0 0 1 3.187 0"/><path fill-rule="evenodd" d="m2.577 7.293 1.777 1.051-.032.052A.956.956 0 0 0 4.677 9.7l2.765 1.584v3.695a.956.956 0 0 0 1.913 0v-3.676l3.201 1.894a1 1 0 0 1-.084.09c-.338.302-.602.275-.844.25-.475-.048-.86-.087-1.536 2.398h5.627c.543 0 .905-.529.68-.996l-1.62-3.367c-.284-.59-1.207-.542-1.45.065-.16.398-.331.796-.494 1.108l-3.37-1.994a.956.956 0 0 0 .595-1.143L8.865 5.093a.95.95 0 0 0-.368-.533l.003-.008-.522-.361a1.5 1.5 0 0 0-.847-.265H6.067v.005H4.434a.96.96 0 0 0-.729.337L2.352 5.86a.956.956 0 0 0 .225 1.432m4.894.006-.707 1.393 1.268.726zm-2.85.586-1.02-.603A1 1 0 0 0 3.81 7.1l1.068-1.256h.837z"/><path d="M4.01 12V9.823q.16.194.387.328l1.525.898v1.167a1 1 0 0 1-.094.415l-1.335 2.762a.956.956 0 1 1-1.724-.83z"/></svg>