<svg xmlns="http://www.w3.org/2000/svg" viewBox="0 0 32 32"><path d="M20.004 5.501a2.5 2.5 0 1 1-5 0 2.5 2.5 0 0 1 5 0"/><path fill-rule="evenodd" d="M7.848 8.54A1.5 1.5 0 0 1 9 8h4.25a2.6 2.6 0 0 1 1.494.472l1.21.85-.005.016c.242.197.425.472.507.798l2 8a1.5 1.5 0 0 1-.268 1.28l5.474 3.238c.296-.567.607-1.224.896-1.862.472-1.04 1.976-1.064 2.445-.022l2.88 6.398A1.297 1.297 0 0 1 28.703 29H18.5c1.172-4.58 1.883-4.506 2.736-4.417.433.045.902.094 1.487-.46q.078-.073.164-.185l-5.886-3.482V27.5a1.5 1.5 0 0 1-3 0v-6.756l-4.63-2.812a1.5 1.5 0 0 1-.585-1.906l-.003-.002.168-.33-3.178-1.88.001-.001a1.5 1.5 0 0 1-.426-2.273zm6.423 5.227.977 3.91-2.277-1.348zM11.334 11 9.63 14.354l-1.824-1.08L9.703 11z"/><path d="M8.5 22.146v-2.991q.063.041.129.08l2.871 1.69V22.5a1.5 1.5 0 0 1-.158.67l-2.5 5a1.5 1.5 0 0 1-2.683-1.34z"/></svg>