<svg xmlns="http://www.w3.org/2000/svg" viewBox="0 0 16 16"><path fill-rule="evenodd" d="M4.918 4.63C5.758 4.555 6.786 4.5 8 4.5s2.241.055 3.082.13c.699.063 1.016.098 1.263.173.165.05.319.124.564.368.263.261.332.41.374.54.067.206.1.47.16 1.11a12.5 12.5 0 0 1 0 2.357c-.06.642-.093.905-.16 1.111-.042.13-.11.279-.373.54-.246.244-.4.318-.565.368-.247.075-.564.11-1.263.173-.84.075-1.868.13-3.082.13s-2.242-.055-3.082-.13c-.7-.063-1.016-.098-1.263-.173-.165-.05-.319-.124-.564-.368-.263-.261-.332-.41-.374-.54-.067-.206-.099-.469-.16-1.11a12.5 12.5 0 0 1 0-2.358c.061-.641.093-.904.16-1.11.042-.13.111-.279.374-.54.245-.244.4-.318.564-.368.247-.075.564-.11 1.263-.173M8 13a36 36 0 0 0 3.216-.136c1.3-.117 1.951-.176 2.751-.972s.857-1.388.97-2.572a14 14 0 0 0 0-2.64c-.113-1.184-.17-1.776-.97-2.572s-1.45-.855-2.751-.972A36 36 0 0 0 8 3c-1.26 0-2.332.057-3.217.136-1.3.117-1.95.176-2.75.972-.8.795-.857 1.387-.97 2.57a14 14 0 0 0 0 2.644c.113 1.183.17 1.775.97 2.57.8.796 1.45.855 2.75.972A36 36 0 0 0 8 13M4.249 8.884V6.501H3.5v3h1.973v-.617zm2.36.617v-3h-.748v3zm3.328-3-.951 3h-1.08l-.952-3h.79l.758 2.44.753-2.44zm2.554.6v-.6H10.28v3h2.22v-.6h-1.471v-.647h1.108V7.67h-1.108V7.1z"/></svg>