<svg xmlns="http://www.w3.org/2000/svg" viewBox="0 0 24 24"><path fill-rule="evenodd" d="M7.945 4.168C9.098 4.068 10.45 4 12 4s2.901.068 4.054.168c2.025.175 3.038.263 4.327 1.557s1.37 2.265 1.532 4.207a25 25 0 0 1 0 4.136c-.162 1.942-.242 2.913-1.532 4.207s-2.302 1.382-4.327 1.557A47 47 0 0 1 12 20c-1.55 0-2.902-.068-4.055-.168-2.024-.175-3.036-.263-4.326-1.557S2.25 16.01 2.087 14.07a25 25 0 0 1 0-4.14c.162-1.94.243-2.911 1.532-4.205s2.302-1.382 4.326-1.557m-1.36 9.144V9.75H5.5v4.485h2.86v-.923zm3.422.923V9.75H8.92v4.485zm4.822-4.485-1.378 4.485h-1.567L10.506 9.75h1.144l1.099 3.646L13.84 9.75zm3.702.897V9.75h-3.205v4.485h3.218v-.897h-2.132v-.968h1.605v-.871h-1.605v-.852z"/></svg>