<svg xmlns="http://www.w3.org/2000/svg" viewBox="0 0 44 44"><path fill-rule="evenodd" d="M14.874 8.28A87 87 0 0 1 22 8c2.712 0 5.088.112 7.124.279 3.724.306 5.586.458 7.969 2.855s2.516 4.147 2.783 7.65C39.954 19.803 40 20.88 40 22a42 42 0 0 1-.124 3.215c-.267 3.503-.4 5.255-2.783 7.651s-4.245 2.55-7.968 2.855A87 87 0 0 1 22 36c-2.713 0-5.09-.112-7.127-.28-3.722-.305-5.583-.458-7.965-2.853-2.383-2.396-2.516-4.147-2.784-7.648A42 42 0 0 1 4 22c0-1.123.046-2.2.124-3.219.268-3.501.401-5.252 2.784-7.648s4.243-2.548 7.966-2.854m-2.87 16.098v-6.576H10v8.28h5.28v-1.704zm6.316 1.703V17.8h-2.004v8.28zm8.902-8.28-2.544 8.28h-2.892l-2.544-8.28h2.112l2.028 6.733 2.016-6.732zm6.835 1.657v-1.656H28.14v8.28h5.94v-1.657h-3.936v-1.788h2.964V21.03h-2.964v-1.572z"/></svg>