<svg xmlns="http://www.w3.org/2000/svg" viewBox="0 0 16 16"><path fill-rule="evenodd" d="M4.783 3.136A36 36 0 0 1 8 3c1.259 0 2.332.057 3.216.136 1.3.117 1.951.176 2.751.972s.857 1.388.97 2.572a14 14 0 0 1 0 2.64c-.113 1.184-.17 1.776-.97 2.572s-1.45.855-2.751.972A36 36 0 0 1 8 13c-1.26 0-2.332-.057-3.217-.136-1.3-.117-1.95-.176-2.75-.972-.8-.795-.857-1.387-.97-2.57a14 14 0 0 1 0-2.644c.113-1.183.17-1.775.97-2.57.8-.796 1.45-.855 2.75-.972M4.25 8.884V6.501H3.5v3h1.973v-.617zm2.36.617v-3h-.748v3zm3.328-3-.951 3h-1.08l-.952-3h.79l.758 2.44.753-2.44zm2.554.6v-.6H10.28v3h2.22v-.6h-1.471v-.647h1.108V7.67h-1.108V7.1z"/></svg>