<svg xmlns="http://www.w3.org/2000/svg" viewBox="0 0 24 24"><path d="M10.208 8.321c.564.151.846.226 1.01.15a.5.5 0 0 0 .276-.353c.036-.177-.103-.434-.383-.948L8.698 2.741c-.227-.417-.34-.626-.491-.695a.5.5 0 0 0-.414 0c-.15.069-.264.278-.491.695l-2.413 4.43c-.28.513-.42.77-.383.947a.5.5 0 0 0 .276.352c.164.077.446.002 1.01-.149L6.998 8v1.002a1 1 0 1 0 2 0V7.998zM5.5 11c-.943 0-1.414 0-1.707.293S3.5 12.057 3.5 13v4c0 .943 0 1.414.293 1.707q.09.09.207.147V20a1 1 0 1 0 2 0v-1h.585a1.5 1.5 0 0 0 2.83 0H10v1a1 1 0 1 0 2 0v-1.146a.8.8 0 0 0 .207-.147c.293-.293.293-.764.293-1.707v-4c0-.943 0-1.414-.293-1.707S11.443 11 10.5 11zm13.708-2.679c.564.151.846.226 1.01.15a.5.5 0 0 0 .276-.353c.036-.177-.103-.434-.383-.948l-2.413-4.429c-.227-.417-.34-.626-.491-.695a.5.5 0 0 0-.414 0c-.15.069-.264.278-.491.695l-2.413 4.43c-.28.513-.42.77-.383.947a.5.5 0 0 0 .276.352c.164.077.446.002 1.01-.149L15.999 8v12a1 1 0 0 0 2 0V7.998z"/></svg>