<svg xmlns="http://www.w3.org/2000/svg" viewBox="0 0 17 17"><path d="M3.137 5.82c.125.057.34.002.772-.11l.872-.226v.625a.797.797 0 1 0 1.593 0v-.625l.872.226c.431.112.647.167.772.11a.37.37 0 0 0 .211-.26c.028-.132-.08-.322-.293-.702L6.111 1.61c-.174-.309-.26-.463-.376-.514a.4.4 0 0 0-.315 0c-.115.05-.202.205-.376.514L3.219 4.858c-.214.38-.32.57-.293.702a.37.37 0 0 0 .21.26m-.793 1.834c.217-.217.568-.217 1.269-.217h3.93c.702 0 1.053 0 1.27.217.218.218.218.569.218 1.27v3.4c0 .7 0 1.052-.218 1.27a.64.64 0 0 1-.316.165v.853a.797.797 0 1 1-1.594 0v-.8h-.295a1.063 1.063 0 0 1-2.06 0H4.25v.8a.797.797 0 1 1-1.593 0v-.854a.64.64 0 0 1-.313-.165c-.218-.217-.218-.568-.218-1.27v-3.4c0-.7 0-1.05.218-1.269m8.205-1.944c-.431.112-.647.167-.772.11a.37.37 0 0 1-.211-.26c-.028-.132.079-.322.293-.702l1.825-3.248c.174-.309.26-.463.375-.514a.4.4 0 0 1 .316 0c.115.05.202.205.376.514l1.825 3.248c.214.38.32.57.293.702a.37.37 0 0 1-.211.26c-.125.057-.341.002-.772-.11l-.872-.226v9.124a.797.797 0 1 1-1.593 0V5.484z"/></svg>