<svg xmlns="http://www.w3.org/2000/svg" viewBox="0 0 24 24"><g fill-rule="evenodd" clip-rule="evenodd"><path d="M12 8.502a3.498 3.498 0 1 0 0 6.995 3.498 3.498 0 0 0 0-6.995M10.502 12a1.498 1.498 0 1 1 2.996 0 1.498 1.498 0 0 1-2.996 0"/><path d="M6.016 7.575c1.573-1.162 2.36-1.744 4.469-2.105.658-.112 2.38-.112 3.038 0 2.109.361 2.896.943 4.468 2.105a26 26 0 0 1 2.433 2.061c1.053 1.005 1.58 1.507 1.58 2.364 0 .856-.527 1.358-1.58 2.363a26 26 0 0 1-2.433 2.061c-1.572 1.163-2.359 1.744-4.468 2.105-.658.113-2.38.113-3.038 0-2.11-.361-2.896-.942-4.469-2.105a26 26 0 0 1-2.432-2.061c-1.053-1.005-1.58-1.507-1.58-2.363s.527-1.359 1.58-2.364a26 26 0 0 1 2.432-2.06m10.787 1.609a24 24 0 0 1 2.24 1.9c.27.258.474.452.643.624.127.13.21.223.266.292a4 4 0 0 1-.266.291c-.169.172-.372.367-.643.625a24 24 0 0 1-2.24 1.9c-.819.605-1.272.934-1.755 1.18-.436.223-.957.407-1.863.562-.15.026-.6.056-1.181.056s-1.032-.03-1.182-.056c-.906-.155-1.426-.339-1.862-.562-.483-.246-.936-.575-1.755-1.18a24 24 0 0 1-2.24-1.9 28 28 0 0 1-.643-.625A4 4 0 0 1 4.056 12a4 4 0 0 1 .266-.292c.169-.172.372-.366.642-.624a24 24 0 0 1 2.241-1.9c.819-.605 1.272-.934 1.755-1.18.436-.224.956-.407 1.862-.562.15-.026.6-.056 1.182-.056s1.032.03 1.181.056c.906.155 1.427.338 1.863.561.483.247.936.576 1.755 1.18"/></g></svg>