<svg xmlns="http://www.w3.org/2000/svg" viewBox="0 0 44 44"><path fill-rule="evenodd" d="M39.184 20.486c.755.868.754 2.16-.001 3.028-4.09 4.7-8.847 9.308-14.998 10.299-.735.118-1.47.187-2.185.187s-1.45-.069-2.185-.187c-6.151-.99-10.909-5.599-14.998-10.3a2.31 2.31 0 0 1-.001-3.027c4.092-4.708 8.854-9.318 15.014-10.301.73-.117 1.46-.185 2.17-.185s1.44.068 2.17.184c6.16.984 10.922 5.594 15.014 10.302M22 13c.522 0 1.091.05 1.697.147 4.832.771 8.861 4.355 12.825 8.852-3.962 4.49-7.988 8.075-12.814 8.852-.61.098-1.183.149-1.708.149s-1.098-.051-1.708-.15c-4.826-.776-8.852-4.36-12.814-8.85 3.964-4.498 7.993-8.081 12.825-8.853A11 11 0 0 1 22 13m3.5 9a3.5 3.5 0 1 1-7 0 3.5 3.5 0 0 1 7 0m3 0a6.5 6.5 0 1 1-13 0 6.5 6.5 0 0 1 13 0"/></svg>