<svg xmlns="http://www.w3.org/2000/svg" viewBox="0 0 16 16"><path d="M8 6a2 2 0 1 0 0 4 2 2 0 0 0 0-4"/><path fill-rule="evenodd" d="M3.825 4.913c1.26-.931 1.89-1.397 3.47-1.585a9 9 0 0 1 1.415 0c1.58.188 2.21.654 3.47 1.585a18 18 0 0 1 1.77 1.508c.701.675 1.051 1.012 1.051 1.58 0 .566-.35.904-1.05 1.578a18 18 0 0 1-1.77 1.508c-1.261.932-1.891 1.398-3.47 1.585a9 9 0 0 1-1.416 0c-1.58-.187-2.21-.653-3.47-1.585a18 18 0 0 1-1.77-1.508c-.7-.674-1.05-1.012-1.05-1.579s.35-.904 1.05-1.579a18 18 0 0 1 1.77-1.508m7.464 1.206c.598.442 1.152.93 1.621 1.383a19 19 0 0 1 .502.498l-.078.083c-.11.113-.243.242-.424.416a17 17 0 0 1-1.62 1.381c-.658.486-1.021.75-1.395.936-.329.165-.707.288-1.36.366a9 9 0 0 1-1.062 0c-.653-.078-1.032-.201-1.36-.366-.374-.187-.737-.45-1.396-.936A17 17 0 0 1 3.096 8.5a19 19 0 0 1-.504-.5l.079-.082c.11-.114.243-.242.423-.416.47-.452 1.024-.94 1.621-1.383.659-.486 1.022-.749 1.395-.936.329-.164.708-.288 1.361-.365.19-.023.87-.023 1.061 0 .654.077 1.032.201 1.36.365.374.187.738.45 1.396.936"/></svg>