<svg xmlns="http://www.w3.org/2000/svg" viewBox="0 0 16 16"><path fill-rule="evenodd" d="M8 13c1.259 0 2.331-.057 3.216-.136 1.3-.117 1.951-.176 2.751-.972s.857-1.388.97-2.572a14 14 0 0 0 0-2.64c-.113-1.184-.17-1.776-.97-2.572s-1.45-.855-2.751-.972A36 36 0 0 0 8 3c-1.26 0-2.332.057-3.217.136-1.3.117-1.95.176-2.75.972-.8.795-.857 1.387-.97 2.57a14 14 0 0 0 0 2.644c.113 1.183.17 1.775.97 2.57.8.796 1.45.855 2.75.972A36 36 0 0 0 8 13M6.595 6.5l-.192 1.385-.118-.753a19 19 0 0 0-.1-.632H5.11v2.962h.726l.003-1.954.305 1.954h.516l.29-2v2h.724V6.501zm-1.766 0H4v2.96h.83zm4.579 2.932a2.5 2.5 0 0 1-.446.03H7.96v-2.96h.618c.399 0 .629.015.77.051q.214.052.326.17a.5.5 0 0 1 .135.259q.031.143.033.564v1.038c0 .266-.018.442-.045.532a.4.4 0 0 1-.141.21.56.56 0 0 1-.248.106m-.396-2.361a.1.1 0 0 0-.04-.035v-.001q-.05-.03-.184-.026v1.944q.177-.001.218-.069.041-.064.042-.36V7.378q.001-.2-.015-.26a.1.1 0 0 0-.02-.046m1.11-.57v2.961h.746l.05-.188q.094.108.225.172a.8.8 0 0 0 .295.053.6.6 0 0 0 .34-.095.43.43 0 0 0 .182-.226q.045-.196.04-.395V7.95a3 3 0 0 0-.016-.35.37.37 0 0 0-.086-.183.4.4 0 0 0-.173-.119.9.9 0 0 0-.584.007.7.7 0 0 0-.222.16V6.5zM11.2 8.745a1 1 0 0 1-.023.27c-.015.037-.083.057-.133.057a.1.1 0 0 1-.058-.012.1.1 0 0 1-.039-.042q-.027-.054-.027-.25v-.783q0-.201.024-.251a.1.1 0 0 1 .039-.04.1.1 0 0 1 .056-.01c.05 0 .117.017.135.058q.027.06.026.243z"/></svg>