<svg xmlns="http://www.w3.org/2000/svg" viewBox="0 0 24 24"><path fill-rule="evenodd" d="M8.118 6.16C9.214 6.065 10.508 6 12 6s2.785.065 3.881.16c1.08.094 1.602.149 2.023.278.313.097.613.25 1.06.699.458.46.607.755.697 1.043.122.394.173.88.259 1.918a23 23 0 0 1 0 3.804c-.086 1.038-.137 1.524-.26 1.918-.09.288-.238.584-.695 1.043-.448.449-.748.602-1.06.698-.421.13-.945.185-2.024.279-1.095.095-2.39.16-3.881.16a45 45 0 0 1-3.882-.16c-1.079-.094-1.602-.149-2.023-.279-.312-.096-.612-.249-1.06-.698-.457-.46-.606-.755-.695-1.043-.123-.393-.173-.879-.26-1.916a23 23 0 0 1 0-3.808c.087-1.037.137-1.522.26-1.916.09-.288.238-.584.696-1.043.447-.45.747-.602 1.06-.699.42-.13.943-.184 2.022-.278M12 4c-1.55 0-2.902.068-4.055.168-2.024.175-3.036.263-4.326 1.557S2.25 7.99 2.087 9.93a25 25 0 0 0 0 4.14c.162 1.94.243 2.911 1.532 4.205s2.302 1.382 4.326 1.557c1.153.1 2.505.168 4.055.168s2.902-.068 4.054-.168c2.025-.175 3.038-.263 4.327-1.557s1.37-2.265 1.532-4.206a25 25 0 0 0 0-4.137c-.162-1.942-.242-2.913-1.532-4.207s-2.302-1.382-4.327-1.557A47 47 0 0 0 12 4M9.892 9.75l-.288 2.077-.177-1.129a29 29 0 0 0-.15-.949H7.664v4.445h1.089l.004-2.933.457 2.933h.774l.437-3v3h1.085V9.75zm-2.648 0H6v4.441h1.244zm6.867 4.398q-.331.052-.668.046h-1.504V9.752h.928c.598 0 .943.023 1.156.078.212.054.376.134.487.254a.75.75 0 0 1 .204.388q.047.215.048.846v1.558c0 .4-.027.663-.067.798a.58.58 0 0 1-.211.315.84.84 0 0 1-.373.16m-.593-3.542a.2.2 0 0 0-.061-.052v-.002c-.047-.029-.143-.041-.275-.038v2.915c.176 0 .287-.037.327-.102q.061-.099.062-.54v-1.722c0-.2-.004-.33-.022-.388a.2.2 0 0 0-.031-.071m1.664-.855v4.443h1.12l.076-.283c.09.107.206.195.336.258.14.054.291.081.443.08a.87.87 0 0 0 .51-.143c.13-.08.227-.2.273-.34q.067-.292.058-.592v-1.248a4 4 0 0 0-.022-.523.56.56 0 0 0-.129-.276.6.6 0 0 0-.26-.178 1.34 1.34 0 0 0-.876.01q-.192.09-.333.24V9.75zm1.617 3.364q0 .32-.036.405c-.023.057-.123.086-.199.086a.15.15 0 0 1-.087-.018.14.14 0 0 1-.058-.062q-.041-.081-.04-.377v-1.174q0-.301.035-.376a.13.13 0 0 1 .058-.058.15.15 0 0 1 .084-.016c.075 0 .177.025.203.086.026.062.04.18.04.364z"/></svg>