<svg xmlns="http://www.w3.org/2000/svg" viewBox="0 0 16 16"><path d="M.866 8a.643.643 0 0 0-.525 1.014l.385.55C1.571 10.78 2.072 11.5 2.737 11.5s1.166-.72 2.01-1.934l.386-.551A.643.643 0 0 0 4.608 8c-.407 0-.75.257-1.007.618l-.032.045-.07.097V8c0-.423.02-.852.05-1.273.138-1.845.215-2.122.635-2.542s.697-.497 2.542-.635c.421-.032.85-.05 1.274-.05.423 0 .852.019 1.273.05 1.845.137 2.122.214 2.542.635.42.42.498.697.635 2.542.032.42.05.85.05 1.273s-.019.852-.05 1.273c-.137 1.845-.214 2.122-.635 2.542-.42.42-.697.498-2.542.635-.421.032-.85.05-1.273.05s-.852-.018-1.274-.05c-1.315-.098-1.834-.163-2.176-.345a.75.75 0 1 0-.563 1.39c.656.304 1.44.362 2.628.451.452.034.919.054 1.385.054s.933-.02 1.385-.054c1.744-.13 2.616-.195 3.49-1.07.876-.875.941-1.747 1.071-3.491C13.98 8.933 14 8.466 14 8s-.02-.933-.054-1.385c-.13-1.744-.195-2.616-1.07-3.491s-1.747-.94-3.491-1.07A19 19 0 0 0 8 2c-.466 0-.933.02-1.385.053-1.744.13-2.616.195-3.491 1.07-.876.876-.94 1.748-1.07 3.492A19 19 0 0 0 2 7.999v.76l-.127-.177C1.616 8.222 1.273 8 .866 8"/><path d="M7.25 7.97V5.753a.75.75 0 1 1 1.5 0V7.69l1.027 1.027a.75.75 0 0 1-1.06 1.061L7.469 8.531a.75.75 0 0 1-.22-.562"/></svg>