<svg width="32" height="32" viewBox="0 0 32 32" fill="none" xmlns="http://www.w3.org/2000/svg">
<g clip-path="url(#clip0_28728_8207)">
<path d="M21.541 7.48286C19.04 4.95367 17.5343 3.7299 16.8657 3.32724C16.4163 3.08452 15.6735 3.00006 15.0333 3.00003L14.6105 3L14.5852 3.00001L14.287 3L14.2881 3.00221C13.7736 3.00929 13.282 3.03304 12.815 3.06939C10.905 3.21809 9.94995 3.29244 8.27883 4.94652C6.60772 6.60059 6.49757 7.7302 6.27727 9.98943C6.11641 11.6391 6 13.6441 6 16C6 17.9381 6.07824 19.6387 6.19556 21.0994C6.41325 23.8095 6.5221 25.1645 8.27174 26.9023C10.0214 28.6401 11.2861 28.7331 13.8157 28.919C14.5091 28.97 15.2401 29 16 29C16.7599 29 17.491 28.97 18.1844 28.919C20.7139 28.7331 21.9786 28.6401 23.7282 26.9023C25.4778 25.1646 25.5867 23.8096 25.8044 21.0996C25.9217 19.6389 26.0008 17.9382 26.0008 16C26.0008 14.923 26.0255 12.8431 25.6796 12.2281C25.6323 12.144 25.5444 12.0918 25.4391 11.9542C24.8754 11.2175 23.6483 9.6139 21.541 7.48286Z" fill="url(#paint0_linear_28728_8207)"/>
<path d="M14.2728 16.5059C14.2727 16.5591 14.2727 16.6152 14.2727 16.6744V21.2856H14.2684C14.2718 21.3326 14.2735 21.3801 14.2735 21.428C14.2735 22.5218 13.3868 23.4085 12.293 23.4085C11.1992 23.4085 10.3125 22.5218 10.3125 21.428C10.3125 20.3342 11.1992 19.4475 12.293 19.4475C12.5421 19.4475 12.7804 19.4935 13 19.5774V16.6744C13 15.8086 13 15.3758 13.16 15.0256C13.2952 14.7299 13.5093 14.4772 13.7788 14.2952C14.0978 14.0798 14.5248 14.0087 15.3788 13.8663L16.6851 13.6606C17.8377 13.4685 18.4139 13.3725 18.8618 13.5433C19.2383 13.6868 19.5544 13.9546 19.7579 14.3024C20 14.7161 20 15.3003 20 16.4687V20.1835C20.0021 20.221 20.0032 20.2586 20.0032 20.2966C20.0032 20.3345 20.0021 20.3722 20 20.4096V20.4371H19.9983C19.9262 21.4653 19.0692 22.2771 18.0227 22.2771C16.9289 22.2771 16.0422 21.3904 16.0422 20.2966C16.0422 19.2028 16.9289 18.3161 18.0227 18.3161C18.2709 18.3161 18.5084 18.3617 18.7273 18.4451V16.4687C18.7273 16.194 18.727 15.9673 18.7245 15.776L14.2728 16.5059Z" fill="white"/>
<path d="M25.6958 12.2459C24.3186 8.36828 20.2795 4.68899 16.8379 3.31055C18.5076 5.53544 17.7585 9.41576 18.7164 10.3844C19.8616 11.5425 23.7653 10.6622 25.6958 12.2459Z" fill="#D769EF"/>
</g>
<defs>
<linearGradient id="paint0_linear_28728_8207" x1="1.36189" y1="5.52778" x2="31.1193" y2="11.4942" gradientUnits="userSpaceOnUse">
<stop stop-color="#D854ED"/>
<stop offset="1" stop-color="#641493"/>
</linearGradient>
<clipPath id="clip0_28728_8207">
<rect width="32" height="32" fill="white"/>
</clipPath>
</defs>
</svg>
