<svg width="44" height="44" viewBox="0 0 44 44" fill="none" xmlns="http://www.w3.org/2000/svg">
<g clip-path="url(#clip0_28728_8202)">
<path d="M29.7559 10.207C26.2539 6.70508 24.1455 5.01063 23.2094 4.4531C22.58 4.11703 21.54 4.00009 20.6436 4.00005L20.0515 4L20.0162 4.00002L19.5986 4L19.6001 4.00307C18.8797 4.01286 18.1914 4.04574 17.5375 4.09608C14.863 4.30197 13.5257 4.40492 11.1858 6.69517C8.84587 8.98543 8.69164 10.5495 8.38317 13.6777C8.15793 15.9618 8 18.738 8 22C8 24.7127 8.11192 27.0893 8.27916 29.1264C8.58474 32.8488 8.73754 34.7099 11.1333 37.0922C13.5291 39.4745 15.2799 39.6083 18.7814 39.8759C19.7996 39.9537 20.8773 40 22 40C23.1228 40 24.2005 39.9537 25.2188 39.8759C28.7202 39.6083 30.4708 39.4745 32.8666 37.0923C35.2624 34.71 35.4152 32.8489 35.7208 29.1267C35.8881 27.0896 36 24.7128 36 22C36 20.5088 36.0352 17.6289 35.5508 16.7773C35.4846 16.661 35.3615 16.5887 35.214 16.3981C34.4247 15.3781 32.7065 13.1577 29.7559 10.207Z" fill="url(#paint0_linear_28728_8202)"/>
<path d="M20.1954 22.6956C20.1953 22.7687 20.1953 22.8458 20.1953 22.9273V29.2676H20.1894C20.194 29.3323 20.1963 29.3976 20.1963 29.4634C20.1963 30.9674 18.9771 32.1866 17.4732 32.1866C15.9692 32.1866 14.75 30.9674 14.75 29.4634C14.75 27.9594 15.9692 26.7402 17.4732 26.7402C17.8157 26.7402 18.1434 26.8035 18.4453 26.9189V22.9273C18.4453 21.7368 18.4453 21.1416 18.6654 20.6602C18.8512 20.2536 19.1456 19.9061 19.5161 19.6559C19.9548 19.3597 20.5419 19.2618 21.7162 19.0661L23.4133 18.7833C24.9981 18.5192 25.7904 18.3871 26.4063 18.6219C26.9239 18.8193 27.3586 19.1876 27.6384 19.6657C27.9713 20.2346 27.9713 21.0379 27.9713 22.6444V27.7523C27.9742 27.8038 27.9756 27.8556 27.9756 27.9077C27.9756 27.9599 27.9742 28.0117 27.9713 28.0632V28.1009H27.9689C27.8698 29.5147 26.6915 30.6309 25.2525 30.6309C23.7485 30.6309 22.5293 29.4117 22.5293 27.9077C22.5293 26.4038 23.7485 25.1846 25.2525 25.1846C25.5937 25.1846 25.9203 25.2473 26.2213 25.3619V22.6444C26.2213 22.2666 26.221 21.955 26.2175 21.6919L20.1954 22.6956Z" fill="white"/>
<path d="M35.5711 16.8017C33.6427 11.4327 27.987 6.3383 23.168 4.42969C25.506 7.51031 24.457 12.8831 25.7983 14.2243C27.4018 15.8278 32.868 14.6089 35.5711 16.8017Z" fill="#D769EF"/>
</g>
<defs>
<linearGradient id="paint0_linear_28728_8202" x1="1.50692" y1="7.5" x2="43.1298" y2="15.9379" gradientUnits="userSpaceOnUse">
<stop stop-color="#D854ED"/>
<stop offset="1" stop-color="#641493"/>
</linearGradient>
<clipPath id="clip0_28728_8202">
<rect width="44" height="44" fill="white"/>
</clipPath>
</defs>
</svg>
