<svg xmlns="http://www.w3.org/2000/svg" viewBox="0 0 32 32"><path fill-rule="evenodd" d="M15.334 5.571a1.3 1.3 0 0 1 .416-.071h4a1.25 1.25 0 1 1 0 2.5H17v9.75c0 .69-.56 1.25-1.25 1.25h-3.752v.008c1.524.1 2.8 1.11 3.289 2.492H18.5V10.75a1.25 1.25 0 0 1 1.25-1.25h3.397c.437 0 .83.149 1.122.292.31.152.616.354.903.572.575.438 1.17 1.015 1.703 1.62a13 13 0 0 1 1.416 1.921c.343.583.709 1.347.709 2.078l-.002.072a33 33 0 0 1-.118 2.72c-.18 2.128-.283 3.362-1.304 4.698h-.003a1.25 1.25 0 0 1-1.02.527h-.518a3.752 3.752 0 0 1-7.074 0h-3.674a3.752 3.752 0 0 1-6.037 1.545 3.75 3.75 0 1 1-2.252-6.537V19H4.25C3.56 19 3 18.44 3 17.75v-6.945c0-.53.334-1.002.834-1.179zM14.5 8.516V16.5h-9v-4.81zM21 19.311a3.75 3.75 0 0 1 4.964 2.004q.045-.113.08-.223c.164-.529.231-1.177.345-2.527.067-.805.109-1.666.109-2.565h-1.635a1.3 1.3 0 0 1-1.275-1.045L22.998 12H21zM6.75 21.5a1.25 1.25 0 1 1 0 2.5 1.25 1.25 0 0 1 0-2.5m5 2.5a1.25 1.25 0 1 1 0-2.5 1.25 1.25 0 0 1 0 2.5m9.498-1.25a1.25 1.25 0 1 1 2.5 0 1.25 1.25 0 0 1-2.5 0"/></svg>