<svg xmlns="http://www.w3.org/2000/svg" viewBox="0 0 24 24"><path fill-rule="evenodd" d="M12 4a1 1 0 0 0-.316.051l-9 3A1 1 0 0 0 2 8v5a1 1 0 0 0 1 1h2a3 3 0 1 0 2 5.236A3 3 0 0 0 11.83 18h2.34a3.001 3.001 0 0 0 5.66 0h.342a1 1 0 0 0 .867-.501h.001c.668-.963.746-1.892.874-3.43.054-.649.087-1.343.087-2.069 0-.308-.091-.6-.18-.827a5 5 0 0 0-.367-.73 11 11 0 0 0-1.07-1.469A10 10 0 0 0 19.09 7.7a4.3 4.3 0 0 0-.697-.46c-.226-.115-.54-.24-.893-.24H15a1 1 0 0 0-1 1v8h-2.17A3 3 0 0 0 9 14h3a1 1 0 0 0 1-1V6h2a1 1 0 0 0 0-2zm-1 8V6.387L4 8.721V12zm-7 5a1 1 0 1 1 2 0 1 1 0 0 1-2 0m4 0a1 1 0 1 0 2 0 1 1 0 0 0-2 0m11.92-3.097c-.076.925-.125 1.411-.221 1.785A3 3 0 0 0 16 14.17V9h1.438l.068.034.355 2.13a1 1 0 0 0 .986.836h1.146l.007.028v.01a23 23 0 0 1-.08 1.865M17 16a1 1 0 1 0 0 2 1 1 0 0 0 0-2"/></svg>