<svg xmlns="http://www.w3.org/2000/svg" viewBox="0 0 16 16"><path fill-rule="evenodd" d="M8 3c-1.26 0-2.332.057-3.217.137-1.3.117-1.95.175-2.75.97-.8.797-.857 1.388-.97 2.572a14 14 0 0 0 0 2.643c.113 1.183.17 1.775.97 2.57.8.796 1.45.855 2.75.972.885.08 1.958.136 3.217.136a36 36 0 0 0 3.216-.136c1.3-.117 1.951-.176 2.751-.972.8-.795.857-1.387.97-2.571a14 14 0 0 0 0-2.641c-.113-1.184-.17-1.776-.97-2.572s-1.45-.854-2.751-.971A36 36 0 0 0 8 3M5.25 9.5A.75.75 0 0 1 6 8.75h4a.75.75 0 0 1 0 1.5H6a.75.75 0 0 1-.75-.75m.15-3a.75.75 0 1 1-1.5 0 .75.75 0 0 1 1.5 0m1.5.75a.75.75 0 1 0 0-1.5.75.75 0 0 0 0 1.5m3-.75a.75.75 0 1 1-1.5 0 .75.75 0 0 1 1.5 0m1.5.75a.75.75 0 1 0 0-1.5.75.75 0 0 0 0 1.5"/></svg>