<svg xmlns="http://www.w3.org/2000/svg" viewBox="0 0 16 16"><path fill-rule="evenodd" d="M8 4.5a35 35 0 0 0-3.082.13c-.7.064-1.016.099-1.263.173-.165.05-.319.124-.564.368-.263.262-.332.41-.374.54-.067.206-.099.469-.16 1.11a12.4 12.4 0 0 0 0 2.359c.061.64.093.903.16 1.11.042.13.111.278.374.54.245.243.4.317.564.367.247.075.564.11 1.263.173.84.075 1.868.13 3.082.13s2.242-.055 3.082-.13c.7-.063 1.016-.098 1.263-.173.165-.05.319-.123.564-.368.263-.261.332-.41.374-.54.067-.206.1-.47.16-1.11a12.5 12.5 0 0 0 0-2.357c-.06-.641-.093-.904-.16-1.111-.042-.13-.11-.278-.373-.54-.246-.244-.4-.318-.565-.368-.247-.074-.564-.11-1.263-.172A35 35 0 0 0 8 4.5m3.216 8.364A36 36 0 0 1 8 13c-1.26 0-2.332-.057-3.217-.136-1.3-.117-1.95-.176-2.75-.971-.8-.796-.857-1.388-.97-2.571a14 14 0 0 1 0-2.643c.113-1.184.17-1.775.97-2.571s1.45-.854 2.75-.971C5.668 3.057 6.741 3 8 3s2.332.057 3.216.137c1.3.117 1.951.175 2.751.97.8.797.857 1.389.97 2.573a14 14 0 0 1 0 2.64c-.113 1.185-.17 1.777-.97 2.573-.8.795-1.45.854-2.751.97M5.25 9.5A.75.75 0 0 1 6 8.75h4a.75.75 0 0 1 0 1.5H6a.75.75 0 0 1-.75-.75m.15-3a.75.75 0 1 1-1.5 0 .75.75 0 0 1 1.5 0m1.5.75a.75.75 0 1 0 0-1.5.75.75 0 0 0 0 1.5m3-.75a.75.75 0 1 1-1.5 0 .75.75 0 0 1 1.5 0m1.5.75a.75.75 0 1 0 0-1.5.75.75 0 0 0 0 1.5"/></svg>