<svg xmlns="http://www.w3.org/2000/svg" viewBox="0 0 24 24"><path fill-rule="evenodd" d="M8.118 6.16C9.214 6.067 10.508 6 12 6s2.786.066 3.882.16c1.079.094 1.602.15 2.023.279.313.096.613.25 1.06.699.458.459.606.755.696 1.043.123.394.173.88.26 1.917a23 23 0 0 1 0 3.805c-.087 1.037-.137 1.523-.26 1.917-.09.288-.238.584-.696 1.043-.447.45-.747.603-1.06.7-.42.129-.944.184-2.023.277-1.096.096-2.39.16-3.882.16s-2.786-.064-3.882-.16c-1.079-.093-1.602-.148-2.022-.278-.312-.096-.613-.25-1.06-.698-.458-.46-.606-.755-.696-1.044-.123-.393-.173-.878-.26-1.915a23 23 0 0 1 0-3.808c.087-1.037.137-1.523.26-1.916.09-.289.238-.584.696-1.044.447-.449.748-.602 1.06-.698.42-.13.944-.185 2.022-.278M12 4c-1.55 0-2.902.068-4.055.168-2.024.176-3.036.264-4.326 1.558C2.33 7.019 2.25 7.99 2.087 9.93a25 25 0 0 0 0 4.14c.162 1.941.243 2.912 1.532 4.205s2.302 1.382 4.326 1.558c1.153.1 2.505.168 4.055.168s2.902-.068 4.055-.168c2.025-.176 3.037-.264 4.327-1.558s1.37-2.264 1.532-4.206a25 25 0 0 0 0-4.137c-.162-1.941-.243-2.912-1.532-4.206s-2.302-1.382-4.328-1.558A47 47 0 0 0 12 4M8.5 8.5a1 1 0 1 1-2 0 1 1 0 0 1 2 0m2 1a1 1 0 1 0 0-2 1 1 0 0 0 0 2m3 0a1 1 0 1 0 0-2 1 1 0 0 0 0 2m3 0a1 1 0 1 0 0-2 1 1 0 0 0 0 2m-7.5 3a1 1 0 1 0 0-2 1 1 0 0 0 0 2m3 0a1 1 0 1 0 0-2 1 1 0 0 0 0 2m3 0a1 1 0 1 0 0-2 1 1 0 0 0 0 2m-6 2a1 1 0 1 0 0 2h6a1 1 0 1 0 0-2z"/></svg>