<svg xmlns="http://www.w3.org/2000/svg" viewBox="0 0 16 16"><path fill-rule="evenodd" d="M2.652 11.212A33 33 0 0 1 2.502 8c0-1.257.062-2.328.15-3.212.126-1.285.19-1.928.976-2.717s1.403-.853 2.636-.98A17 17 0 0 1 8.002 1c.62 0 1.204.036 1.738.09 1.233.128 1.85.191 2.636.98.786.79.85 1.433.976 2.718.088.884.15 1.955.15 3.212a33 33 0 0 1-.15 3.212c-.127 1.285-.19 1.928-.976 2.717s-1.402.853-2.635.98c-.534.055-1.12.091-1.739.091-.62 0-1.205-.036-1.739-.09-1.233-.128-1.85-.191-2.635-.98-.786-.79-.85-1.433-.976-2.718M6.202 4h3.6a.7.7 0 0 1 .7.7v1.1a.7.7 0 0 1-.7.7h-3.6a.7.7 0 0 1-.7-.7V4.7a.7.7 0 0 1 .7-.7m2.7 5.002a.9.9 0 1 1-1.8 0 .9.9 0 0 1 1.8 0m-.9 3.398a.9.9 0 1 0 0-1.8.9.9 0 0 0 0 1.8M6.902 9a.9.9 0 1 1-1.8 0 .9.9 0 0 1 1.8 0m-.9 3.4a.9.9 0 1 0 0-1.8.9.9 0 0 0 0 1.8m4.9-3.4a.9.9 0 1 1-1.8 0 .9.9 0 0 1 1.8 0m-.9 3.402a.9.9 0 1 0 0-1.8.9.9 0 0 0 0 1.8"/></svg>