<svg xmlns="http://www.w3.org/2000/svg" viewBox="0 0 24 24"><path fill-rule="evenodd" d="M4.168 16.056A47 47 0 0 1 4 12c0-1.549.068-2.901.168-4.054.175-2.025.263-3.038 1.557-4.327s2.265-1.37 4.207-1.532a25 25 0 0 1 4.137 0c1.941.162 2.912.242 4.206 1.532s1.382 2.302 1.557 4.327c.1 1.153.168 2.505.168 4.054s-.068 2.903-.168 4.056c-.175 2.024-.263 3.036-1.557 4.325s-2.264 1.37-4.205 1.532a25 25 0 0 1-4.14 0c-1.94-.161-2.911-.242-4.205-1.532-1.294-1.289-1.381-2.301-1.557-4.325M9 6h6a1 1 0 0 1 1 1v2a1 1 0 0 1-1 1H9a1 1 0 0 1-1-1V7a1 1 0 0 1 1-1m4.25 7.453a1.25 1.25 0 1 1-2.5 0 1.25 1.25 0 0 1 2.5 0M12 18.203a1.25 1.25 0 1 0 0-2.5 1.25 1.25 0 0 0 0 2.5m-2.25-4.75a1.25 1.25 0 1 1-2.5 0 1.25 1.25 0 0 1 2.5 0m-1.25 4.75a1.25 1.25 0 1 0 0-2.5 1.25 1.25 0 0 0 0 2.5m8.25-4.75a1.25 1.25 0 1 1-2.5 0 1.25 1.25 0 0 1 2.5 0m-1.25 4.75a1.25 1.25 0 1 0 0-2.5 1.25 1.25 0 0 0 0 2.5"/></svg>