<svg width="44" height="44" viewBox="0 0 44 44" fill="none" xmlns="http://www.w3.org/2000/svg">
<g clip-path="url(#clip0_28728_8246)">
<path d="M29.7559 10.207C26.2539 6.70508 24.1455 5.01063 23.2094 4.4531C22.58 4.11703 21.54 4.00009 20.6436 4.00005L20.0515 4L20.0162 4.00002L19.5986 4L19.6001 4.00307C18.8797 4.01286 18.1914 4.04574 17.5375 4.09608C14.863 4.30197 13.5257 4.40492 11.1858 6.69517C8.84587 8.98543 8.69164 10.5495 8.38317 13.6777C8.15793 15.9618 8 18.738 8 22C8 24.7127 8.11192 27.0893 8.27916 29.1264C8.58474 32.8488 8.73754 34.7099 11.1333 37.0922C13.5291 39.4745 15.2799 39.6083 18.7814 39.8759C19.7996 39.9537 20.8773 40 22 40C23.1228 40 24.2005 39.9537 25.2188 39.8759C28.7202 39.6083 30.4708 39.4745 32.8666 37.0923C35.2624 34.71 35.4152 32.8489 35.7208 29.1267C35.8881 27.0896 36 24.7128 36 22C36 20.5088 36.0352 17.6289 35.5508 16.7773C35.4846 16.661 35.3615 16.5887 35.214 16.3981C34.4247 15.3781 32.7065 13.1577 29.7559 10.207Z" fill="url(#paint0_linear_28728_8246)"/>
<path fill-rule="evenodd" clip-rule="evenodd" d="M16.3074 19.8113C15.2863 20.8324 15.2106 21.8498 15.0591 23.8844C15.0199 24.4119 14.9961 24.9559 14.9961 25.5C14.9961 26.0441 15.0199 26.5881 15.0591 27.1156C15.2106 29.1502 15.2863 30.1676 16.3074 31.1887C17.3285 32.2098 18.3459 32.2855 20.3805 32.437C20.9079 32.4762 21.452 32.5 21.9961 32.5C22.5402 32.5 23.0842 32.4762 23.6117 32.437C25.6463 32.2855 26.6637 32.2098 27.6848 31.1887C28.7059 30.1676 28.7816 29.1502 28.9331 27.1156C28.9723 26.5881 28.9961 26.0441 28.9961 25.5C28.9961 24.9559 28.9723 24.4119 28.9331 23.8844C28.7816 21.8498 28.7059 20.8324 27.6848 19.8113C26.6637 18.7902 25.6463 18.7145 23.6117 18.563C23.0842 18.5238 22.5402 18.5 21.9961 18.5C21.452 18.5 20.9079 18.5238 20.3805 18.563C18.3459 18.7145 17.3285 18.7902 16.3074 19.8113ZM27.2138 24.4939L22.875 24.4939L22.875 24.5004V26.623H27.2073C27.2291 26.2494 27.2414 25.8729 27.2414 25.5C27.2414 25.166 27.2315 24.8291 27.2138 24.4939ZM16.7784 24.4939L21.1204 24.4939L21.1203 24.5004V26.623H16.7849C16.7631 26.2494 16.7507 25.8729 16.7507 25.5C16.7507 25.166 16.7606 24.8291 16.7784 24.4939ZM16.9338 28.3777H21.1203V30.7242C20.9164 30.7147 20.7128 30.7022 20.5107 30.6871C18.3582 30.5269 18.037 30.4368 17.5481 29.948C17.1925 29.5923 17.0479 29.3254 16.9338 28.3777ZM23.4814 30.6871C23.2804 30.7021 23.0779 30.7146 22.875 30.7241V28.3777H27.0584C26.9443 29.3254 26.7997 29.5923 26.4441 29.948C25.9552 30.4368 25.634 30.5269 23.4814 30.6871Z" fill="white"/>
<path d="M35.5711 16.8017C33.6427 11.4327 27.987 6.3383 23.168 4.42969C25.506 7.51031 24.457 12.8831 25.7983 14.2243C27.4018 15.8278 32.868 14.6089 35.5711 16.8017Z" fill="#60ED94"/>
</g>
<defs>
<linearGradient id="paint0_linear_28728_8246" x1="1.50692" y1="7.5" x2="43.1298" y2="15.9379" gradientUnits="userSpaceOnUse">
<stop stop-color="#2AE670"/>
<stop offset="1" stop-color="#04AA42"/>
</linearGradient>
<clipPath id="clip0_28728_8246">
<rect width="44" height="44" fill="white"/>
</clipPath>
</defs>
</svg>
