<svg width="32" height="32" viewBox="0 0 32 32" fill="none" xmlns="http://www.w3.org/2000/svg">
<g clip-path="url(#clip0_28728_8251)">
<path d="M21.541 7.48286C19.04 4.95367 17.5343 3.7299 16.8657 3.32724C16.4163 3.08452 15.6735 3.00006 15.0333 3.00003L14.6105 3L14.5852 3.00001L14.287 3L14.2881 3.00221C13.7736 3.00929 13.282 3.03304 12.815 3.06939C10.905 3.21809 9.94995 3.29244 8.27883 4.94652C6.60772 6.60059 6.49757 7.7302 6.27727 9.98943C6.11641 11.6391 6 13.6441 6 16C6 17.9381 6.07824 19.6387 6.19556 21.0994C6.41325 23.8095 6.5221 25.1645 8.27174 26.9023C10.0214 28.6401 11.2861 28.7331 13.8157 28.919C14.5091 28.97 15.2401 29 16 29C16.7599 29 17.491 28.97 18.1844 28.919C20.7139 28.7331 21.9786 28.6401 23.7282 26.9023C25.4778 25.1646 25.5867 23.8096 25.8044 21.0996C25.9217 19.6389 26.0008 17.9382 26.0008 16C26.0008 14.923 26.0255 12.8431 25.6796 12.2281C25.6323 12.144 25.5444 12.0918 25.4391 11.9542C24.8754 11.2175 23.6483 9.6139 21.541 7.48286Z" fill="url(#paint0_linear_28728_8251)"/>
<path fill-rule="evenodd" clip-rule="evenodd" d="M11.8599 14.4083C11.1173 15.1509 11.0622 15.8908 10.9521 17.3705C10.9235 17.7541 10.9062 18.1498 10.9062 18.5455C10.9062 18.9412 10.9235 19.3369 10.9521 19.7205C11.0622 21.2002 11.1173 21.9401 11.8599 22.6827C12.6026 23.4254 13.3424 23.4804 14.8222 23.5906C15.2058 23.6191 15.6015 23.6364 15.9972 23.6364C16.3928 23.6364 16.7885 23.6191 17.1721 23.5906C18.6519 23.4804 19.3918 23.4254 20.1344 22.6827C20.877 21.9401 20.9321 21.2002 21.0422 19.7205C21.0708 19.3369 21.0881 18.9412 21.0881 18.5455C21.0881 18.1498 21.0708 17.7541 21.0422 17.3705C20.9321 15.8908 20.877 15.1509 20.1344 14.4083C19.3918 13.6656 18.6519 13.6106 17.1721 13.5004C16.7885 13.4719 16.3928 13.4546 15.9972 13.4546C15.6015 13.4546 15.2058 13.4719 14.8222 13.5004C13.3424 13.6106 12.6026 13.6656 11.8599 14.4083ZM19.7919 17.8138L16.6363 17.8138L16.6364 17.8185V19.3623H19.7871C19.803 19.0905 19.812 18.8167 19.812 18.5455C19.812 18.3026 19.8048 18.0576 19.7919 17.8138ZM12.2024 17.8138L15.3603 17.8138L15.3603 17.8185V19.3623H12.2072C12.1913 19.0905 12.1824 18.8167 12.1824 18.5455C12.1824 18.3026 12.1896 18.0576 12.2024 17.8138ZM12.3155 20.6384H15.3603V22.3449C15.2119 22.338 15.0639 22.3289 14.9169 22.318C13.3514 22.2015 13.1178 22.1359 12.7623 21.7804C12.5036 21.5217 12.3985 21.3276 12.3155 20.6384ZM17.0774 22.318C16.9312 22.3289 16.7839 22.3379 16.6364 22.3448V20.6384H19.6788C19.5959 21.3276 19.4907 21.5217 19.232 21.7804C18.8765 22.1359 18.6429 22.2015 17.0774 22.318Z" fill="white"/>
<path d="M25.6958 12.2459C24.3186 8.36828 20.2795 4.68899 16.8379 3.31055C18.5076 5.53544 17.7585 9.41576 18.7164 10.3844C19.8616 11.5425 23.7653 10.6622 25.6958 12.2459Z" fill="#60ED94"/>
</g>
<defs>
<linearGradient id="paint0_linear_28728_8251" x1="1.36189" y1="5.52778" x2="31.1193" y2="11.4942" gradientUnits="userSpaceOnUse">
<stop stop-color="#2AE670"/>
<stop offset="1" stop-color="#04AA42"/>
</linearGradient>
<clipPath id="clip0_28728_8251">
<rect width="32" height="32" fill="white"/>
</clipPath>
</defs>
</svg>
