<svg xmlns="http://www.w3.org/2000/svg" viewBox="0 0 16 16"><path fill-rule="evenodd" d="M2.07 3.626c.79-.786 1.433-.85 2.718-.976A33 33 0 0 1 8 2.5c1.257 0 2.328.062 3.212.15 1.285.126 1.928.19 2.717.976s.853 1.403.98 2.636a16.7 16.7 0 0 1 .001 3.476c-.128 1.233-.191 1.85-.98 2.636-.79.786-1.433.85-2.718.976A33 33 0 0 1 8 13.5c-1.257 0-2.329-.062-3.212-.15-1.285-.127-1.928-.19-2.717-.976s-.853-1.402-.98-2.635A17 17 0 0 1 1 8c0-.62.036-1.205.09-1.739.128-1.233.192-1.85.98-2.635M4.18 6.5l.797 1.887V6.5h.793v3H4.591l-.798-1.883V9.5H3v-3zm4.568 3-2.25-.023V6.5h2.246v.717h-1.39v.392h1.033v.695H7.354v.479h1.393zm.964 0h1.003l.416-1.883.386 1.883h1.097l.528-3h-.78l-.326 1.935-.39-1.935h-.828l-.429 1.935-.287-1.935H9.24z"/></svg>