<svg xmlns="http://www.w3.org/2000/svg" viewBox="0 0 24 24"><path d="M11 4.099v-.052a1.017 1.017 0 0 0-1.043-.968l-.034.002c-.833.062-1.534.114-2.144.199-.888.123-1.332.185-1.529.772s.187.97.953 1.737l.551.551c1.303 1.303 1.954 1.954 2.519 1.794a1 1 0 0 0 .214-.09C11 7.76 11 6.839 11 4.997zM5.789 7.203c-.767-.766-1.15-1.15-1.737-.953s-.649.641-.772 1.529c-.085.61-.137 1.31-.199 2.144C3.031 10.6 3 11.3 3 12s.03 1.399.081 2.077c.195 2.616.292 3.924 1.605 5.237s2.62 1.41 5.237 1.605C10.6 20.969 11.3 21 12 21s1.399-.03 2.077-.081c2.616-.195 3.924-.292 5.237-1.605s1.41-2.62 1.605-5.237l.002-.034A1.02 1.02 0 0 0 19.953 13H12a1 1 0 0 1-.707-.293z"/><path d="M19.901 11h.052a1.017 1.017 0 0 0 .966-1.077c-.195-2.616-.292-3.924-1.605-5.237s-2.62-1.41-5.237-1.605l-.034-.002A1.017 1.017 0 0 0 13 4.047V9c0 .943 0 1.414.293 1.707S14.057 11 15 11z"/></svg>