<svg xmlns="http://www.w3.org/2000/svg" viewBox="0 0 44 44"><path fill-rule="evenodd" d="M14.705 6.899A31 31 0 0 1 22.001 6c2.772 0 5.274.405 7.295.9 3.333.814 6.157 3.473 7.258 6.722l.018.055C37.33 15.992 38 18.912 38 21.999 38 29.11 30.5 31 30.5 31l-.045.157c-.888 3.11-1.332 4.664-2.604 5.665-1.271 1-2.644 1.056-5.388 1.168a11 11 0 0 1-.926 0c-2.744-.112-4.117-.168-5.388-1.169-1.272-1-1.716-2.554-2.604-5.663L13.5 31S6 29.11 6 21.999c0-3.087.67-6.006 1.428-8.321l.018-.054c1.1-3.25 3.926-5.91 7.26-6.725m.528 10.707c-2.745 0-2.836 3.416-1.842 5.417 1.255 2.527 7.052 1.9 7.223 0 .095-1.051-.041-1.243-1.05-2.49-1.167-1.447-3.381-2.927-4.331-2.927m15.376 5.417c.994-2 .903-5.417-1.842-5.417-.95 0-3.164 1.48-4.332 2.926-1.008 1.248-1.143 1.44-1.049 2.491.171 1.9 5.968 2.527 7.223 0m-10.67 7.538a1.5 1.5 0 0 0 2.061.057 1.5 1.5 0 0 0 2.06-2.179l-.929-.929a1.6 1.6 0 0 0-2.262 0l-.93.93a1.5 1.5 0 0 0 0 2.12"/></svg>