<svg xmlns="http://www.w3.org/2000/svg" viewBox="0 0 16 16"><path d="m14.305 4.651.193.144c.664.494.664 1.416 0 1.91l-.193.144a15.2 15.2 0 0 1-5.427 2.544 3.7 3.7 0 0 1-1.764 0 15.4 15.4 0 0 1-4.618-1.984V9.25a.75.75 0 1 1-1.5 0L1 5.843a1.18 1.18 0 0 1 .494-1.048l.193-.144a15.2 15.2 0 0 1 5.427-2.544 3.7 3.7 0 0 1 1.764 0 15.2 15.2 0 0 1 5.427 2.544M4.067 9.942c.863.374 1.762.677 2.686.907a5.2 5.2 0 0 0 2.486 0c.924-.23 1.822-.533 2.685-.907l-.01.16c-.09 1.368-.135 2.052-1.06 2.946-.923.894-1.467.912-2.555.947a9 9 0 0 1-.606 0c-1.088-.035-1.632-.053-2.556-.947s-.97-1.578-1.06-2.945z"/></svg>