<svg xmlns="http://www.w3.org/2000/svg" viewBox="0 0 32 32"><path fill-rule="evenodd" d="M5.5 14.264q1.208.831 2.5 1.532V16c0 1.586.05 3 .126 4.24.167 2.712.251 4.068 2.118 5.868s2.993 1.829 5.245 1.886a21 21 0 0 0 1.022 0c2.252-.057 3.379-.086 5.245-1.886s1.95-3.156 2.118-5.869C23.951 19 24 17.586 24 16v-.204a27.3 27.3 0 0 0 3.716-2.421l.36-.278a2.306 2.306 0 0 0 0-3.694l-.36-.278a27.8 27.8 0 0 0-10.078-4.917 6.56 6.56 0 0 0-3.276 0A27.8 27.8 0 0 0 4.284 9.125l-.36.278a2.32 2.32 0 0 0-.922 1.93H3v7.417a1.25 1.25 0 1 0 2.5 0zm20.686-3.162a25.3 25.3 0 0 0-9.173-4.474 4.06 4.06 0 0 0-2.026 0 25.3 25.3 0 0 0-9.173 4.474l-.19.148.19.148a25.3 25.3 0 0 0 9.173 4.474c.662.17 1.364.17 2.026 0a25.3 25.3 0 0 0 9.173-4.474l.19-.148zm-15.399 8.973a64 64 0 0 1-.113-3.01q1.793.738 3.688 1.227a6.56 6.56 0 0 0 3.276 0 28 28 0 0 0 3.688-1.227 64 64 0 0 1-.113 3.01c-.09 1.452-.147 2.123-.311 2.664-.119.389-.324.801-.997 1.45-.733.707-1.125.88-1.394.962-.387.116-.847.146-2.068.177a18 18 0 0 1-.886 0c-1.221-.031-1.68-.061-2.068-.177-.27-.081-.66-.255-1.394-.962-.673-.649-.878-1.061-.997-1.45-.165-.541-.221-1.212-.31-2.664"/></svg>