<svg xmlns="http://www.w3.org/2000/svg" viewBox="0 0 44 44"><path fill-rule="evenodd" d="M5.777 12.716C4.826 13.413 4 14.224 4 15.5l.004 10a1.5 1.5 0 0 0 3 0v-6.354a38 38 0 0 0 4.001 2.352 100 100 0 0 0 .19 5.813c.238 3.743.357 5.615 2.915 8.083s4.088 2.51 7.147 2.596a27 27 0 0 0 1.494 0c3.06-.085 4.589-.128 7.147-2.596s2.677-4.34 2.914-8.083c.108-1.7.181-3.64.19-5.817a38 38 0 0 0 5.22-3.21C39.175 17.587 40 16.776 40 15.5s-.826-2.087-1.777-2.784c-4.096-3.001-8.85-5.197-13.955-6.444a9.6 9.6 0 0 0-4.536 0c-5.104 1.247-9.86 3.443-13.955 6.444M14.19 27.12a94 94 0 0 1-.17-4.242 41 41 0 0 0 5.712 1.849 9.6 9.6 0 0 0 4.536 0c1.964-.48 3.876-1.1 5.72-1.853a93 93 0 0 1-.17 4.247c-.125 1.978-.207 2.995-.462 3.834-.204.67-.558 1.33-1.541 2.28-1.058 1.02-1.681 1.33-2.175 1.48-.623.189-1.337.23-2.972.275a24 24 0 0 1-1.328 0c-1.635-.045-2.349-.086-2.972-.276-.494-.15-1.117-.459-2.175-1.48-.984-.949-1.337-1.61-1.54-2.279-.257-.84-.338-1.856-.463-3.835m9.366-5.307c4.735-1.157 9.127-3.19 12.893-5.95.536-.392.536-.336 0-.728-3.766-2.76-8.158-4.793-12.893-5.95a6.6 6.6 0 0 0-3.112 0c-4.735 1.157-9.127 3.19-12.893 5.95-.536.392-.536.336 0 .728 3.766 2.76 8.158 4.793 12.893 5.95a6.6 6.6 0 0 0 3.112 0"/></svg>