<svg xmlns="http://www.w3.org/2000/svg" viewBox="0 0 24 24"><path fill-rule="evenodd" d="M4.002 10.838a21 21 0 0 0 2.008 1.196c.017 1.165.063 2.204.124 3.116.137 2.053.206 3.08 1.587 4.418s2.187 1.367 3.8 1.423a14 14 0 0 0 .962 0c1.612-.056 2.418-.085 3.8-1.423 1.38-1.338 1.45-2.365 1.587-4.418.06-.912.107-1.951.124-3.116a21 21 0 0 0 3.02-1.922l.277-.211a1.736 1.736 0 0 0 0-2.802l-.276-.21a21.5 21.5 0 0 0-7.753-3.732 5.1 5.1 0 0 0-2.52 0A21.5 21.5 0 0 0 2.99 6.888l-.276.211A1.76 1.76 0 0 0 2.002 8.5V14a1 1 0 1 0 2 0zM19.8 8.478l.029.022-.03.022a19.5 19.5 0 0 1-7.032 3.382 3.1 3.1 0 0 1-1.532 0 19.5 19.5 0 0 1-7.033-3.382L4.174 8.5l.03-.022a19.5 19.5 0 0 1 7.032-3.382 3.1 3.1 0 0 1 1.532 0 19.5 19.5 0 0 1 7.033 3.382M8.13 15.016a56 56 0 0 1-.099-2.054q1.32.526 2.711.88c.825.21 1.695.21 2.52 0 .926-.235 1.832-.53 2.71-.88a56 56 0 0 1-.098 2.054c-.073 1.098-.119 1.614-.245 2.03-.091.3-.246.61-.738 1.086-.55.533-.837.662-1.023.72-.266.085-.58.11-1.455.14a12 12 0 0 1-.822 0c-.875-.03-1.189-.055-1.455-.14-.186-.058-.473-.187-1.023-.72-.492-.477-.647-.785-.738-1.087-.127-.415-.172-.931-.245-2.029"/></svg>