<svg xmlns="http://www.w3.org/2000/svg" viewBox="0 0 16 16"><path fill-rule="evenodd" d="M2.5 7.41q.726.466 1.507.85c.011.682.039 1.296.075 1.842.09 1.368.135 2.052 1.059 2.946s1.468.912 2.556.947a9 9 0 0 0 .606 0c1.088-.035 1.632-.053 2.556-.947s.97-1.578 1.06-2.945c.035-.547.063-1.16.074-1.843a15 15 0 0 0 2.317-1.41l.193-.144c.664-.494.664-1.416 0-1.91l-.193-.144a15.2 15.2 0 0 0-5.427-2.544 3.7 3.7 0 0 0-1.764 0 15.2 15.2 0 0 0-5.427 2.544l-.193.144A1.19 1.19 0 0 0 1 5.75v3.5a.75.75 0 0 0 1.5 0zm10.771-1.66a13.8 13.8 0 0 1-4.75 2.187c-.34.084-.702.084-1.042 0A13.8 13.8 0 0 1 2.73 5.75a13.8 13.8 0 0 1 4.75-2.187c.34-.084.702-.084 1.042 0a13.8 13.8 0 0 1 4.75 2.187m-7.693 4.254a35 35 0 0 1-.054-1.098q.78.285 1.594.487a3.7 3.7 0 0 0 1.764 0 16 16 0 0 0 1.594-.487q-.02.592-.054 1.098c-.049.737-.078 1.059-.155 1.312-.052.168-.138.35-.45.654-.356.343-.526.412-.62.441-.157.049-.347.065-.943.085a8 8 0 0 1-.508 0c-.596-.02-.786-.036-.943-.085-.094-.029-.264-.098-.62-.441-.312-.303-.398-.486-.45-.654-.077-.254-.106-.575-.155-1.312"/></svg>