<svg xmlns="http://www.w3.org/2000/svg" viewBox="0 0 24 24"><path fill-rule="evenodd" d="M4 12c0 1.55.068 2.903.168 4.056.175 2.024.263 3.036 1.557 4.325s2.264 1.37 4.205 1.532a25 25 0 0 0 4.14 0c1.94-.161 2.911-.242 4.205-1.532 1.294-1.289 1.382-2.301 1.557-4.325.1-1.153.168-2.506.168-4.056s-.067-2.901-.168-4.054c-.175-2.025-.263-3.038-1.557-4.327s-2.265-1.37-4.206-1.532a25 25 0 0 0-4.137 0c-1.942.162-2.913.242-4.207 1.532S4.343 5.92 4.168 7.946A47 47 0 0 0 4 12m4.638-5c0-.552.43-1 .96-1h4.804c.53 0 .96.448.96 1s-.43 1-.96 1H9.598c-.53 0-.96-.448-.96-1m.953 5.9a1.4 1.4 0 1 0 0-2.8 1.4 1.4 0 0 0 0 2.8"/></svg>