<svg xmlns="http://www.w3.org/2000/svg" viewBox="0 0 24 24"><path d="m18.973 9.5-.002-.052a5.997 5.997 0 0 0-11.89-.438l-.13-.002C4.217 9.008 2 11.162 2 13.82c0 1.772.986 3.32 2.454 4.156q.294.194.595.328a1 1 0 1 0 .819-1.823 3.8 3.8 0 0 1-.965-.637A2.74 2.74 0 0 1 4 13.819c0-1.499 1.267-2.81 2.95-2.81h.081l1.738.044.285-1.715a4.002 4.002 0 0 1 7.92.197c.062.538.458.965.999.965a1 1 0 0 0 1-1M12 17a1 1 0 1 0 0-2 1 1 0 0 0 0 2"/><path fill-rule="evenodd" d="M11 12a3 3 0 0 0-3 3v2a3 3 0 0 0 3 3h8a3 3 0 0 0 3-3v-2a3 3 0 0 0-3-3zm8 2h-8a1 1 0 0 0-1 1v2a1 1 0 0 0 1 1h8a1 1 0 0 0 1-1v-2a1 1 0 0 0-1-1"/></svg>