<svg xmlns="http://www.w3.org/2000/svg" viewBox="0 0 16 16"><path d="M12.355 6.25a1 1 0 0 0-.008-.106 3.998 3.998 0 0 0-7.85.2A4 4 0 0 0 4.3 6.34C2.478 6.339 1 7.775 1 9.546c0 1.465 1.01 2.7 2.39 3.084.228.075.47.124.743.162a.75.75 0 1 0 .175-1.49 3 3 0 0 1-.808-.226c-.609-.286-1-.88-1-1.53 0-.902.765-1.707 1.8-1.707q.057 0 .111.003l1.347.077.219-1.33a2.501 2.501 0 0 1 4.892-.198.75.75 0 0 0 1.486-.14M9 11.75a.75.75 0 1 0 0-1.5.75.75 0 0 0 0 1.5"/><path fill-rule="evenodd" d="M8 8a2 2 0 0 0-2 2v2a2 2 0 0 0 2 2h5a2 2 0 0 0 2-2v-2a2 2 0 0 0-2-2zm5 1.5H8a.5.5 0 0 0-.5.5v2a.5.5 0 0 0 .5.5h5a.5.5 0 0 0 .5-.5v-2a.5.5 0 0 0-.5-.5"/></svg>