<svg xmlns="http://www.w3.org/2000/svg" viewBox="0 0 24 24"><path fill-rule="evenodd" d="M4.686 4.686c-1.313 1.313-1.41 2.62-1.605 5.237C3.031 10.6 3 11.3 3 12s.03 1.399.081 2.077c.195 2.616.292 3.924 1.605 5.237s2.62 1.41 5.237 1.605C10.6 20.969 11.3 21 12 21s1.399-.03 2.077-.081c2.616-.195 3.924-.292 5.237-1.605s1.41-2.62 1.605-5.237C20.969 13.4 21 12.7 21 12s-.03-1.399-.081-2.077c-.195-2.616-.292-3.924-1.605-5.237s-2.62-1.41-5.237-1.605A28 28 0 0 0 12 3c-.7 0-1.399.03-2.077.081-2.616.195-3.924.292-5.237 1.605M10.75 9a1.75 1.75 0 1 0-3.5 0 1.75 1.75 0 0 0 3.5 0m7.978 7h-1.362c-.102-.22-.259-.486-.456-.824l-.684-1.174c.699-.005 1.068-.04 1.218-.303.175-.304-.061-.71-.534-1.52l-.862-1.477c-.466-.799-.699-1.198-1.047-1.198s-.582.4-1.048 1.198l-.862 1.478c-.472.81-.709 1.215-.534 1.519.15.262.52.299 1.219.303l-.685 1.174c-.197.338-.353.605-.455.824H5.27c.147 1.038.354 1.425.829 1.9.706.706 1.22.82 3.97 1.024A26 26 0 0 0 12 19c.642 0 1.291-.028 1.928-.076 2.75-.204 3.265-.318 3.971-1.024.475-.475.682-.862.829-1.9"/></svg>