<svg xmlns="http://www.w3.org/2000/svg" viewBox="0 0 24 24"><path d="M10.993 13.592c-.09.58-.893 1.017-1.413.768-.05-.024.016.025.035.04l-.01-.008c-.735-.507-1.623-1.223-2.75-2.132-1.738-1.403-2.608-2.104-2.798-3.002a2.6 2.6 0 0 1 0-1.084c.19-.899 1.06-1.6 2.798-3.002.69-.557 2.24-1.868 2.725-2.1.52-.25 1.324.188 1.413.767.055.357-.079.722-.357.954-.824.686-1.706 1.312-2.541 1.986a74 74 0 0 0-1.119.914c1.702 0 3.409-.047 5.107.083 2.618.199 3.927.298 5.24 1.642 1.315 1.344 1.412 2.683 1.607 5.361.13 1.778.066 3.553-.082 5.327a.97.97 0 0 1-.967.894c-.604 0-1.073-.547-1.021-1.163.138-1.634.193-3.268.074-4.906-.205-2.815-.319-3.342-1.025-4.065-.707-.723-1.222-.84-3.974-1.049-1.649-.125-3.306-.077-4.958-.077.296.249.661.544 1.118.912.835.674 1.717 1.3 2.541 1.987.278.231.413.593.357.953"/></svg>