<svg xmlns="http://www.w3.org/2000/svg" viewBox="0 0 16 16"><path fill-rule="evenodd" d="M3.045 9.896a39 39 0 0 1 .091-5.112c.117-1.3.176-1.951.972-2.751s1.388-.857 2.572-.97a14 14 0 0 1 2.64 0c1.184.113 1.776.17 2.572.97s.855 1.45.972 2.751C12.944 5.67 13 6.741 13 8q-.002 1.032-.045 1.896C12.817 12.694 10.8 15 8 15s-4.817-2.306-4.955-5.104M9 10a1 1 0 1 1-2 0 1 1 0 0 1 2 0m1 0a2 2 0 1 1-4 0 2 2 0 0 1 4 0M5.5 6.5a.75.75 0 0 1 .75-.75h.5a.75.75 0 0 1 0 1.5h-.5a.75.75 0 0 1-.75-.75m.75-2.75a.75.75 0 0 0 0 1.5h.5a.75.75 0 0 0 0-1.5zM8.5 6.5a.75.75 0 0 1 .75-.75h.5a.75.75 0 0 1 0 1.5h-.5a.75.75 0 0 1-.75-.75m.75-2.75a.75.75 0 0 0 0 1.5h.5a.75.75 0 0 0 0-1.5z"/></svg>