<svg xmlns="http://www.w3.org/2000/svg" viewBox="0 0 24 24"><path d="M6.764 20.774a54 54 0 0 0 3.736.21 1.002 1.002 0 1 0-.047-2.003 51 51 0 0 1-3.502-.199c-.697-.065-.965-.098-1.158-.154-.087-.025-.157-.05-.314-.198-.19-.18-.213-.249-.22-.27l-.001-.003a1.6 1.6 0 0 1-.063-.246 13 13 0 0 1-.097-.604 9 9 0 0 1-.069-2.04c.07-.906.109-1.32.189-1.619a.66.66 0 0 1 .231-.381c.075-.07.157-.138.498-.191.441-.07 1.045-.076 2.145-.076H12.5a1 1 0 1 0 0-2H8.092c-1.1 0-1.704-.006-2.145-.076-.341-.053-.423-.121-.498-.19a.66.66 0 0 1-.231-.382c-.08-.298-.12-.713-.189-1.62a9 9 0 0 1 .069-2.04c.04-.273.067-.452.097-.603.028-.142.05-.211.063-.246v-.004c.008-.02.031-.088.221-.269.157-.149.227-.173.314-.198.193-.056.46-.089 1.159-.154A54 54 0 0 1 12 5c2.12 0 3.804.1 5.048.217.698.066.966.099 1.159.155.087.025.157.05.314.198.19.18.213.249.22.27l.002.003c.013.035.035.104.062.246.03.152.057.33.097.605a9 9 0 0 1 .069 2.037 30 30 0 0 1-.094 1.07q-.02.096-.02.199a1.003 1.003 0 0 0 1.99.157c.05-.366.08-.784.118-1.274Q21 8.445 21 8c0-.57-.047-1.108-.119-1.598-.154-1.046-.231-1.569-.983-2.283-.752-.713-1.39-.773-2.663-.893A56 56 0 0 0 12 3c-2.183 0-3.93.104-5.236.226-1.273.12-1.91.18-2.661.893s-.83 1.236-.984 2.282a11 11 0 0 0-.084 2.483c.117 1.539.18 2.372.856 3.116-.675.744-.739 1.577-.856 3.116Q3 15.555 3 16c0 .57.047 1.109.12 1.6.154 1.045.23 1.567.983 2.28.752.714 1.388.774 2.661.894"/><path d="M9.25 8a1.25 1.25 0 1 1-2.5 0 1.25 1.25 0 0 1 2.5 0M8 17.25a1.25 1.25 0 1 0 0-2.5 1.25 1.25 0 0 0 0 2.5"/><path fill-rule="evenodd" d="M13.047 20.04c-.067.867-.101 1.3.176 1.617l.042.044c.297.299.756.299 1.673.299h5.123c.918 0 1.377 0 1.674-.299l.042-.044c.277-.316.243-.75.176-1.617l-.041-.491c-.12-1.354-.18-2.031-.866-2.941a3 3 0 0 0-.167-.194A3.503 3.503 0 0 0 17.5 12a3.5 3.5 0 0 0-3.38 4.415 3 3 0 0 0-.166.193c-.685.91-.745 1.587-.866 2.941q-.022.245-.04.49m5.901-4.147-.014.053c-.117.37-.37.589-.558.753-.134.117-.236.206-.236.302 0 .113.126.156.318.221.278.095.694.236 1.07.704h.003a1.4 1.4 0 0 1 .222.482c.067.262.102.59.167 1.318l.023.274h-4.886l.023-.274c.065-.727.1-1.056.167-1.318.039-.151.09-.288.222-.482h.004c.375-.468.791-.61 1.069-.703.192-.066.318-.109.318-.222 0-.096-.102-.185-.236-.302-.189-.165-.441-.384-.559-.755l-.014-.05A1.5 1.5 0 0 1 16 15.5a1.5 1.5 0 1 1 2.948.393"/></svg>