<svg xmlns="http://www.w3.org/2000/svg" viewBox="0 0 24 24"><path fill-rule="evenodd" d="M3.103 8.137q-.06.298-.105.629a3 3 0 0 0-.956 1.736C2 10.75 2 11.045 2 11.636v.61c0 2.43 0 3.645.812 4.51.427.456.946.692 1.675.835l-.415 1.038a1 1 0 0 0 1.857.743l.624-1.562c1.814.12 3.63.19 5.447.19s3.634-.07 5.448-.19l.624 1.562a1 1 0 1 0 1.857-.743l-.415-1.038c.728-.143 1.247-.379 1.674-.835.812-.865.812-2.08.812-4.51v-.61c0-.591 0-.887-.041-1.134a3 3 0 0 0-.957-1.736 9 9 0 0 0-.105-.63c-.198-.956-.55-1.689-1.294-2.436-1.318-1.321-2.648-1.418-5.308-1.612A32 32 0 0 0 12 4c-.774 0-1.548.034-2.295.088-2.66.194-3.99.29-5.308 1.612-.744.747-1.096 1.48-1.294 2.437m2.036.086A3 3 0 0 1 7 11v1h10v-1.001c0-1.256.77-2.327 1.86-2.775-.138-.488-.34-.775-.675-1.112-.707-.709-1.234-.825-4.036-1.03A30 30 0 0 0 12 6c-.718 0-1.443.031-2.15.083-2.802.204-3.33.32-4.036 1.029-.336.337-.537.624-.675 1.111"/></svg>