<svg xmlns="http://www.w3.org/2000/svg" viewBox="0 0 16 16"><path fill-rule="evenodd" d="M13.956 5.35c.521.331.896.87 1.01 1.504.035.197.035.432.035.904V8.1c0 1.65 0 2.476-.541 3.053-.317.337-.716.495-1.306.588l.292.73a.75.75 0 0 1-1.392.556l-.46-1.147-.02.002A56 56 0 0 1 8 12a55 55 0 0 1-3.574-.118l-.02-.001-.46 1.147a.75.75 0 0 1-1.392-.556l.292-.73c-.59-.094-.989-.251-1.305-.589C1 10.576 1 9.751 1 8.101v-.344c0-.47 0-.707.035-.903a2.25 2.25 0 0 1 1.01-1.504c.13-.997.354-1.65.978-2.262.886-.87 1.822-.93 3.694-1.046C7.137 2.016 7.569 2 8 2s.863.016 1.283.042c1.872.117 2.808.175 3.694 1.046.624.612.847 1.265.979 2.262M4.666 9A.667.667 0 0 1 4 8.333V7.25a.75.75 0 0 0-1.488-.132 1 1 0 0 0-.008.13c-.004.115-.004.265-.004.51V8.1c0 .868.003 1.364.053 1.722.041.294.07.345.359.406.327.07.785.103 1.61.157 1.01.065 2.194.114 3.478.114s2.469-.049 3.478-.114c.825-.054 1.284-.087 1.61-.157.289-.061.319-.112.36-.406.04-.289.05-.668.052-1.26V7.43a8 8 0 0 0-.01-.301.74.74 0 0 0-.402-.549.75.75 0 0 0-.521-.057.75.75 0 0 0-.567.727v1.083a.667.667 0 0 1-.667.667zM5.5 7.25a2.25 2.25 0 0 0-1.88-2.22c.099-.454.229-.651.453-.872.42-.41.736-.494 2.737-.619.394-.025.794-.039 1.19-.039s.796.014 1.19.039c2.001.125 2.318.208 2.737.62.224.22.354.417.453.871a2.25 2.25 0 0 0-1.88 2.22v.25h-5z"/></svg>