<svg xmlns="http://www.w3.org/2000/svg" viewBox="0 0 24 24"><path d="M4 11.98c0 1.053.016 2.062.042 3.01.071 2.627.107 3.941.8 5.075 1.018 1.666 2.601 2.582 4.29 1.401 1.387-.968 2.08-1.452 2.868-1.452s1.481.484 2.867 1.452c1.708 1.193 3.315.196 4.29-1.4.694-1.135.73-2.448.802-5.076.025-.948.041-1.957.041-3.01a47 47 0 0 0-.168-4.046c-.175-2.021-.263-3.032-1.557-4.319s-2.265-1.367-4.206-1.528a25 25 0 0 0-4.137 0c-1.942.161-2.913.242-4.207 1.528s-1.382 2.299-1.557 4.32c-.1 1.15-.168 2.5-.168 4.045"/></svg>