<svg xmlns="http://www.w3.org/2000/svg" viewBox="0 0 16 16"><path fill-rule="evenodd" d="M2.519 9.633A77 77 0 0 1 2.5 7.939c0-1.073.046-2.01.115-2.808.119-1.39.179-2.084 1.001-2.974.823-.89 1.46-.953 2.737-1.076a17 17 0 0 1 3.294 0c1.276.123 1.914.185 2.736 1.076.823.89.882 1.585 1.002 2.974.068.798.114 1.735.114 2.808q0 .88-.018 1.694c-.05 2.227-.074 3.34-.712 4.24-.705.994-1.85 1.528-2.872.707-.914-.735-1.372-1.102-1.897-1.102-.526 0-.983.367-1.898 1.102-1.022.822-2.116.358-2.871-.707-.639-.9-.663-2.013-.712-4.24M4 7.939q0 .864.018 1.66c.026 1.149.044 1.883.122 2.448.071.52.179.768.314.958.257.362.468.47.537.49l.02.005h.003s.05-.01.149-.089l.054-.043c.41-.33.814-.655 1.185-.887.42-.262.946-.503 1.598-.503s1.177.241 1.597.503c.372.232.776.557 1.186.887l.054.043a.5.5 0 0 0 .092.06.1.1 0 0 0 .034.012h.005a.2.2 0 0 0 .04-.009c.102-.031.317-.157.537-.469.136-.19.243-.438.315-.959.077-.564.096-1.298.121-2.446q.018-.797.018-1.661c0-1.03-.044-1.924-.109-2.68-.064-.74-.1-1.098-.183-1.385-.061-.211-.155-.406-.426-.7-.273-.295-.433-.374-.575-.421-.225-.076-.513-.112-1.204-.18a15.6 15.6 0 0 0-3.005 0c-.69.068-.979.104-1.203.18-.142.047-.303.126-.576.422-.27.293-.364.488-.425.699-.083.287-.12.644-.184 1.385A31 31 0 0 0 4 7.94"/></svg>