<svg xmlns="http://www.w3.org/2000/svg" viewBox="0 0 16 16"><path d="M2.519 9.633A77 77 0 0 1 2.5 7.939c0-1.073.046-2.01.115-2.808.119-1.39.179-2.084 1.001-2.974.823-.89 1.46-.953 2.737-1.076a17 17 0 0 1 3.294 0c1.276.123 1.914.185 2.736 1.076.823.89.882 1.585 1.002 2.974.068.798.114 1.735.114 2.808q0 .88-.018 1.694c-.05 2.227-.074 3.34-.712 4.24-.705.994-1.85 1.528-2.872.707-.914-.735-1.372-1.102-1.897-1.102-.526 0-.983.367-1.898 1.102-1.022.822-2.116.358-2.871-.707-.639-.9-.663-2.013-.712-4.24"/></svg>