<svg xmlns="http://www.w3.org/2000/svg" viewBox="0 0 32 32"><path fill-rule="evenodd" d="M9.622 25.776c.327.409.67.612.933.686.225.063.494.065.854-.127l.084-.046.013-.008h.001l.097-.07.087-.064c.628-.46 1.258-.922 1.839-1.252.662-.377 1.475-.714 2.47-.714s1.808.337 2.47.714c.58.33 1.21.792 1.839 1.252l.086.064.097.07h.002l.013.008.084.046c.322.172.594.181.85.11.286-.078.632-.288.937-.67.593-.744.735-1.504.968-5.117a73 73 0 0 0 .154-4.69 61 61 0 0 0-.197-4.999c-.116-1.41-.186-2.112-.358-2.68-.131-.432-.342-.842-.937-1.44-.614-.618-1.007-.817-1.38-.935-.506-.159-1.125-.221-2.45-.326a27.5 27.5 0 0 0-4.356 0c-1.325.105-1.944.167-2.45.326-.373.118-.767.317-1.38.934-.595.599-.806 1.009-.937 1.44-.172.569-.242 1.27-.358 2.682a61 61 0 0 0-.197 4.998c0 1.664.06 3.242.154 4.69.233 3.613.375 4.373.968 5.118M6 15.968c0 1.724.062 3.356.159 4.852.216 3.352.325 5.028 1.508 6.513 1.196 1.502 3.072 2.193 4.919 1.208.248-.133.33-.193.495-.313 1.408-1.031 2.112-1.547 2.919-1.547s1.51.516 2.919 1.547c.164.12.247.18.495.313 1.803.962 3.733.28 4.919-1.208 1.183-1.485 1.292-3.161 1.508-6.513.097-1.496.159-3.128.159-4.852 0-1.986-.082-3.722-.205-5.205-.22-2.656-.33-3.984-2.014-5.678-1.685-1.694-2.925-1.792-5.404-1.99a30 30 0 0 0-4.754 0c-2.48.198-3.719.296-5.404 1.99-1.684 1.694-1.794 3.022-2.014 5.679A63 63 0 0 0 6 15.968"/></svg>