<svg xmlns="http://www.w3.org/2000/svg" viewBox="0 0 16 16"><path fill-rule="evenodd" d="M8.922.52a.75.75 0 0 1 .558.902l-.49 2.074h.76a.75.75 0 0 1 .741.865l-.333 2.144q.173-.005.342-.005c.895 0 1.888.105 2.718.524.88.443 1.534 1.221 1.71 2.42.06.4.072.954.072 1.306v1.833c0 .783-.634 1.417-1.417 1.417H5.292c-1.027 0-1.9-.748-2.059-1.763L2.01 4.361a.75.75 0 0 1 .741-.865h4.698l.572-2.42A.75.75 0 0 1 8.922.52M6 12.5v-1.75c0-.352.013-.905.072-1.306.176-1.199.83-1.977 1.71-2.42.261-.132.54-.233.825-.31l.267-1.718H3.626l1.09 7.01a.58.58 0 0 0 .576.494zm1.5 0v-1h6v1zm.022-2.5c.009-.125.02-.241.034-.337.101-.69.435-1.064.902-1.3C8.974 8.103 9.685 8 10.5 8s1.526.102 2.042.363c.467.236.8.61.902 1.3.014.096.025.212.034.337z"/></svg>