<svg xmlns="http://www.w3.org/2000/svg" viewBox="0 0 16 16"><path d="M9.48 1.423a.75.75 0 0 0-1.46-.345l-.572 2.418H2.75a.75.75 0 0 0-.741.865l1.224 7.876a2.08 2.08 0 0 0 2.059 1.764h.57a2.9 2.9 0 0 1-.366-1.418V10.75c0-.291.011-.755.089-1.2.279-1.6 1.342-2.566 2.467-3.045.721-.308 1.493-.434 2.18-.48l.26-1.663a.75.75 0 0 0-.742-.866h-.76z"/><path d="M14.996 10.5H7a5 5 0 0 1 .062-.693c.174-.994.814-1.597 1.578-1.922.724-.31 1.585-.385 2.358-.385s1.634.076 2.358.385c.764.325 1.404.928 1.578 1.922.039.225.056.473.062.693m-8 1.5H15v.583c0 .783-.634 1.417-1.417 1.417H8.411a1.415 1.415 0 0 1-1.415-1.417z"/></svg>