<svg xmlns="http://www.w3.org/2000/svg" viewBox="0 0 24 24"><path d="M13.97 2.243a1 1 0 1 0-1.94-.486L11.218 5H4c-.6 0-1.075.548-.99 1.142l1.754 12.282A3 3 0 0 0 7.734 21h.801A4 4 0 0 1 8 19v-3c0-.454.017-1.147.126-1.798.38-2.271 1.836-3.694 3.484-4.425.967-.429 2.004-.63 2.963-.716l.417-2.92a1.01 1.01 0 0 0-.99-1.14h-.72z"/><path d="M22 16a9.4 9.4 0 0 0-.099-1.467c-.25-1.495-1.174-2.419-2.322-2.928C18.49 11.122 17.185 11 16 11s-2.489.122-3.58.605c-1.147.509-2.07 1.433-2.321 2.928A9.4 9.4 0 0 0 10 16zm-12 2h12v1a2 2 0 0 1-1.999 2h-8.004C10.89 21 10 20.1 10 19z"/></svg>