<svg xmlns="http://www.w3.org/2000/svg" viewBox="0 0 24 24"><path fill-rule="evenodd" d="M13.97 2.243a1 1 0 1 0-1.94-.486L11.218 5H4c-.6 0-1.075.548-.99 1.141l1.755 12.283A3 3 0 0 0 7.735 21H20a2 2 0 0 0 2-2v-3c0-.524-.02-1.199-.104-1.774-.254-1.722-1.194-2.834-2.455-3.47C18.245 10.153 16.808 10 15.5 10q-.525-.002-1.067.038l.557-3.896A1.01 1.01 0 0 0 14 5h-.72zm-1.613 8.185L12.847 7H5.153l1.592 11.142a1 1 0 0 0 .99.858H9v-3c0-.524.02-1.199.104-1.774.254-1.722 1.194-2.834 2.455-3.47q.385-.194.798-.328M11.032 15a7 7 0 0 1 .05-.482c.154-1.043.664-1.617 1.377-1.976.778-.392 1.84-.542 3.041-.542s2.263.15 3.041.542c.713.36 1.223.933 1.376 1.976q.033.224.051.482zM11 17v2h9v-2z"/></svg>