<svg xmlns="http://www.w3.org/2000/svg" viewBox="0 0 16 16"><path fill-rule="evenodd" d="M10.5 9a2.5 2.5 0 1 1-5 0 2.5 2.5 0 0 1 5 0M9 9a1 1 0 1 1-2 0 1 1 0 0 1 2 0"/><path fill-rule="evenodd" d="M4.373 4.218c-.988.1-1.59.257-2.315.984-.864.866-.913 1.485-1.012 2.721v.004a14 14 0 0 0-.002 2.191c.1 1.24.15 1.86 1.014 2.726.865.867 1.554.924 2.933 1.038.843.07 1.847.118 3.008.118a37 37 0 0 0 3.008-.118c1.38-.114 2.07-.17 2.934-1.038.865-.867.915-1.487 1.014-2.727a14 14 0 0 0 0-2.188c-.1-1.24-.149-1.86-1.014-2.727-.724-.726-1.325-.884-2.31-.984-.055-.389-.198-.725-.567-1.176a4 4 0 0 0-.218-.238c-.686-.658-1.167-.696-2.13-.774A9 9 0 0 0 8 2c-.255 0-.512.013-.763.034-.868.073-1.302.11-1.95.653a4 4 0 0 0-.465.506c-.28.397-.399.695-.45 1.025m5.773.21.164 1.165 1.17.118c.462.046.69.096.856.16.137.054.3.146.543.39.3.301.38.473.427.619.07.221.1.498.154 1.168a12 12 0 0 1 0 1.95c-.054.67-.084.947-.154 1.168-.046.145-.127.318-.427.619-.28.281-.46.369-.646.425-.269.081-.61.116-1.35.177A35 35 0 0 1 8 12.5c-1.12 0-2.082-.046-2.884-.113-.74-.06-1.08-.096-1.35-.177-.185-.056-.364-.144-.645-.425-.3-.301-.38-.473-.426-.619-.07-.22-.1-.497-.155-1.167a12 12 0 0 1 0-1.952c.054-.67.084-.946.155-1.168.046-.145.126-.317.426-.618.244-.245.406-.336.543-.39.167-.065.396-.114.86-.16l1.156-.116.176-1.15a.5.5 0 0 1 .035-.122 1.5 1.5 0 0 1 .17-.278 3 3 0 0 1 .203-.218c.186-.155.272-.184.333-.202.127-.037.29-.056.767-.097Q7.688 3.501 8 3.5q.293 0 .596.025c.53.043.708.065.843.107.06.019.155.051.361.248l.01.011.088.095.01.011a1.5 1.5 0 0 1 .2.293.5.5 0 0 1 .038.138"/></svg>