<svg xmlns="http://www.w3.org/2000/svg" viewBox="0 0 44 44"><path fill-rule="evenodd" d="M28.866 15.248c-.06-.966-.136-1.86-.217-2.664-.111-1.103-.168-1.55-.266-1.883-.054-.181-.118-.34-.4-.64-.341-.365-.486-.423-.55-.45h-.005c-.19-.077-.45-.136-1.358-.289A24.5 24.5 0 0 0 22 9a24.5 24.5 0 0 0-4.071.322c-.906.153-1.168.212-1.357.288l-.004.002c-.065.026-.21.084-.55.448-.282.302-.347.46-.4.64-.1.334-.155.78-.267 1.883a70 70 0 0 0-.205 2.485l-.012.18-.043.003c-1.348.103-2.262.18-2.98.3a7 7 0 0 0-.907.207c-.693.21-1.345.558-2.252 1.474-.946.956-1.273 1.583-1.456 2.172-.23.74-.305 1.617-.423 3.407a33 33 0 0 0 0 4.378c.118 1.79.193 2.667.423 3.407.183.589.51 1.216 1.456 2.172.907.916 1.559 1.264 2.252 1.474.86.26 1.906.355 3.886.507 1.965.15 4.269.251 6.91.251s4.944-.101 6.908-.251c1.981-.152 3.027-.246 3.888-.507.694-.21 1.346-.558 2.252-1.474.946-.956 1.274-1.584 1.457-2.173.23-.74.304-1.618.422-3.409a33 33 0 0 0 0-4.372c-.118-1.79-.193-2.669-.422-3.41-.183-.588-.51-1.216-1.457-2.172-.906-.916-1.558-1.264-2.252-1.474a7 7 0 0 0-.907-.206c-.718-.121-1.633-.198-2.982-.3zm8.315-.126c-1.801-1.82-3.307-2.358-5.527-2.634l-.02-.204c-.204-2.026-.306-3.04-1.46-4.273s-1.97-1.371-3.604-1.647A27.5 27.5 0 0 0 22 6a27.5 27.5 0 0 0-4.57.364c-1.633.276-2.45.414-3.603 1.647s-1.256 2.246-1.46 4.271l-.02.206c-2.22.276-3.726.814-5.527 2.633-2.406 2.431-2.518 4.118-2.74 7.492a36 36 0 0 0 0 4.774c.222 3.374.334 5.06 2.74 7.492 2.406 2.43 4.285 2.574 8.042 2.86 2.04.157 4.42.261 7.138.261a94 94 0 0 0 7.136-.26c3.759-.287 5.639-.43 8.045-2.862s2.517-4.119 2.74-7.494a36 36 0 0 0 0-4.768c-.223-3.375-.334-5.063-2.74-7.494M26 24a4 4 0 1 1-8 0 4 4 0 0 1 8 0m3 0a7 7 0 1 1-14 0 7 7 0 0 1 14 0"/></svg>