<svg xmlns="http://www.w3.org/2000/svg" viewBox="0 0 28 28"><path d="M17 15.486a3 3 0 0 1-3 2.998 3 3 0 1 1 3-2.998"/><path fill-rule="evenodd" d="M24.125 8.927c-1.146-1.15-2.112-1.484-3.56-1.668-.068-1.012-.297-1.728-1.178-2.678-1.18-1.273-2.117-1.354-3.991-1.518A17 17 0 0 0 14 3c-.445 0-.893.021-1.331.058-1.882.156-2.822.234-3.998 1.448-.035.036-.121.13-.154.167-.798.912-1.024 1.618-1.088 2.587-1.445.184-2.41.519-3.555 1.667-1.508 1.511-1.6 2.622-1.783 4.843a26.5 26.5 0 0 0 0 4.363c.184 2.22.275 3.332 1.783 4.843s2.704 1.613 5.096 1.817c1.418.12 3.096.203 5.03.203 1.932 0 3.61-.082 5.027-.203 2.393-.203 3.59-.305 5.097-1.817s1.6-2.623 1.783-4.846a26.5 26.5 0 0 0 0-4.357c-.183-2.223-.274-3.334-1.783-4.846M19 15.486a5 5 0 0 1-5 4.998 5 5 0 1 1 5-4.998"/></svg>