<svg xmlns="http://www.w3.org/2000/svg" viewBox="0 0 24 24"><path fill-rule="evenodd" d="M3.168 21.54q-.366-.34-.707-.708l2.87-2.87a1.83 1.83 0 0 1-.94-.516L1.79 20.048a13 13 0 0 1-1.611-2.632l.709-.709-.05-.045C.5 16.324.5 15.78.5 14.692V8.307c0-1.087 0-1.63.338-1.968S1.72 6 2.806 6h5.887c1.087 0 1.631 0 1.969.338a.9.9 0 0 1 .223.372L17.416.179q.48.22.938.477L11 8.01v1.414l8.23-8.23q.42.282.818.596L11 10.838v1.456l9.832-9.833q.367.34.707.707l-4.843 4.844C17.008 8 17.366 8 17.785 8h.295l4.094-4.094q.315.396.6.816l-3.3 3.298c.476.027.843.091 1.174.24l2.667-2.666q.258.456.48.933l-2.343 2.344c.33.39.503.88.776 1.652.17.477.31.982.382 1.477h.14a.75.75 0 0 1 .128 1.49c.07.325.122.705.122 1.117V18a1 1 0 1 1-2 0v-.499h-6V18a1 1 0 1 1-2 0v-.677l-6.473 6.473q-.478-.223-.933-.481l4.549-4.549a.996.996 0 0 1-1.353-.061l-4.068 4.068q-.42-.285-.816-.6L8.5 17.582V17h-.792zM11 14.692v-.985l1.5-1.5v.542c0 .228.102.432.262.57L11 15.081zm-.5 2.302 2.502-2.501-.001.109v1.306l-2.734 2.734A1 1 0 0 0 10.5 18zm10.098-4.906A34 34 0 0 0 18.323 12l1.688-1.688c.026.057.059.133.1.236.066.17.136.368.233.641.116.327.2.63.254.9m-3.703-.074 2.012-2.012c-.19-.002-.416-.003-.693-.003h-.718l-2.09 2.09c.423-.032.918-.06 1.489-.075"/></svg>