<svg xmlns="http://www.w3.org/2000/svg" viewBox="0 0 32 32"><path fill-rule="evenodd" d="M23.723.852a17 17 0 0 0-1.46-.661l-8.524 8.523c-.45-.214-1.125-.214-2.237-.214H3.998c-1.413 0-2.12 0-2.558.44C1 9.377 1 10.084 1 11.497V19.5c0 .838 0 1.428.092 1.86l-.902.902a17 17 0 0 0 2.303 4.062l3.518-3.518c.34.394.808.676 1.34.782l-3.89 3.89q.506.554 1.06 1.06l6.04-6.04h.443v1.25q.001.195.056.373l-5.385 5.385q.605.463 1.25.871l5.38-5.38a1.25 1.25 0 0 0 1.198-1.198L17 20.303v2.121l-8.724 8.724q.711.364 1.46.661l7.433-7.433a1.25 1.25 0 0 0 2.33-.628V23H28v.748a1.25 1.25 0 0 0 2.5 0V19.28a6.3 6.3 0 0 0-.15-1.343A1 1 0 0 0 30 16h-.053a10.5 10.5 0 0 0-.523-1.824c-.226-.6-.402-1.066-.604-1.45l2.99-2.99a17 17 0 0 0-.661-1.46l-3.319 3.319-.012-.008c-.461-.32-.94-.465-1.57-.531l4.13-4.13a17 17 0 0 0-.87-1.25L24.18 11h-.979c-.43 0-.81 0-1.15.008L28.54 4.52a17 17 0 0 0-1.06-1.06L14.499 16.44v-2.122L26.325 2.493q-.605-.463-1.25-.87L14.5 12.195V11.5c0-.57 0-1.026-.029-1.395zM14.5 19.5v-.94l3.14-3.14a9 9 0 0 0-.127.579H17.5a1 1 0 0 0-.35 1.937l-.026.12-2.64 2.641c.015-.33.015-.724.015-1.197m8.923-3.5q-1.223.008-2.175.054l2.555-2.555h.454c.814 0 1.29.003 1.634.033zm2.096.025 1.4-1.4q.074.19.166.434c.144.38.255.738.333 1.063a44 44 0 0 0-1.899-.097"/></svg>