<svg xmlns="http://www.w3.org/2000/svg" viewBox="0 0 24 24"><path fill-rule="evenodd" d="M14.522.405A.965.965 0 0 0 13 1.194c0 .496.24.754.615 1.02.428.303.79.56 1.096.786H12c-.7 0-1.4.03-2.078.081-2.616.195-3.924.292-5.237 1.605-1.312 1.313-1.41 2.62-1.604 5.237C3.032 10.6 3 11.3 3 12s.031 1.4.082 2.077c.194 2.616.292 3.924 1.604 5.237s2.621 1.41 5.237 1.605c.678.05 1.378.081 2.078.081.699 0 1.399-.03 2.077-.081 2.616-.195 3.924-.292 5.236-1.605 1.313-1.313 1.43-2.62 1.625-5.237q.04-.532.061-1.077a.97.97 0 0 0-.98-1c-.552 0-.998.448-1.021 1q-.02.466-.054.929c-.205 2.75-.338 3.265-1.045 3.97-.706.707-1.22.82-3.97 1.025A26 26 0 0 1 12 19c-.642 0-1.291-.028-1.928-.076-2.75-.204-3.265-.318-3.971-1.024-.707-.706-.82-1.22-1.025-3.971A26 26 0 0 1 5 12c0-.642.029-1.292.076-1.929.205-2.75.318-3.265 1.025-3.97.706-.707 1.22-.82 3.97-1.025A26 26 0 0 1 12.002 5h2.711c-.306.226-.668.483-1.096.786-.376.266-.615.524-.615 1.02a.965.965 0 0 0 1.52.789l.006-.004C16.842 5.957 18 5.14 18 4S16.842 2.043 14.528.409zM9.108 9.48l-1.136.896v1.304l1.136-.928V15h1.336V9.48zm6.296 4.928q.576-.705.576-2.168 0-2.864-2.32-2.864-1.184 0-1.752.712-.567.712-.568 2.152 0 1.464.568 2.168.569.696 1.752.696 1.176 0 1.744-.696m-.848-3.152q.048.255.048.584v.792q0 .704-.2 1.056-.192.352-.744.352-.28 0-.464-.088a.8.8 0 0 1-.288-.264 1.3 1.3 0 0 1-.152-.44 4 4 0 0 1-.04-.616v-.792q0-.336.04-.6.048-.264.152-.44a.7.7 0 0 1 .288-.264 1 1 0 0 1 .464-.096q.271 0 .456.096a.7.7 0 0 1 .288.28q.113.176.152.44"/></svg>