<svg xmlns="http://www.w3.org/2000/svg" viewBox="0 0 16 16"><path d="M6.2 4h3.6a.7.7 0 0 1 .7.7v1.1a.7.7 0 0 1-.7.7H6.2a.7.7 0 0 1-.7-.7V4.7a.7.7 0 0 1 .7-.7M8 9.902a.9.9 0 1 0 0-1.8.9.9 0 0 0 0 1.8m.9 1.598a.9.9 0 1 1-1.8 0 .9.9 0 0 1 1.8 0M6 9.9a.9.9 0 1 0 0-1.8.9.9 0 0 0 0 1.8m.9 1.6a.9.9 0 1 1-1.8 0 .9.9 0 0 1 1.8 0M10 9.9a.9.9 0 1 0 0-1.8.9.9 0 0 0 0 1.8m.9 1.602a.9.9 0 1 1-1.8 0 .9.9 0 0 1 1.8 0"/><path fill-rule="evenodd" d="M2.65 11.212c.127 1.285.19 1.928.976 2.717s1.402.853 2.635.98C6.795 14.964 7.381 15 8 15c.62 0 1.205-.036 1.739-.09 1.233-.128 1.85-.191 2.635-.98.786-.79.85-1.433.976-2.718.088-.883.15-1.955.15-3.212s-.062-2.328-.15-3.212c-.127-1.285-.19-1.928-.976-2.717s-1.403-.853-2.636-.98A17 17 0 0 0 8 1c-.62 0-1.204.036-1.738.09-1.233.128-1.85.191-2.636.98-.786.79-.85 1.433-.976 2.718C2.562 5.672 2.5 6.743 2.5 8s.062 2.329.15 3.212m9.208-.147c-.069.69-.106 1.004-.182 1.248-.05.164-.124.316-.365.558-.248.249-.397.32-.545.368-.227.073-.516.11-1.181.178A16 16 0 0 1 8 13.5c-.563 0-1.096-.032-1.585-.083-.665-.068-.954-.105-1.18-.178-.149-.047-.298-.12-.546-.368-.24-.242-.315-.394-.365-.558-.076-.244-.113-.557-.182-1.248A31 31 0 0 1 4 8c0-1.207.06-2.23.142-3.064.069-.691.106-1.005.182-1.25.05-.163.124-.315.365-.557.248-.249.397-.321.546-.369.226-.072.516-.109 1.181-.177a15.3 15.3 0 0 1 3.168 0c.665.068.955.105 1.181.177.149.048.298.12.546.369.24.242.315.394.365.558.076.244.113.558.182 1.249C11.94 5.77 12 6.793 12 8s-.06 2.23-.142 3.065"/></svg>