<svg xmlns="http://www.w3.org/2000/svg" viewBox="0 0 24 24"><path fill-rule="evenodd" d="M11.175 7.46c-.095.447-.139 1.004-.159 1.685q-.438-.257-.941-.548l-1.197-.695C6.272 6.39 4.97 5.634 3.985 6.174S3 8.183 3 11.122v1.756c0 2.94 0 4.41.985 4.948.984.54 2.287-.216 4.893-1.728l1.197-.694q.503-.292.942-.55l.005.167c.026.721.083 1.295.208 1.741q.057.206.136.377c.143.31.342.536.619.688.984.539 2.287-.217 4.893-1.73h.002l1.143-.663.052-.03C20.683 13.89 22 13.125 22 12s-1.317-1.89-3.925-3.403l-.052-.03-1.143-.664h-.002l-.473-.275c-2.294-1.327-3.497-1.96-4.42-1.454l-.029.016c-.413.238-.647.648-.78 1.27m-1.173 5.67.998-.586v-1.088l-.998-.587-.931-.543-.052-.03-1.144-.663c-1.353-.785-2.18-1.26-2.786-1.504-.085.613-.09 1.517-.09 2.993v1.756c0 1.476.005 2.38.089 2.993.606-.245 1.433-.718 2.785-1.503h.002l1.143-.664.052-.03.931-.543m7.069-2.804c1.352.785 2.175 1.268 2.688 1.674q-.096.076-.207.156c-.52.375-1.298.831-2.481 1.518l-1.195.693h-.002c-1.352.786-2.179 1.26-2.785 1.504l-.016-.13c-.028-.25-.046-.558-.057-.944l-.001-.025C13 14.272 13 13.653 13 12.878v-1.756c0-.775.001-1.393.015-1.893v-.026a12 12 0 0 1 .074-1.074q.113.045.238.103c.583.265 1.364.713 2.547 1.4h.002z"/></svg>