<svg xmlns="http://www.w3.org/2000/svg" viewBox="0 0 16 16"><path fill-rule="evenodd" d="m6.426 10.344.59-.36c.038 1.045.17 1.633.63 1.896.645.372 1.505-.149 3.214-1.19l.532-.325.034-.02C13.136 9.301 14 8.774 14 8s-.864-1.302-2.574-2.344l-.034-.021-.532-.324C9.15 4.269 8.291 3.748 7.646 4.12c-.46.263-.592.851-.63 1.896l-.59-.36-.034-.021-.532-.324C4.15 4.269 3.291 3.748 2.646 4.12 2 4.49 2 5.503 2 7.528v.944c0 2.025 0 3.037.646 3.409.645.37 1.505-.15 3.214-1.192l.532-.324zM7 7.788a35 35 0 0 0-1.354-.851l-.034-.021-.533-.324c-.708-.432-1.186-.72-1.544-.901-.032.409-.035.982-.035 1.837v.944c0 .855.003 1.428.035 1.837.358-.18.836-.469 1.544-.9l.533-.325.034-.02A35 35 0 0 0 7 8.212zm3.611-.872.035.02c.812.496 1.32.81 1.648 1.064-.328.255-.836.568-1.648 1.063l-.035.021-.532.324c-.708.432-1.186.72-1.544.901C8.503 9.9 8.5 9.327 8.5 8.472v-.944c0-.855.003-1.428.035-1.837.358.18.836.469 1.544.9z"/></svg>