<svg xmlns="http://www.w3.org/2000/svg" viewBox="0 0 44 44"><path fill-rule="evenodd" d="M17.64 5.104c-.93.89-1.053 1.96-1.3 4.1-.495 4.317-1.174 11.244-1.314 17.796a112 112 0 0 0-.024 3h13.996a96 96 0 0 0 0-1.347q-.006-.821-.024-1.653c-.14-6.552-.817-13.477-1.312-17.795-.246-2.14-.369-3.211-1.299-4.101s-1.785-.951-3.495-1.072a12 12 0 0 0-1.734 0c-1.71.121-2.565.182-3.495 1.072M25.973 27c-.14-6.388-.802-13.175-1.293-17.453-.133-1.158-.202-1.694-.305-2.067a2 2 0 0 0-.064-.185l-.004-.005-.02-.02a1 1 0 0 0-.084-.072l-.051-.016a3.5 3.5 0 0 0-.474-.075c-.267-.029-.58-.051-1.023-.083a9 9 0 0 0-1.31 0 29 29 0 0 0-1.023.083 3.5 3.5 0 0 0-.473.076l-.052.015a1 1 0 0 0-.104.093l-.003.004-.017.037a2 2 0 0 0-.048.148c-.102.373-.172.909-.305 2.066-.491 4.278-1.155 11.066-1.295 17.454zm-6.17-19.805-.003.001zm-.008.004-.004.002zm4.403-.005.002.002zm.011.006h-.003z"/><path d="M38 40H6c.134-.58.384-1.057.874-1.559.97-.992 2.081-1.053 4.301-1.173 2.563-.14 6.185-.268 10.823-.268 4.64 0 8.263.129 10.826.268 2.221.12 3.332.18 4.302 1.173.49.502.74.979.874 1.56M9 35h26c-.082-.392-.238-.755-.53-1.183a4.7 4.7 0 0 0-.775-.815c-.877-.672-1.705-.715-3.36-.802-2.042-.106-4.831-.2-8.337-.2s-6.293.093-8.334.2c-1.656.087-2.483.13-3.36.802a4.7 4.7 0 0 0-.774.815c-.293.427-.449.79-.531 1.183"/></svg>