<svg xmlns="http://www.w3.org/2000/svg" viewBox="0 0 24 24"><path fill-rule="evenodd" d="M16 16q0-.99-.037-2c-.125-3.486-.534-7.015-.833-9.23-.153-1.13-.229-1.695-.728-2.167-.498-.472-.953-.509-1.864-.58a7 7 0 0 0-1.075 0c-.91.072-1.365.108-1.864.58-.499.471-.575 1.036-.728 2.166-.3 2.215-.709 5.744-.834 9.231A56 56 0 0 0 8 16zm-5.961-2h3.922c-.123-3.361-.519-6.783-.813-8.963-.04-.291-.069-.506-.1-.689a4 4 0 0 0-.052-.274l-.086-.01a15 15 0 0 0-.53-.048 5 5 0 0 0-.758 0 15 15 0 0 0-.617.059 5 5 0 0 0-.053.273c-.03.183-.06.398-.099.689-.294 2.18-.69 5.602-.814 8.963"/><path d="M21 22H3c.051-.496.172-.841.537-1.213.53-.54 1.133-.572 2.342-.637 1.436-.077 3.484-.15 6.12-.15s4.686.073 6.122.15c1.209.065 1.813.098 2.342.637.364.372.486.717.537 1.213M5 19h14c-.02-.374-.087-.648-.327-1.002a2.6 2.6 0 0 0-.436-.46c-.476-.36-.923-.384-1.817-.43A85 85 0 0 0 12 17c-1.853 0-3.331.05-4.42.107-.894.047-1.341.07-1.817.431a2.6 2.6 0 0 0-.436.46c-.24.354-.308.627-.327 1.002"/></svg>