<svg xmlns="http://www.w3.org/2000/svg" viewBox="0 0 32 32"><path d="M12 21h8c-.021-5.402-.532-11.173-.882-14.511-.15-1.438-.226-2.156-.966-2.823S16.942 3 16.001 3c-.942 0-1.412 0-2.152.666s-.815 1.385-.966 2.822C12.533 9.826 12.02 15.598 12 21m16 8H4c.079-.574.252-.998.696-1.45.706-.72 1.511-.763 3.122-.85 1.918-.103 4.657-.2 8.18-.2 3.526 0 6.265.097 8.184.2 1.61.087 2.416.13 3.122.85.444.453.617.876.696 1.45M6.5 25h19c-.038-.42-.143-.756-.433-1.178a3.4 3.4 0 0 0-.563-.594c-.638-.488-1.24-.52-2.443-.582a117 117 0 0 0-6.062-.146c-2.548 0-4.575.068-6.06.146-1.204.063-1.806.094-2.444.582a3.4 3.4 0 0 0-.562.593c-.29.423-.395.758-.433 1.179"/></svg>