<svg xmlns="http://www.w3.org/2000/svg" viewBox="0 0 24 24"><path d="M15 16H9c0-4.152.4-8.753.668-11.373.11-1.083.166-1.624.722-2.126S11.297 2 12 2s1.056 0 1.611.501c.556.502.611 1.043.722 2.126C14.6 7.247 15 11.847 15 16m4 3H5c.02-.375.087-.648.327-1.002.09-.134.308-.363.436-.46.476-.36.923-.384 1.817-.43A84 84 0 0 1 12 17c1.852 0 3.33.05 4.42.107.894.047 1.34.07 1.817.431.128.097.345.326.436.46.24.354.308.628.327 1.002m2 3H3c.051-.496.172-.841.537-1.213.53-.54 1.133-.572 2.342-.637 1.436-.077 3.484-.15 6.12-.15s4.686.073 6.122.15c1.209.065 1.813.098 2.342.637.364.372.486.717.537 1.213"/></svg>