<svg xmlns="http://www.w3.org/2000/svg" viewBox="0 0 16 16"><path d="M6 11h4v-.2c0-2.956-.275-6.237-.454-8.054-.07-.71-.105-1.066-.469-1.4-.364-.336-.59-.34-1.044-.346h-.065c-.454.007-.68.01-1.045.345s-.399.69-.469 1.4C6.276 4.563 6 7.845 6 10.802zm8 4H2c.026-.424.09-.688.371-.975.353-.36.756-.382 1.561-.425.955-.052 2.317-.1 4.067-.1s3.113.048 4.069.1c.805.043 1.208.065 1.561.425.282.287.346.551.371.975M3.5 13h9c-.004-.357-.03-.57-.24-.865a1.7 1.7 0 0 0-.25-.264c-.325-.257-.628-.273-1.235-.305A53 53 0 0 0 8 11.5c-1.173 0-2.093.03-2.774.066-.607.032-.91.047-1.234.305a1.7 1.7 0 0 0-.251.264c-.21.294-.236.508-.24.865"/></svg>