<svg xmlns="http://www.w3.org/2000/svg" viewBox="0 0 32 32"><g fill-rule="evenodd" clip-rule="evenodd"><path d="M11.5 18.5h.5V20h-.5a1 1 0 1 0 0 2h.5v1a1 1 0 1 0 2 0v-1h4a1 1 0 1 0 0-2h-4v-1.5h3.67a3.83 3.83 0 0 0 3.83-3.83 4.17 4.17 0 0 0-4.171-4.171h-4.33a1 1 0 0 0-.999 1v5h-.5a1 1 0 1 0 0 2m5.829-6H14v4h1.5l.052.001h2.118a1.83 1.83 0 0 0 1.83-1.83 2.17 2.17 0 0 0-2.171-2.171"/><path d="M5 16.801v8.724A1.25 1.25 0 0 0 5.25 28h21.5a1.25 1.25 0 0 0 .25-2.475v-8.724c1.214-.688 1.864-1.361 1.982-2.265.226-1.735-1.663-3.146-5.44-5.968L21.14 6.773C18.665 4.924 17.428 4 16 4s-2.665.924-5.14 2.773L8.458 8.568c-3.777 2.822-5.666 4.233-5.44 5.968.118.904.768 1.577 1.982 2.265m1.232-2.175 1.268.718V25.5h17V15.344l1.268-.718c.324-.184.524-.325.643-.424a4 4 0 0 0-.422-.481c-.754-.76-1.987-1.689-3.943-3.15l-2.402-1.795c-1.285-.96-2.079-1.548-2.72-1.92-.586-.34-.811-.356-.924-.356s-.338.017-.923.356c-.642.372-1.436.96-2.72 1.92L9.953 10.57c-1.956 1.462-3.189 2.391-3.943 3.15a4 4 0 0 0-.422.482c.12.099.32.24.643.424"/></g></svg>