<svg xmlns="http://www.w3.org/2000/svg" viewBox="0 0 16 16"><path fill-rule="evenodd" d="M14 13.25a.75.75 0 0 0-.5-.707v-4.21c.777-.359 1.183-.669 1.243-1.13.09-.701-.682-1.27-2.229-2.406l-1.96-1.44C9.323 2.452 8.707 2 8 2s-1.323.452-2.554 1.357l-1.96 1.44c-1.547 1.137-2.32 1.705-2.229 2.406.06.46.465.77 1.242 1.129v4.211A.75.75 0 0 0 2.75 14h10.5a.75.75 0 0 0 .75-.75M7 10v-.5h1.585a1.914 1.914 0 0 0 1.911-1.915A2.083 2.083 0 0 0 8.421 5.5H6.5A.5.5 0 0 0 6 6v2.5a.5.5 0 0 0 0 1v.5a.5.5 0 1 0 0 1v.5a.5.5 0 0 0 1 0V11h2a.5.5 0 0 0 0-1zm0-3.5h1.421c.588 0 1.075.485 1.075 1.085 0 .506-.41.915-.91.915H7z"/></svg>