<svg xmlns="http://www.w3.org/2000/svg" viewBox="0 0 44 44"><g fill-rule="evenodd" clip-rule="evenodd"><path d="M16.5 25.5v.002l.003 1.998h-.753a1.25 1.25 0 1 0 0 2.5h.753v1.75a1.25 1.25 0 0 0 2.5 0V30h5.25a1.25 1.25 0 1 0 0-2.5h-5.25v-1.998h5.233a5.265 5.265 0 0 0 5.264-5.266 5.736 5.736 0 0 0-5.736-5.736H18.25c-.967 0-1.749.783-1.749 1.75V23h-.75a1.25 1.25 0 1 0 0 2.5zm7.264-8.5H19l.002 3v3h2.602l2.632.002A2.765 2.765 0 0 0 27 20.236 3.236 3.236 0 0 0 23.764 17"/><path d="M8 22.257V35h-.5a1.5 1.5 0 0 0 0 3h29a1.5 1.5 0 0 0 0-3H36V22.256c1.858-.873 2.831-1.637 2.981-2.76.232-1.74-1.664-3.159-5.455-5.997L27.43 8.936C24.816 6.979 23.509 6 22 6c-1.51 0-2.816.979-5.43 2.936l-6.096 4.563c-3.791 2.838-5.687 4.258-5.455 5.996.15 1.124 1.123 1.888 2.981 2.762m25-1.905 1.724-.81c.395-.186.701-.346.94-.487-.725-.732-1.959-1.674-3.936-3.155l-6.095-4.562c-1.364-1.022-2.183-1.629-2.84-2.01-.568-.33-.75-.328-.79-.328h-.006c-.04 0-.222-.003-.79.328-.657.381-1.476.988-2.84 2.01L12.272 15.9c-1.977 1.48-3.211 2.422-3.936 3.154.239.14.546.301.94.486l1.724.81V35h22z"/></g></svg>