<svg xmlns="http://www.w3.org/2000/svg" viewBox="0 0 24 24"><path fill-rule="evenodd" d="M20 12.5c1.247-.604 1.898-1.12 1.993-1.877.144-1.152-1.1-2.084-3.586-3.948l-3.402-2.55C13.56 3.042 12.838 2.5 12.004 2.5s-1.556.542-3.001 1.625L5.6 6.675c-2.486 1.864-3.73 2.796-3.586 3.948.094.754.743 1.271 1.985 1.874V19a1 1 0 0 0 0 2h16a1 1 0 1 0 0-2zM9 14v1h-.25a.75.75 0 1 0 0 1.5H9v.75a.75.75 0 0 0 1.5 0v-.75h2.75a.75.75 0 0 0 0-1.5H10.5v-1h2.628A2.87 2.87 0 0 0 16 11.128c0-1.728-1.4-3.129-3.129-3.129H9.75a.75.75 0 0 0-.75.75v3.75h-.25a.75.75 0 0 0 0 1.5zm1.5-1.5h2.628c.758 0 1.372-.614 1.372-1.372 0-.9-.73-1.629-1.629-1.629H10.5z"/></svg>