<svg xmlns="http://www.w3.org/2000/svg" viewBox="0 0 16 16"><path d="M8.9 10a.9.9 0 1 0-1.8 0 .9.9 0 0 0 1.8 0"/><path fill-rule="evenodd" d="M12.97 6.166a3.3 3.3 0 0 0-.796-.613l-.008-.16c-.078-1.492-.117-2.237-.86-3.13a5 5 0 0 0-.598-.568C9.777 1 9.184 1 8 1s-1.777 0-2.708.695a5 5 0 0 0-.598.568c-.743.893-.782 1.638-.86 3.13l-.008.16a3.3 3.3 0 0 0-.795.613c-.953.977-.977 1.816-1.026 3.493a12 12 0 0 0 0 .681c.049 1.678.073 2.518 1.026 3.494.952.977 1.89 1.029 3.766 1.132.395.021.799.034 1.203.034s.808-.013 1.203-.034c1.876-.103 2.814-.155 3.766-1.132.953-.976.977-1.815 1.026-3.493a12 12 0 0 0 0-.682c-.049-1.677-.073-2.516-1.026-3.493M10.152 3.22c.354.427.425.672.497 1.917-.416-.047-.89-.073-1.447-.104-.395-.021-.799 0-1.203 0s-.808-.021-1.203 0c-.556.03-1.03.057-1.447.104.072-1.245.143-1.49.497-1.917.269-.297.613-.582 1.013-.666C7.09 2.507 7.363 2.5 8 2.5s.911.007 1.14.055c.4.084.744.37 1.013.666M8 6.5c-.373 0-.75.012-1.12.032-1.975.108-2.292.185-2.775.68-.302.31-.405.53-.468.791-.086.356-.107.808-.133 1.7a10 10 0 0 0 0 .594c.026.892.047 1.344.133 1.7.063.262.166.48.468.79.483.496.8.573 2.774.68Q7.44 13.5 8 13.5c.373 0 .75-.012 1.12-.032 1.975-.108 2.292-.185 2.775-.68.302-.31.405-.53.468-.791.086-.356.107-.808.133-1.7a10 10 0 0 0 0-.594c-.027-.892-.047-1.344-.133-1.7-.063-.262-.166-.48-.468-.79-.483-.496-.8-.573-2.774-.68Q8.56 6.5 8 6.5"/></svg>