<svg xmlns="http://www.w3.org/2000/svg" viewBox="0 0 44 44"><path fill-rule="evenodd" d="m7.788 16.362.076.095a6.662 6.662 0 0 0 13.27 0l.078-.095c2.132-2.642 4.418-5.474 3.628-6.447C23.14 7.815 17.246 4 14.5 4S5.861 7.816 4.16 9.915c-.79.973 1.496 3.805 3.628 6.447M14.5 13a2 2 0 1 0 0-4 2 2 0 0 0 0 4"/><path d="M3.093 27.958c.648-.647 1.251-1.127 1.859-1.488L18.482 40H-.004c.058-1.51.157-2.89.267-4.142.327-3.71.49-5.565 2.83-7.9M29.004 40H22.72L8.152 25.431c.748-.109 1.58-.181 2.545-.265A44 44 0 0 1 14.504 25c1.338 0 2.614.063 3.807.166 3.51.304 5.265.456 7.604 2.792s2.503 4.19 2.83 7.9A84 84 0 0 1 29.003 40"/><path fill-rule="evenodd" d="M34.448 11h.097c2.468.002 4.406.19 5.804.401 1.155.174 1.732.26 2.392.912.66.65.753 1.216.94 2.346.173 1.057.315 2.381.315 3.891a26 26 0 0 1-.327 4.05c-.134.835-.836 1.36-1.673 1.398-.017 1.09-.906 2.002-2 2.002s-1.982-.91-2-2l-7-.001c-.017 1.09-.906 2.001-2 2.001s-1.982-.91-2-1.999H26.5c-.377 0-.705-.187-.86-.505-.535-1.09-.588-2.501-.634-3.747l-.01-.25v-.115a7.55 7.55 0 0 1 2.065-5.104c.522-.556 1.278-.78 2.042-.78h1.893v-1a1.5 1.5 0 0 1 .85-1.352 1.2 1.2 0 0 1 .479-.1q1.011-.046 2.124-.048m-3.453 6.389a2.11 2.11 0 0 1-2.11 2.111h-1.39a5.05 5.05 0 0 1 1.351-3.47 1 1 0 0 1 .256-.03h1.893z"/></svg>