<svg xmlns="http://www.w3.org/2000/svg" viewBox="0 0 44 44"><path d="M16.504 12.502a2.002 2.002 0 1 1-4.004 0 2.002 2.002 0 0 1 4.003 0"/><path fill-rule="evenodd" d="M14.5 4c-1.543 0-3.656.763-5.442 1.667S5.369 7.842 4.42 9.17c-.494.693-.465 1.466-.348 2.01.117.545.368 1.085.634 1.568.525.95 1.326 2.05 2.096 3.106l.043.059q.361.495.719.991a6.996 6.996 0 0 0 13.873-.002q.357-.495.718-.99l.043-.06c.77-1.055 1.571-2.154 2.096-3.104.266-.483.517-1.023.634-1.569.117-.543.146-1.316-.348-2.009-.949-1.328-2.852-2.599-4.638-3.503S16.042 4 14.5 4m-7.189 7.31a4 4 0 0 1-.294-.63c.606-.692 1.857-1.584 3.385-2.357 1.695-.859 3.286-1.347 4.098-1.347s2.403.488 4.098 1.347c1.528.773 2.779 1.665 3.385 2.357-.048.14-.138.347-.294.629-.424.768-1.114 1.72-1.938 2.85l-.003.003c-.315.432-.644.884-.967 1.34l-.243.344-.027.42a4.02 4.02 0 0 1-8.02.002l-.028-.42-.243-.344c-.324-.457-.653-.909-.968-1.34l-.003-.005c-.823-1.13-1.514-2.082-1.938-2.85m18.604 16.649c-2.34-2.336-4.094-2.488-7.604-2.791A44 44 0 0 0 14.504 25a44 44 0 0 0-3.807.166c-3.51.304-5.265.456-7.604 2.792s-2.503 4.19-2.83 7.9Q.215 36.412.171 37a86 86 0 0 0-.167 3h29a86 86 0 0 0-.26-4.143c-.326-3.71-.49-5.564-2.83-7.9M25.828 37q-.034-.45-.073-.88c-.172-1.953-.277-2.994-.54-3.848-.211-.69-.551-1.324-1.42-2.191-.89-.888-1.51-1.22-2.144-1.419-.79-.249-1.745-.346-3.6-.507A41 41 0 0 0 14.505 28c-1.244 0-2.433.059-3.548.155l-.072.006 8.839 8.84zm-10.345 0-8.285-8.285c-.58.205-1.17.552-1.985 1.366-.87.867-1.21 1.5-1.42 2.191-.263.854-.369 1.895-.54 3.849q-.039.429-.073.88zm18.969-26h.097c2.468.002 4.406.19 5.804.401 1.155.174 1.732.26 2.392.912.66.65.753 1.216.94 2.346.173 1.057.315 2.381.315 3.891 0 1.542-.148 2.931-.327 4.05-.134.835-.836 1.36-1.673 1.398-.017 1.09-.906 2.002-2 2.002s-1.982-.91-2-2h-7c-.017 1.09-.906 2.001-2 2.001s-1.982-.91-2-1.999h-.497c-.377 0-.706-.187-.859-.505-.536-1.09-.589-2.501-.635-3.747L25 19.5v-.115a7.55 7.55 0 0 1 2.064-5.104c.522-.556 1.278-.78 2.041-.78H31v-1a1.5 1.5 0 0 1 .849-1.352 1.2 1.2 0 0 1 .479-.1q1.011-.046 2.124-.048M31 17.389a2.11 2.11 0 0 1-2.112 2.111H27.5a5.05 5.05 0 0 1 1.351-3.47 1 1 0 0 1 .255-.03H31z"/></svg>