<svg xmlns="http://www.w3.org/2000/svg" viewBox="0 0 32 32"><path d="M10.504 11.002a1.75 1.75 0 1 0 0-3.5 1.75 1.75 0 0 0 0 3.5"/><path fill-rule="evenodd" d="M6.624 4.2c1.245-.64 2.752-1.199 3.88-1.199s2.635.56 3.88 1.2c1.246.641 2.605 1.555 3.293 2.534.387.55.36 1.156.273 1.563-.087.41-.27.81-.459 1.156-.37.68-.932 1.463-1.462 2.202l-.034.048q-.256.355-.507.71a5.002 5.002 0 0 1-9.968 0q-.251-.354-.507-.71l-.034-.047c-.53-.74-1.092-1.522-1.462-2.202-.189-.347-.372-.746-.46-1.157-.086-.407-.113-1.013.274-1.563.688-.979 2.046-1.893 3.293-2.534M5.561 7.95q.048.116.152.31c.287.528.757 1.187 1.331 1.987l.003.003c.204.285.418.583.63.885l.328.333-.003.516v.011a2.501 2.501 0 0 0 5.003 0v-.011l-.002-.516.328-.333c.212-.302.426-.6.63-.885l.003-.004c.573-.8 1.044-1.458 1.33-1.985q.105-.194.152-.312c-.417-.443-1.215-1.015-2.206-1.525-1.169-.601-2.231-.923-2.736-.923s-1.567.322-2.737.923c-.99.51-1.789 1.082-2.206 1.525M19.852 26.5q.093 1.152.146 2.5h-20q.053-1.348.146-2.5l.014-.175c.221-2.673.332-4.01 2-5.712s2.903-1.805 5.374-2.009a30 30 0 0 1 2.466-.103c.863 0 1.69.04 2.466.103 2.471.204 3.707.307 5.375 2.009s1.778 3.038 2 5.712zm-17.26 0c.115-1.396.185-2.095.355-2.662.13-.435.34-.85.931-1.454.494-.503.848-.735 1.17-.87l4.986 4.986zm10.97 0L8.13 21.066a27.4 27.4 0 0 1 4.139.03c1.317.109 1.945.174 2.46.338.385.123.782.33 1.39.95.591.604.8 1.019.931 1.454.17.567.24 1.266.356 2.662zM22.9 8.055a.953.953 0 0 0-.9.955V10h-1.043c-.581 0-1.156.18-1.548.607-.596.65-1.386 1.797-1.41 3.324V14c.01.423.036.829.069 1.212.067.778.114 1.332.312 1.83a.69.69 0 0 0 .653.458h.485a1.75 1.75 0 0 0 3.464 0h4.036a1.75 1.75 0 0 0 3.464 0h.085c.603 0 1.117-.402 1.21-.998.123-.794.223-1.768.223-2.845s-.1-2.052-.223-2.846c-.142-.912-.213-1.368-.698-1.846-.484-.478-.95-.545-1.882-.677A31 31 0 0 0 24.875 8q-1.051 0-1.975.055m-2.094 3.947L21.999 12v.972c0 .844-.683 1.528-1.527 1.528H20v-.545c.014-.804.39-1.485.805-1.953"/></svg>