<svg xmlns="http://www.w3.org/2000/svg" viewBox="0 0 17 17"><path fill-rule="evenodd" d="M2.676 6.45C1.763 5.3.794 4.072 1.13 3.65c.732-.918 3.266-2.587 4.446-2.587 1.181 0 3.715 1.669 4.447 2.586.337.424-.632 1.65-1.545 2.8a2.922 2.922 0 0 1-5.803 0m3.857-2.307a.956.956 0 1 1-1.912 0 .956.956 0 0 1 1.912 0"/><path d="M1.186 11.232c.242-.24.468-.42.695-.558l4.73 4.73H0q.03-.585.074-1.099c.124-1.438.186-2.157 1.112-3.073m7.684 4.173h2.285q-.03-.588-.075-1.1c-.123-1.438-.185-2.157-1.111-3.073s-1.615-.97-2.992-1.082a17.3 17.3 0 0 0-2.8 0q-.276.022-.518.044z"/><path fill-rule="evenodd" d="M12.518 4.302a.4.4 0 0 1 .176-.036q.364-.016.762-.016c.907 0 1.623.067 2.145.144.448.066.672.099.92.343.247.244.283.469.355.917.066.417.122.935.122 1.51a10 10 0 0 1-.122 1.509.62.62 0 0 1-.41.49.956.956 0 0 1-1.909.044h-2.024a.956.956 0 0 1-1.907-.004.36.36 0 0 1-.264-.196c-.14-.284-.2-.59-.239-1.042a9 9 0 0 1-.03-.528v-.044c.012-1.022.504-1.603.814-1.88.169-.15.395-.2.62-.2h.69V4.78c0-.211.123-.393.301-.48m-.3 2.073h-.674c-.148.156-.39.476-.39 1.062h.276a.787.787 0 0 0 .787-.787z"/></svg>