<svg xmlns="http://www.w3.org/2000/svg" viewBox="0 0 44 44"><path d="M14.993 6c-.024-2.17-.16-3.329-.948-3.794a2 2 0 0 0-.156-.083c-1-.471-2.26.438-4.78 2.257l-.498.359C6.87 5.996 5.998 6.624 5.998 7.5s.871 1.504 2.613 2.761l.497.359c2.52 1.819 3.781 2.728 4.78 2.257a2 2 0 0 0 .157-.083c.788-.465.924-1.624.948-3.794h7.004c1.052 0 2.112.042 3.156.113 4.974.341 6.17.536 7.683 2.049s1.707 2.708 2.048 7.682c.071 1.044.113 2.105.113 3.156s-.042 2.112-.113 3.156c-.341 4.974-.536 6.17-2.048 7.683s-2.71 1.707-7.683 2.048a46 46 0 0 1-3.156.113 46 46 0 0 1-3.155-.113c-4.975-.341-6.17-.536-7.683-2.048s-1.708-2.71-2.049-7.683a50 50 0 0 1-.086-1.656c-.029-.828-.698-1.5-1.527-1.5-.828 0-1.502.672-1.475 1.5q.031.94.095 1.86c.328 4.781.492 7.172 2.92 9.6s4.819 2.592 9.6 2.92c1.1.075 2.23.12 3.36.12s2.26-.045 3.36-.12c4.781-.328 7.172-.492 9.6-2.92s2.592-4.819 2.92-9.6c.075-1.1.12-2.23.12-3.36s-.045-2.26-.12-3.36c-.328-4.781-.492-7.171-2.92-9.6s-4.819-2.592-9.6-2.92a49 49 0 0 0-3.36-.12z"/><path d="M18.4 25.602c-.134-.135-.318-.205-.686-.345L14.17 23.91c-1.475-.561-1.59-2.426-.156-3.087l8.24-3.803c3.677-1.697 5.516-2.546 6.394-1.668s.03 2.717-1.668 6.394l-3.803 8.24c-.66 1.433-2.525 1.319-3.086-.155l-1.347-3.542c-.14-.367-.21-.551-.345-.686"/></svg>