<svg xmlns="http://www.w3.org/2000/svg" viewBox="0 0 17 17"><path d="M5.844 2.125C5.83 1.275 5.763.812 5.454.62L5.389.585c-.413-.205-.935.19-1.978.981l-.205.156c-.72.547-1.081.82-1.081 1.2 0 .382.36.655 1.08 1.202l.206.155c1.043.791 1.565 1.187 1.978.982l.065-.036c.309-.192.376-.655.39-1.507H8.5c.45 0 .905.02 1.353.053 1.96.146 2.254.228 2.7.675.447.446.529.74.675 2.7.033.448.053.903.053 1.353s-.02.905-.053 1.353c-.146 1.96-.228 2.254-.675 2.7-.446.447-.74.529-2.7.675-.448.033-.903.053-1.353.053s-.905-.02-1.353-.053c-1.96-.146-2.254-.228-2.7-.675-.447-.446-.529-.74-.675-2.7q-.02-.277-.034-.557a.827.827 0 0 0-.815-.796.77.77 0 0 0-.78.796q.015.342.04.675c.138 1.853.207 2.78 1.137 3.71.93.929 1.856.998 3.709 1.136.48.035.976.057 1.471.057s.99-.021 1.471-.057c1.853-.138 2.78-.207 3.71-1.137.929-.93.998-1.856 1.136-3.709.035-.48.057-.976.057-1.471s-.021-.99-.057-1.471c-.138-1.853-.207-2.78-1.137-3.71-.93-.929-1.856-.998-3.709-1.136-.48-.036-.976-.057-1.471-.057z"/><path d="M7.284 9.715c-.05-.05-.116-.075-.25-.126l-1.295-.492c-.538-.205-.58-.886-.057-1.128l3.01-1.389c1.343-.62 2.014-.93 2.335-.609.32.32.01.992-.61 2.335l-1.388 3.01c-.242.523-.922.481-1.127-.057L7.41 9.965c-.051-.134-.077-.201-.126-.25"/></svg>