<svg xmlns="http://www.w3.org/2000/svg" viewBox="0 0 32 32"><path d="M10.993 4c-.021-1.618-.135-2.488-.736-2.841a2 2 0 0 0-.122-.064c-.777-.364-1.758.339-3.718 1.744l-.386.277c-1.355.972-2.033 1.457-2.033 2.134s.678 1.162 2.033 2.134l.386.277c1.96 1.405 2.94 2.108 3.718 1.744q.063-.029.122-.064c.601-.353.715-1.223.736-2.841h5.005c.861 0 1.731.038 2.584.101 3.656.272 4.408.423 5.4 1.415s1.143 1.744 1.415 5.4c.063.853.101 1.723.101 2.584s-.038 1.731-.101 2.584c-.272 3.656-.422 4.408-1.415 5.4-.992.992-1.744 1.143-5.4 1.415a35 35 0 0 1-2.584.101 35 35 0 0 1-2.584-.101c-3.656-.272-4.408-.423-5.4-1.415s-1.143-1.744-1.415-5.4a38 38 0 0 1-.076-1.334C6.496 16.56 5.938 16 5.248 16s-1.252.56-1.227 1.25a40 40 0 0 0 .085 1.52c.26 3.488.39 5.232 2.14 6.982s3.494 1.88 6.983 2.14c.904.067 1.836.108 2.769.108s1.865-.04 2.77-.108c3.488-.26 5.232-.39 6.982-2.14s1.88-3.494 2.14-6.982c.067-.905.108-1.837.108-2.77s-.04-1.865-.108-2.77c-.26-3.488-.39-5.232-2.14-6.982s-3.494-1.88-6.982-2.14A38 38 0 0 0 15.998 4z"/><path d="M13.55 18.451c-.1-.1-.239-.153-.515-.258l-2.657-1.011c-1.106-.421-1.192-1.82-.117-2.316l6.18-2.852c2.758-1.273 4.137-1.91 4.796-1.25.658.658.022 2.037-1.251 4.795l-2.852 6.18c-.496 1.075-1.894.989-2.315-.117l-1.01-2.656c-.105-.276-.158-.413-.259-.515"/></svg>