<svg xmlns="http://www.w3.org/2000/svg" viewBox="0 0 24 24"><path d="M7.994 5.017 8.12 5H12c.642 0 1.292.028 1.929.076 2.75.204 3.265.318 3.97 1.024.707.706.82 1.22 1.025 3.971.048.637.076 1.287.076 1.929s-.028 1.292-.076 1.929c-.204 2.75-.318 3.265-1.024 3.97-.706.707-1.22.82-3.971 1.025-.637.048-1.287.076-1.929.076s-1.292-.028-1.929-.076c-2.75-.204-3.265-.318-3.97-1.024-.707-.706-.82-1.22-1.025-3.971a28 28 0 0 1-.055-.93A1.034 1.034 0 0 0 4 12a.97.97 0 0 0-.98 1q.022.545.061 1.077c.195 2.616.292 3.924 1.605 5.237s2.62 1.41 5.237 1.605C10.6 20.969 11.3 21 12 21s1.399-.03 2.077-.081c2.616-.195 3.924-.292 5.237-1.605s1.41-2.62 1.605-5.237C20.969 13.4 21 12.7 21 12s-.03-1.399-.081-2.077c-.195-2.616-.292-3.924-1.605-5.237s-2.62-1.41-5.237-1.605A28 28 0 0 0 12 3H7.995c-.02-1.067-.11-1.647-.525-1.888a1 1 0 0 0-.086-.045c-.556-.257-1.256.24-2.656 1.231l-.276.196C3.484 3.18 3 3.522 3 4s.484.82 1.452 1.506l.276.196c1.4.992 2.1 1.488 2.656 1.23a1 1 0 0 0 .086-.044c.413-.24.504-.815.524-1.871"/><path d="M10.038 13.959c-.076-.076-.18-.115-.386-.194l-1.993-.758c-.83-.316-.894-1.365-.088-1.737l4.635-2.14c2.068-.954 3.103-1.431 3.597-.937.494.493.016 1.528-.939 3.597l-2.139 4.635c-.371.805-1.42.741-1.735-.088l-.758-1.992c-.08-.207-.118-.31-.194-.386"/></svg>