<svg xmlns="http://www.w3.org/2000/svg" viewBox="0 0 16 16"><path d="M6.25 4.5a1.75 1.75 0 1 0 0-3.5 1.75 1.75 0 0 0 0 3.5m5.677 3.489A.7.7 0 0 0 12.5 7.3V4.7a.7.7 0 0 0-.7-.7H9.196a.7.7 0 0 0-.7.7v.697l1.862.266a1.89 1.89 0 0 1 1.569 2.326M5.22 10.695 3.663 13.29a1.124 1.124 0 1 0 1.922 1.17l1.32-2.21-.034-.138z"/><path d="M7.561 8.042a.9.9 0 0 1-.32-.114l.083.372 2.123 1.82c.181.156.309.365.363.599l.674 2.892a1.125 1.125 0 0 1-2.191.51l-.59-2.533-2.128-1.824a1.13 1.13 0 0 1-.366-.61L4.52 6.06a1.125 1.125 0 0 1 1.916-1.02l1.608 1.333 2.168.31a.86.86 0 0 1-.244 1.702z"/></svg>