<svg xmlns="http://www.w3.org/2000/svg" viewBox="0 0 24 24"><path fill-rule="evenodd" d="M6.505 9.326c-.02.323.015.643.097.95l.988 3.952q.094.375.277.709L6.396 17.51a3 3 0 0 0 5.104 3.148 3.001 3.001 0 0 0 5.385-2.482l-1-3.5a3 3 0 0 0-.272-.652A3 3 0 0 0 17.809 12H18a1 1 0 0 0 1-1V7a1 1 0 0 0-1-1h-4a1 1 0 0 0-.564.174q.065-.327.065-.674a3.5 3.5 0 1 0-6.31 2.086q-.186.224-.328.486c-.207.382-.332.81-.358 1.254m2.065-.19a1 1 0 0 1 1.296-.566l2.44.959 2.845.591a1 1 0 1 1-.408 1.959l-1.588-.33-.665-.14-.005.008c-.625-.167-1.088.105-1.3.495-.266.487-.14 1.158.552 1.384l.485.101 1.403 1.123c.162.13.28.307.337.506l1 3.5a1 1 0 0 1-1.923.55l-.912-3.194-2.251-1.8a1 1 0 0 1-.32-.456l-.013-.01-.372-1.51-.01-.039-.59-2.4a1 1 0 0 1-.001-.732m.76 7.27 1.049.84.258.904-.768 1.345a1 1 0 0 1-1.737-.992zM11.502 5.5a1.5 1.5 0 1 1-3 0 1.5 1.5 0 0 1 3 0"/></svg>