<svg xmlns="http://www.w3.org/2000/svg" viewBox="0 0 24 24"><path d="M9 7a2.5 2.5 0 1 0 0-5 2.5 2.5 0 0 0 0 5m4-1a1 1 0 0 0-1 1v.912l.606.467 2.783.398a2.75 2.75 0 0 1 2.356 2.89A1 1 0 0 0 18 11V7a1 1 0 0 0-1-1zM7.987 16.154l-2.252 3.54a1.5 1.5 0 1 0 2.53 1.61l2.023-3.177zm1.492-8.291a1.5 1.5 0 0 0-2.443 1.462l1 4.5a1.5 1.5 0 0 0 .488.814l3.137 2.689.884 3.536a1.5 1.5 0 1 0 2.91-.727l-1-4a1.5 1.5 0 0 0-.479-.776l-3.12-2.674-.162-.731.043.033c.171.132.373.217.587.248l3.5.5a1.25 1.25 0 0 0 .353-2.475l-3.174-.454z"/></svg>