<svg xmlns="http://www.w3.org/2000/svg" viewBox="0 0 16 16"><path fill-rule="evenodd" d="M8.942 4.039a2.5 2.5 0 1 0-4.503.876 2.25 2.25 0 0 0-.358 1.932l.725 2.722q.035.126.081.246l-1.066 1.777A2.25 2.25 0 0 0 7.5 14.165a2.25 2.25 0 0 0 3.945-1.908l-.533-2.371a2.3 2.3 0 0 0-.15-.445A2.25 2.25 0 0 0 12.372 8c.35-.02.628-.31.628-.666V4.667A.667.667 0 0 0 12.334 4H9.167a.7.7 0 0 0-.225.039M7.501 3.5a1 1 0 1 1-2.001 0 1 1 0 0 1 2 0M5.519 6.416l.737 2.767a.75.75 0 0 0 .256.393L8.043 10.8l.476 2.114a.75.75 0 0 0 1.463-.33l-.533-2.37a.75.75 0 0 0-.263-.421l-.678-.543-.574-.09.004-.002c-.902-.263-.642-1.68.4-1.453l1.795.285a.75.75 0 0 0 .235-1.482l-1.796-.285-.347-.055-1.719-.624a.75.75 0 0 0-.987.87m.395 4.603-.807 1.345a.75.75 0 1 0 1.287.77l.463-.771-.162-.72z"/></svg>