<svg xmlns="http://www.w3.org/2000/svg" viewBox="0 0 24 24"><path d="M13.25 15a1.25 1.25 0 1 0-2.5 0 1.25 1.25 0 0 0 2.5 0"/><path fill-rule="evenodd" d="M18.545 9.619a5.4 5.4 0 0 0-.558-.501q-.012-.425-.034-.842c-.112-2.13-.168-3.196-1.23-4.472a7 7 0 0 0-.854-.812C14.539 2 13.692 2 12 2s-2.538 0-3.868.992c-.222.166-.68.6-.856.812C6.216 5.08 6.16 6.145 6.047 8.276a35 35 0 0 0-.034.842q-.28.216-.558.5c-1.381 1.417-1.405 2.63-1.452 5.055a17 17 0 0 0 0 .654c.047 2.425.07 3.638 1.452 5.054s2.707 1.475 5.355 1.592a27 27 0 0 0 2.38 0c2.648-.117 3.973-.175 5.355-1.592 1.381-1.416 1.405-2.629 1.452-5.054a17 17 0 0 0 0-.654c-.047-2.425-.07-3.638-1.453-5.054m-9.73-4.537c-.572.687-.652 1.088-.763 3.17.751-.136 1.636-.175 2.758-.225a27 27 0 0 1 2.38 0c1.122.05 2.007.089 2.758.225-.111-2.082-.191-2.483-.762-3.17h-.001l-.072-.076a7 7 0 0 0-.36-.342q-.07-.062-.08-.068c-.48-.358-.762-.462-1.015-.515C13.314 4.01 12.906 4 12 4s-1.314.009-1.658.081c-.253.053-.535.157-1.015.514v.001l-.08.068a6 6 0 0 0-.432.418M12 10q-.55 0-1.102.025c-1.394.062-2.161.104-2.76.252-.471.116-.818.295-1.25.738-.458.469-.618.808-.712 1.21-.126.532-.148 1.202-.173 2.486a15 15 0 0 0 0 .578c.025 1.284.047 1.954.173 2.485.094.403.254.742.711 1.21.433.444.78.623 1.25.739.6.148 1.367.19 2.761.252a25 25 0 0 0 2.204 0c1.394-.062 2.161-.104 2.76-.252.471-.116.818-.295 1.25-.738.458-.469.618-.808.713-1.21.125-.532.147-1.202.172-2.486a16 16 0 0 0 0-.578c-.025-1.284-.047-1.954-.172-2.485-.095-.403-.255-.742-.712-1.21-.433-.444-.78-.623-1.25-.739-.6-.148-1.367-.19-2.761-.252A25 25 0 0 0 12 10"/></svg>