<svg xmlns="http://www.w3.org/2000/svg" viewBox="0 0 16 16"><path fill-rule="evenodd" d="M12.984 6.125a3 3 0 0 0-.81-.604l-.007-.128c-.087-1.647-.13-2.47-.986-3.365a5 5 0 0 0-.233-.22C10.011 1 9.341 1 8 1s-2.01 0-2.948.808a5 5 0 0 0-.233.22c-.856.894-.9 1.718-.986 3.365l-.006.128a3 3 0 0 0-.81.604c-.896.911-.932 1.72-1.005 3.337a12 12 0 0 0 0 1.076c.073 1.617.11 2.426 1.004 3.337.895.91 1.791.967 3.584 1.079.457.029.928.046 1.4.046s.943-.017 1.4-.046c1.793-.112 2.689-.168 3.584-1.08.895-.91.931-1.719 1.004-3.336a12 12 0 0 0 0-1.076c-.073-1.617-.11-2.426-1.004-3.337m-7.082-3.06c-.388.407-.47.65-.553 2.075.366-.039.777-.064 1.25-.094A23 23 0 0 1 8 5c.472 0 .943.017 1.4.046.474.03.886.055 1.25.094-.082-1.425-.164-1.668-.552-2.074-.225-.223-.482-.43-.8-.501C9.042 2.508 8.722 2.5 8 2.5s-1.041.008-1.298.065c-.315.07-.579.276-.8.502zM9 10a1 1 0 1 0-2 0 1 1 0 0 0 2 0"/></svg>