<svg xmlns="http://www.w3.org/2000/svg" viewBox="0 0 44 44"><path fill-rule="evenodd" d="M23.01 4.02c2.714.112 4.071.168 6.265 2.304s2.305 3.78 2.528 7.07q.104 1.513.158 3.315a9.6 9.6 0 0 1 1.408 1.205c2.568 2.634 2.588 4.857 2.63 9.304a30 30 0 0 1 0 .564c-.042 4.447-.062 6.67-2.63 9.304s-4.976 2.718-9.793 2.886a45 45 0 0 1-3.152 0c-4.817-.168-7.225-.252-9.793-2.886s-2.588-4.857-2.63-9.304a31 31 0 0 1 0-.564c.042-4.447.063-6.67 2.63-9.304a9.5 9.5 0 0 1 1.408-1.205q.054-1.8.158-3.315c.223-3.289.334-4.934 2.528-7.07s3.551-2.192 6.266-2.303a25 25 0 0 1 2.018 0m5.8 9.577q.06.877.103 1.86c-1.44-.293-3.137-.352-5.337-.429a45 45 0 0 0-3.152 0c-2.2.077-3.898.136-5.337.429q.044-.983.103-1.86c.119-1.75.193-2.606.403-3.3.159-.525.427-1.046 1.225-1.823.868-.846 1.36-1.08 1.731-1.195.507-.156 1.103-.2 2.565-.26a22 22 0 0 1 1.772 0c1.462.06 2.058.104 2.565.26.371.115.863.349 1.731 1.195.798.777 1.066 1.298 1.225 1.822.21.695.284 1.55.402 3.3M22 25a3 3 0 1 0 0 6 3 3 0 0 0 0-6"/></svg>