<svg xmlns="http://www.w3.org/2000/svg" viewBox="0 0 24 24"><path d="M15.43 7a1 1 0 0 1-.993-.884l-.118-1.012-.375-.028A29 29 0 0 0 13 5.021V6a1 1 0 1 1-2 0v-.979q-.475.02-.944.055l-.374.028-.119 1.012a1 1 0 0 1-1.986-.232l.125-1.069c.087-.745.13-1.117.39-1.366.258-.249.62-.276 1.345-.332l.47-.035A28 28 0 0 1 12 3c.705 0 1.41.03 2.093.082l.47.035c.725.056 1.087.083 1.346.332.258.249.302.621.39 1.366l.125 1.069A1 1 0 0 1 15.43 7M8.084 18.744c.507.069 1.129.117 1.972.18q.47.035.944.055V12a1 1 0 1 1 2 0v6.979q.474-.02.944-.055c.843-.063 1.465-.111 1.972-.18l-.776-6.628a1 1 0 1 1 1.986-.232l.81 6.914c.081.695.122 1.042-.11 1.359-.233.317-.513.37-1.074.478-.726.139-1.582.203-2.66.283C13.41 20.97 12.706 21 12 21s-1.41-.03-2.093-.082c-1.077-.08-1.933-.144-2.659-.283-.56-.108-.841-.161-1.074-.478-.232-.317-.191-.664-.11-1.359l.81-6.914a1 1 0 1 1 1.986.232z"/><path d="M3 9a1 1 0 0 1 1-1h16a1 1 0 1 1 0 2v1a1 1 0 1 1-2 0v-1H6v1a1 1 0 1 1-2 0v-1a1 1 0 0 1-1-1"/></svg>