<svg xmlns="http://www.w3.org/2000/svg" viewBox="0 0 44 44"><path d="M20.5 6c-.674.023-1.344.06-2.002.108l-.947.07c-1.282.097-1.922.145-2.383.588s-.537 1.105-.69 2.427L14.04 13h6.46zm-8.892 28.133L13.235 20H20.5v18a51 51 0 0 1-2.002-.108c-1.963-.143-3.51-.256-4.82-.517-.976-.195-1.463-.292-1.872-.853s-.339-1.17-.198-2.389M23.5 20v18q1.011-.035 2-.108c1.964-.143 3.51-.256 4.82-.517.975-.194 1.463-.292 1.872-.852.409-.561.339-1.17.198-2.39L30.764 20zm6.02-10.807L29.958 13H23.5V6q1.011.035 2 .108l.947.07c1.282.097 1.923.145 2.383.588.461.443.537 1.105.69 2.427"/><path d="M6 16.5A1.5 1.5 0 0 1 7.5 15h29a1.5 1.5 0 0 1 0 3H36v2.5a1.5 1.5 0 0 1-3 0V18H11v2.5a1.5 1.5 0 0 1-3 0V18h-.5A1.5 1.5 0 0 1 6 16.5"/></svg>