<svg xmlns="http://www.w3.org/2000/svg" viewBox="0 0 16 16"><path fill-rule="evenodd" d="M11.75 5.5c.359 0 .695.094.986.26A4.25 4.25 0 0 0 8.748 3a4.24 4.24 0 0 0-4.07 3.007 4 4 0 0 0-.21-.006c-1.914 0-3.466 1.51-3.466 3.372a3.33 3.33 0 0 0 1.235 2.58c.794.737 1.47.8 2.76.92a33 33 0 0 0 3.005.132q.495 0 .965-.013l-1.235-1.44A2 2 0 0 1 9.75 8.313V7.5a2 2 0 0 1 2-2m.007 1a.75.75 0 0 0-.75.75v3.894A116 116 0 0 1 9.99 9.846a.86.86 0 0 0-.68-.341c-.622 0-.982.629-.608 1.125.242.321.53.687.863 1.11.81 1.026 1.214 1.539 1.719 1.69.311.093.644.093.955 0 .505-.151.91-.664 1.718-1.69.334-.423.622-.789.864-1.11.374-.496.014-1.125-.607-1.125a.86.86 0 0 0-.68.34 83 83 0 0 1-1.027 1.31V7.25a.75.75 0 0 0-.75-.75"/></svg>