<svg xmlns="http://www.w3.org/2000/svg" viewBox="0 0 24 24"><path fill-rule="evenodd" d="M16.104 7.477c.249.305.603.523.996.523.76 0 1.284-.758.854-1.385A6.002 6.002 0 0 0 7.082 9.01l-.13-.002C4.217 9.008 2 11.162 2 13.82c0 1.771.984 3.318 2.45 4.153.957.64 1.92.724 3.495.86q.712.064 1.525.105a.984.984 0 0 0 1.03-.989c0-.54-.43-.982-.97-1.01a41 41 0 0 1-1.412-.098c-1.683-.146-2.1-.225-2.556-.53l-.06-.04-.061-.035C4.556 15.73 4 14.823 4 13.819c0-1.499 1.267-2.81 2.95-2.81h.081l1.738.044.285-1.715a4.002 4.002 0 0 1 7.05-1.86m-.112 3.023v7.033c-.172-.213-.371-.465-.609-.766-.504-.64-.905-1.15-1.223-1.572-.302-.402-.63-.695-1.168-.695a.92.92 0 0 0-.645.292c-.28.296-.385.788.027 1.35.38.52.86 1.129 1.439 1.864 1.107 1.404 1.66 2.106 2.337 2.348a2.5 2.5 0 0 0 1.685 0c.676-.242 1.23-.944 2.337-2.348.579-.735 1.06-1.344 1.439-1.863.411-.563.307-1.056.027-1.351a.92.92 0 0 0-.645-.292c-.54 0-.867.293-1.169.695-.317.423-.719.933-1.223 1.572-.238.302-.437.554-.61.768V10.5a1 1 0 0 0-2 0"/></svg>