<svg xmlns="http://www.w3.org/2000/svg" viewBox="0 0 24 24"><path fill-rule="evenodd" d="M17 7.5c.614 0 1.186.185 1.661.501A6.002 6.002 0 0 0 7.083 9.01l-.13-.001c-2.735 0-4.951 2.154-4.951 4.811 0 1.77.984 3.318 2.45 4.153.957.64 1.92.724 3.495.86A47 47 0 0 0 12.23 19l-1.638-2.069a2.746 2.746 0 0 1 .421-3.833A2.68 2.68 0 0 1 14 12.836V10.5a3 3 0 0 1 3-3m-1.008 3v7.033c-.172-.213-.371-.465-.609-.766-.504-.64-.905-1.15-1.223-1.572-.302-.402-.63-.695-1.168-.695a.92.92 0 0 0-.645.292c-.28.296-.385.788.027 1.35.38.52.86 1.129 1.439 1.864 1.107 1.404 1.66 2.106 2.337 2.348a2.5 2.5 0 0 0 1.685 0c.676-.242 1.23-.944 2.337-2.348.579-.735 1.06-1.344 1.439-1.863.411-.563.307-1.056.027-1.351a.92.92 0 0 0-.645-.292c-.54 0-.867.293-1.169.695-.317.423-.719.933-1.223 1.572-.238.302-.437.554-.61.768V10.5a1 1 0 0 0-2 0"/></svg>