<svg xmlns="http://www.w3.org/2000/svg" viewBox="0 0 24 24"><path fill-rule="evenodd" d="M14.5 11.465V10.04l.349-.3.006-.005.025-.021a13 13 0 0 0 .477-.438c.314-.299.729-.714 1.14-1.185.416-.474.808-.983 1.092-1.47.297-.508.41-.885.41-1.121 0-.206-.056-.295-.164-.382-.158-.13-.47-.275-1.031-.388-1.13-.226-2.762-.23-4.804-.23-1.452 0-2.696.002-3.7.085a1.08 1.08 0 0 1-.856-.306c-.577-.576-.279-1.51.533-1.588A46 46 0 0 1 12 2.5c4-.031 5.196.27 5.196.27.688.137 1.376.366 1.906.8.58.474.898 1.135.898 1.93 0 .764-.323 1.512-.683 2.129-.372.638-.855 1.254-1.314 1.78a20 20 0 0 1-1.503 1.537v.52a1 1 0 1 1-2 0M3.707 3.293a1 1 0 0 0-1.414 1.414l1.914 1.914c.126.36.296.7.476 1.008.372.638.855 1.254 1.314 1.78A20 20 0 0 0 7.5 10.945v4.098a22 22 0 0 0 .008.541c.008.353.024.835.056 1.352.033.514.082 1.078.158 1.586.071.475.182 1.02.384 1.424.42.842 1.144 1.23 1.858 1.4.64.153 1.366.153 1.975.153h.123c.608 0 1.334 0 1.974-.152.714-.17 1.437-.559 1.858-1.4.182-.364.29-.84.361-1.279l2.538 2.538a1 1 0 0 0 1.414-1.414l-7.5-7.5zM9.5 15v-3.086l1.5 1.5V16a1 1 0 1 0 2 0v-.586l1.437 1.437c-.03.474-.074.958-.137 1.376-.07.462-.146.73-.194.826-.08.158-.201.27-.534.35-.386.091-.882.097-1.572.097s-1.186-.006-1.572-.098c-.333-.08-.455-.191-.534-.35-.048-.096-.125-.363-.194-.825a17 17 0 0 1-.14-1.415 33 33 0 0 1-.06-1.777z"/></svg>