<svg xmlns="http://www.w3.org/2000/svg" viewBox="0 0 44 44"><path fill-rule="evenodd" d="M26.5 21.757v-3.081l.507-.447.002-.002.01-.009.044-.04.177-.16a32 32 0 0 0 2.617-2.724c.717-.844 1.402-1.757 1.9-2.636.516-.91.743-1.63.743-2.128 0-.457-.139-.693-.377-.894-.31-.261-.882-.526-1.854-.726C28.312 8.507 26.5 8.5 22 8.5c-3.271 0-6.455.288-7.95.446a1.86 1.86 0 0 1-1.514-.531c-.847-.847-.579-2.1.6-2.316 1.653-.303 4.379-.599 8.714-.599h.302c3.307 0 6.429 0 8.722.472 1.171.241 2.313.638 3.182 1.37.94.792 1.444 1.88 1.444 3.188 0 1.267-.523 2.531-1.132 3.607-.627 1.105-1.442 2.178-2.225 3.1A35 35 0 0 1 29.5 20.01v1.746c0 1.337-1.616 2.006-2.56 1.061a1.5 1.5 0 0 1-.44-1.06M6.56 6.44a1.5 1.5 0 1 0-2.12 2.122l4.778 4.778q.197.413.414.797c.627 1.106 1.442 2.179 2.225 3.1a35 35 0 0 0 2.643 2.775v7.419a56 56 0 0 0 .034 1.626c.034 1.02.102 2.367.241 3.61.125 1.112.328 2.391.733 3.225.677 1.393 1.845 2.051 3.042 2.345 1.077.265 2.304.264 3.352.264h.196c1.049 0 2.276 0 3.352-.264 1.197-.294 2.366-.952 3.042-2.345.249-.512.407-1.15.518-1.745q.08-.421.14-.874l4.79 4.789a1.5 1.5 0 0 0 2.12-2.122zM17.5 23.324V21.62l3 3V29a1.5 1.5 0 0 0 3 0v-1.379l2.895 2.896c-.026.442-.06.896-.102 1.341a20 20 0 0 1-.231 1.735c-.1.528-.2.846-.268.987-.18.372-.461.596-1.06.743-.685.168-1.558.177-2.734.177s-2.049-.009-2.734-.177c-.599-.147-.879-.371-1.06-.743-.148-.307-.32-1.09-.45-2.247a45 45 0 0 1-.224-3.376 64 64 0 0 1-.031-1.546v-4.087"/></svg>