<svg xmlns="http://www.w3.org/2000/svg" viewBox="0 0 16 16"><path fill-rule="evenodd" d="m9.727 7.672.023-.73v-.308l.216-.219.003-.003.013-.014.057-.06q.077-.082.211-.232c.177-.2.412-.48.645-.799s.456-.666.617-1c.166-.343.238-.616.238-.807 0-.194-.05-.266-.092-.31-.063-.066-.207-.161-.524-.243-.657-.17-1.676-.197-3.134-.197-1.098 0-1.946.015-2.579.095a.9.9 0 0 1-.757-.242c-.41-.409-.254-1.046.317-1.14C5.653 1.35 6.639 1.25 8 1.25c2.627 0 2.674.013 3.22.166.082.023.175.049.29.078.45.117.896.309 1.23.656.354.37.51.838.51 1.35 0 .515-.178 1.025-.387 1.46-.214.443-.492.87-.758 1.233a13 13 0 0 1-.855 1.045l-.007.47a.758.758 0 1 1-1.516-.036M2.28 2.22a.75.75 0 0 0-1.06 1.06l2.2 2.2c.151.254.315.495.475.713a13 13 0 0 0 .855 1.045v2.995a23 23 0 0 0 .046 1.256c.023.363.058.762.113 1.124.051.335.131.727.279 1.02.309.61.837.887 1.352 1.009.46.108.981.108 1.415.108h.09c.434 0 .955 0 1.416-.108.514-.121 1.043-.4 1.351-1.01.084-.165.146-.364.194-.566l1.464 1.464a.75.75 0 1 0 1.06-1.06l-5-5-.625-.625zm3.97 7.898V8.31l.595.594.405.406V11a.75.75 0 0 0 1.5 0v-.19l.931.932a10 10 0 0 1-.073.645c-.05.326-.104.508-.134.569-.049.096-.124.17-.358.226-.272.064-.622.068-1.116.068-.493 0-.844-.004-1.116-.068-.234-.055-.31-.13-.358-.226-.03-.06-.084-.243-.134-.569-.045-.3-.077-.651-.099-.993a23 23 0 0 1-.042-1.176v-.076l-.001-.019z"/></svg>