<svg xmlns="http://www.w3.org/2000/svg" viewBox="0 0 44 44"><path d="M17.027 21.112c.092-1.556.138-2.334.944-3.14.807-.807 1.585-.853 3.141-.945a15 15 0 0 1 1.776 0c1.556.092 2.334.138 3.14.944.807.807.853 1.585.945 3.141a15 15 0 0 1 0 1.776c-.092 1.556-.138 2.334-.944 3.14-.807.807-1.585.853-3.141.945a15 15 0 0 1-1.776 0c-1.556-.092-2.334-.138-3.14-.944-.807-.807-.853-1.585-.945-3.141a15 15 0 0 1 0-1.776"/><path fill-rule="evenodd" d="M12.06 11.94a1.5 1.5 0 0 0-2.12 0l-.007.006-.015.015-.051.052q-.068.068-.187.193a37 37 0 0 0-2.625 3.075c-.717.945-1.46 2.038-2.031 3.153C4.468 19.52 4 20.774 4 22c0 1.227.468 2.48 1.024 3.566.57 1.115 1.314 2.208 2.031 3.153a37 37 0 0 0 2.812 3.268l.051.052.015.015.005.006h.001a1.5 1.5 0 0 0 2.122-2.12l-.002-.002-.009-.01-.04-.04-.162-.168a34 34 0 0 1-2.403-2.814c-.658-.868-1.29-1.806-1.75-2.706C7.219 23.27 7 22.523 7 22s.22-1.27.695-2.2c.23-.45.504-.91.801-1.366.298-.455.62-.906.949-1.34a34 34 0 0 1 2.565-2.982l.04-.04.01-.01v-.001m0-2.122a1.5 1.5 0 0 1 0 2.122zm19.88.001a1.5 1.5 0 0 1 2.12 0l.007.006.015.015.051.052q.068.068.187.193a37 37 0 0 1 2.625 3.075c.717.945 1.46 2.038 2.031 3.153C39.532 19.52 40 20.774 40 22c0 1.227-.468 2.48-1.024 3.566-.57 1.115-1.314 2.208-2.031 3.153a37 37 0 0 1-2.812 3.268l-.051.052-.015.015-.005.006h-.001a1.5 1.5 0 0 1-2.122-2.12l.002-.002.009-.01.04-.04.162-.168a34 34 0 0 0 2.403-2.814c.658-.868 1.29-1.806 1.75-2.706.476-.93.695-1.677.695-2.2s-.22-1.27-.695-2.2c-.46-.9-1.092-1.838-1.75-2.706a34 34 0 0 0-2.565-2.982l-.04-.04-.01-.01v-.001m0-2.122a1.5 1.5 0 0 0 0 2.122z"/></svg>