<svg xmlns="http://www.w3.org/2000/svg" viewBox="0 0 16 16"><path fill-rule="evenodd" d="M4.165 13.967c.667.2 1.667-.51 3.669-1.93L8 11.919l.166.118c2.002 1.42 3.002 2.13 3.669 1.93.277-.084.52-.25.697-.475.424-.54.09-1.704-.58-4.03l.07-.055c2.066-1.642 3.1-2.462 2.967-3.243a1.3 1.3 0 0 0-.133-.395c-.367-.706-1.697-.769-4.357-.894-1.007-2.526-1.51-3.79-2.367-3.869a1.4 1.4 0 0 0-.264 0c-.856.08-1.36 1.343-2.367 3.87-2.66.124-3.99.187-4.357.893q-.098.187-.133.395c-.132.78.9 1.601 2.967 3.243l.07.055c-.67 2.326-1.004 3.49-.58 4.03a1.4 1.4 0 0 0 .697.475m4.87-3.153c.966.686 1.62 1.148 2.11 1.436-.109-.54-.32-1.284-.634-2.374l-.277-.964.855-.68c.949-.754 1.596-1.27 2.023-1.675-.595-.083-1.44-.125-2.684-.183l-.965-.046-.358-.897C8.614 4.197 8.287 3.384 8 2.847c-.287.537-.614 1.35-1.105 2.584l-.358.897-.965.046c-1.244.058-2.09.1-2.684.183.427.405 1.074.921 2.023 1.675l.855.68-.277.964c-.313 1.09-.525 1.833-.634 2.374.49-.288 1.144-.75 2.11-1.436L8 10.079z"/></svg>