<svg xmlns="http://www.w3.org/2000/svg" viewBox="0 0 28 28"><path d="M2.25 10.434a2.4 2.4 0 0 0-.228.68c-.24 1.375 1.503 2.826 4.99 5.727l.155.13c-1.157 4.12-1.736 6.18-1 7.137.303.394.72.685 1.194.832 1.044.324 2.562-.677 5.41-2.737l1.007-.731.215-.156.215.156 1.008.731c2.847 2.06 4.365 3.061 5.409 2.737a2.4 2.4 0 0 0 1.194-.832c.736-.957.157-3.017-1-7.138l.15-.124c3.499-2.903 5.248-4.354 5.01-5.729a2.4 2.4 0 0 0-.228-.682c-.634-1.243-2.903-1.354-7.443-1.576-1.741-4.475-2.612-6.712-4.094-6.849a2.4 2.4 0 0 0-.442 0c-1.482.137-2.353 2.374-4.094 6.849-4.53.222-6.795.333-7.429 1.575"/></svg>