<svg xmlns="http://www.w3.org/2000/svg" viewBox="0 0 24 24"><path d="m11.762 18.136.238-.173.238.173c2.85 2.069 4.274 3.103 5.224 2.817a2 2 0 0 0 1.02-.71c.599-.791.122-2.486-.83-5.874l.1-.081c2.942-2.392 4.414-3.588 4.233-4.727a2 2 0 0 0-.199-.605c-.53-1.024-2.424-1.115-6.213-1.297-1.435-3.683-2.152-5.525-3.37-5.649a2 2 0 0 0-.406 0c-1.218.124-1.935 1.966-3.37 5.649-3.789.182-5.683.273-6.213 1.297a2 2 0 0 0-.2.605c-.18 1.139 1.292 2.335 4.235 4.727l.099.08c-.952 3.39-1.429 5.084-.83 5.875.256.34.613.588 1.02.71.95.286 2.375-.748 5.224-2.817"/></svg>