<svg xmlns="http://www.w3.org/2000/svg" viewBox="0 0 16 16"><path d="M4.165 13.967c.667.2 1.667-.51 3.669-1.93L8 11.919l.166.118c2.002 1.42 3.002 2.13 3.669 1.93.277-.084.52-.25.697-.475.424-.54.09-1.704-.58-4.03l.07-.055c2.066-1.642 3.1-2.462 2.967-3.243a1.3 1.3 0 0 0-.133-.395c-.367-.706-1.697-.769-4.357-.894-1.007-2.526-1.51-3.79-2.367-3.869a1.4 1.4 0 0 0-.264 0c-.856.08-1.36 1.343-2.367 3.87-2.66.124-3.99.187-4.357.893q-.098.187-.133.395c-.132.78.9 1.601 2.967 3.243l.07.055c-.67 2.326-1.004 3.49-.58 4.03a1.4 1.4 0 0 0 .697.475"/></svg>