<svg xmlns="http://www.w3.org/2000/svg" viewBox="0 0 24 24"><path fill-rule="evenodd" d="m12 15.49 1.415 1.027c1.463 1.063 2.431 1.763 3.15 2.18l.136.076-.025-.153c-.141-.82-.462-1.97-.951-3.71l-.355-1.265 1.118-.909c1.516-1.232 2.502-2.038 3.11-2.669l.079-.083-.113-.02c-.864-.148-2.136-.213-4.088-.307l-1.297-.062-.472-1.21c-.739-1.899-1.223-3.132-1.658-3.927L12 4.368l-.05.09c-.434.795-.918 2.028-1.657 3.926l-.472 1.21-1.297.063c-1.952.094-3.224.159-4.088.307l-.113.02.08.083c.607.63 1.593 1.437 3.109 2.669l1.118.91-.355 1.264c-.49 1.74-.81 2.89-.951 3.71l-.025.153.135-.076c.72-.417 1.688-1.117 3.151-2.18zm0 2.473-.238.173c-2.85 2.069-4.274 3.103-5.224 2.817a2 2 0 0 1-1.02-.71c-.599-.791-.122-2.486.83-5.874l-.1-.081C3.307 11.896 1.835 10.7 2.016 9.561a2 2 0 0 1 .199-.605c.53-1.024 2.424-1.115 6.213-1.297 1.435-3.683 2.152-5.525 3.37-5.649q.202-.02.406 0c1.218.124 1.935 1.966 3.37 5.649 3.789.182 5.683.273 6.213 1.297q.148.287.2.605c.18 1.139-1.292 2.335-4.235 4.727l-.099.08c.952 3.39 1.429 5.084.83 5.875a2 2 0 0 1-1.02.71c-.95.286-2.375-.748-5.224-2.817z"/></svg>