<svg xmlns="http://www.w3.org/2000/svg" viewBox="0 0 44 44"><path fill-rule="evenodd" d="M17.312 10.902a14.7 14.7 0 0 0 5.191-2.426 1.208 1.208 0 0 0 0-1.952 14.7 14.7 0 0 0-5.19-2.426 3.4 3.4 0 0 0-1.625 0 14.7 14.7 0 0 0-5.192 2.426 1.208 1.208 0 0 0 0 1.952 14.7 14.7 0 0 0 5.192 2.426c.264.065.537.098.81.098H9.665A3.664 3.664 0 0 0 6 14.664V31.5A1.5 1.5 0 0 0 7.5 33h2a1.5 1.5 0 0 0 1.5-1.5V31h4v.5a1.5 1.5 0 0 0 1.5 1.5h4a1.5 1.5 0 0 0 1.5-1.5V31h4v.5a1.5 1.5 0 0 0 1.5 1.5h4a1.5 1.5 0 0 0 1.5-1.5v-.682q.24-.048.479-.11l1.263-.327c2.284-.59 4.44-1.986 5.062-4.261.12-.44.196-.877.196-1.274 0-.591-.042-1.31-.114-2.1-.58-6.44-5.665-11.377-12.127-11.649C26.32 11.037 24.732 11 23 11h-6.497c.272 0 .545-.033.81-.098M9.666 14H23c1.69 0 3.234.036 4.633.094 3.477.147 6.436 2.051 8.035 4.906H29.5a1.5 1.5 0 0 0 0 3h7q.129 0 .252-.021.099.509.147 1.037c.067.746.101 1.365.101 1.83 0 .039-.012.194-.09.484-.213.78-1.118 1.682-2.919 2.147l-1.263.327a6.2 6.2 0 0 1-1.542.196H9v-6h12.5a1.5 1.5 0 0 0 0-3H9v-4.335c0-.367.297-.665.666-.665"/><path d="M7.5 35a1.5 1.5 0 0 0 0 3h31a1.5 1.5 0 0 0 0-3z"/></svg>