<svg xmlns="http://www.w3.org/2000/svg" viewBox="0 0 24 24"><path d="m12.244 3.47-.052-.041a7.5 7.5 0 0 0-2.753-1.372 1.7 1.7 0 0 0-.877 0A7.5 7.5 0 0 0 5.81 3.43l-.052.041a.674.674 0 0 0 0 1.06l.052.04a7.5 7.5 0 0 0 2.753 1.372c.288.076.59.076.877 0a7.5 7.5 0 0 0 2.753-1.371l.052-.042a.674.674 0 0 0 0-1.059"/><path fill-rule="evenodd" d="M3 7.999C3 6.894 3.895 6 5 6h7.5q1.533.002 2.795.06c3.527.153 6.309 2.84 6.637 6.355.043.453.068.864.068 1.2 0 .228-.046.479-.119.732-.351 1.231-1.523 1.983-2.764 2.299l-.785.2a5 5 0 0 1-.335.073L18 17a1 1 0 0 1-1 1h-2a1 1 0 0 1-1-1h-2a1 1 0 0 1-1 1H9a1 1 0 0 1-1-1H6a1 1 0 0 1-1 1H4a1 1 0 0 1-1-1zM5 10V8h7.5c.993 0 1.896.022 2.708.057A4.92 4.92 0 0 1 18.944 10H16a1 1 0 1 0 0 2h3.85q.062.295.091.601c.04.42.059.759.059 1.006-.026.271-.181.488-.392.652-.233.18-.572.344-.984.449l-.785.2q-.365.092-.74.092H5v-3h6a1 1 0 1 0 0-2z"/><path d="M4 19a1 1 0 1 0 0 2h17a1 1 0 1 0 0-2z"/></svg>