<svg xmlns="http://www.w3.org/2000/svg" viewBox="0 0 44 44"><path d="M17.312 10.902a14.7 14.7 0 0 0 5.191-2.426 1.208 1.208 0 0 0 0-1.952 14.7 14.7 0 0 0-5.19-2.426 3.4 3.4 0 0 0-1.625 0 14.7 14.7 0 0 0-5.192 2.426 1.208 1.208 0 0 0 0 1.952 14.7 14.7 0 0 0 5.192 2.426c.264.065.537.098.81.098H9.665A3.664 3.664 0 0 0 6 14.664V19h15.5a1.5 1.5 0 0 1 0 3H6v9.5A1.5 1.5 0 0 0 7.5 33h2a1.5 1.5 0 0 0 1.5-1.5V31h4v.5a1.5 1.5 0 0 0 1.5 1.5h4a1.5 1.5 0 0 0 1.5-1.5V31h4v.5a1.5 1.5 0 0 0 1.5 1.5h4a1.5 1.5 0 0 0 1.5-1.5v-.682q.24-.048.479-.11l1.263-.327c2.284-.59 4.44-1.986 5.062-4.261.12-.44.196-.877.196-1.274 0-.591-.042-1.31-.114-2.1q-.033-.376-.088-.746H29.5a1.5 1.5 0 0 1 0-3h9.488c-1.826-4.524-6.093-7.687-11.229-7.903C26.32 11.037 24.732 11 23 11h-6.497c.272 0 .545-.033.81-.098M7.5 35a1.5 1.5 0 0 0 0 3h31a1.5 1.5 0 0 0 0-3z"/></svg>