<svg xmlns="http://www.w3.org/2000/svg" viewBox="0 0 32 32"><path fill-rule="evenodd" d="m12.557 3.07.082.02a9.8 9.8 0 0 1 3.507 1.686.917.917 0 0 1 0 1.448A9.8 9.8 0 0 1 12.64 7.91l-.082.02a2.3 2.3 0 0 1-.555.07H16.5c1.311 0 2.51.03 3.594.077 4.695.207 8.353 3.811 8.8 8.49.066.688.106 1.314.106 1.818 0 .314-.063.662-.16 1.011-.462 1.662-2.022 2.696-3.69 3.136l-.94.248-.213.052A1.25 1.25 0 0 1 22.75 24h-3a1.25 1.25 0 0 1-1.225-1h-2.55c-.116.57-.62 1-1.225 1h-3a1.25 1.25 0 0 1-1.225-1h-2.55c-.116.57-.62 1-1.225 1h-1.5C4.56 24 4 23.44 4 22.75V10.665A2.666 2.666 0 0 1 6.667 8h5.331a2.3 2.3 0 0 1-.555-.07l-.082-.02a9.8 9.8 0 0 1-3.507-1.686.917.917 0 0 1 0-1.448A9.8 9.8 0 0 1 11.36 3.09l.082-.02a2.3 2.3 0 0 1 1.114 0m-5.89 7.43H16.5c1.274 0 2.436.028 3.484.075a6.64 6.64 0 0 1 5.251 2.925H21.25a1.25 1.25 0 0 0 0 2.5h5.034q.082.393.122.804c.062.655.094 1.191.094 1.58q.002.005-.01.09-.016.096-.058.252c-.125.447-.674 1.06-1.919 1.388l-.94.248a4.2 4.2 0 0 1-1.06.138H6.5V16h8.25a1.25 1.25 0 0 0 0-2.5H6.5v-2.834c0-.092.074-.166.167-.166"/><path d="M5.25 25.5a1.25 1.25 0 0 0 0 2.5h22.5a1.25 1.25 0 0 0 0-2.5z"/></svg>