<svg xmlns="http://www.w3.org/2000/svg" viewBox="0 0 24 24"><path d="m12.245 3.47-.053-.041a7.5 7.5 0 0 0-2.753-1.372 1.7 1.7 0 0 0-.877 0A7.5 7.5 0 0 0 5.81 3.43l-.052.041a.674.674 0 0 0 0 1.06l.052.04a7.5 7.5 0 0 0 2.753 1.372c.288.076.59.076.877 0a7.5 7.5 0 0 0 2.753-1.371l.053-.042a.674.674 0 0 0 0-1.059"/><path d="M5 6h7.5q1.533.002 2.795.06A6.91 6.91 0 0 1 21.271 10H16a1 1 0 1 0 0 2h5.882q.03.205.05.415c.043.453.068.864.068 1.2 0 .228-.046.479-.119.732-.351 1.231-1.523 1.983-2.764 2.299l-.785.2a5 5 0 0 1-.335.073L18 17a1 1 0 0 1-1 1h-2a1 1 0 0 1-1-1h-2a1 1 0 0 1-1 1H9a1 1 0 0 1-1-1H6a1 1 0 0 1-1 1H4a1 1 0 0 1-1-1v-5h8a1 1 0 1 0 0-2H3V7.999C3 6.894 3.895 6 5 6M4 19a1 1 0 0 0 0 2h17a1 1 0 1 0 0-2z"/></svg>