<svg xmlns="http://www.w3.org/2000/svg" viewBox="0 0 16 16"><path fill-rule="evenodd" d="m5.81 4.5 1.1-1.806c.484-.796.726-1.194 1.086-1.194s.603.398 1.088 1.194L10.183 4.5h2.278c.879 0 1.319 0 1.482.276s-.06.642-.506 1.375L12.312 8l1.125 1.849c.446.733.67 1.1.506 1.375-.163.276-.602.276-1.482.276h-2.279l-1.099 1.806c-.484.796-.726 1.194-1.087 1.194-.36 0-.603-.398-1.087-1.194L5.81 11.5H3.532c-.88 0-1.319 0-1.482-.276s.06-.642.506-1.375L3.68 8 2.555 6.151c-.446-.733-.669-1.1-.506-1.375.163-.276.603-.276 1.483-.276zm1.756 0 .43-.707.43.707zM4.558 6.558 4.22 6h.679zM5.436 8l1.218-2H9.34l1.216 2-1.217 2H6.653zm-.878 1.443L4.22 10h.677zM7.566 11.5l.43.707.43-.707zm3.529-1.5h.678l-.339-.558zm.34-3.443L11.772 6h-.678z"/></svg>