<svg xmlns="http://www.w3.org/2000/svg" viewBox="0 0 16 16"><path fill-rule="evenodd" d="M5 3.5c0-.3.027-.588.067-.85.077-.511.116-.767.418-1.075s.577-.354 1.128-.448C7.03 1.056 7.512 1 8 1s.971.056 1.387.127c.55.094.826.14 1.128.448s.341.564.418 1.074c.04.263.067.552.067.85h2.777c.415 0 .723.336.723.75 0 .387-.266.706-.642.746A30 30 0 0 1 14 8.001c0 1.265-.07 2.342-.165 3.23-.137 1.26-.205 1.89-.983 2.668-.777.777-1.41.845-2.674.982a20 20 0 0 1-2.178.12 20 20 0 0 1-2.178-.12c-1.265-.137-1.897-.205-2.674-.982-.778-.777-.846-1.408-.983-2.669A30 30 0 0 1 2 8c0-1.16.058-2.162.142-3.005-.376-.04-.642-.359-.642-.745 0-.415.308-.75.723-.75zm3-1c-.38 0-.775.044-1.135.105-.125.022-.21.036-.28.05-.01.055-.02.124-.035.218-.03.204-.05.417-.05.627h3c0-.21-.02-.423-.05-.627l-.034-.218c-.07-.014-.156-.028-.281-.05A7 7 0 0 0 8 2.5M6.667 7.25a.75.75 0 0 1 .75.75v2.667a.75.75 0 0 1-1.5 0V8a.75.75 0 0 1 .75-.75m2.666 0a.75.75 0 0 1 .75.75v2.667a.75.75 0 0 1-1.5 0V8a.75.75 0 0 1 .75-.75"/></svg>