<svg xmlns="http://www.w3.org/2000/svg" viewBox="0 0 16 16"><path d="M6.667 7.25a.75.75 0 0 1 .75.75v2.667a.75.75 0 0 1-1.5 0V8a.75.75 0 0 1 .75-.75m2.666 0a.75.75 0 0 1 .75.75v2.667a.75.75 0 0 1-1.5 0V8a.75.75 0 0 1 .75-.75"/><path fill-rule="evenodd" d="M11 3.497a6 6 0 0 0-.067-.848c-.077-.51-.116-.766-.418-1.074s-.577-.354-1.128-.448A8.4 8.4 0 0 0 8 1c-.488 0-.971.056-1.387.127-.55.094-.826.14-1.128.448s-.341.564-.418 1.074A6 6 0 0 0 5 3.497H2.212c-.415 0-.712.335-.712.75 0 .39.26.711.642.746A30 30 0 0 0 2 8c0 1.265.069 2.343.165 3.23.137 1.26.205 1.891.983 2.668.777.777 1.41.846 2.674.983.656.07 1.391.12 2.178.12s1.521-.05 2.178-.12c1.265-.137 1.897-.206 2.674-.983.778-.777.846-1.407.983-2.668C13.93 10.343 14 9.265 14 8c0-1.161-.058-2.164-.142-3.007.382-.035.642-.356.642-.746 0-.415-.297-.75-.712-.75zM8 2.5c-.38 0-.775.044-1.135.105-.125.022-.21.036-.28.05-.01.055-.02.124-.035.218-.03.203-.05.415-.05.624h3c0-.21-.02-.42-.05-.624l-.034-.218c-.07-.014-.156-.028-.281-.05A7 7 0 0 0 8 2.5M3.5 8c0-1.18.063-2.181.15-3.003h8.7c.087.822.15 1.823.15 3.003 0 1.21-.066 2.234-.156 3.068-.074.678-.114.984-.19 1.222-.05.16-.124.31-.362.548-.238.237-.388.311-.549.362-.24.076-.547.116-1.226.19A19 19 0 0 1 8 13.5c-.726 0-1.407-.044-2.017-.11-.68-.074-.987-.114-1.227-.19-.16-.05-.31-.125-.548-.362-.238-.239-.312-.388-.363-.548-.076-.238-.115-.544-.189-1.222A29 29 0 0 1 3.5 8"/><path fill-rule="evenodd" d="M7.417 8a.75.75 0 0 0-1.5 0v2.667a.75.75 0 0 0 1.5 0zm2.666 0a.75.75 0 0 0-1.5 0v2.667a.75.75 0 0 0 1.5 0z"/></svg>