<svg xmlns="http://www.w3.org/2000/svg" viewBox="0 0 24 24"><path fill-rule="evenodd" d="M20 5h-4q-.001-.347-.04-.671c-.08-.704-.12-1.055-.598-1.545s-.89-.546-1.714-.661A12 12 0 0 0 12 2c-.574 0-1.142.052-1.648.123-.824.115-1.236.172-1.714.661-.477.49-.518.841-.598 1.545Q8 4.653 8 5H4a1 1 0 0 0 0 2h.255q-.044.434-.087.946A47 47 0 0 0 4 12c0 1.55.068 2.903.168 4.056.175 2.024.263 3.036 1.557 4.325s2.264 1.37 4.205 1.532a25 25 0 0 0 4.14 0c1.94-.161 2.911-.242 4.205-1.532 1.294-1.289 1.382-2.301 1.557-4.325.1-1.153.168-2.506.168-4.056a47 47 0 0 0-.255-5H20a1 1 0 1 0 0-2m-9.372-.896C11.069 4.042 11.542 4 12 4s.93.042 1.372.104a13 13 0 0 1 .556.087c.012.083.025.186.045.366Q14 4.782 14 5h-4q0-.218.027-.443c.02-.18.033-.283.046-.366l.085-.017c.115-.02.253-.04.47-.07M10 11a1 1 0 0 1 1 1v4a1 1 0 0 1-2 0v-4a1 1 0 0 1 1-1m4 0a1 1 0 0 1 1 1v4a1 1 0 0 1-2 0v-4a1 1 0 0 1 1-1"/></svg>