<svg xmlns="http://www.w3.org/2000/svg" viewBox="0 0 24 24"><path d="M10 11a1 1 0 0 1 1 1v4a1 1 0 0 1-2 0v-4a1 1 0 0 1 1-1m4 0a1 1 0 0 1 1 1v4a1 1 0 0 1-2 0v-4a1 1 0 0 1 1-1"/><path fill-rule="evenodd" d="M16 5h4a1 1 0 1 1 0 2h-.255q.044.434.087.946C19.932 9.099 20 10.45 20 12s-.068 2.903-.168 4.056c-.175 2.024-.263 3.036-1.557 4.325s-2.264 1.37-4.205 1.532a25 25 0 0 1-4.14 0c-1.94-.161-2.911-.242-4.205-1.532-1.294-1.289-1.381-2.301-1.557-4.325A47 47 0 0 1 4 12a47 47 0 0 1 .255-5H4a1 1 0 0 1 0-2h4q.001-.347.04-.671c.08-.704.12-1.055.598-1.545s.89-.546 1.714-.661C10.858 2.053 11.426 2 12 2s1.142.052 1.648.123c.824.115 1.236.172 1.714.661.477.49.518.841.598 1.545Q16 4.653 16 5m-4-1c-.458 0-.93.042-1.372.104a13 13 0 0 0-.556.087 10 10 0 0 0-.045.366Q10 4.782 10 5h4q0-.218-.027-.443a10 10 0 0 0-.046-.366l-.085-.017c-.115-.02-.253-.04-.47-.07A10 10 0 0 0 12 4M6.16 8.12c.04-.464.073-.826.108-1.12h11.464A45 45 0 0 1 18 12c0 1.492-.065 2.787-.16 3.883-.094 1.078-.149 1.601-.278 2.022-.097.312-.25.612-.699 1.06-.46.458-.755.606-1.043.696-.393.123-.879.173-1.916.26a23 23 0 0 1-3.808 0c-1.037-.087-1.522-.137-1.916-.26-.288-.09-.584-.238-1.043-.696-.449-.448-.602-.748-.699-1.06-.13-.42-.184-.944-.278-2.022A45 45 0 0 1 6 12c0-1.49.065-2.785.16-3.88"/></svg>