<svg xmlns="http://www.w3.org/2000/svg" viewBox="0 0 16 16"><path d="M3.267 1.267c-.189.189-.207.385-.244.776A5 5 0 0 0 3 2.5c0 .155.009.31.023.457.037.391.055.587.244.776s.385.207.776.244Q4.266 4 4.5 4q.234-.001.457-.023c.391-.037.587-.055.776-.244s.207-.385.244-.776C5.991 2.81 6 2.655 6 2.5s-.009-.31-.023-.457c-.037-.391-.055-.587-.244-.776s-.385-.207-.776-.244A5 5 0 0 0 4.5 1q-.234.001-.457.023c-.391.037-.587.055-.776.244m7 0c-.189.189-.207.385-.244.776A5 5 0 0 0 10 2.5c0 .155.009.31.023.457.037.391.055.587.244.776s.385.207.777.244c.146.014.301.023.456.023s.31-.009.457-.023c.391-.037.587-.055.776-.244s.207-.385.244-.776c.014-.147.023-.302.023-.457s-.009-.31-.023-.457c-.037-.391-.055-.587-.244-.776s-.385-.207-.777-.244A5 5 0 0 0 11.5 1c-.155 0-.31.009-.457.023-.391.037-.587.055-.776.244m0 5.5c-.189.189-.207.385-.244.776A5 5 0 0 0 10 8c0 .155.009.31.023.457.037.391.055.587.244.776s.385.207.777.244c.146.014.301.023.456.023s.31-.009.457-.023c.391-.037.587-.055.776-.244s.207-.385.244-.776Q12.999 8.234 13 8q-.001-.234-.023-.457c-.037-.391-.055-.587-.244-.776s-.385-.207-.777-.244A5 5 0 0 0 11.5 6.5c-.155 0-.31.009-.457.023-.391.037-.587.055-.776.244m-.244 6.277c.037-.392.055-.588.244-.777s.385-.207.777-.244c.146-.014.301-.023.456-.023s.31.009.457.023c.391.037.587.055.776.244s.207.385.244.777c.014.146.023.301.023.456s-.009.31-.023.457c-.037.391-.055.587-.244.776s-.385.207-.777.244A5 5 0 0 1 11.5 15c-.155 0-.31-.009-.457-.023-.391-.037-.587-.055-.776-.244s-.207-.385-.244-.777A5 5 0 0 1 10 13.5c0-.155.009-.31.023-.457m-7-5.5c.037-.391.055-.587.244-.776s.385-.207.776-.244Q4.266 6.5 4.5 6.5q.234.001.457.023c.391.037.587.055.776.244s.207.385.244.776Q6 7.766 6 8c0 .155-.009.31-.023.457-.037.391-.055.587-.244.776s-.385.207-.776.244A5 5 0 0 1 4.5 9.5q-.234-.001-.457-.023c-.391-.037-.587-.055-.776-.244s-.207-.385-.244-.776A5 5 0 0 1 3 8q.001-.234.023-.457m.244 4.724c-.189.189-.207.385-.244.777A5 5 0 0 0 3 13.5c0 .155.009.31.023.457.037.391.055.587.244.776s.385.207.776.244Q4.266 15 4.5 15q.234-.001.457-.023c.391-.037.587-.055.776-.244s.207-.385.244-.777c.014-.146.023-.301.023-.456s-.009-.31-.023-.457c-.037-.391-.055-.587-.244-.776s-.385-.207-.776-.244A5 5 0 0 0 4.5 12q-.234.001-.457.023c-.391.037-.587.055-.776.244"/></svg>