<svg xmlns="http://www.w3.org/2000/svg" viewBox="0 0 24 24"><path d="M12.106 3.553a1 1 0 0 1 1.341-.447L19.237 6H21a1 1 0 1 1 0 2h-1.98a1 1 0 0 1-.489-.116l-5.978-2.99a1 1 0 0 1-.447-1.341"/><path fill-rule="evenodd" d="M12 8.231c.54-.11 1-.486 1-1.038a1 1 0 0 0-1-1s-.227.034-.358.066c-1.287.313-2.323.866-3.154 1.4-.312.2-.595.397-.847.575l-.144.102c-.195.138-.364.257-.522.363-.197.13-.34.213-.447.262A1 1 0 0 1 6.427 9h-1.59a2.13 2.13 0 0 0-2.13 2.13v1.455c-.42.23-.707.676-.707 1.19v.984q0 .497.027.87c.09 1.36 1.174 2.14 2.292 2.266A15 15 0 0 0 5.952 18h.174a4.002 4.002 0 0 0 7.748 0H21a1 1 0 1 0 0-2h-7.126a4.002 4.002 0 0 0-7.748 0h-.174c-.452 0-.957-.04-1.407-.092a.72.72 0 0 1-.409-.16.35.35 0 0 1-.114-.252A12 12 0 0 1 4 14.759v-.502c.421-.229.707-.676.707-1.19V11.13a.13.13 0 0 1 .13-.13h1.607c.352 0 .666-.106.914-.22a5 5 0 0 0 .724-.416c.186-.123.384-.264.58-.403l.132-.093c.246-.174.5-.351.774-.526.684-.44 1.477-.861 2.432-1.111M10 15a2 2 0 1 0 0 4 2 2 0 0 0 0-4"/></svg>