<svg xmlns="http://www.w3.org/2000/svg" viewBox="0 0 44 44"><path d="M24.166 6.156a1.5 1.5 0 0 0-1.332 2.688l11.1 5.5a1.5 1.5 0 0 0 .666.155h3.9a1.5 1.5 0 1 0 0-3h-3.549z"/><path fill-rule="evenodd" d="M23.5 13.373a1.5 1.5 0 0 1-1.27 1.483c-1.89.455-3.44 1.286-4.76 2.149-.496.325-.959.653-1.402.972l-.239.172c-.354.256-.707.51-1.037.733a9 9 0 0 1-1.262.742c-.428.199-.95.376-1.53.376H8.534a.534.534 0 0 0-.534.535v3.523a2 2 0 0 1-1 1.732v1.176c0 .509.015.937.037 1.296.032.497.386.96 1.26 1.055.912.1 1.942.182 2.817.182h.047a7.003 7.003 0 0 1 13.678 0H38.5a1.5 1.5 0 1 1 0 3H24.839a7.003 7.003 0 0 1-13.678 0h-.047c-1.034 0-2.188-.096-3.143-.2-1.93-.21-3.781-1.531-3.928-3.848A24 24 0 0 1 4 26.966v-1.909a2 2 0 0 1 1-1.732v-2.79A3.534 3.534 0 0 1 8.534 17h3.462a1 1 0 0 0 .27-.097c.214-.1.486-.262.844-.504.29-.196.597-.418.949-.672l.257-.185c.452-.326.958-.685 1.513-1.048 1.546-1.01 3.482-2.055 5.906-2.603l.001.005a1.5 1.5 0 0 1 1.764 1.477M14 31a4 4 0 1 1 8 0 4 4 0 0 1-8 0"/></svg>