<svg xmlns="http://www.w3.org/2000/svg" viewBox="0 0 32 32"><path d="M16.166 4.628a1.25 1.25 0 0 1 1.706-.462L25.433 8.5h2.317a1.25 1.25 0 1 1 0 2.5H25.1a1.25 1.25 0 0 1-.621-.166l-7.85-4.5a1.25 1.25 0 0 1-.463-1.706"/><path fill-rule="evenodd" d="M16.346 10.951a1.25 1.25 0 0 0-.685-2.405c-1.708.384-3.08 1.085-4.182 1.765-.403.25-.771.496-1.099.718l-.186.127c-.254.173-.474.323-.68.455-.513.328-.705.38-.733.388L8.778 12H6.719A2.72 2.72 0 0 0 4 14.72v2.045c-.59.281-1 .883-1 1.582v1.24q0 .524.024.954c.101 1.956 1.661 3.206 3.387 3.368.531.05 1.123.09 1.689.09a5.002 5.002 0 0 0 9.8.001h9.85a1.25 1.25 0 1 0-.05-2.499h-9.93a5.002 5.002 0 0 0-9.54-.001h-.091c-.473 0-.995-.033-1.494-.08-.72-.068-1.098-.51-1.124-1.009q-.019-.362-.02-.825v-.657c.591-.281 1-.884 1-1.582V14.72a.22.22 0 0 1 .22-.22h2.058c.812 0 1.562-.45 2.082-.783.24-.154.498-.329.754-.503l.171-.117c.32-.217.652-.439 1.008-.659.978-.604 2.132-1.19 3.553-1.487M10.5 23a2.5 2.5 0 1 1 5 0 2.5 2.5 0 0 1-5 0"/></svg>