<svg xmlns="http://www.w3.org/2000/svg" viewBox="0 0 24 24"><path fill-rule="evenodd" d="M15.949 8.252c-.752-.136-1.637-.175-2.76-.225a27 27 0 0 0-2.379 0c-2.648.117-3.973.175-5.355 1.592-1.381 1.416-1.405 2.629-1.452 5.054a17 17 0 0 0 0 .654c.047 2.425.07 3.638 1.452 5.054s2.707 1.475 5.355 1.592a27 27 0 0 0 2.38 0c2.648-.117 3.973-.175 5.355-1.592 1.381-1.416 1.405-2.629 1.452-5.054a17 17 0 0 0 0-.654c-.047-2.425-.07-3.638-1.453-5.054a5.4 5.4 0 0 0-.563-.506A1 1 0 0 0 17.983 9a35 35 0 0 0-.03-.724c-.112-2.13-.168-3.196-1.23-4.472a7 7 0 0 0-.854-.812C14.539 2 13.692 2 12 2s-2.582 0-3.912.992a7 7 0 0 0-.855.812c-.282.34-.493.663-.653.997a.8.8 0 0 0-.08.336c-.003.465.434.863.965.863.468 0 .863-.326 1.138-.704q.076-.104.168-.214l.072-.076a6 6 0 0 1 .44-.41h.001c.48-.358.805-.462 1.058-.515C10.686 4.01 11.094 4 12 4s1.314.009 1.658.081c.253.053.535.157 1.015.514v.001q.01.006.08.068a6 6 0 0 1 .432.418h.001c.571.688.65 1.088.762 3.17M12 13.602a1.399 1.399 0 1 1 0 2.797 1.399 1.399 0 0 1 0-2.798"/></svg>