<svg xmlns="http://www.w3.org/2000/svg" viewBox="0 0 16 16"><path fill-rule="evenodd" d="M9.203 5.034c.471.026.884.049 1.252.084-.067-1.171-.118-1.386-.428-1.806l-.065-.073a4.4 4.4 0 0 0-.446-.411c-.319-.21-.483-.261-.606-.286C8.733 2.506 8.527 2.5 8 2.5c-.528 0-.733.006-.91.042-.123.025-.287.077-.606.286l-.077.061a4 4 0 0 0-.37.35c-.202.217-.376.261-.678.261-.57 0-.972-.547-.643-1.011l.05-.068a5 5 0 0 1 .895-.847C6.535 1 7.023 1 8 1s1.465 0 2.34.574c.241.159.723.615.895.847.62.842.656 1.49.728 2.786l.012.249c.354.156.673.38.994.71.953.977.977 1.816 1.026 3.493a12 12 0 0 1 0 .681c-.049 1.678-.073 2.518-1.026 3.494-.952.977-1.89 1.029-3.766 1.132A22 22 0 0 1 8 15c-.404 0-.808-.013-1.203-.034-1.876-.103-2.814-.155-3.766-1.132-.953-.976-.977-1.815-1.026-3.493a12 12 0 0 1 0-.682c.049-1.677.073-2.516 1.026-3.493.952-.977 1.89-1.029 3.766-1.132A22 22 0 0 1 8 5c.404 0 .808.013 1.203.034M8 11a1 1 0 1 0 0-2 1 1 0 0 0 0 2"/></svg>