<svg xmlns="http://www.w3.org/2000/svg" viewBox="0 0 24 24"><path d="M13.25 15a1.25 1.25 0 1 0-2.5 0 1.25 1.25 0 0 0 2.5 0"/><path fill-rule="evenodd" d="M13.19 8.027c1.122.05 2.007.089 2.758.225-.111-2.082-.19-2.482-.762-3.17h-.001l-.072-.076a7 7 0 0 0-.36-.342q-.07-.062-.08-.068c-.48-.358-.762-.462-1.015-.515C13.314 4.01 12.906 4 12 4s-1.314.009-1.658.081c-.253.053-.578.157-1.058.514v.001l-.08.068a6 6 0 0 0-.36.342q-.066.067-.072.075l-.001.001a4 4 0 0 0-.168.214c-.275.378-.67.704-1.138.704-.53 0-.968-.398-.965-.863q0-.166.08-.336c.16-.334.37-.658.653-.997a7 7 0 0 1 .855-.812C9.418 2 10.308 2 12 2s2.538 0 3.868.992c.222.166.68.6.856.812 1.06 1.276 1.117 2.341 1.229 4.472q.019.358.03.724a1 1 0 0 1-.002.113q.283.218.563.506c1.382 1.416 1.406 2.629 1.453 5.054a17 17 0 0 1 0 .654c-.047 2.425-.07 3.638-1.453 5.054-1.381 1.417-2.706 1.475-5.354 1.592a27 27 0 0 1-2.38 0c-2.648-.117-3.973-.175-5.355-1.592-1.381-1.416-1.405-2.629-1.452-5.054a17 17 0 0 1 0-.654c.047-2.425.07-3.638 1.452-5.054s2.707-1.475 5.355-1.592a27 27 0 0 1 2.38 0M12 10q-.55 0-1.102.025c-1.394.062-2.161.104-2.76.252-.471.116-.818.295-1.25.738-.458.469-.618.808-.712 1.21-.126.532-.148 1.202-.173 2.486a15 15 0 0 0 0 .578c.025 1.284.047 1.954.173 2.485.094.403.254.742.711 1.21.433.444.78.623 1.25.739.6.148 1.367.19 2.761.252a25 25 0 0 0 2.204 0c1.394-.062 2.161-.104 2.76-.252.471-.116.818-.295 1.25-.738.458-.469.618-.808.713-1.21.125-.532.147-1.202.172-2.486a16 16 0 0 0 0-.578c-.025-1.284-.047-1.954-.172-2.485-.095-.403-.255-.742-.712-1.21-.433-.444-.78-.623-1.25-.739-.6-.148-1.367-.19-2.761-.252A25 25 0 0 0 12 10"/></svg>