<svg xmlns="http://www.w3.org/2000/svg" viewBox="0 0 44 44"><path fill-rule="evenodd" d="M29.338 11.219a.33.33 0 0 0-.605-.04l-5.408 10.5a1.5 1.5 0 0 1-2.667 0l-5.407-10.497a.33.33 0 0 0-.605.04L7.021 32.467a.42.42 0 0 0 .06.375c.083.125.179.158.25.158h4.746c.007 0 .056-.003.133-.063a.57.57 0 0 0 .179-.25l.002-.005 2.737-7.685a1.5 1.5 0 0 1 2.792-.088l3.767 8.792c.05.118.124.2.193.248.07.05.113.051.113.051s.042 0 .112-.05a.6.6 0 0 0 .19-.25l.003-.004 3.765-8.787a1.5 1.5 0 0 1 2.792.088l2.74 7.69c.033.095.1.188.179.25.076.06.125.063.132.063h4.762c.071 0 .167-.033.25-.158a.42.42 0 0 0 .06-.375zm-3.272-1.414c1.333-2.587 5.11-2.34 6.095.399l7.64 21.247c.754 2.096-.75 4.55-3.133 4.55h-4.762c-1.527 0-2.711-1.099-3.14-2.314l-.001-.003-1.452-4.075-2.255 5.263-.001.003c-.518 1.217-1.693 2.12-3.051 2.125-1.367.006-2.557-.897-3.08-2.125v-.003L16.67 29.61l-1.451 4.075-.001.002c-.43 1.216-1.613 2.314-3.14 2.314H7.331c-2.383 0-3.887-2.451-3.135-4.547l7.626-21.245c.983-2.74 4.762-2.988 6.095-.4l4.073 7.908z"/></svg>