<svg xmlns="http://www.w3.org/2000/svg" viewBox="0 0 16 16"><path fill-rule="evenodd" d="M13.485 12H2.5v.75a.75.75 0 0 1-1.5 0V8q.002-.659.048-1.266c.054-.721.094-1.264.226-1.734.291-1.034 1.19-1.892 2.226-2.16.473-.123 1.025-.169 1.747-.229A33 33 0 0 1 7.999 2.5c1.03 0 1.953.045 2.753.111.722.06 1.275.106 1.748.228 1.035.268 1.935 1.126 2.226 2.161.132.47.172 1.014.226 1.736Q14.998 7.342 15 8l-.015 4.751a.75.75 0 1 1-1.5 0zM8 4c-.987 0-1.867.043-2.628.106-.818.068-1.228.108-1.548.2-.497.142-.96.593-1.103 1.093-.084.294-.118.668-.176 1.447a16 16 0 0 0-.043.967c.446-.33.906-.481 1.501-.574v-.572c0-.369.298-.667.667-.667h6.666c.368 0 .667.298.667.667v.573c.593.092 1.052.244 1.497.573q-.007-.497-.043-.966c-.058-.779-.092-1.154-.176-1.448-.143-.5-.605-.95-1.103-1.093-.32-.092-.731-.132-1.549-.2A32 32 0 0 0 7.999 4m5.37 6.5H2.631c.029-.249.06-.433.106-.594A1.67 1.67 0 0 1 3.852 8.8c.335-.093.764-.134 1.604-.2.741-.06 1.593-.1 2.543-.1s1.802.04 2.544.1c.84.066 1.27.107 1.605.2a1.67 1.67 0 0 1 1.116 1.106c.045.161.077.345.105.594"/></svg>