<svg xmlns="http://www.w3.org/2000/svg" viewBox="0 0 17 17"><path fill-rule="evenodd" d="M13.405 4.187q.105.291.192.593h.528a.744.744 0 0 1 .107 1.48c.062.289.106.627.106 1.01v2.556a.797.797 0 1 1-1.594 0v-.265H5.308v.265a.797.797 0 0 1-1.594 0V7.27c0-.383.044-.721.106-1.01a.744.744 0 0 1 .107-1.48h.527q.087-.302.192-.593c.388-1.09.582-1.634 1.262-2.114s1.411-.48 2.874-.48h.487c1.462 0 2.193 0 2.873.48s.875 1.024 1.263 2.114m-6.143-.954c.322-.043.748-.046 1.52-.046h.487c.771 0 1.198.003 1.52.046.257.034.35.083.435.143a.75.75 0 0 1 .262.291c.108.197.21.47.418 1.055q.03.084.057.166a37 37 0 0 0-2.938-.108 37 37 0 0 0-2.934.108l.058-.166c.208-.586.31-.858.418-1.055a.75.75 0 0 1 .262-.291c.084-.06.177-.109.435-.143m1.761 3.14c-1.646 0-2.823.092-3.548.174a.4.4 0 0 0-.091.02 3.2 3.2 0 0 0-.076.703v.697h7.436V7.27c0-.274-.032-.51-.076-.702a.4.4 0 0 0-.092-.02c-.727-.083-1.905-.174-3.553-.174"/><path d="m4.952 15.798.803-4.587c.183-.164.333-.363.44-.587h1.28l-.93 5.312H4.94a1 1 0 0 1 .012-.138m-3.358.138q0-.096.024-.194l1.258-5.032c.279.516.795.885 1.402.961l-1.066 4.265z"/></svg>