<svg xmlns="http://www.w3.org/2000/svg" viewBox="0 0 16 16"><path d="M2.525 8c-.38-.475-.424-1.029-.5-2.003a7.5 7.5 0 0 1 .057-1.718c.104-.703.156-1.055.657-1.53.5-.475.925-.516 1.776-.597C5.385 2.07 6.548 2 8 2s2.616.07 3.485.152c.85.081 1.276.122 1.776.597.501.475.553.827.657 1.531a8 8 0 0 1 .082.97.75.75 0 0 1-1.5 0 6 6 0 0 0-.066-.75 9 9 0 0 0-.064-.4 1 1 0 0 0-.042-.155 1 1 0 0 0-.1-.108.5.5 0 0 0-.09-.074.2.2 0 0 0-.05-.02 2 2 0 0 0-.238-.044 14 14 0 0 0-.507-.053A36 36 0 0 0 8 3.5c-1.404 0-2.52.067-3.343.146-.221.02-.375.036-.507.053a2 2 0 0 0-.237.045.2.2 0 0 0-.05.019.5.5 0 0 0-.091.074 1 1 0 0 0-.106.12 1 1 0 0 0-.036.142 9 9 0 0 0-.064.4A6 6 0 0 0 3.52 5.88c.023.29.04.507.062.693.021.184.042.296.062.37a.4.4 0 0 0 .037.1.4.4 0 0 0 .07.078l.004.004c.019.019.051.05.241.08.183.03.413.041.756.046q.161-.002.337-.001h.161a.75.75 0 0 1 0 1.5h-.207q-.151.003-.29.001a6 6 0 0 0-.757.045c-.19.03-.222.062-.241.08l-.005.005a.4.4 0 0 0-.07.079.4.4 0 0 0-.036.099c-.02.074-.041.186-.062.37-.022.186-.039.402-.062.692q-.02.257-.02.503c0 .31.026.606.066.878.027.185.045.302.064.4a1 1 0 0 0 .042.154.7.7 0 0 0 .1.108c.054.052.083.07.09.074s.017.01.05.019c.04.012.11.027.238.044.132.018.286.033.506.054.546.052 1.22.099 2.023.125l.071-.003a.75.75 0 0 1 .75.75.755.755 0 0 1-.75.756 34 34 0 0 1-2.236-.135c-.85-.08-1.275-.121-1.775-.596s-.553-.827-.657-1.53a7.5 7.5 0 0 1-.057-1.717c.076-.975.119-1.529.5-2.004"/><path d="M6.233 5.333a.9.9 0 1 1-1.8 0 .9.9 0 0 1 1.8 0m-.9 6.234a.9.9 0 1 0 0-1.8.9.9 0 0 0 0 1.8"/><path fill-rule="evenodd" d="M10.5 14.002c-.45 0-.911-.221-1.282-.47a4.5 4.5 0 0 1-.96-.866c-.905-1.127-1.171-2.479-1.243-3.784a5 5 0 0 1-.01-.581 1.16 1.16 0 0 1 .588-.952c.133-.079.309-.157.514-.247.632-.276 1.553-.604 2.393-.604s1.76.328 2.393.604c.205.09.38.168.514.247a1.17 1.17 0 0 1 .588.952 5 5 0 0 1-.01.581c-.072 1.305-.338 2.657-1.243 3.784a4.5 4.5 0 0 1-.96.867c-.37.248-.832.469-1.282.469m-.448-1.716q.197.129.33.18a.6.6 0 0 0 .118.036.6.6 0 0 0 .118-.036q.133-.051.33-.18c.259-.173.492-.394.624-.56.617-.768.85-1.746.915-2.926l.011-.232-.204-.091c-.594-.26-1.278-.48-1.794-.48s-1.2.22-1.793.48l-.205.091.011.232c.065 1.18.298 2.158.915 2.926.133.165.365.387.624.56"/></svg>