<svg xmlns="http://www.w3.org/2000/svg" viewBox="0 0 24 24"><path d="M8 3c-1.235 0-2.27.096-2.989.191-.508.067-.762.101-1.002.327-.241.226-.283.457-.366.918-.078.43-.143.968-.143 1.564s.065 1.133.143 1.564c.083.461.125.692.366.918.24.226.494.26 1.002.327.46.06 1.05.122 1.739.158V19.75a1.25 1.25 0 1 0 2.5 0V8.974a20 20 0 0 0 1.835-.158c.44-.06.66-.091.898-.313.238-.223.278-.432.358-.85A9 9 0 0 0 12.5 6c0-.638-.074-1.208-.16-1.653-.08-.418-.12-.627-.357-.85-.238-.222-.458-.252-.898-.313C10.418 3.09 9.404 3 8 3m5.146 16.204A23 23 0 0 1 13 16.5c0-1.14.068-2.043.146-2.704.1-.855.701-1.546 1.55-1.687q.148-.023.304-.044V6.722C14.426 6.426 14 6 14 6l1-3h2l1 3s-.426.426-1 .722v5.343q.157.02.303.044c.85.141 1.45.832 1.551 1.687.078.661.146 1.564.146 2.704s-.068 2.043-.146 2.704c-.1.855-.7 1.546-1.55 1.687A8 8 0 0 1 16 21a8 8 0 0 1-1.304-.11c-.85-.14-1.45-.83-1.55-1.686"/></svg>