<svg xmlns="http://www.w3.org/2000/svg" viewBox="0 0 44 44"><path d="M14.5 6c-2.665 0-4.643.19-5.92.37-.78.11-1.17.166-1.577.542-.408.377-.489.738-.651 1.462C6.166 9.202 6 10.284 6 11.5s.166 2.298.352 3.126c.162.724.243 1.085.65 1.462.408.376.799.431 1.579.541.933.132 2.241.27 3.919.334V36a2 2 0 1 0 4 0V16.963a39 39 0 0 0 3.92-.334c.78-.11 1.17-.165 1.578-.541.407-.377.488-.739.65-1.463.186-.828.352-1.91.352-3.125s-.166-2.297-.352-3.125c-.162-.724-.242-1.086-.65-1.463-.408-.376-.798-.431-1.579-.541C19.142 6.19 17.165 6 14.5 6m9.755 28.81A42 42 0 0 1 24 30c0-2.029.119-3.635.255-4.81.177-1.519 1.237-2.75 2.745-3.001q.24-.04.5-.074V12.74c-1.128-.521-2-1.407-2-1.407L27.25 6h3.502l1.75 5.333s-.873.887-2.002 1.408v9.318q.532.05 1 .13c1.508.25 2.568 1.482 2.745 3 .136 1.176.255 2.782.255 4.811s-.119 3.635-.255 4.81c-.177 1.518-1.237 2.75-2.744 3-.657.11-1.421.19-2.251.19s-1.594-.08-2.25-.19c-1.508-.25-2.568-1.482-2.745-3"/></svg>