<svg xmlns="http://www.w3.org/2000/svg" viewBox="0 0 24 24"><path fill-rule="evenodd" d="M12 6c-1.492 0-2.786.065-3.882.16-1.078.094-1.602.149-2.022.278-.312.097-.613.25-1.06.699-.458.46-.606.755-.696 1.043-.123.394-.173.879-.26 1.916C4.03 10.695 4 11.333 4 12c0 1.842.231 3.46.463 4.614.072.358.387.73.96.85a1.66 1.66 0 0 0 1.526-.488 63 63 0 0 1 1.959-1.968c.307-.292.62-.575.895-.797.133-.107.3-.233.477-.342.088-.055.217-.129.374-.195.126-.053.437-.174.846-.174h1c.409 0 .72.121.846.174.157.066.286.14.374.195.178.109.344.235.477.342.276.222.588.505.895.797a63 63 0 0 1 1.959 1.968c.408.424.988.6 1.527.488.573-.12.888-.492.96-.85A24 24 0 0 0 20 12c0-.666-.03-1.304-.08-1.902-.086-1.038-.137-1.524-.26-1.918-.09-.288-.238-.584-.696-1.043-.447-.449-.747-.602-1.06-.699-.42-.13-.944-.184-2.023-.278A45 45 0 0 0 12 6M7.945 4.168C9.098 4.068 10.45 4 12 4s2.901.068 4.054.168c2.025.175 3.038.263 4.327 1.557s1.37 2.265 1.532 4.207c.054.648.087 1.342.087 2.068 0 2.004-.25 3.756-.501 5.006-.25 1.249-1.265 2.154-2.511 2.415a3.65 3.65 0 0 1-3.38-1.06C14.402 17.102 12.804 15.5 12.5 15.5h-1c-.304 0-1.902 1.603-3.108 2.86a3.65 3.65 0 0 1-3.38 1.061c-1.245-.26-2.26-1.166-2.51-2.414A26 26 0 0 1 2 12c0-.727.033-1.421.087-2.07.162-1.94.243-2.911 1.532-4.205s2.302-1.382 4.326-1.557M15 10.5a1 1 0 1 1-2 0 1 1 0 0 1 2 0m2.5 1a1 1 0 1 0 0-2 1 1 0 0 0 0 2m-1.75-.25a1 1 0 1 1 0 2 1 1 0 0 1 0-2m1-2.5a1 1 0 1 0-2 0 1 1 0 0 0 2 0m-8.5-1a1 1 0 0 1 1 1v.75H10a1 1 0 1 1 0 2h-.75v.75a1 1 0 1 1-2 0v-.75H6.5a1 1 0 1 1 0-2h.75v-.75a1 1 0 0 1 1-1"/></svg>