<svg xmlns="http://www.w3.org/2000/svg" viewBox="0 0 16 16"><path fill-rule="evenodd" d="M8 3c-1.26 0-2.332.056-3.217.134-1.3.115-1.95.173-2.75.955-.8.783-.857 1.365-.97 2.529a13.5 13.5 0 0 0 .213 4.029c.2.987 1.051 1.668 2.062 1.821 1.024.155 2.041-.265 2.752-1.006.632-.659 1.4-1.33 1.91-1.33s1.278.671 1.91 1.33c.71.741 1.728 1.16 2.752 1.006 1.011-.153 1.863-.834 2.062-1.822a13.5 13.5 0 0 0 .213-4.027c-.113-1.165-.17-1.747-.97-2.53s-1.45-.84-2.751-.955A37 37 0 0 0 8 3M3 6.934c0-.407.336-.738.75-.738h.375v-.368c0-.408.336-.738.75-.738s.75.33.75.738v.368H6c.414 0 .75.33.75.738a.744.744 0 0 1-.75.738h-.375v.369a.744.744 0 0 1-.75.737.744.744 0 0 1-.75-.738v-.368H3.75A.744.744 0 0 1 3 6.934m8 .001a.744.744 0 0 0-.75-.737c-.414 0-.75.33-.75.737 0 .408.336.738.75.738s.75-.33.75-.738m1.25-.737c.414 0 .75.33.75.737a.744.744 0 0 1-.75.738.744.744 0 0 1-.75-.738c0-.407.336-.737.75-.737"/></svg>