<svg xmlns="http://www.w3.org/2000/svg" viewBox="0 0 24 24"><path fill-rule="evenodd" d="M12 4c-1.55 0-2.902.068-4.055.168-2.024.175-3.036.263-4.326 1.557S2.25 7.99 2.087 9.93A25 25 0 0 0 2 12c0 2.004.251 3.757.502 5.007.25 1.248 1.265 2.153 2.51 2.414a3.65 3.65 0 0 0 3.38-1.06C9.598 17.102 11.196 15.5 11.5 15.5h1c.304 0 1.902 1.603 3.108 2.86a3.65 3.65 0 0 0 3.38 1.061c1.246-.26 2.26-1.166 2.51-2.415a25 25 0 0 0 .414-7.075c-.16-1.94-.241-2.912-1.53-4.206s-2.303-1.382-4.328-1.557A47 47 0 0 0 12 4m3.5 6.5a1 1 0 1 1-2 0 1 1 0 0 1 2 0m2.5 1a1 1 0 1 0 0-2 1 1 0 0 0 0 2m-1.75-.25a1 1 0 1 1 0 2 1 1 0 0 1 0-2m1-2.5a1 1 0 1 0-2 0 1 1 0 0 0 2 0m-9.5-1a1 1 0 0 1 1 1v.75h.75a1 1 0 1 1 0 2h-.75v.75a1 1 0 1 1-2 0v-.75H6a1 1 0 1 1 0-2h.75v-.75a1 1 0 0 1 1-1"/></svg>