<svg xmlns="http://www.w3.org/2000/svg" viewBox="0 0 16 16"><path fill-rule="evenodd" d="M8 4.475c-1.214 0-2.242.054-3.082.129-.7.061-1.016.096-1.263.17-.165.048-.319.121-.564.361-.263.257-.332.403-.374.53-.067.204-.099.462-.16 1.093a12 12 0 0 0 .19 3.602c.056.274.317.574.82.65.458.07 1.001-.111 1.432-.56.34-.356.755-.754 1.185-1.075.215-.16.465-.326.737-.455A2.5 2.5 0 0 1 8 8.657c.443 0 .82.14 1.079.263.272.13.522.294.737.455.43.32.844.72 1.185 1.075.43.449.975.63 1.433.56.502-.076.763-.377.818-.65a12 12 0 0 0 .19-3.601c-.06-.631-.092-.89-.16-1.093-.041-.128-.11-.274-.373-.53-.245-.241-.4-.314-.564-.363-.247-.073-.564-.108-1.263-.17A35 35 0 0 0 8 4.475m-3.217-1.34A37 37 0 0 1 8 3c1.259 0 2.332.056 3.216.134 1.3.115 1.951.173 2.751.955.8.783.857 1.365.97 2.53a13.5 13.5 0 0 1-.213 4.027c-.199.988-1.05 1.67-2.062 1.822-1.024.155-2.041-.265-2.752-1.006-.632-.659-1.4-1.33-1.91-1.33s-1.278.671-1.91 1.33c-.71.741-1.728 1.16-2.752 1.006-1.011-.153-1.863-.834-2.062-1.821a13.5 13.5 0 0 1-.213-4.03c.113-1.163.17-1.745.97-2.528s1.45-.84 2.75-.955M3.5 6.934c0-.408.336-.739.75-.739h.375v-.368c0-.408.336-.738.75-.738s.75.33.75.738v.368H6.5c.414 0 .75.33.75.738a.744.744 0 0 1-.75.738h-.375v.369a.744.744 0 0 1-.75.737.744.744 0 0 1-.75-.738v-.368H4.25a.744.744 0 0 1-.75-.738m7 0a.744.744 0 0 0-.75-.737c-.414 0-.75.33-.75.737 0 .408.336.738.75.738s.75-.33.75-.738m1.25-.737c.414 0 .75.33.75.737a.744.744 0 0 1-.75.738.744.744 0 0 1-.75-.738c0-.407.336-.737.75-.737"/></svg>