<svg xmlns="http://www.w3.org/2000/svg" viewBox="0 0 44 44"><path fill-rule="evenodd" d="M22 8c-2.713 0-5.09.112-7.126.28-3.723.305-5.584.458-7.966 2.855s-2.516 4.149-2.784 7.652A42 42 0 0 0 4 22.007c0 3.431.432 6.442.873 8.62.46 2.271 2.346 3.883 4.628 4.28a6.41 6.41 0 0 0 5.86-2.045c2.095-2.33 4.863-5.352 5.139-5.352q.534.001 1.05.007c.672.007 1.322.013 1.95-.007.307 0 3.059 3.011 5.14 5.34a6.4 6.4 0 0 0 5.867 2.055c2.278-.396 4.16-2.005 4.62-4.271.44-2.18.873-5.193.873-8.627 0-1.122-.046-2.199-.124-3.216-.267-3.506-.4-5.258-2.783-7.656s-4.245-2.55-7.969-2.856A87 87 0 0 0 22 8m6 10.505a1.5 1.5 0 1 1-3 .001 1.5 1.5 0 0 1 3 0m4.5 1.501a1.5 1.5 0 1 0 0-3 1.5 1.5 0 0 0 0 3m-3 0a1.5 1.5 0 1 1 0 3.001 1.5 1.5 0 0 1 0-3m1.5-4.502a1.5 1.5 0 1 0-3 0 1.5 1.5 0 0 0 3 0m-16-1.5a1.5 1.5 0 0 1 1.5 1.5v1.5H18a1.5 1.5 0 0 1 0 3.002h-1.5v1.501a1.5 1.5 0 1 1-3 0v-1.5H12a1.5 1.5 0 0 1 0-3.002h1.5v-1.501a1.5 1.5 0 0 1 1.5-1.5"/></svg>