<svg xmlns="http://www.w3.org/2000/svg" viewBox="0 0 24 24"><path fill-rule="evenodd" d="M12 3.5c-1.55 0-2.902.068-4.055.168-2.024.176-3.036.263-4.326 1.557S2.25 7.49 2.087 9.43a25 25 0 0 0 0 4.14c.162 1.94.243 2.911 1.532 4.205s2.302 1.382 4.326 1.557c.517.045 1.075.486 1.672.959.734.58 1.528 1.209 2.383 1.209.854 0 1.648-.629 2.383-1.21.597-.472 1.155-.913 1.672-.958 2.025-.175 3.037-.263 4.327-1.557s1.37-2.265 1.532-4.206a25 25 0 0 0 0-4.137c-.162-1.942-.243-2.913-1.532-4.207s-2.302-1.382-4.328-1.557A47 47 0 0 0 12 3.5m-1.998 5a1 1 0 0 0 0 2h1v4a1 1 0 1 0 2 0v-4h1a1 1 0 1 0 0-2z"/></svg>