<svg xmlns="http://www.w3.org/2000/svg" viewBox="0 0 24 24"><path d="M9.002 9.5a1 1 0 0 1 1-1h4a1 1 0 1 1 0 2h-1v4a1 1 0 1 1-2 0v-4h-1a1 1 0 0 1-1-1"/><path fill-rule="evenodd" d="M7.945 3.668A47 47 0 0 1 12 3.5c1.55 0 2.902.068 4.055.168 2.025.175 3.037.263 4.327 1.557s1.37 2.265 1.532 4.207a25 25 0 0 1 0 4.137c-.162 1.941-.243 2.912-1.532 4.206s-2.302 1.382-4.327 1.557c-.518.045-1.075.486-1.672.959-.735.58-1.529 1.209-2.383 1.209s-1.65-.629-2.383-1.21c-.597-.472-1.155-.913-1.672-.958-2.024-.175-3.036-.263-4.326-1.557S2.25 15.51 2.087 13.57a25 25 0 0 1 0-4.14c.162-1.94.243-2.911 1.532-4.205s2.302-1.381 4.326-1.557M12 5.5a45 45 0 0 0-3.882.16c-1.078.094-1.602.149-2.022.278-.312.097-.613.25-1.06.699-.458.46-.606.755-.696 1.043-.123.394-.173.879-.26 1.916a23 23 0 0 0 0 3.808c.087 1.037.137 1.523.26 1.916.09.288.238.584.696 1.043.447.45.748.602 1.06.699.42.13.943.184 2.022.278.49.042 1.021.48 1.591.95.703.58 1.467 1.21 2.29 1.21.824 0 1.588-.63 2.291-1.21.57-.47 1.101-.907 1.592-.95 1.079-.094 1.602-.149 2.023-.278.313-.097.613-.25 1.06-.699.458-.46.606-.755.696-1.043.123-.394.173-.88.26-1.917a23 23 0 0 0 0-3.805c-.087-1.038-.137-1.524-.26-1.918-.09-.288-.238-.584-.696-1.043-.447-.449-.747-.602-1.06-.699-.421-.13-.944-.184-2.024-.278a45 45 0 0 0-3.88-.16"/></svg>