<svg xmlns="http://www.w3.org/2000/svg" viewBox="0 0 24 24"><path fill-rule="evenodd" d="M2 16a1 1 0 0 0 1 1h2.929a6 6 0 0 0 4.243-1.757L12 13.414l1.828 1.829A6 6 0 0 0 17 16.903v.045c.007 1.134.055 1.729.448 1.965.447.27 1.04-.108 2.224-.864l.52-.332.024-.015C21.4 16.945 22 16.563 22 16s-.599-.945-1.784-1.702l-.024-.015-.52-.332c-1.185-.756-1.777-1.134-2.224-.864-.37.222-.434.761-.446 1.768h-.001a4 4 0 0 1-1.758-1.027L13.414 12l1.829-1.828A4 4 0 0 1 17 9.146h.001c.012 1.006.076 1.545.446 1.767.447.27 1.04-.108 2.224-.864l.52-.332.024-.015C21.4 8.945 22 8.563 22 8s-.599-.945-1.784-1.702l-.024-.015-.52-.332c-1.184-.756-1.777-1.134-2.224-.864-.393.236-.441.83-.447 1.965H17v.044a6 6 0 0 0-3.172 1.661L12 10.586l-1.828-1.829A6 6 0 0 0 5.929 7H3a1 1 0 1 0 0 2h2.929a4 4 0 0 1 2.828 1.172L10.586 12l-1.829 1.828A4 4 0 0 1 5.93 15H3a1 1 0 0 0-1 1"/></svg>