<svg xmlns="http://www.w3.org/2000/svg" viewBox="0 0 44 44"><path fill-rule="evenodd" d="M31.004 16.872c.02 1.701.135 2.61.818 2.983.822.45 1.91-.18 4.086-1.44l.404-.235.044-.025C38.778 16.75 40 16.044 40 15s-1.222-1.751-3.644-3.155l-.044-.025-.404-.234c-2.176-1.26-3.264-1.89-4.086-1.441-.766.418-.818 1.512-.822 3.643v.054l-.016.002-.036.005-.037.006-.036.005-.037.005-.037.005-.037.006-.037.005-.038.005-.037.006-.038.005-.037.005-.038.006-.039.005-.038.006-.038.005-.039.006-.039.005-.038.006-.04.005-.039.006-.039.006-.04.005-.04.006-.039.006-.04.005-.04.006-.04.006-.04.006-.041.005-.041.006-.041.006c-2.062.295-3.733 1.469-5.122 2.834-.821.807-1.596 1.736-2.334 2.678-.91-1.165-1.886-2.318-2.952-3.253C17.919 14.992 16.154 14 14 14H5.5a1.5 1.5 0 0 0 0 3H14c1.16 0 2.248.518 3.402 1.53 1.034.907 2.013 2.112 3.049 3.47-1.036 1.358-2.015 2.563-3.049 3.47C16.248 26.482 15.16 27 14 27H5.5a1.5 1.5 0 0 0 0 3H14c2.154 0 3.919-.992 5.38-2.274 1.066-.935 2.043-2.088 2.953-3.253.737.942 1.512 1.87 2.333 2.678 1.39 1.365 3.06 2.54 5.122 2.834l.04.006.042.006.04.005.04.006.04.006.041.006.04.005.04.006.04.006.04.005.038.006.04.006.039.005.038.006.04.005.038.006.038.005.038.006.039.005.038.006.037.005.038.005.037.006.038.005.037.005.037.006.037.005.037.005.036.005.037.006.036.005.016.002v.054c.004 2.131.056 3.225.822 3.643.822.45 1.91-.18 4.086-1.44l.404-.235.044-.025C38.778 30.75 40 30.044 40 29s-1.222-1.751-3.644-3.155l-.044-.025-.404-.234c-2.176-1.26-3.264-1.89-4.086-1.441-.683.373-.799 1.282-.818 2.983h-.003l-.038-.006-.038-.005-.038-.006-.039-.005-.038-.006-.04-.005-.038-.006-.04-.005-.038-.006-.04-.005-.04-.006-.039-.006-.04-.006-.04-.005-.04-.006-.04-.006-.04-.005-.041-.006-.04-.006-.042-.006c-1.155-.165-2.265-.846-3.443-2.004-.872-.857-1.698-1.888-2.555-3.011.857-1.123 1.683-2.154 2.555-3.011 1.178-1.158 2.288-1.839 3.443-2.004l.041-.006.04-.006.041-.006.04-.005.041-.006.04-.006.04-.005.04-.006.04-.006.04-.006.039-.005.039-.006.039-.005.039-.006.038-.005.04-.006.038-.005.038-.006.038-.005.038-.006z"/></svg>