<svg xmlns="http://www.w3.org/2000/svg" viewBox="0 0 24 24"><path fill-rule="evenodd" d="M5 5a1 1 0 0 0 0 2h14a1 1 0 1 0 0-2zm0 12a1 1 0 0 0 0 2h2a1 1 0 0 0 0-2zm-2-5a1 1 0 0 1 1-1h2a1 1 0 1 1 0 2H4a1 1 0 0 1-1-1m9.065.635V19h-1.778v-6.365H8V11h6.313v1.635zm8.328 5.762Q21 17.794 21 16.67q0-.708-.33-1.195-.33-.486-1.065-.695.66-.244.916-.73.266-.488.266-1.079 0-.986-.575-1.472-.575-.5-1.65-.499h-3.566v8h3.566q1.224 0 1.831-.603m-1.66-5.809q.234.186.234.557v.301q0 .406-.234.603t-.66.197h-1.331v-1.855h1.33q.427 0 .66.197m.191 3.177q.245.22.245.603v.383q0 .858-1 .858h-1.427v-2.076h1.427q.51 0 .755.232"/></svg>