<svg xmlns="http://www.w3.org/2000/svg" viewBox="0 0 32 32"><path fill-rule="evenodd" d="m2.2 16.414 3.793 4.583-.447 2.386c-.364 1.945 1.479 3.579 3.381 2.998l.466-.142a22.63 22.63 0 0 1 13.215 0l.465.142c1.902.58 3.745-1.054 3.38-2.999l-.447-2.393 3.786-4.576a3.067 3.067 0 0 0-.386-4.3l-5.677-4.787a12 12 0 0 0-15.477.005l-5.668 4.785a3.067 3.067 0 0 0-.385 4.298M17.75 12a1.75 1.75 0 1 1-3.5 0 1.75 1.75 0 0 1 3.5 0M24 19.865a1.25 1.25 0 0 1-1.645 1.186l-.145-.048a19.67 19.67 0 0 0-12.42 0l-.145.048a1.25 1.25 0 1 1-.79-2.372l.146-.048a22.17 22.17 0 0 1 13.999 0l.145.048c.51.17.855.648.855 1.186"/></svg>