<svg xmlns="http://www.w3.org/2000/svg" viewBox="0 0 24 24"><path d="M12.002 10.317a1.25 1.25 0 1 0 0-2.5 1.25 1.25 0 0 0 0 2.5"/><path fill-rule="evenodd" d="M1.861 9.084a2.3 2.3 0 0 0-.324 3.275l2.866 3.413-.37 2.02c-.26 1.42 1.132 2.586 2.5 2.093a16.16 16.16 0 0 1 10.938 0c1.368.492 2.76-.673 2.5-2.094l-.371-2.026 2.86-3.407a2.3 2.3 0 0 0-.326-3.275l-4.52-3.612a9 9 0 0 0-11.24.003zm4.179 8.854.35-1.909.459-.156C8.519 15.305 10.259 15 12 15s3.479.306 5.148.873l.467.159.35 1.906a18.16 18.16 0 0 0-11.925 0m12.293-3.775 2.595-3.09a.3.3 0 0 0-.042-.428l-4.52-3.612a7 7 0 0 0-8.743.003l-4.512 3.61a.3.3 0 0 0-.043.427l2.596 3.09.541-.183A18 18 0 0 1 12 13c1.957 0 3.914.341 5.792.98z"/></svg>