<svg xmlns="http://www.w3.org/2000/svg" viewBox="0 0 16 16"><path d="M8 6.9a.9.9 0 1 0 0-1.8.9.9 0 0 0 0 1.8"/><path fill-rule="evenodd" d="m.874 8.413 1.91 2.098-.266 1.447c-.175.949.72 1.75 1.666 1.493l.792-.215a11.53 11.53 0 0 1 6.04 0l.791.215c.947.257 1.842-.545 1.667-1.493l-.266-1.438 1.918-2.107a1.54 1.54 0 0 0-.242-2.24L11.54 3.677a5.91 5.91 0 0 0-7.085.002l-3.34 2.495a1.54 1.54 0 0 0-.24 2.24m2.815.863.997-.295a11.67 11.67 0 0 1 6.629 0l.997.295 1.683-1.849.003-.008.002-.018-.005-.017-.008-.009-3.345-2.495a4.41 4.41 0 0 0-5.29.001l-3.34 2.494-.008.008L2 7.401q0 .012.002.019l.003.007zm.358 2.658.234-1.27.83-.245a10.17 10.17 0 0 1 5.778 0l.82.243.235 1.272-.536-.145a13.03 13.03 0 0 0-6.825 0z"/></svg>