<svg xmlns="http://www.w3.org/2000/svg" viewBox="0 0 32 32"><path d="M16 13.75a1.75 1.75 0 1 0 0-3.5 1.75 1.75 0 0 0 0 3.5"/><path fill-rule="evenodd" d="m2.2 16.414 3.793 4.583-.447 2.386c-.364 1.945 1.479 3.579 3.381 2.998l.466-.142a22.63 22.63 0 0 1 13.215 0l.465.142c1.902.58 3.745-1.054 3.38-2.999l-.447-2.393 3.786-4.576a3.067 3.067 0 0 0-.386-4.3l-5.677-4.787a12 12 0 0 0-15.477.005l-5.668 4.785a3.067 3.067 0 0 0-.385 4.298m5.452 2.667 1.318-.44a22.17 22.17 0 0 1 14.051 0l1.319.44 3.526-4.262a.567.567 0 0 0-.072-.794l-5.677-4.788a9.5 9.5 0 0 0-12.253.004l-5.668 4.785a.567.567 0 0 0-.07.794zm14.577 1.93 1.32.441.447 2.39c.008.039.002.054 0 .06a.15.15 0 0 1-.042.056.2.2 0 0 1-.07.039.15.15 0 0 1-.081-.007l-.465-.142a25.13 25.13 0 0 0-14.676 0l-.465.142a.14.14 0 0 1-.08.007.2.2 0 0 1-.071-.038.15.15 0 0 1-.042-.057c-.002-.006-.008-.02 0-.06l.448-2.393 1.31-.437a19.67 19.67 0 0 1 12.467 0"/></svg>