<svg xmlns="http://www.w3.org/2000/svg" viewBox="0 0 17 17"><path d="M11.69 2.917a.797.797 0 1 0-1.593 0v.142c0 .44.102.875.3 1.27l.172.344c.08.16.074.35-.016.505a.797.797 0 1 0 1.378.8c.36-.62.383-1.378.063-2.018l-.172-.344a1.25 1.25 0 0 1-.132-.557z"/><path fill-rule="evenodd" d="M3.787 7.702a4.78 4.78 0 0 1 4.483-3.98.798.798 0 0 0-.075-1.596 6.376 6.376 0 0 0-6.07 6.37 6.376 6.376 0 0 0 6.374 6.377 6.376 6.376 0 0 0 6.374-6.377.8.8 0 0 0-.887-.794H10.58c-.04-.423-.1-.676-.354-.93-.31-.31-.62-.333-1.237-.379a7 7 0 0 0-.98 0c-.618.046-.927.07-1.237.38-.254.253-.315.506-.354.93zm0 1.594h2.63c.04.423.101.676.355.93s.507.315.93.354v2.63a4.78 4.78 0 0 1-3.914-3.914m9.423 0h-2.63c-.04.423-.1.676-.354.93s-.507.315-.93.354v2.63a4.78 4.78 0 0 0 3.914-3.914"/><path d="M13.545 2.12c.44 0 .797.357.797.797v.142c0 .193.045.384.131.557l.173.344c.32.64.296 1.399-.063 2.017a.797.797 0 0 1-1.378-.8.53.53 0 0 0 .015-.504l-.172-.344a2.84 2.84 0 0 1-.3-1.27v-.142c0-.44.357-.796.797-.796"/></svg>