<svg xmlns="http://www.w3.org/2000/svg" viewBox="0 0 44 44"><path fill-rule="evenodd" d="M23.25 6.048c.722.055 1.25.68 1.25 1.405 0 .926-.847 1.618-1.772 1.567Q22.367 9 22 9C15.328 9 9.83 14.026 9.086 20.5h7.98c.084-1.174.21-1.846.9-2.535.793-.793 1.562-.84 3.102-.935.306-.019.62-.03.932-.03q.471 0 .932.03c1.54.095 2.31.142 3.103.935.689.69.815 1.36.898 2.535h9.289v.014q.095-.015.195-.014h.161c.767 0 1.414.584 1.421 1.35L38 22c0 8.836-7.163 16-16 16S6 30.835 6 22 13.163 6 22 6q.63 0 1.25.048M34.914 23.5h-7.98c-.084 1.174-.21 1.845-.9 2.535-.689.689-1.36.815-2.534.898v7.98c5.981-.686 10.727-5.432 11.414-11.413M20.5 34.914v-7.98c-1.174-.084-1.845-.21-2.535-.9-.689-.689-.815-1.36-.898-2.534H9.086c.687 5.98 5.433 10.727 11.414 11.414"/><path d="M30 7.5a1.5 1.5 0 0 0-3 0v.796c0 1.06.247 2.107.721 3.056l.237.473c.45.901.528 1.943.216 2.901l-.1.31a1.5 1.5 0 1 0 2.852.928l.101-.31a6.83 6.83 0 0 0-.386-5.17l-.236-.474A3.8 3.8 0 0 1 30 8.296zM34.5 6A1.5 1.5 0 0 1 36 7.5v.796c0 .595.139 1.182.405 1.714l.236.474a6.83 6.83 0 0 1 .386 5.17l-.1.31a1.5 1.5 0 1 1-2.853-.928l.1-.31c.312-.958.234-2-.216-2.9l-.237-.474A6.8 6.8 0 0 1 33 8.296V7.5A1.5 1.5 0 0 1 34.5 6"/></svg>