<svg xmlns="http://www.w3.org/2000/svg" viewBox="0 0 32 32"><path fill-rule="evenodd" d="M16.418 4.007c.62.022 1.082.551 1.082 1.171 0 .756-.678 1.328-1.434 1.322h-.068c-4.822 0-8.806 3.593-9.418 8.249h5.483c.075-.95.162-1.475.688-2.001.584-.583 1.165-.627 2.328-.713a12 12 0 0 1 1.846 0c1.163.086 1.744.13 2.328.713.526.526.613 1.05.688 2h6.727v.002h.154c.632 0 1.168.478 1.175 1.11l.001.14c0 6.627-5.373 12-12 12s-12-5.373-12-12 5.373-12 12-12q.21 0 .42.007m8.999 13.242H19.94c-.075.95-.162 1.474-.688 2-.526.527-1.05.613-2.001.689v5.48a9.505 9.505 0 0 0 8.165-8.17m-10.665 8.17v-5.481c-.95-.076-1.475-.162-2-.689-.527-.526-.614-1.05-.69-2H6.58a9.505 9.505 0 0 0 8.173 8.17"/><path d="M22 5.248a1.25 1.25 0 0 0-2.5 0v.522c0 .787.183 1.564.536 2.268l.194.387c.27.538.247 1.175-.058 1.694a1.251 1.251 0 0 0 2.155 1.265 4.27 4.27 0 0 0 .139-4.076l-.194-.387A2.6 2.6 0 0 1 22 5.771zM25.252 4c.69 0 1.25.559 1.25 1.248v.522c0 .4.093.794.272 1.151l.194.387a4.27 4.27 0 0 1-.138 4.076 1.25 1.25 0 0 1-1.711.444 1.247 1.247 0 0 1-.445-1.709 1.77 1.77 0 0 0 .058-1.694l-.194-.387a5.1 5.1 0 0 1-.536-2.268v-.522c0-.69.56-1.248 1.25-1.248"/></svg>