<svg xmlns="http://www.w3.org/2000/svg" viewBox="0 0 24 24"><path fill-rule="evenodd" d="M12.12 3c.502.007.88.435.88.936v.132c0 .53-.47.932-1 .932a7 7 0 0 0-6.93 6h3.98c.056-.674.13-1.055.512-1.438.438-.438.874-.47 1.746-.535q.34-.026.692-.027.351 0 .692.027c.872.065 1.308.097 1.746.535.383.383.456.765.511 1.438h5.115c.502 0 .929.378.935.88L21 12a9 9 0 1 1-8.88-9m6.81 10h-3.98c-.056.674-.13 1.055-.512 1.438-.383.383-.764.456-1.438.511v3.98A7 7 0 0 0 18.93 13M11 18.93v-3.98c-.674-.056-1.055-.13-1.438-.512-.383-.383-.456-.764-.511-1.438H5.07A7 7 0 0 0 11 18.93"/><path d="M16.5 4a1 1 0 1 0-2 0v.292a4 4 0 0 0 .422 1.789l.184.366c.174.348.174.758 0 1.106a1 1 0 1 0 1.788.894 3.24 3.24 0 0 0 0-2.894l-.183-.367a2 2 0 0 1-.211-.894zM19 3a1 1 0 0 1 1 1v.292a2 2 0 0 0 .211.894l.183.367a3.24 3.24 0 0 1 0 2.894 1 1 0 1 1-1.788-.894 1.24 1.24 0 0 0 0-1.106l-.184-.366A4 4 0 0 1 18 4.29V4a1 1 0 0 1 1-1"/></svg>