<svg xmlns="http://www.w3.org/2000/svg" viewBox="0 0 24 24"><path d="M6 2a1 1 0 0 0 0 2v1.037c-1.025.058-1.602.151-2.207.756-.68.681-.713 1.326-.778 2.617a12 12 0 0 0 0 1.18c.065 1.29.097 1.936.778 2.617.681.68 1.326.713 2.617.778a12 12 0 0 0 1.18 0c1.29-.065 1.936-.097 2.617-.778.68-.681.713-1.326.778-2.617a12 12 0 0 0 0-1.18c-.065-1.29-.097-1.936-.778-2.617-.605-.605-1.182-.698-2.207-.756V4a1 1 0 0 0 0-2z"/><path fill-rule="evenodd" d="M12 4q-.408 0-.798.006.216.17.418.373c1.235 1.234 1.299 2.602 1.353 3.745l.008.186a14 14 0 0 1 0 1.38l-.008.186c-.054 1.143-.118 2.51-1.353 3.745s-2.602 1.299-3.745 1.352l-.185.01a14 14 0 0 1-1.381 0l-.187-.01c-.821-.038-1.759-.082-2.68-.562a4 4 0 0 1-.26-.149c-.413-.255-1.08.035-1.027.518q.078.687.176 1.285c.092.573.164 1.015.28 1.392.108.348.453.543.816.543h.743a3.001 3.001 0 0 0 5.658 0h4.342a3.002 3.002 0 0 0 5.658 0h.343a1 1 0 0 0 .867-.501c.668-.963.747-1.892.875-3.43.054-.649.086-1.343.086-2.069 0-.308-.09-.6-.18-.827a5 5 0 0 0-.366-.73 11 11 0 0 0-1.07-1.469A10 10 0 0 0 19.088 7.7a4.3 4.3 0 0 0-.696-.46c-.226-.115-.54-.24-.893-.24h-1.5V5.079a.98.98 0 0 0-.915-.984A49 49 0 0 0 12 4m4.999 12a1 1 0 0 0-1 .993v.014A1 1 0 1 0 17 16m-1-7v5.17a3 3 0 0 1 3.699 1.517c.096-.373.145-.86.222-1.784.05-.599.08-1.237.08-1.903h-1.154a1 1 0 0 1-.986-.836L17.499 9zM6 17a1 1 0 1 1 2 0 1 1 0 0 1-2 0"/></svg>