<svg xmlns="http://www.w3.org/2000/svg" viewBox="0 0 32 32"><path d="M8.25 3A1.5 1.5 0 0 0 8 5.979V7.06c-1.241.08-1.964.223-2.717.976-.882.882-.926 1.722-1.014 3.402a16 16 0 0 0 0 1.625c.088 1.68.132 2.52 1.014 3.402s1.722.926 3.402 1.014a16 16 0 0 0 1.629 0c1.68-.088 2.52-.132 3.401-1.014.883-.883.927-1.723 1.014-3.402a16 16 0 0 0 0-1.625c-.087-1.68-.131-2.52-1.014-3.402-.753-.753-1.475-.895-2.716-.975V5.98A1.5 1.5 0 0 0 10.752 3z"/><path fill-rule="evenodd" d="M3.195 19.591c-.063-.582.744-.93 1.235-.61q.274.177.568.322c1.133.553 2.284.61 3.314.66l.241.012a18 18 0 0 0 1.89 0l.24-.012c1.487-.073 3.227-.159 4.799-1.73 1.572-1.573 1.657-3.312 1.73-4.799l.013-.24a18 18 0 0 0 0-1.887l-.013-.24c-.073-1.487-.158-3.227-1.73-4.799a6 6 0 0 0-.87-.72l.01-.039q.666-.014 1.377-.014c1.41 0 2.695.044 3.853.115a1.227 1.227 0 0 1 1.144 1.294Q21 6.952 21 7v2.5h2.147c.436 0 .83.149 1.122.292a5.6 5.6 0 0 1 .902.572c.575.438 1.17 1.015 1.703 1.62a13 13 0 0 1 1.416 1.921c.343.583.71 1.347.71 2.078l-.003.072a33 33 0 0 1-.118 2.72c-.179 2.128-.283 3.362-1.303 4.698h-.004a1.25 1.25 0 0 1-1.02.527h-.518a3.752 3.752 0 0 1-7.073 0h-5.675a3.751 3.751 0 0 1-7.073 0H4.89c-.455 0-.89-.233-1.04-.662-.184-.525-.283-1.144-.417-1.972a35 35 0 0 1-.24-1.775M22.498 19c-.533 0-1.04.111-1.498.311V12h1.997l.59 2.955A1.3 1.3 0 0 0 24.864 16h1.634c0 .9-.041 1.76-.109 2.565-.114 1.35-.18 1.998-.345 2.527a3 3 0 0 1-.08.224A3.75 3.75 0 0 0 22.497 19m-11.499 3.75a1.25 1.25 0 1 1-2.5 0 1.25 1.25 0 0 1 2.5 0m10.248 0a1.25 1.25 0 1 1 2.5 0 1.25 1.25 0 0 1-2.5 0"/></svg>