<svg xmlns="http://www.w3.org/2000/svg" viewBox="0 0 24 24"><path d="M5 3a1 1 0 0 1 1-1h2a1 1 0 0 1 0 2v1.037c1.025.058 1.602.151 2.207.756.68.681.713 1.326.778 2.617a12 12 0 0 1 0 1.18c-.065 1.29-.097 1.936-.778 2.617-.681.68-1.326.713-2.617.778a12 12 0 0 1-1.18 0c-1.29-.065-1.936-.097-2.617-.778-.68-.681-.713-1.326-.778-2.617a12 12 0 0 1 0-1.18c.065-1.29.097-1.936.778-2.617.605-.605 1.182-.698 2.207-.756V4a1 1 0 0 1-1-1"/><path fill-rule="evenodd" d="M15.085 4.095a.98.98 0 0 1 .914.984V7h1.5c.354 0 .668.125.893.24.242.124.478.287.697.46.44.348.891.804 1.295 1.274.404.472.784.988 1.07 1.47.142.24.27.488.366.73.09.225.18.518.18.826 0 .726-.033 1.42-.087 2.069-.128 1.538-.207 2.467-.875 3.43a1 1 0 0 1-.867.501h-.342a3.001 3.001 0 0 1-5.66 0H9.83a3.001 3.001 0 0 1-5.66 0H3.5a1 1 0 0 1 0-2h.67a3 3 0 0 1 5.659 0h4.17V6.04q-.71-.03-1.499-.038a1.01 1.01 0 0 1-1-1.005c0-.548.441-1 .99-.995h.01q1.407.017 2.585.093m4.835 9.808c-.077.925-.126 1.411-.222 1.785a3 3 0 0 0-3.699-1.517V9h1.5l.361 2.164a1 1 0 0 0 .986.836H20c0 .666-.03 1.304-.08 1.902M17 18a1 1 0 0 1-1-.993v-.014A1 1 0 1 1 17 18M6 17a1 1 0 1 1 2 0 1 1 0 0 1-2 0"/></svg>