<svg xmlns="http://www.w3.org/2000/svg" viewBox="0 0 24 24"><path fill-rule="evenodd" d="M11.86 2.5a2.14 2.14 0 0 0-1.435.553L6.94 6.206a4 4 0 0 1-1.118.756l-.842.41A5.3 5.3 0 0 0 2 12.14v.238a5 5 0 0 0 3.787 4.85c.478.119.919.354 1.284.685l3.354 3.034A2.14 2.14 0 0 0 14 19.36V4.64a2.14 2.14 0 0 0-2.14-2.14m9.847 8.207a1 1 0 0 0-1.414-1.414L18.5 11.086l-1.793-1.793a1 1 0 1 0-1.414 1.414l1.793 1.793-1.793 1.793a1 1 0 0 0 1.414 1.414l1.793-1.793 1.793 1.793a1 1 0 0 0 1.414-1.414L19.914 12.5z"/></svg>