<svg xmlns="http://www.w3.org/2000/svg" viewBox="0 0 16 16"><path fill-rule="evenodd" d="M7.429 1c-.457 0-.891.199-1.19.545L4.301 3.79a3 3 0 0 1-.884.699l-.34.176A3.85 3.85 0 0 0 1 8.085v.429c0 1.494 1.004 2.8 2.448 3.185.349.093.662.289.897.562l1.894 2.194A1.571 1.571 0 0 0 9 13.43V2.57A1.57 1.57 0 0 0 7.429 1m7.355 5.863a.75.75 0 0 0-1.06-1.06l-1.137 1.136-1.137-1.136a.75.75 0 0 0-1.06 1.06L11.526 8 10.39 9.136a.75.75 0 1 0 1.06 1.06l1.137-1.136 1.136 1.137a.75.75 0 0 0 1.06-1.06L13.648 8z"/></svg>