<svg xmlns="http://www.w3.org/2000/svg" viewBox="0 0 24 24"><path fill-rule="evenodd" d="M11.86 2.5a2.14 2.14 0 0 0-1.435.553L6.94 6.206a4 4 0 0 1-1.118.756l-.842.41A5.3 5.3 0 0 0 2 12.14v.238a5 5 0 0 0 3.787 4.85c.478.119.919.354 1.284.685l3.354 3.034A2.14 2.14 0 0 0 14 19.36V4.64a2.14 2.14 0 0 0-2.14-2.14m-.094 2.036A.14.14 0 0 1 12 4.64v14.72a.14.14 0 0 1-.234.104L8.413 16.43a5 5 0 0 0-2.141-1.143A3 3 0 0 1 4 12.377v-.237c0-1.264.72-2.416 1.856-2.97l.842-.41.01-.005a6 6 0 0 0 1.565-1.058l.008-.008zm9.941 6.17a1 1 0 0 0-1.414-1.413L18.5 11.086l-1.793-1.793a1 1 0 1 0-1.414 1.414l1.793 1.793-1.793 1.793a1 1 0 0 0 1.414 1.414l1.793-1.793 1.793 1.793a1 1 0 0 0 1.414-1.414L19.914 12.5z"/></svg>