<svg xmlns="http://www.w3.org/2000/svg" viewBox="0 0 16 16"><path d="M6.028 8.64c0 .867-.553 1.177-1.491 1.177S3.03 9.487 3 8.624h1.023c.01.35.21.42.514.42.324 0 .528-.056.528-.335 0-.238-.307-.275-.681-.32-.583-.072-1.33-.162-1.33-1.062 0-.793.555-1.102 1.438-1.102s1.461.309 1.476 1.102H4.946c-.015-.274-.19-.33-.454-.33-.29 0-.48.056-.48.32 0 .226.314.269.693.32.583.08 1.323.18 1.323 1.002"/><path fill-rule="evenodd" d="M10.132 7.97c0 .674-.144 1.123-.409 1.413l.354.404-.698.558-.494-.568q-.24.039-.524.04c-1.132 0-1.77-.414-1.77-1.846 0-1.342.638-1.746 1.77-1.746s1.771.404 1.771 1.746m-1.023.29v-.489c0-.579-.254-.748-.748-.748s-.748.17-.748.748v.49c0 .633.254.757.748.757s.748-.124.748-.758"/><path d="M10.862 9.742H13v-.848h-1.14V6.299h-.998z"/><path fill-rule="evenodd" d="M4.788 2.65c-1.285.127-1.928.19-2.717.976s-.853 1.402-.98 2.635C1.036 6.795 1 7.381 1 8c0 .62.036 1.205.09 1.739.128 1.233.192 1.85.98 2.635.79.786 1.433.85 2.718.976.883.088 1.955.15 3.212.15a33 33 0 0 0 3.212-.15c1.285-.127 1.928-.19 2.717-.976s.853-1.403.98-2.636a16.7 16.7 0 0 0 .001-3.476c-.128-1.233-.191-1.85-.98-2.636-.79-.786-1.433-.85-2.718-.976A33 33 0 0 0 8 2.5a33 33 0 0 0-3.212.15m.147 9.208c-.69-.069-1.004-.106-1.248-.182-.164-.05-.316-.124-.558-.365-.249-.248-.32-.397-.368-.545-.073-.227-.11-.516-.178-1.181A16 16 0 0 1 2.5 8c0-.563.032-1.096.083-1.585.068-.665.105-.954.178-1.18.047-.149.12-.298.368-.546.242-.24.394-.315.558-.365.244-.076.557-.113 1.248-.182A31 31 0 0 1 8 4c1.207 0 2.23.06 3.064.142.691.069 1.005.106 1.25.182.163.05.315.124.557.365.249.248.321.397.368.546.073.226.11.516.178 1.181A16 16 0 0 1 13.5 8a16 16 0 0 1-.083 1.584c-.068.665-.105.955-.178 1.181-.047.149-.119.298-.368.546-.242.24-.394.315-.558.365-.244.076-.558.113-1.248.182C10.229 11.94 9.207 12 8 12s-2.23-.06-3.065-.142"/></svg>