<svg xmlns="http://www.w3.org/2000/svg" viewBox="0 0 24 24"><path d="M13.555 12.356v-.686c0-.812-.357-1.05-1.05-1.05s-1.05.238-1.05 1.05v.686c0 .889.357 1.064 1.05 1.064s1.05-.175 1.05-1.064"/><path fill-rule="evenodd" d="M7.945 4.168A47 47 0 0 1 12 4c1.55 0 2.902.068 4.055.168 2.025.175 3.037.263 4.327 1.557s1.37 2.265 1.532 4.207a25 25 0 0 1 0 4.137c-.162 1.941-.243 2.912-1.532 4.206s-2.302 1.382-4.327 1.557c-1.153.1-2.505.168-4.055.168a47 47 0 0 1-4.055-.168c-2.024-.175-3.036-.263-4.326-1.557S2.25 16.01 2.087 14.07a25 25 0 0 1 0-4.14c.162-1.94.243-2.911 1.532-4.205s2.302-1.381 4.326-1.557m1.287 8.72c0 1.218-.777 1.652-2.093 1.652s-2.114-.462-2.156-1.673h1.435c.014.49.294.588.72.588.456 0 .743-.077.743-.469 0-.334-.431-.386-.957-.45-.818-.1-1.864-.227-1.864-1.489 0-1.113.777-1.547 2.016-1.547s2.05.434 2.072 1.547H7.713c-.021-.385-.266-.462-.637-.462-.406 0-.672.077-.672.448 0 .317.439.377.97.45.82.11 1.858.251 1.858 1.405m5.758-.938c0 .945-.203 1.575-.574 1.981l.497.567-.98.784-.693-.798a5 5 0 0 1-.735.056c-1.589 0-2.485-.581-2.485-2.59 0-1.883.896-2.45 2.485-2.45 1.59 0 2.485.567 2.485 2.45m1.024 2.485h3v-1.19h-1.6v-3.64h-1.4z"/></svg>