<svg xmlns="http://www.w3.org/2000/svg" viewBox="0 0 24 24"><path d="M9.232 12.888c0 1.218-.777 1.652-2.093 1.652s-2.114-.462-2.156-1.673h1.435c.014.49.294.588.72.588.456 0 .743-.077.743-.469 0-.334-.431-.386-.957-.45-.818-.1-1.864-.227-1.864-1.489 0-1.113.777-1.547 2.016-1.547s2.05.434 2.072 1.547H7.713c-.021-.385-.266-.462-.637-.462-.406 0-.672.077-.672.448 0 .317.439.377.97.45.82.11 1.858.251 1.858 1.405"/><path fill-rule="evenodd" d="M14.99 11.95c0 .945-.203 1.575-.574 1.981l.497.567-.98.784-.693-.798a5 5 0 0 1-.735.056c-1.589 0-2.485-.581-2.485-2.59 0-1.883.896-2.45 2.485-2.45 1.59 0 2.485.567 2.485 2.45m-1.435.406v-.686c0-.812-.357-1.05-1.05-1.05s-1.05.238-1.05 1.05v.686c0 .889.357 1.064 1.05 1.064s1.05-.175 1.05-1.064"/><path d="M16.014 14.435h3v-1.19h-1.6v-3.64h-1.4z"/><path fill-rule="evenodd" d="M12 4c-1.55 0-2.902.068-4.055.168-2.024.175-3.036.263-4.326 1.557S2.25 7.99 2.087 9.93a25 25 0 0 0 0 4.14c.162 1.94.243 2.911 1.532 4.205s2.302 1.382 4.326 1.557c1.153.1 2.505.168 4.055.168s2.902-.067 4.055-.168c2.025-.175 3.037-.263 4.327-1.557s1.37-2.265 1.532-4.206a25 25 0 0 0 0-4.137c-.162-1.942-.243-2.913-1.532-4.207s-2.302-1.382-4.328-1.557A47 47 0 0 0 12 4M8.118 6.16C9.214 6.065 10.508 6 12 6s2.786.065 3.882.16c1.079.094 1.602.149 2.023.278.313.097.613.25 1.06.699.458.46.606.755.696 1.043.123.394.173.88.26 1.918a23 23 0 0 1 0 3.805c-.087 1.037-.137 1.523-.26 1.917-.09.288-.238.584-.696 1.043-.447.449-.747.602-1.06.699-.42.13-.944.184-2.023.278-1.096.095-2.39.16-3.882.16s-2.786-.065-3.882-.16c-1.079-.094-1.602-.149-2.022-.278-.312-.097-.613-.25-1.06-.699-.458-.46-.606-.755-.696-1.043-.123-.393-.173-.879-.26-1.916a23 23 0 0 1 0-3.808c.087-1.037.137-1.522.26-1.916.09-.288.238-.584.696-1.043.447-.449.748-.602 1.06-.699.42-.13.944-.184 2.022-.278"/></svg>