<svg xmlns="http://www.w3.org/2000/svg" viewBox="0 0 44 44"><path fill-rule="evenodd" d="M22 8c-2.713 0-5.09.112-7.126.28-3.723.305-5.584.458-7.966 2.853s-2.516 4.147-2.784 7.648A42 42 0 0 0 4 22c0 1.123.046 2.2.124 3.219.268 3.501.402 5.252 2.784 7.648s4.243 2.548 7.965 2.854C16.91 35.888 19.287 36 22 36s5.088-.112 7.125-.279c3.724-.306 5.585-.458 7.968-2.855s2.516-4.148 2.783-7.65A42 42 0 0 0 40 22c0-1.121-.046-2.198-.124-3.215-.267-3.504-.4-5.255-2.783-7.651s-4.245-2.55-7.969-2.855A87 87 0 0 0 22 8m-9.59 8v4.4h.598L16.06 16h3.598l-3.923 5.722L20 28h-3.94l-3.155-4.643h-.494V28H9V16zm16.283 6.87L27.23 16H22v12h2.977v-9.078l1.689 7.652h3.427l1.69-7.652V28H35V16h-4.827z"/></svg>