<svg xmlns="http://www.w3.org/2000/svg" viewBox="0 0 24 24"><path d="M16.218 12c0-.77-.868-1.29-2.604-2.332l-.751-.451c-1.319-.791-2.13-1.202-2.728-1.217a.9.9 0 0 0-.488.118C9 8.484 9 9.407 9 11.404v1.193c0 1.997 0 2.92.647 3.286a.9.9 0 0 0 .488.117c.599-.015 1.41-.426 2.728-1.217l.75-.45C15.35 13.29 16.219 12.77 16.219 12"/><path fill-rule="evenodd" d="M4.168 16.057A47 47 0 0 1 4 12c0-1.549.068-2.901.168-4.054.175-2.025.263-3.038 1.557-4.327S7.99 2.25 9.932 2.088a25 25 0 0 1 4.137 0c1.941.162 2.912.242 4.206 1.532s1.382 2.302 1.557 4.327c.1 1.153.168 2.505.168 4.054s-.068 2.903-.168 4.056c-.175 2.024-.263 3.036-1.557 4.325s-2.264 1.37-4.205 1.532a25 25 0 0 1-4.14 0c-1.94-.161-2.911-.242-4.205-1.532-1.294-1.289-1.381-2.301-1.557-4.325m1.992-.173A45 45 0 0 1 6 12c0-1.49.065-2.785.16-3.88.094-1.08.149-1.603.278-2.024.097-.313.25-.613.699-1.06.46-.458.755-.607 1.043-.697.394-.122.88-.173 1.918-.259a23 23 0 0 1 3.805 0c1.037.086 1.523.137 1.917.26.288.09.584.238 1.043.696.449.447.602.747.699 1.06.13.42.184.944.278 2.023.095 1.096.16 2.39.16 3.881 0 1.492-.065 2.787-.16 3.883-.094 1.078-.149 1.601-.278 2.022-.097.312-.25.612-.699 1.06-.46.458-.755.606-1.043.696-.393.123-.879.173-1.916.26a23 23 0 0 1-3.808 0c-1.037-.087-1.522-.137-1.916-.26-.288-.09-.584-.238-1.043-.696-.449-.448-.602-.748-.699-1.06-.13-.42-.184-.944-.278-2.022"/></svg>