<svg xmlns="http://www.w3.org/2000/svg" viewBox="0 0 16 16"><path fill-rule="evenodd" d="M2.004 8c0 1.165.058 2.171.143 3.016.133 1.338.2 2.007 1.044 2.848.844.842 1.512.908 2.848 1.039a20 20 0 0 0 3.93 0c1.336-.131 2.004-.197 2.848-1.039s.91-1.51 1.044-2.848c.084-.845.143-1.85.143-3.016s-.059-2.17-.143-3.015c-.134-1.339-.2-2.008-1.044-2.85s-1.512-.907-2.85-1.038a20 20 0 0 0-3.926 0c-1.337.13-2.005.196-2.849 1.038s-.91 1.511-1.044 2.85c-.085.844-.143 1.85-.143 3.015M10.5 8c0-.513-.57-.86-1.728-1.555l-.193-.116C7.437 5.644 6.863 5.3 6.43 5.546 6 5.79 6 6.456 6 7.786v.427c0 1.332 0 1.997.431 2.241.432.244 1.006-.098 2.148-.783l.193-.116C9.93 8.861 10.5 8.513 10.5 8"/></svg>