<svg xmlns="http://www.w3.org/2000/svg" viewBox="0 0 16 16"><path fill-rule="evenodd" d="m5.846 6.937-.034-.021-.532-.324c-.709-.432-1.187-.72-1.544-.901-.033.409-.036.982-.036 1.837v.944c0 .855.003 1.428.036 1.837.357-.18.835-.469 1.544-.9l.532-.325.034-.02c.812-.496 1.32-.81 1.649-1.064-.33-.255-.837-.568-1.649-1.063m1.915.824.002-.003.001-.001zm-1.134 2.583C8.337 9.302 9.2 8.776 9.2 8s-.863-1.302-2.573-2.344l-.035-.021-.532-.324C4.351 4.269 3.492 3.748 2.846 4.12 2.2 4.49 2.2 5.503 2.2 7.528v.944c0 2.025 0 3.037.646 3.409.646.37 1.505-.15 3.214-1.192l.532-.324zM11.832 4h-.033c-.19 0-.4 0-.577.023a1.24 1.24 0 0 0-.705.315 1.23 1.23 0 0 0-.36.681 5 5 0 0 0-.06.57l-.002.033A41 41 0 0 0 10 8c0 .74.051 1.693.095 2.378l.002.033c.012.187.026.394.06.57.042.209.13.466.36.68.23.216.494.288.705.316.178.023.387.023.577.023h1.402c.19 0 .4 0 .577-.023.211-.028.475-.1.705-.315s.318-.472.36-.681a5 5 0 0 0 .06-.57l.002-.033C14.949 9.693 15 8.74 15 8s-.051-1.693-.095-2.378l-.002-.033a5 5 0 0 0-.06-.57 1.23 1.23 0 0 0-.36-.68 1.24 1.24 0 0 0-.705-.316C13.6 4 13.391 4 13.201 4zm-.24 1.718.015-.217.225-.001h1.336l.225.001.015.217c.044.681.092 1.594.092 2.282a40 40 0 0 1-.107 2.5h-1.786l-.015-.218A40 40 0 0 1 11.5 8c0-.688.048-1.6.092-2.282"/></svg>