<svg xmlns="http://www.w3.org/2000/svg" viewBox="0 0 24 24"><path fill-rule="evenodd" d="m10.075 8.597-.052-.03-1.144-.664c-2.607-1.513-3.91-2.269-4.894-1.73C3 6.714 3 8.184 3 11.124v1.755c0 2.94 0 4.41.985 4.948.984.54 2.287-.216 4.893-1.728l.001-.001 1.144-.663.052-.03C12.683 13.89 14 13.125 14 12s-1.317-1.89-3.925-3.403M17.712 6h-.048c-.31 0-.634 0-.906.036-.316.042-.695.147-1.021.454-.325.306-.452.675-.513.989-.053.268-.071.589-.09.895l-.002.048C15.07 9.469 15 10.892 15 12s.07 2.531.132 3.578l.003.048c.018.306.036.627.089.895.06.314.188.683.513.989.326.307.705.412 1.021.454.272.036.596.036.906.036h1.672c.31 0 .634 0 .906-.036.316-.042.695-.147 1.021-.454.325-.306.452-.675.513-.989.053-.268.071-.589.09-.895l.002-.048C21.93 14.531 22 13.108 22 12s-.07-2.531-.132-3.578l-.003-.048c-.018-.306-.036-.627-.089-.895-.06-.314-.188-.683-.513-.989-.326-.307-.705-.412-1.021-.454A7 7 0 0 0 19.336 6z"/></svg>