<svg width="80" height="80" viewBox="0 0 80 80" fill="none" xmlns="http://www.w3.org/2000/svg">
<path fill-rule="evenodd" clip-rule="evenodd" d="M72.9264 71.5725C68.7231 76.1389 62.6957 79 56 79H24C17.2093 79 11.106 76.0571 6.89581 71.3771C9.25041 69.1973 12.4414 68.0046 16.4656 66.5006C20.2103 65.101 24.6764 63.4318 29.8613 60.4466V55.6814C26.8023 53.5266 25.9633 50.1236 24.9769 46.1232C24.9061 45.8361 24.8346 45.546 24.7615 45.2531H24.64C24.1543 45.2531 23.6686 44.5238 23.6686 43.6729C23.6686 43.5514 23.699 43.4906 23.7293 43.4298C23.7597 43.3691 23.7901 43.3083 23.7901 43.1867C23.4258 42.7006 23.0615 41.9713 22.8187 41.1204C22.7604 40.9066 22.6835 40.6586 22.5994 40.3873C22.1576 38.9623 21.5169 36.8955 22.333 35.7723C23.3044 34.9215 23.7901 35.8939 23.7901 35.8939L23.7717 35.7967C22.4379 28.7584 20.6781 19.4715 30.4684 16.5677C30.4684 10.4903 53.5391 13.1643 56.2105 23.1313C57.5461 27.0208 55.8462 35.7723 55.8462 35.7723C56.2105 35.1646 56.6962 34.9215 57.1819 35.4077C58.3393 36.1449 57.3996 38.9814 56.8912 40.5163C56.8129 40.7527 56.7448 40.9582 56.6962 41.1204C56.4533 42.2144 56.089 42.8221 55.7248 43.4298L55.8462 43.6729C55.8462 44.5238 55.3605 45.2531 54.8748 45.2531C54.2677 49.1426 53.1749 53.5183 50.1392 55.5847V60.4466C55.1908 63.355 59.5601 65.0772 63.2447 66.5295C67.3042 68.1296 70.5326 69.4021 72.9264 71.5725Z" fill="white"/>
</svg>
