<svg width="80" height="80" viewBox="0 0 80 80" fill="none" xmlns="http://www.w3.org/2000/svg">
<path fill-rule="evenodd" clip-rule="evenodd" d="M73.2978 71.1591C69.0822 75.9655 62.8955 79 55.9999 79H23.9999C17.1061 79 10.9206 75.9669 6.70508 71.1625C9.29289 68.6973 12.8369 67.4292 17.2419 65.853L17.2454 65.8517C17.7487 65.6717 18.268 65.4891 18.802 65.3014C22.5396 63.9873 26.9965 62.4204 31.7143 59.7049V58.6845C31.7143 58.4686 31.7169 58.2537 31.7194 58.0399C31.734 56.7926 31.7482 55.5873 31.2567 54.4959C31.0098 54.275 30.7418 54.0432 30.4621 53.8013C29.0706 52.5977 27.3918 51.1456 26.6086 49.5581L26.5734 49.5266C26.5508 49.4674 26.5283 49.4076 26.5061 49.3474C25.7516 47.7756 25.1677 46.0779 24.7417 44.3618H24.6197C24.0092 44.3618 23.643 43.5009 23.643 42.6401V42.2712L23.6428 42.2709C23.3987 41.779 23.0324 41.0412 22.7883 40.0576C22.7567 39.9701 22.7226 39.8768 22.6866 39.7788C22.1669 38.3609 21.2723 35.9198 22.2999 34.7696C22.3097 34.7598 22.3194 34.7502 22.3292 34.7409C22.4081 34.5544 22.5185 34.3971 22.6665 34.2778C23.1374 33.9932 23.463 34.0744 23.7554 34.4087C23.7481 33.0859 23.8529 29.2402 25.1502 25.2279C26.7975 19.713 29.124 13.3384 40.0033 13.3384C50.8826 13.3384 53.2091 19.713 54.8563 25.2279C56.1535 29.2402 56.2585 33.0859 56.2513 34.4087C56.5436 34.0744 56.8693 33.9932 57.3402 34.2778C57.4878 34.3971 57.5985 34.5544 57.6772 34.7408C57.687 34.7502 57.6968 34.7598 57.7065 34.7696C58.7335 35.919 57.8405 38.3577 57.3211 39.776L57.3201 39.7788C57.3125 39.7994 57.305 39.8198 57.2976 39.84C57.2697 39.9158 57.243 39.9885 57.2182 40.0576C56.9738 41.0413 56.6079 41.7791 56.3635 42.271V42.6401C56.3635 43.5009 55.9971 44.3618 55.3868 44.3618H55.2648C54.8388 46.0779 54.2547 47.7756 53.5003 49.3474C53.4782 49.4076 53.4556 49.4674 53.4329 49.5266C53.4266 49.5322 53.4205 49.5377 53.4144 49.5433C53.4089 49.5482 53.4035 49.5531 53.3979 49.5581C52.6147 51.1456 50.9358 52.5977 49.5443 53.8013C49.2647 54.0432 48.9967 54.275 48.7498 54.4959C48.2584 55.5871 48.2726 56.7922 48.2873 58.0393C48.2898 58.2532 48.2923 58.4684 48.2923 58.6845V59.7049C53.0112 62.421 57.4687 63.988 61.2071 65.3023C61.7402 65.4897 62.2587 65.672 62.7613 65.8517L62.7661 65.8535C67.1682 67.4287 70.7107 68.6963 73.2978 71.1591Z" fill="white"/>
</svg>
