<svg width="80" height="80" viewBox="0 0 80 80" fill="none" xmlns="http://www.w3.org/2000/svg">
<path fill-rule="evenodd" clip-rule="evenodd" d="M35.7746 12.4488C35.0835 12.8054 34.854 13.636 35.0941 14.3922L36.4178 18.5633C36.6768 19.3793 37.4166 19.9313 38.2508 19.9313H41.2688C42.103 19.9313 42.8428 19.3793 43.1018 18.5633L44.4519 14.3093C44.6783 13.5957 44.4862 12.8096 43.8441 12.4532C43.0335 12.0033 41.7141 11.5 39.8676 11.5C38.0269 11.5 36.6445 12.0001 35.7746 12.4488ZM38.4174 22.4192C37.5729 22.4192 36.8286 22.98 36.5876 23.8128C35.752 26.6983 33.8233 33.5921 32.5475 39.9721C31.2458 46.4816 30.3493 53.9273 30.0186 56.8794C29.9256 57.7099 30.185 58.5393 30.7249 59.1642L37.9262 67.5011C39.0852 68.8427 41.1262 68.8313 42.2711 67.4768L49.2948 59.1647C49.8235 58.539 50.0749 57.7177 49.9805 56.8943C49.6357 53.8855 48.6962 46.1828 47.4542 39.9721C46.2391 33.8956 44.26 26.7803 43.4117 23.8207C43.1719 22.9842 42.4255 22.4192 41.5779 22.4192H38.4174Z" fill="white"/>
</svg>
