<svg width="80" height="80" viewBox="0 0 80 80" fill="none" xmlns="http://www.w3.org/2000/svg">
<path fill-rule="evenodd" clip-rule="evenodd" d="M72.1881 72.3384C68.032 76.4565 62.313 79 56 79H24C17.6889 79 11.9716 76.4581 7.8158 72.3423C10.3168 69.7449 13.8235 68.4823 18.2317 66.8954L18.2352 66.8939C18.4965 66.8001 18.7624 66.7054 19.0325 66.6091L19.7242 66.3643C20.1676 66.2072 20.6218 66.0501 21.0856 65.8896C21.1518 65.8667 21.2182 65.8438 21.2848 65.8207L21.2861 65.8202C24.3888 64.7477 27.9171 63.528 31.6251 61.4325V61.4175V58.4072C31.1203 58.4184 30.627 58.4313 30.15 58.446C27.1672 58.5383 23.0906 58.9076 20.676 59.1468C19.8704 59.2265 19.187 58.4702 19.1913 57.6702C19.1908 57.5674 19.2017 57.4638 19.2248 57.3611C19.5252 56.0358 19.8563 54.0167 19.9887 51.2181C20.0008 50.9624 20.0114 50.7001 20.0201 50.4312C20.0248 50.2847 20.029 50.1362 20.0327 49.9857V49.9708C20.0379 49.7503 20.0404 49.5194 20.0404 49.2787C20.04 47.4293 19.897 45.0074 19.7423 42.389L19.7419 42.3844C19.7152 41.9318 19.6926 41.4894 19.6729 41.0568C19.5739 38.8966 19.5641 36.9799 19.6701 35.2569C19.8789 31.8607 20.5366 29.2167 21.8442 26.9419C24.3057 22.6593 26.9751 22.0145 26.9751 22.0145C26.9751 22.0145 26.9751 15.7279 37.1015 13.7417C38.0411 13.4808 39.0742 13.3385 40.2103 13.3385L40.3059 13.3388L40.4016 13.3385C40.466 13.3385 40.5301 13.3389 40.5937 13.3398C40.6436 13.3391 40.7005 13.3387 40.7469 13.3385C45.4621 13.3207 49.9036 15.4817 52.7712 18.9582C57.3659 24.529 59.8461 30.8222 60.1742 36.9526C60.3506 38.7304 60.4284 40.5845 60.3228 42.3695V42.3741L60.3225 42.3797C60.1472 45.3447 59.9869 48.0564 60.0325 49.9708C60.1137 53.4257 60.4968 55.8465 60.8402 57.3611C61.0434 58.2574 60.2931 59.2213 59.3887 59.1318C57.0562 58.9008 51.6861 58.5483 48.736 58.4414V61.4325C52.9517 63.7701 56.9229 65.1754 60.2862 66.3648L60.3267 66.3791C60.8224 66.5546 61.3049 66.7254 61.7728 66.8939L61.7773 66.8954L61.7807 66.8969C66.1842 68.4824 69.6883 69.7449 72.1881 72.3384Z" fill="white"/>
</svg>
