<svg xmlns="http://www.w3.org/2000/svg" viewBox="0 0 28 28"><path fill-rule="evenodd" d="m17.001 15.688-4.697-4.702.002-.004c1.082-1.202 1.623-1.804 1.615-2.99-.007-1.186-.525-1.747-1.56-2.868q-.16-.174-.328-.343a7.5 7.5 0 0 0-2.265-1.543c-.815-.361-1.682-.265-2.509-.016-.932.281-1.812.757-2.484 1.469-.557.57-.95 1.12-1.236 1.774-.908 2.072-.6 4.49.408 6.515.835 1.681 2.292 3.919 4.825 6.455 2.48 2.483 4.464 3.722 6.13 4.566 2.088 1.058 4.602 1.4 6.724.413.61-.284 1.131-.667 1.673-1.198 1.102-1.05 1.51-2.475 1.662-3.348a2.8 2.8 0 0 0-.174-1.535A7.6 7.6 0 0 0 23.2 15.96a12 12 0 0 0-.342-.329c-1.12-1.036-1.68-1.554-2.866-1.561-1.184-.008-1.785.534-2.987 1.617zm-6.672-5.535a1.225 1.225 0 0 0 .021 1.716q.27.268.536.535c1.735 1.737 3.487 3.463 5.226 5.19a1.22 1.22 0 0 0 1.634.081c.593-.484 1.136-1.094 1.79-1.487.137-.082.222-.115.443-.113.243.001.323.039.43.104.218.132.477.36 1.088.925q.147.135.285.274a5.6 5.6 0 0 1 1.16 1.738.8.8 0 0 1 .045.409c-.122.701-.424 1.623-1.07 2.238l-.02.02c-.417.408-.756.644-1.116.812-1.402.652-3.25.49-4.973-.384-1.493-.756-3.3-1.874-5.619-4.195-2.385-2.388-3.713-4.45-4.448-5.93-.82-1.65-.974-3.43-.367-4.816.17-.388.41-.742.835-1.177l.037-.04c.586-.609 1.445-.912 2.141-1.044.17-.032.412-.007.57.063.461.204 1.09.56 1.66 1.128.418.42.89.87 1.196 1.374a.88.88 0 0 1-.008.874c-.38.63-.966 1.174-1.476 1.705"/></svg>