<svg xmlns="http://www.w3.org/2000/svg" viewBox="0 0 16 16"><path fill-rule="evenodd" d="M4.853 2.007c-.322.046-.7.166-1.025.325-1.015.497-1.64 1.362-1.801 2.493a5.2 5.2 0 0 0 .006 1.11c.097.65.284 1.181.651 1.85.464.844 1.07 1.677 1.85 2.543.22.245.934.962 1.171 1.178.899.816 1.724 1.4 2.665 1.889.627.325 1.14.492 1.763.575.283.037.733.04.986.006.803-.107 1.369-.379 1.937-.928.183-.178.288-.304.42-.505.297-.454.522-1.135.524-1.583.001-.302-.043-.464-.222-.823-.265-.529-.549-.886-1.101-1.388-.477-.432-.695-.575-1.015-.66a1.64 1.64 0 0 0-.8 0c-.31.083-.556.242-1.02.656-.105.094-.196.17-.201.17s-.585-.574-1.288-1.276L7.076 6.362l.154-.174c.423-.475.584-.719.669-1.015a1.7 1.7 0 0 0 .05-.586c-.042-.441-.175-.684-.675-1.236-.494-.545-.84-.83-1.32-1.084-.345-.183-.581-.257-.851-.266-.092-.003-.204 0-.25.006m.329 1.553c.364.183.61.387 1.014.84.187.21.257.302.257.338 0 .03-.123.204-.172.243a4 4 0 0 0-.197.21l-.427.471a7 7 0 0 0-.306.353.66.66 0 0 0-.11.372c0 .149.046.292.148.4.416.438 3.19 3.219 3.758 3.768a.65.65 0 0 0 .59.189c.169-.033.23-.076.594-.412.386-.357.7-.635.814-.72.09-.068.136-.075.2-.029.14.1.617.546.743.695a3 3 0 0 1 .347.526l.071.145-.044.177c-.112.447-.27.705-.595.976-.385.319-.912.45-1.524.379-.492-.058-.906-.207-1.523-.547-.884-.489-1.718-1.136-2.603-2.021-.982-.981-1.709-1.921-2.235-2.889-.253-.466-.397-.87-.457-1.28a3.7 3.7 0 0 1-.007-.714c.03-.224.113-.483.21-.655.207-.37.582-.66 1.042-.808.244-.078.27-.079.412-.007"/></svg>