<svg xmlns="http://www.w3.org/2000/svg" viewBox="0 0 32 32"><path stroke="#1D2023" stroke-linecap="round" stroke-width="2.5" d="m13.458 13.922.885-.883-.885.883c.379.38 1.327 1.348 2.28 2.321l.03.03c.938.958 1.876 1.915 2.25 2.29.31.31.767.5 1.275.41.381-.068.652-.274.764-.364.134-.107.263-.233.35-.319l.045-.044c.083-.082.158-.156.242-.233.366-.336.8-.639 1.496-.679.854-.048 1.76.381 2.556 1.172.8.794 1.318 1.79 1.457 2.519.18.948-.14 2.48-1.365 3.71-1.228 1.23-2.908 1.674-4.755 1.466-1.862-.209-3.804-1.078-5.342-2.344-1.26-1.037-2.491-2.11-3.443-3.065-1.18-1.183-2.541-2.935-3.78-4.668-1.011-1.412-1.657-3.128-1.755-4.755-.097-1.613.342-3.07 1.41-4.14 1.168-1.173 2.233-1.536 3.153-1.472 1.17.082 2.306.646 3.131 1.461.836.826 1.232 1.78 1.18 2.576a2.38 2.38 0 0 1-.65 1.538c-.081.09-.16.17-.25.26l-.015.016c-.075.076-.183.185-.274.294a1.7 1.7 0 0 0-.369.7 1.4 1.4 0 0 0 .379 1.32Z"/></svg>