<svg xmlns="http://www.w3.org/2000/svg" viewBox="0 0 24 24"><path fill-rule="evenodd" d="M14.455 13.385 10.612 9.54l.002-.003c.885-.983 1.328-1.475 1.322-2.445s-.43-1.429-1.277-2.346a6.2 6.2 0 0 0-2.21-1.58c-.665-.282-1.371-.163-2.037.048-.635.201-1.37.555-1.96 1.178-.455.467-.777.916-1.011 1.45-.743 1.696-.49 3.672.333 5.329.684 1.375 1.876 3.204 3.949 5.278 2.03 2.03 3.652 3.044 5.016 3.734 1.708.865 3.765 1.145 5.5.337.5-.232.926-.545 1.369-.979.902-.859 1.236-2.024 1.36-2.738a2.3 2.3 0 0 0-.142-1.255 6.2 6.2 0 0 0-1.58-2.21c-.916-.847-1.374-1.27-2.344-1.277s-1.46.437-2.444 1.322zm1.925.972c.167-.14.272-.215.336-.253a.35.35 0 0 1 .34-.008c.05.03.133.089.278.212.149.126.317.28.555.5.434.402 1.048 1.036 1.107 1.658-.095.542-.323 1.201-.768 1.625l-.02.02c-.319.312-.563.478-.812.594-1.018.473-2.41.372-3.754-.308-1.19-.603-2.637-1.495-4.504-3.364-1.925-1.926-2.988-3.58-3.572-4.754-.637-1.282-.735-2.622-.292-3.632.147-.337.379-.615.632-.878.423-.448 1.084-.677 1.627-.772.53.05 1.085.527 1.443.885q.107.108.214.223c.22.238.374.406.5.555.123.145.182.228.212.278.056.092.047.249-.008.34a3 3 0 0 1-.238.318c-.133.161-.297.344-.534.604l-.65.677a1 1 0 0 0 .016 1.402l5.204 5.19a1 1 0 0 0 1.36.05l.754-.652c.244-.223.42-.382.575-.51z"/></svg>