<svg xmlns="http://www.w3.org/2000/svg" viewBox="0 0 32 32"><path fill-rule="evenodd" d="M19.788 10.35c.275.18.99.705 2.42 1.755.734.54 1.487 1.036 2.19 1.4.71.366 1.419.617 2.083.851 1.956.692 3.517 1.243 3.517 4.216 0 2.467 0 3.7-.723 4.501q-.096.105-.2.2c-.426.385-.973.565-1.762.65a3.752 3.752 0 0 1-7.1.074h-8.425a3.752 3.752 0 0 1-7.104-.083c-.847-.096-1.427-.3-1.865-.738-.82-.82-.82-2.142-.82-4.784v-1.268c-.001-.741.665-1.195 1.3-1.627.518-.353 1.014-.691 1.11-1.16.336-.966.504-1.448.643-1.753 1.093-2.38 3.093-3.802 5.7-4.052.334-.032.742-.032 1.558-.032h.138c.95 0 1.426 0 1.753.019 2.454.14 3.527.492 5.587 1.832m-10.94 1.401L10.08 14.5h11.178a27 27 0 0 1-.53-.38l-.01-.007c-1.475-1.084-2.097-1.54-2.292-1.666-.957-.623-1.53-.912-2.063-1.086-.532-.175-1.165-.281-2.304-.346C13.823 11 13.442 11 12.448 11h-.138c-.876 0-1.135.003-1.319.02q-1.245.12-2.143.731M8.25 24a1.25 1.25 0 1 0 0-2.5 1.25 1.25 0 0 0 0 2.5m15.5 0a1.25 1.25 0 1 0 0-2.5 1.25 1.25 0 0 0 0 2.5"/></svg>