<svg xmlns="http://www.w3.org/2000/svg" viewBox="0 0 44 44"><path fill-rule="evenodd" d="M6.346 16.829c-.186.402-.425 1.075-.905 2.42-.136.652-.845 1.124-1.585 1.616-.906.602-1.858 1.235-1.858 2.268v1.86c0 3.774 0 5.661 1.173 6.834.716.717 1.7.995 3.215 1.104a5.001 5.001 0 0 0 9.198.069h12.832a5.001 5.001 0 0 0 9.195-.063c1.463-.1 2.416-.357 3.124-1.022a4 4 0 0 0 .178-.178c1.085-1.156 1.085-2.966 1.085-6.585 0-4.145-2.23-4.914-5.024-5.877-.949-.327-1.962-.677-2.976-1.189-1.149-.58-2.422-1.41-3.652-2.301-1.8-1.303-2.699-1.954-3.095-2.207-2.815-1.8-4.54-2.36-7.876-2.551C18.905 11 18.25 11 16.939 11h-.296c-1.097 0-1.646 0-2.087.04-3.773.334-6.628 2.347-8.21 5.789M33 26a5 5 0 0 0-4.9 4H15.9a5.002 5.002 0 0 0-9.777-.106l-.111-.014-.015-.002c-.387-.052-.58-.078-.69-.187-.11-.11-.135-.303-.187-.69l-.002-.015c-.114-.844-.12-2.021-.12-3.993v-1.275a10 10 0 0 1 .452-.31c.324-.214.845-.56 1.266-.916.475-.402 1.267-1.172 1.599-2.37.473-1.326.646-1.8.756-2.04a7.8 7.8 0 0 1 1.104-1.77l2.262 5.279a1.5 1.5 0 0 0 1.378.909h23.182q.044 0 .087-.003c.395.15.705.282.975.43.411.225.558.397.647.552.105.183.292.636.292 1.673 0 1.891-.006 3.02-.11 3.832-.103.787-.123.804-.906.905l-.103.013A5 5 0 0 0 33 26m-2.538-6.5H14.804l-2.135-4.983a7.7 7.7 0 0 1 2.152-.49c.275-.024.657-.027 1.822-.027h.296c1.362 0 1.904.001 2.264.022 1.534.088 2.518.252 3.381.531.863.28 1.756.724 3.05 1.552.302.193 1.095.765 2.953 2.11.603.436 1.235.873 1.875 1.285M13 31a2 2 0 1 1-4 0 2 2 0 0 1 4 0m20 2a2 2 0 1 0 0-4 2 2 0 0 0 0 4"/></svg>