<svg xmlns="http://www.w3.org/2000/svg" viewBox="0 0 24 24"><path fill-rule="evenodd" d="M2.022 11.38c.407-.268.797-.525.872-.881.258-.717.386-1.075.483-1.287.873-1.905 2.453-3.015 4.54-3.192C8.15 6 8.44 6 9.02 6h.204c.751 0 1.127 0 1.39.015 1.868.11 2.716.383 4.296 1.386.222.14.774.538 1.877 1.332.61.439 1.236.843 1.814 1.132.558.28 1.115.47 1.637.648C21.774 11.04 23 11.46 23 13.72c0 1.956 0 2.934-.578 3.566q-.066.07-.137.137c-.343.314-.788.457-1.437.523a3.001 3.001 0 0 1-5.677.055H8.829a3.001 3.001 0 0 1-5.68-.061c-.686-.073-1.153-.233-1.504-.584C1 16.71 1 15.672 1 13.596v-.978c0-.563.524-.909 1.022-1.237M15.171 16a3.001 3.001 0 0 1 5.635-.064q.067-.01.11-.02.015-.061.028-.17c.052-.412.056-.995.056-2.027 0-.52-.095-.698-.11-.725l-.001-.002c-.008-.014-.037-.067-.217-.164-.19-.103-.43-.195-.81-.328H7.5a1 1 0 0 1-.919-.606l-1.05-2.451a4 4 0 0 0-.335.602c-.05.109-.136.342-.39 1.045-.214.754-.714 1.228-.991 1.461a8 8 0 0 1-.815.58v.465c0 1.095.004 1.714.063 2.15q.015.102.027.164l.107.019A3.001 3.001 0 0 1 8.829 16zM9.019 8c-.623 0-.807.002-.933.013q-.494.04-.915.18L8.16 10.5h7.66l-.199-.141-.003-.002c-1.146-.825-1.623-1.168-1.78-1.268-.73-.462-1.172-.68-1.583-.812-.41-.133-.898-.215-1.76-.265A28 28 0 0 0 9.224 8zM6 18a1 1 0 1 0 0-2 1 1 0 0 0 0 2m13-1a1 1 0 1 1-2 0 1 1 0 0 1 2 0"/></svg>