<svg xmlns="http://www.w3.org/2000/svg" viewBox="0 0 24 24"><path fill-rule="evenodd" d="M23 13.72c0 1.955 0 2.933-.578 3.565q-.066.07-.137.137c-.343.314-.788.457-1.437.523a3.001 3.001 0 0 1-5.677.055H8.829a3.001 3.001 0 0 1-5.68-.061c-.686-.073-1.153-.233-1.504-.584C1 16.71 1 15.672 1 13.596v-.978c0-.563.524-.909 1.022-1.237.407-.269.797-.526.872-.882.258-.717.386-1.075.483-1.287.873-1.905 2.453-3.015 4.54-3.192C8.15 6 8.44 6 9.02 6h.204c.751 0 1.127 0 1.39.015 1.868.11 2.716.383 4.296 1.386.222.14.774.538 1.877 1.332.61.439 1.236.843 1.814 1.132.558.28 1.115.47 1.637.648C21.774 11.04 23 11.46 23 13.72m-7.388-3.368.006.005.202.143H7.66l-.915-2.135q.587-.29 1.341-.352c.126-.011.31-.013.933-.013h.204c.786 0 1.084 0 1.273.012.861.05 1.348.132 1.759.265.41.132.854.35 1.582.812.157.1.634.442 1.775 1.263M6 18a1 1 0 1 0 0-2 1 1 0 0 0 0 2m13-1a1 1 0 1 1-2 0 1 1 0 0 1 2 0"/></svg>