<svg xmlns="http://www.w3.org/2000/svg" viewBox="0 0 17 17"><path d="M9.445 6.816a.934.934 0 0 0-.944-.973.934.934 0 0 0-.945.973c.043.868.125 1.697.186 2.241.036.322.054.483.208.627.154.143.269.148.499.157a1 1 0 0 0 .104 0c.23-.01.344-.014.498-.157.154-.144.172-.305.208-.627a37 37 0 0 0 .186-2.24m-.946 3.753a.956.956 0 1 1 0 1.912.956.956 0 0 1 0-1.912"/><path fill-rule="evenodd" d="M4.395 6.727c1.833-3.066 2.75-4.6 4.104-4.6s2.271 1.534 4.104 4.6l.793 1.326c1.807 3.025 2.711 4.537 2.067 5.68-.645 1.142-2.401 1.142-5.915 1.142H7.45c-3.514 0-5.27 0-5.915-1.143-.644-1.142.26-2.654 2.067-5.679zm7.633 2.144-.793-1.326c-.944-1.58-1.562-2.605-2.096-3.258-.257-.313-.43-.458-.533-.523-.088-.055-.126-.055-.214 0-.103.065-.276.21-.533.523-.535.653-1.152 1.679-2.096 3.258L4.97 8.87c-.931 1.558-1.532 2.572-1.848 3.336-.151.366-.193.576-.2.683-.003.05.002.064.048.088.093.048.291.12.681.178.814.121 1.988.125 3.799.125h2.098c1.81 0 2.985-.004 3.799-.125.39-.058.593-.133.686-.18l.006-.004c.029-.014.04-.02.036-.082-.006-.107-.048-.317-.2-.683-.315-.764-.916-1.778-1.847-3.336"/></svg>