<svg xmlns="http://www.w3.org/2000/svg" viewBox="0 0 16 16"><path fill-rule="evenodd" d="m13.95 6.618-.003-.037c-.128-1.719-.193-2.594-1.069-3.46-.881-.87-1.753-.94-3.496-1.07C8.932 2.02 8.461 2 8 2s-.932.02-1.382.05l-.037.003c-1.719.128-2.594.194-3.46 1.069-.87.881-.94 1.753-1.07 3.496C2.02 7.068 2 7.539 2 8s.02.932.05 1.382l.003.037c.128 1.718.194 2.594 1.069 3.46.876.875 1.742.94 3.464 1.069l.032.002c.45.03.921.05 1.382.05s.932-.02 1.382-.05l.037-.003c1.718-.128 2.594-.193 3.46-1.069.875-.876.94-1.742 1.069-3.464l.002-.032c.03-.45.05-.921.05-1.382s-.02-.932-.05-1.382m-3.133-.436V4.895H5.156v6.21h5.688V9.818H6.83V8.549h3.033V7.316H6.83V6.182z"/></svg>