<svg xmlns="http://www.w3.org/2000/svg" viewBox="0 0 16 16"><path d="M2.524 8c-.38-.475-.423-1.029-.499-2.003a7.5 7.5 0 0 1 .057-1.718c.104-.703.156-1.055.656-1.53s.924-.516 1.773-.597C5.38 2.07 6.541 2 7.992 2c1.45 0 2.612.07 3.48.152.85.081 1.274.122 1.774.597s.552.827.656 1.531a7.5 7.5 0 0 1 .057 1.716c-.028.369-.052.678-.092.945a.76.76 0 0 1-.733.559.75.75 0 0 1-.731-.912c.021-.187.04-.418.063-.708q.02-.256.02-.503c0-.31-.026-.605-.066-.878a9 9 0 0 0-.064-.4 1 1 0 0 0-.041-.154 1 1 0 0 0-.1-.108.5.5 0 0 0-.09-.074.2.2 0 0 0-.05-.02 2 2 0 0 0-.238-.044 14 14 0 0 0-.506-.053A35 35 0 0 0 7.992 3.5a35 35 0 0 0-3.339.146c-.22.02-.374.036-.506.053a2 2 0 0 0-.237.045.2.2 0 0 0-.05.019.5.5 0 0 0-.09.074 1 1 0 0 0-.107.12 1 1 0 0 0-.035.142c-.02.098-.037.215-.064.4a6 6 0 0 0-.046 1.381c.023.29.04.507.062.693.02.184.042.296.062.37a.4.4 0 0 0 .037.1.4.4 0 0 0 .07.078l.004.004c.019.019.051.05.24.08.183.03.413.041.755.046q.306-.004.67-.003h4.32a.753.753 0 0 1 .001 1.506H5.42q-.365 0-.67-.003a6 6 0 0 0-.756.045c-.19.03-.221.062-.24.08l-.005.005a.4.4 0 0 0-.07.079.4.4 0 0 0-.036.099 3 3 0 0 0-.062.37c-.022.186-.039.402-.062.692q-.02.257-.02.503c0 .31.026.606.066.878.027.185.045.302.064.4a1 1 0 0 0 .042.154.7.7 0 0 0 .1.108c.054.052.082.07.09.074.006.003.017.01.05.019.04.012.11.027.237.044.132.018.286.033.506.054.676.064 1.55.121 2.619.14.4.015.72.35.72.755a.75.75 0 0 1-.856.742 35 35 0 0 1-2.625-.144c-.849-.08-1.273-.121-1.773-.596s-.552-.827-.656-1.53a7.5 7.5 0 0 1-.057-1.717c.076-.975.119-1.529.499-2.004"/><path d="M6.228 5.333a.9.9 0 1 1-1.799.001.9.9 0 0 1 1.799 0m-.899 6.233a.9.9 0 1 0 0-1.799.9.9 0 0 0 0 1.799"/><path fill-rule="evenodd" d="M12.23 15.002h-.487c-.288 0-.433 0-.537-.088-.105-.089-.128-.226-.175-.5l-.01-.056a.2.2 0 0 0-.109-.144 2.5 2.5 0 0 1-.301-.175.2.2 0 0 0-.18-.023l-.051.02c-.261.096-.392.145-.52.098-.13-.046-.201-.171-.345-.421l-.244-.423c-.144-.25-.216-.375-.192-.51s.13-.224.345-.402l.042-.035a.2.2 0 0 0 .07-.167 2.5 2.5 0 0 1 0-.35.2.2 0 0 0-.07-.168l-.043-.035c-.214-.178-.321-.267-.345-.402s.048-.26.192-.51l.244-.423c.144-.25.216-.375.345-.421.128-.047.259.001.52.098l.052.02a.2.2 0 0 0 .18-.024 2.5 2.5 0 0 1 .302-.175.2.2 0 0 0 .11-.143l.008-.053c.047-.274.07-.411.175-.5.104-.088.249-.088.537-.088h.487c.288 0 .433 0 .537.088.105.089.128.226.175.5l.009.052c.01.063.052.116.11.144q.158.077.304.177c.053.035.12.045.18.023l.049-.019c.26-.096.391-.145.52-.098.128.046.2.171.345.421l.244.423c.144.25.216.375.192.51s-.131.224-.345.402l-.042.034a.2.2 0 0 0-.07.167 3 3 0 0 1 0 .349.2.2 0 0 0 .07.167l.042.035c.214.178.321.267.345.401.024.135-.047.26-.192.51l-.244.423c-.144.25-.216.375-.344.422-.13.046-.26-.002-.52-.099l-.052-.019a.2.2 0 0 0-.179.024 2.5 2.5 0 0 1-.303.175.2.2 0 0 0-.11.144l-.009.055c-.047.275-.07.412-.175.5s-.248.089-.537.089m.654-2.927c-.008.27-.012.404-.214.606-.202.203-.337.207-.606.214a3 3 0 0 1-.156 0c-.27-.007-.404-.011-.606-.214s-.206-.337-.214-.606a3 3 0 0 1 0-.157c.008-.27.012-.404.214-.606.202-.203.337-.207.606-.214a3 3 0 0 1 .156 0c.27.007.404.011.606.214s.206.337.214.606a3 3 0 0 1 0 .157"/></svg>