<svg xmlns="http://www.w3.org/2000/svg" viewBox="0 0 24 24"><path d="M6.954 18.782c1.244.117 2.93.218 5.05.218a1 1 0 1 1 0 2c-2.183 0-3.932-.104-5.238-.226-1.274-.12-1.91-.18-2.663-.893s-.83-1.236-.984-2.282a11 11 0 0 1-.084-2.483c.117-1.539.181-2.372.856-3.116-.675-.744-.739-1.577-.856-3.116a11 11 0 0 1 .084-2.483c.155-1.046.232-1.568.984-2.282.753-.713 1.39-.773 2.663-.893A56 56 0 0 1 12.005 3c2.184 0 3.932.103 5.238.226 1.274.12 1.912.18 2.664.893s.83 1.237.984 2.283a11 11 0 0 1 .084 2.481c-.11 1.442-.173 2.265-.736 2.975-.176.286-.51.462-.87.462a1 1 0 0 1-.669-1.744.7.7 0 0 0 .09-.225c.081-.298.12-.713.19-1.62q.029-.371.029-.731c0-.461-.038-.9-.098-1.306-.04-.274-.067-.453-.097-.605a1.6 1.6 0 0 0-.063-.246V5.84c-.008-.021-.031-.09-.221-.27-.158-.149-.227-.173-.315-.198-.193-.056-.46-.089-1.16-.155A54 54 0 0 0 12.006 5c-2.12 0-3.807.1-5.051.218-.699.065-.966.098-1.16.154-.087.025-.156.049-.313.198-.19.18-.214.249-.221.27l-.001.003a1.6 1.6 0 0 0-.063.246c-.03.151-.057.33-.097.604a9 9 0 0 0-.069 2.039c.07.907.109 1.322.19 1.62a.66.66 0 0 0 .23.381c.076.07.157.138.498.191.442.07 1.046.076 2.147.076h6.912a1 1 0 1 1 0 2H8.095c-1.101 0-1.705.006-2.147.076-.34.053-.422.121-.498.19a.66.66 0 0 0-.23.382c-.081.298-.12.713-.19 1.62q-.029.371-.029.732c0 .462.038.901.098 1.307.04.274.067.453.097.604.028.142.05.21.063.246l.001.003c.007.021.03.09.22.27.158.149.227.173.315.198.193.056.46.089 1.159.154"/><path d="M9.253 8a1.25 1.25 0 1 1-2.5 0 1.25 1.25 0 0 1 2.5 0m-1.25 9.25a1.25 1.25 0 1 0 0-2.5 1.25 1.25 0 0 0 0 2.5"/><path fill-rule="evenodd" d="M18.334 22h-.651c-.386 0-.578 0-.718-.118s-.17-.3-.233-.667l-.012-.071a.26.26 0 0 0-.147-.192 3 3 0 0 1-.404-.234.26.26 0 0 0-.24-.03l-.068.024c-.348.13-.523.194-.695.131-.171-.062-.268-.228-.46-.561l-.326-.564c-.193-.334-.289-.5-.257-.68.033-.18.176-.299.461-.536l.057-.047a.26.26 0 0 0 .093-.222 3 3 0 0 1 0-.466.26.26 0 0 0-.093-.222l-.057-.047c-.286-.238-.43-.356-.462-.536s.065-.346.257-.68l.326-.564c.192-.333.289-.5.46-.562.173-.062.347.002.695.131l.07.026c.08.03.169.017.24-.03q.193-.132.403-.234a.26.26 0 0 0 .146-.192l.013-.072c.062-.366.094-.55.233-.667.14-.118.332-.118.718-.118h.65c.386 0 .578 0 .718.118s.171.3.234.667l.012.072c.014.084.07.154.146.192q.21.102.405.233c.07.048.16.06.24.031l.067-.025c.348-.129.523-.193.695-.131s.268.228.46.562l.326.564c.193.333.289.5.257.68-.033.18-.175.298-.461.535l-.056.046a.26.26 0 0 0-.093.222 3 3 0 0 1 0 .468.26.26 0 0 0 .093.222l.057.047c.286.237.429.356.46.536.033.18-.063.346-.256.68l-.326.563c-.192.334-.288.5-.46.562s-.346-.002-.695-.13l-.069-.026a.26.26 0 0 0-.24.03 3 3 0 0 1-.404.234.26.26 0 0 0-.146.192l-.012.071c-.063.366-.094.55-.234.667-.14.118-.332.118-.717.118m.922-3.891c-.01.374-.016.561-.297.842s-.468.287-.843.297a4 4 0 0 1-.218 0c-.374-.01-.561-.016-.843-.297-.28-.28-.286-.468-.297-.842a4 4 0 0 1 0-.218c.01-.374.016-.561.297-.842.282-.281.469-.287.843-.297a4 4 0 0 1 .218 0c.375.01.562.016.843.297s.287.468.297.842a4 4 0 0 1 0 .218"/></svg>