<svg xmlns="http://www.w3.org/2000/svg" viewBox="0 0 24 24"><g fill-rule="evenodd" clip-rule="evenodd"><path d="M5.961 3.276C7.41 3.131 9.427 3 12.005 3s4.594.13 6.042.276c1.314.132 1.62.189 2.082.62.278.258.392.443.467.636.094.239.149.53.247 1.094.099.573.166 1.215.166 1.9q-.001.584-.058 1.13c-.079.766-.127 1.201-.235 1.547-.09.284-.22.509-.522.781-.515.466-1.026.516-3.058.516H6.873c-2.032 0-2.542-.05-3.057-.516-.302-.272-.433-.497-.522-.781-.108-.345-.157-.78-.235-1.546A11 11 0 0 1 3 7.527c0-.687.068-1.33.167-1.903.098-.564.152-.854.246-1.092.076-.193.19-.378.468-.637.462-.43.768-.487 2.08-.619M8.753 7.5a1.25 1.25 0 1 1-2.5 0 1.25 1.25 0 0 1 2.5 0m-4.937 5.516c.515-.466 1.025-.516 3.057-.516h8.917a2.4 2.4 0 0 0-.59.64c-.22.01-.46.045-.714.137a2.5 2.5 0 0 0-1.133.846c-.153.2-.287.434-.362.565l-.02.032-.325.564-.02.033c-.075.13-.21.364-.307.596-.13.314-.274.805-.167 1.403.048.267.137.492.24.687-.102.195-.191.42-.239.685-.107.598.036 1.09.167 1.404.097.232.232.465.308.596l.019.032.16.276q-.393.004-.802.004c-2.578 0-4.596-.13-6.044-.276-1.312-.133-1.618-.189-2.08-.62-.279-.258-.392-.443-.468-.636-.094-.238-.148-.528-.246-1.092-.1-.574-.167-1.216-.167-1.902q.002-.586.059-1.131c.078-.766.127-1.2.235-1.546.089-.284.22-.51.522-.781M8.753 16.5a1.25 1.25 0 1 1-2.5 0 1.25 1.25 0 0 1 2.5 0"/><path d="M18.334 22h-.652c-.385 0-.577 0-.717-.118s-.17-.3-.233-.667l-.013-.071a.26.26 0 0 0-.146-.192 3 3 0 0 1-.404-.234.26.26 0 0 0-.24-.03l-.068.024c-.349.13-.523.194-.695.131-.172-.062-.268-.228-.46-.561l-.326-.564c-.193-.334-.289-.5-.257-.68.033-.18.175-.299.461-.536l.057-.047a.26.26 0 0 0 .093-.222 3 3 0 0 1 0-.466.26.26 0 0 0-.093-.222l-.058-.047c-.286-.238-.428-.356-.46-.536s.063-.346.256-.68l.326-.564c.192-.333.288-.5.46-.562s.347.002.695.131l.07.026c.08.03.169.017.24-.03q.192-.132.403-.234a.26.26 0 0 0 .146-.192l.012-.072c.063-.366.094-.55.234-.667.14-.118.332-.118.717-.118h.652c.385 0 .577 0 .717.118s.171.3.234.667l.012.072c.014.084.07.154.146.192q.211.102.404.233c.071.048.16.06.24.031l.068-.025c.348-.129.523-.193.695-.131s.268.228.46.562l.326.564c.193.333.289.5.257.68-.033.18-.175.298-.461.535l-.056.046a.26.26 0 0 0-.093.222 3 3 0 0 1 0 .468.26.26 0 0 0 .093.222l.057.047c.286.237.429.356.46.536.033.18-.063.346-.256.68l-.326.563c-.192.334-.288.5-.46.562s-.346-.002-.695-.13l-.069-.026a.26.26 0 0 0-.24.03 3 3 0 0 1-.404.234.26.26 0 0 0-.146.192l-.012.071c-.063.366-.094.55-.234.667-.14.118-.332.118-.717.118m.922-3.891c-.01.374-.016.561-.297.842s-.469.287-.843.297a4 4 0 0 1-.218 0c-.374-.01-.561-.016-.843-.297-.28-.28-.286-.468-.297-.842a4 4 0 0 1 0-.218c.01-.374.016-.561.297-.842.282-.281.469-.287.843-.297a4 4 0 0 1 .218 0c.374.01.562.016.843.297s.287.468.297.842a4 4 0 0 1 0 .218"/></g></svg>