<svg xmlns="http://www.w3.org/2000/svg" viewBox="0 0 16 16"><path d="M5.333 6.233a.9.9 0 1 0 0-1.8.9.9 0 0 0 0 1.8m0 5.334a.9.9 0 1 0 0-1.8.9.9 0 0 0 0 1.8"/><path fill-rule="evenodd" d="M2.525 8c-.38-.475-.424-1.029-.5-2.003a7.5 7.5 0 0 1 .057-1.718c.104-.703.156-1.055.657-1.53.5-.475.925-.516 1.776-.597C5.385 2.07 6.548 2 8 2s2.616.07 3.485.152c.85.081 1.276.122 1.776.597.501.475.553.827.657 1.531a7.5 7.5 0 0 1 .057 1.716c-.076.975-.119 1.53-.5 2.005.381.476.424 1.03.5 2.005q.024.307.025.618c0 .392-.032.761-.082 1.097-.104.704-.156 1.056-.656 1.53-.501.476-.926.517-1.777.597-.87.083-2.033.153-3.485.153a37 37 0 0 1-3.486-.153c-.85-.08-1.275-.121-1.775-.596s-.553-.827-.657-1.53a7.5 7.5 0 0 1-.057-1.717c.076-.975.119-1.529.5-2.004M3.566 4.5a6 6 0 0 0-.046 1.38c.023.29.04.507.062.693.021.184.042.296.062.37a.4.4 0 0 0 .037.1.4.4 0 0 0 .07.078l.004.004c.019.019.051.05.241.08.183.03.413.041.756.046q.306-.004.671-.003h5.154q.364 0 .67.003c.344-.005.574-.017.757-.046.19-.03.222-.061.241-.08l.005-.004a.4.4 0 0 0 .07-.079.4.4 0 0 0 .036-.099c.02-.074.041-.186.062-.37.022-.186.039-.403.062-.693q.02-.256.02-.503c0-.31-.026-.605-.066-.878a9 9 0 0 0-.064-.4 1 1 0 0 0-.042-.154 1 1 0 0 0-.1-.108.5.5 0 0 0-.09-.074.2.2 0 0 0-.05-.02 2 2 0 0 0-.238-.044 14 14 0 0 0-.507-.053A36 36 0 0 0 8 3.5c-1.404 0-2.52.067-3.343.146-.221.02-.375.036-.507.053a2 2 0 0 0-.237.045.2.2 0 0 0-.05.019.5.5 0 0 0-.091.074 1 1 0 0 0-.106.12 1 1 0 0 0-.036.142 9 9 0 0 0-.064.4M4.752 8.75a6 6 0 0 0-.756.045c-.19.03-.222.062-.241.08l-.005.005a.4.4 0 0 0-.07.079.4.4 0 0 0-.036.099c-.02.074-.041.186-.062.37-.022.186-.039.402-.062.692q-.02.257-.02.503c0 .31.026.606.066.878.027.185.045.302.064.4a1 1 0 0 0 .042.154.7.7 0 0 0 .1.108c.054.052.083.07.09.074s.017.01.05.019c.04.012.11.027.238.044.132.018.286.033.506.054.823.078 1.94.146 3.344.146s2.52-.068 3.343-.146c.221-.02.375-.036.507-.054.128-.017.197-.032.238-.044a.2.2 0 0 0 .05-.02.5.5 0 0 0 .09-.073 1 1 0 0 0 .107-.12 1 1 0 0 0 .035-.143c.02-.098.037-.214.064-.4a6 6 0 0 0 .046-1.379c-.023-.29-.04-.507-.062-.693a3 3 0 0 0-.062-.37.4.4 0 0 0-.037-.1.4.4 0 0 0-.07-.078l-.004-.004c-.019-.019-.051-.05-.241-.08a6 6 0 0 0-.756-.046q-.307.004-.671.003H5.423q-.365 0-.67-.003"/></svg>