<svg xmlns="http://www.w3.org/2000/svg" viewBox="0 0 16 16"><path fill-rule="evenodd" d="M2.065 5.856c.092.7.138 1.049.478 1.346s.763.298 1.61.298h7.696c.848 0 1.272 0 1.611-.298.34-.297.386-.647.479-1.346.038-.292.062-.604.062-.926 0-.55-.07-1.057-.162-1.487-.069-.32-.103-.48-.24-.677a1.4 1.4 0 0 0-.404-.365c-.21-.116-.4-.138-.78-.18-.978-.109-2.453-.22-4.413-.22-1.96.001-3.435.111-4.414.22-.38.042-.57.064-.78.18a1.4 1.4 0 0 0-.403.365c-.137.197-.172.357-.24.677-.093.43-.163.937-.163 1.487 0 .322.024.634.063.926M5.9 4.752a.9.9 0 1 1-1.8 0 .9.9 0 0 1 1.8 0m-3.835 5.394c.092-.7.138-1.049.478-1.347.34-.297.763-.297 1.61-.297h7.696c.848 0 1.272 0 1.611.298.34.297.386.647.479 1.346.038.292.062.604.062.926 0 .55-.07 1.057-.162 1.487-.069.32-.103.48-.24.677-.087.125-.27.291-.404.365-.21.116-.4.137-.78.18-.978.109-2.453.219-4.413.219s-3.435-.11-4.414-.22c-.38-.041-.57-.063-.78-.18a1.4 1.4 0 0 1-.403-.364c-.137-.197-.172-.357-.24-.677a7 7 0 0 1-.163-1.487c0-.322.024-.634.063-.926M5.9 11.25a.9.9 0 1 0-1.8 0 .9.9 0 0 0 1.8 0"/></svg>