<svg xmlns="http://www.w3.org/2000/svg" viewBox="0 0 24 24"><path d="M8 9.25a1.25 1.25 0 1 0 0-2.5 1.25 1.25 0 0 0 0 2.5m0 8a1.25 1.25 0 1 0 0-2.5 1.25 1.25 0 0 0 0 2.5"/><path fill-rule="evenodd" d="M20.11 12c.675-.744.738-1.578.855-3.117Q21 8.444 21 8c0-.57-.047-1.108-.119-1.598-.154-1.046-.231-1.569-.983-2.283-.752-.713-1.39-.773-2.663-.893A56 56 0 0 0 12 3c-2.183 0-3.93.104-5.236.226-1.273.12-1.91.18-2.661.893s-.83 1.236-.984 2.282a11 11 0 0 0-.084 2.483c.117 1.539.18 2.372.856 3.116-.675.744-.739 1.577-.856 3.116Q3 15.555 3 16c0 .57.047 1.109.12 1.6.154 1.045.23 1.567.983 2.28.752.714 1.388.774 2.661.894C8.07 20.896 9.817 21 12 21s3.93-.104 5.235-.226c1.274-.12 1.91-.18 2.663-.893s.829-1.237.983-2.283a11 11 0 0 0 .084-2.481c-.117-1.54-.18-2.373-.856-3.117M5.097 6.693a9 9 0 0 0-.069 2.039c.07.907.109 1.322.189 1.62a.66.66 0 0 0 .231.381c.075.07.157.138.498.191.441.07 1.045.076 2.145.076h7.791c1.116 0 1.725-.006 2.17-.076.342-.053.423-.121.498-.19a.66.66 0 0 0 .231-.383c.08-.298.12-.713.189-1.62a9 9 0 0 0-.069-2.037c-.04-.274-.067-.453-.097-.605a1.6 1.6 0 0 0-.062-.246l-.002-.003c-.007-.021-.03-.09-.22-.27-.157-.149-.227-.173-.314-.198-.193-.056-.46-.089-1.16-.155A54 54 0 0 0 12 5c-2.12 0-3.805.1-5.048.218-.698.065-.966.098-1.159.154-.087.025-.157.049-.314.198-.19.18-.213.249-.22.27l-.001.003a1.6 1.6 0 0 0-.063.246c-.03.151-.057.33-.097.604M15.908 13H8.091c-1.1 0-1.704.006-2.145.076-.341.053-.423.121-.498.19a.66.66 0 0 0-.231.382c-.08.298-.12.713-.189 1.62Q5 15.639 5 16c0 .462.038.901.098 1.307.04.274.067.453.097.604.028.142.05.21.063.246v.003c.008.021.031.09.221.27.157.149.227.173.314.198.193.056.46.089 1.158.154C8.195 18.9 9.881 19 12 19s3.804-.1 5.048-.218c.698-.065.966-.098 1.159-.154.087-.025.157-.05.314-.198.19-.18.213-.249.22-.27l.002-.003c.013-.035.035-.104.062-.246.03-.152.057-.33.097-.605a9 9 0 0 0 .069-2.037c-.07-.907-.108-1.322-.189-1.62a.66.66 0 0 0-.23-.382c-.076-.07-.157-.138-.498-.191-.442-.07-1.046-.076-2.147-.076"/></svg>