<svg xmlns="http://www.w3.org/2000/svg" viewBox="0 0 24 24"><path d="M10.577 7.841a1 1 0 0 1-1.154-1.634l.331-.233c.526-.371.96-.679 1.319-.942q-.504.02-1.002.057c-2.75.204-3.265.318-3.97 1.024-.707.707-.82 1.221-1.025 3.971A26 26 0 0 0 5 12a.99.99 0 0 1-.979 1h-.04A.97.97 0 0 1 3 12.04V12c0-.7.03-1.386.081-2.064.195-2.616.292-3.924 1.605-5.237s2.62-1.41 5.237-1.605q.59-.044 1.196-.065c-.368-.272-.816-.59-1.365-.977l-.33-.233A1 1 0 0 1 10.576.185l.33.233c2.319 1.637 3.478 2.455 3.478 3.595s-1.16 1.958-3.477 3.595z"/><path fill-rule="evenodd" d="M10.124 19.876c.875.875 1.748.94 3.492 1.07.452.034.918.054 1.385.054s.933-.02 1.385-.054c1.744-.13 2.616-.195 3.491-1.07.876-.876.94-1.748 1.07-3.492.034-.452.055-.918.055-1.385s-.02-.933-.055-1.385c-.13-1.744-.194-2.616-1.07-3.491-.875-.876-1.747-.94-3.491-1.07A19 19 0 0 0 15 8.999c-.467 0-.933.02-1.385.054-1.744.13-2.617.194-3.492 1.07-.875.875-.94 1.747-1.07 3.491A19 19 0 0 0 9 15c0 .467.02.933.054 1.385.13 1.744.195 2.616 1.07 3.492M11 14.999c0 .41.018.826.049 1.237.07.936.11 1.384.196 1.716a.96.96 0 0 0 .293.51.96.96 0 0 0 .51.293c.331.086.78.127 1.716.197.411.03.828.048 1.237.048s.825-.018 1.236-.049c.937-.07 1.385-.11 1.717-.196a.96.96 0 0 0 .51-.293.96.96 0 0 0 .292-.51c.087-.332.127-.78.197-1.716.03-.411.049-.828.049-1.237s-.018-.825-.05-1.236c-.069-.937-.11-1.385-.196-1.717a.95.95 0 0 0-.293-.51.95.95 0 0 0-.51-.292c-.331-.087-.78-.127-1.716-.197-.41-.03-.827-.049-1.236-.049s-.826.019-1.237.05c-.936.069-1.385.11-1.716.196a.96.96 0 0 0-.51.293.96.96 0 0 0-.293.51c-.086.331-.127.78-.196 1.716-.031.41-.049.827-.049 1.236"/></svg>