<svg xmlns="http://www.w3.org/2000/svg" viewBox="0 0 16 16"><path d="M3.5 8c0 1.115.056 2.071.135 2.867.072.717.112 1.047.194 1.307.144.457.59.902 1.047 1.045.26.082.589.12 1.305.19a18.6 18.6 0 0 0 3.638.001c.716-.07 1.045-.11 1.305-.19.18-.058.355-.144.63-.417.156-.157.252-.28.315-.392a.75.75 0 0 1 .67-.411.76.76 0 0 1 .761.75.8.8 0 0 1-.044.254h.007c-.141.29-.353.565-.65.86-.844.842-1.512.908-2.848 1.039A20 20 0 0 1 8 15c-.703 0-1.364-.038-1.965-.097-1.336-.131-2.004-.197-2.848-1.039s-.91-1.51-1.044-2.848A30 30 0 0 1 2 8c0-1.175.06-2.188.145-3.036.134-1.328.2-1.992 1.044-2.833s1.504-.906 2.825-1.035a19.7 19.7 0 0 1 3.928.002c1.353.133 2.029.199 2.873 1.042.238.237.424.462.558.691a.7.7 0 0 1 .127.419c0 .414-.346.75-.76.75a.75.75 0 0 1-.649-.373h-.002a1.8 1.8 0 0 0-.334-.426c-.272-.271-.447-.359-.633-.416-.265-.083-.601-.123-1.326-.194A18 18 0 0 0 8 2.5c-.643 0-1.29.035-1.84.089-.71.069-1.031.107-1.286.188-.454.143-.9.589-1.044 1.042-.081.257-.12.582-.193 1.295-.08.8-.137 1.762-.137 2.886"/><path d="M14.53 6.53a.75.75 0 0 0-1.06-1.06l-4 4a.75.75 0 1 0 1.06 1.06zM10.9 6a.9.9 0 1 1-1.8 0 .9.9 0 0 1 1.8 0m3.1 4.9a.9.9 0 1 0 0-1.8.9.9 0 0 0 0 1.8"/></svg>