<svg xmlns="http://www.w3.org/2000/svg" viewBox="0 0 16 16"><path fill-rule="evenodd" d="M6.975 5.932c.034.047.068.098.136.2.054.083.081.124.109.161.297.404.73.65 1.194.677.043.002.088.002.179.002h.71c1.383 0 2.075 0 2.674.628.023.024.063.068.085.094.566.666.578 1.302.602 2.576q.003.158.003.323c0 .719-.09 1.371-.209 1.924-.136.627-.203.94-.776 1.524-.573.583-.904.634-1.565.736-.793.121-1.877.223-3.284.223-.974 0-1.82-.049-2.532-.12-1.192-.117-1.789-.176-2.433-.908s-.695-1.415-.797-2.781A25 25 0 0 1 1 9.333c0-.57.043-1.102.11-1.581.14-1.023.212-1.535.796-2.102s1.19-.567 2.4-.567h.953c.113 0 .17 0 .223.003.58.034 1.121.341 1.493.846"/><path d="M9.444 2.05a3 3 0 0 0-.136-.2c-.371-.506-.912-.813-1.492-.847C7.762 1 7.706 1 7.593 1H6.64c-1.21 0-1.816 0-2.4.567-.585.567-.656 1.078-.797 2.102q-.017.121-.032.248h3.015c.113 0 .17 0 .223.003.58.034 1.12.34 1.493.846.034.046.068.098.136.2.054.082.081.123.109.16.297.405.73.65 1.194.677.043.003.088.003.178.003h.71c1.384 0 2.076 0 2.674.627.024.025.064.069.086.095.566.665.578 1.302.601 2.575l.002 1.03q.088-.078.183-.176c.573-.583.64-.897.777-1.524a9 9 0 0 0 .205-2.247c-.024-1.273-.035-1.91-.601-2.575l-.086-.095c-.599-.627-1.29-.627-2.674-.627h-.71c-.09 0-.136 0-.178-.003-.464-.027-.897-.272-1.195-.676z"/></svg>