<svg xmlns="http://www.w3.org/2000/svg" viewBox="0 0 44 44"><path fill-rule="evenodd" d="M4.121 4.121C.912 7.331.674 10.528.198 16.923A69 69 0 0 0 0 22.001c0 1.71.075 3.42.198 5.078.476 6.395.714 9.592 3.923 12.801 3.21 3.21 6.407 3.448 12.802 3.924 1.658.123 3.368.198 5.078.198s3.42-.075 5.078-.198c6.395-.476 9.592-.714 12.801-3.924 3.21-3.209 3.448-6.407 3.924-12.801A69 69 0 0 0 44.002 22c0-1.71-.075-3.42-.198-5.078-.476-6.395-.714-9.592-3.924-12.802S33.473.674 27.08.198A69 69 0 0 0 22 0c-1.71 0-3.42.075-5.078.198C10.527.674 7.33.912 4.12 4.121m34.641 17.545a.32.32 0 0 0-.304-.314c-6.014-.228-9.674-.995-12.235-3.555-2.565-2.566-3.33-6.229-3.558-12.256a.315.315 0 0 0-.314-.303h-.702a.32.32 0 0 0-.314.303c-.228 6.025-.992 9.69-3.558 12.256-2.563 2.563-6.221 3.327-12.235 3.555a.315.315 0 0 0-.304.314v.702c0 .167.136.306.304.314 6.014.228 9.674.995 12.235 3.555s3.325 6.213 3.555 12.216a.315.315 0 0 0 .315.304h.704a.32.32 0 0 0 .314-.304c.23-6.003.995-9.655 3.556-12.216 2.563-2.563 6.22-3.327 12.235-3.555a.315.315 0 0 0 .303-.314v-.702z"/></svg>