<svg xmlns="http://www.w3.org/2000/svg" viewBox="0 0 24 24"><path d="M4 12c0 1.55.068 2.903.168 4.056.067.77.12 1.395.234 1.944.363 1.76 1.832 3.294 3.598 3.68.545.118 1.161.17 1.93.233a25 25 0 0 0 4.14 0c.769-.064 1.385-.115 1.93-.234 1.766-.385 3.235-1.918 3.598-3.679.113-.549.167-1.173.234-1.944.076-.869.113-1.303-.023-1.701a2.08 2.08 0 0 0-1.086-1.185C18.338 13 17.87 13 16.93 13H11.5a2 2 0 0 1-2-2v-1a2.5 2.5 0 0 1 4.97-.387 1 1 0 0 0 .995.887h1.955c.436 0 .654 0 .852-.04.817-.167 1.493-.904 1.588-1.732.023-.2.006-.394-.028-.782-.067-.772-.12-1.396-.234-1.945C19.235 4.24 17.766 2.707 16 2.32c-.545-.119-1.162-.17-1.931-.234a25 25 0 0 0-4.137 0c-.77.064-1.387.115-1.932.234C6.234 2.706 4.765 4.239 4.402 6c-.113.549-.167 1.173-.234 1.945A47 47 0 0 0 4 12"/></svg>