<svg xmlns="http://www.w3.org/2000/svg" viewBox="0 0 16 16"><path d="M2.935 11.004A35 35 0 0 1 2.812 8c0-1.16.05-2.161.123-3.003.118-1.374.177-2.06 1.038-2.921.86-.86 1.494-.914 2.76-1.022a15 15 0 0 1 2.534 0c1.266.108 1.899.162 2.76 1.022s.92 1.547 1.038 2.92q.036.426.065.905c.01.197.016.295.007.396a1.36 1.36 0 0 1-1.122 1.188c-.1.015-.21.015-.43.015H11a1 1 0 0 1-1-1C9.916 5.658 9.035 5 8.001 5 6.906 5 6 5.888 6 6.983V8a1.5 1.5 0 0 0 1.5 1.5h4.151a1.36 1.36 0 0 1 1.423 1.346c0 .049-.003.085-.009.158-.118 1.373-.177 2.06-1.038 2.92-.86.86-1.493.914-2.759 1.021a15 15 0 0 1-2.536 0c-1.266-.107-1.898-.161-2.76-1.021-.86-.86-.919-1.547-1.037-2.92"/></svg>