<svg xmlns="http://www.w3.org/2000/svg" viewBox="0 0 24 24"><path fill-rule="evenodd" d="M6 12c0 1.492.065 2.787.16 3.883.094 1.078.149 1.601.278 2.022.235.76.981 1.519 1.742 1.756.394.123.879.173 1.916.26a23 23 0 0 0 3.808 0c1.037-.087 1.523-.137 1.916-.26.76-.237 1.507-.996 1.742-1.756.13-.42.184-.944.278-2.022.04-.464.059-.697.06-.866-.19-.014-.47-.017-.97-.017H12a4 4 0 0 1-4-4v-1a4 4 0 0 1 7.874-1h2.027c-.003-.294-.036-.588-.061-.881-.094-1.079-.149-1.602-.278-2.023-.235-.76-.981-1.52-1.742-1.757-.394-.122-.88-.173-1.917-.259a23 23 0 0 0-3.805 0c-1.038.086-1.524.137-1.918.26-.76.237-1.507.995-1.742 1.756-.13.42-.184.944-.278 2.023A45 45 0 0 0 6 12m11.08-1c.827 0 1.254-.006 1.61-.156a2.08 2.08 0 0 0 1.129-1.23c.124-.383.088-.798.017-1.628l-.004-.04c-.067-.772-.12-1.397-.234-1.946-.363-1.76-1.833-3.293-3.598-3.679-.545-.119-1.162-.17-1.931-.234a25 25 0 0 0-4.137 0c-.77.064-1.387.115-1.932.234C6.235 2.707 4.765 4.24 4.402 6c-.113.55-.167 1.174-.234 1.946A47 47 0 0 0 4 12c0 1.55.068 2.903.168 4.056.067.771.12 1.396.234 1.944.363 1.76 1.833 3.294 3.598 3.68.545.118 1.161.17 1.93.233a25 25 0 0 0 4.14 0c.769-.064 1.386-.115 1.93-.234 1.765-.385 3.235-1.918 3.598-3.678.113-.55.167-1.174.234-1.945.076-.869.113-1.303-.023-1.701a2.08 2.08 0 0 0-1.086-1.185C18.338 13 17.87 13 16.93 13H12a2 2 0 0 1-2-2v-1a2 2 0 1 1 4 0c0 .5.45 1 1.002 1z"/></svg>