<svg xmlns="http://www.w3.org/2000/svg" viewBox="0 0 24 24"><path d="M9.595 10.647c-.253.18-.578.289-.975.289H6.383V8.59h2.093c.217 0 .397 0 .577.036s.325.109.47.18c.144.109.252.217.324.362.072.144.109.36.109.577 0 .397-.109.722-.361.902m-.253 4.475c-.18.036-.397.072-.613.072H6.383v-2.779h2.382c.469 0 .866.109 1.154.325.29.253.433.614.433 1.119 0 .253-.072.47-.144.65a1.3 1.3 0 0 1-.866.613m7.506-4.15c.47 0 .866.144 1.119.397s.433.614.505 1.155h-3.248c0-.12.025-.24.054-.38l.018-.09a.96.96 0 0 1 .253-.505c.144-.144.289-.288.505-.397.217-.108.47-.18.794-.18"/><path fill-rule="evenodd" d="M.104 9.232C.364 5.744.494 4 2.244 2.249S5.74.369 9.227.109a38 38 0 0 1 2.77-.108c.932 0 1.865.04 2.77.108 3.487.26 5.232.39 6.982 2.14s1.88 3.495 2.14 6.983c.067.904.108 1.837.108 2.77 0 .932-.04 1.865-.108 2.77-.26 3.487-.39 5.231-2.14 6.982-1.75 1.75-3.495 1.88-6.983 2.14-.904.067-1.837.108-2.77.108-.932 0-1.865-.04-2.77-.108-3.487-.26-5.231-.39-6.982-2.14-1.75-1.75-1.88-3.495-2.14-6.983a38 38 0 0 1-.108-2.77c0-.932.04-1.865.108-2.77m10.104-2.193c-.397-.109-.83-.145-1.299-.145H4.182v9.96h4.835c.433 0 .866-.072 1.3-.18.432-.108.83-.289 1.154-.505a2.4 2.4 0 0 0 .794-.903c.18-.36.289-.793.289-1.299 0-.613-.18-1.155-.47-1.588-.288-.433-.757-.757-1.37-.938.432-.216.793-.505 1.01-.83.252-.325.36-.758.36-1.263 0-.433-.072-.83-.216-1.155a1.67 1.67 0 0 0-.65-.758 2.8 2.8 0 0 0-1.01-.396m6.785 8.552q-.866 0-1.3-.433c-.288-.289-.505-.83-.505-1.407h5.233c.036-.578 0-1.083-.072-1.588a4.4 4.4 0 0 0-.65-1.371c-.289-.434-.65-.722-1.119-.975-.469-.252-1.01-.36-1.623-.36a4 4 0 0 0-1.516.288c-.433.18-.83.47-1.155.794a3.9 3.9 0 0 0-.758 1.227c-.18.47-.252.974-.252 1.516 0 .577.072 1.082.252 1.551.145.47.397.866.722 1.191.325.361.686.614 1.155.794s.974.289 1.551.289c.83 0 1.516-.217 2.093-.578.578-.396 1.011-1.01 1.3-1.876H18.58q-.108.324-.54.65c-.29.18-.65.288-1.047.288m1.84-8.011h-4.042v.974h4.042z"/></svg>