<svg xmlns="http://www.w3.org/2000/svg" viewBox="0 0 44 44"><path d="M17.592 19.52c-.463.33-1.059.53-1.786.53h-4.102v-4.301h3.837c.397 0 .728 0 1.058.066s.596.198.86.33c.265.2.464.398.596.662.132.265.198.662.198 1.059 0 .728-.198 1.323-.661 1.654m-.463 8.204a6 6 0 0 1-1.125.132h-4.3v-5.094h4.366c.86 0 1.588.198 2.117.595.53.463.794 1.125.794 2.051 0 .463-.132.86-.264 1.191-.199.33-.397.53-.662.728a2.3 2.3 0 0 1-.926.397m13.761-7.609c.86 0 1.588.265 2.051.728s.794 1.125.926 2.117h-5.954c0-.219.045-.438.099-.695l.033-.165c.066-.33.199-.662.463-.926.265-.265.53-.53.927-.728.396-.198.86-.33 1.455-.33"/><path fill-rule="evenodd" d="M.192 16.925C.668 10.53.906 7.333 4.116 4.123S10.522.676 16.917.2a69 69 0 0 1 5.078-.198c1.71 0 3.42.075 5.078.198 6.395.476 9.592.714 12.801 3.923 3.21 3.21 3.448 6.407 3.924 12.802a69 69 0 0 1 .198 5.078c0 1.71-.075 3.42-.198 5.078-.476 6.394-.714 9.592-3.924 12.801-3.209 3.21-6.406 3.448-12.801 3.924a69 69 0 0 1-5.078.198c-1.71 0-3.42-.075-5.078-.198-6.395-.476-9.592-.714-12.801-3.924C.906 36.672.668 33.475.192 27.081a69 69 0 0 1-.198-5.078c0-1.71.075-3.42.198-5.078m18.525-4.021c-.728-.199-1.522-.265-2.382-.265H7.668V30.9h8.865c.794 0 1.588-.132 2.382-.33a6.9 6.9 0 0 0 2.117-.927 4.4 4.4 0 0 0 1.456-1.654c.33-.661.529-1.455.529-2.381 0-1.125-.33-2.117-.86-2.911s-1.39-1.39-2.514-1.72c.794-.398 1.455-.927 1.852-1.522.463-.596.662-1.39.662-2.316 0-.794-.132-1.522-.397-2.117a3.06 3.06 0 0 0-1.19-1.39 5.2 5.2 0 0 0-1.853-.727m12.438 15.68q-1.589 0-2.382-.794c-.53-.53-.926-1.522-.926-2.58h9.593c.066-1.059 0-1.985-.133-2.911-.264-.927-.661-1.787-1.19-2.514-.53-.794-1.191-1.324-2.051-1.787s-1.853-.661-2.978-.661a7.4 7.4 0 0 0-2.778.529c-.794.33-1.522.86-2.117 1.455a7.1 7.1 0 0 0-1.39 2.25c-.33.86-.463 1.786-.463 2.779 0 1.058.133 1.984.463 2.844a5.25 5.25 0 0 0 1.323 2.184 5.3 5.3 0 0 0 2.118 1.455c.86.331 1.786.53 2.845.53 1.521 0 2.778-.398 3.837-1.06 1.058-.727 1.852-1.852 2.381-3.44h-3.241q-.199.596-.993 1.192a3.6 3.6 0 0 1-1.918.529m3.374-14.688h-7.41v1.787h7.41z"/></svg>