<svg xmlns="http://www.w3.org/2000/svg" viewBox="0 0 44 44"><path fill-rule="evenodd" d="M29.15 9.347c2.325 1.347 3.353 3.139 5.408 6.723C37.272 20.802 40 26.859 40 32.086c0 .117 0 .176-.004.238a1.82 1.82 0 0 1-1.672 1.672c-.062.004-.128.004-.26.004H8.6c-.745 0-1.117 0-1.416-.109a1.8 1.8 0 0 1-.65-.412l-.007-.006-.007-.008a1.8 1.8 0 0 1-.411-.65C6 32.518 6 32.146 6 31.4V18.599c0-4.308 0-6.462 1.055-7.997a6 6 0 0 1 1.547-1.547C10.137 8 12.292 8 16.6 8h2.906c4.88 0 7.319 0 9.644 1.347M9 18.02c.002-1.894.014-3.168.116-4.15.106-1.025.284-1.384.412-1.57a3 3 0 0 1 .773-.772c.185-.128.544-.306 1.57-.412C12.949 11.004 14.38 11 16.6 11h2.906c5.153 0 6.66.085 8.14.943 1.506.872 2.167 1.883 4.31 5.62 2.464 4.296 4.659 9.26 4.999 13.437h-3.82c-.205-.495-.49-1.076-.834-1.777a73 73 0 0 0-1.34-2.596c-2.096-3.872-3.145-5.809-5.51-7.218S20.537 18 15.438 18h-3.04c-1.192 0-2.26 0-3.217.017q-.093 0-.18.003m0 3.364V30.4l.001.599.484.001h20.346l-.223-.456a70 70 0 0 0-1.285-2.488c-2.195-4.054-2.883-5.161-4.407-6.07-1.503-.895-3.086-.986-8.478-.986h-3.04c-1.2 0-2.238 0-3.165.016L9 21.02z"/></svg>