<svg xmlns="http://www.w3.org/2000/svg" viewBox="0 0 17 17"><path fill-rule="evenodd" d="M2.484 3.232c.69-.576 1.721-.576 3.784-.576h1.007c2.107 0 3.16 0 4.137.582s1.41 1.382 2.276 2.982c1.121 2.07 2.248 4.688 2.248 6.847v.013a.75.75 0 0 1-.731.73H3.08c-.701 0-1.052 0-1.27-.217-.217-.218-.217-.568-.217-1.27V7.33c0-2.063 0-3.094.576-3.784q.143-.171.314-.314m.703 8.985h8.124q-.25-.51-.511-.989c-.918-1.696-1.16-2.055-1.69-2.371-.52-.31-1.06-.358-3.322-.358H4.532c-.519 0-.959 0-1.345.007zm9.89 0-.168-.356a30 30 0 0 0-.708-1.391c-.866-1.6-1.299-2.4-2.276-2.982s-2.03-.583-4.137-.583H4.532q-.747-.002-1.345.007c.002-.83.01-1.38.06-1.8.053-.436.131-.527.145-.543v-.002a1 1 0 0 1 .113-.112h.001c.016-.015.107-.093.544-.145.486-.058 1.147-.06 2.218-.06h1.007c2.262 0 2.802.048 3.321.357.531.316.773.676 1.691 2.372.937 1.732 1.755 3.646 1.989 5.238z"/></svg>