<svg xmlns="http://www.w3.org/2000/svg" viewBox="0 0 24 24"><path d="M12.001 11.998a1 1 0 0 0 1-1V7a1 1 0 0 0-2 0v3.998a1 1 0 0 0 1 1M12 13.264a1.249 1.249 0 1 1 0 2.498 1.249 1.249 0 0 1 0-2.498"/><path fill-rule="evenodd" d="m15.75 18.858.192.114c2.686 1.612 4.029 2.418 5.043 1.843C22 20.241 22 18.675 22 15.542V11c0-.726-.033-1.42-.087-2.068-.161-1.942-.242-2.913-1.532-4.207s-2.302-1.382-4.327-1.557A47 47 0 0 0 12 3c-1.55 0-2.902.068-4.055.168-2.025.176-3.037.263-4.326 1.557C2.329 6.02 2.249 6.99 2.087 8.93a25 25 0 0 0 0 4.14c.161 1.94.242 2.911 1.532 4.205s2.301 1.382 4.325 1.557c1.153.1 2.506.168 4.056.168a48 48 0 0 0 3.75-.142M20 11.084V11c0-.666-.03-1.304-.08-1.902-.086-1.038-.137-1.524-.26-1.918-.09-.288-.238-.584-.695-1.043-.448-.449-.748-.602-1.06-.699-.422-.13-.945-.184-2.024-.278A45 45 0 0 0 12 5c-1.492 0-2.786.065-3.882.16-1.079.094-1.602.149-2.023.278-.312.097-.612.25-1.06.699-.457.46-.606.755-.696 1.043-.122.394-.173.879-.26 1.916a23 23 0 0 0 0 3.808c.087 1.037.138 1.523.26 1.916.09.288.239.584.696 1.043.448.45.748.602 1.06.699.42.13.944.184 2.023.278 1.095.095 2.39.16 3.882.16 1.362 0 2.56-.054 3.593-.136l.638-.05.747.447c1.397.838 2.251 1.345 2.879 1.605l.033.014.005-.036c.1-.673.105-1.668.105-3.302z"/></svg>