<svg xmlns="http://www.w3.org/2000/svg" viewBox="0 0 24 24"><path fill-rule="evenodd" d="m15.75 18.858.192.114c2.686 1.612 4.029 2.418 5.043 1.843C22 20.241 22 18.675 22 15.542V11c0-.726-.033-1.42-.087-2.068-.161-1.942-.242-2.913-1.532-4.207s-2.302-1.382-4.327-1.557A47 47 0 0 0 12 3c-1.55 0-2.902.068-4.055.168-2.025.176-3.037.263-4.326 1.557C2.329 6.02 2.249 6.99 2.087 8.93a25 25 0 0 0 0 4.14c.161 1.94.242 2.911 1.532 4.205s2.301 1.382 4.325 1.557c1.153.1 2.506.168 4.056.168a48 48 0 0 0 3.75-.142m-2.749-7.86a1 1 0 1 1-2 0V7.001a1 1 0 1 1 2 0zM12 13.264a1.249 1.249 0 1 1 0 2.498 1.249 1.249 0 0 1 0-2.498"/></svg>