<svg xmlns="http://www.w3.org/2000/svg" viewBox="0 0 16 16"><path fill-rule="evenodd" d="M13.968 3.107c.799.794.855 1.385.968 2.568.039.406.063.855.064 1.311v3.387c0 2.082 0 3.124-.675 3.506-.674.382-1.567-.154-3.354-1.226l-1.158-.694a39 39 0 0 1-5.035-.096c-1.298-.117-1.947-.175-2.746-.97-.798-.793-.855-1.385-.968-2.566a14 14 0 0 1 0-2.654c.113-1.181.17-1.772.968-2.567.799-.794 1.448-.852 2.747-.97C5.664 2.058 6.739 2 8 2s2.335.057 3.22.137c1.3.117 1.95.175 2.748.97M7.25 6.59a.75.75 0 1 0 1.5 0V4.75a.75.75 0 0 0-1.5 0zM8.9 9.1a.9.9 0 1 0-1.8 0 .9.9 0 0 0 1.8 0"/></svg>