<svg xmlns="http://www.w3.org/2000/svg" viewBox="0 0 24 24"><path fill-rule="evenodd" d="M4 7.932c0-2.023 0-3.035.601-3.566.6-.531 1.66-.4 3.779-.136 1.176.146 2.446.255 3.62.255s2.445-.109 3.62-.255c2.12-.263 3.179-.395 3.78.136.6.531.6 1.543.6 3.566v4.218c0 1.375 0 2.062-.426 2.56-.426.5-1.074.602-2.369.807-1.536.244-3.475.48-5.205.48s-3.669-.236-5.205-.48q-.444-.069-.795-.13v3.612a1 1 0 1 1-2 0zm14 0v4.218c0 .351 0 .625-.006.86a7 7 0 0 1-.015.34 7 7 0 0 1-.281.057c-.219.04-.474.081-.805.134-1.498.237-3.318.455-4.893.455s-3.395-.218-4.892-.455a33 33 0 0 1-.805-.134 7 7 0 0 1-.281-.057 7 7 0 0 1-.015-.34A36 36 0 0 1 6 12.15V7.932c0-.944.003-1.523.04-1.93.445.012 1.073.087 2.092.214 1.221.152 2.58.27 3.867.27s2.646-.118 3.867-.27c1.02-.127 1.648-.202 2.092-.213.038.406.041.985.041 1.929"/></svg>