<svg xmlns="http://www.w3.org/2000/svg" viewBox="0 0 16 16"><path fill-rule="evenodd" d="m4 10.392.363.059c1.064.17 2.427.338 3.637.338s2.573-.168 3.637-.338c.864-.139 1.296-.208 1.58-.54.283-.332.283-.79.283-1.705v-3.09c0-1.348 0-2.023-.402-2.377s-1.107-.264-2.517-.085A21 21 0 0 1 8 2.841c-.837 0-1.746-.08-2.578-.187-1.41-.18-2.12-.269-2.521.085S2.5 3.768 2.5 5.117v8.133a.75.75 0 0 0 1.5 0zm8-5.275v3.089a24 24 0 0 1-.007.663l-.06.011c-.143.027-.311.054-.533.09-1.035.165-2.308.32-3.4.32s-2.365-.155-3.4-.32a22 22 0 0 1-.593-.101l-.003-.095L4 8.465V5.117c0-.515.002-.86.015-1.111.274.018.654.065 1.219.136A23 23 0 0 0 8 4.341c.924 0 1.904-.088 2.77-.199.565-.071.941-.118 1.215-.136.013.25.015.596.015 1.11"/></svg>