<svg xmlns="http://www.w3.org/2000/svg" viewBox="0 0 44 44"><path fill-rule="evenodd" d="M12.56 7.44a1.5 1.5 0 0 0-2.12 2.12l3.05 3.051c-3.275 2.005-6.107 4.921-8.674 7.875a2.31 2.31 0 0 0 .001 3.028c4.09 4.7 8.847 9.308 14.998 10.299.735.118 1.47.187 2.185.187s1.45-.069 2.185-.187c2.713-.437 5.155-1.578 7.388-3.12l3.866 3.868a1.5 1.5 0 0 0 2.122-2.122l-3.6-3.6.004-.003-2.129-2.128-.004.003L18.65 13.527l.005-.001-2.348-2.348-.005.002zM7.479 22c2.633-2.988 5.296-5.573 8.203-7.197l2.183 2.182a6.5 6.5 0 1 0 9.15 9.15l2.397 2.398c-1.796 1.173-3.68 1.992-5.703 2.318-.61.098-1.183.149-1.708.149s-1.098-.051-1.708-.15c-4.826-.776-8.852-4.36-12.814-8.85m17.397 1.996-4.871-4.871a3.5 3.5 0 1 0 4.872 4.872m10.037-.203c.55-.596 1.11-1.227 1.61-1.794-3.964-4.497-7.993-8.08-12.825-8.852-.218-.035-.74-.066-1.274-.09A1.484 1.484 0 0 1 21 11.577c0-.856.72-1.55 1.575-1.521.489.016.975.043 1.595.129 6.889.945 10.749 5.39 14.743 9.988l.271.313c.755.868.754 2.16-.001 3.028a102 102 0 0 1-2.143 2.401 1.46 1.46 0 0 1-2.103.022c-.585-.585-.587-1.536-.025-2.144"/></svg>