<svg xmlns="http://www.w3.org/2000/svg" viewBox="0 0 16 16"><path fill-rule="evenodd" d="M3.65 3.53a.75.75 0 0 1 1.06-1.06l9.334 9.333a.75.75 0 0 1-1.06 1.061L11.617 11.5c-.924.661-1.58 1.015-2.908 1.173a9 9 0 0 1-1.415 0c-1.58-.188-2.21-.654-3.47-1.585a18 18 0 0 1-1.77-1.508c-.7-.675-1.05-1.012-1.05-1.58 0-.566.35-.904 1.05-1.578a18 18 0 0 1 1.77-1.508c.254-.188.483-.357.698-.509zm2.996 2.997a2 2 0 1 0 2.826 2.826z"/><path d="m13.943 9.586-6.28-6.28a9 9 0 0 1 1.047.022c1.58.187 2.21.653 3.47 1.585.664.49 1.268 1.024 1.77 1.508.701.674 1.051 1.012 1.051 1.579s-.35.904-1.05 1.579z"/></svg>