<svg xmlns="http://www.w3.org/2000/svg" viewBox="0 0 44 44"><path fill-rule="evenodd" d="M12.56 7.44a1.5 1.5 0 0 0-2.12 2.12l3.05 3.051c-3.275 2.005-6.107 4.92-8.674 7.875a2.31 2.31 0 0 0 .001 3.028c4.09 4.7 8.847 9.308 14.998 10.299.735.118 1.47.187 2.185.187s1.45-.069 2.185-.187c2.713-.437 5.155-1.578 7.388-3.12l3.866 3.868a1.5 1.5 0 0 0 2.122-2.122l-3.6-3.6.004-.003-5.585-5.585-.002.006-7.635-7.636h.006l-4.443-4.443-.005.002zm5.304 9.545a6.5 6.5 0 1 0 9.15 9.15l-2.139-2.139a3.5 3.5 0 1 1-4.872-4.872zm21.319 6.529a66 66 0 0 1-3.024 3.274L19.595 10.224l.235-.04C20.56 10.069 21.29 10 22 10s1.44.068 2.17.184c6.16.984 10.922 5.594 15.014 10.302.755.868.754 2.16-.001 3.028"/></svg>