<svg xmlns="http://www.w3.org/2000/svg" viewBox="0 0 24 24"><path fill-rule="evenodd" d="M4 9.231c-.002.87.338 1.273.973 2.078.36.456.789.951 1.286 1.448s.993.926 1.449 1.286c.804.635 1.206.959 2.077.957.87-.002 1.273-.329 2.08-.97.437-.349.932-.77 1.475-1.276l6.953 6.953a1 1 0 0 0 1.414-1.414l-6.953-6.953c.513-.549.94-1.05 1.292-1.492.642-.807.952-1.21.954-2.08s-.305-1.273-.94-2.078a17 17 0 0 0-1.286-1.448 17 17 0 0 0-1.448-1.285C12.522 2.32 12.12 1.998 11.25 2s-1.274.328-2.08.97a26 26 0 0 0-2.203 1.979c-.83.83-1.48 1.576-1.98 2.202-.64.807-.984 1.21-.986 2.08m4.38-2.868a24 24 0 0 0-2.2 2.51c-.202.28-.2.45-.003.721.09.124.2.266.366.476a14.4 14.4 0 0 0 2.404 2.403c.21.166.35.277.475.366.271.197.442.2.72-.004.125-.09.267-.203.477-.37a24 24 0 0 0 2.034-1.83 24 24 0 0 0 2.2-2.51c.199-.273.202-.446.003-.72-.09-.125-.2-.266-.366-.476a15 15 0 0 0-1.13-1.273 15 15 0 0 0-1.273-1.13 16 16 0 0 0-.475-.366c-.275-.199-.448-.196-.721.004-.125.09-.267.203-.478.37a24 24 0 0 0-2.033 1.83"/><path d="M2.612 19.133C3.649 19.078 5.62 19 8.5 19s4.85.078 5.888.133c.414.022.62.033.948.236.327.204.377.292.476.469.108.192.188.417.188.662s-.08.47-.188.662c-.099.176-.149.265-.476.468s-.534.215-.948.237C13.35 21.922 11.38 22 8.5 22s-4.85-.078-5.888-.133c-.414-.023-.62-.034-.948-.237s-.376-.291-.476-.468A1.36 1.36 0 0 1 1 20.5c0-.245.08-.47.188-.663.1-.176.15-.265.476-.468.327-.203.534-.214.948-.236"/></svg>