<svg xmlns="http://www.w3.org/2000/svg" viewBox="0 0 24 24"><path fill-rule="evenodd" d="M4 12c0 1.55.068 2.903.168 4.056.175 2.024.263 3.036 1.557 4.325s2.264 1.37 4.205 1.532a25 25 0 0 0 4.14 0c.382-.031.726-.06 1.043-.095A3 3 0 0 1 15 21a3 3 0 1 1 0-6 3 3 0 0 1 4.995-2.24Q20 12.387 20 12c0-1.55-.067-2.901-.168-4.054-.175-2.025-.263-3.038-1.557-4.327s-2.265-1.37-4.206-1.532a25 25 0 0 0-4.137 0c-1.942.162-2.913.242-4.207 1.532S4.343 5.92 4.168 7.946A47 47 0 0 0 4 12m10-4a1 1 0 0 1-1 1H9a1 1 0 0 1 0-2h4a1 1 0 0 1 1 1m-2 4a1 1 0 0 1-1 1H9a1 1 0 1 1 0-2h2a1 1 0 0 1 1 1"/><path d="M18 22a1 1 0 0 1-1-1v-2h-2a1 1 0 1 1 0-2h2v-2a1 1 0 1 1 2 0v2h2a1 1 0 1 1 0 2h-2v2a1 1 0 0 1-1 1"/></svg>