<svg xmlns="http://www.w3.org/2000/svg" viewBox="0 0 16 16"><path fill-rule="evenodd" d="M2.143 11.016A30 30 0 0 1 2 8c0-1.165.059-2.17.143-3.015.133-1.339.2-2.008 1.044-2.85s1.512-.907 2.85-1.038a20 20 0 0 1 3.927 0c1.337.13 2.005.196 2.849 1.038s.91 1.511 1.044 2.85C13.942 5.829 14 6.835 14 8q0 .36-.007.702A2.25 2.25 0 0 0 9.75 9.748v.001h-.002a2.25 2.25 0 1 0 0 4.5h.002q.001.349.1.665a20 20 0 0 1-3.815-.011c-1.336-.131-2.004-.197-2.848-1.039s-.91-1.51-1.044-2.848M5.748 4.5a.75.75 0 1 0 0 1.5H8.75a.75.75 0 0 0 0-1.5zM7.25 9.002a.75.75 0 1 0 0-1.5h-1.5a.75.75 0 0 0 0 1.5z"/><path d="M15 12a.75.75 0 0 1-.75.75h-1.5v1.5a.75.75 0 0 1-1.5 0v-1.5H9.748a.75.75 0 0 1 0-1.5h1.502V9.749a.75.75 0 0 1 1.5 0v1.501h1.5A.75.75 0 0 1 15 12"/></svg>