<svg xmlns="http://www.w3.org/2000/svg" viewBox="0 0 44 44"><path fill-rule="evenodd" d="M21.956 7C16.49 7 11.453 9.251 9.078 10.508c-.37.196-.6.59-.573 1.056.13 2.288.533 6.663 1.748 11.035 1.023 3.68 3.075 7.364 5.4 10.11 1.16 1.372 2.356 2.471 3.482 3.217 1.145.757 2.103 1.074 2.82 1.074.725 0 1.703-.317 2.875-1.072 1.152-.743 2.381-1.838 3.577-3.205 2.395-2.739 4.529-6.423 5.604-10.14 1.255-4.337 1.473-8.684 1.486-10.953a1.13 1.13 0 0 0-.642-1.032C32.247 9.328 26.775 7 21.955 7m-14.283.857C10.2 6.519 15.76 4 21.956 4c5.56 0 11.57 2.612 14.215 3.902a4.13 4.13 0 0 1 2.329 3.745c-.014 2.398-.24 7.055-1.604 11.77-1.209 4.177-3.572 8.243-6.228 11.28-1.33 1.521-2.767 2.821-4.21 3.752-1.425.918-2.975 1.551-4.502 1.551-1.535 0-3.075-.645-4.479-1.573-1.422-.941-2.825-2.253-4.118-3.78-2.581-3.05-4.852-7.116-6-11.246-1.296-4.665-1.715-9.279-1.852-11.665-.091-1.59.716-3.112 2.166-3.879m11.241 9.585a1.5 1.5 0 0 0-.823-2.884l-3.504 1a1.5 1.5 0 1 0 .824 2.884zm6.183 0a1.5 1.5 0 1 1 .823-2.884l3.503 1a1.5 1.5 0 1 1-.823 2.884zM17.123 29c-.986 0-1.807-.918-1.554-1.969.108-.449.496-1.873 1.412-3.218.933-1.37 2.537-2.813 5.025-2.813 2.487 0 4.091 1.444 5.024 2.813.916 1.345 1.304 2.77 1.412 3.218.253 1.05-.568 1.969-1.554 1.969zm2.338-3.498a6 6 0 0 0-.303.498h5.696a6 6 0 0 0-.303-.498C23.949 24.619 23.155 24 22.005 24s-1.944.62-2.545 1.502"/></svg>