<svg xmlns="http://www.w3.org/2000/svg" viewBox="0 0 16 16"><path fill-rule="evenodd" d="M3.69 2.188C4.894 1.622 6.546 1 8 1s3.106.622 4.31 1.188c.788.371 1.182.557 1.456 1.012s.252.914.207 1.831c-.132 2.693-.63 5.341-2.259 7.516C10.924 13.603 9.322 15 8 15s-2.923-1.397-3.714-2.453C2.657 10.372 2.159 7.724 2.027 5.03c-.045-.917-.067-1.376.207-1.83.274-.456.668-.642 1.456-1.013m2.992 4.29a.75.75 0 0 0-.364-1.456l-1 .25a.75.75 0 0 0 .364 1.456zm2.09-.91a.75.75 0 0 0 .546.91l1 .25a.75.75 0 0 0 .364-1.456l-1-.25a.75.75 0 0 0-.91.546M6.262 10.5a.51.51 0 0 1-.501-.605c.019-.098.117-.552.434-.992C6.526 8.442 7.097 8 8 8s1.474.442 1.805.903c.317.44.415.894.434.992a.508.508 0 0 1-.5.605z"/></svg>