<svg xmlns="http://www.w3.org/2000/svg" viewBox="0 0 16 16"><path fill-rule="evenodd" d="M4.331 3.545C5.497 2.996 6.896 2.5 8 2.5s2.503.496 3.669 1.045c.202.095.354.167.484.233.129.064.207.11.26.143.07.045.07.05.077.14v.002c.014.167.005.4-.02.895-.126 2.586-.6 4.873-1.96 6.69-.31.414-.8.919-1.337 1.308-.577.417-.989.544-1.173.544s-.596-.127-1.173-.544a6.6 6.6 0 0 1-1.337-1.307C4.13 9.83 3.656 7.544 3.53 4.959c-.025-.496-.034-.729-.02-.896V4.06c.007-.088.008-.094.078-.14.051-.033.13-.078.259-.142.13-.066.282-.138.484-.233M3.69 2.188C4.894 1.622 6.546 1 8 1s3.106.622 4.31 1.188c.788.371 1.182.557 1.456 1.012s.252.914.207 1.831c-.132 2.693-.63 5.341-2.259 7.516C10.924 13.603 9.322 15 8 15s-2.923-1.397-3.714-2.453C2.657 10.372 2.159 7.724 2.027 5.03c-.045-.917-.067-1.376.207-1.83.274-.456.668-.642 1.456-1.013m2.992 4.29a.75.75 0 0 0-.364-1.456l-1 .25a.75.75 0 0 0 .364 1.456zm2.636 0a.75.75 0 0 1 .364-1.456l1 .25a.75.75 0 0 1-.364 1.456zM6.264 10.75a.76.76 0 0 1-.716-1.014c.037-.105.211-.566.568-1.013.357-.449.975-.973 1.884-.973.91 0 1.527.524 1.884.973.357.447.53.908.568 1.013a.76.76 0 0 1-.716 1.014z"/></svg>