<svg xmlns="http://www.w3.org/2000/svg" viewBox="0 0 24 24"><path fill-rule="evenodd" d="M5.501 3.713C7.311 2.899 9.805 2 12 2s4.69.899 6.499 1.713c1.171.526 1.757.79 2.16 1.45s.368 1.33.297 2.667c-.202 3.804-.95 7.54-3.348 10.62C16.42 19.972 13.934 22 12 22s-4.42-2.027-5.608-3.55c-2.399-3.08-3.146-6.816-3.348-10.62-.07-1.337-.106-2.006.297-2.667.403-.66.989-.924 2.16-1.45m.824 1.823C8.083 4.746 10.252 4 12 4s3.917.745 5.675 1.536c.631.284.926.421 1.128.547a.48.48 0 0 1 .183.316c.02.256.006.607-.032 1.325-.194 3.646-.901 6.895-2.93 9.498-.465.597-1.232 1.345-2.08 1.928-.903.623-1.592.85-1.944.85s-1.041-.227-1.944-.85c-.848-.584-1.615-1.331-2.08-1.928-2.029-2.603-2.736-5.852-2.93-9.498-.038-.718-.052-1.069-.032-1.325a.52.52 0 0 1 .183-.316c.202-.126.497-.263 1.128-.547m3.917 3.934a1 1 0 1 0-.485-1.94l-2 .5a1 1 0 0 0 .486 1.94zm3.515 0a1 1 0 1 1 .486-1.94l2 .5a1 1 0 1 1-.485 1.94zM14.879 16c.671 0 1.25-.629 1.064-1.364a6.2 6.2 0 0 0-.9-1.98C14.465 11.84 13.488 11 12 11s-2.465.84-3.042 1.655a6.2 6.2 0 0 0-.9 1.981C7.872 15.371 8.451 16 9.122 16zm-1.468-2.189q.066.093.124.189h-3.068q.058-.096.124-.189c.345-.487.784-.811 1.41-.811s1.065.324 1.41.811"/></svg>