<svg xmlns="http://www.w3.org/2000/svg" viewBox="0 0 32 32"><path d="M5 26.75c0-.69.56-1.25 1.25-1.25h19.5a1.25 1.25 0 0 1 0 2.5H6.25C5.56 28 5 27.44 5 26.75m9.74-19.958-2.507 3.113a1.265 1.265 0 0 1-1.756.2 1.214 1.214 0 0 1-.204-1.725L13.1 4.87c.296-.368.568-.705.818-.964.268-.277.604-.567 1.062-.733a2.9 2.9 0 0 1 1.94-.012c.46.161.8.447 1.072.72.253.256.53.59.832.955l2.902 3.507c.436.526.355 1.3-.181 1.728a1.265 1.265 0 0 1-1.759-.178L17.268 6.85v14.907c0 .686-.566 1.242-1.264 1.242a1.253 1.253 0 0 1-1.263-1.242z"/></svg>