<svg xmlns="http://www.w3.org/2000/svg" viewBox="0 0 44 44"><path fill-rule="evenodd" d="M6.142 18.307c.346-4.65.52-6.976 2.853-9.31s4.66-2.507 9.31-2.853c1.206-.09 2.45-.144 3.693-.144 1.244 0 2.487.054 3.693.144 4.65.346 6.976.52 9.31 2.853s2.507 4.66 2.853 9.31c.09 1.206.144 2.45.144 3.693v8.89c0 3.351 0 5.027-1.041 6.069C35.915 38 34.239 38 30.887 38H13.11c-3.352 0-5.028 0-6.07-1.041C6 35.917 6 34.24 6 30.889V22c0-1.244.053-2.487.143-3.693m12.386-9.171A47 47 0 0 1 21.998 9c1.158 0 2.326.05 3.47.136 4.852.36 5.988.559 7.411 1.983 1.424 1.424 1.622 2.559 1.983 7.41.085 1.145.136 2.313.136 3.471v8.89a74 74 0 0 1-.024 2.448L33 29.954V25c0-.829-.042-1.658-.107-2.441-.176-2.128-.264-3.192-1.287-4.215-1.024-1.025-2.025-1.108-4.026-1.275a19 19 0 0 0-1.58-.07c-.532 0-1.063.027-1.58.07-2.001.167-3.002.25-4.026 1.274-1.023 1.024-1.111 2.088-1.287 4.215A30 30 0 0 0 19 25v3.644l-9.885 5.841-.014-.093c-.097-.722-.103-1.74-.103-3.501V22c0-1.158.05-2.326.136-3.47.361-4.852.559-5.987 1.983-7.411s2.559-1.622 7.41-1.983M14.139 35h16.749c.609 0 1.129 0 1.579-.006L30.137 31H20.91zm10.53-14.942c.448-.038.895-.06 1.331-.06s.883.022 1.33.06c.516.043.894.075 1.22.114.318.038.506.075.627.108.107.029.144.05.156.056a.8.8 0 0 1 .15.127.6.6 0 0 1 .113.135.8.8 0 0 1 .068.195c.092.353.143.855.24 2.012.059.72.096 1.464.096 2.194v3h-8v-3c0-.73.037-1.474.097-2.194.096-1.157.147-1.66.239-2.012.034-.13.06-.18.069-.195a.6.6 0 0 1 .111-.135.8.8 0 0 1 .151-.127.6.6 0 0 1 .156-.056c.12-.033.309-.07.628-.108.325-.04.703-.071 1.219-.114"/></svg>