<svg xmlns="http://www.w3.org/2000/svg" viewBox="0 0 17 17"><path d="M3.319 3.319c-.93.93-.999 1.856-1.137 3.709-.036.48-.057.976-.057 1.471v3.541c0 1.209 0 1.87.307 2.293l5.536-4.305V8.727l.001-.15c.014-.613.026-.867.07-1.053a.75.75 0 0 1 .524-.517c.21-.05.496-.068 1.143-.094a10 10 0 0 1 .773 0c.648.026.934.043 1.143.094a.75.75 0 0 1 .524.517c.044.186.056.44.07 1.053l.001.15v1.708l2.238 4.027.003-.004c.415-.415.415-1.082.415-2.418V8.5c0-.495-.021-.99-.057-1.471-.138-1.853-.207-2.78-1.137-3.71-.93-.929-1.856-.998-3.709-1.136-.48-.036-.976-.057-1.471-.057s-.99.021-1.471.057c-1.853.138-2.78.207-3.71 1.137"/><path d="M9.093 11.155a1 1 0 0 1-.105.098L4.336 14.87q.284.003.621.002h7.084q.457.001.816-.005l-2.063-3.713z"/></svg>