<svg xmlns="http://www.w3.org/2000/svg" viewBox="0 0 24 24"><path d="M4.686 4.686c-1.313 1.313-1.41 2.62-1.605 5.237C3.031 10.6 3 11.3 3 12v5c0 1.803 0 2.744.512 3.335L11 14.511v-1.94l.002-.21c.02-.867.037-1.225.098-1.487.08-.341.403-.648.74-.73.296-.072.7-.097 1.614-.133a14 14 0 0 1 1.092 0c.914.036 1.318.06 1.614.133.337.082.66.389.74.73.061.262.079.62.098 1.487l.002.21v1.97l3.314 5.965q.052-.044.1-.092C21 19.828 21 18.886 21 17v-5c0-.7-.03-1.399-.081-2.077-.195-2.616-.292-3.924-1.605-5.237s-2.62-1.41-5.237-1.605A28 28 0 0 0 12 3c-.7 0-1.399.03-2.077.081-2.616.195-3.924.292-5.237 1.605"/><path d="M18.295 20.99 15.523 16h-3.18l-6.421 4.994Q6.4 21.002 7 21h10c.493 0 .92 0 1.295-.01"/></svg>