<svg xmlns="http://www.w3.org/2000/svg" viewBox="0 0 17 17"><path fill-rule="evenodd" d="M2.182 7.028c.138-1.853.207-2.78 1.137-3.71.93-.929 1.856-.998 3.709-1.136.48-.036.976-.057 1.471-.057s.99.021 1.471.057c1.853.138 2.78.207 3.71 1.137.929.93.998 1.856 1.136 3.709.035.48.057.976.057 1.471v3.541c0 1.336 0 2.003-.415 2.418s-1.082.415-2.418.415H4.958c-1.335 0-2.002 0-2.417-.415s-.415-1.082-.415-2.418V8.5c0-.495.021-.99.057-1.471M7.146 3.77c.448-.033.903-.053 1.353-.053s.905.02 1.353.053c1.96.146 2.254.228 2.7.675.447.446.529.74.675 2.7.033.448.053.903.053 1.353v3.685l-.532-.958V9.713c0-.377-.02-.755-.052-1.108-.075-.85-.113-1.274-.515-1.678s-.803-.441-1.606-.516a8 8 0 0 0-.748-.037q-.381.001-.749.037c-.802.075-1.203.112-1.605.516s-.44.828-.515 1.678c-.032.353-.053.73-.053 1.108v1.29l-3.167 2.195c-.018-.248-.02-.599-.02-1.158V8.5c0-.45.02-.905.053-1.353.146-1.96.228-2.254.675-2.7.446-.447.74-.529 2.7-.675m-.728 9.509h5.647l-.59-1.063H7.952zm2.808-5.282a7 7 0 0 1 .6-.03q.295 0 .602.03c.208.019.353.033.475.049q.084.01.13.02.011.056.026.17c.016.132.03.289.05.509.028.317.046.647.046.967v.91H8.499v-.91c0-.32.018-.65.046-.967.02-.22.034-.377.05-.51a3 3 0 0 1 .025-.17l.13-.02c.123-.015.268-.029.476-.048"/></svg>