<svg xmlns="http://www.w3.org/2000/svg" viewBox="0 0 17 17"><path fill-rule="evenodd" d="M3.457 2.12a.797.797 0 1 0 0 1.594h2.298a.62.62 0 0 1 .62.62v.43a.4.4 0 0 1-.093.017H4.437c-.984 0-1.782.798-1.782 1.782v1.526a1.07 1.07 0 0 0-.534.924v.964c.004.115.002.328.006.48.038 1.267 1.013 2.088 2.144 2.201.463.047 1.005.086 1.517.086h.765a3.19 3.19 0 0 0 3.01 2.13 3.19 3.19 0 0 0 3.011-2.13h1.514a.797.797 0 0 0 0-1.593h-1.38a3.19 3.19 0 0 0-6.289 0h-.63c-.44 0-.923-.034-1.36-.078-.469-.047-.699-.325-.709-.664q-.006-.194-.006-.432v-.576c.32-.183.535-.528.535-.923V6.563c0-.105.084-.189.188-.189h1.845c.551 0 1.079-.284 1.489-.525.183-.107.378-.23.575-.353l.133-.083c.247-.154.505-.313.783-.47 1.098-.624 2.5-1.225 4.41-1.225l.503-.006a.8.8 0 0 0 .698-.79c0-.407-.303-.797-.698-.797h-.503c-2.278 0-3.955.727-5.197 1.432q-.293.166-.553.327A2.21 2.21 0 0 0 5.755 2.12zm4.51 9.569a1.596 1.596 0 1 1 3.193 0 1.596 1.596 0 0 1-3.192 0"/></svg>