<svg xmlns="http://www.w3.org/2000/svg" viewBox="0 0 16 16"><path fill-rule="evenodd" d="M2.054 6.615c.13-1.744.195-2.616 1.07-3.491s1.747-.94 3.491-1.07C7.067 2.02 7.534 2 8 2s.933.02 1.385.054c1.744.13 2.616.195 3.491 1.07s.94 1.747 1.07 3.491C13.98 7.067 14 7.534 14 8s-.02.933-.054 1.385c-.13 1.744-.195 2.616-1.07 3.491s-1.747.94-3.491 1.07C8.933 13.98 8.466 14 8 14s-.933-.02-1.385-.054c-1.744-.13-2.616-.195-3.491-1.07s-.94-1.747-1.07-3.491A19 19 0 0 1 2 8c0-.466.02-.933.054-1.385m6.8 4.458c.174-.223.186-.486.211-1.01q.02-.408.034-.964.555-.013.964-.033c.524-.026.787-.038 1.01-.211.224-.174.234-.351.256-.706a3 3 0 0 0 0-.298c-.022-.355-.032-.532-.256-.705-.223-.174-.486-.186-1.01-.211A38 38 0 0 0 9.1 6.9q-.012-.556-.034-.964c-.025-.524-.037-.787-.21-1.01-.174-.224-.351-.234-.706-.256a3 3 0 0 0-.298 0c-.355.022-.532.032-.705.256-.174.223-.186.486-.211 1.01q-.021.409-.034.964-.556.013-.964.034c-.524.025-.787.038-1.01.21-.224.174-.234.351-.256.706a3 3 0 0 0 0 .298c.022.355.032.532.256.706.223.173.486.185 1.01.21q.409.021.964.034.012.556.034.964c.025.524.037.787.21 1.01.174.224.351.234.706.256a3 3 0 0 0 .298 0c.355-.022.532-.032.705-.256"/></svg>