<svg xmlns="http://www.w3.org/2000/svg" viewBox="0 0 24 24"><path d="M13.281 16.61c.26-.336.279-.729.317-1.515q.03-.614.05-1.446.833-.02 1.447-.05c.786-.038 1.179-.057 1.514-.317s.351-.526.384-1.058a4 4 0 0 0 0-.447c-.032-.532-.048-.798-.384-1.058-.335-.26-.728-.28-1.515-.317q-.612-.03-1.446-.05a58 58 0 0 0-.05-1.447c-.038-.786-.057-1.18-.317-1.515s-.526-.351-1.058-.383a4 4 0 0 0-.447 0c-.532.032-.798.048-1.058.383-.26.336-.279.729-.317 1.515q-.03.614-.05 1.447a57 57 0 0 0-1.446.05c-.787.038-1.18.057-1.515.317-.336.26-.352.526-.384 1.058a4 4 0 0 0 0 .447c.032.532.048.798.384 1.058.335.26.728.279 1.515.316q.612.031 1.446.05.02.834.05 1.447c.038.786.057 1.18.317 1.515s.526.351 1.058.383a4 4 0 0 0 .447 0c.532-.032.798-.048 1.058-.383"/><path fill-rule="evenodd" d="M4.686 4.688C3.373 6 3.276 7.308 3.081 9.925c-.05.678-.081 1.377-.081 2.077s.03 1.399.081 2.077c.195 2.616.292 3.924 1.605 5.237s2.62 1.41 5.237 1.605c.678.05 1.377.081 2.077.081s1.399-.03 2.077-.081c2.616-.195 3.924-.292 5.237-1.605s1.41-2.62 1.605-5.237c.05-.678.081-1.378.081-2.077s-.03-1.4-.081-2.077c-.195-2.616-.292-3.924-1.605-5.237s-2.62-1.41-5.237-1.605A28 28 0 0 0 12 3.002c-.7 0-1.399.03-2.077.081-2.616.195-3.924.292-5.237 1.605M12 5.002c-.642 0-1.292.028-1.929.075-2.75.205-3.265.319-3.97 1.025-.707.706-.82 1.22-1.025 3.971A26 26 0 0 0 5 12.002c0 .642.028 1.291.076 1.929.204 2.75.318 3.265 1.024 3.97.706.707 1.22.82 3.971 1.025.637.048 1.287.076 1.929.076s1.292-.028 1.929-.076c2.75-.204 3.265-.318 3.97-1.024.707-.706.82-1.221 1.025-3.971A26 26 0 0 0 19 12.002c0-.642-.028-1.292-.076-1.929-.204-2.75-.318-3.265-1.024-3.97-.706-.707-1.22-.82-3.971-1.026A26 26 0 0 0 12 5.002"/></svg>