<svg xmlns="http://www.w3.org/2000/svg" viewBox="0 0 16 16"><path d="M8.854 11.073c.174-.223.186-.486.211-1.01q.02-.408.034-.964.555-.013.964-.033c.524-.026.786-.038 1.01-.211.223-.174.234-.351.255-.706a3 3 0 0 0 0-.298c-.02-.355-.031-.532-.255-.705-.224-.174-.486-.186-1.01-.211a38 38 0 0 0-.964-.034q-.013-.556-.034-.964c-.025-.524-.038-.787-.21-1.01-.174-.224-.351-.234-.706-.256a3 3 0 0 0-.298 0c-.355.022-.532.032-.706.256-.173.223-.185.486-.21 1.01q-.022.409-.034.964-.556.013-.964.034c-.525.025-.787.038-1.01.21-.224.174-.235.351-.256.706a3 3 0 0 0 0 .298c.021.355.032.532.256.706.223.173.485.185 1.01.21q.409.021.964.034.013.556.033.964c.026.524.038.787.211 1.01.174.224.351.234.706.256a3 3 0 0 0 .298 0c.355-.022.532-.032.705-.256"/><path fill-rule="evenodd" d="M3.124 3.124c-.875.875-.94 1.747-1.07 3.491C2.02 7.067 2 7.534 2 8s.02.933.054 1.385c.13 1.744.195 2.616 1.07 3.491s1.747.94 3.491 1.07C7.067 13.98 7.534 14 8 14s.933-.02 1.385-.054c1.744-.13 2.616-.195 3.491-1.07s.94-1.747 1.07-3.491C13.98 8.933 14 8.466 14 8s-.02-.933-.054-1.385c-.13-1.744-.195-2.616-1.07-3.491s-1.747-.94-3.491-1.07A19 19 0 0 0 8 2c-.466 0-.933.02-1.385.054-1.744.13-2.616.195-3.491 1.07M8 3.5c-.423 0-.852.019-1.273.05-1.845.137-2.122.214-2.542.635-.42.42-.498.697-.635 2.542-.031.42-.05.85-.05 1.273s.019.852.05 1.273c.137 1.845.214 2.122.635 2.542.42.42.697.498 2.542.635.42.032.85.05 1.273.05s.852-.018 1.273-.05c1.845-.137 2.122-.214 2.542-.635.42-.42.498-.697.635-2.542.032-.42.05-.85.05-1.273s-.018-.852-.05-1.273c-.137-1.845-.214-2.122-.635-2.542-.42-.42-.697-.498-2.542-.635A17 17 0 0 0 8 3.5"/></svg>