<svg xmlns="http://www.w3.org/2000/svg" viewBox="0 0 32 32"><path fill-rule="evenodd" d="M4.108 13.23c.26-3.488.39-5.232 2.14-6.982s3.494-1.88 6.982-2.14A38 38 0 0 1 15.999 4c.933 0 1.865.04 2.77.108 3.487.26 5.23.39 6.981 2.14s1.88 3.494 2.14 6.982c.067.904.108 1.836.108 2.769s-.04 1.865-.108 2.77c-.26 3.487-.39 5.23-2.14 6.981s-3.494 1.88-6.982 2.14c-.904.067-1.836.108-2.769.108s-1.865-.04-2.77-.108c-3.487-.26-5.23-.39-6.981-2.14s-1.88-3.494-2.14-6.982A38 38 0 0 1 4 16c0-.933.04-1.865.108-2.77m13.686 9.224c.364-.47.39-1.02.443-2.121a81 81 0 0 0 .07-2.025 81 81 0 0 0 2.026-.07c1.1-.053 1.651-.08 2.12-.443.47-.364.492-.737.537-1.482a5 5 0 0 0 0-.625c-.044-.745-.067-1.118-.537-1.482-.469-.364-1.02-.39-2.12-.443a80 80 0 0 0-2.025-.07 81 81 0 0 0-.07-2.025c-.054-1.102-.08-1.652-.444-2.122s-.736-.492-1.481-.536a5 5 0 0 0-.626 0c-.745.044-1.117.067-1.481.536s-.39 1.02-.444 2.121a81 81 0 0 0-.07 2.026 81 81 0 0 0-2.025.07c-1.1.053-1.651.08-2.12.443-.47.364-.493.737-.537 1.482a5 5 0 0 0 0 .625c.044.745.067 1.118.536 1.482s1.02.39 2.121.443q.859.043 2.025.07.028 1.166.07 2.025c.053 1.1.08 1.651.444 2.12s.736.492 1.48.537a5 5 0 0 0 .627 0c.745-.044 1.117-.067 1.481-.536"/></svg>