<svg xmlns="http://www.w3.org/2000/svg" viewBox="0 0 44 44"><path fill-rule="evenodd" d="M11.27 28.881a84 84 0 0 1-.27-6.88 84 84 0 0 1 .269-6.88c.161-1.963.26-3 .522-3.855.211-.69.557-1.335 1.458-2.231.923-.918 1.555-1.252 2.184-1.447.282-.088.584-.155.942-.212a.96.96 0 0 1 1.029.593l.122.293A1.2 1.2 0 0 0 18.633 9h6.734a1.2 1.2 0 0 0 1.107-.738l.122-.293a.96.96 0 0 1 1.03-.593c.357.057.659.124.941.212.629.195 1.26.529 2.184 1.447.901.896 1.247 1.541 1.458 2.231.261.854.361 1.892.522 3.855.16 1.956.269 4.25.269 6.88s-.108 4.924-.27 6.88c-.16 1.962-.26 3-.521 3.853-.211.69-.557 1.335-1.458 2.231-.923.918-1.555 1.252-2.183 1.447-.785.244-1.726.331-3.578.473A39 39 0 0 1 22 37c-1.04 0-2.042-.043-2.99-.115-1.852-.142-2.793-.23-3.578-.473-.628-.195-1.26-.529-2.183-1.447-.901-.896-1.247-1.541-1.458-2.23-.261-.855-.36-1.892-.522-3.854m-2.99.246c.305 3.722.458 5.583 2.853 7.966s4.147 2.515 7.648 2.783A42 42 0 0 0 22 40c1.123 0 2.2-.046 3.219-.124 3.501-.267 5.252-.401 7.648-2.783 2.395-2.383 2.548-4.244 2.854-7.966C35.888 27.09 36 24.713 36 22a87 87 0 0 0-.279-7.124c-.306-3.724-.458-5.586-2.855-7.969s-4.148-2.516-7.65-2.783A42 42 0 0 0 22 4a42 42 0 0 0-3.215.124c-3.504.267-5.255.4-7.651 2.783s-2.55 4.245-2.855 7.969A87 87 0 0 0 8 22c0 2.713.112 5.09.28 7.127"/></svg>