<svg xmlns="http://www.w3.org/2000/svg" viewBox="0 0 16 16"><path fill-rule="evenodd" d="M4.11 10.71A32 32 0 0 1 4 8c0-1.041.045-1.944.11-2.709.065-.761.102-1.117.189-1.4.062-.202.16-.399.465-.703.315-.314.508-.407.689-.464a3 3 0 0 1 .539-.102.2.2 0 0 1 .213.146l.079.296a.25.25 0 0 0 .241.186h2.95a.25.25 0 0 0 .241-.186l.08-.296a.2.2 0 0 1 .212-.146c.236.028.398.058.54.102.18.057.373.15.688.464.305.304.403.501.465.703.087.283.124.639.19 1.4C11.954 6.055 12 6.959 12 8s-.045 1.945-.11 2.71c-.065.76-.102 1.116-.189 1.4-.062.2-.16.398-.465.702-.315.314-.508.407-.688.463-.26.081-.581.115-1.306.174a15.3 15.3 0 0 1-2.484 0c-.724-.06-1.047-.093-1.306-.174-.18-.056-.373-.15-.688-.463-.305-.304-.403-.501-.465-.703-.087-.283-.124-.639-.19-1.4m9.275-5.547c-.121-1.422-.182-2.133-1.09-3.038s-1.583-.96-2.932-1.07a17 17 0 0 0-2.725 0c-1.35.11-2.024.165-2.933 1.07s-.969 1.616-1.09 3.039A34 34 0 0 0 2.5 8c0 1.084.046 2.03.115 2.837.121 1.422.182 2.133 1.09 3.037.908.905 1.583.96 2.931 1.07a17 17 0 0 0 2.728 0c1.348-.11 2.022-.165 2.93-1.07s.97-1.615 1.09-3.037c.07-.806.116-1.753.116-2.837s-.046-2.03-.115-2.836"/></svg>