<svg xmlns="http://www.w3.org/2000/svg" viewBox="0 0 24 24"><path fill-rule="evenodd" d="M6.161 15.883A45 45 0 0 1 6.001 12c0-1.492.065-2.786.16-3.882.094-1.079.149-1.602.278-2.023.097-.312.25-.613.699-1.06.46-.458.755-.606 1.043-.696.189-.059.398-.101.678-.138a.49.49 0 0 1 .534.37l.013.05A.5.5 0 0 0 9.89 5h4.219a.5.5 0 0 0 .485-.379l.012-.05a.49.49 0 0 1 .535-.37c.28.038.49.08.679.139.288.09.584.238 1.043.696.449.447.602.748.699 1.06.13.42.184.944.278 2.023.095 1.096.16 2.39.16 3.882s-.065 2.786-.16 3.882c-.094 1.079-.149 1.602-.278 2.022-.097.313-.25.613-.699 1.06-.46.458-.755.606-1.043.696-.393.123-.879.173-1.916.26a23 23 0 0 1-3.808 0c-1.037-.087-1.522-.137-1.916-.26-.288-.09-.584-.238-1.043-.696-.45-.447-.602-.747-.699-1.06-.13-.42-.184-.944-.278-2.022M4.001 12c0 1.55.068 2.902.168 4.055.175 2.024.263 3.036 1.557 4.326s2.264 1.37 4.205 1.532a25 25 0 0 0 4.14 0c1.94-.162 2.911-.243 4.205-1.532s1.381-2.302 1.557-4.326c.1-1.153.168-2.505.168-4.055s-.068-2.902-.168-4.055c-.175-2.025-.263-3.037-1.557-4.327S16.01 2.25 14.07 2.087a25 25 0 0 0-4.137 0C7.99 2.25 7.02 2.33 5.726 3.62S4.344 5.921 4.17 7.947A47 47 0 0 0 4 12"/></svg>