<svg xmlns="http://www.w3.org/2000/svg" viewBox="0 0 32 32"><path d="M14.999 8.5c0 2.485-1.231 4.5-2.75 4.5s-2.75-2.015-2.75-4.5S10.73 4 12.249 4s2.75 2.015 2.75 4.5M8.497 14c0 2.485-1.231 4.5-2.75 4.5s-2.75-2.015-2.75-4.5 1.231-4.5 2.75-4.5 2.75 2.015 2.75 4.5m11.249-1c1.519 0 2.75-2.015 2.75-4.5S21.265 4 19.746 4s-2.75 2.015-2.75 4.5 1.231 4.5 2.75 4.5M29 14c0 2.485-1.231 4.5-2.75 4.5S23.5 16.485 23.5 14s1.231-4.5 2.75-4.5S29 11.515 29 14m-11.157.802c.73 1.392 2.047 2.2 3.367 3.009C23.233 19.05 25 20.292 25 23a5 5 0 0 1-9 3.002A5 5 0 0 1 7.002 23c0-2.707 1.767-3.95 3.79-5.19 1.32-.808 2.636-1.616 3.366-3.008.374-.713 1.037-1.302 1.843-1.302s1.469.589 1.843 1.302"/></svg>