<svg xmlns="http://www.w3.org/2000/svg" viewBox="0 0 44 44"><path fill-rule="evenodd" d="M34.211 26.996C37.427 26.866 40 23.784 40 20c0-3.866-2.686-7-6-7q-.511 0-1 .097V13c0-3.866-2.686-7-6-7-2.087 0-3.925 1.243-5 3.13C20.925 7.242 19.087 6 17 6c-3.314 0-6 3.134-6 7v.097A5 5 0 0 0 10 13c-3.314 0-6 3.134-6 7 0 3.784 2.573 6.866 5.789 6.996-1.226 2.63-1.16 5.862 1.093 8.427 3.088 3.515 7.953 3.123 11.054.684l.064-.05.064.05c3.1 2.44 7.965 2.831 11.054-.684 2.252-2.565 2.318-5.797 1.093-8.427M17 17c1.24 0 3-1.34 3-4s-1.76-4-3-4-3 1.34-3 4 1.76 4 3 4m-7 7c1.24 0 3-1.34 3-4s-1.76-4-3-4-3 1.34-3 4 1.76 4 3 4m20-11c0 2.66-1.76 4-3 4s-3-1.34-3-4 1.76-4 3-4 3 1.34 3 4m4 11c1.24 0 3-1.34 3-4s-1.76-4-3-4-3 1.34-3 4 1.76 4 3 4m-12-5c-1.701 0-2.471 1.942-3.279 3.165-.49.742-1.2 1.3-1.942 1.788-1.111.731-2.092 1.65-3.042 2.575-1.956 1.904-2.403 4.864-.601 6.915s4.798 1.995 6.946.306q.776-.608 1.685-1.4a.354.354 0 0 1 .466 0q.91.792 1.685 1.4c2.148 1.689 5.143 1.746 6.946-.306s1.355-5.011-.601-6.915c-.95-.925-1.93-1.843-3.041-2.574-.743-.488-1.453-1.046-1.942-1.788C24.474 20.946 23.708 19 22 19"/></svg>