<svg xmlns="http://www.w3.org/2000/svg" viewBox="0 0 24 24"><path d="M11.502 6.5c0 1.933-1.007 3.5-2.25 3.5-1.242 0-2.25-1.567-2.25-3.5S8.01 3 9.252 3c1.243 0 2.25 1.567 2.25 3.5m-5.002 4c0 1.933-1.007 3.5-2.25 3.5S2 12.433 2 10.5 3.007 7 4.25 7 6.5 8.567 6.5 10.5m8.252-.5c1.243 0 2.25-1.567 2.25-3.5S15.996 3 14.753 3 12.5 4.567 12.5 6.5s1.008 3.5 2.252 3.5m7.248.5c0 1.933-1.007 3.5-2.25 3.5s-2.25-1.567-2.25-3.5S18.507 7 19.75 7 22 8.567 22 10.5m-8.667.94c.479.88 1.306 1.338 2.166 1.815 1.583.877 3.001 1.993 3.001 3.995A3.75 3.75 0 0 1 12 19.8a3.75 3.75 0 0 1-6.5-2.55c0-2.001 1.418-3.118 3-3.995.861-.477 1.688-.936 2.167-1.815.278-.51.752-.94 1.333-.94.582 0 1.055.43 1.333.94"/></svg>