<svg xmlns="http://www.w3.org/2000/svg" viewBox="0 0 32 32"><path fill-rule="evenodd" d="M6.943 19.96C4.721 19.64 3 17.43 3 14.75c0-2.9 2.015-5.25 4.5-5.25q.257 0 .506.033A6 6 0 0 1 8 9.25C8 6.35 10.015 4 12.5 4c1.414 0 2.675.76 3.5 1.95C16.825 4.76 18.086 4 19.5 4 21.985 4 24 6.35 24 9.25q0 .143-.006.283.25-.033.506-.033c2.485 0 4.5 2.35 4.5 5.25 0 2.68-1.72 4.89-3.944 5.21.754 1.92.628 4.198-.955 6.052-2.247 2.63-5.786 2.418-8.101.718-2.315 1.7-5.855 1.911-8.101-.718-1.584-1.854-1.71-4.131-.956-6.052M14.5 9.25c0 1.894-1.243 2.75-2 2.75s-2-.856-2-2.75 1.243-2.75 2-2.75 2 .856 2 2.75m-7 8.25c.757 0 2-.856 2-2.75S8.257 12 7.5 12s-2 .856-2 2.75 1.243 2.75 2 2.75m17 0c.757 0 2-.856 2-2.75S25.257 12 24.5 12s-2 .856-2 2.75 1.243 2.75 2 2.75m-5-5.5c.757 0 2-.856 2-2.75s-1.243-2.75-2-2.75-2 .856-2 2.75 1.243 2.75 2 2.75M16 14c1.21 0 1.733 1.401 2.29 2.269.345.54.852.947 1.382 1.308.768.522 1.443 1.173 2.098 1.828 1.381 1.381 1.699 3.497.43 4.983-1.252 1.465-3.367 1.428-4.865.216q-.541-.435-1.172-1.003a.243.243 0 0 0-.326 0q-.632.567-1.173 1.003c-1.498 1.212-3.613 1.25-4.864-.216-1.27-1.486-.952-3.602.43-4.983.655-.656 1.331-1.307 2.1-1.83.53-.36 1.037-.768 1.383-1.307C14.277 15.386 14.793 14 16 14"/></svg>