<svg xmlns="http://www.w3.org/2000/svg" viewBox="0 0 32 32"><path fill-rule="evenodd" d="M.142 12.309c.346-4.65.52-6.976 2.853-9.31C5.33.665 7.655.492 12.305.145 13.512.055 14.756.001 16 .001s2.487.055 3.693.144c4.65.347 6.976.52 9.31 2.854s2.507 4.66 2.853 9.31c.09 1.206.144 2.45.144 3.693 0 1.244-.054 2.487-.144 3.693-.346 4.65-.519 6.976-2.853 9.31s-4.66 2.507-9.31 2.854c-1.206.09-2.45.144-3.693.144a50 50 0 0 1-3.693-.145c-4.651-.346-6.976-.519-9.31-2.853s-2.508-4.66-2.854-9.31a50 50 0 0 1-.144-3.693c0-1.244.054-2.487.144-3.693m21.15 10.614 2.706-12.766c.24-1.126-.404-1.565-1.14-1.29L6.943 15c-1.086.425-1.07 1.033-.185 1.31l4.541 1.7 4.216-3.065a.62.62 0 1 1 .833.917l-3.204 2.912-.291 4.13c.425 0 .608-.184.829-.404l1.99-1.915 4.125 3.04c.757.424 1.289.2 1.493-.701"/></svg>