<svg xmlns="http://www.w3.org/2000/svg" viewBox="0 0 24 24"><path fill-rule="evenodd" d="M.106 9.232C.366 5.744.496 4 2.246 2.249S5.741.369 9.23.109A38 38 0 0 1 12 .001c.932 0 1.865.04 2.77.108C18.255.37 20 .5 21.75 2.25s1.88 3.495 2.14 6.983c.067.904.108 1.837.108 2.77 0 .932-.04 1.865-.108 2.77-.26 3.487-.39 5.231-2.14 6.982-1.75 1.75-3.495 1.88-6.983 2.14-.904.067-1.837.108-2.77.108-.932 0-1.865-.04-2.77-.108-3.487-.26-5.231-.39-6.982-2.14-1.75-1.75-1.88-3.495-2.14-6.983a38 38 0 0 1-.108-2.77c0-.932.04-1.865.108-2.77m15.863 7.96 2.03-9.574c.18-.845-.303-1.174-.856-.967L5.208 11.249c-.814.319-.802.775-.138.982l3.406 1.276 3.161-2.3a.465.465 0 0 1 .625.689L9.86 14.08l-.22 3.097c.32 0 .457-.138.623-.303l1.492-1.436 3.094 2.28c.567.318.967.15 1.12-.526"/></svg>