<svg xmlns="http://www.w3.org/2000/svg" viewBox="0 0 16 16"><path fill-rule="evenodd" d="M1.497 2.75a.75.75 0 0 1 .75-.75h11.5a.75.75 0 0 1 0 1.5h-.056c.088.35.129.748.18 1.241.075.726.125 1.577.125 2.552a40 40 0 0 1-.177 3.671l-.008.08c-.12 1.152-.204 1.957-.608 2.621-.14.23-.373.332-.624.335-.22.003-.453-.07-.648-.202-.628-.424-1.405-.844-1.672-.844-.287 0-1.024.435-1.658.862a1.08 1.08 0 0 1-1.204.001c-.634-.428-1.367-.868-1.647-.868-.261 0-1.05.423-1.686.85a1.17 1.17 0 0 1-.618.2c-.263.005-.51-.096-.655-.334-.405-.665-.49-1.468-.61-2.62l-.008-.081a40 40 0 0 1-.177-3.671c0-.975.05-1.826.126-2.551.051-.494.092-.892.18-1.242h-.055a.75.75 0 0 1-.75-.75m5.28 2.47a.75.75 0 0 0-1.06 1.06L6.935 7.5l-1.22 1.22a.75.75 0 1 0 1.06 1.06l1.22-1.22 1.22 1.22a.75.75 0 1 0 1.06-1.06L9.058 7.5l1.22-1.22a.75.75 0 1 0-1.06-1.06l-1.22 1.22z"/></svg>