<svg xmlns="http://www.w3.org/2000/svg" viewBox="0 0 24 24"><g fill-rule="evenodd" clip-rule="evenodd"><path d="M21 4a1 1 0 0 1-1 1h-.402c.113.55.167 1.174.234 1.946C19.932 8.099 20 9.45 20 11c0 1.882-.1 3.642-.237 5.211l-.014.169c-.146 1.68-.256 2.945-.698 3.965-.202.467-.658.661-1.152.655-.336-.004-.69-.1-.993-.267-.76-.417-1.58-.748-1.89-.748-.34 0-1.158.305-1.93.737A2.23 2.23 0 0 1 12 21c-.376 0-.753-.092-1.08-.277-.771-.435-1.583-.745-1.916-.745-.302 0-1.138.334-1.907.755A2.16 2.16 0 0 1 6.078 21c-.485 0-.93-.196-1.13-.656-.442-1.021-.552-2.285-.698-3.968l-.014-.165A60 60 0 0 1 4 11.001c0-1.55.067-2.902.167-4.055.067-.772.121-1.397.235-1.946H4a1 1 0 0 1 0-2h16a1 1 0 0 1 1 1M6.47 5h11.06l.031.096c.13.42.185.944.278 2.023.096 1.096.16 2.39.16 3.881a58 58 0 0 1-.228 5.038c-.11 1.267-.188 2.097-.317 2.714-.319-.16-.64-.303-.936-.419a7 7 0 0 0-.651-.22 3.3 3.3 0 0 0-.85-.128c-.57 0-1.16.203-1.513.336-.441.168-.928.395-1.396.657A.24.24 0 0 1 12 19a.2.2 0 0 1-.096-.018 11 11 0 0 0-1.385-.66c-.344-.133-.94-.344-1.515-.344-.357 0-.68.082-.855.13a7 7 0 0 0-.651.222c-.3.118-.627.263-.953.426-.128-.617-.206-1.448-.317-2.718A58 58 0 0 1 6 11c0-1.49.065-2.785.16-3.88.093-1.08.148-1.603.278-2.024q.014-.048.032-.096"/><path d="M8.798 8.293a1 1 0 0 1 1.414 0l1.793 1.793 1.793-1.793a1 1 0 1 1 1.414 1.414L13.42 11.5l1.793 1.793a1 1 0 0 1-1.414 1.414l-1.793-1.793-1.793 1.793a1 1 0 0 1-1.414-1.414l1.793-1.793-1.793-1.793a1 1 0 0 1 0-1.414"/></g></svg>