<svg xmlns="http://www.w3.org/2000/svg" viewBox="0 0 32 32"><path d="M19.54 7.865c-.101.212-.002.577.197 1.308l.428 1.577h-1.592c-2.436 0-4.391 0-5.927.206-1.59.214-2.918.67-3.97 1.721s-1.508 2.378-1.722 3.968c-.206 1.535-.206 3.489-.206 5.924v2.182a1.25 1.25 0 0 0 2.5 0v-2.09c0-2.549.003-4.334.184-5.683.177-1.313.502-2.024 1.012-2.534s1.221-.835 2.535-1.011c1.35-.182 3.136-.184 5.686-.184h1.5l-.428 1.578c-.199.73-.298 1.096-.197 1.308.088.185.26.317.463.358.235.046.573-.135 1.249-.497l5.774-3.092c.55-.294.824-.442.915-.637a.63.63 0 0 0 0-.534c-.091-.195-.366-.343-.915-.637l-5.774-3.092c-.676-.362-1.014-.543-1.248-.497a.65.65 0 0 0-.464.358"/></svg>