<svg xmlns="http://www.w3.org/2000/svg" viewBox="0 0 44 44"><path d="M27.05 22.014c-.131-.283-.003-.77.254-1.745L27.903 18h-2.238c-3.5 0-5.973.003-7.847.255-1.83.246-2.863.705-3.611 1.454-.75.748-1.208 1.78-1.454 3.61-.252 1.875-.255 4.348-.255 7.848V34.5a1.5 1.5 0 1 1-3 0v-3.445c0-3.362 0-6.038.282-8.135.29-2.163.906-3.934 2.305-5.333s3.17-2.014 5.333-2.305C19.515 15 22.191 15 25.553 15h2.35l-.599-2.27c-.257-.973-.385-1.46-.254-1.744a.85.85 0 0 1 .6-.476c.303-.062.74.179 1.616.662l7.473 4.123c.711.392 1.067.589 1.184.848a.87.87 0 0 1 0 .714c-.117.26-.473.456-1.184.848l-7.473 4.123c-.875.483-1.313.724-1.616.662a.85.85 0 0 1-.6-.476"/></svg>