<svg xmlns="http://www.w3.org/2000/svg" viewBox="0 0 24 24"><path d="M14.62 10.159a4.5 4.5 0 1 0-5.241 0 8 8 0 0 0-.801.24c-1.453.5-3.89 3.068-4.314 4.544C4 15.862 4 15.924 4 16.05c0 .816 0 1.224.058 1.564a4.07 4.07 0 0 0 3.327 3.328c.341.058.75.058 1.565.058h3.578a6 6 0 0 1 3.995-9.981c-.394-.288-.773-.506-1.1-.62a8 8 0 0 0-.802-.24"/><path fill-rule="evenodd" d="M17 21c.742 0 1.436-.202 2.032-.554l1.26 1.261a1 1 0 0 0 1.415-1.414l-1.26-1.261A4 4 0 1 0 17 21m0-2a2 2 0 1 0 0-4 2 2 0 0 0 0 4"/></svg>