<svg xmlns="http://www.w3.org/2000/svg" viewBox="0 0 16 16"><path d="M11.397 6.184c-.038-.413-.072-.667-.117-.846a.86.86 0 0 0-.618-.618c-.19-.048-.462-.08-.916-.12a.75.75 0 0 0-.019 1.5l.158.015.016.158a.75.75 0 1 0 1.496-.089"/><path fill-rule="evenodd" d="M3.124 3.124c-.875.875-.94 1.747-1.07 3.491C2.02 7.067 2 7.534 2 8s.02.933.054 1.385c.13 1.744.195 2.616 1.07 3.491s1.747.94 3.491 1.07C7.067 13.98 7.534 14 8 14s.933-.02 1.385-.054c1.744-.13 2.616-.195 3.491-1.07s.94-1.747 1.07-3.491C13.98 8.933 14 8.466 14 8s-.02-.933-.054-1.385c-.13-1.744-.195-2.616-1.07-3.491s-1.747-.94-3.491-1.07A19 19 0 0 0 8 2c-.466 0-.933.02-1.385.054-1.744.13-2.616.195-3.491 1.07M8 3.5c-.423 0-.852.019-1.273.05-.994.074-1.533.13-1.884.232L8.561 7.5H10.5a1 1 0 0 1 .059 1.998l1.659 1.659c.102-.351.158-.89.232-1.884.032-.42.05-.85.05-1.273s-.018-.852-.05-1.273c-.137-1.845-.214-2.122-.635-2.542-.42-.42-.697-.498-2.542-.635A17 17 0 0 0 8 3.5m-1.56 4H5.5a1 1 0 0 0 0 2h2.94l2.717 2.718c-.351.102-.89.158-1.884.232-.42.032-.85.05-1.273.05s-.852-.018-1.273-.05c-1.845-.137-2.122-.214-2.542-.635-.42-.42-.498-.697-.635-2.542A17 17 0 0 1 3.5 8c0-.423.019-.852.05-1.273.074-.994.13-1.533.232-1.884z"/></svg>