<svg xmlns="http://www.w3.org/2000/svg" viewBox="0 0 16 16"><path d="M2.653 3.713c-.436.714-.498 1.544-.599 2.902C2.02 7.067 2 7.534 2 8s.02.933.054 1.385c.13 1.744.195 2.616 1.07 3.491s1.747.94 3.491 1.07C7.067 13.98 7.534 14 8 14s.933-.02 1.385-.054c1.358-.101 2.188-.163 2.902-.599L8.439 9.5H5.5a1 1 0 1 1 0-2h.94z"/><path fill-rule="evenodd" d="M13.347 12.287 10.56 9.498A1 1 0 0 0 10.5 7.5H8.56L3.714 2.653c.714-.436 1.544-.498 2.902-.599C7.067 2.02 7.534 2 8 2s.933.02 1.385.054c1.744.13 2.616.195 3.491 1.07s.94 1.747 1.07 3.491C13.98 7.067 14 7.534 14 8s-.02.933-.054 1.385c-.101 1.358-.163 2.188-.599 2.902M11.28 5.338c.045.18.079.433.117.846l.003.072a.75.75 0 0 1-1.5.017l-.015-.158-.158-.016a.75.75 0 0 1 .02-1.5c.454.041.726.073.915.121a.86.86 0 0 1 .618.618"/></svg>