<svg xmlns="http://www.w3.org/2000/svg" viewBox="0 0 24 24"><path d="M11.731 21a24 24 0 0 0 .535 0zm8.287-8a.97.97 0 0 0 .98-.96v-.038c0-.7-.03-1.4-.08-2.078-.195-2.616-.293-3.924-1.605-5.237-1.313-1.312-2.621-1.41-5.237-1.604A28 28 0 0 0 11.959 3a.97.97 0 0 0-.961.981v.04c0 .546.455.98 1 .98.643 0 1.292.028 1.93.075 2.75.205 3.264.318 3.97 1.025s.82 1.22 1.025 3.97c.047.638.076 1.287.076 1.93a.99.99 0 0 0 .977.998z"/><path fill-rule="evenodd" d="M5.28 6.166c1.3 1.672 3.324 4.197 5.08 6.06l1.665-1.666-.007-.098a6 6 0 0 1 0-.924c.043-.58.065-.872.357-1.163.291-.292.582-.314 1.163-.357a6 6 0 0 1 .924 0c.58.043.872.065 1.163.357.292.291.314.582.357 1.163a6 6 0 0 1 0 .924c-.043.58-.065.872-.357 1.163-.291.292-.582.314-1.163.357a6 6 0 0 1-.924 0l-.098-.007-1.662 1.661c1.97 1.843 4.626 3.953 6.25 5.21.627.484.459 1.41-.319 1.558-1.245.238-3.147.481-5.709.481-.924 0-1.742-.054-2.432-.13-1.632-.178-3.064-1.052-4.225-2.213-1.16-1.16-2.035-2.593-2.213-4.224A23 23 0 0 1 3 11.885c0-1.647.28-3.742.533-5.296.138-.852 1.217-1.104 1.746-.423m.048 3.28a.1.1 0 0 0-.177.051c-.089.841-.15 1.673-.15 2.388 0 .845.05 1.591.118 2.215.114 1.043.688 2.077 1.64 3.028.95.951 1.984 1.525 3.027 1.64.624.067 1.37.117 2.215.117.915 0 1.737-.032 2.467-.085a.1.1 0 0 0 .055-.176c-1.662-1.342-3.558-2.946-4.936-4.324-1.357-1.357-2.932-3.215-4.258-4.854"/></svg>