<svg xmlns="http://www.w3.org/2000/svg" viewBox="0 0 16 16"><path d="M8 3.501a.66.66 0 0 1-.667-.653v-.201a.68.68 0 0 1 .645-.646H8c.467 0 .933.02 1.385.054 1.744.13 2.616.195 3.491 1.07.876.875.94 1.747 1.07 3.491.034.452.054.919.054 1.385v.019a.68.68 0 0 1-.647.646h-.202a.66.66 0 0 1-.65-.665c0-.423-.02-.852-.05-1.273-.138-1.845-.215-2.122-.635-2.542s-.697-.498-2.542-.635A17 17 0 0 0 8 3.501m0 10.5h-.18.358z"/><path d="M8.281 5.281c-.219.219-.235.437-.267.873a5 5 0 0 0 .005.765l-1.118 1.12c-1.15-1.247-2.468-2.924-3.335-4.06a.68.68 0 0 0-1.222.303C2.178 5.332 2 6.72 2 7.817c0 .63.036 1.187.087 1.658.119 1.111.702 2.087 1.476 2.878.775.791 1.73 1.387 2.82 1.508.46.052 1.006.089 1.622.089 1.67 0 2.918-.158 3.75-.317.545-.103.663-.764.225-1.11-1.06-.839-2.74-2.204-4.024-3.419l1.122-1.123.076.005a5 5 0 0 0 .692 0c.436-.032.654-.048.873-.267s.235-.437.268-.873a5 5 0 0 0 0-.692c-.033-.436-.05-.654-.268-.873s-.437-.235-.873-.267a5 5 0 0 0-.692 0c-.436.032-.654.048-.873.267"/></svg>