<svg xmlns="http://www.w3.org/2000/svg" viewBox="0 0 24 24"><path d="M20.999 12.04a.97.97 0 0 1-.981.96h-.042a.99.99 0 0 1-.977-.998c0-.643-.029-1.292-.076-1.93-.205-2.75-.318-3.264-1.025-3.97s-1.22-.82-3.97-1.025a26 26 0 0 0-1.93-.076.99.99 0 0 1-1-.979v-.04a.97.97 0 0 1 .96-.98h.04c.7 0 1.4.03 2.078.08 2.616.195 3.924.293 5.237 1.605 1.312 1.313 1.41 2.621 1.605 5.237.05.678.08 1.378.08 2.078zm-9 8.962L11.73 21h.535z"/><path d="m12.025 10.56-1.665 1.665c-1.756-1.862-3.78-4.387-5.08-6.06-.53-.68-1.609-.428-1.747.423C3.28 8.143 3 10.238 3 11.885c0 .924.055 1.742.13 2.433.178 1.631 1.052 3.063 2.213 4.224 1.16 1.16 2.593 2.035 4.225 2.213.69.076 1.508.13 2.432.13 2.562 0 4.464-.244 5.71-.481.777-.149.944-1.074.318-1.558-1.624-1.257-4.28-3.367-6.25-5.21l1.662-1.661.098.007a6 6 0 0 0 .924 0c.58-.043.872-.065 1.163-.357.292-.291.314-.582.357-1.163a6 6 0 0 0 0-.924c-.043-.58-.065-.872-.357-1.163-.291-.292-.582-.314-1.163-.357a6 6 0 0 0-.924 0c-.58.043-.872.065-1.163.357-.292.291-.314.582-.357 1.163a6 6 0 0 0 0 .924z"/></svg>