<svg xmlns="http://www.w3.org/2000/svg" viewBox="0 0 16 16"><path d="M8 3.501a.66.66 0 0 1-.667-.653v-.201a.68.68 0 0 1 .645-.646H8c.467 0 .933.02 1.385.054 1.744.13 2.616.195 3.491 1.07.876.875.94 1.747 1.07 3.491.034.452.054.919.054 1.385v.019a.68.68 0 0 1-.647.646h-.202a.66.66 0 0 1-.65-.665c0-.423-.02-.852-.05-1.273-.138-1.845-.215-2.122-.635-2.542s-.697-.498-2.542-.635A17 17 0 0 0 8 3.501m0 10.5h-.18.358z"/><path fill-rule="evenodd" d="m9.154 7.986-.076-.005-1.122 1.123c1.285 1.215 2.965 2.58 4.024 3.419.438.346.32 1.007-.225 1.11-.832.159-2.08.317-3.75.317-.616 0-1.162-.037-1.623-.089-1.088-.121-2.044-.717-2.818-1.508-.775-.79-1.358-1.767-1.477-2.878C2.037 9.005 2 8.447 2 7.817c0-1.096.178-2.484.344-3.535a.68.68 0 0 1 1.222-.303c.867 1.136 2.186 2.813 3.335 4.06l1.118-1.12-.005-.073a5 5 0 0 1 0-.692c.032-.436.048-.654.267-.873s.437-.235.873-.267a5 5 0 0 1 .692 0c.436.032.654.048.873.267s.235.437.268.873a5 5 0 0 1 0 .692c-.033.436-.05.654-.268.873s-.437.235-.873.267a5 5 0 0 1-.692 0m-5.59-1.412a.05.05 0 0 1 .089-.027c.836 1.045 1.79 2.183 2.624 3.035.845.862 1.977 1.852 3.013 2.715a.05.05 0 0 1-.029.088 23 23 0 0 1-1.256.033 13 13 0 0 1-1.46-.08c-.647-.072-1.303-.437-1.92-1.068-.618-.63-.976-1.301-1.047-1.962a14 14 0 0 1-.078-1.49c0-.378.025-.804.064-1.244"/></svg>