<svg xmlns="http://www.w3.org/2000/svg" viewBox="0 0 44 44"><path fill-rule="evenodd" d="M27.024 3.494C30.366 4.764 32.036 5.4 32 6.45s-1.749 1.565-5.172 2.595l-1.751.527c-.636.19-1.149.345-1.577.45v.6c.255.221.539.439.802.65 3.698 2.959 8.48 6.591 13.396 8.326 2.052.724 3.26 2.855 1.348 3.891-.72.39-1.551.72-2.455.997l-.002.68q.002 2.029.077 3.81c.1 2.408.174 4.22.507 5.738.103.473.328.949.328 1.437 0 .53-.248 1.04-.63 1.403-.473.453-1.03.496-1.632.607C32.101 38.743 27.05 39.5 22 39.5s-10.101-.757-13.239-1.339c-.603-.111-1.159-.154-1.633-.607-.38-.364-.628-.873-.628-1.403 0-.488.224-.964.328-1.437.332-1.518.407-3.33.506-5.737a92 92 0 0 0 .075-4.494c-.9-.277-1.73-.606-2.446-.994-1.913-1.037-.705-3.168 1.347-3.892 4.915-1.734 9.698-5.366 13.396-8.326.265-.212.537-.417.793-.64V7h.003q-.003-.379-.002-.833c0-1.844 0-2.766.424-3.335.28-.375.675-.647 1.125-.776.682-.195 1.543.132 3.266.788zm-16.628 21.7c0 1.383-.03 2.686-.08 3.907-.092 2.226-.148 4.282-.563 6.196a82 82 0 0 0 6.736.93c1.212-3.145 2.01-6.703 2.01-10.272-2.374-.072-5.35-.263-8.103-.762m15.103.762c0 3.569.798 7.126 2.01 10.272a82 82 0 0 0 6.738-.93c-.442-2.034-.478-4.126-.563-6.197-.05-1.22-.08-2.523-.08-3.906-2.754.498-5.732.688-8.105.76M21.58 13.613l.423-.338.423.338c3.308 2.648 7.812 6.116 12.662 8.185-1.556.416-3.43.712-5.417.901-3.137.3-6.113.301-7.666.301s-4.53-.002-7.667-.301c-1.988-.19-3.863-.485-5.418-.902 4.849-2.068 9.352-5.536 12.66-8.184"/></svg>