<svg xmlns="http://www.w3.org/2000/svg" viewBox="0 0 44 44"><path d="M27.029 3.494c3.343 1.27 5.014 1.906 4.977 2.956s-1.75 1.565-5.175 2.595l-1.752.527c-.637.191-1.15.346-1.58.451v.5l.034.029q.06.045.124.088l.676.462c3.712 2.535 8.501 5.722 13.433 7.28 2.146.679 3.184 2.778 1.101 3.633C34.04 23.998 25.067 24 22.001 24s-12.04-.002-16.868-1.985c-2.082-.855-1.045-2.955 1.101-3.633 4.931-1.559 9.72-4.745 13.432-7.28l.676-.462.141-.101.017-.014V7.333h.007q-.009-.505-.007-1.166c0-1.844 0-2.766.425-3.335.28-.375.675-.647 1.125-.776.683-.195 1.545.132 3.268.788zM13.997 26.742c1.6.123 3.143.188 4.487.221-.159 4.37-1.481 8.505-3.25 12.15a87 87 0 0 1-6.472-.952l-.225-.04c-.516-.089-.994-.171-1.408-.567-.381-.364-.629-.873-.629-1.403 0-.32.096-.634.192-.946.05-.164.1-.328.136-.491.333-1.518.407-3.33.507-5.737q.062-1.488.075-3.15c2.162.484 4.494.754 6.587.915m21.242 11.419a86 86 0 0 1-6.472.951c-1.77-3.644-3.093-7.78-3.251-12.149a88 88 0 0 0 4.487-.22c2.093-.161 4.425-.431 6.588-.915q.011 1.66.075 3.149c.099 2.407.174 4.22.506 5.737.036.163.086.327.136.49.096.313.192.627.192.947 0 .53-.248 1.039-.629 1.403-.414.396-.891.478-1.408.568h-.003z"/></svg>