<svg xmlns="http://www.w3.org/2000/svg" viewBox="0 0 16 16"><path fill-rule="evenodd" d="M11.715 2.172c.013-.386-.62-.617-1.887-1.08L9.046.809C8.37.56 8.03.438 7.766.532a.8.8 0 0 0-.337.235c-.179.215-.179.575-.179 1.292v1.829l-.082.066q-.234.184-.483.384C5.427 5.342 3.894 6.566 2.323 7.18c-.738.289-1.169 1.069-.466 1.436.266.14.573.257.906.356a36 36 0 0 1-.026 1.752l-.008.204a20 20 0 0 1-.086 1.335q-.043.381-.124.702a.8.8 0 0 0-.019.206c0 .389.29.709.661.746l.193.044q.169.04.35.077c1.125.222 2.707.461 4.29.461 1.582 0 3.164-.24 4.289-.46q.203-.042.39-.085l.165-.037a.743.743 0 0 0 .662-.746.8.8 0 0 0-.045-.26 5 5 0 0 1-.11-.648c-.044-.384-.066-.82-.087-1.334l-.008-.205a34 34 0 0 1-.026-1.748c.338-.1.65-.218.92-.36.702-.367.271-1.147-.467-1.436-1.57-.615-3.104-1.839-4.362-2.843l-.565-.449V3.41l.209-.06.799-.23c1.295-.374 1.943-.56 1.957-.948m-7.63 10.414c.071-.524.092-1.06.113-1.598l.037-1.705q.19.027.382.05c.378.046.755.08 1.118.104.371.024.726.04 1.048.049v.187a8 8 0 0 1-.107 1.31 10 10 0 0 1-.52 1.915 23 23 0 0 1-2.07-.312m4.37-7.015L8.38 5.51 8 5.208l-.378.302-.077.06c-.845.676-1.919 1.534-3.098 2.228h.005c.832.121 1.71.17 2.438.19l1.145.03 1.127-.032c.715-.02 1.567-.069 2.376-.186l.017-.002c-1.181-.694-2.255-1.552-3.1-2.228m.749 4.102v-.187c.322-.01.677-.024 1.048-.048a21 21 0 0 0 1.5-.155l.037 1.705c.02.538.042 1.074.113 1.598-.606.117-1.284.231-2.07.312a10 10 0 0 1-.521-1.915 8.4 8.4 0 0 1-.107-1.31"/></svg>