<svg xmlns="http://www.w3.org/2000/svg" viewBox="0 0 32 32"><path fill-rule="evenodd" d="M19.542 2.648c2.327.925 3.49 1.387 3.463 2.14-.028.752-1.222 1.127-3.611 1.878l-1.26.396c-.338.106-.63.198-.885.272v.199l.747.556c2.748 2.048 6.244 4.653 9.833 5.903 1.526.531 2.372 2.082.922 2.792-.583.286-1.26.524-1.995.723a67 67 0 0 0 .04 3.777c.07 1.813.124 3.185.372 4.33.077.356.166.7.288 1.018q.044.161.044.336a1.31 1.31 0 0 1-1.282 1.302l-.691.088c-2.324.287-5.926.642-9.529.642s-7.205-.355-9.528-.642q-.367-.045-.688-.088A1.31 1.31 0 0 1 4.5 26.968c0-.116.006-.24.035-.348q.18-.474.294-1.007c.247-1.144.301-2.516.372-4.329a67 67 0 0 0 .04-3.778 11.3 11.3 0 0 1-1.993-.722c-1.45-.71-.603-2.261.923-2.792 3.588-1.25 7.084-3.856 9.833-5.904l.747-.556V5.333h.003Q14.75 5 14.75 4.58c0-1.383 0-2.074.323-2.494.203-.262.484-.453.803-.544.51-.146 1.152.109 2.437.62zM7.722 18.013a69 69 0 0 1-.048 3.37l-.015.413v.002c-.055 1.446-.108 2.83-.37 4.14a87 87 0 0 0 4.886.44c.806-2.146 1.325-4.459 1.325-6.861v-1.04c-1.679-.045-3.784-.16-5.777-.464m10.778.464v1.04c0 2.402.519 4.715 1.326 6.86a86 86 0 0 0 4.882-.438c-.263-1.31-.315-2.696-.37-4.142l-.016-.414a69 69 0 0 1-.048-3.37c-1.993.303-4.096.42-5.774.464M16 9.719l-.592.441c-2.161 1.612-5.028 3.75-8.134 5.242a32 32 0 0 0 3.012.396c2.34.205 4.554.206 5.714.206s3.375-.001 5.714-.206a32 32 0 0 0 3.012-.395c-3.106-1.493-5.973-3.631-8.134-5.243z"/></svg>