<svg xmlns="http://www.w3.org/2000/svg" viewBox="0 0 32 32"><path d="M23.008 4.787c.027-.752-1.136-1.214-3.463-2.139l-1.228-.487c-1.285-.511-1.928-.766-2.437-.62-.32.091-.6.282-.803.544-.324.42-.324 1.111-.324 2.494v3.925l-.435.3c-2.673 1.848-6.12 3.727-9.67 4.672-1.578.42-2.336 1.941-.829 2.57 3.485 1.45 9.97 1.452 12.184 1.452 2.215 0 8.699-.001 12.183-1.452 1.508-.628.75-2.149-.828-2.57-3.55-.945-6.998-2.824-9.67-4.671l-.436-.3V7.333q.38-.112.884-.272l1.26-.396c2.39-.75 3.584-1.126 3.612-1.879M10.193 19.809c1.181.091 2.32.139 3.308.163v.545c0 2.96-.788 5.785-1.932 8.327a91 91 0 0 1-5.787-.574A1.31 1.31 0 0 1 4.5 26.968c0-.116.006-.24.035-.348q.18-.474.294-1.007c.247-1.144.301-2.516.372-4.329q.042-1.035.05-2.183c1.627.38 3.385.586 4.942.707m15.334 8.55a92 92 0 0 1-5.095.486c-1.144-2.542-1.931-5.367-1.931-8.327v-.545a62 62 0 0 0 3.312-.164c1.553-.12 3.308-.326 4.933-.705q.008 1.146.05 2.181c.07 1.813.124 3.185.372 4.33.077.356.166.7.288 1.018q.044.161.044.336a1.31 1.31 0 0 1-1.282 1.302z"/></svg>