<svg xmlns="http://www.w3.org/2000/svg" viewBox="0 0 44 44"><path fill-rule="evenodd" d="M14.403 8.928a12.4 12.4 0 0 0-.202 4.204c.364 3.05 2.237 5.478 3.959 7.129a21 21 0 0 0 3.991 2.987c.27.152.767.345 1.368.177.525-.146 1.057-.508 1.486-.865a9 9 0 0 0 1.455-1.562c.942-1.28 1.786-3.094 1.786-5.298a1.5 1.5 0 0 0-3.001 0c0 1.418-.543 2.625-1.202 3.52a6 6 0 0 1-.96 1.036l-.037.03a18.3 18.3 0 0 1-2.81-2.19c-1.511-1.45-2.811-3.275-3.055-5.319a9.3 9.3 0 0 1 .305-3.786A7.9 7.9 0 0 1 20.119 6.5c1.105-.636 2.39-1 3.8-1 .96 0 1.82.15 2.576.387a8.5 8.5 0 0 1 3.678 2.312q.13.015.28.036c.565.08 1.344.223 2.207.483 1.69.508 3.901 1.522 5.331 3.577 1.239 1.78 1.769 4.061 1.941 6.33.174 2.291-.006 4.724-.315 6.935-.618 4.423-1.78 8.155-1.88 8.472a1.5 1.5 0 0 1-2.914-.224v-.003a1.4 1.4 0 0 1-.017-.189v-.065a2 2 0 0 1 .008-.127l.001-.015.003-.026a1 1 0 0 1 .027-.148c.059-.257.562-2.626.004-4.765a2 2 0 0 0-.125-.322c-.464-1.01-1.413-1.546-2.55-1.567-1.16-.02-2.382.514-3.143 1.53-.654.874-1.078 2.171-1.319 3.604-.236 1.402-.272 2.779-.26 3.683.02 1.375-1.075 2.602-2.542 2.602h-3.416a2.5 2.5 0 0 1-2.501-2.5v-4.151h-3.001V35.5A2.5 2.5 0 0 1 13.49 38H9.989a2.5 2.5 0 0 1-2.5-2.498V29.25l-.243-.654-.104-.15a26 26 0 0 0-.28-.378c-.315-.423-.734-.984-1.112-1.603-1.092-1.788-2.037-4.306-1.67-8.182.108-1.13.34-2.14.678-3.04a9.1 9.1 0 0 1 1.99-3.178c1.403-1.443 3.134-2.237 4.743-2.669a15 15 0 0 1 2.912-.468M34.998 19a2 2 0 1 1-4 0 2 2 0 0 1 4 0"/></svg>