<svg xmlns="http://www.w3.org/2000/svg" viewBox="0 0 24 24"><path fill-rule="evenodd" d="M13.047 2.5c-1.556 0-2.82.795-3.609 1.978l-.05-.005a9 9 0 0 0-.772-.043 8.6 8.6 0 0 0-2.4.295c-.905.253-1.883.72-2.674 1.57-.801.86-1.348 2.046-1.49 3.614-.2 2.191.21 3.622.708 4.655.174.363.37.693.514.935q.07.116.12.203c.117.206.146.29.152.308l.001.003v3.488A1.5 1.5 0 0 0 5.047 21h2.5a1.5 1.5 0 0 0 1.5-1.5v-2h1v2a1.5 1.5 0 0 0 1.5 1.5h2.456c.884 0 1.535-.74 1.521-1.56-.007-.462.01-1.179.135-1.922.128-.758.353-1.45.7-1.935a1.74 1.74 0 0 1 1.326-.734c.444-.014.803.172 1.006.573.089.175.126.279.136.32.291 1.164.041 2.458-.001 2.653-.124.572.25.977.56 1.12a1 1 0 0 0 1.377-.621c.084-.28.71-2.417 1.036-4.92.163-1.251.255-2.625.156-3.92-.099-1.28-.39-2.581-1.076-3.609-.807-1.211-2.057-1.808-3.002-2.104a8 8 0 0 0-1.319-.294 5 5 0 0 0-.66-.597 4.7 4.7 0 0 0-2.85-.95m-4.46 3.93h.06a5.7 5.7 0 0 0-.1 1.07c0 1.441.75 2.667 1.458 3.517a10.5 10.5 0 0 0 1.831 1.706c.243.176.77.412 1.333.102.436-.24 1.01-.79 1.469-1.48.475-.715.908-1.699.908-2.845a1 1 0 1 0-2 0c0 .64-.245 1.242-.574 1.737a4 4 0 0 1-.408.517 8.3 8.3 0 0 1-1.023-1.018c-.588-.706-.995-1.482-.995-2.236 0-1.812 1.183-3 2.5-3a2.7 2.7 0 0 1 1.65.55 2.8 2.8 0 0 1 .508.492l.015.02.277.415L16 6h.012l.066.006a6 6 0 0 1 1.199.244c.74.232 1.49.636 1.937 1.306.413.619.66 1.528.746 2.652.083 1.088.011 2.287-.136 3.44-.613-.569-1.415-.822-2.204-.797-1.09.035-2.187.592-2.886 1.567-.604.841-.898 1.88-1.048 2.77A12.5 12.5 0 0 0 13.525 19h-1.478v-2a1.5 1.5 0 0 0-1.5-1.5h-2a1.5 1.5 0 0 0-1.5 1.5v2h-1.5v-3c0-.543-.25-1-.417-1.291q-.09-.157-.175-.298c-.133-.224-.26-.437-.394-.714-.343-.714-.684-1.783-.518-3.606.108-1.181.498-1.934.963-2.433.474-.51 1.09-.823 1.748-1.008a6.6 6.6 0 0 1 1.834-.22m8.96 4.57a1 1 0 1 0 0-2 1 1 0 0 0 0 2"/></svg>