<svg xmlns="http://www.w3.org/2000/svg" viewBox="0 0 16 16"><path fill-rule="evenodd" d="M8.69 1.5c-1.104 0-1.984.545-2.53 1.372a6.5 6.5 0 0 0-2.041.17c-.669.17-1.395.497-1.984 1.108-.597.62-1 1.478-1.1 2.618-.137 1.574.144 2.532.512 3.214.126.234.274.449.373.593l.076.111c.05.077.07.118.077.134v2.14c0 .576.471 1.04 1.049 1.04H4.95C5.53 14 6 13.534 6 12.959v-1.417h.583v1.417c0 .575.47 1.041 1.048 1.041h1.79c.636 0 1.074-.533 1.07-1.084-.003-.461.076-1.327.58-2.058.217-.314.56-.48.867-.489.287-.009.515.112.641.372.06.125.086.2.094.23.188.784.108 1.287.088 1.384a.74.74 0 0 0 .444.829.8.8 0 0 0 .298.06c.1-.001.572-.044.717-.537a22 22 0 0 0 .681-3.392c.095-.829.139-1.736.057-2.6-.082-.858-.293-1.73-.752-2.446-.565-.882-1.444-1.319-2.11-1.537a5.5 5.5 0 0 0-.93-.215A3.5 3.5 0 0 0 8.69 1.5M7.275 3.915a1 1 0 0 1-.05.111 2.6 2.6 0 0 0-.187 1.003c0 .53.265 1.071.652 1.566.23.293.48.542.686.726a3 3 0 0 0 .261-.359c.214-.347.372-.766.372-1.212 0-.41.335-.743.749-.743.413 0 .749.333.749.743 0 .792-.277 1.478-.592 1.989-.308.5-.69.892-.987 1.09-.456.303-.92.11-1.141-.06a7.4 7.4 0 0 1-1.28-1.262c-.478-.612-.967-1.473-.967-2.478q.001-.35.056-.686a4.8 4.8 0 0 0-1.103.138c-.486.125-.934.342-1.276.697-.334.346-.616.875-.69 1.718-.116 1.322.124 1.985.339 2.383.086.158.162.27.25.396q.062.09.135.202c.129.196.32.51.32.921v1.715H4.5v-1.417c0-.575.47-1.041 1.049-1.041H7.03c.58 0 1.049.466 1.049 1.04v1.418h.925c.044-.65.221-1.614.83-2.495a2.62 2.62 0 0 1 2.055-1.136 2.2 2.2 0 0 1 1.493.505l.03-.24c.087-.767.122-1.564.052-2.293-.07-.736-.242-1.347-.523-1.786-.305-.475-.814-.759-1.316-.923a4 4 0 0 0-.856-.175h-.007v-.001l-.357-.016-.208-.283-.009-.01-.064-.071a1.98 1.98 0 0 0-1.436-.601c-.576 0-1.116.324-1.413.927m4.709 3.683a.746.746 0 0 0 .749-.743.746.746 0 0 0-.75-.744.746.746 0 0 0-.748.744c0 .41.335.743.749.743"/></svg>