<svg xmlns="http://www.w3.org/2000/svg" viewBox="0 0 16 16"><path fill-rule="evenodd" d="M4.716 2.848a5 5 0 0 0-.76.16c-.639.186-1.327.53-1.882 1.15-.561.625-.94 1.482-1.038 2.61-.14 1.594.195 2.567.622 3.253.144.231.312.446.425.59l.087.113c.045.06.068.097.079.116v2.12c0 .576.471 1.04 1.049 1.04h1.398c.58 0 1.049-.466 1.049-1.041v-1.417h.999v1.417c0 .575.47 1.041 1.049 1.041h1.36c.635 0 1.074-.533 1.07-1.084-.003-.461.075-1.327.58-2.058a1.22 1.22 0 0 1 1.024-.517c.372.008.666.185.803.507a1 1 0 0 1 .045.123c.189.784.108 1.287.089 1.384a.74.74 0 0 0 .444.829c.054.023.16.06.297.06.1-.001.573-.044.717-.537.091-.31.493-1.736.682-3.392.095-.829.139-1.736.056-2.6-.081-.858-.292-1.73-.751-2.446-.566-.882-1.444-1.319-2.112-1.537a5.5 5.5 0 0 0-.93-.215A3.5 3.5 0 0 0 8.692 1.5c-.989 0-1.799.438-2.35 1.125a3.3 3.3 0 0 0-.202 1.637c.076.64.526 1.357 1.124 2.02.397.442.815.812 1.12 1.062.078-.097.165-.218.25-.363.207-.355.358-.78.358-1.217 0-.41.336-.744.75-.744.413 0 .749.333.749.744 0 .768-.261 1.45-.56 1.963-.292.498-.664.913-.978 1.122-.469.311-.937.095-1.138-.056-.291-.218-1-.776-1.669-1.52-.65-.721-1.362-1.726-1.494-2.838a4.9 4.9 0 0 1 .065-1.587m8.52 4.007c0 .41-.335.743-.749.743a.746.746 0 0 1-.749-.743c0-.411.335-.744.75-.744.413 0 .748.333.748.744"/></svg>