<svg xmlns="http://www.w3.org/2000/svg" viewBox="0 0 24 24"><path fill-rule="evenodd" d="M6.209 4.725c.4-.113.794-.185 1.163-.23a7.5 7.5 0 0 0-.123 2.629c.209 1.664 1.345 3.016 2.35 3.928a14 14 0 0 0 2.45 1.762c.186.104.628.29 1.127.065.287-.13.563-.36.788-.588.243-.246.496-.558.725-.924.457-.726.858-1.719.858-2.867a1 1 0 0 0-2.001 0c0 .682-.241 1.31-.551 1.803-.13.208-.267.382-.39.515a12 12 0 0 1-1.66-1.246c-.902-.818-1.592-1.758-1.71-2.696a5.36 5.36 0 0 1 .24-2.457c.79-1.15 2.04-1.919 3.57-1.919 1.267 0 2.223.478 2.852.95.283.212.503.424.661.597l.083.012c.317.046.753.13 1.237.282.946.296 2.196.893 3.005 2.104.685 1.028.977 2.329 1.076 3.609.1 1.295.007 2.669-.156 3.92a34 34 0 0 1-1.036 4.92 1 1 0 0 1-1.38.621c-.31-.143-.683-.548-.559-1.12.042-.195.292-1.49.001-2.652a1 1 0 0 0-.042-.118c-.211-.513-.685-.806-1.289-.828-.618-.022-1.259.257-1.638.786-.348.484-.573 1.177-.701 1.935a11 11 0 0 0-.135 1.923c.013.818-.638 1.559-1.522 1.559h-1.457a1.5 1.5 0 0 1-1.501-1.5v-2H8.543v2A1.5 1.5 0 0 1 7.042 21H5.54a1.5 1.5 0 0 1-1.501-1.5v-3.442a2 2 0 0 0-.172-.263l-.158-.21a12 12 0 0 1-.656-.925c-.65-1.04-1.216-2.506-1.012-4.75.143-1.57.69-2.754 1.492-3.615.792-.85 1.77-1.317 2.675-1.57M18.549 11a1 1 0 1 0 0-2 1 1 0 0 0 0 2"/></svg>