<svg xmlns="http://www.w3.org/2000/svg" viewBox="0 0 24 24"><path d="M18.876 8.779C18.274 8.614 17.632 8.5 17 8.5c-1.44 0-2.938.592-3.88 1.035l-.092.043c-.442.204-1.201.555-1.648 1.32-.444.758-.393 1.62-.363 2.126l.006.121c.098 1.909.438 4.007 1.602 5.852Q12.316 19 12 19a47 47 0 0 1-4.056-.167c-1.573-.137-2.535-.22-3.49-.858C2.985 17.14 2 15.59 2 13.819c0-2.657 2.217-4.81 4.95-4.81l.131.001a6.002 6.002 0 0 1 11.795-.231"/><path d="M13.971 11.345c.892-.419 2.053-.845 3.03-.845s2.138.426 3.03.845c.564.266.755.377.863.562.119.202.12.465.086 1.136-.1 1.956-.466 3.808-1.582 5.304a5.6 5.6 0 0 1-1.155 1.12c-.481.347-.924.533-1.242.533s-.761-.186-1.242-.533a5.6 5.6 0 0 1-1.155-1.12c-1.116-1.496-1.483-3.348-1.582-5.304-.034-.671-.033-.934.085-1.136.108-.185.3-.296.864-.562"/></svg>