<svg xmlns="http://www.w3.org/2000/svg" viewBox="0 0 44 44"><path d="M22.002 15a1.5 1.5 0 0 1 1.5 1.5v3.996h3.996a1.5 1.5 0 0 1 0 3h-3.996V27.5a1.5 1.5 0 0 1-3 0v-4.004h-4.004a1.5 1.5 0 0 1 0-3h4.004V16.5a1.5 1.5 0 0 1 1.5-1.5"/><path fill-rule="evenodd" d="M4.016 24.182q-.008-.245-.018-.484V12.972c0-1.6 0-2.4.126-3.065a7.25 7.25 0 0 1 5.784-5.781C10.575 4 11.375 4 12.975 4c.702 0 1.052 0 1.39.031a7.26 7.26 0 0 1 3.954 1.638c.26.216.508.463 1.004.959l.493.492a3.08 3.08 0 0 0 2.182.895c2.712 0 5.088.112 7.124.279 3.724.305 5.587.458 7.969 2.853s2.516 4.146 2.783 7.647a42 42 0 0 1 0 6.427c-.267 3.502-.4 5.252-2.783 7.647s-4.244 2.548-7.968 2.853a87 87 0 0 1-7.125.279c-2.713 0-5.09-.112-7.127-.28-3.722-.304-5.583-.457-7.965-2.852s-2.574-4.144-2.842-7.643a24 24 0 0 1-.048-1.043m2.999-.251c.012.366.026.756.05 1.065.141 1.851.278 2.791.521 3.576.195.628.529 1.26 1.447 2.182.896.9 1.542 1.246 2.231 1.457.854.261 1.891.36 3.853.522a84 84 0 0 0 6.881.269c2.63 0 4.924-.109 6.88-.27 1.962-.16 3-.26 3.854-.521.69-.211 1.336-.556 2.232-1.457.918-.923 1.252-1.555 1.447-2.183.243-.785.33-1.726.472-3.578a39 39 0 0 0 .115-2.985c0-1.04-.043-2.039-.115-2.986-.141-1.852-.229-2.793-.473-3.578-.194-.628-.528-1.26-1.446-2.183-.896-.9-1.542-1.246-2.232-1.457-.854-.261-1.892-.36-3.855-.522a84 84 0 0 0-6.879-.268 6.08 6.08 0 0 1-4.304-1.774l-.492-.492c-.535-.535-.67-.665-.798-.771a4.26 4.26 0 0 0-2.319-.96c-.165-.016-.353-.019-1.11-.019-1.737 0-2.19.013-2.51.074a4.25 4.25 0 0 0-3.393 3.39c-.06.322-.074.774-.074 2.51v10.5z"/></svg>