<svg xmlns="http://www.w3.org/2000/svg" viewBox="0 0 32 32"><path fill-rule="evenodd" d="M28.917 13.818c-.186-2.53-.278-3.796-2.016-5.546s-3.094-1.859-5.805-2.077A64 64 0 0 0 15.998 6a1.6 1.6 0 0 1-1.133-.466l-.6-.601c-.365-.365-.548-.547-.739-.706a5.33 5.33 0 0 0-2.907-1.204C10.37 3 10.113 3 9.598 3c-1.177 0-1.765 0-2.255.092A5.33 5.33 0 0 0 3.09 7.345c-.093.49-.093 1.078-.093 2.255v6.346c0 .76.03 1.545.081 2.238.186 2.53.279 3.795 2.017 5.544 1.737 1.75 3.092 1.859 5.802 2.076 1.461.118 3.162.196 5.1.196s3.638-.078 5.098-.195c2.711-.218 4.067-.327 5.805-2.077s1.83-3.015 2.016-5.546a30 30 0 0 0 0-4.364M21.5 16.001c0 .69-.56 1.25-1.25 1.25h-3v2.999a1.25 1.25 0 0 1-2.5 0v-2.999h-3a1.25 1.25 0 0 1 0-2.5h3V11.75a1.25 1.25 0 1 1 2.5 0v3.001h3c.69 0 1.25.56 1.25 1.25"/></svg>