<svg xmlns="http://www.w3.org/2000/svg" viewBox="0 0 17 17"><path d="M7.702 9.296H6.374a.797.797 0 1 1 0-1.594h1.328V6.374a.797.797 0 1 1 1.594 0v1.328h1.328a.797.797 0 1 1 0 1.594H9.296v1.328a.797.797 0 1 1-1.594 0z"/><path fill-rule="evenodd" d="M2.16 12.634c-.85-.845-.91-1.474-1.03-2.731a15 15 0 0 1-.068-1.43V4.8c0-.84 0-1.26.089-1.606a2.83 2.83 0 0 1 2.042-2.042c.346-.089.766-.089 1.606-.089.36 0 .54 0 .712.022.494.06.964.25 1.36.55.14.105.269.23.527.48.476.462.714.692.99.835.1.052.19.09.297.127.293.1.65.113 1.361.14q1.04.04 1.87.116c1.381.124 2.072.186 2.922 1.032.85.845.91 1.474 1.03 2.732a15 15 0 0 1 0 2.806c-.12 1.258-.18 1.887-1.03 2.732s-1.54.908-2.922 1.032c-.94.084-2.08.145-3.417.145-1.338 0-2.478-.06-3.417-.145-1.382-.124-2.072-.187-2.922-1.032m.496-4.158c0 .439.023.882.06 1.276.065.68.1.96.17 1.18.046.137.118.295.397.572.261.26.425.338.6.391.262.08.599.117 1.341.184.893.08 1.985.138 3.275.138s2.381-.058 3.274-.138c.743-.067 1.08-.104 1.342-.184.175-.053.339-.131.6-.39.279-.278.351-.436.396-.574.071-.22.106-.499.17-1.18a13.3 13.3 0 0 0 0-2.504c-.064-.681-.099-.96-.17-1.18-.045-.138-.117-.296-.396-.573-.261-.26-.425-.338-.6-.391-.263-.08-.6-.117-1.342-.184a34 34 0 0 0-1.786-.111l-.145-.006c-.56-.019-1.146-.04-1.67-.217a3.6 3.6 0 0 1-.52-.222c-.49-.255-.891-.645-1.268-1.012L6.29 3.26a6 6 0 0 0-.378-.354 1.24 1.24 0 0 0-.596-.24c-.053-.007-.118-.01-.517-.01-.938 0-1.109.012-1.21.039a1.24 1.24 0 0 0-.894.893c-.027.102-.04.273-.04 1.21z"/></svg>