<svg xmlns="http://www.w3.org/2000/svg" viewBox="0 0 32 32"><path d="M17.25 3.25a1.25 1.25 0 1 0-2.5 0v1.5a1.25 1.25 0 1 0 2.5 0zm0 24a1.25 1.25 0 1 0-2.5 0v1.5a1.25 1.25 0 1 0 2.5 0zM30 16c0 .69-.56 1.25-1.25 1.25h-1.5a1.25 1.25 0 1 1 0-2.5h1.5c.69 0 1.25.56 1.25 1.25M4.75 17.25a1.25 1.25 0 1 0 0-2.5h-1.5a1.25 1.25 0 1 0 0 2.5z"/><path fill-rule="evenodd" d="M8.03 14.82c.129-2.58.193-3.87 1.555-5.232s2.653-1.427 5.233-1.556a24 24 0 0 1 2.363 0c2.58.13 3.87.194 5.233 1.556s1.426 2.652 1.556 5.233a24 24 0 0 1 0 2.362c-.13 2.581-.194 3.871-1.556 5.233s-2.652 1.427-5.233 1.556a24 24 0 0 1-2.363 0c-2.58-.13-3.87-.194-5.233-1.556S8.16 19.764 8.03 17.183a24 24 0 0 1 0-2.362m6.913-4.29a21 21 0 0 1 2.113 0c1.375.068 2.068.113 2.596.244.373.093.633.221.994.582.36.36.49.621.582.994.13.528.176 1.22.245 2.596a21 21 0 0 1 0 2.112c-.07 1.376-.114 2.068-.245 2.596-.093.373-.221.634-.582.995-.36.36-.621.489-.994.581-.528.131-1.22.176-2.596.245a21 21 0 0 1-2.113 0c-1.375-.069-2.067-.114-2.595-.245-.373-.092-.634-.22-.995-.581-.36-.361-.489-.622-.582-.995-.13-.528-.176-1.22-.244-2.596a21 21 0 0 1 0-2.112c.068-1.375.113-2.068.245-2.596.092-.373.22-.634.581-.994.36-.361.622-.49.995-.582.528-.131 1.22-.176 2.595-.245"/><path d="M8.499 25a1.499 1.499 0 1 1-2.997 0 1.499 1.499 0 0 1 2.997 0M7 8.5a1.5 1.5 0 1 0 0-3 1.5 1.5 0 0 0 0 3M26.5 25a1.5 1.5 0 1 1-3 0 1.5 1.5 0 0 1 3 0M25 8.496a1.496 1.496 0 1 0 0-2.992 1.496 1.496 0 0 0 0 2.992"/></svg>