<svg xmlns="http://www.w3.org/2000/svg" viewBox="0 0 32 32"><path d="M17.25 3.25a1.25 1.25 0 1 0-2.5 0v1.5a1.25 1.25 0 1 0 2.5 0zm0 24a1.25 1.25 0 1 0-2.5 0v1.5a1.25 1.25 0 1 0 2.5 0zM30 16c0 .69-.56 1.25-1.25 1.25h-1.5a1.25 1.25 0 1 1 0-2.5h1.5c.69 0 1.25.56 1.25 1.25M4.75 17.25a1.25 1.25 0 1 0 0-2.5h-1.5a1.25 1.25 0 1 0 0 2.5zM8.499 25a1.499 1.499 0 1 1-2.997 0 1.499 1.499 0 0 1 2.997 0M7 8.5a1.5 1.5 0 1 0 0-3 1.5 1.5 0 0 0 0 3M26.5 25a1.5 1.5 0 1 1-3 0 1.5 1.5 0 0 1 3 0M25 8.496a1.496 1.496 0 1 0 0-2.992 1.496 1.496 0 0 0 0 2.992M9.585 9.588C8.223 10.95 8.16 12.24 8.03 14.82a24 24 0 0 0 0 2.362c.129 2.581.193 3.871 1.555 5.233s2.653 1.427 5.233 1.556a24 24 0 0 0 2.363 0c2.58-.13 3.87-.194 5.233-1.556s1.426-2.652 1.556-5.233a24 24 0 0 0 0-2.362c-.13-2.58-.194-3.871-1.556-5.233S19.762 8.16 17.18 8.032a24 24 0 0 0-2.363 0c-2.58.13-3.87.194-5.233 1.556"/></svg>