<svg xmlns="http://www.w3.org/2000/svg" viewBox="0 0 24 24"><path fill-rule="evenodd" d="M12 3c-1.55 0-2.902.068-4.055.168-2.024.176-3.036.263-4.326 1.557S2.25 6.99 2.087 8.93a25 25 0 0 0 0 4.14c.162 1.94.243 2.911 1.532 4.205s2.302 1.382 4.326 1.557c1.153.1 2.505.168 4.055.168h2c.548 0 1-.452 1-1 0-.547-.453-1-1-1h-2a45 45 0 0 1-3.882-.16c-1.079-.094-1.602-.149-2.022-.278-.312-.097-.613-.25-1.06-.699-.458-.46-.606-.755-.696-1.043-.123-.393-.173-.879-.26-1.916a23 23 0 0 1 0-3.808c.087-1.037.137-1.522.26-1.916.09-.288.238-.584.696-1.043.447-.449.748-.602 1.06-.699.42-.13.944-.184 2.022-.278C9.214 5.065 10.508 5 12 5s2.786.065 3.882.16c1.079.094 1.602.149 2.023.278.313.097.613.25 1.06.699.458.46.606.755.696 1.043.123.394.173.88.26 1.918q.037.438.057.902c.025.552.47 1 1.023 1a.97.97 0 0 0 .98-1 25 25 0 0 0-.067-1.068c-.162-1.942-.243-2.913-1.532-4.207s-2.302-1.382-4.328-1.557A47 47 0 0 0 12 3m-1 4a1 1 0 0 1 1 1v2h2a1 1 0 1 1 0 2h-2v2a1 1 0 1 1-2 0v-2H8a1 1 0 1 1 0-2h2V8a1 1 0 0 1 1-1m3 15H8a1 1 0 1 1 0-2h6a1 1 0 1 1 0 2m5-4.5c0 .82.04 1.981.089 2.479a4 4 0 0 0 .824 0C19.96 19.48 20 18.32 20 17.5s-.04-1.981-.087-2.479a4 4 0 0 0-.824 0C19.04 15.52 19 16.68 19 17.5m-2 0c0 1.15.073 2.528.149 3.13.054.434.081.652.3.888.22.236.416.276.81.355.348.07.773.127 1.242.127a6.3 6.3 0 0 0 1.242-.127c.393-.08.59-.12.809-.355.219-.236.246-.454.3-.889.076-.6.148-1.979.148-3.129s-.072-2.528-.147-3.13c-.055-.434-.082-.652-.301-.888-.22-.236-.416-.276-.81-.355A6.3 6.3 0 0 0 19.501 13c-.469 0-.894.056-1.242.127-.393.08-.59.119-.81.355-.219.236-.246.454-.3.889-.076.6-.149 1.98-.149 3.129"/></svg>