<svg xmlns="http://www.w3.org/2000/svg" viewBox="0 0 16 16"><path fill-rule="evenodd" d="M8 12h1.25c.415 0 .75-.361.75-.775s-.336-.725-.75-.725H8c-1.12 0-2.082-.047-2.884-.113-.74-.062-1.08-.097-1.348-.178-.186-.056-.365-.143-.646-.425-.3-.3-.38-.472-.426-.619-.07-.222-.101-.5-.155-1.172a12.4 12.4 0 0 1 0-1.986c.054-.672.084-.95.155-1.172.046-.147.126-.319.426-.62.28-.28.46-.368.646-.424.268-.081.609-.116 1.348-.178A35 35 0 0 1 8 3.5c1.12 0 2.081.047 2.883.113.74.062 1.08.097 1.35.178.185.056.365.144.645.425.3.3.38.473.427.619.07.222.1.501.155 1.173q.039.475.04.992v.22c0 .43.35.78.78.78.407 0 .735-.313.724-.72Q15 7.15 15 7q-.002-.582-.045-1.113c-.1-1.243-.15-1.864-1.015-2.73-.864-.867-1.554-.924-2.933-1.039A36 36 0 0 0 8 2c-1.162 0-2.165.048-3.008.118-1.378.115-2.067.172-2.932 1.038s-.914 1.488-1.015 2.73a14 14 0 0 0 0 2.228c.1 1.242.15 1.863 1.015 2.73.864.866 1.554.923 2.932 1.038.843.07 1.846.118 3.008.118m1.25 1.496h-3.5a.75.75 0 0 0 0 1.5h3.5a.75.75 0 0 0 0-1.5m3.32-.021a3.7 3.7 0 0 0 .86 0c.038-.37.07-.863.07-1.475s-.032-1.104-.07-1.475a3.7 3.7 0 0 0-.86 0c-.038.37-.07.863-.07 1.475s.032 1.104.07 1.475m-1.175 1.132c-.236-.245-.26-.459-.307-.887A16 16 0 0 1 11 12c0-.714.04-1.288.088-1.72.047-.428.07-.642.307-.887.235-.245.43-.275.818-.333a5.3 5.3 0 0 1 1.574 0c.388.058.583.088.818.333.236.245.26.459.307.887.048.432.088 1.006.088 1.72s-.04 1.288-.088 1.72c-.047.428-.07.642-.307.887-.235.245-.43.275-.818.333a5.3 5.3 0 0 1-1.574 0c-.389-.058-.583-.088-.818-.333M8 4.966a.75.75 0 1 0-1.5 0v1.25H5.25a.75.75 0 1 0 0 1.5H6.5v1.25a.75.75 0 1 0 1.5 0v-1.25h1.25a.75.75 0 1 0 0-1.5H8z"/></svg>