<svg xmlns="http://www.w3.org/2000/svg" viewBox="0 0 24 24"><path fill-rule="evenodd" d="M16.998 12V3.999a1 1 0 0 0-1-.999H8c-.553 0-1 .447-1 .999V12H3a1 1 0 1 0 0 2h1v3.112c0 1.618 0 2.427.539 3.004.538.576 1.302.628 2.83.732C8.611 20.933 10.172 21 12 21s3.388-.067 4.632-.152c1.527-.104 2.291-.156 2.83-.732.538-.577.538-1.386.538-3.004V14h1a1 1 0 1 0 0-2zM9 12h4V7L9 5zm-3 5.112V14h2v4.884a59 59 0 0 1-1.45-.104 5 5 0 0 1-.504-.067C6.004 18.408 6 17.967 6 17.112M12 19q-1.065 0-2-.028V14h4v4.972q-.935.027-2 .028m4-5v4.884a59 59 0 0 0 1.45-.104c.234-.023.392-.045.504-.067.041-.305.046-.746.046-1.601V14z"/></svg>