<svg xmlns="http://www.w3.org/2000/svg" viewBox="0 0 16 16"><path fill-rule="evenodd" d="M10.999 8V2.666A.666.666 0 0 0 10.333 2H5.666A.666.666 0 0 0 5 2.666V8H1.75a.75.75 0 0 0 0 1.5h.75v1.88c0 1.092 0 1.639.36 2.023.358.385.877.42 1.916.49.872.06 1.964.107 3.223.107 1.26 0 2.353-.048 3.225-.107 1.039-.07 1.558-.106 1.917-.49s.359-.93.359-2.024V9.5h.75a.75.75 0 0 0 0-1.5zM6.5 8H9V4.742L6.5 3.5zm.25 3.75a.75.75 0 0 1-1.5 0v-1.5a.75.75 0 0 1 1.5 0zm3.25.751a.75.75 0 0 0 .75-.75v-1.5a.75.75 0 0 0-1.5 0v1.5c0 .414.336.75.75.75"/></svg>