<svg xmlns="http://www.w3.org/2000/svg" viewBox="0 0 16 16"><path fill-rule="evenodd" d="M10.999 8V2.666A.666.666 0 0 0 10.333 2H5.666A.666.666 0 0 0 5 2.666V8H1.75a.75.75 0 0 0 0 1.5h.75v1.88c0 1.092 0 1.639.36 2.023.358.385.877.42 1.916.49.872.06 1.964.107 3.223.107 1.26 0 2.353-.048 3.225-.107 1.039-.07 1.558-.106 1.917-.49s.359-.93.359-2.024V9.5h.75a.75.75 0 0 0 0-1.5zM6.5 8H9V4.742L6.5 3.5zM9 9.5H7v2.99a48 48 0 0 0 2 0zm-3.5 0v2.934a44 44 0 0 1-1.268-.086 5 5 0 0 1-.215-.025 5 5 0 0 1-.012-.26A27 27 0 0 1 4 11.379V9.5zm5 0H12v1.88c0 .278 0 .496-.005.683a5 5 0 0 1-.012.26 5 5 0 0 1-.215.025c-.175.017-.38.03-.645.049q-.294.02-.623.037z"/></svg>