<svg xmlns="http://www.w3.org/2000/svg" viewBox="0 0 16 16"><path d="M3.488 3.499c.314-.002.637-.005.95.03.234.025.3.066.326.086a.6.6 0 0 1 .121.121c.02.027.061.093.087.326.027.247.028.58.028 1.104V7.75a.75.75 0 1 0 1.5 0V6h2v1.75a.75.75 0 1 0 1.5 0V5.143c0-.515 0-.966-.044-1.332-.047-.393-.153-.785-.435-1.126a1.86 1.86 0 0 0-1.032-.646.75.75 0 0 0-.989.711.75.75 0 0 0 .554.724l-.001.005c.16.029.21.065.235.084q.042.036.077.078c.024.029.071.097.101.347.017.14.025.305.03.512h-2a7 7 0 0 0-.033-.602c-.04-.363-.13-.728-.373-1.055a2 2 0 0 0-.433-.433c-.327-.243-.692-.333-1.055-.373-.373-.04-.765-.039-1.14-.037H3.25a.75.75 0 0 0 0 1.5z"/><path fill-rule="evenodd" d="M8.667 9.405a.752.752 0 0 0-1.333 0c-.349.674-1.004 1.098-1.72 1.098-.71 0-1.345-.417-1.698-1.098a.75.75 0 0 0-1.41.442q.03.614.076 1.144c.12 1.409.18 2.113.972 2.918.792.804 1.476.872 2.844 1.009.51.05 1.05.083 1.602.083s1.094-.032 1.603-.083c1.369-.137 2.053-.205 2.845-1.01.792-.804.852-1.508.971-2.917q.045-.53.076-1.144a.75.75 0 0 0-1.41-.442c-.353.681-.988 1.098-1.697 1.098-.717 0-1.372-.424-1.72-1.098"/></svg>