<svg xmlns="http://www.w3.org/2000/svg" viewBox="0 0 24 24"><path d="M5.24 5c.851 0 1.401.002 1.811.05.594.07.828.305.899.899.048.41.05.96.05 1.811V13a1 1 0 1 0 2 0v-3h3v3a1 1 0 1 0 2 0V7.703c0-.778 0-1.448-.064-1.99-.069-.578-.223-1.14-.624-1.625a3 3 0 0 0-.4-.4c-.485-.4-1.047-.555-1.625-.623A7 7 0 0 0 12 3.037a1 1 0 0 0-1 1c0 .552.448 1.008 1 1.008.616 0 .881.33.95.904.048.41.05 1.2.05 2.051h-3c0-.778 0-1.745-.064-2.287-.069-.578-.223-1.14-.624-1.625a3 3 0 0 0-.4-.4c-.485-.401-1.047-.555-1.625-.624C6.745 3 6.075 3 5.297 3H5a1 1 0 0 0 0 2zm.797 10.513A1 1 0 0 0 5.163 15c-.596 0-1.078.554-.988 1.15.198 2.278 1.009 4.673 3.409 5.421 1.376.429 2.982.43 4.415.43s3.04-.001 4.415-.43c2.38-.742 3.21-3.137 3.407-5.4A1.013 1.013 0 0 0 18.837 15a1 1 0 0 0-.873.513A2.9 2.9 0 0 1 15.42 17a2.92 2.92 0 0 1-2.548-1.487 1 1 0 0 0-1.746 0A2.92 2.92 0 0 1 8.579 17c-1.094 0-2.046-.6-2.542-1.487"/></svg>