<svg xmlns="http://www.w3.org/2000/svg" viewBox="0 0 24 24"><path d="M7.051 5.05C6.641 5.002 6.091 5 5.24 5H5a1 1 0 1 1 0-2h.298c.777 0 1.447 0 1.99.064.577.069 1.139.223 1.624.624a3 3 0 0 1 .4.4c.401.485.555 1.047.624 1.625C10 6.255 10 7.223 10 8h3c0-.851-.002-1.641-.05-2.051-.069-.574-.334-.904-.95-.904-.552 0-1-.456-1-1.008a1 1 0 0 1 1-1q.15.012.287.028c.578.068 1.14.222 1.625.624a3 3 0 0 1 .4.4c.401.485.555 1.046.624 1.624.064.542.064 1.212.064 1.99V13a1 1 0 1 1-2 0v-3h-3v3a1 1 0 1 1-2 0V7.76c0-.851-.002-1.401-.05-1.811-.07-.594-.305-.828-.899-.899"/><path fill-rule="evenodd" d="M5.163 15a1 1 0 0 1 .874.513A2.9 2.9 0 0 0 8.58 17a2.92 2.92 0 0 0 2.548-1.487 1 1 0 0 1 1.746 0A2.92 2.92 0 0 0 15.421 17c1.094 0 2.046-.6 2.542-1.487a1 1 0 0 1 .874-.513c.605 0 1.089.568.985 1.17-.197 2.264-1.029 4.66-3.408 5.401-1.375.429-2.983.43-4.415.43-1.433 0-3.039-.001-4.415-.43-2.4-.748-3.211-3.143-3.409-5.42A1.014 1.014 0 0 1 5.163 15m10.258 4c.592 0 1.16-.104 1.685-.296-.348.407-.768.796-1.287.958-1.094.34-2.533.34-3.689.34h-.372c-1.168.001-2.476.003-3.579-.34-.516-.161-.94-.553-1.287-.959A4.9 4.9 0 0 0 8.579 19a4.9 4.9 0 0 0 3.42-1.38A4.9 4.9 0 0 0 15.422 19"/></svg>