<svg xmlns="http://www.w3.org/2000/svg" viewBox="0 0 24 24"><path d="M14.5 5.249a1.75 1.75 0 1 1-3.5-.001 1.75 1.75 0 0 1 3.498 0m.522 1.749h5.328a1 1 0 1 1 0 1.999h-3.436l1.451 2.214c.24.364.275.803.136 1.182l1.249 1.733 2.197-1.464a1 1 0 0 1 1.11 1.663l-3 1.999a1 1 0 0 1-1.366-.248l-1.762-2.444L15 15.006v3.983a1 1 0 0 1-2 0v-4.497a1 1 0 0 1 .419-.813l2.312-1.65-.983-1.498-1.035 1.885a1 1 0 0 1-1.391.376l-2.21-1.324a.999.999 0 1 1 1.03-1.714l1.318.79 1.662-3.028a1 1 0 0 1 .897-.519"/><path d="m5.77 14.24-.586-.879-1.29.551a1 1 0 0 1-.636.05l-2-.499a1 1 0 1 1 .485-1.939l1.674.418 1.816-.775 1.569-4.422a1 1 0 0 1 1.885.668l-1.488 4.194.025.036 1.038 1.556c.245.367.282.812.14 1.196l1.173 1.596h2.145v1.999H9.067a1 1 0 0 1-.806-.408l-1.27-1.728-1.21 1.264-1.626 2.437a1 1 0 0 1-1.664-1.109l1.675-2.51a1 1 0 0 1 .11-.136z"/><path d="M3.75 10.495a1.75 1.75 0 1 0 0-3.499 1.75 1.75 0 0 0 0 3.499"/></svg>