<svg xmlns="http://www.w3.org/2000/svg" viewBox="0 0 17 17"><path d="M10.092 3.453a1.328 1.328 0 1 1-2.656 0 1.328 1.328 0 0 1 2.656 0M10.003 8.5l.432-.83.563.858-1.639 1.19a.8.8 0 0 0-.329.644v3.117a.797.797 0 1 0 1.594 0v-2.71l1.36-.987 1.19 1.589a.797.797 0 0 0 1.06.197l2.125-1.332a.797.797 0 1 0-.847-1.35l-1.503.943-.778-1.04a1.06 1.06 0 0 0-.12-.913l-.982-1.498h2.479a.797.797 0 1 0 0-1.593h-3.922a.8.8 0 0 0-.769.427l-.936 1.8-.867-.523a.797.797 0 0 0-.823 1.364l1.593.961a.797.797 0 0 0 1.119-.314"/><path d="m3.95 10.108-.344-.516-.814.348a.8.8 0 0 1-.551.028l-1.4-.439a.81.81 0 0 1-.575-.769c.005-.518.564-.904 1.051-.752l1.12.351 1.212-.518 1.185-3.08a.797.797 0 1 1 1.487.571L5.223 8.188l.731 1.097c.189.283.224.623.125.922l.734.948h1.69v1.593h-2.08a.8.8 0 0 1-.63-.308l-.837-1.08-.781.817-1.107 1.788a.797.797 0 1 1-1.355-.84l1.15-1.858a1 1 0 0 1 .103-.132z"/><path d="M2.39 7.437a1.328 1.328 0 1 0 0-2.656 1.328 1.328 0 0 0 0 2.656"/></svg>