<svg xmlns="http://www.w3.org/2000/svg" viewBox="0 0 17 17"><path d="M9.298 1.86a.797.797 0 1 0-1.594 0v1.593a.797.797 0 1 0 1.594 0z"/><path fill-rule="evenodd" d="M14.608 9.561h-.46l.022.085c.098.415.172.907.172 1.447v3.78a1.062 1.062 0 1 1-2.125 0v-.531H4.781v.531a1.062 1.062 0 0 1-2.125 0v-3.78A6.3 6.3 0 0 1 2.85 9.56h-.46a.797.797 0 0 1 0-1.593h1.283l.013-.042c.401-1.228.602-1.842 1.289-2.417.092-.078.247-.19.35-.254.76-.474 1.564-.474 3.174-.474s2.415 0 3.174.474c.103.064.258.176.35.254.688.575.888 1.189 1.289 2.416l.014.043h1.282a.797.797 0 0 1 0 1.593M8.496 7.968c-1.338 0-2.388.05-3.184.115.333-.995.43-1.139.685-1.352.037-.03.131-.099.172-.124.29-.182.566-.233 2.33-.233 1.763 0 2.04.051 2.33.233.04.025.135.094.172.124.255.213.352.357.685 1.352a40 40 0 0 0-3.19-.115m-2.122 3.187a.797.797 0 1 1-1.593 0 .797.797 0 0 1 1.593 0m1.328-.797a.797.797 0 0 0 0 1.594h1.594a.797.797 0 1 0 0-1.594zm4.515.797a.797.797 0 1 1-1.593 0 .797.797 0 0 1 1.593 0"/><path d="M4.201 1.658a.797.797 0 0 0-.419 1.046l.606 1.415a.797.797 0 1 0 1.465-.627l-.606-1.415a.797.797 0 0 0-1.046-.42m9.016 1.047a.797.797 0 1 0-1.465-.627l-.606 1.415a.797.797 0 1 0 1.465.627z"/></svg>