<svg xmlns="http://www.w3.org/2000/svg" viewBox="0 0 24 24"><path d="M13 3a1 1 0 1 0-2 0v2a1 1 0 1 0 2 0zm4.947-.394a1 1 0 0 1 .447 1.341l-1 2a1 1 0 1 1-1.789-.894l1-2a1 1 0 0 1 1.342-.447M5.606 3.947a1 1 0 0 1 1.789-.894l1 2a1 1 0 1 1-1.79.894z"/><path fill-rule="evenodd" d="m18.848 11.415.027.085H20.5a1 1 0 1 1 0 2h-.367q.087.208.14.437c.13.57.227 1.242.227 1.975v4.838a1.25 1.25 0 1 1-2.5 0V20H6v.75a1.25 1.25 0 1 1-2.5 0v-4.838c0-.734.098-1.407.228-1.978q.052-.227.139-.434H3.5a1 1 0 1 1 0-2h1.624l.028-.084c.578-1.769.867-2.653 1.927-3.48a5 5 0 0 1 .255-.186C8.45 7 9.634 7 12 7s3.549 0 4.665.75c.072.048.188.132.257.186 1.059.828 1.348 1.711 1.925 3.479m-2.017.269a58 58 0 0 0-4.834-.184c-2.033 0-3.631.082-4.828.183.51-1.537.667-1.801 1.14-2.172.031-.023.108-.08.14-.101C8.957 9.07 9.436 9 12 9s3.044.07 3.55.41c.032.021.11.078.14.102.474.37.63.634 1.14 2.172M8.5 16a1 1 0 1 1-2 0 1 1 0 0 1 2 0m9 0a1 1 0 1 1-2 0 1 1 0 0 1 2 0m-7-1a1 1 0 1 0 0 2h3a1 1 0 1 0 0-2z"/></svg>