<svg xmlns="http://www.w3.org/2000/svg" viewBox="0 0 44 44"><path fill-rule="evenodd" d="M22.236 24H13v7.5a1.5 1.5 0 1 1-3 0V14.885c0-1.647 0-2.47.188-3.145a5.11 5.11 0 0 1 3.552-3.552C14.414 8 15.237 8 16.884 8h5.352q.16 0 .317.002C27.198 8.042 31 11.435 31 16.08c0 4.56-3.73 7.857-8.29 7.916q-.234.003-.474.003M13 14.885V21h9.236q.22 0 .436-.003c3.154-.04 5.328-2.224 5.328-4.916 0-2.794-2.262-5.052-5.473-5.08h-5.643c-1.848 0-2.16.027-2.338.077a2.11 2.11 0 0 0-1.468 1.468c-.05.179-.078.49-.078 2.339M32.002 36.25q0-.13-.025-.25h3.295q.258 0 .508-.006c2.604-.06 4.722-1.89 4.722-4.494s-2.118-4.433-4.722-4.494a22 22 0 0 0-.508-.006h-1.77c-1.886 0-2.829 0-3.414.586-.586.586-.586 1.528-.586 3.414v2.5h-.75a1.25 1.25 0 0 0 0 2.5h.775q-.024.12-.025.25V37h-.75a1.25 1.25 0 0 0 0 2.5h.75v.75a1.25 1.25 0 1 0 2.5 0v-.75h4.25a1.25 1.25 0 0 0 0-2.5h-4.25zm3.27-2.75h-3.27V31c0-.481 0-.86.008-1.184q.005-.167.011-.297.13-.006.297-.01a50 50 0 0 1 1.184-.009h1.77q.228 0 .45.005c1.49.035 2.28.98 2.28 1.995s-.79 1.96-2.28 1.995q-.222.005-.45.005"/></svg>