<svg xmlns="http://www.w3.org/2000/svg" viewBox="0 0 24 24"><path fill-rule="evenodd" d="M11.992 13H7v4a1 1 0 1 1-2 0V7.872c0-.96 0-1.439.115-1.83a2.84 2.84 0 0 1 1.927-1.927C7.433 4 7.912 4 8.872 4h3.12l.244.001C14.85 4.031 17 5.931 17 8.545c0 2.568-2.108 4.413-4.675 4.452q-.164.003-.333.003M7 7.872V11h4.992q.152 0 .302-.002C13.94 10.972 15 9.856 15 8.545c0-1.369-1.111-2.525-2.787-2.544L11.993 6h-3.12c-.5 0-.802 0-1.03.012a1.5 1.5 0 0 0-.24.023.84.84 0 0 0-.568.567 2 2 0 0 0-.023.241C7 7.071 7 7.373 7 7.873M15.998 18.5v-1.393c0-.974 0-1.461.21-1.824.137-.239.335-.436.573-.574.363-.209.85-.209 1.824-.209h1.005c1.584.016 2.888 1.165 2.888 2.75s-1.304 2.734-2.889 2.75H17.5v.5h1.749a.75.75 0 1 1 0 1.5h-1.75v.256a.745.745 0 0 1-.75.744.745.745 0 0 1-.75-.744V22h-.25a.75.75 0 0 1 0-1.5h.25V20h-.25a.75.75 0 0 1 0-1.5zm3.597 0h-2.097v-1.393c0-.515.002-.8.02-1.006l.008-.073.073-.008c.205-.019.491-.02 1.006-.02h.99c.88.009 1.403.6 1.403 1.25s-.523 1.241-1.403 1.25"/></svg>