<svg xmlns="http://www.w3.org/2000/svg" viewBox="0 0 32 32"><path fill-rule="evenodd" d="M6.498 10.665c0-1.368 0-2.052.179-2.606a3.7 3.7 0 0 1 2.378-2.378c.554-.18 1.238-.18 2.606-.18h3.869l.15.001c3.48.02 6.318 2.579 6.318 6.06 0 3.418-2.784 5.904-6.2 5.938l-.268.002H9.003v5.248a1.25 1.25 0 1 1-2.5 0zm2.5 4.337v-4.337c0-.711 0-1.145.019-1.473a2 2 0 0 1 .039-.364c.118-.365.404-.65.768-.768.013-.004.103-.025.365-.04a32 32 0 0 1 1.472-.018h4.004c2.264.013 3.833 1.606 3.833 3.56 0 1.876-1.502 3.416-3.726 3.439H8.998M24.504 26H26a3.5 3.5 0 1 0 0-7h-3a2 2 0 0 0-2 2v3h-.5a1 1 0 0 0 0 2h.502v.5h-.5a1 1 0 0 0 0 2h.5v.5a1 1 0 1 0 2 0v-.5h2.5a1 1 0 0 0 0-2h-2.5V26zM23 21h3a1.5 1.5 0 0 1 0 3h-2.998v-.612L23 23.325z"/></svg>