<svg xmlns="http://www.w3.org/2000/svg" viewBox="0 0 17 17"><path fill-rule="evenodd" d="M4.637 2.763a2.11 2.11 0 0 0-1.343 1.343c-.107.323-.107.722-.107 1.521v.42l-.002.057v6.374a.797.797 0 0 0 1.594 0V9.561h3.868c1.967-.025 3.575-1.45 3.575-3.417 0-2.005-1.639-3.471-3.643-3.488H6.158c-.799 0-1.198 0-1.521.107m.144 5.205h3.67l.176-.001c1.218-.015 2.002-.846 2.002-1.823 0-1.024-.823-1.884-2.063-1.894H6.158c-.417 0-.665 0-.85.01a1.4 1.4 0 0 0-.177.018.52.52 0 0 0-.322.321 1.4 1.4 0 0 0-.017.177c-.01.186-.011.434-.011.851zm7.968 2.125c-.587 0-1.062.475-1.062 1.062v1.381h-.177a.637.637 0 0 0 0 1.275h.176v.531h-.176a.637.637 0 0 0 0 1.275h.176v.212a.637.637 0 1 0 1.275 0v-.212h1.278a.637.637 0 0 0 0-1.275h-1.278v-.531h1.647a1.86 1.86 0 1 0 0-3.719zm.212 1.274v1.169h1.647a.584.584 0 1 0 0-1.169z"/></svg>