<svg xmlns="http://www.w3.org/2000/svg" viewBox="0 0 16 16"><path d="M9.561 3.599C8.973 3.539 8.617 3.5 8 3.5c-.901 0-1.822.055-2.713.19-.618.094-.83.222-1.102.495-.302.301-.427.53-.524 1.316A20 20 0 0 0 3.495 8c0 .816.063 1.632.16 2.446.098.83.221 1.061.53 1.37.42.42.697.497 2.542.634.42.032.85.05 1.273.05s.852-.018 1.273-.05c1.845-.137 2.122-.214 2.542-.634s.498-.698.635-2.542c.046-.62.078-1.251.078-1.872 0-.511.311-.906.752-.906.48 0 .72.428.72.776V8c0 .466-.02.933-.054 1.385-.13 1.744-.195 2.616-1.07 3.491s-1.747.94-3.491 1.07C8.933 13.98 8.466 14 8 14s-.933-.02-1.385-.054c-1.744-.13-2.616-.195-3.491-1.07-.677-.677-.87-1.352-.982-2.43A24 24 0 0 1 2 8c0-.832.058-1.665.148-2.499.113-1.047.31-1.711.976-2.377.62-.62 1.237-.833 2.163-.95A21 21 0 0 1 8 2c.694 0 1.121.045 1.768.112.383.04.726.305.732.743.007.487-.394.799-.939.744"/><path d="M13.269 4.459a.75.75 0 0 0-1.06-1.061L8 7.606 6.285 5.891a.75.75 0 0 0-1.06 1.06L7.47 9.198a.75.75 0 0 0 1.06 0z"/></svg>