<svg xmlns="http://www.w3.org/2000/svg" viewBox="0 0 32 32"><path fill-rule="evenodd" d="M27.405 14.367a2.667 2.667 0 0 0-.187-3.564L21.195 4.78a2.667 2.667 0 0 0-3.563-.187l-5.312 4.3c-1.12.907-1.676 2.35-1.261 3.73.172.575.39 1.215.657 1.867a191 191 0 0 0-6.175 5.265c-2.02 1.803-2.048 4.92-.133 6.835 1.914 1.915 5.031 1.887 6.834-.134a191 191 0 0 0 5.263-6.175 20 20 0 0 0 1.87.66c1.38.414 2.823-.142 3.73-1.262zm-10.662 2.897 1.713.705c.563.232 1.124.423 1.638.577.264.08.7.014 1.068-.44l4.3-5.312a.167.167 0 0 0-.012-.223l-.702-.703-3.398 3.398a1.25 1.25 0 1 1-1.768-1.768L22.98 10.1l-1.082-1.082-3.398 3.397a1.25 1.25 0 1 1-1.767-1.768L20.13 7.25l-.703-.702a.17.17 0 0 0-.222-.012l-5.312 4.3c-.455.368-.52.804-.44 1.069.154.512.345 1.073.575 1.635l.705 1.713-1.434 1.172a189 189 0 0 0-6.093 5.195c-.905.808-.972 2.26-.03 3.202.94.941 2.393.875 3.2-.03a188 188 0 0 0 5.194-6.093z"/></svg>