<svg xmlns="http://www.w3.org/2000/svg" viewBox="0 0 44 44"><path fill-rule="evenodd" d="M17.093 12.525c-1.493 1.209-2.234 3.134-1.681 4.973.23.766.519 1.62.876 2.489a255 255 0 0 0-8.233 7.02c-2.693 2.403-2.73 6.558-.178 9.111s6.708 2.516 9.112-.178a254 254 0 0 0 7.017-8.232c.871.358 1.726.648 2.493.878 1.84.553 3.765-.188 4.973-1.681l5.733-7.083a3.555 3.555 0 0 0-.249-4.75l-8.03-8.03a3.555 3.555 0 0 0-4.75-.25zm5.999 11.562 2.056.846c.762.314 1.521.572 2.214.78.501.15 1.216-.001 1.779-.696l5.733-7.082a.555.555 0 0 0-.04-.742l-1.053-1.055-4.765 4.765a1.5 1.5 0 1 1-2.122-2.121l4.765-4.765-1.678-1.678-4.764 4.764a1.5 1.5 0 0 1-2.121-2.122l4.764-4.764-1.055-1.055a.555.555 0 0 0-.742-.039l-7.082 5.734c-.695.562-.847 1.277-.696 1.779.207.691.465 1.45.778 2.21l.845 2.056-1.72 1.407a252 252 0 0 0-8.135 6.935c-1.355 1.21-1.439 3.369-.054 4.753 1.384 1.385 3.543 1.3 4.752-.054a251 251 0 0 0 6.933-8.134z"/></svg>