<svg xmlns="http://www.w3.org/2000/svg" viewBox="0 0 16 16"><path fill-rule="evenodd" d="M8 3.501c-.424 0-.855.019-1.277.05-1.843.138-2.12.215-2.539.634s-.496.696-.634 2.54c-.03.421-.05.851-.05 1.275s.019.855.05 1.278c.138 1.843.215 2.12.634 2.539s.696.496 2.539.633c.422.032.853.05 1.277.05.425 0 .855-.018 1.278-.05 1.843-.137 2.12-.214 2.538-.633.42-.42.497-.696.634-2.54.032-.422.05-.852.05-1.277s-.018-.854-.05-1.277c-.137-1.843-.214-2.12-.634-2.539-.419-.419-.695-.496-2.538-.634C8.855 3.519 8.425 3.5 8 3.5m-4.877-.376c-.874.874-.939 1.745-1.069 3.487-.033.454-.054.922-.054 1.39s.02.935.054 1.388c.13 1.743.195 2.614 1.07 3.488.874.874 1.745.94 3.487 1.07.454.033.921.054 1.39.054.467 0 .935-.02 1.388-.055 1.743-.13 2.614-.195 3.488-1.069s.94-1.745 1.07-3.488c.033-.453.054-.92.054-1.389 0-.467-.021-.935-.055-1.389-.13-1.742-.195-2.613-1.069-3.487s-1.745-.94-3.488-1.07A19 19 0 0 0 8 2.002c-.468 0-.935.02-1.389.055-1.742.13-2.613.195-3.488 1.069m3.708 5.709c1.012 0 1.832-.858 1.832-1.917S7.843 5 6.83 5C5.82 5 5 5.858 5 6.917s.82 1.917 1.831 1.917m3.797-1.34a.38.38 0 0 0 .372-.39.38.38 0 0 0-.372-.39.38.38 0 0 0-.372.39c0 .215.166.39.372.39m-.298.56c0 .43-.333.78-.744.78-.412 0-.745-.35-.745-.78s.333-.779.745-.779c.41 0 .744.35.744.78M9.586 11c.493 0 .893-.419.893-.935s-.4-.935-.893-.935c-.494 0-.894.419-.894.935s.4.935.894.935"/></svg>