<svg xmlns="http://www.w3.org/2000/svg" viewBox="0 0 16 16"><path fill-rule="evenodd" d="M3.005 3.754a.75.75 0 0 1 .75-.75h8.496a.75.75 0 0 1 0 1.5H3.755a.75.75 0 0 1-.75-.75m1.25 9.249h-.5a.75.75 0 0 1 0-1.5h.5a.75.75 0 0 1 0 1.5M2 8c0-.414.366-.75.817-.75h.938c.451 0 .817.336.817.75s-.366.75-.817.75h-.938C2.366 8.75 2 8.414 2 8m6.023 5V8.465h1.424V7.3H5.44v1.165h1.424V13zm5.571-.43q.396-.429.396-1.23 0-.504-.215-.851-.215-.348-.695-.496.43-.174.597-.52.174-.348.174-.769 0-.702-.375-1.049Q13.101 7.3 12.4 7.3h-2.327V13H12.4q.798 0 1.194-.43m-1.083-4.138q.153.132.153.396v.215q0 .29-.153.43t-.43.14h-.869V8.291h.868q.278 0 .43.14m.125 2.263q.16.157.16.43v.272q0 .612-.653.612h-.93V10.53h.93q.333 0 .493.165"/></svg>