<svg xmlns="http://www.w3.org/2000/svg" viewBox="0 0 24 24"><path fill-rule="evenodd" d="M20.5 7.107c0-1.33-.832-2.33-1.836-2.808-.997-.474-2.284-.497-3.342.22-1.746 1.185-3.75 2.255-5.458 2.49-.625.086-1.479.118-2.366.117C5.1 7.124 3 9.011 3 11.5c0 2.23 1.687 3.978 3.764 4.315A1 1 0 0 0 6.75 16v3a1.25 1.25 0 1 0 2.5 0v-3l-.002-.072c.222.016.43.037.616.063 1.708.235 3.712 1.305 5.458 2.49 1.058.717 2.345.694 3.342.22 1.004-.478 1.836-1.477 1.836-2.808zm-4.055-.932c.39-.265.911-.283 1.36-.07.443.211.695.583.695 1.002v8.786c0 .42-.252.791-.695 1.002-.449.213-.97.195-1.36-.07-1.793-1.216-4.119-2.514-6.309-2.816-.764-.105-1.729-.136-2.64-.135C6.112 13.875 5 12.794 5 11.5c0-1.293 1.112-2.375 2.496-2.374.911 0 1.876-.03 2.64-.135 2.19-.302 4.516-1.6 6.31-2.816"/></svg>