<svg xmlns="http://www.w3.org/2000/svg" viewBox="0 0 16 16"><path fill-rule="evenodd" d="M13.65 4.8c0-.934-.59-1.628-1.288-1.956-.693-.326-1.591-.342-2.327.161-1.12.766-2.383 1.436-3.47 1.585-.388.054-.9.075-1.438.077-1.634.006-3.08 1.29-3.08 3 0 1.451 1.043 2.596 2.357 2.912l-.004.088v2a1 1 0 1 0 2 0v-1.944l.165.02c1.087.15 2.35.82 3.47 1.585.736.503 1.634.488 2.327.162.699-.328 1.288-1.023 1.288-1.956zm-2.768-.556c.235-.16.558-.176.842-.043.28.132.426.357.426.599v5.734c0 .242-.146.467-.426.598-.284.134-.607.118-.842-.042-1.162-.794-2.666-1.634-4.113-1.833a13 13 0 0 0-1.637-.09c-.885-.004-1.584-.692-1.584-1.5 0-.809.7-1.497 1.584-1.5.56-.002 1.15-.024 1.637-.09 1.447-.2 2.95-1.04 4.113-1.833"/></svg>