<svg xmlns="http://www.w3.org/2000/svg" viewBox="0 0 24 24"><path fill-rule="evenodd" d="M3 9.999c0-2.5 0-3.749.637-4.625.205-.283.454-.532.737-.737C5.25 4 6.5 4 9 4h1.355c2.832 0 4.248 0 5.562.783s1.896 1.858 3.061 4.01C20.485 11.577 22 15.097 22 18v.017c-.01.53-.452.974-.983.983H5c-.943 0-1.414 0-1.707-.293S3 17.943 3 17zm2 0c0-1.294.003-2.104.068-2.706.061-.564.157-.703.187-.743q.123-.171.295-.295c.04-.03.18-.126.744-.187C6.895 6.003 7.706 6 9 6h1.355c3.027 0 3.8.06 4.538.501.754.449 1.096.972 2.326 3.244 1.293 2.388 2.428 5.052 2.713 7.255H18.09q-.134-.289-.309-.645a40 40 0 0 0-.803-1.562c-1.165-2.152-1.747-3.227-3.06-4.01C12.602 10 11.186 10 8.354 10h-1.69q-.917-.002-1.665.007zm0 2.008V17h10.87a39 39 0 0 0-.65-1.255c-1.23-2.272-1.573-2.795-2.327-3.244-.739-.44-1.51-.501-4.538-.501h-1.69c-.63 0-1.177 0-1.665.007"/></svg>