<svg xmlns="http://www.w3.org/2000/svg" viewBox="0 0 32 32"><path fill-rule="evenodd" d="M4.498 13.102c0-3.06 0-4.591.738-5.688a4.3 4.3 0 0 1 1.176-1.176C7.509 5.5 9.039 5.5 12.1 5.5h1.76c3.683 0 5.524 0 7.232 1.018 1.708 1.017 2.466 2.416 3.98 5.213C27.032 15.35 29 19.926 29 23.7v.022A1.314 1.314 0 0 1 27.722 25H7.006c-1.135 0-1.706-.004-2.071-.328a1 1 0 0 1-.109-.108c-.328-.37-.328-.968-.328-2.164zm2.5 0c0-1.583.003-2.58.08-3.326.071-.703.187-.899.232-.966q.201-.297.498-.498c.067-.045.263-.16.966-.233C9.52 8.003 10.517 8 12.1 8h1.76c3.927 0 4.963.076 5.953.665 1.007.6 1.464 1.308 3.06 4.256 1.702 3.144 3.204 6.673 3.551 9.579h-2.507c-.127-.279-.28-.591-.454-.947a53 53 0 0 0-.992-1.923c-1.514-2.797-2.27-4.195-3.979-5.213-1.708-1.018-3.55-1.018-7.231-1.018H9.065q-1.132-.002-2.067.008zm0 2.806V22.5h14.145a51 51 0 0 0-.87-1.68c-1.596-2.947-2.053-3.655-3.06-4.255-.99-.59-2.026-.666-5.952-.666H9.065c-.775 0-1.455 0-2.067.009"/></svg>