<svg xmlns="http://www.w3.org/2000/svg" viewBox="0 0 16 16"><path d="M4.228 4.224A.74.74 0 0 0 3.7 4a.7.7 0 0 0-.524.229q-.236.255-.458.514C1.574 6.071 1.002 6.764 1.001 8s.57 1.926 1.712 3.255q.221.26.458.516a.7.7 0 0 0 .528.229.74.74 0 0 0 .525-.224.78.78 0 0 0 .007-1.069 19 19 0 0 1-.38-.43C2.643 8.872 2.5 8.595 2.5 8.002s.144-.874 1.354-2.279a19 19 0 0 1 .38-.429.78.78 0 0 0-.006-1.069"/><path d="M4.004 8.004c0-.67.314-1.033.921-1.736l.033-.038a.748.748 0 0 1 1.29.52.75.75 0 0 1-.125.415c-.067.101-.153.192-.238.283a3 3 0 0 0-.17.19 2 2 0 0 0-.179.247.23.23 0 0 0 0 .238c.029.05.08.124.177.245.053.067.114.13.174.193.085.09.17.178.236.278A.746.746 0 0 1 5.498 10a.75.75 0 0 1-.542-.229L4.91 9.72c-.596-.69-.907-1.05-.907-1.716M8.9 8a.9.9 0 1 1-1.8 0 .9.9 0 0 1 1.8 0m3.4-4a.74.74 0 0 0-.528.224.78.78 0 0 0-.006 1.07q.194.211.38.428c1.21 1.405 1.354 1.686 1.354 2.28 0 .592-.143.87-1.35 2.276q-.188.216-.38.43a.78.78 0 0 0 .006 1.068.74.74 0 0 0 .525.224.7.7 0 0 0 .528-.23q.236-.255.458-.515C14.429 9.926 15 9.237 14.999 8c-.001-1.236-.573-1.929-1.716-3.257q-.222-.259-.458-.514A.7.7 0 0 0 12.3 4"/><path d="M11.075 6.268c.607.703.92 1.066.92 1.736.001.666-.31 1.026-.906 1.716l-.045.051a.75.75 0 0 1-1.168-.932c.067-.1.152-.189.237-.278q.091-.093.174-.193c.097-.121.148-.196.177-.245a.23.23 0 0 0 0-.238 2 2 0 0 0-.18-.247 3 3 0 0 0-.17-.19 2 2 0 0 1-.237-.283.75.75 0 0 1 1.165-.935z"/></svg>