<svg xmlns="http://www.w3.org/2000/svg" viewBox="0 0 16 16"><path fill-rule="evenodd" d="M1.045 6.847c.108-1.453.162-2.18.892-2.91.729-.729 1.456-.783 2.909-.891.377-.028.765-.045 1.154-.045s.777.017 1.154.045c1.453.108 2.18.162 2.91.892.445.445.638.89.746 1.499l.397-.228c1.3-.745 2.1-1.206 2.688-1.209a.9.9 0 0 1 .476.122c.632.367.632 1.342.632 3.287v1.187c0 1.945 0 2.915-.632 3.282a.9.9 0 0 1-.476.122c-.588-.003-1.387-.46-2.688-1.204l-.397-.228c-.108.608-.302 1.052-.747 1.496-.729.73-1.456.784-2.909.892A16 16 0 0 1 6 13c-.389 0-.777-.017-1.154-.045-1.453-.108-2.18-.162-2.91-.892-.729-.729-.783-1.456-.891-2.909A16 16 0 0 1 1 8.001c0-.389.017-.777.045-1.154m3.912-2.305C5.303 4.516 5.654 4.5 6 4.5s.697.015 1.043.04c.774.059 1.165.093 1.46.17.207.053.332.12.5.287a.96.96 0 0 1 .287.5c.077.295.111.686.17 1.46.025.346.04.697.04 1.043s-.015.697-.04 1.043c-.059.774-.093 1.165-.17 1.46a.96.96 0 0 1-.287.5.96.96 0 0 1-.5.287c-.295.077-.686.111-1.46.17-.346.025-.697.04-1.043.04s-.697-.015-1.043-.04c-.774-.059-1.165-.093-1.46-.17a.96.96 0 0 1-.5-.287.96.96 0 0 1-.287-.5c-.077-.295-.111-.686-.17-1.46C2.516 8.698 2.5 8.347 2.5 8s.015-.697.04-1.043c.059-.774.093-1.165.17-1.46a.96.96 0 0 1 .287-.5.96.96 0 0 1 .5-.287c.295-.077.686-.111 1.46-.17m6.013 4.39.983.562c.698.4 1.168.664 1.518.83.03-.386.032-.923.032-1.728V7.409c0-.804-.003-1.347-.033-1.734-.35.167-.819.436-1.517.836l-.983.563Q11 7.533 11 8q0 .47-.03.93"/></svg>