<svg xmlns="http://www.w3.org/2000/svg" viewBox="0 0 44 44"><path fill-rule="evenodd" d="M20.092 33.756c-1.31.146-2.842.244-4.592.244s-3.28-.098-4.59-.243c-2.23-.248-3.346-.372-4.84-1.891-1.496-1.52-1.613-2.746-1.846-5.2A50 50 0 0 1 4 22c0-1.699.092-3.277.224-4.667.233-2.453.35-3.68 1.845-5.198 1.495-1.52 2.61-1.643 4.84-1.892A42 42 0 0 1 15.5 10c1.75 0 3.282.098 4.592.244 2.23.248 3.344.372 4.839 1.89 1.494 1.52 1.611 2.745 1.844 5.197.133 1.39.225 2.97.225 4.669 0 1.7-.092 3.278-.225 4.669-.233 2.452-.35 3.678-1.844 5.197s-2.61 1.642-4.84 1.89m9.683-7.087c-.046.483-.087.918-.135 1.317.802.364 1.64.73 2.36 1.014 1.164.459 2.688.966 3.909 1.355 1.12.356 2.28-.35 2.42-1.518.067-.551.129-1.176.171-1.837.14-2.2.14-7.8 0-10a33 33 0 0 0-.17-1.837c-.14-1.167-1.3-1.874-2.421-1.518-1.22.39-2.745.896-3.909 1.355-.72.284-1.558.65-2.36 1.014.048.4.09.834.135 1.317.133 1.39.225 2.97.225 4.669 0 1.7-.092 3.278-.225 4.669"/></svg>