<svg xmlns="http://www.w3.org/2000/svg" viewBox="0 0 24 24"><path d="M8.75 4.16c.95-.088 2.037-.141 2.782-.153l.4-.007c.113-.002.918.014 1.099.022.344.015.71.034.906.047.554.038.998.076 1.617.138.63.063 1.008.188 1.36.45.327.241.574.559.714.915.073.185.13.402.206.765.214 1.04.221 2.117.023 3.363-.028.175-.102.593-.126.71-.123.603-.316 1.002-.644 1.33-.318.32-.7.506-1.207.59-.26.042-.55.064-1.33.102-.645.03-.981.052-1.18.074-.088.01-.278.046-.296.055-.021.011-.04.131-.06.39a28 28 0 0 0-.01.624c-.006.519-.008.565-.022.63a1 1 0 0 1-1.58.596 1.05 1.05 0 0 1-.338-.46c-.055-.148-.056-.162-.06-.555-.007-.702.018-1.188.077-1.516.157-.871.689-1.444 1.542-1.658.362-.091.704-.125 1.828-.178.763-.036 1.065-.06 1.19-.096.027-.008.037-.016.048-.037.037-.075.077-.257.16-.722a12 12 0 0 0 .094-.636c.006-.035.034-.337.044-.483a9 9 0 0 0-.004-.948 6 6 0 0 0-.154-.978c-.045-.196-.054-.22-.086-.252-.023-.023-.04-.03-.087-.04-.182-.04-1.07-.124-1.837-.175a29 29 0 0 0-3.813 0 43 43 0 0 0-.871.066c-.634.059-.918.09-.993.11a.2.2 0 0 0-.107.107l-.049.177c-.043.159-.07.231-.12.317a1 1 0 0 1-.642.475.8.8 0 0 1-.224.018.8.8 0 0 1-.35-.056 1.01 1.01 0 0 1-.64-1.077 4 4 0 0 1 .153-.557 2.3 2.3 0 0 1 .343-.607c.072-.09.25-.263.352-.343.33-.26.664-.395 1.139-.459.104-.014.478-.053.753-.078M12 17a1.5 1.5 0 1 0 0 3 1.5 1.5 0 0 0 0-3"/></svg>