<svg xmlns="http://www.w3.org/2000/svg" viewBox="0 0 24 24"><path fill-rule="evenodd" d="M9 2a4 4 0 0 1 3 1.354 4 4 0 0 1 6.598 4.396c.557.364 1.49 1.33 1.78 1.855C21 10.732 21 11.32 21 12.5c0 1.398 0 2.097-.228 2.648a3 3 0 0 1-1.773 1.678 25 25 0 0 1-.083 2.201c-.137 1.575-1.306 2.798-2.88 2.93a12.5 12.5 0 0 1-2.071 0 3.1 3.1 0 0 1-1.965-.91 3.1 3.1 0 0 1-1.965.908 12.5 12.5 0 0 1-2.07 0c-1.575-.13-2.744-1.354-2.881-2.928a24 24 0 0 1-.084-2.2 3 3 0 0 1-1.772-1.678C3 14.596 3 13.897 3 12.5c0-1.179 0-1.768.622-2.895.29-.525 1.223-1.491 1.78-1.855A4 4 0 0 1 9 2m6 2a2 2 0 0 0-2 2c0 1.151.61 2.236 1.17 3.233l.208.372C15 10.732 15 11.32 15 12.5c0 1.398 0 2.097-.228 2.648A3 3 0 0 1 13 16.826V17c0 .717.031 1.335.076 1.855.057.653.5 1.062 1.055 1.108a10.5 10.5 0 0 0 1.738 0c.555-.046.998-.455 1.055-1.108.087-1.007.078-2.015.07-3.023l-.004-.453 1.393-.455c.413-.171.565-.507.593-.919.023-.334.024-.779.024-1.505 0-.633-.006-.887-.047-1.115-.185-1.039-1.117-1.735-1.953-2.29-.263-.174-.525-.349-.797-.51-.364-.214-.616-.363-.616-.563 0-.075.12-.15.291-.258.28-.176.696-.436.935-.917A2 2 0 0 0 16.999 6 2 2 0 0 0 15 4m-4.007 2.175a2 2 0 1 0-3.806.67c.238.482.654.743.935.92.17.107.291.182.291.257 0 .2-.252.349-.616.563-.272.161-.534.337-.797.51-.843.558-1.767 1.243-1.953 2.29-.041.228-.047.482-.047 1.115 0 .726.001 1.17.024 1.505.028.412.18.748.593.919l1.393.455-.003.452c-.01 1.009-.018 2.017.07 3.024.056.653.499 1.062 1.054 1.108a10.5 10.5 0 0 0 1.738 0c.556-.046.998-.455 1.055-1.108.087-1.007.078-2.015.07-3.023l-.004-.453 1.393-.455a1 1 0 0 0 .54-.541c.004-.008.034-.094.053-.378.023-.334.024-.779.024-1.505 0-.633-.006-.887-.047-1.115-.186-1.047-1.11-1.732-1.953-2.29-.263-.173-.525-.349-.797-.51-.364-.214-.616-.363-.616-.563 0-.075.12-.15.291-.258.28-.176.696-.436.935-.917.096-.206.159-.431.18-.672"/></svg>