<svg xmlns="http://www.w3.org/2000/svg" viewBox="0 0 16 16"><path d="M5.498 1a2 2 0 0 0-1.094 3.675q-.103.038-.225.087c-.582.239-1.624 1.255-1.877 1.832-.278.63-.284.907-.298 1.459Q2 8.203 2 8.35c0 .979 0 1.468.16 1.854a2.1 2.1 0 0 0 1.136 1.136q.097.04.204.068v.091c0 .944.054 1.678.113 2.2.068.607.467 1.12 1.07 1.228a4.6 4.6 0 0 0 1.63 0c.603-.108 1.002-.62 1.07-1.228.06-.522.113-1.256.113-2.2v-.091q.108-.028.204-.068a2.1 2.1 0 0 0 1.136-1.136c.16-.386.16-.875.16-1.854q0-.15-.004-.298c-.013-.552-.02-.828-.297-1.46C8.441 6.016 7.399 5 6.817 4.762a6 6 0 0 0-.225-.088A2 2 0 0 0 5.498 1"/><path d="M8.982 12.335a20 20 0 0 1-.108 1.533 3 3 0 0 1-.077.416c.184.33.491.573.885.644a4.6 4.6 0 0 0 1.631 0c.603-.108 1.001-.62 1.07-1.228.059-.522.113-1.256.113-2.2v-.091q.107-.028.203-.068a2.1 2.1 0 0 0 1.137-1.136c.16-.386.16-.875.16-1.854q0-.15-.004-.298c-.014-.552-.02-.828-.298-1.46-.253-.576-1.295-1.592-1.878-1.83a6 6 0 0 0-.225-.088A2 2 0 0 0 10.498 1 1.5 1.5 0 0 0 9 2.5V3c0 1.005.568 2.046.861 2.585a5 5 0 0 1 .558 1.509c.058.329.065.636.071.883q.006.21.006.418c0 .452 0 .863-.024 1.207a3.7 3.7 0 0 1-.25 1.177 3.6 3.6 0 0 1-1.24 1.556"/></svg>