<svg width="44" height="44" viewBox="0 0 44 44" fill="none" xmlns="http://www.w3.org/2000/svg">
<g clip-path="url(#clip0_28728_8213)">
<path d="M29.7559 10.207C26.2539 6.70508 24.1455 5.01063 23.2094 4.4531C22.58 4.11703 21.54 4.00009 20.6436 4.00005L20.0515 4L20.0162 4.00002L19.5986 4L19.6001 4.00307C18.8797 4.01286 18.1914 4.04574 17.5375 4.09608C14.863 4.30197 13.5257 4.40492 11.1858 6.69517C8.84587 8.98543 8.69164 10.5495 8.38317 13.6777C8.15793 15.9618 8 18.738 8 22C8 24.7127 8.11192 27.0893 8.27916 29.1264C8.58474 32.8488 8.73754 34.7099 11.1333 37.0922C13.5291 39.4745 15.2799 39.6083 18.7814 39.8759C19.7996 39.9537 20.8773 40 22 40C23.1228 40 24.2005 39.9537 25.2188 39.8759C28.7202 39.6083 30.4708 39.4745 32.8666 37.0923C35.2624 34.71 35.4152 32.8489 35.7208 29.1267C35.8881 27.0896 36 24.7128 36 22C36 20.5088 36.0352 17.6289 35.5508 16.7773C35.4846 16.661 35.3615 16.5887 35.214 16.3981C34.4247 15.3781 32.7065 13.1577 29.7559 10.207Z" fill="url(#paint0_linear_28728_8213)"/>
<path d="M25.7501 27.6124L26.5149 28.0505C27.6991 28.7289 28.4079 29.1443 28.933 29.1257C29.0721 29.1208 29.1978 29.0858 29.3153 29.0177C29.8762 28.6926 29.8762 27.8242 29.8762 26.098V23.1588C29.8762 21.4326 29.8762 20.5582 29.3153 20.2331C29.1978 20.165 29.0721 20.13 28.933 20.1251C28.4079 20.1065 27.6991 20.528 26.5149 21.2063L25.7509 21.6439C25.8157 22.0889 25.845 22.5407 25.8746 22.9958L25.8889 23.2135C25.9194 23.6688 25.9384 24.1444 25.9384 24.6254C25.9384 25.1064 25.9194 25.582 25.8889 26.0373L25.8746 26.255C25.8449 26.712 25.8154 27.1656 25.7501 27.6124Z" fill="white"/>
<path d="M14.1706 23.3263C14.2822 21.662 14.3379 20.8298 15.1751 19.9985C15.2798 19.8946 15.3836 19.8029 15.4883 19.7218C16.2214 19.1546 16.9963 19.108 18.3739 19.0253C18.6425 19.0092 18.9152 19 19.1879 19C19.4605 19 19.7332 19.0092 20.0019 19.0253C21.5763 19.1198 22.3635 19.1671 23.2006 19.9985C24.0378 20.8298 24.0936 21.662 24.2051 23.3263C24.2086 23.3794 24.212 23.4326 24.2152 23.486C24.2375 23.8598 24.2507 24.2426 24.2507 24.6254C24.2507 25.0629 24.2335 25.5004 24.2051 25.9245C24.0936 27.5888 24.0378 28.421 23.2006 29.2523C22.3635 30.0837 21.5763 30.131 20.0019 30.2255C19.7332 30.2416 19.4605 30.2508 19.1879 30.2508C18.9152 30.2508 18.6425 30.2416 18.3739 30.2255C18.2755 30.2196 18.1801 30.2139 18.0877 30.2081C16.7009 30.122 15.9599 30.0317 15.1751 29.2523C14.3379 28.421 14.2822 27.5888 14.1706 25.9245C14.1422 25.5004 14.125 25.0629 14.125 24.6254C14.125 24.1879 14.1422 23.7504 14.1706 23.3263Z" fill="white"/>
<path d="M35.5711 16.8017C33.6427 11.4327 27.987 6.3383 23.168 4.42969C25.506 7.51031 24.457 12.8831 25.7983 14.2243C27.4018 15.8278 32.868 14.6089 35.5711 16.8017Z" fill="#95DAF5"/>
</g>
<defs>
<linearGradient id="paint0_linear_28728_8213" x1="1.50692" y1="7.5" x2="43.1298" y2="15.9379" gradientUnits="userSpaceOnUse">
<stop stop-color="#49DBFB"/>
<stop offset="1" stop-color="#0E4FCE"/>
</linearGradient>
<clipPath id="clip0_28728_8213">
<rect width="44" height="44" fill="white"/>
</clipPath>
</defs>
</svg>
