<svg width="32" height="32" viewBox="0 0 32 32" fill="none" xmlns="http://www.w3.org/2000/svg">
<g clip-path="url(#clip0_28728_8218)">
<path d="M21.541 7.48286C19.04 4.95367 17.5343 3.7299 16.8657 3.32724C16.4163 3.08452 15.6735 3.00006 15.0333 3.00003L14.6105 3L14.5852 3.00001L14.287 3L14.2881 3.00221C13.7736 3.00929 13.282 3.03304 12.815 3.06939C10.905 3.21809 9.94995 3.29244 8.27883 4.94652C6.60772 6.60059 6.49757 7.7302 6.27727 9.98943C6.11641 11.6391 6 13.6441 6 16C6 17.9381 6.07824 19.6387 6.19556 21.0994C6.41325 23.8095 6.5221 25.1645 8.27174 26.9023C10.0214 28.6401 11.2861 28.7331 13.8157 28.919C14.5091 28.97 15.2401 29 16 29C16.7599 29 17.491 28.97 18.1844 28.919C20.7139 28.7331 21.9786 28.6401 23.7282 26.9023C25.4778 25.1646 25.5867 23.8096 25.8044 21.0996C25.9217 19.6389 26.0008 17.9382 26.0008 16C26.0008 14.923 26.0255 12.8431 25.6796 12.2281C25.6323 12.144 25.5444 12.0918 25.4391 11.9542C24.8754 11.2175 23.6483 9.6139 21.541 7.48286Z" fill="url(#paint0_linear_28728_8218)"/>
<path d="M18.9087 20.082L19.4649 20.4006C20.3262 20.8939 20.8417 21.1961 21.2236 21.1825C21.3248 21.1789 21.4162 21.1535 21.5016 21.104C21.9095 20.8675 21.9095 20.236 21.9095 18.9805V16.843C21.9095 15.5875 21.9095 14.9516 21.5016 14.7152C21.4162 14.6656 21.3248 14.6402 21.2236 14.6366C20.8417 14.6231 20.3262 14.9296 19.4649 15.4229L18.9093 15.7412C18.9564 16.0649 18.9778 16.3934 18.9993 16.7244L19.0097 16.8827C19.0319 17.2138 19.0456 17.5597 19.0456 17.9096C19.0456 18.2594 19.0319 18.6053 19.0097 18.9364L18.9993 19.0947C18.9777 19.4271 18.9562 19.757 18.9087 20.082Z" fill="white"/>
<path d="M10.3066 16.9648C10.3878 15.7544 10.4283 15.1492 11.0372 14.5445C11.1133 14.4689 11.1888 14.4023 11.265 14.3433C11.7981 13.9308 12.3616 13.8969 13.3635 13.8368C13.5589 13.825 13.7572 13.8184 13.9555 13.8184C14.1538 13.8184 14.3521 13.825 14.5475 13.8368C15.6925 13.9055 16.265 13.9399 16.8739 14.5445C17.4827 15.1492 17.5233 15.7544 17.6044 16.9648C17.607 17.0033 17.6095 17.042 17.6118 17.0809C17.628 17.3528 17.6376 17.6312 17.6376 17.9096C17.6376 18.2277 17.6251 18.5459 17.6044 18.8543C17.5233 20.0648 17.4827 20.67 16.8739 21.2746C16.2651 21.8792 15.6925 21.9136 14.5475 21.9824C14.3521 21.9941 14.1538 22.0008 13.9555 22.0008C13.7572 22.0008 13.5589 21.9941 13.3635 21.9824C13.292 21.9781 13.2226 21.9739 13.1554 21.9697C12.1468 21.9071 11.6079 21.8414 11.0372 21.2746C10.4283 20.67 10.3878 20.0648 10.3066 18.8543C10.286 18.5459 10.2734 18.2277 10.2734 17.9096C10.2734 17.5914 10.286 17.2732 10.3066 16.9648Z" fill="white"/>
<path d="M25.6958 12.2459C24.3186 8.36828 20.2795 4.68899 16.8379 3.31055C18.5076 5.53544 17.7585 9.41576 18.7164 10.3844C19.8616 11.5425 23.7653 10.6622 25.6958 12.2459Z" fill="#95DAF5"/>
</g>
<defs>
<linearGradient id="paint0_linear_28728_8218" x1="1.36189" y1="5.52778" x2="31.1193" y2="11.4942" gradientUnits="userSpaceOnUse">
<stop stop-color="#49DBFB"/>
<stop offset="1" stop-color="#0E4FCE"/>
</linearGradient>
<clipPath id="clip0_28728_8218">
<rect width="32" height="32" fill="white"/>
</clipPath>
</defs>
</svg>
