<svg xmlns="http://www.w3.org/2000/svg" viewBox="0 0 24 24"><path d="M10 1a1 1 0 0 0 0 2h4a1 1 0 1 0 0-2z"/><path fill-rule="evenodd" d="M3.081 10.923c.195-2.616.292-3.924 1.605-5.237s2.62-1.41 5.237-1.605C10.6 4.031 11.3 4 12 4s1.399.03 2.077.081c2.616.195 3.924.292 5.237 1.605s1.41 2.62 1.605 5.237C20.969 11.6 21 12.3 21 13s-.03 1.399-.081 2.077c-.195 2.616-.292 3.924-1.605 5.237s-2.62 1.41-5.237 1.605C13.4 21.969 12.7 22 12 22s-1.399-.03-2.077-.081c-2.616-.195-3.924-.292-5.237-1.605s-1.41-2.62-1.605-5.237A28 28 0 0 1 3 13c0-.7.03-1.399.081-2.077M11 12.957V9a1 1 0 1 1 2 0v3.588l1.707 1.705a1 1 0 0 1-1.414 1.415l-2-2a1 1 0 0 1-.293-.751"/></svg>