<svg xmlns="http://www.w3.org/2000/svg" viewBox="0 0 24 24"><path d="M10 1a1 1 0 0 0 0 2h4a1 1 0 1 0 0-2zm1 11.957V9a1 1 0 1 1 2 0v3.588l1.707 1.705a1 1 0 0 1-1.414 1.415l-2-2a1 1 0 0 1-.293-.751"/><path fill-rule="evenodd" d="M4.686 5.686c-1.313 1.313-1.41 2.62-1.605 5.237C3.031 11.6 3 12.3 3 13s.03 1.399.081 2.077c.195 2.616.292 3.924 1.605 5.237s2.62 1.41 5.237 1.605C10.6 21.969 11.3 22 12 22s1.399-.03 2.077-.081c2.616-.195 3.924-.292 5.237-1.605s1.41-2.62 1.605-5.237C20.969 14.4 21 13.7 21 13s-.03-1.399-.081-2.077c-.195-2.616-.292-3.924-1.605-5.237s-2.62-1.41-5.237-1.605A28 28 0 0 0 12 4c-.7 0-1.399.03-2.077.081-2.616.195-3.924.292-5.237 1.605M12 6c-.642 0-1.292.028-1.929.076-2.75.204-3.265.318-3.97 1.024-.707.706-.82 1.22-1.025 3.971A26 26 0 0 0 5 13c0 .642.028 1.292.076 1.929.204 2.75.318 3.265 1.024 3.97.706.707 1.22.82 3.971 1.025.637.048 1.287.076 1.929.076s1.292-.028 1.929-.076c2.75-.204 3.265-.318 3.97-1.024.707-.706.82-1.22 1.025-3.971.048-.637.076-1.287.076-1.929s-.028-1.292-.076-1.929c-.204-2.75-.318-3.265-1.024-3.97-.706-.707-1.22-.82-3.971-1.025A26 26 0 0 0 12 6"/></svg>