<svg xmlns="http://www.w3.org/2000/svg" viewBox="0 0 16 16"><path d="M6.754.5a.75.75 0 0 0 0 1.5H9.25a.75.75 0 0 0 0-1.5z"/><path fill-rule="evenodd" d="M3.124 4.124c-.875.875-.94 1.747-1.07 3.491C2.02 8.067 2 8.534 2 9s.02.933.054 1.385c.13 1.744.195 2.616 1.07 3.491s1.747.94 3.491 1.07C7.067 14.98 7.534 15 8 15s.933-.02 1.385-.054c1.744-.13 2.616-.195 3.491-1.07s.94-1.747 1.07-3.491C13.98 9.933 14 9.466 14 9s-.02-.933-.054-1.385c-.13-1.744-.195-2.616-1.07-3.491s-1.747-.94-3.491-1.07A19 19 0 0 0 8 3c-.466 0-.933.02-1.385.054-1.744.13-2.616.195-3.491 1.07m4.345 5.407a.75.75 0 0 1-.219-.56V6.75a.75.75 0 0 1 1.5 0v1.94l1.03 1.03a.75.75 0 0 1 0 1.06.75.75 0 0 1-1.06 0z"/></svg>