<svg xmlns="http://www.w3.org/2000/svg" viewBox="0 0 32 32"><path fill-rule="evenodd" d="M20.804 6.676C21.45 6.724 22 7.27 22 7.928V10.5h2.147c.437 0 .83.149 1.122.292.31.152.616.354.903.572.575.438 1.17 1.015 1.702 1.62a13 13 0 0 1 1.417 1.921c.343.583.709 1.347.709 2.078q0 .13-.026.255-.031.796-.094 1.537c-.177 2.096-.28 3.325-1.26 4.639a1.25 1.25 0 0 1-1.059.586h-.774a3.752 3.752 0 0 1-7.074 0h-2.927a3.752 3.752 0 0 1-6.036 1.545A3.752 3.752 0 0 1 4.713 24H4.39a.786.786 0 0 1-.784-.627c-.057-.3-.111-.632-.171-1.007a34 34 0 0 1-.437-5.37c0-2.04.196-3.882.437-5.371.264-1.64.396-2.46 1.308-3.358.912-.897 1.737-1.016 3.387-1.254 1.915-.276 4.542-.518 7.869-.518 1.81 0 3.411.072 4.805.181M12 22.75a1.25 1.25 0 1 0 2.5 0 1.25 1.25 0 0 0-2.5 0m-2.5 0a1.25 1.25 0 1 0-2.5 0 1.25 1.25 0 0 0 2.5 0m12.5-.012a1.25 1.25 0 1 1 0 .024zm0-3.525V13h1.998l.59 2.955A1.3 1.3 0 0 0 25.863 17h1.618q-.028.811-.092 1.565c-.114 1.35-.181 1.999-.345 2.527a2.5 2.5 0 0 1-.222.515A3.75 3.75 0 0 0 22 19.213"/></svg>