<svg xmlns="http://www.w3.org/2000/svg" viewBox="0 0 44 44"><path fill-rule="evenodd" d="M29.815 10.363a1.5 1.5 0 0 1 1.183 1.466v3.213h2.9c1.093 0 2.134.505 2.977 1.083.876.6 1.717 1.401 2.443 2.256a14.5 14.5 0 0 1 1.854 2.748c.457.9.828 1.929.828 2.896q0 .102-.013.2-.034.615-.08 1.205c-.263 3.24-.402 4.958-2.35 7.092-.275.319-.683.52-1.136.52h-.858A5.001 5.001 0 0 1 28.414 33h-5.832a5 5 0 0 1-8.084 1.57A5 5 0 0 1 6.414 33H5.93a1.18 1.18 0 0 1-1.18-.96c-.058-.327-.116-.68-.179-1.067A43.6 43.6 0 0 1 3.998 24c0-2.634.255-5.02.573-6.973.367-2.25.55-3.376 1.822-4.618 1.27-1.24 2.42-1.4 4.717-1.719 2.65-.368 6.286-.69 10.888-.69 2.787 0 5.219.118 7.293.293.172.015.523.07.523.07M15.997 31a2 2 0 1 0 4 0 2 2 0 0 0-4 0m-1.5-3.57a4.98 4.98 0 0 0-3.5-1.43c-1.53 0-2.9.688-3.817 1.77A40 40 0 0 1 6.998 24c0-2.444.237-4.667.534-6.49.198-1.212.298-1.765.443-2.182.095-.27.202-.468.514-.772.305-.298.507-.404.792-.495.434-.139 1.007-.228 2.242-.4 2.516-.349 6.013-.661 10.475-.661 2.245 0 4.246.08 6 .202V30h-5.1a5.002 5.002 0 0 0-8.4-2.57m-1.5 3.57a2 2 0 1 0-4 0 2 2 0 0 0 4 0m18-4.584v-8.374H33.5l.749 4.48a1.8 1.8 0 0 0 1.775 1.503h2.969q-.03.594-.077 1.163c-.148 1.824-.238 2.749-.478 3.518a4 4 0 0 1-.572 1.148 5.002 5.002 0 0 0-6.868-3.438m0 4.584a2 2 0 1 0 4 0 2 2 0 0 0-4 0"/></svg>