<svg xmlns="http://www.w3.org/2000/svg" viewBox="0 0 17 17"><path fill-rule="evenodd" d="M1.062 9.062v-.063c.002-1.097.109-2.09.24-2.9.152-.933.228-1.399.752-1.912S3.052 3.608 4 3.475c1.095-.153 2.597-.288 4.499-.288.843 0 1.607.027 2.292.07a1 1 0 0 1 .12.017c.43.012.775.364.775.797v1.244h1.518c1.01 0 1.834.747 2.335 1.409.514.679.928 1.581.928 2.327q0 .027-.002.053l-.007.23a13 13 0 0 1-.064 1.15c-.085.74-.144 1.263-.341 1.729a.8.8 0 0 1-.754.535h-.56a2.392 2.392 0 0 1-4.51 0h-.803a2.392 2.392 0 0 1-3.848.985 2.392 2.392 0 0 1-3.855-1.004.49.49 0 0 1-.358-.39l-.062-.377a18.4 18.4 0 0 1-.24-2.9m3.719 2.847v.083a.797.797 0 1 1 0-.083m1.594.083v-.083a.798.798 0 1 1 0 .083m-.797-1.824a2.38 2.38 0 0 0-1.593-.609c-.48 0-.928.142-1.303.386q-.026-.443-.026-.915c0-1.008.098-1.925.22-2.676.039-.24.067-.414.097-.562a2 2 0 0 1 .07-.283.4.4 0 0 1 .037-.08.6.6 0 0 1 .089-.103.6.6 0 0 1 .102-.084.4.4 0 0 1 .085-.036c.057-.018.144-.04.292-.066.152-.027.329-.052.573-.087 1.024-.143 2.452-.272 4.278-.272q.855 0 1.593.034v6.34h-.665a2.392 2.392 0 0 0-3.849-.987m6.108-.473V6.91h1.518l.041.002.145 1.453c.038.38.358.67.74.67h.74l-.009.276c-.009.35-.019.719-.05.993-.04.345-.07.591-.099.779a2.39 2.39 0 0 0-3.026-1.387m0 2.255a.797.797 0 1 0 1.595 0 .797.797 0 0 0-1.595 0"/></svg>