<svg xmlns="http://www.w3.org/2000/svg" viewBox="0 0 16 16"><path fill-rule="evenodd" d="M8 3.5c-.424 0-.855.019-1.277.05-1.843.138-2.12.215-2.539.634s-.496.695-.634 2.539c-.03.422-.05.852-.05 1.277s.019.855.05 1.277c.138 1.844.215 2.12.634 2.539s.696.496 2.539.634c.422.031.853.05 1.277.05.425 0 .855-.019 1.278-.05 1.843-.138 2.12-.215 2.538-.634.084-.083.153-.161.213-.246.207-.297.487-.571.849-.571.476 0 .854.435.677.876a2.9 2.9 0 0 1-.678 1.002c-.874.874-1.745.939-3.488 1.069C8.936 13.98 8.468 14 8 14s-.935-.02-1.389-.054c-1.742-.13-2.613-.195-3.488-1.07-.874-.873-.939-1.745-1.069-3.487A19 19 0 0 1 2 8c0-.468.02-.936.054-1.389.13-1.742.195-2.613 1.07-3.488.874-.874 1.745-.939 3.487-1.069.454-.033.921-.054 1.39-.054.467 0 .935.02 1.388.054 1.743.13 2.614.195 3.488 1.07.32.319.53.637.676.998.179.442-.2.877-.676.877-.362 0-.642-.274-.85-.57a2 2 0 0 0-.21-.245c-.42-.42-.696-.496-2.54-.634C8.856 3.52 8.426 3.5 8 3.5m5 2.499a.75.75 0 0 1 .75.75v.45h.5a.75.75 0 1 1 0 1.5h-.5v.55a.75.75 0 0 1-1.5 0v-.55h-.5a.75.75 0 1 1 0-1.5h.5v-.45a.75.75 0 0 1 .75-.75m-7.52-.04-.852.672v.978l.852-.696v3.186h1.002v-4.14zm2.898.834q.114-.114.384-.114.258 0 .378.102.12.096.12.324v.132a.45.45 0 0 1-.156.354q-.15.132-.384.246l-.498.234q-.27.12-.504.312-.228.192-.384.486-.15.288-.15.732v.498h3.114v-.864H8.306a.53.53 0 0 1 .186-.336 2 2 0 0 1 .378-.252q.222-.114.474-.228.252-.12.462-.282a1.5 1.5 0 0 0 .348-.402q.144-.24.144-.6 0-.342-.102-.582a.94.94 0 0 0-.3-.39 1.2 1.2 0 0 0-.48-.216 3 3 0 0 0-.654-.066q-.348 0-.63.072-.282.066-.486.222-.198.15-.312.408-.114.252-.132.618h1.032q.03-.3.144-.408"/></svg>