<svg xmlns="http://www.w3.org/2000/svg" viewBox="0 0 16 16"><path fill-rule="evenodd" d="M8.51 7.045a3.4 3.4 0 0 0 4.612 1.485 3.485 3.485 0 0 0 1.502-4.657 3.4 3.4 0 0 0-4.612-1.485 3.485 3.485 0 0 0-1.501 4.657M7.142 5.467a69 69 0 0 0-2.57 1.94c-.947.768-2.47 2.173-3.187 2.842a1.21 1.21 0 0 0-.221 1.49c.295.509.915.727 1.464.507.581-.232 1.536-.616 2.429-.985a.86.86 0 0 0 .259.429.86.86 0 0 0 .43.254v2.307a.75.75 0 0 0 1.5 0v-2.307a.86.86 0 0 0 .43-.254c.268-.266.281-.453.306-.826a6.5 6.5 0 0 0-.003-.938c.424-.222.842-.45 1.214-.656l.027-.015a4.45 4.45 0 0 1-2.08-3.788"/></svg>