<svg xmlns="http://www.w3.org/2000/svg" viewBox="0 0 44 44"><path fill-rule="evenodd" d="M25.478 17.99a6.046 6.046 0 0 0 8.2 2.644c3.001-1.559 4.197-5.27 2.67-8.29a6.046 6.046 0 0 0-8.2-2.643c-3.002 1.558-4.198 5.27-2.67 8.29m2.814 5.97a9 9 0 0 0 6.74-.649c4.472-2.323 6.253-7.852 3.978-12.35a9.01 9.01 0 0 0-12.216-3.937 9.22 9.22 0 0 0-4.843 6.69 248 248 0 0 0-3.277 2.283c-2.043 1.447-4.585 3.295-6.508 4.854-2.327 1.884-5.368 4.657-7.036 6.2a3.526 3.526 0 0 0-.541 4.537l.055.083a3.425 3.425 0 0 0 3.934 1.364c1.562-.518 4.21-1.419 6.602-2.354.083.219.22.422.461.662.437.433.786.525 1.35.578V37.5a1.5 1.5 0 1 0 3 0v-5.58c.566-.053.915-.145 1.352-.578.523-.518.553-.867.612-1.566q.038-.425.039-.944c0-.44-.024-.883-.06-1.305a143 143 0 0 0 2.664-1.45 178 178 0 0 0 3.694-2.119m-3.122-1.652a9 9 0 0 1-2.355-2.935 9.2 9.2 0 0 1-.757-2.092c-.497.345-1.066.744-1.678 1.178-2.033 1.44-4.509 3.242-6.353 4.736-2.24 1.816-5.217 4.527-6.886 6.071a.49.49 0 0 0-.07.63l.055.084a.466.466 0 0 0 .536.192c2.061-.682 5.877-1.99 8.494-3.14 2.149-.945 4.835-2.377 7.01-3.59a174 174 0 0 0 2.004-1.134"/></svg>