<svg xmlns="http://www.w3.org/2000/svg" viewBox="0 0 24 24"><path fill-rule="evenodd" d="M17.688 17.39a6.4 6.4 0 0 0 1.1-.737 9 9 0 0 0 .865-.865C21 14.134 21 12.922 21 10.5s0-3.634-1.347-5.288a9 9 0 0 0-.864-.865C17.134 3 15.923 3 13.5 3S9.866 3 8.212 4.347a9 9 0 0 0-.865.865 6.4 6.4 0 0 0-.736 1.1c-.766.202-1.406.56-2.073 1.226-1.394 1.394-1.438 2.673-1.525 5.23a22 22 0 0 0 0 1.464c.087 2.557.13 3.836 1.525 5.23 1.394 1.394 2.673 1.438 5.23 1.525a22 22 0 0 0 1.464 0c2.557-.087 3.836-.13 5.23-1.525.666-.666 1.024-1.306 1.226-2.072m.284-2.722.107-.115.023-.027c.497-.61.676-1.039.771-1.5.118-.57.127-1.25.127-2.526s-.009-1.957-.127-2.526c-.095-.461-.274-.89-.771-1.5l-.023-.026-.067-.073a9 9 0 0 0-.46-.453l-.026-.024c-.61-.497-1.039-.676-1.5-.771C15.457 5.009 14.776 5 13.5 5s-1.957.009-2.526.127c-.46.095-.89.274-1.5.771l-.026.024-.115.106.435-.015a22 22 0 0 1 1.464 0c2.557.087 3.836.13 5.23 1.525 1.394 1.394 1.438 2.673 1.525 5.23a22 22 0 0 1 0 1.464zM12.5 13.5c0-.433-.481-.726-1.443-1.312l-.416-.253c-.731-.445-1.18-.676-1.512-.685a.5.5 0 0 0-.27.066c-.359.206-.359.725-.359 1.849v.67c0 1.124 0 1.643.359 1.849a.5.5 0 0 0 .27.066c.332-.009.78-.24 1.512-.685l.416-.253c.962-.586 1.443-.879 1.443-1.312"/></svg>