<svg xmlns="http://www.w3.org/2000/svg" viewBox="0 0 17 17"><path d="M13.597 5.311q-.087-.302-.192-.593c-.388-1.09-.582-1.634-1.262-2.114s-1.412-.48-2.874-.48h-.487c-1.462 0-2.193 0-2.874.48-.39.276-.62.572-.819.98a.797.797 0 1 0 1.419.726l.057-.111a.75.75 0 0 1 .262-.292c.084-.06.178-.108.435-.143.322-.043.749-.046 1.52-.046h.487c.771 0 1.198.003 1.52.046.258.035.351.083.435.143a.75.75 0 0 1 .262.292c.105.19.204.453.4 1.004a119 119 0 0 1 .832 2.138.797.797 0 1 0 1.55-.372l-.034-.17h.427a.744.744 0 0 0 0-1.488z"/><path fill-rule="evenodd" d="M12.343 8.436q.104.292.191.594h1.064a.744.744 0 0 1 0 1.487h-.427c.063.289.104.62.104 1.003v2.556a.797.797 0 0 1-1.593 0v-.266H4.245v.266a.797.797 0 0 1-1.593 0V11.52c0-.383.042-.714.104-1.003h-.419a.744.744 0 1 1 0-1.488h1.055q.087-.301.191-.593c.388-1.089.583-1.634 1.263-2.113s1.411-.48 2.873-.48h.488c1.462 0 2.193 0 2.873.48s.874 1.024 1.263 2.113m-4.624-1c-.77 0-1.197.004-1.52.047-.257.034-.35.083-.435.142a.75.75 0 0 0-.262.292c-.107.196-.21.469-.418 1.054l-.057.166A37 37 0 0 1 7.96 9.03c1.214 0 2.192.048 2.938.107l-.057-.166c-.21-.585-.31-.858-.418-1.054a.75.75 0 0 0-.262-.292c-.085-.06-.178-.108-.436-.142-.322-.043-.748-.046-1.52-.046zm-3.307 3.36c.726-.081 1.902-.173 3.549-.173s2.826.092 3.553.174a.4.4 0 0 1 .092.02c.043.193.076.428.076.703v.697H4.245v-.697c0-.275.033-.51.076-.703a.4.4 0 0 1 .091-.02"/></svg>