<svg xmlns="http://www.w3.org/2000/svg" viewBox="0 0 24 24"><path d="M8.808 3.645c-.915.645-1.176 1.377-1.698 2.842q-.162.45-.29.916c1.122-.41 2.315-.407 3.53-.404l.322.001h.976c1.646-.005 3.25-.009 4.696 1.01 1.21.854 1.726 1.901 2.136 2.99h.02c.546 0 1.058.146 1.5.401v-.767c0-.607-.081-1.163-.19-1.634h.69a1 1 0 1 0 0-2h-1.44a14 14 0 0 0-.172-.513c-.522-1.465-.783-2.197-1.698-2.842S15.293 3 13.327 3h-.655c-1.966 0-2.95 0-3.864.645"/><path fill-rule="evenodd" d="M16.89 12.487q.09.254.172.513H18.5a1 1 0 1 1 0 2h-.689c.108.471.189 1.027.189 1.634V20a1 1 0 1 1-2 0v-.5H6v.5a1 1 0 1 1-2 0v-3.366c0-.607.081-1.163.189-1.634H3.5a1 1 0 1 1 0-2h1.438q.082-.26.172-.513c.522-1.465.784-2.197 1.698-2.842C7.723 9 8.706 9 10.672 9h.656c1.966 0 2.949 0 3.864.645s1.175 1.377 1.698 2.842M7.96 11.28c.29-.205.538-.28 2.712-.28h.656c2.174 0 2.421.075 2.711.28.198.14.29.25.395.44.151.276.292.653.57 1.434A47 47 0 0 0 10.997 13c-1.688 0-3.013.069-4 .153.277-.78.418-1.157.569-1.433.104-.19.197-.3.395-.44"/></svg>