<svg xmlns="http://www.w3.org/2000/svg" viewBox="0 0 44 44"><path fill-rule="evenodd" d="M32.901 4.667a1.6 1.6 0 0 1 .225 1.888L26.075 19h6.212c1.243 0 2.176 1.498 1.227 2.626-.445.53-1.955 2.32-3.708 4.315a1.49 1.49 0 0 1-2.177.066 1.51 1.51 0 0 1-.063-2.062c.604-.687 1.179-1.35 1.69-1.945H24.5c-1.226 0-2.75-1.5-1.5-3.5l4.78-8.595a68 68 0 0 0-4.501 3.266c-.894.713-2.308 2.075-3.284 3.037a1.54 1.54 0 0 1-2.167 0 1.466 1.466 0 0 1-.01-2.087c1.153-1.14 3.149-3.015 5.321-4.621 3.39-2.506 6.8-4.536 7.796-5.117.71-.414 1.511-.2 1.966.284m-26.46 5.27a1.5 1.5 0 0 1 2.122.004l25.4 25.5a1.5 1.5 0 1 1-2.126 2.118l-6.625-6.652c-4.173 3.974-10.7 7.866-12.146 8.71a1.59 1.59 0 0 1-1.966-.285 1.6 1.6 0 0 1-.224-1.889l7.053-12.417L11.707 25c-1.242-.005-2.166-1.501-1.22-2.626.372-.443 1.492-1.77 2.876-3.363l-6.926-6.953a1.5 1.5 0 0 1 .004-2.122m9.045 11.206q-.394.454-.751.87h1.617zm5.094 5.114-4.348 7.83c2.266-1.518 4.875-3.42 6.862-5.306z"/></svg>