<svg xmlns="http://www.w3.org/2000/svg" viewBox="0 0 32 32"><path fill-rule="evenodd" d="M23.922 5.025a1.35 1.35 0 0 0-.243-1.608 1.34 1.34 0 0 0-1.665-.172 75 75 0 0 0-5.404 3.797 39 39 0 0 0-3.102 2.71 1.22 1.22 0 0 0 .004 1.742 1.287 1.287 0 0 0 1.807.006c.564-.55 1.26-1.214 1.681-1.565.8-.666 1.648-1.318 2.464-1.916L16.5 13.5C15.8 15 17 16 18 16h2.524l-.193.253a1.27 1.27 0 0 0 .105 1.665c.53.53 1.402.48 1.857-.115a92 92 0 0 0 1.61-2.168c.673-.935-.05-2.135-1.096-2.135h-3.461zM9.695 14.213l-4.329-4.33a1.25 1.25 0 1 1 1.768-1.767l16.75 16.75a1.25 1.25 0 0 1-1.768 1.768l-3.994-3.994c-2.828 2.674-6.999 5.39-8.136 6.115a1.34 1.34 0 0 1-1.665-.172 1.35 1.35 0 0 1-.242-1.607l4.576-8.476H9.194c-1.047 0-1.77-1.2-1.098-2.135.234-.325.831-1.15 1.599-2.152m1.784 1.784-.003.003h.006zm3.486 3.486-2.428 4.498c1.299-.953 2.683-2.043 3.817-3.11z"/></svg>