<svg xmlns="http://www.w3.org/2000/svg" viewBox="0 0 24 24"><path fill-rule="evenodd" d="M17.713 3.81a1.098 1.098 0 0 0-1.633-1.376 75 75 0 0 0-2.58 1.994c-.745.603-2.277 2.066-3.189 2.947a1 1 0 0 0-.008 1.427 1.007 1.007 0 0 0 1.409.015l2.423-2.323L12.5 10c-.5 1.5.5 2 1 2h1.52a9 9 0 0 1-.369.425.926.926 0 0 0 .05 1.297c.426.415 1.12.37 1.493-.095l.545-.677.003-.003c.447-.554.825-1.023.958-1.207.543-.755-.032-1.74-.894-1.74h-2.188zM4.55 5.415a1 1 0 0 0-1.257 1.542l3.982 3.982a74 74 0 0 0-.975 1.32c-.543.756.032 1.74.894 1.74h2.188l-3.095 6.19a1.098 1.098 0 0 0 1.633 1.377c.911-.672 3.63-2.717 5.457-4.525l3.666 3.666a1 1 0 0 0 1.414-1.414L4.707 5.543a1 1 0 0 0-.157-.128m7.413 10.212-.833-.833-1.265 2.712a34 34 0 0 0 2.098-1.879"/></svg>