<svg xmlns="http://www.w3.org/2000/svg" viewBox="0 0 16 16"><path fill-rule="evenodd" d="M11.694 2.286a.76.76 0 0 0-1.147-.885c-.136.095-.788.553-1.594 1.219-.54.446-1.544 1.476-2.147 2.107A.74.74 0 0 0 6.82 5.76c.304.303.8.289 1.086-.03.37-.412.817-.905.924-1.006q.286-.269.569-.515L8.5 6.75c-.3.75-.15 1.5.662 1.5h.471a.2.2 0 0 0-.018.04c-.098.273.033.57.264.744a.754.754 0 0 0 1.066-.17 69 69 0 0 1 .446-.621 9 9 0 0 0 .242-.341.758.758 0 0 0-.65-1.152h-.912zM4.72 7.53l-2.5-2.5a.75.75 0 0 1 1.06-1.06l8.75 8.75a.75.75 0 1 1-1.06 1.06l-2.09-2.09c-1.44 1.512-3.194 2.747-3.427 2.909a.76.76 0 0 1-1.147-.885L5.929 9.25h-.911a.761.761 0 0 1-.651-1.152c.03-.05.159-.262.353-.567m2.516 2.515L6.6 11.791a18 18 0 0 0 1.22-1.161z"/></svg>