<svg xmlns="http://www.w3.org/2000/svg" viewBox="0 0 16 16"><path fill-rule="evenodd" d="M11 11.992q.124.008.25.008A3.75 3.75 0 0 0 14 5.7a3.75 3.75 0 0 0-7.502.003A3.75 3.75 0 0 0 9.5 11.992V14H11zm1.507-5.695L12.5 5.72a2.25 2.25 0 0 0-4.502.001l-.007.578-.392.423A2.25 2.25 0 0 0 9.5 10.486v-.925l-.781-.78a.75.75 0 0 1 .78-1.238V5.75a.75.75 0 0 1 1.5 0v4.737q.123.012.25.013a2.25 2.25 0 0 0 1.65-3.78z"/><path d="M1.75 7.5a.75.75 0 0 1 .75.75V10h2.25a.75.75 0 0 1 .75.75v2.5a.75.75 0 0 1-1.5 0V11.5H2.365l-.38 1.897a.75.75 0 1 1-1.47-.294L1 10.676V8.25a.75.75 0 0 1 .75-.75"/></svg>