<svg xmlns="http://www.w3.org/2000/svg" viewBox="0 0 32 32"><path fill-rule="evenodd" d="M21.25 23.96q.37.04.75.04a7 7 0 0 0 5-11.899V11a7 7 0 0 0-14 0v1.1a7 7 0 0 0 5.75 11.86V28h2.5zm3.25-10.838V11a4.5 4.5 0 0 0-9 0v2.122l-.714.729a4.5 4.5 0 0 0 3.964 7.587v-1.92l-2.384-2.384a1.25 1.25 0 0 1 1.768-1.768l.616.616V10.75a1.25 1.25 0 1 1 2.5 0v10.688q.365.061.75.062a4.5 4.5 0 0 0 3.215-7.65z"/><path d="M4.25 15c.69 0 1.25.56 1.25 1.25V20h3.75c.69 0 1.25.56 1.25 1.25v5.5a1.25 1.25 0 0 1-2.5 0V22.5H5.205l-1.249 4.579a1.25 1.25 0 1 1-2.412-.658L3 21.083V16.25c0-.69.56-1.25 1.25-1.25"/></svg>