<svg xmlns="http://www.w3.org/2000/svg" viewBox="0 0 44 44"><path fill-rule="evenodd" d="M29 32.882q.735.117 1.5.118a9.5 9.5 0 0 0 6.446-16.479Q37 16.018 37 15.5a9.5 9.5 0 1 0-18.945 1.021A9.5 9.5 0 0 0 26 32.882V38h3zm4.803-15.18.16-1.5Q34 15.857 34 15.5a6.5 6.5 0 1 0-12.962.702l.16 1.5-1.107 1.022A6.5 6.5 0 0 0 26 29.827v-3.705l-3.561-3.56a1.5 1.5 0 0 1 2.121-2.122L26 21.88V14.5a1.5 1.5 0 0 1 3 0v15.327q.72.171 1.5.173a6.5 6.5 0 0 0 4.41-11.276z"/><path d="M5.5 21A1.5 1.5 0 0 1 7 22.5V28h5.5a1.5 1.5 0 0 1 1.5 1.5v7a1.5 1.5 0 0 1-3 0V31H6.632l-1.69 5.912a1.5 1.5 0 1 1-2.884-.824L4 29.29V22.5A1.5 1.5 0 0 1 5.5 21"/></svg>