<svg xmlns="http://www.w3.org/2000/svg" viewBox="0 0 32 32"><path fill-rule="evenodd" d="M14 5.25c0-.69.56-1.25 1.25-1.25h3.515c1.11 0 2.097.71 2.45 1.763l3.432 10.25q.174-.012.353-.012a5 5 0 1 1-2.724.806l-.98-2.926-3.517 5.628a2.674 2.674 0 0 1-2.535 4.435l-3.715-.826a5.001 5.001 0 1 1 .24-3.622l2.149-.478-4.669-7.528-.907.398a1.333 1.333 0 0 1-1.82-.862l-.514-1.842A.933.933 0 0 1 6.907 8h4.843a1.25 1.25 0 1 1 0 2.5h-.173l4.425 7.135 4.266-6.826-1.424-4.252a.08.08 0 0 0-.08-.057H15.25c-.69 0-1.25-.56-1.25-1.25M9.5 21a2.5 2.5 0 1 1-5.002 0A2.5 2.5 0 0 1 9.5 21m17.999 0a2.5 2.5 0 1 1-5 0 2.5 2.5 0 0 1 5 0"/></svg>