<svg xmlns="http://www.w3.org/2000/svg" viewBox="0 0 24 24"><path d="M13.428 12a1.5 1.5 0 1 1-3 0 1.5 1.5 0 0 1 3 0"/><path fill-rule="evenodd" d="M12.002 2a1 1 0 0 1 1 1v1.57a7.5 7.5 0 0 1 4.937 2.848l1.358-.784a1 1 0 0 1 1 1.732l-1.355.782c.363.88.563 1.845.563 2.857 0 1.008-.2 1.97-.56 2.849l1.352.78a1 1 0 1 1-1 1.732l-1.353-.78a7.5 7.5 0 0 1-4.942 2.853V21a1 1 0 1 1-2 0v-1.562a7.5 7.5 0 0 1-4.938-2.855l-1.356.783a1 1 0 1 1-1-1.732l1.356-.783a7.5 7.5 0 0 1-.56-2.846c0-1.01.2-1.975.563-2.854l-1.359-.785a1 1 0 1 1 1-1.732l1.361.786a7.5 7.5 0 0 1 4.933-2.849V3a1 1 0 0 1 1-1m3.426 10a3.5 3.5 0 1 1-7 0 3.5 3.5 0 0 1 7 0"/></svg>