<svg xmlns="http://www.w3.org/2000/svg" viewBox="0 0 16 16"><path d="M9 8a1 1 0 1 1-2 0 1 1 0 0 1 2 0"/><path fill-rule="evenodd" d="M8.001 1a.75.75 0 0 1 .75.75v1.306a5 5 0 0 1 3.156 1.823l1.132-.653a.75.75 0 1 1 .75 1.299l-1.131.653a5 5 0 0 1 0 3.644l1.132.654a.75.75 0 1 1-.75 1.299l-1.133-.654a5 5 0 0 1-3.156 1.823v1.306a.75.75 0 0 1-1.5 0v-1.306a5 5 0 0 1-3.157-1.822l-1.13.653a.75.75 0 0 1-.75-1.3l1.129-.651A5 5 0 0 1 3 8c0-.644.122-1.259.343-1.824l-1.129-.651a.75.75 0 1 1 .75-1.3l1.13.653a5 5 0 0 1 3.157-1.822V1.75a.75.75 0 0 1 .75-.75m2.5 7A2.5 2.5 0 1 1 5.5 8a2.5 2.5 0 0 1 5 0"/></svg>