<svg xmlns="http://www.w3.org/2000/svg" viewBox="0 0 16 16"><path fill-rule="evenodd" d="M8 10a2 2 0 1 0 0-4 2 2 0 0 0 0 4m0-1.32a.68.68 0 1 0 0-1.36.68.68 0 0 0 0 1.36"/><path fill-rule="evenodd" d="M8.001 1a.75.75 0 0 1 .75.75v1.306a5 5 0 0 1 3.156 1.823l1.132-.653a.75.75 0 1 1 .75 1.299l-1.131.653a5 5 0 0 1 0 3.644l1.132.654a.75.75 0 1 1-.75 1.299l-1.133-.654a5 5 0 0 1-3.156 1.823v1.306a.75.75 0 0 1-1.5 0v-1.306a5 5 0 0 1-3.157-1.822l-1.13.653a.75.75 0 0 1-.75-1.3l1.129-.651A5 5 0 0 1 3 8c0-.644.122-1.259.343-1.824l-1.129-.651a.75.75 0 1 1 .75-1.3l1.13.653a5 5 0 0 1 3.157-1.822V1.75a.75.75 0 0 1 .75-.75M11.5 8a3.5 3.5 0 1 1-7 0 3.5 3.5 0 0 1 7 0"/></svg>