<svg xmlns="http://www.w3.org/2000/svg" viewBox="0 0 24 24"><path fill-rule="evenodd" d="M18.026 5.566c-.252-1.033-.78-1.865-1.253-2.49a1.51 1.51 0 0 0-1.16-.576 1.4 1.4 0 0 0-.906.34c-1.037.85-2.464 2.328-2.848 4.487-.103.58-.195 1.147-.277 1.69-1.676.077-3.25.28-4.57.77L5.895 7.553a1 1 0 0 0-1.79.894l1.184 2.366q-.076.082-.141.171C4.763 11.504 4.133 12.67 3.8 15c-.292 2.04-.591 3.74-.784 4.803A1.015 1.015 0 0 0 4.01 21H5.8c.638 0 1.185-.108 1.603-.233a2.2 2.2 0 0 0 1.364-1.21c.178-.386.378-.906.545-1.556h2.69v2a1 1 0 0 0 1 1h2q.189 0 .369-.012c1.483-.096 2.422-1.436 2.529-2.919.058-.813.103-1.837.103-3.07v-1.49c1.586-.33 3.394-.705 4.415-1.607.445-.394.582-1.573.582-2.167 0-1.45-.96-2.173-2.28-2.773a31 31 0 0 1-2.694-1.397M19.897 11c.458-.15.781-.302 1.007-.451A3.4 3.4 0 0 0 21 9.736c0-.135-.02-.246-.112-.346-.131-.141-.408-.34-.996-.607-1.241-.565-2.427-1.231-3.606-1.914-.18-.737-.349-1.438-.76-2.089-.754.712-1.48 1.675-1.698 2.897a79 79 0 0 0-.33 2.055l3.305 1.984c1.034-.215 2.089-.39 3.094-.716m-3.894 2.568-4.26-2.556c-1.89.087-3.435.34-4.485.839a1.45 1.45 0 0 0-.73.71c-.227.45-.544 1.293-.749 2.722A127 127 0 0 1 5.19 19h.61c.272 0 .86.02 1.08-.179a.3.3 0 0 0 .07-.1c.132-.286.29-.69.424-1.216l.385-1.504h6.244v3h1q.12 0 .24-.008c.465-.03.636-.699.662-1.066.055-.766.098-1.742.098-2.926z"/></svg>