<svg xmlns="http://www.w3.org/2000/svg" viewBox="0 0 16 16"><path fill-rule="evenodd" d="M7.64 13.743a.67.67 0 0 0 .527.257H10q.126 0 .246-.008c.989-.064 1.615-.957 1.686-1.946.039-.542.068-1.225.068-2.046v-.99l.191-.038c1.077-.215 2.196-.439 2.893-1.023.318-.267.416-1.055.416-1.47 0-1.035-.703-1.59-1.652-2.003a19 19 0 0 1-1.853-.936c-.189-.69-.569-1.272-.9-1.68a.96.96 0 0 0-1.348-.153c-.73.557-1.774 1.587-2.05 3.065-.08.43-.151.851-.213 1.25-1 .058-1.938.19-2.74.475l-.83-1.594a.75.75 0 1 0-1.331.693l.88 1.69a1 1 0 0 0-.066.08c-.258.368-.653 1.144-.865 2.633a89 89 0 0 1-.517 3.201.677.677 0 0 0 .663.799h1.66c.425 0 .79-.073 1.068-.156a1.42 1.42 0 0 0 .732-.51q.104-.136.178-.296c.118-.258.252-.604.363-1.038H7.5v1.334a.66.66 0 0 0 .14.41M7.93 7.5l-.36.02c-1.244.072-2.172.26-2.802.602a.5.5 0 0 0-.129.106l-.054.063c-.126.204-.403.76-.568 1.92-.125.871-.25 1.65-.357 2.289h.677c.243 0 .452-.04.614-.086l.002-.004a4.6 4.6 0 0 0 .272-.782l.29-1.128H9v2h1q.075 0 .15-.005a.1.1 0 0 0 .05-.013.3.3 0 0 0 .07-.063.9.9 0 0 0 .166-.48c.036-.507.064-1.154.064-1.94v-.957zm1.02-1.138 2.162 1.298.785-.158c.555-.11 1.025-.206 1.438-.335a3 3 0 0 0 .619-.253A2.2 2.2 0 0 0 14 6.479a.4.4 0 0 0-.02-.14.3.3 0 0 0-.054-.078c-.088-.096-.28-.236-.676-.409-.575-.25-1.255-.58-2.002-1.01l-.536-.308-.163-.596a2.8 2.8 0 0 0-.305-.688c-.485.457-.936 1.068-1.072 1.798-.078.414-.146.82-.206 1.206z"/></svg>