<svg xmlns="http://www.w3.org/2000/svg" viewBox="0 0 24 24"><path d="M12.857 7.156a30 30 0 0 0-.285 2.02l6.748 4.05c1.312-.306 2.543-.71 3.318-1.54.267-.287.362-1.288.362-1.68 0-.931-.605-1.182-1.455-1.535a31 31 0 0 1-3.974-2.023 5.4 5.4 0 0 0-1.15-3.158c-.3-.385-.843-.38-1.183-.028-.793.819-2.112 2.375-2.381 3.894m-5.393 3.536c.828-.297 1.76-.475 2.78-.58L18 14.767c0 1.232-.045 2.488-.103 3.301-.107 1.483-1.045 2.824-2.53 2.919q-.179.012-.367.012h-1a1 1 0 0 1-.998-1V18h-4.24a9 9 0 0 1-.604 1.68c-.219.454-.441.835-.923 1.046-.322.14-.814.274-1.522.274h-1.2a1.015 1.015 0 0 1-.994-1.197c.193-1.064.484-2.764.775-4.803.168-1.17.462-2.586 1.373-3.427L4.106 8.447a1 1 0 1 1 1.789-.894z"/></svg>