<svg xmlns="http://www.w3.org/2000/svg" viewBox="0 0 16 16"><path fill-rule="evenodd" d="M7.677 2c-2.703.146-4.92 2.107-5.488 4.687a1.92 1.92 0 0 0-.989 1.68c0 .822.517 1.53 1.248 1.8C3.309 12.405 5.467 14 8 14c2.534 0 4.691-1.594 5.552-3.834A1.92 1.92 0 0 0 14.8 8.367c0-.721-.397-1.353-.988-1.68a6 6 0 0 0-3.989-4.41l-.137.036-.062.015c-.602.155-1.848.615-2.553 1.242a.9.9 0 0 0-.27.429 2 2 0 0 0-.05.245.6.6 0 0 0 .046.297c.093.245.3.427.555.486.34.08.638-.255.513-.589a.5.5 0 0 1 .936-.352c.404 1.076-.55 2.178-1.675 1.916a1.78 1.78 0 0 1-1.264-1.106 1.6 1.6 0 0 1-.103-.777 2.6 2.6 0 0 1 .08-.393c.099-.35.297-.664.568-.905.362-.321.815-.597 1.27-.821M6.75 8.746a.75.75 0 1 1-1.5.001.75.75 0 0 1 1.5 0m3.25.751a.75.75 0 1 0 0-1.5.75.75 0 0 0 0 1.5M6.838 11.09l.002.05c.005.13.064.252.164.336.578.49 1.424.49 2.002 0a.47.47 0 0 0 .164-.337l.002-.05A.26.26 0 0 0 9 10.837l-.054-.018a2.9 2.9 0 0 0-1.88 0l-.053.018a.26.26 0 0 0-.174.254"/></svg>