<svg xmlns="http://www.w3.org/2000/svg" viewBox="0 0 24 24"><path d="M9.9 12.803a1 1 0 1 1-2 0 1 1 0 0 1 2 0m5.149 1a1 1 0 1 0 0-2 1 1 0 0 0 0 2m-4.684 2.021-.003-.068a.355.355 0 0 1 .24-.35l.075-.026a4.03 4.03 0 0 1 2.596 0l.075.026c.148.05.246.193.24.35l-.003.068a.64.64 0 0 1-.227.465 2.14 2.14 0 0 1-2.766 0 .64.64 0 0 1-.227-.465"/><path fill-rule="evenodd" d="M21.756 12.473a3.45 3.45 0 0 0-1.4-2.777c-1-3.705-4.36-6.446-8.378-6.446S4.6 5.991 3.601 9.696a3.45 3.45 0 0 0-1.4 2.777 3.45 3.45 0 0 0 1.835 3.05c1.345 3.06 4.386 5.21 7.942 5.21s6.598-2.15 7.942-5.21a3.45 3.45 0 0 0 1.836-3.05m-9.778 6.26c-3.026 0-5.583-2.032-6.404-4.817A1.44 1.44 0 0 1 4.2 12.472c0-.704.5-1.29 1.162-1.418a6.74 6.74 0 0 1 4.373-5.415l-.026.028a3.04 3.04 0 0 0-.834 1.702 2.56 2.56 0 0 0 .16 1.283 2.38 2.38 0 0 0 1.689 1.477l.08.018c1.616.376 2.986-1.207 2.406-2.75a.8.8 0 0 0-1.498.562.473.473 0 0 1-.547.63l-.079-.019a.78.78 0 0 1-.554-.484 1 1 0 0 1-.075-.479c.013-.084.03-.163.054-.25.056-.196.176-.397.358-.588.32-.337.552-.494.765-.595.23-.109.471-.17.893-.279l.026-.006 1.407-.338a6.73 6.73 0 0 1 4.635 5.503 1.44 1.44 0 0 1 1.161 1.418c0 .779-.61 1.413-1.373 1.444-.821 2.785-3.378 4.816-6.405 4.816"/></svg>