<svg xmlns="http://www.w3.org/2000/svg" viewBox="0 0 24 24"><path fill-rule="evenodd" d="M7.945 4.168A47 47 0 0 1 12 4c1.55 0 2.902.068 4.055.168 2.025.175 3.037.263 4.327 1.557s1.37 2.265 1.532 4.207a25 25 0 0 1 0 4.137c-.162 1.941-.243 2.912-1.532 4.206s-2.302 1.382-4.327 1.557c-1.153.1-2.505.168-4.055.168a47 47 0 0 1-4.055-.168c-2.024-.175-3.036-.263-4.326-1.557S2.25 16.01 2.087 14.07a25 25 0 0 1 0-4.14c.162-1.94.243-2.911 1.532-4.205s2.302-1.381 4.326-1.557M6.658 10l1.119 2.516V10h1.112v4H7.235l-1.118-2.51V14H5.004v-4zm6.409 4H9.909v-4h3.152v.957h-1.949v.521h1.45v.928h-1.45v.637h1.955zm1.352 0h1.407l.584-2.51.54 2.51h1.54l.74-4h-1.094l-.457 2.58L17.13 10h-1.16l-.602 2.58-.403-2.58h-1.209z"/></svg>