<svg xmlns="http://www.w3.org/2000/svg" viewBox="0 0 16 16"><path d="m4.179 6.5.797 1.887V6.5h.793v3H4.591l-.798-1.883V9.5H3v-3zm4.568 3-2.25-.023V6.5h2.246v.717H7.354v.392h1.033v.695H7.354v.479h1.393zm.964 0h1.003l.416-1.883.386 1.883h1.097l.528-3h-.78l-.326 1.935-.39-1.935h-.828l-.429 1.935-.287-1.935H9.24z"/><path fill-rule="evenodd" d="M4.788 2.65c-1.285.127-1.928.19-2.717.976s-.853 1.402-.98 2.635C1.036 6.795 1 7.381 1 8c0 .62.036 1.205.09 1.739.128 1.233.192 1.85.98 2.635.79.786 1.433.85 2.718.976.883.088 1.955.15 3.212.15a33 33 0 0 0 3.212-.15c1.285-.127 1.928-.19 2.717-.976s.853-1.403.98-2.636a16.7 16.7 0 0 0 .001-3.476c-.128-1.233-.191-1.85-.98-2.636-.79-.786-1.433-.85-2.718-.976A33 33 0 0 0 8 2.5a33 33 0 0 0-3.212.15m.147 9.208c-.69-.069-1.004-.106-1.248-.182-.164-.05-.316-.124-.558-.365-.249-.248-.32-.397-.368-.545-.073-.227-.11-.516-.178-1.181A16 16 0 0 1 2.5 8c0-.563.032-1.096.083-1.585.068-.665.105-.954.178-1.18.047-.149.12-.298.368-.546.242-.24.394-.315.558-.365.244-.076.557-.113 1.248-.182A31 31 0 0 1 8 4c1.207 0 2.23.06 3.064.142.691.069 1.005.106 1.25.182.163.05.315.124.557.365.249.248.321.397.368.546.073.226.11.516.178 1.181A16 16 0 0 1 13.5 8a16 16 0 0 1-.083 1.584c-.068.665-.105.955-.178 1.181-.047.149-.119.298-.368.546-.242.24-.394.315-.558.365-.244.076-.558.113-1.248.182C10.229 11.94 9.207 12 8 12s-2.23-.06-3.065-.142"/></svg>