<svg xmlns="http://www.w3.org/2000/svg" viewBox="0 0 16 16"><path d="M12.6 3.914a.75.75 0 1 0-.7-1.328L9.454 3.875l-2.725-.607a.75.75 0 0 0-.544.086L2.37 5.604a.75.75 0 1 0 .762 1.292l3.56-2.1 2.705.603a.75.75 0 0 0 .512-.069zm2.33 8.298c-.02.373-.257.706-.625.763Q14.157 13 14 13q-.156-.001-.304-.025c-.369-.057-.605-.39-.626-.763A55 55 0 0 1 13 9.25c0-1.386.039-2.381.07-2.962.02-.373.257-.706.626-.763Q13.844 5.5 14 5.5q.156.001.304.025c.368.057.605.39.625.763.032.581.07 1.576.07 2.962s-.038 2.381-.07 2.962m-4.679.776c.394-.038.669-.375.694-.77.028-.44.057-1.099.057-1.968s-.029-1.528-.057-1.967c-.025-.396-.3-.733-.694-.77a2.6 2.6 0 0 0-.499 0c-.394.037-.669.374-.694.77-.028.44-.056 1.098-.056 1.967s.028 1.528.056 1.967c.025.396.3.733.694.77a2.7 2.7 0 0 0 .499 0m-3.974-.005c.382-.047.637-.383.66-.768.03-.514.064-1.34.064-2.464s-.034-1.95-.064-2.464c-.023-.385-.278-.721-.66-.768a2.3 2.3 0 0 0-.551 0c-.382.047-.638.383-.66.768A42 42 0 0 0 5 9.75c0 1.123.034 1.95.065 2.464.022.385.278.721.66.768a2.3 2.3 0 0 0 .55 0m-4.047.009c.404-.03.697-.362.725-.766.025-.354.047-.848.047-1.476 0-.627-.022-1.121-.047-1.476-.028-.404-.321-.737-.725-.766a3 3 0 0 0-.458 0c-.404.03-.697.362-.725.766-.025.355-.047.848-.047 1.476s.022 1.122.047 1.476c.028.404.321.737.725.766a3 3 0 0 0 .458 0"/></svg>