<svg xmlns="http://www.w3.org/2000/svg" viewBox="0 0 16 16"><path d="M6.75 7a.75.75 0 0 1 .75.75v2.5a.75.75 0 0 1-1.5 0v-2.5A.75.75 0 0 1 6.75 7m3.25.75a.75.75 0 1 0-1.5 0v2.5a.75.75 0 0 0 1.5 0z"/><path fill-rule="evenodd" d="M3.187 13.865c.844.841 1.512.907 2.848 1.038A20 20 0 0 0 8 15c.703 0 1.364-.038 1.965-.097 1.336-.131 2.004-.197 2.848-1.039s.91-1.51 1.044-2.848C13.942 10.17 14 9.166 14 8s-.059-2.17-.143-3.015c-.133-1.339-.2-2.008-1.044-2.85s-1.512-.907-2.85-1.038A20 20 0 0 0 8 1c-.754 0-1.464.33-1.997.862L3.638 4.227c-.682.682-1.023 1.023-1.26 1.476a4 4 0 0 0-.225.545C2 6.735 2 7.157 2 8c0 1.165.059 2.171.143 3.016.134 1.338.2 2.007 1.044 2.848m2.994-.455c-.716-.07-1.045-.11-1.305-.19-.18-.058-.356-.144-.63-.417-.273-.273-.36-.448-.417-.629-.082-.26-.122-.59-.194-1.307A29 29 0 0 1 3.5 8c0-.9.013-1.077.084-1.303.027-.087.082-.22.124-.3.107-.205.253-.371.991-1.11l2.364-2.364C7.35 2.637 7.69 2.5 8 2.5c.648 0 1.26.035 1.818.09.717.07 1.046.109 1.306.19.18.057.355.144.63.417.273.273.36.448.417.629.082.26.122.59.194 1.308.079.795.135 1.751.135 2.866s-.056 2.071-.136 2.867c-.071.717-.11 1.047-.193 1.307-.057.181-.144.356-.418.629-.273.273-.448.36-.629.416-.26.082-.589.12-1.305.19a18.6 18.6 0 0 1-3.638.001"/></svg>