<svg xmlns="http://www.w3.org/2000/svg" viewBox="0 0 16 16"><path fill-rule="evenodd" d="M8.004 1c-.754 0-1.464.33-1.998.862L3.642 4.227c-.682.682-1.023 1.023-1.26 1.476a4 4 0 0 0-.225.545c-.153.487-.153.909-.153 1.752 0 1.165.058 2.171.143 3.016.133 1.338.2 2.007 1.044 2.848.844.842 1.512.908 2.848 1.039A20 20 0 0 0 8.004 15c.702 0 1.364-.038 1.965-.097 1.336-.131 2.004-.197 2.848-1.039s.91-1.51 1.044-2.848c.084-.845.143-1.85.143-3.016s-.059-2.17-.143-3.015c-.134-1.339-.2-2.008-1.044-2.85s-1.512-.907-2.85-1.038A20 20 0 0 0 8.005 1M9.25 7a.75.75 0 0 1 .75.75v2.5a.75.75 0 0 1-1.5 0v-2.5A.75.75 0 0 1 9.25 7M6.745 7a.75.75 0 0 1 .75.75l.005 2.5a.75.75 0 0 1-1.5 0l-.005-2.5a.75.75 0 0 1 .75-.75"/></svg>