<svg xmlns="http://www.w3.org/2000/svg" viewBox="0 0 16 16"><g fill-rule="evenodd" clip-rule="evenodd"><path d="M1.497 2.75a.75.75 0 0 1 .75-.75h11.5a.75.75 0 0 1 0 1.5h-.056c.088.35.129.748.18 1.242.075.725.125 1.576.125 2.55 0 1.185-.074 2.685-.177 3.672l-.008.08c-.12 1.153-.204 1.957-.608 2.621-.14.23-.373.332-.624.335-.22.003-.453-.07-.648-.201-.628-.425-1.405-.845-1.672-.845-.287 0-1.024.435-1.658.862a1.08 1.08 0 0 1-1.204.001c-.634-.428-1.367-.868-1.647-.868-.261 0-1.05.424-1.686.85a1.17 1.17 0 0 1-.618.201c-.263.005-.51-.097-.655-.335-.405-.664-.49-1.468-.61-2.62l-.008-.08a40 40 0 0 1-.177-3.672c0-.975.05-1.826.126-2.551.051-.494.092-.892.18-1.241h-.055a.75.75 0 0 1-.75-.75m2.425.75a.8.8 0 0 0-.122.224c-.077.207-.114.478-.186 1.172a23 23 0 0 0-.118 2.397c0 1.14.073 2.588.17 3.516.065.63.115 1.06.171 1.374q.261-.155.51-.288a6 6 0 0 1 .566-.265c.13-.052.461-.18.837-.18.378 0 .705.126.85.185.193.078.387.177.563.273.273.15.563.33.835.508.276-.18.57-.36.848-.51.177-.096.373-.194.568-.271.15-.06.473-.181.845-.181.373 0 .7.125.836.179.19.075.385.17.565.265.161.085.33.18.496.28.056-.312.106-.742.171-1.369.097-.928.17-2.376.17-3.516 0-.923-.049-1.722-.118-2.397-.072-.694-.11-.965-.186-1.172a.8.8 0 0 0-.122-.223z"/><path d="M5.716 5.22a.75.75 0 0 1 1.06 0l1.22 1.22 1.22-1.22a.75.75 0 1 1 1.06 1.06L9.058 7.5l1.22 1.22a.75.75 0 1 1-1.06 1.06l-1.22-1.22-1.22 1.22a.75.75 0 0 1-1.06-1.06L6.935 7.5l-1.22-1.22a.75.75 0 0 1 0-1.06"/></g></svg>