<svg xmlns="http://www.w3.org/2000/svg" viewBox="0 0 16 16"><path d="M4.487 3.952a.75.75 0 0 1 .526-1.404l5.823 2.184-.71-1.066a.75.75 0 1 1 1.248-.832l2 3a.75.75 0 0 1-.887 1.118z"/><path fill-rule="evenodd" d="M4.818 12.834c-.217.097-.49.115-.91.143-.212.014-.435.023-.658.023a10 10 0 0 1-.658-.023c-.602-.04-.903-.06-1.167-.32-.265-.261-.29-.567-.34-1.18A27 27 0 0 1 1 9.251c0-.916.038-1.66.085-2.228.05-.612.075-.918.34-1.179.264-.26.565-.28 1.167-.32A10 10 0 0 1 3.25 5.5c.223 0 .446.01.658.023.602.04.903.06 1.168.321.185.182.252.387.294.702q.169-.014.382-.025a12 12 0 0 1 1.33 0c.603.035.905.052 1.172.313.19.185.258.388.3.704a16 16 0 0 1 1.03-.038c.232 0 .465.007.685.019.6.03.899.045 1.169.305.195.19.262.391.302.705q.127-.008.28-.014a17 17 0 0 1 1.46 0c.583.026.874.038 1.146.3.273.261.295.523.338 1.045q.034.387.036.89-.002.501-.036.888c-.043.523-.065.784-.337 1.046-.273.261-.564.274-1.147.3a17 17 0 0 1-1.46 0c-.4-.018-.661-.03-.874-.119-.213.083-.479.097-.876.117a14 14 0 0 1-1.373 0c-.422-.021-.696-.035-.915-.133-.216.09-.488.107-.9.13a12 12 0 0 1-1.33 0c-.435-.024-.713-.04-.934-.145M3.25 11.42c.181 0 .369-.007.553-.02l.034-.002.004-.05c.043-.525.079-1.226.079-2.097 0-.872-.036-1.573-.08-2.099l-.003-.05-.034-.002a8 8 0 0 0-.553-.02c-.181 0-.369.008-.553.02l-.034.002-.004.05a26 26 0 0 0-.079 2.099c0 .87.036 1.572.08 2.097l.003.05.034.002c.184.013.372.02.553.02m6.333.08c.203 0 .41-.006.61-.016l.089-.005.004-.043c.027-.322.047-.718.047-1.185s-.02-.864-.047-1.187l-.004-.043-.088-.004a12 12 0 0 0-1.221 0l-.088.004-.004.043c-.027.322-.048.719-.048 1.187 0 .467.02.863.048 1.185l.004.043.088.005c.2.01.408.016.61.016m-2.589-.018c-.19.011-.387.018-.577.018-.191 0-.387-.007-.578-.018l-.1-.006-.008-.09a20 20 0 0 1-.064-1.635c0-.664.028-1.21.064-1.637l.008-.09.1-.006C6.03 8.007 6.226 8 6.417 8s.386.007.577.018l.1.006.008.09c.036.427.065.973.065 1.637 0 .663-.029 1.21-.065 1.636l-.007.09zm5.756.018c.222 0 .448-.006.665-.015l.057-.003a9 9 0 0 0 0-1.466l-.057-.002a16 16 0 0 0-1.33 0l-.057.002a9 9 0 0 0 0 1.466l.057.003c.216.01.443.015.665.015"/></svg>