<svg xmlns="http://www.w3.org/2000/svg" viewBox="0 0 24 24"><path d="M3.11 18.82c.029.549.37 1.044.912 1.137.153.026.315.043.478.043s.325-.017.478-.043c.542-.093.883-.588.912-1.138.048-.917.11-2.536.11-4.818 0-2.283-.062-3.902-.11-4.82-.03-.549-.37-1.044-.912-1.137A3 3 0 0 0 4.5 8a3 3 0 0 0-.478.044c-.542.093-.883.588-.912 1.137a93 93 0 0 0-.11 4.82c0 2.282.062 3.901.11 4.818m9.972.008c.039.596.456 1.101 1.05 1.156a4 4 0 0 0 .736 0c.594-.055 1.01-.56 1.05-1.156.04-.639.082-1.585.082-2.826s-.041-2.189-.082-2.828c-.04-.595-.456-1.1-1.05-1.155a4 4 0 0 0-.736 0c-.594.054-1.011.56-1.05 1.156A44 44 0 0 0 13 16c0 1.24.041 2.187.082 2.826M9.08 19.972c-.57-.073-.948-.578-.982-1.152C8.052 18.031 8 16.75 8 15s.052-3.03.098-3.82c.034-.574.412-1.078.982-1.151Q9.285 10 9.5 10q.214.001.42.029c.57.073.948.577.982 1.151.046.79.098 2.071.098 3.82 0 1.75-.052 3.031-.098 3.82-.034.574-.412 1.079-.982 1.152A3 3 0 0 1 9.5 20q-.214 0-.42-.028m8.981-1.123c.044.61.497 1.102 1.108 1.14a5 5 0 0 0 .662 0c.61-.038 1.064-.53 1.108-1.14.033-.462.061-1.08.061-1.849s-.028-1.386-.061-1.848c-.044-.61-.497-1.103-1.108-1.14a5 5 0 0 0-.662 0c-.61.037-1.064.53-1.108 1.14A26 26 0 0 0 18 17c0 .769.028 1.387.061 1.849M6.553 5.895a1 1 0 0 1 .894-1.79l8.632 4.317-.911-1.367a1 1 0 1 1 1.664-1.11l3 4.5a1 1 0 0 1-1.28 1.45z"/></svg>