<svg xmlns="http://www.w3.org/2000/svg" viewBox="0 0 24 24"><path d="M9.5 11.495v-.733q0-.04-.003-.077v-.777c0-.688.001-1.09.024-1.388.012-.151.026-.225.032-.25a.5.5 0 0 1 .213-.214c.026-.006.1-.02.251-.032.298-.023.7-.024 1.388-.024h2.188q.137 0 .271.002C15.208 8.024 16 8.907 16 9.908c0 .788-.597 1.538-1.86 1.579q-.267.008-.547.008z"/><path fill-rule="evenodd" d="M19.314 4.659c-.705-.705-1.408-1.06-2.314-1.267v-1.42a1 1 0 1 0-2 0v1.153l-.923-.071A28 28 0 0 0 12 2.973c-.7 0-1.399.03-2.077.08q-.49.037-.923.072V1.973a1 1 0 1 0-2 0v1.419c-.905.207-1.609.562-2.314 1.267-1.313 1.313-1.41 2.62-1.605 5.236-.05.679-.081 1.378-.081 2.078s.03 1.399.081 2.077c.195 2.616.292 3.924 1.605 5.237s2.62 1.41 5.237 1.605c.678.05 1.377.08 2.077.08s1.399-.03 2.077-.08c2.616-.195 3.924-.292 5.237-1.605s1.41-2.621 1.605-5.237c.05-.678.081-1.378.081-2.077s-.03-1.4-.081-2.078c-.195-2.616-.292-3.923-1.605-5.236M9.5 13.495h4.093q.314 0 .611-.01C16.301 13.419 18 12.006 18 9.909c0-2.26-1.844-3.87-4.104-3.906L13.593 6h-2.188c-1.313 0-1.97 0-2.478.24a2.5 2.5 0 0 0-1.19 1.19c-.24.508-.24 1.165-.24 2.478V11.5a1 1 0 0 0 .003 2V15a1 1 0 1 0 0 2v.5a1 1 0 1 0 2 0V17H14a1 1 0 1 0 0-2H9.5z"/></svg>