<svg xmlns="http://www.w3.org/2000/svg" viewBox="0 0 16 16"><path fill-rule="evenodd" d="M6.248 4.62a1.5 1.5 0 0 0-.698.698c-.15.309-.15.71-.15 1.512v.968a.6.6 0 0 0 0 1.184v.639a.6.6 0 0 0 0 1.183v.303a.6.6 0 1 0 1.2 0v-.295h2.9a.6.6 0 0 0 0-1.2H6.6v-.616h2.017q.244 0 .471-.009C10.358 8.94 11.4 8.1 11.4 6.83c0-1.369-1.13-2.325-2.497-2.357l-.286-.003H7.76c-.802 0-1.203 0-1.512.15m1.976 3.17q.042 0 .084.006h.309q.22 0 .427-.008c.797-.03 1.156-.493 1.156-.958 0-.594-.478-1.138-1.325-1.157l-.258-.003H7.76c-.42 0-.666.001-.848.015a1 1 0 0 0-.152.02.3.3 0 0 0-.125.125 1 1 0 0 0-.02.152c-.014.182-.015.428-.015.848v.96z"/><path fill-rule="evenodd" d="M4.5 2.32c-.525.144-.95.378-1.376.803-.875.876-.94 1.748-1.07 3.492A19 19 0 0 0 2 7.999c0 .467.02.933.054 1.385.13 1.744.195 2.616 1.07 3.492s1.747.94 3.491 1.07c.452.033.919.053 1.385.053s.933-.02 1.385-.054c1.744-.13 2.616-.194 3.491-1.07.875-.875.94-1.747 1.07-3.49.034-.453.054-.92.054-1.386s-.02-.932-.054-1.384c-.13-1.744-.195-2.616-1.07-3.492a2.93 2.93 0 0 0-1.376-.802V1.75a.75.75 0 0 0-1.5 0v.35l-.615-.046A19 19 0 0 0 8 1.999c-.466 0-.933.02-1.385.054L6 2.102v-.347a.75.75 0 0 0-1.5 0zm6.25 2.18a.75.75 0 0 1-.75-.75v-.142q-.315-.028-.727-.059A17 17 0 0 0 8 3.5c-.423 0-.852.019-1.273.05q-.412.03-.727.06v.14a.75.75 0 0 1-1.481.167 1.6 1.6 0 0 0-.334.268c-.42.42-.498.697-.635 2.542-.031.421-.05.85-.05 1.273 0 .424.019.853.05 1.274.137 1.845.214 2.122.635 2.542.42.42.697.497 2.542.635.42.03.85.05 1.273.05s.852-.02 1.273-.05c1.845-.138 2.122-.215 2.542-.635s.498-.697.635-2.542c.032-.421.05-.85.05-1.274 0-.423-.018-.852-.05-1.273-.137-1.845-.214-2.122-.635-2.542a1.6 1.6 0 0 0-.333-.268.75.75 0 0 1-.732.583"/></svg>