<svg xmlns="http://www.w3.org/2000/svg" viewBox="0 0 32 32"><path d="M8.25 3A1.5 1.5 0 0 0 8 5.979V7.06c-1.241.08-1.964.223-2.717.976-.882.882-.926 1.722-1.014 3.402a16 16 0 0 0 0 1.625c.088 1.68.132 2.52 1.014 3.402s1.722.926 3.402 1.014a16 16 0 0 0 1.629 0c1.68-.088 2.52-.132 3.401-1.014.883-.883.927-1.723 1.014-3.402a16 16 0 0 0 0-1.625c-.087-1.68-.131-2.52-1.014-3.402-.753-.753-1.475-.895-2.716-.975V5.98A1.5 1.5 0 0 0 10.752 3z"/><path fill-rule="evenodd" d="M19.853 5.61a1.227 1.227 0 0 1 1.144 1.294L21 7v2.5h2.148c.436 0 .83.149 1.122.292a5.6 5.6 0 0 1 .902.572c.575.438 1.17 1.015 1.703 1.62a13 13 0 0 1 1.416 1.921c.343.583.71 1.347.71 2.078l-.003.072a33 33 0 0 1-.118 2.72c-.18 2.128-.283 3.362-1.303 4.698h-.004a1.25 1.25 0 0 1-1.02.527h-.518a3.752 3.752 0 0 1-7.073 0h-5.675a3.751 3.751 0 0 1-7.073 0H4.748a1.25 1.25 0 1 1 0-2.5h1.466a3.752 3.752 0 0 1 7.073 0H18.5V8.044A61 61 0 0 0 16.808 8a1.27 1.27 0 0 1-1.258-1.262c0-.687.555-1.246 1.241-1.238a64 64 0 0 1 3.061.11M21 19.31a3.75 3.75 0 0 1 4.964 2.004q.045-.113.08-.223c.164-.528.231-1.177.345-2.527.068-.805.11-1.665.11-2.565h-1.636a1.3 1.3 0 0 1-1.274-1.045L22.999 12H21zM9.75 24a1.25 1.25 0 1 0 0-2.5 1.25 1.25 0 0 0 0 2.5m12.748-2.5a1.25 1.25 0 1 0 0 2.5 1.25 1.25 0 0 0 0-2.5"/></svg>