<svg xmlns="http://www.w3.org/2000/svg" viewBox="0 0 44 44"><path d="M10.998 4a2 2 0 0 0 0 4v1.077c-1.588.102-2.546.315-3.562 1.327-1.233 1.228-1.291 2.399-1.408 4.741a22 22 0 0 0 0 2.21c.117 2.342.175 3.514 1.408 4.741 1.234 1.228 2.38 1.28 4.675 1.383a20 20 0 0 0 1.778 0c2.294-.103 3.441-.155 4.675-1.383s1.291-2.399 1.408-4.741a22 22 0 0 0 0-2.21c-.117-2.342-.175-3.513-1.408-4.741-1.017-1.012-1.975-1.225-3.566-1.327V8a2 2 0 0 0 0-4z"/><path fill-rule="evenodd" d="M4.133 25.364c-.059-.734 1.13-1.136 1.696-.667a6.96 6.96 0 0 0 2.828 1.425c1.022.252 2.15.302 3.154.347l.164.007a23 23 0 0 0 2.049 0l.164-.007c1.004-.045 2.132-.095 3.154-.347 1.265-.312 2.341-.908 3.338-1.9 2.067-2.058 2.174-4.318 2.272-6.402l.015-.316a25 25 0 0 0-.015-2.824c-.098-2.084-.205-4.344-2.272-6.402a8 8 0 0 0-.278-.265q.777-.012 1.595-.013c2.07 0 3.945.065 5.622.17a1.477 1.477 0 0 1 1.368 1.655q.01.087.01.175v3h2.9c1.092 0 2.133.505 2.976 1.083.876.6 1.716 1.401 2.443 2.257a14.5 14.5 0 0 1 1.853 2.747c.458.9.828 1.929.828 2.896V22a43 43 0 0 1-.136 3.383c-.258 3.21-.396 4.93-2.285 7.035a1.5 1.5 0 0 1-1.187.582h-.806a5.001 5.001 0 0 1-9.168 0h-8.832a5.001 5.001 0 0 1-9.168 0h-1.67c-.557 0-1.104-.248-1.354-.746-.424-.848-.584-1.83-.82-3.281a45 45 0 0 1-.438-3.61M30.999 26c-.711 0-1.389.149-2.002.417V16h2.5l.749 4.48a1.8 1.8 0 0 0 1.775 1.503h2.976V22c0 1.097-.047 2.15-.127 3.143-.146 1.828-.236 2.755-.476 3.525-.11.353-.264.706-.545 1.112A5 5 0 0 0 31 26m-18 7a2 2 0 1 0 0-4 2 2 0 0 0 0 4m18-4a2 2 0 1 0 0 4 2 2 0 0 0 0-4"/></svg>