<svg xmlns="http://www.w3.org/2000/svg" viewBox="0 0 44 44"><path d="M10.998 4a2 2 0 0 0 0 4v1.077c-1.588.102-2.546.315-3.562 1.327-1.233 1.228-1.291 2.399-1.408 4.741a22 22 0 0 0 0 2.21c.117 2.342.175 3.514 1.408 4.741 1.234 1.228 2.38 1.28 4.675 1.383a20 20 0 0 0 1.778 0c2.294-.103 3.441-.155 4.675-1.383s1.291-2.399 1.408-4.741a22 22 0 0 0 0-2.21c-.117-2.342-.175-3.513-1.408-4.741-1.017-1.012-1.975-1.225-3.566-1.327V8a2 2 0 0 0 0-4z"/><path fill-rule="evenodd" d="M28.998 9.65c0-.78-.6-1.43-1.379-1.48a88 88 0 0 0-4.629-.165 1.48 1.48 0 0 0-1.492 1.489c0 .831.676 1.502 1.508 1.511q1.496.016 2.992.083V30H17.9a5.002 5.002 0 0 0-9.8 0H6.498a1.5 1.5 0 0 0 0 3h1.918a5.001 5.001 0 0 0 9.168 0h8.832a5.001 5.001 0 0 0 9.168 0h.805a1.5 1.5 0 0 0 1.187-.582c1.89-2.106 2.027-3.824 2.285-7.035.085-1.067.137-2.2.137-3.383v-.017c0-.967-.371-1.995-.829-2.896a14.5 14.5 0 0 0-1.853-2.747c-.727-.856-1.567-1.657-2.443-2.257C34.03 13.505 32.99 13 31.897 13h-2.9v-3q0-.088-.01-.175.01-.086.01-.174m0 16.767a5.002 5.002 0 0 1 6.852 3.363 4 4 0 0 0 .544-1.112c.24-.77.33-1.697.476-3.525.08-.993.128-2.046.128-3.143v-.017h-2.976a1.8 1.8 0 0 1-1.776-1.503L31.498 16h-2.5zM15 31a2 2 0 1 1-4 0 2 2 0 0 1 4 0m14 0a2 2 0 1 1 4 0 2 2 0 0 1-4 0"/></svg>