<svg xmlns="http://www.w3.org/2000/svg" viewBox="0 0 17 17"><path d="M3.983 1.062a.797.797 0 1 0 0 1.594v.561c-.733.044-1.154.12-1.594.561-.507.509-.53.985-.574 1.938a8 8 0 0 0 0 .786c.044.953.067 1.43.574 1.939.507.508.99.532 1.952.58a9 9 0 0 0 .877 0c.964-.048 1.445-.072 1.953-.58.507-.509.53-.986.574-1.939a8 8 0 0 0 0-.786c-.045-.953-.067-1.43-.574-1.938-.44-.441-.862-.518-1.595-.56v-.562a.797.797 0 0 0 0-1.594z"/><path fill-rule="evenodd" d="M2.793 12.748a2.392 2.392 0 0 0 4.509.001h2.928a2.392 2.392 0 0 0 4.511-.008.8.8 0 0 0 .59-.41c.406-.663.46-1.33.546-2.384q.056-.677.059-1.428v-.002c0-.742-.395-1.642-.903-2.323-.495-.664-1.312-1.413-2.326-1.413h-1.02V3.548a.797.797 0 0 0-.733-.794.7.7 0 0 0-.162-.029 36 36 0 0 0-1.496-.061.784.784 0 0 0-.797.789c0 .44.357.796.797.805q.414.008.797.026v6.872h-2.79a2.392 2.392 0 0 0-4.51-.001H2.39a.797.797 0 0 0 0 1.593zm11.451-2.416q.02-.22.044-.514c.034-.411.054-.865.054-1.319h-.708a.744.744 0 0 1-.74-.67l-.145-1.453-.042-.002h-1.02v3.322a2.385 2.385 0 0 1 2.557.636m-2.557 1.619a.797.797 0 1 0 1.594 0 .797.797 0 0 0-1.594 0m-7.437 0a.798.798 0 1 1 1.595 0 .798.798 0 0 1-1.595 0"/></svg>