<svg xmlns="http://www.w3.org/2000/svg" viewBox="0 0 17 17"><path d="M3.983 1.062a.797.797 0 1 0 0 1.594v.561c-.733.044-1.154.12-1.594.561-.507.509-.53.985-.574 1.938a8 8 0 0 0 0 .786c.044.953.067 1.43.574 1.939.507.508.99.532 1.952.58a9 9 0 0 0 .877 0c.964-.048 1.445-.072 1.953-.58.507-.509.53-.986.574-1.939a8 8 0 0 0 0-.786c-.045-.953-.067-1.43-.574-1.938-.44-.441-.862-.518-1.595-.56v-.562a.797.797 0 1 0 0-1.594z"/><path fill-rule="evenodd" d="M1.138 10.143c-.023-.251.304-.394.507-.243q.204.154.432.273c.71.371 1.43.404 2.043.432l.143.007a11 11 0 0 0 1.175-.007c.852-.039 1.91-.087 2.86-1.039.456-.457.735-.96.88-1.546.113-.458.136-.958.155-1.367l.003-.076a10 10 0 0 0 0-.935l-.003-.076c-.02-.41-.042-.91-.155-1.368a3.2 3.2 0 0 0-.876-1.542h.196a37 37 0 0 1 2.293.07q.084.004.162.028c.41.033.732.376.732.794v1.233h1.021c1.014 0 1.83.75 2.326 1.413.508.68.903 1.581.903 2.323v.002c0 .5-.023.978-.06 1.428-.085 1.054-.14 1.721-.545 2.384a.8.8 0 0 1-.59.41 2.392 2.392 0 0 1-4.512.008H7.301a2.392 2.392 0 0 1-4.51 0h-.697c-.289 0-.556-.167-.628-.446a11 11 0 0 1-.164-.873q-.096-.586-.164-1.287m13.15-.325-.045.514a2.385 2.385 0 0 0-2.558-.636V6.374h1.021l.042.002.145 1.453c.038.38.358.67.74.67h.708c0 .454-.02.908-.054 1.319m-1.805 2.93a.797.797 0 1 1 0-1.595.797.797 0 0 1 0 1.595m-7.437-1.595a.798.798 0 1 0 0 1.595.798.798 0 0 0 0-1.595"/></svg>