<svg xmlns="http://www.w3.org/2000/svg" viewBox="0 0 16 16"><path fill-rule="evenodd" d="M13.5 6.518c0-1.192-.054-2.272-.132-3.208-.161-1.953-2.232-2.897-3.915-1.922-.9.522-2.006.522-2.906 0C4.864.413 2.793 1.357 2.632 3.31A39 39 0 0 0 2.5 6.518c0 1.398 0 4.85.754 7.363.139.46.497.813.94.992A1.74 1.74 0 0 0 6.52 13.71l.695-2.524q.029-.105.052-.21c.1-.43.229-.976.732-.976s.631.546.732.976q.024.105.052.21l.695 2.524a1.74 1.74 0 0 0 2.327 1.163c.443-.179.801-.531.939-.993.755-2.533.755-6.091.755-7.362"/></svg>