<svg xmlns="http://www.w3.org/2000/svg" viewBox="0 0 32 32"><path fill-rule="evenodd" d="M6.256 7.097A73 73 0 0 0 6 13.225c0 2.565 0 9.151 1.408 13.809.26.861.957 1.504 1.809 1.797a3.11 3.11 0 0 0 3.996-2.079l1.319-4.575.01-.035c.221-.768.473-1.642 1.458-1.642s1.237.874 1.458 1.642l1.329 4.61a3.11 3.11 0 0 0 3.996 2.079c.852-.293 1.548-.936 1.809-1.797C25.999 22.376 26 15.79 26 13.224c0-2.278-.106-4.344-.256-6.127-.294-3.494-4.07-5.168-7.076-3.361A5.2 5.2 0 0 1 16 4.5a5.2 5.2 0 0 1-2.668-.764c-3.007-1.807-6.782-.133-7.076 3.36"/></svg>