<svg xmlns="http://www.w3.org/2000/svg" viewBox="0 0 32 32"><path fill-rule="evenodd" d="M8.747 7.306a71 71 0 0 0-.247 5.919c0 2.65.02 8.847 1.301 13.085l.005.01a.2.2 0 0 0 .03.035.61.61 0 0 0 .976-.295l1.318-4.575.02-.074c.093-.33.307-1.092.742-1.747C13.5 18.749 14.545 18 16 18s2.5.748 3.108 1.665c.434.654.649 1.416.741 1.746l.021.074 1.319 4.575a.61.61 0 0 0 .976.295.2.2 0 0 0 .029-.034l.005-.01c1.28-4.239 1.301-10.435 1.301-13.086a71 71 0 0 0-.247-5.919c-.069-.816-.507-1.343-1.082-1.61-.6-.278-1.42-.296-2.216.183A7.7 7.7 0 0 1 16 7a7.7 7.7 0 0 1-3.955-1.121c-.796-.479-1.616-.461-2.216-.183-.575.267-1.013.794-1.082 1.61m-2.491-.21A73 73 0 0 0 6 13.226c0 2.565 0 9.151 1.408 13.809.26.861.957 1.504 1.809 1.797a3.11 3.11 0 0 0 3.996-2.079l1.319-4.575.01-.035c.221-.768.473-1.642 1.458-1.642s1.237.874 1.458 1.642l1.329 4.61a3.11 3.11 0 0 0 3.996 2.079c.852-.293 1.548-.936 1.809-1.797C25.999 22.376 26 15.79 26 13.224c0-2.278-.106-4.344-.256-6.127-.294-3.494-4.07-5.168-7.076-3.361A5.2 5.2 0 0 1 16 4.5a5.2 5.2 0 0 1-2.668-.764c-3.007-1.807-6.782-.133-7.076 3.36"/></svg>