<svg xmlns="http://www.w3.org/2000/svg" viewBox="0 0 44 44"><path fill-rule="evenodd" d="M25.724 5.017C24.576 5.7 23.288 6 22 6s-2.576-.3-3.724-.983c-4.232-2.515-9.515-.154-9.927 4.76A100 100 0 0 0 8 18.154c0 3.549.001 12.652 1.964 19.1.368 1.21 1.348 2.11 2.542 2.515 2.356.8 4.9-.537 5.585-2.933l1.845-6.446.03-.107C20.274 29.202 20.616 28 22 28s1.726 1.201 2.034 2.282l.03.107 1.845 6.446a4.355 4.355 0 0 0 5.585 2.933c1.194-.406 2.174-1.305 2.542-2.514C35.999 30.805 36 21.702 36 18.154c0-3.11-.144-5.932-.349-8.376-.412-4.915-5.695-7.276-9.927-4.76"/></svg>