<svg xmlns="http://www.w3.org/2000/svg" viewBox="0 0 24 24"><path fill-rule="evenodd" d="m7.894 19.598 1.043-3.322.018-.06c.067-.234.237-.832.543-1.322.201-.322.507-.69.969-.973a2.9 2.9 0 0 1 1.53-.421c.53 0 1.059.128 1.535.418.463.282.77.65.972.973.307.492.478 1.09.545 1.324l.018.061 1.043 3.322.003.01a.53.53 0 0 0 .667.366.45.45 0 0 0 .168-.095c.029-.028.035-.045.037-.052 1-3.24 1.017-7.943 1.017-9.973a52 52 0 0 0-.178-4.32c-.082-.98-.825-1.57-1.738-1.532-.258.01-.391.067-.959.307l-.134.057c-.696.295-1.619.634-2.992.634-1.374 0-2.296-.34-2.993-.634l-.134-.057c-.567-.24-.7-.297-.957-.307-.912-.038-1.655.552-1.737 1.531a52 52 0 0 0-.178 4.32c0 2.031.017 6.735 1.017 9.975.002.006.008.023.037.05a.45.45 0 0 0 .168.096.53.53 0 0 0 .667-.367zm5.26-2.734-.035-.12c-.175-.588-.37-1.245-1.118-1.244-.747.001-.941.656-1.116 1.243l-.036.12-1.044 3.325a2.53 2.53 0 0 1-3.208 1.685c-.695-.23-1.27-.749-1.489-1.455-1.105-3.581-1.106-8.601-1.106-10.564 0-1.657.075-3.167.185-4.486C4.364 3.232 6.107 1.925 8 2.003c.64.027 1.106.228 1.604.442.62.267 1.288.555 2.397.555s1.777-.288 2.397-.554c.499-.215.966-.416 1.605-.443 1.895-.078 3.637 1.23 3.814 3.365.11 1.319.185 2.83.185 4.486 0 1.963 0 6.983-1.106 10.564-.219.706-.794 1.225-1.49 1.455a2.53 2.53 0 0 1-3.207-1.685z"/></svg>