<svg xmlns="http://www.w3.org/2000/svg" viewBox="0 0 32 32"><path d="M13.232 8.234c-.182.183-.196.364-.223.727a4 4 0 0 0 0 .578c.027.363.04.545.223.727s.364.196.728.223a4 4 0 0 0 .576 0c.364-.027.546-.04.728-.223.182-.182.196-.364.223-.727a4 4 0 0 0 0-.578c-.027-.363-.04-.544-.223-.727-.182-.182-.364-.196-.727-.223a4 4 0 0 0-.577 0c-.364.027-.545.04-.728.223m3.278.728c.026-.364.04-.545.222-.728.183-.182.364-.196.727-.223a4 4 0 0 1 .578 0c.363.027.544.04.727.223s.196.364.223.727a4 4 0 0 1 0 .578c-.027.363-.04.545-.223.727s-.364.196-.727.223a4 4 0 0 1-.578 0c-.363-.027-.544-.04-.727-.223-.182-.182-.196-.364-.223-.727a4 4 0 0 1 0-.578"/><path fill-rule="evenodd" d="M9.498 4.667v7.845c-.747.024-1.232.1-1.644.332a2.76 2.76 0 0 0-1.012 1.012c-.344.61-.344 1.344-.344 2.81v5.911c0 2.986 0 4.479 1.015 5.617s2.332 1.289 4.967 1.59c1.128.13 2.329.216 3.518.216 1.19 0 2.39-.087 3.518-.216 2.635-.301 3.952-.452 4.967-1.59s1.015-2.631 1.015-5.617v-5.91c0-1.467 0-2.2-.344-2.81a2.76 2.76 0 0 0-1.012-1.013c-.412-.232-.897-.308-1.644-.332V4.667A2.667 2.667 0 0 0 19.831 2h-7.666a2.667 2.667 0 0 0-2.667 2.667M19.831 4.5h-7.666a.167.167 0 0 0-.167.167V12.5h8V4.667a.167.167 0 0 0-.167-.167M13.248 22a1.25 1.25 0 0 0 0 2.5h5.5a1.25 1.25 0 1 0 0-2.5z"/></svg>