<svg xmlns="http://www.w3.org/2000/svg" viewBox="0 0 32 32"><path fill-rule="evenodd" d="M9.498 12.512V4.667A2.667 2.667 0 0 1 12.165 2h7.666a2.667 2.667 0 0 1 2.667 2.667v7.845c.747.024 1.232.1 1.644.332.408.23.782.604 1.012 1.012.344.61.344 1.344.344 2.81v5.911c0 2.986 0 4.479-1.015 5.617s-2.332 1.289-4.967 1.59a31 31 0 0 1-3.518.216c-1.19 0-2.39-.087-3.518-.216-2.635-.301-3.952-.452-4.967-1.59s-1.015-2.631-1.015-5.617v-5.91c0-1.467 0-2.2.344-2.81.23-.409.604-.783 1.012-1.013.412-.232.897-.308 1.644-.332M12.165 4.5h7.666c.092 0 .167.075.167.167V12.5h-8V4.667c0-.092.075-.167.167-.167M10.78 15c-.818 0-1.261.002-1.581.032a2 2 0 0 0-.149.018v.001l-.005.005-.016.126c-.028.294-.031.703-.031 1.485v5.91c0 1.564.006 2.476.102 3.148.08.566.194.71.279.805.123.138.252.245.678.363.548.152 1.301.246 2.67.403l.037.004c1.059.122 2.162.2 3.234.2s2.175-.078 3.234-.2c1.392-.16 2.154-.253 2.707-.407.426-.118.555-.225.678-.363.085-.095.198-.24.28-.805.095-.672.101-1.584.101-3.148v-5.91c0-.782-.003-1.19-.031-1.485l-.016-.126-.004-.005h-.001a2 2 0 0 0-.149-.019c-.32-.03-.763-.032-1.581-.032z"/><path d="M13.232 8.234c-.182.183-.196.364-.223.727a4 4 0 0 0 0 .578c.027.363.04.545.223.727s.364.196.728.223a4 4 0 0 0 .576 0c.364-.027.546-.04.728-.223.182-.182.196-.364.223-.727a4 4 0 0 0 0-.578c-.027-.363-.04-.544-.223-.727-.182-.182-.364-.196-.727-.223a4 4 0 0 0-.578 0c-.363.027-.544.04-.727.223m3.5 0c-.182.183-.196.364-.223.727a4 4 0 0 0 0 .578c.027.363.04.545.223.727s.364.196.727.223a4 4 0 0 0 .578 0c.363-.027.544-.04.727-.223.182-.182.196-.364.223-.727a4 4 0 0 0 0-.578c-.027-.363-.04-.544-.223-.727s-.364-.196-.727-.223a4 4 0 0 0-.578 0c-.363.027-.544.04-.727.223M11.998 23.25c0-.69.56-1.25 1.25-1.25h5.5a1.25 1.25 0 0 1 0 2.5h-5.5c-.69 0-1.25-.56-1.25-1.25"/></svg>