<svg xmlns="http://www.w3.org/2000/svg" viewBox="0 0 17 17"><path d="M6.523 3.868c-.116.116-.124.232-.142.463a2.5 2.5 0 0 0 0 .368c.018.232.026.347.142.464.117.116.233.124.464.142a2.5 2.5 0 0 0 .368 0c.231-.018.347-.026.464-.142.116-.117.124-.232.142-.464a2.5 2.5 0 0 0 0-.368c-.018-.231-.026-.347-.142-.463-.117-.117-.233-.125-.464-.143a2.5 2.5 0 0 0-.368 0c-.231.018-.347.026-.464.143m2.514.463c.018-.231.026-.347.142-.463.117-.117.232-.125.464-.143a2.5 2.5 0 0 1 .368 0c.231.018.347.026.463.143s.125.232.143.463a2.5 2.5 0 0 1 0 .368c-.018.232-.026.347-.143.464-.116.116-.232.124-.463.142a2.5 2.5 0 0 1-.368 0c-.232-.018-.347-.026-.464-.142-.116-.117-.124-.232-.142-.464a2.5 2.5 0 0 1 0-.368"/><path fill-rule="evenodd" d="M4.251 2.051v4.405q-.164.041-.3.12a1.6 1.6 0 0 0-.563.562c-.2.351-.2.777-.2 1.627v3.508c0 1.68 0 2.52.576 3.169.578.648 1.313.733 2.782.904.623.073 1.288.12 1.953.12s1.33-.047 1.952-.12c1.47-.17 2.205-.256 2.782-.904.578-.649.578-1.489.578-3.169V8.765c0-.85 0-1.276-.201-1.627a1.6 1.6 0 0 0-.563-.562 1.2 1.2 0 0 0-.3-.12V2.05c0-.84-.681-1.52-1.52-1.52H5.77c-.84 0-1.52.68-1.52 1.52m1.594.074v4.25h5.308v-4.25zm1.326 9.561a.797.797 0 1 0 0 1.594h2.656a.797.797 0 1 0 0-1.594z"/></svg>