<svg xmlns="http://www.w3.org/2000/svg" viewBox="0 0 44 44"><path d="M23.765 12.807a1.5 1.5 0 0 1 1.47-2.614l.044.024.12.068c.105.06.258.147.451.259a140 140 0 0 1 6.473 3.968c1.767 1.159 3.576 2.428 4.957 3.593.687.58 1.312 1.17 1.778 1.739.403.49.942 1.26.942 2.156s-.539 1.665-.942 2.156c-.466.569-1.091 1.159-1.778 1.739-1.381 1.165-3.19 2.434-4.957 3.593a142 142 0 0 1-6.924 4.226l-.12.069-.043.024a1.5 1.5 0 0 1-1.471-2.614l.002-.001.035-.02.114-.065.437-.25c.378-.218.92-.532 1.569-.918 1.301-.773 3.03-1.827 4.755-2.959 1.734-1.137 3.425-2.33 4.668-3.378l.12-.102H7.5a1.5 1.5 0 0 1 0-3h27.965l-.12-.102c-1.243-1.049-2.934-2.24-4.668-3.378a128 128 0 0 0-4.755-2.959 137 137 0 0 0-2.006-1.168l-.114-.065z"/></svg>