<svg xmlns="http://www.w3.org/2000/svg" viewBox="0 0 32 32"><path d="M15 24.01c0-.442.233-.852.612-1.08l2.93-1.757c2.795-1.677 4.644-2.793 5.828-3.766q.1-.081.187-.157H4.25a1.25 1.25 0 1 1 0-2.5h20.308l-.188-.158c-1.184-.973-3.033-2.09-5.828-3.766l-2.93-1.758A1.26 1.26 0 0 1 15 7.988c0-.722.582-1.23 1.223-1.242.22-.004.448.042.662.17l2.943 1.766.01.006C25.278 11.952 28 13.585 28 15.999c0 2.415-2.722 4.048-8.162 7.312l-.01.006-2.943 1.766a1.23 1.23 0 0 1-.666.163 1.23 1.23 0 0 1-1.22-1.236"/></svg>