<svg xmlns="http://www.w3.org/2000/svg" viewBox="0 0 44 44"><path fill-rule="evenodd" d="M9.04 9.04c-2.428 2.429-2.592 4.82-2.92 9.6A49 49 0 0 0 6 22c0 1.13.045 2.26.12 3.36.328 4.781.492 7.172 2.92 9.6s4.819 2.592 9.6 2.92c1.1.075 2.23.12 3.36.12s2.26-.045 3.36-.12c4.781-.328 7.172-.492 9.6-2.92s2.592-4.819 2.92-9.6c.075-1.1.12-2.23.12-3.36s-.045-2.26-.12-3.36c-.328-4.78-.492-7.171-2.92-9.6s-4.819-2.592-9.6-2.92A49 49 0 0 0 22 6c-1.13 0-2.26.045-3.36.12-4.781.328-7.171.492-9.6 2.92m21.463 11.075a1.5 1.5 0 1 0-2.007-2.23l-.013.012-.044.04-.17.15a80 80 0 0 1-2.522 2.147 29 29 0 0 1-1.813 1.379 8 8 0 0 1-.432.278 5 5 0 0 1-.201-.144 22 22 0 0 1-1.06-.873l-.268-.23a16 16 0 0 0-1.248-.988 5 5 0 0 0-.703-.411A2.45 2.45 0 0 0 19 19c-.423 0-.802.137-1.036.235a7 7 0 0 0-.793.407c-.51.301-1.064.689-1.565 1.06a41 41 0 0 0-2.034 1.618l-.035.03-.013.011a1.5 1.5 0 0 0 1.952 2.278l.008-.007.03-.025a35 35 0 0 1 .54-.45c.358-.291.84-.674 1.34-1.046.466-.346.923-.662 1.301-.885q.15-.088.261-.145l.067.045c.274.188.606.463 1.004.801l.231.198.002.002c.395.34.84.72 1.245 1.023.247.185.525.376.812.526.255.133.68.324 1.183.324.52 0 .986-.232 1.204-.346a9 9 0 0 0 .921-.563 32 32 0 0 0 2.012-1.527 79 79 0 0 0 2.801-2.39l.048-.043z"/></svg>