<svg xmlns="http://www.w3.org/2000/svg" viewBox="0 0 16 16"><path d="M11.5 7.25a.75.75 0 0 1-.22.53l-1.168 1.17c-.198.198-.396.396-.582.538-.212.162-.495.32-.863.32s-.651-.158-.864-.32a6 6 0 0 1-.582-.539l-.133-.135c-.137-.139-.273-.278-.421-.403a10 10 0 0 0-.45.434l-.437.436a.75.75 0 0 1-1.06 0 .75.75 0 0 1 0-1.06l.464-.465c.198-.198.396-.396.582-.538.213-.162.533-.358.9-.358.369 0 .652.159.864.32.186.143.384.341.582.54l.134.135c.136.138.272.278.42.403.091-.077.212-.196.413-.397l1.14-1.14a.75.75 0 0 1 1.061 0c.147.146.22.338.22.53"/><path fill-rule="evenodd" d="M3.124 3.125c-.875.875-.94 1.747-1.07 3.491C2.02 7.068 2 7.535 2 8.001s.02.933.054 1.385c.13 1.744.195 2.616 1.07 3.491s1.747.94 3.491 1.07C7.067 13.98 7.534 14 8 14s.933-.02 1.385-.054c1.744-.13 2.616-.195 3.491-1.07s.94-1.747 1.07-3.491C13.98 8.934 14 8.467 14 8s-.02-.933-.054-1.385c-.13-1.744-.195-2.616-1.07-3.491s-1.747-.94-3.491-1.07A19 19 0 0 0 8 2.001c-.466 0-.933.02-1.385.054-1.744.13-2.616.195-3.491 1.07M8 3.501c-.423 0-.852.019-1.273.05-1.845.137-2.122.214-2.542.635-.42.42-.498.697-.635 2.542-.031.42-.05.85-.05 1.273s.019.852.05 1.273c.137 1.845.214 2.122.635 2.542.42.42.697.498 2.542.635.42.031.85.05 1.273.05s.852-.019 1.273-.05c1.845-.137 2.122-.214 2.542-.635.42-.42.498-.697.635-2.542.032-.42.05-.85.05-1.273s-.018-.852-.05-1.273c-.137-1.845-.214-2.122-.635-2.542-.42-.42-.697-.498-2.542-.635-.42-.031-.85-.05-1.273-.05"/></svg>