<svg xmlns="http://www.w3.org/2000/svg" viewBox="0 0 16 16"><path fill-rule="evenodd" d="M2.054 6.616c.13-1.744.195-2.616 1.07-3.491s1.747-.94 3.491-1.07A19 19 0 0 1 8 2.001c.466 0 .933.02 1.385.054 1.744.13 2.616.195 3.491 1.07s.94 1.747 1.07 3.491c.034.452.054.919.054 1.385s-.02.933-.054 1.385c-.13 1.744-.195 2.616-1.07 3.491s-1.747.94-3.491 1.07C8.933 13.98 8.466 14 8 14s-.933-.02-1.385-.054c-1.744-.13-2.616-.195-3.491-1.07s-.94-1.747-1.07-3.491A19 19 0 0 1 2 8c0-.466.02-.933.054-1.385m9.446.634a.75.75 0 0 1-.22.53L10.112 8.95c-.198.198-.396.396-.582.538-.212.162-.495.32-.863.32s-.651-.158-.864-.32a6 6 0 0 1-.582-.539l-.133-.135c-.137-.139-.273-.278-.421-.403a10 10 0 0 0-.45.434l-.437.436a.75.75 0 0 1-1.06 0 .75.75 0 0 1 0-1.06l.464-.465c.198-.198.396-.396.582-.538.213-.162.533-.358.9-.358.369 0 .652.159.864.32.186.143.384.341.582.54l.134.135c.136.138.272.278.42.403.091-.077.212-.196.413-.397l1.14-1.14a.75.75 0 0 1 1.061 0c.147.146.22.338.22.53"/></svg>