<svg xmlns="http://www.w3.org/2000/svg" viewBox="0 0 44 44"><path fill-rule="evenodd" d="M18.845 9.114A46 46 0 0 1 22 9c1.051 0 2.112.042 3.156.114 4.974.34 6.17.535 7.683 2.048s1.707 2.708 2.048 7.683C34.958 19.888 35 20.949 35 22a46 46 0 0 1-.113 3.156c-.341 4.974-.536 6.17-2.048 7.683s-2.71 1.707-7.683 2.048A46 46 0 0 1 22 35c-1.051 0-2.112-.042-3.155-.113-4.975-.341-6.17-.535-7.683-2.048s-1.708-2.709-2.049-7.683A46 46 0 0 1 9 22c0-1.051.042-2.112.113-3.155.341-4.974.536-6.17 2.049-7.683s2.708-1.707 7.682-2.048M6.12 18.64c.328-4.78.492-7.171 2.92-9.6s4.819-2.592 9.6-2.92C19.74 6.046 20.87 6 22 6s2.26.045 3.36.12c4.781.328 7.172.492 9.6 2.92s2.592 4.82 2.92 9.6c.075 1.1.12 2.23.12 3.36s-.045 2.26-.12 3.36c-.328 4.781-.492 7.172-2.92 9.6s-4.819 2.592-9.6 2.92c-1.1.075-2.23.12-3.36.12s-2.26-.045-3.36-.12c-4.781-.328-7.171-.492-9.6-2.92s-2.592-4.819-2.92-9.6A49 49 0 0 1 6 22c0-1.13.045-2.26.12-3.36m24.383 1.475a1.5 1.5 0 1 0-2.007-2.23l-.013.012-.044.04-.17.15a80 80 0 0 1-2.522 2.147 29 29 0 0 1-1.813 1.379 8 8 0 0 1-.432.278 5 5 0 0 1-.201-.144 22 22 0 0 1-1.06-.873l-.268-.23a16 16 0 0 0-1.248-.988 5 5 0 0 0-.703-.411A2.45 2.45 0 0 0 19 19c-.423 0-.802.137-1.036.235a7 7 0 0 0-.793.407c-.51.301-1.064.689-1.565 1.06a41 41 0 0 0-2.034 1.618l-.035.03-.013.011a1.5 1.5 0 0 0 1.952 2.278l.008-.007.03-.025a35 35 0 0 1 .54-.45c.358-.291.84-.674 1.34-1.046.466-.346.923-.662 1.301-.885q.15-.088.261-.145l.067.045c.274.188.606.463 1.004.801l.231.198.002.002c.395.34.84.72 1.245 1.023.247.185.525.376.812.526.255.133.68.324 1.183.324.52 0 .986-.232 1.204-.346a9 9 0 0 0 .921-.563 32 32 0 0 0 2.012-1.527 79 79 0 0 0 2.801-2.39l.048-.043z"/></svg>