<svg xmlns="http://www.w3.org/2000/svg" viewBox="0 0 24 24"><path fill-rule="evenodd" d="M3.081 9.924C3.276 7.308 3.373 6 4.686 4.687c1.313-1.312 2.62-1.41 5.237-1.604C10.6 3.032 11.3 3 12 3s1.399.031 2.077.082c2.616.194 3.924.292 5.237 1.604s1.41 2.621 1.605 5.237c.05.678.081 1.378.081 2.078 0 .699-.03 1.398-.081 2.077-.195 2.616-.292 3.924-1.605 5.236-1.313 1.313-2.62 1.41-5.237 1.605-.678.05-1.377.081-2.077.081s-1.399-.03-2.077-.08c-2.616-.195-3.924-.293-5.237-1.605s-1.41-2.621-1.605-5.237A28 28 0 0 1 3 12c0-.7.03-1.399.081-2.077M17.5 10.5a1 1 0 0 1-.293.706l-1.595 1.596c-.445.445-.892.86-1.393 1.242-.307.235-.705.455-1.219.455s-.912-.22-1.219-.455c-.273-.208-.564-.414-.864-.714l-.21-.21c-.353-.353-.549-.545-.701-.662L10 12.455l-.006.004c.006-.004-.869.785-1.273 1.213q-.255.275-.514.535a.997.997 0 0 1-1.414 0 .997.997 0 0 1 0-1.414 160 160 0 0 1 1.988-1.924c.307-.234.705-.455 1.219-.455s.912.22 1.219.455c.273.208.564.5.864.8.287.287.588.54.911.786l.006.004.006-.004c.42-.321.794-.67 1.168-1.044l1.619-1.618a.997.997 0 0 1 1.414 0 1 1 0 0 1 .293.708"/></svg>