<svg xmlns="http://www.w3.org/2000/svg" viewBox="0 0 24 24"><path fill-rule="evenodd" d="M7.945 5.168A47 47 0 0 1 12 5c1.55 0 2.902.068 4.055.168 1.015.088 1.775.154 2.444.36 1.385.43 2.647 1.682 3.075 3.069.199.644.26 1.37.34 2.335a25 25 0 0 1 0 4.137c-.064.769-.116 1.386-.235 1.931H22a1 1 0 1 1 0 2H2a1 1 0 1 1 0-2h.322c-.12-.545-.17-1.161-.235-1.93a25 25 0 0 1 0-4.14c.08-.965.141-1.69.34-2.333.428-1.387 1.69-2.64 3.075-3.068.668-.207 1.429-.273 2.443-.361m-.936 5.601c.022-.29.032-.436.178-.582s.292-.156.582-.178a3 3 0 0 1 .462 0c.29.022.436.032.582.178s.156.292.178.582a3 3 0 0 1 0 .462c-.022.29-.032.436-.178.582s-.292.156-.582.178a3 3 0 0 1-.462 0c-.29-.022-.436-.032-.582-.178s-.156-.292-.178-.582a3 3 0 0 1 0-.462m4.178-.582c-.146.146-.156.292-.178.582a3 3 0 0 0 0 .462c.022.29.032.436.178.582s.292.156.582.178a3 3 0 0 0 .462 0c.29-.022.436-.032.582-.178s.156-.292.178-.582a3 3 0 0 0 0-.462c-.022-.29-.032-.436-.178-.582s-.292-.156-.582-.178a3 3 0 0 0-.462 0c-.29.022-.436.032-.582.178M9.01 12.77c.022-.29.032-.436.178-.582s.292-.156.582-.178a3 3 0 0 1 .462 0c.29.022.436.032.582.178s.156.292.178.582a3 3 0 0 1 0 .462c-.022.29-.032.436-.178.582s-.292.156-.582.178a3 3 0 0 1-.462 0c-.29-.022-.436-.032-.582-.178s-.156-.292-.178-.582a3 3 0 0 1 0-.462m4 0c.022-.29.032-.436.178-.582s.292-.156.582-.178a3 3 0 0 1 .462 0c.29.022.436.032.582.178s.156.292.178.582a3 3 0 0 1 0 .462c-.022.29-.032.436-.178.582s-.292.156-.582.178a3 3 0 0 1-.462 0c-.29-.022-.436-.032-.582-.178s-.156-.292-.178-.582a3 3 0 0 1 0-.462m2-2c.022-.29.032-.436.178-.582s.292-.156.582-.178a3 3 0 0 1 .462 0c.29.022.436.032.582.178s.156.292.178.582a3 3 0 0 1 0 .462c-.022.29-.032.436-.178.582s-.291.156-.582.178a3 3 0 0 1-.462 0c-.29-.022-.436-.032-.582-.178s-.156-.292-.178-.582a3 3 0 0 1 0-.462"/></svg>