<svg xmlns="http://www.w3.org/2000/svg" viewBox="0 0 16 16"><path fill-rule="evenodd" d="M1.061 9.926c.055.649.097 1.139.228 1.574H.75a.75.75 0 0 0 0 1.5h14.5a.75.75 0 0 0 0-1.5h-.539c.131-.435.173-.926.228-1.575a17 17 0 0 0 0-2.85A15 15 0 0 0 14.823 6C14.588 4.561 13.43 3.464 12 3.24c-.32-.051-.678-.083-1.101-.12C10.079 3.05 9.112 3 8 3s-2.08.049-2.9.12c-.422.038-.78.069-1.1.12C2.572 3.463 1.412 4.56 1.177 6c-.05.312-.08.66-.116 1.074a17 17 0 0 0 0 2.852m3.58-3.285c-.11.109-.118.218-.134.436a2.4 2.4 0 0 0 0 .346c.016.218.024.327.134.436.109.11.218.118.436.134a2.4 2.4 0 0 0 .346 0c.218-.016.327-.024.436-.134.11-.109.118-.218.134-.436a2.4 2.4 0 0 0 0-.346c-.016-.218-.024-.327-.134-.436-.109-.11-.218-.118-.436-.134a2.4 2.4 0 0 0-.346 0c-.218.016-.327.024-.436.134m2.616.436c.016-.218.024-.327.134-.436.109-.11.218-.118.436-.134a2.4 2.4 0 0 1 .346 0c.218.016.327.024.437.134.109.109.117.218.133.436a2.4 2.4 0 0 1 0 .346c-.016.218-.024.327-.133.436-.11.11-.219.118-.437.134a2.4 2.4 0 0 1-.346 0c-.218-.016-.327-.024-.436-.134-.11-.109-.118-.218-.134-.436a2.4 2.4 0 0 1 0-.346m-1.25 1.5c.016-.218.024-.327.134-.437.109-.109.218-.117.436-.133a2.4 2.4 0 0 1 .346 0c.218.016.327.024.436.133.11.11.118.219.134.437a2.4 2.4 0 0 1 0 .346c-.016.218-.024.327-.134.437-.109.109-.218.117-.436.133a2.4 2.4 0 0 1-.346 0c-.218-.016-.327-.024-.436-.133-.11-.11-.118-.219-.134-.437a2.4 2.4 0 0 1 0-.346M8.64 8.14c-.109.11-.117.219-.133.437a2.4 2.4 0 0 0 0 .346c.016.218.024.327.133.437s.219.117.437.133a2.4 2.4 0 0 0 .346 0c.218-.016.327-.024.437-.133s.117-.219.133-.437a2.4 2.4 0 0 0 0-.346c-.016-.218-.024-.327-.133-.437s-.219-.117-.437-.133a2.4 2.4 0 0 0-.346 0c-.218.016-.327.024-.437.133m1.367-1.063c.016-.218.024-.327.133-.436.11-.11.219-.118.437-.134a2.4 2.4 0 0 1 .346 0c.218.016.327.024.437.134.109.109.117.218.133.436a2 2 0 0 1 0 .346c-.016.218-.024.327-.133.436-.11.11-.219.118-.437.134a2.4 2.4 0 0 1-.346 0c-.218-.016-.327-.024-.437-.134-.109-.109-.117-.218-.133-.436a2 2 0 0 1 0-.346"/></svg>