<svg xmlns="http://www.w3.org/2000/svg" viewBox="0 0 24 24"><path fill-rule="evenodd" d="M10 18.986c-3.909-.223-7-3.042-7-6.486 0-1.707.759-3.26 2-4.42C4.958 4.78 7.7 2 11 2c2.007 0 3.783.985 4.873 2.498C18.872 5.58 21 8.307 21 11.5c0 3.825-3.054 6.98-7 7.442V20a2 2 0 1 1-4 0zm4.611-12.817-.362-.502A4 4 0 0 0 7 8l.013.938-.646.604C5.479 10.37 5 11.412 5 12.5c0 2.226 2.184 4.5 5.5 4.5h.5v-2.586l-1.707-1.707a1 1 0 1 1 1.414-1.414l.293.293V8a1 1 0 1 1 2 0v9c3.437 0 6-2.582 6-5.5 0-2.259-1.51-4.292-3.806-5.12z"/></svg>