<svg xmlns="http://www.w3.org/2000/svg" viewBox="0 0 16 16"><path fill-rule="evenodd" d="M3.046 5.791C2.39 6.545 2 7.483 2 8.501c0 2.281 1.96 4.166 4.5 4.46v.54a1.5 1.5 0 1 0 3 0v-.588c2.561-.444 4.5-2.55 4.5-5.08 0-2.075-1.305-3.864-3.187-4.686a4.167 4.167 0 0 0-7.766 2.644m1.587.463-.456.523C3.735 7.284 3.5 7.88 3.5 8.5c0 1.463 1.444 3 3.692 3h.058V9.819l-1.034-1.04A.75.75 0 0 1 7.25 7.691V5.75a.75.75 0 1 1 1.5 0v5.743c2.174-.125 3.75-1.798 3.75-3.66 0-1.415-.891-2.702-2.287-3.311l-.466-.203-.246-.444A2.667 2.667 0 0 0 4.53 5.568z"/></svg>