<svg xmlns="http://www.w3.org/2000/svg" viewBox="0 0 44 44"><path d="m21.039 10.348-5.94 4.95c.069-2.286.168-4.205.268-5.748.145-2.23.218-3.345 1.146-4.29.929-.945 1.915-1.027 3.887-1.19.523-.044 1.061-.07 1.6-.07s1.078.026 1.6.07c1.972.163 2.959.245 3.887 1.19s1.001 2.06 1.146 4.29c.1 1.544.2 3.463.269 5.75l-5.943-4.952a1.5 1.5 0 0 0-1.92 0"/><path d="M28.939 27.33a226 226 0 0 0 .045-8.056L22 13.453l-6.983 5.819a233 233 0 0 0 .045 8.057l5.978-4.981a1.5 1.5 0 0 1 1.92 0z"/><path d="M28.662 34H15.338a158 158 0 0 1-.15-2.871l6.811-5.676 6.813 5.677q-.07 1.591-.15 2.87M6 40h32c-.134-.58-.384-1.057-.874-1.559-.97-.992-2.08-1.053-4.302-1.173-2.563-.14-6.186-.268-10.826-.268-4.638 0-8.26.129-10.823.268-2.22.12-3.33.18-4.3 1.173-.49.502-.74.979-.875 1.559"/></svg>