<svg xmlns="http://www.w3.org/2000/svg" viewBox="0 0 24 24"><path fill-rule="evenodd" d="M7.737 18.925c.034.456.062.828.11 1.14q-1.125.038-1.968.085c-1.209.065-1.813.097-2.342.637-.364.372-.486.717-.537 1.213h18c-.052-.496-.173-.841-.537-1.213-.53-.54-1.134-.572-2.342-.637q-.844-.046-1.968-.085c.048-.312.076-.684.11-1.14.12-1.594.237-3.912.237-6.924a93 93 0 0 0-.236-6.925c-.092-1.219-.138-1.828-.636-2.335-.497-.507-1.064-.561-2.198-.669A15 15 0 0 0 12 2c-.486 0-.972.029-1.43.072-1.134.108-1.7.162-2.198.669-.497.507-.543 1.116-.635 2.335A93 93 0 0 0 7.5 12c0 3.012.116 5.33.237 6.924M11.93 20a13 13 0 0 1-1.171-.063 23 23 0 0 1-.688-.072 4 4 0 0 1-.237-.036 5 5 0 0 1-.041-.308c-.022-.2-.04-.434-.063-.747a71 71 0 0 1-.097-1.501l2.365-1.971 2.367 1.972q-.045.838-.097 1.5c-.023.313-.041.547-.062.747a4 4 0 0 1-.042.308q-.083.016-.236.036a23 23 0 0 1-.688.072c-.387.037-.784.06-1.172.063zm2.535-5.247-1.826-1.521a1 1 0 0 0-1.28 0l-1.825 1.52a107 107 0 0 1-.03-3.872L12 8.802l2.496 2.079a113 113 0 0 1-.03 3.872m-.032-6.526L12.64 6.732a1 1 0 0 0-1.28 0L9.565 8.226c.044-1.193.104-2.195.165-3 .024-.313.041-.547.063-.747.014-.139.028-.237.04-.308.058-.01.134-.023.238-.036.182-.023.395-.044.688-.072C11.169 4.024 11.59 4 12 4s.831.024 1.24.063c.293.028.506.049.688.072.104.013.18.025.237.036.013.07.027.17.042.308.02.2.039.434.062.747.061.806.121 1.807.165 3"/></svg>