<svg xmlns="http://www.w3.org/2000/svg" viewBox="0 0 32 32"><path fill-rule="evenodd" d="M4 29h24c-.08-.574-.253-.997-.697-1.45-.706-.72-1.511-.763-3.122-.85q-1.14-.061-2.664-.114c.08-.448.122-.99.175-1.678.157-2.069.308-5.05.308-8.907s-.15-6.84-.308-8.908c-.124-1.625-.186-2.438-.852-3.114s-1.425-.746-2.944-.886A21 21 0 0 0 16 3c-.645 0-1.29.037-1.897.093-1.52.14-2.279.21-2.944.886s-.727 1.489-.851 3.113c-.158 2.07-.308 5.052-.308 8.91 0 3.856.15 6.838.308 8.906.052.688.094 1.23.174 1.678q-1.523.051-2.664.114c-1.61.087-2.416.13-3.122.85-.444.452-.617.876-.696 1.45m12-2.5c.552 0 1.118-.032 1.667-.082.39-.037.68-.063.927-.094.219-.028.354-.052.44-.073a4 4 0 0 0 .08-.532c.029-.27.053-.584.085-1.001q.055-.717.106-1.587l-3.304-2.754-3.307 2.756q.051.87.106 1.585c.032.417.056.731.085 1.001.029.267.056.428.08.532.086.02.222.045.44.073.247.03.536.057.927.093A18 18 0 0 0 16 26.5m-3.443-6.507 2.644-2.203a1.25 1.25 0 0 1 1.6 0l2.641 2.2a135 135 0 0 0 .052-5.201L16 11.877l-3.495 2.913q-.006.59-.006 1.211.002 2.192.058 3.991m.017-8.515c.058-1.677.141-3.078.226-4.196.032-.417.057-.731.085-1.001a5 5 0 0 1 .08-.532c.087-.02.222-.045.44-.073.248-.03.537-.057.928-.094.548-.05 1.115-.082 1.667-.082s1.118.032 1.666.082c.392.036.68.063.928.094.219.028.354.052.44.073.024.104.052.265.08.532.029.27.053.585.085 1.002.085 1.117.168 2.518.226 4.194L16.8 9.29a1.25 1.25 0 0 0-1.6 0z"/></svg>