<svg xmlns="http://www.w3.org/2000/svg" viewBox="0 0 24 24"><path d="M15.788 5.046q.07 1.012.127 2.415l-3.275-2.73a1 1 0 0 0-1.28 0l-3.275 2.73q.058-1.403.127-2.416c.083-1.217.124-1.825.626-2.338s1.048-.562 2.138-.659C11.31 2.018 11.654 2 12 2s.691.018 1.024.048c1.09.097 1.636.146 2.138.659.503.513.544 1.121.626 2.339"/><path d="m15.975 14.511-3.335-2.78a1 1 0 0 0-1.28 0l-3.335 2.78a124 124 0 0 1-.011-4.388L12 6.802l3.986 3.322a125 125 0 0 1-.01 4.387"/><path d="M15.894 17.047q-.022.504-.048.953H8.154a89 89 0 0 1-.048-.954L12 13.802zM3 22h18c-.052-.496-.173-.841-.537-1.213-.53-.54-1.134-.572-2.342-.637-1.437-.078-3.486-.15-6.122-.15s-4.684.072-6.12.15c-1.209.065-1.813.097-2.342.637-.364.372-.486.717-.537 1.213"/></svg>