<svg xmlns="http://www.w3.org/2000/svg" viewBox="0 0 32 32"><path d="m15.199 6.29-4.581 3.817c.048-1.169.107-2.183.168-3.04.114-1.626.17-2.438.84-3.12s1.41-.748 2.89-.878c.481-.042.983-.069 1.485-.069s1.005.027 1.486.07c1.48.13 2.219.195 2.889.877s.727 1.494.841 3.12c.06.857.12 1.873.168 3.044L16.8 6.29a1.25 1.25 0 0 0-1.6 0"/><path d="M21.458 19.672a151 151 0 0 0 .023-6.227l-5.482-4.568-5.477 4.564a154 154 0 0 0 .023 6.227l4.654-3.878a1.25 1.25 0 0 1 1.6 0z"/><path d="M10.725 24h10.553q.034-.55.064-1.17L16 18.377l-5.339 4.45q.03.62.065 1.173m-6.724 5h24c-.08-.574-.253-.997-.697-1.45-.706-.72-1.511-.763-3.122-.85-1.919-.103-4.658-.2-8.183-.2s-6.262.097-8.18.2c-1.61.087-2.416.13-3.122.85-.444.453-.617.876-.696 1.45"/></svg>