<svg xmlns="http://www.w3.org/2000/svg" viewBox="0 0 16 16"><path d="M7.52 3.174 5.552 4.812q.04-1.053.086-1.792c.05-.807.076-1.21.41-1.555.336-.344.684-.375 1.382-.438Q7.711 1 8 1t.569.027c.697.063 1.046.094 1.381.438.335.345.36.748.41 1.555q.048.738.087 1.793L8.48 3.173a.75.75 0 0 0-.96 0"/><path d="M10.49 9.35a99 99 0 0 0 .003-2.546L8 4.726 5.507 6.803A99 99 0 0 0 5.51 9.35l2.01-1.675a.75.75 0 0 1 .96 0z"/><path d="M5.586 12h4.828l.03-.737L8 9.226l-2.444 2.036zM2 15h12c-.026-.424-.09-.688-.371-.975-.353-.36-.756-.382-1.562-.425-.955-.052-2.317-.1-4.068-.1s-3.112.048-4.067.1c-.805.043-1.208.065-1.561.425-.282.287-.345.551-.371.975"/></svg>