<svg xmlns="http://www.w3.org/2000/svg" viewBox="0 0 44 44"><path d="M24.567 21.56a1.5 1.5 0 0 0-2.122-2.122l-3 3.002a1.5 1.5 0 0 0 2.121 2.122z"/><path fill-rule="evenodd" d="M6.005 16.546c0-.796.316-1.56.879-2.122l7.545-7.545a3 3 0 0 1 4.244 0l3.333 3.332 3.325-3.325a3 3 0 0 1 4.244 0l7.546 7.545a3 3 0 0 1 0 4.244l-3.326 3.326 3.33 3.33a3 3 0 0 1 0 4.245l-7.544 7.545a3 3 0 0 1-4.244 0l-3.331-3.331-3.324 3.324a3 3 0 0 1-4.244 0l-7.546-7.545a3 3 0 0 1 0-4.244L10.216 22l-3.332-3.333a3 3 0 0 1-.88-2.122m6.333 3.333 7.546-7.545L16.55 9l-7.545 7.545zm11.79 11.789 3.33 3.33 7.546-7.544-3.331-3.331zm10.87-15.115L16.56 34.992l-2.712-2.712 2.216-2.217a1.5 1.5 0 1 0-2.122-2.122l-2.216 2.217-2.712-2.711 18.44-18.44 2.71 2.712-2.217 2.218a1.5 1.5 0 0 0 2.122 2.122l2.218-2.218z"/></svg>