<svg xmlns="http://www.w3.org/2000/svg" viewBox="0 0 32 32"><path d="m4.731 13.924.309.308 9.192-9.192-.308-.309a2.5 2.5 0 0 0-3.536 0l-5.657 5.657a2.5 2.5 0 0 0 0 3.536m22.229 3.844-9.192 9.192.308.308a2.5 2.5 0 0 0 3.536 0l5.657-5.656a2.5 2.5 0 0 0 0-3.536z"/><path fill-rule="evenodd" d="m23.552 6.68-1.944-1.944a2.5 2.5 0 0 0-3.536 0L4.737 18.071a2.5 2.5 0 0 0 0 3.536l1.944 1.944 3.185-3.185a1.25 1.25 0 1 1 1.768 1.768l-3.185 3.185 1.945 1.944a2.5 2.5 0 0 0 3.536 0L27.264 13.93a2.5 2.5 0 0 0 0-3.536L25.32 8.448l-3.186 3.185a1.25 1.25 0 1 1-1.767-1.767zm-5.419 8.954a1.25 1.25 0 0 0-1.767-1.767l-2.502 2.501a1.25 1.25 0 1 0 1.768 1.768z"/></svg>