<svg xmlns="http://www.w3.org/2000/svg" viewBox="0 0 24 24"><path d="M13.707 11.707a1 1 0 0 0-1.414-1.414l-2 2a1 1 0 1 0 1.414 1.414z"/><path fill-rule="evenodd" d="M3.588 10.659a2 2 0 0 1 0-2.829L7.83 3.588a2 2 0 0 1 2.829 0l1.34 1.34 1.338-1.337a2 2 0 0 1 2.829 0l4.242 4.243a2 2 0 0 1 0 2.828L19.071 12l1.342 1.341a2 2 0 0 1 0 2.829l-4.243 4.243a2 2 0 0 1-2.828 0L12 19.07l-1.338 1.338a2 2 0 0 1-2.829 0l-4.242-4.243a2 2 0 0 1 0-2.828L4.929 12zm2.755-.074 4.243-4.242-1.341-1.341-4.243 4.242zm7.071 7.072 1.342 1.341 4.243-4.242-1.342-1.342zm5.58-8.409-9.746 9.747-1.414-1.414.873-.874a1 1 0 1 0-1.414-1.414l-.874.873-1.414-1.414 9.747-9.747 1.414 1.415-.873.873a1 1 0 0 0 1.414 1.414l.873-.873z"/></svg>