<svg xmlns="http://www.w3.org/2000/svg" viewBox="0 0 24 24"><path fill-rule="evenodd" d="M6 3a1 1 0 0 0 0 2h10a1 1 0 1 1 0 2H6.371a3.371 3.371 0 0 0-1.21 6.518l4.219 1.623-.313 1.165c-.236.877.15 1.8.94 2.248l3.844 2.181.87.231a1.005 1.005 0 0 0 1.227-.709l.01-.036 2.726.724a1 1 0 0 0 1.226-.702l1.554-5.75a.99.99 0 0 0-.708-1.216l-2.726-.724.025-.092a.995.995 0 0 0-.698-1.22L16.478 11h-4.437a2.01 2.01 0 0 0-1.939 1.48l-.196.72-4.027-1.549A1.371 1.371 0 0 1 6.371 9H16a3 3 0 1 0 0-6zm9.838 9.998h-3.804l-.52 1.908-.513 1.91 3.299 1.872zm1.705 1.495-1.03 3.806 1.727.459 1.028-3.806z"/></svg>