<svg xmlns="http://www.w3.org/2000/svg" viewBox="0 0 24 24"><path d="M6 3a1 1 0 0 0 0 2h10a1 1 0 1 1 0 2H6.371a3.371 3.371 0 0 0-1.21 6.518l4.213 1.62-.308 1.16a1.99 1.99 0 0 0 .936 2.235l3.218 1.85.441.178a1.003 1.003 0 0 0 1.345-.666l2.042-7.584a.997.997 0 0 0-.83-1.246L15.745 11h-3.716c-.903 0-1.695.602-1.933 1.47l-.198.727-4.019-1.546A1.371 1.371 0 0 1 6.371 9H16a3 3 0 1 0 0-6zm10.915 17.494 1.768.471a1 1 0 0 0 1.227-.705l1.556-5.778a.997.997 0 0 0-.709-1.221l-1.767-.472-2.052 7.626z"/></svg>