<svg xmlns="http://www.w3.org/2000/svg" viewBox="0 0 16 16"><path fill-rule="evenodd" d="M4.998 7.997c0-.466.02-.933.054-1.385.049-.654.088-1.186.165-1.641a2.4 2.4 0 0 0-.382.08c-.456.142-.912.606-1.052 1.06-.08.26-.116.59-.179 1.315a30 30 0 0 0-.106 2.573v4.249a.75.75 0 0 1-1.5 0v-4.25c0-1.032.045-1.933.112-2.702.045-.515.08-.932.156-1.298.274-1.326 1.41-2.32 2.732-2.511.26-.038.546-.063.875-.09q.112-.139.249-.276c.875-.875 1.747-.94 3.491-1.07.452-.034.919-.054 1.385-.054h.973a1.06 1.06 0 0 1 1.028 1.06c0 .25-.084.488-.23.67L6.766 9.725a1.059 1.059 0 0 1-1.767-.76zm5.878-4.5c-.383.004-.77.022-1.151.05-.857.064-1.375.114-1.727.193A1.63 1.63 0 0 0 6.74 4.998c-.078.352-.128.87-.192 1.726q-.043.572-.05 1.147z"/><path d="M11.218 8.218a.75.75 0 0 1 1.06 0l1 1a.75.75 0 1 1-1.06 1.06l-1-1a.75.75 0 0 1 0-1.06m-1.772 2.254a.75.75 0 0 0-1.395.55l.5 1.268a.75.75 0 0 0 1.395-.55zm4.027-4.027a.75.75 0 0 1 .55-1.395l1.268.5a.75.75 0 1 1-.55 1.395z"/></svg>