<svg xmlns="http://www.w3.org/2000/svg" viewBox="0 0 24 24"><path fill-rule="evenodd" d="M9.12 15.129a1.17 1.17 0 0 1-.852.369c-.638 0-1.12-.5-1.168-1.144a36 36 0 0 1-.102-2.355c0-.7.03-1.399.081-2.077.08-1.065.142-1.913.278-2.633a3 3 0 0 0-.178.05c-.289.09-.585.238-1.044.695-.449.448-.602.748-.699 1.06-.13.422-.184.945-.278 2.024a45 45 0 0 0-.16 3.881v5.999a1 1 0 0 1-2 0v-5.999c0-1.55.068-2.901.168-4.054.175-2.025.263-3.038 1.557-4.327 1.14-1.136 2.03-1.334 3.552-1.476a5 5 0 0 1 .409-.457c1.313-1.313 2.62-1.41 5.237-1.605.678-.05 1.378-.081 2.077-.081s1.661.05 2.34.1c.66.05 1.16.527 1.16 1.17 0 .352-.155.667-.4.882zm6.878-10.13q.21 0 .42.004l-7.416 7.415q-.004-.21-.004-.419c0-.642.028-1.292.076-1.929.204-2.75.318-3.265 1.024-3.97.706-.707 1.221-.82 3.971-1.025a26 26 0 0 1 1.929-.076"/><path d="M16.79 12.79a1 1 0 0 1 1.415 0l1.5 1.5a1 1 0 0 1-1.414 1.415l-1.5-1.5a1 1 0 0 1 0-1.414m-2.823 2.965a1 1 0 0 0-1.94.485l.5 2a1 1 0 0 0 1.94-.485zm5.788-5.788a1 1 0 0 1 .485-1.94l2 .5a1 1 0 0 1-.485 1.94z"/></svg>