<svg xmlns="http://www.w3.org/2000/svg" viewBox="0 0 32 32"><path d="M18 10a1.25 1.25 0 1 0 0-2.5 1.25 1.25 0 0 0 0 2.5m6.25-1.25a1.25 1.25 0 1 1-2.5 0 1.25 1.25 0 0 1 2.5 0m-9.37 12.908a.75.75 0 1 0-1.259-.816c-.996 1.539-3.247 1.539-4.24.002a.75.75 0 0 0-1.26.815c1.586 2.452 5.173 2.448 6.76-.001M12.75 17.75a1.25 1.25 0 1 1 2.5 0 1.25 1.25 0 0 1-2.5 0M9 16.5A1.25 1.25 0 1 0 9 19a1.25 1.25 0 0 0 0-2.5"/><path fill-rule="evenodd" d="M16.38 3.649C17.867 3.207 19.457 3 20.5 3s2.634.207 4.12.649c.749.223 1.51.516 2.18.899.66.376 1.314.885 1.74 1.578.535.869.483 1.784.433 2.675v.002l-.01.178c-.168 3.143-.796 6.44-2.962 9.2a10.8 10.8 0 0 1-2.31 2.137c-.884.605-2.031 1.182-3.19 1.182-.436 0-.869-.081-1.287-.215-.45 1.54-1.144 3.034-2.213 4.396a10.8 10.8 0 0 1-2.31 2.137c-.884.605-2.032 1.182-3.19 1.182-1.16 0-2.308-.577-3.191-1.182-.917-.628-1.751-1.425-2.31-2.137-2.166-2.76-2.794-6.057-2.962-9.2l-.01-.18c-.05-.891-.102-1.806.432-2.675.426-.693 1.081-1.202 1.74-1.578.67-.383 1.432-.677 2.18-.899 1.487-.442 3.077-.649 4.12-.649q.305 0 .66.023a28 28 0 0 1-.132-1.721c-.05-.891-.102-1.807.432-2.676.426-.693 1.081-1.202 1.74-1.578.67-.383 1.432-.676 2.18-.899M20.5 19c-.2 0-.458-.059-.76-.182.112-.781.182-1.564.223-2.337l.01-.18c.05-.873.1-1.77-.401-2.623a2.53 2.53 0 0 1 3.049.98.75.75 0 1 0 1.26-.816c-1.215-1.875-3.6-2.317-5.365-1.322a6 6 0 0 0-.715-.472c-.67-.383-1.432-.677-2.18-.899a15 15 0 0 0-.892-.235 24 24 0 0 1-.195-2.067c-.03-.566-.044-.872-.026-1.104.015-.182.045-.247.082-.308.122-.198.384-.45.85-.716.453-.259 1.023-.486 1.653-.674 1.27-.377 2.619-.545 3.407-.545.789 0 2.139.168 3.408.545.63.188 1.2.415 1.654.674.465.266.727.518.849.716.037.061.067.126.081.308.019.232.005.538-.026 1.104-.157 2.943-.733 5.626-2.432 7.79a8.4 8.4 0 0 1-1.755 1.618c-.747.511-1.38.745-1.779.745m-3.157-4.122a.75.75 0 0 1-.273-.313q-.197-.166-.508-.346c-.454-.259-1.025-.486-1.654-.674-1.27-.377-2.62-.545-3.408-.545s-2.138.168-3.407.545c-.63.188-1.2.415-1.654.674-.465.266-.727.518-.85.716-.037.061-.066.126-.08.307-.019.233-.005.54.025 1.105.158 2.943.734 5.625 2.433 7.79a8.4 8.4 0 0 0 1.755 1.618c.747.511 1.38.745 1.778.745.4 0 1.032-.234 1.779-.745a8.4 8.4 0 0 0 1.755-1.617c1.7-2.166 2.275-4.848 2.432-7.79.03-.567.045-.873.026-1.105-.014-.182-.044-.247-.081-.308l-.018-.027z"/></svg>