<svg xmlns="http://www.w3.org/2000/svg" viewBox="0 0 32 32"><g fill-rule="evenodd" clip-rule="evenodd"><path d="M21.5 3c-1.895 0-6.082.795-7.216 2.689-.336.561-.306 1.13-.247 2.267.045.864.122 1.725.25 2.572q.347.09.691.194c.81.247 1.654.58 2.41 1.022a6.3 6.3 0 0 1 1.514 1.204c1.78-1.509 4.616-1.209 5.977.894a.75.75 0 0 1-1.259.816c-.896-1.384-2.808-1.523-3.906-.418.355.921.302 1.848.259 2.605l-.012.214a29 29 0 0 1-.22 2.42c.599.318 1.206.521 1.759.521 1.612 0 3.684-1.723 4.673-3.018 2-2.617 2.622-5.793 2.79-9.027.06-1.136.089-1.705-.247-2.266C27.582 3.795 23.396 3 21.5 3M19 9.75a1.25 1.25 0 1 0 0-2.5 1.25 1.25 0 0 0 0 2.5m5 0a1.25 1.25 0 1 0 0-2.5 1.25 1.25 0 0 0 0 2.5"/><path d="M3.284 14.689C4.418 12.795 8.605 12 10.5 12s6.082.796 7.216 2.689c.336.561.306 1.13.247 2.267-.168 3.233-.79 6.409-2.79 9.026C14.183 27.277 12.112 29 10.5 29s-3.684-1.723-4.673-3.018c-2-2.617-2.622-5.793-2.79-9.026-.06-1.137-.089-1.706.247-2.267M11.75 18.5a1.25 1.25 0 1 1 2.5 0 1.25 1.25 0 0 1-2.5 0M8 17.25a1.25 1.25 0 1 0 0 2.5 1.25 1.25 0 0 0 0-2.5m5.657 4.87a.75.75 0 0 1 .222 1.038c-1.585 2.45-5.172 2.453-6.759.001a.75.75 0 0 1 1.26-.815c.994 1.537 3.245 1.537 4.24-.002a.75.75 0 0 1 1.037-.222"/></g></svg>