<svg xmlns="http://www.w3.org/2000/svg" viewBox="0 0 24 24"><path d="M19.712 6.68a.98.98 0 0 0 0-1.392.98.98 0 0 0-1.392 0L12 11.624 9.18 8.788a.98.98 0 0 0-1.392 0 .98.98 0 0 0 0 1.392l3.516 3.532a.98.98 0 0 0 1.392 0z"/><path d="m15.71 4.9.019-.02.007-.007A.96.96 0 0 0 16 4.23c.009-.38-.186-.76-.53-.938a2.5 2.5 0 0 0-.59-.127A27 27 0 0 0 12 3c-.7 0-1.399.03-2.077.081-2.616.195-3.924.292-5.237 1.605s-1.41 2.62-1.605 5.237C3.031 10.6 3 11.3 3 12s.03 1.399.081 2.077c.195 2.616.292 3.924 1.605 5.237s2.62 1.41 5.237 1.605C10.6 20.969 11.3 21 12 21s1.399-.03 2.077-.081c2.616-.195 3.924-.292 5.237-1.605s1.41-2.62 1.605-5.237C20.969 13.4 21 12.7 21 12c0-.392-.01-.49-.027-.879C20.946 10.508 20.5 10 19.885 10c-.57 0-.938.511-.919 1.023l.002.04c.02.41.032.527.032.937 0 .642-.028 1.292-.076 1.929-.204 2.75-.318 3.265-1.024 3.97-.706.707-1.22.82-3.971 1.025-.637.048-1.287.076-1.929.076s-1.292-.028-1.929-.076c-2.75-.204-3.265-.318-3.97-1.024-.707-.706-.82-1.22-1.025-3.971A26 26 0 0 1 5 12c0-.642.028-1.292.076-1.929.204-2.75.318-3.265 1.024-3.97.706-.707 1.22-.82 3.971-1.025A26 26 0 0 1 12 5c1.027 0 1.916.072 2.88.176l.033.004c.3.03.583-.07.797-.28"/></svg>