<svg xmlns="http://www.w3.org/2000/svg" viewBox="0 0 44 44"><path fill-rule="evenodd" d="M11.334 31.362C11.164 29.218 11 26.091 11 22c0-4.09.164-7.217.334-9.361.036-.45.062-.776.094-1.055.022-.199.043-.333.06-.424.064-.01.15-.022.268-.035a26 26 0 0 1 .923-.076 18 18 0 0 1 2.642 0c.405.029.685.05.923.076.118.013.204.025.267.035.018.091.039.225.061.424.032.279.058.605.094 1.054.17 2.145.334 5.272.334 9.362s-.164 7.218-.334 9.362c-.036.45-.062.776-.094 1.054a5 5 0 0 1-.061.423c-.063.01-.149.023-.266.036-.238.026-.518.047-.922.076a18 18 0 0 1-2.646 0c-.404-.03-.684-.05-.922-.076a5 5 0 0 1-.266-.036 5 5 0 0 1-.061-.423 34 34 0 0 1-.094-1.054M8 22c0 4.17.167 7.377.344 9.6.138 1.738.207 2.608.995 3.39.788.784 1.566.84 3.12.953a21 21 0 0 0 3.081 0c1.555-.113 2.332-.17 3.12-.952.79-.783.858-1.653.996-3.391.177-2.223.344-5.429.344-9.6s-.167-7.376-.344-9.599c-.138-1.74-.207-2.609-.995-3.392-.789-.783-1.567-.84-3.123-.953a21 21 0 0 0-3.076 0c-1.556.113-2.334.17-3.123.953-.788.783-.857 1.653-.995 3.392C8.167 14.624 8 17.83 8 22m19.334 9.362C27.164 29.218 27 26.091 27 22c0-4.09.164-7.217.334-9.361.036-.45.062-.776.094-1.055.022-.199.043-.333.06-.424.064-.01.15-.022.268-.035a26 26 0 0 1 .923-.076 18 18 0 0 1 2.642 0c.405.029.685.05.923.076.118.013.204.025.267.035.018.091.039.225.061.424.032.279.058.605.094 1.054.17 2.145.334 5.272.334 9.362s-.164 7.218-.334 9.362c-.036.45-.062.776-.094 1.054a5 5 0 0 1-.061.423c-.063.01-.149.023-.266.036-.238.026-.518.047-.922.076a18 18 0 0 1-2.646 0c-.404-.03-.684-.05-.922-.076a5 5 0 0 1-.266-.036 5 5 0 0 1-.061-.423 34 34 0 0 1-.094-1.054M24 22c0 4.17.167 7.377.344 9.6.138 1.738.207 2.608.995 3.39.789.784 1.566.84 3.12.953a21 21 0 0 0 3.081 0c1.555-.113 2.333-.17 3.12-.952.79-.783.858-1.653.996-3.391.177-2.223.344-5.429.344-9.6s-.167-7.376-.344-9.599c-.138-1.74-.207-2.609-.995-3.392-.789-.783-1.567-.84-3.123-.953a21 21 0 0 0-3.076 0c-1.556.113-2.334.17-3.123.953-.788.783-.857 1.653-.995 3.392C24.167 14.624 24 17.83 24 22"/></svg>