<svg xmlns="http://www.w3.org/2000/svg" viewBox="0 0 32 32"><path d="M6.187 5.834c-.862.82-.914 1.767-1.02 3.663A118 118 0 0 0 5 15.999c0 2.669.075 4.843.167 6.504.106 1.896.158 2.843 1.02 3.663.861.82 1.657.825 3.247.834h.132c1.59-.01 2.386-.014 3.247-.834s.914-1.767 1.02-3.663C13.924 20.842 14 18.668 14 16s-.075-4.842-.168-6.503c-.105-1.895-.158-2.842-1.019-3.662S11.156 5.01 9.566 5h-.132c-1.59.01-2.386.014-3.247.834m13 0c-.862.82-.914 1.767-1.02 3.663-.092 1.66-.167 3.834-.167 6.502 0 2.669.075 4.843.168 6.504.105 1.896.157 2.843 1.019 3.663s1.657.825 3.247.834h.132c1.59-.01 2.386-.014 3.247-.834s.914-1.767 1.02-3.663C26.924 20.842 27 18.668 27 16s-.075-4.842-.168-6.503c-.105-1.895-.158-2.842-1.019-3.662S24.157 5.01 22.566 5h-.132c-1.59.01-2.386.014-3.247.834"/></svg>