<svg xmlns="http://www.w3.org/2000/svg" viewBox="0 0 16 16"><path fill-rule="evenodd" d="M2.12 4.01c.054-.815.08-1.222.424-1.568.344-.345.709-.37 1.438-.423a7 7 0 0 1 1.036 0c.73.052 1.094.078 1.438.423.343.346.37.753.424 1.569.063.948.12 2.283.12 3.988s-.057 3.041-.12 3.99c-.054.816-.081 1.223-.425 1.569s-.708.37-1.437.423a7 7 0 0 1-1.036 0c-.73-.052-1.094-.078-1.438-.423-.343-.346-.37-.753-.424-1.57A61 61 0 0 1 2 8c0-1.705.057-3.04.12-3.988m1.968-.495a6 6 0 0 1 .824 0c.187.014.317.023.427.035l.007.066c.013.13.023.283.037.494.06.916.117 2.218.117 3.89a59 59 0 0 1-.117 3.89 17 17 0 0 1-.044.56c-.11.012-.24.021-.428.035a6 6 0 0 1-.822 0 14 14 0 0 1-.428-.035l-.007-.066c-.013-.13-.023-.283-.037-.494A60 60 0 0 1 3.5 8c0-1.672.056-2.974.117-3.89a17 17 0 0 1 .044-.56c.11-.012.24-.021.427-.035m5.032.495c.054-.815.08-1.222.424-1.568.344-.345.709-.37 1.438-.423a7 7 0 0 1 1.036 0c.73.052 1.094.078 1.438.423.343.346.37.753.424 1.569.063.948.12 2.283.12 3.988s-.057 3.041-.12 3.99c-.054.816-.081 1.223-.425 1.569s-.708.37-1.437.423a7 7 0 0 1-1.036 0c-.73-.052-1.094-.078-1.438-.423-.343-.346-.37-.753-.424-1.57A61 61 0 0 1 9 8c0-1.705.057-3.04.12-3.988m1.969-.495a6 6 0 0 1 .822 0c.188.014.318.023.428.035l.007.066c.013.13.023.283.037.494.06.916.117 2.218.117 3.89a59 59 0 0 1-.117 3.89 17 17 0 0 1-.044.56c-.11.012-.24.021-.428.035a6 6 0 0 1-.822 0 14 14 0 0 1-.428-.035l-.007-.066c-.013-.13-.023-.283-.037-.494A60 60 0 0 1 10.5 8c0-1.672.056-2.974.117-3.89a17 17 0 0 1 .044-.56c.11-.012.24-.021.428-.035"/></svg>