<svg xmlns="http://www.w3.org/2000/svg" viewBox="0 0 24 24"><path d="M19.191 19.378c.546-.536.586-1.166.665-2.424.078-1.233.144-2.889.144-4.95a79 79 0 0 0-.144-4.953c-.08-1.258-.119-1.887-.665-2.424s-1.104-.562-2.222-.613a10 10 0 0 0-.939 0c-1.117.051-1.676.077-2.222.613-.545.537-.585 1.166-.664 2.424A79 79 0 0 0 13 12.004c0 2.061.066 3.717.144 4.95.079 1.259.119 1.888.664 2.424.546.537 1.105.562 2.222.614a10 10 0 0 0 .94 0c1.117-.052 1.675-.077 2.221-.614m-9 0c.546-.536.586-1.165.665-2.424.078-1.233.144-2.889.144-4.95s-.066-3.718-.144-4.953c-.08-1.258-.119-1.887-.665-2.424s-1.105-.562-2.222-.613a10 10 0 0 0-.938 0c-1.118.051-1.677.077-2.222.613-.546.537-.586 1.166-.665 2.424A79 79 0 0 0 4 12.004c0 2.062.066 3.717.144 4.95.079 1.259.119 1.888.664 2.424.546.537 1.105.563 2.222.614a10 10 0 0 0 .94 0c1.117-.052 1.675-.077 2.221-.614"/></svg>