<svg xmlns="http://www.w3.org/2000/svg" viewBox="0 0 32 32"><path fill-rule="evenodd" d="M5.167 9.497c.106-1.896.158-2.843 1.02-3.663.861-.82 1.656-.825 3.247-.834h.132c1.59.01 2.386.014 3.247.834s.914 1.767 1.02 3.662C13.924 11.157 14 13.331 14 16s-.075 4.843-.168 6.504c-.105 1.896-.158 2.843-1.019 3.663-.862.82-1.657.825-3.247.834h-.132c-1.59-.01-2.386-.014-3.247-.834-.862-.82-.914-1.767-1.02-3.663A118 118 0 0 1 5 15.999c0-2.668.075-4.842.167-6.502M9.448 7.5h.104c.411.003.704.005.955.016.244.012.375.03.448.045q.04.009.05.013a.7.7 0 0 1 .122.11v.001l.002.004.009.02q.012.031.033.119c.03.129.06.322.089.636.029.317.05.685.076 1.17.09 1.616.164 3.744.164 6.365s-.074 4.75-.164 6.366c-.027.486-.048.854-.076 1.17a5 5 0 0 1-.089.637 1 1 0 0 1-.042.139l-.001.004-.001.001-.037.04a1 1 0 0 1-.085.07l-.05.013a3 3 0 0 1-.448.045c-.251.011-.544.013-.956.016H9.45a25 25 0 0 1-.956-.016 3 3 0 0 1-.448-.045l-.05-.012a.7.7 0 0 1-.122-.111l-.003-.005-.008-.02a1 1 0 0 1-.033-.119 5 5 0 0 1-.09-.637c-.028-.316-.048-.684-.075-1.17a115 115 0 0 1-.164-6.366c0-2.621.074-4.748.164-6.364.027-.486.047-.854.076-1.17s.059-.508.088-.637a1 1 0 0 1 .042-.139l.002-.004a.7.7 0 0 1 .122-.11l.05-.014c.073-.015.204-.033.45-.045.25-.011.542-.013.954-.016m1.563.076-.003-.002zM11 24.43l.002-.002zm.008-.005h-.002.004zm-3.02 0h.003zm0-16.85h.003zm10.179 1.922c.106-1.896.158-2.843 1.02-3.663.861-.82 1.656-.825 3.247-.834h.132c1.59.01 2.386.014 3.247.834s.914 1.767 1.02 3.662C26.924 11.157 27 13.331 27 16s-.076 4.843-.168 6.504c-.105 1.896-.158 2.843-1.019 3.663s-1.657.825-3.247.834h-.132c-1.59-.01-2.386-.014-3.247-.834-.862-.82-.914-1.767-1.02-3.663A118 118 0 0 1 18 15.999c0-2.668.075-4.842.167-6.502M22.448 7.5h.104c.411.003.704.005.955.016.244.012.375.03.448.045q.04.009.05.013a.7.7 0 0 1 .122.11v.001l.003.004.008.02q.012.031.033.119c.03.129.06.322.089.636.028.317.05.685.076 1.17.09 1.616.164 3.744.164 6.365s-.074 4.75-.164 6.366c-.027.486-.048.854-.076 1.17a5 5 0 0 1-.089.637 1 1 0 0 1-.042.139l-.001.004-.001.001-.037.04a1 1 0 0 1-.085.07l-.05.013a3 3 0 0 1-.448.045c-.251.011-.544.013-.956.016h-.102a25 25 0 0 1-.956-.016 3 3 0 0 1-.448-.045l-.05-.012a.7.7 0 0 1-.122-.111l-.003-.005-.008-.02a1 1 0 0 1-.033-.119 5 5 0 0 1-.09-.637c-.028-.316-.048-.684-.075-1.17-.09-1.617-.164-3.744-.164-6.366s.074-4.748.163-6.364c.027-.486.048-.854.077-1.17s.059-.508.088-.637a1 1 0 0 1 .042-.139l.002-.004a.7.7 0 0 1 .122-.11l.05-.014c.073-.015.204-.033.45-.045.25-.011.542-.013.954-.016m1.563.076-.003-.002zM24 24.43l.002-.002zm.006-.004.003-.001zm-3.018-.002.003.002zm0-16.848.003-.002z"/></svg>