<svg xmlns="http://www.w3.org/2000/svg" viewBox="0 0 24 24"><path fill-rule="evenodd" d="M4.144 7.048c.079-1.258.119-1.887.665-2.423.545-.537 1.104-.563 2.222-.614a10 10 0 0 1 .938 0c1.118.051 1.676.077 2.222.614.546.536.586 1.165.665 2.423.078 1.234.144 2.89.144 4.951 0 2.062-.066 3.719-.144 4.953-.08 1.258-.119 1.887-.665 2.423-.546.537-1.104.563-2.222.614a10 10 0 0 1-.938 0c-1.118-.051-1.677-.077-2.222-.614-.546-.536-.586-1.165-.665-2.424A79 79 0 0 1 4 12c0-2.062.066-3.717.144-4.95m2.978-1.04a8 8 0 0 1 .756 0c.29.013.495.023.669.037q.14.012.214.024c.014.071.029.177.044.335.02.205.035.445.055.769C8.935 8.368 9 9.981 9 12s-.065 3.634-.14 4.827c-.02.324-.036.564-.055.77-.016.157-.03.263-.044.334q-.073.012-.214.024A20 20 0 0 1 7.5 18q-.186 0-.378-.009c-.29-.013-.494-.023-.669-.037a4 4 0 0 1-.214-.024 4 4 0 0 1-.044-.335c-.02-.205-.035-.445-.055-.77A77 77 0 0 1 6 12c0-2.019.065-3.632.14-4.825.02-.324.036-.564.055-.77a4 4 0 0 1 .044-.334q.073-.012.214-.024c.174-.014.38-.024.67-.037m6.021 1.038c.08-1.258.119-1.887.665-2.423.545-.537 1.104-.563 2.222-.614a10 10 0 0 1 .939 0c1.117.051 1.675.077 2.221.614.546.536.586 1.165.665 2.423.078 1.234.144 2.89.144 4.951 0 2.062-.066 3.719-.144 4.953-.08 1.258-.119 1.887-.665 2.423-.546.537-1.104.563-2.222.614a10 10 0 0 1-.938 0c-1.118-.051-1.676-.077-2.222-.614-.546-.536-.586-1.165-.665-2.424A79 79 0 0 1 13 12c0-2.062.066-3.717.144-4.95m2.978-1.039a8 8 0 0 1 .756 0c.29.013.494.023.669.037q.14.012.214.024c.014.071.029.177.044.335.02.205.035.445.055.769a77 77 0 0 1 .14 4.825c0 2.02-.065 3.634-.14 4.827-.02.324-.036.564-.055.77-.016.157-.03.263-.044.334q-.073.012-.214.024A20 20 0 0 1 16.5 18q-.186 0-.378-.009c-.29-.013-.494-.023-.669-.037a4 4 0 0 1-.214-.024 4 4 0 0 1-.044-.335c-.02-.205-.035-.445-.055-.77A77 77 0 0 1 15 12a77 77 0 0 1 .14-4.825c.02-.324.036-.564.055-.77.015-.157.03-.263.044-.334a4 4 0 0 1 .214-.024c.174-.014.38-.024.67-.037"/></svg>