<svg xmlns="http://www.w3.org/2000/svg" viewBox="0 0 24 24"><path d="M9.25 12a1.25 1.25 0 1 1-2.5 0 1.25 1.25 0 0 1 2.5 0M12 13.25a1.25 1.25 0 1 0 0-2.5 1.25 1.25 0 0 0 0 2.5m4 0a1.25 1.25 0 1 0 0-2.5 1.25 1.25 0 0 0 0 2.5"/><path fill-rule="evenodd" d="M12 4c-1.55 0-2.902.068-4.055.168-2.024.175-3.036.263-4.326 1.557S2.25 7.99 2.087 9.93a25 25 0 0 0 0 4.14c.162 1.94.243 2.911 1.532 4.205s2.302 1.382 4.326 1.557c1.153.1 2.505.168 4.055.168s2.902-.067 4.055-.168c2.025-.175 3.037-.263 4.327-1.557s1.37-2.265 1.532-4.206a25 25 0 0 0 0-4.137c-.162-1.942-.243-2.913-1.532-4.207s-2.302-1.382-4.328-1.557A47 47 0 0 0 12 4M8.118 6.16C9.214 6.065 10.508 6 12 6s2.786.065 3.882.16c1.079.094 1.602.149 2.023.278.313.097.613.25 1.06.699.458.46.606.755.696 1.043.123.394.173.88.26 1.918a23 23 0 0 1 0 3.805c-.087 1.037-.137 1.523-.26 1.917-.09.288-.238.584-.696 1.043-.447.449-.747.602-1.06.699-.42.13-.944.184-2.023.278-1.096.095-2.39.16-3.882.16s-2.786-.065-3.882-.16c-1.079-.094-1.602-.149-2.022-.278-.312-.097-.613-.25-1.06-.699-.458-.46-.606-.755-.696-1.043-.123-.393-.173-.879-.26-1.916a23 23 0 0 1 0-3.808c.087-1.037.137-1.522.26-1.916.09-.288.238-.584.696-1.043.447-.449.748-.602 1.06-.699.42-.13.944-.184 2.022-.278"/></svg>