<svg xmlns="http://www.w3.org/2000/svg" viewBox="0 0 24 24"><path fill-rule="evenodd" d="M13 2.5a1 1 0 1 0-2 0v1a1 1 0 1 0 2 0zm0 18a1 1 0 1 0-2 0v1a1 1 0 1 0 2 0zm8.5-7.5a1 1 0 1 0 0-2h-1a1 1 0 1 0 0 2zm-18 0a1 1 0 1 0 0-2h-1a1 1 0 1 0 0 2zm3.73-5.768C6.114 8.347 6.08 9.37 6.01 11.415a17 17 0 0 0 0 1.173c.07 2.045.104 3.068 1.22 4.183 1.115 1.116 2.138 1.15 4.183 1.22a17 17 0 0 0 1.173 0c2.045-.07 3.068-.104 4.183-1.22 1.116-1.115 1.15-2.138 1.22-4.183a17 17 0 0 0 0-1.173c-.07-2.045-.104-3.068-1.22-4.183-1.115-1.116-2.138-1.15-4.183-1.22a17 17 0 0 0-1.173 0c-2.045.07-3.068.104-4.183 1.22m4.77.77v8q.257 0 .517-.01c1.094-.037 1.63-.064 2.04-.163.282-.068.492-.166.798-.472s.404-.516.472-.797c.1-.41.127-.947.164-2.04a15 15 0 0 0 0-1.036c-.037-1.093-.065-1.63-.164-2.04-.068-.282-.166-.492-.472-.798s-.516-.404-.797-.472c-.41-.099-.947-.126-2.04-.164A15 15 0 0 0 12 8.001m-5.603 10.8a1.198 1.198 0 1 1-2.397 0 1.198 1.198 0 0 1 2.397 0M6.402 5.2A1.2 1.2 0 1 1 4 5.2a1.2 1.2 0 0 1 2.402 0M20 18.799a1.201 1.201 0 1 1-2.403 0 1.201 1.201 0 0 1 2.403 0m0-13.601a1.198 1.198 0 1 1-2.396 0 1.198 1.198 0 0 1 2.396 0"/></svg>