<svg xmlns="http://www.w3.org/2000/svg" viewBox="0 0 24 24"><path fill-rule="evenodd" d="M5.663 4.73 4.87 4l-.672.84-.001.002-.002.001-.003.005-.01.012a4 4 0 0 0-.123.167c-.078.11-.183.265-.302.46-.237.39-.535.949-.782 1.631-.491 1.361-.798 3.281.087 5.311.812 1.865 2.693 2.727 4.114 3.135.57.164 1.11.268 1.558.335l-.409 1.626A1.994 1.994 0 0 0 10.27 20h3.462a1.994 1.994 0 0 0 1.943-2.475l-.409-1.626c.448-.067.988-.17 1.558-.335 1.421-.408 3.302-1.27 4.115-3.135.884-2.03.577-3.95.086-5.31a9 9 0 0 0-1.084-2.092 5 5 0 0 0-.123-.167l-.01-.012-.003-.005-.002-.001V4.84L19.128 4l-.792.73-3.947 3.642a.726.726 0 0 1-1.113-.158.72.72 0 0 1-.066-.598l.294-.877a1 1 0 0 1 .95-.681h.058a1 1 0 0 0 1.001-.996 1 1 0 0 0-1-.996h-.06c-.993 0-1.902.487-2.454 1.266a3.01 3.01 0 0 0-2.455-1.266h-.058a1 1 0 0 0-1.001.996c0 .55.448.996 1 .996h.06a1 1 0 0 1 .95.68l.293.878c.067.2.043.418-.066.598a.726.726 0 0 1-1.113.158zM12 9.792a2.74 2.74 0 0 1-3.751.04L5.195 7.015c-.114.228-.23.489-.335.777-.384 1.064-.577 2.43.04 3.845.443 1.018 1.566 1.65 2.833 2.014a10.3 10.3 0 0 0 2.243.373l.03.001h.005l1.252.028-.304 1.21-.69 2.745h3.462l-.69-2.746-.304-1.21 1.252-.027h.005l.03-.001.13-.007a10.3 10.3 0 0 0 2.112-.366c1.268-.364 2.391-.996 2.835-2.014.616-1.415.423-2.781.039-3.845a7 7 0 0 0-.335-.777L15.75 9.832a2.74 2.74 0 0 1-3.75-.04"/></svg>