<svg xmlns="http://www.w3.org/2000/svg" viewBox="0 0 24 24"><path fill-rule="evenodd" d="M5.663 4.73 4.87 4l-.672.84-.001.002-.002.001-.003.005-.01.012a4 4 0 0 0-.123.167c-.078.11-.183.265-.302.46-.237.39-.535.949-.782 1.631-.491 1.361-.798 3.281.087 5.311.812 1.865 2.184 2.54 4.114 3.135.876.27 2.323.335 2.323.335l-.409 1.626A1.994 1.994 0 0 0 11.034 20h2.024A1.994 1.994 0 0 0 15 17.525l-.5-1.626s1.447-.064 2.323-.335c1.93-.596 3.302-1.27 4.115-3.135.884-2.03.577-3.95.086-5.31a9 9 0 0 0-1.084-2.092 5 5 0 0 0-.123-.167l-.01-.012-.003-.005-.002-.001V4.84L19.128 4l-.792.73-3.947 3.642a.726.726 0 0 1-1.113-.158.72.72 0 0 1-.066-.598l.294-.877a1 1 0 0 1 .95-.681h.058a1 1 0 0 0 1.001-.996 1 1 0 0 0-1-.996h-.06c-.993 0-1.902.487-2.454 1.266a3.01 3.01 0 0 0-2.455-1.266h-.058a1 1 0 0 0-1.001.996c0 .55.448.996 1 .996h.06a1 1 0 0 1 .95.68l.293.878c.067.2.043.418-.066.598a.726.726 0 0 1-1.113.158z"/></svg>