<svg xmlns="http://www.w3.org/2000/svg" viewBox="0 0 44 44"><path fill-rule="evenodd" d="M17.494 8a1.5 1.5 0 1 0 0 3 2.24 2.24 0 0 1 2.125 1.528l.353 1.053a2.5 2.5 0 0 1-.23 2.084l-.47.78a.5.5 0 0 1-.768.11l-8.071-7.443-1.096-1.01L8.318 9.19h-.001l-.001.002-.003.003-.006.006-.018.02-.056.063a13 13 0 0 0-.776 1 14.4 14.4 0 0 0-1.534 2.824c-.97 2.402-1.539 5.795.182 9.52 1.468 3.177 3.915 4.343 7.297 5.412 1.545.488 4.098.647 4.098.647l-.744 2.96C16.2 33.858 17.873 36 20.154 36h3.693c2.28 0 3.953-2.142 3.397-4.352l-.744-2.961s2.553-.16 4.098-.648c3.383-1.068 5.83-2.234 7.297-5.41 1.72-3.726 1.152-7.119.182-9.52a14.4 14.4 0 0 0-1.534-2.826 12 12 0 0 0-.776-.999l-.056-.063-.018-.02-.006-.006-.003-.003-.001-.001-.001-.001-1.019-1.09-1.096 1.011-8.07 7.443a.5.5 0 0 1-.769-.11l-.47-.78a2.5 2.5 0 0 1-.23-2.084l.353-1.053A2.24 2.24 0 0 1 26.506 11a1.5 1.5 0 1 0 0-3A5.25 5.25 0 0 0 22 10.559 5.25 5.25 0 0 0 17.494 8"/></svg>