<svg xmlns="http://www.w3.org/2000/svg" viewBox="0 0 44 44"><path fill-rule="evenodd" d="M17.494 8a1.5 1.5 0 1 0 0 3 2.24 2.24 0 0 1 2.125 1.528l.353 1.053a2.5 2.5 0 0 1-.23 2.084l-.47.78a.5.5 0 0 1-.768.11l-8.071-7.443-1.096-1.01L8.318 9.19h-.001l-.001.002-.003.003-.006.006-.018.02-.056.063a13 13 0 0 0-.776 1 14.4 14.4 0 0 0-1.534 2.824c-.97 2.402-1.539 5.795.182 9.52 1.468 3.177 4.755 4.681 7.297 5.412a22.4 22.4 0 0 0 3.108.647l-.744 2.96A3.5 3.5 0 0 0 19.163 36h5.674c2.28 0 3.953-2.142 3.397-4.352l-.744-2.961a22 22 0 0 0 3.108-.648c2.542-.73 5.83-2.234 7.297-5.41 1.72-3.726 1.152-7.119.182-9.52a14.4 14.4 0 0 0-1.534-2.826 13 13 0 0 0-.776-.999l-.056-.063-.018-.02-.006-.006-.003-.003-.001-.001-.001-.001-1.019-1.09-1.096 1.011-8.07 7.443a.5.5 0 0 1-.769-.11l-.47-.78a2.5 2.5 0 0 1-.23-2.084l.353-1.053A2.24 2.24 0 0 1 26.506 11a1.5 1.5 0 1 0 0-3A5.25 5.25 0 0 0 22 10.559 5.25 5.25 0 0 0 17.494 8M22 17.735l-.156.259a3.506 3.506 0 0 1-5.377.765l-6.844-6.311c-.302.48-.632 1.083-.915 1.783-.754 1.866-1.158 4.366.124 7.14.897 1.942 3.072 3.117 5.4 3.785a19.5 19.5 0 0 0 4.135.699l.057.002h.011l1.869.053-.456 1.813-1.17 4.655a.5.5 0 0 0 .485.622h5.674a.5.5 0 0 0 .485-.622l-1.17-4.655-.456-1.813 1.868-.052h.012l.057-.003.243-.015a19.5 19.5 0 0 0 3.892-.684c2.328-.668 4.503-1.843 5.4-3.785 1.282-2.774.878-5.274.124-7.14-.283-.7-.613-1.303-.915-1.783l-6.844 6.311a3.506 3.506 0 0 1-5.377-.765z"/></svg>