<svg xmlns="http://www.w3.org/2000/svg" viewBox="0 0 24 24"><path d="M12 21c.713 0 1.38-.014 2-.033a1 1 0 1 0-.102-1.995q-.882.027-1.898.028c-2.12 0-3.805-.1-5.049-.218-.697-.065-.965-.098-1.158-.154-.087-.025-.157-.05-.314-.198-.19-.18-.213-.249-.22-.27l-.001-.003a1.6 1.6 0 0 1-.063-.246 13 13 0 0 1-.097-.604 9 9 0 0 1-.069-2.04c.07-.906.109-1.32.189-1.619a.66.66 0 0 1 .231-.381c.075-.07.157-.138.498-.191.441-.07 1.045-.076 2.145-.076H16a1 1 0 1 0 0-2H8.092c-1.1 0-1.704-.006-2.145-.076-.341-.053-.423-.121-.498-.19a.66.66 0 0 1-.231-.382c-.08-.298-.12-.713-.189-1.62a9 9 0 0 1 .069-2.04c.04-.273.067-.452.097-.603.028-.142.05-.211.063-.246v-.004c.008-.02.031-.088.221-.269.157-.149.227-.173.314-.198.193-.056.46-.089 1.159-.154A54 54 0 0 1 12 5c2.12 0 3.804.1 5.048.217.698.066.966.099 1.159.155.087.025.157.05.314.198.19.18.213.249.22.27l.002.003c.013.035.035.104.062.246.03.152.057.33.097.605a9 9 0 0 1 .069 2.037 24 24 0 0 1-.11 1.194l.001.046.001.029a1 1 0 0 0 2 .044c.04-.339.069-.72.102-1.16Q21 8.444 21 8c0-.57-.047-1.108-.119-1.598-.154-1.046-.231-1.569-.983-2.283-.752-.713-1.39-.773-2.663-.893A56 56 0 0 0 12 3c-2.183 0-3.93.104-5.236.226-1.273.12-1.91.18-2.661.893s-.83 1.236-.984 2.282a11 11 0 0 0-.084 2.483c.117 1.539.18 2.372.856 3.116-.675.744-.739 1.577-.856 3.116Q3 15.555 3 16c0 .57.047 1.109.12 1.6.154 1.045.23 1.567.983 2.28.752.714 1.388.774 2.661.894C8.07 20.896 9.817 21 12 21"/><path d="M9.25 8a1.25 1.25 0 1 1-2.5 0 1.25 1.25 0 0 1 2.5 0M8 17.25a1.25 1.25 0 1 0 0-2.5 1.25 1.25 0 0 0 0 2.5m14.203.982c.634-.63.185-1.707-.712-1.707a1 1 0 0 0-.712.293l-.355.354q-.22.215-.398.384l-.03.028L20 13.5a.998.998 0 1 0-1.997-.002L18 17.578l-.102-.097q-.15-.14-.322-.31l-.355-.353a1 1 0 0 0-.712-.293c-.897 0-1.346 1.077-.712 1.707L17.577 20c.67.667 1.006 1 1.423 1s.753-.333 1.424-1z"/></svg>