<svg xmlns="http://www.w3.org/2000/svg" viewBox="0 0 16 16"><path fill-rule="evenodd" d="M2.065 5.856c.092.7.138 1.049.478 1.346s.763.298 1.61.298h5.976a2.25 2.25 0 0 1 3.678-.872c.056-.203.09-.45.132-.772.038-.292.062-.604.062-.926 0-.55-.07-1.057-.162-1.487-.069-.32-.103-.48-.24-.677a1.4 1.4 0 0 0-.404-.365c-.21-.116-.4-.138-.78-.18-.978-.109-2.453-.22-4.413-.22-1.96.001-3.435.111-4.414.22-.38.042-.57.064-.78.18a1.4 1.4 0 0 0-.403.365c-.137.197-.172.357-.24.677-.093.43-.163.937-.163 1.487 0 .322.024.634.063.926M5.9 4.752a.9.9 0 1 1-1.8 0 .9.9 0 0 1 1.8 0m-1.746 3.75H10v.513a2.25 2.25 0 0 0-1.34 3.827l1.127 1.126q-.813.031-1.785.032c-1.96 0-3.435-.11-4.414-.22-.38-.041-.57-.063-.78-.18a1.4 1.4 0 0 1-.403-.364c-.137-.197-.172-.357-.24-.677a7 7 0 0 1-.163-1.487c0-.322.024-.634.063-.926.092-.7.138-1.049.478-1.347.34-.297.763-.297 1.61-.297M5.9 11.25a.9.9 0 1 0-1.8 0 .9.9 0 0 0 1.8 0"/><path d="m11.503 11.461-.003-3.21a.75.75 0 0 1 1.5-.002l.003 3.207q.15-.145.339-.337l.398-.401a.73.73 0 0 1 .521-.218c.657 0 .986.8.522 1.27l-1.49 1.501c-.467.471-.701.707-.989.727a1 1 0 0 1-.108 0c-.288-.02-.522-.256-.989-.727l-1.49-1.502c-.464-.468-.135-1.269.522-1.269.195 0 .383.078.521.218l.398.4q.194.196.345.343"/></svg>