<svg xmlns="http://www.w3.org/2000/svg" viewBox="0 0 44 44"><path fill-rule="evenodd" d="M9.04 9.04c-2.428 2.429-2.592 4.82-2.92 9.6A49 49 0 0 0 6 22c0 1.13.045 2.26.12 3.36.328 4.781.492 7.172 2.92 9.6s4.819 2.592 9.6 2.92c1.1.075 2.23.12 3.36.12s2.26-.045 3.36-.12c4.781-.328 7.172-.492 9.6-2.92s2.592-4.819 2.92-9.6c.075-1.1.12-2.23.12-3.36s-.045-2.26-.12-3.36c-.328-4.78-.492-7.171-2.92-9.6s-4.819-2.592-9.6-2.92A49 49 0 0 0 22 6c-1.13 0-2.26.045-3.36.12-4.781.328-7.171.492-9.6 2.92m17.392 4.844 1.46-.282a2.114 2.114 0 0 1 2.472 2.5l-.344 1.678a36 36 0 0 1-1.656 5.666l-.064.168c-.355.923-1.528 1.037-2.227.338l-6.27-6.27c-.6-.6-.498-1.604.289-1.92l.14-.055a34 34 0 0 1 6.2-1.823M23.96 26.081c.707.707.602 1.895-.327 2.266a34.3 34.3 0 0 1-6.429 1.867l-1.51.283a1.9 1.9 0 0 1-2.22-2.196l.23-1.32a32.7 32.7 0 0 1 2.017-6.906c.33-.792 1.346-.887 1.952-.28z"/></svg>