<svg xmlns="http://www.w3.org/2000/svg" viewBox="0 0 16 16"><path fill-rule="evenodd" d="M3.123 3.123c-.874.875-.939 1.746-1.069 3.488C2.021 7.065 2 7.532 2 8s.02.935.054 1.389c.13 1.742.195 2.613 1.07 3.488.874.874 1.745.939 3.487 1.069.454.034.921.054 1.389.054s.935-.02 1.389-.054c1.742-.13 2.613-.195 3.488-1.07.874-.874.939-1.745 1.069-3.487C13.98 8.935 14 8.468 14 8s-.02-.935-.054-1.389c-.13-1.742-.195-2.613-1.07-3.488-.874-.874-1.745-.939-3.487-1.069A19 19 0 0 0 8 2c-.468 0-.935.02-1.389.054-1.742.13-2.613.195-3.488 1.07m6.595 1.76.582-.112a.793.793 0 0 1 .928.928l-.111.58c-.15.783-.373 1.55-.666 2.29-.116.29-.487.334-.709.113L7.318 6.257c-.222-.222-.179-.594.113-.71.74-.292 1.506-.515 2.287-.665M8.66 9.72c.237.237.193.633-.118.756-.74.293-1.507.516-2.289.666l-.58.112a.793.793 0 0 1-.93-.929l.112-.581c.15-.782.373-1.547.666-2.287.123-.312.52-.356.757-.119z"/></svg>