<svg xmlns="http://www.w3.org/2000/svg" viewBox="0 0 24 24"><path fill-rule="evenodd" d="M4.686 4.686c-1.313 1.313-1.41 2.62-1.605 5.237C3.031 10.6 3 11.3 3 12s.03 1.399.081 2.077c.195 2.616.292 3.924 1.605 5.237s2.62 1.41 5.237 1.605C10.6 20.969 11.3 21 12 21s1.399-.03 2.077-.081c2.616-.195 3.924-.292 5.237-1.605s1.41-2.62 1.605-5.237C20.969 13.4 21 12.7 21 12s-.03-1.399-.081-2.077c-.195-2.616-.292-3.924-1.605-5.237s-2.62-1.41-5.237-1.605A28 28 0 0 0 12 3c-.7 0-1.399.03-2.077.081-2.616.195-3.924.292-5.237 1.605m10.001 2.505.886-.17a1.207 1.207 0 0 1 1.413 1.413l-.17.885a19.4 19.4 0 0 1-1.013 3.485c-.225.568-.95.635-1.382.203l-3.42-3.42c-.432-.432-.365-1.158.204-1.383a19.4 19.4 0 0 1 3.482-1.013m-1.604 7.307c.38.379.312 1.015-.186 1.212a19.4 19.4 0 0 1-3.485 1.014l-.885.17a1.207 1.207 0 0 1-1.413-1.414l.17-.886a19.4 19.4 0 0 1 1.013-3.482c.197-.499.834-.566 1.214-.187z"/></svg>