<svg xmlns="http://www.w3.org/2000/svg" viewBox="0 0 32 32"><path fill-rule="evenodd" d="M14.371 3.309a1.25 1.25 0 0 0-2.236-1.118 8.7 8.7 0 0 0-.815 2.642l-.306.1a30 30 0 0 0-3.164 1.26c-1.728.8-2.592 1.2-3.221 2.185S4 10.456 4 12.64v7.192c0 1.257 0 1.886.39 2.277.391.39 1.02.39 2.277.39h13.315c3.786 0 5.666 0 6.835-1.172a3.1 3.1 0 0 0 .713-1.127c.167-.44.276-.998.348-1.62.1-.868.149-1.302.096-1.76a4.01 4.01 0 0 0-2.744-3.346c-.438-.142-1.134-.2-2.527-.316l-.014-.001c-3.557-.297-5.363-.448-7.083-2.171-.813-.815-1.274-1.625-1.564-2.612a1 1 0 0 0-.03-.136c-.529-1.839-.29-3.63.36-4.93m-3.08 4.171a28 28 0 0 0-2.391.982c-.918.425-1.395.65-1.736.866-.256.162-.343.262-.428.395-.057.09-.126.22-.174.628-.058.491-.062 1.141-.062 2.29V20h13.482c1.964 0 3.182-.005 4.066-.124.795-.107.95-.264.996-.31l.002-.003a.6.6 0 0 0 .146-.248c.061-.16.14-.485.202-1.018.11-.967.11-1.08.097-1.188a1.52 1.52 0 0 0-1.03-1.255l.005.001h-.003c-.02-.005-.13-.03-.426-.064a53 53 0 0 0-1.542-.14l-.416-.035c-2.905-.239-5.394-.443-7.613-2.287l-3.32 1.107a1.25 1.25 0 0 1-.791-2.372l2.298-.766c-.777-1.2-1.146-2.46-1.362-3.818"/><path d="M27.349 26.347a1.25 1.25 0 0 0-1.198-2.194l-1.556.849c-.6.327-1.272.498-1.955.498H20v-.25a1.25 1.25 0 0 0-2.5 0v.25h-8v-.25a1.25 1.25 0 1 0-2.5 0v.25H5.25a1.25 1.25 0 0 0 0 2.5h17.39a6.6 6.6 0 0 0 3.152-.804z"/></svg>