<svg xmlns="http://www.w3.org/2000/svg" viewBox="0 0 16 16"><path fill-rule="evenodd" d="M7.085.58a.75.75 0 0 1 .336 1.006c-.326.65-.606 1.267-.523 2.024l.005.025c.13.764.358 1.309.907 1.859.862.862 1.755.937 3.54 1.086.698.058 1.047.087 1.263.156a1.97 1.97 0 0 1 1.371 1.616c.033.225.013.464-.025.943-.034.42-.093.793-.193 1.056a1.6 1.6 0 0 1-.357.563c-.585.586-1.526.586-3.409.586H4c-.943 0-1.414 0-1.707-.293S2 10.443 2 9.5V6.32c0-1.092.013-1.638.328-2.131s.747-.693 1.612-1.092a16 16 0 0 1 1.538-.618c.136-.626.393-1.148.601-1.564A.75.75 0 0 1 7.085.579M5.453 4.082c-.304.117-.601.245-.883.375-.465.215-.687.32-.84.418-.15.094-.173.166-.196.344-.028.222-.034.53-.034 1.1V9.5c0 .198 0 .359.002.498.14.002.3.002.498.002h6c.984 0 1.57-.003 1.99-.06.193-.026.29-.056.333-.074.025-.01.03-.022.04-.048.022-.055.069-.254.1-.644.02-.252.032-.394.036-.503.003-.067 0-.103 0-.103a.47.47 0 0 0-.329-.399h-.001a2 2 0 0 0-.178-.025c-.173-.02-.407-.04-.766-.07l-.223-.018c-1.432-.117-2.73-.223-3.895-1.177l-1.603.577a.75.75 0 0 1-.508-1.412l1.052-.379a4.5 4.5 0 0 1-.476-1.11L5.554 4.5a4 4 0 0 1-.1-.417"/><path d="M13.946 12.472a.75.75 0 0 1-.418.975l-.773.309a3.4 3.4 0 0 1-1.269.244H2.75a.75.75 0 1 1 0-1.5h.793a.75.75 0 0 1 1.414 0H8.71a.75.75 0 0 1 1.415 0h1.362c.244 0 .486-.046.712-.137l.774-.31a.75.75 0 0 1 .974.419"/></svg>