<svg xmlns="http://www.w3.org/2000/svg" viewBox="0 0 24 24"><path fill-rule="evenodd" d="M10.895 2.447a1 1 0 0 0-1.79-.894 7.6 7.6 0 0 0-.682 2.093l-.289.095a23 23 0 0 0-2.24.904c-1.3.6-1.948.9-2.421 1.638C3 7.023 3 7.842 3 9.48V15c0 .943 0 1.414.293 1.707S4.057 17 5 17h9.993c2.826 0 4.24 0 5.117-.879a2.35 2.35 0 0 0 .537-.845c.133-.351.218-.814.271-1.33.07-.682.105-1.023.06-1.367a2.99 2.99 0 0 0-2.051-2.472c-.33-.106-.856-.15-1.908-.238-2.68-.223-4.02-.335-5.315-1.629-.789-.789-1.137-1.572-1.337-2.642-.168-1.133.093-2.281.527-3.15m-2.53 3.334.04.216q.06.363.164.727.015.051.035.1c.169.576.405 1.13.749 1.671l-1.67.556a1 1 0 0 0 .633 1.898l2.486-.83c1.689 1.386 3.568 1.54 5.737 1.717l.314.026c.54.045.896.075 1.16.106.202.023.285.04.302.044h.004a.99.99 0 0 1 .676.822c.008.063.012.14-.067.907-.046.456-.11.715-.15.824a.4.4 0 0 1-.082.142l-.001.001c-.011.013-.107.123-.68.2-.652.088-1.553.092-3.022.092H5V9.48c0-.864.003-1.343.045-1.701.035-.293.082-.37.113-.418.052-.081.103-.144.283-.258.249-.157.598-.323 1.291-.643a22 22 0 0 1 1.634-.68"/><path d="M20.447 19.894a1 1 0 1 0-.894-1.788l-1.156.577a3 3 0 0 1-1.341.317H15a1 1 0 1 0-2 0H7a1 1 0 1 0-2 0H4a1 1 0 1 0 0 2h13.056a5 5 0 0 0 2.236-.528z"/></svg>