<svg xmlns="http://www.w3.org/2000/svg" viewBox="0 0 24 24"><path d="M4.298 9.294c-.637.63-.186 1.706.714 1.706.268 0 .525-.105.715-.293l3.13-3.095c1.117-1.106 1.815-1.79 2.389-2.223.517-.39.697-.39.751-.39h.006c.053 0 .234 0 .751.39.574.432 1.271 1.117 2.39 2.223l3.13 3.095c.188.188.446.293.713.293.9 0 1.352-1.077.715-1.706l-3.13-3.096C14.418 4.066 13.34 3 12 3S9.583 4.066 7.427 6.198zm0 8c-.637.63-.186 1.706.714 1.706.268 0 .525-.105.715-.293l3.13-3.095c1.117-1.106 1.815-1.79 2.389-2.223.517-.39.697-.39.751-.39h.006c.053 0 .234 0 .751.39.574.432 1.271 1.117 2.39 2.223l3.13 3.095c.188.188.446.293.713.293.9 0 1.352-1.077.715-1.706l-3.13-3.096C14.418 12.066 13.34 11 12 11s-2.417 1.066-4.573 3.198z"/></svg>