<svg xmlns="http://www.w3.org/2000/svg" viewBox="0 0 24 24"><path fill-rule="evenodd" d="M12 2c-1.226 0-1.908.958-2.278 1.655-.423.796-.666 1.667-1.035 2.487C8.113 5.312 7.52 4 6.332 4 5.348 4 4.998 4.964 5 5.799V10a7 7 0 0 0 6 6.93V21a1 1 0 1 0 2 0v-4.07A7 7 0 0 0 19 10V5.799C19.002 4.964 18.653 4 17.67 4c-1.188 0-1.781 1.311-2.356 2.142-.369-.82-.612-1.691-1.035-2.487C13.908 2.958 13.227 2 12 2m-.512 2.593c.316-.595.49-.593.512-.593.021 0 .196-.002.512.593.496.934.713 1.994 1.253 2.908.284.482.7.935 1.29.994.883.088 1.496-.619 1.945-1.277V10a5 5 0 0 1-10 0V7.218c.45.658 1.062 1.365 1.946 1.277.59-.059 1.005-.512 1.29-.994.54-.914.756-1.974 1.252-2.908"/><path d="M18.448 18.895a1 1 0 0 0-.894-1.79l-2 1a1 1 0 1 0 .894 1.79zM5.106 17.553a1 1 0 0 0 .447 1.342l2 1a1 1 0 0 0 .895-1.79l-2-1a1 1 0 0 0-1.342.448"/></svg>