<svg xmlns="http://www.w3.org/2000/svg" viewBox="0 0 16 16"><path d="M7.975 1.948a.75.75 0 1 0-1.447-.396l-1.502 5.5A.75.75 0 0 0 5.75 8h2.991l-1.22 4.609-.005-.002-.29-.668a15 15 0 0 1-.483-1.088.73.73 0 0 0-.448-.394l-.077-.022h-.001l-.04-.005c-.38-.056-.756.256-.838.621a.65.65 0 0 0 .005.315c.081.2.115.275.21.482q.008.022.02.045.133.29.282.634c.526 1.225.79 1.837 1.23 2.142a1.86 1.86 0 0 0 1.212.325c.534-.044 1.068-.443 2.136-1.24q.3-.223.562-.408c.216-.155.413-.296.595-.438a.65.65 0 0 0 .161-.27c.112-.358-.057-.816-.414-.957l-.038-.015c-.04-.011-.06-.017-.078-.02a.73.73 0 0 0-.585.117 19 19 0 0 1-1.095.797c-.22.164-.406.302-.567.42l1.466-5.538a.75.75 0 0 0-.725-.942H6.732z"/></svg>