<svg xmlns="http://www.w3.org/2000/svg" viewBox="0 0 24 24"><path d="M11.618 3.26a1 1 0 1 0-1.931-.52l-2.153 8A1 1 0 0 0 8.5 12h4.77l-1.82 6.779a94 94 0 0 1-.385-.886 26 26 0 0 1-.737-1.66.98.98 0 0 0-.601-.528c-.023-.008-.05-.015-.104-.03h-.001l-.055-.007c-.508-.075-1.012.343-1.122.833a.9.9 0 0 0 .006.423c.116.287.25.583.398.907.119.262.246.543.379.852.706 1.642 1.059 2.464 1.65 2.873a2.5 2.5 0 0 0 1.626.436c.716-.06 1.433-.594 2.866-1.664q.403-.298.753-.547c.29-.207.554-.397.799-.588a.9.9 0 0 0 .216-.362c.15-.48-.077-1.094-.555-1.284l-.051-.02h-.002l-.104-.027a.98.98 0 0 0-.784.157l-.094.07c-.38.294-.836.635-1.375.999-.307.229-.565.42-.786.582.719-2.683 1.432-5.366 2.152-8.049A1 1 0 0 0 14.573 10H9.805z"/></svg>