<svg xmlns="http://www.w3.org/2000/svg" viewBox="0 0 44 44"><path d="M38.72 13.08c1.707 1.251 1.707 3.589 0 4.84-4.352 3.189-9.202 5.525-14.452 6.808a9.6 9.6 0 0 1-4.536 0c-4.569-1.116-8.834-3.03-12.732-5.61V25.5a1.5 1.5 0 0 1-3 0v-10c0-.897.427-1.794 1.28-2.42 4.352-3.189 9.202-5.525 14.452-6.808a9.6 9.6 0 0 1 4.536 0c5.25 1.283 10.1 3.62 14.452 6.808"/><path d="M19.02 27.642a12.6 12.6 0 0 0 5.96 0 42.6 42.6 0 0 0 7.952-2.806q-.049 1.313-.123 2.475c-.238 3.743-.357 5.615-2.915 8.083s-4.087 2.51-7.147 2.596a27 27 0 0 1-1.493 0c-3.06-.085-4.59-.128-7.148-2.596s-2.677-4.34-2.914-8.083q-.075-1.163-.123-2.475a42.6 42.6 0 0 0 7.952 2.806"/></svg>