<svg xmlns="http://www.w3.org/2000/svg" viewBox="0 0 24 24"><path d="m21.015 6.888.276.211a1.736 1.736 0 0 1 0 2.802l-.276.21a21.5 21.5 0 0 1-7.753 3.731c-.825.21-1.695.21-2.52 0a21.6 21.6 0 0 1-6.74-3.004V14a1 1 0 1 1-2 0V8.5c0-.52.237-1.039.711-1.4l.276-.212a21.5 21.5 0 0 1 7.753-3.73 5.1 5.1 0 0 1 2.52 0 21.5 21.5 0 0 1 7.753 3.73"/><path d="M6.084 14.3q.023.442.05.85c.138 2.053.206 3.08 1.587 4.418s2.188 1.367 3.8 1.423a14 14 0 0 0 .963 0c1.612-.056 2.418-.085 3.799-1.423s1.45-2.365 1.587-4.418q.027-.409.05-.85a24 24 0 0 1-4.165 1.48 7.1 7.1 0 0 1-3.506 0 24 24 0 0 1-4.165-1.48"/></svg>