<svg xmlns="http://www.w3.org/2000/svg" viewBox="0 0 32 32"><path d="m27.712 9.122.36.278a2.304 2.304 0 0 1 0 3.69l-.36.278a27.8 27.8 0 0 1-10.078 4.915 6.6 6.6 0 0 1-3.276 0 27.9 27.9 0 0 1-8.862-4.027v4.494a1.25 1.25 0 1 1-2.5 0v-7.417h.002A2.32 2.32 0 0 1 3.92 9.4l.359-.278a27.8 27.8 0 0 1 10.078-4.915 6.6 6.6 0 0 1 3.276 0 27.8 27.8 0 0 1 10.078 4.915"/><path d="M8.042 18.62a30.7 30.7 0 0 0 5.692 2.083 9.1 9.1 0 0 0 4.524 0 30.7 30.7 0 0 0 5.691-2.084q-.03.855-.079 1.62c-.167 2.713-.251 4.07-2.118 5.87s-2.993 1.827-5.245 1.884a21 21 0 0 1-1.022 0c-2.252-.056-3.379-.085-5.245-1.885s-1.95-3.156-2.118-5.869q-.048-.765-.08-1.62"/></svg>