<svg xmlns="http://www.w3.org/2000/svg" viewBox="0 0 44 44"><path d="M31.398 6.262a.433.433 0 0 0-.796 0L28.992 10a.43.43 0 0 1-.358.26l-4.052.376a.433.433 0 0 0-.246.757l3.057 2.686a.43.43 0 0 1 .137.42l-.895 3.971a.433.433 0 0 0 .644.468l3.5-2.078a.43.43 0 0 1 .442 0l3.5 2.078a.433.433 0 0 0 .644-.468l-.895-3.97a.43.43 0 0 1 .137-.421l3.057-2.686a.433.433 0 0 0-.246-.757l-4.052-.376a.43.43 0 0 1-.358-.26z"/><path d="M29.154 27.5c3.382 0 6.576-1.338 8.846-3.5-.99 7.887-7.84 14-15.996 14-8.837 0-16-7.163-16-16 0-8.152 6.113-15.007 13.996-16-2.16 2.27-3.5 5.466-3.5 8.847 0 6.988 5.665 12.653 12.654 12.653"/></svg>