<svg xmlns="http://www.w3.org/2000/svg" viewBox="0 0 24 24"><path d="M17.215 3.141a.233.233 0 0 0-.43 0l-.866 2.013a.23.23 0 0 1-.193.14l-2.182.202a.233.233 0 0 0-.132.408l1.646 1.446a.23.23 0 0 1 .074.227l-.482 2.138c-.045.2.17.356.347.252l1.884-1.12a.23.23 0 0 1 .238 0l1.884 1.12a.233.233 0 0 0 .347-.252l-.482-2.138a.23.23 0 0 1 .074-.227l1.646-1.446a.233.233 0 0 0-.132-.408l-2.182-.202a.23.23 0 0 1-.193-.14z"/><path d="M16 15c1.933 0 3.733-.733 5-2-.474 4.525-4.35 8-9 8a9 9 0 0 1-9-9c0-4.65 3.475-8.526 8-9-1.267 1.267-2 3.066-2 5a7 7 0 0 0 7 7"/></svg>