<svg xmlns="http://www.w3.org/2000/svg" viewBox="0 0 32 32"><path d="M23.292 4.191a.319.319 0 0 0-.584 0l-1.182 2.732a.32.32 0 0 1-.262.19l-2.975.275a.316.316 0 0 0-.18.553l2.244 1.963a.32.32 0 0 1 .1.307l-.657 2.902a.318.318 0 0 0 .473.342l2.569-1.519a.32.32 0 0 1 .324 0l2.569 1.519a.318.318 0 0 0 .473-.342l-.657-2.902a.32.32 0 0 1 .1-.307l2.244-1.963a.316.316 0 0 0-.18-.553l-2.974-.275a.32.32 0 0 1-.263-.19z"/><path d="M21.337 20a9.3 9.3 0 0 0 6.601-2.735C27.306 23.298 22.204 28 16.004 28c-6.628 0-12-5.373-12-12 0-6.2 4.702-11.302 10.735-11.934A9.333 9.333 0 0 0 21.338 20"/></svg>