<svg xmlns="http://www.w3.org/2000/svg" viewBox="0 0 16 16"><path d="M11.646 2.096a.16.16 0 0 0-.292 0l-.59 1.372a.16.16 0 0 1-.132.095l-1.487.138a.16.16 0 0 0-.09.278l1.121.986a.16.16 0 0 1 .05.154l-.328 1.457a.16.16 0 0 0 .237.172l1.284-.762c.05-.03.112-.03.162 0l1.284.762a.16.16 0 0 0 .237-.172l-.329-1.457a.16.16 0 0 1 .05-.154l1.123-.986a.16.16 0 0 0-.09-.278l-1.488-.138a.16.16 0 0 1-.131-.095z"/><path fill-rule="evenodd" d="M11.167 9.5q.582-.001 1.123-.136a4.65 4.65 0 0 0 1.684-.802A6 6 0 1 1 7.44 2.026a4.65 4.65 0 0 0-.94 2.807A4.667 4.667 0 0 0 11.167 9.5m0 1.5q.095 0 .19-.003a4.5 4.5 0 1 1-6.354-6.354L5 4.833A6.167 6.167 0 0 0 11.167 11"/></svg>