<svg xmlns="http://www.w3.org/2000/svg" viewBox="0 0 28 28"><path fill-rule="evenodd" d="M4.874 4.874c-.725.726-.767 1.426-.85 2.827a14 14 0 0 0 0 1.598c.083 1.4.125 2.101.85 2.827.726.725 1.426.767 2.827.85a14 14 0 0 0 1.598 0c1.4-.083 2.101-.125 2.827-.85.725-.726.767-1.426.85-2.827a14 14 0 0 0 0-1.598c-.083-1.4-.125-2.101-.85-2.827-.726-.725-1.426-.767-2.827-.85a14 14 0 0 0-1.598 0c-1.4.083-2.101.125-2.827.85m0 11c-.725.726-.767 1.426-.85 2.827a14 14 0 0 0 0 1.598c.083 1.4.125 2.101.85 2.827.726.725 1.426.767 2.827.85a14 14 0 0 0 1.598 0c1.4-.083 2.101-.125 2.827-.85.725-.726.767-1.426.85-2.827a14 14 0 0 0 0-1.598c-.083-1.4-.125-2.101-.85-2.827-.726-.725-1.426-.767-2.827-.85a14 14 0 0 0-1.598 0c-1.4.083-2.101.125-2.827.85m10.15 2.827c.083-1.4.125-2.101.85-2.827.726-.725 1.426-.767 2.827-.85a14 14 0 0 1 1.598 0c1.4.083 2.101.125 2.827.85.725.726.767 1.426.85 2.827a14 14 0 0 1 0 1.598c-.083 1.4-.125 2.101-.85 2.827-.726.725-1.426.767-2.827.85a14 14 0 0 1-1.598 0c-1.4-.083-2.101-.125-2.827-.85-.725-.726-.767-1.426-.85-2.827a14 14 0 0 1 0-1.598M15.069 8.5c0 1.07.472 1.572 1.417 2.577a11 11 0 0 0 .495.495c1.005.945 1.507 1.417 2.577 1.417s1.572-.472 2.577-1.417a11 11 0 0 0 .495-.495c.945-1.005 1.417-1.507 1.417-2.577s-.472-1.572-1.417-2.577a11 11 0 0 0-.495-.495c-1.005-.945-1.507-1.417-2.577-1.417s-1.572.472-2.577 1.417a12 12 0 0 0-.495.495C15.54 6.928 15.068 7.43 15.068 8.5"/></svg>