<svg xmlns="http://www.w3.org/2000/svg" viewBox="0 0 44 44"><path fill-rule="evenodd" d="M23.274 13.5c0 1.554.695 2.314 2.086 3.834a18 18 0 0 0 1.145 1.145c1.52 1.39 2.28 2.086 3.834 2.086s2.314-.695 3.833-2.086a18 18 0 0 0 1.146-1.145c1.39-1.52 2.086-2.28 2.086-3.834s-.696-2.314-2.086-3.834a18 18 0 0 0-1.146-1.145c-1.52-1.39-2.28-2.086-3.833-2.086s-2.314.695-3.834 2.086a18 18 0 0 0-1.145 1.145c-1.39 1.52-2.086 2.28-2.086 3.834M7.029 12.466c.11-2.069.166-3.103 1.25-4.187s2.118-1.14 4.187-1.25a19 19 0 0 1 2.068 0c2.069.11 3.103.166 4.187 1.25s1.14 2.118 1.25 4.187a19 19 0 0 1 0 2.068c-.11 2.069-.166 3.103-1.25 4.187s-2.118 1.14-4.187 1.25a19 19 0 0 1-2.068 0c-2.069-.11-3.103-.166-4.187-1.25s-1.14-2.118-1.25-4.187a19 19 0 0 1 0-2.068m0 17c.11-2.069.166-3.103 1.25-4.187s2.118-1.14 4.187-1.25a19 19 0 0 1 2.068 0c2.069.11 3.103.166 4.187 1.25s1.14 2.118 1.25 4.187a19 19 0 0 1 0 2.068c-.11 2.069-.166 3.103-1.25 4.187s-2.118 1.14-4.187 1.25a19 19 0 0 1-2.068 0c-2.069-.11-3.103-.166-4.187-1.25s-1.14-2.118-1.25-4.187a19 19 0 0 1 0-2.068m17 0c.11-2.069.166-3.103 1.25-4.187s2.118-1.14 4.187-1.25a19 19 0 0 1 2.068 0c2.069.11 3.103.166 4.187 1.25s1.14 2.118 1.25 4.187a19 19 0 0 1 0 2.068c-.11 2.069-.166 3.103-1.25 4.187s-2.118 1.14-4.187 1.25a19 19 0 0 1-2.068 0c-2.069-.11-3.103-.166-4.187-1.25s-1.14-2.118-1.25-4.187a19 19 0 0 1 0-2.068"/></svg>