<svg xmlns="http://www.w3.org/2000/svg" viewBox="0 0 32 32"><path fill-rule="evenodd" d="M20.85 8.586q-.125.123-.246.255c-.272.29-.462.495-.618.676a3 3 0 0 0-.274.365 1 1 0 0 0-.007.118 1 1 0 0 0 .007.118l.019.034c.034.055.104.154.255.33a23 23 0 0 0 .864.932q.123.124.255.246c.29.272.495.462.676.618a3 3 0 0 0 .364.274 1 1 0 0 0 .119.007 1 1 0 0 0 .118-.007l.034-.019a3 3 0 0 0 .33-.255 24 24 0 0 0 .932-.864q.124-.123.246-.255a23 23 0 0 0 .618-.676 3 3 0 0 0 .274-.365 1 1 0 0 0 .007-.118 1 1 0 0 0-.007-.118l-.019-.034a3 3 0 0 0-.255-.33 23 23 0 0 0-.864-.932 23 23 0 0 0-.931-.864 3 3 0 0 0-.365-.274 1 1 0 0 0-.118-.007 1 1 0 0 0-.119.007l-.033.019a3 3 0 0 0-.33.255 23 23 0 0 0-.932.864m1.301-1.14h-.002zm.226 0h.002zm2.442 2.441-.002-.002zm-.002.228.002-.002zm-2.44 2.44.002-.002zm-.226 0-.002-.002zM19.71 9.887l.002-.002zM17.205 10c0 1.183.524 1.744 1.572 2.866a13 13 0 0 0 .621.621c1.122 1.048 1.683 1.572 2.866 1.572s1.744-.524 2.866-1.572a13 13 0 0 0 .621-.621c1.048-1.122 1.572-1.683 1.572-2.866s-.524-1.744-1.572-2.866a13 13 0 0 0-.621-.621c-1.122-1.048-1.683-1.572-2.866-1.572s-1.744.524-2.866 1.572a13 13 0 0 0-.621.621C17.729 8.256 17.205 8.817 17.205 10m5.045 10q-.267 0-.545.014c-.4.018-.685.033-.927.054a3 3 0 0 0-.434.06l-.049.015a1 1 0 0 0-.08.072 1 1 0 0 0-.072.08l-.015.05a3 3 0 0 0-.06.433A25 25 0 0 0 20 22.25q0 .267.014.545c.018.4.033.685.054.927.02.237.043.363.06.434l.015.049c.007.01.027.036.072.08a1 1 0 0 0 .08.072l.05.015c.07.017.196.04.433.06a25 25 0 0 0 1.472.068q.267 0 .545-.013c.4-.02.685-.033.927-.055.237-.02.363-.043.434-.06l.049-.015a1 1 0 0 0 .08-.072 1 1 0 0 0 .072-.08l.015-.05c.017-.07.04-.196.06-.433a25 25 0 0 0 .068-1.472q0-.267-.013-.545c-.02-.4-.033-.685-.055-.927a3 3 0 0 0-.06-.434l-.015-.049a1 1 0 0 0-.072-.08 1 1 0 0 0-.08-.072l-.05-.015a3 3 0 0 0-.433-.06A25 25 0 0 0 22.25 20m-3.803-1.553c-.82.82-.857 1.593-.93 3.14a14 14 0 0 0 0 1.327c.073 1.546.11 2.32.93 3.14s1.593.856 3.14.93a14 14 0 0 0 1.327 0c1.546-.074 2.319-.11 3.14-.93.82-.82.856-1.594.93-3.14a14 14 0 0 0 0-1.328c-.074-1.546-.11-2.319-.93-3.14-.821-.82-1.594-.856-3.14-.93a14 14 0 0 0-1.328 0c-1.546.074-2.319.11-3.14.93M9.75 7.5q-.268 0-.545.013c-.4.02-.685.033-.927.055-.237.02-.363.043-.434.06l-.049.015a1 1 0 0 0-.08.072 1 1 0 0 0-.072.08l-.014.05c-.018.07-.04.196-.061.433A25 25 0 0 0 7.5 9.75q0 .268.013.545c.02.4.033.685.055.927.02.237.043.363.06.434l.015.049c.007.01.027.036.072.08a1 1 0 0 0 .08.072l.05.014c.07.018.196.04.433.061A25 25 0 0 0 9.75 12q.268 0 .545-.014c.4-.019.685-.033.927-.054.237-.02.363-.043.434-.06l.049-.015a1 1 0 0 0 .08-.072 1 1 0 0 0 .072-.08l.014-.05c.018-.07.04-.196.061-.433A25 25 0 0 0 12 9.75q0-.268-.014-.545c-.019-.4-.033-.685-.054-.927a3 3 0 0 0-.06-.434l-.015-.049a1 1 0 0 0-.072-.08 1 1 0 0 0-.08-.072l-.05-.014a3 3 0 0 0-.433-.061A25 25 0 0 0 9.75 7.5m1.96.145-.004-.001zm-.008-.004L11.7 7.64zm.158.159-.001-.002zm-.003-.007-.002-.003zm-.002 3.917.002-.004zm.004-.008.001-.002zm-4.069.153.003.002zm.008.004.002.001zM7.64 11.7l.001.003zm.004.007v.002zm0-3.917v.003zm-.003.008L7.64 7.8zM7.8 7.64l-.002.001zm-.007.004H7.79zM5.947 5.947c-.82.82-.857 1.593-.93 3.14a14 14 0 0 0 0 1.327c.073 1.546.11 2.319.93 3.14.82.82 1.593.856 3.14.93a14 14 0 0 0 1.327 0c1.546-.074 2.319-.11 3.14-.93.82-.821.856-1.594.93-3.14a14 14 0 0 0 0-1.328c-.074-1.546-.11-2.319-.93-3.14-.821-.82-1.594-.856-3.14-.93a14 14 0 0 0-1.328 0c-1.546.074-2.319.11-3.14.93M9.75 20q-.268 0-.545.014c-.4.018-.685.033-.927.054-.237.02-.363.043-.434.06l-.049.015a1 1 0 0 0-.08.072 1 1 0 0 0-.072.08l-.014.05c-.018.07-.04.196-.061.433A25 25 0 0 0 7.5 22.25q0 .267.013.545c.02.4.033.685.055.927.02.237.043.363.06.434l.015.049c.007.01.027.036.072.08a1 1 0 0 0 .08.072l.05.015c.07.017.196.04.433.06a25 25 0 0 0 1.472.068q.268 0 .545-.014c.4-.018.685-.033.927-.054.237-.02.363-.043.434-.06l.049-.015a1 1 0 0 0 .08-.072 1 1 0 0 0 .072-.08l.014-.05c.018-.07.04-.196.061-.433A25 25 0 0 0 12 22.25q0-.267-.014-.545c-.019-.4-.033-.685-.054-.927a3 3 0 0 0-.06-.434l-.015-.049a1 1 0 0 0-.072-.08 1 1 0 0 0-.08-.072l-.05-.015a3 3 0 0 0-.433-.06A25 25 0 0 0 9.75 20m1.96.145-.004-.002zm-.008-.004-.002-.001zm.158.159-.001-.003zm-.003-.006-.002-.003zm-.002 3.915.002-.003zm.004-.006.001-.003zm-.159.157.003-.001zm.007-.003.002-.002zm-3.917-.002.003.002zm.008.004.002.001zM7.64 24.2l.001.003zm.004.006v.003zm0-3.915v.003zm.156-.151-.002.001zm-.007.003-.003.002zm-1.846-1.696c-.82.82-.857 1.593-.93 3.14a14 14 0 0 0 0 1.327c.073 1.546.11 2.319.93 3.14.82.82 1.593.856 3.14.93a14 14 0 0 0 1.327 0c1.546-.074 2.319-.11 3.14-.93.82-.821.856-1.594.93-3.14a14 14 0 0 0 0-1.328c-.074-1.546-.11-2.319-.93-3.14-.821-.82-1.594-.856-3.14-.93a14 14 0 0 0-1.328 0c-1.546.074-2.319.11-3.14.93"/></svg>