<svg xmlns="http://www.w3.org/2000/svg" viewBox="0 0 16 16"><path d="M9.828 1.093c1.266.462 1.9.693 1.887 1.08-.014.386-.662.573-1.957.947l-.8.23-.208.06v.397l.1.062q.36.228.755.485c1.21.784 2.64 1.71 4.105 2.21.787.267 1.13 1.02.347 1.298-1.778.633-4.958.633-6.057.633-1.098 0-4.28 0-6.057-.633-.783-.279-.44-1.031.347-1.299 1.466-.499 2.896-1.425 4.104-2.209q.395-.257.756-.485l.1-.063v-1.14h.007c-.007-.164-.007-.361-.007-.601 0-.721 0-1.082.18-1.298a.8.8 0 0 1 .336-.235c.264-.095.603.029 1.28.276zM6.792 9.985c-.495-.01-1.07-.031-1.668-.072a20 20 0 0 1-2.36-.289q-.006.58-.027 1.101l-.008.204a20 20 0 0 1-.086 1.335q-.043.381-.124.702a1 1 0 0 0-.019.206c0 .389.29.709.661.746l.193.044q.169.04.35.077c.562.11 1.237.226 1.97.313.657-1.315 1.118-2.79 1.118-4.339zm5.491 4.055c-.559.11-1.23.224-1.958.311-.657-1.316-1.117-2.79-1.117-4.338v-.028c.495-.01 1.07-.031 1.669-.072.734-.05 1.562-.135 2.346-.286q.005.578.027 1.098l.008.205c.022.514.043.95.086 1.334q.04.35.11.649a.8.8 0 0 1 .045.294.74.74 0 0 1-.66.711l-.167.037q-.184.043-.39.084"/></svg>