<svg xmlns="http://www.w3.org/2000/svg" viewBox="0 0 24 24"><path d="M14.756 1.884c1.843.693 2.764 1.04 2.744 1.618-.02.577-.962.858-2.848 1.419l-1.134.337-.499.147.278.182q.533.35 1.104.734c1.917 1.285 4.135 2.771 6.383 3.556 1.17.408 1.74 1.573.594 2.042-2.648 1.084-7.528 1.082-9.244 1.08h-.267c-1.716.002-6.597.004-9.244-1.08-1.147-.47-.577-1.634.593-2.042C5.465 9.092 7.682 7.606 9.6 6.32q.572-.384 1.104-.734l.298-.195v-2.05c0-1.074 0-1.611.26-1.934.134-.167.312-.292.512-.363.388-.136.883.05 1.875.424zm4.17 19.49c-.866.144-1.96.302-3.167.424-1.115-2.041-1.936-4.361-1.986-6.81.77-.015 1.682-.047 2.634-.116 1.099-.08 2.34-.214 3.517-.456a50 50 0 0 0 .04 1.666c.052 1.256.091 2.216.252 3.022.064.318.146.613.256.892.022.083.028.178.028.269 0 .546-.433.99-.97 1l-.22.04q-.185.035-.384.07M7.594 14.872a50 50 0 0 0 2.635.116c-.05 2.449-.872 4.769-1.986 6.81-1.207-.122-2.3-.28-3.167-.424q-.2-.033-.386-.07l-.218-.04a.995.995 0 0 1-.937-1.262c.11-.279.188-.58.251-.898.161-.806.2-1.766.252-3.022q.034-.789.04-1.666c1.178.242 2.417.376 3.516.456"/></svg>