<svg xmlns="http://www.w3.org/2000/svg" viewBox="0 0 24 24"><path fill-rule="evenodd" d="M17.499 3.495c.02-.574-.9-.92-2.74-1.614l-1.073-.404C12.69 1.1 12.191.914 11.8 1.043c-.213.07-.4.2-.541.374C11 1.737 11 2.27 11 3.336q-.001.375.004.664H11v1.464l-.28.214q-.39.3-.81.628c-1.932 1.503-4.277 3.327-6.677 4.237-1.115.424-1.752 1.59-.689 2.134.445.227.965.415 1.53.571a53 53 0 0 1-.036 2.834c-.052 1.256-.091 2.216-.252 3.022a5.3 5.3 0 0 1-.252.899.995.995 0 0 0 .937 1.262l.219.04q.186.035.386.07C6.79 21.657 9.396 22 12 22s5.21-.342 6.925-.626q.198-.034.383-.069l.22-.04a.995.995 0 0 0 .971-1c0-.09-.007-.186-.029-.27a5 5 0 0 1-.255-.89c-.161-.807-.2-1.767-.252-3.023a51 51 0 0 1-.037-2.834 8 8 0 0 0 1.529-.571c1.063-.543.426-1.71-.689-2.133-2.4-.911-4.746-2.736-6.678-4.238q-.42-.327-.81-.628L13 5.464v-.062q.247-.071.553-.163l1.1-.327c1.883-.562 2.826-.843 2.846-1.417M6.059 14v-.347c1.452.216 2.967.297 4.171.328v.768c0 1.794-.418 3.522-1.07 5.125a47 47 0 0 1-3.425-.418c.188-.954.228-1.95.269-2.984l.012-.307Q6.06 15.15 6.06 14m7.71.75v-.769c1.205-.03 2.721-.112 4.174-.328l-.001.347q0 1.15.043 2.165l.012.307c.041 1.033.081 2.03.27 2.983q-.208.034-.43.067c-.878.131-1.906.26-2.996.352-.653-1.603-1.071-3.33-1.071-5.125m-2.603-6.886c-1.414 1.103-3.22 2.512-5.167 3.584l-.246.112c.662.157 1.347.221 2.023.282C9.502 12 11.14 12 12 12s2.498-.001 4.224-.158c.676-.06 1.362-.124 2.023-.282l-.244-.11c-1.948-1.073-3.755-2.483-5.17-3.586q-.409-.32-.771-.599L12 7.217l-.062.048q-.364.279-.772.599"/></svg>