<svg xmlns="http://www.w3.org/2000/svg" viewBox="0 0 24 24"><path fill-rule="evenodd" d="M9.441 2.16C10.14 2.061 10.984 2 12 2s1.86.062 2.559.16c2.416.335 3.544 2.472 3.707 4.49A69 69 0 0 1 18.5 12c0 1.935-.115 3.863-.234 5.35-.163 2.018-1.291 4.155-3.707 4.49-.699.098-1.543.16-2.559.16s-1.86-.062-2.559-.16c-2.416-.335-3.544-2.472-3.707-4.49A68 68 0 0 1 5.5 12c0-1.935.115-3.863.234-5.35.163-2.018 1.291-4.155 3.707-4.49m.632 2.242a.32.32 0 0 0-.357-.262c-1.108.154-1.865 1.143-1.988 2.67A67 67 0 0 0 7.5 12c0 1.863.11 3.733.228 5.19.123 1.527.88 2.516 1.988 2.67.597.083 1.348.14 2.284.14s1.687-.057 2.284-.14c1.108-.154 1.865-1.143 1.988-2.67.117-1.457.228-3.327.228-5.19s-.11-3.733-.228-5.19c-.123-1.527-.88-2.516-1.988-2.67a.32.32 0 0 0-.357.262l-.041.227a.57.57 0 0 1-.564.471h-2.644a.57.57 0 0 1-.564-.47z"/></svg>