<svg xmlns="http://www.w3.org/2000/svg" viewBox="0 0 44 44"><path fill-rule="evenodd" d="M11.395 31.403c.266 2.957.399 4.435 2.14 6.217s2.993 1.925 5.497 2.21c.927.105 1.923.17 2.968.17s2.04-.065 2.968-.17c2.504-.285 3.756-.427 5.497-2.21 1.74-1.782 1.874-3.26 2.14-6.217.223-2.47.395-5.608.395-9.403 0-3.794-.172-6.931-.395-9.401-.266-2.959-.399-4.438-2.14-6.22s-2.995-1.925-5.5-2.209A26 26 0 0 0 22 4a26 26 0 0 0-2.964.17c-2.506.284-3.759.426-5.5 2.209-1.742 1.782-1.875 3.261-2.142 6.22C11.172 15.069 11 18.206 11 22c0 3.795.172 6.933.395 9.403M28.319 8.475c.559.573.758.969.892 1.423.182.616.265 1.395.407 2.97.214 2.381.382 5.429.382 9.132 0 3.704-.168 6.752-.383 9.134-.141 1.574-.224 2.352-.406 2.968-.134.453-.333.85-.892 1.422-.617.631-.984.818-1.304.93-.463.161-1.037.242-2.386.395-.826.094-1.708.151-2.629.151s-1.803-.057-2.629-.151c-1.349-.153-1.923-.234-2.386-.395-.32-.112-.687-.299-1.304-.93-.56-.572-.758-.969-.892-1.422-.182-.616-.265-1.394-.406-2.968C14.168 28.752 14 25.704 14 22c0-3.703.168-6.75.382-9.132.142-1.575.225-2.354.407-2.97.134-.454.333-.85.892-1.423.617-.63.984-.818 1.304-.93a3 3 0 0 1 .163-.051c.586-.171 1.186.174 1.459.72.24.482.733.786 1.272.786h4.242c.539 0 1.031-.304 1.272-.786.273-.546.873-.891 1.459-.72q.084.024.163.052c.32.111.687.298 1.304.93"/></svg>