<svg xmlns="http://www.w3.org/2000/svg" viewBox="0 0 16 16"><path fill-rule="evenodd" d="M7.527 14c-.226 0-.461 0-.662-.026a1.4 1.4 0 0 1-.742-.307 1.4 1.4 0 0 1-.428-.669 4 4 0 0 1-.107-.468 5 5 0 0 1-.304-.176c-.194.07-.395.143-.578.183a1.4 1.4 0 0 1-.794-.035 1.4 1.4 0 0 1-.64-.487 5 5 0 0 1-.356-.56l-.476-.815c-.114-.196-.233-.4-.312-.587a1.4 1.4 0 0 1-.107-.8c.055-.307.208-.532.37-.706.135-.145.311-.29.478-.426a5 5 0 0 1 0-.241 5 5 0 0 1-.479-.428 1.4 1.4 0 0 1-.37-.706 1.4 1.4 0 0 1 .107-.8 5 5 0 0 1 .312-.586l.476-.815c.114-.197.233-.4.357-.56a1.4 1.4 0 0 1 .64-.488c.291-.105.561-.087.794-.035.183.04.385.113.58.184q.147-.093.302-.175a4 4 0 0 1 .107-.469c.071-.226.19-.47.428-.669.241-.203.507-.277.742-.307C7.065 2 7.301 2 7.527 2h.945c.226 0 .462 0 .662.026.235.03.501.104.742.307.238.2.357.443.428.669.045.143.078.306.108.469q.155.082.302.175c.194-.07.396-.143.579-.184.232-.051.502-.07.794.035a1.4 1.4 0 0 1 .64.488c.123.16.242.364.356.56l.476.815c.114.196.233.4.312.586.092.22.163.488.107.8a1.4 1.4 0 0 1-.37.707 5 5 0 0 1-.477.426 5 5 0 0 1 0 .241c.167.138.344.283.479.428.162.174.315.4.37.707a1.4 1.4 0 0 1-.107.8c-.079.186-.198.39-.312.586l-.476.815c-.114.196-.233.4-.357.56a1.4 1.4 0 0 1-.64.488 1.4 1.4 0 0 1-.794.035 5 5 0 0 1-.58-.184q-.148.092-.303.175a4 4 0 0 1-.107.468c-.071.226-.19.47-.428.669a1.4 1.4 0 0 1-.742.307c-.2.026-.436.026-.662.026zm1.792-4.682c.256-.256.274-.456.31-.856a5 5 0 0 0 0-.926c-.036-.4-.054-.599-.31-.855s-.456-.274-.856-.31a5 5 0 0 0-.926 0c-.4.036-.599.054-.855.31s-.274.456-.31.855a5 5 0 0 0 0 .926c.036.4.054.6.31.856s.456.274.855.31a5 5 0 0 0 .926 0c.4-.036.6-.054.856-.31"/></svg>