<svg xmlns="http://www.w3.org/2000/svg" viewBox="0 0 32 32"><g fill-rule="evenodd" clip-rule="evenodd"><path d="M19.968 16.88c-.074 1.047-.111 1.57-.815 2.274s-1.227.741-2.273.816a12.4 12.4 0 0 1-1.76 0c-1.046-.075-1.57-.112-2.273-.816s-.741-1.227-.815-2.273a12.4 12.4 0 0 1 0-1.762c.074-1.046.111-1.57.815-2.273s1.227-.742 2.273-.816a12.4 12.4 0 0 1 1.76 0c1.046.075 1.57.112 2.273.816s.74 1.227.815 2.273a12.4 12.4 0 0 1 0 1.762m-3.265.595a10 10 0 0 1-1.406 0 13 13 0 0 1-.65-.058l-.063-.063-.01-.075a13 13 0 0 1-.049-.576 10 10 0 0 1 0-1.406 13 13 0 0 1 .059-.65l.063-.064.074-.01A13 13 0 0 1 16 14.499q.365.001.703.026a13 13 0 0 1 .65.058l.063.063.01.075c.017.134.029.297.049.576a10 10 0 0 1 0 1.406 13 13 0 0 1-.059.65l-.063.064-.074.01c-.135.016-.298.028-.576.048"/><path d="M16.951 28c.46 0 .915 0 1.3-.05.443-.057.923-.194 1.356-.559.426-.36.643-.8.776-1.225.113-.363.188-.8.262-1.233q.392-.204.763-.442c.414.153.83.307 1.202.39.434.099.923.13 1.448-.059.533-.192.89-.54 1.162-.895.235-.308.463-.703.693-1.101l.952-1.65c.23-.399.458-.793.607-1.151.172-.413.294-.897.194-1.455-.098-.55-.37-.957-.672-1.285-.259-.28-.6-.564-.94-.846a10 10 0 0 0 0-.88c.338-.28.679-.564.936-.843.302-.328.574-.735.672-1.285.1-.558-.022-1.042-.194-1.454-.149-.358-.377-.753-.607-1.151l-.952-1.65c-.23-.398-.457-.793-.693-1.101-.27-.355-.629-.703-1.162-.895-.524-.19-1.014-.158-1.448-.06-.37.083-.786.236-1.198.389a10 10 0 0 0-.763-.442c-.074-.434-.149-.87-.262-1.233-.133-.426-.35-.865-.776-1.225-.433-.365-.913-.502-1.356-.56C17.866 4 17.41 4 16.95 4h-1.903c-.46 0-.915 0-1.3.05-.443.057-.923.194-1.356.559-.427.36-.643.8-.776 1.225-.113.363-.188.8-.262 1.234a10 10 0 0 0-.763.44c-.413-.152-.83-.306-1.2-.39-.435-.097-.924-.13-1.45.06-.532.193-.89.54-1.161.895-.236.309-.463.704-.693 1.102l-.952 1.65c-.23.398-.458.793-.607 1.15-.172.413-.294.897-.194 1.455.098.55.37.957.672 1.285.258.28.6.564.94.846a10 10 0 0 0 0 .878c-.34.282-.68.565-.938.845-.302.327-.574.735-.672 1.284-.1.558.022 1.042.194 1.455.149.358.377.753.607 1.15l.952 1.65c.23.398.457.793.693 1.102.27.354.63.702 1.162.895.525.19 1.014.157 1.448.06.37-.084.785-.237 1.198-.39q.37.238.764.443c.074.434.149.87.262 1.233.133.426.35.865.776 1.225.433.366.913.502 1.356.56.385.05.84.05 1.3.049zM14.07 6.53l-.053.008-.013.04c-.058.186-.107.456-.196.977l-.035.207a1.95 1.95 0 0 1-1.076 1.43q-.488.236-.935.54a1.95 1.95 0 0 1-1.777.219l-.199-.074c-.496-.183-.754-.276-.944-.319L8.8 9.55l-.034.042c-.125.163-.272.413-.545.886l-.89 1.544c-.273.473-.416.725-.496.916l-.02.05.029.031c.132.143.34.32.748.659l.163.135a1.95 1.95 0 0 1 .7 1.645 8 8 0 0 0 0 1.084 1.95 1.95 0 0 1-.7 1.645l-.161.134c-.407.338-.616.515-.748.658l-.028.032.02.05c.079.19.222.442.495.915l.89 1.544c.273.473.42.723.545.886l.034.042.041-.008c.19-.043.448-.136.944-.319l.195-.073a1.95 1.95 0 0 1 1.778.22q.447.303.936.541c.546.265.967.783 1.076 1.43l.035.206c.089.521.138.791.196.977l.013.04.053.008c.204.027.494.03 1.04.03h1.78c.546 0 .836-.003 1.04-.03l.054-.008.013-.04c.058-.186.107-.456.196-.977l.035-.206a1.95 1.95 0 0 1 1.076-1.43 7.5 7.5 0 0 0 .935-.541 1.95 1.95 0 0 1 1.778-.219l.199.074c.496.184.754.276.943.319l.042.009.033-.042c.125-.164.273-.414.546-.887l.89-1.544c.273-.473.416-.725.495-.915l.02-.05-.028-.032c-.132-.143-.341-.32-.748-.658l-.164-.136a1.95 1.95 0 0 1-.7-1.646 8 8 0 0 0 0-1.084 1.95 1.95 0 0 1 .7-1.645l.16-.133c.407-.338.616-.516.748-.659l.028-.031-.02-.05c-.079-.19-.222-.443-.494-.916l-.891-1.543c-.273-.473-.42-.723-.545-.887l-.034-.042-.041.009c-.19.042-.448.135-.944.318l-.195.073a1.95 1.95 0 0 1-1.778-.219 8 8 0 0 0-.935-.54 1.95 1.95 0 0 1-1.076-1.43l-.035-.207c-.09-.521-.138-.791-.196-.977l-.013-.04-.053-.008c-.205-.027-.495-.03-1.04-.03h-1.78c-.546 0-.837.003-1.04.03"/></g></svg>