<svg xmlns="http://www.w3.org/2000/svg" viewBox="0 0 32 32"><path fill-rule="evenodd" d="M16.951 28c.46 0 .915 0 1.3-.05.443-.057.923-.194 1.356-.559.426-.36.643-.8.776-1.225.113-.363.188-.8.262-1.233q.392-.204.763-.442c.414.153.83.307 1.202.39.434.099.923.13 1.448-.059.533-.192.89-.54 1.162-.895.235-.308.463-.703.693-1.101l.952-1.65c.23-.399.458-.793.607-1.151.172-.413.294-.897.194-1.455-.098-.55-.37-.957-.672-1.285-.259-.28-.6-.564-.94-.846a10 10 0 0 0 0-.88c.338-.28.679-.564.936-.843.302-.328.574-.735.672-1.285.1-.558-.022-1.042-.194-1.454-.149-.358-.377-.753-.607-1.151l-.952-1.65c-.23-.398-.457-.793-.693-1.101-.27-.355-.629-.703-1.162-.895-.524-.19-1.014-.158-1.448-.06-.37.083-.786.236-1.198.389a10 10 0 0 0-.763-.442c-.074-.434-.149-.87-.262-1.233-.133-.426-.35-.865-.776-1.225-.433-.365-.913-.502-1.356-.56C17.866 4 17.41 4 16.95 4h-1.903c-.46 0-.915 0-1.3.05-.443.057-.923.194-1.356.559-.427.36-.643.8-.776 1.225-.113.363-.188.8-.262 1.234a10 10 0 0 0-.763.44c-.413-.152-.83-.306-1.2-.39-.435-.097-.924-.13-1.45.06-.532.193-.89.54-1.161.895-.236.309-.463.704-.693 1.102l-.952 1.65c-.23.398-.458.793-.607 1.15-.172.413-.294.897-.194 1.455.098.55.37.957.672 1.285.258.28.6.564.94.846a10 10 0 0 0 0 .878c-.34.282-.68.565-.938.845-.302.327-.574.735-.672 1.284-.1.558.022 1.042.194 1.455.149.358.377.753.607 1.15l.952 1.65c.23.398.457.793.693 1.102.27.354.63.702 1.162.895.525.19 1.014.157 1.448.06.37-.084.785-.237 1.198-.39q.37.238.764.443c.074.434.149.87.262 1.233.133.426.35.865.776 1.225.433.366.913.502 1.356.56.385.05.84.05 1.3.049zm-.141-9.03a11.4 11.4 0 0 1-1.62 0c-.556-.039-.824-.063-1.043-.13-.165-.05-.335-.136-.593-.394s-.343-.427-.394-.593c-.067-.219-.09-.486-.13-1.044a11 11 0 0 1 0-1.619c.04-.557.063-.824.13-1.043.05-.166.136-.335.394-.593s.428-.344.593-.394c.219-.067.487-.091 1.044-.13a11.4 11.4 0 0 1 1.619 0c.557.039.825.063 1.044.13.165.05.334.136.592.394s.344.427.395.593c.066.219.09.486.13 1.043a11.4 11.4 0 0 1 0 1.62c-.04.557-.064.824-.13 1.043-.05.166-.137.335-.395.593s-.427.344-.592.394c-.22.067-.487.091-1.044.13"/></svg>