<svg xmlns="http://www.w3.org/2000/svg" viewBox="0 0 44 44"><path fill-rule="evenodd" d="M6.264 24.941c-.192.68.034 1.21.486 2.268.35.817.81 1.78 1.394 2.791a26 26 0 0 0 1.72 2.602c.69.921 1.036 1.382 1.72 1.556.686.173 1.242-.082 2.356-.594q.52-.24 1.147-.537l.826.551q.053.647.102 1.184c.114 1.22.171 1.83.664 2.337.493.506 1.064.575 2.207.712.883.106 1.946.189 3.114.189s2.231-.083 3.114-.189c1.143-.137 1.714-.206 2.207-.712s.55-1.117.664-2.337q.05-.537.102-1.184l.826-.55q.627.297 1.147.536c1.114.512 1.67.767 2.355.594s1.03-.635 1.721-1.556A26 26 0 0 0 35.856 30a26 26 0 0 0 1.394-2.791c.452-1.059.679-1.588.487-2.268s-.692-1.034-1.693-1.743a90 90 0 0 0-.794-.556v-1.284q.43-.298.794-.556c1.001-.709 1.501-1.064 1.693-1.744s-.034-1.21-.488-2.269A26 26 0 0 0 35.856 14a26 26 0 0 0-1.719-2.601c-.69-.922-1.036-1.383-1.72-1.557-.686-.174-1.243.082-2.357.594q-.52.24-1.147.537l-.826-.551a92 92 0 0 0-.102-1.184c-.114-1.22-.17-1.831-.664-2.338-.493-.506-1.065-.574-2.209-.712A26 26 0 0 0 22 6c-1.167 0-2.23.083-3.112.188-1.144.138-1.716.206-2.209.712-.493.507-.55 1.117-.664 2.338q-.05.537-.102 1.184l-.826.55q-.627-.297-1.146-.536c-1.115-.512-1.672-.768-2.357-.594s-1.03.635-1.721 1.557A26 26 0 0 0 8.143 14a26 26 0 0 0-1.392 2.79c-.453 1.059-.68 1.588-.488 2.268s.692 1.035 1.693 1.744q.365.259.794.556v1.284q-.43.298-.794.556c-1 .709-1.5 1.063-1.693 1.743M24.998 9.517l-.03-.324-.213-.026A23 23 0 0 0 22 9c-1.028 0-1.97.073-2.755.167l-.212.026a101 101 0 0 0-.128 1.45c-.064.803-.097 1.204-.256 1.538-.056.119-.12.225-.199.33-.22.297-.55.508-1.212.928-.731.466-1.097.699-1.496.766a2 2 0 0 1-.422.026c-.404-.018-.806-.21-1.611-.591a88 88 0 0 0-1.02-.478l-.297-.135-.128.17a23 23 0 0 0-1.522 2.303 23 23 0 0 0-1.233 2.47l-.084.196a102 102 0 0 0 .87.613c.813.565 1.219.848 1.443 1.241q.036.063.067.129c.195.408.195.89.195 1.851 0 .962 0 1.443-.195 1.851a2 2 0 0 1-.067.129c-.224.393-.63.676-1.442 1.24a86 86 0 0 0-.87.614l.083.196a23 23 0 0 0 2.756 4.773l.127.17.296-.135q.465-.213 1.021-.478c.805-.382 1.207-.573 1.611-.591.144-.006.28.002.422.026.399.067.765.3 1.496.766.661.42.992.63 1.212.927.078.106.143.213.2.331.159.334.19.735.255 1.538q.05.616.097 1.126l.03.324.212.026c.786.094 1.727.167 2.756.167s1.97-.073 2.756-.167l.211-.026.015-.159.016-.165q.047-.51.097-1.126c.065-.803.097-1.204.256-1.538.056-.118.12-.225.2-.33.22-.297.55-.508 1.21-.928h.001c.731-.466 1.097-.699 1.496-.766.142-.024.278-.032.422-.026.404.018.806.21 1.611.591q.557.265 1.021.478l.296.135.127-.17a23 23 0 0 0 1.523-2.303c.515-.89.922-1.743 1.233-2.47l.084-.196a91 91 0 0 0-.87-.613c-.813-.565-1.219-.848-1.443-1.241a2 2 0 0 1-.067-.128C32 23.442 32 22.962 32 22s0-1.443.195-1.851q.031-.066.067-.129c.224-.393.63-.676 1.443-1.24a84 84 0 0 0 .87-.614l-.084-.197a23 23 0 0 0-1.233-2.469 23 23 0 0 0-1.522-2.302l-.128-.171-.296.135q-.465.213-1.02.477c-.806.383-1.208.574-1.612.592a2 2 0 0 1-.422-.026c-.399-.067-.765-.3-1.496-.766-.661-.42-.992-.63-1.212-.927a2 2 0 0 1-.2-.331c-.158-.334-.19-.735-.255-1.538a86 86 0 0 0-.097-1.126m-3.709 10.505a12 12 0 0 1 1.422 0c.405.024.683.04.918.064.112.01.194.022.254.03q.015.088.031.255c.023.235.04.513.064.918a12 12 0 0 1 0 1.422c-.024.405-.04.683-.064.918a5 5 0 0 1-.03.254q-.088.015-.255.031c-.235.023-.513.04-.918.064a12 12 0 0 1-1.422 0c-.405-.024-.683-.04-.918-.064a5 5 0 0 1-.254-.03q-.015-.088-.031-.255c-.023-.235-.04-.513-.064-.918a12 12 0 0 1 0-1.422c.024-.405.04-.683.064-.918q.017-.166.03-.254.088-.015.255-.031c.235-.023.513-.04.918-.064m-4.262 1.09c.092-1.556.138-2.334.944-3.14.807-.807 1.585-.853 3.141-.945a15 15 0 0 1 1.776 0c1.556.092 2.334.138 3.14.944.807.807.853 1.585.945 3.141a15 15 0 0 1 0 1.776c-.092 1.556-.138 2.334-.944 3.14-.807.807-1.585.853-3.141.945a15 15 0 0 1-1.776 0c-1.556-.092-2.334-.138-3.14-.944-.807-.807-.853-1.585-.945-3.141a15 15 0 0 1 0-1.776"/></svg>