<svg xmlns="http://www.w3.org/2000/svg" viewBox="0 0 44 44"><path fill-rule="evenodd" d="M13.535 37.62c-1.741-1.782-1.874-3.26-2.14-6.217C11.172 28.933 11 25.795 11 22c0-3.794.172-6.931.394-9.401.267-2.959.4-4.438 2.142-6.22s2.994-1.925 5.5-2.21A26 26 0 0 1 22 4c1.044 0 2.038.065 2.965.17 2.505.284 3.758.426 5.5 2.209 1.741 1.782 1.874 3.261 2.14 6.22.223 2.47.395 5.607.395 9.401 0 3.795-.172 6.933-.395 9.403-.266 2.957-.4 4.435-2.14 6.217s-2.993 1.925-5.497 2.21c-.927.105-1.923.17-2.968.17s-2.04-.065-2.968-.17c-2.504-.285-3.756-.427-5.497-2.21M29.211 9.898c-.134-.454-.333-.85-.892-1.423-.617-.63-.984-.818-1.304-.93-.464-.16-1.04-.241-2.389-.394A23 23 0 0 0 22 7c-.92 0-1.801.057-2.626.15-1.35.154-1.925.234-2.389.396-.32.111-.687.298-1.304.93-.559.572-.758.968-.892 1.422-.182.617-.265 1.395-.407 2.97C14.168 15.249 14 18.297 14 22c0 3.704.168 6.752.383 9.134.141 1.574.224 2.352.406 2.968.134.453.333.85.892 1.422.617.631.984.818 1.304.93.463.161 1.037.242 2.386.395.826.094 1.708.151 2.629.151s1.803-.057 2.629-.151c1.349-.153 1.923-.234 2.386-.395.32-.112.687-.299 1.304-.93.56-.572.758-.969.892-1.422.182-.616.265-1.394.407-2.968.214-2.382.382-5.43.382-9.134 0-3.703-.168-6.75-.382-9.132-.142-1.575-.225-2.354-.407-2.97"/><path d="M24.25 30.75a2.25 2.25 0 1 1-4.5 0 2.25 2.25 0 0 1 4.5 0"/></svg>