<svg xmlns="http://www.w3.org/2000/svg" viewBox="0 0 16 16"><path d="M8 12a.9.9 0 1 0 0-1.8.9.9 0 0 0 0 1.8"/><path fill-rule="evenodd" d="M3.603 4.129c.096-1.402 1.027-2.685 2.406-2.954A10.4 10.4 0 0 1 8 1c.8 0 1.456.071 1.99.175 1.38.269 2.31 1.552 2.407 2.954.06.878.103 2.119.103 3.871s-.043 2.993-.103 3.871c-.096 1.402-1.027 2.685-2.406 2.954C9.456 14.929 8.799 15 8 15s-1.456-.071-1.99-.175c-1.38-.269-2.31-1.552-2.407-2.954C3.543 10.993 3.5 9.752 3.5 8s.043-2.993.103-3.871m1.496 7.64C5.042 10.934 5 9.73 5 8s.042-2.935.1-3.768c.06-.872.618-1.472 1.196-1.585A9 9 0 0 1 8 2.5c.71 0 1.271.063 1.704.147.578.113 1.137.713 1.196 1.585.058.833.1 2.037.1 3.768s-.042 2.935-.1 3.768c-.06.872-.618 1.472-1.196 1.585A9 9 0 0 1 8 13.5a9 9 0 0 1-1.704-.147c-.578-.113-1.137-.713-1.197-1.585"/></svg>