<svg xmlns="http://www.w3.org/2000/svg" viewBox="0 0 24 24"><path d="M12 18a1.25 1.25 0 1 0 0-2.5 1.25 1.25 0 0 0 0 2.5"/><path fill-rule="evenodd" d="M12 2c-1.016 0-1.86.062-2.559.16-2.416.335-3.544 2.472-3.707 4.49A68 68 0 0 0 5.5 12c0 1.935.115 3.863.234 5.35.163 2.018 1.291 4.155 3.707 4.49.699.098 1.543.16 2.559.16s1.86-.062 2.559-.16c2.416-.335 3.544-2.472 3.707-4.49.12-1.487.234-3.415.234-5.35a69 69 0 0 0-.234-5.35c-.163-2.018-1.291-4.155-3.707-4.49A19 19 0 0 0 12 2M9.716 4.14C10.313 4.057 11.064 4 12 4s1.687.057 2.284.14c1.108.154 1.865 1.143 1.988 2.67.117 1.457.228 3.327.228 5.19s-.11 3.733-.228 5.19c-.123 1.527-.88 2.516-1.988 2.67A17 17 0 0 1 12 20c-.936 0-1.687-.057-2.284-.14-1.108-.154-1.865-1.143-1.988-2.67A67 67 0 0 1 7.5 12c0-1.863.11-3.733.228-5.19.123-1.527.88-2.516 1.988-2.67"/></svg>