<svg xmlns="http://www.w3.org/2000/svg" viewBox="0 0 16 16"><path d="M8.25 10.5a.75.75 0 0 1 0 1.5h-2.5a.75.75 0 0 1 0-1.5zM8 8.25a.75.75 0 0 0-.75-.75h-1.5a.75.75 0 0 0 0 1.5h1.5A.75.75 0 0 0 8 8.25"/><path fill-rule="evenodd" d="M8 15c.703 0 1.364-.038 1.965-.097 1.336-.131 2.004-.196 2.848-1.038s.91-1.511 1.044-2.849C13.942 10.171 14 9.166 14 8q.001-1.059-.011-2.119c-.003-.213-.11-.435-.27-.635-.278-.35-.885-1.11-1.927-2.12-1.237-1.2-1.867-1.738-2.198-1.929-.13-.076-.363-.193-.515-.195-1.016-.007-2.03-.004-3.043.095-1.337.13-2.005.196-2.849 1.038s-.91 1.512-1.044 2.85C2.059 5.829 2 6.835 2 8s.059 2.171.143 3.016c.134 1.338.2 2.007 1.044 2.849s1.512.907 2.848 1.038A20 20 0 0 0 8 15M7.5 3c0 .806.103 1.586.196 2.135l.01.065c.042.27.142.932.652 1.442s1.171.61 1.442.652l.065.01c.549.093 1.33.196 2.135.196q.253 0 .5-.012V8a29 29 0 0 1-.136 2.867c-.071.717-.11 1.047-.193 1.307-.057.181-.144.356-.418.629s-.448.36-.629.416c-.26.082-.589.12-1.305.191a18.6 18.6 0 0 1-3.638 0c-.716-.07-1.045-.11-1.305-.19-.18-.057-.356-.144-.63-.417-.273-.273-.36-.448-.417-.629-.082-.26-.122-.59-.194-1.307A29 29 0 0 1 3.5 8c0-1.115.056-2.07.135-2.866.072-.718.112-1.048.194-1.308.057-.181.144-.356.418-.629.273-.273.448-.36.629-.416.26-.082.59-.12 1.306-.191q.626-.062 1.33-.083Q7.5 2.75 7.5 3m1.509-.385A9 9 0 0 0 9 3c0 .69.089 1.378.175 1.883.062.366.093.548.244.699.15.15.332.18.698.243C10.622 5.911 11.31 6 12 6q.199 0 .394-.009a20 20 0 0 0-1.646-1.788 38 38 0 0 0-1.38-1.29 9 9 0 0 0-.36-.298"/></svg>