<svg xmlns="http://www.w3.org/2000/svg" viewBox="0 0 16 16"><path fill-rule="evenodd" d="M9.965 14.903A20 20 0 0 1 8 15a20 20 0 0 1-1.965-.097c-1.336-.131-2.004-.196-2.848-1.038s-.91-1.511-1.044-2.85A30 30 0 0 1 2 8c0-1.165.059-2.17.143-3.015.133-1.338.2-2.008 1.044-2.85s1.512-.907 2.85-1.038C7.048.998 8.062.995 9.078 1.002c.152.002.384.12.515.195.33.19.961.73 2.198 1.929a21 21 0 0 1 1.928 2.12c.16.2.266.422.269.635q.013 1.06.011 2.12c0 1.164-.059 2.17-.143 3.015-.134 1.338-.2 2.007-1.044 2.849s-1.512.907-2.848 1.038M9 3q0-.194.009-.385.134.103.358.299c.325.283.77.697 1.381 1.289.817.792 1.332 1.4 1.646 1.788q-.196.01-.394.01c-.69 0-1.378-.09-1.883-.176-.366-.062-.548-.093-.698-.243s-.182-.333-.244-.699A11.6 11.6 0 0 1 9 3m-.75 7.5a.75.75 0 0 1 0 1.5h-2.5a.75.75 0 0 1 0-1.5zM8 8.25a.75.75 0 0 0-.75-.75h-1.5a.75.75 0 0 0 0 1.5h1.5A.75.75 0 0 0 8 8.25"/></svg>