<svg xmlns="http://www.w3.org/2000/svg" viewBox="0 0 44 44"><path fill-rule="evenodd" d="m24.334 4.999-.108-.08-.468-.338A3 3 0 0 0 22 4a42 42 0 0 0-3.215.123c-3.504.267-5.255.4-7.651 2.783s-2.55 4.245-2.855 7.969A87 87 0 0 0 8 22c0 2.713.112 5.09.28 7.127.305 3.722.458 5.583 2.853 7.966s4.147 2.515 7.648 2.783a42 42 0 0 0 6.438 0c3.501-.267 5.252-.401 7.648-2.783 2.395-2.383 2.548-4.244 2.854-7.966C35.888 27.09 36 24.713 36 22c0-1.686-.043-3.243-.116-4.669a3.9 3.9 0 0 0-.94-2.331l-.252-.295-.383-.433a123 123 0 0 0-1.299-1.446c-1.032-1.132-2.353-2.54-3.435-3.551-1.091-1.02-2.445-2.12-3.507-2.952a90 90 0 0 0-1.734-1.324m-3.938 2.035q-.708.03-1.383.081c-1.853.142-2.795.23-3.58.473-.629.195-1.26.529-2.184 1.447-.901.896-1.247 1.541-1.458 2.231-.261.854-.361 1.893-.522 3.855a84 84 0 0 0-.269 6.88c0 2.63.108 4.924.27 6.88.16 1.962.26 3 .521 3.853.211.69.557 1.335 1.458 2.231.923.918 1.555 1.252 2.183 1.447.785.244 1.726.331 3.578.473a39 39 0 0 0 5.98 0c1.852-.142 2.793-.23 3.578-.473.628-.195 1.26-.529 2.183-1.447.901-.896 1.247-1.541 1.458-2.23.261-.854.36-1.892.522-3.854.16-1.956.269-4.25.269-6.88a91 91 0 0 0-.048-2.993c-.333.023-.722.046-1.15.067a51 51 0 0 1-3.33.059c-1.05-.02-2.141-.084-3.126-.23a10.3 10.3 0 0 1-1.808-.415c-.536-.184-1.132-.464-1.595-.925-.456-.453-.738-1.035-.925-1.56a10 10 0 0 1-.428-1.768c-.16-1.003-.235-2.123-.263-3.197a51 51 0 0 1 .069-4.005m2.93 3.927a46 46 0 0 1 .015-2.641c1.37 1.012 3.049 2.298 4.155 3.294 2.338 2.107 3.6 3.54 4.276 4.459l-.116.005c-.92.045-2.024.077-3.128.056-.98-.018-1.933-.078-2.744-.197a7.3 7.3 0 0 1-1.27-.285 2.3 2.3 0 0 1-.356-.151.6.6 0 0 1-.1-.065.6.6 0 0 1-.065-.097 2 2 0 0 1-.15-.343 7 7 0 0 1-.29-1.232c-.132-.823-.2-1.797-.227-2.803M15 23.5a1.5 1.5 0 0 1 1.5-1.5h4a1.5 1.5 0 0 1 0 3h-4a1.5 1.5 0 0 1-1.5-1.5m1.5 4.5a1.5 1.5 0 0 0 0 3h8a1.5 1.5 0 0 0 0-3z"/></svg>