<svg xmlns="http://www.w3.org/2000/svg" viewBox="0 0 44 44"><path fill-rule="evenodd" d="m24.226 4.92.108.079.396.296c.335.252.803.609 1.338 1.028 1.062.832 2.416 1.931 3.507 2.952 1.082 1.012 2.403 2.419 3.435 3.55a135 135 0 0 1 1.682 1.88l.251.295c.56.654.897 1.471.94 2.331.074 1.426.117 2.983.117 4.67 0 2.712-.112 5.089-.28 7.126-.305 3.722-.458 5.583-2.853 7.966s-4.147 2.515-7.648 2.783A42 42 0 0 1 22 40c-1.123 0-2.2-.046-3.219-.124-3.501-.267-5.252-.401-7.648-2.783-2.395-2.383-2.548-4.244-2.854-7.966A87 87 0 0 1 8 22c0-2.711.112-5.087.279-7.124.306-3.724.458-5.586 2.855-7.969s4.147-2.516 7.65-2.783A42 42 0 0 1 22 4c.632 0 1.245.21 1.758.58zM15 23.5a1.5 1.5 0 0 1 1.5-1.5h4a1.5 1.5 0 0 1 0 3h-4a1.5 1.5 0 0 1-1.5-1.5m1.5 4.5a1.5 1.5 0 0 0 0 3h8a1.5 1.5 0 0 0 0-3zm6.826-17.039a46 46 0 0 1 .015-2.641c1.37 1.012 3.049 2.298 4.155 3.294 2.338 2.107 3.6 3.54 4.276 4.459l-.116.005c-.92.045-2.024.077-3.128.056-.98-.018-1.933-.078-2.744-.197a7.3 7.3 0 0 1-1.27-.285 2.3 2.3 0 0 1-.356-.151.6.6 0 0 1-.1-.065.6.6 0 0 1-.065-.097 2 2 0 0 1-.15-.343 7 7 0 0 1-.29-1.232c-.132-.823-.2-1.797-.227-2.803"/></svg>