<svg xmlns="http://www.w3.org/2000/svg" viewBox="0 0 44 44"><path fill-rule="evenodd" d="M6.088 19.633c.22-3.375.33-5.062 2.422-7.19 1.56-1.587 2.949-2.073 5.035-2.34.2-.45.494-.921.922-1.472.136-.174.549-.623.71-.772 1.622-1.497 2.733-1.59 4.954-1.777A22 22 0 0 1 22 6c.628 0 1.256.03 1.868.082 2.22.186 3.331.28 4.953 1.777.162.15.575.598.71.772.429.55.722 1.023.922 1.471 2.087.268 3.477.754 5.036 2.34 2.09 2.129 2.201 3.816 2.421 7.191a41 41 0 0 1 0 5.359c-.22 3.375-.33 5.062-2.421 7.19-1.5 1.526-2.841 2.034-4.797 2.308L33.447 40h-3.354l-2.601-5.202a73 73 0 0 1-3.994.187V40h-3v-5.015a73 73 0 0 1-3.994-.187L13.903 40h-3.354l2.755-5.51c-1.954-.275-3.296-.783-4.794-2.308-2.091-2.128-2.201-3.815-2.422-7.19a41 41 0 0 1 0-5.359M21.998 28a6 6 0 1 0 0-12 6 6 0 0 0 0 12m3-6a3 3 0 1 1-6 0 3 3 0 0 1 6 0"/></svg>