<svg xmlns="http://www.w3.org/2000/svg" viewBox="0 0 32 32"><path fill-rule="evenodd" d="M14.748 24.987a57 57 0 0 1-2.46-.105L10.228 29H7.435l2.176-4.352c-1.57-.196-2.608-.55-3.77-1.734-1.545-1.572-1.624-2.802-1.782-5.261a29 29 0 0 1 0-3.68c.158-2.46.237-3.69 1.782-5.262 1.186-1.208 2.242-1.552 3.868-1.746a6 6 0 0 1 .367-.647c.192-.303.81-.98 1.094-1.2 1.093-.846 1.792-.91 3.192-1.039C14.896 4.03 15.448 4 15.998 4s1.102.03 1.637.08c1.399.128 2.099.192 3.192 1.039.283.22.901.896 1.094 1.199.15.236.27.448.367.647 1.625.194 2.682.538 3.868 1.746 1.545 1.572 1.624 2.802 1.782 5.261a29 29 0 0 1 0 3.68c-.158 2.46-.237 3.69-1.782 5.262-1.162 1.183-2.2 1.538-3.77 1.734L24.562 29h-2.795l-2.06-4.118a57 57 0 0 1-2.46.105V29h-2.5zM20.5 15.5a4.5 4.5 0 1 1-9 0 4.5 4.5 0 0 1 9 0m-4.5 2a2 2 0 1 0 0-4 2 2 0 0 0 0 4"/></svg>