<svg xmlns="http://www.w3.org/2000/svg" viewBox="0 0 24 24"><g fill-rule="evenodd" clip-rule="evenodd"><path d="M15.5 12a3.5 3.5 0 1 1-7 0 3.5 3.5 0 0 1 7 0m-2 0a1.5 1.5 0 1 1-3 0 1.5 1.5 0 0 1 3 0"/><path d="M3.05 10.529c.122-1.858.184-2.787 1.34-3.963.882-.897 1.669-1.158 2.873-1.305.082-.178.19-.369.334-.583.132-.199.544-.649.73-.798.838-.675 1.39-.725 2.495-.824C11.207 3.02 11.605 3 12 3c.396 0 .793.021 1.178.056 1.105.1 1.657.149 2.495.824.186.149.598.6.73.798.143.214.252.405.335.583 1.204.147 1.99.408 2.872 1.305 1.156 1.176 1.218 2.105 1.34 3.963a22 22 0 0 1 0 2.942c-.122 1.858-.184 2.787-1.34 3.963-.823.837-1.563 1.12-2.637 1.274L18.619 22h-2.236l-1.547-3.093a42 42 0 0 1-1.835.082V22h-2v-3.011a42 42 0 0 1-1.835-.082L7.619 22H5.383l1.646-3.292c-1.075-.153-1.815-.436-2.639-1.274-1.156-1.176-1.218-2.105-1.34-3.963a22 22 0 0 1 0-2.942M12 5c-.326 0-.662.017-1 .048-.605.054-.813.08-.975.127-.405.116-.774.553-.947.926l-.468 1.01-1.105.136c-.525.064-.808.137-1.012.224-.18.077-.387.203-.677.497-.376.383-.49.625-.561.875-.104.363-.144.822-.21 1.818a20 20 0 0 0 0 2.678c.066.996.106 1.455.21 1.818.072.25.185.492.561.875.36.365.606.49.894.574.404.119.92.17 1.979.26.964.08 2.073.134 3.311.134a40 40 0 0 0 3.311-.135c1.06-.088 1.575-.14 1.979-.259.288-.085.534-.209.894-.574.376-.383.49-.625.561-.875.104-.363.144-.822.21-1.818a20 20 0 0 0 0-2.678c-.066-.996-.106-1.455-.21-1.818-.072-.25-.185-.492-.561-.875-.29-.294-.496-.42-.677-.497-.204-.087-.487-.16-1.012-.224l-1.105-.135-.468-1.01c-.173-.374-.542-.811-.947-.928-.162-.046-.37-.072-.976-.126A11 11 0 0 0 12 5"/></g></svg>