<svg xmlns="http://www.w3.org/2000/svg" viewBox="0 0 16 16"><path d="M11.498 11.242a3.75 3.75 0 0 1-2.407-1.09L8.074 9.134H2.097a1.097 1.097 0 1 1 0-2.195H8l1.091-1.09a3.75 3.75 0 0 1 2.407-1.091c.007-.685.05-1.05.312-1.2.313-.18.728.072 1.557.576l.364.221.017.01c.83.505 1.249.76 1.249 1.135s-.42.63-1.25 1.135l-.016.01-.364.22c-.829.505-1.244.757-1.557.577-.255-.146-.302-.497-.311-1.15v-.029a2.25 2.25 0 0 0-1.347.646L9.06 8l1.09 1.091c.365.364.84.59 1.348.646v-.028c.009-.654.056-1.005.311-1.151.313-.18.728.072 1.557.576l.364.221.017.01c.83.505 1.249.76 1.249 1.135s-.42.63-1.25 1.134l-.016.01-.364.222c-.83.504-1.244.756-1.557.576-.261-.15-.305-.515-.312-1.2"/></svg>