<svg xmlns="http://www.w3.org/2000/svg" viewBox="0 0 24 24"><path d="M13.829 15.243 12 13.414H3.414a1.414 1.414 0 0 1 0-2.828H12l1.829-1.829A6 6 0 0 1 17 7.097v-.045c.007-1.135.055-1.729.448-1.965.447-.27 1.04.109 2.224.864l.52.332.024.015C21.4 7.055 22 7.437 22 8s-.599.945-1.784 1.702l-.024.015-.52.332c-1.185.756-1.777 1.134-2.224.864-.37-.222-.434-.761-.446-1.768h-.001a4 4 0 0 0-1.758 1.027L13.414 12l1.829 1.828A4 4 0 0 0 17 14.854h.001c.012-1.006.076-1.545.446-1.767.447-.27 1.04.108 2.224.864l.52.332.024.015C21.4 15.055 22 15.437 22 16s-.599.945-1.784 1.702l-.024.015-.52.332c-1.184.756-1.777 1.134-2.224.864-.393-.236-.442-.83-.448-1.965v-.044a6 6 0 0 1-3.171-1.661"/></svg>