<svg xmlns="http://www.w3.org/2000/svg" viewBox="0 0 24 24"><path d="M8.146 6.16A45 45 0 0 1 12.03 6c1.492 0 2.787.065 3.884.16 1.08.094 1.569.149 1.99.278.313.097.613.25 1.06.699.459.46.607.755.697 1.043.123.394.173.88.26 1.918a23 23 0 0 1 0 3.805c-.087 1.037-.137 1.523-.26 1.917-.09.288-.238.584-.696 1.043-.448.449-.748.602-1.06.699-.422.13-.946.184-2.025.278a45 45 0 0 1-3.884.16 45 45 0 0 1-3.884-.16c-1.08-.094-1.602-.149-2.023-.278-.313-.097-.613-.25-1.06-.699l-.033-.032c-.27-.275-.627-.468-1.012-.468-.787 0-1.336.77-.846 1.386q.204.257.473.526c1.29 1.294 2.303 1.382 4.328 1.557 1.153.1 2.507.168 4.057.168s2.903-.067 4.057-.168c2.026-.175 3.04-.263 4.33-1.557s1.37-2.265 1.532-4.206a25 25 0 0 0 0-4.137c-.162-1.942-.243-2.913-1.533-4.207s-2.303-1.382-4.33-1.557A47 47 0 0 0 11.997 4c-1.55 0-2.904.068-4.057.168-2.025.175-3.038.263-4.328 1.557a6 6 0 0 0-.472.526c-.49.616.058 1.386.845 1.386.386 0 .743-.193 1.012-.468l.032-.032c.448-.449.748-.602 1.06-.699.422-.13.979-.184 2.058-.278"/><path d="M5.712 10.707a1 1 0 1 0-1.415-1.415l-1.293 1.293L1.71 9.292a1 1 0 0 0-1.415 1.415l1.294 1.292-1.294 1.293a1 1 0 1 0 1.415 1.415l1.294-1.293 1.293 1.293a1 1 0 0 0 1.415-1.415L4.418 12zm7.769-.361c0-.575-.3-.816-.955-.816-.679 0-.957.211-1.026.97h-2C9.58 8.614 10.743 8 12.526 8c1.899 0 2.946.644 2.946 2.403 0 1.585-1.207 2.164-2.266 2.671-.77.37-1.462.615-1.554 1.27H15.5v1.655h-6v-.954c0-2.025 1.39-2.58 2.527-3.103.787-.363 1.454-.67 1.454-1.343z"/></svg>