<svg xmlns="http://www.w3.org/2000/svg" viewBox="0 0 16 16"><path d="M4.285 5.97a.75.75 0 0 1 0 1.06L3.314 8l.97.97a.75.75 0 1 1-1.061 1.06l-.97-.97-.971.97A.751.751 0 0 1 .22 8.97L1.19 8l-.97-.97a.75.75 0 1 1 1.062-1.06l.97.97.97-.97a.75.75 0 0 1 1.063 0"/><path fill-rule="evenodd" d="M11.004 12.882c1.38-.115 2.07-.172 2.935-1.038s.915-1.489 1.016-2.731a14 14 0 0 0 0-2.226c-.1-1.243-.15-1.864-1.016-2.73-.865-.867-1.555-.924-2.936-1.039A37 37 0 0 0 7.993 3c-1.163 0-2.167.048-3.011.118-1.38.115-2.07.172-2.935 1.038a3.5 3.5 0 0 0-.586.744c.192.085.371.206.528.363l.263.262.263-.262a1.753 1.753 0 0 1 2.477 0 1.75 1.75 0 0 1 0 2.474L4.73 8l.263.263a1.75 1.75 0 0 1 0 2.474 1.753 1.753 0 0 1-2.477 0l-.263-.262-.263.262a1.8 1.8 0 0 1-.528.363c.137.241.324.481.586.744.866.866 1.555.923 2.935 1.038.844.07 1.848.118 3.011.118s2.167-.049 3.01-.118M9.57 6.476c.418 0 .61.154.61.52v.162c0 .43-.426.578-.93.81-.725.333-1.612.632-1.612 1.923v.609h3.812V9.444H9.012c.058-.417.5-.519.991-.754.676-.324 1.447-.693 1.447-1.657 0-1.122-.669-1.533-1.88-1.533-1.139 0-1.858.41-1.91 1.614h1.263c.045-.484.213-.638.647-.638"/></svg>