<svg xmlns="http://www.w3.org/2000/svg" viewBox="0 0 44 44"><path d="M14.486 36.454c3.96-4.268 7.612-8.493 10.057-11.383.948.484 1.912.877 2.78 1.186 1.894.675 3.934-.077 5.185-1.652l5.105-6.422a1.78 1.78 0 0 0-.135-2.363l-1.274-1.274-4.752 4.752a1.5 1.5 0 1 1-2.122-2.12l4.753-4.754-2.508-2.508-4.752 4.753a1.5 1.5 0 1 1-2.122-2.121l4.753-4.753-1.273-1.273a1.777 1.777 0 0 0-2.363-.135l-6.422 5.105c-1.575 1.251-2.327 3.292-1.652 5.186.309.865.7 1.827 1.183 2.774-2.89 2.445-7.115 6.097-11.383 10.06-2.032 1.886-2.053 5.074-.093 7.035 1.96 1.96 5.148 1.939 7.035-.093"/></svg>