<svg xmlns="http://www.w3.org/2000/svg" viewBox="0 0 17 17"><path d="M5.506 14.258c1.578-1.7 3.033-3.384 4.007-4.535.377.192.761.349 1.107.472.755.269 1.568-.03 2.066-.658l2.034-2.559a.71.71 0 0 0-.054-.941l-.48-.48-1.893 1.894a.637.637 0 1 1-.902-.902l1.894-1.894-.943-.943-1.894 1.894a.637.637 0 1 1-.901-.901l1.894-1.894-.48-.48a.71.71 0 0 0-.94-.053L7.46 4.312c-.626.499-.926 1.312-.657 2.067.123.344.279.728.471 1.105-1.151.974-2.835 2.43-4.535 4.008a1.945 1.945 0 0 0-.037 2.803 1.944 1.944 0 0 0 2.803-.037"/></svg>