<svg xmlns="http://www.w3.org/2000/svg" viewBox="0 0 17 17"><path fill-rule="evenodd" d="M6.225 7.697c-.952.778-2.104 1.747-3.28 2.797-1.074.958-1.089 2.613-.071 3.63 1.017 1.017 2.672 1.002 3.63-.07a101 101 0 0 0 2.796-3.28c.347.142.687.257.993.35.733.22 1.5-.076 1.981-.67L14.56 7.63a1.417 1.417 0 0 0-.1-1.892l-3.2-3.2a1.416 1.416 0 0 0-1.892-.1L6.545 4.725c-.595.482-.89 1.249-.67 1.982.092.305.207.645.35.99m1.841 2.067.748-.914 1.092.45c.29.118.579.217.845.297a.15.15 0 0 0 .099-.007.44.44 0 0 0 .186-.14l2.184-2.697-.333-.333-1.617 1.618a.637.637 0 0 1-.901-.902l1.617-1.617-.506-.506-1.617 1.616a.637.637 0 1 1-.901-.901l1.616-1.617-.332-.332-2.698 2.184a.44.44 0 0 0-.14.185.15.15 0 0 0-.006.1c.08.265.178.554.297.843l.448 1.092-.913.747a100 100 0 0 0-3.229 2.753c-.362.323-.401.918-.005 1.314.397.397.992.357 1.315-.005a100 100 0 0 0 2.751-3.228"/></svg>