<svg xmlns="http://www.w3.org/2000/svg" viewBox="0 0 32 32"><path d="M10.36 26.841c2.972-3.2 5.71-6.37 7.545-8.538.711.363 1.435.658 2.085.89 1.421.506 2.951-.058 3.89-1.239l3.829-4.817a1.334 1.334 0 0 0-.101-1.773l-.867-.866-3.564 3.564a1.25 1.25 0 1 1-1.768-1.768l3.564-3.564-1.704-1.705-3.564 3.564a1.25 1.25 0 0 1-1.768-1.767l3.564-3.564-.867-.868a1.333 1.333 0 0 0-1.773-.1l-4.816 3.828c-1.181.939-1.745 2.47-1.239 3.89.231.65.525 1.37.887 2.08a255 255 0 0 0-8.539 7.546c-1.524 1.415-1.54 3.807-.07 5.277 1.471 1.47 3.862 1.455 5.277-.07"/></svg>