<svg xmlns="http://www.w3.org/2000/svg" viewBox="0 0 24 24"><path fill-rule="evenodd" d="M4.157 14.816a143 143 0 0 1 4.632-3.949 15 15 0 0 1-.493-1.4c-.311-1.034.106-2.117.946-2.797l3.984-3.225a2 2 0 0 1 2.672.14l4.518 4.517a2 2 0 0 1 .14 2.673l-3.225 3.984c-.68.84-1.763 1.257-2.798.946-.431-.13-.912-.293-1.402-.494a143 143 0 0 1-3.948 4.631c-1.352 1.516-3.69 1.537-5.126.1s-1.415-3.773.1-5.126m8.364-2.019 1.37.564c.418.172.835.314 1.217.429.143.043.42.018.668-.29l3.225-3.983-.483-.484-2.46 2.46a1 1 0 0 1-1.415-1.414l2.46-2.46-.722-.723-2.46 2.46a1 1 0 1 1-1.414-1.415l2.46-2.46L14.483 5 10.5 8.224c-.307.25-.332.526-.289.669.115.38.256.797.428 1.214l.563 1.37-1.147.938a141 141 0 0 0-4.566 3.893c-.623.556-.675 1.563-.018 2.22.658.657 1.664.605 2.22-.017a141 141 0 0 0 3.891-4.566z"/></svg>