<svg xmlns="http://www.w3.org/2000/svg" viewBox="0 0 44 44"><path d="M16.433 7.446a1.5 1.5 0 0 0 .013 2.121l.209.207 2.452 2.432a455 455 0 0 1 4.319 4.34c.937.963 2.147 2.209 3.122 3.375.488.584.887 1.113 1.156 1.548l.011.018a.99.99 0 0 1 .004 1.032c-.253.421-.627.928-1.076 1.477-.893 1.091-1.978 2.217-2.704 2.943l-7.5 7.5a1.5 1.5 0 0 0 2.122 2.122v-.001l.002-.001 7.498-7.498c.751-.752 1.917-1.96 2.904-3.165.491-.6.966-1.233 1.325-1.831C30.605 23.541 31 23 31 22s-.412-1.57-.743-2.107c-.378-.611-.88-1.265-1.408-1.897-1.06-1.267-2.35-2.593-3.274-3.543a460 460 0 0 0-4.352-4.373 1164 1164 0 0 0-2.459-2.44l-.21-.207a1.5 1.5 0 0 0-2.121.013"/></svg>