<svg xmlns="http://www.w3.org/2000/svg" viewBox="0 0 16 16"><path fill-rule="evenodd" d="M8 .867A.643.643 0 0 0 6.987.34q-.29.205-.55.386C5.22 1.572 4.5 2.073 4.5 2.737s.72 1.166 1.934 2.011l.551.386A.643.643 0 0 0 8 4.608c0-.407-.257-.75-.618-1.007l-.045-.032L7.24 3.5H8c.423 0 .852.019 1.273.05 1.845.137 2.122.214 2.542.635.42.42.497.697.635 2.542.031.421.05.85.05 1.273s-.019.852-.05 1.274c-.138 1.844-.215 2.121-.635 2.541s-.697.498-2.542.635c-.421.032-.85.05-1.273.05-.424 0-.852-.018-1.274-.05-1.845-.137-2.121-.214-2.542-.635-.42-.42-.514-.697-.651-2.541a19 19 0 0 1-.032-.524.78.78 0 0 0-.768-.75.725.725 0 0 0-.733.75q.014.321.037.635c.13 1.744.211 2.616 1.087 3.491.875.875 1.747.94 3.49 1.07.453.034.92.054 1.386.054s.932-.02 1.384-.054c1.744-.13 2.616-.195 3.492-1.07s.94-1.747 1.07-3.491C13.98 8.933 14 8.466 14 8s-.02-.933-.054-1.385c-.13-1.744-.195-2.616-1.07-3.491-.876-.875-1.748-.94-3.492-1.07A19 19 0 0 0 8.001 2h-.76l.177-.127c.36-.256.583-.6.583-1.006m.751 5.999C9.581 7.37 10 7.625 10 8s-.419.63-1.249 1.134l-.017.01-.363.222c-.83.504-1.244.756-1.558.576-.313-.18-.313-.67-.313-1.65v-.585c0-.98 0-1.47.313-1.65.314-.179.728.073 1.557.577l.364.221z"/></svg>