<svg xmlns="http://www.w3.org/2000/svg" viewBox="0 0 16 16"><path fill-rule="evenodd" d="m12.49 9.33-.02-.011C11.494 8.732 11 8.436 11 8s.493-.732 1.47-1.319l.02-.011.304-.183c.977-.586 1.468-.879 1.837-.67.369.21.369.779.369 1.917v.532c0 1.138 0 1.708-.369 1.917s-.86-.084-1.837-.67zm-5 0-.02-.011C6.494 8.732 6 8.436 6 8s.493-.732 1.47-1.319l.02-.011.304-.183c.977-.586 1.468-.879 1.837-.67.369.21.369.779.369 1.917v.532c0 1.138 0 1.708-.369 1.917s-.86-.084-1.837-.67zm-5.02-.01.02.011.304.183c.977.586 1.468.879 1.837.67C5 9.973 5 9.404 5 8.266v-.532c0-1.138 0-1.708-.369-1.917s-.86.084-1.837.67l-.304.183-.02.011C1.494 7.268 1 7.564 1 8s.493.732 1.47 1.319"/></svg>