<svg xmlns="http://www.w3.org/2000/svg" viewBox="0 0 32 32"><path fill-rule="evenodd" d="M26.75 9.5h-1.433a18 18 0 0 0-.16-.467c-.679-1.904-1.018-2.856-2.207-3.694-1.19-.839-2.468-.839-5.023-.839h-.853c-2.556 0-3.834 0-5.023.839-1.19.838-1.528 1.79-2.207 3.694q-.083.231-.16.467H8.25a1.25 1.25 0 0 0 0 2.5h.555l-.038.15a10.3 10.3 0 0 0-.267 2.274v4.326a1.25 1.25 0 1 0 2.5 0V18h13v.75a1.25 1.25 0 1 0 2.5 0v-4.326A10.3 10.3 0 0 0 26.194 12h.556a1.25 1.25 0 0 0 0-2.5M17.074 7h.853c2.816 0 3.174.094 3.582.382.27.19.4.345.543.606.19.347.367.812.69 1.718a60 60 0 0 0-5.245-.206c-2.236 0-3.966.093-5.239.206.324-.906.5-1.37.69-1.718.143-.26.273-.415.544-.606.408-.288.766-.382 3.582-.382"/><path d="M6.728 19.937a3.26 3.26 0 0 0 2.095 1.928L7.039 29H4.5q0-.15.038-.303zm6.027.063h1.69l-1.576 9H10.35q0-.106.02-.215l1.295-7.406A3.26 3.26 0 0 0 12.755 20"/></svg>