<svg xmlns="http://www.w3.org/2000/svg" viewBox="0 0 44 44"><path fill-rule="evenodd" d="M36.5 13h-1.652q-.119-.365-.246-.723c-.94-2.637-1.41-3.955-3.056-5.116S28.129 6 24.59 6h-1.18c-3.538 0-5.308 0-6.955 1.161-1.646 1.161-2.116 2.48-3.056 5.116q-.128.358-.246.723H11.5a1.5 1.5 0 0 0 0 3h.566q-.124.303-.2.633a14 14 0 0 0-.366 3.108V26a1.5 1.5 0 1 0 3 0v-1h19v1a1.5 1.5 0 0 0 3 0v-6.26c0-1.137-.158-2.2-.365-3.103a4 4 0 0 0-.201-.637h.566a1.5 1.5 0 1 0 0-3M23.41 9h1.18c3.852 0 4.518.113 5.227.613.753.53.97.898 1.96 3.67l.017.05C29.982 13.157 27.41 13 23.995 13c-3.41 0-5.978.157-7.788.333l.018-.05c.988-2.772 1.206-3.14 1.96-3.67.708-.5 1.374-.613 5.225-.613M33.5 19.74V22h-19v-2.26c0-.866.122-1.701.29-2.437.092-.4.472-.855 1.276-.94 1.712-.183 4.318-.363 7.93-.363s6.22.18 7.936.363c.806.086 1.187.541 1.279.943.168.735.29 1.57.29 2.435"/><path d="M9.167 27.148a4.01 4.01 0 0 0 2.442 2.604L9.047 40H6q0-.18.045-.363zm7.543.352a4 4 0 0 1-1.797 2.014l-1.79 10.228A1.5 1.5 0 0 0 13.1 40h3.023l2.188-12.5z"/></svg>