<svg xmlns="http://www.w3.org/2000/svg" viewBox="0 0 24 24"><path fill-rule="evenodd" d="M20 7h-.938a14 14 0 0 0-.172-.513c-.523-1.465-.784-2.197-1.698-2.842C16.277 3 15.294 3 13.328 3h-.656c-1.966 0-2.949 0-3.864.645-.914.645-1.176 1.377-1.698 2.842q-.09.253-.172.513H6a1 1 0 0 0 0 2h.189A7.4 7.4 0 0 0 6 10.634V14a1 1 0 1 0 2 0v-.5h10v.5a1 1 0 1 0 2 0v-3.366c0-.607-.081-1.163-.189-1.634H20a1 1 0 1 0 0-2m-7.328-2h.656c2.174 0 2.421.075 2.711.28.198.14.29.25.395.44.151.276.292.653.57 1.434A47 47 0 0 0 12.997 7c-1.688 0-3.013.069-4 .153.277-.78.418-1.157.569-1.433.104-.19.197-.3.395-.44.29-.205.537-.28 2.711-.28M8.146 9.416c-.085.36-.146.775-.146 1.218v.866h10v-.866c0-.443-.061-.857-.145-1.217a.16.16 0 0 0-.066-.096.6.6 0 0 0-.312-.113c-.954-.103-2.43-.208-4.48-.208s-3.523.105-4.476.208a.6.6 0 0 0-.31.113c-.044.035-.058.063-.065.095"/><path d="M10.74 15H9.292a2.5 2.5 0 0 1-.752.97l-1.025 5.858Q7.5 21.915 7.5 22h2.015zm-6.025.017a2.5 2.5 0 0 0 1.708 1.416L5.03 22H3q0-.12.03-.242z"/></svg>