<svg xmlns="http://www.w3.org/2000/svg" viewBox="0 0 32 32"><path fill-rule="evenodd" d="M5 25.525v-8.724c-1.214-.688-1.864-1.36-1.982-2.265-.226-1.735 1.663-3.146 5.44-5.968l2.402-1.795C13.335 4.924 14.572 4 16 4s2.665.924 5.14 2.773l2.402 1.795c3.777 2.822 5.666 4.233 5.44 5.968-.118.904-.768 1.577-1.982 2.265v8.724A1.25 1.25 0 0 1 26.75 28H5.25A1.25 1.25 0 0 1 5 25.525m6.5-7.025h.5V20h-.5a1 1 0 1 0 0 2h.5v1a1 1 0 1 0 2 0v-1h4a1 1 0 1 0 0-2h-4v-1.5h3.67a3.83 3.83 0 0 0 3.83-3.83 4.17 4.17 0 0 0-4.171-4.171h-4.33a1 1 0 0 0-.999 1v5h-.5a1 1 0 1 0 0 2m2.5-6h3.329c1.199 0 2.171.972 2.171 2.171a1.83 1.83 0 0 1-1.83 1.83H14z"/></svg>