<svg xmlns="http://www.w3.org/2000/svg" viewBox="0 0 44 44"><path fill-rule="evenodd" d="M8 35V22.257c-1.858-.874-2.831-1.638-2.981-2.762-.232-1.738 1.664-3.158 5.455-5.996l6.095-4.563C19.184 6.979 20.491 6 22 6c1.51 0 2.816.979 5.43 2.936l6.096 4.563c3.791 2.838 5.687 4.258 5.455 5.996-.15 1.124-1.123 1.888-2.98 2.761V35h.499a1.5 1.5 0 0 1 0 3h-29a1.5 1.5 0 0 1 0-3zm8.5-9.5v.002l.003 1.998h-.753a1.25 1.25 0 1 0 0 2.5h.753v1.75a1.25 1.25 0 0 0 2.5 0V30h5.25a1.25 1.25 0 1 0 0-2.5h-5.25v-1.998h5.233a5.265 5.265 0 0 0 5.264-5.266 5.736 5.736 0 0 0-5.736-5.736H18.25c-.967 0-1.749.783-1.749 1.75V23h-.75a1.25 1.25 0 1 0 0 2.5zM19 17h4.764A3.236 3.236 0 0 1 27 20.236a2.765 2.765 0 0 1-2.764 2.766L21.604 23h-2.601l-.002-3z"/></svg>