<svg xmlns="http://www.w3.org/2000/svg" viewBox="0 0 16 16"><g fill-rule="evenodd" clip-rule="evenodd"><path d="M7 10v-.5h1.585a1.914 1.914 0 0 0 1.911-1.915A2.083 2.083 0 0 0 8.421 5.5H6.5A.5.5 0 0 0 6 6v2.5a.5.5 0 0 0 0 1v.5a.5.5 0 1 0 0 1v.5a.5.5 0 0 0 1 0V11h2a.5.5 0 0 0 0-1zm1.421-3.5H7v2h1.585a.914.914 0 0 0 .911-.915c0-.6-.487-1.085-1.075-1.085"/><path d="M13.5 12.543A.75.75 0 0 1 13.25 14H2.75a.75.75 0 0 1-.251-1.457V8.332c-.777-.358-1.182-.668-1.242-1.129-.09-.701.682-1.27 2.229-2.406l1.96-1.44C6.677 2.452 7.293 2 8 2s1.323.452 2.554 1.357l1.96 1.44c1.547 1.137 2.32 1.705 2.229 2.406-.06.461-.466.771-1.243 1.13zM7.663 3.642c-.303.173-.685.45-1.329.924l-1.96 1.44c-.575.422-.978.72-1.262.957l.887.409V12.5H12V7.372l.889-.41a31 31 0 0 0-1.263-.956l-1.96-1.44c-.644-.473-1.026-.75-1.33-.924-.248-.142-.313-.142-.335-.142H8c-.022 0-.087 0-.336.142"/></g></svg>