<svg xmlns="http://www.w3.org/2000/svg" viewBox="0 0 24 24"><path fill-rule="evenodd" d="M9.576 14a.49.49 0 0 1-.489-.43 14.2 14.2 0 0 1 0-3.14.49.49 0 0 1 .489-.43h4.848c.25 0 .461.183.489.43a14.2 14.2 0 0 1 0 3.14.49.49 0 0 1-.489.43zm7.162 2a.304.304 0 0 0-.293.227 17.5 17.5 0 0 1-.777 2.294c-.108.259.154.514.395.372a8.04 8.04 0 0 0 2.592-2.451.285.285 0 0 0-.245-.442zm3.097-2.378a.48.48 0 0 1-.475.378h-1.918a.513.513 0 0 1-.506-.563 16 16 0 0 0 0-2.874.513.513 0 0 1 .506-.563h1.918a.48.48 0 0 1 .475.378 8 8 0 0 1 0 3.244M6.558 14a.513.513 0 0 0 .506-.563 16 16 0 0 1 0-2.874.513.513 0 0 0-.506-.563H4.64a.48.48 0 0 0-.475.378 8 8 0 0 0 0 3.244.48.48 0 0 0 .475.378zm-.968 2c-.23 0-.373.25-.245.442a8.04 8.04 0 0 0 2.592 2.45c.241.143.503-.112.395-.37a18 18 0 0 1-.777-2.295.3.3 0 0 0-.293-.227zM22 12c0 5.523-4.477 10-10 10S2 17.523 2 12 6.477 2 12 2s10 4.477 10 10M10.664 5.199a15.4 15.4 0 0 0-.904 2.169.484.484 0 0 0 .467.632h3.545a.484.484 0 0 0 .468-.632 15.4 15.4 0 0 0-.904-2.17 13 13 0 0 0-.556-.973.46.46 0 0 0-.368-.215 8 8 0 0 0-.824 0 .46.46 0 0 0-.368.215c-.13.206-.342.555-.556.974M10.227 16a.484.484 0 0 0-.467.632c.291.883.621 1.617.904 2.17.214.418.426.767.556.973a.47.47 0 0 0 .368.215 8 8 0 0 0 .824 0 .46.46 0 0 0 .368-.215c.13-.206.341-.555.556-.974.282-.552.613-1.286.904-2.169a.484.484 0 0 0-.468-.632zm-2.96-8a.3.3 0 0 0 .292-.225c.226-.832.505-1.629.777-2.295.106-.259-.158-.515-.4-.373a8.04 8.04 0 0 0-2.59 2.452c-.13.192.013.441.244.441zm8.817-2.893c-.242-.142-.505.114-.4.373a20 20 0 0 1 .777 2.295.3.3 0 0 0 .292.225h1.677c.231 0 .374-.25.245-.441a8.04 8.04 0 0 0-2.591-2.452"/></svg>