<svg xmlns="http://www.w3.org/2000/svg" viewBox="0 0 16 16"><path fill-rule="evenodd" d="M8 1c-.83 0-1.72 1.184-2.27 3.056a.35.35 0 0 0 .34.444h3.86a.35.35 0 0 0 .34-.444C9.72 2.184 8.83 1 8 1M4.96 2.104c.084-.174-.093-.364-.263-.273a7.04 7.04 0 0 0-2.523 2.304.238.238 0 0 0 .2.365h1.377c.298 0 .432-.115.47-.272.19-.792.44-1.506.738-2.124m6.343-.273c-.17-.091-.347.1-.263.273.3.618.55 1.332.739 2.124a.35.35 0 0 0 .339.272h1.505c.186 0 .306-.21.203-.365a7.04 7.04 0 0 0-2.523-2.304M1.503 5.9a.24.24 0 0 0-.232.17 7 7 0 0 0 0 3.86c.03.1.126.17.232.17H3.54a.346.346 0 0 0 .345-.383 17.6 17.6 0 0 1 0-3.434.346.346 0 0 0-.345-.383zm4.15 0a.35.35 0 0 0-.35.306 15.6 15.6 0 0 0 0 3.588.35.35 0 0 0 .35.306h4.693a.35.35 0 0 0 .351-.306 15.6 15.6 0 0 0 0-3.588.35.35 0 0 0-.35-.306zm6.807 0a.346.346 0 0 0-.345.383 17.6 17.6 0 0 1 0 3.434.346.346 0 0 0 .345.383h2.037c.106 0 .203-.07.232-.17a7 7 0 0 0 0-3.86.24.24 0 0 0-.232-.17zM2.377 11.5c-.186 0-.305.21-.203.365a7.04 7.04 0 0 0 2.523 2.304c.17.091.347-.1.263-.273a10.6 10.6 0 0 1-.739-2.124.35.35 0 0 0-.339-.272zm3.693 0a.35.35 0 0 0-.34.444C6.28 13.816 7.17 15 8 15s1.72-1.184 2.27-3.056a.35.35 0 0 0-.34-.444zm6.18 0c-.299 0-.433.115-.471.272a10.5 10.5 0 0 1-.739 2.124c-.084.174.093.364.263.273a7.04 7.04 0 0 0 2.523-2.304.238.238 0 0 0-.2-.365z"/></svg>