<svg xmlns="http://www.w3.org/2000/svg" viewBox="0 0 16 16"><path d="M9.906 5a.75.75 0 0 0 .643-1.136l-.034-.056C9.393 1.936 8.832 1 8 1c-.83 0-1.392.936-2.515 2.808l-.034.056a.75.75 0 1 0 1.286.772l.034-.056c.188-.313.332-.554.479-.73v5.4a.75.75 0 1 0 1.5 0V3.849c.146.176.291.417.48.73l.033.057A.75.75 0 0 0 9.906 5"/><path d="M5.512 7h-.004c-1.233.081-1.85.122-2.654.954-.805.832-.82 1.31-.85 2.265a8 8 0 0 0 0 .497c.03.947.045 1.42.849 2.252s1.417.872 2.644.953A38 38 0 0 0 8 14c.959 0 1.791-.032 2.497-.078 1.23-.082 1.845-.122 2.65-.954s.82-1.308.85-2.26a8 8 0 0 0 0-.494c-.03-.952-.046-1.428-.85-2.26-.805-.832-1.42-.872-2.65-.953L10.488 7v.004a.75.75 0 0 0-.739.749V9.25a1.75 1.75 0 1 1-3.5 0V7.753a.75.75 0 0 0-.737-.749z"/></svg>