<svg xmlns="http://www.w3.org/2000/svg" viewBox="0 0 16 16"><path d="M9.906 5a.75.75 0 0 0 .643-1.136l-.034-.056C9.393 1.936 8.832 1 8 1c-.83 0-1.392.936-2.515 2.808l-.034.056a.75.75 0 1 0 1.286.772l.034-.056c.188-.313.332-.554.479-.73v5.4a.75.75 0 1 0 1.5 0V3.849c.146.176.291.417.48.73l.033.057A.75.75 0 0 0 9.906 5"/><path d="M5.508 7h.004v.004a.75.75 0 0 1-.009 1.498c-.595.04-.848.067-1.046.127-.124.037-.267.099-.525.366-.302.313-.347.445-.363.495-.034.108-.05.246-.066.775a6 6 0 0 0 0 .404c.017.525.032.659.065.764.015.048.06.18.364.494.259.268.402.33.523.366.207.063.474.09 1.14.133.675.045 1.477.076 2.405.076.925 0 1.725-.03 2.398-.075.668-.044.938-.07 1.146-.134.123-.037.266-.099.524-.366.303-.313.348-.446.364-.495.033-.107.048-.243.065-.77a7 7 0 0 0 0-.402c-.017-.527-.032-.663-.065-.77-.016-.049-.06-.182-.364-.495-.258-.267-.401-.329-.524-.366-.197-.06-.45-.087-1.047-.127a.75.75 0 0 1-.009-1.498V7h.009c1.23.082 1.845.122 2.65.954s.82 1.308.85 2.26a8 8 0 0 1 0 .495c-.03.951-.046 1.427-.85 2.259-.805.832-1.42.873-2.65.954C9.79 13.968 8.959 14 8 14a38 38 0 0 1-2.503-.079c-1.227-.08-1.84-.121-2.644-.953s-.82-1.305-.85-2.252a8 8 0 0 1 0-.497c.03-.956.046-1.433.85-2.265.805-.832 1.422-.873 2.655-.954"/></svg>