<svg xmlns="http://www.w3.org/2000/svg" viewBox="0 0 16 16"><path d="M8.002 1.5c-.687 0-1.245.04-1.672.09a.34.34 0 0 0-.2.086.27.27 0 0 0-.08.169 7 7 0 0 0 0 1.807c.01.079.042.131.08.168.04.037.103.075.2.086.427.05.985.09 1.672.09s1.245-.04 1.672-.09a.34.34 0 0 0 .2-.086.27.27 0 0 0 .08-.169c.035-.27.06-.576.06-.903s-.025-.633-.06-.903a.27.27 0 0 0-.08-.168.34.34 0 0 0-.2-.087c-.427-.05-.985-.09-1.672-.09"/><path fill-rule="evenodd" d="M4.496 2.457c-.281.14-.552.34-.847.632-.86.858-.92 1.523-1.038 2.854A29 29 0 0 0 2.503 8.5c0 .973.043 1.827.108 2.559.118 1.33.177 1.995 1.038 2.852s1.518.912 2.83 1.023a18 18 0 0 0 3.046 0c1.312-.11 1.968-.166 2.83-1.023.86-.857.92-1.522 1.037-2.852.066-.732.109-1.586.109-2.559a29 29 0 0 0-.108-2.558c-.119-1.33-.178-1.995-1.039-2.853a3.2 3.2 0 0 0-.846-.632 8 8 0 0 1-.067 1.387c-.108.836-.757 1.455-1.594 1.552-.483.056-1.099.1-1.845.1s-1.362-.044-1.845-.1C5.32 5.3 4.672 4.681 4.563 3.845a8.5 8.5 0 0 1-.067-1.388M10.28 6.72a.75.75 0 0 1 0 1.06L9.06 9l1.22 1.22a.75.75 0 1 1-1.06 1.06L8 10.06l-1.22 1.22a.75.75 0 0 1-1.06-1.06L6.94 9 5.72 7.78a.75.75 0 0 1 1.06-1.06L8 7.94l1.22-1.22a.75.75 0 0 1 1.06 0"/></svg>