<svg xmlns="http://www.w3.org/2000/svg" viewBox="0 0 16 16"><path fill-rule="evenodd" d="M3.755 3.004a.75.75 0 1 0 0 1.5h8.496a.75.75 0 0 0 0-1.5zm0 9.999h3.5a.75.75 0 0 0 0-1.5h-3.5a.75.75 0 0 0 0 1.5M2.817 7.25C2.366 7.25 2 7.586 2 8s.366.75.817.75h4.366C7.634 8.75 8 8.414 8 8s-.366-.75-.817-.75zm9.399 1.238-.024-.015-.52-.316c-1.185-.72-1.777-1.081-2.224-.824S9 8.29 9 9.692v.836c0 1.402 0 2.102.448 2.36.447.256 1.04-.104 2.224-.825l.52-.316.024-.015C13.4 11.011 14 10.647 14 10.11s-.599-.901-1.784-1.622"/></svg>