<svg xmlns="http://www.w3.org/2000/svg" viewBox="0 0 44 44"><path fill-rule="evenodd" d="M4.12 4.122C.91 7.332.671 10.53.195 16.924a69 69 0 0 0-.198 5.078c0 1.71.075 3.42.198 5.078.476 6.395.714 9.592 3.923 12.801 3.21 3.21 6.407 3.448 12.802 3.924a69 69 0 0 0 5.078.198c1.71 0 3.42-.075 5.078-.198 6.395-.476 9.592-.714 12.801-3.924 3.21-3.209 3.448-6.407 3.924-12.801A69 69 0 0 0 44 22.002c0-1.71-.075-3.42-.198-5.078-.476-6.395-.714-9.592-3.924-12.802S33.472.675 27.077.2a69 69 0 0 0-5.078-.198c-1.71 0-3.42.075-5.078.198C10.526.675 7.33.913 4.12 4.122m18.509 14.8-.053-.874c-.157-2.265 1.226-4.333 3.416-5.136.806-.285 2.172-.32 3.065-.071.35.107 1.016.463 1.489.784l.858.589.946-.303c.526-.16 1.226-.428 1.541-.607.298-.16.561-.25.561-.196 0 .303-.648 1.338-1.191 1.908-.736.803-.526.874.963.339.894-.303.911-.303.736.036-.105.178-.648.802-1.226 1.373-.981.98-1.034 1.088-1.034 1.908 0 1.266-.595 3.905-1.19 5.35-1.104 2.71-3.469 5.51-5.833 6.918-3.328 1.98-7.76 2.479-11.49 1.32-1.244-.393-3.381-1.391-3.381-1.57 0-.053.648-.125 1.436-.142a9.8 9.8 0 0 0 4.694-1.32l.946-.57-1.086-.375c-1.541-.535-2.925-1.765-3.275-2.924-.105-.375-.07-.393.91-.393l1.017-.018-.859-.41c-1.016-.517-1.944-1.39-2.4-2.282-.332-.642-.752-2.265-.63-2.39.035-.053.403.054.823.197 1.209.445 1.367.338.666-.41-1.314-1.356-1.717-3.37-1.086-5.279l.298-.856 1.156 1.16c2.364 2.335 5.15 3.726 8.337 4.136z"/></svg>