<svg xmlns="http://www.w3.org/2000/svg" viewBox="0 0 24 24"><path fill-rule="evenodd" d="M12 4c2.186 0 3.918.166 5.204.363 1.871.286 3.343 1.434 3.655 3.364a11.1 11.1 0 0 1 0 3.546c-.312 1.93-1.784 3.078-3.655 3.364-1.083.166-2.483.31-4.204.351v2.28c.304.175.557.428.732.732H19a1 1 0 1 1 0 2h-5.268a2 2 0 0 1-3.464 0H5a1 1 0 1 1 0-2h5.268a2 2 0 0 1 .732-.733v-2.279a33 33 0 0 1-4.204-.35c-1.871-.287-3.343-1.435-3.655-3.365a11.1 11.1 0 0 1 0-3.546c.312-1.93 1.784-3.078 3.655-3.364C8.082 4.166 9.814 4 12 4m-3.5 6.899a1.398 1.398 0 1 0 0-2.797 1.398 1.398 0 0 0 0 2.797"/></svg>