<svg xmlns="http://www.w3.org/2000/svg" viewBox="0 0 16 16"><path fill-rule="evenodd" d="M8 3.501c-.424 0-.852.019-1.274.05-1.845.137-2.121.215-2.542.635s-.497.697-.634 2.542c-.032.421-.05.85-.05 1.273 0 .424.018.852.05 1.274.137 1.844.214 2.121.634 2.542s.697.497 2.542.634c.422.032.85.05 1.274.05.423 0 .852-.018 1.273-.05 1.845-.137 2.122-.214 2.542-.634s.498-.698.635-2.542c.031-.422.05-.85.05-1.274 0-.423-.019-.852-.05-1.273-.137-1.845-.215-2.122-.635-2.542s-.697-.498-2.542-.635A17 17 0 0 0 8 3.501m-4.876-.376c-.876.875-.94 1.747-1.07 3.491C2.02 7.07 2 7.535 2 8.001c0 .467.02.933.054 1.385.13 1.744.194 2.616 1.07 3.491.875.875 1.747.94 3.49 1.07.453.034.92.054 1.386.054s.932-.02 1.384-.054c1.745-.13 2.617-.194 3.492-1.07.875-.875.94-1.747 1.07-3.491.033-.452.054-.918.054-1.385s-.02-.932-.054-1.385c-.13-1.744-.195-2.616-1.07-3.49-.875-.876-1.747-.941-3.492-1.07A19 19 0 0 0 8 2c-.467 0-.933.02-1.385.054-1.744.13-2.616.195-3.491 1.07"/></svg>