<svg xmlns="http://www.w3.org/2000/svg" viewBox="0 0 32 32"><path fill-rule="evenodd" d="M16 6.502c-.862 0-1.732.038-2.585.101-3.656.272-4.408.423-5.4 1.415s-1.142 1.744-1.414 5.4a35 35 0 0 0-.102 2.584c0 .861.038 1.731.102 2.584.272 3.656.422 4.408 1.414 5.4.992.993 1.744 1.143 5.4 1.415a35 35 0 0 0 2.584.101c.861 0 1.731-.037 2.584-.101 3.656-.272 4.409-.422 5.4-1.415.993-.992 1.143-1.744 1.415-5.4.064-.853.101-1.723.101-2.584 0-.86-.037-1.73-.1-2.584-.273-3.656-.423-4.408-1.415-5.4-.993-.992-1.745-1.143-5.4-1.415a35 35 0 0 0-2.585-.1M6.246 6.25c-1.75 1.75-1.88 3.495-2.14 6.983A38 38 0 0 0 4 16.003c0 .932.041 1.865.108 2.769.26 3.488.39 5.232 2.14 6.982s3.495 1.88 6.983 2.14c.904.067 1.837.108 2.77.108.932 0 1.865-.04 2.769-.108 3.488-.26 5.232-.39 6.982-2.14s1.88-3.494 2.14-6.982c.068-.904.108-1.837.108-2.77 0-.932-.04-1.865-.108-2.77-.26-3.487-.39-5.231-2.14-6.982-1.75-1.75-3.494-1.88-6.982-2.14A38 38 0 0 0 16 4.002c-.932 0-1.865.041-2.77.108-3.487.26-5.231.39-6.982 2.14"/></svg>