<svg xmlns="http://www.w3.org/2000/svg" viewBox="0 0 16 16"><path d="M2.054 6.616c.13-1.744.194-2.616 1.07-3.49.875-.876 1.747-.941 3.49-1.07C7.068 2.021 7.535 2 8 2s.932.02 1.384.054c1.744.13 2.616.195 3.492 1.07s.94 1.747 1.07 3.491c.033.453.054.919.054 1.385 0 .467-.02.933-.054 1.385-.13 1.744-.195 2.616-1.07 3.491-.876.875-1.748.94-3.492 1.07A19 19 0 0 1 8 14c-.467 0-.933-.02-1.385-.054-1.744-.13-2.616-.194-3.491-1.07-.876-.875-.94-1.747-1.07-3.491A19 19 0 0 1 2 8.001c0-.466.02-.932.054-1.385"/></svg>