<svg xmlns="http://www.w3.org/2000/svg" viewBox="0 0 24 24"><path fill-rule="evenodd" d="M12 5.002c-.643 0-1.292.028-1.93.075-2.75.205-3.264.319-3.97 1.025s-.82 1.22-1.025 3.971A26 26 0 0 0 5 12.002c0 .642.028 1.291.075 1.928.205 2.75.318 3.265 1.025 3.971.706.707 1.22.82 3.97 1.025a26 26 0 0 0 1.93.076c.642 0 1.291-.028 1.928-.076 2.75-.204 3.265-.318 3.971-1.024.706-.707.82-1.221 1.025-3.972.047-.637.076-1.286.076-1.928 0-.643-.029-1.292-.076-1.929-.205-2.75-.319-3.265-1.025-3.971s-1.22-.82-3.97-1.025a26 26 0 0 0-1.93-.075m-7.315-.314C3.373 6 3.275 7.308 3.081 9.925 3.03 10.603 3 11.302 3 12.002s.03 1.399.08 2.077c.195 2.616.293 3.924 1.605 5.237s2.621 1.41 5.237 1.605C10.6 20.97 11.3 21 12 21s1.4-.03 2.078-.08c2.616-.195 3.924-.292 5.237-1.605 1.312-1.313 1.41-2.621 1.605-5.237.05-.678.08-1.378.08-2.077s-.03-1.4-.08-2.077c-.195-2.616-.293-3.924-1.605-5.237s-2.621-1.41-5.237-1.605A28 28 0 0 0 12 3.001c-.699 0-1.399.03-2.077.08-2.616.195-3.924.293-5.237 1.606"/></svg>