<svg xmlns="http://www.w3.org/2000/svg" viewBox="0 0 32 32"><path d="M4.107 13.233c.26-3.488.39-5.232 2.14-6.983s3.495-1.88 6.983-2.14A38 38 0 0 1 16 4.002c.932 0 1.865.041 2.769.108 3.488.26 5.232.39 6.982 2.14s1.88 3.495 2.14 6.983c.068.904.108 1.836.108 2.77 0 .932-.04 1.865-.108 2.769-.26 3.488-.39 5.232-2.14 6.982s-3.494 1.88-6.982 2.14c-.904.067-1.837.108-2.77.108-.932 0-1.865-.04-2.77-.108-3.487-.26-5.231-.39-6.982-2.14-1.75-1.75-1.88-3.494-2.14-6.982A38 38 0 0 1 4 16.002c0-.932.041-1.865.108-2.77"/></svg>