<svg xmlns="http://www.w3.org/2000/svg" viewBox="0 0 44 44"><path d="M25.5 15a5.5 5.5 0 1 0-4.571-2.44c-2.33-.36-4.69.846-6.11 2.96a60 60 0 0 0-2.128 3.424A60 60 0 0 0 10.79 22.5c-1.4 2.855-.84 6.273 1.846 7.975.327.208.681.413 1.025.596q-.732.028-1.34.063c-2.124.12-4.32 1.262-4.32 3.389 0 2.104 2.179 3.221 4.28 3.341 1.328.076 3.1.136 5.378.136h6.771c1.883.029 3.57-.94 3.57-3 0-1.037-.384-2.12-.965-2.967-.804-1.175-2.132-3.03-4.06-5.469a72 72 0 0 0 3.408-.83 70 70 0 0 0 3.974-1.184c1.453-.484 2.68-1.633 2.644-3.05a2.4 2.4 0 0 0-.083-.566c-.448-1.672-2.323-2.172-4.02-1.825a65 65 0 0 0-2.656.605c.28-1.702-.085-3.417-1.127-4.727A6 6 0 0 0 25.5 15"/></svg>