<svg xmlns="http://www.w3.org/2000/svg" viewBox="0 0 24 24"><path d="m7.386 14.053.006-.002-.005-.004z"/><path fill-rule="evenodd" d="M4 18q0 .153.007.3c.074 1.516 1.412 2.51 2.928 2.615.704.05 1.562.085 2.573.085h3.119q.186 0 .364-.035.18-.007.358-.047c.45-.102.958-.299 1.423-.668.372-.295.66-.65.88-1 .584-.929.38-2.087-.219-3.007a34 34 0 0 0-1.113-1.604q1.027-.24 2.028-.57c1.498-.499 2.437-1.93 2.074-3.464a8 8 0 0 0-.132-.49c-.292-.975-1.033-1.641-1.937-1.906A4.003 4.003 0 0 0 13.013 2a4.003 4.003 0 0 0-3.99 4.36c-.267.208-.508.46-.714.75-.44.621-.95 1.402-1.502 2.356a30 30 0 0 0-1.292 2.477 3.5 3.5 0 0 0-.313 1.788c.057.58.268 1.133.63 1.6-.578.227-1.074.6-1.402 1.088a2.5 2.5 0 0 0-.423 1.28A6 6 0 0 0 4 18m8.767-9.945c-.06.14.026.31.18.533.226.262.515.65.837 1.207q.144.25.265.473.384-.089.689-.152c.733-.153 1.614-.008 1.808.715s-.496 1.29-1.208 1.523a45 45 0 0 1-2.359.695c-.783.21-1.441.367-1.969.484.934 1.256 1.89 2.487 2.743 3.799.546.838-.19 1.668-1.135 1.668h-3.11c-.964 0-1.775-.034-2.433-.08-.38-.026-.676-.162-.85-.31-.154-.13-.21-.256-.217-.406a4 4 0 0 1 0-.408.62.62 0 0 1 .523-.59c1.028-.195 2.018-.205 3.687-.206-1.054-.886-1.797-1.557-2.834-2.94v.002c-.21-.302-.285-.77-.05-1.283.294-.636.687-1.413 1.208-2.313s.997-1.63 1.402-2.2c.244-.345.552-.344.953-.396.42-.055.71-.093.79-.276.029-.069-.053-.186-.168-.352-.241-.347-.631-.909-.46-1.687a2.003 2.003 0 1 1 3.81 1.197c-.418.976-1.25 1.105-1.733 1.18-.2.032-.34.054-.37.123"/></svg>