<svg xmlns="http://www.w3.org/2000/svg" viewBox="0 0 16 16"><path fill-rule="evenodd" d="M2.51 11.685c.027-.446.215-.825.504-1.115.217-.218.491-.386.797-.495a2.05 2.05 0 0 1-.292-.811c-.058-.42.008-.863.2-1.278.214-.46.496-1.015.864-1.652.37-.636.71-1.157 1.004-1.571q.202-.285.463-.492A2.753 2.753 0 0 1 8.758 1a2.753 2.753 0 0 1 2.759 2.749 2.73 2.73 0 0 1-.56 1.66c.653.151 1.197.604 1.405 1.29a6 6 0 0 1 .09.336c.24 1.021-.393 1.97-1.392 2.303a16 16 0 0 1-1.52.424c.384.56.635 1.016.797 1.354.209.436.235.935.028 1.372C10.026 13.202 9.254 14 8.39 14H6.268c-.707 0-1.306-.026-1.793-.06-1.014-.074-1.905-.738-1.965-1.75a4 4 0 0 1 0-.505m5.775-3.7q.079.06.142.14l.196.253c.25.148.526.177.892.082q.342-.101.682-.212c.475-.155.933-.533.803-1.014s-.715-.58-1.205-.478l-.413.09q-.082-.148-.179-.316a5.3 5.3 0 0 0-.55-.796c-.109-.15-.171-.268-.132-.359.053-.124.177-.173.344-.24.587-.234 1.147-.716 1.147-1.386A1.25 1.25 0 0 0 8.759 2.5c-.59 0-1.083.405-1.217.951l.003.002c-.086.46.027.858.243 1.268.066.125.112.212.09.263-.067.156-.143.172-.473.242a.94.94 0 0 0-.589.402c-.267.378-.584.86-.929 1.456s-.606 1.11-.8 1.53c-.13.281-.089.524.001.668.491.785 1.225 1.46 1.928 2.051-1.23 0-1.927 0-2.65.136-.119.023-.343.127-.353.304a3 3 0 0 0 0 .33c.003.058.021.107.095.17a.84.84 0 0 0 .475.17 24 24 0 0 0 1.685.057h1.439c.988 0 1.498-.387 1.01-1.231-.468-.806-1.029-1.562-1.55-2.333a.75.75 0 0 1-.028-.646c.371-.15.798-.4 1.146-.305"/></svg>