<svg xmlns="http://www.w3.org/2000/svg" viewBox="0 0 32 32"><path d="M18.5 11.003a4 4 0 1 0-3.307-1.749c-1.727-.223-3.464.729-4.494 2.325a53 53 0 0 0-1.362 2.236c-.55.954-1 1.807-1.364 2.549-1.018 2.078-.607 4.565 1.348 5.802.31.196.63.389.965.536q-.891.029-1.583.07c-1.587.094-3.203.971-3.203 2.561s1.616 2.468 3.203 2.561c1.004.059 2.32.106 3.963.106h4.835C19.017 28 20 27.08 20 25.52c0-.72-.14-1.435-.488-2.067-.476-.864-1.347-2.277-2.806-4.136a49 49 0 0 0 2.476-.6 48 48 0 0 0 2.788-.832c1.254-.42 2.306-1.5 1.964-2.778-.342-1.277-1.794-1.687-3.09-1.423q-.748.151-1.758.398c.108-1.119-.17-2.223-.848-3.088q.13.009.262.009"/></svg>