<svg xmlns="http://www.w3.org/2000/svg" viewBox="0 0 16 16"><path d="M4.994 3.118C5.837 3.048 6.84 3 8.002 3s2.164.048 3.007.118c1.38.115 2.069.172 2.933 1.038.633.634.83 1.133.928 1.844H1.134c.099-.71.296-1.21.928-1.844.864-.866 1.554-.923 2.932-1.038M1 7.5c-.006.162.002.332.002.5q.001.582.045 1.114c.1 1.242.15 1.863 1.015 2.73.864.866 1.554.923 2.932 1.038.843.07 1.846.118 3.008.118s2.164-.049 3.007-.118c1.38-.115 2.069-.172 2.933-1.038.865-.867.915-1.489 1.015-2.731Q15 8.582 15.002 8c0-.168.004-.338-.002-.5z"/></svg>