<svg xmlns="http://www.w3.org/2000/svg" viewBox="0 0 16 16"><path d="M8.765 2.242c0-.66-.807-.99-1.28-.524l-1.25 1.234c-.474.47-.712.704-.733.993a1 1 0 0 0 0 .11c.021.289.259.523.734.993l1.25 1.234c.472.466 1.28.136 1.28-.524a.74.74 0 0 0-.22-.524l-.21-.208-.28-.278h3.388q-.121.124-.279.278l-.21.208a.74.74 0 0 0-.22.524c0 .66.808.99 1.28.524l1.25-1.234c.475-.47.713-.704.733-.993a1 1 0 0 0 0-.11c-.02-.289-.258-.523-.733-.993l-1.25-1.234c-.472-.466-1.28-.136-1.28.524 0 .197.08.385.22.524l.21.208q.155.152.275.274H8.06q.12-.122.275-.274l.21-.208a.74.74 0 0 0 .22-.524M5.756 8.765c.66 0 .99-.808.524-1.28l-1.234-1.25c-.47-.475-.704-.712-.993-.733a1 1 0 0 0-.11 0c-.289.02-.523.258-.993.733l-1.234 1.25c-.466.472-.136 1.28.524 1.28a.74.74 0 0 0 .524-.22l.208-.21q.154-.158.278-.278v3.387q-.123-.121-.278-.279l-.208-.21a.74.74 0 0 0-.524-.22c-.66 0-.99.808-.524 1.28l1.234 1.25c.47.475.704.712.993.733a1 1 0 0 0 .11 0c.289-.02.523-.258.993-.733l1.234-1.25c.466-.472.136-1.28-.524-1.28a.74.74 0 0 0-.524.22l-.208.21q-.152.155-.274.275V8.06q.122.12.274.275l.208.21c.139.141.327.22.524.22"/><path fill-rule="evenodd" d="M9.699 13.945c-.824-.082-1.235-.123-1.628-.516-.393-.392-.433-.804-.515-1.627A11 11 0 0 1 7.5 10.75c0-.358.023-.716.056-1.052.082-.823.122-1.235.515-1.627.393-.393.804-.434 1.628-.515.336-.034.694-.056 1.051-.056.358 0 .716.022 1.052.056.823.081 1.235.122 1.628.515.392.392.433.804.515 1.627.033.336.055.694.055 1.052s-.022.716-.055 1.052c-.082.823-.123 1.235-.515 1.627-.393.393-.805.434-1.628.515-.336.034-.694.056-1.052.056-.357 0-.715-.022-1.051-.056"/></svg>