<svg xmlns="http://www.w3.org/2000/svg" viewBox="0 0 16 16"><path d="M5.667 11.234a.9.9 0 1 0 0-1.8.9.9 0 0 0 0 1.8"/><path d="M5.583 8.5q-.122 0-.24.015a.75.75 0 0 1-.186-1.489Q5.367 7 5.583 7a3.417 3.417 0 0 1 3.39 3.843.75.75 0 0 1-1.488-.186q.015-.118.015-.24A1.917 1.917 0 0 0 5.583 8.5"/><path d="M5.3 6.01Q5.444 6 5.593 6a4.406 4.406 0 0 1 4.396 4.701.75.75 0 1 0 1.497.098q.013-.194.013-.393a5.906 5.906 0 0 0-6.3-5.893.75.75 0 1 0 .1 1.497"/><path fill-rule="evenodd" d="M2.054 6.611c.13-1.742.195-2.613 1.07-3.488.874-.874 1.745-.939 3.487-1.069.454-.033.921-.054 1.39-.054.467 0 .935.02 1.388.054 1.743.13 2.614.195 3.488 1.07.874.874.94 1.745 1.07 3.487.033.454.054.921.054 1.39 0 .467-.021.935-.055 1.388-.13 1.743-.195 2.614-1.069 3.488s-1.745.94-3.488 1.07C8.936 13.98 8.468 14 8 14s-.935-.021-1.389-.055c-1.742-.13-2.613-.195-3.488-1.069-.874-.874-.939-1.745-1.069-3.488A19 19 0 0 1 2 8c0-.468.02-.935.054-1.389m4.669-3.06a16.5 16.5 0 0 1 2.555-.001c1.843.138 2.12.215 2.538.634.42.42.497.696.634 2.539.032.422.05.853.05 1.277 0 .425-.018.855-.05 1.278-.137 1.843-.214 2.12-.634 2.538-.419.42-.695.497-2.538.634-.423.032-.853.05-1.278.05-.424 0-.855-.018-1.277-.05-1.843-.137-2.12-.214-2.539-.634-.42-.419-.496-.695-.634-2.538C3.52 8.855 3.5 8.425 3.5 8c0-.424.019-.855.05-1.277.138-1.843.215-2.12.634-2.539s.696-.496 2.539-.634"/></svg>