<svg xmlns="http://www.w3.org/2000/svg" viewBox="0 0 24 24"><path d="M8.066 9.014Q8.28 9 8.5 9a6.5 6.5 0 0 1 6.485 6.934 1 1 0 1 0 1.996.132q.018-.28.019-.566a8.5 8.5 0 0 0-9.066-8.481 1 1 0 0 0 .132 1.995"/><path d="M8.5 12.5q-.192 0-.376.023a1 1 0 0 1-.248-1.984q.308-.039.624-.039a5 5 0 0 1 4.961 5.624 1 1 0 0 1-1.984-.248q.023-.184.023-.376a3 3 0 0 0-3-3m0 4.252a1.252 1.252 0 1 0 0-2.504 1.252 1.252 0 0 0 0 2.504"/><path fill-rule="evenodd" d="M3.081 9.923c.195-2.616.292-3.924 1.605-5.237s2.62-1.41 5.237-1.605C10.6 3.031 11.3 3 12 3s1.399.03 2.077.081c2.616.195 3.924.292 5.237 1.605s1.41 2.62 1.605 5.237C20.969 10.6 21 11.3 21 12s-.03 1.399-.081 2.077c-.195 2.616-.292 3.924-1.605 5.237s-2.62 1.41-5.237 1.605C13.4 20.969 12.7 21 12 21s-1.399-.03-2.077-.081c-2.616-.195-3.924-.292-5.237-1.605s-1.41-2.62-1.605-5.237A28 28 0 0 1 3 12c0-.7.03-1.399.081-2.077m6.99-4.847A26 26 0 0 1 12 5c.642 0 1.292.028 1.929.076 2.75.204 3.265.318 3.97 1.024.707.706.82 1.22 1.025 3.971.048.637.076 1.287.076 1.929s-.028 1.292-.076 1.929c-.204 2.75-.318 3.265-1.024 3.97-.706.707-1.22.82-3.971 1.025-.637.048-1.287.076-1.929.076s-1.292-.028-1.929-.076c-2.75-.204-3.265-.318-3.97-1.024-.707-.706-.82-1.22-1.025-3.971A26 26 0 0 1 5 12c0-.642.028-1.292.076-1.929.204-2.75.318-3.265 1.024-3.97.706-.707 1.22-.82 3.971-1.025"/></svg>