<svg xmlns="http://www.w3.org/2000/svg" viewBox="0 0 16 16"><path fill-rule="evenodd" d="M3.123 3.123c-.874.875-.939 1.746-1.069 3.488-.033.454-.054.921-.054 1.39 0 .467.02.935.054 1.388.13 1.743.195 2.614 1.07 3.488.874.874 1.745.94 3.487 1.07.454.033.921.054 1.39.054.467 0 .935-.021 1.388-.055 1.743-.13 2.614-.195 3.488-1.069s.94-1.745 1.07-3.488C13.98 8.936 14 8.468 14 8s-.021-.935-.055-1.389c-.13-1.742-.195-2.613-1.069-3.488-.874-.874-1.745-.939-3.488-1.069A19 19 0 0 0 8 2c-.468 0-.935.02-1.389.054-1.742.13-2.613.195-3.488 1.07M5.593 6q-.149 0-.294.01a.75.75 0 0 1-.098-1.497q.195-.013.392-.013a5.907 5.907 0 0 1 5.894 6.3.75.75 0 0 1-1.497-.099q.01-.145.01-.295A4.406 4.406 0 0 0 5.593 6m-.25 2.515q.118-.015.24-.015a1.917 1.917 0 0 1 1.902 2.157.75.75 0 1 0 1.489.186q.026-.21.026-.426a3.417 3.417 0 0 0-3.843-3.39.75.75 0 0 0 .186 1.488m.324 2.72a.9.9 0 1 0 0-1.801.9.9 0 0 0 0 1.8"/></svg>