<svg xmlns="http://www.w3.org/2000/svg" viewBox="0 0 44 44"><path fill-rule="evenodd" d="M12 5c-.926 0-1.713.367-2.307.975-.555.568-.898 1.298-1.123 2.01C8.122 9.404 8 11.22 8 13v18c0 1.55.125 3.347.563 4.806.218.727.547 1.486 1.074 2.088C10.199 38.536 10.996 39 12 39c.756 0 1.589-.219 2.377-.495.814-.286 1.708-.68 2.624-1.125 1.68-.815 3.542-1.851 5.271-2.815l.457-.254c3.118-1.735 6.799-3.89 9.714-5.943 1.452-1.022 2.764-2.053 3.728-3.022.482-.485.914-.99 1.234-1.505.31-.498.595-1.132.595-1.841s-.285-1.343-.595-1.84c-.32-.516-.752-1.021-1.234-1.506-.964-.969-2.276-2-3.728-3.022-2.915-2.052-6.596-4.208-9.714-5.943l-.457-.254c-1.73-.964-3.59-2-5.27-2.815-.917-.445-1.81-.84-2.625-1.125C13.589 5.219 12.756 5 12 5m-1 8c0-1.72.128-3.153.43-4.11.15-.475.307-.715.409-.818C11.9 8.008 11.926 8 12 8c.244 0 .693.084 1.383.326.664.232 1.443.573 2.309.993 1.6.776 3.387 1.771 5.135 2.745l.444.247c3.093 1.721 6.662 3.815 9.445 5.774 1.396.983 2.545 1.898 3.328 2.686.236.237.416.442.552.614a.97.97 0 0 1 0 1.23 7 7 0 0 1-.551.614c-.784.788-1.933 1.703-3.33 2.686-2.782 1.959-6.351 4.053-9.444 5.774l-.444.247c-1.748.974-3.536 1.97-5.135 2.745-.866.42-1.645.76-2.309.993-.69.242-1.14.326-1.383.326h-.017a.4.4 0 0 1-.088-.081c-.13-.149-.301-.452-.458-.975C11.125 33.904 11 32.451 11 31z"/></svg>