<svg xmlns="http://www.w3.org/2000/svg" viewBox="0 0 44 44"><path fill-rule="evenodd" d="M12 5c-.926 0-1.713.367-2.307.975-.555.568-.898 1.298-1.123 2.01C8.122 9.404 8 11.22 8 13v18c0 1.55.125 3.347.563 4.806.218.727.547 1.486 1.074 2.088C10.199 38.536 10.996 39 12 39c.756 0 1.589-.219 2.377-.495.814-.286 1.708-.68 2.624-1.125 1.68-.815 3.542-1.851 5.271-2.815l.457-.254c3.118-1.735 6.799-3.89 9.714-5.943 1.452-1.022 2.764-2.053 3.728-3.022.482-.485.914-.99 1.234-1.505.31-.498.595-1.132.595-1.841s-.285-1.343-.595-1.84c-.32-.516-.752-1.021-1.234-1.506-.964-.969-2.276-2-3.728-3.022-2.915-2.052-6.596-4.208-9.714-5.943l-.457-.254c-1.73-.964-3.59-2-5.27-2.815-.917-.445-1.81-.84-2.625-1.125C13.589 5.219 12.756 5 12 5"/></svg>