<svg xmlns="http://www.w3.org/2000/svg" viewBox="0 0 32 32"><path d="M17.75 18.75a1.75 1.75 0 1 1-3.5 0 1.75 1.75 0 0 1 3.5 0"/><path fill-rule="evenodd" d="M18.715 8.053q-.037-.473-.075-.878c-.03-.319-.05-.54-.075-.729a3 3 0 0 0-.069-.368 2 2 0 0 0-.141-.167l-.01-.01-.114-.039a13 13 0 0 0-.505-.136A7 7 0 0 0 16 5.5a7 7 0 0 0-1.726.226c-.244.063-.387.1-.505.136q-.086.027-.113.038l-.011.011a2 2 0 0 0-.142.167l-.011.039a3 3 0 0 0-.058.33c-.024.188-.044.41-.074.728q-.038.405-.075.878-1.283.053-2.385.143l-.134.01q.052-.69.105-1.261c.113-1.226.17-1.84.786-2.562.616-.724 1.076-.842 1.994-1.078A9.5 9.5 0 0 1 16 3a9.5 9.5 0 0 1 2.349.305c.918.236 1.378.354 1.994 1.078.616.723.673 1.336.786 2.562q.053.57.105 1.261c2.621.211 3.96.346 5.669 2.066 1.738 1.75 1.83 3.015 2.016 5.546a30 30 0 0 1 0 4.364c-.186 2.53-.278 3.796-2.016 5.546s-3.094 1.859-5.805 2.076A64 64 0 0 1 16 28c-1.938 0-3.639-.078-5.1-.196-2.71-.217-4.065-.326-5.802-2.076-1.738-1.75-1.831-3.014-2.017-5.544a30 30 0 0 1 0-4.369c.186-2.529.279-3.794 2.017-5.543S8.19 8.413 10.9 8.196a68 68 0 0 1 7.815-.142m-7.614 2.635A61 61 0 0 1 16 10.5c1.87 0 3.503.075 4.898.187 1.44.116 2.156.186 2.738.363.443.136.87.356 1.493.984.644.648.854 1.064.976 1.458.162.523.222 1.159.32 2.51a27 27 0 0 1 0 3.997c-.098 1.35-.158 1.986-.32 2.51-.122.392-.332.809-.976 1.457-.623.628-1.05.848-1.493.984-.582.177-1.298.247-2.738.363A61 61 0 0 1 16 25.5a61 61 0 0 1-4.9-.188c-1.439-.115-2.155-.185-2.736-.362-.443-.136-.87-.356-1.493-.983-.644-.649-.854-1.065-.976-1.458-.162-.523-.222-1.158-.32-2.508a27 27 0 0 1 0-4.002c.098-1.35.158-1.985.32-2.508.122-.393.332-.809.976-1.457.624-.628 1.05-.848 1.493-.984.581-.177 1.297-.247 2.736-.362"/></svg>