<svg xmlns="http://www.w3.org/2000/svg" viewBox="0 0 16 16"><path fill-rule="evenodd" d="M11 4v.118h.007c1.38.115 2.069.172 2.933 1.038.865.867.915 1.488 1.015 2.731a14 14 0 0 1 0 2.226c-.1 1.242-.15 1.864-1.015 2.73-.864.867-1.554.924-2.933 1.039-.842.07-1.846.118-3.007.118s-2.165-.049-3.008-.118c-1.378-.115-2.068-.172-2.932-1.038s-.914-1.488-1.015-2.73a14 14 0 0 1 0-2.228c.1-1.242.15-1.863 1.015-2.73.865-.866 1.554-.923 2.932-1.038h.009L5 4c0-.452.043-.884.1-1.259.082-.543.124-.814.412-1.118.288-.303.554-.358 1.086-.468A7 7 0 0 1 8 1c.494 0 .982.069 1.401.155.533.11.8.165 1.087.468.288.304.33.575.412 1.118.057.375.1.807.1 1.259M6.901 2.624A5.6 5.6 0 0 1 8 2.5c.362 0 .745.051 1.098.124.122.025.206.043.274.059.013.07.026.157.045.284.048.318.083.674.083 1.033v.028a39 39 0 0 0-3 0V4c0-.36.034-.715.083-1.033.02-.127.032-.214.045-.284.068-.016.152-.034.273-.059M8 10.401a.901.901 0 1 0 0-1.802.901.901 0 0 0 0 1.802"/></svg>