<svg xmlns="http://www.w3.org/2000/svg" viewBox="0 0 24 24"><path fill-rule="evenodd" d="m16 6-.001.153.053.004c2.046.166 3.069.25 4.37 1.558s1.372 2.252 1.515 4.14a22 22 0 0 1 0 3.29c-.143 1.888-.214 2.832-1.515 4.14s-2.324 1.392-4.37 1.558A50 50 0 0 1 12 21c-1.55 0-2.9-.063-4.053-.157-2.045-.166-3.068-.25-4.369-1.558s-1.372-2.251-1.515-4.138a22 22 0 0 1 0-3.294c.143-1.887.214-2.83 1.515-4.138s2.324-1.392 4.369-1.558L8 6.153V6c0-.52.043-1.02.103-1.469.109-.804.163-1.206.609-1.675s.84-.543 1.627-.69A9 9 0 0 1 12 2c.579 0 1.151.07 1.66.166.788.147 1.182.22 1.628.69s.5.871.609 1.675c.06.449.103.95.103 1.469m-5.293-1.868C11.132 4.052 11.577 4 12 4s.868.052 1.293.132a13 13 0 0 1 .537.11l.018.095c.02.114.038.25.067.462.05.379.085.788.085 1.201v.037a54 54 0 0 0-4 0V6c0-.413.034-.822.085-1.201a14 14 0 0 1 .085-.557l.086-.021c.111-.025.244-.05.451-.09M12 15.399a1.399 1.399 0 1 0 0-2.798 1.399 1.399 0 0 0 0 2.798"/></svg>