<svg xmlns="http://www.w3.org/2000/svg" viewBox="0 0 24 24"><path d="M12 15.25a1.25 1.25 0 1 0 0-2.5 1.25 1.25 0 0 0 0 2.5"/><path fill-rule="evenodd" d="M15.999 6.153 16 6c0-.52-.043-1.02-.103-1.469-.109-.804-.163-1.206-.609-1.675s-.84-.543-1.627-.69A9 9 0 0 0 12 2c-.579 0-1.151.07-1.66.166-.789.147-1.182.22-1.628.69s-.5.871-.609 1.675a11 11 0 0 0-.102 1.622l-.054.004c-2.045.166-3.068.25-4.369 1.558s-1.372 2.251-1.515 4.138a22 22 0 0 0 0 3.294c.143 1.887.214 2.83 1.515 4.138s2.324 1.392 4.369 1.558A50 50 0 0 0 12 21c1.549 0 2.9-.063 4.052-.157 2.046-.166 3.069-.25 4.37-1.558s1.372-2.252 1.515-4.14a22 22 0 0 0 0-3.29c-.143-1.888-.214-2.832-1.515-4.14s-2.324-1.392-4.37-1.558zm-5.292-2.021C11.132 4.052 11.577 4 12 4s.868.052 1.293.132a13 13 0 0 1 .537.11l.018.095c.02.114.038.25.067.462.05.379.085.788.085 1.201v.037a54 54 0 0 0-4 0V6c0-.413.034-.822.085-1.201a14 14 0 0 1 .085-.557l.086-.021c.111-.025.244-.05.451-.09m-6.411 6.031c-.117.373-.162.83-.239 1.841a20 20 0 0 0 0 2.992c.077 1.01.122 1.468.239 1.84.237.76 1.012 1.512 1.77 1.743.425.13.953.182 2.043.27C9.208 18.94 10.505 19 12 19a48 48 0 0 0 3.89-.15c1.09-.09 1.619-.142 2.044-.271.758-.23 1.534-.983 1.77-1.743.117-.373.162-.83.239-1.842a20 20 0 0 0 0-2.988c-.077-1.012-.122-1.47-.238-1.842-.237-.76-1.013-1.512-1.771-1.743-.425-.13-.954-.182-2.044-.27A48 48 0 0 0 12 8c-1.494 0-2.792.061-3.891.15-1.09.09-1.618.142-2.043.271-.758.23-1.533.983-1.77 1.742"/></svg>