<svg xmlns="http://www.w3.org/2000/svg" viewBox="0 0 16 16"><path fill-rule="evenodd" d="M7.5 5.703V2.095c0-.423-.353-.716-.713-.865C6.455 1.092 5.972 1 5.25 1s-1.205.092-1.537.23c-.36.149-.71.442-.71.865v3.608A4.08 4.08 0 0 0 2 8.383v4.2C2 13.366 2.634 14 3.417 14h3.666c.782 0 1.417-.634 1.417-1.417V9.071q.204.359.532.746c.45.525 1.017.908 1.468 1.159V12.5h-.75a.75.75 0 0 0 0 1.5h3a.75.75 0 0 0 0-1.5H12v-1.513c.444-.25 1.011-.636 1.468-1.17.89-1.04 1.03-1.95 1.03-2.536 0-.363-.033-1.064-.27-1.792-.128-.397-.193-.596-.464-.793-.27-.196-.548-.196-1.105-.196H9.84c-.557 0-.836 0-1.106.197-.27.196-.335.395-.464.792a5.5 5.5 0 0 0-.222 1.026 4 4 0 0 0-.549-.812M4.503 2.557V4H6V2.557a4 4 0 0 0-.75-.057c-.354 0-.593.027-.747.057m0 3.443v-.5H6V6a.78.78 0 0 0 .243.554A2.58 2.58 0 0 1 7 8.38v4.12H3.5V8.384c0-.687.273-1.345.76-1.83.15-.15.243-.34.243-.554m5.18 0a4.5 4.5 0 0 0-.181 1.281c0 .287.048.834.67 1.56.308.36.73.645 1.089.84.346-.194.758-.478 1.067-.84.622-.726.67-1.273.67-1.56 0-.28-.026-.78-.18-1.28z"/></svg>