<svg xmlns="http://www.w3.org/2000/svg" viewBox="0 0 24 24"><path fill-rule="evenodd" d="M8 2c-1.051 0-1.738.126-2.197.356a1.53 1.53 0 0 0-.604.511A1.17 1.17 0 0 0 5 3.5v5.028A6 6 0 0 0 3 13v6a2 2 0 0 0 2 2h6a2 2 0 0 0 2-2v-5.008q.249.358.586.733c.745.827 1.699 1.413 2.414 1.775V19h-1a1 1 0 1 0 0 2h4a1 1 0 1 0 0-2h-1v-2.482c.702-.36 1.657-.952 2.414-1.793 1.37-1.52 1.586-2.851 1.586-3.708 0-.52-.049-1.518-.395-2.561-.193-.582-.29-.872-.694-1.164S20.094 7 19.27 7h-4.54c-.826 0-1.238 0-1.643.292-.404.292-.5.583-.693 1.164a7.7 7.7 0 0 0-.311 1.356A6 6 0 0 0 11 8.528V3.5a1.17 1.17 0 0 0-.2-.633 1.53 1.53 0 0 0-.603-.511C9.738 2.126 9.051 2 8 2M7 9V8h2v1a1 1 0 0 0 .4.8A4 4 0 0 1 11 13v6H5v-6a4 4 0 0 1 1.6-3.2A1 1 0 0 0 7 9m0-4.934V6h2V4.066A6 6 0 0 0 8 4c-.48 0-.798.032-1 .066m7.32 4.936a7 7 0 0 0-.32 2.015c0 .43.076 1.264 1.072 2.369.557.618 1.339 1.09 1.947 1.386.589-.295 1.35-.765 1.91-1.386.995-1.105 1.071-1.938 1.071-2.369a7 7 0 0 0-.32-2.015 329 329 0 0 0-5.36 0"/></svg>