<svg xmlns="http://www.w3.org/2000/svg" viewBox="0 0 24 24"><path d="M9.853 7.36a3 3 0 1 0-3.706 0c-.833.34-2.355 1.807-2.717 2.63-.395.9-.405 1.293-.424 2.078Q3 12.284 3 12.5c0 1.398 0 2.097.228 2.648A3 3 0 0 0 5 16.826V17c0 1.293.07 2.311.15 3.05.1.92.723 1.687 1.636 1.844.359.062.77.106 1.214.106s.855-.044 1.214-.106c.913-.157 1.536-.923 1.635-1.844a29 29 0 0 0 .15-3.224q.076-.024.15-.054a3 3 0 0 0 1.623-1.624C13 14.597 13 13.898 13 12.5q0-.216-.006-.431c-.02-.785-.03-1.178-.424-2.078-.362-.824-1.884-2.29-2.717-2.631m3.161 10.63a5 5 0 0 0 1.605-2.077c.232-.56.312-1.115.348-1.635.033-.486.033-1.067.033-1.712 0-.61-.002-1.237-.107-1.84a5.9 5.9 0 0 0-.6-1.76c-.417-.772-1.29-2.385-1.293-3.959v-.01a3 3 0 1 1 4.853 2.363c.833.34 2.355 1.807 2.717 2.631.395.9.405 1.293.424 2.078q.006.215.006.431c0 1.398 0 2.097-.228 2.648A3 3 0 0 1 19 16.826V17c0 1.293-.07 2.311-.15 3.05-.1.92-.723 1.687-1.636 1.844-.359.062-.77.106-1.214.106s-.855-.044-1.214-.106c-.913-.157-1.536-.923-1.635-1.844a27 27 0 0 1-.137-2.06"/></svg>