<svg xmlns="http://www.w3.org/2000/svg" viewBox="0 0 16 16"><path fill-rule="evenodd" d="M5.373 14.974a8 8 0 0 0 1.254 0A2.27 2.27 0 0 0 8 14.381c.363.335.836.551 1.372.593a8 8 0 0 0 1.255 0c1.165-.09 2.033-1.004 2.118-2.17a18 18 0 0 0 .045-1.501 2.1 2.1 0 0 0 1.05-1.099c.16-.386.16-.875.16-1.853 0-.807 0-1.21-.404-1.976-.148-.282-.535-.719-.904-1.05A3 3 0 0 0 8 1.765a3 3 0 0 0-4.692 3.56c-.369.331-.756.768-.905 1.05C2 7.141 2 7.545 2 8.351c0 .978 0 1.467.16 1.853a2.1 2.1 0 0 0 1.05 1.099l-.001.197q.002.738.046 1.305c.085 1.165.953 2.078 2.118 2.17m3.379-2.264a18 18 0 0 0 .038-1.407 2.1 2.1 0 0 0 1.05-1.099c.16-.386.16-.875.16-1.853 0-.724 0-1.123-.291-1.75-.077-.164-.168-.32-.248-.482C9.02 5.227 9 4.691 8.998 4.105 9.005 3.903 9 3.7 9 3.5a1 1 0 0 1 1-1A1.5 1.5 0 0 1 11.5 4c0 .598-.472.958-.767 1.183-.134.102-.232.177-.232.233 0 .118.136.212.361.367.608.42 1.48 1.053 1.608 1.815.026.15.03.318.03.753 0 .51-.001.817-.017 1.047-.016.241-.09.434-.329.546l-.874.409.01.965a18 18 0 0 1-.041 1.377c-.034.462-.349.753-.739.784a6.6 6.6 0 0 1-1.02 0c-.386-.03-.698-.316-.738-.769M6 2.5A1.5 1.5 0 0 0 4.5 4c0 .598.473.958.768 1.183.134.102.23.177.23.233 0 .118-.135.212-.36.367-.608.42-1.48 1.053-1.609 1.815-.025.15-.029.318-.029.753 0 .51 0 .817.017 1.047.016.24.09.435.329.546l.874.409-.01.965a18 18 0 0 0 .04 1.377c.035.462.35.753.74.784a6.6 6.6 0 0 0 1.02 0c.39-.03.705-.322.74-.784a16 16 0 0 0 .04-1.377l-.01-.965.874-.409c.239-.111.313-.305.33-.546.015-.23.016-.538.016-1.047 0-.435-.004-.604-.03-.753-.129-.762-1-1.396-1.607-1.815-.226-.155-.362-.249-.362-.367 0-.056.098-.131.232-.233.295-.225.767-.585.767-1.183A1.5 1.5 0 0 0 6 2.5"/></svg>