<svg xmlns="http://www.w3.org/2000/svg" viewBox="0 0 24 24"><path fill-rule="evenodd" d="M4.686 4.686c-1.313 1.313-1.41 2.62-1.605 5.237C3.031 10.6 3 11.3 3 12s.03 1.399.081 2.077c.195 2.616.292 3.924 1.605 5.237s2.62 1.41 5.237 1.605C10.6 20.969 11.3 21 12 21s1.399-.03 2.077-.081c2.616-.195 3.924-.292 5.237-1.605s1.41-2.62 1.605-5.237C20.969 13.4 21 12.7 21 12s-.03-1.399-.081-2.077c-.195-2.616-.292-3.924-1.605-5.237s-2.62-1.41-5.237-1.605A28 28 0 0 0 12 3c-.7 0-1.399.03-2.077.081-2.616.195-3.924.292-5.237 1.605M9 13.576c0 1.616 1.34 2.922 3 2.922 1.658 0 3-1.306 3-2.922v-1.078H9zm5.6-5.223-.576.576a2.86 2.86 0 0 1 .974 2.144v.417H9v-.417c0-.85.377-1.61.973-2.142l-.578-.578L9.04 8l.708-.708.353.354.741.741a2.96 2.96 0 0 1 2.313-.002l.739-.739.354-.354.707.708zm-3.887 2.302a.424.424 0 0 1-.429-.417c0-.23.193-.418.429-.418s.428.188.428.418-.192.417-.428.417m2.571 0a.424.424 0 0 1-.428-.417c0-.23.193-.418.428-.418.236 0 .429.188.429.418s-.193.417-.429.417"/></svg>