<svg xmlns="http://www.w3.org/2000/svg" viewBox="0 0 44 44"><path fill-rule="evenodd" d="M18.845 9.114A46 46 0 0 1 22 9c1.051 0 2.112.042 3.156.114 4.974.34 6.17.535 7.683 2.048s1.707 2.708 2.048 7.683C34.958 19.888 35 20.949 35 22a46 46 0 0 1-.113 3.156c-.341 4.974-.536 6.17-2.048 7.683s-2.71 1.707-7.683 2.048A46 46 0 0 1 22 35c-1.051 0-2.112-.042-3.155-.113-4.975-.341-6.17-.535-7.683-2.048s-1.708-2.709-2.049-7.683A46 46 0 0 1 9 22c0-1.051.042-2.112.113-3.155.341-4.974.536-6.17 2.049-7.683s2.708-1.707 7.682-2.048M6.12 18.64c.328-4.78.492-7.171 2.92-9.6s4.819-2.592 9.6-2.92C19.74 6.046 20.87 6 22 6s2.26.045 3.36.12c4.781.328 7.172.492 9.6 2.92s2.592 4.82 2.92 9.6c.075 1.1.12 2.23.12 3.36s-.045 2.26-.12 3.36c-.328 4.781-.492 7.172-2.92 9.6s-4.819 2.592-9.6 2.92c-1.1.075-2.23.12-3.36.12s-2.26-.045-3.36-.12c-4.781-.328-7.171-.492-9.6-2.92s-2.592-4.819-2.92-9.6A49 49 0 0 1 6 22c0-1.13.045-2.26.12-3.36m19.933-2.438 1.154-1.128.707-.692L26.5 13l-.707.691-1.48 1.447a6.04 6.04 0 0 0-4.624.002l-1.482-1.449L17.5 13l-1.414 1.382.707.692 1.154 1.128C16.754 17.242 16 18.728 16 20.391v.816h12v-.816c0-1.663-.754-3.15-1.947-4.189M22 31c-3.317 0-6-2.554-6-5.713V23.18h12v2.107C28 28.446 25.317 31 22 31m-3.429-12.241c0 .448.386.816.857.816.472 0 .858-.368.858-.816 0-.45-.386-.817-.858-.817-.47 0-.857.368-.857.817m5.143 0c0 .448.386.816.857.816.472 0 .857-.368.857-.816 0-.45-.385-.817-.857-.817-.471 0-.857.368-.857.817"/></svg>