<svg xmlns="http://www.w3.org/2000/svg" viewBox="0 0 24 24"><path fill-rule="evenodd" d="M10.071 5.076A26 26 0 0 1 12 5c.642 0 1.292.028 1.929.076 2.75.204 3.265.318 3.97 1.024.707.706.82 1.22 1.025 3.971.048.637.076 1.287.076 1.929s-.028 1.292-.076 1.929c-.204 2.75-.318 3.265-1.024 3.97-.706.707-1.22.82-3.971 1.025-.637.048-1.287.076-1.929.076s-1.292-.028-1.929-.076c-2.75-.204-3.265-.318-3.97-1.024-.707-.706-.82-1.22-1.025-3.971A26 26 0 0 1 5 12c0-.642.028-1.292.076-1.929.204-2.75.318-3.265 1.024-3.97.706-.707 1.22-.82 3.971-1.025m-6.99 4.847c.195-2.616.292-3.924 1.605-5.237s2.62-1.41 5.237-1.605C10.6 3.031 11.3 3 12 3s1.399.03 2.077.081c2.616.195 3.924.292 5.237 1.605s1.41 2.62 1.605 5.237C20.969 10.6 21 11.3 21 12s-.03 1.399-.081 2.077c-.195 2.616-.292 3.924-1.605 5.237s-2.62 1.41-5.237 1.605C13.4 20.969 12.7 21 12 21s-1.399-.03-2.077-.081c-2.616-.195-3.924-.292-5.237-1.605s-1.41-2.62-1.605-5.237A28 28 0 0 1 3 12c0-.7.03-1.399.081-2.077M12 16.499c-1.66 0-3-1.307-3-2.922v-1.078h6v1.077c0 1.616-1.342 2.922-3 2.922m2.026-7.57.577-.577.354-.353-.708-.708-.353.354-.74.74a2.96 2.96 0 0 0-2.312 0l-.74-.74-.354-.354-.708.71.354.353.577.577A2.86 2.86 0 0 0 9 11.072v.417h6v-.417c0-.85-.377-1.611-.974-2.143m-3.74 1.308c0 .23.192.417.428.417a.424.424 0 0 0 .428-.417.424.424 0 0 0-.428-.418.424.424 0 0 0-.429.418m2.57 0c0 .23.194.417.43.417a.424.424 0 0 0 .428-.417.424.424 0 0 0-.429-.418.424.424 0 0 0-.428.418"/></svg>