<svg xmlns="http://www.w3.org/2000/svg" viewBox="0 0 44 44"><path fill-rule="evenodd" d="M6 25.667V21.5c0-.981.036-1.962.098-2.923.304-4.732.457-7.097 2.895-9.54s4.843-2.602 9.653-2.92A51 51 0 0 1 22 6c1.127 0 2.255.043 3.354.116 4.81.319 7.215.478 9.653 2.921s2.59 4.808 2.895 9.54c.062.96.098 1.942.098 2.923v4.167c-.006.333-.006.833-.006 1.259-.08 2.915-.12 4.373-2.086 6.418-1.797 1.868-3.6 2.14-6.908 2.374v-.885A4.833 4.833 0 0 0 24.167 30h-4.334A4.833 4.833 0 0 0 15 34.833v.885c-3.309-.234-5.112-.506-6.908-2.374-1.966-2.046-2.006-3.503-2.086-6.418C6.006 26.5 6 26 6 25.666M18.845 9.11C19.888 9.04 20.948 9 22 9s2.112.04 3.156.11c5.006.331 6.21.525 7.728 2.047 1.523 1.525 1.709 2.71 2.025 7.622 0-.003 0 .003 0 0-1.685-1.216-3.605-1.344-6.892-1.564A91 91 0 0 0 22 17c-2.064 0-4.127.089-6.017.215-3.287.22-5.207.348-6.892 1.564.316-4.912.502-6.097 2.025-7.623 1.519-1.521 2.722-1.715 7.729-2.046M30 27.75a2.75 2.75 0 1 0 0-5.5 2.75 2.75 0 0 0 0 5.5M16.75 25a2.75 2.75 0 1 1-5.5 0 2.75 2.75 0 0 1 5.5 0"/><path d="M18 34.833c0-1.012.82-1.833 1.833-1.833h4.334c1.012 0 1.833.82 1.833 1.833v3.334C26 39.179 25.18 40 24.167 40h-4.334A1.833 1.833 0 0 1 18 38.167z"/></svg>