<svg xmlns="http://www.w3.org/2000/svg" viewBox="0 0 16 16"><path fill-rule="evenodd" d="M14 9.75v-2c0-.392-.016-.784-.042-1.167-.12-1.72-.18-2.58-1.06-3.462s-1.758-.944-3.516-1.07A20 20 0 0 0 8 2c-.466 0-.931.02-1.382.052C4.86 2.177 3.98 2.239 3.1 3.12s-.94 1.742-1.059 3.462Q2.001 7.16 2 7.75v2q0 .189.01.376c.064 1.128.096 1.692.802 2.409.503.51 1.015.684 1.79.779a.752.752 0 1 0 .205-1.487c-.633-.076-.757-.172-.926-.345-.2-.203-.24-.307-.266-.402-.05-.181-.072-.423-.106-1.039a5 5 0 0 1 0-.586c.034-.616.055-.858.106-1.039.027-.095.066-.199.266-.402a.86.86 0 0 1 .464-.266c.289-.074.676-.107 1.447-.163C6.49 7.535 7.249 7.5 8 7.5c.75 0 1.51.035 2.208.085.771.056 1.158.089 1.447.163.2.052.313.112.464.266.2.203.24.307.266.402.05.181.072.423.107 1.039a5 5 0 0 1 0 .586c-.035.616-.056.858-.107 1.039-.027.095-.066.199-.266.402-.17.173-.293.27-.926.345a.753.753 0 1 0 .204 1.487c.776-.095 1.288-.268 1.79-.78.707-.716.739-1.28.802-2.408Q14 9.939 14 9.75M6.724 3.548C7.146 3.518 7.576 3.5 8 3.5s.854.018 1.276.048c1.86.132 2.139.21 2.561.633.404.405.49.666.607 2.256-.53-.233-1.17-.28-2.128-.348C9.59 6.037 8.796 6 8 6s-1.59.037-2.316.09c-.958.068-1.599.114-2.128.347.116-1.59.203-1.851.607-2.256.422-.424.701-.5 2.561-.633"/><path d="M12 9a1 1 0 1 1-2 0 1 1 0 0 1 2 0m-7 1a1 1 0 1 0 0-2 1 1 0 0 0 0 2m2.167 1.5a.667.667 0 0 0-.667.667v2.166c0 .368.298.667.667.667h1.666a.667.667 0 0 0 .667-.667v-2.166a.667.667 0 0 0-.667-.667z"/></svg>