<svg xmlns="http://www.w3.org/2000/svg" viewBox="0 0 44 44"><path fill-rule="evenodd" d="M38 25.667c0 .333-.006.833-.006 1.259-.08 2.915-.12 4.373-2.086 6.418C34.3 35.014 32.69 35.409 30 35.64a1.509 1.509 0 0 1 0-3.018c2.29-.218 2.922-.502 3.745-1.358.71-.738.909-1.184 1.017-1.586.154-.57.19-1.27.233-2.835a12 12 0 0 0 0-.687c-.042-1.565-.079-2.266-.233-2.836-.108-.402-.308-.848-1.017-1.586-1.04-1.081-1.774-1.25-5.928-1.527A88 88 0 0 0 22 20c-1.98 0-3.976.085-5.817.208-4.154.278-4.888.446-5.928 1.527-.709.738-.909 1.184-1.017 1.586-.154.57-.19 1.27-.233 2.835a13 13 0 0 0 0 .688c.043 1.564.08 2.265.233 2.835.108.402.308.848 1.017 1.586.823.856 1.455 1.14 3.745 1.358.829 0 1.5.68 1.5 1.508s-.671 1.51-1.5 1.51c-2.69-.232-4.301-.626-5.908-2.297-1.966-2.046-2.006-3.503-2.086-6.418C6.006 26.5 6 26 6 25.666V21.5c0-.981.036-1.962.098-2.923.304-4.732.457-7.097 2.895-9.54s4.843-2.602 9.653-2.92A51 51 0 0 1 22 6c1.128 0 2.255.043 3.354.116 4.81.319 7.215.478 9.654 2.921s2.59 4.808 2.894 9.54c.062.96.098 1.942.098 2.923zM18.845 9.11C19.888 9.04 20.948 9 22 9s2.112.04 3.156.11c5.006.331 6.21.525 7.728 2.047 1.523 1.525 1.709 2.71 2.025 7.622-1.685-1.216-3.604-1.344-6.892-1.564A91 91 0 0 0 22 17c-2.064 0-4.127.089-6.017.215-3.287.22-5.207.348-6.892 1.564.316-4.912.503-6.097 2.025-7.623 1.519-1.521 2.722-1.715 7.729-2.046"/><path d="M16.75 25a2.75 2.75 0 1 1-5.5 0 2.75 2.75 0 0 1 5.5 0M30 27.75a2.75 2.75 0 1 0 0-5.5 2.75 2.75 0 0 0 0 5.5M19.833 31C18.821 31 18 31.82 18 32.833v5.334c0 1.012.82 1.833 1.833 1.833h4.334C25.179 40 26 39.18 26 38.167v-5.334C26 31.821 25.18 31 24.167 31z"/></svg>