<svg xmlns="http://www.w3.org/2000/svg" viewBox="0 0 16 16"><path fill-rule="evenodd" d="M14 9.75v-2c0-.392-.016-.784-.042-1.167-.12-1.72-.18-2.58-1.06-3.462s-1.758-.944-3.516-1.07A20 20 0 0 0 8 2c-.466 0-.931.02-1.382.052C4.86 2.177 3.98 2.239 3.1 3.12s-.94 1.742-1.059 3.462Q2.001 7.16 2 7.75v2q0 .19.011.38c.064 1.128.096 1.692.801 2.409.585.593 1.18.73 2.188.82v-.192C5 11.97 5.97 11 7.167 11h1.666C10.03 11 11 11.97 11 13.167v.191c1.008-.088 1.603-.226 2.188-.82.705-.716.737-1.28.801-2.409q.01-.189.011-.379M6.724 3.548C7.146 3.518 7.576 3.5 8 3.5s.854.018 1.276.048c1.86.132 2.139.21 2.561.633.405.405.49.666.607 2.256-.53-.233-1.17-.28-2.129-.348C9.591 6.037 8.795 6 8 6s-1.59.037-2.315.09c-.96.068-1.6.114-2.129.347.116-1.59.203-1.851.607-2.256.422-.424.701-.5 2.561-.633M6 9a1 1 0 1 1-2 0 1 1 0 0 1 2 0m5 1a1 1 0 1 0 0-2 1 1 0 0 0 0 2"/><path fill-rule="evenodd" d="M7.16 12.5a.667.667 0 0 0-.66.667v1.166c0 .368.298.667.667.667h1.666a.667.667 0 0 0 .667-.667v-1.166a.667.667 0 0 0-.66-.667"/></svg>