<svg xmlns="http://www.w3.org/2000/svg" viewBox="0 0 24 24"><path d="M18 13.5a1.5 1.5 0 1 1-3 0 1.5 1.5 0 0 1 3 0M7.5 15a1.5 1.5 0 1 0 0-3 1.5 1.5 0 0 0 0 3m3.5 2a1 1 0 0 0-1 1v3a1 1 0 0 0 1 1h2a1 1 0 0 0 1-1v-3a1 1 0 0 0-1-1z"/><path fill-rule="evenodd" d="M21 11.5v3q0 .243-.012.484c-.085 1.66-.127 2.49-1.189 3.572-.88.899-1.775 1.104-3.289 1.235-.552 0-1.01-.452-1.01-1.004a1 1 0 0 1 1-1c.037 0 .074-.018.11-.014 1.17-.12 1.425-.274 1.761-.617.334-.34.414-.531.463-.708.081-.29.11-.666.156-1.565a8 8 0 0 0 0-.765c-.045-.9-.075-1.275-.156-1.565-.05-.177-.13-.369-.463-.708a1.54 1.54 0 0 0-.81-.469c-.458-.118-1.06-.167-2.207-.248A48 48 0 0 0 12 11c-1.143 0-2.295.053-3.354.128-1.147.08-1.75.13-2.207.248-.338.087-.547.2-.81.469-.334.34-.414.531-.463.708-.081.29-.11.666-.156 1.565a8 8 0 0 0 0 .765c.046.9.075 1.274.156 1.565.05.177.13.368.463.708.336.343.592.498 1.762.617.035-.004.072.014.109.014a1 1 0 0 1 1 1c0 .552-.458 1.005-1.01 1.005-1.514-.132-2.408-.337-3.29-1.236-1.061-1.083-1.103-1.912-1.187-3.572A10 10 0 0 1 3 14.5v-3c0-.551.021-1.103.058-1.642.173-2.568.26-3.852 1.582-5.178 1.322-1.325 2.643-1.418 5.286-1.604A30 30 0 0 1 12 3c.698 0 1.397.029 2.074.076 2.643.186 3.964.279 5.286 1.604 1.323 1.326 1.41 2.61 1.582 5.178Q21 10.67 21 11.5M10.066 5.071C10.705 5.027 11.356 5 12 5s1.295.027 1.934.071c2.78.196 3.3.309 4.01 1.022.696.697.815 1.184.988 3.683-.843-.46-1.848-.531-3.437-.643A50 50 0 0 0 12 9c-1.201 0-2.402.055-3.495.133-1.59.112-2.594.183-3.437.643.173-2.499.292-2.986.988-3.683.71-.713 1.23-.826 4.01-1.022"/></svg>