<svg xmlns="http://www.w3.org/2000/svg" viewBox="0 0 24 24"><path fill-rule="evenodd" d="M3 11.5c0-.551.021-1.103.058-1.642.173-2.568.26-3.852 1.582-5.178 1.322-1.325 2.643-1.418 5.286-1.604A30 30 0 0 1 12 3c.698 0 1.397.029 2.074.076 2.643.186 3.964.279 5.286 1.604 1.323 1.326 1.41 2.61 1.582 5.178.037.54.058 1.642.058 1.642l-.012 3.484c-.085 1.66-.127 2.489-1.189 3.572-.975.995-1.967 1.14-3.799 1.276V19a3 3 0 0 0-3-3h-2a3 3 0 0 0-3 3v.832c-1.832-.136-2.824-.28-3.8-1.276-1.061-1.083-1.103-1.913-1.187-3.572zm7.066-6.429C10.705 5.027 11.356 5 12 5s1.295.027 1.934.071c2.78.196 3.3.309 4.01 1.022.696.697.815 1.184.988 3.682-.843-.46-1.848-.53-3.437-.643A50 50 0 0 0 12 9c-1.201 0-2.402.055-3.495.132-1.59.112-2.594.183-3.437.643.173-2.498.292-2.985.988-3.682.71-.713 1.23-.826 4.01-1.022M16.5 15a1.5 1.5 0 1 0 0-3 1.5 1.5 0 0 0 0 3M9 13.5a1.5 1.5 0 1 1-3 0 1.5 1.5 0 0 1 3 0"/><path d="M10 19a1 1 0 0 1 1-1h2a1 1 0 0 1 1 1v2a1 1 0 0 1-1 1h-2a1 1 0 0 1-1-1z"/></svg>