<svg xmlns="http://www.w3.org/2000/svg" viewBox="0 0 44 44"><path fill-rule="evenodd" d="M8.686 32.659C8.51 31.78 9.227 31 10.123 31c.765 0 1.384.58 1.558 1.325q.05.212.11.41c.211.689.557 1.334 1.458 2.23.923.918 1.555 1.252 2.183 1.447.785.244 1.726.331 3.578.473a39 39 0 0 0 5.98 0c1.852-.142 2.793-.23 3.578-.473.628-.195 1.26-.529 2.183-1.447.901-.896 1.247-1.541 1.458-2.23q.06-.197.11-.41c.174-.746.793-1.325 1.558-1.325.896 0 1.612.78 1.437 1.659-.33 1.661-.951 2.946-2.447 4.434-2.396 2.382-4.147 2.515-7.648 2.783A42 42 0 0 1 22 40c-1.123 0-2.2-.046-3.219-.124-3.501-.267-5.252-.401-7.648-2.783-1.496-1.488-2.117-2.773-2.447-4.434M10.123 13c-.896 0-1.612-.78-1.437-1.659.33-1.661.952-2.946 2.448-4.434 2.396-2.382 4.148-2.516 7.651-2.783A42 42 0 0 1 22 4c1.122 0 2.198.046 3.215.124 3.504.267 5.255.4 7.651 2.783 1.497 1.488 2.118 2.773 2.448 4.434.175.879-.54 1.659-1.437 1.659-.765 0-1.384-.58-1.558-1.325a6 6 0 0 0-.11-.409c-.211-.69-.557-1.335-1.458-2.231-.923-.918-1.555-1.252-2.184-1.447-.785-.244-1.727-.331-3.58-.473A39 39 0 0 0 22 7c-1.04 0-2.04.043-2.987.115-1.853.142-2.794.23-3.58.473-.629.195-1.26.529-2.184 1.447-.901.896-1.247 1.541-1.458 2.231q-.06.196-.11.41c-.174.745-.793 1.324-1.558 1.324m14.548 3.658a1.5 1.5 0 0 1 .67 2.013l-4 8a1.5 1.5 0 1 1-2.683-1.342l4-8a1.5 1.5 0 0 1 2.013-.67m-11.575.145-.01.008-.037.028-.134.102a41 41 0 0 0-1.903 1.555c-.517.453-1.072.97-1.508 1.46a6 6 0 0 0-.61.799c-.144.234-.394.688-.394 1.245s.25 1.011.394 1.245c.174.282.393.555.61.799.436.49.99 1.007 1.508 1.46a39 39 0 0 0 2.037 1.657l.036.028.01.008.004.003a1.5 1.5 0 0 0 1.801-2.4l-.008-.006-.03-.023-.12-.092a37 37 0 0 1-1.754-1.433A15 15 0 0 1 11.702 22l.044-.05c.313-.353.76-.774 1.242-1.196a36 36 0 0 1 1.873-1.525l.03-.023.009-.006a1.5 1.5 0 0 0-1.8-2.4zm17.809 0 .01.008.036.028.134.102a41 41 0 0 1 1.903 1.555c.517.453 1.072.97 1.508 1.46.217.244.436.517.61.799.144.234.394.688.394 1.245s-.25 1.011-.394 1.245a6 6 0 0 1-.61.799c-.436.49-.99 1.007-1.508 1.46a39 39 0 0 1-2.037 1.657l-.036.028-.01.008-.004.003a1.5 1.5 0 0 1-1.801-2.4l.008-.006.03-.023.12-.092a37 37 0 0 0 1.754-1.433A15 15 0 0 0 32.298 22l-.044-.05a15 15 0 0 0-1.242-1.196 36 36 0 0 0-1.873-1.525l-.03-.023-.009-.006a1.5 1.5 0 1 1 1.8-2.4z"/></svg>