<svg xmlns="http://www.w3.org/2000/svg" viewBox="0 0 16 16"><path fill-rule="evenodd" d="M11.097 3.655c.1.33.368.595.712.595h.068c.447 0 .812-.391.71-.827-.121-.516-.335-.928-.794-1.39-.796-.8-1.388-.857-2.572-.97a14 14 0 0 0-2.64 0c-1.185.113-1.777.17-2.573.97-.46.462-.673.874-.794 1.39-.102.436.262.827.71.827h.067c.345 0 .613-.265.712-.595.05-.164.124-.319.369-.564.26-.263.41-.331.539-.374.207-.067.47-.099 1.111-.16a12.5 12.5 0 0 1 2.357 0c.641.061.904.093 1.11.16.13.043.279.111.54.374.245.245.318.4.368.564m-6.394 8.69c-.1-.33-.367-.595-.712-.595h-.067c-.448 0-.812.391-.71.827.12.516.334.928.794 1.39.796.8 1.387.857 2.57.97a14 14 0 0 0 2.644 0c1.183-.113 1.775-.17 2.57-.97.46-.462.674-.874.795-1.39.102-.436-.263-.827-.71-.827h-.067c-.345 0-.613.265-.713.595-.05.165-.123.319-.368.564-.26.263-.41.332-.539.374-.206.067-.47.1-1.11.16a12.5 12.5 0 0 1-2.359 0c-.64-.06-.904-.093-1.11-.16-.13-.042-.278-.11-.54-.373-.244-.246-.318-.4-.368-.565m4.409-5.608a.75.75 0 1 0-1.423-.474l-1 3a.75.75 0 1 0 1.423.474zm1.374 2.138-.002.001a.75.75 0 0 0 .832 1.248l.003-.002.004-.002.015-.01a6 6 0 0 0 .236-.166c.15-.108.351-.26.556-.43.201-.168.425-.37.605-.58.09-.106.184-.23.26-.367.07-.129.155-.327.155-.567s-.085-.438-.156-.567a2.2 2.2 0 0 0-.258-.366 5 5 0 0 0-.606-.58 10 10 0 0 0-.792-.596l-.015-.01-.004-.004-.003-.001a.75.75 0 1 0-.832 1.248l.002.001.01.007.043.03a9 9 0 0 1 .631.477c.154.128.29.252.389.361a4 4 0 0 1-.389.361 9 9 0 0 1-.631.478l-.043.029zm-4.92.001-.002-.001-.01-.007-.042-.03a9 9 0 0 1-.631-.477A4 4 0 0 1 4.492 8c.1-.109.235-.233.389-.361a9 9 0 0 1 .631-.478l.042-.029.01-.007.002-.001a.75.75 0 0 0-.832-1.248l-.002.001-.004.003-.015.01a7 7 0 0 0-.236.166c-.15.108-.352.26-.557.43-.2.168-.425.37-.605.58a2 2 0 0 0-.259.367c-.07.129-.156.327-.156.567s.086.438.156.567c.075.137.17.261.26.366.18.21.403.413.604.58a10 10 0 0 0 .793.597l.015.01.004.003.002.001a.75.75 0 1 0 .833-1.248"/></svg>