<svg xmlns="http://www.w3.org/2000/svg" viewBox="0 0 24 24"><path fill-rule="evenodd" d="M12 3a1 1 0 0 1 1 1v2.009c1.13.033 1.89.19 2.924.935.3.216.916.833 1.132 1.132.745 1.033.902 1.793.935 2.924H20a1 1 0 1 1 0 2h-2.009c-.033 1.13-.19 1.89-.935 2.924-.216.3-.833.916-1.132 1.132-1.033.745-1.793.902-2.924.935V20a1 1 0 1 1-2 0v-2.009c-1.13-.033-1.89-.19-2.924-.935-.3-.216-.916-.833-1.132-1.132C6.199 14.89 6.042 14.13 6.01 13H4a1 1 0 1 1 0-2h2.009c.033-1.13.19-1.89.935-2.924.216-.3.833-.916 1.132-1.132C9.11 6.199 9.87 6.042 11 6.01V4a1 1 0 0 1 1-1M8.01 13H9a1 1 0 1 0 0-2h-.99c.01-.313.03-.536.07-.738.055-.276.157-.559.486-1.016l.001-.001c.008-.01.035-.044.09-.105a7 7 0 0 1 .588-.573q.005-.003 0 0c.458-.33.74-.432 1.017-.487.202-.04.425-.06.738-.07V9a1 1 0 1 0 2 0v-.99c.313.01.536.03.738.07.276.055.559.157 1.016.486l.001.001c.01.008.044.035.105.09a7 7 0 0 1 .573.588l.002.002-.001-.001c.33.457.431.74.486 1.016.04.202.06.425.07.738H15a1 1 0 1 0 0 2h.99c-.01.313-.03.536-.07.738-.055.276-.157.559-.486 1.016l-.001.001c-.008.01-.035.044-.09.105a7 7 0 0 1-.588.573q-.004.003 0 0c-.458.33-.74.432-1.017.487-.202.04-.425.06-.738.07V15a1 1 0 1 0-2 0v.99a4.6 4.6 0 0 1-.738-.07c-.276-.055-.559-.157-1.016-.486h.001l-.002-.001-.105-.09a7 7 0 0 1-.483-.483c-.055-.061-.082-.095-.09-.105q-.003-.004 0 0c-.33-.458-.432-.74-.487-1.017A4.5 4.5 0 0 1 8.01 13"/></svg>