<svg xmlns="http://www.w3.org/2000/svg" viewBox="0 0 24 24"><path d="M10 5.012c0-.9-1.077-1.35-1.706-.714l-3.096 3.13C3.066 9.582 2 10.66 2 12s1.066 2.417 3.198 4.573l3.096 3.129c.63.637 1.706.186 1.706-.715 0-.267-.105-.524-.293-.714l-3.095-3.13c-1.106-1.118-1.79-1.815-2.223-2.389-.39-.517-.39-.697-.39-.751L4 12l-.001-.003c0-.053 0-.234.39-.751.432-.574 1.117-1.272 2.223-2.39l3.095-3.129c.188-.19.293-.447.293-.715m4 0c0-.9 1.077-1.35 1.706-.714l3.096 3.13C20.934 9.582 22 10.66 22 12s-1.066 2.417-3.198 4.573l-3.096 3.129c-.63.637-1.706.186-1.706-.715 0-.267.105-.524.293-.714l3.095-3.13c1.106-1.118 1.79-1.815 2.223-2.389.39-.517.39-.697.39-.751v-.006c0-.053 0-.234-.39-.751-.432-.574-1.117-1.272-2.223-2.39l-3.095-3.129A1.02 1.02 0 0 1 14 5.012m-2 8.238a1.25 1.25 0 1 0 0-2.5 1.25 1.25 0 0 0 0 2.5"/><path d="M9.25 12a1.25 1.25 0 1 1-2.5 0 1.25 1.25 0 0 1 2.5 0M16 13.25a1.25 1.25 0 1 0 0-2.5 1.25 1.25 0 0 0 0 2.5"/></svg>