<svg xmlns="http://www.w3.org/2000/svg" viewBox="0 0 16 16"><path d="M6.172 3.752a.75.75 0 0 0-1.28-.53l-1.759 1.76C1.711 6.403 1 7.115 1 8s.711 1.596 2.133 3.019l1.759 1.76a.75.75 0 1 0 1.06-1.062l-1.758-1.76c-.741-.741-1.188-1.193-1.468-1.56a1.6 1.6 0 0 1-.208-.33C2.5 8.024 2.5 8.009 2.5 8v-.002c0-.008 0-.023.018-.066.023-.057.079-.16.208-.33.28-.367.727-.82 1.468-1.56l1.759-1.76a.75.75 0 0 0 .22-.531m3.655.001a.75.75 0 0 1 1.28-.53l1.759 1.76C14.289 6.403 15 7.115 15 8s-.711 1.596-2.133 3.019l-1.759 1.76a.75.75 0 1 1-1.06-1.062l1.758-1.76c.741-.741 1.188-1.193 1.468-1.56.13-.17.185-.273.208-.33.018-.043.018-.058.018-.066v-.002c0-.008 0-.023-.018-.066a1.6 1.6 0 0 0-.208-.33c-.28-.367-.727-.82-1.468-1.56l-1.759-1.76a.75.75 0 0 1-.22-.531M8 8.9a.9.9 0 1 0 0-1.8.9.9 0 0 0 0 1.8"/><path d="M6.4 8a.9.9 0 1 1-1.8 0 .9.9 0 0 1 1.8 0m4.1.9a.9.9 0 1 0 0-1.8.9.9 0 0 0 0 1.8"/></svg>