<svg xmlns="http://www.w3.org/2000/svg" viewBox="0 0 32 32"><path fill-rule="evenodd" d="M10.746 5.149a1.25 1.25 0 0 0-2.492 0L7.026 20.301A4 4 0 1 0 9.5 24a4 4 0 1 0 2.474-3.699zM15 24a1.5 1.5 0 1 1-3 0 1.5 1.5 0 0 1 3 0m-9.5 1.5a1.5 1.5 0 1 0 0-3 1.5 1.5 0 0 0 0 3m15.997-19v1.8H19.75a1.25 1.25 0 1 0 0 2.5h1.747v1.8H19.75a1.25 1.25 0 1 0 0 2.5h1.747v1.8H19.75a1.25 1.25 0 1 0 0 2.5h1.747v1.8H19.75a1.25 1.25 0 1 0 0 2.5h1.747v1.8H19.75a1.25 1.25 0 1 0 0 2.5h4.33a3.917 3.917 0 0 0 3.917-3.917V7.917A3.917 3.917 0 0 0 24.08 4h-4.33a1.25 1.25 0 1 0 0 2.5zM24 9.55l-.003.093v4.114a1.3 1.3 0 0 1 0 .186v4.114a1.3 1.3 0 0 1 0 .186v4.114a1.3 1.3 0 0 1 0 .186V25.5h.083c.782 0 1.417-.634 1.417-1.417V7.917c0-.783-.635-1.417-1.417-1.417h-.083v2.957q.003.046.003.093"/></svg>