<svg xmlns="http://www.w3.org/2000/svg" viewBox="0 0 32 32"><path fill-rule="evenodd" d="M10.746 5.149a1.25 1.25 0 0 0-2.492 0L7.026 20.301A4 4 0 1 0 9.5 24a4 4 0 1 0 2.474-3.699zM15 24a1.5 1.5 0 1 1-3 0 1.5 1.5 0 0 1 3 0m-9.5 1.5a1.5 1.5 0 1 0 0-3 1.5 1.5 0 0 0 0 3"/><path d="M19.75 4a1.25 1.25 0 0 0 0 2.5h2.75v1.8h-2.75a1.25 1.25 0 0 0 0 2.5h2.75v1.8h-2.75a1.25 1.25 0 0 0 0 2.5h2.75v1.8h-2.75a1.25 1.25 0 0 0 0 2.5h2.75v1.8h-2.75a1.25 1.25 0 0 0 0 2.5h2.75v1.8h-2.75a1.25 1.25 0 0 0 0 2.5h5.584A2.667 2.667 0 0 0 28 25.333V6.667A2.667 2.667 0 0 0 25.334 4z"/></svg>