<svg xmlns="http://www.w3.org/2000/svg" viewBox="0 0 44 44"><path fill-rule="evenodd" d="M14.496 7.39a1.5 1.5 0 0 0-2.992 0l-1.48 20.222A5.5 5.5 0 1 0 13 32.5a5.5 5.5 0 1 0 2.976-4.888zM21 32.5a2.5 2.5 0 1 1-5 0 2.5 2.5 0 0 1 5 0M7.5 35a2.5 2.5 0 1 0 0-5 2.5 2.5 0 0 0 0 5"/><path d="M27.5 6a1.5 1.5 0 0 0 0 3h4v2.8h-4a1.5 1.5 0 0 0 0 3h4v2.8h-4a1.5 1.5 0 0 0 0 3h4v2.8h-4a1.5 1.5 0 0 0 0 3h4v2.8h-4a1.5 1.5 0 0 0 0 3h4V35h-4a1.5 1.5 0 0 0 0 3h6.834A3.667 3.667 0 0 0 38 34.333V9.667A3.667 3.667 0 0 0 34.334 6z"/></svg>