<svg xmlns="http://www.w3.org/2000/svg" viewBox="0 0 24 24"><path d="M13.596 9.423C14.186 8.942 15 8.276 15 7a3 3 0 1 0-5.988.264c.103 1.106.844 1.712 1.392 2.16.334.272.596.486.596.719 0 .266-.384.439-.935.687-1.092.491-1.924 1.037-2.76 1.943-.598.65-.925 1.167-.994 1.348-.202.533-.262.774-.286.909-.021.122-.025.215-.025.57 0 1.36.016 1.658.068 1.853.19.724.755 1.29 1.479 1.48.195.05.492.067 1.853.067H12a1 1 0 0 1 0 2H9.4c-1.235 0-1.853 0-2.36-.133a4.07 4.07 0 0 1-2.907-2.907C4 17.453 4 16.835 4 15.6c0-.683 0-1.025.441-2.188.37-.975 1.782-2.559 2.932-3.39q.22-.16.421-.278l-.06-.117-.072-.14A5 5 0 0 1 7.001 7a5 5 0 1 1 9.326 2.508l-.061.12-.06.116a5 5 0 0 1 .42.277c.98.708 2.147 1.96 2.702 2.918a1 1 0 1 1-1.685 1.076c-.125-.236-.44-.69-.948-1.242-.836-.907-1.668-1.452-2.76-1.943-.551-.248-.935-.421-.935-.687 0-.233.261-.447.596-.72"/><path d="M22.207 16.207a1 1 0 1 0-1.414-1.414L17 18.586l-1.293-1.293a1 1 0 0 0-1.414 1.414l2 2a1 1 0 0 0 1.414 0z"/></svg>