<svg xmlns="http://www.w3.org/2000/svg" viewBox="0 0 16 16"><path d="M9.076 6.03c.388-.275.924-.655.924-1.529V4.5a2 2 0 1 0-3.98.28c.1.68.56 1.006.904 1.25.22.157.392.28.392.438 0 .147-.265.26-.624.413-.736.315-1.334.715-1.875 1.307a6 6 0 0 0-.403.49 3 3 0 0 0-.155.242l-.01.02c-.16.377-.206.556-.225.667-.02.122-.024.233-.024.57 0 1.078.016 1.286.055 1.414.125.412.447.734.859.859.128.039.335.055 1.413.055h1.34a.4.4 0 0 1 .059-.001h.029c.414 0 .745.332.745.746a.754.754 0 0 1-.75.755H6.327c-.969 0-1.453 0-1.847-.12a2.79 2.79 0 0 1-1.86-1.86c-.12-.394-.12-.879-.12-1.847 0-.636 0-.954.367-1.822.275-.65 1.296-1.752 2.03-2.237a3.5 3.5 0 1 1 6.207 0c.568.376 1.308 1.121 1.74 1.74a.75.75 0 0 1-.594 1.207c-.23 0-.44-.1-.578-.262l-.086-.126a6 6 0 0 0-.403-.49c-.54-.592-1.139-.992-1.875-1.307-.36-.153-.624-.266-.624-.413 0-.159.172-.281.392-.437"/><path d="M15.28 10.28a.75.75 0 1 0-1.06-1.06l-2.97 2.97-1.47-1.47a.75.75 0 0 0-1.06 1.06l2 2a.75.75 0 0 0 1.06 0z"/></svg>