<svg xmlns="http://www.w3.org/2000/svg" viewBox="0 0 16 16"><path d="M9.57 6.558a3 3 0 1 0-3.136 0c-.278.028-.532.085-.99.255-.907.339-2.443 1.958-2.734 2.882-.208.663-.208.752-.208.93 0 .614 0 .92.05 1.176a2.715 2.715 0 0 0 2.149 2.15c.255.049.562.049 1.176.049h2.941L7.66 12.84a2.25 2.25 0 1 1 3.182-3.18l.41.408L12.68 8.64c-.61-.787-1.508-1.598-2.12-1.827-.457-.17-.711-.227-.99-.255"/><path d="M15.28 10.28a.75.75 0 1 0-1.06-1.06l-2.97 2.97-1.47-1.47a.75.75 0 0 0-1.06 1.06l2 2a.75.75 0 0 0 1.06 0z"/></svg>