<svg xmlns="http://www.w3.org/2000/svg" viewBox="0 0 44 44"><path d="M17.508 6.264a2 2 0 0 1 2.438.354l10.88 11.375c.44.367.719.919.719 1.535v1.816a4.5 4.5 0 0 0-7.204 1.086C23.795 23.484 22.87 24 21.998 24c-.878 0-1.81-.523-2.354-1.57a4.5 4.5 0 0 0-4.747-2.367l6.324-6.325-3.085-3.226-5.643 3.224a2 2 0 1 1-1.985-3.472zM36 11.5a4 4 0 1 1-8 0 4 4 0 0 1 8 0"/><path d="M15.65 23a1.5 1.5 0 0 1 1.331.81C17.987 25.75 19.89 27 21.998 27s4-1.247 5.007-3.19a1.5 1.5 0 0 1 2.664 0c1.005 1.94 2.908 3.19 5.017 3.19.49 0 .962-.067 1.413-.191a1.5 1.5 0 0 1 .798 2.892 8.3 8.3 0 0 1-2.21.299c-2.518 0-4.766-1.121-6.35-2.882-1.579 1.76-3.82 2.882-6.339 2.882-2.517 0-4.765-1.122-6.349-2.883C14.066 28.878 11.817 30 9.3 30a8.3 8.3 0 0 1-2.198-.296 1.5 1.5 0 0 1 .793-2.893A5.3 5.3 0 0 0 9.3 27c2.11 0 4.012-1.25 5.017-3.19A1.5 1.5 0 0 1 15.65 23m1.279 9.439a1.5 1.5 0 0 0-2.12 0c-.613.611-1.84 1.21-3.524 1.452a1.5 1.5 0 0 0 .426 2.97c1.544-.222 3.006-.711 4.157-1.453C17.472 36.442 19.7 37 21.998 37c2.3 0 4.524-.558 6.126-1.592 1.152.744 2.615 1.234 4.163 1.455a1.5 1.5 0 0 0 .423-2.97c-1.684-.24-2.911-.84-3.526-1.454a1.5 1.5 0 0 0-2.12 0c-.814.812-2.663 1.56-5.065 1.56s-4.258-.748-5.07-1.56"/></svg>