<svg xmlns="http://www.w3.org/2000/svg" viewBox="0 0 24 24"><path fill-rule="evenodd" d="M12 5.001c-.642 0-1.292.029-1.929.076-2.75.205-3.265.318-3.97 1.025-.707.706-.82 1.22-1.025 3.97A26 26 0 0 0 5 12.003c0 .642.028 1.291.076 1.928.204 2.75.318 3.265 1.024 3.971.706.707 1.22.82 3.971 1.025.637.047 1.287.076 1.929.076s1.292-.029 1.929-.076c2.75-.205 3.265-.318 3.97-1.025q.133-.13.238-.259c.283-.345.663-.642 1.109-.642.684 0 1.205.65.88 1.25a4.7 4.7 0 0 1-.812 1.066c-1.313 1.312-2.62 1.41-5.237 1.604-.678.05-1.377.081-2.077.081s-1.399-.03-2.077-.08c-2.616-.195-3.924-.293-5.237-1.605s-1.41-2.621-1.605-5.237A28 28 0 0 1 3 12c0-.7.03-1.399.081-2.077.195-2.616.292-3.924 1.605-5.237 1.313-1.312 2.62-1.41 5.237-1.604C10.6 3.032 11.3 3 12 3s1.399.031 2.077.082c2.616.194 3.924.292 5.237 1.604.346.347.608.692.81 1.062.326.6-.196 1.251-.88 1.251-.446 0-.826-.296-1.109-.641a4 4 0 0 0-.235-.257c-.706-.707-1.22-.82-3.971-1.025A26 26 0 0 0 12 5.001m.423 5.077q.198-.072.44-.072.343 0 .514.126a.63.63 0 0 1 .234.35h1.512a1.9 1.9 0 0 0-.171-.665 1.5 1.5 0 0 0-.423-.531 1.9 1.9 0 0 0-.675-.351 3 3 0 0 0-.945-.135q-.585 0-1.071.153a1.8 1.8 0 0 0-.82.513q-.34.369-.54.999-.188.621-.188 1.575 0 .873.153 1.485.153.611.459.999.315.378.792.549.486.17 1.134.17 1.206 0 1.809-.548.603-.558.603-1.584 0-.522-.144-.891a1.55 1.55 0 0 0-.405-.603 1.5 1.5 0 0 0-.612-.351 2.5 2.5 0 0 0-.783-.117q-.963 0-1.467.612v-.108q0-.505.072-.82.072-.323.198-.503a.65.65 0 0 1 .324-.252m1.044 3.816q-.225.189-.64.189-.43 0-.674-.207-.243-.216-.243-.756 0-.522.243-.738.243-.225.675-.225.396 0 .63.18.243.18.243.63v.27q0 .467-.234.657M7.778 8.917 6.5 9.925v1.467l1.278-1.044v4.779h1.503v-6.21zM20 10a1 1 0 1 0-2 0v1h-1a1 1 0 1 0 0 2h1v1a1 1 0 1 0 2 0v-1h1a1 1 0 1 0 0-2h-1z"/></svg>