<svg xmlns="http://www.w3.org/2000/svg" viewBox="0 0 44 44"><path fill-rule="evenodd" d="M18.845 9.114A46 46 0 0 1 22 9c1.051 0 2.112.042 3.156.114 4.974.34 6.17.535 7.683 2.048.532.532.9 1.025 1.17 1.657.284.664.877 1.181 1.599 1.181.95 0 1.692-.866 1.384-1.765-.4-1.176-1.02-2.182-2.032-3.195-2.428-2.428-4.819-2.592-9.6-2.92A49 49 0 0 0 22 6c-1.13 0-2.26.045-3.36.12-4.781.328-7.171.492-9.6 2.92s-2.592 4.82-2.92 9.6A49 49 0 0 0 6 22c0 1.13.045 2.26.12 3.36.328 4.781.492 7.172 2.92 9.6s4.819 2.592 9.6 2.92c1.1.075 2.23.12 3.36.12s2.26-.045 3.36-.12c4.781-.328 7.172-.492 9.6-2.92 1.012-1.013 1.631-2.019 2.033-3.195.307-.9-.434-1.765-1.385-1.765-.722 0-1.315.517-1.598 1.181-.27.632-.64 1.125-1.171 1.658-1.513 1.513-2.71 1.707-7.683 2.048A46 46 0 0 1 22 35c-1.051 0-2.112-.042-3.155-.113-4.975-.341-6.17-.535-7.683-2.048s-1.708-2.709-2.049-7.683A46 46 0 0 1 9 22c0-1.051.042-2.112.113-3.155.341-4.974.536-6.17 2.049-7.683s2.708-1.707 7.682-2.048M34 25a1.5 1.5 0 1 0 3 0v-1.5h1.5a1.5 1.5 0 1 0 0-3H37V19a1.5 1.5 0 0 0-3 0v1.5h-1.5a1.5 1.5 0 0 0 0 3H34zm-20.073-9.61-2.698 2.128v3.097l2.698-2.204V28.5H17.1V15.39zm9.805 2.451q.419-.152.931-.152.723 0 1.083.266.361.265.494.741h3.192a4 4 0 0 0-.36-1.406 3.16 3.16 0 0 0-.894-1.121q-.57-.476-1.425-.741-.855-.285-1.995-.285-1.235 0-2.26.323a3.83 3.83 0 0 0-1.73 1.083q-.722.78-1.14 2.109-.399 1.31-.399 3.325 0 1.843.323 3.135.322 1.292.97 2.109.665.798 1.671 1.159 1.026.36 2.394.361 2.546 0 3.82-1.159 1.272-1.178 1.272-3.344 0-1.103-.304-1.881a3.3 3.3 0 0 0-.855-1.273 3.1 3.1 0 0 0-1.292-.741 5.2 5.2 0 0 0-1.653-.247q-2.032 0-3.097 1.292v-.228q0-1.065.152-1.729.152-.683.418-1.064.285-.399.684-.532m2.204 8.056q-.475.399-1.349.399-.912 0-1.425-.437-.513-.456-.513-1.596 0-1.102.513-1.558.513-.475 1.425-.475.836 0 1.33.38.513.38.513 1.33v.57q0 .988-.494 1.387"/></svg>