<svg xmlns="http://www.w3.org/2000/svg" viewBox="0 0 24 24"><path d="M3.707 4.293a1 1 0 0 0-1.414 1.414L3.43 6.844A9.95 9.95 0 0 0 2 12a9.96 9.96 0 0 0 2.258 6.33c.35.427.988.425 1.378.034.39-.39.385-1.02.046-1.456A7.97 7.97 0 0 1 4 12c0-1.33.324-2.584.899-3.687l1.509 1.509A6 6 0 0 0 6 12c0 1.297.412 2.499 1.112 3.48.32.45.962.446 1.352.056.391-.391.377-1.02.095-1.495a3.98 3.98 0 0 1-.522-2.59L11 14.415V19a1 1 0 1 0 2 0v-2.586l5.293 5.293a1 1 0 0 0 1.414-1.414zM11 9v.47l2 2V9a1 1 0 1 0-2 0m6.602 5.156A6 6 0 0 0 18.001 12a5.97 5.97 0 0 0-1.112-3.48c-.32-.45-.962-.446-1.352-.056-.391.391-.378 1.02-.095 1.495A4 4 0 0 1 16 12c0 .482-.083.944-.239 1.372a1 1 0 0 0 .928 1.372c.4 0 .752-.25.912-.588m2.923 3.07a1 1 0 1 1-1.658-1.116A7.96 7.96 0 0 0 20 12c0-1.85-.628-3.553-1.682-4.908-.339-.436-.345-1.065.046-1.456.39-.39 1.028-.393 1.378.034A9.96 9.96 0 0 1 22 12a9.95 9.95 0 0 1-1.477 5.226"/></svg>