<svg xmlns="http://www.w3.org/2000/svg" viewBox="0 0 44 44"><path d="m20.5 18.856 3 3V16.5a1.5 1.5 0 1 0-3 0zm9.25 7.714a1.5 1.5 0 0 0 2.591 1.51A12.13 12.13 0 0 0 34 21.993c0-2.772-.94-5.324-2.518-7.356-.509-.654-1.468-.65-2.054-.063-.585.585-.573 1.529-.093 2.203A8.96 8.96 0 0 1 31 21.991a8.96 8.96 0 0 1-1.25 4.58"/><path d="M36.605 32.52A17.9 17.9 0 0 0 40 21.999c0-4.43-1.6-8.487-4.256-11.623-.535-.633-1.49-.629-2.076-.043-.586.585-.58 1.53-.054 2.172A14.94 14.94 0 0 1 37 21.998c0 3.239-1.027 6.238-2.772 8.69a1.5 1.5 0 0 0 1.168 2.442 1.5 1.5 0 0 0 1.21-.61M4.439 8.438a1.5 1.5 0 0 1 2.12.002c9.656 9.677 19.327 19.338 28.998 28.998a1.5 1.5 0 0 1-2.119 2.123L23.5 29.633V34.5a1.5 1.5 0 0 1-3 0v-7.866l-7.147-7.147A9 9 0 0 0 13 21.99c0 1.948.619 3.752 1.67 5.225.482.674.495 1.619-.091 2.205-.586.585-1.543.59-2.052-.063A11.95 11.95 0 0 1 10 21.991c0-1.723.363-3.36 1.017-4.842l-2.239-2.24A14.9 14.9 0 0 0 7 21.998c0 3.602 1.27 6.909 3.388 9.495.525.641.531 1.587-.054 2.172s-1.541.59-2.077-.042A17.93 17.93 0 0 1 4 21.998c0-3.4.942-6.579 2.58-9.29l-2.144-2.149a1.5 1.5 0 0 1 .003-2.12"/></svg>