<svg xmlns="http://www.w3.org/2000/svg" viewBox="0 0 24 24"><path fill-rule="evenodd" d="M1.998 19 2 18.99V19a1 1 0 1 0 2 0v-1h16v1a1 1 0 1 0 2 0v-7c0-.726-.034-1.42-.088-2.068-.064-.77-.115-1.387-.234-1.932-.385-1.765-1.918-3.235-3.679-3.598-.549-.113-1.174-.167-1.946-.234A47 47 0 0 0 11.999 4c-1.55 0-2.902.068-4.055.168-.771.067-1.396.12-1.945.234C4.24 4.765 2.706 6.235 2.321 8c-.12.545-.17 1.161-.235 1.93A25 25 0 0 0 2 12zM12 6a45 45 0 0 0-3.882.16c-1.078.094-1.601.149-2.022.278-.76.235-1.519.981-1.756 1.742-.123.394-.173.879-.26 1.916C4.03 10.695 4 11.333 4 12v.362a4.74 4.74 0 0 1 2-.96V10c0-.552.45-1 1.002-1h10a1 1 0 0 1 1 1v1.402a4.75 4.75 0 0 1 1.997.958V12c0-.666-.03-1.304-.08-1.902-.086-1.038-.137-1.524-.26-1.918-.236-.76-.995-1.507-1.755-1.742-.421-.13-.945-.184-2.024-.278A45 45 0 0 0 12 6"/></svg>