<svg xmlns="http://www.w3.org/2000/svg" viewBox="0 0 44 44"><path d="M22 18a2 2 0 1 0 0-4 2 2 0 0 0 0 4"/><path fill-rule="evenodd" d="m41.049 22.664-5.318 6.373.715 4.033c.453 2.547-2.043 4.619-4.473 3.713a28.56 28.56 0 0 0-19.946 0c-2.43.906-4.926-1.166-4.474-3.713l.716-4.032-5.32-6.373a4.1 4.1 0 0 1 .66-5.885l8.372-6.394A16.5 16.5 0 0 1 32 10.381l8.386 6.396a4.1 4.1 0 0 1 .661 5.887m-30.542 10.93.672-3.781 4.604-1.082C17.827 28.25 19.913 28 22 28s4.172.25 6.216.73l4.605 1.083.672 3.781a.3.3 0 0 1-.01.175.36.36 0 0 1-.109.144.4.4 0 0 1-.167.082.33.33 0 0 1-.186-.023 31.56 31.56 0 0 0-22.042 0 .33.33 0 0 1-.186.023.4.4 0 0 1-.167-.082.36.36 0 0 1-.108-.144.3.3 0 0 1-.01-.175m23.088-6.68-4.693-1.104A30.2 30.2 0 0 0 22 25a30.2 30.2 0 0 0-6.904.81l-4.693 1.103-5.15-6.17a1.1 1.1 0 0 1 .177-1.58l8.371-6.392a13.5 13.5 0 0 1 16.381-.005l8.386 6.396a1.1 1.1 0 0 1 .177 1.58z"/></svg>