<svg xmlns="http://www.w3.org/2000/svg" viewBox="0 0 24 24"><path fill-rule="evenodd" d="M1.861 9.084a2.3 2.3 0 0 0-.324 3.275l2.866 3.413-.37 2.02c-.26 1.42 1.132 2.586 2.5 2.093a16.16 16.16 0 0 1 10.938 0c1.368.492 2.76-.673 2.5-2.094l-.371-2.026 2.86-3.407a2.3 2.3 0 0 0-.326-3.275l-4.52-3.612a9 9 0 0 0-11.24.003zm11.391-.017a1.25 1.25 0 1 1-2.5 0 1.25 1.25 0 0 1 2.5 0m3.963 4.704q.081.018.157.048c.361.151.628.513.628.929a1 1 0 0 1-1.246.97 16 16 0 0 0-9.508 0q-.118.03-.246.03a1 1 0 0 1-.198-1.98 18 18 0 0 1 10.413.003"/></svg>