<svg xmlns="http://www.w3.org/2000/svg" viewBox="0 0 44 44"><path fill-rule="evenodd" d="m41.049 22.664-5.318 6.373.715 4.033c.453 2.547-2.043 4.619-4.473 3.713a28.56 28.56 0 0 0-19.946 0c-2.43.906-4.926-1.166-4.474-3.713l.716-4.032-5.32-6.373a4.1 4.1 0 0 1 .66-5.885l8.372-6.394A16.5 16.5 0 0 1 32 10.381l8.386 6.396a4.1 4.1 0 0 1 .661 5.887M24 16a2 2 0 1 1-4 0 2 2 0 0 1 4 0m9 11.954a1.5 1.5 0 0 1-1.843 1.46l-2.94-.691a27.2 27.2 0 0 0-12.433 0l-2.94.691a1.5 1.5 0 1 1-.687-2.92l2.941-.692a30.2 30.2 0 0 1 13.806 0l2.94.691A1.5 1.5 0 0 1 33 27.953"/></svg>