<svg xmlns="http://www.w3.org/2000/svg" viewBox="0 0 16 16"><path fill-rule="evenodd" d="m.874 8.413 1.91 2.098-.266 1.447c-.175.949.72 1.75 1.666 1.493l.792-.215a11.53 11.53 0 0 1 6.04 0l.791.215c.947.257 1.842-.545 1.667-1.493l-.266-1.438 1.918-2.107a1.54 1.54 0 0 0-.242-2.24L11.54 3.677a5.91 5.91 0 0 0-7.085.002l-3.34 2.495a1.54 1.54 0 0 0-.24 2.24M8.9 6a.9.9 0 1 1-1.8 0 .9.9 0 0 1 1.8 0M12 9.752a.75.75 0 0 1-.961.717l-.128-.037A10.4 10.4 0 0 0 8 9.996c-.981 0-1.962.157-2.913.436l-.126.037a.748.748 0 1 1-.423-1.435l.126-.037A11.9 11.9 0 0 1 8 8.5c1.141 0 2.264.184 3.334.497l.127.037c.32.094.539.386.539.718"/></svg>