<svg xmlns="http://www.w3.org/2000/svg" viewBox="0 0 16 16"><path d="M5.654 10.047a.6.6 0 0 1-.154-.383C5.498 9.316 5.842 9 6.285 9c.284 0 .541.148.775.31.465.32 1.395.315 1.868.006C9.17 9.158 9.43 9 9.72 9c.438 0 .783.316.78.664a.58.58 0 0 1-.146.37c-.41.489-.99.81-1.634.91A5 5 0 0 1 8 11a4.3 4.3 0 0 1-.849-.076 2.68 2.68 0 0 1-1.497-.877M6 5.6a.9.9 0 1 1 0 1.8.9.9 0 0 1 0-1.8m4.9.9a.9.9 0 1 0-1.8 0 .9.9 0 0 0 1.8 0"/><path fill-rule="evenodd" d="M2.054 6.616c.13-1.744.195-2.616 1.07-3.491s1.747-.94 3.491-1.07A19 19 0 0 1 8 2.001c.466 0 .933.02 1.385.054 1.744.13 2.616.195 3.491 1.07s.94 1.747 1.07 3.491c.034.452.054.919.054 1.385s-.02.933-.054 1.385c-.13 1.744-.195 2.616-1.07 3.491s-1.747.94-3.491 1.07C8.933 13.98 8.466 14 8 14s-.933-.02-1.385-.054c-1.744-.13-2.616-.195-3.491-1.07s-.94-1.747-1.07-3.491A19 19 0 0 1 2 8c0-.466.02-.933.054-1.385M6.727 3.55c.42-.031.85-.05 1.273-.05s.852.019 1.273.05c1.845.137 2.122.214 2.542.635.42.42.498.697.635 2.542.032.42.05.85.05 1.273s-.018.852-.05 1.273c-.137 1.845-.214 2.122-.635 2.542-.42.42-.697.498-2.542.635-.42.031-.85.05-1.273.05s-.852-.019-1.273-.05c-1.845-.137-2.122-.214-2.542-.635-.42-.42-.498-.697-.635-2.542A17 17 0 0 1 3.5 8c0-.423.019-.852.05-1.273.137-1.845.214-2.122.635-2.542.42-.42.697-.498 2.542-.635"/></svg>