<svg xmlns="http://www.w3.org/2000/svg" viewBox="0 0 24 24"><path fill-rule="evenodd" d="M3.081 9.925C3.276 7.309 3.373 6 4.686 4.688s2.62-1.41 5.237-1.605c.678-.05 1.377-.081 2.077-.081s1.399.03 2.077.081c2.616.195 3.924.292 5.237 1.605s1.41 2.62 1.605 5.237c.05.678.081 1.377.081 2.077s-.03 1.399-.081 2.077c-.195 2.616-.292 3.924-1.605 5.237s-2.62 1.41-5.237 1.605c-.678.05-1.377.081-2.077.081s-1.399-.03-2.077-.081c-2.616-.195-3.924-.292-5.237-1.605s-1.41-2.62-1.605-5.237A28 28 0 0 1 3 12.002c0-.7.03-1.4.081-2.077M8 14.883c0 .16.055.326.175.483a4.08 4.08 0 0 0 2.423 1.515c.437.084.92.122 1.402.12a8.5 8.5 0 0 0 1.218-.093 4 4 0 0 0 2.618-1.562.8.8 0 0 0 .164-.463c.005-.466-.446-.882-1.017-.882-.403 0-.763.23-1.068.494-.28.242-.626.38-.998.436a7 7 0 0 1-.917.07 5.3 5.3 0 0 1-1.023-.084 1.9 1.9 0 0 1-.906-.438C9.775 14.216 9.419 14 9.023 14c-.576 0-1.026.416-1.023.882M10.4 10a1.398 1.398 0 1 0-2.796 0 1.398 1.398 0 0 0 2.796 0m6 0a1.398 1.398 0 1 0-2.796 0 1.398 1.398 0 0 0 2.796 0"/></svg>