<svg xmlns="http://www.w3.org/2000/svg" viewBox="0 0 24 24"><path d="M8.175 15.366A.8.8 0 0 1 8 14.883c-.003-.466.447-.882 1.023-.882.396 0 .752.215 1.048.478.266.235.588.376.906.438.312.06.669.086 1.023.084.318-.003.635-.027.917-.07.372-.057.719-.194.999-.436.304-.264.664-.494 1.067-.494.571 0 1.021.416 1.017.882a.8.8 0 0 1-.164.463 4 4 0 0 1-2.618 1.562c-.383.058-.8.09-1.218.092a7.4 7.4 0 0 1-1.402-.12 4.07 4.07 0 0 1-2.423-1.514M9 8.75a1.25 1.25 0 1 1 0 2.5 1.25 1.25 0 0 1 0-2.5M16.25 10a1.25 1.25 0 1 0-2.5 0 1.25 1.25 0 0 0 2.5 0"/><path fill-rule="evenodd" d="M3.081 9.925C3.276 7.309 3.373 6 4.686 4.688s2.62-1.41 5.237-1.605c.678-.05 1.377-.081 2.077-.081s1.399.03 2.077.081c2.616.195 3.924.292 5.237 1.605s1.41 2.62 1.605 5.237c.05.678.081 1.377.081 2.077s-.03 1.399-.081 2.077c-.195 2.616-.292 3.924-1.605 5.237s-2.62 1.41-5.237 1.605c-.678.05-1.377.081-2.077.081s-1.399-.03-2.077-.081c-2.616-.195-3.924-.292-5.237-1.605s-1.41-2.62-1.605-5.237A28 28 0 0 1 3 12.002c0-.7.03-1.4.081-2.077m6.99-4.848A26 26 0 0 1 12 5.002c.642 0 1.292.028 1.929.075 2.75.205 3.265.319 3.97 1.025.707.706.82 1.22 1.025 3.971.048.637.076 1.287.076 1.929s-.028 1.291-.076 1.929c-.204 2.75-.318 3.265-1.024 3.97-.706.707-1.22.82-3.971 1.025-.637.048-1.287.076-1.929.076s-1.292-.028-1.929-.076c-2.75-.204-3.265-.318-3.97-1.024-.707-.706-.82-1.221-1.025-3.971A26 26 0 0 1 5 12.002c0-.642.028-1.292.076-1.929.204-2.75.318-3.265 1.024-3.97.706-.707 1.22-.82 3.971-1.026"/></svg>