<svg xmlns="http://www.w3.org/2000/svg" viewBox="0 0 44 44"><path fill-rule="evenodd" d="M4.118 4.123C.908 7.333.67 10.53.194 16.925a69 69 0 0 0-.198 5.078c0 1.71.075 3.42.198 5.078.476 6.394.714 9.592 3.924 12.801 3.209 3.21 6.406 3.448 12.801 3.924 1.658.123 3.368.198 5.078.198s3.42-.075 5.078-.198c6.395-.476 9.592-.714 12.802-3.924s3.447-6.407 3.923-12.801c.123-1.658.198-3.368.198-5.078s-.075-3.42-.198-5.078c-.476-6.395-.714-9.592-3.923-12.802S33.47.676 27.075.2a69 69 0 0 0-5.078-.198c-1.71 0-3.42.075-5.078.198-6.395.476-9.592.714-12.801 3.923m22.793 6.031c-1.272-.058-1.678-.072-4.915-.072s-3.643.014-4.914.072-2.136.26-2.894.554a5.8 5.8 0 0 0-2.111 1.375 5.8 5.8 0 0 0-1.375 2.111c-.295.758-.496 1.625-.554 2.894-.058 1.271-.072 1.677-.072 4.914 0 3.238.014 3.643.072 4.915.058 1.269.26 2.135.554 2.893a5.8 5.8 0 0 0 1.375 2.112 5.8 5.8 0 0 0 2.111 1.374c.758.295 1.625.496 2.893.554 1.272.058 1.678.072 4.915.072s3.643-.014 4.915-.072c1.268-.058 2.135-.259 2.893-.554a5.8 5.8 0 0 0 2.111-1.374 5.8 5.8 0 0 0 1.375-2.112c.295-.758.496-1.624.554-2.893.058-1.272.072-1.678.072-4.915s-.014-3.643-.072-4.914c-.058-1.269-.26-2.136-.554-2.894a5.8 5.8 0 0 0-1.375-2.111 5.8 5.8 0 0 0-2.111-1.375c-.758-.294-1.625-.496-2.893-.554M26.8 30H30v-6.753c0-2.858-1.67-4.24-3.934-4.24-2.262 0-3.266 1.762-3.266 1.762V19.6h-3.2V30h3.2v-5.6c0-1.5.785-2.392 2.107-2.392 1.215 0 1.893.857 1.893 2.393zM14 15.968c0 1.087.874 1.969 1.954 1.969a1.96 1.96 0 0 0 1.952-1.969A1.96 1.96 0 0 0 15.954 14c-1.08 0-1.954.882-1.954 1.968M18 30h-4V19.6h4z"/></svg>