<svg xmlns="http://www.w3.org/2000/svg" viewBox="0 0 24 24"><path fill-rule="evenodd" d="M2.246 2.249C.496 3.999.366 5.744.106 9.232a38 38 0 0 0-.108 2.77c0 .932.04 1.865.108 2.77.26 3.487.39 5.231 2.14 6.982 1.75 1.75 3.495 1.88 6.983 2.14.904.067 1.837.108 2.77.108.932 0 1.865-.04 2.77-.108 3.487-.26 5.231-.39 6.982-2.14 1.75-1.75 1.88-3.495 2.14-6.983.067-.904.108-1.837.108-2.77 0-.932-.04-1.865-.108-2.77C23.63 5.745 23.5 4 21.75 2.25S18.255.37 14.767.11a38 38 0 0 0-2.77-.108c-.932 0-1.865.04-2.77.108-3.485.26-5.229.39-6.98 2.14M14.68 5.54c-.694-.032-.915-.04-2.681-.04s-1.987.008-2.68.04c-.693.031-1.165.141-1.579.302a3.2 3.2 0 0 0-1.152.75 3.2 3.2 0 0 0-.75 1.151c-.16.414-.27.887-.302 1.579-.031.693-.039.915-.039 2.68s.008 1.987.04 2.68c.03.693.14 1.166.301 1.58.167.427.389.79.75 1.15a3.2 3.2 0 0 0 1.152.75c.414.161.886.271 1.578.303.694.032.915.039 2.68.039 1.767 0 1.988-.008 2.682-.04.691-.03 1.164-.14 1.578-.301a3.2 3.2 0 0 0 1.151-.75 3.2 3.2 0 0 0 .75-1.152c.161-.413.27-.886.302-1.578.032-.694.04-.915.04-2.68 0-1.767-.008-1.988-.04-2.681-.031-.692-.141-1.165-.302-1.579a3.2 3.2 0 0 0-.75-1.151 3.2 3.2 0 0 0-1.151-.75c-.414-.16-.887-.27-1.579-.302M14.4 16H16v-3.377c0-1.429-.835-2.12-1.967-2.12a1.93 1.93 0 0 0-1.633.882V10.8h-1.6V16h1.6v-2.8c0-.75.392-1.196 1.054-1.196.607 0 .946.428.946 1.196zM8 8.984a.98.98 0 0 0 .977.984.98.98 0 0 0 .976-.984A.98.98 0 0 0 8.977 8 .98.98 0 0 0 8 8.984M10 16H8v-5.2h2z"/></svg>