<svg xmlns="http://www.w3.org/2000/svg" viewBox="0 0 16 16"><path d="M13.558 2.543c-.344-.342-.751-.369-1.564-.423A61 61 0 0 0 8 2a62 62 0 0 0-3.994.12c-.814.054-1.22.081-1.565.423-.344.343-.37.707-.422 1.435a7 7 0 0 0 0 1.044c.052.728.078 1.092.422 1.434.344.343.751.37 1.564.424C4.955 6.942 6.291 7 8 7a62 62 0 0 0 3.993-.12c.813-.054 1.22-.081 1.564-.424s.37-.706.422-1.434a7 7 0 0 0 0-1.044c-.052-.728-.078-1.092-.422-1.435m.001 7c-.344-.342-.751-.369-1.564-.423A61 61 0 0 0 8 9a62 62 0 0 0-3.994.12c-.814.054-1.22.081-1.565.423-.344.343-.37.707-.422 1.435a7 7 0 0 0 0 1.044c.052.728.078 1.092.422 1.434.344.343.751.37 1.564.424.95.062 2.286.12 3.995.12a62 62 0 0 0 3.993-.12c.813-.054 1.22-.081 1.564-.424s.37-.706.422-1.434a7 7 0 0 0 0-1.045c-.052-.727-.078-1.091-.422-1.434"/></svg>