<svg xmlns="http://www.w3.org/2000/svg" viewBox="0 0 24 24"><path d="M19.376 4.809c-.537-.546-1.166-.586-2.424-.665A79 79 0 0 0 12 4a79 79 0 0 0-4.952.144c-1.259.08-1.888.119-2.425.665-.536.545-.562 1.104-.613 2.222a10 10 0 0 0 0 .938c.051 1.118.077 1.676.613 2.222.537.546 1.166.586 2.424.665C8.281 10.934 9.937 11 12 11a79 79 0 0 0 4.951-.144c1.258-.08 1.887-.119 2.423-.665.537-.546.563-1.104.614-2.222a10 10 0 0 0 0-.938c-.051-1.118-.077-1.677-.614-2.222m.002 9c-.537-.546-1.166-.586-2.424-.665A79 79 0 0 0 12 13c-2.062 0-3.718.066-4.952.144-1.259.08-1.888.119-2.424.665-.537.546-.563 1.104-.614 2.222a10 10 0 0 0 0 .938c.051 1.118.077 1.676.614 2.222.536.546 1.165.586 2.423.665C8.282 19.934 9.937 20 12 20a79 79 0 0 0 4.951-.144c1.258-.08 1.887-.119 2.424-.665s.562-1.104.613-2.221a10 10 0 0 0 0-.94c-.051-1.117-.077-1.676-.613-2.222"/></svg>