<svg xmlns="http://www.w3.org/2000/svg" viewBox="0 0 16 16"><path fill-rule="evenodd" d="m13.219 5.043-2.261-2.26a4 4 0 0 0-.284-.27 2.06 2.06 0 0 0-.916-.42c-.1-.018-.19-.024-.373-.038A19 19 0 0 0 8 2.001c-.466 0-.933.02-1.385.054-1.744.13-2.616.195-3.491 1.07s-.94 1.747-1.07 3.491C2.02 7.068 2 7.535 2 8.001s.02.933.054 1.385c.13 1.744.195 2.616 1.07 3.491s1.747.94 3.491 1.07C7.067 13.98 7.534 14 8 14s.933-.02 1.385-.054c1.744-.13 2.616-.195 3.491-1.07s.94-1.747 1.07-3.491C13.98 8.934 14 8.467 14 8s-.02-.933-.054-1.385a4 4 0 0 0-.038-.373 2.06 2.06 0 0 0-.42-.916 4 4 0 0 0-.27-.284M5 5.75A.75.75 0 0 1 5.75 5h2.5a.75.75 0 0 1 0 1.5h-2.5A.75.75 0 0 1 5 5.75m1.803 3.053c-.268.268-.279.518-.3 1.017a4 4 0 0 0 0 .36c.021.499.032.749.3 1.017s.518.279 1.017.3a5 5 0 0 0 .36 0c.499-.021.749-.032 1.017-.3s.279-.518.3-1.017a4 4 0 0 0 0-.36c-.021-.499-.032-.749-.3-1.017s-.518-.279-1.017-.3a4 4 0 0 0-.36 0c-.499.021-.749.032-1.017.3"/></svg>