<svg xmlns="http://www.w3.org/2000/svg" viewBox="0 0 16 16"><path d="M5 5.75A.75.75 0 0 1 5.75 5h2.5a.75.75 0 0 1 0 1.5h-2.5A.75.75 0 0 1 5 5.75m1.803 3.053c-.268.268-.279.518-.3 1.017a4 4 0 0 0 0 .36c.021.499.032.749.3 1.017s.518.279 1.017.3a5 5 0 0 0 .36 0c.499-.021.749-.032 1.017-.3s.279-.518.3-1.017a4 4 0 0 0 0-.36c-.021-.499-.032-.749-.3-1.017s-.518-.279-1.017-.3a4 4 0 0 0-.36 0c-.499.021-.749.032-1.017.3"/><path fill-rule="evenodd" d="m10.958 2.782 2.26 2.261c.138.137.206.206.27.284.21.257.362.59.42.916.018.1.024.19.038.373.034.452.054.919.054 1.385s-.02.933-.054 1.385c-.13 1.744-.195 2.616-1.07 3.491s-1.747.94-3.491 1.07C8.933 13.98 8.466 14 8 14s-.933-.02-1.385-.054c-1.744-.13-2.616-.195-3.491-1.07s-.94-1.747-1.07-3.491A19 19 0 0 1 2 8c0-.466.02-.933.054-1.385.13-1.744.195-2.616 1.07-3.491s1.747-.94 3.491-1.07A19 19 0 0 1 8 2.001c.466 0 .933.02 1.385.054.182.014.274.02.373.038.326.058.66.21.916.42.078.064.147.132.284.27m-1.685.769C8.853 3.52 8.423 3.5 8 3.5s-.852.019-1.273.05c-1.845.137-2.122.214-2.542.635-.42.42-.498.697-.635 2.542-.031.42-.05.85-.05 1.273s.019.852.05 1.273c.137 1.845.214 2.122.635 2.542.42.42.697.498 2.542.635.42.031.85.05 1.273.05s.852-.019 1.273-.05c1.845-.137 2.122-.214 2.542-.635.42-.42.498-.697.635-2.542.032-.42.05-.85.05-1.273a17 17 0 0 0-.065-1.459l-.004-.038a.6.6 0 0 0-.105-.229l-.005-.005-.023-.025-.14-.141-2.26-2.261-.167-.164-.005-.004a.6.6 0 0 0-.23-.105l-.037-.004z"/></svg>