<svg xmlns="http://www.w3.org/2000/svg" viewBox="0 0 44 44"><path fill-rule="evenodd" d="M8 24c0 3.05.139 5.822.338 8.232.067.82.129 1.562.2 2.243.724-.116 1.433-.151 2.088-.183l.387-.02C13.628 34.13 17.305 34 21.998 34c4.695 0 8.372.13 10.989.272l.387.02c.655.032 1.364.067 2.088.183.071-.681.132-1.424.2-2.242.2-2.41.338-5.184.338-8.233 0-4.985-.74-9.23-1.54-12.363-1.008-3.945-3.765-6.824-7.89-7.356A36 36 0 0 0 22 4a36 36 0 0 0-4.572.281c-4.121.533-6.879 3.41-7.886 7.352A50.2 50.2 0 0 0 8 24m17.5-6a1.5 1.5 0 0 0 0-3h-7a1.5 1.5 0 0 0 0 3zM24 25a1.5 1.5 0 0 0 0-3h-4a1.5 1.5 0 0 0 0 3z"/><path d="M6.874 38.441c-.49.502-.74.979-.874 1.559h32c-.134-.58-.384-1.057-.874-1.559-.97-.992-2.081-1.053-4.302-1.173-2.563-.14-6.187-.268-10.826-.268-4.638 0-8.26.129-10.823.268-2.22.12-3.33.18-4.3 1.173"/></svg>