<svg xmlns="http://www.w3.org/2000/svg" viewBox="0 0 16 16"><path d="M10 5.75a.75.75 0 0 1-.75.75h-2.5a.75.75 0 0 1 0-1.5h2.5a.75.75 0 0 1 .75.75m-.5 3a.75.75 0 0 1-.75.75h-1.5a.75.75 0 0 1 0-1.5h1.5a.75.75 0 0 1 .75.75"/><path fill-rule="evenodd" d="M13.159 13.732c.085-.431.13-.933.187-1.555.089-.988.153-2.144.153-3.427a19.2 19.2 0 0 0-.643-4.935c-.389-1.452-1.37-2.467-2.886-2.683A14 14 0 0 0 8 1c-.762 0-1.42.054-1.97.133-1.515.215-2.496 1.23-2.885 2.68a19.2 19.2 0 0 0-.644 4.937c0 1.283.065 2.439.154 3.426.056.623.101 1.125.187 1.556a1.1 1.1 0 0 0-.471.293c-.282.287-.345.551-.371.975h12c-.026-.424-.09-.688-.371-.975a1.1 1.1 0 0 0-.47-.293M4 8.75c0 1.233.062 2.344.148 3.292.068.756.12 1.219.195 1.537.92-.043 2.143-.079 3.655-.079 1.514 0 2.736.036 3.657.079.076-.319.127-.78.196-1.537.085-.948.147-2.06.147-3.292 0-1.854-.29-3.422-.592-4.547-.235-.877-.724-1.454-1.648-1.586A12.5 12.5 0 0 0 8 2.5c-.691 0-1.277.05-1.759.118-.924.13-1.412.708-1.647 1.584a17.7 17.7 0 0 0-.593 4.548"/></svg>