<svg xmlns="http://www.w3.org/2000/svg" viewBox="0 0 44 44"><path d="M25.5 18a1.5 1.5 0 0 0 0-3h-7a1.5 1.5 0 0 0 0 3zM24 25a1.5 1.5 0 0 0 0-3h-4a1.5 1.5 0 0 0 0 3z"/><path fill-rule="evenodd" d="M34.956 37.438c.39-1.39.526-3.027.706-5.205.2-2.41.338-5.184.338-8.233 0-4.985-.74-9.23-1.54-12.363-1.008-3.945-3.765-6.824-7.89-7.356A36 36 0 0 0 22 4a36 36 0 0 0-4.572.281c-4.121.533-6.879 3.41-7.886 7.352A50.2 50.2 0 0 0 8 24c0 3.05.139 5.822.338 8.232.18 2.179.315 3.816.706 5.206-.925.136-1.574.394-2.17 1.003-.49.502-.74.979-.874 1.559h32c-.134-.58-.384-1.057-.874-1.559-.596-.609-1.244-.867-2.17-1.003M11 24c0 2.959.134 5.649.328 7.985.189 2.293.31 3.607.61 4.66q.083.298.194.574c2.48-.12 5.778-.219 9.866-.219 4.09 0 7.389.1 9.87.219q.11-.276.194-.575c.3-1.052.42-2.366.61-4.658.194-2.337.328-5.027.328-7.986 0-4.69-.697-8.684-1.447-11.621-.706-2.764-2.453-4.747-5.367-5.123A33 33 0 0 0 22 7c-1.61 0-3.006.104-4.187.257-2.912.376-4.659 2.357-5.364 5.119A47.2 47.2 0 0 0 11 24"/></svg>