<svg xmlns="http://www.w3.org/2000/svg" viewBox="0 0 32 32"><path fill-rule="evenodd" d="M6 17.5c0 2.205.098 4.21.24 5.955q.034.438.069.838a18 18 0 0 1 1.085-.075l.29-.014c1.962-.106 4.745-.204 8.315-.204a156 156 0 0 1 8.606.218c.337.016.703.034 1.085.075l.07-.838c.141-1.744.24-3.75.24-5.955 0-3.604-.527-6.677-1.096-8.946-.717-2.856-2.722-4.978-5.711-5.36A25 25 0 0 0 15.999 3c-1.211 0-2.276.077-3.194.195-2.987.381-4.992 2.502-5.708 5.356A37 37 0 0 0 6 17.5m12.75-4a1.25 1.25 0 1 0 0-2.5h-5.5a1.25 1.25 0 0 0 0 2.5zm-1.5 5a1.25 1.25 0 1 0 0-2.5h-2.502a1.25 1.25 0 0 0 0 2.5z"/><path d="M4 29h24c-.08-.574-.253-.997-.697-1.45-.706-.72-1.511-.763-3.122-.85-1.919-.103-4.658-.2-8.183-.2s-6.262.097-8.18.2c-1.61.087-2.416.13-3.122.85-.444.452-.617.876-.696 1.45"/></svg>