<svg xmlns="http://www.w3.org/2000/svg" viewBox="0 0 16 16"><path fill-rule="evenodd" d="M8.001 1C6.367 1 4.502 3.656 4.502 6.6c0 1.095.7 4.9.7 4.9h5.6s.7-3.994.7-4.9c0-2.944-1.865-5.6-3.5-5.6m0 5.899a.9.9 0 1 0 .001-1.8.9.9 0 0 0 0 1.8"/><path d="M12.634 9.623q-.177 1.118-.372 2.234l.876.134a.75.75 0 0 0 .864-.741V9.706a2.75 2.75 0 0 0-1.023-2.14l-.048-.039a54 54 0 0 1-.297 2.096M3.025 7.566l.04-.033c.074.676.197 1.488.306 2.166q.174 1.08.371 2.157l-.876.135a.75.75 0 0 1-.864-.741V9.706a2.75 2.75 0 0 1 1.023-2.14m4.119 5.284a.9.9 0 0 0-.693-.35c-.595 0-.981.622-.625 1.098C6.471 14.462 7.26 15 8.001 15c.743 0 1.531-.539 2.177-1.401.356-.477-.03-1.099-.625-1.099a.91.91 0 0 0-.693.35c-.457.556-.81.65-.859.65s-.4-.093-.857-.65"/></svg>