<svg xmlns="http://www.w3.org/2000/svg" viewBox="0 0 24 24"><path fill-rule="evenodd" d="M11.999 2C9.664 2 7 5.794 7 10c0 1.565 1 7 1 7h8s1-5.706 1-7c0-4.206-2.664-8-5.001-8M12 10.25a1.25 1.25 0 1 0 0-2.5 1.25 1.25 0 0 0 0 2.5"/><path d="m17.982 17.278-.058.326 1.88.376A1 1 0 0 0 21 17v-2.5a4 4 0 0 0-1.6-3.2l-.462-.347c-.097.963-.293 2.264-.462 3.343a195 195 0 0 1-.462 2.796zM5.525 14.404c-.176-1.096-.376-2.427-.47-3.445l-.455.34A4 4 0 0 0 3 14.5V17a1 1 0 0 0 1.196.981l1.882-.376-.045-.242-.012-.065-.032-.18a144 144 0 0 1-.464-2.713m4.895 4.568c-.224-.284-.553-.473-.913-.473-.786 0-1.295.833-.829 1.473C9.585 21.22 10.701 22 11.75 22c1.05 0 2.165-.78 3.073-2.026.466-.641-.043-1.474-.83-1.474-.359 0-.688.189-.913.473-.67.85-1.212 1.017-1.33 1.017-.117 0-.658-.167-1.328-1.017"/></svg>