<svg xmlns="http://www.w3.org/2000/svg" viewBox="0 0 24 24"><path fill-rule="evenodd" d="M4.686 19.314c-1.313-1.313-1.41-2.62-1.605-5.237A28 28 0 0 1 3 12c0-.7.03-1.399.081-2.077.195-2.616.292-3.924 1.605-5.237s2.62-1.41 5.237-1.605C10.6 3.031 11.3 3 12 3s1.399.03 2.077.081c2.616.195 3.924.292 5.237 1.605s1.41 2.62 1.605 5.237C20.969 10.6 21 11.3 21 12s-.03 1.399-.081 2.077c-.195 2.616-.292 3.924-1.605 5.237s-2.62 1.41-5.237 1.605C13.4 20.969 12.7 21 12 21s-1.399-.03-2.077-.081c-2.616-.195-3.924-.292-5.237-1.605M12 13a1 1 0 0 0 1-1V8.002a1 1 0 1 0-2 0V12a1 1 0 0 0 1 1m1.248 3.001a1.249 1.249 0 1 0-2.498 0 1.249 1.249 0 0 0 2.498 0"/></svg>