<svg xmlns="http://www.w3.org/2000/svg" viewBox="0 0 16 16"><path fill-rule="evenodd" d="M11 4q0 .086-.004.172a3 3 0 1 1 1.658 5.756c.519 1.073.52 2.422-.421 3.504-1.186 1.362-2.997 1.292-4.234.486-1.237.806-3.048.876-4.234-.486-.94-1.082-.94-2.43-.42-3.504a3.001 3.001 0 1 1 1.662-5.755A3 3 0 1 1 11 4M9.5 4a1.5 1.5 0 1 1-2.998 0A1.5 1.5 0 0 1 9.5 4m-4 3a1.5 1.5 0 1 1-3 0 1.5 1.5 0 0 1 3 0M12 8.5a1.5 1.5 0 1 0 0-3 1.5 1.5 0 0 0 0 3m-.899 3.947c-.576.662-1.505.702-2.234.247a1.97 1.97 0 0 0-1.746.006c-.727.449-1.65.406-2.224-.253-.632-.726-.475-1.77.212-2.445q.246-.244.562-.523.179-.157.356-.285c.356-.256.699-.545.904-.933q.105-.2.188-.386C7.301 7.467 7.554 7 8 7s.7.467.88.875q.084.187.19.387c.205.388.548.677.904.934q.177.127.353.283.316.28.562.523c.687.675.844 1.719.212 2.445"/></svg>