<svg xmlns="http://www.w3.org/2000/svg" viewBox="0 0 24 24"><path fill-rule="evenodd" d="m16 6.5-.001.103A3.65 3.65 0 0 1 18 6c2.21 0 4 2.015 4 4.5 0 2.247-1.463 4.109-3.376 4.446.61 1.44.544 3.187-.692 4.595-1.665 1.896-4.214 1.771-5.932.61-1.717 1.162-4.268 1.286-5.932-.61-1.236-1.408-1.302-3.155-.692-4.595C3.463 14.609 2 12.746 2 10.5 2 8.015 3.79 6 6 6c.729 0 1.412.22 2.001.603L8 6.5C8 4.015 9.79 2 12 2s4 2.015 4 4.5m-2 0C14 8.109 12.89 9 12 9s-2-.891-2-2.5S11.11 4 12 4s2 .891 2 2.5m-6 4C8 12.109 6.89 13 6 13s-2-.891-2-2.5S5.11 8 6 8s2 .891 2 2.5M18 13c.89 0 2-.891 2-2.5S18.89 8 18 8s-2 .891-2 2.5 1.11 2.5 2 2.5M7.573 18.222c.89 1.014 2.363.998 3.433.181.308-.215.6-.403.994-.403.384 0 .675.177.975.389 1.071.83 2.557.853 3.452-.167.9-1.026.677-2.506-.3-3.458a21 21 0 0 0-.805-.742 6.5 6.5 0 0 0-.713-.544c-.371-.244-.726-.523-.97-.894a8 8 0 0 1-.238-.38c-.329-.564-.748-1.203-1.4-1.203-.654 0-1.073.639-1.402 1.202q-.108.185-.236.38c-.245.371-.6.65-.972.895a6.5 6.5 0 0 0-.713.544q-.453.397-.804.742c-.978.952-1.201 2.432-.301 3.458"/></svg>