<svg xmlns="http://www.w3.org/2000/svg" viewBox="0 0 16 16"><path d="M8 6.5c1.105 0 2-1.007 2-2.25S9.105 2 8 2 6 3.007 6 4.25 6.895 6.5 8 6.5M3.5 9c1.105 0 2-1.007 2-2.25s-.895-2.25-2-2.25-2 1.007-2 2.25S2.395 9 3.5 9m11-2.25c0 1.243-.895 2.25-2 2.25s-2-1.007-2-2.25.895-2.25 2-2.25 2 1.007 2 2.25M9.592 8.991c.155.258.374.468.612.652q.224.173.452.381.323.3.585.565c.866.877 1.04 2.242.252 3.186-.79.944-2.103.94-3.045.154a.7.7 0 0 0-.896 0c-.943.786-2.256.79-3.045-.154s-.614-2.309.251-3.186q.262-.266.586-.565.227-.208.45-.38c.239-.184.457-.394.612-.652q.114-.188.214-.371c.295-.544.76-1.116 1.38-1.116.618 0 1.084.572 1.379 1.116q.1.182.213.37"/></svg>