<svg xmlns="http://www.w3.org/2000/svg" viewBox="0 0 28 28"><path fill-rule="evenodd" d="M2.36 15.06c.57 1.694 1.827 2.973 3.768 4.95a33 33 0 0 0 2.067 1.923C10.58 23.978 11.772 25 14 25s3.42-1.022 5.805-3.067c.7-.6 1.403-1.246 2.067-1.923 1.942-1.977 3.198-3.256 3.768-4.95a7 7 0 0 0 .337-1.77c.018-.278.023-.558.023-.85q0-.313-.023-.62C25.686 8.001 22.73 5 19.128 5a6.47 6.47 0 0 0-3.664 1.144A7 7 0 0 0 13.99 7.5a7 7 0 0 0-1.48-1.349 6.46 6.46 0 0 0-3.64-1.128c-3.608 0-6.567 3.013-6.848 6.842a8 8 0 0 0-.022.598c0 .874.076 1.756.36 2.598m1.711-1.401c.232 1.56 1.108 2.53 3.484 4.95.62.632 1.277 1.235 1.942 1.806C11.982 22.546 12.627 23 14 23s2.018-.454 4.504-2.585c.665-.57 1.32-1.174 1.941-1.806 2.35-2.393 3.233-3.369 3.476-4.9.032-.422.079-.845.079-1.27C24 9.284 21.672 7 19.128 7c-1.389 0-2.676.652-3.592 1.768l-1.54 1.876-1.547-1.87c-.915-1.106-2.197-1.752-3.578-1.752C6.328 7.022 4 9.304 4 12.462c0 .4.042.799.071 1.197"/></svg>