<svg xmlns="http://www.w3.org/2000/svg" viewBox="0 0 16 16"><path d="M7.25 6.59a.75.75 0 1 0 1.5 0V4.75a.75.75 0 0 0-1.5 0zM8.9 9.1a.9.9 0 1 0-1.8 0 .9.9 0 0 0 1.8 0"/><path fill-rule="evenodd" d="M14.936 5.675c-.113-1.183-.17-1.774-.968-2.568-.799-.795-1.448-.853-2.747-.97C10.335 2.057 9.26 2 8 2s-2.336.057-3.221.137c-1.299.117-1.948.175-2.747.97s-.855 1.385-.968 2.566a14 14 0 0 0 0 2.654c.113 1.181.17 1.773.968 2.567.799.794 1.448.852 2.746.97a39 39 0 0 0 5.035.096l1.158.693c1.787 1.072 2.68 1.608 3.354 1.226.675-.382.675-1.424.675-3.506V6.986c0-.456-.025-.905-.064-1.311M13.5 6.988v3.385c0 .935-.003 1.544-.044 1.97-.387-.184-.91-.495-1.713-.976l-1.547-.928-.453.021a37 37 0 0 1-4.83-.09c-.698-.064-1.014-.099-1.26-.173-.165-.05-.318-.124-.563-.367-.262-.26-.33-.408-.372-.537-.067-.207-.1-.47-.16-1.11a12.5 12.5 0 0 1 0-2.367c.06-.64.093-.902.16-1.109.042-.129.11-.277.372-.537.245-.243.398-.317.563-.367.246-.074.562-.11 1.26-.172C5.754 3.555 6.783 3.5 8 3.5c1.216 0 2.245.055 3.086.13.699.064 1.015.099 1.261.173.165.05.318.124.563.367.262.26.33.408.372.538.067.206.1.469.16 1.11.036.364.057.764.058 1.17"/></svg>