<svg xmlns="http://www.w3.org/2000/svg" viewBox="0 0 32 32"><path fill-rule="evenodd" d="M16.378 3.132A47 47 0 0 0 12.775 3a47 47 0 0 0-3.603.132c-2.098.16-3.147.24-4.513 1.619-1.365 1.379-1.43 2.362-1.56 4.328q-.049.724-.05 1.51c0 .54-.01 1.139-.022 1.77-.068 3.823-.158 8.841 1.968 8.841 2.278 0 4.105-1.753 5.349-3.02h2.43c1.359 0 2.56-.053 3.606-.133 2.097-.16 3.145-.24 4.51-1.618 1.365-1.38 1.43-2.362 1.56-4.326a23 23 0 0 0 0-3.026c-.13-1.965-.195-2.948-1.56-4.326-1.365-1.38-2.413-1.46-4.51-1.62m-5.267 21.097c-.737-.744-1.095-1.373-1.289-2.102q.366-.36.69-.695h2.917c2.101 0 3.891-.105 5.367-.252 2.137-.212 3.205-.319 4.517-1.625s1.419-2.334 1.632-4.39a29 29 0 0 0 .137-3.957c.816.198 1.488.563 2.26 1.343 1.365 1.379 1.43 2.362 1.56 4.328q.049.724.05 1.51c0 .54.01 1.138.022 1.77.068 3.823.158 8.841-1.968 8.841-2.278 0-4.105-1.753-5.349-3.02h-2.43c-1.359 0-2.56-.053-3.606-.133-2.097-.16-3.145-.24-4.51-1.618"/></svg>