<svg xmlns="http://www.w3.org/2000/svg" viewBox="0 0 44 44"><path fill-rule="evenodd" d="M23.677 4.226A68 68 0 0 0 18.034 4c-2.154 0-4.035.09-5.64.225-2.85.24-4.274.359-6.088 2.18-1.814 1.823-1.92 3.164-2.133 5.847a33 33 0 0 0-.104 2.59c0 .77-.016 1.626-.032 2.529C3.94 22.831 3.811 30 6.863 30c3.271 0 5.895-2.505 7.68-4.315h3.492c2.154 0 4.036-.091 5.642-.226 2.848-.239 4.272-.358 6.085-2.18 1.814-1.821 1.92-3.162 2.134-5.844a33 33 0 0 0 0-5.185c-.213-2.682-.32-4.023-2.134-5.844s-3.238-1.942-6.085-2.18m-9.44 29.053c-.72-.724-1.171-1.372-1.466-2.058.875-.732 1.654-1.51 2.329-2.2h3.989c2.926 0 5.41-.148 7.449-.353 2.885-.29 4.328-.435 6.09-2.188 1.763-1.752 1.91-3.137 2.204-5.905a37.6 37.6 0 0 0 .175-5.863c.952.287 1.77.772 2.687 1.694 1.814 1.822 1.92 3.163 2.133 5.846.065.818.104 1.685.104 2.59 0 .77.016 1.626.032 2.529C40.06 32.831 40.19 40 37.137 40c-3.271 0-5.895-2.505-7.68-4.315h-3.492c-2.154 0-4.036-.091-5.642-.226-2.848-.239-4.271-.358-6.085-2.18"/></svg>