<svg xmlns="http://www.w3.org/2000/svg" viewBox="0 0 32 32"><path fill-rule="evenodd" d="m9.072 17.14.636-.645h3.428c1.495 0 2.794-.064 3.894-.156s1.615-.146 2.024-.271c.291-.09.576-.23 1.017-.673.456-.458.59-.737.67-.993.116-.37.163-.83.246-1.87a21.5 21.5 0 0 0 0-3.402c-.083-1.041-.13-1.5-.245-1.87-.08-.256-.215-.535-.671-.994l1.535-1.529c1.31 1.316 1.387 2.284 1.541 4.221a23.6 23.6 0 0 1 0 3.745c-.154 1.937-.231 2.905-1.541 4.22-1.31 1.316-2.338 1.403-4.395 1.575-1.16.098-2.519.163-4.075.163h-2.521c-1.29 1.308-3.185 3.117-5.547 3.117-2.205 0-2.112-5.178-2.041-9.121.012-.652.023-1.27.023-1.826 0-.654.028-1.28.075-1.871.154-1.938.23-2.907 1.54-4.223s2.34-1.402 4.397-1.574A49 49 0 0 1 13.136 3c1.556 0 2.915.066 4.075.163 2.057.172 3.085.259 4.395 1.574l-1.535 1.53c-.441-.443-.726-.585-1.017-.674-.41-.125-.923-.179-2.024-.271a47 47 0 0 0-3.894-.155 47 47 0 0 0-3.893.155c-1.101.092-1.616.146-2.025.271-.291.09-.576.23-1.017.673-.456.459-.591.738-.67.994-.116.37-.164.83-.246 1.872a22 22 0 0 0-.069 1.699c0 .637-.012 1.306-.024 1.99-.03 1.603-.06 3.279.063 4.775.063.775.16 1.364.272 1.776a.2.2 0 0 0 .245.141c.404-.11.826-.312 1.276-.61.726-.48 1.387-1.117 2.024-1.763m1.322 7.006a6 6 0 0 1-.51-.572 1.085 1.085 0 0 1 .818-1.797c.377 0 .71.192.904.482.085.107.19.225.323.358.441.443.726.584 1.017.673.41.126.923.179 2.024.271s2.399.156 3.894.156h3.427l.637.645c.637.646 1.298 1.283 2.024 1.763.45.298.872.5 1.276.61a.2.2 0 0 0 .245-.14c.112-.413.209-1.001.272-1.777.122-1.496.092-3.172.063-4.776-.012-.682-.024-1.352-.024-1.99 0-.591-.026-1.16-.069-1.698-.082-1.042-.13-1.502-.245-1.872-.08-.256-.214-.535-.67-.994l-.037-.035c-.23-.2-.374-.494-.374-.822a1.083 1.083 0 0 1 1.899-.716h.001l.045.045c1.31 1.315 1.387 2.284 1.541 4.222.047.59.075 1.217.075 1.87 0 .556.011 1.175.023 1.827.07 3.943.164 9.121-2.04 9.121-2.363 0-4.258-1.81-5.548-3.117h-2.52c-1.557 0-2.916-.065-4.076-.162-2.057-.173-3.085-.26-4.395-1.575"/></svg>