<svg xmlns="http://www.w3.org/2000/svg" viewBox="0 0 24 24"><path fill-rule="evenodd" d="M5.359 7.773 2.293 4.707a1 1 0 0 1 1.414-1.414l17 17a1 1 0 0 1-1.414 1.414l-2.75-2.749c-.927.04-2.019.042-3.294.042h-2.493c-4.393 0-6.607-.03-7.46-1.484-.557-.95-.3-2.104.541-3.854.449-.932.673-1.398.776-1.684l.013-.036c.051-.14.077-.21.098-.282s.039-.144.073-.29l.01-.037c.07-.296.161-.975.343-2.333q.088-.652.209-1.227M14.586 17h-3.828c-2.259 0-3.73-.013-4.75-.173-.49-.076-.747-.17-.877-.238-.089-.046-.102-.07-.109-.082l-.001-.003a.1.1 0 0 1-.017-.047 1 1 0 0 1 .013-.253c.053-.335.226-.851.623-1.675l.074-.155c.378-.785.641-1.331.78-1.716l.017-.045q.068-.185.13-.38.056-.196.1-.388l.01-.047c.095-.397.196-1.15.348-2.285zm3.965-2.06c.1.225.237.433.41.607.893.893 2.15.506 1.719-.68q-.199-.546-.51-1.19c-.451-.94-.677-1.41-.78-1.697l-.014-.038c-.05-.137-.074-.206-.095-.276s-.038-.14-.072-.282l-.01-.04c-.07-.297-.162-.98-.345-2.344a16.7 16.7 0 0 0-.68-3c-.504-1.528-1.272-2.667-2.779-3.324C14.551 2.31 13.42 2 12.002 2s-2.548.309-3.393.676a5 5 0 0 0-.75.404c-.45.298-.44.926-.058 1.307.398.398 1.053.372 1.566.141l.04-.018c.616-.268 1.476-.51 2.595-.51s1.979.242 2.595.51c.817.356 1.285.927 1.677 2.116.228.692.456 1.58.598 2.639l.032.24c.153 1.146.255 1.906.35 2.306l.012.047c.03.124.06.254.099.381.037.127.083.252.126.372l.017.046c.139.387.404.938.784 1.729l.075.156q.102.213.184.398M13 20h-2a1 1 0 1 0 0 2h2a1 1 0 1 0 0-2"/></svg>