<svg xmlns="http://www.w3.org/2000/svg" viewBox="0 0 16 16"><path fill-rule="evenodd" d="M13.09 8.063c.101.258.267.642.518 1.225l.068.163c.374.917-.552 1.239-1.267.554a1.5 1.5 0 0 1-.33-.475 34 34 0 0 1-.385-.92 5.2 5.2 0 0 1-.296-1.12c-.052-.328-.116-.811-.205-1.475l-.004-.027a10 10 0 0 0-.472-1.989c-.233-.654-.536-.976-1.094-1.201A4.3 4.3 0 0 0 8.002 2.5c-.688 0-1.226.138-1.621.298a3 3 0 0 0-.192.086c-.4.202-.937.277-1.262-.031-.268-.255-.304-.68-.018-.916.257-.212.557-.388.91-.53A5.8 5.8 0 0 1 8.002 1c.895 0 1.622.18 2.183.407 1.003.405 1.586 1.082 1.945 2.088.205.577.42 1.354.546 2.294.092.687.155 1.157.204 1.468.045.286.106.538.21.806m-8.422-.995L8.778 11h-1.49c-1.552 0-2.544-.004-3.23-.106-.328-.049-.487-.107-.556-.143H3.5l.003-.039c.014-.14.078-.393.272-.84l.015-.036c.236-.546.408-.945.518-1.224.154-.393.24-.752.297-1.121q.03-.18.063-.423m-1.34-1.282v.003c-.093.689-.155 1.158-.204 1.468a3.7 3.7 0 0 1-.212.806c-.1.256-.265.636-.514 1.214-.432.998-.535 1.673-.196 2.245.581.978 2.083.978 5.086.978h1.424q.9.002 1.627-.008l2.143 2.05a.75.75 0 0 0 1.036-1.084l-11.5-11A.75.75 0 0 0 .982 3.542zm3.24 8.46a.75.75 0 0 1 .75-.75h1.366a.75.75 0 0 1 0 1.5H7.317a.75.75 0 0 1-.75-.75"/></svg>