<svg xmlns="http://www.w3.org/2000/svg" viewBox="0 0 16 16"><path fill-rule="evenodd" d="m6.014 9.013-.183.181a.5.5 0 0 1-.705 0l-.493-.489a.49.49 0 0 1 0-.698l.18-.18c-.163-.26-.243-.4-.223-.705.022-.317.154-.477.42-.797.394-.475 1.01-1.17 1.884-2.037A29 29 0 0 1 8.95 2.419c.322-.263.483-.395.803-.416s.461.066.744.24c.205.126.425.289.634.496.208.206.372.425.499.628.176.28.264.42.242.738-.021.317-.154.477-.42.796q-.226.277-.557.646.246.141.506.35c.84.682 1.635 1.883 1.808 3.923.035.414.044.992.042 1.54-.005 1.486-1.24 2.64-2.706 2.64H5.988a1.736 1.736 0 0 1-1.744-1.729v-.248l-.747.001a.744.744 0 0 1-.747-.74c0-.41.335-.742.747-.742h2.989c.413 0 .747.332.747.741 0 .41-.334.741-.747.741h-.747v.247c0 .136.111.247.249.247h4.556c.677 0 1.21-.526 1.211-1.164a18 18 0 0 0-.036-1.41c-.142-1.68-.767-2.496-1.265-2.9-.23-.187-.452-.3-.623-.37l-.263.265a29 29 0 0 1-2.055 1.868c-.322.263-.484.395-.803.416-.301.02-.444-.056-.696-.21"/></svg>