<svg xmlns="http://www.w3.org/2000/svg" viewBox="0 0 24 24"><path fill-rule="evenodd" d="m14.656 10.078-.308.31a48 48 0 0 1-2.816 2.627c-.618.528-.928.792-1.62.816-.413.015-.663-.04-.897-.161l-.302.303a.745.745 0 0 1-1.056 0l-.768-.77a.75.75 0 0 1 0-1.061l.29-.29c-.142-.252-.208-.51-.192-.957.025-.695.288-1.005.813-1.626a48 48 0 0 1 2.617-2.827 48 48 0 0 1 2.817-2.627c.618-.528.927-.791 1.619-.816s.927.148 1.396.494a4.9 4.9 0 0 1 1.037 1.041c.344.47.517.706.492 1.401s-.287 1.005-.813 1.626q-.361.428-.852.972c.323.169.674.39 1.03.68 1.287 1.052 2.522 2.916 2.792 6.12.045.537.062 1.18.065 1.804.01 2.19-1.794 3.863-3.906 3.863H8.98c-1.1 0-1.993-.895-1.993-2v-1H4.996A1 1 0 0 1 4 17c0-.552.446-1 .996-1h5.977c.55 0 .996.448.996 1s-.446 1-.996 1H8.981v1h7.113c1.077 0 1.918-.841 1.914-1.854a22 22 0 0 0-.058-1.645c-.229-2.713-1.235-4.058-2.065-4.736a4 4 0 0 0-1.23-.687"/></svg>