<svg xmlns="http://www.w3.org/2000/svg" viewBox="0 0 44 44"><path fill-rule="evenodd" d="M30.27 11.718c-.99 1.18-2.496 2.871-4.597 4.973-2.101 2.1-3.793 3.605-4.973 4.595-.25.208-.41.342-.548.45l-.117.087-.072-.046c-.07-.045-.145-.096-.245-.163a5.5 5.5 0 0 1-.834-.68 5.5 5.5 0 0 1-.68-.834l-.164-.245-.046-.072.088-.117c.108-.139.241-.299.45-.547.99-1.18 2.495-2.872 4.596-4.972s3.793-3.606 4.974-4.596c.249-.208.408-.342.547-.449l.117-.088.071.046c.07.045.146.096.246.163.286.191.57.417.834.68s.49.549.681.835l.163.245.046.071q-.031.044-.088.117c-.108.139-.24.299-.45.547m-14.849 9.61c-.323-.52-.476-.927-.433-1.718.054-1 .45-1.472 1.245-2.419 1.046-1.246 2.61-3.002 4.774-5.165s3.92-3.728 5.167-4.773c.946-.793 1.42-1.19 2.418-1.244s1.385.203 2.158.72a8.5 8.5 0 0 1 1.289 1.053c.42.421.769.863 1.054 1.289.516.773.774 1.159.72 2.157-.054.999-.451 1.472-1.245 2.418a69 69 0 0 1-1.988 2.262q.195.188.436.434a19.4 19.4 0 0 1 2.237 2.807 19.6 19.6 0 0 1 3.247 10.85v.502a7.5 7.5 0 0 1-7.5 7.5H15.5a2.5 2.5 0 0 1-2.5-2.5v-3H9a1.5 1.5 0 1 1 0-3h10a1.5 1.5 0 0 1 0 3h-3v2.5h13a4.5 4.5 0 0 0 4.5-4.5V30a16.6 16.6 0 0 0-2.753-9.202 16.4 16.4 0 0 0-1.888-2.37 13 13 0 0 0-.344-.344q-.35.356-.72.728c-2.165 2.163-3.92 3.727-5.167 4.772-.947.794-1.42 1.19-2.42 1.245-.787.043-1.194-.109-1.71-.428l-.677.677a1.2 1.2 0 0 1-1.698 0L14.745 23.7a1.2 1.2 0 0 1 0-1.697z"/></svg>