<svg xmlns="http://www.w3.org/2000/svg" viewBox="0 0 44 44"><path fill-rule="evenodd" d="M15.421 21.327c-.323-.52-.476-.926-.433-1.718.054-.998.45-1.471 1.245-2.418 1.046-1.246 2.61-3.002 4.774-5.165s3.92-3.728 5.167-4.773c.946-.793 1.42-1.19 2.418-1.244s1.385.203 2.158.72a8.5 8.5 0 0 1 1.289 1.053c.42.421.769.863 1.054 1.289.516.773.774 1.159.72 2.157-.054.999-.451 1.472-1.245 2.418a69 69 0 0 1-1.988 2.262q.195.188.436.434a19.4 19.4 0 0 1 2.237 2.807 19.6 19.6 0 0 1 3.247 10.85v.503a7.5 7.5 0 0 1-7.5 7.5H15.5a2.5 2.5 0 0 1-2.5-2.5v-3H9a1.5 1.5 0 1 1 0-3h10a1.5 1.5 0 0 1 0 3h-3v2.5h13a4.5 4.5 0 0 0 4.5-4.5V30a16.6 16.6 0 0 0-2.753-9.202 16.4 16.4 0 0 0-1.888-2.37 13 13 0 0 0-.344-.344q-.35.356-.72.728c-2.165 2.163-3.92 3.727-5.167 4.772-.947.794-1.42 1.19-2.42 1.245-.787.043-1.194-.109-1.71-.428l-.677.677a1.2 1.2 0 0 1-1.698 0L14.745 23.7a1.2 1.2 0 0 1 0-1.697z"/></svg>