<svg xmlns="http://www.w3.org/2000/svg" viewBox="0 0 16 16"><path d="M13.265 7.988a.726.726 0 0 0 .734-.75 25 25 0 0 0-.333-3.019c-.125-.731-.187-1.097-.488-1.397-.3-.3-.666-.363-1.397-.488a25 25 0 0 0-3.03-.333.726.726 0 0 0-.75.734c0 .414.335.749.75.768.86.04 1.71.142 2.42.253L6.555 8.383a.75.75 0 1 0 1.062 1.061l4.624-4.636c.112.713.215 1.561.256 2.43a.78.78 0 0 0 .768.75m-8.866 2.028a5.4 5.4 0 0 0-.798 0l-.055.004c-.416.03-.79.057-1.13.397s-.366.713-.396 1.129l-.004.055a5.4 5.4 0 0 0 0 .798l.004.055c.03.416.057.79.397 1.13s.713.366 1.129.396l.055.004a5.4 5.4 0 0 0 .798 0l.055-.004c.416-.03.79-.057 1.13-.397s.366-.713.396-1.129l.004-.055a5.4 5.4 0 0 0 0-.798l-.004-.055c-.03-.416-.057-.79-.397-1.13s-.713-.366-1.129-.396z"/></svg>