<svg xmlns="http://www.w3.org/2000/svg" viewBox="0 0 44 44"><path d="M35.437 15.56a1.5 1.5 0 0 0 2.122-2.12L35.119 11l.94-.94a1.5 1.5 0 0 0-2.122-2.12l-.939.939-2.44-2.44a1.5 1.5 0 1 0-2.12 2.122z"/><path fill-rule="evenodd" d="M36.047 19.305a124 124 0 0 0-5.509-5.845 124 124 0 0 0-5.845-5.509c-1.761-1.545-4.29-2.316-6.103-.833a6.2 6.2 0 0 0-.88.88c-1.483 1.814-.713 4.342.833 6.103q.97 1.11 2.375 2.614l-4.205 4.205a107 107 0 0 0-2.614-2.376c-1.76-1.544-4.287-2.315-6.1-.833a6.2 6.2 0 0 0-.884.883c-1.482 1.813-.71 4.34.834 6.1a124 124 0 0 0 5.509 5.847 124 124 0 0 0 5.845 5.508c1.761 1.545 4.29 2.316 6.103.833a6.2 6.2 0 0 0 .88-.88c1.484-1.814.713-4.342-.833-6.103a107 107 0 0 0-2.376-2.615l4.205-4.205c1.002.94 1.877 1.729 2.615 2.377 1.76 1.544 4.287 2.315 6.1.833a6.2 6.2 0 0 0 .884-.883c1.482-1.813.71-4.34-.834-6.1m-1.947 4.66c-.097.08-.24.163-.623.092-.443-.082-1.038-.363-1.6-.857-1.4-1.23-3.329-3-5.704-5.376a121 121 0 0 1-5.375-5.702c-.494-.563-.775-1.158-.857-1.602-.071-.383.012-.526.092-.624a3.2 3.2 0 0 1 .457-.457c.098-.08.24-.163.624-.092.444.083 1.038.364 1.601.858 1.4 1.23 3.328 3 5.703 5.375a121 121 0 0 1 5.375 5.703c.494.563.775 1.157.858 1.6.07.383-.012.526-.092.624a3.3 3.3 0 0 1-.459.458m-11.103-5.085A147 147 0 0 0 25.117 21L21 25.12a153 153 0 0 0-2.121-2.121zm-13.1 1.153c.098-.08.24-.163.624-.092.444.082 1.038.363 1.6.857 1.4 1.23 3.329 3 5.704 5.376a121 121 0 0 1 5.375 5.703c.494.562.775 1.157.857 1.6.071.384-.012.527-.092.625a3.2 3.2 0 0 1-.457.457c-.098.08-.24.163-.624.092-.444-.083-1.038-.364-1.601-.858-1.4-1.23-3.328-3-5.703-5.375a121 121 0 0 1-5.375-5.703c-.494-.563-.775-1.157-.857-1.6-.072-.383.011-.526.091-.624a3.2 3.2 0 0 1 .459-.458"/><path d="M8.559 28.44a1.5 1.5 0 0 0-2.122 2.12L8.877 33l-.94.94a1.5 1.5 0 0 0 2.122 2.12l.939-.939 2.44 2.44a1.5 1.5 0 0 0 2.12-2.122z"/></svg>