<svg xmlns="http://www.w3.org/2000/svg" viewBox="0 0 17 17"><path d="M13.518 6.174a.794.794 0 1 0 1.123-1.123l-.786-.785.233-.233a.794.794 0 1 0-1.123-1.122l-.232.232-.786-.786a.794.794 0 1 0-1.123 1.123l1.34 1.34.008.007.007.007z"/><path fill-rule="evenodd" d="M13.842 7.408a42 42 0 0 0-2.057-2.196A42 42 0 0 0 9.59 3.155c-.719-.623-1.74-.878-2.486-.287a3.2 3.2 0 0 0-.51.51c-.592.746-.336 1.767.287 2.487q.187.216.416.47l-.912.911q-.249-.223-.463-.408c-.724-.626-1.751-.876-2.502-.282a3.3 3.3 0 0 0-.538.538c-.594.751-.344 1.778.282 2.502a42 42 0 0 0 2.05 2.19 42 42 0 0 0 2.189 2.049c.724.626 1.752.876 2.504.282a3.3 3.3 0 0 0 .536-.537c.594-.75.344-1.778-.282-2.503a33 33 0 0 0-.408-.463l.911-.911q.254.228.47.415c.719.622 1.74.878 2.485.287a3.2 3.2 0 0 0 .511-.511c.591-.746.336-1.767-.287-2.486m-.966 1.512-.004-.036a.95.95 0 0 0-.23-.437 41 41 0 0 0-1.98-2.113A41 41 0 0 0 8.55 4.355a.95.95 0 0 0-.437-.23l-.036-.003a1.6 1.6 0 0 0-.23.23q0 .013.003.037c.015.096.08.263.23.436a41 41 0 0 0 1.98 2.113c.87.87 1.584 1.522 2.112 1.98.173.15.34.215.436.23l.037.003a1.6 1.6 0 0 0 .23-.231M8.38 7.496a50 50 0 0 0 1.123 1.122l-.835.835a50 50 0 0 0-1.123-1.122zm-4.249.576.003.046c.015.1.08.267.23.44.456.527 1.105 1.24 1.97 2.106a40 40 0 0 0 2.106 1.97c.173.15.341.215.44.23l.047.003a1.7 1.7 0 0 0 .265-.265l-.003-.047a.95.95 0 0 0-.23-.44 40 40 0 0 0-1.97-2.105 40 40 0 0 0-2.106-1.97.95.95 0 0 0-.44-.23l-.046-.004a1.7 1.7 0 0 0-.266.266"/><path d="M3.48 10.824a.794.794 0 1 0-1.123 1.123l.786.786-.232.232a.794.794 0 1 0 1.123 1.122l.232-.232.785.786a.794.794 0 1 0 1.123-1.123L4.85 12.196l-.048-.049z"/></svg>