<svg xmlns="http://www.w3.org/2000/svg" viewBox="0 0 32 32"><path d="M25.848 11.148a1.26 1.26 0 0 0 1.783-1.783l-1.613-1.613.61-.609a1.25 1.25 0 0 0-1.767-1.766l-.61.609-1.616-1.617a1.26 1.26 0 1 0-1.783 1.783z"/><path fill-rule="evenodd" d="M22.326 9.737a91 91 0 0 1 4.041 4.288c1.134 1.291 1.699 3.145.612 4.475a4.6 4.6 0 0 1-.648.648c-1.33 1.087-3.184.522-4.475-.611q-.703-.616-1.624-1.469l-3.168 3.168a76 76 0 0 1 1.409 1.56c1.134 1.292 1.699 3.147.61 4.477a4.6 4.6 0 0 1-.645.646c-1.33 1.088-3.185.522-4.477-.611a91 91 0 0 1-4.287-4.041 91 91 0 0 1-4.041-4.288c-1.134-1.291-1.699-3.145-.612-4.475a4.6 4.6 0 0 1 .648-.648c1.33-1.087 3.184-.522 4.475.611q.703.615 1.623 1.468l3.168-3.168a77 77 0 0 1-1.408-1.56c-1.133-1.29-1.699-3.146-.61-4.476a4.6 4.6 0 0 1 .645-.646c1.33-1.088 3.185-.522 4.477.611a91 91 0 0 1 4.287 4.041m-4.758 4.759q-.475-.476-.91-.92l-3.083 3.084a108 108 0 0 1 1.765 1.767l3.084-3.084q-.414-.405-.856-.848m2.975-2.976a89 89 0 0 1 3.93 4.169c.332.378.506.763.554 1.02.033.18.007.205-.105.316l-.034.033-.026.027c-.114.114-.143.144-.322.111-.257-.048-.642-.222-1.02-.555a89 89 0 0 1-4.17-3.928 89 89 0 0 1-3.928-4.168c-.332-.38-.507-.764-.554-1.022-.034-.178-.004-.208.11-.321l.028-.027.026-.027c.114-.114.143-.144.322-.111.258.048.643.222 1.021.555a89 89 0 0 1 4.168 3.928m-9.086 8.964a89 89 0 0 1-3.93-4.169c-.332-.378-.506-.763-.554-1.02-.03-.167.023-.233.139-.349l.015-.015c.109-.11.155-.156.333-.123.257.048.642.222 1.02.555a89 89 0 0 1 4.17 3.928 89 89 0 0 1 3.928 4.168c.332.38.506.764.554 1.022.034.178.003.208-.11.321l-.028.027-.026.027c-.114.114-.143.144-.322.111-.258-.048-.643-.222-1.022-.555a89 89 0 0 1-4.167-3.928"/><path d="M6.152 20.856a1.26 1.26 0 1 0-1.783 1.783l1.615 1.615-.607.607a1.249 1.249 0 1 0 1.766 1.766l.607-.607 1.615 1.615a1.26 1.26 0 0 0 1.783-1.783z"/></svg>