<svg xmlns="http://www.w3.org/2000/svg" viewBox="0 0 24 24"><path d="M19.293 8.707a1 1 0 1 0 1.414-1.414L19.414 6l.293-.293a1 1 0 0 0-1.414-1.414L18 4.586l-1.293-1.293a1 1 0 1 0-1.414 1.414z"/><path fill-rule="evenodd" d="M9.562 4.465c-.818 1.01-.413 2.41.442 3.388q.386.444.899 1.001L8.888 10.87a54 54 0 0 0-.995-.893c-.982-.858-2.387-1.258-3.401-.439a3.8 3.8 0 0 0-.561.561c-.82 1.015-.42 2.42.439 3.401.69.79 1.669 1.858 2.97 3.16a65 65 0 0 0 3.16 2.97c.982.859 2.388 1.26 3.402.439a3.7 3.7 0 0 0 .56-.56c.82-1.014.42-2.42-.44-3.402a53 53 0 0 0-.891-.995l2.015-2.014q.556.511 1 .898c.978.855 2.378 1.26 3.387.442a3.7 3.7 0 0 0 .544-.544c.818-1.01.413-2.409-.442-3.387a65 65 0 0 0-2.978-3.165 65 65 0 0 0-3.164-2.977c-.978-.855-2.379-1.26-3.388-.442a3.7 3.7 0 0 0-.543.543m2.717 5.841a79 79 0 0 0 1.414 1.415l-1.938 1.938a81 81 0 0 0-1.414-1.414zm5.85 1.517a63 63 0 0 0-2.886-3.067 63 63 0 0 0-3.067-2.886c-.27-.237-.54-.354-.713-.385a.5.5 0 0 0-.101-.007 1.7 1.7 0 0 0-.244.244l-.001.017.008.083c.03.173.148.444.385.714a64 64 0 0 0 2.886 3.067 64 64 0 0 0 3.067 2.887c.27.236.54.353.713.384a.5.5 0 0 0 .097.008h.004a1.7 1.7 0 0 0 .244-.245l.001-.017-.008-.084c-.03-.172-.148-.443-.384-.713M5.752 11.09a2 2 0 0 0-.266.266.4.4 0 0 0 .006.11c.031.174.148.446.385.717.66.756 1.609 1.79 2.879 3.06a63 63 0 0 0 3.06 2.88c.271.236.543.353.718.384a.4.4 0 0 0 .11.006 2 2 0 0 0 .263-.263.4.4 0 0 0-.005-.112c-.03-.174-.148-.446-.384-.717a63 63 0 0 0-2.88-3.06 63 63 0 0 0-3.06-2.88c-.27-.236-.542-.353-.717-.384a.4.4 0 0 0-.11-.007"/><path d="M4.707 15.293a1 1 0 0 0-1.414 1.414L4.586 18l-.293.293a1 1 0 1 0 1.414 1.414L6 19.414l1.293 1.293a1 1 0 0 0 1.414-1.414z"/></svg>