<svg xmlns="http://www.w3.org/2000/svg" viewBox="0 0 17 17"><path fill-rule="evenodd" d="M8.499 7.437a3.187 3.187 0 1 0 0-6.374 3.187 3.187 0 0 0 0 6.374m0-1.593a1.594 1.594 0 1 0 0-3.188 1.594 1.594 0 0 0 0 3.188"/><path d="M8.499 8.5c.637 0 1.243.032 1.804.083a.797.797 0 1 1-.171 1.583 18.5 18.5 0 0 0-3.85.06c-.707.085-1.025.13-1.273.21-.164.054-.315.13-.554.37-.236.238-.312.39-.366.564-.081.258-.125.59-.205 1.312q-.032.285-.06.599l1.753-.001a.797.797 0 1 1 0 1.593l-3.452.002a35 35 0 0 1 .175-2.37c.15-1.344.225-2.016 1.023-2.82.799-.806 1.456-.884 2.77-1.04A20 20 0 0 1 8.5 8.498"/><path fill-rule="evenodd" d="M14.575 7.67a.797.797 0 1 1 1.127 1.127l-1.524 1.524c.34.579.41 1.202.52 2.185q.041.367.076.775a35 35 0 0 1 .1 1.593H7.39c2.398-2.397 4.787-4.805 7.185-7.204m-1.62 3.874c.055.24.095.566.159 1.138q.031.285.06.599h-1.956z"/></svg>