<svg xmlns="http://www.w3.org/2000/svg" viewBox="0 0 32 32"><path fill-rule="evenodd" d="M16 14.5A5.75 5.75 0 1 0 16 3a5.75 5.75 0 0 0 0 11.5m0-2.5a3.25 3.25 0 1 0 0-6.5 3.25 3.25 0 0 0 0 6.5"/><path d="M16 16c1.567 0 3.033.101 4.344.252a1.25 1.25 0 0 1-.351 2.476A36 36 0 0 0 16 18.5c-1.53 0-2.96.104-4.233.256-1.315.156-1.97.245-2.492.415-.392.128-.743.316-1.244.82-.494.499-.682.854-.81 1.264-.17.541-.256 1.22-.406 2.565a56 56 0 0 0-.161 1.682l4.1-.002a1.25 1.25 0 0 1 0 2.5L4 28.002q.055-1.335.146-2.5.082-1.047.184-1.96c.282-2.53.423-3.796 1.927-5.311 1.503-1.515 2.74-1.663 5.214-1.958A38 38 0 0 1 16 16"/><path fill-rule="evenodd" d="M26.863 15.369a1.25 1.25 0 1 1 1.768 1.768l-2.076 2.075c.76 1.153.895 2.357 1.114 4.33q.102.912.185 1.96.091 1.165.146 2.5H14.244c4.209-4.208 8.41-8.424 12.62-12.633m-6.598 10.133h5.081a56 56 0 0 0-.161-1.683c-.15-1.343-.235-2.023-.406-2.564a3 3 0 0 0-.069-.198z"/></svg>