<svg xmlns="http://www.w3.org/2000/svg" viewBox="0 0 44 44"><path fill-rule="evenodd" d="M22 20a8 8 0 1 0 0-16 8 8 0 0 0 0 16m0-3a5 5 0 1 0 0-10 5 5 0 0 0 0 10"/><path d="M28.34 25.408a1.5 1.5 0 0 0 .123-2.995l-.424-.05A51 51 0 0 0 22 21.997c-2.189 0-4.229.148-6.038.364-3.3.394-4.95.59-6.953 2.61-2.005 2.02-2.192 3.708-2.568 7.083Q6.288 33.413 6.169 35 6.064 36.41 6 38h9.5a1.5 1.5 0 0 0 0-3.001H9.178a76 76 0 0 1 .244-2.613c.199-1.78.315-2.723.554-3.482.19-.602.469-1.121 1.162-1.82.701-.706 1.214-.987 1.792-1.176.735-.24 1.644-.36 3.387-.568A48 48 0 0 1 22 24.998c2.055 0 3.975.14 5.683.343.229.027.435.067.657.067"/><path fill-rule="evenodd" d="M37.437 20.44a1.5 1.5 0 0 1 2.122 2.12l-3.58 3.58c1.098 1.581 1.278 3.203 1.58 5.915q.153 1.359.272 2.946.105 1.41.169 3H19.892c5.85-5.851 11.694-11.71 17.545-17.562m-3.642 7.885c.094.19.166.38.229.58.239.759.355 1.7.554 3.482q.136 1.21.244 2.614h-7.704z"/></svg>