<svg xmlns="http://www.w3.org/2000/svg" viewBox="0 0 44 44"><path d="M43.606 15.241c.243.796-.283 1.598-1.096 1.77-.808.17-1.595-.35-1.85-1.135a14.98 14.98 0 0 0-10.416-9.86c-.797-.209-1.358-.961-1.238-1.776.122-.825.896-1.399 1.706-1.2 6.152 1.503 11.06 6.181 12.894 12.201"/><path d="M38.618 16.302c.265.784-.263 1.583-1.073 1.754-.811.17-1.596-.356-1.89-1.131a9.72 9.72 0 0 0-6.17-5.818c-.791-.248-1.363-1-1.24-1.82s.89-1.393 1.688-1.175a12.73 12.73 0 0 1 8.685 8.19M15 29a1.5 1.5 0 1 1-3 0 1.5 1.5 0 0 1 3 0m15.5 1.5a1.5 1.5 0 1 0 0-3 1.5 1.5 0 0 0 0 3M17 29a1.5 1.5 0 0 1 1.5-1.5h7a1.5 1.5 0 0 1 0 3h-7A1.5 1.5 0 0 1 17 29"/><path fill-rule="evenodd" d="M34.814 21H37.5a1.5 1.5 0 0 1 0 3h-1.483c.268.444.469.938.587 1.477.227 1.033.396 2.247.396 3.569v8.704a2.25 2.25 0 0 1-4.5 0V37h-21v.75a2.25 2.25 0 0 1-4.5 0v-8.704c0-1.325.17-2.54.398-3.575A4.9 4.9 0 0 1 7.982 24H6.5a1.5 1.5 0 0 1 0-3h2.686c1.049-3.263 1.62-4.93 3.701-6.447C15.017 13 17.345 13 22.001 13c4.655 0 6.982 0 9.112 1.553 2.081 1.518 2.653 3.184 3.701 6.447m-3.005.458c-.964-2.957-1.321-3.648-2.463-4.48C28.169 16.118 26.983 16 22 16s-6.17.12-7.346.977c-1.142.833-1.5 1.524-2.463 4.48 2.19-.235 5.419-.457 9.802-.457 4.386 0 7.618.222 9.812.458zM12.51 24.44c2.08-.223 5.201-.44 9.484-.44s7.41.217 9.492.44c1.28.138 2.013.884 2.188 1.68.189.861.326 1.857.326 2.926V34H10v-4.954c0-1.07.138-2.068.327-2.93.175-.794.906-1.538 2.183-1.676"/></svg>