<svg xmlns="http://www.w3.org/2000/svg" viewBox="0 0 44 44"><path d="M42.506 17.01c.813-.17 1.339-.973 1.096-1.769C41.768 9.221 36.86 4.543 30.709 3.04c-.81-.198-1.584.376-1.706 1.201-.12.815.441 1.567 1.238 1.776a14.98 14.98 0 0 1 10.417 9.86c.254.786 1.04 1.305 1.849 1.134"/><path d="M37.541 18.056c.81-.17 1.338-.97 1.073-1.755a12.73 12.73 0 0 0-8.685-8.189c-.798-.218-1.565.355-1.688 1.174-.123.82.449 1.573 1.24 1.821a9.72 9.72 0 0 1 6.17 5.818c.294.775 1.079 1.302 1.89 1.13"/><path fill-rule="evenodd" d="M37.5 21h-2.686c-1.048-3.263-1.62-4.93-3.7-6.447C28.983 13 26.655 13 22 13s-6.984 0-9.114 1.553c-2.081 1.518-2.652 3.184-3.7 6.447H6.5a1.5 1.5 0 0 0 0 3h1.482a4.9 4.9 0 0 0-.584 1.471A16.7 16.7 0 0 0 7 29.046v8.704a2.25 2.25 0 0 0 4.5 0V37h21v.75a2.25 2.25 0 0 0 4.5 0v-8.704c0-1.322-.17-2.536-.396-3.57A4.9 4.9 0 0 0 36.017 24H37.5a1.5 1.5 0 0 0 0-3m-8.154-4.023c1.142.833 1.5 1.524 2.463 4.481h-.003C29.612 21.222 26.38 21 21.994 21c-4.383 0-7.611.222-9.802.457.963-2.956 1.32-3.647 2.463-4.48C15.83 16.12 17.018 16 22 16s6.168.12 7.345.977M15 29a1.5 1.5 0 1 1-3 0 1.5 1.5 0 0 1 3 0m2 0a1.5 1.5 0 0 1 1.5-1.5h7a1.5 1.5 0 0 1 0 3h-7A1.5 1.5 0 0 1 17 29m13.5 1.5a1.5 1.5 0 1 0 0-3 1.5 1.5 0 0 0 0 3"/></svg>