<svg xmlns="http://www.w3.org/2000/svg" viewBox="0 0 32 32"><path d="M32 10.687q0-.193-.058-.378a13.27 13.27 0 0 0-9.406-8.776c-.67-.166-1.309.312-1.41.996-.1.682.373 1.31 1.038 1.49a10.77 10.77 0 0 1 7.379 6.993c.21.635.844 1.057 1.498.92A1.21 1.21 0 0 0 32 10.748z"/><path d="M27.055 12.771c.674-.142 1.114-.809.881-1.458a9.15 9.15 0 0 0-6.02-5.682c-.66-.194-1.3.285-1.402.967-.103.684.375 1.31 1.027 1.538a6.65 6.65 0 0 1 3.92 3.7c.266.637.918 1.078 1.594.935M10.25 22.5a1.25 1.25 0 1 0 0-2.5 1.25 1.25 0 0 0 0 2.5M23 21.25a1.25 1.25 0 1 1-2.5 0 1.25 1.25 0 0 1 2.5 0m-10 0c0-.69.56-1.25 1.25-1.25h3.5a1.25 1.25 0 1 1 0 2.5h-3.5c-.69 0-1.25-.56-1.25-1.25"/><path fill-rule="evenodd" d="m25.167 15.369.042.131h2.041a1.25 1.25 0 1 1 0 2.5h-.728q.094.238.154.493c.184.78.324 1.708.324 2.723v6.034a1.75 1.75 0 1 1-3.5 0v-.75h-15v.75a1.75 1.75 0 1 1-3.5 0v-6.034c0-1.017.14-1.946.325-2.727q.06-.254.153-.489H4.75a1.25 1.25 0 1 1 0-2.5h2.04l.042-.13c.779-2.384 1.168-3.576 2.65-4.69l.162-.117C11.164 9.5 12.776 9.5 16 9.5s4.835 0 6.354 1.062c.045.031.12.086.164.12 1.481 1.113 1.87 2.304 2.649 4.687m-9.171-.036c2.882 0 5.056.125 6.616.271-.667-2.005-.893-2.396-1.596-2.925l-.095-.068c-.741-.519-1.445-.611-4.92-.611-3.478 0-4.182.092-4.924.611l-.093.068c-.703.529-.93.92-1.596 2.925 1.557-.147 3.728-.27 6.608-.27m0 2.5c-3.238 0-5.523.161-7.008.324-.763.084-1.136.51-1.23.907a9.4 9.4 0 0 0-.258 2.152V24h17v-2.784c0-.788-.11-1.52-.257-2.15-.094-.396-.469-.825-1.234-.909-1.487-.163-3.775-.324-7.013-.324"/></svg>