<svg xmlns="http://www.w3.org/2000/svg" viewBox="0 0 16 16"><path fill-rule="evenodd" d="M11.647 4h-.029c-.149 0-.325 0-.478.02a1.14 1.14 0 0 0-.646.29c-.215.2-.296.44-.333.624-.03.15-.042.326-.052.473l-.002.029A43 43 0 0 0 10 8c0 .808.061 1.872.107 2.565l.002.028c.01.148.022.323.052.473.037.184.118.423.333.624s.461.266.646.29c.153.02.33.02.478.02h1.764c.149 0 .325 0 .478-.02a1.14 1.14 0 0 0 .646-.29c.215-.2.296-.44.333-.624.03-.15.042-.325.052-.473l.002-.028C14.939 9.872 15 8.808 15 8s-.061-1.872-.107-2.564l-.002-.03c-.01-.146-.022-.322-.052-.472a1.14 1.14 0 0 0-.333-.624 1.14 1.14 0 0 0-.646-.29C13.707 4 13.53 4 13.382 4zm-5.02 1.656-.035-.021-.532-.324C4.351 4.269 3.492 3.748 2.846 4.12 2.2 4.49 2.2 5.503 2.2 7.528v.944c0 2.025 0 3.037.646 3.409.646.37 1.505-.15 3.214-1.192l.532-.324.035-.02C8.337 9.301 9.2 8.774 9.2 8s-.863-1.302-2.573-2.344"/></svg>