<svg xmlns="http://www.w3.org/2000/svg" viewBox="0 0 24 24"><path fill-rule="evenodd" d="M9.071 10.326c1.352.785 2.175 1.268 2.688 1.674-.513.406-1.336.89-2.688 1.674l-.052.03-1.143.663h-.001c-1.353.786-2.18 1.26-2.786 1.504C5.005 15.257 5 14.354 5 12.878v-1.756c0-1.476.005-2.38.089-2.993.606.245 1.433.718 2.785 1.503h.002v.001l1.143.663zm3.004 1.967-.007-.01zm-.007-.576.007-.01zm-8.083 6.11c.984.539 2.287-.217 4.893-1.73h.001l1.144-.663.052-.03C12.683 13.89 14 13.125 14 12s-1.317-1.89-3.925-3.403l-.052-.03-1.144-.664c-2.607-1.513-3.91-2.269-4.894-1.73C3 6.714 3 8.184 3 11.124v1.755c0 2.94 0 4.41.985 4.948M4.675 16h.012zm.502.291.004.01zm.004-8.592-.004.01zm-.494.302L4.674 8zM17.712 6h-.048c-.31 0-.634 0-.906.036-.316.042-.695.147-1.021.454-.325.306-.452.675-.513.989-.053.268-.071.589-.09.895l-.002.048C15.07 9.469 15 10.892 15 12s.07 2.531.132 3.578l.003.048c.018.306.036.627.089.895.06.314.188.683.513.989.326.307.705.412 1.021.454.272.036.596.036.906.036h1.672c.31 0 .634 0 .906-.036.316-.042.695-.147 1.021-.454.325-.306.452-.675.513-.989.053-.268.071-.589.09-.895l.002-.048C21.93 14.531 22 13.108 22 12s-.07-2.531-.132-3.578l-.003-.048c-.018-.306-.036-.627-.089-.895-.06-.314-.188-.683-.513-.989-.326-.307-.705-.412-1.021-.454A7 7 0 0 0 19.336 6zm-.555 2.104q.004-.054.01-.097l.104-.004C17.39 8 17.532 8 17.712 8h1.576a19 19 0 0 1 .546.007l.009.097c.01.12.018.258.029.436.061 1.042.128 2.416.128 3.46s-.067 2.419-.128 3.46a19 19 0 0 1-.038.533l-.105.004c-.12.003-.261.003-.441.003h-1.576c-.18 0-.32 0-.441-.003l-.105-.004-.009-.097c-.01-.12-.018-.258-.029-.436C17.067 14.418 17 13.044 17 12s.067-2.418.128-3.46c.01-.178.02-.317.03-.436"/></svg>