<svg xmlns="http://www.w3.org/2000/svg" viewBox="0 0 44 44"><path d="M13.75 11a2.75 2.75 0 0 0 2.75-2.75c0-1.03-1.264-2.846-2.078-3.91a.84.84 0 0 0-1.344 0C12.264 5.404 11 7.22 11 8.25A2.75 2.75 0 0 0 13.75 11M22 11a2.75 2.75 0 0 0 2.75-2.75c0-1.03-1.264-2.846-2.078-3.91a.84.84 0 0 0-1.344 0c-.814 1.064-2.078 2.88-2.078 3.91A2.75 2.75 0 0 0 22 11m11-2.75a2.75 2.75 0 1 1-5.5 0c0-1.03 1.264-2.846 2.078-3.91a.84.84 0 0 1 1.344 0C31.736 5.404 33 7.22 33 8.25"/><path fill-rule="evenodd" d="M34.814 21H37.5a1.5 1.5 0 0 1 0 3h-1.483c.268.444.469.938.587 1.477.227 1.033.396 2.247.396 3.569v8.704a2.25 2.25 0 0 1-4.5 0V37h-21v.75a2.25 2.25 0 1 1-4.5 0v-8.704c0-1.325.17-2.54.398-3.575A4.9 4.9 0 0 1 7.982 24H6.5a1.5 1.5 0 0 1 0-3h2.686c1.049-3.263 1.62-4.93 3.701-6.447C15.017 13 17.345 13 22.001 13c4.655 0 6.982 0 9.112 1.553 2.081 1.518 2.653 3.184 3.701 6.447m-3.005.458c-.964-2.957-1.321-3.648-2.463-4.48C28.169 16.118 26.983 16 22 16s-6.17.12-7.346.977c-1.142.833-1.5 1.524-2.463 4.48 2.19-.235 5.419-.457 9.802-.457 4.386 0 7.618.222 9.812.458zM13.5 30.5a1.5 1.5 0 1 0 0-3 1.5 1.5 0 0 0 0 3m5-3a1.5 1.5 0 0 0 0 3h7a1.5 1.5 0 0 0 0-3zM32 29a1.5 1.5 0 1 1-3 0 1.5 1.5 0 0 1 3 0"/></svg>