<svg xmlns="http://www.w3.org/2000/svg" viewBox="0 0 16 16"><path d="M5 4c.552 0 1-.464 1-1.037 0-.374-.426-1.24-.722-1.795a.312.312 0 0 0-.556 0C4.426 1.724 4 2.589 4 2.963 4 3.536 4.448 4 5 4m3 0c.552 0 1-.464 1-1.037 0-.374-.426-1.24-.722-1.795a.312.312 0 0 0-.556 0C7.426 1.724 7 2.589 7 2.963 7 3.536 7.448 4 8 4m4-1.037C12 3.536 11.552 4 11 4s-1-.464-1-1.037c0-.374.426-1.24.722-1.795a.312.312 0 0 1 .556 0c.296.556.722 1.421.722 1.795m-.5 7.537a.75.75 0 1 1-1.5 0 .75.75 0 0 1 1.5 0m-5.5 0a.75.75 0 1 1-1.5 0 .75.75 0 0 1 1.5 0m1.25-.75a.75.75 0 0 0 0 1.5h1.5a.75.75 0 0 0 0-1.5z"/><path fill-rule="evenodd" d="M13.317 9h.433a.75.75 0 0 0 0-1.5h-1.207l-.013-.04c-.377-1.155-.566-1.733-1.212-2.274a4 4 0 0 0-.33-.24C10.273 4.5 9.515 4.5 8 4.5s-2.273 0-2.988.447c-.097.06-.242.165-.33.239-.646.54-.835 1.119-1.212 2.275l-.013.039H2.25a.75.75 0 0 0 0 1.5h.433l-.02.078a6 6 0 0 0-.163 1.364V14a1 1 0 1 0 2 0v-.5h7v.5a1 1 0 0 0 2 0v-3.56A6 6 0 0 0 13.317 9M5.001 7.608A37 37 0 0 1 7.998 7.5c1.261 0 2.251.048 3.002.109-.313-.937-.405-1.072-.645-1.273a2 2 0 0 0-.162-.117c-.274-.171-.533-.22-2.193-.22s-1.92.049-2.193.22a2 2 0 0 0-.162.117c-.24.2-.331.336-.644 1.272M7.998 9c-1.61 0-2.745.08-3.477.16a.6.6 0 0 0-.303.114.26.26 0 0 0-.096.148c-.07.3-.122.648-.122 1.02V12h8v-1.56c0-.37-.052-.718-.122-1.017a.26.26 0 0 0-.096-.15.6.6 0 0 0-.305-.114C10.744 9.08 9.608 9 7.997 9"/></svg>