<svg xmlns="http://www.w3.org/2000/svg" viewBox="0 0 32 32"><path d="M12 6a2 2 0 1 1-4 0c0-.753.93-2.03 1.522-2.764a.608.608 0 0 1 .956 0C11.069 3.97 12 5.246 12 6m6 0a2 2 0 1 1-4 0c0-.753.93-2.03 1.522-2.764a.608.608 0 0 1 .956 0C17.069 3.97 18 5.246 18 6m4 2a2 2 0 0 0 2-2c0-.753-.93-2.03-1.522-2.764a.608.608 0 0 0-.956 0C20.931 3.97 20 5.246 20 6a2 2 0 0 0 2 2"/><path fill-rule="evenodd" d="m25.167 15.369.042.131h2.041a1.25 1.25 0 1 1 0 2.5h-.728q.094.238.154.493c.184.78.324 1.708.324 2.723v6.034a1.75 1.75 0 1 1-3.5 0v-.75h-15v.75a1.75 1.75 0 1 1-3.5 0v-6.034c0-1.017.14-1.946.325-2.727q.06-.254.153-.489H4.75a1.25 1.25 0 1 1 0-2.5h2.04l.042-.13c.779-2.384 1.168-3.576 2.65-4.69l.162-.117C11.164 9.5 12.776 9.5 16 9.5s4.835 0 6.354 1.062c.045.031.12.086.164.12 1.481 1.113 1.87 2.304 2.649 4.687m-9.171-.036c2.882 0 5.056.125 6.616.271-.667-2.005-.893-2.396-1.596-2.925l-.095-.068c-.741-.519-1.445-.611-4.92-.611-3.478 0-4.182.092-4.924.611l-.093.068c-.703.529-.93.92-1.596 2.925 1.557-.147 3.728-.27 6.608-.27M11.5 21.25a1.25 1.25 0 1 1-2.5 0 1.25 1.25 0 0 1 2.5 0M14.25 20a1.25 1.25 0 1 0 0 2.5h3.5a1.25 1.25 0 1 0 0-2.5zm7.5 2.5a1.25 1.25 0 1 0 0-2.5 1.25 1.25 0 0 0 0 2.5"/></svg>