<svg xmlns="http://www.w3.org/2000/svg" viewBox="0 0 44 44"><path fill-rule="evenodd" d="M10.97 21.576c-.27-1.89-.229-4.066-.013-6.231.206-2.056.331-3.182.618-4.097.234-.748.595-1.4 1.474-2.254.894-.87 1.545-1.206 2.253-1.41.873-.253 1.933-.343 3.914-.484a39 39 0 0 1 5.568 0c1.982.142 3.042.23 3.915.483.707.205 1.358.541 2.252 1.41.879.855 1.24 1.507 1.474 2.255.287.915.413 2.04.618 4.097.216 2.165.257 4.34-.013 6.231-.27 1.89-1.195 4.02-2.592 6.234-1.38 2.188-3.112 4.29-4.794 6.102-1.293 1.394-2 2.139-2.612 2.595-.448.333-.683.392-1.032.392s-.584-.059-1.032-.392c-.612-.456-1.319-1.2-2.612-2.595-1.682-1.812-3.414-3.914-4.794-6.102-1.396-2.214-2.322-4.344-2.592-6.234M8 22c-.317-2.218-.257-4.656-.028-6.953.391-3.915.586-5.872 2.986-8.205 2.4-2.332 4.281-2.466 8.045-2.734a42 42 0 0 1 5.994 0c3.764.268 5.646.402 8.045 2.734 2.4 2.333 2.595 4.29 2.986 8.205.23 2.297.289 4.735-.028 6.953-.707 4.948-4.639 10.162-8.157 13.953-2.44 2.63-3.662 3.946-5.843 3.946s-3.402-1.315-5.843-3.946C12.639 32.163 8.707 26.948 8 22m13.003-7.961c.322-.024.658-.039.997-.039.34 0 .676.015.998.039l.138.01c1.04.076 1.973.144 2.822.993.85.85.917 1.783.993 2.822l.01.139c.024.322.04.657.04.997s-.016.676-.04.997l-.01.139c-.076 1.04-.144 1.973-.993 2.822-.85.85-1.782.917-2.822.993l-.138.01c-.322.024-.658.039-.998.039q-.512-.002-.997-.039l-.139-.01c-1.04-.076-1.972-.144-2.822-.993-.849-.85-.917-1.782-.993-2.822l-.01-.139A14 14 0 0 1 17 19c0-.34.015-.675.039-.997l.01-.139c.076-1.04.144-1.972.993-2.822.85-.85 1.783-.917 2.822-.993z"/></svg>