<svg xmlns="http://www.w3.org/2000/svg" viewBox="0 0 24 24"><path fill-rule="evenodd" d="M16.242 18.638c-1.6 1.984-2.399 2.975-3.399 3.248-.552.15-1.134.15-1.687 0-1-.273-1.799-1.264-3.398-3.248l-1.05-1.301c-.493-.613-.74-.919-.956-1.235a9.97 9.97 0 0 1-1.723-4.878A17 17 0 0 1 4 9.939v-.275c0-.525.036-1.037.079-1.557.287-3.505 1.837-5.29 5.322-5.876.83-.14 1.715-.232 2.599-.232s1.769.093 2.599.232c3.485.585 5.035 2.371 5.322 5.876.043.52.079 1.032.079 1.556 0 .786 0 1.179-.03 1.56a9.97 9.97 0 0 1-1.722 4.88c-.217.315-.463.621-.957 1.233zM11.502 7.52a7 7 0 0 1 .997 0l.07.005c.519.038.985.072 1.41.497s.459.891.497 1.411l.005.07a7 7 0 0 1 0 .997l-.005.069c-.038.52-.072.986-.497 1.41-.425.426-.891.46-1.41.498l-.07.005a7 7 0 0 1-.998 0l-.069-.005c-.52-.038-.986-.072-1.41-.497-.425-.425-.46-.891-.497-1.411l-.005-.07a7 7 0 0 1 0-.997l.005-.069c.038-.52.072-.986.496-1.41.425-.426.891-.46 1.411-.498z"/></svg>