<svg xmlns="http://www.w3.org/2000/svg" viewBox="0 0 44 44"><path fill-rule="evenodd" d="M7.972 15.047C7.743 17.344 7.683 19.782 8 22c.707 4.948 4.64 10.162 8.157 13.953 2.441 2.63 3.662 3.946 5.843 3.946s3.402-1.315 5.843-3.946C31.361 32.163 35.293 26.948 36 22c.317-2.218.257-4.656.028-6.953-.39-3.915-.586-5.872-2.986-8.205-2.4-2.332-4.281-2.466-8.045-2.734a42 42 0 0 0-5.994 0c-3.764.268-5.645.402-8.045 2.734-2.4 2.333-2.595 4.29-2.986 8.205m13.03-1.008c.323-.024.659-.039.998-.039.34 0 .676.015.998.039l.138.01c1.04.076 1.973.144 2.822.993.85.85.917 1.783.993 2.822l.01.139c.024.322.04.657.04.997s-.016.676-.04.997l-.01.139c-.076 1.04-.144 1.973-.993 2.822-.85.85-1.782.917-2.822.993l-.138.01c-.322.024-.658.039-.998.039q-.512-.002-.997-.039l-.139-.01c-1.04-.076-1.972-.144-2.822-.993-.849-.85-.917-1.782-.993-2.822l-.01-.139A14 14 0 0 1 17 19c0-.34.015-.675.039-.997l.01-.139c.076-1.04.144-1.972.993-2.822.85-.85 1.783-.917 2.822-.993z"/></svg>