<svg xmlns="http://www.w3.org/2000/svg" viewBox="0 0 16 16"><path fill-rule="evenodd" d="M4.874 1.56c-1.608.532-2.535 1.578-2.756 3.27-.1.77-.148 1.546-.098 2.323a7 7 0 0 0 1.464 3.861c.136.175.288.346.59.688l1.01 1.14c1.155 1.302 1.732 1.953 2.445 2.108.31.067.632.067.942 0 .713-.155 1.29-.806 2.444-2.108l1.01-1.14c.303-.342.455-.513.591-.688a7 7 0 0 0 1.464-3.86c.05-.778.002-1.554-.098-2.324-.22-1.692-1.149-2.738-2.756-3.27C10.211 1.259 9.106 1 8 1s-2.211.258-3.126.56m2.794 3.286a4.5 4.5 0 0 1 .665 0l.046.004c.346.025.657.048.94.33.283.284.306.595.331.941l.004.047a4.5 4.5 0 0 1 0 .664l-.004.047c-.025.346-.048.657-.33.94-.284.283-.595.306-.941.331l-.046.004a4.5 4.5 0 0 1-.665 0l-.046-.004c-.347-.025-.658-.048-.941-.33-.283-.284-.306-.595-.331-.941l-.004-.047a4.5 4.5 0 0 1 0-.664l.004-.047c.025-.346.048-.657.33-.94.284-.283.595-.306.942-.331z"/></svg>