<svg xmlns="http://www.w3.org/2000/svg" viewBox="0 0 16 16"><path d="M10 5.492a.673.673 0 0 1-1.101.519C7.631 4.963 6.997 4.44 6.997 3.749c0-.69.634-1.214 1.902-2.262A.673.673 0 0 1 10 2.006c0 .41-.221.629-.446.85q-.098.095-.188.197l.019.001c1.744.13 2.616.195 3.491 1.07.424.424.658.847.8 1.368.263.955.324 2.045.324 3.038-.028 1.048-.17 1.711-.885 2.487a5 5 0 0 1-.202.201c-.374.343-.72.55-1.093.678-.426.144-.82-.227-.82-.677 0-.219.026-.566.5-.813.25-.131.49-.35.655-.582.27-.382.331-.805.345-1.291.025-.871-.037-1.896-.292-2.723a1.4 1.4 0 0 0-.393-.625c-.404-.405-.675-.491-2.337-.62l.076.076c.225.222.446.44.446.85"/><path d="M6.47 6.47a.75.75 0 0 1 1.06 0l2 2a.75.75 0 0 1-1.06 1.06l-2-2a.75.75 0 0 1 0-1.06"/><path d="M7.103 9.991a.673.673 0 0 0-1.101.519c0 .41.221.629.446.85l.076.077c-1.662-.129-1.933-.215-2.337-.62a1.4 1.4 0 0 1-.393-.625c-.256-.827-.317-1.852-.292-2.723.014-.486.075-.909.345-1.29.164-.233.404-.452.655-.583.474-.247.5-.594.5-.813 0-.45-.394-.821-.82-.677-.373.127-.719.335-1.093.678a5 5 0 0 0-.202.201c-.714.776-.857 1.439-.885 2.487 0 .993.061 2.083.323 3.038.143.521.377.944.8 1.368.876.875 1.748.94 3.492 1.07l.02.001a4 4 0 0 1-.19.196c-.224.222-.445.44-.445.851 0 .569.662.88 1.101.519 1.268-1.048 1.902-1.571 1.902-2.262 0-.69-.634-1.214-1.902-2.262"/></svg>