<svg xmlns="http://www.w3.org/2000/svg" viewBox="0 0 44 44"><path fill-rule="evenodd" d="M34.107 10.5c0-.828-.69-1.5-1.542-1.5-.851 0-1.541.672-1.541 1.5v1.636h-17.04V10.5c0-.828-.69-1.5-1.541-1.5-.852 0-1.542.672-1.542 1.5v1.636H9.56c-.871 0-1.671.538-1.939 1.38-.235.738-.61 2.018-.718 3.033-.12 1.129.025 2.308.6 3.296.151.258.318.443.489.443h1.35c.646 0 1.169.509 1.169 1.136 0 .315-.152.704-.498 1.188-.318.446-.722.868-1.137 1.3l-.096.1c-.38.399-.746.904-1.073 1.54-1.575 3.065-1.737 6.109-1.704 7.59C6.028 34.238 6.968 35 7.992 35h6.342c.958 0 1.79-.645 2.004-1.554l1.4-5.952a2 2 0 0 0 .14.006h6.682c2.187 0 3.208-1.752 3.646-3.016.466-1.343.583-2.902.611-3.945a1.5 1.5 0 0 0-.015-.251h6.448c1.008 0 1.867-.711 2.03-1.68l.693-4.15c.203-1.217-.762-2.322-2.03-2.322h-1.836zm-8.358 9.788h-.947c-1.837 0-3.326 1.448-3.326 3.235v.585q0 .2.041.392h3.044c.077 0 .385 0 .723-.975.314-.905.424-2.096.45-3.064a2 2 0 0 1 .015-.173"/></svg>