<svg xmlns="http://www.w3.org/2000/svg" viewBox="0 0 24 24"><path d="M8.106 14.447a1 1 0 0 1 .447-1.342 1.46 1.46 0 0 0 .796-1.113 1.5 1.5 0 1 1 1.547-2.041l.034.077.202.526a3.464 3.464 0 0 1-1.685 4.34 1 1 0 0 1-1.341-.447m5 0a1 1 0 0 1 .447-1.342 1.46 1.46 0 0 0 .796-1.113 1.5 1.5 0 1 1 1.547-2.041l.034.077.202.526a3.464 3.464 0 0 1-1.685 4.34 1 1 0 0 1-1.341-.447"/><path fill-rule="evenodd" d="M22 12.093v-.092a25 25 0 0 0-.087-2.069c-.161-1.941-.242-2.912-1.532-4.206s-2.302-1.382-4.327-1.558A47 47 0 0 0 12 4c-1.55 0-2.902.068-4.055.168-2.025.176-3.037.264-4.326 1.558-1.29 1.293-1.37 2.264-1.532 4.204a25 25 0 0 0 0 4.14c.161 1.941.242 2.912 1.532 4.205s2.301 1.382 4.325 1.558c1.153.1 2.506.168 4.056.168 1.178 0 2.242-.04 3.192-.102 1.876.991 3.188 1.61 4.228 1.601a2.13 2.13 0 0 0 1.058-.277C22 20.36 22 18.1 22 13.403zm-2-.007V12c0-.667-.03-1.304-.08-1.903-.086-1.037-.137-1.523-.26-1.917-.09-.288-.238-.584-.695-1.043-.448-.45-.748-.603-1.06-.7-.422-.129-.945-.184-2.024-.277A45 45 0 0 0 12 6c-1.492 0-2.786.065-3.882.16-1.079.093-1.602.148-2.023.278-.312.096-.612.25-1.06.698-.457.46-.606.755-.696 1.044-.122.393-.173.879-.26 1.916a23 23 0 0 0 0 3.808c.087 1.037.138 1.522.26 1.915.09.289.239.584.696 1.044.448.449.748.602 1.06.698.42.13.944.185 2.023.278 1.095.096 2.39.16 3.882.16 1.134 0 2.154-.037 3.06-.097l.605-.04.525.303c1.287.652 2.127 1.065 2.73 1.245.28.083.433.091.5.089.088-.004.119-.052.16-.133.074-.143.173-.424.252-.954.163-1.1.168-2.593.168-5.01z"/></svg>