<svg xmlns="http://www.w3.org/2000/svg" viewBox="0 0 24 24"><path fill-rule="evenodd" d="M22 12v1.403c0 4.698 0 6.958-1.522 7.82a2.13 2.13 0 0 1-1.058.277c-1.04.01-2.352-.61-4.228-1.601A48 48 0 0 1 12 20a47 47 0 0 1-4.056-.168c-2.024-.176-3.036-.264-4.325-1.558-1.29-1.293-1.37-2.264-1.532-4.204a25 25 0 0 1 0-4.14c.161-1.941.242-2.912 1.532-4.205S5.92 4.344 7.945 4.168C9.098 4.068 10.45 4 12 4s2.901.068 4.054.168c2.025.176 3.038.264 4.327 1.558s1.37 2.265 1.532 4.206A25 25 0 0 1 22 12.001M8.553 13.106a1.46 1.46 0 0 0 .796-1.113 1.5 1.5 0 1 1 1.547-2.041l.034.077.202.526a3.464 3.464 0 0 1-1.685 4.34 1 1 0 1 1-.894-1.789m4.553 1.342a1 1 0 0 1 .447-1.342 1.46 1.46 0 0 0 .796-1.113 1.5 1.5 0 1 1 1.547-2.041l.034.077.202.526a3.464 3.464 0 0 1-1.685 4.34 1 1 0 0 1-1.341-.447"/></svg>