<svg xmlns="http://www.w3.org/2000/svg" viewBox="0 0 24 24"><path fill-rule="evenodd" d="m19.716 9.698.576-.576a3 3 0 0 0 0-4.243l-1.171-1.172a3 3 0 0 0-4.243 0l-.576.577c-1.538-.367-3.166-.378-4.638-.034l-.543-.543a3 3 0 0 0-4.243 0L3.707 4.88a3 3 0 0 0 0 4.243l.653.653c-.428 1.42-.644 2.877-.752 4.024-.136 1.438.274 2.874 1.28 3.911C6.29 19.158 8.72 21 11.996 21c3.33 0 5.784-1.901 7.176-3.36.956-1 1.364-2.368 1.265-3.748-.085-1.183-.28-2.715-.72-4.194M11 10.25a1.25 1.25 0 1 1-2.5 0 1.25 1.25 0 0 1 2.5 0m1.487 5.139C13.223 15.077 14 14.175 14 13.5c0-.828-1.172-1-2-1s-2 .172-2 1c0 .675.778 1.578 1.515 1.89l.002.307-.008 1.042c-.222.134-.456.218-.686.213-.279-.006-.653-.148-1.062-.758a.46.46 0 0 0-.674-.11.543.543 0 0 0-.117.722c.54.804 1.167 1.163 1.812 1.178.467.01.885-.161 1.219-.368.333.207.751.378 1.219.368.645-.015 1.27-.374 1.811-1.178a.543.543 0 0 0-.116-.721.46.46 0 0 0-.674.109c-.41.61-.784.752-1.063.758-.23.005-.464-.08-.685-.213l-.009-1.042zM14.25 11.5a1.25 1.25 0 1 0 0-2.5 1.25 1.25 0 0 0 0 2.5"/></svg>