<svg xmlns="http://www.w3.org/2000/svg" viewBox="0 0 44 44"><path fill-rule="evenodd" d="M7.765 17.435a5 5 0 0 1 0-7.071l2.829-2.828a5 5 0 0 1 7.07 0l.708.707q.337.337.597.719a20 20 0 0 1 6.064 0q.26-.382.597-.72l.707-.706a5 5 0 0 1 7.07 0l2.83 2.828a5 5 0 0 1 0 7.071l-.708.707q-.155.154-.319.293c.698 2.777 1.29 5.802 1.29 8.065C36.5 32 29 38 22 38S7 32 7 26.5c0-2.325.715-5.453 1.54-8.291l-.068-.067zM20.001 19a2 2 0 1 1-4 0 2 2 0 0 1 4 0m6 2a2 2 0 1 0 0-4 2 2 0 0 0 0 4m-3 5.279c1.06-.828 2.48-2.207 1.84-3.279-.797-1.333-5.108-1.333-5.726 0-.523 1.126.864 2.491 1.886 3.3v1.545l-.033.083a2.2 2.2 0 0 1-.267.472c-.239.318-.593.6-1.2.6-.718 0-1.093-.257-1.293-.457a1.4 1.4 0 0 1-.263-.372l-.002-.006a1 1 0 0 0-1.891.651v.003l.002.002.001.005.005.013.005.016.006.015.036.088q.044.106.129.262c.114.205.292.472.558.737.55.55 1.424 1.043 2.707 1.043 1.152 0 1.964-.491 2.5-1.047.535.556 1.347 1.047 2.5 1.047 1.282 0 2.157-.493 2.707-1.043a3.4 3.4 0 0 0 .687-.999l.035-.088.005-.014.007-.017.004-.013.002-.005v-.002l.001-.002a1 1 0 0 0-1.89-.652l-.003.006a1.4 1.4 0 0 1-.263.372c-.2.2-.575.457-1.292.457-.607 0-.962-.282-1.2-.6a2.2 2.2 0 0 1-.3-.555z"/></svg>