<svg xmlns="http://www.w3.org/2000/svg" viewBox="0 0 16 16"><path d="M8.82 11.494a1.6 1.6 0 0 1-.819-.221 1.6 1.6 0 0 1-.82.221c-.49-.01-.95-.286-1.332-.854a.543.543 0 0 1 .116-.722.46.46 0 0 1 .674.11c.252.373.459.432.584.435a.64.64 0 0 0 .29-.074l.004-.543c-.438-.256-.85-.778-.85-1.18C6.667 8.115 7.448 8 8 8c.553 0 1.334.114 1.334.667 0 .4-.412.922-.849 1.178l.004.544q.153.076.29.074c.125-.003.332-.061.584-.436a.46.46 0 0 1 .674-.109c.218.17.27.492.116.722-.382.568-.841.843-1.332.854M7.334 6.833a.833.833 0 1 1-1.667 0 .833.833 0 0 1 1.667 0m3 0a.833.833 0 1 1-1.667 0 .833.833 0 0 1 1.667 0"/><path fill-rule="evenodd" d="m9.52 2.852-.05-.049.39-.39a2.083 2.083 0 0 1 2.947 0l.78.78a2.083 2.083 0 0 1 0 2.947l-.39.39-.047-.047c.29.98.419 1.994.475 2.778.066.92-.206 1.833-.843 2.5-.928.972-2.565 2.24-4.784 2.24-2.184-.001-3.803-1.229-4.74-2.194-.67-.692-.943-1.649-.852-2.608.07-.74.207-1.674.474-2.592l-.467-.467a2.083 2.083 0 0 1 0-2.946l.781-.781a2.083 2.083 0 0 1 2.946 0l.39.39-.013.014a6.8 6.8 0 0 1 3.002.035M4.99 3.4c-.649.379-1.139.983-1.51 1.686l-.006-.007a.583.583 0 0 1 0-.825l.78-.78c.2-.2.51-.225.736-.074m7.576 1.636a.583.583 0 0 0-.039-.782l-.78-.78a.58.58 0 0 0-.738-.073c.676.353 1.18.942 1.557 1.635m-2.258-.31c-1.469-.76-3.371-.72-4.557-.034-.484.28-.927.89-1.272 1.846-.334.925-.501 1.967-.58 2.802-.056.594.119 1.095.437 1.423.81.835 2.064 1.737 3.662 1.737 1.625 0 2.894-.932 3.7-1.775.301-.316.472-.792.431-1.356-.06-.841-.208-1.902-.538-2.835-.34-.962-.787-1.55-1.283-1.808"/></svg>