<svg xmlns="http://www.w3.org/2000/svg" viewBox="0 0 24 24"><path fill-rule="evenodd" d="M3.082 9.924C3.276 7.308 3.374 6 4.686 4.687 6 3.375 7.307 3.277 9.923 3.083A28 28 0 0 1 12.001 3c.699 0 1.399.031 2.077.082 2.616.194 3.924.292 5.236 1.604C20.627 6 20.725 7.308 20.92 9.924c.05.678.081 1.378.081 2.078 0 .699-.03 1.398-.08 2.077-.195 2.616-.293 3.924-1.606 5.236-1.312 1.313-2.62 1.41-5.236 1.605-.678.05-1.378.081-2.077.081s-1.4-.03-2.078-.08c-2.616-.195-3.924-.293-5.237-1.605-1.312-1.313-1.41-2.621-1.604-5.237A28 28 0 0 1 3 12c0-.7.031-1.399.082-2.077m6.97 3.36c1.686 0 3.052-1.35 3.052-3.017S11.738 7.25 10.052 7.25 7 8.6 7 10.267s1.366 3.018 3.052 3.018m6.328-2.109c.342 0 .62-.275.62-.613a.617.617 0 0 0-.62-.614.617.617 0 0 0-.62.614c0 .338.277.613.62.613m-.497.883c0 .678-.555 1.227-1.24 1.227-.686 0-1.241-.55-1.241-1.227s.555-1.226 1.24-1.226c.686 0 1.241.549 1.241 1.226m-1.24 4.636a1.48 1.48 0 0 0 1.488-1.471 1.48 1.48 0 0 0-1.488-1.472 1.48 1.48 0 0 0-1.49 1.472 1.48 1.48 0 0 0 1.49 1.471"/></svg>