<svg xmlns="http://www.w3.org/2000/svg" viewBox="0 0 44 44"><path fill-rule="evenodd" d="M6.12 18.64c.328-4.78.492-7.171 2.92-9.6s4.819-2.592 9.6-2.92C19.74 6.046 20.87 6 22 6s2.26.045 3.36.12c4.781.328 7.172.492 9.6 2.92s2.592 4.82 2.92 9.6c.075 1.1.12 2.23.12 3.36s-.045 2.26-.12 3.36c-.328 4.781-.492 7.172-2.92 9.6s-4.819 2.592-9.6 2.92c-1.1.075-2.23.12-3.36.12s-2.26-.045-3.36-.12c-4.781-.328-7.171-.492-9.6-2.92s-2.592-4.819-2.92-9.6A49 49 0 0 1 6 22c0-1.13.045-2.26.12-3.36m12.374 5.723c3.034 0 5.494-2.432 5.494-5.432s-2.46-5.431-5.494-5.431S13 15.932 13 18.931s2.46 5.432 5.494 5.432m11.39-3.798A1.11 1.11 0 0 0 31 19.461c0-.61-.5-1.104-1.117-1.104a1.11 1.11 0 0 0-1.116 1.104c0 .61.5 1.104 1.116 1.104m-.894 1.59c0 1.219-1 2.207-2.233 2.207s-2.233-.988-2.233-2.207c0-1.22 1-2.208 2.233-2.208s2.233.988 2.233 2.208M26.757 30.5c1.48 0 2.68-1.186 2.68-2.65 0-1.462-1.2-2.649-2.68-2.649s-2.68 1.187-2.68 2.65 1.2 2.649 2.68 2.649"/></svg>