<svg xmlns="http://www.w3.org/2000/svg" viewBox="0 0 24 24"><path fill-rule="evenodd" d="M12 5.001c-.642 0-1.291.029-1.928.076-2.75.205-3.265.318-3.971 1.025-.707.706-.82 1.22-1.025 3.97A26 26 0 0 0 5 12.003c0 .642.029 1.291.076 1.928.205 2.75.318 3.265 1.025 3.971.706.707 1.22.82 3.97 1.025.638.047 1.287.076 1.93.076.642 0 1.291-.029 1.928-.076 2.75-.205 3.265-.318 3.971-1.025.707-.706.82-1.22 1.025-3.97A26 26 0 0 0 19 12c0-.642-.028-1.291-.075-1.928-.205-2.75-.319-3.265-1.025-3.971-.706-.707-1.22-.82-3.97-1.025A26 26 0 0 0 12 5.001m-7.314-.314C3.374 6 3.276 7.308 3.082 9.924A28 28 0 0 0 3 12.002c0 .699.031 1.398.082 2.077.194 2.616.292 3.924 1.604 5.236C6 20.629 7.307 20.726 9.923 20.92c.678.05 1.378.081 2.078.081.699 0 1.399-.03 2.077-.08 2.616-.195 3.924-.293 5.236-1.605 1.313-1.313 1.41-2.621 1.605-5.237C20.97 13.4 21 12.7 21 12s-.03-1.399-.08-2.077c-.195-2.616-.293-3.924-1.606-5.237-1.312-1.312-2.62-1.41-5.236-1.604A28 28 0 0 0 12 3c-.7 0-1.4.031-2.078.082-2.616.194-3.924.292-5.237 1.604m5.366 8.598c1.686 0 3.052-1.351 3.052-3.018S11.738 7.25 10.052 7.25 7 8.6 7 10.267s1.366 3.018 3.052 3.018m6.328-2.11c.342 0 .62-.275.62-.613a.617.617 0 0 0-.62-.614.617.617 0 0 0-.62.614c0 .338.277.613.62.613m-.497.883c0 .678-.555 1.227-1.24 1.227-.686 0-1.241-.55-1.241-1.227s.555-1.226 1.24-1.226c.686 0 1.241.549 1.241 1.226m-1.24 4.636a1.48 1.48 0 0 0 1.488-1.471 1.48 1.48 0 0 0-1.488-1.472 1.48 1.48 0 0 0-1.49 1.472 1.48 1.48 0 0 0 1.49 1.471"/></svg>