<svg xmlns="http://www.w3.org/2000/svg" viewBox="0 0 16 16"><path fill-rule="evenodd" d="M2.054 6.612C2.184 4.87 2.25 4 3.124 3.125c.874-.874 1.745-.94 3.487-1.07.454-.033.921-.054 1.39-.054.467 0 .935.02 1.388.055 1.743.13 2.614.195 3.488 1.069s.94 1.745 1.07 3.487c.033.454.054.922.054 1.39s-.021.935-.055 1.388c-.13 1.743-.195 2.614-1.069 3.488s-1.745.94-3.488 1.07c-.453.033-.921.054-1.389.054s-.935-.02-1.389-.055c-1.742-.13-2.613-.195-3.488-1.069-.874-.874-.939-1.745-1.069-3.488A19 19 0 0 1 2 8.001c0-.467.02-.935.054-1.389m4.777 2.222c1.012 0 1.832-.858 1.832-1.917S7.843 5 6.83 5C5.82 5 5 5.858 5 6.917s.82 1.917 1.831 1.917m3.797-1.34a.38.38 0 0 0 .372-.39.38.38 0 0 0-.372-.39.38.38 0 0 0-.372.39c0 .215.166.39.372.39m-.298.56c0 .43-.333.78-.744.78-.412 0-.745-.35-.745-.78s.333-.779.745-.779c.41 0 .744.35.744.78M9.586 11c.493 0 .893-.419.893-.935s-.4-.935-.893-.935c-.494 0-.894.419-.894.935s.4.935.894.935"/></svg>