<svg xmlns="http://www.w3.org/2000/svg" viewBox="0 0 16 16"><path d="M3.75 1.75a.75.75 0 0 0-1.5 0v2.286l-.023.003c-.41.04-.615.06-.867.309-.252.248-.273.439-.316.819A8 8 0 0 0 1 6v2h4V6c0-.32-.018-.598-.044-.833-.043-.38-.064-.57-.316-.82-.252-.248-.457-.268-.867-.308l-.023-.003zm0 10.105A2 2 0 0 0 5 10v-.5H1v.5a2 2 0 0 0 1.25 1.855v2.395a.75.75 0 0 0 1.5 0zm5-10.105a.75.75 0 0 0-1.5 0v2.286l-.023.003c-.41.04-.615.06-.867.309-.252.248-.273.439-.316.819A8 8 0 0 0 6 6v2h4V6c0-.32-.018-.598-.044-.833-.043-.38-.064-.57-.316-.82-.252-.248-.457-.268-.867-.308l-.023-.003zm0 10.105A2 2 0 0 0 10 10v-.5H6v.5a2 2 0 0 0 1.25 1.855v2.395a.75.75 0 0 0 1.5 0zM13 1a.75.75 0 0 1 .75.75v2.286l.023.003c.41.04.615.06.867.309.252.248.273.439.316.819.026.235.044.513.044.833v2h-4V6c0-.32.018-.598.044-.833.043-.38.064-.57.316-.82.252-.248.457-.268.867-.308l.023-.003V1.75A.75.75 0 0 1 13 1m2 9a2 2 0 0 1-1.25 1.855v2.395a.75.75 0 0 1-1.5 0v-2.395A2 2 0 0 1 11 10v-.5h4z"/></svg>