<svg xmlns="http://www.w3.org/2000/svg" viewBox="0 0 24 24"><path fill-rule="evenodd" d="M5 2a1 1 0 0 1 1 1v3.043l.16.015c.614.06.922.09 1.3.464.378.373.41.658.473 1.228.04.353.067.77.067 1.25 0 1.788-.1 3-.1 3H2.1S2 10.788 2 9c0-.506.032-.941.078-1.306.068-.54.102-.81.476-1.176.375-.367.67-.397 1.258-.457L4 6.043V3a1 1 0 0 1 1-1m7 0a1 1 0 0 1 1 1v3.043l.16.015c.614.06.922.09 1.3.464.378.373.41.658.473 1.228.04.353.067.77.067 1.25 0 1.788-.1 3-.1 3H9.1S9 10.788 9 9c0-.506.032-.941.078-1.306.068-.54.102-.81.476-1.176.375-.367.67-.397 1.258-.457L11 6.043V3a1 1 0 0 1 1-1m8 1a1 1 0 1 0-2 0v3.043l-.188.018c-.589.06-.883.09-1.258.457-.374.366-.408.636-.476 1.176C16.032 8.06 16 8.494 16 9c0 1.788.1 3 .1 3h5.8s.1-1.212.1-3c0-.48-.027-.897-.067-1.25-.064-.57-.095-.855-.473-1.228s-.686-.404-1.3-.464L20 6.043zM2 15v-1h6v1a3 3 0 0 1-2.014 2.834q.015.081.014.166v3a1 1 0 1 1-2 0v-3q0-.085.014-.166A3 3 0 0 1 2 15m7 0v-1h6v1a3 3 0 0 1-2.014 2.834q.015.081.014.166v3a1 1 0 1 1-2 0v-3q0-.085.014-.166A3 3 0 0 1 9 15m9.014 2.834A3 3 0 0 1 16 15v-1h6v1a3 3 0 0 1-2.014 2.834q.015.081.014.166v3a1 1 0 1 1-2 0v-3q0-.085.014-.166"/></svg>