<svg xmlns="http://www.w3.org/2000/svg" viewBox="0 0 44 44"><path fill-rule="evenodd" d="M8.5 4A1.5 1.5 0 0 1 10 5.5v5.515c.932.031 1.517.134 1.97.462a2.5 2.5 0 0 1 .553.553c.477.659.477 1.596.477 3.47v6l-.001.5H4v-6.501c0-1.874 0-2.811.477-3.469a2.5 2.5 0 0 1 .554-.553c.452-.328 1.037-.43 1.969-.463V5.5A1.5 1.5 0 0 1 8.5 4M10 31.692c1.714-.752 2.72-2.77 2.847-4.84q.024-.406.047-.852H4.106q.022.445.047.852c.127 2.07 1.133 4.088 2.847 4.84V38.5a1.5 1.5 0 0 0 3 0zM35.5 4A1.5 1.5 0 0 1 37 5.5v5.515c.932.031 1.517.134 1.97.462a2.5 2.5 0 0 1 .553.553c.477.659.477 1.596.477 3.47v6l-.001.5H31v-6.501c0-1.874 0-2.811.477-3.469a2.5 2.5 0 0 1 .554-.553c.452-.328 1.037-.43 1.969-.463V5.5A1.5 1.5 0 0 1 35.5 4M37 31.692c1.714-.752 2.72-2.77 2.847-4.84q.024-.406.047-.852h-8.788q.022.445.047.852c.127 2.07 1.133 4.088 2.847 4.84V38.5a1.5 1.5 0 0 0 3 0zM23.5 5.5a1.5 1.5 0 0 0-3 0v5.515c-.932.031-1.517.134-1.97.462a2.5 2.5 0 0 0-.553.553c-.477.658-.477 1.595-.477 3.469V21.5l.001.5H26.5l.001-.5v-6.001c0-1.874 0-2.811-.477-3.469a2.5 2.5 0 0 0-.553-.553c-.453-.328-1.038-.43-1.97-.463zm2.847 21.352c-.127 2.07-1.133 4.088-2.847 4.84V38.5a1.5 1.5 0 0 1-3 0v-6.808c-1.714-.752-2.72-2.77-2.847-4.84q-.024-.406-.047-.852h8.788q-.022.445-.047.852"/></svg>