<svg xmlns="http://www.w3.org/2000/svg" viewBox="0 0 16 16"><path d="M5.14 3.938a1.42 1.42 0 0 1-.042-1.158 3.5 3.5 0 0 1 .819-1.231c.441-.432.856-.658 1.5-.795C8.026.626 8.66.626 9.243.838c.78.284 2.017.94 3.532 2.46 1.183 1.186 1.772 2.135 2.174 2.932.504.998.505 2.038.035 3.053-.134.29-.315.538-.565.795a3.5 3.5 0 0 1-1.229.822c-.37.15-.795.137-1.152-.043a3.6 3.6 0 0 1-1.03-.778c-.31-.33-.465-.496-.481-1.05-.017-.555.167-.775.534-1.216a9 9 0 0 1 .69-.74l-.2-.227-2.391-2.4-.248-.22-.163.168a9 9 0 0 1-.573.523c-.44.369-.66.553-1.212.537-.553-.016-.718-.172-1.048-.483l-.117-.113a3.6 3.6 0 0 1-.658-.92M3.938 5.142A1.42 1.42 0 0 0 2.78 5.1c-.362.146-.832.4-1.23.82-.433.44-.659.855-.795 1.5-.129.607-.128 1.24.084 1.824.283.78.94 2.017 2.46 3.533 1.186 1.182 2.134 1.772 2.931 2.174.998.503 2.039.505 3.053.034.29-.134.54-.316.798-.567a3.5 3.5 0 0 0 .82-1.227c.15-.369.137-.795-.043-1.152a3.6 3.6 0 0 0-.779-1.03c-.33-.31-.496-.465-1.05-.481s-.775.167-1.216.534a9 9 0 0 0-.74.69l-.226-.2-2.4-2.391-.22-.248a8 8 0 0 0 .69-.736c.369-.44.553-.66.537-1.212s-.171-.717-.483-1.048l-.113-.116a3.6 3.6 0 0 0-.92-.659"/><path d="M8.467 8.702a2 2 0 0 0 .236-.235l.015-.018c.113-.131.215-.249.215-.45 0-.2-.102-.317-.215-.449l-.015-.017a2 2 0 0 0-.236-.235l-.017-.016c-.131-.113-.25-.215-.45-.215s-.318.102-.45.215l-.017.016a2 2 0 0 0-.235.235l-.015.017c-.114.132-.216.25-.216.45s.102.318.216.45l.015.017a2 2 0 0 0 .235.235l.018.015c.131.114.25.216.45.216s.318-.102.449-.216z"/></svg>