<svg xmlns="http://www.w3.org/2000/svg" viewBox="0 0 24 24"><path fill-rule="evenodd" d="M21.88 12.791c-.186.88-.493 1.445-1.083 2.046a4.8 4.8 0 0 1-1.679 1.118 1.93 1.93 0 0 1-1.578-.058 4.9 4.9 0 0 1-1.469-1.12c-.675-.728-1.012-1.092-1.017-1.862s.35-1.162 1.055-1.943l-3.063-3.053c-.784.703-1.177 1.056-1.95 1.051s-1.138-.34-1.868-1.014a4.9 4.9 0 0 1-1.124-1.465 1.9 1.9 0 0 1-.059-1.57c.2-.492.545-1.13 1.118-1.673.352-.343.692-.59 1.088-.774 1.383-.64 2.802-.639 4.163.048 1.087.548 2.38 1.352 3.998 2.964 2.073 2.067 2.968 3.755 3.354 4.817.289.796.29 1.66.115 2.488M11.086 7.145l1.18-1.179a1.045 1.045 0 0 1 1.478 0l4.32 4.32c.402.403.407 1.054.005 1.459l-.042.042c-.382.385-.766.772-1.136 1.167.15.212.34.398.515.587q.082.089.164.17c.258.258.575.445.817.567.34-.138.802-.387 1.112-.713.344-.35.488-.604.604-1.15.124-.588.1-1.093-.045-1.49-.286-.788-1.025-2.254-2.929-4.15-1.47-1.466-2.603-2.16-3.533-2.63-.847-.427-1.681-.437-2.58-.021-.17.08-.344.194-.583.427-.326.308-.572.759-.71 1.097a3.2 3.2 0 0 0 .737.97c.2.184.393.386.626.527M2.12 11.209c.186-.88.494-1.445 1.083-2.046a4.8 4.8 0 0 1 1.679-1.118 1.93 1.93 0 0 1 1.578.058 4.9 4.9 0 0 1 1.469 1.12c.674.728 1.012 1.092 1.017 1.862s-.35 1.162-1.055 1.943l3.063 3.053c.784-.703 1.177-1.056 1.95-1.051s1.138.341 1.868 1.014q.114.104.223.213c.427.425.714.88.901 1.251a1.9 1.9 0 0 1 .059 1.571c-.2.492-.545 1.13-1.118 1.673-.352.343-.692.59-1.088.774-1.383.64-2.802.639-4.163-.048-1.087-.548-2.38-1.352-3.998-2.964-2.073-2.067-2.968-3.755-3.354-4.817-.289-.796-.29-1.66-.115-2.488m10.795 5.646-1.18 1.179a1.045 1.045 0 0 1-1.478 0l-4.32-4.32a1.03 1.03 0 0 1-.005-1.459l.042-.042a54 54 0 0 0 1.136-1.167c-.15-.212-.34-.398-.515-.587a3.2 3.2 0 0 0-.981-.736c-.34.137-.802.386-1.112.712-.344.35-.488.604-.604 1.15-.124.588-.1 1.093.045 1.49.286.788 1.025 2.254 2.929 4.15 1.47 1.466 2.603 2.16 3.533 2.63.847.427 1.681.437 2.58.021.17-.08.344-.194.583-.427.326-.308.572-.759.71-1.097a3.2 3.2 0 0 0-.737-.97c-.2-.184-.393-.386-.626-.527"/><path d="M12.637 12.958a3 3 0 0 0 .32-.321l.021-.024c.155-.18.294-.34.294-.613s-.139-.434-.294-.613l-.02-.024a3 3 0 0 0-.321-.32l-.024-.021c-.18-.155-.34-.294-.613-.294s-.434.139-.613.294l-.024.02a3 3 0 0 0-.32.321l-.021.024c-.155.18-.294.34-.294.613s.139.434.294.613l.02.024a3 3 0 0 0 .32.32l.025.021c.179.155.34.294.613.294s.434-.139.613-.294z"/></svg>