<svg xmlns="http://www.w3.org/2000/svg" viewBox="0 0 24 24"><path d="M7.71 5.906a2.12 2.12 0 0 1-.064-1.735c.22-.544.599-1.249 1.229-1.847.662-.65 1.284-.988 2.251-1.193.91-.192 1.861-.191 2.737.127 1.168.424 3.025 1.409 5.298 3.69 1.773 1.778 2.658 3.201 3.261 4.396.755 1.498.758 3.058.052 4.58-.201.435-.472.807-.848 1.193-.597.633-1.3 1.013-1.843 1.233a2.1 2.1 0 0 1-1.728-.064 5.4 5.4 0 0 1-1.546-1.168c-.465-.496-.697-.744-.721-1.575-.024-.832.251-1.162.802-1.823a13 13 0 0 1 1.035-1.11l-.3-.34-3.588-3.6-.371-.331q-.12.128-.244.252c-.28.28-.574.545-.86.785-.66.553-.99.83-1.818.805s-1.076-.257-1.572-.724l-.175-.17a5.4 5.4 0 0 1-.987-1.38M5.906 7.714A2.12 2.12 0 0 0 4.17 7.65c-.543.22-1.248.599-1.847 1.23-.648.661-.987 1.282-1.192 2.25-.192.91-.191 1.861.127 2.736.424 1.17 1.409 3.026 3.69 5.299 1.778 1.773 3.201 2.658 4.397 3.26 1.497.756 3.057.758 4.579.053.436-.202.81-.474 1.196-.851.631-.596 1.01-1.299 1.23-1.84a2.1 2.1 0 0 0-.064-1.728 5.4 5.4 0 0 0-1.168-1.546c-.496-.465-.744-.697-1.575-.721-.832-.024-1.162.251-1.824.802a13 13 0 0 0-1.11 1.035l-.34-.3L6.67 13.74l-.331-.372q.128-.12.252-.243c.28-.28.544-.574.784-.86.553-.66.83-.99.806-1.818s-.258-1.076-.724-1.572L7.286 8.7a5.4 5.4 0 0 0-1.38-.987"/><path d="M12.7 13.053a3.4 3.4 0 0 0 .353-.353l.023-.026c.17-.197.323-.374.323-.674s-.153-.477-.323-.675l-.023-.026a3.4 3.4 0 0 0-.352-.352l-.027-.023c-.197-.17-.374-.323-.674-.323s-.477.152-.675.323l-.026.023a3.4 3.4 0 0 0-.352.352l-.023.026c-.17.198-.323.375-.323.675s.153.477.323.674l.023.027a3 3 0 0 0 .352.352l.027.023c.197.17.374.323.674.323s.477-.153.675-.323z"/></svg>