<svg xmlns="http://www.w3.org/2000/svg" viewBox="0 0 24 24"><path d="M4 19a1 1 0 1 0 0 2h16a1 1 0 1 0 0-2zm7-4.967V3a1 1 0 1 1 2 0v11.035c.172-.214.371-.466.61-.768.504-.64.905-1.15 1.222-1.572.302-.402.63-.695 1.169-.695.228 0 .47.108.645.292.28.296.385.788-.027 1.35-.38.52-.86 1.129-1.44 1.864-1.107 1.404-1.66 2.106-2.336 2.348a2.5 2.5 0 0 1-1.685 0c-.676-.242-1.23-.944-2.337-2.348a70 70 0 0 1-1.44-1.863c-.41-.563-.306-1.056-.026-1.351A.92.92 0 0 1 8 11c.539 0 .866.293 1.168.695a91 91 0 0 0 1.224 1.572c.237.301.436.553.608.766"/></svg>