<svg xmlns="http://www.w3.org/2000/svg" viewBox="0 0 32 32"><path fill-rule="evenodd" d="M18.573 22.282a6.15 6.15 0 0 0-.786 3.218H10.03c-.885 0-1.762-.277-2.396-.895A11.97 11.97 0 0 1 3.998 16c0-6.627 5.373-12 12-12s12 5.373 12 12c0 1.046-.134 2.06-.385 3.027l-.33-.593c-1.432-2.579-5.14-2.579-6.572 0zM12.63 10.866a1.25 1.25 0 0 0-1.768 1.768l4.252 4.25a1.25 1.25 0 0 0 1.768-1.768z"/><path d="M23.995 19c-.43 0-.86.217-1.099.648l-2.138 3.848a3.67 3.67 0 0 0-.465 2.004c.107 1.854 1.624 3.5 3.704 3.5 2.825 0 4.61-3.035 3.239-5.504l-2.138-3.848A1.25 1.25 0 0 0 23.995 19"/></svg>