<svg xmlns="http://www.w3.org/2000/svg" viewBox="0 0 44 44"><path d="M32.94 25.503a1.8 1.8 0 0 0-1.538.938l-3.1 5.579C26.315 35.6 28.903 40 33 40c4.095 0 6.684-4.4 4.695-7.98l-1.482-2.667-1.617-2.912a1.81 1.81 0 0 0-1.655-.938"/><path fill-rule="evenodd" d="M25.68 30.563A8.3 8.3 0 0 0 24.625 35H14.44c-1.152 0-2.294-.34-3.15-1.111A15.96 15.96 0 0 1 5.998 22c0-8.837 7.164-16 16-16s16 7.163 16 16c0 1.252-.144 2.47-.416 3.64l-.365-.656c-1.838-3.31-6.598-3.31-8.437 0zm-8.62-15.624a1.5 1.5 0 0 0-2.122 2.122l6 6a1.5 1.5 0 0 0 2.122-2.122z"/></svg>