<svg xmlns="http://www.w3.org/2000/svg" viewBox="0 0 32 32"><path d="M25.48 16.603q.018-.3.018-.603a9.5 9.5 0 1 0-19 0c0 2.672 1.1 5.084 2.88 6.813.065.064.26.187.653.187h7.248a1.25 1.25 0 0 1 1.219 1.25c0 .68-.564 1.233-1.24 1.25h-7.227c-.885 0-1.762-.277-2.396-.895A11.97 11.97 0 0 1 3.998 16c0-6.627 5.373-12 12-12s12 5.373 12 12q0 .417-.03.827a1.25 1.25 0 1 1-2.489-.224"/><path d="M10.862 10.866a1.25 1.25 0 0 1 1.768 0l4.252 4.25a1.25 1.25 0 1 1-1.768 1.768l-4.252-4.25a1.25 1.25 0 0 1 0-1.768m14.236 8.782a1.26 1.26 0 0 0-2.201 0l-2.138 3.848c-1.372 2.47.413 5.504 3.238 5.504s4.61-3.035 3.239-5.504z"/></svg>