<svg xmlns="http://www.w3.org/2000/svg" viewBox="0 0 24 24"><path d="M7.949 3.168A47 47 0 0 1 12.004 3c1.55 0 2.902.068 4.054.168 2.026.175 3.038.263 4.328 1.557s1.37 2.265 1.532 4.207a25 25 0 0 1 0 4.137c-.162 1.941-.243 2.912-1.532 4.206s-2.302 1.382-4.327 1.557c-1.153.1-2.505.168-4.055.168a47 47 0 0 1-4.055-.168c-2.024-.175-3.037-.263-4.326-1.557-1.29-1.294-1.37-2.264-1.532-4.205a25 25 0 0 1 0-4.14c.162-1.94.243-2.911 1.532-4.205S5.925 3.344 7.95 3.168M8.004 20a1 1 0 1 0 0 2h8a1 1 0 1 0 0-2z"/></svg>