<svg xmlns="http://www.w3.org/2000/svg" viewBox="0 0 16 16"><path fill-rule="evenodd" d="M5.831 3.908a53 53 0 0 0-1.234.054c-.865.048-1.297.072-1.666.404-.369.331-.386.67-.421 1.349a6 6 0 0 0 0 .57c.035.679.052 1.018.421 1.35.369.33.801.355 1.666.403q.507.03 1.152.051c.002 1.763.044 3.182.093 4.244.05 1.1.076 1.651.427 2.12s.71.492 1.428.537a5 5 0 0 0 .604 0c.718-.045 1.078-.067 1.429-.537.35-.469.376-1.02.427-2.12.049-1.062.09-2.481.092-4.244q.645-.022 1.153-.051c.865-.048 1.297-.072 1.666-.404.369-.331.386-.67.422-1.35a6 6 0 0 0 0-.569c-.036-.679-.053-1.018-.422-1.35-.369-.33-.8-.355-1.665-.403q-.54-.03-1.235-.054l-.011-.24c-.051-1.102-.077-1.652-.428-2.122-.35-.47-.71-.492-1.428-.536a5 5 0 0 0-.603 0c-.719.045-1.078.067-1.429.536-.35.47-.376 1.02-.427 2.121zm1.417 2.73.001 1.45a92 92 0 0 0 .091 4.176c.019.395.007.816.1 1.204.185.018.373.032.56.032.186 0 .373-.014.559-.032.093-.388.081-.809.1-1.205a92 92 0 0 0 .09-4.175l.001-1.45c1.072-.035 2.16-.023 3.225-.144q.02-.247.022-.494-.002-.248-.022-.494C10.898 5.4 9.81 5.397 8.73 5.363l-.07-1.626c-.028-.586-.044-.893-.082-1.116l-.018-.09A6 6 0 0 0 8 2.5a6 6 0 0 0-.56.032l-.017.089c-.038.223-.055.53-.082 1.116q-.037.813-.07 1.626c-1.08.034-2.173.021-3.246.143A7 7 0 0 0 4.003 6q.002.248.022.494c1.066.12 2.152.109 3.224.145"/></svg>