<svg xmlns="http://www.w3.org/2000/svg" viewBox="0 0 24 24"><path fill-rule="evenodd" d="M9.886 7.937q.505.032 1.114.05v1.018a78 78 0 0 0-3.822.13c-.878.052-1.712.33-2.3.761-.567.417-.878.95-.878 1.604s.31 1.187.878 1.604c.588.432 1.422.709 2.3.762C8.419 13.94 10.028 14 12 14s3.581-.06 4.823-.134c.877-.053 1.711-.33 2.299-.762.567-.417.878-.95.878-1.604s-.311-1.187-.878-1.604c-.588-.432-1.422-.709-2.299-.762A78 78 0 0 0 13 9.005V7.987q.609-.018 1.113-.05C15.63 7.842 16.98 6.84 17 5.32v-.14c-.019-1.52-1.37-2.523-2.887-2.618-.595-.037-1.3-.063-2.113-.063-.814 0-1.519.026-2.113.063C8.369 2.656 7.019 3.658 7 5.178v.142c.02 1.52 1.37 2.522 2.886 2.617M9 5.203v.092c.002.123.041.228.18.347.165.14.457.276.832.299a32 32 0 0 0 1.988.06 32 32 0 0 0 1.988-.06c.375-.023.666-.158.831-.299.14-.12.18-.224.18-.348L15 5.25v-.045c-.002-.123-.041-.228-.181-.348-.165-.14-.456-.275-.831-.299A32 32 0 0 0 12 4.498c-.772 0-1.435.024-1.988.06-.375.023-.667.157-.831.298-.14.12-.18.224-.18.347"/><path d="M4.311 17.86C3.689 16.73 3.18 15.37 3 14.253c.999 1.001 2.698 1.526 4.058 1.608C8.338 15.94 9.988 16 12 16s3.662-.06 4.943-.138c1.358-.082 3.059-.607 4.057-1.606-.18 1.116-.69 2.474-1.312 3.603-.768 1.393-1.525 2.73-3.284 2.943-.667.08-1.47.153-2.404.198-.002-.47-.03-.94-.067-1.347-.054-.606-.081-.909-.353-1.19-.38-.395-1.058-.416-1.58-.416s-1.2.02-1.58.415c-.272.282-.3.585-.353 1.19-.036.409-.065.877-.067 1.348a33 33 0 0 1-2.404-.198c-1.759-.213-2.517-1.55-3.285-2.943"/></svg>