<svg xmlns="http://www.w3.org/2000/svg" viewBox="0 0 16 16"><path fill-rule="evenodd" d="M6.451 1.555c.43-.03.948-.05 1.55-.05.601 0 1.118.02 1.548.05 1.018.07 1.906.75 1.948 1.768a4 4 0 0 1 0 .359c-.042 1.019-.93 1.698-1.948 1.768q-.36.025-.799.04v.514c1.026.012 1.884.047 2.573.088 1.332.08 2.677.826 2.677 2.16.008.658-.187 2.406-.874 3.654-.512.929-1.017 1.79-2.19 1.93-.735.09-1.715.164-2.936.164s-2.2-.074-2.936-.163c-1.172-.142-1.678-1.002-2.19-1.93C2.187 10.658 1.993 8.91 2 8.251c0-1.335 1.346-2.081 2.679-2.16a54 54 0 0 1 2.571-.088V5.49q-.44-.014-.799-.039c-1.017-.07-1.905-.749-1.947-1.768a4 4 0 0 1 0-.36c.042-1.018.93-1.697 1.947-1.767m1.55 1.45c-.568 0-1.05.019-1.447.046a.8.8 0 0 0-.462.167c-.07.06-.087.109-.09.167a3 3 0 0 0 0 .235c.003.058.02.106.09.167a.8.8 0 0 0 .462.167 23 23 0 0 0 2.892-.001.8.8 0 0 0 .463-.167c.07-.061.087-.11.089-.167a3 3 0 0 0 0-.235c-.002-.058-.02-.106-.09-.167a.8.8 0 0 0-.462-.167A21 21 0 0 0 8 3.004M8 7.5c-1.334 0-2.412.04-3.233.089-.443.026-.823.164-1.05.328-.195.141-.218.243-.218.335s.023.194.218.335c.227.164.607.302 1.05.328.82.05 1.9.09 3.232.09 1.334 0 2.413-.04 3.233-.09.443-.026.823-.164 1.05-.328.195-.14.217-.243.217-.335s-.022-.194-.217-.335c-.227-.164-.607-.302-1.05-.328A54 54 0 0 0 8 7.5m-3.322 2.913a4 4 0 0 1-.865-.148c.097.321.22.638.374.917.253.46.457 1.093 1.056 1.166.357.043.78.083 1.272.111q.014-.196.03-.373c.041-.406.061-.609.24-.794.282-.29.83-.292 1.214-.292.383 0 .931.001 1.213.292.18.185.2.388.24.794q.017.178.03.373c.492-.028.916-.068 1.273-.111.599-.073.803-.707 1.056-1.166.154-.279.277-.596.374-.917-.279.081-.571.13-.863.148-.85.05-1.96.091-3.323.091s-2.471-.04-3.321-.091"/></svg>