<svg xmlns="http://www.w3.org/2000/svg" viewBox="0 0 24 24"><path fill-rule="evenodd" d="M17 5.25c-.018 1.52-1.369 2.592-2.886 2.687q-.504.032-1.113.05v1.018c1.544.016 2.84.068 3.883.131 2.06.124 4.116 1.316 4.116 3.38-.003 1.034-.306 3.518-1.311 5.343l-.527.956c-.5 1.063-1.527 1.791-2.758 1.94a37 37 0 0 1-4.403.245 37 37 0 0 1-4.405-.245c-1.225-.148-2.25-.872-2.75-1.927l-.534-.969C3.28 15.987 2.989 13.487 3 12.5c.01-2.055 2.062-3.24 4.117-3.364A79 79 0 0 1 11 9.006v-1.02a32 32 0 0 1-1.114-.049C8.37 7.842 7.015 6.77 6.997 5.25c.018-1.52 1.373-2.592 2.89-2.687.595-.037 1.3-.063 2.114-.063s1.518.026 2.113.063C15.63 2.658 16.982 3.73 17 5.25m-5-.75c-.771 0-1.435.024-1.988.059-.342.021-.63.154-.806.31-.15.133-.201.258-.209.381.008.123.06.248.209.38.177.157.464.29.806.311C10.565 5.976 11.229 6 12 6s1.434-.024 1.988-.059a1.36 1.36 0 0 0 .803-.31c.149-.131.2-.256.208-.381-.007-.125-.06-.25-.208-.382a1.36 1.36 0 0 0-.804-.309A32 32 0 0 0 12 4.5m0 6.5c-1.95 0-3.54.06-4.762.133-.724.043-1.363.272-1.767.569-.363.267-.47.521-.47.798s.107.531.47.798c.404.297 1.043.526 1.767.57 1.222.073 2.811.132 4.763.132s3.54-.06 4.763-.133c.724-.043 1.363-.272 1.766-.569.363-.267.47-.52.47-.798 0-.277-.107-.531-.47-.798-.403-.297-1.042-.526-1.766-.57A80 80 0 0 0 12 11m-4.882 4.864a6 6 0 0 1-1.615-.323c.148.473.332.939.56 1.353.429.777.76 1.753 1.773 1.876.607.073 1.342.14 2.204.183q.012-.18.028-.347c.054-.606.08-.908.353-1.19C10.8 17.02 11.479 17 12 17s1.2.021 1.58.416c.272.282.299.584.353 1.19q.015.167.027.347c.862-.043 1.597-.11 2.204-.183 1.012-.123 1.344-1.099 1.772-1.876.228-.414.412-.88.56-1.352a6 6 0 0 1-1.613.322A82 82 0 0 1 12 16a82 82 0 0 1-4.883-.136"/></svg>