<svg xmlns="http://www.w3.org/2000/svg" viewBox="0 0 32 32"><path fill-rule="evenodd" d="M13.28 4.079A45 45 0 0 1 16 4c1.046 0 1.953.032 2.72.079 1.99.12 3.78 1.428 3.78 3.422s-1.79 3.3-3.78 3.421q-.665.042-1.47.063v1.02c2.138.021 3.914.092 5.324.176 1.145.068 2.242.423 3.017.983.749.541 1.16 1.232 1.16 2.086s-.411 1.545-1.16 2.086c-.775.56-1.872.915-3.017.983-1.676.1-3.87.18-6.574.18s-4.896-.08-6.572-.18c-1.146-.068-2.243-.424-3.018-.983-.75-.541-1.16-1.232-1.16-2.086s.41-1.545 1.16-2.086c.775-.56 1.872-.915 3.018-.983 1.41-.084 3.185-.155 5.322-.175v-1.02a42 42 0 0 1-1.47-.064c-1.99-.12-3.78-1.427-3.78-3.421s1.79-3.301 3.78-3.422M16 6.5c-.995 0-1.851.03-2.569.074-.52.032-.932.218-1.17.419-.203.173-.261.328-.261.508s.058.335.262.507c.237.202.649.388 1.17.42.717.043 1.573.073 2.568.073s1.852-.03 2.57-.074c.52-.031.932-.217 1.168-.419.204-.172.262-.327.262-.507s-.058-.336-.262-.508c-.236-.201-.649-.387-1.169-.419A43 43 0 0 0 16 6.5"/><path d="M4 18.685c.217 1.514.84 3.436 1.699 5.034.515 1.073 1.223 2.059 1.798 2.74a3.74 3.74 0 0 0 2.452 1.317c.776.088 1.92.177 3.557.224q-.006-.232-.006-.467c0-.656.038-1.313.086-1.88.067-.802.101-1.204.467-1.583.479-.497 1.289-.537 1.947-.537s1.468.04 1.948.537c.365.38.399.78.467 1.583.047.567.085 1.224.085 1.88q0 .234-.006.467c1.637-.047 2.781-.136 3.558-.224a3.74 3.74 0 0 0 2.451-1.318c.574-.678 1.28-1.66 1.795-2.73.86-1.6 1.485-3.526 1.702-5.043-1.3 1.342-3.48 2.022-5.277 2.13A114 114 0 0 1 16 21c-2.753 0-4.996-.083-6.721-.186-1.798-.107-3.978-.787-5.279-2.129"/></svg>