<svg xmlns="http://www.w3.org/2000/svg" viewBox="0 0 16 16"><path fill-rule="evenodd" d="M6.451 1.547c.431-.03.948-.05 1.549-.05s1.118.02 1.548.05c1.018.07 1.906.75 1.948 1.77a4 4 0 0 1 0 .363c-.042 1.02-.93 1.7-1.948 1.77q-.36.025-.798.04v.514c1.01.012 1.853.046 2.528.086.554.033 1.079.205 1.444.469.349.252.528.564.528.943 0 .38-.18.69-.528.943-.365.264-.89.436-1.444.469-.836.05-1.93.09-3.278.09s-2.442-.04-3.277-.09c-.555-.033-1.08-.205-1.444-.469-.35-.252-.529-.563-.529-.943s.18-.69.529-.943c.365-.264.89-.436 1.444-.469.675-.04 1.518-.074 2.527-.086V5.49a21 21 0 0 1-.799-.04c-1.017-.07-1.904-.75-1.947-1.768a4 4 0 0 1 0-.365c.043-1.02.93-1.7 1.947-1.77M8 2.997c-.567 0-1.049.019-1.446.046a.8.8 0 0 0-.461.167c-.07.061-.088.11-.09.168a3 3 0 0 0 0 .24c.002.059.02.107.09.168a.8.8 0 0 0 .461.167C6.951 3.981 7.434 4 8 4c.567 0 1.049-.02 1.445-.047a.8.8 0 0 0 .462-.167c.07-.06.088-.11.09-.168a3 3 0 0 0 0-.24c-.002-.058-.02-.107-.09-.168a.8.8 0 0 0-.462-.167A21 21 0 0 0 8 2.996"/><path d="M14 9.406c-.114.761-.441 1.754-.875 2.54-.511.928-1.017 1.789-2.19 1.93q-.606.077-1.434.124a10 10 0 0 0-.049-.875c-.04-.405-.06-.608-.24-.793-.28-.291-.829-.292-1.212-.292-.384 0-.932.001-1.213.292-.18.185-.2.388-.24.793-.026.266-.047.57-.049.875a22 22 0 0 1-1.434-.123c-1.172-.142-1.678-1.003-2.19-1.931-.433-.787-.76-1.78-.874-2.542.67.63 1.745.954 2.634 1.007A57 57 0 0 0 8 10.504c1.378 0 2.502-.041 3.367-.093.888-.053 1.964-.377 2.633-1.005"/></svg>