<svg xmlns="http://www.w3.org/2000/svg" viewBox="0 0 16 16"><path fill-rule="evenodd" d="M8 4.5a35 35 0 0 0-3.082.13c-.7.064-1.016.099-1.263.173-.164.05-.319.124-.564.368a.9.9 0 0 0-.161.227c-.17.335-.434.602-.81.602-.522 0-.957-.473-.754-.954.133-.316.336-.61.667-.938.8-.796 1.45-.854 2.75-.971C5.668 3.057 6.741 3 8 3s2.332.057 3.216.137c1.3.117 1.951.175 2.751.97.8.797.857 1.389.97 2.573a14 14 0 0 1 0 2.64c-.113 1.185-.17 1.777-.97 2.573-.8.795-1.45.854-2.751.97a34 34 0 0 1-1.957.118.74.74 0 0 1-.759-.743c0-.41.33-.744.74-.758.69-.022 1.305-.062 1.842-.11.7-.063 1.016-.098 1.263-.173.165-.05.319-.123.564-.368.263-.261.332-.41.374-.54.067-.206.1-.47.16-1.11a12.4 12.4 0 0 0 0-2.357c-.06-.641-.093-.904-.16-1.111-.042-.13-.11-.278-.373-.54-.246-.244-.4-.318-.565-.368-.247-.074-.564-.11-1.263-.172-.84-.076-1.868-.13-3.082-.13M1.683 7.37a.64.64 0 0 0-.67.646c0 .361.29.655.651.677.088.005.275.002.47-.001.232-.004.475-.009.578.001 1.589.149 1.83.22 2.19.578.358.358.429.6.58 2.188.01.107.013.33.016.538.002.16.004.313.009.397.022.36.316.65.677.65a.64.64 0 0 0 .646-.67 12 12 0 0 1-.012-.428 11 11 0 0 0-.02-.612c-.143-1.5-.214-2.251-.963-2.999-.748-.747-1.499-.817-3-.958a9 9 0 0 0-.644-.006 10 10 0 0 1-.508 0m.08 2.117c.828.044 1.931.133 2.362.564.43.43.479 1.194.505 1.68.026.485.007.882-.13 1.019-.258.258-.76.258-1.018 0-.18-.18-.185-.713-.189-1.097a4 4 0 0 0-.01-.31c-.033-.37-.083-.417-.454-.45l-.217-.015c-.42-.025-1.15-.068-1.345-.263a.661.661 0 0 1 .495-1.128M2.5 12.25a.75.75 0 1 1-1.5 0 .75.75 0 0 1 1.5 0m6.53-6.18a.75.75 0 1 0-1.06 1.06l.886.887-.853.853a.75.75 0 0 0 1.06 1.06l.854-.853.853.853a.75.75 0 1 0 1.06-1.06l-.853-.853.887-.887a.75.75 0 1 0-1.061-1.06l-.886.886z"/></svg>