<svg xmlns="http://www.w3.org/2000/svg" viewBox="0 0 24 24"><path fill-rule="evenodd" d="M12 6c-1.49 0-2.786.066-3.881.16-1.079.094-1.602.15-2.023.279-.312.096-.612.25-1.06.698-.457.46-.606.755-.696 1.044-.142.454-.515.819-.991.819h-.06c-.597 0-1.082-.523-.943-1.104.187-.782.528-1.422 1.274-2.17 1.289-1.294 2.3-1.382 4.326-1.558C9.098 4.068 10.45 4 12 4s2.901.068 4.054.168c2.025.176 3.038.264 4.327 1.558s1.37 2.265 1.532 4.206a25 25 0 0 1 0 4.137c-.161 1.941-.242 2.912-1.532 4.206s-2.302 1.382-4.327 1.558q-.931.082-2.035.128a.984.984 0 0 1-1.02-.99c0-.544.436-.988.98-1.01q1.034-.044 1.902-.12c1.08-.094 1.603-.15 2.024-.279.312-.096.612-.25 1.06-.699.457-.459.606-.755.696-1.043.122-.394.173-.88.26-1.917a23 23 0 0 0 0-3.805c-.087-1.037-.138-1.523-.26-1.917-.09-.288-.239-.584-.696-1.043-.448-.45-.748-.603-1.06-.7-.421-.129-.945-.184-2.024-.277A45 45 0 0 0 12.001 6m-9.566 5.096a1 1 0 0 0-.309.71v.002a.98.98 0 0 0 .943.997l.04.003q.58.033 1.15.088c2.68.257 3.152.344 3.834 1.025s.769 1.154 1.03 3.833q.056.57.09 1.149l.002.04a.98.98 0 0 0 .998.942 1 1 0 0 0 .707-.304 1 1 0 0 0 .292-.744l.002.032-.002-.038v.006a31 31 0 0 0-.099-1.277l-.019-.198c-.234-2.414-.352-3.622-1.588-4.857-1.235-1.234-2.443-1.35-4.858-1.58l-.198-.02q-.628-.06-1.276-.097a1 1 0 0 0-.74.288m4.246 4.24c-.526-.524-1.054-.699-1.975-.864-.536-.096-1.83-.289-2.271.152a1 1 0 0 0 .576 1.698q.03.016.064.021c.33.055.727.1 1.078.14.4.044.743.082.864.122a.5.5 0 0 1 .251.147.5.5 0 0 1 .147.25c.075.226.145.528.262 1.231a.2.2 0 0 0 .014.048c.025.218.143 1.052.31 1.219a1 1 0 0 0 1.414 0c.438-.438.23-1.66.133-2.193-.166-.918-.341-1.445-.867-1.97M4.5 18.5a1 1 0 1 1-2 0 1 1 0 0 1 2 0m9.207-10.207a1 1 0 1 0-1.414 1.414L13.586 11l-1.293 1.293a1 1 0 0 0 1.414 1.414L15 12.414l1.293 1.293a1 1 0 0 0 1.414-1.414L16.414 11l1.293-1.293a1 1 0 0 0-1.414-1.414L15 9.586z"/></svg>