<svg xmlns="http://www.w3.org/2000/svg" viewBox="0 0 16 16"><path d="M2.678 3.692c.029-.388.043-.581.238-.776s.388-.21.776-.238a4 4 0 0 1 .616 0c.388.029.582.043.776.238s.21.388.238.776a4 4 0 0 1 0 .616c-.029.388-.043.581-.238.776-.194.195-.388.21-.776.238a4 4 0 0 1-.616 0c-.388-.029-.581-.043-.776-.238s-.21-.388-.238-.776a4 4 0 0 1 0-.616m0 4.002c.029-.388.043-.582.238-.776s.388-.21.776-.238a4 4 0 0 1 .616 0c.388.029.581.043.776.238.195.194.21.388.238.776a4 4 0 0 1 0 .616c-.029.388-.043.581-.238.776s-.388.21-.776.238a4 4 0 0 1-.616 0c-.388-.029-.581-.043-.776-.238s-.21-.388-.238-.776a4 4 0 0 1 0-.616m.238 3.222c-.195.194-.21.388-.238.776a4 4 0 0 0 0 .616c.029.388.043.582.238.776s.388.21.776.238a4 4 0 0 0 .616 0c.388-.029.581-.043.776-.238.195-.194.21-.388.238-.776a4 4 0 0 0 0-.616c-.029-.388-.043-.582-.238-.776s-.388-.21-.776-.238a4 4 0 0 0-.616 0c-.388.029-.581.043-.776.238m7.762-7.224c.029-.388.043-.581.238-.776.194-.195.388-.21.776-.238a4 4 0 0 1 .616 0c.388.029.582.043.776.238s.21.388.238.776a4 4 0 0 1 0 .616c-.029.388-.043.581-.238.776-.194.195-.388.21-.776.238a4 4 0 0 1-.616 0c-.388-.029-.582-.043-.776-.238s-.21-.388-.238-.776a4 4 0 0 1 0-.616m.238 3.226c-.195.194-.21.388-.238.776a4 4 0 0 0 0 .616c.029.388.043.581.238.776.194.195.388.21.776.238a4 4 0 0 0 .616 0c.388-.029.582-.043.776-.238s.21-.388.238-.776a4 4 0 0 0 0-.616c-.029-.388-.043-.582-.238-.776-.194-.195-.388-.21-.776-.238a4 4 0 0 0-.616 0c-.388.029-.582.043-.776.238m-.238 4.774c.029-.388.043-.582.238-.776.194-.195.388-.21.776-.238a4 4 0 0 1 .616 0c.388.029.582.043.776.238.195.194.21.388.238.776a4 4 0 0 1 0 .616c-.029.388-.043.582-.238.776-.194.195-.388.21-.776.238a4 4 0 0 1-.616 0c-.388-.029-.582-.043-.776-.238-.195-.194-.21-.388-.238-.776a4 4 0 0 1 0-.616m-3.76-8.776c-.195.195-.21.388-.238.776a4 4 0 0 0 0 .616c.029.388.043.581.238.776.194.195.388.21.776.238a4 4 0 0 0 .616 0c.388-.029.581-.043.776-.238s.21-.388.238-.776a4 4 0 0 0 0-.616c-.029-.388-.043-.581-.238-.776s-.388-.21-.776-.238a4 4 0 0 0-.616 0c-.388.029-.582.043-.776.238M6.68 7.694c.029-.388.043-.582.238-.776.194-.195.388-.21.776-.238a4 4 0 0 1 .616 0c.388.029.581.043.776.238.195.194.21.388.238.776a4 4 0 0 1 0 .616c-.029.388-.043.581-.238.776s-.388.21-.776.238a4 4 0 0 1-.616 0c-.388-.029-.582-.043-.776-.238s-.21-.388-.238-.776a4 4 0 0 1 0-.616m.238 3.222c-.195.194-.21.388-.238.776a4 4 0 0 0 0 .616c.029.388.043.582.238.776.194.195.388.21.776.238a4 4 0 0 0 .616 0c.388-.029.581-.043.776-.238.195-.194.21-.388.238-.776a4 4 0 0 0 0-.616c-.029-.388-.043-.582-.238-.776s-.388-.21-.776-.238a4 4 0 0 0-.616 0c-.388.029-.582.043-.776.238"/></svg>