<svg xmlns="http://www.w3.org/2000/svg" viewBox="0 0 28 28"><path d="M4.52 6.424c.054-.727.08-1.09.446-1.456.365-.365.728-.392 1.455-.446a8 8 0 0 1 1.155 0c.727.054 1.09.081 1.455.446s.392.729.446 1.456a8 8 0 0 1 0 1.154c-.054.727-.08 1.091-.446 1.456-.365.365-.728.392-1.455.446a8 8 0 0 1-1.155 0c-.727-.054-1.09-.081-1.455-.446s-.392-.729-.446-1.456a8 8 0 0 1 0-1.154m0 7c.054-.727.08-1.09.446-1.455.365-.365.728-.393 1.455-.447a8 8 0 0 1 1.155 0c.727.054 1.09.082 1.455.447.365.364.392.728.446 1.455a8 8 0 0 1 0 1.155c-.054.727-.08 1.09-.446 1.455-.365.365-.728.392-1.455.446a8 8 0 0 1-1.155 0c-.727-.054-1.09-.081-1.455-.446s-.392-.728-.446-1.455a8 8 0 0 1 0-1.155m.448 5.546c-.365.365-.392.728-.446 1.454a8 8 0 0 0 0 1.154c.054.726.081 1.09.446 1.454.364.364.727.392 1.454.445a8 8 0 0 0 1.153 0c.726-.053 1.09-.08 1.454-.445.365-.365.392-.728.446-1.454a8 8 0 0 0 0-1.154c-.054-.726-.081-1.089-.446-1.453-.364-.365-.728-.392-1.454-.446a8 8 0 0 0-1.153 0c-.727.054-1.09.081-1.454.446M18.523 6.424c.054-.727.081-1.09.446-1.455.365-.364.728-.391 1.455-.446a8 8 0 0 1 1.154 0c.727.055 1.09.082 1.455.446.364.365.391.728.445 1.455a8 8 0 0 1 0 1.154c-.054.727-.08 1.09-.445 1.455s-.728.392-1.455.446a8 8 0 0 1-1.154 0c-.727-.054-1.09-.081-1.455-.446s-.392-.728-.446-1.455a8 8 0 0 1 0-1.154m.45 5.55c-.364.364-.39.726-.444 1.451a8 8 0 0 0 0 1.152c.053.725.08 1.088.444 1.452s.727.39 1.452.445a8 8 0 0 0 1.152 0c.725-.054 1.087-.081 1.451-.445s.391-.727.445-1.452a8 8 0 0 0 0-1.152c-.054-.725-.08-1.087-.445-1.451-.364-.364-.726-.391-1.451-.445a8 8 0 0 0-1.152 0c-.725.054-1.088.08-1.452.445m-.448 8.451c.053-.727.08-1.09.445-1.454.365-.365.728-.392 1.454-.446a8 8 0 0 1 1.153 0c.727.054 1.09.081 1.454.446.365.364.392.727.446 1.453a8 8 0 0 1 0 1.154c-.054.726-.081 1.09-.446 1.454-.364.364-.727.391-1.454.445a8 8 0 0 1-1.153 0c-.726-.054-1.09-.08-1.454-.445s-.392-.728-.445-1.454a8 8 0 0 1 0-1.154M11.969 4.97c-.365.364-.392.727-.446 1.454a8 8 0 0 0 0 1.154c.054.727.081 1.09.446 1.455s.728.392 1.455.446a8 8 0 0 0 1.154 0c.727-.054 1.09-.081 1.454-.446.365-.365.392-.728.446-1.455a8 8 0 0 0 0-1.154c-.054-.727-.08-1.09-.446-1.455-.364-.364-.727-.391-1.454-.445a8 8 0 0 0-1.154 0c-.727.054-1.09.08-1.455.445m-.447 8.455c.054-.727.081-1.09.446-1.456.365-.364.728-.392 1.456-.446a8 8 0 0 1 1.154 0c.727.054 1.09.082 1.456.446.364.365.392.729.446 1.456a8 8 0 0 1 0 1.155c-.054.727-.082 1.09-.446 1.455-.365.365-.729.392-1.456.446a8 8 0 0 1-1.154 0c-.728-.054-1.091-.081-1.456-.446s-.392-.728-.446-1.455a8 8 0 0 1 0-1.155m.448 5.546c-.365.365-.392.728-.446 1.454a8 8 0 0 0 0 1.154c.055.726.082 1.09.446 1.454.365.364.728.391 1.454.445a8 8 0 0 0 1.153 0c.727-.054 1.09-.08 1.454-.445.365-.365.392-.728.446-1.454a8 8 0 0 0 0-1.154c-.054-.726-.081-1.089-.446-1.453-.364-.365-.727-.392-1.454-.446a8 8 0 0 0-1.153 0c-.726.054-1.09.081-1.454.446"/></svg>