<svg xmlns="http://www.w3.org/2000/svg" viewBox="0 0 16 16"><path d="M6.113 2.137c.489-.36 1.057.032 1.057.662 0 .312-.15.6-.388.784-.374.287-.838.672-1.45 1.183l-.491.412c.958.005 2.61.021 3.047.056 1.745.137 2.618.206 3.494 1.132.876.927.94 1.85 1.07 3.697a23 23 0 0 1-.02 3.222c-.03.406-.35.715-.735.715-.445 0-.793-.409-.759-.878.072-.977.086-1.966.018-2.941-.138-1.953-.215-2.247-.636-2.692-.42-.444-.697-.526-2.543-.672-.392-.03-1.976-.045-2.913-.05q.205.173.469.392c.611.51 1.075.896 1.449 1.183a1 1 0 0 1 .388.784c0 .63-.568 1.022-1.057.662-.465-.343-1.02-.806-1.71-1.382-1.159-.967-1.738-1.45-1.865-2.07a1.9 1.9 0 0 1 0-.747c.127-.62.706-1.103 1.865-2.07.69-.576 1.245-1.039 1.71-1.382"/></svg>