<svg xmlns="http://www.w3.org/2000/svg" viewBox="0 0 24 24"><path fill-rule="evenodd" d="M12.004 2.999c-1.55 0-2.903.068-4.055.168-2.025.176-3.037.263-4.326 1.557-1.29 1.294-1.37 2.264-1.532 4.205a25 25 0 0 0 0 4.14c.161 1.94.242 2.911 1.532 4.205 1.289 1.294 2.301 1.382 4.325 1.557 1.153.1 2.506.168 4.056.168s2.901-.067 4.054-.168c2.025-.175 3.038-.263 4.327-1.557s1.37-2.265 1.532-4.206a25 25 0 0 0 0-4.137c-.162-1.942-.242-2.913-1.532-4.207s-2.302-1.382-4.327-1.557a47 47 0 0 0-4.054-.168m1.292 6.022-.486-.291c-1.465-.88-2.201-1.319-2.755-1.005-.553.313-.553 1.167-.553 2.876v.796c0 1.709 0 2.563.553 2.876.554.314 1.29-.126 2.755-1.005l.486-.291c1.466-.88 2.206-1.324 2.206-1.978 0-.655-.74-1.099-2.206-1.978"/><path d="M7.004 20.999a1 1 0 0 1 1-1h8a1 1 0 1 1 0 2h-8a1 1 0 0 1-1-1"/></svg>