<svg xmlns="http://www.w3.org/2000/svg" viewBox="0 0 32 32"><path d="M12.794 14.196c-.337.24-.77.385-1.3.385H8.512v-3.127h2.791c.289 0 .53 0 .77.048s.433.144.625.24c.193.145.337.29.433.482.097.192.145.48.145.77 0 .529-.145.962-.481 1.202m-.338 5.967a4.2 4.2 0 0 1-.818.096H8.51v-3.705h3.176c.625 0 1.155.144 1.54.433.385.337.577.818.577 1.492a2.3 2.3 0 0 1-.192.866 1.72 1.72 0 0 1-1.155.818m10.009-5.533c.625 0 1.155.192 1.492.529.336.336.577.818.673 1.54H20.3c0-.16.033-.32.071-.506l.025-.12c.048-.24.144-.481.337-.674.192-.192.385-.385.673-.529.29-.144.626-.24 1.059-.24"/><path fill-rule="evenodd" d="M.14 12.31c.346-4.652.52-6.977 2.853-9.311C5.328.665 7.653.492 12.303.145a50 50 0 0 1 3.694-.144c1.243 0 2.487.055 3.693.144C24.34.492 26.666.665 29 3s2.507 4.66 2.853 9.31c.09 1.206.144 2.45.144 3.693 0 1.244-.054 2.487-.144 3.693-.346 4.65-.519 6.976-2.853 9.31s-4.66 2.507-9.31 2.854c-1.206.09-2.45.144-3.693.144-1.244 0-2.488-.055-3.693-.145-4.651-.346-6.976-.519-9.31-2.853S.485 24.345.14 19.695a50 50 0 0 1-.144-3.693c0-1.244.054-2.487.144-3.693m13.472-2.925c-.53-.145-1.107-.193-1.733-.193H5.576v13.28h6.448c.577 0 1.155-.096 1.732-.24a5 5 0 0 0 1.54-.674 3.2 3.2 0 0 0 1.058-1.203c.24-.48.385-1.058.385-1.732 0-.818-.24-1.54-.625-2.117-.385-.578-1.01-1.01-1.829-1.251.578-.289 1.059-.674 1.348-1.107.336-.433.48-1.01.48-1.684 0-.577-.096-1.107-.288-1.54a2.23 2.23 0 0 0-.866-1.01 3.8 3.8 0 0 0-1.347-.53m9.045 11.403q-1.155 0-1.732-.577c-.385-.385-.673-1.107-.673-1.877h6.977c.048-.77 0-1.443-.097-2.117a5.8 5.8 0 0 0-.866-1.828c-.385-.578-.866-.962-1.491-1.3-.626-.336-1.348-.48-2.166-.48-.77 0-1.395.144-2.02.384a4.9 4.9 0 0 0-1.54 1.059 5.2 5.2 0 0 0-1.01 1.636c-.241.626-.338 1.3-.338 2.02 0 .77.097 1.444.337 2.07.193.625.53 1.155.963 1.588.433.48.914.818 1.54 1.058.625.24 1.298.385 2.068.385 1.107 0 2.021-.289 2.791-.77.77-.529 1.347-1.347 1.732-2.502h-2.358q-.144.434-.721.866a2.63 2.63 0 0 1-1.396.385m2.454-10.681h-5.389v1.299h5.39z"/></svg>