<svg xmlns="http://www.w3.org/2000/svg" viewBox="0 0 44 44"><path fill-rule="evenodd" d="M20.853 4.847a1.499 1.499 0 1 0-2.7 1.306l2.184 4.514-1.523 3.148c-.65 1.171-1.364 2.693-2.242 4.565l-5.527 11.773C8.6 35.362 7.333 38.06 8.356 40h27.288c1.023-1.94-.244-4.639-2.689-9.847L27.43 18.38c-.864-1.84-1.569-3.341-2.21-4.505l-1.551-3.209 2.183-4.513a1.5 1.5 0 0 0-2.7-1.306l-1.149 2.376zM15.613 37l2.457-4.916c1.63-3.26 2.672-5.324 3.58-6.624q.205-.294.354-.475.15.181.355.475c.907 1.3 1.95 3.364 3.579 6.624L28.395 37z"/></svg>