<svg xmlns="http://www.w3.org/2000/svg" viewBox="0 0 44 44"><path fill-rule="evenodd" d="M18.85 4.15a1.5 1.5 0 0 1 2.003.697l1.15 2.376 1.148-2.376a1.5 1.5 0 1 1 2.7 1.306l-2.183 4.514c1.245 2.575 2.545 5.122 3.76 7.713l5.527 11.773C35.4 35.362 36.667 38.06 35.644 40H8.356c-1.023-1.94.244-4.639 2.689-9.847l5.527-11.773c1.216-2.591 2.518-5.137 3.765-7.713l-2.183-4.514a1.5 1.5 0 0 1 .696-2.003m3.7 11.094-.55-1.12-.52 1.064-7.72 16.24c-1.203 2.562-2.001 4.278-2.434 5.572h3.368l2.065-4.131c2.289-4.58 3.433-6.87 5.245-6.87s2.956 2.29 5.245 6.87l2.065 4.13h3.36c-.433-1.293-1.23-3.01-2.433-5.57zM25.961 37l-1.394-2.79c-1.18-2.362-1.924-3.832-2.563-4.754-.639.922-1.382 2.392-2.563 4.754L18.047 37z"/></svg>