<svg xmlns="http://www.w3.org/2000/svg" viewBox="0 0 44 44"><path fill-rule="evenodd" d="M8 8a1.5 1.5 0 1 0 0 3h2.411l4.308 4h-3.415C9.71 15 8.65 16.584 9.38 18c1.782 3.459 5.187 8.801 9.619 9.827V35h-3.5a1.5 1.5 0 0 0 0 3h10a1.5 1.5 0 0 0 0-3H22v-7.173c2.974-.688 5.485-3.32 7.354-6.022A7 7 0 1 0 24 15h-4.882a2 2 0 0 0-.097-.1l-6.713-6.232a2.5 2.5 0 0 0-1.7-.668zm19 7h2.696c1.593 0 2.653 1.584 1.923 3q-.246.479-.533 1A4 4 0 1 0 27 15m-6.5 10c-.973 0-2.048-.418-3.243-1.374-1.198-.958-2.33-2.314-3.33-3.801A30 30 0 0 1 12.793 18h15.412c-.34.593-.719 1.21-1.132 1.825-1.001 1.487-2.133 2.843-3.33 3.801C22.547 24.582 21.471 25 20.5 25"/></svg>