<svg xmlns="http://www.w3.org/2000/svg" viewBox="0 0 24 24"><path d="M9.294 4.298c.63-.637 1.706-.186 1.706.714 0 .268-.105.525-.293.715l-3.095 3.13c-1.106 1.117-1.79 1.815-2.223 2.389-.39.517-.39.697-.39.751v.006c0 .053 0 .234.39.751.432.574 1.117 1.271 2.223 2.39l3.095 3.13c.188.188.293.446.293.713 0 .9-1.077 1.352-1.706.715l-3.096-3.13C4.066 14.418 3 13.34 3 12s1.066-2.417 3.198-4.573zm8 0c.63-.637 1.706-.186 1.706.714 0 .268-.105.525-.293.715l-3.095 3.13c-1.106 1.117-1.79 1.815-2.223 2.389-.39.517-.39.697-.39.751v.006c0 .053 0 .234.39.751.432.574 1.117 1.271 2.223 2.39l3.095 3.13c.188.188.293.446.293.713 0 .9-1.077 1.352-1.706.715l-3.096-3.13C12.066 14.418 11 13.34 11 12s1.066-2.417 3.198-4.573z"/></svg>