<svg xmlns="http://www.w3.org/2000/svg" viewBox="0 0 24 24"><path d="M16.087 6.592a1 1 0 0 1 1.321-.505l2.718 1.228a1 1 0 1 1-.816 1.826l-2.718-1.228a1 1 0 0 1-.505-1.32m1.289 4.494a1 1 0 1 0-.816 1.827l3.032 1.353a1 1 0 0 0 .816-1.826zm.03 4.999a1 1 0 1 0-.811 1.828l2.173.978a1 1 0 1 0 .811-1.828zm-3.41-7.931c0-3.493 0-5.24-1.388-5.93A1.95 1.95 0 0 0 11.727 2c-1.094 0-2.27.874-4.214 2.349-.54.41-1.05.842-1.501 1.294A28 28 0 0 0 4.6 7.169C2.888 9.156 2 10.145 2 12.002s.888 2.837 2.6 4.824c.444.516.917 1.032 1.412 1.527.449.449.957.88 1.494 1.289l.01.008c1.935 1.471 3.092 2.35 4.2 2.35.304 0 .591-.077.89-.225 1.39-.689 1.39-2.439 1.39-5.938z"/></svg>