<svg xmlns="http://www.w3.org/2000/svg" viewBox="0 0 16 16"><path fill-rule="evenodd" d="M4.641 2.678C5.93 1.633 6.711 1 7.45 1c.2 0 .395.046.597.142.952.454.952 1.643.952 4.021v5.668c0 2.383 0 3.574-.953 4.028q-.287.136-.569.141c-.748.016-1.533-.623-2.84-1.684a10 10 0 0 1-.932-.855 20 20 0 0 1-1.14-1.322C1.524 9.827 1 9.164 1 8.001c0-1.164.523-1.831 1.564-3.143.352-.444.735-.894 1.14-1.322.283-.298.6-.586.937-.858m.942 9.472a8 8 0 0 1-.789-.723 19 19 0 0 1-1.053-1.221C2.64 8.816 2.502 8.557 2.502 8s.137-.82 1.24-2.21c.33-.416.684-.832 1.052-1.221.229-.242.497-.485.793-.725.87-.706 1.346-1.082 1.707-1.27l.07-.034q.018.059.037.16c.088.484.094 1.211.094 2.462v5.668c0 1.253-.006 1.982-.095 2.468q-.018.1-.035.16-.03-.013-.072-.035c-.361-.188-.838-.566-1.71-1.274"/><path d="M10.653 4.24a.75.75 0 0 1 .99-.378l1.74.777a.75.75 0 1 1-.61 1.37l-1.741-.778a.75.75 0 0 1-.38-.99m.991 2.957a.75.75 0 0 0-.611 1.37l1.912.853a.75.75 0 0 0 .612-1.37zm-.001 3.335a.75.75 0 0 0-.608 1.371l1.404.623a.75.75 0 0 0 .608-1.371z"/></svg>