<svg xmlns="http://www.w3.org/2000/svg" viewBox="0 0 16 16"><path d="M10.653 4.24a.75.75 0 0 1 .99-.378l1.74.777a.75.75 0 1 1-.61 1.37l-1.741-.778a.75.75 0 0 1-.38-.99m.991 2.957a.75.75 0 0 0-.611 1.37l1.912.853a.75.75 0 0 0 .612-1.37zm-.001 3.335a.75.75 0 0 0-.608 1.371l1.404.623a.75.75 0 0 0 .608-1.371zm-2.644-5.37c0-2.378 0-3.567-.952-4.02A1.4 1.4 0 0 0 7.449 1c-.738 0-1.52.633-2.808 1.678-.336.272-.654.56-.937.858-.405.428-.788.878-1.14 1.322C1.524 6.17 1 6.838 1 8s.523 1.826 1.564 3.138c.352.444.735.894 1.14 1.322.281.297.598.583.932.855 1.307 1.061 2.092 1.7 2.84 1.684.19-.004.377-.05.57-.142.952-.453.952-1.644.952-4.027z"/></svg>