<svg xmlns="http://www.w3.org/2000/svg" viewBox="0 0 32 32"><path d="M10.5 4a31 31 0 0 0-4.027.26c-.656.088-.984.132-1.297.43-.314.299-.37.602-.481 1.208A11.7 11.7 0 0 0 4.5 8c0 .803.089 1.525.195 2.102.111.606.167.91.48 1.208.314.298.642.342 1.298.43A30 30 0 0 0 9 11.965V26.5a1.5 1.5 0 0 0 3 0V11.965a30 30 0 0 0 2.527-.225c.656-.088.984-.132 1.298-.43.313-.299.369-.602.48-1.209.107-.577.195-1.299.195-2.101s-.088-1.524-.195-2.101c-.111-.607-.167-.91-.48-1.209-.314-.298-.642-.342-1.298-.43A31 31 0 0 0 10.5 4m7.184 21.618A33 33 0 0 1 17.5 22c0-1.527.085-2.735.183-3.617.126-1.133.904-2.065 2.027-2.253a10 10 0 0 1 .29-.044V9.023C19.148 8.629 18.5 8 18.5 8l1.375-4h2.75L24 8s-.648.628-1.498 1.022v7.065q.147.02.288.043c1.124.188 1.9 1.12 2.027 2.253.098.882.183 2.09.183 3.617a33 33 0 0 1-.183 3.617c-.126 1.133-.903 2.064-2.027 2.252a9 9 0 0 1-1.54.131 9.4 9.4 0 0 1-1.54-.13c-1.124-.189-1.9-1.12-2.027-2.253"/></svg>