<svg xmlns="http://www.w3.org/2000/svg" viewBox="0 0 32 32"><path d="M15.992 5h.172a7.917 7.917 0 0 1 7.838 7.993V24.75a1.25 1.25 0 0 1-2.5 0V12.862A5.417 5.417 0 0 0 16 7.5h-.14a5.417 5.417 0 0 0-5.362 5.362v5.303l1.578-.428c.73-.199 1.096-.298 1.308-.197.185.088.317.26.358.463.046.235-.135.573-.497 1.249l-3.092 5.774c-.294.55-.442.824-.636.915a.63.63 0 0 1-.535 0c-.195-.091-.342-.366-.637-.915l-3.092-5.774c-.362-.676-.543-1.014-.497-1.248a.65.65 0 0 1 .358-.464c.212-.101.577-.002 1.308.196l1.576.428v-5.327A7.917 7.917 0 0 1 15.837 5z"/></svg>