<svg xmlns="http://www.w3.org/2000/svg" viewBox="0 0 44 44"><path d="M18.012 12.154c.032-.436.048-.654.267-.873s.437-.235.873-.268a5 5 0 0 1 .692 0c.436.033.654.05.873.268s.235.437.268.873a5 5 0 0 1 0 .692c-.033.436-.05.654-.268.873s-.437.235-.873.268a5 5 0 0 1-.692 0c-.436-.033-.654-.05-.873-.268s-.235-.437-.267-.873a5 5 0 0 1 0-.692m5.267-.873c-.219.219-.235.437-.267.873a5 5 0 0 0 0 .692c.032.436.048.654.267.873s.437.235.873.268a5 5 0 0 0 .692 0c.436-.033.654-.05.873-.268s.235-.437.268-.873a5 5 0 0 0 0-.692c-.033-.436-.05-.654-.268-.873s-.437-.235-.873-.268a5 5 0 0 0-.692 0c-.436.033-.654.05-.873.268M17.498 31a1.5 1.5 0 0 0 0 3h9a1.5 1.5 0 1 0 0-3z"/><path fill-rule="evenodd" d="M12.998 5.81v11.213c-.837.037-1.41.134-1.91.387-.7.354-1.326.98-1.68 1.68-.41.811-.41 1.767-.41 3.68v8.774c0 4.193 0 6.29 1.448 7.915s3.272 1.835 6.919 2.257c1.483.171 3.058.284 4.633.284s3.15-.113 4.633-.284c3.647-.422 5.47-.632 6.919-2.257s1.448-3.722 1.448-7.915V22.77c0-1.912 0-2.868-.41-3.678a3.94 3.94 0 0 0-1.68-1.681c-.5-.253-1.073-.35-1.91-.387V5.81A3.81 3.81 0 0 0 27.188 2h-10.38a3.81 3.81 0 0 0-3.81 3.81M27.188 5h-10.38a.81.81 0 0 0-.81.81V17h12V5.81a.81.81 0 0 0-.81-.81m-15.19 17.77v8.774c0 2.183.007 3.503.15 4.491.124.856.315 1.177.538 1.428.276.31.56.505 1.21.688.808.229 1.898.363 3.813.584 1.396.162 2.853.265 4.289.265a38 38 0 0 0 4.289-.264c1.915-.222 3.005-.356 3.813-.584.65-.184.934-.38 1.21-.69.224-.25.414-.57.538-1.427.143-.988.15-2.308.15-4.49v-8.776c0-1.008-.003-1.571-.04-1.988-.043-.486-.287-.7-.767-.74-.448-.038-1.054-.041-2.11-.041H14.915c-1.056 0-1.662.003-2.11.04-.48.041-.724.255-.767.741-.037.417-.04.98-.04 1.988"/></svg>