<svg xmlns="http://www.w3.org/2000/svg" viewBox="0 0 24 24"><path d="M9.509 6.27c.022-.291.032-.437.178-.583s.292-.156.582-.178a3 3 0 0 1 .462 0c.29.022.436.032.582.178s.156.292.178.582a3 3 0 0 1 0 .462c-.022.29-.032.436-.178.582s-.292.156-.582.178a3 3 0 0 1-.462 0c-.29-.022-.436-.032-.582-.178s-.156-.292-.178-.582a3 3 0 0 1 0-.462m3.178-.582c-.146.146-.156.292-.178.582a3 3 0 0 0 0 .462c.022.29.032.436.178.582s.292.156.582.178a3 3 0 0 0 .462 0c.29-.022.436-.032.582-.178s.156-.292.178-.582a3 3 0 0 0 0-.462c-.022-.29-.032-.436-.178-.582s-.292-.156-.582-.178a3 3 0 0 0-.462 0c-.29.022-.436.032-.582.178M10 16a1 1 0 1 0 0 2h4a1 1 0 1 0 0-2z"/><path fill-rule="evenodd" d="M7 9v.017c-.378.021-.647.072-.885.19-.38.187-.72.527-.908.908C5 10.533 5 11.022 5 12v4.476c0 2.22 0 3.33.762 4.183.762.854 1.734.964 3.679 1.186.817.093 1.688.155 2.559.155s1.742-.062 2.559-.155c1.945-.222 2.917-.332 3.68-1.186.761-.854.761-1.963.761-4.183V12c0-.978 0-1.467-.207-1.885a2.07 2.07 0 0 0-.908-.908c-.238-.118-.507-.169-.885-.19V3a2 2 0 0 0-2-2H9a2 2 0 0 0-2 2zm8-6H9v6h6zm.92 8c.549 0 .839.002 1.046.019l.016.001c.016.19.018.457.018.98v4.476c0 1.167-.005 1.832-.075 2.319-.057.395-.133.48-.177.53l-.002.002c-.078.087-.151.155-.44.235-.394.11-.94.178-1.973.296-.76.086-1.554.142-2.333.142s-1.573-.056-2.333-.142l-.017-.002c-1.022-.117-1.564-.184-1.955-.294-.29-.08-.363-.148-.441-.235l-.002-.002c-.044-.05-.12-.135-.177-.53-.07-.487-.075-1.152-.075-2.319V12c0-.523.002-.789.018-.979l.016-.002C7.24 11.002 7.53 11 8.08 11z"/></svg>