<svg xmlns="http://www.w3.org/2000/svg" viewBox="0 0 17 17"><path d="M6.381 4.331c.018-.231.026-.347.142-.463.117-.117.233-.125.464-.143a2.5 2.5 0 0 1 .368 0c.231.018.347.026.464.143.116.116.124.232.142.463a2.5 2.5 0 0 1 0 .368c-.018.232-.026.347-.142.464-.117.116-.233.124-.464.142a2.5 2.5 0 0 1-.368 0c-.231-.018-.347-.026-.464-.142-.116-.117-.124-.232-.142-.464a2.5 2.5 0 0 1 0-.368m2.799-.463c-.117.116-.125.232-.143.463a2.5 2.5 0 0 0 0 .368c.018.232.026.347.142.464.117.116.232.124.464.142a2.5 2.5 0 0 0 .368 0c.231-.018.347-.026.463-.142.117-.117.125-.232.143-.464a2.5 2.5 0 0 0 0-.368c-.018-.231-.026-.347-.143-.463s-.232-.125-.463-.143a2.5 2.5 0 0 0-.368 0c-.232.018-.347.026-.464.143m-2.008 7.818a.797.797 0 1 0 0 1.594h2.656a.797.797 0 1 0 0-1.594z"/><path fill-rule="evenodd" d="M4.251 2.051v4.405q-.164.041-.3.12a1.6 1.6 0 0 0-.563.562c-.2.351-.2.777-.2 1.627v3.508c0 1.68 0 2.52.576 3.169.578.648 1.313.733 2.782.904.623.073 1.288.12 1.953.12s1.33-.047 1.952-.12c1.47-.17 2.205-.256 2.782-.904.578-.649.578-1.489.578-3.169V8.765c0-.85 0-1.276-.201-1.627a1.6 1.6 0 0 0-.563-.562 1.2 1.2 0 0 0-.3-.12V2.05c0-.84-.681-1.52-1.52-1.52H5.77c-.84 0-1.52.68-1.52 1.52m1.594.074v4.25h5.308v-4.25zm.885 12.638c-.783-.09-1.188-.142-1.478-.224-.206-.058-.249-.102-.298-.157l-.003-.003c-.023-.026-.074-.082-.114-.362-.053-.361-.056-.858-.056-1.744V8.765c0-.401.001-.626.012-.783.173-.013.416-.014.85-.014h5.712c.433 0 .677.001.85.014.01.157.012.382.012.783v3.508c0 .886-.004 1.383-.056 1.744-.04.28-.09.336-.114.362l-.004.003c-.048.055-.09.099-.297.157-.29.082-.695.133-1.478.224a16 16 0 0 1-1.769.11c-.59 0-1.192-.043-1.769-.11"/></svg>