<svg xmlns="http://www.w3.org/2000/svg" viewBox="0 0 24 24"><path d="M9.509 6.27c.022-.291.032-.437.178-.583s.292-.156.582-.178a3 3 0 0 1 .462 0c.29.022.436.032.582.178s.156.292.178.582a3 3 0 0 1 0 .462c-.022.29-.032.436-.178.582s-.292.156-.582.178a3 3 0 0 1-.462 0c-.29-.022-.436-.032-.582-.178s-.156-.292-.178-.582a3 3 0 0 1 0-.462m3.178-.582c-.146.146-.156.292-.178.582a3 3 0 0 0 0 .462c.022.29.032.436.178.582s.292.156.582.178a3 3 0 0 0 .462 0c.29-.022.436-.032.582-.178s.156-.292.178-.582a3 3 0 0 0 0-.462c-.022-.29-.032-.436-.178-.582s-.292-.156-.582-.178a3 3 0 0 0-.462 0c-.29.022-.436.032-.582.178"/><path fill-rule="evenodd" d="M7 9v.017c-.378.021-.647.072-.885.19-.38.187-.72.527-.908.908C5 10.533 5 11.022 5 12v4.476c0 2.22 0 3.33.762 4.183.762.854 1.734.964 3.679 1.186.817.093 1.688.155 2.559.155s1.742-.062 2.559-.155c1.945-.222 2.917-.332 3.68-1.186.761-.854.761-1.963.761-4.183V12c0-.978 0-1.467-.207-1.885a2.07 2.07 0 0 0-.908-.908c-.238-.118-.507-.169-.885-.19V3a2 2 0 0 0-2-2H9a2 2 0 0 0-2 2zm8-6H9v6h6zm-5 13a1 1 0 1 0 0 2h4a1 1 0 1 0 0-2z"/></svg>