<svg xmlns="http://www.w3.org/2000/svg" viewBox="0 0 24 24"><path fill-rule="evenodd" d="M3.081 9.924C3.276 7.308 3.373 6 4.686 4.687c1.313-1.312 2.62-1.41 5.237-1.604C10.6 3.032 11.3 3 12 3s1.399.031 2.077.082c2.616.194 3.924.292 5.237 1.604s1.41 2.621 1.605 5.237c.05.678.081 1.378.081 2.078 0 .699-.03 1.398-.081 2.077-.195 2.616-.292 3.924-1.605 5.236-1.313 1.313-2.62 1.41-5.237 1.605-.678.05-1.377.081-2.077.081s-1.399-.03-2.077-.08c-2.616-.195-3.924-.293-5.237-1.605s-1.41-2.621-1.605-5.237A28 28 0 0 1 3 12c0-.7.03-1.399.081-2.077m2.857 7.806q.075.085.162.171c.706.707 1.22.82 3.971 1.025.637.047 1.287.076 1.929.076s1.292-.029 1.929-.076c2.75-.205 3.265-.318 3.97-1.025.634-.633.79-1.112.964-3.187a18 18 0 0 0-1.332-3.708c-.703-1.397-1.27-2.01-1.734-2.01-.438 0-1.012.613-1.734 2.01l-1.645 3.277c-.5.997-1.7.935-2.202-.061-.341-.678-.742-1.22-1.212-1.22-.579 0-.964.67-1.734 2.01zM11.75 9a1.75 1.75 0 1 0-3.5 0 1.75 1.75 0 0 0 3.5 0"/></svg>