<svg xmlns="http://www.w3.org/2000/svg" viewBox="0 0 16 16"><path d="M6.5 4.859a1.141 1.141 0 1 1 0 2.282 1.141 1.141 0 0 1 0-2.282"/><path fill-rule="evenodd" d="M2.054 6.616c.13-1.744.195-2.616 1.07-3.491s1.747-.94 3.491-1.07A19 19 0 0 1 8 2.001c.466 0 .933.02 1.385.054 1.744.13 2.616.195 3.491 1.07s.94 1.747 1.07 3.491c.034.452.054.919.054 1.385s-.02.933-.054 1.385c-.13 1.744-.195 2.616-1.07 3.491s-1.747.94-3.491 1.07C8.933 13.98 8.466 14 8 14s-.933-.02-1.385-.054c-1.744-.13-2.616-.195-3.491-1.07s-.94-1.747-1.07-3.491A19 19 0 0 1 2 8c0-.466.02-.933.054-1.385M6.727 3.55c.42-.031.85-.05 1.273-.05s.852.019 1.273.05c1.845.137 2.122.214 2.542.635.42.42.498.697.635 2.542a16 16 0 0 1 .01 2.395s-.162-.482-.267-.732C11.922 7.742 11.34 6 10.531 6c-.386 0-.642.444-1.156 1.337L8.28 9.521c-.165.328-.447.48-.74.479-.3 0-.613-.162-.824-.474C6.509 9.223 6.273 9 6.002 9c-.384 0-.64.446-1.15 1.333l-.006.01-.779 1.348c-.319-.367-.394-.758-.517-2.417a17 17 0 0 1-.05-1.273c0-.423.019-.852.05-1.273.137-1.845.214-2.122.635-2.542.42-.42.697-.498 2.542-.635"/></svg>