<svg xmlns="http://www.w3.org/2000/svg" viewBox="0 0 24 24"><path fill-rule="evenodd" d="M5.96 3.276C7.407 3.131 9.423 3 12 3c2.575 0 4.592.13 6.039.276 1.312.132 1.618.189 2.08.62.279.258.392.443.467.636.094.239.149.53.246 1.094.1.573.167 1.215.167 1.9q-.002.584-.059 1.13c-.078.766-.127 1.201-.234 1.547a2 2 0 0 1-.104.26 3 3 0 0 0-3.724.416l-.621.621H6.87c-2.031 0-2.54-.05-3.056-.516-.301-.272-.432-.497-.521-.781-.108-.345-.157-.78-.235-1.546A11 11 0 0 1 3 7.527c0-.687.068-1.33.167-1.903.098-.564.152-.854.246-1.092.076-.193.189-.378.467-.637.462-.43.768-.487 2.08-.619M8.75 7.5a1.25 1.25 0 1 1-2.5 0 1.25 1.25 0 0 1 2.5 0m5.628 5.878.879-.878H6.87c-2.031 0-2.54.05-3.056.516-.301.272-.432.497-.521.781-.108.345-.157.78-.235 1.546q-.057.546-.059 1.13c0 .687.068 1.33.167 1.903.098.564.152.854.246 1.092.076.193.189.378.467.637.462.43.768.486 2.08.619C7.407 20.869 9.423 21 12 21c1.681 0 3.125-.056 4.327-.135A3 3 0 0 1 16 19.5v-1.042a3 3 0 0 1-1.621-5.08M8.75 16.5a1.25 1.25 0 1 1-2.5 0 1.25 1.25 0 0 1 2.5 0"/><path d="M22.203 14.768c.634.63.185 1.707-.712 1.707a1 1 0 0 1-.712-.293l-.356-.354c-.144-.143-.279-.271-.397-.384l-.03-.028L20 19.5a.998.998 0 1 1-1.997.002L18 15.422l-.103.097q-.15.14-.321.31l-.356.353a1 1 0 0 1-.712.293c-.897 0-1.346-1.077-.712-1.707L17.576 13c.671-.667 1.006-1 1.424-1 .416 0 .752.333 1.423 1z"/></svg>