<svg xmlns="http://www.w3.org/2000/svg" viewBox="0 0 24 24"><path fill-rule="evenodd" d="M4.004 10.247c.126 4.663 3.266 7.827 6.458 10.766.713.657 1.07.986 1.538.986s.825-.329 1.538-.986c3.192-2.939 6.332-6.103 6.458-10.766.016-.577-.032-1.153-.08-1.728l-.003-.046c-.28-3.41-2.895-6.134-6.305-6.406A20 20 0 0 0 12 2c-.543 0-1.083.025-1.608.067-3.41.272-6.025 2.997-6.305 6.406l-.004.047c-.047.574-.095 1.15-.079 1.727m7.992 1.003a1.25 1.25 0 1 0 0-2.5 1.25 1.25 0 0 0 0 2.5M12 13a1 1 0 0 1 1 1v2a1 1 0 1 1-2 0v-2a1 1 0 0 1 1-1m-1-7a1 1 0 0 0 2 0V4a1 1 0 0 0-2 0zm-6 4.004a1 1 0 0 1 1-1h2.033a1 1 0 1 1 0 2H6a1 1 0 0 1-1-1m11-1.002a1 1 0 0 0 0 2l2 .001a1 1 0 0 0 0-2z"/></svg>