<svg xmlns="http://www.w3.org/2000/svg" viewBox="0 0 24 24"><path fill-rule="evenodd" d="M10 6.5a3.5 3.5 0 0 1-2.5 3.355v4.29A3.502 3.502 0 0 1 6.5 21a3.5 3.5 0 0 1-1-6.855v-4.29A3.502 3.502 0 0 1 6.5 3 3.5 3.5 0 0 1 10 6.5m4.69 3.958a1 1 0 0 1-1.74-.349l-.112-.388c-.785-2.727-1.177-4.09-.464-4.98s2.13-.802 4.962-.628l.403.024a1 1 0 1 1-.123 1.997l-.403-.025a74 74 0 0 0-1.802-.097 4.4 4.4 0 0 1 1.403.975c1.313 1.313 1.41 2.62 1.605 5.237.047.627.076 1.273.08 1.92A3.502 3.502 0 0 1 17.5 21a3.5 3.5 0 0 1-1-6.855 27 27 0 0 0-.076-1.773c-.204-2.75-.318-3.265-1.024-3.971-.314-.314-.59-.51-1.041-.65.108.4.242.865.4 1.417l.112.388a1 1 0 0 1-.18.902"/></svg>