<svg xmlns="http://www.w3.org/2000/svg" viewBox="0 0 16 16"><path fill-rule="evenodd" d="M7 4.5c0 1.12-.736 2.067-1.75 2.386v2.228a2.501 2.501 0 1 1-1.5 0V6.886A2.501 2.501 0 1 1 7 4.5m-2.5 1a1 1 0 1 0 0-2 1 1 0 0 0 0 2m1 6a1 1 0 1 1-2 0 1 1 0 0 1 2 0m6 2.5a2.5 2.5 0 0 0 .75-4.886 19 19 0 0 0-.054-1.248c-.13-1.744-.195-2.616-1.07-3.491a3.4 3.4 0 0 0-.402-.346q.325.017.741.043l.108.007a.75.75 0 1 0 .092-1.497l-.108-.007c-1.888-.116-2.832-.174-3.308.419-.475.593-.214 1.502.31 3.32l.03.104a.75.75 0 1 0 1.44-.415L10 5.9l-.195-.686c.091.061.173.134.261.222.42.42.498.698.635 2.542q.043.568.05 1.138A2.501 2.501 0 0 0 11.5 14m0-1.5a1 1 0 1 0 0-2 1 1 0 0 0 0 2"/></svg>