<svg xmlns="http://www.w3.org/2000/svg" viewBox="0 0 16 16"><path d="m11.041 2.65.545-.943c.185-.321-.09-.73-.475-.706l-.07.005c-1.71.11-2.582.167-2.918.749s.05 1.365.81 2.902l.031.062c.171.347.663.38.85.058l.504-.874a4.9 4.9 0 0 1 1.793 1.771l-.888.513c-.322.186-.289.678.058.85l.062.03c1.537.76 2.32 1.147 2.902.81.582-.335.639-1.207.75-2.918l.004-.07c.025-.385-.385-.66-.707-.474l-.928.536A6.33 6.33 0 0 0 11.04 2.65M2 8.5c0 1.429.071 2.553.152 3.366.1 1.007.755 1.869 1.752 2.04a6.5 6.5 0 0 0 2.192-.001c.997-.17 1.653-1.032 1.752-2.04C7.928 11.054 8 9.93 8 8.5s-.071-2.552-.152-3.366c-.1-1.007-.756-1.869-1.753-2.04a6.4 6.4 0 0 0-2.19.001c-.997.17-1.654 1.032-1.753 2.04C2.072 5.947 2 7.07 2 8.5m6.603 5.475c.7-.026 1.291-.07 1.774-.118 1.016-.101 1.875-.776 2.037-1.784.052-.324.087-.686.087-1.073s-.035-.75-.087-1.074c-.162-1.008-1.02-1.682-2.037-1.783a26 26 0 0 0-.879-.073l.002.43c0 1.479-.074 2.652-.159 3.513a4.05 4.05 0 0 1-.738 1.962"/></svg>