<svg xmlns="http://www.w3.org/2000/svg" viewBox="0 0 24 24"><path d="m15.67 4.273.749-1.3c.254-.442-.123-1.006-.652-.971l-.095.006c-2.348.152-3.544.23-4.005 1.03s.07 1.877 1.112 3.992l.043.086c.234.476.91.522 1.165.08l.684-1.19a8.63 8.63 0 0 1 3.413 3.271l-1.278.736c-.442.255-.396.93.08 1.165l.086.043c2.114 1.042 3.19 1.573 3.99 1.112s.878-1.657 1.03-4.005l.006-.095c.035-.529-.528-.906-.97-.651l-1.21.696a10.64 10.64 0 0 0-4.148-4.005M3 13c0 2.029.102 3.634.219 4.81.151 1.52 1.153 2.81 2.66 3.056.49.08 1.036.134 1.621.134s1.132-.054 1.621-.134c1.507-.247 2.509-1.537 2.66-3.056A49 49 0 0 0 12 13c0-2.028-.102-3.634-.219-4.81-.151-1.52-1.154-2.81-2.661-3.056A10 10 0 0 0 7.5 5c-.585 0-1.131.054-1.62.134C4.373 5.38 3.37 6.67 3.219 8.19A49 49 0 0 0 3 13m9.59 7.979a45 45 0 0 0 3.22-.197c1.52-.152 2.81-1.154 3.056-2.66.08-.49.134-1.037.134-1.622s-.054-1.132-.134-1.62c-.247-1.508-1.537-2.51-3.056-2.66q-.782-.081-1.817-.14.007.446.007.92c0 2.096-.105 3.768-.229 5.008a5.76 5.76 0 0 1-1.18 2.97"/></svg>