<svg xmlns="http://www.w3.org/2000/svg" viewBox="0 0 16 16"><path fill-rule="evenodd" d="M8 2.001c-.467 0-.933.02-1.385.054-1.744.13-2.616.195-3.491 1.07-.876.875-.94 1.747-1.07 3.491C2.02 7.068 2 7.535 2 8.001s.02.933.054 1.385c.13 1.744.194 2.616 1.07 3.491.875.875 1.747.94 3.49 1.07.453.034.92.054 1.386.054s.932-.02 1.384-.054c1.745-.13 2.617-.195 3.492-1.07s.94-1.747 1.07-3.491C13.979 8.934 14 8.467 14 8s-.02-.933-.054-1.385c-.13-1.744-.195-2.616-1.07-3.491s-1.747-.94-3.492-1.07A19 19 0 0 0 8 2.001m0 10.5v-1.5q.351 0 .692-.027c.872-.065 1.308-.097 1.746-.535.438-.437.47-.873.535-1.746q.026-.34.027-.692c0-.233-.01-.467-.027-.693-.065-.872-.097-1.308-.535-1.745s-.874-.47-1.746-.535A9 9 0 0 0 8 5V3.501c.423 0 .852.019 1.273.05 1.845.137 2.122.214 2.542.635.42.42.498.697.635 2.542.031.42.05.85.05 1.273s-.019.852-.05 1.273c-.137 1.845-.215 2.122-.635 2.542s-.697.498-2.542.635c-.421.031-.85.05-1.273.05m-.692-7.473Q7.648 5.002 8 5v6.001q-.351 0-.692-.027c-.872-.065-1.308-.097-1.746-.535-.438-.437-.47-.873-.535-1.746A9 9 0 0 1 5 8.001c0-.233.01-.467.027-.693.065-.872.097-1.308.535-1.745s.874-.47 1.746-.535"/></svg>