<svg xmlns="http://www.w3.org/2000/svg" viewBox="0 0 24 24"><path fill-rule="evenodd" d="M12 3.001c-.7 0-1.4.031-2.078.082-2.616.194-3.924.292-5.237 1.604C3.373 6 3.275 7.308 3.081 9.924A28 28 0 0 0 3 12.002c0 .699.03 1.398.08 2.077.195 2.616.293 3.924 1.605 5.236 1.313 1.313 2.621 1.41 5.237 1.605.678.05 1.378.081 2.077.081s1.4-.03 2.078-.08c2.616-.195 3.924-.293 5.237-1.605 1.312-1.313 1.41-2.621 1.605-5.237.05-.679.08-1.378.08-2.078s-.03-1.399-.08-2.077c-.195-2.616-.293-3.924-1.605-5.237-1.313-1.312-2.621-1.41-5.237-1.604A28 28 0 0 0 11.999 3m0 16v-2.999c.31 0 .621-.014.923-.036 1.163-.087 1.744-.13 2.328-.713.583-.584.626-1.165.713-2.328.022-.302.036-.613.036-.924 0-.31-.014-.621-.036-.923-.087-1.163-.13-1.744-.713-2.328-.584-.583-1.165-.626-2.328-.713A13 13 0 0 0 11.999 8V5.001c.643 0 1.292.029 1.93.076 2.75.205 3.264.318 3.97 1.025s.82 1.22 1.025 3.97c.047.638.076 1.287.076 1.93 0 .642-.029 1.291-.076 1.928-.205 2.75-.319 3.265-1.025 3.971-.706.707-1.22.82-3.97 1.025-.638.047-1.287.076-1.93.076M12 8c-.311 0-.622.015-.923.037-1.163.087-1.744.13-2.328.713-.583.584-.626 1.165-.713 2.328-.022.302-.036.613-.036.924 0 .31.014.621.036.923.087 1.163.13 1.744.713 2.327.584.584 1.165.627 2.328.714.301.022.612.036.922.036z"/></svg>