<svg xmlns="http://www.w3.org/2000/svg" viewBox="0 0 17 17"><path d="M16.929 4.966a7.19 7.19 0 0 0-4.786-4.39.797.797 0 1 0-.467 1.525 5.6 5.6 0 0 1 3.776 3.466.798.798 0 1 0 1.477-.601"/><path d="M14.797 5.508c.183.425-.114.878-.569.962-.414.076-.808-.185-1.004-.558a3.4 3.4 0 0 0-1.753-1.583c-.404-.161-.71-.548-.656-.979.055-.443.466-.761.892-.627a5 5 0 0 1 3.09 2.785"/><path fill-rule="evenodd" d="M14.148 9.561h.46a.797.797 0 0 0 0-1.593h-1.283l-.013-.043c-.401-1.227-.601-1.84-1.288-2.416a4 4 0 0 0-.35-.254c-.76-.474-1.565-.474-3.175-.474s-2.415 0-3.175.474a4 4 0 0 0-.35.254c-.686.575-.887 1.19-1.288 2.417l-.013.042H2.39a.797.797 0 0 0 0 1.593h.46l-.021.083a6.3 6.3 0 0 0-.173 1.449v3.78a1.062 1.062 0 0 0 2.125 0v-.531h7.436v.531a1.062 1.062 0 1 0 2.125 0v-3.78a6.3 6.3 0 0 0-.194-1.532M5.312 8.083a40 40 0 0 1 3.184-.115c1.34 0 2.393.05 3.19.115-.333-.995-.43-1.139-.685-1.352a2 2 0 0 0-.172-.124c-.29-.182-.567-.233-2.33-.233s-2.04.051-2.33.233a3 3 0 0 0-.172.124c-.254.213-.352.357-.685 1.352m.265 3.869a.797.797 0 1 0 0-1.594.797.797 0 0 0 0 1.594m2.125-1.594a.797.797 0 0 0 0 1.594h1.594a.797.797 0 1 0 0-1.594zm3.719 1.594a.797.797 0 1 0 0-1.594.797.797 0 0 0 0 1.594"/></svg>