<svg xmlns="http://www.w3.org/2000/svg" viewBox="0 0 24 24"><path d="M23.948 7.715q.052.152.052.313v.208a.94.94 0 0 1-.748.921c-.509.108-1.003-.221-1.17-.714a8.02 8.02 0 0 0-5.415-5.146c-.531-.15-.91-.651-.83-1.197.08-.547.592-.93 1.128-.794a10.02 10.02 0 0 1 6.983 6.41"/><path d="M20.373 9.764c.54-.114.893-.648.703-1.166a7.02 7.02 0 0 0-4.564-4.304c-.528-.158-1.04.225-1.122.77-.082.547.301 1.048.82 1.237a5.02 5.02 0 0 1 2.88 2.716c.22.507.742.86 1.283.747"/><path fill-rule="evenodd" d="M20.273 13.937a3 3 0 0 0-.14-.437h.367a1 1 0 1 0 0-2h-1.625l-.027-.085c-.578-1.768-.867-2.651-1.926-3.48a5 5 0 0 0-.257-.186C15.549 7 14.366 7 12 7s-3.55 0-4.666.75a5 5 0 0 0-.255.185c-1.06.828-1.35 1.712-1.927 3.48l-.027.085H3.5a1 1 0 0 0 0 2h.367a3 3 0 0 0-.139.434 9 9 0 0 0-.228 1.978v4.838a1.25 1.25 0 1 0 2.5 0V20h12v.75a1.25 1.25 0 1 0 2.5 0v-4.838c0-.733-.097-1.405-.227-1.975M8.31 9.51c-.474.37-.63.635-1.14 2.172a58 58 0 0 1 4.827-.183c2.034 0 3.635.083 4.834.184-.51-1.537-.667-1.802-1.14-2.172l-.141-.102C15.044 9.07 14.565 9 12 9s-3.044.07-3.55.41c-.032.022-.11.078-.14.101M8.5 16a1 1 0 1 1-2 0 1 1 0 0 1 2 0m1 0a1 1 0 0 1 1-1h3a1 1 0 1 1 0 2h-3a1 1 0 0 1-1-1m7 1a1 1 0 1 0 0-2 1 1 0 0 0 0 2"/></svg>