<svg xmlns="http://www.w3.org/2000/svg" viewBox="0 0 32 32"><path d="M31.938 10.31q.059.183.058.377v.061c0 .572-.4 1.066-.96 1.183-.652.138-1.287-.284-1.497-.919A10.77 10.77 0 0 0 22.16 4.02c-.665-.18-1.138-.809-1.038-1.491.101-.684.74-1.162 1.41-.996a13.27 13.27 0 0 1 9.406 8.776"/><path d="M27.933 11.313c.232.65-.208 1.316-.882 1.458-.676.143-1.328-.298-1.595-.935a6.65 6.65 0 0 0-3.92-3.7c-.65-.228-1.129-.854-1.026-1.538.102-.682.741-1.16 1.403-.967a9.15 9.15 0 0 1 6.02 5.682"/><path fill-rule="evenodd" d="m25.21 15.5-.043-.131c-.779-2.383-1.168-3.574-2.649-4.688l-.164-.12C20.835 9.5 19.224 9.5 16 9.5s-4.837 0-6.356 1.063l-.162.117C8 11.795 7.611 12.987 6.832 15.37l-.042.13H4.75a1.25 1.25 0 1 0 0 2.5h.728q-.093.235-.153.49C5.141 19.27 5 20.2 5 21.215v6.034a1.75 1.75 0 1 0 3.5 0v-.75h15v.75a1.75 1.75 0 1 0 3.5 0v-6.034c0-1.015-.14-1.943-.324-2.723a4 4 0 0 0-.154-.493h.728a1.25 1.25 0 0 0 0-2.5zm-2.598.104c-1.56-.146-3.734-.27-6.616-.27-2.88 0-5.05.123-6.608.27.666-2.005.893-2.396 1.596-2.925.02-.016.072-.053.094-.068C11.82 12.092 12.523 12 16 12s4.18.092 4.921.61l.095.07c.703.528.93.92 1.596 2.924M10.25 22.5a1.25 1.25 0 1 0 0-2.5 1.25 1.25 0 0 0 0 2.5M13 21.25c0-.69.56-1.25 1.25-1.25h3.5a1.25 1.25 0 1 1 0 2.5h-3.5c-.69 0-1.25-.56-1.25-1.25m10 0a1.25 1.25 0 1 1-2.5 0 1.25 1.25 0 0 1 2.5 0"/></svg>