<svg xmlns="http://www.w3.org/2000/svg" viewBox="0 0 16 16"><path fill-rule="evenodd" d="M7.571 3.233c-.515 0-.975 0-1.346.05-.404.054-.814.18-1.15.515s-.46.745-.514 1.149c-.05.371-.05.83-.05 1.346V8.25h-.513a.75.75 0 1 0 0 1.5h.513v1.03h-.513a.75.75 0 0 0 0 1.5h.513v.704a.75.75 0 0 0 1.5 0v-.705h3.247a.75.75 0 0 0 0-1.5H6.011V9.75h2.612q.43 0 .817-.019c1.677-.076 3.33-1.184 3.33-3.132 0-2.036-1.727-3.293-3.542-3.355q-.292-.01-.605-.01zm.427 5.016h.625q.392 0 .749-.017c1.158-.053 1.899-.743 1.899-1.634 0-1.017-.86-1.814-2.094-1.856q-.268-.01-.554-.01H7.618c-.577 0-.934.002-1.193.037-.232.031-.276.077-.288.088v.001l-.002.001c-.011.012-.057.056-.088.288-.035.259-.036.616-.036 1.193v1.91z"/></svg>