<svg xmlns="http://www.w3.org/2000/svg" viewBox="0 0 16 16"><path fill-rule="evenodd" d="M1.338 8.371c-.198-.451-.308-.94-.331-1.535h.006a5 5 0 0 1 0-.718c.164-2.298 1.89-4.105 3.995-4.105.663 0 1.288.18 1.84.497.434.25.822.587 1.146.99a4.1 4.1 0 0 1 1.143-.995A3.67 3.67 0 0 1 10.991 2c2.102 0 3.825 1.8 3.995 4.092a5 5 0 0 1 0 .744h.007l-.007.136a4 4 0 0 1-.324 1.4c-.375.859-1.065 1.582-2.07 2.634l-.137.142c-.347.355-.708.694-1.069 1.012C9.996 13.386 9.3 14 8 14s-1.995-.614-3.387-1.84a20 20 0 0 1-1.205-1.154c-1.005-1.052-1.695-1.775-2.07-2.635M4.48 9.933C3.105 8.492 2.66 7.969 2.54 7.168c0 0-.033-.203-.041-.335a3 3 0 0 1-.002-.27l.002-.086c0-1.742 1.24-2.929 2.508-2.929.695 0 1.35.333 1.828.927l1.162 1.446 1.158-1.45c.478-.6 1.137-.935 1.835-.935 1.27 0 2.422 1.41 2.509 2.928a3 3 0 0 1-.044.728c-.127.788-.575 1.315-1.937 2.74a17 17 0 0 1-1.112 1.064C8.94 12.291 8.657 12.464 8 12.464c-.656 0-.94-.173-2.408-1.468a18 18 0 0 1-1.111-1.063M6.6 8.369h2.8c.331 0 .597.276.536.61-.137.757-.57 1.95-1.936 1.95-1.365 0-1.799-1.194-1.936-1.95-.06-.334.205-.61.536-.61m-.527-1.397-.021-.016A.1.1 0 0 0 6 6.937a.1.1 0 0 0-.051.02l-.022.015a.74.74 0 0 1-1.043.01.78.78 0 0 1-.028-1.085v-.001h.002l.001-.003.004-.004.009-.009a1 1 0 0 1 .088-.083c.053-.045.127-.102.22-.159.182-.111.464-.237.82-.237s.638.126.82.237a1.7 1.7 0 0 1 .308.242l.01.01.003.003.002.002.001.002a.78.78 0 0 1-.028 1.085.74.74 0 0 1-1.043-.01m4 0-.021-.016A.1.1 0 0 0 10 6.937a.1.1 0 0 0-.051.02l-.022.015a.74.74 0 0 1-1.043.01.78.78 0 0 1-.028-1.085v-.001h.002l.001-.003.004-.004.009-.009a1 1 0 0 1 .088-.083c.053-.045.127-.102.22-.159.182-.111.464-.237.82-.237s.638.126.82.237a1.7 1.7 0 0 1 .308.242l.01.01.003.003.002.002.001.002a.78.78 0 0 1-.028 1.085.74.74 0 0 1-1.043-.01"/></svg>