<svg xmlns="http://www.w3.org/2000/svg" viewBox="0 0 24 24"><path fill-rule="evenodd" d="M5.44 16.759c-1.492-1.55-2.498-2.595-3.019-3.878C2.089 12.063 2 11.204 2 10.343q0-.256.018-.508c.234-3.255 2.7-5.816 5.708-5.816.997 0 1.935.282 2.752.777.57.346 1.082.797 1.513 1.329.43-.534.94-.986 1.508-1.335A5.3 5.3 0 0 1 16.273 4c3.002 0 5.465 2.55 5.707 5.797.031.414.027.832 0 1.247a5.8 5.8 0 0 1-.401 1.837c-.52 1.283-1.527 2.328-3.02 3.878a28 28 0 0 1-1.721 1.634C14.85 20.13 13.857 21 12 21s-2.85-.87-4.838-2.607a28 28 0 0 1-1.722-1.634m1.43-1.42c-1.97-2.046-2.633-2.812-2.812-4.006l-.018-.235a10 10 0 0 1-.04-.755c0-2.536 1.823-4.294 3.726-4.294 1.039 0 2.015.495 2.721 1.366l1.55 1.911L13.54 7.41c.708-.88 1.689-1.379 2.733-1.379C18.177 6.03 20 7.788 20 10.324c0 .265-.022.53-.044.795l-.02.25c-.187 1.174-.856 1.945-2.806 3.97-.51.53-1.05 1.036-1.598 1.516C13.442 18.682 13 18.97 12 18.97s-1.443-.288-3.533-2.115a26 26 0 0 1-1.597-1.516m2.642-2.712c-.238 0-.512.088-.725.311-.232.243-.334.59-.262.93.028.134.202.901.674 1.659.478.768 1.364 1.669 2.801 1.669s2.323-.901 2.801-1.67a5.5 5.5 0 0 0 .674-1.658c.072-.34-.03-.687-.262-.93a1 1 0 0 0-.725-.31zM12 15.165c-.402 0-.708-.187-.96-.507h1.92c-.252.32-.558.507-.96.507m-3.357-4.142-.008.009.002-.003.003-.003zm-.013.013.002-.001a.99.99 0 0 1-1.4.063 1.026 1.026 0 0 1-.075-1.434l.002-.002.002-.003.005-.005.012-.013a2 2 0 0 1 .135-.133c.083-.076.202-.174.351-.272.29-.19.754-.416 1.336-.416s1.045.226 1.336.416a3 3 0 0 1 .486.405l.013.013.004.005.002.003.002.001v.001c.37.417.336 1.059-.074 1.434a.99.99 0 0 1-1.417-.078 1 1 0 0 0-.1-.078.5.5 0 0 0-.252-.091.5.5 0 0 0-.252.091 1 1 0 0 0-.116.093v-.001zm6.005-.004.007-.008-.002.002-.003.003zm-.003.003-.002.001.003-.002.002-.002zm0 0a.99.99 0 0 1-1.4.063 1.026 1.026 0 0 1-.075-1.434l.002-.002.002-.003.005-.005.012-.013a2 2 0 0 1 .135-.133c.083-.076.202-.174.351-.272.29-.19.754-.416 1.336-.416s1.045.226 1.336.416a3 3 0 0 1 .486.405l.012.013.005.005.003.003v.001s-.008-.009.002.001a1.027 1.027 0 0 1-.075 1.434.99.99 0 0 1-1.417-.078 1 1 0 0 0-.1-.078.5.5 0 0 0-.252-.091.5.5 0 0 0-.252.091 1 1 0 0 0-.116.093"/></svg>