<svg xmlns="http://www.w3.org/2000/svg" viewBox="0 0 44 44"><path fill-rule="evenodd" d="M17.94 36.579A6.5 6.5 0 0 0 22 38a6.5 6.5 0 0 0 4.06-1.421s6.41-4.942 10.713-9.529 4.303-12.023 0-16.61C32.73 6.13 26.328 5.87 22 9.66c-4.328-3.79-10.73-3.53-14.773.78-4.303 4.587-4.303 12.024 0 16.61s10.712 9.529 10.712 9.529M13.234 19.05c.606.555 1.545.52 2.108-.075l.003-.004.058-.053c.06-.053.154-.128.274-.203.25-.158.535-.268.823-.268s.573.11.823.268a2.2 2.2 0 0 1 .332.256l.003.004c.563.595 1.502.63 2.107.075.61-.56.65-1.507.089-2.115l-.002-.002-.001-.001-.003-.004-.008-.008-.02-.022a3 3 0 0 0-.246-.231 5 5 0 0 0-.65-.483c-.542-.342-1.382-.73-2.424-.73s-1.882.388-2.424.73a5.2 5.2 0 0 0-.837.655l-.058.06-.02.02-.008.009-.004.004-.001.001-.001.001v.001a1.494 1.494 0 0 0 .088 2.115m13.108-.075a1.5 1.5 0 0 1-2.107.075 1.494 1.494 0 0 1-.089-2.115c.006-.007 0 0 0 0l.002-.002.001-.001.003-.004.008-.008.02-.022a3 3 0 0 1 .246-.231c.154-.135.373-.31.65-.483.542-.342 1.382-.73 2.424-.73s1.882.388 2.424.73a5.2 5.2 0 0 1 .837.655l.058.06.02.02.009.009.003.004.002.001v.002a1.493 1.493 0 0 1-.088 2.115 1.5 1.5 0 0 1-2.107-.075l-.003-.004-.058-.053a2 2 0 0 0-.274-.203c-.25-.158-.535-.268-.823-.268s-.573.11-.823.268a2.2 2.2 0 0 0-.332.256zm-9.219 4.96c-.846 0-1.53.793-1.306 1.675.11.43.496 1.759 1.395 3.006.918 1.272 2.451 2.552 4.788 2.552s3.87-1.28 4.788-2.552c.9-1.247 1.285-2.575 1.395-3.006.225-.882-.46-1.674-1.306-1.674zm2.118 3.224a6 6 0 0 1-.446-.729h6.41c-.125.24-.273.488-.446.729-.615.852-1.475 1.515-2.759 1.515s-2.144-.663-2.759-1.515"/></svg>