<svg xmlns="http://www.w3.org/2000/svg" viewBox="0 0 28 28"><path fill-rule="evenodd" d="M3.104 11.463c.04-.529.076-1.014.116-1.463h21.567c.04.449.076.934.116 1.463.061.829.099 1.684.099 2.539 0 .854-.038 1.71-.1 2.538-.237 3.197-.356 4.795-1.96 6.4-1.605 1.604-3.204 1.723-6.4 1.96-.829.063-1.684.1-2.539.1-.854 0-1.71-.037-2.538-.1-3.197-.237-4.795-.356-6.4-1.96-1.604-1.605-1.723-3.203-1.961-6.4a34 34 0 0 1-.099-2.538c0-.855.037-1.71.1-2.539M12 13a1 1 0 1 0 0 2h4a1 1 0 1 0 0-2z"/><path d="M22.941 5.064c.89.89 1.323 1.777 1.572 2.936H3.493c.25-1.16.683-2.047 1.572-2.936 1.605-1.605 3.203-1.724 6.4-1.962a34 34 0 0 1 2.538-.099c.855 0 1.71.038 2.539.1 3.196.237 4.795.356 6.4 1.96"/></svg>