<svg xmlns="http://www.w3.org/2000/svg" viewBox="0 0 44 44"><path fill-rule="evenodd" d="M22 9c-1.051 0-2.112.042-3.155.114-4.975.34-6.17.535-7.683 2.048-.582.582-.97 1.117-1.244 1.838h24.164c-.275-.721-.662-1.256-1.243-1.838-1.513-1.513-2.71-1.707-7.683-2.048A46 46 0 0 0 22 9M6.501 14.443q.008-.182.055-.351c.344-2.055.979-3.546 2.484-5.052 2.429-2.428 4.819-2.592 9.6-2.92C19.74 6.046 20.87 6 22 6s2.26.045 3.36.12c4.781.328 7.172.492 9.6 2.92 1.505 1.506 2.14 2.997 2.484 5.052q.047.169.055.351c.174 1.18.267 2.546.38 4.197.076 1.1.121 2.23.121 3.36s-.045 2.26-.12 3.36c-.328 4.781-.492 7.172-2.92 9.6s-4.819 2.592-9.6 2.92c-1.1.075-2.23.12-3.36.12s-2.26-.045-3.36-.12c-4.781-.328-7.171-.492-9.6-2.92s-2.592-4.819-2.92-9.6A49 49 0 0 1 6 22c0-1.13.045-2.26.12-3.36.113-1.65.207-3.016.381-4.197m28.386 4.402A94 94 0 0 0 34.66 16H9.339a97 97 0 0 0-.226 2.845A46 46 0 0 0 9 22c0 1.052.042 2.112.113 3.156.341 4.974.536 6.17 2.049 7.683s2.708 1.707 7.682 2.048C19.889 34.958 20.95 35 22 35s2.112-.042 3.156-.113c4.974-.341 6.17-.535 7.683-2.048s1.707-2.709 2.048-7.683A46 46 0 0 0 35 22c0-1.051-.042-2.112-.113-3.155M18 20a1.5 1.5 0 0 0 0 3h8a1.5 1.5 0 1 0 0-3z"/></svg>