<svg xmlns="http://www.w3.org/2000/svg" viewBox="0 0 16 16"><path d="M6.263 4.682A17 17 0 0 1 8 4.583c.582 0 1.156.042 1.581.083l.06.006c.276.025.676.06 1.028.376.349.312.42.66.471.907l.008.038c.042.197.073.427.073.674 0 .227-.027.443-.062.632l-.01.05c-.049.272-.12.663-.492.99-.375.328-.82.35-1.125.364l-.071.004a31 31 0 0 1-.75.032.75.75 0 0 1-1.461-.24c0-.693.56-1.24 1.233-1.255a28 28 0 0 0 1.169-.054l.033-.167a2 2 0 0 0 .036-.356q-.002-.187-.04-.367l-.026-.117-.021-.003-.197-.02A16 16 0 0 0 8 6.082a16 16 0 0 0-1.652.098l-.002.01a.75.75 0 0 1-1.45-.381l.002-.011c.033-.128.076-.29.214-.493.079-.115.178-.21.251-.273s.183-.147.309-.207c.223-.107.42-.127.563-.141zM8.9 11a.9.9 0 1 0-1.8 0 .9.9 0 0 0 1.8 0"/><path fill-rule="evenodd" d="M2.054 6.615c.13-1.744.195-2.616 1.07-3.491s1.747-.94 3.491-1.07C7.067 2.02 7.534 2 8 2s.933.02 1.385.054c1.744.13 2.616.195 3.491 1.07s.94 1.747 1.07 3.491C13.98 7.067 14 7.534 14 8s-.02.933-.054 1.385c-.13 1.744-.195 2.616-1.07 3.491s-1.747.94-3.491 1.07C8.933 13.98 8.466 14 8 14s-.933-.02-1.385-.054c-1.744-.13-2.616-.195-3.491-1.07s-.94-1.747-1.07-3.491A19 19 0 0 1 2 8c0-.466.02-.933.054-1.385M6.727 3.55c.42-.031.85-.05 1.273-.05s.852.019 1.273.05c1.845.137 2.122.214 2.542.635.42.42.498.697.635 2.542.032.42.05.85.05 1.273s-.018.852-.05 1.273c-.137 1.845-.214 2.122-.635 2.542-.42.42-.697.498-2.542.635-.42.032-.85.05-1.273.05s-.852-.018-1.273-.05c-1.845-.137-2.122-.214-2.542-.635-.42-.42-.498-.697-.635-2.542A17 17 0 0 1 3.5 8c0-.423.019-.852.05-1.273.137-1.845.214-2.122.635-2.542.42-.42.697-.498 2.542-.635"/></svg>