<svg xmlns="http://www.w3.org/2000/svg" viewBox="0 0 24 24"><path d="M9.408 7.147A26 26 0 0 1 12 7a25 25 0 0 1 2.36.124l.087.008c.417.038.977.089 1.473.533.492.44.592.926.669 1.295l.011.054c.06.29.106.626.106.986 0 .332-.038.648-.09.926l-.014.073c-.075.407-.175.954-.7 1.414-.527.463-1.15.494-1.612.516l-.106.006-.132.007L13 13s0 1-1 1c-.767 0-.946-.588-.987-.862q.008-.187.03-.352c.047-.37.161-.802.506-1.166.35-.369.786-.503 1.154-.568.338-.06.754-.082 1.192-.105.176-.01.352-.016.527-.031.075-.007.124-.013.157-.019l.017-.069c.016-.068.031-.15.054-.27.035-.187.056-.377.056-.558a3 3 0 0 0-.063-.575 6 6 0 0 0-.05-.225l-.01-.036-.116-.018A23 23 0 0 0 12 9a24 24 0 0 0-2.528.152c-.057.007-.06.046-.068.078a1 1 0 1 1-1.936-.5 2 2 0 0 1 .303-.7c.11-.16.25-.296.355-.387.106-.09.26-.208.436-.292.315-.15.591-.178.805-.2zM12 15.251a1.249 1.249 0 1 1 0 2.498 1.249 1.249 0 0 1 0-2.498"/><path fill-rule="evenodd" d="M4.686 4.686c-1.313 1.313-1.41 2.62-1.605 5.237C3.031 10.6 3 11.3 3 12s.03 1.399.081 2.077c.195 2.616.292 3.924 1.605 5.237s2.62 1.41 5.237 1.605C10.6 20.969 11.3 21 12 21s1.399-.03 2.077-.081c2.616-.195 3.924-.292 5.237-1.605s1.41-2.62 1.605-5.237C20.969 13.4 21 12.7 21 12s-.03-1.399-.081-2.077c-.195-2.616-.292-3.924-1.605-5.237s-2.62-1.41-5.237-1.605A28 28 0 0 0 12 3c-.7 0-1.399.03-2.077.081-2.616.195-3.924.292-5.237 1.605M12 5c-.642 0-1.292.028-1.929.076-2.75.204-3.265.318-3.97 1.024-.707.706-.82 1.22-1.025 3.971A26 26 0 0 0 5 12c0 .642.028 1.292.076 1.929.204 2.75.318 3.265 1.024 3.97.706.707 1.22.82 3.971 1.025.637.048 1.287.076 1.929.076s1.292-.028 1.929-.076c2.75-.204 3.265-.318 3.97-1.024.707-.706.82-1.22 1.025-3.971.048-.637.076-1.287.076-1.929s-.028-1.292-.076-1.929c-.204-2.75-.318-3.265-1.024-3.97-.706-.707-1.22-.82-3.971-1.025A26 26 0 0 0 12 5"/></svg>