<svg xmlns="http://www.w3.org/2000/svg" viewBox="0 0 32 32"><path fill-rule="evenodd" d="M6.248 6.248c-1.75 1.75-1.88 3.494-2.14 6.982A38 38 0 0 0 4 16c0 .933.04 1.866.108 2.77.26 3.488.39 5.232 2.14 6.982s3.494 1.88 6.982 2.14c.904.067 1.837.108 2.77.108s1.866-.04 2.77-.108c3.488-.26 5.232-.39 6.982-2.14s1.88-3.494 2.14-6.982c.067-.904.108-1.837.108-2.77s-.04-1.866-.108-2.77c-.26-3.488-.39-5.232-2.14-6.982s-3.494-1.88-6.982-2.14A38 38 0 0 0 16 4c-.933 0-1.866.04-2.77.108-3.488.26-5.232.39-6.982 2.14m9.83 2.576c-1.158 0-2.304.094-3.076.174l-.048.005c-.254.026-.582.06-.955.237-.208.1-.392.24-.517.347a2.4 2.4 0 0 0-.421.458 2.4 2.4 0 0 0-.36.832 1.187 1.187 0 1 0 2.297.592l.003-.013c.008-.035.017-.072.078-.08l.169-.018c.73-.076 1.786-.162 2.83-.162a28 28 0 0 1 2.926.173q.097.013.139.022.005.016.01.042c.017.066.034.144.06.267.045.219.075.451.075.683 0 .214-.026.44-.067.661a10 10 0 0 1-.084.403 2 2 0 0 1-.186.022q-.245.02-.492.03l-.133.008c-.52.027-1.013.052-1.414.123-.438.078-.954.237-1.369.675-.41.431-.546.943-.601 1.383a6 6 0 0 0-.036.417c.05.326.262 1.023 1.172 1.023 1.186 0 1.186-1.186 1.186-1.186l1.247-.07.158-.008.125-.006c.548-.027 1.287-.063 1.914-.613.622-.546.74-1.194.83-1.677l.015-.087c.062-.33.107-.705.107-1.098 0-.428-.053-.826-.125-1.17l-.014-.064c-.09-.438-.21-1.014-.793-1.537-.588-.526-1.253-.587-1.747-.632l-.104-.01a30 30 0 0 0-2.8-.146M16 23a1.75 1.75 0 1 0 0-3.5 1.75 1.75 0 0 0 0 3.5"/></svg>