<svg xmlns="http://www.w3.org/2000/svg" viewBox="0 0 32 32"><path fill-rule="evenodd" d="M5.172 5.172C4 6.343 4 8.229 4 12v8c0 3.771 0 5.657 1.172 6.828S8.229 28 12 28h4c.933 0 1.865-.04 2.77-.108.84-.063 1.491-.728 1.61-1.562.242-1.718.685-2.899 1.868-4.082s2.364-1.626 4.082-1.869c.834-.118 1.5-.77 1.562-1.61A38 38 0 0 0 28 16c0-3.405-2.446-6.81-4.214-8.827-.949-1.082-1.423-1.623-2.376-2.174s-1.204-.6-1.705-.7C18.832 4.125 17.635 4 16 4h-4C8.229 4 6.343 4 5.172 5.172M6.5 12c0-1.957.005-3.172.124-4.056.107-.798.266-.955.313-1.002l.002-.003.003-.002c.047-.047.204-.206 1.002-.313.884-.119 2.1-.124 4.056-.124h4c1.514 0 2.541.117 3.217.251.233.046.25.053.27.061l.006.002c.06.023.226.096.666.35.55.317.778.552 1.747 1.657.812.926 1.74 2.128 2.454 3.44q.343.629.589 1.237H6.5zm3.75 5.5a1.25 1.25 0 1 0 0 2.5h3a1.25 1.25 0 1 0 0-2.5z"/></svg>