<svg xmlns="http://www.w3.org/2000/svg" viewBox="0 0 17 17"><path d="M4.78 9.827c0-.44.358-.797.798-.797H7.17a.797.797 0 1 1 0 1.594H5.578a.797.797 0 0 1-.797-.797"/><path fill-rule="evenodd" d="M2.125 10.624c0 2.003 0 3.005.622 3.627s1.624.622 3.627.622H8.5c.495 0 .99-.021 1.471-.057.446-.033.792-.387.855-.83.129-.913.364-1.54.993-2.168.628-.629 1.255-.864 2.168-.993.443-.063.797-.409.83-.855.035-.48.057-.976.057-1.471 0-1.809-1.299-3.617-2.238-4.689-.504-.575-.756-.862-1.262-1.154-.507-.293-.64-.32-.906-.372-.464-.093-1.1-.16-1.968-.16H6.374c-2.003 0-3.005 0-3.627.623-.622.622-.622 1.624-.622 3.627zm1.657-6.369c-.06.448-.064 1.072-.064 2.12v.53h9.126a7 7 0 0 0-.137-.265c-.367-.674-.847-1.296-1.27-1.78-.517-.589-.613-.68-.861-.825a3 3 0 0 0-.315-.167l-.105-.021c-.338-.068-.866-.129-1.657-.129H6.374c-1.047 0-1.671.004-2.119.064a1.5 1.5 0 0 0-.376.089l-.005.003-.003.005-.01.022a1.5 1.5 0 0 0-.08.354m-.064 6.369c0 1.047.004 1.671.064 2.119a1.5 1.5 0 0 0 .089.376l.003.005.005.003.022.01c.046.019.149.051.354.08.448.06 1.072.063 2.12.063h2.124q.416 0 .834-.021c.19-.931.555-1.765 1.358-2.568s1.637-1.167 2.568-1.358q.02-.418.02-.834H3.72z"/></svg>