<svg xmlns="http://www.w3.org/2000/svg" viewBox="0 0 24 24"><path fill-rule="evenodd" d="M3.879 3.879C3 4.757 3 6.172 3 8.999V15c0 2.828 0 4.243.879 5.121.878.879 2.293.879 5.12.879H12c.7 0 1.399-.03 2.077-.081.63-.047 1.119-.546 1.207-1.171.182-1.29.514-2.175 1.402-3.062.887-.888 1.773-1.22 3.062-1.402.625-.088 1.124-.577 1.17-1.207A27 27 0 0 0 21 12c0-2.554-1.834-5.107-3.16-6.62-.712-.812-1.068-1.218-1.783-1.63-.714-.413-.902-.45-1.278-.526C14.124 3.094 13.226 3 12 3H9c-2.828 0-4.243 0-5.121.879M5 8.999c0-1.47.004-2.372.092-3.024.077-.574.187-.67.2-.681v-.001l.002-.001c.011-.013.107-.123.68-.2C6.628 5.004 7.53 5 9 5h3c1.129 0 1.891.087 2.388.186.17.034.18.038.185.04l.002.002c.035.013.154.064.482.253.392.227.55.387 1.279 1.217.605.69 1.295 1.584 1.825 2.558q.205.378.363.744H5zM8 13a1 1 0 1 0 0 2h2a1 1 0 1 0 0-2z"/></svg>