<svg xmlns="http://www.w3.org/2000/svg" viewBox="0 0 17 17"><path d="M8.613 1.98a.797.797 0 0 1 1.094-.272l4.22 2.538h1.212a.797.797 0 0 1 0 1.593h-1.434a.8.8 0 0 1-.41-.114l-4.41-2.652a.797.797 0 0 1-.272-1.093"/><path fill-rule="evenodd" d="M8.622 5.977a.797.797 0 1 0-.284-1.567v-.002c-1.01.217-1.819.624-2.464 1.017-.232.142-.444.282-.631.408l-.108.072c-.145.098-.27.181-.387.255-.242.153-.35.194-.379.205l-.008.003h.004l-1.137.003a1.64 1.64 0 0 0-1.634 1.64v.891a1.06 1.06 0 0 0-.532.921v.729q0 .23.006.423c.033 1.13.893 1.88 1.91 1.983.317.031.677.057 1.024.057h.37a2.657 2.657 0 0 0 5.068 0h5.699a.797.797 0 0 0 0-1.594H9.44a2.657 2.657 0 0 0-5.07 0h-.368c-.275 0-.578-.02-.866-.05-.33-.032-.469-.22-.475-.442a13 13 0 0 1-.005-.377v-.34c.317-.184.531-.528.531-.92v-1.28c0-.025.021-.047.047-.047.362-.002.774-.003 1.134-.003.489 0 .935-.267 1.231-.454.139-.088.287-.188.434-.286l.097-.066c.183-.122.371-.247.574-.37.533-.325 1.157-.638 1.918-.809m-2.779 6.24a1.062 1.062 0 1 1 2.125 0 1.062 1.062 0 0 1-2.125 0"/></svg>