<svg xmlns="http://www.w3.org/2000/svg" viewBox="0 0 16 16"><path d="M3.303 3.303c-.268.268-.279.518-.3 1.017a4 4 0 0 0 0 .36c.021.499.032.749.3 1.017s.518.279 1.017.3a4 4 0 0 0 .36 0c.499-.021.749-.032 1.017-.3s.279-.518.3-1.017a4 4 0 0 0 0-.36c-.021-.499-.032-.749-.3-1.017s-.518-.279-1.017-.3a4 4 0 0 0-.36 0c-.499.021-.749.032-1.017.3m9.227.167a.75.75 0 0 1 0 1.06l-8 8a.75.75 0 0 1-1.06-1.06l8-8a.75.75 0 0 1 1.06 0m-2.526 7.85c.02-.499.03-.749.3-1.017.267-.268.517-.279 1.016-.3a5 5 0 0 1 .36 0c.499.021.749.032 1.017.3s.279.518.3 1.017a5 5 0 0 1 0 .36c-.021.499-.032.749-.3 1.017s-.518.279-1.017.3a5 5 0 0 1-.36 0c-.499-.021-.749-.032-1.017-.3s-.279-.518-.3-1.017a5 5 0 0 1 0-.36"/></svg>