<svg xmlns="http://www.w3.org/2000/svg" viewBox="0 0 24 24"><path fill-rule="evenodd" d="m18.343 14.65.436-1.223c.997-2.795 1.742-4.886 2.057-6.459.157-.784.207-1.435.129-1.978a2.6 2.6 0 0 0-.192-.685 2.1 2.1 0 0 0-.44-.637 2.1 2.1 0 0 0-.638-.44 2.6 2.6 0 0 0-.685-.192c-.542-.078-1.194-.029-1.978.128-1.572.316-3.664 1.06-6.459 2.057l-1.222.436c-2.038.727-3.563 1.27-4.622 1.835l-.467.22c-1.606.755-1.701 3-.166 3.888q2.124 1.227 4.239 2.468l.058.034c.216.127.34.201.45.28.3.213.562.476.776.775.078.11.153.234.28.45l.034.059a714 714 0 0 1 2.467 4.238c.889 1.536 3.134 1.44 3.889-.165l.22-.467c.564-1.06 1.108-2.584 1.834-4.622m.532-8.075c.136-.68.142-1.078.11-1.3-.042-.17-.076-.233-.26-.26-.222-.032-.62-.026-1.3.11-1.395.28-3.32.961-6.18 1.98l-1.223.436c-2.1.749-3.455 1.237-4.353 1.716l-.044.024-.512.24a.2.2 0 0 0-.084.067.2.2 0 0 0-.03.103.2.2 0 0 0 .021.105.2.2 0 0 0 .078.073q1.862 1.077 3.726 2.167a.9.9 0 0 0 .363.124 1 1 0 0 0 .133-.001c.182-.017.347-.116.678-.313 1.938-1.157 2.906-1.736 3.352-1.445q.15.099.249.249c.29.446-.288 1.415-1.446 3.353-.197.33-.296.496-.312.677a1 1 0 0 0-.001.133.9.9 0 0 0 .113.343 786 786 0 0 1 2.178 3.746.2.2 0 0 0 .074.078.2.2 0 0 0 .104.021.2.2 0 0 0 .103-.03.2.2 0 0 0 .067-.084l.24-.512.024-.044c.479-.898.967-2.252 1.716-4.353l.436-1.223c1.02-2.859 1.7-4.785 1.98-6.18"/></svg>