<svg xmlns="http://www.w3.org/2000/svg" viewBox="0 0 32 32"><path d="M27.114 4.886a2.8 2.8 0 0 0-.845-.583 3.4 3.4 0 0 0-.908-.255c-.72-.103-1.582-.038-2.622.17-2.085.419-4.857 1.407-8.562 2.727l-1.621.578c-2.702.963-4.723 1.684-6.127 2.433l-.823.386c-2.042.961-2.164 3.817-.21 4.947q2.121 1.227 4.24 2.462c.356.168.643.249.944.241.572-.015 1.078-.35 2.09-1.018l1.846-1.22c2.014-1.33 3.021-1.995 3.385-1.63.364.364-.305 1.37-1.641 3.38l-1.217 1.83c-.673 1.013-1.01 1.52-1.026 2.093-.009.31.077.606.255.977a1219 1219 0 0 1 2.439 4.2c1.13 1.954 3.986 1.832 4.947-.21l.386-.822c.75-1.405 1.47-3.426 2.433-6.128l.578-1.62c1.32-3.706 2.308-6.478 2.726-8.563.209-1.04.274-1.903.17-2.622a3.4 3.4 0 0 0-.254-.908 2.8 2.8 0 0 0-.583-.845"/></svg>