<svg xmlns="http://www.w3.org/2000/svg" viewBox="0 0 17 17"><path fill-rule="evenodd" d="M12.723 3.681a.797.797 0 1 0-.481-1.52c-2.512.796-4.879 1.861-6.99 3.178A43 43 0 0 0 3.344 3.98a.8.8 0 0 0-.422-.117.797.797 0 0 0-.384 1.496 41 41 0 0 1 2.03 1.462c.201.155.444.249.702.266l.245.016c1.806.119 3.807.25 5.385.618.828.192 1.461.434 1.871.72.385.268.508.522.508.797v1.917h-1.106a3.188 3.188 0 0 0-6.286 0H2.833a.8.8 0 0 0-.708.797c0 .452.365.773.797.796h3.102a3.188 3.188 0 0 0 6.012 0H13.6c.748 0 1.273-.612 1.273-1.289V9.238c0-.94-.511-1.632-1.191-2.105-.656-.457-1.52-.755-2.42-.964-1.036-.242-2.223-.388-3.39-.491a30.4 30.4 0 0 1 4.851-1.997m-5.286 8.005a1.594 1.594 0 1 1 3.187 0 1.594 1.594 0 0 1-3.187 0"/></svg>