<svg xmlns="http://www.w3.org/2000/svg" viewBox="0 0 24 24"><path fill-rule="evenodd" d="M18.302 4.953a1 1 0 0 0-.604-1.906c-3.535 1.12-7.248 2.745-10.227 4.605q-.03.018-.06.04a61 61 0 0 0-2.858-2.034.87.87 0 0 0-.553-.16 1 1 0 0 0-1 1c0 .386.216.672.538.887a58 58 0 0 1 2.988 2.147c.265.204.584.327.923.35l.386.025c2.54.167 5.391.354 7.65.873 1.191.274 2.12.62 2.73 1.039.581.398.785.791.785 1.224V16h-1.682a4.48 4.48 0 0 0-8.896 0H4.003A1 1 0 1 0 4 18h4.642a4.48 4.48 0 0 0 8.457 0h2.23C20.31 18 21 17.196 21 16.305v-3.261c0-1.283-.707-2.225-1.653-2.874-.917-.63-2.134-1.045-3.413-1.339-1.597-.367-3.445-.578-5.233-.725 2.36-1.244 5.023-2.336 7.601-3.153m-7.91 11.569a2.478 2.478 0 1 1 4.956 0 2.478 2.478 0 0 1-4.956 0"/></svg>