<svg xmlns="http://www.w3.org/2000/svg" viewBox="0 0 44 44"><path fill-rule="evenodd" d="M33.93 7.047a1.5 1.5 0 0 1-.977 1.883c-4.887 1.547-9.872 3.845-14.281 6.343 3.505.266 7.224.645 10.395 1.363 2.296.52 4.45 1.246 6.062 2.332 1.653 1.113 2.87 2.711 2.87 4.887v5.41C38 30.707 36.884 32 35.307 32H30.85a7.503 7.503 0 0 1-14.7 0H7.5a1.5 1.5 0 0 1 0-3h8.65a7.503 7.503 0 0 1 14.7 0H35v-5.145c0-.874-.434-1.65-1.547-2.4-1.155-.777-2.883-1.403-5.048-1.893-4.084-.925-9.206-1.26-13.706-1.555l-.77-.05a2.73 2.73 0 0 1-1.49-.564 103 103 0 0 0-5.702-4.077 1.5 1.5 0 0 1 .763-2.793c.29 0 .56.08.79.223a107 107 0 0 1 5.56 3.95 1.5 1.5 0 0 1 .245-.19c5.231-3.266 11.639-6.437 17.952-8.436a1.5 1.5 0 0 1 1.883.977M23.5 26a4.5 4.5 0 1 0 0 9 4.5 4.5 0 0 0 0-9"/></svg>