<svg xmlns="http://www.w3.org/2000/svg" viewBox="0 0 16 16"><path d="M5.75 8.3a.55.55 0 1 0 0-1.1.55.55 0 0 0 0 1.1m4.5 0a.55.55 0 1 0 0-1.1.55.55 0 0 0 0 1.1"/><path fill-rule="evenodd" d="M14.936 6.675c-.113-1.183-.17-1.774-.968-2.568-.799-.795-1.448-.853-2.747-.97C10.335 3.057 9.26 3 8 3s-2.336.057-3.221.137c-1.299.117-1.948.175-2.747.97s-.855 1.385-.968 2.566a14 14 0 0 0 0 2.654c.113 1.181.17 1.773.968 2.567.799.794 1.448.852 2.746.97a39 39 0 0 0 4.963.099c1.62.963 2.685 1.526 3.5 1.537.272.004.516-.056.744-.185C15 13.741 15 12.186 15 9.054V8q-.002-.7-.064-1.325m-7.453 1.32q.017-.12.017-.245A1.75 1.75 0 1 0 5.75 9.5h4.535a1.75 1.75 0 1 0-1.768-1.506z"/></svg>