<svg xmlns="http://www.w3.org/2000/svg" viewBox="0 0 24 24"><path d="M8.5 13.2a1.2 1.2 0 1 0 0-2.4 1.2 1.2 0 0 0 0 2.4m7 0a1.2 1.2 0 1 0 0-2.4 1.2 1.2 0 0 0 0 2.4"/><path fill-rule="evenodd" d="M22 11.122v2.691c0 4.699 0 7.048-1.521 7.91-1.3.735-2.96-.039-5.926-1.787-.78.04-1.632.065-2.553.065a47 47 0 0 1-4.055-.168c-2.024-.176-3.036-.264-4.326-1.558-1.29-1.293-1.37-2.264-1.532-4.204a25 25 0 0 1 0-4.14C2.25 7.99 2.33 7.018 3.62 5.725s2.302-1.382 4.326-1.558C9.098 4.068 10.45 4 12 4s2.902.068 4.055.168c2.025.176 3.037.264 4.327 1.558s1.37 2.265 1.532 4.206q.048.57.07 1.184zM11.33 13a3 3 0 1 0-2.83 2h7a3 3 0 1 0-2.83-2z"/></svg>