<svg xmlns="http://www.w3.org/2000/svg" viewBox="0 0 16 16"><path d="M6.75 4.5a.75.75 0 0 0-.75.75v.749h.707c.224 0 .356.043.382.058.014.009.035.023.063.088.034.08.064.212.08.423q.018.223.017.503l-.515-.294A2.1 2.1 0 0 0 5.692 6.5H4.5c0 1.47 1.235 2.94 2.667 3.373a1 1 0 0 1-.072.056c-.04.026-.117.071-.345.071a.75.75 0 0 0 0 1.5c.472 0 .845-.105 1.168-.317q.041-.027.082-.057.04.03.083.057c.322.212.695.317 1.167.317a.75.75 0 0 0 0-1.5c-.228 0-.305-.045-.345-.071a1 1 0 0 1-.072-.056C10.265 9.44 11.5 7.97 11.5 6.5h-1.193a2.1 2.1 0 0 0-1.041.277l-.514.293q0-.279.017-.502c.017-.211.047-.342.08-.423.028-.065.05-.08.064-.088.025-.015.158-.058.381-.058h.707V5.25a.75.75 0 0 0-.75-.75c-.4 0-.78.074-1.106.269q-.076.045-.144.096a2 2 0 0 0-.144-.096C7.53 4.574 7.15 4.5 6.75 4.5"/><path fill-rule="evenodd" d="M2 8c0 1.09.051 2.04.127 2.85.13 1.396.196 2.094 1.092 2.988.897.893 1.592.955 2.983 1.08a20 20 0 0 0 3.596 0c1.391-.125 2.086-.187 2.983-1.08.896-.894.962-1.592 1.092-2.987C13.95 10.04 14 9.09 14 8s-.051-2.04-.127-2.85c-.13-1.396-.195-2.095-1.092-2.988s-1.593-.956-2.984-1.08a20 20 0 0 0-3.594 0c-1.391.124-2.087.187-2.984 1.08S2.257 3.754 2.127 5.15C2.05 5.96 2 6.91 2 8m1.62 2.71A29 29 0 0 1 3.5 8c0-1.043.049-1.947.12-2.71.07-.748.11-1.096.197-1.373.062-.198.16-.392.461-.692.303-.302.497-.398.693-.46.276-.085.621-.123 1.366-.19a18.7 18.7 0 0 1 3.326 0c.745.067 1.09.105 1.367.19.195.062.39.158.692.46.302.3.4.494.461.692.088.277.127.625.197 1.373.071.763.12 1.667.12 2.71s-.049 1.947-.12 2.71c-.07.748-.11 1.096-.197 1.373-.062.197-.159.391-.46.692-.303.301-.498.398-.693.459-.276.085-.621.123-1.366.19a18.7 18.7 0 0 1-3.328 0c-.745-.067-1.09-.105-1.366-.19-.195-.061-.39-.158-.692-.459-.302-.3-.4-.495-.461-.692-.087-.277-.127-.625-.197-1.372"/></svg>