<svg xmlns="http://www.w3.org/2000/svg" viewBox="0 0 32 32"><path d="M24.01 16.5a1.26 1.26 0 0 1-1.08-.612l-1.757-2.93c-1.677-2.795-2.793-4.645-3.766-5.828l-.157-.187V27.25a1.25 1.25 0 0 1-2.5 0V6.942q-.076.088-.158.188c-.973 1.183-2.089 3.033-3.766 5.828l-1.758 2.93a1.26 1.26 0 0 1-1.08.612 1.24 1.24 0 0 1-1.242-1.223c-.004-.22.042-.448.17-.662l1.766-2.943.006-.01C11.952 6.222 13.585 3.5 16 3.5s4.047 2.722 7.311 8.162l.006.01 1.766 2.943c.128.214.167.445.163.666a1.23 1.23 0 0 1-1.235 1.22"/></svg>