<svg xmlns="http://www.w3.org/2000/svg" viewBox="0 0 24 24"><path fill-rule="evenodd" d="M8.118 6.16C9.214 6.065 10.508 6 12 6s2.786.065 3.882.16c1.079.094 1.602.149 2.023.278.313.097.613.25 1.06.699.458.46.606.755.696 1.043.123.394.173.88.26 1.918a23 23 0 0 1 0 3.805c-.087 1.037-.137 1.523-.26 1.917-.09.288-.238.584-.696 1.043-.447.449-.747.602-1.06.699-.42.13-.944.184-2.023.278-1.096.095-2.39.16-3.882.16s-2.786-.065-3.882-.16c-1.079-.094-1.602-.149-2.022-.278-.312-.097-.613-.25-1.06-.699-.458-.46-.606-.755-.696-1.043-.123-.393-.173-.879-.26-1.916a23 23 0 0 1 0-3.808c.087-1.037.137-1.522.26-1.916.09-.288.238-.584.696-1.043.447-.449.748-.602 1.06-.699.42-.13.944-.184 2.022-.278M12 4c-1.55 0-2.902.068-4.055.168-2.024.175-3.036.263-4.326 1.557S2.25 7.99 2.087 9.93a25 25 0 0 0 0 4.14c.162 1.94.243 2.911 1.532 4.205s2.302 1.382 4.326 1.557c1.153.1 2.505.168 4.055.168s2.902-.067 4.055-.168c2.025-.175 3.037-.263 4.327-1.557s1.37-2.265 1.532-4.206a25 25 0 0 0 0-4.137c-.162-1.942-.243-2.913-1.532-4.207s-2.302-1.382-4.328-1.557A47 47 0 0 0 12 4m-2.645 9.92q.414 0 .621-.198.216-.198.216-.657v-.28q0-.458-.216-.656-.216-.207-.63-.207-.324 0-.54.108a1.1 1.1 0 0 0-.369.279l-1.323-.288.28-3.231h3.905v1.296H8.554l-.108 1.26q.18-.18.486-.297a2.1 2.1 0 0 1 .774-.126q.999 0 1.512.513t.513 1.494q0 1.116-.62 1.656-.622.53-1.756.53-1.17 0-1.809-.467-.639-.468-.693-1.494h1.584q.054.396.261.585.207.18.657.18m4.817.414q0 .405-.208.594-.206.189-.603.189-.396 0-.612-.19-.207-.188-.207-.593t.207-.585q.216-.19.612-.19t.603.19q.207.18.207.585m1.2-5.544-1.278 1.008v1.467l1.278-1.044V15h1.503V8.79z"/></svg>