<svg xmlns="http://www.w3.org/2000/svg" viewBox="0 0 16 16"><path fill-rule="evenodd" d="M11.215 12.863c-.884.079-1.957.136-3.216.136s-2.332-.057-3.216-.136c-1.3-.117-1.95-.176-2.75-.972-.8-.795-.857-1.387-.97-2.57a14 14 0 0 1 0-2.643c.113-1.183.17-1.775.97-2.57.8-.796 1.45-.855 2.75-.972A36 36 0 0 1 7.999 3c1.259 0 2.331.057 3.216.136 1.3.117 1.95.175 2.75.971s.857 1.388.97 2.572a14 14 0 0 1 0 2.64c-.113 1.185-.17 1.776-.97 2.572s-1.45.855-2.75.972M6.65 9.147q-.138.132-.414.132-.3 0-.437-.12-.138-.126-.174-.39H4.569q.036.684.462.996t1.205.312q.756 0 1.17-.354.414-.36.414-1.104 0-.654-.342-.996T6.47 7.281q-.306 0-.516.084a.9.9 0 0 0-.323.198l.072-.84h1.83V5.86H4.928l-.186 2.153.882.192a.7.7 0 0 1 .245-.186.8.8 0 0 1 .36-.072q.276 0 .42.138.144.132.144.438v.186q0 .306-.144.438m2.659.804q.138-.126.138-.396t-.138-.39q-.138-.126-.402-.126t-.408.126q-.138.12-.138.39t.138.396q.144.126.408.126t.402-.126m.086-3.42.852-.671h1.002V10h-1.002V6.812l-.852.696z"/></svg>