<svg xmlns="http://www.w3.org/2000/svg" viewBox="0 0 16 16"><path fill-rule="evenodd" d="M4.917 4.63C5.757 4.555 6.785 4.5 8 4.5s2.241.054 3.081.13c.7.063 1.017.098 1.264.173.164.05.318.123.564.368.263.26.331.41.373.54.067.206.1.469.16 1.11a12.5 12.5 0 0 1 0 2.357c-.06.64-.093.904-.16 1.11-.042.13-.11.279-.373.54-.246.244-.4.318-.564.368-.247.075-.564.11-1.263.173-.84.075-1.868.13-3.082.13s-2.242-.055-3.082-.13c-.699-.063-1.015-.098-1.262-.173-.165-.05-.319-.124-.565-.368-.262-.261-.33-.41-.373-.54-.067-.206-.1-.469-.16-1.11a12.4 12.4 0 0 1 0-2.358c.06-.64.093-.904.16-1.11.042-.13.11-.278.373-.54.246-.244.4-.317.565-.367.247-.075.563-.11 1.262-.173M8 13c1.259 0 2.332-.057 3.216-.136 1.3-.117 1.95-.176 2.75-.972s.857-1.387.97-2.571a14 14 0 0 0 0-2.64c-.113-1.185-.17-1.777-.97-2.573s-1.45-.854-2.75-.97A36 36 0 0 0 7.999 3a36 36 0 0 0-3.216.136c-1.3.117-1.95.176-2.75.971-.8.796-.857 1.388-.97 2.57a14 14 0 0 0 0 2.644c.113 1.183.17 1.775.97 2.57.8.796 1.45.855 2.75.972.884.079 1.957.136 3.216.136M6.65 9.147q-.138.132-.414.132-.3 0-.437-.12-.138-.126-.174-.39H4.569q.036.684.462.996t1.205.312q.756 0 1.17-.354.414-.36.414-1.104 0-.654-.342-.996T6.47 7.281q-.306 0-.515.084a.9.9 0 0 0-.324.198l.072-.84h1.83V5.86H4.928l-.186 2.153.882.192a.7.7 0 0 1 .246-.186.8.8 0 0 1 .36-.072q.274 0 .42.138.143.132.143.438v.186q0 .306-.144.438m2.659.804q.138-.126.138-.396t-.138-.39q-.138-.126-.402-.126t-.408.126q-.138.12-.138.39t.138.396q.144.126.408.126t.402-.126m.938-4.091-.851.671v.978l.851-.696V10h1.002V5.86z"/></svg>