<svg xmlns="http://www.w3.org/2000/svg" viewBox="0 0 16 16"><path fill-rule="evenodd" d="M8 3.5c-.425 0-.855.019-1.277.05-1.843.138-2.12.215-2.539.634s-.496.696-.634 2.539c-.03.422-.05.852-.05 1.277s.019.855.05 1.277c.138 1.844.215 2.12.634 2.539s.696.496 2.539.634c.422.031.852.05 1.277.05s.855-.019 1.277-.05c1.844-.138 2.12-.215 2.539-.634s.496-.696.634-2.539c.031-.422.05-.852.05-1.277s-.019-.855-.05-1.277c-.138-1.843-.215-2.12-.634-2.539s-.696-.496-2.539-.634A17 17 0 0 0 8 3.5m-4.877-.377c-.874.875-.939 1.746-1.069 3.488C2.021 7.065 2 7.532 2 8s.02.935.054 1.389c.13 1.742.195 2.613 1.07 3.488.874.874 1.745.939 3.487 1.069.454.034.921.054 1.389.054s.935-.02 1.389-.054c1.742-.13 2.613-.195 3.488-1.07.874-.874.939-1.745 1.069-3.487C13.98 8.935 14 8.468 14 8s-.02-.935-.054-1.389c-.13-1.742-.195-2.613-1.07-3.488-.874-.874-1.745-.939-3.487-1.069A19 19 0 0 0 8 2c-.468 0-.935.02-1.389.054-1.742.13-2.613.195-3.488 1.07m1.62 7.203a.793.793 0 0 0 .93.929l.58-.112c.782-.15 1.549-.373 2.289-.666a3.4 3.4 0 0 0 1.909-1.908c.293-.74.516-1.507.666-2.29l.111-.58a.793.793 0 0 0-.928-.928l-.582.111c-.781.15-1.547.373-2.287.666a3.4 3.4 0 0 0-1.91 1.91q-.44 1.112-.666 2.287zm3.254-3.39 1.065 1.065q.298-.757.485-1.549-.792.186-1.55.485m.016 2.137L6.925 7.986l-.01.023a11 11 0 0 0-.49 1.564 11 11 0 0 0 1.588-.5"/></svg>