<svg xmlns="http://www.w3.org/2000/svg" viewBox="0 0 24 24"><path fill-rule="evenodd" d="M12 5c-.642 0-1.292.028-1.929.076-2.75.204-3.265.318-3.97 1.024-.707.706-.82 1.22-1.025 3.971A26 26 0 0 0 5 12c0 .642.028 1.292.076 1.929.204 2.75.318 3.265 1.024 3.97.706.707 1.22.82 3.971 1.025.637.048 1.287.076 1.929.076s1.292-.028 1.929-.076c2.75-.204 3.265-.318 3.97-1.024.707-.706.82-1.22 1.025-3.971.048-.637.076-1.287.076-1.929s-.028-1.292-.076-1.929c-.204-2.75-.318-3.265-1.024-3.97-.706-.707-1.22-.82-3.971-1.025A26 26 0 0 0 12 5m-7.314-.314c-1.313 1.313-1.41 2.62-1.605 5.237C3.031 10.6 3 11.3 3 12s.03 1.399.081 2.077c.195 2.616.292 3.924 1.605 5.237s2.62 1.41 5.237 1.605C10.6 20.969 11.3 21 12 21s1.399-.03 2.077-.081c2.616-.195 3.924-.292 5.237-1.605s1.41-2.62 1.605-5.237C20.969 13.4 21 12.7 21 12s-.03-1.399-.081-2.077c-.195-2.616-.292-3.924-1.605-5.237s-2.62-1.41-5.237-1.605A28 28 0 0 0 12 3c-.7 0-1.399.03-2.077.081-2.616.195-3.924.292-5.237 1.605m10.113 4.522a17.4 17.4 0 0 0-2.858.856 3 3 0 0 0-.317.146l2.173 2.173q.081-.153.146-.315c.367-.927.653-1.884.856-2.86m-2.447 4.559-2.111-2.112a3 3 0 0 0-.084.193 17.4 17.4 0 0 0-.856 2.858 17.4 17.4 0 0 0 2.86-.856q.098-.039.191-.083m3.22-6.746-.885.17c-1.19.228-2.355.568-3.482 1.013a5.17 5.17 0 0 0-2.908 2.908 19.4 19.4 0 0 0-1.013 3.482l-.17.886a1.207 1.207 0 0 0 1.413 1.413l.885-.17a19.4 19.4 0 0 0 3.485-1.013 5.17 5.17 0 0 0 2.906-2.906 19.4 19.4 0 0 0 1.014-3.485l.17-.885a1.207 1.207 0 0 0-1.414-1.413"/></svg>