<svg xmlns="http://www.w3.org/2000/svg" viewBox="0 0 44 44"><path fill-rule="evenodd" d="M22 9c-1.051 0-2.112.042-3.155.114-4.975.34-6.17.535-7.683 2.048s-1.708 2.708-2.049 7.683A46 46 0 0 0 9 22c0 1.052.042 2.112.113 3.156.341 4.974.536 6.17 2.049 7.683s2.708 1.707 7.682 2.048C19.889 34.958 20.95 35 22 35s2.112-.042 3.156-.113c4.974-.341 6.17-.535 7.683-2.048s1.707-2.709 2.048-7.683A46 46 0 0 0 35 22c0-1.051-.042-2.112-.113-3.155-.341-4.974-.536-6.17-2.048-7.683s-2.71-1.707-7.683-2.048A46 46 0 0 0 22 9m-12.96.04c-2.428 2.429-2.592 4.82-2.92 9.6A49 49 0 0 0 6 22c0 1.13.045 2.26.12 3.36.328 4.781.492 7.172 2.92 9.6s4.819 2.592 9.6 2.92c1.1.075 2.23.12 3.36.12s2.26-.045 3.36-.12c4.781-.328 7.172-.492 9.6-2.92s2.592-4.819 2.92-9.6c.075-1.1.12-2.23.12-3.36s-.045-2.26-.12-3.36c-.328-4.78-.492-7.171-2.92-9.6s-4.819-2.592-9.6-2.92A49 49 0 0 0 22 6c-1.13 0-2.26.045-3.36.12-4.781.328-7.171.492-9.6 2.92m9.648 11.77a5 5 0 0 0-.197.417 29.7 29.7 0 0 0-1.787 6.029 31 31 0 0 0 5.815-1.694q.323-.13.623-.298zm6.55 2.306-4.402-4.401q.18-.09.37-.167l.141-.056a31 31 0 0 1 5.655-1.662l.157-.03-.078.377a33 33 0 0 1-1.517 5.194l-.065.168q-.115.298-.262.577m1.194-9.232 1.46-.282a2.114 2.114 0 0 1 2.472 2.5l-.344 1.678a36 36 0 0 1-1.656 5.666l-.064.168a8.3 8.3 0 0 1-4.667 4.733 34.3 34.3 0 0 1-6.429 1.867l-1.51.283a1.9 1.9 0 0 1-2.22-2.196l.23-1.32a32.7 32.7 0 0 1 2.017-6.906 7.92 7.92 0 0 1 4.37-4.312l.142-.056a34 34 0 0 1 6.199-1.823"/></svg>