<svg xmlns="http://www.w3.org/2000/svg" viewBox="0 0 44 44"><path fill-rule="evenodd" d="M18 16c0 2.224.087 4.085.204 5.579.093 1.178.142 1.633.243 1.972.051.17.122.356.49.724.432.433.607.491.66.509l.005.001c.18.06.426.098 1.39.175a13 13 0 0 0 2.015 0c.965-.077 1.212-.114 1.39-.175l.005-.001c.053-.018.228-.076.66-.509.37-.368.44-.553.49-.724.101-.339.151-.794.243-1.972.117-1.494.205-3.355.205-5.579a72 72 0 0 0-.205-5.578c-.092-1.179-.142-1.634-.242-1.973-.051-.17-.122-.356-.49-.725-.433-.432-.608-.49-.661-.508l-.005-.002c-.18-.06-.426-.098-1.391-.174a13 13 0 0 0-2.012 0c-.965.076-1.212.114-1.391.174l-.005.002c-.053.018-.229.076-.66.508-.37.369-.44.554-.49.725-.102.339-.151.794-.244 1.973A72 72 0 0 0 18 16m9.185-10.396c1.348 1.35 1.433 2.427 1.601 4.584.123 1.571.214 3.51.214 5.812s-.09 4.242-.214 5.813c-.169 2.156-.253 3.234-1.6 4.583-1.349 1.349-2.213 1.417-3.942 1.554a16 16 0 0 1-2.488 0c-1.729-.137-2.593-.205-3.941-1.554-1.348-1.35-1.433-2.427-1.601-4.583A75 75 0 0 1 15 16c0-2.302.09-4.24.213-5.812.17-2.156.254-3.235 1.602-4.584 1.348-1.35 2.213-1.418 3.943-1.555a16 16 0 0 1 2.484 0c1.73.137 2.595.206 3.943 1.555M9.596 20a1.48 1.48 0 0 0-1.486 1.548q.068 1.369.17 2.579c.305 3.722.457 5.583 2.853 7.965 2.396 2.383 4.147 2.517 7.648 2.784q.835.065 1.719.097V38.5a1.5 1.5 0 0 0 3 0v-3.527q.884-.032 1.719-.097c3.501-.267 5.252-.401 7.648-2.784s2.548-4.243 2.854-7.965q.1-1.21.169-2.579A1.48 1.48 0 0 0 34.403 20a1.52 1.52 0 0 0-1.512 1.45 77 77 0 0 1-.16 2.431c-.161 1.962-.261 3-.522 3.853-.211.69-.557 1.335-1.458 2.231-.923.918-1.555 1.252-2.183 1.447-.785.244-1.726.331-3.578.473a39 39 0 0 1-3.015.115 39 39 0 0 1-2.965-.115c-1.852-.142-2.793-.23-3.578-.473-.628-.195-1.26-.529-2.183-1.447-.901-.896-1.247-1.541-1.458-2.23-.261-.855-.36-1.892-.522-3.854q-.094-1.14-.16-2.43A1.52 1.52 0 0 0 9.596 20"/></svg>