<svg xmlns="http://www.w3.org/2000/svg" viewBox="0 0 16 16"><path d="M3.232 7a.72.72 0 0 0-.732.732 14 14 0 0 0 .015.393l.002.03c.087 1.687.131 2.536 1.028 3.435.901.905 1.771.953 3.51 1.05l.195.01v1.6a.75.75 0 0 0 1.5 0v-1.6l.194-.01c1.74-.097 2.61-.145 3.51-1.05.897-.9.941-1.748 1.029-3.436l.002-.03.015-.387A.724.724 0 0 0 12.767 7a.78.78 0 0 0-.768.763l-.013.284c-.092 1.79-.155 2.044-.594 2.484-.436.439-.7.51-2.53.61a16 16 0 0 1-1.724 0c-1.83-.1-2.094-.171-2.53-.61-.44-.44-.502-.695-.595-2.484l-.011-.279A.78.78 0 0 0 3.232 7"/><path d="M7.663 9.99C6.248 9.903 5.66 8.974 5.561 7.636A30 30 0 0 1 5.488 5.5c0-.842.03-1.554.073-2.135.098-1.339.687-2.268 2.103-2.355a5 5 0 0 1 .652 0c1.416.087 2.006 1.016 2.103 2.355.042.58.073 1.293.073 2.135s-.03 1.555-.073 2.136c-.097 1.338-.687 2.267-2.102 2.354a5 5 0 0 1-.654 0"/></svg>