<svg xmlns="http://www.w3.org/2000/svg" viewBox="0 0 24 24"><path d="M4.978 11A.967.967 0 0 0 4 12l.008.18c.13 2.582.194 3.872 1.556 5.234 1.36 1.36 2.672 1.426 5.248 1.555h.006l.182.009V21a1 1 0 0 0 2 0v-2.022l.18-.009h.006c2.576-.129 3.888-.194 5.248-1.555 1.362-1.362 1.427-2.653 1.556-5.233l.008-.181a.967.967 0 0 0-.978-1c-.552 0-.998.448-1.024 1l-.004.081c-.134 2.692-.231 3.178-.972 3.919-.74.74-1.248.837-3.94.972a22 22 0 0 1-2.162 0c-2.692-.135-3.2-.232-3.94-.972s-.838-1.227-.972-3.919L6.002 12c-.026-.552-.472-1-1.024-1"/><path d="M15.833 5.007c.092.846.167 1.995.167 3.493 0 1.453-.07 2.585-.158 3.432-.141 1.358-.86 2.487-2.229 2.851A6.3 6.3 0 0 1 12 15c-.59 0-1.136-.09-1.614-.217-1.368-.364-2.087-1.493-2.228-2.851A33 33 0 0 1 8 8.5c0-1.498.075-2.647.166-3.493.138-1.272.828-2.36 2.095-2.742A6 6 0 0 1 12 2c.642 0 1.233.112 1.74.265 1.266.381 1.955 1.47 2.093 2.742"/></svg>