<svg xmlns="http://www.w3.org/2000/svg" viewBox="0 0 24 24"><path fill-rule="evenodd" d="M13.613 14.783A6.3 6.3 0 0 1 12 15a6.3 6.3 0 0 1-1.613-.217c-1.369-.364-2.088-1.493-2.229-2.851A33 33 0 0 1 8 8.5c0-1.498.075-2.647.166-3.493.138-1.272.828-2.36 2.095-2.742A6 6 0 0 1 12 2c.642 0 1.233.112 1.74.265 1.266.381 1.955 1.47 2.093 2.742.092.846.167 1.995.167 3.493 0 1.453-.07 2.585-.158 3.432-.141 1.358-.86 2.487-2.229 2.851M12 13c-.388 0-.76-.06-1.1-.15a.8.8 0 0 1-.48-.31c-.116-.155-.231-.418-.272-.815A32 32 0 0 1 10 8.5c0-1.432.071-2.508.155-3.277.038-.349.143-.594.253-.745a.77.77 0 0 1 .43-.298C11.195 4.072 11.589 4 12 4s.805.072 1.162.18c.203.06.33.162.43.298.11.151.215.396.253.745.083.769.155 1.845.155 3.277 0 1.388-.067 2.451-.148 3.225-.04.397-.157.66-.271.815a.8.8 0 0 1-.481.31c-.34.09-.713.15-1.1.15"/><path d="M4 12a.967.967 0 0 1 .978-1c.552 0 .998.448 1.024 1l.004.081c.134 2.692.231 3.178.972 3.919.74.74 1.248.837 3.94.972a22 22 0 0 0 2.162 0c2.692-.135 3.2-.232 3.94-.972s.838-1.227.972-3.919l.004-.081c.026-.552.472-1 1.024-1a.967.967 0 0 1 .978 1l-.008.18c-.13 2.582-.194 3.872-1.556 5.234-1.36 1.36-2.672 1.426-5.248 1.555h-.006l-.18.009V21a1 1 0 1 1-2 0v-2.022l-.182-.009h-.006c-2.576-.129-3.888-.194-5.248-1.555-1.362-1.362-1.427-2.653-1.556-5.233z"/></svg>