<svg xmlns="http://www.w3.org/2000/svg" viewBox="0 0 16 16"><path fill-rule="evenodd" d="M7.663 9.99C6.248 9.903 5.66 8.974 5.561 7.636A30 30 0 0 1 5.488 5.5c0-.842.03-1.554.073-2.135.098-1.339.687-2.268 2.103-2.355a5 5 0 0 1 .652 0c1.416.087 2.006 1.016 2.103 2.355.042.58.073 1.293.073 2.135s-.03 1.555-.073 2.136c-.097 1.338-.687 2.267-2.102 2.354a5 5 0 0 1-.654 0M8 8.5c-.08 0-.168-.003-.245-.007-.363-.023-.448-.126-.476-.161V8.33c-.067-.081-.185-.303-.222-.804-.04-.545-.069-1.222-.069-2.027s.03-1.481.07-2.026c.036-.502.154-.724.22-.805h.001c.028-.036.113-.14.477-.162a4 4 0 0 1 .469 0c.363.023.448.126.476.161l.001.001c.066.081.184.303.221.804a28 28 0 0 1 .07 2.027c0 .805-.03 1.482-.07 2.027-.037.501-.155.723-.22.804H8.7c-.028.036-.113.14-.476.162A4 4 0 0 1 8 8.5"/><path d="M2.5 7.732A.72.72 0 0 1 3.232 7c.42 0 .757.347.77.768l.011.279c.093 1.79.155 2.044.594 2.484.437.439.702.51 2.531.61a16 16 0 0 0 1.723 0c1.83-.1 2.095-.171 2.531-.61.44-.44.502-.695.595-2.484l.011-.284a.78.78 0 0 1 .77-.763c.409 0 .745.328.733.737a17 17 0 0 1-.015.388l-.002.03c-.088 1.687-.132 2.536-1.028 3.435-.902.905-1.771.953-3.51 1.05l-.195.01v1.6a.75.75 0 0 1-1.5 0v-1.6l-.194-.01c-1.74-.097-2.61-.145-3.511-1.05-.897-.9-.94-1.748-1.028-3.436l-.002-.03a17 17 0 0 1-.015-.392"/></svg>