<svg xmlns="http://www.w3.org/2000/svg" viewBox="0 0 16 16"><path d="M12.096 6.918q.056-.12.102-.23c.32-.763.21-1.926-.389-2.524-.618-.619-1.813-.706-2.59-.366-.507.223-1.16.598-1.941 1.23a.785.785 0 0 1-1.048-.04.725.725 0 0 1 .04-1.076c.9-.738 1.688-1.201 2.346-1.49 1.34-.588 3.202-.375 4.256.679 1.027 1.027 1.266 2.845.712 4.167a7 7 0 0 1-.113.256.752.752 0 1 1-1.375-.606m-4.86 5.096a.76.76 0 0 0-.336.07q-.266.118-.48.188c-.71.235-1.745.047-2.255-.463-.559-.559-.707-1.676-.417-2.425.202-.523.58-1.234 1.284-2.108a.786.786 0 0 0-.041-1.048.725.725 0 0 0-1.076.04c-.823 1.008-1.298 1.874-1.569 2.574-.501 1.297-.23 3.043.757 4.03.92.92 2.547 1.238 3.79.827q.255-.084.542-.209c.32-.14.552-.379.552-.725a.75.75 0 0 0-.75-.751"/><path d="M9.768 7.267a.752.752 0 0 0-1.063-1.062l-2.5 2.501a.752.752 0 0 0 1.062 1.063zM11.995 15a.75.75 0 0 1-.752-.751v-1.503H9.74a.751.751 0 0 1 0-1.503h1.504V9.739a.751.751 0 1 1 1.503 0v1.504h1.503a.751.751 0 0 1 0 1.503h-1.503v1.503a.75.75 0 0 1-.751.751"/></svg>