<svg xmlns="http://www.w3.org/2000/svg" viewBox="0 0 24 24"><path d="m9.614 9.537-.002.003 1.01 1.02a1.01 1.01 0 0 1-1.426 1.43l-1.708-1.71a1 1 0 0 1-.016-1.403l.65-.677c.237-.26.4-.443.534-.604.133-.16.2-.256.238-.318.055-.091.064-.248.008-.34a2.3 2.3 0 0 0-.212-.278 19 19 0 0 0-.714-.778c-.3-.299-.737-.681-1.181-.828a.96.96 0 0 0-.525-.002c-.482.118-1.008.34-1.364.717-.253.263-.485.54-.632.878-.443 1.01-.345 2.35.292 3.632.584 1.174 1.647 2.828 3.572 4.754.661.662 1.852 1.597 2.46 2.074l.028.022c.39.305.527.84.31 1.283-.27.554-.97.74-1.458.361-.686-.532-1.99-1.558-2.755-2.324-2.073-2.074-3.265-3.904-3.949-5.278-.823-1.657-1.076-3.633-.333-5.328.234-.535.556-.984 1.011-1.45.59-.624 1.325-.978 1.96-1.179.666-.21 1.372-.33 2.038-.048a6.2 6.2 0 0 1 2.21 1.58c.846.917 1.27 1.376 1.276 2.346.006.91-.383 1.398-1.161 2.266zm6.39 5.366c.011-.341.017-.512.203-.698s.357-.192.698-.203q.097-.005.194 0c.34.011.511.017.698.203s.192.357.203.698q.005.097 0 .194c-.011.341-.017.512-.203.698-.187.186-.357.192-.698.203q-.098.003-.194 0c-.341-.011-.512-.017-.698-.203s-.192-.357-.203-.698a3 3 0 0 1 0-.194"/><path fill-rule="evenodd" d="M13.138 18.542a6 6 0 0 1-1.12-3.085 13 13 0 0 1-.016-.88q-.001-.473.034-.945c.084-1.122.127-1.683.836-2.451.709-.769 1.284-.859 2.435-1.04A11 11 0 0 1 17.002 10c.578 0 1.156.057 1.695.142 1.151.18 1.727.27 2.436 1.039s.751 1.33.836 2.451q.034.472.033.944c0 .444 0 .666-.015.88a6 6 0 0 1-1.121 3.086c-.398.55-.865 1.057-1.3 1.577-1.002 1.197-1.503 1.686-2.13 1.831a1.9 1.9 0 0 1-.868 0c-.627-.145-1.128-.635-2.13-1.831-.435-.52-.902-1.027-1.3-1.577m6.864-3.966a11 11 0 0 0-.028-.793c-.022-.293-.037-.49-.057-.658-.032-.257-.079-.398-.254-.588-.18-.196-.335-.252-.596-.305-.175-.035-.38-.068-.68-.114A9 9 0 0 0 17.002 12c-.45 0-.922.045-1.385.117-.3.047-.505.08-.68.115-.261.053-.415.11-.596.305-.175.19-.222.33-.253.588a15 15 0 0 0-.077.984q-.01.234-.009.467c0 .472.001.61.01.737.054.742.313 1.455.748 2.058.37.512.807.98 1.212 1.464.507.605.8.844 1.03 1.07.23-.226.523-.465 1.03-1.07.404-.483.843-.952 1.212-1.464a4 4 0 0 0 .748-2.058c.009-.127.01-.265.01-.737"/></svg>