<svg xmlns="http://www.w3.org/2000/svg" viewBox="0 0 24 24"><path d="M6.07 3.053a2.3 2.3 0 0 1 1.316.101 5.2 5.2 0 0 1 1.729 1.142c.866.872 1.3 1.309 1.322 2.353.022 1.043-.446 1.556-1.38 2.58-.272.298-.563.592-.858.866l.305.363 2.641 2.66c-.062.38-.086.749-.106 1.056l-.006.087q-.031.456-.033.954v.261c0 .428 0 .76.03 1.092.1 1.15.46 2.26 1.051 3.249.171.285.366.553.616.898l.018.025a8 8 0 0 1-1.012-.43c-1.359-.693-2.976-1.71-4.998-3.746S3.5 12.726 2.813 11.357c-.861-1.714-1.14-3.778-.335-5.52.23-.497.539-.924.967-1.365.837-.887 1.933-1.263 2.626-1.42"/><path fill-rule="evenodd" d="M13.028 14.396c.071-1.064.107-1.596.766-2.315.66-.72 1.15-.793 2.129-.939A7 7 0 0 1 17 11.057c.364 0 .728.033 1.077.085.98.146 1.47.22 2.13.939.659.72.694 1.251.765 2.315.027.4.03.819.026 1.233-.002.258.002.515-.02.763a5.6 5.6 0 0 1-.771 2.384c-.125.208-.27.408-.561.81l-.353.486c-.784 1.082-1.176 1.622-1.661 1.81a1.75 1.75 0 0 1-1.264 0c-.486-.188-.878-.728-1.662-1.81l-.352-.486c-.291-.402-.437-.602-.562-.81a5.6 5.6 0 0 1-.771-2.384c-.022-.248-.02-.505-.021-.763-.004-.414 0-.834.027-1.233m2.974.592c.012-.343.018-.515.204-.703s.357-.193.698-.205a3 3 0 0 1 .193 0c.342.012.512.018.698.205.187.188.192.36.204.704a3 3 0 0 1 0 .194c-.012.344-.017.516-.204.703-.186.188-.356.194-.698.205a3 3 0 0 1-.193 0c-.341-.011-.512-.017-.698-.205-.186-.187-.192-.359-.204-.703a3 3 0 0 1 0-.194"/></svg>