<svg xmlns="http://www.w3.org/2000/svg" viewBox="0 0 16 16"><path d="M4.59 1.602a1.53 1.53 0 0 0-.876-.067c-.462.103-1.193.352-1.75.94a3.2 3.2 0 0 0-.646.903c-.536 1.153-.35 2.52.224 3.654.459.906 1.246 2.099 2.594 3.447 1.123 1.123 2.06 1.777 2.864 2.23-.258-.596-.403-1.278-.472-1.997A10 10 0 0 1 6.5 9.76v-.31a10 10 0 0 1 .028-.885l.005-.067c.017-.232.036-.503.081-.783L5.336 6.436l-.204-.24c.197-.181.391-.375.572-.573.623-.678.935-1.017.92-1.708-.014-.69-.303-.98-.881-1.557a3.5 3.5 0 0 0-1.153-.756"/><path fill-rule="evenodd" d="M8.024 8.674c.061-.837.092-1.256.615-1.823s.936-.632 1.761-.76c.353-.055.726-.091 1.1-.091s.747.036 1.1.09c.825.13 1.238.194 1.761.761s.554.986.615 1.823c.024.341.024.683.024 1.025 0 .438 0 .656-.02.869a4.4 4.4 0 0 1-.725 2.03c-.118.177-.257.347-.534.686l-.39.477c-.674.824-1.01 1.056-1.426 1.18a1.4 1.4 0 0 1-.81 0c-.415-.124-.752-.356-1.426-1.18l-.39-.477c-.277-.34-.416-.509-.534-.686a4.4 4.4 0 0 1-.724-2.03 9 9 0 0 1-.02-.87c0-.341-.001-.683.023-1.024m2.589.555c.022-.236.033-.354.147-.468s.232-.126.469-.148a3 3 0 0 1 .541 0c.237.022.355.034.469.148s.125.232.147.468a3 3 0 0 1 0 .542c-.022.236-.033.354-.147.468s-.232.125-.469.148a3 3 0 0 1-.541 0c-.236-.023-.355-.034-.469-.148s-.125-.232-.147-.468a3 3 0 0 1 0-.542"/></svg>