<svg xmlns="http://www.w3.org/2000/svg" viewBox="0 0 16 16"><path d="M7.4 5.06a3 3 0 0 0-1.646.95l.894.516c.213-.195.469-.346.752-.434zm1.2 0a3 3 0 0 1 1.646.95l-.894.517a2 2 0 0 0-.752-.435zm2.246 3.89a3 3 0 0 0 0-1.9l-.893.516a2 2 0 0 1 0 .869zM8.6 10.94a3 3 0 0 0 1.646-.95l-.894-.516a2 2 0 0 1-.752.434zM5 8c0-.332.054-.652.154-.95l.893.515a2 2 0 0 0 0 .87l-.893.516A3 3 0 0 1 5 8m.754 1.99c.424.477.997.818 1.646.95V9.908a2 2 0 0 1-.752-.434zM8 8.9a.9.9 0 1 0 0-1.8.9.9 0 0 0 0 1.8"/><path fill-rule="evenodd" d="M14 8A6 6 0 1 1 2 8a6 6 0 0 1 12 0m-2 0a4 4 0 1 1-8 0 4 4 0 0 1 8 0"/></svg>