<svg xmlns="http://www.w3.org/2000/svg" viewBox="0 0 16 16"><path fill-rule="evenodd" d="M8 14A6 6 0 1 0 8 2a6 6 0 0 0 0 12m-.6-4.092v1.032a3 3 0 0 1-1.646-.95l.894-.516a2 2 0 0 0 .752.434M6.047 8.435l-.894.516a3 3 0 0 1 0-1.902l.894.516a2 2 0 0 0 0 .87m.6-1.909-.893-.516A3 3 0 0 1 7.4 5.06v1.032a2 2 0 0 0-.752.434m3.599 3.463a3 3 0 0 1-1.646.951V9.908c.283-.088.54-.239.752-.434zM11 8c0 .332-.054.652-.154.95l-.893-.515a2 2 0 0 0 0-.87l.893-.515c.1.298.154.618.154.95M8.6 5.06a3 3 0 0 1 1.646.95l-.894.516a2 2 0 0 0-.752-.434zM8 8.9a.9.9 0 1 0 0-1.8.9.9 0 0 0 0 1.8"/></svg>