<svg xmlns="http://www.w3.org/2000/svg" viewBox="0 0 44 44"><path d="M28.935 27.737a9 9 0 0 1-5.435 3.139V27.81a6 6 0 0 0 2.78-1.607zM31 22a9 9 0 0 1-.563 3.14l-2.655-1.533a6 6 0 0 0 0-3.214l2.655-1.533A9 9 0 0 1 31 22m-7.5-8.876a9 9 0 0 1 5.435 3.14l-2.654 1.532a6 6 0 0 0-2.781-1.607zm-8.436 3.14a9 9 0 0 1 5.436-3.14v3.065a6 6 0 0 0-2.782 1.608zM13 22c0-1.104.199-2.161.563-3.139l2.654 1.533a6 6 0 0 0 0 3.212l-2.654 1.533A9 9 0 0 1 13 22m7.5 8.876a9 9 0 0 1-5.436-3.14l2.655-1.532a6 6 0 0 0 2.78 1.607zM22 24a2 2 0 1 0 0-4 2 2 0 0 0 0 4"/><path fill-rule="evenodd" d="M38 22c0 8.837-7.163 16-16 16S6 30.837 6 22 13.163 6 22 6s16 7.163 16 16m-4 0c0 6.627-5.373 12-12 12s-12-5.373-12-12 5.373-12 12-12 12 5.373 12 12"/></svg>