<svg xmlns="http://www.w3.org/2000/svg" viewBox="0 0 32 32"><path fill-rule="evenodd" d="M16 28c6.627 0 12-5.373 12-12S22.627 4 16 4 4 9.373 4 16s5.373 12 12 12m-1.25-7.676v2.565a7 7 0 0 1-4.09-2.363l2.221-1.282c.52.5 1.158.875 1.869 1.08m-3.12-3.245-2.22 1.284A7 7 0 0 1 9 16c0-.829.144-1.624.409-2.362l2.221 1.283a4.5 4.5 0 0 0 0 2.159m1.251-4.323-2.22-1.282A7 7 0 0 1 14.75 9.11v2.565c-.711.205-1.35.58-1.869 1.08m8.459 7.77a7 7 0 0 1-4.09 2.363v-2.565a4.5 4.5 0 0 0 1.869-1.08zM23 16c0 .829-.144 1.624-.409 2.362L20.37 17.08a4.5 4.5 0 0 0 0-2.16l2.221-1.282c.265.738.409 1.533.409 2.362m-5.75-6.889a7 7 0 0 1 4.09 2.363l-2.221 1.282a4.5 4.5 0 0 0-1.87-1.08zM16 17.75a1.75 1.75 0 1 0 0-3.5 1.75 1.75 0 0 0 0 3.5"/></svg>