<svg xmlns="http://www.w3.org/2000/svg" viewBox="0 0 17 17"><path fill-rule="evenodd" d="M10.187 6.139q.147-.124.323-.28a10 10 0 0 0 .914-.913c.512-.584.768-.876.764-1.424s-.24-.81-.714-1.336a6 6 0 0 0-.41-.41c-.526-.473-.789-.71-1.337-.714-.548-.003-.84.253-1.424.765a10 10 0 0 0-.914.913q-.156.176-.28.323c-.437-.348-.79-.52-1.433-.515-.843.008-1.139.275-1.732.809a8 8 0 0 0-.588.588c-.534.593-.801.89-.809 1.732-.006.643.167.996.516 1.434a19 19 0 0 0-.323.279 10 10 0 0 0-.913.914c-.512.584-.768.876-.765 1.424s.24.811.714 1.337a5 5 0 0 0 .41.41c.526.474.789.71 1.336.714.548.004.84-.252 1.424-.764a10 10 0 0 0 .914-.914l.279-.323c.44.35.793.524 1.439.519.843-.008 1.14-.275 1.732-.81a8 8 0 0 0 .588-.587c.534-.593.801-.89.809-1.732.006-.646-.169-.999-.52-1.44M9.46 4.66a8 8 0 0 0 .765-.765c.133-.152.224-.256.297-.346l.015-.018a13 13 0 0 0-.389-.43 13 13 0 0 0-.43-.39l-.018.016a13 13 0 0 0-.743.666c-.125.125-.25.26-.37.396a14 14 0 0 0-.284.331 25 25 0 0 1 .825.826c.087-.072.188-.16.332-.286M4.946 9.13a25 25 0 0 1-.825-.825c-.087.07-.187.159-.331.285a8 8 0 0 0-.765.765c-.134.152-.224.256-.297.347l-.015.018a13 13 0 0 0 .389.43q.07.07.15.141c.123.112.208.188.28.248l.018-.015a13 13 0 0 0 .742-.667q.189-.189.37-.396c.125-.143.213-.244.284-.33m-.65-3.027c.084.106.188.226.344.406.28.322.616.687 1.018 1.088a21 21 0 0 0 1.494 1.361c.101.08.155.113.182.127a.2.2 0 0 0 .041.016 1 1 0 0 0 .188.013 1 1 0 0 0 .213-.017c.013-.002.015-.004.015-.004a1 1 0 0 0 .116-.084 9 9 0 0 0 .807-.764c.14-.157.226-.253.294-.336a1 1 0 0 0 .084-.117l.004-.015c.005-.022.016-.083.017-.212a1 1 0 0 0-.013-.188.1.1 0 0 0-.016-.041 1.3 1.3 0 0 0-.127-.182 21 21 0 0 0-1.361-1.494 21 21 0 0 0-1.495-1.362 1.3 1.3 0 0 0-.181-.126.1.1 0 0 0-.042-.016 1 1 0 0 0-.187-.013 1 1 0 0 0-.213.017c-.013.002-.015.004-.015.004a1 1 0 0 0-.116.084 9 9 0 0 0-.807.765 9 9 0 0 0-.294.336 1 1 0 0 0-.084.116s-.002.002-.004.015a1 1 0 0 0-.017.212 1 1 0 0 0 .013.188.1.1 0 0 0 .016.041c.014.028.047.081.127.182"/><path d="M15.138 8.5c.44 0 .797.356.797.796a6.64 6.64 0 0 1-6.64 6.64.797.797 0 0 1 0-1.594 5.046 5.046 0 0 0 5.046-5.046c0-.44.357-.797.797-.797"/><path d="M13.013 9.296a.797.797 0 0 0-1.593 0 2.124 2.124 0 0 1-2.125 2.125.797.797 0 0 0 0 1.593 3.72 3.72 0 0 0 3.718-3.718"/></svg>