<svg xmlns="http://www.w3.org/2000/svg" viewBox="0 0 24 24"><path d="M10.716 3.732a14 14 0 0 1 .737-.706c.769-.689 1.153-1.033 1.913-1.022l.05.002c.76.03 1.054.324 1.642.912s.882.882.912 1.641l.002.05c.011.76-.333 1.144-1.022 1.912a15 15 0 0 1-.707.737 29 29 0 0 0-1.691-1.834 29 29 0 0 0-1.836-1.692M9.455 5.284a24 24 0 0 1 1.264 1.143 31 31 0 0 1 1.65 1.718q.17.195.322.374l.041.05c.543.646.815.97.819 1.69.004.722-.226 1.003-.686 1.565a7.6 7.6 0 0 1-1.064 1.064c-.562.46-.843.69-1.565.686-.721-.005-1.044-.276-1.69-.819a27 27 0 0 1-1.732-1.594 27 27 0 0 1-1.595-1.73c-.542-.647-.813-.97-.818-1.691-.004-.722.226-1.002.686-1.564a7.6 7.6 0 0 1 1.065-1.065c.562-.46.842-.69 1.564-.685.721.004 1.044.275 1.69.818zM7.093 14.41l.142-.143c-.525-.442-1.143-1-1.835-1.692a29 29 0 0 1-1.692-1.835l-.143.141q-.285.286-.544.577c-.687.767-1.03 1.15-1.02 1.909v.054c.032.758.326 1.052.914 1.64.587.588.881.882 1.64.914l.054.001c.758.01 1.141-.334 1.908-1.02.193-.174.388-.356.576-.545M17 12a1 1 0 0 1 1 1 5 5 0 0 1-5 5 1 1 0 1 1 0-2 3 3 0 0 0 3-3 1 1 0 0 1 1-1"/><path d="M22 13a1 1 0 1 0-2 0 7 7 0 0 1-7 7 1 1 0 1 0 0 2 9 9 0 0 0 9-9"/></svg>