<svg xmlns="http://www.w3.org/2000/svg" viewBox="0 0 32 32"><path d="M18.998 7.5a2 2 0 1 1-4 0 2 2 0 0 1 4 0m.778 2h6.974a1.25 1.25 0 1 1 0 2.5h-4.369l1.928 2.942a1.75 1.75 0 0 1 .165 1.6l1.575 2.047 3.036-1.899a1.25 1.25 0 1 1 1.326 2.12l-3.998 2.5a1.25 1.25 0 0 1-1.654-.298l-2.284-2.968-2.474 1.834.01 5.37a1.25 1.25 0 0 1-2.5.004l-.01-6c-.002-.396.186-.77.505-1.006l2.882-2.138-1.452-2.217-1.093 1.966a1.25 1.25 0 0 1-1.652.511l-3-1.5a1.25 1.25 0 0 1 1.118-2.236l1.93.965 1.9-3.42a1.26 1.26 0 0 1 1.137-.677"/><path d="m7.906 18.966-.829-1.244-1.588.678a1.25 1.25 0 0 1-.713.08l-2.755-.5a1.245 1.245 0 0 1-1.02-1.242 1.26 1.26 0 0 1 1.467-1.218l2.385.433 2.424-1.034 2.318-5.644a1.25 1.25 0 1 1 2.312.95l-2.143 5.22.042.06 1.352 2.028c.332.498.375 1.105.168 1.621L12.791 21H16v2.5h-3.811a1.25 1.25 0 0 1-.98-.473l-1.69-2.13-1.636 1.71-2.073 3.307a1.25 1.25 0 0 1-2.118-1.328l2.14-3.415a1.3 1.3 0 0 1 .157-.2z"/><path d="M4.998 14.5a2 2 0 1 0 0-4 2 2 0 0 0 0 4"/></svg>