<svg xmlns="http://www.w3.org/2000/svg" viewBox="0 0 44 44"><path d="M25.998 10.5a2.5 2.5 0 1 1-5 0 2.5 2.5 0 0 1 5 0m-.668 11.188 1.491-2.889 1.994 3.043-4.13 2.95a1.5 1.5 0 0 0-.63 1.21l-.057 7.987a1.5 1.5 0 0 0 3 .022l.052-7.223 3.718-2.655 3.253 4.517a1.5 1.5 0 0 0 2.05.371l5.26-3.521a1.5 1.5 0 0 0 .415-2.08 1.473 1.473 0 0 0-2.057-.416l-4.079 2.719-2.31-3.209a2.25 2.25 0 0 0-.131-2.238l-2.757-4.208h6.086a1.5 1.5 0 1 0 0-3h-9q-.045 0-.088.002a1.5 1.5 0 0 0-1.427.81l-2.622 5.083-3.05-1.621a1.5 1.5 0 1 0-1.407 2.648l4.39 2.335a1.5 1.5 0 0 0 2.037-.637"/><path d="m11.275 25.729-1.31-1.964-2.307.986a1.5 1.5 0 0 1-.945.078l-3.57-.872a1.5 1.5 0 1 1 .711-2.914l3.085.753 3.403-1.454 2.75-7.367a1.5 1.5 0 1 1 2.81 1.05L13.374 20.8q.098.111.183.238l1.829 2.744c.465.697.489 1.56.138 2.259l2.11 2.874h4.365v3h-5.124a1.5 1.5 0 0 1-1.21-.613l-2.418-3.294-2.34 2.445-2.626 4.325a1.5 1.5 0 0 1-2.564-1.556l2.711-4.466q.085-.14.199-.259z"/><path d="M7.498 19a2.5 2.5 0 1 0 0-5 2.5 2.5 0 0 0 0 5"/></svg>