<svg xmlns="http://www.w3.org/2000/svg" viewBox="0 0 24 24"><path d="M22 13h-.005c0-5.523-4.476-10-9.997-10C6.476 3 2 7.477 2 13v2.5q0 .278.013.554c.054 1.142.08 1.712.703 2.316.622.604 1.137.612 2.167.628h.235c1.03-.017 1.544-.025 2.165-.628.622-.603.648-1.173.702-2.313a12 12 0 0 0 0-1.116c-.054-1.14-.08-1.71-.702-2.313-.621-.603-1.136-.611-2.165-.628H4.062a8 8 0 0 1 15.872 0c-.353 0-.705-.005-1.057 0-1.03.017-1.544.025-2.165.628-.622.603-.648 1.173-.702 2.313a12 12 0 0 0 0 1.116c.054 1.14.08 1.71.702 2.313.621.603 1.26.613 2.288.63.24.004.404 0 .5 0 1.719.015 2.5-1 2.5-3z"/></svg>