<svg xmlns="http://www.w3.org/2000/svg" viewBox="0 0 16 16"><path d="M14.976 10.996c-.054 1.088-.214 1.308-.399 1.5-.5.518-1.1.482-1.597.5-.291.01.02 0-.114 0-.604-.003-.907-.004-1.345-.418-.439-.413-.462-.778-.51-1.507a9 9 0 0 1 0-1.149c.048-.729.071-1.093.51-1.507.438-.413.74-.414 1.345-.417h.53a5.494 5.494 0 0 0-5.4-4.499 5.494 5.494 0 0 0-5.4 4.499h.532c.604.003.907.004 1.345.417.439.414.462.779.51 1.508a9 9 0 0 1 0 1.148c-.048.73-.071 1.094-.51 1.507-.438.414-.74.415-1.345.418q-.099 0-.198-.003c-.682-.023-1.022-.034-1.45-.46-.426-.426-.44-.784-.466-1.501-.028-.777-.005-1.557-.005-2.334l.007-.007C1.176 4.969 4.24 2 7.996 2a6.99 6.99 0 0 1 6.982 6.691s.05 1.266-.002 2.305"/></svg>