<svg xmlns="http://www.w3.org/2000/svg" viewBox="0 0 24 24"><g fill-rule="evenodd" clip-rule="evenodd"><path d="M8.96 7.788a2 2 0 0 0-.667.668C8 8.936 8 9.586 8 10.889v1.613h-.25a.75.75 0 1 0 0 1.5H8v.994h-.22a.75.75 0 0 0 0 1.5H8v.756a.75.75 0 0 0 1.5 0v-.756h4.253a.75.75 0 0 0 0-1.5H9.5v-.992h3.34q.417 0 .8-.017c1.83-.075 3.349-1.266 3.349-3.098 0-1.972-1.644-3.331-3.615-3.386a19 19 0 0 0-.533-.007h-1.447c-1.303 0-1.954 0-2.433.292m2.115 4.714.054.002h1.712q.383 0 .738-.015c1.267-.052 1.91-.794 1.91-1.6 0-.984-.81-1.849-2.156-1.886q-.24-.007-.492-.007h-1.447c-.68 0-1.086.002-1.384.03a1.3 1.3 0 0 0-.275.046.5.5 0 0 0-.158.158c-.007.021-.03.096-.046.275-.028.298-.03.704-.03 1.384v1.613z"/><path d="M7 3.392c-.905.207-1.609.562-2.314 1.267-1.313 1.313-1.41 2.62-1.605 5.236-.05.679-.081 1.378-.081 2.078s.03 1.399.081 2.077c.195 2.616.292 3.924 1.605 5.237s2.62 1.41 5.237 1.605c.678.05 1.377.08 2.077.08s1.399-.03 2.077-.08c2.616-.195 3.924-.292 5.237-1.605s1.41-2.621 1.605-5.237c.05-.678.081-1.378.081-2.077s-.03-1.4-.081-2.078c-.195-2.616-.292-3.923-1.605-5.236-.705-.705-1.408-1.06-2.314-1.267v-1.42a1 1 0 1 0-2 0v1.153l-.923-.071A28 28 0 0 0 12 2.973c-.7 0-1.399.03-2.077.08q-.49.037-.923.072V1.973a1 1 0 1 0-2 0zm9 3.58a1 1 0 0 1-1-1v-.838a72 72 0 0 0-1.071-.086A26 26 0 0 0 12 4.973c-.642 0-1.292.028-1.929.075Q9.47 5.093 9 5.134v.839a1 1 0 0 1-2 0V5.47c-.37.136-.62.323-.9.603-.706.706-.82 1.22-1.024 3.97A26 26 0 0 0 5 11.974c0 .642.028 1.291.076 1.928.204 2.75.318 3.265 1.024 3.971.706.707 1.22.82 3.971 1.025.637.048 1.287.076 1.929.076s1.292-.028 1.929-.076c2.75-.205 3.265-.318 3.97-1.024.707-.707.82-1.221 1.025-3.972A26 26 0 0 0 19 11.973c0-.643-.028-1.292-.076-1.93-.204-2.75-.318-3.264-1.024-3.97-.28-.28-.53-.467-.9-.603v.503a1 1 0 0 1-1 1"/></g></svg>