<svg xmlns="http://www.w3.org/2000/svg" viewBox="0 0 16 16"><path d="M6.202 6.607V7.8h2.552q.32 0 .614-.013c.969-.041 1.434-.599 1.434-1.18 0-.72-.595-1.37-1.623-1.4Q8.972 5.2 8.754 5.2H7.61c-.39 0-.63 0-.81.012-.17.01-.209.027-.204.025a.6.6 0 0 0-.356.356c.002-.005-.015.033-.025.204-.012.18-.012.42-.012.81"/><path fill-rule="evenodd" d="M10.003 1.75v.351q-.29-.024-.616-.047a19 19 0 0 0-1.385-.055c-.466 0-.933.02-1.385.054l-.614.048v-.347a.75.75 0 0 0-1.5 0v.566a2.93 2.93 0 0 0-1.377.803c-.875.876-.94 1.748-1.07 3.492a19 19 0 0 0-.054 1.384c0 .467.02.933.054 1.385.13 1.744.195 2.616 1.07 3.492s1.747.94 3.491 1.07c.452.033.919.053 1.385.053s.933-.02 1.385-.054c1.744-.13 2.616-.194 3.491-1.07.875-.875.94-1.747 1.07-3.49.034-.453.054-.92.054-1.386s-.02-.932-.054-1.384c-.13-1.744-.195-2.616-1.07-3.492a2.93 2.93 0 0 0-1.375-.802V1.75a.75.75 0 0 0-1.5 0M5.002 7.257v-.65c0-.751 0-1.127.11-1.428a1.8 1.8 0 0 1 1.07-1.069C6.481 4 6.856 4 7.608 4h1.145q.237 0 .461.007c1.516.045 2.787 1.083 2.787 2.6 0 1.41-1.174 2.319-2.583 2.379Q9.101 9 8.754 9h-.521l-.054.002H6.201v1.002h3.203a.6.6 0 1 1 0 1.2H6.201v.452a.6.6 0 0 1-1.2 0v-.457a.6.6 0 0 1 0-1.19V8.992a.6.6 0 0 1 0-1.181v-.555"/></svg>