<svg xmlns="http://www.w3.org/2000/svg" viewBox="0 0 24 24"><path fill-rule="evenodd" d="M7.937 4.168C9.09 4.068 10.444 4 11.994 4s2.903.068 4.057.168c2.026.175 3.04.263 4.33 1.557s1.37 2.265 1.532 4.207a25 25 0 0 1 0 4.137c-.162 1.941-.243 2.912-1.533 4.206s-2.303 1.382-4.33 1.557c-1.152.1-2.505.168-4.056.168a47 47 0 0 1-4.057-.168c-2.025-.175-3.038-.263-4.328-1.557-.58-.582-.916-1.098-1.124-1.667q.273-.155.517-.372a3.003 3.003 0 0 0 4.123-.115A3 3 0 0 0 7.24 12a3 3 0 0 0-.115-4.122 3.003 3.003 0 0 0-4.123-.115 3 3 0 0 0-.517-.372c.208-.568.544-1.084 1.124-1.666 1.29-1.294 2.303-1.381 4.328-1.557m3.563 6.994 1.569-1.334V16H15V8h-1.931L11.5 9.288z"/><path d="M.293 9.292a1 1 0 0 1 1.415 0l1.294 1.293 1.293-1.293a1 1 0 0 1 1.415 1.415l-1.293 1.292 1.293 1.293a1 1 0 1 1-1.415 1.415l-1.293-1.293-1.294 1.293a1 1 0 0 1-1.415-1.415L1.587 12 .293 10.708a1 1 0 0 1 0-1.415"/></svg>