<svg xmlns="http://www.w3.org/2000/svg" viewBox="0 0 16 16"><path d="M3.644 4.803c.247-.075.564-.11 1.264-.173.84-.076 1.87-.13 3.085-.13 1.12 0 2.083.047 2.886.113.74.062 1.082.097 1.35.178.455.137.93.59 1.074 1.044.07.222.101.501.155 1.173a12.3 12.3 0 0 1 0 1.984c-.054.672-.084.95-.155 1.173-.144.454-.62.907-1.073 1.044-.27.081-.61.116-1.35.178a35 35 0 0 1-2.887.112c-1.215 0-2.244-.054-3.085-.13-.7-.063-1.017-.098-1.264-.173a2 2 0 0 1-.212-.085C3.31 11.055 3.188 11 3.04 11a.75.75 0 0 0-.325 1.426c.55.301 1.144.355 2.06.437.885.08 1.959.136 3.219.136a37 37 0 0 0 3.01-.117c1.38-.115 2.07-.172 2.936-1.038.865-.867.915-1.489 1.016-2.731a14 14 0 0 0 0-2.226c-.1-1.243-.15-1.864-1.016-2.73-.865-.867-1.555-.924-2.936-1.039A37 37 0 0 0 7.993 3c-1.26 0-2.334.056-3.22.136-.925.083-1.521.137-2.076.446A.75.75 0 0 0 3.039 5c.147 0 .269-.055.392-.112.069-.031.138-.063.213-.085"/><path d="m6.888 7.517 1.042-.85V10.5h1.227v-5H7.93l-1.042.822zM4.285 5.97a.75.75 0 0 1 0 1.06L3.314 8l.97.97a.75.75 0 1 1-1.061 1.06l-.97-.97-.971.97A.751.751 0 0 1 .22 8.97L1.19 8l-.97-.97a.75.75 0 1 1 1.062-1.06l.97.97.97-.97a.75.75 0 0 1 1.063 0"/></svg>