<svg xmlns="http://www.w3.org/2000/svg" viewBox="0 0 16 16"><path fill-rule="evenodd" d="M5.9 4.439A2.8 2.8 0 0 1 8 3.501c.836 0 1.587.363 2.1.938a2.8 2.8 0 0 1 2.1-.938c1.546 0 2.8 1.24 2.8 2.77a2.78 2.78 0 0 1-2.205 2.706q.103.362.105.755c0 1.53-1.254 2.77-2.8 2.77a2.8 2.8 0 0 1-2.1-.938 2.8 2.8 0 0 1-2.1.938c-1.546 0-2.8-1.24-2.8-2.77q.001-.393.105-.755A2.78 2.78 0 0 1 1 6.271C1 4.74 2.254 3.5 3.8 3.5c.836 0 1.587.363 2.1.938M8 7.556q.271-.002.506-.1l.005-.004q.166-.07.303-.18l.005-.003a1.28 1.28 0 0 0 .481-1c0-.71-.582-1.285-1.3-1.285A1.293 1.293 0 0 0 6.705 6.38c.03.358.21.675.476.89l.005.002q.137.11.303.18l.005.003q.236.1.506.101m-4.2 0q.271-.001.505-.1l.006-.004q.166-.07.303-.18l.005-.003c.294-.236.481-.595.481-.998 0-.71-.582-1.286-1.3-1.286S2.5 5.56 2.5 6.27c0 .412.196.778.5 1.014.22.17.498.272.8.272m.8 2.176c0 .71.582 1.285 1.3 1.285s1.3-.576 1.3-1.286-.582-1.286-1.3-1.286-1.3.576-1.3 1.287m7.6-2.176q-.271-.001-.505-.1l-.006-.004a1.3 1.3 0 0 1-.303-.18l-.005-.003a1.28 1.28 0 0 1-.481-.998c0-.71.582-1.286 1.3-1.286s1.3.575 1.3 1.285c0 .412-.196.778-.5 1.014-.22.17-.498.272-.8.272m-.8 2.176c0 .71-.582 1.285-1.3 1.285S8.8 10.44 8.8 9.73s.582-1.286 1.3-1.286 1.3.576 1.3 1.287"/></svg>