<svg xmlns="http://www.w3.org/2000/svg" viewBox="0 0 16 16"><path fill-rule="evenodd" d="M13.263 6.511a31 31 0 0 0-.045-.516c-.165-1.756-.248-2.634-1.143-3.492-.894-.858-1.668-.899-3.214-.98a16 16 0 0 0-1.723 0c-1.546.081-2.32.122-3.214.98S2.946 4.239 2.78 5.994q-.025.257-.045.517l-.68-.145a.75.75 0 1 0-.312 1.468l.511.108c-.164.45-.197.972-.244 1.718q-.01.175-.011.34v3.5a1 1 0 1 0 2 0v-1h8v1a1 1 0 1 0 2 0V10q0-.164-.012-.337c-.047-.748-.08-1.27-.244-1.72l.511-.11a.75.75 0 1 0-.311-1.467zM7.999 3q-.403 0-.782.02c-.823.044-1.236.072-1.559.155-.234.06-.425.15-.696.41-.429.412-.513.691-.688 2.55l-.019.204c.375-.078.816-.128 1.36-.191C6.363 6.062 7.185 6 8 6s1.636.062 2.384.148c.544.062.985.113 1.36.19l-.019-.202c-.175-1.86-.26-2.14-.688-2.55-.271-.26-.462-.351-.697-.411-.322-.083-.735-.111-1.558-.154Q8.402 3 7.999 3M4.25 9.3A.75.75 0 0 1 5 8.55h.8a.75.75 0 1 1 0 1.5H5a.75.75 0 0 1-.75-.75m5.95-.75a.75.75 0 1 0 0 1.5h.8a.75.75 0 0 0 0-1.5z"/></svg>