<svg xmlns="http://www.w3.org/2000/svg" viewBox="0 0 24 24"><path fill-rule="evenodd" d="M19.924 9.994q-.021-.291-.047-.578c-.213-2.377-.32-3.565-1.643-4.856s-2.425-1.363-4.628-1.506a25 25 0 0 0-3.212 0c-2.203.143-3.305.215-4.628 1.506s-1.43 2.479-1.643 4.855q-.026.287-.047.579l-.845-.18a1 1 0 0 0-.416 1.956l.577.123c-.253.68-.303 1.467-.374 2.598A8 8 0 0 0 3 15v4.5a1.5 1.5 0 0 0 3 0V18h12v1.5a1.5 1.5 0 0 0 3 0V15q-.001-.245-.017-.506c-.072-1.132-.121-1.92-.374-2.601l.577-.123a1 1 0 1 0-.416-1.956zm-9.4-4.944a23 23 0 0 1 2.952 0c1.169.076 1.766.124 2.244.255.361.1.676.256 1.118.686.42.411.593.732.713 1.146.152.526.22 1.194.332 2.43-.617-.151-1.357-.236-2.306-.345A32 32 0 0 0 12 9c-1.223 0-2.456.093-3.578.222-.949.11-1.69.194-2.306.346.112-1.237.18-1.905.333-2.431.12-.414.292-.735.713-1.146.441-.43.756-.586 1.118-.686.477-.131 1.075-.18 2.243-.255M7.5 13a1 1 0 1 0 0 2h1a1 1 0 1 0 0-2zm9 2h-1a1 1 0 1 1 0-2h1a1 1 0 1 1 0 2"/></svg>