<svg xmlns="http://www.w3.org/2000/svg" viewBox="0 0 16 16"><path d="M11.958 2.26A13.3 13.3 0 0 0 9.252 2c-1.12 0-2.023.117-2.706.26-.37.077-.63.13-.86.25q.426.02.804.07l.06.007c.298.038.704.089 1.09.223.485.169.879.44 1.242.814.385.395.64.82.79 1.324.119.398.16.827.194 1.167l.006.064c.074.744.13 1.685.13 2.821q0 .528-.015 1h1.765a.75.75 0 1 1 0 1.5h-1.85l-.03.321-.006.064c-.033.34-.075.769-.194 1.167a3 3 0 0 1-.47.948h.05c1.12 0 2.024-.117 2.706-.26.62-.129.93-.193 1.309-.605s.424-.779.513-1.512A30 30 0 0 0 14.002 8c0-1.433-.109-2.696-.222-3.623-.09-.733-.134-1.1-.513-1.512-.38-.412-.69-.477-1.309-.605"/><path fill-rule="evenodd" d="M8.502 9a27 27 0 0 1-.123 2.674c-.078.792-.117 1.188-.572 1.657-.455.468-.805.512-1.505.601a8.3 8.3 0 0 1-2.1 0c-.7-.089-1.05-.133-1.505-.601-.455-.469-.494-.865-.572-1.657A27 27 0 0 1 2.002 9c0-1.086.054-1.978.123-2.674.078-.792.117-1.189.572-1.657s.805-.512 1.506-.602a8.3 8.3 0 0 1 2.098 0c.7.09 1.05.134 1.506.602s.494.865.572 1.657c.069.696.123 1.588.123 2.674m-4.5-2.75a.75.75 0 0 1 .75-.75h1a.75.75 0 1 1 0 1.5h-1a.75.75 0 0 1-.75-.75"/></svg>