<svg xmlns="http://www.w3.org/2000/svg" viewBox="0 0 44 44"><path fill-rule="evenodd" d="M15.01 9.5c.789-2.805 3.915-4.295 6.617-3.065a4.8 4.8 0 0 1 2.634 3.07c3.173.074 6.426.867 8.973 2.37C35.921 13.458 38 15.96 38 19.333c0 1.842-.81 3.172-1.91 4.15-.996.885-2.276 1.517-3.339 2.041l-.087.043c-1.17.578-2.098 1.047-2.761 1.637-.589.524-.903 1.082-.903 1.907 0 .848.334 1.462.907 1.974.615.55 1.507.976 2.527 1.285 1.005.304 2.03.464 2.816.546a17 17 0 0 0 1.206.082h.017c.829.006 1.532.683 1.527 1.511-.005.829-.712 1.496-1.54 1.49a18 18 0 0 1-1.523-.1c-.9-.094-2.126-.28-3.371-.658-1.23-.372-2.588-.96-3.66-1.92C26.79 32.323 26 30.93 26 29.11c0-1.842.81-3.172 1.91-4.149.996-.886 2.276-1.517 3.339-2.042l.087-.043c1.17-.578 2.098-1.047 2.761-1.637.589-.523.903-1.082.903-1.907 0-1.96-1.17-3.625-3.29-4.874-2.04-1.204-4.797-1.9-7.576-1.955a5 5 0 0 1-.129.31L12.95 36.961a1.778 1.778 0 0 1-3.358-1.098l4.79-23.364H7.5a1.5 1.5 0 0 1 0-3zM19.5 13a2 2 0 1 0 0-4 2 2 0 0 0 0 4"/></svg>