<svg xmlns="http://www.w3.org/2000/svg" viewBox="0 0 24 24"><path fill-rule="evenodd" d="M8.06 5a2.704 2.704 0 0 1 5.22.003c1.784.038 3.6.438 5.029 1.254C19.83 7.127 21 8.537 21 10.5c0 1.084-.474 1.872-1.112 2.446-.571.514-1.3.878-1.886 1.171l-.055.027c-.655.328-1.148.582-1.497.896-.299.27-.45.544-.45.96 0 .43.164.733.45.991.315.284.784.51 1.337.676a9 9 0 0 0 2.04.328c.061.003.173.005.173.005a1 1 0 1 1 0 2h-.008l-.25-.007c-.152-.006-.367-.02-.623-.045-.507-.05-1.2-.153-1.906-.365-.697-.209-1.478-.545-2.1-1.105C14.46 17.892 14 17.07 14 16c0-1.084.474-1.872 1.112-2.446.571-.514 1.3-.878 1.886-1.171l.055-.027c.655-.328 1.148-.582 1.497-.896.299-.27.45-.544.45-.96 0-1.037-.58-1.877-1.684-2.507-1.11-.634-2.655-.985-4.263-.993L6.909 20.416a1 1 0 0 1-1.888-.617L7.645 7H4a1 1 0 0 1 0-2zm2.44 2.25a1.25 1.25 0 1 0 0-2.5 1.25 1.25 0 0 0 0 2.5"/></svg>