<svg xmlns="http://www.w3.org/2000/svg" viewBox="0 0 16 16"><path fill-rule="evenodd" d="M9.333 3.833c.268 0 .542.012.812.032.63.047.912.073 1.115.126.116.03.168.057.263.152a.47.47 0 0 1 .152.264c.053.203.08.485.127 1.114q.03.408.031.812 0 .404-.031.812c-.047.63-.074.911-.127 1.115a.47.47 0 0 1-.152.263.47.47 0 0 1-.263.152c-.141.037-.32.061-.628.088l-.001-.019C10.544 7.582 10.5 7 9.917 6.417c-.583-.584-1.164-.627-2.327-.714a13 13 0 0 0-.923-.036c-.311 0-.622.014-.923.036-1.163.087-1.744.13-2.328.714-.583.583-.627 1.165-.713 2.327a12 12 0 0 0 0 1.847c.086 1.162.13 1.744.713 2.327.584.584 1.165.627 2.328.713a12 12 0 0 0 1.846 0c1.163-.086 1.744-.13 2.327-.713.584-.583.627-1.165.714-2.327q.011-.16.02-.324c.908-.074 1.42-.17 1.933-.683.584-.584.627-1.165.713-2.328a12 12 0 0 0 0-1.846c-.086-1.163-.13-1.744-.713-2.327-.583-.584-1.165-.627-2.327-.714a13 13 0 0 0-.924-.036c-.31 0-.621.014-.923.036-1.162.087-1.744.13-2.327.714-.584.583-.627 1.164-.714 2.327q-.011.16-.02.324l.395-.03a13 13 0 0 1 1.111-.035l.01-.148c.047-.63.074-.91.126-1.114a.47.47 0 0 1 .152-.264.47.47 0 0 1 .264-.152c.203-.053.485-.079 1.115-.126.27-.02.543-.032.811-.032M7.48 7.2q-.408-.031-.812-.032-.404.001-.812.032c-.63.047-.911.074-1.115.126a.47.47 0 0 0-.263.152.47.47 0 0 0-.152.264c-.053.203-.08.485-.126 1.115q-.031.407-.032.811c0 .268.011.542.032.812.046.63.073.912.126 1.115.03.116.057.168.152.263a.47.47 0 0 0 .263.152c.204.053.485.08 1.115.127.27.02.544.031.812.031q.404 0 .812-.031c.63-.047.91-.074 1.114-.127a.47.47 0 0 0 .264-.152.47.47 0 0 0 .152-.263c.053-.203.079-.485.126-1.115.02-.27.032-.544.032-.812q-.001-.403-.032-.811c-.047-.63-.073-.912-.126-1.115a.47.47 0 0 0-.152-.264.47.47 0 0 0-.264-.152c-.203-.052-.485-.079-1.114-.126"/></svg>