<svg xmlns="http://www.w3.org/2000/svg" viewBox="0 0 16 16"><path fill-rule="evenodd" d="M5.35 5.734q.007-.163.02-.324c.086-1.162.13-1.744.713-2.327.583-.584 1.165-.627 2.327-.714.302-.022.613-.036.923-.036s.622.014.924.036c1.162.087 1.744.13 2.327.714.584.583.627 1.165.713 2.327q.035.455.036.923c0 .311-.013.622-.036.924-.086 1.162-.13 1.744-.713 2.327-.513.514-1.025.609-1.933.683q-.008.164-.02.324c-.087 1.162-.13 1.744-.714 2.327-.583.584-1.164.627-2.327.714-.301.022-.612.036-.923.036s-.622-.014-.923-.036c-1.163-.087-1.744-.13-2.328-.714-.583-.583-.627-1.165-.713-2.327a13 13 0 0 1-.036-.924c0-.31.013-.621.036-.923.086-1.162.13-1.744.713-2.327.514-.514 1.025-.609 1.933-.683m3.983-1.9c.268 0 .542.011.812.031.63.047.912.073 1.115.126.116.03.168.057.263.152a.47.47 0 0 1 .152.264c.053.203.08.485.127 1.115a11 11 0 0 1 0 1.623c-.047.63-.074.912-.127 1.115a.47.47 0 0 1-.152.263.47.47 0 0 1-.263.152c-.141.037-.32.061-.628.088l-.001-.019C10.544 7.582 10.5 7 9.917 6.417c-.583-.584-1.164-.627-2.327-.713q-.361-.027-.735-.035l.01-.147c.047-.63.074-.912.126-1.115a.47.47 0 0 1 .152-.264.47.47 0 0 1 .264-.152c.203-.053.485-.079 1.115-.126.27-.02.543-.032.811-.032"/></svg>