<svg xmlns="http://www.w3.org/2000/svg" viewBox="0 0 32 32"><path fill-rule="evenodd" d="M10.31 6.003a2 2 0 0 1-.25.017 6.8 6.8 0 0 0-2.707.716c-1.28.637-2.36 1.647-3.144 2.936-.182.3-.478.898-.61 1.234-.457 1.16-.643 2.291-.59 3.607a8 8 0 0 0 .92 3.521 8 8 0 0 0 1.27 1.826c.115.124.303.335.419.469.76.875 2.242 2.452 2.93 3.116 1.076 1.038 2.596 2.387 3.367 2.989 1.27.99 2.215 1.416 3.43 1.545.328.035 1.189.025 1.482-.017 1.218-.173 2.172-.646 3.525-1.747.51-.414 1.608-1.38 2.415-2.124 1.014-.935 2.805-2.818 3.902-4.103.512-.6.594-.7.774-.953.693-.97 1.272-2.299 1.446-3.322.034-.197.072-.574.067-.672-.001-.03.006-.142.016-.248a9 9 0 0 0-.04-1.83 10 10 0 0 0-.184-.974 8.3 8.3 0 0 0-1.71-3.382 10 10 0 0 0-.92-.922 8 8 0 0 0-1.087-.765 11 11 0 0 0-.927-.448 7.5 7.5 0 0 0-1.245-.364c-.394-.083-.57-.098-1.228-.103-.687-.005-.844.005-1.295.087a7.16 7.16 0 0 0-3.459 1.69c-.23.203-.616.595-.784.795l-.108.13-.051-.063a9 9 0 0 0-.554-.59 7.3 7.3 0 0 0-2.616-1.644 9 9 0 0 0-.732-.218l-.193-.041a7 7 0 0 0-.802-.118c-.254-.021-.715-.04-.726-.03m11.72 2.545c1.223.143 2.36.793 3.179 1.816.676.846 1.08 1.834 1.22 2.991a9 9 0 0 1 .009 1.371c-.088.842-.23 1.34-.577 2.033a5.5 5.5 0 0 1-.78 1.194l-.372.435c-.91 1.071-2.513 2.766-3.437 3.636-.817.77-2.078 1.876-2.699 2.37-.757.601-1.313.908-1.844 1.016a4.4 4.4 0 0 1-1.308.026c-.777-.117-1.41-.506-2.854-1.754a51 51 0 0 1-2.525-2.317 63 63 0 0 1-2.4-2.567c-.16-.184-.388-.44-.506-.569a6 6 0 0 1-.518-.626 6.3 6.3 0 0 1-.867-1.79c-.207-.732-.274-1.671-.178-2.483.229-1.91 1.315-3.523 2.908-4.319a4.6 4.6 0 0 1 1.193-.397c1.1-.204 2.27.043 3.235.683.582.387.798.613 2.064 2.155a61 61 0 0 0 1.021 1.23c.006-.002.472-.568 1.035-1.258 1.26-1.543 1.47-1.764 2.031-2.137.62-.411 1.384-.691 2.028-.742a1 1 0 0 0 .132-.016c.019-.017.621-.003.81.02"/></svg>