<svg xmlns="http://www.w3.org/2000/svg" viewBox="0 0 44 44"><path fill-rule="evenodd" d="M22 38.097a6.5 6.5 0 0 1-4.06-1.425s-6.41-4.952-10.713-9.55c-4.303-4.597-4.303-12.051 0-16.648C11.27 6.154 17.672 5.894 22 9.69c4.328-3.797 10.73-3.536 14.773.784 4.303 4.597 4.303 12.05 0 16.648s-10.713 9.55-10.713 9.55A6.5 6.5 0 0 1 22 38.098m-2.108-26.173L22 14.065l2.108-2.14c3.163-2.568 7.694-2.31 10.58.775a8.74 8.74 0 0 1 2.085 3.842 9.24 9.24 0 0 1 0 4.512 8.74 8.74 0 0 1-2.084 3.841c-.486.52-2.835 3.009-5.189 5.105-2.654 2.364-4 3.5-5.314 4.33a4.44 4.44 0 0 1-2.186.694 4.44 4.44 0 0 1-2.186-.694C18.5 33.5 17.154 32.364 14.5 30c-2.354-2.096-4.703-4.585-5.189-5.105a8.74 8.74 0 0 1-2.084-3.841 9.24 9.24 0 0 1 0-4.512A8.74 8.74 0 0 1 9.311 12.7c2.887-3.085 7.418-3.343 10.581-.776"/></svg>