<svg xmlns="http://www.w3.org/2000/svg" viewBox="0 0 32 32"><path fill-rule="evenodd" d="M3.626 17.368a8.1 8.1 0 0 0 1.741 2.663c.59.702 1.292 1.45 2.105 2.315q.127.135.255.268c.643.67 1.314 1.31 1.983 1.911 2.584 2.318 3.876 3.477 6.29 3.477 2.413 0 3.705-1.16 6.289-3.477a37 37 0 0 0 2.239-2.179c.884-.942 1.637-1.744 2.26-2.5a8.1 8.1 0 0 0 1.41-2.1c.407-.82.658-1.689.754-2.729q.047-.457.048-.927C29 9.622 25.667 6 21.555 6c-2.214 0-4.202 1.05-5.566 2.718-1.363-1.654-3.343-2.695-5.546-2.695C6.333 6.023 3 9.646 3 14.114q0 .542.064 1.066a7.6 7.6 0 0 0 .562 2.188"/></svg>