<svg xmlns="http://www.w3.org/2000/svg" viewBox="0 0 44 44"><path d="M19.814 15.955c5.764 5.254 9.697 11.947 13.208 19.282-1.086.254-2.324.355-3.893.484a87 87 0 0 1-7.126.279c-2.713 0-5.09-.112-7.128-.28-3.723-.305-5.584-.458-7.967-2.853s-2.516-4.147-2.784-7.648a42 42 0 0 1-.112-4.21q.595-.695 1.225-1.366c1.303-1.385 2.708-2.661 4.022-3.76 2.332-1.95 3.498-2.925 5.43-2.882 1.933.044 2.997 1.014 5.125 2.954m17.284 16.911c-.458.461-.897.839-1.334 1.15l-.036-.074c-2.284-4.772-4.8-9.404-7.943-13.6C29.772 18.78 30.825 18 32.505 18c1.74 0 2.808.839 4.941 2.517A46 46 0 0 1 40 22.673c-.014.88-.056 1.73-.118 2.542-.268 3.503-.401 5.255-2.784 7.651"/></svg>