<svg xmlns="http://www.w3.org/2000/svg" viewBox="0 0 16 16"><path fill-rule="evenodd" d="M9.863 12.093q-.207.175-.388.322l.306.305a.75.75 0 0 1-1.06 1.06L6 11.06l-2.718 2.718a.75.75 0 0 1-1.06-1.06L4.939 10 2.22 7.28a.75.75 0 0 1 1.06-1.06l.306.304q.147-.179.322-.388c.4-.476.89-1.016 1.478-1.605a25 25 0 0 1 1.606-1.478C7.827 2.35 8.246 1.998 9.228 2s1.383.34 2.182 1.017a13.5 13.5 0 0 1 1.573 1.573c.677.8 1.015 1.2 1.017 2.182s-.35 1.4-1.053 2.237c-.4.477-.889 1.016-1.478 1.605-.59.59-1.13 1.078-1.606 1.479M5.056 7.1c.372-.443.832-.951 1.39-1.51a24 24 0 0 1 1.51-1.39c.456-.383.64-.528.8-.613.086-.045.188-.088.47-.088.292 0 .391.045.465.083.146.077.312.208.75.579a12 12 0 0 1 1.397 1.397c.37.438.502.604.579.75.038.074.082.173.083.465 0 .282-.043.384-.088.47-.085.16-.23.344-.614.8a23 23 0 0 1-1.39 1.51 24 24 0 0 1-2 1.793L4.653 7.592c.093-.12.221-.275.403-.49"/></svg>