<svg xmlns="http://www.w3.org/2000/svg" viewBox="0 0 24 24"><path fill-rule="evenodd" d="M14.115 18.7a38 38 0 0 0 3.089-2.779 38 38 0 0 0 2.216-2.407c1.055-1.255 1.582-1.883 1.58-3.356-.003-1.474-.51-2.074-1.526-3.273a20 20 0 0 0-2.359-2.36C15.915 3.51 15.316 3.004 13.843 3c-1.474-.002-2.102.525-3.357 1.58a38 38 0 0 0-2.408 2.216 38 38 0 0 0-2.217 2.409c-.208.247-.395.47-.562.68l-.592-.592a1 1 0 0 0-1.414 1.414L7.586 15l-3.293 3.293a1 1 0 1 0 1.414 1.414L9 16.414l4.293 4.293a1 1 0 0 0 1.414-1.414zM9.492 8.21a36 36 0 0 0-2.768 3.1l5.966 5.966a36 36 0 0 0 3.1-2.768 36 36 0 0 0 2.1-2.28c.57-.68.806-.975.949-1.245.09-.17.162-.365.16-.822 0-.472-.073-.662-.153-.813-.13-.25-.347-.52-.898-1.171a18 18 0 0 0-2.125-2.125c-.65-.55-.922-.767-1.17-.898C14.5 5.074 14.31 5 13.838 5c-.457 0-.652.072-.822.161-.27.143-.566.38-1.244.95a36 36 0 0 0-2.28 2.1"/></svg>