<svg xmlns="http://www.w3.org/2000/svg" viewBox="0 0 24 24"><path d="M6.706 4.298C6.076 3.661 5 4.112 5 5.012c0 .268.105.525.293.715l3.095 3.13c1.106 1.117 1.79 1.815 2.223 2.389.39.517.39.697.39.751v.006c0 .053 0 .234-.39.751-.432.574-1.117 1.271-2.223 2.39l-3.095 3.13a1 1 0 0 0-.293.713c0 .9 1.077 1.352 1.706.715l3.096-3.13C11.934 14.418 13 13.34 13 12s-1.066-2.417-3.198-4.573z"/><path d="M14.706 4.298c-.63-.637-1.706-.186-1.706.714 0 .268.105.525.293.715l3.095 3.13c1.106 1.117 1.79 1.815 2.223 2.389.39.517.39.697.39.751v.006c0 .053 0 .234-.39.751-.432.574-1.117 1.271-2.223 2.39l-3.095 3.13a1 1 0 0 0-.293.713c0 .9 1.077 1.352 1.706.715l3.096-3.13C19.934 14.418 21 13.34 21 12s-1.066-2.417-3.198-4.573z"/></svg>