<svg xmlns="http://www.w3.org/2000/svg" viewBox="0 0 16 16"><path d="M4.608 3.221a.75.75 0 1 0-1.06 1.062l1.758 1.76c.741.74 1.188 1.193 1.468 1.56.13.17.185.273.208.33.018.043.018.058.018.066v.002c0 .008 0 .023-.018.066-.023.057-.079.16-.208.33-.28.367-.727.819-1.468 1.56l-1.759 1.76a.75.75 0 0 0 1.061 1.061l1.759-1.76C7.789 9.597 8.5 8.885 8.5 8s-.711-1.596-2.133-3.02zm5.5 0a.75.75 0 1 0-1.06 1.062l1.758 1.76c.741.74 1.188 1.193 1.468 1.56.13.17.185.273.208.33.018.043.018.058.018.066v.002c0 .008 0 .023-.018.066-.023.057-.079.16-.208.33-.28.367-.727.819-1.468 1.56l-1.759 1.76a.75.75 0 0 0 1.061 1.061l1.759-1.76C13.289 9.597 14 8.885 14 8s-.711-1.596-2.133-3.019z"/></svg>