<svg xmlns="http://www.w3.org/2000/svg" viewBox="0 0 24 24"><path d="M13 2.5a1 1 0 1 0-2 0v1a1 1 0 1 0 2 0zm0 18a1 1 0 1 0-2 0v1a1 1 0 1 0 2 0zm9.5-8.5a1 1 0 0 1-1 1h-1a1 1 0 1 1 0-2h1a1 1 0 0 1 1 1m-19 1a1 1 0 1 0 0-2h-1a1 1 0 1 0 0 2zm2.897 5.802a1.198 1.198 0 1 1-2.397 0 1.198 1.198 0 0 1 2.397 0M5.2 6.402A1.2 1.2 0 1 0 5.2 4a1.2 1.2 0 0 0 0 2.402M20 18.799a1.201 1.201 0 1 1-2.403 0 1.201 1.201 0 0 1 2.403 0M18.802 6.396a1.198 1.198 0 1 0 0-2.396 1.198 1.198 0 0 0 0 2.396M7.23 7.232C6.114 8.347 6.08 9.37 6.01 11.415a17 17 0 0 0 0 1.173c.07 2.045.104 3.068 1.22 4.183 1.115 1.116 2.138 1.15 4.183 1.22a17 17 0 0 0 1.173 0c2.045-.07 3.068-.104 4.183-1.22 1.116-1.115 1.15-2.138 1.22-4.183a17 17 0 0 0 0-1.173c-.07-2.045-.104-3.068-1.22-4.183-1.115-1.116-2.138-1.15-4.183-1.22a17 17 0 0 0-1.173 0c-2.045.07-3.068.104-4.183 1.22"/></svg>