<svg xmlns="http://www.w3.org/2000/svg" viewBox="0 0 16 16"><path d="M8.75 1.754a.75.75 0 1 0-1.5 0v.496a.75.75 0 0 0 1.5 0zm0 11.996a.75.75 0 0 0-1.5 0v.5a.75.75 0 0 0 1.5 0zm5.5-5a.75.75 0 0 0 0-1.5h-.5a.75.75 0 0 0 0 1.5zm-12 0a.75.75 0 0 0 0-1.5h-.496a.75.75 0 1 0 0 1.5z"/><path fill-rule="evenodd" d="M4.015 7.41c.064-1.29.097-1.935.778-2.616.68-.681 1.326-.713 2.616-.778a12 12 0 0 1 1.181 0c1.29.065 1.936.097 2.617.778.68.68.713 1.326.778 2.616a12 12 0 0 1 0 1.182c-.065 1.29-.097 1.935-.778 2.616s-1.326.713-2.617.778a12 12 0 0 1-1.18 0c-1.291-.065-1.936-.097-2.617-.778-.681-.68-.714-1.326-.778-2.616a12 12 0 0 1 0-1.182m3.47-1.896a10 10 0 0 1 1.03 0c.697.035 1.015.057 1.25.116a.7.7 0 0 1 .381.224c.149.149.19.239.225.381.059.236.08.554.116 1.25a10 10 0 0 1 0 1.032c-.035.696-.057 1.014-.116 1.25a.7.7 0 0 1-.225.38.7.7 0 0 1-.38.225c-.236.059-.554.08-1.25.116a10 10 0 0 1-1.032 0c-.696-.035-1.015-.057-1.25-.116a.7.7 0 0 1-.38-.225.7.7 0 0 1-.226-.38c-.058-.236-.08-.554-.115-1.25a10 10 0 0 1 0-1.032c.035-.696.057-1.014.115-1.25a.7.7 0 0 1 .225-.38.7.7 0 0 1 .381-.225c.235-.059.554-.081 1.25-.116"/><path d="M4.397 12.5a.898.898 0 1 1-1.795 0 .898.898 0 0 1 1.795 0M3.5 4.398a.898.898 0 1 0 0-1.796.898.898 0 0 0 0 1.796m9.898 8.102a.898.898 0 1 1-1.796 0 .898.898 0 0 1 1.796 0M12.5 4.398a.898.898 0 1 0 0-1.796.898.898 0 0 0 0 1.796"/></svg>