<svg xmlns="http://www.w3.org/2000/svg" viewBox="0 0 16 16"><path d="M8.75 1.754a.75.75 0 1 0-1.5 0v.496a.75.75 0 0 0 1.5 0zm0 11.996a.75.75 0 0 0-1.5 0v.5a.75.75 0 0 0 1.5 0zm5.5-5a.75.75 0 0 0 0-1.5h-.5a.75.75 0 0 0 0 1.5zm-12 0a.75.75 0 0 0 0-1.5h-.496a.75.75 0 1 0 0 1.5zm2.147 3.75a.898.898 0 1 1-1.795 0 .898.898 0 0 1 1.795 0M3.5 4.398a.898.898 0 1 0 0-1.796.898.898 0 0 0 0 1.796m9.898 8.102a.898.898 0 1 1-1.796 0 .898.898 0 0 1 1.796 0M12.5 4.398a.898.898 0 1 0 0-1.796.898.898 0 0 0 0 1.796m-7.707.396c-.681.68-.714 1.326-.778 2.616a12 12 0 0 0 0 1.182c.064 1.29.097 1.935.778 2.616.68.681 1.326.713 2.616.778a12 12 0 0 0 1.181 0c1.29-.065 1.936-.097 2.617-.778.68-.68.713-1.326.778-2.616a12 12 0 0 0 0-1.182c-.065-1.29-.097-1.935-.778-2.616S9.88 4.08 8.59 4.016a12 12 0 0 0-1.18 0c-1.291.065-1.936.097-2.617.778"/></svg>