<svg xmlns="http://www.w3.org/2000/svg" viewBox="0 0 44 44"><path d="M7.992 10.556C8.048 9.148 6.906 8 5.496 8S2.944 9.148 3 10.556c.11 2.804.347 5.514.516 7.218.09.908.136 1.361.599 1.787s.755.43 1.34.439h.082c.584-.009.876-.013 1.34-.439.463-.425.508-.88.598-1.786.17-1.704.407-4.415.517-7.219m-.493 13.939a2 2 0 1 0-4.001 0 2 2 0 0 0 4 0"/><path fill-rule="evenodd" d="m11.11 8.69-.39.054c.2.6.297 1.25.27 1.93a129 129 0 0 1-.545 7.56c-.058.664-.17 1.938-1.097 3.07a5 5 0 0 1-4.703 8.12c.2 1.208.368 2.073.746 2.83.25.498.797.746 1.354.746h1.67a5.001 5.001 0 0 0 9.168 0h8.832a5.001 5.001 0 0 0 9.168 0h.806a1.5 1.5 0 0 0 1.187-.582c1.89-2.106 2.027-3.824 2.285-7.035.085-1.067.136-2.2.136-3.383v-.017c0-.967-.37-1.995-.828-2.896a14.5 14.5 0 0 0-1.853-2.747c-.727-.856-1.567-1.657-2.443-2.257C34.03 13.505 32.989 13 31.896 13h-2.899v-3q0-.089-.01-.175.01-.085.01-.174c0-.78-.599-1.432-1.378-1.48A90 90 0 0 0 21.997 8c-4.602 0-8.237.322-10.887.69M31 26c-.713 0-1.39.149-2.003.417V16h2.5l.749 4.48a1.8 1.8 0 0 0 1.775 1.503h2.976V22c0 1.097-.047 2.15-.127 3.143-.146 1.828-.236 2.755-.476 3.525-.11.353-.264.706-.545 1.112A5 5 0 0 0 31 26m-18 7a2 2 0 1 0 0-4 2 2 0 0 0 0 4m18-4a2 2 0 1 0 0 4 2 2 0 0 0 0-4"/></svg>