<svg xmlns="http://www.w3.org/2000/svg" viewBox="0 0 17 17"><path fill-rule="evenodd" d="M1.468 12.303a8 8 0 0 1-.132-.673q.376.123.791.125a2.55 2.55 0 0 0 2.149-3.923 2.7 2.7 0 0 0 .277-1.04l.006-.061c.072-.65.17-1.663.22-2.73a2.6 2.6 0 0 0-.195-1.132A34 34 0 0 1 8.5 2.656q1.265.002 2.292.07.084.004.162.028c.41.033.733.376.733.794v1.233h1.02c1.015 0 1.832.75 2.326 1.413.508.68.904 1.581.904 2.323v.002q-.003.751-.06 1.428c-.086 1.054-.14 1.721-.546 2.384a.8.8 0 0 1-.589.41 2.392 2.392 0 0 1-4.512.008H7.302a2.392 2.392 0 0 1-4.509 0h-.698c-.288 0-.556-.167-.627-.446m12.82-2.485q-.023.294-.043.514a2.385 2.385 0 0 0-2.558-.636V6.374h1.02l.043.002.145 1.453c.037.38.357.67.74.67h.708c0 .454-.02.908-.054 1.319m-1.803 2.93a.797.797 0 1 1 0-1.595.797.797 0 0 1 0 1.595m-7.437-1.595a.798.798 0 1 0 0 1.595.798.798 0 0 0 0-1.595"/><path d="M2.126 2.833c.602 0 1.09.49 1.062 1.093a44 44 0 0 1-.213 2.63c-.04.36-.06.54-.231.7-.172.162-.3.167-.554.18a1 1 0 0 1-.129 0c-.254-.013-.382-.018-.554-.18-.171-.16-.191-.34-.23-.7a44 44 0 0 1-.213-2.63 1.05 1.05 0 0 1 1.062-1.093m0 5.417a.956.956 0 1 1 0 1.912.956.956 0 0 1 0-1.913"/></svg>