<svg xmlns="http://www.w3.org/2000/svg" viewBox="0 0 32 32"><path fill-rule="evenodd" d="M19.852 5.61a1.227 1.227 0 0 1 1.144 1.294Q21 6.952 21 7v2.5h2.147c.436 0 .83.149 1.122.292a5.6 5.6 0 0 1 .902.572c.575.438 1.17 1.015 1.703 1.62a13 13 0 0 1 1.416 1.921c.344.583.71 1.347.71 2.078l-.003.072a33 33 0 0 1-.118 2.72c-.179 2.128-.283 3.362-1.303 4.698h-.004a1.25 1.25 0 0 1-1.02.527h-.518a3.752 3.752 0 0 1-7.073 0h-5.675a3.752 3.752 0 0 1-7.073 0H4.748a1.25 1.25 0 1 1 0-2.5h1.465a3.752 3.752 0 0 1 7.073 0H18.5V8.044a62 62 0 0 0-2.501-.049c-2.237 0-4.134.114-5.688.27q-.44.045-.878.098c-.757.092-1.435-.49-1.435-1.252 0-.62.454-1.146 1.069-1.222q.586-.072 1.244-.136A60 60 0 0 1 16 5.495c1.41 0 2.695.044 3.853.115M21 19.31a3.75 3.75 0 0 1 4.964 2.004q.044-.113.08-.223c.163-.529.23-1.177.344-2.527.068-.805.11-1.666.11-2.565h-1.635a1.3 1.3 0 0 1-1.275-1.045L22.998 12H21zM9.75 24a1.25 1.25 0 1 0 0-2.5 1.25 1.25 0 0 0 0 2.5m12.747-2.5a1.25 1.25 0 1 0 0 2.5 1.25 1.25 0 0 0 0-2.5"/><path d="M5.995 7.562C6.053 6.428 5.134 5.5 3.998 5.5S1.943 6.428 2 7.562a83 83 0 0 0 .393 4.78c.075.677.112 1.015.435 1.318s.563.315 1.045.337a3 3 0 0 0 .248 0c.48-.022.721-.034 1.044-.337s.36-.641.436-1.319c.127-1.154.3-2.92.393-4.779M5.748 17.5a1.75 1.75 0 1 0-3.5 0 1.75 1.75 0 0 0 3.5 0"/></svg>