<svg xmlns="http://www.w3.org/2000/svg" viewBox="0 0 24 24"><path d="M3.001 4c.851 0 1.54.693 1.5 1.543a62 62 0 0 1-.3 3.714c-.057.508-.085.761-.327.989-.243.227-.423.235-.782.252a2 2 0 0 1-.181 0c-.36-.016-.54-.025-.783-.252-.242-.228-.27-.481-.326-.99a62 62 0 0 1-.3-3.713C1.462 4.693 2.15 4 3.002 4M3 11.746a1.252 1.252 0 1 1 0 2.503 1.252 1.252 0 0 1 0-2.503"/><path fill-rule="evenodd" d="M6.179 9.565c-.03.313-.09.968-.491 1.6a3.252 3.252 0 0 1-3.336 5.019c.083.516.153.923.261 1.273.108.348.452.543.816.543h.742a3.001 3.001 0 0 0 5.66 0h4.34a3.001 3.001 0 0 0 5.659 0h.343a1 1 0 0 0 .866-.501c.668-.963.747-1.892.875-3.43.054-.649.087-1.343.087-2.069 0-.308-.09-.6-.18-.827a5 5 0 0 0-.366-.73 11 11 0 0 0-1.07-1.469A10 10 0 0 0 19.09 7.7a4.3 4.3 0 0 0-.696-.46c-.226-.115-.54-.24-.893-.24H16V5.079a.98.98 0 0 0-.915-.984A49 49 0 0 0 12 4c-2.352 0-4.25.156-5.685.345.137.4.204.835.182 1.293a64 64 0 0 1-.31 3.838zM16 16.993a1 1 0 1 1 0 .014zm0-2.822V9h1.5l.36 2.164a1 1 0 0 0 .987.836H20c0 .666-.03 1.304-.08 1.903-.077.925-.125 1.411-.222 1.785A3 3 0 0 0 16 14.171M7 16a1 1 0 1 0 0 2 1 1 0 0 0 0-2"/></svg>