<svg xmlns="http://www.w3.org/2000/svg" viewBox="0 0 17 17"><path fill-rule="evenodd" d="M5.047 14.342a2.39 2.39 0 0 1-2.255-1.594H2.39a.797.797 0 1 1 0-1.592h.402a2.39 2.39 0 0 1 4.51 0h2.79V4.284A36 36 0 0 0 8.5 4.249c-1.326 0-2.442.069-3.345.16a.816.816 0 0 1-.905-.802c0-.398.296-.736.692-.777.966-.1 2.153-.174 3.558-.174a37 37 0 0 1 2.292.07q.084.004.162.028c.41.033.733.376.733.794v1.233h1.02c1.014 0 1.831.75 2.326 1.413.508.68.903 1.581.903 2.323v.002c0 .5-.023.978-.059 1.428-.086 1.054-.14 1.721-.546 2.384a.8.8 0 0 1-.59.41 2.392 2.392 0 0 1-4.511.008H7.3a2.39 2.39 0 0 1-2.254 1.593m9.24-4.524q-.023.294-.044.514a2.385 2.385 0 0 0-2.557-.636V6.374h1.02l.042.002.145 1.453c.038.38.358.67.74.67h.709c0 .454-.02.908-.054 1.319m-1.804 2.93a.797.797 0 1 1 0-1.595.797.797 0 0 1 0 1.595m-7.436-1.595a.798.798 0 1 0 0 1.595.798.798 0 0 0 0-1.595"/><path d="M3.186 3.926a1.05 1.05 0 0 0-1.062-1.093c-.603 0-1.091.49-1.063 1.093.049 1.02.144 1.998.213 2.63.04.36.06.54.231.7.172.162.3.167.554.18a1 1 0 0 0 .129 0c.254-.013.382-.018.554-.18.171-.16.191-.34.23-.7.07-.632.165-1.61.214-2.63M2.124 8.25a.956.956 0 1 1 0 1.912.956.956 0 0 1 0-1.913"/></svg>