<svg xmlns="http://www.w3.org/2000/svg" viewBox="0 0 32 32"><path fill-rule="evenodd" d="M8.074 12.737c-.041.439-.126 1.336-.705 2.175a4.25 4.25 0 0 1-3.877 6.809c.108.654.203 1.17.36 1.617.15.43.585.662 1.04.662h1.321a3.752 3.752 0 0 0 7.074 0h5.675a3.752 3.752 0 0 0 7.073 0h.518c.42 0 .793-.208 1.02-.527h.003c1.02-1.336 1.125-2.57 1.304-4.698a33 33 0 0 0 .12-2.792c0-.731-.366-1.495-.71-2.078a13 13 0 0 0-1.415-1.92c-.534-.606-1.128-1.183-1.703-1.62a5.6 5.6 0 0 0-.903-.573c-.291-.143-.685-.292-1.122-.292H21V7l-.003-.096.001-.063c0-.65-.498-1.191-1.146-1.231A63 63 0 0 0 16 5.495c-3.257 0-5.843.232-7.747.5.183.524.27 1.094.24 1.693a85 85 0 0 1-.406 4.929zM21 19.311a3.75 3.75 0 0 1 4.964 2.004q.045-.113.08-.223c.164-.529.231-1.177.345-2.527.068-.805.109-1.666.109-2.565h-1.635a1.3 1.3 0 0 1-1.274-1.045L22.999 12H21zM9.75 24a1.25 1.25 0 1 0 0-2.5 1.25 1.25 0 0 0 0 2.5m12.748-2.5a1.25 1.25 0 1 0 0 2.5 1.25 1.25 0 0 0 0-2.5"/><path d="M5.995 7.562C6.053 6.428 5.134 5.5 3.998 5.5S1.943 6.428 2 7.562a83 83 0 0 0 .393 4.78c.075.677.112 1.015.435 1.318s.563.315 1.045.337a3 3 0 0 0 .248 0c.48-.022.721-.034 1.044-.337s.36-.641.436-1.319c.127-1.154.3-2.92.393-4.779M5.748 17.5a1.75 1.75 0 1 0-3.5 0 1.75 1.75 0 0 0 3.5 0"/></svg>