<svg xmlns="http://www.w3.org/2000/svg" viewBox="0 0 16 16"><path fill-rule="evenodd" d="M13.411 3.338a3.7 3.7 0 0 0-1.279-1.635 3.75 3.75 0 0 0-1.962-.696 3.83 3.83 0 0 0-3.742 2.318 3.64 3.64 0 0 0-2.791 3.62l-1.72 1.968c-.296.339-.444.78-.413 1.227l.1 1.408a1.696 1.696 0 0 0 1.813 1.568l3.033-.21-.093-1.332 1.338-.093-.07-1q.516-.048.979-.226l.025.01 1.213 3.317c.098.266.297.482.555.602l1.543.716a1.075 1.075 0 0 0 1.426-.517l1.134-2.419-1.459-.677.68-1.451-1.196-.555a3.4 3.4 0 0 0 .728-2.828c.17-.329.292-.682.36-1.05a3.73 3.73 0 0 0-.202-2.065m-1.36 1.122A2.12 2.12 0 0 0 11.189 3a2.13 2.13 0 0 0-1.117-.395 2.2 2.2 0 0 0-1.79.752c.332.093.646.232.934.41a3.42 3.42 0 0 1 2.835.692m-5.905.713c.062.62.279 1.214.632 1.73a.81.81 0 0 0 1.119.21.8.8 0 0 0 .21-1.114 2.1 2.1 0 0 1-.369-1.124v-.002a2.04 2.04 0 0 1 1.594 1.844A2.04 2.04 0 0 1 7.434 8.89a2 2 0 0 1-.525-.03l-1.026-.194.094 1.329-1.339.093.094 1.331-1.428.1a.09.09 0 0 1-.095-.083L3.11 10.03a.1.1 0 0 1 .022-.065l2.176-2.49-.046-.356-.011-.117a2.03 2.03 0 0 1 .895-1.828"/></svg>