<svg xmlns="http://www.w3.org/2000/svg" viewBox="0 0 44 44"><path fill-rule="evenodd" d="M36.252 9.784a9.2 9.2 0 0 0-3.204-4.045 9.47 9.47 0 0 0-4.917-1.722 9.66 9.66 0 0 0-5.115 1.119 9.55 9.55 0 0 0-3.758 3.606 9.4 9.4 0 0 0-.632 1.304c-4.172 1.014-7.143 4.813-6.93 9.154l-4.73 5.346a3.83 3.83 0 0 0-.956 2.81l.263 3.7c.152 2.132 2.034 3.74 4.205 3.59l7.492-.514-.249-3.5 3.563-.245-.187-2.634a9.5 9.5 0 0 0 2.058-.289l.215.088 3.23 8.72c.26.699.791 1.269 1.478 1.583l4.106 1.881c1.43.656 3.13.048 3.797-1.357L39 32.019l-3.884-1.78 1.811-3.817-3.185-1.459a9 9 0 0 0 1.252-1.943 8.77 8.77 0 0 0 .727-5.273 9.3 9.3 0 0 0 1.038-2.848 9.14 9.14 0 0 0-.507-5.115m-2.463 3.786a6.11 6.11 0 0 0-2.567-5.348 6.3 6.3 0 0 0-3.28-1.148 6.5 6.5 0 0 0-5.737 2.807 9.2 9.2 0 0 1 2.343.673 9.22 9.22 0 0 1 6.041.575 9.05 9.05 0 0 1 3.2 2.44m-15.8-.027q0 .1.005.199a9.1 9.1 0 0 0 1.625 4.878 1.576 1.576 0 0 0 2.166.401c.711-.477.894-1.43.409-2.128a6.1 6.1 0 0 1-1.063-4.042c3.01.142 5.504 2.478 5.72 5.505.232 3.264-2.274 6.095-5.596 6.324a6.2 6.2 0 0 1-1.549-.088l-1.985-.37.236 3.323-3.563.245.25 3.5-4.384.302a.82.82 0 0 1-.878-.75l-.263-3.7a.8.8 0 0 1 .2-.587l5.62-6.353-.087-.68a6 6 0 0 1-.034-.34c-.171-2.402 1.141-4.57 3.17-5.639"/></svg>