<svg xmlns="http://www.w3.org/2000/svg" viewBox="0 0 24 24"><path fill-rule="evenodd" d="M19.711 5.275a5.2 5.2 0 0 0-1.794-2.29 5.26 5.26 0 0 0-2.752-.975 5.37 5.37 0 0 0-5.347 3.493c-2.24.618-3.827 2.696-3.746 5.075L3.567 13.44a2.3 2.3 0 0 0-.561 1.668l.142 2.02a2.31 2.31 0 0 0 2.469 2.134l4.231-.294-.135-1.911 1.924-.134-.101-1.434.016-.001a5 5 0 0 0 1.05-.182l1.705 4.657c.14.382.427.693.797.865l2.217 1.027c.772.358 1.69.026 2.05-.741L21 17.642l-2.097-.971.978-2.084-1.72-.796a4.9 4.9 0 0 0 1.098-3.748 5.3 5.3 0 0 0 .736-1.873 5.23 5.23 0 0 0-.284-2.895M18.023 7.38a3.2 3.2 0 0 0-.223-1.35 3.15 3.15 0 0 0-1.087-1.389 3.2 3.2 0 0 0-1.673-.592 3.3 3.3 0 0 0-1.756.39 3.3 3.3 0 0 0-1.11.97c.466.09.91.243 1.324.45a4.9 4.9 0 0 1 2.962.379 4.9 4.9 0 0 1 1.563 1.142m-8.504.474c.088.866.39 1.698.886 2.418.32.466.96.586 1.429.268s.59-.954.27-1.42a3.17 3.17 0 0 1-.555-1.74 3.06 3.06 0 0 1 2.706 2.816 3.056 3.056 0 0 1-2.847 3.255 3 3 0 0 1-.788-.046l-1.31-.246.132 1.869-1.923.134.134 1.91-2.18.152a.257.257 0 0 1-.274-.237l-.142-2.02a.25.25 0 0 1 .063-.186l3.089-3.53-.058-.454a3.04 3.04 0 0 1 1.368-2.943"/></svg>