<svg xmlns="http://www.w3.org/2000/svg" viewBox="0 0 16 16"><path d="M2.467 2.468c-.364.365-.391.728-.445 1.455a8 8 0 0 0 0 1.155c.054.726.08 1.09.445 1.455.365.364.729.391 1.456.446a8 8 0 0 0 1.154 0c.727-.055 1.09-.082 1.455-.446.365-.365.392-.729.446-1.455a8 8 0 0 0 0-1.155c-.054-.727-.081-1.09-.446-1.455s-.728-.392-1.455-.446a8 8 0 0 0-1.154 0c-.727.054-1.09.081-1.456.446m7.002 0c-.365.365-.392.728-.446 1.455a8 8 0 0 0 0 1.154c.054.727.081 1.09.446 1.455s.728.392 1.455.446a8 8 0 0 0 1.154 0c.727-.054 1.09-.08 1.455-.445s.392-.729.446-1.456a8 8 0 0 0 0-1.154c-.054-.727-.081-1.09-.446-1.455s-.728-.392-1.455-.446a8 8 0 0 0-1.154 0c-.727.054-1.09.081-1.455.446m-.446 8.455c.054-.727.08-1.09.446-1.455.364-.365.728-.392 1.454-.446a8 8 0 0 1 1.154 0c.727.054 1.09.081 1.455.446s.392.728.446 1.455a8 8 0 0 1 0 1.154c-.054.726-.081 1.09-.446 1.454-.365.365-.728.392-1.455.446a8 8 0 0 1-1.154 0c-.726-.054-1.09-.08-1.454-.446-.365-.364-.392-.728-.446-1.454a8 8 0 0 1 0-1.154M2.469 9.468c-.365.365-.392.728-.446 1.455a8 8 0 0 0 0 1.154c.054.726.081 1.09.446 1.454.365.365.728.392 1.455.446a8 8 0 0 0 1.153 0c.727-.054 1.09-.08 1.455-.446.365-.364.392-.728.446-1.454a8 8 0 0 0 0-1.154c-.054-.727-.081-1.09-.446-1.455-.364-.365-.728-.392-1.455-.446a8 8 0 0 0-1.153 0c-.727.054-1.09.081-1.455.446"/></svg>