<svg xmlns="http://www.w3.org/2000/svg" viewBox="0 0 24 24"><path d="M4.654 4.656c-.51.51-.549 1.02-.624 2.037q-.031.398-.032.808.001.41.032.808c.075 1.017.113 1.526.624 2.037.51.51 1.02.548 2.037.624q.398.031.808.032.41-.001.808-.032c1.017-.076 1.526-.113 2.037-.624.51-.51.549-1.02.624-2.037.02-.264.032-.536.032-.808q-.001-.41-.032-.808c-.075-1.018-.113-1.526-.624-2.037-.51-.51-1.02-.549-2.037-.624C8.043 4.012 7.77 4 7.499 4q-.41.001-.808.032c-1.018.075-1.526.113-2.037.624m9.002 0c-.51.51-.549 1.02-.625 2.037q-.03.398-.031.808.001.41.031.808c.076 1.017.114 1.526.625 2.037.51.51 1.02.548 2.037.624.264.02.536.032.808.032s.544-.012.808-.032c1.017-.076 1.526-.113 2.037-.624.51-.51.548-1.02.624-2.037.02-.264.032-.536.032-.808q-.001-.41-.032-.808c-.076-1.018-.113-1.526-.624-2.037-.51-.51-1.02-.549-2.037-.624A11 11 0 0 0 16.5 4c-.272 0-.544.012-.808.032-1.018.075-1.527.113-2.037.624m-.623 11.036c.075-1.017.113-1.526.624-2.036.51-.51 1.019-.549 2.036-.625a11 11 0 0 1 1.616 0c1.017.076 1.526.114 2.036.625.51.51.549 1.019.624 2.036.02.264.032.536.032.808s-.012.544-.032.808c-.075 1.017-.113 1.526-.624 2.036-.51.51-1.019.549-2.036.624-.264.02-.536.032-.808.032s-.544-.012-.808-.032c-1.017-.075-1.526-.113-2.036-.624-.51-.51-.549-1.019-.625-2.036a11 11 0 0 1 0-1.616m-8.375-2.036c-.51.51-.549 1.019-.624 2.036-.02.264-.032.536-.032.808s.012.544.032.808c.075 1.017.113 1.526.624 2.037.51.51 1.019.548 2.036.624q.398.03.808.031.41-.001.808-.031c1.017-.076 1.526-.114 2.037-.624.51-.511.548-1.02.624-2.037a11 11 0 0 0 0-1.616c-.076-1.017-.114-1.526-.624-2.036-.511-.51-1.02-.549-2.037-.625Q7.91 13.001 7.5 13q-.41.001-.808.031c-1.017.076-1.526.114-2.036.625"/></svg>