<svg xmlns="http://www.w3.org/2000/svg" viewBox="0 0 16 16"><path d="M8 4.5c-1.214 0-2.242.055-3.082.13-.7.063-1.016.098-1.263.173-.397.12-.809.51-.938.907-.067.207-.099.47-.16 1.111a12.4 12.4 0 0 0 0 2.359c.061.64.093.903.16 1.11.13.397.54.787.938.907.247.075.564.11 1.263.173.67.06 1.46.113 2.368.13.452 0 .714.348.714.75 0 .498-.34.75-.868.75a34 34 0 0 1-2.349-.136c-1.3-.117-1.95-.176-2.75-.971-.8-.796-.857-1.388-.97-2.571a14 14 0 0 1 0-2.643c.113-1.184.17-1.776.97-2.571s1.45-.855 2.75-.972A36 36 0 0 1 8 3c1.259 0 2.332.057 3.216.136 1.143.103 1.784.16 2.466.714.117.095.237.19.318.322a.75.75 0 0 1-1.165.927c-.204-.188-.343-.251-.49-.296-.247-.075-.564-.11-1.263-.173-.84-.075-1.869-.13-3.082-.13"/><path fill-rule="evenodd" d="M8.003 7.807a1.16 1.16 0 0 1 .588-.952c.134-.079.31-.157.514-.247.633-.276 1.554-.604 2.395-.604.84 0 1.761.328 2.394.604.205.09.38.168.514.248a1.17 1.17 0 0 1 .588.951 5 5 0 0 1-.01.581c-.072 1.306-.338 2.649-1.244 3.776a4.5 4.5 0 0 1-.96.867c-.371.248-.832.469-1.282.469s-.912-.221-1.283-.47a4.5 4.5 0 0 1-.96-.866c-.906-1.127-1.172-2.47-1.244-3.776a5 5 0 0 1-.01-.581m3.047 3.977q.197.129.331.18c.07.028.11.034.119.036a.6.6 0 0 0 .118-.036q.133-.051.33-.18a3 3 0 0 0 .625-.56c.617-.768.85-1.738.915-2.918l.011-.232-.205-.09c-.594-.26-1.278-.48-1.794-.48-.517 0-1.201.22-1.795.48q-.126.054-.205.09l.011.232c.065 1.18.298 2.15.915 2.918.133.165.366.387.624.56"/><path d="M5.9 7a.9.9 0 1 1-1.8 0 .9.9 0 0 1 1.8 0"/></svg>