<svg xmlns="http://www.w3.org/2000/svg" viewBox="0 0 16 16"><path fill-rule="evenodd" d="M4.783 3.137C5.668 3.057 6.741 3 8 3s2.332.057 3.216.137c1.3.117 1.951.175 2.751.97.691.688.828 1.224.925 2.12l-.03-.013c-.697-.306-1.802-.714-2.864-.714s-2.167.408-2.864.714l-.065.028c-.337.146-.911.394-1.26.95a2 2 0 0 0-.301.944c-.017.225-.004.484.01.72.073 1.345.333 2.828 1.233 4.137Q8.387 13 8 13c-1.26 0-2.332-.057-3.217-.136-1.3-.117-1.95-.176-2.75-.971-.8-.796-.857-1.388-.97-2.571a14 14 0 0 1 0-2.643c.113-1.184.17-1.775.97-2.571s1.45-.854 2.75-.971M4.5 8a1 1 0 1 0 0-2 1 1 0 0 0 0 2"/><path d="M11.998 7c-.737 0-1.604.3-2.262.588-.427.187-.574.27-.656.4a.5.5 0 0 0-.076.256c-.009.113-.003.275.011.53.073 1.341.342 2.537 1.168 3.57.199.249.514.546.86.779.356.238.697.377.955.377s.599-.139.954-.377a4 4 0 0 0 .86-.778c.827-1.034 1.095-2.23 1.168-3.57.014-.256.02-.418.012-.53a.5.5 0 0 0-.267-.435 5 5 0 0 0-.465-.222C13.602 7.3 12.735 7 11.998 7"/></svg>