<svg xmlns="http://www.w3.org/2000/svg" viewBox="0 0 24 24"><path d="M12 6c-1.491 0-2.786.066-3.882.16-1.078.094-1.602.15-2.022.279-.76.234-1.52.98-1.756 1.742-.123.393-.173.879-.26 1.916a23 23 0 0 0 0 3.808c.087 1.037.137 1.522.26 1.915.09.289.238.584.696 1.044.447.449.748.602 1.06.698.42.13.943.185 2.022.278.966.084 2.086.149 3.36.162a1 1 0 1 1-.15 1.994 46 46 0 0 1-3.383-.163c-2.024-.176-3.036-.264-4.326-1.558-1.29-1.293-1.37-2.264-1.532-4.204a25 25 0 0 1 0-4.14C2.25 7.99 2.33 7.018 3.62 5.725s2.302-1.382 4.326-1.558C9.098 4.068 10.45 4 12 4s2.902.068 4.055.168c2.025.176 3.037.264 4.327 1.558.308.309.545.6.732.89a1 1 0 0 1-.85 1.526.98.98 0 0 1-.623-.24 3 3 0 0 1-.39-.43c-.092-.116-.184-.232-.286-.334-.447-.45-.747-.603-1.06-.7-.421-.129-.944-.184-2.024-.277a45 45 0 0 0-3.88-.16"/><path d="M8 11.25a1.25 1.25 0 1 0 0-2.5 1.25 1.25 0 0 0 0 2.5"/><path fill-rule="evenodd" d="M15.175 19.31c.533.367 1.189.69 1.825.69.637 0 1.293-.323 1.826-.69a6.5 6.5 0 0 0 1.373-1.278c1.292-1.658 1.676-3.649 1.779-5.59l.004-.087c.03-.524.06-1.068-.225-1.534-.283-.463-.772-.683-1.248-.897l-.054-.024c-.917-.412-2.246-.9-3.454-.9-1.21 0-2.538.488-3.455.9l-.053.024c-.477.214-.966.434-1.249.897-.284.466-.254 1.01-.225 1.534l.004.086c.104 1.942.487 3.933 1.78 5.59.328.423.825.902 1.372 1.279m3.446-2.507c-.348.446-1.003 1.124-1.621 1.197-.617-.073-1.273-.751-1.62-1.197-1.061-1.362-1.378-3.219-1.378-4.91.92-.449 1.96-.893 2.998-.893s2.078.444 2.999.893c-.036 1.705-.302 3.529-1.378 4.91"/></svg>