<svg xmlns="http://www.w3.org/2000/svg" viewBox="0 0 24 24"><path fill-rule="evenodd" d="M7.945 4.168C9.098 4.068 10.45 4 12 4s2.902.068 4.055.168c2.025.176 3.037.264 4.327 1.558 1.098 1.102 1.32 1.97 1.461 3.403l-.077-.034-.058-.026C20.673 8.607 19.051 8 17.501 8s-3.173.607-4.208 1.069l-.058.026-.068.03c-.48.212-1.273.563-1.75 1.337-.48.78-.43 1.657-.4 2.179l.005.074.005.093c.117 2.198.56 4.616 2.169 6.663q.195.248.44.504Q12.857 20 12 20a47 47 0 0 1-4.055-.168c-2.024-.176-3.036-.264-4.326-1.558-1.29-1.293-1.37-2.264-1.532-4.204a25 25 0 0 1 0-4.14c.163-1.94.243-2.912 1.533-4.205s2.302-1.382 4.326-1.558M8.398 10a1.398 1.398 0 1 1-2.796 0 1.398 1.398 0 0 1 2.796 0"/><path d="M14.048 10.922c-.58.258-.806.39-.928.589-.122.197-.137.46-.102 1.094l.006.096c.109 2.038.51 3.963 1.744 5.534a6 6 0 0 0 1.288 1.186c.531.363 1.047.579 1.444.579s.913-.216 1.445-.579a6.1 6.1 0 0 0 1.288-1.186c1.234-1.57 1.635-3.496 1.744-5.534l.006-.096c.035-.635.02-.897-.102-1.094-.122-.199-.349-.331-.928-.59l-.06-.026C19.91 10.457 18.61 10 17.5 10s-2.41.457-3.392.895z"/></svg>