<svg xmlns="http://www.w3.org/2000/svg" viewBox="0 0 16 16"><path fill-rule="evenodd" d="M2.165 11.694A39 39 0 0 1 2 8c0-1.495.072-2.727.165-3.694.108-1.13.163-1.695.818-2.368s1.15-.732 2.14-.853A11 11 0 0 1 6.5 1c.49 0 .952.033 1.377.085.99.12 1.485.181 2.14.853.655.673.71 1.238.818 2.368C10.928 5.272 11 6.505 11 8q0 .965-.036 1.782l-.123-.123a2.25 2.25 0 1 0-3.182 3.182l1.72 1.72c-.41.22-.848.274-1.501.354a11.4 11.4 0 0 1-2.756 0c-.99-.121-1.485-.182-2.14-.854-.654-.672-.709-1.237-.817-2.367M5 4.25a.75.75 0 0 1 .75-.75h1.5a.75.75 0 0 1 0 1.5h-1.5A.75.75 0 0 1 5 4.25"/><path d="M15.28 10.28a.75.75 0 1 0-1.06-1.06l-2.97 2.97-1.47-1.47a.75.75 0 0 0-1.06 1.06l2 2a.75.75 0 0 0 1.06 0z"/></svg>