<svg xmlns="http://www.w3.org/2000/svg" viewBox="0 0 32 32"><path fill-rule="evenodd" d="M5.134 3.366a1.25 1.25 0 1 0-1.768 1.768l6.232 6.232c-.1.508-.1 1.171-.1 2.299l.005 12.085a1.25 1.25 0 1 0 2.5 0v-5.248h6.527l.203-.001 8.133 8.133a1.25 1.25 0 0 0 1.768-1.768zm11.1 14.636-4.236-4.236v4.236z"/><path d="M22.498 14.562c0 .737-.232 1.422-.648 1.984l1.78 1.78a5.74 5.74 0 0 0 1.368-3.764c0-3.481-2.837-6.04-6.319-6.06h-4.018c-.32 0-.601 0-.853.002l2.498 2.498h2.359c2.264.013 3.833 1.606 3.833 3.56"/></svg>