<svg xmlns="http://www.w3.org/2000/svg" viewBox="0 0 24 24"><path fill-rule="evenodd" d="M11.01 3.002a1 1 0 0 1-.913 1.08c-1.04.086-1.524.136-1.917.258a2 2 0 0 0-.242.093 1 1 0 1 1-.84-1.815q.248-.114.487-.187c.648-.202 1.377-.262 2.344-.343h.002a1 1 0 0 1 1.08.914m1.976 0a1 1 0 0 1 1.08-.914h.002c.967.08 1.696.141 2.343.343q.24.073.487.187a1 1 0 0 1-.84 1.815 2 2 0 0 0-.242-.093c-.393-.122-.877-.172-1.917-.259a1 1 0 0 1-.913-1.08M5.373 6.006a1 1 0 0 1 .882 1.105c-.031.283-.06.61-.095 1.01q-.077.874-.121 1.92a1 1 0 0 1-1.999-.082q.046-1.09.127-2.012.05-.591.1-1.058a1 1 0 0 1 1.106-.883m13.251 0a1 1 0 0 1 1.105.883q.05.467.1 1.058.082.921.127 2.012a1 1 0 1 1-1.998.082 42 42 0 0 0-.121-1.92 43 43 0 0 0-.096-1.01 1 1 0 0 1 .883-1.105M4.999 13.004a1 1 0 0 1 1.04.958q.043 1.045.12 1.92c.035.398.064.724.096 1.007a1 1 0 0 1-1.988.222 45 45 0 0 1-.1-1.056 44 44 0 0 1-.127-2.012 1 1 0 0 1 .96-1.04m13.999 0a1 1 0 0 1 .958 1.04q-.046 1.09-.127 2.011-.05.591-.1 1.056a1 1 0 0 1-1.987-.222c.031-.283.06-.609.095-1.006.05-.584.093-1.225.12-1.92a1 1 0 0 1 1.04-.96M6.61 20.058a1 1 0 0 1 1.327-.488q.114.052.242.092c.393.123.878.173 1.917.26a1 1 0 1 1-.166 1.993c-.968-.081-1.696-.142-2.344-.343q-.24-.073-.486-.187a1 1 0 0 1-.488-1.327m10.775 0a1 1 0 0 1-.488 1.327 4 4 0 0 1-.487.187c-.647.201-1.376.262-2.343.343h-.003a1 1 0 1 1-.166-1.993c1.04-.087 1.524-.137 1.917-.26q.129-.04.242-.092a1 1 0 0 1 1.328.488"/></svg>