<svg xmlns="http://www.w3.org/2000/svg" viewBox="0 0 16 16"><path d="M3.185 10.503c.064-.211.147-.423.248-.648.251-.56.754-1.114 1.149-1.49q.067-.066.142-.133a3.5 3.5 0 0 1 1.745-4.38Q6.5 3.68 6.5 3.5v-.041c0-.823-.52-1.528-1.257-1.816a2 2 0 0 0-1.486 0A1.96 1.96 0 0 0 2.5 3.459V3.5c0 .668.328 1.26.832 1.623l-.15.059c-.583.233-1.625 1.227-1.878 1.79-.278.617-.29.887-.304 1.427 0 .101.001.532.003.797.006.803.68 1.307 1.484 1.307zm9.626 0h.7c.804 0 1.483-.504 1.49-1.307V8.4c-.015-.54-.03-.81-.306-1.426-.253-.564-1.295-1.558-1.878-1.791l-.15-.058a2 2 0 0 0 .83-1.744 1.96 1.96 0 0 0-1.162-1.698 2 2 0 0 0-1.498-.07A1.96 1.96 0 0 0 9.501 3.57q.006.144.03.283a3.5 3.5 0 0 1 1.745 4.383l.139.13c.395.376.897.93 1.148 1.49.101.225.184.437.248.648M6 7a2 2 0 1 1 4 0 2.02 2.02 0 0 1-.828 1.62l.149.058c.174.07.42.232.643.406.16.127.324.272.478.423l.01.009c.336.33.628.689.747.953.277.617.284.887.297 1.427q.004.146.004.291v.506c-.007.803-.681 1.307-1.484 1.307H5.985c-.803 0-1.477-.504-1.484-1.307v-.506q0-.146.003-.291c.014-.54.02-.81.298-1.427.118-.264.41-.623.747-.953l.009-.009c.155-.151.318-.296.479-.423.223-.174.468-.336.643-.406l.148-.057A2.02 2.02 0 0 1 6 7"/></svg>