<svg xmlns="http://www.w3.org/2000/svg" viewBox="0 0 24 24"><path fill-rule="evenodd" d="M8.112 3.102c1.031-.121 1.547-.182 1.973.101.425.284.585.825.904 1.906l.427 1.45c.91-1.685 2.324-3.443 4.584-3.4q.444.006.932.113c2.994.658 3.723 2.779 3.966 4.84.121 1.032.182 1.547-.101 1.973s-.825.585-1.907.904l-1.45.428c1.907 1.03 3.906 2.703 3.288 5.516-.658 2.993-2.779 3.723-4.84 3.965-1.032.122-1.547.182-1.973-.1-.426-.284-.585-.825-.904-1.907l-.428-1.45c-1.03 1.906-2.703 3.906-5.516 3.288-2.993-.658-3.723-2.78-3.966-4.841-.12-1.031-.182-1.547.102-1.973.283-.425.824-.585 1.906-.904l1.45-.427C4.653 11.554 2.653 9.88 3.27 7.068c.658-2.994 2.78-3.724 4.84-3.966"/></svg>