<svg xmlns="http://www.w3.org/2000/svg" viewBox="0 0 16 16"><path fill-rule="evenodd" d="M7.472 5.699a1.33 1.33 0 0 1-1.14-.949l-.285-.967a22 22 0 0 0-.13-.43c-.098.01-.21.023-.353.04-.61.07-1.056.2-1.375.415-.271.183-.553.496-.706 1.19-.117.532.004.892.237 1.208.27.368.722.705 1.286 1.01a1.333 1.333 0 0 1-.257 2.452l-.966.285a23 23 0 0 0-.431.13c.01.098.023.21.04.353.071.61.2 1.056.415 1.375.183.271.496.553 1.19.706.533.117.893-.004 1.209-.237.368-.27.705-.722 1.01-1.286a1.333 1.333 0 0 1 2.452.257l.285.966c.052.177.092.314.13.431l.353-.04c.609-.072 1.056-.2 1.374-.415.272-.183.554-.496.706-1.19.117-.533-.004-.893-.236-1.209-.27-.368-.723-.705-1.287-1.01a1.333 1.333 0 0 1 .257-2.452l.967-.285c.177-.052.314-.092.43-.13-.01-.097-.022-.21-.04-.353-.07-.609-.2-1.055-.415-1.374-.182-.271-.496-.554-1.19-.706a2 2 0 0 0-.36-.045c-.688-.013-1.282.502-1.858 1.568a1.33 1.33 0 0 1-1.312.692m-.749-3.563c.169.112.275.285.378.56.07.186.139.418.225.71l.285.967c.25-.463.557-.935.938-1.327l.047-.048c.534-.533 1.21-.909 2.07-.892q.297.005.622.075c1.996.44 2.482 1.853 2.644 3.227.08.688.121 1.032-.068 1.316-.112.168-.285.274-.558.377-.186.07-.42.14-.712.225l-.967.285c.463.25.935.558 1.327.938l.048.047c.656.658 1.072 1.529.817 2.693-.439 1.995-1.853 2.482-3.227 2.643-.688.081-1.032.122-1.315-.067-.17-.113-.275-.285-.378-.559-.07-.186-.139-.42-.225-.712l-.285-.966c-.25.463-.558.934-.938 1.326l-.047.048c-.524.524-1.185.894-2.021.893q-.318.001-.672-.076c-1.995-.439-2.482-1.852-2.643-3.227-.081-.687-.122-1.031.067-1.315.112-.169.285-.275.558-.378.187-.07.42-.139.713-.225l.966-.285c-.463-.25-.934-.557-1.326-.938l-.048-.047c-.657-.657-1.073-1.528-.817-2.692.439-1.996 1.852-2.482 3.227-2.644.687-.08 1.031-.121 1.315.068"/></svg>