<svg xmlns="http://www.w3.org/2000/svg" viewBox="0 0 24 24"><path fill-rule="evenodd" d="M11.208 8.548a2 2 0 0 1-1.71-1.423l-.428-1.45a34 34 0 0 0-.194-.647c-.147.015-.317.035-.53.06-.914.108-1.584.3-2.062.623-.407.275-.83.745-1.06 1.786-.175.798.007 1.338.356 1.812.406.552 1.083 1.058 1.93 1.515a2 2 0 0 1-.386 3.678l-1.45.428c-.265.078-.47.139-.646.194.015.147.035.317.06.53.107.914.3 1.584.623 2.062.274.407.744.83 1.786 1.06.798.175 1.338-.007 1.812-.356.552-.406 1.058-1.083 1.515-1.93a2 2 0 0 1 3.678.386l.427 1.45c.078.265.14.47.195.646.146-.015.316-.035.53-.06.913-.107 1.583-.3 2.062-.623.406-.274.83-.744 1.059-1.786.175-.798-.006-1.338-.355-1.812-.406-.552-1.084-1.058-1.93-1.515a2 2 0 0 1 .385-3.678l1.45-.427c.265-.078.471-.14.647-.195l-.06-.53c-.108-.913-.3-1.583-.623-2.062-.275-.407-.745-.83-1.786-1.059a3 3 0 0 0-.54-.067c-1.031-.02-1.923.753-2.787 2.352a2 2 0 0 1-1.968 1.038m9.589 1.537c-.169.253-.428.412-.838.566-.28.106-.63.209-1.069.338l-1.45.428c.696.375 1.403.836 1.991 1.407l.072.07c.984.986 1.609 2.293 1.225 4.039-.658 2.993-2.779 3.723-4.84 3.965-1.032.122-1.547.182-1.973-.1-.253-.17-.412-.429-.566-.838a17 17 0 0 1-.338-1.069l-.428-1.45c-.375.695-.836 1.402-1.407 1.99l-.07.072c-.986.985-2.293 1.61-4.039 1.226-2.993-.658-3.723-2.78-3.966-4.841-.12-1.031-.182-1.547.102-1.973.168-.253.428-.412.837-.566.28-.105.63-.209 1.069-.338l1.45-.427c-.695-.376-1.402-.837-1.99-1.407l-.072-.07c-.985-.987-1.61-2.294-1.226-4.04.658-2.993 2.78-3.723 4.84-3.965 1.032-.121 1.548-.182 1.974.101.253.169.412.429.567.84.105.28.208.628.337 1.066l.427 1.45c.376-.695.837-1.402 1.407-1.99l.07-.072c.803-.8 1.817-1.363 3.107-1.339q.444.007.932.114c2.994.658 3.723 2.779 3.966 4.84.121 1.032.182 1.547-.101 1.973"/></svg>