<svg xmlns="http://www.w3.org/2000/svg" viewBox="0 0 24 24"><path fill-rule="evenodd" d="M2.255 14.352c.306-1.023 1.71-2.641 2.912-3.494A4.5 4.5 0 0 1 12 5.146a4.5 4.5 0 0 1 6.834 5.712c1.201.853 2.604 2.471 2.91 3.493.255.853.255.951.255 1.149 0 1.398 0 2.097-.228 2.648a3 3 0 0 1-1.624 1.624C19.597 20 18.898 20 17.5 20h-11c-1.398 0-2.097 0-2.648-.228a3 3 0 0 1-1.624-1.624C2 17.597 2 16.898 2 15.5c0-.197 0-.296.255-1.149M15.826 18H17.5c.726 0 1.17-.001 1.505-.024.284-.02.37-.049.378-.052a1 1 0 0 0 .54-.541c.004-.008.034-.094.053-.378.095-1.392 0-2.133-.88-3.174-.573-.68-1.25-1.219-1.959-1.749-.62-.464-1.137-.85-1.137-1.076 0-.188.194-.35.442-.558.383-.32.896-.75 1.026-1.548a2.5 2.5 0 0 0 .032-.4 2.5 2.5 0 0 0-4.332-1.7c.214.524.332 1.098.332 1.7 0 .865-.244 1.672-.666 2.358 1.202.853 2.605 2.471 2.91 3.493.256.853.256.951.256 1.149 0 1.276 0 1.97-.174 2.5m-5.384-7.552c.383-.32.896-.75 1.027-1.548a2.5 2.5 0 0 0 .031-.4 2.5 2.5 0 1 0-4.96.453c.145.765.643 1.181 1.018 1.495.248.207.442.37.442.558 0 .225-.517.612-1.137 1.076-.709.53-1.386 1.07-1.96 1.75-.878 1.04-.974 1.78-.88 3.173.02.284.05.37.053.378a1 1 0 0 0 .541.54c.009.004.094.034.378.053C5.329 18 5.774 18 6.5 18h5c.726 0 1.17-.001 1.505-.024.284-.02.37-.049.378-.052a1 1 0 0 0 .54-.541c.004-.008.034-.094.053-.378.095-1.392 0-2.133-.88-3.174-.573-.68-1.25-1.219-1.959-1.749-.62-.464-1.137-.85-1.137-1.076 0-.188.194-.35.442-.558"/></svg>