<svg xmlns="http://www.w3.org/2000/svg" viewBox="0 0 24 24"><path fill-rule="evenodd" d="M19.339 7.413c.148-.22.257-.494.267-.827.024-.727-.428-1.187-.752-1.446-.316-.252-.76-.51-1.232-.784l-.353-.205c-.337-.195-.675-.392-.972-.509-.331-.13-.802-.241-1.298.002s-.718.693-.836 1.044c-.105.314-.18.712-.254 1.11l-.078.416c-.104.557-.202 1.08-.221 1.496-.02.425.023 1.078.558 1.527-.193.42-.363.81-.463 1.141-.125.415-.253 1.093.194 1.683q.159.208.348.331c-.243.464-.463.895-.593 1.259-.144.406-.302 1.069.109 1.68.41.61 1.056.676 1.469.668.407-.007.924-.096 1.48-.192l.288-.05V17a1 1 0 1 0 2 0v-1.588l.79-.136c.555-.095 1.072-.184 1.46-.314.393-.132.986-.41 1.19-1.127.202-.717-.148-1.292-.408-1.629-.258-.332-.644-.704-1.059-1.104l-.079-.076a1.5 1.5 0 0 0 .396-.745c.157-.736-.238-1.287-.523-1.603-.282-.314-.698-.66-1.146-1.03zm-3.46-1.782-.01.045c-.032.155-.066.337-.11.565l-.054.29c-.076.408-.13.707-.164.936a.93.93 0 0 1 .748.335c.255.302.311.735.144 1.098l-.387.835c-.167.363-.293.638-.385.856a.93.93 0 0 1 .863.41c.213.313.237.727.06 1.064l-.568 1.086c-.181.345-.318.609-.419.817.22-.03.502-.077.873-.141l2.947-.508c.37-.064.652-.114.87-.16a29 29 0 0 0-.645-.634l-1.07-1.032a1.03 1.03 0 0 1-.278-.978.98.98 0 0 1 .686-.724l.111-.03c-.172-.153-.4-.343-.698-.59l-1.183-.982a1.02 1.02 0 0 1-.357-.882 1 1 0 0 1 .515-.792l.016-.008c-.182-.115-.42-.254-.736-.437l-.247-.143a21 21 0 0 0-.482-.275z"/><path d="m7.282 7.04-.048-.012a1.01 1.01 0 0 0-1.2.716 1.01 1.01 0 0 0 .688 1.217 9 9 0 0 0 .4.14c.261.098.6.24.931.414.34.18.625.37.812.554l.042.043q-.134.07-.348.159c-.45.185-1.006.362-1.637.562l-.712.228c-.876.286-1.852.629-2.616 1.077C2.881 12.556 2 13.273 2 14.42c0 1.515.911 2.896 1.65 3.79a12.6 12.6 0 0 0 1.518 1.537l.037.03c.43.348 1.066.286 1.413-.144a1.01 1.01 0 0 0-.15-1.412l-.028-.022-.068-.054a10.6 10.6 0 0 1-1.181-1.21C4.509 16.109 4 15.195 4 14.419c0-.01 0-.051.075-.144.09-.109.256-.25.53-.41.557-.327 1.341-.614 2.225-.901l.232-.075c-.162.3-.262.656-.262 1.072 0 .501.206.944.426 1.285.227.353.528.689.85.998.644.62 1.476 1.231 2.27 1.76a37 37 0 0 0 3.118 1.85l.066.034a1.01 1.01 0 0 0 1.358-.423 1.01 1.01 0 0 0-.436-1.352l-.055-.03-.19-.1a37 37 0 0 1-2.753-1.645c-.756-.503-1.474-1.038-1.992-1.536a3.8 3.8 0 0 1-.555-.64c-.084-.13-.103-.198-.107-.212v-.001c.002-.093.022-.14.13-.229.171-.139.431-.258.865-.445l.049-.02c.364-.157.876-.377 1.286-.71.487-.395.87-.978.87-1.794 0-.85-.467-1.499-.95-1.94-.484-.445-1.09-.783-1.633-1.033a12.3 12.3 0 0 0-2.135-.739"/></svg>