<svg xmlns="http://www.w3.org/2000/svg" viewBox="0 0 44 44"><path d="M26.296 6.59c-.597.283-.754 1.09-1.067 2.705l-.458 2.359c-.43 2.22-.646 3.33-.02 3.826.424.337 1.025.227 1.997-.177l-1.31 2.734c-1.028 2.142-1.541 3.213-1.033 3.861.41.524 1.237.45 2.749.122l-1.778 3.273c-1.119 2.06-1.678 3.09-1.21 3.761s1.612.482 3.9.101l2.932-.487V31.5a1.5 1.5 0 0 0 3 0v-3.33l2.8-.467c2.289-.38 3.433-.57 3.665-1.358s-.623-1.583-2.332-3.173l-3.18-2.958c1.82-.43 2.747-.72 2.907-1.44.18-.808-.743-1.545-2.587-3.02l-3.5-2.8c1.471-.71 2.21-1.159 2.232-1.846.028-.806-.95-1.352-2.902-2.445L29.025 7.5c-1.421-.795-2.132-1.193-2.729-.91"/><path d="m12.255 16.002-.22-.076a1.5 1.5 0 0 1 .818-2.883l.008.002a28 28 0 0 1 1.334.38c.785.245 1.846.612 2.919 1.095 1.057.475 2.206 1.098 3.114 1.881.885.764 1.77 1.883 1.77 3.349 0 1.386-.674 2.358-1.515 3.014-.727.566-1.641.942-2.332 1.227l-.081.033c-.801.33-1.343.566-1.712.854-.284.22-.36.383-.36.647 0 0 0 .042.034.135.035.095.097.225.203.39.215.337.555.738 1.024 1.19.936.905 2.225 1.865 3.57 2.761a61 61 0 0 0 3.69 2.255c.504.286.924.515 1.216.672l.45.239A1.5 1.5 0 0 1 25.499 36h-15c-.342 0-.694-.133-.96-.348a19 19 0 0 1-.85-.754 22 22 0 0 1-1.85-1.974c-1.296-1.58-2.84-3.965-2.84-6.574 0-1.91 1.5-3.12 2.787-3.855 1.374-.784 3.14-1.392 4.76-1.906q.67-.212 1.297-.405c1.171-.362 2.218-.686 3.065-1.027.45-.18.77-.339.982-.47a2.4 2.4 0 0 0-.358-.407c-.422-.398-1.04-.8-1.737-1.171a19 19 0 0 0-1.908-.87 20 20 0 0 0-.631-.237"/></svg>