<svg xmlns="http://www.w3.org/2000/svg" viewBox="0 0 17 17"><path fill-rule="evenodd" d="M10.116 8.934a1.1 1.1 0 0 1-.245-.24c-.35-.463-.247-.993-.153-1.307.075-.247.2-.535.341-.844-.397-.351-.427-.85-.413-1.166s.088-.71.166-1.124l.068-.365c.055-.296.112-.597.192-.835.09-.269.262-.621.65-.812.389-.19.756-.102 1.009-.002.225.088.48.237.73.383l.31.18c.352.203.686.398.924.589.246.196.601.554.582 1.125a1.2 1.2 0 0 1-.19.619l.203.169c.333.276.646.536.86.774.215.24.526.67.403 1.247a1.2 1.2 0 0 1-.284.555l.046.044c.308.297.599.578.793.83.197.254.473.703.314 1.265-.16.562-.624.778-.921.878-.294.098-.683.165-1.096.236l-.594.103v.716a.797.797 0 0 1-1.593 0v-.441l-.202.035c-.412.07-.802.138-1.11.144-.312.005-.817-.043-1.139-.523-.322-.479-.196-.997-.087-1.304.097-.271.259-.59.436-.93m1.32-5.08c-.022.107-.046.232-.075.387l-.05.268c-.05.267-.087.47-.112.63a.74.74 0 0 1 .55.267c.204.241.25.59.116.88l-.305.66a29 29 0 0 0-.252.556.75.75 0 0 1 .621.331c.172.25.19.583.05.853l-.444.847c-.11.211-.198.38-.267.519.147-.022.328-.053.554-.092l2.286-.395c.226-.039.407-.07.553-.099a29 29 0 0 0-.41-.402l-.83-.8a.83.83 0 0 1-.223-.785.78.78 0 0 1 .55-.579l.006-.001a29 29 0 0 0-.445-.375l-.918-.762a.82.82 0 0 1-.286-.708.8.8 0 0 1 .36-.602 26 26 0 0 0-.472-.277l-.227-.133a16 16 0 0 0-.33-.188"/><path d="M4.78 9.955c0-.293.062-.55.165-.771l-.246.08c-.65.213-1.222.425-1.624.663a1.4 1.4 0 0 0-.375.292.3.3 0 0 0-.041.065q-.004.01-.003.012c0 .547.36 1.169.862 1.735a7 7 0 0 0 .866.818l.07.053a.797.797 0 0 1-.94 1.287l-.003-.002-.11-.084a8.5 8.5 0 0 1-1.076-1.014c-.56-.633-1.263-1.635-1.263-2.793 0-.878.67-1.425 1.201-1.74.57-.337 1.293-.594 1.938-.806q.275-.09.528-.17c.463-.15.868-.279 1.196-.416q.082-.034.148-.065a3.2 3.2 0 0 0-.622-.353 7.3 7.3 0 0 0-1.12-.393.806.806 0 0 1-.594-.949c.094-.422.531-.687.956-.603a10 10 0 0 1 1.72.524c.432.177.917.42 1.306.747.384.322.784.82.784 1.497a1.76 1.76 0 0 1-.594 1.347c-.287.26-.646.432-.887.548l-.035.017c-.292.14-.444.22-.542.308-.05.047-.07.074-.07.157a.5.5 0 0 0 .066.141q.107.18.366.442c.347.35.831.723 1.346 1.075a22 22 0 0 0 2.025 1.224c.39.205.561.697.357 1.087s-.712.526-1.102.322a22 22 0 0 1-.666-.37c-.41-.237-.96-.569-1.513-.948-.549-.375-1.127-.813-1.577-1.266a4 4 0 0 1-.598-.738c-.156-.258-.298-.588-.298-.96"/></svg>