<svg xmlns="http://www.w3.org/2000/svg" viewBox="0 0 24 24"><path d="M14.753 3.55c-.325.153-.411.591-.582 1.47l-.25 1.281c-.235 1.206-.352 1.81-.01 2.08.23.183.558.123 1.087-.096l-.714 1.485c-.56 1.164-.84 1.746-.563 2.098.224.285.675.245 1.5.067l-.97 1.778c-.61 1.12-.916 1.68-.66 2.045.255.365.879.261 2.127.055L17 15.6V17a1 1 0 1 0 2 0v-1.731l1.48-.245c1.249-.207 1.873-.31 2-.739.126-.428-.34-.86-1.272-1.724l-1.735-1.608c.993-.234 1.498-.391 1.585-.783.098-.439-.405-.84-1.41-1.641L17.74 7.007c.802-.385 1.205-.629 1.217-1.002.015-.439-.518-.736-1.583-1.33l-1.132-.63c-.776-.433-1.163-.65-1.489-.496"/><path d="m7.234 7.028.048.011.143.036a13 13 0 0 1 1.992.703c.543.25 1.15.588 1.634 1.032.482.442.949 1.09.949 1.941 0 .816-.383 1.4-.87 1.795-.41.333-.922.552-1.286.708l-.05.021c-.433.187-.693.306-.864.445-.108.089-.128.136-.13.229v.001c.004.014.023.081.107.213.112.174.295.39.555.639.518.498 1.236 1.033 1.992 1.536a35 35 0 0 0 2.943 1.745l.055.03c.49.254.69.861.436 1.352a1 1 0 0 1-.888.536H5.867a1 1 0 0 1-.662-.223l-.037-.031-.104-.088a12.6 12.6 0 0 1-1.415-1.45C2.911 17.316 2 15.935 2 14.42c0-1.146.88-1.863 1.594-2.281.764-.448 1.74-.791 2.616-1.077l.712-.228c.631-.2 1.187-.377 1.637-.562q.214-.09.348-.16l-.042-.042c-.187-.183-.472-.374-.812-.554a8.4 8.4 0 0 0-1.239-.524l-.092-.03a1.01 1.01 0 0 1-.689-1.217 1.01 1.01 0 0 1 1.2-.716"/></svg>