<svg xmlns="http://www.w3.org/2000/svg" viewBox="0 0 44 44"><path fill-rule="evenodd" d="M18.845 9.114A46 46 0 0 1 22 9c1.051 0 2.112.042 3.156.114 4.974.34 6.17.535 7.683 2.048s1.707 2.708 2.048 7.683C34.958 19.888 35 20.949 35 22a46 46 0 0 1-.113 3.156c-.341 4.974-.536 6.17-2.048 7.683s-2.71 1.707-7.683 2.048A46 46 0 0 1 22 35c-1.051 0-2.112-.042-3.155-.113-4.975-.341-6.17-.535-7.683-2.048s-1.708-2.709-2.049-7.683A46 46 0 0 1 9 22c0-1.051.042-2.112.113-3.155.341-4.974.536-6.17 2.049-7.683s2.708-1.707 7.682-2.048M6.12 18.64c.328-4.78.492-7.171 2.92-9.6s4.819-2.592 9.6-2.92C19.74 6.046 20.87 6 22 6s2.26.045 3.36.12c4.781.328 7.172.492 9.6 2.92s2.592 4.82 2.92 9.6c.075 1.1.12 2.23.12 3.36s-.045 2.26-.12 3.36c-.328 4.781-.492 7.172-2.92 9.6s-4.819 2.592-9.6 2.92c-1.1.075-2.23.12-3.36.12s-2.26-.045-3.36-.12c-4.781-.328-7.171-.492-9.6-2.92s-2.592-4.819-2.92-9.6A49 49 0 0 1 6 22c0-1.13.045-2.26.12-3.36M23.5 14.5a1.5 1.5 0 0 0-3 0v7.086a2.5 2.5 0 0 0 .732 1.768l3.707 3.707a1.5 1.5 0 0 0 2.122-2.122L23.5 21.38z"/></svg>