<svg xmlns="http://www.w3.org/2000/svg" viewBox="0 0 16 16"><path fill-rule="evenodd" d="M10.13 2.3c-.802-.214-1.621.28-1.83 1.102l-.945 3.731h-1.5A2 2 0 0 0 4 5.85c-1.105 0-2 .918-2 2.05 0 1.133.895 2.052 2 2.052.839 0 1.557-.53 1.854-1.28h1.11l-.282 1.113a1.9 1.9 0 0 0-.93.354c-.876.631-1.086 1.87-.47 2.768a1.907 1.907 0 0 0 2.7.48c.874-.63 1.084-1.87.468-2.767a2 2 0 0 0-.334-.376zm-3.012 9.83a.43.43 0 0 1-.61-.109.456.456 0 0 1 .107-.625.43.43 0 0 1 .609.109.456.456 0 0 1-.106.625M4 7.388c.276 0 .5.23.5.513a.507.507 0 0 1-.5.512c-.276 0-.5-.23-.5-.512 0-.284.224-.513.5-.513m8.5 1.283h-2.057c-.482 0-.84-.46-.73-.942a.754.754 0 0 1 .73-.596H14c0 .85-.672 1.538-1.5 1.538"/></svg>