<svg xmlns="http://www.w3.org/2000/svg" viewBox="0 0 44 44"><path fill-rule="evenodd" d="M23.57 9.238c.419-1.598 2.063-2.556 3.673-2.141l-5.374 20.515a5.2 5.2 0 0 1 1.303 1.281 5.12 5.12 0 0 1-1.255 7.169c-2.341 1.635-5.575 1.078-7.223-1.246a5.12 5.12 0 0 1 1.256-7.169 5.2 5.2 0 0 1 3.044-.938l1.052-4.016h-3.899a5.18 5.18 0 0 1-4.963 3.656C8.32 26.35 6 24.046 6 21.204s2.32-5.145 5.184-5.145a5.18 5.18 0 0 1 4.96 3.645h4.685zm-6.413 23.858a2.183 2.183 0 0 0 3.027.522 2.146 2.146 0 0 0 .526-3.005 2.183 2.183 0 0 0-3.027-.522 2.146 2.146 0 0 0-.526 3.005m-5.973-14.048c1.2 0 2.172.966 2.172 2.156s-.973 2.156-2.172 2.156-2.172-.965-2.172-2.156c0-1.19.972-2.156 2.172-2.156m14.832 1.774a1.497 1.497 0 0 0 1.457 1.87h7.516c1.663 0 3.011-1.337 3.011-2.988H27.473c-.685 0-1.284.46-1.457 1.118"/></svg>