<svg xmlns="http://www.w3.org/2000/svg" viewBox="0 0 44 44"><path fill-rule="evenodd" d="M24 9c-1.051 0-2.112.042-3.155.114-4.975.34-6.17.535-7.683 2.048-1.114 1.113-1.513 2.054-1.782 4.456-.087.779-.734 1.382-1.518 1.382-.877 0-1.575-.747-1.48-1.618.3-2.756.855-4.538 2.658-6.342 2.429-2.428 4.819-2.592 9.6-2.92C21.74 6.046 22.87 6 24 6s2.26.045 3.36.12c4.781.328 7.172.492 9.6 2.92s2.592 4.82 2.92 9.6c.075 1.1.12 2.23.12 3.36s-.045 2.26-.12 3.36c-.328 4.781-.492 7.172-2.92 9.6s-4.819 2.592-9.6 2.92c-1.1.075-2.23.12-3.36.12s-2.26-.045-3.36-.12c-4.781-.328-7.171-.492-9.6-2.92-1.803-1.803-2.358-3.586-2.658-6.341-.095-.872.603-1.619 1.48-1.619.784 0 1.43.603 1.518 1.383.269 2.401.668 3.343 1.781 4.456 1.513 1.513 2.71 1.707 7.684 2.048 1.043.071 2.104.113 3.155.113a46 46 0 0 0 3.156-.113c4.974-.341 6.17-.535 7.683-2.048s1.707-2.709 2.048-7.683A46 46 0 0 0 37 22c0-1.051-.042-2.112-.113-3.155-.341-4.974-.536-6.17-2.048-7.683s-2.71-1.707-7.683-2.048A46 46 0 0 0 24 9m-5.32 7.289a1.5 1.5 0 0 1 2.031-.61l.007.004-.007-.004.002.002.005.002.016.008.058.032a40 40 0 0 1 .973.548c.624.36 1.462.86 2.306 1.411.834.545 1.717 1.17 2.407 1.78.343.303.682.641.947.998.232.313.575.858.575 1.54s-.343 1.227-.575 1.54a6.8 6.8 0 0 1-.947.998c-.69.61-1.573 1.235-2.407 1.78a50 50 0 0 1-3.279 1.959l-.058.032-.016.008-.005.003h-.001l.006-.003-.006.003a1.5 1.5 0 0 1-1.423-2.64l.003-.002.012-.007.05-.027.197-.109a47 47 0 0 0 2.878-1.728q.234-.153.461-.307H5.5a1.5 1.5 0 1 1 0-3h17.39q-.226-.153-.46-.307a47 47 0 0 0-3.076-1.837l-.05-.027-.012-.007-.003-.001a1.5 1.5 0 0 1-.61-2.032"/></svg>