<svg xmlns="http://www.w3.org/2000/svg" viewBox="0 0 32 32"><path fill-rule="evenodd" d="M17.444 6.25c-.759 0-1.525.031-2.278.085-3.593.256-4.457.402-5.55 1.536-.803.835-1.092 1.541-1.286 3.342-.063.584-.53 1.037-1.097 1.037-.633 0-1.137-.56-1.068-1.214.217-2.067.617-3.403 1.92-4.756 1.753-1.821 3.48-1.944 6.932-2.19.796-.056 1.611-.09 2.427-.09s1.632.034 2.428.09c3.452.246 5.179.369 6.932 2.19s1.872 3.614 2.11 7.2c.054.825.086 1.673.086 2.52s-.032 1.695-.087 2.52c-.237 3.586-.355 5.379-2.109 7.2-1.753 1.821-3.48 1.944-6.932 2.19-.796.056-1.612.09-2.428.09a34 34 0 0 1-2.427-.09c-3.452-.246-5.179-.369-6.932-2.19-1.303-1.353-1.703-2.69-1.92-4.756a1.09 1.09 0 0 1 1.068-1.214c.567 0 1.034.452 1.097 1.037.194 1.8.483 2.507 1.287 3.342 1.092 1.134 1.956 1.28 5.548 1.536.754.054 1.52.085 2.28.085s1.525-.031 2.278-.085c3.593-.256 4.457-.401 5.55-1.536s1.232-2.032 1.479-5.762A36 36 0 0 0 26.833 16c0-.789-.03-1.584-.081-2.367-.247-3.73-.387-4.627-1.48-5.762s-1.956-1.28-5.549-1.536a32 32 0 0 0-2.279-.085m-3.842 5.467c.283-.548.94-.752 1.467-.458l.005.003-.005-.003.002.001.003.002.011.006.042.024a26 26 0 0 1 .703.411c.451.27 1.056.645 1.666 1.058.602.41 1.24.878 1.738 1.336.248.227.492.48.684.748.168.235.415.643.415 1.155 0 .511-.247.92-.415 1.155a5 5 0 0 1-.684.748c-.498.458-1.136.926-1.738 1.335a36 36 0 0 1-2.368 1.47l-.043.023-.011.007-.003.002h-.001l.004-.002-.004.002a1.064 1.064 0 0 1-1.468-.457c-.284-.547-.087-1.229.44-1.524h.002l.009-.006.036-.02a23 23 0 0 0 .659-.385 34 34 0 0 0 1.895-1.223H4.083C3.485 17.125 3 16.62 3 16s.485-1.125 1.083-1.125h12.56l-.333-.23a34 34 0 0 0-2.221-1.378l-.036-.02-.009-.005-.002-.002c-.527-.294-.724-.976-.44-1.524"/></svg>