<svg xmlns="http://www.w3.org/2000/svg" viewBox="0 0 24 24"><path fill-rule="evenodd" d="M13 5.001c-.642 0-1.291.029-1.928.076-2.75.205-3.265.318-3.971 1.025-.554.553-.743.989-.898 2.476a1.02 1.02 0 0 1-1.008.922.987.987 0 0 1-.99-1.078c.167-1.67.447-2.7 1.481-3.735C7 3.375 8.307 3.277 10.923 3.083A28 28 0 0 1 13.001 3c.699 0 1.399.031 2.077.082 2.616.194 3.924.292 5.236 1.604C21.627 6 21.725 7.308 21.92 9.924c.05.678.081 1.378.081 2.078 0 .699-.03 1.398-.08 2.077-.195 2.616-.293 3.924-1.606 5.236-1.312 1.313-2.62 1.41-5.236 1.605-.678.05-1.378.081-2.077.081s-1.4-.03-2.078-.08c-2.616-.195-3.924-.293-5.237-1.605-1.034-1.035-1.314-2.067-1.481-3.738a.987.987 0 0 1 .99-1.078c.522 0 .954.402 1.008.922.154 1.49.344 1.925.898 2.48.706.706 1.22.82 3.97 1.024.638.047 1.287.076 1.93.076.642 0 1.291-.029 1.928-.076 2.75-.205 3.265-.318 3.971-1.025.707-.706.82-1.22 1.025-3.97.047-.638.075-1.287.075-1.93 0-.642-.028-1.291-.075-1.928-.205-2.75-.319-3.265-1.025-3.971-.706-.707-1.22-.82-3.97-1.025A26 26 0 0 0 13 5.001M9 15.08a1 1 0 0 0 1.515.858l.273-.164C13.596 14.088 15 13.246 15 12s-1.404-2.088-4.212-3.773l-.274-.164a1 1 0 0 0-1.028 1.715l.273.164c.699.42 1.269.763 1.734 1.057H3a1 1 0 1 0 0 2h8.496a92 92 0 0 1-1.737 1.059l-.274.164a1 1 0 0 0-.485.857"/></svg>