<svg xmlns="http://www.w3.org/2000/svg" viewBox="0 0 24 24"><path d="M13 5h.5a1 1 0 1 0 0-2H11a6 6 0 0 0-.68.038c-.34.044-.712.149-1.05.433-.331.28-.5.622-.6.948a7 7 0 0 0-.191.888 8 8 0 0 0-.514.297 7 7 0 0 0-.865-.28c-.333-.075-.713-.1-1.121.047-.415.15-.693.42-.9.692-.18.235-.352.534-.524.831l-.7 1.212a8 8 0 0 0-.457.868c-.132.316-.227.692-.15 1.126.077.427.29.743.52.994.188.204.433.41.676.61a8 8 0 0 0 0 .592c-.242.2-.486.406-.674.609-.231.25-.443.567-.52.994-.077.434.018.81.15 1.126.113.272.286.571.457.868l.7 1.212c.171.296.344.596.523.83.207.272.485.543.9.692.408.148.788.122 1.121.047.27-.06.569-.17.863-.278q.25.159.515.298c.053.31.108.623.19.887.102.326.27.668.602.948.337.284.71.39 1.049.433.207.027.44.036.68.038h2.5a1 1 0 1 0 0-2H13v-.001l-.299.001h-1.402c-.379 0-.58-.003-.723-.021a7 7 0 0 1-.142-.717l-.024-.14a1.53 1.53 0 0 0-.84-1.117 6 6 0 0 1-.686-.397 1.53 1.53 0 0 0-1.39-.17l-.133.049a7 7 0 0 1-.692.234c-.09-.119-.199-.302-.404-.658l-.652-1.128c-.205-.356-.31-.542-.368-.68.096-.102.25-.232.55-.482l.11-.09c.395-.326.58-.814.547-1.286a6 6 0 0 1 0-.793 1.53 1.53 0 0 0-.547-1.286l-.112-.092c-.3-.25-.453-.38-.549-.483.058-.138.162-.323.368-.679l.651-1.128c.206-.356.314-.54.405-.659.136.032.325.1.692.235l.135.05c.48.18.997.096 1.39-.17q.326-.222.684-.396c.426-.207.756-.612.841-1.117l.024-.141c.066-.385.102-.583.143-.717.148-.019.36-.021.772-.021h1.302z"/><path fill-rule="evenodd" d="M16 7a3 3 0 0 0-3 3v3a3 3 0 0 0 3 3v3.5a1 1 0 1 0 2 0V16a3 3 0 0 0 3-3v-3a3 3 0 0 0-3-3V4.5a1 1 0 1 0-2 0zm3 6a1 1 0 0 1-1 1h-2a1 1 0 0 1-1-1v-3a1 1 0 0 1 1-1h2a1 1 0 0 1 1 1z"/></svg>