<svg xmlns="http://www.w3.org/2000/svg" viewBox="0 0 16 16"><path fill-rule="evenodd" d="M7.367 13.987c-1.413-.06-2.12-.09-2.913-.639a3.9 3.9 0 0 1-.87-.885c-.537-.802-.56-1.69-.605-3.463-.966-.16-1.449-.241-1.678-.478a1 1 0 0 1-.274-.816c.04-.327.378-.685 1.055-1.402 0 0 3.905-4.273 4.397-4.669S7.455 1 7.979 1s1.008.24 1.5.635c.492.396 2.4 2.526 2.4 2.526a194 194 0 0 0 2.334 2.5c.43.453.645.68.716.875a.995.995 0 0 1-.369 1.163c-.17.119-.956.255-1.562.376q0 .502-.027.955c-.074 1.325-.11 1.988-.968 2.878-.857.89-1.571.958-2.519 1.017a15 15 0 0 1-2.117.062"/></svg>