<svg xmlns="http://www.w3.org/2000/svg" viewBox="0 0 16 16"><path fill-rule="evenodd" d="M7.367 13.987c-1.413-.06-2.12-.09-2.913-.639a3.9 3.9 0 0 1-.87-.885c-.537-.802-.56-1.69-.605-3.463-.966-.16-1.449-.241-1.678-.478a1 1 0 0 1-.274-.816c.04-.327.378-.685 1.055-1.402 0 0 3.905-4.273 4.397-4.669S7.455 1 7.979 1s1.008.24 1.5.635c.492.396 2.4 2.526 2.4 2.526a194 194 0 0 0 2.334 2.5c.43.453.645.68.716.875a.995.995 0 0 1-.369 1.163c-.17.119-.956.255-1.562.376q0 .502-.027.955c-.074 1.325-.11 1.988-.968 2.878-.857.89-1.571.958-2.519 1.017a15 15 0 0 1-2.117.062M11.497 9c.031-.502.02-.424.032-.5a.98.98 0 0 1 .655-.798c.073-.024.64-.114.814-.143q-.133-.138-.27-.284l-3.915-4.23c-.553-.52-.779-.545-.833-.545-.056 0-.282.026-.835.544l-3.972 4.29-.144.153.197.033c.386.065.58.097.731.182a1 1 0 0 1 .444.51c.063.163.068.358.078.75.05 1.927.109 2.303.352 2.667.093.138.341.391.479.486.377.262.626.31 2.118.373h.003q.276.012.549.012c.453 0 .915-.026 1.365-.068.765-.072.644-.038.927-.126.197-.062.378-.154.651-.438.288-.299.368-.478.416-.645.07-.25.096-.563.135-1.277q.024-.412.024-.871z"/></svg>