<svg xmlns="http://www.w3.org/2000/svg" viewBox="0 0 24 24"><path fill-rule="evenodd" d="M12 21q.517 0 1.05-.029c1.975-.101 2.962-.152 4.037-.802.676-.409 1.446-1.22 1.82-1.916.593-1.107.593-2.322.593-4.753 1.254-.18 1.88-.269 2.176-.627.164-.198.261-.451.274-.707.021-.464-.378-.947-1.177-1.911A142 142 0 0 0 18 7a109 109 0 0 1-.978-1.13C15.212 3.76 13.703 2 12 2S8.79 3.76 6.978 5.87Q6.505 6.425 6 7a142 142 0 0 0-2.773 3.255c-.799.964-1.198 1.447-1.176 1.91.012.257.11.51.273.708.296.358.922.448 2.176.627 0 2.43 0 3.646.594 4.753.373.696 1.143 1.507 1.819 1.916 1.075.65 2.062.7 4.037.802Q11.483 21 12 21"/></svg>