<svg xmlns="http://www.w3.org/2000/svg" viewBox="0 0 28 28"><path fill-rule="evenodd" d="M7.301 23.274c1.738 1.703 3.342 1.71 6.55 1.726h.298c3.209-.016 4.813-.023 6.55-1.726l.107-.107C22.5 21.42 22.5 19.386 22.5 15.316c2.184-.357 3.276-.535 3.544-1.286l.01-.03c.25-.757-.506-1.57-2.017-3.197A400 400 0 0 1 21 7.5C18.241 4.46 16 2 14 2S9.758 4.46 7 7.5a382 382 0 0 1-3.036 3.303c-1.51 1.626-2.265 2.44-2.017 3.196l.011.033c.268.75 1.36.928 3.542 1.284 0 4.07 0 6.105 1.694 7.85.028.03.079.08.107.108M14.093 23c1.676-.008 2.646-.022 3.42-.187.64-.136 1.136-.376 1.74-.968l.071-.071c1.018-1.049 1.13-2.129 1.13-6.458 0-.402 0-.602.04-.774a1.5 1.5 0 0 1 .88-1.035c.163-.068.361-.1.758-.165.52-.085.938-.154 1.276-.216-.23-.259-.52-.572-.883-.962 0 0-1.646-1.77-3.052-3.32s-2.567-2.82-3.61-3.718C14.76 4.174 14.182 4 13.954 4s-.806.175-1.91 1.125C11 6.023 8.435 8.844 8.435 8.844s-2.07 2.264-3.052 3.32c-.363.39-.652.704-.883.962.338.062.755.131 1.276.216.396.064.594.097.757.165a1.5 1.5 0 0 1 .88 1.035c.04.172.04.373.04.774 0 4.33.112 5.41 1.13 6.458l.071.071c.604.592 1.1.832 1.74.968.774.165 1.744.179 3.42.187z"/></svg>