<svg xmlns="http://www.w3.org/2000/svg" viewBox="0 0 32 32"><path fill-rule="evenodd" d="M23 18c0-.78 0-1.17.155-1.483a1.5 1.5 0 0 1 .431-.526c.278-.213.66-.29 1.424-.442q.416-.083.725-.147c-.141-.164-.305-.351-.497-.57a362 362 0 0 1-3.599-4.17c-1.296-1.524-2.404-2.827-3.464-3.807C16.928 5.702 16.263 5.5 16 5.5s-.927.202-2.174 1.355c-1.06.98-2.168 2.283-3.464 3.807l-.459.539a363 363 0 0 1-3.14 3.631c-.192.219-.356.406-.497.57.207.043.446.09.725.147.768.153 1.152.23 1.43.444.183.141.33.322.432.53.154.315.151.707.147 1.49-.01 2.013-.012 3.29.109 4.27.109.891.3 1.327.564 1.683.133.18.422.482.596.623.786.64 1.457.76 4.897.894q.428.017.834.017.488 0 1.006-.029c3.378-.184 4.011-.313 4.808-1.015a5 5 0 0 0 .434-.459c.294-.371.494-.811.614-1.695.133-.984.138-2.265.138-4.302M7.667 25.458C6.47 23.85 6.48 21.9 6.5 18c-1.666-.333-2.5-.5-2.9-.944a1.8 1.8 0 0 1-.456-1.345c.047-.596.61-1.239 1.738-2.526A360 360 0 0 0 8 9.579l.466-.547C11.165 5.857 13.593 3 16 3s4.836 2.857 7.535 6.032l.465.547a360 360 0 0 0 3.12 3.606c1.126 1.287 1.69 1.93 1.736 2.526.04.495-.123.975-.456 1.345-.4.444-1.233.61-2.9.944 0 3.94 0 5.911-1.288 7.546a7 7 0 0 1-.745.785c-1.561 1.377-3.149 1.463-6.324 1.637a21 21 0 0 1-2.074.013c-3.216-.125-4.825-.187-6.38-1.454a7 7 0 0 1-1.022-1.069"/></svg>