<svg xmlns="http://www.w3.org/2000/svg" viewBox="0 0 32 32"><path fill-rule="evenodd" d="M7.667 25.458C6.47 23.85 6.48 21.9 6.5 18c-1.666-.333-2.5-.5-2.9-.944a1.8 1.8 0 0 1-.456-1.345c.047-.596.61-1.239 1.738-2.526A360 360 0 0 0 8 9.579l.466-.547C11.165 5.857 13.593 3 16 3s4.836 2.857 7.535 6.032l.465.547a360 360 0 0 0 3.12 3.606c1.126 1.287 1.69 1.93 1.736 2.526.04.495-.123.975-.456 1.345-.4.444-1.233.61-2.9.944 0 3.94 0 5.911-1.288 7.546a7 7 0 0 1-.745.785c-1.561 1.377-3.149 1.463-6.324 1.637a21 21 0 0 1-2.074.013c-3.216-.125-4.825-.187-6.38-1.454a7 7 0 0 1-1.022-1.069"/></svg>