<svg xmlns="http://www.w3.org/2000/svg" viewBox="0 0 17 17"><path d="M9.298 1.86a.797.797 0 1 0-1.594 0v1.593a.797.797 0 1 0 1.594 0zm2.919 9.295a.797.797 0 1 1-1.593 0 .797.797 0 0 1 1.593 0m-5.843 0a.797.797 0 1 1-1.593 0 .797.797 0 0 1 1.593 0m1.328-.797a.797.797 0 0 0 0 1.594h1.594a.797.797 0 1 0 0-1.594z"/><path fill-rule="evenodd" d="M14.148 9.561h.46a.797.797 0 0 0 0-1.593h-1.283l-.013-.043c-.401-1.227-.601-1.84-1.288-2.416a4 4 0 0 0-.35-.254c-.76-.474-1.565-.474-3.175-.474s-2.415 0-3.175.474a4 4 0 0 0-.35.254c-.686.575-.887 1.19-1.288 2.417l-.013.042H2.39a.797.797 0 0 0 0 1.593h.46l-.021.083a6.3 6.3 0 0 0-.173 1.449v3.78a1.062 1.062 0 0 0 2.125 0v-.531h7.436v.531a1.062 1.062 0 1 0 2.125 0v-3.78a6.3 6.3 0 0 0-.194-1.532M5.312 8.083a40 40 0 0 1 3.184-.115c1.34 0 2.393.05 3.19.115-.333-.995-.43-1.139-.685-1.352a2 2 0 0 0-.172-.124c-.29-.182-.567-.233-2.33-.233s-2.04.051-2.33.233a3 3 0 0 0-.172.124c-.254.213-.352.357-.685 1.352M8.496 9.56c-1.71 0-2.915.085-3.693.17a.6.6 0 0 0-.322.122.27.27 0 0 0-.101.157c-.076.318-.13.688-.13 1.083v1.655h8.498v-1.655c0-.395-.054-.763-.13-1.081a.27.27 0 0 0-.101-.159.6.6 0 0 0-.324-.121c-.78-.086-1.985-.17-3.697-.17"/><path d="M4.201 1.658a.797.797 0 0 0-.419 1.046l.606 1.415a.797.797 0 1 0 1.465-.627l-.606-1.415a.797.797 0 0 0-1.046-.42m9.016 1.047a.797.797 0 1 0-1.465-.627l-.606 1.415a.797.797 0 1 0 1.465.627z"/></svg>