<svg xmlns="http://www.w3.org/2000/svg" viewBox="0 0 44 44"><path d="M23.498 5.5a1.5 1.5 0 1 0-3 0v4a1.5 1.5 0 0 0 3 0z"/><path fill-rule="evenodd" d="M34.814 21H37.5a1.5 1.5 0 0 1 0 3h-1.483c.268.444.469.938.587 1.477.227 1.033.396 2.247.396 3.569v8.704a2.25 2.25 0 0 1-4.5 0V37h-21v.75a2.25 2.25 0 0 1-4.5 0v-8.704c0-1.325.17-2.54.398-3.575A4.9 4.9 0 0 1 7.982 24H6.5a1.5 1.5 0 0 1 0-3h2.686c1.049-3.263 1.62-4.93 3.701-6.447C15.017 13 17.345 13 22.001 13c4.655 0 6.982 0 9.112 1.553 2.081 1.518 2.653 3.184 3.701 6.447m-3.005.458c-.964-2.957-1.321-3.648-2.463-4.48C28.169 16.118 26.983 16 22 16s-6.17.12-7.346.977c-1.142.833-1.5 1.524-2.463 4.48 2.19-.235 5.419-.457 9.802-.457 4.386 0 7.618.222 9.812.458zM32 29a1.5 1.5 0 1 1-3 0 1.5 1.5 0 0 1 3 0m-15 0a1.5 1.5 0 0 1 1.5-1.5h7a1.5 1.5 0 0 1 0 3h-7A1.5 1.5 0 0 1 17 29m-3.5 1.5a1.5 1.5 0 1 0 0-3 1.5 1.5 0 0 0 0 3"/><path d="M32.59 5.121a1.5 1.5 0 0 1 .787 1.97l-1.5 3.5a1.5 1.5 0 1 1-2.757-1.182l1.5-3.5a1.5 1.5 0 0 1 1.97-.788M10.62 7.09a1.5 1.5 0 1 1 2.757-1.18l1.5 3.5a1.5 1.5 0 0 1-2.758 1.18z"/></svg>