<svg xmlns="http://www.w3.org/2000/svg" viewBox="0 0 44 44"><path d="M21.998 2.5a1.5 1.5 0 0 1 1.5 1.5v3a1.5 1.5 0 1 1-3 0V4a1.5 1.5 0 0 1 1.5-1.5m8.828 3.399A1.5 1.5 0 1 1 33.575 7.1l-1.203 2.75a1.5 1.5 0 1 1-2.748-1.203zM13.998 28.204a1.4 1.4 0 0 0 1.412-1.39 1.4 1.4 0 0 0-1.412-1.388 1.4 1.4 0 0 0-1.412 1.389 1.4 1.4 0 0 0 1.412 1.389m17.412-1.389a1.4 1.4 0 0 1-1.412 1.389 1.4 1.4 0 0 1-1.412-1.39 1.4 1.4 0 0 1 1.412-1.388 1.4 1.4 0 0 1 1.412 1.389m-14.118 0a1.4 1.4 0 0 1 1.412-1.39h6.588a1.4 1.4 0 0 1 1.412 1.39 1.4 1.4 0 0 1-1.412 1.389h-6.588a1.4 1.4 0 0 1-1.412-1.39"/><path fill-rule="evenodd" d="M36.586 19.407H34.06c-.987-3.021-1.525-4.564-3.484-5.969C28.571 12 26.38 12 22 12s-6.573 0-8.578 1.438c-1.958 1.405-2.496 2.948-3.483 5.97H7.41a1.4 1.4 0 0 0-1.412 1.388 1.4 1.4 0 0 0 1.412 1.39h1.395c-.251.41-.44.865-.55 1.361a15.2 15.2 0 0 0-.375 3.31v8.06c0 1.15.949 2.083 2.118 2.083s2.118-.933 2.118-2.083v-.695H31.88v.695c0 1.15.948 2.083 2.118 2.083s2.117-.933 2.117-2.083v-8.06c0-1.224-.159-2.348-.372-3.305a4.5 4.5 0 0 0-.552-1.367h1.395a1.4 1.4 0 0 0 1.412-1.389 1.4 1.4 0 0 0-1.412-1.389m-7.674-3.724c1.075.77 1.411 1.41 2.318 4.148h-.003c-2.065-.218-5.107-.424-9.234-.424s-7.164.206-9.226.424c.906-2.737 1.243-3.377 2.318-4.148 1.107-.795 2.224-.905 6.914-.905s5.805.11 6.913.905m-6.92 6.502c-4.03 0-6.969.201-8.925.408-1.202.127-1.89.816-2.055 1.552a12.5 12.5 0 0 0-.308 2.712v4.587h22.588v-4.587c0-.99-.129-1.911-.307-2.709-.165-.737-.854-1.428-2.059-1.555-1.96-.207-4.901-.408-8.933-.408"/><path d="M13.372 5.899A1.5 1.5 0 0 0 10.624 7.1l1.202 2.749a1.5 1.5 0 1 0 2.748-1.203z"/></svg>