<svg xmlns="http://www.w3.org/2000/svg" viewBox="0 0 24 24"><path d="M13 3a1 1 0 1 0-2 0v2a1 1 0 1 0 2 0z"/><path fill-rule="evenodd" d="m18.848 11.415.027.085H20.5a1 1 0 1 1 0 2h-.367q.087.208.14.437c.13.57.227 1.242.227 1.975v4.838a1.25 1.25 0 1 1-2.5 0V20H6v.75a1.25 1.25 0 1 1-2.5 0v-4.838c0-.734.098-1.407.228-1.978q.052-.227.139-.434H3.5a1 1 0 1 1 0-2h1.624l.028-.084c.578-1.769.867-2.653 1.927-3.48a5 5 0 0 1 .255-.186C8.45 7 9.634 7 12 7s3.549 0 4.665.75c.072.048.188.132.257.186 1.059.828 1.348 1.711 1.925 3.479m-2.017.269a58 58 0 0 0-4.834-.184c-2.033 0-3.631.082-4.828.183.51-1.537.667-1.801 1.14-2.172.031-.023.108-.08.14-.101C8.957 9.07 9.436 9 12 9s3.044.07 3.55.41c.032.021.11.078.14.102.474.37.63.634 1.14 2.172M6.569 13.749c1.173-.124 2.962-.249 5.428-.249s4.257.125 5.432.25c.586.062.837.382.894.631.103.453.177.974.177 1.531V18h-13v-2.088c0-.558.075-1.08.178-1.533.057-.249.307-.567.89-.63"/><path d="M17.947 2.606a1 1 0 0 1 .447 1.341l-1 2a1 1 0 1 1-1.789-.894l1-2a1 1 0 0 1 1.342-.447M5.606 3.947a1 1 0 0 1 1.789-.894l1 2a1 1 0 1 1-1.79.894zM7.5 17a1 1 0 1 0 0-2 1 1 0 0 0 0 2m2-1a1 1 0 0 1 1-1h3a1 1 0 1 1 0 2h-3a1 1 0 0 1-1-1m7 1a1 1 0 1 0 0-2 1 1 0 0 0 0 2"/></svg>