<svg xmlns="http://www.w3.org/2000/svg" viewBox="0 0 24 24"><path fill-rule="evenodd" d="M8.118 6.16c1.095-.095 2.39-.16 3.881-.16 1.492 0 2.786.065 3.881.16 1.08.094 1.603.149 2.024.278.312.097.612.25 1.06.699.457.46.606.755.696 1.043.122.394.173.88.26 1.917a23 23 0 0 1 0 3.805c-.087 1.038-.138 1.523-.26 1.917-.09.288-.239.584-.696 1.043-.448.45-.748.603-1.06.7-.421.129-.945.184-2.023.277A45 45 0 0 1 12 18c-1.492 0-2.787-.065-3.883-.16-1.078-.093-1.601-.148-2.022-.278-.312-.096-.612-.25-1.06-.698-.457-.46-.606-.755-.695-1.043-.123-.394-.173-.88-.26-1.916a23 23 0 0 1 0-3.808c.087-1.037.137-1.523.26-1.916.09-.288.238-.584.696-1.043.447-.45.747-.602 1.06-.699.42-.13.943-.184 2.022-.278M11.999 4c-1.55 0-2.902.068-4.054.168-2.025.175-3.037.263-4.326 1.557S2.25 7.99 2.087 9.93a25 25 0 0 0 0 4.14c.162 1.94.243 2.91 1.532 4.204s2.301 1.382 4.325 1.558c1.153.1 2.506.167 4.056.167 1.549 0 2.9-.067 4.053-.167 2.025-.176 3.038-.264 4.327-1.558s1.37-2.265 1.532-4.206a25 25 0 0 0 0-4.137C21.75 7.99 21.67 7.02 20.38 5.725c-1.289-1.294-2.302-1.382-4.327-1.557A47 47 0 0 0 12 4m-5 7a1 1 0 0 0 0 2h1a1 1 0 0 0 0-2zm8 4a1 1 0 0 1 1-1h1a1 1 0 0 1 0 1.999h-1a1 1 0 0 1-1-1m-9 0a1 1 0 0 1 1-1h6a1 1 0 1 1 0 1.999H7a1 1 0 0 1-1-1m4-3a1 1 0 0 1 1-1h6a1 1 0 0 1 0 2h-6a1 1 0 0 1-1-1"/></svg>