<svg xmlns="http://www.w3.org/2000/svg" viewBox="0 0 16 16"><path fill-rule="evenodd" d="M11.216 12.864A36 36 0 0 1 8 13c-1.26 0-2.332-.057-3.217-.136-1.3-.117-1.95-.176-2.75-.972-.8-.795-.857-1.387-.97-2.57a14 14 0 0 1 0-2.644c.113-1.183.17-1.775.97-2.57.8-.796 1.45-.855 2.75-.972A36 36 0 0 1 8 3c1.259 0 2.332.057 3.216.136 1.3.117 1.951.176 2.751.972s.857 1.388.97 2.572a14 14 0 0 1 0 2.64c-.113 1.184-.17 1.776-.97 2.572s-1.45.855-2.751.972M4.75 6.999a.75.75 0 0 0 0 1.5h.5a.75.75 0 0 0 0-1.5zm3 0a.75.75 0 0 0 0 1.5h3.5a.75.75 0 0 0 0-1.5zm-3 2a.75.75 0 0 0 0 1.5h3.5a.75.75 0 0 0 0-1.5zm6 0a.75.75 0 0 0 0 1.5h.5a.75.75 0 0 0 0-1.5z"/></svg>