<svg xmlns="http://www.w3.org/2000/svg" viewBox="0 0 24 24"><path fill-rule="evenodd" d="M5.634 8.216C6.691 6.029 8.446 4 11 4c.878 0 1.753.198 2.343.935.54.674.657 1.588.657 2.506 0 2.89-1.75 5.302-3.81 7.267-1.08 1.03-2.305 1.993-3.507 2.878.268.24.67.414 1.317.414.341 0 .837-.123 1.456-.405a11 11 0 0 0 1.888-1.137c1.038-.764 1.924-1.644 2.443-2.38.138-.239.264-.444.363-.604a1 1 0 0 1 1.746.97q-.17.342-.412.695c-.366.636-.767 1.423-.934 2.095-.115.461-.062.649-.046.682l.027.015c.055.025.194.069.47.069.908 0 1.972-.503 2.96-1.38.978-.867 1.747-1.981 2.098-2.959a1 1 0 0 1 1.882.678c-.481 1.337-1.462 2.722-2.652 3.777C18.11 19.161 16.59 20 15 20c-.94 0-1.796-.304-2.244-1.112a2.2 2.2 0 0 1-.256-.797c-.71.52-1.47.985-2.215 1.324C9.545 19.752 8.748 20 8 20c-1.338 0-2.309-.488-2.954-1.233l-.23.163q-.646.457-1.228.879a1 1 0 0 1-1.176-1.618q.635-.459 1.304-.933l.442-.315A6.4 6.4 0 0 1 4 15.5c0-2.267.55-5.043 1.634-7.284m.367 7.385c.981-.738 1.942-1.514 2.809-2.34C10.75 11.408 12 9.493 12 7.44c0-.843-.133-1.149-.218-1.255C11.747 6.142 11.622 6 11 6 9.645 6 8.4 7.09 7.435 9.086 6.495 11.03 6 13.503 6 15.5z"/></svg>