<svg xmlns="http://www.w3.org/2000/svg" viewBox="0 0 16 16"><path fill-rule="evenodd" d="M3.641 5.397C4.368 3.917 5.58 2.5 7.333 2.5c.63 0 1.242.176 1.663.693.392.482.5 1.122.5 1.768 0 1.963-1.274 3.739-2.717 5.186a25 25 0 0 1-2.252 1.973c.203.253.46.38.806.38.587 0 1.478-.399 2.382-1.084.708-.537 1.307-1.152 1.652-1.649.094-.165.18-.305.245-.411a.75.75 0 0 1 1.31.728q-.115.23-.277.47c-.243.431-.514.972-.607 1.429-.064.316-.01.422-.004.431l.007.008q.008.008.051.027c.064.027.19.059.413.059.54 0 1.155-.327 1.748-.943a6.15 6.15 0 0 0 1.291-2.069.75.75 0 0 1 1.412.508 7.6 7.6 0 0 1-1.622 2.601c-.723.75-1.702 1.395-2.828 1.395-.706 0-1.345-.196-1.716-.748a1.6 1.6 0 0 1-.243-.585C7.597 13.374 6.405 14 5.333 14c-.923 0-1.57-.425-1.998-.973q-.496.363-.94.682l-.204.148a.747.747 0 0 1-1.048-.166.747.747 0 0 1 .166-1.048l.181-.131c.377-.273.777-.559 1.187-.865a5.3 5.3 0 0 1-.178-1.314c0-1.528.393-3.412 1.142-4.936m.371 5.214c.592-.481 1.174-.99 1.705-1.523 1.389-1.393 2.28-2.795 2.28-4.127 0-.528-.1-.741-.164-.82-.035-.043-.13-.141-.5-.141-.852 0-1.682.708-2.346 2.059C4.346 7.364 4 9.019 4 10.333q0 .126.013.278"/></svg>