<svg xmlns="http://www.w3.org/2000/svg" viewBox="0 0 32 32"><path d="M14.03 12.1c4.097 3.674 6.913 8.338 9.418 13.454-.673.116-1.434.177-2.35.25A64 64 0 0 1 16 26c-1.938 0-3.639-.078-5.1-.196-2.71-.217-4.065-.326-5.802-2.076-1.738-1.75-1.831-3.014-2.017-5.544a30 30 0 0 1-.071-2.932q.243-.27.494-.532a33 33 0 0 1 2.905-2.672c1.683-1.385 2.525-2.078 3.921-2.047s2.164.72 3.7 2.098m12.873 11.629a7.4 7.4 0 0 1-1.108.934l-.102-.208c-1.65-3.371-3.481-6.654-5.771-9.632C21.467 13.607 22.239 13 23.5 13s2.033.607 3.578 1.822a33 33 0 0 1 1.919 1.625q-.016.901-.078 1.735c-.185 2.53-.278 3.796-2.016 5.546"/></svg>