<svg xmlns="http://www.w3.org/2000/svg" viewBox="0 0 24 24"><path d="M10.562 8.633c3.28 2.975 5.493 6.785 7.48 10.957-.559.119-1.196.174-1.987.243-1.153.1-2.505.168-4.055.168a47 47 0 0 1-4.055-.168c-2.024-.176-3.036-.264-4.326-1.558-1.29-1.293-1.37-2.264-1.532-4.204a25 25 0 0 1-.073-2.908q.222-.249.45-.492A26 26 0 0 1 4.7 8.593C5.994 7.515 6.642 6.977 7.715 7s1.665.56 2.847 1.632m9.821 9.643q-.269.27-.525.474l-.01-.02c-1.248-2.621-2.622-5.187-4.333-7.53C16.536 10.4 17.107 10 18 10c.961 0 1.55.463 2.727 1.388.413.326.845.683 1.27 1.065q-.017.846-.082 1.616c-.162 1.941-.243 2.912-1.532 4.206"/></svg>