<svg xmlns="http://www.w3.org/2000/svg" viewBox="0 0 24 24"><path fill-rule="evenodd" d="M7.945 3.168C9.098 3.068 10.45 3 12 3s2.901.068 4.054.168c2.025.175 3.038.263 4.327 1.557s1.37 2.265 1.532 4.207a25 25 0 0 1 0 4.137c-.161 1.941-.242 2.912-1.532 4.206s-2.302 1.382-4.327 1.557c-1.152.1-2.505.168-4.054.168a47 47 0 0 1-4.056-.168c-2.024-.175-3.036-.263-4.325-1.557s-1.37-2.264-1.532-4.205a25 25 0 0 1 0-4.14c.161-1.94.242-2.911 1.532-4.205S5.92 3.344 7.945 3.168m.173 1.992C9.213 5.065 10.508 5 12 5s2.785.065 3.881.16c1.08.094 1.602.149 2.024.278.312.097.612.25 1.06.699.457.46.606.755.696 1.043.122.394.173.88.26 1.918a23 23 0 0 1 0 3.805c-.087 1.037-.138 1.523-.26 1.917-.09.288-.239.584-.696 1.043-.448.449-.748.602-1.06.699-.421.13-.945.184-2.024.278-1.095.095-2.39.16-3.881.16-1.492 0-2.787-.065-3.883-.16-1.078-.094-1.601-.149-2.022-.278-.312-.097-.612-.25-1.06-.699-.457-.46-.606-.755-.696-1.043-.122-.393-.173-.879-.26-1.916a23 23 0 0 1 0-3.808c.087-1.037.138-1.522.26-1.916.09-.288.239-.584.696-1.043.448-.449.748-.602 1.06-.699.421-.13.944-.184 2.023-.278"/><path d="M8 20a1 1 0 1 0 0 2h8a1 1 0 1 0 0-2zm5.266-10.996.03.018c1.466.88 2.206 1.323 2.206 1.978s-.74 1.098-2.206 1.978l-.03.018-.456.273c-1.465.88-2.201 1.319-2.755 1.005-.553-.313-.553-1.167-.553-2.876v-.796c0-1.709 0-2.563.553-2.876.554-.314 1.29.126 2.755 1.005z"/></svg>