<svg xmlns="http://www.w3.org/2000/svg" viewBox="0 0 32 32"><path fill-rule="evenodd" d="M6.248 6.248c-1.75 1.75-1.88 3.494-2.14 6.982A38 38 0 0 0 4 16c0 .933.04 1.866.108 2.77.26 3.488.39 5.232 2.14 6.982s3.494 1.88 6.982 2.14c.904.067 1.837.108 2.77.108s1.866-.04 2.77-.108c3.488-.26 5.232-.39 6.982-2.14s1.88-3.494 2.14-6.982c.067-.904.108-1.837.108-2.77s-.04-1.866-.108-2.77c-.26-3.488-.39-5.232-2.14-6.982s-3.494-1.88-6.982-2.14A38 38 0 0 0 16 4c-.933 0-1.866.04-2.77.108-3.488.26-5.232.39-6.982 2.14M16 6.5c-.861 0-1.732.038-2.585.101-3.655.272-4.407.423-5.4 1.415-.991.992-1.142 1.744-1.414 5.4A35 35 0 0 0 6.5 16c0 .861.038 1.732.101 2.585.272 3.655.423 4.407 1.415 5.4.992.991 1.744 1.142 5.4 1.414.852.063 1.723.101 2.584.101s1.732-.038 2.585-.101c3.655-.272 4.407-.423 5.4-1.415.991-.992 1.142-1.744 1.414-5.4.063-.852.101-1.723.101-2.584s-.038-1.732-.101-2.585c-.272-3.655-.423-4.407-1.415-5.4-.992-.991-1.744-1.142-5.4-1.414A35 35 0 0 0 16 6.5"/><path d="M14.75 10.25a1.25 1.25 0 1 1 2.5 0v5.5a1.25 1.25 0 1 1-2.5 0zm3 11a1.75 1.75 0 1 1-3.5 0 1.75 1.75 0 0 1 3.5 0"/></svg>