<svg xmlns="http://www.w3.org/2000/svg" viewBox="0 0 32 32"><path fill-rule="evenodd" d="M4.108 13.23c.26-3.488.39-5.232 2.14-6.982s3.494-1.88 6.982-2.14A38 38 0 0 1 16 4c.933 0 1.866.04 2.77.108 3.488.26 5.232.39 6.982 2.14s1.88 3.494 2.14 6.982c.067.904.108 1.837.108 2.77s-.04 1.866-.108 2.77c-.26 3.488-.39 5.232-2.14 6.982s-3.494 1.88-6.982 2.14c-.904.067-1.837.108-2.77.108s-1.866-.04-2.77-.108c-3.488-.26-5.232-.39-6.982-2.14s-1.88-3.494-2.14-6.982A38 38 0 0 1 4 16c0-.933.04-1.866.108-2.77m13.642 8.02a1.75 1.75 0 1 1-3.5 0 1.75 1.75 0 0 1 3.5 0M16 9c-.69 0-1.25.56-1.25 1.25v5.5a1.25 1.25 0 1 0 2.5 0v-5.5C17.25 9.56 16.69 9 16 9"/></svg>