<svg xmlns="http://www.w3.org/2000/svg" viewBox="0 0 16 16"><path d="M8 8.34a.75.75 0 0 1-.75-.75V5.75a.75.75 0 1 1 1.5 0v1.84a.75.75 0 0 1-.75.75m0 .86A.9.9 0 1 1 8 11a.9.9 0 0 1 0-1.8"/><path fill-rule="evenodd" d="M3.124 12.876c-.875-.875-.94-1.747-1.07-3.491A19 19 0 0 1 2 8c0-.466.02-.933.054-1.385.13-1.744.195-2.616 1.07-3.491s1.747-.94 3.491-1.07C7.067 2.02 7.534 2 8 2s.933.02 1.385.054c1.744.13 2.616.195 3.491 1.07s.94 1.747 1.07 3.491C13.98 7.067 14 7.534 14 8s-.02.933-.054 1.385c-.13 1.744-.195 2.616-1.07 3.491s-1.747.94-3.491 1.07C8.933 13.98 8.466 14 8 14s-.933-.02-1.385-.054c-1.744-.13-2.616-.195-3.491-1.07M8 12.5c-.423 0-.852-.018-1.273-.05-1.845-.137-2.122-.214-2.542-.635-.42-.42-.498-.697-.635-2.542A17 17 0 0 1 3.5 8c0-.423.019-.852.05-1.273.137-1.845.214-2.122.635-2.542.42-.42.697-.498 2.542-.635.42-.031.85-.05 1.273-.05s.852.019 1.273.05c1.845.137 2.122.214 2.542.635.42.42.498.697.635 2.542.032.42.05.85.05 1.273s-.018.852-.05 1.273c-.137 1.845-.214 2.122-.635 2.542-.42.42-.697.498-2.542.635-.42.032-.85.05-1.273.05"/></svg>