<svg xmlns="http://www.w3.org/2000/svg" viewBox="0 0 24 24"><path d="M12.525 1.514a1 1 0 0 1 .812 1.158l-.178 1.016 6.015 1.061a1 1 0 0 1-.348 1.97l-14-2.47a1 1 0 0 1 .347-1.97L11.19 3.34l.178-1.013a1 1 0 0 1 1.157-.813"/><path fill-rule="evenodd" d="M3 10.999a1 1 0 1 0 0 2h1.039q.046 1.116.129 2.057c.067.77.12 1.395.234 1.943.362 1.76 1.832 3.295 3.598 3.68.544.119 1.16.17 1.93.235a25 25 0 0 0 4.14 0c.769-.065 1.386-.116 1.93-.235 1.766-.385 3.236-1.92 3.598-3.68.113-.548.167-1.172.234-1.943q.084-.94.13-2.057h1.037a1 1 0 1 0 0-2H20v-.47c0-.905 0-1.357-.586-1.943S17.886 8 16 8H8c-1.886 0-2.828 0-3.414.586S4 9.624 4 10.528v.47zm3.16 3.884A45 45 0 0 1 6 11v-1h12v1c0 1.492-.065 2.787-.16 3.883-.094 1.078-.149 1.601-.278 2.022-.235.76-.981 1.519-1.742 1.756-.393.123-.879.173-1.916.26a23 23 0 0 1-3.808 0c-1.037-.087-1.522-.137-1.916-.26-.76-.237-1.507-.996-1.742-1.756-.13-.42-.184-.944-.278-2.022"/></svg>