<svg xmlns="http://www.w3.org/2000/svg" viewBox="0 0 44 44"><path d="M15.5 8.649c1.135 0 1.555.418 1.555 1.414v.438c0 1.165-1.182 1.697-2.578 2.325-2.015.907-4.477 2.015-4.477 5.521V20h10.5v-2.868h-6.776c.16-1.132 1.387-1.707 2.755-2.346 1.878-.879 4.021-1.88 4.021-4.624C20.5 7.115 18.786 6 15.5 6c-3.087 0-5.137 1.235-5.276 4.5h3.425c.12-1.314.676-1.851 1.851-1.851m-3.214 17.08a1.5 1.5 0 0 1-.514 2.058c-.806.484-2.083 1.318-3.14 2.29a9 9 0 0 0-.885.923h28.506a9 9 0 0 0-.886-.924c-1.056-.97-2.333-1.805-3.139-2.29a1.5 1.5 0 0 1 1.542-2.572c.878.527 2.353 1.483 3.626 2.654.637.585 1.265 1.262 1.742 2.004.473.734.862 1.632.862 2.628s-.389 1.894-.862 2.629c-.477.742-1.105 1.418-1.742 2.004-1.273 1.17-2.748 2.126-3.626 2.653a1.499 1.499 0 1 1-1.542-2.572c.806-.484 2.083-1.319 3.14-2.29.338-.312.638-.622.886-.924H7.747c.247.302.547.612.886.924 1.056.971 2.333 1.806 3.139 2.29a1.5 1.5 0 0 1-1.543 2.572c-.877-.527-2.352-1.482-3.625-2.653-.637-.586-1.265-1.263-1.742-2.004C4.389 34.394 4 33.497 4 32.5c0-.996.389-1.894.862-2.628.477-.742 1.105-1.419 1.742-2.005 1.273-1.17 2.748-2.126 3.625-2.653a1.5 1.5 0 0 1 2.057.515"/><path fill-rule="evenodd" d="M28.025 20c4.533 0 6.74-1.931 6.74-6.799 0-4.907-2.207-7.201-6.74-7.201H23v14zm0-2.779h-1.734V8.78h1.734c2.306 0 3.35 1.367 3.35 3.634v1.557c0 2.384-1.044 3.251-3.35 3.251"/></svg>