<svg xmlns="http://www.w3.org/2000/svg" viewBox="0 0 16 16"><path d="M5.35 3.02c-.457 0-.635.161-.681.665h-1.33c.054-1.252.812-1.68 2.01-1.68 1.276 0 1.98.428 1.98 1.596 0 1.052-.812 1.436-1.523 1.773-.518.246-.983.466-1.044.9h2.566v1.1H3.316V6.74c0-1.345.933-1.77 1.697-2.117.53-.241.978-.445.978-.892v-.168c0-.382-.201-.542-.642-.542m-.956 6.124a.75.75 0 0 1-.257 1.029A7 7 0 0 0 3.01 11h9.975a7 7 0 0 0-1.126-.826.75.75 0 0 1 .772-1.286c.353.212.906.573 1.38 1.018.433.407.989 1.055.989 1.844s-.556 1.438-.989 1.844a8.4 8.4 0 0 1-1.38 1.019.75.75 0 0 1-.772-1.287 7 7 0 0 0 1.126-.825L3.01 12.5c.361.34.811.638 1.126.826a.75.75 0 1 1-.772 1.287 8.4 8.4 0 0 1-1.38-1.019C1.55 13.188.995 12.54.995 11.75s.556-1.437.989-1.844a8.4 8.4 0 0 1 1.38-1.018.75.75 0 0 1 1.03.257"/><path fill-rule="evenodd" d="M10.416 7.373c1.738 0 2.584-.74 2.584-2.607 0-1.881-.846-2.761-2.585-2.761H8.5v5.368zm0-1.065H9.75V3.07h.665c.884 0 1.284.525 1.284 1.394v.597c0 .914-.4 1.247-1.284 1.247"/></svg>