<svg xmlns="http://www.w3.org/2000/svg" viewBox="0 0 16 16"><path d="M7.754 4.36c.015-.23.022-.346.14-.465.12-.12.236-.126.467-.14a2 2 0 0 1 .278 0c.231.014.347.02.466.14s.126.235.14.466a2 2 0 0 1 0 .278c-.014.231-.02.347-.14.466-.119.12-.235.126-.466.14a2 2 0 0 1-.278 0c-.231-.014-.347-.02-.466-.14s-.126-.235-.14-.466a2 2 0 0 1 0-.278m-2.86 3.034c-.12.12-.126.235-.14.466a2 2 0 0 0 0 .278c.014.231.02.347.14.466s.235.126.466.14a2 2 0 0 0 .278 0c.231-.014.347-.02.466-.14.12-.119.126-.235.14-.466a2 2 0 0 0 0-.278c-.014-.231-.02-.347-.14-.466s-.235-.126-.466-.14a2 2 0 0 0-.278 0c-.231.014-.347.02-.466.14"/><path fill-rule="evenodd" d="M9.156 1.032c1.403.132 2.532 1.156 2.789 2.493.046.221.056.45.055.676 0 .38 0 .569-.017.753a4 4 0 0 1-.695 1.91 9 9 0 0 1-.47.589l-.526.626c-.718.856-1.09 1.301-1.542 1.4q-.175.47-.462.886a9 9 0 0 1-.47.588l-.526.626c-.747.89-1.12 1.336-1.597 1.41q-.195.03-.39 0c-.477-.074-.85-.52-1.597-1.41l-.525-.626c-.244-.291-.366-.436-.471-.588a4 4 0 0 1-.695-1.911C2 8.27 2 8.08 2 7.7c0-.39.056-.68.056-.68.258-1.335 1.386-2.357 2.788-2.489q.078-.008.157-.013L5 4.201c0-.39.056-.68.056-.68.258-1.335 1.386-2.357 2.788-2.489Q8.169 1.001 8.5 1q.331.001.656.032m-2.66 3.55c1.243.252 2.213 1.216 2.449 2.443q.028.137.04.278l.158-.188.525-.626a8 8 0 0 0 .387-.478c.245-.354.395-.766.434-1.195.096-1.034-.118-2.163-1.473-2.29A6 6 0 0 0 8.5 2.5q-.251 0-.516.026c-1.217.114-1.526 1.087-1.489 2.056m-.353 6.033c-.299.356-.494.587-.643.746-.15-.16-.345-.39-.643-.746l-.525-.626a8 8 0 0 1-.387-.478 2.5 2.5 0 0 1-.434-1.195c-.096-1.04.158-2.167 1.473-2.29Q5.25 6 5.5 6q.251 0 .516.026c1.355.127 1.569 1.256 1.473 2.29-.04.429-.19.84-.435 1.195a8 8 0 0 1-.386.478z"/><path d="m11.25 9.688-.629-.629c-.243-.243-.095-.676.255-.746l.064-.012c1.556-.311 2.35-.47 2.789-.03s.281 1.234-.03 2.791l-.012.064c-.07.35-.502.498-.745.255l-.632-.632-1.56 1.562.629.63c.243.243.095.676-.255.746l-.064.012c-1.556.311-2.35.47-2.789.03s-.281-1.234.03-2.792l.012-.063c.07-.35.502-.499.746-.255l.63.63z"/></svg>