<svg xmlns="http://www.w3.org/2000/svg" viewBox="0 0 24 24"><path d="M12.206 6.205c-.187.186-.192.357-.204.698a3 3 0 0 0 0 .194c.012.341.017.512.204.698.186.186.356.192.698.203a3 3 0 0 0 .193 0c.341-.011.512-.017.698-.203s.192-.357.204-.698a3 3 0 0 0 0-.194c-.012-.341-.018-.512-.204-.698s-.357-.192-.698-.203a3 3 0 0 0-.193 0c-.342.011-.512.017-.698.203m-5.204 5.698c.012-.341.017-.512.204-.698.186-.186.356-.192.698-.203a3 3 0 0 1 .193 0c.341.011.512.017.698.203s.192.357.204.698a3 3 0 0 1 0 .194c-.012.341-.018.512-.204.698s-.357.192-.698.203a3 3 0 0 1-.193 0c-.342-.011-.512-.017-.698-.203-.187-.186-.192-.357-.204-.698a3 3 0 0 1 0-.194"/><path fill-rule="evenodd" d="M13.866 2.039c2.064.18 3.73 1.697 4.071 3.67.049.179.063.31.063.7v.117c0 .41 0 .616-.013.816a6 6 0 0 1-1.158 3.165c-.119.16-.252.318-.517.632l-.77.91c-.988 1.17-1.482 1.754-2.097 1.9a1.9 1.9 0 0 1-.796.02 6 6 0 0 1-.82 1.538c-.119.16-.252.318-.517.632l-.77.91c-.988 1.17-1.482 1.754-2.097 1.9-.293.07-.597.07-.889 0-.615-.146-1.11-.73-2.098-1.9l-.77-.91a13 13 0 0 1-.516-.632 6 6 0 0 1-1.158-3.165C3 12.142 3 11.937 3 11.526v-.082c0-.249-.001-.498.065-.74.343-1.97 2.008-3.486 4.07-3.665q.43-.038.866-.039v-.556c-.002-.249-.002-.498.064-.74.343-1.97 2.008-3.486 4.07-3.665q.43-.038.866-.039.436 0 .865.039m-3.85 5.249c1.51.536 2.647 1.83 2.921 3.422.049.178.063.31.063.7v.499c.224-.22.51-.554 1.002-1.136l.782-.925c.283-.334.365-.433.435-.528a4 4 0 0 0 .773-2.111c.007-.118.008-.246.008-.683a3 3 0 0 0-.034-.477C15.785 5 14.88 4.135 13.693 4.032A8 8 0 0 0 13 4q-.34 0-.692.032c-1.186.103-2.09.965-2.273 2.014a3 3 0 0 0-.036.48 11 11 0 0 0 .015.762m-4.98 3.758a2.7 2.7 0 0 0-.036.48c0 .437.001.565.01.683.05.763.318 1.496.772 2.111.07.095.152.194.434.528l.77.91c.5.591.789.93 1.014 1.151.224-.22.51-.554 1.002-1.136l.782-.925c.283-.334.365-.433.435-.528a4 4 0 0 0 .773-2.111c.007-.118.008-.246.008-.683a3 3 0 0 0-.034-.477C10.785 10 9.88 9.135 8.693 9.032A8 8 0 0 0 8 9q-.338 0-.692.032c-1.186.103-2.09.965-2.273 2.015"/><path d="m18.536 15.878-2.658 2.658.95.951c.348.348.137.966-.364 1.066l-.09.018c-2.225.444-3.358.67-3.987.042-.628-.629-.402-1.762.042-3.987l.018-.09c.1-.5.718-.712 1.066-.365l.95.951 2.659-2.658-.95-.95c-.349-.348-.137-.966.365-1.066l.09-.018c2.227-.445 3.361-.671 3.99-.042s.403 1.763-.042 3.99l-.018.09c-.1.502-.718.713-1.066.365z"/></svg>