<svg xmlns="http://www.w3.org/2000/svg" viewBox="0 0 16 16"><path fill-rule="evenodd" d="M11.216 12.864A36 36 0 0 1 8 13c-1.26 0-2.332-.057-3.217-.136-1.3-.117-1.95-.176-2.75-.972-.8-.795-.857-1.387-.97-2.57a14 14 0 0 1 0-2.644c.113-1.183.17-1.775.97-2.57.8-.796 1.45-.855 2.75-.972A36 36 0 0 1 8 3c1.259 0 2.332.057 3.216.136 1.3.117 1.951.176 2.751.972s.857 1.388.97 2.572a14 14 0 0 1 0 2.64c-.113 1.184-.17 1.776-.97 2.572s-1.45.855-2.751.972m-4.583-4.55V10h1.002V5.86H6.633v1.608H5.115V5.86H4.113V10h1.002V8.314zm1.84-2.454V10h1.53q.516 0 .9-.114.39-.114.642-.36.258-.252.384-.642a3.2 3.2 0 0 0 .126-.954q0-.558-.126-.954a1.5 1.5 0 0 0-.384-.642 1.5 1.5 0 0 0-.642-.36 3.2 3.2 0 0 0-.9-.114zm2.304 3.072q-.246.222-.774.222h-.528V6.706h.528q.528 0 .774.234.246.228.246.75v.474q0 .546-.246.768"/></svg>