<svg xmlns="http://www.w3.org/2000/svg" viewBox="0 0 44 44"><path fill-rule="evenodd" d="M29.126 35.721c-2.037.167-4.413.28-7.126.28s-5.088-.113-7.124-.28c-3.724-.305-5.586-.458-7.969-2.854s-2.516-4.148-2.783-7.652A42 42 0 0 1 4 22c0-1.121.046-2.198.124-3.215.267-3.503.4-5.255 2.783-7.651s4.245-2.55 7.968-2.855A87 87 0 0 1 22 8c2.713 0 5.09.112 7.127.28 3.722.305 5.583.458 7.965 2.854 2.383 2.395 2.516 4.146 2.784 7.648a42 42 0 0 1 0 6.437c-.268 3.501-.401 5.252-2.784 7.648s-4.243 2.549-7.966 2.854m-10.92-12.717V27.5h2.672V16.46h-2.672v4.288h-4.048V16.46h-2.672V27.5h2.672v-4.496zm11.049 1.648q-.657.592-2.064.592h-1.408v-6.528h1.408q1.407 0 2.064.624.656.608.656 2v1.264q0 1.455-.656 2.048M23.11 16.46V27.5h4.08q1.375 0 2.4-.304 1.04-.304 1.712-.96.688-.672 1.024-1.712.336-1.056.336-2.544t-.336-2.544-1.024-1.712q-.672-.655-1.712-.96-1.024-.304-2.4-.304z"/></svg>