<svg xmlns="http://www.w3.org/2000/svg" viewBox="0 0 16 16"><path fill-rule="evenodd" d="M4.918 4.63C5.758 4.555 6.786 4.5 8 4.5s2.241.055 3.082.13c.699.063 1.016.098 1.263.173.165.05.319.124.564.368.263.261.332.41.374.54.067.206.1.47.16 1.11a12.5 12.5 0 0 1 0 2.357c-.06.642-.093.905-.16 1.111-.042.13-.11.279-.373.54-.246.244-.4.318-.565.368-.247.075-.564.11-1.263.173-.84.075-1.868.13-3.082.13s-2.242-.055-3.082-.13c-.7-.063-1.016-.098-1.263-.173-.165-.05-.319-.124-.564-.368-.263-.261-.332-.41-.374-.54-.067-.206-.099-.469-.16-1.11a12.5 12.5 0 0 1 0-2.358c.061-.641.093-.904.16-1.11.042-.13.111-.279.374-.54.245-.244.4-.318.564-.368.247-.075.564-.11 1.263-.173M8 13a36 36 0 0 0 3.216-.136c1.3-.117 1.951-.176 2.751-.972s.857-1.388.97-2.572a14 14 0 0 0 0-2.64c-.113-1.184-.17-1.776-.97-2.572s-1.45-.855-2.751-.972A36 36 0 0 0 8 3c-1.26 0-2.332.057-3.217.136-1.3.117-1.95.176-2.75.972-.8.795-.857 1.387-.97 2.57a14 14 0 0 0 0 2.644c.113 1.183.17 1.775.97 2.57.8.796 1.45.855 2.75.972A36 36 0 0 0 8 13M6.633 8.314V10h1.002V5.86H6.633v1.608H5.115V5.86H4.113V10h1.002V8.314zm4.144.618q-.246.222-.774.222h-.528V6.706h.528q.528 0 .774.234.246.228.246.75v.474q0 .546-.246.768M8.473 5.86V10h1.53q.516 0 .9-.114.39-.114.642-.36.258-.252.384-.642a3.2 3.2 0 0 0 .126-.954q0-.558-.126-.954a1.5 1.5 0 0 0-.384-.642 1.5 1.5 0 0 0-.642-.36 3.2 3.2 0 0 0-.9-.114z"/></svg>