<svg xmlns="http://www.w3.org/2000/svg" viewBox="0 0 24 24"><path fill-rule="evenodd" d="M7.945 4.168A47 47 0 0 1 12 4c1.55 0 2.902.068 4.055.168 2.025.175 3.037.263 4.327 1.557s1.37 2.265 1.532 4.207a25 25 0 0 1 0 4.137c-.162 1.941-.243 2.912-1.532 4.206s-2.302 1.382-4.327 1.557c-1.153.1-2.505.168-4.055.168a47 47 0 0 1-4.055-.168c-2.024-.175-3.036-.263-4.326-1.557S2.25 16.01 2.087 14.07a25 25 0 0 1 0-4.14c.162-1.94.243-2.911 1.532-4.205s2.302-1.381 4.326-1.557M9.95 12.47V15h1.503V8.79H9.95v2.412H7.673V8.79H6.17V15h1.503v-2.53zm2.759-3.681V15h2.295q.774 0 1.35-.171.584-.171.963-.54.387-.378.576-.963.189-.594.189-1.431t-.19-1.431a2.24 2.24 0 0 0-.575-.963 2.26 2.26 0 0 0-.963-.54 4.8 4.8 0 0 0-1.35-.171zm3.456 4.608q-.369.333-1.161.333h-.792v-3.672h.792q.792 0 1.16.35.37.343.37 1.126v.71q0 .82-.37 1.153"/></svg>