<svg xmlns="http://www.w3.org/2000/svg" viewBox="0 0 44 44"><path fill-rule="evenodd" d="M21.195 10.858a12.3 12.3 0 0 1 2.862-.753c.416-.05.854-.076 1.353-.076l.03-.072c.27-.635.75-1.768 1.795-2.637a6.751 6.751 0 1 1 6.947 11.511l1.404.986a4.5 4.5 0 0 1-5.17 7.366l-1.38-.967a7.04 7.04 0 0 1-2.981 3.606l-2.06 1.253 3.673 1.953A16.8 16.8 0 0 0 35.573 35h.927a1.5 1.5 0 1 1 0 3h-.927c-3.248 0-6.446-.798-9.314-2.323L6.796 25.324a1.5 1.5 0 0 1 1.409-2.648l5.683 3.023a5.27 5.27 0 0 1 1.919-2.03l.12-.073a5.32 5.32 0 0 1-2.255-3.345 5.97 5.97 0 0 1 1.168-5.082l-4.635-2.897a1.5 1.5 0 1 1 1.59-2.544l5.45 3.407c.65-.454 1.383-.93 2.188-1.402q.925-.539 1.762-.875m-.279 18.58-4.38-2.33a2.3 2.3 0 0 1 .83-.876l4.134-2.515-3.918-2.623a2.28 2.28 0 0 1-.977-1.48c-.247-1.011.055-2.071.811-2.834l8.8 5.5.046.132a4.2 4.2 0 0 1 .186 1.806 4.08 4.08 0 0 1-1.953 3.041zm11.223-4.71-2.017-1.416c-2.736-1.81-4.2-3.48-4.929-5.208l-5.157-3.224q.437-.279.912-.558c.505-.295.96-.517 1.367-.681a9.3 9.3 0 0 1 2.19-.57q.328-.043.655-.058c.932-.041 1.83.097 2.43.568a3.73 3.73 0 0 1 .64-3.058l.018-.026a3.751 3.751 0 1 1 .192 4.74 7.9 7.9 0 0 0 3.31 5.554l2.112 1.481a1.5 1.5 0 0 1-1.723 2.456"/></svg>