<svg xmlns="http://www.w3.org/2000/svg" viewBox="0 0 32 32"><path d="M28 7.749a3.75 3.75 0 0 1-4.565 3.659c.272.9.859 1.694 1.685 2.218l1.352.857a2 2 0 0 1-2.143 3.378l-1.351-.857a8 8 0 0 1-2.757-2.96l-.847-.53-.483.281-.24.14.255.152c2.815 1.677 2.822 5.75.013 7.438l-1.506.904 2.957 1.606a12.1 12.1 0 0 0 5.767 1.465h.613a1.25 1.25 0 1 1 0 2.5h-.613c-2.43 0-4.823-.608-6.96-1.768L4.66 18.347a1.25 1.25 0 1 1 1.193-2.197l5.39 2.928 2.167-1.282-1.71-1.019a3 3 0 0 1-1.248-1.457l-.023-.045c-.82-1.708-.243-3.615 1.048-4.956L8.114 8.33a1.25 1.25 0 1 1 1.273-2.15l4.309 2.549q.56-.342 1.163-.69c1.725-.996 4.022-1.402 5.658-.617A3.749 3.749 0 0 1 28 7.749"/></svg>