<svg xmlns="http://www.w3.org/2000/svg" viewBox="0 0 32 32"><path fill-rule="evenodd" d="M15.236 7.612a9 9 0 0 1 1.664-.487c.293-.051.61-.087 1.065-.125.298-.623.943-1.352 1.606-1.932a5.25 5.25 0 1 1 6.164 8.499l.08.053a3.75 3.75 0 0 1-4.131 6.26l-.44-.29a5.44 5.44 0 0 1-2.13 2.37l-1.21.736 2.467 1.34a12.1 12.1 0 0 0 5.766 1.464h.613a1.25 1.25 0 1 1 0 2.5h-.613c-2.43 0-4.823-.608-6.96-1.768L4.66 18.347a1.25 1.25 0 1 1 1.193-2.197l4.068 2.21a4.1 4.1 0 0 1 1.129-1.231l-.014-.013a3.8 3.8 0 0 1-.889-1.038 4.68 4.68 0 0 1 .307-5.14l-3.37-2.131a1.25 1.25 0 0 1 1.335-2.114l4.002 2.53c.447-.31.945-.634 1.493-.954q.69-.404 1.323-.657m.128 13.704-3.241-1.76c.129-.188.299-.352.506-.478l3.008-1.83-2.71-1.815a1.7 1.7 0 0 1-.246-.2 1.4 1.4 0 0 1-.362-.392 2.19 2.19 0 0 1 .259-2.56l6.563 4.15a2.996 2.996 0 0 1-1.326 3.393zm7.697-3.523-1.183-.781c-.005-.001.004.002 0 0-2.126-1.423-3.253-2.809-3.758-4.184L14.74 10.69c.46-.285.928-.557 1.43-.76a6.5 6.5 0 0 1 1.65-.42c.873-.107 1.756-.02 2.274.463a2.8 2.8 0 0 1-.096-.723c0-1.508 1.252-2.75 2.75-2.75a2.75 2.75 0 1 1-2.154 4.46 5.75 5.75 0 0 0 2.506 3.862l1.34.885a1.25 1.25 0 1 1-1.378 2.086"/></svg>