<svg xmlns="http://www.w3.org/2000/svg" viewBox="0 0 16 16"><path d="M14 3.835a1.835 1.835 0 0 1-2.312 1.771c.119.5.424.946.87 1.237l.49.32a1 1 0 0 1-1.095 1.674l-.49-.32a4.04 4.04 0 0 1-1.367-1.504l-.409-.256-.33.193.167.105c1.367.86 1.347 2.86-.038 3.692l-.612.367 1.354.71c.847.444 1.79.676 2.747.676h.275a.75.75 0 0 1 0 1.5h-.275c-1.2 0-2.381-.291-3.444-.848l-7.13-3.738a.75.75 0 1 1 .697-1.328l2.64 1.384 1.026-.606-1.017-.64a1.5 1.5 0 0 1-.678-1.003c-.15-.664.067-1.35.504-1.894l-1.68-.92a.75.75 0 1 1 .721-1.315l2.253 1.234q.272-.167.563-.336c.89-.513 2.083-.713 2.905-.27a1.835 1.835 0 0 1 3.666.115"/></svg>