<svg xmlns="http://www.w3.org/2000/svg" viewBox="0 0 44 44"><path d="M38 10.75a4.75 4.75 0 0 1-6.115 4.55 5.47 5.47 0 0 0 2.543 3.459l1.843 1.088a2.5 2.5 0 1 1-2.542 4.306l-1.843-1.088a10.45 10.45 0 0 1-3.508-3.393l-1.74-1.091a79 79 0 0 1-.867.506l.516.334c3.703 2.394 3.613 7.841-.167 10.112l-2.36 1.417 3.908 2.078A16.8 16.8 0 0 0 35.573 35h.927a1.5 1.5 0 0 1 0 3h-.927c-3.248 0-6.446-.798-9.314-2.323L6.796 25.324a1.5 1.5 0 1 1 1.409-2.648l6.984 3.715 3.49-2.064-2.668-1.725a4.1 4.1 0 0 1-1.72-2.305c-.704-2.19.057-4.532 1.644-6.243l-4.695-2.761a1.5 1.5 0 1 1 1.52-2.586l5.753 3.383a54 54 0 0 1 1.918-1.162c2.486-1.435 5.833-1.979 8.096-.683A4.75 4.75 0 0 1 38 10.75"/></svg>