<svg xmlns="http://www.w3.org/2000/svg" viewBox="0 0 16 16"><path fill-rule="evenodd" d="M7.98 3.336a5 5 0 0 0-.456.154 5.4 5.4 0 0 0-.695.345 10 10 0 0 0-.769.502L4.154 3.118a.75.75 0 1 0-.808 1.264l1.59 1.016a2.63 2.63 0 0 0-.08 2.764q.118.206.289.391a2.3 2.3 0 0 0-.353.42l-1.694-.887a.75.75 0 0 0-.696 1.328l7.13 3.738a7.4 7.4 0 0 0 3.443.848h.275a.75.75 0 0 0 0-1.5h-.275c-.957 0-1.9-.232-2.747-.677l-.848-.444.306-.186c.407-.247.74-.58.985-.969a2.253 2.253 0 0 0 3.275-2.461A2.23 2.23 0 0 0 13.28 6.6a2.74 2.74 0 0 0 .717-1.85A2.753 2.753 0 0 0 11.247 2c-.549 0-1.084.169-1.535.475-.347.255-.556.477-.735.748-.332 0-.575 0-.997.113m2.944 5.272-.011.009q.22.13.434.265a.75.75 0 1 0 .806-1.264l-.572-.365a2.64 2.64 0 0 1-1.132-1.542 1.25 1.25 0 1 0 .8-2.21c-.728 0-1.312.646-1.245 1.366-.452-.36-1.363-.208-1.919.016q-.221.088-.497.247l-.147.089 1.53.978c.218.762.84 1.64 1.953 2.41M6.006 6.852a1.14 1.14 0 0 1 .195-.646l3.407 2.178a1.495 1.495 0 0 1-.7 1.528l-1.077.655-1.69-.887a.8.8 0 0 1 .174-.141l1.503-.915-1.354-.908a1 1 0 0 1-.302-.295 1.2 1.2 0 0 1-.156-.57"/></svg>