<svg xmlns="http://www.w3.org/2000/svg" viewBox="0 0 16 16"><path d="M3.194 2.76c.339-.341.85-.365 1.155.039.248.329.175.757-.105 1.04l-.445.447-.211.214h8.824l-.21-.214-.446-.448c-.28-.282-.353-.71-.104-1.04.304-.403.815-.38 1.154-.039l1.517 1.527c.451.454.677.681.677.964s-.226.51-.677.964l-1.517 1.527c-.349.35-.853.353-1.151-.042-.246-.326-.186-.748.101-1.037l.445-.448.212-.214H3.587l.212.214.445.448c.287.289.347.711.101 1.037-.298.395-.802.393-1.15.042L1.676 6.214C1.226 5.76 1 5.534 1 5.25s.226-.51.677-.964z"/><path fill-rule="evenodd" d="M8 8.5a63 63 0 0 0-5.018.18c-.823.067-1.598.5-1.83 1.294A3.7 3.7 0 0 0 1 10.998c0 .375.063.723.152 1.025.232.793 1.007 1.226 1.83 1.293 1.044.085 2.721.18 5.018.18s3.974-.095 5.018-.18c.824-.067 1.598-.5 1.83-1.294.089-.302.152-.649.152-1.024s-.063-.722-.151-1.024c-.233-.793-1.007-1.227-1.831-1.294A63 63 0 0 0 8 8.5"/></svg>