<svg xmlns="http://www.w3.org/2000/svg" viewBox="0 0 28 28"><path fill-rule="evenodd" d="M2.1 11.462c.237-3.198.356-4.797 1.96-6.401s3.204-1.724 6.402-1.962c.829-.062 1.684-.1 2.539-.1s1.71.038 2.539.1c3.197.238 4.796.357 6.4 1.962 1.225 1.224 1.584 2.445 1.792 4.376a49 49 0 0 0-2.377-1.54l-.049-.029-.02-.012A2.5 2.5 0 0 0 18 11.5h-6.5a2.5 2.5 0 0 0 0 5H18a2.5 2.5 0 0 0 3.286 3.644h.001l.02-.012.048-.03.176-.107a51 51 0 0 0 2.2-1.432c-.207 1.931-.566 3.153-1.79 4.377-1.605 1.605-3.204 1.724-6.401 1.962-.83.062-1.684.099-2.54.099-.854 0-1.71-.037-2.538-.099-3.198-.238-4.797-.357-6.401-1.962s-1.724-3.203-1.962-6.4C2.037 15.71 2 14.854 2 14s.037-1.71.1-2.539m18.417 7.283a1 1 0 0 1-1.03-1.715l.572-.343c1.185-.711 2.066-1.243 2.72-1.688H11.5a1 1 0 1 1 0-2h11.276c-.654-.445-1.533-.976-2.717-1.686l-.571-.343a1 1 0 0 1 1.029-1.715l.571.343c3.276 1.966 4.915 2.949 4.915 4.402s-1.639 2.436-4.915 4.402z"/></svg>