<svg xmlns="http://www.w3.org/2000/svg" viewBox="0 0 28 28"><path fill-rule="evenodd" d="M13 5c-.797 0-1.602.035-2.39.093-3.332.248-4.137.384-5.135 1.382S4.342 8.278 4.094 11.61A32 32 0 0 0 4 14c0 .798.035 1.603.094 2.39.248 3.333.383 4.138 1.381 5.136s1.803 1.134 5.135 1.381c.788.06 1.593.094 2.39.094s1.603-.035 2.391-.094c3.332-.247 4.137-.383 5.135-1.38l.076-.078c.256-.265.597-.449.966-.449.8 0 1.336.807.834 1.43a7 7 0 0 1-.462.51c-1.604 1.605-3.203 1.724-6.4 1.962-.83.062-1.684.099-2.54.099-.854 0-1.71-.037-2.538-.099-3.198-.238-4.797-.357-6.401-1.962s-1.724-3.203-1.962-6.4C2.037 15.71 2 14.854 2 14s.037-1.71.1-2.539c.237-3.197.356-4.796 1.96-6.4s3.204-1.724 6.402-1.962c.829-.062 1.684-.1 2.539-.1s1.71.038 2.539.1c3.197.238 4.796.357 6.4 1.962q.255.253.461.51c.502.622-.034 1.429-.834 1.429-.369 0-.71-.184-.966-.45l-.075-.075c-.998-.998-1.803-1.134-5.135-1.382A32 32 0 0 0 13.001 5m7.517 13.745a1 1 0 1 1-1.03-1.715l.572-.343c1.185-.71 2.066-1.242 2.72-1.688H11.5a1 1 0 1 1 0-2h11.276c-.654-.444-1.534-.975-2.717-1.685l-.571-.343a1 1 0 0 1 1.029-1.715l.571.343c3.276 1.965 4.914 2.948 4.914 4.402 0 1.453-1.638 2.436-4.914 4.401z"/></svg>