<svg xmlns="http://www.w3.org/2000/svg" viewBox="0 0 24 24"><path fill-rule="evenodd" d="M11.153 5.001c.642 0 1.291.029 1.928.076 2.75.205 3.265.318 3.971 1.025.234.233.54.398.87.398h.077c.788 0 1.338-.784.843-1.397a5 5 0 0 0-.375-.416c-1.313-1.312-2.621-1.41-5.237-1.604A28 28 0 0 0 11.152 3c-.699 0-1.399.031-2.077.082-2.616.194-3.924.292-5.237 1.604C2.526 6 2.428 7.308 2.234 9.924a28 28 0 0 0-.082 2.078c0 .699.031 1.398.082 2.077.194 2.616.292 3.924 1.604 5.236 1.313 1.313 2.621 1.41 5.237 1.605.678.05 1.378.081 2.078.081.699 0 1.399-.03 2.077-.08 2.616-.195 3.924-.293 5.236-1.605q.209-.21.379-.42c.494-.613-.056-1.396-.843-1.396h-.075c-.332 0-.64.166-.875.401-.706.707-1.22.82-3.97 1.025-.638.047-1.287.076-1.93.076a26 26 0 0 1-1.928-.076c-2.75-.205-3.265-.318-3.971-1.025-.707-.706-.82-1.22-1.025-3.97A26 26 0 0 1 4.153 12c0-.642.028-1.291.075-1.928.205-2.75.318-3.265 1.025-3.971.706-.707 1.22-.82 3.97-1.025A26 26 0 0 1 11.153 5m6.362 10.936a1 1 0 0 1-1.03-1.715l.274-.164c.7-.42 1.27-.764 1.737-1.059H10a1 1 0 1 1 0-2h8.493a92 92 0 0 0-1.734-1.057l-.274-.164a1 1 0 0 1 1.03-1.715l.273.164C20.596 9.912 22 10.754 22 12s-1.404 2.088-4.212 3.773z"/></svg>