<svg xmlns="http://www.w3.org/2000/svg" viewBox="0 0 44 44"><path fill-rule="evenodd" d="M20.236 24H11v7.5a1.5 1.5 0 1 1-3 0V14.885c0-1.647 0-2.47.188-3.145a5.11 5.11 0 0 1 3.552-3.552C12.414 8 13.237 8 14.884 8h5.352q.16 0 .317.002C25.198 8.042 29 11.435 29 16.08c0 4.56-3.73 7.857-8.29 7.916q-.234.003-.474.003M11 14.885V21h9.236q.22 0 .436-.003c3.154-.04 5.328-2.224 5.328-4.916 0-2.794-2.262-5.052-5.473-5.08h-5.643c-1.848 0-2.16.027-2.338.077a2.11 2.11 0 0 0-1.468 1.468c-.05.179-.078.49-.078 2.339"/><path d="M33.002 27a2 2 0 1 0 0-4 2 2 0 0 0 0 4m-.086 1.5a1.25 1.25 0 0 0-1.225 1.499l1.116 5.5a1.25 1.25 0 0 0 1.225 1.001h4.03l.985 3.581a1.25 1.25 0 1 0 2.41-.663l-1.238-4.5A1.25 1.25 0 0 0 39.015 34h-3.96l-.609-3h3.807a1.25 1.25 0 0 0 0-2.5z"/><path d="M30.146 31.208a5.69 5.69 0 0 0-3.142 5.092c0 3.145 2.55 5.2 5.694 5.2 1.787 0 3.381-.663 4.425-1.813l-.395-1.438H35.23a3.194 3.194 0 1 1-4.55-4.425z"/></svg>