<svg xmlns="http://www.w3.org/2000/svg" viewBox="0 0 32 32"><path fill-rule="evenodd" d="M5.677 8.06c-.179.553-.179 1.237-.179 2.605l.005 12.085a1.25 1.25 0 1 0 2.5 0v-5.248h6.527q.135 0 .267-.002c3.417-.034 6.201-2.52 6.201-5.938 0-3.481-2.837-6.04-6.319-6.06h-4.018c-1.368 0-2.052 0-2.606.179a3.7 3.7 0 0 0-2.378 2.378m2.321 2.605v4.337h6.532q.122 0 .242-.002c2.224-.022 3.726-1.562 3.726-3.438 0-1.954-1.569-3.547-3.833-3.56h-4.004c-.71 0-1.145 0-1.472.018a2 2 0 0 0-.365.04c-.364.117-.65.403-.768.768a2 2 0 0 0-.04.364c-.017.328-.018.762-.018 1.473"/><path d="M26 17.5a1.75 1.75 0 1 1-3.5 0 1.75 1.75 0 0 1 3.5 0m-2.59 3.37a1 1 0 0 1 .776-.37H28a1 1 0 0 1 0 2h-2.582l.418 2h2.924a1 1 0 0 1 .971.76l.74 3a1 1 0 0 1-1.942.48l-.552-2.24h-2.953a1 1 0 0 1-.98-.795l-.836-4a1 1 0 0 1 .202-.836"/><path d="M20.002 25.833c0-1.538.834-2.882 2.074-3.603l.457 2.182a2.167 2.167 0 0 0 2.92 3.166h1.521l.253 1.085a4.167 4.167 0 0 1-7.225-2.83"/></svg>