<svg xmlns="http://www.w3.org/2000/svg" viewBox="0 0 24 24"><path fill-rule="evenodd" d="M10.992 13H6v4a1 1 0 1 1-2 0V7.872c0-.96 0-1.439.115-1.83a2.84 2.84 0 0 1 1.927-1.927C6.433 4 6.912 4 7.872 4h3.12l.244.001C13.85 4.031 16 5.931 16 8.545c0 2.568-2.108 4.413-4.675 4.452q-.164.003-.333.003M6 7.872V11h4.992q.152 0 .302-.002C12.94 10.972 14 9.856 14 8.545c0-1.369-1.111-2.525-2.787-2.544L10.993 6h-3.12c-.5 0-.802 0-1.03.012a1.5 1.5 0 0 0-.24.023.84.84 0 0 0-.568.567 2 2 0 0 0-.023.241C6 7.071 6 7.373 6 7.873"/><path d="M19.249 13.5a1.25 1.25 0 1 1-2.5 0 1.25 1.25 0 0 1 2.5 0m-1.692 2.277a.75.75 0 0 1 .582-.277h3.11a.75.75 0 0 1 0 1.5h-2.187l.314 1.496h2.193a.75.75 0 0 1 .724.554l.68 2.503a.75.75 0 0 1-1.448.393l-.53-1.95h-2.229a.75.75 0 0 1-.734-.596l-.627-2.996a.75.75 0 0 1 .151-.627"/><path d="M14.996 19.75c0-1.156.604-2.17 1.513-2.747l.351 1.678a1.75 1.75 0 0 0 2.615 2.315h.755l.29 1.075a3.25 3.25 0 0 1-5.525-2.321"/></svg>