<svg width="44" height="44" viewBox="0 0 44 44" fill="none" xmlns="http://www.w3.org/2000/svg">
<g clip-path="url(#clip0_28728_8235)">
<path d="M29.7559 10.207C26.2539 6.70508 24.1455 5.01063 23.2094 4.4531C22.58 4.11703 21.54 4.00009 20.6436 4.00005L20.0515 4L20.0162 4.00002L19.5986 4L19.6001 4.00307C18.8797 4.01286 18.1914 4.04574 17.5375 4.09608C14.863 4.30197 13.5257 4.40492 11.1858 6.69517C8.84587 8.98543 8.69164 10.5495 8.38317 13.6777C8.15793 15.9618 8 18.738 8 22C8 24.7127 8.11192 27.0893 8.27916 29.1264C8.58474 32.8488 8.73754 34.7099 11.1333 37.0922C13.5291 39.4745 15.2799 39.6083 18.7814 39.8759C19.7996 39.9537 20.8773 40 22 40C23.1228 40 24.2005 39.9537 25.2188 39.8759C28.7202 39.6083 30.4708 39.4745 32.8666 37.0923C35.2624 34.71 35.4152 32.8489 35.7208 29.1267C35.8881 27.0896 36 24.7128 36 22C36 20.5088 36.0352 17.6289 35.5508 16.7773C35.4846 16.661 35.3615 16.5887 35.214 16.3981C34.4247 15.3781 32.7065 13.1577 29.7559 10.207Z" fill="url(#paint0_linear_28728_8235)"/>
<path d="M23.75 19C23.0596 19 22.5 19.5596 22.5 20.25C22.5 20.9404 23.0596 21.5 23.75 21.5H27.1908C27.8812 21.5 28.4408 20.9404 28.4408 20.25C28.4408 19.5596 27.8812 19 27.1908 19H23.75Z" fill="white"/>
<path d="M15.5384 20.6137C15.5 20.8069 15.5 21.0393 15.5 21.5039V23.5039C15.5 23.9686 15.5 24.2009 15.5384 24.3941C15.6962 25.1875 16.3164 25.8077 17.1098 25.9655C17.303 26.0039 17.5353 26.0039 18 26.0039C18.4647 26.0039 18.697 26.0039 18.8902 25.9655C19.6836 25.8077 20.3038 25.1875 20.4616 24.3941C20.5 24.2009 20.5 23.9686 20.5 23.5039V21.5039C20.5 21.0393 20.5 20.8069 20.4616 20.6137C20.3038 19.8203 19.6836 19.2001 18.8902 19.0423C18.697 19.0039 18.4647 19.0039 18 19.0039C17.5353 19.0039 17.303 19.0039 17.1098 19.0423C16.3164 19.2001 15.6962 19.8203 15.5384 20.6137Z" fill="white"/>
<path d="M22.5 25.3984C22.5 24.7081 23.0596 24.1484 23.75 24.1484H28.2525C28.9428 24.1484 29.5025 24.7081 29.5025 25.3984C29.5025 26.0888 28.9428 26.6484 28.2525 26.6484H23.75C23.0596 26.6484 22.5 26.0888 22.5 25.3984Z" fill="white"/>
<path d="M17.7344 29.166C17.044 29.166 16.4844 29.7257 16.4844 30.416C16.4844 31.1064 17.044 31.666 17.7344 31.666H27.2403C27.9306 31.666 28.4903 31.1064 28.4903 30.416C28.4903 29.7257 27.9306 29.166 27.2403 29.166H17.7344Z" fill="white"/>
<path d="M35.5711 16.8017C33.6427 11.4327 27.987 6.3383 23.168 4.42969C25.506 7.51031 24.457 12.8831 25.7983 14.2243C27.4018 15.8278 32.868 14.6089 35.5711 16.8017Z" fill="#FF8185"/>
</g>
<defs>
<linearGradient id="paint0_linear_28728_8235" x1="1.50692" y1="7.5" x2="43.1298" y2="15.9379" gradientUnits="userSpaceOnUse">
<stop stop-color="#FF7D7D"/>
<stop offset="1" stop-color="#E4001B"/>
</linearGradient>
<clipPath id="clip0_28728_8235">
<rect width="44" height="44" fill="white"/>
</clipPath>
</defs>
</svg>
