<svg width="32" height="32" viewBox="0 0 32 32" fill="none" xmlns="http://www.w3.org/2000/svg">
<g clip-path="url(#clip0_28728_8240)">
<path d="M21.541 7.48286C19.04 4.95367 17.5343 3.7299 16.8657 3.32724C16.4163 3.08452 15.6735 3.00006 15.0333 3.00003L14.6105 3L14.5852 3.00001L14.287 3L14.2881 3.00221C13.7736 3.00929 13.282 3.03304 12.815 3.06939C10.905 3.21809 9.94995 3.29244 8.27883 4.94652C6.60772 6.60059 6.49757 7.7302 6.27727 9.98943C6.11641 11.6391 6 13.6441 6 16C6 17.9381 6.07824 19.6387 6.19556 21.0994C6.41325 23.8095 6.5221 25.1645 8.27174 26.9023C10.0214 28.6401 11.2861 28.7331 13.8157 28.919C14.5091 28.97 15.2401 29 16 29C16.7599 29 17.491 28.97 18.1844 28.919C20.7139 28.7331 21.9786 28.6401 23.7282 26.9023C25.4778 25.1646 25.5867 23.8096 25.8044 21.0996C25.9217 19.6389 26.0008 17.9382 26.0008 16C26.0008 14.923 26.0255 12.8431 25.6796 12.2281C25.6323 12.144 25.5444 12.0918 25.4391 11.9542C24.8754 11.2175 23.6483 9.6139 21.541 7.48286Z" fill="url(#paint0_linear_28728_8240)"/>
<path d="M17.4091 13.8184C16.907 13.8184 16.5 14.2254 16.5 14.7275C16.5 15.2295 16.907 15.6365 17.4091 15.6365H19.7759C20.2779 15.6365 20.685 15.2295 20.685 14.7275C20.685 14.2254 20.2779 13.8184 19.7759 13.8184H17.4091Z" fill="white"/>
<path d="M11.3014 14.992C11.2734 15.1325 11.2734 15.3015 11.2734 15.6394V17.1818C11.2734 17.5197 11.2734 17.6887 11.3014 17.8292C11.4162 18.4062 11.8672 18.8573 12.4442 18.9721C12.5847 19 12.8261 19 13.1641 19C13.502 19 13.6887 19 13.8292 18.9721C14.4062 18.8573 14.8573 18.4062 14.9721 17.8292C15 17.6887 15 17.5197 15 17.1818V15.6394C15 15.3015 15 15.1325 14.9721 14.992C14.8573 14.415 14.4062 13.9639 13.8292 13.8491C13.6887 13.8212 13.502 13.8212 13.1641 13.8212C12.8261 13.8212 12.5847 13.8212 12.4442 13.8491C11.8672 13.9639 11.4162 14.415 11.3014 14.992Z" fill="white"/>
<path d="M16.5 18.4718C16.5 17.9697 16.907 17.5627 17.4091 17.5627H20.5479C21.05 17.5627 21.457 17.9697 21.457 18.4718C21.457 18.9738 21.05 19.3809 20.5479 19.3809H17.4091C16.907 19.3809 16.5 18.9738 16.5 18.4718Z" fill="white"/>
<path d="M12.9091 21.1818C12.407 21.1818 12 21.5888 12 22.0909C12 22.593 12.407 23 12.9091 23H19.8118C20.3139 23 20.7209 22.593 20.7209 22.0909C20.7209 21.5888 20.3139 21.1818 19.8118 21.1818H12.9091Z" fill="white"/>
<path d="M25.6958 12.2459C24.3186 8.36828 20.2795 4.68899 16.8379 3.31055C18.5076 5.53544 17.7585 9.41576 18.7164 10.3844C19.8616 11.5425 23.7653 10.6622 25.6958 12.2459Z" fill="#FF8185"/>
</g>
<defs>
<linearGradient id="paint0_linear_28728_8240" x1="1.36189" y1="5.52778" x2="31.1193" y2="11.4942" gradientUnits="userSpaceOnUse">
<stop stop-color="#FF7D7D"/>
<stop offset="1" stop-color="#E4001B"/>
</linearGradient>
<clipPath id="clip0_28728_8240">
<rect width="32" height="32" fill="white"/>
</clipPath>
</defs>
</svg>
