<svg xmlns="http://www.w3.org/2000/svg" viewBox="0 0 32 32"><path d="M9.927 6.142c.364-.545.359-1.282-.094-1.756-.504-.528-1.356-.523-1.78.07a10.94 10.94 0 0 0-2.05 6.393c0 2.384.76 4.59 2.05 6.392.424.593 1.276.599 1.78.07.453-.474.458-1.21.094-1.756a8.45 8.45 0 0 1-1.422-4.706 8.45 8.45 0 0 1 1.422-4.707"/><path d="M12.87 9.085c.248-.58.228-1.28-.208-1.736-.527-.552-1.427-.529-1.794.14a6.96 6.96 0 0 0-.86 3.36 6.96 6.96 0 0 0 .86 3.36c.367.668 1.267.692 1.794.14.436-.457.456-1.156.207-1.736a4.5 4.5 0 0 1-.36-1.764c0-.627.129-1.223.36-1.764m9.306-4.699c-.453.474-.458 1.21-.094 1.756a8.46 8.46 0 0 1 1.422 4.707c0 1.74-.524 3.359-1.422 4.706-.364.546-.359 1.282.094 1.757.504.527 1.355.522 1.78-.07a10.94 10.94 0 0 0 2.049-6.393c0-2.384-.76-4.591-2.049-6.393-.425-.593-1.276-.598-1.78-.07"/><path d="M19.138 9.085c-.248-.58-.228-1.28.208-1.736.527-.552 1.427-.529 1.794.14a6.96 6.96 0 0 1 .859 3.36 6.96 6.96 0 0 1-.859 3.36c-.367.668-1.267.692-1.794.14-.436-.457-.456-1.156-.208-1.736.232-.542.36-1.138.36-1.764s-.128-1.223-.36-1.764m-1.917 6.4a1.25 1.25 0 0 0-2.443 0L11.85 29h8.3zM16 12.55a1.75 1.75 0 1 0 0-3.5 1.75 1.75 0 0 0 0 3.5"/></svg>