<svg xmlns="http://www.w3.org/2000/svg" viewBox="0 0 24 24"><path d="M9.497 9.91v.777q.003.037.003.076v.734h4.093q.281 0 .547-.009c1.263-.04 1.86-.79 1.86-1.578 0-1.001-.792-1.884-2.136-1.906l-.27-.002h-2.19c-.687 0-1.09.001-1.387.024a2 2 0 0 0-.25.032.5.5 0 0 0-.214.213c-.006.026-.02.1-.032.25-.023.298-.024.701-.024 1.389"/><path fill-rule="evenodd" d="M4.685 4.69c-1.312 1.312-1.41 2.62-1.604 5.236A28 28 0 0 0 3 12.004c0 .7.03 1.399.08 2.077.195 2.616.293 3.924 1.605 5.237 1.313 1.312 2.621 1.41 5.237 1.604.678.051 1.378.081 2.077.081s1.4-.03 2.078-.08c2.616-.195 3.924-.293 5.237-1.605 1.312-1.313 1.41-2.621 1.605-5.237.05-.678.08-1.378.08-2.077s-.03-1.4-.08-2.078c-.195-2.616-.293-3.924-1.605-5.236C18 3.377 16.693 3.28 14.077 3.085a28 28 0 0 0-2.078-.081c-.699 0-1.399.03-2.077.08-2.616.195-3.924.293-5.237 1.606m8.908 8.807H9.5v1.505L13.998 15a1 1 0 1 1 0 2l-4.498.002v.498a1 1 0 1 1-2 0v-.498a1 1 0 0 1 0-2v-1.5a1 1 0 0 1-.003-2V9.91c0-1.314 0-1.97.24-2.478a2.5 2.5 0 0 1 1.19-1.19c.508-.24 1.165-.24 2.478-.24h2.188q.153 0 .303.002C16.156 6.041 18 7.65 18 9.91c0 2.097-1.7 3.51-3.796 3.577q-.297.01-.61.01"/></svg>