<svg xmlns="http://www.w3.org/2000/svg" viewBox="0 0 16 16"><path fill-rule="evenodd" d="M6.346 4.7c.211-.268.317-.402.409-.546.216-.34.392-.71.567-1.078q.107-.227.217-.45c.226-.451.643-.857 1.135-.477.75.58.978 2.075.082 3.854.819-.009 1.638-.007 2.457-.005L12.266 6h.257c.442.001.663.001.838.124.176.123.252.351.403.808l.046.137a3.44 3.44 0 0 1 .124 1.8c-.323 1.543-2.21 3.972-4.449 4.124Q9.061 13 8.6 13c-.906 0-1.983-.002-2.445-.047s-.655-.158-.655-.158V5.77zM1.75 6.732c.393-.34.802-.391 1.58-.458L4 6.25v6.545l-.531-.045c-.869-.073-1.303-.11-1.718-.47s-.48-.693-.61-1.358A7.4 7.4 0 0 1 1 9.506c0-.517.057-.997.14-1.415.13-.666.195-.998.61-1.359"/></svg>