<svg xmlns="http://www.w3.org/2000/svg" viewBox="0 0 24 24"><path fill-rule="evenodd" d="M9.493 7.163c.374-.461.561-.692.72-.943.318-.504.568-1.06.816-1.61q.144-.32.293-.635c.26-.548.391-.822.861-.93.47-.11.598-.008.853.194 1.108.881 1.438 3.108.101 5.76 1.303-.014 2.607-.01 3.91-.007l1.696.002c.688.001 1.032.001 1.295.194.264.193.38.561.615 1.298l.06.186c.246.77.4 1.751.185 2.825-.486 2.43-3.334 6.279-6.709 6.494q-.574.009-1.192.009c-1.58 0-2.994-.018-3.995-.129l-1-.111V9zM3.13 10.131c.501-.455 1.096-.601 1.867-.674C5.6 9.4 6 9.4 6 9.4v.974l.002 9.26-.34-.032c-1.275-.117-1.913-.176-2.532-.739s-.717-1.077-.913-2.106A12 12 0 0 1 2 14.497c0-.828.09-1.593.217-2.26.196-1.029.294-1.544.913-2.106"/></svg>