<svg xmlns="http://www.w3.org/2000/svg" viewBox="0 0 16 16"><path fill-rule="evenodd" d="M7.5 3.5a1.5 1.5 0 1 0 0-3 1.5 1.5 0 0 0 0 3m-2-1.25a1.25 1.25 0 1 1-2.5 0 1.25 1.25 0 0 1 2.5 0M1.045 7.846c.108-1.453.162-2.18.892-2.91.729-.729 1.456-.783 2.909-.891C5.223 4.017 5.611 4 6 4s.777.017 1.154.045c1.453.108 2.18.162 2.91.892.445.445.638.89.746 1.499l.397-.228.037-.02c1.279-.733 2.069-1.186 2.65-1.189a.9.9 0 0 1 .477.122c.632.367.632 1.342.632 3.287v1.187c0 1.945 0 2.915-.632 3.282a.9.9 0 0 1-.476.122c-.588-.003-1.387-.46-2.688-1.204l-.397-.228c-.108.608-.302 1.052-.747 1.496-.729.73-1.456.784-2.909.892C6.777 13.983 6.389 14 6 14s-.777-.017-1.154-.045c-1.453-.108-2.18-.162-2.91-.892-.729-.729-.783-1.456-.891-2.909A16 16 0 0 1 1 9c0-.389.017-.777.045-1.154m3.912-2.305C5.303 5.515 5.654 5.5 6 5.5s.697.015 1.043.04c.774.059 1.165.093 1.46.17.207.053.332.12.5.287a.96.96 0 0 1 .287.5c.077.295.111.686.17 1.46.025.346.04.697.04 1.043s-.015.697-.04 1.043c-.059.774-.093 1.165-.17 1.46a.96.96 0 0 1-.287.5.96.96 0 0 1-.5.287c-.295.077-.686.111-1.46.17-.346.025-.697.04-1.043.04s-.697-.015-1.043-.04c-.774-.059-1.165-.093-1.46-.17a.96.96 0 0 1-.5-.287.96.96 0 0 1-.287-.5c-.077-.295-.111-.686-.17-1.46A14 14 0 0 1 2.5 9c0-.346.015-.697.04-1.043.059-.774.093-1.165.17-1.46a.96.96 0 0 1 .287-.5.96.96 0 0 1 .5-.287c.295-.077.686-.111 1.46-.17m6.013 4.39.983.562c.698.4 1.168.664 1.518.83.03-.386.032-.923.032-1.728V8.408c0-.804-.003-1.347-.033-1.734-.346.165-.81.43-1.497.824l-.02.012-.983.563Q11 8.532 11 9q0 .47-.03.93"/></svg>