<svg xmlns="http://www.w3.org/2000/svg" viewBox="0 0 24 24"><path fill-rule="evenodd" d="M11.5 6a2.5 2.5 0 1 0 0-5 2.5 2.5 0 0 0 0 5M8 4a2 2 0 1 1-4 0 2 2 0 0 1 4 0m-5.937 8.386c.151-2.035.227-3.052 1.248-4.073S5.35 7.216 7.385 7.065C7.912 7.025 8.456 7 9 7s1.088.024 1.616.064c2.034.15 3.052.227 4.073 1.248.563.563.838 1.124.998 1.856l.618-.355.034-.02C18.307 8.667 19.504 7.98 20.385 8c.242.006.46.065.665.183.948.55.95 2.01.95 4.93v1.774c0 2.92 0 4.38-.948 4.93a1.36 1.36 0 0 1-.665.183c-.883.02-2.086-.669-4.06-1.802l-.022-.012-.618-.354c-.159.732-.435 1.295-.998 1.858-1.021 1.021-2.039 1.097-4.073 1.249-.528.039-1.072.063-1.616.063a22 22 0 0 1-1.615-.063c-2.035-.152-3.053-.227-4.074-1.249-1.02-1.02-1.097-2.038-1.248-4.073A22 22 0 0 1 2 14.002c0-.545.024-1.089.063-1.616"/></svg>