<svg xmlns="http://www.w3.org/2000/svg" viewBox="0 0 16 16"><path d="M4.486 3.952a.75.75 0 1 1 .527-1.404l5.823 2.184-.71-1.066a.75.75 0 1 1 1.248-.832l2 3a.75.75 0 0 1-.888 1.118zm-1.556 8.26c-.021.373-.257.706-.626.763Q2.157 13 2 13q-.156-.001-.304-.025c-.369-.057-.605-.39-.625-.763A55 55 0 0 1 1 9.25c0-1.386.039-2.381.07-2.962.021-.373.257-.706.626-.763Q1.843 5.5 2 5.5q.156.001.304.025c.369.057.605.39.625.763.032.581.07 1.576.07 2.962s-.038 2.381-.07 2.962m11.299.779c.404-.03.697-.362.725-.766.024-.354.047-.848.047-1.476 0-.627-.023-1.121-.047-1.476-.028-.404-.321-.737-.725-.766a3 3 0 0 0-.458 0c-.404.03-.698.362-.726.766-.024.355-.046.848-.046 1.476s.022 1.122.046 1.476c.028.404.322.737.726.766a3 3 0 0 0 .458 0m-3.286-.774c-.025.396-.3.733-.694.77a2.7 2.7 0 0 1-.499 0c-.394-.037-.669-.374-.694-.77a31 31 0 0 1-.056-1.967c0-.869.028-1.528.056-1.967.025-.396.3-.733.694-.77a2.6 2.6 0 0 1 .499 0c.394.037.669.374.694.77.028.44.056 1.098.056 1.967s-.028 1.528-.056 1.967m-4.007-.003c-.023.385-.278.721-.66.768a2.3 2.3 0 0 1-.551 0c-.382-.047-.638-.383-.66-.768-.03-.514-.065-1.34-.065-2.464s.034-1.95.065-2.464c.022-.385.278-.721.66-.768a2.3 2.3 0 0 1 .55 0c.383.047.638.383.66.768C6.966 7.801 7 8.627 7 9.75s-.034 1.95-.064 2.464"/></svg>