<svg xmlns="http://www.w3.org/2000/svg" viewBox="0 0 24 24"><path fill-rule="evenodd" d="M3.623 19.5c-.4-.397-.434-.866-.5-1.803A52 52 0 0 1 3 14.001c0-1.537.056-2.774.122-3.697.067-.938.1-1.407.5-1.803.4-.397.839-.424 1.715-.479a11 11 0 0 1 1.326 0c.876.055 1.314.082 1.714.479.362.358.424.776.482 1.545q.22-.015.489-.028a13 13 0 0 1 1.304 0c.893.046 1.34.069 1.745.465.372.363.431.78.491 1.553q.2-.011.436-.02a16 16 0 0 1 1.351 0c.896.037 1.344.056 1.754.454.386.373.437.782.495 1.556l.314-.012a22 22 0 0 1 1.524 0c.866.031 1.3.046 1.714.448.414.401.44.79.492 1.566a15 15 0 0 1 0 1.945c-.052.776-.078 1.164-.492 1.566-.414.401-.848.416-1.714.447a22 22 0 0 1-1.524 0c-.576-.02-.96-.034-1.275-.159-.316.117-.708.133-1.287.158a16 16 0 0 1-1.352 0c-.62-.026-1.027-.043-1.354-.184-.32.13-.718.15-1.318.182a13 13 0 0 1-1.304 0c-.635-.033-1.044-.054-1.373-.206-.318.14-.712.164-1.312.201a11 11 0 0 1-1.326 0c-.876-.055-1.314-.082-1.714-.479M6 18q-.264 0-.538-.018l-.314-.02A50 50 0 0 1 5 14.002a50 50 0 0 1 .148-3.963q.13-.01.314-.021a8.6 8.6 0 0 1 1.39.02A50 50 0 0 1 7 14a50 50 0 0 1-.148 3.962l-.314.02A9 9 0 0 1 6 18m8 0q-.294 0-.59-.013l-.329-.015-.022-.294A23 23 0 0 1 13 16a23 23 0 0 1 .082-1.973l.328-.015a14 14 0 0 1 1.508.015l.023.295c.034.463.059 1.024.059 1.678a23 23 0 0 1-.082 1.971l-.327.015q-.297.012-.591.013m-4.55-.015a11 11 0 0 0 1.432-.018l.028-.37c.05-.676.09-1.544.09-2.596a35 35 0 0 0-.118-2.968l-.333-.018a11 11 0 0 0-1.43.018A35 35 0 0 0 9 15.001a35 35 0 0 0 .118 2.966c.093.006.201.012.333.018M18 18a20 20 0 0 1-.963-.023l-.01-.138a12.5 12.5 0 0 1 0-1.677l.01-.139.272-.01a20 20 0 0 1 1.654.01l.01.139a12.5 12.5 0 0 1 0 1.677l-.01.138-.271.01Q18.347 18 18 18"/><path d="M6.552 5.895a1 1 0 0 1 .895-1.79l8.632 4.317-.912-1.367a1 1 0 0 1 1.664-1.11l3 4.5a1 1 0 0 1-1.279 1.45z"/></svg>