<svg xmlns="http://www.w3.org/2000/svg" viewBox="0 0 24 24"><path fill-rule="evenodd" d="M7.937 4.168C9.09 4.068 10.444 4 11.994 4s2.903.068 4.057.168c2.026.175 3.04.263 4.33 1.557s1.37 2.265 1.532 4.207a25 25 0 0 1 0 4.137c-.162 1.941-.243 2.912-1.533 4.206s-2.303 1.382-4.33 1.557c-1.152.1-2.505.168-4.056.168a47 47 0 0 1-4.057-.168c-2.025-.175-3.038-.263-4.328-1.557-.58-.582-.916-1.098-1.124-1.667q.273-.155.517-.372a3.003 3.003 0 0 0 4.123-.115A3 3 0 0 0 7.24 12a3 3 0 0 0-.115-4.122 3.003 3.003 0 0 0-4.123-.115 3 3 0 0 0-.517-.372c.208-.568.544-1.084 1.124-1.666 1.29-1.294 2.303-1.381 4.328-1.557M9 11.25l1.413-1.102v5.044H12V8.637h-1.587L9 9.701zm5.5 3.24c0-.561-.304-.818-.855-.818-.552 0-.865.257-.865.817 0 .57.313.827.865.827.55 0 .855-.257.855-.827m2.103-1.245c.076.55.342.807.97.807.58 0 .927-.266.927-.902v-.295c0-.646-.357-.912-.937-.912-.456 0-.751.152-.96.409l-1.397-.304.294-3.41h4.125V10h-2.899l-.114 1.335c.248-.256.685-.446 1.331-.446 1.397 0 2.057.75 2.057 2.118 0 1.558-.84 2.309-2.428 2.309-1.634 0-2.566-.637-2.642-2.071z"/><path d="M1.708 9.292a1 1 0 0 0-1.415 1.415l1.294 1.292-1.294 1.293a1 1 0 1 0 1.415 1.415l1.294-1.293 1.293 1.293a1 1 0 0 0 1.415-1.415L4.417 12l1.293-1.292a1 1 0 1 0-1.415-1.415l-1.293 1.293z"/></svg>