<svg xmlns="http://www.w3.org/2000/svg" viewBox="0 0 24 24"><path fill-rule="evenodd" d="M5.715 3.624c-.856.28-1.495.844-1.86 1.644-.355.776-.429 1.722-.287 2.76.251 1.84.681 2.789 1.453 4.492l.256.567q.09.2.184.42l5.01-2.079-.002-.211c0-2.445-.495-4.463-1.295-5.82-.783-1.33-2.031-2.24-3.46-1.773M6.97 16.587c-.34-.514-.648-1.132-.928-1.748l4.682-1.943.037.094.536 1.132c.4.844.792 1.845.345 2.665-.264.483-.712.883-1.355 1.172-.704.316-1.384.274-1.982-.046-.554-.296-.988-.802-1.335-1.326m7.581-10.659c.873-.223 1.716-.09 2.457.388.718.465 1.291 1.222 1.733 2.173.782 1.685.933 2.715 1.203 4.564l.091.616.072.453-5.347.933-.112-.18c-1.321-2.06-1.995-4.026-2.055-5.598-.058-1.54.502-2.977 1.958-3.349M20.5 17.527c.01-.616-.065-1.302-.162-1.971l-4.996.872.02.1.16 1.24c.119.927.329 1.98 1.15 2.431.483.266 1.077.363 1.775.261.764-.11 1.314-.51 1.645-1.1.307-.547.4-1.206.408-1.833"/></svg>