<svg xmlns="http://www.w3.org/2000/svg" viewBox="0 0 44 44"><path fill-rule="evenodd" d="M11.675 8.206c-1.42.466-2.48 1.405-3.087 2.736-.589 1.292-.71 2.865-.475 4.594.417 3.061 1.13 4.64 2.41 7.475l.425.944q.188.42.39.89l8.238-3.428a13 13 0 0 1-.011-.575c0-4.068-.821-7.427-2.149-9.685-1.3-2.212-3.371-3.728-5.741-2.95M13.76 29.78c-.599-.91-1.14-2.013-1.626-3.1l7.784-3.239q.06.177.133.353l.89 1.883c.663 1.406 1.314 3.07.57 4.436-.437.804-1.18 1.47-2.248 1.95-1.168.525-2.296.456-3.288-.076-.92-.493-1.64-1.335-2.214-2.207M26.13 11.75c1.448-.37 2.848-.15 4.076.646 1.193.773 2.143 2.033 2.877 3.616 1.298 2.805 1.548 4.519 1.997 7.596l.15 1.024q.069.455.152.96l-8.791 1.54a13 13 0 0 0-.3-.492c-2.193-3.428-3.31-6.7-3.41-9.317-.096-2.563.832-4.954 3.25-5.573M36 31.052c.015-1.088-.124-2.309-.3-3.487l-8.306 1.455q.046.181.078.369l.266 2.065c.198 1.541.547 3.294 1.909 4.045.802.443 1.787.604 2.946.435 1.267-.185 2.18-.85 2.73-1.832.51-.909.662-2.006.677-3.05"/></svg>