<svg xmlns="http://www.w3.org/2000/svg" viewBox="0 0 16 16"><path fill-rule="evenodd" d="M3.594 2.09a2.17 2.17 0 0 0-1.34 1.18C2 3.83 1.948 4.509 2.05 5.255c.18 1.323.49 2.004 1.045 3.229l.185.407q.069.153.142.324l3.597-1.49-.002-.178c0-1.757-.357-3.207-.932-4.183-.564-.955-1.462-1.61-2.49-1.274m.904 9.315a9.4 9.4 0 0 1-.678-1.277l3.37-1.398.035.09.386.813c.288.607.57 1.326.248 1.915-.19.348-.512.635-.975.843-.507.226-.996.196-1.426-.033-.399-.213-.711-.577-.96-.954M9.72 3.527a2.18 2.18 0 0 1 1.768.28c.517.333.93.877 1.248 1.561.563 1.211.671 1.951.866 3.28l.065.443.055.348-3.838.67-.094-.151c-.95-1.48-1.436-2.894-1.478-4.024-.042-1.107.36-2.14 1.408-2.407M14 11.863a9.4 9.4 0 0 0-.12-1.44l-3.596.627.018.095.115.892c.086.665.237 1.422.828 1.747.348.19.775.26 1.278.188.55-.08.945-.367 1.184-.791.22-.393.287-.867.293-1.318"/></svg>