<svg xmlns="http://www.w3.org/2000/svg" viewBox="0 0 44 44"><path fill-rule="evenodd" d="M10.935 7.222c-1.518.499-2.66 1.51-3.31 2.94-.63 1.382-.752 3.045-.507 4.843.431 3.17 1.174 4.818 2.482 7.717l.435.967c.168.375.346.79.533 1.23.66 1.543 1.445 3.375 2.36 4.764.597.906 1.362 1.81 2.358 2.345 1.086.583 2.325.657 3.592.086 1.133-.51 1.94-1.227 2.42-2.11.474-.871.55-1.764.477-2.505a6 6 0 0 0-.487-1.794 6 6 0 0 0-.354-.688l-.014-.023a16 16 0 0 1-.233-.445 20 20 0 0 1-.57-1.235c-.436-1.044-.776-2.148-.776-2.917 0-4.192-.844-7.677-2.231-10.04-1.353-2.305-3.577-3.988-6.175-3.135M18.32 26.49l.024.043.022.034.003.005q.011.015.036.062c.034.062.085.158.139.28.111.254.215.569.247.884.03.307-.011.561-.128.776-.111.205-.366.514-1.017.807-.424.191-.683.145-.943.006-.35-.188-.781-.609-1.27-1.352-.489-.741-.925-1.618-1.346-2.551l3.057-1.528q.106.272.207.516a23 23 0 0 0 .942 1.97l.019.033.005.01.002.003zm-1.943-5.457a6 6 0 0 1-.035-.635c0-3.844-.782-6.757-1.818-8.522-1.07-1.823-2.066-1.997-2.653-1.804-.743.244-1.223.684-1.517 1.332-.317.697-.464 1.74-.265 3.198.37 2.727.947 4.007 2.258 6.917l.543 1.211 3.156-1.578q.161-.08.33-.12M31.3 12.35c-1.303-.878-2.805-1.142-4.36-.772-2.66.631-3.675 3.23-3.622 5.901.054 2.74 1.158 6.152 3.352 9.724.402.656.69 1.774.863 2.892a20 20 0 0 1 .196 1.852v.026q0 .07.004.183c.007.148.021.351.054.59a6 6 0 0 0 .524 1.783c.324.67.857 1.39 1.717 1.886.87.5 1.933.689 3.166.531 1.379-.176 2.395-.887 3.016-1.952.57-.976.748-2.147.783-3.232.053-1.663-.237-3.633-.482-5.294-.07-.473-.135-.92-.189-1.328l-.135-1.052c-.402-3.155-.63-4.947-1.922-7.875-.732-1.66-1.706-3.014-2.965-3.863m-.574 19.51v-.017l-.002-.038a17 17 0 0 0-.042-.61 22 22 0 0 0-.186-1.56 19 19 0 0 0-.134-.764l3.38-.58c.163 1.194.287 2.345.254 3.375-.029.89-.176 1.474-.376 1.818-.149.255-.346.429-.806.488-.709.09-1.088-.04-1.29-.156-.211-.122-.38-.317-.514-.594a3 3 0 0 1-.252-.883 3 3 0 0 1-.03-.342v-.087zm2.596-6.54-3.896.67a6 6 0 0 0-.201-.355c-2.012-3.277-2.869-6.17-2.91-8.215-.04-2.114.717-2.782 1.318-2.925.761-.18 1.4-.057 1.99.341.635.428 1.305 1.24 1.899 2.587 1.11 2.518 1.289 3.91 1.694 7.077z"/></svg>