<svg xmlns="http://www.w3.org/2000/svg" viewBox="0 0 16 16"><path fill-rule="evenodd" d="M3.673 2.098a2.3 2.3 0 0 0-1.41 1.255c-.267.586-.315 1.281-.215 2.017.175 1.288.48 1.964 1.002 3.122l.174.387c.065.145.134.308.208.48.264.618.584 1.368.958 1.936.243.37.565.755.995.986.474.255 1.017.286 1.565.039.476-.215.826-.521 1.036-.908.207-.38.239-.77.207-1.087a2.55 2.55 0 0 0-.317-.986l-.04-.068-.003-.006-.017-.031-.072-.14a8 8 0 0 1-.223-.484c-.173-.414-.298-.831-.298-1.107 0-1.692-.34-3.112-.91-4.086-.555-.945-1.503-1.693-2.64-1.319m2.863 7.912.012.021.01.016.011.02a1.2 1.2 0 0 1 .136.407c.01.1-.005.17-.033.223-.026.048-.1.152-.336.258-.127.057-.182.04-.244.007-.108-.058-.263-.202-.453-.49a7.5 7.5 0 0 1-.544-1.04l.986-.394a8 8 0 0 0 .328.73l.115.221.008.014.002.004zm-.808-2.443v-.064c0-1.518-.31-2.653-.706-3.328-.412-.705-.748-.698-.882-.654a.8.8 0 0 0-.516.452c-.111.244-.17.63-.094 1.195.145 1.067.367 1.56.89 2.723l.076.17zM11.66 3.88a2.3 2.3 0 0 0-1.857-.33c-1.165.276-1.582 1.41-1.56 2.506.022 1.128.475 2.517 1.359 3.96.144.234.255.655.324 1.1A8 8 0 0 1 10 11.8l.002.036v.006a3 3 0 0 0 .025.328c.027.196.086.474.223.757.138.287.369.602.745.818.38.22.838.297 1.356.231.596-.076 1.043-.387 1.314-.853.245-.421.318-.918.332-1.361.022-.68-.097-1.487-.194-2.151q-.043-.28-.074-.519-.03-.219-.054-.42c-.16-1.26-.254-1.997-.778-3.186-.3-.68-.703-1.247-1.237-1.607m-.163 7.911v-.023l-.004-.056-.014-.193a9 9 0 0 0-.102-.794l1.046-.18c.054.416.091.811.08 1.17-.011.345-.068.55-.13.655-.036.061-.073.104-.211.122-.257.033-.374-.016-.421-.043a.4.4 0 0 1-.146-.173 1.1 1.1 0 0 1-.097-.418zm.72-2.73-1.308.226-.033-.055c-.793-1.294-1.123-2.423-1.138-3.206-.017-.816.273-.987.41-1.02a.8.8 0 0 1 .676.115c.222.15.474.447.704.97.434.985.503 1.521.665 2.787v.002z"/></svg>