<svg xmlns="http://www.w3.org/2000/svg" viewBox="0 0 24 24"><path fill-rule="evenodd" d="M8.779 11.667c.785.386 1.556.765 2.17 1.379s.992 1.384 1.378 2.17l.088.178 1.71 3.465q.039.076.072.13a.3.3 0 0 0 .106-.077c.105-.1.272-.309.498-.733.473-.887.955-2.223 1.693-4.294l.423-1.186c1.004-2.817 1.676-4.717 1.952-6.095.135-.673.141-1.07.109-1.295-.023-.163-.058-.196-.075-.212l-.003-.003-.003-.003c-.016-.016-.049-.051-.211-.075-.226-.032-.623-.026-1.296.109-1.378.276-3.278.948-6.095 1.952L10.11 7.5c-2.072.738-3.408 1.22-4.295 1.693-.424.226-.632.393-.732.498a.3.3 0 0 0-.077.106q.052.034.13.072L8.6 11.58q.089.046.178.088m-1.064 1.706c.964.476 1.446.714 1.82 1.087.372.373.61.855 1.086 1.819l1.71 3.465c.266.537.672 1.031 1.252 1.18.35.09.69.098 1.036.02 1.612-.363 2.328-2.371 3.76-6.388l.422-1.185c1.963-5.507 2.944-8.26 1.513-9.691-1.43-1.431-4.184-.45-9.69 1.513l-1.186.423C5.42 7.048 3.413 7.764 3.05 9.376c-.077.345-.07.685.02 1.036.15.58.643.985 1.18 1.25z"/></svg>