<svg xmlns="http://www.w3.org/2000/svg" viewBox="0 0 16 16"><path fill-rule="evenodd" d="M2.25 1.5a.75.75 0 0 0 0 1.5h1.028l1.5 1.5H3.535c-.52 0-1.017.311-1.033.83-.026.804.24 1.183.774 1.941.241.344.52.692.836 1.013.403.41.865.774 1.31 1.08.436.302.744.514 1.074.635V12.5H5.25a.75.75 0 0 0 0 1.5h4a.75.75 0 0 0 0-1.5H7.996V9.993c.337-.127.645-.348 1.088-.666.415-.299.847-.65 1.234-1.043.287-.292.55-.607.783-.92A3 3 0 1 0 9 4.5H6.9L4.12 1.719a.75.75 0 0 0-.53-.22zm11.25 3a1.5 1.5 0 0 1-1.583 1.498 2.3 2.3 0 0 0 .08-.692c-.012-.5-.487-.806-.988-.806H10.5a1.5 1.5 0 0 1 3 0M4.22 6c.068.101.158.231.283.408.205.292.432.574.679.824.316.322.699.627 1.091.897.404.279.563.383.694.443.065.03.12.05.277.049a.55.55 0 0 0 .276-.055c.131-.063.29-.17.688-.457.367-.264.73-.56 1.04-.877.234-.237.454-.501.658-.775.147-.198.253-.343.333-.457z"/></svg>