<svg xmlns="http://www.w3.org/2000/svg" viewBox="0 0 16 16"><path d="M5.588 9.603a.747.747 0 0 1 .31-1.015c.306-.163.421-.503.342-.827a.9.9 0 1 1 1.046-1.299q.03.044.054.093l.195.403c.528 1.086.133 2.386-.932 2.954a.747.747 0 0 1-1.015-.31M8.9 8.587a.75.75 0 1 0 .7 1.326c1.07-.565 1.465-1.87.936-2.958l-.194-.4a1 1 0 0 0-.06-.102.902.902 0 1 0-1.04 1.315c.075.321-.039.659-.343.82"/><path fill-rule="evenodd" d="M13.968 4.107c.799.794.855 1.385.968 2.568.04.414.064.859.064 1.325v1.054c0 3.132 0 4.687-1.015 5.261a1.4 1.4 0 0 1-.745.185c-.814-.011-1.878-.574-3.499-1.538a39 39 0 0 1-4.963-.099c-1.298-.117-1.947-.175-2.746-.97-.798-.793-.855-1.385-.968-2.566a14 14 0 0 1 0-2.654c.113-1.181.17-1.772.968-2.567.799-.794 1.448-.852 2.747-.97C5.664 3.058 6.739 3 8 3s2.335.057 3.22.137c1.3.117 1.95.175 2.748.97M13.5 8c0-.414-.022-.81-.057-1.183-.061-.64-.094-.903-.16-1.11-.043-.129-.111-.277-.373-.537-.245-.243-.398-.317-.562-.367-.247-.074-.563-.11-1.262-.172C10.246 4.555 9.216 4.5 8 4.5s-2.246.055-3.087.13c-.698.064-1.014.099-1.26.173-.165.05-.318.124-.563.367-.262.26-.33.408-.372.537-.067.207-.1.47-.16 1.11a12.4 12.4 0 0 0 0 2.367c.06.64.093.902.16 1.109.042.129.11.277.372.537.245.243.398.317.563.367.246.074.562.11 1.26.172a37 37 0 0 0 4.76.094l.449-.02.386.23c1.105.657 1.816 1.037 2.336 1.225.214.077.335.098.396.101.036-.068.098-.231.15-.581.106-.718.11-1.747.11-3.364z"/></svg>