<svg xmlns="http://www.w3.org/2000/svg" viewBox="0 0 44 44"><path d="m9.493 8.054-6.999 8.707c-.353.44-.509.974-.494 1.503.015.553.217 1.1.625 1.527l2.525 2.641a1.85 1.85 0 0 0 2.682-.014c.849-.9 2.01-2.117 3.202-3.323A93 93 0 0 0 11 21.688v10.85c0 2.548 1.757 4.747 4.286 5.053 1.83.221 4.14.409 6.713.409s4.883-.187 6.715-.41c2.53-.305 4.286-2.504 4.286-5.053v-10.85c0-.942-.012-1.802-.033-2.588a199 199 0 0 1 3.192 3.317 1.85 1.85 0 0 0 2.683.015l2.526-2.641A2.3 2.3 0 0 0 42 18.264a2.3 2.3 0 0 0-.5-1.503l-6.984-8.703C33.489 6.778 31.81 6 30.172 6h-1.317c-.495.834-1.15 1.562-2.083 2.1-1.252.722-2.824.995-4.772.995-1.947 0-3.519-.273-4.771-.995-.934-.538-1.588-1.266-2.083-2.1h-1.318c-1.637 0-3.308.776-4.335 2.054"/></svg>