<svg xmlns="http://www.w3.org/2000/svg" viewBox="0 0 16 16"><path fill-rule="evenodd" d="M3.452 2.732.668 6.126a.73.73 0 0 0 .077 1.007l1.913 1.716a.67.67 0 0 0 .904-.007c.127-.118.276-.254.438-.4v3.572c0 .927.64 1.727 1.56 1.838.665.08 1.504.148 2.44.148s1.775-.068 2.44-.148c.921-.111 1.56-.912 1.56-1.838V8.44l.439.4a.67.67 0 0 0 .904.008l1.913-1.716a.73.73 0 0 0 .077-1.007l-2.785-3.394A2.05 2.05 0 0 0 10.972 2h-.317c-.19.422-.464.819-.917 1.099-.476.294-1.064.4-1.738.401-.672-.001-1.262-.108-1.737-.401-.453-.28-.727-.677-.917-1.099H5.03c-.595 0-1.19.261-1.577.732m1.185.923c.23.27.495.511.81.712C6.135 4.805 6.977 5 8 5c1.025 0 1.866-.195 2.554-.633.314-.2.58-.441.81-.712l2.342 2.853-.806.723-1.15-1.043a.75.75 0 0 0-1.25.563v5.263c0 .148-.074.328-.24.348-.617.075-1.396.138-2.26.138s-1.643-.063-2.26-.138c-.166-.02-.24-.2-.24-.348V6.76A.76.76 0 0 0 4.75 6a.75.75 0 0 0-.5.188L3.102 7.231l-.806-.723z"/></svg>