<svg xmlns="http://www.w3.org/2000/svg" viewBox="0 0 24 24"><path fill-rule="evenodd" d="M5.177 4.166 1.21 9.304a1 1 0 0 0 .084 1.318l2.63 2.63q.037.037.077.07a1.01 1.01 0 0 0 1.38-.103c.182-.2.392-.427.62-.672v5.475c0 1.397.967 2.6 2.355 2.763.995.117 2.249.215 3.644.215s2.65-.098 3.646-.215C17.032 20.622 18 19.419 18 18.022v-5.471c.226.243.434.47.615.667a1.01 1.01 0 0 0 1.457.034l2.63-2.63a1 1 0 0 0 .085-1.318l-3.96-5.136A3 3 0 0 0 16.456 3h-.455c-.29.551-.69 1.05-1.298 1.41-.723.429-1.62.59-2.704.59s-1.98-.161-2.704-.59C8.687 4.05 8.288 3.55 7.998 3h-.455c-.928 0-1.802.436-2.366 1.166M8.255 6.12a5.1 5.1 0 0 1-1.185-.997 1 1 0 0 0-.31.266L3.33 9.83l1.277 1.278 1.627-1.75A1 1 0 0 1 8 10v8.022c0 .49.312.744.587.777.934.109 2.109.201 3.412.201a30 30 0 0 0 3.413-.201c.276-.033.588-.287.588-.777V10a1 1 0 0 1 1.781-.624l1.608 1.731 1.278-1.278-3.424-4.44a1 1 0 0 0-.312-.266 5.1 5.1 0 0 1-1.187.997C14.742 6.73 13.512 7 12 7s-2.741-.27-3.745-.88"/></svg>