<svg xmlns="http://www.w3.org/2000/svg" viewBox="0 0 32 32"><path d="M6.615 11.458c.212.101.577.002 1.308-.197l1.575-.427v1.416a1.25 1.25 0 0 0 2.5 0v-1.417l1.579.429c.73.198 1.096.297 1.308.196a.65.65 0 0 0 .358-.463c.046-.235-.135-.573-.497-1.249l-3.092-5.773c-.294-.55-.442-.825-.637-.916a.63.63 0 0 0-.534 0c-.195.091-.343.366-.637.915L6.754 9.746c-.362.676-.543 1.014-.497 1.248.04.204.173.376.358.464m-1.238 3.919C5.754 15 6.361 15 7.574 15h6.352c1.213 0 1.82 0 2.197.377s.377.984.377 2.197v5.352c0 1.213 0 1.82-.377 2.197a1 1 0 0 1-.123.104v1.523a1.25 1.25 0 1 1-2.5 0V25.5h-1.072a1.75 1.75 0 0 1-3.356 0H7.995v1.25a1.25 1.25 0 1 1-2.5 0v-1.526a1 1 0 0 1-.118-.101C5 24.746 5 24.139 5 22.926v-5.352c0-1.213 0-1.82.377-2.197m14.296-4.115c-.73.198-1.096.297-1.308.196a.65.65 0 0 1-.358-.464c-.046-.234.135-.572.497-1.248l3.092-5.774c.294-.55.442-.824.637-.915a.63.63 0 0 1 .534 0c.195.091.343.366.637.916l3.092 5.773c.362.676.543 1.014.497 1.249a.65.65 0 0 1-.358.463c-.212.101-.577.002-1.308-.196l-1.579-.43V26.75a1.25 1.25 0 0 1-2.5 0V10.834z"/></svg>