<svg xmlns="http://www.w3.org/2000/svg" viewBox="0 0 44 44"><path d="M20.506 14.95c-.283.131-.77.003-1.744-.254l-2.266-.598v2.4a1.5 1.5 0 1 1-3 0v-2.4l-2.27.598c-.973.257-1.46.385-1.743.254a.85.85 0 0 1-.476-.6c-.062-.303.179-.74.662-1.615l4.12-7.474c.393-.711.59-1.067.85-1.184a.87.87 0 0 1 .712 0c.26.117.456.473.848 1.184l4.121 7.473c.483.875.724 1.313.662 1.616a.85.85 0 0 1-.476.6M7.525 20.527C8.052 20 8.9 20 10.596 20h8.796c1.697 0 2.545 0 3.072.527s.527 1.376.527 3.073v7.3c0 1.697 0 2.546-.527 3.073a1.4 1.4 0 0 1-.475.309V36.5a1.5 1.5 0 1 1-2.998 0v-2h-1.169a3 3 0 0 1-5.656 0h-1.172v2a1.5 1.5 0 1 1-2.998 0v-2.22a1.4 1.4 0 0 1-.471-.307c-.527-.527-.527-1.376-.527-3.073v-7.3c0-1.697 0-2.546.527-3.073m27.243-5.831c.974.257 1.461.385 1.744.254a.85.85 0 0 0 .477-.6c.062-.303-.18-.74-.662-1.616l-4.121-7.473c-.393-.711-.589-1.067-.849-1.184a.87.87 0 0 0-.713 0c-.26.117-.455.473-.848 1.184l-4.121 7.474c-.483.875-.724 1.312-.662 1.615a.85.85 0 0 0 .476.6c.284.131.77.003 1.744-.254l2.268-.598v22.4a1.5 1.5 0 1 0 3.001 0v-22.4z"/></svg>