<svg xmlns="http://www.w3.org/2000/svg" viewBox="0 0 24 24"><path fill-rule="evenodd" d="M6 5a3 3 0 1 1 6 0 3 3 0 0 1-6 0m3-1a1 1 0 1 0 0 2 1 1 0 0 0 0-2m5 9h5.002c1.104 0 1.998.895 1.998 2v2a7 7 0 0 1-.138 1.38c-.28 1.41-1.574 2.263-3.006 2.389-1.35.118-3.307.231-5.856.231s-4.506-.113-5.856-.232c-1.432-.125-2.725-.977-3.005-2.387A7 7 0 0 1 3 17v-2c0-.742.4-1.39 1-1.735.018-.5.057-.95.102-1.35.174-1.55 1.403-2.664 2.956-2.818C7.638 9.04 8.298 9 9.007 9s1.368.04 1.949.097c1.552.154 2.783 1.268 2.957 2.818q.056.493.087 1.085m-2 0q-.028-.47-.072-.861c-.06-.53-.47-.982-1.17-1.051A18 18 0 0 0 9.008 11c-.635 0-1.228.036-1.752.088-.699.069-1.124.52-1.183 1.05Q6.027 12.53 6 13zm-7 4v-2h14v2c0 .348-.039.681-.1.99a.75.75 0 0 1-.313.469 1.8 1.8 0 0 1-.906.317C16.388 18.89 14.491 19 12 19s-4.388-.11-5.681-.224a1.8 1.8 0 0 1-.906-.317.75.75 0 0 1-.313-.468C5.04 17.68 5 17.348 5 17"/></svg>