<svg xmlns="http://www.w3.org/2000/svg" viewBox="0 0 24 24"><path d="M12 1.5a1 1 0 0 1 1 1v1a1 1 0 1 1-2 0v-1a1 1 0 0 1 1-1M21.5 13a1 1 0 1 0 0-2h-1a1 1 0 1 0 0 2zm-18 0a1 1 0 1 0 0-2h-1a1 1 0 1 0 0 2zm2.902-7.8A1.2 1.2 0 1 1 4 5.2a1.2 1.2 0 0 1 2.402 0m12.4 1.196a1.198 1.198 0 1 0 0-2.396 1.198 1.198 0 0 0 0 2.396M12 8a4 4 0 0 0-3.92 4.801 1 1 0 0 1-1.96.398 6 6 0 1 1 11.76 0 1 1 0 1 1-1.96-.398q.079-.388.08-.801a4 4 0 0 0-4-4"/><path fill-rule="evenodd" d="M5.163 15a1 1 0 0 1 .874.513A2.9 2.9 0 0 0 8.58 17a2.92 2.92 0 0 0 2.548-1.487 1 1 0 0 1 1.746 0A2.92 2.92 0 0 0 15.421 17c1.094 0 2.046-.6 2.542-1.487a1 1 0 0 1 .874-.513c.605 0 1.089.568.985 1.17-.197 2.264-1.029 4.66-3.408 5.401-1.375.429-2.983.43-4.415.43-1.433 0-3.039-.001-4.415-.43-2.4-.748-3.21-3.143-3.409-5.42A1.014 1.014 0 0 1 5.163 15m10.258 4c.592 0 1.16-.104 1.685-.296-.348.407-.768.796-1.287.958-1.136.354-2.644.34-3.82.34-1.227 0-2.64.027-3.82-.34-.516-.161-.94-.553-1.287-.959A4.9 4.9 0 0 0 8.579 19 4.9 4.9 0 0 0 12 17.62 4.9 4.9 0 0 0 15.42 19"/></svg>