<svg xmlns="http://www.w3.org/2000/svg" viewBox="0 0 16 16"><path d="M8 1a.75.75 0 0 0-.75.75v.5a.75.75 0 0 0 1.5 0v-.5A.75.75 0 0 0 8 1M3.464 4.365a.9.9 0 1 1 0-1.8.9.9 0 0 1 0 1.8m9.071 0a.9.9 0 1 0 0-1.8.9.9 0 0 0 0 1.8m-.552 3.27a2.24 2.24 0 0 0-1.23 1.08.6.6 0 0 1-.203.238.3.3 0 0 1-.164.05c-.1 0-.27-.06-.389-.288a2.25 2.25 0 0 0-3.995 0c-.119.229-.29.288-.39.288a.3.3 0 0 1-.162-.05.6.6 0 0 1-.203-.238 2.24 2.24 0 0 0-1.231-1.08 4 4 0 0 1 7.967 0M15 7.25a.75.75 0 0 0-.75-.75h-.5a.75.75 0 0 0 0 1.5h.5a.75.75 0 0 0 .75-.75M2.25 6.5a.75.75 0 0 1 0 1.5h-.5a.75.75 0 0 1 0-1.5z"/><path fill-rule="evenodd" d="M8 9c.28 0 .538.156.667.405.35.674 1.004 1.098 1.72 1.098.71 0 1.345-.417 1.698-1.098a.75.75 0 0 1 1.41.442q-.03.614-.076 1.144c-.12 1.409-.179 2.113-.971 2.918-.793.804-1.477.872-2.845 1.009C9.094 14.968 8.552 15 8 15s-1.093-.032-1.602-.083c-1.368-.137-2.052-.205-2.845-1.01-.792-.804-.852-1.508-.97-2.917q-.046-.53-.077-1.144a.75.75 0 0 1 1.41-.442c.353.681.988 1.098 1.697 1.098.717 0 1.372-.424 1.721-1.098A.75.75 0 0 1 8 9"/></svg>