<svg xmlns="http://www.w3.org/2000/svg" viewBox="0 0 44 44"><path fill-rule="evenodd" d="M29.126 35.721c3.723-.305 5.584-.458 7.966-2.854s2.516-4.147 2.784-7.648a42 42 0 0 0 0-6.437c-.268-3.502-.401-5.253-2.784-7.648-2.382-2.396-4.243-2.549-7.965-2.855A87 87 0 0 0 22 8c-2.712 0-5.088.112-7.125.28-3.723.305-5.585.458-7.968 2.854s-2.516 4.148-2.783 7.651A42 42 0 0 0 4 22c0 1.122.046 2.198.124 3.215.267 3.504.4 5.255 2.783 7.652 2.383 2.396 4.245 2.549 7.969 2.854 2.036.167 4.412.28 7.124.28 2.713 0 5.09-.113 7.126-.28M9.035 13.25l-2.128-2.115 1.064 1.057zc.895-.9 1.541-1.247 2.23-1.458.855-.261 1.893-.36 3.856-.522A84 84 0 0 1 22 11c2.63 0 4.925.109 6.881.27 1.962.16 3 .26 3.853.521.69.211 1.335.557 2.23 1.458.92.923 1.253 1.555 1.448 2.183.244.785.331 1.726.473 3.578a39 39 0 0 1 0 5.98c-.142 1.852-.23 2.793-.473 3.578-.195.628-.529 1.26-1.447 2.184-.896.9-1.542 1.246-2.231 1.457-.854.261-1.891.361-3.853.522-1.956.16-4.25.27-6.881.27a84 84 0 0 1-6.879-.27c-1.963-.16-3-.26-3.855-.522-.69-.21-1.336-.557-2.231-1.458-.919-.923-1.252-1.555-1.447-2.184-.244-.785-.332-1.727-.473-3.58A39 39 0 0 1 7 22c0-1.04.043-2.04.115-2.987.141-1.853.229-2.794.473-3.58.195-.629.528-1.26 1.447-2.184M20.92 25.788q.304-.672.304-1.616 0-.848-.288-1.392a2.35 2.35 0 0 0-.736-.896 3.3 3.3 0 0 0-1.04-.544 9 9 0 0 0-1.184-.304 25 25 0 0 0-1.2-.192 6.6 6.6 0 0 1-1.04-.224 2.2 2.2 0 0 1-.736-.384q-.272-.24-.272-.672 0-.688.464-.96.48-.272 1.296-.272.768 0 1.232.256.48.256.544 1.008h2.752q-.032-.896-.368-1.536a2.7 2.7 0 0 0-.912-1.04q-.593-.4-1.424-.576a8 8 0 0 0-1.824-.192q-2.047 0-3.216.816-1.152.8-1.152 2.528 0 .88.272 1.456.288.576.736.944.465.352 1.04.544.593.175 1.184.288.608.096 1.184.176.592.08 1.04.224.465.145.736.4.288.255.288.704 0 .752-.528 1.024-.512.272-1.424.272-.448 0-.816-.064a1.7 1.7 0 0 1-.608-.256 1.24 1.24 0 0 1-.384-.48q-.145-.305-.16-.768h-2.75q.08 1.967 1.296 2.816 1.232.832 3.44.832 1.073 0 1.92-.208.848-.191 1.44-.608.592-.432.896-1.104m8.21-1.136q-.656.592-2.064.592H25.66v-6.528h1.408q1.408 0 2.064.624.657.608.656 2v1.264q0 1.455-.656 2.048m-6.144-8.192V27.5h4.08q1.377 0 2.4-.304 1.04-.304 1.712-.96.688-.672 1.024-1.712.336-1.056.336-2.544t-.336-2.544-1.024-1.712q-.672-.655-1.712-.96-1.023-.304-2.4-.304z"/></svg>