<svg xmlns="http://www.w3.org/2000/svg" viewBox="0 0 16 16"><path fill-rule="evenodd" d="M4.918 4.63C5.758 4.555 6.786 4.5 8 4.5s2.241.055 3.082.13c.699.063 1.016.098 1.263.173.165.05.319.124.564.368.263.261.332.41.374.54.067.206.1.47.16 1.11a12.5 12.5 0 0 1 0 2.357c-.06.642-.093.905-.16 1.111-.042.13-.11.279-.373.54-.246.244-.4.318-.565.368-.247.075-.564.11-1.263.173-.84.075-1.868.13-3.082.13s-2.242-.055-3.082-.13c-.7-.063-1.016-.098-1.263-.173-.165-.05-.319-.124-.564-.368-.263-.261-.332-.41-.374-.54-.067-.206-.099-.469-.16-1.11a12.5 12.5 0 0 1 0-2.358c.061-.641.093-.904.16-1.11.042-.13.111-.279.374-.54.245-.244.4-.318.564-.368.247-.075.564-.11 1.263-.173M8 13a36 36 0 0 0 3.216-.136c1.3-.117 1.951-.176 2.751-.972s.857-1.388.97-2.572a14 14 0 0 0 0-2.64c-.113-1.184-.17-1.776-.97-2.572s-1.45-.855-2.751-.972A36 36 0 0 0 8 3c-1.26 0-2.332.057-3.217.136-1.3.117-1.95.176-2.75.972-.8.795-.857 1.387-.97 2.57a14 14 0 0 0 0 2.644c.113 1.183.17 1.775.97 2.57.8.796 1.45.855 2.75.972A36 36 0 0 0 8 13m-.498-3.642q.114-.252.114-.606 0-.318-.108-.522a.9.9 0 0 0-.276-.336 1.3 1.3 0 0 0-.39-.204 3 3 0 0 0-.444-.114 10 10 0 0 0-.45-.072 2.5 2.5 0 0 1-.39-.084.8.8 0 0 1-.276-.144.32.32 0 0 1-.102-.252q0-.258.174-.36.18-.102.486-.102.288 0 .462.096.18.096.204.378h1.032A1.3 1.3 0 0 0 7.4 6.46q-.12-.24-.342-.39a1.5 1.5 0 0 0-.534-.216 3 3 0 0 0-.684-.072q-.768 0-1.206.306-.432.3-.432.948 0 .33.102.546.108.216.276.354.174.132.39.204.222.066.444.108.228.036.444.066.222.03.39.084a.7.7 0 0 1 .276.15.34.34 0 0 1 .108.264q0 .282-.198.384-.192.102-.534.102-.168 0-.306-.024a.7.7 0 0 1-.228-.096.46.46 0 0 1-.144-.18.7.7 0 0 1-.06-.288H4.13q.03.738.486 1.056.462.312 1.29.312.402 0 .72-.078.318-.072.54-.228.222-.162.336-.414m3.078-.426q-.246.222-.774.222h-.528V6.706h.528q.528 0 .774.234.246.228.246.75v.474q0 .546-.246.768M8.276 5.86V10h1.53q.516 0 .9-.114.39-.114.642-.36.258-.252.384-.642a3.2 3.2 0 0 0 .126-.954q0-.558-.126-.954a1.5 1.5 0 0 0-.384-.642 1.5 1.5 0 0 0-.642-.36 3.2 3.2 0 0 0-.9-.114z"/></svg>