<svg xmlns="http://www.w3.org/2000/svg" viewBox="0 0 44 44"><path fill-rule="evenodd" d="M29.126 35.721c-2.037.167-4.413.28-7.126.28s-5.088-.113-7.124-.28c-3.724-.305-5.586-.458-7.969-2.854s-2.516-4.148-2.783-7.652A42 42 0 0 1 4 22c0-1.121.046-2.198.124-3.215.267-3.503.4-5.255 2.783-7.651s4.245-2.55 7.968-2.855A87 87 0 0 1 22 8c2.713 0 5.09.112 7.127.28 3.722.305 5.583.458 7.965 2.854 2.383 2.395 2.516 4.146 2.784 7.648a42 42 0 0 1 0 6.437c-.268 3.501-.401 5.252-2.784 7.648s-4.243 2.549-7.966 2.854m-8.205-9.933q.304-.672.304-1.616 0-.848-.288-1.392a2.35 2.35 0 0 0-.736-.896 3.3 3.3 0 0 0-1.04-.544 9 9 0 0 0-1.184-.304 26 26 0 0 0-1.2-.192 6.6 6.6 0 0 1-1.04-.224 2.2 2.2 0 0 1-.736-.384q-.272-.24-.272-.672 0-.688.464-.96.48-.272 1.296-.272.768 0 1.232.256.48.256.544 1.008h2.752q-.032-.896-.368-1.536a2.7 2.7 0 0 0-.912-1.04q-.593-.4-1.424-.576a8 8 0 0 0-1.824-.192q-2.047 0-3.216.816-1.152.8-1.152 2.528 0 .88.272 1.456.288.576.736.944.465.352 1.04.544.593.175 1.184.288.608.096 1.184.176a6 6 0 0 1 1.04.224q.465.145.736.4.288.255.288.704 0 .752-.528 1.024-.512.272-1.424.272-.448 0-.816-.064a1.7 1.7 0 0 1-.608-.256 1.24 1.24 0 0 1-.384-.48q-.145-.305-.16-.768H11.93q.08 1.967 1.296 2.816 1.232.832 3.44.832 1.073 0 1.92-.208.848-.191 1.44-.608.592-.432.896-1.104m8.21-1.136q-.656.592-2.064.592H25.66v-6.528h1.408q1.408 0 2.064.624.657.608.656 2v1.264q0 1.455-.656 2.048m-6.144-8.192V27.5h4.08q1.377 0 2.4-.304 1.04-.304 1.712-.96.688-.672 1.024-1.712.336-1.056.336-2.544t-.336-2.544-1.024-1.712q-.672-.655-1.712-.96-1.023-.304-2.4-.304z"/></svg>