<svg xmlns="http://www.w3.org/2000/svg" viewBox="0 0 24 24"><path fill-rule="evenodd" d="M7.945 4.168A47 47 0 0 1 12 4c1.55 0 2.902.068 4.055.168 2.025.175 3.037.263 4.327 1.557s1.37 2.265 1.532 4.207a25 25 0 0 1 0 4.137c-.162 1.941-.243 2.912-1.532 4.206s-2.302 1.382-4.327 1.557c-1.153.1-2.505.168-4.055.168a47 47 0 0 1-4.055-.168c-2.024-.175-3.036-.263-4.326-1.557S2.25 16.01 2.087 14.07a25 25 0 0 1 0-4.14c.162-1.94.243-2.911 1.532-4.205s2.302-1.381 4.326-1.557m3.307 9.868q.171-.378.171-.909 0-.477-.162-.783a1.3 1.3 0 0 0-.414-.504 1.9 1.9 0 0 0-.585-.306 5 5 0 0 0-.666-.17 14 14 0 0 0-.675-.109 4 4 0 0 1-.585-.126 1.2 1.2 0 0 1-.414-.216.48.48 0 0 1-.153-.378q0-.387.261-.54.27-.153.73-.153.43 0 .692.144.27.144.306.567h1.548a2 2 0 0 0-.207-.864 1.5 1.5 0 0 0-.513-.585 2.3 2.3 0 0 0-.8-.324 4.5 4.5 0 0 0-1.027-.108q-1.151 0-1.809.46-.648.45-.648 1.421 0 .495.153.82.162.323.414.53.262.198.585.306.333.099.666.162.342.054.666.1.333.045.585.125.261.082.414.225a.5.5 0 0 1 .162.396q0 .423-.297.576-.288.153-.8.153-.253 0-.46-.036a1 1 0 0 1-.342-.144.7.7 0 0 1-.216-.27 1.1 1.1 0 0 1-.09-.432H6.194q.045 1.107.73 1.584.692.468 1.934.468.603 0 1.08-.117.477-.108.81-.342.333-.243.504-.62m1.162-5.247V15h2.295q.774 0 1.35-.17.585-.173.963-.54.387-.38.576-.964.19-.594.19-1.43 0-.838-.19-1.432a2.24 2.24 0 0 0-.576-.963 2.26 2.26 0 0 0-.963-.54 4.8 4.8 0 0 0-1.35-.17zm3.456 4.608q-.37.333-1.16.333h-.793v-3.672h.792q.792 0 1.161.351.37.342.37 1.125v.711q0 .819-.37 1.152"/></svg>