<svg xmlns="http://www.w3.org/2000/svg" viewBox="0 0 24 24"><path fill-rule="evenodd" d="M9.995 19.1v1.902a.998.998 0 0 1-1.995 0l.005-9.502c0-1.857 0-4.834 1.114-6.176C9.783 4.523 10.833 4 12.487 4q1.742 0 2.816.856 1.073.855 1.073 2.252 0 1.122-.688 2.068-.69.945-2.056 1.716 1.812.54 2.84 1.677 1.028 1.136 1.028 2.6c0 1.261-.464 2.311-1.393 3.12q-1.392 1.21-3.57 1.211a8.2 8.2 0 0 1-2.542-.4m0-1.718q1.449.618 2.563.618 1.225 0 2.081-.832c.57-.554.856-1.143.856-1.923q0-1.482-1.185-2.376c-.637-.48-1.448-.742-2.432-.835l-.163-.015c-.394-.031-.715-.34-.715-.735s.325-.686.712-.77q.075-.015.166-.038.837-.212 1.515-.9.978-.994.978-2.315 0-.923-.507-1.388-.506-.465-1.509-.466-1.184 0-1.772.884t-.588 2.643z"/></svg>