<svg xmlns="http://www.w3.org/2000/svg" viewBox="0 0 16 16"><path fill-rule="evenodd" d="M6.5 12.715v1.54a.745.745 0 1 1-1.49 0V7.34C5.01 5.35 4.655 2 8.31 2c.855 0 1.372.182 1.899.59q.79.61.79 1.609 0 .8-.507 1.477c-.338.45-.669.859-1.34 1.226q1.335.387 2.09 1.198c.505.541.757 1.109.757 1.806 0 .9-.342 1.65-1.025 2.228Q9.951 13 8.348 13a6 6 0 0 1-1.848-.285m0-1.228c.71.294 1.317.441 1.863.441q.902 0 1.532-.594c.42-.396.63-.817.63-1.374 0-.706-.291-1.22-.872-1.646-.47-.343-.92-.504-1.645-.57a.56.56 0 0 1-.508-.538.6.6 0 0 1 .146-.375 1.1 1.1 0 0 1 .347-.249c.846-.43 1.531-1.302 1.531-2.274C9.524 3.39 9.09 3 8.214 3c-.581 0-1.016.194-1.304.615s-.41 1.05-.41 1.888z"/></svg>