<svg xmlns="http://www.w3.org/2000/svg" viewBox="0 0 24 24"><path d="M13.596 9.423C14.186 8.942 15 8.276 15 7a3 3 0 1 0-5.988.264c.103 1.106.844 1.712 1.392 2.16.334.272.596.486.596.719 0 .266-.384.439-.935.687-1.092.491-1.924 1.037-2.76 1.943-.598.65-.925 1.167-.994 1.348-.202.533-.262.774-.286.909-.021.122-.025.215-.025.57 0 1.36.016 1.658.068 1.853.19.724.755 1.29 1.479 1.48.195.05.492.067 1.853.067H12a1 1 0 0 1 0 2H9.4c-1.235 0-1.853 0-2.36-.133a4.07 4.07 0 0 1-2.907-2.907C4 17.453 4 16.835 4 15.6c0-.683 0-1.025.441-2.188.37-.975 1.782-2.559 2.932-3.39q.22-.16.421-.278l-.06-.117-.072-.14A5 5 0 0 1 7 7a5 5 0 1 1 9.327 2.508l-.061.12-.06.116a5 5 0 0 1 .42.277c.3.217.617.484.93.78.174.18.28.428.28.699a1 1 0 0 1-1.739.675c-.658-.606-1.353-.98-2.163-1.345-.55-.248-.934-.421-.934-.687 0-.233.261-.447.596-.72"/><path fill-rule="evenodd" d="M18.325 22h-.65c-.386 0-.578 0-.718-.118s-.17-.3-.233-.667l-.012-.071a.26.26 0 0 0-.146-.192 3 3 0 0 1-.405-.234.26.26 0 0 0-.24-.03l-.067.024c-.348.13-.523.194-.694.131-.172-.062-.268-.228-.46-.561l-.326-.564c-.193-.334-.29-.5-.257-.68s.175-.299.46-.536l.057-.047a.26.26 0 0 0 .093-.222 3 3 0 0 1 0-.466.26.26 0 0 0-.093-.222l-.057-.047c-.286-.238-.429-.356-.46-.536-.033-.18.063-.346.255-.68l.326-.564c.193-.333.289-.5.46-.562.173-.062.347.002.695.131l.07.026c.08.03.168.017.239-.03q.192-.132.404-.234a.26.26 0 0 0 .146-.192l.012-.072c.062-.366.094-.55.233-.667.14-.118.332-.118.717-.118h.651c.385 0 .577 0 .717.118s.17.3.233.667l.013.072c.014.084.07.154.146.192q.211.102.404.233c.07.048.16.06.24.031l.067-.025c.349-.129.523-.193.695-.131s.268.228.46.562l.326.564c.192.333.288.5.256.68s-.175.298-.46.535l-.056.046a.26.26 0 0 0-.093.222 3 3 0 0 1 0 .468.26.26 0 0 0 .093.222l.056.047c.286.237.43.356.461.536.033.18-.064.346-.256.68l-.326.563c-.192.334-.288.5-.46.562s-.346-.002-.695-.13l-.069-.026a.26.26 0 0 0-.239.03 3 3 0 0 1-.404.234.26.26 0 0 0-.146.192l-.012.071c-.063.366-.094.55-.234.667-.14.118-.332.118-.717.118m.922-3.891c-.01.374-.016.561-.297.842s-.468.287-.842.297a4 4 0 0 1-.218 0c-.374-.01-.561-.016-.843-.297-.28-.28-.286-.468-.297-.842a4 4 0 0 1 0-.218c.011-.374.016-.561.297-.842.282-.281.469-.287.843-.297a4 4 0 0 1 .218 0c.374.01.56.016.842.297s.287.468.297.842a4 4 0 0 1 0 .218"/></svg>