<svg xmlns="http://www.w3.org/2000/svg" viewBox="0 0 16 16"><path fill-rule="evenodd" d="m3.51 6.67.02.011C4.506 7.268 5 7.564 5 8s-.493.732-1.47 1.319l-.02.011-.304.183c-.977.586-1.468.879-1.837.67C1 9.973 1 9.404 1 8.266v-.532c0-1.138 0-1.708.369-1.917s.86.084 1.837.67zm5 0 .02.011C9.506 7.268 10 7.564 10 8s-.493.732-1.47 1.319l-.02.011-.304.183c-.977.586-1.468.879-1.837.67C6 9.973 6 9.404 6 8.266v-.532c0-1.138 0-1.708.369-1.917s.86.084 1.837.67zm5.02.011-.02-.011-.304-.183c-.977-.586-1.468-.879-1.837-.67C11 6.027 11 6.596 11 7.734v.532c0 1.138 0 1.708.369 1.917s.86-.084 1.837-.67l.304-.183.02-.011C14.506 8.732 15 8.436 15 8s-.493-.732-1.47-1.319"/></svg>