<svg xmlns="http://www.w3.org/2000/svg" viewBox="0 0 16 16"><path fill-rule="evenodd" d="M7.088 11.013c.747 0 1.453-.174 2.077-.482L6.036 7.456c-.302.268-.567.48-.785.64-.276.206-.414.308-.673.313-.26.004-.397-.09-.672-.28a6.3 6.3 0 0 1-.837-.69 12 12 0 0 1-.575-.606c-.329-.372-.493-.557-.494-.85-.001-.291.164-.48.493-.857.279-.319.644-.713 1.097-1.158.254-.25.436-.391.55-.467a.5.5 0 0 1 .128-.062.7.7 0 0 1 .181-.047c.551-.078 2.307-.295 2.672.064.18.178.404.465.602.741.248.344.372.516.366.774-.005.26-.128.415-.374.726q-.241.31-.62.722l3.292 3.235a4.44 4.44 0 0 0 1.309-3.147c0-2.104-1.473-3.87-3.465-4.367-.078-.02-.071-.14.01-.14C11.42 2 14 4.522 14 7.633c0 1.538-.63 2.932-1.652 3.949l1.184 1.164a.726.726 0 0 1 0 1.039.757.757 0 0 1-1.057 0l-1.316-1.294a5.83 5.83 0 0 1-2.919.776 5.83 5.83 0 0 1-3.19-.942l-1.485 1.46a.757.757 0 0 1-1.057 0 .726.726 0 0 1 0-1.04l2.522-2.478s.12.229.486.477c.366.249 1.02.27 1.572.27"/></svg>