<svg xmlns="http://www.w3.org/2000/svg" viewBox="0 0 44 44"><path fill-rule="evenodd" d="M25.779 27.749a10.34 10.34 0 0 1-5.73 1.73c-1.494 0-3.049-.102-4.049-.893-1-.79-1.5-1.367-1.5-1.367l-6.56 6.675a1.545 1.545 0 0 0 0 2.159 1.48 1.48 0 0 0 2.12 0l4.166-4.239c2.302 1.974 5.258 3.16 8.482 3.16 2.864 0 5.516-.936 7.686-2.529l3.545 3.608a1.48 1.48 0 0 0 2.122 0 1.546 1.546 0 0 0 0-2.159l-3.443-3.502C34.721 27.962 36 24.753 36 21.237 36 13.65 30.049 7.5 22.708 7.5c-.19 0-.206.292-.023.34 4.598 1.212 7.998 5.52 7.998 10.65a11.16 11.16 0 0 1-2.64 7.246l-7.67-7.804q.596-.654 1.066-1.219c.977-1.171 1.466-1.757 1.488-2.841s-.448-1.7-1.39-2.93a9 9 0 0 0-.71-.84c-.845-.86-4.869-.295-6.413-.04a2.2 2.2 0 0 0-.658.197c-.334.145-.378.178-.466.245-.286.218-.694.566-1.232 1.114a60 60 0 0 0-1.872 1.992c-1.272 1.419-1.909 2.128-1.894 3.333s.64 1.87 1.893 3.198q.186.199.384.4c.396.403.796.76 1.178 1.071.905.737 1.358 1.106 2.422 1.098 1.064-.007 1.552-.416 2.528-1.233a35 35 0 0 0 1.555-1.387z"/></svg>