<svg xmlns="http://www.w3.org/2000/svg" viewBox="0 0 24 24"><path fill-rule="evenodd" d="M13.861 15.275A6 6 0 0 1 11 16c-.66 0-1.39-.096-2-.5a4.5 4.5 0 0 1-1-.914l-3.707 3.707a1 1 0 1 0 1.414 1.414l2.244-2.244A7.47 7.47 0 0 0 12.5 19a7.47 7.47 0 0 0 3.958-1.128l1.835 1.835a1 1 0 0 0 1.414-1.414l-1.7-1.7A7.5 7.5 0 0 0 12.5 4c-.106-.001-.115.159-.013.185a6.003 6.003 0 0 1 2.957 9.845l-4.36-4.36q.172-.186.325-.36c.68-.77 1.02-1.155 1.021-1.909.002-.754-.315-1.116-.948-1.84a3 3 0 0 0-.154-.166c-.462-.461-2.653-.144-3.563.012a1.4 1.4 0 0 0-.43.134c-.226.099-.252.12-.306.161-.16.124-.378.312-.66.593a35 35 0 0 0-.9.933c-.74.799-1.111 1.198-1.157 1.91a3 3 0 0 0 .006.327c.072.71.432 1.069 1.151 1.788q.207.205.41.382c.554.478.831.717 1.572.72.74.001 1.056-.268 1.687-.807q.249-.21.529-.467z"/></svg>