<svg xmlns="http://www.w3.org/2000/svg" viewBox="0 0 16 16"><path fill-rule="evenodd" d="M9.165 10.53a4.7 4.7 0 0 1-2.077.483c-.552 0-1.206-.02-1.572-.269-.366-.248-.486-.477-.486-.477l-2.522 2.479a.726.726 0 0 0 0 1.039.757.757 0 0 0 1.057 0l1.486-1.46c.913.595 2.01.942 3.19.942a5.83 5.83 0 0 0 2.918-.776l1.316 1.294a.757.757 0 0 0 1.057 0 .726.726 0 0 0 0-1.04l-1.184-1.163A5.55 5.55 0 0 0 14 7.633C14 4.523 11.421 2 8.24 2c-.08 0-.087.12-.01.14 1.993.497 3.466 2.263 3.466 4.367 0 1.224-.5 2.334-1.31 3.147l-3.29-3.235c.253-.273.457-.516.62-.722.245-.311.368-.467.373-.726s-.118-.43-.366-.774a6 6 0 0 0-.602-.74c-.365-.36-2.12-.143-2.672-.065a.7.7 0 0 0-.18.047.5.5 0 0 0-.13.062 4 4 0 0 0-.55.467c-.452.445-.817.84-1.096 1.158-.33.377-.494.566-.493.858s.165.477.494.849c.169.19.362.397.575.607.292.287.586.516.837.689.275.19.412.284.672.28.26-.005.397-.107.673-.312.218-.162.483-.373.785-.641zM4.55 6.77c.267-.21.604-.499.993-.881.378-.372.666-.695.878-.954a8 8 0 0 0-.158-.207 5 5 0 0 0-.357 0c-.378.014-.782.058-1.061.094a4 4 0 0 0-.2.185c-.374.368-.682.697-.925.971q.187.207.405.422c.143.14.288.264.425.37"/></svg>