<svg xmlns="http://www.w3.org/2000/svg" viewBox="0 0 16 16"><path fill-rule="evenodd" d="M10.249 2a3.75 3.75 0 0 1 3.75 3.7 3.752 3.752 0 0 1-1.5 6.086v1.464a.75.75 0 0 1-.75.75H8.75a.75.75 0 0 1-.75-.75v-1.464a3.752 3.752 0 0 1-1.502-6.083A3.75 3.75 0 0 1 10.25 2m-.75 9.992v.508H11V5.75a.75.75 0 0 0-1.5 0v1.793a.75.75 0 0 0-.78 1.237l.78.78z"/><path d="M1.75 7.5a.75.75 0 0 1 .75.75V10h2.25a.75.75 0 0 1 .75.75v2.5a.75.75 0 0 1-1.5 0V11.5H2.365l-.38 1.897a.75.75 0 1 1-1.47-.294L1 10.676V8.25a.75.75 0 0 1 .75-.75"/></svg>