<svg xmlns="http://www.w3.org/2000/svg" viewBox="0 0 24 24"><path fill-rule="evenodd" d="M16 17.978q.248.021.5.022a5.5 5.5 0 0 0 3.996-9.28q.004-.11.004-.22a5.5 5.5 0 1 0-10.995.22A5.5 5.5 0 0 0 14 17.977V21h2zm2.464-8.495.034-.841.002-.142a3.5 3.5 0 1 0-6.997.142l.033.841-.579.612A3.5 3.5 0 0 0 14 15.965v-1.55l-1.707-1.708a1 1 0 0 1 1.414-1.414l.293.293V8a1 1 0 0 1 2 0v7.965q.245.035.5.035a3.5 3.5 0 0 0 2.543-5.905z"/><path d="M3 11a1 1 0 0 1 1 1v3h3a1 1 0 0 1 1 1v4a1 1 0 1 1-2 0v-3H3.781l-.81 3.242a1 1 0 1 1-1.94-.485l.97-3.88V12a1 1 0 0 1 1-1"/></svg>