<svg xmlns="http://www.w3.org/2000/svg" viewBox="0 0 32 32"><path fill-rule="evenodd" d="M27 12.101V11a7 7 0 0 0-14 0v1.1a7.003 7.003 0 0 0 3.25 11.679v2.971c0 .69.56 1.25 1.25 1.25h5c.69 0 1.25-.56 1.25-1.25v-2.97A7.003 7.003 0 0 0 27 12.1m-5.75-1.351a1.25 1.25 0 0 0-2.5 0v5.232l-.616-.616a1.25 1.25 0 1 0-1.768 1.768l2.384 2.384V25.5h2.5z"/><path d="M4.25 15c.69 0 1.25.56 1.25 1.25V20h3.75c.69 0 1.25.56 1.25 1.25v5.5a1.25 1.25 0 0 1-2.5 0V22.5H5.205l-1.249 4.579a1.25 1.25 0 1 1-2.412-.658L3 21.083V16.25c0-.69.56-1.25 1.25-1.25"/></svg>