<svg xmlns="http://www.w3.org/2000/svg" viewBox="0 0 44 44"><path fill-rule="evenodd" d="M36.946 16.521Q37 16.018 37 15.5a9.5 9.5 0 1 0-18.945 1.021A9.48 9.48 0 0 0 15 23.5c0 4.736 3.466 8.663 8 9.382V36.5a1.5 1.5 0 0 0 1.5 1.5h6a1.5 1.5 0 0 0 1.5-1.5v-3.618c4.534-.719 8-4.646 8-9.382a9.48 9.48 0 0 0-3.054-6.979M29 14.5a1.5 1.5 0 0 0-3 0v7.379l-1.44-1.44a1.5 1.5 0 0 0-2.12 2.122L26 26.12V35h3z"/><path d="M5.5 21A1.5 1.5 0 0 1 7 22.5V28h5.5a1.5 1.5 0 0 1 1.5 1.5v7a1.5 1.5 0 0 1-3 0V31H6.632l-1.69 5.912a1.5 1.5 0 1 1-2.884-.824L4 29.29V22.5A1.5 1.5 0 0 1 5.5 21"/></svg>