<svg xmlns="http://www.w3.org/2000/svg" viewBox="0 0 44 44"><path fill-rule="evenodd" d="M29.275 6.324c-2.194-2.136-3.551-2.192-6.266-2.303a25 25 0 0 0-2.018 0c-2.715.111-4.072.167-6.266 2.303-.637.62-1.098 1.2-1.438 1.79-.519.9.272 1.886 1.312 1.886.663 0 1.248-.42 1.668-.933q.222-.272.55-.593c.87-.846 1.36-1.08 1.732-1.195.507-.156 1.103-.2 2.565-.26a22 22 0 0 1 1.772 0c1.462.06 2.059.104 2.565.26.371.115.863.349 1.731 1.195.798.777 1.066 1.298 1.225 1.822.21.695.284 1.55.402 3.3q.06.879.104 1.86c-1.44-.292-3.137-.351-5.337-.428a45 45 0 0 0-3.152 0c-4.817.168-7.225.252-9.793 2.886s-2.588 4.857-2.63 9.304a31 31 0 0 0 0 .564c.042 4.447.063 6.67 2.63 9.304 2.568 2.634 4.976 2.718 9.793 2.886a45 45 0 0 0 3.152 0c4.817-.168 7.225-.252 9.793-2.886s2.588-4.857 2.63-9.304a30 30 0 0 0 0-.564c-.042-4.447-.062-6.67-2.63-9.304a9.5 9.5 0 0 0-1.408-1.205q-.054-1.802-.158-3.315c-.223-3.29-.334-4.934-2.528-7.07M22 18q-.734.001-1.472.026c-2.515.088-3.973.152-5.134.435-.964.235-1.713.622-2.614 1.547-.936.96-1.29 1.693-1.487 2.55-.243 1.055-.27 2.355-.292 4.688a27 27 0 0 0 0 .508c.022 2.333.05 3.633.292 4.687.197.858.551 1.592 1.487 2.55.9.925 1.65 1.313 2.614 1.548 1.161.283 2.619.347 5.134.435a42 42 0 0 0 2.944 0c2.515-.088 3.973-.152 5.134-.435.964-.235 1.713-.623 2.614-1.547.936-.96 1.29-1.693 1.487-2.55.243-1.055.27-2.355.292-4.688a27 27 0 0 0 0-.508c-.022-2.333-.05-3.633-.292-4.687-.197-.858-.551-1.592-1.486-2.55-.902-.926-1.651-1.313-2.615-1.548-1.161-.283-2.619-.347-5.134-.435A42 42 0 0 0 22 18"/><path d="M19 28a3 3 0 1 1 6 0 3 3 0 0 1-6 0"/></svg>