<svg xmlns="http://www.w3.org/2000/svg" viewBox="0 0 44 44"><path d="M33.06 4.94a1.5 1.5 0 0 0-2.12 2.12C33.506 9.629 35 13.209 35 16.5a12.95 12.95 0 0 1-3.808 9.188A12.96 12.96 0 0 1 22 29.495c-3.291 0-6.874-1.49-9.44-4.056a1.5 1.5 0 0 0-2.12 2.122c2.723 2.723 6.403 4.473 10.06 4.855V37h-6.003a1.5 1.5 0 0 0 0 3h15a1.5 1.5 0 0 0 0-3H23.5v-4.575a15.94 15.94 0 0 0 9.814-4.616A15.96 15.96 0 0 0 38 16.5c.001-4.133-1.842-8.464-4.94-11.56"/><path fill-rule="evenodd" d="M32.999 16.499c0 6.075-4.925 11-11 11s-11-4.925-11-11 4.924-11 11-11 11 4.924 11 11"/></svg>