<svg xmlns="http://www.w3.org/2000/svg" viewBox="0 0 24 24"><path d="M7.207 14.043a1 1 0 0 0-1.414 1.414C7.298 16.962 9.085 17.75 11 17.95V20H8a1 1 0 1 0 0 2h8a1 1 0 1 0 0-2h-3v-2.055a8.97 8.97 0 0 0 5.364-2.581A8.98 8.98 0 0 0 21 9c0-2.292-.779-4.443-2.543-6.207a1 1 0 1 0-1.414 1.414C18.403 5.567 19 7.197 19 9a6.98 6.98 0 0 1-2.05 4.95A6.98 6.98 0 0 1 12 16c-1.803 0-3.433-.597-4.793-1.957"/><path fill-rule="evenodd" d="M18 9A6 6 0 1 1 6 9a6 6 0 0 1 12 0m-2 0a4 4 0 1 1-8 0 4 4 0 0 1 8 0"/></svg>