<svg xmlns="http://www.w3.org/2000/svg" viewBox="0 0 32 32"><path d="M24.485 3.366a1.25 1.25 0 1 0-1.767 1.768C24.56 6.977 25.5 9.549 25.5 12a9.47 9.47 0 0 1-2.782 6.718A9.47 9.47 0 0 1 16 21.5c-2.451 0-5.023-.94-6.866-2.782a1.25 1.25 0 0 0-1.768 1.767c2.035 2.036 4.723 3.178 7.384 3.45V26.5H10.5a1.25 1.25 0 1 0 0 2.5h11a1.25 1.25 0 1 0 0-2.5h-4.25v-2.565a11.95 11.95 0 0 0 7.235-3.45A11.97 11.97 0 0 0 28 12c0-3.051-1.16-6.279-3.515-8.634"/><path fill-rule="evenodd" d="M24 12a8 8 0 1 1-16 0 8 8 0 0 1 16 0m-2.5 0a5.5 5.5 0 1 1-11 0 5.5 5.5 0 0 1 11 0"/></svg>