<svg xmlns="http://www.w3.org/2000/svg" viewBox="0 0 16 16"><path d="M12.28 1.72a.75.75 0 1 0-1.06 1.06c.874.875 1.292 2.036 1.28 3.212-.012 1.166-.447 2.32-1.318 3.19a4.55 4.55 0 0 1-3.19 1.318c-1.176.012-2.337-.406-3.212-1.28a.75.75 0 0 0-1.06 1.06 5.88 5.88 0 0 0 3.53 1.682V13.5h-2a.75.75 0 0 0 0 1.5h5.5a.75.75 0 0 0 0-1.5h-2v-1.552a6 6 0 0 0 3.493-1.706c1.17-1.17 1.741-2.707 1.757-4.234.016-1.542-.534-3.103-1.72-4.288"/><path fill-rule="evenodd" d="M12 6a4 4 0 1 1-8 0 4 4 0 0 1 8 0m-1.5 0a2.5 2.5 0 1 1-5 0 2.5 2.5 0 0 1 5 0"/></svg>