<svg xmlns="http://www.w3.org/2000/svg" viewBox="0 0 16 16"><path d="M6.754.5a.75.75 0 0 0 0 1.5H9.25a.75.75 0 0 0 0-1.5zm.716 9.03a.75.75 0 0 1-.22-.56V6.75a.75.75 0 0 1 1.5 0v1.94l1.03 1.03a.75.75 0 0 1 0 1.06.75.75 0 0 1-1.06 0z"/><path fill-rule="evenodd" d="M2.054 7.615c.13-1.744.195-2.616 1.07-3.491s1.747-.94 3.491-1.07C7.067 3.02 7.534 3 8 3s.933.02 1.385.054c1.744.13 2.616.195 3.491 1.07s.94 1.747 1.07 3.491C13.98 8.067 14 8.534 14 9s-.02.933-.054 1.385c-.13 1.744-.195 2.616-1.07 3.491s-1.747.94-3.491 1.07C8.933 14.98 8.466 15 8 15s-.933-.02-1.385-.054c-1.744-.13-2.616-.195-3.491-1.07s-.94-1.747-1.07-3.491A19 19 0 0 1 2 9c0-.466.02-.933.054-1.385M6.727 4.55c.42-.031.85-.05 1.273-.05s.852.019 1.273.05c1.845.137 2.122.214 2.542.635.42.42.498.697.635 2.542.032.42.05.85.05 1.273s-.018.852-.05 1.274c-.137 1.844-.214 2.121-.635 2.541-.42.42-.697.498-2.542.635-.42.032-.85.05-1.273.05s-.852-.018-1.273-.05c-1.845-.137-2.122-.214-2.542-.635-.42-.42-.498-.697-.635-2.541-.031-.422-.05-.85-.05-1.274 0-.423.019-.852.05-1.273.137-1.845.214-2.122.635-2.542.42-.42.697-.498 2.542-.635"/></svg>