<svg xmlns="http://www.w3.org/2000/svg" viewBox="0 0 16 16"><path d="M10.28 2.22a.75.75 0 1 0-1.06 1.06l1.22 1.22-1.22 1.22a.75.75 0 0 0 1.06 1.06l1.22-1.22 1.22 1.22a.75.75 0 1 0 1.06-1.06L12.56 4.5l1.22-1.22a.75.75 0 0 0-1.06-1.06L11.5 3.44zm-5.69.882a1.53 1.53 0 0 0-.876-.067c-.462.103-1.193.352-1.75.94a3.2 3.2 0 0 0-.646.903c-.536 1.153-.35 2.52.224 3.654.459.906 1.246 2.098 2.594 3.447 1.348 1.348 2.426 2.02 3.332 2.479 1.135.574 2.501.76 3.654.224.332-.155.615-.362.91-.65.583-.558.83-1.286.933-1.746.063-.281.04-.61-.067-.877a3.5 3.5 0 0 0-.756-1.153c-.579-.579-.868-.868-1.559-.882-.69-.015-1.03.296-1.708.92a10 10 0 0 0-.574.572l-.238-.202-2.727-2.728-.204-.24c.197-.181.391-.375.572-.573.623-.678.935-1.017.92-1.708-.014-.69-.303-.98-.881-1.557a3.5 3.5 0 0 0-1.153-.756"/></svg>