<svg xmlns="http://www.w3.org/2000/svg" viewBox="0 0 24 24"><path d="M14.707 4.293a1 1 0 1 0-1.414 1.414L15.086 7.5l-1.793 1.793a1 1 0 0 0 1.414 1.414L16.5 8.914l1.793 1.793a1 1 0 0 0 1.414-1.414L17.914 7.5l1.793-1.793a1 1 0 0 0-1.414-1.414L16.5 6.086z"/><path d="M7.387 4.153a2.3 2.3 0 0 0-1.314-.1c-.693.155-1.789.528-2.626 1.408-.428.439-.738.862-.967 1.356-.805 1.73-.526 3.78.335 5.481.688 1.359 1.87 3.148 3.891 5.17s3.64 3.031 4.998 3.719c1.702.861 3.752 1.14 5.481.335.498-.23.923-.543 1.365-.975.874-.836 1.245-1.928 1.4-2.618.094-.421.06-.914-.101-1.315a5.2 5.2 0 0 0-1.135-1.73c-.867-.868-1.301-1.302-2.337-1.324s-1.546.446-2.563 1.38c-.296.272-.588.563-.86.859l-.358-.304-4.09-4.09-.306-.36c.296-.273.587-.564.859-.86.934-1.017 1.401-1.526 1.38-2.562-.023-1.037-.456-1.47-1.323-2.337a5.2 5.2 0 0 0-1.729-1.133"/></svg>