<svg xmlns="http://www.w3.org/2000/svg" viewBox="0 0 24 24"><path fill-rule="evenodd" d="M2.444 6.783c.289-.661.713-1.143 1.017-1.46.43-.454.928-.754 1.369-.953.837-.377 1.75-.5 2.677-.208.836.264 1.458.8 1.898 1.242.291.292.567.595.826.9.158.188.291.362.398.538.29.48.335.964.325 1.275-.011.32-.09.731-.33 1.13-.11.184-.248.369-.413.568a21 21 0 0 1-.612.693l3.868 3.867c.224-.197.455-.4.664-.574.195-.163.39-.315.586-.433.634-.382 1.584-.509 2.414-.004.176.107.35.24.536.4l.07.059c.493.42 1.328 1.128 1.855 2.085a3.2 3.2 0 0 1 .412 1.56c-.001.52-.133.961-.235 1.256-.2.578-.558 1.27-1.13 1.82-.441.432-.866.743-1.362.975-1.735.81-3.796.533-5.515-.34-1.367-.693-2.993-1.711-5.027-3.752-2.078-2.084-3.273-3.922-3.957-5.302-.828-1.668-1.075-3.648-.334-5.342m5.69 2.363-.65.68a1.01 1.01 0 0 0 .015 1.41l5.218 5.217c.372.372.966.394 1.364.05q.266-.231.529-.467c.266-.237.531-.474.804-.7.168-.142.272-.216.336-.255a.35.35 0 0 1 .341-.008c.05.03.133.089.279.213.539.46 1.125.96 1.47 1.587.232.422.191.755.038 1.198-.129.374-.346.765-.632 1.038-.32.314-.564.48-.815.597-1.02.476-2.416.375-3.763-.31-1.194-.605-2.644-1.502-4.517-3.38-1.93-1.937-2.996-3.6-3.582-4.78-.639-1.289-.737-2.637-.293-3.652.148-.338.38-.618.634-.882.205-.218.466-.384.742-.508.955-.43 1.608-.109 2.336.622q.375.376.717.781c.123.146.182.23.212.28a.37.37 0 0 1-.008.342 3 3 0 0 1-.238.32c-.134.161-.299.345-.536.607"/><path d="M14.707 4.293a1 1 0 1 0-1.414 1.414L15.086 7.5l-1.793 1.793a1 1 0 0 0 1.414 1.414L16.5 8.914l1.793 1.793a1 1 0 0 0 1.414-1.414L17.914 7.5l1.793-1.793a1 1 0 0 0-1.414-1.414L16.5 6.086z"/></svg>