<svg xmlns="http://www.w3.org/2000/svg" viewBox="0 0 16 16"><path fill-rule="evenodd" d="M2.033 11.89c-.8-.795-.857-1.387-.97-2.57A15 15 0 0 1 1 7.974V4.515c0-.79 0-1.186.083-1.511A2.67 2.67 0 0 1 3.006 1.08c.325-.083.72-.083 1.511-.083.339 0 .508 0 .67.02.466.057.907.236 1.281.519.131.098.253.216.496.452.448.433.672.65.93.785.096.05.18.085.28.12.277.093.612.106 1.283.13a34 34 0 0 1 1.759.11c1.3.117 1.951.176 2.751.972s.857 1.388.97 2.572a14 14 0 0 1 0 2.64c-.113 1.184-.17 1.776-.97 2.572s-1.45.855-2.751.972c-.884.08-1.957.136-3.216.136s-2.332-.057-3.217-.136c-1.3-.117-1.95-.176-2.75-.972M2.5 7.977c0 .413.021.83.057 1.2.06.641.093.904.16 1.11.042.13.111.279.374.54.245.244.4.318.564.368.247.075.564.11 1.263.173.84.075 1.868.13 3.082.13s2.242-.055 3.082-.13c.699-.063 1.016-.098 1.263-.173.165-.05.319-.124.564-.368.263-.261.332-.41.374-.54.067-.206.1-.47.16-1.11a12.4 12.4 0 0 0 0-2.357c-.06-.641-.093-.905-.16-1.111-.042-.13-.111-.279-.373-.54-.246-.244-.4-.318-.565-.368-.247-.075-.564-.11-1.263-.173a32 32 0 0 0-1.68-.105l-.138-.004c-.526-.019-1.079-.038-1.571-.205a3.4 3.4 0 0 1-.49-.21c-.461-.239-.839-.606-1.193-.951l-.09-.087a5 5 0 0 0-.356-.332 1.17 1.17 0 0 0-.56-.227 5 5 0 0 0-.487-.009c-.883 0-1.043.012-1.14.036a1.17 1.17 0 0 0-.84.842c-.025.096-.037.256-.037 1.14z"/></svg>