<svg xmlns="http://www.w3.org/2000/svg" viewBox="0 0 16 16"><path d="M1.064 9.32c.112 1.183.169 1.775.969 2.57.8.796 1.45.855 2.75.972.885.08 1.958.136 3.217.136s2.332-.057 3.216-.136c1.3-.117 1.951-.176 2.751-.972s.857-1.388.97-2.572a14 14 0 0 0 0-2.64c-.113-1.184-.17-1.776-.97-2.572s-1.45-.855-2.751-.972a34 34 0 0 0-1.76-.11c-.67-.024-1.005-.037-1.281-.13a2 2 0 0 1-.28-.12c-.26-.135-.483-.352-.931-.785a5 5 0 0 0-.496-.452 2.67 2.67 0 0 0-1.28-.519c-.163-.02-.332-.02-.67-.02-.792 0-1.187 0-1.512.083a2.67 2.67 0 0 0-1.923 1.923C1 3.329 1 3.724 1 4.515v3.459c0 .465.024.932.064 1.346"/></svg>