<svg xmlns="http://www.w3.org/2000/svg" viewBox="0 0 24 24"><path d="M4.398 5.417a1 1 0 0 1-.796-1.835C5.5 2.76 8.433 1.999 12 1.999s6.501.76 8.399 1.583a1 1 0 1 1-.796 1.835C17.957 4.704 15.294 3.999 12 3.999s-5.956.705-7.601 1.418"/><path fill-rule="evenodd" d="M3 15a1 1 0 0 0 0 2h1v.111c0 1.619 0 2.428.539 3.005.538.576 1.302.628 2.83.732A68 68 0 0 0 12 21c1.827 0 3.388-.067 4.632-.152 1.527-.104 2.291-.156 2.83-.732C20 19.539 20 18.73 20 17.11V17h1a1 1 0 1 0 0-2h-5.001V7.998a1 1 0 0 0-1-.998h-6A1 1 0 0 0 8 7.998V15zm7 0h3v-4.5L10 9zm-4 2.11V17h12v.111c0 .856-.005 1.297-.046 1.602-.112.022-.27.044-.504.067-.26.025-.564.046-.954.073a66 66 0 0 1-4.496.146 66 66 0 0 1-5.45-.219 5 5 0 0 1-.504-.067C6.004 18.408 6 17.967 6 17.11"/></svg>