<svg xmlns="http://www.w3.org/2000/svg" viewBox="0 0 16 16"><path d="M3.048 3.439a.75.75 0 1 1-.596-1.377C3.722 1.512 5.607 1 8 1s4.277.511 5.548 1.062a.75.75 0 1 1-.596 1.376C11.862 2.966 10.18 2.5 8 2.5s-3.861.466-4.952.938"/><path fill-rule="evenodd" d="M10.499 5.166V10h3.751a.75.75 0 0 1 0 1.5h-.75c0 1.014-.014 1.534-.36 1.903-.358.385-.877.42-1.916.49C10.352 13.954 9.26 14 8 14c-1.259 0-2.351-.047-3.223-.106-1.039-.07-1.558-.106-1.917-.49-.345-.37-.358-.89-.359-1.904h-.75a.75.75 0 1 1 0-1.5H5.5V5.166c0-.368.298-.666.667-.666h3.665c.368 0 .667.298.667.666M8.5 10H7V6l1.5.75z"/></svg>