<svg xmlns="http://www.w3.org/2000/svg" viewBox="0 0 24 24"><path fill-rule="evenodd" d="M3 4a1 1 0 0 0-1 1v15a1 1 0 1 0 2 0v-1h16v1a1 1 0 1 0 2 0v-7q0-.337-.014-.67c-.064-1.597-.096-2.395-.767-3.175-.67-.78-1.457-.836-3.03-.95A87 87 0 0 0 12 8q-.537 0-1.044.005A3.5 3.5 0 1 0 6.05 13H4V5a1 1 0 0 0-1-1m9 6.5q0-.255-.035-.5h.034c2.529 0 4.551.093 6.047.2.404.03.708.052.969.08.473.052.751.038.854.55.062.307.084.724.119 1.58q.012.297.012.59h-8zm-2 0a1.5 1.5 0 1 1-3 0 1.5 1.5 0 0 1 3 0M4 15v2h16v-2z"/></svg>