<svg xmlns="http://www.w3.org/2000/svg" viewBox="0 0 44 44"><path fill-rule="evenodd" d="M23.5 5.5a1.5 1.5 0 0 0-3 0V8a1.5 1.5 0 0 0 3 0zM22 15c-3.943 0-7 2.74-7 7.083 0 2.01 1.377 3.562 3.731 5.762A4 4 0 0 1 20 30.766v.734h4v-.734c0-1.112.462-2.167 1.269-2.92 2.354-2.2 3.731-3.752 3.731-5.763C29 17.741 25.943 15 22 15m5.317 15.037C29.518 27.98 32 25.581 32 22.083 32 16.008 27.523 12 22 12s-10 4.008-10 10.083c0 3.498 2.482 5.897 4.683 7.954a1 1 0 0 1 .317.73V32a2.5 2.5 0 0 0 2.5 2.5h5A2.5 2.5 0 0 0 27 32v-1.234c0-.277.115-.54.317-.729M17 38.5a1.5 1.5 0 0 1 1.5-1.5h7a1.5 1.5 0 0 1 0 3h-7a1.5 1.5 0 0 1-1.5-1.5M4 22a1.5 1.5 0 0 1 1.5-1.5H8a1.5 1.5 0 0 1 0 3H5.5A1.5 1.5 0 0 1 4 22m32-1.5a1.5 1.5 0 0 0 0 3h2.5a1.5 1.5 0 0 0 0-3zM12 10a2 2 0 1 1-4 0 2 2 0 0 1 4 0m22 2a2 2 0 1 0 0-4 2 2 0 0 0 0 4"/></svg>