<svg xmlns="http://www.w3.org/2000/svg" viewBox="0 0 16 16"><path fill-rule="evenodd" d="M8 1a.75.75 0 0 0-.75.75v.5a.75.75 0 0 0 1.5 0v-.5A.75.75 0 0 0 8 1M3.464 4.365a.9.9 0 1 1 0-1.8.9.9 0 0 1 0 1.8m9.97-.9a.9.9 0 1 1-1.8 0 .9.9 0 0 1 1.8 0M15 7.25a.75.75 0 0 0-.75-.75h-.5a.75.75 0 0 0 0 1.5h.5a.75.75 0 0 0 .75-.75M2.25 6.5a.75.75 0 0 1 0 1.5h-.5a.75.75 0 0 1 0-1.5zM8 5.5c-1.273 0-2.25.884-2.25 2.167 0 .529.26.983.92 1.59.468.432.79 1.049.827 1.743h1.006a2.56 2.56 0 0 1 .828-1.743c.659-.607.919-1.061.919-1.59C10.25 6.384 9.273 5.5 8 5.5m2.347 4.86c.765-.704 1.403-1.532 1.403-2.693C11.75 5.457 10 4 8 4S4.25 5.458 4.25 7.667c0 1.16.638 1.99 1.403 2.694.216.199.347.475.347.768v.371a1 1 0 0 0 1 1h2a1 1 0 0 0 1-1v-.37c0-.294.131-.57.347-.77m-4.35 3.89a.75.75 0 0 1 .75-.75h2.515a.75.75 0 0 1 0 1.5H6.747a.75.75 0 0 1-.75-.75"/></svg>