<svg xmlns="http://www.w3.org/2000/svg" viewBox="0 0 24 24"><path fill-rule="evenodd" d="M3.082 9.924C3.276 7.308 3.374 6 4.686 4.687 6 3.375 7.307 3.277 9.923 3.083A28 28 0 0 1 12.001 3c.699 0 1.399.031 2.077.082 2.616.194 3.924.292 5.236 1.604C20.627 6 20.725 7.308 20.92 9.924c.05.678.081 1.378.081 2.078 0 .699-.03 1.398-.08 2.077-.195 2.616-.293 3.924-1.606 5.236-1.312 1.313-2.62 1.41-5.236 1.605-.678.05-1.378.081-2.077.081s-1.4-.03-2.078-.08c-2.616-.195-3.924-.293-5.237-1.605-1.312-1.313-1.41-2.621-1.604-5.237A28 28 0 0 1 3 12c0-.7.031-1.399.082-2.077m9.457 1.251c.135-.299-.052-.59-.345-.694l-.007-.002c-.328-.102-.67.032-.802.288l-1.161 2.364-1.74-3.975-.001-.001c-.13-.286-.474-.424-.806-.32a.63.63 0 0 0-.365.27.45.45 0 0 0-.019.424l2.295 5.246c.089.219.31.358.596.358a.72.72 0 0 0 .58-.303l.007-.01 1.766-3.641zm4.186-1.68c.098-.276-.101-.558-.394-.66l-.006-.001c-.338-.102-.692.033-.826.32l-1.814 4.007-.198-.39c-.14-.298-.537-.39-.828-.29-.348.106-.498.434-.356.703l.813 1.62c.101.237.38.33.61.33a.7.7 0 0 0 .603-.34l.005-.008L16.723 9.5z"/></svg>