<svg xmlns="http://www.w3.org/2000/svg" viewBox="0 0 32 32"><path fill-rule="evenodd" d="M8.688 20.9A61 61 0 0 1 8.5 16c0-1.87.075-3.503.187-4.898.116-1.44.186-2.156.363-2.738.136-.443.356-.87.984-1.493.648-.644 1.064-.854 1.458-.976q.17-.052.366-.093c.352-.073.69.153.798.496A1 1 0 0 0 13.61 7h4.78a1 1 0 0 0 .954-.702c.107-.343.445-.569.797-.496q.197.04.367.093c.393.122.81.332 1.458.976.628.623.848 1.05.984 1.493.177.582.247 1.298.363 2.738.111 1.394.187 3.028.187 4.898s-.076 3.505-.188 4.9c-.115 1.439-.185 2.155-.362 2.736-.136.443-.356.87-.983 1.493-.649.644-1.065.854-1.458.976-.523.162-1.158.221-2.508.32a27 27 0 0 1-4.002 0c-1.35-.099-1.985-.158-2.508-.32-.393-.122-.81-.332-1.457-.976-.628-.623-.848-1.05-.984-1.493-.177-.581-.247-1.297-.362-2.737M6 16c0 1.938.078 3.639.196 5.1.217 2.71.326 4.064 2.076 5.802s3.014 1.831 5.544 2.017a30 30 0 0 0 4.368 0c2.53-.186 3.795-.279 5.544-2.017 1.75-1.738 1.859-3.092 2.076-5.802.118-1.461.196-3.162.196-5.1a64 64 0 0 0-.195-5.098c-.218-2.711-.327-4.067-2.077-5.805s-3.015-1.83-5.546-2.016a30 30 0 0 0-4.364 0c-2.53.185-3.796.278-5.546 2.016s-1.859 3.094-2.077 5.805A64 64 0 0 0 6 16"/></svg>