<svg xmlns="http://www.w3.org/2000/svg" viewBox="0 0 24 24"><path fill-rule="evenodd" d="m18.228 10.817.61-1.727c.273-.772.234-1.587.128-2.206a6 6 0 0 0-.048-.252c-.04-.181-.059-.272-.284-.713-.169-.332-.253-.461-.347-.575l-.1-.116c-.594-.661-1.689-1.681-3.186-2.233a7 7 0 0 0-.305-.104c-1.308-.41-2.565-.432-3.471-.358-.43.035-.644.053-1.324.367s-.83.464-1.129.762c-.496.495-1.031 1.153-1.286 1.873l-.434 1.228-.07-.048-.095-.066-.022-.016-.006-.004a1.036 1.036 0 0 0-1.417.235.98.98 0 0 0-.026 1.163A2.01 2.01 0 0 0 4 9.95c0 .81.477 1.508 1.163 1.826a1.507 1.507 0 0 0 .846 2.11v.082c0 4.16 1.988 7.533 5.985 7.533 3.86 0 5.847-3.146 5.978-7.11a1.51 1.51 0 0 0 1.017-1.427v-.013c.474-.014.898-.356.992-.833a.96.96 0 0 0-.8-1.139l-.01-.001-.037-.006-.143-.024zm-2.237 1.615c-1.396-.274-3.077-.64-4.331-1.034-.91-.285-1.839-.701-2.681-1.135q.017.092.017.189c0 .55-.441.998-.988 1.004-.016.474-.011.966-.006 1.524.003.307.006.633.006.987 0 1.792.432 3.216 1.105 4.137.621.85 1.52 1.387 2.881 1.387s2.26-.538 2.88-1.387c.674-.92 1.106-2.345 1.106-4.137 0-.354.003-.68.006-.987zm-4.77 3.172a.76.76 0 0 1 .45-.13h.646c.16 0 .32.036.451.13.126.09.278.221.36.372.103.19.124.468.112.733-.02.46-.432.773-.89.773h-.712c-.457 0-.869-.313-.89-.773-.012-.265.009-.543.112-.733.082-.15.234-.282.36-.372"/></svg>