<svg xmlns="http://www.w3.org/2000/svg" viewBox="0 0 44 44"><path fill-rule="evenodd" d="M15.508 7.593a6.7 6.7 0 0 1 1.283-1.17l.025-.018a7.7 7.7 0 0 1 2.603-1.197 6.6 6.6 0 0 1 1.738-.207c1.303.029 3.774.155 5.482.691 2.256.708 4.75 2.727 5.791 3.632.338.293.63.633.886 1l.06.087c.287.412.519.86.69 1.334.16.445.266.906.295 1.378.054.872.103 2.366-.096 3.429-.206 1.105-.572 1.92-.868 2.745a84 84 0 0 0 1.138.098l.08.006.024.001c.833.06 1.44.774 1.353 1.595a1.56 1.56 0 0 1-1.24 1.351c.148.321.23.68.23 1.056a2.51 2.51 0 0 1-2.09 2.482C32.682 33.188 29.049 39 21.96 39c-7.308 0-10.942-6.175-10.942-13.793q0-.682-.007-1.347a2.51 2.51 0 0 1-2.012-2.468c0-.458.122-.887.335-1.257A3.52 3.52 0 0 1 8 17.369a3.52 3.52 0 0 1 2.16-3.254l-.037-.027-.044-.033-.013-.009-.004-.003c-.659-.488-.774-1.422-.256-2.085.517-.664 1.47-.805 2.13-.317l.001.001.009.007.037.027.151.11q.204.147.587.415l.102.071c.252-.683.476-1.354.902-2.163.446-.847 1.241-1.864 1.783-2.516m-1.458 12.29-.007.126c-.06 1.066-.05 2.164-.038 3.422.006.557.011 1.145.011 1.776 0 3.375.812 6.134 2.149 7.966 1.258 1.724 3.097 2.809 5.795 2.809s4.537-1.085 5.795-2.809c1.337-1.832 2.149-4.59 2.149-7.966 0-.63.005-1.218.01-1.775.006-.526.01-1.023.01-1.501a91 91 0 0 1-1.194-.157c-2.352-.324-5.095-.801-7.24-1.475-1.826-.572-3.76-1.504-5.495-2.466v.039a2.006 2.006 0 0 1-1.945 2.01m6.515 8.803c.255-.182.569-.252.882-.252h1.088c.314 0 .627.07.883.252.22.157.475.377.615.629.268.481.227 1.283.145 1.877-.064.454-.463.763-.918.763h-2.538c-.455 0-.854-.31-.917-.763-.083-.594-.123-1.396.145-1.877.14-.252.395-.472.615-.629"/></svg>