<svg xmlns="http://www.w3.org/2000/svg" viewBox="0 0 24 24"><path d="M12 10c1.657 0 3-1.567 3-3.5S13.657 3 12 3 9 4.567 9 6.5s1.343 3.5 3 3.5m-6 4c1.657 0 3-1.567 3-3.5S7.657 7 6 7s-3 1.567-3 3.5S4.343 14 6 14m15-3.5c0 1.933-1.343 3.5-3 3.5s-3-1.567-3-3.5S16.343 7 18 7s3 1.567 3 3.5m-6.607 2.63c.231.364.552.66.901.916q.343.25.69.553.495.435.89.819c1.292 1.247 1.55 3.192.366 4.54C16.637 20.646 15.83 21 15 21c-.797 0-1.625-.214-2.316-.761a1.1 1.1 0 0 0-1.368 0C10.626 20.786 9.805 21 9 21c-.831 0-1.636-.354-2.24-1.04-1.184-1.35-.925-3.294.365-4.541q.397-.385.89-.819.35-.304.692-.554c.35-.255.67-.552.902-.917q.155-.245.293-.483C10.365 11.844 11.074 11 12 11s1.636.844 2.098 1.645q.138.239.294.484"/></svg>