<svg width="32" height="32" viewBox="0 0 32 32" fill="none" xmlns="http://www.w3.org/2000/svg">
<g clip-path="url(#clip0_28728_8280)">
<path d="M21.541 7.48286C19.04 4.95367 17.5343 3.7299 16.8657 3.32724C16.4163 3.08452 15.6735 3.00006 15.0333 3.00003L14.6105 3L14.5852 3.00001L14.287 3L14.2881 3.00221C13.7736 3.00929 13.282 3.03304 12.815 3.06939C10.905 3.21809 9.94995 3.29244 8.27883 4.94652C6.60772 6.60059 6.49757 7.7302 6.27727 9.98943C6.11641 11.6391 6 13.6441 6 16C6 17.9381 6.07824 19.6387 6.19556 21.0994C6.41325 23.8095 6.5221 25.1645 8.27174 26.9023C10.0214 28.6401 11.2861 28.7331 13.8157 28.919C14.5091 28.97 15.2401 29 16 29C16.7599 29 17.491 28.97 18.1844 28.919C20.7139 28.7331 21.9786 28.6401 23.7282 26.9023C25.4778 25.1646 25.5867 23.8096 25.8044 21.0996C25.9217 19.6389 26.0008 17.9382 26.0008 16C26.0008 14.923 26.0255 12.8431 25.6796 12.2281C25.6323 12.144 25.5444 12.0918 25.4391 11.9542C24.8754 11.2175 23.6483 9.6139 21.541 7.48286Z" fill="url(#paint0_linear_28728_8280)"/>
<path d="M11.1597 15.5192C11.541 15.1925 12.1149 15.2366 12.4416 15.6178C12.7684 15.999 12.7242 16.5729 12.343 16.8997L10.6028 18.3913L12.343 19.8829C12.7242 20.2096 12.7684 20.7835 12.4416 21.1647C12.1149 21.5459 11.541 21.5901 11.1597 21.2633L9.06525 19.468C8.40493 18.9021 8.40493 17.8805 9.06525 17.3145L11.1597 15.5192Z" fill="white"/>
<path d="M17.4999 15.5505C17.949 15.775 18.131 16.3211 17.9065 16.7701L15.7246 21.1338C15.5001 21.5828 14.954 21.7649 14.505 21.5403C14.0559 21.3158 13.8739 20.7697 14.0984 20.3207L16.2802 15.957C16.5048 15.508 17.0508 15.3259 17.4999 15.5505Z" fill="white"/>
<path d="M19.5633 15.7722C19.89 15.391 20.4639 15.3469 20.8451 15.6736L22.9396 17.4689C23.5999 18.0349 23.5999 19.0564 22.9396 19.6224L20.8451 21.4177C20.4639 21.7445 19.89 21.7003 19.5633 21.3191C19.2365 20.9379 19.2807 20.364 19.6619 20.0372L21.4021 18.5457L19.6619 17.0541C19.2807 16.7273 19.2365 16.1534 19.5633 15.7722Z" fill="white"/>
<path d="M25.6958 12.2459C24.3186 8.36828 20.2795 4.68899 16.8379 3.31055C18.5076 5.53544 17.7585 9.41576 18.7164 10.3844C19.8616 11.5425 23.7653 10.6622 25.6958 12.2459Z" fill="#97E7D8"/>
</g>
<defs>
<linearGradient id="paint0_linear_28728_8280" x1="1.36189" y1="5.52778" x2="31.1193" y2="11.4942" gradientUnits="userSpaceOnUse">
<stop stop-color="#00F0D0"/>
<stop offset="1" stop-color="#03A17B"/>
</linearGradient>
<clipPath id="clip0_28728_8280">
<rect width="32" height="32" fill="white"/>
</clipPath>
</defs>
</svg>
