<svg width="44" height="44" viewBox="0 0 44 44" fill="none" xmlns="http://www.w3.org/2000/svg">
<g clip-path="url(#clip0_28728_8285)">
<path d="M29.7559 10.207C26.2539 6.70508 24.1455 5.01063 23.2094 4.4531C22.58 4.11703 21.54 4.00009 20.6436 4.00005L20.0515 4L20.0162 4.00002L19.5986 4L19.6001 4.00307C18.8797 4.01286 18.1914 4.04574 17.5375 4.09608C14.863 4.30197 13.5257 4.40492 11.1858 6.69517C8.84587 8.98543 8.69164 10.5495 8.38317 13.6777C8.15793 15.9618 8 18.738 8 22C8 24.7127 8.11192 27.0893 8.27916 29.1264C8.58474 32.8488 8.73754 34.7099 11.1333 37.0922C13.5291 39.4745 15.2799 39.6083 18.7814 39.8759C19.7996 39.9537 20.8773 40 22 40C23.1228 40 24.2005 39.9537 25.2188 39.8759C28.7202 39.6083 30.4708 39.4745 32.8666 37.0923C35.2624 34.71 35.4152 32.8489 35.7208 29.1267C35.8881 27.0896 36 24.7128 36 22C36 20.5088 36.0352 17.6289 35.5508 16.7773C35.4846 16.661 35.3615 16.5887 35.214 16.3981C34.4247 15.3781 32.7065 13.1577 29.7559 10.207Z" fill="url(#paint0_linear_28728_8285)"/>
<path d="M15.3412 21.339C15.8653 20.8897 16.6545 20.9504 17.1037 21.4746C17.553 21.9987 17.4923 22.7878 16.9681 23.2371L14.5754 25.288L16.9681 27.339C17.4923 27.7883 17.553 28.5774 17.1037 29.1015C16.6545 29.6257 15.8653 29.6864 15.3412 29.2371L12.4612 26.7686C11.5533 25.9904 11.5533 24.5857 12.4612 23.8075L15.3412 21.339Z" fill="white"/>
<path d="M24.0589 21.3819C24.6764 21.6907 24.9266 22.4415 24.6179 23.059L21.6179 29.059C21.3092 29.6765 20.5583 29.9267 19.9409 29.618C19.3234 29.3093 19.0731 28.5584 19.3818 27.9409L22.3818 21.9409C22.6906 21.3235 23.4414 21.0732 24.0589 21.3819Z" fill="white"/>
<path d="M26.896 21.6868C27.3453 21.1627 28.1344 21.102 28.6586 21.5513L31.5385 24.0198C32.4465 24.798 32.4465 26.2026 31.5385 26.9809L28.6586 29.4494C28.1344 29.8987 27.3453 29.838 26.896 29.3138C26.4467 28.7897 26.5074 28.0005 27.0316 27.5513L29.4244 25.5003L27.0316 23.4494C26.5074 23.0001 26.4467 22.211 26.896 21.6868Z" fill="white"/>
<path d="M35.5711 16.8017C33.6427 11.4327 27.987 6.3383 23.168 4.42969C25.506 7.51031 24.457 12.8831 25.7983 14.2243C27.4018 15.8278 32.868 14.6089 35.5711 16.8017Z" fill="#97E7D8"/>
</g>
<defs>
<linearGradient id="paint0_linear_28728_8285" x1="1.50692" y1="7.5" x2="43.1298" y2="15.9379" gradientUnits="userSpaceOnUse">
<stop stop-color="#00F0D0"/>
<stop offset="1" stop-color="#03A17B"/>
</linearGradient>
<clipPath id="clip0_28728_8285">
<rect width="44" height="44" fill="white"/>
</clipPath>
</defs>
</svg>
