<svg xmlns="http://www.w3.org/2000/svg" viewBox="0 0 16 16"><path fill-rule="evenodd" d="M8 13c1.26 0 2.332-.057 3.217-.136 1.3-.117 1.95-.176 2.75-.971.8-.796.857-1.388.97-2.571a14 14 0 0 0 0-2.643c-.114-1.184-.17-1.775-.97-2.571s-1.45-.854-2.75-.971A36 36 0 0 0 8 3c-1.259 0-2.332.057-3.216.137-1.3.117-1.951.175-2.751.97-.8.797-.857 1.389-.97 2.573a14 14 0 0 0 0 2.64c.113 1.185.17 1.777.97 2.573.8.795 1.45.854 2.751.97C5.67 12.944 6.741 13 8 13m1.6-4.577c.24-.027.477.171.373.389A2.088 2.088 0 1 1 7.19 6.029c.217-.104.416.133.389.372A1.827 1.827 0 0 0 9.6 8.423"/></svg>