<svg xmlns="http://www.w3.org/2000/svg" viewBox="0 0 44 44"><path d="M37.5 13h-2.652q-.119-.365-.246-.723c-.94-2.637-1.41-3.955-3.056-5.116S28.129 6 24.59 6h-1.18c-3.538 0-5.308 0-6.955 1.161-1.646 1.161-2.116 2.48-3.056 5.116q-.128.358-.246.723l-.367 1.15c1.88-.659 3.903-.655 6.091-.65h2.247c3.011-.007 5.71-.012 8.15 1.71 2.104 1.482 2.96 3.293 3.699 5.29h.527a4.48 4.48 0 0 1 3 1.146V19.74c0-1.138-.158-2.201-.365-3.104a4 4 0 0 0-.201-.637H37.5a1.5 1.5 0 1 0 0-3"/><path fill-rule="evenodd" d="M30.848 23.5H33.5a1.5 1.5 0 1 1 0 3h-1.566q.125.305.201.637c.207.903.365 1.966.365 3.104V36.5a1.5 1.5 0 1 1-3 0v-1h-19v1a1.5 1.5 0 0 1-3 0v-6.259c0-1.14.16-2.205.366-3.108q.076-.33.2-.633H6.5a1.5 1.5 0 0 1 0-3h2.653q.118-.366.246-.724c.94-2.636 1.41-3.954 3.056-5.115S15.871 16.5 19.41 16.5h1.18c3.54 0 5.309 0 6.956 1.161 1.646 1.161 2.116 2.48 3.056 5.115q.128.358.246.724m-10.257-4h-1.18c-3.852 0-4.518.113-5.227.613-.753.53-.97.898-1.96 3.67l-.017.05c1.81-.176 4.377-.333 7.788-.333 3.415 0 5.987.157 7.799.333l-.018-.05c-.989-2.772-1.206-3.14-1.96-3.67-.708-.5-1.374-.613-5.225-.613"/></svg>