<svg xmlns="http://www.w3.org/2000/svg" viewBox="0 0 24 24"><path d="M9.96 5.28c.29-.205.538-.28 2.712-.28h.655c2.175 0 2.422.075 2.712.28.198.14.29.25.395.44.15.276.291.653.57 1.434h-.006c.117.285.23.535.336.769l.002.003c.364.806.638 1.412.664 2.621a1 1 0 1 0 1.997-.106A7.4 7.4 0 0 0 19.81 9h.689a1 1 0 1 0 0-2H19.06a14 14 0 0 0-.172-.513c-.522-1.465-.783-2.197-1.698-2.842S15.293 3 13.327 3h-.655c-1.966 0-2.95 0-3.864.645-.82.578-1.115 1.226-1.543 2.408a1 1 0 1 0 1.822.821c.216-.597.346-.913.478-1.154.105-.19.197-.3.395-.44"/><path fill-rule="evenodd" d="M16.89 12.487q.09.254.171.513H18.5a1 1 0 1 1 0 2h-.689c.108.471.189 1.027.189 1.634V20a1 1 0 1 1-2 0v-.5H6v.5a1 1 0 1 1-2 0v-3.366c0-.607.081-1.163.189-1.634H3.5a1 1 0 1 1 0-2h1.438q.082-.26.172-.513c.522-1.465.783-2.197 1.698-2.842S8.706 9 10.672 9h.656c1.966 0 2.949 0 3.864.645.914.645 1.175 1.377 1.698 2.842M10.672 11h.656c2.174 0 2.421.075 2.711.28.198.14.29.25.395.44.151.276.292.653.57 1.434A47 47 0 0 0 10.997 13c-1.688 0-3.013.069-4 .153.277-.78.418-1.157.569-1.433.104-.19.197-.3.395-.44.29-.205.537-.28 2.711-.28m-4.526 4.416c-.085.36-.146.775-.146 1.218v.866h10v-.866c0-.443-.061-.857-.145-1.217a.16.16 0 0 0-.066-.096.6.6 0 0 0-.312-.113c-.954-.103-2.43-.208-4.48-.208s-3.523.105-4.476.208a.6.6 0 0 0-.31.113c-.044.035-.058.063-.065.095"/></svg>