<svg xmlns="http://www.w3.org/2000/svg" viewBox="0 0 32 32"><path d="M27.25 9h-1.933a18 18 0 0 0-.16-.467c-.678-1.904-1.018-2.856-2.207-3.694C21.76 4 20.483 4 17.927 4h-.852c-2.556 0-3.834 0-5.023.839-1.19.838-1.53 1.79-2.208 3.694a11 11 0 0 0-.133.4 1.25 1.25 0 0 0 2.357.835c.097-.309.19-.562.19-.562.324-.906.5-1.37.69-1.718.143-.26.274-.415.544-.606.408-.288.767-.382 3.583-.382h.852c2.816 0 3.174.094 3.582.382.27.19.401.345.544.606.187.342.36.797.674 1.674q.167.43.312.794c.412 1.042.694 1.755.839 2.657.074.417.122.861.122 1.31v.327c0 .69.56 1.25 1.25 1.25s1.25-.583 1.25-1.273v-.303a10.3 10.3 0 0 0-.305-2.424h1.055a1.25 1.25 0 1 0 0-2.5"/><path fill-rule="evenodd" d="M22.317 17.5h1.933a1.25 1.25 0 0 1 0 2.5h-1.056l.04.153c.15.664.266 1.443.266 2.27v4.327a1.25 1.25 0 0 1-2.5 0V26H8v.75a1.25 1.25 0 0 1-2.5 0v-4.326A10.3 10.3 0 0 1 5.805 20H4.75a1.25 1.25 0 0 1 0-2.5h1.934q.077-.236.16-.467c.679-1.904 1.018-2.856 2.207-3.695 1.19-.838 2.467-.838 5.023-.838h.853c2.555 0 3.833 0 5.023.838 1.189.839 1.528 1.79 2.207 3.695q.082.231.16.467m-7.39-2.5h-.853c-2.816 0-3.174.094-3.582.382-.27.19-.4.345-.544.606-.19.347-.366.812-.69 1.717 1.273-.112 3.003-.205 5.239-.205 2.238 0 3.97.093 5.246.206-.324-.906-.5-1.37-.69-1.718a1.6 1.6 0 0 0-.544-.606c-.408-.288-.766-.382-3.582-.382M8 22.75v.75h13v-1.076c0-.6-.085-1.19-.205-1.717a.46.46 0 0 0-.166-.265.9.9 0 0 0-.487-.186c-1.22-.129-3.074-.256-5.645-.256s-4.424.127-5.641.256a.9.9 0 0 0-.486.185.46.46 0 0 0-.165.264A8 8 0 0 0 8 22.424z"/></svg>