<svg xmlns="http://www.w3.org/2000/svg" viewBox="0 0 17 17"><path d="M13.597 5.311q-.088-.302-.192-.593c-.388-1.09-.582-1.634-1.262-2.114s-1.412-.48-2.874-.48h-.487c-1.462 0-2.193 0-2.874.48-.656.464-.86.987-1.223 2.003.895-.364 1.845-.36 2.789-.358h.978c1.216-.004 2.442-.007 3.546.771.98.691 1.365 1.552 1.68 2.417q.343.013.654.116c-.014-.28-.05-.53-.098-.754h.427a.744.744 0 0 0 0-1.488z"/><path fill-rule="evenodd" d="M12.343 8.436q.104.292.191.594h1.064a.744.744 0 0 1 0 1.487h-.427c.063.289.104.62.104 1.003v2.556a.797.797 0 0 1-1.593 0v-.266H4.245v.266a.797.797 0 0 1-1.593 0V11.52c0-.383.042-.714.104-1.003h-.419a.744.744 0 1 1 0-1.488h1.055q.087-.301.191-.593c.388-1.089.583-1.634 1.263-2.113s1.411-.48 2.873-.48h.488c1.462 0 2.193 0 2.873.48s.874 1.024 1.263 2.113m-4.624-1c-.77 0-1.197.004-1.52.047-.257.034-.35.083-.435.142a.75.75 0 0 0-.262.292c-.107.196-.21.469-.418 1.054l-.057.166A37 37 0 0 1 7.96 9.03c1.214 0 2.192.048 2.938.107l-.057-.166c-.21-.585-.31-.858-.418-1.054a.75.75 0 0 0-.262-.292c-.085-.06-.178-.108-.436-.142-.322-.043-.748-.046-1.52-.046z"/></svg>