<svg xmlns="http://www.w3.org/2000/svg" viewBox="0 0 44 44"><path d="M37.5 13h-2.652q-.118-.365-.246-.723c-.94-2.637-1.41-3.955-3.056-5.116S28.13 6 24.59 6h-1.18c-3.54 0-5.309 0-6.955 1.161-1.646 1.16-2.124 2.502-3.063 5.136l-.002.004a1.5 1.5 0 1 0 2.852.932c.973-2.727 1.193-3.092 1.941-3.62.71-.5 1.375-.613 5.227-.613h1.18c3.85 0 4.517.113 5.226.613.753.53.97.898 1.96 3.67l.017.05h-.007c.149.459.336.916.532 1.394.307.75.636 1.553.868 2.493q.015.044.024.086a12 12 0 0 1 .223 1.297q.065.556.067 1.138l-.001.106a1.5 1.5 0 1 0 3 0v-.106c0-1.138-.158-2.201-.364-3.104a4 4 0 0 0-.202-.637H37.5a1.5 1.5 0 1 0 0-3"/><path fill-rule="evenodd" d="M30.848 23.5H33.5a1.5 1.5 0 1 1 0 3h-1.566q.125.305.201.637c.207.903.365 1.966.365 3.104V36.5a1.5 1.5 0 1 1-3 0v-1h-19v1a1.5 1.5 0 0 1-3 0v-6.259c0-1.14.16-2.205.366-3.108q.076-.33.2-.633H6.5a1.5 1.5 0 0 1 0-3h2.653q.118-.366.246-.724c.94-2.636 1.41-3.954 3.056-5.115S15.871 16.5 19.41 16.5h1.18c3.54 0 5.309 0 6.956 1.161 1.646 1.161 2.116 2.48 3.056 5.115q.128.358.246.724m-10.257-4h-1.18c-3.852 0-4.518.113-5.227.613-.753.53-.97.898-1.96 3.67l-.017.05c1.81-.176 4.377-.333 7.788-.333 3.415 0 5.987.157 7.799.333l-.018-.05c-.989-2.772-1.206-3.14-1.96-3.67-.708-.5-1.374-.613-5.225-.613m8.91 11.064v-.323c0-.866-.122-1.7-.29-2.435-.092-.402-.473-.858-1.279-.943-1.715-.183-4.325-.363-7.937-.363-3.61 0-6.217.18-7.93.363-.803.085-1.183.54-1.275.94-.168.736-.29 1.571-.29 2.438V32.5h19v-1.936"/></svg>