<svg xmlns="http://www.w3.org/2000/svg" viewBox="0 0 32 32"><path d="M27.25 9h-1.933a18 18 0 0 0-.16-.467c-.678-1.904-1.018-2.856-2.207-3.694C21.76 4 20.483 4 17.927 4h-.852c-2.556 0-3.834 0-5.023.839-1.19.838-1.53 1.79-2.208 3.694q-.082.231-.16.467l-.49 1.484c1.414-.492 2.918-.489 4.47-.485h1.673c2.147-.005 4.2-.01 6.054 1.296 1.5 1.058 2.167 2.345 2.689 3.705h.17c.845 0 1.624.279 2.25.75v-1.826a10.3 10.3 0 0 0-.306-2.424h1.056a1.25 1.25 0 0 0 0-2.5"/><path fill-rule="evenodd" d="M22.317 17.5h1.933a1.25 1.25 0 0 1 0 2.5h-1.056l.04.153c.15.664.266 1.443.266 2.27v4.327a1.25 1.25 0 0 1-2.5 0V26H8v.75a1.25 1.25 0 0 1-2.5 0v-4.326A10.3 10.3 0 0 1 5.805 20H4.75a1.25 1.25 0 0 1 0-2.5h1.934q.077-.236.16-.467c.679-1.904 1.018-2.856 2.207-3.695 1.19-.838 2.467-.838 5.023-.838h.853c2.555 0 3.833 0 5.023.838 1.189.839 1.528 1.79 2.207 3.695q.082.231.16.467m-7.39-2.5h-.853c-2.816 0-3.174.094-3.582.382-.27.19-.4.345-.544.606-.19.347-.366.812-.69 1.717 1.273-.112 3.003-.205 5.239-.205 2.238 0 3.97.093 5.246.206-.324-.906-.5-1.37-.69-1.718a1.6 1.6 0 0 0-.544-.606c-.408-.288-.766-.382-3.582-.382"/></svg>