<svg xmlns="http://www.w3.org/2000/svg" viewBox="0 0 24 24"><path d="M14.557 3H9.27l4.596 8.002A1 1 0 0 1 14 11.5v9.404a36 36 0 0 0 2.532-.325c1.397-.228 2.207-1.987 1.907-3.38a18 18 0 0 1-.293-1.873 25 25 0 0 1-.101-1.354 35 35 0 0 1-.035-1.073l.538.399c.333.249.785.27 1.138.051l2.845-1.818a.996.996 0 0 0 .301-1.406l-3.84-5.806a3 3 0 0 0-2.277-1.312l-1.79 4.372a1 1 0 0 1-1.85-.758z"/><path d="M12 21v-9.233L6.99 3.044a3 3 0 0 0-1.978 1.275l-3.84 5.806a.996.996 0 0 0 .301 1.406l2.844 1.818c.354.22.805.198 1.138-.05l.538-.4q-.009.537-.034 1.073a25 25 0 0 1-.102 1.354 18 18 0 0 1-.292 1.873c-.3 1.393.51 3.153 1.907 3.38 1.358.221 3.007.421 4.528.422"/></svg>