<svg xmlns="http://www.w3.org/2000/svg" viewBox="0 0 16 16"><path d="M4.159 2.198a2 2 0 0 0-.759.638L.625 6.751a.666.666 0 0 0 .194.957l1.943 1.204a.67.67 0 0 0 .704-.003l.524-.323c-.01.34-.03.705-.068 1.065q-.038.375-.105.752a8 8 0 0 1-.255 1.042c-.283.872.147 2.142 1.055 2.272.901.128 1.948.249 2.885.283V7.871z"/><path d="M9.002 13.975c.798-.051 1.64-.152 2.383-.258.908-.13 1.337-1.4 1.054-2.272a8 8 0 0 1-.255-1.041 11 11 0 0 1-.105-.758c-.038-.358-.058-.72-.069-1.058.2.122.379.233.521.321a.67.67 0 0 0 .705.003l1.945-1.205a.666.666 0 0 0 .195-.956l-2.78-3.915a2 2 0 0 0-1.36-.818L9.94 5.045a.75.75 0 1 1-1.378-.59L9.612 2H5.784l3.114 5.286a.75.75 0 0 1 .104.38z"/></svg>