<svg xmlns="http://www.w3.org/2000/svg" viewBox="0 0 16 16"><path d="M10 9.1a.9.9 0 1 1 0 1.8.9.9 0 0 1 0-1.8"/><path fill-rule="evenodd" d="M4.5 2.321c-.525.143-.95.377-1.376.803-.875.875-.94 1.747-1.07 3.491C2.02 7.067 2 7.534 2 8s.02.933.054 1.385c.13 1.744.195 2.616 1.07 3.491s1.747.94 3.491 1.07C7.067 13.98 7.534 14 8 14s.933-.02 1.385-.054c1.744-.13 2.616-.195 3.491-1.07s.94-1.747 1.07-3.491C13.98 8.933 14 8.466 14 8s-.02-.933-.054-1.385c-.13-1.744-.195-2.616-1.07-3.491A2.93 2.93 0 0 0 11.5 2.32v-.57a.75.75 0 0 0-1.5 0v.35l-.615-.047A19 19 0 0 0 8 2c-.466 0-.933.02-1.385.054L6 2.101v-.346a.75.75 0 1 0-1.5 0zm6.25 2.677a.75.75 0 0 1-.75-.75v-.64q-.315-.028-.727-.058A17 17 0 0 0 8 3.5c-.423 0-.852.018-1.273.05q-.412.03-.727.059v.65a.75.75 0 0 1-1.5 0v-.332a1.6 1.6 0 0 0-.315.258c-.358.357-.467.611-.577 1.818h8.784c-.11-1.207-.219-1.46-.577-1.818a1.6 1.6 0 0 0-.315-.258v.321a.75.75 0 0 1-.75.75M3.508 7.503a16 16 0 0 0 .042 1.77c.137 1.845.214 2.122.635 2.542.42.42.697.498 2.542.635.42.031.85.05 1.273.05s.852-.019 1.273-.05c1.845-.137 2.122-.214 2.542-.635.42-.42.498-.697.635-2.542a17 17 0 0 0 .042-1.77z"/></svg>