<svg xmlns="http://www.w3.org/2000/svg" viewBox="0 0 44 44"><path fill-rule="evenodd" d="M15 2.5A1.5 1.5 0 0 1 16.5 4v2.277a135 135 0 0 1 2.14-.156C19.74 6.045 20.87 6 22 6s2.26.044 3.36.12c.773.052 1.482.101 2.14.156V4a1.5 1.5 0 0 1 3 0v2.667c1.757.366 3.103 1.016 4.46 2.373 2.428 2.429 2.592 4.819 2.92 9.6.075 1.1.12 2.23.12 3.36s-.045 2.26-.12 3.36c-.328 4.781-.492 7.172-2.92 9.6s-4.819 2.592-9.6 2.92c-1.1.075-2.23.12-3.36.12s-2.26-.045-3.36-.12c-4.781-.328-7.171-.492-9.6-2.92s-2.592-4.819-2.92-9.6A49 49 0 0 1 6 22c0-1.13.045-2.26.12-3.36.328-4.781.492-7.171 2.92-9.6 1.357-1.357 2.703-2.007 4.46-2.373V4A1.5 1.5 0 0 1 15 2.5m12.5 6.792V11a1.5 1.5 0 0 0 3 0V9.753c.99.28 1.63.7 2.339 1.409 1.24 1.24 1.594 2.267 1.87 5.338H9.291c.275-3.07.63-4.098 1.87-5.338.708-.709 1.347-1.128 2.338-1.409V11a1.5 1.5 0 0 0 3 0V9.292c.675-.06 1.448-.117 2.345-.178A46 46 0 0 1 22 9c1.051 0 2.112.042 3.156.114.896.061 1.67.118 2.344.178M9 22c0-.832.026-1.67.073-2.5h25.855c.046.83.072 1.668.072 2.5a46 46 0 0 1-.113 3.156c-.341 4.974-.536 6.17-2.048 7.683s-2.71 1.707-7.683 2.048A46 46 0 0 1 22 35c-1.051 0-2.112-.042-3.155-.113-4.975-.341-6.17-.535-7.683-2.048s-1.708-2.709-2.049-7.683A46 46 0 0 1 9 22m20 5a2 2 0 1 1-4 0 2 2 0 0 1 4 0"/></svg>