<svg xmlns="http://www.w3.org/2000/svg" viewBox="0 0 24 24"><path fill-rule="evenodd" d="M19.317 4.686c-.705-.705-1.409-1.06-2.314-1.267V2a1 1 0 1 0-2 0v1.152q-.433-.036-.923-.071A28 28 0 0 0 12.003 3c-.7 0-1.4.03-2.077.081q-.49.035-.923.071V2a1 1 0 0 0-2 0v1.42c-.906.206-1.61.561-2.314 1.266-1.313 1.313-1.41 2.62-1.605 5.237-.05.678-.081 1.377-.081 2.077s.03 1.399.081 2.077c.195 2.616.292 3.924 1.605 5.237s2.62 1.41 5.237 1.605c.678.05 1.377.081 2.077.081s1.399-.03 2.077-.081c2.616-.195 3.924-.292 5.237-1.605s1.41-2.62 1.605-5.237c.05-.678.08-1.377.08-2.077s-.03-1.399-.08-2.077c-.195-2.616-.292-3.924-1.605-5.237M6 9a1 1 0 1 0 0 2h12a1 1 0 1 0 0-2zm9 7.4a1.4 1.4 0 1 0 0-2.8 1.4 1.4 0 0 0 0 2.8"/></svg>