<svg xmlns="http://www.w3.org/2000/svg" viewBox="0 0 28 28"><path fill-rule="evenodd" d="M20.003 3.487c1.16.25 2.049.682 2.94 1.573 1.604 1.604 1.723 3.203 1.96 6.4.063.83.1 1.685.1 2.54 0 .854-.038 1.71-.1 2.538-.237 3.198-.356 4.797-1.96 6.401-1.606 1.605-3.204 1.724-6.402 1.962-.828.062-1.684.099-2.539.099s-1.71-.037-2.538-.1c-3.198-.237-4.797-.356-6.401-1.96S3.339 19.735 3.1 16.537c-.062-.828-.1-1.684-.1-2.539.001-.854.038-1.71.1-2.538.238-3.198.357-4.797 1.962-6.401.89-.89 1.779-1.324 2.94-1.573V2a1 1 0 1 1 2 0v1.214q.67-.059 1.46-.116c.83-.062 1.684-.099 2.54-.099.854 0 1.71.037 2.538.1.529.038 1.013.074 1.462.115V2a1 1 0 1 1 2 0zM5.5 11a1 1 0 0 1 1-1h15a1 1 0 1 1 0 2h-15a1 1 0 0 1-1-1m12.002 5a1.5 1.5 0 1 1 0 3 1.5 1.5 0 0 1 0-3"/></svg>