<svg xmlns="http://www.w3.org/2000/svg" viewBox="0 0 44 44"><path fill-rule="evenodd" d="M15 2.5A1.5 1.5 0 0 1 16.5 4v2.277a135 135 0 0 1 2.14-.156C19.74 6.045 20.87 6 22 6s2.26.044 3.36.12c.773.052 1.482.101 2.14.156V4a1.5 1.5 0 0 1 3 0v2.667c1.757.366 3.103 1.016 4.46 2.373 2.428 2.429 2.592 4.819 2.92 9.6.075 1.1.12 2.23.12 3.36s-.045 2.26-.12 3.36c-.328 4.781-.492 7.172-2.92 9.6s-4.819 2.592-9.6 2.92c-1.1.075-2.23.12-3.36.12s-2.26-.045-3.36-.12c-4.781-.328-7.171-.492-9.6-2.92s-2.592-4.819-2.92-9.6A49 49 0 0 1 6 22c0-1.13.045-2.26.12-3.36.328-4.781.492-7.171 2.92-9.6 1.357-1.357 2.703-2.007 4.46-2.373V4A1.5 1.5 0 0 1 15 2.5m-3 14a1.5 1.5 0 0 0 0 3h20a1.5 1.5 0 0 0 0-3zM27 29a2 2 0 1 0 0-4 2 2 0 0 0 0 4"/></svg>