<svg xmlns="http://www.w3.org/2000/svg" viewBox="0 0 16 16"><path d="M5.167 2a.667.667 0 0 0-.667.667V4h3V2.667A.667.667 0 0 0 6.833 2zM6 14c-.679 0-1.411-.104-2.05-.23-.698-.136-1.366-.434-1.445-1.253-.023-.234.036-.463.155-.921l.033-.127c.142-.551.213-.827.276-1.104q.238-1.038.363-2.096c.033-.282.059-.565.11-1.132.035-.397.053-.595.112-.758.15-.411.49-.723.914-.835.167-.044.366-.044.764-.044H6.77c.398 0 .597 0 .764.044.423.112.765.424.914.835.059.163.077.361.112.758.051.567.077.85.11 1.132q.126 1.058.362 2.096c.064.277.135.553.277 1.104l.033.127c.118.458.178.687.155.92-.079.82-.747 1.118-1.445 1.255C7.412 13.896 6.68 14 6 14m5.957-11.5a.75.75 0 0 0-1.457.25v10.5a.75.75 0 0 0 1.5 0V6.5h1.25a.75.75 0 0 0 .75-.75v-2.5a.75.75 0 0 0-.75-.75z"/></svg>