<svg xmlns="http://www.w3.org/2000/svg" viewBox="0 0 24 24"><path d="M7 4a1 1 0 0 1 1-1h2a1 1 0 0 1 1 1v2H7zm5.827 16.424C11.709 20.927 10.197 21 9 21s-2.709-.073-3.827-.576c-.697-.315-1.214-1.17-1.17-1.94.011-.21.065-.407.172-.803.168-.622.252-.934.327-1.236.294-1.183.516-3.21.665-4.57l.043-.386c.034-.309.062-.62.118-1.24.036-.403.054-.605.1-.774a1.99 1.99 0 0 1 1.568-1.444C7.167 8 7.368 8 7.769 8h2.462c.401 0 .602 0 .773.03a1.99 1.99 0 0 1 1.568 1.445c.046.17.064.371.1.774a62 62 0 0 0 .16 1.625c.15 1.36.372 3.388.666 4.571.075.302.16.614.327 1.236.107.395.16.593.173.803.043.77-.474 1.625-1.171 1.94M18 4a1 1 0 1 0-2 0v16a1 1 0 1 0 2 0V10h2a1 1 0 0 0 1-1V5a1 1 0 0 0-1-1z"/></svg>