<svg xmlns="http://www.w3.org/2000/svg" viewBox="0 0 44 44"><path fill-rule="evenodd" d="M27.62 8.17a1.477 1.477 0 0 1 1.368 1.655q.01.087.01.175v3h2.899c1.092 0 2.133.505 2.976 1.083.876.6 1.717 1.401 2.443 2.257a14.5 14.5 0 0 1 1.853 2.747c.458.9.829 1.929.829 2.896V22c0 1.183-.051 2.316-.137 3.383-.257 3.21-.395 4.93-2.285 7.035A1.5 1.5 0 0 1 36.39 33h-.805a5.001 5.001 0 0 1-9.168 0h-8.832a5.001 5.001 0 0 1-9.168 0h-1.67c-.558 0-1.105-.248-1.354-.746-.424-.848-.584-1.83-.82-3.281A43.6 43.6 0 0 1 3.997 22c0-2.634.255-5.02.573-6.973.367-2.25.55-3.376 1.822-4.617 1.27-1.242 2.42-1.401 4.717-1.72C13.76 8.322 17.396 8 21.998 8c2.07 0 3.944.065 5.622.17M31 26c-.712 0-1.39.149-2.002.417V16h2.5l.749 4.48a1.8 1.8 0 0 0 1.775 1.503h2.976V22c0 1.097-.048 2.15-.127 3.143-.147 1.828-.236 2.755-.477 3.525a4 4 0 0 1-.544 1.112A5 5 0 0 0 31 26m-18 7a2 2 0 1 0 0-4 2 2 0 0 0 0 4m18-4a2 2 0 1 0 0 4 2 2 0 0 0 0-4"/></svg>