<svg xmlns="http://www.w3.org/2000/svg" viewBox="0 0 32 32"><path fill-rule="evenodd" d="M20.998 6.84c0-.648-.498-1.19-1.146-1.23A63 63 0 0 0 16 5.495c-3.327 0-5.954.242-7.869.518-1.65.238-2.475.357-3.387 1.254S3.7 8.984 3.435 10.624a34 34 0 0 0-.437 5.371c0 2.04.196 3.881.437 5.37.133.829.233 1.448.416 1.973.15.43.586.662 1.04.662h1.322a3.752 3.752 0 0 0 7.074 0h5.674a3.752 3.752 0 0 0 7.074 0h.517c.422 0 .794-.208 1.02-.527h.004c1.02-1.336 1.125-2.57 1.304-4.698a33 33 0 0 0 .12-2.792c0-.731-.366-1.495-.71-2.078a13 13 0 0 0-1.416-1.92c-.533-.606-1.127-1.183-1.702-1.62a5.6 5.6 0 0 0-.903-.573c-.292-.143-.685-.292-1.122-.292H21V7q0-.048-.004-.096zm1.5 12.16c-.533 0-1.04.111-1.498.311V12h1.998l.59 2.955A1.3 1.3 0 0 0 24.863 16h1.635c0 .9-.042 1.76-.11 2.565-.113 1.35-.18 1.998-.344 2.527a3 3 0 0 1-.08.224A3.75 3.75 0 0 0 22.498 19M11 22.75a1.25 1.25 0 1 1-2.5 0 1.25 1.25 0 0 1 2.5 0m10.248 0a1.25 1.25 0 1 1 2.5 0 1.25 1.25 0 0 1-2.5 0"/></svg>