<svg xmlns="http://www.w3.org/2000/svg" viewBox="0 0 17 17"><path fill-rule="evenodd" d="M1.062 8.49v.018c0 1.105.108 2.106.24 2.922.057.347.103.629.165.873.071.28.339.445.627.445h.698a2.392 2.392 0 0 0 4.51.001h2.927a2.392 2.392 0 0 0 4.512-.008.8.8 0 0 0 .59-.41c.405-.663.46-1.33.545-2.384q.057-.677.06-1.428v-.002c0-.742-.396-1.642-.904-2.323-.495-.664-1.311-1.413-2.325-1.413h-1.02V3.548a.797.797 0 0 0-.734-.794.7.7 0 0 0-.162-.029c-.685-.043-1.45-.07-2.292-.07-1.902 0-3.404.135-4.499.289-.948.133-1.422.2-1.946.712-.524.513-.6.98-.751 1.911-.133.817-.24 1.818-.24 2.923m13.182 1.842.044-.514c.033-.411.053-.865.054-1.319h-.709a.744.744 0 0 1-.74-.67l-.144-1.453-.042-.002h-1.02v3.322a2.385 2.385 0 0 1 2.558.636m-2.558 1.619a.797.797 0 1 0 1.595 0 .797.797 0 0 0-1.595 0M5.047 9.56c-.986 0-1.832.596-2.198 1.447A17 17 0 0 1 2.656 8.5c0-1.008.098-1.925.22-2.676.039-.24.067-.414.097-.562.029-.145.052-.23.07-.283a.4.4 0 0 1 .037-.08.6.6 0 0 1 .089-.103.6.6 0 0 1 .102-.084.4.4 0 0 1 .085-.036c.057-.019.144-.04.292-.067.152-.027.329-.052.574-.086 1.023-.143 2.45-.273 4.277-.273q.855.001 1.593.035v6.872h-2.79A2.39 2.39 0 0 0 5.048 9.56m0 1.593a.798.798 0 1 0 0 1.595.798.798 0 0 0 0-1.595"/></svg>