<svg xmlns="http://www.w3.org/2000/svg" viewBox="0 0 32 32"><path fill-rule="evenodd" d="M19.852 5.61a1.227 1.227 0 0 1 1.144 1.294Q21 6.952 21 7v2.5h2.147c.437 0 .83.149 1.122.292.31.152.616.354.903.572.575.438 1.17 1.015 1.702 1.62a13 13 0 0 1 1.417 1.921c.343.583.709 1.347.709 2.078l-.002.072a33 33 0 0 1-.118 2.72c-.18 2.128-.283 3.362-1.304 4.698h-.004a1.25 1.25 0 0 1-1.02.527h-.517a3.752 3.752 0 0 1-7.074 0h-5.674a3.752 3.752 0 0 1-7.074 0H4.891c-.454 0-.89-.233-1.04-.662-.183-.525-.283-1.144-.416-1.972a34 34 0 0 1-.437-5.37c0-2.04.196-3.882.437-5.372.264-1.64.396-2.46 1.308-3.357S6.48 6.251 8.13 6.013c1.915-.276 4.542-.518 7.869-.518 1.41 0 2.695.044 3.853.115M21 19.31a3.75 3.75 0 0 1 4.964 2.004q.045-.113.08-.223c.164-.529.23-1.177.345-2.527.067-.805.109-1.666.109-2.565h-1.635a1.3 1.3 0 0 1-1.275-1.045L22.998 12H21zm-2.5 2.19h-5.213a3.752 3.752 0 0 0-7.21.486 32 32 0 0 1-.174-1.018 31.5 31.5 0 0 1-.405-4.973c0-1.882.181-3.588.405-4.973.143-.89.212-1.266.306-1.54.053-.152.103-.251.287-.432.183-.18.284-.23.439-.28.277-.09.656-.153 1.552-.282 1.799-.26 4.307-.493 7.512-.493q1.33.001 2.5.05zM11 22.75a1.25 1.25 0 1 1-2.5 0 1.25 1.25 0 0 1 2.5 0m10.248 0a1.25 1.25 0 1 1 2.5 0 1.25 1.25 0 0 1-2.5 0"/></svg>