<svg xmlns="http://www.w3.org/2000/svg" viewBox="0 0 24 24"><path fill-rule="evenodd" d="M5.949 4.395C7.422 4.185 9.442 4 12 4c1.135 0 2.163.036 3.085.095a.98.98 0 0 1 .915.984V7h1.5c.353 0 .667.125.893.24.241.124.477.287.696.46.44.348.892.804 1.295 1.274.404.472.784.988 1.07 1.47.142.24.27.488.366.73.09.225.18.518.18.826 0 .726-.032 1.42-.087 2.069-.128 1.538-.207 2.467-.875 3.43a1 1 0 0 1-.866.501h-.343a3.001 3.001 0 0 1-5.659 0H9.83a3.001 3.001 0 0 1-5.66 0h-.742c-.363 0-.708-.195-.816-.543-.116-.377-.188-.82-.28-1.392A25.6 25.6 0 0 1 2 12c0-1.542.149-2.935.331-4.065.204-1.259.306-1.888 1.008-2.578.703-.69 1.339-.78 2.61-.962m13.75 11.293c.096-.374.144-.86.221-1.785.05-.599.08-1.237.08-1.903h-1.153a1 1 0 0 1-.987-.836L17.5 9H16v5.17a3 3 0 0 1 3.698 1.517m-5.7.312H9.83a3.001 3.001 0 0 0-5.531-.305A23.6 23.6 0 0 1 4 12c0-1.415.137-2.7.306-3.746.11-.686.162-.966.232-1.168a.66.66 0 0 1 .202-.302c.133-.13.2-.161.308-.197.207-.066.491-.114 1.184-.212C7.612 6.177 9.538 6 12 6q1.068.001 2 .04zm2 1.008a1 1 0 1 0 0-.015zM7 16a1 1 0 1 0 0 2 1 1 0 0 0 0-2"/></svg>