<svg xmlns="http://www.w3.org/2000/svg" viewBox="0 0 24 24"><path fill-rule="evenodd" d="M20.909 9.943c-.19-2.617-.28-3.915-1.59-5.234-1.309-1.308-2.618-1.408-5.226-1.618-.68-.05-1.38-.08-2.079-.09s-1.399.03-2.078.08c-2.619.19-3.918.28-5.237 1.588-1.32 1.309-1.41 2.617-1.61 5.234C3.03 10.582 3 11.28 3 11.98s.03 1.398.08 2.077c.19 2.617.28 3.915 1.589 5.234 1.31 1.318 2.618 1.418 5.227 1.618.68.05 1.379.08 2.078.09.7.01 1.4-.03 2.079-.08 2.618-.19 3.917-.28 5.237-1.588 1.319-1.309 1.419-2.617 1.619-5.224.05-.679.08-1.378.09-2.077s-.03-1.398-.08-2.077zm-7.076 7.13h-2.458l.02-7.78-2.04 1.658V8.544l2.04-1.608h2.458l-.02 10.148z"/></svg>