<svg xmlns="http://www.w3.org/2000/svg" viewBox="0 0 44 44"><path fill-rule="evenodd" d="M37.88 18.64c-.33-4.78-.49-7.17-2.92-9.6s-4.82-2.59-9.6-2.92C24.26 6.04 23.13 6 22 6s-2.26.04-3.36.12c-4.78.33-7.17.49-9.6 2.92s-2.59 4.82-2.92 9.6C6.04 19.74 6 20.87 6 22s.04 2.26.12 3.36c.33 4.78.49 7.17 2.92 9.6s4.82 2.59 9.6 2.92c1.1.08 2.23.12 3.36.12s2.26-.04 3.36-.12c4.78-.33 7.17-.49 9.6-2.92s2.59-4.82 2.92-9.6c.08-1.1.12-2.23.12-3.36s-.04-2.26-.12-3.36m-13.31 11.6h-3.99V17.61l-3.3 2.7v-3.92l3.3-2.63h3.99z"/></svg>