<svg xmlns="http://www.w3.org/2000/svg" viewBox="0 0 16 16"><path d="M6.307 7.369V5.897l1.232-.982h1.503v6.18H7.539V6.357z"/><path fill-rule="evenodd" d="m13.947 6.581.003.037c.03.45.05.921.05 1.382s-.02.932-.05 1.382c-.13 1.743-.2 2.615-1.072 3.496-.865.875-1.74.94-3.46 1.07l-.036.002c-.45.03-.921.05-1.382.05s-.932-.02-1.382-.05l-.032-.002c-1.722-.13-2.588-.194-3.464-1.07-.875-.865-.94-1.74-1.07-3.46l-.002-.036C2.02 8.932 2 8.461 2 8s.02-.932.05-1.382c.13-1.743.2-2.615 1.072-3.496.865-.875 1.74-.94 3.46-1.07l.036-.002C7.068 2.02 7.539 2 8 2s.932.02 1.382.05l.032.002c1.722.13 2.588.194 3.464 1.07.875.865.94 1.74 1.07 3.46m-2.13 5.245c.42-.42.49-.7.63-2.544.03-.42.05-.851.05-1.272 0-.42-.02-.851-.05-1.272-.13-1.843-.21-2.124-.63-2.544-.421-.421-.702-.491-2.545-.631-.42-.03-.851-.05-1.272-.05-.42 0-.851.02-1.272.05-1.843.13-2.124.21-2.544.63-.421.421-.491.702-.631 2.545-.03.42-.05.851-.05 1.272 0 .42.02.851.05 1.272.13 1.843.21 2.124.63 2.544.421.421.702.491 2.545.631.42.03.851.05 1.272.05.42 0 .851-.02 1.272-.05 1.843-.13 2.124-.21 2.544-.63"/></svg>