<svg xmlns="http://www.w3.org/2000/svg" viewBox="0 0 16 16"><path fill-rule="evenodd" d="M2 14q0-.774.008-1.5c.038-3.34.194-5.923.331-7.603.086-1.048.129-1.572.61-2.082.482-.51.916-.571 1.784-.693A13 13 0 0 1 6.5 2c.66 0 1.254.05 1.767.122.868.122 1.302.183 1.784.693.481.51.524 1.034.61 2.082.058.711.12 1.584.174 2.607a.75.75 0 0 1 .665.746V10a1 1 0 0 0 2 0v-.176c0-.196-.05-.39-.143-.563l-.521-.954A2.75 2.75 0 0 1 12.5 6.99v-.158a1.75 1.75 0 0 1-1-1.582v-.583c0-.311.213-.572.5-.646V3a.5.5 0 0 1 1 0v1h.5V3a.5.5 0 0 1 1 0v1.021c.287.074.5.335.5.646v.583c0 .698-.409 1.3-1 1.582v.158c0 .21.053.415.153.599l.52.954c.215.393.327.834.327 1.281V10a2.5 2.5 0 0 1-4.015 1.989A116 116 0 0 1 11 14zm4.636-8.557a.748.748 0 1 0-1.446-.386l-.665 2.5a.75.75 0 0 0 .723.943h1.518l-.41 2.553a.386.386 0 0 0 .736.209l1.398-3.39A.75.75 0 0 0 7.752 7h-1.53z"/></svg>