<svg xmlns="http://www.w3.org/2000/svg" viewBox="0 0 44 44"><path d="M17.934 14.941a1.5 1.5 0 0 0-2.868-.882l-2 6.5A1.5 1.5 0 0 0 14.5 22.5h4.027l-1.803 7.546a.776.776 0 0 0 1.474.473l3.753-9.137A1.5 1.5 0 0 0 20.5 19.5h-3.969z"/><path fill-rule="evenodd" d="M8.526 8.156C7.19 9.57 7.08 10.994 6.858 13.843 6.497 18.491 6.087 25.688 6.012 35Q6 36.465 6 38h23a371 371 0 0 0-.053-6.262A6 6 0 0 0 40 28.5v-.47c0-1.875-.65-3.694-1.838-5.145A5.14 5.14 0 0 1 37 19.631v-.887a4.5 4.5 0 0 0 3-4.244v-1.667c0-.712-.406-1.33-1-1.633V8.75a1.25 1.25 0 1 0-2.5 0V11h-2V8.75a1.25 1.25 0 1 0-2.5 0v2.45c-.594.303-1 .92-1 1.633V14.5a4.5 4.5 0 0 0 3 4.244v.887c0 1.879.652 3.7 1.84 5.154A5.13 5.13 0 0 1 37 28.03v.469a3 3 0 0 1-6 0V23a1.5 1.5 0 0 0-1.5-1.5h-.882c-.146-3.03-.316-5.594-.476-7.657-.222-2.85-.332-4.274-1.668-5.687s-2.491-1.569-4.802-1.88A31 31 0 0 0 17.5 6c-1.543 0-2.942.11-4.172.276-2.311.311-3.466.467-4.802 1.88M25.988 35c-.075-9.225-.481-16.343-.837-20.925-.118-1.514-.188-2.296-.336-2.886-.107-.43-.234-.668-.521-.972-.362-.382-.578-.49-.825-.575-.407-.14-.947-.224-2.197-.393A28 28 0 0 0 17.5 9c-1.4 0-2.665.1-3.772.25-1.25.168-1.79.253-2.197.392-.247.084-.463.193-.825.575-.287.303-.414.543-.521.972-.148.59-.218 1.372-.336 2.887-.356 4.58-.762 11.7-.837 20.924z"/></svg>