<svg xmlns="http://www.w3.org/2000/svg" viewBox="0 0 24 24"><path fill-rule="evenodd" d="M3.493 7.31c.123-1.556.184-2.334.907-3.102.722-.768 1.357-.858 2.627-1.037A18 18 0 0 1 9.5 3c.92 0 1.75.07 2.473.171 1.27.18 1.905.269 2.627 1.037.723.768.784 1.546.907 3.102.09 1.129.184 2.532.267 4.19H16a1 1 0 0 1 1 1v3a1.5 1.5 0 0 0 3 0v-.27a2.72 2.72 0 0 0-.544-1.622 4.78 4.78 0 0 1-.956-2.858v-.458A2.5 2.5 0 0 1 17 8V7a1 1 0 0 1 .5-.866V4.75a.75.75 0 0 1 1.5 0V6h1V4.75a.75.75 0 0 1 1.5 0v1.384A1 1 0 0 1 22 7v1a2.5 2.5 0 0 1-1.5 2.292v.458c0 .592.197 1.18.556 1.658A4.72 4.72 0 0 1 22 15.23v.269a3.5 3.5 0 0 1-6.023 2.426A209 209 0 0 1 16 21H3q0-1.028.01-2c.049-5.154.28-9.13.483-11.69m6.46.964a1 1 0 0 0-1.923-.548l-.992 3.483a1 1 0 0 0 .164.876c.173.23.435.392.719.415h1.77l-.586 3.876c-.048.319.192.583.498.618a.545.545 0 0 0 .54-.349l1.781-4.756.038-.132a1 1 0 0 0-.164-.877.98.98 0 0 0-.798-.38H9.324z"/></svg>