<svg xmlns="http://www.w3.org/2000/svg" viewBox="0 0 32 32"><path fill-rule="evenodd" d="M4 28q0-1.282.01-2.5c.062-6.97.37-12.339.637-15.778.16-2.064.24-3.096 1.203-4.122s1.799-1.144 3.47-1.38c.933-.131 2-.22 3.18-.22s2.248.089 3.18.22c1.671.236 2.507.354 3.47 1.38s1.043 2.058 1.203 4.122c.12 1.546.248 3.482.359 5.778h.538c.69 0 1.25.56 1.25 1.25v3.75a2 2 0 1 0 4 0v-.27a3.44 3.44 0 0 0-.688-2.064l-.062-.083a6.25 6.25 0 0 1-1.25-3.75V13.33a3 3 0 0 1-2-2.829V9.333c0-.42.195-.796.5-1.04V6.5a1 1 0 0 1 2 0V8h1.5V6.5a1 1 0 1 1 2 0v1.793c.305.244.5.62.5 1.04V10.5a3 3 0 0 1-2 2.83v1.003c0 .812.263 1.601.75 2.25l.062.083A5.94 5.94 0 0 1 29 20.23v.27a4.5 4.5 0 0 1-8.04 2.78A274 274 0 0 1 21 28zm8.754-16.957a1.25 1.25 0 0 0-.911-1.508 1.233 1.233 0 0 0-1.489.922l-1.07 4.5c-.088.372-.003.765.23 1.066.235.301.592.477.97.477h2.38l-1.033 5.152a.706.706 0 0 0 .686.848.7.7 0 0 0 .65-.448l2.565-6.587a1.26 1.26 0 0 0-.227-.964 1.23 1.23 0 0 0-.99-.501h-2.464z"/></svg>