<svg xmlns="http://www.w3.org/2000/svg" viewBox="0 0 16 16"><path fill-rule="evenodd" d="M14 3.5a1 1 0 0 1-1 1v7.03q.604-.125 1.045-.252a.75.75 0 0 1 .41 1.444C13.121 13.1 10.84 13.5 8 13.5s-5.12-.4-6.455-.778a.75.75 0 0 1 .41-1.444q.44.127 1.045.252V4.5a1 1 0 1 1 1-1h8a1 1 0 1 1 2 0m-2.5 8.278v-1.484A29 29 0 0 1 8 10.5c-1.307 0-2.475-.08-3.5-.206v1.484A27 27 0 0 0 8 12c1.315 0 2.496-.09 3.5-.222M8 9q-.384 0-.75-.01V5h1.495l.005 3.99Q8.384 9 8 9m2.25-.087q.66-.054 1.25-.13V5h-1.255zM5.75 5v3.913q-.66-.054-1.25-.13V5z"/></svg>