<svg xmlns="http://www.w3.org/2000/svg" viewBox="0 0 24 24"><path fill-rule="evenodd" d="M20.377 19.5c.4-.397.434-.866.5-1.803.067-.924.123-2.16.123-3.696s-.056-2.774-.122-3.698c-.067-.937-.1-1.406-.5-1.802s-.839-.424-1.715-.48a11 11 0 0 0-1.326 0c-.876.056-1.314.083-1.714.48s-.434.865-.5 1.802a46 46 0 0 0-.09 1.728l-.358-.016a16 16 0 0 0-1.35 0l-.437.02c-.06-.773-.119-1.189-.49-1.552-.406-.396-.853-.42-1.746-.465a13 13 0 0 0-1.304 0c-.893.046-1.34.069-1.745.465-.406.396-.44.855-.508 1.773a35 35 0 0 0-.084 1.768l-.25-.01a22 22 0 0 0-1.523 0c-.866.03-1.3.046-1.714.448-.414.4-.44.79-.492 1.566a14.5 14.5 0 0 0 0 1.945c.052.776.078 1.164.492 1.566.414.4.847.416 1.714.447a22 22 0 0 0 1.524 0c.594-.021.984-.035 1.305-.17.313.117.704.137 1.28.167a13 13 0 0 0 1.305 0c.6-.031.999-.052 1.319-.182.327.14.732.158 1.353.184a16 16 0 0 0 1.352 0c.637-.027 1.047-.044 1.379-.195.312.128.7.152 1.282.188a11 11 0 0 0 1.326 0c.876-.055 1.314-.082 1.714-.479M18 18q.264 0 .538-.018l.314-.02A50 50 0 0 0 19 14a50 50 0 0 0-.148-3.962l-.314-.021a8.6 8.6 0 0 0-1.39.02A50 50 0 0 0 17 14a50 50 0 0 0 .148 3.962l.314.02Q17.736 18 18 18m-4 0q.294 0 .59-.013l.329-.015.022-.294c.034-.464.059-1.024.059-1.678a23 23 0 0 0-.082-1.972l-.328-.015a14 14 0 0 0-1.508.015l-.023.295A23 23 0 0 0 13 16a23 23 0 0 0 .082 1.972l.327.015q.297.012.591.013m-3.45-.015a11 11 0 0 1-1.432-.018A35 35 0 0 1 9 15.001a35 35 0 0 1 .119-2.968l.332-.018a11 11 0 0 1 1.43.018c.01.103.018.223.03.37.05.677.089 1.545.089 2.598s-.04 1.92-.09 2.596c-.01.148-.02.267-.028.37zM6 18a20 20 0 0 0 .964-.023l.009-.138a12.5 12.5 0 0 0 0-1.677l-.01-.139-.272-.01a20 20 0 0 0-1.654.01l-.01.139a12.5 12.5 0 0 0 0 1.677l.01.138.272.01Q5.653 18 6 18"/><path d="M18.081 5.314a1 1 0 0 0-1.162-1.628l-3.124 2.232-3.552-.888a1 1 0 0 0-.868.19l-5 4a1 1 0 1 0 1.25 1.56l4.613-3.69 3.52.88a1 1 0 0 0 .823-.156z"/></svg>