<svg xmlns="http://www.w3.org/2000/svg" viewBox="0 0 24 24"><path d="M19.978 19.957c.542-.094.883-.589.912-1.138.048-.917.11-2.536.11-4.818a93 93 0 0 0-.11-4.82c-.029-.55-.37-1.044-.912-1.137A3 3 0 0 0 19.5 8a3 3 0 0 0-.478.044c-.542.093-.883.588-.912 1.137-.048.918-.11 2.537-.11 4.82 0 2.282.062 3.901.11 4.818.03.55.37 1.044.912 1.137.153.027.316.044.478.044q.246-.002.478-.044M18.314 3.919a1 1 0 0 1-.233 1.395l-3.5 2.5a1 1 0 0 1-.823.156l-3.52-.88-4.613 3.69a1 1 0 1 1-1.25-1.56l5-4a1 1 0 0 1 .868-.19l3.552.888 3.124-2.232a1 1 0 0 1 1.395.233m-2.396 14.908c-.039.595-.456 1.101-1.05 1.155a4 4 0 0 1-.736 0c-.594-.054-1.01-.56-1.05-1.155A44 44 0 0 1 13 16a44 44 0 0 1 .082-2.827c.04-.595.456-1.1 1.05-1.155a4 4 0 0 1 .736 0c.594.054 1.011.56 1.05 1.155.04.64.082 1.586.082 2.827 0 1.242-.041 2.188-.082 2.827m-5.016-.007c-.034.574-.412 1.078-.982 1.152A3 3 0 0 1 9.5 20q-.214-.001-.42-.028c-.57-.074-.948-.578-.982-1.152C8.052 18.031 8 16.75 8 15s.052-3.03.098-3.82c.034-.574.412-1.078.982-1.152q.205-.027.42-.028.214.001.42.028c.57.074.948.578.982 1.152.046.79.098 2.071.098 3.82 0 1.75-.052 3.031-.098 3.82m-6.07 1.17c.61-.04 1.063-.532 1.107-1.141C5.972 18.387 6 17.769 6 17s-.028-1.386-.061-1.848c-.044-.61-.497-1.103-1.108-1.141a5 5 0 0 0-.662 0c-.61.038-1.064.53-1.108 1.14A26 26 0 0 0 3 17.001c0 .768.028 1.386.061 1.848.044.61.497 1.102 1.107 1.14a5 5 0 0 0 .664 0"/></svg>