<svg xmlns="http://www.w3.org/2000/svg" viewBox="0 0 16 16"><path d="M12.6 3.914a.75.75 0 1 0-.699-1.328L9.453 3.875l-2.725-.607a.75.75 0 0 0-.544.086l-3.815 2.25a.75.75 0 0 0 .762 1.292l3.56-2.1 2.705.603a.75.75 0 0 0 .512-.069z"/><path fill-rule="evenodd" d="M14.576 12.656c.264-.26.29-.567.34-1.179A27 27 0 0 0 15 9.251c0-.916-.038-1.66-.085-2.228-.05-.612-.075-.918-.34-1.179-.264-.26-.565-.28-1.167-.32a10 10 0 0 0-.658-.024c-.223 0-.446.01-.658.023-.602.04-.903.06-1.168.321-.264.26-.29.567-.34 1.18q-.018.234-.035.51-.128-.008-.28-.015a14 14 0 0 0-1.716.02c-.041-.317-.109-.52-.299-.705-.267-.26-.569-.278-1.173-.313a12 12 0 0 0-.664-.02c-.226 0-.451.007-.665.02-.604.035-.906.052-1.173.313-.267.26-.293.558-.343 1.154a19 19 0 0 0-.037.537l-.219-.01a17 17 0 0 0-1.46 0c-.583.026-.874.038-1.146.3-.273.261-.295.523-.338 1.045q-.034.387-.036.89.002.5.036.889c.043.522.065.783.338 1.045.272.261.563.274 1.146.3a17 17 0 0 0 1.46 0c.41-.019.676-.03.892-.127.213.084.48.1.88.123a12 12 0 0 0 1.33 0c.412-.024.684-.04.9-.131.22.098.493.111.915.133a14 14 0 0 0 1.373 0c.432-.022.708-.036.93-.14.214.09.484.108.892.135.212.014.435.023.658.023s.446-.009.658-.023c.602-.04.903-.06 1.168-.32M12.75 11.42c.181 0 .369-.007.553-.02l.034-.002.004-.05c.043-.525.079-1.226.079-2.097 0-.872-.036-1.573-.08-2.099l-.003-.05-.034-.002a8 8 0 0 0-.553-.02q-.273.001-.553.02l-.033.002-.005.05a26 26 0 0 0-.079 2.099c0 .87.036 1.572.08 2.097l.003.05.034.002c.184.013.372.02.553.02m-3.167.08c.203 0 .41-.006.61-.016l.089-.005.004-.043c.027-.322.047-.718.047-1.186s-.02-.863-.047-1.186l-.004-.043-.088-.004a12 12 0 0 0-1.221 0l-.088.004-.004.043c-.027.322-.048.718-.048 1.186s.02.864.048 1.186l.004.043.088.005c.2.01.408.016.61.016m-2.589-.018c-.19.011-.387.018-.577.018-.191 0-.387-.007-.578-.018l-.1-.006-.008-.09a20 20 0 0 1-.064-1.635c0-.664.028-1.21.064-1.637l.008-.09.1-.006C6.03 8.007 6.226 8 6.417 8s.386.007.577.018l.1.006.008.09c.036.427.065.973.065 1.636 0 .664-.029 1.21-.065 1.637l-.007.09zM3.25 11.5c.222 0 .449-.006.665-.015l.057-.003a9 9 0 0 0 0-1.466l-.057-.002a16 16 0 0 0-1.33 0l-.057.002a9 9 0 0 0 0 1.466l.057.003c.216.01.443.015.665.015"/></svg>