<svg xmlns="http://www.w3.org/2000/svg" viewBox="0 0 24 24"><path fill-rule="evenodd" d="m20.909 9.943-.002-.028c-.189-2.598-.283-3.892-1.587-5.206-1.304-1.302-2.607-1.407-5.192-1.615l-.035-.003c-.68-.05-1.38-.08-2.079-.09s-1.399.03-2.078.08l-.028.002c-2.6.189-3.895.283-5.21 1.586C3.39 5.967 3.292 7.265 3.096 9.84l-.005.064C3.03 10.582 3 11.28 3 11.98s.03 1.398.08 2.077l.002.028c.188 2.598.282 3.892 1.587 5.206 1.309 1.317 2.617 1.418 5.224 1.617h.003c.68.05 1.379.08 2.078.09.7.01 1.4-.03 2.079-.08l.027-.001c2.6-.189 3.895-.283 5.21-1.586 1.318-1.308 1.419-2.616 1.618-5.221v-.003c.05-.679.08-1.378.09-2.077s-.03-1.398-.08-2.077zm-5.153-.367V7.86H8.208v8.28h7.584v-1.716H10.44v-1.692h4.044v-1.644H10.44V9.576z"/></svg>