<svg xmlns="http://www.w3.org/2000/svg" viewBox="0 0 24 24"><path d="M9.47 12.218c.076-.164.001-.446-.15-1.01L8.998 10H10c1.914 0 3.249.002 4.256.137.978.132 1.496.373 1.865.742.37.369.61.887.742 1.865.135 1.007.137 2.342.137 4.256v2a1 1 0 1 0 2 0v-2.073c0-1.824 0-3.293-.155-4.45-.162-1.2-.507-2.21-1.31-3.013-.802-.802-1.812-1.147-3.013-1.309C13.366 8 11.897 8 10.073 8H8.998l.322-1.208c.151-.564.226-.846.15-1.01a.5.5 0 0 0-.353-.276c-.177-.036-.434.103-.948.383L3.74 8.302c-.417.227-.626.34-.695.491a.5.5 0 0 0 0 .414c.069.15.278.264.695.491l4.43 2.413c.513.28.77.42.947.383a.5.5 0 0 0 .352-.276"/></svg>