<svg xmlns="http://www.w3.org/2000/svg" viewBox="0 0 17 17"><path d="M7.021 3.939c.06.125.002.34-.113.772l-.23.866h.462c1.287 0 2.333 0 3.158.111.86.116 1.597.365 2.185.953.587.587.836 1.325.952 2.184.11.825.11 1.871.11 3.158v1.031a.797.797 0 0 1-1.593 0v-.974c0-1.358-.002-2.296-.097-3.002-.091-.683-.257-1.028-.5-1.27-.242-.243-.587-.409-1.27-.5-.706-.095-1.644-.097-3.002-.097h-.409l.234.877c.115.431.172.647.114.772a.38.38 0 0 1-.269.211c-.135.028-.33-.08-.722-.293L2.689 6.913c-.318-.174-.477-.26-.53-.376a.38.38 0 0 1 0-.315c.053-.116.212-.202.53-.376L6.03 4.02c.391-.214.587-.32.722-.293a.38.38 0 0 1 .268.21"/></svg>