<svg xmlns="http://www.w3.org/2000/svg" viewBox="0 0 16 16"><path d="M7.5 2.894c0-.179 0-.268-.019-.346a.68.68 0 0 0-.538-.5c-.08-.013-.162-.006-.328.006-.494.037-.918.068-1.292.115-.615.076-.922.114-1.057.507-.135.394.125.654.645 1.175l.392.392c.898.897 1.347 1.346 1.734 1.222a1 1 0 0 0 .101-.042c.362-.186.362-.82.362-2.09zM3.85 4.911c-.52-.52-.78-.78-1.174-.645s-.431.442-.507 1.056c-.047.375-.078.799-.115 1.293C2.02 7.067 2 7.533 2 8s.02.932.054 1.384c.13 1.744.195 2.616 1.07 3.492s1.747.94 3.491 1.07c.452.033.918.053 1.385.053s.932-.02 1.384-.054c1.744-.13 2.616-.194 3.492-1.07.875-.875.94-1.747 1.07-3.49a.36.36 0 0 0-.36-.385H8.182a.67.67 0 0 1-.415-.173c-.012-.01-.024-.023-.048-.047z"/><path d="M13.106 7.5c.178 0 .267 0 .345-.019a.68.68 0 0 0 .5-.538c.013-.08.007-.162-.006-.328-.13-1.744-.194-2.616-1.07-3.491-.875-.875-1.747-.94-3.49-1.07a.36.36 0 0 0-.385.36v3.753c0 .628 0 .942.195 1.138.196.195.51.195 1.138.195z"/></svg>