<svg xmlns="http://www.w3.org/2000/svg" viewBox="0 0 16 16"><path fill-rule="evenodd" d="M2.054 6.615c.13-1.744.195-2.616 1.07-3.491s1.747-.94 3.491-1.07C7.067 2.02 7.533 2 8 2s.932.02 1.384.054c1.744.13 2.616.195 3.492 1.07s.94 1.747 1.07 3.49c.033.453.053.92.053 1.386s-.02.932-.054 1.384c-.13 1.744-.194 2.616-1.07 3.492-.875.875-1.747.94-3.49 1.07A19 19 0 0 1 8 13.998c-.467 0-.933-.02-1.385-.054-1.744-.13-2.616-.194-3.491-1.07-.875-.875-.94-1.747-1.07-3.49A19 19 0 0 1 2 8c0-.467.02-.933.054-1.385M7.25 3.518q-.263.012-.524.032c-.993.074-1.532.13-1.883.232L7.25 6.19zM3.782 4.843c-.102.351-.158.89-.232 1.883-.031.422-.05.85-.05 1.274 0 .423.019.852.05 1.273.137 1.845.214 2.122.635 2.542.42.42.697.497 2.541.635.422.03.85.05 1.274.05.423 0 .852-.02 1.273-.05 1.845-.138 2.122-.215 2.542-.635s.497-.697.635-2.542q.02-.26.031-.523H8a.75.75 0 0 1-.53-.22zm8.7 2.407q-.014-.263-.032-.524c-.138-1.844-.215-2.121-.635-2.542s-.697-.497-2.542-.634a19 19 0 0 0-.524-.032V7.25z"/></svg>