<svg xmlns="http://www.w3.org/2000/svg" viewBox="0 0 24 24"><path d="M10.96 12.054c.343-.034.695-.054 1.04-.054s.697.02 1.04.054c.262.025.445.043.6.064q.128.017.191.03.014.061.032.185c.023.153.043.333.072.593.04.358.065.723.065 1.074 0 .367-.027.745-.07 1.11-.03.248-.05.417-.071.56q-.016.105-.029.16a3 3 0 0 1-.16.028c-.143.022-.312.042-.558.072-.367.043-.745.07-1.112.07s-.745-.027-1.111-.07c-.247-.03-.416-.05-.56-.072a3 3 0 0 1-.16-.028 3 3 0 0 1-.028-.16 17 17 0 0 1-.071-.56A10 10 0 0 1 10 14c0-.35.025-.716.065-1.074.029-.26.05-.44.072-.593a3 3 0 0 1 .032-.185 3 3 0 0 1 .191-.03c.155-.02.338-.039.6-.064"/><path fill-rule="evenodd" d="M12 2c1.082 0 2.098.479 2.862 1.243l2.39 2.39c1.322 1.322 1.983 1.983 2.364 2.9s.381 1.74.384 3.385V12c0 1.55-.068 2.903-.168 4.056-.175 2.024-.263 3.036-1.557 4.325s-2.264 1.37-4.205 1.532a25 25 0 0 1-4.14 0c-1.94-.161-2.911-.242-4.205-1.532-1.294-1.289-1.381-2.301-1.557-4.325A47 47 0 0 1 4 12c0-1.549.068-2.901.168-4.054.175-2.025.263-3.038 1.557-4.327s2.265-1.37 4.207-1.532A25 25 0 0 1 12 2M8.077 12.704c.112-1 .168-1.499.673-1.997.505-.497 1.009-.546 2.017-.644C11.16 10.025 11.58 10 12 10s.84.025 1.233.063c1.008.098 1.512.147 2.017.644.505.498.561.997.673 1.996.046.415.077.856.077 1.297 0 .462-.034.92-.084 1.344-.111.948-.167 1.422-.658 1.913-.49.491-.964.547-1.912.659-.425.05-.884.084-1.346.084s-.92-.034-1.346-.084c-.948-.112-1.422-.168-1.913-.659-.49-.49-.546-.965-.657-1.913C8.034 14.919 8 14.46 8 14c0-.441.03-.882.077-1.296"/></svg>