<svg xmlns="http://www.w3.org/2000/svg" viewBox="0 0 16 16"><path d="M7.22 7.54A8 8 0 0 1 8 7.5c.258 0 .523.016.78.04.196.02.333.033.45.048l.143.023q.01.046.024.139c.017.114.033.25.054.445.03.268.049.542.049.805 0 .275-.02.559-.052.833-.022.185-.037.312-.054.42l-.021.12-.12.02c-.107.017-.234.032-.42.054A7 7 0 0 1 8 10.5c-.275 0-.559-.02-.833-.053a13 13 0 0 1-.42-.053l-.12-.021-.021-.12a13 13 0 0 1-.054-.42A7 7 0 0 1 6.5 9c0-.263.018-.537.048-.805.022-.195.038-.33.055-.445q.014-.093.024-.139.047-.01.143-.023c.117-.015.254-.029.45-.048"/><path fill-rule="evenodd" d="M8 1c.754 0 1.464.33 1.997.863l2.365 2.364c.682.682 1.023 1.023 1.26 1.476.082.159.171.373.225.545C14 6.735 14 7.157 14 8c0 1.166-.059 2.171-.143 3.016-.134 1.338-.2 2.007-1.044 2.849s-1.512.907-2.848 1.038a20 20 0 0 1-3.93 0c-1.336-.13-2.004-.196-2.848-1.038s-.91-1.511-1.044-2.85A30 30 0 0 1 2 8c0-1.165.059-2.17.143-3.015.133-1.338.2-2.008 1.044-2.85s1.512-.907 2.85-1.038C6.636 1.038 7.297 1 8 1M5.058 8.028c.084-.75.125-1.124.504-1.497.379-.374.757-.41 1.513-.484C7.37 6.02 7.684 6 8 6s.63.019.925.047c.756.074 1.134.11 1.513.484.378.373.42.748.504 1.497.035.31.058.641.058.972 0 .346-.025.69-.063 1.008-.083.711-.125 1.067-.493 1.435s-.724.41-1.435.494A9 9 0 0 1 8 12a9 9 0 0 1-1.01-.063c-.71-.084-1.066-.126-1.434-.494s-.41-.724-.493-1.435A9 9 0 0 1 5 9c0-.33.023-.661.058-.972"/></svg>