<svg xmlns="http://www.w3.org/2000/svg" viewBox="0 0 32 32"><path d="M15.563 15.953a11 11 0 0 1 .873 0c.434.017.745.029 1.011.05.26.021.406.046.494.067.072.017.095.03.103.035a.8.8 0 0 1 .152.127.7.7 0 0 1 .124.147.5.5 0 0 1 .039.113c.023.095.049.248.071.517a27 27 0 0 1 .07 1.609q0 .283-.013.572c-.02.442-.034.762-.057 1.037a3.5 3.5 0 0 1-.071.516.4.4 0 0 1-.04.113.7.7 0 0 1-.123.147.8.8 0 0 1-.152.127c-.007.004-.03.018-.103.035a3 3 0 0 1-.494.067A26 26 0 0 1 16 21.29q-.216 0-.437-.009a26 26 0 0 1-1.01-.05 3 3 0 0 1-.494-.067.4.4 0 0 1-.103-.035.8.8 0 0 1-.152-.127.7.7 0 0 1-.124-.147c-.004-.007-.02-.034-.039-.113a3.5 3.5 0 0 1-.072-.516 27 27 0 0 1-.07-1.61q0-.283.014-.572c.019-.442.033-.762.056-1.037a4 4 0 0 1 .072-.516.4.4 0 0 1 .039-.113.7.7 0 0 1 .123-.147.8.8 0 0 1 .153-.127c.007-.004.03-.018.103-.035a3 3 0 0 1 .494-.067c.266-.021.577-.033 1.01-.05"/><path fill-rule="evenodd" d="M6.196 21.1A64 64 0 0 1 6 16c0-1.937.078-3.637.195-5.098.218-2.711.327-4.067 2.077-5.805s3.015-1.83 5.546-2.016A30 30 0 0 1 16 3c1.144 0 2.222.444 3.032 1.252l3.547 3.535c1.476 1.472 2.215 2.208 2.697 3.156.15.295.29.632.393.947C26 12.9 26 13.934 26 16c0 1.938-.078 3.639-.196 5.1-.217 2.71-.326 4.064-2.076 5.802s-3.014 1.831-5.544 2.017a30 30 0 0 1-4.368 0c-2.53-.186-3.795-.279-5.544-2.017-1.75-1.738-1.859-3.093-2.076-5.803m4.82-3.164c.074-1.712.111-2.568 1.024-3.476.914-.909 1.752-.94 3.427-1.005a14 14 0 0 1 1.065 0c1.676.064 2.514.096 3.427 1.005s.951 1.764 1.026 3.476a16 16 0 0 1 0 1.363c-.075 1.712-.112 2.568-1.026 3.476-.913.909-1.751.941-3.427 1.005a14 14 0 0 1-1.065 0c-1.675-.064-2.513-.096-3.427-1.005-.913-.908-.95-1.764-1.025-3.476a16 16 0 0 1 0-1.363"/></svg>