<svg xmlns="http://www.w3.org/2000/svg" viewBox="0 0 16 16"><path fill-rule="evenodd" d="M7.747 1.04a.75.75 0 0 1 .506 0c.449.161.85.484 1.186.835.345.36.668.8.952 1.264a10 10 0 0 1 .97 2.103 5.5 5.5 0 0 1 1.344-.237.75.75 0 0 1 .717.424A6 6 0 1 1 2 8c0-.92.212-1.788.583-2.568a.75.75 0 0 1 .717-.426 5.5 5.5 0 0 1 1.339.236 10 10 0 0 1 .97-2.102c.284-.465.607-.904.951-1.264.336-.351.738-.674 1.187-.835M6.003 5.914c.652.462 1.176 1.072 1.58 1.769q.236.409.42.852.183-.443.42-.852c.403-.696.924-1.305 1.575-1.766a8.2 8.2 0 0 0-.887-1.996C8.815 3.437 8.466 2.932 8 2.595c-.466.337-.816.842-1.111 1.326a8.2 8.2 0 0 0-.886 1.993M3.5 8c0-.503.082-.987.235-1.438 2.669.476 3.47 3.55 3.515 5.876A4.5 4.5 0 0 1 3.5 8m9 0a4.5 4.5 0 0 1-3.745 4.437c.045-2.323.845-5.395 3.51-5.874.153.451.235.934.235 1.437"/></svg>