<svg xmlns="http://www.w3.org/2000/svg" viewBox="0 0 24 24"><path fill-rule="evenodd" d="M12.328 2.055a1 1 0 0 0-.656 0c-.644.224-1.23.676-1.73 1.181-.51.517-.99 1.15-1.415 1.82-.658 1.044-1.222 2.25-1.55 3.37a8.8 8.8 0 0 0-2.337-.425 1.01 1.01 0 0 0-.97.585 9 9 0 1 0 16.66 0A1 1 0 0 0 19.368 8a8.8 8.8 0 0 0-2.343.428c-.33-1.121-.893-2.328-1.552-3.373a11 11 0 0 0-1.415-1.82c-.5-.505-1.086-.957-1.73-1.18m6.403 8.017c-1.955.293-3.301 1.344-4.208 2.793-1.034 1.65-1.509 3.85-1.519 6.064a7 7 0 0 0 5.727-8.857m-7.727 8.858c-.01-2.215-.485-4.415-1.519-6.065-.908-1.451-2.256-2.502-4.216-2.795a7 7 0 0 0 5.734 8.86m.176-7.126c-.615-.984-1.402-1.837-2.373-2.485.236-.97.754-2.152 1.412-3.195a9 9 0 0 1 1.145-1.48c.237-.24.452-.414.636-.533.184.119.399.292.636.532.385.39.778.9 1.145 1.48.66 1.045 1.177 2.23 1.413 3.2-.968.648-1.753 1.5-2.367 2.48a10.6 10.6 0 0 0-.823 1.626 10.4 10.4 0 0 0-.824-1.626"/></svg>