<svg xmlns="http://www.w3.org/2000/svg" viewBox="0 0 44 44"><path d="M34.998 22c0-7.18-5.82-13-13-13s-13 5.82-13 13a12.96 12.96 0 0 0 4.3 9.66c.182.164.549.34 1.142.34h9.058a1.5 1.5 0 1 1 0 3H14.44c-1.152 0-2.294-.34-3.15-1.111A15.96 15.96 0 0 1 5.998 22c0-8.837 7.164-16 16-16s16 7.163 16 16l-.002.5a1.5 1.5 0 0 1-2.998 0z"/><path d="M14.937 14.94a1.5 1.5 0 0 1 2.122 0l6 6a1.5 1.5 0 0 1-2.122 2.12l-6-6a1.5 1.5 0 0 1 0-2.12m19.658 11.5c-.696-1.251-2.497-1.251-3.193 0l-3.1 5.58C26.315 35.6 28.903 40 33 40c4.095 0 6.684-4.4 4.695-7.98z"/></svg>