<svg xmlns="http://www.w3.org/2000/svg" viewBox="0 0 17 17"><path d="M8.499 3.72a4.78 4.78 0 0 1 4.767 4.42.799.799 0 1 0 1.582-.211A6.375 6.375 0 1 0 3.714 12.71c.342.389.853.569 1.371.569h3.576a.797.797 0 1 0 .004-1.594h-3.58a.5.5 0 0 1-.18-.034 4.78 4.78 0 0 1 3.594-7.933"/><path d="M6.076 6.076a.797.797 0 0 0 0 1.127l1.86 1.86a.797.797 0 1 0 1.126-1.127l-1.859-1.86a.797.797 0 0 0-1.127 0m5.97 3.898a.803.803 0 0 1 1.404 0l1.362 2.453c.875 1.574-.263 3.508-2.064 3.508-1.8 0-2.939-1.934-2.064-3.508z"/></svg>