<svg xmlns="http://www.w3.org/2000/svg" viewBox="0 0 24 24"><path d="M6.228 8.589v1.416H1.842v1.247h3.337v1.357H1.842v1.396h4.416v1.416H0V8.59zm.698 3.426q0-.99.268-1.674.267-.682.782-1.099a3.06 3.06 0 0 1 1.248-.604 6.8 6.8 0 0 1 1.673-.188q.861 0 1.535.129a3.4 3.4 0 0 1 1.168.426q.495.297.783.782.297.475.366 1.168h-1.862a1.2 1.2 0 0 0-.218-.534 1 1 0 0 0-.405-.327 1.7 1.7 0 0 0-.595-.168 5.4 5.4 0 0 0-.772-.05q-.465 0-.851.08a1.7 1.7 0 0 0-.674.267q-.277.188-.436.524-.148.337-.148.872v.782q0 .525.148.862.159.326.436.524t.664.278q.396.069.871.069.416 0 .743-.04.336-.049.584-.158.258-.12.416-.307.168-.198.247-.505h1.862q-.08.664-.376 1.129a2.4 2.4 0 0 1-.793.752 3.6 3.6 0 0 1-1.168.416 7.6 7.6 0 0 1-1.525.139q-.94 0-1.673-.178a3.2 3.2 0 0 1-1.248-.585 2.6 2.6 0 0 1-.782-1.089q-.268-.683-.268-1.693m15.203-.386q0-.981-.605-1.367-.594-.386-1.782-.386t-1.792.386-.604 1.367v.723q0 .515.148.861.159.337.456.545.297.207.742.297.456.08 1.05.079.594 0 1.04-.08.445-.088.742-.286.307-.209.456-.545.148-.347.148-.871zm-6.645.336q0-.99.277-1.663.278-.684.822-1.09.546-.405 1.337-.584a8.4 8.4 0 0 1 1.822-.178q1.03 0 1.822.178.792.18 1.337.585t.822 1.089q.277.673.277 1.663 0 1.02-.277 1.713a2.63 2.63 0 0 1-.822 1.11q-.545.415-1.337.594a8.4 8.4 0 0 1-1.822.178q-1.03 0-1.822-.178-.792-.18-1.337-.594a2.63 2.63 0 0 1-.821-1.11q-.278-.693-.278-1.713"/></svg>