<svg xmlns="http://www.w3.org/2000/svg" viewBox="0 0 44 44"><path d="M11.419 15.734v2.596H3.377v2.288h6.117v2.487H3.377v2.56h8.096v2.595H0V15.734zm1.279 6.281q0-1.815.49-3.068.49-1.252 1.435-2.015.943-.78 2.287-1.107 1.344-.345 3.068-.345 1.579 0 2.814.236 1.253.236 2.142.78a4.1 4.1 0 0 1 1.434 1.435q.544.87.672 2.142h-3.413q-.11-.6-.4-.98a1.84 1.84 0 0 0-.744-.6 3.1 3.1 0 0 0-1.089-.308 10 10 0 0 0-1.416-.09q-.854 0-1.561.144a3.1 3.1 0 0 0-1.235.49 2.33 2.33 0 0 0-.798.963q-.273.617-.273 1.597v1.434q0 .963.273 1.58.29.6.798.962.51.363 1.217.508a9.3 9.3 0 0 0 1.597.127q.762 0 1.362-.072.617-.091 1.07-.29a2.2 2.2 0 0 0 .763-.564 2.3 2.3 0 0 0 .454-.925h3.413q-.146 1.215-.69 2.069a4.4 4.4 0 0 1-1.452 1.38q-.89.526-2.142.762-1.235.255-2.796.254-1.724 0-3.068-.326-1.344-.327-2.287-1.072-.945-.762-1.434-1.996-.49-1.253-.49-3.105m27.87-.708q0-1.797-1.107-2.505-1.09-.708-3.268-.708t-3.286.708q-1.107.708-1.107 2.505v1.326q0 .943.272 1.579.29.617.835.998.545.382 1.362.545.834.145 1.924.145t1.906-.145q.818-.163 1.362-.526a2.3 2.3 0 0 0 .835-.999q.272-.636.272-1.598zm-12.181.617q0-1.814.508-3.05.508-1.252 1.507-1.996t2.45-1.071q1.453-.327 3.34-.327 1.89 0 3.341.327t2.45 1.07 1.508 1.998Q44 20.11 44 21.925q0 1.87-.508 3.14-.509 1.253-1.507 2.033-1 .763-2.45 1.09-1.453.326-3.341.326t-3.34-.326-2.451-1.09q-.999-.78-1.507-2.033-.508-1.27-.508-3.14"/></svg>