<svg xmlns="http://www.w3.org/2000/svg" viewBox="0 0 16 16"><path d="M11.257 11a.9.9 0 1 1-1.8-.001.9.9 0 0 1 1.8 0"/><path fill-rule="evenodd" d="M12.22 3.22a.75.75 0 1 1 1.06 1.06L9.536 8.024c.787.026 1.454.069 2.002.116.834.072 1.25.108 1.758.587.507.48.552.8.644 1.44a6 6 0 0 1 0 1.667c-.092.64-.137.96-.644 1.439s-.924.515-1.758.587c-.875.076-2.056.14-3.538.14s-2.663-.064-3.538-.14c-.834-.072-1.25-.108-1.757-.587-.507-.48-.553-.799-.645-1.438a6 6 0 0 1 0-1.67c.092-.639.138-.959.645-1.438.507-.48.923-.515 1.757-.587.548-.047 1.215-.09 2.002-.116L2.72 4.28a.75.75 0 0 1 1.06-1.06l3.807 3.807a.583.583 0 0 0 .825 0zM8 9.5c-1.439 0-2.577.063-3.41.134-.216.019-.365.032-.493.048-.123.016-.187.03-.223.04a.2.2 0 0 0-.043.017.6.6 0 0 0-.096.078 1 1 0 0 0-.113.121l-.005.016q-.006.02-.017.074a7 7 0 0 0-.055.35 4.4 4.4 0 0 0 0 1.244c.025.17.04.268.055.35a1 1 0 0 0 .021.089c.009.012.039.05.114.122a.6.6 0 0 0 .096.078.2.2 0 0 0 .043.016c.036.01.1.025.223.04.127.017.277.03.494.049.832.072 1.97.134 3.409.134s2.576-.062 3.409-.134c.217-.019.366-.032.494-.048.123-.016.187-.03.223-.04a.2.2 0 0 0 .043-.017.6.6 0 0 0 .096-.078 1 1 0 0 0 .113-.121l.005-.016.017-.074c.016-.082.03-.18.055-.35a4.4 4.4 0 0 0 0-1.243 7 7 0 0 0-.055-.35l-.021-.09a1 1 0 0 0-.114-.122.6.6 0 0 0-.096-.078.2.2 0 0 0-.043-.016c-.036-.01-.1-.025-.223-.04-.128-.017-.277-.03-.494-.049A40 40 0 0 0 8 9.5"/></svg>