<svg xmlns="http://www.w3.org/2000/svg" viewBox="0 0 24 24"><path fill-rule="evenodd" d="M13.315 7c-.942 0-1.76.262-2.418.762-.46.35-.81.793-1.067 1.28-.583.075-1.187.252-1.71.57-.767.463-1.389 1.257-1.389 2.388 0 1.122.6 1.925 1.411 2.398.762.443 1.708.602 2.592.602h2.895c1.112 0 2.028-.382 2.667-1.03.627-.635.93-1.47.93-2.279 0-1.204-.281-2.36-.938-3.24C15.606 7.535 14.578 7 13.315 7m-1.207 2.354c.27-.205.648-.354 1.207-.354.645 0 1.073.247 1.37.646.322.433.542 1.123.542 2.045 0 .878-.809 1.309-1.598 1.309h-2.895c-.786 0-2.003-.099-2.003-1 0-.815 1.02-1 1.77-1h.704c.135-.562.38-1.248.903-1.646"/><path fill-rule="evenodd" d="M12 3c-1.55 0-2.902.067-4.055.167-2.024.176-3.036.264-4.326 1.558S2.25 6.989 2.087 8.93a25 25 0 0 0 0 4.14c.162 1.94.243 2.91 1.532 4.205 1.29 1.293 2.302 1.381 4.326 1.557 1.153.1 2.505.168 4.055.168s2.902-.068 4.055-.168c2.025-.176 3.037-.264 4.327-1.558s1.37-2.264 1.532-4.206a25 25 0 0 0 0-4.137c-.162-1.941-.243-2.912-1.532-4.206s-2.302-1.382-4.328-1.558A47 47 0 0 0 12 3m0 2a45 45 0 0 0-3.882.16c-1.078.094-1.602.149-2.022.278-.312.096-.613.25-1.06.699-.458.459-.606.755-.696 1.043-.123.393-.173.879-.26 1.916a23 23 0 0 0 0 3.808c.087 1.037.137 1.522.26 1.916.53 1.704 2.284 1.89 3.778 2.02 1.096.095 2.39.16 3.882.16s2.786-.065 3.882-.16c1.079-.094 1.602-.149 2.023-.279.313-.096.613-.25 1.06-.698.458-.46.606-.755.696-1.044.123-.393.173-.88.26-1.917a23 23 0 0 0 0-3.805c-.087-1.037-.137-1.523-.26-1.917-.09-.288-.238-.584-.696-1.043-.447-.45-.747-.603-1.06-.699-.421-.13-.944-.184-2.024-.278a45 45 0 0 0-3.88-.16"/><path d="M7 21a1 1 0 0 1 1-1h8a1 1 0 1 1 0 2H8a1 1 0 0 1-1-1"/></svg>