<svg xmlns="http://www.w3.org/2000/svg" viewBox="0 0 24 24"><path fill-rule="evenodd" d="M12.004 3c-1.55 0-2.902.068-4.055.168-2.024.176-3.036.263-4.326 1.557S2.253 6.99 2.091 8.93a25 25 0 0 0 0 4.14c.162 1.94.243 2.911 1.532 4.205s2.302 1.382 4.326 1.557c1.153.1 2.505.168 4.055.168s2.902-.067 4.055-.168c2.025-.175 3.037-.263 4.327-1.557s1.37-2.265 1.532-4.206a25 25 0 0 0 0-4.137c-.162-1.942-.243-2.913-1.532-4.207s-2.302-1.382-4.328-1.557A47 47 0 0 0 12.004 3m1.942 11.5h-3.404C8.698 14.5 7 13.821 7 12.164s1.766-2.332 3.267-2.332c.496-1.375 1.545-2.332 3.31-2.332C15.82 7.5 17 9.325 17 11.804c0 1.314-.997 2.696-3.054 2.696"/><path d="M7.004 21a1 1 0 0 1 1-1h8a1 1 0 1 1 0 2h-8a1 1 0 0 1-1-1"/></svg>