<svg xmlns="http://www.w3.org/2000/svg" viewBox="0 0 24 24"><path fill-rule="evenodd" d="m2.444 8.358.79-.526A34.3 34.3 0 0 1 9.07 4.708a7.62 7.62 0 0 1 5.86 0 34.3 34.3 0 0 1 5.837 3.124l.788.526a1.96 1.96 0 0 1 0 3.259l-.79.527a34.3 34.3 0 0 1-5.832 3.121 7.62 7.62 0 0 1-5.866 0 34.3 34.3 0 0 1-5.832-3.121l-.79-.527a1.96 1.96 0 0 1 0-3.26"/><path d="M3.555 14.181a1 1 0 0 0-1.11 1.664l.236.157a35.3 35.3 0 0 0 6.001 3.212 8.63 8.63 0 0 0 6.636 0 35.3 35.3 0 0 0 6.001-3.212l.236-.157a1 1 0 0 0-1.11-1.664l-.235.157a33.3 33.3 0 0 1-5.662 3.03 6.62 6.62 0 0 1-5.096 0 33.3 33.3 0 0 1-5.662-3.03z"/></svg>