<svg xmlns="http://www.w3.org/2000/svg" viewBox="0 0 24 24"><path d="m15.67 4.273.749-1.3c.254-.442-.123-1.006-.652-.971l-.095.006c-2.348.152-3.544.23-4.005 1.03s.07 1.877 1.112 3.992l.043.086c.234.476.91.522 1.165.08l.684-1.19a8.63 8.63 0 0 1 3.413 3.271l-1.278.736c-.442.255-.396.93.08 1.165l.086.043c2.114 1.042 3.19 1.573 3.99 1.112s.878-1.657 1.03-4.005l.006-.095c.035-.529-.528-.906-.97-.651l-1.21.696a10.64 10.64 0 0 0-4.148-4.005"/><path fill-rule="evenodd" d="M11.781 8.19C11.898 9.367 12 10.973 12 13a49 49 0 0 1-.219 4.81c-.151 1.52-1.153 2.81-2.66 3.056-.49.08-1.036.134-1.621.134s-1.132-.054-1.621-.134c-1.507-.247-2.509-1.537-2.66-3.056A49 49 0 0 1 3 13c0-2.028.102-3.634.219-4.81.151-1.52 1.154-2.81 2.661-3.056A10 10 0 0 1 7.5 5c.585 0 1.131.054 1.62.134 1.507.246 2.51 1.537 2.661 3.057M5 13a47 47 0 0 0 .209 4.612c.08.804.552 1.208.993 1.28.397.065.835.108 1.298.108s.9-.043 1.298-.108c.441-.072.913-.476.993-1.28.11-1.11.209-2.65.209-4.612 0-1.961-.098-3.5-.209-4.611-.08-.805-.552-1.209-.994-1.281A8 8 0 0 0 7.5 7c-.462 0-.9.043-1.297.108-.442.072-.914.476-.994 1.28A47 47 0 0 0 5 13"/><path d="M13.964 18.919c-.538.03-.964.471-.964 1.01a.985.985 0 0 0 1.036.989 42 42 0 0 0 1.774-.137c1.52-.151 2.81-1.153 3.056-2.66.08-.49.134-1.036.134-1.621s-.054-1.132-.134-1.621c-.247-1.507-1.537-2.509-3.056-2.66a41 41 0 0 0-1.264-.105.984.984 0 0 0-1.046.988c0 .534.42.973.953 1.01q.642.046 1.159.097c.804.08 1.208.551 1.28.993.065.397.108.835.108 1.298 0 .462-.043.9-.108 1.298-.072.441-.476.913-1.28.993q-.708.072-1.649.128"/></svg>