<svg xmlns="http://www.w3.org/2000/svg" viewBox="0 0 16 16"><path d="m11.041 2.65.545-.943c.185-.321-.09-.73-.475-.706l-.07.005c-1.71.11-2.582.167-2.918.749s.05 1.365.81 2.902l.031.062c.171.347.663.38.85.058l.504-.874a4.9 4.9 0 0 1 1.793 1.771l-.888.513c-.322.186-.289.678.058.85l.062.03c1.537.76 2.32 1.147 2.902.81.582-.335.639-1.207.75-2.918l.004-.07c.025-.385-.385-.66-.707-.474l-.928.536A6.33 6.33 0 0 0 11.04 2.65"/><path fill-rule="evenodd" d="M2.152 11.866A34 34 0 0 1 2 8.5c0-1.429.071-2.552.152-3.366.1-1.007.756-1.869 1.753-2.04a6.4 6.4 0 0 1 2.19.001c.997.17 1.654 1.032 1.753 2.04C7.928 5.947 8 7.07 8 8.5s-.071 2.553-.152 3.366c-.1 1.007-.755 1.869-1.752 2.04a6.5 6.5 0 0 1-2.192-.001c-.997-.17-1.653-1.032-1.752-2.04M3.5 8.5c0 1.379.069 2.454.144 3.218a.97.97 0 0 0 .202.523.5.5 0 0 0 .311.186c.259.044.543.073.843.073s.584-.03.843-.073a.5.5 0 0 0 .311-.186.97.97 0 0 0 .202-.523C6.43 10.954 6.5 9.88 6.5 8.5s-.069-2.453-.144-3.218a.97.97 0 0 0-.202-.523.5.5 0 0 0-.312-.186A5 5 0 0 0 5 4.5c-.3 0-.584.029-.842.073a.5.5 0 0 0-.312.186.97.97 0 0 0-.202.523C3.57 6.047 3.5 7.122 3.5 8.5"/><path d="M9.353 13.94a25 25 0 0 0 .875-1.574.95.95 0 0 0 .517-.204.52.52 0 0 0 .187-.325c.042-.257.069-.54.069-.836 0-.298-.027-.58-.069-.837a.52.52 0 0 0-.187-.325.95.95 0 0 0-.517-.203q-.222-.023-.478-.043a.752.752 0 0 1 0-1.502c.148-.006.302.013.453.032q.088.012.174.02c1.016.102 1.875.776 2.037 1.784.052.324.087.687.087 1.074s-.035.749-.087 1.073c-.162 1.008-1.021 1.682-2.037 1.784q-.45.046-1.024.081"/></svg>