<svg xmlns="http://www.w3.org/2000/svg" viewBox="0 0 24 24"><path d="M15.22 7.97c-.164.076-.446.001-1.01-.15L13 7.497V10a1 1 0 1 1-2 0V7.498l-1.206.322c-.564.151-.846.226-1.01.15a.5.5 0 0 1-.276-.353c-.036-.177.103-.434.383-.948l2.413-4.429c.227-.417.34-.626.491-.695a.5.5 0 0 1 .414 0c.15.069.264.278.491.695l2.413 4.43c.28.513.42.77.383.947a.5.5 0 0 1-.276.352m1.46 6.24.284-1.066c-2.013.17-2.488.332-3.114.957-.706.706-.82 1.22-1.024 3.971A26 26 0 0 0 12.75 20a1 1 0 1 1-2 0c0-.7.03-1.399.081-2.077.195-2.616.292-3.924 1.605-5.237 1.202-1.202 2.4-1.385 4.6-1.557l-.356-1.335c-.151-.565-.227-.847-.15-1.011a.5.5 0 0 1 .352-.276c.178-.036.435.104.949.383l4.429 2.413c.417.227.626.341.695.491.06.132.06.283 0 .414-.069.15-.278.264-.695.492l-4.43 2.412c-.513.28-.77.42-.947.384a.5.5 0 0 1-.352-.277c-.078-.164-.002-.446.149-1.01"/></svg>