<svg xmlns="http://www.w3.org/2000/svg" viewBox="0 0 44 44"><path d="M27.512 13.45c-.283.13-.77.002-1.745-.255l-2.267-.597v6.4a1.501 1.501 0 1 1-3.002 0v-6.4l-2.27.597c-.974.257-1.46.386-1.744.254a.85.85 0 0 1-.476-.6c-.062-.302.179-.74.662-1.615l4.123-7.473c.392-.712.589-1.067.849-1.185a.87.87 0 0 1 .713 0c.26.118.456.473.848 1.185l4.123 7.473c.483.875.725 1.313.662 1.616a.85.85 0 0 1-.476.6m-1.86 12.293c1.344-1.352 2.429-1.652 6.18-1.975l-.528 2.001c-.257.974-.385 1.461-.254 1.745a.85.85 0 0 0 .6.476c.303.062.74-.18 1.616-.662l7.473-4.123c.711-.392 1.067-.589 1.184-.848a.87.87 0 0 0 0-.714c-.117-.26-.473-.456-1.184-.848l-7.473-4.123c-.876-.483-1.313-.725-1.616-.663a.85.85 0 0 0-.6.477c-.131.283-.003.77.254 1.744l.663 2.514c-4.043.327-6.223.65-8.443 2.885-2.4 2.414-2.565 4.725-2.895 9.346a50 50 0 0 0-.131 3.525 1.5 1.5 0 0 0 3 0c0-1.117.046-2.229.123-3.31.343-4.791.53-5.937 2.03-7.447"/></svg>