<svg xmlns="http://www.w3.org/2000/svg" viewBox="0 0 16 16"><path d="M4.224 11.772A.74.74 0 0 0 4 12.3c0 .192.075.382.229.524q.255.236.514.458C6.071 14.426 6.764 14.998 8 14.999s1.926-.57 3.255-1.712q.26-.222.516-.458a.7.7 0 0 0 .229-.528.74.74 0 0 0-.224-.525.78.78 0 0 0-1.069-.007q-.212.195-.43.38C8.872 13.357 8.595 13.5 8.002 13.5s-.874-.144-2.279-1.354a19 19 0 0 1-.429-.38.78.78 0 0 0-1.069.006M4 3.7a.74.74 0 0 0 .224.528.78.78 0 0 0 1.07.006 19 19 0 0 1 .428-.38C7.127 2.644 7.408 2.5 8.002 2.5c.592 0 .87.143 2.276 1.35q.216.188.43.38a.78.78 0 0 0 1.068-.006A.74.74 0 0 0 12 3.7a.7.7 0 0 0-.23-.528q-.255-.236-.515-.458C9.926 1.571 9.237 1 8 1.001c-1.236.001-1.929.573-3.257 1.716q-.259.222-.514.458A.7.7 0 0 0 4 3.7m2.03 3.706c.048-.529.072-.793.328-1.048.255-.256.52-.28 1.048-.329a6 6 0 0 1 1.188.001c.529.048.793.072 1.048.328.256.255.28.52.329 1.048a6 6 0 0 1-.001 1.188c-.048.529-.072.793-.328 1.048-.255.256-.52.28-1.048.329a6 6 0 0 1-1.188-.001c-.529-.048-.793-.072-1.048-.328-.256-.255-.28-.52-.329-1.048A7 7 0 0 1 6 8c0-.202.011-.403.03-.594"/></svg>