<svg xmlns="http://www.w3.org/2000/svg" viewBox="0 0 24 24"><path fill-rule="evenodd" d="M8.119 6.16C9.214 6.067 10.509 6 12 6s2.785.066 3.881.16c1.08.094 1.603.15 2.024.279.312.096.612.25 1.06.699.457.459.606.755.696 1.043.122.394.173.88.26 1.917a23 23 0 0 1 0 3.805c-.087 1.037-.138 1.523-.26 1.917-.09.288-.239.584-.696 1.043-.448.45-.748.603-1.06.7-.421.129-.945.184-2.024.277-1.095.096-2.39.16-3.881.16-1.492 0-2.787-.064-3.883-.16-1.078-.093-1.601-.148-2.022-.278-.312-.096-.612-.25-1.06-.698-.457-.46-.606-.755-.696-1.044-.122-.393-.173-.878-.26-1.915a23 23 0 0 1 0-3.808c.087-1.037.138-1.523.26-1.916.09-.289.239-.584.696-1.044.448-.449.748-.602 1.06-.698.421-.13.944-.185 2.023-.278M12 4c-1.55 0-2.903.068-4.055.168-2.025.176-3.037.264-4.326 1.558C2.33 7.019 2.25 7.99 2.088 9.93a25 25 0 0 0 0 4.14c.161 1.941.242 2.912 1.532 4.205s2.301 1.382 4.325 1.558c1.153.1 2.506.168 4.056.168s2.902-.068 4.054-.168c2.025-.176 3.038-.264 4.327-1.558s1.37-2.264 1.532-4.206a25 25 0 0 0 0-4.137c-.161-1.941-.242-2.912-1.532-4.206s-2.302-1.382-4.327-1.558A47 47 0 0 0 12.001 4M6.148 14.63A21 21 0 0 1 6 12c0-1.15.073-2.028.148-2.63.055-.434.082-.652.301-.888.22-.236.416-.276.81-.355C7.607 8.057 8.03 8 8.5 8a6.3 6.3 0 0 1 1.242.127c.393.08.59.119.81.355.219.236.246.454.3.889A21 21 0 0 1 11 12a21 21 0 0 1-.148 2.63c-.054.434-.082.651-.3.888-.22.236-.416.276-.81.355A6.3 6.3 0 0 1 8.5 16a6.3 6.3 0 0 1-1.242-.127c-.393-.08-.59-.12-.809-.355-.219-.237-.246-.454-.3-.889M13 10a1 1 0 0 1 1-1h3a1 1 0 1 1 0 2h-3a1 1 0 0 1-1-1m1 3a1 1 0 1 0 0 2h1a1 1 0 1 0 0-2z"/></svg>