<svg xmlns="http://www.w3.org/2000/svg" viewBox="0 0 44 44"><path fill-rule="evenodd" d="M22 8c-2.713 0-5.09.112-7.126.28-3.723.305-5.584.458-7.966 2.854s-2.516 4.146-2.784 7.648A42 42 0 0 0 4 22c0 1.123.046 2.2.124 3.219.268 3.501.402 5.252 2.784 7.648s4.243 2.548 7.965 2.854a87 87 0 0 0 7.127.28 87 87 0 0 0 7.125-.28c3.724-.305 5.585-.458 7.968-2.854s2.516-4.148 2.783-7.651a42 42 0 0 0 0-6.431c-.267-3.503-.4-5.255-2.783-7.651s-4.245-2.55-7.969-2.855A87 87 0 0 0 22 8M11.176 25.44A31 31 0 0 1 11 22c0-1.427.08-2.576.175-3.44.095-.856.143-1.284.614-1.775.472-.49.86-.548 1.637-.665.468-.07 1-.12 1.574-.12s1.106.05 1.574.12c.777.117 1.165.175 1.637.665.471.49.519.919.614 1.775.095.864.175 2.013.175 3.44s-.08 2.576-.175 3.44c-.095.856-.143 1.284-.614 1.774s-.86.549-1.636.666c-.468.07-1.001.12-1.575.12s-1.107-.05-1.575-.12c-.776-.117-1.165-.175-1.636-.666-.471-.49-.519-.918-.614-1.773M24.5 17.5a1.5 1.5 0 0 0 0 3h7a1.5 1.5 0 1 0 0-3zM23 25a1.5 1.5 0 0 1 1.5-1.5h4a1.5 1.5 0 0 1 0 3h-4A1.5 1.5 0 0 1 23 25"/></svg>