<svg xmlns="http://www.w3.org/2000/svg" viewBox="0 0 16 16"><path fill-rule="evenodd" d="M4.918 4.628c.84-.076 1.868-.13 3.082-.13s2.241.054 3.082.13c.699.062 1.016.097 1.263.172.165.05.319.124.564.368.263.261.332.41.374.54.067.206.1.47.16 1.11a12.5 12.5 0 0 1 0 2.357c-.06.642-.093.905-.16 1.111-.042.13-.11.279-.373.54-.246.244-.4.318-.565.368-.247.075-.564.11-1.263.173-.84.075-1.868.13-3.082.13s-2.242-.055-3.082-.13c-.7-.063-1.016-.098-1.263-.173-.165-.05-.319-.124-.564-.368-.263-.261-.332-.41-.374-.54-.067-.206-.099-.469-.16-1.11a12.5 12.5 0 0 1 0-2.358c.061-.641.093-.904.16-1.11.042-.13.111-.279.374-.54.245-.244.4-.318.564-.368.247-.075.564-.11 1.263-.172M8 12.997a36 36 0 0 0 3.216-.137c1.3-.117 1.951-.176 2.751-.972.8-.795.857-1.387.97-2.572a14 14 0 0 0 0-2.64c-.113-1.184-.17-1.776-.97-2.572s-1.45-.855-2.751-.972A36 36 0 0 0 8 2.997c-1.26 0-2.332.057-3.217.137-1.3.116-1.95.175-2.75.97-.8.796-.857 1.388-.97 2.571a14 14 0 0 0 0 2.644c.113 1.183.17 1.775.97 2.57.8.796 1.45.855 2.75.972.885.08 1.958.136 3.217.136M4.061 9.11A9 9 0 0 1 4 8c0-.456.027-.826.061-1.11.036-.296.053-.444.22-.614.166-.17.308-.19.59-.23a4.5 4.5 0 0 1 1.257 0c.283.04.425.06.591.23.167.17.184.318.22.614C6.973 7.174 7 7.544 7 8s-.027.826-.061 1.11c-.036.296-.053.444-.22.614-.166.17-.307.19-.59.23a4.5 4.5 0 0 1-1.258 0c-.283-.04-.424-.06-.59-.23-.167-.17-.184-.318-.22-.614M8.25 6.75A.75.75 0 0 1 9 6h2.248a.75.75 0 0 1 0 1.5H9a.75.75 0 0 1-.75-.75M9 8.5A.75.75 0 0 0 9 10h1a.75.75 0 0 0 0-1.5z"/></svg>