<svg xmlns="http://www.w3.org/2000/svg" viewBox="0 0 24 24"><path fill-rule="evenodd" d="M12.056 3.002a1 1 0 0 0-.112 0 28 28 0 0 0-2.021.08c-2.616.195-3.924.293-5.237 1.605s-1.41 2.621-1.605 5.237c-.05.678-.081 1.378-.081 2.078 0 .699.03 1.398.081 2.077.195 2.616.292 3.924 1.605 5.236 1.313 1.313 2.62 1.41 5.237 1.605.678.05 1.377.081 2.077.081s1.399-.03 2.077-.08c2.616-.195 3.924-.293 5.237-1.605s1.41-2.621 1.605-5.237C20.969 13.4 21 12.7 21 12s-.03-1.399-.081-2.077c-.195-2.616-.292-3.924-1.605-5.237-1.313-1.312-2.62-1.41-5.237-1.604-.66-.05-1.34-.08-2.021-.081M11 5.022a28 28 0 0 0-.929.055c-2.75.205-3.265.318-3.97 1.025-.655.654-.8 1.143-.981 3.398H11zM13 9.5V5.023q.467.02.929.054c2.75.205 3.265.318 3.97 1.025.655.654.8 1.143.981 3.398zm-2 2H5.006Q5 11.751 5 12.002c0 .642.028 1.291.076 1.928l.005.07H11zm2 2.5v-2.5h5.994q.006.251.006.502c0 .642-.028 1.291-.076 1.928l-.005.07zm-2 2H5.272c.147 1.039.354 1.427.828 1.901.706.707 1.22.82 3.971 1.025q.462.035.929.054zm2 2.98V16h5.728c-.147 1.039-.354 1.427-.828 1.901-.706.707-1.22.82-3.971 1.025q-.462.035-.929.054"/></svg>