<svg xmlns="http://www.w3.org/2000/svg" viewBox="0 0 16 16"><path fill-rule="evenodd" d="M2.054 6.616c.13-1.744.195-2.616 1.07-3.491s1.747-.94 3.491-1.07A19 19 0 0 1 8 2.001c.466 0 .933.02 1.385.054 1.744.13 2.616.195 3.491 1.07s.94 1.747 1.07 3.491c.034.452.054.919.054 1.385s-.02.933-.054 1.385c-.13 1.744-.195 2.616-1.07 3.491s-1.747.94-3.491 1.07C8.933 13.98 8.466 14 8 14s-.933-.02-1.385-.054c-1.744-.13-2.616-.195-3.491-1.07s-.94-1.747-1.07-3.491A19 19 0 0 1 2 8c0-.466.02-.933.054-1.385M7.25 3.52q-.263.012-.523.032c-1.845.137-2.122.214-2.542.635-.402.401-.49.672-.617 2.307H7.25zm0 4.474H3.5v.008a17 17 0 0 0 .067 1.497H7.25zm1.5 1.505V7.993h3.75v.008a17 17 0 0 1-.067 1.497zm-1.5 1.5H3.742c.09.408.217.593.443.818.42.42.697.498 2.542.635q.26.02.523.032zm1.5 1.485v-1.485h3.508c-.09.408-.217.593-.443.818-.42.42-.697.498-2.542.635q-.26.02-.523.032m0-5.99V3.52q.263.012.523.032c1.845.137 2.122.214 2.542.635.402.401.49.672.617 2.307z"/></svg>