<svg xmlns="http://www.w3.org/2000/svg" viewBox="0 0 24 24"><path fill-rule="evenodd" d="M13.827 5.493c.563.994 1.217 2.233 1.727 3.444.524 1.244.84 2.33.84 3.063 0 .569-.192 1.371-.546 2.324-.346.931-.813 1.923-1.29 2.84a45 45 0 0 1-1.862 3.23l-.03.047-.008.011-.002.003a1 1 0 1 0 1.678 1.09l.003-.006.01-.014.034-.054.128-.203a47 47 0 0 0 1.823-3.181c.498-.958 1.006-2.03 1.39-3.067.378-1.016.673-2.089.673-3.02 0-1.16-.46-2.563-.998-3.84-.552-1.311-1.248-2.626-1.83-3.653a48 48 0 0 0-1.207-2.01l-.02-.03-.005-.008-.002-.004a1 1 0 1 0-1.677 1.09l.001.001.004.006.017.026a28 28 0 0 1 .315.503c.211.344.505.833.834 1.412m-3.329 2.993c.354.635.742 1.378 1.039 2.061.32.735.458 1.235.458 1.453s-.139.718-.458 1.453a25 25 0 0 1-1.039 2.061 39 39 0 0 1-.786 1.35l-.05.08-.012.02-.003.006a1 1 0 0 0 1.696 1.06l.005-.01.015-.023.054-.088.196-.323a44 44 0 0 0 .634-1.1c.367-.661.79-1.468 1.124-2.235.311-.716.624-1.568.624-2.25 0-.684-.313-1.535-.624-2.251a27 27 0 0 0-1.124-2.236 41 41 0 0 0-.83-1.423l-.054-.088-.014-.024-.006-.009a1 1 0 0 0-1.696 1.06l.003.006.013.02.049.08q.066.106.183.304c.156.26.37.626.603 1.046M6.994 9.7c-.413 0-.634.19-1.076.572a6 6 0 0 0-.653.653c-.38.441-.57.662-.57 1.075s.19.634.57 1.076a6 6 0 0 0 .653.653c.442.38.663.57 1.076.57s.634-.19 1.075-.57a6 6 0 0 0 .654-.653c.38-.442.57-.663.57-1.076s-.19-.633-.57-1.075a6 6 0 0 0-.654-.653c-.441-.381-.662-.572-1.075-.572"/></svg>