<svg xmlns="http://www.w3.org/2000/svg" viewBox="0 0 16 16"><path d="M7.999 3.5c-1.02 0-1.97.46-2.697 1.256a.75.75 0 1 1-1.107-1.012C5.168 2.68 6.505 2 7.999 2s2.83.68 3.803 1.744a.75.75 0 1 1-1.107 1.012C9.968 3.96 9.018 3.5 7.999 3.5m2.356 8.399a.9.9 0 1 0 0-1.8.9.9 0 0 0 0 1.8"/><path fill-rule="evenodd" d="M14.544 3.06a.75.75 0 0 1 .394.985l-2.037 4.762c.431.449.472.783.55 1.415a6.4 6.4 0 0 1 0 1.556c-.083.67-.124 1.006-.634 1.498-.51.493-.93.529-1.771.602A35 35 0 0 1 7.999 14c-1.251 0-2.269-.055-3.048-.122-.84-.073-1.26-.11-1.77-.602s-.552-.827-.634-1.497a6.4 6.4 0 0 1 0-1.558c.078-.633.118-.967.553-1.417L1.059 4.046a.75.75 0 1 1 1.379-.592L4.459 8.17q.22-.024.492-.047C5.731 8.055 6.748 8 7.999 8c1.25 0 2.267.055 3.047.122q.273.022.496.048l2.017-4.715a.75.75 0 0 1 .985-.395M5.08 9.617c.736-.064 1.71-.117 2.918-.117 1.206 0 2.18.053 2.917.117.219.018.37.032.498.048.123.016.187.03.222.04a.2.2 0 0 1 .042.017.6.6 0 0 1 .097.081 1 1 0 0 1 .111.121l.001.002a1 1 0 0 1 .024.107c.015.088.029.194.05.372a5 5 0 0 1 0 1.19 8 8 0 0 1-.05.372 1 1 0 0 1-.024.106l-.001.002a1 1 0 0 1-.11.122.6.6 0 0 1-.098.08c-.006.004-.014.01-.042.017-.035.01-.099.025-.222.04-.129.017-.279.03-.498.05A34 34 0 0 1 8 12.5c-1.208 0-2.182-.053-2.919-.117a13 13 0 0 1-.497-.048 1.5 1.5 0 0 1-.222-.04.2.2 0 0 1-.041-.017.6.6 0 0 1-.098-.081 1 1 0 0 1-.11-.121l-.002-.003a1 1 0 0 1-.024-.106 8 8 0 0 1-.05-.37 5 5 0 0 1 0-1.193c.022-.178.035-.284.05-.371a1 1 0 0 1 .024-.107l.001-.002a1 1 0 0 1 .11-.121.6.6 0 0 1 .099-.08.2.2 0 0 1 .041-.017c.035-.01.099-.025.222-.04.129-.017.279-.03.498-.05"/><path d="M7.265 6.79a1.06 1.06 0 0 1 1.467 0 .75.75 0 0 0 1.033-1.088 2.56 2.56 0 0 0-3.533 0A.75.75 0 0 0 7.265 6.79"/></svg>