<svg xmlns="http://www.w3.org/2000/svg" viewBox="0 0 24 24"><path fill-rule="evenodd" d="M19.99 9.448c.01.134.01.298.01.502V12q-.002 1.15-.045 2.156a3 3 0 0 0-2.455.245 3 3 0 0 0-3.75.613 3 3 0 0 0-4.65.185L7.6 17.2a3 3 0 0 0 0 3.6l.703.938c-.977-.166-1.704-.485-2.578-1.357-1.294-1.289-1.381-2.301-1.557-4.325A47 47 0 0 1 4 12c0-1.549.068-2.901.168-4.054.175-2.025.263-3.038 1.557-4.327s2.265-1.37 4.207-1.532A25 25 0 0 1 12 2h.127a12 12 0 0 1 .414.009c.362.02.71.084 1.05.286.48.287 1.398 1.095 3.197 2.894a32 32 0 0 1 2.803 3.18q.114.147.179.228c.15.183.203.486.22.851M13.002 4.35q.149.125.356.312a56 56 0 0 1 2.017 1.941A30 30 0 0 1 17.542 9H17.5c-1.033 0-2.067-.134-2.825-.263-.548-.093-.822-.14-1.047-.365s-.272-.5-.365-1.047C13.133 6.567 13 5.534 13 4.5z"/><path d="M18.2 20.4a1 1 0 0 0 1.6 1.2l1.5-2a1 1 0 0 0 0-1.2l-1.5-2a1 1 0 0 0-1.6 1.2l1.05 1.4zm-6.1 1.4a1 1 0 0 1-1.4-.2l-1.5-2a1 1 0 0 1 0-1.2l1.5-2a1 1 0 0 1 1.6 1.2L11.25 19l1.05 1.4a1 1 0 0 1-.2 1.4m4.836-4.449a1 1 0 0 0-1.872-.702l-1.5 4a1 1 0 0 0 1.872.702z"/></svg>