<svg xmlns="http://www.w3.org/2000/svg" viewBox="0 0 16 16"><path fill-rule="evenodd" d="m10.443 4.143-1.76 3.91a.75.75 0 0 1-1.368 0l-1.76-3.91L3.03 12h1.426l.932-2.747a.75.75 0 0 1 1.406-.037L8 12.23l1.206-3.014a.75.75 0 0 1 1.407.037L11.544 12h1.426zM9.16 3.337c.534-1.185 2.249-1.09 2.647.148l2.624 8.15A1.428 1.428 0 0 1 13.08 13.5h-1.593a1.42 1.42 0 0 1-1.344-.962l-.298-.884-.527 1.318c-.477 1.19-2.16 1.19-2.637 0l-.527-1.317-.298.883a1.42 1.42 0 0 1-1.344.962H2.919a1.428 1.428 0 0 1-1.352-1.865l2.625-8.15c.398-1.238 2.112-1.333 2.646-.148L8 5.917z"/></svg>