<svg xmlns="http://www.w3.org/2000/svg" viewBox="0 0 32 32"><path fill-rule="evenodd" d="M8.207 6.712c.767-2.134 3.718-2.312 4.74-.289L16 12.475l3.055-6.052c1.02-2.023 3.971-1.845 4.739.29l6.053 16.835C30.453 25.234 29.2 27 27.415 27h-3.899a2.58 2.58 0 0 1-2.46-1.793l-1.057-3.294-1.6 3.942-.001.003a2.59 2.59 0 0 1-2.329 1.642 2.59 2.59 0 0 1-2.466-1.642l-.001-.003-1.6-3.942-1.057 3.294A2.58 2.58 0 0 1 8.485 27h-3.9c-1.783 0-3.038-1.766-2.432-3.452zm2.368.815a.1.1 0 0 0-.015.031L4.506 24.394a.1.1 0 0 0-.005.036q.002.015.015.035.014.019.03.027a.1.1 0 0 0 .04.008h3.899c.038 0 .07-.025.08-.057l2.108-6.575a1.25 1.25 0 0 1 2.348-.088l2.901 7.144q.016.035.026.046a.1.1 0 0 0 .021.02q.024.012.035.01a.1.1 0 0 0 .028-.01.1.1 0 0 0 .02-.02.2.2 0 0 0 .027-.046l.002-.005 2.899-7.14a1.25 1.25 0 0 1 2.348.09l2.108 6.574c.01.032.041.057.08.057h3.9a.1.1 0 0 0 .04-.008.1.1 0 0 0 .029-.027.1.1 0 0 0 .015-.035.1.1 0 0 0-.005-.036L21.44 7.558a.1.1 0 0 0-.015-.03l-.008-.009a.1.1 0 0 0-.05-.015.1.1 0 0 0-.053.01l-.01.006a.1.1 0 0 0-.019.03l-4.17 8.263a1.25 1.25 0 0 1-2.232 0l-4.17-8.264a.1.1 0 0 0-.019-.029l-.01-.007a.1.1 0 0 0-.052-.009.1.1 0 0 0-.05.015z"/></svg>