<svg xmlns="http://www.w3.org/2000/svg" viewBox="0 0 24 24"><path fill-rule="evenodd" d="m15.806 6.02-2.91 5.908a1 1 0 0 1-1.794 0L8.193 6.021 4.001 17.983 4 17.988v.002l.004.01h2.618l1.487-4.338a1 1 0 0 1 1.87-.061l2.02 4.842 2.022-4.842a1 1 0 0 1 1.869.061L17.376 18l2.62.001.003-.01v-.007zm-1.782-.907c.782-1.589 3.077-1.443 3.661.223l4.2 11.986C22.333 18.596 21.41 20 20.009 20H17.36c-.877 0-1.615-.583-1.882-1.363l-.627-1.833-1.016 2.434C13.52 19.992 12.801 20.5 12 20.5c-.802 0-1.521-.508-1.836-1.262l-1.016-2.434-.627 1.833C8.254 19.417 7.516 20 6.638 20H3.992c-1.401 0-2.324-1.404-1.878-2.678l4.2-11.986c.585-1.666 2.88-1.812 3.662-.223L12 9.223z"/></svg>