<svg xmlns="http://www.w3.org/2000/svg" viewBox="0 0 24 24"><path d="M3.08 9.925C3.276 7.309 3.374 6 4.686 4.688s2.621-1.41 5.237-1.605c.678-.05 1.378-.081 2.077-.081s1.4.03 2.078.08c2.616.195 3.924.293 5.237 1.606 1.312 1.313 1.41 2.62 1.605 5.237.05.678.08 1.377.08 2.077s-.03 1.399-.08 2.077c-.195 2.616-.293 3.924-1.605 5.237s-2.621 1.41-5.237 1.605c-.678.05-1.378.08-2.078.08-.699 0-1.399-.03-2.077-.08-2.616-.195-3.924-.292-5.237-1.605-1.312-1.313-1.41-2.621-1.604-5.237A28 28 0 0 1 3 12.002c0-.7.03-1.4.08-2.077"/></svg>