<svg xmlns="http://www.w3.org/2000/svg" viewBox="0 0 24 24"><path fill-rule="evenodd" d="M6.704 6.285a.99.99 0 0 1 .029 1.384l-.028.03q-.319.346-.623.7C4.284 10.487 4 11.005 4 12.002s.282 1.508 2.077 3.598q.304.354.622.702l.028.03A1 1 0 0 1 7 17a1 1 0 0 1-.302.715A1 1 0 0 1 6 18a1 1 0 0 1-.74-.309q-.36-.391-.7-.788C2.852 14.915 1.999 13.855 2 12.001s.856-2.92 2.566-4.907q.34-.395.701-.786A1 1 0 0 1 6 6c.257 0 .514.095.704.285m-1.437.023-.004.004.026-.028zM5.26 17.69l.023.024-.027-.028zM17 7a.99.99 0 0 1 1-1 1 1 0 0 1 .733.308q.36.392.7.786C21.144 9.08 22 10.146 22 12.001s-.852 2.914-2.56 4.902q-.34.396-.7.788A1 1 0 0 1 18 18a1 1 0 0 1-.698-.285A1 1 0 0 1 17 17a1 1 0 0 1 .273-.668l.028-.03q.319-.348.622-.702C19.718 13.51 20 13 20 12.002s-.284-1.515-2.082-3.603a28 28 0 0 0-.623-.7l-.028-.03A1 1 0 0 1 17 7m-7.995 4.707c.035-1.023.053-1.534.61-2.092.558-.557 1.07-.575 2.092-.61a9 9 0 0 1 .586 0c1.023.035 1.534.053 2.092.61.558.558.575 1.07.61 2.092a9 9 0 0 1 0 .586c-.035 1.023-.052 1.534-.61 2.092s-1.07.575-2.092.61a9 9 0 0 1-.586 0c-1.023-.035-1.534-.052-2.092-.61-.557-.558-.575-1.07-.61-2.092a9 9 0 0 1 0-.586"/></svg>