<svg xmlns="http://www.w3.org/2000/svg" viewBox="0 0 16 16"><path fill-rule="evenodd" d="M4.228 4.224A.74.74 0 0 0 3.699 4a.7.7 0 0 0-.524.229q-.236.255-.458.514C1.574 6.071 1.002 6.764 1.001 8s.57 1.926 1.712 3.255q.221.26.458.516a.7.7 0 0 0 .528.229.74.74 0 0 0 .525-.224.78.78 0 0 0 .007-1.069q-.195-.212-.38-.43C2.642 8.872 2.499 8.595 2.5 8.002c0-.593.143-.874 1.354-2.279q.186-.216.38-.429a.78.78 0 0 0-.006-1.069M12.301 4a.74.74 0 0 0-.53.224.78.78 0 0 0-.006 1.07q.195.211.38.428c1.211 1.405 1.354 1.686 1.355 2.28 0 .592-.143.87-1.351 2.276q-.185.216-.38.43a.78.78 0 0 0 .007 1.068.74.74 0 0 0 .524.224.7.7 0 0 0 .529-.23q.236-.255.458-.515C14.428 9.926 14.999 9.237 14.998 8c0-1.236-.572-1.929-1.715-3.257q-.223-.259-.458-.514A.7.7 0 0 0 12.3 4M6.028 7.406c.049-.529.073-.793.329-1.048.255-.256.52-.28 1.048-.329a6 6 0 0 1 1.189.001c.529.048.793.072 1.048.328.256.255.28.52.329 1.048a6 6 0 0 1-.001 1.188c-.048.529-.072.793-.328 1.048-.255.256-.52.28-1.048.329a6 6 0 0 1-1.188-.001c-.529-.048-.793-.072-1.048-.328-.256-.255-.28-.52-.329-1.048A7 7 0 0 1 6 8c0-.202.011-.403.03-.594"/></svg>