<svg xmlns="http://www.w3.org/2000/svg" viewBox="0 0 24 24"><path d="M17 4.613v7.773l2.629 1.033q.186.073.371.072a1 1 0 0 0 1-1V4.509a1 1 0 0 0-1.371-.927z"/><path fill-rule="evenodd" d="M15 12.15v-7.3c-1.312-.288-3.57-.932-5.84-1.612C5.613 2.175 2 4.801 2 8.5a5.43 5.43 0 0 0 1.997 4.22 49 49 0 0 0 .53 5.484l.17 1.1A2 2 0 0 0 6.672 21H7.5a2 2 0 0 0 1.976-2.304l-.075-.492a49 49 0 0 1-.474-4.378q.117-.03.234-.064c2.27-.68 4.527-1.325 5.839-1.612M7.502 9.9a1.4 1.4 0 1 0 0-2.8 1.4 1.4 0 0 0 0 2.8"/></svg>