<svg xmlns="http://www.w3.org/2000/svg" viewBox="0 0 16 16"><path d="M7.167 6a1.167 1.167 0 1 0-2.333 0 1.167 1.167 0 0 0 2.333 0"/><path fill-rule="evenodd" d="M2.054 6.615c.13-1.744.195-2.616 1.07-3.491s1.747-.94 3.491-1.07C7.067 2.02 7.534 2 8 2s.933.02 1.385.054c1.744.13 2.616.195 3.491 1.07s.94 1.747 1.07 3.491C13.98 7.067 14 7.534 14 8s-.02.933-.054 1.385c-.13 1.744-.195 2.616-1.07 3.491s-1.747.94-3.491 1.07C8.933 13.98 8.466 14 8 14s-.933-.02-1.385-.054c-1.744-.13-2.616-.195-3.491-1.07s-.94-1.747-1.07-3.491A19 19 0 0 1 2 8c0-.466.02-.933.054-1.385M6.727 3.55c.42-.031.85-.05 1.273-.05s.852.019 1.273.05c1.845.137 2.122.214 2.542.635.42.42.498.697.635 2.542.032.42.05.85.05 1.273s-.018.852-.05 1.273c-.137 1.845-.214 2.122-.635 2.542-.266.267-.476.396-1.065.49V11.5q.091-.056.177-.126a1.5 1.5 0 0 0 .459-.727c.13-.428.121-.92.115-1.268-.004-.22-.04-1.186-.154-2.074-.056-.438-.137-.906-.257-1.28a2.1 2.1 0 0 0-.268-.571C10.704 5.288 10.438 5 10 5s-.703.288-.821.455c-.127.179-.21.39-.27.571-.12.373-.2.841-.257 1.28-.114.888-.15 1.852-.154 2.072-.006.35-.016.842.116 1.27.072.239.205.513.459.727q.084.07.176.125v.952c-.414.03-.834.048-1.25.048v-1.083A1.415 1.415 0 0 0 6.583 10H3.61q-.03-.315-.06-.727A17 17 0 0 1 3.5 8c0-.423.019-.852.05-1.273.137-1.845.214-2.122.635-2.542.42-.42.697-.498 2.542-.635m-2.8 7.95c.069.114.152.21.258.315.402.403.673.49 2.315.618V11.5z"/></svg>