<svg xmlns="http://www.w3.org/2000/svg" viewBox="0 0 24 24"><path d="M9 7.25a1.75 1.75 0 1 1 0 3.5 1.75 1.75 0 0 1 0-3.5"/><path fill-rule="evenodd" d="M3.081 9.923c.195-2.616.292-3.924 1.605-5.237s2.62-1.41 5.237-1.605C10.6 3.031 11.3 3 12 3s1.399.03 2.077.081c2.616.195 3.924.292 5.237 1.605s1.41 2.62 1.605 5.237C20.969 10.6 21 11.3 21 12s-.03 1.399-.081 2.077c-.195 2.616-.292 3.924-1.605 5.237s-2.62 1.41-5.237 1.605C13.4 20.969 12.7 21 12 21s-1.399-.03-2.077-.081c-2.616-.195-3.924-.292-5.237-1.605s-1.41-2.62-1.605-5.237A28 28 0 0 1 3 12c0-.7.03-1.399.081-2.077m6.99-4.847A26 26 0 0 1 12 5c.642 0 1.292.028 1.929.076 2.75.204 3.265.318 3.97 1.024.707.706.82 1.22 1.025 3.971.048.637.076 1.287.076 1.929s-.028 1.292-.076 1.929c-.204 2.75-.318 3.265-1.024 3.97-.475.475-.862.682-1.9.83V17.48c.585-.239 1.019-.728 1.244-1.315.276-.718.27-1.58.257-2.187a30 30 0 0 0-.328-3.39c-.116-.728-.278-1.497-.51-2.104C16.385 7.757 15.869 6.999 15 7c-.868-.001-1.385.757-1.662 1.485-.232.607-.395 1.376-.51 2.104a30 30 0 0 0-.328 3.39c-.013.608-.02 1.469.256 2.187.226.586.658 1.076 1.243 1.315v1.438c-.666.05-1.332.081-2 .081v-2a2 2 0 0 0-2-2H5.162a72 72 0 0 1-.086-1.071A26 26 0 0 1 5 12c0-.642.028-1.292.076-1.929.204-2.75.318-3.265 1.024-3.97.706-.707 1.22-.82 3.971-1.025M10 17v1.92c-2.688-.202-3.2-.32-3.9-1.02-.28-.28-.466-.53-.603-.9z"/></svg>