<svg xmlns="http://www.w3.org/2000/svg" viewBox="0 0 24 24"><path fill-rule="evenodd" d="M4.686 4.686c-1.313 1.313-1.41 2.62-1.605 5.237C3.031 10.6 3 11.3 3 12s.03 1.399.081 2.077c.195 2.616.292 3.924 1.605 5.237s2.62 1.41 5.237 1.605C10.6 20.969 11.3 21 12 21s1.399-.03 2.077-.081c2.616-.195 3.924-.292 5.237-1.605s1.41-2.62 1.605-5.237C20.969 13.4 21 12.7 21 12s-.03-1.399-.081-2.077c-.195-2.616-.292-3.924-1.605-5.237s-2.62-1.41-5.237-1.605A28 28 0 0 0 12 3c-.7 0-1.399.03-2.077.081-2.616.195-3.924.292-5.237 1.605M16.5 17.481v1.161c-.462.098-1.086.165-2 .239v-1.4c-.584-.24-1.017-.729-1.242-1.315-.276-.719-.27-1.58-.257-2.187a30 30 0 0 1 .328-3.39c.116-.728.278-1.497.51-2.104.278-.728.794-1.486 1.662-1.485.868-.001 1.385.757 1.662 1.485.232.607.394 1.376.51 2.104.236 1.47.32 3.018.328 3.39.013.608.02 1.469-.257 2.187-.225.587-.658 1.076-1.244 1.315M12 17v2c-.667 0-1.334-.031-2-.08V17H5.498c-.158-.428-.248-1.017-.336-2H10a2 2 0 0 1 2 2m-1.25-8a1.75 1.75 0 1 0-3.5 0 1.75 1.75 0 0 0 3.5 0"/></svg>