<svg xmlns="http://www.w3.org/2000/svg" viewBox="0 0 16 16"><path fill-rule="evenodd" d="M2.054 6.615c.13-1.744.195-2.616 1.07-3.491s1.747-.94 3.491-1.07C7.067 2.02 7.534 2 8 2s.933.02 1.385.054c1.744.13 2.616.195 3.491 1.07s.94 1.747 1.07 3.491C13.98 7.067 14 7.534 14 8s-.02.933-.054 1.385c-.13 1.744-.195 2.616-1.07 3.491s-1.747.94-3.491 1.07C8.933 13.98 8.466 14 8 14s-.933-.02-1.385-.054c-1.744-.13-2.616-.195-3.491-1.07s-.94-1.747-1.07-3.491A19 19 0 0 1 2 8c0-.466.02-.933.054-1.385M3.609 10c.077.85.154 1.226.318 1.5H6.5v.933l.227.017c.42.032.85.05 1.273.05v-1.083C8 10.634 7.366 10 6.583 10zM9.5 12.433c.723-.056 1.18-.104 1.5-.175v-.76q.123-.051.238-.123a1.5 1.5 0 0 0 .591-.724c.184-.455.173-.919.164-1.262a23 23 0 0 0-.204-2.35c-.075-.502-.182-1.039-.34-1.466a2.3 2.3 0 0 0-.343-.637c-.158-.194-.442-.436-.859-.436-.416 0-.7.242-.858.436a2.3 2.3 0 0 0-.344.637c-.158.427-.265.964-.34 1.466A23 23 0 0 0 8.5 9.388c-.008.343-.02.808.165 1.264a1.5 1.5 0 0 0 .835.848zM6 4.833a1.167 1.167 0 1 1 0 2.333 1.167 1.167 0 0 1 0-2.333"/></svg>