<svg xmlns="http://www.w3.org/2000/svg" viewBox="0 0 24 24"><path d="M9.894 2.553a1 1 0 1 0-1.788.894l.772 1.545c-.685.715-.754 1.284-.82 2.307.458-.095.917-.137 1.313-.173l.094-.008A28 28 0 0 1 12 7c.926 0 1.783.049 2.535.118l.094.008c.396.036.855.078 1.314.173-.067-1.023-.136-1.592-.821-2.307l.772-1.545a1 1 0 1 0-1.789-.894l-.755 1.511a12 12 0 0 0-.817-.052 12 12 0 0 0-1.065 0c-.31.013-.577.025-.818.052zM5.015 19.358l1.57-.943c.117.181.268.363.468.559.763.749 1.373.805 2.594.917.646.06 1.373.102 2.155.108a6 6 0 0 1 5.838-8.965c-.127-.343-.33-.652-.693-1.008-.763-.75-1.374-.805-2.595-.917C13.652 9.045 12.857 9 12 9s-1.653.045-2.352.109c-1.166.107-1.775.163-2.491.819L5.015 8.643a1 1 0 1 0-1.03 1.714l2.215 1.33c-.034.213-.06.448-.09.716q-.03.285-.055.597H4a1 1 0 1 0 0 2h2.006q.02.754.082 1.38l-2.102 1.262a1 1 0 0 0 1.028 1.716"/><path fill-rule="evenodd" d="M20.446 19.032a4 4 0 1 0-1.414 1.414l1.26 1.261a1 1 0 0 0 1.415-1.414zM17 19a2 2 0 1 0 0-4 2 2 0 0 0 0 4"/></svg>