<svg xmlns="http://www.w3.org/2000/svg" viewBox="0 0 16 16"><path d="M5.513 1.039a.75.75 0 0 1 .948.474l.35 1.05c.16-.019.337-.03.54-.043a10 10 0 0 1 1.297 0c.204.013.38.024.54.044l.35-1.051a.75.75 0 0 1 1.423.474l-.443 1.33c.351.427.387.806.436 1.462-.41-.12-.844-.16-1.187-.193L9.7 4.58a18.4 18.4 0 0 0-3.402 0l-.066.006c-.343.032-.777.072-1.187.193.049-.656.084-1.035.436-1.462l-.444-1.33a.75.75 0 0 1 .475-.948M4.002 10q.008.425.036.793l-1.41.806a.75.75 0 0 0 .744 1.302l.969-.553c.083.152.2.302.366.465.507.499.915.537 1.73.613.466.044.994.074 1.563.074h.035a4 4 0 0 1 4.178-5.937l1.16-.662a.75.75 0 0 0-.745-1.302l-1.56.891c-.415-.314-.814-.352-1.506-.416a17 17 0 0 0-3.124 0c-.692.064-1.09.102-1.506.416l-1.56-.89a.75.75 0 1 0-.744 1.3l1.516.866a10 10 0 0 0-.067.52l-.021.213H2.75a.75.75 0 0 0 0 1.5z"/><path fill-rule="evenodd" d="M13.717 12.657a2.5 2.5 0 1 0-1.06 1.06l.563.564a.75.75 0 1 0 1.06-1.062zM11.5 12.5a1 1 0 1 0 0-2 1 1 0 0 0 0 2"/></svg>