<svg xmlns="http://www.w3.org/2000/svg" viewBox="0 0 16 16"><path fill-rule="evenodd" d="M1.501 7.304a1.25 1.25 0 0 1 0-2.061l.89-.61a20.7 20.7 0 0 1 3.397-1.89 5.5 5.5 0 0 1 4.425 0 20.7 20.7 0 0 1 3.397 1.89l.89.61a1.25 1.25 0 0 1 0 2.061l-.889.61a20.7 20.7 0 0 1-3.4 1.89 5.5 5.5 0 0 1-4.421 0 20.7 20.7 0 0 1-3.4-1.89zm11.26-1.435.59.405-.59.404A19 19 0 0 1 9.61 8.43a4 4 0 0 1-3.217 0A19 19 0 0 1 3.24 6.677l-.588-.404.59-.405a19 19 0 0 1 3.15-1.752 4 4 0 0 1 3.22 0 19 19 0 0 1 3.15 1.752"/><path d="M2.425 9.731a.75.75 0 1 0-.849 1.237l.39.267a21.4 21.4 0 0 0 3.523 1.959 6.26 6.26 0 0 0 5.023 0 21.4 21.4 0 0 0 3.524-1.959l.39-.267a.75.75 0 0 0-.85-1.237l-.39.268A20 20 0 0 1 9.91 11.82a4.76 4.76 0 0 1-3.82 0 20 20 0 0 1-3.275-1.821z"/></svg>