<svg xmlns="http://www.w3.org/2000/svg" viewBox="0 0 24 24"><path fill-rule="evenodd" d="M12 5.001c-.642 0-1.292.029-1.929.076-2.75.205-3.265.318-3.97 1.025-.707.706-.82 1.22-1.025 3.97A26 26 0 0 0 5 12.003c0 .642.028 1.291.076 1.928.204 2.75.318 3.265 1.024 3.971.706.707 1.22.82 3.971 1.025.637.047 1.287.076 1.929.076s1.292-.029 1.929-.076c2.75-.205 3.265-.318 3.97-1.025q.133-.13.238-.259c.283-.345.663-.642 1.109-.642.684 0 1.205.65.88 1.25a4.7 4.7 0 0 1-.812 1.066c-1.313 1.312-2.62 1.41-5.237 1.604-.678.05-1.377.081-2.077.081s-1.399-.03-2.077-.08c-2.616-.195-3.924-.293-5.237-1.605s-1.41-2.621-1.605-5.237A28 28 0 0 1 3 12c0-.7.03-1.399.081-2.077.195-2.616.292-3.924 1.605-5.237 1.313-1.312 2.62-1.41 5.237-1.604C10.6 3.032 11.3 3 12 3s1.399.031 2.077.082c2.616.194 3.924.292 5.237 1.604.346.347.608.692.81 1.062.326.6-.196 1.251-.88 1.251-.446 0-.826-.296-1.109-.641a4 4 0 0 0-.235-.257c-.706-.707-1.22-.82-3.971-1.025A26 26 0 0 0 12 5.001M20 10a1 1 0 1 0-2 0v1h-1a1 1 0 1 0 0 2h1v1a1 1 0 1 0 2 0v-1h1a1 1 0 1 0 0-2h-1zm-8.426.006q-.243 0-.441.072a.65.65 0 0 0-.324.252q-.126.18-.198.504-.072.315-.072.82v.107q.504-.612 1.467-.612.432 0 .783.117.36.109.612.351.261.234.405.603t.144.891q0 1.026-.603 1.584-.603.55-1.809.55-.648 0-1.134-.172a1.8 1.8 0 0 1-.792-.549q-.306-.386-.459-.999Q9 12.913 9 12.04q0-.953.189-1.575.198-.63.54-.999t.819-.513a3.6 3.6 0 0 1 1.071-.153q.54 0 .945.135.405.126.675.351.279.225.423.531t.171.666h-1.512a.63.63 0 0 0-.234-.35q-.171-.127-.513-.127m-.036 4.077q.415 0 .64-.189.233-.189.233-.657v-.27q0-.45-.243-.63-.234-.18-.63-.18-.432 0-.675.225-.243.216-.243.738 0 .54.243.756.243.207.675.207"/></svg>