<svg xmlns="http://www.w3.org/2000/svg" viewBox="0 0 44 44"><path d="M21.59 10.119a1.5 1.5 0 0 1 .789 1.97L18.775 20.5h4.721a1.5 1.5 0 0 1 1.37 2.111l-5.3 10.852a.96.96 0 0 1-.867.533c-.625 0-.92-.567-.759-1.042l3.185-9.456-4.625.002a1.5 1.5 0 0 1-1.379-2.09l4.5-10.503a1.5 1.5 0 0 1 1.97-.788"/><path d="M14.879 10.097a1.487 1.487 0 0 1 1.54 1.49c0 .813-.648 1.477-1.46 1.509-2.81.108-5.108.293-6.821.47-1.524.157-2.678 1.301-2.835 2.792A55 55 0 0 0 5 22c0 2.128.14 4.084.303 5.641.157 1.492 1.31 2.635 2.835 2.793 1.519.156 3.498.32 5.885.43.808.038 1.449.7 1.449 1.509 0 .848-.704 1.529-1.552 1.49a108 108 0 0 1-6.09-.445c-2.903-.3-5.202-2.528-5.51-5.464A58 58 0 0 1 2 22c0-2.256.148-4.318.32-5.955.308-2.935 2.607-5.164 5.51-5.463 1.78-.184 4.155-.374 7.049-.485M25 11.65c0 .806.638 1.467 1.443 1.508 2.18.11 4 .262 5.42.408 1.523.157 2.677 1.301 2.834 2.792C34.86 17.916 35 19.871 35 22c0 2.128-.14 4.084-.303 5.641-.157 1.492-1.31 2.635-2.835 2.793-1.828.188-4.324.386-7.395.49A1.514 1.514 0 0 0 23 32.435c0 .84.693 1.519 1.534 1.49 3.16-.106 5.737-.31 7.636-.506 2.903-.3 5.202-2.528 5.51-5.464q.05-.472.096-.99.335.035.723.036c.743 0 1.35-.11 1.786-.226.266-.072.53-.16.778-.279.478-.236.795-.708.833-1.239q.032-.48.053-.959A53 53 0 0 0 42 22a53 53 0 0 0-.104-3.256 1.5 1.5 0 0 0-.833-1.24 4.5 4.5 0 0 0-.778-.278A7 7 0 0 0 38.5 17q-.388.001-.723.035-.046-.517-.096-.99c-.308-2.935-2.607-5.164-5.51-5.463a107 107 0 0 0-5.613-.422A1.486 1.486 0 0 0 25 11.65"/></svg>