<svg xmlns="http://www.w3.org/2000/svg" viewBox="0 0 24 24"><path d="M14 14.948V9.052A84 84 0 0 0 11 9c-1.394 0-2.578.033-3.504.072-1.072.046-1.609.07-2.022.487-.414.417-.431.916-.465 1.914a16 16 0 0 0 0 1.047c.033 1.002.05 1.503.463 1.92.414.419.952.442 2.027.488.926.04 2.109.072 3.501.072 1.153 0 2.162-.022 3-.053"/><path fill-rule="evenodd" d="M20.82 8.53q.023.227.044.473c.38-.015.764.03 1.128.141.207.063.327.12.45.185.496.28.512.77.529 1.253l.003.105a35 35 0 0 1 0 2.626l-.003.105c-.017.484-.033.972-.53 1.253a2.3 2.3 0 0 1-.45.185 3.4 3.4 0 0 1-1.127.142q-.022.245-.045.472a3.57 3.57 0 0 1-3.193 3.2A63 63 0 0 1 11 19a63 63 0 0 1-6.626-.33 3.57 3.57 0 0 1-3.193-3.2A35 35 0 0 1 1 12c0-1.32.084-2.524.18-3.47a3.57 3.57 0 0 1 3.194-3.2C5.876 5.17 8.134 5 11 5s5.124.169 6.626.33a3.57 3.57 0 0 1 3.193 3.2m-1.99.202c.09.896.17 2.03.17 3.268s-.08 2.372-.17 3.268a1.57 1.57 0 0 1-1.418 1.413A61 61 0 0 1 11 17c-2.788 0-4.974-.164-6.412-.319a1.57 1.57 0 0 1-1.418-1.413C3.08 14.372 3 13.238 3 12s.08-2.372.17-3.268A1.57 1.57 0 0 1 4.588 7.32 61 61 0 0 1 11 7c2.788 0 4.974.164 6.412.319a1.57 1.57 0 0 1 1.418 1.413"/></svg>