<svg xmlns="http://www.w3.org/2000/svg" viewBox="0 0 24 24"><path d="M11.87 5.077a1 1 0 0 1 .538 1.308L10.485 11h2.5a1 1 0 0 1 .895 1.446l-.288.578-2.843 5.497c-.153.295-.272.479-.64.479-.297 0-.506-.331-.418-.616L11.37 13H8.985a1 1 0 0 1-.923-1.384l2.5-6a1 1 0 0 1 1.308-.539"/><path d="M7.465 5.09a.99.99 0 0 1 1.035.99c0 .538-.426.98-.963 1.007a54 54 0 0 0-2.95.23A1.57 1.57 0 0 0 3.17 8.732C3.08 9.628 3 10.763 3 12s.08 2.372.17 3.268a1.57 1.57 0 0 0 1.418 1.413 53 53 0 0 0 2.457.203c.534.033.955.473.955 1.008a.99.99 0 0 1-1.043.99 55 55 0 0 1-2.583-.212 3.57 3.57 0 0 1-3.193-3.2C1.084 14.524 1 13.32 1 12s.084-2.523.18-3.47a3.57 3.57 0 0 1 3.194-3.2 56 56 0 0 1 3.09-.24m7.491 2.026A1.013 1.013 0 0 1 14 6.109a.99.99 0 0 1 1.043-.992c1.016.061 1.882.138 2.583.213a3.57 3.57 0 0 1 3.193 3.2q.023.226.045.472c.38-.014.764.03 1.128.141.207.064.327.12.45.186.532.3.512.84.532 1.357a35 35 0 0 1 0 2.627c-.02.517 0 1.056-.532 1.357a2.3 2.3 0 0 1-.45.185 3.4 3.4 0 0 1-1.128.142q-.022.246-.045.473a3.57 3.57 0 0 1-3.193 3.2c-.925.1-2.135.201-3.598.265A.99.99 0 0 1 13 17.943c0-.54.43-.983.97-1.007a55 55 0 0 0 3.442-.255 1.57 1.57 0 0 0 1.418-1.413c.09-.896.17-2.03.17-3.268s-.08-2.372-.17-3.267a1.57 1.57 0 0 0-1.418-1.414 53 53 0 0 0-2.457-.203"/></svg>