<svg xmlns="http://www.w3.org/2000/svg" viewBox="0 0 16 16"><path d="M8.412 4.603a.75.75 0 1 0-1.324-.705L5.092 7.647a.75.75 0 0 0 .662 1.102l1.743.006-1.092 3.27c-.076.228.125.463.362.475a.44.44 0 0 0 .36-.217l2.285-3.93a.75.75 0 0 0-.662-1.104H7.003z"/><path d="M5.425 10.226a2.25 2.25 0 0 1-1.657-3.284l1.818-3.415c-1.137.038-2.066.11-2.756.18A2.456 2.456 0 0 0 .612 5.898C.552 6.482.5 7.207.5 8s.051 1.518.112 2.1a2.456 2.456 0 0 0 2.218 2.194c.55.055 1.25.112 2.087.151-.05-.277-.04-.581.066-.895zm4.311-4.918c.296-.556.335-1.18.159-1.738.7.039 1.296.088 1.775.136A2.456 2.456 0 0 1 13.888 5.9l.01.106.097-.001c.294 0 .535.041.71.086.243.062.47.146.62.364.131.19.14.413.147.633l.004.085a18 18 0 0 1 0 1.663l-.004.086c-.008.22-.016.444-.146.633-.15.218-.378.302-.621.364a3 3 0 0 1-.807.084l-.01.098a2.456 2.456 0 0 1-2.218 2.194c-.723.072-1.71.148-2.922.184l1.96-3.372c.372-.697.378-1.586-.029-2.264a2.25 2.25 0 0 0-1.236-.983z"/></svg>