<svg xmlns="http://www.w3.org/2000/svg" viewBox="0 0 44 44"><path d="m20 16-.002 12c-3.018 0-5.545-.076-7.457-.165-1.935-.089-2.902-.133-3.641-.873-.74-.74-.782-1.648-.866-3.466a32 32 0 0 1 .001-3.005c.086-1.81.129-2.715.868-3.454.74-.738 1.704-.783 3.633-.872C14.448 16.077 16.978 16 20 16"/><path fill-rule="evenodd" d="M37.68 16.045q.05.473.096.99.335-.034.723-.035c.743 0 1.35.11 1.786.226.266.072.53.16.778.279.478.236.795.708.833 1.239q.032.48.053.959c.025.584.051 1.395.051 2.297a53 53 0 0 1-.104 3.256 1.5 1.5 0 0 1-.833 1.24 4.5 4.5 0 0 1-.778.278A7 7 0 0 1 38.5 27q-.388-.001-.723-.035-.046.517-.096.99c-.308 2.935-2.607 5.163-5.51 5.463C29.43 33.7 25.28 34 20 34s-9.43-.3-12.17-.582c-2.903-.3-5.202-2.528-5.51-5.463A58 58 0 0 1 2 22c0-2.256.148-4.318.32-5.955.308-2.935 2.607-5.163 5.51-5.463C10.57 10.3 14.72 10 20 10s9.43.3 12.17.582c2.903.3 5.202 2.528 5.51 5.463M35 22c0-2.129-.14-4.084-.303-5.642-.157-1.49-1.31-2.634-2.835-2.792C29.214 13.293 25.168 13 20 13s-9.214.293-11.862.566c-1.524.158-2.678 1.301-2.835 2.792A55 55 0 0 0 5 22c0 2.129.14 4.084.303 5.641.157 1.492 1.31 2.635 2.835 2.793C10.786 30.707 14.832 31 20 31s9.214-.293 11.862-.566c1.524-.158 2.678-1.301 2.835-2.793C34.86 26.085 35 24.13 35 22"/></svg>