<svg xmlns="http://www.w3.org/2000/svg" viewBox="0 0 24 24"><path d="M7.496 9.072C8.422 9.032 9.606 9 11 9s2.579.033 3.504.072c1.072.046 1.609.07 2.022.487.414.417.431.916.465 1.914a16 16 0 0 1 0 1.054c-.034.998-.05 1.497-.465 1.914-.413.418-.95.44-2.022.487-.925.04-2.11.072-3.504.072-1.392 0-2.575-.033-3.501-.072-1.075-.046-1.613-.07-2.027-.487-.414-.418-.43-.92-.463-1.92a16 16 0 0 1 0-1.049c.034-.997.05-1.496.465-1.913.413-.418.95-.44 2.022-.487"/><path fill-rule="evenodd" d="M20.82 8.53q.023.227.044.473c.38-.015.764.03 1.128.141.207.063.327.12.45.185.496.28.512.77.529 1.253l.003.105a35 35 0 0 1 0 2.626l-.003.105c-.017.484-.033.972-.53 1.253a2.3 2.3 0 0 1-.45.185 3.4 3.4 0 0 1-1.127.142q-.022.245-.045.472a3.57 3.57 0 0 1-3.193 3.2A63 63 0 0 1 11 19a63 63 0 0 1-6.626-.33 3.57 3.57 0 0 1-3.193-3.2A35 35 0 0 1 1 12c0-1.32.084-2.524.18-3.47a3.57 3.57 0 0 1 3.194-3.2C5.876 5.17 8.134 5 11 5s5.124.169 6.626.33a3.57 3.57 0 0 1 3.193 3.2m-1.99.202c.09.896.17 2.03.17 3.268s-.08 2.372-.17 3.268a1.57 1.57 0 0 1-1.418 1.413A61 61 0 0 1 11 17c-2.788 0-4.974-.164-6.412-.319a1.57 1.57 0 0 1-1.418-1.413C3.08 14.372 3 13.238 3 12s.08-2.372.17-3.268A1.57 1.57 0 0 1 4.588 7.32 61 61 0 0 1 11 7c2.788 0 4.974.164 6.412.319a1.57 1.57 0 0 1 1.418 1.413"/></svg>