<svg xmlns="http://www.w3.org/2000/svg" viewBox="0 0 24 24"><path fill-rule="evenodd" d="M20.864 9.003q-.022-.246-.045-.473a3.57 3.57 0 0 0-3.193-3.2A63 63 0 0 0 11 5c-2.866 0-5.124.169-6.626.33a3.57 3.57 0 0 0-3.193 3.2C1.084 9.476 1 10.68 1 12s.084 2.524.18 3.47a3.57 3.57 0 0 0 3.194 3.2c1.502.161 3.76.33 6.626.33a63 63 0 0 0 6.626-.33 3.57 3.57 0 0 0 3.193-3.2q.023-.227.045-.473c.38.015.764-.03 1.128-.141.207-.063.327-.12.45-.185.496-.28.512-.77.529-1.253l.003-.105a35 35 0 0 0 0-2.626l-.003-.105c-.017-.484-.033-.972-.53-1.253a2.3 2.3 0 0 0-.45-.185 3.4 3.4 0 0 0-1.127-.141m-13.368.07C8.422 9.032 9.606 9 11 9s2.579.033 3.504.072c1.072.046 1.609.07 2.022.487.414.417.431.916.465 1.914a16 16 0 0 1 0 1.054c-.034.998-.05 1.497-.465 1.914-.413.418-.95.44-2.022.487-.925.04-2.11.072-3.504.072-1.392 0-2.575-.033-3.501-.072-1.075-.046-1.613-.07-2.027-.487-.414-.418-.43-.92-.463-1.92a16 16 0 0 1 0-1.049c.034-.997.05-1.496.465-1.913.413-.418.95-.44 2.022-.487"/></svg>