<svg xmlns="http://www.w3.org/2000/svg" viewBox="0 0 44 44"><path fill-rule="evenodd" d="M37.776 17.035q-.046-.517-.096-.99c-.308-2.935-2.607-5.163-5.51-5.463C29.43 10.3 25.28 10 20 10s-9.43.3-12.17.582c-2.903.3-5.202 2.528-5.51 5.463A58 58 0 0 0 2 22c0 2.256.148 4.318.32 5.955.308 2.935 2.607 5.163 5.51 5.463C10.57 33.7 14.72 34 20 34s9.43-.3 12.17-.582c2.903-.3 5.202-2.528 5.51-5.463q.05-.473.096-.99.335.034.723.035c.743 0 1.35-.11 1.786-.226.266-.072.53-.16.778-.279.478-.236.795-.708.833-1.239q.032-.48.053-.959c.025-.584.051-1.395.051-2.297a53 53 0 0 0-.104-3.256 1.5 1.5 0 0 0-.833-1.24 4.5 4.5 0 0 0-.778-.278A7 7 0 0 0 38.5 17q-.388.001-.723.035m-3.08-.677C34.86 17.917 35 19.871 35 22s-.14 4.084-.303 5.642c-.157 1.49-1.31 2.634-2.835 2.792C29.214 30.707 25.168 31 20 31s-9.214-.293-11.862-.566c-1.524-.158-2.678-1.301-2.835-2.793A55 55 0 0 1 5 22c0-2.129.14-4.084.303-5.642.157-1.49 1.31-2.634 2.835-2.792C10.786 13.293 14.832 13 20 13s9.214.293 11.862.566c1.524.158 2.678 1.301 2.835 2.792"/></svg>