<svg xmlns="http://www.w3.org/2000/svg" viewBox="0 0 16 16"><path fill-rule="evenodd" d="m13.898 10.002-.01.098a2.456 2.456 0 0 1-2.218 2.194c-1.002.1-2.508.206-4.42.206s-3.418-.106-4.42-.206A2.456 2.456 0 0 1 .612 10.1 20 20 0 0 1 .5 8c0-.793.051-1.518.112-2.1A2.456 2.456 0 0 1 2.83 3.705c1.002-.1 2.508-.206 4.42-.206s3.418.106 4.42.206A2.456 2.456 0 0 1 13.888 5.9l.01.105.097-.001c.294 0 .535.041.71.086.243.062.47.146.62.364.131.19.14.413.147.633l.004.085a18 18 0 0 1 0 1.663l-.004.086c-.008.22-.016.444-.146.633-.15.218-.378.302-.621.364a3 3 0 0 1-.807.084M5.044 6.537a64 64 0 0 1 4.412 0c.625.021.938.032 1.208.271.031.028.08.078.107.111C11 7.196 11 7.464 11 8s0 .804-.23 1.081a1 1 0 0 1-.106.111c-.27.239-.583.25-1.208.271a64 64 0 0 1-4.414 0c-.622-.021-.933-.032-1.201-.267a1 1 0 0 1-.115-.12C3.5 8.802 3.5 8.535 3.5 8c0-.536 0-.804.23-1.081.026-.033.075-.083.107-.111.269-.239.582-.25 1.207-.271"/></svg>