<svg xmlns="http://www.w3.org/2000/svg" viewBox="0 0 16 16"><path d="M8.102 3.588a.75.75 0 0 1 .31 1.015L7.003 7.249H8.75a.75.75 0 0 1 .662 1.103l-2.285 3.93a.44.44 0 0 1-.36.218c-.237-.012-.438-.247-.362-.475l1.092-3.27-1.743-.006a.75.75 0 0 1-.662-1.102l1.996-3.75a.75.75 0 0 1 1.014-.309"/><path d="M4.723 3.564a.74.74 0 0 1 .777.743.76.76 0 0 1-.723.756 37 37 0 0 0-1.797.135.956.956 0 0 0-.876.857A19 19 0 0 0 2 7.999c0 .73.047 1.403.104 1.945.048.457.4.809.876.856.478.049 1.081.098 1.797.136a.76.76 0 0 1 .723.756.74.74 0 0 1-.777.743 40 40 0 0 1-1.893-.142A2.456 2.456 0 0 1 .612 10.1 20 20 0 0 1 .5 8c0-.793.051-1.52.112-2.101A2.456 2.456 0 0 1 2.83 3.706a40 40 0 0 1 1.893-.142m4.777.772c0 .4.315.73.715.756q.757.05 1.305.106c.476.048.828.4.876.857a19 19 0 0 1 .104 1.944c0 .73-.047 1.403-.104 1.945a.956.956 0 0 1-.876.856 38 38 0 0 1-1.797.136.76.76 0 0 0-.723.756.74.74 0 0 0 .777.743 40 40 0 0 0 1.893-.142 2.456 2.456 0 0 0 2.218-2.193l.01-.097.097.002c.294 0 .535-.041.71-.086.243-.062.47-.146.62-.364.131-.19.14-.413.147-.633l.004-.086a18 18 0 0 0 0-1.663l-.004-.085c-.008-.22-.016-.443-.146-.633-.15-.218-.378-.302-.621-.364a3 3 0 0 0-.806-.085l-.011-.107a2.456 2.456 0 0 0-2.218-2.193 38 38 0 0 0-1.385-.113.74.74 0 0 0-.785.743"/></svg>