<svg xmlns="http://www.w3.org/2000/svg" viewBox="0 0 44 44"><path fill-rule="evenodd" d="M21.95 7c-5.46 0-10.493 2.251-12.865 3.508-.37.196-.6.59-.573 1.056.13 2.288.532 6.663 1.746 11.035 1.022 3.68 3.072 7.364 5.395 10.11 1.159 1.372 2.354 2.471 3.479 3.217C20.276 36.683 21.234 37 21.95 37c.724 0 1.7-.317 2.872-1.072 1.15-.743 2.379-1.838 3.573-3.205 2.393-2.739 4.525-6.423 5.6-10.14 1.254-4.337 1.471-8.684 1.484-10.953a1.13 1.13 0 0 0-.642-1.032C32.232 9.328 26.766 7 21.95 7m-14.27.857C10.206 6.519 15.76 4 21.95 4c5.556 0 11.56 2.612 14.203 3.902a4.13 4.13 0 0 1 2.326 3.745c-.013 2.398-.24 7.055-1.602 11.77-1.208 4.177-3.569 8.243-6.223 11.28-1.33 1.521-2.764 2.821-4.206 3.752C25.025 39.367 23.476 40 21.95 40c-1.534 0-3.072-.645-4.474-1.573-1.421-.941-2.823-2.253-4.114-3.78-2.58-3.05-4.848-7.116-5.994-11.246-1.296-4.665-1.715-9.279-1.851-11.665-.091-1.59.715-3.112 2.163-3.879"/></svg>