<svg xmlns="http://www.w3.org/2000/svg" viewBox="0 0 16 16"><path fill-rule="evenodd" d="M3.124 3.125c-.875.875-.94 1.747-1.07 3.491C2.02 7.068 2 7.535 2 8.001s.02.933.054 1.385c.13 1.744.195 2.616 1.07 3.491s1.747.94 3.491 1.07C7.067 13.98 7.534 14 8 14s.933-.02 1.385-.054c1.744-.13 2.616-.195 3.491-1.07s.94-1.747 1.07-3.491C13.98 8.934 14 8.467 14 8s-.02-.933-.054-1.385c-.13-1.744-.195-2.616-1.07-3.491s-1.747-.94-3.491-1.07A19 19 0 0 0 8 2.001c-.466 0-.933.02-1.385.054-1.744.13-2.616.195-3.491 1.07M6.285 9c.284 0 .541.148.775.31.465.32 1.395.315 1.868.006C9.17 9.158 9.43 9 9.72 9c.438 0 .783.316.78.664a.58.58 0 0 1-.146.37c-.41.489-.99.81-1.634.91A5 5 0 0 1 8 11a4.3 4.3 0 0 1-.849-.076 2.68 2.68 0 0 1-1.497-.877.6.6 0 0 1-.154-.383C5.498 9.316 5.842 9 6.285 9M6 5.6a.9.9 0 1 1 0 1.8.9.9 0 0 1 0-1.8m4.9.9a.9.9 0 1 0-1.8 0 .9.9 0 0 0 1.8 0"/></svg>