<svg xmlns="http://www.w3.org/2000/svg" viewBox="0 0 44 44"><path d="M32.287 25.572a2 2 0 1 1-4 0 2 2 0 0 1 4 0"/><path fill-rule="evenodd" d="M4.121 25.184c.266 3.512.399 5.267 2.792 7.675s4.26 2.56 7.995 2.865c2.029.165 4.394.276 7.091.276s5.06-.11 7.09-.276c3.736-.305 5.604-.457 7.997-2.865s2.526-4.165 2.791-7.678c.076-1.007.121-2.072.121-3.181a42 42 0 0 0-.12-3.18c-.266-3.514-.399-5.27-2.792-7.679-2.393-2.408-4.261-2.56-7.998-2.865A87 87 0 0 0 21.999 8c-2.697 0-5.062.11-7.091.276-3.735.305-5.602.458-7.995 2.865s-2.526 4.163-2.792 7.675A42 42 0 0 0 4 22c0 1.11.045 2.176.121 3.184m30.838 5.56c.924-.93 1.26-1.565 1.456-2.197.244-.79.331-1.734.471-3.592.071-.938.113-1.927.113-2.955s-.042-2.017-.113-2.955l-.012-.167H7.124l-.012.164c-.071.939-.113 1.93-.113 2.958s.042 2.02.113 2.958c.14 1.857.227 2.801.472 3.59.196.631.531 1.267 1.456 2.197.901.907 1.551 1.255 2.244 1.467.858.262 1.9.362 3.868.522a84 84 0 0 0 6.847.267c2.614 0 4.897-.107 6.845-.266 1.97-.161 3.011-.26 3.87-.523.693-.212 1.343-.56 2.245-1.468M7.419 16.122h29.16a6 6 0 0 0-.164-.669c-.196-.632-.532-1.268-1.456-2.197-.902-.908-1.552-1.256-2.245-1.468-.859-.262-1.9-.362-3.87-.523A84 84 0 0 0 21.999 11c-2.615 0-4.898.107-6.847.266-1.968.161-3.01.26-3.867.523-.694.212-1.344.56-2.245 1.467-.925.93-1.26 1.566-1.456 2.198a6 6 0 0 0-.165.669"/></svg>