<svg xmlns="http://www.w3.org/2000/svg" viewBox="0 0 24 24"><path fill-rule="evenodd" d="M12 6c-1.492 0-2.787.065-3.882.16-1.079.094-1.602.149-2.023.278-.312.097-.612.25-1.06.699-.363.365-.531.626-.63.863h15.19c-.1-.237-.268-.498-.631-.863-.448-.45-.748-.602-1.06-.699-.421-.13-.945-.184-2.024-.278A45 45 0 0 0 12 6m7.911 4H4.088l-.008.096a23 23 0 0 0 0 3.808c.087 1.037.137 1.522.26 1.915.09.289.238.584.696 1.044.447.449.747.602 1.06.698.42.13.943.185 2.021.278 1.096.095 2.391.16 3.883.16a45 45 0 0 0 3.88-.16c1.08-.093 1.603-.148 2.024-.278.312-.096.612-.25 1.06-.698.457-.46.606-.756.696-1.044.122-.394.173-.88.26-1.917a23 23 0 0 0 0-3.805zM7.945 4.168C9.097 4.068 10.45 4 11.999 4s2.902.068 4.054.168c2.025.175 3.038.263 4.327 1.557s1.37 2.265 1.532 4.206a25 25 0 0 1 0 4.137c-.162 1.941-.242 2.912-1.532 4.206-1.289 1.294-2.302 1.382-4.326 1.558-1.153.1-2.505.167-4.054.167s-2.903-.067-4.056-.167c-2.024-.176-3.036-.264-4.325-1.558-1.29-1.293-1.37-2.264-1.532-4.204a25 25 0 0 1 0-4.14c.162-1.94.243-2.911 1.532-4.205S5.92 4.343 7.945 4.168m9.054 11.081a1.25 1.25 0 1 0 0-2.5 1.25 1.25 0 0 0 0 2.5"/></svg>