<svg xmlns="http://www.w3.org/2000/svg" viewBox="0 0 16 16"><path fill-rule="evenodd" d="M8 4.5c-1.214 0-2.242.055-3.082.13-.7.063-1.016.098-1.263.173-.165.05-.319.124-.565.368-.262.261-.33.41-.373.54l-.012.039h10.59l-.012-.04c-.042-.13-.111-.278-.374-.539-.245-.244-.4-.318-.564-.368-.247-.075-.564-.11-1.264-.173A35 35 0 0 0 8 4.5M2.5 8q0-.386.023-.75h10.954a12 12 0 0 1-.034 1.928c-.061.642-.093.905-.16 1.111-.042.13-.111.279-.374.54-.245.244-.4.318-.564.368-.247.075-.564.11-1.264.173A35 35 0 0 1 8 11.5c-1.214 0-2.242-.055-3.083-.13-.699-.063-1.015-.098-1.262-.173-.165-.05-.319-.124-.565-.368-.262-.261-.33-.41-.373-.54-.067-.206-.1-.469-.16-1.11A12 12 0 0 1 2.5 8M8 13c1.259 0 2.331-.057 3.216-.136 1.3-.117 1.951-.176 2.751-.972s.857-1.388.97-2.572a14 14 0 0 0 0-2.64c-.113-1.184-.17-1.776-.97-2.572s-1.45-.855-2.751-.972A36 36 0 0 0 8 3c-1.26 0-2.332.057-3.217.136-1.3.117-1.95.176-2.75.972-.8.795-.857 1.387-.97 2.57a14 14 0 0 0 0 2.644c.113 1.183.17 1.775.97 2.57.8.796 1.45.855 2.75.972A36 36 0 0 0 8 13m4.002-3.85a.901.901 0 1 1-1.802 0 .901.901 0 0 1 1.802 0"/></svg>