<svg xmlns="http://www.w3.org/2000/svg" viewBox="0 0 44 44"><path stroke="#1D2023" stroke-linecap="square" stroke-width="3.143" d="M15.036 9.843a86 86 0 0 1 6.963-.272c2.653 0 4.975.11 6.961.271 1.921.157 3.134.264 4.171.58.95.292 1.798.779 2.84 1.827.74.744 1.185 1.365 1.479 1.956q.054.11.104.223H6.444q.05-.113.105-.223c.293-.591.738-1.212 1.478-1.956 1.042-1.048 1.89-1.535 2.84-1.826 1.036-.317 2.249-.424 4.169-.58ZM5.688 25.066l-1.566.118 1.566-.118a41 41 0 0 1-.091-4.494h32.804a40 40 0 0 1-.09 4.49c-.138 1.81-.23 2.932-.532 3.907-.277.893-.754 1.722-1.808 2.782-1.041 1.048-1.89 1.535-2.84 1.826-1.037.317-2.25.424-4.17.58a85 85 0 0 1-6.962.272c-2.654 0-4.976-.11-6.963-.272-1.92-.156-3.133-.263-4.17-.58-.95-.29-1.797-.778-2.839-1.826-1.054-1.06-1.53-1.889-1.807-2.78-.302-.975-.395-2.096-.532-3.905Zm24.599 4.078a3.572 3.572 0 1 0 0-7.143 3.572 3.572 0 0 0 0 7.143Z"/></svg>