<svg xmlns="http://www.w3.org/2000/svg" viewBox="0 0 44 44"><path fill-rule="evenodd" d="M6 40h32c-.134-.58-.384-1.057-.874-1.559-.97-.992-2.08-1.053-4.302-1.173q-1.532-.086-3.563-.154c.174-.692.238-1.558.325-2.732.211-2.866.414-7.01.414-12.38s-.203-9.516-.415-12.383c-.165-2.235-.247-3.352-1.163-4.285-.916-.932-1.95-1.027-4.018-1.217A27 27 0 0 0 22 4c-.816 0-1.631.046-2.404.117-2.068.19-3.102.285-4.018 1.217s-.999 2.05-1.164 4.285C14.203 12.486 14 16.632 14 22.002s.202 9.513.414 12.38c.087 1.174.15 2.04.325 2.732q-2.032.068-3.564.154c-2.22.12-3.33.18-4.3 1.173-.49.502-.74.979-.875 1.559m13.87-3.105A24 24 0 0 0 22 37c.706 0 1.428-.04 2.13-.105.53-.048.93-.085 1.274-.128.34-.043.549-.082.687-.118.183-.048.228-.124.271-.312.093-.4.143-.971.232-2.176q.09-1.21.172-2.736L22 27.453l-4.765 3.97q.08 1.527.172 2.737c.089 1.205.14 1.777.231 2.177.044.188.089.264.272.312.138.036.346.075.687.118.343.043.743.08 1.274.128m-2.79-9.249 3.959-3.298a1.5 1.5 0 0 1 1.92 0l3.96 3.3a193 193 0 0 0 .067-8.04L22 15.453l-4.985 4.154a205 205 0 0 0 .066 8.04m.023-12.019c.077-2.312.19-4.244.303-5.787.089-1.205.14-1.777.232-2.177.043-.188.088-.265.271-.312.138-.036.347-.075.687-.118.344-.043.743-.08 1.274-.129A24 24 0 0 1 22 7c.706 0 1.428.04 2.13.104.53.05.93.086 1.274.13.34.042.549.081.687.117.191.05.229.127.271.312.092.4.143.972.232 2.177.114 1.543.226 3.476.303 5.79l-3.938-3.282a1.5 1.5 0 0 0-1.92 0z"/></svg>