<svg xmlns="http://www.w3.org/2000/svg" viewBox="0 0 16 16"><path fill-rule="evenodd" d="M2 15h12c-.026-.424-.09-.688-.371-.975-.353-.36-.756-.382-1.562-.425q-.552-.031-1.283-.056c.02-.173.034-.372.052-.604.082-1.117.164-2.772.164-4.94a68 68 0 0 0-.164-4.94c-.06-.813-.09-1.219-.42-1.557s-.704-.376-1.453-.451A10 10 0 0 0 8 1c-.328 0-.655.02-.963.052-.75.075-1.124.113-1.453.451-.33.338-.36.744-.42 1.557A68 68 0 0 0 5 8c0 2.168.082 3.823.164 4.94.018.232.032.43.052.604q-.731.025-1.284.056c-.805.043-1.208.065-1.561.425-.282.287-.345.551-.371.975m6-1.5c.267 0 .543-.017.813-.044.194-.02.332-.034.449-.05l.028-.003.01-.08c.013-.13.024-.284.04-.493q.03-.416.06-.937L8 10.726l-1.4 1.167a51 51 0 0 0 .101 1.43l.009.08.028.004c.117.015.255.03.449.049.27.027.546.044.813.044m-1.475-3.497.995-.83a.75.75 0 0 1 .96 0l.995.83a78 78 0 0 0 .023-2.528L8 6.226 6.502 7.474a83 83 0 0 0 .023 2.529M6.54 5.49c.03-.939.076-1.713.12-2.32a18 18 0 0 1 .05-.573l.028-.004c.117-.015.255-.03.449-.049.27-.027.546-.044.813-.044s.543.017.813.044c.194.02.332.034.449.05l.028.003.01.08c.013.13.024.284.04.494.044.606.09 1.381.12 2.32l-.98-.817a.75.75 0 0 0-.96 0z"/></svg>