<svg xmlns="http://www.w3.org/2000/svg" viewBox="0 0 44 44"><path d="M21.998 8.999c-1.051 0-2.112.042-3.155.113-4.975.341-6.17.536-7.683 2.049s-1.708 2.708-2.049 7.683a46 46 0 0 0-.113 3.155 47 47 0 0 0 .113 3.156c.341 4.974.536 6.17 2.049 7.682s2.708 1.708 7.683 2.049q.478.032.958.056a1.5 1.5 0 0 1-.082 2.998c-.36 0-.723-.037-1.082-.061-4.78-.328-7.17-.492-9.599-2.92-2.428-2.428-2.592-4.819-2.92-9.6a49 49 0 0 1-.12-3.36c0-1.13.045-2.26.12-3.36.328-4.781.492-7.171 2.92-9.6s4.819-2.592 9.6-2.92c1.1-.075 2.23-.12 3.36-.12s2.26.045 3.36.12c4.781.328 7.171.492 9.6 2.92s2.592 4.819 2.92 9.6l.032.519a1.5 1.5 0 0 1-3 .088l-.025-.402c-.341-4.975-.536-6.17-2.048-7.683s-2.71-1.708-7.684-2.049A46 46 0 0 0 21.999 9"/><path fill-rule="evenodd" d="M20.506 23.999h-4.508v3.5a1.5 1.5 0 1 1-3 0V17.143a4.143 4.143 0 0 1 4.143-4.144h3.365q.245 0 .483.004c3.295.056 6.009 2.4 6.009 5.696 0 3.09-2.535 5.194-5.623 5.287q-.423.012-.87.013m-4.508-6.856c0-.632.512-1.144 1.143-1.144h3.365q.219 0 .432.004c1.94.032 3.06 1.306 3.06 2.696 0 1.122-.876 2.233-2.713 2.288q-.38.012-.78.012h-4.507zm16.55 5.856h-.098q-1.112.002-2.123.048c-.165.007-.33.029-.48.1a1.5 1.5 0 0 0-.849 1.352v1h-1.894c-.763 0-1.519.224-2.041.78a7.55 7.55 0 0 0-2.064 5.104v.116c.05 1.304.071 2.833.644 3.996.153.318.482.505.859.505h.497c.018 1.09.906 1.999 2 1.999s1.983-.911 2-2.001l7 .001c.018 1.09.906 2 2 2s1.983-.911 2-2.001c.837-.039 1.54-.564 1.673-1.4.18-1.117.327-2.507.327-4.049 0-1.51-.142-2.834-.316-3.89-.186-1.131-.28-1.696-.94-2.347s-1.237-.738-2.39-.912c-1.399-.21-3.337-.398-5.805-.401m-5.66 8.5a2.11 2.11 0 0 0 2.11-2.111v-1.389h-1.894a1 1 0 0 0-.255.03 5.05 5.05 0 0 0-1.351 3.47z"/></svg>