<svg xmlns="http://www.w3.org/2000/svg" viewBox="0 0 24 24"><path d="M10.071 5.077A26 26 0 0 1 12 5.002c.642 0 1.292.028 1.929.075 2.75.205 3.265.319 3.97 1.025.707.706.82 1.22 1.025 3.971l.011.138q.012.144.021.289a1 1 0 1 0 2 0s-.002-.076-.006-.109l-.031-.466c-.195-2.616-.292-3.924-1.605-5.237s-2.62-1.41-5.237-1.605A28 28 0 0 0 12 3.002c-.7 0-1.399.03-2.077.081-2.616.195-3.924.292-5.237 1.605s-1.41 2.62-1.605 5.237c-.05.678-.081 1.377-.081 2.077s.03 1.399.081 2.077c.195 2.616.292 3.924 1.605 5.237s2.62 1.41 5.237 1.605a31 31 0 0 0 .56.035h.017a1 1 0 0 0 .006-2l-.435-.03c-2.75-.204-3.265-.318-3.97-1.024-.707-.706-.82-1.221-1.025-3.971A26 26 0 0 1 5 12.002c0-.642.028-1.292.076-1.929.204-2.75.318-3.265 1.024-3.97.706-.707 1.22-.82 3.971-1.026"/><path fill-rule="evenodd" d="M7 15V9.449A2.45 2.45 0 0 1 9.448 7h1.843l.18.001c1.944.022 3.531 1.423 3.531 3.367 0 1.822-1.48 3.08-3.302 3.127q-.2.005-.409.005H9V15a1 1 0 1 1-2 0m4.65-3.505q-.177.005-.359.005H9V9.449C9 9.2 9.2 9 9.448 9h2c1.006.012 1.554.671 1.554 1.368a.97.97 0 0 1-.32.755c-.212.195-.564.36-1.033.372M16 13.637c0-.317.246-.58.563-.597Q17.236 13 18 13a21 21 0 0 1 3.028.203c.632.093.948.14 1.298.485s.4.662.502 1.295c.094.588.172 1.32.172 2.131s-.078 1.543-.172 2.131c-.069.43-.424.72-.851.752A1.22 1.22 0 0 1 20.787 21c-.587 0-1.077-.43-1.189-1h-3.196c-.111.57-.601 1-1.19 1-.587 0-1.076-.43-1.188-1h-.233a.5.5 0 0 1-.452-.283c-.198-.401-.235-.832-.29-1.472-.02-.237-.041-.486-.049-.745a3.9 3.9 0 0 1 1.047-2.6c.272-.287.664-.4 1.059-.4l.894-.001zm0 2.752c0 .613-.497 1.111-1.111 1.111h-.39c0-.703.306-1.198.572-1.499L16 16z"/></svg>