<svg xmlns="http://www.w3.org/2000/svg" viewBox="0 0 17 17"><path d="M7.46 7.437H5.843v-1.42a.177.177 0 0 1 .174-.173H7.5c.646.003.994.427.994.883a.61.61 0 0 1-.196.474c-.129.12-.349.228-.655.234z"/><path fill-rule="evenodd" d="M2.182 7.028C2.32 5.176 2.39 4.25 3.32 3.32s1.856-.998 3.709-1.136c.48-.036.976-.058 1.471-.058s.99.022 1.471.058c1.853.138 2.78.207 3.71 1.136.929.93.998 1.857 1.136 3.71q.018.253.032.51a17 17 0 0 0-1.926-.102q-.433 0-.829.017a2 2 0 0 0-.8.192c-.41.198-.75.526-.962.93-.33.08-.69.237-1.016.527-.536.476-1.33 1.452-1.35 3.051v.112q.011.322.036.616c.045.517.125 1.058.396 1.61l.188.381H8.5c-.495 0-.99-.021-1.471-.057-1.853-.138-2.78-.207-3.71-1.136-.929-.93-.998-1.857-1.136-3.71a20 20 0 0 1-.057-1.47c0-.496.021-.991.057-1.472M7.507 4.25H5.996A1.77 1.77 0 0 0 4.25 5.997v.631l-.002.041v3.423a.797.797 0 0 0 1.594 0V9.03H7.46q.11 0 .216-.003c1.336-.026 2.412-.964 2.412-2.3 0-1.428-1.154-2.472-2.581-2.478"/><path fill-rule="evenodd" d="M12.16 9.047a.4.4 0 0 0-.176.036.53.53 0 0 0-.301.479v.531h-.69c-.226 0-.451.052-.62.202-.31.275-.802.856-.815 1.88v.043q.01.276.031.527c.039.454.098.759.238 1.043a.36.36 0 0 0 .264.196.956.956 0 0 0 1.908.004h2.024a.956.956 0 0 0 1.91-.043.62.62 0 0 0 .408-.491c.067-.417.122-.935.122-1.51a9.6 9.6 0 0 0-.122-1.509c-.072-.448-.108-.673-.355-.917-.248-.245-.472-.278-.92-.343a15 15 0 0 0-2.144-.144q-.398 0-.762.015m-1.15 2.108h.673v.276a.787.787 0 0 1-.787.787h-.276c0-.586.242-.906.39-1.063"/></svg>