<svg xmlns="http://www.w3.org/2000/svg" viewBox="0 0 32 32"><path d="M13.13 13.5H10v-2.798c0-.388.314-.702.702-.702h2.429l.219.001c1.374.017 2.15.923 2.15 1.904 0 .77-.586 1.555-1.886 1.589a18 18 0 0 1-.483.006"/><path fill-rule="evenodd" d="M4.106 13.232c.26-3.488.39-5.232 2.14-6.983s3.494-1.88 6.983-2.14a38 38 0 0 1 2.769-.108c.933 0 1.865.041 2.77.109 3.488.26 5.232.389 6.982 2.14 1.75 1.75 1.88 3.494 2.14 6.982q.056.744.084 1.506c-1.1-.134-2.48-.238-4.106-.238q-1.124.002-2.114.059a3.45 3.45 0 0 0-2.977 2.077 4.3 4.3 0 0 0-2.218 1.283c-.8.873-2.03 2.584-2.066 4.974v.08l.005.115q.016.704.072 1.338l.011.134c.055.652.129 1.53.455 2.37.151.404.38.766.668 1.07a38 38 0 0 1-2.476-.107c-3.488-.26-5.231-.389-6.982-2.14-1.75-1.75-1.88-3.494-2.14-6.982a38 38 0 0 1-.108-2.77c0-.932.04-1.865.108-2.77M18 11.905c0 2.383-1.939 4.026-4.32 4.088q-.269.007-.55.007H10v2.25a1.25 1.25 0 1 1-2.5 0v-7.548A3.2 3.2 0 0 1 10.702 7.5h2.429l.248.001C15.922 7.531 18 9.362 18 11.905"/><path fill-rule="evenodd" d="M20.993 18.01c0-.508.393-.927.9-.955A36 36 0 0 1 23.868 17c1.794 0 3.251.136 4.323.288.931.133 1.397.199 1.882.677s.555.934.697 1.846c.123.794.223 1.769.223 2.846s-.1 2.052-.223 2.845c-.093.596-.607.998-1.21.998h-.085a1.75 1.75 0 0 1-3.464 0h-4.036a1.75 1.75 0 0 1-3.464 0h-.485a.69.69 0 0 1-.652-.457c-.198-.5-.246-1.053-.313-1.831A18 18 0 0 1 16.997 23l-.004-.07c.024-1.526.814-2.673 1.409-3.322.392-.429.967-.608 1.548-.608h1.043zm0 2.99-1.194.002c-.415.468-.791 1.149-.806 1.953v.545h.472c.844 0 1.528-.684 1.528-1.528z"/></svg>