<svg xmlns="http://www.w3.org/2000/svg" viewBox="0 0 32 32"><path d="M15.998 6.501c-.861 0-1.731.038-2.584.102-3.656.272-4.408.422-5.4 1.414s-1.143 1.745-1.415 5.4a35 35 0 0 0-.101 2.585c0 .86.038 1.73.101 2.584.272 3.655.423 4.408 1.415 5.4s1.744 1.142 5.4 1.414q.454.034.912.058c.654.04 1.172.591 1.172 1.255 0 .69-.537 1.228-1.228 1.228-.338 0-.704-.022-1.041-.048-3.489-.26-5.232-.389-6.983-2.14-1.75-1.75-1.88-3.494-2.14-6.982a38 38 0 0 1-.108-2.77c0-.932.04-1.865.108-2.77.26-3.487.39-5.231 2.14-6.982 1.75-1.75 3.494-1.88 6.983-2.14a38 38 0 0 1 2.769-.108c.933 0 1.865.041 2.77.109 3.488.26 5.232.389 6.982 2.14 1.75 1.75 1.88 3.494 2.14 6.982.013.17.028.34.028.517 0 .69-.56 1.25-1.25 1.25s-1.182-.573-1.248-1.26l-.023-.322c-.272-3.655-.422-4.408-1.415-5.4-.992-.992-1.744-1.142-5.4-1.414a35 35 0 0 0-2.584-.102"/><path fill-rule="evenodd" d="M19.5 13.405c0 2.383-1.939 4.026-4.32 4.088q-.269.007-.55.007H11.5v2.25a1.25 1.25 0 1 1-2.5 0v-7.548A3.2 3.2 0 0 1 12.202 9h2.429l.248.001c2.543.03 4.621 1.861 4.621 4.404M14.63 15H11.5v-2.798c0-.388.314-.702.702-.702h2.429l.219.001c1.374.017 2.15.923 2.15 1.904 0 .77-.586 1.555-1.886 1.589a18 18 0 0 1-.483.006m6.367 3.01c0-.508.393-.927.9-.955A36 36 0 0 1 23.873 17c1.794 0 3.251.136 4.322.288.932.133 1.398.199 1.882.677.485.478.556.934.698 1.846.123.794.223 1.769.223 2.846s-.1 2.052-.223 2.845c-.093.596-.607.998-1.21.998h-.085a1.75 1.75 0 0 1-3.464 0H21.98a1.75 1.75 0 0 1-3.464 0h-.485a.69.69 0 0 1-.652-.457c-.199-.5-.246-1.053-.313-1.831-.033-.383-.06-.788-.068-1.212v-.07c.023-1.526.813-2.673 1.409-3.322.392-.429.967-.608 1.548-.608h1.043zm0 2.99-1.194.002c-.416.468-.791 1.149-.806 1.953v.545h.472c.844 0 1.528-.684 1.528-1.528z"/></svg>