<svg xmlns="http://www.w3.org/2000/svg" viewBox="0 0 44 44"><path fill-rule="evenodd" d="M7.5 9h7v-.894c0-1.482.814-3.161 2.645-3.611C18.224 4.229 19.794 4 22 4s3.776.23 4.855.495c1.83.45 2.645 2.129 2.645 3.61V9h7a1.5 1.5 0 0 1 0 3h-1.072c.126.837.203 1.775.293 2.875.167 2.037.279 4.413.279 7.125 0 2.713-.112 5.09-.28 7.127-.305 3.722-.458 5.583-2.853 7.965-2.396 2.383-4.147 2.517-7.648 2.784A42 42 0 0 1 22 40c-1.123 0-2.2-.046-3.219-.124-3.501-.267-5.252-.401-7.648-2.784S8.585 32.85 8.28 29.127A87 87 0 0 1 8 22c0-2.711.112-5.087.279-7.124.09-1.1.167-2.039.293-2.876H7.5a1.5 1.5 0 0 1 0-3M22 7c-2 0-3.326.208-4.139.408a.35.35 0 0 0-.224.163 1 1 0 0 0-.137.535V9h9v-.894a1 1 0 0 0-.137-.535.35.35 0 0 0-.224-.163C25.326 7.208 24 7 22 7m-2 14a1.5 1.5 0 0 0-3 0v9.5a1.5 1.5 0 0 0 3 0zm5.5-1.5A1.5 1.5 0 0 1 27 21v9.5a1.5 1.5 0 0 1-3 0V21a1.5 1.5 0 0 1 1.5-1.5"/></svg>