<svg xmlns="http://www.w3.org/2000/svg" viewBox="0 0 44 44"><path fill-rule="evenodd" d="M17.862 7.408C18.674 7.208 20 7 22 7s3.326.208 4.139.408a.35.35 0 0 1 .224.163 1 1 0 0 1 .137.535V9h-9v-.894c0-.247.066-.428.137-.535a.35.35 0 0 1 .224-.163M14.5 9v-.894c0-1.482.814-3.161 2.645-3.611C18.224 4.229 19.794 4 22 4s3.776.23 4.855.495c1.83.45 2.645 2.129 2.645 3.61V9h7a1.5 1.5 0 0 1 0 3h-1.072c.126.837.203 1.775.293 2.876.167 2.036.279 4.412.279 7.124 0 2.713-.112 5.09-.28 7.127-.305 3.722-.458 5.583-2.853 7.965-2.396 2.383-4.147 2.517-7.648 2.784A42 42 0 0 1 22 40c-1.123 0-2.2-.046-3.219-.124-3.501-.267-5.252-.401-7.648-2.784S8.585 32.85 8.28 29.127A87 87 0 0 1 8 22c0-2.711.112-5.087.279-7.124.09-1.1.167-2.039.293-2.876H7.5a1.5 1.5 0 0 1 0-3zm1.5 3h-4.387c-.14.737-.226 1.68-.344 3.121a84 84 0 0 0-.269 6.88c0 2.63.108 4.924.27 6.88.16 1.962.26 3 .521 3.853.211.69.557 1.335 1.458 2.231.923.918 1.555 1.252 2.183 1.447.785.244 1.726.331 3.578.473a39 39 0 0 0 5.98 0c1.852-.142 2.793-.23 3.578-.473.628-.195 1.26-.529 2.183-1.447.901-.896 1.247-1.541 1.458-2.23.261-.854.36-1.892.522-3.854.16-1.956.269-4.25.269-6.88s-.108-4.924-.269-6.88c-.118-1.441-.203-2.384-.344-3.121zm2.5 7.5A1.5 1.5 0 0 1 20 21v9.5a1.5 1.5 0 0 1-3 0V21a1.5 1.5 0 0 1 1.5-1.5M27 21a1.5 1.5 0 0 0-3 0v9.5a1.5 1.5 0 0 0 3 0z"/></svg>