<svg xmlns="http://www.w3.org/2000/svg" viewBox="0 0 24 24"><path d="M17.83 4.118c.885.04 1.327.06 1.742.487.414.427.419.734.428 1.35v.09c-.01.615-.014.923-.428 1.35-.415.427-.857.447-1.741.487-1.277.058-3.23.118-5.83.118s-4.555-.06-5.832-.118c-.884-.04-1.326-.06-1.74-.487-.415-.427-.42-.735-.429-1.35v-.09c.01-.615.014-.923.428-1.35.415-.427.857-.447 1.741-.487C7.446 4.06 9.401 4 12.001 4s4.553.06 5.83.118m-.001 6c.885.04 1.327.06 1.742.487.414.427.419.734.428 1.35v.09c-.01.616-.014.923-.428 1.35-.415.428-.857.447-1.741.488-1.277.057-3.23.117-5.83.117s-4.555-.06-5.832-.118c-.884-.04-1.326-.06-1.74-.487-.415-.427-.42-.734-.429-1.35v-.09c.01-.616.014-.923.428-1.35.415-.428.857-.447 1.741-.488C7.446 10.06 9.401 10 12.001 10s4.553.06 5.83.117m1.741 6.488c-.415-.427-.857-.447-1.741-.487C16.554 16.06 14.6 16 12 16s-4.555.06-5.832.118c-.884.04-1.326.06-1.74.487-.415.427-.42.735-.429 1.35v.09c.01.615.014.923.428 1.35.415.427.857.447 1.741.487C7.445 19.94 9.4 20 12 20s4.553-.06 5.83-.118c.884-.04 1.326-.06 1.74-.487.415-.427.42-.735.429-1.35v-.09c-.01-.615-.014-.923-.428-1.35"/></svg>