<svg xmlns="http://www.w3.org/2000/svg" viewBox="0 0 16 16"><path d="M9.25 2H7.5c-.218 0-.442 0-.635.026-.235.03-.501.104-.742.307a1.4 1.4 0 0 0-.428.669 4 4 0 0 0-.107.47 5 5 0 0 0-.303.174 5 5 0 0 0-.58-.184 1.4 1.4 0 0 0-.794.035 1.4 1.4 0 0 0-.64.487c-.123.16-.242.364-.356.56l-.476.816c-.114.196-.233.4-.312.586a1.4 1.4 0 0 0-.107.8c.055.307.208.532.37.706.135.145.312.29.479.428a5 5 0 0 0 0 .24 5 5 0 0 0-.478.427 1.4 1.4 0 0 0-.37.707c-.056.312.015.58.107.8.079.186.198.39.312.586l.476.815c.114.196.233.4.357.56a1.4 1.4 0 0 0 .64.487c.291.105.561.087.793.035.183-.04.384-.112.578-.183q.148.092.304.176c.03.163.062.326.107.468.071.226.19.47.428.669.241.203.507.277.742.307.193.025.417.026.635.026h1.75v-1.962A3.5 3.5 0 0 1 7.5 9.007v-2c0-1.296.704-2.427 1.75-3.032z"/><path d="M11.5 2.355a.75.75 0 0 1 .75.75v1.917A2 2 0 0 1 14 7.007v2a2 2 0 0 1-1.75 1.984v1.907a.75.75 0 1 1-1.5 0v-1.907A2 2 0 0 1 9 9.007v-2a2 2 0 0 1 1.75-1.985V3.105a.75.75 0 0 1 .75-.75"/></svg>