<svg xmlns="http://www.w3.org/2000/svg" viewBox="0 0 16 16"><path d="M8.752 2H7.5c-.218 0-.442 0-.635.026-.235.03-.501.104-.742.307a1.4 1.4 0 0 0-.428.669 4 4 0 0 0-.107.47 5 5 0 0 0-.303.174 5 5 0 0 0-.58-.184 1.4 1.4 0 0 0-.794.035 1.4 1.4 0 0 0-.64.487c-.123.16-.242.364-.356.56l-.476.816c-.114.196-.233.4-.312.586a1.4 1.4 0 0 0-.107.8c.055.307.208.532.37.706.135.145.312.29.479.428a5 5 0 0 0 0 .24 5 5 0 0 0-.478.427 1.4 1.4 0 0 0-.37.707c-.056.312.015.58.107.8.079.186.198.39.312.586l.476.815c.114.196.233.4.357.56a1.4 1.4 0 0 0 .64.487c.291.105.561.087.793.035.183-.04.384-.112.578-.183q.148.092.304.176c.03.163.062.326.107.468.071.226.19.47.428.669.241.203.507.277.742.307.193.025.417.026.635.026h1.252a.748.748 0 0 0 0-1.496c-.504-.002-1.008.005-1.511-.008l-.128-.006-.025-.11-.054-.302-.001-.005a1.1 1.1 0 0 0-.61-.803 4 4 0 0 1-.465-.269 1.1 1.1 0 0 0-1.004-.126l-.114.043c-.12.043-.212.077-.292.104l-.115.036-.073-.113-.164-.277-.44-.755-.161-.28-.058-.109.08-.072a13 13 0 0 1 .358-.296c.287-.234.423-.584.402-.925a4 4 0 0 1 0-.462 1.1 1.1 0 0 0-.402-.925l-.359-.297-.08-.072.058-.11c.042-.076.094-.165.16-.278l.441-.756c.066-.114.118-.202.164-.277l.073-.113q.045.013.115.036c.08.027.173.061.292.105l.117.043a1.1 1.1 0 0 0 1.003-.126q.221-.15.464-.268c.307-.148.546-.439.61-.803v-.006a13 13 0 0 1 .08-.412q.048-.004.128-.006c.503-.013 1.007-.006 1.51-.008a.748.748 0 0 0 0-1.496"/><path fill-rule="evenodd" d="M12.25 3.105a.75.75 0 0 0-1.5 0v1.917A2 2 0 0 0 9 7.007v2a2 2 0 0 0 1.75 1.984v1.907a.75.75 0 1 0 1.5 0v-1.907A2 2 0 0 0 14 9.007v-2a2 2 0 0 0-1.75-1.985zM10.5 7.007a.5.5 0 0 1 .5-.5h1a.5.5 0 0 1 .5.5v2a.5.5 0 0 1-.5.5h-1a.5.5 0 0 1-.5-.5z"/></svg>