<svg xmlns="http://www.w3.org/2000/svg" viewBox="0 0 24 24"><path d="M11 10a5 5 0 0 1 3-4.584V3h-3a6 6 0 0 0-.68.038c-.34.044-.712.149-1.05.433-.331.28-.5.622-.6.948a7 7 0 0 0-.191.888 8 8 0 0 0-.514.297 7 7 0 0 0-.865-.28c-.333-.075-.713-.1-1.121.047-.415.15-.693.42-.9.692-.18.235-.352.534-.524.831l-.7 1.212a8 8 0 0 0-.457.868c-.132.316-.227.692-.15 1.126.077.427.29.743.52.994.188.204.433.41.676.61a8 8 0 0 0 0 .592c-.242.2-.486.406-.674.609-.231.25-.443.567-.52.994-.077.434.018.81.15 1.126.113.272.286.571.457.868l.7 1.212c.171.296.344.596.523.83.207.272.485.543.9.692.408.148.788.122 1.121.047.27-.06.569-.17.863-.278q.25.159.515.298c.053.31.108.623.19.887.102.326.27.668.602.948.337.284.71.39 1.049.433.207.027.44.036.68.038h3v-3.416A5 5 0 0 1 11 13z"/><path d="M13 10a3 3 0 0 1 3-3V4.5a1 1 0 1 1 2 0V7a3 3 0 0 1 3 3v3a3 3 0 0 1-3 3v3.5a1 1 0 1 1-2 0V16a3 3 0 0 1-3-3z"/></svg>