<svg xmlns="http://www.w3.org/2000/svg" viewBox="0 0 32 32"><path d="M21.384 13.384a1.25 1.25 0 0 0-1.768-1.768L14.5 16.732l-1.616-1.616a1.25 1.25 0 0 0-1.768 1.768l2.5 2.5a1.25 1.25 0 0 0 1.768 0z"/><path fill-rule="evenodd" d="M4.108 13.231c.26-3.487.39-5.231 2.14-6.982 1.75-1.75 3.494-1.88 6.982-2.14A38 38 0 0 1 16 4.003c.932 0 1.865.04 2.769.108 3.487.26 5.231.39 6.982 2.14C27.5 8 27.63 9.743 27.89 13.23c.067.905.107 1.837.107 2.77 0 .932-.04 1.865-.108 2.77-.26 3.487-.39 5.23-2.14 6.981s-3.494 1.88-6.981 2.14c-.904.067-1.837.108-2.77.108a38 38 0 0 1-2.769-.108c-3.488-.26-5.232-.39-6.982-2.14s-1.88-3.494-2.14-6.982A38 38 0 0 1 4 16c0-.932.041-1.864.108-2.769m9.308-6.628a35 35 0 0 1 2.583-.101c.861 0 1.731.037 2.584.1 3.656.273 4.408.423 5.4 1.415s1.142 1.744 1.414 5.4c.064.853.101 1.723.101 2.584 0 .86-.037 1.73-.1 2.583-.273 3.656-.423 4.408-1.415 5.4s-1.744 1.142-5.4 1.415c-.853.063-1.723.1-2.584.1-.86 0-1.73-.037-2.584-.1-3.655-.273-4.407-.423-5.4-1.415-.991-.992-1.141-1.744-1.414-5.4a35 35 0 0 1-.1-2.583c0-.861.037-1.731.1-2.584.273-3.656.423-4.408 1.415-5.4s1.744-1.142 5.4-1.414"/></svg>