<svg xmlns="http://www.w3.org/2000/svg" viewBox="0 0 16 16"><path d="M10.781 6.946a.75.75 0 0 0-1.06-1.06L7.332 8.273l-1.05-1.051a.75.75 0 0 0-1.062 1.06l1.582 1.582a.75.75 0 0 0 1.06 0z"/><path fill-rule="evenodd" d="M2.054 6.615c.13-1.744.195-2.616 1.07-3.491s1.747-.94 3.491-1.07C7.067 2.02 7.534 2 8 2s.933.02 1.385.054c1.744.13 2.616.195 3.49 1.07.876.875.941 1.747 1.07 3.491.034.452.055.919.055 1.385s-.02.933-.054 1.385c-.13 1.744-.195 2.616-1.07 3.491s-1.747.94-3.491 1.07C8.933 13.98 8.466 14 8 14s-.933-.02-1.385-.054c-1.744-.13-2.616-.195-3.491-1.07s-.94-1.747-1.07-3.491A19 19 0 0 1 2 8c0-.466.02-.933.054-1.385M6.726 3.55c.422-.031.85-.05 1.274-.05.423 0 .852.019 1.273.05 1.845.137 2.122.214 2.542.635.42.42.498.697.635 2.542.031.42.05.85.05 1.273s-.019.852-.05 1.273c-.137 1.845-.214 2.122-.635 2.542-.42.42-.697.498-2.542.635-.421.032-.85.05-1.273.05s-.852-.018-1.274-.05c-1.844-.137-2.121-.214-2.541-.635-.42-.42-.498-.697-.635-2.542A17 17 0 0 1 3.5 8c0-.423.018-.852.05-1.273.137-1.845.214-2.122.635-2.542.42-.42.697-.498 2.541-.635"/></svg>