<svg xmlns="http://www.w3.org/2000/svg" viewBox="0 0 44 44"><path fill-rule="evenodd" d="M7.68 7.857C10.206 6.519 15.76 4 21.95 4c5.556 0 11.56 2.612 14.203 3.902a4.13 4.13 0 0 1 2.326 3.745c-.013 2.398-.24 7.055-1.602 11.77-1.208 4.177-3.569 8.243-6.223 11.28-1.33 1.521-2.764 2.821-4.206 3.752C25.025 39.367 23.476 40 21.95 40c-1.534 0-3.072-.645-4.474-1.573-1.421-.941-2.823-2.253-4.114-3.78-2.58-3.05-4.848-7.116-5.994-11.246-1.296-4.665-1.715-9.279-1.851-11.665-.091-1.59.715-3.112 2.163-3.879m22.33 10.204a1.5 1.5 0 0 0-2.12-2.122l-6.94 6.94-2.94-2.94a1.5 1.5 0 0 0-2.12 2.122l3.292 3.293a2.5 2.5 0 0 0 3.536 0z"/></svg>