<svg xmlns="http://www.w3.org/2000/svg" viewBox="0 0 44 44"><path fill-rule="evenodd" d="M9.085 10.508C11.457 9.251 16.49 7 21.95 7c4.816 0 10.282 2.327 12.887 3.598.402.196.645.587.642 1.032-.013 2.27-.23 6.616-1.484 10.953-1.075 3.717-3.206 7.401-5.6 10.14-1.194 1.367-2.422 2.462-3.573 3.205C23.65 36.683 22.674 37 21.95 37c-.716 0-1.674-.317-2.818-1.074-1.125-.746-2.32-1.845-3.48-3.216-2.322-2.747-4.372-6.432-5.393-10.111-1.215-4.372-1.616-8.747-1.747-11.035-.027-.466.202-.86.573-1.056M21.95 4C15.76 4 10.206 6.52 7.68 7.857c-1.448.767-2.254 2.29-2.163 3.879.136 2.386.555 7 1.85 11.665 1.147 4.13 3.416 8.195 5.995 11.246 1.291 1.527 2.693 2.839 4.114 3.78 1.402.928 2.94 1.573 4.474 1.573 1.526 0 3.075-.633 4.498-1.551 1.442-.93 2.877-2.23 4.206-3.752 2.654-3.037 5.015-7.103 6.223-11.28 1.363-4.715 1.589-9.372 1.602-11.77a4.13 4.13 0 0 0-2.326-3.745C33.509 6.612 27.506 4 21.95 4m8.06 14.06a1.5 1.5 0 0 0-2.12-2.12l-6.94 6.939-2.94-2.94a1.5 1.5 0 0 0-2.12 2.122l3.292 3.293a2.5 2.5 0 0 0 3.536 0z"/></svg>