<svg xmlns="http://www.w3.org/2000/svg" viewBox="0 0 16 16"><path fill-rule="evenodd" d="M5.408 2.068c.687-.08 1.031-.121 1.315.068s.39.55.603 1.27l.285.967c.607-1.123 1.55-2.296 3.055-2.267q.297.005.622.075c1.996.44 2.482 1.853 2.644 3.227.08.688.121 1.032-.068 1.316-.189.283-.55.39-1.27.602l-.967.285c1.27.687 2.604 1.802 2.192 3.678-.439 1.995-1.853 2.482-3.227 2.643-.688.081-1.032.122-1.315-.067-.284-.19-.39-.55-.603-1.271l-.285-.966c-.687 1.27-1.802 2.603-3.678 2.191-1.995-.439-2.482-1.852-2.643-3.227-.081-.687-.122-1.031.067-1.315.19-.284.55-.39 1.271-.603l.966-.285c-1.27-.686-2.603-1.802-2.191-3.677.439-1.996 1.852-2.482 3.227-2.644"/></svg>