<svg xmlns="http://www.w3.org/2000/svg" viewBox="0 0 16 16"><path d="M1 8c0 1.463.06 2.63.124 3.466.074.957.626 1.85 1.575 1.992a3.7 3.7 0 0 0 1.102 0c.949-.142 1.501-1.035 1.575-1.992.04-.526.08-1.185.102-1.966h5.044c.023.781.061 1.44.102 1.966.073.957.626 1.85 1.576 1.992a3.7 3.7 0 0 0 1.1 0c.95-.142 1.502-1.035 1.576-1.992C14.941 10.63 15 9.463 15 8c0-1.462-.06-2.63-.124-3.465-.073-.958-.627-1.852-1.576-1.994a3.7 3.7 0 0 0-1.1 0c-.95.142-1.502 1.036-1.576 1.994a41 41 0 0 0-.102 1.965H5.478a42 42 0 0 0-.102-1.965C5.302 3.577 4.75 2.683 3.8 2.54a3.7 3.7 0 0 0-1.1 0c-.95.142-1.502 1.036-1.576 1.994A45 45 0 0 0 1 8"/></svg>