<svg xmlns="http://www.w3.org/2000/svg" viewBox="0 0 16 16"><path fill-rule="evenodd" d="M4.2 13.446c.983-.151 1.584-1.047 1.667-2.038q.052-.598.09-1.408h4.086q.038.81.09 1.408c.083.991.684 1.887 1.667 2.038a4.6 4.6 0 0 0 1.4 0c.983-.151 1.584-1.047 1.667-2.038.07-.83.133-1.978.133-3.408s-.063-2.577-.133-3.408c-.083-.991-.685-1.887-1.668-2.038a4.6 4.6 0 0 0-1.398 0c-.983.151-1.585 1.047-1.668 2.038q-.052.598-.09 1.408H5.957q-.038-.81-.09-1.408c-.083-.991-.685-1.887-1.668-2.038a4.6 4.6 0 0 0-1.398 0c-.983.151-1.585 1.047-1.668 2.038A41 41 0 0 0 1 8c0 1.43.063 2.578.133 3.408.083.991.684 1.887 1.667 2.038a4.6 4.6 0 0 0 1.4 0M10.003 7.5H5.997a48 48 0 0 1 0 1h4.006a48 48 0 0 1 0-1m-6.975 4.463c-.07-.01-.138-.042-.213-.139a1.04 1.04 0 0 1-.187-.54A40 40 0 0 1 2.5 8c0-1.385.061-2.491.127-3.283.02-.243.103-.43.189-.541.074-.097.142-.128.212-.14a3.1 3.1 0 0 1 .944 0c.07.012.138.043.212.14.086.11.168.298.188.541C4.44 5.51 4.5 6.615 4.5 8s-.061 2.492-.128 3.283c-.02.243-.102.43-.187.541-.075.097-.142.128-.213.139a3.1 3.1 0 0 1-.944 0m8.787-.139c.075.097.142.128.213.139a3.1 3.1 0 0 0 .944 0c.07-.01.138-.042.213-.139a1.05 1.05 0 0 0 .188-.54c.066-.792.127-1.899.127-3.284s-.061-2.491-.127-3.283a1.04 1.04 0 0 0-.188-.541c-.075-.097-.143-.128-.213-.14a3.1 3.1 0 0 0-.944 0c-.07.012-.138.043-.213.14-.085.11-.167.298-.187.541A40 40 0 0 0 11.5 8c0 1.385.061 2.492.127 3.283.02.243.103.43.188.541"/></svg>