<svg xmlns="http://www.w3.org/2000/svg" viewBox="0 0 16 16"><path d="M2.28 3.22a.749.749 0 1 0-1.061 1.06l1.957 1.96C1.901 6.74 1 7.952 1 9.37a3.33 3.33 0 0 0 1.239 2.582c.792.732 1.469.794 2.756.914C5.838 12.944 6.84 13 8 13c.665 0 1.297-.018 1.888-.048l.792.791 1.042 1.04a.749.749 0 1 0 1.057-1.064A5645 5645 0 0 1 2.28 3.22m11.593 8.79a3 3 0 0 1-.392.293l-7.9-7.9A4.26 4.26 0 0 1 8.746 3c2.345 0 4.246 1.882 4.246 4.203q0 .123-.007.243A2.33 2.33 0 0 1 15 9.754c0 .427-.146.878-.388 1.293a2.7 2.7 0 0 1-.324.522c-.11.14-.282.323-.415.44"/></svg>