<svg xmlns="http://www.w3.org/2000/svg" viewBox="0 0 16 16"><path d="M6.81 5.287a2.76 2.76 0 0 1 1.936-.786c1.53 0 2.746 1.225 2.746 2.703q0 .08-.004.157l-.08 1.377 1.366.194c.424.06.726.406.726.822 0 .377-.343.886-.62 1.13a2 2 0 0 1-.152.12.75.75 0 0 0 .85 1.236q.155-.108.294-.23a4 4 0 0 0 .416-.441q.194-.247.324-.522c.242-.415.388-.867.388-1.293a2.33 2.33 0 0 0-2.015-2.307q.007-.12.007-.243c0-2.32-1.9-4.203-4.246-4.203a4.26 4.26 0 0 0-2.984 1.214.75.75 0 0 0 1.048 1.072"/><path fill-rule="evenodd" d="M3.176 6.241 1.22 4.283a.75.75 0 1 1 1.062-1.06 4995 4995 0 0 0 9.467 9.459l1.042 1.039a.75.75 0 1 1-1.059 1.062l-1.042-1.039-.796-.794C9.301 12.98 8.668 13 8 13a33 33 0 0 1-3.005-.133c-1.287-.12-1.964-.182-2.756-.915A3.33 3.33 0 0 1 1 9.37c0-1.418.9-2.631 2.176-3.129m1.26 1.26C3.325 7.515 2.5 8.385 2.5 9.37c0 .558.257 1.068.687 1.42l.036.029.034.03c.23.214.392.292.585.347.268.076.605.113 1.292.177a31 31 0 0 0 3.302.123l-.36-.359C6.963 10.025 5.698 8.762 4.437 7.5"/></svg>