<svg xmlns="http://www.w3.org/2000/svg" viewBox="0 0 24 24"><path d="M21.432 16.24a5.1 5.1 0 0 1-1.015 1.225l-.004-.004A1 1 0 1 1 19 16.047l-.001-.002.022-.018.072-.06c.245-.214.457-.473.617-.744.213-.36.291-.67.291-.855 0-.716-.552-1.305-1.25-1.363l-2.171-.18.364-2.148Q17 10.348 17 10a4 4 0 0 0-6.83-2.827 1 1 0 1 1-1.437-1.391 6 6 0 0 1 10.182 5.23A3.37 3.37 0 0 1 22 14.368c0 .647-.236 1.307-.568 1.871"/><path fill-rule="evenodd" d="M3.708 4.294a1 1 0 1 0-1.416 1.412l3.443 3.448C3.59 9.681 2 11.57 2 13.82c0 1.771.984 3.318 2.45 4.153.957.64 1.92.724 3.495.86 1.153.1 2.505.168 4.055.168 1.092 0 2.119-.033 3.069-.088l.402-.023 2.822 2.819a1 1 0 1 0 1.413-1.416l-1.6-1.597A18359 18359 0 0 1 3.709 4.294m8.986 11.819.864.864Q12.804 17 12 17c-1.492 0-2.786-.065-3.882-.16-1.683-.146-2.1-.225-2.556-.53l-.06-.04-.061-.035C4.556 15.73 4 14.823 4 13.819c0-1.499 1.267-2.81 2.95-2.81h.081l.573.015c1.763 1.764 3.522 3.523 5.09 5.089"/></svg>