<svg xmlns="http://www.w3.org/2000/svg" viewBox="0 0 24 24"><path fill-rule="evenodd" d="M13 7.95c.674-.056 1.055-.13 1.438-.512.438-.438.47-.874.535-1.746q.026-.34.027-.692 0-.351-.027-.692c-.065-.872-.097-1.308-.535-1.746s-.874-.47-1.746-.535A9 9 0 0 0 12 2q-.351 0-.692.027c-.872.065-1.308.097-1.746.535s-.47.874-.535 1.746Q9.001 4.648 9 5q0 .351.027.692c.065.872.097 1.308.535 1.746.383.383.765.456 1.438.511V10H9a1 1 0 1 0 0 2h2v6.98q-.466-.02-.928-.054c-2.75-.205-3.265-.318-3.971-1.025-.603-.603-.774-1.066-.939-2.901h1.139a.698.698 0 0 0 .493-1.192l-2.602-2.602A.698.698 0 0 0 3 11.699c0 .794.023 1.588.082 2.38.194 2.616.292 3.924 1.604 5.236C6 20.629 7.307 20.726 9.923 20.92c.678.05 1.378.081 2.078.081.699 0 1.399-.03 2.077-.08 2.616-.195 3.924-.293 5.236-1.605 1.313-1.313 1.41-2.621 1.605-5.237.06-.792.081-1.593.081-2.38a.698.698 0 0 0-1.192-.493l-2.602 2.602A.698.698 0 0 0 17.699 15h1.14c-.165 1.835-.336 2.298-.939 2.901-.706.707-1.22.82-3.97 1.025a28 28 0 0 1-.93.054V12h2a1 1 0 1 0 0-2h-2zM12 6a10 10 0 0 1-.946-.054C11.024 5.632 11 5.316 11 5s.024-.632.054-.946c.314-.03.63-.054.946-.054s.632.024.946.054c.03.314.054.63.054.946s-.024.632-.054.946A10 10 0 0 1 12 6"/></svg>