<svg xmlns="http://www.w3.org/2000/svg" viewBox="0 0 44 44"><path fill-rule="evenodd" d="M11.032 26.144a65 65 0 0 0 .157 2.99c.144 1.887.233 2.852.483 3.654.2.642.54 1.28 1.473 2.205.934.926 1.575 1.26 2.215 1.454.8.242 1.76.322 3.644.45a45 45 0 0 0 5.992 0c1.883-.128 2.844-.208 3.644-.45.64-.194 1.281-.528 2.215-1.454s1.273-1.563 1.473-2.205c.25-.801.34-1.766.483-3.655.07-.92.126-1.916.157-2.989l-7.352 2.647a10.68 10.68 0 0 1-7.232 0zM30.345 8.988c-1.417-.63-2.941-.732-5.15-.88a48 48 0 0 0-6.39 0c-2.208.148-3.733.25-5.15.88l-2.342-4.215c-.74-1.333-2.77-.84-2.813.688l-.416 14.997q-.068 1.38-.082 2.934l-.001.065v.104L8 23.999c0 1.992.076 3.78.197 5.363.273 3.57.41 5.357 2.836 7.762 2.427 2.405 4.207 2.525 7.77 2.766a47.5 47.5 0 0 0 6.395 0c3.562-.24 5.343-.361 7.769-2.766s2.563-4.19 2.836-7.762a71 71 0 0 0 .196-5.905l-.001-.065a72 72 0 0 0-.082-2.934L35.5 5.461c-.043-1.529-2.072-2.02-2.813-.688zm-16.186 9.34a1.5 1.5 0 0 1 2.012-.67l3 1.5a1.5 1.5 0 0 1-1.342 2.683l-3-1.501a1.5 1.5 0 0 1-.67-2.013m13.67-.67a1.5 1.5 0 0 1 1.342 2.682l-3 1.501a1.5 1.5 0 0 1-1.342-2.682z"/></svg>