<svg xmlns="http://www.w3.org/2000/svg" viewBox="0 0 44 44"><path fill-rule="evenodd" d="M5.22 17.719a1.5 1.5 0 0 0 1.56 2.562h.001l.005-.004.023-.014.094-.056.364-.217a105 105 0 0 1 5.726-3.153c1.695-.863 3.503-1.713 5.146-2.343 1.693-.65 3.033-.994 3.861-.994s2.168.345 3.861.994c1.643.63 3.45 1.48 5.146 2.343a105 105 0 0 1 6.09 3.37l.093.056.024.014.005.004h.001a1.5 1.5 0 0 0 1.56-2.562h-.001l-.002-.002-.007-.004-.027-.017-.1-.06-.382-.227a108 108 0 0 0-5.893-3.245c-1.742-.888-3.653-1.788-5.432-2.47C25.206 11.03 23.422 10.5 22 10.5s-3.207.53-4.936 1.193c-1.779.683-3.69 1.583-5.432 2.47a108 108 0 0 0-6.274 3.473l-.101.06-.027.017-.007.004-.002.001zM18 30c0 .718.331 1.102.993 1.87.172.2.355.4.546.591q.288.287.59.546c.769.662 1.153.993 1.871.993s1.102-.331 1.87-.993c.2-.172.4-.355.591-.546q.287-.288.546-.59c.662-.769.993-1.153.993-1.871s-.331-1.102-.993-1.87c-.172-.2-.355-.4-.546-.591q-.288-.287-.59-.546C23.102 26.331 22.718 26 22 26s-1.102.331-1.87.993c-.2.172-.4.355-.591.546q-.287.288-.546.59C18.331 28.898 18 29.282 18 30m-7.772-4.705a1.5 1.5 0 0 0 2.067.477l.004-.003.016-.01.065-.04a65 65 0 0 1 1.175-.71 86 86 0 0 1 2.97-1.69c1.139-.614 2.327-1.215 3.367-1.657.52-.222.982-.395 1.368-.51.406-.121.642-.152.74-.152s.334.03.74.152c.386.115.848.288 1.368.51 1.04.442 2.228 1.043 3.366 1.658a86 86 0 0 1 4.146 2.4l.065.04.016.01.003.002a1.5 1.5 0 0 0 1.591-2.544l-.002-.001-.005-.003-.019-.012-.07-.044-.265-.163A89 89 0 0 0 28.9 20.68c-1.175-.635-2.456-1.284-3.618-1.779a16 16 0 0 0-1.685-.623C23.088 18.125 22.528 18 22 18c-.527 0-1.088.125-1.598.277a16 16 0 0 0-1.685.624c-1.163.495-2.443 1.144-3.618 1.78a89 89 0 0 0-4.298 2.487l-.07.044-.019.012-.005.003-.002.001a1.5 1.5 0 0 0-.477 2.067"/></svg>