<svg xmlns="http://www.w3.org/2000/svg" viewBox="0 0 16 16"><path fill-rule="evenodd" d="M3.59 6.628c.677-.443 1.482-.921 2.283-1.286C6.691 4.97 7.432 4.75 8 4.75c.482 0 1.095.159 1.784.443.678.28 1.376.66 2.013 1.047a25 25 0 0 1 2.195 1.514l.03.025.008.005.002.002a.75.75 0 1 0 .936-1.172l-.004-.003-.01-.008-.037-.03-.138-.106a26 26 0 0 0-2.201-1.507 16.4 16.4 0 0 0-2.221-1.153C9.592 3.49 8.767 3.25 8 3.25c-.892 0-1.868.326-2.748.727-.896.408-1.771.93-2.483 1.395a27 27 0 0 0-1.701 1.213l-.026.021-.007.006-.003.002a.75.75 0 1 0 .937 1.172v-.001l.005-.004.021-.017a13 13 0 0 1 .42-.318c.288-.213.696-.505 1.176-.818m-.063 1.99a.75.75 0 0 0 .946 1.164l.006-.005.02-.016a13 13 0 0 1 .395-.306c.266-.2.63-.464 1.033-.728.404-.265.831-.52 1.224-.705.415-.197.7-.272.849-.272s.434.075.85.272c.392.185.82.44 1.223.705a20 20 0 0 1 1.428 1.034l.02.017.005.003.001.001a.75.75 0 0 0 .946-1.164l-.003-.002-.007-.006-.025-.02-.093-.074q-.122-.096-.337-.259a21 21 0 0 0-1.112-.784c-.434-.285-.925-.58-1.405-.807C9.035 6.45 8.498 6.25 8 6.25s-1.035.2-1.491.416c-.48.227-.971.522-1.405.807A21 21 0 0 0 3.562 8.59l-.025.02-.007.006zM6.551 11.5c0 .258.12.396.357.672a4 4 0 0 0 .408.408c.276.238.414.357.672.357s.396-.12.672-.357a4 4 0 0 0 .408-.408c.238-.276.357-.414.357-.672s-.12-.396-.357-.672a4 4 0 0 0-.408-.408c-.276-.238-.414-.357-.672-.357s-.396.12-.672.357a4 4 0 0 0-.408.408c-.238.276-.357.414-.357.672"/></svg>