<svg xmlns="http://www.w3.org/2000/svg" viewBox="0 0 24 24"><path fill-rule="evenodd" d="M5.493 10.168c.994-.563 2.233-1.217 3.444-1.727C10.18 7.916 11.267 7.6 12 7.6c.569 0 1.371.193 2.324.547.931.346 1.923.813 2.84 1.29a45 45 0 0 1 3.23 1.862l.047.03.011.008.003.002a1 1 0 1 0 1.09-1.678l-.006-.003-.014-.01-.054-.034-.203-.129a47 47 0 0 0-3.181-1.823c-.958-.497-2.03-1.005-3.067-1.39C14.004 5.894 12.931 5.6 12 5.6c-1.16 0-2.563.46-3.84.998-1.311.552-2.626 1.248-3.653 1.83a49 49 0 0 0-2.01 1.206l-.03.02-.008.005-.004.003a1 1 0 1 0 1.09 1.676h.001l.006-.004.026-.017.104-.066a47 47 0 0 1 1.812-1.083m2.993 3.328a25 25 0 0 1 2.061-1.038C11.282 12.138 11.782 12 12 12s.718.138 1.453.458a25 25 0 0 1 2.061 1.038 40 40 0 0 1 1.35.787l.08.05.02.011.006.004a1 1 0 0 0 1.06-1.696l-.01-.006-.023-.014-.088-.055-.323-.195a42 42 0 0 0-1.1-.634 27 27 0 0 0-2.235-1.124C13.535 10.312 12.683 10 12 10c-.684 0-1.535.313-2.251.624-.768.334-1.575.757-2.236 1.124a42 42 0 0 0-1.423.83l-.088.054-.024.014-.009.006a1 1 0 0 0 1.06 1.696l.006-.004.02-.012.08-.049q.106-.066.304-.184c.26-.155.626-.37 1.046-.603M9.7 17.001c0 .413.19.634.572 1.076a6 6 0 0 0 .653.653c.441.38.662.57 1.075.57s.634-.19 1.076-.57a6 6 0 0 0 .653-.653c.38-.442.57-.663.57-1.076s-.19-.634-.57-1.076a6 6 0 0 0-.653-.653c-.442-.38-.663-.57-1.076-.57s-.633.19-1.075.57a6 6 0 0 0-.653.653c-.381.442-.572.663-.572 1.076"/></svg>