<svg xmlns="http://www.w3.org/2000/svg" viewBox="0 0 16 16"><path d="M7.799 2.013c-.217.026-.426.111-.845.282l-.455.184c-1.07.433-2.142.866-3.188 1.37-.634.306-1.443.696-1.293 1.598.108.65.587.83 1.099.911q-.018.233-.035.494a38 38 0 0 0-.059 3.815H5.5V8.25a.75.75 0 0 1 1.5 0v2.417h2V8.25a.75.75 0 1 1 1.5 0v2.417h2.477a38 38 0 0 0-.094-4.309c.512-.082.991-.261 1.099-.91.15-.903-.659-1.293-1.293-1.598-1.046-.505-2.117-.938-3.188-1.371l-.455-.184c-.419-.17-.628-.256-.845-.282a1.6 1.6 0 0 0-.402 0m5.669 10.519A.75.75 0 0 0 12.75 12h-9.5a.75.75 0 0 0-.718.532A.75.75 0 0 0 2.75 14h10.5a.75.75 0 0 0 .218-1.468"/></svg>