<svg xmlns="http://www.w3.org/2000/svg" viewBox="0 0 44 44"><path fill-rule="evenodd" d="M34.505 10.934c1.69.815 3.846 1.855 3.447 4.261-.346 2.082-2.12 2.354-3.759 2.538q-.223.026-.46.047c.156 2.168.267 4.78.267 7.72 0 1.616-.032 3.116-.087 4.5h.587a1.5 1.5 0 0 1 1.5 1.5V35h.5a1.5 1.5 0 0 1 0 3h-29a1.5 1.5 0 0 1 0-3H8v-3.5A1.5 1.5 0 0 1 9.5 30h.587A113 113 0 0 1 10 25.5c0-2.94.11-5.552.267-7.72a23 23 0 0 1-.46-.047c-1.64-.184-3.413-.456-3.759-2.538-.399-2.406 1.757-3.446 3.447-4.261 2.79-1.346 5.648-2.502 8.503-3.657l1.212-.491c1.118-.454 1.677-.68 2.253-.753a4.4 4.4 0 0 1 1.074 0c.576.072 1.136.299 2.253.753l1.212.49c2.856 1.156 5.713 2.312 8.503 3.658M33 35v-2H11v2zm-6-5v-8a1.5 1.5 0 0 0-3 0v8h-4v-8a1.5 1.5 0 0 0-3 0v8h-3.91c-.057-1.377-.09-2.877-.09-4.5 0-2.867.112-5.462.263-7.558 1.953.055 4.346.058 7.21.058h3.049c2.867 0 5.261-.003 7.215-.058.15 2.096.263 4.691.263 7.558 0 1.623-.033 3.123-.09 4.5zM20.339 9.565c1.266-.514 1.402-.543 1.494-.555q.167-.02.334 0c.092.012.228.041 1.494.555q.606.247 1.206.489l.015.006c2.864 1.159 5.624 2.276 8.32 3.576.437.21.79.383 1.113.569.274.158.458.288.579.392l-.084.018c-.252.053-.548.092-.952.137-2.088.235-5.386.248-10.336.248h-3.048c-4.948 0-8.244-.013-10.332-.248a11 11 0 0 1-1.036-.155 4 4 0 0 1 .579-.392c.323-.186.676-.358 1.114-.57 2.695-1.3 5.456-2.416 8.32-3.575l.005-.002z"/></svg>