<svg xmlns="http://www.w3.org/2000/svg" viewBox="0 0 24 24"><path fill-rule="evenodd" d="M10.43 3.458c.63-.264.944-.397 1.268-.439q.301-.038.604 0c.324.042.639.175 1.268.44l.68.286c1.607.674 3.215 1.348 4.784 2.133.95.476 2.163 1.082 1.939 2.486-.195 1.214-1.192 1.373-2.114 1.48l-.013.002.006.089A57 57 0 0 1 18.966 16H19a1 1 0 0 1 1 1v2a1 1 0 1 1 0 2H4a1 1 0 1 1 0-2v-2a1 1 0 0 1 1-1h.034a58 58 0 0 1 .114-6.065l.006-.09h-.013c-.922-.108-1.92-.267-2.114-1.481-.224-1.404.988-2.01 1.94-2.486 1.568-.785 3.176-1.46 4.782-2.133zM18 19v-1H6v1zm-3-3v-4a1 1 0 1 0-2 0v4h-2v-4a1 1 0 1 0-2 0v4H7.035a55 55 0 0 1 .107-5.913l.009-.119c1.086.03 2.41.032 3.99.032h1.715c1.58 0 2.906-.002 3.993-.032l.01.118A55 55 0 0 1 16.964 16zM12.724 5.225q.12.054.263.115l.84.351c1.619.678 3.242 1.357 4.815 2.169-1.23.137-3.166.14-6.053.14H11.41c-2.887 0-4.824-.003-6.053-.14 1.574-.812 3.196-1.491 4.816-2.169l.839-.351q.143-.061.264-.115c.298-.131.51-.225.722-.225.213 0 .425.093.725.225"/></svg>