<svg xmlns="http://www.w3.org/2000/svg" viewBox="0 0 16 16"><path fill-rule="evenodd" d="M6.954 2.295c.419-.17.628-.256.845-.282a1.6 1.6 0 0 1 .402 0c.217.026.426.111.845.282l.455.184c1.07.433 2.142.866 3.188 1.37.634.306 1.443.696 1.293 1.598-.108.65-.587.83-1.1.911q.019.233.036.493a39 39 0 0 1 .063 3.685.75.75 0 0 1 .519.714v1.293A.75.75 0 0 1 13.25 14H2.75a.75.75 0 0 1-.25-1.457V11.25a.75.75 0 0 1 .518-.714 39 39 0 0 1 .064-3.684l.035-.494c-.512-.082-.991-.261-1.099-.91-.15-.903.659-1.293 1.293-1.598 1.046-.505 2.117-.938 3.188-1.371zm.564 1.39c.223-.091.34-.138.428-.169.049-.017.06-.017.108 0 .088.031.205.078.428.168l.458.186c.898.363 1.76.712 2.601 1.097a83 83 0 0 1-2.97.032H7.428c-1.274 0-2.242-.003-2.969-.032a63 63 0 0 1 2.6-1.097zM12 12H4v.5h8zm-.518-1.5a37 37 0 0 0-.095-4.026 96 96 0 0 1-2.816.025H7.428c-1.13 0-2.063-.002-2.815-.025l-.035.48a37 37 0 0 0-.06 3.545H6V8.251a.75.75 0 0 1 1.5 0v2.25h1V8.25a.75.75 0 1 1 1.5 0v2.25z"/></svg>