<svg xmlns="http://www.w3.org/2000/svg" viewBox="0 0 32 32"><path fill-rule="evenodd" d="M16.402 4.025c.433.054.852.224 1.69.564l.906.367.003.002c2.142.866 4.285 1.733 6.377 2.742.695.336 1.496.722 2.027 1.3.438.476.693 1.082.558 1.896-.249 1.502-1.488 1.748-2.675 1.888l.01.135c.12 1.539.2 3.345.2 5.414q-.002 1.71-.067 3.18A1.25 1.25 0 0 1 26.5 22.75v2.75h.25a1.25 1.25 0 1 1 0 2.5H5.25a1.25 1.25 0 1 1 0-2.5h.25v-2.75a1.25 1.25 0 0 1 1.067-1.237q-.064-1.47-.066-3.18c0-2.07.08-3.875.2-5.414l.01-.135c-1.188-.14-2.43-.385-2.679-1.888-.135-.814.12-1.42.558-1.896.532-.578 1.332-.964 2.028-1.3 2.092-1.009 4.235-1.876 6.376-2.742l.91-.369c.838-.34 1.257-.51 1.69-.564a3.3 3.3 0 0 1 .808 0M24 25.5V24H8v1.5zm-14.93-4H12v-5.25a1.25 1.25 0 0 1 2.5 0v5.25h3v-5.25a1.25 1.25 0 0 1 2.5 0v5.25h2.93c.043-.97.069-2.026.069-3.167 0-2.004-.078-3.746-.193-5.22l-.012-.164c-1.508.049-3.383.05-5.652.051h-2.286c-2.268 0-4.142-.002-5.65-.05l-.012.162a68 68 0 0 0-.192 5.221q.002 1.712.068 3.167m8.995-14.225.003.002c2.149.87 4.212 1.704 6.225 2.675.288.14.515.253.694.35l-.12.014c-1.55.174-4.006.184-7.725.184h-2.286c-3.72 0-6.176-.01-7.725-.184l-.12-.014c.179-.097.406-.21.694-.35 2.013-.971 4.076-1.806 6.224-2.675l.916-.371c.442-.18.689-.28.879-.345a.76.76 0 0 1 .55 0c.19.066.437.165.878.345z"/></svg>