<svg xmlns="http://www.w3.org/2000/svg" viewBox="0 0 32 32"><path d="M13.907 4.59c.839-.341 1.258-.511 1.69-.565a3.3 3.3 0 0 1 .806 0c.432.054.851.224 1.69.564l.909.369c2.141.866 4.285 1.733 6.377 2.742 1.267.612 2.884 1.392 2.585 3.196-.251 1.512-1.506 1.752-2.702 1.89l.037.466a75 75 0 0 1 .147 8.248H20.5v-5.25a1.25 1.25 0 0 0-2.5 0v5.25h-4v-5.25a1.25 1.25 0 0 0-2.5 0v5.25H6.554a75 75 0 0 1 .147-8.247l.037-.466c-1.196-.14-2.45-.379-2.702-1.89-.3-1.805 1.318-2.585 2.586-3.197 2.092-1.009 4.235-1.876 6.377-2.742zM28 26.75c0-.69-.56-1.25-1.25-1.25h-.275q.024-.12.025-.25c0-.69-.56-1.25-1.25-1.25H6.75a1.25 1.25 0 0 0-1.225 1.5H5.25a1.25 1.25 0 1 0 0 2.5h21.5c.69 0 1.25-.56 1.25-1.25"/></svg>