<svg xmlns="http://www.w3.org/2000/svg" viewBox="0 0 16 16"><path fill-rule="evenodd" d="M5.197 14.517c-.74-.268-1.221-.933-1.35-1.71-.147-.897-.311-2.295-.341-4.186a3.333 3.333 0 0 1 1.709-6.12A3.33 3.33 0 0 1 8 1a3.33 3.33 0 0 1 2.785 1.501 3.333 3.333 0 0 1 1.71 6.117 34 34 0 0 1-.3 4.102c-.143 1.024-.85 1.86-1.864 2.058A12.3 12.3 0 0 1 7.989 15a8.2 8.2 0 0 1-2.792-.483m4.336-11.19.426.646.773.028a1.833 1.833 0 0 1 .939 3.365l-.662.436-.013.793c-.01.696-.04 1.332-.08 1.905H5.089a33 33 0 0 1-.084-1.903l-.012-.794-.664-.436a1.833 1.833 0 0 1 .938-3.366l.774-.027.426-.647A1.83 1.83 0 0 1 8 2.5a1.83 1.83 0 0 1 1.533.827m-4.205 9.236A20 20 0 0 1 5.244 12h5.531q-.033.274-.066.513c-.066.47-.355.732-.665.792-.546.107-1.243.195-2.055.195a6.7 6.7 0 0 1-2.28-.393c-.154-.056-.327-.216-.381-.544"/></svg>