<svg xmlns="http://www.w3.org/2000/svg" viewBox="0 0 24 24"><path fill-rule="evenodd" d="M21 9a5 5 0 0 1-2.515 4.34c-.056 2.386-.253 4.221-.447 5.497-.21 1.39-1.16 2.52-2.536 2.812-.908.191-2.091.351-3.517.351a17 17 0 0 1-3.506-.351c-1.366-.29-2.307-1.415-2.517-2.797-.194-1.276-.392-3.117-.448-5.513A5 5 0 0 1 8 4a5 5 0 0 1 4-1.999c1.636 0 3.088.786 4 2a5 5 0 0 1 5 5m-6.599-3.799.6.799h1a3 3 0 0 1 1.488 5.605l-.978.561-.026 1.127A48 48 0 0 1 16.35 16h-8.7c-.064-.796-.113-1.7-.137-2.707l-.026-1.127-.977-.561A3 3 0 0 1 8 6h.999l.6-.799A3 3 0 0 1 12 4c.98 0 1.85.468 2.401 1.201M7.861 18q.039.294.079.552c.101.668.507 1.045.955 1.14.776.165 1.815.308 3.09.308 1.276 0 2.32-.143 3.104-.308.46-.097.87-.482.972-1.155q.038-.252.077-.537z"/></svg>