<svg xmlns="http://www.w3.org/2000/svg" viewBox="0 0 24 24"><path fill-rule="evenodd" d="M11 1.194A.965.965 0 0 0 9.48.405L9.473.41C7.16 2.043 6.001 2.86 6.001 4s1.158 1.957 3.473 3.591l.005.004a.965.965 0 0 0 1.522-.789c0-.496-.24-.754-.615-1.02A74 74 0 0 1 9.289 5h2.712c.642 0 1.291.028 1.929.076 2.75.204 3.264.318 3.97 1.024s.82 1.22 1.025 3.971c.048.637.076 1.287.076 1.929s-.028 1.292-.076 1.929c-.204 2.75-.318 3.265-1.024 3.97-.707.707-1.221.82-3.971 1.025A26 26 0 0 1 12 19c-.642 0-1.29-.028-1.928-.076-2.75-.204-3.265-.318-3.971-1.024s-.84-1.22-1.044-3.971a28 28 0 0 1-.055-.93A1.034 1.034 0 0 0 3.981 12a.97.97 0 0 0-.98 1q.021.545.061 1.077c.195 2.616.312 3.924 1.625 5.237s2.62 1.41 5.237 1.605c.678.05 1.377.081 2.077.081s1.399-.03 2.077-.081c2.616-.195 3.924-.292 5.237-1.605s1.41-2.62 1.605-5.237C20.97 13.4 21 12.7 21 12s-.03-1.399-.08-2.077c-.195-2.616-.292-3.924-1.605-5.237s-2.621-1.41-5.237-1.605A28 28 0 0 0 12 3H9.289c.307-.226.668-.483 1.097-.786.375-.266.615-.524.615-1.02m-.642 9.164c-.256.255-.28.52-.329 1.047q-.028.29-.029.595 0 .305.03.595c.048.528.072.792.328 1.047.255.256.52.28 1.047.329q.29.028.595.029c.202 0 .403-.011.595-.03.528-.048.792-.072 1.047-.328.256-.255.28-.52.329-1.047q.028-.29.029-.595a6 6 0 0 0-.03-.594c-.048-.529-.072-.793-.328-1.048-.255-.256-.52-.28-1.047-.329A7 7 0 0 0 12 10a6 6 0 0 0-.594.03c-.529.048-.793.072-1.048.328"/></svg>