<svg xmlns="http://www.w3.org/2000/svg" viewBox="0 0 28 28"><path d="M17.5 16a1.5 1.5 0 1 1 0 3 1.5 1.5 0 0 1 0-3"/><path fill-rule="evenodd" d="M8 3.487c-1.16.25-2.049.682-2.94 1.573-1.604 1.604-1.723 3.203-1.96 6.4-.063.83-.1 1.685-.1 2.54 0 .854.037 1.71.1 2.538.237 3.198.356 4.797 1.96 6.401s3.204 1.724 6.402 1.962a34 34 0 0 0 2.539.099c.854 0 1.71-.037 2.538-.1 3.198-.237 4.797-.356 6.401-1.96s1.724-3.204 1.962-6.402C24.964 15.71 25 14.854 25 14s-.037-1.71-.1-2.538c-.237-3.198-.356-4.797-1.96-6.401-.891-.89-1.78-1.324-2.94-1.573V2a1 1 0 1 0-2 0v1.214c-.449-.04-.933-.077-1.462-.116A34 34 0 0 0 14 3c-.854 0-1.71.037-2.538.1-.529.038-1.013.074-1.461.115V2a1 1 0 0 0-2 0zM19 8a1 1 0 0 1-1-1V5.225a77 77 0 0 0-1.61-.132A32 32 0 0 0 14 4.999c-.797 0-1.602.035-2.39.094-.617.046-1.148.088-1.61.132V7a1 1 0 0 1-2 0V5.548c-.645.189-1.065.465-1.525.926C5.662 7.287 5.42 7.972 5.226 10h17.549c-.195-2.028-.436-2.713-1.249-3.526-.46-.46-.88-.737-1.526-.926V7a1 1 0 0 1-1 1M5.067 12A32 32 0 0 0 5 14c0 .797.035 1.602.094 2.39.248 3.332.383 4.137 1.38 5.135.999.998 1.804 1.134 5.136 1.381.788.06 1.593.094 2.39.094s1.603-.035 2.39-.094c3.333-.247 4.138-.383 5.136-1.38.998-.999 1.134-1.804 1.381-5.136.06-.788.094-1.593.094-2.39 0-.667-.024-1.338-.067-2z"/></svg>