<svg xmlns="http://www.w3.org/2000/svg" viewBox="0 0 32 32"><path fill-rule="evenodd" d="M22.5 4.525V3.251a1.25 1.25 0 1 0-2.5 0v.953c-.389-.032-.786-.063-1.227-.096A38 38 0 0 0 16.003 4c-.933 0-1.866.04-2.77.108-.432.032-.85.063-1.233.094v-.948a1.25 1.25 0 1 0-2.5 0V4.52c-1.294.27-2.264.743-3.25 1.728-1.75 1.75-1.88 3.495-2.139 6.983A38 38 0 0 0 4.003 16c0 .932.04 1.864.108 2.769.26 3.488.39 5.232 2.14 6.982s3.494 1.88 6.982 2.14c.904.067 1.837.108 2.77.108s1.865-.04 2.77-.108c3.488-.26 5.232-.39 6.982-2.14s1.88-3.494 2.14-6.982c.067-.904.108-1.837.108-2.77s-.04-1.865-.108-2.77c-.26-3.487-.39-5.231-2.14-6.982-.98-.98-1.973-1.451-3.255-1.723m-16 8.736c0-.69.56-1.25 1.25-1.25h16.5a1.25 1.25 0 0 1 0 2.5H7.75c-.69 0-1.25-.56-1.25-1.25M20 18.248a1.752 1.752 0 1 1 0 3.504 1.752 1.752 0 0 1 0-3.504"/></svg>