<svg xmlns="http://www.w3.org/2000/svg" viewBox="0 0 24 24"><path d="M15 13.75a1.25 1.25 0 1 1 0 2.5 1.25 1.25 0 0 1 0-2.5"/><path fill-rule="evenodd" d="M7 3.42c-.905.206-1.609.561-2.314 1.266-1.313 1.313-1.41 2.62-1.605 5.237C3.031 10.6 3 11.3 3 12s.03 1.399.081 2.077c.195 2.616.292 3.924 1.605 5.237s2.62 1.41 5.237 1.605C10.6 20.969 11.3 21 12 21s1.399-.03 2.077-.081c2.616-.195 3.924-.292 5.237-1.605s1.41-2.62 1.605-5.237C20.969 13.4 21 12.7 21 12s-.03-1.399-.081-2.077c-.195-2.616-.292-3.924-1.605-5.237-.705-.705-1.408-1.06-2.314-1.267V2a1 1 0 1 0-2 0v1.152q-.433-.036-.923-.071A28 28 0 0 0 12 3c-.7 0-1.399.03-2.077.081q-.49.036-.923.071V2a1 1 0 0 0-2 0zM16 7a1 1 0 0 1-1-1v-.838a72 72 0 0 0-1.071-.086A26 26 0 0 0 12 5c-.642 0-1.292.028-1.929.076Q9.47 5.12 9 5.162V6a1 1 0 0 1-2 0v-.503c-.37.137-.62.323-.9.603-.603.603-.774 1.066-.938 2.9h13.676c-.164-1.834-.335-2.297-.938-2.9-.28-.28-.53-.466-.9-.603V6a1 1 0 0 1-1 1M5.021 11a24 24 0 0 0 .055 2.929c.204 2.75.318 3.265 1.024 3.97.706.707 1.22.82 3.971 1.025.637.048 1.287.076 1.929.076s1.292-.028 1.929-.076c2.75-.204 3.265-.318 3.97-1.024.707-.706.82-1.22 1.025-3.971A24 24 0 0 0 18.978 11z"/></svg>