<svg xmlns="http://www.w3.org/2000/svg" viewBox="0 0 32 32"><path d="M20 18.25a1.75 1.75 0 1 1 0 3.501 1.75 1.75 0 0 1 0-3.501"/><path fill-rule="evenodd" d="M22.5 3.251v1.274c1.282.272 2.273.744 3.252 1.723 1.75 1.75 1.88 3.494 2.14 6.982.067.905.108 1.837.108 2.77s-.04 1.865-.108 2.77c-.26 3.488-.39 5.232-2.14 6.982s-3.494 1.88-6.982 2.14c-.905.067-1.837.108-2.77.108s-1.865-.04-2.77-.108c-3.488-.26-5.232-.39-6.982-2.14s-1.88-3.494-2.14-6.982A38 38 0 0 1 4 16c0-.933.04-1.865.108-2.77.26-3.488.39-5.232 2.14-6.982.985-.985 1.958-1.457 3.252-1.728V3.254a1.25 1.25 0 1 1 2.5 0v.948c.382-.032.798-.062 1.23-.094A38 38 0 0 1 16 4c.933 0 1.865.04 2.77.108.44.033.84.064 1.23.096v-.953a1.25 1.25 0 1 1 2.5 0m-13 3.845v1.669a1.25 1.25 0 1 0 2.5 0V6.714c.415-.037.89-.074 1.416-.113A35 35 0 0 1 16 6.5c.861 0 1.731.038 2.584.101.535.04.995.077 1.416.115V8.75a1.25 1.25 0 0 0 2.5 0V7.103c.63.193 1.04.468 1.484.913.85.85 1.082 1.512 1.302 3.984H6.714c.22-2.472.452-3.135 1.302-3.984.45-.45.84-.727 1.484-.92M25.465 14.5H6.535A33 33 0 0 0 6.5 16c0 .861.038 1.731.101 2.584.272 3.656.423 4.408 1.415 5.4s1.744 1.143 5.4 1.415c.853.063 1.723.101 2.584.101s1.731-.038 2.584-.101c3.656-.272 4.408-.423 5.4-1.415s1.143-1.744 1.415-5.4a33 33 0 0 0 .066-4.084"/></svg>