<svg xmlns="http://www.w3.org/2000/svg" viewBox="0 0 16 16"><path fill-rule="evenodd" d="M10.004 1.75v.351l-.616-.047A19 19 0 0 0 8.003 2c-.466 0-.933.02-1.385.054q-.326.023-.614.047v-.346a.75.75 0 0 0-1.5 0v.566a2.93 2.93 0 0 0-1.377.803c-.875.875-.94 1.747-1.07 3.491-.034.452-.054.919-.054 1.385s.02.933.054 1.385c.13 1.744.195 2.616 1.07 3.491s1.747.94 3.491 1.07c.452.034.919.054 1.385.054s.933-.02 1.385-.054c1.744-.13 2.616-.195 3.491-1.07s.94-1.747 1.07-3.491c.034-.452.054-.919.054-1.385s-.02-.933-.054-1.385c-.13-1.744-.195-2.616-1.07-3.491a2.93 2.93 0 0 0-1.375-.803v-.57a.75.75 0 0 0-1.5 0M4.25 5.97a.75.75 0 0 0 0 1.5l7.5.03a.75.75 0 0 0 0-1.5zM10 11a1 1 0 1 0 0-2 1 1 0 0 0 0 2"/></svg>