<svg xmlns="http://www.w3.org/2000/svg" viewBox="0 0 16 16"><path fill-rule="evenodd" d="M3 3.5a2.5 2.5 0 1 0 5 0 2.5 2.5 0 0 0-5 0m1.5 0a1 1 0 1 0 2 0 1 1 0 0 0-2 0"/><path d="M10.5 5.4a.9.9 0 1 1 0-1.8.9.9 0 0 1 0 1.8"/><path fill-rule="evenodd" d="M1.994 9H1.75a.75.75 0 0 1 0-1.5h12.5a.75.75 0 0 1 0 1.5h-.244q-.01.195-.025.385c-.13 1.742-.196 2.613-1.07 3.488s-1.748.94-3.495 1.071a18 18 0 0 1-2.831 0c-1.747-.13-2.62-.196-3.495-1.071s-.94-1.746-1.07-3.488Q2.005 9.194 1.994 9m1.503 0 .018.273c.138 1.843.216 2.12.635 2.54s.698.497 2.547.635c.43.033.87.052 1.303.052.434 0 .873-.02 1.304-.052 1.848-.138 2.127-.216 2.546-.636s.497-.696.635-2.539L12.504 9z"/></svg>