<svg xmlns="http://www.w3.org/2000/svg" viewBox="0 0 24 24"><path fill-rule="evenodd" d="M5 5.5a3.5 3.5 0 1 0 7 0 3.5 3.5 0 0 0-7 0M8.5 7a1.5 1.5 0 1 1 0-3 1.5 1.5 0 0 1 0 3"/><path d="M14.75 7a1.25 1.25 0 1 0 2.5 0 1.25 1.25 0 0 0-2.5 0"/><path fill-rule="evenodd" d="M3 11a1 1 0 0 0-1 1c0 .552.467 1 1.02 1q.022.545.061 1.077c.195 2.616.292 3.924 1.605 5.237s2.62 1.41 5.237 1.605C10.6 20.969 11.3 21 12 21s1.399-.03 2.077-.081c2.616-.195 3.924-.292 5.237-1.605s1.41-2.62 1.605-5.237q.04-.532.061-1.077c.552 0 1.02-.448 1.02-1a1 1 0 0 0-1-1zm15.924 2.929q.035-.462.055-.929H5.02q.02.467.055.929c.204 2.75.318 3.265 1.024 3.97.706.707 1.22.82 3.971 1.025.637.048 1.287.076 1.929.076s1.292-.028 1.929-.076c2.75-.204 3.265-.318 3.97-1.024.707-.706.82-1.22 1.025-3.971"/></svg>