<svg xmlns="http://www.w3.org/2000/svg" viewBox="0 0 32 32"><path fill-rule="evenodd" d="M30.5 6v11.694c0 2.279-2.716 3.346-4.33 1.881l-.171-.155v.08a4 4 0 0 1-7.164 2.447l-5.338 1.904q.003.074.003.149a4 4 0 0 1-7.236 2.352c-.818.2-1.42.21-1.967-.046-1.002-.467-1.428-1.642-2.282-3.992l-.452-1.247c-.232-.637.22-1.24.652-1.814.351-.469.689-.918.627-1.351-.002-.89-.003-1.336.019-1.605.203-2.533 1.562-4.453 3.895-5.505.248-.111.567-.225 1.204-.452l3.378-1.205c1.142-.407 3.168.178 5.245.778 1.33.384 2.68.774 3.833.912.748.09 1.459.08 2.125.072 1.961-.028 3.526-.05 4.455 2.51C27.608 15.09 28 16.17 28 17.012V6zM8.8 12.694l3.34-1.19c.052-.003.256-.015.644.04 1.355.19 2.665.653 3.98 1.022l-7.69 2.741L7.168 13.4c.51-.318 1.07-.504 1.633-.705m-3.217 2.657q-.18.525-.23 1.145c-.01.132-.013.416-.011 1.288.067.97-.318 1.732-.54 2.114-.202.346-.477.71-.628.91l-.03.04.221.613c.451 1.241.708 1.933.95 2.395q.04.075.07.127.05-.008.115-.021a4 4 0 0 1 7.128-2.456L18 19.592V19.5a4 4 0 0 1 7.123-2.499c.14-.063.27-.129.355-.178l-.024-.119c-.11-.507-.357-1.202-.808-2.444-.21-.579-.383-.727-.4-.741-.023-.02-.04-.047-.28-.084-.696-.107-1.428-.03-2.132-.033a1 1 0 0 1-.143.062L9.17 17.927a1.25 1.25 0 0 1-1.304-.293zM9.5 25.5a1.5 1.5 0 1 0 0-3 1.5 1.5 0 0 0 0 3m14-6a1.5 1.5 0 1 1-3 0 1.5 1.5 0 0 1 3 0"/></svg>