<svg xmlns="http://www.w3.org/2000/svg" viewBox="0 0 44 44"><path fill-rule="evenodd" d="M42 24.662V9h-3v15.662a.333.333 0 0 1-.55.254l-.22-.19.001-.002c.65-1.36.062-2.971-1.111-6.193-1.087-2.982-2.807-3.5-4.958-3.536-.38-.006-.772 0-1.177.005-.917.013-1.896.12-2.926-.003-1.587-.19-3.447-.723-5.279-1.249l-.85-.243c-2.234-.633-4.353-1.17-5.797-.958q-.31.044-.576.14l-4.663 1.657c-.88.313-1.32.469-1.663.623-3.205 1.441-5.071 4.07-5.353 7.536-.03.37-.03.983-.027 2.209.084.594-.381 1.21-.866 1.853-.594.787-1.217 1.613-.899 2.488l.623 1.709c1.173 3.221 1.76 4.832 3.138 5.473.746.347 1.567.336 2.68.069a5.5 5.5 0 0 0 9.445-3.248l8.357-2.97a5.5 5.5 0 0 0 9.665-3.326l.496.428c2.162 1.864 5.51.325 5.51-2.526M9.65 17.994l2.395-.876 4.522-1.604c-.013.002-.009.004 0 0 .06-.007.361-.046 1.048.05.771.107 1.716.334 2.84.644.42.115.872.245 1.346.382 1.128.324 2.38.685 3.606.967l-12.799 4.68-3.762-3.763c.229-.204.5-.369.804-.48M33 26.5a2.5 2.5 0 1 1-5 0 2.5 2.5 0 0 1 5 0m-18 6a2.5 2.5 0 1 1-5 0 2.5 2.5 0 0 1 5 0"/></svg>