<svg xmlns="http://www.w3.org/2000/svg" viewBox="0 0 24 24"><path fill-rule="evenodd" d="M23 5v8.5c0 1.734-2.058 2.642-3.342 1.482l-.176-.16a3 3 0 0 1-5.194 1.705l-4.289 1.511a3 3 0 0 1-5.344 1.834c-.653.165-1.125.181-1.552-.016-.752-.346-1.072-1.218-1.713-2.96l-.34-.925c-.173-.473.17-.921.495-1.348.266-.348.521-.682.476-1.003 0-.67 0-1.004.016-1.207.158-1.87 1.174-3.285 2.916-4.064.19-.084.432-.17.918-.341l2.572-.906c.862-.304 2.39.127 3.956.57 1.003.282 2.022.57 2.89.671.565.066 1.101.058 1.603.05 1.48-.023 2.661-.041 3.359 1.857.426 1.16.71 1.935.749 2.54V5zm-9.495 9.683a3 3 0 0 1 5.413-1.957l.049-.025c-.083-.36-.263-.862-.594-1.761-.094-.258-.161-.412-.414-.521-.568-.085-1.174-.015-1.75-.021l-9.38 3.262a1 1 0 0 1-1.032-.233l-1.617-1.6a3.3 3.3 0 0 0-.149.754c-.007.09-.01.293-.01.949.052.77-.26 1.369-.432 1.659a7 7 0 0 1-.455.65l.135.366c.34.926.535 1.44.71 1.77L4 17.971a3 3 0 0 1 5.357-1.827zm-8.014-4.37a4 4 0 0 1 .279-.138c.095-.043.24-.096.766-.28l2.542-.893s.174-.009.449.029c.4.054.899.172 1.512.338.22.06.462.128.717.2l.414.117-5.41 1.88zM7 19a1 1 0 1 0 0-2 1 1 0 0 0 0 2m10.499-4.5a1 1 0 1 1-2 0 1 1 0 0 1 2 0"/></svg>