<svg xmlns="http://www.w3.org/2000/svg" viewBox="0 0 32 32"><g fill-rule="evenodd" clip-rule="evenodd"><path d="M30.5 17.694V6H28v11.708l-.002.004a.1.1 0 0 1-.039.027.1.1 0 0 1-.063.01l-.016-.004a2.1 2.1 0 0 0 .12-.732c0-.843-.392-1.923-1.004-3.607-.58-1.599-1.41-2.093-2.429-2.304-.792-.165-1.7-.1-2.694-.102-.467 0-.954-.016-1.457-.077-1.264-.152-2.767-.704-4.22-1.122-1.176-.338-2.32-.652-3.277-.76a4.6 4.6 0 0 0-1.165-.007q-.225.034-.416.101L7.96 10.34c-.637.227-.956.34-1.204.452-2.333 1.052-3.692 2.973-3.895 5.505-.022.269-.02.714-.019 1.605.062.433-.276.882-.627 1.35-.431.575-.884 1.178-.652 1.815l.452 1.247c.854 2.35 1.28 3.525 2.282 3.992.547.255 1.149.245 1.967.046a4 4 0 0 0 7.233-2.502l5.338-1.903a4 4 0 0 0 7.163-2.528l.172.156c1.614 1.465 4.33.398 4.33-1.881m-18.345-6.19-2.066.73-2.56.944c-.223.082-.414.21-.567.371l2.218 2.218 8.217-3.027c-.566-.151-1.12-.312-1.634-.46-1.277-.37-2.246-.634-2.979-.737-.388-.054-.577-.043-.629-.04M23.5 19.5a1.5 1.5 0 1 1-3 0 1.5 1.5 0 0 1 3 0m-14 6a1.5 1.5 0 1 0 0-3 1.5 1.5 0 0 0 0 3"/><path d="M28 17.013c0 .263-.038.504-.12.732l.016.004c.014.002.038 0 .063-.01a.1.1 0 0 0 .04-.027v-.006l.001-.012z"/></g></svg>