<svg xmlns="http://www.w3.org/2000/svg" viewBox="0 0 24 24"><path d="M7 3a2.5 2.5 0 0 0-.842.146c-.676.242-1.23.944-2.337 2.348-.208.265-.404.502-.586.724-.227.276-.433.527-.62.774A.9.9 0 0 0 2.5 7.4c-.02.501.358 1.036.869 1.095l.054.007h.002l.107-.001a.98.98 0 0 0 .717-.355 26 26 0 0 1 1.142-1.412c.238-.301.437-.553.609-.766V19.5a1 1 0 1 0 2 0V5.967c.172.213.371.465.609.766A26 26 0 0 1 9.75 8.145a.98.98 0 0 0 .717.355l.107.001h.002l.054-.007c.511-.059.89-.594.87-1.095a.9.9 0 0 0-.116-.407 25 25 0 0 0-.62-.774c-.182-.222-.378-.46-.586-.724C9.072 4.09 8.52 3.388 7.842 3.146A2.5 2.5 0 0 0 7 3m10 18c-.285 0-.57-.049-.842-.146-.676-.242-1.23-.944-2.337-2.348a45 45 0 0 0-.586-.724 24 24 0 0 1-.62-.774.9.9 0 0 1-.115-.406c-.02-.503.358-1.037.869-1.097l.054-.006h.002l.107.001a.98.98 0 0 1 .717.355 26 26 0 0 0 1.142 1.412c.238.301.437.553.609.766V4.5a1 1 0 1 1 2 0v13.533c.172-.213.371-.465.609-.766a26 26 0 0 0 1.142-1.412.98.98 0 0 1 .717-.355l.107-.001h.002l.054.006c.511.06.89.594.87 1.097a.9.9 0 0 1-.116.406c-.187.247-.393.498-.62.774-.182.222-.378.46-.586.724-1.107 1.404-1.66 2.106-2.337 2.348A2.5 2.5 0 0 1 17 21"/></svg>