<svg xmlns="http://www.w3.org/2000/svg" viewBox="0 0 16 16"><path d="M7.847 4.605a.7.7 0 0 1 .153.43c.002.369-.31.696-.759.696a.86.86 0 0 1-.681-.34c-.172-.226-.382-.487-.622-.795l-.188-.24v8.394a.75.75 0 0 1-1.5 0V4.356l-.187.24c-.241.308-.45.569-.623.794a.86.86 0 0 1-.681.341c-.45 0-.761-.327-.759-.696 0-.142.048-.291.153-.43.206-.273.447-.581.722-.933.733-.938 1.105-1.407 1.553-1.57a1.67 1.67 0 0 1 1.144 0c.448.163.82.632 1.553 1.57.275.352.516.66.722.933m5.395 5.641c.45 0 .762.327.758.695a.7.7 0 0 1-.15.421c-.207.279-.451.595-.732.957-.727.94-1.092 1.411-1.536 1.577a1.67 1.67 0 0 1-1.169 0c-.444-.166-.804-.636-1.531-1.576q-.42-.543-.733-.958a.7.7 0 0 1-.149-.42c-.004-.37.309-.696.758-.696.272 0 .527.131.69.348a80 80 0 0 0 .802 1.047V3.25a.75.75 0 0 1 1.5 0v8.385l.18-.233c.244-.315.45-.58.622-.808a.87.87 0 0 1 .69-.348"/></svg>