<svg xmlns="http://www.w3.org/2000/svg" viewBox="0 0 32 32"><path fill-rule="evenodd" d="M23.68 3.417a1.35 1.35 0 0 1 .242 1.608L19.346 13.5h3.46c1.047 0 1.77 1.2 1.098 2.135a90 90 0 0 1-2.585 3.416l-8.557-8.557q.168-.183.334-.357c2.77-2.904 7.67-6.097 8.918-6.892a1.34 1.34 0 0 1 1.665.172M18.121 22.64l3.994 3.994a1.25 1.25 0 0 0 1.768-1.768L7.134 8.116a1.25 1.25 0 1 0-1.768 1.768l4.329 4.329a91 91 0 0 0-1.599 2.152c-.672.935.05 2.135 1.098 2.135h3.46L8.08 26.976a1.35 1.35 0 0 0 .242 1.607c.4.39 1.08.546 1.665.172 1.137-.724 5.308-3.44 8.136-6.115"/></svg>