<svg xmlns="http://www.w3.org/2000/svg" viewBox="0 0 16 16"><path fill-rule="evenodd" d="M11.466 1.441a.76.76 0 0 1 .228.845L10.071 6.75h.911a.761.761 0 0 1 .651 1.152 36 36 0 0 1-.948 1.473L6.421 5.11c.177-.22.354-.43.528-.618 1.468-1.594 3.356-2.922 3.598-3.09a.76.76 0 0 1 .919.04M8.88 11.691l2.09 2.09a.75.75 0 1 0 1.06-1.061L3.28 3.97a.75.75 0 0 0-1.06 1.06l2.5 2.5c-.195.306-.323.518-.353.568a.758.758 0 0 0 .65 1.152h.912l-1.623 4.464a.76.76 0 0 0 1.147.884c.233-.161 1.987-1.396 3.427-2.907"/></svg>