<svg xmlns="http://www.w3.org/2000/svg" viewBox="0 0 24 24"><path fill-rule="evenodd" d="M17.452 2.489c.34.295.508.826.26 1.321L14.619 10h2.188c.862 0 1.437.985.894 1.74a75 75 0 0 1-1.735 2.31L9.77 7.858q.259-.29.508-.55c1.811-1.885 4.83-4.157 5.802-4.873a1.094 1.094 0 0 1 1.371.055m-4.074 14.55 3.666 3.666a1 1 0 0 0 1.414-1.414L4.707 5.543a1 1 0 0 0-1.414 1.414l3.982 3.982a74 74 0 0 0-.975 1.32c-.543.756.032 1.74.894 1.74h2.188l-3.095 6.19a1.098 1.098 0 0 0 1.633 1.377c.911-.672 3.63-2.717 5.457-4.525"/></svg>