<svg xmlns="http://www.w3.org/2000/svg" viewBox="0 0 44 44"><path fill-rule="evenodd" d="M32.901 4.667a1.6 1.6 0 0 1 .225 1.888L26.075 19h6.212c1.243 0 2.176 1.498 1.227 2.626a275 275 0 0 1-4.321 5.01L17.26 14.658q.333-.358.654-.693c4.066-4.262 11.47-8.677 13.02-9.582.71-.414 1.511-.2 1.966.284M13.363 19.012a282 282 0 0 0-2.876 3.362c-.946 1.126-.022 2.622 1.22 2.627l6.222.024-7.053 12.418a1.6 1.6 0 0 0 .224 1.889 1.59 1.59 0 0 0 1.966.284c1.445-.844 7.973-4.735 12.146-8.71l6.625 6.653a1.5 1.5 0 1 0 2.126-2.118l-25.4-25.5a1.5 1.5 0 1 0-2.126 2.118z"/></svg>