<svg xmlns="http://www.w3.org/2000/svg" viewBox="0 0 24 24"><path d="M21.285 19.393c.38-.385.42-.854.5-1.79C21.893 16.325 22 14.45 22 12s-.107-4.326-.215-5.603c-.08-.937-.12-1.406-.5-1.791-.38-.386-.83-.432-1.729-.523A16 16 0 0 0 18 4c-.535 0-1.07.035-1.556.084-.9.091-1.35.137-1.729.523-.38.385-.42.854-.5 1.79A67 67 0 0 0 14 12.002c0 2.45.107 4.325.216 5.602.08.936.12 1.405.499 1.79.38.386.83.431 1.729.523.486.049 1.021.084 1.556.084s1.07-.035 1.556-.084c.9-.091 1.35-.137 1.73-.523M12.163 7H12c-.53 0-1.061.028-1.545.068-.914.074-1.372.112-1.76.496s-.431.842-.517 1.76A45 45 0 0 0 8 13.501c0 1.762.084 3.158.178 4.175.086.918.129 1.376.517 1.76s.845.422 1.76.496a17 17 0 0 0 2.252.052c-.373-.734-.43-1.502-.47-2.03l-.014-.181A69 69 0 0 1 12 12c0-2.059.074-3.73.163-5m-6.105 4H6c-.554 0-1.109.021-1.61.05-.898.053-1.348.08-1.747.46-.398.382-.441.798-.528 1.632A23 23 0 0 0 2 15.5c0 .936.05 1.724.115 2.358.087.833.13 1.25.528 1.63.399.381.848.408 1.748.46a25 25 0 0 0 2.27.041c-.355-.71-.417-1.445-.459-1.952l-.015-.176A47 47 0 0 1 6 13.5c0-.93.023-1.764.058-2.5"/></svg>