<svg xmlns="http://www.w3.org/2000/svg" viewBox="0 0 16 16"><path fill-rule="evenodd" d="M9.543 4.585c.057-.62.085-.93.34-1.185.255-.256.56-.284 1.168-.342.356-.033.752-.058 1.149-.058s.793.025 1.15.058c.608.058.912.086 1.167.342.255.255.283.565.34 1.185C14.931 5.38 15 6.523 15 8s-.07 2.62-.143 3.416c-.057.62-.085.93-.34 1.185s-.56.284-1.168.341c-.356.034-.753.059-1.15.059s-.792-.025-1.148-.059c-.426-.04-.702-.066-.918-.165-.225.119-.513.14-.977.176C8.798 12.98 8.399 13 8 13s-.798-.02-1.155-.047c-.407-.03-.678-.051-.89-.136-.222.108-.495.123-.93.147-.376.02-.8.036-1.225.036s-.85-.016-1.225-.036c-.587-.032-.881-.048-1.148-.3-.266-.251-.295-.515-.354-1.042A12 12 0 0 1 1 10.25c0-.54.03-.998.073-1.373.059-.526.088-.79.354-1.041.267-.252.56-.268 1.148-.3.375-.02.8-.036 1.225-.036a23 23 0 0 1 1.437.048q.033-.585.078-1.027c.06-.598.091-.897.351-1.15.26-.254.566-.277 1.178-.324A16 16 0 0 1 8 5c.399 0 .798.02 1.156.047q.191.014.346.029.02-.265.04-.491m1.649-.033c.323-.03.67-.052 1.008-.052s.685.021 1.008.052l.14.013.015.157c.07.75.137 1.848.137 3.278a36 36 0 0 1-.151 3.435l-.14.014c-.324.03-.672.052-1.01.052-.336 0-.684-.021-1.007-.052l-.14-.014-.016-.157A37 37 0 0 1 10.9 8a36 36 0 0 1 .151-3.435zM8 6.5c-.351 0-.71.018-1.042.043l-.138.01-.012.118A23 23 0 0 0 6.7 9c0 .981.05 1.76.108 2.329l.012.118.138.01c.331.025.69.043 1.042.043.351 0 .71-.018 1.042-.043l.138-.01.012-.118a23 23 0 0 0 .108-2.33c0-.98-.05-1.76-.108-2.328l-.012-.118-.138-.01A14 14 0 0 0 8 6.5M3.8 9c-.39 0-.786.014-1.143.034l-.093.005v.005c-.037.321-.064.724-.064 1.206s.027.885.063 1.206l.094.01c.357.02.753.034 1.143.034s.786-.014 1.143-.034l.093-.005v-.005c.037-.321.064-.724.064-1.206 0-.483-.027-.885-.063-1.206v-.005l-.094-.005C4.586 9.014 4.19 9 3.8 9"/></svg>