<svg xmlns="http://www.w3.org/2000/svg" viewBox="0 0 16 16"><path fill-rule="evenodd" d="M9.883 3.4c-.255.255-.283.565-.34 1.185q-.021.226-.041.49-.155-.014-.346-.028A16 16 0 0 0 8 5c-.399 0-.798.02-1.156.047-.612.047-.918.07-1.178.324-.26.253-.29.552-.35 1.15A25 25 0 0 0 5.2 9c0 1.033.053 1.862.116 2.48.06.597.09.896.35 1.15s.566.276 1.179.323C7.202 12.98 7.6 13 8 13s.798-.02 1.156-.047c.464-.035.752-.057.977-.176.216.099.492.125.918.165.356.034.752.059 1.149.059.396 0 .793-.025 1.15-.059.608-.057.912-.086 1.167-.341.255-.256.283-.565.34-1.185C14.931 10.62 15 9.476 15 8c0-1.477-.07-2.62-.143-3.415-.057-.62-.085-.93-.34-1.185-.255-.256-.56-.284-1.168-.342A12 12 0 0 0 12.2 3c-.396 0-.792.025-1.148.058-.609.058-.913.086-1.168.342M12.2 4.5c-.337 0-.685.021-1.008.052l-.14.013-.016.157C10.967 5.472 10.9 6.57 10.9 8s.067 2.527.136 3.278l.015.157.14.014c.324.03.672.052 1.009.052s.685-.021 1.008-.052l.14-.014.015-.157c.07-.75.137-1.848.137-3.278a36 36 0 0 0-.151-3.435l-.14-.013c-.324-.03-.672-.052-1.01-.052M8 6.5c-.351 0-.71.018-1.042.043l-.138.01-.012.118A23 23 0 0 0 6.7 9c0 .981.05 1.76.108 2.329l.012.118.138.01c.331.025.69.043 1.042.043.351 0 .71-.018 1.042-.043l.138-.01.012-.118a23 23 0 0 0 .108-2.33c0-.98-.05-1.76-.108-2.328l-.012-.118-.138-.01A14 14 0 0 0 8 6.5"/><path d="M2.575 7.536c.357-.02.759-.035 1.163-.036a29 29 0 0 0 .096 4.243c.027.31.07.782.288 1.254Q3.96 13 3.8 13c-.425 0-.85-.016-1.225-.036-.587-.032-.881-.048-1.148-.3s-.295-.515-.354-1.042A12 12 0 0 1 1 10.25c0-.54.03-.998.073-1.373.059-.526.088-.79.354-1.041.267-.252.56-.268 1.148-.3"/></svg>