<svg xmlns="http://www.w3.org/2000/svg" viewBox="0 0 16 16"><path d="M4 2.5A.75.75 0 0 0 4 4h8a.75.75 0 0 0 0-1.5zm-1.25 4a.75.75 0 0 0 0 1.5h2.5a.75.75 0 0 0 0-1.5zm.5 4.75A.75.75 0 0 1 4 10.5h2A.75.75 0 0 1 6 12H4a.75.75 0 0 1-.75-.75"/><path fill-rule="evenodd" d="M11.454 11.974c.449-.031.722-.05 1.034-.175l1.217 1.217a.75.75 0 0 0 1.06-1.06l-1.134-1.135q.024-.036.042-.07c.241-.442.261-.73.302-1.303a10 10 0 0 0 0-1.396c-.04-.574-.06-.86-.302-1.302-.16-.294-.63-.763-.923-.923-.442-.241-.729-.261-1.302-.301a10 10 0 0 0-1.397 0c-.573.04-.86.06-1.302.3-.293.16-.763.63-.923.924-.24.44-.26.727-.3 1.297v.005a10 10 0 0 0 0 1.397v.005c.04.57.06.856.3 1.297.16.294.63.763.923.923.441.24.727.26 1.297.3h.005a10 10 0 0 0 1.397 0zm.564-1.61h.002l.02-.015a3 3 0 0 0 .173-.129l.004-.003.003-.004a2 2 0 0 0 .128-.172l.015-.021v-.002h.002a.5.5 0 0 0 .064-.167c.017-.083.027-.192.05-.507a8.5 8.5 0 0 0-.05-1.695.5.5 0 0 0-.063-.164l-.029-.037a2 2 0 0 0-.322-.314.5.5 0 0 0-.164-.063 5 5 0 0 0-.508-.05 8.6 8.6 0 0 0-1.694.05.5.5 0 0 0-.164.063l-.037.029a2 2 0 0 0-.314.322.5.5 0 0 0-.063.163c-.017.082-.027.19-.049.504v.005a9 9 0 0 0 0 1.187v.005c.022.313.032.421.049.504a.5.5 0 0 0 .063.163l.028.037a2 2 0 0 0 .323.313.5.5 0 0 0 .162.063c.082.017.19.027.503.049h.006a8.5 8.5 0 0 0 1.188 0h.005a4 4 0 0 0 .504-.049.5.5 0 0 0 .163-.063z"/></svg>