<svg xmlns="http://www.w3.org/2000/svg" viewBox="0 0 16 16"><path d="M9.89 1.89c-.49-.34-1.057.03-1.057.625 0 .294.15.567.388.74.373.271.837.635 1.448 1.117l.492.39c-.957.005-2.61.02-3.046.052-1.744.13-2.616.195-3.491 1.07s-.94 1.747-1.07 3.491a20.4 20.4 0 0 0 .02 3.043c.03.383.35.676.735.676a.77.77 0 0 0 .758-.83 18.4 18.4 0 0 1-.017-2.777c.137-1.845.214-2.122.635-2.542.42-.42.697-.498 2.542-.635.391-.03 1.974-.043 2.91-.048q-.205.164-.468.37A50 50 0 0 1 9.221 7.75a.92.92 0 0 0-.388.74c0 .595.568.965 1.056.625.465-.323 1.02-.761 1.709-1.304 1.158-.914 1.737-1.37 1.864-1.955a1.7 1.7 0 0 0 0-.706c-.127-.585-.706-1.042-1.864-1.955-.69-.544-1.244-.981-1.709-1.305"/></svg>