<svg xmlns="http://www.w3.org/2000/svg" viewBox="0 0 44 44"><path fill-rule="evenodd" d="M33.3 26.561c-2.61.225-6.384.439-11.3.439-4.915 0-8.689-.214-11.3-.439-1.148-.098-1.632-.151-1.998-.253-.212-.058-.39-.133-.712-.424-.412-.372-.48-.529-.503-.58l-.002-.005c-.07-.16-.126-.378-.289-1.244C7.076 23.415 7 22.723 7 22s.076-1.415.196-2.055c.163-.866.22-1.085.29-1.244l.001-.004c.023-.052.09-.209.503-.581.321-.291.5-.366.712-.424.366-.102.85-.154 1.998-.253C13.31 17.214 17.085 17 22 17s8.69.214 11.3.439c1.148.099 1.632.151 1.998.253.212.058.39.133.712.424.412.372.48.529.502.58l.002.004c.07.16.127.378.29 1.243.12.64.196 1.333.196 2.057s-.076 1.416-.197 2.057c-.162.865-.219 1.084-.289 1.243l-.002.004c-.022.051-.09.208-.502.58-.322.291-.5.366-.712.424-.366.102-.85.154-1.998.253M22 30c5.003 0 8.863-.218 11.558-.45 2.116-.182 3.174-.273 4.464-1.44 1.291-1.168 1.437-1.945 1.73-3.499.15-.799.248-1.678.248-2.611s-.098-1.812-.248-2.611c-.293-1.554-.439-2.33-1.73-3.498s-2.348-1.259-4.464-1.441C30.863 14.218 27.003 14 22 14c-5.002 0-8.862.217-11.557.45-2.117.182-3.175.273-4.466 1.441s-1.437 1.945-1.73 3.5C4.098 20.19 4 21.068 4 22s.098 1.81.248 2.609c.292 1.554.438 2.332 1.729 3.5 1.29 1.168 2.349 1.26 4.466 1.441 2.695.232 6.555.45 11.557.45m-10.5-9.5a1.5 1.5 0 0 0 0 3h14a1.5 1.5 0 0 0 0-3zM34 22a2 2 0 1 1-4 0 2 2 0 0 1 4 0"/></svg>