<svg xmlns="http://www.w3.org/2000/svg" viewBox="0 0 24 24"><path fill-rule="evenodd" d="M18.296 16.258c-1.49.126-3.593.242-6.296.242s-4.805-.116-6.296-.242c-1.228-.104-1.841-.156-2.596-.847-.754-.691-.832-1.141-.988-2.041A8 8 0 0 1 2 12c0-.487.047-.947.12-1.37.156-.9.234-1.35.988-2.04.755-.692 1.368-.744 2.596-.848A75 75 0 0 1 12 7.5c2.703 0 4.806.116 6.296.242 1.227.104 1.841.156 2.595.847s.832 1.14.989 2.04c.073.423.12.884.12 1.371s-.047.948-.12 1.371c-.157.9-.235 1.349-.989 2.04-.754.69-1.367.743-2.595.847M15.5 12a1.25 1.25 0 1 1 2.5 0 1.25 1.25 0 0 1-2.5 0M6 12a1 1 0 0 1 1-1h5.5a1 1 0 1 1 0 2H7a1 1 0 0 1-1-1"/></svg>