<svg xmlns="http://www.w3.org/2000/svg" viewBox="0 0 16 16"><path fill-rule="evenodd" d="M12.253 11.326A48 48 0 0 1 8 11.5c-1.8 0-3.22-.082-4.252-.174-.921-.083-1.382-.124-1.934-.639s-.61-.873-.725-1.59A7 7 0 0 1 1 8c0-.39.035-.76.089-1.096.115-.718.173-1.076.725-1.591s1.012-.556 1.934-.639A48 48 0 0 1 8 4.5c1.8 0 3.22.082 4.253.174.92.083 1.38.124 1.933.639.552.514.61.873.725 1.59a6.8 6.8 0 0 1-.001 2.194c-.114.717-.172 1.076-.724 1.59-.552.515-1.013.556-1.934.639M10 8a1 1 0 1 1 2 0 1 1 0 0 1-2 0M3.75 8a.75.75 0 0 1 .75-.75H8a.75.75 0 0 1 0 1.5H4.5A.75.75 0 0 1 3.75 8"/></svg>