<svg xmlns="http://www.w3.org/2000/svg" viewBox="0 0 24 24"><path fill-rule="evenodd" d="M12 14.5a73 73 0 0 0 6.127-.235c.675-.057.924-.086 1.105-.136.076-.022.145-.043.308-.193.123-.113.18-.181.206-.214a.2.2 0 0 0 .025-.04 1 1 0 0 0 .045-.156c.027-.118.052-.259.093-.497A6 6 0 0 0 20 12c0-.36-.035-.705-.091-1.029a10 10 0 0 0-.093-.497 1 1 0 0 0-.045-.155v-.001a.2.2 0 0 0-.025-.04 2 2 0 0 0-.206-.214c-.163-.15-.232-.17-.308-.192-.18-.05-.43-.08-1.105-.137A73 73 0 0 0 12 9.5c-2.646 0-4.692.113-6.127.235-.674.057-.924.086-1.105.137-.077.021-.145.042-.308.192-.123.113-.18.181-.206.214a.2.2 0 0 0-.025.04 1 1 0 0 0-.045.157 10 10 0 0 0-.093.497A6 6 0 0 0 4 12c0 .359.035.704.09 1.028.042.239.067.38.094.497.024.106.04.145.045.156v.001a.2.2 0 0 0 .025.04c.025.033.083.101.206.214.163.15.231.17.308.193.18.05.43.079 1.105.136 1.436.122 3.482.235 6.127.235m6.296 1.758c-1.49.126-3.593.242-6.296.242s-4.805-.116-6.296-.242c-1.228-.104-1.841-.156-2.596-.847-.754-.691-.832-1.141-.988-2.041A8 8 0 0 1 2 12c0-.487.047-.947.12-1.37.156-.9.234-1.35.988-2.04.755-.692 1.368-.744 2.596-.848A75 75 0 0 1 12 7.5c2.703 0 4.806.116 6.296.242 1.227.104 1.841.156 2.595.847s.832 1.14.989 2.04c.073.423.12.884.12 1.371s-.047.948-.12 1.371c-.157.9-.235 1.349-.989 2.04-.754.69-1.367.743-2.595.847M6 12a1 1 0 0 1 1-1h5.5a1 1 0 1 1 0 2H7a1 1 0 0 1-1-1m10.75-1.25a1.25 1.25 0 1 0 0 2.5 1.25 1.25 0 0 0 0-2.5"/></svg>