<svg xmlns="http://www.w3.org/2000/svg" viewBox="0 0 32 32"><path fill-rule="evenodd" d="M16 10c-3.155 0-5.706.115-7.64.255-2.067.15-3.1.224-4.16 1.311-1.06 1.088-1.1 1.943-1.181 3.654a17 17 0 0 0 0 1.56c.08 1.71.12 2.566 1.18 3.653s2.094 1.163 4.16 1.312c1.935.14 4.486.255 7.641.255s5.704-.115 7.64-.255c2.066-.15 3.1-.224 4.16-1.312 1.06-1.087 1.101-1.943 1.182-3.655a17 17 0 0 0 0-1.556c-.08-1.712-.121-2.568-1.181-3.655-1.06-1.088-2.094-1.163-4.162-1.312C21.704 10.115 19.155 10 16 10m-8 6c0-.69.56-1.25 1.25-1.25h7.5a1.25 1.25 0 1 1 0 2.5h-7.5C8.56 17.25 8 16.69 8 16m14.25 1.5a1.75 1.75 0 1 0 0-3.5 1.75 1.75 0 0 0 0 3.5"/></svg>