<svg xmlns="http://www.w3.org/2000/svg" viewBox="0 0 16 16"><path fill-rule="evenodd" d="M3.75 8a.75.75 0 0 1 .75-.75H8a.75.75 0 0 1 0 1.5H4.5A.75.75 0 0 1 3.75 8M11 7a1 1 0 1 0 0 2 1 1 0 0 0 0-2"/><path fill-rule="evenodd" d="M14.186 10.687c.552-.514.61-.873.725-1.59A7 7 0 0 0 15 8c0-.39-.035-.76-.09-1.097-.114-.717-.172-1.076-.724-1.59-.552-.515-1.012-.556-1.933-.639A48 48 0 0 0 8 4.5c-1.8 0-3.22.081-4.252.174-.922.083-1.382.124-1.934.639s-.61.873-.725 1.59A7 7 0 0 0 1 8c0 .39.035.76.089 1.096.115.718.173 1.076.725 1.591s1.013.556 1.934.639C4.78 11.418 6.2 11.5 8 11.5s3.22-.082 4.252-.174c.921-.083 1.382-.124 1.934-.639M13.5 8c0 .302-.027.59-.07.86a10 10 0 0 1-.07.404 1 1 0 0 1-.04.145.1.1 0 0 1-.02.034 1 1 0 0 1-.137.147.7.7 0 0 1-.129.101.4.4 0 0 1-.086.035 2 2 0 0 1-.276.05c-.146.019-.315.034-.554.056A46 46 0 0 1 8 10c-1.755 0-3.13-.08-4.118-.168a15 15 0 0 1-.554-.056 2 2 0 0 1-.276-.05.4.4 0 0 1-.086-.035.7.7 0 0 1-.13-.1 1 1 0 0 1-.137-.148.1.1 0 0 1-.02-.034 1 1 0 0 1-.038-.145 9 9 0 0 1-.071-.405A5.4 5.4 0 0 1 2.5 8c0-.302.027-.59.07-.859.03-.189.05-.306.07-.405a1 1 0 0 1 .04-.145.1.1 0 0 1 .02-.034 1 1 0 0 1 .137-.147.7.7 0 0 1 .129-.101.4.4 0 0 1 .086-.035 2 2 0 0 1 .276-.05c.146-.019.315-.034.554-.056A46 46 0 0 1 8 6c1.755 0 3.13.08 4.118.168.239.022.409.037.554.056.142.018.224.036.276.05a.4.4 0 0 1 .086.035 1.1 1.1 0 0 1 .267.248.1.1 0 0 1 .02.034c.005.015.019.054.038.145.021.098.04.216.07.405.044.268.071.557.071.859"/></svg>