<svg xmlns="http://www.w3.org/2000/svg" viewBox="0 0 16 16"><path d="m9.166 8.03-.02.017a31 31 0 0 1-1.65 1.543.9.9 0 0 1-.457.229.2.2 0 0 1-.084-.002.1.1 0 0 1-.027-.016 2 2 0 0 1-.232-.233c-.013-.015-.015-.022-.016-.027a.2.2 0 0 1-.002-.084A.9.9 0 0 1 6.907 9 31 31 0 0 1 8.45 7.35q.253-.255.485-.478a.766.766 0 0 0 .017-1.091.736.736 0 0 0-1.032-.016q-.255.244-.53.522a33 33 0 0 0-1.616 1.73c-.634.735-.847 1.785-.219 2.526a3.5 3.5 0 0 0 .404.404c.739.63 1.787.416 2.52-.22.39-.337.874-.77 1.426-1.31a39 39 0 0 0 1.643-1.743c1.215-1.38 1.49-3.392.206-4.709l-.12-.121c-1.315-1.286-3.324-1.011-4.7.207A40 40 0 0 0 5.17 4.715l-.058.057-.075.074q-.67.673-1.199 1.263c-1.69 1.877-1.846 4.628-.08 6.435l.195.197c1.113 1.09 2.584 1.448 3.987 1.165a.752.752 0 0 0-.381-1.453 2.9 2.9 0 0 1-2.644-.873l-.086-.087C3.704 10.34 3.705 8.5 4.952 7.115A32 32 0 0 1 6.097 5.91l.08-.08.025-.023q.027-.023.049-.05a37 37 0 0 1 1.674-1.578c.996-.881 2.086-.82 2.66-.259l.095.096c.56.575.622 1.667-.258 2.664q-.529.605-1.256 1.351"/><path d="M15.001 12a.75.75 0 0 1-.75.75h-1.5v1.5a.75.75 0 0 1-1.5 0v-1.5H9.749a.75.75 0 0 1 0-1.5h1.502V9.749a.75.75 0 0 1 1.5 0v1.501h1.5a.75.75 0 0 1 .75.75"/></svg>