<svg xmlns="http://www.w3.org/2000/svg" viewBox="0 0 24 24"><path d="M9.45 8.465a57 57 0 0 1 2.53-2.386c1.56-1.378 3.349-1.342 4.334-.38l.148.149c.962.986.998 2.776-.378 4.336a54 54 0 0 1-1.884 2.024.4.4 0 0 0-.045.038 47 47 0 0 1-2.488 2.329c-.292.253-.598.375-.82.402-.189.023-.282-.02-.358-.085a3.3 3.3 0 0 1-.377-.377c-.065-.076-.108-.17-.085-.36.027-.22.15-.527.402-.82a47 47 0 0 1 2.327-2.49q.487-.486.924-.903a1.02 1.02 0 0 0 .025-1.455.984.984 0 0 0-1.376-.024q-.468.445-.989.966a49 49 0 0 0-2.425 2.596c-.953 1.102-1.272 2.677-.329 3.787a5.3 5.3 0 0 0 .606.607c1.11.944 2.684.624 3.785-.329a47 47 0 0 0 2.141-1.966 59 59 0 0 0 2.466-2.614c1.826-2.069 2.238-5.087.31-7.062l-.18-.182c-1.975-1.929-4.99-1.516-7.059.31a58 58 0 0 0-2.599 2.45l-.247.245c-.67.67-1.268 1.304-1.8 1.893-2.538 2.816-2.773 6.942-.121 9.652l.294.295c1.673 1.638 3.885 2.176 5.994 1.749l.067-.014a1 1 0 0 0-.462-1.947c-1.522.304-3.065-.11-4.198-1.22l-.265-.264c-1.796-1.836-1.769-4.75.178-6.909a49 49 0 0 1 1.88-1.968z"/><path d="M22.001 18a1 1 0 0 1-1 1h-2v2a1 1 0 1 1-2 0v-2h-2a1 1 0 1 1 0-2h2v-2a1 1 0 1 1 2 0v2h2a1 1 0 0 1 1 1"/></svg>