<svg xmlns="http://www.w3.org/2000/svg" viewBox="0 0 24 24"><path d="M5.293 4.295C5.923 3.665 7 4.11 7 5.002a1 1 0 0 1-.293.707l-.876.876q-.23.23-.41.415H18.58q-.18-.184-.41-.415l-.876-.876A1 1 0 0 1 17 5.002c0-.89 1.077-1.337 1.707-.707l2.29 2.29c.666.666 1 1 1 1.414s-.334.747-1 1.414l-2.29 2.29c-.63.63-1.707.184-1.707-.707a1 1 0 0 1 .293-.707l.875-.876q.231-.23.408-.413H5.423q.178.184.408.413l.876.876a1 1 0 0 1 .293.707c0 .89-1.077 1.337-1.707.707l-2.29-2.29c-.667-.667-1-1-1-1.414s.333-.748 1-1.414z"/><path fill-rule="evenodd" d="M12 13c-3.136 0-5.464.121-6.966.236-1.307.1-2.557.78-2.879 2.051A5 5 0 0 0 2 16.5c0 .436.062.845.155 1.213.322 1.27 1.572 1.951 2.88 2.051 1.5.115 3.829.236 6.965.236s5.464-.121 6.965-.236c1.308-.1 2.559-.781 2.88-2.052.093-.368.155-.777.155-1.212s-.062-.844-.155-1.211c-.321-1.272-1.572-1.953-2.88-2.053C17.464 13.12 15.135 13 12 13"/></svg>