<svg xmlns="http://www.w3.org/2000/svg" viewBox="0 0 16 16"><path fill-rule="evenodd" d="M6.01 1.175C4.63 1.444 3.7 2.727 3.602 4.13 3.543 5.007 3.5 6.248 3.5 8s.043 2.993.103 3.871c.096 1.402 1.027 2.685 2.406 2.954C6.544 14.929 7.201 15 8 15s1.456-.071 1.99-.175c1.38-.269 2.31-1.552 2.407-2.954.06-.878.103-2.119.103-3.871s-.043-2.993-.103-3.871c-.096-1.402-1.027-2.685-2.406-2.954A10.4 10.4 0 0 0 8 1c-.8 0-1.456.071-1.99.175M5 8c0 1.73.042 2.935.1 3.768.06.872.618 1.472 1.196 1.585A9 9 0 0 0 8 13.5a9 9 0 0 0 1.704-.147c.578-.113 1.137-.713 1.196-1.585.058-.833.1-2.037.1-3.768s-.042-2.935-.1-3.768c-.06-.872-.618-1.472-1.196-1.585l-.056-.01a.322.322 0 0 0-.377.3.335.335 0 0 1-.334.313H7.063a.335.335 0 0 1-.334-.312.322.322 0 0 0-.377-.301l-.056.01C5.718 2.76 5.16 3.36 5.1 4.232 5.042 5.065 5 6.269 5 8"/></svg>