<svg xmlns="http://www.w3.org/2000/svg" viewBox="0 0 32 32"><path fill-rule="evenodd" d="M10.722 22.164A81 81 0 0 1 10.5 16c0-2.435.094-4.49.222-6.163.104-1.362.167-2.05.31-2.574.101-.372.235-.628.595-.975.388-.374.64-.488.95-.564q.095-.024.199-.043a.47.47 0 0 1 .53.34l.08.266a1 1 0 0 0 .958.713h3.312a1 1 0 0 0 .958-.713l.08-.267a.47.47 0 0 1 .53-.34q.104.02.2.044c.308.076.561.19.949.564.36.347.493.603.595.975.143.523.206 1.211.31 2.574A81 81 0 0 1 21.5 16c0 2.436-.094 4.492-.222 6.164-.104 1.362-.167 2.05-.31 2.573-.101.372-.235.628-.595.975-.388.374-.64.487-.95.564-.46.114-1.06.15-2.326.201a27 27 0 0 1-2.194 0c-1.266-.051-1.865-.087-2.327-.201-.309-.077-.561-.19-.949-.564-.36-.348-.494-.603-.595-.975-.143-.523-.206-1.21-.31-2.573m6.474-19.14c2.363.096 3.544.144 4.913 1.465 1.368 1.32 1.466 2.6 1.662 5.157.133 1.735.229 3.855.229 6.354s-.096 4.62-.23 6.355c-.195 2.557-.293 3.835-1.661 5.156s-2.55 1.368-4.91 1.464a30 30 0 0 1-2.398 0c-2.36-.096-3.541-.144-4.91-1.464-1.368-1.32-1.466-2.599-1.662-5.156A84 84 0 0 1 8 16c0-2.5.096-4.619.229-6.354.196-2.558.294-3.837 1.662-5.157 1.369-1.32 2.55-1.369 4.913-1.465a30 30 0 0 1 2.392 0"/></svg>