<svg xmlns="http://www.w3.org/2000/svg" viewBox="0 0 16 16"><path fill-rule="evenodd" d="M2.054 6.612c.13-1.742.195-2.613 1.07-3.488.873-.874 1.744-.939 3.486-1.069.454-.033.922-.054 1.39-.054s.935.02 1.388.054c1.742.13 2.613.195 3.487 1.07.874.874.94 1.745 1.07 3.487.033.453.054.921.054 1.389s-.02.935-.055 1.389c-.13 1.742-.195 2.613-1.069 3.487s-1.745.94-3.487 1.07a18 18 0 0 1-2.777-.002c-1.742-.13-2.613-.195-3.487-1.069s-.939-1.745-1.069-3.487A19 19 0 0 1 2 8c0-.467.02-.935.054-1.388m5.101 1.645 3.592.246V7.496l-3.583.238 3.583-1.477V5.25L6.759 7.418 8.864 5.25H7.625l-1.37 1.976V5.25H5.247v5.5l1.008-.001V8.773l1.37 1.976h1.239L6.842 8.665l3.905 2.084V9.741z"/></svg>