<svg xmlns="http://www.w3.org/2000/svg" viewBox="0 0 24 24"><path d="M6.978 13.999a1 1 0 0 1 1-1h1a1 1 0 0 1 0 2h-1a1 1 0 0 1-1-1m8 1h1a1 1 0 1 0 0-2h-1a1 1 0 0 0 0 2"/><path fill-rule="evenodd" d="M19.855 9.415q.026.285.047.578l.846-.18a1 1 0 1 1 .416 1.956l-.576.123c.252.68.302 1.468.373 2.6q.017.262.017.506v4.5a1.5 1.5 0 1 1-3 0v-1.5h-12v1.5a1.5 1.5 0 1 1-3 0v-4.5q0-.245.017-.509c.072-1.13.122-1.918.374-2.598l-.577-.122a1 1 0 0 1 .416-1.957l.846.18q.021-.291.047-.578c.213-2.377.32-3.565 1.643-4.856s2.424-1.362 4.628-1.505a25 25 0 0 1 3.211 0c2.204.143 3.306.215 4.629 1.505 1.323 1.291 1.43 2.48 1.643 4.857m-9.353-4.367a23 23 0 0 1 2.951 0c1.17.076 1.767.124 2.244.255.362.1.677.256 1.118.687.421.41.594.731.713 1.145.153.527.221 1.195.332 2.43-.616-.15-1.356-.236-2.306-.345A32 32 0 0 0 11.98 9a32 32 0 0 0-3.578.222c-.95.109-1.69.194-2.306.345.111-1.236.18-1.905.332-2.43.12-.415.292-.735.714-1.146.44-.43.756-.587 1.117-.687.477-.13 1.075-.179 2.244-.255m-5.524 9.95v1h14v-1q0-.171-.013-.38c-.063-.996-.1-1.48-.197-1.852-.067-.259-.16-.456-.433-.744-.416-.437-.696-.549-3.01-.815a30 30 0 0 0-3.346-.209c-1.127 0-2.28.087-3.35.21-2.311.265-2.591.377-3.007.814-.273.288-.366.485-.433.743-.096.372-.135.856-.198 1.85q-.013.21-.013.383"/></svg>