<svg xmlns="http://www.w3.org/2000/svg" viewBox="0 0 16 16"><path fill-rule="evenodd" d="M9.057 1.01c.85.06 1.53.726 1.568 1.579.03.66.062 1.61.038 2.34a29 29 0 0 1-.119 1.685q.193.02.317.036c.37.046.725.293.854.697.04.125.092.31.125.53.43.339.746.828.822 1.413.098.743.185 1.996-.153 3.082l-.01.035c-.212.678-.452 1.447-1.162 1.951-.696.495-1.704.643-3.146.643-1.414 0-2.39-.107-3.07-.591-.358-.255-.586-.576-.761-.91-.135-.257-.258-.56-.382-.866l-.082-.201a10.5 10.5 0 0 1-.605-2.126c-.184-1.04.266-2.008 1.05-2.603l-.02-.08a31 31 0 0 1-.435-1.886 33 33 0 0 1-.316-2.31c-.092-.845.482-1.586 1.316-1.751.85-.168 1.728.31 2.026 1.13l.151.423c.056-.302.112-.592.162-.841a1.74 1.74 0 0 1 1.832-1.38m-.893 5.5c.295-.012.59-.01.864-.003.05-.531.099-1.13.114-1.605.022-.668-.008-1.57-.037-2.225a.185.185 0 0 0-.178-.173.195.195 0 0 0-.209.152 39 39 0 0 0-.38 2.183 32 32 0 0 0-.174 1.671M6.175 5.36l.413 1.399c-.287.086-.574.183-.85.284-.127-.506-.26-1.07-.344-1.521a32 32 0 0 1-.3-2.197.176.176 0 0 1 .148-.19.2.2 0 0 1 .226.123c.224.617.52 1.463.707 2.102m5.032 4.634q-.09.087-.193.169c-.624.487-1.42.582-1.954.59a6 6 0 0 1-.705-.036l-.938.574a.766.766 0 0 1-1.047-.242.744.744 0 0 1 .245-1.032l1.176-.72.257-.157.293.06h.007a2 2 0 0 0 .181.027c.13.015.31.03.508.026.43-.006.809-.09 1.033-.266.19-.148.264-.334.281-.557.01-.113.001-.226-.014-.33a18 18 0 0 0-1.274-.09c-.713-.025-1.4.005-1.84.128-.55.154-1.127.367-1.633.573-.587.24-.899.79-.801 1.338s.256 1.188.516 1.821l.096.236c.123.3.21.518.308.703.11.21.202.314.3.384.233.166.724.308 2.182.308 1.432 0 1.991-.17 2.258-.36.242-.171.365-.434.607-1.21.185-.593.197-1.317.151-1.937"/></svg>