<svg xmlns="http://www.w3.org/2000/svg" viewBox="0 0 16 16"><path fill-rule="evenodd" d="M8.97 1.003c.536.044.96.486.984 1.04.03.724.063 1.786.042 2.584-.01.34-.032.728-.059 1.115-.792-.084-1.816-.07-3.11.159-.746.13-1.463.407-2.02.665-.083-.397-.161-.8-.219-1.15a42 42 0 0 1-.306-2.571c-.051-.551.31-1.05.836-1.168a1.06 1.06 0 0 1 1.244.723 50 50 0 0 1 .954 3.34c.031-.387.074-.845.13-1.317a50 50 0 0 1 .388-2.527 1.07 1.07 0 0 1 1.136-.893M4.586 8.38a2.35 2.35 0 0 0-.802 2.196 10.5 10.5 0 0 0 .65 2.28c.12.308.232.593.354.834.155.305.342.575.627.785.553.409 1.385.526 2.771.526 1.4 0 2.271-.155 2.844-.578.585-.431.787-1.094 1.002-1.81.305-1.015.229-2.212.136-2.95a2 2 0 0 0-.051-.254c-.193.28-.457.552-.812.795-.557.38-1.284.593-1.81.712a10 10 0 0 1-.695.13l-.06.01-.797.69a.727.727 0 0 1-1.042-.09.77.77 0 0 1 .087-1.066l.965-.836.176-.152.228-.023h.002l.01-.001a4 4 0 0 0 .216-.03c.15-.022.357-.057.59-.11.486-.11.99-.276 1.31-.494.564-.386.635-.822.618-1.136-.007-.13-.098-.28-.303-.349-.565-.19-1.735-.415-3.723-.065-.655.115-1.325.386-1.848.642a10 10 0 0 0-.643.344"/></svg>