<svg xmlns="http://www.w3.org/2000/svg" viewBox="0 0 16 16"><path d="M5.303 4.756C6.03 3.96 6.98 3.5 8 3.5s1.969.46 2.696 1.256a.75.75 0 0 0 1.107-1.012C10.83 2.68 9.493 2 8 2c-1.495 0-2.831.68-3.804 1.744a.75.75 0 0 0 1.107 1.012"/><path fill-rule="evenodd" d="M14.94 4.045a.75.75 0 1 0-1.38-.59L11.543 8.17q-.223-.025-.496-.048A35 35 0 0 0 8 8c-1.251 0-2.269.055-3.048.122q-.272.023-.492.047L2.44 3.454a.75.75 0 0 0-1.38.592L3.1 8.804c-.434.45-.475.784-.552 1.417a6.4 6.4 0 0 0 0 1.558c.082.67.123 1.005.633 1.497s.93.529 1.77.602C5.732 13.945 6.75 14 8 14s2.267-.055 3.047-.122c.84-.073 1.261-.11 1.771-.602s.551-.828.633-1.498a6.4 6.4 0 0 0 0-1.556c-.077-.632-.118-.966-.55-1.415zm-4.584 7.854a.9.9 0 1 0 0-1.8.9.9 0 0 0 0 1.8"/><path d="M8 6.496c-.283 0-.54.11-.734.294a.75.75 0 0 1-1.033-1.088 2.56 2.56 0 0 1 3.533 0A.75.75 0 1 1 8.733 6.79 1.06 1.06 0 0 0 8 6.496"/></svg>