<svg xmlns="http://www.w3.org/2000/svg" viewBox="0 0 24 24"><path d="M7.692 6.721A6.2 6.2 0 0 1 11.999 5c1.681 0 3.2.658 4.308 1.721a1 1 0 0 0 1.385-1.442A8.2 8.2 0 0 0 11.999 3a8.2 8.2 0 0 0-5.692 2.279A1 1 0 1 0 7.692 6.72"/><path fill-rule="evenodd" d="M2.605 5.08a1 1 0 0 0-.525 1.314l2.886 6.733c-.724.72-.783 1.23-.9 2.23a10 10 0 0 0 0 2.285c.12 1.02.179 1.531.945 2.276.767.744 1.398.799 2.66.908 1.12.097 2.564.174 4.328.174s3.208-.077 4.327-.174c1.264-.11 1.895-.164 2.662-.909.766-.744.826-1.255.944-2.276a10 10 0 0 0 0-2.282c-.116-1-.175-1.511-.9-2.232l2.886-6.733a1 1 0 1 0-1.838-.788l-2.854 6.66c-.264-.037-.559-.062-.9-.092A50 50 0 0 0 12 12c-1.764 0-3.208.077-4.327.174-.341.03-.636.055-.9.091L3.918 5.606a1 1 0 0 0-1.313-.525m12.93 12.67a1.25 1.25 0 1 0 0-2.5 1.25 1.25 0 0 0 0 2.5"/><path d="M12 9c-.457 0-.895.22-1.22.625a1 1 0 0 1-1.561-1.25C9.877 7.553 10.866 7 11.999 7c1.134 0 2.123.553 2.781 1.375a1 1 0 0 1-1.561 1.25c-.325-.406-.764-.625-1.22-.625"/></svg>