<svg xmlns="http://www.w3.org/2000/svg" viewBox="0 0 24 24"><path d="M12 5a6.2 6.2 0 0 0-4.307 1.721A1 1 0 0 1 6.308 5.28 8.2 8.2 0 0 1 12 3c2.213 0 4.224.868 5.693 2.279a1 1 0 1 1-1.385 1.442A6.2 6.2 0 0 0 12 5m3.535 12.75a1.25 1.25 0 1 0 0-2.5 1.25 1.25 0 0 0 0 2.5"/><path d="M10.781 9.625c.325-.406.763-.625 1.22-.625.455 0 .894.22 1.219.625a1 1 0 0 0 1.561-1.25C14.123 7.553 13.134 7 12.001 7c-1.134 0-2.123.553-2.781 1.375a1 1 0 1 0 1.561 1.25"/><path fill-rule="evenodd" d="M2.606 5.08a1 1 0 0 0-.525 1.314l2.886 6.733c-.724.72-.783 1.23-.9 2.23a10 10 0 0 0 0 2.285c.12 1.02.179 1.531.945 2.276.767.744 1.398.799 2.66.908 1.12.097 2.564.174 4.328.174s3.208-.077 4.327-.174c1.263-.11 1.895-.164 2.662-.909.766-.744.826-1.255.944-2.276a10 10 0 0 0 0-2.282c-.116-1-.175-1.511-.9-2.232l2.886-6.733a1 1 0 1 0-1.838-.788l-2.854 6.66c-.264-.037-.559-.062-.9-.092A50 50 0 0 0 12 12c-1.764 0-3.208.077-4.327.174-.341.03-.636.055-.9.091L3.92 5.606a1 1 0 0 0-1.313-.525m5.24 13.753c1.06.092 2.447.166 4.153.166s3.092-.074 4.155-.166c.327-.029.558-.05.757-.075.192-.025.302-.049.37-.069a.5.5 0 0 0 .12-.049c.03-.019.093-.06.193-.158.12-.117.174-.187.197-.22a.2.2 0 0 0 .03-.058 1.2 1.2 0 0 0 .05-.215c.023-.142.044-.311.075-.58a8 8 0 0 0 0-1.82 12 12 0 0 0-.076-.58 1.3 1.3 0 0 0-.049-.215.2.2 0 0 0-.03-.057 1.5 1.5 0 0 0-.197-.22c-.1-.098-.162-.14-.193-.159a.5.5 0 0 0-.12-.05 2.5 2.5 0 0 0-.37-.068 19 19 0 0 0-.758-.075A48 48 0 0 0 12 14c-1.705 0-3.092.074-4.155.166-.327.029-.558.05-.757.075a2.5 2.5 0 0 0-.37.069.5.5 0 0 0-.119.049c-.031.019-.093.06-.194.158a1.5 1.5 0 0 0-.196.22.2.2 0 0 0-.03.058 1.3 1.3 0 0 0-.05.214 12 12 0 0 0-.075.58 8 8 0 0 0 0 1.822c.031.269.051.438.075.58.023.132.04.19.05.214.005.017.011.03.03.057.023.034.076.104.196.22.101.099.163.14.194.159.028.017.06.032.119.05.069.02.178.043.37.068.199.026.43.046.757.074"/></svg>