<svg xmlns="http://www.w3.org/2000/svg" viewBox="0 0 16 16"><path d="M3.123 3.124c.74-.74 1.477-.9 2.74-1.01a.744.744 0 0 1 .804.689.76.76 0 0 1-.692.809c-1.184.108-1.436.218-1.79.573-.42.419-.497.695-.635 2.538-.031.423-.05.853-.05 1.278s.019.855.05 1.277c.138 1.844.215 2.12.634 2.539s.696.496 2.539.634c.422.031.853.05 1.277.05.425 0 .855-.019 1.278-.05 1.843-.138 2.12-.215 2.538-.634.355-.355.465-.607.573-1.791a.76.76 0 0 1 .81-.692c.412.03.725.391.688.804-.11 1.263-.27 2-1.01 2.74-.874.874-1.745.939-3.488 1.069C8.936 13.98 8.468 14 8 14s-.935-.02-1.389-.054c-1.742-.13-2.613-.195-3.488-1.07-.874-.873-.939-1.745-1.069-3.487A19 19 0 0 1 2 8c0-.467.02-.935.054-1.388.13-1.743.195-2.614 1.07-3.488"/><path d="M14 7.243a.727.727 0 0 1-.735.75.78.78 0 0 1-.77-.75c-.04-.86-.142-1.701-.253-2.41l-4.314 4.31a.753.753 0 0 1-1.064-1.062l4.324-4.32a23 23 0 0 0-2.435-.256.78.78 0 0 1-.752-.77c0-.415.337-.752.752-.734 1.12.048 2.196.193 3.024.334.733.124 1.1.187 1.4.488.302.3.364.666.489 1.398.141.828.286 1.902.334 3.022"/></svg>