<svg xmlns="http://www.w3.org/2000/svg" viewBox="0 0 17 17"><path d="M4.835 12.208a6 6 0 0 1-.32.008c-.517 0-.943-.061-1.275-.14-.582-.136-.935-.66-.996-1.256a23 23 0 0 1-.12-2.322c0-.928.06-1.741.12-2.322.061-.595.415-1.12.997-1.256.331-.078.757-.14 1.274-.14q.166 0 .32.008zm1.593.702c1.096 1.276 1.814 1.924 2.478 1.958a2.15 2.15 0 0 0 1.54-.54c.71-.633.71-2.316.71-5.68v-.3c0-3.365 0-5.047-.71-5.68a2.15 2.15 0 0 0-1.54-.541c-.664.034-1.382.682-2.478 1.959zm8.445-7.579a1.055 1.055 0 0 0-1.062-1.082c-.598 0-1.082.485-1.063 1.082.049 1.613.179 3.193.253 4 .025.278.038.418.158.55s.22.15.42.188q.112.022.231.023.119-.001.232-.023c.2-.037.3-.056.42-.188s.133-.272.158-.55c.074-.807.204-2.387.253-4m.001 6.354a1.062 1.062 0 1 0-2.125 0 1.062 1.062 0 0 0 2.125 0"/></svg>