<svg xmlns="http://www.w3.org/2000/svg" viewBox="0 0 17 17"><path fill-rule="evenodd" d="M5.74 12.088a5.6 5.6 0 0 1-1.225.128c-.517 0-.943-.061-1.275-.14-.582-.136-.935-.66-.996-1.256a23 23 0 0 1-.12-2.322c0-.928.06-1.741.12-2.322.061-.595.415-1.12.997-1.256.331-.078.757-.14 1.274-.14.492 0 .9.056 1.224.128 1.501-1.822 2.373-2.74 3.167-2.781a2.15 2.15 0 0 1 1.54.54c.71.634.71 2.316.71 5.68v.3c0 3.365 0 5.047-.71 5.68-.421.376-.975.57-1.54.541-.794-.04-1.665-.958-3.166-2.78m2.824.782c-.42-.405-.939-1.007-1.648-1.87V5.995c.71-.863 1.228-1.465 1.648-1.87.281-.271.438-.372.496-.406a.54.54 0 0 1 .261.092c.023.064.098.285.15.824.08.826.081 1.995.081 3.713v.3c0 1.717-.001 2.886-.08 3.712-.053.54-.128.76-.151.824a.54.54 0 0 1-.261.092c-.058-.034-.215-.135-.496-.406M3.82 6.428a21 21 0 0 0-.102 2.07c0 .816.05 1.538.102 2.07.189.032.42.054.695.054s.507-.022.696-.054a22 22 0 0 0 .102-2.07 21 21 0 0 0-.102-2.07 4 4 0 0 0-.696-.054c-.274 0-.506.023-.695.054"/><path d="M14.873 5.331a1.055 1.055 0 0 0-1.062-1.082c-.598 0-1.082.485-1.063 1.082.049 1.613.179 3.193.253 4 .025.278.038.418.158.55s.22.15.42.188q.112.022.231.023.119-.001.232-.023c.2-.037.3-.056.42-.188s.133-.272.158-.55c.074-.807.204-2.387.253-4m.001 6.354a1.062 1.062 0 1 0-2.125 0 1.062 1.062 0 0 0 2.125 0"/></svg>