<svg xmlns="http://www.w3.org/2000/svg" viewBox="0 0 25 24"><path d="M9.054 17.948c1.777 2.024 2.894 3.038 3.92 3.047a3 3 0 0 0 1.981-.725C16 19.372 16 16.987 16 12.215v-.44c0-4.771 0-7.157-1.044-8.054a3 3 0 0 0-1.982-.725c-1.025.008-2.142 1.022-3.919 3.046zm-2-.964v-9.97A10 10 0 0 0 6.5 7c-.755 0-1.375.081-1.86.186-.85.182-1.383.928-1.476 1.792A28 28 0 0 0 3 11.999c0 1.196.08 2.25.164 3.022.093.863.627 1.61 1.475 1.792a9 9 0 0 0 1.86.186q.292 0 .555-.015m13.944-9.456A1.49 1.49 0 0 0 19.5 6c-.843 0-1.526.685-1.499 1.528.07 2.17.249 4.29.353 5.397.037.396.056.595.228.782.172.186.315.212.602.263q.156.028.316.03.161-.001.316-.03c.287-.051.43-.077.602-.263.172-.187.19-.385.228-.782a92 92 0 0 0 .353-5.397M21 16.5a1.5 1.5 0 1 0-3 0 1.5 1.5 0 0 0 3 0"/></svg>