<svg xmlns="http://www.w3.org/2000/svg" viewBox="0 0 16 16"><path fill-rule="evenodd" d="M6.722 3.551c.423-.031.853-.05 1.277-.05.425 0 .855.019 1.277.05 1.844.138 2.12.215 2.539.634s.496.695.634 2.539c.031.422.05.852.05 1.277s-.019.855-.05 1.277c-.138 1.843-.215 2.12-.634 2.539s-.695.496-2.539.633c-.422.032-.852.05-1.277.05s-.854-.018-1.277-.05c-1.843-.137-2.12-.214-2.538-.633-.42-.42-.497-.696-.634-2.539a17 17 0 0 1-.05-1.277c0-.425.018-.855.05-1.277.137-1.844.214-2.12.634-2.539.419-.42.695-.496 2.538-.634M2.054 6.612c.13-1.742.195-2.613 1.07-3.488.873-.874 1.744-.939 3.486-1.069.454-.033.922-.054 1.39-.054s.935.02 1.388.054c1.742.13 2.613.195 3.487 1.07.874.874.94 1.745 1.07 3.487.033.453.054.921.054 1.389s-.02.935-.055 1.389c-.13 1.742-.195 2.613-1.069 3.487s-1.745.94-3.487 1.07a18 18 0 0 1-2.777-.002c-1.742-.13-2.613-.195-3.487-1.069s-.939-1.745-1.069-3.487A19 19 0 0 1 2 8c0-.467.02-.935.054-1.388M8 10.998c-1.106 0-2-.87-2-1.948v-.802h4v.802c0 1.077-.894 1.948-2 1.948M9.212 5.84l.464-.464.176-.176-.353-.354-.177.177-.562.562a1.97 1.97 0 0 0-1.52 0l-.564-.562-.177-.177-.353.354.176.176.464.464C6.31 6.195 6 6.75 6 7.38v.279h4V7.38c0-.63-.31-1.186-.787-1.54m-2.356.984c0 .153.129.278.286.278a.283.283 0 0 0 .286-.278.283.283 0 0 0-.286-.278.283.283 0 0 0-.286.278m1.714 0c0 .153.129.278.286.278a.283.283 0 0 0 .286-.278.283.283 0 0 0-.286-.278.283.283 0 0 0-.286.278"/></svg>