<svg xmlns="http://www.w3.org/2000/svg" viewBox="0 0 44 44"><path fill-rule="evenodd" d="M9.04 9.04c-2.428 2.429-2.592 4.82-2.92 9.6A49 49 0 0 0 6 22c0 1.13.045 2.26.12 3.36.328 4.781.492 7.172 2.92 9.6s4.819 2.592 9.6 2.92c1.1.075 2.23.12 3.36.12s2.26-.045 3.36-.12c4.781-.328 7.172-.492 9.6-2.92s2.592-4.819 2.92-9.6c.075-1.1.12-2.23.12-3.36s-.045-2.26-.12-3.36c-.328-4.78-.492-7.171-2.92-9.6s-4.819-2.592-9.6-2.92A49 49 0 0 0 22 6c-1.13 0-2.26.045-3.36.12-4.781.328-7.171.492-9.6 2.92m17.013 7.162 1.154-1.128.707-.692L26.5 13l-.707.691-1.48 1.447a6.04 6.04 0 0 0-4.624.002l-1.482-1.449L17.5 13l-1.414 1.382.707.692 1.154 1.128C16.754 17.242 16 18.728 16 20.391v.816h12v-.816c0-1.663-.754-3.15-1.947-4.189M22 31c-3.317 0-6-2.554-6-5.713V23.18h12v2.107C28 28.446 25.317 31 22 31m-3.429-12.241c0 .448.386.816.857.816.472 0 .858-.368.858-.816 0-.45-.386-.817-.858-.817-.47 0-.857.368-.857.817m5.143 0c0 .448.386.816.857.816.472 0 .857-.368.857-.816 0-.45-.385-.817-.857-.817-.471 0-.857.368-.857.817"/></svg>