<svg xmlns="http://www.w3.org/2000/svg" viewBox="0 0 16 16"><path fill-rule="evenodd" d="M3.123 3.124C2.25 4 2.184 4.87 2.054 6.612 2.02 7.065 2 7.533 2 8s.02.935.054 1.389c.13 1.742.195 2.613 1.07 3.487.873.874 1.744.94 3.486 1.07.454.033.922.054 1.39.054s.935-.02 1.388-.055c1.742-.13 2.613-.195 3.487-1.069s.94-1.745 1.07-3.487c.033-.454.054-.921.054-1.39 0-.467-.02-.935-.055-1.388-.13-1.742-.195-2.613-1.069-3.488-.874-.874-1.745-.939-3.487-1.069A19 19 0 0 0 8 2.001c-.467 0-.935.02-1.389.054-1.742.13-2.613.195-3.487 1.07M6 9.05c0 1.077.894 1.948 2 1.948s2-.87 2-1.948v-.802H6zm3.675-3.674-.463.463c.477.355.788.911.788 1.542v.278H6V7.38c0-.63.31-1.185.786-1.54l-.465-.465-.176-.176.353-.354.177.177.564.563a1.97 1.97 0 0 1 1.52-.001l.562-.562.177-.177.353.354zM7.142 7.102a.283.283 0 0 1-.286-.278c0-.153.129-.278.286-.278s.286.125.286.278a.283.283 0 0 1-.286.278m1.714 0a.283.283 0 0 1-.286-.278c0-.153.129-.278.286-.278s.286.125.286.278a.283.283 0 0 1-.286.278"/></svg>