<svg xmlns="http://www.w3.org/2000/svg" viewBox="0 0 16 16"><path d="M4 6.75A.75.75 0 0 1 4.75 6h1a.75.75 0 0 1 0 1.5h-1A.75.75 0 0 1 4 6.75"/><path fill-rule="evenodd" d="M4.768 4.014c.07-.504.156-.81.467-1.149.38-.412.69-.477 1.31-.606C7.226 2.117 8.13 2 9.25 2s2.024.118 2.706.26c.62.128.93.193 1.309.605s.423.779.513 1.512C13.892 5.304 14 6.567 14 8s-.108 2.695-.222 3.623c-.09.733-.134 1.1-.513 1.512-.38.412-.69.476-1.309.606-.682.142-1.585.259-2.706.259-.896 0-1.653-.075-2.27-.178-.192.048-.41.076-.68.11a8.3 8.3 0 0 1-2.1 0c-.7-.089-1.05-.133-1.505-.601-.455-.469-.494-.865-.572-1.657A27 27 0 0 1 2 9c0-1.086.054-1.978.123-2.674.078-.792.117-1.189.572-1.657s.805-.512 1.506-.602q.27-.033.567-.053M9.25 3.5a11.8 11.8 0 0 1 2.754.306c.067.016.1.028.116.033a1 1 0 0 1 .067.072l.005.017c.009.03.022.086.04.195.018.113.034.246.057.436.108.881.211 2.081.211 3.441a29 29 0 0 1-.268 3.877 2 2 0 0 1-.045.211l-.026.031-.041.042a1 1 0 0 1-.116.033 11.8 11.8 0 0 1-2.754.306q-.527-.001-.977-.034c.048-.22.073-.475.104-.792q.03-.31.057-.675h2.316a.75.75 0 1 0 0-1.499H8.496Q8.5 9.258 8.5 9c0-1.086-.054-1.978-.123-2.674-.078-.792-.117-1.189-.572-1.657S7 4.157 6.299 4.067l-.021-.002a1 1 0 0 1 .035-.154l.026-.03.041-.042c.015-.005.049-.017.116-.034A11.8 11.8 0 0 1 9.25 3.5M3.667 6.006c-.017.12-.031.261-.052.468A26 26 0 0 0 3.5 9c0 1.037.052 1.88.115 2.527.02.206.035.347.052.467.016.115.03.172.038.202l.007.02.012.017q.011.015.047.052c.045.047.07.066.078.072a1 1 0 0 0 .141.032c.099.017.216.032.4.055a6.8 6.8 0 0 0 1.72 0c.184-.023.301-.038.4-.055a1 1 0 0 0 .14-.032.7.7 0 0 0 .126-.124l.012-.016v-.002l.007-.02c.009-.029.022-.086.038-.201.017-.12.031-.26.052-.467C6.948 10.88 7 10.037 7 9c0-1.036-.051-1.88-.115-2.526-.02-.207-.035-.348-.052-.468-.03-.222-.077-.352-.324-.395a10 10 0 0 0-.4-.056 6.8 6.8 0 0 0-1.719 0 10 10 0 0 0-.4.056c-.246.043-.292.173-.323.395"/></svg>