<svg xmlns="http://www.w3.org/2000/svg" viewBox="0 0 24 24"><path d="M14 3c1.637 0 2.959.173 3.961.384.919.192 1.378.289 1.946.908.567.62.633 1.167.765 2.263C20.839 7.947 21 9.845 21 12s-.16 4.053-.328 5.445c-.132 1.096-.198 1.643-.765 2.263-.568.619-1.027.716-1.946.908-1.002.21-2.324.384-3.961.384q-.14 0-.277-.002c.364-.455.619-.941.785-1.496.15-.498.216-1.032.264-1.502H17a1 1 0 1 0 0-2h-2.066c.04-.747.066-1.58.066-2.5 0-1.694-.086-3.097-.198-4.205l-.01-.091c-.05-.515-.113-1.134-.284-1.706a4.45 4.45 0 0 0-1.124-1.88c-.526-.54-1.087-.92-1.774-1.158-.552-.191-1.139-.266-1.598-.324l-.085-.011c-.473-.06-.988-.105-1.535-.12.449-.37.894-.463 1.647-.621C11.042 3.174 12.364 3 14 3"/><path fill-rule="evenodd" d="M13 13.5a40 40 0 0 1-.188 4.004c-.12 1.188-.18 1.782-.861 2.482s-1.213.768-2.278.905A13 13 0 0 1 8 21c-.6 0-1.163-.043-1.673-.109-1.065-.137-1.597-.205-2.278-.905s-.741-1.294-.861-2.482A40 40 0 0 1 3 13.5c0-1.626.083-2.962.188-4.004.12-1.188.18-1.783.861-2.483s1.214-.768 2.279-.904C6.838 6.043 7.4 6 8 6s1.162.043 1.672.109c1.065.136 1.598.205 2.279.904s.741 1.295.861 2.483A40 40 0 0 1 13 13.5M6 9a1 1 0 0 1 1-1h2a1 1 0 0 1 0 2H7a1 1 0 0 1-1-1"/></svg>