<svg xmlns="http://www.w3.org/2000/svg" viewBox="0 0 24 24"><path d="M6 10a1 1 0 0 1 1-1h2a1 1 0 0 1 0 2H7a1 1 0 0 1-1-1"/><path fill-rule="evenodd" d="M7.396 6.014c.104-.753.232-1.214.697-1.722.568-.62 1.027-.716 1.946-.908C11.042 3.174 12.364 3 14 3c1.637 0 2.959.173 3.961.384.919.192 1.378.289 1.946.908.567.62.633 1.167.765 2.263A46 46 0 0 1 21 12c0 2.156-.16 4.053-.328 5.445-.132 1.096-.198 1.643-.765 2.263-.568.619-1.027.716-1.946.908-1.002.21-2.324.384-3.961.384-1.318 0-2.431-.112-3.338-.266-.28.066-.6.107-.989.157A13 13 0 0 1 8 21c-.6 0-1.163-.043-1.673-.109-1.065-.137-1.597-.205-2.278-.905s-.741-1.294-.861-2.482A40 40 0 0 1 3 13.5c0-1.626.083-2.962.188-4.004.12-1.188.18-1.783.861-2.483s1.214-.768 2.279-.904q.503-.066 1.068-.095M17.55 18.66c-.871.183-2.056.341-3.55.341q-.76-.001-1.415-.05c.085-.275.133-.58.175-.95h3.239a1 1 0 1 0 0-2H12.93c.043-.738.07-1.572.07-2.5a40 40 0 0 0-.188-4.004c-.12-1.188-.18-1.783-.861-2.483s-1.214-.768-2.279-.904l-.263-.032c.022-.133.04-.213.056-.265a.3.3 0 0 1 .028-.074.5.5 0 0 1 .075-.095 1 1 0 0 1 .11-.106l.028-.014a2 2 0 0 1 .212-.064c.133-.034.291-.068.532-.118C11.321 5.158 12.506 5 14 5c1.495 0 2.679.158 3.55.341.24.05.399.084.532.118.127.032.185.053.212.064.018.008.022.01.026.014a1 1 0 0 1 .112.106c.053.059.07.088.075.095a.3.3 0 0 1 .028.074c.017.059.039.154.065.323A44 44 0 0 1 19 12a44 44 0 0 1-.4 5.865 3 3 0 0 1-.065.323.3.3 0 0 1-.029.074.6.6 0 0 1-.074.095 1 1 0 0 1-.111.106l-.027.014a2 2 0 0 1-.212.064c-.133.034-.291.067-.532.118m-6.728-1.355c.099-.977.178-2.246.178-3.804s-.08-2.827-.178-3.803a19 19 0 0 0-.08-.711 2.4 2.4 0 0 0-.066-.34.4.4 0 0 0-.037-.09 1 1 0 0 0-.121-.148 1 1 0 0 0-.161-.142.2.2 0 0 0-.056-.026 2 2 0 0 0-.262-.06 15 15 0 0 0-.622-.088A11 11 0 0 0 8 8c-.504 0-.981.036-1.417.092-.279.036-.464.06-.622.088-.15.026-.224.047-.262.06a.2.2 0 0 0-.056.026c-.019.013-.07.05-.16.142a1 1 0 0 0-.123.148.4.4 0 0 0-.036.09c-.018.06-.04.16-.066.34-.027.186-.05.403-.08.71A38 38 0 0 0 5 13.5c0 1.558.08 2.827.178 3.803.031.308.053.525.08.711.025.18.048.28.066.34a.4.4 0 0 0 .036.09 1 1 0 0 0 .122.147c.09.093.142.13.161.143.015.01.027.016.056.026.038.013.112.034.262.06.157.028.343.052.62.088.437.056.915.092 1.419.092s.982-.036 1.418-.092c.278-.036.464-.06.621-.088.15-.026.224-.047.262-.06a.2.2 0 0 0 .056-.026c.019-.013.07-.05.16-.143a1 1 0 0 0 .123-.147.4.4 0 0 0 .036-.09c.018-.06.04-.16.066-.34.027-.186.049-.402.08-.71"/></svg>