<svg xmlns="http://www.w3.org/2000/svg" viewBox="0 0 16 16"><path d="M7.335 3.334a2 2 0 1 1-4.002 0 2 2 0 0 1 4.002 0m1.331 3.642c-.222-.17-.553-.304-1.085-.304v-.004a49 49 0 0 0-4.141.193c-.908.083-1.523.14-2.072.39.057.927.166 1.472.955 2.276.883.9 1.57.949 2.945 1.047a41 41 0 0 0 4.23.066c0-1.026-.011-2.06-.29-2.844-.134-.377-.314-.644-.542-.82m5.012 2.551c-.825.84-1.479.939-2.68 1.028 0-.954-.006-2.221-.377-3.262a4 4 0 0 0-.257-.577c.825.035 1.557.087 2.196.145.907.083 1.523.14 2.072.39-.057.927-.166 1.472-.954 2.276M2.081 12.926C1.252 13.403 1 13.64 1 13.999s.252.597 1.081 1.074l.678.39c.607.35.976.542 1.247.537a.4.4 0 0 0 .204-.056c.257-.148.287-.494.29-1.194h7c.003.698.033 1.046.289 1.194q.094.055.205.056c.27.005.638-.189 1.241-.535l.685-.393C14.75 14.596 15 14.358 15 14s-.25-.597-1.08-1.073l-.685-.393c-.603-.346-.97-.539-1.24-.534a.4.4 0 0 0-.206.056c-.256.148-.286.495-.289 1.194h-7c-.003-.7-.033-1.046-.29-1.194A.4.4 0 0 0 4.006 12c-.27-.005-.64.186-1.247.535zM11 5.333A1.667 1.667 0 1 0 11 2a1.667 1.667 0 0 0 0 3.333"/></svg>