<svg xmlns="http://www.w3.org/2000/svg" viewBox="0 0 24 24"><path d="M11 5a3 3 0 1 1-6 .001 3 3 0 0 1 6 0m1.713 5.471c-.33-.247-.804-.44-1.524-.468-2.405.022-4.416.14-6.03.288-1.36.124-2.284.209-3.107.583.086 1.391.248 2.209 1.432 3.415 1.325 1.35 2.356 1.424 4.418 1.57 1.162.084 2.529.14 4.098.14q1.062 0 2-.031c0-1.539-.015-3.083-.44-4.252-.204-.562-.482-.971-.848-1.245m3.384 5.389-.096.007c0-1.436-.005-3.309-.56-4.834a5.5 5.5 0 0 0-.467-.982 69 69 0 0 1 3.867.24c1.361.124 2.285.209 3.108.583-.085 1.391-.248 2.209-1.432 3.415-1.325 1.35-2.356 1.424-4.42 1.571M22 21c0-.498-.558-.997-1.68-1.67l-.824-.495c-.858-.515-1.384-.83-1.772-.835a.6.6 0 0 0-.307.076c-.37.21-.413.905-.418 1.924H7c-.005-1.015-.047-1.715-.416-1.924A.6.6 0 0 0 6.29 18c-.388-.002-.915.314-1.78.833l-.823.494C2.57 19.998 2 20.502 2 21c0 .496.569 1.002 1.688 1.674l.822.493c.866.52 1.393.835 1.781.833a.6.6 0 0 0 .293-.076c.37-.21.412-.74.417-1.924H17c.005 1.019.047 1.714.417 1.924a.6.6 0 0 0 .307.076c.388-.005.914-.32 1.772-.835l.824-.495C21.442 21.997 22 21.497 22 21M16.5 8a2.5 2.5 0 1 0 0-5 2.5 2.5 0 0 0 0 5"/></svg>