<svg xmlns="http://www.w3.org/2000/svg" viewBox="0 0 16 16"><path fill-rule="evenodd" d="M6.16 3.15C6.614 3 6.975 3 7.698 3c1.223 0 2.266.057 3.125.137 1.264.117 1.896.175 2.674.97.777.797.832 1.389.941 2.573a14.4 14.4 0 0 1 0 2.64c-.11 1.185-.164 1.777-.941 2.573-.778.795-1.41.854-2.674.97-.86.08-1.902.137-3.125.137-.723 0-1.084 0-1.537-.15a3 3 0 0 1-.392-.161c-.43-.213-.761-.539-1.425-1.19L3.325 10.5l-.367-.379c-.972-1-1.458-1.5-1.458-2.12 0-.622.486-1.122 1.457-2.122l.369-.379 1.018-.999c.664-.65.996-.976 1.425-1.19a3 3 0 0 1 .391-.16m4.564 3.63a.766.766 0 0 0 0-1.06.714.714 0 0 0-1.03 0L8.588 6.856 7.485 5.72a.714.714 0 0 0-1.031 0 .766.766 0 0 0 0 1.06l1.104 1.137-1.104 1.136a.766.766 0 0 0 0 1.06.714.714 0 0 0 1.03 0L8.59 8.978l1.104 1.137a.714.714 0 0 0 1.03 0 .766.766 0 0 0 0-1.061L9.62 7.917z"/></svg>