<svg xmlns="http://www.w3.org/2000/svg" viewBox="0 0 24 24"><path fill-rule="evenodd" d="M12.694 5.796q.02.1.02.205a1 1 0 0 1-1.988.155C10.57 5.18 9.901 5 9 5c-.983 0-1.656.246-1.748 1.326A73 73 0 0 0 7.02 11H21a1 1 0 0 1 1 1c0 .552-.468 1-1.02 1q-.021.545-.061 1.077c-.195 2.616-.292 3.924-1.605 5.237s-2.62 1.41-5.237 1.605C13.4 20.969 12.7 21 12 21s-1.399-.03-2.077-.081c-2.616-.195-3.924-.292-5.237-1.605s-1.41-2.62-1.605-5.237A30 30 0 0 1 3.02 13C2.467 13 2 12.552 2 12a1 1 0 0 1 1-1h2.015c.042-2.072.145-3.687.243-4.843C5.438 4.04 7.034 3 9 3c1.822 0 3.362.856 3.695 2.796M5.02 13h13.96q-.02.467-.055.929c-.204 2.75-.318 3.265-1.024 3.97-.706.707-1.22.82-3.971 1.025-.637.048-1.287.076-1.929.076s-1.292-.028-1.929-.076c-2.75-.204-3.265-.318-3.97-1.024-.707-.706-.82-1.22-1.025-3.971A28 28 0 0 1 5.02 13"/></svg>