<svg xmlns="http://www.w3.org/2000/svg" viewBox="0 0 44 44"><path fill-rule="evenodd" d="M35.286 12c-2.214 2.222-3.975 2.372-7.296 2.656l-.493.042c-2.075.18-4.51.302-7.298.302H6.998v-.5a1.5 1.5 0 0 0-3 0v11a1.5 1.5 0 0 0 3 0V25h5.613c-1.017 1.134-1.613 2.513-1.613 4 0 3.866 4.03 7 9 7s9-3.134 9-7c0-1.352-.493-2.615-1.347-3.685l.34.03c3.32.283 5.081.433 7.295 2.655.795.797 1.334 1.474 1.712 2.2l.025.05.021.041a6 6 0 0 1 .292.69c.206.583.727 1.019 1.346 1.019.727 0 1.316-.59 1.316-1.316V9.317c0-.728-.59-1.317-1.317-1.317-.619 0-1.14.437-1.347 1.02a6 6 0 0 1-.336.777c-.378.728-.917 1.405-1.712 2.203M20.2 22a88 88 0 0 1 8.08.358c1.508.127 3.044.256 4.434.654 1.584.453 2.941 1.224 4.284 2.47V14.517c-1.343 1.248-2.7 2.019-4.285 2.472-1.39.398-2.925.527-4.433.654l-.524.045A88 88 0 0 1 20.2 18H7.089l-.023.366c-.045.676-.068 1.15-.068 1.827v.014c0 .477.01.604.036.967l.032.46.024.366zm-.202 3c-4.059 0-6 2.449-6 4s1.941 4 6 4 6-2.449 6-4-1.94-4-6-4"/></svg>