<svg xmlns="http://www.w3.org/2000/svg" viewBox="0 0 17 17"><path fill-rule="evenodd" d="M7.755 5.843h-5.1v-.261a.797.797 0 0 0-1.593 0v4.777a.797.797 0 1 0 1.594 0v-.266h2.016a2.4 2.4 0 0 0-.423 1.346c0 1.603 1.665 2.903 3.72 2.903 2.053 0 3.718-1.3 3.718-2.903 0-.415-.111-.81-.312-1.167 1.12.113 1.788.28 2.61 1.104.134.135.25.285.353.441q.103.159.187.32a5 5 0 0 1 .306.721c.085.241.3.422.556.422.3 0 .544-.244.544-.544V3.2c0-.3-.243-.544-.544-.544-.256 0-.471.18-.557.422l-.044.122a6 6 0 0 1-.261.598 4 4 0 0 1-.187.32 3 3 0 0 1-.354.442c-.959.962-1.708 1.028-3.214 1.159-.857.074-1.862.124-3.015.124m0 1.594H2.672l-.015.277v.031l-.001.01v.003c0 .228.006.509.017.741h5.082c1.199 0 2.25.052 3.153.13l.094.009c.673.058 1.39.12 2.052.324.468.144.884.35 1.284.63V6.344c-.4.28-.816.486-1.284.63-.662.204-1.379.266-2.052.324l-.094.008a36 36 0 0 1-3.153.13m.155 2.656h.161c1.486.042 2.023.975 2.023 1.346 0 .378-.562 1.31-2.126 1.31s-2.125-.932-2.125-1.31c0-.374.548-1.322 2.067-1.346"/></svg>