<svg xmlns="http://www.w3.org/2000/svg" viewBox="0 0 24 24"><path fill-rule="evenodd" d="M4 9h7c1.55 0 2.901-.068 4.054-.168 2.025-.175 3.038-.263 4.327-1.557.594-.596.931-1.123 1.138-1.708.115-.324.405-.567.75-.567.403 0 .731.328.731.732v11.537a.73.73 0 0 1-.731.731c-.344 0-.634-.242-.749-.567-.207-.585-.544-1.112-1.138-1.708-1.198-1.202-2.158-1.363-3.913-1.521.34.54.531 1.15.531 1.796 0 2.21-2.239 4-5 4s-5-1.79-5-4c0-.729.243-1.412.669-2H4a1 1 0 1 1-2 0V9a1 1 0 1 1 2 0m7 5c-2.096 0-3 1.289-3 2s.904 2 3 2 3-1.289 3-2-.904-2-3-2"/></svg>