<svg xmlns="http://www.w3.org/2000/svg" viewBox="0 0 44 44"><path fill-rule="evenodd" d="M7.347 25h-.349v.5a1.5 1.5 0 0 1-3 0v-9a1.5 1.5 0 0 1 3 0v.5H20.2a85 85 0 0 0 7.791-.344c3.322-.284 5.083-.434 7.296-2.656 1.07-1.073 1.677-1.927 2.05-2.98.206-.584.727-1.02 1.346-1.02.727 0 1.316.59 1.316 1.316v19.367c0 .727-.59 1.317-1.317 1.317-.619 0-1.14-.437-1.347-1.02-.372-1.053-.98-1.908-2.049-2.98-2.213-2.222-3.974-2.372-7.295-2.656l-.338-.029c.853 1.07 1.346 2.333 1.346 3.685 0 3.866-4.03 7-9 7s-9-3.134-9-7c0-1.487.596-2.866 1.613-4zm12.632 0c-4.046.008-5.981 2.451-5.981 4 0 1.551 1.941 4 6 4s6-2.449 6-4c0-1.549-1.935-3.992-5.98-4z"/></svg>