<svg xmlns="http://www.w3.org/2000/svg" viewBox="0 0 24 24"><path d="M11.683 10.123c-.213.195-.565.36-1.034.372q-.175.005-.358.005H8V8.449C8 8.2 8.2 8 8.448 8h2c1.006.012 1.554.671 1.554 1.368a.97.97 0 0 1-.32.755"/><path fill-rule="evenodd" d="M4.686 4.688C3.373 6 3.276 7.308 3.081 9.925c-.05.678-.081 1.377-.081 2.077s.03 1.399.081 2.077c.195 2.616.292 3.924 1.605 5.237s2.62 1.41 5.237 1.605c.61.045 1.238.075 1.867.08a2.5 2.5 0 0 1-.248-.406c-.367-.748-.431-1.527-.476-2.065l-.01-.114a16 16 0 0 1-.055-.856L11 17.516v-.044a5.9 5.9 0 0 1 1.599-3.953 3.24 3.24 0 0 1 1.615-.915 2.59 2.59 0 0 1 2.238-1.561Q17.177 11 18 11c1.203 0 2.2.078 2.986.179a30 30 0 0 0-.067-1.254c-.195-2.616-.292-3.924-1.605-5.237s-2.62-1.41-5.237-1.605A28 28 0 0 0 12 3.002c-.7 0-1.399.03-2.077.081-2.616.195-3.924.292-5.237 1.605M6 14V8.449A2.45 2.45 0 0 1 8.448 6h1.843l.18.001c1.944.022 3.531 1.423 3.531 3.367 0 1.822-1.48 3.08-3.302 3.127q-.2.005-.409.005H8V14a1 1 0 1 1-2 0"/><path fill-rule="evenodd" d="M16 13.637c0-.317.246-.58.563-.597Q17.236 13 18 13a21 21 0 0 1 3.028.203c.632.093.948.14 1.298.485s.4.662.502 1.295c.094.588.172 1.32.172 2.131s-.078 1.543-.172 2.131c-.069.43-.424.72-.851.752A1.22 1.22 0 0 1 20.787 21c-.587 0-1.077-.43-1.189-1h-3.196c-.111.57-.602 1-1.19 1-.587 0-1.077-.43-1.188-1h-.233a.5.5 0 0 1-.452-.283c-.198-.401-.235-.832-.29-1.472-.02-.237-.041-.486-.05-.745a3.9 3.9 0 0 1 1.048-2.6c.272-.287.664-.4 1.059-.4l.894-.001zm0 2.752c0 .613-.498 1.111-1.111 1.111h-.39c0-.703.306-1.198.572-1.499L16 16z"/></svg>