<svg xmlns="http://www.w3.org/2000/svg" viewBox="0 0 17 17"><path d="M8.499 3.719c-.45 0-.905.02-1.353.053-1.96.146-2.254.228-2.7.674s-.529.74-.675 2.7c-.033.448-.053.904-.053 1.353 0 .45.02.906.053 1.353.146 1.96.228 2.254.675 2.7.446.447.74.53 2.7.675q.416.03.837.045c.427.014.77.366.77.797 0 .439-.384.794-.823.796-.295-.01-.615-.027-.902-.049-1.853-.138-2.78-.207-3.71-1.136-.929-.93-.998-1.857-1.136-3.71a20 20 0 0 1-.057-1.47c0-.496.021-.991.057-1.472C2.32 5.176 2.39 4.25 3.32 3.32s1.856-.998 3.709-1.136c.48-.036.975-.058 1.47-.058.496 0 .992.022 1.472.058 1.853.138 2.78.207 3.709 1.136.93.93.999 1.857 1.137 3.71l.006.09c0 .44-.36.848-.8.848s-.796-.385-.796-.825c-.146-1.956-.228-2.25-.674-2.696s-.74-.528-2.7-.674A18 18 0 0 0 8.5 3.72"/><path fill-rule="evenodd" d="M8.038 4.78h-1.51A1.77 1.77 0 0 0 4.78 6.529v4.094a.797.797 0 1 0 1.593 0V9.56h1.618q.11 0 .216-.002c1.337-.026 2.412-.964 2.412-2.301 0-1.427-1.154-2.471-2.581-2.477m-.047 3.188H6.374v-1.42a.177.177 0 0 1 .174-.174h1.485c.645.004.993.428.993.884a.61.61 0 0 1-.196.474c-.129.12-.349.228-.655.234zm4.172 1.078a.4.4 0 0 0-.176.036.53.53 0 0 0-.301.48v.53h-.69c-.225 0-.451.052-.62.202-.31.276-.802.857-.815 1.88v.043q.01.276.031.528c.04.453.099.758.238 1.043.05.102.149.177.265.195a.956.956 0 0 0 1.907.004h2.024a.956.956 0 0 0 1.91-.043.62.62 0 0 0 .409-.49c.066-.417.121-.935.121-1.51s-.055-1.093-.122-1.51c-.071-.448-.107-.672-.355-.917-.248-.244-.472-.277-.92-.343a15 15 0 0 0-2.144-.144q-.398 0-.762.016m-1.15 2.109h.673v.275a.787.787 0 0 1-.787.787h-.276c0-.586.242-.905.39-1.062"/></svg>