<svg xmlns="http://www.w3.org/2000/svg" viewBox="0 0 44 44"><path d="M13.998 15.143c0-.632.512-1.144 1.143-1.144h3.365q.219 0 .432.004c1.94.032 3.06 1.306 3.06 2.696 0 1.122-.876 2.233-2.713 2.288q-.38.012-.78.012h-4.507z"/><path fill-rule="evenodd" d="M9.038 9.04c-2.428 2.428-2.592 4.818-2.92 9.598A49 49 0 0 0 5.998 22c0 1.13.045 2.26.12 3.36.328 4.781.492 7.172 2.92 9.6s4.819 2.592 9.6 2.92c1.05.072 2.125.116 3.202.12a3.8 3.8 0 0 1-.894-1.188c-.836-1.704-.9-3.76-.936-4.898v-.001l-.01-.297-.002-.058v-.217c.05-3.481 1.704-5.864 2.876-7.113 1.061-1.131 2.407-1.58 3.576-1.696a4.52 4.52 0 0 1 2.094-2.086 4.2 4.2 0 0 1 1.65-.395A52 52 0 0 1 32.446 20h.104c2.175.002 3.983.14 5.417.32a53 53 0 0 0-.09-1.68c-.327-4.781-.49-7.171-2.92-9.6-2.428-2.428-4.818-2.592-9.598-2.92A49 49 0 0 0 21.998 6c-1.13 0-2.26.045-3.36.12-4.781.328-7.171.492-9.6 2.92m1.96 6.103a4.143 4.143 0 0 1 4.143-4.144h3.365q.245 0 .483.004c3.295.056 6.009 2.4 6.009 5.696 0 3.09-2.535 5.194-5.623 5.287q-.423.012-.87.013h-4.507v3.5a1.5 1.5 0 1 1-3 0z"/><path fill-rule="evenodd" d="M32.45 22.999h.097c2.468.003 4.406.19 5.804.401 1.154.174 1.731.26 2.392.912.66.65.753 1.216.939 2.346.174 1.057.316 2.381.316 3.891 0 1.542-.148 2.932-.327 4.05-.134.835-.837 1.36-1.673 1.399-.017 1.09-.906 2.001-2 2.001s-1.982-.91-2-2l-7-.001c-.017 1.09-.906 2.001-2 2.001s-1.982-.91-2-1.999h-.497c-.377 0-.706-.187-.86-.505-.536-1.09-.588-2.501-.634-3.747l-.01-.25v-.116a7.55 7.55 0 0 1 2.065-5.103c.522-.556 1.278-.78 2.041-.78h1.894v-1a1.5 1.5 0 0 1 .85-1.352 1.2 1.2 0 0 1 .479-.1q1.011-.046 2.123-.048m-3.453 6.389a2.11 2.11 0 0 1-2.11 2.111h-1.39a5.05 5.05 0 0 1 1.351-3.47 1 1 0 0 1 .255-.03h1.894v1.388"/></svg>