<svg xmlns="http://www.w3.org/2000/svg" viewBox="0 0 44 44"><path d="M19.199 7.513a52 52 0 0 1 3.273 3.016 52 52 0 0 1 3.014 3.27 25 25 0 0 0 1.686-1.716C28.404 10.708 29.02 10.02 29 8.66l-.002-.09c-.055-1.358-.58-1.884-1.633-2.936-1.052-1.051-1.578-1.577-2.937-1.632L24.338 4c-1.36-.02-2.047.596-3.422 1.828a25 25 0 0 0-1.717 1.685m3.929 8.145.075.089c.517.615.896 1.067 1.139 1.55l-7.08 7.08c-.483-.243-.935-.622-1.551-1.14-.87-.73-1.915-1.67-3.097-2.852a49 49 0 0 1-2.854-3.097c-.97-1.156-1.456-1.734-1.464-3.025-.007-1.29.404-1.793 1.227-2.797a13.6 13.6 0 0 1 1.906-1.906c1.005-.823 1.507-1.234 2.798-1.226 1.29.008 1.869.493 3.025 1.463l.087.074a49 49 0 0 1 3.01 2.78 49 49 0 0 1 2.779 3.007m-12.636 6.849a52 52 0 0 1-3.016-3.273 25 25 0 0 0-1.65 1.682C4.596 22.287 3.982 22.973 4 24.33l.003.097c.056 1.357.582 1.883 1.634 2.935 1.051 1.052 1.577 1.578 2.933 1.634l.098.003c1.357.018 2.043-.597 3.414-1.827a25 25 0 0 0 1.683-1.652 52 52 0 0 1-3.273-3.014M39.559 8.44a1.5 1.5 0 0 0-2.122 0l-29 29a1.5 1.5 0 0 0 2.122 2.12l29-29a1.5 1.5 0 0 0 0-2.12M40 23.548a1.5 1.5 0 0 0-3-.095C36.768 30.825 30.824 36.768 23.45 37a1.5 1.5 0 1 0 .095 2.998c8.956-.282 16.17-7.497 16.454-16.452"/><path d="M32.497 23.592a1.5 1.5 0 0 0-2.994-.184 6.53 6.53 0 0 1-6.097 6.095 1.5 1.5 0 1 0 .184 2.994c4.777-.293 8.613-4.128 8.907-8.905"/></svg>