<svg xmlns="http://www.w3.org/2000/svg" viewBox="0 0 44 44"><path d="M26.662 8.337c.869.868 1.638 1.993 2.078 2.7.267.41.748.71 1.275.71a1.5 1.5 0 0 0 1.5-1.5 1.65 1.65 0 0 0-.223-.788c-.49-.787-1.404-2.14-2.508-3.243a13 13 0 0 0-.51-.484C26.996 4.583 26.357 4.01 25.028 4s-2.039.613-3.457 1.855c-.385.337-.773.696-1.147 1.07a24 24 0 0 0-1.07 1.146c-.252.288-.478.546-.679.786-1.061-.844-1.918-1.263-3.478-1.249-2.046.02-2.765.667-4.204 1.962a19 19 0 0 0-1.427 1.428C8.27 12.436 7.622 13.155 7.603 15.2c-.014 1.56.406 2.417 1.25 3.479-.24.2-.497.426-.784.677a24 24 0 0 0-1.146 1.07 24 24 0 0 0-1.07 1.147C4.611 22.99 3.99 23.7 3.998 25.03s.583 1.968 1.732 3.246q.234.26.484.51c1.104 1.105 2.47 2.027 3.257 2.516.215.118.51.215.773.215a1.5 1.5 0 0 0 .761-2.793c-.706-.44-1.802-1.19-2.67-2.06q-.188-.188-.375-.395a27 27 0 0 1-.674-.766c-.405-.49-.327-.586.08-1.087.19-.235.422-.5.743-.866.302-.344.615-.683.935-1.003s.658-.633 1.002-.934c.323-.283.567-.497.78-.674a58 58 0 0 0 4.4 4.28 1.5 1.5 0 0 0 1.907-2.317 53 53 0 0 1-2.594-2.43 52 52 0 0 1-2.511-2.686c-.795-.915-1.083-1.27-1.251-1.585-.086-.16-.179-.368-.173-.974.006-.674.106-.864.152-.95.118-.223.321-.475 1.039-1.272a16 16 0 0 1 1.207-1.206c.796-.718 1.049-.92 1.271-1.038.087-.047.277-.147.951-.153.606-.006.814.087.974.173.315.168.67.457 1.585 1.25a53 53 0 0 1 2.687 2.511 53 53 0 0 1 2.422 2.583 1.5 1.5 0 1 0 2.288-1.94 58 58 0 0 0-4.243-4.355c.177-.214.39-.459.674-.782.301-.344.615-.683.934-1.002.32-.32.659-.633 1.003-.935.366-.32.632-.552.866-.743.5-.407.598-.485 1.086-.08.204.169.435.375.767.674q.207.187.395.375m12.897.103a1.5 1.5 0 0 0-2.121 0l-29 29a1.5 1.5 0 0 0 2.12 2.12l29-29a1.5 1.5 0 0 0 0-2.12m-7.061 15.153a1.5 1.5 0 1 0-2.994-.185 6.53 6.53 0 0 1-6.097 6.095 1.5 1.5 0 1 0 .184 2.994c4.777-.293 8.613-4.128 8.907-8.904"/><path d="M40 23.548a1.5 1.5 0 0 0-3-.095C36.768 30.825 30.824 36.768 23.45 37a1.5 1.5 0 1 0 .096 2.998c8.955-.282 16.17-7.497 16.453-16.451"/></svg>