<svg xmlns="http://www.w3.org/2000/svg" viewBox="0 0 24 24"><path d="M15.943 6a1 1 0 0 1-.84-.458 7 7 0 0 0-.748-.9 15 15 0 0 0-.682-.61l-.122.094a18 18 0 0 0-1.012.91c-.172.171-.341.354-.505.54-.166.19-.285.326-.382.444a33 33 0 0 1 1.682 1.712 1 1 0 1 1-1.569 1.243 30 30 0 0 0-2.88-2.733c-.14-.11-.22-.16-.267-.185a.3.3 0 0 0-.093-.036A1.3 1.3 0 0 0 8.238 6a1.6 1.6 0 0 0-.318.026.2.2 0 0 0-.057.02 1.2 1.2 0 0 0-.18.129 12 12 0 0 0-1.106 1.047c-.19.211-.308.343-.402.46a1 1 0 0 0-.128.18.2.2 0 0 0-.02.058c-.01.041-.025.136-.027.317-.001.165.013.25.022.287a.3.3 0 0 0 .035.094c.025.047.075.126.185.266.116.147.258.31.468.553a30 30 0 0 0 2.278 2.338.998.998 0 0 1-.611 1.792 1 1 0 0 1-.66-.245 32 32 0 0 1-1.7-1.668c-.116.096-.251.214-.439.379q-.283.246-.541.504-.257.26-.504.541c-.18.206-.304.348-.405.472l-.095.121.048.06a15 15 0 0 0 .562.623c.277.277.62.55.938.775.248.182.419.484.419.814a1 1 0 0 1-1.618.787 9 9 0 0 1-1.153-.962 8 8 0 0 1-.269-.284c-.638-.71-.957-1.064-.962-1.803s.34-1.133 1.03-1.92c.188-.214.387-.43.595-.638s.424-.407.637-.595q.236-.208.434-.374c-.471-.591-.705-1.067-.697-1.936.01-1.136.37-1.535 1.09-2.334a11 11 0 0 1 .794-.794c.8-.72 1.199-1.08 2.335-1.09.869-.008 1.345.226 1.936.696q.167-.199.377-.437a13 13 0 0 1 1.232-1.232c.789-.69 1.183-1.035 1.921-1.03.739.004 1.094.324 1.803.962q.146.13.284.269c.383.382.735.833 1 1.208.101.156.174.365.174.564a1 1 0 0 1-1 1m5.764-1.707a1 1 0 0 0-1.414 0l-16 16a1 1 0 1 0 1.414 1.414l16-16a1 1 0 0 0 0-1.414M18 13a1 1 0 1 0-2 0 3 3 0 0 1-3 3 1 1 0 0 0 0 2 5 5 0 0 0 5-5"/><path d="M20 13a7 7 0 0 1-7 7 1 1 0 0 0 0 2 9 9 0 0 0 9-9 1 1 0 1 0-2 0"/></svg>