<svg xmlns="http://www.w3.org/2000/svg" viewBox="0 0 32 32"><path d="M19.998 7.386a9 9 0 0 0-.867-1.019 7 7 0 0 0-.273-.258 19 19 0 0 0-.543-.478l-.139-.11c-.049.034-.12.087-.222.17-.164.133-.35.296-.616.529a14 14 0 0 0-1.368 1.368c-.213.244-.368.419-.494.572a43 43 0 0 1 1.971 1.978 1.25 1.25 0 1 1-1.767 1.766q-.466-.5-1.022-1.055a38 38 0 0 0-2.646-2.409 2.6 2.6 0 0 0-.361-.25l-.006-.003c-.06-.032-.16-.086-.537-.082-.43.004-.522.064-.532.07l-.001.001a1.7 1.7 0 0 0-.25.178c-.155.124-.328.28-.602.525a12 12 0 0 0-.847.848c-.246.273-.401.446-.526.6a1.7 1.7 0 0 0-.177.25v.002c-.007.01-.068.101-.072.532-.003.378.05.478.083.536l.003.006c.036.069.105.177.25.361a37 37 0 0 0 2.409 2.646q.547.549 1.042 1.01a1.25 1.25 0 1 1-1.749 1.784 43 43 0 0 1-1.982-1.976c-.153.127-.329.28-.571.493-.244.214-.484.436-.708.66a23 23 0 0 0-1.189 1.324 4 4 0 0 0-.17.223q.038.05.11.139c.117.14.261.302.478.543q.129.144.259.273c.336.337.724.65 1.087.914.281.229.458.581.458.972a1.25 1.25 0 0 1-2.055.957A11.5 11.5 0 0 1 4.598 20.9a10 10 0 0 1-.35-.369c-.829-.922-1.244-1.383-1.25-2.344s.442-1.472 1.34-2.496c.243-.278.502-.559.772-.829s.55-.53.828-.773q.309-.271.567-.489c-.61-.767-.914-1.385-.904-2.513.014-1.476.482-1.996 1.417-3.034A14 14 0 0 1 8.05 7.022c1.039-.936 1.558-1.404 3.035-1.417 1.128-.01 1.747.293 2.513.903q.218-.258.49-.567a17 17 0 0 1 1.602-1.602c1.025-.897 1.537-1.345 2.497-1.339s1.421.421 2.344 1.25q.188.17.369.35a12 12 0 0 1 1.075 1.26 1.25 1.25 0 1 1-1.977 1.526m3.749 9.864a1.25 1.25 0 1 0-2.5 0c0 2.182-1.817 4.001-3.997 4.001a1.25 1.25 0 1 0 0 2.5c3.563 0 6.497-2.94 6.497-6.5"/><path d="M29 17.25a1.25 1.25 0 0 0-2.5 0c0 5.052-4.198 9.25-9.25 9.25a1.25 1.25 0 1 0 0 2.5C23.683 29 29 23.683 29 17.25M26.866 5.361a1.25 1.25 0 1 1 1.768 1.768l-21.5 21.505a1.25 1.25 0 1 1-1.768-1.768z"/></svg>