<svg xmlns="http://www.w3.org/2000/svg" viewBox="0 0 24 24"><path fill-rule="evenodd" d="M12 4.385A3.385 3.385 0 0 0 8.615 1c-1.35 0-2.715.825-3.08 2.295C5 5.455 5 7.798 5 10.895c0 .243.002.435 0 .678 0 .173.06.427.06.427.176.663.438 1.3.78 1.898l-.833 6.984A1 1 0 0 0 6 22l12.021-.001c.523 0 .969-.476.979-.999.01-.51-.35-.953-.838-1.086-.438-.121-.771-.283-.96-.481a.62.62 0 0 1-.195-.433c0-.508.355-1.127.665-1.61.436-.681 1.073-1.516 1.811-2.482a7.85 7.85 0 0 0 1.47-2.927 1.46 1.46 0 0 0-.351-1.39A1.9 1.9 0 0 0 19.209 10H12zm-3.518 12.29a9 9 0 0 1-.881-.654L7.127 20h8.087a2.5 2.5 0 0 1-.207-1c0-1.028.524-1.977.981-2.69.433-.675 1.013-1.445 1.684-2.325.244-.32.496-.635.698-.985.181-.316.326-.643.452-1.001L7.155 12c.302.825.79 1.588 1.444 2.225q.424.414.916.737a1 1 0 1 1-1.033 1.714M10 10V4.385C10 3.62 9.38 3 8.615 3c-.6 0-1.034.354-1.138.777C7.057 5.47 7.007 7.327 7 10z"/></svg>