<svg xmlns="http://www.w3.org/2000/svg" viewBox="0 0 24 24"><g fill-rule="evenodd" clip-rule="evenodd"><path d="M15 12a3 3 0 1 1-6 0 3 3 0 0 1 6 0m-2 0a1 1 0 1 1-2 0 1 1 0 0 1 2 0"/><path d="M13.002 3a1 1 0 1 0-2 0v1.571A7.5 7.5 0 0 0 6.069 7.42l-1.36-.786a1 1 0 0 0-1 1.732l1.358.785a7.5 7.5 0 0 0-.562 2.854c0 1.007.199 1.969.559 2.846l-1.356.783a1 1 0 1 0 1 1.732l1.356-.783a7.5 7.5 0 0 0 4.938 2.855V21a1 1 0 1 0 2 0v-1.56a7.5 7.5 0 0 0 4.942-2.855l1.353.781a1 1 0 1 0 1-1.732l-1.352-.78c.36-.879.56-1.84.56-2.85s-.2-1.975-.563-2.856l1.355-.782a1 1 0 1 0-1-1.732l-1.358.784a7.5 7.5 0 0 0-4.937-2.847zm-.997 14.505a5.5 5.5 0 1 0 0-11 5.5 5.5 0 0 0 0 11"/></g></svg>