<svg xmlns="http://www.w3.org/2000/svg" viewBox="0 0 24 24"><path fill-rule="evenodd" d="M15.9 17.157c.054-.913.081-1.37.192-1.683.11-.314.61-1.012 1.608-2.41a7 7 0 1 0-11.4 0c.998 1.398 1.497 2.096 1.608 2.41s.138.77.191 1.683q.032.541.068 1.034c.106 1.43.158 2.143.833 2.854.675.71 1.198.775 2.244.906q.373.047.756.049.383-.001.756-.05c1.046-.13 1.569-.195 2.244-.905s.727-1.425.832-2.854q.038-.493.069-1.034M17 9a4.97 4.97 0 0 1-.928 2.902l-.017.025c-.484.677-.87 1.217-1.147 1.626-.23.34-.545.81-.702 1.255a3 3 0 0 0-.061.192h-4.29a3 3 0 0 0-.06-.192c-.158-.445-.472-.915-.703-1.255a91 91 0 0 0-1.147-1.626l-.017-.025A5 5 0 1 1 17 9m-6.907 8v.001l.003.04q.03.524.066 1.004c.057.775.089 1.117.15 1.36a.6.6 0 0 0 .05.15c.01.016.03.05.088.112.09.095.14.131.156.142a.1.1 0 0 0 .04.019c.03.01.097.03.24.055.152.026.332.049.606.083Q11.76 20 12 20t.508-.034c.274-.034.454-.057.606-.083.143-.025.21-.044.24-.055a.1.1 0 0 0 .04-.019 1 1 0 0 0 .243-.254.6.6 0 0 0 .052-.15c.06-.243.092-.585.149-1.36q.035-.48.066-1.005l.003-.039V17z"/></svg>