<svg xmlns="http://www.w3.org/2000/svg" viewBox="0 0 16 16"><path fill-rule="evenodd" d="M10.93 11.614c.038-.624.058-.937.132-1.15s.399-.68 1.048-1.616a5 5 0 1 0-8.22 0c.65.935.974 1.403 1.048 1.616s.094.526.133 1.15q.021.351.047.676c.08 1.02.12 1.529.59 2.023s.864.544 1.65.644Q7.676 15 8 15q.325-.001.641-.043c.787-.1 1.18-.15 1.65-.644.471-.494.51-1.004.59-2.023q.027-.323.048-.676M11.5 6a3.5 3.5 0 0 1-.622 1.993l-.013.018c-.314.452-.566.815-.747 1.09-.15.228-.363.556-.473.87l-.01.029h-3.27l-.01-.029c-.11-.314-.323-.642-.473-.87a59 59 0 0 0-.747-1.09l-.013-.018A3.5 3.5 0 1 1 11.5 6m-4.933 5.5v.02a42 42 0 0 0 .102 1.28c.018.166.037.268.054.336a.4.4 0 0 0 .029.089c.002.004.01.02.043.053.053.057.08.074.082.076l.02.008c.026.01.08.024.191.043.117.02.255.038.46.064q.238.03.452.031.214 0 .451-.03c.206-.027.344-.045.46-.065a1.3 1.3 0 0 0 .212-.051.6.6 0 0 0 .083-.076c.032-.034.04-.05.042-.053a.4.4 0 0 0 .03-.089c.016-.068.035-.17.053-.337a42 42 0 0 0 .1-1.279l.002-.02z"/></svg>