<svg xmlns="http://www.w3.org/2000/svg" viewBox="0 0 24 24"><g fill-rule="evenodd" clip-rule="evenodd"><path d="M21 17c0 .742-.202 1.436-.554 2.032l1.261 1.26a1 1 0 0 1-1.414 1.415l-1.261-1.26A4 4 0 1 1 21 17m-2 0a2 2 0 1 1-4 0 2 2 0 0 1 4 0"/><path d="M9.932 2.087c-1.942.162-2.913.242-4.207 1.532S4.343 5.92 4.168 7.946A47 47 0 0 0 4 12c0 1.55.068 2.903.168 4.056.175 2.024.263 3.036 1.557 4.325s2.264 1.37 4.205 1.532c.649.055 1.343.087 2.07.087a1 1 0 1 0-.037-2 23 23 0 0 1-1.867-.08c-1.037-.086-1.522-.136-1.916-.26-.288-.089-.584-.237-1.043-.695-.449-.448-.602-.748-.699-1.06-.13-.42-.184-.944-.278-2.022A45 45 0 0 1 6 12c0-1.49.065-2.785.16-3.88.094-1.08.149-1.603.278-2.024.097-.313.25-.613.699-1.06.46-.458.755-.607 1.043-.697.394-.122.88-.173 1.918-.259q.442-.037.91-.058Q11 4.259 11 4.5c0 1.189.152 2.344.291 3.16l.016.102c.064.413.204 1.322.907 2.024.702.703 1.611.843 2.024.907l.101.016c.817.139 1.972.291 3.161.291q.252 0 .5-.009V11a1 1 0 1 0 2 0V9.95c0-.204 0-.368-.01-.502-.017-.365-.07-.668-.22-.851q-.066-.08-.178-.227a32 32 0 0 0-2.804-3.181c-1.8-1.799-2.716-2.607-3.197-2.894-.34-.202-.688-.267-1.05-.286A12 12 0 0 0 12.126 2L12 1.999c-.726 0-1.42.033-2.068.087m3.696 6.285c.225.225.5.272 1.047.365.758.13 1.791.263 2.825.263h.042a30 30 0 0 0-2.169-2.397 56 56 0 0 0-2.016-1.941 16 16 0 0 0-.356-.312v.15c0 1.034.133 2.067.262 2.825.093.548.14.822.365 1.047"/></g></svg>