<svg xmlns="http://www.w3.org/2000/svg" viewBox="0 0 16 16"><path fill-rule="evenodd" d="M14.916 8.554c-.13.615-.346 1.01-.758 1.432a3.4 3.4 0 0 1-1.175.782 1.35 1.35 0 0 1-1.105-.04 3.4 3.4 0 0 1-1.028-.784c-.472-.51-.709-.764-.712-1.303-.004-.54.245-.814.739-1.36L8.732 5.142c-.548.492-.824.74-1.365.736-.54-.003-.796-.239-1.308-.71a3.4 3.4 0 0 1-.787-1.025 1.34 1.34 0 0 1-.04-1.1c.14-.344.38-.79.782-1.17.247-.24.484-.413.762-.542.968-.449 1.961-.447 2.914.033.76.384 1.666.947 2.798 2.075 1.451 1.447 2.078 2.629 2.348 3.372.202.557.203 1.162.08 1.742M7.36 4.602l.825-.826a.73.73 0 0 1 1.035 0L12.243 6.8a.723.723 0 0 1 .005 1.021l-.03.03c-.267.27-.536.54-.795.817.105.148.237.278.36.41q.058.063.115.12c.18.18.402.311.572.396.239-.096.562-.27.779-.499.24-.245.341-.422.422-.805.087-.411.07-.765-.031-1.043-.2-.551-.718-1.577-2.05-2.905-1.03-1.026-1.823-1.512-2.473-1.84-.593-.3-1.177-.307-1.806-.015-.12.055-.241.136-.408.298-.229.216-.401.532-.497.769a2.2 2.2 0 0 0 .515.68c.14.127.275.269.439.368M1.084 7.446c.13-.615.345-1.01.758-1.432a3.4 3.4 0 0 1 1.175-.783 1.35 1.35 0 0 1 1.105.041 3.4 3.4 0 0 1 1.028.784c.472.51.709.764.712 1.303.004.54-.245.814-.738 1.36l2.144 2.138c.548-.492.824-.74 1.365-.736.54.003.796.239 1.308.71q.079.072.156.149c.298.297.5.616.63.876.172.34.185.747.041 1.1-.14.344-.38.79-.782 1.17a2.7 2.7 0 0 1-.762.542c-.968.449-1.961.447-2.914-.033-.76-.384-1.666-.947-2.798-2.075-1.452-1.447-2.078-2.63-2.348-3.372-.202-.557-.203-1.162-.08-1.742m7.556 3.952-.825.826a.73.73 0 0 1-1.035 0L3.756 9.2a.723.723 0 0 1-.004-1.021l.03-.03c.267-.27.536-.54.795-.817-.105-.148-.237-.278-.36-.41l-.115-.12a2.3 2.3 0 0 0-.572-.396c-.239.096-.562.27-.779.499-.24.245-.341.422-.422.805-.087.411-.07.765.031 1.043.2.551.718 1.577 2.05 2.905 1.03 1.026 1.823 1.512 2.473 1.84.593.3 1.177.307 1.806.015.12-.055.241-.136.408-.298.229-.216.401-.532.497-.769a2.2 2.2 0 0 0-.515-.68c-.14-.127-.275-.269-.439-.368"/><path d="M8.446 8.67a2 2 0 0 0 .224-.224l.015-.017c.108-.125.205-.238.205-.429s-.097-.304-.205-.43l-.015-.016a2 2 0 0 0-.224-.224l-.017-.015c-.125-.108-.238-.205-.43-.205-.19 0-.303.097-.428.205l-.017.015a2 2 0 0 0-.224.224l-.015.017c-.108.125-.206.238-.206.429s.098.304.206.43l.015.016a2 2 0 0 0 .224.224l.017.015c.125.108.238.205.429.205s.304-.097.43-.205z"/></svg>