<svg xmlns="http://www.w3.org/2000/svg" viewBox="0 0 24 24"><path fill-rule="evenodd" d="M11.11 3.999c-.857 0-1.586 0-2.175.069-.623.072-1.215.233-1.729.647a3.2 3.2 0 0 0-.492.492c-.414.514-.575 1.106-.647 1.73-.069.588-.069 1.317-.069 2.175V12h-.597a1 1 0 1 0 0 2h.6v1h-.6a1 1 0 1 0 0 2h.6v2a1 1 0 1 0 2 0v-2h6.798a1 1 0 1 0 0-2H8.001v-1h4.966c.642 0 1.25-.018 1.81-.047 2.577-.134 5.221-1.756 5.221-4.782 0-3.17-2.763-5.02-5.552-5.14Q13.746 4 12.967 4zm-3.11 8v-.9l-.002-.076V9.17c0-.931.002-1.543.055-2.002.051-.437.138-.606.219-.707q.084-.104.188-.188c.101-.081.27-.168.707-.219.459-.053 1.07-.055 2.001-.055h1.8q.731 0 1.393.03c2.116.09 3.637 1.4 3.637 3.14 0 1.545-1.336 2.682-3.324 2.785-.53.028-1.103.045-1.707.045z"/></svg>