<svg xmlns="http://www.w3.org/2000/svg" viewBox="0 0 16 16"><path fill-rule="evenodd" d="M3.124 3.125c-.875.875-.94 1.747-1.07 3.491C2.02 7.068 2 7.535 2 8.001s.02.933.054 1.385c.13 1.744.195 2.616 1.07 3.491s1.747.94 3.491 1.07C7.067 13.98 7.534 14 8 14s.933-.02 1.385-.054c1.744-.13 2.616-.195 3.491-1.07s.94-1.747 1.07-3.491C13.98 8.934 14 8.467 14 8s-.02-.933-.054-1.385c-.13-1.744-.195-2.616-1.07-3.491s-1.747-.94-3.491-1.07A19 19 0 0 0 8 2.001c-.466 0-.933.02-1.385.054-1.744.13-2.616.195-3.491 1.07m8.767 5.74c-.155 1.276-.944 1.778-2.258 1.778-1.505 0-2.34-.73-2.34-2.657 0-1.874.835-2.627 2.34-2.627 1.328 0 2.103.487 2.25 1.779h-1.268c-.074-.605-.421-.797-.982-.797-.671 0-1.07.31-1.07 1.276v.753c0 .96.376 1.292 1.07 1.292.539 0 .886-.178.989-.797zm-6.84-2.236-1.048.856V6.282l1.048-.827h1.232v5.092H5.051z"/></svg>