<svg xmlns="http://www.w3.org/2000/svg" viewBox="0 0 24 24"><path d="m8.035 10.414-1.41 1.15V9.948l1.41-1.11H9.69v6.845H8.035zm9.318 3.006c-.209 1.716-1.27 2.391-3.036 2.391-2.024 0-3.145-.982-3.145-3.572 0-2.52 1.12-3.532 3.145-3.532 1.786 0 2.827.655 3.026 2.391h-1.707c-.099-.813-.565-1.071-1.32-1.071-.902 0-1.438.416-1.438 1.716v1.012c0 1.29.506 1.736 1.439 1.736.724 0 1.19-.238 1.33-1.071z"/><path fill-rule="evenodd" d="M3.081 9.923c.195-2.616.292-3.924 1.605-5.237s2.62-1.41 5.237-1.605C10.6 3.031 11.3 3 12 3s1.399.03 2.077.081c2.616.195 3.924.292 5.237 1.605s1.41 2.62 1.605 5.237C20.969 10.6 21 11.3 21 12s-.03 1.399-.081 2.077c-.195 2.616-.292 3.924-1.605 5.237s-2.62 1.41-5.237 1.605C13.4 20.969 12.7 21 12 21s-1.399-.03-2.077-.081c-2.616-.195-3.924-.292-5.237-1.605s-1.41-2.62-1.605-5.237A28 28 0 0 1 3 12c0-.7.03-1.399.081-2.077m6.99-4.847A26 26 0 0 1 12 5c.642 0 1.292.028 1.929.076 2.75.204 3.265.318 3.97 1.024.707.706.82 1.22 1.025 3.971.048.637.076 1.287.076 1.929s-.028 1.292-.076 1.929c-.204 2.75-.318 3.265-1.024 3.97-.706.707-1.22.82-3.971 1.025-.637.048-1.287.076-1.929.076s-1.292-.028-1.929-.076c-2.75-.204-3.265-.318-3.97-1.024-.707-.706-.82-1.22-1.025-3.971A26 26 0 0 1 5 12c0-.642.028-1.292.076-1.929.204-2.75.318-3.265 1.024-3.97.706-.707 1.22-.82 3.971-1.025"/></svg>