<svg xmlns="http://www.w3.org/2000/svg" viewBox="0 0 24 24"><path fill-rule="evenodd" d="M4.686 4.686c-1.313 1.313-1.41 2.62-1.605 5.237C3.031 10.6 3 11.3 3 12s.03 1.399.081 2.077c.195 2.616.292 3.924 1.605 5.237s2.62 1.41 5.237 1.605C10.6 20.969 11.3 21 12 21s1.399-.03 2.077-.081c2.616-.195 3.924-.292 5.237-1.605s1.41-2.62 1.605-5.237C20.969 13.4 21 12.7 21 12s-.03-1.399-.081-2.077c-.195-2.616-.292-3.924-1.605-5.237s-2.62-1.41-5.237-1.605A28 28 0 0 0 12 3c-.7 0-1.399.03-2.077.081-2.616.195-3.924.292-5.237 1.605m13.217 8.788c-.233 1.917-1.418 2.67-3.39 2.67-2.261 0-3.513-1.097-3.513-3.989 0-2.814 1.252-3.944 3.512-3.944 1.995 0 3.158.731 3.38 2.67h-1.906c-.11-.908-.632-1.196-1.474-1.196-1.008 0-1.606.465-1.606 1.916v1.13c0 1.44.565 1.94 1.606 1.94.81 0 1.33-.266 1.485-1.197zM6 11.402l1.573-1.285V16h1.85V8.355h-1.85L6 9.595z"/></svg>