<svg xmlns="http://www.w3.org/2000/svg" viewBox="0 0 44 44"><path fill-rule="evenodd" d="M14 37V9.552c0-1.674 0-2.51.52-3.031C15.042 6 15.88 6 17.555 6h8.892c1.675 0 2.513 0 3.033.52.52.522.52 1.359.52 3.033V37zm10.953-22.62c-.041-.532-.062-.798-.314-1.055-.253-.257-.463-.277-.884-.316a2.7 2.7 0 0 0-.51 0c-.421.04-.631.06-.884.316-.252.257-.273.523-.314 1.056-.027.34-.047.727-.047 1.115 0 .387.02.775.047 1.115.041.533.062.799.314 1.056.253.257.463.277.884.316a2.7 2.7 0 0 0 .51 0c.421-.04.631-.06.884-.316.252-.257.273-.523.314-1.056.027-.34.047-.728.047-1.115 0-.388-.02-.775-.047-1.115m-3.314 6.948c.252.257.273.523.314 1.056.027.34.047.728.047 1.115s-.02.775-.047 1.115c-.041.533-.062.8-.314 1.056-.253.257-.463.277-.884.316a2.7 2.7 0 0 1-.51 0c-.421-.04-.631-.06-.884-.316-.252-.257-.273-.523-.314-1.056-.027-.34-.047-.728-.047-1.115s.02-.775.047-1.115c.041-.533.062-.799.314-1.056.253-.257.463-.277.884-.316a2.7 2.7 0 0 1 .51 0c.421.04.631.06.884.316"/><path d="M38 37h-5V19h1.446c1.675 0 2.513 0 3.033.52.521.521.521 1.359.521 3.034zM9.554 12H11v25H6V15.554c0-1.675 0-2.513.52-3.033C7.042 12 7.88 12 9.555 12"/></svg>