<svg xmlns="http://www.w3.org/2000/svg" viewBox="0 0 32 32"><path fill-rule="evenodd" d="M10 26.999V6.663c0-1.255 0-1.883.39-2.273.391-.391 1.02-.391 2.276-.391h6.668c1.257 0 1.885 0 2.276.39.39.391.39 1.019.39 2.274V27zm8.457-15.94c-.034-.401-.05-.602-.233-.791s-.348-.21-.68-.25a2.5 2.5 0 0 0-.589 0c-.33.04-.496.06-.679.25-.182.189-.2.39-.233.79-.024.284-.043.613-.043.941s.019.657.043.94c.034.401.05.602.233.792s.348.21.68.25a2.5 2.5 0 0 0 .589 0c.33-.04.496-.06.679-.25.182-.19.2-.39.233-.792.024-.283.043-.612.043-.94s-.019-.657-.043-.94m-2.733 5.208c.182.19.2.39.233.792.024.283.043.612.043.94s-.019.657-.043.94c-.034.401-.05.602-.233.792s-.348.21-.68.25a2.5 2.5 0 0 1-.589 0c-.33-.04-.496-.06-.679-.25-.182-.19-.2-.39-.233-.792A11 11 0 0 1 13.5 18c0-.328.019-.657.043-.94.034-.401.05-.602.233-.792.183-.189.348-.21.68-.25a2.5 2.5 0 0 1 .589 0c.33.04.496.061.679.25"/><path d="M28 26.999h-3.5v-12h.835c1.256 0 1.884 0 2.274.39.391.391.391 1.02.391 2.276zm-21.335-18H7.5v18H4V11.664c0-1.256 0-1.884.39-2.274.391-.391 1.02-.391 2.275-.391"/></svg>