<svg xmlns="http://www.w3.org/2000/svg" viewBox="0 0 32 32"><path fill-rule="evenodd" d="M9.504 12a4 4 0 1 0 0-8 4 4 0 0 0 0 8m0-2.5a1.5 1.5 0 1 0 0-3 1.5 1.5 0 0 0 0 3m18.213 11.55c-1.198-3.86-1.797-5.79-2.535-6.487a3.91 3.91 0 0 0-5.361 0c-.738.697-1.337 2.627-2.535 6.487-.557 1.794-.835 2.691-.779 3.418a3.83 3.83 0 0 0 2.425 3.264c.682.268 1.645.268 3.57.268s2.887 0 3.569-.268a3.83 3.83 0 0 0 2.425-3.264c.056-.727-.222-1.624-.779-3.418m-5.215 4.447c.992 0 1.627-.001 2.103-.03.416-.024.545-.063.554-.066.48-.19.801-.63.84-1.124 0-.012-.001-.143-.094-.522-.11-.448-.291-1.036-.579-1.962-.608-1.96-1.033-3.328-1.395-4.299-.268-.72-.433-1.018-.483-1.107l-.015-.03a1.406 1.406 0 0 0-1.863-.001l-.015.031c-.05.09-.215.387-.483 1.107-.362.971-.787 2.338-1.395 4.299-.288.926-.47 1.514-.58 1.962-.092.379-.094.51-.094.522.04.494.36.934.841 1.124.009.003.138.042.554.067.476.028 1.11.029 2.104.029M14.72 20.45c-1.198 3.86-1.797 5.79-2.535 6.486a3.91 3.91 0 0 1-5.361 0c-.738-.696-1.337-2.626-2.535-6.486-.557-1.794-.835-2.691-.779-3.418a3.83 3.83 0 0 1 2.425-3.264c.682-.268 1.644-.268 3.57-.268 1.924 0 2.887 0 3.569.268a3.83 3.83 0 0 1 2.425 3.264c.056.727-.222 1.624-.779 3.418m-5.216-4.447c.993 0 1.628.001 2.104.03.416.024.545.063.554.066.48.19.8.63.84 1.124 0 .012-.001.143-.094.522-.11.448-.291 1.036-.579 1.962-.608 1.96-1.033 3.328-1.395 4.299-.268.72-.433 1.018-.483 1.107l-.015.03a1.406 1.406 0 0 1-1.863.001l-.016-.031c-.049-.09-.214-.387-.482-1.107-.362-.971-.787-2.338-1.395-4.299-.288-.926-.47-1.514-.58-1.962-.092-.379-.094-.51-.094-.522.04-.494.36-.934.841-1.124.009-.003.138-.042.554-.067.476-.028 1.11-.029 2.103-.029M26.502 8a4 4 0 1 1-8 0 4 4 0 0 1 8 0m-2.5 0a1.5 1.5 0 1 1-3 0 1.5 1.5 0 0 1 3 0"/></svg>