<svg xmlns="http://www.w3.org/2000/svg" viewBox="0 0 24 24"><path fill-rule="evenodd" d="M7 9a3 3 0 1 0 0-6 3 3 0 0 0 0 6m0-2a1 1 0 1 0 0-2 1 1 0 0 0 0 2m3.91 8.272c-.898 2.928-1.347 4.393-1.9 4.921a2.907 2.907 0 0 1-4.02 0c-.553-.529-1.003-1.993-1.9-4.92-.418-1.362-.627-2.042-.585-2.594a2.9 2.9 0 0 1 1.818-2.476C4.835 10 5.557 10 7 10s2.165 0 2.677.203a2.9 2.9 0 0 1 1.818 2.476c.042.552-.167 1.232-.584 2.593M7 12c.746 0 1.217 0 1.568.022.265.016.363.04.378.043a.9.9 0 0 1 .554.762c0 .014-.005.112-.069.374-.081.337-.216.78-.432 1.484-.457 1.489-.775 2.523-1.045 3.257-.19.516-.308.738-.346.81q-.013.022-.013.026a.906.906 0 0 1-1.19 0q0-.004-.013-.026c-.038-.072-.156-.294-.346-.81-.27-.734-.588-1.768-1.045-3.257a29 29 0 0 1-.432-1.484 2 2 0 0 1-.069-.374.9.9 0 0 1 .554-.762 2 2 0 0 1 .378-.043C5.782 12 6.254 12 7 12m13.91 3.728c-.898-2.928-1.347-4.392-1.9-4.921a2.907 2.907 0 0 0-4.02 0c-.553.528-1.002 1.993-1.9 4.921-.418 1.36-.627 2.041-.585 2.593a2.9 2.9 0 0 0 1.818 2.476C14.836 21 15.558 21 17 21s2.165 0 2.677-.203a2.9 2.9 0 0 0 1.818-2.476c.042-.552-.167-1.232-.584-2.593m-2.342 3.25a2 2 0 0 0 .378-.043.9.9 0 0 0 .554-.762 2 2 0 0 0-.069-.374A29 29 0 0 0 19 16.314c-.457-1.488-.775-2.522-1.045-3.256a6 6 0 0 0-.346-.81l-.014-.026a.906.906 0 0 0-1.189 0q0 .004-.013.026c-.037.072-.156.294-.346.81-.27.734-.588 1.768-1.045 3.256a29 29 0 0 0-.432 1.485 2 2 0 0 0-.069.374.9.9 0 0 0 .554.762c.015.004.113.027.378.043.35.021.822.022 1.568.022s1.217 0 1.568-.022M20 6a3 3 0 1 1-6 0 3 3 0 0 1 6 0m-2 0a1 1 0 1 1-2 0 1 1 0 0 1 2 0"/></svg>