<svg xmlns="http://www.w3.org/2000/svg" viewBox="0 0 24 24"><path d="M10.002 6a3 3 0 1 1-6 0 3 3 0 0 1 6 0m-.99 14.193c.553-.529 1.002-1.993 1.9-4.921.418-1.36.627-2.041.585-2.593a2.9 2.9 0 0 0-1.819-2.476C9.167 10 8.445 10 7.002 10s-2.165 0-2.677.203a2.9 2.9 0 0 0-1.818 2.476c-.042.552.167 1.232.584 2.593.898 2.928 1.348 4.393 1.901 4.921a2.907 2.907 0 0 0 4.02 0m10-9.386c.553.528 1.003 1.993 1.9 4.92.418 1.362.627 2.042.585 2.594a2.9 2.9 0 0 1-1.819 2.476c-.511.203-1.233.203-2.676.203s-2.165 0-2.677-.203a2.9 2.9 0 0 1-1.818-2.476c-.042-.552.167-1.232.584-2.593.898-2.928 1.348-4.392 1.901-4.921a2.907 2.907 0 0 1 4.02 0M17.002 9a3 3 0 1 0 0-6 3 3 0 0 0 0 6"/></svg>