<svg xmlns="http://www.w3.org/2000/svg" viewBox="0 0 16 16"><path d="M6.5 4a2 2 0 1 1-4 0 2 2 0 0 1 4 0m6.34 3.05c.369.36.668 1.36 1.267 3.357.278.928.417 1.393.389 1.768a1.98 1.98 0 0 1-1.212 1.69c-.34.138-.822.138-1.783.138-.962 0-1.443 0-1.784-.138a1.98 1.98 0 0 1-1.211-1.69c-.029-.376.11-.84.389-1.768.598-1.997.897-2.996 1.266-3.357a1.905 1.905 0 0 1 2.679 0m-7 6.403c.369-.36.668-1.36 1.267-3.357.278-.928.417-1.392.389-1.768a1.98 1.98 0 0 0-1.212-1.69C5.944 6.5 5.462 6.5 4.501 6.5c-.962 0-1.443 0-1.784.139a1.98 1.98 0 0 0-1.211 1.689c-.029.376.11.84.389 1.768.598 1.998.897 2.996 1.266 3.357.75.734 1.928.734 2.679 0M11.5 6a2 2 0 1 0 0-4 2 2 0 0 0 0 4"/></svg>