<svg xmlns="http://www.w3.org/2000/svg" viewBox="0 0 24 24"><path fill-rule="evenodd" d="M12 4c-1.55 0-2.903.068-4.055.168-2.025.176-3.037.264-4.326 1.558C2.33 7.019 2.25 7.99 2.087 9.93a25 25 0 0 0 0 4.14c.162 1.94.243 2.911 1.532 4.205s2.301 1.381 4.325 1.557c1.153.1 2.506.168 4.056.168 1.549 0 2.9-.068 4.053-.168 2.025-.175 3.038-.263 4.327-1.557s1.37-2.265 1.532-4.206a25 25 0 0 0 0-4.137C21.75 7.99 21.67 7.02 20.38 5.726c-1.289-1.294-2.302-1.382-4.327-1.558A47 47 0 0 0 12 4M7 9a1 1 0 0 0 0 2h9.999a1 1 0 0 0 0-2zm-1 5a1 1 0 0 1 1-1h9.999a1 1 0 0 1 0 2h-10a1 1 0 0 1-1-1"/></svg>