<svg xmlns="http://www.w3.org/2000/svg" viewBox="0 0 16 16"><path fill-rule="evenodd" d="M11.215 12.863c-.884.08-1.957.136-3.216.136s-2.332-.057-3.216-.136c-1.3-.117-1.95-.176-2.75-.971-.8-.796-.857-1.388-.97-2.57a14 14 0 0 1 0-2.644c.113-1.183.17-1.775.97-2.57.8-.796 1.45-.855 2.75-.972A36 36 0 0 1 7.999 3c1.259 0 2.331.057 3.216.136 1.3.117 1.95.176 2.75.972.8.795.857 1.387.97 2.571a14 14 0 0 1 0 2.64c-.113 1.185-.17 1.777-.97 2.573-.8.795-1.45.854-2.75.97M4 6.748c0-.414.358-.75.8-.75h6.399c.441 0 .8.336.8.75 0 .415-.359.75-.8.75h-6.4c-.441 0-.8-.335-.8-.75M4.8 8.5c-.442 0-.8.336-.8.75s.358.75.8.75h6.399c.441 0 .8-.336.8-.75s-.359-.75-.8-.75z"/></svg>