<svg xmlns="http://www.w3.org/2000/svg" viewBox="0 0 24 24"><path fill-rule="evenodd" d="M16 5a1 1 0 0 0-1-1H9a1 1 0 1 0 0 2h1v1h-.172a2 2 0 0 0-1.414.586l-.661.661c-.702.104-1.183.285-1.736.832-.628.623-.78 1.122-.88 1.921H4v-1a1 1 0 1 0-2 0v6a1 1 0 1 0 2 0v-1h1.137c.1.8.252 1.298.88 1.92.762.755 1.389.814 2.643.932.534.05 1.14.093 1.818.12l.622.828a3 3 0 0 0 2.4 1.2H16a3 3 0 0 0 3-3v-1h1v2a1 1 0 1 0 2 0v-8a1 1 0 1 0-2 0v2h-1.037q-.016-.228-.039-.445c-.12-1.147-.179-1.72-.94-2.476-.554-.547-1.035-.728-1.737-.832l-.661-.661A2 2 0 0 0 14.172 7H14V6h1a1 1 0 0 0 1-1m-7.301 5.13-.655.096c-.253.037-.344.072-.383.09-.027.012-.096.045-.237.184-.11.11-.157.175-.178.207a.3.3 0 0 0-.04.086 2 2 0 0 0-.062.295c-.026.172-.048.373-.079.673a12 12 0 0 0 0 2.479c.031.299.053.5.079.672.025.163.046.247.062.294.012.038.023.06.04.087.02.032.069.098.178.206.102.1.164.144.195.163a.5.5 0 0 0 .115.049c.067.02.173.044.363.07a31 31 0 0 0 2.459.191l.951.037L12.7 17.6a1 1 0 0 0 .8.4H16a1 1 0 0 0 1-1v-4a15 15 0 0 0-.144-1.911 2 2 0 0 0-.062-.295.3.3 0 0 0-.04-.087 1.3 1.3 0 0 0-.178-.206c-.14-.14-.21-.173-.236-.185-.04-.018-.13-.053-.384-.09l-.655-.097L14.171 9H9.829z"/></svg>