<svg xmlns="http://www.w3.org/2000/svg" viewBox="0 0 32 32"><path fill-rule="evenodd" d="M21 6.75c0-.69-.56-1.25-1.25-1.25h-7.5a1.25 1.25 0 1 0 0 2.5h1.249v1.496h-.266a2.6 2.6 0 0 0-1.854.778l-.84.854c-.89.136-1.508.375-2.217 1.077-.827.82-1.018 1.478-1.148 2.545H5.5v-1.5a1.25 1.25 0 1 0-2.5 0v8a1.25 1.25 0 1 0 2.5 0v-1.5h1.653c.132 1.178.295 1.863 1.169 2.73.99.982 1.803 1.058 3.43 1.212.675.064 1.44.118 2.292.151l.787 1.068a3.9 3.9 0 0 0 3.139 1.585h3.13a3.9 3.9 0 0 0 3.9-3.9V21h1.5v2.75a1.25 1.25 0 1 0 2.5 0v-10.5a1.25 1.25 0 1 0-2.5 0V16h-1.55q-.02-.288-.05-.563c-.154-1.5-.23-2.25-1.221-3.231-.71-.703-1.327-.942-2.217-1.078l-.84-.854a2.6 2.6 0 0 0-1.855-.778H18.5V8h1.251A1.25 1.25 0 0 0 21 6.75m-9.214 6.818-.856.13c-.312.048-.425.092-.473.114-.034.016-.123.06-.305.24-.142.14-.204.226-.23.267a.5.5 0 0 0-.053.115 2.4 2.4 0 0 0-.081.388c-.034.226-.062.49-.102.88a16 16 0 0 0-.086 1.64c0 .578.033 1.129.086 1.64.04.392.068.656.102.88.032.215.06.326.08.39.017.05.032.08.054.114.026.041.088.127.23.267.132.131.213.187.254.212a.6.6 0 0 0 .148.064c.086.026.224.057.47.091a39 39 0 0 0 3.123.245l1.248.05 1.529 2.073a1.3 1.3 0 0 0 1.046.528h3.13a1.3 1.3 0 0 0 1.3-1.3v-5.253c0-.577-.033-1.127-.085-1.64a21 21 0 0 0-.102-.88 2.5 2.5 0 0 0-.082-.389.5.5 0 0 0-.053-.115 1.7 1.7 0 0 0-.23-.267c-.181-.18-.271-.224-.305-.24-.048-.022-.16-.066-.473-.114l-.855-.13-1.448-1.472h-5.534z"/></svg>