<svg xmlns="http://www.w3.org/2000/svg" viewBox="0 0 44 44"><path fill-rule="evenodd" d="M29 9.5A1.5 1.5 0 0 0 27.5 8h-11a1.5 1.5 0 0 0 0 3h2.002v2h-.634a3.6 3.6 0 0 0-2.483.993l-1.272 1.213c-1.349.181-2.247.493-3.28 1.512-1.227 1.21-1.444 2.148-1.63 3.782H7v-2a1.5 1.5 0 0 0-3 0v11a1.5 1.5 0 0 0 3 0v-2h2.304c.187 1.187.508 2.006 1.529 3.012 1.372 1.354 2.507 1.46 4.775 1.67a63 63 0 0 0 3.566.228l1.205 1.53A5.4 5.4 0 0 0 24.622 36H29.6a5.4 5.4 0 0 0 5.4-5.4V29h2v3.5a1.5 1.5 0 0 0 3 0v-14a1.5 1.5 0 0 0-3 0V22h-2.057a24 24 0 0 0-.078-.885c-.216-2.028-.325-3.043-1.697-4.397-1.034-1.02-1.933-1.33-3.282-1.513l-1.273-1.212A3.6 3.6 0 0 0 26.13 13h-.628v-2H27.5A1.5 1.5 0 0 0 29 9.5m-13.522 8.549-.964.13c-.55.074-.801.15-.96.218-.129.057-.313.16-.615.457-.41.406-.492.606-.543.76-.102.303-.16.707-.278 1.818A21 21 0 0 0 12 23.615c0 .768.045 1.5.118 2.184.119 1.11.176 1.514.278 1.819.051.153.132.353.543.759.372.366.581.458.809.526.39.117.908.178 2.138.293a61 61 0 0 0 3.399.216l1.387.052 2.064 2.62a2.4 2.4 0 0 0 1.886.916H29.6a2.4 2.4 0 0 0 2.4-2.4v-6.985c0-.766-.045-1.498-.118-2.181-.119-1.112-.176-1.516-.278-1.82-.05-.154-.132-.354-.543-.76-.302-.297-.486-.4-.616-.457-.158-.069-.41-.144-.96-.219l-.964-.13-1.977-1.882A.6.6 0 0 0 26.13 16h-8.262a.6.6 0 0 0-.414.166z"/></svg>