<svg xmlns="http://www.w3.org/2000/svg" viewBox="0 0 32 32"><path d="M21 6.75c0-.69-.56-1.25-1.25-1.25h-7.5a1.25 1.25 0 1 0 0 2.5h1.249v1.496h-.266a2.6 2.6 0 0 0-1.854.778l-.84.854c-.89.136-1.508.375-2.217 1.077-.827.82-1.018 1.478-1.148 2.545H5.5v-1.5a1.25 1.25 0 1 0-2.5 0v8a1.25 1.25 0 1 0 2.5 0v-1.5h1.653c.132 1.178.295 1.863 1.169 2.73.99.982 1.803 1.058 3.43 1.212.675.064 1.44.118 2.292.151l.787 1.068a3.9 3.9 0 0 0 3.139 1.585h3.13a3.9 3.9 0 0 0 3.9-3.9V21h1.5v2.75a1.25 1.25 0 1 0 2.5 0v-10.5a1.25 1.25 0 1 0-2.5 0V16h-1.55q-.02-.288-.05-.563c-.154-1.5-.23-2.25-1.221-3.231-.71-.703-1.327-.942-2.217-1.078l-.84-.854a2.6 2.6 0 0 0-1.855-.778H18.5V8h1.251A1.25 1.25 0 0 0 21 6.75"/></svg>