<svg xmlns="http://www.w3.org/2000/svg" viewBox="0 0 32 32"><path fill-rule="evenodd" d="M3 2.999C.664 5.333.491 7.659.145 12.309a50 50 0 0 0-.144 3.693c0 1.244.054 2.487.144 3.693.346 4.65.52 6.976 2.853 9.31s4.66 2.508 9.31 2.854c1.206.09 2.45.144 3.694.144s2.487-.055 3.692-.144c4.651-.347 6.977-.52 9.31-2.854 2.335-2.334 2.508-4.66 2.854-9.31.09-1.206.144-2.45.144-3.693s-.054-2.487-.144-3.693c-.346-4.65-.52-6.976-2.853-9.31S24.346.492 19.696.146A50 50 0 0 0 16.002 0c-1.244 0-2.488.055-3.693.145C7.659.492 5.333.665 3 2.999m16.575 4.386c-.924-.042-1.22-.052-3.574-.052s-2.65.01-3.574.052-1.553.189-2.104.403a4.25 4.25 0 0 0-1.536 1 4.25 4.25 0 0 0-1 1.535c-.214.552-.36 1.182-.403 2.105-.042.924-.052 1.22-.052 3.574s.01 2.65.052 3.574.189 1.553.403 2.104a4.25 4.25 0 0 0 1 1.536c.482.482.965.778 1.535 1 .552.214 1.182.36 2.105.403.925.042 1.22.052 3.574.052s2.65-.01 3.574-.052c.923-.043 1.553-.189 2.105-.403a4.25 4.25 0 0 0 1.535-1 4.25 4.25 0 0 0 1-1.536c.214-.551.36-1.181.403-2.104.042-.925.052-1.22.052-3.574s-.01-2.65-.052-3.574-.189-1.553-.403-2.105a4.25 4.25 0 0 0-1-1.535 4.25 4.25 0 0 0-1.535-1c-.552-.214-1.182-.361-2.105-.403M19.6 22H22v-5.065c0-2.143-1.253-3.18-2.95-3.18s-2.45 1.322-2.45 1.322V14.2h-2.4V22h2.4v-4.2c0-1.124.589-1.794 1.58-1.794.912 0 1.42.643 1.42 1.795zM10 11.476a1.47 1.47 0 0 0 1.465 1.476 1.47 1.47 0 0 0 1.465-1.476A1.47 1.47 0 0 0 11.465 10 1.47 1.47 0 0 0 10 11.476M13 22h-3v-7.8h3z"/></svg>