<svg xmlns="http://www.w3.org/2000/svg" viewBox="0 0 16 16"><path fill-rule="evenodd" d="M8.006 1c.754 0 1.464.33 1.997.862l2.365 2.365c.682.682 1.023 1.023 1.26 1.476.082.159.171.373.225.545.153.487.153.909.153 1.752a30 30 0 0 1-.143 3.016c-.134 1.338-.2 2.007-1.044 2.848-.844.842-1.512.908-2.848 1.039A20 20 0 0 1 8.006 15c-.703 0-1.364-.038-1.965-.097-1.336-.131-2.004-.197-2.848-1.039s-.91-1.51-1.044-2.848A30 30 0 0 1 2.006 8c0-1.165.058-2.17.143-3.015.133-1.339.2-2.008 1.044-2.85s1.512-.907 2.85-1.038A20 20 0 0 1 8.005 1m2.86 6.447c0-.355-.184-.504-.588-.504-.419 0-.582.15-.624.618h-1.22C8.484 6.397 9.179 6 10.278 6c1.17 0 1.816.397 1.816 1.482 0 .978-.744 1.348-1.397 1.661-.475.228-.901.454-.958.857h2.355v1H8.412v-.589c0-1.248.857-1.643 1.558-1.966.486-.224.897-.427.897-.842zm-6.252.201a.506.506 0 0 0-.716.716l.886.886-.886.886a.506.506 0 1 0 .716.715l.886-.886.886.887a.505.505 0 0 0 .716 0 .506.506 0 0 0 0-.716l-.886-.886.886-.887a.506.506 0 0 0-.716-.715l-.886.886z"/></svg>