<svg xmlns="http://www.w3.org/2000/svg" viewBox="0 0 24 24"><path fill-rule="evenodd" d="M14.868 3.243C14.103 2.48 13.088 2 12.006 2c-.726 0-1.42.033-2.068.087-1.942.162-2.913.242-4.207 1.532S4.35 5.92 4.173 7.946A47 47 0 0 0 4.006 12c0 1.55.067 2.903.168 4.056.175 2.024.263 3.036 1.557 4.325s2.264 1.37 4.205 1.532a25 25 0 0 0 4.14 0c1.94-.161 2.911-.242 4.205-1.532 1.294-1.289 1.381-2.301 1.557-4.325.1-1.153.168-2.506.168-4.056v-.082c-.003-1.645-.004-2.468-.384-3.385-.381-.917-1.042-1.578-2.364-2.9zM15 10.322c0-.57-.3-.808-.96-.808-.682 0-.947.235-1.017.986h-1.988c.08-1.866 1.214-2.5 3.005-2.5 1.908 0 2.96.637 2.96 2.378 0 1.568-1.213 2.14-2.277 2.643-.774.365-1.469.693-1.561 1.34H17V16h-6v-.944c0-2.004 1.396-2.637 2.539-3.155.791-.36 1.461-.663 1.461-1.33zm-8.157 1.823a.494.494 0 0 0-.698.698L7.302 14l-1.157 1.157a.494.494 0 0 0 .698.698L8 14.698l1.157 1.157a.494.494 0 1 0 .698-.698L8.698 14l1.157-1.157a.494.494 0 0 0-.698-.698L8 13.302z"/></svg>