<svg xmlns="http://www.w3.org/2000/svg" viewBox="0 0 24 24"><path d="M3 6.58c0-.359.192-.688.517-.84C4.681 5.2 7.741 4 12 4s7.32 1.2 8.483 1.74a.91.91 0 0 1 .517.84V10a1 1 0 0 1-1 1h-4a4 4 0 0 0-8 0H4a1 1 0 0 1-1-1zM8.497 13a1 1 0 0 1 .868.504A3.03 3.03 0 0 0 12 15a3.02 3.02 0 0 0 2.63-1.496 1 1 0 0 1 1.736 0C16.87 14.387 17.857 15 19 15q.396-.001.758-.092a1 1 0 1 1 .485 1.94c-.398.1-.815.152-1.243.152a5.06 5.06 0 0 1-3.502-1.395A5.05 5.05 0 0 1 12 17a5.06 5.06 0 0 1-3.503-1.395A5.06 5.06 0 0 1 4.994 17q-.64-.002-1.235-.15a1 1 0 1 1 .482-1.941q.36.09.753.091c1.143 0 2.13-.613 2.635-1.496A1 1 0 0 1 8.497 13m.659 5.247a1 1 0 0 0-1.317 0c-.317.278-.997.578-1.963.699a1 1 0 0 0 .249 1.984c.865-.108 1.7-.347 2.372-.72.939.52 2.211.79 3.503.79s2.563-.27 3.5-.79c.673.374 1.508.613 2.376.721a1 1 0 1 0 .248-1.984c-.967-.12-1.647-.421-1.965-.7a1 1 0 0 0-1.317 0C14.415 18.621 13.38 19 12 19s-2.418-.38-2.844-.753"/></svg>