<svg xmlns="http://www.w3.org/2000/svg" viewBox="0 0 32 32"><path d="M4 8.697c0-.522.27-1.004.738-1.236C6.325 6.677 10.38 5 16 5s9.675 1.678 11.262 2.462c.468.232.738.713.738 1.236V13.5a1.5 1.5 0 0 1-1.5 1.5h-5.52q.02-.247.02-.5c0-3.038-2.239-5.5-5-5.5s-5 2.462-5 5.5q0 .253.02.5H5.5A1.5 1.5 0 0 1 4 13.5zm7.29 8.802c.434 0 .837.226 1.064.596.676 1.1 2.03 1.904 3.642 1.904s2.958-.803 3.635-1.904a1.25 1.25 0 0 1 2.13 0c.675 1.1 2.029 1.904 3.642 1.904q.553-.001 1.06-.12a1.25 1.25 0 0 1 .567 2.435 7.2 7.2 0 0 1-1.627.185c-1.814 0-3.492-.676-4.707-1.801-1.212 1.125-2.884 1.801-4.7 1.801-1.814 0-3.492-.676-4.707-1.802-1.215 1.126-2.892 1.802-4.707 1.802a7.2 7.2 0 0 1-1.617-.183 1.25 1.25 0 0 1 .563-2.436q.504.117 1.054.119c1.613 0 2.966-.805 3.642-1.904a1.25 1.25 0 0 1 1.065-.596m1.077 6.873a1.25 1.25 0 0 0-1.781 0c-.424.43-1.295.87-2.515 1.047a1.25 1.25 0 1 0 .36 2.474c1.119-.163 2.187-.518 3.045-1.058 1.207.76 2.847 1.164 4.525 1.164s3.316-.404 4.521-1.164c.86.542 1.928.897 3.05 1.06a1.25 1.25 0 0 0 .358-2.474c-1.22-.177-2.092-.617-2.517-1.049a1.25 1.25 0 0 0-1.781 0c-.565.573-1.885 1.127-3.63 1.127-1.747 0-3.07-.554-3.635-1.127"/></svg>