<svg xmlns="http://www.w3.org/2000/svg" viewBox="0 0 44 44"><path d="M6 12.61c0-.73.396-1.397 1.063-1.69C9.233 9.963 14.597 7.998 22 7.998s12.768 1.965 14.937 2.92c.667.294 1.063.961 1.063 1.69V18a2 2 0 0 1-2 2h-7a7 7 0 1 0-14 0H8a2 2 0 0 1-2-2zm9.65 11.389a1.5 1.5 0 0 1 1.331.81c1.006 1.94 2.908 3.19 5.017 3.19 2.108 0 4-1.247 5.007-3.19a1.5 1.5 0 0 1 2.664 0c1.005 1.94 2.908 3.19 5.017 3.19q.736-.002 1.413-.19a1.5 1.5 0 0 1 .798 2.891 8.3 8.3 0 0 1-2.21.299c-2.518 0-4.766-1.121-6.35-2.882-1.579 1.76-3.82 2.882-6.339 2.882-2.517 0-4.765-1.121-6.349-2.883C14.066 29.878 11.817 31 9.3 31a8.3 8.3 0 0 1-2.198-.295 1.5 1.5 0 0 1 .793-2.893A5.3 5.3 0 0 0 9.3 28c2.11 0 4.012-1.25 5.017-3.19a1.5 1.5 0 0 1 1.332-.81m1.28 9.438a1.5 1.5 0 0 0-2.12 0c-.613.612-1.84 1.211-3.524 1.453a1.5 1.5 0 0 0 .426 2.97c1.544-.222 3.006-.712 4.157-1.454 1.604 1.034 3.832 1.592 6.13 1.592 2.3 0 4.524-.558 6.126-1.592 1.152.744 2.615 1.235 4.163 1.455a1.5 1.5 0 0 0 .423-2.97c-1.684-.24-2.911-.84-3.526-1.454a1.5 1.5 0 0 0-2.12 0C26.25 34.251 24.4 35 21.998 35s-4.258-.749-5.07-1.56"/></svg>