<svg xmlns="http://www.w3.org/2000/svg" viewBox="0 0 44 44"><path fill-rule="evenodd" d="M8.008 18.93c-.028-1.013.047-1.99.124-2.993l.008-.105C8.619 9.586 13.37 4.53 19.62 4.087 20.402 4.032 21.2 4 22 4c.801 0 1.599.032 2.38.087 6.25.442 11.002 5.499 11.48 11.745l.008.104c.078 1.004.153 1.98.124 2.994-.228 8.217-5.573 13.883-11.127 19.178-1.323 1.26-1.984 1.891-2.865 1.891-.88 0-1.542-.63-2.864-1.891-5.555-5.295-10.9-10.96-11.128-19.178m9.531-1.969c.098-1.308.146-1.963.803-2.62.657-.656 1.31-.705 2.62-.802.338-.025.688-.04 1.038-.04s.7.015 1.04.04c1.308.097 1.962.146 2.618.803.657.656.706 1.31.803 2.619.025.34.04.69.04 1.039 0 .35-.015.7-.04 1.039-.097 1.308-.146 1.962-.803 2.62-.656.656-1.31.704-2.619.802-.339.025-.689.04-1.039.04s-.7-.015-1.039-.04c-1.308-.098-1.962-.146-2.619-.803s-.705-1.31-.803-2.62c-.025-.338-.04-.688-.04-1.038s.015-.7.04-1.039"/></svg>