<svg xmlns="http://www.w3.org/2000/svg" viewBox="0 0 32 32"><path d="M12.532 12.192c.075-1.017.113-1.526.624-2.036.51-.51 1.019-.549 2.036-.624Q15.59 9.5 16 9.5c.272 0 .544.012.808.032 1.017.075 1.526.113 2.036.624.51.51.549 1.019.624 2.036q.031.398.032.808c0 .272-.012.544-.032.808-.075 1.017-.113 1.526-.624 2.036-.51.51-1.019.549-2.036.624-.264.02-.536.032-.808.032s-.544-.012-.808-.032c-1.017-.075-1.526-.113-2.036-.624-.51-.51-.549-1.019-.625-2.036q-.03-.398-.031-.808c0-.272.012-.544.031-.808"/><path fill-rule="evenodd" d="M25.904 11.595c.054.723.11 1.43.092 2.157-.143 5.911-3.929 10.01-7.9 13.847-.966.933-1.45 1.4-2.096 1.4s-1.13-.467-2.096-1.4c-3.971-3.838-7.757-7.936-7.9-13.847-.017-.728.039-1.434.093-2.157.338-4.541 3.782-8.237 8.326-8.54Q15.203 3 16 3c.53 0 1.059.02 1.578.054 4.543.304 7.987 4 8.326 8.54m-2.408 2.096C23.37 18.97 19.58 22.737 16 26.146c-3.579-3.41-7.369-7.177-7.496-12.455-.016-.646.038-1.268.086-1.91.253-3.404 2.799-6.018 6-6.232Q15.297 5.5 16 5.5q.705 0 1.41.049c3.201.214 5.747 2.828 6 6.232.049.642.102 1.264.086 1.91"/></svg>