<svg xmlns="http://www.w3.org/2000/svg" viewBox="0 0 16 16"><path d="M6.267 6.096c.038-.508.056-.762.312-1.017.255-.255.509-.274 1.017-.312a5.5 5.5 0 0 1 .807 0c.509.038.763.057 1.018.312s.274.51.312 1.017a5.5 5.5 0 0 1 0 .808c-.038.508-.057.762-.312 1.017s-.51.274-1.018.312a5.5 5.5 0 0 1-.807 0c-.508-.038-.762-.057-1.017-.312-.256-.255-.274-.51-.312-1.017a5.5 5.5 0 0 1 0-.808"/><path fill-rule="evenodd" d="M13.473 5.444q.029.449.027.898v.136c0 .207.001.415-.009.622-.152 3.091-2.339 5.246-4.455 7.227-.48.449-.72.674-1.036.674s-.556-.225-1.037-.675C4.848 12.346 2.66 10.192 2.508 7.1a12 12 0 0 1-.009-.622v-.136q0-.45.028-.898c.151-2.391 2.06-4.247 4.45-4.408C7.312 1.013 7.656 1 8 1q.519 0 1.023.036c2.39.16 4.298 2.017 4.45 4.408m-1.497.094a12 12 0 0 1 .024.947c.001.18.002.36-.007.541-.13 2.637-2.196 4.534-3.993 6.216-1.798-1.682-3.864-3.579-3.993-6.216a10 10 0 0 1-.008-.54v-.143q0-.403.025-.805c.102-1.614 1.39-2.894 3.054-3.006a14 14 0 0 1 1.844 0c1.664.112 2.952 1.392 3.054 3.006"/></svg>