<svg xmlns="http://www.w3.org/2000/svg" viewBox="0 0 16 16"><path fill-rule="evenodd" d="M4.011 2.626c-.285.648-.627 1.636-.831 2.957C1.837 6.19 1 7.048 1 8c0 1.84 3.134 3.333 7 3.333S15 9.841 15 8c0-.952-.837-1.81-2.18-2.417-.204-1.321-.546-2.309-.831-2.957-.28-.636-.788-1.134-1.456-1.322C9.969 1.146 9.14 1 8 1s-1.97.146-2.533.304c-.668.188-1.177.686-1.456 1.322m2.322 2.777a.75.75 0 0 0 .734-.596c.197-.03.496-.057.933-.057.451 0 .716.028.86.055a.8.8 0 0 1 .057.261q0 .06-.02.162l-.03.013a.2.2 0 0 1-.066.009h-.25A1.3 1.3 0 0 0 7.25 6.552v.114a.75.75 0 0 0 1.495.084h.056c.629 0 1.385-.371 1.56-1.188.03-.145.056-.316.056-.496a2.3 2.3 0 0 0-.161-.809c-.085-.217-.31-.698-.846-.861-.3-.091-.739-.146-1.41-.146-.705 0-1.178.06-1.502.142-.7.177-.915.82-.915 1.256v.005c0 .414.336.75.75.75M8.75 8.75a.75.75 0 1 1-1.5 0 .75.75 0 0 1 1.5 0M8 12.5c1.442 0 2.782-.248 3.896-.671-.917 1.933-2.321 3.17-3.896 3.17s-2.98-1.237-3.896-3.17c1.114.423 2.454.67 3.896.67"/></svg>