<svg xmlns="http://www.w3.org/2000/svg" viewBox="0 0 16 16"><path fill-rule="evenodd" d="M12.25 8a.78.78 0 0 1-.768-.75c-.095-1.943-.543-3.285-.866-4.021-.128-.29-.318-.433-.49-.48C9.704 2.628 9.013 2.5 8 2.5s-1.703.129-2.127.248c-.171.048-.36.19-.488.48-.324.737-.772 2.08-.867 4.022A.78.78 0 0 1 3.75 8a.73.73 0 0 1-.727-.615c-.49.354-.523.61-.523.615 0 .007.06.462 1.195 1.003 1.024.487 2.545.83 4.305.83s3.28-.343 4.305-.83C13.44 8.462 13.5 8.007 13.5 8s-.033-.26-.523-.615A.73.73 0 0 1 12.25 8m.57-2.417c-.204-1.321-.546-2.309-.831-2.957-.28-.636-.788-1.134-1.456-1.322C9.969 1.146 9.14 1 8 1s-1.97.146-2.533.304c-.668.188-1.177.686-1.456 1.322-.285.648-.627 1.636-.831 2.957C1.837 6.19 1 7.048 1 8c0 1.84 3.134 3.333 7 3.333S15 9.841 15 8c0-.952-.837-1.81-2.18-2.417m-5.753-.776a.75.75 0 0 1-1.484-.155v-.004c0-.436.215-1.079.915-1.256.324-.081.797-.142 1.502-.142.671 0 1.111.055 1.41.146.535.163.761.644.846.861.076.196.16.482.16.81 0 .179-.025.35-.056.495-.174.817-.93 1.188-1.559 1.188h-.056a.75.75 0 0 1-1.495-.084v-.114A1.3 1.3 0 0 1 8.552 5.25h.25a.2.2 0 0 0 .096-.022 1 1 0 0 0 .019-.162.8.8 0 0 0-.057-.261A5 5 0 0 0 8 4.75c-.437 0-.736.027-.933.057M8.75 8.5a.75.75 0 1 1-1.5 0 .75.75 0 0 1 1.5 0m-2.392 4.09a.9.9 0 0 0-.495-.279c-.656-.119-1.212.562-.791 1.08C5.895 14.402 6.906 15 8 15s2.105-.597 2.928-1.61c.42-.517-.135-1.198-.791-1.079a.9.9 0 0 0-.495.28c-.585.662-1.172.909-1.642.909s-1.057-.247-1.642-.91"/></svg>