<svg xmlns="http://www.w3.org/2000/svg" viewBox="0 0 24 24"><path fill-rule="evenodd" d="M5.277 8.298c.262-1.673.665-2.954 1.016-3.836.395-.998 1.18-1.776 2.216-2.053C9.317 2.193 10.466 2 12 2s2.683.192 3.491.408c1.037.277 1.82 1.055 2.217 2.053.35.882.753 2.163 1.015 3.836C20.736 9.213 22 10.533 22 12c0 2.761-4.477 5-10 5S2 14.761 2 12c0-1.467 1.264-2.787 3.277-3.702M9.5 7.8a1 1 0 0 0 .951-.69C10.746 7.053 11.234 7 12 7c.768 0 1.18.055 1.38.097.066.154.12.338.12.503 0 .14-.036.355-.096.6h-.757A1.647 1.647 0 0 0 11 9.847V10a1 1 0 0 0 1.98.2h.469c.816 0 1.632-.513 1.867-1.407.085-.32.184-.772.184-1.193a3.35 3.35 0 0 0-.31-1.353l-.008-.019c-.071-.159-.309-.691-.867-.929C13.873 5.111 13.171 5 12 5c-1.246 0-2 .127-2.472.282C8.73 5.544 8.5 6.29 8.5 6.782V6.8a1 1 0 0 0 1 1M12 14a1 1 0 1 0 0-2 1 1 0 0 0 0 2m0 8c-2.254 0-4.26-1.522-5.54-3.886 1.586.56 3.491.886 5.54.886s3.954-.326 5.54-.886C16.26 20.478 14.254 22 12 22"/></svg>