<svg xmlns="http://www.w3.org/2000/svg" viewBox="0 0 24 24"><path d="M16.785 16.5a1.25 1.25 0 1 1-2.5 0 1.25 1.25 0 0 1 2.5 0"/><path fill-rule="evenodd" d="M18.293 5.293a1 1 0 1 1 1.414 1.414l-5.331 5.332c1.148.038 2.126.101 2.93.17 1.251.109 1.877.162 2.637.882.761.719.83 1.199.967 2.159.055.39.09.809.09 1.25s-.035.86-.09 1.25c-.137.96-.206 1.44-.967 2.16-.76.718-1.386.772-2.636.88-1.313.113-3.084.21-5.307.21s-3.995-.097-5.307-.21c-1.25-.108-1.875-.162-2.636-.88-.76-.72-.83-1.2-.966-2.158a8.8 8.8 0 0 1-.001-2.504c.138-.959.206-1.438.967-2.157.76-.72 1.386-.773 2.636-.881a55 55 0 0 1 2.931-.171L4.293 6.707a1 1 0 0 1 1.414-1.414l5.586 5.586a1 1 0 0 0 1.414 0zM12 14c-2.165 0-3.88.094-5.136.202-.323.028-.553.049-.75.074a3 3 0 0 0-.372.068c-.075.021-.144.042-.311.2a1.6 1.6 0 0 0-.201.218.2.2 0 0 0-.028.048 1 1 0 0 0-.047.184c-.026.13-.048.284-.085.537-.043.307-.07.632-.07.969s.027.662.07.968c.037.254.06.408.085.538.023.119.04.166.047.184.004.01.008.021.028.048.024.034.08.103.201.218.167.158.236.179.311.2.07.02.18.044.372.068.197.026.427.046.75.074A60 60 0 0 0 12 19a60 60 0 0 0 5.135-.202c.324-.028.553-.048.751-.074.192-.024.302-.047.372-.067.075-.022.145-.043.311-.2.122-.116.178-.186.202-.219a.2.2 0 0 0 .027-.048c.007-.018.024-.066.047-.184.026-.13.049-.285.085-.538q.068-.46.07-.968c0-.337-.026-.662-.07-.967a11 11 0 0 0-.085-.539 1 1 0 0 0-.046-.184.2.2 0 0 0-.028-.048 1.6 1.6 0 0 0-.202-.218c-.166-.158-.236-.179-.311-.2a2.5 2.5 0 0 0-.372-.068 20 20 0 0 0-.751-.074A60 60 0 0 0 12 14"/></svg>