<svg xmlns="http://www.w3.org/2000/svg" viewBox="0 0 16 16"><path fill-rule="evenodd" d="M13.28 3.22a.75.75 0 0 0-1.06 0L8.412 7.027a.583.583 0 0 1-.825 0L3.78 3.22a.75.75 0 0 0-1.06 1.06l3.744 3.744c-.787.026-1.454.069-2.002.116-.834.072-1.25.108-1.757.587-.507.48-.553.799-.645 1.438a6 6 0 0 0 0 1.67c.092.639.138.959.645 1.438.507.48.923.515 1.757.587.875.076 2.056.14 3.538.14s2.663-.064 3.538-.14c.834-.072 1.25-.108 1.758-.587.507-.48.552-.8.644-1.44a6 6 0 0 0 0-1.667c-.092-.64-.137-.96-.644-1.439s-.924-.515-1.758-.587a38 38 0 0 0-2.002-.116L13.28 4.28a.75.75 0 0 0 0-1.06m-2.923 8.679a.9.9 0 1 0 0-1.8.9.9 0 0 0 0 1.8"/></svg>