<svg xmlns="http://www.w3.org/2000/svg" viewBox="0 0 24 24"><path fill-rule="evenodd" d="M19.707 5.293a1 1 0 0 0-1.414 0l-5.586 5.586a1 1 0 0 1-1.414 0L5.707 5.293a1 1 0 0 0-1.414 1.414l5.331 5.332a56 56 0 0 0-2.931.17c-1.25.109-1.875.162-2.636.882-.76.719-.83 1.198-.966 2.157a8.8 8.8 0 0 0-.001 2.504c.138.959.206 1.439.967 2.158.76.718 1.386.772 2.636.88 1.312.113 3.084.21 5.307.21s3.994-.097 5.307-.21c1.25-.108 1.876-.162 2.636-.88.761-.72.83-1.2.967-2.16.055-.39.09-.809.09-1.25s-.035-.86-.09-1.25c-.137-.96-.206-1.44-.967-2.16-.76-.719-1.386-.772-2.636-.88a56 56 0 0 0-2.931-.171l5.331-5.332a1 1 0 0 0 0-1.414M15.535 17.75a1.25 1.25 0 1 0 0-2.5 1.25 1.25 0 0 0 0 2.5"/></svg>