<svg xmlns="http://www.w3.org/2000/svg" viewBox="0 0 24 24"><path fill-rule="evenodd" d="M8.086 4.185A4 4 0 0 0 8 5c0 .292.035.568.086.815q.406.044.961.085A2.105 2.105 0 0 1 11 8q0 .26.004.505a2.66 2.66 0 0 1-2.381 2.688c-.878.093-1.315.144-1.635.23-.22.058-.293.109-.386.199a.7.7 0 0 0-.209.356c-.085.28-.141.667-.25 1.49A16 16 0 0 0 6 15.5c0 .676.057 1.37.144 2.033.108.822.164 1.208.25 1.489a.7.7 0 0 0 .208.356c.093.09.166.141.386.2.32.085.757.136 1.635.229 1.046.11 2.22.193 3.377.193s2.33-.083 3.377-.193c.878-.093 1.315-.144 1.635-.23.22-.058.293-.109.386-.199a.7.7 0 0 0 .209-.356c.085-.28.141-.667.25-1.49.086-.662.143-1.356.143-2.032s-.057-1.37-.144-2.033c-.108-.822-.164-1.208-.25-1.489a.7.7 0 0 0-.209-.356c-.092-.09-.165-.141-.385-.2-.32-.085-.757-.136-1.635-.229a2.66 2.66 0 0 1-2.38-2.688Q13 8.26 13 8c0-1.105.854-2.02 1.953-2.1q.555-.041.96-.085A4 4 0 0 0 16 5a4 4 0 0 0-.086-.815C15.08 4.096 13.773 4 12 4s-3.08.096-3.914.185M17.317 7.4a1.36 1.36 0 0 0 .421-.65A6.2 6.2 0 0 0 18 5c0-.686-.125-1.293-.262-1.75-.17-.57-.675-.942-1.266-1.014C15.595 2.129 14.1 2 12 2s-3.595.13-4.472.236c-.59.072-1.096.443-1.266 1.013A6.2 6.2 0 0 0 6 5c0 .686.126 1.294.262 1.751.078.261.226.48.42.649.173.148.381.256.61.318q.114.03.236.046a26 26 0 0 0 1.374.131c.055.004.098.05.098.105q0 .276.004.536a.66.66 0 0 1-.591.668 49 49 0 0 0-1.075.123c-.367.05-.681.108-.961.19a2.66 2.66 0 0 0-1.17.673c-.745.726-.846 1.49-1.046 3.017C4.065 13.933 4 14.717 4 15.5s.065 1.567.16 2.293c.201 1.527.302 2.29 1.046 3.017.745.726 1.566.813 3.207.986A35 35 0 0 0 12 22c1.247 0 2.494-.089 3.587-.204 1.641-.173 2.462-.26 3.207-.986s.845-1.49 1.045-3.017c.096-.726.161-1.51.161-2.293s-.065-1.567-.16-2.293c-.201-1.527-.302-2.29-1.046-3.017a2.66 2.66 0 0 0-1.17-.673 6.6 6.6 0 0 0-.962-.19l-.182-.023a49 49 0 0 0-.893-.1.66.66 0 0 1-.591-.668Q15 8.276 15 8c0-.055.043-.1.098-.105a32 32 0 0 0 1.374-.131q.12-.015.237-.046c.228-.061.436-.17.608-.318"/></svg>