<svg xmlns="http://www.w3.org/2000/svg" viewBox="0 0 16 16"><path fill-rule="evenodd" d="M2.847 7.321c.357-.341.736-.477 1.303-.564l.255-.034.02-.003.356-.039.314-.031a.453.453 0 0 0 .407-.458L5.501 6a.65.65 0 0 0-.579-.648L4.6 5.315a1.2 1.2 0 0 1-.328-.09 1 1 0 0 1-.56-.619A4.6 4.6 0 0 1 3.5 3.25c0-.537.102-1.01.209-1.357.123-.398.476-.658.89-.71C5.25 1.103 6.387 1 8 1s2.75.102 3.4.183c.414.051.768.311.89.709.108.348.21.82.21 1.357a4.7 4.7 0 0 1-.21 1.357 1 1 0 0 1-.56.619 1.2 1.2 0 0 1-.33.09l-.37.044A.65.65 0 0 0 10.5 6l-.001.192a.453.453 0 0 0 .407.458l.314.031q.189.02.357.04l.019.002q.133.016.255.034c.567.087.946.223 1.303.564.525.503.597 1.012.742 2.03.063.445.105.921.105 1.397s-.042.952-.105 1.398c-.145 1.018-.217 1.526-.742 2.029s-1.1.559-2.248.671C10.035 14.931 9.018 15 8 15s-2.035-.069-2.905-.154c-1.149-.112-1.723-.169-2.248-.671-.525-.503-.597-1.011-.741-2.03A10 10 0 0 1 2 10.749a10 10 0 0 1 .106-1.397c.144-1.018.216-1.527.741-2.03m8.072-3.46.016-.002c.039-.184.065-.391.065-.61s-.026-.426-.065-.61A28 28 0 0 0 8 2.5a28 28 0 0 0-2.935.139 3 3 0 0 0-.065.61c0 .219.027.426.065.61l.016.002A2.15 2.15 0 0 1 7 6l.001.173a1.953 1.953 0 0 1-1.76 1.97c-.618.06-.916.093-1.13.149-.141.036-.177.064-.228.113a.4.4 0 0 0-.122.195c-.054.17-.093.408-.171.961-.056.394-.091.797-.091 1.187s.035.793.09 1.187c.08.553.118.791.172.96.03.092.05.127.122.197.051.048.087.076.227.112.215.056.513.089 1.13.15.838.081 1.805.146 2.759.146s1.92-.065 2.758-.147c.618-.06.916-.093 1.13-.149.141-.036.177-.064.228-.113a.4.4 0 0 0 .122-.195c.054-.17.093-.408.171-.961.056-.394.091-.797.091-1.187s-.035-.793-.09-1.187c-.08-.553-.118-.791-.172-.96a.4.4 0 0 0-.122-.196c-.051-.05-.087-.077-.227-.113-.215-.056-.513-.089-1.13-.15a1.953 1.953 0 0 1-1.761-1.97L8.999 6a2.15 2.15 0 0 1 1.92-2.14"/></svg>