<svg xmlns="http://www.w3.org/2000/svg" viewBox="0 0 16 16"><path d="M4.6 1.183C5.25 1.102 6.387 1 8 1s2.75.102 3.4.183c.414.051.768.311.89.709.108.348.21.82.21 1.357a4.7 4.7 0 0 1-.21 1.357c-.122.398-.476.658-.89.71q-.338.042-.851.086A.6.6 0 0 0 10 6c0 .32.243.59.562.618l.343.032c1.149.112 1.723.169 2.248.671.525.503.597 1.012.742 2.03.063.445.105.921.105 1.397s-.042.952-.105 1.398c-.145 1.018-.217 1.526-.742 2.029s-1.1.559-2.248.671C10.035 14.931 9.018 15 8 15s-2.035-.069-2.905-.154c-1.149-.112-1.723-.169-2.248-.671-.525-.503-.597-1.011-.741-2.03A10 10 0 0 1 2 10.749a10 10 0 0 1 .106-1.397c.144-1.018.216-1.527.741-2.03s1.1-.559 2.248-.671l.343-.032A.62.62 0 0 0 6 6a.6.6 0 0 0-.549-.598 20 20 0 0 1-.852-.087c-.413-.051-.766-.31-.889-.709A4.6 4.6 0 0 1 3.5 3.25c0-.537.103-1.01.21-1.357.123-.398.476-.658.89-.71"/></svg>