<svg xmlns="http://www.w3.org/2000/svg" viewBox="0 0 16 16"><path d="M11.001 1.406c0-.32-.363-.514-.64-.341-1.575.984-2.362 1.476-2.362 2.186s.787 1.203 2.362 2.187c.277.173.64-.02.64-.341V4.03c.609.026 1.186.066 1.682.108.236.02.428.103.554.2.117.09.171.187.192.29a3.4 3.4 0 0 1 .071.656c0 .213-.028.448-.078.69a.48.48 0 0 1-.186.284c-.12.094-.3.174-.524.195q-.241.024-.506.045a.764.764 0 0 0-.705.758c0 .432.363.775.793.74q.296-.024.563-.05c.973-.094 1.837-.711 2.034-1.67.065-.313.11-.652.11-.992 0-.323-.041-.647-.1-.948-.196-.984-1.093-1.608-2.092-1.692A43 43 0 0 0 11 2.529z"/><path fill-rule="evenodd" d="M7.117 4.497c-.248-.41-.608-.763-.79-.942l-.061-.06c-.415-.417-1.102-.995-2.1-.995-.847 0-1.635.413-2.137.941-.21.22-.512.561-.718 1.033-.524 1.198-.345 2.587.23 3.746.471.95 1.291 2.21 2.712 3.635 1.392 1.396 2.508 2.096 3.448 2.573 1.193.605 2.638.805 3.866.232.354-.165.656-.387.963-.688.41-.394.662-.884.803-1.291.066-.193.154-.483.166-.826.024-.72-.297-1.271-.538-1.595a5.3 5.3 0 0 0-.65-.697l-.023-.02-.035-.034c-.112-.11-.438-.431-.771-.634a1.74 1.74 0 0 0-1.784.002 3.4 3.4 0 0 0-.416.306 18 18 0 0 0-.354.305L6.496 7.056c.148-.156.428-.46.619-.78a1.75 1.75 0 0 0 .002-1.78M5.303 6.134l-.442.462a.684.684 0 0 0 .01.957l3.542 3.54a.68.68 0 0 0 .926.034q.18-.156.358-.317.27-.242.546-.475c.114-.096.185-.147.228-.173a.24.24 0 0 1 .232-.005c.162.098.305.236.444.37l.122.116.002.002c.315.292.745.69.73 1.16a1.3 1.3 0 0 1-.085.386 1.8 1.8 0 0 1-.43.704 2 2 0 0 1-.552.406c-.692.322-1.64.254-2.554-.21-.81-.412-1.795-1.02-3.066-2.295-1.31-1.314-2.033-2.442-2.43-3.243-.434-.875-.5-1.79-.2-2.478.101-.23.259-.42.43-.599.26-.274.671-.476 1.052-.476.378 0 .696.21 1.038.553l.082.082c.197.195.406.404.548.638a.25.25 0 0 1-.005.233c-.11.184-.263.347-.412.506z"/></svg>