<svg xmlns="http://www.w3.org/2000/svg" viewBox="0 0 24 24"><path d="M16 2.541c0-.427-.484-.685-.853-.455C13.05 3.398 12 4.054 12 5s1.05 1.602 3.147 2.914c.369.23.853-.028.853-.455V6.135c.937.038 1.825.098 2.583.16.86.07 1.25.542 1.319.887.064.322.1.634.1.918 0 .3-.04.628-.11.967-.072.343-.45.795-1.264.871l-.687.06c-.527.043-.939.48-.939 1.008a.986.986 0 0 0 1.06.989q.395-.032.752-.065c1.445-.136 2.74-1.035 3.036-2.456a7 7 0 0 0 .152-1.374 6.7 6.7 0 0 0-.14-1.31c-.29-1.458-1.634-2.367-3.116-2.488A67 67 0 0 0 16 4.133z"/><path fill-rule="evenodd" d="M3.461 5.323c-.304.317-.728.799-1.017 1.46-.74 1.694-.494 3.674.334 5.341.684 1.38 1.879 3.22 3.957 5.303 2.034 2.04 3.66 3.059 5.027 3.753 1.719.872 3.78 1.148 5.515.339.496-.232.92-.543 1.361-.974.573-.552.931-1.243 1.13-1.821a3.8 3.8 0 0 0 .235-1.257 3.2 3.2 0 0 0-.411-1.559c-.527-.957-1.362-1.666-1.855-2.085l-.07-.06a4 4 0 0 0-.536-.399c-.83-.505-1.78-.378-2.414.004a5 5 0 0 0-.586.433c-.209.174-.44.377-.664.574L9.6 10.508c.237-.26.445-.492.612-.693.165-.2.303-.384.414-.568.239-.399.318-.81.329-1.13a2.3 2.3 0 0 0-.325-1.275 4 4 0 0 0-.398-.537c-.26-.306-.535-.61-.826-.901-.44-.441-1.062-.978-1.898-1.242-.927-.293-1.84-.17-2.677.208-.44.199-.939.499-1.369.953m4.022 4.503.652-.68c.237-.262.402-.446.536-.607.133-.161.201-.258.238-.32a.37.37 0 0 0 .008-.342 2.3 2.3 0 0 0-.212-.28 13 13 0 0 0-.717-.781c-.728-.731-1.38-1.053-2.336-.622-.276.124-.537.29-.742.508-.254.264-.486.544-.634.882-.444 1.015-.346 2.363.293 3.652.586 1.18 1.651 2.843 3.582 4.78 1.873 1.878 3.323 2.775 4.517 3.38 1.347.684 2.743.786 3.763.31.25-.117.495-.283.815-.597.286-.273.503-.664.632-1.038.153-.443.194-.776-.038-1.198-.345-.627-.931-1.128-1.47-1.587a2.3 2.3 0 0 0-.279-.213.35.35 0 0 0-.34.008 3 3 0 0 0-.337.254c-.273.227-.538.464-.804.7q-.263.236-.53.468a1 1 0 0 1-1.363-.05L7.5 11.236a1.01 1.01 0 0 1-.016-1.41"/></svg>