<svg xmlns="http://www.w3.org/2000/svg" viewBox="0 0 24 24"><path d="M16 2.541c0-.427-.484-.685-.853-.455C13.05 3.398 12 4.054 12 5s1.05 1.602 3.147 2.914c.369.23.853-.028.853-.455V6.135c.937.038 1.825.098 2.583.16.86.07 1.25.542 1.319.887.064.322.1.634.1.918 0 .3-.04.628-.11.967-.072.343-.45.795-1.264.871l-.687.06c-.527.043-.939.48-.939 1.008a.986.986 0 0 0 1.06.989q.395-.032.752-.065c1.445-.136 2.74-1.035 3.036-2.456a7 7 0 0 0 .152-1.374 6.7 6.7 0 0 0-.14-1.31c-.29-1.458-1.634-2.367-3.116-2.488A67 67 0 0 0 16 4.133zM6.073 4.052a2.3 2.3 0 0 1 1.314.101 5.2 5.2 0 0 1 1.73 1.133c.866.867 1.3 1.3 1.321 2.337.022 1.036-.445 1.545-1.38 2.562a15 15 0 0 1-.858.86l.305.36 4.091 4.09.358.304c.272-.296.564-.587.86-.859 1.017-.934 1.526-1.402 2.563-1.38 1.036.022 1.47.456 2.337 1.324a5.2 5.2 0 0 1 1.135 1.73c.162.401.195.893.1 1.315-.154.69-.525 1.782-1.4 2.618-.441.432-.866.744-1.364.975-1.73.805-3.779.526-5.48-.335-1.36-.688-2.977-1.697-4.999-3.72-2.022-2.021-3.203-3.81-3.89-5.169-.862-1.702-1.14-3.751-.336-5.48.23-.495.539-.918.967-1.357.837-.88 1.933-1.253 2.626-1.409"/></svg>