<svg xmlns="http://www.w3.org/2000/svg" viewBox="0 0 16 16"><path d="M11.001 1.406c0-.32-.363-.514-.64-.341-1.575.984-2.362 1.476-2.362 2.186s.787 1.203 2.362 2.187c.277.173.64-.02.64-.341V4.03c.609.026 1.186.066 1.682.108.236.02.428.103.554.2.117.09.171.187.192.29a3.4 3.4 0 0 1 .071.656c0 .213-.028.448-.078.69a.48.48 0 0 1-.186.284c-.12.094-.3.174-.524.195q-.241.024-.506.045a.764.764 0 0 0-.705.758c0 .432.363.775.793.74q.296-.024.563-.05c.973-.094 1.837-.711 2.034-1.67.065-.313.11-.652.11-.992 0-.323-.041-.647-.1-.948-.196-.984-1.093-1.608-2.092-1.692A43 43 0 0 0 11 2.529zM3.714 3.035c.28-.063.609-.04.876.067a3.5 3.5 0 0 1 1.153.755c.578.578.867.867.881 1.558.015.69-.297 1.03-.92 1.708a10 10 0 0 1-.572.574l.204.24 2.727 2.727.238.202q.275-.298.574-.573c.678-.623 1.017-.934 1.708-.92.69.015.98.304 1.559.883.397.397.628.838.756 1.153.108.268.13.596.067.877-.103.46-.35 1.188-.933 1.745a3.2 3.2 0 0 1-.91.65c-1.153.537-2.52.35-3.654-.223-.906-.459-1.984-1.131-3.332-2.48s-2.135-2.54-2.594-3.446C.968 7.397.782 6.03 1.318 4.878a3.2 3.2 0 0 1 .646-.904c.557-.587 1.288-.836 1.75-.94"/></svg>