<svg xmlns="http://www.w3.org/2000/svg" viewBox="0 0 17 17"><path d="M8.762 3.718q-.566.001-1.133.04c-1.944.129-2.23.208-2.684.66-.452.453-.531.74-.66 2.684a17 17 0 0 0-.037 1.403c.7.017 1.086.087 1.25.369q.018.03.032.061c.182.394-.17.89-.872 1.881l-.139.196c-.485.685-.728 1.028-1.066 1.028s-.581-.343-1.067-1.028l-.139-.196c-.702-.991-1.054-1.487-.871-1.88l.031-.062c.164-.282.549-.352 1.247-.37a17 17 0 0 1 .04-1.508c.123-1.843.184-2.764 1.125-3.704.94-.94 1.861-1.002 3.704-1.124q.613-.042 1.24-.043c.416 0 .832.016 1.239.043 1.843.122 2.764.183 3.704 1.124.94.94 1.002 1.861 1.124 3.704q.042.612.043 1.24c0 .416-.016.832-.043 1.239-.122 1.843-.184 2.764-1.124 3.704s-1.861 1.002-3.704 1.124a19 19 0 0 1-1.24.043c-.416 0-.832-.016-1.239-.043-1.266-.084-2.097-.14-2.798-.47a.797.797 0 1 1 .604-1.473c.362.197.905.26 2.3.353q.567.039 1.133.04.567-.001 1.134-.04c1.944-.13 2.23-.208 2.683-.66s.532-.74.661-2.684q.039-.567.04-1.134-.001-.566-.04-1.133c-.129-1.944-.208-2.23-.66-2.684-.453-.452-.74-.531-2.684-.66q-.567-.039-1.134-.04"/><path d="M7.702 6.113v2.353a.8.8 0 0 0 .233.597L9.26 10.39a.797.797 0 0 0 1.127-1.127L9.295 8.17V6.113a.797.797 0 1 0-1.593 0"/></svg>