<svg xmlns="http://www.w3.org/2000/svg" viewBox="0 0 44 44"><path d="M22.498 9c-.907 0-1.822.032-2.727.088-4.948.308-6.131.493-7.661 2.023-1.531 1.531-1.716 2.714-2.024 7.662-.056.905-.088 1.82-.088 2.727q0 1 .049 2c2.14.026 3.286.166 3.748.948q.045.076.083.156c.471 1-.438 2.26-2.257 4.781l-.359.497c-1.257 1.742-1.885 2.613-2.761 2.613s-1.504-.871-2.761-2.613l-.359-.497c-1.819-2.52-2.728-3.781-2.257-4.78q.038-.08.083-.157C3.672 23.66 4.83 23.524 7 23.5h.043a45 45 0 0 1-.046-2c0-.978.035-1.955.094-2.913.296-4.763.444-7.145 2.896-9.597s4.834-2.6 9.597-2.896C20.543 6.034 21.52 6 22.498 6s1.955.035 2.913.094c4.763.296 7.145.444 9.597 2.896s2.6 4.834 2.896 9.597c.06.958.094 1.935.094 2.913s-.035 1.955-.094 2.913c-.296 4.763-.444 7.145-2.896 9.597s-4.834 2.6-9.597 2.896c-.958.06-1.935.094-2.913.094s-1.955-.035-2.913-.094c-3.26-.203-5.404-.336-7.22-1.186a1.5 1.5 0 1 1 1.195-2.75c1.18.577 2.802.73 6.211.942.905.056 1.82.088 2.727.088s1.822-.032 2.727-.088c4.948-.308 6.131-.493 7.662-2.023s1.715-2.714 2.023-7.662c.056-.905.088-1.82.088-2.727s-.032-1.822-.088-2.727c-.308-4.948-.493-6.131-2.023-7.662s-2.714-1.715-7.662-2.023A44 44 0 0 0 22.498 9"/><path d="M23.499 13.5a1.5 1.5 0 0 0-3 0V22c0 .398.158.78.44 1.06l4.5 4.5a1.5 1.5 0 0 0 2.12-2.12l-4.06-4.061z"/></svg>