<svg xmlns="http://www.w3.org/2000/svg" viewBox="0 0 32 32"><path d="M16.498 6.5c-.717 0-1.442.027-2.157.075-3.63.24-4.37.382-5.378 1.39-1.007 1.008-1.15 1.747-1.39 5.378a32 32 0 0 0-.075 2.157q0 .75.037 1.5c1.596.023 2.455.139 2.806.736q.035.06.064.122c.364.777-.339 1.758-1.744 3.718l-.277.386c-.972 1.356-1.457 2.033-2.134 2.033s-1.162-.677-2.134-2.033l-.277-.386c-1.405-1.96-2.108-2.94-1.744-3.718q.029-.062.064-.122C2.512 17.135 3.382 17.021 5 17h.033a34 34 0 0 1 .045-3.822c.23-3.472.345-5.208 2.117-6.98s3.509-1.888 6.981-2.118c.762-.05 1.542-.08 2.322-.08s1.56.03 2.322.08c3.472.23 5.208.345 6.98 2.117s1.888 3.509 2.118 6.981c.05.762.08 1.542.08 2.322s-.03 1.56-.08 2.322c-.23 3.472-.345 5.208-2.117 6.98s-3.509 1.888-6.981 2.118c-.762.05-1.542.08-2.322.08s-1.56-.03-2.322-.08c-1.78-.118-3.104-.206-4.21-.502v-.001a1.25 1.25 0 1 1 .664-2.41c.766.2 1.865.296 3.711.418.715.048 1.44.075 2.157.075s1.442-.027 2.157-.075c3.63-.24 4.37-.383 5.378-1.39 1.008-1.008 1.15-1.747 1.39-5.378.048-.715.075-1.44.075-2.157s-.027-1.442-.075-2.157c-.24-3.63-.382-4.37-1.39-5.378s-1.747-1.15-5.378-1.39a33 33 0 0 0-2.157-.075"/><path d="M17.25 10.25a1.25 1.25 0 1 0-2.5 0V16c0 .331.132.649.366.883l2.747 2.75a1.25 1.25 0 0 0 1.768-1.766l-2.381-2.384z"/></svg>