<svg xmlns="http://www.w3.org/2000/svg" viewBox="0 0 24 24"><path d="M5.496 12.505v-.753c0-.571.023-1.148.062-1.717.19-2.738.3-3.246 1.013-3.96.714-.714 1.222-.824 3.96-1.013C11.1 5.022 11.677 5 12.248 5s1.148.023 1.717.062c2.738.19 3.246.3 3.96 1.013.713.714.824 1.222 1.013 3.96.04.569.062 1.146.062 1.717 0 .57-.023 1.148-.062 1.717-.19 2.738-.3 3.246-1.013 3.96-.714.713-1.222.824-3.96 1.013-.569.039-1.146.062-1.717.062-1.223 0-2.466-.105-3.584-.248-.537-.068-.833-.108-1.071-.175a1 1 0 0 0-.685 1.876c.025.008.05.02.075.028a1 1 0 0 0 .088.026c.387.108.789.159 1.34.23a31 31 0 0 0 3.837.263c.624 0 1.247-.025 1.855-.067 2.608-.18 3.913-.27 5.236-1.594 1.324-1.323 1.414-2.628 1.594-5.236.042-.608.067-1.231.067-1.855s-.025-1.247-.067-1.855c-.18-2.608-.27-3.913-1.594-5.236-1.323-1.324-2.628-1.414-5.236-1.594A27 27 0 0 0 12.248 3c-.623 0-1.247.025-1.855.067-2.608.18-3.912.27-5.236 1.594-1.324 1.323-1.414 2.628-1.594 5.236a27 27 0 0 0-.067 1.855v.753c-1.065.02-1.643.11-1.884.524a1 1 0 0 0-.045.087c-.257.556.24 1.256 1.231 2.656l.196.276C3.68 17.016 4.022 17.5 4.5 17.5s.82-.484 1.506-1.452l.196-.276c.992-1.4 1.488-2.1 1.23-2.656a1 1 0 0 0-.044-.086c-.241-.416-.822-.505-1.892-.525"/><path d="M11 8v3.957a1 1 0 0 0 .292.751l1.999 1.999a1 1 0 0 0 1.414-1.414L13 11.588V8a1 1 0 1 0-2 0"/></svg>