<svg xmlns="http://www.w3.org/2000/svg" viewBox="0 0 32 32"><path fill-rule="evenodd" d="M8.037 3.97c2.03-1.15 4.715.462 10.087 3.685l1.713 1.028c5.446 3.267 8.169 4.901 8.169 7.317s-2.723 4.05-8.17 7.317l-1.712 1.028c-5.372 3.223-8.058 4.835-10.087 3.686s-2.03-4.281-2.03-10.546v-2.97c0-6.265 0-9.397 2.03-10.546m16.34 10.622c-1.184-.973-3.031-2.088-5.826-3.766L16.838 9.8c-2.759-1.655-4.584-2.743-5.969-3.317-.668-.277-1.076-.364-1.315-.38-.188-.012-.244.02-.285.043-.042.023-.097.055-.183.222-.11.213-.245.608-.352 1.324-.22 1.482-.226 3.607-.226 6.824v2.97c0 3.217.007 5.342.226 6.824.107.716.242 1.11.352 1.324.086.167.141.199.183.222.041.024.097.055.285.043.239-.015.647-.103 1.315-.38 1.385-.574 3.21-1.662 5.969-3.317l1.712-1.027c2.796-1.677 4.643-2.793 5.826-3.766 1.134-.932 1.13-1.31 1.13-1.402v-.012c0-.092.004-.47-1.13-1.402"/></svg>