<svg xmlns="http://www.w3.org/2000/svg" viewBox="0 0 16 16"><path fill-rule="evenodd" d="m8.294 10.874.836-.502c1.405-.843 2.322-1.39 2.896-1.861.275-.226.396-.374.447-.455.032-.052.032-.06 0-.112-.051-.082-.172-.23-.447-.455-.574-.472-1.491-1.019-2.896-1.861l-.836-.502c-1.386-.832-2.288-1.364-2.96-1.642-.325-.135-.497-.167-.574-.171-.036.068-.098.232-.15.581-.106.719-.11 1.759-.11 3.376v1.46c0 1.617.004 2.657.11 3.376.052.35.114.512.15.581.077-.004.249-.036.575-.171.67-.278 1.573-.81 2.96-1.642M14 8c0-1.208-1.375-2.025-4.098-3.659l-.836-.501C6.38 2.228 5.029 1.422 4.015 1.997 3 2.57 3 4.137 3 7.27v1.46c0 3.133 0 4.699 1.015 5.273 1.014.575 2.365-.231 5.05-1.843l.837-.501C12.625 10.025 14 9.208 14 7.999"/></svg>