<svg xmlns="http://www.w3.org/2000/svg" viewBox="0 0 24 24"><path fill-rule="evenodd" d="M18.199 11.04c-.88-.721-2.275-1.553-4.375-2.813l-1.767-1.06c-2.072-1.243-3.431-2.053-4.459-2.48-.494-.204-.786-.264-.947-.275-.109-.007-.132.009-.141.015l-.003.001-.002.002c-.01.004-.036.017-.086.114-.073.142-.172.424-.25.953C6.005 6.597 6 8.18 6 10.597v2.806c0 2.417.005 4 .169 5.1.078.53.177.81.25.953.05.097.076.11.086.114l.002.002.003.001c.009.006.032.022.141.015.16-.01.453-.07.947-.276 1.028-.426 2.387-1.236 4.46-2.48l1.766-1.06c2.1-1.259 3.496-2.09 4.374-2.813.84-.69.804-.942.802-.958v-.002c.002-.016.037-.269-.802-.958M21 12c0-1.812-2.062-3.037-6.147-5.488l-1.767-1.06C9.058 3.035 7.044 1.826 5.522 2.688S4 5.898 4 10.598v2.805c0 4.698 0 7.047 1.522 7.909s3.536-.347 7.564-2.764l1.767-1.06C18.938 15.038 21 13.812 21 12"/></svg>