<svg xmlns="http://www.w3.org/2000/svg" viewBox="0 0 44 44"><path fill-rule="evenodd" d="m32.939 15.038 1.824 1.675a2.5 2.5 0 0 1 .368 3.262c-.292.421-.71 1.009-1.243 1.72v7.23a1.5 1.5 0 0 1-1.493 1.508 1.5 1.5 0 0 1-1.494-1.508v-3.504a72 72 0 0 1-2.08 2.327l.089 7.724a1.5 1.5 0 0 1-1.478 1.523 1.5 1.5 0 0 1-1.51-1.492l-.058-4.781a49 49 0 0 1-3.315 2.85C19.477 35.979 15.696 38 11.485 38c-1.964 0-3.331-.368-4.24-1.047C6.262 36.22 6.018 35.28 6 34.68a1.87 1.87 0 0 1 .568-1.385L26.884 13.27l6.438-6.463a2.725 2.725 0 0 1 3.792-.075 2.787 2.787 0 0 1 .086 3.992zM9.4 34.718 28.947 15.45l3.467 3.181a69 69 0 0 1-7.88 9.21 47 47 0 0 1-3.817 3.35c-2.83 2.217-5.97 3.794-9.232 3.794-1.077 0-1.718-.135-2.084-.267"/></svg>