<svg xmlns="http://www.w3.org/2000/svg" viewBox="0 0 24 24"><path fill-rule="evenodd" d="M15.874 5.756 18.14 3.49a1.674 1.674 0 0 1 2.37.002c.654.656.654 1.72 0 2.375l-2.263 2.267.725.728c.65.65.78 1.69.23 2.479q-.16.227-.37.519v4.194a.988.988 0 1 1-1.974 0V14.35q-.46.535-.987 1.102v4.064a.988.988 0 1 1-1.974 0v-2.112a21 21 0 0 1-1.749 1.407C10.405 20.065 8.283 21 6.001 21c-1.079 0-1.88-.169-2.403-.585a1.55 1.55 0 0 1-.552-.832 1.5 1.5 0 0 1-.003-.721 1.27 1.27 0 0 1 .343-.596L15.173 6.453l.698-.7zm-.003 2.795L5.446 19q.228.022.555.023c1.744 0 3.47-.72 4.997-1.818a20 20 0 0 0 2.214-1.861 36 36 0 0 0 4.347-5.1z"/></svg>