<svg xmlns="http://www.w3.org/2000/svg" viewBox="0 0 44 44"><path fill-rule="evenodd" d="m26.823 13.504 6.498-6.679a2.68 2.68 0 0 1 3.793-.076c1.147 1.09 1.186 2.947.086 4.088l-5.106 5.293-.02-.005 1.364 1.247c.664.608.868 1.61.45 2.442v9.663c0 .853-.67 1.544-1.495 1.544S30.9 30.33 30.9 29.477v-5.355a60 60 0 0 1-1.992 2.453v9.622c0 .853-.669 1.544-1.494 1.544s-1.494-.69-1.494-1.544v-6.384a52 52 0 0 1-4.169 3.76C18.719 36.006 15.042 38 10.99 38c-1.915 0-3.158-.369-3.946-.97-.836-.64-1.029-1.44-1.042-1.93-.014-.48.22-.835.42-1.036z"/></svg>