<svg xmlns="http://www.w3.org/2000/svg" viewBox="0 0 16 16"><path fill-rule="evenodd" d="m10.458 4.025 1.752-1.723a1.05 1.05 0 0 1 1.481.009 1.066 1.066 0 0 1 0 1.5L12.04 5.474l.36.329c.448.41.544 1.104.176 1.622-.097.136-.22.307-.368.505a1 1 0 0 1 .007.102v2.832a.743.743 0 0 1-.74.746.743.743 0 0 1-.742-.746V9.753q-.236.27-.494.55v2.951a.743.743 0 0 1-.74.746.743.743 0 0 1-.741-.746V11.75c-.97.8-1.955 1.328-2.75 1.667a7.6 7.6 0 0 1-2.273.535c-.343.02-.815.01-1.184-.196a1.05 1.05 0 0 1-.522-.675c-.074-.315.01-.603.113-.814a1 1 0 0 1 .078-.128 1 1 0 0 1 .108-.116l7.63-7.506zM4.043 12.42l6.45-6.345.738.676A28.4 28.4 0 0 1 8.48 9.992a9.7 9.7 0 0 1-3.051 2.051 6.3 6.3 0 0 1-1.386.376"/></svg>