<svg xmlns="http://www.w3.org/2000/svg" viewBox="0 0 24 24"><path d="M5 4a1 1 0 0 0 0 2h14a1 1 0 1 0 0-2zm0 12a1 1 0 1 0 0 2h4a1 1 0 1 0 0-2zm-2-5a1 1 0 0 1 1-1h4a1 1 0 1 1 0 2H4a1 1 0 0 1-1-1"/><path fill-rule="evenodd" d="M11.04 14.075c-.025-.352-.04-.713-.04-1.074s.015-.723.04-1.075v-.008c.061-.876.092-1.317.462-1.995.246-.452.968-1.174 1.42-1.42.68-.371 1.121-.402 2.003-.464.352-.024.713-.039 1.074-.039s.723.015 1.075.04c.882.061 1.323.092 2.003.463.452.246 1.174.968 1.42 1.42.371.68.402 1.12.464 2.002.024.352.039.714.039 1.075s-.015.723-.04 1.075c-.06.87-.091 1.311-.448 1.976l1.195 1.242a1 1 0 0 1-1.414 1.414l-1.241-1.195c-.664.357-1.104.388-1.97.448h-.008c-.352.025-.713.04-1.075.04-.36 0-.722-.015-1.074-.04h-.009c-.876-.061-1.316-.092-1.994-.462-.452-.246-1.174-.968-1.42-1.42-.37-.678-.4-1.119-.462-1.995zm1.995-2.017v.008c-.023.312-.035.627-.035.934q0 .465.034.936v.007c.034.476.05.664.081.815.019.09.044.18.136.35l.001.002q.008.013.066.088a3.4 3.4 0 0 0 .572.55l.002.001c.17.092.26.117.35.136.15.03.338.047.814.08h.008c.313.022.628.035.935.035q.465 0 .935-.034l.01-.001c.475-.033.663-.05.814-.08.09-.019.179-.044.349-.136h.001l.006-.005.005-.003.007-.004.034-.024a5 5 0 0 0 .265-.196l.05-.042.041-.05a4 4 0 0 0 .196-.264l.024-.035.003-.005.004-.006.005-.007c.092-.171.118-.261.137-.352.03-.152.047-.341.08-.818v-.003Q19 13.464 19 13q-.001-.464-.034-.935c-.034-.479-.05-.668-.081-.82a1.2 1.2 0 0 0-.137-.352l-.001-.002q-.008-.014-.066-.087a3.4 3.4 0 0 0-.572-.55l-.002-.002a1.2 1.2 0 0 0-.352-.137c-.152-.03-.342-.047-.82-.08A14 14 0 0 0 16 10c-.308 0-.623.012-.935.034-.48.034-.668.05-.82.081a1.2 1.2 0 0 0-.353.137l-.002.001q-.014.008-.087.066a3.4 3.4 0 0 0-.55.572l-.002.002c-.092.17-.117.26-.136.35-.03.151-.047.339-.08.815"/></svg>