<svg xmlns="http://www.w3.org/2000/svg" viewBox="0 0 24 24"><path d="M15 9a1 1 0 0 1-1 1h-4a1 1 0 0 1 0-2h4a1 1 0 0 1 1 1m-3 5a1 1 0 1 0 0-2h-2a1 1 0 1 0 0 2z"/><path fill-rule="evenodd" d="M20 5a1 1 0 1 0 0-2H4a1 1 0 0 0 0 2h.402c-.114.55-.168 1.174-.235 1.946A47 47 0 0 0 4 11c0 1.882.1 3.642.236 5.211l.013.155c.147 1.688.256 2.955.7 3.978.199.46.644.655 1.13.656a2.16 2.16 0 0 0 1.018-.267c.77-.421 1.605-.755 1.907-.755.333 0 1.145.31 1.916.745.327.185.704.277 1.08.277a2.23 2.23 0 0 0 1.087-.278c.77-.432 1.588-.737 1.93-.737.308 0 1.13.33 1.889.748.303.166.657.263.993.267.494.006.95-.188 1.152-.655.443-1.023.553-2.292.699-3.98l.013-.154a60 60 0 0 0 .237-5.21c0-1.55-.068-2.902-.168-4.055-.067-.772-.121-1.397-.235-1.946zm-2.47 0H6.47l-.032.096c-.13.42-.185.944-.278 2.023A45 45 0 0 0 6 11a58 58 0 0 0 .228 5.038c.11 1.27.189 2.101.317 2.718.326-.163.652-.308.953-.426a7 7 0 0 1 .651-.221c.175-.049.498-.131.855-.131.575 0 1.172.211 1.515.344.438.17.92.398 1.385.66A.2.2 0 0 0 12 19a.24.24 0 0 0 .108-.022c.467-.262.954-.49 1.396-.657.353-.133.944-.336 1.513-.336.352 0 .671.08.85.128.216.06.439.138.651.22.297.116.617.259.936.419.129-.617.207-1.447.317-2.714.132-1.523.229-3.225.229-5.038 0-1.49-.066-2.785-.16-3.881-.094-1.079-.15-1.602-.279-2.023z"/></svg>