<svg xmlns="http://www.w3.org/2000/svg" viewBox="0 0 16 16"><path fill-rule="evenodd" d="M1.5 2.75A.75.75 0 0 1 2.25 2h11.5a.75.75 0 0 1 0 1.5h-.056c.088.35.13.748.18 1.242.075.725.126 1.576.126 2.55 0 1.185-.075 2.685-.177 3.672l-.008.08c-.12 1.153-.205 1.957-.609 2.621-.139.23-.373.332-.624.335-.22.003-.453-.07-.647-.202-.629-.424-1.406-.844-1.672-.844-.288 0-1.025.435-1.658.862a1.08 1.08 0 0 1-1.205.001c-.634-.428-1.367-.868-1.647-.868-.26 0-1.05.424-1.686.85A1.17 1.17 0 0 1 3.45 14c-.263.005-.51-.097-.655-.335-.405-.665-.49-1.468-.609-2.62l-.008-.081A40 40 0 0 1 2 7.293c0-.975.05-1.826.125-2.551.051-.494.093-.892.18-1.241H2.25a.75.75 0 0 1-.75-.75M10 5.755a.75.75 0 0 1-.75.746h-2.5A.747.747 0 0 1 6 5.754C6 5.34 6.336 5 6.75 5h2.5c.414 0 .75.34.75.754M9 8.756a.745.745 0 0 1-.75.744h-1.5A.745.745 0 0 1 6 8.756C6 8.342 6.336 8 6.75 8h1.5c.414 0 .75.342.75.756"/></svg>