<svg xmlns="http://www.w3.org/2000/svg" viewBox="0 0 24 24"><path fill-rule="evenodd" d="m16.579 12.824.364-2.147Q17 10.348 17 10a4 4 0 0 0-7.946-.662l-.285 1.715-1.738-.044h-.08C5.267 11.008 4 12.32 4 13.818c0 1.004.556 1.912 1.44 2.416l.063.035.06.04c.455.305.872.384 2.555.53 1.096.095 2.39.16 3.882.16 1.05 0 2.04-.032 2.953-.085 2.656-.153 3.224-.25 3.86-.732l.028-.021.029-.02c.733-.516 1.13-1.346 1.13-1.774 0-.716-.551-1.305-1.25-1.363zm2.336-1.812q.29.024.565.096a3.37 3.37 0 0 1 2.52 3.26c0 1.237-.858 2.62-1.98 3.41-1.212.918-2.464.99-4.952 1.134-.95.055-1.976.088-3.068.088-1.55 0-2.902-.067-4.055-.167-1.575-.137-2.538-.22-3.495-.86C2.984 17.137 2 15.59 2 13.819c0-2.657 2.217-4.81 4.95-4.81l.131.001A6.002 6.002 0 0 1 19 9.991V10q-.001.518-.085 1.012"/></svg>