<svg xmlns="http://www.w3.org/2000/svg" viewBox="0 0 24 24"><path fill-rule="evenodd" d="m15.558 14.724-.184-.065a15 15 0 0 0-.374-.13v-2.585q.74-.03 1.333-.067c1.1-.068 1.651-.102 2.12-.57s.493-.947.538-1.905a9 9 0 0 0 0-.804c-.045-.958-.068-1.437-.537-1.905s-1.02-.502-2.12-.57a60 60 0 0 0-1.447-.07l-.01-.243c-.068-1.572-.102-2.359-.57-3.03s-.947-.702-1.905-.766a6 6 0 0 0-.804 0c-.958.064-1.437.096-1.905.767-.468.67-.502 1.457-.57 3.03l-.01.241q-.808.031-1.446.071c-1.1.068-1.651.102-2.12.57s-.492.947-.537 1.905a9 9 0 0 0 0 .804c.045.958.067 1.437.536 1.905s1.02.502 2.121.57q.593.037 1.333.067c0 .354.001.757.003 1.092a2 2 0 0 0-.437.003 1.05 1.05 0 0 0-.443.184c-.243.169-.385.368-.508.654-.089.208-.167.46-.267.781a9 9 0 0 0-.173.648c-.177.78-.265 1.169-.047 1.63.217.463.583.59 1.314.845q.306.106.674.226l.007.183c.068 1.572.102 2.359.57 3.03s.947.702 1.905.766a6 6 0 0 0 .804 0c.958-.064 1.437-.096 1.905-.767a2.4 2.4 0 0 0 .343-.742c.08-.292.127-.626.16-1.033.176.027.329.042.468.037.22-.008.405-.065.6-.2.419-.291.537-.672.774-1.435a9 9 0 0 0 .174-.648c.176-.779.264-1.169.047-1.63-.218-.462-.584-.59-1.315-.844m-1.2 1.705-1.4-.46c.031-1.982.042-3.965.042-5.948l1.922-.076q.717-.029 1.288-.064c.284-.018.579-.04.755-.056a11 11 0 0 0 0-1.65 27 27 0 0 0-.755-.055 58 58 0 0 0-1.398-.07l-1.845-.069-.088-2.084v-.002c-.036-.83-.059-1.287-.113-1.625a2 2 0 0 0-.047-.227 7.3 7.3 0 0 0-1.437 0 2 2 0 0 0-.048.227c-.054.338-.077.796-.112 1.625v.002l-.088 2.084-1.845.07q-.785.03-1.399.069c-.284.017-.579.039-.754.055a11 11 0 0 0 0 1.65c.175.016.47.038.754.056q.57.035 1.289.064l1.921.076q0 2.62.017 5.24l-1.705-.18q-.068.207-.125.417-.05.195-.094.392c.191.066.41.14.641.215l1.322.43.066 1.569c.035.83.058 1.288.112 1.626.016.104.033.176.048.227.11.01.247.02.45.034a4 4 0 0 0 .537 0c.202-.014.34-.023.45-.034.03-.114.07-.324.097-.672l.171-2.147 1.709.264c.04-.131.082-.263.118-.396q.05-.195.093-.391a34 34 0 0 0-.55-.186"/></svg>