<svg xmlns="http://www.w3.org/2000/svg" viewBox="0 0 32 32"><path fill-rule="evenodd" d="M12.004 17.248C12 16.843 12 16.35 12 15.924a79 79 0 0 1-1.57-.078 26 26 0 0 1-1.077-.078c-.25-.027-.47-.06-.67-.109a2 2 0 0 1-.98-.525c-.604-.585-.633-1.184-.69-2.381a11 11 0 0 1 0-1.006c.057-1.197.086-1.796.69-2.38.603-.585 1.31-.628 2.726-.713a79 79 0 0 1 1.71-.083l.026-.617c.09-2.045.136-3.067.76-3.94.623-.871 1.262-.913 2.539-.996a8 8 0 0 1 1.072 0c1.277.083 1.916.125 2.54.997s.669 1.894.76 3.939l.026.617a79 79 0 0 1 1.709.083c1.415.085 2.123.128 2.726.713.604.584.633 1.183.69 2.38a11 11 0 0 1 0 1.006c-.057 1.197-.086 1.796-.69 2.38-.603.586-1.311.628-2.727.713q-.705.043-1.57.078c0 1.172-.01 2.34-.025 3.35.411.13.778.25 1.08.354.98.339 1.469.508 1.764 1.112s.18 1.11-.047 2.123a11 11 0 0 1-.226.842c-.31.992-.464 1.487-1.02 1.863 0 0-.279.19-.6.237s-.686-.006-1.182-.099c-.054.64-.136 1.14-.295 1.573a3 3 0 0 1-.373.706c-.624.872-1.262.914-2.54.997a8 8 0 0 1-1.073 0c-1.276-.083-1.915-.125-2.539-.997s-.669-1.894-.76-3.938l-.012-.28c-.463-.145-.874-.28-1.207-.395-.98-.339-1.469-.508-1.764-1.112-.295-.603-.18-1.11.047-2.123a11 11 0 0 1 .226-.842c.124-.399.224-.718.334-.98.139-.33.295-.57.54-.773q.067-.057.147-.11.174-.116.35-.177c.318-.11.714-.083 1.179-.007m7.218 4.41-1.776-.562c.04-2.525.054-5.049.054-7.574l2.4-.096q.841-.035 1.52-.076l.167-.01c.29-.016.58-.033.867-.066.027-.34.046-.683.046-1.024s-.02-.684-.046-1.024c-.287-.033-.577-.05-.866-.067l-.167-.01a76 76 0 0 0-1.655-.08l-2.31-.089-.034-.846q-.038-1.035-.084-2.07c-.048-1.078-.078-1.676-.15-2.119a2 2 0 0 0-.091-.375h-.004A9 9 0 0 0 16 5.5a9 9 0 0 0-1.093.07h-.004c-.027.068-.06.18-.09.375-.073.443-.103 1.04-.15 2.12q-.046 1.035-.085 2.07l-.034.845-2.31.089a77 77 0 0 0-1.822.09c-.29.017-.579.034-.866.067-.027.34-.046.683-.046 1.024s.02.684.046 1.024c.287.033.577.05.866.067l.167.01q.68.04 1.52.075l2.401.096q.001 3.345.02 6.69l-2.595-.441-.01.03c-.05.161-.117.37-.168.56-.05.188-.097.4-.133.563l-.007.032c.309.107.764.26 1.293.425l1.676.525.086 2.03c.048 1.079.078 1.676.15 2.12.032.194.064.306.091.374h.004c.172.02.382.035.72.057a6 6 0 0 0 .747 0c.337-.022.547-.036.72-.056h.003a1 1 0 0 0 .033-.101c.042-.148.085-.39.122-.832l.231-2.759 2.594.486.01-.03c.05-.16.115-.367.166-.555.05-.19.097-.4.133-.564l.007-.031a44 44 0 0 0-1.17-.388"/></svg>