<svg xmlns="http://www.w3.org/2000/svg" viewBox="0 0 44 44"><path d="M19 26.186V20H9.373c-.264-.58-.3-1.283-.355-2.33a13 13 0 0 1 0-1.34c.055-1.047.091-1.75.355-2.33H19V4.476c.58-.329 1.285-.378 2.314-.451a10 10 0 0 1 1.372 0c1.029.073 1.734.122 2.314.451V14h9.627c.264.58.3 1.284.355 2.33a13 13 0 0 1 0 1.34c-.054 1.046-.091 1.75-.355 2.33H25v7.747q1.043.31 1.817.562c1.052.34 1.578.51 1.931 1.01.354.498.273.889.11 1.672a6 6 0 0 1-.174.647c-.25.76-.375 1.14-.93 1.394-.556.255-1.097.14-2.178-.092q-.273-.058-.576-.126v6.71c-.58.329-1.285.378-2.314.451a10 10 0 0 1-1.372 0c-1.03-.073-1.734-.122-2.314-.451v-8.271a76 76 0 0 1-1.817-.562c-1.052-.34-1.578-.51-1.932-1.009s-.272-.89-.109-1.672a6 6 0 0 1 .174-.648c.25-.76.375-1.139.93-1.394.556-.255 1.097-.139 2.177.092q.273.058.577.126"/></svg>