<svg xmlns="http://www.w3.org/2000/svg" viewBox="0 0 16 16"><path fill-rule="evenodd" d="m10.212 13.017-.09-.006a7 7 0 0 1-.045.48c-.053.404-.148.696-.347.963-.35.47-.71.491-1.428.536a5 5 0 0 1-.604 0c-.718-.045-1.077-.067-1.428-.537-.351-.469-.377-1.02-.428-2.12l-.017-.399-.314-.106c-.512-.179-.768-.268-.92-.591s-.09-.596.033-1.141a6 6 0 0 1 .122-.454l.034-.11.042-.132c.122-.378.22-.592.466-.763a.75.75 0 0 1 .44-.14h.023l-.001-.416a43 43 0 0 1-.881-.046c-.423-.026-.73-.046-.976-.115a1.1 1.1 0 0 1-.503-.286c-.335-.331-.351-.67-.383-1.35a6 6 0 0 1 0-.57c.032-.678.048-1.017.383-1.348.336-.332.729-.356 1.515-.404q.413-.026.926-.046l.011-.249c.051-1.1.077-1.651.428-2.12.35-.47.71-.492 1.428-.537a5 5 0 0 1 .604 0c.718.044 1.077.067 1.428.536s.377 1.02.427 2.122l.011.248q.515.02.927.046c.786.048 1.18.072 1.515.404.335.331.351.67.383 1.349a6 6 0 0 1 0 .57c-.032.678-.048 1.017-.383 1.349-.336.331-.729.355-1.515.404q-.38.023-.845.043 0 .809-.012 1.52l.251.086c.512.178.768.267.92.59.152.324.09.597-.033 1.142a6 6 0 0 1-.121.453c-.166.534-.25.801-.542 1.005a.76.76 0 0 1-.5.14m-1.49-2.342.017-1.096q.01-.7.01-1.5l.002-1.438 1.437-.06a41 41 0 0 0 1.29-.074h.002c.021-.34.021-.674 0-1.014h-.003c-.124-.012-.27-.021-.474-.034a42 42 0 0 0-.894-.044L8.73 5.36l-.02-.494-.05-1.13c-.027-.585-.044-.892-.082-1.115l-.017-.09a6 6 0 0 0-1.12 0l-.017.09c-.038.223-.055.53-.082 1.116q-.026.564-.05 1.13l-.02.493-1.38.055a42 42 0 0 0-1.368.078H4.52a8 8 0 0 0 0 1.014h.003c.124.012.27.02.474.033q.365.023.815.042l1.437.06q0 1.68.009 3.363L6.205 10a6 6 0 0 0-.12.439q.42.143.84.28l.356.119.043 1.035.017.39c.027.586.044.893.082 1.116l.017.09c.376.035.744.035 1.12 0 .023-.097.045-.255.065-.557l.102-1.538 1.08.1c.04-.127.08-.268.109-.398l-.825-.278z"/></svg>