<svg xmlns="http://www.w3.org/2000/svg" viewBox="0 0 24 24"><path d="M9.75 11.5a1.25 1.25 0 1 0 0-2.5 1.25 1.25 0 0 0 0 2.5m4.5 0a1.25 1.25 0 1 0 0-2.5 1.25 1.25 0 0 0 0 2.5m-1.523 3.268C13.382 14.384 14 13.602 14 13c0-.828-1.172-1-2-1s-2 .172-2 1c0 .602.618 1.385 1.274 1.768l-.006.816a.95.95 0 0 1-.435.11c-.187-.004-.498-.092-.875-.653a.69.69 0 0 0-1.011-.163.814.814 0 0 0-.175 1.082c.573.852 1.263 1.265 1.999 1.282.47.01.889-.142 1.23-.333.34.191.76.344 1.229.333.736-.017 1.426-.43 1.998-1.282a.814.814 0 0 0-.174-1.082.69.69 0 0 0-1.011.163c-.377.561-.688.65-.875.653a.95.95 0 0 1-.435-.11z"/><path fill-rule="evenodd" d="m14.301 4.284.577-.577a3 3 0 0 1 4.243 0l1.172 1.172a3 3 0 0 1 0 4.243l-.579.578c.44 1.478.635 3.01.72 4.192.1 1.38-.309 2.748-1.264 3.749-1.393 1.458-3.848 3.36-7.176 3.36-3.277-.001-5.706-1.843-7.11-3.29-1.005-1.038-1.415-2.474-1.28-3.912.11-1.148.325-2.606.754-4.027l-.651-.65a3 3 0 0 1 0-4.243l1.171-1.172a3 3 0 0 1 4.243 0l.542.542c1.473-.343 3.1-.332 4.638.035m-6.698.747a1 1 0 0 0-1.31.09L5.12 6.294a1 1 0 0 0 0 1.414l.036.036C5.723 6.635 6.48 5.68 7.495 5.091zM18.91 7.674a1 1 0 0 0-.032-1.38l-1.171-1.172a1 1 0 0 0-1.32-.084l.105.053c1.062.55 1.843 1.485 2.418 2.583M8.498 6.822c1.86-1.077 4.804-1.13 7.075.046.826.427 1.526 1.381 2.045 2.849.505 1.43.73 3.046.821 4.318.065.906-.207 1.692-.716 2.224C16.495 17.545 14.53 19 11.993 19c-2.495 0-4.438-1.408-5.672-2.682-.536-.552-.815-1.38-.725-2.33.12-1.264.372-2.85.884-4.266.526-1.456 1.218-2.436 2.018-2.9"/></svg>