<svg xmlns="http://www.w3.org/2000/svg" viewBox="0 0 44 44"><path fill-rule="evenodd" d="m12.714 9.657-2.828 2.828a2 2 0 0 0-.25 2.524c1.165-2.358 3.525-4.465 5.962-5.252l.034-.01-.09-.09a2 2 0 0 0-2.828 0m-4.243 8.485.069.067C7.715 21.047 7 24.175 7 26.5 7 32 15 38 22 38s14.5-6 14.5-11.5c0-2.263-.593-5.288-1.29-8.065q.165-.138.319-.293l.707-.707a5 5 0 0 0 0-7.071l-2.829-2.828a5 5 0 0 0-7.07 0l-.708.707a5 5 0 0 0-.597.719 20 20 0 0 0-6.064 0 5 5 0 0 0-.597-.72l-.707-.706a5 5 0 0 0-7.071 0l-2.829 2.828a5 5 0 0 0 0 7.071zM28.355 9.76c2.47.882 4.75 3.018 5.866 5.44a2 2 0 0 0-.107-2.714l-2.828-2.828a2 2 0 0 0-2.828 0zM17.04 12.463c-.292.08-.374.102-.52.149-1.826.59-3.736 2.416-4.407 4.214l-.06.164-.018.054C10.972 20.347 10 24.112 10 26.5c0 1.372 1.123 3.47 3.691 5.425C16.158 33.802 19.286 35 22 35c2.697 0 5.681-1.185 8.007-3.035 2.405-1.913 3.493-4.016 3.493-5.465 0-2.38-.818-6.052-1.72-9.295l-.002-.007-.03-.098c-.627-1.99-2.62-3.97-4.612-4.586a8 8 0 0 0-.317-.09l-.007-.002a39 39 0 0 0-.621-.167 17 17 0 0 0-8.382 0c-.135.034-.274.072-.619.166l-.003.001zM18 21a2 2 0 1 0 0-4 2 2 0 0 0 0 4m10-2a2 2 0 1 1-4 0 2 2 0 0 1 4 0m-3.16 4c.64 1.071-.78 2.451-1.84 3.278v1.567l.032.083c.056.132.143.305.268.472.238.318.593.6 1.2.6.717 0 1.093-.257 1.293-.457a1.4 1.4 0 0 0 .262-.372l.003-.006a1 1 0 0 1 1.89.651v.005l-.003.005-.004.013a2 2 0 0 1-.047.12 3.4 3.4 0 0 1-.687.999C26.657 30.506 25.783 31 24.5 31c-1.152 0-1.964-.491-2.5-1.047-.536.556-1.348 1.047-2.5 1.047-1.283 0-2.157-.493-2.707-1.043a3.4 3.4 0 0 1-.687-.999l-.047-.12-.004-.012-.002-.005v-.003h-.001v-.002a1 1 0 0 1 1.89-.65l.003.005q.008.02.038.078c.043.076.114.184.224.294.2.2.576.457 1.293.457.607 0 .962-.282 1.2-.6a2.2 2.2 0 0 0 .3-.555V26.3c-1.021-.809-2.409-2.174-1.886-3.3.619-1.333 4.93-1.333 5.726 0"/></svg>