<svg xmlns="http://www.w3.org/2000/svg" viewBox="0 0 16 16"><path fill-rule="evenodd" d="m13.606 6.025-.39.387c.298.993.43 2.021.487 2.816.067.926-.208 1.845-.854 2.517-.942.979-2.601 2.255-4.851 2.255-2.215 0-3.857-1.237-4.806-2.209-.68-.696-.957-1.66-.865-2.626.073-.77.219-1.748.508-2.702l-.441-.438a2.004 2.004 0 0 1 0-2.848l.792-.787a2.04 2.04 0 0 1 2.868 0l.367.365a7 7 0 0 1 3.135.022l.39-.387a2.04 2.04 0 0 1 2.868 0l.792.787a2.004 2.004 0 0 1 0 2.848M6.479 7.622a.84.84 0 0 0 .845-.84.84.84 0 0 0-.845-.838.84.84 0 0 0-.845.839c0 .463.378.839.845.839m3.887-.84c0 .464-.378.84-.845.84a.84.84 0 0 1-.845-.84c0-.463.378-.838.845-.838s.845.375.845.839m-2.037 3.45c.498-.209 1.023-.814 1.023-1.267 0-.557-.792-.672-1.352-.672s-1.352.115-1.352.672c0 .453.526 1.06 1.024 1.268l.001.21-.005.696a.9.9 0 0 1-.464.143c-.188-.004-.44-.1-.718-.509a.313.313 0 0 0-.456-.073.363.363 0 0 0-.078.484c.365.54.788.78 1.224.79.316.008.6-.107.824-.246.226.139.509.254.825.247.436-.01.859-.25 1.224-.79a.363.363 0 0 0-.079-.485.313.313 0 0 0-.455.073c-.277.41-.53.505-.718.51a.9.9 0 0 1-.464-.144l-.006-.697z"/></svg>