<svg xmlns="http://www.w3.org/2000/svg" viewBox="0 0 16 16"><path fill-rule="evenodd" d="M6.617 13.947c-.412-.03-.79-.072-1.117-.107V2.134c.327-.035.705-.048 1.117-.079a19 19 0 0 1 1.385-.054c.466 0 .933.02 1.385.054 1.744.13 2.616.195 3.491 1.07s.94 1.747 1.07 3.491c.034.452.054.919.054 1.385s-.02.933-.054 1.385c-.13 1.744-.195 2.616-1.07 3.491s-1.747.94-3.491 1.07c-.452.034-.919.054-1.385.054s-.933-.02-1.385-.054M11.5 6.75a.75.75 0 0 1-.75.75h-2.5a.75.75 0 1 1 0-1.5h2.5a.75.75 0 0 1 .75.75m-.498 3.004a.75.75 0 0 1-.75.75h-1.5a.75.75 0 0 1 0-1.5h1.5a.75.75 0 0 1 .75.75"/><path d="M3.126 3.125c.286-.286.558-.486.874-.63v11.011a2.9 2.9 0 0 1-.874-.629c-.875-.875-.94-1.747-1.07-3.491A19 19 0 0 1 2.002 8c0-.466.02-.933.054-1.385.13-1.744.195-2.616 1.07-3.491"/></svg>