<svg xmlns="http://www.w3.org/2000/svg" viewBox="0 0 24 24"><path fill-rule="evenodd" d="M21.268 8.689a.82.82 0 0 0-1.076.027c-.663.612-1.24 1.222-1.722 1.628-.741.622-1.112.933-1.907.965-.796.032-1.096-.182-1.695-.608a7 7 0 0 1-.851-.718 7 7 0 0 1-.718-.851c-.426-.6-.64-.9-.608-1.695s.343-1.166.965-1.907c.405-.482 1.015-1.06 1.628-1.722a.82.82 0 0 0 .027-1.076c-.371-.447-.92-.731-1.5-.732h-.812c-.93 0-1.86.054-2.74.137-2.351.222-3.526.333-4.658 1.465-1.132 1.131-1.243 2.307-1.464 4.657A29 29 0 0 0 3.999 11c0 .627.025 1.253.066 1.864-1.308 1.31-1.966 2.008-2.05 2.853a2.5 2.5 0 0 0 0 .487c.088.892.815 1.619 2.27 3.073l.439.439c1.454 1.454 2.18 2.181 3.072 2.268q.244.024.487 0c.845-.082 1.543-.74 2.854-2.05.61.041 1.236.066 1.862.066.93 0 1.861-.054 2.742-.137 2.35-.222 3.525-.333 4.657-1.465 1.131-1.131 1.242-2.306 1.464-4.657.083-.88.137-1.81.137-2.741v-.812c0-.58-.285-1.128-.731-1.5"/></svg>