<svg xmlns="http://www.w3.org/2000/svg" viewBox="0 0 16 16"><path fill-rule="evenodd" d="M14.536 5.662a.7.7 0 0 0-.922.023c-.453.42-.848.815-1.178 1.094-.509.43-.764.646-1.321.669-.558.023-.757-.12-1.157-.405a4.3 4.3 0 0 1-.995-.994c-.285-.4-.427-.6-.404-1.157.023-.558.238-.813.669-1.322.278-.33.668-.725 1.088-1.178a.7.7 0 0 0 .022-.922A1.37 1.37 0 0 0 9.325 1H8.5c-.716 0-1.433.044-2.105.111-1.646.164-2.47.246-3.254 1.03s-.866 1.607-1.03 3.254a22 22 0 0 0-.11 2.105c0 .51.022 1.019.059 1.512-.664.682-1.004 1.113-1.05 1.62q-.015.156 0 .313c.057.63.57 1.144 1.598 2.172l.282.282c1.028 1.027 1.542 1.541 2.172 1.598q.157.015.313 0c.508-.046.94-.388 1.625-1.056.49.037.995.059 1.5.059.717 0 1.433-.044 2.106-.111 1.646-.164 2.469-.246 3.253-1.03s.866-1.607 1.03-3.254C14.956 8.933 15 8.217 15 7.5v-.83c0-.371-.179-.77-.464-1.008"/></svg>