<svg xmlns="http://www.w3.org/2000/svg" viewBox="0 0 16 16"><path fill-rule="evenodd" d="M6.395 1.111c-1.646.164-2.47.246-3.254 1.03s-.866 1.607-1.03 3.254a22 22 0 0 0-.11 2.105c0 .51.022 1.019.059 1.512-.664.682-1.004 1.113-1.05 1.62q-.015.156 0 .313c.057.63.57 1.144 1.598 2.172l.282.282c1.028 1.027 1.542 1.541 2.172 1.598q.157.015.313 0c.508-.046.94-.388 1.625-1.056.49.037.995.059 1.5.059.717 0 1.433-.044 2.106-.111 1.646-.164 2.469-.246 3.253-1.03s.866-1.607 1.03-3.254C14.956 8.933 15 8.217 15 7.5v-.83c0-.371-.179-.7-.464-.938a1 1 0 0 0-1.314.029c-.386.356-.724.635-1.01.88-.487.417-.73.626-1.291.65-.562.025-.736-.1-1.084-.35a3.4 3.4 0 0 1-.773-.771c-.249-.348-.373-.522-.349-1.084s.233-.805.65-1.291c.246-.286.518-.625.874-1.01a1 1 0 0 0 .029-1.314C10.028 1.18 9.7 1 9.325 1H8.5c-.716 0-1.433.044-2.105.111m.75 3.906c.022-.496.136-.942.377-1.373.186-.333.437-.625.614-.83l.209-.242c-.603.006-1.212.045-1.795.103-1.768.176-1.977.257-2.297.577s-.402.53-.578 2.298a20 20 0 0 0-.103 1.95c0 .464.02.934.055 1.395l.053.706-.494.508c-.207.213-.432.429-.594.68q.026.042.088.121c.193.245.498.554 1.04 1.095l.282.283c.541.54.85.846 1.095 1.038q.079.061.122.09c.252-.165.47-.391.684-.6l.508-.494.706.052c.457.034.923.054 1.383.054.654 0 1.317-.04 1.95-.103 1.769-.176 1.978-.257 2.298-.577s.401-.53.577-2.298c.058-.58.097-1.184.103-1.783l-.236.204c-.205.176-.497.427-.83.614-.43.24-.876.355-1.373.376-.403.018-.819-.01-1.245-.171a3.4 3.4 0 0 1-.79-.447l-.032-.023a4.9 4.9 0 0 1-1.135-1.135l-.023-.032a3.4 3.4 0 0 1-.448-.791c-.16-.426-.189-.842-.171-1.245"/></svg>