<svg xmlns="http://www.w3.org/2000/svg" viewBox="0 0 24 24"><path fill-rule="evenodd" d="M10.065 6.704c.343-1.97 2.008-3.486 4.07-3.665q.43-.038.866-.039.436 0 .865.039c2.064.18 3.73 1.697 4.071 3.67q.028.102.043.207a3.4 3.4 0 0 1 .02.494v.116c0 .41 0 .616-.013.816a6 6 0 0 1-1.158 3.165c-.119.16-.252.318-.517.632l-.77.91c-.988 1.17-1.482 1.754-2.097 1.9-.293.07-.597.07-.889 0a1.6 1.6 0 0 1-.587-.29l.014-.184c.018-.267.018-.536.018-.893v-.127c0-.237.001-.547-.042-.836a4 4 0 0 0-.068-.344c-.409-2.175-1.909-3.93-3.89-4.75 0-.317 0-.476.02-.609a2 2 0 0 1 .044-.212m3.937 1.2c.012-.342.017-.513.204-.699.186-.186.356-.192.698-.203a3 3 0 0 1 .193 0c.341.011.512.017.698.203s.192.357.204.698a3 3 0 0 1 0 .194c-.012.341-.018.512-.204.698s-.357.192-.698.203a3 3 0 0 1-.193 0c-.342-.011-.512-.017-.698-.203-.187-.186-.192-.357-.204-.698a3 3 0 0 1 0-.194"/><path d="M6.206 13.205c-.187.186-.192.357-.204.698a3 3 0 0 0 0 .194c.012.341.017.512.204.698.186.186.356.192.698.203a3 3 0 0 0 .193 0c.341-.011.512-.017.698-.203s.192-.357.204-.698a3 3 0 0 0 0-.194c-.012-.341-.018-.512-.204-.698s-.357-.192-.698-.203a3 3 0 0 0-.193 0c-.342.011-.512.017-.698.203"/><path fill-rule="evenodd" d="M12 13.41c0-.39-.014-.522-.063-.7-.34-1.974-2.007-3.492-4.071-3.671A10 10 0 0 0 7 9q-.436 0-.866.039c-2.062.18-3.727 1.694-4.07 3.665-.074.268-.065.545-.065.822 0 .41 0 .617.014.816a6 6 0 0 0 1.158 3.165c.119.16.251.318.517.632l.77.91c.987 1.17 1.482 1.754 2.097 1.9.292.07.596.07.889 0 .615-.146 1.11-.73 2.098-1.9l.769-.91c.265-.314.398-.471.517-.632a6 6 0 0 0 1.158-3.165c.014-.2.014-.405.014-.817zm-8 .116c0-.169.007-.317.036-.48.182-1.05 1.087-1.912 2.273-2.014A8 8 0 0 1 7 11q.338 0 .692.031c1.187.104 2.092.967 2.273 2.018.028.16.035.315.035.477 0 .437-.002.565-.01.683a4 4 0 0 1-.772 2.111c-.07.095-.152.194-.435.528l-.782.925c-.491.582-.778.917-1.002 1.136-.225-.221-.515-.56-1.014-1.151l-.77-.91a11 11 0 0 1-.434-.528 4 4 0 0 1-.773-2.11A11 11 0 0 1 4 13.525"/><path d="M11.015 20.406q-.257.305-.506.594h7.423c1.864 0 3.06-1.518 3.068-3.105a3.04 3.04 0 0 0-.914-2.188l-1.196-1.195c-.414.49-.813.956-1.188 1.315a6 6 0 0 1-.169.156l1.139 1.139c.694.694.202 1.878-.776 1.878h-5.695l-.324.387z"/></svg>