<svg xmlns="http://www.w3.org/2000/svg" viewBox="0 0 32 32"><path d="M23.5 16h-1.9c-.351 0-.597-.32-.601-.664a.7.7 0 0 1 .11-.394c1.659-2.625 2.483-3.938 3.638-3.938s1.983 1.313 3.641 3.938c.078.124.113.26.111.394-.004.345-.25.664-.601.664h-1.9c0 .847-.04 1.693-.105 2.51-.226 2.826-.339 4.24-1.741 5.643s-2.817 1.515-5.644 1.741A32 32 0 0 1 16 26c-.955 0-1.91-.051-2.82-.132-.882-.078-1.62-.143-2.263-.243-.978-.154-1.198-1.285-.498-1.985.342-.342.832-.49 1.313-.43.439.054.983.107 1.668.168.853.075 1.733.122 2.6.122.769 0 1.548-.037 2.31-.098 3.001-.24 3.426-.369 4.075-1.017.648-.649.777-1.074 1.017-4.075.061-.762.098-1.541.098-2.31M6 16H4.101c-.357 0-.606.332-.601.684a.7.7 0 0 0 .11.374c1.658 2.626 2.493 3.939 3.648 3.939 1.154 0 1.974-1.313 3.631-3.939a.7.7 0 0 0 .111-.406c-.01-.34-.254-.652-.6-.652H8.5c0-.768.037-1.548.098-2.31.24-3.001.369-3.426 1.017-4.075.649-.648 1.074-.777 4.075-1.017A29 29 0 0 1 16 8.5c.867 0 1.747.047 2.6.122.693.061 1.241.115 1.683.17a1.58 1.58 0 0 0 1.316-.43c.7-.7.482-1.829-.495-1.983-.647-.102-1.392-.168-2.284-.247A32 32 0 0 0 16 6c-.847 0-1.693.04-2.51.106-2.826.226-4.24.339-5.643 1.741s-1.515 2.817-1.741 5.644A32 32 0 0 0 6 16"/></svg>