<svg xmlns="http://www.w3.org/2000/svg" viewBox="0 0 16 16"><path d="M12 8h-.017c-.61 0-1.023 0-1.194-.117a.67.67 0 0 1-.289-.559c.003-.207.179-.456.53-.954.744-1.054 1.225-1.58 1.743-1.58s.953.526 1.697 1.58c.351.498.527.747.53.954a.67.67 0 0 1-.29.559C14.54 8 14.173 8 13.563 8H13.5c0 .406-.017.811-.044 1.206-.115 1.628-.172 2.442-.99 3.26s-1.632.875-3.26.99c-.395.027-.8.044-1.206.044a18 18 0 0 1-1.517-.069c-.33-.028-.634-.053-.897-.084-.382-.044-.59-.33-.586-.644a.8.8 0 0 1 .249-.562.93.93 0 0 1 .75-.26c.172.018.382.036.613.056.456.039.926.063 1.388.063.365 0 .735-.015 1.1-.04.863-.061 1.318-.099 1.666-.188a1.24 1.24 0 0 0 .64-.367c.21-.211.299-.379.366-.639.09-.348.127-.803.187-1.666.026-.365.041-.735.041-1.1M2.5 8c0-.405.017-.81.044-1.205.115-1.629.172-2.443.99-3.26.818-.819 1.632-.876 3.26-.99.395-.028.8-.045 1.206-.045.513 0 1.026.027 1.516.069q.501.04.899.085c.38.045.586.327.585.639a.8.8 0 0 1-.249.566.93.93 0 0 1-.75.26q-.263-.026-.613-.056A16 16 0 0 0 8 4c-.365 0-.735.015-1.1.04-.863.061-1.318.099-1.666.188a1.24 1.24 0 0 0-.64.367c-.21.211-.299.379-.366.639-.09.348-.127.803-.187 1.666A16 16 0 0 0 4 8h.02c.61 0 1.02 0 1.19.117a.67.67 0 0 1 .29.56c-.003.206-.179.455-.53.953-.744 1.054-1.221 1.58-1.74 1.58s-.956-.526-1.7-1.58c-.351-.498-.527-.747-.53-.954a.67.67 0 0 1 .29-.559C1.46 8 1.83 8 2.44 8z"/></svg>