<svg xmlns="http://www.w3.org/2000/svg" viewBox="0 0 24 24"><path d="M6 12c0-.564.025-1.135.067-1.697.183-2.46.286-2.828.846-3.389s.93-.663 3.39-.846A23 23 0 0 1 12 6.001c.677 0 1.363.036 2.03.094.665.057 1.143.106 1.525.16.407.057.832-.055 1.123-.346.223-.223.329-.507.322-.772a.79.79 0 0 0-.659-.78c-.591-.12-1.266-.18-2.138-.255-.713-.061-1.458-.1-2.203-.1-.622 0-1.244.027-1.846.072-2.326.173-3.488.26-4.655 1.426-1.167 1.167-1.254 2.33-1.427 4.655A25 25 0 0 0 4 12H2.632c-.512 0-.81.61-.515 1.053C3.429 15.023 4.086 16 5 16s1.57-.977 2.883-2.947C8.178 12.611 7.88 12 7.368 12zm15.383 0H20v.001c0 .622-.027 1.244-.072 1.847-.173 2.325-.26 3.488-1.427 4.655-1.167 1.166-2.33 1.253-4.655 1.426-.602.045-1.224.072-1.846.072-.745 0-1.49-.039-2.203-.1-.872-.076-1.547-.136-2.138-.256a.79.79 0 0 1-.659-.78c-.007-.265.1-.548.322-.771.291-.291.716-.403 1.123-.346.382.054.86.102 1.525.16.666.058 1.353.093 2.03.093.565 0 1.136-.024 1.698-.066 2.46-.183 2.829-.286 3.389-.847s.663-.93.846-3.389A23 23 0 0 0 18 12.001V12h-1.383c-.5 0-.791-.596-.503-1.028l.052-.077C17.446 8.977 18.096 8 19 8c.903 0 1.555.977 2.834 2.895l.052.077c.288.432-.004 1.028-.503 1.028"/></svg>