<svg xmlns="http://www.w3.org/2000/svg" viewBox="0 0 24 24"><path fill-rule="evenodd" d="M5.793 5.207a1 1 0 0 1 1.414-1.414l14 14a1 1 0 0 1-1.414 1.414l-2.367-2.367c-1.229.89-2.062 1.374-3.903 1.69-.658.112-2.38.112-3.038 0-2.11-.362-2.896-.943-4.469-2.106a26 26 0 0 1-2.432-2.06c-1.053-1.006-1.58-1.508-1.58-2.364 0-.857.527-1.359 1.58-2.364a26 26 0 0 1 2.432-2.06c.469-.347.867-.641 1.252-.894zM8.72 8.134c-.404.233-.832.545-1.515 1.05a24 24 0 0 0-2.24 1.9 28 28 0 0 0-.643.624 4 4 0 0 0-.266.292c.056.068.139.162.266.291.169.173.372.367.643.625a24 24 0 0 0 2.24 1.9c.819.605 1.272.934 1.755 1.18.436.223.956.407 1.862.562.15.026.6.056 1.182.056s1.032-.03 1.182-.056c.906-.155 1.426-.339 1.862-.562.296-.15.58-.332.944-.59l-1.24-1.24a3.502 3.502 0 1 1-4.918-4.918zm4.594 4.594-2.042-2.042a1.501 1.501 0 1 0 2.042 2.042"/><path d="M13.557 5.476a1 1 0 0 0-.342 1.97c.887.155 1.402.337 1.833.557.482.247.935.575 1.755 1.18a24 24 0 0 1 2.24 1.9c.52.495.766.74.91.917a7 7 0 0 1-.5.522 1 1 0 1 0 1.396 1.433c.306-.299.564-.562.76-.83.114-.154.222-.33.296-.537.079-.219.099-.417.099-.588 0-.172-.02-.37-.099-.588a2.1 2.1 0 0 0-.296-.538c-.264-.359-.66-.736-1.183-1.236l-.002-.002a26 26 0 0 0-2.433-2.06v-.002c-.786-.58-1.376-1.016-2.033-1.352-.65-.332-1.365-.566-2.401-.746"/></svg>