<svg xmlns="http://www.w3.org/2000/svg" viewBox="0 0 16 16"><path fill-rule="evenodd" d="M3.65 3.531a.75.75 0 0 1 1.06-1.06l9.334 9.333a.75.75 0 1 1-1.06 1.06L11.617 11.5c-.924.662-1.58 1.016-2.908 1.173a9 9 0 0 1-1.415 0c-1.58-.187-2.21-.653-3.47-1.585a18 18 0 0 1-1.77-1.508c-.7-.674-1.05-1.012-1.05-1.579s.35-.904 1.05-1.579a18 18 0 0 1 1.77-1.508c.254-.188.483-.357.698-.508zm1.952 1.953c-.238.158-.515.361-.886.635-.597.442-1.151.93-1.62 1.383A19 19 0 0 0 2.592 8l.079.083c.11.113.243.242.423.416.47.452 1.024.94 1.621 1.382.659.486 1.022.75 1.395.936.329.164.708.288 1.361.366.19.022.87.022 1.061 0 .654-.078 1.032-.202 1.36-.366.204-.101.403-.225.648-.394L9.296 9.177a1.75 1.75 0 1 1-2.473-2.473z"/><path d="M8.912 3.354a.75.75 0 1 0-.21 1.485c.55.078.89.193 1.192.344.373.187.736.45 1.395.936.598.442 1.152.93 1.621 1.383.254.244.406.393.503.498a9 9 0 0 1-.343.344.75.75 0 1 0 1.045 1.076c.26-.253.472-.463.624-.67.073-.1.147-.219.197-.36.055-.153.065-.287.065-.39s-.01-.237-.065-.39a1.4 1.4 0 0 0-.197-.36c-.176-.239-.439-.492-.787-.827l-.002-.002a18 18 0 0 0-1.77-1.509c-.63-.465-1.103-.814-1.615-1.07-.466-.234-.966-.39-1.653-.488"/></svg>