<svg xmlns="http://www.w3.org/2000/svg" viewBox="0 0 24 24"><path fill-rule="evenodd" d="M5.793 5.207a1 1 0 0 1 1.414-1.414l1.975 1.975 2.732 2.73 3.587 3.59 3.525 3.523 2.181 2.182a1 1 0 0 1-1.414 1.414l-2.367-2.367c-1.229.89-2.062 1.374-3.903 1.69-.658.112-2.38.112-3.038 0-2.11-.362-2.896-.943-4.469-2.106a26 26 0 0 1-2.432-2.061c-1.053-1.005-1.58-1.507-1.58-2.363s.527-1.359 1.58-2.364a26 26 0 0 1 2.432-2.06c.469-.347.867-.641 1.252-.894zm4.04 4.04a3.502 3.502 0 1 0 4.919 4.919l-1.438-1.438a1.502 1.502 0 1 1-2.042-2.042z"/><path d="m20.517 14.274-8.884-8.885c.705-.014 1.492.013 1.89.081 2.109.361 2.896.943 4.468 2.105a26 26 0 0 1 2.433 2.061c1.053 1.005 1.58 1.507 1.58 2.364 0 .83-.496 1.328-1.487 2.274"/></svg>