<svg xmlns="http://www.w3.org/2000/svg" viewBox="0 0 24 24"><path fill-rule="evenodd" d="M8.118 6.16C9.214 6.065 10.508 6 12 6s2.786.065 3.882.16c1.079.094 1.602.149 2.023.278.313.097.613.25 1.06.699.458.46.606.755.696 1.043.123.394.173.88.26 1.918a23 23 0 0 1 0 3.805c-.087 1.037-.137 1.523-.26 1.917-.09.288-.238.584-.696 1.043-.447.449-.747.602-1.06.699-.42.13-.944.184-2.023.278-1.096.095-2.39.16-3.882.16s-2.786-.065-3.882-.16c-1.079-.094-1.602-.149-2.022-.278-.312-.097-.613-.25-1.06-.699-.458-.46-.606-.755-.696-1.043-.123-.393-.173-.879-.26-1.916a23 23 0 0 1 0-3.808c.087-1.037.137-1.522.26-1.916.09-.288.238-.584.696-1.043.447-.449.748-.602 1.06-.699.42-.13.944-.184 2.022-.278M12 4c-1.55 0-2.902.068-4.055.168-2.024.175-3.036.263-4.326 1.557S2.25 7.99 2.087 9.93a25 25 0 0 0 0 4.14c.162 1.94.243 2.911 1.532 4.205s2.302 1.382 4.326 1.557c1.153.1 2.505.168 4.055.168s2.902-.067 4.055-.168c2.025-.175 3.037-.263 4.327-1.557s1.37-2.265 1.532-4.206a25 25 0 0 0 0-4.137c-.162-1.942-.243-2.913-1.532-4.207s-2.302-1.382-4.328-1.557A47 47 0 0 0 12 4m-2.05 8.47V15h1.503V8.79H9.95v2.412H7.673V8.79H6.17V15h1.503v-2.53zm6.215.928q-.369.333-1.161.333h-.792v-3.672h.792q.792 0 1.16.35.37.343.37 1.126v.71q0 .82-.37 1.153M12.709 8.79V15h2.295q.774 0 1.35-.171.584-.171.963-.54.387-.378.576-.963.189-.594.189-1.431t-.19-1.431a2.24 2.24 0 0 0-.575-.963 2.26 2.26 0 0 0-.963-.54 4.8 4.8 0 0 0-1.35-.171z"/></svg>