<svg xmlns="http://www.w3.org/2000/svg" viewBox="0 0 44 44"><path fill-rule="evenodd" d="M29.126 35.721c3.723-.305 5.584-.458 7.966-2.854s2.516-4.147 2.784-7.648a42 42 0 0 0 0-6.437c-.268-3.502-.401-5.253-2.784-7.648-2.382-2.396-4.243-2.549-7.965-2.855A87 87 0 0 0 22 8c-2.712 0-5.088.112-7.125.28-3.723.305-5.585.458-7.968 2.854s-2.516 4.148-2.783 7.651A42 42 0 0 0 4 22c0 1.122.046 2.198.124 3.215.267 3.504.4 5.255 2.783 7.652 2.383 2.396 4.245 2.549 7.969 2.854 2.036.167 4.412.28 7.124.28 2.713 0 5.09-.113 7.126-.28M9.035 13.25l-2.128-2.115zc.895-.9 1.541-1.247 2.23-1.458.855-.261 1.893-.36 3.856-.522A84 84 0 0 1 22 11c2.63 0 4.925.109 6.881.27 1.962.16 3 .26 3.853.521.69.211 1.335.557 2.23 1.458.92.923 1.253 1.555 1.448 2.183.244.785.331 1.726.473 3.578a39 39 0 0 1 0 5.98c-.142 1.852-.23 2.793-.473 3.578-.195.628-.529 1.26-1.447 2.184-.896.9-1.542 1.246-2.231 1.457-.854.261-1.891.361-3.853.522-1.956.16-4.25.27-6.881.27a84 84 0 0 1-6.879-.27c-1.963-.16-3-.26-3.855-.522-.69-.21-1.336-.557-2.231-1.458-.919-.923-1.252-1.555-1.447-2.184-.244-.785-.332-1.727-.473-3.58A39 39 0 0 1 7 22c0-1.04.043-2.04.115-2.987.141-1.853.229-2.794.473-3.58.195-.629.528-1.26 1.447-2.184m9.17 9.755V27.5h2.673V16.46h-2.672v4.288h-4.048V16.46h-2.672V27.5h2.672v-4.496zm11.05 1.648q-.657.592-2.064.592h-1.408v-6.528h1.408q1.407 0 2.064.624.656.608.656 2v1.264q0 1.455-.656 2.048M23.11 16.46V27.5h4.08q1.376 0 2.4-.304 1.04-.304 1.712-.96.687-.672 1.024-1.712.336-1.056.336-2.544t-.336-2.544-1.024-1.712q-.672-.655-1.712-.96-1.025-.304-2.4-.304z"/></svg>