<svg xmlns="http://www.w3.org/2000/svg" viewBox="0 0 16 16"><path fill-rule="evenodd" d="m9.166 8.03-.02.017a31 31 0 0 1-1.65 1.543.9.9 0 0 1-.457.229.2.2 0 0 1-.084-.002.1.1 0 0 1-.027-.016 2 2 0 0 1-.232-.233c-.013-.015-.015-.022-.016-.027a.2.2 0 0 1-.002-.084A.9.9 0 0 1 6.907 9 31 31 0 0 1 8.45 7.35q.253-.255.485-.478a.766.766 0 0 0 .017-1.091.736.736 0 0 0-1.032-.016q-.255.244-.53.522a33 33 0 0 0-1.616 1.73c-.634.735-.847 1.785-.219 2.526a3.5 3.5 0 0 0 .404.404c.739.63 1.787.416 2.52-.22.39-.337.874-.77 1.426-1.31a39 39 0 0 0 1.643-1.743c1.215-1.38 1.49-3.392.206-4.709l-.12-.121c-1.315-1.286-3.324-1.011-4.7.207A40 40 0 0 0 5.17 4.715l-.133.131q-.67.673-1.199 1.263c-1.69 1.877-1.846 4.628-.08 6.435l.195.197c1.804 1.768 4.55 1.612 6.423-.082q.59-.53 1.26-1.2a55 55 0 0 0 1.676-1.798.736.736 0 0 0-.035-1.01.765.765 0 0 0-1.11.038 54 54 0 0 1-1.591 1.707q-.643.643-1.204 1.147c-1.383 1.25-3.22 1.25-4.37.124l-.173-.174C3.704 10.34 3.705 8.5 4.952 7.115A32 32 0 0 1 6.097 5.91l.08-.08c.024-.024.053-.046.074-.073a37 37 0 0 1 1.674-1.578c.996-.881 2.086-.82 2.66-.259l.095.096c.56.575.622 1.667-.258 2.664q-.529.605-1.256 1.351"/></svg>