<svg xmlns="http://www.w3.org/2000/svg" viewBox="0 0 24 24"><path fill-rule="evenodd" d="M2.01 11h.008A7 7 0 0 1 2 10.5c0-3.44 2.563-6.23 5.726-6.23 1.694 0 3.217.802 4.265 2.075 1.05-1.284 2.579-2.093 4.282-2.093C19.436 4.252 22 7.041 22 10.48q0 .263-.02.519h.01c-.097 2.41-1.24 3.58-3.43 5.82l-.196.198a29 29 0 0 1-1.526 1.411C14.85 20.14 13.857 20.996 12 20.996s-2.85-.856-4.838-2.568a28 28 0 0 1-1.722-1.61C3.25 14.58 2.107 13.41 2.01 11M12 17.5a1 1 0 0 1-1-1V15H9.5a1 1 0 1 1 0-2H11v-1.5a1 1 0 1 1 2 0V13h1.5a1 1 0 1 1 0 2H13v1.5a1 1 0 0 1-1 1"/></svg>