<svg xmlns="http://www.w3.org/2000/svg" viewBox="0 0 24 24"><path fill-rule="evenodd" d="M5.44 16.82C3.948 15.292 2.942 14.263 2.42 13c-.331-.806-.42-1.652-.42-2.5q0-.252.018-.5c.234-3.207 2.7-5.73 5.708-5.73.997 0 1.935.278 2.752.766a5.9 5.9 0 0 1 1.513 1.309c.43-.526.94-.971 1.508-1.315a5.35 5.35 0 0 1 2.774-.778c3.002 0 5.465 2.512 5.707 5.71.031.408.027.82 0 1.228a5.6 5.6 0 0 1-.4 1.81c-.52 1.264-1.527 2.293-3.02 3.82a28 28 0 0 1-1.721 1.61c-1.989 1.71-2.982 2.566-4.839 2.566s-2.85-.856-4.838-2.568a28 28 0 0 1-1.722-1.61m1.43-1.399c-1.97-2.016-2.633-2.77-2.812-3.946l-.018-.231a9 9 0 0 1-.04-.744C4 8 5.823 6.268 7.726 6.268c1.039 0 2.015.488 2.721 1.346l1.55 1.882L13.54 7.61c.708-.866 1.689-1.358 2.733-1.358C18.177 6.252 20 7.984 20 10.48c0 .261-.022.523-.044.783l-.02.247c-.187 1.156-.856 1.915-2.806 3.91a26 26 0 0 1-1.598 1.493c-2.09 1.8-2.533 2.083-3.532 2.083s-1.443-.283-3.533-2.083A26 26 0 0 1 6.87 15.42M12 17.5a1 1 0 0 1-1-1V15H9.5a1 1 0 1 1 0-2H11v-1.5a1 1 0 1 1 2 0V13h1.5a1 1 0 1 1 0 2H13v1.5a1 1 0 0 1-1 1"/></svg>