<svg xmlns="http://www.w3.org/2000/svg" viewBox="0 0 44 44"><path fill-rule="evenodd" d="M19 22c0 7.305.155 12.423.266 15.146.045 1.108.067 1.661.6 2.21.534.548.929.575 1.718.63a6 6 0 0 0 .832 0c.789-.055 1.184-.082 1.717-.63.534-.549.556-1.102.601-2.21.11-2.723.266-7.841.266-15.146 0-7.29-.154-12.407-.265-15.137-.046-1.117-.068-1.675-.605-2.224s-.936-.575-1.736-.626a6 6 0 0 0-.788 0c-.8.05-1.2.077-1.736.626-.537.55-.56 1.107-.605 2.224C19.155 9.593 19 14.71 19 22m9 9c0 2.836.094 4.943.187 6.34.066.979.099 1.468.608 1.995.51.526.872.562 1.598.634a6 6 0 0 0 1.214 0c.726-.072 1.088-.108 1.598-.634.51-.527.542-1.016.608-1.995A96 96 0 0 0 34 31a96 96 0 0 0-.186-6.331c-.066-.988-.1-1.482-.612-2.01-.513-.527-.881-.562-1.617-.631a6 6 0 0 0-1.17 0c-.736.07-1.104.104-1.617.632-.513.527-.546 1.02-.612 2.009A96 96 0 0 0 28 31m-17.777 6.233C10.119 35.35 10 32.263 10 28c0-4.261.119-7.348.223-9.233.058-1.053.087-1.58.61-2.117s.906-.568 1.67-.63a6 6 0 0 1 .993 0c.765.062 1.148.093 1.67.63.524.537.553 1.064.611 2.117C15.881 20.652 16 23.74 16 28s-.119 7.35-.223 9.233c-.058 1.053-.087 1.58-.61 2.116-.523.537-.905.568-1.669.63a6 6 0 0 1-.996 0c-.764-.062-1.146-.093-1.67-.63-.522-.537-.551-1.063-.61-2.116"/></svg>