<svg xmlns="http://www.w3.org/2000/svg" viewBox="0 0 44 44"><path fill-rule="evenodd" d="M18.845 9.114A46 46 0 0 1 22 9c1.051 0 2.112.042 3.156.114 4.974.34 6.17.535 7.683 2.048.532.532.9 1.025 1.17 1.657.284.664.877 1.181 1.599 1.181.95 0 1.692-.866 1.384-1.765-.4-1.176-1.02-2.182-2.032-3.195-2.428-2.428-4.819-2.592-9.6-2.92A49 49 0 0 0 22 6c-1.13 0-2.26.045-3.36.12-4.781.328-7.171.492-9.6 2.92s-2.592 4.82-2.92 9.6A49 49 0 0 0 6 22c0 1.13.045 2.26.12 3.36.328 4.781.492 7.172 2.92 9.6s4.819 2.592 9.6 2.92c1.1.075 2.23.12 3.36.12s2.26-.045 3.36-.12c4.781-.328 7.172-.492 9.6-2.92 1.012-1.013 1.631-2.019 2.033-3.195.307-.9-.434-1.765-1.385-1.765-.722 0-1.315.517-1.598 1.181-.27.632-.64 1.125-1.171 1.658-1.513 1.513-2.71 1.707-7.683 2.048A46 46 0 0 1 22 35c-1.051 0-2.112-.042-3.155-.113-4.975-.341-6.17-.535-7.683-2.048s-1.708-2.709-2.049-7.683A46 46 0 0 1 9 22c0-1.051.042-2.112.113-3.155.341-4.974.536-6.17 2.049-7.683s2.708-1.707 7.682-2.048M34 25a1.5 1.5 0 1 0 3 0v-1.5h1.5a1.5 1.5 0 1 0 0-3H37V19a1.5 1.5 0 0 0-3 0v1.5h-1.5a1.5 1.5 0 0 0 0 3H34zm-19.897-9.61-2.698 2.128v3.097l2.698-2.204V28.5h3.173V15.39zm9.178 2.641q.361-.36 1.216-.361.817 0 1.197.323.38.305.38 1.026v.418q0 .684-.494 1.121a5.4 5.4 0 0 1-1.216.779q-.721.342-1.577.741a7 7 0 0 0-1.596.988 5.1 5.1 0 0 0-1.216 1.539q-.474.912-.475 2.318V28.5h9.861v-2.736h-6.308q.096-.645.59-1.064a6.6 6.6 0 0 1 1.196-.798q.705-.36 1.501-.722a8 8 0 0 0 1.463-.893 4.6 4.6 0 0 0 1.102-1.273q.456-.76.456-1.9 0-1.083-.323-1.843a3 3 0 0 0-.95-1.235q-.608-.476-1.52-.684-.892-.21-2.07-.209-1.102 0-1.996.228a4 4 0 0 0-1.539.703q-.627.475-.988 1.292-.36.798-.418 1.957h3.268q.096-.95.456-1.292"/></svg>