<svg xmlns="http://www.w3.org/2000/svg" viewBox="0 0 32 32"><path fill-rule="evenodd" d="M15.5 6.5c-.718 0-1.444.029-2.16.079-3.597.25-4.33.392-5.332 1.393-.999.997-1.149 1.755-1.411 5.44-.06.854-.097 1.725-.097 2.588s.036 1.734.097 2.588c.262 3.685.412 4.443 1.41 5.44 1.004 1.001 1.736 1.144 5.332 1.394.717.05 1.443.078 2.161.078s1.444-.029 2.16-.078c3.597-.25 4.33-.393 5.332-1.394.332-.33.57-.635.75-1.03.251-.553.74-.998 1.349-.998.784 0 1.403.71 1.151 1.454-.293.867-.744 1.605-1.484 2.344-1.763 1.76-3.483 1.879-6.924 2.118-.766.053-1.55.084-2.334.084s-1.568-.031-2.334-.084c-3.44-.24-5.161-.359-6.924-2.118-1.763-1.76-1.888-3.518-2.139-7.033A39 39 0 0 1 4 16c0-.931.039-1.863.103-2.765.25-3.515.376-5.273 2.139-7.033s3.483-1.879 6.924-2.117C13.932 4.03 14.716 4 15.5 4s1.568.031 2.334.085c3.44.238 5.161.358 6.924 2.117.74.739 1.191 1.477 1.485 2.344.25.743-.367 1.454-1.152 1.454-.609 0-1.098-.445-1.35-.999-.18-.394-.417-.698-.749-1.03-1.003-1-1.735-1.143-5.331-1.392A31 31 0 0 0 15.5 6.5m11.25 7.25a1.25 1.25 0 1 0-2.5 0v1h-1a1.25 1.25 0 1 0 0 2.5h1v1a1.25 1.25 0 1 0 2.5 0v-1h1a1.25 1.25 0 1 0 0-2.5h-1zm-16.29-2.03-1.704 1.344v1.956l1.704-1.392V20h2.004v-8.28zm5.797 1.668q.228-.228.768-.228.516 0 .756.204.24.192.24.648v.264a.9.9 0 0 1-.312.708q-.3.264-.768.492-.456.216-.996.468-.54.24-1.008.624-.456.384-.768.972-.3.576-.3 1.464V20h6.228v-1.728h-3.984q.06-.408.372-.672.324-.276.756-.504.444-.228.948-.456.504-.24.924-.564a2.9 2.9 0 0 0 .696-.804q.288-.48.288-1.2 0-.684-.204-1.164a1.9 1.9 0 0 0-.6-.78 2.4 2.4 0 0 0-.96-.432 5.8 5.8 0 0 0-1.308-.132q-.696 0-1.26.144-.564.132-.972.444-.396.3-.624.816-.228.504-.264 1.236h2.064q.06-.6.288-.816"/></svg>