<svg xmlns="http://www.w3.org/2000/svg" viewBox="0 0 24 24"><path fill-rule="evenodd" d="M12 5.001c-.642 0-1.292.029-1.929.076-2.75.205-3.265.318-3.97 1.025-.707.706-.82 1.22-1.025 3.97A26 26 0 0 0 5 12.003c0 .642.028 1.291.076 1.928.204 2.75.318 3.265 1.024 3.971.706.707 1.22.82 3.971 1.025.637.047 1.287.076 1.929.076s1.292-.029 1.929-.076c2.75-.205 3.265-.318 3.97-1.025q.133-.13.238-.259c.283-.345.663-.642 1.109-.642.684 0 1.205.65.88 1.25a4.7 4.7 0 0 1-.812 1.066c-1.313 1.312-2.62 1.41-5.237 1.604-.678.05-1.377.081-2.077.081s-1.399-.03-2.077-.08c-2.616-.195-3.924-.293-5.237-1.605s-1.41-2.621-1.605-5.237A28 28 0 0 1 3 12c0-.7.03-1.399.081-2.077.195-2.616.292-3.924 1.605-5.237 1.313-1.312 2.62-1.41 5.237-1.604C10.6 3.032 11.3 3 12 3s1.399.031 2.077.082c2.616.194 3.924.292 5.237 1.604.346.347.608.692.81 1.062.326.6-.196 1.251-.88 1.251-.446 0-.826-.296-1.109-.641a4 4 0 0 0-.235-.257c-.706-.707-1.22-.82-3.971-1.025A26 26 0 0 0 12 5.001M19 9a1 1 0 0 1 1 1v1h1a1 1 0 1 1 0 2h-1v1a1 1 0 1 1-2 0v-1h-1a1 1 0 1 1 0-2h1v-1a1 1 0 0 1 1-1m-6.298.997q-.405 0-.576.17-.171.163-.216.613h-1.548q.027-.549.198-.927.171-.387.468-.612.306-.234.729-.333.423-.108.945-.108.558 0 .98.099.433.099.72.324.299.225.45.585.154.36.154.873 0 .54-.216.9a2.2 2.2 0 0 1-.522.603q-.315.243-.693.423-.379.171-.711.342-.324.171-.567.378a.8.8 0 0 0-.28.504h2.989v1.296h-4.671v-.747q0-.666.225-1.098.234-.44.576-.73.351-.287.756-.467l.747-.351a2.6 2.6 0 0 0 .576-.37.68.68 0 0 0 .234-.53v-.198q0-.342-.18-.486-.18-.153-.567-.153M6.5 9.925l1.278-1.008h1.503v6.21H7.778v-4.78L6.5 11.393z"/></svg>