<svg xmlns="http://www.w3.org/2000/svg" viewBox="0 0 16 16"><path fill-rule="evenodd" d="m11.493 3.849.003 2.386c0 .248 0 .372.022.474a1 1 0 0 0 .77.77c.103.021.227.021.474.021h.73c.28 0 .508.222.508.5 0 .466-.02.933-.054 1.385-.13 1.744-.195 2.616-1.07 3.491s-1.747.94-3.491 1.07C8.933 13.98 8.466 14 8 14s-.933-.02-1.385-.054c-1.744-.13-2.616-.195-3.491-1.07s-.94-1.747-1.07-3.491A19 19 0 0 1 2 8c0-.466.02-.933.054-1.385.13-1.744.195-2.616 1.07-3.491s1.747-.94 3.491-1.07A19 19 0 0 1 8 2c.466 0 .933.02 1.385.054q.314.023.594.046c.656.054.984.08 1.248.367s.265.652.266 1.382M5.5 6h1.824l.735 2.288L8.852 6H10.5v4h-1V6.754l-1 2.719H7.44L6.5 6.736V10h-1z"/><path d="M14.164 2.851c.365 0 .531.135.531.455v.14c0 .916-2.196.615-2.196 2.523V6.5h3.303v-1h-2.108c.228-.778 2.108-.686 2.108-2.162 0-.98-.582-1.338-1.638-1.338-.992 0-1.62.358-1.665 1.408H13.6c.039-.422.186-.557.564-.557"/></svg>