<svg xmlns="http://www.w3.org/2000/svg" viewBox="0 0 32 32"><path fill-rule="evenodd" d="M14.827 2.515a1.25 1.25 0 0 1 1.428 1.042l.16 1.023c.288.044.627.107 1.056.187l1.119.206c2.636.484 5.273.969 7.875 1.605 1.576.385 3.587.877 3.534 2.732-.046 1.607-1.561 2.047-2.97 2.404-1.968.499-5.015.971-9.244 1.618l1.548 9.883c.888.189 1.753.393 2.57.6 2.817.712 4.226 1.068 5.355 2.69.367.527.601 1.007.742 1.495H4q.057-.257.122-.51c.586-2.287.879-3.431 2.507-4.573s3.077-1.001 5.972-.72c1.302.127 2.712.297 4.124.527l-1.41-9.014c-4.25.649-7.545 1.146-9.583 1.26-1.454.08-3.037.113-3.594-1.401-.645-1.75 1.11-2.817 2.486-3.653 2.27-1.38 4.624-2.628 6.976-3.875l.002-.001.995-.529c.588-.312.988-.524 1.329-.671l-.14-.897a1.25 1.25 0 0 1 1.04-1.428m.284 4.549c-.15.04-.32.112-1.34.655l-1.004.533c-2.358 1.25-4.641 2.46-6.844 3.8-.263.16-.494.3-.704.44l.374-.019c1.888-.105 4.802-.54 9.11-1.2l2.662-.406c4.309-.659 7.222-1.113 9.05-1.576l.28-.073c-.25-.07-.518-.137-.824-.212-2.526-.617-5.087-1.088-7.73-1.574h-.002l-1.123-.207c-1.143-.212-1.332-.231-1.492-.224q-.211.009-.413.063"/></svg>