<svg xmlns="http://www.w3.org/2000/svg" viewBox="0 0 24 24"><path fill-rule="evenodd" d="M11.109 2.012a1 1 0 0 1 1.144.832l.115.726c.203.033.441.078.735.133l.838.157h.001c1.977.37 3.956.739 5.907 1.223 1.182.294 2.69.668 2.65 2.082-.034 1.224-1.17 1.56-2.227 1.831-1.464.377-3.722.734-6.851 1.22l1.141 7.208c.645.139 1.272.287 1.865.437 2.113.534 3.17.801 4.017 2.017.275.396.45.756.556 1.122H3q.044-.192.092-.383c.44-1.715.66-2.573 1.88-3.43 1.222-.856 2.308-.75 4.48-.54.954.094 1.987.218 3.023.384l-1.03-6.508c-3.187.495-5.618.867-7.146.954-1.09.061-2.277.086-2.696-1.067-.483-1.333.833-2.146 1.865-2.784C5.17 6.575 6.936 5.624 8.7 4.674l.748-.403c.403-.218.688-.372.93-.482l-.1-.632a1 1 0 0 1 .83-1.145"/></svg>