<svg xmlns="http://www.w3.org/2000/svg" viewBox="0 0 16 16"><path fill-rule="evenodd" d="M7.38 1.51a.75.75 0 0 1 .86.62l.07.43q.18.031.425.08l.56.108c1.318.253 2.637.507 3.937.84.789.202 1.794.46 1.768 1.432-.023.841-.781 1.072-1.486 1.259-.959.255-2.43.496-4.462.822l.74 4.533c.4.087.79.18 1.16.273 1.408.357 2.113.535 2.677 1.345.184.264.3.504.371.748H2q.029-.128.061-.255c.293-1.144.44-1.715 1.254-2.286s1.538-.5 2.986-.36c.608.059 1.263.137 1.922.24l-.653-4c-2.124.34-3.685.587-4.704.646-.727.042-1.518.06-1.797-.733-.323-.917.555-1.476 1.243-1.914C3.447 4.614 4.624 3.96 5.8 3.307l.499-.277c.216-.12.382-.213.522-.284l-.061-.375a.75.75 0 0 1 .62-.861m.256 2.513c-.034.01-.085.026-.607.317l-.503.28c-1.085.602-2.132 1.184-3.144 1.816.912-.096 2.183-.296 3.92-.574l1.332-.213c1.75-.28 3.026-.488 3.923-.683-1.155-.285-2.328-.51-3.543-.745l-.564-.109C7.864 4 7.811 4 7.776 4a.6.6 0 0 0-.14.023"/></svg>