<svg xmlns="http://www.w3.org/2000/svg" viewBox="0 0 44 44"><path fill-rule="evenodd" d="M20.418 4.019a1.5 1.5 0 0 1 1.717 1.247l.207 1.31c1.063.152 2.117.38 3.173.577 3.577.669 7.157 1.338 10.687 2.216 2.14.533 4.868 1.211 4.797 3.774-.062 2.218-2.12 2.827-4.031 3.32-2.68.69-6.933 1.36-12.702 2.258l2.052 12.956c1.177.261 2.325.545 3.413.832 3.878 1.025 5.817 1.537 7.38 3.78.417.597.71 1.153.912 1.711H6q.042-.183.088-.364c.81-3.244 1.214-4.866 3.426-6.415s4.204-1.34 8.186-.92a82 82 0 0 1 5.482.752l-1.88-11.871c-5.767.896-10.472 1.62-13.237 1.776-1.974.111-4.121.157-4.878-1.934-.875-2.416 1.507-3.89 3.374-5.045 3.081-1.906 6.275-3.63 9.467-5.35 1.094-.591 2.175-1.264 3.328-1.732l-.184-1.162a1.5 1.5 0 0 1 1.246-1.716m.288 5.58c-.253.07-.525.195-1.896.937l-1.362.735c-3.199 1.726-6.309 3.403-9.309 5.26-.684.423-1.434.838-1.993 1.428.576.084 1.172.036 1.75.003 2.581-.145 6.557-.751 12.395-1.659l3.612-.562c5.84-.909 9.814-1.539 12.316-2.184.546-.14 1.11-.274 1.622-.515-.72-.396-1.573-.565-2.363-.761-3.438-.856-6.925-1.508-10.51-2.178h-.002l-1.525-.287c-1.536-.289-1.838-.327-2.103-.314a3 3 0 0 0-.632.098"/></svg>