<svg xmlns="http://www.w3.org/2000/svg" viewBox="0 0 16 16"><path d="M1.75 6.002h2.5A.747.747 0 0 1 5 6.75a.75.75 0 0 1-.749.749H1.749a.75.75 0 1 1 0-1.498M1.25 3.502a.75.75 0 0 0 0 1.5h2.5a.747.747 0 0 0 .75-.75.75.75 0 0 0-.75-.75z"/><path fill-rule="evenodd" d="M5.264 2.587c.7-.053 1.501-.087 2.403-.087.756 0 1.609.024 2.223.063.345.022.61.311.61.657V4.5h1.594c.266 0 .494.1.648.187.165.093.32.213.461.337.282.249.564.571.812.899.25.33.481.687.655 1.02.086.165.164.335.222.5.054.154.108.351.108.557 0 .484-.022.946-.058 1.378-.085 1.026-.137 1.646-.583 2.288h-.021a.67.67 0 0 1-.711.32 2.251 2.251 0 0 1-4.25.013H6.623a2.25 2.25 0 0 1-4.244 0h-.426c-.242 0-.472-.13-.544-.361-.078-.252-.125-.547-.187-.929-.086-.531-.16-1.15-.197-1.828q.342.117.725.119h2.502A2.249 2.249 0 0 0 5.82 5.138a2.24 2.24 0 0 0-.555-2.551m8.183 6.667a21 21 0 0 1-.071.753 2.25 2.25 0 0 0-2.876-.773V6h1.222l.24 1.443A.67.67 0 0 0 12.62 8h.88c0 .432-.02.865-.053 1.254M4.5 10.5a.75.75 0 1 0 0 1.5.75.75 0 0 0 0-1.5m7 0a.75.75 0 1 0 0 1.5.75.75 0 0 0 0-1.5"/></svg>