<svg xmlns="http://www.w3.org/2000/svg" viewBox="0 0 16 16"><path fill-rule="evenodd" d="M1.048 9.25c.04.535.103 1.026.173 1.46.062.381.11.676.187.928.072.231.302.361.544.361h.426a2.25 2.25 0 0 0 4.244 0h2.756a2.25 2.25 0 0 0 4.249-.013.67.67 0 0 0 .711-.32h.021c.446-.642.498-1.262.583-2.288C14.978 8.946 15 8.484 15 8c0-.206-.054-.403-.108-.557a4 4 0 0 0-.222-.5 7.5 7.5 0 0 0-.655-1.02 6.3 6.3 0 0 0-.812-.899 2.7 2.7 0 0 0-.461-.337 1.34 1.34 0 0 0-.648-.187H10.5V3.22a.654.654 0 0 0-.61-.657A38 38 0 0 0 7.667 2.5c-.471 0-.956 0-1.417.025a.75.75 0 0 0 0 1.5l.083-.001Q6.956 3.999 7.667 4c.436 0 .904.008 1.333.023v6.476H6.622a2.251 2.251 0 0 0-3.99-.503q-.049-.354-.081-.746a.753.753 0 0 0-1.503 0m9.452-.016a2.25 2.25 0 0 1 2.876.773c.023-.188.044-.428.071-.753.033-.39.052-.822.053-1.254h-.88a.67.67 0 0 1-.657-.557L11.723 6H10.5zm1 1.266a.75.75 0 1 0 0 1.5.75.75 0 0 0 0-1.5m-7 0a.75.75 0 1 0 0 1.5.75.75 0 0 0 0-1.5"/><path d="M.5 4.191a.75.75 0 0 1 .75-.75h2.5a.75.75 0 1 1 0 1.5h-2.5a.75.75 0 0 1-.75-.75M1 6.69a.75.75 0 0 1 .749-.749h2.502a.749.749 0 0 1 0 1.498H1.749A.75.75 0 0 1 1 6.69"/></svg>