<svg xmlns="http://www.w3.org/2000/svg" viewBox="0 0 16 16"><path d="M10.5 6.399a.9.9 0 1 0 0-1.8.9.9 0 0 0 0 1.8"/><path fill-rule="evenodd" d="M5.968 3.443a40 40 0 0 0-3.11 3.474C2.3 7.627 2.02 7.98 2 8.639s.215.994.682 1.667c.355.51.808 1.081 1.368 1.641s1.13 1.013 1.64 1.368c.673.467 1.01.701 1.667.682.658-.02 1.013-.299 1.723-.857a40 40 0 0 0 3.473-3.11c1.043-1.043 1.325-2.002 1.395-3.373.02-.399.043-.86.049-1.33.016-1.268-.058-2.599-.394-2.934-.335-.336-1.665-.409-2.932-.393l-.405.003c-1.186.007-2.277.014-3.318.662-.31.193-.65.447-.98.778M4.037 7.844a38 38 0 0 1 2.992-3.34c.239-.24.486-.424.713-.565.665-.415 1.322-.422 2.605-.435l.344-.004a14 14 0 0 1 1.738.068l.013.106c.049.444.064 1.024.056 1.634-.005.438-.027.873-.047 1.273-.031.607-.105 1.012-.234 1.344-.122.316-.325.645-.724 1.044a38 38 0 0 1-3.34 2.992c-.183.144-.316.25-.435.336a2 2 0 0 1-.238.158.3.3 0 0 1-.072.032.4.4 0 0 1-.094.01.5.5 0 0 1-.109-.004.2.2 0 0 1-.05-.019 2 2 0 0 1-.203-.116 15 15 0 0 1-.404-.275c-.45-.313-.95-.71-1.436-1.197A10.6 10.6 0 0 1 3.915 9.45a14 14 0 0 1-.275-.405 2 2 0 0 1-.116-.202.2.2 0 0 1-.019-.05.5.5 0 0 1-.005-.11.4.4 0 0 1 .011-.093.3.3 0 0 1 .033-.073 2 2 0 0 1 .157-.238c.087-.118.192-.252.336-.435"/></svg>