<svg xmlns="http://www.w3.org/2000/svg" viewBox="0 0 24 24"><path fill-rule="evenodd" d="M4.287 10.374c1.04-1.323 2.57-3.115 4.665-5.21a8.3 8.3 0 0 1 1.47-1.167c1.563-.973 3.2-.982 4.978-.993q.3-.001.607-.005c1.902-.024 3.896.086 4.399.59.503.503.615 2.498.59 4.4a52 52 0 0 1-.073 1.996c-.105 2.056-.528 3.494-2.092 5.058-2.095 2.096-3.887 3.626-5.21 4.666-1.065.838-1.597 1.256-2.583 1.285-.987.03-1.492-.321-2.5-1.023a18 18 0 0 1-2.462-2.051c-.84-.84-1.52-1.697-2.051-2.462-.702-1.009-1.052-1.514-1.023-2.5.029-.987.447-1.52 1.285-2.584M16 9.25a1.25 1.25 0 1 0 0-2.5 1.25 1.25 0 0 0 0 2.5"/></svg>