<svg xmlns="http://www.w3.org/2000/svg" viewBox="0 0 24 24"><path fill-rule="evenodd" d="M16.105 17.519c.425.425.382 1.132-.14 1.43A7.96 7.96 0 0 1 12 20a7.96 7.96 0 0 1-3.965-1.05c-.522-.299-.565-1.006-.14-1.431l.77-.77c.336-.336.859-.378 1.293-.184.624.28 1.315.435 2.042.435.728 0 1.419-.155 2.042-.435.434-.194.957-.152 1.293.184zm1.414-1.415c.425.426 1.132.383 1.43-.14A7.96 7.96 0 0 0 20 12a7.96 7.96 0 0 0-1.05-3.965c-.299-.522-1.006-.565-1.431-.14l-.77.77c-.336.336-.378.859-.184 1.293.28.623.435 1.315.435 2.042s-.155 1.419-.435 2.042c-.194.434-.152.957.185 1.293zM15.965 5.05c.522.299.565 1.006.14 1.431l-.77.77c-.336.336-.859.378-1.293.184A5 5 0 0 0 12 7a5 5 0 0 0-2.715.8.06.06 0 0 1-.078-.007L7.896 6.48c-.426-.425-.383-1.132.14-1.43A7.96 7.96 0 0 1 12 4c1.443 0 2.796.382 3.965 1.05M6.481 7.895c-.425-.425-1.132-.382-1.43.14A7.96 7.96 0 0 0 4 12c0 1.443.382 2.796 1.05 3.965.299.522 1.006.565 1.431.14l.77-.77c.336-.336.378-.859.184-1.293A5 5 0 0 1 7 12a4.97 4.97 0 0 1 .801-2.715.06.06 0 0 0-.008-.078zM22 12c0 5.523-4.477 10-10 10S2 17.523 2 12 6.477 2 12 2s10 4.477 10 10m-7 0a3 3 0 1 1-6 0 3 3 0 0 1 6 0"/></svg>