<svg xmlns="http://www.w3.org/2000/svg" viewBox="0 0 24 24"><path d="M20.394 17.437A9.95 9.95 0 0 0 22 12c0-2.005-.59-3.872-1.606-5.437-.322-.496-1.014-.529-1.432-.11L16.75 8.665c-.337.336-.379.859-.185 1.293.28.623.435 1.315.435 2.042s-.155 1.419-.435 2.042c-.194.434-.152.957.185 1.293l2.212 2.212c.418.419 1.11.386 1.432-.11m-6.352-.872A5 5 0 0 1 12 17a5 5 0 0 1-2.042-.435c-.434-.194-.957-.152-1.293.184l-2.212 2.213c-.419.418-.386 1.11.11 1.432A9.95 9.95 0 0 0 12 22c2.005 0 3.872-.59 5.437-1.606.496-.322.529-1.014.11-1.432l-2.212-2.212c-.336-.337-.859-.38-1.293-.185M2 12c0 2.005.59 3.872 1.606 5.437.322.496 1.014.529 1.432.11l2.213-2.212c.336-.336.378-.859.184-1.293A5 5 0 0 1 7 12c0-.727.156-1.419.435-2.042.194-.434.152-.957-.184-1.293L5.038 6.452c-.418-.418-1.11-.385-1.432.111A9.95 9.95 0 0 0 2 12m7.958-4.565A5 5 0 0 1 12 7c.728 0 1.419.155 2.042.435.434.194.957.152 1.293-.184l2.213-2.213c.418-.418.385-1.11-.111-1.432A9.95 9.95 0 0 0 12 2c-2.005 0-3.872.59-5.437 1.606-.496.322-.529 1.014-.11 1.432l2.212 2.213c.336.336.859.378 1.293.184"/></svg>