<svg xmlns="http://www.w3.org/2000/svg" viewBox="0 0 16 16"><path fill-rule="evenodd" d="M10.918 11.978c.214.214.19.57-.069.728A5.5 5.5 0 0 1 8 13.5a5.5 5.5 0 0 1-2.849-.794c-.26-.158-.283-.514-.068-.728l.745-.745a.55.55 0 0 1 .635-.088c.464.228.986.355 1.537.355s1.073-.127 1.537-.355a.55.55 0 0 1 .635.088zm1.06-1.06c.214.214.57.19.728-.07.504-.83.794-1.805.794-2.848s-.29-2.018-.794-2.849c-.158-.26-.514-.283-.728-.068l-.745.745a.55.55 0 0 0-.087.635c.227.464.354.986.354 1.537s-.127 1.073-.354 1.537a.55.55 0 0 0 .087.635zM10.85 3.294c.26.157.283.513.069.727l-.746.745a.55.55 0 0 1-.635.088A3.5 3.5 0 0 0 8 4.5c-.653 0-1.265.179-1.788.49a.15.15 0 0 1-.182-.02l-.947-.948c-.215-.214-.191-.57.068-.728A5.5 5.5 0 0 1 8 2.5c1.043 0 2.018.29 2.85.795M4.022 5.083c-.214-.215-.57-.191-.727.068A5.5 5.5 0 0 0 2.5 8c0 1.043.29 2.018.795 2.85.157.258.513.282.727.068l.745-.746a.55.55 0 0 0 .088-.635A3.5 3.5 0 0 1 4.5 8c0-.653.18-1.265.49-1.788a.15.15 0 0 0-.02-.182zM15 8A7 7 0 1 1 1 8a7 7 0 0 1 14 0m-5 0a2 2 0 1 1-4 0 2 2 0 0 1 4 0"/></svg>