<svg xmlns="http://www.w3.org/2000/svg" viewBox="0 0 16 16"><path d="M3.152 8.366c-.239.723-.37 1.433-.36 2.06.004.327.049.668.16.984l-.028.044a62 62 0 0 0-1.667 2.204l-.086.12-.023.032-.008.011a.754.754 0 0 0 .178 1.053c.287.204.769.139.924-.04.156-.177.137-.15.156-.177a54 54 0 0 1 .735-1 67 67 0 0 1 .92-1.197q.26-.33.534-.666a27 27 0 0 1 1.633-1.85c.3-.303.66-.639 1.032-.971.359-.322.728-.64 1.065-.926a67 67 0 0 1 1.116-.923l-.166.151s-.806.805-2.617 3.32c-1.438 1.997-1.438 2.297-1.438 2.297s1.55.133 2.38.032c.337-.041.68-.103 1.018-.189a6 6 0 0 0 1.395-.533 4 4 0 0 0 1.071-.829c.262-.292.475-.634.614-1.032a.76.76 0 0 0-.077-.658 1 1 0 0 0-.056-.078l-.058-.067-.117-.122-.056-.057a5.6 5.6 0 0 0 1.824-1.493c.274-.348.507-.715.706-1.089.213-.4.386-.81.528-1.212.168-.48.291-.95.381-1.388.168-.818.219-1.516.234-1.932a1.19 1.19 0 0 0-1.143-1.238 11.2 11.2 0 0 0-4.583.83 10.7 10.7 0 0 0-4.512 3.49q-.4.537-.723 1.091a10.4 10.4 0 0 0-.886 1.948"/></svg>