<svg xmlns="http://www.w3.org/2000/svg" viewBox="0 0 16 16"><path fill-rule="evenodd" d="M3.124 3.124c-.875.875-.94 1.747-1.07 3.491C2.02 7.067 2 7.534 2 8s.02.933.054 1.385c.13 1.744.195 2.616 1.07 3.491s1.747.94 3.491 1.07C7.067 13.98 7.534 14 8 14s.933-.02 1.385-.054c1.744-.13 2.616-.195 3.491-1.07s.94-1.747 1.07-3.491C13.98 8.933 14 8.466 14 8s-.02-.933-.054-1.385c-.13-1.744-.195-2.616-1.07-3.491s-1.747-.94-3.491-1.07A19 19 0 0 0 8 2c-.466 0-.933.02-1.385.054-1.744.13-2.616.195-3.491 1.07M8 3.5c-.423 0-.852.019-1.273.05-1.845.137-2.122.214-2.542.635-.42.42-.498.697-.635 2.542-.031.42-.05.85-.05 1.273s.019.852.05 1.273c.137 1.845.214 2.122.635 2.542.42.42.697.498 2.542.635.42.032.85.05 1.273.05s.852-.018 1.273-.05c1.845-.137 2.122-.214 2.542-.635.42-.42.498-.697.635-2.542.032-.42.05-.85.05-1.273s-.018-.852-.05-1.273c-.137-1.845-.214-2.122-.635-2.542-.42-.42-.697-.498-2.542-.635A17 17 0 0 0 8 3.5"/><path fill-rule="evenodd" d="M9.962 8.77c1.004-.816 1.506-1.224 1.444-1.612a.7.7 0 0 0-.068-.207c-.18-.35-.827-.38-2.12-.443-.489-1.256-.733-1.884-1.149-1.927a.7.7 0 0 0-.138 0c-.416.043-.66.671-1.15 1.927-1.293.063-1.94.094-2.12.443a.7.7 0 0 0-.068.207c-.061.388.44.796 1.445 1.612l.034.028-.06.21c-.284 1.017-.415 1.54-.224 1.794.088.115.21.2.348.242.325.098.81-.255 1.783-.961"/><path d="m7.919 10.083.08-.06.082.06c.972.706 1.458 1.059 1.782.961a.7.7 0 0 0 .348-.242c.204-.27.076-.876-.25-2.032 1.005-.816 1.507-1.224 1.445-1.612a.7.7 0 0 0-.068-.207c-.18-.35-.827-.38-2.12-.443-.489-1.256-.733-1.884-1.149-1.927a.7.7 0 0 0-.138 0c-.416.043-.66.671-1.15 1.927-1.293.063-1.94.094-2.12.443a.7.7 0 0 0-.068.207c-.061.388.44.796 1.445 1.612l.034.028-.06.21c-.284 1.017-.415 1.54-.224 1.794.088.115.21.2.348.242.325.098.81-.255 1.783-.961"/></svg>