<svg xmlns="http://www.w3.org/2000/svg" viewBox="0 0 24 24"><path fill-rule="evenodd" d="M4.686 4.686c-1.313 1.313-1.41 2.62-1.605 5.237C3.031 10.6 3 11.3 3 12s.03 1.399.081 2.077c.195 2.616.292 3.924 1.605 5.237s2.62 1.41 5.237 1.605C10.6 20.969 11.3 21 12 21s1.399-.03 2.077-.081c2.616-.195 3.924-.292 5.237-1.605s1.41-2.62 1.605-5.237C20.969 13.4 21 12.7 21 12s-.03-1.399-.081-2.077c-.195-2.616-.292-3.924-1.605-5.237s-2.62-1.41-5.237-1.605A28 28 0 0 0 12 3c-.7 0-1.399.03-2.077.081-2.616.195-3.924.292-5.237 1.605m7.19 10.342c-1.502 1.065-2.252 1.597-2.752 1.447a1.05 1.05 0 0 1-.523-.356c-.318-.406-.067-1.278.434-3.023l-.052-.04c-1.55-1.232-2.324-1.847-2.225-2.433q.027-.155.1-.296c.276-.53 1.273-.577 3.268-.67.755-1.896 1.133-2.843 1.775-2.902q.099-.01.198 0c.642.059 1.02 1.007 1.775 2.902 1.995.093 2.992.14 3.268.67q.072.14.1.296c.099.586-.676 1.201-2.225 2.432l-.053.041c.502 1.745.753 2.617.435 3.023a1.05 1.05 0 0 1-.523.356c-.5.15-1.25-.382-2.751-1.447L12 14.939z"/></svg>