<svg xmlns="http://www.w3.org/2000/svg" viewBox="0 0 44 44"><path fill-rule="evenodd" d="M9.04 9.04c-2.428 2.429-2.592 4.819-2.92 9.6A49 49 0 0 0 6 22c0 1.13.045 2.26.12 3.36.328 4.781.492 7.172 2.92 9.6s4.819 2.592 9.6 2.92c1.1.075 2.23.12 3.36.12s2.26-.045 3.36-.12c4.781-.328 7.172-.492 9.6-2.92s2.592-4.819 2.92-9.6c.075-1.1.12-2.23.12-3.36s-.045-2.26-.12-3.36c-.328-4.781-.492-7.171-2.92-9.6s-4.819-2.592-9.6-2.92A49 49 0 0 0 22 6c-1.13 0-2.26.045-3.36.12-4.781.328-7.171.492-9.6 2.92M22 27.963l-.238.173c-2.85 2.069-4.274 3.103-5.224 2.817a2 2 0 0 1-1.02-.71c-.599-.791-.122-2.486.83-5.874l-.1-.081c-2.942-2.392-4.414-3.588-4.233-4.727.033-.21.1-.415.199-.605.53-1.024 2.424-1.115 6.213-1.297 1.435-3.683 2.152-5.525 3.37-5.649q.202-.02.406 0c1.218.124 1.935 1.966 3.37 5.649 3.789.182 5.683.273 6.213 1.297q.148.287.2.605c.18 1.139-1.292 2.335-4.235 4.727l-.099.08c.952 3.39 1.429 5.084.83 5.875a2 2 0 0 1-1.02.71c-.95.286-2.375-.748-5.224-2.817z"/></svg>