<svg xmlns="http://www.w3.org/2000/svg" viewBox="0 0 16 16"><path fill-rule="evenodd" d="M7.75 12.494a46 46 0 0 1-2.758-.112c-1.378-.115-2.068-.172-2.932-1.038s-.914-1.488-1.015-2.73a14 14 0 0 1 0-2.228c.1-1.242.15-1.863 1.015-2.73.865-.866 1.554-.923 2.932-1.038C5.835 2.548 6.838 2.5 8 2.5s2.164.048 3.007.118c1.38.115 2.069.172 2.933 1.038.865.867.915 1.488 1.015 2.731.015.19.027.527.035.86a.74.74 0 0 1-.743.753.753.753 0 0 1-.753-.753V7H2.514l-.001.033c-.006.152-.013.31-.013.467q.001.518.04.993c.055.672.085.95.156 1.172.144.454.618.907 1.072 1.044.268.081.609.116 1.348.178.632.052 1.673.092 2.634.107a.76.76 0 0 1 .75.756c0 .414-.336.75-.75.744m-2.634-8.38A35 35 0 0 1 8 4c1.12 0 2.081.047 2.883.113.74.062 1.08.097 1.35.178.453.137.927.59 1.072 1.044l.009.028q.02.063.038.137H2.656l.001-.006c.012-.06.023-.11.039-.16.144-.453.618-.906 1.072-1.043.268-.081.609-.116 1.348-.178"/><path d="M13.005 8.75a.75.75 0 0 0-1.5 0V10H10.25a.75.75 0 0 0 0 1.5h1.255v1.25a.75.75 0 0 0 1.5 0V11.5h1.245a.75.75 0 1 0 0-1.5h-1.245z"/></svg>