<svg xmlns="http://www.w3.org/2000/svg" viewBox="0 0 24 24"><path fill-rule="evenodd" d="M12 4c-1.55 0-2.902.068-4.055.168-2.024.175-3.036.263-4.326 1.557S2.25 7.99 2.087 9.93a25 25 0 0 0 0 4.14c.162 1.94.243 2.911 1.532 4.205s2.302 1.382 4.326 1.557c1.153.1 2.505.168 4.055.168q.533 0 1.035-.01a.984.984 0 0 0 .96-.989c0-.568-.473-1.02-1.04-1.01q-.464.01-.955.01a45 45 0 0 1-3.882-.161c-1.079-.094-1.602-.149-2.022-.278-.76-.235-1.52-.981-1.756-1.742-.123-.393-.173-.879-.26-1.916a23 23 0 0 1 0-3.808L4.088 10h15.824l.009.098q.037.438.057.902c.025.552.47 1 1.023 1a.97.97 0 0 0 .98-1 25 25 0 0 0-.067-1.068c-.162-1.942-.243-2.913-1.532-4.207s-2.302-1.382-4.328-1.557A47 47 0 0 0 12 4M8.118 6.16C9.214 6.065 10.508 6 12 6s2.786.065 3.882.16c1.079.094 1.602.149 2.023.278.703.217 1.406.882 1.69 1.562H4.406c.285-.68.987-1.345 1.69-1.562.421-.13.945-.184 2.023-.278"/><path d="M19.005 13a1 1 0 1 0-2 0v2H15a1 1 0 0 0 0 2h2.005v2a1 1 0 1 0 2 0v-2H21a1 1 0 1 0 0-2h-1.995z"/></svg>