<svg xmlns="http://www.w3.org/2000/svg" viewBox="0 0 24 24"><path d="m17.86 8.5-.03-.381c-.094-1.08-.15-1.603-.279-2.024-.096-.312-.25-.612-.699-1.06-.46-.458-.755-.606-1.043-.696-.394-.123-.88-.173-1.916-.26a23 23 0 0 0-3.796 0c-1.038.087-1.523.137-1.917.26-.288.09-.584.238-1.043.696-.45.448-.603.748-.699 1.06-.13.421-.184.945-.278 2.024A45 45 0 0 0 6 12c0 1.492.065 2.786.16 3.882.094 1.079.149 1.602.278 2.023.096.312.25.612.699 1.06.46.457.755.606 1.043.696.309.096.675.148 1.32.207v.007a1 1 0 0 1 1 1c0 .552-.472 1-1.024 1a1 1 0 0 1-.131-.012c-1.565-.142-2.463-.329-3.62-1.482-1.294-1.29-1.382-2.302-1.557-4.326A47 47 0 0 1 4 12c0-1.55.068-2.901.167-4.054.176-2.025.264-3.038 1.558-4.328s2.265-1.37 4.206-1.531a25 25 0 0 1 4.128 0c1.94.161 2.911.242 4.205 1.531 1.294 1.29 1.382 2.303 1.558 4.328l.038.47.006.084a1.002 1.002 0 0 1-2.006 0"/><path d="M14 7a1 1 0 0 1-1 1H9a1 1 0 1 1 0-2h4a1 1 0 0 1 1 1m-2 4a1 1 0 0 1-1 1H9a1 1 0 1 1 0-2h2a1 1 0 0 1 1 1"/><path fill-rule="evenodd" d="M18.826 11.493c.658-.572 1.663-.688 2.435-.126.232.169.512.388.748.624s.456.516.625.749c.561.772.445 1.776-.127 2.435-.634.73-1.786 2.033-2.693 2.931-.707.7-1.679 1.563-2.355 2.153a6 6 0 0 1-2.235 1.226l-1.533.46a1.313 1.313 0 0 1-1.635-1.636l.46-1.532a6 6 0 0 1 1.226-2.236c.589-.676 1.453-1.648 2.152-2.354.898-.907 2.202-2.06 2.932-2.694m-1.51 4.101c.834-.843 2.076-1.943 2.809-2.58.181.134.35.271.47.391s.258.289.392.47c-.637.733-1.737 1.975-2.58 2.81-.658.651-1.589 1.48-2.262 2.066a4 4 0 0 1-1.496.818l-.311.093.093-.31a4 4 0 0 1 .818-1.497c.587-.673 1.415-1.604 2.066-2.261"/></svg>