<svg xmlns="http://www.w3.org/2000/svg" viewBox="0 0 24 24"><path fill-rule="evenodd" d="M4 12c0 1.55.068 2.902.168 4.055.175 2.024.263 3.037 1.557 4.326 1.294 1.29 2.264 1.37 4.204 1.532q.63.053 1.312.075a3.14 3.14 0 0 1-.03-2.373l.462-1.209.043-.092a9.5 9.5 0 0 1 1.596-2.395 79 79 0 0 1 2.11-2.242c.881-.888 2.116-2.023 2.791-2.636a4.2 4.2 0 0 1 1.74-.96 44 44 0 0 0-.131-2.135c-.176-2.025-.264-3.038-1.558-4.328S16 2.248 14.06 2.087a25 25 0 0 0-4.128 0c-1.941.161-2.912.242-4.206 1.531-1.294 1.29-1.382 2.303-1.558 4.328A47 47 0 0 0 4 12m9-4a1 1 0 1 0 0-2H9a1 1 0 1 0 0 2zm-1 3a1 1 0 0 1-1 1H9a1 1 0 1 1 0-2h2a1 1 0 0 1 1 1"/><path d="M20.487 12.055c.344-.087.806-.096 1.23.168.172.107.402.265.598.461.196.197.354.427.462.6.264.423.255.885.168 1.228-.089.35-.276.67-.512.93-.613.674-1.717 1.876-2.564 2.717a77 77 0 0 1-2.18 2.05 7.5 7.5 0 0 1-1.888 1.26l-.03.014-1.146.437c-.967.37-1.915-.579-1.546-1.545l.438-1.145.015-.031a7.5 7.5 0 0 1 1.259-1.888 77 77 0 0 1 2.05-2.18c.841-.847 2.042-1.951 2.717-2.564.26-.236.579-.424.93-.512"/></svg>