<svg xmlns="http://www.w3.org/2000/svg" viewBox="0 0 16 16"><path d="M4.001 8c0 1.21.06 2.234.143 3.07.068.69.105 1.002.18 1.246.051.163.125.315.365.556.247.248.396.32.543.367.207.066.467.11 1.018.17a.75.75 0 1 1-.156 1.483c-1.124-.118-1.72-.21-2.468-.962-.785-.788-.848-1.43-.975-2.713A33 33 0 0 1 2.501 8c0-1.26.063-2.332.15-3.217.127-1.283.19-1.925.975-2.713s1.4-.852 2.632-.979A17 17 0 0 1 8 1c.621 0 1.207.036 1.742.091 1.232.127 1.848.19 2.632.979.785.788.848 1.43.975 2.713q.04.414.074.883.002.027 0 .056v.028a.75.75 0 0 1-1.5 0l-.003-.035q-.003-.024-.001-.049-.029-.39-.063-.735c-.068-.69-.105-1.003-.18-1.247-.051-.163-.125-.315-.365-.556-.247-.248-.396-.32-.543-.367-.227-.073-.516-.11-1.18-.178a15.4 15.4 0 0 0-3.176 0c-.664.069-.953.105-1.18.178-.147.047-.296.119-.543.367-.24.241-.314.393-.364.556-.076.244-.113.557-.181 1.247A31 31 0 0 0 4 8"/><path d="M8.746 5.496a.75.75 0 1 0 0-1.5H6.25a.75.75 0 0 0 0 1.5zM7.25 7h-1a.75.75 0 0 0 0 1.5h1a.75.75 0 1 0 0-1.5"/><path fill-rule="evenodd" d="M12.58 7.847a1.39 1.39 0 0 1 1.728-.088c.156.113.347.262.509.424s.311.353.425.51c.399.548.316 1.261-.089 1.727-.423.486-1.193 1.358-1.8 1.96a37 37 0 0 1-1.575 1.438 4.1 4.1 0 0 1-1.521.835l-1.022.306a.959.959 0 0 1-1.194-1.193l.307-1.023a4.1 4.1 0 0 1 .834-1.52c.393-.452.97-1.102 1.439-1.575.601-.607 1.473-1.378 1.96-1.8m.925 1.184c-.493.43-1.283 1.131-1.818 1.672a36 36 0 0 0-1.374 1.505c-.241.276-.42.606-.529.966l-.018.06.06-.018c.36-.108.69-.287.967-.528a36 36 0 0 0 1.504-1.375c.541-.535 1.243-1.325 1.672-1.818a3 3 0 0 0-.213-.25 3 3 0 0 0-.25-.214"/></svg>