<svg xmlns="http://www.w3.org/2000/svg" viewBox="0 0 16 16"><path fill-rule="evenodd" d="M1.338 8.502a4 4 0 0 1-.331-1.5h.006a5 5 0 0 1 0-.7c.164-2.245 1.89-4.01 3.995-4.01a3.73 3.73 0 0 1 1.84.485c.434.244.822.573 1.146.966.322-.394.71-.724 1.143-.97a3.74 3.74 0 0 1 1.854-.494c2.102 0 3.825 1.759 3.995 3.997a5 5 0 0 1 0 .726h.007l-.007.134c-.034.521-.142.96-.324 1.366-.375.84-1.065 1.546-2.07 2.574l-.137.139c-.347.346-.708.677-1.069.988C9.996 13.4 9.3 14 8 14s-1.995-.6-3.387-1.798a20 20 0 0 1-1.205-1.127c-1.005-1.028-1.695-1.734-2.07-2.574m3.143 1.525C3.105 8.62 2.66 8.11 2.54 7.328l-.032-.434a3 3 0 0 1-.009-.241c0-1.702 1.24-2.86 2.508-2.86.695 0 1.35.325 1.828.905L7.997 6.11l1.158-1.416c.478-.586 1.137-.914 1.835-.914 1.27 0 2.509 1.16 2.509 2.86q0 .127-.01.25l-.034.462c-.127.77-.575 1.284-1.937 2.677l-.125.126c-.316.316-.65.622-.987.912C8.94 12.331 8.657 12.501 8 12.501c-.656 0-.94-.17-2.408-1.435a18 18 0 0 1-1.111-1.039M8 11.5a.75.75 0 0 1-.75-.75V9.747h-1a.75.75 0 0 1 0-1.5h1V7.25a.75.75 0 1 1 1.5 0v.996h1a.75.75 0 0 1 0 1.501h-1v1.003a.75.75 0 0 1-.75.75"/></svg>