<svg xmlns="http://www.w3.org/2000/svg" viewBox="0 0 16 16"><path fill-rule="evenodd" d="M1.007 7.002h.006A5 5 0 0 1 1 6.652c0-2.408 1.794-4.36 4.008-4.36 1.186 0 2.252.56 2.986 1.451.734-.898 1.805-1.464 2.997-1.464C13.205 2.279 15 4.23 15 6.639q0 .184-.014.363h.007c-.068 1.687-.869 2.506-2.401 4.074l-.137.139c-.347.346-.708.677-1.069.988C9.996 13.4 9.3 14 8 14s-1.995-.6-3.387-1.798a20 20 0 0 1-1.205-1.127C1.875 9.508 1.075 8.69 1.007 7.002M8 11.5a.75.75 0 0 1-.75-.75V9.747h-1a.75.75 0 0 1 0-1.5h1V7.25a.75.75 0 1 1 1.5 0v.996h1a.75.75 0 0 1 0 1.501h-1v1.003a.75.75 0 0 1-.75.75"/></svg>