<svg xmlns="http://www.w3.org/2000/svg" viewBox="0 0 16 16"><path fill-rule="evenodd" d="M4.03 1.97a.75.75 0 0 0-1.06 1.06l1.39 1.39a22 22 0 0 0-1.59.952 27 27 0 0 0-1.702 1.213l-.026.021-.007.006-.003.002a.75.75 0 1 0 .937 1.172v-.001l.005-.004.021-.017a13 13 0 0 1 .42-.318c.288-.213.696-.505 1.176-.818a19 19 0 0 1 1.882-1.095l1.101 1.102-.065.03c-.48.228-.971.523-1.405.808A21 21 0 0 0 3.562 8.59l-.025.02-.007.006-.003.002a.75.75 0 0 0 .946 1.164l.006-.004.02-.017a12 12 0 0 1 .395-.306c.266-.2.63-.464 1.033-.728.404-.265.831-.52 1.224-.705a4 4 0 0 1 .583-.227l4.736 4.735a.75.75 0 1 0 1.06-1.06zm4.994 1.332a.75.75 0 1 0-.547 1.396l.003.002.014.005.054.022a33 33 0 0 1 .913.378c.703.3 1.583.701 2.157 1.04.482.285 1.087.696 1.582 1.044a51 51 0 0 1 .79.567l.048.035.016.012a.75.75 0 1 0 .892-1.206l-.018-.013-.05-.037a45 45 0 0 0-.816-.585c-.5-.352-1.145-.791-1.68-1.108-.666-.393-1.626-.826-2.33-1.128a44 44 0 0 0-.948-.392l-.058-.024-.016-.006zM6.551 11.5c0 .258.12.396.357.672a4 4 0 0 0 .408.408c.276.238.414.357.672.357s.396-.12.672-.357a4 4 0 0 0 .408-.408c.238-.276.357-.414.357-.672s-.12-.396-.357-.672a4 4 0 0 0-.408-.408c-.276-.238-.414-.357-.672-.357s-.396.12-.672.357a4 4 0 0 0-.408.408c-.238.276-.357.414-.357.672"/></svg>