<svg xmlns="http://www.w3.org/2000/svg" viewBox="0 0 16 16"><path d="M5.5 8.697v3.246c0 1.123 0 1.685.359 2.2.107.154.344.39.498.498C6.872 15 7.248 15 8 15s1.128 0 1.643-.359a2.5 2.5 0 0 0 .498-.498c.359-.515.359-1.077.359-2.2V8.697c0-.09 0-.136.027-.165l.005-.005c.029-.027.074-.027.163-.027 1.806 0 2.708 0 2.989-.539a1 1 0 0 0 .044-.097c.22-.566-.374-1.245-1.563-2.604l-2.66-3.04c-.7-.8-1.051-1.2-1.505-1.2s-.804.4-1.505 1.201l-2.66 3.04C2.645 6.62 2.05 7.298 2.272 7.864a1 1 0 0 0 .045.097c.28.539 1.182.539 2.988.539.09 0 .134 0 .163.027l.005.005c.027.029.027.074.027.165"/></svg>