<svg xmlns="http://www.w3.org/2000/svg" viewBox="0 0 44 44"><path fill-rule="evenodd" d="M23.553 22h6.114v-2.333a5.167 5.167 0 0 1 5.112-5.167 5 5 0 0 0-.17-.902c-.107-.353-.297-.755-.99-1.428-.73-.71-1.122-.878-1.402-.96-.427-.126-.95-.16-2.312-.2q-.323-.01-.655-.01c-2.294 0-2.828.028-3.19.129a3.5 3.5 0 0 0-2.431 2.431c-.101.362-.129.896-.129 3.188V19.5q.002 1.345.053 2.5m14.316-6.515c-.148-2.39-.354-3.712-2.158-5.466-1.953-1.897-3.208-1.934-5.718-2.008A25 25 0 0 0 29.25 8c-2.093 0-3.14 0-3.995.239A6.5 6.5 0 0 0 22 10.347a6.5 6.5 0 0 0-3.254-2.108C17.889 8 16.843 8 14.75 8q-.378 0-.743.011c-2.51.074-3.765.11-5.718 2.008-1.804 1.754-2.01 3.076-2.158 5.466A5.16 5.16 0 0 0 4 19.667v6.922c0 2.74 2.087 5.045 4.842 5.26l.157.013-.878 2.047a1.5 1.5 0 0 0 2.758 1.182l1.285-2.999c3.153.213 6.861.408 9.836.408s6.683-.195 9.836-.408l1.285 2.999a1.5 1.5 0 1 0 2.758-1.182L35 31.862l.157-.012C37.913 31.634 40 29.329 40 26.59v-6.923a5.16 5.16 0 0 0-2.131-4.182M9.22 14.5a5.167 5.167 0 0 1 5.112 5.167V22h6.114q.051-1.155.053-2.5v-2.752c0-2.292-.028-2.826-.129-3.188a3.5 3.5 0 0 0-2.431-2.431c-.362-.101-.896-.129-3.19-.129q-.332 0-.655.01c-1.363.04-1.885.075-2.312.2-.28.082-.672.25-1.403.96-.692.673-.882 1.075-.99 1.428a5 5 0 0 0-.17.902M7 19.667a2.167 2.167 0 1 1 4.333 0v3.759c0 .87.705 1.574 1.575 1.574h18.184c.87 0 1.575-.705 1.575-1.574v-3.76a2.167 2.167 0 1 1 4.333 0v6.924a2.26 2.26 0 0 1-2.077 2.269c-3.506.275-8.93.641-12.923.641-3.992 0-9.417-.366-12.924-.641A2.26 2.26 0 0 1 7 26.589z"/></svg>