<svg xmlns="http://www.w3.org/2000/svg" viewBox="0 0 24 24"><path fill-rule="evenodd" d="M3.05 8.72A3 3 0 0 0 2 11v3.645a3.01 3.01 0 0 0 2.568 2.982l-.462.926a1 1 0 1 0 1.788.894l.83-1.658c1.7.11 3.68.211 5.276.211s3.576-.1 5.276-.211l.83 1.658a1 1 0 1 0 1.788-.894l-.462-.926A3.01 3.01 0 0 0 22 14.645V11c0-.912-.407-1.73-1.05-2.28-.065-1.405-.122-2.142-.807-3.08a5.4 5.4 0 0 0-1.02-.974C18.12 4 17.414 4 16 4c-.93 0-1.394 0-1.78.077A4 4 0 0 0 12 5.354a4 4 0 0 0-2.22-1.277C9.394 4 8.93 4 8 4c-1.412 0-2.119 0-3.123.666-.295.195-.812.69-1.02.975-.685.937-.742 1.674-.807 3.08m2.045-.719A3 3 0 0 1 8 11v1h2.98a39 39 0 0 0 .02-1.26V9c0-1.025-.01-1.246-.038-1.39A2 2 0 0 0 9.39 6.038C9.246 6.01 9.025 6 8 6c-.76 0-1.099.006-1.372.054-.183.032-.353.085-.643.277l-.002.001-.074.06a4 4 0 0 0-.375.358l-.063.072-.002.002.002-.003c-.194.266-.26.44-.306.655-.03.145-.052.308-.07.525M13.021 12H16v-1a3 3 0 0 1 2.905-2.999 4 4 0 0 0-.07-.526c-.046-.214-.112-.387-.304-.651l-.002-.002-.063-.072a4 4 0 0 0-.375-.358l-.074-.06h-.002c-.29-.193-.46-.246-.643-.278C17.099 6.006 16.76 6 16 6c-1.025 0-1.246.01-1.39.038a2 2 0 0 0-1.572 1.572C13.01 7.754 13 7.975 13 9v1.74q.001.653.02 1.26M20 10.998A1 1 0 0 0 18 11v1.96A1.04 1.04 0 0 1 16.96 14H7.04A1.04 1.04 0 0 1 6 12.96V11a1 1 0 1 0-2 0v3.645c0 .536.405.97.924 1.01C6.835 15.804 9.814 16 12 16s5.165-.197 7.076-.344c.518-.04.923-.474.924-1.01z"/></svg>