<svg xmlns="http://www.w3.org/2000/svg" viewBox="0 0 16 16"><path fill-rule="evenodd" d="M5.5 7.25a2.25 2.25 0 0 0-1.93-2.227c.022-.297.045-.455.085-.586.033-.107.092-.25.382-.526.325-.308.463-.351.516-.366.118-.034.267-.045.822-.045.916 0 1.064.014 1.147.038a1 1 0 0 1 .69.69c.024.083.038.231.038 1.146V7q0 .258-.004.5H5.5zm5 .25H8.754A29 29 0 0 1 8.75 7V5.374c0-.915.014-1.063.038-1.145a1 1 0 0 1 .69-.691c.084-.024.232-.038 1.147-.038.555 0 .705.011.822.045.053.015.19.058.516.366.29.275.35.42.382.526.04.131.064.289.086.585A2.25 2.25 0 0 0 10.5 7.25zm2.495-4.677c.841.797.898 1.39.96 2.526A2.25 2.25 0 0 1 15 7.25v2.599a1.97 1.97 0 0 1-1.834 1.967l.273.639a.75.75 0 0 1-1.378.59l-.492-1.146C10.41 11.952 9.077 12 8 12s-2.41-.048-3.57-.101l-.49 1.146a.75.75 0 1 1-1.38-.59l.274-.639A1.97 1.97 0 0 1 1 9.85v-2.6c0-.8.417-1.502 1.046-1.901.062-1.137.118-1.73.96-2.526C3.872 2 4.373 2 5.375 2c.813 0 1.22 0 1.553.094.41.116.776.332 1.071.62a2.5 2.5 0 0 1 1.072-.62C9.404 2 9.812 2 10.625 2c1.001 0 1.502 0 2.37.823M3.25 6.5a.75.75 0 0 0-.75.75v2.599a.47.47 0 0 0 .441.471c1.318.074 3.483.18 5.059.18s3.741-.106 5.059-.18a.47.47 0 0 0 .441-.471V7.25a.75.75 0 0 0-1.5 0v.975a.775.775 0 0 1-.775.775h-6.45A.775.775 0 0 1 4 8.225V7.25a.75.75 0 0 0-.75-.75"/></svg>