<svg xmlns="http://www.w3.org/2000/svg" viewBox="0 0 16 16"><path fill-rule="evenodd" d="M14.246 7.255a.75.75 0 0 1-.805-.69c-.06-.78-.095-1.15-.182-1.452a2 2 0 0 0-.066-.186.75.75 0 1 1 1.38-.59q.077.184.127.361c.139.48.18 1.022.236 1.751a.75.75 0 0 1-.69.806m0 1.484a.75.75 0 0 1 .69.806c-.056.729-.098 1.27-.236 1.75a3 3 0 0 1-.128.362.75.75 0 0 1-1.379-.59 2 2 0 0 0 .066-.186c.087-.302.122-.672.182-1.451a.75.75 0 0 1 .805-.69m-2.03-5.712a.75.75 0 0 1-.835.654 27 27 0 0 0-.698-.071q-.605-.058-1.328-.09a.75.75 0 0 1 .066-1.5q.76.035 1.402.096.412.038.738.076a.75.75 0 0 1 .654.835m0 9.94a.75.75 0 0 1-.655.835q-.326.038-.738.075-.642.062-1.402.096a.75.75 0 0 1-.066-1.498 27 27 0 0 0 1.328-.09c.277-.027.503-.049.697-.072a.75.75 0 0 1 .835.654M7.358 2.737a.75.75 0 0 1-.716.782q-.723.034-1.328.09c-.276.027-.501.049-.696.072a.75.75 0 1 1-.18-1.49q.326-.037.736-.075.642-.061 1.402-.095a.75.75 0 0 1 .782.716m0 10.52a.75.75 0 0 1-.782.716 28 28 0 0 1-1.402-.096q-.41-.037-.736-.075a.75.75 0 1 1 .18-1.489c.195.023.42.045.696.071q.605.059 1.328.09a.75.75 0 0 1 .716.783M2.41 3.942a.75.75 0 0 1 .395.985q-.038.088-.066.186c-.087.302-.122.672-.182 1.451a.75.75 0 1 1-1.495-.115c.056-.729.097-1.27.236-1.75q.05-.18.128-.362a.75.75 0 0 1 .984-.395m0 8.11a.75.75 0 0 1-.984-.395 3 3 0 0 1-.128-.361c-.139-.48-.18-1.022-.236-1.751a.75.75 0 0 1 1.495-.115c.06.779.095 1.15.182 1.45q.029.1.066.187a.75.75 0 0 1-.395.985"/></svg>