<svg xmlns="http://www.w3.org/2000/svg" viewBox="0 0 16 16"><path fill-rule="evenodd" d="M4.525 2.56a.75.75 0 0 1 .915-.535l7.722 2.023a.75.75 0 0 1 .533.526c.136.54.187 1.185.251 2.042.034.452.054.918.054 1.384v4.668c0 .628 0 .942-.195 1.137s-.51.195-1.137.195H3.332c-.628 0-.941 0-1.137-.195C2 13.61 2 13.295 2 12.668v-2.77a2.75 2.75 0 0 1 2.045-2.659l1.957-.518V3.722l-.942-.246a.75.75 0 0 1-.535-.916M7.5 4.115l4.822 1.264c.045.326.083.756.127 1.348.032.421.05.85.05 1.273v4.5H11v-1.833a.667.667 0 0 0-.667-.667h-.666a.667.667 0 0 0-.667.667V12.5H7.502zM6 8.273l-1.571.416a1.25 1.25 0 0 0-.93 1.209V12.5h2.502z"/></svg>