<svg xmlns="http://www.w3.org/2000/svg" viewBox="0 0 16 16"><path fill-rule="evenodd" d="M6.599 5a.84.84 0 0 0-.72.247c-.33.33-.776.754-1.234 1.123a12 12 0 0 1-.471.36q.136-.01.267-.023c.305-.031.537-.153.922-.353l.032-.017c.383-.2.902-.462 1.602-.462.312 0 .513.033.676.062l.02.003c.128.023.192.035.306.035.106 0 .154-.01.267-.03l.034-.007c.168-.032.37-.063.706-.063.696 0 1.215.26 1.598.46l.038.02c.381.198.615.32.92.353q.14.015.281.026a19 19 0 0 1-.475-.352 13 13 0 0 1-1.246-1.115.87.87 0 0 0-.744-.264l-1.023.163a2.3 2.3 0 0 1-.712 0zm-1.786-.804a2.35 2.35 0 0 1 2.023-.668l1.044.166a.8.8 0 0 0 .238 0l1.022-.162a2.38 2.38 0 0 1 2.055.69c.307.31.699.679 1.092.98.891.684 2.161 1.481 2.353 1.6.55.343.423 1.073-.063 1.315l.004.007-.008.004-.034.016-.136.07a6 6 0 0 0-.444.255c-.371.235-.67.486-.788.683-.08.135-.166.29-.258.453-.207.369-.44.784-.687 1.132-.383.538-.894 1.067-1.655 1.344-.663.242-1.512.419-2.572.419-1.059 0-1.907-.176-2.57-.418-.77-.28-1.271-.824-1.644-1.36a11 11 0 0 1-.5-.806l-.048-.082c-.136-.235-.26-.45-.394-.656-.163-.25-.485-.51-.832-.73a6 6 0 0 0-.548-.302l-.03-.015-.006-.002.003-.008C.933 7.882.81 7.137 1.365 6.8c.21-.129 1.55-.955 2.33-1.585.401-.323.805-.705 1.118-1.018m-.78 4.068q.038.052.073.105c.157.241.302.492.435.723l.048.082c.15.26.287.492.433.701.29.417.57.679.926.808.492.18 1.164.326 2.051.326s1.56-.147 2.053-.327c.364-.132.655-.396.945-.804.202-.284.364-.574.546-.9.101-.18.209-.374.333-.583a2 2 0 0 1 .085-.13c-.641.11-1.052.333-1.44.564l-.158.095c-.565.343-1.242.754-2.364.754s-1.8-.411-2.364-.754l-.158-.095c-.39-.232-.8-.456-1.444-.565m4.973-.898c.248 0 .452.068.72.198l-.132.079c-.555.333-.906.544-1.595.544-.69 0-1.04-.21-1.595-.544l-.13-.078c.269-.13.473-.2.723-.2.189 0 .294.018.41.039l.029.005c.133.024.312.056.563.056s.42-.032.545-.056l.035-.006c.098-.019.204-.037.427-.037"/></svg>