<svg xmlns="http://www.w3.org/2000/svg" viewBox="0 0 24 24"><path fill-rule="evenodd" d="M10.492 7.313c-.682-.115-1.406.138-1.934.682-.417.43-.913.916-1.421 1.353-.304.262-.656.54-1.017.813l.016.002q.383-.02.745-.058c.336-.037.646-.215 1.155-.538l.069-.043c.42-.268 1.094-.697 1.89-.697.606 0 .98.08 1.292.153l.03.007c.248.058.402.094.682.094.283 0 .437-.036.684-.094l.03-.007c.31-.073.684-.153 1.29-.153.797 0 1.471.427 1.893.695l.066.042c.51.322.823.502 1.16.541q.352.042.702.062l.076-.009c-.35-.262-.699-.532-1.018-.793-.517-.423-1.011-.9-1.425-1.326-.552-.57-1.298-.836-1.993-.718l-.806.136a4 4 0 0 1-1.318 0zm-4.443 4.89h.005c1.075.15 1.727.525 2.342.916l.227.146c.81.525 1.773 1.15 3.376 1.15s2.567-.625 3.377-1.15l.227-.146c.606-.385 1.248-.755 2.296-.91l.034.003q-.164.21-.293.44c-.174.312-.327.603-.471.88-.267.51-.507.97-.807 1.415-.43.64-.873 1.065-1.442 1.281-.71.27-1.668.486-2.92.486s-2.21-.216-2.92-.485c-.556-.211-.985-.635-1.413-1.287a15 15 0 0 1-.634-1.09l-.076-.14c-.19-.352-.396-.732-.619-1.096a4 4 0 0 0-.289-.412m-3.488-.172a1.036 1.036 0 0 1-.095-1.787c.257-.168 2.23-1.462 3.374-2.448.447-.385.898-.825 1.29-1.23.943-.97 2.307-1.495 3.691-1.26l.849.143q.329.056.659 0l.805-.136c1.418-.24 2.8.317 3.751 1.298.382.394.818.812 1.254 1.169 1.304 1.067 3.169 2.314 3.403 2.47a1.035 1.035 0 0 1-.092 1.775l.004.008-.012.006-.05.025q-.07.036-.197.107c-.169.094-.399.23-.645.396-.532.359-.982.757-1.166 1.086-.118.212-.243.45-.375.701-.299.57-.632 1.205-.992 1.741-.552.821-1.29 1.62-2.395 2.04-.94.356-2.136.615-3.623.615-1.485 0-2.68-.258-3.62-.614-1.117-.424-1.84-1.244-2.378-2.063a17 17 0 0 1-.723-1.238l-.078-.143a22 22 0 0 0-.565-1.003c-.248-.407-.727-.817-1.227-1.153a8 8 0 0 0-.841-.493l-.01-.004zm6.898-.637-.261-.163c.463-.289.647-.369.797-.369.397 0 .609.047.842.101l.043.01a4.45 4.45 0 0 0 2.242 0l.041-.01c.233-.054.444-.1.84-.1.152 0 .338.08.8.367a15 15 0 0 0-.482.304c-.801.514-1.317.845-2.322.845-1.004 0-1.52-.331-2.322-.845z"/></svg>