<svg xmlns="http://www.w3.org/2000/svg" viewBox="0 0 16 16"><path fill-rule="evenodd" d="M7.03 1.97a.75.75 0 0 0-1.06 1.06l.983.983q-1.094.031-1.961.105c-1.378.115-2.067.172-2.932 1.038s-.914 1.488-1.015 2.73a14 14 0 0 0 0 2.228c.1 1.242.15 1.863 1.015 2.73.864.866 1.554.923 2.932 1.038.843.07 1.846.118 3.008.118s2.165-.049 3.007-.118c1.38-.115 2.069-.172 2.933-1.038.865-.867.915-1.489 1.015-2.731a14 14 0 0 0 0-2.226c-.1-1.243-.15-1.864-1.015-2.73-.864-.867-1.554-.924-2.933-1.039a35 35 0 0 0-1.96-.105l.983-.983a.75.75 0 1 0-1.06-1.06L8 2.94zM8 5.5c-1.12 0-2.082.047-2.884.113-.74.062-1.08.097-1.348.178-.186.056-.365.143-.646.425-.3.3-.38.472-.426.619-.071.222-.101.5-.155 1.172a12.4 12.4 0 0 0 0 1.986c.054.672.084.95.155 1.172.046.147.126.319.426.62.28.28.46.368.646.424.268.081.609.116 1.348.178.802.066 1.764.113 2.884.113s2.081-.047 2.883-.113c.74-.062 1.08-.097 1.35-.178.185-.056.365-.144.645-.425.3-.3.38-.473.427-.619.07-.222.1-.501.155-1.173a12.3 12.3 0 0 0 0-1.984c-.055-.672-.085-.95-.155-1.173-.047-.146-.127-.319-.427-.62-.28-.28-.46-.368-.646-.424-.268-.081-.61-.116-1.349-.178A35 35 0 0 0 8 5.5"/></svg>