<svg xmlns="http://www.w3.org/2000/svg" viewBox="0 0 44 44"><path fill-rule="evenodd" d="M14.94 4.44a1.5 1.5 0 0 1 2.12 0L22 9.378l4.94-4.94a1.5 1.5 0 0 1 2.12 2.122l-3.505 3.506c1.287.049 2.477.123 3.57.212 3.723.306 5.585.459 7.968 2.855s2.516 4.148 2.783 7.651A42 42 0 0 1 40 24c0 1.122-.046 2.198-.124 3.215-.267 3.504-.4 5.255-2.783 7.652-2.383 2.396-4.245 2.549-7.968 2.854a87 87 0 0 1-7.125.28 87 87 0 0 1-7.127-.28c-3.722-.306-5.583-.458-7.965-2.854-2.383-2.396-2.516-4.147-2.784-7.648A42 42 0 0 1 4 24c0-1.122.046-2.2.124-3.218.268-3.502.401-5.253 2.784-7.648 2.382-2.396 4.243-2.549 7.966-2.855a82 82 0 0 1 3.571-.212L14.94 6.56a1.5 1.5 0 0 1 0-2.122"/></svg>