<svg xmlns="http://www.w3.org/2000/svg" viewBox="0 0 24 24"><path fill-rule="evenodd" d="M10.707 2.293a1 1 0 0 0-1.414 1.414l1.312 1.312c-.98.026-1.867.08-2.66.149-2.024.175-3.036.263-4.326 1.557S2.25 8.99 2.087 10.93a25 25 0 0 0 0 4.14c.162 1.94.243 2.911 1.532 4.205s2.302 1.382 4.326 1.557c1.153.1 2.505.168 4.055.168s2.902-.067 4.055-.168c2.025-.175 3.037-.263 4.327-1.557s1.37-2.265 1.532-4.206a25 25 0 0 0 0-4.137c-.162-1.942-.243-2.913-1.532-4.207s-2.302-1.382-4.328-1.557a45 45 0 0 0-2.658-.15l1.311-1.31a1 1 0 0 0-1.414-1.415L12 3.586zM12 7a45 45 0 0 0-3.882.16c-1.078.094-1.602.149-2.022.278-.312.097-.613.25-1.06.699-.458.46-.606.755-.696 1.043-.123.394-.173.879-.26 1.916a23 23 0 0 0 0 3.808c.087 1.037.137 1.523.26 1.916.09.288.238.584.696 1.043.447.45.748.602 1.06.699.42.13.943.184 2.022.278 1.096.095 2.39.16 3.882.16s2.786-.065 3.882-.16c1.079-.094 1.602-.149 2.023-.278.313-.097.613-.25 1.06-.699.458-.46.606-.755.696-1.043.123-.394.173-.88.26-1.917a23 23 0 0 0 0-3.805c-.087-1.038-.137-1.524-.26-1.918-.09-.288-.238-.584-.696-1.043-.447-.449-.747-.602-1.06-.699-.421-.13-.944-.184-2.024-.278a45 45 0 0 0-3.88-.16"/></svg>