<svg xmlns="http://www.w3.org/2000/svg" viewBox="0 0 16 16"><path d="M9.111 8.26v-.489c0-.579-.254-.748-.748-.748s-.748.17-.748.748v.49c0 .633.254.757.748.757s.748-.124.748-.758"/><path fill-rule="evenodd" d="M4.79 2.65a33 33 0 0 1 3.212-.15c1.257 0 2.328.062 3.212.15 1.285.126 1.928.19 2.717.976s.853 1.403.98 2.636a16.7 16.7 0 0 1 .001 3.476c-.128 1.233-.191 1.85-.98 2.636-.79.786-1.433.85-2.718.976-.884.088-1.955.15-3.212.15s-2.329-.062-3.213-.15c-1.284-.127-1.927-.19-2.716-.976s-.853-1.402-.98-2.635A17 17 0 0 1 1.002 8c0-.62.036-1.205.09-1.739.128-1.233.191-1.85.98-2.635.79-.786 1.433-.85 2.718-.976m1.24 5.99c0 .867-.554 1.177-1.491 1.177s-1.507-.33-1.537-1.193h1.023c.01.35.21.42.514.42.324 0 .528-.056.528-.335 0-.238-.307-.275-.681-.32-.583-.072-1.33-.162-1.33-1.062 0-.793.555-1.102 1.438-1.102s1.461.309 1.476 1.102H4.948c-.015-.274-.19-.33-.454-.33-.29 0-.48.056-.48.32 0 .226.314.269.693.32.583.08 1.323.18 1.323 1.002m4.104-.67c0 .674-.145 1.123-.409 1.413l.354.404-.698.558-.494-.568q-.24.039-.524.04c-1.132 0-1.77-.414-1.77-1.846 0-1.342.638-1.746 1.77-1.746s1.771.404 1.771 1.746m.73 1.772h2.138v-.848h-1.14V6.299h-.998z"/></svg>