<svg xmlns="http://www.w3.org/2000/svg" viewBox="0 0 16 16"><path fill-rule="evenodd" d="M9.672 4a7.3 7.3 0 0 0-1.794.225l-2.942.752a.75.75 0 1 1-.371-1.454l2.942-.75A8.8 8.8 0 0 1 9.672 2.5h.222c1.445 0 2.735.91 3.219 2.272l1.228 3.456c.362.988.622 2.024.658 3.08.045 1.352-1.237 2.192-2.59 2.192H2.866c-1.236 0-2.211-1.13-1.749-2.276.63-1.56 1.742-2.93 3.81-3.882a.748.748 0 0 1 .147-1.401l1.522-.38a.75.75 0 0 1 .901.94c1.116-.25 2.41-.42 3.91-.497q.285-.014.56.024l-.268-.753A1.92 1.92 0 0 0 9.895 4zm1.811 3.502c.6-.03 1.063.283 1.241.709.175.42.33.85.456 1.289H4.22q.328-.254.726-.483c1.333-.763 3.373-1.354 6.538-1.515M12.408 12H2.867c-.211 0-.413-.083-.33-.285q.153-.369.356-.715h10.585q.016.18.023.358c.004.135-.037.247-.197.372-.187.146-.509.27-.895.27"/></svg>