<svg xmlns="http://www.w3.org/2000/svg" viewBox="0 0 16 16"><path fill-rule="evenodd" d="M15.182 7.707a.666.666 0 0 0 .195-.956l-2.78-3.915A2 2 0 0 0 10.973 2H5.027c-.646 0-1.25.311-1.626.836L.625 6.751a.666.666 0 0 0 .194.957l1.943 1.204a.67.67 0 0 0 .705-.003l.524-.323c-.01.34-.031.695-.069 1.055q-.038.376-.104.752a8 8 0 0 1-.255 1.042c-.283.872.146 2.142 1.054 2.272 1.066.152 2.336.293 3.386.293s2.317-.14 3.382-.293c.908-.13 1.337-1.4 1.054-2.271a8 8 0 0 1-.255-1.042 11 11 0 0 1-.105-.758 14 14 0 0 1-.068-1.048c.2.122.378.233.52.321a.67.67 0 0 0 .705.003zM11.67 6.621a.76.76 0 0 0-.418-.121.75.75 0 0 0-.75.75V8l.01.634c.03.968.14 2.154.502 3.265a.5.5 0 0 1 .011.152.7.7 0 0 1-.04.198c-.646.09-1.335.168-1.981.213V7.667a.75.75 0 0 0-.104-.381L6.668 3.5h2.197l-.77 1.386a.75.75 0 1 0 1.311.728L10.581 3.5h.39a.5.5 0 0 1 .407.209l2.258 3.186-.748.471zM4.932 3.509a.5.5 0 0 0-.311.2L2.366 6.895l.744.471 1.22-.746-.013.008a.8.8 0 0 1 .434-.128.75.75 0 0 1 .75.75V8l-.01.632c-.03.968-.14 2.154-.501 3.266a.5.5 0 0 0-.012.152.7.7 0 0 0 .04.199c.818.112 1.704.21 2.485.24V7.871z"/></svg>