<svg xmlns="http://www.w3.org/2000/svg" viewBox="0 0 24 24"><path fill-rule="evenodd" d="M7.472 20.58c1.358.22 3.008.42 4.53.42s3.171-.2 4.53-.421c1.397-.228 2.207-1.987 1.907-3.38a18 18 0 0 1-.293-1.873q-.07-.675-.101-1.354a35 35 0 0 1-.035-1.073c.2.148.383.283.538.4.333.248.785.27 1.138.05l2.845-1.818a.996.996 0 0 0 .301-1.406l-3.84-5.806A3 3 0 0 0 16.503 3H7.5c-.998 0-1.93.495-2.488 1.32l-3.84 5.805a.997.997 0 0 0 .301 1.406l2.844 1.818c.354.22.805.198 1.138-.05l.538-.4q-.009.537-.034 1.074-.032.678-.102 1.353c-.065.63-.159 1.256-.292 1.873-.3 1.393.51 3.153 1.907 3.38M7.5 5c-.335 0-.646.166-.831.44l-3.255 4.941 1.385.914 1.618-1.11A1 1 0 0 1 8 11l-.007 1.934c-.026 1.501-.13 3.1-.473 4.686-.152.703.369 1.005.98 1.093 1.134.163 2.372.287 3.5.287v-7.235L8.134 5zm8.004 13.713c-.488.07-.995.133-1.504.182V11.5a1 1 0 0 0-.132-.496L10.438 5h3.194l-1.026 2.053a1 1 0 1 0 1.788.894L15.868 5h.636c.335 0 .645.166.831.44l3.255 4.94-1.385.915-1.618-1.11a1 1 0 0 0-.583-.185 1 1 0 0 0-1 1l.007 1.935c.026 1.5.13 3.099.473 4.685.151.704-.37 1.005-.98 1.093"/></svg>