<svg xmlns="http://www.w3.org/2000/svg" viewBox="0 0 24 24"><path fill-rule="evenodd" d="M4.686 4.686c-1.313 1.313-1.41 2.62-1.605 5.237C3.031 10.6 3 11.3 3 12s.03 1.399.081 2.077c.195 2.616.292 3.924 1.605 5.237s2.62 1.41 5.237 1.605C10.6 20.969 11.3 21 12 21s1.399-.03 2.077-.081c2.616-.195 3.924-.292 5.237-1.605s1.41-2.62 1.605-5.237C20.969 13.4 21 12.7 21 12s-.03-1.399-.081-2.077c-.195-2.616-.292-3.924-1.605-5.237s-2.62-1.41-5.237-1.605A28 28 0 0 0 12 3c-.7 0-1.399.03-2.077.081-2.616.195-3.924.292-5.237 1.605m10.31 3.74A1.01 1.01 0 0 1 14 7.417a1 1 0 0 1 1.195-.98c.556.054.916.108 1.179.175.497.126.89.518 1.015 1.015.09.354.156.923.234 1.873a1 1 0 0 1-1.994.11 25 25 0 0 0-.113-1.125 15 15 0 0 0-.52-.059M6.5 13A1.5 1.5 0 0 1 8 11.5h8a1.5 1.5 0 0 1 0 3H8A1.5 1.5 0 0 1 6.5 13"/></svg>