<svg xmlns="http://www.w3.org/2000/svg" viewBox="0 0 24 24"><path d="M12 20.003c0-.521.4-.954.92-1.004 1.838-.18 2.326-.367 2.905-.951.593-.6.767-1.079.925-2.944a88 88 0 0 0-1.168 1.173l-.234.238a1 1 0 1 1-1.426-1.402l.234-.238c1.99-2.024 2.984-3.036 4.109-2.852s1.745 1.46 2.986 4.012l.146.3a1 1 0 1 1-1.798.875l-.146-.3a90 90 0 0 0-.722-1.463c-.16 1.832-.416 2.928-1.485 4.008-1.085 1.097-2.224 1.358-4.165 1.54A.993.993 0 0 1 12 20.004"/><path fill-rule="evenodd" d="M20.944 7.603c-.082.807-.122 1.21-.626 1.714-.505.505-.908.545-1.715.627a11 11 0 0 1-2.206 0 7 7 0 0 1-.814-.112l-5.751 5.75c.053.228.079.489.112.815a11 11 0 0 1 0 2.206c-.082.807-.122 1.21-.627 1.714-.504.505-.907.545-1.714.627a11 11 0 0 1-2.206 0c-.807-.082-1.21-.122-1.714-.626-.505-.505-.545-.908-.627-1.715a11 11 0 0 1 0-2.206c.082-.807.122-1.21.627-1.714.504-.505.907-.545 1.714-.627a11 11 0 0 1 2.206 0c.326.033.587.06.814.113l5.752-5.752a7 7 0 0 1-.113-.814 11 11 0 0 1 0-2.206c.082-.807.123-1.21.627-1.714.504-.505.907-.545 1.714-.627a11 11 0 0 1 2.206 0c.807.082 1.21.122 1.714.627.505.504.545.907.627 1.714a11 11 0 0 1 0 2.206m-2.542.35a9 9 0 0 1-1.804 0 11 11 0 0 1-.494-.057l-.007-.044A11 11 0 0 1 16 6.5a11 11 0 0 1 .104-1.396l.044-.007A11 11 0 0 1 17.5 5a11 11 0 0 1 1.396.104l.007.044A11 11 0 0 1 19 6.5a11 11 0 0 1-.104 1.396l-.044.007c-.107.016-.236.03-.45.05M6.5 19a11 11 0 0 0 1.396-.104l.007-.044A11 11 0 0 0 8 17.5a11 11 0 0 0-.104-1.396l-.044-.007A11 11 0 0 0 6.5 16a11 11 0 0 0-1.396.104l-.007.044A11 11 0 0 0 5 17.5a11 11 0 0 0 .104 1.396l.044.007A11 11 0 0 0 6.5 19"/><path d="M11.08 5.001c.52-.05.92-.483.92-1.004a.993.993 0 0 0-1.08-.993c-1.942.183-3.08.444-4.166 1.541-1.069 1.08-1.326 2.175-1.485 4.008-.203-.399-.438-.88-.722-1.463l-.146-.3a1 1 0 0 0-1.798.875l.146.3c1.24 2.552 1.861 3.828 2.986 4.012s2.12-.828 4.109-2.852l.234-.238a1 1 0 1 0-1.426-1.402l-.235.238c-.462.47-.843.857-1.167 1.173.158-1.865.332-2.344.925-2.944.579-.584 1.067-.77 2.906-.95"/></svg>