<svg xmlns="http://www.w3.org/2000/svg" viewBox="0 0 16 16"><path fill-rule="evenodd" d="M13.561 6.061c.324-.324.35-.583.403-1.102a7 7 0 0 0 0-1.418c-.053-.519-.079-.778-.403-1.102s-.583-.35-1.102-.403a7 7 0 0 0-1.418 0c-.52.053-.779.079-1.103.403s-.35.583-.402 1.102a7 7 0 0 0 0 1.418q.02.226.047.398L5.356 9.584a7 7 0 0 0-.397-.047 7 7 0 0 0-1.418 0c-.519.052-.778.078-1.102.402s-.35.584-.403 1.103a7 7 0 0 0 0 1.417c.053.519.079.778.403 1.102s.583.35 1.102.403a7 7 0 0 0 1.418 0c.519-.053.778-.079 1.102-.403s.35-.583.403-1.102a7 7 0 0 0 0-1.417 7 7 0 0 0-.047-.397l4.228-4.228c.115.019.244.032.396.047a7 7 0 0 0 1.418 0c.519-.053.778-.079 1.102-.403"/><path d="M7.312 3.502A.765.765 0 0 0 8 2.747a.74.74 0 0 0-.812-.743c-1.18.122-1.899.314-2.586 1.009-.618.624-.829 1.256-.943 2.21-.086-.152-.173-.34-.28-.57l-.025-.057a.72.72 0 0 0-.524-.412c-.569-.098-1.006.521-.754 1.068l.026.057C2.886 7.01 3.278 7.86 3.988 7.983s1.338-.552 2.594-1.901l.042-.045c.404-.434.176-1.168-.392-1.266a.69.69 0 0 0-.621.215l-.042.045a8 8 0 0 1-.426.436c.096-.853.22-1.092.525-1.4.325-.328.585-.451 1.644-.565m.69 9.752c0-.391.3-.714.688-.756 1.059-.114 1.32-.237 1.644-.566.305-.307.428-.546.524-1.4-.124.114-.26.26-.425.438l-.042.044a.69.69 0 0 1-.62.215c-.57-.098-.797-.832-.393-1.266l.042-.045c1.256-1.35 1.884-2.024 2.594-1.901.71.122 1.102.973 1.886 2.674l.026.057c.252.547-.185 1.166-.754 1.068a.72.72 0 0 1-.524-.412l-.026-.057a8 8 0 0 0-.279-.57c-.114.954-.325 1.586-.943 2.21-.687.695-1.407.887-2.586 1.01a.74.74 0 0 1-.812-.743"/></svg>