<svg xmlns="http://www.w3.org/2000/svg" viewBox="0 0 16 16"><path fill-rule="evenodd" d="M13.12 3.481c-.12-.15-.431-.46-.581-.58C11.438 2 10.627 2 9.006 2c-1.622 0-2.422 0-3.533.9-.15.12-.46.431-.58.581-.21.26-.37.5-.491.73-.51.13-.94.371-1.381.822-.93.93-.961 1.781-1.021 3.482v.981c.06 1.702.09 2.552 1.02 3.483.932.93 1.782.96 3.484 1.021h.98c1.702-.06 2.553-.09 3.483-1.02.44-.441.681-.872.821-1.382.24-.12.48-.28.73-.49.15-.12.461-.43.581-.58C14 9.425 14 8.615 14 6.993s0-2.422-.9-3.533zm-5.165 8.497H6.514V7.415l-1.191.97v-1.41l1.19-.952h1.442zm4.474-3.312c-.05.26-.15.51-.43.86v-1c-.06-1.702-.09-2.553-1.022-3.483-.93-.931-1.781-.961-3.482-1.021H6.494c.35-.28.6-.37.86-.43.36-.07.791-.08 1.652-.08s1.29 0 1.651.08c.28.06.54.16.931.48 0 0 .02.02.06.05s.08.08.13.12c.05.05.09.09.12.13.03.03.05.05.05.06.32.39.42.65.48.93.07.361.08.791.08 1.652s0 1.291-.08 1.652"/></svg>