<svg xmlns="http://www.w3.org/2000/svg" viewBox="0 0 24 24"><path fill-rule="evenodd" d="M14 8.5a5.5 5.5 0 1 1-11 0 5.5 5.5 0 0 1 11 0m-2 0a3.5 3.5 0 1 1-7 0 3.5 3.5 0 0 1 7 0m.808 5.228C14.228 11.243 14.938 10 16 10c1.061 0 1.772 1.243 3.192 3.728l1.118 1.955c1.35 2.362 2.025 3.542 1.526 4.43-.5.887-1.84.887-4.519.887h-2.634c-2.68 0-4.02 0-4.518-.887-.5-.888.175-2.068 1.525-4.43zm4.648.992 1.118 1.955c.61 1.067 1 1.76 1.231 2.271-.54.05-1.308.054-2.488.054h-2.634c-1.18 0-1.948-.004-2.488-.054.23-.512.622-1.204 1.231-2.27l1.118-1.956c.671-1.174 1.103-1.92 1.456-2.405.353.485.785 1.23 1.456 2.405"/></svg>