<svg xmlns="http://www.w3.org/2000/svg" viewBox="0 0 16 16"><path fill-rule="evenodd" d="M9.5 5.75a3.75 3.75 0 1 1-7.5 0 3.75 3.75 0 0 1 7.5 0m-1.5 0a2.25 2.25 0 1 1-4.5 0 2.25 2.25 0 0 1 4.5 0m.872 3.294c.947-1.693 1.42-2.54 2.128-2.54s1.181.847 2.128 2.54l.745 1.332c.9 1.61 1.35 2.414 1.017 3.019-.333.604-1.226.604-3.012.604h-1.756c-1.786 0-2.68 0-3.012-.604-.333-.605.117-1.41 1.017-3.019zm2.947.732.745 1.332c.346.619.584 1.048.74 1.371-.332.018-.783.02-1.426.02h-1.756c-.643 0-1.094-.002-1.425-.02.155-.323.393-.752.739-1.37l.745-1.333c.36-.645.614-1.094.819-1.413.205.319.458.768.819 1.413"/></svg>