<svg xmlns="http://www.w3.org/2000/svg" viewBox="0 0 16 16"><path fill-rule="evenodd" d="M7.663 9.982C6.248 9.895 5.66 8.966 5.561 7.63a30 30 0 0 1-.073-2.134c0-.841.03-1.553.073-2.133.098-1.338.687-2.266 2.103-2.353a5 5 0 0 1 .652 0c1.416.087 2.006 1.015 2.103 2.352.042.581.073 1.293.073 2.134s-.03 1.553-.073 2.134c-.097 1.336-.687 2.265-2.102 2.352a5 5 0 0 1-.654 0M2.5 7.726a.72.72 0 0 1 .732-.731c.42 0 .757.346.77.767l.011.278c.093 1.788.155 2.043.594 2.483.437.438.702.508 2.531.61q.433.023.862.024c.408 0 .75.323.75.731v2.354a.75.75 0 0 1-1.5-.004v-1.6q-.098-.003-.194-.01c-1.74-.095-2.61-.143-3.511-1.047-.897-.899-.94-1.747-1.028-3.433l-.002-.03a17 17 0 0 1-.015-.392"/><path d="M13.283 11.46a.75.75 0 0 0-1.06 0l-.602.6-.6-.6a.75.75 0 0 0-1.061 1.06l.6.6-.6.6a.749.749 0 1 0 1.06 1.06l.601-.6.601.6a.75.75 0 0 0 1.061-1.06l-.6-.6.6-.6a.75.75 0 0 0 0-1.06"/></svg>