<svg xmlns="http://www.w3.org/2000/svg" viewBox="0 0 16 16"><path fill-rule="evenodd" d="M1.22 2.554a.75.75 0 0 1 1.062 0l10.167 10.167a.75.75 0 0 1-1.061 1.061l-.839-.839c-.316.213-.647.406-.97.608-1.417.886-2.298 1.444-2.935 1.449a.95.95 0 0 1-.478-.118C5.48 14.5 5.5 13.417 5.5 11.29l.004-3.392-4.283-4.284a.75.75 0 0 1 0-1.06M7 9.394c0 1.298-.101 2.646.025 3.938.84-.417 1.641-.98 2.436-1.476zm3.66-.839q.258-.219.555-.477c.325-.281.65-.58.962-.892C13.344 6.019 13.985 5.377 14 4.645a1.4 1.4 0 0 0-.018-.246 1.9 1.9 0 0 0-.291-.703C13.19 3.002 12.168 3 10.119 3H5.976a.757.757 0 0 0-.75.758c0 .414.336.744.75.744.033 0 .065.004.096 0h4.047c1.074 0 1.707.004 2.143.07.106.016.176.032.221.045a1 1 0 0 1-.087.134c-.217.304-.594.688-1.28 1.374-.283.283-.58.557-.883.819q-.333.289-.587.501l.003.004a.75.75 0 0 0 1.01 1.106"/></svg>