<svg xmlns="http://www.w3.org/2000/svg" viewBox="0 0 16 16"><path d="M2.285 2.554a.75.75 0 0 0-1.06 0A.75.75 0 0 0 1 3.102a.75.75 0 0 0 .225.513l4.283 4.284c-.005.056-.005.1-.005.156v3.236c0 2.126 0 3.21.687 3.59a.94.94 0 0 0 .458.119c.64.006 1.503-.554 2.935-1.45l.921-.575.049-.032.839.839a.75.75 0 0 0 1.06-1.06zm8.255 6.111c.211-.175.437-.371.687-.587.325-.281.65-.58.961-.892 1.18-1.18 1.81-1.823 1.812-2.565q0-.11-.018-.222a1.9 1.9 0 0 0-.292-.703c-.498-.694-1.51-.694-3.559-.694H5.877q-.544 0-.996.003z"/></svg>