<svg xmlns="http://www.w3.org/2000/svg" viewBox="0 0 24 24"><path fill-rule="evenodd" d="M1.293 3.292c.39-.39 1.024-.39 1.415 0l16.004 16.006A.995.995 0 0 1 18 21a1 1 0 0 1-.702-.292l-1.782-1.776-.464.332c-.242.172-.545.36-.928.6-1.933 1.203-3.175 1.977-4.103 2.114-.372.055-.693.008-.988-.155s-.506-.41-.656-.753c-.375-.857-.375-2.316-.375-4.586v-5.097L1.293 4.702a.994.994 0 0 1 0-1.41m8.71 10.089 3.992 3.978a4 4 0 0 1-.014.205v.01l-.009.007c-.168.128-.417.286-.909.592-1.41.879-2.276 1.412-2.914 1.689l-.034.014-.005-.036c-.102-.685-.107-1.699-.107-3.356z"/><path d="M8.188 5.996h7.004c1.596 0 2.563.005 3.238.106q.035.006.078.01c.161.019.39.045.452.194.064.154-.023.27-.117.396l-.046.06c-.339.474-.92 1.062-1.938 2.076q-.416.415-.855.81c-.572.517-1.03.923-1.412 1.241-.482.401-.56 1.161-.117 1.604a.91.91 0 0 0 1.217.082 42 42 0 0 0 1.656-1.45 26 26 0 0 0 .926-.877c1.934-1.928 2.902-2.892 2.7-4.148a2.8 2.8 0 0 0-.444-1.067c-.749-1.031-2.278-1.031-5.338-1.031H8.05q-.006 0-.004.001c.003 0 .01.002-.033.007-.72.091-1.11 1.033-.663 1.603l.05.06.06.06c.177.162.4.254.64.263z"/></svg>