<svg xmlns="http://www.w3.org/2000/svg" viewBox="0 0 24 24"><path d="M1.293 3.292c.39-.39 1.024-.39 1.415 0l16.004 16.006A.994.994 0 0 1 18 21a1 1 0 0 1-.702-.292l-1.782-1.833c-.279.295-.708.562-1.392.988-2.707 1.686-4.06 2.53-5.091 1.96s-1.031-2.16-1.031-5.34v-5.096L1.293 4.702a.994.994 0 0 1 0-1.41m16.055 7.833c-.838.758-1.511 1.366-2.14 1.823l-2.162-2.197L8.85 6.723 6.226 4.056c.674-.054 1.533-.054 2.642-.054h6.324c3.06 0 4.59 0 5.338 1.03.206.284.388.723.444 1.068.202 1.256-.766 2.22-2.7 4.148q-.455.452-.926.877"/></svg>