<svg xmlns="http://www.w3.org/2000/svg" viewBox="0 0 24 24"><path fill-rule="evenodd" d="M9 3c-1.53 0-2.965.37-4.05 1.021C3.885 4.661 3 5.682 3 7c0 1.027.537 1.874 1.278 2.5C3.538 10.126 3 10.973 3 12s.537 1.874 1.278 2.5C3.537 15.126 3 15.974 3 17c0 1.318.885 2.34 1.95 2.979C6.035 20.629 7.47 21 9 21c.8 0 1.572-.1 2.283-.29a6 6 0 1 0 2.98-10.665 4.3 4.3 0 0 0-.54-.545C14.462 8.874 15 8.027 15 7c0-1.318-.885-2.34-1.95-2.979C11.965 3.371 10.53 3 9 3M5 7c0-.34.234-.817.979-1.264C6.704 5.301 7.769 5 9 5s2.296.301 3.021.736c.745.447.979.925.979 1.264 0 .34-.234.817-.979 1.264C11.296 8.699 10.231 9 9 9s-2.296-.301-3.021-.736C5.234 7.817 5 7.339 5 7m7.067 3.764a4 4 0 0 0-.339-.187A8.7 8.7 0 0 1 9 11c-.97 0-1.9-.149-2.728-.423q-.154.075-.293.16C5.234 11.182 5 11.66 5 12s.234.817.979 1.264C6.704 13.699 7.769 14 9 14q.174 0 .344-.008a6.02 6.02 0 0 1 2.723-3.228M9 16c-.97 0-1.9-.149-2.728-.423q-.154.075-.293.16C5.234 16.182 5 16.66 5 17s.234.817.979 1.264C6.704 18.699 7.769 19 9 19q.402 0 .78-.041A6 6 0 0 1 9 16m2 0a4 4 0 1 1 8 0 4 4 0 0 1-8 0"/></svg>