<svg xmlns="http://www.w3.org/2000/svg" viewBox="0 0 32 32"><path fill-rule="evenodd" d="M11.998 4c-2.05 0-3.966.49-5.412 1.346-1.418.84-2.59 2.18-2.59 3.904 0 1.398.771 2.544 1.82 3.375-1.049.831-1.82 1.977-1.82 3.375s.771 2.544 1.82 3.375c-1.049.831-1.82 1.977-1.82 3.375 0 1.724 1.172 3.064 2.59 3.904C8.032 27.511 9.95 28 11.998 28c1.192 0 2.34-.166 3.375-.473a8 8 0 1 0 3.342-14.424 6 6 0 0 0-.535-.478C19.23 11.794 20 10.648 20 9.25c0-1.724-1.172-3.063-2.59-3.904C15.962 4.49 14.046 4 11.997 4M6.496 9.25c0-.485.34-1.146 1.365-1.753.997-.591 2.457-.997 4.137-.997s3.14.406 4.137.997c1.025.607 1.364 1.268 1.364 1.753s-.34 1.146-1.364 1.753c-.998.591-2.458.997-4.137.997-1.68 0-3.14-.406-4.137-.997-1.025-.607-1.365-1.268-1.365-1.753m9.416 4.872a6 6 0 0 0-.327-.16c-1.09.349-2.313.538-3.587.538s-2.497-.19-3.587-.538q-.295.134-.55.285c-1.025.607-1.365 1.268-1.365 1.753s.34 1.146 1.365 1.753c.997.591 2.457.997 4.137.997q.164 0 .324-.005a8.02 8.02 0 0 1 3.59-4.623m-3.908 7.128h-.006c-1.274 0-2.497-.19-3.587-.538q-.295.134-.55.285c-1.025.607-1.365 1.268-1.365 1.753s.34 1.146 1.365 1.753c.997.591 2.457.997 4.137.997q.692 0 1.328-.087a7.96 7.96 0 0 1-1.322-4.163M14.5 21a5.5 5.5 0 1 1 11 0 5.5 5.5 0 0 1-11 0"/></svg>