<svg xmlns="http://www.w3.org/2000/svg" viewBox="0 0 44 44"><path d="M17.975 19.931Q17.25 20 16.498 20c-5.799 0-10.5-3.134-10.5-7s4.701-7 10.5-7 10.5 3.134 10.5 7c0 1.11-.387 2.159-1.076 3.091a13.46 13.46 0 0 0-7.947 3.84m-2.3 3.048c-3.836-.198-7.093-1.77-8.667-3.979-.647.91-1.01 1.926-1.01 3 0 3.296 3.417 6.06 8.018 6.803a13.4 13.4 0 0 1 1.659-5.824m-1.476 8.853c-3.185-.475-5.823-1.913-7.19-3.832-.648.91-1.011 1.926-1.011 3 0 3.866 4.701 7 10.5 7q.255 0 .505-.008a13.44 13.44 0 0 1-2.804-6.16M27.5 19C21.701 19 17 23.701 17 29.5S21.701 40 27.5 40 38 35.299 38 29.5 33.299 19 27.5 19"/></svg>