<svg xmlns="http://www.w3.org/2000/svg" viewBox="0 0 16 16"><path d="M6.57 8.565a.749.749 0 1 1-1.498-.002.749.749 0 0 1 1.498.002m4.348 0a.749.749 0 1 1-1.498-.002.749.749 0 0 1 1.498.002m-4.061 2.04.002.048a.45.45 0 0 0 .16.328 1.52 1.52 0 0 0 1.957 0 .45.45 0 0 0 .16-.328l.002-.048a.25.25 0 0 0-.17-.246l-.052-.018a2.86 2.86 0 0 0-1.836 0l-.053.017a.25.25 0 0 0-.17.247"/><path fill-rule="evenodd" d="M13.999 6.28a2.517 2.517 0 0 1-.317 4.222A6.22 6.22 0 0 1 8 14.2a6.22 6.22 0 0 1-5.682-3.697A2.517 2.517 0 0 1 2 6.28C2.727 3.646 5.129 1.7 8 1.7a6.2 6.2 0 0 1 1.891.293A6.25 6.25 0 0 1 14 6.281M8.633 3.239a4.74 4.74 0 0 1 4.046 4.05c.467.09.821.505.821 1.002 0 .548-.431.996-.971 1.017-.58 1.965-2.389 3.397-4.529 3.397s-3.948-1.432-4.529-3.397A1.016 1.016 0 0 1 2.5 8.29c0-.497.354-.911.821-1.001a4.75 4.75 0 0 1 3.224-3.863 2 2 0 0 0-.33.657 3 3 0 0 0-.078.391c-.036.28.016.546.102.774.21.555.685.969 1.264 1.103 1.125.261 2.079-.837 1.675-1.91a.5.5 0 0 0-.936.352.442.442 0 0 1-.512.587.78.78 0 0 1-.556-.485.6.6 0 0 1-.045-.296 1.16 1.16 0 0 1 .335-.716c.243-.255.424-.379.594-.46.16-.074.325-.12.575-.185"/></svg>