<svg xmlns="http://www.w3.org/2000/svg" viewBox="0 0 24 24"><path fill-rule="evenodd" d="M13.25 3.375a8.7 8.7 0 0 0-1.472-.125C7.76 3.25 4.4 5.991 3.4 9.696A3.45 3.45 0 0 0 2 12.473a3.45 3.45 0 0 0 1.836 3.05c1.345 3.06 4.386 5.21 7.942 5.21s6.598-2.15 7.942-5.21a3.45 3.45 0 0 0 1.836-3.05 3.45 3.45 0 0 0-1.4-2.777 8.76 8.76 0 0 0-4.411-5.483 1 1 0 0 1-.127.044c-.411.105-1.31.4-2.274.807-.975.411-1.927.9-2.501 1.372a1.1 1.1 0 0 0-.35.547 2 2 0 0 0-.061.28c-.022.143 0 .325.083.542a.9.9 0 0 0 .634.554l.085.02c.433.1.813-.325.653-.75a.8.8 0 1 1 1.497-.564c.606 1.612-.824 3.265-2.512 2.873l-.085-.02A2.5 2.5 0 0 1 9.019 8.37c-.146-.386-.244-.853-.17-1.347.024-.156.057-.312.105-.48.147-.515.443-.99.873-1.344.76-.626 1.892-1.187 2.896-1.61q.267-.114.526-.215M9.7 12.803a1 1 0 1 1-2 0 1 1 0 0 1 2 0m5.148 1a1 1 0 1 0 0-2 1 1 0 0 0 0 2m-4.686 2.686.003.069c.007.18.09.348.226.464a2.14 2.14 0 0 0 2.767 0 .64.64 0 0 0 .227-.464l.002-.069a.355.355 0 0 0-.24-.35l-.074-.025a4.03 4.03 0 0 0-2.596 0l-.075.025a.355.355 0 0 0-.24.35"/></svg>