<svg xmlns="http://www.w3.org/2000/svg" viewBox="0 0 16 16"><path fill-rule="evenodd" d="M7.527 14h.945c.226 0 .462 0 .662-.026.235-.03.501-.104.742-.307.238-.2.357-.443.428-.669a4 4 0 0 0 .107-.468q.156-.083.304-.175c.194.07.396.143.58.184.232.051.502.07.794-.035a1.4 1.4 0 0 0 .64-.487c.123-.161.242-.365.356-.561l.476-.815c.114-.196.233-.4.312-.586a1.4 1.4 0 0 0 .107-.8 1.4 1.4 0 0 0-.37-.707 5 5 0 0 0-.48-.428 5 5 0 0 0 0-.241c.167-.137.343-.282.478-.426.162-.174.315-.4.37-.707a1.4 1.4 0 0 0-.107-.8 5 5 0 0 0-.312-.586l-.476-.815a5 5 0 0 0-.357-.56 1.4 1.4 0 0 0-.64-.488 1.4 1.4 0 0 0-.793-.035c-.183.04-.385.113-.579.184q-.148-.093-.302-.175a4 4 0 0 0-.108-.469 1.4 1.4 0 0 0-.428-.669 1.4 1.4 0 0 0-.742-.307A5 5 0 0 0 8.472 2h-.945c-.226 0-.461 0-.662.026-.235.03-.501.104-.742.307a1.4 1.4 0 0 0-.428.669 4 4 0 0 0-.107.47 5 5 0 0 0-.303.174 5 5 0 0 0-.58-.184 1.4 1.4 0 0 0-.794.035 1.4 1.4 0 0 0-.64.487c-.123.16-.242.364-.356.56l-.476.816a5 5 0 0 0-.312.586 1.4 1.4 0 0 0-.107.8c.055.307.208.532.37.706.135.145.312.29.479.428a5 5 0 0 0 0 .24 5 5 0 0 0-.478.427 1.4 1.4 0 0 0-.37.707c-.056.312.015.58.107.8.079.186.198.39.312.586l.476.815c.114.196.233.4.357.56a1.4 1.4 0 0 0 .64.487c.291.105.561.087.793.035.183-.04.384-.112.578-.183q.148.092.304.176c.03.163.062.326.107.468.071.226.19.47.428.669.241.203.507.277.742.307.2.026.436.026.662.026m4.039-9.058q-.045.012-.115.036c-.08.027-.173.06-.292.104l-.115.043c-.348.129-.72.067-1.004-.126q-.22-.15-.464-.268a1.1 1.1 0 0 1-.61-.803v-.006a13 13 0 0 0-.08-.412l-.127-.006c-.088-.002-.19-.002-.32-.002H7.56c-.13 0-.233 0-.32.002l-.128.006-.025.11c-.016.082-.033.178-.054.302l-.001.006a1.1 1.1 0 0 1-.61.803 4 4 0 0 0-.464.268 1.1 1.1 0 0 1-1.003.126l-.117-.043-.292-.105-.115-.036q-.029.042-.073.113c-.046.075-.098.163-.164.277l-.44.756a9 9 0 0 0-.161.279q-.037.066-.058.11l.08.071a13 13 0 0 0 .359.297c.287.234.423.585.402.925a4 4 0 0 0 0 .462c.021.34-.115.691-.402.925l-.358.296-.08.072q.022.044.058.11c.042.077.094.165.16.279l.441.755c.066.114.118.202.164.277l.073.113q.045-.012.115-.036c.08-.027.173-.06.292-.104l.114-.043a1.1 1.1 0 0 1 1.004.126q.222.15.466.27c.307.147.546.438.609.802v.005a13 13 0 0 0 .08.412q.048.005.128.006c.087.002.19.002.32.002h.877c.13 0 .233 0 .32-.002q.08-.001.129-.006.01-.041.024-.11c.016-.082.033-.178.054-.302l.001-.005c.063-.364.303-.654.61-.803q.243-.117.465-.268a1.1 1.1 0 0 1 1.003-.126l.117.043c.12.043.212.077.292.104q.07.024.115.036l.073-.112c.046-.075.098-.164.164-.277l.44-.756c.067-.113.119-.202.161-.28q.037-.066.058-.109l-.08-.072a13 13 0 0 0-.36-.297 1.1 1.1 0 0 1-.401-.925 4 4 0 0 0 0-.462 1.1 1.1 0 0 1 .401-.925l.358-.297.08-.071-.058-.11c-.042-.077-.094-.166-.16-.279l-.441-.756-.164-.276zM8.736 6.1a.9.9 0 1 1-1.8 0 .9.9 0 0 1 1.8 0m.014 2.312a.75.75 0 0 0-.75-.75H7a.75.75 0 1 0 0 1.5h.25V10a.75.75 0 0 0 1.5 0z"/></svg>