<svg xmlns="http://www.w3.org/2000/svg" viewBox="0 0 16 16"><path fill-rule="evenodd" d="M6.865 13.974c.2.026.436.026.662.026h.945c.226 0 .462 0 .662-.026.235-.03.501-.104.742-.307.238-.2.357-.443.428-.669a4 4 0 0 0 .107-.468q.156-.083.304-.175c.194.07.396.143.58.184.232.051.502.07.794-.035a1.4 1.4 0 0 0 .64-.487c.123-.161.242-.365.356-.561l.476-.815c.114-.196.233-.4.312-.586a1.4 1.4 0 0 0 .107-.8 1.4 1.4 0 0 0-.37-.707 5 5 0 0 0-.48-.428 5 5 0 0 0 0-.241c.167-.137.343-.282.478-.426.162-.174.315-.4.37-.707a1.4 1.4 0 0 0-.107-.8 5 5 0 0 0-.312-.586l-.476-.815a5 5 0 0 0-.357-.56 1.4 1.4 0 0 0-.64-.488 1.4 1.4 0 0 0-.793-.035c-.183.04-.385.113-.579.184q-.148-.093-.302-.175a4 4 0 0 0-.108-.469 1.4 1.4 0 0 0-.428-.669 1.4 1.4 0 0 0-.742-.307A5 5 0 0 0 8.472 2h-.945c-.226 0-.461 0-.662.026-.235.03-.501.104-.742.307a1.4 1.4 0 0 0-.428.669 4 4 0 0 0-.107.47 5 5 0 0 0-.303.174 5 5 0 0 0-.58-.184 1.4 1.4 0 0 0-.794.035 1.4 1.4 0 0 0-.64.487c-.123.16-.242.364-.356.56l-.476.816c-.114.196-.233.4-.312.586a1.4 1.4 0 0 0-.107.8c.055.307.208.532.37.706.135.145.312.29.479.428a5 5 0 0 0 0 .24 5 5 0 0 0-.478.427 1.4 1.4 0 0 0-.37.707c-.056.312.015.58.107.8.079.186.198.39.312.586l.476.815c.114.196.233.4.357.56a1.4 1.4 0 0 0 .64.487c.291.105.561.087.793.035.183-.04.384-.112.578-.183q.148.092.304.176c.03.163.062.326.107.468.071.226.19.47.428.669.241.203.507.277.742.307M8.735 6.1a.9.9 0 1 1-1.8 0 .9.9 0 0 1 1.8 0m.015 2.312a.75.75 0 0 0-.75-.75H7a.75.75 0 1 0 0 1.5h.25V10a.75.75 0 0 0 1.5 0z"/></svg>