<svg xmlns="http://www.w3.org/2000/svg" viewBox="0 0 24 24"><path fill-rule="evenodd" d="M11.3 21h1.4c.343 0 .688 0 .98-.038.34-.044.713-.149 1.05-.433.332-.28.5-.622.602-.948a7 7 0 0 0 .19-.887q.264-.14.514-.297a7 7 0 0 0 .866.279c.333.075.712.1 1.12-.047.415-.15.693-.42.9-.692.18-.234.353-.534.524-.83l.7-1.212c.171-.297.344-.596.457-.869.132-.316.227-.691.15-1.125-.077-.428-.289-.744-.52-.995a7 7 0 0 0-.676-.61 8 8 0 0 0 0-.592c.241-.201.486-.406.673-.61.231-.25.443-.566.52-.994.078-.434-.018-.81-.15-1.125a8 8 0 0 0-.457-.869l-.7-1.21a8 8 0 0 0-.523-.832c-.207-.271-.485-.542-.9-.692-.408-.147-.788-.122-1.121-.047-.27.061-.569.17-.863.279a8 8 0 0 0-.514-.297 7 7 0 0 0-.19-.888c-.102-.326-.27-.668-.602-.948-.337-.284-.71-.39-1.049-.433A8 8 0 0 0 12.699 3H11.3c-.343 0-.688 0-.981.038-.34.044-.712.149-1.05.433-.331.28-.5.622-.6.948a7 7 0 0 0-.191.888 8 8 0 0 0-.514.297 7 7 0 0 0-.865-.28c-.333-.075-.713-.1-1.121.047-.415.15-.693.42-.9.692-.18.235-.352.534-.524.831l-.7 1.212a8 8 0 0 0-.457.868c-.132.316-.227.692-.15 1.126.077.427.29.743.52.994.188.204.433.41.676.61a8 8 0 0 0 0 .592c-.242.2-.486.406-.674.609-.231.25-.443.567-.52.994-.077.434.018.81.15 1.126.113.272.286.571.457.868l.7 1.212c.171.296.344.596.523.83.207.272.485.543.9.692.408.148.788.122 1.121.047.27-.06.569-.17.863-.278q.25.159.515.298c.053.31.108.623.19.887.102.326.27.668.602.948.337.284.71.39 1.049.433.292.038.638.038.98.038m2.123-2.021c.041-.134.077-.332.143-.717l.024-.14c.084-.506.414-.91.84-1.117a6 6 0 0 0 .685-.397c.393-.266.91-.35 1.39-.17l.136.05c.366.136.555.204.691.235.091-.119.2-.302.405-.658l.652-1.129c.205-.356.31-.54.367-.679-.095-.102-.248-.232-.549-.482l-.112-.093a1.53 1.53 0 0 1-.547-1.286 6 6 0 0 0 0-.793c-.034-.473.152-.96.547-1.286l.11-.09c.3-.25.453-.38.549-.482-.058-.139-.163-.324-.368-.68l-.652-1.128c-.205-.356-.313-.54-.404-.658-.136.031-.325.099-.692.234l-.133.05a1.53 1.53 0 0 1-1.39-.17 6 6 0 0 0-.685-.397 1.53 1.53 0 0 1-.84-1.117l-.024-.141c-.066-.385-.102-.583-.143-.717-.148-.019-.361-.021-.772-.021h-1.302c-.411 0-.624.002-.772.021-.041.134-.077.332-.143.717l-.024.14a1.53 1.53 0 0 1-.84 1.118 6 6 0 0 0-.685.396c-.393.266-.91.35-1.39.17l-.135-.05c-.367-.135-.556-.203-.692-.235-.09.12-.2.303-.405.659l-.651 1.128c-.206.356-.31.541-.368.68.096.102.249.232.55.482l.11.092c.396.326.581.813.548 1.286a6 6 0 0 0 0 .793c.033.472-.152.96-.547 1.285l-.11.091c-.3.25-.454.38-.55.482.058.138.163.324.368.68l.652 1.128c.205.356.313.54.404.658.137-.032.326-.099.692-.235l.133-.049a1.53 1.53 0 0 1 1.39.17q.328.224.685.398c.426.207.756.611.841 1.117l.024.14c.066.385.102.583.142.717.149.019.362.021.773.021h1.302c.41 0 .624-.002.772-.021M13 8.75a1.249 1.249 0 1 1-2.498 0 1.249 1.249 0 0 1 2.498 0M13 12a1 1 0 0 0-1-1h-1.5a1 1 0 1 0 0 2h.5v2a1 1 0 1 0 2 0z"/></svg>