<svg xmlns="http://www.w3.org/2000/svg" viewBox="0 0 32 32"><path fill-rule="evenodd" d="M8.25 7.588c0-.282.08-.41.228-.531.21-.173.617-.363 1.34-.508 1.456-.293 3.557-.299 6.182-.299s4.726.006 6.182.299c.723.146 1.13.335 1.34.508.148.121.228.25.228.531 0 .32-.152.817-.535 1.477-.367.633-.874 1.294-1.408 1.91a24 24 0 0 1-2.083 2.102l-.033.028-.008.008-.433.373v6.442l-.001.14a43 43 0 0 1-.077 2.164 22 22 0 0 1-.18 1.834c-.089.599-.189.952-.254 1.084-.11.22-.278.369-.71.473-.5.12-1.142.127-2.028.127s-1.527-.007-2.027-.127c-.433-.104-.601-.253-.71-.473-.066-.132-.166-.485-.255-1.084a22 22 0 0 1-.18-1.835 43 43 0 0 1-.077-2.164v-6.581l-.434-.374-.008-.007-.033-.028-.131-.117a24 24 0 0 1-1.951-1.986c-.535-.615-1.042-1.276-1.41-1.91-.382-.66-.534-1.157-.534-1.476m13.818 6.726-.318.3v5.325a29 29 0 0 1-.01.7c-.01.455-.031 1.079-.073 1.747a25 25 0 0 1-.202 2.048c-.091.615-.232 1.313-.488 1.828-.534 1.074-1.452 1.572-2.366 1.792-.82.197-1.75.196-2.533.196h-.156c-.783 0-1.713 0-2.533-.196-.914-.22-1.832-.718-2.366-1.792-.255-.515-.396-1.213-.488-1.828a25 25 0 0 1-.202-2.048 45 45 0 0 1-.083-2.447v-5.325l-.318-.3a26 26 0 0 1-1.625-1.7c-.59-.679-1.209-1.474-1.685-2.296-.462-.797-.872-1.755-.872-2.73 0-1.012.402-1.854 1.138-2.461.675-.555 1.553-.851 2.437-1.029 1.73-.348 4.08-.348 6.554-.348h.243c2.474 0 4.823 0 6.553.348.884.178 1.762.474 2.437 1.029.736.607 1.138 1.45 1.138 2.461 0 .975-.41 1.934-.872 2.73-.476.823-1.094 1.617-1.685 2.296a26 26 0 0 1-1.625 1.7M17.25 16a1.25 1.25 0 1 0-2.5 0v4a1.25 1.25 0 1 0 2.5 0z"/></svg>