<svg xmlns="http://www.w3.org/2000/svg" viewBox="0 0 44 44"><path fill-rule="evenodd" d="M11.5 10.53c0-.457.139-.693.377-.894.31-.261.882-.526 1.854-.726 1.957-.403 4.775-.41 8.269-.41s6.311.007 8.269.41c.972.2 1.544.465 1.854.726.238.2.377.437.377.894 0 .497-.227 1.218-.742 2.128-.499.88-1.184 1.792-1.9 2.635a32 32 0 0 1-2.795 2.886l-.044.04-.01.008-.002.002-.507.447v8.735l-.004.342a64 64 0 0 1-.028 1.203 45 45 0 0 1-.224 3.377c-.13 1.157-.301 1.94-.45 2.247-.18.372-.461.596-1.06.743-.685.168-1.558.177-2.734.177s-2.049-.009-2.734-.177c-.599-.147-.879-.371-1.06-.743-.148-.307-.32-1.09-.45-2.247a45 45 0 0 1-.224-3.376 64 64 0 0 1-.031-1.546v-8.735l-.509-.448v-.001l-.01-.009-.045-.04-.177-.16a32 32 0 0 1-2.617-2.724c-.717-.844-1.402-1.757-1.9-2.637-.516-.91-.743-1.63-.743-2.128m18.488 9.012q-.276.27-.488.469v7.419l-.004.364c-.005.31-.013.748-.03 1.262a48 48 0 0 1-.241 3.61c-.124 1.112-.328 2.39-.733 3.225-.677 1.393-1.845 2.051-3.042 2.345-1.076.265-2.303.264-3.352.264h-.196c-1.048 0-2.275 0-3.352-.264-1.197-.294-2.365-.952-3.042-2.345-.405-.834-.608-2.113-.733-3.224a48 48 0 0 1-.24-3.611 67 67 0 0 1-.034-1.626V20.01q-.212-.199-.489-.47a35 35 0 0 1-2.155-2.305c-.783-.921-1.598-1.994-2.225-3.1-.61-1.075-1.132-2.34-1.132-3.607 0-1.308.504-2.395 1.444-3.187.869-.732 2.01-1.129 3.182-1.37C15.42 5.5 18.542 5.5 21.85 5.5h.302c3.307 0 6.429 0 8.722.472 1.171.241 2.313.638 3.182 1.37.94.792 1.444 1.88 1.444 3.188 0 1.267-.523 2.531-1.133 3.607-.626 1.105-1.441 2.178-2.224 3.1a35 35 0 0 1-2.155 2.305M23.5 22a1.5 1.5 0 0 0-3 0v5a1.5 1.5 0 0 0 3 0z"/></svg>