<svg xmlns="http://www.w3.org/2000/svg" viewBox="0 0 16 16"><path fill-rule="evenodd" d="m11.375 7.099-.125.139v2.995a24 24 0 0 1-.046 1.255c-.023.364-.058.763-.113 1.125-.051.335-.13.727-.279 1.02-.308.61-.837.887-1.351 1.009-.46.108-.982.108-1.416.108h-.09c-.434 0-.955 0-1.415-.108-.515-.122-1.043-.4-1.352-1.01-.148-.292-.228-.684-.279-1.02-.055-.36-.09-.76-.113-1.123a24 24 0 0 1-.045-1.256v-.084l-.001-.022v-2.89a13 13 0 0 1-.855-1.044 8 8 0 0 1-.758-1.234c-.21-.434-.387-.944-.387-1.459 0-.512.156-.98.51-1.35.335-.347.78-.539 1.23-.656.88-.227 2.111-.244 3.51-.244s2.63.017 3.51.244c.45.117.895.309 1.23.656.354.37.51.838.51 1.35 0 .515-.178 1.025-.387 1.46-.214.443-.492.87-.758 1.233-.267.365-.532.681-.73.906M8.75 8a.75.75 0 0 0-1.5 0v2a.75.75 0 0 0 1.5 0z"/></svg>