<svg xmlns="http://www.w3.org/2000/svg" viewBox="0 0 16 16"><path fill-rule="evenodd" d="M4.25 3.5c0-.194.05-.266.092-.31.063-.066.207-.161.524-.243.657-.17 1.676-.197 3.134-.197s2.477.027 3.134.197c.317.082.46.177.524.243.042.044.092.116.092.31 0 .19-.072.464-.238.808a6.7 6.7 0 0 1-.617 1 11 11 0 0 1-.913 1.09l-.013.014-.003.003-.216.219v3.584a22 22 0 0 1-.043 1.176 12 12 0 0 1-.1.993c-.049.326-.103.508-.133.569-.049.096-.124.17-.358.226-.272.064-.622.068-1.116.068-.493 0-.844-.004-1.116-.068-.234-.055-.31-.13-.358-.226-.03-.06-.084-.243-.134-.569-.045-.3-.077-.651-.099-.993a23 23 0 0 1-.042-1.176v-.076l-.001-.019V6.634l-.216-.22-.003-.002-.013-.014-.057-.06a11 11 0 0 1-.855-1.03 6.6 6.6 0 0 1-.618-1c-.166-.344-.238-.617-.238-.808m7.125 3.598-.125.14v2.995a24 24 0 0 1-.046 1.255c-.023.364-.058.763-.113 1.125-.051.335-.13.727-.279 1.02-.308.61-.837.887-1.351 1.009-.46.108-.982.108-1.416.108h-.09c-.434 0-.955 0-1.415-.108-.515-.122-1.043-.4-1.352-1.01-.148-.292-.228-.684-.279-1.02-.055-.36-.09-.76-.113-1.123a24 24 0 0 1-.045-1.256v-.084l-.001-.022v-2.89a13 13 0 0 1-.855-1.044 8 8 0 0 1-.758-1.234c-.21-.434-.387-.944-.387-1.459 0-.512.156-.98.51-1.35.335-.347.78-.539 1.23-.656.88-.227 2.111-.244 3.51-.244s2.63.017 3.51.244c.45.117.895.309 1.23.656.354.37.51.838.51 1.35 0 .515-.178 1.025-.387 1.46-.214.443-.492.87-.758 1.233-.267.365-.532.681-.73.906M8.75 8a.75.75 0 0 0-1.5 0v2a.75.75 0 0 0 1.5 0z"/></svg>