<svg xmlns="http://www.w3.org/2000/svg" viewBox="0 0 24 24"><path fill-rule="evenodd" d="M4.008 6.64c.04-.998.061-1.497.598-2.034s1.036-.557 2.035-.598a9 9 0 0 1 .718 0c.999.04 1.498.061 2.035.598s.557 1.036.598 2.035a9 9 0 0 1 0 .718c-.04.999-.061 1.498-.598 2.035s-1.036.557-2.035.598a9 9 0 0 1-.718 0c-.999-.04-1.498-.061-2.035-.598s-.557-1.036-.598-2.035a9 9 0 0 1 0-.718m2.707-.834a7 7 0 0 1 .57 0c.26.01.439.019.59.031.128.01.197.022.233.03l.013.012.013.013c.007.036.018.105.029.233A15 15 0 0 1 8.2 7q0 .14-.006.285a15 15 0 0 1-.031.59c-.01.128-.022.197-.03.233l-.012.013-.013.013a2 2 0 0 1-.233.029A15 15 0 0 1 7 8.2a15 15 0 0 1-.875-.037 2 2 0 0 1-.233-.03l-.013-.012-.013-.013a2 2 0 0 1-.029-.233A15 15 0 0 1 5.8 7q0-.14.006-.285c.01-.26.019-.439.031-.59a2 2 0 0 1 .03-.233l.012-.013.013-.013a2 2 0 0 1 .233-.029c.151-.012.33-.02.59-.03"/><path d="M18.707 5.293a1 1 0 0 1 0 1.414l-12 12a1 1 0 0 1-1.414-1.414l12-12a1 1 0 0 1 1.414 0"/><path fill-rule="evenodd" d="M14.606 14.606c-.537.537-.557 1.036-.598 2.035a9 9 0 0 0 0 .718c.04.999.062 1.498.598 2.035.537.537 1.036.557 2.035.598a9 9 0 0 0 .718 0c.999-.04 1.498-.062 2.035-.598.537-.537.557-1.036.598-2.035a9 9 0 0 0 0-.718c-.04-.999-.062-1.498-.598-2.035-.537-.537-1.036-.557-2.035-.598a9 9 0 0 0-.718 0c-.999.04-1.498.062-2.035.598M17 15.8a15 15 0 0 0-.875.037c-.128.01-.197.022-.233.03l-.013.012-.013.013a2 2 0 0 0-.029.233A15 15 0 0 0 15.8 17q0 .14.006.285c.01.26.019.439.031.59.01.128.022.197.03.233l.012.013.013.013c.036.007.105.018.233.029A15 15 0 0 0 17 18.2q.14 0 .285-.006c.26-.01.439-.018.59-.031.128-.01.197-.022.233-.03l.013-.012.013-.013c.007-.036.018-.105.029-.233A15 15 0 0 0 18.2 17a15 15 0 0 0-.037-.875 2 2 0 0 0-.03-.233l-.012-.013-.013-.013a2 2 0 0 0-.233-.029A15 15 0 0 0 17 15.8"/></svg>