<svg xmlns="http://www.w3.org/2000/svg" viewBox="0 0 32 32"><path d="M17.154 11.047A16 16 0 0 0 15.999 11v10.002c.389 0 .778-.017 1.155-.045 1.453-.109 2.18-.163 2.91-.892.729-.73.783-1.456.89-2.91.029-.377.046-.765.046-1.154s-.017-.777-.045-1.154c-.108-1.454-.162-2.18-.892-2.91s-1.456-.783-2.91-.892"/><path fill-rule="evenodd" d="M16 4.002c-.933 0-1.866.04-2.77.108-3.488.26-5.232.39-6.983 2.14s-1.88 3.494-2.14 6.982A38 38 0 0 0 4 16.002c0 .933.041 1.865.108 2.77.26 3.488.39 5.232 2.14 6.982s3.495 1.88 6.983 2.14c.904.067 1.837.108 2.77.108.932 0 1.865-.04 2.769-.108 3.488-.26 5.232-.39 6.982-2.14s1.88-3.495 2.14-6.983c.068-.904.108-1.836.108-2.769s-.04-1.865-.108-2.77c-.26-3.488-.39-5.232-2.14-6.982s-3.494-1.88-6.982-2.14A38 38 0 0 0 16 4.002M16 25.5v-4.497c-.389 0-.777-.017-1.154-.045-1.453-.109-2.18-.163-2.91-.892-.729-.73-.783-1.456-.891-2.91A16 16 0 0 1 11 16.002c0-.389.017-.777.045-1.154.108-1.454.162-2.18.892-2.91s1.456-.783 2.91-.892a16 16 0 0 1 1.152-.044v-4.5c.861 0 1.731.038 2.584.101 3.656.272 4.408.423 5.4 1.415.993.992 1.143 1.744 1.415 5.4.064.853.101 1.723.101 2.584s-.037 1.731-.1 2.584c-.273 3.656-.423 4.408-1.415 5.4-.993.992-1.745 1.143-5.4 1.415-.854.063-1.724.099-2.585.099"/></svg>