<svg xmlns="http://www.w3.org/2000/svg" viewBox="0 0 24 24"><path fill-rule="evenodd" d="M12 4c-1.55 0-2.902.068-4.055.168-2.024.176-3.037.264-4.326 1.558-1.29 1.293-1.37 2.264-1.532 4.204a25 25 0 0 0 0 4.14c.162 1.941.243 2.912 1.532 4.205s2.301 1.382 4.326 1.558c1.153.1 2.505.168 4.055.168s2.902-.068 4.054-.168c2.026-.176 3.038-.264 4.328-1.558 1.289-1.294 1.37-2.264 1.531-4.206a25 25 0 0 0 0-4.137c-.161-1.941-.242-2.912-1.531-4.206-1.29-1.294-2.303-1.382-4.328-1.558A47 47 0 0 0 12 4M8.118 6.16C9.214 6.067 10.508 6 12 6s2.786.066 3.881.16c1.08.094 1.603.15 2.024.279.703.217 1.406.881 1.69 1.561H4.406c.284-.68.987-1.344 1.69-1.561.421-.13.944-.185 2.023-.278M4.088 10l-.008.097a23 23 0 0 0 0 3.808c.086 1.037.137 1.522.26 1.915.237.761.996 1.508 1.755 1.742.421.13.944.185 2.023.278 1.096.096 2.39.16 3.882.16s2.786-.064 3.882-.16c1.079-.093 1.602-.148 2.023-.278.76-.234 1.519-.98 1.756-1.742.123-.394.173-.88.26-1.917a23 23 0 0 0 0-3.805l-.01-.098z"/></svg>