<svg xmlns="http://www.w3.org/2000/svg" viewBox="0 0 16 16"><path fill-rule="evenodd" d="M11.007 12.882c1.38-.115 2.069-.172 2.933-1.038.865-.867.915-1.489 1.015-2.731a14 14 0 0 0 0-2.226c-.1-1.243-.15-1.864-1.015-2.73-.864-.867-1.554-.924-2.933-1.039A36 36 0 0 0 8 3c-1.162 0-2.165.048-3.008.118-1.378.115-2.067.172-2.932 1.038s-.914 1.488-1.015 2.73a14 14 0 0 0 0 2.228c.1 1.242.15 1.863 1.015 2.73.864.866 1.554.923 2.932 1.038.843.07 1.846.118 3.008.118s2.165-.049 3.007-.118M5.116 4.613A35 35 0 0 1 8 4.5c1.12 0 2.081.047 2.883.113.74.062 1.08.097 1.35.178.453.137.927.59 1.072 1.044.016.052.034.103.047.165H2.656c.013-.062.023-.113.04-.165.144-.454.618-.907 1.072-1.044.268-.081.609-.116 1.348-.178M2.514 7.5A12 12 0 0 0 2.5 8q.001.518.04.993c.055.672.085.95.156 1.172.144.454.618.907 1.072 1.044.268.081.609.116 1.348.178.802.066 1.764.113 2.884.113s2.081-.047 2.883-.113c.74-.062 1.08-.097 1.35-.178.453-.137.927-.59 1.072-1.044.07-.222.1-.501.155-1.173q.039-.475.04-.992c0-.168 0-.338-.006-.5z"/></svg>