<svg xmlns="http://www.w3.org/2000/svg" viewBox="0 0 24 24"><path d="M7.947 4.168C9.1 4.068 10.452 4 12.002 4s2.901.068 4.054.168c2.025.176 3.038.264 4.328 1.558.778.78 1.116 1.444 1.297 2.274H2.323c.182-.83.52-1.493 1.298-2.274 1.29-1.294 2.301-1.382 4.326-1.558M2.083 10a25 25 0 0 0 .006 4.07c.162 1.941.243 2.912 1.532 4.205s2.301 1.382 4.326 1.558c1.153.1 2.505.168 4.055.168s2.902-.068 4.054-.168c2.025-.176 3.038-.264 4.328-1.558 1.289-1.294 1.37-2.264 1.531-4.206A25 25 0 0 0 21.921 10z"/></svg>