<svg xmlns="http://www.w3.org/2000/svg" viewBox="0 0 16 16"><path fill-rule="evenodd" d="M8 1c-.329 0-.63.177-1.233.531L4.873 2.644C3.12 3.674 2.346 4.128 2.238 5 2.238 5 2 6.491 2 8c0 1.306.238 3 .238 3 .227.946.832 1.3 2.427 2.235l2.103 1.235c.602.353.904.53 1.232.53a.75.75 0 0 0 .75-.75V8.746c.138-.075.296-.168.482-.277l1.828-1.074c.537-.315.993-.583 1.37-.826.032.382.057.81.063 1.239a.76.76 0 0 0 .758.692.75.75 0 0 0 .745-.833A22 22 0 0 0 13.764 5c-.188-.848-.903-1.337-2.704-2.395L9.232 1.53C8.63 1.177 8.328 1 8 1m2.3 2.898L8.472 2.824A24 24 0 0 0 8 2.553l-.097.053c-.103.058-.222.128-.376.218l-.843.496 4.099 2.498c.6-.356 1.004-.606 1.281-.818-.346-.265-.887-.587-1.764-1.102M9.316 6.68 5.217 4.182c-.601.356-1.004.606-1.281.818.346.265.887.587 1.763 1.102l1.828 1.074A24 24 0 0 0 8 7.447l.097-.053c.103-.058.221-.128.375-.218zM6.767 8.47c.187.11.344.202.483.278v4.265L5.476 11.97c-.815-.478-1.24-.727-1.52-.956-.166-.134-.209-.198-.238-.3a24 24 0 0 1-.102-.875A20 20 0 0 1 3.506 8c0-.492.027-.99.064-1.43.377.243.833.511 1.37.826z"/><path d="M15 12a.75.75 0 0 1-.75.75h-1.5v1.5a.75.75 0 0 1-1.5 0v-1.5H9.748a.75.75 0 0 1 0-1.5h1.502V9.749a.75.75 0 0 1 1.5 0v1.501h1.5A.75.75 0 0 1 15 12"/></svg>