<svg xmlns="http://www.w3.org/2000/svg" viewBox="0 0 24 24"><path d="M12 2c-.505 0-.965.283-1.884.848L8.35 3.932l9.639 5.696.61-.375c1.266-.778 1.9-1.168 1.9-1.753s-.634-.975-1.9-1.753l-4.717-2.9c-.92-.564-1.38-.847-1.884-.847m4.065 8.812L6.424 5.117l-1.024.63C4.133 6.525 3.5 6.915 3.5 7.5s.633.975 1.9 1.753l4.716 2.9c.92.564 1.379.847 1.883.847.505 0 .964-.283 1.884-.848zM3.18 15.461a33 33 0 0 1-.127-5.344c.371.27.8.532 1.206.781l4.87 2.995c.407.25.829.51 1.215.696.198.095.417.187.656.26v6.846a21 21 0 0 1-.874-.49l-2.8-1.624c-2.316-1.342-3.297-1.91-3.837-2.972-.192-.377-.265-.732-.309-1.148M18 22a1 1 0 0 1-1-1v-2h-2a1 1 0 1 1 0-2h2v-2a1 1 0 1 1 2 0v2h2a1 1 0 1 1 0 2h-2v2a1 1 0 0 1-1 1"/></svg>