<svg xmlns="http://www.w3.org/2000/svg" viewBox="0 0 16 16"><path d="M9.08 1.375c.07-.451-.31-.893-.772-.874a.76.76 0 0 0-.71.643l-.161 1.033-4.074-.64a.75.75 0 1 0-.233 1.482l9.629 1.514a.75.75 0 0 0 .233-1.482l-4.073-.64z"/><path fill-rule="evenodd" d="M2.541 9q.026.5.062.94c.117 1.4.175 2.1 1.037 2.963s1.546.921 2.914 1.037c.457.038.942.062 1.445.062s.99-.024 1.446-.062c1.368-.116 2.053-.174 2.915-1.037s.92-1.563 1.037-2.963q.036-.441.062-.94h.791a.75.75 0 0 0 0-1.5h-.75v-.165c0-.466 0-.7-.058-.89a1.33 1.33 0 0 0-.887-.887c-.19-.058-.423-.058-.889-.058H4.334c-.466 0-.7 0-.889.058-.425.13-.758.462-.887.887-.058.19-.058.424-.058.89V7.5h-.75a.75.75 0 0 0 0 1.5zm1.557.816a30 30 0 0 1-.097-2.814C4.082 7 4.187 7 4.334 7h7.332c.147 0 .252 0 .333.002l.001.333c0 .948-.04 1.775-.098 2.48-.063.75-.099 1.101-.181 1.378-.058.193-.146.373-.423.65-.28.281-.459.368-.642.424-.266.08-.603.116-1.337.178-.42.035-.863.057-1.32.057-.456 0-.9-.022-1.319-.057-.733-.062-1.07-.097-1.336-.178-.183-.056-.362-.143-.642-.424-.277-.277-.365-.457-.423-.65-.082-.276-.118-.627-.18-1.377"/></svg>