<svg xmlns="http://www.w3.org/2000/svg" viewBox="0 0 24 24"><path fill-rule="evenodd" d="M13.337 18H9.664a3.5 3.5 0 0 1-6.407-.181c-.945-1.102-1.025-2.008-1.17-3.748a25 25 0 0 1 0-4.141c.162-1.94.243-2.91 1.532-4.205 1.29-1.293 2.302-1.381 4.326-1.557A47 47 0 0 1 11.847 4H12q.026 0 .05.007c1.39.07 2.42.674 3.077 1.608q.132.19.241.389c1.006 0 2.107.044 3.09.422 1.067.41 1.932 1.183 2.487 2.485q.016.037.028.074c.33.794.543 1.59.68 2.415.421 2.517.631 3.776-.397 5.392-.524.823-1.103 1.316-1.873 1.694A3.5 3.5 0 0 1 13.338 18M11.836 6c.886.016 1.362.35 1.655.766.337.48.51 1.19.51 1.997v5.287a3.5 3.5 0 0 0-.965 1.95H9.965a3.5 3.5 0 0 0-5.88-2.033l-.005-.063a23 23 0 0 1 0-3.808c.087-1.037.137-1.522.26-1.916.09-.288.238-.583.696-1.043.447-.449.748-.602 1.06-.698.42-.13.944-.185 2.022-.279A45 45 0 0 1 11.836 6M16 13.036q.245-.035.5-.035a3.5 3.5 0 0 1 3.294 2.315c.32-.687.255-1.383-.113-3.586a8.8 8.8 0 0 0-.661-2.22c-.336-.687-.771-1.021-1.278-1.216-.482-.185-1.063-.257-1.78-.28q.04.383.038.75zM6.5 18a1.5 1.5 0 1 0 0-3 1.5 1.5 0 0 0 0 3M18 16.5a1.5 1.5 0 1 1-3 0 1.5 1.5 0 0 1 3 0"/></svg>