<svg xmlns="http://www.w3.org/2000/svg" viewBox="0 0 16 16"><path fill-rule="evenodd" d="M8.708 13H6.292a2.5 2.5 0 0 1-4.43.297c-.364-.521-.722-1.07-.797-2-.038-.47-.061-2.973-.061-3.5 0-.526.023-1.029.06-1.499.114-1.405.17-2.108 1.073-3.045s1.61-1 3.026-1.128c.787-.07 1.706-.119 2.756-.12L7.988 2c1.087 0 1.889.441 2.389 1.152.28.4.447.856.536 1.314.532.022 1.084.088 1.593.288.75.293 1.35.845 1.751 1.762l.018.045c.24.567.393 1.135.491 1.724.143.853.242 1.499.234 2.067a3.06 3.06 0 0 1-.512 1.709c-.37.58-.78.927-1.325 1.193A2.499 2.499 0 0 1 8.708 13m4.73-3.5h-2.44V5.974c.383.023.696.074.962.178.34.133.644.369.89.893.215.482.35.968.437 1.488.064.384.114.7.15.967M12 12a1 1 0 1 1-2 0 1 1 0 0 1 2 0m-7 0a1 1 0 1 1-2 0 1 1 0 0 1 2 0"/></svg>