<svg xmlns="http://www.w3.org/2000/svg" viewBox="0 0 24 24"><path d="M13.857 11.53a.266.266 0 0 1-.266-.252A1.263 1.263 0 0 0 12.265 9.9a.266.266 0 0 1 .031-.531 1.775 1.775 0 0 1 1.826 1.895.265.265 0 0 1-.253.278z"/><path d="M15.114 11.96a.3.3 0 0 0 .1.023.26.26 0 0 0 .26-.284 3.58 3.58 0 0 0-.916-2.577 3.83 3.83 0 0 0-2.653-1.169.266.266 0 1 0-.038.524 3.3 3.3 0 0 1 2.299 1.005 3.05 3.05 0 0 1 .79 2.23.26.26 0 0 0 .158.248"/><path d="M16.597 12.528a.265.265 0 0 1-.265-.265 5.05 5.05 0 0 0-1.421-3.79 4.86 4.86 0 0 0-3.5-1.383.266.266 0 0 1 0-.53 5.4 5.4 0 0 1 3.866 1.534 5.6 5.6 0 0 1 1.58 4.144.265.265 0 0 1-.266.265zm-4.087 1.677a.6.6 0 0 1-.253.037 4.2 4.2 0 0 1-2.826-2.836.6.6 0 0 1 .176-.473l.406-.317a.71.71 0 0 0 .124-.893l-.08-.133c-.126-.208-.296-.49-.44-.667-.176-.218-.591-.738-.591-.738a.613.613 0 0 0-.806-.13 3.4 3.4 0 0 0-.732.795 1.3 1.3 0 0 0-.327.675.5.5 0 0 0 0 .099q0 .15.047.29c.22.649.507 1.272.857 1.86q.454.823 1.039 1.559.293.37.623.706h.026q.332.332.701.624.735.586 1.558 1.038c.59.35 1.213.639 1.86.863a.9.9 0 0 0 .286.041.3.3 0 0 0 .098 0c.254-.04.49-.154.68-.327.264-.237.489-.514.666-.82a.607.607 0 0 0-.13-.8c0-.006-.494-.416-.738-.598a9 9 0 0 0-.8-.52.696.696 0 0 0-.888.12l-.322.405a.6.6 0 0 1-.214.14"/><path fill-rule="evenodd" d="M.107 9.23c.26-3.486.39-5.23 2.14-6.981S5.742.368 9.23.108A38 38 0 0 1 12 0c.932 0 1.865.04 2.77.108 3.487.26 5.231.39 6.982 2.14 1.75 1.75 1.88 3.495 2.14 6.983.067.904.108 1.837.108 2.77 0 .932-.04 1.865-.108 2.77-.26 3.487-.39 5.231-2.14 6.982-1.75 1.75-3.495 1.88-6.983 2.14-.904.067-1.837.108-2.77.108-.932 0-1.865-.04-2.77-.108-3.487-.26-5.231-.39-6.982-2.14-1.75-1.75-1.88-3.495-2.14-6.983A38 38 0 0 1 0 12c0-.932.04-1.865.108-2.77m12.188-4.416c3.442.014 4.99 1.137 5.371 1.49 1.267 1.1 1.97 3.542 1.482 7.404-.42 3.41-2.793 4.016-3.594 4.22q-.12.03-.19.052a13.9 13.9 0 0 1-4.584.335c-.27.317-.633.732-.894 1.016q-.122.131-.23.255c-.356.402-.628.71-1.042.579-.391-.126-.391-.755-.391-.755v-1.551c-3.61-1.016-3.56-4.762-3.518-6.76s.429-3.61 1.533-4.715c1.994-1.817 6.056-1.57 6.056-1.57"/></svg>