<svg xmlns="http://www.w3.org/2000/svg" viewBox="0 0 16 16"><path d="M9.27 7.606a.18.18 0 0 1-.18-.173.865.865 0 0 0-.909-.942.182.182 0 1 1 .022-.363 1.215 1.215 0 0 1 1.25 1.297.18.18 0 0 1-.174.19z"/><path d="M10.131 7.9q.034.013.07.015a.177.177 0 0 0 .177-.195 2.45 2.45 0 0 0-.627-1.764 2.63 2.63 0 0 0-1.816-.8.182.182 0 1 0-.026.36c.595.011 1.16.259 1.574.687a2.08 2.08 0 0 1 .54 1.526.18.18 0 0 0 .108.17"/><path d="M11.147 8.288a.18.18 0 0 1-.182-.182 3.46 3.46 0 0 0-.973-2.594 3.33 3.33 0 0 0-2.395-.947.182.182 0 1 1 0-.363 3.7 3.7 0 0 1 2.646 1.05 3.84 3.84 0 0 1 1.081 2.837.18.18 0 0 1-.181.181zM8.349 9.436a.4.4 0 0 1-.174.025 2.88 2.88 0 0 1-1.934-1.942.41.41 0 0 1 .121-.323l.277-.217a.49.49 0 0 0 .086-.612l-.055-.09a5 5 0 0 0-.3-.457c-.122-.15-.406-.505-.406-.505a.42.42 0 0 0-.551-.089 2.3 2.3 0 0 0-.502.544.9.9 0 0 0-.224.462.4.4 0 0 0 0 .068q0 .102.032.199.227.667.587 1.273.311.563.711 1.067.2.253.427.483h.018q.227.228.48.427.502.401 1.066.711.607.36 1.273.59.097.03.196.029a.2.2 0 0 0 .067 0 .9.9 0 0 0 .466-.224 2.3 2.3 0 0 0 .455-.562.416.416 0 0 0-.088-.548c0-.003-.338-.284-.505-.409a6 6 0 0 0-.548-.355.476.476 0 0 0-.608.082l-.22.277a.4.4 0 0 1-.147.096"/><path fill-rule="evenodd" d="M.071 6.154c.173-2.326.26-3.488 1.427-4.655S3.828.245 6.153.072A25 25 0 0 1 7.999 0c.622 0 1.244.027 1.847.072C12.17.245 13.334.332 14.5 1.5s1.254 2.33 1.427 4.655C15.972 6.757 16 7.379 16 8c0 .622-.027 1.244-.072 1.847-.173 2.325-.26 3.488-1.427 4.655s-2.33 1.253-4.655 1.427c-.603.044-1.225.072-1.847.072s-1.243-.028-1.846-.072c-2.326-.174-3.488-.26-4.655-1.427S.244 12.172.07 9.847A25 25 0 0 1 0 8c0-.622.027-1.243.072-1.846m8.13-3.146c2.357.01 3.416.778 3.678 1.02.867.753 1.349 2.424 1.014 5.068-.288 2.335-1.912 2.75-2.46 2.889l-.13.035a9.5 9.5 0 0 1-3.138.23c-.185.217-.434.5-.612.695q-.083.09-.158.175c-.243.275-.43.486-.713.396-.268-.086-.268-.517-.268-.517v-1.062c-2.471-.695-2.436-3.26-2.408-4.627.03-1.368.294-2.472 1.05-3.228C5.42 2.84 8.202 3.008 8.202 3.008"/></svg>