<svg xmlns="http://www.w3.org/2000/svg" viewBox="0 0 32 32"><path fill-rule="evenodd" d="m6.903 5.555-5.035 6.518a1.8 1.8 0 0 0-.368 1.122c.006.46.179.914.526 1.258l3.178 3.143a1.343 1.343 0 0 0 1.96-.077c.246-.284.529-.608.836-.957v7.464c0 1.848 1.27 3.444 3.104 3.67 1.333.165 3.018.304 4.895.304s3.562-.14 4.896-.304C22.73 27.47 24 25.874 24 24.026v-7.46c.305.347.585.67.83.951a1.346 1.346 0 0 0 1.96.079l3.178-3.144a1.796 1.796 0 0 0 .16-2.379l-5.026-6.516A4 4 0 0 0 21.943 4h-.457c-.41.903-1.019 1.765-1.995 2.3-.935.512-2.09.7-3.49.7-1.402 0-2.557-.188-3.49-.7-.977-.535-1.586-1.397-1.997-2.3h-.457a4 4 0 0 0-3.154 1.555m1.979 1.528a1.5 1.5 0 0 1 .369-.34c.52.65 1.138 1.21 1.895 1.653C12.45 9.159 14.044 9.5 16 9.5c1.957 0 3.55-.341 4.855-1.104A6.8 6.8 0 0 0 22.75 6.74a1.5 1.5 0 0 1 .372.343l4.648 6.026-1.861 1.841-2.183-2.482A1.25 1.25 0 0 0 22.75 12c-.69 0-1.25.571-1.25 1.262v10.764c0 .725-.464 1.134-.91 1.189a38 38 0 0 1-4.591.285c-1.756 0-3.337-.13-4.59-.285-.446-.055-.91-.463-.91-1.19v-10.76A1.26 1.26 0 0 0 9.25 12c-.363 0-.69.155-.92.403l-2.244 2.55-1.861-1.842z"/></svg>