<svg xmlns="http://www.w3.org/2000/svg" viewBox="0 0 44 44"><path fill-rule="evenodd" d="m9.492 8.054-6.985 8.69a2.3 2.3 0 0 0 .148 3.048l4.557 4.664a1.854 1.854 0 0 0 2.668-.028c.33-.351.71-.75 1.12-1.18v9.29c0 2.548 1.756 4.747 4.286 5.053 1.83.221 4.14.409 6.712.409a56 56 0 0 0 6.715-.41c2.53-.305 4.287-2.504 4.287-5.053v-9.282c.406.426.782.823 1.11 1.171.5.532 1.239.702 1.89.504.285-.087.554-.245.779-.475l4.566-4.664a2.296 2.296 0 0 0 .148-3.047l-6.978-8.686C33.488 6.778 31.81 6 30.171 6h-1.317c-.495.834-1.149 1.562-2.082 2.1-1.253.722-2.825.995-4.772.995s-3.52-.273-4.772-.995c-.934-.538-1.588-1.266-2.083-2.1h-1.317c-1.638 0-3.309.776-4.336 2.054m5.83 2.421a9 9 0 0 1-1.85-1.456 2.5 2.5 0 0 0-1.642.915l-6.596 8.205 3.286 3.363 2.803-2.933c.275-.347.7-.569 1.176-.569.829 0 1.5.688 1.5 1.516v13.022c0 1.196.783 1.97 1.647 2.075 1.735.21 3.922.387 6.352.387s4.619-.177 6.355-.387c.864-.105 1.647-.88 1.647-2.076V19.53c0-.83.671-1.53 1.5-1.53.486 0 .918.231 1.192.59l2.78 2.91 3.293-3.362-6.59-8.203a2.5 2.5 0 0 0-1.647-.917 9 9 0 0 1-1.85 1.457c-1.77 1.048-3.952 1.523-6.679 1.523-2.726 0-4.909-.475-6.678-1.523"/></svg>