<svg xmlns="http://www.w3.org/2000/svg" viewBox="0 0 32 32"><path d="m6.903 5.555-5.035 6.518c-.26.336-.375.737-.368 1.135.01.454.182.904.527 1.245l1.972 1.951a1.345 1.345 0 0 0 1.942-.055 148 148 0 0 1 2.09-2.259 66 66 0 0 0-.03 2.098v7.838c0 1.848 1.27 3.444 3.103 3.67 1.334.165 3.018.304 4.895.304 1.878 0 3.563-.14 4.896-.304C22.73 27.47 24 25.874 24 24.026v-7.838c0-.772-.011-1.467-.031-2.095a148 148 0 0 1 2.084 2.255 1.345 1.345 0 0 0 1.943.056l1.972-1.952a1.796 1.796 0 0 0 .16-2.379l-5.026-6.516A4 4 0 0 0 21.944 4h-.458c-.41.903-1.019 1.765-1.995 2.3-.935.512-2.09.7-3.49.7-1.402 0-2.557-.188-3.49-.7-.977-.535-1.586-1.397-1.997-2.3h-.457a4 4 0 0 0-3.154 1.555"/></svg>