<svg xmlns="http://www.w3.org/2000/svg" viewBox="0 0 24 24"><path d="M5.177 4.166 1.21 9.304a1 1 0 0 0 .084 1.318l1.645 1.646c.4.4 1.052.39 1.443-.02a110 110 0 0 1 1.637-1.682A52 52 0 0 0 6 12v6.022c0 1.397.967 2.6 2.355 2.763.995.117 2.249.215 3.644.215s2.65-.098 3.646-.215C17.032 20.622 18 19.419 18 18.022V12q0-.78-.019-1.431c.612.615 1.2 1.224 1.633 1.679.39.41 1.043.42 1.443.02l1.646-1.647a1 1 0 0 0 .084-1.317l-3.96-5.136A3 3 0 0 0 16.456 3h-.455c-.29.551-.69 1.05-1.298 1.41-.723.429-1.62.59-2.704.59s-1.98-.161-2.704-.59C8.687 4.05 8.288 3.55 7.998 3h-.455c-.928 0-1.802.436-2.366 1.166"/></svg>