<svg xmlns="http://www.w3.org/2000/svg" viewBox="0 0 16 16"><path d="M3.452 2.732.668 6.126a.73.73 0 0 0 .077 1.007L1.935 8.2a.67.67 0 0 0 .904-.007c.305-.28.72-.67 1.161-1.058v4.879c0 .927.64 1.727 1.56 1.838.665.08 1.504.148 2.44.148s1.775-.068 2.44-.148c.921-.111 1.56-.912 1.56-1.838V7.133v.001c.443.389.857.778 1.162 1.06a.67.67 0 0 0 .904.006l1.19-1.067a.73.73 0 0 0 .077-1.007l-2.785-3.394A2.05 2.05 0 0 0 10.972 2h-.317c-.19.422-.464.819-.917 1.099C9.26 3.394 8.678 3.5 8 3.5s-1.26-.106-1.737-.401c-.453-.28-.727-.677-.917-1.099H5.03c-.595 0-1.19.261-1.577.732"/></svg>