<svg xmlns="http://www.w3.org/2000/svg" viewBox="0 0 28 28"><path d="M21.166 3.757c1.243 1.26 1.348 2.303 1.56 4.389.158 1.56.274 3.483.274 5.767a141 141 0 0 1-.06 4.062c-.102 3.552-.154 5.329-1.283 6.668-1.197 1.422-2.829 1.783-4.39.626l-.296-.22c-1.432-1.06-2.148-1.591-2.971-1.591s-1.54.53-2.971 1.592l-.296.219c-1.611 1.194-3.119.883-4.39-.626-1.13-1.34-1.18-3.116-1.283-6.668C5.023 16.71 5 15.346 5 13.913c0-2.284.116-4.208.274-5.767.212-2.086.317-3.13 1.56-4.389s2.228-1.369 4.196-1.59A27 27 0 0 1 14 2c1.063 0 2.062.066 2.97.168 1.968.22 2.952.33 4.196 1.59"/></svg>