<svg xmlns="http://www.w3.org/2000/svg" viewBox="0 0 32 32"><path d="M6.159 20.82A75 75 0 0 1 6 15.968c0-1.986.083-3.721.205-5.204.22-2.657.33-3.985 2.014-5.679 1.685-1.694 2.925-1.792 5.404-1.99a30 30 0 0 1 4.754 0c2.48.198 3.719.296 5.404 1.99 1.684 1.694 1.794 3.022 2.014 5.678.122 1.483.205 3.22.205 5.205 0 1.724-.062 3.356-.159 4.852-.216 3.352-.325 5.028-1.508 6.513-1.186 1.489-3.116 2.17-4.919 1.208-.248-.133-.33-.193-.495-.313-1.408-1.031-2.113-1.547-2.92-1.547s-1.51.516-2.918 1.547c-.164.12-.247.18-.495.313-1.847.985-3.723.294-4.92-1.208-1.182-1.485-1.29-3.161-1.507-6.513"/></svg>