<svg xmlns="http://www.w3.org/2000/svg" viewBox="0 0 24 24"><path fill-rule="evenodd" d="M4 11.98c0 1.053.016 2.062.042 3.01.071 2.627.107 3.941.8 5.075 1.018 1.666 2.601 2.582 4.29 1.401 1.387-.968 2.08-1.452 2.868-1.452s1.481.484 2.867 1.452c1.708 1.193 3.315.196 4.29-1.4.694-1.135.73-2.448.802-5.076.025-.948.041-1.957.041-3.01a47 47 0 0 0-.168-4.046c-.175-2.021-.263-3.032-1.557-4.319s-2.265-1.367-4.206-1.528a25 25 0 0 0-4.137 0c-1.942.161-2.913.242-4.207 1.528s-1.382 2.299-1.557 4.32c-.1 1.15-.168 2.5-.168 4.045m2 0c0 1.033.015 2.024.04 2.955.078 2.84.157 3.512.509 4.088.378.618.734.876.92.95.074.029.118.03.157.025.042-.006.162-.032.361-.171l.074-.052c.63-.44 1.23-.858 1.774-1.155.61-.332 1.317-.606 2.165-.606s1.555.274 2.165.606c.545.296 1.145.716 1.774 1.155l.074.052c.194.136.309.158.349.163a.33.33 0 0 0 .172-.03c.207-.085.563-.357.917-.937.352-.576.43-1.248.508-4.088.026-.93.041-1.922.041-2.956 0-1.487-.065-2.779-.16-3.872-.094-1.077-.149-1.598-.278-2.018-.096-.31-.249-.609-.698-1.055-.459-.457-.755-.605-1.043-.695-.394-.123-.88-.173-1.918-.26a23 23 0 0 0-3.806 0c-1.037.087-1.523.137-1.918.26-.289.09-.584.238-1.043.695-.45.446-.602.745-.698 1.055-.13.42-.184.941-.278 2.018A45 45 0 0 0 6 11.98"/></svg>