<svg xmlns="http://www.w3.org/2000/svg" viewBox="0 0 28 28"><path d="M12.6 15.5a1.1 1.1 0 0 0-2.2 0v4a1.1 1.1 0 0 0 2.2 0zm3.9-1.1a1.1 1.1 0 0 1 1.1 1.1v4a1.1 1.1 0 0 1-2.2 0v-4a1.1 1.1 0 0 1 1.1-1.1"/><path fill-rule="evenodd" d="M10.858 6.517a1 1 0 0 0-1.716-1.03L6.583 9.754a1 1 0 0 0-.106.247H3a1 1 0 1 0 0 2h.062c-.04.658-.063 1.33-.063 2 0 .855.038 1.71.1 2.539.237 3.197.356 4.796 1.961 6.4s3.203 1.724 6.4 1.962c.83.062 1.685.1 2.54.1s1.71-.038 2.538-.1c3.198-.238 4.797-.357 6.401-1.961s1.724-3.204 1.962-6.401c.062-.83.099-1.684.099-2.54 0-.67-.023-1.34-.063-1.999H25a1 1 0 1 0 0-2h-3.477a1 1 0 0 0-.106-.247l-2.56-4.265a1 1 0 0 0-1.715 1.029L19.232 10H8.768zM5.16 12h17.677c.042.662.067 1.334.067 2 0 .795-.035 1.597-.094 2.383-.248 3.338-.384 4.106-1.353 5.075-.97.97-1.737 1.105-5.075 1.354-.786.058-1.588.093-2.383.093s-1.598-.035-2.384-.093c-3.338-.249-4.105-.385-5.074-1.354-.97-.97-1.106-1.737-1.354-5.075A32 32 0 0 1 5.095 14c0-.666.024-1.338.066-2"/></svg>