<svg xmlns="http://www.w3.org/2000/svg" viewBox="0 0 24 24"><path fill-rule="evenodd" d="M9.515 4.143a1 1 0 0 1 .343 1.372L8.366 8h7.268l-1.491-2.485a1 1 0 1 1 1.714-1.03L17.968 8H21a1 1 0 0 1 0 2h-.076c.047.654.076 1.327.076 2 0 .7-.03 1.399-.081 2.077-.195 2.616-.292 3.924-1.605 5.237s-2.621 1.41-5.237 1.605c-.678.05-1.378.081-2.077.081s-1.4-.03-2.077-.081c-2.616-.195-3.924-.292-5.237-1.605s-1.41-2.62-1.605-5.237A28 28 0 0 1 3 12c0-.673.028-1.346.075-2H3a1 1 0 0 1 0-2h3.034l2.109-3.514a1 1 0 0 1 1.372-.343M10.9 13a.9.9 0 1 0-1.8 0v3a.9.9 0 1 0 1.8 0zm3.1-.9a.9.9 0 0 1 .9.9v3a.9.9 0 1 1-1.8 0v-3a.9.9 0 0 1 .9-.9"/></svg>