<svg xmlns="http://www.w3.org/2000/svg" viewBox="0 0 32 32"><path fill-rule="evenodd" d="M12.393 5.679a1.25 1.25 0 0 1 .429 1.715L10.658 11h10.684l-2.164-3.607a1.25 1.25 0 1 1 2.144-1.286L24.258 11h3.492a1.25 1.25 0 0 1 .16 2.49c.056.822.09 1.666.09 2.51 0 .933-.041 1.865-.108 2.77-.26 3.488-.39 5.232-2.14 6.982s-3.495 1.88-6.983 2.14c-.904.067-1.837.108-2.77.108-.932 0-1.865-.04-2.769-.108-3.488-.26-5.232-.39-6.982-2.14s-1.88-3.494-2.14-6.982A38 38 0 0 1 4 16c0-.844.033-1.687.09-2.51A1.25 1.25 0 0 1 4.25 11h3.492l2.936-4.893a1.25 1.25 0 0 1 1.715-.428m2.19 11.654a1.25 1.25 0 0 0-2.5 0v4a1.25 1.25 0 1 0 2.5 0zm4.084-1.25c.69 0 1.25.56 1.25 1.25v4a1.25 1.25 0 1 1-2.5 0v-4c0-.69.56-1.25 1.25-1.25"/></svg>