<svg xmlns="http://www.w3.org/2000/svg" viewBox="0 0 16 16"><path fill-rule="evenodd" d="M13.477 6.304a3.4 3.4 0 0 0-.332-.804h.105a.75.75 0 0 0 .75-.75c0-.484-.087-.964-.258-1.414a3.8 3.8 0 0 0-.745-1.214 3.5 3.5 0 0 0-1.136-.827 3.3 3.3 0 0 0-2.722 0 3.5 3.5 0 0 0-1.136.827l-.004.004-.004-.004a3.5 3.5 0 0 0-1.136-.827 3.3 3.3 0 0 0-2.722 0 3.5 3.5 0 0 0-1.136.827 3.8 3.8 0 0 0-.745 1.214c-.17.45-.258.93-.258 1.414a.75.75 0 0 0 .75.75h.105a3.43 3.43 0 0 0-.422 2.136c.058.445.204.875.428 1.264a.75.75 0 0 0 1.025.274l1.923-1.11c-.333 1.667-.66 3.653-.769 5.435l-.003.051q-.62.023-1.103.05c-.805.043-1.208.065-1.561.425-.282.287-.346.551-.371.975h12c-.025-.424-.09-.688-.371-.975-.353-.36-.756-.382-1.561-.425a66 66 0 0 0-1.795-.071l-.005-.03A18.5 18.5 0 0 1 10 10.333q-.001-1.355-.017-2.389l2.131 1.23A.75.75 0 0 0 13.14 8.9a3.4 3.4 0 0 0 .338-2.596M6.54 13.499c.14-2.152.614-4.647 1.01-6.442L8 6.798l.468.27c.019.862.033 1.945.033 3.265 0 1.18.1 2.242.247 3.166zM5.498 2.5a1.8 1.8 0 0 0-.743.162c-.239.107-.46.267-.649.473A2.3 2.3 0 0 0 3.613 4h1.13a.75.75 0 0 1 .305 1.435 1.94 1.94 0 0 0-1.079 1.26 1.9 1.9 0 0 0-.052.728l3.707-2.14a.75.75 0 0 1 .75 0l3.707 2.14a1.92 1.92 0 0 0-.386-1.401 1.94 1.94 0 0 0-.745-.587A.75.75 0 0 1 11.256 4h1.13a2.3 2.3 0 0 0-.494-.865 2 2 0 0 0-.649-.473 1.8 1.8 0 0 0-1.487 0 2 2 0 0 0-.648.473q-.142.157-.255.34a.75.75 0 0 1-.64.359h-.428a.75.75 0 0 1-.64-.358 2.2 2.2 0 0 0-.255-.34 2 2 0 0 0-.648-.474 1.8 1.8 0 0 0-.744-.162"/></svg>