<svg xmlns="http://www.w3.org/2000/svg" viewBox="0 0 24 24"><path fill-rule="evenodd" d="M12 13a6 6 0 0 0-2-4.472V3.5a1.3 1.3 0 0 0-.129-.525 1.46 1.46 0 0 0-.504-.557C8.94 2.133 8.33 2 7.5 2s-1.439.133-1.867.418a1.46 1.46 0 0 0-.504.557A1.3 1.3 0 0 0 5 3.5v5.028A6 6 0 0 0 3 13v6a2 2 0 0 0 2 2h5a2 2 0 0 0 2-2zM8.5 4v2h-2V4z"/><path d="M16 16a9 9 0 0 1-2-1.352V13a8 8 0 0 0-1.549-4.731c.158-.461.273-.718.634-.978C13.489 7 13.899 7 14.719 7h4.561c.82 0 1.23 0 1.634.29.404.291.5.579.692 1.153.345 1.03.394 2.015.394 2.529 0 .847-.216 1.76-1.586 3.262-.757.832-1.712 1.41-2.414 1.766v3h1a1 1 0 1 1 0 2h-4a1 1 0 1 1 0-2h1z"/></svg>