<svg xmlns="http://www.w3.org/2000/svg" viewBox="0 0 16 16"><path fill-rule="evenodd" d="M7 5.707V2.088c0-.42-.345-.696-.696-.852-.302-.134-.722-.231-1.305-.231-.582 0-1.002.097-1.304.231-.35.156-.695.432-.695.852v3.619c-.643.751-1 1.71-1 2.707v4.17C2 13.365 2.634 14 3.417 14h3.166C7.366 14 8 13.366 8 12.583v-4.17c0-.995-.357-1.955-1-2.706M4.3 2.5h1.4V4H4.3z"/><path d="M9.75 14a.75.75 0 0 1-.514-.203c.17-.37.264-.78.264-1.214v-.04a.8.8 0 0 1 .25-.043h.75v-1.999a6 6 0 0 1-1-.667v-1.42a5.66 5.66 0 0 0-1-3.214c0-.18.05-.365.191-.476l.041-.03c.27-.194.542-.194 1.088-.194h2.86c.546 0 .82 0 1.088.193s.333.385.463.767c.238.706.27 1.386.27 1.738 0 .566-.14 1.177-1.03 2.183-.459.517-1.027.892-1.472 1.133V12.5h.751a.75.75 0 0 1 0 1.5z"/></svg>