<svg xmlns="http://www.w3.org/2000/svg" viewBox="0 0 24 24"><path d="M3.516 10.584a2 2 0 0 1 .072-2.754L7.83 3.588a2 2 0 0 1 2.754-.072zm9.9 9.899 7.067-7.067a2 2 0 0 1-.07 2.754l-4.243 4.243a2 2 0 0 1-2.754.07"/><path fill-rule="evenodd" d="M20.408 10.662a2 2 0 0 0 0-2.828L18.994 6.42l-2.287 2.287a1 1 0 1 1-1.414-1.414l2.287-2.287-1.414-1.415a2 2 0 0 0-2.829 0l-9.746 9.747a2 2 0 0 0 0 2.828l1.414 1.415 2.288-2.288a1 1 0 1 1 1.414 1.414L6.42 18.995l1.414 1.414a2 2 0 0 0 2.829 0zm-6.7-.37a1 1 0 0 1 0 1.415l-2 2a1 1 0 0 1-1.415-1.414l2-2a1 1 0 0 1 1.414 0"/></svg>