<svg xmlns="http://www.w3.org/2000/svg" viewBox="0 0 32 32"><path d="M18.133 15.634a1.25 1.25 0 0 0-1.767-1.767l-2.502 2.501a1.25 1.25 0 1 0 1.768 1.768z"/><path fill-rule="evenodd" d="M4.731 13.924a2.5 2.5 0 0 1 0-3.536l5.657-5.657a2.5 2.5 0 0 1 3.536 0L16 6.808l2.072-2.072a2.5 2.5 0 0 1 3.535 0l5.657 5.657a2.5 2.5 0 0 1 0 3.536L25.192 16l2.076 2.076a2.5 2.5 0 0 1 0 3.536l-5.656 5.657a2.5 2.5 0 0 1-3.536 0L16 25.191l-2.071 2.071a2.5 2.5 0 0 1-3.536 0l-5.656-5.656a2.5 2.5 0 0 1 0-3.536L6.807 16zm3.844.308 5.657-5.657L12.156 6.5l-5.657 5.657zm9.193 9.193 2.076 2.076 5.657-5.657-2.076-2.076zm7.728-11.264L12.161 25.496l-1.944-1.945 1.417-1.417a1.25 1.25 0 0 0-1.767-1.768l-1.418 1.417-1.945-1.944L19.84 6.504l1.945 1.945-1.417 1.417a1.25 1.25 0 0 0 1.767 1.767l1.418-1.417z"/></svg>