<svg xmlns="http://www.w3.org/2000/svg" viewBox="0 0 44 44"><path d="m24.128 35.912 11.789-11.79 1.209 1.21a3 3 0 0 1 0 4.244L29.58 37.12a3 3 0 0 1-4.244 0zM8.094 19.879l-1.21-1.21a3 3 0 0 1 0-4.245l7.545-7.545a3 3 0 0 1 4.244 0l1.21 1.21z"/><path fill-rule="evenodd" d="M37.12 14.431a3 3 0 0 1 0 4.244L18.683 37.114a3 3 0 0 1-4.244 0l-2.712-2.712 4.338-4.339a1.5 1.5 0 1 0-2.122-2.122L9.604 32.28l-2.712-2.711a3 3 0 0 1 0-4.244l18.44-18.44a3 3 0 0 1 4.243 0l2.712 2.712-4.34 4.34a1.5 1.5 0 0 0 2.122 2.122l4.34-4.34zm-12.553 7.13a1.5 1.5 0 1 0-2.122-2.123l-3 3.002a1.5 1.5 0 0 0 2.121 2.122z"/></svg>