<svg xmlns="http://www.w3.org/2000/svg" viewBox="0 0 44 44"><path fill-rule="evenodd" d="M6.801 15.615c-1.735 1.144-1.735 3.702.001 4.846l1.414.931a51 51 0 0 0 3.865 2.31c.039 1.26.152 2.499.291 3.614.258 2.067.387 3.1 1.412 4.337s1.885 1.51 3.605 2.056c1.395.443 3.003.791 4.611.791s3.216-.348 4.611-.791c1.72-.546 2.58-.82 3.605-2.056s1.154-2.27 1.412-4.337c.14-1.115.252-2.353.291-3.615a51 51 0 0 0 3.592-2.13v3.462c0 .827.667 1.498 1.49 1.498s1.49-.67 1.49-1.498V18.27c.079-1-.352-2.035-1.292-2.655l-1.403-.925a51.3 51.3 0 0 0-9.201-4.806 12.4 12.4 0 0 0-9.19 0 51.3 51.3 0 0 0-9.2 4.807zm8.528 11.327a40 40 0 0 1-.177-1.714q1.107.505 2.238.958a12.4 12.4 0 0 0 9.22 0q1.131-.453 2.238-.958a40 40 0 0 1-.177 1.714c-.139 1.11-.21 1.625-.325 2.023-.077.27-.169.467-.42.77-.287.346-.456.457-.624.544-.282.147-.654.275-1.588.572-1.219.387-2.51.652-3.714.652s-2.495-.265-3.714-.652c-.934-.297-1.306-.425-1.588-.572-.168-.087-.337-.198-.625-.545-.25-.302-.342-.5-.42-.769-.113-.398-.185-.913-.324-2.023m20.108-8.904-1.275-.84a48.3 48.3 0 0 0-8.667-4.529 9.42 9.42 0 0 0-6.99 0 48.3 48.3 0 0 0-8.667 4.528l-1.275.84 1.286.848a48.4 48.4 0 0 0 8.642 4.516 9.44 9.44 0 0 0 7.018 0 48.4 48.4 0 0 0 8.642-4.516z"/></svg>