<svg xmlns="http://www.w3.org/2000/svg" viewBox="0 0 24 24"><path fill-rule="evenodd" d="M14.662 4.989a33.5 33.5 0 0 1 5.516 2.7l.484.294a1.72 1.72 0 0 1 .838 1.48v3.992c0 .55-.452.998-1.009.998a1.003 1.003 0 0 1-1.008-.998V11.65q-.71.41-1.438.782a22 22 0 0 1-.22 2.531c-.153 1.08-.23 1.62-.755 2.265-.524.644-.981.81-1.895 1.143-.927.338-2.052.629-3.176.629s-2.248-.29-3.176-.629c-.914-.333-1.37-.5-1.895-1.143-.525-.645-.602-1.185-.754-2.265a22 22 0 0 1-.221-2.53 34 34 0 0 1-2.131-1.194l-.486-.295a1.728 1.728 0 0 1 0-2.96l.484-.295a33.5 33.5 0 0 1 5.516-2.7 7.5 7.5 0 0 1 5.326 0m-6.636 8.419c.037.443.088.875.145 1.279.083.587.122.83.176 1.01a.7.7 0 0 0 .151.278c.116.142.169.173.221.202.124.07.298.139.801.322.807.294 1.682.506 2.48.506.796 0 1.671-.212 2.478-.506.503-.183.677-.253.801-.322.053-.03.106-.06.221-.202a.7.7 0 0 0 .151-.277c.054-.18.093-.424.176-1.011.057-.404.108-.836.145-1.28q-.648.28-1.308.53a7.5 7.5 0 0 1-5.33 0q-.66-.25-1.308-.53M19.12 9.54l.126-.076-.124-.076a31.5 31.5 0 0 0-5.183-2.536 5.46 5.46 0 0 0-3.878 0 31.5 31.5 0 0 0-5.183 2.536l-.123.076.125.076a31.5 31.5 0 0 0 5.18 2.535 5.46 5.46 0 0 0 3.881 0 31.5 31.5 0 0 0 5.18-2.535"/></svg>