<svg xmlns="http://www.w3.org/2000/svg" viewBox="0 0 16 16"><path fill-rule="evenodd" d="m13.052 4.925.856.53c.43.267.627.726.587 1.168v2.384c0 .413-.34.748-.761.748a.755.755 0 0 1-.761-.748v-.861a21 21 0 0 1-2.787 1.434 5.62 5.62 0 0 1-4.372 0 21 21 0 0 1-2.867-1.484l-.855-.53a1.237 1.237 0 0 1 0-2.11l.856-.531a21 21 0 0 1 2.864-1.482 5.62 5.62 0 0 1 4.376 0c.992.42 1.95.915 2.864 1.482M4 9.706q.03.313.069.604c.105.793.158 1.19.552 1.642.395.451.746.552 1.45.752.58.164 1.254.296 1.928.296s1.348-.132 1.928-.296c.704-.2 1.055-.3 1.45-.752s.447-.85.552-1.642q.04-.29.07-.604-.885.48-1.814.872a5.62 5.62 0 0 1-4.372 0A21 21 0 0 1 4 9.706"/></svg>