<svg xmlns="http://www.w3.org/2000/svg" viewBox="0 0 44 44"><path fill-rule="evenodd" d="m35.796 14.69 1.403.925c.94.62 1.37 1.655 1.292 2.655v6.763c0 .827-.667 1.498-1.49 1.498s-1.49-.67-1.49-1.498V21.57a51.4 51.4 0 0 1-8.9 4.615 12.4 12.4 0 0 1-9.221 0 51.4 51.4 0 0 1-9.174-4.794l-1.414-.931c-1.736-1.143-1.736-3.702 0-4.846l1.402-.925a51.3 51.3 0 0 1 9.202-4.806 12.4 12.4 0 0 1 9.189 0 51.3 51.3 0 0 1 9.2 4.807m-23.55 11.494q.057.583.126 1.132c.258 2.067.387 3.1 1.412 4.337s1.885 1.51 3.605 2.056c1.395.443 3.003.791 4.611.791s3.216-.348 4.611-.791c1.72-.546 2.58-.82 3.605-2.056s1.154-2.27 1.412-4.337q.069-.55.127-1.133a51 51 0 0 1-5.12 2.444 12.2 12.2 0 0 1-9.27 0 51 51 0 0 1-5.12-2.443"/></svg>