<svg xmlns="http://www.w3.org/2000/svg" viewBox="0 0 16 16"><path fill-rule="evenodd" d="M2.065 5.856c.092.7.138 1.049.477 1.346.34.298.763.298 1.61.298h7.686c.847 0 1.27 0 1.61-.298.338-.297.384-.647.477-1.346.038-.292.062-.604.062-.926 0-.55-.07-1.057-.162-1.487-.068-.32-.103-.48-.24-.677a1.4 1.4 0 0 0-.403-.365c-.21-.116-.4-.138-.779-.18-.977-.109-2.45-.22-4.408-.22-1.959.001-3.431.111-4.409.22-.379.042-.569.064-.779.18a1.4 1.4 0 0 0-.403.365c-.137.197-.171.357-.24.677-.092.43-.162.937-.162 1.487 0 .322.024.634.063.926m3.83-1.104a.9.9 0 1 1-1.799 0 .9.9 0 0 1 1.8 0m-3.831 5.394c.092-.7.138-1.049.477-1.347.34-.297.763-.297 1.61-.297h5.084c-.361.16-.593.405-.733.588a4 4 0 0 0-.271.423l-.015.025-.244.423-.014.025a4 4 0 0 0-.23.446 1.86 1.86 0 0 0-.125 1.053c.036.202.106.37.184.517a1.7 1.7 0 0 0-.183.514c-.08.448.027.817.125 1.053.068.165.163.331.221.431-1.936-.002-3.395-.111-4.365-.22-.379-.041-.569-.063-.779-.18a1.4 1.4 0 0 1-.403-.364c-.137-.197-.171-.357-.24-.677a7 7 0 0 1-.162-1.487c0-.322.024-.634.063-.926m3.83 1.104a.9.9 0 1 0-1.799 0 .9.9 0 0 0 1.8 0m6.336 3.752h-.488c-.288 0-.432 0-.537-.088-.104-.089-.128-.226-.175-.5l-.01-.056a.2.2 0 0 0-.109-.144 2.5 2.5 0 0 1-.3-.175.2.2 0 0 0-.18-.023l-.052.02c-.261.096-.392.145-.52.098-.13-.046-.201-.171-.345-.421l-.244-.423c-.144-.25-.216-.375-.192-.51s.13-.224.345-.402l.042-.035a.2.2 0 0 0 .07-.167 2.5 2.5 0 0 1 0-.35.2.2 0 0 0-.07-.168l-.043-.035c-.214-.178-.321-.267-.345-.402s.048-.26.192-.51l.244-.423c.144-.25.216-.375.345-.421.129-.047.259.001.52.098l.052.02a.2.2 0 0 0 .18-.024 2.5 2.5 0 0 1 .302-.175.2.2 0 0 0 .11-.143l.008-.053c.047-.274.07-.411.175-.5.105-.088.249-.088.537-.088h.488c.288 0 .432 0 .537.088.104.089.128.226.175.5l.009.052c.01.063.052.116.11.144q.158.077.304.177c.052.035.12.045.18.023l.049-.019c.26-.096.39-.145.52-.098.128.046.2.171.345.421l.243.423c.145.25.217.375.193.51s-.132.224-.345.402l-.042.034a.2.2 0 0 0-.07.167 2.5 2.5 0 0 1 0 .349.2.2 0 0 0 .07.167l.042.035c.214.178.321.267.345.401.024.135-.048.26-.192.51l-.244.423c-.144.25-.216.375-.345.422s-.259-.002-.52-.099l-.05-.019a.2.2 0 0 0-.18.024 2.5 2.5 0 0 1-.303.175.2.2 0 0 0-.11.144l-.01.055c-.046.275-.07.412-.174.5-.105.089-.249.089-.537.089m.653-2.927c-.007.27-.011.404-.213.606-.203.203-.337.207-.606.214a3 3 0 0 1-.157 0c-.269-.007-.404-.011-.606-.214s-.206-.337-.213-.606a3 3 0 0 1 0-.157c.007-.27.011-.404.213-.606.202-.203.337-.207.606-.214a3 3 0 0 1 .157 0c.269.007.403.011.605.214.203.202.207.337.214.606a3 3 0 0 1 0 .157"/></svg>