<svg xmlns="http://www.w3.org/2000/svg" viewBox="0 0 16 16"><path fill-rule="evenodd" d="M10.594 5.205A2.75 2.75 0 0 0 8.746 4.5c-1.253 0-2.3.824-2.634 1.936l-.34 1.135-1.184-.068-.122-.004C3.34 7.5 2.5 8.377 2.5 9.37c0 .715.599 1.614 1.342 1.826.268.076.605.113 1.292.177.612.056 1.317.1 2.116.118.414.008.75.343.75.758 0 .414-.336.75-.75.742-.848-.018-1.6-.064-2.255-.125-1.287-.12-1.964-.182-2.756-.915A3.33 3.33 0 0 1 1 9.37C1 7.509 2.552 6 4.466 6q.105 0 .21.006a4.24 4.24 0 0 1 4.07-3.005c1.249 0 2.371.534 3.148 1.383.425.464.023 1.116-.607 1.116-.26 0-.5-.122-.693-.295m.413 2.045a.75.75 0 0 1 1.5 0v3.906a113 113 0 0 0 1.026-1.31.86.86 0 0 1 .68-.341c.622 0 .982.629.608 1.125-.242.321-.53.687-.864 1.11-.809 1.026-1.213 1.539-1.718 1.69a1.67 1.67 0 0 1-.956 0c-.504-.151-.909-.664-1.718-1.69a78 78 0 0 1-.864-1.11c-.373-.496-.013-1.125.608-1.125.268 0 .518.128.68.34a82 82 0 0 0 1.018 1.3z"/></svg>