<svg xmlns="http://www.w3.org/2000/svg" viewBox="0 0 16 16"><path fill-rule="evenodd" d="M6.75 8c0 2.721.057 4.66.103 5.764.021.525.032.788.263 1.01.23.223.442.224.865.226h.038c.423-.002.635-.003.865-.226.231-.222.242-.485.263-1.01.046-1.105.103-3.043.103-5.764s-.057-4.66-.103-5.764c-.021-.525-.032-.788-.263-1.01-.23-.223-.442-.224-.865-.226H7.98c-.423.002-.635.003-.865.226-.231.222-.242.485-.263 1.01A143 143 0 0 0 6.75 8m3.75 3.5c0 1.017.032 1.8.067 2.351.03.468.044.701.268.917.224.215.42.22.811.23a4 4 0 0 0 .208 0c.391-.01.587-.015.81-.23.225-.216.24-.45.269-.917.035-.552.067-1.334.067-2.351s-.032-1.8-.067-2.351c-.03-.468-.044-.701-.268-.917-.224-.215-.42-.22-.811-.23a4 4 0 0 0-.208 0c-.391.01-.587.015-.81.23-.225.216-.24.45-.269.917A37 37 0 0 0 10.5 11.5m-7.413 2.303A74 74 0 0 1 3 10c0-1.725.045-2.996.087-3.803.026-.499.039-.748.266-.968s.43-.222.835-.229h.124c.405.007.608.01.835.23.227.219.24.468.266.967.042.807.087 2.078.087 3.803s-.045 2.997-.087 3.803c-.026.499-.039.748-.266.967-.227.22-.43.223-.834.23h-.126c-.405-.007-.607-.01-.834-.23-.227-.219-.24-.468-.266-.967"/></svg>