<svg xmlns="http://www.w3.org/2000/svg" viewBox="0 0 24 24"><path fill-rule="evenodd" d="M10 12c0 4.147.11 7.02.183 8.49.028.554.042.83.28 1.094s.452.298.88.364a4.3 4.3 0 0 0 1.313 0c.429-.066.643-.1.88-.364.239-.264.253-.54.28-1.094.075-1.47.184-4.343.184-8.49s-.11-7.02-.183-8.49c-.028-.554-.042-.83-.28-1.094s-.452-.298-.88-.364a4.3 4.3 0 0 0-1.313 0c-.429.066-.643.1-.88.364-.239.264-.253.54-.28 1.094C10.108 4.98 10 7.853 10 12m6 5c0 1.654.07 2.85.135 3.613.041.474.061.71.29.96.227.25.418.286.802.356.23.042.492.071.773.071s.542-.03.773-.071c.384-.07.575-.105.803-.355.227-.25.248-.487.289-.961.066-.762.135-1.96.135-3.613s-.07-2.85-.135-3.613c-.041-.474-.061-.71-.29-.96-.227-.25-.418-.286-.802-.356A4.3 4.3 0 0 0 18 12c-.281 0-.542.03-.773.071-.384.07-.575.105-.803.355-.227.25-.248.487-.289.961C16.07 14.15 16 15.347 16 17M4.16 20.54C4.09 19.47 4 17.615 4 15s.089-4.469.16-5.54c.036-.522.053-.784.287-1.042.234-.257.44-.291.852-.36a4.3 4.3 0 0 1 1.402 0c.412.069.618.103.852.36.234.258.251.52.287 1.043C7.91 10.53 8 12.384 8 15s-.089 4.47-.16 5.54c-.036.522-.053.784-.287 1.041-.234.258-.44.292-.85.36a4.3 4.3 0 0 1-1.405 0c-.412-.068-.617-.102-.851-.36s-.251-.519-.286-1.042"/></svg>