<svg xmlns="http://www.w3.org/2000/svg" viewBox="0 0 32 32"><path fill-rule="evenodd" d="M13.75 16c0 5.564.131 9.37.214 11.225.029.636.043.954.322 1.271.28.318.514.358.984.44a4.3 4.3 0 0 0 1.46 0c.47-.082.705-.122.984-.44.279-.317.293-.635.322-1.271.083-1.856.214-5.66.214-11.225s-.131-9.37-.214-11.225c-.029-.636-.043-.954-.322-1.272-.28-.317-.514-.357-.984-.439a4.3 4.3 0 0 0-1.46 0c-.47.082-.705.122-.984.44-.28.317-.293.635-.322 1.271-.083 1.856-.214 5.66-.214 11.225M21 22.5c0 2.258.086 3.865.163 4.849.044.556.066.834.332 1.135.267.301.48.344.907.43.254.05.54.086.848.086s.594-.035.848-.086c.426-.086.64-.129.907-.43s.288-.58.332-1.135c.077-.984.163-2.59.163-4.849 0-2.258-.086-3.865-.163-4.849-.044-.556-.066-.834-.332-1.135-.267-.301-.48-.344-.907-.43A4.3 4.3 0 0 0 23.25 16a4.3 4.3 0 0 0-.848.086c-.426.086-.64.129-.907.43s-.288.58-.332 1.135c-.077.984-.163 2.59-.163 4.849M6.69 27.279C6.608 25.93 6.5 23.496 6.5 20s.108-5.93.19-7.279c.036-.6.055-.901.328-1.21.272-.31.497-.352.946-.436.238-.045.503-.075.786-.075s.548.03.786.075c.45.084.674.126.946.436.273.309.292.61.328 1.21.082 1.349.19 3.784.19 7.279s-.108 5.93-.19 7.279c-.037.6-.055.9-.328 1.21-.272.31-.496.351-.945.436A4.3 4.3 0 0 1 8.75 29c-.283 0-.549-.03-.787-.075-.449-.085-.673-.127-.946-.436-.272-.31-.29-.61-.327-1.21"/></svg>