<svg xmlns="http://www.w3.org/2000/svg" viewBox="0 0 24 24"><path d="M11.35 5a3.05 3.05 0 0 1 1.74.563c.3.209.526.437.91.437.645 0 1.006-.494 1-1 0-.58-.503-.914-.944-1.191C13.272 3.317 12.344 3 11.35 3a5.1 5.1 0 0 0-4.87 3.583C3.987 6.693 2 8.882 2 11.328c0 2.175 1.643 4.084 3.784 4.397.394.072.79.09 1.256.131C8.358 15.971 9.678 16 11 16a1 1 0 1 0 0-2c-2.711-.057-4.708 0-5.629-.434C4.57 13.186 4 12.186 4 11.328 4 9.922 5.175 8.643 6.567 8.58c.574 0 1.003.027 1.515.09.07-.504.142-.962.307-1.494A3.1 3.1 0 0 1 11.35 5"/><path d="M16.774 15c.361-.858.676-1.733.676-2.65a3.1 3.1 0 0 0-5.875-1.384c-.26.52-.504 1.034-1.176 1.034-.647 0-1.343-.702-.617-1.93h.005a5.1 5.1 0 0 1 9.663 2.272v.009q0 .44-.072.86A2.86 2.86 0 0 1 22 16.062c0 3.158-3.518 3.726-5.892 3.863-.807.046-1.68.075-2.608.075H9a1 1 0 1 1 0-2h4.5c.887 0 1.721-.026 2.493-.071.938-.054 4.007-.02 4.007-1.866C20 14.778 17.575 15 16.774 15"/></svg>