<svg xmlns="http://www.w3.org/2000/svg" viewBox="0 0 24 24"><path fill-rule="evenodd" d="M16.2 13.03c-.03.029-.03.076-.03.17a291 291 0 0 1-.04 4.792c-.027 1.413-.04 2.12-.806 2.956-.766.837-1.252.889-2.224.993a10.6 10.6 0 0 1-2.258 0c-.973-.104-1.459-.156-2.224-.993-.766-.836-.78-1.543-.805-2.957-.023-1.218-.04-2.809-.042-4.789 0-.096 0-.143-.03-.173S7.666 13 7.572 13h-2.6c-.408 0-.612 0-.733-.02a1.5 1.5 0 0 1-.994-2.328c.069-.1.21-.248.492-.543l6.067-6.343c1.018-1.064 1.527-1.596 2.168-1.596.64 0 1.15.532 2.168 1.596l6.482 6.777c.884.924.229 2.457-1.05 2.457h-3.2c-.094 0-.141 0-.17.03"/></svg>