<svg xmlns="http://www.w3.org/2000/svg" viewBox="0 0 44 44"><path fill-rule="evenodd" d="M26.25 7c-2-2-3-3-4.243-3-1.242 0-2.242 1-4.242 3l-7.388 7.388c-2.72 2.72-4.08 4.08-4.125 5.255a3 3 0 0 0 .96 2.315c.862.8 2.785.8 6.632.8.06 0 .089 0 .111.012a.1.1 0 0 1 .04.04c.012.022.012.052.012.113.001 3.64.031 6.552.07 8.807.048 2.817.072 4.226 1.68 5.957s2.551 1.817 4.439 1.99a20 20 0 0 0 3.623 0c1.888-.173 2.831-.26 4.439-1.99 1.608-1.731 1.632-3.14 1.68-5.957.039-2.255.069-5.167.07-8.807 0-.06 0-.091.012-.113a.1.1 0 0 1 .04-.04c.022-.013.052-.013.11-.013 3.847 0 5.77 0 6.634-.799a3 3 0 0 0 .959-2.315c-.045-1.175-1.405-2.535-4.125-5.255zm.757 15.923v-.089c.002-.04.003-.128.012-.235a3.1 3.1 0 0 1 1.607-2.465 3.1 3.1 0 0 1 1.456-.376h.089c1.986 0 3.26-.004 4.156-.088q.099-.009.182-.019l-.115-.142c-.575-.693-1.473-1.596-2.878-3L24.13 9.12c-1.06-1.06-1.646-1.637-2.104-1.986l-.018-.013-.017.013c-.458.35-1.044.926-2.104 1.986l-7.388 7.388c-1.404 1.404-2.303 2.307-2.877 3l-.115.142.182.02c.896.083 2.17.086 4.156.086h.002a4 4 0 0 1 .325.013 3.1 3.1 0 0 1 2.46 1.606m10.376 1.547c0 3.624-.03 6.519-.069 8.756-.025 1.513-.052 2.214-.178 2.76-.084.363-.219.688-.7 1.206-.619.666-.892.782-.996.822-.209.08-.472.126-1.517.221a17 17 0 0 1-3.079 0c-1.045-.095-1.308-.14-1.517-.221-.104-.04-.378-.156-.996-.822-.482-.518-.616-.843-.7-1.206-.127-.546-.153-1.247-.179-2.76a521 521 0 0 1-.069-8.756v-.089a3.1 3.1 0 0 0-.377-1.458"/></svg>