<svg xmlns="http://www.w3.org/2000/svg" viewBox="0 0 24 24"><path fill-rule="evenodd" d="M5.652 11h1.923l.109.001a2.1 2.1 0 0 1 1.472.614c.452.452.561.969.594 1.212a2.4 2.4 0 0 1 .021.37v.004c.001 1.968.02 3.547.041 4.754.015.774.029 1.077.078 1.295a.5.5 0 0 0 .049.144c.018.033.057.098.154.204a2 2 0 0 0 .274.253l.005.002c.004.002.04.015.15.034.124.02.274.037.533.065a8.6 8.6 0 0 0 1.832 0c.259-.028.408-.044.532-.065a1 1 0 0 0 .151-.034l.003-.001.002-.001.029-.02c.037-.027.116-.092.245-.233.097-.106.136-.17.154-.204a.5.5 0 0 0 .05-.144c.048-.218.062-.52.076-1.295q.01-.543.019-1.188.02-1.503.023-3.568v-.004l.001-.109a2.1 2.1 0 0 1 .614-1.472 2.1 2.1 0 0 1 1.472-.613l.113-.001h1.92l-5.597-5.851a38 38 0 0 0-.723-.741l-.08.079c-.18.178-.383.39-.643.662zM16.2 13.03c-.03.029-.03.076-.03.17a291 291 0 0 1-.04 4.792c-.027 1.413-.04 2.12-.806 2.956-.766.837-1.252.889-2.224.993a10.6 10.6 0 0 1-2.258 0c-.973-.104-1.459-.156-2.224-.993-.766-.836-.78-1.543-.805-2.957-.023-1.218-.04-2.809-.042-4.789 0-.096 0-.143-.03-.173S7.666 13 7.572 13h-2.6c-.408 0-.612 0-.733-.02a1.5 1.5 0 0 1-.994-2.328c.069-.1.21-.248.492-.543l6.067-6.343c1.018-1.064 1.527-1.596 2.168-1.596.64 0 1.15.532 2.168 1.596l6.482 6.777c.884.924.229 2.457-1.05 2.457h-3.2c-.094 0-.141 0-.17.03"/></svg>