<svg xmlns="http://www.w3.org/2000/svg" viewBox="0 0 16 16"><path fill-rule="evenodd" d="m9.49 7.447.02-.02c.337-.311.707-.388.89-.411.136-.018.276-.016.294-.016h.001c.393 0 .718 0 .989-.005a68 68 0 0 0-.647-.747l-2.66-3.04c-.15-.17-.27-.308-.377-.426-.107.118-.228.256-.376.426l-2.66 3.04c-.26.296-.473.54-.648.747.271.004.596.005.989.005h.001c.018 0 .158-.002.294.016.183.023.553.1.89.412l.02.019.043.044.02.02a1.6 1.6 0 0 1 .412.891c.017.135.015.274.015.293v3.248c0 .599.003.908.032 1.135a.5.5 0 0 0 .05.196l.01.011a1.3 1.3 0 0 0 .133.133c.05.034.076.046.084.049a.2.2 0 0 0 .043.011c.033.006.092.013.203.018.115.004.25.004.445.004.196 0 .33 0 .445-.005.11-.004.17-.01.203-.017a.2.2 0 0 0 .043-.011.5.5 0 0 0 .094-.058 1.3 1.3 0 0 0 .133-.135.5.5 0 0 0 .05-.196c.03-.227.032-.536.032-1.135V8.695c0-.02-.002-.158.015-.293.023-.18.098-.553.413-.891l.019-.02zm-.573 5.83-.006.008.001-.002zm-1.834 0 .005.006.002.003zm-4.81-5.413c-.222-.566.373-1.245 1.562-2.604l2.66-3.04c.7-.8 1.051-1.2 1.505-1.2s.804.4 1.505 1.201l2.66 3.04c1.19 1.36 1.784 2.038 1.563 2.604a1 1 0 0 1-.044.097c-.28.539-1.183.539-2.989.539-.09 0-.134 0-.163.027l-.005.005c-.027.029-.027.074-.027.165v3.246c0 1.123 0 1.685-.359 2.2a2.5 2.5 0 0 1-.498.498C9.128 15 8.752 15 8 15s-1.128 0-1.643-.359a2.5 2.5 0 0 1-.498-.498c-.359-.515-.359-1.077-.359-2.2V8.697c0-.09 0-.136-.027-.165l-.005-.005C5.44 8.5 5.394 8.5 5.305 8.5c-1.806 0-2.708 0-2.988-.539a1 1 0 0 1-.045-.097"/></svg>