<svg xmlns="http://www.w3.org/2000/svg" viewBox="0 0 44 44"><path d="M14.007 22.923c.001 3.64.031 6.552.07 8.807.048 2.817.072 4.226 1.68 5.957s2.551 1.817 4.439 1.99a20 20 0 0 0 3.623 0c1.888-.173 2.831-.26 4.439-1.99 1.608-1.731 1.632-3.14 1.68-5.957.039-2.255.069-5.167.07-8.807 0-.06 0-.091.012-.113a.1.1 0 0 1 .04-.04c.022-.013.052-.013.11-.013 3.847 0 5.77 0 6.634-.799a3 3 0 0 0 .959-2.315c-.045-1.175-1.405-2.535-4.125-5.255L26.25 7c-2-2-3-3-4.243-3-1.242 0-2.242 1-4.242 3l-7.388 7.388c-2.72 2.72-4.08 4.08-4.125 5.255a3 3 0 0 0 .96 2.315c.862.8 2.785.8 6.632.8.06 0 .089 0 .111.012a.1.1 0 0 1 .04.04c.012.022.012.052.012.113"/></svg>