<svg xmlns="http://www.w3.org/2000/svg" viewBox="0 0 24 24"><path fill-rule="evenodd" d="M2 12.87V6.95c0-.883 0-1.324.07-1.692A4 4 0 0 1 5.26 2.07C5.626 2 6.067 2 6.95 2c.387 0 .58 0 .766.017a4 4 0 0 1 2.18.904c.144.119.281.255.555.529.357.357.844.552 1.35.55h.2c1.55 0 2.902.067 4.055.167 2.024.176 3.036.264 4.325 1.558 1.29 1.293 1.37 2.264 1.532 4.204a25 25 0 0 1 0 4.14c-.161 1.941-.242 2.912-1.532 4.205-1.289 1.294-2.301 1.382-4.325 1.558A47 47 0 0 1 12 20c-1.549 0-2.901-.068-4.054-.168-2.025-.176-3.038-.264-4.327-1.558s-1.37-2.265-1.532-4.206c-.031-.378-.071-.793-.086-1.199m2.08 1.032a32 32 0 0 1-.08-1.26V6.95c0-.974.01-1.183.036-1.32A2 2 0 0 1 5.63 4.034C5.768 4.009 5.977 4 6.95 4c.424 0 .509.002.58.009a2 2 0 0 1 1.09.451c.056.046.117.104.416.404A3.9 3.9 0 0 0 11.808 6H12c1.492 0 2.787.065 3.883.16 1.078.093 1.601.148 2.022.278.312.096.612.25 1.06.698.458.46.606.755.696 1.044.123.393.173.878.26 1.915a23 23 0 0 1 0 3.808c-.087 1.037-.137 1.523-.26 1.916-.09.289-.238.584-.696 1.044-.448.449-.748.602-1.06.698-.42.13-.944.185-2.022.278-1.096.095-2.391.16-3.883.16a45 45 0 0 1-3.88-.16c-1.08-.093-1.603-.148-2.024-.278-.313-.096-.613-.25-1.06-.698-.458-.46-.607-.756-.697-1.044-.122-.394-.173-.88-.259-1.917"/></svg>