<svg xmlns="http://www.w3.org/2000/svg" viewBox="0 0 24 24"><path d="M2 12.87V6.95c0-.883 0-1.324.07-1.692A4 4 0 0 1 5.26 2.07C5.626 2 6.067 2 6.95 2c.387 0 .58 0 .766.017a4 4 0 0 1 2.18.904c.144.119.281.255.555.529.357.357.844.552 1.35.55h.2c1.55 0 2.902.067 4.055.167 2.024.176 3.036.264 4.325 1.558 1.29 1.293 1.37 2.264 1.532 4.204a25 25 0 0 1 0 4.14c-.161 1.941-.242 2.912-1.532 4.205-1.289 1.294-2.301 1.382-4.325 1.558A47 47 0 0 1 12 20c-1.549 0-2.901-.068-4.054-.168-2.025-.176-3.038-.264-4.327-1.558s-1.37-2.265-1.532-4.206c-.031-.378-.071-.793-.086-1.199"/></svg>