<svg xmlns="http://www.w3.org/2000/svg" viewBox="0 0 44 44"><path fill-rule="evenodd" d="M4.016 24.182q-.007-.245-.018-.484V12.972c0-1.6 0-2.4.126-3.065a7.25 7.25 0 0 1 5.784-5.781C10.575 4 11.375 4 12.976 4c.701 0 1.052 0 1.389.031a7.26 7.26 0 0 1 3.954 1.638c.26.216.509.463 1.005.959l.492.492A3.08 3.08 0 0 0 22 8.015c2.711 0 5.087.112 7.124.279 3.724.305 5.586.458 7.968 2.853 2.383 2.395 2.517 4.146 2.784 7.647a42 42 0 0 1 0 6.427c-.267 3.502-.401 5.252-2.784 7.647s-4.244 2.548-7.968 2.853a87 87 0 0 1-7.125.279c-2.712 0-5.089-.112-7.126-.28-3.722-.304-5.583-.457-7.966-2.852s-2.574-4.144-2.841-7.643a25 25 0 0 1-.049-1.043m3-.251c.012.366.025.756.049 1.065.141 1.851.278 2.791.522 3.576.195.628.528 1.26 1.447 2.182.895.9 1.541 1.246 2.23 1.457.854.261 1.892.36 3.853.522a84 84 0 0 0 6.881.269c2.63 0 4.924-.109 6.88-.27 1.962-.16 3-.26 3.855-.521.69-.211 1.335-.556 2.231-1.457.918-.923 1.252-1.555 1.447-2.183.244-.785.331-1.726.472-3.578a39 39 0 0 0 0-5.971c-.14-1.852-.228-2.793-.472-3.578-.195-.628-.529-1.26-1.447-2.183-.896-.9-1.542-1.246-2.231-1.457-.855-.261-1.893-.36-3.856-.522A84 84 0 0 0 22 11.014a6.08 6.08 0 0 1-4.304-1.774l-.493-.492c-.535-.535-.67-.665-.797-.771a4.26 4.26 0 0 0-2.32-.96c-.165-.016-.352-.019-1.11-.019-1.736 0-2.189.013-2.51.074a4.25 4.25 0 0 0-3.393 3.39c-.06.322-.073.774-.073 2.51v10.5c.006.142.01.298.016.459"/></svg>