<svg xmlns="http://www.w3.org/2000/svg" viewBox="0 0 44 44"><path fill-rule="evenodd" d="M12.31 7.981C14.293 5.993 15.284 5 16.5 5s2.207.994 4.19 2.982l4.63 4.643c2.694 2.702 4.04 4.053 3.596 5.214-.296.774-1.224 1.032-2.916 1.118v15.077q1.612.028 3 .073v-12.63c1.036-.372 2.17-1.134 2.718-2.567.406-1.06.335-2.04.073-2.871a8.001 8.001 0 0 1 .209 15.9v2.286l.824.043c2.221.12 3.332.18 4.302 1.173.49.502.74.979.874 1.559H7V18.956c-1.692-.086-2.62-.343-2.916-1.118-.445-1.162.902-2.512 3.596-5.214zm.051 11.346c-.252.257-.273.523-.314 1.056-.027.34-.047.728-.047 1.115s.02.775.047 1.115c.041.533.062.8.314 1.056.253.257.463.277.884.316a2.7 2.7 0 0 0 .51 0c.421-.04.631-.06.884-.316.252-.257.273-.523.314-1.056.027-.34.047-.727.047-1.115 0-.387-.02-.775-.047-1.115-.041-.533-.062-.799-.314-1.056-.253-.257-.463-.277-.884-.316a2.7 2.7 0 0 0-.51 0c-.421.04-.631.06-.884.316m4.686 8.056c.041-.533.062-.799.314-1.056.253-.257.463-.277.884-.316a2.7 2.7 0 0 1 .51 0c.421.04.631.06.884.316.252.257.273.523.314 1.056.027.34.047.728.047 1.115s-.02.775-.047 1.115c-.041.533-.062.8-.314 1.056-.253.257-.463.277-.884.316a2.7 2.7 0 0 1-.51 0c-.421-.04-.631-.06-.884-.316-.252-.257-.273-.523-.314-1.056-.027-.34-.047-.727-.047-1.115 0-.387.02-.775.047-1.115"/></svg>