<svg xmlns="http://www.w3.org/2000/svg" viewBox="0 0 24 24"><path fill-rule="evenodd" d="M9 2.5c-.681 0-1.236.533-2.346 1.598L4.06 6.585c-1.509 1.447-2.263 2.17-2.014 2.793.155.388.62.534 1.453.589v10.502l-.003.028H3.5v.003h11v-.003h6.501c-.05-.497-.172-.843-.534-1.214-.53-.542-1.135-.575-2.347-.64l-.12-.007v-.892a4.502 4.502 0 0 0 0-8.487 2.69 2.69 0 0 1-1.5 2.273v7.038q-.904-.032-2-.053v-8.55c.834-.054 1.298-.2 1.453-.588.249-.622-.505-1.346-2.014-2.793l-2.593-2.487C10.236 3.033 9.681 2.5 9 2.5m-2.467 8.303c.027-.303.04-.454.176-.595s.265-.158.523-.19a2 2 0 0 1 .534 0c.258.032.387.049.523.19.136.14.15.292.176.595.02.21.034.454.034.697s-.015.486-.034.697c-.027.303-.04.454-.176.595s-.265.158-.523.19a2 2 0 0 1-.534 0c-.258-.032-.387-.049-.523-.19-.136-.14-.15-.292-.176-.595a8 8 0 0 1-.034-.697 8 8 0 0 1 .034-.697m3.176 3.405c-.136.14-.15.292-.176.595-.02.21-.034.454-.034.697s.015.486.034.697c.027.303.04.454.176.595s.265.158.523.19a2 2 0 0 0 .534 0c.258-.032.387-.049.523-.19.136-.14.15-.292.177-.595.018-.21.033-.454.033-.697s-.015-.486-.034-.697c-.027-.303-.04-.454-.176-.595s-.265-.158-.523-.19a2 2 0 0 0-.534 0c-.258.032-.387.049-.523.19"/></svg>