<svg xmlns="http://www.w3.org/2000/svg" viewBox="0 0 32 32"><path fill-rule="evenodd" d="M9.15 5.63c1.467-1.42 2.2-2.131 3.1-2.131s1.633.71 3.1 2.13l3.427 3.317c1.993 1.93 2.99 2.894 2.661 3.724-.206.52-.825.714-1.938.786v11.07q1.364.026 2.5.068v-9.156c.687-.327 1.387-.9 1.762-1.847.174-.437.244-.856.243-1.249A6.002 6.002 0 0 1 24 23.658v1.024l.337.018c1.544.087 2.316.13 2.992.85.425.453.592.876.667 1.45h-23L5 26.971V13.456c-1.113-.072-1.732-.266-1.938-.786-.329-.83.668-1.795 2.661-3.724zm.126 7.637c-.182.189-.2.39-.233.79-.024.284-.043.613-.043.941s.019.657.043.94c.034.402.05.602.233.792s.348.21.68.25a2.5 2.5 0 0 0 .589 0c.33-.04.496-.06.679-.25.182-.19.2-.39.233-.792.024-.283.043-.612.043-.94s-.019-.657-.043-.94c-.034-.401-.05-.602-.233-.791s-.348-.21-.68-.25a2.5 2.5 0 0 0-.589 0c-.33.04-.496.06-.679.25m3.767 6.79c.034-.4.05-.601.233-.79s.348-.21.68-.25a2.5 2.5 0 0 1 .589 0c.33.04.496.06.679.25.182.189.2.39.233.79.024.284.043.613.043.941s-.019.657-.043.94c-.034.402-.05.602-.233.792s-.348.21-.68.25a2.5 2.5 0 0 1-.589 0c-.33-.04-.496-.06-.679-.25-.182-.19-.2-.39-.233-.792a11 11 0 0 1-.043-.94c0-.328.019-.657.043-.94"/></svg>