<svg xmlns="http://www.w3.org/2000/svg" viewBox="0 0 16 16"><path d="M9 8.85a.85.85 0 1 0 0-1.7.85.85 0 0 0 0 1.7"/><path fill-rule="evenodd" d="M2.148 5.5H3.75a.75.75 0 0 1 0 1.5H2.029a18 18 0 0 0 0 2H3.75a.75.75 0 0 1 0 1.5H2.148c.113 1.047.31 1.71.976 2.376.875.875 1.747.94 3.491 1.07.452.034.919.054 1.385.054s.933-.02 1.385-.054c1.744-.13 2.616-.195 3.491-1.07s.94-1.747 1.07-3.491C13.98 8.933 14 8.466 14 8s-.02-.933-.054-1.385c-.13-1.744-.195-2.616-1.07-3.491s-1.747-.94-3.491-1.07A19 19 0 0 0 8 2c-.466 0-.933.02-1.385.054-1.744.13-2.616.195-3.491 1.07-.666.666-.863 1.33-.976 2.376M9 10.15a2.15 2.15 0 1 0 0-4.3 2.15 2.15 0 0 0 0 4.3"/></svg>