<svg xmlns="http://www.w3.org/2000/svg" viewBox="0 0 24 24"><path d="M15.25 12a1.25 1.25 0 1 1-2.5 0 1.25 1.25 0 0 1 2.5 0"/><path fill-rule="evenodd" d="M3.251 8H5a1 1 0 0 1 0 2H3.075A28 28 0 0 0 3 12c0 .673.028 1.346.075 2H5a1 1 0 1 1 0 2H3.251c.175 1.428.49 2.37 1.435 3.314 1.313 1.313 2.62 1.41 5.237 1.605C10.6 20.969 11.3 21 12 21s1.399-.03 2.077-.081c2.616-.195 3.924-.292 5.237-1.605s1.41-2.62 1.605-5.237C20.969 13.4 21 12.7 21 12s-.03-1.399-.081-2.077c-.195-2.616-.292-3.924-1.605-5.237s-2.62-1.41-5.237-1.605A28 28 0 0 0 12 3c-.7 0-1.399.03-2.077.081-2.616.195-3.924.292-5.237 1.605C3.742 5.63 3.426 6.572 3.251 8m13.999 4a3.25 3.25 0 1 1-6.5 0 3.25 3.25 0 0 1 6.5 0"/></svg>