<svg xmlns="http://www.w3.org/2000/svg" viewBox="0 0 32 32"><path fill-rule="evenodd" d="M24.862 4.412a1.25 1.25 0 0 0-1.878.026c-1.77 2.069-4.014 2.068-7.732 2.065h-.368c-4.48 0-7.639 1.742-9.374 4.366-1.708 2.583-1.915 5.843-.873 8.663q.015.044.035.086c.35.765.773 1.49 1.264 2.161a24 24 0 0 0-1.241 2.688c-.228.586-.39 1.072-.497 1.416a14 14 0 0 0-.155.543c-.165.67.238 1.373.908 1.538s1.36-.293 1.526-.963c.02-.073.065-.234.11-.38.09-.294.233-.722.437-1.246.187-.48.424-1.035.718-1.638a11.2 11.2 0 0 0 3.991 2.211c6.435 1.997 13.317-1.547 15.549-8.492 1.526-4.746.57-9.731-2.42-13.044M9 21.503a8.7 8.7 0 0 0 3.475 2.057c5.068 1.574 10.596-1.172 12.427-6.869 1.125-3.5.61-7.024-1.097-9.577-2.385 1.917-5.322 1.904-8.217 1.891l-.704-.002c-3.796 0-6.096 1.44-7.289 3.245-1.211 1.832-1.41 4.224-.63 6.374q.193.416.42.807c2.196-3.122 5.724-6.398 11.135-7.412a1.25 1.25 0 1 1 .46 2.457c-4.887.916-8.006 4.006-9.933 6.957z"/></svg>