<svg xmlns="http://www.w3.org/2000/svg" viewBox="0 0 24 24"><path fill-rule="evenodd" d="M17.892 3a1 1 0 0 1 .758.333c2.242 2.502 2.955 6.263 1.814 9.839-1.67 5.235-6.828 7.923-11.661 6.41a8.4 8.4 0 0 1-2.974-1.652c-.185.393-.336.757-.457 1.075a13 13 0 0 0-.38 1.156l-.019.069a1 1 0 1 1-1.946-.46q.052-.214.116-.424c.077-.256.194-.618.36-1.053.21-.55.498-1.223.884-1.954a9.4 9.4 0 0 1-.91-1.608c-.78-2.128-.628-4.565.661-6.494C5.448 6.277 7.824 5 11.17 5c2.885 0 4.626-.06 5.972-1.647a1 1 0 0 1 .75-.353M9.4 17.674a6.4 6.4 0 0 1-2.576-1.544l.015-.023c1.406-2.167 3.7-4.44 7.345-5.124a1 1 0 1 0-.368-1.966c-4.013.753-6.626 3.128-8.26 5.42a8 8 0 0 1-.213-.43c-.575-1.598-.425-3.338.458-4.659C6.671 8.048 8.357 7 11.171 7h.155c2.284 0 4.595.002 6.469-1.5 1.223 1.892 1.586 4.485.763 7.064-1.354 4.245-5.431 6.276-9.158 5.11"/></svg>