<svg xmlns="http://www.w3.org/2000/svg" viewBox="0 0 44 44"><path fill-rule="evenodd" d="M32.68 6a1.5 1.5 0 0 1 1.135.495C37.8 10.912 39.08 17.57 37.04 23.921c-2.98 9.28-12.163 14.007-20.742 11.342a14.9 14.9 0 0 1-5.547-3.149c-.45.919-.803 1.764-1.073 2.48-.263.7-.445 1.273-.56 1.665a15 15 0 0 0-.154.565 1.51 1.51 0 0 1-1.8 1.138c-.808-.185-1.305-1.022-1.12-1.83a14 14 0 0 1 .195-.717c.133-.456.339-1.1.631-1.877.399-1.06.962-2.373 1.73-3.799a16.5 16.5 0 0 1-1.713-2.92l-.042-.104C5.458 22.96 5.733 18.65 8.007 15.244 10.311 11.792 14.508 9.5 20.493 9.5c5.24 0 8.528 0 11.068-2.974A1.5 1.5 0 0 1 32.68 6m-6.908 13.975a1.5 1.5 0 1 0-.548-2.95c-6.525 1.214-10.971 4.822-13.904 8.549a1.5 1.5 0 1 0 2.357 1.855c2.598-3.3 6.45-6.404 12.095-7.454"/></svg>