<svg xmlns="http://www.w3.org/2000/svg" viewBox="0 0 44 44"><path fill-rule="evenodd" d="M33.815 6.495a1.5 1.5 0 0 0-2.254.03C29.02 9.5 25.733 9.5 20.493 9.5c-5.985 0-10.182 2.293-12.486 5.743-2.274 3.406-2.549 7.717-1.162 11.472q.02.053.042.104a16.5 16.5 0 0 0 1.713 2.92 31 31 0 0 0-1.73 3.8 27 27 0 0 0-.631 1.876 18 18 0 0 0-.194.718c-.186.807.311 1.644 1.118 1.829a1.51 1.51 0 0 0 1.8-1.138l.03-.12q.039-.149.124-.445c.116-.392.298-.965.561-1.664.27-.717.622-1.562 1.073-2.48a14.9 14.9 0 0 0 5.547 3.148c8.58 2.665 17.761-2.061 20.742-11.342 2.04-6.351.76-13.01-3.225-17.426m-21.55 22.923a11.95 11.95 0 0 0 4.923 2.98c6.938 2.155 14.496-1.61 16.996-9.395 1.558-4.85.813-9.747-1.615-13.257-3.274 2.766-7.359 2.76-11.498 2.755l-.578-.001c-5.18 0-8.344 1.943-9.99 4.41-1.668 2.496-1.937 5.76-.863 8.714q.31.67.684 1.298c2.889-4.166 7.581-8.535 14.9-9.897a1.5 1.5 0 1 1 .55 2.95c-6.714 1.248-10.902 5.408-13.448 9.35z"/></svg>