<svg xmlns="http://www.w3.org/2000/svg" viewBox="0 0 32 32"><path fill-rule="evenodd" d="M23.917 4c.36-.005.704.145.945.412 2.99 3.313 3.946 8.298 2.42 13.044-2.232 6.945-9.114 10.49-15.549 8.492a11.2 11.2 0 0 1-3.991-2.211 22 22 0 0 0-.718 1.638 19 19 0 0 0-.437 1.245c-.045.147-.09.308-.11.381-.166.67-.856 1.128-1.526.963s-1.073-.867-.908-1.538a11 11 0 0 1 .155-.543c.107-.344.269-.83.497-1.416.294-.755.7-1.681 1.241-2.688a12.3 12.3 0 0 1-1.264-2.16l-.035-.087c-1.042-2.82-.835-6.08.873-8.663 1.735-2.624 4.893-4.366 9.374-4.366h.368c3.718.003 5.963.004 7.732-2.065A1.25 1.25 0 0 1 23.917 4M18.98 14.474a1.25 1.25 0 1 0-.46-2.457c-4.703.882-7.99 3.475-10.211 6.192a1.25 1.25 0 1 0 1.935 1.582c1.946-2.38 4.75-4.57 8.736-5.317"/></svg>