<svg xmlns="http://www.w3.org/2000/svg" viewBox="0 0 17 17"><path fill-rule="evenodd" d="M12.604 2.125a.8.8 0 0 1 .608.27c1.587 1.797 2.085 4.49 1.283 7.044-1.177 3.744-4.825 5.69-8.262 4.598a5.9 5.9 0 0 1-2.07-1.155q-.124.294-.214.54a9 9 0 0 0-.249.811l-.003.013a.797.797 0 0 1-1.559-.331l.003-.01c.014-.06.05-.207.073-.291.05-.18.127-.432.237-.736.134-.368.318-.814.565-1.3a7 7 0 0 1-.559-1.032c-.551-1.527-.446-3.279.47-4.67.933-1.417 2.625-2.335 4.99-2.335 2.02 0 3.18-.047 4.086-1.13a.8.8 0 0 1 .6-.286m-2.63 5.83a.797.797 0 0 0-.293-1.567c-2.405.45-4.09 1.695-5.238 3.037a.797.797 0 0 0 1.21 1.036c.958-1.118 2.336-2.135 4.322-2.507"/></svg>