<svg xmlns="http://www.w3.org/2000/svg" viewBox="0 0 24 24"><path fill-rule="evenodd" d="M12.291 2.101A37 37 0 0 0 9.518 2c-1.044 0-1.968.04-2.771.101-1.614.123-2.421.185-3.471 1.246s-1.1 1.817-1.2 3.329q-.039.557-.04 1.162c0 .414-.007.876-.016 1.362-.053 2.94-.121 6.8 1.514 6.8 1.752 0 3.158-1.349 4.114-2.324h1.87c1.045 0 1.97-.04 2.773-.101 1.613-.123 2.42-.185 3.47-1.245s1.1-1.817 1.2-3.328a18 18 0 0 0 0-2.328c-.1-1.511-.15-2.267-1.2-3.327S13.904 2.225 12.29 2.1M8.24 18.33c-.566-.572-.842-1.056-.991-1.617q.282-.277.53-.535h2.244c1.616 0 2.994-.08 4.128-.193 1.644-.164 2.466-.246 3.475-1.25 1.01-1.005 1.092-1.796 1.256-3.377a22 22 0 0 0 .105-3.044c.628.152 1.144.433 1.738 1.033 1.05 1.06 1.1 1.817 1.2 3.329q.039.557.04 1.162c0 .414.007.875.016 1.362.053 2.94.122 6.8-1.514 6.8-1.752 0-3.158-1.349-4.114-2.324h-1.87c-1.045 0-1.97-.04-2.773-.101-1.613-.123-2.42-.185-3.47-1.245"/></svg>