<svg xmlns="http://www.w3.org/2000/svg" viewBox="0 0 16 16"><path fill-rule="evenodd" d="M7.532 1.048A23 23 0 0 0 6.012 1q-.836.002-1.518.048c-1.175.077-1.763.116-2.564.929s-.83 1.38-.888 2.512q-.017.33-.017.681c0 .296-.006.625-.012.973C.978 8.243.933 11 2.023 11c1.168 0 2.105-.963 2.743-1.66h1.246q.837-.002 1.52-.048c1.174-.077 1.761-.115 2.563-.929.801-.813.83-1.379.887-2.511a13 13 0 0 0 0-1.364c-.057-1.132-.086-1.698-.887-2.511-.802-.813-1.389-.852-2.563-.929M5.905 12.363c-.457-.464-.663-.847-.766-1.302L5.196 11c.29 0 .448.002.612.004.175.002.356.004.707.004.926 0 1.735-.042 2.425-.104 1.203-.11 1.805-.164 2.574-.936.769-.771.82-1.362.923-2.545a16 16 0 0 0 .04-2.287c.6.092 1.047.287 1.593.84.802.814.83 1.38.888 2.513q.017.33.017.681c0 .296.006.625.012.973.035 2.1.08 4.857-1.01 4.857-1.168 0-2.105-.963-2.743-1.66H9.988q-.837-.002-1.52-.048c-1.174-.077-1.761-.115-2.563-.929"/></svg>