<svg xmlns="http://www.w3.org/2000/svg" viewBox="0 0 24 24"><path fill-rule="evenodd" d="m6.22 12.276.589-.6h2.71c.993 0 1.867-.038 2.62-.095.875-.067 1.235-.105 1.514-.19.168-.051.355-.134.687-.468.347-.351.422-.534.465-.674.074-.243.106-.555.16-1.38a16 16 0 0 0 0-2.062c-.054-.825-.086-1.137-.16-1.38-.043-.14-.118-.322-.465-.673-.332-.335-.519-.417-.687-.469-.28-.085-.64-.123-1.514-.19A35 35 0 0 0 9.519 4c-.993 0-1.867.038-2.62.096-.875.066-1.236.104-1.515.19-.169.05-.355.133-.687.468-.347.35-.423.534-.465.673-.075.244-.106.556-.16 1.38q-.035.498-.035 1.031c0 .49-.01.998-.019 1.512-.02 1.187-.043 2.406.046 3.502q.037.447.09.767a.18.18 0 0 0 .261.136q.175-.09.367-.216c.502-.334.967-.783 1.439-1.263M3.535 16c1.752 0 3.158-1.349 4.114-2.324h1.87c1.045 0 1.97-.04 2.773-.101 1.613-.123 2.42-.185 3.47-1.245s1.1-1.817 1.2-3.328a18 18 0 0 0 0-2.328c-.1-1.511-.15-2.267-1.2-3.327S13.904 2.225 12.29 2.1A37 37 0 0 0 9.518 2c-1.044 0-1.968.04-2.771.101-1.614.123-2.421.185-3.471 1.246s-1.1 1.817-1.2 3.329q-.039.557-.04 1.162c0 .414-.007.876-.016 1.362-.053 2.94-.121 6.8 1.514 6.8m4.705 2.33a4.5 4.5 0 0 1-.608-.742 1 1 0 1 1 1.66-1.115l.001-.001c.066.112.175.256.368.45.332.335.519.418.687.47.279.084.64.122 1.514.189a35 35 0 0 0 2.62.095h2.71l.588.6c.472.48.937.929 1.44 1.263q.19.128.366.216a.18.18 0 0 0 .262-.136q.052-.32.089-.767c.089-1.096.067-2.315.046-3.502a79 79 0 0 1-.019-1.512q0-.534-.034-1.03c-.055-.825-.086-1.137-.16-1.38-.042-.137-.115-.315-.443-.651A1 1 0 0 1 19 10.04c0-.552.45-1 1.005-1 .313 0 .593.143.778.366.993 1.03 1.043 1.786 1.141 3.27q.039.557.04 1.162c0 .415.007.876.016 1.362.053 2.94.122 6.8-1.514 6.8-1.752 0-3.158-1.349-4.114-2.324h-1.87c-1.045 0-1.97-.04-2.773-.101-1.613-.123-2.42-.185-3.47-1.245"/></svg>