<svg xmlns="http://www.w3.org/2000/svg" viewBox="0 0 16 16"><path fill-rule="evenodd" d="m3.66 8.327.445-.487h1.907q.788-.002 1.422-.045c.64-.042.887-.066 1.079-.125.11-.034.25-.093.513-.36.27-.273.324-.412.354-.51.053-.178.073-.406.104-1.024a12 12 0 0 0 0-1.211c-.031-.62-.051-.847-.104-1.024-.03-.099-.084-.238-.354-.511-.263-.267-.403-.326-.513-.36-.192-.058-.44-.083-1.08-.125a22 22 0 0 0-1.42-.045q-.788.002-1.421.045c-.64.042-.888.066-1.08.125-.111.034-.251.093-.514.36-.27.273-.324.412-.353.511-.053.178-.073.406-.105 1.025q-.015.293-.015.604c0 .349-.007.711-.013 1.078-.014.848-.029 1.721.03 2.506q.018.217.04.392a.09.09 0 0 0 .14.064c.32-.228.622-.539.937-.883M6.011 9.34H4.766C4.128 10.037 3.19 11 2.022 11 .932 11 .978 8.243 1.013 6.143c.006-.348.012-.677.012-.973q0-.351.017-.68c.058-1.133.086-1.7.888-2.513.801-.813 1.389-.852 2.564-.929Q5.175 1.002 6.012 1q.837.002 1.52.048c1.174.077 1.761.116 2.563.929.801.813.83 1.38.887 2.511a13 13 0 0 1 0 1.364c-.057 1.132-.086 1.698-.887 2.511-.802.814-1.389.852-2.563.93q-.683.045-1.52.047M12 5.965c0 .35.238.646.56.73.1.041.232.122.442.335.27.273.324.412.353.511.053.178.073.406.105 1.025q.015.293.015.604c0 .349.007.711.013 1.078.014.848.029 1.721-.03 2.506a9 9 0 0 1-.04.392.09.09 0 0 1-.14.064c-.32-.228-.622-.539-.937-.883l-.446-.487H9.988q-.788-.002-1.421-.045c-.64-.042-.888-.066-1.08-.125-.11-.034-.25-.093-.513-.36l-.037-.037a.753.753 0 0 0-1.336.482c0 .243.115.46.294.598l.01.01c.802.814 1.389.852 2.563.93q.683.045 1.52.047h1.246c.638.697 1.575 1.66 2.744 1.66 1.09 0 1.044-2.757 1.009-4.857a61 61 0 0 1-.012-.973q0-.351-.017-.68c-.058-1.133-.086-1.7-.888-2.513-.343-.349-.648-.555-.976-.683A.753.753 0 0 0 12 5.965"/></svg>