<svg xmlns="http://www.w3.org/2000/svg" viewBox="0 0 44 44"><path fill-rule="evenodd" d="m12.408 23.578.88-.893h4.747c2.07 0 3.868-.088 5.39-.215 1.525-.128 2.237-.202 2.804-.376.403-.123.797-.319 1.407-.932.632-.634.819-1.02.93-1.375.159-.512.225-1.148.34-2.59a30 30 0 0 0 0-4.71c-.115-1.441-.181-2.078-.34-2.589-.111-.355-.298-.74-.93-1.376L28.7 7.464l1.063-1.058c1.814 1.821 1.92 3.162 2.134 5.844a33 33 0 0 1 0 5.185c-.213 2.682-.32 4.023-2.134 5.844s-3.237 1.941-6.085 2.18a68 68 0 0 1-5.643.226h-3.49C12.758 27.495 10.134 30 6.863 30c-3.052 0-2.924-7.169-2.826-12.629.016-.903.032-1.76.032-2.529 0-.905.039-1.773.104-2.59.213-2.683.32-4.024 2.133-5.846 1.814-1.822 3.239-1.942 6.088-2.18A68 68 0 0 1 18.034 4c2.155 0 4.037.09 5.643.226 2.848.238 4.272.358 6.085 2.18L28.7 7.464l-1.063 1.058c-.61-.613-1.004-.808-1.407-.931-.567-.174-1.28-.248-2.803-.376A65 65 0 0 0 18.034 7c-2.07 0-3.867.087-5.39.215-1.524.128-2.237.202-2.804.376-.403.123-.798.319-1.408.931-.632.635-.818 1.021-.929 1.377-.16.512-.225 1.149-.34 2.59a30 30 0 0 0-.094 2.353c0 .883-.017 1.81-.034 2.755-.04 2.22-.082 4.541.087 6.613.088 1.075.222 1.89.378 2.46.04.148.189.235.336.195.56-.152 1.146-.433 1.769-.845 1.005-.666 1.92-1.547 2.803-2.442m1.83 9.701a9 9 0 0 1-.706-.792 1.5 1.5 0 0 1-.372-.987 1.506 1.506 0 0 1 2.757-.833c.117.147.263.31.447.495.61.613 1.004.809 1.407.932.567.174 1.279.248 2.803.376a65 65 0 0 0 5.392.215h4.745l.881.893c.883.895 1.797 1.776 2.803 2.441.623.413 1.21.694 1.77.846a.273.273 0 0 0 .335-.194c.156-.57.29-1.386.378-2.46.17-2.073.127-4.393.087-6.614-.017-.945-.034-1.873-.034-2.755 0-.82-.035-1.607-.094-2.352-.115-1.442-.18-2.08-.34-2.591-.11-.355-.297-.742-.93-1.377l-.049-.049A1.5 1.5 0 0 1 35 17.335a1.498 1.498 0 0 1 2.63-.99l.001-.002.063.063c1.814 1.822 1.92 3.163 2.133 5.846.065.818.104 1.685.104 2.59 0 .77.016 1.626.032 2.529C40.06 32.831 40.19 40 37.137 40c-3.271 0-5.895-2.505-7.68-4.315h-3.492c-2.154 0-4.036-.091-5.642-.226-2.848-.239-4.271-.358-6.085-2.18"/></svg>