<svg xmlns="http://www.w3.org/2000/svg" viewBox="0 0 44 44"><path fill-rule="evenodd" d="M27.94 18.113c.19-.133.56-.393.56-2.238 0-1.034-.568-2.21-1.837-3.227C25.397 11.634 23.679 11 22 11s-3.397.634-4.663 1.648c-1.27 1.017-1.837 2.193-1.837 3.227 0 1.845.37 2.105.56 2.238l.002.002c.56.395 2.061.885 5.938.885s5.377-.49 5.938-.885zM22 22c6.643 0 8.87-1.297 9.377-4.389.782.235 1.503.498 2.155.781 1.404.61 2.35 1.26 2.903 1.828.54.555.565.873.565.954 0 .082-.025.4-.565.954-.553.57-1.5 1.218-2.903 1.829C30.734 25.173 26.659 26 22 26c-4.66 0-8.734-.827-11.532-2.043-1.403-.61-2.35-1.26-2.903-1.829-.54-.554-.565-.872-.565-.954 0-.08.025-.399.565-.954.553-.568 1.5-1.218 2.903-1.828a20 20 0 0 1 2.155-.781C13.13 20.703 15.357 22 22 22m18-.826c0-2.835-3.47-5.319-8.663-6.691C30.466 10.797 26.249 8 22 8s-8.466 2.797-9.337 6.483C7.47 15.855 4 18.339 4 21.174c0 2.716 3.182 5.109 8.014 6.512L9.6 33.962a1.5 1.5 0 0 0 2.8 1.076l2.5-6.5q.03-.08.052-.16c1.727.32 3.593.525 5.548.595V32a1.5 1.5 0 0 0 3 0v-3.027c1.955-.07 3.82-.276 5.548-.596q.021.081.052.162l2.5 6.5a1.5 1.5 0 0 0 2.8-1.078l-2.414-6.275C36.818 26.283 40 23.89 40 21.174"/></svg>