<svg xmlns="http://www.w3.org/2000/svg" viewBox="0 0 16 16"><path fill-rule="evenodd" d="M11.25 4.875c0 1.588-.59 2.236-3.25 2.236s-3.25-.648-3.25-2.236S6.368 2 8 2s3.25 1.287 3.25 2.875m-7.461-.39q-.039.255-.039.518c0 2.214.767 3.123 4.21 3.13h.08c3.443-.007 4.21-.916 4.21-3.13q0-.264-.039-.518C13.905 5.166 15 6.248 15 7.467c0 1.28-1.207 2.409-3.047 3.081l.743 1.9a.773.773 0 0 1-.418.997.745.745 0 0 1-.974-.427l-.807-2.063q-.832.171-1.747.224v1.043a.76.76 0 0 1-.75.767.76.76 0 0 1-.75-.767v-1.043a12 12 0 0 1-1.747-.224l-.807 2.063a.745.745 0 0 1-.975.427.773.773 0 0 1-.417-.997l.743-1.9C2.207 9.876 1 8.746 1 7.467c0-1.219 1.095-2.301 2.789-2.982"/></svg>