<svg xmlns="http://www.w3.org/2000/svg" viewBox="0 0 16 16"><path fill-rule="evenodd" d="M10.423 6.156c.037-.105.077-.312.077-.706 0-.381-.201-.84-.695-1.251A2.9 2.9 0 0 0 8 3.533a2.9 2.9 0 0 0-1.805.666c-.494.411-.695.87-.695 1.25 0 .395.04.602.077.707.024.069.04.082.07.104.166.122.723.34 2.353.34s2.187-.218 2.354-.34c.03-.022.045-.035.069-.104M8 8.133c2.909 0 3.807-.614 3.97-2.088q.15.069.286.142c1.085.578 1.244 1.108 1.244 1.28s-.16.702-1.244 1.28c-1.012.54-2.514.92-4.256.92s-3.244-.38-4.256-.92C2.66 8.169 2.5 7.638 2.5 7.467s.16-.702 1.244-1.28q.137-.074.286-.142C4.193 7.519 5.09 8.133 8 8.133m7-.666c0-1.324-1.293-2.487-3.241-3.15C11.169 2.968 9.59 2 8 2s-3.17.968-3.759 2.317C2.293 4.98 1 6.143 1 7.467c0 1.28 1.207 2.409 3.047 3.081l-.743 1.9a.773.773 0 0 0 .417.997.745.745 0 0 0 .975-.427l.807-2.063q.832.171 1.747.224v1.043c0 .424.336.767.75.767s.75-.344.75-.767v-1.043q.915-.053 1.747-.224l.807 2.063c.153.393.59.584.974.427a.773.773 0 0 0 .418-.997l-.743-1.9C13.793 9.876 15 8.746 15 7.467"/></svg>