<svg xmlns="http://www.w3.org/2000/svg" viewBox="0 0 24 24"><path fill-rule="evenodd" d="M2.246 2.249C.496 3.999.366 5.744.106 9.232a38 38 0 0 0-.108 2.77c0 .932.04 1.865.108 2.77.26 3.487.39 5.231 2.14 6.982 1.75 1.75 3.495 1.88 6.983 2.14.904.067 1.837.108 2.77.108.932 0 1.865-.04 2.77-.108 3.487-.26 5.231-.39 6.982-2.14 1.75-1.75 1.88-3.495 2.14-6.983.067-.904.108-1.837.108-2.77 0-.932-.04-1.865-.108-2.77C23.63 5.745 23.5 4 21.75 2.25S18.255.37 14.767.11a38 38 0 0 0-2.77-.108c-.932 0-1.865.04-2.77.108-3.485.26-5.229.39-6.98 2.14m10.097 8.072-.029-.477c-.086-1.235.669-2.363 1.863-2.8.44-.157 1.185-.176 1.672-.04.191.059.554.253.812.428l.468.321.516-.165c.287-.088.669-.234.84-.331.163-.087.307-.136.307-.107 0 .165-.354.73-.65 1.04-.401.438-.287.477.525.186.488-.166.497-.166.402.019-.058.097-.354.438-.67.749-.534.535-.563.593-.563 1.04 0 .691-.325 2.13-.65 2.919-.601 1.478-1.891 3.005-3.181 3.773-1.815 1.08-4.232 1.352-6.267.72-.679-.214-1.844-.759-1.844-.856 0-.029.353-.068.783-.078a5.35 5.35 0 0 0 2.56-.72l.517-.31-.593-.205c-.84-.292-1.595-.963-1.786-1.595-.058-.204-.039-.214.496-.214l.554-.01-.468-.223c-.554-.282-1.06-.759-1.309-1.245-.181-.35-.41-1.236-.343-1.304.019-.029.22.03.449.107.659.244.745.185.363-.223-.717-.74-.937-1.839-.593-2.88l.163-.466.63.632c1.29 1.274 2.81 2.033 4.548 2.256z"/></svg>