<svg xmlns="http://www.w3.org/2000/svg" viewBox="0 0 32 32"><path fill-rule="evenodd" d="M2.995 2.998C.661 5.332.488 7.658.142 12.308a50 50 0 0 0-.144 3.694c0 1.243.054 2.487.144 3.693.346 4.65.52 6.976 2.853 9.31 2.335 2.334 4.66 2.507 9.31 2.853 1.206.09 2.45.144 3.694.144s2.487-.054 3.693-.144c4.65-.346 6.976-.519 9.31-2.853s2.507-4.66 2.853-9.31c.09-1.206.144-2.45.144-3.693a50 50 0 0 0-.144-3.693c-.346-4.651-.519-6.977-2.853-9.31C26.668.663 24.342.49 19.692.144A50 50 0 0 0 15.999 0a50 50 0 0 0-3.693.144C7.655.49 5.33.664 2.996 2.997M16.458 13.76l-.038-.635c-.115-1.647.892-3.152 2.484-3.735.586-.208 1.58-.234 2.23-.052.254.078.738.337 1.082.57l.624.428.688-.22c.382-.117.892-.311 1.121-.441.217-.117.408-.182.408-.143 0 .22-.472.973-.867 1.388-.535.583-.382.635.701.246.65-.22.663-.22.535.026-.076.13-.471.584-.892.999-.713.713-.751.79-.751 1.387 0 .921-.433 2.84-.866 3.89-.803 1.972-2.523 4.008-4.242 5.033-2.42 1.44-5.643 1.802-8.357.96-.904-.286-2.458-1.012-2.458-1.142 0-.039.47-.09 1.044-.104a7.1 7.1 0 0 0 3.414-.96l.688-.414-.79-.273c-1.12-.389-2.127-1.283-2.382-2.126-.076-.273-.05-.286.662-.286l.74-.013-.625-.298c-.739-.376-1.414-1.012-1.745-1.66-.242-.467-.548-1.647-.459-1.738.026-.039.293.04.6.143.878.324.993.246.483-.298-.955-.986-1.248-2.451-.79-3.839l.217-.623.84.844c1.72 1.698 3.746 2.71 6.064 3.008z"/></svg>