<svg xmlns="http://www.w3.org/2000/svg" viewBox="0 0 24 24"><path fill-rule="evenodd" d="M12.75 20a46 46 0 0 0 3.305-.162c2.025-.176 3.037-.264 4.327-1.56 1.29-1.294 1.37-2.265 1.532-4.208a25 25 0 0 0 0-4.14c-.162-1.943-.243-2.914-1.532-4.209s-2.302-1.383-4.328-1.559A46 46 0 0 0 12.75 4zm2.5-11.003a1 1 0 0 0 0 2.002h4a1 1 0 0 0 0-2.002zm0 4.003a1 1 0 0 0 0 2.001h2.25a1 1 0 0 0 0-2zm-4-9a46 46 0 0 0-3.305.162c-2.024.176-3.036.264-4.326 1.559S2.25 7.987 2.087 9.928a25 25 0 0 0 0 4.144c.162 1.942.243 2.912 1.532 4.207s2.302 1.383 4.326 1.558c.963.084 2.065.145 3.305.163zm-1.5 5.998a1 1 0 0 0-1-1h-4a1 1 0 0 0 0 2h4a1 1 0 0 0 1-1m0 4.003a1 1 0 0 0-1-1H6.5a1 1 0 0 0 0 2h2.25a1 1 0 0 0 1-1"/></svg>