<svg xmlns="http://www.w3.org/2000/svg" viewBox="0 0 44 44"><path fill-rule="evenodd" d="M18.922 25.083c.83.83 1.187 1.941 1.372 2.427l2.695 7.083c.084.222.184.315.234.352.198.147.328-.054.41-.23l7.606-16.481c1.738-3.767 2.9-6.3 3.454-8.114.147-.481.226-.831.267-1.08-.249.041-.599.12-1.08.267-1.814.555-4.347 1.716-8.114 3.454l-16.48 7.607c-.177.081-.378.213-.23.412.037.05.13.15.352.234l7.086 2.697c.486.184 1.598.542 2.428 1.372m-3.495 1.431c.736.28 1.104.42 1.373.69.27.27.41.637.69 1.373l2.695 7.082c1.122 2.949 4.85 3.177 6.172.313l7.605-16.48c3.395-7.356 5.092-11.034 3.336-12.79s-5.434-.059-12.789 3.336L8.03 17.644c-2.865 1.322-2.637 5.052.313 6.174z"/></svg>