<svg xmlns="http://www.w3.org/2000/svg" viewBox="0 0 24 24"><path fill-rule="evenodd" d="M10.485 13.513c.525.525.748 1.228.843 1.475l1.429 3.757 4.151-8.994c.982-2.129 1.624-3.53 1.928-4.525l.028-.095-.095.028c-.995.304-2.396.946-4.524 1.928L5.249 11.24l3.76 1.431c.248.094.95.318 1.476.843M8.298 14.54c.414.158.62.236.772.388s.23.359.388.773l1.516 3.983c.631 1.659 2.728 1.787 3.472.176l4.278-9.27c1.91-4.138 2.864-6.206 1.876-7.194s-3.056-.033-7.193 1.876L4.137 9.55c-1.612.743-1.484 2.841.175 3.473z"/></svg>