<svg xmlns="http://www.w3.org/2000/svg" viewBox="0 0 24 24"><path d="M11 4a1 1 0 1 0-2 0v2q0 .108.022.211c-.783.126-1.34.355-1.898.913s-.787 1.115-.913 1.898A1 1 0 0 0 6 9H4a1 1 0 0 0 0 2h2.029a18 18 0 0 0 0 2H4a1 1 0 1 0 0 2h2q.108 0 .211-.022c.126.783.355 1.34.913 1.898s1.115.787 1.898.913A1 1 0 0 0 9 18v2a1 1 0 1 0 2 0v-2.029a18 18 0 0 0 2 0V20a1 1 0 1 0 2 0v-2q0-.108-.022-.211c.783-.126 1.34-.355 1.898-.913s.787-1.115.913-1.898q.103.021.211.022h2a1 1 0 1 0 0-2h-2.029a18 18 0 0 0 0-2H20a1 1 0 1 0 0-2h-2q-.108 0-.211.022c-.126-.783-.355-1.34-.913-1.898s-1.115-.787-1.898-.913Q14.999 6.108 15 6V4a1 1 0 1 0-2 0v2.029a18 18 0 0 0-2 0z"/></svg>