<svg xmlns="http://www.w3.org/2000/svg" viewBox="0 0 24 24"><path fill-rule="evenodd" d="M10 3a1 1 0 0 1 1 1v2.029a18 18 0 0 1 2 0V4a1 1 0 1 1 2 0v2q0 .108-.022.211c.783.126 1.34.355 1.898.913s.787 1.115.913 1.898Q17.892 9.001 18 9h2a1 1 0 1 1 0 2h-2.029a18 18 0 0 1 0 2H20a1 1 0 1 1 0 2h-2q-.108 0-.211-.022c-.126.783-.355 1.34-.913 1.898s-1.115.787-1.898.913q.021.103.022.211v2a1 1 0 1 1-2 0v-2.029a18 18 0 0 1-2 0V20a1 1 0 1 1-2 0v-2q0-.108.022-.211c-.783-.126-1.34-.355-1.898-.913s-.787-1.115-.913-1.898A1 1 0 0 1 6 15H4a1 1 0 1 1 0-2h2.029a18 18 0 0 1 0-2H4a1 1 0 1 1 0-2h2q.108 0 .211.022c.126-.783.355-1.34.913-1.898s1.115-.787 1.898-.913A1 1 0 0 1 9 6V4a1 1 0 0 1 1-1m.764 5.049C11.174 8.018 11.59 8 12 8s.825.018 1.236.049c.936.07 1.385.11 1.717.196a.95.95 0 0 1 .509.293.95.95 0 0 1 .293.51c.086.331.127.78.196 1.716.031.41.049.827.049 1.236s-.018.825-.049 1.236c-.07.936-.11 1.385-.196 1.717a.95.95 0 0 1-.293.509.95.95 0 0 1-.51.293c-.331.086-.78.127-1.716.196-.41.031-.827.049-1.236.049s-.825-.018-1.236-.049c-.936-.07-1.385-.11-1.717-.196a.95.95 0 0 1-.509-.293.95.95 0 0 1-.293-.51c-.086-.331-.127-.78-.196-1.716C8.018 12.826 8 12.41 8 12s.018-.825.049-1.236c.07-.936.11-1.385.196-1.717a.95.95 0 0 1 .293-.509.95.95 0 0 1 .51-.293c.331-.086.78-.127 1.716-.196"/></svg>