<svg xmlns="http://www.w3.org/2000/svg" viewBox="0 0 16 16"><path d="M7.5 2.75a.75.75 0 0 0-1.5 0v1.399c-.442.103-.804.295-1.18.672-.377.377-.57.738-.673 1.179H2.75a.75.75 0 0 0 0 1.5h1.26l-.004.11q-.015.392 0 .782l.003.108H2.75a.75.75 0 0 0 0 1.5h1.396c.104.443.296.804.673 1.182s.739.569 1.181.672v1.396a.75.75 0 0 0 1.5 0v-1.258l.109.003q.391.015.781 0l.11-.003v1.258a.75.75 0 0 0 1.5 0v-1.396c.442-.104.803-.295 1.18-.672s.569-.74.672-1.182h1.398a.75.75 0 0 0 0-1.5h-1.26l.003-.108q.015-.391 0-.781L11.99 7.5h1.261a.75.75 0 0 0 0-1.5h-1.398c-.104-.441-.296-.802-.672-1.179s-.738-.568-1.18-.672V2.75a.75.75 0 0 0-1.5 0v1.261l-.11-.003q-.391-.015-.781 0l-.11.002z"/></svg>