<svg xmlns="http://www.w3.org/2000/svg" viewBox="0 0 24 24"><path d="M4.499 5.543C4.539 4.693 3.85 4 2.999 4c-.85 0-1.54.693-1.5 1.543.07 1.442.203 2.822.301 3.714.056.508.084.761.326.989.243.227.423.236.783.252a2 2 0 0 0 .18 0c.36-.017.54-.025.783-.252.242-.228.27-.481.326-.989.099-.892.232-2.272.301-3.714"/><path fill-rule="evenodd" d="M15.086 4.095A49 49 0 0 0 12 4c-2.066 0-3.782.12-5.14.277a.977.977 0 0 0-.86.977c0 .608.54 1.074 1.144 1.004q.427-.049.856-.087A45 45 0 0 1 12 6q1.067.001 2 .04V16H9.83a3.001 3.001 0 0 0-5.66 0H3.5a1 1 0 1 0 0 2h.671a3.001 3.001 0 0 0 5.659 0h4.341a3.001 3.001 0 0 0 5.659 0h.342a1 1 0 0 0 .867-.501c.668-.963.747-1.892.875-3.43.054-.649.086-1.343.086-2.069 0-.308-.09-.6-.18-.827a5 5 0 0 0-.366-.73 11 11 0 0 0-1.07-1.469A10 10 0 0 0 19.09 7.7a4.3 4.3 0 0 0-.696-.46c-.226-.115-.54-.24-.894-.24H16V5.079a.98.98 0 0 0-.914-.984M7 16a1 1 0 1 0 0 2 1 1 0 0 0 0-2m10 2a1 1 0 0 1-1-.992v-.015A1 1 0 1 1 17 18m2.7-2.312c.096-.374.144-.86.221-1.785.05-.599.08-1.237.08-1.903h-1.154a1 1 0 0 1-.986-.836L17.501 9H16v5.17a3 3 0 0 1 3.699 1.517"/><path d="M3 11.746a1.252 1.252 0 1 1 0 2.503 1.252 1.252 0 0 1 0-2.503"/></svg>