<svg xmlns="http://www.w3.org/2000/svg" viewBox="0 0 44 44"><path fill-rule="evenodd" d="M27.62 8.17a1.477 1.477 0 0 1 1.369 1.655q.01.087.01.175v3h2.899c1.092 0 2.133.505 2.976 1.083.877.6 1.717 1.401 2.443 2.257a14.5 14.5 0 0 1 1.854 2.747c.458.9.828 1.929.828 2.896V22c0 1.183-.051 2.316-.137 3.383-.257 3.21-.395 4.93-2.285 7.035a1.5 1.5 0 0 1-1.186.582h-.806a5.001 5.001 0 0 1-9.168 0h-8.832a5.001 5.001 0 0 1-9.168 0H6.498a1.5 1.5 0 0 1 0-3h1.603a5.002 5.002 0 0 1 9.8 0h8.098V11.088A89 89 0 0 0 22 11c-3.56 0-6.507.199-8.831.457q-.474.052-.946.112c-.908.114-1.723-.585-1.723-1.5 0-.742.546-1.373 1.282-1.467q.658-.084 1.387-.163C15.545 8.187 18.49 8 21.999 8c2.07 0 3.945.065 5.622.17M31.002 26c-.712 0-1.389.149-2.002.417V16h2.5l.749 4.48a1.8 1.8 0 0 0 1.775 1.503H37V22c0 1.097-.048 2.15-.127 3.143-.147 1.828-.236 2.755-.477 3.525a4 4 0 0 1-.544 1.112 5 5 0 0 0-4.85-3.78m-18 7a2 2 0 1 0 0-4 2 2 0 0 0 0 4m18-4a2 2 0 1 0 0 4 2 2 0 0 0 0-4"/><path d="M7.994 10.556C8.05 9.148 6.908 8 5.498 8s-2.552 1.148-2.496 2.556c.11 2.804.347 5.515.516 7.218.09.908.136 1.362.599 1.787.463.426.755.43 1.34.439h.082c.584-.009.876-.013 1.34-.439.463-.425.508-.879.598-1.786.17-1.704.406-4.414.517-7.219M5.499 22.495a2 2 0 1 1 0 4 2 2 0 0 1 0-4"/></svg>