<svg xmlns="http://www.w3.org/2000/svg" viewBox="0 0 16 16"><path fill-rule="evenodd" d="M8.004 2c-1.162 0-2.165.048-3.008.118-1.378.115-2.068.172-2.932 1.038s-.915 1.488-1.015 2.73a14 14 0 0 0 0 2.228c.1 1.242.15 1.863 1.015 2.73.864.866 1.554.923 2.932 1.038.843.07 1.846.118 3.008.118s2.165-.049 3.007-.118c1.38-.115 2.069-.172 2.933-1.038s.915-1.488 1.015-2.731a14 14 0 0 0 0-2.226c-.1-1.243-.15-1.864-1.015-2.73-.864-.867-1.554-.924-2.933-1.039A36 36 0 0 0 8.004 2M9.27 9H6.792C5.685 9 5 8.404 5 7.573S5.708 6.17 6.937 6.17C7.117 5.823 7.7 5 8.76 5 10.106 5 11 5.99 11 7.406 11 8.15 10.505 9 9.27 9"/><path d="M5.004 14.246a.75.75 0 0 1 .75-.75h4.5a.75.75 0 0 1 0 1.5h-4.5a.75.75 0 0 1-.75-.75"/></svg>