<svg xmlns="http://www.w3.org/2000/svg" viewBox="0 0 16 16"><path fill-rule="evenodd" d="M8.7 4.5c-1.05 0-1.727.578-2.085 1.035-.504.05-.964.197-1.335.462-.494.352-.78.884-.78 1.5 0 .6.267 1.13.73 1.491.447.35 1.034.512 1.664.512H9.17c.741 0 1.345-.25 1.762-.688.405-.425.569-.969.569-1.462 0-.788-.256-1.512-.768-2.043C10.217 4.773 9.5 4.5 8.7 4.5M7.687 6.622C7.803 6.407 8.142 6 8.7 6c.435 0 .748.136.952.348.207.215.348.547.348 1.002 0 .16-.05.317-.156.428-.094.1-.284.222-.675.222H6.894c-.385 0-.62-.1-.74-.194A.37.37 0 0 1 6 7.496c0-.114.038-.198.151-.278.137-.098.412-.203.876-.203h.447z"/><path fill-rule="evenodd" d="M13.94 10.844c-.864.866-1.554.924-2.933 1.038-.842.07-1.846.118-3.007.118s-2.165-.048-3.008-.118c-1.378-.115-2.068-.172-2.932-1.038s-.914-1.488-1.015-2.73a14 14 0 0 1 0-2.228c.1-1.242.15-1.863 1.015-2.73.865-.866 1.554-.923 2.932-1.037C5.835 2.049 6.838 2 8 2s2.164.049 3.007.119c1.38.114 2.069.171 2.933 1.038.865.866.915 1.488 1.015 2.73a14 14 0 0 1 0 2.226c-.1 1.243-.15 1.864-1.015 2.73M8 3.5c-1.12 0-2.082.047-2.884.114-.74.06-1.08.096-1.348.177-.186.057-.365.144-.646.425-.3.3-.38.473-.426.619-.071.222-.101.5-.155 1.172a12.4 12.4 0 0 0 0 1.987c.054.671.084.95.155 1.172.046.146.126.318.426.618.28.282.46.369.646.425.268.081.609.117 1.348.178.802.066 1.764.113 2.884.113s2.081-.046 2.883-.113c.74-.061 1.08-.097 1.35-.178.185-.056.365-.143.645-.425.3-.3.38-.472.427-.619.07-.222.1-.5.155-1.173a12.3 12.3 0 0 0 0-1.984c-.055-.672-.085-.95-.155-1.173-.047-.146-.127-.319-.427-.619-.28-.281-.46-.368-.646-.425-.268-.08-.61-.116-1.349-.178A35 35 0 0 0 8 3.5"/><path d="M5 14.246a.75.75 0 0 1 .75-.75h4.5a.75.75 0 0 1 0 1.5h-4.5a.75.75 0 0 1-.75-.75"/></svg>