<svg xmlns="http://www.w3.org/2000/svg" viewBox="0 0 24 24"><path fill-rule="evenodd" d="M4.004 12.001c0 1.55.068 2.903.168 4.056.175 2.024.263 3.036 1.557 4.325s2.264 1.37 4.205 1.532a25 25 0 0 0 4.14 0c1.94-.161 2.911-.242 4.205-1.532 1.294-1.289 1.381-2.301 1.557-4.325.1-1.153.168-2.506.168-4.056s-.068-2.901-.168-4.054c-.175-2.025-.263-3.038-1.557-4.327s-2.265-1.37-4.207-1.532a25 25 0 0 0-4.136 0c-1.942.162-2.913.242-4.207 1.532S4.347 5.922 4.172 7.947a47 47 0 0 0-.168 4.054m12.218 0c0-.77-.868-1.292-2.604-2.333l-.751-.451C11.555 8.43 10.743 8.02 10.145 8a.9.9 0 0 0-.498.117C9 8.484 9 9.407 9 11.404v1.193c0 1.997 0 2.92.647 3.286a.9.9 0 0 0 .498.117c.598-.02 1.41-.43 2.722-1.217l.75-.45c1.737-1.042 2.605-1.563 2.605-2.333"/></svg>