<svg xmlns="http://www.w3.org/2000/svg" viewBox="0 0 16 16"><path fill-rule="evenodd" d="M3.094 11.31c.107 1.25.16 1.874.973 2.682s1.422.857 2.643.954a16 16 0 0 0 2.58 0c1.22-.097 1.83-.146 2.644-.954.812-.808.865-1.432.972-2.681a27 27 0 0 0 .09-2.744A1 1 0 0 0 13 8.471l-.01-.282a28 28 0 0 0-.02-.538l-.22-5.924c-.03-.797-1.113-1.005-1.436-.278l-.78 1.751c-.35-.078-.746-.11-1.245-.15a16 16 0 0 0-2.578 0c-.498.04-.895.072-1.245.15l-.779-1.75C4.364.721 3.28.93 3.25 1.726L3.03 7.65a28 28 0 0 0-.02.539L3 8.47a1 1 0 0 0 .003.097Q3 8.778 3 9c0 .876.038 1.647.094 2.312m2.282-4.726a.75.75 0 0 1 1.04-.208l.75.5a.75.75 0 1 1-.832 1.248l-.75-.5a.75.75 0 0 1-.208-1.04m4.209-.209a.75.75 0 0 1 .83 1.25l-.75.498a.75.75 0 1 1-.83-1.25zM4.523 10.13q.023.57.066 1.053c.057.675.09.964.16 1.19.044.144.115.297.375.556.265.263.417.331.553.373.216.067.492.097 1.152.15a15 15 0 0 0 2.342 0c.66-.053.936-.083 1.152-.15.136-.042.288-.11.553-.373.26-.26.33-.412.376-.557.07-.225.102-.514.16-1.188q.046-.543.07-1.19l-2.34.877a3.4 3.4 0 0 1-2.27.042z"/></svg>