<svg xmlns="http://www.w3.org/2000/svg" viewBox="0 0 24 24"><path fill-rule="evenodd" d="m4.002 12.448.003-.057c.013-.944.058-1.8.12-2.568l.039-.451.337-6.42c.054-1.028 1.436-1.315 1.895-.396l.96 1.918c.706-.256 1.492-.315 2.579-.396a28 28 0 0 1 4.13 0c1.087.081 1.873.14 2.58.396l.96-1.918c.459-.92 1.84-.632 1.894.395l.338 6.421.038.45c.063.768.107 1.625.12 2.57l.004.056q.003.06 0 .12l.001.454c0 1.18-.05 2.233-.125 3.157-.16 1.948-.241 2.923-1.55 4.222s-2.292 1.374-4.257 1.52a28 28 0 0 1-4.135 0c-1.965-.146-2.948-.22-4.257-1.52-1.31-1.3-1.39-2.274-1.55-4.223a39 39 0 0 1-.124-3.61 1 1 0 0 1 0-.12m13.969 2.081-3.703 1.587a5.76 5.76 0 0 1-4.536 0L6.03 14.529q.03.796.09 1.485c.085 1.042.135 1.527.258 1.92.09.287.24.584.707 1.048.464.461.764.61 1.056.698.399.122.891.169 1.941.247a26 26 0 0 0 3.836 0c1.05-.078 1.543-.125 1.942-.247.292-.089.591-.237 1.056-.698.466-.463.616-.76.706-1.047.123-.393.174-.879.26-1.92q.056-.69.089-1.486M7.106 9.553a1 1 0 0 1 1.341-.447l2 1a1 1 0 0 1-.894 1.788l-2-1a1 1 0 0 1-.447-1.341m8.447-.447a1 1 0 0 1 .895 1.788l-2 1a1 1 0 0 1-.895-1.788z"/></svg>