<svg xmlns="http://www.w3.org/2000/svg" viewBox="0 0 24 24"><path fill-rule="evenodd" d="M5 5a2 2 0 0 1 2-2h2a2 2 0 0 1 2 2v2q0 .1-.01.192c.932.432 1.104 1.395 1.178 2.368.158 2.07.395 5.115.901 7.135.046.184.102.369.158.554.113.373.226.75.265 1.13.083.827-.488 1.766-1.258 2.067C10.96 20.943 9.344 21 8 21s-2.961-.057-4.234-.554c-.77-.3-1.341-1.24-1.258-2.067.038-.38.152-.757.265-1.13.056-.185.112-.37.158-.554.506-2.02.743-5.065.9-7.135.075-.973.247-1.936 1.179-2.368A2 2 0 0 1 5 7zm4 0v2H7V5zM4.55 18.604C5.426 18.93 6.664 19 8 19s2.574-.07 3.45-.396a.3.3 0 0 0 .046-.075c-.042-.284-.13-.562-.217-.84a9 9 0 0 1-.15-.508c-.521-2.081-.77-5.157-.932-7.181l-.015-.204c-.018-.268-.036-.54-.108-.796H5.926c-.072.256-.09.528-.108.796L5.804 10c-.163 2.024-.412 5.1-.933 7.181-.043.17-.096.339-.15.509-.087.277-.175.555-.217.838a.3.3 0 0 0 .046.076M16 3a1 1 0 0 1 1 1h3a1 1 0 0 1 1 1v5a1 1 0 0 1-1 1h-3v9a1 1 0 1 1-2 0V4a1 1 0 0 1 1-1m1 6V6h2v3z"/></svg>