<svg xmlns="http://www.w3.org/2000/svg" viewBox="0 0 16 16"><path fill-rule="evenodd" d="M3 3.5v1.751a1.33 1.33 0 0 0-.444.551c-.09.208-.11.47-.147.992l-.04.56c-.025.331-.037.497-.052.662a20 20 0 0 1-.562 3.244c-.041.16-.086.321-.174.641a2 2 0 0 0-.072.306c-.095.707.442 1.356 1.113 1.495.74.154 1.684.298 2.628.298s1.887-.144 2.628-.298c.67-.139 1.208-.788 1.113-1.495a2 2 0 0 0-.072-.306c-.088-.32-.133-.48-.174-.64a20 20 0 0 1-.562-3.245c-.015-.165-.027-.33-.051-.662l-.04-.56c-.039-.523-.058-.784-.148-.992a1.33 1.33 0 0 0-.444-.55V3.5A1.5 1.5 0 0 0 6 2H4.5A1.5 1.5 0 0 0 3 3.5m.936 3h2.628c.008.093.018.218.031.402l.042.575c.023.318.036.495.052.673a21.5 21.5 0 0 0 .772 4.107c-.662.132-1.45.243-2.211.243s-1.55-.111-2.211-.243c.08-.288.125-.453.168-.62a21.5 21.5 0 0 0 .656-4.16l.042-.575c.013-.184.023-.309.031-.402M6 5V3.5H4.5V5zm4.75-3a.75.75 0 0 1 .707.5h1.793a.75.75 0 0 1 .75.75v3.5a.75.75 0 0 1-.75.75H11.5v5.75a.75.75 0 0 1-1.5 0V2.75a.75.75 0 0 1 .75-.75m1.75 4h-1V4h1z"/></svg>