<svg xmlns="http://www.w3.org/2000/svg" viewBox="0 0 24 24"><path fill-rule="evenodd" d="M14 5.5c.41 0 .825.018 1.236.049.937.07 1.385.11 1.717.196a.95.95 0 0 1 .509.293.95.95 0 0 1 .293.51c.086.331.127.78.197 1.716.03.41.048.827.048 1.236s-.018.825-.048 1.236c-.07.936-.11 1.385-.197 1.717a.95.95 0 0 1-.293.509.95.95 0 0 1-.51.293c-.23.06-.518.098-.987.139a18 18 0 0 1 .011 2.006c1.362-.111 2.13-.254 2.9-1.024.875-.875.94-1.747 1.07-3.491.034-.452.054-.919.054-1.385s-.02-.933-.054-1.385c-.13-1.744-.195-2.616-1.07-3.491s-1.747-.94-3.491-1.07A19 19 0 0 0 14 3.5c-.466 0-.933.02-1.385.054-1.744.13-2.616.195-3.49 1.07-.876.875-.941 1.747-1.07 3.491q-.02.24-.031.486c-1.362.111-2.13.254-2.9 1.024-.875.875-.94 1.747-1.07 3.491-.034.453-.054.919-.054 1.385 0 .467.02.933.054 1.385.13 1.744.195 2.616 1.07 3.491.875.876 1.747.94 3.491 1.07.452.034.919.054 1.385.054s.933-.02 1.385-.054c1.744-.13 2.616-.194 3.491-1.07.875-.875.94-1.747 1.07-3.491.034-.452.054-.918.054-1.385s-.02-.932-.054-1.385c-.13-1.744-.195-2.616-1.07-3.49-.875-.876-1.747-.94-3.491-1.07a19 19 0 0 0-1.353-.055q.007-.12.017-.237c.07-.936.11-1.385.196-1.717a.95.95 0 0 1 .293-.509.95.95 0 0 1 .51-.293c.331-.086.78-.127 1.716-.196.41-.031.827-.049 1.236-.049m-2.764 5.05c-.41-.03-.827-.049-1.236-.049s-.825.018-1.236.049c-.936.07-1.385.11-1.717.196a.95.95 0 0 0-.509.293.95.95 0 0 0-.293.51c-.086.331-.127.78-.196 1.716-.031.411-.049.827-.049 1.236q.001.617.049 1.237c.07.936.11 1.384.196 1.716a.95.95 0 0 0 .293.509.96.96 0 0 0 .51.293c.331.087.78.127 1.716.197.41.03.827.048 1.236.048s.825-.018 1.236-.048c.936-.07 1.385-.11 1.717-.197a.96.96 0 0 0 .509-.293.95.95 0 0 0 .293-.509c.086-.332.127-.78.196-1.716.031-.412.049-.828.049-1.237s-.018-.825-.049-1.236c-.07-.936-.11-1.385-.196-1.716a.95.95 0 0 0-.293-.51.95.95 0 0 0-.51-.293c-.331-.086-.78-.127-1.716-.196"/></svg>