<svg xmlns="http://www.w3.org/2000/svg" viewBox="0 0 17 17"><path fill-rule="evenodd" d="M10.092 3.453c0-.783-.638-1.428-1.412-1.315-3.727.54-6.555 3.183-6.555 6.361s2.828 5.82 6.555 6.362c.774.112 1.412-.533 1.412-1.316zM3.718 8.499c0-2.048 1.81-4.13 4.78-4.714v9.429c-2.97-.585-4.78-2.667-4.78-4.715"/><path d="M11.686 3.988c0-.44.357-.797.797-.797h2.125a.797.797 0 0 1 0 1.594h-2.125a.797.797 0 0 1-.797-.797m0 3.008c0-.44.357-.797.797-.797h2.656a.797.797 0 0 1 0 1.594h-2.656a.797.797 0 0 1-.797-.797m.797 2.212a.797.797 0 1 0 0 1.593h2.656a.797.797 0 0 0 0-1.593zm-.797 3.805c0-.44.357-.796.797-.796h2.125a.797.797 0 0 1 0 1.593h-2.125a.797.797 0 0 1-.797-.797"/></svg>