<svg xmlns="http://www.w3.org/2000/svg" viewBox="0 0 32 32"><path d="M15.818 4.03c1.463-.24 2.68.98 2.68 2.463v19.014c0 1.482-1.217 2.702-2.68 2.463C9.08 26.867 3.998 21.927 3.998 16S9.08 5.133 15.818 4.03m5.186 4.224c0-.69.56-1.25 1.25-1.25h4.497a1.25 1.25 0 1 1 0 2.5h-4.497c-.69 0-1.25-.56-1.25-1.25m0 16.496c0-.69.56-1.25 1.25-1.25h4.497a1.25 1.25 0 0 1 0 2.5h-4.497c-.69 0-1.25-.56-1.25-1.25m1.25-12.247a1.25 1.25 0 0 0 0 2.5h5.497a1.25 1.25 0 0 0 0-2.5zm-1.25 6.749c0-.69.56-1.25 1.25-1.25h5.497a1.25 1.25 0 0 1 0 2.5h-5.497c-.69 0-1.25-.56-1.25-1.25"/></svg>