<svg xmlns="http://www.w3.org/2000/svg" viewBox="0 0 44 44"><path fill-rule="evenodd" d="M24.998 9.43c0-2.092-1.76-3.788-3.808-3.364C12.458 7.872 5.998 14.32 5.998 22s6.46 14.129 15.192 15.935c2.049.423 3.808-1.273 3.808-3.365zM8.998 22c0-5.84 5.008-11.385 12.8-12.996L21.813 9q.01.004.032.024c.066.06.153.2.153.405v25.14a.55.55 0 0 1-.154.406l-.03.023-.016-.002C14.006 33.385 8.998 27.84 8.998 22"/><path d="M28.998 11.5a1.5 1.5 0 0 1 1.5-1.5h6a1.5 1.5 0 1 1 0 3h-6a1.5 1.5 0 0 1-1.5-1.5m0 21a1.5 1.5 0 0 1 1.5-1.5h6a1.5 1.5 0 1 1 0 3h-6a1.5 1.5 0 0 1-1.5-1.5m1.5-15.5a1.5 1.5 0 0 0 0 3h8a1.5 1.5 0 1 0 0-3zm-1.5 8.5a1.5 1.5 0 0 1 1.5-1.5h8a1.5 1.5 0 1 1 0 3h-8a1.5 1.5 0 0 1-1.5-1.5"/></svg>