<svg xmlns="http://www.w3.org/2000/svg" viewBox="0 0 24 24"><path fill-rule="evenodd" d="M8.474 3a5.475 5.475 0 0 0-4.925 7.867q-.075.558-.074 1.133a8.526 8.526 0 0 0 9.658 8.45 5.475 5.475 0 0 0 7.317-7.318q.075-.555.075-1.132a8.526 8.526 0 0 0-9.658-8.45A5.45 5.45 0 0 0 8.474 3m3.434 4.001c-.546 0-1.352.11-2.06.475-.744.383-1.485 1.12-1.485 2.32 0 .508.098.98.327 1.398.232.422.56.72.914.934.575.348 1.32.522 1.929.664q.27.062.54.12.36.078.72.164l.029.008c.503.122 1.113.27 1.113.894 0 .318-.144.533-.498.721-.392.21-.927.303-1.34.303-.688 0-1.695-.232-2.131-1.113a1 1 0 1 0-1.793.886c.963 1.947 3.027 2.226 3.924 2.226.631 0 1.516-.129 2.281-.537.804-.428 1.557-1.225 1.557-2.486 0-.577-.136-1.098-.432-1.54-.292-.436-.687-.718-1.076-.91a5.7 5.7 0 0 0-1.162-.395q-.31-.074-.62-.14l-.54-.122c-.746-.176-1.175-.278-1.465-.454-.232-.14-.281-.305-.281-.567 0-.222.095-.437.404-.595.344-.177.81-.254 1.145-.254.695 0 1.55.234 1.926.81a1 1 0 0 0 1.674-1.095c-.948-1.45-2.71-1.715-3.6-1.715"/></svg>