<svg xmlns="http://www.w3.org/2000/svg" viewBox="0 0 44 44"><path fill-rule="evenodd" d="M37 9.81c0-.187 0-.28-.006-.355a1.78 1.78 0 0 0-2-1.614 5 5 0 0 0-.35.068l-1.084.235a17.76 17.76 0 0 1-10.354-.871 17.76 17.76 0 0 0-11.138-.683l-1.54.407a4 4 0 0 0-.376.108A1.78 1.78 0 0 0 9.01 8.59C9 8.68 9 8.78 9 8.98V36.5a1.5 1.5 0 0 0 3 0v-7.44l.068-.018a17.76 17.76 0 0 1 11.138.683 17.76 17.76 0 0 0 10.354.871l1.747-.377c.276-.06.413-.09.53-.133a1.78 1.78 0 0 0 1.145-1.419c.018-.124.018-.265.018-.546zm-10 1.544a20.8 20.8 0 0 1-4.909-1.296A14.8 14.8 0 0 0 19 9.196v8.216c-2.458-.405-4.486-.292-6.924.35l-.076.02v8.187a20.8 20.8 0 0 1 7-.379v-8.178c1.261.208 3.003.552 4.206 1.032 1.07.426 2.674.747 3.794.958v8.325c1.95.378 3.966.36 5.926-.064L34 27.43v-8.214l-.449.096c-2.333.503-4.229.529-6.551.09z"/></svg>