<svg xmlns="http://www.w3.org/2000/svg" viewBox="0 0 16 16"><path d="M6 7.001a2 2 0 1 1 4 0 2 2 0 0 1-4 0"/><path fill-rule="evenodd" d="M3.124 3.124c-.426.426-.66.85-.803 1.376h-.57a.75.75 0 1 0 0 1.5h.35l-.047.615C2.02 7.067 2 7.534 2 8s.02.933.054 1.385l.047.615h-.346a.75.75 0 1 0 0 1.5h.566c.143.525.377.95.803 1.376.875.875 1.747.94 3.491 1.07.452.034.919.054 1.385.054s.933-.02 1.385-.054c1.744-.13 2.616-.195 3.491-1.07s.94-1.747 1.07-3.491C13.98 8.933 14 8.466 14 8s-.02-.933-.054-1.385c-.13-1.744-.195-2.616-1.07-3.491s-1.747-.94-3.491-1.07A19 19 0 0 0 8 2c-.466 0-.933.02-1.385.054-1.744.13-2.616.195-3.491 1.07M8 3.5c-.423 0-.852.019-1.273.05-1.845.137-2.122.214-2.542.635-.42.42-.498.697-.635 2.542-.031.42-.05.85-.05 1.273s.019.852.05 1.273c.05.665.091 1.126.144 1.464 1.757-.443 2.742-.67 3.743-.72q.564-.028 1.13 0c1 .05 1.984.277 3.74.72.052-.338.094-.799.143-1.464.031-.42.05-.85.05-1.273s-.019-.852-.05-1.273c-.137-1.845-.214-2.122-.635-2.542-.42-.42-.697-.498-2.542-.635A17 17 0 0 0 8 3.5"/></svg>