<svg xmlns="http://www.w3.org/2000/svg" viewBox="0 0 28 28"><path fill-rule="evenodd" d="M3.095 11.461c-.062.829-.099 1.684-.099 2.539s.037 1.71.1 2.539q.055.79.115 1.461H2a1 1 0 1 0 0 2h1.484c.25 1.16.682 2.05 1.573 2.94 1.604 1.604 3.203 1.723 6.4 1.96.83.063 1.684.1 2.539.1s1.71-.037 2.539-.1c3.197-.237 4.796-.356 6.4-1.96s1.724-3.204 1.962-6.401c.062-.83.099-1.684.099-2.539s-.037-1.71-.099-2.539c-.238-3.197-.357-4.796-1.962-6.4s-3.203-1.724-6.4-1.962C15.706 3.037 14.85 3 13.996 3s-1.71.037-2.539.1c-3.197.237-4.796.356-6.4 1.96-.89.89-1.324 1.78-1.573 2.94H2a1 1 0 1 0 0 2h1.21q-.058.67-.115 1.461m10.9-4.24a4.28 4.28 0 1 0 .001 8.558 4.28 4.28 0 0 0 0-8.558m8.568 12.306c-3.646-.925-5.57-1.403-7.529-1.501a21 21 0 0 0-2.07 0c-1.959.097-3.885.576-7.535 1.501.19.932.478 1.434 1.042 1.998.998.998 1.803 1.134 5.135 1.382.788.058 1.592.093 2.39.093s1.602-.035 2.39-.093c3.332-.248 4.137-.384 5.135-1.382.564-.564.853-1.066 1.042-1.998"/></svg>