<svg xmlns="http://www.w3.org/2000/svg" viewBox="0 0 24 24"><path d="M8.499 10a3.501 3.501 0 1 1 7.002 0A3.501 3.501 0 0 1 8.5 10"/><path fill-rule="evenodd" d="M4.686 4.686C3.981 5.391 3.626 6.095 3.419 7H2a1 1 0 0 0 0 2h1.152q-.036.433-.07.923C3.03 10.6 3 11.3 3 12s.03 1.399.081 2.077q.035.49.071.923H2a1 1 0 1 0 0 2h1.42c.206.906.561 1.609 1.266 2.314 1.313 1.313 2.62 1.41 5.237 1.605C10.6 20.969 11.3 21 12 21s1.4-.03 2.077-.081c2.616-.195 3.924-.292 5.237-1.605s1.41-2.62 1.605-5.237C20.969 13.4 21 12.7 21 12s-.03-1.399-.081-2.077c-.195-2.616-.292-3.924-1.605-5.237s-2.62-1.41-5.237-1.605A28 28 0 0 0 12 3c-.7 0-1.399.03-2.077.081-2.616.195-3.924.292-5.237 1.605M12 5c-.642 0-1.292.028-1.929.076-2.75.204-3.265.318-3.97 1.024-.707.706-.82 1.22-1.025 3.971A26 26 0 0 0 5 12c0 .642.028 1.292.076 1.929.074 1.005.137 1.712.22 2.238 2.79-.705 4.313-1.065 5.86-1.142q.847-.042 1.694 0c1.546.078 3.067.437 5.853 1.142.084-.527.147-1.233.221-2.238.048-.637.076-1.287.076-1.929s-.028-1.292-.076-1.929c-.204-2.75-.318-3.265-1.024-3.97-.706-.707-1.22-.82-3.971-1.025A26 26 0 0 0 12 5"/></svg>