<svg xmlns="http://www.w3.org/2000/svg" viewBox="0 0 24 24"><path fill-rule="evenodd" d="M10.32 20.962c.292.038.638.038.98.038h1.4c.343 0 .688 0 .98-.038.34-.044.713-.149 1.05-.433.332-.28.5-.622.602-.948a7 7 0 0 0 .19-.887q.264-.14.514-.297a7 7 0 0 0 .866.279c.333.075.712.1 1.12-.047.415-.15.693-.42.9-.692.18-.234.353-.534.524-.83l.7-1.212c.171-.297.344-.596.457-.869.132-.316.227-.691.15-1.125-.077-.428-.289-.744-.52-.995a7 7 0 0 0-.676-.61 8 8 0 0 0 0-.592c.241-.201.486-.406.673-.61.231-.25.443-.566.52-.994.078-.434-.018-.81-.15-1.125a8 8 0 0 0-.457-.869l-.7-1.21a8 8 0 0 0-.523-.832c-.207-.271-.485-.542-.9-.692-.408-.147-.788-.122-1.121-.047-.27.061-.569.17-.863.279a8 8 0 0 0-.514-.297 7 7 0 0 0-.19-.888c-.102-.326-.27-.668-.602-.948-.337-.284-.71-.39-1.049-.433A8 8 0 0 0 12.699 3H11.3c-.343 0-.688 0-.981.038-.34.044-.712.149-1.05.433-.331.28-.5.622-.6.948a7 7 0 0 0-.191.888 8 8 0 0 0-.514.297 7 7 0 0 0-.865-.28c-.333-.075-.713-.1-1.121.047-.415.15-.693.42-.9.692-.18.235-.352.534-.524.831l-.7 1.212a8 8 0 0 0-.457.868c-.132.316-.227.692-.15 1.126.077.427.29.743.52.994.188.204.433.41.676.61a8 8 0 0 0 0 .592c-.242.2-.486.406-.674.609-.231.25-.443.567-.52.994-.077.434.018.81.15 1.126.113.272.286.571.457.868l.7 1.212c.171.296.344.596.523.83.207.272.485.543.9.692.408.148.788.122 1.121.047.27-.06.569-.17.863-.278q.25.159.515.298c.053.31.108.623.19.887.102.326.27.668.602.948.337.284.71.39 1.049.433M13 8.752a1.249 1.249 0 1 1-2.498-.001 1.249 1.249 0 0 1 2.498 0M13 12a1 1 0 0 0-1-1h-1.5a1 1 0 1 0 0 2h.5v2a1 1 0 1 0 2 0z"/></svg>