<svg xmlns="http://www.w3.org/2000/svg" viewBox="0 0 16 16"><path fill-rule="evenodd" d="M14.936 5.675c-.113-1.183-.17-1.774-.968-2.568-.799-.795-1.448-.853-2.747-.97C10.335 2.057 9.26 2 8 2s-2.336.057-3.221.137c-1.299.117-1.948.175-2.747.97s-.855 1.385-.968 2.566a14 14 0 0 0 0 2.654c.113 1.181.17 1.773.968 2.567.799.794 1.448.852 2.746.97a39 39 0 0 0 5.035.096l1.158.693c1.787 1.072 2.68 1.608 3.354 1.226.675-.382.675-1.424.675-3.506V6.986c0-.456-.025-.905-.064-1.311M8 8.625l-.07.05c-.824.599-1.236.898-1.511.815a.6.6 0 0 1-.295-.205c-.173-.23-.036-.72.24-1.701l-.029-.024c-.852-.692-1.277-1.039-1.225-1.368a.6.6 0 0 1 .057-.176c.154-.296.702-.323 1.799-.375.415-1.067.623-1.6.975-1.636a.6.6 0 0 1 .117 0c.353.036.56.57.976 1.636 1.096.052 1.645.079 1.798.375a.6.6 0 0 1 .058.176c.052.33-.374.676-1.226 1.368l-.028.024c.275.98.413 1.472.24 1.7a.58.58 0 0 1-.295.206c-.275.083-.688-.216-1.512-.816z"/></svg>