<svg xmlns="http://www.w3.org/2000/svg" viewBox="0 0 16 16"><path d="m8 8.624-.07.05c-.824.6-1.236.9-1.511.816a.6.6 0 0 1-.295-.205c-.173-.23-.036-.72.24-1.701l-.029-.024c-.852-.692-1.277-1.039-1.225-1.368a.6.6 0 0 1 .057-.176c.154-.296.702-.323 1.799-.375.415-1.067.623-1.6.975-1.636a.6.6 0 0 1 .117 0c.353.036.56.57.976 1.636 1.096.052 1.645.079 1.798.375a.6.6 0 0 1 .058.176c.052.33-.374.676-1.226 1.368l-.028.024c.275.98.413 1.472.24 1.7a.58.58 0 0 1-.295.206c-.275.083-.688-.216-1.512-.816z"/><path fill-rule="evenodd" d="M13.968 3.107c.799.794.855 1.385.968 2.568.039.406.063.855.064 1.311v3.387c0 2.082 0 3.124-.675 3.506-.674.382-1.567-.154-3.354-1.226l-1.158-.694a39 39 0 0 1-5.035-.096c-1.298-.117-1.947-.175-2.746-.97-.798-.793-.855-1.385-.968-2.566a14 14 0 0 1 0-2.654c.113-1.181.17-1.772.968-2.567.799-.794 1.448-.852 2.747-.97C5.664 2.058 6.739 2 8 2s2.335.057 3.22.137c1.3.117 1.95.175 2.748.97m-.468 7.266V6.988c0-.406-.022-.806-.057-1.17-.061-.641-.094-.904-.16-1.11-.043-.13-.111-.278-.373-.538-.245-.243-.398-.317-.562-.367-.247-.074-.563-.11-1.262-.172C10.246 3.555 9.216 3.5 8 3.5s-2.246.055-3.087.13c-.698.064-1.014.099-1.26.173-.165.05-.318.124-.563.367-.262.26-.33.408-.372.537-.067.207-.1.47-.16 1.11a12.4 12.4 0 0 0 0 2.367c.06.64.093.902.16 1.109.042.129.11.277.372.537.245.243.398.317.563.367.246.074.562.11 1.26.172a37 37 0 0 0 4.83.091l.453-.021 1.547.928c.802.481 1.326.792 1.713.976.041-.426.044-1.035.044-1.97"/></svg>