<svg xmlns="http://www.w3.org/2000/svg" viewBox="0 0 16 16"><path fill-rule="evenodd" d="M11.466 1.441a.76.76 0 0 1 .228.845L10.071 6.75h.911a.761.761 0 0 1 .651 1.152c-.107.177-1.435 2.362-2.581 3.606-1.469 1.594-3.357 2.922-3.599 3.09a.76.76 0 0 1-1.147-.884L5.929 9.25h-.911a.761.761 0 0 1-.651-1.152c.107-.177 1.435-2.362 2.582-3.606 1.468-1.594 3.356-2.922 3.598-3.09a.76.76 0 0 1 .919.04M9.399 4.21c-.45.393-.92.835-1.347 1.3-.57.617-1.208 1.522-1.685 2.241h.619A.76.76 0 0 1 7.7 8.77l-1.099 3.02c.45-.393.92-.835 1.348-1.3.569-.617 1.207-1.522 1.684-2.241h-.619A.76.76 0 0 1 8.3 7.23z"/></svg>