<svg xmlns="http://www.w3.org/2000/svg" viewBox="0 0 44 44"><path fill-rule="evenodd" d="M32.901 4.667a1.6 1.6 0 0 1 .225 1.888L26.075 19h6.212c1.243 0 2.176 1.498 1.227 2.626-.754.897-4.561 5.405-7.427 8.41-4.065 4.26-11.47 8.675-13.02 9.58-.71.415-1.511.2-1.966-.284a1.6 1.6 0 0 1-.224-1.889l7.053-12.417L11.707 25c-1.242-.005-2.166-1.501-1.22-2.627.752-.894 4.561-5.404 7.428-8.41 4.066-4.261 11.47-8.676 13.02-9.58.71-.415 1.511-.2 1.966.283M27.78 9.905c-2.596 1.74-5.645 3.982-7.694 6.13-1.73 1.812-3.825 4.204-5.351 5.978l5.6.022a1.6 1.6 0 0 1 1.385 2.39l-5.488 9.662c2.593-1.738 5.636-3.977 7.683-6.122 1.725-1.808 3.815-4.193 5.34-5.965h-5.583a1.6 1.6 0 0 1-1.392-2.389z"/></svg>