<svg xmlns="http://www.w3.org/2000/svg" viewBox="0 0 24 24"><path d="M14.25 13a2.25 2.25 0 1 1-4.5 0 2.25 2.25 0 0 1 4.5 0"/><path fill-rule="evenodd" d="M20.425 7.783c-.968-.973-1.781-1.269-2.974-1.424-.08-.598-.291-1.107-.854-1.797a6 6 0 0 0-.328-.355c-1.029-.988-1.75-1.046-3.195-1.162A13 13 0 0 0 12 3c-.383 0-.768.019-1.145.05-1.302.11-1.953.165-2.924.98a6 6 0 0 0-.698.76c-.428.607-.605 1.06-.679 1.568-1.196.155-2.01.45-2.98 1.425-1.301 1.31-1.372 2.25-1.514 4.132a21.6 21.6 0 0 0 0 3.238c.142 1.882.213 2.824 1.514 4.133 1.302 1.31 2.325 1.392 4.371 1.558C9.098 20.937 10.45 21 12 21s2.9-.063 4.053-.156c2.047-.166 3.07-.249 4.372-1.558s1.373-2.251 1.514-4.135a22 22 0 0 0 0-3.234c-.141-1.883-.212-2.825-1.514-4.134M16.25 13a4.25 4.25 0 1 1-8.5 0 4.25 4.25 0 0 1 8.5 0"/></svg>