<svg xmlns="http://www.w3.org/2000/svg" viewBox="0 0 44 44"><path fill-rule="evenodd" d="M37.18 15.122c-1.8-1.82-3.306-2.358-5.526-2.634l-.02-.204c-.204-2.026-.306-3.04-1.46-4.273s-1.97-1.371-3.604-1.647A27.5 27.5 0 0 0 22 6a27.5 27.5 0 0 0-4.57.364c-1.633.276-2.45.414-3.603 1.647s-1.256 2.246-1.46 4.271l-.02.206c-2.22.276-3.726.814-5.527 2.633-2.406 2.431-2.518 4.118-2.74 7.492a36 36 0 0 0 0 4.774c.222 3.374.334 5.06 2.74 7.492 2.406 2.43 4.285 2.574 8.042 2.86 2.04.157 4.42.261 7.138.261a94 94 0 0 0 7.136-.26c3.759-.287 5.639-.43 8.045-2.862s2.517-4.119 2.74-7.494a36 36 0 0 0 0-4.768c-.223-3.375-.334-5.063-2.74-7.494M26 24a4 4 0 1 1-8 0 4 4 0 0 1 8 0m3 0a7 7 0 1 1-14 0 7 7 0 0 1 14 0"/></svg>