<svg xmlns="http://www.w3.org/2000/svg" viewBox="0 0 28 28"><g fill-rule="evenodd" clip-rule="evenodd"><path d="M18.752 15.486A4.75 4.75 0 0 1 14 20.236a4.75 4.75 0 1 1 0-9.5 4.75 4.75 0 0 1 4.752 4.75m-2 0A2.75 2.75 0 0 1 14 18.236a2.75 2.75 0 1 1 2.752-2.75"/><path d="M3.875 8.926c-1.508 1.512-1.6 2.623-1.783 4.844a26.5 26.5 0 0 0 0 4.362c.183 2.222.275 3.332 1.783 4.844s2.704 1.613 5.096 1.817c1.418.12 3.095.203 5.029.203s3.61-.083 5.028-.203c2.393-.204 3.59-.305 5.097-1.817s1.6-2.623 1.783-4.846a26.5 26.5 0 0 0 0-4.358c-.183-2.222-.275-3.334-1.783-4.845-1.146-1.15-2.112-1.484-3.56-1.668-.068-1.012-.297-1.728-1.178-2.678-1.18-1.273-2.117-1.354-3.991-1.518A17 17 0 0 0 14 3c-.446 0-.893.021-1.332.058-1.88.156-2.821.234-3.998 1.448l-.153.167C7.72 5.585 7.494 6.291 7.43 7.26c-1.445.184-2.41.519-3.555 1.666m14.804.11 1.634.207c.637.081 1.024.179 1.336.317.296.131.625.343 1.06.779.572.573.776.96.897 1.344.153.488.212 1.076.309 2.254a24.6 24.6 0 0 1 0 4.029c-.097 1.178-.156 1.766-.31 2.253-.12.384-.324.771-.896 1.344-.553.556-.952.767-1.384.899-.541.165-1.203.23-2.466.338a58 58 0 0 1-4.859.196c-1.876 0-3.497-.08-4.86-.196-1.262-.107-1.924-.173-2.465-.338-.431-.132-.83-.343-1.384-.898-.572-.574-.776-.961-.896-1.344-.154-.487-.213-1.075-.31-2.252a24.5 24.5 0 0 1 0-4.033c.097-1.178.156-1.765.31-2.252.12-.383.324-.771.896-1.344.435-.436.763-.648 1.059-.778.312-.139.698-.236 1.332-.317l1.635-.208.108-1.644c.024-.359.07-.553.131-.705.06-.152.177-.365.466-.695l.011-.013.033-.035.032-.036.012-.012c.387-.4.635-.522.887-.6.365-.113.829-.161 1.838-.245Q13.425 5 14 5c.403 0 .813.02 1.221.056 1.008.088 1.458.138 1.813.253.239.077.488.203.886.632.326.352.45.573.512.721.062.15.11.344.136.73z"/></g></svg>