<svg xmlns="http://www.w3.org/2000/svg" viewBox="0 0 32 32"><path fill-rule="evenodd" d="M14.05 6.307A21 21 0 0 1 16 6.22c.727 0 1.377.034 1.95.087.801.074 1.01.107 1.166.157h.002c.056.019.216.07.6.419.331.3.398.453.443.584.085.25.127.579.205 1.44q.043.462.075.965.022.446.037.915h.009v.004l.279.017.147.012c1.45.116 2.17.187 2.754.374.445.142.875.375 1.503 1.043.66.701.866 1.138.981 1.53.155.525.209 1.16.296 2.547a27 27 0 0 1 0 3.372c-.087 1.388-.141 2.022-.296 2.547-.115.392-.322.829-.98 1.53-.63.668-1.059.901-1.504 1.043-.584.187-1.304.258-2.754.374a61 61 0 0 1-4.913.188c-1.877 0-3.516-.075-4.915-.188-1.449-.116-2.169-.187-2.752-.374-.445-.142-.874-.375-1.503-1.043-.66-.701-.866-1.138-.98-1.529-.155-.525-.21-1.159-.296-2.546a27 27 0 0 1 0-3.376c.087-1.387.14-2.021.295-2.546.115-.391.322-.828.981-1.529.629-.668 1.058-.901 1.503-1.043.584-.187 1.303-.258 2.752-.374l.15-.012.278-.017v-.004h.009q.015-.471.037-.918.032-.503.075-.964c.078-.86.12-1.19.205-1.438.045-.131.112-.284.443-.584.384-.349.544-.4.6-.418h.002c.156-.051.365-.084 1.166-.158m7.46-.975c1.045.947 1.19 1.69 1.32 3.025 1.667.207 2.78.607 4.117 2.029 1.75 1.861 1.831 3.159 1.994 5.755a30 30 0 0 1 0 3.718c-.163 2.596-.244 3.894-1.994 5.755s-3.114 1.97-5.843 2.19A64 64 0 0 1 16 28c-1.94 0-3.643-.078-5.105-.196-2.728-.22-4.092-.33-5.842-2.19s-1.83-3.158-1.994-5.752a30 30 0 0 1 0-3.724c.163-2.594.245-3.892 1.994-5.752 1.338-1.422 2.45-1.822 4.118-2.029.129-1.336.274-2.077 1.32-3.025 1.136-1.032 1.857-1.1 3.298-1.233C14.448 4.038 15.185 4 16 4s1.552.038 2.21.099c1.442.134 2.163.2 3.3 1.233M16.01 8h-.02zm2.49 9.5a2.5 2.5 0 1 1-5 0 2.5 2.5 0 0 1 5 0m2.5 0a5 5 0 1 1-10 0 5 5 0 0 1 10 0"/></svg>