<svg xmlns="http://www.w3.org/2000/svg" viewBox="0 0 16 16"><path d="M9.167 9a1.167 1.167 0 1 1-2.334 0 1.167 1.167 0 0 1 2.334 0"/><path fill-rule="evenodd" d="M13.941 5.202c-.724-.726-1.325-.884-2.31-.984-.055-.389-.197-.725-.566-1.176a4 4 0 0 0-.22-.238c-.685-.658-1.166-.696-2.129-.774A9 9 0 0 0 8 2c-.255 0-.512.013-.763.034-.868.073-1.302.11-1.95.653a4 4 0 0 0-.465.506c-.28.397-.399.695-.45 1.025-.987.1-1.589.257-2.314.984-.865.867-.914 1.486-1.014 2.725a14 14 0 0 0 0 2.191c.1 1.24.15 1.86 1.014 2.726.865.867 1.554.924 2.933 1.038.843.07 1.847.118 3.009.118s2.164-.048 3.007-.118c1.38-.114 2.07-.17 2.934-1.038.865-.867.915-1.487 1.014-2.727a14 14 0 0 0 0-2.188c-.1-1.24-.149-1.86-1.014-2.727M10.667 9a2.667 2.667 0 1 1-5.334 0 2.667 2.667 0 0 1 5.334 0"/></svg>