<svg xmlns="http://www.w3.org/2000/svg" viewBox="0 0 32 32"><path fill-rule="evenodd" d="M21.51 5.332c1.045.947 1.19 1.69 1.32 3.025 1.667.207 2.78.607 4.117 2.029 1.75 1.861 1.831 3.159 1.994 5.755a30 30 0 0 1 0 3.718c-.163 2.596-.244 3.894-1.994 5.755s-3.114 1.97-5.843 2.19A64 64 0 0 1 16 28c-1.94 0-3.643-.078-5.105-.196-2.728-.22-4.092-.33-5.842-2.19s-1.83-3.158-1.994-5.752a30 30 0 0 1 0-3.724c.163-2.594.245-3.892 1.994-5.752 1.338-1.422 2.45-1.822 4.118-2.029.129-1.336.274-2.077 1.32-3.025 1.136-1.032 1.857-1.1 3.298-1.233C14.448 4.038 15.185 4 16 4s1.552.038 2.21.1c1.442.133 2.163.2 3.3 1.232M18.5 17.5a2.5 2.5 0 1 1-5 0 2.5 2.5 0 0 1 5 0m2.5 0a5 5 0 1 1-10 0 5 5 0 0 1 10 0"/></svg>