<svg xmlns="http://www.w3.org/2000/svg" viewBox="0 0 16 16"><path fill-rule="evenodd" d="m3.735 12.416.33-1.094q.06-.287.127-.58c.094-.424.188-.844.234-1.195l.099-.744.001-.009-.77.212-.25.082a1.4 1.4 0 0 1-.428.03h-.002l-.123-.012a.663.663 0 0 1-.557-.853c.267-.841.659-1.635 1.152-2.141.247-.254.524-.44.829-.52.307-.08.632-.05.967.116.11.055.276.153.414.271.07.06.136.126.185.198.046.078.1.193.117.292q.686-.279 1.652-.168l-.001-.012-.027-.291a9 9 0 0 1-.018-1.119c.047-1.046.472-1.903 1.248-2.576.224-.194.534-.38.858-.52.324-.142.67-.242.968-.259l.408-.023a.66.66 0 0 1 .68.543l.001.007.01.09.017.335.037.594a.5.5 0 0 0 .14.311l.617.616.06.058c.353.34.49.761.379 1.246-.112.473-.413.796-.878.93-.4.11-.772.027-1.09-.225l.133.603c.12.535.246 1.016.373 1.499.085.323.17.648.254.99l.122.522q.061.264.157.97l.086.662.067 1.13c.109-.076.21-.157.292-.237.27-.262.447-.569.93-1.456a.79.79 0 0 1 1.052-.314.75.75 0 0 1 .322 1.025l-.048.088c-.418.77-.703 1.292-1.161 1.735a4.6 4.6 0 0 1-1.534.947c-.606.215-1.155.24-1.956.277l-.081.004a46 46 0 0 1-4.258 0l-.081-.004c-.801-.037-1.35-.062-1.956-.277a4.55 4.55 0 0 1-1.534-.948c-.458-.442-.743-.965-1.161-1.734L1.09 11.4a.75.75 0 0 1 .322-1.025.79.79 0 0 1 1.052.314c.483.887.659 1.194.93 1.456.095.092.213.185.34.271m2.653.537a45 45 0 0 0 3.394-.006l-.077-.585c-.127-.826-.392-1.295-.694-1.559-.301-.262-.654-.334-.988-.334-.322 0-.63.107-.897.402-.27.299-.505.797-.658 1.592z"/></svg>