<svg xmlns="http://www.w3.org/2000/svg" viewBox="0 0 16 16"><path fill-rule="evenodd" d="m12.913 11.598.032.556c.148-.232.322-.553.59-1.058a.778.778 0 0 1 1.374.729l-.048.09c-.418.787-.703 1.323-1.161 1.776a4.5 4.5 0 0 1-1.534.971c-.606.22-1.155.246-1.956.283l-.081.004a45 45 0 0 1-4.258 0l-.081-.004c-.801-.037-1.35-.063-1.956-.283a4.5 4.5 0 0 1-1.534-.97c-.458-.454-.743-.99-1.161-1.778l-.048-.09a.777.777 0 1 1 1.374-.728c.348.654.536 1 .716 1.243l.225-.766q.066-.318.13-.614c.068-.308.13-.598.176-.861l-.007.002-.023.007c-.217.058-.44.067-.65.052H3.02l-.141-.014-.01-.002a1.35 1.35 0 0 1-1.118-1.74c.28-.907.711-1.833 1.307-2.46.303-.318.683-.595 1.143-.719a2 2 0 0 1 1.447.17c.147.074.362.204.553.37.08.07.172.16.254.27q.17-.03.35-.044l.182-.012a8 8 0 0 1 0-.874c.056-1.252.561-2.301 1.474-3.112.287-.254.66-.479 1.032-.644.367-.164.796-.298 1.202-.322l.408-.024c.707-.04 1.27.476 1.383 1.11l.005.027.014.136.019.362.032.542.569.58.055.055c.513.506.723 1.171.561 1.9v.005c-.164.709-.635 1.237-1.344 1.446l-.008.002a2 2 0 0 1-.374.069c.083.353.168.68.254 1.016.085.332.173.671.263 1.049l.002.007.122.535c.048.214.104.576.167 1.054v.003zM9.495 3.154c.141-.125.37-.27.632-.387.267-.119.505-.18.66-.19l.177-.01.007.152.038.617v.002c.02.326.155.638.386.876l.003.002.619.632.004.004.062.062.003.004c.143.14.18.264.138.456-.043.186-.122.257-.262.3-.11.03-.195.02-.322-.096l-.002-.002-.013-.018s-.289-.264-.44-.304a.81.81 0 0 0-.873.334.8.8 0 0 0-.114.624l.19.882c.121.555.257 1.086.389 1.598q.127.492.242.965l.12.53c.031.135.079.428.142.91v.003l.082.64.079 1.35v.172c-.202.054-.424.08-.777.103l-.087-.677v-.008c-.146-.964-.47-1.668-.98-2.123-.517-.463-1.112-.567-1.576-.566-.554 0-1.11.203-1.557.709-.419.474-.696 1.161-.864 2.052l-.002.01-.098.613c-.47-.026-.73-.053-.969-.12l.386-1.309.006-.033c.033-.164.073-.346.114-.537.099-.452.207-.949.258-1.347l.098-.756c.143-1.006.709-1.676 1.523-1.732h.006c.247-.02.65-.04.84-.05l.1-.006a.8.8 0 0 0 .719-.571.9.9 0 0 0 .031-.32v-.002L8.6 6.49l-.001-.01c-.077-.635-.077-.868-.057-1.304v-.002c.037-.834.356-1.49.953-2.02M4.961 6.787a.5.5 0 0 0-.356-.062c-.1.027-.243.105-.418.289-.176.162-.56.693-.69 1.517l.506-.143c.181-.592.496-1.163.957-1.6m4.077 6.116.068.529a43 43 0 0 1-2.04.004l.066-.407c.142-.75.343-1.123.5-1.3a.47.47 0 0 1 .391-.184c.235 0 .403.05.539.17.144.129.362.438.476 1.188"/></svg>