<svg xmlns="http://www.w3.org/2000/svg" viewBox="0 0 32 32"><path fill-rule="evenodd" d="M16 6c-2.014 0-3.77.084-5.269.21-2.649.22-3.973.33-5.659 2.024s-1.783 2.933-1.98 5.415a30 30 0 0 0 0 4.702c.197 2.482.295 3.722 1.98 5.415s3.01 1.804 5.659 2.025c1.498.125 3.255.209 5.268.209s3.77-.084 5.268-.21c2.65-.22 3.975-.33 5.66-2.024s1.784-2.935 1.98-5.417a30 30 0 0 0 0-4.697c-.196-2.483-.294-3.725-1.98-5.418s-3.01-1.804-5.66-2.025A64 64 0 0 0 16 6m-6.75 8.933v-2.934H7v8h2.25v-3.095h.327L11.658 20h2.6l-2.814-4.186 2.588-3.815h-2.374l-2.014 2.934zm11.34 1.646L19.565 12h-3.657v8h2.081v-6.052l1.182 5.102h2.396l1.182-5.102V20H25v-8h-3.375z"/></svg>