<svg xmlns="http://www.w3.org/2000/svg" viewBox="0 0 24 24"><path fill-rule="evenodd" d="M12 4c-1.55 0-2.902.068-4.055.168-2.024.175-3.036.263-4.326 1.557S2.25 7.99 2.087 9.93a25 25 0 0 0 0 4.14c.162 1.94.243 2.911 1.532 4.205s2.302 1.382 4.326 1.557c1.153.1 2.505.168 4.055.168s2.902-.067 4.055-.168c2.025-.175 3.037-.263 4.327-1.557s1.37-2.265 1.532-4.206a25 25 0 0 0 0-4.137c-.162-1.942-.243-2.913-1.532-4.207s-2.302-1.382-4.328-1.557A47 47 0 0 0 12 4m-5.27 7.2V9H5v6h1.73v-2.322h.251L8.581 15h1.999l-2.163-3.14L10.407 9H8.582l-1.55 2.2zm8.878 1.235L14.821 9H12.01v6h1.6v-4.54l.91 3.827h1.842l.908-3.826V15H19V9h-2.595z"/></svg>