<svg xmlns="http://www.w3.org/2000/svg" viewBox="0 0 24 24"><path fill-rule="evenodd" d="M5.501 3.713C7.311 2.899 9.805 2 12 2s4.69.899 6.499 1.713c1.171.526 1.757.79 2.16 1.45s.368 1.33.297 2.667c-.202 3.804-.95 7.54-3.348 10.62C16.42 19.972 13.934 22 12 22s-4.42-2.027-5.608-3.55c-2.399-3.08-3.146-6.816-3.348-10.62-.07-1.337-.106-2.006.297-2.667.403-.66.989-.924 2.16-1.45m4.741 5.757a1 1 0 1 0-.485-1.94l-2 .5a1 1 0 0 0 .486 1.94zm2.788-1.213a1 1 0 0 0 .728 1.213l2 .5a1 1 0 1 0 .485-1.94l-2-.5a1 1 0 0 0-1.213.727m1.957 7.493a.76.76 0 0 0 .736-.95 4.8 4.8 0 0 0-.78-1.576c-.556-.734-1.496-1.474-2.943-1.474s-2.387.74-2.944 1.474a4.8 4.8 0 0 0-.78 1.577.758.758 0 0 0 .737.949z"/></svg>