<svg xmlns="http://www.w3.org/2000/svg" viewBox="0 0 44 44"><path fill-rule="evenodd" d="M7.673 7.857C10.2 6.519 15.76 4 21.955 4c5.562 0 11.57 2.612 14.216 3.902a4.13 4.13 0 0 1 2.329 3.745c-.014 2.398-.24 7.055-1.604 11.77-1.209 4.177-3.572 8.243-6.228 11.28-1.33 1.521-2.767 2.821-4.21 3.752-1.425.918-2.975 1.551-4.502 1.551-1.535 0-3.075-.645-4.479-1.573-1.422-.941-2.825-2.253-4.118-3.78-2.581-3.05-4.852-7.116-6-11.246-1.296-4.665-1.715-9.279-1.852-11.665-.091-1.59.716-3.112 2.166-3.879m11.241 9.585a1.5 1.5 0 1 0-.824-2.884l-3.504 1a1.5 1.5 0 1 0 .825 2.884zm5.15-1.854a1.5 1.5 0 0 0 1.032 1.854l3.503 1a1.5 1.5 0 1 0 .825-2.885l-3.503-1a1.5 1.5 0 0 0-1.856 1.03m-7.05 13.162c-.666 0-1.448-.619-1.228-1.548a8.7 8.7 0 0 1 1.255-2.764c.907-1.305 2.482-2.688 4.964-2.688s4.058 1.383 4.965 2.688a8.7 8.7 0 0 1 1.255 2.764c.22.929-.562 1.548-1.228 1.548z"/></svg>