<svg xmlns="http://www.w3.org/2000/svg" viewBox="0 0 16 16"><path fill-rule="evenodd" d="M5.57.5A2.43 2.43 0 0 1 8 2.93V6.5h4.792c.737 0 1.35.605 1.179 1.321a5.7 5.7 0 0 1-1.056 2.19c-1.034 1.398-1.674 2.274-1.674 2.864 0 .153.024.454.69.65.32.095.57.42.569.754 0 .368-.297.721-.665.721h-8.17a.667.667 0 0 1-.662-.743l.577-5.008C3.23 8.613 3 7.97 3 7.25c0-2.07.005-3.645.358-5.094C3.617 1.092 4.603.5 5.57.5m.93 2.43V6.5H4.501c.007-1.706.05-2.902.315-3.99.066-.271.347-.51.754-.51a.93.93 0 0 1 .93.93M4.71 8.147 4.65 8h7.7c-.418 1.09-1.33 1.979-1.935 2.956-.293.473-.675 1.16-.675 1.919 0 .118.006.35.094.625H4.6l.314-2.723q.444.355.946.614a.75.75 0 1 0 .749-1.3 4.1 4.1 0 0 1-1.054-.747 4 4 0 0 1-.845-1.197"/></svg>