<svg xmlns="http://www.w3.org/2000/svg" viewBox="0 0 16 16"><path fill-rule="evenodd" d="M10.334 2.5c1.257 0 1.885 0 2.276.39.314.315.375.784.387 1.61h.87q.238 0 .446.016c.967.07 1.585.907 1.65 1.874a17 17 0 0 1 0 2.22c-.065.967-.683 1.803-1.65 1.874q-.208.015-.446.016h-.94q-.018.269-.042.5c-.159 1.519-1.33 2.76-2.885 2.922q-.27.026-.595.047-.434.03-.905.031H7.459q-.276 0-.569-.06c-.678-.144-1.276-.264-1.89-.264s-1.212.12-1.89.264c-1.74.37-3.142-1.021-3.11-2.682.026-1.29.748-2.364 1.68-3.09A5.6 5.6 0 0 1 4 7.102V5.166c0-1.257 0-1.885.39-2.275C4.782 2.5 5.41 2.5 6.667 2.5zM5.5 7.026a5.6 5.6 0 0 1 2.82 1.142c.932.726 1.654 1.8 1.68 3.09.008.418-.075.818-.23 1.178.259-.023.39-.046.502-.084.417-.14.902-.631 1.038-1.049.061-.185.086-.415.13-1.041.036-.529.06-1.143.06-1.849V5.166c0-.568-.002-.907-.023-1.143-.236-.02-.575-.023-1.143-.023H6.666c-.567 0-.907.002-1.143.023-.02.236-.023.575-.023 1.143zM13 8.413q0 .303-.005.587h.872q.183 0 .336-.012c.076-.005.074-.01.123-.068a.73.73 0 0 0 .14-.411 15 15 0 0 0 0-2.018.73.73 0 0 0-.14-.411c-.049-.059-.047-.063-.123-.068A5 5 0 0 0 13.868 6H13zm-9.554.433C3.946 8.623 4.486 8.5 5 8.5c.513 0 1.054.123 1.554.346l-1.11 3.346a7 7 0 0 0-.889 0zM6.7 12.369l.934-2.82c.54.5.854 1.109.867 1.738.008.401-.158.746-.395.96-.222.2-.522.307-.903.226q-.244-.053-.503-.104m-4.332-2.82c-.54.5-.854 1.109-.867 1.738-.008.401.158.746.395.96.222.2.522.307.903.226q.244-.053.503-.104z"/></svg>