<svg xmlns="http://www.w3.org/2000/svg" viewBox="0 0 16 16"><path fill-rule="evenodd" d="M9.56 13.958q.235-.016.44-.037c1.523-.158 2.727-1.408 2.885-2.921q.024-.231.042-.5h.939q.237 0 .445-.016c.967-.07 1.585-.907 1.65-1.875a17 17 0 0 0 0-2.219c-.065-.967-.683-1.803-1.65-1.874a6 6 0 0 0-.445-.016h-.869c-.012-.826-.073-1.295-.387-1.61-.391-.39-1.02-.39-2.276-.39H6.666c-1.256 0-1.885 0-2.275.39C4 3.282 4 3.91 4 5.167V7.01a5 5 0 0 1 .25-.006c1.432 0 2.844.604 3.9 1.534 1.06.933 1.822 2.248 1.85 3.719v.02a3.5 3.5 0 0 1-.44 1.68M13 8.413V6h.866q.182 0 .336.012c.075.005.073.01.122.068a.73.73 0 0 1 .14.411 15 15 0 0 1 0 2.018.73.73 0 0 1-.14.411c-.049.059-.047.063-.122.068a5 5 0 0 1-.336.012h-.871Q13 8.716 13 8.413"/><path d="m4.766 13.669.015-.053 1.518-4.555c-.643-.355-1.357-.557-2.05-.557a4.25 4.25 0 0 0-1.907.482l1.543 4.63.013.044a8 8 0 0 1 .868.009m-2.073.125L1.323 9.68C.515 10.401.018 11.336 0 12.288c-.006 1.062.807 1.87 1.706 1.69.318-.063.648-.129.987-.184m3.27.026 1.341-4.022c.733.702 1.18 1.588 1.196 2.49.006 1.062-.807 1.87-1.706 1.69a33 33 0 0 0-.83-.158"/></svg>