<svg xmlns="http://www.w3.org/2000/svg" viewBox="0 0 24 24"><path fill-rule="evenodd" d="M14.351 20.927A4.7 4.7 0 0 0 15 18.482c-.02-2.281-1.318-4.197-3.111-5.523C10.248 11.746 8.188 10.993 6.5 11H6V8c0-1.885 0-2.827.586-3.413S8.114 4 9.999 4h5.002c1.885 0 2.827 0 3.413.586.472.471.568 1.174.586 2.414.49 0 .98-.012 1.469.024 1.45.106 2.377 1.36 2.474 2.812a25 25 0 0 1 0 3.328c-.097 1.451-1.024 2.706-2.475 2.812A9 9 0 0 1 19.8 16h-.936c-.199 2.545-1.853 4.706-4.513 4.927M19 14c.44 0 .883.014 1.322-.019.44-.032.602-.588.626-.95a23 23 0 0 0 0-3.061c-.024-.363-.186-.92-.625-.951C19.883 8.986 19.44 9 19 9z"/><path d="M5.856 20.448c.424-.026.861-.026 1.286 0L9.37 13.76c-1.019-.5-2.063-.765-2.871-.76-.809-.005-1.854.26-2.872.76zm-3.943-5.576C.81 15.799.012 17.029 0 18.5c-.013 1.667 1.29 2.758 2.74 2.444q.545-.122 1.12-.232zm7.225 5.839c.384.073.758.154 1.123.233 1.449.314 2.753-.778 2.739-2.445-.012-1.471-.81-2.701-1.915-3.628z"/></svg>