<svg xmlns="http://www.w3.org/2000/svg" viewBox="0 0 16 16"><path fill-rule="evenodd" d="M12 6.518a37 37 0 0 0-.126-3.084c-.036-.43-.26-.695-.54-.83-.297-.142-.712-.16-1.13.082a4.39 4.39 0 0 1-4.409 0c-.417-.242-.832-.224-1.128-.082-.282.135-.505.4-.54.83A37 37 0 0 0 4 6.518c0 1.443.011 4.659.688 6.922l.002.002c.008.008.03.026.066.04a.24.24 0 0 0 .32-.17l.694-2.524C6.08 9.662 6.644 8.5 8 8.5s1.92 1.162 2.23 2.288l.695 2.524a.24.24 0 0 0 .32.17.2.2 0 0 0 .065-.04c.678-2.285.69-5.607.69-6.924m1.5 0c0-1.192-.054-2.272-.132-3.208-.161-1.953-2.232-2.897-3.915-1.922-.9.522-2.006.522-2.906 0C4.864.413 2.793 1.357 2.632 3.31A39 39 0 0 0 2.5 6.518c0 1.398 0 4.85.754 7.363.139.46.497.813.94.992A1.74 1.74 0 0 0 6.52 13.71l.695-2.524q.029-.105.052-.21c.1-.43.229-.976.732-.976s.631.546.732.976q.024.105.052.21l.695 2.524a1.74 1.74 0 0 0 2.327 1.163c.443-.179.801-.531.939-.993.755-2.533.755-6.091.755-7.362"/></svg>