<svg xmlns="http://www.w3.org/2000/svg" viewBox="0 0 44 44"><path fill-rule="evenodd" d="M25.724 5.017C24.576 5.7 23.288 6 22 6s-2.576-.3-3.724-.983c-4.232-2.515-9.515-.154-9.927 4.76A100 100 0 0 0 8 18.154c0 3.549.001 12.652 1.964 19.1.368 1.21 1.348 2.11 2.542 2.515 2.356.8 4.9-.537 5.585-2.933l1.845-6.446.03-.107C20.274 29.202 20.616 28 22 28s1.726 1.201 2.034 2.282l.03.107 1.845 6.446a4.355 4.355 0 0 0 5.585 2.933c1.194-.406 2.174-1.305 2.542-2.514C35.999 30.805 36 21.702 36 18.154c0-3.11-.144-5.932-.349-8.376-.412-4.915-5.695-7.276-9.927-4.76m-14.386 5.011A97 97 0 0 0 11 18.154c0 3.652.025 12.285 1.834 18.227.047.154.219.405.636.547a1.355 1.355 0 0 0 1.737-.917l1.844-6.446.034-.12c.128-.463.405-1.459.949-2.297a4.7 4.7 0 0 1 1.573-1.52A4.7 4.7 0 0 1 22 25c.827 0 1.647.192 2.393.626a4.7 4.7 0 0 1 1.573 1.52c.544.84.82 1.835.949 2.297l.034.121 1.844 6.446a1.355 1.355 0 0 0 1.736.917c.418-.142.59-.393.637-.547C32.975 30.437 33 21.804 33 18.153c0-3.017-.14-5.755-.338-8.124-.204-2.429-2.832-3.963-5.405-2.433C25.584 8.59 23.752 9 22 9s-3.584-.41-5.257-1.404c-2.573-1.53-5.2.004-5.405 2.432"/></svg>