<svg xmlns="http://www.w3.org/2000/svg" viewBox="0 0 24 24"><path fill-rule="evenodd" d="m13.155 16.864-.036-.12c-.175-.588-.37-1.245-1.118-1.244-.747.001-.941.656-1.116 1.243l-.036.12-1.044 3.325a2.53 2.53 0 0 1-3.208 1.685c-.695-.23-1.27-.749-1.489-1.455-1.105-3.581-1.106-8.601-1.106-10.564 0-1.657.075-3.167.185-4.486C4.364 3.232 6.107 1.925 8 2.003c.64.027 1.106.228 1.604.442.62.267 1.288.555 2.397.555s1.777-.288 2.397-.554c.499-.215.966-.416 1.605-.443 1.895-.078 3.637 1.23 3.814 3.365.11 1.319.185 2.83.185 4.486 0 1.963 0 6.983-1.106 10.564-.219.706-.794 1.225-1.49 1.455a2.53 2.53 0 0 1-3.207-1.685z"/></svg>