<svg xmlns="http://www.w3.org/2000/svg" viewBox="0 0 16 16"><path fill-rule="evenodd" d="M3.124 3.124c-.875.875-.94 1.747-1.07 3.491C2.02 7.067 2 7.534 2 8s.02.933.054 1.385c.13 1.744.195 2.616 1.07 3.491s1.747.94 3.491 1.07C7.067 13.98 7.534 14 8 14s.933-.02 1.385-.054c1.744-.13 2.616-.195 3.491-1.07s.94-1.747 1.07-3.491C13.98 8.933 14 8.466 14 8s-.02-.933-.054-1.385c-.13-1.744-.195-2.616-1.07-3.491s-1.747-.94-3.491-1.07A19 19 0 0 0 8 2c-.466 0-.933.02-1.385.054-1.744.13-2.616.195-3.491 1.07m8.273 3.06c-.038-.413-.072-.667-.117-.846a.86.86 0 0 0-.618-.618c-.19-.048-.462-.08-.916-.12a.75.75 0 0 0-.019 1.5l.158.015.016.158a.75.75 0 0 0 1.5-.017c0-.024-.004-.072-.004-.072M4.5 8.5a1 1 0 0 1 1-1h5a1 1 0 1 1 0 2h-5a1 1 0 0 1-1-1"/></svg>