<svg xmlns="http://www.w3.org/2000/svg" viewBox="0 0 24 24"><path d="M9.567 4a3 3 0 0 0-2.795 1.91l-.088.227a1 1 0 1 0 1.863.726l.088-.226A1 1 0 0 1 9.567 6H11a1 1 0 0 1 1 1v1a1 1 0 0 1-1 1H5a1 1 0 0 0 0 2h6a3 3 0 0 0 3-3V7a3 3 0 0 0-3-3zm2.983 16a3 3 0 0 1-2.534-1.395l-.36-.57a1 1 0 0 1 1.689-1.07l.36.57a1 1 0 0 0 .846.465H14a1 1 0 0 0 1-1v-1a1 1 0 0 0-1-1H3a1 1 0 1 1 0-2h11a3 3 0 0 1 3 3v1a3 3 0 0 1-3 3zM17 5.5a1 1 0 1 0 0 2h2a1 1 0 0 1 1 1v1a1 1 0 0 1-1 1h-.923a1 1 0 1 0 0 2H19a3 3 0 0 0 3-3v-1a3 3 0 0 0-3-3z"/></svg>