<svg xmlns="http://www.w3.org/2000/svg" viewBox="0 0 16 16"><path fill-rule="evenodd" d="M4.918 4.632A35 35 0 0 1 8 4.502a35 35 0 0 1 3.082.13c.699.063 1.016.098 1.263.172.165.05.319.124.564.368.263.262.332.41.374.54.067.207.1.47.16 1.111a12.5 12.5 0 0 1 0 2.357c-.06.64-.093.904-.16 1.11-.042.13-.11.279-.373.54-.246.245-.4.318-.565.368-.247.075-.564.11-1.263.173-.84.075-1.868.13-3.082.13s-2.242-.055-3.082-.13c-.7-.063-1.016-.098-1.263-.173-.165-.05-.319-.123-.564-.368-.263-.261-.332-.41-.374-.539-.067-.207-.099-.47-.16-1.11a12.5 12.5 0 0 1 0-2.359c.061-.64.093-.904.16-1.11.042-.13.111-.278.374-.54.245-.244.4-.318.564-.368.247-.074.564-.11 1.263-.172M8 13.002a36 36 0 0 0 3.216-.137c1.3-.117 1.951-.175 2.751-.971s.857-1.388.97-2.572a14 14 0 0 0 0-2.641c-.113-1.184-.17-1.776-.97-2.572s-1.45-.854-2.751-.971A36 36 0 0 0 8 3c-1.26 0-2.332.057-3.217.137-1.3.117-1.95.175-2.75.97-.8.797-.857 1.388-.97 2.572a14 14 0 0 0 0 2.643c.113 1.183.17 1.775.97 2.57.8.797 1.45.855 2.75.972.885.08 1.958.136 3.217.136M6.595 6.5l-.192 1.384-.118-.752a20 20 0 0 0-.1-.633H5.11v2.963h.726l.003-1.955.305 1.955h.516l.291-2v2h.723v-2.96zm-1.766 0H4v2.96h.83zm4.579 2.932a2.5 2.5 0 0 1-.446.03H7.96V6.503h.619c.398 0 .628.015.77.052q.213.052.325.169a.5.5 0 0 1 .136.259q.031.143.032.564v1.038c0 .266-.018.442-.045.533a.4.4 0 0 1-.14.21.56.56 0 0 1-.249.106m-.396-2.362a.1.1 0 0 0-.04-.034v-.002q-.05-.028-.184-.025v1.943q.178-.001.218-.068.041-.066.042-.36V7.378q.002-.2-.015-.259a.1.1 0 0 0-.02-.047m1.11-.57v2.962h.747l.05-.188c.06.07.137.13.224.172a.8.8 0 0 0 .295.053.6.6 0 0 0 .34-.096.43.43 0 0 0 .183-.226q.044-.195.038-.395v-.832a3 3 0 0 0-.015-.349.37.37 0 0 0-.085-.183.4.4 0 0 0-.174-.12.9.9 0 0 0-.584.007.7.7 0 0 0-.222.16v-.965zM11.2 8.745a1 1 0 0 1-.024.27c-.015.038-.082.057-.133.057a.1.1 0 0 1-.058-.012.1.1 0 0 1-.039-.041q-.027-.054-.027-.251v-.783a.8.8 0 0 1 .024-.251.1.1 0 0 1 .039-.039.1.1 0 0 1 .056-.01c.05 0 .117.016.135.057q.027.06.027.243z"/></svg>