<svg xmlns="http://www.w3.org/2000/svg" viewBox="0 0 16 16"><path d="m6.502 8.251.001-2.32c.004-.11.067-.176.177-.18h2.44c.856.005 1.382.59 1.382 1.25s-.526 1.245-1.382 1.25z"/><path fill-rule="evenodd" d="M3.124 3.124c-.875.875-.94 1.747-1.07 3.491C2.02 7.067 2 7.534 2 8s.02.933.054 1.385c.13 1.744.195 2.616 1.07 3.491s1.747.94 3.491 1.07C7.067 13.98 7.534 14 8 14s.933-.02 1.385-.054c1.744-.13 2.616-.195 3.491-1.07s.94-1.747 1.07-3.491C13.98 8.933 14 8.466 14 8s-.02-.933-.054-1.385c-.13-1.744-.195-2.616-1.07-3.491s-1.747-.94-3.491-1.07A19 19 0 0 0 8 2c-.466 0-.933.02-1.385.054-1.744.13-2.616.195-3.491 1.07M9.125 9.75H6.502v1.5a.75.75 0 0 1-1.5 0L5 6.355c0-.407 0-.611.035-.78a1.67 1.67 0 0 1 1.29-1.29c.169-.035.373-.035.78-.035h2.02c1.583.008 2.877 1.167 2.877 2.75s-1.294 2.742-2.877 2.75"/></svg>