<svg xmlns="http://www.w3.org/2000/svg" viewBox="0 0 24 24"><path d="M9.496 9.908c0 .862.004 1.725.004 2.587 1.429 0 3.5.005 4.287.005 1.368-.016 2.212-.941 2.212-2 0-1.062-.846-1.984-2.216-2h-2.88c-.441 0-.7 0-.893.01-.304.015-.489.2-.504.504-.01.193-.01.452-.01.894"/><path fill-rule="evenodd" d="M4.686 4.688C3.373 6 3.276 7.308 3.081 9.925c-.05.678-.081 1.377-.081 2.077s.03 1.399.081 2.077c.195 2.616.292 3.924 1.605 5.237s2.62 1.41 5.237 1.605c.678.05 1.377.081 2.077.081s1.399-.03 2.077-.081c2.616-.195 3.924-.292 5.237-1.605s1.41-2.62 1.605-5.237c.05-.678.081-1.378.081-2.077s-.03-1.4-.081-2.077c-.195-2.616-.292-3.924-1.605-5.237s-2.62-1.41-5.237-1.605A28 28 0 0 0 12 3.002c-.7 0-1.399.03-2.077.081-2.616.195-3.924.292-5.237 1.605M9.5 14.495V17.5a1 1 0 1 1-2 0l-.004-7.592c0-.845 0-1.267.101-1.611A2.5 2.5 0 0 1 9.293 6.6c.344-.101.766-.101 1.61-.101l2.902.001c2.309.027 4.195 1.691 4.195 4 0 2.306-1.883 3.973-4.189 4-.81 0-2.874-.005-4.31-.005"/></svg>