<svg xmlns="http://www.w3.org/2000/svg" viewBox="0 0 24 24"><path fill-rule="evenodd" d="M2.183 16.968A62 62 0 0 1 2 12c0-2.12.087-3.779.183-4.967.115-1.426.96-2.733 2.372-2.957A6 6 0 0 1 5.5 4c.333 0 .65.029.945.076 1.413.224 2.257 1.531 2.372 2.957.045.554.088 1.21.12 1.967h6.125c.033-.757.076-1.413.12-1.967.116-1.426.96-2.733 2.373-2.957a6 6 0 0 1 1.89 0c1.413.224 2.257 1.531 2.372 2.957C21.913 8.22 22 9.88 22 12s-.087 3.78-.183 4.968c-.115 1.425-.959 2.731-2.37 2.956a6 6 0 0 1-1.893 0c-1.412-.225-2.256-1.531-2.371-2.956a53 53 0 0 1-.12-1.968H8.937a53 53 0 0 1-.12 1.968c-.116 1.425-.96 2.731-2.372 2.956a6 6 0 0 1-1.892 0c-1.412-.225-2.256-1.531-2.371-2.956M4 12c0 2.066.084 3.671.176 4.806.031.387.159.695.303.886.128.17.254.235.389.257q.306.05.632.051.327-.002.632-.051c.135-.022.26-.087.39-.257.143-.19.27-.5.302-.886A60 60 0 0 0 7 12c0-2.066-.084-3.67-.176-4.806-.031-.387-.159-.695-.303-.886-.129-.17-.254-.235-.39-.257A4 4 0 0 0 5.5 6a4 4 0 0 0-.631.051c-.136.022-.261.086-.39.257-.144.191-.272.5-.303.886A60 60 0 0 0 4 12m11.007 1a75 75 0 0 1 0-2H8.993a75 75 0 0 1 0 2zm2.17 3.806A60 60 0 0 1 17 12c0-2.066.084-3.67.176-4.806.031-.387.159-.695.303-.886.129-.17.254-.235.39-.257A4 4 0 0 1 18.5 6q.327.002.631.051c.136.022.261.086.39.257.144.191.271.5.303.886C19.916 8.33 20 9.934 20 12s-.084 3.671-.176 4.806c-.032.387-.159.695-.303.886-.129.17-.254.235-.389.257A4 4 0 0 1 18.5 18q-.327-.002-.632-.051c-.135-.022-.26-.087-.39-.257-.143-.19-.27-.5-.302-.886"/></svg>