<svg xmlns="http://www.w3.org/2000/svg" viewBox="0 0 24 24"><path d="M2 12c0 2.2.08 3.903.166 5.1.097 1.346.832 2.644 2.167 2.848a4.4 4.4 0 0 0 1.334 0c1.335-.204 2.07-1.502 2.167-2.849A65 65 0 0 0 7.977 14h8.046c.03 1.26.085 2.295.143 3.1.097 1.346.832 2.644 2.167 2.848a4.4 4.4 0 0 0 1.334 0c1.335-.204 2.07-1.502 2.167-2.849A72 72 0 0 0 22 12c0-2.2-.08-3.903-.166-5.099-.097-1.347-.833-2.645-2.168-2.85a4.4 4.4 0 0 0-1.332 0c-1.335.205-2.071 1.503-2.168 2.85A65 65 0 0 0 16.023 10H7.977a65 65 0 0 0-.143-3.099c-.097-1.347-.833-2.645-2.168-2.85a4.4 4.4 0 0 0-1.332 0C3 4.256 2.263 5.554 2.166 6.901A72 72 0 0 0 2 12"/></svg>