<svg xmlns="http://www.w3.org/2000/svg" viewBox="0 0 24 24"><path fill-rule="evenodd" d="M4.167 16.056A47 47 0 0 1 4 12.001c0-1.55.067-2.901.167-4.054.176-2.025.264-3.038 1.558-4.327S7.99 2.25 9.93 2.088a25 25 0 0 1 4.137 0c1.941.161 2.912.242 4.206 1.532 1.294 1.289 1.382 2.302 1.558 4.327.1 1.152.168 2.505.168 4.054s-.068 2.903-.168 4.056c-.176 2.024-.264 3.036-1.558 4.325-1.293 1.29-2.264 1.37-4.204 1.532a25 25 0 0 1-4.14 0c-1.941-.162-2.912-.242-4.205-1.532s-1.382-2.301-1.558-4.326m1.993-.173A45 45 0 0 1 6 12.001c0-1.491.065-2.785.16-3.881.093-1.08.148-1.603.278-2.024.096-.312.25-.612.699-1.06.459-.457.755-.606 1.043-.696.394-.122.88-.173 1.917-.26a23 23 0 0 1 3.805 0c1.038.087 1.523.138 1.917.26.288.09.584.239 1.043.696.45.448.603.748.7 1.06.129.421.184.945.277 2.024.096 1.095.16 2.39.16 3.881 0 1.492-.064 2.787-.16 3.883-.093 1.078-.148 1.601-.278 2.022-.096.312-.25.612-.698 1.06-.46.457-.755.606-1.043.696-.394.122-.88.173-1.916.26a23 23 0 0 1-3.809 0c-1.036-.087-1.522-.138-1.915-.26-.288-.09-.584-.239-1.044-.696-.449-.448-.602-.748-.698-1.06-.13-.421-.185-.944-.278-2.023M14 11a1 1 0 1 0 0-2h-4a1 1 0 1 0 0 2zm-1 4a1 1 0 1 0 0-2h-2a1 1 0 1 0 0 2zM2.475 6.015a1 1 0 0 1 .81 1.158l-.002.011a5 5 0 0 0-.039.265c-.026.196-.062.496-.098.9A41 41 0 0 0 3 12c0 1.624.074 2.844.146 3.651a21 21 0 0 0 .137 1.165l.002.01a1 1 0 1 1-1.97.348v-.003l-.001-.006-.004-.02a7 7 0 0 1-.048-.328c-.03-.225-.07-.554-.108-.987A43 43 0 0 1 1 12c0-1.684.076-2.964.154-3.83a23 23 0 0 1 .145-1.245l.011-.07.004-.02V6.83l.001-.002v-.002a1 1 0 0 1 1.16-.81m18.24 1.159a1 1 0 0 1 1.97-.348v.003l.001.007.004.02.011.07q.015.09.037.258c.03.224.07.553.108.986.078.866.154 2.146.154 3.83s-.076 2.964-.154 3.83a23 23 0 0 1-.145 1.245l-.011.07-.004.02v.006l-.001.002v.001a1 1 0 0 1-1.97-.348l.002-.01.004-.025.004-.024q.011-.068.03-.215c.027-.197.063-.497.099-.9.072-.808.146-2.028.146-3.652s-.074-2.844-.146-3.651a21 21 0 0 0-.13-1.116q0-.015-.004-.028l-.003-.02z"/></svg>