<svg xmlns="http://www.w3.org/2000/svg" viewBox="0 0 16 16"><path fill-rule="evenodd" d="M6.722 3.551c.423-.031.853-.05 1.277-.05.425 0 .855.019 1.277.05 1.844.138 2.12.215 2.539.634s.496.695.634 2.539c.031.422.05.852.05 1.277s-.019.854-.05 1.277c-.138 1.843-.215 2.12-.634 2.539s-.695.496-2.539.633c-.422.032-.852.05-1.277.05s-.854-.018-1.277-.05c-1.843-.137-2.12-.214-2.538-.633-.42-.42-.497-.696-.634-2.539-.032-.423-.05-.853-.05-1.277 0-.425.018-.855.05-1.277.137-1.844.214-2.12.634-2.539.419-.42.695-.496 2.538-.634m-4.668 3.06c.13-1.741.195-2.613 1.07-3.487.873-.874 1.744-.939 3.486-1.069.454-.033.922-.054 1.39-.054s.935.02 1.388.054c1.742.13 2.613.195 3.487 1.07.874.873.94 1.745 1.07 3.487.033.453.054.921.054 1.389s-.02.935-.055 1.389c-.13 1.742-.195 2.613-1.069 3.487s-1.745.94-3.487 1.07A19 19 0 0 1 8 14c-.467 0-.935-.021-1.389-.055-1.742-.13-2.613-.195-3.487-1.069s-.939-1.745-1.069-3.487A19 19 0 0 1 2 8c0-.467.02-.935.054-1.388M5 7.999c0-1.656 1.371-3 3.062-3a3.08 3.08 0 0 1 2.06.783l-.724.71A2.05 2.05 0 0 0 8.061 6c-1.127 0-2.04.895-2.04 2s.913 2 2.04 2c.95 0 1.746-.639 1.973-1.5H8.06v-1h2.89c.239 1.176-.337 3.5-2.89 3.5C6.37 11 5 9.656 5 8"/></svg>