<svg xmlns="http://www.w3.org/2000/svg" viewBox="0 0 24 24"><path fill-rule="evenodd" d="M4.686 4.686c-1.313 1.313-1.41 2.62-1.605 5.237C3.031 10.6 3 11.3 3 12s.03 1.399.081 2.077c.195 2.616.292 3.924 1.605 5.237s2.62 1.41 5.237 1.605C10.6 20.969 11.3 21 12 21s1.399-.03 2.077-.081c2.616-.195 3.924-.292 5.237-1.605s1.41-2.62 1.605-5.237C20.969 13.4 21 12.7 21 12s-.03-1.399-.081-2.077c-.195-2.616-.292-3.924-1.605-5.237s-2.62-1.41-5.237-1.605A28 28 0 0 0 12 3c-.7 0-1.399.03-2.077.081-2.616.195-3.924.292-5.237 1.605m2.812 7.313c0-2.486 2.056-4.5 4.592-4.5 1.191 0 2.276.444 3.092 1.173l-1.087 1.065a3.08 3.08 0 0 0-2.007-.738c-1.69 0-3.06 1.343-3.06 3 0 1.656 1.37 3 3.06 3a3.05 3.05 0 0 0 2.961-2.25h-2.96v-1.5h4.335c.358 1.765-.504 5.25-4.334 5.25-2.536 0-4.592-2.015-4.592-4.5"/></svg>