<svg xmlns="http://www.w3.org/2000/svg" viewBox="0 0 16 16"><path d="M8.749 5.25a2.75 2.75 0 0 1-1.27 2.32l.297.07c1.097.272 2.916 2.066 3.143 3.103.016.07.169.767.008 1.298-.202.67-.764 1.194-1.483 1.383-.286.075-.635.075-1.333.075H3.889c-.698 0-1.047 0-1.333-.075-.719-.19-1.28-.713-1.483-1.383-.16-.531-.008-1.228.008-1.298.227-1.037 2.046-2.831 3.143-3.102l.297-.072A2.75 2.75 0 1 1 8.75 5.25m1.499 0a4.23 4.23 0 0 0-.937-2.663 2.753 2.753 0 0 1 3.437 2.663 2.75 2.75 0 0 1-1.27 2.32l.297.07c1.097.272 2.916 2.066 3.143 3.103.016.07.169.767.008 1.298-.202.67-.764 1.194-1.483 1.383-.286.075-.635.075-1.333.075h-.256c.22-.305.394-.649.508-1.024.16-.53.147-1.054.122-1.376a5 5 0 0 0-.1-.678c-.118-.535-.398-1.029-.664-1.414a9 9 0 0 0-1.88-1.938 4.2 4.2 0 0 0 .408-1.819"/></svg>