<svg xmlns="http://www.w3.org/2000/svg" viewBox="0 0 16 16"><path fill-rule="evenodd" d="M1.182 9.539c.205-.678 1.104-1.735 1.91-2.347a3.24 3.24 0 0 1-.335-1.442A3.247 3.247 0 0 1 6 2.5c.755 0 1.449.258 2 .691a3.23 3.23 0 0 1 2-.691 3.247 3.247 0 0 1 3.243 3.25c0 .518-.12 1.008-.336 1.442.807.612 1.706 1.67 1.91 2.347.183.601.183.671.183.811 0 .979 0 1.468-.16 1.854a2.1 2.1 0 0 1-1.136 1.136c-.386.16-.875.16-1.854.16H9l.014-.021c-.295.021-.666.021-1.164.021h-3.7c-.979 0-1.468 0-1.854-.16a2.1 2.1 0 0 1-1.136-1.136C1 11.818 1 11.328 1 10.35c0-.14 0-.21.182-.811M10.908 12h.942c.51 0 .817 0 1.047-.017a1.2 1.2 0 0 0 .235-.03.6.6 0 0 0 .321-.321 1.3 1.3 0 0 0 .03-.235c.063-.918.016-1.414-.551-2.102a6 6 0 0 0-.93-.907 12 12 0 0 0-.76-.552c-.335-.229-.552-.377-.552-.505 0-.074.1-.139.24-.229.31-.2.813-.524.813-1.352A1.745 1.745 0 0 0 10 4c-.4 0-.77.136-1.065.365.198.42.308.89.308 1.385 0 .518-.12 1.008-.336 1.442.807.612 1.706 1.67 1.91 2.347.183.601.183.671.183.811 0 .815 0 1.29-.092 1.65M6 4c.96 0 1.743.78 1.743 1.75 0 .828-.503 1.152-.814 1.352-.139.09-.24.155-.24.229 0 .128.218.276.552.505.214.146.476.324.76.552.3.226.643.56.93.907.568.688.615 1.184.553 2.102a1.3 1.3 0 0 1-.03.235.6.6 0 0 1-.322.321 1.2 1.2 0 0 1-.235.03C8.667 12 8.36 12 7.85 12h-3.7c-.51 0-.817 0-1.047-.017a1.3 1.3 0 0 1-.235-.03.6.6 0 0 1-.321-.321 1.3 1.3 0 0 1-.03-.235c-.063-.918-.016-1.414.551-2.102.288-.348.632-.68.93-.907.285-.228.547-.406.76-.552.335-.229.552-.377.552-.505 0-.074-.1-.139-.24-.229-.31-.2-.813-.524-.813-1.352C4.257 4.78 5.04 4 6 4"/></svg>