<svg xmlns="http://www.w3.org/2000/svg" viewBox="0 0 24 24"><path d="M13 8a4 4 0 0 1-1.594 3.196l.08.021c1.536.406 4.082 3.097 4.401 4.651.022.106.236 1.15.011 1.946a3 3 0 0 1-2.076 2.073c-.4.113-.89.113-1.867.113h-5.91c-.978 0-1.467 0-1.867-.113a3 3 0 0 1-2.076-2.073c-.225-.796-.01-1.84.01-1.946.32-1.554 2.866-4.245 4.402-4.65l.08-.022A4 4 0 1 1 13 8"/><path d="M17.955 20h-.945c.364-.485.643-1.04.813-1.642.206-.73.191-1.463.156-1.926a8 8 0 0 0-.133-.965c-.15-.738-.517-1.439-.884-2.008a12 12 0 0 0-1.366-1.721 13 13 0 0 0-1.198-1.117A6 6 0 0 0 15 8c0-1.43-.5-2.742-1.334-3.772a4 4 0 0 1 3.74 6.968l.08.021c1.536.406 4.082 3.097 4.401 4.651.022.106.236 1.15.011 1.946a3 3 0 0 1-2.076 2.073c-.4.113-.89.113-1.867.113"/></svg>