<svg xmlns="http://www.w3.org/2000/svg" viewBox="0 0 24 24"><path d="M7.914 20.74c.583.075 1.086-.394 1.086-.981 0-.52-.398-.948-.913-1.017-1.103-.148-1.5-.353-1.987-.84-.488-.488-.693-.884-.84-1.989A1.04 1.04 0 0 0 4.242 15c-.588 0-1.056.503-.982 1.085.178 1.382.499 2.305 1.425 3.23.925.926 1.848 1.248 3.228 1.425m12.825-4.654c.075-.583-.394-1.086-.981-1.086-.52 0-.948.398-1.017.914-.148 1.104-.353 1.5-.84 1.988-.488.487-.884.692-1.986.84A1.04 1.04 0 0 0 15 19.759c0 .587.503 1.056 1.086.98 1.38-.177 2.303-.498 3.228-1.423.925-.926 1.247-1.85 1.424-3.23M16.085 3.264c-.582-.075-1.086.393-1.086.98 0 .52.399.949.914 1.018 1.103.147 1.5.353 1.987.84s.692.883.84 1.986c.069.516.497.914 1.017.914.587 0 1.056-.503.981-1.086-.177-1.38-.499-2.303-1.424-3.228s-1.849-1.247-3.229-1.424m-8.17-.001C8.497 3.19 9 3.657 9 4.245c0 .52-.398.948-.913 1.017-1.103.147-1.5.352-1.987.84-.487.487-.692.883-.84 1.985-.07.515-.497.913-1.017.913-.587 0-1.056-.503-.981-1.086.177-1.379.499-2.301 1.424-3.226.925-.926 1.848-1.247 3.229-1.425M6 11a1 1 0 1 0 0 2h12a1 1 0 1 0 0-2z"/></svg>