<svg xmlns="http://www.w3.org/2000/svg" viewBox="0 0 32 32"><path fill-rule="evenodd" d="M8.096 10.627c.169 1.558 1.173 2.772 2.551 3.343l-2.38 14.579a1.25 1.25 0 0 0 2.182 1.015l5.552-6.472 5.528 6.445a1.25 1.25 0 0 0 2.205-.988l-2.38-14.58c1.377-.57 2.382-1.785 2.55-3.343.059-.54.096-1.136.096-1.776V6.176c0-.49-.275-.937-.712-1.158l-6.7-3.377a1.3 1.3 0 0 0-1.176 0l-6.7 3.377A1.3 1.3 0 0 0 8 6.176V8.85c0 .64.037 1.237.096 1.777M21.485 9.5h-10.97q.022.452.066.858c.077.71.645 1.351 1.635 1.455C13.222 11.918 14.49 12 16 12s2.778-.082 3.783-.187c.991-.103 1.559-.745 1.636-1.456q.044-.405.066-.857m-2.391 6.146L18.89 14.4c-.847.06-1.813.1-2.89.1s-2.042-.04-2.89-.1l-.203 1.245L16 19.252zm-7.642 8.91 2.902-3.384-1.974-2.301zm9.097-.002-.928-5.682-1.974 2.3z"/></svg>