<svg xmlns="http://www.w3.org/2000/svg" viewBox="0 0 24 24"><path d="M9 12a1 1 0 0 1 1-1h4a1 1 0 1 1 0 2h-4a1 1 0 0 1-1-1"/><path fill-rule="evenodd" d="M4.685 4.687C3.373 6 3.275 7.308 3.081 9.924A28 28 0 0 0 3 12.002c0 .699.03 1.398.08 2.077.195 2.616.293 3.924 1.605 5.236 1.313 1.313 2.621 1.41 5.237 1.605.678.05 1.378.081 2.077.081s1.4-.03 2.078-.08c2.616-.195 3.924-.293 5.237-1.605 1.312-1.313 1.41-2.621 1.605-5.237.05-.679.08-1.378.08-2.078s-.03-1.399-.08-2.077c-.195-2.616-.293-3.924-1.605-5.237-1.313-1.312-2.621-1.41-5.237-1.604A28 28 0 0 0 11.999 3c-.699 0-1.399.031-2.077.082-2.616.194-3.924.292-5.237 1.604M12 5.001c-.643 0-1.292.029-1.93.076-2.75.205-3.264.318-3.97 1.025-.28.279-.466.528-.603.898h13.005c-.137-.37-.323-.619-.603-.898-.706-.707-1.22-.82-3.97-1.025a26 26 0 0 0-1.93-.076M18.838 9H5.16c-.028.315-.056.67-.086 1.073A26 26 0 0 0 5 12c0 .643.028 1.292.075 1.93.205 2.75.318 3.264 1.025 3.97s1.22.82 3.97 1.025c.638.047 1.287.076 1.93.076.642 0 1.291-.029 1.928-.076 2.75-.205 3.265-.318 3.971-1.025s.82-1.22 1.025-3.97A26 26 0 0 0 19 12c0-.642-.029-1.291-.076-1.928Q18.88 9.47 18.838 9"/></svg>