<svg xmlns="http://www.w3.org/2000/svg" viewBox="0 0 44 44"><path fill-rule="evenodd" d="M6.12 18.64c.067-.977.127-1.853.201-2.65q.089.01.179.01h31.18c.073.795.133 1.668.2 2.64.075 1.1.12 2.23.12 3.36s-.045 2.26-.12 3.36c-.328 4.781-.492 7.172-2.92 9.6s-4.819 2.592-9.6 2.92c-1.1.075-2.23.12-3.36.12s-2.26-.045-3.36-.12c-4.781-.328-7.171-.492-9.6-2.92s-2.592-4.819-2.92-9.6A49 49 0 0 1 6 22c0-1.13.045-2.26.12-3.36m28.84-9.6c1.225 1.226 1.874 2.442 2.258 3.96H6.782c.384-1.518 1.033-2.734 2.258-3.96 2.429-2.428 4.819-2.592 9.6-2.92C19.74 6.046 20.87 6 22 6s2.26.045 3.36.12c4.781.328 7.172.492 9.6 2.92M18 20a1.5 1.5 0 0 0 0 3h8a1.5 1.5 0 1 0 0-3z"/></svg>