<svg xmlns="http://www.w3.org/2000/svg" viewBox="0 0 28 28"><path d="M11 14a1 1 0 0 1 1-1h4a1 1 0 1 1 0 2h-4a1 1 0 0 1-1-1"/><path fill-rule="evenodd" d="M5.065 5.064c-1.604 1.604-1.723 3.203-1.961 6.4a34 34 0 0 0-.099 2.538c0 .854.037 1.71.1 2.538.237 3.197.356 4.795 1.96 6.4 1.605 1.604 3.203 1.723 6.4 1.96.829.063 1.684.1 2.538.1.855 0 1.71-.037 2.539-.1 3.196-.237 4.795-.356 6.4-1.96 1.604-1.605 1.723-3.203 1.96-6.4.062-.829.1-1.683.1-2.538s-.038-1.71-.1-2.539c-.237-3.196-.356-4.795-1.96-6.4-1.605-1.604-3.204-1.723-6.4-1.96a34 34 0 0 0-2.539-.1c-.854 0-1.71.038-2.538.1-3.197.237-4.795.356-6.4 1.96m8.938-.06c-.797 0-1.602.034-2.39.093-3.33.248-4.136.383-5.133 1.38-.46.46-.737.88-.926 1.523h16.898c-.189-.644-.465-1.062-.925-1.522-.998-.998-1.803-1.133-5.134-1.381a32 32 0 0 0-2.39-.094M22.775 10H5.231c-.044.462-.086.993-.132 1.612a32 32 0 0 0-.094 2.39c0 .797.035 1.602.094 2.39.247 3.33.383 4.136 1.38 5.134.998.997 1.803 1.133 5.134 1.38.788.06 1.593.094 2.39.094s1.602-.035 2.39-.093c3.331-.248 4.136-.384 5.134-1.381.998-.998 1.133-1.803 1.381-5.134.059-.788.094-1.593.094-2.39s-.035-1.603-.094-2.39A76 76 0 0 0 22.775 10"/></svg>