<svg xmlns="http://www.w3.org/2000/svg" viewBox="0 0 16 16"><path d="M6 8.75A.75.75 0 0 1 6.75 8h2.5a.75.75 0 0 1 0 1.5h-2.5A.75.75 0 0 1 6 8.75"/><path fill-rule="evenodd" d="M3.124 3.125c-.876.875-.94 1.747-1.07 3.491C2.02 7.068 2 7.535 2 8.001s.02.933.054 1.385c.13 1.744.194 2.616 1.07 3.491.875.875 1.747.94 3.49 1.07.453.034.92.054 1.386.054s.932-.02 1.384-.054c1.744-.13 2.616-.195 3.492-1.07s.94-1.747 1.07-3.491C13.979 8.934 14 8.467 14 8s-.02-.933-.054-1.385c-.13-1.744-.195-2.616-1.07-3.491-.876-.875-1.748-.94-3.492-1.07A19 19 0 0 0 8 2.001c-.467 0-.933.02-1.385.054-1.744.13-2.616.195-3.491 1.07M8 3.501c-.424 0-.852.019-1.274.05-1.845.137-2.121.214-2.542.635-.225.225-.352.406-.442.814h8.516c-.09-.408-.217-.589-.443-.814-.42-.42-.697-.498-2.542-.635C8.852 3.52 8.423 3.5 8 3.5m4.433 3H3.567l-.017.228c-.032.42-.05.85-.05 1.273s.018.852.05 1.273c.137 1.845.214 2.122.634 2.542s.697.498 2.542.635c.422.031.85.05 1.274.05.423 0 .852-.019 1.273-.05 1.845-.137 2.122-.214 2.542-.635.42-.42.498-.697.635-2.542.031-.42.05-.85.05-1.273s-.019-.852-.05-1.273z"/></svg>