<svg xmlns="http://www.w3.org/2000/svg" viewBox="0 0 24 24"><path fill-rule="evenodd" d="M3.08 9.924q.037-.49.072-.924h17.695q.036.433.071.924c.05.678.082 1.378.082 2.078 0 .699-.031 1.398-.082 2.077-.194 2.616-.292 3.924-1.604 5.236-1.313 1.313-2.621 1.41-5.237 1.605-.678.05-1.378.081-2.078.081-.699 0-1.399-.03-2.077-.08-2.616-.195-3.924-.293-5.237-1.605-1.312-1.313-1.41-2.621-1.604-5.237A28 28 0 0 1 2.999 12c0-.7.031-1.399.082-2.077M10 11a1 1 0 1 0 0 2h4a1 1 0 1 0 0-2z"/><path d="M3.419 7c.207-.905.562-1.608 1.266-2.313 1.313-1.312 2.621-1.41 5.237-1.604C10.6 3.032 11.3 3 12 3s1.4.031 2.078.082c2.616.194 3.924.292 5.237 1.604.704.705 1.059 1.408 1.266 2.313z"/></svg>