<svg xmlns="http://www.w3.org/2000/svg" viewBox="0 0 16 16"><path fill-rule="evenodd" d="m2.054 6.616.008-.116h11.875l.009.116c.033.452.054.919.054 1.385s-.02.933-.054 1.385c-.13 1.744-.195 2.616-1.07 3.491-.876.875-1.748.94-3.492 1.07C8.932 13.98 8.466 14 8 14c-.467 0-.933-.02-1.385-.054-1.744-.13-2.616-.195-3.491-1.07-.876-.875-.94-1.747-1.07-3.491A19 19 0 0 1 2 8c0-.466.02-.933.054-1.385M6.75 8a.75.75 0 0 0 0 1.5h2.5a.75.75 0 1 0 0-1.5z"/><path d="M12.876 3.125c.553.554.783 1.102.91 1.875H2.213c.126-.773.356-1.321.91-1.875.875-.875 1.747-.94 3.49-1.07A19 19 0 0 1 8 2.001c.466 0 .932.02 1.384.054 1.744.13 2.616.195 3.492 1.07"/></svg>