<svg xmlns="http://www.w3.org/2000/svg" viewBox="0 0 16 16"><path d="M6.734 4.013a.726.726 0 0 0-.734.75c.048 1.118.193 2.191.334 3.018.124.732.187 1.097.487 1.398s.666.362 1.398.487c.827.14 1.912.286 3.03.334.414.018.75-.32.75-.734a.78.78 0 0 0-.75-.769c-.86-.04-1.711-.141-2.42-.252L13.78 3.28a.75.75 0 1 0-1.06-1.06L7.76 7.193a23 23 0 0 1-.256-2.43.78.78 0 0 0-.769-.75m-2.333 6.003a5.4 5.4 0 0 0-.798 0l-.055.004c-.416.03-.79.057-1.13.397s-.366.713-.396 1.129l-.005.055a5.4 5.4 0 0 0 0 .798l.005.055c.03.416.057.79.397 1.13s.713.366 1.129.396l.055.005a5.4 5.4 0 0 0 .798 0l.055-.005c.416-.03.79-.057 1.129-.397.34-.34.367-.713.397-1.129l.004-.055a5.4 5.4 0 0 0 0-.798l-.004-.055c-.03-.416-.057-.79-.397-1.13s-.713-.366-1.129-.396z"/></svg>