<svg xmlns="http://www.w3.org/2000/svg" viewBox="0 0 32 32"><path d="m16.771 11.398.054.064c.7.833 1.049 1.25 1.055 2.179.005.929-.291 1.29-.884 2.015a10 10 0 0 1-1.371 1.37c-.724.593-1.086.89-2.015.884-.93-.006-1.346-.355-2.18-1.054a35 35 0 0 1-2.229-2.054 35 35 0 0 1-2.055-2.23c-.698-.833-1.048-1.249-1.054-2.178-.005-.93.291-1.29.884-2.014a10 10 0 0 1 1.372-1.372c.723-.593 1.085-.889 2.015-.883.929.005 1.345.355 2.178 1.054l.062.052a35 35 0 0 1 2.168 2.002 35 35 0 0 1 2 2.165m-2.595-6.112a17 17 0 0 1 1.002-.965c.99-.887 1.486-1.33 2.465-1.316l.064.002c.978.04 1.357.418 2.115 1.175.757.758 1.136 1.136 1.175 2.115L21 6.36c.015.978-.429 1.473-1.316 2.463a19 19 0 0 1-.966 1.003 38 38 0 0 0-2.178-2.362 38 38 0 0 0-2.363-2.179M9.796 18.748a17 17 0 0 1-.977.942c-.987.885-1.481 1.328-2.458 1.315l-.07-.002c-.977-.04-1.355-.42-2.113-1.177-.757-.757-1.135-1.136-1.176-2.113L3 17.643c-.013-.977.43-1.471 1.315-2.459a19 19 0 0 1 .94-.977 38 38 0 0 0 2.178 2.363c.891.891 1.688 1.61 2.363 2.178M22.497 16c.69 0 1.25.56 1.25 1.25 0 3.56-2.934 6.501-6.497 6.501a1.25 1.25 0 1 1 0-2.5c2.18 0 3.997-1.819 3.997-4.001 0-.69.56-1.25 1.25-1.25"/><path d="M27.75 16c.69 0 1.25.56 1.25 1.25C29 23.683 23.683 29 17.25 29a1.25 1.25 0 1 1 0-2.5c5.052 0 9.25-4.198 9.25-9.25 0-.69.56-1.25 1.25-1.25"/></svg>