<svg xmlns="http://www.w3.org/2000/svg" viewBox="0 0 17 17"><path d="m7.803 2.262-.064.065c.4.336.87.76 1.395 1.286.525.525.95.996 1.287 1.395a10 10 0 0 0 .485-.509c.523-.584.785-.876.776-1.453v-.038c-.024-.577-.247-.8-.694-1.248s-.67-.67-1.248-.693l-.038-.001c-.578-.009-.87.253-1.454.776q-.226.202-.445.42M6 9.207a21 21 0 0 1-1.28-1.182 21 21 0 0 1-1.18-1.278l-.032-.037c-.412-.491-.618-.737-.622-1.285-.003-.548.172-.762.521-1.189a6 6 0 0 1 .81-.81c.427-.349.64-.524 1.189-.52.548.003.794.21 1.285.622.37.31.813.71 1.316 1.212.502.502.902.946 1.212 1.315.413.491.619.737.622 1.285.004.549-.171.762-.521 1.19a6 6 0 0 1-.81.808c-.426.35-.64.525-1.188.521-.549-.003-.794-.21-1.286-.622zm-2.406-.055a22 22 0 0 1-1.286-1.394 10 10 0 0 0-.47.494c-.522.583-.783.874-.775 1.45v.042c.024.576.248.8.695 1.247s.67.67 1.246.694l.041.001c.577.008.868-.253 1.45-.776a11 11 0 0 0 .495-.47c-.4-.337-.87-.762-1.396-1.288M15.138 8.5c.44 0 .797.356.797.796a6.64 6.64 0 0 1-6.64 6.64.797.797 0 0 1 0-1.594 5.046 5.046 0 0 0 5.047-5.046c0-.44.356-.797.796-.797"/><path d="M13.014 9.296a.797.797 0 0 0-1.594 0 2.124 2.124 0 0 1-2.124 2.125.797.797 0 0 0 0 1.593 3.72 3.72 0 0 0 3.718-3.718"/></svg>