<svg xmlns="http://www.w3.org/2000/svg" viewBox="0 0 24 24"><path fill-rule="evenodd" d="M10.153 4.695q.167-.2.377-.436a13 13 0 0 1 1.231-1.232c.789-.69 1.183-1.035 1.921-1.03.739.004 1.094.324 1.803.962a8 8 0 0 1 .553.552c.639.71.958 1.064.963 1.803s-.34 1.132-1.031 1.92c-.187.214-.387.43-.595.637q-.314.312-.637.595-.238.21-.436.376c.474.593.71 1.07.701 1.94-.01 1.137-.37 1.537-1.09 2.336a11 11 0 0 1-.793.792c-.8.72-1.2 1.08-2.336 1.091-.87.008-1.347-.227-1.94-.7q-.168.198-.377.436c-.187.213-.387.43-.594.637a13 13 0 0 1-.637.595c-.788.69-1.182 1.036-1.92 1.03-.74-.004-1.094-.323-1.803-.962a7 7 0 0 1-.553-.552c-.638-.71-.957-1.065-.962-1.804-.005-.738.34-1.132 1.03-1.92.188-.214.387-.43.595-.638s.424-.407.637-.594c.16-.14.302-.265.436-.377-.47-.59-.704-1.066-.696-1.933.01-1.136.37-1.536 1.09-2.335a11 11 0 0 1 .794-.794c.8-.72 1.2-1.08 2.335-1.09.868-.008 1.344.225 1.934.695m3.808 1.762q-.26.258-.542.505c-.188.165-.324.284-.442.38a33 33 0 0 0-1.324-1.323c.097-.118.215-.253.381-.442a10.4 10.4 0 0 1 1.045-1.046c.206-.18.348-.304.472-.405l.122-.094.06.048a15 15 0 0 1 .622.562q.097.098.196.207a15 15 0 0 1 .414.475l-.095.12a18 18 0 0 1-.91 1.013m-7.94 5.196c-.118.096-.253.215-.442.38q-.283.246-.541.505a18 18 0 0 0-.91 1.013l-.094.12.048.06a14 14 0 0 0 .562.623q.098.097.207.196a15 15 0 0 0 .475.414q.047-.034.121-.095a18 18 0 0 0 1.013-.91c.171-.17.34-.354.504-.54.166-.19.284-.325.38-.442a33 33 0 0 1-1.323-1.325M8.525 6.02A1.3 1.3 0 0 0 8.238 6a1.6 1.6 0 0 0-.318.026.2.2 0 0 0-.057.02 1.2 1.2 0 0 0-.181.128 12 12 0 0 0-.79.717q-.166.165-.315.331c-.19.21-.308.343-.402.46a1.3 1.3 0 0 0-.129.18.2.2 0 0 0-.02.057A1.7 1.7 0 0 0 6 8.237c-.001.164.013.25.021.287a.3.3 0 0 0 .036.093c.025.048.075.127.185.267.116.146.258.31.468.553.379.436.836.932 1.38 1.476a29 29 0 0 0 2.028 1.846c.14.11.22.16.267.186.038.02.062.028.093.035.038.009.123.023.288.021.181-.001.275-.016.317-.026a.2.2 0 0 0 .058-.02c.021-.01.073-.041.18-.129a12 12 0 0 0 1.105-1.046c.19-.211.308-.343.402-.46.087-.107.118-.16.129-.18a.2.2 0 0 0 .02-.058c.01-.042.024-.136.026-.318a1.3 1.3 0 0 0-.021-.287.3.3 0 0 0-.036-.093 2 2 0 0 0-.185-.267 29 29 0 0 0-1.847-2.028 29 29 0 0 0-2.03-1.847c-.14-.11-.218-.16-.266-.185a.3.3 0 0 0-.093-.036"/><path d="M18 13a1 1 0 1 0-2 0 3 3 0 0 1-3 3 1 1 0 1 0 0 2 5 5 0 0 0 5-5"/><path d="M22 13a1 1 0 1 0-2 0 7 7 0 0 1-7 7 1 1 0 1 0 0 2 9 9 0 0 0 9-9"/></svg>