<svg xmlns="http://www.w3.org/2000/svg" viewBox="0 0 32 32"><path fill-rule="evenodd" d="M13.598 6.507q.216-.258.49-.566c.243-.278.503-.559.773-.829s.55-.53.828-.773c1.024-.897 1.537-1.345 2.497-1.339s1.421.421 2.343 1.25a10 10 0 0 1 .719.719c.83.922 1.244 1.383 1.25 2.343s-.442 1.472-1.339 2.496a17 17 0 0 1-1.601 1.601c-.208.18-.394.344-.567.489.615.771.921 1.39.91 2.522-.013 1.477-.481 1.997-1.418 3.036a14 14 0 0 1-1.03 1.03c-1.039.936-1.558 1.404-3.035 1.417-1.132.01-1.751-.295-2.522-.91q-.217.258-.49.567c-.243.277-.502.558-.772.828s-.55.53-.828.773c-1.024.897-1.536 1.346-2.496 1.34s-1.421-.422-2.343-1.251a10 10 0 0 1-.718-.719c-.83-.922-1.245-1.383-1.25-2.343-.007-.96.441-1.473 1.339-2.497a16.5 16.5 0 0 1 1.6-1.601q.308-.272.566-.49c-.61-.766-.914-1.385-.904-2.512.014-1.477.482-1.996 1.417-3.035A14 14 0 0 1 8.05 7.02c1.039-.935 1.558-1.403 3.035-1.417 1.128-.01 1.747.293 2.514.903m5.02 2.361a15 15 0 0 1-.708.66 26 26 0 0 1-.573.493 43 43 0 0 0-1.862-1.861c.126-.153.28-.33.493-.572.214-.244.436-.484.66-.708a23 23 0 0 1 1.324-1.189 4 4 0 0 1 .223-.17q.05.038.139.11c.14.117.302.261.543.478a7 7 0 0 1 .532.532c.217.24.361.402.478.543q.073.088.11.138c-.034.05-.087.12-.17.223a23 23 0 0 1-1.189 1.323m-10.461 6.61c-.153.126-.33.28-.571.492-.244.214-.484.436-.708.66a15 15 0 0 0-.66.709c-.233.266-.396.452-.529.616a4 4 0 0 0-.17.222q.038.05.11.139c.117.14.261.302.478.543a7 7 0 0 0 .532.532c.24.217.402.361.543.478q.088.072.138.11c.05-.034.12-.087.223-.17.163-.133.35-.296.615-.529a14 14 0 0 0 1.368-1.368c.213-.242.367-.419.493-.572a43 43 0 0 1-1.862-1.862m4.576-6.427c.57.493 1.215 1.089 1.924 1.797a37 37 0 0 1 2.408 2.645c.146.185.214.293.251.362l.003.006c.032.059.086.159.082.536-.003.43-.064.522-.07.533h-.001a1.7 1.7 0 0 1-.178.252c-.124.154-.28.327-.526.6a12 12 0 0 1-.846.846c-.273.247-.447.402-.601.526-.143.116-.216.16-.25.178h-.002c-.01.007-.102.068-.532.072-.378.003-.478-.05-.537-.083l-.006-.003a2.6 2.6 0 0 1-.361-.25 37 37 0 0 1-2.646-2.408 37 37 0 0 1-2.409-2.646 2.6 2.6 0 0 1-.25-.361l-.003-.006c-.032-.06-.086-.159-.083-.537.004-.43.065-.522.071-.532v-.001c.02-.035.063-.107.178-.25.125-.155.28-.328.526-.601a12 12 0 0 1 .847-.848c.274-.246.447-.4.601-.525.143-.115.216-.159.25-.178h.002c.01-.007.102-.067.532-.071.378-.003.478.05.537.082l.006.004c.068.036.176.105.36.25.194.151.41.338.723.61"/><path d="M23.748 17.25a1.25 1.25 0 0 0-2.5 0c0 2.182-1.818 4.001-3.997 4.001a1.25 1.25 0 0 0 0 2.5c3.563 0 6.496-2.94 6.496-6.501"/><path d="M29 17.25a1.25 1.25 0 1 0-2.5 0c0 5.052-4.197 9.25-9.25 9.25a1.25 1.25 0 0 0 0 2.5C23.685 29 29 23.683 29 17.25"/></svg>