<svg xmlns="http://www.w3.org/2000/svg" viewBox="0 0 44 44"><path d="M19.198 7.512a52 52 0 0 1 3.273 3.015 52 52 0 0 1 3.014 3.27 25 25 0 0 0 1.686-1.717c1.232-1.374 1.849-2.062 1.829-3.42l-.003-.09c-.055-1.358-.58-1.883-1.633-2.935s-1.578-1.577-2.937-1.632L24.337 4c-1.359-.02-2.046.596-3.422 1.828a25 25 0 0 0-1.717 1.685m1.151 5.135a49 49 0 0 1 2.778 3.007l.075.088c.971 1.157 1.457 1.735 1.465 3.025.007 1.29-.404 1.793-1.228 2.798a13.6 13.6 0 0 1-1.904 1.903c-1.005.823-1.508 1.235-2.799 1.227s-1.869-.493-3.026-1.464a48 48 0 0 1-3.096-2.852 49 49 0 0 1-2.854-3.096c-.97-1.156-1.456-1.734-1.464-3.024s.404-1.792 1.227-2.796a13.6 13.6 0 0 1 1.906-1.906c1.005-.822 1.507-1.233 2.798-1.226 1.29.008 1.868.493 3.025 1.464l.087.073a49 49 0 0 1 3.01 2.78m-9.857 9.852a52 52 0 0 1-3.016-3.271 25 25 0 0 0-1.65 1.68C4.596 22.283 3.982 22.969 4 24.326l.003.097c.056 1.357.582 1.883 1.634 2.934 1.051 1.052 1.577 1.578 2.933 1.634l.097.003c1.358.018 2.043-.597 3.415-1.826a25 25 0 0 0 1.682-1.651 52 52 0 0 1-3.272-3.015M38.548 22a1.5 1.5 0 0 1 1.451 1.547c-.284 8.955-7.498 16.17-16.454 16.452a1.5 1.5 0 0 1-.094-2.998c7.372-.233 13.316-6.176 13.55-13.548A1.5 1.5 0 0 1 38.548 22"/><path d="M32.497 23.592a1.5 1.5 0 0 0-2.994-.184 6.53 6.53 0 0 1-6.097 6.095 1.5 1.5 0 1 0 .184 2.994c4.777-.293 8.613-4.128 8.907-8.905"/></svg>