<svg xmlns="http://www.w3.org/2000/svg" viewBox="0 0 44 44"><path fill-rule="evenodd" d="M26.145 16.32c.852 1.068 1.275 1.925 1.26 3.493-.018 2.045-.667 2.765-1.963 4.204a19 19 0 0 1-1.425 1.424c-1.44 1.296-2.159 1.944-4.205 1.963-1.567.015-2.425-.408-3.492-1.26-.201.24-.427.498-.678.785a24 24 0 0 1-1.07 1.147 24 24 0 0 1-1.147 1.07C12.007 30.389 11.298 31.01 9.97 31c-1.33-.008-1.968-.583-3.245-1.732a13 13 0 0 1-.994-.994c-1.149-1.277-1.723-1.916-1.732-3.246s.613-2.039 1.855-3.457c.337-.385.696-.773 1.07-1.147a24 24 0 0 1 1.146-1.07c.287-.251.545-.477.785-.677-.845-1.062-1.265-1.919-1.25-3.48.018-2.045.666-2.764 1.962-4.202a19 19 0 0 1 1.427-1.427c1.439-1.296 2.158-1.943 4.204-1.962 1.56-.014 2.418.405 3.479 1.25.2-.24.427-.498.678-.785a24 24 0 0 1 1.07-1.147 24 24 0 0 1 1.147-1.07C22.99 4.613 23.7 3.992 25.03 4.001s1.968.583 3.246 1.731a13 13 0 0 1 .994.994c1.15 1.277 1.724 1.915 1.733 3.245.008 1.329-.613 2.038-1.856 3.456a24 24 0 0 1-1.07 1.146c-.374.374-.762.733-1.147 1.07-.287.251-.545.477-.784.677m-1.974-2.26a58 58 0 0 0-3.233-3.23c.177-.215.39-.459.673-.782.302-.344.616-.683.935-1.002.32-.32.659-.633 1.003-.935.366-.32.631-.552.866-.743.5-.406.598-.484 1.087-.08.203.169.434.376.766.674a10 10 0 0 1 .77.77c.299.332.506.563.674.766.405.489.327.586-.08 1.087-.19.234-.422.499-.743.865-.301.344-.615.683-.935 1.002-.32.32-.658.634-1.003.935-.322.283-.567.496-.78.673m-13.345 6.88c-.214.177-.458.39-.78.673a20 20 0 0 0-1.938 1.937c-.32.367-.552.632-.743.866-.407.501-.485.598-.08 1.087.169.203.375.434.674.766a10 10 0 0 0 .77.77c.332.3.563.506.766.675.489.404.586.326 1.087-.08.234-.191.499-.423.865-.744.344-.301.683-.615 1.003-.935s.633-.658.934-1.002c.283-.323.497-.567.674-.781a58 58 0 0 1-3.232-3.232m6.956-8.909a53 53 0 0 1 2.687 2.51c.988.989 1.82 1.89 2.51 2.686.795.915 1.083 1.27 1.252 1.586.086.16.179.367.173.973-.006.675-.107.864-.153.951-.118.223-.321.476-1.04 1.273a16 16 0 0 1-1.203 1.203c-.798.718-1.05.922-1.273 1.04-.087.046-.277.146-.951.153-.606.005-.814-.088-.974-.173-.315-.169-.671-.457-1.587-1.252a52 52 0 0 1-2.685-2.51 52 52 0 0 1-2.511-2.686c-.795-.914-1.083-1.27-1.251-1.585-.086-.16-.18-.367-.173-.973.006-.675.106-.864.152-.95.118-.223.321-.476 1.039-1.272A16 16 0 0 1 13 11.798c.797-.718 1.05-.92 1.272-1.039.087-.046.277-.146.951-.153.606-.005.814.088.974.173.314.169.67.457 1.585 1.251"/><path d="M38.548 22A1.5 1.5 0 0 1 40 23.548c-.284 8.955-7.499 16.17-16.454 16.452a1.5 1.5 0 0 1-.094-2.998c7.372-.233 13.316-6.176 13.55-13.548A1.5 1.5 0 0 1 38.548 22"/><path d="M32.498 23.592a1.5 1.5 0 0 0-2.994-.184 6.53 6.53 0 0 1-6.097 6.095 1.5 1.5 0 1 0 .184 2.994c4.777-.293 8.612-4.128 8.907-8.905"/></svg>