<svg xmlns="http://www.w3.org/2000/svg" viewBox="0 0 24 24"><path fill-rule="evenodd" d="M2.248 2.248C.498 3.998.368 5.743.108 9.231A38 38 0 0 0 0 12c0 .932.04 1.865.108 2.77.26 3.487.39 5.231 2.14 6.982 1.75 1.75 3.495 1.88 6.983 2.14.904.067 1.837.108 2.77.108.932 0 1.865-.04 2.77-.108 3.487-.26 5.231-.39 6.982-2.14 1.75-1.75 1.88-3.495 2.14-6.983.067-.904.108-1.837.108-2.77 0-.932-.04-1.865-.108-2.77-.26-3.487-.39-5.231-2.14-6.982-1.75-1.75-3.495-1.88-6.983-2.14A38 38 0 0 0 12 0c-.932 0-1.865.04-2.77.108-3.487.26-5.231.39-6.982 2.14m18.895 9.57a.174.174 0 0 0-.166-.171c-3.28-.125-5.276-.543-6.673-1.94-1.4-1.4-1.817-3.397-1.941-6.684a.17.17 0 0 0-.171-.166h-.383a.174.174 0 0 0-.171.166c-.125 3.286-.542 5.285-1.941 6.684-1.398 1.398-3.394 1.815-6.674 1.94a.17.17 0 0 0-.166.17v.384c0 .091.075.167.166.171 3.28.124 5.277.543 6.674 1.94 1.396 1.396 1.813 3.388 1.94 6.663a.17.17 0 0 0 .17.165h.385a.174.174 0 0 0 .171-.166c.126-3.274.543-5.266 1.94-6.663 1.398-1.398 3.393-1.815 6.673-1.939a.17.17 0 0 0 .166-.171v-.383z"/></svg>