<svg xmlns="http://www.w3.org/2000/svg" viewBox="0 0 32 32"><path fill-rule="evenodd" d="M2.997 2.997C.663 5.331.49 7.657.144 12.307A50 50 0 0 0 0 16.002c0 1.243.054 2.487.144 3.693.346 4.65.52 6.976 2.853 9.31s4.66 2.507 9.31 2.853c1.206.09 2.45.144 3.694.144s2.487-.054 3.693-.144c4.65-.346 6.976-.519 9.31-2.853s2.507-4.66 2.853-9.31c.09-1.206.144-2.45.144-3.693a50 50 0 0 0-.144-3.693c-.346-4.651-.519-6.977-2.853-9.31C26.67.662 24.344.49 19.694.143A50 50 0 0 0 16 0a50 50 0 0 0-3.693.144C7.657.49 5.33.664 2.998 2.997m25.194 12.76a.23.23 0 0 0-.221-.228c-4.374-.166-7.036-.724-8.898-2.586-1.867-1.866-2.423-4.53-2.588-8.913a.23.23 0 0 0-.229-.22h-.51a.23.23 0 0 0-.229.22c-.165 4.381-.721 7.047-2.587 8.913-1.865 1.864-4.525 2.42-8.899 2.586a.23.23 0 0 0-.22.228v.51c0 .122.099.223.22.229 4.374.166 7.036.724 8.899 2.586s2.418 4.518 2.585 8.884c.004.122.105.22.229.22h.512a.23.23 0 0 0 .229-.22c.167-4.366.723-7.022 2.586-8.884 1.864-1.864 4.524-2.42 8.898-2.586a.23.23 0 0 0 .22-.228v-.51z"/></svg>