<svg xmlns="http://www.w3.org/2000/svg" viewBox="0 0 16 16"><path fill-rule="evenodd" d="M1.499 1.499C.332 2.666.245 3.829.072 6.154A25 25 0 0 0 0 8c0 .622.027 1.244.072 1.847.173 2.325.26 3.488 1.427 4.655s2.33 1.253 4.655 1.427A26 26 0 0 0 8 16c.622 0 1.244-.028 1.847-.072 2.325-.174 3.488-.26 4.655-1.427s1.253-2.33 1.427-4.655C15.973 9.244 16 8.622 16 8s-.028-1.243-.072-1.846c-.174-2.326-.26-3.488-1.427-4.655S12.172.245 9.847.072A25 25 0 0 0 8 0c-.622 0-1.243.027-1.846.072-2.326.173-3.488.26-4.655 1.427m12.596 6.38a.117.117 0 0 0-.11-.115c-2.188-.082-3.519-.361-4.45-1.292-.933-.933-1.21-2.265-1.294-4.457a.114.114 0 0 0-.114-.11h-.255a.116.116 0 0 0-.114.11c-.083 2.19-.361 3.524-1.294 4.457-.932.932-2.262 1.21-4.45 1.292a.114.114 0 0 0-.11.115v.255c0 .06.05.111.11.114 2.188.083 3.519.362 4.45 1.293.93.931 1.209 2.26 1.293 4.442.002.06.052.11.114.11h.256c.061 0 .111-.05.114-.11.084-2.183.362-3.511 1.293-4.442.932-.932 2.262-1.21 4.45-1.293a.114.114 0 0 0 .11-.114z"/></svg>