<svg xmlns="http://www.w3.org/2000/svg" viewBox="0 0 24 24"><path fill-rule="evenodd" d="M4.584 4.007a.5.5 0 0 1 .292.142c.075.072 1.99 1.905 5.749 2.376 1.438.18 2.427 1.043 3.04 1.818.216.273.39.54.524.773l.805-1.008A2.884 2.884 0 0 1 20.13 9.84l.663.664c.34.34.248.914-.183 1.13l-1.486.744v.742c0 1.223 0 2.557-.406 3.72-.428 1.224-1.296 2.239-2.95 2.83-2.05.731-3.654.09-4.697-.328a7 7 0 0 0-.647-.237c-1.165-.333-2.414.21-3.126.625-.497.29-1.203.149-1.488-.423l-1.426-2.854c-.31-.62.084-1.36.77-1.45l1.84-.242c-.351-.271-.758-.61-1.174-1.007-1.148-1.098-2.43-2.708-2.706-4.641-.509-3.562.839-4.81 1.091-5.004a.5.5 0 0 1 .38-.102"/></svg>