<svg xmlns="http://www.w3.org/2000/svg" viewBox="0 0 16 16"><path fill-rule="evenodd" d="M3.303 3.005c.073.01.125.048.157.082.07.074 1.327 1.384 3.771 1.663.905.104 1.532.6 1.927 1.056a4 4 0 0 1 .403.563l.766-.787a1.78 1.78 0 0 1 1.272-.534c.932 0 1.69.722 1.755 1.617l.453.316a.446.446 0 0 1-.094.784l-1.01.4v.43c0 1.524-.522 3.376-2.115 4.104-.788.36-1.649.344-2.384.224-.536-.087-1.037-.237-1.397-.344a11 11 0 0 0-.327-.095c-.429-.112-.924-.08-1.392.014a6.3 6.3 0 0 0-1.14.35.585.585 0 0 1-.748-.277l-.957-1.988a.55.55 0 0 1 .447-.782l1.715-.18a8 8 0 0 1-.766-.618c-.7-.64-1.465-1.59-1.603-2.777-.257-2.224.933-3.082 1.084-3.18a.27.27 0 0 1 .183-.04"/></svg>