<svg xmlns="http://www.w3.org/2000/svg" viewBox="0 0 44 44"><path fill-rule="evenodd" d="M9.224 7.788a1.015 1.015 0 0 0-1.273-.115l-.013.008-.003.003c-.196.136-1.006.764-1.64 2.205-.636 1.443-1.064 3.636-.599 6.853.506 3.495 2.904 6.392 5.032 8.354a27 27 0 0 0 2.032 1.69l-4.206.623a1.5 1.5 0 0 0-1.128 2.155l2.88 5.723c.484.962 1.706 1.064 2.415.483.829-.68 2.52-1.706 4.642-1.108.316.09.7.225 1.178.395q.347.125.767.27c.821.284 1.793.596 2.84.826 2.076.457 4.576.62 6.882-.517 4.554-2.247 6.032-7.202 6.032-11.836v-1.18l2.711-1.338c.803-.396.976-1.46.34-2.087l-1.228-1.212c-.034-2.735-2.276-4.943-5.038-4.943a5.05 5.05 0 0 0-3.594 1.499l-2.134 2.158a12 12 0 0 0-.968-1.41c-1.119-1.395-2.93-2.954-5.565-3.28-6.883-.848-10.337-4.194-10.362-4.219"/></svg>