<svg xmlns="http://www.w3.org/2000/svg" viewBox="0 0 24 24"><path d="M12.997 3.575c0 .537.392.958.927.997.228.016.488.037.712.058 1.008.093 1.701.168 2.208.26l.261.045a1 1 0 0 0 1.113-.779c.09-.434-.13-.954-.621-1.148-.7-.18-1.426-.246-2.475-.342l-.302-.028a35 35 0 0 0-.786-.063c-.565-.04-1.037.435-1.037 1M20.42 11a.983.983 0 0 1-.997-.927 37 37 0 0 0-.058-.713c-.093-1.008-.168-1.702-.26-2.208a8 8 0 0 1-.045-.261 1 1 0 0 1 .779-1.114c.434-.09.953.13 1.147.622.18.7.246 1.426.342 2.475l.028.302q.036.388.064.787c.039.564-.435 1.036-1 1.037m-7.423 9.424c0-.537.392-.958.927-.997.228-.016.488-.037.712-.058 1.008-.093 1.701-.168 2.207-.26l.262-.045a1 1 0 0 1 1.113.779c.09.434-.13.954-.621 1.148-.7.18-1.426.246-2.475.342l-.302.027q-.388.037-.786.064c-.565.04-1.037-.435-1.037-1m7.422-7.425a.983.983 0 0 0-.996.927c-.017.228-.038.489-.058.713-.094 1.008-.169 1.702-.26 2.208a8 8 0 0 0-.045.261 1 1 0 0 0 .778 1.114c.434.09.954-.13 1.148-.622.18-.7.246-1.426.342-2.475l.027-.302q.037-.388.064-.787c.04-.564-.435-1.036-1-1.037M3.575 11a.983.983 0 0 0 .996-.927c.016-.228.037-.489.058-.713.093-1.008.169-1.702.26-2.208a7 7 0 0 0 .045-.261 1 1 0 0 0-.778-1.114c-.434-.09-.954.13-1.148.622-.18.7-.246 1.426-.342 2.475l-.028.302q-.036.388-.064.787c-.038.564.435 1.036 1 1.037m7.424-7.425a.983.983 0 0 1-.928.997c-.228.016-.488.037-.712.058-1.008.093-1.701.168-2.207.26l-.262.045a1 1 0 0 1-1.113-.779c-.09-.434.13-.954.622-1.148.7-.18 1.425-.246 2.475-.342l.301-.028q.388-.035.787-.063c.564-.04 1.036.435 1.037 1m0 16.851a.985.985 0 0 0-.928-.999 36 36 0 0 1-.712-.058c-1.008-.093-1.701-.168-2.207-.26l-.262-.045a1 1 0 0 0-1.113.779c-.09.434.13.954.622 1.148.7.18 1.425.246 2.475.342l.301.027q.388.037.787.064c.564.04 1.036-.433 1.037-.998m-7.425-7.427c.536 0 .96.393.999.927.016.228.037.489.058.713.093 1.008.168 1.702.26 2.208l.045.261a1 1 0 0 1-.779 1.114c-.434.09-.953-.13-1.148-.622-.179-.7-.245-1.426-.341-2.475l-.028-.302a35 35 0 0 1-.064-.787c-.039-.564.433-1.036.998-1.037"/><path fill-rule="evenodd" d="M9.593 14.909A4.495 4.495 0 0 1 6 10.5a4.5 4.5 0 1 1 8.944.713l.032.05c.23.355.485.785.785 1.29l.986 1.661c.996 1.679 1.494 2.518 1.139 3.152S16.563 18 14.627 18h-2.254c-1.936 0-2.904 0-3.259-.634a.93.93 0 0 1-.11-.54c.034-.457.33-1.04.816-1.877a5 5 0 0 1-.227-.04m3.356-4.913q.016.08.028.162c-.506.318-.98 1.116-1.738 2.395l-.235.396a2.51 2.51 0 0 1-2.44-.867 2.5 2.5 0 1 1 4.385-2.086m1.092 3.577a67 67 0 0 0-.541-.902c-.153.248-.329.544-.541.902l-.687 1.158-.015.003-.733 1.263c.249.003.528.003.849.003h2.254c.321 0 .6 0 .849-.003-.13-.223-.278-.473-.45-.762z"/></svg>