<svg xmlns="http://www.w3.org/2000/svg" viewBox="0 0 24 24"><path d="M13.924 4.572a.983.983 0 0 1-.927-.997c0-.565.472-1.04 1.037-1q.398.028.786.063l.302.028c1.05.096 1.775.163 2.475.342.49.194.711.714.621 1.148a1 1 0 0 1-1.113.779 8 8 0 0 1-.261-.046c-.507-.09-1.2-.166-2.208-.26-.224-.02-.484-.04-.712-.057m5.499 5.501c.04.534.46.926.996.927.566 0 1.04-.473 1-1.037q-.028-.399-.063-.787l-.028-.302c-.096-1.05-.162-1.775-.342-2.475a1.024 1.024 0 0 0-1.148-.622 1 1 0 0 0-.778 1.113c.004.029.018.107.046.262.09.506.166 1.2.26 2.208.02.224.04.485.057.713m-6.426 10.351c0-.537.392-.958.927-.997.228-.016.488-.037.712-.058 1.008-.093 1.701-.168 2.207-.26l.262-.045a1 1 0 0 1 1.113.779c.09.434-.13.954-.621 1.148-.7.18-1.426.246-2.475.342l-.302.027q-.388.037-.786.064c-.565.04-1.037-.435-1.037-1m6.426-6.498a.983.983 0 0 1 .996-.927c.565 0 1.04.473 1 1.037q-.027.399-.064.787l-.027.302c-.096 1.05-.163 1.775-.342 2.475a1.024 1.024 0 0 1-1.148.622 1 1 0 0 1-.778-1.114 7 7 0 0 1 .045-.261c.091-.506.166-1.2.26-2.208.02-.224.041-.485.058-.713M3.575 11a.983.983 0 0 0 .996-.927c.016-.228.037-.489.058-.713.093-1.008.169-1.702.26-2.208.028-.155.042-.233.045-.262a1 1 0 0 0-.778-1.113c-.434-.09-.954.13-1.148.622-.18.7-.246 1.426-.342 2.475l-.028.302q-.036.388-.064.787c-.038.564.435 1.036 1 1.037m6.496-6.428a.983.983 0 0 0 .928-.997c-.001-.565-.473-1.04-1.037-1q-.399.028-.787.063l-.301.028c-1.05.096-1.776.163-2.475.342a1.024 1.024 0 0 0-.622 1.148 1 1 0 0 0 1.113.779c.029-.004.106-.018.262-.046.506-.09 1.2-.166 2.207-.26.224-.02.484-.04.712-.057m.928 15.854a.985.985 0 0 0-.928-.999 37 37 0 0 1-.712-.058c-1.008-.093-1.701-.168-2.207-.26l-.262-.045a1 1 0 0 0-1.113.779c-.09.434.13.954.622 1.148.7.18 1.425.246 2.475.342l.301.027q.388.037.787.064c.564.04 1.036-.433 1.037-.998m-6.426-6.5A.985.985 0 0 0 3.573 13c-.565 0-1.037.473-.998 1.037q.027.399.064.787l.028.301c.096 1.05.162 1.776.341 2.476.195.492.714.712 1.148.622a1 1 0 0 0 .779-1.114l-.046-.261c-.09-.506-.166-1.2-.26-2.208-.02-.224-.041-.485-.057-.713m4.768-1.171a34 34 0 0 0-.61 1.038A4.002 4.002 0 0 1 10 6c1.499 0 2.805.825 3.49 2.045-.942.169-1.572.783-1.95 1.24-.403.49-.807 1.16-1.202 1.815zm2.65-.522-.876 1.454c-.885 1.468-1.328 2.202-1.012 2.757.315.555 1.175.555 2.896.555h2.004c1.72 0 2.58 0 2.896-.555s-.127-1.289-1.012-2.758l-.876-1.453C15.112 10.744 14.663 10 14 10c-.664 0-1.112.745-2.01 2.233"/></svg>