<svg xmlns="http://www.w3.org/2000/svg" viewBox="0 0 24 24"><path d="M9.054 9.338A4 4 0 0 1 13 6h.36c.552 0 1-.428 1-.98 0-.518-.393-.945-.897-.997A5 5 0 0 0 13 4a6 6 0 0 0-5.919 5.01C4.397 8.943 2 11.087 2 13.82c0 1.772.986 3.32 2.455 4.155.955.637 1.917.721 3.49.858.364.031.812.063 1.223.089.566 0 1-.448 1-1 0-.485-.345-.858-.802-.95-.41-.081-.832-.096-1.248-.132-1.327-.115-1.866-.189-2.259-.364a3.8 3.8 0 0 1-.972-.648A2.74 2.74 0 0 1 4 13.82c0-1.499 1.267-2.81 2.95-2.81.607 0 1.214.029 1.82.044.15-1.113.284-1.715.284-1.715"/><path fill-rule="evenodd" d="M11 14.6c0-3.788 2.93-8.104 5.5-8.104s5.502 4.316 5.502 8.103c0 2.689-1.7 5.402-5.502 5.402S11 17.288 11 14.599m2 0c0-1.424.57-3.066 1.441-4.35.4-.588 1.225-1.754 2.059-1.754s1.66 1.165 2.06 1.755c.872 1.284 1.442 2.925 1.442 4.348 0 .944-.3 1.795-.821 2.382-.485.546-1.296 1.02-2.681 1.02s-2.195-.474-2.68-1.02c-.52-.587-.82-1.438-.82-2.382"/></svg>