<svg xmlns="http://www.w3.org/2000/svg" viewBox="0 0 16 16"><path d="M2.525 8c-.38-.475-.424-1.029-.5-2.003a7.5 7.5 0 0 1 .057-1.718c.104-.703.156-1.055.657-1.53.5-.475.925-.516 1.776-.597C5.385 2.07 6.548 2 8 2s2.616.07 3.485.152c.85.081 1.276.122 1.776.597.501.475.553.827.657 1.531a7.5 7.5 0 0 1 .057 1.716l-.02.254c0 .414-.342.75-.756.75a.75.75 0 0 1-.738-.882l.019-.238q.02-.256.02-.503c0-.31-.026-.605-.066-.878a9 9 0 0 0-.064-.4 1 1 0 0 0-.042-.154 1 1 0 0 0-.1-.108.5.5 0 0 0-.09-.074.2.2 0 0 0-.05-.02 2 2 0 0 0-.238-.044 14 14 0 0 0-.507-.053A36 36 0 0 0 8 3.5c-1.404 0-2.52.067-3.343.146-.221.02-.375.036-.507.053a2 2 0 0 0-.237.045.2.2 0 0 0-.05.019.5.5 0 0 0-.091.074 1 1 0 0 0-.106.12 1 1 0 0 0-.036.142 9 9 0 0 0-.064.4A6 6 0 0 0 3.52 5.88c.023.29.04.507.062.693.021.184.042.296.062.37a.4.4 0 0 0 .037.1.4.4 0 0 0 .07.078l.004.004c.019.019.051.05.241.08.183.03.413.041.756.046q.306-.004.671-.003l3.33.002A.75.75 0 0 1 9.5 8a.753.753 0 0 1-.747.754h-3.33q-.365 0-.67-.003a6 6 0 0 0-.757.045c-.19.03-.222.062-.241.08l-.005.005a.4.4 0 0 0-.07.079.4.4 0 0 0-.036.099c-.02.074-.041.186-.062.37-.022.186-.039.402-.062.692q-.02.257-.02.503c0 .31.026.606.066.878.027.185.045.302.064.4a1 1 0 0 0 .042.154.7.7 0 0 0 .1.108c.054.052.083.07.09.074s.017.01.05.019c.04.012.11.027.238.044a31 31 0 0 0 2.062.16h.038a.75.75 0 0 1 .75.75.754.754 0 0 1-.746.754 33 33 0 0 1-1.74-.117c-.85-.08-1.275-.121-1.775-.596s-.553-.827-.657-1.53a7.5 7.5 0 0 1-.057-1.717c.076-.975.119-1.529.5-2.004"/><path d="M6.233 5.333a.9.9 0 1 1-1.8 0 .9.9 0 0 1 1.8 0m-.9 6.234a.9.9 0 1 0 0-1.8.9.9 0 0 0 0 1.8"/><path fill-rule="evenodd" d="M9.857 10.002h.04C10.047 8.87 10.96 8 12.062 8c.957 0 1.77.655 2.068 1.568.787.21 1.37.97 1.37 1.875q0 .095-.01.192c-.02.378-.068.655-.196.939-.187.414-.654.906-1.058 1.115-.446.23-.8.248-1.507.285q-.461.025-.979.026c-.528 0-.996-.023-1.402-.057-.513-.043-.86-.072-1.182-.23A1.93 1.93 0 0 1 8 11.926c0-1.062.831-1.924 1.857-1.924m-.032 2.364-.041-.02-.042-.018a.43.43 0 0 1-.242-.402c0-.285.21-.424.357-.424h.007l1.342.03.178-1.332c.063-.471.41-.7.678-.7.237 0 .522.167.641.532l.253.775.787.21c.09.024.257.157.257.426l-.002.026-.005.046-.002.047c-.014.277-.043.347-.064.395l-.043.069a1.4 1.4 0 0 1-.27.283q-.06.044-.065.046a.6.6 0 0 1-.21.068 7 7 0 0 1-.688.053q-.425.023-.9.024a15 15 0 0 1-1.815-.108 1 1 0 0 1-.094-.02l-.01-.003-.004-.002z"/></svg>