<svg xmlns="http://www.w3.org/2000/svg" viewBox="0 0 24 24"><path fill-rule="evenodd" d="M5.96 3.276C7.407 3.131 9.423 3 12 3c2.575 0 4.592.13 6.039.276 1.312.132 1.618.189 2.08.62.279.258.392.443.467.636.094.239.149.53.246 1.094.1.573.167 1.215.167 1.9q-.002.584-.059 1.13c-.078.766-.127 1.201-.234 1.547-.09.284-.22.509-.522.781a1.7 1.7 0 0 1-.313.229A4.5 4.5 0 0 0 18.5 11c-.744 0-1.446.18-2.064.5H6.87c-2.031 0-2.54-.05-3.056-.516-.301-.272-.432-.497-.521-.781-.108-.345-.157-.78-.235-1.546A11 11 0 0 1 3 7.527c0-.687.068-1.33.167-1.903.098-.564.152-.854.246-1.092.076-.193.189-.378.467-.637.462-.43.768-.487 2.08-.619M8.75 7.5a1.25 1.25 0 1 1-2.5 0 1.25 1.25 0 0 1 2.5 0m6.396 5H6.87c-2.03 0-2.54.05-3.055.516-.301.272-.432.497-.521.781-.108.345-.157.78-.235 1.546q-.057.546-.059 1.13c0 .687.068 1.33.167 1.903.098.564.152.854.246 1.092.076.193.189.378.467.637.462.43.768.486 2.08.619 1.414.142 3.372.27 5.864.276-.524-.75-.824-1.765-.824-2.674 0-1.987 1.366-3.632 3.196-4.142a4.5 4.5 0 0 1 .95-1.684m-6.396 4a1.25 1.25 0 1 1-2.5 0 1.25 1.25 0 0 1 2.5 0"/><path d="M16.021 15.17a2.5 2.5 0 0 1 4.923-.198l.117.544.523.188c.96.345 1.407 1.315 1.416 2.296.004.482-.087.966-.294 1.38-.088.177-.263.42-.495.665-.233.243-.468.43-.64.525-.543.304-.939.338-2.245.4Q18.696 21 18 21c-.768 0-1.45-.031-2.045-.079-.691-.056-1.064-.09-1.374-.185-.254-.078-.492-.206-.817-.532-.442-.443-.764-1.239-.764-1.878 0-1.164.911-2.163 2.135-2.292l.783-.083z"/></svg>