<svg xmlns="http://www.w3.org/2000/svg" viewBox="0 0 16 16"><path fill-rule="evenodd" d="M8.42 14.002 8.422 14h4.828a.75.75 0 0 0 0-1.5H9.872c.414-.519.847-1.145 1.28-1.9a46 46 0 0 0 1.771-3.381c.483-1.033.724-1.549.485-2.49-.24-.943-.606-1.213-1.338-1.752a9 9 0 0 0-.774-.508c-.956-.555-1.434-.832-1.881-.92a2.68 2.68 0 0 0-2.263.6c-.346.296-.615.757-1.152 1.678-.483.828-1.036 1.783-1.64 2.834l-2.026 3.525c-.048.083-.072.124-.114.218a1 1 0 0 0-.06.15C1.45 12.696 3.198 14.002 5.17 14zM5.384 7.889l4.194 2.422c-.627 1.011-1.228 1.711-1.727 2.189h-1.2l-.046.001H5.17c-.614 0-1.608-.117-1.667-.876-.018-.228.046-.48.09-.615l.04-.076zm.748-1.3c.42-.729.811-1.402 1.164-2.006.6-1.03.726-1.205.832-1.295.28-.24.639-.336 1.001-.265.027.005.116.027.357.149a24 24 0 0 1 1.058.594c.228.132.44.274.636.418.199.147.328.244.416.316.414.335.484.871.297 1.35a14 14 0 0 1-.329.733 41 41 0 0 1-1.239 2.427z"/></svg>