<svg xmlns="http://www.w3.org/2000/svg" viewBox="0 0 24 24"><path fill-rule="evenodd" d="M20 21a1 1 0 1 0 0-2h-5.624a22 22 0 0 0 2.144-3.105 67 67 0 0 0 2.622-4.982c.717-1.523 1.075-2.284.72-3.675-.353-1.391-.894-1.788-1.975-2.58a13 13 0 0 0-1.135-.742c-1.402-.81-2.104-1.215-2.76-1.343a3.98 3.98 0 0 0-3.373.893c-.506.435-.9 1.11-1.69 2.457a765 765 0 0 0-2.433 4.183l-3 5.198c-.07.122-.106.183-.168.32a2 2 0 0 0-.09.221c-.164.49-.42 1.556-.042 2.655.64 1.86 2.807 2.499 4.613 2.499zm-4.57-7.24L8.88 9.98c.643-1.109 1.238-2.13 1.775-3.046.872-1.49 1.079-1.789 1.268-1.952a1.98 1.98 0 0 1 1.687-.446c.068.014.22.056.58.238.372.188.841.458 1.562.874q.512.298.952.622c.408.3.626.466.765.591.546.49.64 1.33.399 1.992-.099.271-.262.627-.535 1.21a63 63 0 0 1-1.903 3.698m-.999 1.733c-1.025 1.662-2.007 2.773-2.804 3.506H7.808c-1.055 0-2.705-.269-2.802-1.558a2.6 2.6 0 0 1 .124-.948l.021-.047.023-.049.054-.093 2.651-4.593z"/></svg>