<svg xmlns="http://www.w3.org/2000/svg" viewBox="0 0 44 44"><path d="M21.962 1.1a1.5 1.5 0 0 1 1.077 0l13 5a1.5 1.5 0 1 1-1.077 2.8L22.5 4.107 10.04 8.9a1.5 1.5 0 1 1-1.077-2.8z"/><path fill-rule="evenodd" d="M13 36.5a1.5 1.5 0 0 0 3 0V29h9.237q.24 0 .474-.003c4.56-.059 8.29-3.356 8.29-7.916 0-4.646-3.802-8.04-8.448-8.08h-5.669c-1.646 0-2.47 0-3.143.187a5.11 5.11 0 0 0-3.553 3.552C13 17.414 13 18.238 13 19.884zm3-16.616V26h9.237q.219 0 .435-.003c3.154-.04 5.328-2.224 5.328-4.916 0-2.794-2.262-5.052-5.473-5.08h-5.643c-1.847 0-2.159.027-2.338.077a2.11 2.11 0 0 0-1.468 1.468c-.05.179-.078.49-.078 2.338"/></svg>