<svg xmlns="http://www.w3.org/2000/svg" viewBox="0 0 16 16"><path d="M4.002 2a.75.75 0 0 0 0 1.5h6.75a.75.75 0 0 1 0 1.5H4.44a2.438 2.438 0 0 0-.89 4.707l2.669 1.042-.065.242a1.38 1.38 0 0 0 .64 1.551l2.228 1.294.32.121a.69.69 0 0 0 .911-.467l1.226-4.573a.69.69 0 0 0-.555-.86l-.339-.055-2.576.007a1.38 1.38 0 0 0-1.33 1.023l-.07.26-2.512-.981A.938.938 0 0 1 4.44 6.5h6.312a2.25 2.25 0 0 0 0-4.5zm7.74 11.693 1.064.285a.67.67 0 0 0 .823-.475l.846-3.158A.67.67 0 0 0 14 9.522l-1.065-.286-.018.07z"/></svg>