<svg xmlns="http://www.w3.org/2000/svg" viewBox="0 0 16 16"><path fill-rule="evenodd" d="M3.25 2.75A.75.75 0 0 1 4 2h6.75a2.25 2.25 0 0 1 0 4.5H4.438a.938.938 0 0 0-.343 1.81L6.66 9.312l.088-.326A1.33 1.33 0 0 1 8.036 8h2.946l.562.153c.354.096.564.46.47.814l-.035.13 2.025.579c.356.095.567.46.472.816l-.812 3.008a.667.667 0 0 1-.816.471l-2.015-.576-.03.112a.667.667 0 0 1-.815.47l-.563-.148-2.561-1.464a1.33 1.33 0 0 1-.622-1.497l.027-.098-2.721-1.063A2.438 2.438 0 0 1 4.438 5h6.312a.75.75 0 0 0 0-1.5H4a.75.75 0 0 1-.75-.75m6.349 9.45.72-2.7H8.163l-.438 1.63zm1.64-.25 1.197.343.377-1.398-1.197-.343z"/></svg>