<svg xmlns="http://www.w3.org/2000/svg" viewBox="0 0 44 44"><path d="M29.387 15.909a1.43 1.43 0 1 0 0-2.861 1.43 1.43 0 0 0 0 2.86"/><path fill-rule="evenodd" d="M21.997 15.594a6.409 6.409 0 1 1 0 12.818 6.409 6.409 0 0 1 0-12.818m4.16 6.409a4.16 4.16 0 1 1-8.32 0 4.16 4.16 0 0 1 8.32 0"/><path fill-rule="evenodd" d="M.194 16.925C.67 10.53.908 7.333 4.118 4.123S10.524.676 16.919.2a69 69 0 0 1 5.078-.198c1.71 0 3.42.075 5.078.198 6.395.476 9.592.714 12.802 3.923s3.447 6.407 3.923 12.802a69 69 0 0 1 .198 5.078c0 1.71-.075 3.42-.198 5.078-.476 6.394-.714 9.592-3.923 12.801-3.21 3.21-6.407 3.448-12.802 3.924a69 69 0 0 1-5.078.198c-1.71 0-3.42-.075-5.078-.198-6.395-.476-9.592-.714-12.801-3.924C.908 36.672.67 33.475.194 27.081a69 69 0 0 1-.198-5.078c0-1.71.075-3.42.198-5.078m21.802-6.843c3.237 0 3.643.014 4.915.072 1.268.058 2.135.26 2.893.554a5.8 5.8 0 0 1 2.111 1.375 5.8 5.8 0 0 1 1.375 2.111c.295.758.496 1.625.554 2.894.058 1.271.072 1.677.072 4.914 0 3.238-.014 3.643-.072 4.915-.058 1.269-.26 2.135-.554 2.893a5.8 5.8 0 0 1-1.375 2.112 5.8 5.8 0 0 1-2.111 1.374c-.758.295-1.625.496-2.893.554-1.272.058-1.678.072-4.915.072s-3.643-.014-4.914-.072-2.136-.259-2.894-.554a5.8 5.8 0 0 1-2.111-1.374 5.8 5.8 0 0 1-1.375-2.112c-.295-.758-.496-1.624-.554-2.893-.058-1.272-.072-1.678-.072-4.915s.014-3.643.072-4.914c.058-1.269.26-2.136.554-2.894a5.8 5.8 0 0 1 1.375-2.111 5.8 5.8 0 0 1 2.111-1.375c.758-.294 1.625-.496 2.893-.554 1.272-.058 1.678-.072 4.915-.072"/></svg>