<svg xmlns="http://www.w3.org/2000/svg" viewBox="0 0 16 16"><path d="M12.4 2.09c.65.03.973.044 1.276.353.303.308.31.536.322.993v.128c-.013.456-.019.685-.322.993-.303.309-.627.324-1.275.353a98 98 0 0 1-4.4.09C6.03 5 4.556 4.954 3.6 4.91c-.649-.03-.973-.044-1.276-.353-.303-.308-.309-.537-.321-.993v-.128c.012-.456.018-.685.321-.993.303-.309.627-.324 1.276-.353C4.556 2.046 6.032 2 8 2c1.97 0 3.444.046 4.4.09m0 4.5c.65.03.973.044 1.276.353.303.308.31.536.322.993v.128c-.013.457-.019.685-.322.993-.303.309-.627.324-1.275.353-.957.044-2.431.09-4.4.09S4.556 9.454 3.6 9.41c-.649-.03-.973-.044-1.276-.353-.303-.308-.309-.537-.321-.993v-.128c.012-.456.018-.685.321-.993.303-.309.627-.324 1.276-.353.956-.044 2.432-.09 4.4-.09 1.97 0 3.444.046 4.4.09m1.276 4.85c-.303-.31-.627-.324-1.276-.354a97 97 0 0 0-4.4-.09c-1.968 0-3.443.047-4.4.09-.648.03-.973.045-1.276.353-.302.309-.309.537-.321.995v.13c.012.456.019.685.321.993.303.309.628.324 1.276.353.957.044 2.432.09 4.4.09 1.97 0 3.444-.046 4.4-.09.649-.03.973-.044 1.276-.353.303-.308.309-.537.322-.994v-.13c-.013-.457-.02-.685-.322-.994"/></svg>