<svg xmlns="http://www.w3.org/2000/svg" viewBox="0 0 16 16"><path fill-rule="evenodd" d="M6 2.921c0-.44-.377-.794-.814-.733-.87.12-1.465.34-2.062.937-.596.596-.816 1.191-.937 2.06-.06.437.292.815.733.815.39 0 .71-.299.766-.684.094-.64.222-.854.499-1.13.276-.277.49-.405 1.13-.5A.785.785 0 0 0 6 2.922m4.814-.733c-.437-.06-.814.292-.814.733 0 .39.299.71.684.766.64.094.855.222 1.131.499.277.276.405.49.5 1.13a.785.785 0 0 0 .765.685c.44 0 .794-.377.733-.814-.12-.87-.34-1.465-.937-2.062-.596-.596-1.191-.816-2.062-.937M6 13.08c0 .44-.377.794-.814.734-.87-.121-1.465-.341-2.062-.938s-.817-1.192-.938-2.063c-.06-.437.293-.814.734-.814.39 0 .709.299.766.684.094.641.222.856.499 1.133.276.276.49.404 1.13.498A.786.786 0 0 1 6 13.08M13.08 10c.44 0 .794.377.734.813-.121.871-.341 1.467-.938 2.063-.596.596-1.191.817-2.061.938-.437.06-.815-.293-.815-.734 0-.39.299-.709.685-.766.64-.094.854-.222 1.13-.498.277-.277.405-.492.5-1.132A.785.785 0 0 1 13.08 10M4.514 5.653c.032-.436.048-.654.267-.873s.437-.235.873-.267a5 5 0 0 1 .692 0c.436.032.654.048.873.267s.235.437.267.873a5 5 0 0 1 0 .692c-.032.436-.048.654-.267.873s-.437.235-.873.267a5 5 0 0 1-.692 0C5.218 7.454 5 7.438 4.78 7.22s-.235-.437-.267-.873a5 5 0 0 1 0-.692M4.78 8.78c-.219.219-.235.437-.267.873a5 5 0 0 0 0 .692c.032.436.048.654.267.873s.437.235.873.268a5 5 0 0 0 .692 0c.436-.033.654-.05.873-.268s.235-.437.267-.873a5 5 0 0 0 0-.692C7.454 9.218 7.438 9 7.22 8.78s-.437-.235-.873-.267a5 5 0 0 0-.692 0c-.436.032-.654.048-.873.267m3.733-3.127c.032-.436.048-.654.267-.873s.437-.235.873-.267a5 5 0 0 1 .692 0c.436.032.654.048.873.267s.235.437.268.873a5 5 0 0 1 0 .692c-.033.436-.05.654-.268.873s-.437.235-.873.267a5 5 0 0 1-.692 0C9.218 7.454 9 7.438 8.78 7.22s-.235-.437-.267-.873a5 5 0 0 1 0-.692M10.55 10a.3.3 0 0 0-.3.3v.45a.75.75 0 0 1-1.5 0v-1.4c0-.47.38-.85.85-.85H11a.75.75 0 0 1 0 1.5z"/></svg>