<svg xmlns="http://www.w3.org/2000/svg" viewBox="0 0 24 24"><path d="M13.714 7.995c0-.92-.775-1.667-1.727-1.667s-1.727.748-1.727 1.667.775 1.667 1.727 1.667 1.727-.748 1.727-1.667"/><path fill-rule="evenodd" d="M.106 9.23c.26-3.486.39-5.23 2.14-6.981S5.741.368 9.23.108A38 38 0 0 1 11.999 0c.932 0 1.865.04 2.77.108 3.487.26 5.231.39 6.982 2.14 1.75 1.75 1.88 3.495 2.14 6.983.067.904.108 1.837.108 2.77 0 .932-.04 1.865-.108 2.77-.26 3.487-.39 5.231-2.14 6.982-1.75 1.75-3.495 1.88-6.983 2.14-.904.067-1.837.108-2.77.108-.932 0-1.865-.04-2.77-.108-3.487-.26-5.231-.39-6.982-2.14-1.75-1.75-1.88-3.495-2.14-6.983A38 38 0 0 1-.002 12c0-.932.04-1.865.108-2.77m11.882 2.79c2.3 0 4.171-1.805 4.171-4.025s-1.87-4.027-4.171-4.027c-2.3 0-4.171 1.806-4.171 4.027s1.87 4.026 4.171 4.026m1.697 3.286a8 8 0 0 0 2.423-.968c.57-.347.742-1.076.383-1.627a1.247 1.247 0 0 0-1.685-.37 5.46 5.46 0 0 1-5.617 0 1.246 1.246 0 0 0-1.684.37c-.36.552-.189 1.28.382 1.627a8 8 0 0 0 2.422.968l-2.332 2.251a1.15 1.15 0 0 0 0 1.669c.24.23.552.345.865.345s.626-.115.864-.346l2.291-2.212 2.293 2.212c.477.461 1.25.461 1.727 0a1.15 1.15 0 0 0 0-1.668z"/></svg>