<svg xmlns="http://www.w3.org/2000/svg" viewBox="0 0 44 44"><path d="M25.143 14.658c0-1.685-1.42-3.056-3.166-3.056s-3.167 1.37-3.167 3.056c0 1.684 1.422 3.056 3.167 3.056 1.746 0 3.166-1.372 3.166-3.056"/><path fill-rule="evenodd" d="M.194 16.923C.67 10.528.908 7.331 4.118 4.121S10.524.674 16.919.198A69 69 0 0 1 21.997 0c1.71 0 3.42.075 5.078.198 6.395.476 9.592.714 12.802 3.923s3.447 6.407 3.923 12.802c.123 1.658.198 3.368.198 5.078s-.075 3.42-.198 5.078c-.476 6.395-.714 9.592-3.923 12.801-3.21 3.21-6.407 3.448-12.802 3.924a69 69 0 0 1-5.078.198c-1.71 0-3.42-.075-5.078-.198-6.395-.476-9.592-.714-12.801-3.924C.908 36.671.67 33.473.194 27.08A69 69 0 0 1-.004 22c0-1.71.075-3.42.198-5.078m21.785 5.115c4.218 0 7.647-3.31 7.647-7.38 0-4.072-3.429-7.383-7.647-7.383s-7.648 3.311-7.648 7.383c0 4.07 3.43 7.38 7.648 7.38m3.111 6.023a14.6 14.6 0 0 0 4.441-1.775c1.047-.637 1.362-1.972.703-2.982-.66-1.013-2.042-1.317-3.09-.68-3.132 1.901-7.166 1.9-10.296 0-1.049-.637-2.431-.333-3.089.68-.66 1.01-.345 2.345.701 2.982a14.6 14.6 0 0 0 4.441 1.775l-4.275 4.127a2.11 2.11 0 0 0 0 3.059 2.28 2.28 0 0 0 1.584.633 2.28 2.28 0 0 0 1.586-.633l4.2-4.056 4.203 4.056a2.296 2.296 0 0 0 3.167 0 2.11 2.11 0 0 0 0-3.059z"/></svg>