<svg xmlns="http://www.w3.org/2000/svg" viewBox="0 0 44 44"><path fill-rule="evenodd" d="M37.092 30.867c-2.382 2.396-4.243 2.549-7.966 2.854-2.037.167-4.413.28-7.126.28s-5.088-.113-7.124-.28c-3.724-.305-5.586-.458-7.969-2.854s-2.516-4.148-2.783-7.652A42 42 0 0 1 4 20c0-1.121.046-2.198.124-3.215.267-3.503.4-5.255 2.783-7.651s4.245-2.55 7.968-2.855A87 87 0 0 1 22 6c2.713 0 5.09.112 7.127.28 3.722.305 5.583.458 7.965 2.854 2.383 2.395 2.516 4.146 2.784 7.648a42 42 0 0 1 0 6.437c-.268 3.501-.401 5.252-2.784 7.648M11.266 9.79c-.69.211-1.336.557-2.231 1.458-.919.923-1.252 1.555-1.447 2.184-.244.786-.332 1.727-.473 3.58A39 39 0 0 0 7 20c0 1.04.043 2.04.115 2.987.141 1.853.229 2.795.473 3.58.195.63.528 1.261 1.447 2.184.895.901 1.541 1.247 2.23 1.458.855.262 1.893.361 3.856.522a84 84 0 0 0 6.879.27c2.63 0 4.925-.11 6.88-.27 1.963-.16 3-.26 3.854-.522.69-.21 1.335-.556 2.23-1.457.92-.924 1.253-1.555 1.448-2.184.244-.785.331-1.726.473-3.578.072-.948.115-1.95.115-2.99s-.043-2.041-.115-2.99c-.142-1.852-.23-2.793-.473-3.578-.195-.628-.529-1.26-1.447-2.183-.896-.901-1.542-1.247-2.23-1.458-.855-.26-1.892-.36-3.854-.522A84 84 0 0 0 22 9c-2.63 0-4.923.109-6.88.27-1.962.16-3 .26-3.854.521"/><path d="M11.5 38.5A1.5 1.5 0 0 1 13 37h18a1.5 1.5 0 0 1 0 3H13a1.5 1.5 0 0 1-1.5-1.5"/></svg>