<svg xmlns="http://www.w3.org/2000/svg" viewBox="0 0 16 16"><path d="M4.996 2.118C5.839 2.048 6.842 2 8.004 2s2.164.048 3.007.118c1.38.115 2.069.172 2.933 1.038s.915 1.488 1.015 2.731a14 14 0 0 1 0 2.226c-.1 1.243-.15 1.864-1.015 2.73-.864.867-1.554.924-2.933 1.039-.842.07-1.846.118-3.007.118s-2.165-.049-3.008-.118c-1.378-.115-2.068-.172-2.932-1.038s-.914-1.488-1.015-2.73a14 14 0 0 1 0-2.228c.1-1.242.15-1.863 1.015-2.73.864-.866 1.554-.923 2.932-1.038m.758 11.378a.75.75 0 0 0 0 1.5h4.5a.75.75 0 0 0 0-1.5z"/></svg>