<svg xmlns="http://www.w3.org/2000/svg" viewBox="0 0 44 44"><path fill-rule="evenodd" d="M29.126 33.721c-2.037.167-4.413.28-7.126.28s-5.088-.113-7.124-.28c-3.724-.305-5.586-.458-7.969-2.854s-2.516-4.148-2.783-7.652A42 42 0 0 1 4 20c0-1.121.046-2.198.124-3.215.267-3.503.4-5.255 2.783-7.651s4.245-2.55 7.968-2.855A87 87 0 0 1 22 6c2.713 0 5.09.112 7.127.28 3.722.305 5.583.458 7.965 2.854 2.383 2.395 2.516 4.146 2.784 7.648a42 42 0 0 1 0 6.437c-.268 3.501-.401 5.252-2.784 7.648s-4.243 2.549-7.966 2.854M13 37a1.5 1.5 0 0 0 0 3h18a1.5 1.5 0 1 0 0-3z"/></svg>