<svg xmlns="http://www.w3.org/2000/svg" viewBox="0 0 24 24"><path fill-rule="evenodd" d="M3.01 9a.98.98 0 0 0-.988 1.01c.064 1.594.285 2.593 1.046 3.412 1.072 1.151 2.422 1.249 5.123 1.442a53 53 0 0 0 7.612 0c2.7-.194 4.05-.29 5.122-1.442.762-.819.982-1.818 1.046-3.412A.98.98 0 0 0 20.984 9c-.549 0-.99.442-1.014.99-.016.386-.042.71-.085.996-.093.626-.24.875-.424 1.073-.427.459-.837.598-3.801.81a51 51 0 0 1-7.326 0c-2.964-.212-3.375-.351-3.802-.81-.184-.198-.33-.447-.423-1.073a10 10 0 0 1-.086-.995A1.024 1.024 0 0 0 3.01 9"/></svg>