<svg xmlns="http://www.w3.org/2000/svg" viewBox="0 0 16 16"><path d="M8.443 4.5a2.5 2.5 0 0 1 2.177 1.272q.043.085.1.162a.749.749 0 0 0 1.342-.46.75.75 0 0 0-.078-.337 4 4 0 0 0-7.487 1.208 4 4 0 0 0-.196-.006C2.478 6.339 1 7.775 1 9.546c0 1.464 1.01 2.7 2.389 3.084.46.152.98.22 1.686.281.34.03.67.056 1.063.075A.75.75 0 0 0 7 12.244a.74.74 0 0 0-.713-.74c-.33-.016-.605-.044-.88-.069l-.203-.018c-.76-.066-1.086-.126-1.343-.211l-.034-.012-.035-.01c-.773-.215-1.292-.89-1.292-1.638 0-.902.765-1.707 1.8-1.707q.057 0 .111.003l1.346.077.22-1.33A2.5 2.5 0 0 1 8.443 4.5"/><path fill-rule="evenodd" d="M12.092 7.955C13.697 8.853 14.5 9.302 14.5 10s-.803 1.147-2.408 2.045l-.113.063-.58.34C10.24 13.095 9.525 13.496 9 13.5a.83.83 0 0 1-.435-.113C8 13.058 8 12.19 8 10.455v-.927c0-1.717 0-2.585.565-2.915A.83.83 0 0 1 9 6.5c.525.003 1.24.404 2.399 1.053l.58.339q.057.03.113.063m-.82 2.845-.606.338c-.503.282-.869.485-1.15.627a34 34 0 0 1-.016-1.31v-.927c0-.56.002-.978.015-1.293.282.142.648.345 1.151.627l.606.322c.644.36 1.065.613 1.38.816-.19.122-.427.257-.72.423q-.292.163-.66.377"/></svg>