<svg xmlns="http://www.w3.org/2000/svg" viewBox="0 0 16 16"><path d="M11.445 5.672c.277.13.582.292.906.471a4.001 4.001 0 0 0-7.854.202 4 4 0 0 0-.196-.006C2.478 6.339 1 7.775 1 9.546c0 1.465 1.01 2.7 2.39 3.084.46.152.98.197 1.685.258.747.065 1.62.11 2.62.112a4 4 0 0 1-.114-.52c-.081-.55-.081-1.247-.081-1.964V9.47c0-.71 0-1.403.082-1.952.087-.589.328-1.438 1.18-1.938a2.26 2.26 0 0 1 1.17-.31c.583.004 1.115.218 1.513.403"/><path d="m12.778 8.113-.105-.06-.536-.312c-1.07-.599-1.73-.969-2.214-.972a.76.76 0 0 0-.402.104C9 7.18 9 7.98 9 9.565v.855c0 1.6 0 2.401.52 2.707a.76.76 0 0 0 .403.104c.484-.004 1.145-.373 2.214-.972l.536-.313.106-.06C14.259 11.059 15 10.645 15 10s-.74-1.058-2.222-1.887"/></svg>