<svg xmlns="http://www.w3.org/2000/svg" viewBox="0 0 24 24"><path d="M11.592 18.999c-.088-.794-.088-1.76-.088-2.776v-1.985c0-1.133 0-2.198.123-3.03.132-.885.482-2.09 1.692-2.787a3.16 3.16 0 0 1 1.539-.42c.87-.015 1.672.31 2.29.607.546.262 1.168.615 1.84 1.003A6 6 0 0 0 7.08 9.01l-.13-.002C4.217 9.008 2 11.162 2 13.82c0 1.772.986 3.32 2.454 4.156.956.637 1.918.721 3.491.858 1.05.09 2.267.155 3.647.166"/><path d="M18.38 11.57c-1.698-.984-2.73-1.582-3.49-1.57a1.15 1.15 0 0 0-.573.155c-.813.468-.813 1.716-.813 4.22v1.715c0 2.503 0 3.787.813 4.255a1.14 1.14 0 0 0 .574.155c.355.006.77-.13 1.284-.375.515-.246 1.13-.604 1.885-1.042l1.55-.9c.843-.488 1.53-.887 2.06-1.246.884-.599 1.33-1.089 1.33-1.705 0-.626-.46-1.12-1.371-1.73-.52-.35-1.187-.736-1.998-1.206z"/></svg>