<svg xmlns="http://www.w3.org/2000/svg" viewBox="0 0 32 32"><path d="M8.304 11.445v1.888H2.456v1.663h4.449v1.809h-4.45v1.861h5.89v1.889H0v-9.11zm.931 4.568q0-1.32.357-2.232.356-.91 1.043-1.465.686-.568 1.663-.805.978-.252 2.231-.251 1.149 0 2.047.171.911.172 1.558.568.66.396 1.043 1.043.396.634.488 1.558h-2.482a1.64 1.64 0 0 0-.29-.713 1.34 1.34 0 0 0-.542-.436 2.3 2.3 0 0 0-.792-.224 7 7 0 0 0-1.03-.066q-.62 0-1.135.106-.515.092-.898.356-.37.25-.58.7-.2.448-.199 1.162v1.043q0 .7.198 1.148.212.436.581.7.37.265.885.37.529.092 1.162.092.555 0 .99-.053.45-.066.779-.21.343-.16.554-.41.225-.263.33-.674h2.482q-.105.885-.501 1.506-.396.607-1.056 1.003-.648.383-1.558.555-.899.184-2.034.184-1.254 0-2.23-.237-.978-.238-1.664-.78a3.47 3.47 0 0 1-1.043-1.452q-.357-.911-.357-2.257m20.27-.515q0-1.307-.806-1.822-.792-.515-2.376-.515t-2.39.515-.805 1.822v.964q0 .686.198 1.148.21.45.607.726.396.277.99.397.608.105 1.4.105t1.386-.105q.594-.12.99-.383a1.7 1.7 0 0 0 .608-.727q.198-.462.198-1.161zm-8.86.449q0-1.32.37-2.218.37-.912 1.096-1.453.726-.54 1.783-.779 1.056-.237 2.429-.237t2.43.237q1.055.238 1.782.78.726.54 1.095 1.452.37.898.37 2.218 0 1.36-.37 2.284a3.5 3.5 0 0 1-1.095 1.478q-.727.555-1.783.793-1.056.237-2.43.237-1.372 0-2.428-.237-1.057-.238-1.783-.793a3.5 3.5 0 0 1-1.096-1.478q-.37-.925-.37-2.284"/></svg>