<svg xmlns="http://www.w3.org/2000/svg" viewBox="0 0 17 17"><path d="M4.411 6.08v1.002H1.304v.884h2.364v.96H1.304v.99h3.128v1.002H0V6.08zm.495 2.426q0-.702.189-1.185.189-.485.554-.779.365-.302.884-.428a4.8 4.8 0 0 1 1.185-.133q.61 0 1.087.091.483.091.827.302.351.21.554.554.21.336.26.827H9.127a.9.9 0 0 0-.154-.378.7.7 0 0 0-.287-.232q-.176-.09-.421-.119a4 4 0 0 0-.547-.035q-.33 0-.603.056a1.2 1.2 0 0 0-.477.19.9.9 0 0 0-.309.371q-.105.239-.105.617v.554q0 .372.105.61a.96.96 0 0 0 .309.372q.195.14.47.196.28.05.617.05.294 0 .526-.029a1.6 1.6 0 0 0 .414-.112.8.8 0 0 0 .294-.217.9.9 0 0 0 .175-.358h1.319a1.9 1.9 0 0 1-.267.8q-.21.322-.56.533-.345.203-.828.294a5.4 5.4 0 0 1-1.08.098q-.667 0-1.185-.126a2.3 2.3 0 0 1-.884-.414 1.84 1.84 0 0 1-.554-.771q-.19-.484-.19-1.2m10.768-.273q0-.694-.428-.968-.42-.273-1.263-.273-.84 0-1.27.273-.426.274-.427.968v.512q0 .365.105.61a.96.96 0 0 0 .323.386q.21.147.526.21.323.057.743.057t.737-.057q.315-.063.526-.203a.9.9 0 0 0 .322-.386q.105-.245.105-.617zm-4.706.239q0-.701.196-1.179.196-.484.582-.771t.947-.414a6 6 0 0 1 1.29-.126q.73 0 1.29.126.562.126.947.414.387.288.583.771.195.477.196 1.179 0 .722-.196 1.213a1.87 1.87 0 0 1-.582.785 2.4 2.4 0 0 1-.947.421 6 6 0 0 1-1.29.126q-.73 0-1.291-.126a2.4 2.4 0 0 1-.947-.42 1.87 1.87 0 0 1-.582-.786q-.196-.491-.196-1.213"/></svg>