<svg xmlns="http://www.w3.org/2000/svg" viewBox="0 0 44 44"><path fill-rule="evenodd" d="M32.328 15.956a34 34 0 0 0 5.377-1.433 2.74 2.74 0 0 0 1.795-2.012 9 9 0 0 1-1.34-.25 39 39 0 0 1-1.566-.455l-.108-.034a38.3 38.3 0 0 1-12.44-6.637l-.593-.476-.109-.09A1.86 1.86 0 0 0 22 4a1.86 1.86 0 0 0-1.328.552l-.127.107-.593.476a38.3 38.3 0 0 1-12.439 6.637l-.107.034a42 42 0 0 1-1.568.454q-.662.177-1.338.25c.188.873.807 1.66 1.795 2.013l.163.058q.506.176 1.014.338c1.377.434 2.78.78 4.2 1.037-.146.974-.233 2.104-.338 3.471A118 118 0 0 0 11.069 24H6c.135.58.385 1.057.875 1.559.945.966 2.022 1.049 4.129 1.164Q11 27.112 11 27.5c0 1.902.067 3.805.169 5.603a1.484 1.484 0 0 0 1.487 1.397c.869 0 1.555-.736 1.506-1.604a97 97 0 0 1-.16-6.036c2.193.081 4.863.14 7.996.14 3.135 0 5.806-.059 8-.14l.002.64c0 1.823-.064 3.655-.162 5.396a1.514 1.514 0 0 0 1.506 1.604c.788 0 1.443-.61 1.487-1.397a100 100 0 0 0 .165-6.38c2.107-.115 3.185-.198 4.13-1.165.49-.5.74-.978.874-1.558h-5.07a118 118 0 0 0-.265-4.573c-.105-1.367-.192-2.497-.338-3.47M21.829 7.475l.17-.136.17.136a41.2 41.2 0 0 0 9.25 5.594 31 31 0 0 1-5.168.431H17.75c-1.737 0-3.466-.145-5.17-.431a41.2 41.2 0 0 0 9.25-5.594m7.52 8.885q-1.543.14-3.098.14H17.75q-1.555 0-3.098-.14c-.118.785-.213 1.833-.326 3.297-.105 1.37-.195 2.837-.254 4.343H29.93a116 116 0 0 0-.254-4.343c-.113-1.464-.207-2.512-.326-3.297"/><path d="M38 40H6c.135-.58.385-1.057.875-1.559.97-.992 2.08-1.053 4.3-1.173 2.563-.14 6.185-.268 10.823-.268 4.64 0 8.263.129 10.826.268 2.22.12 3.331.18 4.302 1.173.49.502.74.979.874 1.559"/></svg>