<svg xmlns="http://www.w3.org/2000/svg" viewBox="0 0 24 24"><path fill-rule="evenodd" d="m12.73 2.318.059.051.322.267a20.6 20.6 0 0 0 7.662 3.99q.359.099.727.14a1.52 1.52 0 0 1-.975 1.127c-.942.347-1.91.613-2.894.798.081.534.13 1.154.187 1.906q.052.677.093 1.403h3.044c-.051.496-.173.841-.537 1.213-.53.54-1.223.577-2.432.643q.015.57.014 1.144c0 1.018-.035 2.036-.089 3H15v-4.033a131 131 0 0 1-6 0V18H6.089A54 54 0 0 1 6 15q0-.574.014-1.144c-1.209-.066-1.902-.103-2.432-.643-.364-.371-.485-.717-.536-1.213h3.043q.041-.726.093-1.403c.058-.752.106-1.372.187-1.906a18 18 0 0 1-2.894-.798A1.52 1.52 0 0 1 2.5 6.766q.367-.041.726-.14a20.6 20.6 0 0 0 7.662-3.99l.322-.267.068-.058a.994.994 0 0 1 1.452.007M9.692 9Q9.346 9 9 8.987V12h6V8.987q-.345.012-.692.013z"/><path d="M3 22h18c-.051-.496-.173-.841-.537-1.213-.53-.54-1.134-.572-2.342-.637a115 115 0 0 0-6.122-.15c-2.636 0-4.684.073-6.12.15-1.209.065-1.813.098-2.342.637-.365.372-.486.717-.537 1.213"/></svg>