<svg xmlns="http://www.w3.org/2000/svg" viewBox="0 0 24 24"><path fill-rule="evenodd" d="M19.577 6.256a20.6 20.6 0 0 1-6.466-3.62l-.322-.267-.06-.05a.995.995 0 0 0-1.451-.008q-.033.03-.068.058l-.322.267a20.6 20.6 0 0 1-7.662 3.99 5 5 0 0 1-.726.14c.102.489.438.93.975 1.127a18 18 0 0 0 1.188.39q.843.246 1.706.408c-.081.534-.13 1.154-.187 1.906A65 65 0 0 0 6.042 13H3c.051.496.172.841.537 1.213.53.54 1.133.572 2.342.637l.121.007V15c0 .866.025 1.731.066 2.564a.99.99 0 0 0 .99.936c.578 0 1.034-.488 1.006-1.065A53 53 0 0 1 8 14.94c1.13.036 2.466.06 3.999.06 1.534 0 2.87-.025 4.001-.06 0 .818-.024 1.7-.062 2.495a1.01 1.01 0 0 0 1.006 1.065c.527 0 .964-.41.99-.936.04-.833.066-1.698.066-2.564v-.143l.12-.007c1.21-.065 1.813-.098 2.343-.637.364-.372.486-.717.537-1.213h-3.041a65 65 0 0 0-.141-2.403c-.058-.752-.106-1.372-.187-1.906a18 18 0 0 0 2.894-.798 1.52 1.52 0 0 0 .975-1.127 4.7 4.7 0 0 1-.886-.185 21 21 0 0 1-1.038-.325M7.999 6.91a22.6 22.6 0 0 0 4-2.6 22.6 22.6 0 0 0 4.002 2.6q-.843.09-1.693.09H9.692Q8.842 7 8 6.91m7.646 2.04q-.667.05-1.337.05H9.692q-.67 0-1.337-.05c-.062.407-.115.974-.179 1.8A63 63 0 0 0 8.043 13h7.914a63 63 0 0 0-.133-2.25c-.064-.826-.117-1.393-.18-1.8"/><path d="M21 22H3c.051-.496.172-.841.537-1.213.53-.54 1.133-.572 2.342-.637 1.436-.077 3.484-.15 6.12-.15s4.685.073 6.122.15c1.208.065 1.813.098 2.342.637.364.372.486.717.537 1.213"/></svg>