<svg xmlns="http://www.w3.org/2000/svg" viewBox="0 0 16 16"><path fill-rule="evenodd" d="m8.808 1.5-.307-.269A.66.66 0 0 0 8.004 1a.66.66 0 0 0-.495.23l-.31.27a13.5 13.5 0 0 1-5.113 2.8q-.286.083-.581.11c.066.329.289.626.644.764q1.025.398 2.099.605c-.055.36-.088.778-.127 1.285q-.035.451-.062.936H2c.026.424.09.688.371.975.353.36.83.386 1.635.43Q4 9.7 4 10c0 .678.023 1.357.06 2H6V9.478a87 87 0 0 0 4 0V12h1.94a36 36 0 0 0 .054-2.596c.806-.043 1.282-.069 1.635-.429.282-.287.346-.551.371-.975h-2.06q-.026-.485-.061-.936c-.04-.507-.071-.924-.127-1.283q1.079-.207 2.107-.607c.355-.138.578-.435.644-.764a3 3 0 0 1-.581-.11 13.5 13.5 0 0 1-5.114-2.8M6 5.987Q6.276 6 6.554 6h2.9q.273 0 .546-.012V8H6z"/><path d="M2 15h12c-.026-.424-.09-.688-.371-.975-.353-.36-.756-.382-1.562-.425-.955-.052-2.317-.1-4.068-.1s-3.112.048-4.067.1c-.805.043-1.208.065-1.561.425-.282.287-.345.551-.371.975"/></svg>