<svg xmlns="http://www.w3.org/2000/svg" viewBox="0 0 44 44"><path fill-rule="evenodd" d="m23.453 4.659-.109-.09A1.86 1.86 0 0 0 22 4a1.86 1.86 0 0 0-1.328.552l-.127.107-.593.476A38.4 38.4 0 0 1 5.838 12.26q-.662.177-1.338.25c.188.873.807 1.66 1.795 2.013a34 34 0 0 0 5.377 1.433c-.146.974-.233 2.104-.338 3.471A122 122 0 0 0 11.111 23h-5.11c.134.58.384 1.057.874 1.559.947.969 2.027 1.05 4.143 1.165q-.017.886-.018 1.776c0 2.403.106 4.806.256 7H16.5v-8.564q2.455.062 5.498.064c2.03 0 3.865-.025 5.502-.064V34.5h5.244c.15-2.194.256-4.597.256-7q0-.89-.019-1.776c2.117-.116 3.197-.196 4.145-1.166.49-.5.74-.978.874-1.558h-5.111c-.059-1.24-.136-2.44-.223-3.573-.105-1.367-.192-2.497-.338-3.47a34 34 0 0 0 5.377-1.434 2.74 2.74 0 0 0 1.795-2.012 9 9 0 0 1-1.34-.25 38.4 38.4 0 0 1-14.114-7.126zM16.5 16.477q.624.023 1.249.023h8.502q.625 0 1.249-.023V23h-11z"/><path d="M6 40h32c-.135-.58-.384-1.057-.874-1.559-.97-.992-2.081-1.053-4.302-1.173-2.563-.14-6.187-.268-10.826-.268-4.638 0-8.26.129-10.822.268-2.22.12-3.33.18-4.301 1.173-.49.502-.74.979-.875 1.559"/></svg>