<svg xmlns="http://www.w3.org/2000/svg" viewBox="0 0 44 44"><path fill-rule="evenodd" d="M33.558 29.55c-2.695.232-6.555.45-11.558.45-5.002 0-8.862-.218-11.557-.45-2.117-.182-3.175-.273-4.466-1.441s-1.437-1.946-1.73-3.5A14 14 0 0 1 4 22c0-.932.098-1.81.248-2.609.292-1.555.438-2.332 1.729-3.5 1.29-1.168 2.349-1.259 4.466-1.441C13.138 14.218 16.998 14 22 14s8.863.218 11.558.45c2.116.182 3.174.273 4.464 1.44 1.291 1.168 1.437 1.945 1.73 3.499.15.799.248 1.678.248 2.611s-.098 1.812-.248 2.611c-.293 1.554-.439 2.33-1.73 3.498s-2.348 1.259-4.464 1.441M32 24a2 2 0 1 0 0-4 2 2 0 0 0 0 4m-20.5-3.5a1.5 1.5 0 0 0 0 3h14a1.5 1.5 0 0 0 0-3z"/></svg>