<svg xmlns="http://www.w3.org/2000/svg" viewBox="0 0 32 32"><path fill-rule="evenodd" d="M16 12.5c-3.095 0-5.584.113-7.46.248-1.116.081-1.622.128-1.993.227-.219.058-.345.12-.557.337-.275.281-.308.402-.335.501-.066.245-.095.582-.14 1.525a14 14 0 0 0 0 1.324c.045.942.074 1.28.14 1.525.027.098.06.22.335.501.212.218.338.279.557.338.37.098.877.145 1.993.226 1.875.135 4.365.248 7.46.248s5.583-.113 7.459-.248c1.117-.081 1.623-.128 1.994-.226.22-.06.346-.12.558-.338.274-.281.308-.402.334-.502.067-.244.095-.583.14-1.526a14 14 0 0 0 0-1.32c-.045-.943-.073-1.281-.14-1.527-.026-.099-.06-.22-.334-.501-.212-.217-.339-.279-.558-.337-.37-.1-.877-.146-1.994-.227A104 104 0 0 0 16 12.5m11.8 7.933c-1.06 1.088-2.094 1.163-4.16 1.312-1.936.14-4.485.255-7.64.255s-5.706-.115-7.64-.255c-2.067-.15-3.1-.224-4.16-1.312-1.06-1.087-1.1-1.942-1.181-3.653a17 17 0 0 1 0-1.56c.08-1.71.12-2.566 1.181-3.654 1.06-1.087 2.093-1.162 4.16-1.311C10.295 10.115 12.845 10 16 10s5.704.115 7.64.255c2.066.15 3.1.224 4.16 1.312 1.06 1.087 1.101 1.943 1.182 3.655a17 17 0 0 1 0 1.556c-.08 1.712-.121 2.568-1.181 3.655M8 16c0-.69.56-1.25 1.25-1.25h7.5a1.25 1.25 0 1 1 0 2.5h-7.5C8.56 17.25 8 16.69 8 16m14.25 1.5a1.75 1.75 0 1 0 0-3.5 1.75 1.75 0 0 0 0 3.5"/></svg>