<svg xmlns="http://www.w3.org/2000/svg" viewBox="0 0 24 24"><path fill-rule="evenodd" d="M9.48.405a.965.965 0 0 1 1.52.789c0 .496-.239.754-.614 1.02-.429.303-.79.56-1.097.786h2.712c.7 0 1.399.03 2.077.081 2.616.195 3.924.292 5.237 1.605s1.41 2.62 1.605 5.237C20.97 10.6 21 11.3 21 12s-.03 1.4-.08 2.077c-.195 2.616-.292 3.924-1.605 5.237s-2.621 1.41-5.237 1.605C13.4 20.969 12.7 21 12 21s-1.4-.03-2.077-.081c-2.616-.195-3.924-.292-5.237-1.605s-1.43-2.62-1.625-5.237A30 30 0 0 1 3.001 13a.97.97 0 0 1 .98-1c.552 0 .998.448 1.021 1q.02.466.055.929c.204 2.75.338 3.265 1.044 3.97.706.707 1.22.82 3.971 1.025.637.048 1.287.076 1.929.076s1.291-.028 1.929-.076c2.75-.204 3.264-.318 3.97-1.024s.82-1.22 1.025-3.971c.048-.637.076-1.287.076-1.929s-.028-1.292-.076-1.929c-.204-2.75-.318-3.265-1.024-3.97-.707-.707-1.221-.82-3.971-1.025A26 26 0 0 0 12 5H9.29c.306.226.667.483 1.096.786.375.266.615.524.615 1.02a.965.965 0 0 1-1.522.789l-.005-.004C7.16 5.957 6.001 5.14 6.001 4S7.159 2.043 9.474.409zM9.106 9.48l-1.136.896v1.304l1.136-.928V15h1.336V9.48zm6.297 4.928q.576-.705.576-2.168 0-2.864-2.32-2.864-1.184 0-1.752.712t-.568 2.152q0 1.464.568 2.168.568.696 1.752.696 1.176 0 1.744-.696m-.848-3.152q.048.255.048.584v.792q0 .704-.2 1.056-.192.352-.744.352-.28 0-.464-.088a.8.8 0 0 1-.288-.264 1.3 1.3 0 0 1-.152-.44 4 4 0 0 1-.04-.616v-.792q0-.336.04-.6.048-.264.152-.44a.7.7 0 0 1 .288-.264 1 1 0 0 1 .464-.096q.271 0 .456.096a.7.7 0 0 1 .288.28q.112.176.152.44"/></svg>