<svg xmlns="http://www.w3.org/2000/svg" viewBox="0 0 44 44"><path d="M22 8c-2.712 0-5.089.112-7.126.28-3.722.305-5.584.457-7.966 2.854C5.565 12.484 4.936 13.63 4.596 15h34.809c-.341-1.37-.97-2.516-2.312-3.866-2.383-2.397-4.245-2.55-7.97-2.855A87 87 0 0 0 22 8"/><path fill-rule="evenodd" d="m4.124 18.782.06-.782h35.631l.061.786a42 42 0 0 1 0 6.429c-.267 3.503-.4 5.255-2.783 7.651s-4.245 2.55-7.97 2.855A87 87 0 0 1 22 36c-2.712 0-5.089-.112-7.126-.28-3.722-.305-5.584-.457-7.966-2.854-2.383-2.396-2.516-4.146-2.784-7.648A42 42 0 0 1 4 22c0-1.122.046-2.2.124-3.218M26.67 22.67c-.542.543-.577 1.073-.646 2.134a11 11 0 0 0 0 1.392c.069 1.06.104 1.591.646 2.134.543.542 1.073.577 2.134.646a11 11 0 0 0 1.392 0c1.06-.069 1.591-.104 2.134-.646.542-.543.577-1.073.646-2.134a11 11 0 0 0 0-1.392c-.069-1.06-.104-1.591-.646-2.134-.543-.542-1.073-.577-2.134-.646a11 11 0 0 0-1.392 0c-1.06.069-1.591.104-2.134.646"/></svg>