<svg xmlns="http://www.w3.org/2000/svg" viewBox="0 0 24 24"><path d="M12 4.001c-1.55 0-2.902.068-4.055.168-2.024.175-3.036.263-4.326 1.557-.778.781-1.116 1.445-1.297 2.275h19.357c-.18-.83-.519-1.494-1.297-2.275-1.29-1.294-2.302-1.382-4.328-1.557A47 47 0 0 0 12 4"/><path fill-rule="evenodd" d="M2 12.001c0-.701.03-1.371.081-2H21.92a25 25 0 0 1-.005 4.069c-.162 1.941-.243 2.912-1.532 4.206s-2.302 1.382-4.327 1.557c-1.153.1-2.505.168-4.055.168a47 47 0 0 1-4.055-.168c-2.024-.175-3.036-.263-4.326-1.557s-1.37-2.264-1.532-4.205A25 25 0 0 1 2 12.001m13.375.374c-.292.292-.314.582-.357 1.164a6 6 0 0 0 0 .924c.043.581.065.872.357 1.164s.582.314 1.164.357a6 6 0 0 0 .924 0c.581-.043.872-.065 1.164-.357s.314-.583.357-1.164a6 6 0 0 0 0-.924c-.043-.582-.065-.872-.357-1.164s-.583-.314-1.164-.357a6 6 0 0 0-.924 0c-.582.043-.872.065-1.164.357"/></svg>