<svg xmlns="http://www.w3.org/2000/svg" viewBox="0 0 16 16"><path d="M4.783 3.137C5.668 3.057 6.741 3 8 3s2.332.057 3.216.137c1.3.117 1.951.175 2.751.97.483.48.695.887.812 1.393H1.22c.117-.506.33-.912.812-1.392.8-.796 1.45-.854 2.75-.971"/><path fill-rule="evenodd" d="M1.037 7a14 14 0 0 0 .027 2.322c.112 1.183.169 1.775.969 2.57.8.796 1.45.855 2.75.972.885.08 1.958.136 3.217.136a36 36 0 0 0 3.216-.136c1.3-.117 1.951-.176 2.751-.972.8-.795.857-1.387.97-2.571A14 14 0 0 0 14.963 7zm8.47 2.017c.024-.385.036-.577.234-.776.199-.198.391-.21.776-.234a4 4 0 0 1 .466 0c.385.024.577.036.776.234.198.199.21.391.233.776a4 4 0 0 1 0 .466c-.023.385-.035.577-.233.776-.199.198-.391.21-.776.233a4 4 0 0 1-.466 0c-.385-.023-.577-.035-.776-.233-.198-.199-.21-.391-.234-.776a4 4 0 0 1 0-.466"/></svg>