<svg xmlns="http://www.w3.org/2000/svg" viewBox="0 0 32 32"><path d="M16 6c-1.938 0-3.638.078-5.099.196-2.71.217-4.065.326-5.803 2.076-.783.788-1.232 1.477-1.506 2.228h24.816c-.274-.75-.723-1.44-1.505-2.228-1.738-1.75-3.094-1.859-5.806-2.077A64 64 0 0 0 16 6"/><path fill-rule="evenodd" d="M3.081 13.816q.031-.43.062-.816h25.714q.031.386.062.819a30 30 0 0 1 0 4.362c-.185 2.531-.278 3.797-2.016 5.547s-3.094 1.859-5.805 2.077c-1.46.117-3.16.195-5.098.195s-3.639-.078-5.099-.195c-2.71-.218-4.065-.327-5.803-2.077s-1.831-3.015-2.017-5.544a30 30 0 0 1 0-4.368m16.402 2.667c-.397.397-.42.782-.468 1.552a8 8 0 0 0 0 .93c.047.77.071 1.155.468 1.552s.782.42 1.552.468a8 8 0 0 0 .93 0c.77-.047 1.155-.071 1.552-.468s.42-.782.468-1.552a8 8 0 0 0 0-.93c-.047-.77-.071-1.155-.468-1.552s-.782-.42-1.552-.468a8 8 0 0 0-.93 0c-.77.047-1.155.071-1.552.468"/></svg>