<svg xmlns="http://www.w3.org/2000/svg" viewBox="0 0 44 44"><path fill-rule="evenodd" d="M24.582 9.967c7.308-3.342 10.962-5.014 12.713-3.262 1.752 1.752.08 5.405-3.262 12.713l-2.378 5.2c-1.093 2.388-1.639 3.582-2.547 4.49s-2.102 1.454-4.49 2.547l-5.2 2.378c-7.308 3.342-10.961 5.014-12.713 3.262-1.752-1.751-.08-5.405 3.262-12.713l2.378-5.2c1.093-2.388 1.639-3.582 2.547-4.49s2.102-1.454 4.49-2.547zm6.723 8.203-2.379 5.2c-1.182 2.586-1.502 3.179-1.94 3.616l-9.972-9.973c.437-.437 1.03-.757 3.617-1.94l5.199-2.378c3.743-1.712 6.257-2.854 8.058-3.397.48-.145.828-.221 1.075-.26a8.5 8.5 0 0 1-.261 1.074c-.543 1.8-1.685 4.315-3.397 8.058"/></svg>