<svg xmlns="http://www.w3.org/2000/svg" viewBox="0 0 32 32"><path fill-rule="evenodd" d="M17.936 6.975c5.481-2.507 8.222-3.76 9.535-2.446s.06 4.054-2.447 9.535l-1.783 3.9c-.82 1.79-1.229 2.686-1.91 3.367s-1.577 1.09-3.368 1.91l-3.9 1.784c-5.48 2.507-8.22 3.76-9.534 2.446s-.06-4.054 2.446-9.535l1.784-3.899c.82-1.791 1.229-2.687 1.91-3.368s1.577-1.09 3.368-1.91zm4.815 6.049-1.783 3.9c-.895 1.955-1.116 2.35-1.405 2.639l-7.126-7.126c.289-.29.684-.51 2.64-1.404l3.9-1.784c2.814-1.288 4.68-2.135 6.011-2.536q.235-.07.413-.114a8 8 0 0 1-.114.413c-.4 1.33-1.248 3.197-2.536 6.012"/></svg>