<svg xmlns="http://www.w3.org/2000/svg" viewBox="0 0 16 16"><path d="m5.305 5.135-.442.461a.684.684 0 0 0 .01.957l.796.796a.75.75 0 1 0 1.06-1.062l-.233-.233c.125-.138.232-.259.328-.373.114-.139.213-.27.294-.404a1.75 1.75 0 0 0 .002-1.78c-.248-.41-.608-.763-.79-.942l-.062-.06c-.304-.305-.746-.689-1.346-.878-.669-.211-1.325-.12-1.919.147-.31.14-.665.353-.973.678-.21.22-.512.56-.719 1.032-.524 1.198-.345 2.587.23 3.746.472.95 1.292 2.21 2.713 3.636l.264.246c.288.27.73.68.882.831.3.294.781.283 1.068-.024a.755.755 0 0 0-.024-1.053c-.153-.15-.608-.575-.892-.839l-.236-.22c-1.31-1.315-2.034-2.443-2.431-3.244-.434-.874-.5-1.789-.2-2.478.101-.23.259-.42.43-.599.14-.147.317-.26.504-.344.65-.293 1.092-.074 1.587.422l.081.08c.198.197.407.405.55.64.038.063.031.17-.006.232a2 2 0 0 1-.162.217c-.09.11-.202.234-.364.412M10.51 9.01c-.114.115-.125.233-.147.47a3 3 0 0 0 0 .541c.022.236.033.355.147.469s.232.125.469.147a3 3 0 0 0 .541 0c.237-.022.355-.033.469-.147s.125-.232.147-.469a3 3 0 0 0 0-.542c-.022-.236-.033-.354-.147-.468s-.232-.125-.469-.147a3 3 0 0 0-.541 0c-.236.022-.355.033-.469.147"/><path fill-rule="evenodd" d="m13.007 13.78.637-.685c.177-.19.265-.285.345-.382a4.42 4.42 0 0 0 1.01-2.57c.008-.126.001-.255.001-.515 0-.32.005-.638-.019-.957-.063-.82-.094-1.231-.616-1.796-.521-.564-.948-.631-1.803-.765A8.5 8.5 0 0 0 11.254 6c-.446 0-.893.044-1.307.11-.855.134-1.282.2-1.804.765-.521.565-.552.975-.615 1.796a11 11 0 0 0-.017 1.472 4.42 4.42 0 0 0 1.01 2.57c.08.097.169.192.345.382l.638.685c.664.715.996 1.072 1.396 1.176.233.06.478.06.711 0 .4-.104.731-.461 1.396-1.176m.495-3.722a2.92 2.92 0 0 1-.667 1.698 8 8 0 0 1-.29.317l-.637.686c-.32.345-.509.545-.653.678a15 15 0 0 1-.652-.678l-.638-.686a8 8 0 0 1-.289-.317 2.92 2.92 0 0 1-.667-1.698 10 10 0 0 1 .014-1.272c.017-.215.028-.358.043-.48.022-.182.054-.278.18-.413.13-.14.24-.178.428-.216.13-.026.283-.05.505-.086a7 7 0 0 1 1.075-.091c.35 0 .717.035 1.075.091.223.035.375.06.505.086.188.038.3.076.43.216.124.135.156.23.179.413.015.122.026.265.042.48.032.414.04.856.017 1.271"/></svg>