<svg xmlns="http://www.w3.org/2000/svg" viewBox="0 0 24 24"><path d="M13.539 7.5a1 1 0 1 0 0-2 1 1 0 0 0 0 2m3.961 0a1 1 0 1 0 0-2 1 1 0 0 0 0 2M6.179 15.673a.603.603 0 0 1 .848.003l.04.04a2.02 2.02 0 0 0 1.433.592c.52 0 1.04-.197 1.434-.592l.04-.04a.603.603 0 0 1 .849-.003.593.593 0 0 1 .003.842l-.04.04A3.22 3.22 0 0 1 8.5 17.5a3.22 3.22 0 0 1-2.286-.945l-.039-.04a.593.593 0 0 1 .004-.842M10.5 12.5a1 1 0 1 0 0 2 1 1 0 0 0 0-2m-5 1a1 1 0 1 1 2 0 1 1 0 0 1-2 0"/><path fill-rule="evenodd" d="M15.5 2c-.796 0-2.006.156-3.137.488-.57.168-1.151.39-1.664.679-.503.283-1.009.671-1.34 1.203-.417.67-.377 1.38-.338 2.044l.007.138c.027.489.068.982.132 1.477A8 8 0 0 0 8.5 8c-.796 0-2.006.156-3.137.488-.57.168-1.151.39-1.664.679-.503.283-1.009.671-1.34 1.203-.417.671-.377 1.38-.338 2.044l.007.138c.128 2.364.606 4.853 2.262 6.94a8.3 8.3 0 0 0 1.765 1.614c.673.456 1.553.894 2.445.894s1.771-.438 2.445-.894a8.2 8.2 0 0 0 1.765-1.615c.896-1.13 1.448-2.377 1.785-3.66A3.3 3.3 0 0 0 15.5 16c.892 0 1.771-.438 2.445-.894a8.2 8.2 0 0 0 1.765-1.615c1.656-2.086 2.133-4.575 2.261-6.939l.008-.138c.038-.665.079-1.373-.338-2.044-.331-.532-.837-.92-1.34-1.203a8 8 0 0 0-1.664-.679C17.506 2.156 16.296 2 15.5 2m-.636 11.836c.257.112.475.164.636.164.29 0 .761-.17 1.324-.55a6.3 6.3 0 0 0 1.32-1.202c1.276-1.609 1.711-3.603 1.83-5.804.023-.426.034-.65.02-.819-.01-.127-.03-.164-.052-.199-.084-.136-.274-.32-.624-.517a6 6 0 0 0-1.245-.502C17.114 4.125 16.093 4 15.5 4c-.594 0-1.614.125-2.573.407a6 6 0 0 0-1.245.502c-.35.197-.54.38-.625.517-.021.035-.041.072-.051.2-.014.168-.004.392.02.818.036.665.1 1.312.209 1.934q.202.051.402.11c.57.168 1.151.39 1.664.679q.25.14.494.317a3.24 3.24 0 0 1 3.992.462l.039.039a.593.593 0 0 1-.003.842.603.603 0 0 1-.85-.003l-.038-.04a2.03 2.03 0 0 0-2.289-.405c.412.668.371 1.373.333 2.035l-.008.138q-.033.638-.107 1.284m-10.807-2.41c.085-.136.275-.32.625-.517.34-.192.77-.362 1.245-.502C6.886 10.125 7.906 10 8.5 10s1.614.125 2.573.407c.476.14.905.31 1.245.502.35.197.54.38.624.517.022.035.042.072.052.2.014.168.003.392-.02.818-.119 2.2-.554 4.195-1.83 5.804a6.3 6.3 0 0 1-1.32 1.201C9.261 19.83 8.79 20 8.5 20s-.761-.17-1.324-.55a6.3 6.3 0 0 1-1.32-1.202c-1.276-1.609-1.711-3.604-1.83-5.804-.024-.426-.034-.65-.02-.819.01-.127.03-.164.051-.199"/></svg>