<svg xmlns="http://www.w3.org/2000/svg" viewBox="0 0 44 44"><path d="M32 13.75a1.75 1.75 0 1 0 0-3.5 1.75 1.75 0 0 0 0 3.5m-7 0a1.75 1.75 0 1 0 0-3.5 1.75 1.75 0 0 0 0 3.5M11.342 29.247a1 1 0 0 1 1.41.095c.728.83 1.738 1.158 2.748 1.158s2.02-.327 2.747-1.158a1 1 0 0 1 1.506 1.317c-1.126 1.286-2.69 1.841-4.253 1.841s-3.127-.555-4.253-1.841a1 1 0 0 1 .095-1.412M19 23.25a1.75 1.75 0 1 0 0 3.5 1.75 1.75 0 0 0 0-3.5M10.25 25a1.75 1.75 0 1 1 3.5 0 1.75 1.75 0 0 1-3.5 0"/><path fill-rule="evenodd" d="M28.5 4c-1.416 0-3.586.28-5.616.883-1.021.303-2.054.7-2.959 1.215-.89.507-1.76 1.185-2.32 2.094-.7 1.135-.633 2.327-.564 3.567v.001l.013.233a36 36 0 0 0 .297 3.126A17 17 0 0 0 15.5 15c-1.416 0-3.586.28-5.616.883-1.021.303-2.054.7-2.959 1.215-.89.507-1.76 1.185-2.32 2.094-.7 1.135-.633 2.327-.564 3.567l.013.234c.231 4.306 1.092 8.785 4.038 12.529.757.961 1.89 2.042 3.137 2.892C12.435 39.238 13.97 40 15.5 40s3.065-.762 4.271-1.586c1.247-.85 2.38-1.93 3.137-2.892 1.696-2.155 2.7-4.554 3.292-7.024.739.304 1.52.502 2.3.502 1.529 0 3.065-.762 4.271-1.585 1.247-.851 2.38-1.932 3.137-2.893 2.946-3.744 3.807-8.223 4.038-12.529l.012-.222v-.012c.07-1.24.137-2.432-.563-3.567-.56-.909-1.43-1.587-2.32-2.094-.905-.514-1.938-.912-2.959-1.215C32.086 4.28 29.916 4 28.5 4m-1.761 21.437c.7.376 1.31.563 1.761.563.62 0 1.54-.353 2.58-1.064 1.002-.683 1.909-1.555 2.47-2.27 2.384-3.029 3.183-6.77 3.4-10.833.088-1.619.044-1.82-.108-2.066-.194-.316-.59-.686-1.25-1.06-.645-.368-1.45-.687-2.328-.948C31.494 7.234 29.61 7 28.5 7s-2.994.234-4.764.76c-.879.26-1.683.579-2.328.946-.66.375-1.056.745-1.25 1.061-.152.247-.196.447-.109 2.066a30 30 0 0 0 .436 3.874q.318.083.631.176c1.021.303 2.054.7 2.959 1.215.3.17.596.36.88.572 1.03-.81 2.287-1.17 3.545-1.17 1.564 0 3.127.555 4.253 1.842a1 1 0 0 1-1.506 1.317C30.52 18.827 29.51 18.5 28.5 18.5c-.756 0-1.511.183-2.148.623l.043.07c.7 1.134.633 2.326.564 3.566v.001l-.013.233a38 38 0 0 1-.207 2.444m-19.581-4.67c.194-.316.59-.686 1.25-1.06.646-.368 1.45-.687 2.328-.948C12.506 18.234 14.39 18 15.5 18s2.994.234 4.764.76c.879.26 1.683.579 2.328.946.66.375 1.056.745 1.25 1.061.152.247.196.447.109 2.066-.218 4.063-1.017 7.804-3.4 10.833-.562.715-1.47 1.587-2.47 2.27C17.039 36.647 16.12 37 15.5 37s-1.54-.353-2.58-1.064c-1.002-.683-1.909-1.555-2.47-2.27-2.384-3.029-3.183-6.77-3.4-10.833-.088-1.619-.044-1.82.108-2.066"/></svg>