<svg xmlns="http://www.w3.org/2000/svg" viewBox="0 0 44 44"><g fill-rule="evenodd" clip-rule="evenodd"><path d="M29.5 4c-2.653 0-8.515 1.076-10.102 3.638-.47.76-.43 1.528-.346 3.066.08 1.507.238 3.005.523 4.466q.544.132 1.084.29c1.115.33 2.27.77 3.3 1.353.651.37 1.324.836 1.909 1.427C26.913 17.38 28.207 17 29.5 17c1.564 0 3.127.555 4.253 1.842a1 1 0 1 1-1.505 1.317c-.727-.832-1.738-1.16-2.748-1.159-.89 0-1.778.254-2.474.882.576 1.277.499 2.585.435 3.672l-.016.285a40 40 0 0 1-.215 2.551c.775.376 1.555.61 2.27.61 2.257 0 5.157-2.332 6.542-4.084 2.799-3.54 3.67-7.837 3.906-12.212.083-1.538.125-2.307-.346-3.066C38.015 5.076 32.153 4 29.5 4M26 10.25a1.75 1.75 0 1 0 0 3.5 1.75 1.75 0 0 0 0-3.5m7 0a1.75 1.75 0 1 0 0 3.5 1.75 1.75 0 0 0 0-3.5"/><path d="M4.398 20.638C5.985 18.076 11.847 17 14.5 17s8.515 1.076 10.102 3.638c.47.76.43 1.528.346 3.066-.235 4.375-1.107 8.672-3.906 12.212C19.657 37.669 16.757 40 14.5 40s-5.157-2.331-6.542-4.084c-2.799-3.54-3.67-7.837-3.906-12.211-.083-1.539-.125-2.308.346-3.067M16.25 26a1.75 1.75 0 1 1 3.5 0 1.75 1.75 0 0 1-3.5 0M11 24.25a1.75 1.75 0 1 0 0 3.5 1.75 1.75 0 0 0 0-3.5m-.658 6.997a1 1 0 0 1 1.41.095c.728.83 1.738 1.158 2.748 1.158s2.02-.327 2.748-1.158a1 1 0 0 1 1.505 1.316c-1.126 1.287-2.69 1.842-4.253 1.842s-3.127-.555-4.252-1.842a1 1 0 0 1 .094-1.41"/></g></svg>