<svg xmlns="http://www.w3.org/2000/svg" viewBox="0 0 16 16"><path fill-rule="evenodd" d="M7.152 2.423C7.756 1.421 9.989 1 11 1s3.244.421 3.848 1.423c.18.298.164.599.132 1.2-.09 1.712-.421 3.394-1.488 4.78C12.965 9.087 11.86 10 11 10c-.344 0-.728-.146-1.099-.366q.054-.483.078-.958l.006-.112c.018-.32.04-.69-.046-1.068a.5.5 0 0 0 .452-.184A.8.8 0 0 1 11 7a.8.8 0 0 1 .609.312.5.5 0 1 0 .78-.624A1.8 1.8 0 0 0 11 6a1.79 1.79 0 0 0-1.418.725c-.263-.354-.611-.617-.945-.811a6 6 0 0 0-1.425-.58 13 13 0 0 1-.192-1.71c-.032-.602-.048-.903.132-1.2m5.348.827a.75.75 0 1 0 0 1.5.75.75 0 0 0 0-1.5M8.75 4a.75.75 0 1 1 1.5 0 .75.75 0 0 1-1.5 0"/><path fill-rule="evenodd" d="M5 6c-1.01 0-3.244.421-3.848 1.423-.18.298-.164.599-.132 1.2.09 1.712.422 3.394 1.488 4.78C3.035 14.087 4.14 15 5 15s1.965-.912 2.492-1.598c1.066-1.385 1.399-3.067 1.488-4.779.032-.601.048-.902-.132-1.2C8.244 6.422 6.011 6 5 6M2.75 9.5a.75.75 0 1 1 1.5 0 .75.75 0 0 1-1.5 0m3 0a.75.75 0 1 1 1.5 0 .75.75 0 0 1-1.5 0m-1.36 2.188a.5.5 0 1 0-.78.624A1.79 1.79 0 0 0 5 13c.517 0 1.034-.242 1.39-.687a.5.5 0 0 0-.78-.626A.8.8 0 0 1 5 12a.8.8 0 0 1-.61-.312"/></svg>