<svg xmlns="http://www.w3.org/2000/svg" viewBox="0 0 16 16"><path d="M9.25 5a.75.75 0 1 0 0-1.5.75.75 0 0 0 0 1.5m2.5 0a.75.75 0 1 0 0-1.5.75.75 0 0 0 0 1.5m-7.5 3.5a.75.75 0 1 0 0 1.5.75.75 0 0 0 0-1.5M6 9.25a.75.75 0 1 1 1.5 0 .75.75 0 0 1-1.5 0m-1.813 1.36a.5.5 0 0 1 .703.078.8.8 0 0 0 .61.312.8.8 0 0 0 .61-.312.5.5 0 0 1 .78.624A1.8 1.8 0 0 1 5.5 12a1.79 1.79 0 0 1-1.39-.688.5.5 0 0 1 .077-.702"/><path fill-rule="evenodd" d="M10.5 1c-.548 0-1.378.105-2.155.328-.39.112-.791.261-1.146.457-.347.191-.704.457-.94.828-.301.473-.272.976-.245 1.415l.005.095c.026.467.073.943.155 1.417a6 6 0 0 0-.675-.04c-.547 0-1.377.104-2.154.328-.39.112-.791.261-1.146.457-.347.191-.704.457-.94.828-.301.473-.272.976-.245 1.415l.005.095c.088 1.586.416 3.268 1.562 4.68a5.7 5.7 0 0 0 1.22 1.09c.463.308 1.075.607 1.699.607.623 0 1.234-.3 1.698-.606a5.7 5.7 0 0 0 1.22-1.092c.73-.898 1.127-1.906 1.343-2.928.238.077.487.126.739.126.623 0 1.235-.3 1.698-.606a5.7 5.7 0 0 0 1.22-1.092c1.146-1.41 1.474-3.093 1.562-4.679l.005-.095c.027-.439.056-.942-.245-1.415-.236-.371-.593-.637-.94-.828a5.6 5.6 0 0 0-1.147-.457C11.878 1.105 11.048 1 10.5 1m-.534 7.84c.225.11.409.16.534.16.182 0 .491-.106.87-.357.36-.239.686-.543.884-.786.854-1.052 1.148-2.359 1.228-3.816.016-.287.022-.429.014-.533-.006-.066-.014-.08-.02-.088l-.001-.002c-.048-.075-.165-.19-.4-.32a4 4 0 0 0-.836-.329 7 7 0 0 0-1.74-.269c-.4 0-1.09.083-1.739.27-.322.092-.61.203-.837.328-.234.13-.351.245-.399.32v.002c-.007.009-.015.022-.02.088-.01.104-.003.246.013.533.035.64.112 1.25.259 1.823.351.108.706.246 1.024.421q.215.117.422.274A1.78 1.78 0 0 1 10.499 6a1.79 1.79 0 0 1 1.391.688.5.5 0 0 1-.781.624.8.8 0 0 0-.61-.312.8.8 0 0 0-.61.312l-.027.033c.17.402.145.815.123 1.183l-.005.095zm-7.442-.922c.048-.075.165-.19.4-.32.226-.125.514-.236.836-.329C4.41 7.083 5.1 7 5.5 7s1.09.083 1.739.27c.322.092.61.203.837.328.234.13.351.245.399.32v.002c.007.009.015.022.02.088.01.104.003.246-.013.533-.08 1.457-.375 2.764-1.228 3.816a4.2 4.2 0 0 1-.883.786c-.38.25-.69.357-.872.357s-.491-.106-.87-.357a4.2 4.2 0 0 1-.884-.786c-.853-1.052-1.148-2.359-1.228-3.816a5 5 0 0 1-.014-.533c.006-.066.014-.08.02-.088z"/></svg>