<svg xmlns="http://www.w3.org/2000/svg" viewBox="0 0 24 24"><g fill-rule="evenodd" clip-rule="evenodd"><path d="M16 2c-1.516 0-4.866.608-5.773 2.056-.269.43-.245.864-.197 1.734.035.653.096 1.303.196 1.943.432.082.876.186 1.31.312a9.2 9.2 0 0 1 1.898.77c.191.107.386.229.576.368a3.24 3.24 0 0 1 4.275.263l.04.039a.593.593 0 0 1-.004.842.603.603 0 0 1-.849-.003l-.039-.04a2.03 2.03 0 0 0-2.55-.259q.084.114.16.235c.53.846.477 1.747.435 2.448l-.01.163c-.036.66-.097 1.333-.199 2.009.25.077.497.12.731.12 1.29 0 2.947-1.318 3.738-2.308 1.6-2.001 2.098-4.43 2.233-6.903.047-.869.07-1.304-.198-1.733C20.866 2.608 17.516 2 16 2m-2 5a1 1 0 1 0 0-2 1 1 0 0 0 0 2m4 0a1 1 0 1 0 0-2 1 1 0 0 0 0 2"/><path d="M2.227 11.056C3.134 9.608 6.484 9 8 9s4.866.608 5.773 2.056c.268.43.245.864.197 1.734-.134 2.472-.632 4.9-2.232 6.902C10.947 20.682 9.29 22 8 22s-2.947-1.318-3.738-2.308c-1.6-2.001-2.098-4.43-2.232-6.902-.048-.87-.072-1.304.197-1.734M9 14a1 1 0 1 1 2 0 1 1 0 0 1-2 0m-3-1a1 1 0 1 0 0 2 1 1 0 0 0 0-2m-.321 4.173a.603.603 0 0 1 .848.003l.04.04a2.03 2.03 0 0 0 2.867 0l.04-.04a.603.603 0 0 1 .849-.003.593.593 0 0 1 .003.842l-.04.04a3.236 3.236 0 0 1-4.572 0l-.039-.04a.593.593 0 0 1 .004-.842"/></g></svg>