<svg xmlns="http://www.w3.org/2000/svg" viewBox="0 0 24 24"><path fill-rule="evenodd" d="M4.168 16.056A47 47 0 0 1 4 12c0-1.549.068-2.901.168-4.054.175-2.025.263-3.038 1.557-4.327s2.265-1.37 4.207-1.532a25 25 0 0 1 4.137 0c1.941.162 2.912.242 4.206 1.532s1.382 2.302 1.557 4.327c.1 1.153.168 2.505.168 4.054s-.068 2.903-.168 4.056c-.175 2.024-.263 3.036-1.557 4.325s-2.264 1.37-4.205 1.532a25 25 0 0 1-4.14 0c-1.94-.161-2.911-.242-4.205-1.532-1.294-1.289-1.381-2.301-1.557-4.325M9 8a1 1 0 0 1 1-1c.61 0 1.167.106 1.642.37q.195.109.358.243.162-.133.358-.243C12.833 7.106 13.39 7 14 7a1 1 0 0 1 1 1v1h-1c-.39 0-.583.07-.67.118a.38.38 0 0 0-.17.196c-.058.127-.106.324-.133.63-.02.24-.025.504-.027.806l.867-.433A3 3 0 0 1 15.208 10H17c0 2.073-1.718 4.145-3.73 4.793.21.141.422.207.73.207a1 1 0 1 1 0 2 3.22 3.22 0 0 1-2-.655A3.22 3.22 0 0 1 10 17a1 1 0 1 1 0-2c.308 0 .52-.066.73-.207C8.719 14.145 7 12.073 7 10h1.792a3 3 0 0 1 1.341.317l.867.433a10 10 0 0 0-.027-.806c-.027-.306-.075-.503-.133-.63a.38.38 0 0 0-.17-.196C10.584 9.069 10.39 9 10 9H9z"/></svg>