<svg xmlns="http://www.w3.org/2000/svg" viewBox="0 0 24 24"><path d="M9 8a1 1 0 0 1 1-1c.61 0 1.167.106 1.642.37q.195.109.358.243.162-.133.358-.243C12.833 7.106 13.39 7 14 7a1 1 0 0 1 1 1v1h-1c-.39 0-.583.07-.67.118a.38.38 0 0 0-.17.196c-.058.127-.106.324-.133.63-.02.24-.025.504-.027.806l.867-.433A3 3 0 0 1 15.208 10H17c0 2.073-1.718 4.145-3.73 4.793.21.141.422.207.73.207a1 1 0 1 1 0 2 3.22 3.22 0 0 1-2-.655A3.22 3.22 0 0 1 10 17a1 1 0 1 1 0-2c.308 0 .52-.066.73-.207C8.719 14.145 7 12.073 7 10h1.792a3 3 0 0 1 1.341.317l.867.433a10 10 0 0 0-.027-.806c-.027-.306-.075-.503-.133-.63a.38.38 0 0 0-.17-.196C10.584 9.069 10.39 9 10 9H9z"/><path fill-rule="evenodd" d="M4 12c0 1.55.068 2.903.168 4.056.175 2.024.263 3.036 1.557 4.325s2.264 1.37 4.205 1.532a25 25 0 0 0 4.14 0c1.94-.161 2.911-.242 4.205-1.532 1.294-1.289 1.382-2.301 1.557-4.325.1-1.153.168-2.506.168-4.056s-.067-2.901-.168-4.054c-.175-2.025-.263-3.038-1.557-4.327s-2.265-1.37-4.206-1.532a25 25 0 0 0-4.137 0c-1.942.162-2.913.242-4.207 1.532S4.343 5.92 4.168 7.946A47 47 0 0 0 4 12m2.16 3.883A45 45 0 0 1 6 12c0-1.49.065-2.785.16-3.88.094-1.08.149-1.603.278-2.024.097-.313.25-.613.699-1.06.46-.458.755-.607 1.043-.697.394-.122.88-.173 1.918-.259a23 23 0 0 1 3.805 0c1.037.086 1.523.137 1.917.26.288.09.584.238 1.043.696.449.447.602.747.699 1.06.13.42.184.944.278 2.023.095 1.096.16 2.39.16 3.881 0 1.492-.065 2.787-.16 3.883-.094 1.078-.149 1.601-.278 2.022-.097.312-.25.612-.699 1.06-.46.458-.755.606-1.043.696-.393.123-.879.173-1.916.26a23 23 0 0 1-3.808 0c-1.037-.087-1.522-.137-1.916-.26-.288-.09-.584-.238-1.043-.696-.449-.448-.602-.748-.699-1.06-.13-.42-.184-.944-.278-2.022"/></svg>