<svg xmlns="http://www.w3.org/2000/svg" viewBox="0 0 16 16"><path fill-rule="evenodd" d="M2.25 2.5a.75.75 0 0 0-.75.75c0 .633.197 1.53.56 2.37.36.835.938 1.743 1.79 2.268A.75.75 0 0 0 4.244 8h2.923c.628 0 .943 0 1.138.195s.195.51.195 1.138V12.5H6.581c.29-.704.42-1.49.42-2.25V10a.5.5 0 0 0-.5-.5h-3.5a.5.5 0 0 0-.499.5H2.25a.75.75 0 0 0 0 1.5h.379c.068.341.161.678.294 1H2.75a.75.75 0 0 0 0 1.5h8.085c1.492 0 2.238 0 2.702-.463.463-.464.463-1.21.463-2.702v-.774q0-.195-.004-.39c-.053-2.391-.08-3.587-1.333-4.897a7 7 0 0 0-.22-.215c-.925-.848-1.76-1.109-2.945-1.19L9.5 3.25a.75.75 0 0 0-.75-.75zm2.502 10c.028 0 .227-.03.453-.597.108-.273.187-.59.236-.903H4.063c.05.313.128.63.236.903.226.566.425.597.453.597m4.47-7.644a8 8 0 0 1-.282.764 6.5 6.5 0 0 1-.521.98c.298.078.642.229.947.534.422.423.55.92.597 1.267.038.285.038.613.037.877V12.5h.835c.788 0 1.229-.003 1.536-.044.071-.01.075-.014.085-.085.041-.307.044-.748.044-1.536v-.774q0-.176-.004-.358c-.027-1.247-.05-1.975-.18-2.56-.11-.49-.296-.871-.737-1.332a5 5 0 0 0-.15-.146c-.479-.44-.858-.614-1.32-.71a6 6 0 0 0-.888-.1m-5.785.17A6 6 0 0 1 3.101 4h4.798a6 6 0 0 1-.336 1.026c-.27.626-.63 1.157-1.04 1.474H4.477c-.41-.317-.77-.848-1.04-1.474"/></svg>