<svg xmlns="http://www.w3.org/2000/svg" viewBox="0 0 16 16"><path d="M2.25 2.5a.75.75 0 0 0-.75.75c0 .633.197 1.53.56 2.37.36.835.938 1.743 1.79 2.268A.75.75 0 0 0 4.244 8h2.512a.75.75 0 0 0 .394-.112c.852-.525 1.43-1.433 1.79-2.268.363-.84.56-1.737.56-2.37a.75.75 0 0 0-.75-.75z"/><path d="M8.49 8.767c.01.154.01.34.01.566V12.5H6.202a8 8 0 0 0 .516-1.014c.152-.373.283-.808.283-1.236V10a.5.5 0 0 0-.5-.5h-3.5a.5.5 0 0 0-.5.5H2.25a.75.75 0 0 0 0 1.5h.54c.145.352.33.696.51 1h-.55a.75.75 0 0 0 0 1.5h8.084c1.492 0 2.238 0 2.702-.463.463-.464.463-1.21.463-2.702v-.774q0-.195-.004-.39c-.053-2.391-.079-3.587-1.333-4.897a7 7 0 0 0-.22-.215c-.49-.449-.954-.733-1.459-.913-.062.803-.305 1.73-.666 2.568-.35.81-.925 1.806-1.827 2.553"/></svg>