<svg xmlns="http://www.w3.org/2000/svg" viewBox="0 0 24 24"><path d="M2 5a1 1 0 0 1 1-1h10a1 1 0 0 1 1 1c0 .929-.292 2.257-.832 3.507-.537 1.242-1.394 2.576-2.644 3.345A1 1 0 0 1 10 12H6a1 1 0 0 1-.524-.148c-1.25-.769-2.106-2.103-2.644-3.345C2.292 7.257 2 5.929 2 5"/><path d="M5 14h5a1 1 0 0 1 1 1c0 .836 0 2.257-.355 3.435a5 5 0 0 1-.206.565h2.56v-6.6c.937-.971 1.58-2.119 2.005-3.1.57-1.317.932-2.773.988-3.98.947.252 1.776.704 2.662 1.514.083.076.258.247.336.329 1.878 1.964 1.918 3.754 1.998 7.334.013.585.01 1.17.012 1.755 0 2.248-.005 3.357-.7 4.053-.696.695-1.815.695-4.053.695H4a1 1 0 0 1 0-2h.561a5 5 0 0 1-.206-.565A8 8 0 0 1 4.08 17H3a1 1 0 0 1 0-2h1a1 1 0 0 1 1-1"/></svg>