<svg xmlns="http://www.w3.org/2000/svg" viewBox="0 0 24 24"><path fill-rule="evenodd" d="M4.686 4.686c-1.313 1.313-1.41 2.62-1.605 5.237C3.031 10.6 3 11.3 3 12s.03 1.399.081 2.077c.195 2.616.292 3.924 1.605 5.237s2.62 1.41 5.237 1.605C10.6 20.969 11.3 21 12 21s1.399-.03 2.077-.081c2.616-.195 3.924-.292 5.237-1.605s1.41-2.62 1.605-5.237C20.969 13.4 21 12.7 21 12s-.03-1.399-.081-2.077c-.195-2.616-.292-3.924-1.605-5.237s-2.62-1.41-5.237-1.605A28 28 0 0 0 12 3c-.7 0-1.399.03-2.077.081-2.616.195-3.924.292-5.237 1.605M8.5 9q-.22 0-.434.014a1 1 0 0 1-.132-1.995q.28-.02.566-.019a8.5 8.5 0 0 1 8.481 9.066 1 1 0 0 1-1.996-.132Q15 15.72 15 15.5A6.5 6.5 0 0 0 8.5 9m-.376 3.523q.184-.023.376-.023a3 3 0 0 1 2.977 3.376 1 1 0 0 0 1.984.248q.039-.308.039-.624a5 5 0 0 0-5.624-4.961 1 1 0 0 0 .248 1.984m.376 4.229a1.252 1.252 0 1 0 0-2.504 1.252 1.252 0 0 0 0 2.504"/></svg>