<svg xmlns="http://www.w3.org/2000/svg" viewBox="0 0 44 44"><path fill-rule="evenodd" d="M32.866 6.907c2.397 2.383 2.55 4.245 2.855 7.968.167 2.037.279 4.413.279 7.125 0 13.739-2.5 18-6 18-1.817 0-3.096-1.079-4.324-2.116C24.538 36.924 23.441 36 22 36s-2.538.924-3.675 1.884C17.095 38.921 15.817 40 14 40c-3.5 0-6-4-6-18 0-2.712.112-5.088.279-7.124.306-3.724.458-5.586 2.855-7.969s4.147-2.516 7.65-2.783A42 42 0 0 1 22 4c1.122 0 2.198.046 3.215.124 3.503.267 5.255.4 7.651 2.783M23.5 17H28a1.5 1.5 0 0 1 0 3H16a1.5 1.5 0 0 1 0-3z"/></svg>