<svg xmlns="http://www.w3.org/2000/svg" viewBox="0 0 16 16"><path fill-rule="evenodd" d="M7.03 7.392C7.316 7.164 7.622 7 8 7s.685.164.97.392c.27.217.567.533.924.913l2.328 2.47c.055.06.124.132.172.202.054.077.153.25.08.464a.54.54 0 0 1-.35.327 2 2 0 0 1-.262.063l-.563.11-.016.268-.005.073c-.059.863-.1 1.474-.7 2.047-.598.573-1.2.607-2.05.654l-.064.004a8 8 0 0 1-.929 0l-.063-.004c-.85-.047-1.452-.08-2.05-.654-.6-.573-.641-1.184-.7-2.047l-.005-.073-.016-.269-.563-.109a2 2 0 0 1-.263-.063.54.54 0 0 1-.35-.327.51.51 0 0 1 .08-.464c.049-.07.118-.143.173-.201l2.328-2.471c.357-.38.655-.696.925-.913m0 1.94c.288-.32.481-.533.646-.672.158-.132.248-.16.324-.16s.166.028.324.16c.165.139.358.353.646.672l1.53 1.698-.353.026a.316.316 0 0 0-.295.316q0 .27-.018.534c-.05.75-.078.986-.344 1.253-.267.267-.483.291-1.178.332a5 5 0 0 1-.624 0c-.695-.041-.91-.065-1.178-.332s-.294-.502-.344-1.253a8 8 0 0 1-.019-.534.317.317 0 0 0-.294-.316L5.5 11.03z"/><path d="M11.781 4.195a.726.726 0 0 0-.02-1.055q-.29-.26-.583-.502C9.86 1.547 9.202 1.001 8.002 1s-1.86.544-3.179 1.634q-.293.242-.584.501a.726.726 0 0 0-.02 1.056.78.78 0 0 0 1.065.022 20 20 0 0 1 .495-.423C7.175 2.637 7.426 2.5 8.001 2.5s.826.138 2.22 1.293q.25.207.494.424a.78.78 0 0 0 1.066-.022"/><path d="M7.998 3.749c.69 0 1.06.315 1.76.945a.75.75 0 0 1-.507 1.303c-.38 0-.62-.31-.889-.534-.325-.27-.402-.272-.727-.002-.269.224-.504.535-.885.535a.75.75 0 0 1-.505-1.304c.697-.627 1.062-.943 1.753-.943"/></svg>