<svg xmlns="http://www.w3.org/2000/svg" viewBox="0 0 16 16"><path d="M8 7c-.379 0-.685.164-.97.392-.27.217-.567.533-.924.913l-2.328 2.47a2 2 0 0 0-.172.202.51.51 0 0 0-.08.464.54.54 0 0 0 .35.327c.08.029.182.048.262.063l.563.11.016.268.005.073c.059.863.1 1.474.7 2.047.598.573 1.2.607 2.05.654l.063.004a8 8 0 0 0 .93 0l.063-.004c.85-.047 1.452-.08 2.05-.654.6-.573.641-1.184.7-2.047l.005-.073.016-.269.563-.109c.08-.015.181-.034.263-.063a.54.54 0 0 0 .35-.327.51.51 0 0 0-.08-.464 2 2 0 0 0-.173-.201L9.894 8.305c-.357-.38-.655-.696-.925-.913C8.685 7.164 8.38 7 8 7m3.781-2.805a.726.726 0 0 0-.02-1.055q-.29-.26-.583-.502C9.86 1.547 9.202 1.001 8.002 1s-1.86.544-3.179 1.634q-.293.242-.584.501a.726.726 0 0 0-.02 1.056.78.78 0 0 0 1.065.022q.245-.216.495-.423C7.175 2.637 7.426 2.5 8.001 2.5s.826.138 2.22 1.293q.25.207.494.424a.78.78 0 0 0 1.066-.022"/><path d="M7.998 3.749c.69 0 1.06.315 1.76.945a.75.75 0 0 1-.507 1.303c-.38 0-.62-.31-.889-.534-.325-.27-.402-.272-.727-.002-.269.224-.504.535-.885.535a.75.75 0 0 1-.505-1.304c.697-.627 1.062-.943 1.753-.943"/></svg>