<svg xmlns="http://www.w3.org/2000/svg" viewBox="0 0 24 24"><path fill-rule="evenodd" d="M3 4a1 1 0 0 0-1 1c0 .929.292 2.257.832 3.507.538 1.242 1.394 2.576 2.644 3.345A1 1 0 0 0 6 12h5c.943 0 1.414 0 1.707.293S13 13.057 13 14v5h-2.561q.123-.283.206-.565C11 17.257 11 15.836 11 15a1 1 0 0 0-1-1H5a1 1 0 0 0-1 1H3a1 1 0 1 0 0 2h1.08c.05.479.135.972.275 1.435q.084.282.206.565H4a1 1 0 1 0 0 2h12.248c2.238 0 3.357 0 4.053-.695.695-.696.695-1.815.695-4.053 0-.597.007-1.193-.007-1.79-.085-3.58-.127-5.369-1.996-7.328a10 10 0 0 0-.354-.347C17.193 5.472 15.898 5.102 14 5a1 1 0 0 0-1-1zm13.248 15c1.176 0 1.856-.004 2.338-.069.142-.02.232-.04.286-.055a2 2 0 0 0 .055-.286c.065-.482.07-1.163.07-2.338 0-.581.006-1.162-.008-1.743-.044-1.858-.078-2.977-.28-3.883-.175-.78-.476-1.391-1.163-2.112-.05-.052-.2-.2-.253-.248-.75-.681-1.357-.963-2.095-1.114a9.4 9.4 0 0 0-1.502-.16 11 11 0 0 1-.528 1.515 9.5 9.5 0 0 1-.837 1.543c.494.067 1.21.249 1.79.829s.758 1.263.824 1.757c.055.41.055.886.055 1.285V19zm-7.992-.264C8.1 18.884 7.882 19 7.5 19s-.6-.116-.756-.264c-.181-.172-.346-.456-.474-.88-.17-.562-.233-1.22-.256-1.856h2.972c-.023.636-.086 1.294-.256 1.857-.128.423-.293.707-.474.88M4.668 7.713A9 9 0 0 1 4.122 6h7.756a9 9 0 0 1-.546 1.713c-.417.964-.982 1.795-1.638 2.287H6.306c-.656-.492-1.22-1.323-1.638-2.287"/></svg>