<svg xmlns="http://www.w3.org/2000/svg" viewBox="0 0 24 24"><path d="M9.907 3.062Q10.447 3.022 11 3v4H7.445l.257-2.2c.087-.747.13-1.12.39-1.37.258-.249.62-.277 1.345-.332zM6.064 18.813 6.977 11H11v10a30 30 0 0 1-1.093-.062c-1.077-.081-1.933-.145-2.659-.284-.56-.108-.841-.162-1.074-.48-.232-.317-.191-.665-.11-1.36M13 21q.552-.021 1.093-.062c1.077-.081 1.933-.145 2.659-.284.56-.108.841-.162 1.074-.48.232-.317.191-.665.11-1.36L17.023 11H13zm0-14h3.555l-.257-2.2c-.087-.747-.13-1.12-.39-1.37-.258-.249-.62-.277-1.345-.332l-.47-.036Q13.553 3.022 13 3z"/><path d="M3 9a1 1 0 0 1 1-1h16a1 1 0 1 1 0 2v1a1 1 0 1 1-2 0v-1H6v1a1 1 0 1 1-2 0v-1a1 1 0 0 1-1-1"/></svg>