<svg xmlns="http://www.w3.org/2000/svg" viewBox="0 0 17 17"><path d="M7.017 2.165q.339-.025.685-.04V4.78H5.293l.162-1.385c.062-.529.092-.793.276-.97.183-.176.44-.196.952-.236zM4.92 7.968l-.625 5.36c-.058.492-.087.739.078.964s.363.263.76.34c.515.098 1.12.143 1.884.2q.339.027.685.041V7.968zm4.376 0v6.905q.346-.015.685-.04c.763-.058 1.37-.103 1.883-.201.397-.077.596-.115.76-.34s.137-.472.08-.965l-.627-5.36zm2.409-3.188-.162-1.384c-.062-.529-.092-.793-.276-.97-.183-.176-.44-.196-.953-.236l-.333-.025q-.338-.025-.685-.04V4.78z"/><path d="M14.076 5.577a.797.797 0 0 1 .27 1.548v.577a.797.797 0 1 1-1.594 0v-.531H4.249v.531a.797.797 0 1 1-1.593 0v-.576a.797.797 0 0 1 .266-1.549z"/></svg>