<svg xmlns="http://www.w3.org/2000/svg" viewBox="0 0 44 44"><path d="M28.274 13a1.5 1.5 0 0 1-1.49-1.328l-.244-2.11-.04-.346a144 144 0 0 0-1.218-.09 49 49 0 0 0-1.782-.098V11.5a1.5 1.5 0 0 1-3 0V9.028q-.897.033-1.783.098l-.94.069-.278.021-.04.346-.243 2.11a1.5 1.5 0 0 1-2.98-.344l.243-2.11c.152-1.322.228-1.984.69-2.427.46-.443 1.1-.491 2.382-.588l.948-.07a48 48 0 0 1 3.5-.133c1.178 0 2.356.05 3.501.134q.49.034.948.07c1.281.096 1.922.144 2.383.587.46.443.537 1.105.69 2.427l.243 2.11A1.5 1.5 0 0 1 28.274 13M14.587 34.467c1.03.177 2.3.274 4.13.407q.886.066 1.783.098V21.5a1.5 1.5 0 0 1 3 0v13.472a49 49 0 0 0 1.782-.098c1.83-.133 3.1-.23 4.13-.407l-1.476-12.795a1.5 1.5 0 0 1 2.98-.344l1.474 12.78c.14 1.219.211 1.829-.198 2.39-.409.56-.897.658-1.873.852-1.31.26-2.856.373-4.819.516A48 48 0 0 1 22 38a48 48 0 0 1-3.501-.134c-1.963-.143-3.51-.255-4.818-.516-.977-.194-1.465-.291-1.874-.852s-.339-1.171-.198-2.39l1.473-12.78a1.5 1.5 0 1 1 2.98.344z"/><path d="M6 16.5A1.5 1.5 0 0 1 7.5 15h29a1.5 1.5 0 0 1 0 3H36v2.5a1.5 1.5 0 0 1-3 0V18H11v2.5a1.5 1.5 0 0 1-3 0V18h-.5A1.5 1.5 0 0 1 6 16.5"/></svg>