<svg xmlns="http://www.w3.org/2000/svg" viewBox="0 0 32 32"><path d="M14.75 4q-.78.029-1.54.086l-.627.048c-.966.074-1.45.11-1.794.442s-.403.828-.52 1.822L9.908 9.5h4.843zM8.085 25.087 9.323 14.5h5.427V28a40 40 0 0 1-1.54-.086c-1.438-.108-2.579-.193-3.547-.379-.747-.143-1.12-.215-1.43-.637s-.256-.886-.148-1.81M17.25 28V14.5h5.428l1.238 10.587c.108.925.162 1.388-.148 1.81s-.683.495-1.43.638c-.968.186-2.11.271-3.547.379q-.76.057-1.54.086m4.48-21.602.363 3.102H17.25V4q.781.029 1.541.086l.627.048c.966.074 1.449.11 1.794.442s.403.828.519 1.822"/><path d="M4 12c0-.69.56-1.25 1.25-1.25h21.5a1.25 1.25 0 1 1 0 2.5h-.25v1.5a1.25 1.25 0 0 1-2.5 0v-1.5H8v1.5a1.25 1.25 0 1 1-2.5 0v-1.5h-.25C4.56 13.25 4 12.69 4 12"/></svg>