<svg xmlns="http://www.w3.org/2000/svg" viewBox="0 0 32 32"><path d="M20.687 9.5a1.25 1.25 0 0 1-1.242-1.104l-.204-1.746-.637-.048q-.672-.05-1.354-.077V8.25a1.25 1.25 0 1 1-2.5 0V6.525q-.682.027-1.354.077l-.637.048-.204 1.745a1.25 1.25 0 1 1-2.483-.29l.197-1.685c.116-.993.175-1.49.52-1.821.345-.332.827-.369 1.793-.443l.628-.047C14.12 4.041 15.06 4 16 4s1.88.041 2.79.11q.324.022.628.046c.966.074 1.449.111 1.794.443.345.331.403.828.52 1.821l.196 1.685A1.25 1.25 0 0 1 20.687 9.5M10.594 25.135c.714.104 1.59.172 2.802.263q.672.05 1.354.077V15.75a1.25 1.25 0 1 1 2.5 0v9.725q.681-.027 1.354-.077c1.212-.09 2.088-.159 2.802-.263l-1.082-9.24a1.25 1.25 0 0 1 2.483-.29l1.108 9.46c.108.925.162 1.388-.148 1.81s-.683.495-1.432.638c-.967.185-2.108.27-3.545.378-.91.068-1.85.109-2.79.109s-1.88-.041-2.79-.11c-1.437-.106-2.578-.192-3.545-.377-.749-.143-1.123-.215-1.433-.637s-.255-.886-.147-1.812l1.108-9.46a1.25 1.25 0 1 1 2.483.291z"/><path d="M4 12c0-.69.56-1.25 1.25-1.25h21.5a1.25 1.25 0 1 1 0 2.5h-.25v1.5a1.25 1.25 0 0 1-2.5 0v-1.5H8v1.5a1.25 1.25 0 1 1-2.5 0v-1.5h-.25C4.56 13.25 4 12.69 4 12"/></svg>