<svg xmlns="http://www.w3.org/2000/svg" viewBox="0 0 17 17"><path d="M10.808 4.78a.797.797 0 0 1-.791-.703l-.035-.296-.12-.01a20 20 0 0 0-.566-.034v.247a.797.797 0 1 1-1.594 0v-.247q-.285.014-.566.035l-.12.009-.035.296a.797.797 0 0 1-1.583-.186l.057-.48c.062-.528.092-.792.276-.968.183-.176.44-.196.952-.235l.334-.025c.484-.036.983-.058 1.482-.058.5 0 .999.022 1.482.058l.333.025c.514.04.77.059.953.235.184.176.214.44.276.967l.057.481a.797.797 0 0 1-.792.89m-4.886 8.341a32 32 0 0 0 1.78.139V8.765a.797.797 0 1 1 1.594 0v4.496q.285-.014.567-.035c.505-.038.894-.068 1.213-.104l-.5-4.265a.797.797 0 1 1 1.583-.185l.544 4.642c.058.492.087.737-.078.962s-.364.263-.76.339c-.515.098-1.12.143-1.884.2a20 20 0 0 1-1.482.058c-.5 0-.998-.022-1.482-.058-.763-.057-1.37-.102-1.883-.2-.398-.076-.596-.115-.761-.34-.165-.224-.136-.47-.078-.961l.543-4.642a.797.797 0 1 1 1.583.185z"/><path d="M2.125 6.374c0-.44.356-.797.797-.797h11.154a.797.797 0 0 1 .27 1.548v.577a.797.797 0 1 1-1.594 0v-.531H4.249v.531a.797.797 0 1 1-1.593 0v-.576a.8.8 0 0 1-.531-.752"/></svg>