<svg xmlns="http://www.w3.org/2000/svg" viewBox="0 0 32 32"><path fill-rule="evenodd" d="M4.942 8.539a1.25 1.25 0 1 0 .619 2.422l9.193-2.351v3.4a67 67 0 0 0-2.989.116c-2.713.167-4.069.251-5.869 2.118s-1.828 2.993-1.885 5.245a20 20 0 0 0 0 1.022c.057 2.252.085 3.379 1.885 5.245s3.156 1.95 5.869 2.118a69 69 0 0 0 4.204.126h.07c1.571 0 2.973-.05 4.203-.126 2.714-.167 4.07-.25 5.87-2.118s1.83-2.994 1.886-5.248a20 20 0 0 0 0-1.016c-.057-2.254-.085-3.381-1.885-5.248s-3.157-1.95-5.871-2.118q-1.356-.086-2.988-.116V7.97l9.81-2.509a1.25 1.25 0 0 0-.62-2.422zm6.977 6.082a66 66 0 0 1 4.085-.12c1.534 0 2.895.047 4.084.12 1.447.09 2.14.146 2.703.318.422.129.858.351 1.522 1.04.72.746.91 1.16 1.002 1.463.08.265.12.56.147 1.058H23.73a1.25 1.25 0 1 0 0 2.5h1.752c-.028.822-.065 1.215-.169 1.559-.09.302-.282.716-1.001 1.462-.664.689-1.1.912-1.522 1.04-.564.172-1.256.229-2.703.318l-.336.02a4.7 4.7 0 0 0 .21-1.152 27 27 0 0 0 0-2.994c-.11-1.974-1.416-3.65-3.391-3.74a13 13 0 0 0-1.134 0c-1.975.09-3.28 1.766-3.39 3.74a27 27 0 0 0 0 2.995c.022.4.093.787.209 1.15l-.337-.019c-1.446-.09-2.139-.146-2.702-.318-.421-.128-.857-.351-1.521-1.04-.72-.746-.911-1.16-1.002-1.462-.103-.344-.14-.736-.168-1.559h1.751a1.25 1.25 0 0 0 0-2.5h-1.73c.027-.5.067-.794.147-1.06.09-.301.282-.715 1.002-1.461.664-.689 1.1-.912 1.521-1.04.564-.172 1.256-.229 2.702-.318m4.054 10.88q-.222-.002-.423-.011a.82.82 0 0 1-.619-.304c-.188-.217-.36-.587-.388-1.078a24 24 0 0 1 0-2.716c.027-.491.2-.861.388-1.078a.82.82 0 0 1 .62-.304 10 10 0 0 1 .907 0c.26.012.452.111.619.304.188.217.361.587.389 1.079a24 24 0 0 1 0 2.714c-.027.492-.2.862-.389 1.08a.82.82 0 0 1-.62.303q-.2.01-.422.01z"/></svg>