<svg xmlns="http://www.w3.org/2000/svg" viewBox="0 0 16 16"><path fill-rule="evenodd" d="M2.019 4.424a.743.743 0 0 1 .55-.902l10.502-2.5a.757.757 0 0 1 .91.554.743.743 0 0 1-.552.902L8.751 3.592v2.416q.742.016 1.367.055c1.357.084 2.036.125 2.936 1.059.758.786.888 1.31.927 2.128H12.25a.75.75 0 0 0 0 1.5h1.73c-.038.818-.168 1.342-.926 2.128-.9.934-1.578.976-2.936 1.06a36 36 0 0 1-4.238-.001c-1.356-.084-2.034-.125-2.934-1.059-.758-.786-.888-1.31-.927-2.128H3.75a.75.75 0 0 0 0-1.5H2.02c.038-.818.168-1.342.926-2.128.9-.934 1.578-.975 2.935-1.06a33 33 0 0 1 1.37-.055V3.95L2.928 4.98a.757.757 0 0 1-.91-.555M8 9.25c-.294 0-.532.03-.714.068-.288.06-.477.305-.511.597a8.2 8.2 0 0 0 0 1.925c.034.292.224.537.511.597.182.038.42.068.714.068s.532-.03.714-.068c.288-.06.477-.305.512-.596a8.2 8.2 0 0 0 0-1.927c-.035-.291-.224-.536-.511-.596A3.5 3.5 0 0 0 8 9.25"/></svg>