<svg xmlns="http://www.w3.org/2000/svg" viewBox="0 0 32 32"><path fill-rule="evenodd" d="M4.04 10.06a1.25 1.25 0 0 1 .902-1.521l21.503-5.5a1.25 1.25 0 0 1 .619 2.422l-9.81 2.51v4.04q1.632.029 2.988.115c2.714.167 4.07.25 5.87 2.118 1.516 1.572 1.776 2.62 1.854 4.256H23.73a1.25 1.25 0 1 0 0 2.5h4.254c-.058 1.936-.208 3.03-1.872 4.756-1.8 1.867-3.157 1.95-5.871 2.118a69 69 0 0 1-4.238.126c-1.586 0-3-.05-4.24-.126-2.712-.167-4.068-.251-5.868-2.118C4.231 24.03 4.082 22.936 4.024 21h4.253a1.25 1.25 0 0 0 0-2.5H4.043c.078-1.637.337-2.684 1.853-4.256 1.8-1.867 3.156-1.95 5.869-2.118a67 67 0 0 1 2.99-.116v-3.4L5.56 10.96a1.25 1.25 0 0 1-1.52-.901m11.964 8.44a9 9 0 0 0-1.777.165c-.597.12-1.003.619-1.083 1.223a16 16 0 0 0-.14 2.112c0 .836.069 1.571.14 2.112.08.604.486 1.102 1.083 1.223a9 9 0 0 0 1.777.165 9 9 0 0 0 1.777-.165c.598-.12 1.004-.619 1.083-1.223.072-.54.14-1.277.14-2.112s-.068-1.571-.14-2.112c-.08-.604-.485-1.102-1.083-1.223a9 9 0 0 0-1.777-.165"/></svg>