<svg xmlns="http://www.w3.org/2000/svg" viewBox="0 0 24 24"><path fill-rule="evenodd" d="M3.032 7.243A1 1 0 0 1 3.76 6.03l7.978-1.995.042-.01 7.98-1.995a1 1 0 1 1 .485 1.94l-7.243 1.81v3.23q1.188.022 2.178.085c2.036.126 3.054.189 4.404 1.589C20.758 11.9 20.927 12.7 20.979 14h-2.977a1 1 0 1 0 0 2h2.977c-.052 1.3-.22 2.099-1.395 3.317-1.35 1.4-2.368 1.463-4.403 1.589-.93.057-1.99.094-3.179.094-1.19 0-2.25-.037-3.18-.094-2.034-.126-3.05-.189-4.4-1.589C3.245 18.1 3.077 17.301 3.025 16h2.976a1 1 0 1 0 0-2H3.026c.052-1.3.22-2.099 1.395-3.317 1.35-1.4 2.367-1.463 4.402-1.589q.99-.061 2.18-.085V6.28L4.244 7.97a1 1 0 0 1-1.213-.728M12.002 14c-.6 0-1.051.08-1.352.158-.29.075-.484.325-.526.622a12.4 12.4 0 0 0-.122 1.72c0 .714.066 1.327.122 1.72.042.297.236.546.526.622a5.4 5.4 0 0 0 1.352.158c.6 0 1.052-.08 1.353-.158.29-.076.484-.325.526-.622.056-.393.121-1.006.121-1.72s-.065-1.326-.121-1.72c-.042-.297-.236-.546-.526-.622A5.4 5.4 0 0 0 12.002 14"/></svg>