<svg xmlns="http://www.w3.org/2000/svg" viewBox="0 0 16 16"><path fill-rule="evenodd" d="M2.57 3.522a.743.743 0 0 0-.551.902c.099.402.506.65.909.554l4.323-1.03v2.06q-.744.016-1.37.055c-1.357.084-2.035.125-2.935 1.059s-.914 1.497-.943 2.623a10 10 0 0 0 0 .51c.029 1.126.043 1.69.943 2.623s1.578.975 2.935 1.06a36 36 0 0 0 4.236-.001c1.358-.083 2.036-.125 2.936-1.06.9-.933.915-1.496.943-2.623a10 10 0 0 0 0-.508c-.028-1.127-.043-1.69-.943-2.624s-1.578-.975-2.936-1.06a33 33 0 0 0-1.367-.054V3.592l4.678-1.114c.403-.096.65-.5.551-.902a.757.757 0 0 0-.909-.554zM5.973 7.56A33 33 0 0 1 8 7.5c.761 0 1.437.024 2.026.06.732.045 1.047.073 1.295.149.162.05.345.134.653.454.342.354.411.528.442.63.032.106.05.227.063.457h-.465a.75.75 0 0 0 0 1.5h.465c-.013.23-.031.351-.063.457-.03.102-.1.275-.442.63-.308.32-.49.405-.653.454-.248.076-.562.104-1.295.149l-.082.005q.031-.16.04-.327a12 12 0 0 0 0-1.239c-.05-1-.725-1.837-1.725-1.876a7 7 0 0 0-.518 0c-1 .039-1.674.877-1.725 1.876a12 12 0 0 0 0 1.24q.01.166.04.326l-.083-.005c-.732-.045-1.046-.073-1.293-.149-.163-.05-.346-.134-.654-.454-.342-.354-.411-.528-.442-.63a2 2 0 0 1-.062-.457h.464a.75.75 0 0 0 0-1.5h-.464c.013-.23.03-.351.062-.457.031-.102.1-.276.442-.63.308-.32.491-.405.654-.454.247-.076.561-.104 1.293-.149M8 12.5q.104 0 .2-.004a.2.2 0 0 0 .086-.019.2.2 0 0 0 .067-.054.63.63 0 0 0 .133-.381 11 11 0 0 0 0-1.086.63.63 0 0 0-.133-.382.2.2 0 0 0-.067-.054.2.2 0 0 0-.086-.019 5 5 0 0 0-.4 0 .2.2 0 0 0-.086.02.2.2 0 0 0-.067.053.63.63 0 0 0-.133.381 11 11 0 0 0 0 1.087c.01.191.077.319.133.381a.2.2 0 0 0 .067.054.2.2 0 0 0 .086.02q.096.003.2.003"/></svg>