<svg xmlns="http://www.w3.org/2000/svg" viewBox="0 0 24 24"><path fill-rule="evenodd" d="M3.76 6.03a1 1 0 0 0 .485 1.94l6.757-1.69v2.73q-1.188.022-2.18.085c-2.034.126-3.05.189-4.4 1.589s-1.372 2.245-1.415 3.934a15 15 0 0 0 0 .766c.043 1.69.064 2.534 1.414 3.934s2.367 1.463 4.402 1.589a52 52 0 0 0 3.172.094h.007c1.19 0 2.249-.037 3.178-.094 2.036-.126 3.053-.189 4.404-1.589s1.37-2.245 1.413-3.936a16 16 0 0 0 0-.762c-.042-1.69-.063-2.536-1.413-3.936s-2.368-1.464-4.404-1.59q-.99-.061-2.178-.085V5.78l7.243-1.81a1 1 0 1 0-.485-1.941l-7.98 1.995-.042.01zM6.002 14h-.974c.02-.444.05-.678.111-.883.061-.202.191-.496.722-1.046.486-.504.795-.658 1.087-.747.406-.124.909-.166 1.998-.233.89-.055 1.908-.091 3.056-.091s2.166.036 3.055.09c1.09.068 1.593.11 2 .234.291.089.6.243 1.087.747.53.55.66.844.721 1.046.062.206.091.44.111.883h-.974a1 1 0 1 0 0 2h.974c-.02.444-.049.677-.11.883-.061.202-.192.496-.722 1.046-.486.504-.796.658-1.088.747-.406.124-.91.166-1.999.234l-.209.012q.098-.354.12-.735a21 21 0 0 0 0-2.375c-.084-1.474-1.053-2.732-2.528-2.802a9 9 0 0 0-.876 0c-1.475.07-2.443 1.328-2.527 2.802a21 21 0 0 0 0 2.376q.021.38.119.734l-.21-.012c-1.09-.068-1.592-.11-1.998-.234-.292-.089-.601-.243-1.087-.747-.53-.55-.661-.844-.722-1.046-.062-.206-.09-.439-.11-.883h.973a1 1 0 1 0 0-2m6 5q.18 0 .343-.008a.47.47 0 0 0 .365-.182c.12-.14.241-.391.261-.737a19 19 0 0 0 0-2.146c-.02-.346-.14-.597-.26-.737a.48.48 0 0 0-.366-.182 7 7 0 0 0-.686 0 .47.47 0 0 0-.365.182c-.12.14-.241.39-.26.736a19 19 0 0 0 0 2.148c.019.345.14.596.26.736.103.12.212.175.365.182q.163.008.343.008"/></svg>