<svg xmlns="http://www.w3.org/2000/svg" viewBox="0 0 44 44"><path fill-rule="evenodd" d="M6.049 13.11a1.5 1.5 0 0 1 1.092-1.82l29.004-7.245a1.5 1.5 0 0 1 .727 2.91L23.5 10.295v5.716c1.397.022 2.681.073 3.853.143 3.711.222 5.567.334 8.05 2.909 2.249 2.334 2.49 3.84 2.568 6.437h-5.47a1.5 1.5 0 1 0 0 3h5.47c-.079 2.596-.319 4.103-2.569 6.437-2.482 2.575-4.337 2.686-8.049 2.909-1.58.094-3.365.154-5.353.154-1.989 0-3.774-.06-5.355-.155-3.71-.222-5.565-.333-8.047-2.908-2.25-2.334-2.49-3.84-2.569-6.437H11.5a1.5 1.5 0 1 0 0-3H6.03c.078-2.597.318-4.103 2.568-6.438 2.482-2.574 4.337-2.685 8.047-2.908a87 87 0 0 1 3.856-.143v-4.966L7.867 14.201a1.5 1.5 0 0 1-1.819-1.091M22 25c-.924 0-1.673.094-2.243.209-.883.178-1.468.927-1.576 1.821-.093.768-.18 1.8-.18 2.97s.087 2.202.18 2.97c.108.893.693 1.643 1.576 1.82.57.116 1.319.21 2.243.21s1.673-.094 2.243-.21c.883-.177 1.468-.927 1.577-1.82.093-.769.18-1.801.18-2.97s-.087-2.201-.18-2.97c-.109-.893-.694-1.643-1.577-1.821a11.4 11.4 0 0 0-2.243-.21"/></svg>