<svg xmlns="http://www.w3.org/2000/svg" viewBox="0 0 24 24"><path fill-rule="evenodd" d="M22.61 11c-.072-.495-.213-1-.381-1.477-.375-1.06-.563-1.59-1.223-2.056C20.346 7 19.635 7 18.213 7h-.428c-1.422 0-2.132 0-2.793.467-.66.467-.848.997-1.223 2.056A8 8 0 0 0 13.388 11h-.138a.75.75 0 0 0-.129 1.489c-.07.325-.121.703-.121 1.114V17a1 1 0 1 0 2 0v-.5h2.999l3 .001V17a1 1 0 1 0 2 0v-3.393c0-.412-.05-.792-.121-1.118A.75.75 0 0 0 22.75 11zm-4.825-2c-.761 0-1.141.004-1.418.04-.178.025-.208.05-.218.058l-.002.002a.4.4 0 0 0-.071.059.4.4 0 0 0-.046.071 3 3 0 0 0-.142.32c-.066.168-.136.367-.233.64-.116.327-.2.63-.254.9a35 35 0 0 1 2.597-.09c1.065 0 1.926.039 2.599.09a6.5 6.5 0 0 0-.254-.9 22 22 0 0 0-.233-.64 3 3 0 0 0-.142-.32.4.4 0 0 0-.045-.07.4.4 0 0 0-.072-.06l-.002-.002c-.01-.009-.04-.033-.218-.057-.277-.037-.657-.041-1.418-.041zm-7.175 2c-.072-.495-.213-1-.381-1.477-.375-1.06-.563-1.59-1.223-2.056C8.346 7 7.635 7 6.214 7h-.43c-1.42 0-2.131 0-2.792.467-.66.467-.847.997-1.222 2.056-.169.477-.31.982-.382 1.477H1.25a.75.75 0 0 0-.129 1.489c-.07.325-.121.703-.121 1.114V17a1 1 0 1 0 2 0v-.5h2.999L9 16.501V17a1 1 0 1 0 2 0v-3.393c0-.412-.052-.792-.122-1.118A.75.75 0 0 0 10.75 11zM5.785 9c-.761 0-1.141.004-1.417.04-.18.025-.208.05-.219.058l-.002.002a.4.4 0 0 0-.071.059.4.4 0 0 0-.046.071c-.032.06-.077.154-.141.32-.067.168-.137.367-.234.64-.115.327-.2.63-.254.9C4.077 11.039 4.94 11 6 11c1.064 0 1.926.039 2.598.09a6.5 6.5 0 0 0-.254-.9 22 22 0 0 0-.233-.64 3 3 0 0 0-.142-.32.4.4 0 0 0-.045-.07.4.4 0 0 0-.072-.06l-.002-.002c-.01-.009-.04-.033-.218-.057C7.354 9.004 6.975 9 6.214 9z"/></svg>