<svg xmlns="http://www.w3.org/2000/svg" viewBox="0 0 16 16"><path fill-rule="evenodd" d="M13.418 8.994a1 1 0 0 0-.048-.303.8.8 0 0 0 .615-.603c.083-.405-.196-.786-.623-.851l-.008-.001-.028-.005-.11-.017-.41-.067-.058-.01.348-1.28c.207-.561.181-1.152.103-1.606-.021-.123-.032-.185-.298-.696s-.328-.573-.453-.699c-.515-.516-1.381-1.222-2.532-1.568a7.1 7.1 0 0 0-2.288-.284c-.37.011-.554.017-1.372.387s-.929.49-1.15.73c-.296.322-.576.705-.727 1.115l-.33.894L4 4.097l-.073-.049-.018-.011-.004-.003A.83.83 0 0 0 2.8 4.21a.706.706 0 0 0 .045.945C2.343 5.405 2 5.91 2 6.491c0 .712.513 1.308 1.203 1.463a.97.97 0 0 0-.165.54c0 .374.212.7.527.872v.083C3.565 12.515 5.092 15 8.161 15c2.907 0 4.43-2.229 4.583-5.069.394-.142.674-.508.674-.937m-2.218.455V8.384l-.12-.023c-1.104-.205-2.483-.489-3.5-.794a12 12 0 0 1-1.429-.54c-.019.536-.476.965-1.037.966q-.001.341.004.728.003.338.004.728c0 1.317.332 2.362.845 3.036.472.62 1.156 1.013 2.194 1.013s1.722-.393 2.194-1.013c.514-.674.845-1.719.845-3.036m-3.204 1.048a.8.8 0 0 0-.444.119.9.9 0 0 0-.267.256c-.115.192-.106.503-.074.75.03.224.237.376.472.376h1.09c.234 0 .442-.152.471-.376.033-.247.042-.558-.074-.75a.9.9 0 0 0-.266-.256.8.8 0 0 0-.445-.12z"/></svg>