<svg xmlns="http://www.w3.org/2000/svg" viewBox="0 0 24 24"><path d="M11 8a1 1 0 0 1 1-1h3a1 1 0 1 1 0 2h-3a1 1 0 0 1-1-1m1 3a1 1 0 1 0 0 2h4a1 1 0 1 0 0-2zm-1 5a1 1 0 0 1 1-1h2a1 1 0 1 1 0 2h-2a1 1 0 0 1-1-1M8 9.25a1.25 1.25 0 1 0 0-2.5 1.25 1.25 0 0 0 0 2.5M9.25 12a1.25 1.25 0 1 1-2.5 0 1.25 1.25 0 0 1 2.5 0M8 17.25a1.25 1.25 0 1 0 0-2.5 1.25 1.25 0 0 0 0 2.5"/><path fill-rule="evenodd" d="M4.686 4.686c-1.313 1.313-1.41 2.62-1.605 5.237C3.031 10.6 3 11.3 3 12s.03 1.399.081 2.077c.195 2.616.292 3.924 1.605 5.237s2.62 1.41 5.237 1.605C10.6 20.969 11.3 21 12 21s1.399-.03 2.077-.081c2.616-.195 3.924-.292 5.237-1.605s1.41-2.62 1.605-5.237C20.969 13.4 21 12.7 21 12s-.03-1.399-.081-2.077c-.195-2.616-.292-3.924-1.605-5.237s-2.62-1.41-5.237-1.605A28 28 0 0 0 12 3c-.7 0-1.399.03-2.077.081-2.616.195-3.924.292-5.237 1.605M12 5c-.642 0-1.292.028-1.929.076-2.75.204-3.265.318-3.97 1.024-.707.706-.82 1.22-1.025 3.971A26 26 0 0 0 5 12c0 .642.028 1.292.076 1.929.204 2.75.318 3.265 1.024 3.97.706.707 1.22.82 3.971 1.025.637.048 1.287.076 1.929.076s1.292-.028 1.929-.076c2.75-.204 3.265-.318 3.97-1.024.707-.706.82-1.22 1.025-3.971.048-.637.076-1.287.076-1.929s-.028-1.292-.076-1.929c-.204-2.75-.318-3.265-1.024-3.97-.706-.707-1.22-.82-3.971-1.025A26 26 0 0 0 12 5"/></svg>