<svg xmlns="http://www.w3.org/2000/svg" viewBox="0 0 16 16"><path d="M7.5 5.25a.75.75 0 0 1 .75-.75h1.5a.75.75 0 1 1 0 1.5h-1.5a.75.75 0 0 1-.75-.75m.75 2a.75.75 0 0 0 0 1.5h2.5a.75.75 0 0 0 0-1.5zm-.75 3.5a.75.75 0 0 1 .75-.75h1a.75.75 0 0 1 0 1.5h-1a.75.75 0 0 1-.75-.75m-2-4.601a.9.9 0 1 0 0-1.8.9.9 0 0 0 0 1.8M6.4 8a.9.9 0 1 1-1.8-.001.9.9 0 0 1 1.8 0m-.9 3.65a.9.9 0 1 0 0-1.8.9.9 0 0 0 0 1.8"/><path fill-rule="evenodd" d="M3.123 3.123c-.874.875-.939 1.746-1.069 3.488-.033.454-.054.921-.054 1.39 0 .467.02.935.054 1.388.13 1.743.195 2.614 1.07 3.488.874.874 1.745.94 3.487 1.07.454.033.921.054 1.39.054.467 0 .935-.021 1.388-.055 1.743-.13 2.614-.195 3.488-1.069s.94-1.745 1.07-3.488C13.98 8.936 14 8.468 14 8s-.021-.935-.055-1.389c-.13-1.742-.195-2.613-1.069-3.488-.874-.874-1.745-.939-3.488-1.069A19 19 0 0 0 8 2c-.468 0-.935.02-1.389.054-1.742.13-2.613.195-3.488 1.07M8 3.5c-.424 0-.855.019-1.277.05-1.843.138-2.12.215-2.539.634s-.496.696-.634 2.539c-.03.422-.05.853-.05 1.277 0 .425.019.855.05 1.278.138 1.843.215 2.12.634 2.538.42.42.696.497 2.539.634.422.032.853.05 1.277.05.425 0 .855-.018 1.278-.05 1.843-.137 2.12-.214 2.538-.634.42-.419.497-.695.634-2.538.032-.423.05-.853.05-1.278 0-.424-.018-.855-.05-1.277-.137-1.843-.214-2.12-.634-2.539-.419-.42-.695-.496-2.538-.634C8.855 3.52 8.425 3.5 8 3.5"/></svg>