<svg xmlns="http://www.w3.org/2000/svg" viewBox="0 0 16 16"><path fill-rule="evenodd" d="M7.429 1c-.457 0-.891.199-1.19.545L4.301 3.79a3 3 0 0 1-.884.699l-.34.176A3.85 3.85 0 0 0 1 8.085v.429c0 1.494 1.004 2.8 2.448 3.185.349.093.662.289.897.562l1.894 2.194A1.571 1.571 0 0 0 9 13.43V2.57A1.57 1.57 0 0 0 7.429 1M12.3 4a.74.74 0 0 0-.529.224.78.78 0 0 0-.006 1.07q.194.211.38.428c1.21 1.405 1.354 1.686 1.354 2.28 0 .592-.142.87-1.35 2.276q-.186.216-.38.43a.78.78 0 0 0 .006 1.068.74.74 0 0 0 .525.224.7.7 0 0 0 .529-.23q.236-.255.457-.515C14.428 9.926 15 9.237 14.998 8c0-1.236-.572-1.929-1.716-3.257q-.222-.259-.458-.514A.7.7 0 0 0 12.3 4m-1.226 2.268c.607.703.921 1.066.921 1.736 0 .666-.31 1.026-.906 1.716l-.045.051a.75.75 0 0 1-1.168-.932c.066-.1.152-.189.237-.278q.092-.093.173-.193c.097-.121.149-.196.178-.245a.23.23 0 0 0-.001-.238 2 2 0 0 0-.179-.247 3 3 0 0 0-.17-.19 2.3 2.3 0 0 1-.238-.283.75.75 0 0 1 1.165-.935z"/></svg>