<svg xmlns="http://www.w3.org/2000/svg" viewBox="0 0 24 24"><path fill-rule="evenodd" d="M11.86 2.5a2.14 2.14 0 0 0-1.435.553L6.94 6.206a4 4 0 0 1-1.118.756l-.842.41A5.3 5.3 0 0 0 2 12.14v.238a5 5 0 0 0 3.787 4.85c.478.119.919.354 1.284.685l3.354 3.034A2.14 2.14 0 0 0 14 19.36V4.64a2.14 2.14 0 0 0-2.14-2.14m5.14 5a.99.99 0 0 1 1-1 1 1 0 0 1 .733.308q.36.392.7.786c1.71 1.986 2.565 3.052 2.567 4.907 0 1.854-.853 2.914-2.56 4.902q-.34.396-.7.788a1 1 0 0 1-.74.309 1 1 0 0 1-.698-.285A1 1 0 0 1 17 17.5a1 1 0 0 1 .272-.668l.028-.03q.319-.348.622-.702C19.719 14.01 20 13.5 20 12.502c-.001-.997-.284-1.515-2.082-3.603q-.304-.354-.623-.7l-.028-.03A1 1 0 0 1 17 7.5m1 4.993c0 .92-.385 1.483-1.143 2.373-.3.35-.644.64-1.033.634-.198-.004-.406-.083-.626-.27-.618-.526-.322-1.125.103-1.623.34-.4.506-.618.61-.795 0 0 .089-.132.089-.312s-.089-.312-.089-.312c-.104-.177-.27-.396-.61-.795-.425-.498-.721-1.097-.103-1.623.22-.187.428-.267.625-.27.39-.007.735.284 1.034.634.758.89 1.143 1.44 1.143 2.36"/></svg>