<svg xmlns="http://www.w3.org/2000/svg" viewBox="0 0 16 16"><path fill-rule="evenodd" d="M11.216 12.864A36 36 0 0 1 8 13c-1.26 0-2.332-.057-3.217-.136-1.3-.117-1.95-.176-2.75-.971-.8-.796-.857-1.388-.97-2.571a14 14 0 0 1 0-2.643c.113-1.184.17-1.775.97-2.571s1.45-.854 2.75-.971C5.668 3.057 6.741 3 8 3s2.332.057 3.216.137c1.3.117 1.951.175 2.751.97.8.797.857 1.389.97 2.573a14 14 0 0 1 0 2.64c-.113 1.185-.17 1.777-.97 2.573-.8.795-1.45.854-2.751.97m2.064-2.566c-.042.128-.113.275-.37.531-.246.244-.4.318-.565.368-.247.075-.564.11-1.263.173-.84.075-1.868.13-3.082.13s-2.242-.055-3.082-.13c-.7-.063-1.016-.098-1.263-.173-.165-.05-.319-.123-.564-.368-.258-.256-.329-.403-.371-.531 1.014.09 2.78.202 5.28.202s4.266-.112 5.28-.202m0-4.596C12.266 5.612 10.5 5.5 8 5.5s-4.266.112-5.28.202c.043-.128.114-.275.37-.53.246-.245.4-.319.565-.369.247-.074.564-.11 1.263-.172.84-.076 1.868-.13 3.082-.13s2.241.054 3.082.13c.699.062 1.016.098 1.263.172.165.05.319.124.564.368.257.256.329.403.371.531"/></svg>