<svg xmlns="http://www.w3.org/2000/svg" viewBox="0 0 24 24"><path fill-rule="evenodd" d="M8.118 6.16A46 46 0 0 1 12.001 6c1.49 0 2.785.066 3.88.16 1.08.094 1.603.15 2.024.279.313.096.613.25 1.06.699.458.459.607.755.697 1.043q.023.076.044.16-.194-.022-.432-.043C17.792 8.158 15.36 8 12 8s-5.792.159-7.274.298q-.236.021-.43.042.02-.082.044-.16c.09-.288.238-.583.696-1.043.448-.449.748-.602 1.06-.698.42-.13.944-.185 2.022-.278M2 12.066c.002.704.035 1.376.087 2.006.162 1.94.243 2.91 1.533 4.204 1.289 1.294 2.301 1.382 4.325 1.558 1.153.1 2.506.168 4.056.168s2.901-.068 4.054-.168c2.025-.176 3.038-.264 4.327-1.558s1.37-2.264 1.532-4.206a25 25 0 0 0 0-4.137c-.162-1.941-.242-2.912-1.532-4.206s-2.302-1.382-4.327-1.558A47 47 0 0 0 12 4c-1.55 0-2.903.068-4.056.168-2.024.176-3.036.264-4.325 1.558C2.33 7.019 2.25 7.99 2.087 9.93A25 25 0 0 0 2 12.065m2.295 3.595q.195.021.43.042C6.208 15.841 8.64 16 12 16s5.792-.159 7.274-.298q.237-.02.432-.043-.02.084-.044.161c-.09.288-.239.584-.697 1.043-.447.45-.747.603-1.06.7-.42.129-.944.184-2.023.277-1.096.096-2.39.16-3.881.16-1.492 0-2.787-.064-3.883-.16-1.078-.093-1.601-.148-2.022-.278-.312-.096-.612-.25-1.06-.698-.458-.46-.606-.755-.696-1.044a3 3 0 0 1-.045-.16"/></svg>