<svg xmlns="http://www.w3.org/2000/svg" viewBox="0 0 16 16"><path fill-rule="evenodd" d="M6.248 4.62a1.5 1.5 0 0 0-.698.7c-.15.308-.15.71-.15 1.511V7.8a.6.6 0 0 0 0 1.184v.64a.6.6 0 0 0 0 1.183v.302a.6.6 0 1 0 1.2 0v-.294h2.9a.6.6 0 0 0 0-1.2H6.6v-.617h2.017q.244 0 .472-.009c1.27-.047 2.311-.886 2.311-2.157 0-1.368-1.13-2.325-2.497-2.356l-.286-.003H7.76c-.802 0-1.203 0-1.512.149m1.976 3.171q.045 0 .087.006h.306q.22 0 .427-.008c.797-.03 1.156-.492 1.156-.958 0-.593-.478-1.137-1.325-1.156l-.258-.003H7.76c-.42 0-.666 0-.848.015a1 1 0 0 0-.152.02.3.3 0 0 0-.125.124c-.003.016-.012.06-.02.153a13 13 0 0 0-.015.847v.96z"/><path fill-rule="evenodd" d="M3.124 3.127c-.876.875-.94 1.747-1.07 3.491C2.02 7.07 2 7.537 2 8.003s.02.933.054 1.385c.13 1.744.194 2.616 1.07 3.491.875.875 1.747.94 3.491 1.07.452.034.918.054 1.385.054s.932-.02 1.385-.054c1.744-.13 2.616-.195 3.49-1.07.876-.875.94-1.747 1.07-3.491.034-.452.055-.919.055-1.385s-.02-.933-.054-1.385c-.13-1.744-.195-2.616-1.07-3.491s-1.747-.94-3.491-1.07A19 19 0 0 0 8 2.003c-.467 0-.933.02-1.385.054-1.744.13-2.616.195-3.491 1.07M8 3.503c-.424 0-.852.019-1.274.05-1.844.137-2.121.214-2.542.635-.42.42-.497.697-.634 2.542-.032.42-.05.85-.05 1.273s.018.852.05 1.274c.137 1.844.214 2.121.634 2.541s.698.498 2.542.635c.422.032.85.05 1.274.05.423 0 .852-.018 1.273-.05 1.845-.137 2.122-.214 2.542-.635.42-.42.498-.697.635-2.541.031-.422.05-.85.05-1.274 0-.423-.019-.852-.05-1.273-.137-1.845-.215-2.122-.635-2.542s-.697-.498-2.542-.635A17 17 0 0 0 8 3.503"/></svg>