<svg xmlns="http://www.w3.org/2000/svg" viewBox="0 0 16 16"><path d="M6.2 6.607V7.8h2.552q.32 0 .614-.013c.97-.042 1.434-.599 1.434-1.18 0-.72-.595-1.37-1.622-1.4Q8.97 5.2 8.752 5.2H7.607c-.39 0-.63 0-.81.011-.17.01-.209.028-.204.026a.6.6 0 0 0-.356.356c.002-.005-.015.033-.025.204-.011.18-.012.42-.012.81"/><path fill-rule="evenodd" d="M3.124 3.125c-.876.875-.94 1.747-1.07 3.491C2.02 7.068 2 7.535 2 8.001s.02.933.054 1.385c.13 1.744.194 2.616 1.07 3.491.875.875 1.747.94 3.491 1.07.452.034.918.054 1.385.054s.932-.02 1.385-.054c1.744-.13 2.616-.195 3.49-1.07.876-.875.94-1.747 1.07-3.491a18 18 0 0 0 .001-2.771c-.13-1.744-.195-2.616-1.07-3.49-.875-.876-1.747-.941-3.491-1.07A19 19 0 0 0 8 2c-.467 0-.933.02-1.385.054-1.744.13-2.616.195-3.491 1.07M8.23 9h.521q.347 0 .666-.014c1.408-.06 2.582-.97 2.582-2.38 0-1.516-1.27-2.554-2.787-2.6A16 16 0 0 0 8.753 4H7.606c-.751 0-1.127 0-1.427.11a1.8 1.8 0 0 0-1.07 1.07C5 5.48 5 5.854 5 6.606v1.205a.6.6 0 0 0 0 1.18v1.016a.6.6 0 0 0 0 1.19v.458a.6.6 0 1 0 1.2 0v-.453h3.202a.6.6 0 0 0 0-1.2H6.2v-1h1.978z"/></svg>