<svg xmlns="http://www.w3.org/2000/svg" viewBox="0 0 44 44"><path fill-rule="evenodd" d="M9.04 9.04c-2.428 2.429-2.592 4.819-2.92 9.6A49 49 0 0 0 6 22c0 1.13.045 2.26.12 3.36.328 4.781.492 7.172 2.92 9.6s4.819 2.592 9.6 2.92c1.1.075 2.23.12 3.36.12s2.26-.045 3.36-.12c4.781-.328 7.172-.492 9.6-2.92s2.592-4.819 2.92-9.6c.075-1.1.12-2.23.12-3.36s-.045-2.26-.12-3.36c-.328-4.781-.492-7.171-2.92-9.6s-4.819-2.592-9.6-2.92A49 49 0 0 0 22 6c-1.13 0-2.26.045-3.36.12-4.781.328-7.171.492-9.6 2.92m9.805 5.46a.73.73 0 0 0-.73.73v5.27H25.5a3 3 0 1 0 0-6zm-.73 9H25.5a6 6 0 0 0 0-12h-6.655a3.73 3.73 0 0 0-3.73 3.73v5.27H14a1.5 1.5 0 0 0 0 3h1.114v2H14a1.5 1.5 0 0 0 0 3h1.114V31a1.5 1.5 0 0 0 3 0v-2.5H24a1.5 1.5 0 0 0 0-3h-5.886z"/></svg>