<svg xmlns="http://www.w3.org/2000/svg" viewBox="0 0 24 24"><g fill-rule="evenodd" clip-rule="evenodd"><path d="M8.968 7.294a2 2 0 0 0-.668.668c-.292.48-.292 1.13-.292 2.433v1.612h-.25a.75.75 0 0 0 0 1.5h.25v.995h-.222a.75.75 0 1 0 0 1.5h.221v.756a.75.75 0 1 0 1.5 0v-.756h4.253a.75.75 0 0 0 0-1.5H9.507v-.992h3.34q.416 0 .8-.016c1.831-.075 3.35-1.267 3.35-3.099 0-1.972-1.644-3.33-3.615-3.385a19 19 0 0 0-.534-.008H11.4c-1.303 0-1.954 0-2.433.292m2.114 4.713.072.003h1.694q.383 0 .738-.015c1.267-.052 1.91-.793 1.91-1.6 0-.984-.81-1.849-2.156-1.886q-.24-.006-.492-.007H11.4c-.68 0-1.085.002-1.384.03-.18.017-.254.04-.274.047a.5.5 0 0 0-.158.158c-.008.02-.03.095-.047.274-.028.299-.03.704-.03 1.384v1.612zM9.587 8.73v.002l-.002.003z"/><path d="M4.685 4.69c-1.312 1.313-1.41 2.62-1.604 5.236A28 28 0 0 0 3 12.004c0 .7.03 1.399.08 2.077.195 2.616.293 3.924 1.605 5.237s2.621 1.41 5.237 1.605c.678.05 1.378.08 2.077.08s1.4-.03 2.078-.08c2.616-.195 3.924-.292 5.237-1.605 1.312-1.313 1.41-2.621 1.605-5.237.05-.678.08-1.378.08-2.077s-.03-1.4-.08-2.078c-.195-2.615-.293-3.923-1.605-5.236s-2.621-1.41-5.237-1.605a28 28 0 0 0-2.078-.081c-.699 0-1.399.03-2.077.08-2.616.195-3.924.293-5.237 1.606M12 5.004c-.643 0-1.292.028-1.93.075-2.75.205-3.264.319-3.97 1.025s-.82 1.22-1.025 3.97A26 26 0 0 0 5 12.005c0 .642.028 1.291.075 1.928.205 2.75.318 3.265 1.025 3.972s1.22.82 3.97 1.024c.638.047 1.287.076 1.93.076.642 0 1.291-.029 1.928-.076 2.75-.205 3.265-.318 3.971-1.024.706-.707.82-1.221 1.025-3.972A26 26 0 0 0 19 12.004c0-.643-.029-1.292-.076-1.93-.205-2.75-.319-3.264-1.025-3.97s-1.22-.82-3.97-1.025a26 26 0 0 0-1.93-.075"/></g></svg>