<svg xmlns="http://www.w3.org/2000/svg" viewBox="0 0 32 32"><path fill-rule="evenodd" d="M14.75 10.94c-.95-.076-1.475-.163-2-.69-.584-.583-.627-1.164-.714-2.327A13 13 0 0 1 12 7c0-.31.014-.622.036-.923.087-1.163.13-1.744.713-2.328.584-.583 1.165-.626 2.328-.713.301-.022.612-.036.923-.036.31 0 .622.014.923.036 1.163.087 1.744.13 2.328.713.583.584.626 1.165.713 2.328.022.301.036.612.036.923 0 .31-.014.622-.036.923-.087 1.163-.13 1.744-.713 2.328-.526.526-1.05.613-2.001.688V13.5h2.5a1.25 1.25 0 1 1 0 2.5h-2.5v9.481q.671-.026 1.334-.076c3.656-.271 4.408-.421 5.4-1.41.85-.85 1.083-1.522 1.303-3.995h-1.85c-.833 0-1.25-1.008-.661-1.597l3.627-3.627c.59-.59 1.597-.172 1.597.662 0 1.065-.02 2.172-.108 3.355-.26 3.48-.39 5.219-2.14 6.965s-3.494 1.875-6.982 2.134c-.905.067-1.837.108-2.77.108s-1.865-.04-2.77-.108c-3.488-.259-5.232-.388-6.982-2.134s-1.88-3.486-2.14-6.965A45 45 0 0 1 4 15.438c0-.834 1.008-1.251 1.597-.662l3.627 3.627c.59.59.172 1.597-.661 1.597h-1.85c.22 2.473.452 3.146 1.303 3.994.992.99 1.744 1.14 5.4 1.411q.663.05 1.334.076V16h-2.5a1.25 1.25 0 1 1 0-2.5h2.5zm-.164-5.354c.468-.052.943-.086 1.414-.086s.946.034 1.414.086c.052.468.086.943.086 1.414s-.034.946-.086 1.414c-.468.052-.943.086-1.414.086s-.946-.034-1.414-.086A13 13 0 0 1 14.5 7c0-.471.034-.946.086-1.414"/></svg>