<svg xmlns="http://www.w3.org/2000/svg" viewBox="0 0 44 44"><path fill-rule="evenodd" d="M23.5 13.929c1.227-.096 1.894-.197 2.563-.866.73-.729.784-1.456.892-2.909C26.983 9.777 27 9.389 27 9s-.017-.777-.045-1.154c-.108-1.453-.162-2.18-.892-2.91-.729-.729-1.456-.783-2.909-.891A16 16 0 0 0 22 4c-.389 0-.777.017-1.154.045-1.453.108-2.18.162-2.91.892-.729.729-.783 1.456-.891 2.909C17.017 8.223 17 8.611 17 9s.017.777.045 1.154c.108 1.453.162 2.18.892 2.91.669.668 1.335.77 2.563.865V19h-4a1.5 1.5 0 0 0 0 3h4v12.973a50 50 0 0 1-1.652-.086c-4.974-.341-6.17-.535-7.683-2.048C9.86 31.533 9.536 30.464 9.253 27h2.462c1.143 0 1.716-1.382.907-2.19l-4.431-4.432C7.382 19.569 6 20.142 6 21.285c0 1.36.031 2.718.124 4.076.328 4.78.492 7.17 2.92 9.599 2.428 2.428 4.819 2.592 9.6 2.92a49 49 0 0 0 3.352.12 50 50 0 0 0 3.369-.12c4.78-.328 7.17-.492 9.599-2.92 2.428-2.428 2.592-4.819 2.92-9.6.094-1.378.116-2.8.116-4.075 0-1.143-1.382-1.716-2.19-.907l-4.432 4.431c-.808.809-.236 2.191.907 2.191h2.47c-.284 3.464-.607 4.533-1.913 5.839-1.512 1.513-2.708 1.707-7.683 2.048q-.826.057-1.659.086V22h4a1.5 1.5 0 0 0 0-3h-4zm-3.38-3.049C20.041 10.26 20 9.625 20 9s.041-1.26.12-1.88C20.74 7.041 21.375 7 22 7s1.26.041 1.88.12c.079.62.12 1.255.12 1.88s-.041 1.26-.12 1.88c-.62.079-1.255.12-1.88.12s-1.26-.041-1.88-.12"/></svg>