<svg xmlns="http://www.w3.org/2000/svg" viewBox="0 0 16 16"><path fill-rule="evenodd" d="M9.83 5.08c.327-.33.352-.656.4-1.31a7 7 0 0 0 0-1.039c-.048-.654-.073-.981-.4-1.31-.33-.328-.656-.352-1.31-.4a7 7 0 0 0-1.039 0c-.654.048-.981.072-1.31.4-.328.329-.352.656-.4 1.31a7 7 0 0 0 0 1.039c.048.654.072.98.4 1.31.288.286.574.34 1.079.383V6.5h-1.5a.75.75 0 0 0 0 1.5h1.5v4.484q-.265-.012-.527-.032c-1.844-.137-2.12-.214-2.539-.633-.357-.357-.466-.61-.576-1.819H4.65a.35.35 0 0 0 .247-.596l-2.3-2.301A.35.35 0 0 0 2 7.35v.654l.001.004H2c0 .467.02.935.054 1.387.13 1.74.195 2.61 1.07 3.483.874.873 1.745.938 3.487 1.068.453.034.921.054 1.389.054s.936-.02 1.389-.054c1.742-.13 2.614-.195 3.488-1.068s.939-1.743 1.069-3.483c.034-.452.054-.92.054-1.387V7.35a.35.35 0 0 0-.596-.247l-2.301 2.3a.35.35 0 0 0 .247.597h1.042c-.11 1.209-.218 1.462-.576 1.819-.42.419-.695.496-2.539.633q-.261.02-.527.032V8h1.5a.75.75 0 0 0 0-1.5h-1.5V5.463c.505-.042.792-.097 1.08-.384M7.29 3.96c.236.023.473.04.71.04s.475-.017.71-.04a8 8 0 0 0 .04-.71 8 8 0 0 0-.04-.71A8 8 0 0 0 8 2.5c-.237 0-.474.018-.71.04-.022.236-.04.473-.04.71s.018.475.04.71"/></svg>