<svg xmlns="http://www.w3.org/2000/svg" viewBox="0 0 44 44"><path fill-rule="evenodd" d="M17.351 9.213C18.73 6.993 21.07 5.5 23.924 5.5c2.215 0 3.89.8 5.002 1.6.55.396.966.793 1.25 1.099q.13.015.28.036c.565.08 1.344.223 2.207.483 1.688.508 3.9 1.522 5.329 3.577 1.238 1.78 1.768 4.061 1.94 6.33.174 2.291-.006 4.724-.315 6.935-.617 4.423-1.779 8.155-1.879 8.472a1.5 1.5 0 0 1-1.073 1.005 1.5 1.5 0 0 1-1.734-.86c-.078-.18-.1-.334-.106-.37v-.002a1.3 1.3 0 0 1-.017-.254c0-.04.003-.072.003-.08l.004-.047.005-.041.006-.043c.002-.014.009-.054.02-.105.06-.257.563-2.626.005-4.765a3.4 3.4 0 0 0-.269-.612c-.448-.85-1.238-1.239-2.164-1.208-.965.032-2.016.535-2.709 1.46-.653.875-1.077 2.172-1.318 3.605-.235 1.402-.271 2.779-.259 3.683.019 1.375-1.075 2.602-2.541 2.602h-4.334a2.5 2.5 0 0 1-2.5-2.5v-4.151h-2.501V35.5a2.5 2.5 0 0 1-2.5 2.5H9.337a2.5 2.5 0 0 1-2.5-2.498v-6.53s-.015-.133-.312-.63l-.225-.368c-.264-.425-.614-.99-.93-1.617-.894-1.78-1.638-4.258-1.277-8.074.261-2.747 1.308-4.776 2.814-6.21 1.48-1.41 3.304-2.152 4.988-2.536 1.687-.385 3.317-.43 4.506-.384.355.014.675.036.95.06m2.15 2.327q.05-.093.088-.193C20.422 9.6 22.06 8.5 23.924 8.5c1.453 0 2.529.517 3.25 1.036.364.261.634.52.808.708a4 4 0 0 1 .217.257l.42.603.74.03.002.001.028.002q.04.001.13.01a12 12 0 0 1 2.28.444c1.404.422 2.86 1.166 3.73 2.417.802 1.153 1.258 2.821 1.412 4.844.151 2-.003 4.201-.295 6.293l-.051.355c-1.104-1.32-2.7-1.9-4.277-1.848-1.877.062-3.774 1.01-5.01 2.661-1.076 1.437-1.604 3.288-1.875 4.904-.24 1.422-.3 2.79-.303 3.783h-3.373v-4.151a2.5 2.5 0 0 0-2.5-2.5h-3.502a2.5 2.5 0 0 0-2.5 2.5V35H9.837v-6.03c0-.897-.431-1.656-.735-2.166q-.16-.265-.314-.512a16 16 0 0 1-.737-1.282c-.648-1.29-1.278-3.205-.97-6.444.197-2.087.954-3.425 1.895-4.321.968-.922 2.236-1.476 3.586-1.783 1.308-.299 2.616-.348 3.632-.314a9.5 9.5 0 0 0-.188 1.882c0 2.616 1.506 4.828 2.865 6.318a18.7 18.7 0 0 0 3.232 2.792c.255.17.774.412 1.414.223a3 3 0 0 0 .76-.372 6 6 0 0 0 .666-.512c.45-.393.95-.917 1.417-1.549.925-1.248 1.815-3.036 1.815-5.142a1.5 1.5 0 0 0-3 0c0 1.258-.54 2.431-1.226 3.357a7 7 0 0 1-.884.99 16 16 0 0 1-1.978-1.81c-1.194-1.308-2.08-2.812-2.08-4.295 0-.915.177-1.755.494-2.49"/><path d="M34 19a2 2 0 1 1-4 0 2 2 0 0 1 4 0"/></svg>