<svg xmlns="http://www.w3.org/2000/svg" viewBox="0 0 24 24"><path fill-rule="evenodd" d="M2.063 10.386c.151-2.035.227-3.052 1.248-4.073S5.35 5.216 7.385 5.065C7.912 5.025 8.456 5 9 5s1.088.024 1.616.064c2.034.15 3.052.227 4.073 1.248.563.563.838 1.124.998 1.856l.618-.355C18.293 6.674 19.5 5.979 20.385 6c.242.006.46.065.665.183.948.55.95 2.01.95 4.93v1.774c0 2.92 0 4.38-.948 4.93a1.36 1.36 0 0 1-.665.183c-.887.02-2.094-.674-4.082-1.814l-.618-.354c-.159.732-.435 1.295-.998 1.858-1.021 1.021-2.039 1.097-4.073 1.249-.528.039-1.072.063-1.616.063a22 22 0 0 1-1.615-.063c-2.035-.152-3.053-.227-4.074-1.249-1.02-1.02-1.097-2.038-1.248-4.073A22 22 0 0 1 2 12.002c0-.545.024-1.089.063-1.616m5.47-3.327c.486-.036.98-.058 1.467-.058s.98.022 1.467.058c1.082.08 1.64.13 2.062.24.306.079.497.18.746.428.248.248.349.44.429.746.11.422.158.98.239 2.061.036.487.057.98.057 1.468a20 20 0 0 1-.057 1.467c-.08 1.081-.13 1.639-.24 2.061a1.44 1.44 0 0 1-.428.746 1.44 1.44 0 0 1-.746.43c-.423.109-.98.158-2.062.238-.486.036-.98.058-1.467.058s-.98-.022-1.467-.058c-1.082-.08-1.639-.129-2.062-.239a1.44 1.44 0 0 1-.745-.429 1.44 1.44 0 0 1-.43-.746c-.11-.422-.158-.98-.238-2.061-.037-.487-.058-.98-.058-1.467s.021-.981.058-1.468c.08-1.081.129-1.639.239-2.061.08-.307.18-.498.429-.746.248-.248.439-.35.745-.429.423-.11.98-.159 2.062-.239m8.4 6.608 1.367.784c1.26.723 2.043 1.168 2.616 1.405.08-.614.084-1.516.084-2.969v-1.774c0-1.453-.007-2.354-.086-2.97-.573.238-1.353.683-2.614 1.406l-1.367.784.004.053c.04.527.063 1.072.063 1.616s-.024 1.088-.063 1.615z"/></svg>