<svg xmlns="http://www.w3.org/2000/svg" viewBox="0 0 24 24"><path d="m16.693 16.1.818.47c1.998 1.145 2.997 1.718 3.745 1.285s.748-1.585.748-3.888v-3.934c0-2.302 0-3.454-.748-3.887s-1.747.14-3.745 1.285l-.818.47c.131.678.178 1.375.226 2.084l.018.264c.039.565.063 1.154.063 1.751s-.024 1.186-.063 1.751l-.018.264c-.048.71-.095 1.406-.226 2.085M2.058 10.387c.143-2.062.214-3.092 1.249-4.123 1.034-1.03 2.026-1.095 4.01-1.224Q7.904 5.001 8.5 5q.597.001 1.182.04c1.984.129 2.977.193 4.011 1.224s1.106 2.061 1.249 4.123c.036.526.058 1.07.058 1.613s-.022 1.087-.058 1.613c-.143 2.062-.214 3.092-1.249 4.123-1.034 1.03-2.027 1.095-4.01 1.224q-.586.039-1.183.04-.597-.001-1.182-.04c-1.985-.129-2.977-.193-4.011-1.224S2.2 15.675 2.058 13.613A24 24 0 0 1 2 12c0-.543.022-1.087.058-1.613"/></svg>