<svg xmlns="http://www.w3.org/2000/svg" viewBox="0 0 16 16"><path d="m11.333 10.655.68.39c1.052.602 1.682.972 2.149.955a.7.7 0 0 0 .34-.096c.498-.289.498-1.06.498-2.595V6.696c0-1.534 0-2.311-.498-2.6a.7.7 0 0 0-.34-.096c-.467-.017-1.097.358-2.15.961l-.679.389c.058.396.084.797.11 1.202l.013.193c.027.405.044.827.044 1.255s-.017.85-.044 1.255l-.013.193c-.026.407-.052.81-.11 1.207M1.04 6.845c.1-1.479.15-2.219.893-2.958a3 3 0 0 1 .279-.245c.651-.505 1.34-.546 2.564-.62a12 12 0 0 1 1.448 0c1.399.085 2.099.127 2.843.865.744.74.793 1.48.892 2.958l.01.142Q9.998 7.488 10 8c0 .389-.015.778-.04 1.155-.1 1.479-.15 2.219-.893 2.958-.744.739-1.444.78-2.843.864a12 12 0 0 1-1.702-.015c-1.233-.076-1.891-.157-2.589-.85-.744-.738-.793-1.478-.892-2.957a17 17 0 0 1-.001-2.31"/></svg>