<svg xmlns="http://www.w3.org/2000/svg" viewBox="0 0 32 32"><path fill-rule="evenodd" d="M25.739 4h1.011a1.25 1.25 0 1 1 0 2.5h-1.011c-3.624 0-6.291 1.256-8.382 2.56-.527.33-1.016.66-1.481.98l-.252.173c-.37.256-.735.507-1.076.727-.767.496-1.725 1.06-2.722 1.06H8.605a.605.605 0 0 0-.605.605v3.109a2 2 0 0 1-1.5 1.937v1.132c0 .63.024 1.137.058 1.54.04.463.385.882 1.188.971.96.107 2.125.205 3.152.205h1.123a6 6 0 0 1 11.958 0h2.688v.004q.04-.003.083-.003a1.25 1.25 0 1 1-.083 2.497V24H23.66a6.003 6.003 0 0 1-11.32 0h-1.442c-1.162 0-2.43-.11-3.43-.22-1.63-.182-3.231-1.266-3.4-3.242A21 21 0 0 1 4 18.783v-1.57a2 2 0 0 1 1.5-1.936v-2.672A3.105 3.105 0 0 1 8.605 9.5h3.22A.6.6 0 0 0 12 9.47V7.917c0-.783-.634-1.417-1.417-1.417H6.75a1.25 1.25 0 1 1 0-2.5h3.833A3.917 3.917 0 0 1 14.5 7.917v.035c.463-.317.975-.664 1.534-1.012C18.349 5.494 21.479 4 25.739 4M14.5 22.004a3.5 3.5 0 1 1 7 0 3.5 3.5 0 0 1-7 0"/></svg>