<svg xmlns="http://www.w3.org/2000/svg" viewBox="0 0 44 44"><path fill-rule="evenodd" d="M34.986 6H36.5a1.5 1.5 0 0 1 0 3h-1.514c-4.892 0-8.489 1.62-11.29 3.289a53 53 0 0 0-1.982 1.25l-.337.222c-.494.325-.977.642-1.43.922-1.032.637-2.26 1.317-3.512 1.317h-4.462a.973.973 0 0 0-.973.973v4.645a2.5 2.5 0 0 1-2 2.45v1.642c0 .586.02 1.082.053 1.5.058.742.644 1.386 1.839 1.515 1.325.143 2.925.275 4.306.275h1.952a7.503 7.503 0 0 1 14.7 0h4.65a1.5 1.5 0 0 1 0 3h-4.65a7.503 7.503 0 0 1-14.7 0h-1.952c-1.54 0-3.263-.145-4.63-.292-2.15-.233-4.303-1.653-4.506-4.266A22 22 0 0 1 6 25.71v-2.092a2.5 2.5 0 0 1 2-2.45v-4.195A3.973 3.973 0 0 1 11.973 13h4.462c.12 0 .283-.033.51-.118v-1.826A2.057 2.057 0 0 0 14.888 9H9.5a1.5 1.5 0 1 1 0-3h5.389a5.056 5.056 0 0 1 5.055 5.056v.057l.125-.082c.63-.413 1.328-.865 2.09-1.32C25.233 7.881 29.366 6 34.987 6M20 30.5a4.5 4.5 0 1 1 9 0 4.5 4.5 0 0 1-9 0"/></svg>