<svg xmlns="http://www.w3.org/2000/svg" viewBox="0 0 24 24"><path fill-rule="evenodd" d="M19.304 3H20a1 1 0 1 1 0 2h-.696c-2.71 0-4.702.91-6.264 1.856-.394.238-.76.478-1.11.71l-.188.126c-.278.186-.552.37-.808.53C10.357 8.584 9.629 9 8.87 9H6.39a.39.39 0 0 0-.39.391v2.457a1.5 1.5 0 0 1-1 1.414v.825c0 .448.017.81.042 1.098.026.303.251.6.828.665.7.079 1.546.15 2.304.15h.853a4.5 4.5 0 0 1 8.946 0H20a1 1 0 1 1 0 2h-2.256a4.502 4.502 0 0 1-8.488 0H8.174c-.866 0-1.796-.08-2.528-.163-1.236-.14-2.466-.966-2.597-2.48-.03-.353-.049-.772-.049-1.27v-1.24a1.5 1.5 0 0 1 1-1.414V9.391C4 8.071 5.07 7 6.391 7H8.87q.044.001.13-.023V6a1 1 0 0 0-1-1H5a1 1 0 0 1 0-2h3a3 3 0 0 1 2.993 2.789c.31-.205.647-.424 1.01-.644C13.747 4.09 16.102 3 19.305 3M11 16.5a2.5 2.5 0 1 1 5 0 2.5 2.5 0 0 1-5 0"/></svg>