<svg xmlns="http://www.w3.org/2000/svg" viewBox="0 0 24 24"><path d="M13 6c1.816 0 3.35 1.21 3.838 2.869h.001a1 1 0 1 0 1.92-.557 6.003 6.003 0 0 0-11.678.698C4.397 8.943 2 11.087 2 13.82c0 1.772.986 3.32 2.455 4.155.955.637 1.917.721 3.49.858q.735.064 1.58.107v-.005a1 1 0 0 0-.005-2c-.466 0-.938-.055-1.402-.095-1.176-.102-1.733-.171-2.118-.308-.373-.132-.819-.432-1.102-.693A2.74 2.74 0 0 1 4 13.819c0-1.499 1.267-2.81 2.95-2.81.607 0 1.214.029 1.82.044.136-1.178.284-1.715.284-1.715A4 4 0 0 1 13 6"/><path fill-rule="evenodd" d="M18.363 11.854c2.423 1.4 3.635 2.099 3.635 3.146s-1.212 1.747-3.635 3.146l-1.22.704c-2.285 1.32-3.428 1.98-4.285 1.487C12 19.846 12 18.531 12 15.901v-1.802c0-2.63 0-3.944.858-4.436.857-.492 2 .168 4.285 1.487zm-1 4.56-1.22.704c-.97.56-1.616.93-2.097 1.157C14.004 17.749 14 17.01 14 15.9v-1.802c0-1.11.004-1.848.046-2.373.48.227 1.127.596 2.097 1.156l1.22.704c1.128.652 1.847 1.071 2.317 1.414-.47.343-1.189.762-2.317 1.414"/></svg>