<svg xmlns="http://www.w3.org/2000/svg" viewBox="0 0 16 16"><path fill-rule="evenodd" d="M7.067 5.67a.366.366 0 0 1-.541.077L3.272 3.001l-.482.516-.002.002-.002.002-.008.008-.021.024-.07.082a5.6 5.6 0 0 0-.803 1.31c-.373.856-.632 2.095-.006 3.403.574 1.2 1.555 1.598 2.86 1.963.666.187 1.762.19 1.762.19l-.255.925a1.243 1.243 0 0 0 1.194 1.576H8.56c.82 0 1.413-.784 1.194-1.576L9.5 10.5s1.095-.003 1.762-.19c1.305-.365 2.286-.763 2.86-1.963.626-1.308.367-2.547-.006-3.404a5.6 5.6 0 0 0-.873-1.39l-.021-.025-.008-.008-.002-.002-.001-.002h-.001L12.728 3 9.474 5.747a.366.366 0 0 1-.58-.41L9.02 5c.1-.273.36-.454.649-.454.41 0 .743-.335.743-.747a.745.745 0 0 0-.743-.746c-.656 0-1.262.295-1.668.78a2.17 2.17 0 0 0-1.668-.78.745.745 0 0 0-.743.746c0 .412.332.747.743.747.29 0 .549.18.65.454l.124.339a.37.37 0 0 1-.039.331"/></svg>