<svg xmlns="http://www.w3.org/2000/svg" viewBox="0 0 16 16"><path fill-rule="evenodd" d="M7.067 5.67a.366.366 0 0 1-.541.077L3.272 3.001l-.482.516-.002.002-.002.002-.008.008-.021.024-.07.082a5.6 5.6 0 0 0-.803 1.31c-.373.856-.632 2.095-.006 3.403.574 1.2 1.909 1.721 2.86 1.963.351.09.686.15.974.19l-.256.925a1.243 1.243 0 0 0 1.194 1.576h2.7c.819 0 1.412-.784 1.194-1.576l-.255-.925c.287-.04.622-.1.973-.19.951-.242 2.286-.763 2.86-1.963.626-1.308.367-2.547-.006-3.404a5.6 5.6 0 0 0-.873-1.39l-.021-.025-.008-.008-.002-.002-.001-.002h-.001L12.728 3 9.474 5.747a.366.366 0 0 1-.58-.41L9.02 5c.1-.273.36-.454.649-.454.41 0 .743-.335.743-.747a.745.745 0 0 0-.743-.746c-.656 0-1.262.295-1.668.78a2.17 2.17 0 0 0-1.668-.78.745.745 0 0 0-.743.746c0 .412.332.747.743.747.29 0 .549.18.65.454l.124.339a.37.37 0 0 1-.039.331m-3.602-.556L5.57 6.89c.723.61 1.761.564 2.43-.04.669.604 1.707.65 2.43.04l2.106-1.776c.074.127.15.27.218.427.27.62.402 1.38.028 2.161-.262.55-.986.934-1.885 1.162a8 8 0 0 1-1.553.228H9.32l-.957.02.661 2.397H6.976l.661-2.397-.957-.02h-.024l-.091-.004a8 8 0 0 1-1.462-.223c-.899-.229-1.622-.614-1.885-1.163-.374-.781-.241-1.54.028-2.16.068-.158.144-.301.219-.428"/></svg>