<svg xmlns="http://www.w3.org/2000/svg" viewBox="0 0 16 16"><path d="M7.944 4.827c-.348 0-.863.07-1.32.305-.485.25-.982.739-.982 1.54 0 .318.068.62.22.892.153.27.365.465.587.608.412.264.937.392 1.352.49.11.027.222.05.324.073l.02.004q.164.035.305.069c.195.047.331.092.429.14.092.045.119.079.127.091.005.008.034.05.034.182 0 .09-.023.136-.046.17a.5.5 0 0 1-.183.147 1.7 1.7 0 0 1-.752.167c-.405 0-.945-.137-1.174-.6a.75.75 0 0 0-1.344.665c.624 1.262 1.956 1.435 2.518 1.435.4 0 .964-.08 1.457-.344.522-.278 1.024-.805 1.024-1.64 0-.374-.089-.72-.288-1.016a1.8 1.8 0 0 0-.71-.603 3.6 3.6 0 0 0-.737-.252 14 14 0 0 0-.343-.077l-.016-.003-.299-.067c-.46-.11-.727-.19-.887-.293a.25.25 0 0 1-.09-.083c-.008-.013-.028-.053-.028-.156 0-.06.014-.082.025-.097a.4.4 0 0 1 .143-.108c.184-.095.445-.14.634-.14.172 0 .401.03.611.107q.311.117.446.324a.75.75 0 1 0 1.255-.821c-.618-.945-1.756-1.11-2.312-1.11"/><path fill-rule="evenodd" d="M5.59 1.75c-2.108 0-3.809 1.717-3.809 3.826 0 .591.134 1.153.374 1.655a6 6 0 0 0-.05.769c0 3.267 2.636 5.924 5.895 5.924q.388 0 .763-.05a3.8 3.8 0 0 0 1.647.376c2.107 0 3.809-1.717 3.809-3.826 0-.592-.135-1.154-.374-1.655q.049-.378.05-.77c0-3.266-2.636-5.923-5.895-5.923q-.388 0-.763.05A3.8 3.8 0 0 0 5.59 1.75M3.28 5.576A2.32 2.32 0 0 1 5.59 3.25c.417 0 .806.11 1.142.304l.236.136.269-.047A4.4 4.4 0 0 1 8 3.576c2.423 0 4.394 1.977 4.394 4.424q0 .395-.066.77l-.046.265.133.234c.193.34.304.733.304 1.155a2.32 2.32 0 0 1-2.31 2.326c-.416 0-.805-.11-1.141-.304l-.236-.136-.269.047a4.4 4.4 0 0 1-.763.067c-2.423 0-4.394-1.977-4.394-4.424q0-.396.066-.769l.047-.266-.134-.235a2.3 2.3 0 0 1-.304-1.154"/></svg>