<svg xmlns="http://www.w3.org/2000/svg" viewBox="0 0 24 24"><path d="M11.908 7.001c-.546 0-1.352.11-2.06.475-.744.383-1.485 1.12-1.485 2.32 0 .508.097.98.327 1.398.232.422.56.72.913.934.576.348 1.32.522 1.93.664.419.097.841.183 1.26.284.508.124 1.142.266 1.142.902 0 .318-.144.533-.498.721-.392.21-.927.303-1.34.303-.689 0-1.695-.232-2.131-1.113a1 1 0 1 0-1.793.886c.963 1.947 3.027 2.226 3.924 2.226.631 0 1.515-.129 2.28-.537.805-.428 1.558-1.225 1.558-2.486 0-.577-.136-1.098-.432-1.54-.292-.436-.687-.718-1.076-.91a5.7 5.7 0 0 0-1.162-.395c-.385-.094-.775-.17-1.161-.262-.745-.176-1.174-.278-1.464-.454-.232-.14-.282-.305-.282-.567 0-.222.096-.437.405-.595.343-.177.81-.254 1.145-.254.694 0 1.55.234 1.926.81a1 1 0 0 0 1.674-1.095c-.948-1.45-2.71-1.715-3.6-1.715"/><path fill-rule="evenodd" d="M8.474 3a5.475 5.475 0 0 0-4.925 7.867q-.075.558-.074 1.133a8.526 8.526 0 0 0 9.658 8.45 5.475 5.475 0 0 0 7.317-7.318q.075-.555.075-1.132a8.526 8.526 0 0 0-9.658-8.45A5.45 5.45 0 0 0 8.474 3M5 8.475A3.475 3.475 0 0 1 8.474 5c.752 0 1.398.27 2.035.635.495-.087.987-.16 1.49-.16A6.526 6.526 0 0 1 18.526 12c0 .504-.074.995-.16 1.49.364.638.635 1.283.635 2.035A3.475 3.475 0 0 1 15.525 19c-.752 0-1.397-.27-2.034-.635-.495.087-.987.16-1.491.16A6.526 6.526 0 0 1 5.475 12c0-.504.074-.995.16-1.49C5.27 9.872 5 9.227 5 8.475"/></svg>