<svg xmlns="http://www.w3.org/2000/svg" viewBox="0 0 16 16"><path fill-rule="evenodd" d="M5.59 1.75c-2.108 0-3.809 1.717-3.809 3.826 0 .591.134 1.153.374 1.655a6 6 0 0 0-.05.769c0 3.267 2.636 5.924 5.895 5.924q.388 0 .763-.05a3.8 3.8 0 0 0 1.647.376c2.107 0 3.809-1.717 3.809-3.826 0-.592-.135-1.154-.374-1.655q.049-.378.05-.77c0-3.266-2.636-5.923-5.895-5.923q-.388 0-.763.05A3.8 3.8 0 0 0 5.59 1.75m.901 3.083c.498-.256 1.063-.333 1.445-.333.619 0 1.858.184 2.527 1.207a.746.746 0 1 1-1.249.816c-.116-.178-.305-.312-.553-.405a2.2 2.2 0 0 0-.725-.126c-.224 0-.536.051-.762.168a.55.55 0 0 0-.197.152.27.27 0 0 0-.047.17c0 .166.03.241.047.272a.3.3 0 0 0 .116.106c.191.116.479.185 1.003.309l.047.011q.172.04.347.078.197.042.394.089c.255.062.543.144.812.276.274.135.555.335.763.646.211.316.307.686.307 1.092 0 .895-.536 1.461-1.102 1.763-.538.286-1.157.376-1.598.376-.624 0-2.075-.193-2.753-1.564a.746.746 0 0 1 1.337-.662c.285.577.948.734 1.416.734.278 0 .637-.063.896-.2.23-.124.312-.255.312-.447 0-.166-.036-.234-.055-.262a.44.44 0 0 0-.183-.137 2.5 2.5 0 0 0-.505-.166 14 14 0 0 0-.347-.078l-.022-.005c-.115-.025-.24-.052-.364-.081L7.664 8.6c-.418-.097-.94-.218-1.345-.464a1.8 1.8 0 0 1-.65-.664 2 2 0 0 1-.231-.99c0-.855.528-1.379 1.053-1.649"/></svg>