<svg xmlns="http://www.w3.org/2000/svg" viewBox="0 0 24 24"><path d="M12.002 4a.97.97 0 0 1 .98-1c.553 0 1 .448 1.022 1 .062 1.499.25 2.961.444 4.136l4.845-4.845a1 1 0 1 1 1.414 1.415l-4.83 4.83A35 35 0 0 0 20 9.978c.552.023 1 .47 1 1.021a.97.97 0 0 1-1 .98 37 37 0 0 1-4.668-.505c-1.097-.186-1.645-.28-2.095-.73s-.544-.999-.73-2.095A37 37 0 0 1 12.001 4M12 20a.97.97 0 0 1-.98 1c-.553 0-1-.448-1.022-1a35 35 0 0 0-.443-4.142l-4.848 4.848a1 1 0 1 1-1.414-1.415l4.848-4.847A35 35 0 0 0 4 14c-.552-.023-1-.469-1-1.021a.97.97 0 0 1 1-.98 37 37 0 0 1 4.669.505c1.096.187 1.644.28 2.095.73.45.451.543 1 .73 2.096.217 1.27.44 2.95.506 4.67"/></svg>