<svg xmlns="http://www.w3.org/2000/svg" viewBox="0 0 16 16"><path d="M8 2.75A.726.726 0 0 1 8.736 2a.78.78 0 0 1 .768.75c.04.869.144 1.716.256 2.43l2.96-2.96a.75.75 0 0 1 1.061 1.062l-2.95 2.95c.709.111 1.56.213 2.42.253a.78.78 0 0 1 .75.768.726.726 0 0 1-.75.734 25 25 0 0 1-3.03-.334c-.732-.124-1.098-.187-1.398-.487S8.46 6.5 8.336 5.769c-.141-.827-.286-1.9-.334-3.019M8 13.25a.726.726 0 0 1-.734.75.78.78 0 0 1-.769-.75 23 23 0 0 0-.254-2.431L3.28 13.78a.75.75 0 1 1-1.06-1.06l2.96-2.962a23 23 0 0 0-2.43-.255.78.78 0 0 1-.75-.768c0-.415.336-.752.75-.734 1.118.048 2.204.193 3.03.334.732.124 1.098.187 1.398.487s.363.666.488 1.398A25 25 0 0 1 8 13.25"/></svg>