<svg xmlns="http://www.w3.org/2000/svg" viewBox="0 0 17 17"><path d="M9.438 3.77a1.594 1.594 0 1 0 0-3.187 1.594 1.594 0 0 0 0 3.188M6.905 8.229V7.098l-.161.127-.643 1.716a.956.956 0 0 1-1.79-.671l.736-1.965a.96.96 0 0 1 .302-.414l1.813-1.435a.96.96 0 0 1 .594-.207h.743c.976.003 1.593.946 1.593 1.923V9.91l1.25 1.476a.96.96 0 0 1 .205.415l.649 2.975a.956.956 0 0 1-1.869.407L9.73 12.44 7.41 9.701l-.035-.044c-.3-.363-.469-.916-.469-1.428m3.718-.375V5.45l1.748 1.332a.956.956 0 1 1-1.16 1.521z"/><path d="m4.917 14.487 2.427-4.042 1.305 1.542-2.093 3.485a.956.956 0 1 1-1.639-.985"/></svg>