<svg xmlns="http://www.w3.org/2000/svg" viewBox="0 0 44 44"><path d="M23.748 9.497a3.248 3.248 0 1 0 0-6.497 3.248 3.248 0 0 0 0 6.497M18.5 21.75v-5.066l-1.383 1.006-2.369 4.279a2 2 0 0 1-3.5-1.938l2.585-4.667a2 2 0 0 1 .573-.648l4.584-3.333A2 2 0 0 1 20.166 11h1.832c.436 0 .838.139 1.166.375 1.169.676 1.835 2.17 1.836 3.67l.001 3.01v6.266l3.996 4.521a2 2 0 0 1 .465.949l1.5 7.833a2 2 0 0 1-3.928.752l-1.397-7.295-6.305-7.135q-.12-.136-.211-.285a3.23 3.23 0 0 1-.62-1.91m8.497-2.607 2.68 2.358a2 2 0 1 0 2.642-3.003l-5.322-4.683z"/><path d="m13.24 37.046 5.705-10.515 2.82 3.19-5.009 9.233a2 2 0 0 1-3.516-1.908"/></svg>