<svg xmlns="http://www.w3.org/2000/svg" viewBox="0 0 24 24"><path d="M12 6h-.999zm1-1a2 2 0 1 0 0-4 2 2 0 0 0 0 4m-.95 11.154-1.919-1.73-2.99 5.75a1.25 1.25 0 0 0 2.218 1.153zM15 7.632v3.276l.943.798a1.25 1.25 0 1 0 1.615-1.908z"/><path d="M10.284 6.226c.21-.147.46-.226.717-.226h1c1.239 0 2 1.215 2 2.454v4.778l1.883 1.884c.187.187.31.428.351.69l.75 4.75a1.25 1.25 0 1 1-2.47.39l-.686-4.35-3.136-3.21c-.456-.456-.693-1.14-.693-1.774V9.476l-.502.352-1.104 2.438a1.25 1.25 0 1 1-2.277-1.032l1.245-2.75a1.25 1.25 0 0 1 .422-.508z"/></svg>