<svg xmlns="http://www.w3.org/2000/svg" viewBox="0 0 24 24"><path fill-rule="evenodd" d="M15.992 4.498c0 .69-.2 1.335-.546 1.877l2.316 1.686a3.01 3.01 0 0 1-.8 5.282c.223.354.37.754.429 1.173l.571 4.055a2.998 2.998 0 0 1-5.904 1.025l-.37.74a3.008 3.008 0 1 1-5.382-2.692l1.576-3.153a3 3 0 0 1-2.536-4.396l1.17-2.218c.243-.46.6-.848 1.039-1.128l1.652-1.056a3.498 3.498 0 1 1 6.785-1.195m-1.999 0a1.499 1.499 0 1 1-2.998 0 1.499 1.499 0 0 1 2.999 0m-2.99 8.431a1.5 1.5 0 0 1-.506-1.124V9.613l-.568.363-1.047 1.984a1 1 0 1 1-1.768-.932l1.17-2.219a1 1 0 0 1 .346-.376l2.004-1.28a1 1 0 0 1 .538-.156h.722l.103-.004q.09 0 .18.006c.818.059 1.318.852 1.318 1.672v3.924l1.634 1.633a1 1 0 0 1 .283.568l.571 4.054a1 1 0 1 1-1.979.28l-.524-3.724zm-.544.903 1.496 1.475-2.064 4.13a1 1 0 1 1-1.787-.894zm4.034-3.193V8.167l2.088 1.52a1 1 0 0 1-1.176 1.616z"/></svg>