<svg xmlns="http://www.w3.org/2000/svg" viewBox="0 0 17 17"><path fill-rule="evenodd" d="M11.686 3.315a2.77 2.77 0 0 1-.456 1.526l1.625 1.219a2.39 2.39 0 0 1-.57 4.141q.041.097.075.198l.798 2.39a2.39 2.39 0 0 1-4.393 1.852l-.02.037a2.39 2.39 0 0 1-4.21-2.266l.69-1.278a2.39 2.39 0 0 1-1.772-3.457l.81-1.577a2.4 2.4 0 0 1 .74-.855l1.304-.928a2.782 2.782 0 1 1 5.379-1.002M8.904 4.503a1.189 1.189 0 1 0 0-2.377 1.189 1.189 0 0 0 0 2.377M7.437 7.425v1.991c-.01.228.077.46.259.625l1.706 1.562.732 2.195a.797.797 0 0 0 1.512-.505l-.797-2.39a.8.8 0 0 0-.218-.336L9.56 9.59V6.63c0-.658-.403-1.315-1.061-1.315q-.033 0-.064.002h-.53a.8.8 0 0 0-.462.148l-1.518 1.08a.8.8 0 0 0-.247.285l-.81 1.576a.797.797 0 0 0 1.418.728l.721-1.403zm2.656.547.85.637a.797.797 0 1 0 .956-1.275L10.093 5.98zm-2.705 2.504L5.94 13.167a.797.797 0 1 0 1.403.756L8.6 11.587z"/></svg>