<svg xmlns="http://www.w3.org/2000/svg" viewBox="0 0 32 32"><path fill-rule="evenodd" d="M21.498 6a4.48 4.48 0 0 1-.86 2.646l2.836 2.089a3.75 3.75 0 0 1-1.288 6.65 3.75 3.75 0 0 1 1.024 2.084l.751 5.246a3.75 3.75 0 1 1-7.424 1.063l-.073-.512-.882 1.706a3.75 3.75 0 1 1-6.663-3.444l2.358-4.561a3.75 3.75 0 0 1-3.905-5.344l1.506-3.116a3.75 3.75 0 0 1 1.205-1.426l2.589-1.84A4.5 4.5 0 1 1 21.499 6m-2.5 0a2 2 0 1 1-4 0 2 2 0 0 1 4 0m-4.815 3.235a1.25 1.25 0 0 1 .724-.231h1.23c.258 0 .498.078.697.212.737.406 1.165 1.336 1.165 2.266V16.7l2.389 2.422c.188.19.31.436.348.7l.75 5.247a1.25 1.25 0 0 1-2.474.354l-.693-4.838-3.45-3.497c-.555-.468-.87-1.266-.87-2.064v-2.592l-.759.539-1.366 2.827a1.25 1.25 0 1 1-2.25-1.088l1.505-3.116c.091-.19.23-.353.402-.475zm-3.042 15.441 3.116-6.028 1.855 1.855-2.75 5.321a1.25 1.25 0 0 1-2.221-1.148m8.357-10.66 1.01.744a1.25 1.25 0 1 0 1.483-2.012l-2.493-1.837z"/></svg>