<svg xmlns="http://www.w3.org/2000/svg" viewBox="0 0 44 44"><path fill-rule="evenodd" d="M8.493 8.75C7.67 8.75 7 9.422 7 10.25s.669 1.5 1.493 1.5h2.091l6.098 17h-1.468A3.243 3.243 0 0 0 11.978 32a3.243 3.243 0 0 0 3.236 3.25 3.243 3.243 0 0 0 3.226-3.5h9.477q-.01.124-.01.25a3.243 3.243 0 0 0 3.236 3.25A3.243 3.243 0 0 0 34.378 32a3.243 3.243 0 0 0-3.293-3.25H19.857l-.003-.009-1.073-2.99h11.245c.329 0 .724-.066 1.111-.283.832-.465 2.933-1.944 4.599-5.593.621-1.361 1.01-3.215 1.221-4.419.304-1.734-1.055-3.206-2.709-3.206h-20.31l-.663-1.848a2.49 2.49 0 0 0-2.341-1.652z"/></svg>