<svg xmlns="http://www.w3.org/2000/svg" viewBox="0 0 16 16"><path fill-rule="evenodd" d="M2.25 3.77c0-.426.34-.77.76-.77h.878c.536 0 1.013.341 1.193.852l.15.43h7.46c.678 0 1.207.646 1.021 1.344-.117.442-.356 1.26-.666 1.842-.329.615-.916 1.296-1.245 1.657-.334.369-.8.557-1.268.557H7.128l.264.752h4.224v.002h.003c.7 0 1.266.574 1.266 1.282S12.318 13 11.619 13a1.27 1.27 0 0 1-1.24-1.027H7.29A1.27 1.27 0 0 1 6.051 13a1.274 1.274 0 0 1-1.266-1.282 1.28 1.28 0 0 1 1.005-1.255L3.71 4.538h-.7a.764.764 0 0 1-.76-.769m4.338 4.374h3.945a.2.2 0 0 0 .15-.06c.33-.363.798-.919 1.028-1.349a6 6 0 0 0 .362-.915H5.77z"/></svg>