<svg xmlns="http://www.w3.org/2000/svg" viewBox="0 0 16 16"><path fill-rule="evenodd" d="M3.01 3.001c-.42 0-.76.345-.76.77s.34.769.76.769h.7l2.08 5.925a1.28 1.28 0 0 0-1.005 1.254c0 .709.567 1.283 1.266 1.283a1.27 1.27 0 0 0 1.24-1.028h3.088a1.27 1.27 0 0 0 1.24 1.027c.7 0 1.266-.573 1.266-1.282 0-.708-.567-1.282-1.266-1.282h-.003v-.001H7.392l-.264-.752h3.405c.468 0 .934-.189 1.268-.557.329-.362.916-1.042 1.245-1.658.31-.58.549-1.4.667-1.842a1.064 1.064 0 0 0-1.021-1.344h-7.46l-.151-.43a1.27 1.27 0 0 0-1.193-.852z"/></svg>