<svg xmlns="http://www.w3.org/2000/svg" viewBox="0 0 24 24"><path fill-rule="evenodd" d="M3.5 5.75c0-.552.452-1 1.009-1h1.653c.652 0 1.23.413 1.436 1.026l.327.974h11.068c.977 0 1.724.919 1.45 1.887-.187.663-.536 1.816-.911 2.56-.806 1.598-1.646 2.384-2.124 2.731a1.75 1.75 0 0 1-1.034.322h-5.927l.504 1.5h5.914c.975 0 1.765.784 1.765 1.75s-.79 1.75-1.765 1.75a1.76 1.76 0 0 1-1.747-1.5h-5.08a1.76 1.76 0 0 1-1.747 1.5 1.76 1.76 0 0 1-1.765-1.75c0-.952.767-1.726 1.722-1.75h.577l-.728-2.164-.013-.04L5.8 6.75H4.51a1.004 1.004 0 0 1-1.009-1m6.275 6.5H16.3c.266-.215.833-.77 1.428-1.947.196-.39.406-.992.58-1.553h-9.71z"/></svg>