<svg xmlns="http://www.w3.org/2000/svg" viewBox="0 0 24 24"><path fill-rule="evenodd" d="M4.509 4.75c-.557 0-1.009.448-1.009 1s.452 1 1.009 1h1.29l2.285 6.797.013.039.728 2.164h-.577a1.757 1.757 0 0 0-1.722 1.75c0 .966.79 1.75 1.765 1.75a1.76 1.76 0 0 0 1.747-1.5h5.08a1.76 1.76 0 0 0 1.747 1.5c.975 0 1.765-.784 1.765-1.75a1.76 1.76 0 0 0-1.79-1.75h-5.89l-.504-1.5h5.927c.306 0 .688-.07 1.034-.322.478-.347 1.318-1.133 2.124-2.73.375-.745.724-1.898.91-2.56.275-.97-.472-1.888-1.45-1.888H7.926l-.327-.974A1.51 1.51 0 0 0 6.162 4.75z"/></svg>