<svg xmlns="http://www.w3.org/2000/svg" viewBox="0 0 16 16"><path fill-rule="evenodd" d="M12.623 13.636c-.597-3.662-1.751-8.733-2.287-11.026-.14-.598-.21-.897-.5-1.167-.292-.27-.524-.305-.988-.377a5.5 5.5 0 0 0-1.695 0c-.464.072-.697.108-.988.378-.29.27-.36.568-.5 1.167-.537 2.293-1.69 7.364-2.288 11.025-.457.042-.745.123-1.006.389-.282.287-.345.551-.371.975h12c-.025-.424-.09-.688-.37-.975-.262-.266-.55-.347-1.007-.39m-1.534-.08A136 136 0 0 0 10.006 8H5.994a136 136 0 0 0-1.083 5.555 82 82 0 0 1 3.088-.055c1.222 0 2.254.023 3.09.055M8.875 2.951c.204.87.493 2.127.806 3.548H6.32c.313-1.421.602-2.678.805-3.547.037-.156.062-.264.086-.356l.006-.023.166-.026a4 4 0 0 1 1.4.026l.006.023c.024.091.05.2.086.355"/></svg>