<svg xmlns="http://www.w3.org/2000/svg" viewBox="0 0 24 24"><path fill-rule="evenodd" d="M20.463 20.787c-.434-.442-.919-.544-1.746-.602-.884-5.31-2.512-12.473-3.286-15.784-.21-.897-.315-1.345-.754-1.75-.44-.406-.787-.458-1.48-.561a8.1 8.1 0 0 0-2.393 0c-.694.104-1.04.155-1.48.56-.44.406-.545.855-.754 1.752-.774 3.312-2.403 10.473-3.287 15.783-.827.058-1.312.16-1.746.602-.365.372-.486.717-.537 1.213h18c-.051-.496-.173-.841-.537-1.213m-5.379-8.79c.575 2.684 1.16 5.577 1.588 8.087A123 123 0 0 0 12 20c-1.849 0-3.409.036-4.671.084.429-2.51 1.013-5.403 1.588-8.087L9 12h6q.042 0 .084-.004M14.651 10a417 417 0 0 0-1.168-5.143 21 21 0 0 0-.13-.54 4 4 0 0 0-.054-.185l-.01-.002a11 11 0 0 0-.387-.062 6.1 6.1 0 0 0-1.802 0 11 11 0 0 0-.388.062l-.01.002a4 4 0 0 0-.054.187c-.038.14-.076.306-.13.539A371 371 0 0 0 9.35 10z"/></svg>