<svg xmlns="http://www.w3.org/2000/svg" viewBox="0 0 16 16"><path d="M12.34 12H3.664c.239-1.295.518-2.677.799-4h7.079c.28 1.323.56 2.705.798 4M5.667 2.611A281 281 0 0 0 4.786 6.5h6.433a282 282 0 0 0-.881-3.89c-.14-.598-.21-.897-.5-1.167-.292-.27-.524-.305-.988-.377a5.5 5.5 0 0 0-1.695 0c-.464.072-.697.108-.988.378-.29.27-.36.568-.5 1.167M2.002 15h12c-.025-.424-.09-.688-.37-.975-.354-.36-.757-.382-1.562-.425-.956-.052-2.318-.1-4.069-.1s-3.112.048-4.067.1c-.805.043-1.208.065-1.561.425-.282.287-.346.551-.371.975"/></svg>