<svg xmlns="http://www.w3.org/2000/svg" viewBox="0 0 24 24"><path fill-rule="evenodd" d="M5.725 3.619c1.294-1.29 2.265-1.37 4.207-1.532A25 25 0 0 1 12 2h.127a12 12 0 0 1 .414.009c.362.02.71.084 1.05.286.48.287 1.398 1.095 3.197 2.894a32 32 0 0 1 2.803 3.18h.001q.112.148.178.228c.15.183.203.486.22.851.01.134.01.298.01.502V12q0 .45-.007.879.007.06.007.121a1 1 0 1 1-2 0q.005-.322.002-.657L18 12v-1.009q-.248.009-.5.009c-1.189 0-2.344-.152-3.16-.291l-.102-.016c-.413-.064-1.322-.204-2.024-.907-.703-.702-.843-1.611-.907-2.024l-.016-.101c-.139-.817-.29-1.972-.29-3.161q0-.24.007-.478-.468.021-.91.058c-1.038.086-1.524.137-1.918.26-.288.09-.584.238-1.043.696-.449.447-.602.747-.699 1.06-.13.42-.184.944-.278 2.023A45 45 0 0 0 6 12c0 1.492.065 2.787.16 3.883.094 1.078.149 1.601.278 2.022.097.312.25.612.699 1.06.46.458.755.606 1.043.696.394.123.879.173 1.916.26a23 23 0 0 0 2.789.062A1 1 0 1 1 13 21.977c-.325.013-.659.024-1 .024-.727 0-1.421-.033-2.07-.088-1.94-.161-2.911-.242-4.205-1.532-1.294-1.289-1.381-2.301-1.557-4.325A47 47 0 0 1 4 12c0-1.549.068-2.901.168-4.054.175-2.025.263-3.038 1.557-4.327m8.95 5.118c-.548-.093-.822-.14-1.047-.365s-.272-.5-.365-1.047C13.133 6.567 13 5.534 13 4.5l.001-.15q.149.125.356.312a56 56 0 0 1 2.017 1.941A30 30 0 0 1 17.542 9H17.5c-1.033 0-2.067-.134-2.825-.263"/><path d="M22.207 16.207a1 1 0 0 0-1.414-1.414L17 18.586l-1.293-1.293a1 1 0 0 0-1.414 1.414l2 2a1 1 0 0 0 1.414 0z"/></svg>