<svg xmlns="http://www.w3.org/2000/svg" viewBox="0 0 16 16"><path fill-rule="evenodd" d="M7.696 5.135A13 13 0 0 1 7.5 3q0-.25.012-.493-.704.02-1.33.083c-.717.07-1.046.109-1.306.19-.18.057-.356.144-.63.417-.273.273-.36.448-.417.629-.082.26-.122.59-.194 1.308A29 29 0 0 0 3.5 8c0 1.115.056 2.071.135 2.867.072.717.112 1.047.194 1.307.057.181.144.356.418.629.273.273.448.36.629.416.26.082.589.12 1.305.19a19 19 0 0 0 2.458.08.75.75 0 1 1 .111 1.492v.005a20 20 0 0 1-2.715-.083c-1.336-.131-2.004-.197-2.848-1.039s-.91-1.51-1.044-2.848A30 30 0 0 1 2 8c0-1.165.059-2.17.143-3.015.133-1.339.2-2.008 1.044-2.85s1.512-.907 2.85-1.038a20 20 0 0 1 1.637-.094h.006Q7.838 1 8 1h.49c.406 0 .74-.013 1.104.197.33.19.961.73 2.198 1.929a21 21 0 0 1 1.928 2.12l.122.152c.091.108.13.277.147.483a.1.1 0 0 1 .009.04v.164q.003.127.002.263V7.75a.75.75 0 0 1-1.5 0v-.262q-.247.012-.5.012a13 13 0 0 1-2.135-.196l-.065-.01c-.27-.042-.932-.142-1.442-.652s-.61-1.171-.652-1.442zM12 6c-.69 0-1.378-.089-1.883-.175-.366-.062-.548-.093-.698-.244-.15-.15-.182-.332-.244-.698A11.6 11.6 0 0 1 9 3q0-.194.009-.385.134.103.358.299c.325.283.77.697 1.381 1.289.817.792 1.332 1.4 1.646 1.788Q12.198 6 12 6"/><path d="M15.28 10.28a.75.75 0 1 0-1.06-1.06l-2.97 2.97-1.47-1.47a.75.75 0 0 0-1.06 1.06l2 2a.75.75 0 0 0 1.06 0z"/></svg>