<svg xmlns="http://www.w3.org/2000/svg" viewBox="0 0 24 24"><g fill-rule="evenodd" clip-rule="evenodd"><path d="M3.59 2.194a1 1 0 0 0-1.182 1.612l3.094 2.27 2.8 10.45a3 3 0 1 0 4.685 2.758l5.255-1.314a1 1 0 0 0-.485-1.94l-5.255 1.314a3 3 0 0 0-2.268-1.335L7.342 5.22a1 1 0 0 0-.374-.547zM10 18a1 1 0 1 0 0 2 1 1 0 0 0 0-2"/><path d="M10.234 9.818c-.265-1.44-.398-2.16.114-3.046s1.201-1.132 2.58-1.622a16 16 0 0 1 1.236-.387c.422-.113.85-.206 1.265-.283 1.439-.265 2.159-.397 3.045.115.887.511 1.132 1.201 1.622 2.58.142.398.275.814.388 1.236s.205.849.282 1.264c.265 1.44.397 2.16-.114 3.046-.512.886-1.202 1.131-2.58 1.622-.399.141-.815.274-1.237.387s-.849.206-1.264.282c-1.44.265-2.16.398-3.046-.114s-1.131-1.201-1.622-2.58a16 16 0 0 1-.387-1.236 16 16 0 0 1-.282-1.264m1.967-.362c-.144-.782-.2-1.124-.201-1.378a.6.6 0 0 1 .014-.159.6.6 0 0 1 .066-.147.6.6 0 0 1 .095-.131.6.6 0 0 1 .13-.092c.22-.125.544-.248 1.293-.514l.025-.009.59 1.992 1.918-.568-.58-1.957.24-.046c.782-.144 1.124-.2 1.377-.2.094-.001.138.008.159.013s.064.019.147.067.117.08.131.094a.6.6 0 0 1 .092.13c.126.22.248.545.515 1.294.127.357.243.722.34 1.084.097.361.178.736.247 1.108.144.782.2 1.124.201 1.378a.6.6 0 0 1-.014.158.6.6 0 0 1-.067.148.6.6 0 0 1-.094.131.6.6 0 0 1-.13.091c-.22.126-.544.249-1.294.515a14 14 0 0 1-1.083.34c-.362.097-.736.179-1.109.248-.782.144-1.124.2-1.378.2a.6.6 0 0 1-.158-.013.6.6 0 0 1-.148-.067.6.6 0 0 1-.13-.094.6.6 0 0 1-.092-.13c-.126-.22-.249-.545-.515-1.294a14 14 0 0 1-.34-1.084 14 14 0 0 1-.247-1.108"/></g></svg>