<svg xmlns="http://www.w3.org/2000/svg" viewBox="0 0 16 16"><path fill-rule="evenodd" d="M2.219 1.164a.75.75 0 1 0-.937 1.172l2.31 1.848 1.868 6.723a2.25 2.25 0 1 0 3.534 2.009l3.453-.942a.75.75 0 0 0-.394-1.447l-3.454.941a2.25 2.25 0 0 0-1.694-.963L4.973 3.55a.75.75 0 0 0-.254-.385zM6 12.75a.75.75 0 1 1 1.5 0 .75.75 0 0 1-1.5 0"/><path fill-rule="evenodd" d="M13.77 8.373c.342-.592.253-1.071.076-2.03-.05-.275-.112-.557-.186-.835a11 11 0 0 0-.256-.817c-.326-.92-.49-1.379-1.08-1.72-.591-.342-1.07-.253-2.03-.076a11 11 0 0 0-.834.186c-.278.075-.553.163-.816.256-.919.327-1.378.49-1.72 1.081-.34.592-.252 1.071-.075 2.03A10.4 10.4 0 0 0 7.291 8.1c.326.92.49 1.379 1.08 1.72.592.342 1.07.253 2.03.076.274-.05.556-.112.834-.186.279-.075.553-.163.816-.256.919-.327 1.378-.49 1.72-1.081m-3.642.048q.366-.067.719-.16c.233-.063.47-.138.702-.22.237-.085.41-.147.557-.205.145-.057.227-.097.277-.126l.044-.027.009-.008.007-.008a.4.4 0 0 0 .052-.09l.004-.01.002-.012.002-.052c0-.058-.007-.15-.03-.303a18 18 0 0 0-.102-.586 9 9 0 0 0-.16-.718 9 9 0 0 0-.22-.703c-.085-.237-.146-.41-.205-.558a2 2 0 0 0-.126-.278l-.027-.043-.008-.01-.008-.006a.4.4 0 0 0-.09-.052l-.01-.004-.011-.002-.051-.002a2 2 0 0 0-.303.03c-.157.023-.338.056-.585.102l-.043.008.335 1.13-1.438.426-.344-1.159a15 15 0 0 0-.488.18 2 2 0 0 0-.277.126l-.043.027-.01.008-.007.008a.4.4 0 0 0-.055.1l-.002.013-.002.05c0 .059.007.15.03.304.022.157.056.338.101.586.045.242.098.485.16.719.063.233.138.47.22.702.085.237.147.41.205.558.057.145.097.227.126.278a.4.4 0 0 0 .033.05l.002.002.009.008a.4.4 0 0 0 .11.057l.052.002c.058 0 .149-.007.303-.03.156-.023.337-.056.584-.102"/></svg>