<svg xmlns="http://www.w3.org/2000/svg" viewBox="0 0 24 24"><path d="M2.193 2.409a1 1 0 0 1 1.398-.215l3.377 2.478a1 1 0 0 1 .374.547l2.892 10.79a3 3 0 0 1 2.268 1.335l5.255-1.314a1 1 0 1 1 .485 1.94l-5.256 1.315a3 3 0 1 1-4.684-2.759l-2.8-10.45-3.094-2.27a1 1 0 0 1-.215-1.397"/><path d="M10.234 9.818c-.265-1.44-.398-2.16.114-3.046s1.201-1.132 2.58-1.622l.126-.044 1.16 3.912 1.917-.568-1.15-3.882q.226-.046.447-.088c1.44-.265 2.16-.397 3.046.115.887.511 1.132 1.201 1.622 2.58.142.398.275.814.388 1.236s.205.849.282 1.264c.265 1.44.397 2.16-.114 3.046-.512.886-1.202 1.131-2.58 1.622-.399.141-.815.274-1.237.387s-.849.206-1.264.282c-1.44.265-2.16.398-3.046-.114s-1.131-1.201-1.622-2.58a16 16 0 0 1-.387-1.236 16 16 0 0 1-.282-1.264"/></svg>