<svg xmlns="http://www.w3.org/2000/svg" viewBox="0 0 24 24"><path fill-rule="evenodd" d="M14.478 6a11 11 0 0 0-2.668.328L7.243 7.47a1 1 0 1 1-.485-1.94l4.567-1.142A13 13 0 0 1 14.478 4h.05a5 5 0 0 1 4.703 3.302l1.746 4.839c.509 1.329.96 2.94 1.02 4.571C22.074 18.74 20.145 20 18.114 20H4.856C3 20 1.526 18.31 2.143 16.562c.826-2.34 2.292-4.356 5.306-5.726a1 1 0 0 1 .309-1.805l2-.5a1 1 0 0 1 1.222 1.17c1.602-.352 3.48-.59 5.69-.696.077-.004.252-.005.33-.005l.72.005-.37-1.024A3 3 0 0 0 14.528 6zm4.625 6.84.225.623.006.017c.166.489.313 1 .427 1.52H5.197c.524-.688 1.2-1.298 2.09-1.828 1.834-1.093 4.742-1.941 9.478-2.17.981-.046 1.761.458 2.068 1.173q.139.321.27.665M4.028 17.228q.04-.116.084-.228h15.871c-.04.196-.153.371-.37.541-.331.26-.872.459-1.5.459H4.856a.96.96 0 0 1-.735-.33c-.13-.157-.145-.294-.093-.442"/></svg>