<svg xmlns="http://www.w3.org/2000/svg" viewBox="0 0 16 16"><path fill-rule="evenodd" d="M1.007 6.836c.023.595.133 1.084.33 1.535.376.86 1.066 1.583 2.07 2.635l.138.142c.346.355.708.694 1.068 1.012C6.005 13.386 6.7 14 8 14s1.995-.614 3.386-1.84a20 20 0 0 0 1.206-1.154c1.005-1.052 1.695-1.775 2.07-2.635a4 4 0 0 0 .324-1.399l.007-.136h-.007a5 5 0 0 0 0-.744C14.816 3.8 13.093 2 10.991 2c-.669 0-1.3.182-1.854.505a4.1 4.1 0 0 0-1.143.994 4.1 4.1 0 0 0-1.147-.99 3.67 3.67 0 0 0-1.84-.496c-2.104 0-3.83 1.807-3.994 4.105a5 5 0 0 0 0 .717zM9.4 8.626H6.6c-.331 0-.597.277-.524.608.151.682.598 1.694 1.924 1.694s1.773-1.012 1.924-1.694c.073-.33-.193-.608-.524-.608m-3.348-1.67.021.016a.74.74 0 0 0 1.043.01.78.78 0 0 0 .028-1.085v-.001h-.001l-.002-.003-.004-.004-.009-.009a1 1 0 0 0-.088-.083 2 2 0 0 0-.22-.159A1.6 1.6 0 0 0 6 5.402c-.356 0-.638.125-.82.236a1.7 1.7 0 0 0-.308.242l-.009.01-.004.003-.001.002-.001.001h-.001a.78.78 0 0 0 .028 1.086.74.74 0 0 0 1.043-.01l.022-.016A.1.1 0 0 1 6 6.937c.007 0 .024.003.052.02m4 0 .021.016a.74.74 0 0 0 1.043.01.78.78 0 0 0 .028-1.085v-.001h-.002l-.001-.003-.004-.004-.009-.009a1.6 1.6 0 0 0-.307-.242A1.6 1.6 0 0 0 10 5.402c-.356 0-.638.125-.82.236a1.7 1.7 0 0 0-.308.242l-.01.01-.003.003-.001.002-.001.001h-.001a.78.78 0 0 0 .028 1.086.74.74 0 0 0 1.043-.01l.022-.016A.1.1 0 0 1 10 6.937c.007 0 .024.003.052.02"/></svg>