<svg xmlns="http://www.w3.org/2000/svg" viewBox="0 0 24 24"><path fill-rule="evenodd" d="M5.44 16.759c-1.492-1.55-2.498-2.595-3.019-3.878C2.089 12.063 2 11.204 2 10.343q0-.256.018-.508c.234-3.255 2.7-5.816 5.708-5.816.997 0 1.935.282 2.752.777.57.346 1.082.797 1.513 1.329.43-.534.94-.986 1.508-1.335A5.3 5.3 0 0 1 16.273 4c3.002 0 5.465 2.55 5.707 5.797.031.414.027.832 0 1.247a5.8 5.8 0 0 1-.401 1.837c-.52 1.283-1.527 2.328-3.02 3.878a28 28 0 0 1-1.721 1.634C14.85 20.13 13.857 21 12 21s-2.85-.87-4.838-2.607a28 28 0 0 1-1.722-1.634m4.072-3.624a.76.76 0 0 0-.548.236.78.78 0 0 0-.19.715c.029.124.201.8.66 1.46.47.678 1.288 1.396 2.566 1.396s2.096-.718 2.566-1.396c.459-.66.631-1.336.66-1.46a.78.78 0 0 0-.19-.715.76.76 0 0 0-.548-.236zm-.87-2.62-.007.009.002-.002.003-.004zm-.012.014.002-.002a.99.99 0 0 1-1.4.063 1.026 1.026 0 0 1-.075-1.433v-.002h.002l.002-.003.005-.006.012-.013A2 2 0 0 1 7.313 9c.083-.076.202-.174.351-.271.29-.19.754-.416 1.336-.416s1.045.225 1.336.416a3 3 0 0 1 .486.404l.013.013.004.006.002.002.002.001v.002c.37.416.336 1.058-.074 1.433a.99.99 0 0 1-1.417-.078 1 1 0 0 0-.1-.077.5.5 0 0 0-.252-.092.5.5 0 0 0-.252.092 1 1 0 0 0-.116.092zm6.005-.005.007-.008-.002.002-.003.003zm-.003.003-.002.002zl.002-.002zm0 0a.99.99 0 0 1-1.4.063 1.026 1.026 0 0 1-.075-1.433v-.002h.002l.002-.003.005-.006.012-.013A2 2 0 0 1 13.313 9c.083-.076.202-.174.351-.271.29-.19.754-.416 1.336-.416s1.045.225 1.336.416a3 3 0 0 1 .486.404l.012.013.005.006.003.002v.001s.002-.056.002.002a1.026 1.026 0 0 1-.075 1.433.99.99 0 0 1-1.417-.078 1 1 0 0 0-.1-.077.5.5 0 0 0-.252-.092.5.5 0 0 0-.252.092 1 1 0 0 0-.116.092"/></svg>