<svg xmlns="http://www.w3.org/2000/svg" viewBox="0 0 44 44"><path fill-rule="evenodd" d="M17.94 36.579A6.5 6.5 0 0 0 22 38a6.5 6.5 0 0 0 4.06-1.421s6.41-4.942 10.713-9.529 4.303-12.023 0-16.61C32.73 6.13 26.328 5.87 22 9.66c-4.328-3.79-10.73-3.53-14.773.78-4.303 4.587-4.303 12.024 0 16.61s10.712 9.529 10.712 9.529M22 14.023l-2.108-2.136c-3.163-2.561-7.694-2.303-10.58.775a8.7 8.7 0 0 0-2.085 3.833 9.2 9.2 0 0 0 0 4.5 8.7 8.7 0 0 0 2.084 3.834c.486.518 2.835 3.001 5.189 5.093 2.654 2.358 4 3.492 5.314 4.32a4.45 4.45 0 0 0 2.186.692 4.45 4.45 0 0 0 2.186-.692c1.314-.828 2.66-1.962 5.314-4.32 2.354-2.092 4.703-4.575 5.189-5.093a8.7 8.7 0 0 0 2.084-3.833 9.2 9.2 0 0 0 0-4.501 8.7 8.7 0 0 0-2.084-3.833c-2.887-3.078-7.418-3.336-10.581-.775zm-8.765 5.028c.605.555 1.544.52 2.107-.075l.003-.004.058-.053c.06-.053.154-.128.274-.203.25-.158.535-.268.823-.268s.573.11.823.268a2.2 2.2 0 0 1 .332.256l.003.004c.563.595 1.502.63 2.107.075.61-.56.65-1.507.089-2.115l-.002-.002-.001-.001-.003-.004-.008-.008-.02-.022a3 3 0 0 0-.246-.231 5 5 0 0 0-.65-.483c-.542-.342-1.382-.73-2.424-.73s-1.882.388-2.424.73a5.2 5.2 0 0 0-.837.655l-.058.06-.02.02-.008.009-.004.004-.001.001-.001.001v.001a1.494 1.494 0 0 0 .088 2.115m13.107-.075a1.5 1.5 0 0 1-2.107.075 1.494 1.494 0 0 1-.089-2.115c.003-.003 0 0 0 0l.002-.002.001-.001.003-.004.008-.008.02-.022a3 3 0 0 1 .246-.231c.154-.135.373-.31.65-.483.542-.342 1.382-.73 2.424-.73s1.882.388 2.424.73a5.2 5.2 0 0 1 .837.655l.058.06.02.02.009.009.003.004.002.001v.002a1.493 1.493 0 0 1-.088 2.115 1.5 1.5 0 0 1-2.107-.075l-.003-.004-.058-.053a2 2 0 0 0-.274-.203c-.25-.158-.535-.268-.823-.268s-.573.11-.823.268a2.2 2.2 0 0 0-.332.256zm-9.22 4.46c-.985 0-1.806.916-1.554 1.965.108.447.495 1.868 1.41 3.21.933 1.366 2.536 2.807 5.022 2.807s4.09-1.44 5.021-2.807c.916-1.342 1.303-2.763 1.41-3.21.253-1.049-.568-1.964-1.553-1.964zm2.337 3.491a6 6 0 0 1-.303-.497h5.688q-.135.25-.303.497c-.6.881-1.394 1.498-2.541 1.498s-1.94-.617-2.541-1.498"/></svg>