<svg xmlns="http://www.w3.org/2000/svg" viewBox="0 0 16 16"><path fill-rule="evenodd" d="m11.408 8.738.08-1.377q.004-.078.004-.157c0-1.478-1.215-2.703-2.746-2.703-1.252 0-2.3.824-2.634 1.936l-.34 1.135-1.184-.068-.122-.004C3.34 7.5 2.5 8.377 2.5 9.37c0 .715.599 1.614 1.342 1.826.268.076.605.113 1.292.177.797.074 1.752.126 2.866.126.732 0 1.42-.023 2.058-.06 2.062-.119 2.422-.202 2.822-.554.257-.228.62-.767.62-1.131 0-.414-.3-.761-.726-.822zm3.204 2.31c.242-.416.388-.867.388-1.294a2.33 2.33 0 0 0-2.015-2.307q.007-.12.007-.243c0-2.32-1.9-4.203-4.246-4.203a4.24 4.24 0 0 0-4.07 3.005A4 4 0 0 0 4.465 6C2.552 6 1 7.51 1 9.37a3.33 3.33 0 0 0 1.239 2.582c.792.732 1.469.794 2.756.914A33 33 0 0 0 8 13c.763 0 1.48-.024 2.144-.062 1.91-.11 2.865-.165 3.729-.928.304-.268.565-.594.739-.962"/></svg>