<svg xmlns="http://www.w3.org/2000/svg" viewBox="0 0 24 24"><path fill-rule="evenodd" d="M11.988 22C7.493 21.993 4 18.5 4 14c0-.588.03-1.017.094-1.338.218-1.542.866-3.468 2.443-6.199a.95.95 0 0 1 .494-.421 1.1 1.1 0 0 1 1.304.452q.1.16.203.315.175-.342.358-.668.357-.631.745-1.2a13.4 13.4 0 0 1 2.342-2.648c.902-.771 2.15.098 2.482 1.238.48 1.646 1.571 3.03 2.66 4.41C18.564 9.77 20 11.59 20 14.001c0 4.205-3.05 7.53-7.116 7.953a7 7 0 0 1-.859.046m-5.969-8.95.01-.054.008-.053c.138-.976.508-2.256 1.428-4.07L8.76 10.78l1.56-3.063c.69-1.352 1.488-2.454 2.326-3.308.627 1.88 1.846 3.423 2.817 4.654l.092.117C17.076 11.11 18 12.394 18 14c0 1.865-.782 3.484-2.043 4.568q.043-.3.043-.61c0-1.529-.611-2.462-1.04-3.118l-.043-.065c-.36-.55-.702-1.077-.934-2.185a2 2 0 0 0-3.475-.893C9.306 13.097 8 15.349 8 17.958q0 .313.043.61C6.78 17.484 6 15.862 6 14c0-.54.03-.818.056-.95M12.068 20H12c-1.156-.013-2-.884-2-2.042 0-.97.245-1.901.617-2.74A9.1 9.1 0 0 1 12.025 13c.215 1.025.522 1.71.83 2.247.137.239.274.448.403.646.41.628.742 1.136.742 2.065 0 1.153-.787 2.02-1.932 2.042"/></svg>