<svg xmlns="http://www.w3.org/2000/svg" viewBox="0 0 16 16"><path fill-rule="evenodd" d="M8 15c3.094 0 5.5-2.441 5.5-5.589 0-1.685-.987-2.957-1.977-4.233-.765-.986-1.532-1.975-1.85-3.159-.205-.766-1.038-1.342-1.64-.826-.933.797-1.786 1.91-2.47 3.309l-.096-.15c-.28-.446-.947-.477-1.21-.023-1.065 1.842-1.518 3.07-1.68 4.089-.052.23-.077.544-.077.99v.003c0 3.148 2.406 5.59 5.5 5.59m1.258-5.313c.41.582.742 1.054.742 1.917 0 1.084-.807 1.896-1.975 1.896S6 12.688 6 11.604C6 9.784 7 8.106 8.025 7c.31 1.374.813 2.089 1.233 2.687"/></svg>