<svg xmlns="http://www.w3.org/2000/svg" viewBox="0 0 44 44"><path fill-rule="evenodd" d="M18.5 4A1.5 1.5 0 0 0 17 5.5V8h-4V6.5a1.5 1.5 0 0 0-3 0v7c0 .7.068 1.326.176 1.878.36 1.852 1.984 2.913 3.824 3.262v15.662l.181-.014.14-.011C16.162 34.132 18.73 34 22 34s5.84.132 7.679.277l.14.011.182.014V18.64c1.84-.349 3.464-1.41 3.824-3.261A10 10 0 0 0 34 13.5v-7a1.5 1.5 0 0 0-3 0V8h-4V5.5a1.5 1.5 0 0 0-3 0V8h-4V5.5A1.5 1.5 0 0 0 18.5 4m2.012 21.154c.033-.436.05-.654.268-.873s.437-.235.873-.267a5 5 0 0 1 .692 0c.436.032.654.048.873.267s.235.437.267.873a5 5 0 0 1 0 .692c-.032.436-.048.654-.267.873s-.437.235-.873.267a5 5 0 0 1-.692 0c-.436-.032-.654-.048-.873-.267s-.235-.437-.268-.873a5 5 0 0 1 0-.692m.269-7.873c-.219.219-.235.437-.267.873a5 5 0 0 0 0 .692c.032.436.048.654.267.873s.437.235.873.267a5 5 0 0 0 .692 0c.436-.032.654-.048.873-.267s.235-.437.267-.873a5 5 0 0 0 0-.692c-.032-.436-.048-.654-.267-.873s-.437-.235-.873-.267a5 5 0 0 0-.692 0c-.436.032-.654.048-.873.267"/><path d="M32.399 38.442c.337.5.509.978.601 1.558H11c.092-.58.264-1.057.601-1.559.667-.992 1.43-1.053 2.957-1.173 1.762-.14 4.252-.268 7.44-.268 3.19 0 5.681.129 7.444.268 1.526.12 2.29.18 2.957 1.173"/></svg>