<svg xmlns="http://www.w3.org/2000/svg" viewBox="0 0 44 44"><path d="M37.559 15.56a1.5 1.5 0 0 1-2.122 0l-7-7a1.5 1.5 0 1 1 2.122-2.12l2.439 2.439.94-.94a1.5 1.5 0 1 1 2.12 2.122L35.12 11l2.44 2.44a1.5 1.5 0 0 1 0 2.12m-1.513 3.745a124 124 0 0 0-5.509-5.845 124 124 0 0 0-5.845-5.509c-1.761-1.545-4.29-2.316-6.103-.833a6.3 6.3 0 0 0-.88.88c-1.484 1.814-.713 4.342.833 6.103.873.995 2.003 2.239 3.41 3.704l-4.15 4.15a113 113 0 0 0-3.704-3.41c-1.76-1.545-4.287-2.316-6.1-.834a6.2 6.2 0 0 0-.884.883c-1.482 1.813-.71 4.34.834 6.1a124 124 0 0 0 5.51 5.847 124 124 0 0 0 5.844 5.508c1.761 1.545 4.29 2.316 6.104.833a6.3 6.3 0 0 0 .88-.88c1.483-1.814.712-4.342-.834-6.103a113 113 0 0 0-3.407-3.702l4.15-4.15a113 113 0 0 0 3.701 3.409c1.76 1.544 4.287 2.315 6.1.833a6.2 6.2 0 0 0 .884-.883c1.482-1.813.71-4.34-.834-6.1M6.437 28.44a1.5 1.5 0 0 1 2.122 0l7 7a1.5 1.5 0 0 1-2.122 2.12l-2.439-2.439-.94.94a1.5 1.5 0 0 1-2.12-2.122L8.876 33l-2.44-2.44a1.5 1.5 0 0 1 0-2.12"/></svg>