<svg xmlns="http://www.w3.org/2000/svg" viewBox="0 0 32 32"><path d="M27.63 11.148a1.26 1.26 0 0 1-1.782 0l-4.996-4.996a1.26 1.26 0 0 1 1.783-1.783l1.617 1.617.609-.61a1.249 1.249 0 1 1 1.766 1.767l-.61.61 1.614 1.612a1.26 1.26 0 0 1 0 1.783m-1.263 2.877a91 91 0 0 0-4.042-4.288 91 91 0 0 0-4.287-4.04c-1.292-1.134-3.147-1.7-4.477-.612a4.6 4.6 0 0 0-.646.646c-1.088 1.33-.523 3.185.611 4.477a82 82 0 0 0 2.266 2.47l-3.115 3.115a82 82 0 0 0-2.534-2.326c-1.291-1.133-3.145-1.698-4.475-.611a4.6 4.6 0 0 0-.648.648c-1.087 1.33-.522 3.184.612 4.475a91 91 0 0 0 4.04 4.288 91 91 0 0 0 4.288 4.04c1.292 1.134 3.147 1.7 4.477.612a4.6 4.6 0 0 0 .646-.646c1.088-1.33.523-3.185-.611-4.477a82 82 0 0 0-2.264-2.468l3.115-3.115a82 82 0 0 0 2.532 2.324c1.291 1.133 3.145 1.698 4.475.611a4.6 4.6 0 0 0 .648-.648c1.087-1.33.522-3.184-.611-4.475M4.37 20.856a1.26 1.26 0 0 1 1.782 0l4.996 4.996a1.26 1.26 0 0 1-1.783 1.783L7.75 26.02l-.607.607a1.249 1.249 0 1 1-1.766-1.766l.607-.607-1.615-1.615a1.26 1.26 0 0 1 0-1.783"/></svg>