<svg xmlns="http://www.w3.org/2000/svg" viewBox="0 0 17 17"><path d="M14.64 6.174a.794.794 0 0 1-1.122 0l-1.34-1.34-.007-.007-.006-.007-1.34-1.34a.794.794 0 1 1 1.122-1.123l.786.786.232-.232a.794.794 0 1 1 1.123 1.122l-.233.233.786.785c.31.31.31.813 0 1.123m-.799 1.234a42 42 0 0 0-2.057-2.196A42 42 0 0 0 9.59 3.155c-.719-.623-1.74-.878-2.486-.287a3.2 3.2 0 0 0-.51.51c-.592.746-.336 1.767.287 2.487q.388.451.954 1.057l-.863.862a37 37 0 0 0-1.05-.946c-.724-.626-1.751-.876-2.502-.282a3.3 3.3 0 0 0-.538.538c-.594.751-.344 1.778.282 2.502a42 42 0 0 0 2.05 2.19 42 42 0 0 0 2.189 2.049c.724.626 1.752.876 2.504.282a3.3 3.3 0 0 0 .536-.537c.594-.75.344-1.778-.282-2.503q-.385-.448-.944-1.048l.863-.862q.604.563 1.054.95c.719.623 1.74.879 2.485.288a3.2 3.2 0 0 0 .511-.511c.591-.746.336-1.767-.287-2.486M2.357 10.824a.794.794 0 0 1 1.123 0l1.323 1.323.048.049 1.323 1.322a.794.794 0 1 1-1.123 1.123l-.785-.786-.232.232a.794.794 0 1 1-1.123-1.122l.232-.232-.786-.786a.794.794 0 0 1 0-1.123"/></svg>