<svg xmlns="http://www.w3.org/2000/svg" viewBox="0 0 24 24"><path d="M20.707 8.707a1 1 0 0 1-1.414 0l-4-4a1 1 0 0 1 1.414-1.414L18 4.586l.293-.293a1 1 0 1 1 1.414 1.414L19.414 6l1.293 1.293a1 1 0 0 1 0 1.414m-1.072 1.8c-.69-.79-1.672-1.86-2.978-3.165a66 66 0 0 0-3.164-2.978c-.978-.855-2.379-1.26-3.388-.442a3.7 3.7 0 0 0-.543.543c-.818 1.01-.413 2.41.442 3.388.418.478.943 1.06 1.582 1.733L9.62 11.552a58 58 0 0 0-1.727-1.576c-.982-.858-2.387-1.258-3.401-.439a3.8 3.8 0 0 0-.561.561c-.82 1.014-.42 2.42.439 3.401.69.79 1.669 1.857 2.97 3.16a65 65 0 0 0 3.16 2.97c.982.858 2.388 1.259 3.402.439a3.7 3.7 0 0 0 .56-.56c.82-1.014.42-2.42-.44-3.402a58 58 0 0 0-1.573-1.726l1.966-1.966a58 58 0 0 0 1.731 1.581c.978.855 2.378 1.26 3.387.442a3.6 3.6 0 0 0 .544-.544c.818-1.01.413-2.409-.442-3.386M3.293 15.293a1 1 0 0 1 1.414 0l4 4a1 1 0 1 1-1.414 1.414L6 19.414l-.293.293a1 1 0 0 1-1.414-1.414L4.586 18l-1.293-1.293a1 1 0 0 1 0-1.414"/></svg>