<svg xmlns="http://www.w3.org/2000/svg" viewBox="0 0 16 16"><path d="M13.786 5c-.127-.773-.356-1.321-.91-1.875-.875-.875-1.747-.94-3.491-1.07A19 19 0 0 0 8 2.001c-.466 0-.933.02-1.385.054-1.744.13-2.616.195-3.491 1.07-.554.554-.783 1.102-.91 1.875z"/><path fill-rule="evenodd" d="m2.062 6.5-.008.116C2.02 7.068 2 7.535 2 8.001s.02.933.054 1.385c.13 1.744.195 2.616 1.07 3.491s1.747.94 3.491 1.07C7.067 13.98 7.534 14 8 14s.933-.02 1.385-.054c1.744-.13 2.616-.195 3.491-1.07s.94-1.747 1.07-3.491C13.98 8.934 14 8.467 14 8s-.02-.933-.054-1.385l-.008-.116zm9.119 1.92a.75.75 0 0 1-.22.527l-2.916 2.914a.75.75 0 0 1-1.061 0L5.4 10.292a.75.75 0 0 1 0-1.06.75.75 0 0 1 1.061 0l1.053 1.038 2.387-2.383a.75.75 0 0 1 1.28.534"/></svg>