<svg xmlns="http://www.w3.org/2000/svg" viewBox="0 0 24 24"><path d="M16.447 12.18a.98.98 0 0 0 0-1.392.98.98 0 0 0-1.392 0l-3.82 3.835-1.32-1.32a.984.984 0 0 0-1.391 1.393l2.015 2.016a.984.984 0 0 0 1.392 0z"/><path fill-rule="evenodd" d="M19.314 4.687c-1.313-1.312-2.62-1.41-5.237-1.604A28 28 0 0 0 12 3c-.7 0-1.399.031-2.077.082-2.616.194-3.924.292-5.237 1.604s-1.41 2.621-1.605 5.237c-.05.678-.081 1.378-.081 2.078 0 .699.03 1.398.081 2.077.195 2.616.292 3.924 1.605 5.236 1.313 1.313 2.62 1.41 5.237 1.605.678.05 1.377.081 2.077.081s1.399-.03 2.077-.08c2.616-.195 3.924-.293 5.237-1.605s1.41-2.621 1.605-5.237C20.969 13.4 21 12.7 21 12s-.03-1.399-.081-2.077c-.195-2.616-.292-3.924-1.605-5.237M19 12.002c0-.643-.028-1.292-.076-1.93-.03-.406-.058-.754-.087-1.07H5.163c-.029.316-.057.664-.087 1.07A26 26 0 0 0 5 12.003c0 .642.028 1.291.076 1.928.204 2.75.318 3.265 1.024 3.971.706.707 1.22.82 3.971 1.025.637.047 1.287.076 1.929.076s1.292-.029 1.929-.076c2.75-.205 3.265-.318 3.97-1.025.707-.706.82-1.22 1.025-3.97A26 26 0 0 0 19 12m-1.1-5.9c.277.277.463.535.599.9H5.501c.136-.365.322-.623.6-.9.705-.707 1.22-.82 3.97-1.025A26 26 0 0 1 12 5.001c.642 0 1.292.029 1.929.076 2.75.205 3.265.318 3.97 1.025"/></svg>