<svg xmlns="http://www.w3.org/2000/svg" viewBox="0 0 24 24"><path d="M4.685 4.687C3.98 5.392 3.625 6.095 3.419 7h17.16c-.207-.905-.561-1.608-1.266-2.313-1.313-1.312-2.62-1.41-5.237-1.604A28 28 0 0 0 12 3c-.7 0-1.399.031-2.077.082-2.616.194-3.924.292-5.237 1.604"/><path fill-rule="evenodd" d="M3.08 9.924c-.05.678-.08 1.378-.08 2.078 0 .699.03 1.398.081 2.077.195 2.616.292 3.924 1.605 5.236 1.313 1.313 2.62 1.41 5.237 1.605.678.05 1.377.081 2.077.081s1.4-.03 2.077-.08c2.616-.195 3.924-.293 5.237-1.605s1.41-2.621 1.605-5.237c.05-.679.081-1.378.081-2.078s-.03-1.4-.081-2.077v-.002q-.036-.489-.071-.922H3.15q-.036.434-.07.924m13.655 2.545a.98.98 0 0 1-.288.696l-4.516 4.531a.984.984 0 0 1-1.392 0L8.524 15.68a.98.98 0 0 1 0-1.392.984.984 0 0 1 1.392 0l1.32 1.32 3.819-3.835a.98.98 0 0 1 1.392 0 .98.98 0 0 1 .288.696"/></svg>