<svg xmlns="http://www.w3.org/2000/svg" viewBox="0 0 24 24"><path d="M15.207 11.707a1 1 0 0 0-1.414-1.414L12 12.086l-1.793-1.793a1 1 0 0 0-1.414 1.414l1.793 1.793-1.793 1.793a1 1 0 1 0 1.414 1.414L12 14.914l1.793 1.793a1 1 0 1 0 1.414-1.414L13.414 13.5z"/><path fill-rule="evenodd" d="M4.4 7.467c.706-.705 1.32-.955 2.192-1.102.084-.949.218-1.522.822-2.168.723-.774 1.392-.868 2.729-1.056.593-.084 1.227-.14 1.857-.14.661 0 1.322.062 1.934.153 1.272.187 1.907.281 2.62 1.036.62.656.745 1.215.841 2.173.879.146 1.495.396 2.204 1.104 1 .999 1.087 1.804 1.26 3.415.085.795.142 1.678.142 2.62s-.057 1.826-.142 2.62c-.173 1.611-.26 2.417-1.26 3.415-1 1-1.814 1.085-3.443 1.257-1.141.12-2.528.207-4.157.207s-3.016-.087-4.157-.207c-1.628-.172-2.441-.258-3.442-1.256-1-1-1.087-1.804-1.26-3.414a25 25 0 0 1-.142-2.622c0-.943.057-1.827.142-2.621.173-1.61.26-2.416 1.26-3.414m11.006-.903.153 1.52 1.508.252c.547.091.756.184 1.119.546.3.3.388.482.448.67.093.294.143.674.236 1.543a22.5 22.5 0 0 1 0 4.814c-.093.87-.143 1.249-.236 1.543-.06.188-.147.37-.448.67-.298.298-.48.385-.674.446-.3.095-.688.144-1.565.237-1.073.113-2.39.196-3.948.196s-2.875-.083-3.947-.196c-.878-.093-1.265-.142-1.565-.237-.194-.06-.376-.148-.674-.446-.3-.3-.388-.482-.448-.67-.093-.294-.143-.673-.236-1.542a23 23 0 0 1-.13-2.408c0-.863.051-1.675.13-2.408.093-.869.143-1.248.236-1.542.06-.188.147-.37.448-.67.362-.361.572-.454 1.11-.544l1.524-.257.137-1.539c.039-.442.078-.618.112-.716.018-.051.045-.12.179-.263.144-.154.214-.185.315-.22.209-.07.5-.119 1.231-.222.527-.074 1.065-.12 1.58-.12.54 0 1.1.051 1.641.131.697.103.964.15 1.155.217.087.03.155.058.304.215.142.15.168.22.184.266.035.099.074.272.12.734"/></svg>