<svg xmlns="http://www.w3.org/2000/svg" viewBox="0 0 32 32"><path d="M13.638 13.116a1.25 1.25 0 0 0-1.768 1.768l2.366 2.366-2.366 2.366a1.25 1.25 0 0 0 1.768 1.768l2.366-2.366 2.366 2.366a1.25 1.25 0 0 0 1.768-1.768l-2.366-2.366 2.366-2.366a1.25 1.25 0 0 0-1.768-1.768l-2.366 2.366z"/><path fill-rule="evenodd" d="M4.26 13.82A32 32 0 0 0 4 17.87c0 1.416.099 2.67.24 3.737.213 1.613.32 2.42 1.442 3.54 1.124 1.12 1.985 1.233 3.708 1.456 1.696.22 3.902.397 6.61.397s4.913-.177 6.609-.397c1.724-.223 2.586-.335 3.71-1.456 1.122-1.12 1.229-1.928 1.442-3.542.14-1.067.239-2.32.239-3.735a32 32 0 0 0-.26-4.047c-.243-1.912-.364-2.868-1.504-4-.977-.97-1.826-1.193-3.264-1.382-.086-1.26-.22-1.985-1.105-2.924-.992-1.054-1.855-1.16-3.581-1.37A19 19 0 0 0 16.013 4c-.728 0-1.46.052-2.156.132-1.82.21-2.731.315-3.736 1.396-.857.922-1.01 1.67-1.079 2.911-1.446.19-2.297.411-3.278 1.384-1.14 1.131-1.26 2.087-1.504 3.998m16.218-5.207.14 2.04 2.028.267c.69.09 1.007.165 1.222.248.155.061.33.154.607.43.311.309.403.496.474.711.113.345.18.796.311 1.829.14 1.104.24 2.37.24 3.732 0 1.299-.09 2.442-.218 3.408-.116.884-.17 1.201-.256 1.445-.046.129-.123.304-.474.655-.333.332-.512.413-.674.469-.283.097-.652.155-1.59.277-1.591.206-3.69.376-6.288.376-2.6 0-4.698-.17-6.288-.376-.938-.122-1.307-.18-1.59-.277-.161-.056-.34-.137-.674-.47-.35-.35-.427-.525-.473-.654-.087-.243-.14-.56-.257-1.443a26 26 0 0 1-.218-3.41c0-1.363.1-2.629.24-3.734.132-1.032.199-1.483.312-1.827.07-.215.162-.402.474-.711.278-.277.452-.37.609-.43.216-.085.536-.159 1.232-.25l2.056-.27.115-2.07c.033-.58.077-.796.118-.917.021-.065.065-.182.296-.43s.349-.3.5-.349c.293-.095.698-.152 1.69-.266a17 17 0 0 1 1.871-.116c.65 0 1.32.05 1.97.129.944.115 1.314.17 1.582.26.13.043.247.091.482.341.246.262.286.378.305.433.041.122.084.333.126.95"/></svg>