<svg xmlns="http://www.w3.org/2000/svg" viewBox="0 0 24 24"><path fill-rule="evenodd" d="M19.599 7.467c-.71-.708-1.325-.958-2.204-1.104-.096-.958-.221-1.517-.84-2.173-.714-.755-1.35-.849-2.62-1.036A13 13 0 0 0 12 3c-.63 0-1.264.056-1.857.14-1.337.188-2.006.282-2.73 1.056-.603.646-.737 1.22-.821 2.168-.873.147-1.486.397-2.192 1.102-1 .998-1.087 1.803-1.26 3.414a25 25 0 0 0-.142 2.621c0 .943.057 1.827.142 2.622.173 1.61.26 2.415 1.26 3.414 1 .998 1.814 1.084 3.442 1.256 1.141.12 2.528.207 4.157.207s3.016-.087 4.157-.207c1.629-.172 2.443-.258 3.443-1.257s1.087-1.804 1.26-3.415c.085-.794.142-1.677.142-2.62 0-.942-.057-1.825-.142-2.62-.173-1.61-.26-2.416-1.26-3.415m-4.392 4.24a1 1 0 0 0-1.414-1.414L12 12.086l-1.793-1.793a1 1 0 0 0-1.414 1.414l1.793 1.793-1.793 1.793a1 1 0 1 0 1.414 1.414L12 14.914l1.793 1.793a1 1 0 1 0 1.414-1.414L13.414 13.5z"/></svg>