<svg xmlns="http://www.w3.org/2000/svg" viewBox="0 0 32 32"><path fill-rule="evenodd" d="M26.236 9.823c-.977-.97-1.826-1.193-3.264-1.382-.086-1.26-.22-1.985-1.105-2.924-.992-1.054-1.855-1.16-3.581-1.37A19 19 0 0 0 16.013 4c-.728 0-1.46.052-2.156.132-1.82.21-2.731.315-3.736 1.396-.857.922-1.01 1.67-1.079 2.911-1.446.19-2.297.411-3.278 1.384-1.14 1.131-1.26 2.087-1.504 3.998A32 32 0 0 0 4 17.87c0 1.415.099 2.669.24 3.736.213 1.613.32 2.42 1.442 3.54 1.124 1.12 1.985 1.233 3.708 1.456 1.696.22 3.902.397 6.61.397s4.913-.177 6.609-.397c1.724-.223 2.586-.335 3.71-1.456 1.122-1.12 1.229-1.928 1.442-3.542.14-1.067.239-2.32.239-3.735a32 32 0 0 0-.26-4.047c-.243-1.912-.364-2.868-1.504-4m-12.598 3.293a1.25 1.25 0 0 0-1.768 1.768l2.366 2.366-2.366 2.366a1.25 1.25 0 0 0 1.768 1.768l2.366-2.366 2.366 2.366a1.25 1.25 0 0 0 1.768-1.768l-2.366-2.366 2.366-2.366a1.25 1.25 0 0 0-1.768-1.768l-2.366 2.366z"/></svg>