<svg xmlns="http://www.w3.org/2000/svg" viewBox="0 0 16 16"><path d="M8.5 5a2 2 0 1 1-4 0 2 2 0 0 1 4 0m4.843 4.817c-.208-.21-.484-.402-.841-.628v3.315q0 .033-.003.065a2 2 0 1 1-1.497-2.001V8.287c0-.795.872-1.252 1.525-.846l.287.176c.57.348 1.168.714 1.594 1.143.266.269.498.59.633.985.137.399.161.826.083 1.283a.75.75 0 1 1-1.479-.254c.043-.247.021-.415-.022-.541a1.1 1.1 0 0 0-.28-.416"/><path d="M4.987 8.058A20 20 0 0 1 6.533 8a20 20 0 0 1 1.547.058c.924.072 1.386.107 1.915.66.177.186.296.357.377.534a3.25 3.25 0 0 0-2.97 4.23 21 21 0 0 1-2.415-.04c-.924-.072-1.386-.107-1.915-.66-.529-.554-.542-.978-.569-1.825a7 7 0 0 1 0-.414c.027-.847.04-1.27.569-1.824s.99-.59 1.915-.661"/></svg>