<svg xmlns="http://www.w3.org/2000/svg" viewBox="0 0 24 24"><path d="M9.5 10a3 3 0 1 0 0-6 3 3 0 0 0 0 6m-2.271 2.082C7.889 12.032 8.648 12 9.5 12s1.61.032 2.271.082c1.394.104 2.09.156 2.888.997q.098.103.181.203a5 5 0 0 0-2.962 6.628l-.107.008c-.66.05-1.419.082-2.271.082s-1.61-.032-2.271-.082c-1.394-.104-2.09-.156-2.888-.997-.797-.84-.811-1.466-.839-2.718a9 9 0 0 1 0-.406c.028-1.252.042-1.878.84-2.718s1.493-.893 2.887-.997M19.5 12.8c.634.395 1.118.72 1.476 1.08.236.239.374.455.449.672.073.212.105.486.039.873a1 1 0 0 0 1.971.34c.115-.668.079-1.288-.119-1.863-.196-.572-.53-1.037-.921-1.43-.627-.632-1.51-1.172-2.365-1.695l-.433-.267c-.899-.557-2.097.072-2.097 1.164v3.497a3 3 0 1 0 2 2.83z"/></svg>