<svg xmlns="http://www.w3.org/2000/svg" viewBox="0 0 24 24"><path fill-rule="evenodd" d="M9.5 10a3 3 0 1 0 0-6 3 3 0 0 0 0 6m0-2a1 1 0 1 0 0-2 1 1 0 0 0 0 2m11.476 5.88c-.358-.36-.842-.685-1.476-1.08V18a3 3 0 1 1-2-2.83v-3.496c0-1.092 1.198-1.721 2.097-1.164q.214.133.432.266h.001c.856.524 1.738 1.064 2.365 1.695.39.394.725.86.921 1.43.198.576.234 1.196.119 1.863a1 1 0 0 1-1.971-.339c.067-.387.034-.661-.04-.873-.074-.217-.212-.433-.448-.671M17.5 18a1 1 0 1 0-2 0 1 1 0 0 0 2 0"/><path d="M9.5 11.98c.852 0 1.61.033 2.271.082.713.053 1.243.093 1.698.232v.002a1 1 0 1 1-.607 1.906 4 4 0 0 0-.401-.072 29 29 0 0 0-2.961-.15 29 29 0 0 0-2.961.15 2.6 2.6 0 0 0-.416.074.5.5 0 0 0-.13.054c-.031.02-.096.067-.2.177a1.3 1.3 0 0 0-.185.23.3.3 0 0 0-.037.093c-.013.052-.03.146-.043.327a16 16 0 0 0-.026 1.054c.007.326.012.548.026.737.013.18.03.274.043.327.01.041.02.064.037.093a1.3 1.3 0 0 0 .184.23c.105.11.17.156.202.176a.5.5 0 0 0 .13.054c.077.023.2.05.415.075a29 29 0 0 0 2.961.15c.404 0 .499 0 .593-.005l.095-.005c.067-.003.162-.009.336-.016v.007l.054-.002a1 1 0 0 1 .064 1.999h-.012l-.035.001-.421.017c-.105.003-.21.003-.674.003-.852 0-1.61-.032-2.271-.082-1.394-.104-2.09-.156-2.888-.996-.797-.84-.811-1.467-.839-2.719a9 9 0 0 1 0-.406c.028-1.252.042-1.878.84-2.718s1.493-.893 2.887-.997c.66-.05 1.419-.082 2.271-.082"/></svg>