<svg xmlns="http://www.w3.org/2000/svg" viewBox="0 0 17 17"><path d="M2.423 3.42a.797.797 0 1 0-1.127 1.127l.565.565A7.54 7.54 0 0 0 1.062 8.5c0 1.836.654 3.519 1.74 4.83.25.3.702.298.978.022l.125-.125c.277-.277.273-.723.031-1.03A5.95 5.95 0 0 1 2.656 8.5c0-.77.145-1.505.41-2.18l1.39 1.388a4.23 4.23 0 0 0 .714 3.257c.227.319.681.316.958.04l.125-.126c.276-.276.266-.722.072-1.062a2.6 2.6 0 0 1-.201-.44l1.578 1.578v2.591a.797.797 0 1 0 1.594 0v-.998l3.155 3.155a.797.797 0 0 0 1.126-1.127zM15.936 8.5a7.53 7.53 0 0 1-1.365 4.336.81.81 0 0 1-.62.277.797.797 0 0 1-.588-1.335 5.95 5.95 0 0 0 .979-3.279 5.95 5.95 0 0 0-1.28-3.696c-.242-.307-.246-.753.03-1.03l.126-.125c.276-.277.728-.279.977.022a7.54 7.54 0 0 1 1.74 4.83m-3.686 1.729a.81.81 0 0 1-.73.453.797.797 0 0 1-.68-1.214 2.64 2.64 0 0 0-.167-2.286c-.193-.34-.204-.785.073-1.061l.125-.126c.277-.276.73-.279.958.04a4.23 4.23 0 0 1 .788 2.464c0 .616-.131 1.201-.367 1.73M9.296 8.791 7.702 7.198V6.64a.797.797 0 0 1 1.594 0z"/></svg>