<svg xmlns="http://www.w3.org/2000/svg" viewBox="0 0 32 32"><path d="M25.635 28.633a1.25 1.25 0 0 1-1.768.002l-6.617-6.61v3.722a1.25 1.25 0 1 1-2.5 0v-6.22l-4.208-4.209q-.042.336-.042.682c0 1.07.306 2.069.834 2.913.366.585.381 1.372-.107 1.86s-1.289.493-1.696-.065A7.96 7.96 0 0 1 8 16c0-.963.17-1.887.482-2.742l-1.9-1.904A10.46 10.46 0 0 0 5.5 16c0 2.45.84 4.704 2.246 6.49.427.543.434 1.33-.055 1.819-.488.488-1.284.491-1.724-.041A12.95 12.95 0 0 1 3 16c0-2.365.632-4.583 1.736-6.494l-1.37-1.373a1.25 1.25 0 0 1 1.769-1.766c6.825 6.84 13.661 13.67 20.498 20.499.489.487.49 1.279.002 1.767M14.75 13.163l2.5 2.5v-3.417a1.25 1.25 0 1 0-2.5 0zm8.528 6.16A8 8 0 0 0 24 16c0-1.76-.568-3.387-1.531-4.708-.407-.558-1.208-.553-1.696-.065s-.473 1.274-.107 1.86c.528.845.834 1.843.834 2.913a5.5 5.5 0 0 1-.515 2.326l-.001.003q-.09.219-.09.468a1.25 1.25 0 0 0 2.384.526m1.48 2.472a1.25 1.25 0 0 0 2.064 1.409h.001l.022-.033.029-.044A12.94 12.94 0 0 0 29 16c0-3.14-1.114-6.02-2.967-8.268-.44-.532-1.236-.529-1.725-.04-.488.488-.481 1.275-.054 1.818A10.46 10.46 0 0 1 26.5 16c0 2.142-.64 4.134-1.742 5.795"/></svg>