<svg xmlns="http://www.w3.org/2000/svg" viewBox="0 0 16 16"><path fill-rule="evenodd" d="M4.783 3.134A36 36 0 0 1 8 2.997c1.259 0 2.332.057 3.216.136 1.3.117 1.951.176 2.751.972s.857 1.388.97 2.572a14 14 0 0 1 0 2.64c-.113 1.185-.17 1.777-.97 2.572s-1.45.855-2.751.972A36 36 0 0 1 8 12.997c-1.26 0-2.332-.057-3.217-.136-1.3-.117-1.95-.176-2.75-.972-.8-.795-.857-1.387-.97-2.57a14 14 0 0 1 0-2.644c.113-1.183.17-1.775.97-2.57.8-.796 1.45-.855 2.75-.971M4.061 9.11A9 9 0 0 1 4 8c0-.456.027-.826.061-1.11.036-.296.053-.444.22-.614.166-.17.308-.19.59-.23a4.5 4.5 0 0 1 1.257 0c.283.04.425.06.591.23.167.17.184.318.22.614C6.973 7.174 7 7.544 7 8s-.027.826-.061 1.11c-.036.296-.053.444-.22.614-.166.17-.307.19-.59.23a4.5 4.5 0 0 1-1.258 0c-.283-.04-.424-.06-.59-.23-.167-.17-.184-.318-.22-.614M8.25 6.75A.75.75 0 0 1 9 6h2.248a.75.75 0 0 1 0 1.5H9a.75.75 0 0 1-.75-.75M9 8.5A.75.75 0 0 0 9 10h1a.75.75 0 0 0 0-1.5z"/></svg>