<svg xmlns="http://www.w3.org/2000/svg" viewBox="0 0 24 24"><path fill-rule="evenodd" d="M7.946 4.168C9.098 4.068 10.45 4 12 4s2.901.068 4.054.168c2.025.176 3.038.264 4.327 1.558s1.37 2.265 1.532 4.206a25 25 0 0 1 0 4.137c-.161 1.941-.242 2.912-1.532 4.206s-2.302 1.382-4.327 1.558c-1.152.1-2.505.168-4.054.168a47 47 0 0 1-4.056-.168c-2.024-.176-3.036-.264-4.325-1.558-1.29-1.293-1.37-2.264-1.532-4.204a25 25 0 0 1 0-4.14c.161-1.941.242-2.912 1.532-4.205S5.92 4.344 7.946 4.168M6.148 14.63A21 21 0 0 1 6 12c0-1.15.073-2.028.148-2.63.055-.434.082-.652.301-.888.22-.236.416-.276.81-.355C7.607 8.057 8.03 8 8.5 8a6.3 6.3 0 0 1 1.242.127c.393.08.59.119.81.355.219.236.246.454.3.889A21 21 0 0 1 11 12a21 21 0 0 1-.148 2.63c-.054.434-.082.651-.3.888-.22.236-.416.276-.81.355A6.3 6.3 0 0 1 8.5 16a6.3 6.3 0 0 1-1.242-.127c-.393-.08-.59-.12-.809-.355-.219-.237-.246-.454-.3-.889M13 10a1 1 0 0 1 1-1h3a1 1 0 1 1 0 2h-3a1 1 0 0 1-1-1m1 3a1 1 0 1 0 0 2h1a1 1 0 1 0 0-2z"/></svg>