<svg xmlns="http://www.w3.org/2000/svg" viewBox="0 0 24 24"><path d="M7.634 5.33c.544-.101 1.299-.17 2.435-.255.624-.046.931-.52.931-1.026 0-.746-.532-1.009-1.184-.96-1.087.08-1.968.156-2.702.31-.58.12-.903.517-.854 1.148.04.512.543.91 1.092.835.025-.003.11-.02.282-.051M5.33 7.634a8 8 0 0 0 .052-.282c.075-.549-.323-1.051-.835-1.092-.63-.05-1.027.275-1.148.854-.154.734-.23 1.615-.31 2.702-.048.652.215 1.184.96 1.184.506 0 .98-.307 1.027-.93.084-1.137.153-1.892.255-2.436m-.001 8.732c.033.171.049.257.052.282.075.549-.323 1.051-.835 1.092-.63.05-1.027-.275-1.148-.854-.154-.734-.23-1.615-.31-2.702-.048-.652.215-1.184.96-1.184.506 0 .98.307 1.027.93.084 1.137.153 1.892.255 2.436m13.287-9.014c.003.025.02.11.051.282.102.544.17 1.299.255 2.435.047.624.521.931 1.027.931.745 0 1.008-.532.96-1.184-.08-1.087-.156-1.968-.31-2.702-.12-.58-.517-.903-1.148-.854-.512.04-.91.543-.835 1.092m.051 9.015c-.032.17-.048.256-.051.28-.075.55.323 1.052.835 1.093.63.05 1.027-.275 1.149-.854.153-.734.229-1.615.31-2.702.047-.652-.215-1.184-.96-1.184-.507 0-.981.307-1.028.93-.084 1.137-.153 1.893-.255 2.437M7.634 18.67l-.282-.052c-.549-.074-1.051.323-1.092.835-.05.631.275 1.027.854 1.149.734.153 1.615.23 2.702.31.652.048 1.184-.215 1.184-.96 0-.506-.307-.98-.93-1.027-1.137-.085-1.892-.154-2.436-.256M16.366 5.33c-.544-.101-1.299-.17-2.435-.255C13.307 5.03 13 4.555 13 4.05c0-.746.532-1.009 1.184-.96 1.087.08 1.968.156 2.702.31.58.12.903.517.854 1.148-.04.512-.543.91-1.092.835-.025-.003-.11-.02-.282-.051m0 13.338a8 8 0 0 1 .282-.052c.549-.074 1.051.323 1.092.835.05.631-.275 1.027-.854 1.149-.734.153-1.615.23-2.702.31-.652.048-1.184-.215-1.184-.96 0-.506.307-.98.93-1.027 1.137-.085 1.892-.154 2.436-.256"/></svg>