<svg xmlns="http://www.w3.org/2000/svg" viewBox="0 0 16 16"><path d="M12.876 3.125c.554.554.783 1.102.91 1.875H2.214c.127-.773.356-1.321.91-1.875.875-.875 1.747-.94 3.491-1.07A19 19 0 0 1 8 2.001c.466 0 .933.02 1.385.054 1.744.13 2.616.195 3.491 1.07M2.054 6.616l.008-.116h11.876l.008.116c.033.45.054.912.054 1.375-.632-.243-1.457-.487-2.257-.487-1.002 0-2.042.382-2.695.667a6 6 0 0 0-.597.29 1.92 1.92 0 0 0-.953 1.541c-.015.214-.003.459.01.677.058 1.07.244 2.237.823 3.319a17 17 0 0 1-1.716-.051c-1.744-.13-2.616-.195-3.491-1.07s-.94-1.747-1.07-3.491A19 19 0 0 1 2 8c0-.466.02-.933.054-1.385"/><path d="M9.648 9.546C10.261 9.278 11.064 9 11.743 9c.678 0 1.481.278 2.094.546.215.093.345.153.43.204s.125.092.161.15a.4.4 0 0 1 .063.212c.007.1.002.247-.01.485-.069 1.242-.319 2.399-1.08 3.347a3.7 3.7 0 0 1-.793.713c-.329.22-.638.343-.865.343-.228 0-.537-.123-.866-.343a3.7 3.7 0 0 1-.792-.713c-.762-.948-1.012-2.105-1.08-3.347a4 4 0 0 1-.01-.485.41.41 0 0 1 .223-.362c.086-.05.216-.11.43-.204"/></svg>