<svg xmlns="http://www.w3.org/2000/svg" viewBox="0 0 24 24"><g fill-rule="evenodd" clip-rule="evenodd"><path d="M19.314 4.687c-1.313-1.312-2.62-1.41-5.237-1.604A28 28 0 0 0 12 3c-.7 0-1.399.031-2.077.082-2.616.194-3.924.292-5.237 1.604s-1.41 2.621-1.605 5.237c-.05.678-.081 1.378-.081 2.078 0 .699.03 1.398.081 2.077.195 2.616.292 3.924 1.605 5.236 1.313 1.313 2.62 1.41 5.237 1.605a31 31 0 0 0 .897.051 1 1 0 0 0 1-1c0-.552-.414-.967-1-1l-.106-.006c-.2-.01-.437-.024-.643-.04-2.75-.204-3.265-.317-3.97-1.024-.707-.706-.82-1.22-1.025-3.97A26 26 0 0 1 5 12c0-.642.028-1.291.076-1.928.03-.407.058-.755.087-1.071h13.674l.041.473a1 1 0 0 0 1.998-.108c-.174-2.251-.346-3.463-1.562-4.68M17.9 6.102c.277.277.463.535.599.9H5.501c.136-.365.322-.623.6-.9.705-.707 1.22-.82 3.97-1.025A26 26 0 0 1 12 5.001c.642 0 1.292.029 1.929.076 2.75.205 3.265.318 3.97 1.025"/><path d="M15.175 21.31c.533.367 1.189.69 1.826.69.636 0 1.292-.323 1.825-.69a6.5 6.5 0 0 0 1.373-1.278c1.292-1.658 1.676-3.649 1.779-5.59l.004-.087c.03-.524.06-1.068-.225-1.534-.283-.463-.772-.683-1.248-.897l-.054-.024c-.917-.412-2.246-.9-3.454-.9-1.21 0-2.538.488-3.455.9l-.053.024c-.477.214-.966.434-1.249.897-.284.466-.254 1.01-.225 1.534l.004.086c.104 1.942.487 3.933 1.78 5.59.328.423.825.902 1.372 1.279m3.446-2.507c-.348.446-1.003 1.124-1.62 1.197-.618-.073-1.274-.751-1.621-1.197-1.061-1.362-1.378-3.219-1.378-4.91.92-.449 1.96-.893 2.999-.893 1.037 0 2.077.444 2.998.893-.036 1.705-.302 3.529-1.378 4.91"/></g></svg>