<svg xmlns="http://www.w3.org/2000/svg" viewBox="0 0 44 44"><path d="M21.5 5.5a1.5 1.5 0 0 0-3 0V8a1.5 1.5 0 0 0 3 0zm3.195 7.669A9.96 9.96 0 0 0 20 12c-5.523 0-10 4.477-10 10s4.477 10 10 10a9.96 9.96 0 0 0 4.695-1.169C21.848 28.838 20 25.624 20 22s1.848-6.837 4.695-8.831"/><path d="M31.896 13.51c.414.018.58.527.329.857a6 6 0 0 0 6.762 9.297c.39-.138.824.176.715.575a8.5 8.5 0 1 1-7.806-10.73M3.5 20.5a1.5 1.5 0 0 0 0 3H6a1.5 1.5 0 1 0 0-3zM20 40a1.5 1.5 0 0 1-1.5-1.5V36a1.5 1.5 0 0 1 3 0v2.5A1.5 1.5 0 0 1 20 40M7.272 34.728a1.5 1.5 0 0 1 0-2.121l1.767-1.768a1.5 1.5 0 0 1 2.122 2.121l-1.768 1.768a1.5 1.5 0 0 1-2.121 0M9.393 9.272a1.5 1.5 0 1 0-2.122 2.121l1.768 1.768a1.5 1.5 0 0 0 2.122-2.121z"/></svg>