<svg xmlns="http://www.w3.org/2000/svg" viewBox="0 0 44 44"><path d="M20 4a1.5 1.5 0 0 1 1.5 1.5V8a1.5 1.5 0 0 1-3 0V5.5A1.5 1.5 0 0 1 20 4"/><path fill-rule="evenodd" d="M39.714 24.384A10 10 0 0 0 40 22c0-.456-.507-.71-.926-.53a6.5 6.5 0 0 1-8.544-8.544c.18-.419-.074-.926-.53-.926a10 10 0 0 0-2.384.286l-.063.016C23.213 13.393 20 17.322 20 22c0 5.523 4.477 10 10 10 4.679 0 8.607-3.213 9.698-7.553zm-3.387.614a9.5 9.5 0 0 1-9.325-9.325 7 7 0 1 0 9.326 9.326"/><path d="M2 22a1.5 1.5 0 0 1 1.5-1.5H6a1.5 1.5 0 0 1 0 3H3.5A1.5 1.5 0 0 1 2 22m16.5 16.5a1.5 1.5 0 0 0 3 0V36a1.5 1.5 0 0 0-3 0zM7.272 32.607a1.5 1.5 0 1 0 2.12 2.12l1.769-1.767a1.5 1.5 0 0 0-2.122-2.121zM7.271 9.272a1.5 1.5 0 0 1 2.122 0l1.768 1.768a1.5 1.5 0 0 1-2.122 2.121l-1.768-1.768a1.5 1.5 0 0 1 0-2.12m12.362 5.731a1.5 1.5 0 1 0-.346-2.979C14.097 12.391 10 16.717 10 22s4.097 9.61 9.287 9.975q.104.015.213.015a1.5 1.5 0 0 0 .133-2.994A7.005 7.005 0 0 1 13 22a7.005 7.005 0 0 1 6.633-6.996"/></svg>