<svg xmlns="http://www.w3.org/2000/svg" viewBox="0 0 17 17"><path d="M7.706 1.064c.44 0 .797.357.797.797v.53a.797.797 0 1 1-1.593 0v-.53c0-.44.356-.797.796-.797M3.836 3.24a.797.797 0 1 0-1.127 1.127l.375.376a.797.797 0 1 0 1.127-1.127zM9.6 12.427c-1.31-.864-2.168-2.301-2.168-3.928s.857-3.064 2.167-3.927a4.252 4.252 0 1 0 0 7.855"/><path d="M9.026 8.5a3.45 3.45 0 0 0 3.453 3.45A3.45 3.45 0 0 0 15.93 8.5a.054.054 0 0 0-.087-.043 2.374 2.374 0 0 1-3.324-3.322c.027-.035.003-.087-.041-.087A3.45 3.45 0 0 0 9.026 8.5m-7.698-.798a.797.797 0 0 0 0 1.594h.531a.797.797 0 1 0 0-1.594zm1.381 6.056a.797.797 0 0 1 0-1.127l.375-.376a.797.797 0 1 1 1.127 1.127l-.375.376a.797.797 0 0 1-1.127 0m5.794.852a.797.797 0 1 0-1.593 0v.53a.797.797 0 0 0 1.593 0z"/></svg>