<svg xmlns="http://www.w3.org/2000/svg" viewBox="0 0 17 17"><path d="M7.706 1.064c.44 0 .797.357.797.797v.53a.797.797 0 1 1-1.593 0v-.53c0-.44.356-.797.796-.797M3.838 3.24A.797.797 0 1 0 2.71 4.368l.375.376a.797.797 0 1 0 1.127-1.127z"/><path fill-rule="evenodd" d="M15.78 9.645a4.2 4.2 0 0 0 .156-1.146c0-.37-.483-.496-.8-.304-.238.145-.504.25-.788.304l-.006.001a2.404 2.404 0 0 1-2.838-2.65l.002-.018a2.4 2.4 0 0 1 .396-1.045c.145-.212.041-.537-.216-.537a4.3 4.3 0 0 0-1.443.25 4.251 4.251 0 0 0 1.443 8.249 4.25 4.25 0 0 0 4.087-3.083zm-2.001.49a4 4 0 0 1-3.867-3.612 2.656 2.656 0 1 0 3.867 3.612"/><path d="M8.042 5.118a.797.797 0 0 0-1.024-.764 4.253 4.253 0 0 0 0 8.29.797.797 0 1 0 .403-1.541 2.66 2.66 0 0 1 0-5.206.8.8 0 0 0 .621-.78M1.328 7.702a.797.797 0 0 0 0 1.594h.531a.797.797 0 1 0 0-1.594zm1.381 6.056a.797.797 0 0 1 0-1.127l.375-.376a.797.797 0 1 1 1.127 1.127l-.375.376a.797.797 0 0 1-1.127 0m5.794.852a.797.797 0 1 0-1.593 0v.53a.797.797 0 0 0 1.593 0z"/></svg>