<svg xmlns="http://www.w3.org/2000/svg" viewBox="0 0 24 24"><path d="M11 2a1 1 0 0 1 1 1v1a1 1 0 1 1-2 0V3a1 1 0 0 1 1-1"/><path fill-rule="evenodd" d="M22.32 13.466A6 6 0 0 0 22.5 12c0-.414-.502-.596-.868-.403a3.5 3.5 0 0 1-4.729-4.729c.193-.366.01-.868-.403-.868a6 6 0 0 0-1.466.18l-.025.007a6 6 0 1 0 7.304 7.304zM19.965 14A5.5 5.5 0 0 1 14.5 8.535 4 4 0 1 0 19.965 14"/><path d="M11.305 7.053a1 1 0 0 0-1.124-.993 5.997 5.997 0 0 0 0 11.885q.045.004.094.003h.03a1 1 0 0 0 .052-2 4.001 4.001 0 0 1 0-7.897 1 1 0 0 0 .948-.998M2 11a1 1 0 1 0 0 2h1a1 1 0 1 0 0-2zm10 9a1 1 0 1 0-2 0v1a1 1 0 1 0 2 0zM4.637 7.05l-.707-.707A1 1 0 1 1 5.344 4.93l.707.707A1 1 0 0 1 4.637 7.05m-.709 10.607a1 1 0 0 0 1.414 1.414l.707-.707a1 1 0 0 0-1.414-1.414z"/></svg>