<svg xmlns="http://www.w3.org/2000/svg" viewBox="0 0 44 44"><path fill-rule="evenodd" d="M29.126 35.721c-2.037.167-4.413.28-7.126.28s-5.088-.113-7.124-.28c-3.724-.305-5.586-.458-7.969-2.854s-2.516-4.148-2.783-7.652A42 42 0 0 1 4 22c0-1.121.046-2.198.124-3.215.267-3.503.4-5.255 2.783-7.651s4.245-2.55 7.968-2.855A87 87 0 0 1 22 8c2.713 0 5.09.112 7.127.28 3.722.305 5.583.458 7.965 2.854 2.383 2.395 2.516 4.146 2.784 7.648a42 42 0 0 1 0 6.437c-.268 3.501-.401 5.252-2.784 7.648s-4.243 2.549-7.966 2.854m-9.572-12.797V16.46h-4.096l-4 6.672v1.904h5.424V27.5h2.672v-2.464h1.648v-2.112zm-2.672-4.784v4.784h-2.864zm9.247 2.656h-.704V16.46h-2.672V27.5h2.672v-4.432h.688l3.2 4.432h3.12l-4.112-5.728 3.776-5.312h-2.864z"/></svg>