<svg xmlns="http://www.w3.org/2000/svg" viewBox="0 0 44 44"><path d="M20.998 16.525c0-1.269 1.42-1.981 2.415-1.198l1.125.887 1.73 1.368c2.362 1.866 3.543 2.8 3.704 4.022a3 3 0 0 1 0 .792c-.16 1.223-1.342 2.156-3.704 4.022l-1.73 1.368-1.125.887c-.996.783-2.415.07-2.415-1.198 0-.48.22-.932.597-1.228l1.069-.843 1.73-1.368.677-.536H14.498a1.5 1.5 0 0 1 0-3h10.573l-.677-.536-1.73-1.368-1.069-.843a1.56 1.56 0 0 1-.597-1.228"/><path fill-rule="evenodd" d="M3.998 23.698q.01.239.018.484c.011.356.023.715.048 1.043.268 3.5.46 5.249 2.842 7.643s4.243 2.547 7.965 2.853c2.037.167 4.414.279 7.127.279s5.088-.112 7.125-.279c3.724-.305 5.586-.458 7.968-2.853s2.516-4.146 2.783-7.647a42 42 0 0 0 0-6.427c-.267-3.501-.4-5.252-2.783-7.647s-4.245-2.548-7.969-2.853a87 87 0 0 0-7.124-.279 3.08 3.08 0 0 1-2.182-.895l-.493-.492c-.496-.496-.744-.743-1.004-.96a7.26 7.26 0 0 0-3.955-1.637C14.027 4 13.677 4 12.975 4c-1.6 0-2.4 0-3.067.126a7.25 7.25 0 0 0-5.784 5.78c-.126.667-.126 1.467-.126 3.066zm3.017.233-.017-.46V12.973c0-1.736.013-2.188.074-2.51a4.25 4.25 0 0 1 3.392-3.39c.322-.06.774-.074 2.511-.074.758 0 .945.003 1.11.019.852.08 1.66.414 2.32.96.127.106.262.236.797.771l.492.492a6.08 6.08 0 0 0 4.304 1.774c2.63 0 4.923.108 6.879.268 1.963.161 3 .26 3.855.522.69.211 1.336.557 2.232 1.457.918.923 1.252 1.555 1.447 2.183.243.785.33 1.726.472 3.578.072.947.115 1.947.115 2.986a39 39 0 0 1-.115 2.985c-.141 1.852-.229 2.793-.473 3.578-.194.628-.528 1.26-1.446 2.183-.896.9-1.542 1.246-2.232 1.457-.854.261-1.892.36-3.855.522-1.955.16-4.25.269-6.879.269a84 84 0 0 1-6.881-.27c-1.962-.16-3-.26-3.853-.521-.69-.211-1.335-.556-2.23-1.457-.919-.923-1.253-1.554-1.448-2.182-.243-.785-.38-1.725-.522-3.576-.023-.31-.037-.7-.05-1.065"/></svg>