<svg xmlns="http://www.w3.org/2000/svg" viewBox="0 0 44 44"><path fill-rule="evenodd" d="M4.016 24.182q-.008-.245-.018-.484V12.972c0-1.6 0-2.4.126-3.065a7.25 7.25 0 0 1 5.784-5.781C10.575 4 11.375 4 12.975 4c.702 0 1.052 0 1.39.031a7.26 7.26 0 0 1 3.954 1.638c.26.216.508.463 1.004.959l.493.492a3.08 3.08 0 0 0 2.182.895c2.712 0 5.088.112 7.124.279 3.724.305 5.587.458 7.969 2.853s2.516 4.146 2.783 7.647a42 42 0 0 1 0 6.427c-.267 3.502-.4 5.252-2.783 7.647s-4.244 2.548-7.968 2.853a87 87 0 0 1-7.125.279c-2.713 0-5.09-.112-7.127-.28-3.722-.304-5.583-.457-7.965-2.852s-2.574-4.144-2.842-7.643a24 24 0 0 1-.048-1.043m16.982-7.657c0-1.269 1.42-1.981 2.415-1.198l1.125.887 1.73 1.368c2.362 1.866 3.543 2.8 3.704 4.022a3 3 0 0 1 0 .792c-.16 1.223-1.342 2.156-3.704 4.022l-1.73 1.368-1.125.887c-.996.783-2.415.07-2.415-1.198 0-.48.22-.932.597-1.228l1.069-.843 1.73-1.368.677-.536H14.498a1.5 1.5 0 0 1 0-3h10.573l-.677-.536-1.73-1.368-1.069-.843a1.56 1.56 0 0 1-.597-1.228"/></svg>