<svg xmlns="http://www.w3.org/2000/svg" viewBox="0 0 24 24"><path d="m11.5 8.959.002-.03c.044-.737.941-1.182 1.554-.772.018.012.005.001.001-.002h-.001l.004.002.87.666.792.61c1.356 1.042 2.034 1.563 2.16 2.242.04.216.04.438 0 .654-.126.68-.804 1.2-2.16 2.242l-.793.61q-.467.36-.87.666l-.003.002h.001c.004-.004.017-.014 0-.002-.614.41-1.51-.035-1.555-.771l-.002-.03v-.055a1 1 0 0 1 .42-.791q.358-.272.79-.605l.775-.595H8a1 1 0 1 1 0-2h5.48l-.77-.59-.835-.641a1 1 0 0 1-.374-.756z"/><path fill-rule="evenodd" d="M2 12.203v.666c.013.334.042.675.07.996l.017.203c.162 1.941.242 2.912 1.532 4.206s2.302 1.382 4.327 1.558C9.1 19.932 10.451 20 12 20s2.903-.068 4.056-.168c2.024-.176 3.036-.264 4.325-1.558 1.29-1.293 1.37-2.264 1.532-4.204a25 25 0 0 0 0-4.14c-.161-1.941-.242-2.912-1.532-4.205-1.289-1.294-2.301-1.382-4.325-1.558A47 47 0 0 0 11.8 4a1.9 1.9 0 0 1-1.35-.55 9 9 0 0 0-.553-.53 4 4 0 0 0-2.18-.903C7.53 2 7.336 2 6.95 2c-.883 0-1.324 0-1.692.07A4 4 0 0 0 2.07 5.257C2 5.626 2 6.068 2 6.95zm2 .44c.014.373.051.91.08 1.259.086 1.037.137 1.523.26 1.917.09.288.238.584.696 1.043.447.45.747.603 1.06.7.42.129.944.184 2.023.277 1.096.096 2.39.16 3.881.16 1.492 0 2.787-.065 3.883-.16 1.078-.093 1.601-.148 2.022-.278.312-.096.612-.25 1.06-.698.458-.46.606-.755.696-1.044.123-.393.173-.879.26-1.916a23 23 0 0 0 0-3.808c-.087-1.037-.137-1.522-.26-1.915-.09-.289-.238-.584-.696-1.044-.448-.449-.748-.602-1.06-.698-.42-.13-.944-.185-2.022-.278A45 45 0 0 0 11.808 6a3.9 3.9 0 0 1-2.772-1.136c-.3-.3-.36-.358-.416-.404a2 2 0 0 0-1.09-.451A7 7 0 0 0 6.95 4c-.973 0-1.182.009-1.32.035a2 2 0 0 0-1.594 1.594C4.01 5.767 4 5.976 4 6.95z"/></svg>