<svg xmlns="http://www.w3.org/2000/svg" viewBox="0 0 32 32"><path fill-rule="evenodd" d="M26.9 8.272c1.739 1.75 1.832 3.015 2.017 5.546a30 30 0 0 1 0 4.364c-.186 2.53-.278 3.796-2.016 5.546s-3.094 1.859-5.805 2.076c-1.46.118-3.16.196-5.098.196s-3.639-.078-5.1-.196c-2.71-.217-4.065-.326-5.802-2.076-1.738-1.75-1.831-3.014-2.017-5.544a31 31 0 0 1-.081-2.238V9.6c0-1.177 0-1.765.093-2.255a5.33 5.33 0 0 1 4.252-4.253C7.833 3 8.42 3 9.598 3c.515 0 .773 0 1.02.023 1.069.1 2.082.52 2.908 1.204.191.16.374.341.738.706l.601.6c.3.301.709.467 1.133.467 1.937 0 3.637.078 5.098.195 2.711.218 4.067.327 5.805 2.077m-11.398 3.985c0-1.046 1.167-1.633 1.992-.988l.674.528v.001l.962.754c1.82 1.43 2.694 2.143 2.84 3.075a2.4 2.4 0 0 1 0 .746c-.146.931-1.02 1.646-2.84 3.075l-.962.754-.674.529c-.825.644-1.992.058-1.992-.988 0-.396.183-.77.496-1.015l.627-.492.96-.754q.16-.123.29-.229H10.75a1.25 1.25 0 1 1 0-2.498h7.135q-.135-.11-.3-.237l-.96-.754-.627-.492a1.29 1.29 0 0 1-.496-1.015"/></svg>