<svg xmlns="http://www.w3.org/2000/svg" viewBox="0 0 16 16"><path d="M9.5 1.492V4h3.149c.297.3.313.62.344 1.232a5 5 0 0 1 0 .536c-.03.613-.047.932-.344 1.232H9.5v3.38q.49.143.859.26c.53.165.796.248.984.46.189.211.158.369.097.683a2 2 0 0 1-.069.259c-.104.302-.157.454-.426.543s-.54.028-1.082-.094l-.363-.083v2.1c-.3.417-.62.44-1.232.482a4 4 0 0 1-.536 0c-.613-.043-.932-.065-1.232-.482V11.62a48 48 0 0 1-.86-.259c-.53-.165-.795-.248-.984-.46s-.158-.37-.097-.683a2 2 0 0 1 .07-.26c.104-.302.156-.453.425-.543.27-.089.54-.028 1.083.094l.363.083v-2.59H3.351c-.297-.301-.313-.62-.344-1.233a5 5 0 0 1 0-.536c.03-.613.047-.932.344-1.232H6.5V1.492c.3-.417.62-.44 1.232-.482a4 4 0 0 1 .536 0c.613.043.932.065 1.232.482"/></svg>