<svg xmlns="http://www.w3.org/2000/svg" viewBox="0 0 32 32"><path d="M13.5 18.329V13.5H7.473c-.383-.436-.411-.933-.46-1.8a8 8 0 0 1 0-.854c.05-.898.079-1.4.502-1.846H13.5V3.435c.483-.32 1.066-.358 1.964-.417a8 8 0 0 1 1.072 0c.898.058 1.48.096 1.964.417V9h5.985c.423.447.452.948.503 1.846a8 8 0 0 1 0 .853c-.05.868-.078 1.365-.461 1.801H18.5v6.129q.743.222 1.304.405c.829.27 1.243.404 1.52.801.279.397.213.71.082 1.336a5 5 0 0 1-.139.518c-.2.608-.299.912-.738 1.117-.44.205-.866.115-1.718-.067l-.311-.067v4.893c-.483.32-1.066.358-1.964.417a8 8 0 0 1-1.073 0c-.897-.059-1.48-.096-1.963-.417v-6.193q-.743-.223-1.304-.405c-.829-.27-1.243-.404-1.52-.801-.279-.398-.213-.71-.082-1.336a5 5 0 0 1 .139-.519c.2-.607.3-.911.738-1.116.44-.206.865-.115 1.717.067q.15.03.312.067"/></svg>