<svg xmlns="http://www.w3.org/2000/svg" viewBox="0 0 44 44"><path fill-rule="evenodd" d="m26.297 33.625-.01.256c-.043 1.142-.089 2.029-.198 2.764-.115.777-.301 1.386-.629 1.95-.702 1.207-1.42 1.265-2.857 1.38a7.6 7.6 0 0 1-1.207 0c-1.437-.115-2.155-.173-2.857-1.38-.701-1.207-.752-2.623-.854-5.453a255 255 0 0 1-.057-1.736 75 75 0 0 1-1.951-.63c-1.331-.45-1.997-.675-2.413-1.432-.416-.758-.278-1.382-.003-2.63a12 12 0 0 1 .278-1.037c.275-.87.452-1.428.8-1.84a2 2 0 0 1 .618-.493c.662-.356 1.371-.242 2.545-.01a380 380 0 0 1 0-2.388 146 146 0 0 1-3.548-.13l-.569-.03c-1.673-.089-2.583-.192-3.37-.826-.872-.701-.914-1.42-.997-2.856a10 10 0 0 1 0-1.208c.083-1.436.125-2.155.997-2.856s1.894-.753 3.938-.855c1.045-.052 2.277-.1 3.692-.134l.04-1.192c.102-2.831.153-4.247.855-5.454.701-1.207 1.42-1.265 2.856-1.38a7.6 7.6 0 0 1 1.207 0c1.437.115 2.155.173 2.857 1.38s.753 2.623.855 5.454l.04 1.192c1.414.034 2.646.082 3.692.134 2.044.102 3.066.153 3.938.855s.914 1.42.997 2.857a10 10 0 0 1 0 1.206c-.083 1.437-.125 2.156-.997 2.857s-1.894.753-3.939.855c-1.01.05-2.193.097-3.548.13q.008 2.342-.016 4.683 1.036.322 1.84.596c1.332.45 1.997.675 2.413 1.433.417.757.279 1.381.004 2.63a12 12 0 0 1-.278 1.035c-.386 1.22-.578 1.829-1.318 2.277a2 2 0 0 1-.233.122c-.659.295-1.34.159-2.573-.088zM23.49 18.02l2.933-.073a140 140 0 0 0 3.474-.128c1.098-.055 1.659-.092 2.042-.162.034-.383.061-.771.061-1.157s-.027-.773-.061-1.157c-.383-.07-.944-.107-2.042-.162-1.02-.05-2.226-.098-3.615-.131l-2.837-.069-.089-2.837-.04-1.177c-.099-2.768-.188-3.49-.37-3.9A9 9 0 0 0 22 7c-.316 0-.632.033-.946.066-.182.412-.271 1.133-.371 3.9l-.04 1.178-.088 2.838-2.838.068c-1.389.033-2.595.08-3.614.131-1.098.055-1.659.092-2.041.162-.035.384-.062.771-.062 1.157 0 .387.036.772.062 1.157.382.07.943.107 2.04.162.986.049 2.145.095 3.474.128l2.933.073q-.011 4.486.006 8.974l-1.277-.257c-.905-.183-1.81-.366-2.717-.537l-.014.044c-.066.202-.154.475-.221.725-.067.248-.12.498-.174.75l-.007.034c.796.279 1.6.538 2.406.786l2.054.632.062 2.148q.027.912.056 1.715c.1 2.767.189 3.488.371 3.9.314.033.63.066.946.066s.632-.033.945-.066c.162-.372.267-1.047.354-3.42l.13-3.524 4.05.81.01-.033c.08-.244.159-.488.225-.736.066-.247.12-.498.173-.75l.008-.033a65 65 0 0 0-2.3-.754l-2.136-.66c.033-3.272.04-6.543.03-9.814"/></svg>