<svg xmlns="http://www.w3.org/2000/svg" viewBox="0 0 24 24"><path d="M10 14.46V11H5.302c-.236-.388-.257-.845-.292-1.598a9 9 0 0 1 0-.804c.035-.753.056-1.21.292-1.598H10V2.43c.388-.335.845-.366 1.598-.416a6 6 0 0 1 .804 0c.753.05 1.21.08 1.598.417V7h4.698c.236.388.257.845.292 1.598a9 9 0 0 1 0 .804c-.035.753-.056 1.21-.292 1.598H14v4.504q.619.183 1.086.334c.681.218 1.022.326 1.255.631.234.305.186.54.09 1.01a3 3 0 0 1-.104.389c-.152.455-.228.682-.583.83-.354.147-.704.07-1.402-.081L14 18.54v3.028c-.388.336-.845.367-1.598.417a6 6 0 0 1-.804 0c-.753-.05-1.21-.08-1.598-.417v-4.073a52 52 0 0 1-1.087-.334c-.68-.218-1.021-.326-1.255-.631s-.186-.54-.09-1.01a3 3 0 0 1 .104-.389c.152-.455.228-.682.583-.83s.704-.07 1.402.081z"/></svg>