<svg xmlns="http://www.w3.org/2000/svg" viewBox="0 0 16 16"><path d="M9.56 10.472c1.157 0 1.853-.442 1.99-1.567h-1.12c-.09.546-.396.702-.87.702-.611 0-.943-.292-.943-1.137v-.663c0-.852.351-1.125.942-1.125.495 0 .8.17.865.702h1.118c-.13-1.137-.812-1.566-1.982-1.566-1.326 0-2.061.663-2.061 2.314 0 1.696.735 2.34 2.06 2.34M4.479 7.69l.923-.754v3.451h1.085V5.902H5.402l-.923.728z"/><path fill-rule="evenodd" d="M3.124 3.125c-.875.875-.94 1.747-1.07 3.491C2.02 7.068 2 7.535 2 8.001s.02.933.054 1.385c.13 1.744.195 2.616 1.07 3.491s1.747.94 3.491 1.07C7.067 13.98 7.534 14 8 14s.933-.02 1.385-.054c1.744-.13 2.616-.195 3.491-1.07s.94-1.747 1.07-3.491C13.98 8.934 14 8.467 14 8s-.02-.933-.054-1.385c-.13-1.744-.195-2.616-1.07-3.491s-1.747-.94-3.491-1.07A19 19 0 0 0 8 2.001c-.466 0-.933.02-1.385.054-1.744.13-2.616.195-3.491 1.07M8 3.501c-.423 0-.852.019-1.273.05-1.845.137-2.122.214-2.542.635-.42.42-.498.697-.635 2.542-.031.42-.05.85-.05 1.273s.019.852.05 1.273c.137 1.845.214 2.122.635 2.542.42.42.697.498 2.542.635.42.031.85.05 1.273.05s.852-.019 1.273-.05c1.845-.137 2.122-.214 2.542-.635.42-.42.498-.697.635-2.542.032-.42.05-.85.05-1.273s-.018-.852-.05-1.273c-.137-1.845-.214-2.122-.635-2.542-.42-.42-.697-.498-2.542-.635-.42-.031-.85-.05-1.273-.05"/></svg>