<svg xmlns="http://www.w3.org/2000/svg" viewBox="0 0 24 24"><g fill-rule="evenodd" clip-rule="evenodd"><path d="m7.345 11.593-.17-.099c-.844-.489-1.552-.902-2.125-1.276"/><path d="M13.874 2.797C12.957 2.266 12.5 2 12 2s-.958.266-1.875.797L7.307 4.429C5.024 5.75 4.042 6.352 3.5 7.4c-.222.429-.29.835-.337 1.31a33 33 0 0 0 .006 6.64c.043.427.098.798.286 1.189.532 1.106 1.505 1.67 3.87 3.041l2.801 1.624c.916.53 1.375.795 1.874.795s.957-.265 1.873-.796l2.8-1.623c2.365-1.37 3.339-1.935 3.871-3.041.188-.39.242-.762.286-1.19a33 33 0 0 0 .006-6.64c-.047-.474-.114-.88-.336-1.31-.542-1.049-1.524-1.648-3.809-2.972zm-1.002 1.73 2.78 1.61c1.437.833 2.166 1.262 2.633 1.645.112.092.2.173.272.255l-.07.058c-.419.335-1.036.717-1.962 1.26L9.712 5.347l1.415-.82c.234-.135.417-.241.576-.33.13-.07.224-.12.296-.155a6 6 0 0 1 .296.155c.16.089.343.195.577.33M5.715 7.782c.394-.324.975-.68 2.01-1.283l6.814 4.008-1.667.966c-.234.135-.417.241-.577.33-.129.071-.223.12-.296.155a6 6 0 0 1-.296-.155c-.16-.089-.342-.195-.576-.33l-2.78-1.61c-1.429-.829-2.296-1.337-2.834-1.768l-.07-.058c.072-.082.16-.163.272-.255m-.513 7.765a31 31 0 0 1-.152-5.33c.573.375 1.28.788 2.124 1.277l.17.099 2.78 1.61.065.038c.32.185.582.336.81.454v5.704l-2.645-1.533c-1.437-.833-2.166-1.262-2.633-1.646-.282-.232-.411-.398-.52-.673M13 19.4l-.001-5.705c.243-.125.526-.289.875-.49l2.78-1.611c.919-.533 1.684-.976 2.295-1.375a31.3 31.3 0 0 1-.152 5.33c-.108.274-.237.44-.52.672-.466.384-1.196.813-2.632 1.646z"/></g></svg>