<svg xmlns="http://www.w3.org/2000/svg" viewBox="0 0 32 32"><path fill-rule="evenodd" d="M13.868 18.135c.67.67.955 1.565 1.086 1.909l2.049 5.375 5.699-12.348c1.307-2.833 2.169-4.714 2.578-6.054a8 8 0 0 0 .116-.413q-.178.044-.413.115c-1.34.41-3.22 1.272-6.053 2.58l-12.35 5.7 5.38 2.05c.343.131 1.24.417 1.908 1.086m-2.797 1.25c.551.21.827.316 1.03.518.201.202.306.478.516 1.03l2.021 5.312c.842 2.21 3.638 2.382 4.63.234l5.704-12.36c2.546-5.517 3.819-8.275 2.502-9.593s-4.076-.044-9.592 2.502l-12.36 5.705c-2.15.992-1.978 3.789.234 4.63z"/></svg>