<svg xmlns="http://www.w3.org/2000/svg" viewBox="0 0 24 24"><path fill-rule="evenodd" d="M12 21a9 9 0 1 0 0-18 9 9 0 0 0 0 18m3.743-5.684A5 5 0 0 1 13 16.9v-2.07c.351-.125.672-.312.95-.55zM17 12c0 .554-.09 1.086-.256 1.584L14.95 12.55a3 3 0 0 0 0-1.098l1.794-1.035c.166.498.256 1.03.256 1.584m-4-4.9a5 5 0 0 1 2.743 1.585L13.95 9.72a3 3 0 0 0-.95-.55zM8.257 8.684A5 5 0 0 1 11 7.1v2.07a3 3 0 0 0-.95.55zM7 12c0-.554.09-1.086.256-1.584L9.05 11.45a3 3 0 0 0 0 1.098l-1.794 1.035A5 5 0 0 1 7 12m4 4.9a5 5 0 0 1-2.743-1.584l1.794-1.036c.277.238.598.425.95.55zm1-3.65a1.25 1.25 0 1 0 0-2.5 1.25 1.25 0 0 0 0 2.5"/></svg>