<svg xmlns="http://www.w3.org/2000/svg" viewBox="0 0 44 44"><path fill-rule="evenodd" d="M22 38c8.837 0 16-7.163 16-16S30.837 6 22 6 6 13.163 6 22s7.163 16 16 16m6.935-10.264a9 9 0 0 1-5.435 3.14V27.81a6 6 0 0 0 2.78-1.607zM31 22a9 9 0 0 1-.563 3.14l-2.655-1.534a6 6 0 0 0 0-3.213l2.655-1.533A9 9 0 0 1 31 22m-7.5-8.875a9 9 0 0 1 5.435 3.139l-2.654 1.532A6 6 0 0 0 23.5 16.19zm-8.435 3.139a9 9 0 0 1 5.435-3.14v3.065a6 6 0 0 0-2.782 1.607zM13 22c0-1.104.198-2.162.562-3.139l2.654 1.532A6 6 0 0 0 15.999 22c0 .556.076 1.095.218 1.607l-2.654 1.532A9 9 0 0 1 13.001 22m7.499 8.875a9 9 0 0 1-5.435-3.14l2.653-1.531A6 6 0 0 0 20.5 27.81zM22 24a2 2 0 1 0 0-4 2 2 0 0 0 0 4"/></svg>