<svg xmlns="http://www.w3.org/2000/svg" viewBox="0 0 32 32"><path d="M14.75 20.326v2.563a7 7 0 0 1-4.09-2.363l2.22-1.281c.52.5 1.158.875 1.87 1.08m-3.121-3.245-2.22 1.282A7 7 0 0 1 9 16c0-.829.144-1.624.409-2.362l2.22 1.282a4.5 4.5 0 0 0 0 2.16m1.251-4.325-2.22-1.281a7 7 0 0 1 4.09-2.363v2.563a4.5 4.5 0 0 0-1.87 1.081m8.46 7.771a7 7 0 0 1-4.09 2.363v-2.563a4.5 4.5 0 0 0 1.87-1.081zM23 16c0 .829-.144 1.624-.409 2.362l-2.22-1.282a4.5 4.5 0 0 0 0-2.16l2.22-1.282c.265.738.409 1.533.409 2.362m-5.75-6.889a7 7 0 0 1 4.09 2.363l-2.22 1.281a4.5 4.5 0 0 0-1.87-1.08zM16 17.75a1.75 1.75 0 1 0 0-3.5 1.75 1.75 0 0 0 0 3.5"/><path fill-rule="evenodd" d="M28 16c0 6.627-5.373 12-12 12S4 22.627 4 16 9.373 4 16 4s12 5.373 12 12m-3 0a9 9 0 1 1-18 0 9 9 0 0 1 18 0"/></svg>