<svg xmlns="http://www.w3.org/2000/svg" viewBox="0 0 24 24"><path fill-rule="evenodd" d="M5.96 3.276C7.407 3.131 9.423 3 12 3c2.575 0 4.592.13 6.039.276 1.312.132 1.618.189 2.08.62.279.258.392.443.467.636.094.239.149.53.246 1.094.1.573.167 1.215.167 1.9q-.002.584-.059 1.13c-.078.766-.127 1.201-.234 1.547a1.5 1.5 0 0 1-.367.63 3.06 3.06 0 0 0-1.388-.333c-.89 0-1.677.386-2.213 1H6.87c-2.031 0-2.54-.05-3.056-.516-.301-.272-.432-.497-.521-.781-.108-.345-.157-.78-.235-1.546A11 11 0 0 1 3 7.527c0-.687.068-1.33.167-1.903.098-.564.152-.854.246-1.092.076-.193.189-.378.467-.637.462-.43.768-.487 2.08-.619M8.75 7.5a1.25 1.25 0 1 1-2.5 0 1.25 1.25 0 0 1 2.5 0M16 13.494a3.1 3.1 0 0 1 .162-.994H6.871c-2.031 0-2.54.05-3.056.516-.301.272-.432.497-.521.781-.108.345-.157.78-.235 1.546q-.057.546-.059 1.13c0 .687.068 1.33.167 1.903.098.564.152.854.246 1.092.076.193.189.378.467.637.462.43.768.486 2.08.619C7.407 20.869 9.423 21 12 21c1.382 0 2.603-.038 3.661-.095l-1.283-1.283A3 3 0 0 1 16 14.542zM8.75 16.5a1.25 1.25 0 1 1-2.5 0 1.25 1.25 0 0 1 2.5 0"/><path d="M21.49 16.525c.898 0 1.347 1.077.713 1.707L20.423 20c-.671.667-1.006 1-1.423 1s-.753-.333-1.424-1l-1.78-1.768c-.634-.63-.185-1.707.712-1.707.267 0 .523.106.712.293l.356.354q.171.168.321.309l.103.097.003-4.079a.998.998 0 1 1 1.997.002l-.004 4.083.03-.028c.118-.113.253-.24.397-.384l.356-.354a1 1 0 0 1 .712-.293"/></svg>