<svg xmlns="http://www.w3.org/2000/svg" viewBox="0 0 16 16"><path d="M2.525 8c-.38-.475-.424-1.029-.5-2.003a7.5 7.5 0 0 1 .057-1.718c.104-.703.156-1.055.657-1.53.5-.475.925-.516 1.776-.597C5.385 2.07 6.548 2 8 2s2.616.07 3.485.152c.85.081 1.276.122 1.776.597.501.475.553.827.657 1.531a7.5 7.5 0 0 1 .057 1.716l-.012.141-.01.113a.753.753 0 0 1-1.503 0l.03-.37q.02-.256.02-.503c0-.31-.026-.605-.066-.878a9 9 0 0 0-.064-.4 1 1 0 0 0-.042-.154 1 1 0 0 0-.1-.108.5.5 0 0 0-.09-.074.2.2 0 0 0-.05-.02 2 2 0 0 0-.238-.044 14 14 0 0 0-.507-.053A36 36 0 0 0 8 3.5c-1.404 0-2.52.067-3.343.146-.221.02-.375.036-.507.053a2 2 0 0 0-.237.045.2.2 0 0 0-.05.019.5.5 0 0 0-.091.074 1 1 0 0 0-.106.12 1 1 0 0 0-.036.142 9 9 0 0 0-.064.4A6 6 0 0 0 3.52 5.88c.023.29.04.507.062.693.021.184.042.296.062.37a.4.4 0 0 0 .037.1.4.4 0 0 0 .07.078l.004.004c.019.019.051.05.241.08.183.03.413.041.756.046q.306-.004.671-.003H9.75a.752.752 0 0 1 0 1.502l-4.327.004q-.365 0-.67-.003a6 6 0 0 0-.757.045c-.19.03-.222.062-.241.08l-.005.005a.4.4 0 0 0-.07.079.4.4 0 0 0-.036.099c-.02.074-.041.186-.062.37-.022.186-.039.402-.062.692q-.02.257-.02.503c0 .31.026.606.066.878.027.185.045.302.064.4a1 1 0 0 0 .042.154.7.7 0 0 0 .1.108c.054.052.083.07.09.074s.017.01.05.019c.04.012.11.027.238.044.132.018.286.033.506.054a36 36 0 0 0 3.59.146q.258.003.504-.001a.75.75 0 1 1-.081 1.496Q8.345 14 8 14a37 37 0 0 1-3.486-.153c-.85-.08-1.275-.121-1.775-.596s-.553-.827-.657-1.53a7.5 7.5 0 0 1-.057-1.717c.076-.975.119-1.529.5-2.004"/><path d="M6.233 5.333a.9.9 0 1 1-1.8 0 .9.9 0 0 1 1.8 0m-.9 6.234a.9.9 0 1 0 0-1.8.9.9 0 0 0 0 1.8M11.5 8.25l.003 3.211q-.152-.147-.345-.342l-.398-.401a.73.73 0 0 0-.521-.218c-.657 0-.986.8-.522 1.27l1.49 1.501c.467.471.701.707.989.727a1 1 0 0 0 .108 0c.288-.02.522-.256.989-.727l1.49-1.502c.464-.468.135-1.269-.522-1.269a.73.73 0 0 0-.521.218l-.398.4q-.19.194-.34.338L13 8.249a.75.75 0 1 0-1.5.002"/></svg>