<svg xmlns="http://www.w3.org/2000/svg" viewBox="0 0 24 24"><path fill-rule="evenodd" d="M12 21q.517 0 1.05-.029c1.975-.101 2.962-.152 4.037-.802.676-.409 1.446-1.22 1.82-1.916.593-1.107.593-2.322.593-4.753 1.254-.18 1.88-.269 2.176-.627.164-.198.261-.451.274-.707.021-.464-.378-.947-1.177-1.911A142 142 0 0 0 18 7a109 109 0 0 1-.978-1.13C15.212 3.76 13.703 2 12 2S8.79 3.76 6.978 5.87Q6.505 6.425 6 7a142 142 0 0 0-2.773 3.255c-.799.964-1.198 1.447-1.176 1.91.012.257.11.51.273.708.296.358.922.448 2.176.627 0 2.43 0 3.646.594 4.753.373.696 1.143 1.507 1.819 1.916 1.075.65 2.062.7 4.037.802Q11.483 21 12 21m1.514-16.023C12.616 4.115 12.177 4 12 4s-.616.115-1.514.977c-.607.583-1.204 1.28-1.915 2.109-.328.383-.681.795-1.07 1.236a140 140 0 0 0-2.724 3.197l.006.001c.819.117 1.228.175 1.473.457.244.282.244.696.244 1.523 0 2.622.053 3.243.356 3.808.204.38.723.926 1.092 1.15.567.342 1.014.408 3.105.516Q11.542 19 12 19q.459 0 .947-.026c2.091-.108 2.538-.174 3.105-.517.369-.223.888-.77 1.092-1.149.303-.565.356-1.186.356-3.808 0-.827 0-1.24.245-1.523.244-.282.653-.34 1.472-.457h.007A140 140 0 0 0 16.5 8.321c-.39-.441-.742-.853-1.07-1.236-.711-.829-1.309-1.526-1.916-2.109"/></svg>