<svg xmlns="http://www.w3.org/2000/svg" viewBox="0 0 44 44"><path fill-rule="evenodd" d="M22.009 39c2.247-.002 4.694-.271 6.85-.601 3.605-.552 6.085-3.751 6.085-7.399v-6.316c2.38-.373 3.569-.56 4.195-1.199a2.77 2.77 0 0 0 .751-2.217c-.108-.888-.915-1.734-2.528-3.426a143 143 0 0 0-.81-.842 113 113 0 0 0-4.062-4 270 270 0 0 1-1.5-1.516C27.617 8.057 24.623 5.014 22.009 5h-.02c-2.614.014-5.608 3.057-8.98 6.484-.492.5-.992 1.008-1.5 1.516-1.417 1.32-2.8 2.696-4.064 4l-.809.842c-1.613 1.692-2.42 2.538-2.528 3.426a2.77 2.77 0 0 0 .752 2.217c.626.64 1.815.826 4.194 1.2V31c0 3.648 2.48 6.847 6.086 7.399 2.155.33 4.602.6 6.85.601"/></svg>