<svg xmlns="http://www.w3.org/2000/svg" viewBox="0 0 44 44"><path fill-rule="evenodd" d="m13.554 15.195.038-.036.038-.038q.836-.838 1.598-1.614c1.413-1.436 2.657-2.7 3.858-3.73 1.643-1.407 2.404-1.775 2.913-1.776.51-.001 1.27.369 2.914 1.777 1.2 1.029 2.445 2.293 3.857 3.729.51.517 1.04 1.056 1.599 1.614l.037.038.038.035a110 110 0 0 1 3.954 3.894q.405.417.792.824c.63.66 1.057 1.111 1.36 1.459-.474.097-1.12.2-2.07.35-.639.1-.958.15-1.218.264a2.2 2.2 0 0 0-1.245 1.455c-.073.275-.073.598-.073 1.244V31c0 2.325-1.55 4.13-3.54 4.434-2.083.319-4.368.565-6.405.566-2.037 0-4.321-.248-6.405-.566-1.99-.305-3.54-2.109-3.54-4.434v-6.316c0-.646 0-.969-.072-1.244a2.2 2.2 0 0 0-1.245-1.455c-.26-.114-.58-.164-1.218-.264a51 51 0 0 1-2.07-.35c.302-.348.73-.799 1.359-1.46q.387-.405.792-.823a110 110 0 0 1 3.954-3.894M22.009 39c2.247-.002 4.694-.271 6.85-.601 3.605-.552 6.085-3.751 6.085-7.399v-6.316c2.38-.373 3.569-.56 4.195-1.199a2.77 2.77 0 0 0 .751-2.217c-.108-.888-.915-1.734-2.528-3.426a143 143 0 0 0-.81-.842 113 113 0 0 0-4.062-4 270 270 0 0 1-1.5-1.516C27.617 8.057 24.623 5.014 22.009 5h-.02c-2.614.014-5.608 3.057-8.98 6.484-.492.5-.992 1.008-1.5 1.516-1.417 1.32-2.8 2.696-4.064 4l-.809.842c-1.613 1.692-2.42 2.538-2.528 3.426a2.77 2.77 0 0 0 .752 2.217c.626.64 1.815.826 4.194 1.2V31c0 3.648 2.48 6.847 6.086 7.399 2.155.33 4.602.6 6.85.601"/></svg>