<svg xmlns="http://www.w3.org/2000/svg" viewBox="0 0 28 28"><path fill-rule="evenodd" d="M7.301 23.274c1.738 1.703 3.342 1.71 6.55 1.726h.298c3.209-.016 4.813-.023 6.55-1.726l.107-.107C22.5 21.42 22.5 19.386 22.5 15.316c2.184-.357 3.276-.535 3.544-1.286l.01-.03c.25-.757-.506-1.57-2.017-3.197A400 400 0 0 1 21 7.5C18.241 4.46 16 2 14 2S9.758 4.46 7 7.5a382 382 0 0 1-3.036 3.303c-1.51 1.626-2.265 2.44-2.017 3.196l.011.033c.268.75 1.36.928 3.542 1.284 0 4.07 0 6.105 1.694 7.85.028.03.079.08.107.108"/></svg>