<svg xmlns="http://www.w3.org/2000/svg" viewBox="0 0 44 44"><path fill-rule="evenodd" d="M9.04 9.04c-2.428 2.429-2.592 4.82-2.92 9.6A49 49 0 0 0 6 22c0 1.13.045 2.26.12 3.36.328 4.781.492 7.172 2.92 9.6s4.819 2.592 9.6 2.92c1.1.075 2.23.12 3.36.12s2.26-.045 3.36-.12c4.781-.328 7.172-.492 9.6-2.92s2.592-4.819 2.92-9.6c.075-1.1.12-2.23.12-3.36s-.045-2.26-.12-3.36c-.328-4.78-.492-7.171-2.92-9.6s-4.819-2.592-9.6-2.92A49 49 0 0 0 22 6c-1.13 0-2.26.045-3.36.12-4.781.328-7.171.492-9.6 2.92m21.89 20.74-4.772-8.17 4.523-7.367a.473.473 0 0 0-.388-.743l-4.972.009a.47.47 0 0 0-.393.21l-3.513 5.975h-2.051v-5.56a.635.635 0 0 0-.634-.634h-4.095a.634.634 0 0 0-.634.635v15.723c0 .35.284.635.634.635h4.096c.35 0 .634-.285.634-.635v-5.535h2.496l3.493 5.946c.086.142.24.231.406.231h4.767c.37 0 .597-.405.403-.72"/></svg>