<svg xmlns="http://www.w3.org/2000/svg" viewBox="0 0 16 16"><path fill-rule="evenodd" d="M3.123 3.125c-.874.874-.939 1.745-1.069 3.487-.033.454-.054.922-.054 1.39s.02.935.054 1.388c.13 1.743.195 2.614 1.07 3.488.874.874 1.745.94 3.487 1.07.454.033.921.054 1.39.054.467 0 .935-.02 1.388-.055 1.743-.13 2.614-.195 3.488-1.069s.94-1.745 1.07-3.488c.033-.453.054-.92.054-1.389 0-.467-.021-.935-.055-1.389-.13-1.742-.195-2.613-1.069-3.487s-1.745-.94-3.488-1.07A19 19 0 0 0 8 2.002c-.468 0-.935.02-1.389.055-1.742.13-2.613.195-3.488 1.069m7.604 7.392L9.183 7.874l1.463-2.384a.153.153 0 0 0-.125-.24l-1.609.003a.15.15 0 0 0-.127.068L7.65 7.254h-.664V5.455a.206.206 0 0 0-.205-.205H5.455a.205.205 0 0 0-.205.205v5.087c0 .114.092.206.205.206H6.78a.206.206 0 0 0 .206-.206v-1.79h.807l1.13 1.923a.15.15 0 0 0 .131.075h1.543c.12 0 .193-.131.13-.233"/></svg>