<svg xmlns="http://www.w3.org/2000/svg" viewBox="0 0 24 24"><path fill-rule="evenodd" d="M10.072 5.077A26 26 0 0 1 12 5.001c.642 0 1.291.029 1.928.076 2.75.205 3.265.318 3.971 1.025.707.706.82 1.22 1.025 3.97.047.638.075 1.287.075 1.93 0 .642-.028 1.291-.075 1.928-.205 2.75-.319 3.265-1.025 3.971-.706.707-1.22.82-3.97 1.025-.638.047-1.287.076-1.93.076-.642 0-1.291-.029-1.928-.076-2.75-.205-3.265-.318-3.971-1.025-.707-.706-.82-1.22-1.025-3.97A26 26 0 0 1 5 12c0-.642.029-1.291.076-1.928.205-2.75.318-3.265 1.025-3.971.706-.707 1.22-.82 3.97-1.025m-6.99 4.847C3.276 7.308 3.374 6 4.686 4.687 6 3.375 7.307 3.277 9.923 3.083A28 28 0 0 1 12.001 3c.699 0 1.399.031 2.077.082 2.616.194 3.924.292 5.236 1.604C20.627 6 20.725 7.308 20.92 9.924c.05.678.081 1.378.081 2.078 0 .699-.03 1.398-.08 2.077-.195 2.616-.293 3.924-1.606 5.236-1.312 1.313-2.62 1.41-5.236 1.605-.678.05-1.378.081-2.077.081s-1.4-.03-2.078-.08c-2.616-.195-3.924-.293-5.237-1.605-1.312-1.313-1.41-2.621-1.604-5.237A28 28 0 0 1 3 12c0-.7.031-1.399.082-2.077m12.885 5.738-2.246-3.846L15.85 8.35a.223.223 0 0 0-.182-.35l-2.34.004a.22.22 0 0 0-.185.099l-1.653 2.812h-.965V8.299a.3.3 0 0 0-.3-.299H8.298A.3.3 0 0 0 8 8.299v7.399c0 .165.134.298.298.298h1.928a.3.3 0 0 0 .298-.298v-2.605H11.7l1.643 2.798c.04.067.113.109.191.109h2.244c.174 0 .28-.19.19-.338"/></svg>