<svg xmlns="http://www.w3.org/2000/svg" viewBox="0 0 16 16"><path fill-rule="evenodd" d="M6.723 3.551c.422-.031.853-.05 1.277-.05.425 0 .855.019 1.278.05 1.843.138 2.12.215 2.538.634.42.42.497.696.634 2.54.032.422.05.852.05 1.276s-.018.855-.05 1.278c-.137 1.843-.214 2.12-.634 2.539-.419.419-.695.496-2.538.633-.423.032-.853.05-1.278.05-.424 0-.855-.018-1.277-.05-1.843-.137-2.12-.214-2.539-.633s-.496-.696-.634-2.54c-.031-.422-.05-.852-.05-1.277s.019-.854.05-1.277c.138-1.843.215-2.12.634-2.539s.696-.496 2.539-.634M2.054 6.612C2.184 4.87 2.25 4 3.124 3.125c.874-.874 1.745-.94 3.487-1.07.454-.033.921-.054 1.39-.054.467 0 .935.02 1.388.055 1.743.13 2.614.195 3.488 1.069s.94 1.745 1.07 3.487c.033.454.054.922.054 1.39s-.021.935-.055 1.388c-.13 1.743-.195 2.614-1.069 3.488s-1.745.94-3.488 1.07c-.453.033-.921.054-1.389.054s-.935-.02-1.389-.055c-1.742-.13-2.613-.195-3.488-1.069-.874-.874-.939-1.745-1.069-3.488A19 19 0 0 1 2 8.001c0-.467.02-.935.054-1.389m8.673 3.905L9.183 7.874l1.463-2.384a.153.153 0 0 0-.125-.24l-1.609.003a.15.15 0 0 0-.127.068L7.65 7.254h-.664V5.455a.206.206 0 0 0-.205-.205H5.455a.205.205 0 0 0-.205.205v5.087c0 .114.092.206.205.206H6.78a.206.206 0 0 0 .206-.206v-1.79h.807l1.13 1.923a.15.15 0 0 0 .131.075h1.543c.12 0 .193-.131.13-.233"/></svg>