<svg xmlns="http://www.w3.org/2000/svg" viewBox="0 0 24 24"><path fill-rule="evenodd" d="M4.686 4.687C3.374 6 3.276 7.308 3.082 9.924A28 28 0 0 0 3 12.002c0 .699.031 1.398.082 2.077.194 2.616.292 3.924 1.604 5.236C6 20.629 7.307 20.726 9.923 20.92c.678.05 1.378.081 2.078.081.699 0 1.399-.03 2.077-.08 2.616-.195 3.924-.293 5.236-1.605 1.313-1.313 1.41-2.621 1.605-5.237C20.97 13.4 21 12.7 21 12s-.03-1.399-.08-2.077c-.195-2.616-.293-3.924-1.606-5.237-1.312-1.312-2.62-1.41-5.236-1.604A28 28 0 0 0 12 3c-.7 0-1.4.031-2.078.082-2.616.194-3.924.292-5.237 1.604m11.28 10.975-2.245-3.846 2.13-3.465a.223.223 0 0 0-.182-.35l-2.34.004a.22.22 0 0 0-.185.099l-1.653 2.812h-.965V8.299a.3.3 0 0 0-.3-.299H8.298A.3.3 0 0 0 8 8.299v7.399c0 .165.134.298.298.298h1.928a.3.3 0 0 0 .298-.298v-2.605H11.7l1.643 2.798c.04.067.113.109.191.109h2.244c.174 0 .28-.19.19-.338"/></svg>