<svg xmlns="http://www.w3.org/2000/svg" viewBox="0 0 16 16"><path d="M8.448 6.06c.045-.416.104-.853.18-1.295.176-1.006 1.028-2.036 1.548-2.585.227-.24.594-.244.794.02.298.39.67 1.045.735 1.935a18.4 18.4 0 0 0 2.662 1.32c.655.26 1.133.495 1.133 1.2 0 .283-.068.956-.267 1.158-.518.524-1.342.789-2.218.987zm-1.756.696a7.8 7.8 0 0 0-1.636.344L4.005 4.998a.75.75 0 0 0-1.342.67L3.62 7.58c-.299.188-.853.756-1.091 2.421a89 89 0 0 1-.517 3.202.677.677 0 0 0 .663.798h.8c.621 0 1.01-.155 1.214-.272a.85.85 0 0 0 .302-.316A5.5 5.5 0 0 0 5.548 12h2.454q.262 0 .5-.004v1.338c0 .368.297.666.666.666H10q.125 0 .245-.008c.99-.064 1.615-.957 1.686-1.946.04-.542.069-1.282.069-2.104z"/></svg>