<svg xmlns="http://www.w3.org/2000/svg" viewBox="0 0 16 16"><path d="M11.002 4c0 1.082-.573 2.03-1.432 2.558.278.028.532.085.99.255.309.116.691.38 1.073.715a2.25 2.25 0 0 0-1.883 2.22v.001h-.002A2.25 2.25 0 0 0 8.718 14H5.877c-.614 0-.92 0-1.176-.05a2.715 2.715 0 0 1-2.15-2.149c-.05-.255-.05-.562-.05-1.176.001-.178.001-.267.21-.93.29-.924 1.826-2.543 2.733-2.882.458-.17.712-.227.99-.255A3 3 0 1 1 11.002 4"/><path d="M15 12a.75.75 0 0 1-.75.75h-1.5v1.5a.75.75 0 0 1-1.5 0v-1.5H9.748a.75.75 0 0 1 0-1.5h1.502V9.749a.75.75 0 0 1 1.5 0v1.501h1.5A.75.75 0 0 1 15 12"/></svg>