<svg xmlns="http://www.w3.org/2000/svg" viewBox="0 0 16 16"><path d="M10 4.501c0 .874-.536 1.254-.924 1.53-.22.156-.392.278-.392.437 0 .147.265.26.624.413.551.236 1.056.51 1.494.92a.75.75 0 0 0 1.05-1.07l-.01-.01-.01-.01-.018-.017a6 6 0 0 0-.71-.574 3.5 3.5 0 1 0-6.207 0c-.734.484-1.755 1.587-2.03 2.236-.367.868-.367 1.186-.367 1.822 0 .968 0 1.453.12 1.847.269.892.967 1.59 1.86 1.86.394.12.878.12 1.847.12h.953v-.006a.75.75 0 1 0-.114-1.494h-.839c-1.078 0-1.285-.017-1.413-.055a1.29 1.29 0 0 1-.859-.859C4.016 11.463 4 11.255 4 10.178c0-.338.003-.45.024-.57.02-.112.065-.291.224-.667l.01-.021.033-.058q.044-.075.123-.184c.106-.147.244-.316.403-.49.54-.592 1.139-.992 1.875-1.307.36-.153.624-.266.624-.413 0-.159-.172-.281-.392-.437-.344-.245-.805-.572-.904-1.252A2 2 0 1 1 10 4.5z"/><path d="M15 12a.75.75 0 0 1-.75.75h-1.5v1.5a.75.75 0 0 1-1.5 0v-1.5H9.748a.75.75 0 0 1 0-1.5h1.502V9.749a.75.75 0 0 1 1.5 0v1.501h1.5A.75.75 0 0 1 15 12"/></svg>