<svg xmlns="http://www.w3.org/2000/svg" viewBox="0 0 24 24"><path d="M15 7c0 1.276-.815 1.942-1.404 2.423-.335.273-.596.487-.596.72 0 .266.384.439.934.687.81.364 1.506.739 2.163 1.345a1 1 0 1 0 1.455-1.372 10 10 0 0 0-.925-.782 5 5 0 0 0-.422-.277l.06-.117.062-.119q.075-.129.143-.264a5 5 0 1 0-8.808.243l.072.14.06.117a5 5 0 0 0-.42.277c-1.15.832-2.563 2.416-2.933 3.391C4 14.575 4 14.917 4 15.6c0 1.235 0 1.853.133 2.36a4.07 4.07 0 0 0 2.907 2.907C7.547 21 8.165 21 9.4 21H12a1 1 0 0 0 0-2H9.4c-1.361 0-1.658-.017-1.853-.068a2.07 2.07 0 0 1-1.48-1.479C6.018 17.258 6 16.961 6 15.6c0-.355.004-.448.025-.57.024-.135.084-.376.286-.909.07-.181.396-.698.995-1.348.835-.906 1.667-1.452 2.76-1.943.55-.248.934-.421.934-.687 0-.233-.262-.447-.596-.72-.548-.447-1.289-1.053-1.392-2.159A3 3 0 1 1 15 7"/><path d="M22 18a1 1 0 0 1-1 1h-2v2a1 1 0 0 1-2 0v-2h-2a1 1 0 1 1 0-2h2v-2a1 1 0 1 1 2 0v2h2a1 1 0 0 1 1 1"/></svg>