<svg xmlns="http://www.w3.org/2000/svg" viewBox="0 0 44 44"><path fill-rule="evenodd" d="M12.924 11.738C14.287 9.95 15 8.43 15 7.36V5.5a1.5 1.5 0 0 1 3 0v1.86c0 1.07.713 2.59 2.076 4.378 1.31 1.72 3.022 3.435 4.577 4.849q.59.536 1.117 1.137.116-.127.226-.255c1.027-1.188 1.504-2.202 1.504-2.969v-2H25a1.5 1.5 0 0 1 0-3h2.5V5.501l.085-.001H27.5a1.5 1.5 0 0 1 3 0h-.085.085v4H33a1.5 1.5 0 0 1 0 3h-2.5v2c0 .767.477 1.78 1.504 2.97.989 1.145 2.302 2.24 3.54 3.145 2.299 1.682 3.956 4.349 3.956 7.376a8.28 8.28 0 0 1-1.994 5.39l-1.367 1.595a2 2 0 0 1-.139.142V38.5a1.5 1.5 0 0 1-3 0V36h-8v2.5a1.5 1.5 0 0 1-3 0V36H11v2.5a1.5 1.5 0 0 1-3 0v-3.806a11.55 11.55 0 0 1-4-8.74c0-3.654 1.742-6.998 4.347-9.367 1.555-1.414 3.266-3.128 4.577-4.849m15.343 7.692c.252-.291.5-.6.733-.925.233.324.481.634.733.925 1.2 1.39 2.716 2.638 4.039 3.606 1.676 1.226 2.728 3.055 2.728 4.955 0 1.261-.451 2.48-1.272 3.438L33.882 33h-9.763l-1.347-1.571A5.28 5.28 0 0 1 21.5 27.99c0-1.9 1.052-3.729 2.728-4.955 1.323-.968 2.839-2.216 4.039-3.606M10.618 33h9.568a8.3 8.3 0 0 1-1.686-5.01c0-3.026 1.657-5.693 3.956-7.375.368-.269.742-.554 1.112-.853q-.435-.502-.934-.956c-1.616-1.47-3.476-3.323-4.944-5.25-.42-.549-.825-1.13-1.19-1.729-.365.6-.77 1.18-1.19 1.73-1.468 1.926-3.328 3.78-4.944 5.25C8.285 20.697 7 23.271 7 25.952a8.55 8.55 0 0 0 3.022 6.523l.448.38q.08.068.148.144"/></svg>