<svg xmlns="http://www.w3.org/2000/svg" viewBox="0 0 24 24"><path d="M8.999 2a1 1 0 0 1 1 1c0 2.534 1.148 3.911 2.54 5.33-.234.301-.576.64-1.063 1.084l-.236.213c-1.12 1-3.241 2.895-3.24 6.102 0 .994.185 2.078.734 3.14A6.6 6.6 0 0 0 10 20.567V22H5a1 1 0 0 1-1-1v-1.68c-.627-.568-1.097-1.188-1.424-1.872C2.155 16.57 2 15.645 2 14.693c-.001-2.891 1.65-4.547 3.057-5.959l.231-.231C6.756 7.02 7.998 5.637 7.998 3a1 1 0 0 1 1-1"/><path d="M16 2a1 1 0 0 1 1 1v2h1a1 1 0 1 1 0 2h-1l-.001.044c.015 1.766.949 2.728 2.175 3.847l.21.19C20.533 12.122 22 13.449 22 15.728c0 .746-.137 1.501-.51 2.221q-.493.96-1.49 1.698V21a1 1 0 0 1-1 1h-6a1 1 0 0 1-1-1v-1.353c-.666-.492-1.16-1.058-1.49-1.698-.373-.72-.51-1.475-.51-2.221-.001-2.28 1.465-3.605 2.615-4.647l.21-.19C14.06 9.763 14.999 8.794 14.999 7H14a1 1 0 1 1 0-2h1V3a1 1 0 0 1 1-1"/></svg>