<svg xmlns="http://www.w3.org/2000/svg" viewBox="0 0 24 24"><path fill-rule="evenodd" d="M9.999 3a1 1 0 1 0-2 0c0 2.637-1.243 4.021-2.71 5.503l-.231.231C3.65 10.146 1.998 11.802 2 14.693c0 .952.155 1.876.576 2.755.327.684.797 1.304 1.424 1.872V21a1 1 0 1 0 2 0v-1h6v1a1 1 0 1 0 2 0v-1h4v1a1 1 0 1 0 2 0v-1.353q.997-.738 1.49-1.698c.373-.72.51-1.475.51-2.221.001-2.28-1.465-3.606-2.617-4.647l-.209-.19C17.948 9.772 17.014 8.81 17 7.044V7h1a1 1 0 1 0 0-2h-1V3a1 1 0 1 0-2 0v2h-1a1 1 0 1 0 0 2h.999c0 1.193-.415 2.021-1.057 2.774-.33-.368-.672-.71-1-1.04l-.232-.232C11.242 7.022 10 5.637 10 3m.538 15H5.529c-.563-.47-.922-.94-1.15-1.415-.26-.546-.379-1.16-.379-1.893 0-2.05 1.099-3.158 2.585-4.657.904-.911 1.79-1.848 2.414-2.98.624 1.133 1.51 2.069 2.415 2.98.397.4.766.773 1.095 1.143-1.133 1.027-2.51 2.34-2.509 4.55 0 .764.145 1.54.537 2.272m5.462-7.633c.514.774 1.185 1.416 1.868 2.039C19.17 13.595 20 14.352 20 15.727c0 .498-.09.925-.286 1.303-.166.32-.429.648-.85.97h-5.727c-.422-.322-.685-.65-.85-.97-.197-.378-.287-.805-.287-1.303 0-1.375.83-2.132 2.132-3.321.683-.623 1.353-1.266 1.867-2.04"/></svg>