<svg xmlns="http://www.w3.org/2000/svg" viewBox="0 0 16 16"><path fill-rule="evenodd" d="M6.749 1.75a.75.75 0 1 0-1.5 0c0 1.67-.843 2.556-1.888 3.54l-.17.16c-.988.923-2.19 2.047-2.189 4 0 .643.113 1.267.424 1.86.248.474.605.895 1.074 1.278v1.162a.75.75 0 0 0 1.5 0V13h4v.75a.75.75 0 0 0 1.5 0v-.754H12v.754a.75.75 0 0 0 1.5 0v-.951q.76-.525 1.134-1.229A3.26 3.26 0 0 0 15 10.018c0-1.59-1.051-2.514-1.852-3.218l-.001-.001-.15-.132c-.758-.673-1.334-1.246-1.468-2.167h.221a.75.75 0 0 0 0-1.5h-.25V1.75a.75.75 0 0 0-1.5 0V3h-.248a.75.75 0 0 0 0 1.5h.218c-.082.564-.33.998-.684 1.404-.16-.158-.322-.309-.477-.454l-.17-.16c-1.047-.984-1.89-1.87-1.89-3.54M6.5 10.018c0 .496.09 1 .33 1.482H3.542c-.394-.304-.637-.598-.788-.886-.172-.33-.252-.702-.252-1.164 0-1.29.746-1.993 1.821-3.006l.066-.062c.55-.517 1.152-1.1 1.61-1.86.459.76 1.061 1.343 1.611 1.86l.066.062q.275.257.518.494c-.774.687-1.695 1.592-1.694 3.08m4.25-3.551c-.378.537-.841.957-1.253 1.322l-.007.007C8.556 8.624 8 9.119 8 10.018c0 .327.06.603.19.848.11.204.284.418.568.63h3.985c.283-.212.457-.426.566-.63.13-.244.19-.52.191-.848 0-.9-.557-1.394-1.49-2.222l-.008-.007c-.411-.365-.875-.785-1.253-1.322"/></svg>