<svg xmlns="http://www.w3.org/2000/svg" viewBox="0 0 24 24"><path d="M7.476 2.202C8.345 2.112 9.858 2 12 2s3.655.112 4.524.202c.56.058 1.06.38 1.24.913.126.372.236.85.236 1.385s-.11 1.013-.236 1.385c-.18.533-.68.855-1.24.913-.378.04-.88.083-1.5.119A1.087 1.087 0 0 0 14 8a1.16 1.16 0 0 0 1.053 1.151l.534.053c1.641.173 2.462.26 3.207.986s.845 1.49 1.045 3.017c.096.726.161 1.51.161 2.293s-.065 1.567-.16 2.293c-.201 1.527-.302 2.29-1.046 3.017-.745.726-1.566.813-3.207.986-1.093.115-2.34.204-3.587.204a35 35 0 0 1-3.587-.204c-1.641-.173-2.462-.26-3.207-.986s-.845-1.49-1.045-3.017C4.065 17.067 4 16.283 4 15.5s.065-1.567.16-2.293c.201-1.527.302-2.29 1.046-3.017.745-.726 1.566-.813 3.207-.986q.261-.027.534-.053A1.16 1.16 0 0 0 10 8c0-.574-.45-1.05-1.023-1.083a34 34 0 0 1-1.501-.12c-.56-.057-1.06-.379-1.24-.912A4.3 4.3 0 0 1 6 4.5c0-.536.11-1.014.236-1.385.18-.533.68-.855 1.24-.913"/></svg>