<svg xmlns="http://www.w3.org/2000/svg" viewBox="0 0 44 44"><path d="M19.307 4.026c.816-.154 1.598.404 1.747 1.246.149.843-.392 1.65-1.207 1.804-3.055.577-5.817 2.242-7.806 4.706-1.484 1.838-2.56 4.523-2.882 6.43-.17 1.014-.21 1.618-.196 2.105.014.462.074.856.172 1.498l.028.182.048.298c.227 1.39.695 4.248-1.01 6.595a1.47 1.47 0 0 1-2.1.31 1.585 1.585 0 0 1-.3-2.17c.903-1.245.66-2.828.42-4.404l-.054-.35c-.094-.606-.185-1.197-.204-1.867-.022-.764.048-1.59.239-2.727.402-2.392 1.682-5.593 3.534-7.887 2.438-3.02 5.826-5.063 9.571-5.77m4.101 1.495c.149-.842.93-1.4 1.746-1.246 3.746.707 7.133 2.749 9.572 5.77s3.774 6.83 3.774 10.764c0 .857-.672 1.55-1.501 1.55s-1.501-.694-1.501-1.55c0-3.208-1.09-6.314-3.078-8.778-1.989-2.464-4.75-4.129-7.805-4.705-.816-.154-1.356-.962-1.207-1.804M38.5 26.562c.017-.856-.64-1.565-1.47-1.583-.828-.018-1.514.662-1.532 1.518-.027 1.373-.267 2.09-.635 3.192-.066.2-.137.41-.21.641-.263.813.162 1.69.948 1.962.787.27 1.637-.169 1.899-.981q.093-.285.188-.566c.385-1.147.773-2.3.812-4.183m-22.524.921c0-.856-.672-1.55-1.501-1.55-.83 0-1.501.694-1.501 1.55 0 1.494-.764 4.056-2.514 6.768-.46.713-.274 1.676.416 2.15.69.476 1.622.283 2.082-.43 1.941-3.009 3.018-6.168 3.018-8.488"/><path d="M18.704 12.383a8.62 8.62 0 0 1 5.738-.465 8.87 8.87 0 0 1 4.81 3.265 9.38 9.38 0 0 1 1.864 5.577l.006.118a59 59 0 0 1 .071 1.919c.026 1.163.028 2.67-.084 3.88l-.01.103c-.211 2.285-.502 5.431-2.381 10.769-.283.804-1.145 1.22-1.924.927s-1.18-1.182-.897-1.987c1.749-4.969 2.013-7.825 2.212-9.974l.012-.133c.094-1.02.097-2.373.071-3.513a64 64 0 0 0-.067-1.822l-.006-.11-.002-.027v-.007l-.003-.047v-.048a6.2 6.2 0 0 0-1.234-3.725 5.87 5.87 0 0 0-3.185-2.162 5.7 5.7 0 0 0-3.8.309 5.96 5.96 0 0 0-2.819 2.648 6.24 6.24 0 0 0-.728 2.93c0 .857-.672 1.55-1.501 1.55-.83 0-1.501-.694-1.501-1.55a9.4 9.4 0 0 1 1.1-4.424 9 9 0 0 1 4.258-4"/><path d="M20.615 21.059c.535 3.851-.735 10.688-3.44 16.74-.346.778-.018 1.699.735 2.058.752.359 1.644.02 1.991-.758 2.835-6.344 4.334-13.811 3.686-18.48-.118-.848-.879-1.437-1.7-1.315-.82.122-1.39.907-1.272 1.755"/></svg>