<svg xmlns="http://www.w3.org/2000/svg" viewBox="0 0 16 16"><path fill-rule="evenodd" d="M13.199 9.25a.195.195 0 0 0 .192-.155 5.5 5.5 0 0 0 0-2.19.195.195 0 0 0-.193-.155h-1.29a.203.203 0 0 0-.2.22 12 12 0 0 1 0 2.06c-.01.117.082.22.2.22zm-.618 1.794c.086-.128-.01-.294-.163-.294h-.832a.2.2 0 0 0-.195.152 10 10 0 0 1-.436 1.308c-.075.182.119.356.278.24.528-.384.986-.86 1.348-1.405M10 9.25a.197.197 0 0 0 .197-.177 10.7 10.7 0 0 0 0-2.146A.197.197 0 0 0 10 6.75H6a.197.197 0 0 0-.197.177 10.7 10.7 0 0 0 0 2.146c.01.101.096.177.197.177zm-5.908 0a.203.203 0 0 0 .2-.22 12.3 12.3 0 0 1 0-2.06.203.203 0 0 0-.2-.22h-1.29a.195.195 0 0 0-.193.155 5.5 5.5 0 0 0 0 2.19c.018.09.1.155.193.155zm-.673 1.794c-.086-.128.01-.294.164-.294h.83c.093 0 .173.063.196.152a10 10 0 0 0 .436 1.308c.075.182-.119.356-.278.24a5.5 5.5 0 0 1-1.348-1.405m7.536-7.254c-.075-.182.119-.356.278-.24.528.384.986.86 1.348 1.406.086.128-.01.294-.163.294h-.832a.2.2 0 0 1-.195-.152 10 10 0 0 0-.436-1.308m-6.26 1q-.044.15-.086.308a.2.2 0 0 1-.195.152h-.831c-.154 0-.25-.166-.164-.294A5.5 5.5 0 0 1 4.767 3.55c.16-.116.353.058.278.24q-.19.454-.35 1M8 15A7 7 0 1 0 8 1a7 7 0 0 0 0 14M6.403 5.25a.196.196 0 0 1-.188-.255c.259-.8.58-1.432.842-1.838.167-.259.303-.432.388-.532a.34.34 0 0 1 .24-.116 6 6 0 0 1 .63 0c.093.005.18.045.24.116.085.1.22.273.388.532a8 8 0 0 1 .847 1.838.196.196 0 0 1-.189.255zm.654 7.593a8 8 0 0 1-.842-1.838.196.196 0 0 1 .188-.255h3.198c.134 0 .23.128.189.255-.26.8-.584 1.432-.847 1.838a5 5 0 0 1-.388.532.34.34 0 0 1-.24.116 6 6 0 0 1-.63 0 .34.34 0 0 1-.24-.116 5 5 0 0 1-.388-.532"/></svg>