<svg xmlns="http://www.w3.org/2000/svg" viewBox="0 0 24 24"><path fill-rule="evenodd" d="M12 2c-1.186 0-2.458 1.691-3.242 4.365A.5.5 0 0 0 9.242 7h5.516c.33 0 .576-.318.484-.635C14.458 3.691 13.186 2 12 2M7.773 3.343c.088-.172-.087-.363-.26-.276a10.05 10.05 0 0 0-3.835 3.412c-.147.22.019.521.285.521H5.93c.426 0 .618-.164.672-.389.295-1.233.692-2.333 1.17-3.268m8.714-.276c-.173-.087-.348.104-.26.276.479.935.876 2.036 1.171 3.268a.5.5 0 0 0 .485.389h2.15c.266 0 .436-.3.29-.521a10.05 10.05 0 0 0-3.837-3.412M2.718 9c-.152 0-.29.1-.332.244a10 10 0 0 0 0 5.512c.042.145.18.244.332.244h2.91a.494.494 0 0 0 .492-.547 25 25 0 0 1 0-4.906A.494.494 0 0 0 5.63 9zm5.93 0a.5.5 0 0 0-.503.438 22.3 22.3 0 0 0 0 5.124c.03.253.248.438.502.438h6.704a.5.5 0 0 0 .502-.437 22.3 22.3 0 0 0 0-5.126.5.5 0 0 0-.502-.437zm9.722 0a.494.494 0 0 0-.492.547 25 25 0 0 1 0 4.906.494.494 0 0 0 .492.547h2.91c.152 0 .29-.1.332-.244a10 10 0 0 0 0-5.512A.345.345 0 0 0 21.28 9zM3.967 17c-.266 0-.436.3-.29.521a10.05 10.05 0 0 0 3.836 3.412c.173.087.348-.104.26-.276-.479-.935-.876-2.036-1.171-3.268A.5.5 0 0 0 6.117 17zm5.275 0a.502.502 0 0 0-.484.635C9.542 20.309 10.814 22 12 22s2.458-1.691 3.242-4.365a.5.5 0 0 0-.484-.635zm8.828 0c-.426 0-.618.164-.672.389-.295 1.233-.692 2.333-1.17 3.268-.089.172.086.363.258.276a10.05 10.05 0 0 0 3.836-3.411c.147-.221-.019-.522-.285-.522z"/></svg>