<svg xmlns="http://www.w3.org/2000/svg" viewBox="0 0 44 44"><path fill-rule="evenodd" d="M22 4c-2.135 0-4.425 3.044-5.836 7.857-.167.571.278 1.143.872 1.143h9.928c.594 0 1.038-.572.872-1.143C26.425 7.044 24.135 4 22 4m-7.664 2.527c.174-.345-.177-.728-.52-.552a18.1 18.1 0 0 0-6.796 6.086c-.265.398.034.939.513.939h3.54c.767 0 1.113-.295 1.21-.7.52-2.171 1.216-4.115 2.053-5.773m15.849-.552c-.344-.176-.695.207-.521.552.837 1.659 1.533 3.603 2.053 5.773.097.405.456.7.872.7h3.87c.48 0 .786-.54.521-.939a18.1 18.1 0 0 0-6.795-6.086M5.294 16.6a.62.62 0 0 0-.598.44A18 18 0 0 0 4 22c0 1.719.244 3.384.696 4.96.076.261.324.44.598.44h5.238a.89.89 0 0 0 .886-.984 45 45 0 0 1 0-8.831.89.89 0 0 0-.886-.985zm10.673 0a.903.903 0 0 0-.903.787A40 40 0 0 0 14.8 22c0 1.607.095 3.15.264 4.613a.903.903 0 0 0 .903.787h12.066c.457 0 .85-.334.903-.787.17-1.462.264-3.006.264-4.613s-.095-3.15-.264-4.613a.903.903 0 0 0-.903-.787zm17.501 0a.89.89 0 0 0-.886.984 45 45 0 0 1 0 8.831.89.89 0 0 0 .886.985h5.238a.62.62 0 0 0 .598-.44c.452-1.575.696-3.24.696-4.96s-.244-3.384-.696-4.96a.62.62 0 0 0-.598-.44zM7.54 31c-.479 0-.785.54-.52.939a18.1 18.1 0 0 0 6.796 6.086c.343.176.694-.207.52-.552-.837-1.659-1.533-3.603-2.053-5.773a.905.905 0 0 0-.872-.7zm9.496 0c-.594 0-1.038.572-.872 1.143C17.575 36.956 19.865 40 22 40s4.425-3.044 5.836-7.857c.167-.571-.278-1.143-.872-1.143zm15.89 0c-.766 0-1.112.295-1.209.7-.52 2.171-1.216 4.115-2.053 5.773-.174.345.177.728.52.552a18.1 18.1 0 0 0 6.796-6.086c.265-.398-.034-.939-.513-.939z"/></svg>