<svg xmlns="http://www.w3.org/2000/svg" viewBox="0 0 44 44"><path fill-rule="evenodd" d="M16.776 25.178a.98.98 0 0 0 .973.822h8.502a.98.98 0 0 0 .973-.823c.173-1.114.276-2.19.276-3.177 0-.984-.103-2.061-.276-3.177A.98.98 0 0 0 26.25 18h-8.5a.98.98 0 0 0-.974.823c-.174 1.116-.276 2.193-.276 3.177 0 .986.102 2.063.276 3.177m11.466 8.282c.361-1.12.738-2.38 1.078-3.697.115-.447.516-.763.977-.763h3.313c.754 0 1.228.798.805 1.422a15.06 15.06 0 0 1-6.04 5.16c-.387.182-.78-.198-.64-.603q.246-.713.507-1.519m2.06-8.627c-.078.612.39 1.167 1.008 1.167h4.39c.45 0 .847-.3.944-.739a15.1 15.1 0 0 0 .001-6.522.96.96 0 0 0-.946-.739h-4.39c-.617 0-1.085.555-1.007 1.167.125.973.198 1.927.198 2.833 0 .904-.073 1.859-.198 2.833m-22.946.428c.097.44.495.739.945.739h4.389c.618 0 1.086-.555 1.007-1.167A22 22 0 0 1 13.5 22c0-.906.072-1.86.197-2.833.079-.612-.39-1.167-1.007-1.167H8.3c-.45 0-.847.3-.944.739A15 15 0 0 0 7 22c0 1.12.123 2.211.356 3.261m7.324 4.502a1.01 1.01 0 0 0-.978-.763H10.39c-.753 0-1.228.798-.805 1.422a15.06 15.06 0 0 0 6.04 5.16c.387.182.78-.198.64-.603a76 76 0 0 1-.507-1.519 65 65 0 0 1-1.078-3.697M18.872 15a.982.982 0 0 1-.954-1.245q.119-.419.24-.827a73 73 0 0 1 1.514-4.52v-.002q.154-.412.28-.742a.95.95 0 0 1 .808-.613 15 15 0 0 1 2.48 0c.365.03.675.271.807.613q.127.33.28.742l.001.002a73 73 0 0 1 1.753 5.347.982.982 0 0 1-.953 1.245zm15.543-1.421c.423.623-.051 1.421-.805 1.421h-3.313c-.461 0-.862-.316-.977-.763a61 61 0 0 0-.603-2.165 74 74 0 0 0-.983-3.051c-.14-.405.254-.785.641-.603a15.06 15.06 0 0 1 6.04 5.16M13.702 15c.462 0 .863-.316.978-.763.193-.747.397-1.473.602-2.165a74 74 0 0 1 .983-3.051c.14-.405-.253-.785-.64-.602a15.06 15.06 0 0 0-6.04 5.16c-.423.623.052 1.421.805 1.421zM40 22c0 9.941-8.059 18-18 18S4 31.941 4 22 12.059 4 22 4s18 8.059 18 18M24.154 36.055l-.102.267a.97.97 0 0 1-.828.62C22.849 36.97 22.37 37 22 37s-.85-.03-1.224-.058a.97.97 0 0 1-.829-.62l-.102-.267c-.33-.87-.774-2.096-1.232-3.515-.235-.73-.47-1.5-.695-2.294A.983.983 0 0 1 18.872 29h6.256a.983.983 0 0 1 .953 1.246c-.224.793-.46 1.565-.694 2.294a75 75 0 0 1-1.233 3.515"/></svg>