<svg xmlns="http://www.w3.org/2000/svg" viewBox="0 0 24 24"><path fill-rule="evenodd" d="M8 20.75c.56.068 1.186.115 1.925.17.678.05 1.377.081 2.077.081s1.399-.03 2.077-.08c2.616-.195 3.924-.293 5.237-1.605s1.41-2.621 1.605-5.237c.05-.679.081-1.378.081-2.078s-.03-1.399-.081-2.077c-.195-2.616-.292-3.924-1.605-5.237-1.313-1.312-2.62-1.41-5.237-1.604A28 28 0 0 0 12.002 3c-.7 0-1.4.031-2.077.082A42 42 0 0 0 8 3.253zM17.002 10a1 1 0 0 1-1 1h-4a1 1 0 1 1 0-2h4a1 1 0 0 1 1 1m-2 5a1 1 0 1 0 0-2h-2a1 1 0 1 0 0 2z"/><path d="M6 3.756c-.463.215-.891.51-1.312.931C3.375 6 3.278 7.308 3.083 9.924c-.05.678-.081 1.378-.081 2.078 0 .699.03 1.398.081 2.077.195 2.616.292 3.924 1.605 5.236.42.421.85.717 1.312.932z"/></svg>