<svg xmlns="http://www.w3.org/2000/svg" viewBox="0 0 24 24"><path d="M16 11a1 1 0 1 0 0-2h-4a1 1 0 0 0 0 2zm0 3a1 1 0 0 1-1 1h-2a1 1 0 0 1 0-2h2a1 1 0 0 1 1 1"/><path fill-rule="evenodd" d="M3.081 9.924C3.276 7.308 3.373 6 4.686 4.687c1.313-1.312 2.62-1.41 5.237-1.604C10.6 3.032 11.3 3 12 3s1.399.031 2.077.082c2.616.194 3.924.292 5.237 1.604s1.41 2.621 1.605 5.237c.05.678.081 1.378.081 2.078 0 .699-.03 1.398-.081 2.077-.195 2.616-.292 3.924-1.605 5.236-1.313 1.313-2.62 1.41-5.237 1.605-.678.05-1.377.081-2.077.081s-1.399-.03-2.077-.08c-2.616-.195-3.924-.293-5.237-1.605s-1.41-2.621-1.605-5.237A28 28 0 0 1 3 12c0-.7.03-1.399.081-2.077m6.99-4.847A26 26 0 0 1 12 5.001c.642 0 1.292.029 1.929.076 2.75.205 3.265.318 3.97 1.025.707.706.82 1.22 1.025 3.97.048.638.076 1.287.076 1.93 0 .642-.028 1.291-.076 1.928-.204 2.75-.318 3.265-1.024 3.971-.706.707-1.22.82-3.971 1.025-.637.047-1.287.076-1.929.076s-1.292-.029-1.929-.076c-.406-.03-.754-.059-1.07-.087V5.164c.316-.028.664-.057 1.07-.087m-3.07.425c-.366.136-.624.322-.9.6-.707.706-.82 1.22-1.025 3.97A26 26 0 0 0 5 12.003c0 .642.028 1.291.076 1.928.204 2.75.318 3.265 1.024 3.971.277.277.535.463.9.6z"/></svg>