<svg xmlns="http://www.w3.org/2000/svg" viewBox="0 0 32 32"><path fill-rule="evenodd" d="M14.75 7.996a1.25 1.25 0 1 0 0 2.5h.956c.58 0 1.123.288 1.449.769L18.33 13h-4.466l-.661-.661a6.45 6.45 0 0 0-4.561-1.89H5.597a1.25 1.25 0 1 0 0 2.5h3.046a3.95 3.95 0 0 1 1.942.511l-.543 1.185a5.75 5.75 0 1 0 4.322 6.854h1.86a1.3 1.3 0 0 0 1.274-1.3h.002a7.23 7.23 0 0 1 2.21-5.162l.858 1.266a5.75 5.75 0 1 0 2.069-1.403L21.35 13h2.348a1.3 1.3 0 0 0 1.3-1.3v-1.404c0-.716-.58-1.297-1.297-1.297a3.9 3.9 0 0 0-3.021 1.438l-.581.715-.874-1.29a4.25 4.25 0 0 0-3.52-1.867zM8.75 17q.105 0 .209.007l-1.217 2.65A1.3 1.3 0 0 0 8.924 21.5h2.827A3.251 3.251 0 1 1 8.75 17m13.282 1.467 1.683 2.484a1.25 1.25 0 0 0 2.07-1.402l-1.683-2.485q.315-.064.648-.064a3.25 3.25 0 1 1-2.718 1.467"/></svg>