<svg xmlns="http://www.w3.org/2000/svg" viewBox="0 0 17 17"><path fill-rule="evenodd" d="M7.702 3.187a.797.797 0 0 0 0 1.594H8.1c.467 0 .9.245 1.14.645l.567.948H7.398l-.41-.438a3.77 3.77 0 0 0-2.752-1.192H2.92a.797.797 0 1 0 0 1.593h1.315c.41 0 .809.116 1.151.33l-.4.856a3.187 3.187 0 1 0 2.405 3.632h1.644a.53.53 0 0 0 .525-.531 3.76 3.76 0 0 1 1.16-2.722l.29.483a3.187 3.187 0 1 0 1.367-.82l-.714-1.19h1.404c.41 0 .743-.334.743-.744v-.638a.744.744 0 0 0-.743-.744h-.21a2.23 2.23 0 0 0-1.679.762l-.197.225-.376-.628A2.92 2.92 0 0 0 8.1 3.188zM4.25 9.03h.035l-.497 1.067a.744.744 0 0 0 .673 1.058h1.292A1.594 1.594 0 1 1 4.25 9.03m7.638.819.709 1.184a.797.797 0 1 0 1.367-.819l-.709-1.184h.026a1.594 1.594 0 1 1-1.393.819"/></svg>