<svg xmlns="http://www.w3.org/2000/svg" viewBox="0 0 44 44"><path d="M15.75 9A4.75 4.75 0 0 0 11 13.75v.75a1.5 1.5 0 0 1-3 0v-.75a7.75 7.75 0 0 1 13.999-4.585 7.75 7.75 0 0 1 13.999 4.585v.75a1.5 1.5 0 1 1-3 0v-.75a4.75 4.75 0 1 0-9.498 0v2.052A6 6 0 0 1 32.498 21a1.5 1.5 0 1 1-3 0 3 3 0 1 0-5.998 0v3.025c.985.033 1.96.095 2.906.177.381 1.41 1.006 2.548 2.147 3.69 2.237 2.237 4.466 2.489 8.742 2.81-.362 1.7-.992 3-2.293 4.3-2.334 2.335-4.66 2.508-9.31 2.854-1.206.09-2.45.144-3.693.144a50 50 0 0 1-3.693-.144c-4.65-.346-6.976-.52-9.31-2.853-1.301-1.302-1.93-2.6-2.293-4.3 4.277-.322 6.507-.574 8.744-2.811 1.141-1.142 1.766-2.28 2.147-3.69.945-.082 1.92-.144 2.904-.177v-3.112A3 3 0 0 0 14.5 21a1.5 1.5 0 0 1-3 0 6 6 0 0 1 8.998-5.198v-2.166A4.75 4.75 0 0 0 15.75 9"/></svg>