<svg xmlns="http://www.w3.org/2000/svg" viewBox="0 0 32 32"><path fill-rule="evenodd" d="M.191 22.262 1.5 20.954V17.28c0-.492.062-.947.15-1.343A1 1 0 0 1 2 14h.014c.11-.615.3-1.238.522-1.824.505-1.335.758-2.003 1.607-2.59S5.895 9 7.703 9h1.054c1.808 0 2.712 0 3.56.587q.17.116.31.24L22.263.19q.75.298 1.46.661L13.492 11.084a22 22 0 0 1 .59 1.531L25.075 1.622q.645.408 1.25.87L14.78 14.04a1 1 0 0 1 .72.96v.44l2.183-2.183c.1-.367.22-.73.354-1.081.504-1.335.757-2.003 1.606-2.59.621-.429 1.272-.544 2.286-.575l5.55-5.55q.554.506 1.061 1.06L24.061 9h.196c.768 0 1.373 0 1.88.045l3.37-3.37q.464.605.871 1.25l-2.62 2.621.06.04c.44.305.72.632.958 1.062l2.373-2.372q.364.711.66 1.46l-2.4 2.4.015.04c.221.586.411 1.209.523 1.824H30a1 1 0 0 1 .35 1.937c.088.396.15.851.15 1.343l-.001 4.468a1.25 1.25 0 0 1-2.5 0V21h-7.453L9.737 31.809a17 17 0 0 1-1.46-.661l8.85-8.85a1.25 1.25 0 0 1-.127-.55v-1.445L6.926 30.378a17 17 0 0 1-1.25-.872l7.046-7.046a1.24 1.24 0 0 1-.223-.712V21h-.438l-7.54 7.54a17 17 0 0 1-1.06-1.061L9.94 21H7.818l-5.324 5.324q-.464-.605-.871-1.25L5.697 21H4v.748a1.25 1.25 0 0 1-2.095.922L.852 23.723a17 17 0 0 1-.66-1.46m10.651-10.65L8.453 14h-.205c-1.537 0-2.768.057-3.708.128.078-.327.19-.686.335-1.068.13-.344.225-.595.314-.81.088-.21.148-.332.193-.41a.6.6 0 0 1 .072-.107c.01-.01.037-.039.11-.09l.005-.004c.028-.02.078-.055.32-.087.359-.047.848-.052 1.814-.052h1.054c.966 0 1.455.005 1.814.052.153.02.229.042.271.06M15 18.062v2.12l2-2v-.902c0-.492.063-.947.15-1.343l-.019-.007zm5.375-5.002a46 46 0 0 1 .232-.606l.917-.917c.348-.033.829-.037 1.679-.037h.479l-2.561 2.56q-.592.03-1.08.068a9 9 0 0 1 .334-1.068m5.404-1.536-2.477 2.478a65 65 0 0 1 2.1.02l1.484-1.484q-.06-.157-.115-.287a4 4 0 0 0-.193-.411.6.6 0 0 0-.072-.107.6.6 0 0 0-.11-.09l-.005-.004c-.028-.02-.077-.055-.32-.087a5 5 0 0 0-.292-.028"/></svg>