<svg xmlns="http://www.w3.org/2000/svg" viewBox="0 0 24 24"><path d="M16.207 10.207a1 1 0 0 0-1.414-1.414L11 12.586l-1.293-1.293a1 1 0 0 0-1.414 1.414l2 2a1 1 0 0 0 1.414 0z"/><path fill-rule="evenodd" d="M3.08 9.923c.196-2.616.293-3.924 1.606-5.237s2.62-1.41 5.237-1.605C10.6 3.031 11.3 3 12 3s1.399.03 2.077.081c2.616.195 3.924.292 5.237 1.605s1.41 2.62 1.605 5.237c.05.678.08 1.377.08 2.077s-.03 1.399-.08 2.077c-.195 2.616-.292 3.924-1.605 5.237s-2.621 1.41-5.237 1.605C13.4 20.969 12.7 21 12 21s-1.4-.03-2.077-.081c-2.616-.195-3.924-.292-5.237-1.605s-1.41-2.62-1.605-5.237A28 28 0 0 1 3 12c0-.7.03-1.399.08-2.077m6.991-4.847A26 26 0 0 1 12 5c.642 0 1.291.028 1.929.076 2.75.204 3.265.318 3.97 1.024.707.706.82 1.22 1.025 3.971.048.637.076 1.287.076 1.929s-.028 1.292-.076 1.929c-.204 2.75-.318 3.265-1.024 3.97-.706.707-1.221.82-3.971 1.025a26 26 0 0 1-1.93.076c-.641 0-1.29-.028-1.928-.076-2.75-.204-3.265-.318-3.97-1.024-.707-.706-.82-1.22-1.026-3.971A26 26 0 0 1 5 12c0-.642.028-1.292.075-1.929.205-2.75.319-3.265 1.025-3.97.706-.707 1.22-.82 3.971-1.025"/></svg>