<svg xmlns="http://www.w3.org/2000/svg" viewBox="0 0 32 32"><path fill-rule="evenodd" d="M6.248 6.25c-1.75 1.75-1.88 3.493-2.14 6.98A38 38 0 0 0 4 16.001c0 .932.041 1.865.108 2.77.26 3.487.39 5.23 2.14 6.981s3.494 1.88 6.982 2.14c.904.067 1.837.108 2.77.108.932 0 1.865-.041 2.769-.108 3.487-.26 5.231-.39 6.982-2.14 1.75-1.75 1.88-3.494 2.14-6.982a38 38 0 0 0 .107-2.77c0-.932-.04-1.864-.108-2.769C27.63 9.744 27.5 8 25.75 6.25s-3.493-1.88-6.98-2.14A38 38 0 0 0 16 4.003c-.932 0-1.865.04-2.769.108-3.488.26-5.232.39-6.982 2.14m15.136 5.366a1.25 1.25 0 0 1 0 1.768l-6 6a1.25 1.25 0 0 1-1.768 0l-2.5-2.5a1.25 1.25 0 0 1 1.768-1.768l1.616 1.616 5.116-5.116a1.25 1.25 0 0 1 1.768 0"/></svg>