<svg xmlns="http://www.w3.org/2000/svg" viewBox="0 0 28 28"><path fill-rule="evenodd" d="M5.044 5.045c-1.568 1.567-1.69 3.14-1.935 6.285C3.041 12.2 3 13.1 3 14.002c0 .9.041 1.8.11 2.67.244 3.146.366 4.719 1.934 6.286 1.567 1.567 3.14 1.69 6.285 1.934.87.068 1.77.11 2.671.11s1.801-.042 2.671-.11c3.146-.244 4.718-.367 6.285-1.934s1.69-3.14 1.935-6.285c.068-.87.109-1.77.109-2.671s-.041-1.802-.11-2.672c-.244-3.145-.366-4.718-1.934-6.285-1.567-1.567-3.14-1.69-6.285-1.934C15.801 3.043 14.901 3 14 3s-1.801.042-2.671.11c-3.146.244-4.718.367-6.285 1.934m14.163 4.748a1 1 0 0 1 0 1.414l-6 6a1 1 0 0 1-1.414 0l-2.5-2.5a1 1 0 1 1 1.414-1.414l1.793 1.793 5.293-5.293a1 1 0 0 1 1.414 0"/></svg>