<svg xmlns="http://www.w3.org/2000/svg" viewBox="0 0 28 28"><path d="M19.207 11.207a1 1 0 0 0-1.414-1.414L12.5 15.086l-1.793-1.793a1 1 0 0 0-1.414 1.414l2.5 2.5a1 1 0 0 0 1.414 0z"/><path fill-rule="evenodd" d="M3.11 11.33c.244-3.145.366-4.718 1.934-6.285 1.567-1.567 3.14-1.69 6.285-1.934.87-.068 1.77-.11 2.671-.11s1.801.042 2.671.11c3.146.244 4.718.367 6.285 1.934s1.69 3.14 1.935 6.285c.068.87.109 1.77.109 2.672 0 .9-.041 1.8-.11 2.67-.244 3.146-.366 4.719-1.934 6.286-1.567 1.567-3.14 1.69-6.285 1.934-.87.068-1.77.11-2.671.11s-1.801-.042-2.671-.11c-3.146-.244-4.718-.367-6.285-1.934s-1.69-3.14-1.935-6.285A35 35 0 0 1 3 14.002c0-.901.041-1.802.11-2.672m8.374-6.225A33 33 0 0 1 14 5c.84 0 1.689.04 2.516.104 3.283.255 4.064.391 5.026 1.354.963.963 1.1 1.744 1.355 5.026.064.828.103 1.676.103 2.517 0 .84-.039 1.688-.103 2.516-.255 3.282-.392 4.063-1.355 5.026s-1.743 1.099-5.026 1.354c-.827.065-1.676.104-2.516.104s-1.689-.04-2.516-.104c-3.283-.255-4.063-.391-5.026-1.354s-1.1-1.744-1.355-5.026A33 33 0 0 1 5 14c0-.84.039-1.688.103-2.516.255-3.282.392-4.063 1.355-5.026s1.743-1.1 5.026-1.354"/></svg>