<svg xmlns="http://www.w3.org/2000/svg" viewBox="0 0 24 24"><path fill-rule="evenodd" d="M10.425 3.053A2.14 2.14 0 0 1 14 4.64v14.72a2.14 2.14 0 0 1-3.575 1.587L7.07 17.913a3 3 0 0 0-1.284-.686A5 5 0 0 1 2 12.377v-.237a5.3 5.3 0 0 1 2.98-4.768l.842-.41.183-.09a4 4 0 0 0 .935-.666zM11.86 4.5a.14.14 0 0 0-.094.036l-3.493 3.16a6 6 0 0 1-1.565 1.058l-.852.416A3.3 3.3 0 0 0 4 12.14v.238c0 1.376.937 2.575 2.272 2.91.796.198 1.532.59 2.141 1.142l3.353 3.034A.14.14 0 0 0 12 19.36V4.64a.14.14 0 0 0-.14-.14"/></svg>