<svg xmlns="http://www.w3.org/2000/svg" viewBox="0 0 24 24"><path fill-rule="evenodd" d="M21.285 19.393c.38-.385.42-.854.5-1.79C21.892 16.325 22 14.45 22 12s-.107-4.326-.216-5.603c-.08-.937-.12-1.406-.5-1.791-.379-.386-.828-.432-1.728-.523A16 16 0 0 0 18 4c-.535 0-1.07.035-1.556.084-.9.091-1.35.137-1.73.523-.379.385-.419.854-.499 1.79q-.029.336-.056.727c-.18-.02-.382-.037-.615-.056A19 19 0 0 0 12 7c-.53 0-1.062.028-1.545.068-.915.074-1.372.112-1.76.496-.389.384-.431.842-.517 1.76A45 45 0 0 0 8 13.501c0 1.762.083 3.158.178 4.175.086.918.128 1.376.517 1.76.388.384.845.422 1.76.496.483.04 1.014.068 1.545.068s1.061-.028 1.545-.068c.72-.058 1.156-.094 1.499-.294.325.169.742.211 1.4.277.486.05 1.02.085 1.556.085.535 0 1.07-.035 1.556-.084.9-.091 1.35-.137 1.729-.523M18 18c.45 0 .916-.03 1.355-.074l.396-.042A65 65 0 0 0 20 12.001a65 65 0 0 0-.249-5.885l-.396-.042A14 14 0 0 0 18 6c-.451 0-.916.03-1.355.074l-.396.042-.04.451a65 65 0 0 0-.21 5.434 65 65 0 0 0 .25 5.883l.396.042c.439.044.904.074 1.355.074m-6 0c.463 0 .937-.025 1.382-.061.165-.014.296-.024.408-.035a43 43 0 0 0 .21-4.403 43 43 0 0 0-.21-4.405l-.408-.035A17 17 0 0 0 12 9c-.463 0-.938.025-1.382.061-.165.014-.296.024-.408.035a43 43 0 0 0-.21 4.405 43 43 0 0 0 .21 4.403l.408.035c.444.036.919.061 1.382.061"/><path d="M6 11h.058A52 52 0 0 0 6 13.5a47 47 0 0 0 .202 4.538c.042.507.103 1.242.459 1.953a25 25 0 0 1-2.27-.042c-.9-.052-1.35-.079-1.748-.46-.398-.38-.441-.797-.528-1.63A23 23 0 0 1 2 15.5c0-.936.05-1.724.115-2.358.087-.834.13-1.25.528-1.631.399-.381.849-.408 1.748-.46A26 26 0 0 1 6 11"/></svg>