<svg xmlns="http://www.w3.org/2000/svg" viewBox="0 0 24 24"><path fill-rule="evenodd" d="M21.285 19.393c.38-.385.42-.854.5-1.79C21.893 16.325 22 14.45 22 12s-.107-4.326-.215-5.603c-.08-.937-.12-1.406-.5-1.791-.38-.386-.83-.432-1.729-.523A16 16 0 0 0 18 4c-.535 0-1.07.035-1.556.084-.9.091-1.35.137-1.729.523-.38.385-.42.854-.5 1.79q-.027.336-.056.727-.268-.029-.614-.056A19 19 0 0 0 12 7c-.53 0-1.061.028-1.545.068-.914.074-1.372.112-1.76.496s-.431.842-.517 1.76c-.046.495-.09 1.081-.122 1.755l-.447-.029C7.109 11.022 6.554 11 6 11s-1.109.021-1.61.05c-.898.053-1.348.08-1.747.46-.398.382-.441.798-.528 1.632A23 23 0 0 0 2 15.5c0 .936.05 1.724.115 2.358.087.833.13 1.25.528 1.63.399.381.848.408 1.748.46.5.03 1.055.051 1.61.051.554 0 1.108-.021 1.608-.05.696-.041 1.122-.066 1.464-.252.325.148.742.182 1.382.234.483.04 1.014.068 1.545.068s1.062-.028 1.545-.068c.72-.058 1.156-.094 1.499-.294.325.169.742.211 1.4.277.486.05 1.021.085 1.556.085s1.07-.035 1.556-.084c.9-.091 1.35-.137 1.73-.523M18 18c.451 0 .916-.03 1.355-.074l.396-.042A65 65 0 0 0 20 12.001a65 65 0 0 0-.208-5.433l-.04-.452-.397-.042A14 14 0 0 0 18 6c-.45 0-.916.03-1.355.074l-.396.042A65 65 0 0 0 16 12c0 2.391.104 4.21.208 5.432l.04.451.397.042c.439.044.904.074 1.355.074M6 18a26 26 0 0 0 1.866-.07l.03-.278C7.954 17.085 8 16.367 8 15.5a21 21 0 0 0-.134-2.43l-.374-.023A26 26 0 0 0 6 13a26 26 0 0 0-1.866.07l-.03.278A21 21 0 0 0 4 15.501a21 21 0 0 0 .134 2.429l.373.023C4.98 17.98 5.494 18 6 18m7.382-.061c-.444.036-.919.061-1.382.061s-.937-.025-1.382-.061l-.408-.035-.04-.413c-.09-.957-.17-2.292-.17-3.99a43 43 0 0 1 .21-4.405l.408-.035C11.063 9.025 11.538 9 12 9c.463 0 .937.025 1.382.061.165.014.296.024.408.035a43 43 0 0 1 .21 4.405 43 43 0 0 1-.21 4.403z"/></svg>