<svg xmlns="http://www.w3.org/2000/svg" viewBox="0 0 16 16"><path d="M9.543 4.585c.057-.62.085-.93.34-1.185.255-.256.56-.284 1.168-.342.356-.033.752-.058 1.149-.058s.793.025 1.15.058c.608.058.912.086 1.167.342.255.255.283.565.34 1.185C14.931 5.38 15 6.523 15 8s-.07 2.62-.143 3.416c-.057.62-.085.93-.34 1.185s-.56.284-1.168.341c-.356.034-.753.059-1.15.059s-.792-.025-1.148-.059c-.609-.057-.913-.086-1.168-.341-.255-.256-.283-.566-.34-1.185A38 38 0 0 1 9.4 8c0-1.477.07-2.62.143-3.415M3.738 7.5a23 23 0 0 0-1.163.036c-.588.032-.881.048-1.148.3-.266.251-.295.515-.354 1.041C1.03 9.252 1 9.711 1 10.25s.03.997.073 1.372c.059.527.088.79.354 1.042.267.252.56.268 1.148.3a23 23 0 0 0 1.547.033c-.218-.472-.26-.943-.288-1.254l-.01-.113a29 29 0 0 1-.085-4.13M8 5h.003A41 41 0 0 0 7.9 8c0 1.524.072 2.713.15 3.553l.01.12c.025.327.065.828.297 1.322Q8.18 13 8 13c-.399 0-.798-.02-1.155-.047-.613-.046-.919-.07-1.179-.323-.26-.254-.29-.553-.35-1.15A25 25 0 0 1 5.2 9c0-1.033.053-1.862.115-2.48.06-.597.091-.896.351-1.15s.566-.276 1.178-.323A16 16 0 0 1 8 5"/></svg>