<svg xmlns="http://www.w3.org/2000/svg" viewBox="0 0 16 16"><path d="M8.309 2.599a5.9 5.9 0 0 1-1.997.866q-.15.035-.306.035h2.66q.958.001 1.757.035c1.914.078 3.475 1.273 4.156 2.965H10.75a.75.75 0 0 0 0 1.5h4.182c.042.422.068.798.068 1.077 0 .152-.031.328-.08.51-.239.9-1.067 1.48-1.969 1.709l-.396.101q-.294.075-.595.095a.75.75 0 0 1-.71.508h-1a.75.75 0 0 1-.708-.5H7.957a.75.75 0 0 1-.707.5h-1a.75.75 0 0 1-.708-.5H3.957a.75.75 0 0 1-.707.5h-.5a.75.75 0 0 1-.75-.75V8h5.25a.75.75 0 0 0 0-1.5H2V4.832C2 4.096 2.596 3.5 3.333 3.5h2.66q-.154 0-.305-.035A5.9 5.9 0 0 1 3.69 2.6a.414.414 0 0 1 0-.698 5.9 5.9 0 0 1 1.997-.866c.204-.047.42-.047.624 0 .72.164 1.403.46 1.997.866a.414.414 0 0 1 0 .698M2 13.25a.75.75 0 0 1 .75-.75h11.5a.75.75 0 0 1 0 1.5H2.75a.75.75 0 0 1-.75-.75"/></svg>