<svg xmlns="http://www.w3.org/2000/svg" viewBox="0 0 32 32"><path d="m12.639 3.09-.082-.02a2.3 2.3 0 0 0-1.114 0l-.082.02a9.8 9.8 0 0 0-3.507 1.686.917.917 0 0 0 0 1.448A9.8 9.8 0 0 0 11.36 7.91l.082.02q.274.07.555.07h-5.33A2.666 2.666 0 0 0 4 10.665V13.5h10.75a1.25 1.25 0 0 1 0 2.5H4v6.75c0 .69.56 1.25 1.25 1.25h1.5c.605 0 1.11-.43 1.225-1h2.55c.116.57.62 1 1.225 1h3c.605 0 1.11-.43 1.225-1h2.55c.116.57.62 1 1.225 1h3a1.25 1.25 0 0 0 1.247-1.168q.108-.024.214-.052l.94-.248c1.667-.44 3.227-1.474 3.689-3.136.097-.35.16-.697.16-1.011 0-.504-.04-1.13-.106-1.819a10 10 0 0 0-.07-.566H21.25a1.25 1.25 0 0 1 0-2.5h6.836c-1.4-3.107-4.39-5.264-7.992-5.423A82 82 0 0 0 16.5 8h-4.498q.28 0 .555-.07l.082-.02a9.8 9.8 0 0 0 3.507-1.686.917.917 0 0 0 0-1.448A9.8 9.8 0 0 0 12.64 3.09M5.25 25.5a1.25 1.25 0 0 0 0 2.5h22.5a1.25 1.25 0 0 0 0-2.5z"/></svg>