<svg xmlns="http://www.w3.org/2000/svg" viewBox="0 0 16 16"><path fill-rule="evenodd" d="M6.312 3.465A5.9 5.9 0 0 0 8.31 2.6a.414.414 0 0 0 0-.698 5.9 5.9 0 0 0-1.997-.866 1.4 1.4 0 0 0-.624 0c-.72.164-1.403.46-1.997.866a.414.414 0 0 0 0 .698 5.9 5.9 0 0 0 1.997.866q.15.035.306.035H3.333A1.33 1.33 0 0 0 2 4.832v6.418c0 .414.336.75.75.75h.5a.75.75 0 0 0 .707-.5h1.586c.103.291.38.5.707.5h1a.75.75 0 0 0 .707-.5h1.586c.103.291.38.5.707.5h1a.75.75 0 0 0 .71-.508q.301-.02.595-.095l.396-.101c.902-.23 1.73-.81 1.97-1.709.048-.182.079-.358.079-.51 0-.303-.03-.72-.078-1.186-.246-2.396-2.093-4.258-4.5-4.356A43 43 0 0 0 8.668 3.5h-2.66q.154 0 .305-.035M3.5 8v2h8.234q.229 0 .45-.057l.397-.1c.604-.154.842-.461.89-.642a1 1 0 0 0 .029-.136c0-.224-.025-.574-.07-1.021L13.424 8H10.75a.75.75 0 0 1 0-1.5h2.151a3.14 3.14 0 0 0-2.54-1.466A42 42 0 0 0 8.667 5H3.5v1.5h3.75a.75.75 0 0 1 0 1.5z"/><path d="M2.75 12.5a.75.75 0 0 0 0 1.5h11.5a.75.75 0 0 0 0-1.5z"/></svg>