<svg xmlns="http://www.w3.org/2000/svg" viewBox="0 0 32 32"><path d="M9.801 11.411c-1.46 0-2.333.697-2.333 3.749v.246c.73-.902 1.887-1.393 3.307-1.393 2.597 0 4.383 1.31 4.383 4.465 0 3.093-1.826 4.855-5.438 4.855-3.916 0-5.722-1.987-5.722-7.292 0-5.777 2.415-7.375 5.905-7.375 3.246 0 4.85 1.66 4.991 3.831h-3.409c-.182-.676-.67-1.086-1.684-1.086m-.081 9.28c1.238 0 1.968-.512 1.968-1.926v-.614c0-1.373-.77-1.844-1.968-1.844-1.299 0-2.07.615-2.07 2.192 0 1.639.771 2.192 2.07 2.192M27.998 16c0 4.977-1.928 7.333-5.884 7.333-3.977 0-5.885-2.355-5.885-7.333 0-4.896 1.908-7.334 5.885-7.334 3.956 0 5.884 2.438 5.884 7.334m-3.49 1.004v-2.028c0-2.233-.527-3.585-2.394-3.585-1.887 0-2.395 1.27-2.395 3.585v2.028c0 2.396.508 3.584 2.395 3.605 1.866 0 2.394-1.209 2.394-3.605"/></svg>