<svg xmlns="http://www.w3.org/2000/svg" viewBox="0 0 24 24"><path d="M14.25 13.006c.18.07 1.147.583 1.344.69l.108.056c.137.072.23.12.27.191.048.088.048.513-.115 1.008-.164.495-.95.947-1.329 1.008a2.5 2.5 0 0 1-1.24-.084 11 11 0 0 1-1.122-.446c-1.845-.859-3.092-2.785-3.328-3.15l-.034-.052-.002-.002C8.698 12.075 8 11.072 8 10.034c0-.976.445-1.488.65-1.724l.039-.045A.7.7 0 0 1 9.214 8c.131 0 .262.001.377.007l.044.001c.115 0 .258-.002.399.363l.217.57c.17.443.357.934.39 1.005.049.106.082.23.016.371l-.027.06c-.05.108-.086.189-.17.294l-.1.13c-.068.089-.136.178-.195.241-.098.106-.201.22-.086.433.115.212.51.907 1.095 1.469.629.604 1.175.86 1.453.989q.082.037.13.063c.196.106.311.088.426-.053s.492-.619.623-.831c.132-.212.263-.177.443-.106"/><path fill-rule="evenodd" d="M2.247 2.249C.497 3.999.367 5.744.107 9.232A38 38 0 0 0 0 12.002c0 .932.04 1.865.108 2.77.26 3.487.39 5.231 2.14 6.982 1.75 1.75 3.495 1.88 6.983 2.14.904.067 1.837.108 2.77.108.932 0 1.865-.04 2.77-.108 3.487-.26 5.231-.39 6.982-2.14 1.75-1.75 1.88-3.495 2.14-6.983.067-.904.108-1.837.108-2.77 0-.932-.04-1.865-.108-2.77-.26-3.487-.39-5.231-2.14-6.982-1.75-1.75-3.495-1.88-6.983-2.14A38 38 0 0 0 12 .001c-.932 0-1.865.04-2.77.108C5.743.37 3.999.5 2.248 2.25m14.705 4.803A6.96 6.96 0 0 0 12 5c-3.858 0-6.998 3.145-7 7.003 0 1.4.414 2.705 1.126 3.8l-.804 2.937 3-.787A6.96 6.96 0 0 0 12 19c1.873 0 3.63-.73 4.952-2.052A6.94 6.94 0 0 0 19 12.003c0-1.87-.727-3.628-2.048-4.95"/></svg>