<svg xmlns="http://www.w3.org/2000/svg" viewBox="0 0 24 24"><path fill-rule="evenodd" d="M6.161 8.286c-.004-.22.018-.494.05-.894.127-1.563.19-2.345.894-3.106.703-.761 1.415-.876 2.838-1.104C10.613 3.074 11.32 3 12 3s1.388.074 2.058.182c1.423.228 2.134.343 2.838 1.104.703.761.767 1.543.893 3.106.032.4.054.673.05.894.892.1 1.436.242 2.059.833.752.714.829 1.237.983 2.283.072.49.119 1.028.119 1.598 0 1.87 0 2.804-.402 3.5a3 3 0 0 1-1.098 1.098c-.41.236-.902.334-1.618.374-.293 1.924-1.513 2.76-3.47 2.925-.714.06-1.53.103-2.412.103a29 29 0 0 1-2.412-.103c-1.957-.166-3.177-1-3.47-2.925-.716-.04-1.208-.137-1.618-.374A3 3 0 0 1 3.402 16.5C3 15.804 3 14.87 3 13c0-.57.047-1.109.12-1.6.154-1.045.23-1.568.983-2.28.623-.592 1.166-.734 2.058-.834m2.003-.17A60 60 0 0 1 12 8c1.48 0 2.759.048 3.836.116-.005-.12-.018-.286-.04-.563-.069-.84-.107-1.242-.18-1.537C15.355 4.95 12.89 5 12 5c-.896 0-3.353-.056-3.616 1.016-.073.295-.111.697-.179 1.537a19 19 0 0 0-.04.563m-1.213 2.102A54 54 0 0 1 12 10c2.12 0 3.804.1 5.048.217.698.066.966.099 1.16.155.543.157.61.675.67 1.146l.024.176c.06.405.098.845.098 1.306 0 .971-.002 1.566-.042 2.01-.055.609-.339.893-.948.948H18v-.96c0-.941 0-1.412-.293-1.705S16.943 13 16.001 13H7.999c-.942 0-1.413 0-1.706.293S6 14.057 6 14.998v.96h-.01c-.61-.055-.893-.339-.948-.949C5.002 14.566 5 13.971 5 13c0-.462.038-.902.098-1.307l.024-.176c.06-.47.127-.988.671-1.145.193-.056.46-.089 1.158-.154m1.124 7.296A14 14 0 0 1 8 16.05V15h8v1.05c0 .552-.03 1.04-.075 1.464-.029.265-.047.43-.069.568-.074.46-.472.697-.903.753A27 27 0 0 1 12 19a27 27 0 0 1-2.953-.165c-.43-.056-.83-.294-.903-.753a12 12 0 0 1-.069-.568"/></svg>