<svg xmlns="http://www.w3.org/2000/svg" viewBox="0 0 16 16"><path d="M10 5.754a.75.75 0 0 1-.75.746h-2.5A.747.747 0 0 1 6 5.754C6 5.34 6.336 5 6.75 5h2.5c.414 0 .75.34.75.754M9 8.756a.745.745 0 0 1-.75.744h-1.5A.745.745 0 0 1 6 8.756C6 8.342 6.336 8 6.75 8h1.5c.414 0 .75.342.75.756"/><path fill-rule="evenodd" d="M2.25 2a.75.75 0 0 0 0 1.5h.055c-.087.35-.129.748-.18 1.242A25 25 0 0 0 2 7.292c0 1.185.074 2.685.177 3.672l.008.08c.12 1.153.204 1.956.609 2.621.145.238.392.34.655.335.211-.004.432-.076.618-.2.636-.428 1.425-.85 1.686-.85.28 0 1.013.44 1.647.867a1.08 1.08 0 0 0 1.205-.001c.633-.427 1.37-.862 1.658-.862.266 0 1.043.42 1.672.844.194.132.427.205.647.202.251-.003.485-.106.624-.335.404-.664.49-1.468.609-2.62l.008-.08c.102-.988.177-2.488.177-3.672 0-.975-.05-1.826-.126-2.551-.05-.494-.092-.892-.18-1.241h.056a.75.75 0 0 0 0-1.5zm1.553 1.724a.8.8 0 0 1 .122-.223h8.15c.068.09.099.161.122.223.076.207.113.478.185 1.172.07.675.118 1.474.118 2.397 0 1.14-.073 2.588-.17 3.516a21 21 0 0 1-.17 1.37c-.167-.1-.335-.196-.496-.281a6 6 0 0 0-.566-.265 2.3 2.3 0 0 0-.835-.18 2.3 2.3 0 0 0-.846.182c-.195.077-.39.175-.568.27a13 13 0 0 0-.847.51 13 13 0 0 0-.836-.507 6 6 0 0 0-.562-.273 2.3 2.3 0 0 0-.851-.186c-.375 0-.707.13-.837.181a6 6 0 0 0-.565.265 11 11 0 0 0-.51.288 21 21 0 0 1-.172-1.374 39 39 0 0 1-.17-3.516c0-.923.049-1.722.118-2.397.072-.694.11-.965.186-1.172"/></svg>