<svg xmlns="http://www.w3.org/2000/svg" viewBox="0 0 24 24"><path fill-rule="evenodd" d="M8.061 1.655a1 1 0 0 1 1.284-.593S14.76 2.679 18 4.25c.27.132.644.308.85.405a4 4 0 0 1 .302.139c.41.21.805.506 1.23.932 1.29 1.294 1.37 2.265 1.532 4.206a25 25 0 0 1 0 4.137c-.162 1.942-.243 2.912-1.532 4.207s-2.302 1.381-4.327 1.557c-1.153.1-2.505.168-4.055.168s-2.902-.068-4.055-.168c-2.024-.176-3.036-.264-4.326-1.557-1.29-1.294-1.37-2.264-1.532-4.205a25 25 0 0 1 0-4.14C2.25 7.99 2.33 7.02 3.62 5.726s2.302-1.382 4.326-1.557a46 46 0 0 1 3.597-.166L8.654 2.939a1 1 0 0 1-.593-1.284M12.001 6c-1.492 0-2.787.065-3.883.16-1.078.094-1.602.149-2.022.278-.312.096-.613.25-1.06.699-.458.459-.606.755-.696 1.043-.123.393-.173.879-.26 1.916a23 23 0 0 0 0 3.808c.087 1.037.137 1.522.26 1.916.09.288.238.583.696 1.043.447.449.748.602 1.06.698.42.13.943.185 2.022.279 1.096.095 2.39.16 3.882.16s2.786-.065 3.882-.16c1.079-.094 1.602-.149 2.023-.279.313-.096.613-.25 1.06-.698.458-.46.606-.755.696-1.044.123-.393.173-.88.26-1.917a23 23 0 0 0 0-3.805c-.087-1.037-.137-1.523-.26-1.917-.09-.288-.238-.584-.696-1.043-.447-.45-.747-.603-1.06-.699-.421-.13-.944-.184-2.024-.278a45 45 0 0 0-3.88-.16M14 14a2 2 0 1 0 0-4 2 2 0 0 0 0 4m0 2a4 4 0 1 0 0-8 4 4 0 0 0 0 8M7 8a1 1 0 0 0 0 2h1a1 1 0 0 0 0-2zm-1 4a1 1 0 0 1 1-1h1a1 1 0 1 1 0 2H7a1 1 0 0 1-1-1m1 2a1 1 0 1 0 0 2h1a1 1 0 1 0 0-2z"/></svg>