<svg xmlns="http://www.w3.org/2000/svg" viewBox="0 0 16 16"><path fill-rule="evenodd" d="M5.3 1.231a.75.75 0 0 1 .97-.43s3.936 1.22 6.275 2.413l.415.215c.35.133.665.339 1.007.68.8.795.857 1.387.97 2.571a14 14 0 0 1 0 2.64c-.113 1.185-.17 1.777-.97 2.573s-1.45.854-2.751.971A36 36 0 0 1 8 13c-1.26 0-2.332-.056-3.217-.136-1.3-.117-1.95-.175-2.75-.971s-.857-1.388-.97-2.57a14 14 0 0 1 0-2.644c.113-1.184.17-1.775.97-2.571s1.45-.854 2.75-.971a36 36 0 0 1 3.03-.136L5.73 2.2a.75.75 0 0 1-.43-.97M12 8a2 2 0 1 1-4 0 2 2 0 0 1 4 0M4 7a.75.75 0 0 1 .75-.75h1a.75.75 0 1 1 0 1.5h-1A.75.75 0 0 1 4 7m0 2.25a.75.75 0 0 1 .75-.75h1a.75.75 0 0 1 0 1.5h-1A.75.75 0 0 1 4 9.25"/></svg>