<svg xmlns="http://www.w3.org/2000/svg" viewBox="0 0 16 16"><path fill-rule="evenodd" d="M6.27.8a.75.75 0 0 0-.539 1.4l2.082.8c-1.179.006-2.19.061-3.03.137-1.3.117-1.95.175-2.75.971s-.857 1.387-.97 2.57a14 14 0 0 0 0 2.644c.113 1.183.17 1.775.97 2.57.8.797 1.45.855 2.75.972.885.08 1.958.136 3.217.136a36 36 0 0 0 3.216-.136c1.3-.117 1.951-.175 2.751-.971s.857-1.388.97-2.572a14 14 0 0 0 0-2.64c-.113-1.185-.17-1.777-.97-2.573-.342-.34-.657-.546-1.007-.679l-.415-.215C10.205 2.022 6.27.8 6.27.8m4.812 10.57c-.84.076-1.868.13-3.082.13s-2.242-.055-3.082-.13c-.7-.063-1.016-.098-1.263-.173-.165-.05-.319-.123-.564-.368-.263-.26-.332-.41-.374-.539-.067-.206-.099-.47-.16-1.11a12.5 12.5 0 0 1 0-2.359c.061-.64.093-.904.16-1.11.042-.13.111-.278.374-.54.245-.244.4-.318.564-.367.247-.075.564-.11 1.263-.173A35 35 0 0 1 8 4.5a35 35 0 0 1 3.082.13c.699.063 1.016.098 1.263.173.165.05.319.123.564.368.263.26.332.41.374.54.067.206.1.469.16 1.11a12.5 12.5 0 0 1 0 2.357c-.06.641-.093.904-.16 1.11-.042.13-.11.28-.373.54-.246.245-.4.318-.565.368-.247.075-.564.11-1.263.173M12 8a2 2 0 1 1-4 0 2 2 0 0 1 4 0M4 7a.75.75 0 0 1 .75-.75h1a.75.75 0 1 1 0 1.5h-1A.75.75 0 0 1 4 7m.75 1.5a.75.75 0 0 0 0 1.5h1a.75.75 0 0 0 0-1.5z"/></svg>