<svg xmlns="http://www.w3.org/2000/svg" viewBox="0 0 24 24"><path d="M7.002 11A5 5 0 0 1 9.95 6.44a3.001 3.001 0 1 0-4.78 2.936c-1.173.62-2.744 2.331-3.012 3.38A4.2 4.2 0 0 0 2.005 14c.004.197.013.34.034.47a3 3 0 0 0 2.494 2.493c.137.022.29.03.507.034.046-.248.118-.493.18-.737.259-1.011.994-2 1.618-2.693q.267-.296.57-.59A5 5 0 0 1 7.003 11m11.961 5.997c.216-.003.37-.012.507-.034a3 3 0 0 0 2.494-2.494c.02-.129.03-.272.034-.469a4.2 4.2 0 0 0-.153-1.244c-.268-1.049-1.839-2.76-3.013-3.38a3 3 0 1 0-4.78-2.937 5 5 0 0 1 2.542 6.539q.305.292.57.589c.625.693 1.36 1.682 1.619 2.693.062.244.134.49.18.737M15.002 11c0 .967-.458 1.828-1.169 2.376 1.174.62 2.745 2.331 3.013 3.38.148.578.214 1.112.119 1.713a3 3 0 0 1-2.494 2.494c-.233.037-.512.037-1.07.037h-2.8c-.557 0-.835 0-1.068-.037a3 3 0 0 1-2.494-2.494c-.096-.601-.03-1.135.119-1.713.268-1.049 1.839-2.76 3.012-3.38A3 3 0 1 1 15.002 11"/></svg>