<svg xmlns="http://www.w3.org/2000/svg" viewBox="0 0 16 16"><path fill-rule="evenodd" d="M12.485 11.498c.402-.004.654-.02.871-.081a2.25 2.25 0 0 0 1.56-1.561C15 9.558 15 9.194 15 8.466c0-.445 0-.668-.271-1.342-.205-.507-.945-1.336-1.546-1.779A3 3 0 0 0 8 2.342a3 3 0 0 0-5.183 3.003c-.6.443-1.341 1.272-1.546 1.779C1 7.798 1 8.02 1 8.466c0 .728 0 1.092.083 1.39a2.25 2.25 0 0 0 1.561 1.56c.217.061.47.078.872.082-.018.153-.018.299-.018.48 0 .717 0 1.075.08 1.368a2.25 2.25 0 0 0 1.574 1.573c.293.081.651.081 1.367.081h2.963c.716 0 1.074 0 1.367-.08a2.25 2.25 0 0 0 1.573-1.574c.08-.293.08-.651.08-1.367 0-.182 0-.328-.018-.48M3.249 9.991c.175.008.406.008.785.008h.125a6.4 6.4 0 0 1 1.16-1.151A3 3 0 0 1 6.797 4.75l.036-.062.008-.015a1.5 1.5 0 1 0-2.683 0l.06.12c.17.264.407.421.575.533.12.08.206.137.206.193 0 .159-.184.275-.465.452q-.154.095-.338.22l-.489.361a4.7 4.7 0 0 0-.958.994c-.056.082-.08.127-.086.138-.117.29-.143.404-.151.453-.009.05-.012.091-.012.33 0 .377 0 .609.008.784.008.167.021.206.02.2a.75.75 0 0 0 .52.52c.005.002.053.013.2.02m5.956-5.239a3 3 0 0 1 1.476 4.095c.388.285.837.734 1.16 1.152h.125c.379 0 .61 0 .785-.008.147-.007.195-.018.2-.02a.75.75 0 0 0 .52-.52 1.3 1.3 0 0 0 .02-.2c.008-.175.008-.407.008-.785 0-.238-.003-.28-.012-.329-.008-.049-.034-.162-.15-.453a1 1 0 0 0-.087-.138 4.7 4.7 0 0 0-.958-.994l-.502-.37a9 9 0 0 0-.325-.212c-.28-.176-.465-.292-.465-.45 0-.057.085-.114.207-.194.166-.111.401-.267.572-.528l.063-.125a1.5 1.5 0 1 0-2.687-.006q.023.045.05.085m.172 4.999a7 7 0 0 0-.412-.272c-.28-.177-.465-.293-.465-.452 0-.056.086-.113.207-.194.16-.106.381-.254.55-.495l.083-.166A1.5 1.5 0 1 0 6.5 7.5v.036c.006.231.062.446.159.637l.076.152c.17.25.396.4.559.508.12.08.206.138.206.194 0 .159-.185.275-.465.452l-.006.004c-.128.08-.277.174-.436.29l-.385.284a4.7 4.7 0 0 0-.958.992 1 1 0 0 0-.087.138c-.117.29-.143.405-.152.455a2 2 0 0 0-.012.337c0 .372 0 .6.008.772.007.155.019.198.019.198a.75.75 0 0 0 .524.523s.042.012.197.019c.172.008.4.008.772.008h2.963c.372 0 .6 0 .772-.008a1 1 0 0 0 .197-.019.75.75 0 0 0 .524-.524s.011-.042.018-.197c.008-.172.009-.4.009-.772 0-.242-.004-.286-.013-.337-.008-.05-.035-.165-.152-.455a1 1 0 0 0-.087-.139 4.7 4.7 0 0 0-.958-.992z"/></svg>