<svg xmlns="http://www.w3.org/2000/svg" viewBox="0 0 24 24"><path fill-rule="evenodd" d="M18.002 17c.943 0 1.422-.002 1.814-.113a3 3 0 0 0 2.073-2.073c.113-.399.113-.887.113-1.864 0-.594 0-.89-.362-1.79-.272-.675-1.26-1.78-2.06-2.37A4 4 0 1 0 12.002 7a4 4 0 1 0-7.578 1.79c-.8.59-1.788 1.695-2.06 2.37-.362.9-.362 1.196-.362 1.79 0 .977 0 1.465.113 1.864a3 3 0 0 0 2.073 2.073c.392.111.87.113 1.814.113 0 .943.002 1.422.113 1.814a3 3 0 0 0 2.073 2.073c.399.113.887.113 1.864.113h3.9c.977 0 1.465 0 1.864-.113a3 3 0 0 0 2.073-2.073c.111-.392.113-.87.113-1.814M6.438 15c.346-.68 1.246-1.664 1.986-2.21a4 4 0 0 1 1.491-5.203 2 2 0 1 0-3.722.267c.239.477.652.736.93.91.172.108.292.184.292.259 0 .2-.252.348-.616.563-.171.101-.368.217-.574.36l-.613.453a6.3 6.3 0 0 0-1.278 1.325c-.075.108-.107.17-.115.184l-.001.004v-.003c-.155.385-.189.538-.2.602-.012.066-.016.122-.016.439 0 .507 0 .818.012 1.053.01.21.026.27.026.27a1 1 0 0 0 .69.69c-.007-.003.045.014.269.025.235.011.545.012 1.053.012zm7.65-7.413a4 4 0 0 1 1.492 5.203c.74.546 1.64 1.53 1.986 2.21h.386c.507 0 .818 0 1.053-.012.224-.01.276-.028.268-.025a1 1 0 0 0 .691-.691 2 2 0 0 0 .026-.269c.011-.235.012-.546.012-1.053 0-.317-.004-.373-.016-.439-.011-.064-.046-.217-.201-.603a2 2 0 0 0-.115-.184 6.3 6.3 0 0 0-1.277-1.325l-.615-.453a9 9 0 0 0-.573-.36c-.364-.215-.616-.364-.616-.563 0-.075.12-.15.291-.258.28-.175.692-.434.931-.91a2 2 0 0 0 .19-.855 2 2 0 1 0-3.912.587m-.31 6.359a9 9 0 0 0-.573-.36c-.364-.215-.616-.364-.616-.563 0-.075.12-.151.291-.258.28-.175.692-.434.931-.91a2 2 0 0 0 .191-.855 2 2 0 1 0-3.81.854c.24.477.653.736.932.91.17.108.291.184.291.259 0 .2-.252.348-.616.563a9 9 0 0 0-.574.36l-.613.453a6.3 6.3 0 0 0-1.278 1.325c-.075.108-.107.17-.115.184l-.001.004v-.003c-.155.385-.189.538-.2.602-.012.066-.016.122-.016.439 0 .507 0 .818.012 1.053.01.21.026.268.026.268a1 1 0 0 0 .69.691c-.007-.002.045.015.269.026.235.012.545.012 1.053.012h3.9c.507 0 .818 0 1.053-.012.224-.01.276-.028.268-.026a1 1 0 0 0 .691-.69 2 2 0 0 0 .026-.269c.011-.235.012-.546.012-1.053 0-.317-.004-.373-.016-.439-.011-.064-.046-.216-.202-.603a2 2 0 0 0-.114-.184 6.3 6.3 0 0 0-1.277-1.325z"/></svg>