<svg xmlns="http://www.w3.org/2000/svg" viewBox="0 0 24 24"><path fill-rule="evenodd" d="M7.945 4.168C9.098 4.068 10.45 4 12 4s2.902.068 4.055.168c2.025.176 3.037.264 4.327 1.558s1.37 2.265 1.532 4.206a25 25 0 0 1 0 4.137c-.162 1.941-.243 2.912-1.532 4.206s-2.302 1.382-4.327 1.558c-1.153.1-2.505.168-4.055.168a47 47 0 0 1-4.055-.168c-2.024-.176-3.036-.264-4.326-1.558-1.29-1.293-1.37-2.264-1.532-4.204a25 25 0 0 1 0-4.14C2.25 7.99 2.33 7.018 3.62 5.725s2.302-1.382 4.326-1.558M8.5 8.5a1 1 0 1 1-2 0 1 1 0 0 1 2 0m2 1a1 1 0 1 0 0-2 1 1 0 0 0 0 2m3 0a1 1 0 1 0 0-2 1 1 0 0 0 0 2m3 0a1 1 0 1 0 0-2 1 1 0 0 0 0 2m-7.5 3a1 1 0 1 0 0-2 1 1 0 0 0 0 2m3 0a1 1 0 1 0 0-2 1 1 0 0 0 0 2m3 0a1 1 0 1 0 0-2 1 1 0 0 0 0 2m-6 2a1 1 0 1 0 0 2h6a1 1 0 1 0 0-2z"/></svg>