<svg xmlns="http://www.w3.org/2000/svg" viewBox="0 0 16 16"><path fill-rule="evenodd" d="M2.054 6.616c.13-1.744.195-2.616 1.07-3.491s1.747-.94 3.491-1.07A19 19 0 0 1 8 2.001c.466 0 .933.02 1.385.054 1.744.13 2.616.195 3.491 1.07s.94 1.747 1.07 3.491c.034.452.054.919.054 1.385s-.02.933-.054 1.385c-.13 1.744-.195 2.616-1.07 3.491s-1.747.94-3.491 1.07C8.933 13.98 8.466 14 8 14s-.933-.02-1.385-.054c-1.744-.13-2.616-.195-3.491-1.07s-.94-1.747-1.07-3.491A19 19 0 0 1 2 8c0-.466.02-.933.054-1.385m2.013 5.076q.054.06.118.124c.42.42.697.498 2.542.635.42.031.85.05 1.273.05s.852-.019 1.273-.05c1.845-.137 2.122-.214 2.542-.635.42-.42.498-.697.635-2.542l.01-.15s-.17-.472-.267-.733c0 0-.064-.18-.45-1.051-.388-.871-.825-1.34-1.21-1.34s-.644.444-1.158 1.337L8.28 9.521c-.165.329-.448.48-.741.479-.3-.001-.613-.163-.823-.474C6.509 9.223 6.273 9 6.002 9c-.384 0-.64.446-1.15 1.333l-.006.01zM7.75 6a1.25 1.25 0 1 0-2.5 0 1.25 1.25 0 0 0 2.5 0"/></svg>