<svg xmlns="http://www.w3.org/2000/svg" viewBox="0 0 44 44"><path fill-rule="evenodd" d="M10.738 32.38q.192.228.424.459c1.512 1.513 2.708 1.707 7.682 2.048C19.889 34.958 20.95 35 22 35s2.112-.042 3.156-.113c4.974-.341 6.17-.535 7.683-2.048 1.283-1.284 1.617-2.34 1.898-5.668C33.877 24.532 31.089 16.5 29 16.5c-1.5 0-2.75 2.875-4 5.75S22.5 28 21 28c-1.223 0-1.85-1.218-2.452-2.386-.555-1.078-1.088-2.114-2.048-2.114-2.11 0-4.934 6.772-5.762 8.88M6.12 18.64c.328-4.78.492-7.171 2.92-9.6s4.819-2.592 9.6-2.92C19.74 6.046 20.87 6 22 6s2.26.045 3.36.12c4.781.328 7.172.492 9.6 2.92s2.592 4.82 2.92 9.6c.075 1.1.12 2.23.12 3.36s-.045 2.26-.12 3.36c-.328 4.781-.492 7.172-2.92 9.6s-4.819 2.592-9.6 2.92c-1.1.075-2.23.12-3.36.12s-2.26-.045-3.36-.12c-4.781-.328-7.171-.492-9.6-2.92s-2.592-4.819-2.92-9.6A49 49 0 0 1 6 22c0-1.13.045-2.26.12-3.36M18.5 20a3.5 3.5 0 1 0 0-7 3.5 3.5 0 0 0 0 7"/></svg>