<svg xmlns="http://www.w3.org/2000/svg" viewBox="0 0 24 24"><path d="M11.75 9a1.75 1.75 0 1 0-3.5 0 1.75 1.75 0 0 0 3.5 0"/><path fill-rule="evenodd" d="M3.081 9.924C3.276 7.308 3.373 6 4.686 4.687c1.313-1.312 2.62-1.41 5.237-1.604C10.6 3.032 11.3 3 12 3s1.399.031 2.077.082c2.616.194 3.924.292 5.237 1.604s1.41 2.621 1.605 5.237c.05.678.081 1.378.081 2.078 0 .699-.03 1.398-.081 2.077-.195 2.616-.292 3.924-1.605 5.236-1.313 1.313-2.62 1.41-5.237 1.605-.678.05-1.377.081-2.077.081s-1.399-.03-2.077-.08c-2.616-.195-3.924-.293-5.237-1.605s-1.41-2.621-1.605-5.237A28 28 0 0 1 3 12c0-.7.03-1.399.081-2.077m6.99-4.847A26 26 0 0 1 12 5.001c.642 0 1.292.029 1.929.076 2.75.205 3.265.318 3.97 1.025.707.706.82 1.22 1.025 3.97.048.638.076 1.287.076 1.93 0 .642-.028 1.291-.076 1.928q-.03.426-.06.784c-.492-1.832-.765-2.478-1.333-3.708C17.059 9.986 16.375 9 15.797 9s-1.275 1.06-1.734 2.006-1.645 3.277-1.645 3.277c-.242.484-.65.718-1.062.717-.438 0-.882-.265-1.14-.778C9.875 13.544 9.474 13 9.004 13c-.578 0-.963.67-1.732 2.006l-.002.005-1.332 2.719c-.563-.634-.675-1.275-.862-3.8A26 26 0 0 1 5 12.002c0-.643.028-1.292.076-1.93.204-2.75.318-3.264 1.024-3.97s1.22-.82 3.971-1.025"/></svg>