<svg xmlns="http://www.w3.org/2000/svg" viewBox="0 0 16 16"><path d="M6.936 1.013c.41-.077.803.2.878.619a.77.77 0 0 1-.607.896 4.88 4.88 0 0 0-2.885 1.72c-.546.668-.947 1.655-1.065 2.349a4 4 0 0 0-.072.76c.005.163.026.3.064.548l.01.065.019.112c.087.52.281 1.681-.42 2.637a.744.744 0 0 1-1.056.154.78.78 0 0 1-.151-1.078c.3-.409.218-.938.121-1.568L1.77 8.21l-.012-.077a5.5 5.5 0 0 1-.08-.73c-.01-.306.019-.632.094-1.07.159-.934.66-2.177 1.392-3.072a6.4 6.4 0 0 1 3.772-2.248m1.427.713a.755.755 0 0 1 .878-.62 6.4 6.4 0 0 1 3.772 2.249A6.63 6.63 0 0 1 14.5 7.549c0 .425-.338.77-.754.77a.76.76 0 0 1-.754-.77 5.07 5.07 0 0 0-1.138-3.208A4.88 4.88 0 0 0 8.97 2.622a.77.77 0 0 1-.607-.896M14.5 9.732a.763.763 0 0 0-.738-.787.76.76 0 0 0-.77.754c-.01.49-.093.736-.233 1.15l-.082.248a.774.774 0 0 0 .477.974.75.75 0 0 0 .954-.487q.033-.105.07-.21c.149-.436.306-.899.322-1.642m-8.629.345a.76.76 0 0 0-.754-.77.76.76 0 0 0-.754.77c0 .517-.274 1.452-.933 2.461a.78.78 0 0 0 .21 1.068.744.744 0 0 0 1.045-.213c.755-1.157 1.186-2.39 1.186-3.317"/><path d="M6.666 4.19a3.5 3.5 0 0 1 2.314-.186 3.58 3.58 0 0 1 1.94 1.302 3.7 3.7 0 0 1 .751 2.219l.002.04a22 22 0 0 1 .028.732c.01.442.01 1.022-.033 1.492l-.004.037c-.082.873-.195 2.082-.922 4.125a.75.75 0 0 1-.967.46.775.775 0 0 1-.45-.986c.662-1.86.761-2.925.837-3.73l.005-.053c.035-.375.036-.878.026-1.309a24 24 0 0 0-.025-.684l-.003-.04v-.013l-.002-.024V7.55c0-.47-.153-.927-.435-1.299a2.07 2.07 0 0 0-1.123-.754 2.03 2.03 0 0 0-1.34.108 2.1 2.1 0 0 0-.994.923 2.15 2.15 0 0 0-.257 1.022c0 .425-.338.77-.754.77a.76.76 0 0 1-.754-.77c0-.614.15-1.221.443-1.764A3.6 3.6 0 0 1 6.666 4.19"/><path d="M7.292 7.67c.198 1.41-.274 3.962-1.303 6.237a.777.777 0 0 0 .37 1.022.747.747 0 0 0 1-.377c1.093-2.42 1.681-5.285 1.426-7.101a.757.757 0 0 0-.853-.653.77.77 0 0 0-.64.872"/></svg>