<svg xmlns="http://www.w3.org/2000/svg" viewBox="0 0 24 24"><path d="M10.496 2.017a1.005 1.005 0 0 1 1.165.83c.1.561-.261 1.099-.805 1.201a7.03 7.03 0 0 0-4.16 2.501c-.788.975-1.365 2.408-1.535 3.418-.092.545-.112.861-.105 1.11.007.24.038.443.092.796l.015.096.026.162c.125.751.396 2.39-.586 3.737a.983.983 0 0 1-1.402.207A1.053 1.053 0 0 1 3 14.63c.446-.615.325-1.405.19-2.296l-.008-.043-.017-.112c-.05-.328-.102-.663-.113-1.041-.013-.433.027-.897.133-1.524.225-1.334.937-3.11 1.971-4.387a9.02 9.02 0 0 1 5.339-3.21m2.095.966c.1-.561.622-.933 1.166-.83a9.02 9.02 0 0 1 5.339 3.21A9.52 9.52 0 0 1 21.2 11.35c0 .57-.449 1.033-1.002 1.033-.554 0-1.002-.462-1.002-1.033a7.42 7.42 0 0 0-1.64-4.665 7.03 7.03 0 0 0-4.16-2.501c-.544-.103-.905-.64-.805-1.201M21.2 14.491c.011-.57-.428-1.042-.981-1.054s-1.011.44-1.023 1.01c-.015.719-.137 1.083-.336 1.68l-.117.355c-.175.54.108 1.126.633 1.306a.996.996 0 0 0 1.268-.653l.1-.303h.001c.212-.628.433-1.283.455-2.341m-12.311.499c0-.571-.449-1.033-1.002-1.033-.554 0-1.002.462-1.002 1.032 0 .765-.399 2.125-1.344 3.586a1.05 1.05 0 0 0 .278 1.432.984.984 0 0 0 1.39-.286c1.073-1.659 1.68-3.417 1.68-4.732"/><path d="M10.126 6.585a4.9 4.9 0 0 1 3.254-.263 5.03 5.03 0 0 1 2.727 1.847 5.3 5.3 0 0 1 1.057 3.15l.003.06a33 33 0 0 1 .039 1.051c.014.636.016 1.466-.047 2.138l-.005.054c-.116 1.254-.277 2.986-1.312 5.918a.994.994 0 0 1-1.284.618 1.04 1.04 0 0 1-.6-1.323c.949-2.687 1.092-4.226 1.2-5.39l.006-.074c.051-.544.052-1.273.039-1.893a35 35 0 0 0-.037-.988l-.003-.058-.001-.015v-.003l-.002-.032v-.032c0-.694-.224-1.367-.637-1.916a3.03 3.03 0 0 0-1.642-1.112 2.95 2.95 0 0 0-1.96.159 3.07 3.07 0 0 0-1.453 1.362 3.2 3.2 0 0 0-.376 1.507c0 .57-.449 1.033-1.002 1.033s-1.002-.462-1.002-1.033c0-.87.213-1.732.624-2.502a5.1 5.1 0 0 1 2.414-2.263"/><path d="M11.063 11.514c.285 2.05-.395 5.739-1.865 9.02a1.046 1.046 0 0 0 .49 1.37.99.99 0 0 0 1.33-.504c1.557-3.476 2.39-7.585 2.029-10.18-.079-.564-.587-.956-1.134-.875-.548.08-.928.604-.85 1.168"/></svg>