<svg xmlns="http://www.w3.org/2000/svg" viewBox="0 0 44 44"><path fill-rule="evenodd" d="M4.124 9.907c-.126.666-.126 1.466-.126 3.065v10.726q.01.239.018.484c.011.356.023.715.048 1.043.268 3.5.46 5.249 2.842 7.643s4.243 2.547 7.965 2.853c2.037.167 4.414.279 7.127.279s5.088-.112 7.125-.279c3.724-.305 5.586-.458 7.968-2.853s2.516-4.146 2.783-7.647a42 42 0 0 0 0-6.427c-.267-3.501-.4-5.252-2.783-7.647s-4.245-2.548-7.969-2.853a87 87 0 0 0-7.124-.279 3.08 3.08 0 0 1-2.182-.895l-.493-.492c-.496-.496-.744-.743-1.004-.96a7.26 7.26 0 0 0-3.955-1.637C14.027 4 13.677 4 12.975 4c-1.6 0-2.4 0-3.067.126a7.25 7.25 0 0 0-5.784 5.78M22.002 15a1.5 1.5 0 0 1 1.5 1.5v3.996h3.996a1.5 1.5 0 1 1 0 3h-3.996V27.5a1.5 1.5 0 1 1-3 0v-4.004h-4.004a1.5 1.5 0 0 1 0-3h4.004V16.5a1.5 1.5 0 0 1 1.5-1.5"/></svg>