<svg xmlns="http://www.w3.org/2000/svg" viewBox="0 0 17 17"><path fill-rule="evenodd" d="M1.13 9.903c.12 1.257.18 1.886 1.03 2.731s1.54.908 2.922 1.032c.94.084 2.08.145 3.417.145s2.477-.06 3.416-.145c1.383-.124 2.074-.186 2.924-1.032.85-.845.91-1.474 1.03-2.732a15 15 0 0 0 0-2.806c-.12-1.258-.18-1.887-1.03-2.732s-1.542-.908-2.924-1.032a36 36 0 0 0-1.869-.117c-.712-.026-1.067-.04-1.361-.14a2 2 0 0 1-.298-.126c-.275-.143-.513-.373-.989-.834-.258-.25-.387-.376-.526-.48-.397-.3-.867-.49-1.36-.551-.173-.022-.353-.022-.713-.022-.84 0-1.26 0-1.606.089a2.83 2.83 0 0 0-2.042 2.042c-.089.346-.089.766-.089 1.606v3.674c0 .494.026.99.068 1.43m4.445-1.404c0-.44.357-.797.797-.797h1.33L7.7 6.375a.797.797 0 1 1 1.594-.002v1.33h1.327a.797.797 0 0 1 0 1.593H9.297l.002 1.327a.797.797 0 1 1-1.594.002l-.001-1.33H6.372a.797.797 0 0 1-.797-.796"/></svg>