<svg xmlns="http://www.w3.org/2000/svg" viewBox="0 0 32 32"><path d="M21.5 16.001c0 .69-.56 1.25-1.25 1.25h-3v2.999a1.25 1.25 0 0 1-2.5 0v-2.999h-3a1.25 1.25 0 0 1 0-2.5h3V11.75a1.25 1.25 0 1 1 2.5 0v3.001h3c.69 0 1.25.56 1.25 1.25"/><path fill-rule="evenodd" d="M26.9 8.272c1.739 1.75 1.832 3.015 2.017 5.546a30 30 0 0 1 0 4.364c-.186 2.53-.278 3.796-2.016 5.546s-3.094 1.859-5.805 2.076c-1.46.118-3.16.196-5.098.196s-3.639-.078-5.1-.196c-2.71-.217-4.065-.326-5.802-2.076-1.738-1.75-1.831-3.014-2.017-5.544a31 31 0 0 1-.081-2.238V9.6c0-1.177 0-1.765.093-2.255a5.33 5.33 0 0 1 4.252-4.253C7.833 3 8.42 3 9.598 3c.515 0 .773 0 1.02.023 1.069.1 2.082.52 2.908 1.204.191.16.374.341.738.706l.601.6c.3.301.709.467 1.133.467 1.937 0 3.637.078 5.098.195 2.711.218 4.067.327 5.805 2.077M5.499 15.95c0 .694.027 1.413.074 2.05.1 1.35.16 1.985.321 2.508.122.393.332.809.976 1.457.623.628 1.05.848 1.493.984.581.177 1.297.247 2.737.362 1.394.112 3.028.188 4.899.188s3.504-.076 4.898-.187c1.44-.116 2.156-.186 2.738-.363.443-.136.87-.356 1.493-.984.644-.648.854-1.065.976-1.458.162-.523.222-1.159.32-2.509a27 27 0 0 0 0-3.998c-.098-1.35-.158-1.986-.32-2.51-.122-.393-.332-.809-.976-1.457-.623-.628-1.05-.848-1.493-.984-.582-.177-1.298-.247-2.738-.363a61 61 0 0 0-4.898-.187 4.1 4.1 0 0 1-2.9-1.198l-.601-.601c-.398-.398-.486-.482-.566-.549a2.83 2.83 0 0 0-1.545-.64c-.105-.01-.226-.012-.788-.012-1.29 0-1.59.01-1.792.05a2.83 2.83 0 0 0-2.259 2.258c-.038.203-.049.501-.049 1.792z"/></svg>