<svg width="44" height="44" viewBox="0 0 44 44" fill="none" xmlns="http://www.w3.org/2000/svg">
<g clip-path="url(#clip0_28728_8180)">
<path d="M29.7559 10.207C26.2539 6.70508 24.1455 5.01063 23.2094 4.4531C22.58 4.11703 21.54 4.00009 20.6436 4.00005L19.5986 4L19.6001 4.00307C18.8797 4.01286 18.1914 4.04574 17.5375 4.09608C14.863 4.30197 13.5257 4.40492 11.1858 6.69517C8.84587 8.98543 8.69164 10.5495 8.38317 13.6777C8.15793 15.9618 8 18.738 8 22C8 24.7127 8.11192 27.0893 8.27916 29.1264C8.58474 32.8488 8.73754 34.7099 11.1333 37.0922C13.5291 39.4745 15.2799 39.6083 18.7814 39.8759C19.7996 39.9537 20.8773 40 22 40C23.1228 40 24.2005 39.9537 25.2188 39.8759C28.7202 39.6083 30.4708 39.4745 32.8666 37.0923C35.2624 34.71 35.4152 32.8489 35.7208 29.1267C35.8881 27.0896 36 24.7128 36 22C36 20.5088 36.0352 17.6289 35.5508 16.7773C35.4846 16.661 35.3615 16.5887 35.214 16.3981C34.4247 15.3781 32.7065 13.1577 29.7559 10.207Z" fill="url(#paint0_linear_28728_8180)"/>
<path d="M15.027 20.8076C15.0919 19.9356 15.1244 19.4996 15.562 19.062C15.9996 18.6244 16.4356 18.5919 17.3076 18.527C17.5337 18.5102 17.7668 18.5 18 18.5C18.2332 18.5 18.4663 18.5102 18.6924 18.527C19.5644 18.5919 20.0004 18.6244 20.438 19.062C20.8756 19.4996 20.9081 19.9356 20.973 20.8076C20.9898 21.0337 21 21.2668 21 21.5C21 21.7332 20.9898 21.9663 20.973 22.1924C20.9081 23.0644 20.8756 23.5004 20.438 23.938C20.0004 24.3756 19.5644 24.4081 18.6924 24.473C18.4663 24.4898 18.2332 24.5 18 24.5C17.7668 24.5 17.5337 24.4898 17.3076 24.473C16.4356 24.4081 15.9996 24.3756 15.562 23.938C15.1244 23.5004 15.0919 23.0644 15.027 22.1924C15.0102 21.9663 15 21.7332 15 21.5C15 21.2668 15.0102 21.0337 15.027 20.8076Z" fill="white"/>
<path d="M15.027 28.8076C15.0919 27.9356 15.1244 27.4996 15.562 27.062C15.9996 26.6244 16.4356 26.5919 17.3076 26.527C17.5337 26.5102 17.7668 26.5 18 26.5C18.2332 26.5 18.4663 26.5102 18.6924 26.527C19.5644 26.5919 20.0004 26.6244 20.438 27.062C20.8756 27.4996 20.9081 27.9356 20.973 28.8076C20.9898 29.0337 21 29.2668 21 29.5C21 29.7332 20.9898 29.9663 20.973 30.1924C20.9081 31.0644 20.8756 31.5004 20.438 31.938C20.0004 32.3756 19.5644 32.4081 18.6924 32.473C18.4663 32.4898 18.2332 32.5 18 32.5C17.7668 32.5 17.5337 32.4898 17.3076 32.473C16.4356 32.4081 15.9996 32.3756 15.562 31.938C15.1244 31.5004 15.0919 31.0644 15.027 30.1924C15.0102 29.9663 15 29.7332 15 29.5C15 29.2668 15.0102 29.0337 15.027 28.8076Z" fill="white"/>
<path d="M23.562 19.062C23.1244 19.4996 23.0919 19.9356 23.027 20.8076C23.0102 21.0337 23 21.2668 23 21.5C23 21.7332 23.0102 21.9663 23.027 22.1924C23.0919 23.0644 23.1244 23.5004 23.562 23.938C23.9996 24.3756 24.4356 24.4081 25.3076 24.473C25.5337 24.4898 25.7668 24.5 26 24.5C26.2332 24.5 26.4663 24.4898 26.6924 24.473C27.5644 24.4081 28.0004 24.3756 28.438 23.938C28.8756 23.5004 28.9081 23.0644 28.973 22.1924C28.9898 21.9663 29 21.7332 29 21.5C29 21.2668 28.9898 21.0337 28.973 20.8076C28.9081 19.9356 28.8756 19.4996 28.438 19.062C28.0004 18.6244 27.5644 18.5919 26.6924 18.527C26.4663 18.5102 26.2332 18.5 26 18.5C25.7668 18.5 25.5337 18.5102 25.3076 18.527C24.4356 18.5919 23.9996 18.6244 23.562 19.062Z" fill="white"/>
<path d="M23.027 28.8076C23.0919 27.9356 23.1244 27.4996 23.562 27.062C23.9996 26.6244 24.4356 26.5919 25.3076 26.527C25.5337 26.5102 25.7668 26.5 26 26.5C26.2332 26.5 26.4663 26.5102 26.6924 26.527C27.5644 26.5919 28.0004 26.6244 28.438 27.062C28.8756 27.4996 28.9081 27.9356 28.973 28.8076C28.9898 29.0337 29 29.2668 29 29.5C29 29.7332 28.9898 29.9663 28.973 30.1924C28.9081 31.0644 28.8756 31.5004 28.438 31.938C28.0004 32.3756 27.5644 32.4081 26.6924 32.473C26.4663 32.4898 26.2332 32.5 26 32.5C25.7668 32.5 25.5337 32.4898 25.3076 32.473C24.4356 32.4081 23.9996 32.3756 23.562 31.938C23.1244 31.5004 23.0919 31.0644 23.027 30.1924C23.0102 29.9663 23 29.7332 23 29.5C23 29.2668 23.0102 29.0337 23.027 28.8076Z" fill="white"/>
<path d="M35.5711 16.8017C33.6427 11.4327 27.987 6.3383 23.168 4.42969C25.506 7.51031 24.457 12.8831 25.7983 14.2243C27.4018 15.8278 32.868 14.6089 35.5711 16.8017Z" fill="#D0D2D5"/>
</g>
<defs>
<linearGradient id="paint0_linear_28728_8180" x1="1.50692" y1="7.5" x2="43.1298" y2="15.9379" gradientUnits="userSpaceOnUse">
<stop stop-color="#CCD0D4"/>
<stop offset="1" stop-color="#7F868D"/>
</linearGradient>
<clipPath id="clip0_28728_8180">
<rect width="44" height="44" fill="white"/>
</clipPath>
</defs>
</svg>
