<svg width="32" height="32" viewBox="0 0 32 32" fill="none" xmlns="http://www.w3.org/2000/svg">
<g clip-path="url(#clip0_28728_8185)">
<path d="M21.541 7.48286C19.04 4.95367 17.5343 3.7299 16.8657 3.32724C16.4163 3.08452 15.6735 3.00006 15.0333 3.00003L14.287 3L14.2881 3.00221C13.7736 3.00929 13.282 3.03304 12.815 3.06939C10.905 3.21809 9.94995 3.29244 8.27883 4.94652C6.60772 6.60059 6.49757 7.7302 6.27727 9.98943C6.11641 11.6391 6 13.6441 6 16C6 17.9381 6.07824 19.6387 6.19556 21.0994C6.41325 23.8095 6.5221 25.1645 8.27174 26.9023C10.0214 28.6401 11.2861 28.7331 13.8157 28.919C14.5091 28.97 15.2401 29 16 29C16.7599 29 17.491 28.97 18.1844 28.919C20.7139 28.7331 21.9786 28.6401 23.7282 26.9023C25.4778 25.1646 25.5867 23.8096 25.8044 21.0996C25.9217 19.6389 26.0008 17.9382 26.0008 16C26.0008 14.923 26.0255 12.8431 25.6796 12.2281C25.6323 12.144 25.5444 12.0918 25.4391 11.9542C24.8754 11.2175 23.6483 9.6139 21.541 7.48286Z" fill="url(#paint0_linear_28728_8185)"/>
<path d="M10.9279 15.1329C10.9751 14.4987 10.9987 14.1816 11.3169 13.8633C11.6352 13.545 11.9523 13.5214 12.5865 13.4742C12.7509 13.462 12.9204 13.4546 13.09 13.4546C13.2596 13.4546 13.4292 13.462 13.5936 13.4742C14.2278 13.5214 14.5448 13.545 14.8631 13.8633C15.1814 14.1816 15.205 14.4987 15.2522 15.1329C15.2644 15.2972 15.2718 15.4668 15.2718 15.6364C15.2718 15.806 15.2644 15.9756 15.2522 16.14C15.205 16.7741 15.1814 17.0912 14.8631 17.4095C14.5448 17.7278 14.2278 17.7514 13.5936 17.7986C13.4292 17.8108 13.2596 17.8182 13.09 17.8182C12.9204 17.8182 12.7509 17.8108 12.5865 17.7986C11.9523 17.7514 11.6352 17.7278 11.3169 17.4095C10.9987 17.0912 10.9751 16.7741 10.9279 16.14C10.9156 15.9756 10.9082 15.806 10.9082 15.6364C10.9082 15.4668 10.9156 15.2972 10.9279 15.1329Z" fill="white"/>
<path d="M10.9279 20.951C10.9751 20.3169 10.9987 19.9998 11.3169 19.6815C11.6352 19.3632 11.9523 19.3396 12.5865 19.2924C12.7509 19.2802 12.9204 19.2728 13.09 19.2728C13.2596 19.2728 13.4292 19.2802 13.5936 19.2924C14.2278 19.3396 14.5448 19.3632 14.8631 19.6815C15.1814 19.9998 15.205 20.3169 15.2522 20.951C15.2644 21.1154 15.2718 21.285 15.2718 21.4546C15.2718 21.6242 15.2644 21.7938 15.2522 21.9581C15.205 22.5923 15.1814 22.9094 14.8631 23.2277C14.5448 23.546 14.2278 23.5696 13.5936 23.6168C13.4292 23.629 13.2596 23.6364 13.09 23.6364C12.9204 23.6364 12.7509 23.629 12.5865 23.6168C11.9523 23.5696 11.6352 23.546 11.3169 23.2277C10.9987 22.9094 10.9751 22.5923 10.9279 21.9581C10.9156 21.7938 10.9082 21.6242 10.9082 21.4546C10.9082 21.285 10.9156 21.1154 10.9279 20.951Z" fill="white"/>
<path d="M17.1351 13.8633C16.8168 14.1816 16.7932 14.4987 16.746 15.1329C16.7338 15.2972 16.7264 15.4668 16.7264 15.6364C16.7264 15.806 16.7338 15.9756 16.746 16.14C16.7932 16.7741 16.8168 17.0912 17.1351 17.4095C17.4534 17.7278 17.7705 17.7514 18.4046 17.7986C18.569 17.8108 18.7386 17.8182 18.9082 17.8182C19.0778 17.8182 19.2474 17.8108 19.4118 17.7986C20.0459 17.7514 20.363 17.7278 20.6813 17.4095C20.9996 17.0912 21.0232 16.7741 21.0704 16.14C21.0826 15.9756 21.09 15.806 21.09 15.6364C21.09 15.4668 21.0826 15.2972 21.0704 15.1329C21.0232 14.4987 20.9996 14.1816 20.6813 13.8633C20.363 13.545 20.0459 13.5214 19.4118 13.4742C19.2474 13.462 19.0778 13.4546 18.9082 13.4546C18.7386 13.4546 18.569 13.462 18.4046 13.4742C17.7705 13.5214 17.4534 13.545 17.1351 13.8633Z" fill="white"/>
<path d="M16.746 20.951C16.7932 20.3169 16.8168 19.9998 17.1351 19.6815C17.4534 19.3632 17.7705 19.3396 18.4046 19.2924C18.569 19.2802 18.7386 19.2728 18.9082 19.2728C19.0778 19.2728 19.2474 19.2802 19.4118 19.2924C20.0459 19.3396 20.363 19.3632 20.6813 19.6815C20.9996 19.9998 21.0232 20.3169 21.0704 20.951C21.0826 21.1154 21.09 21.285 21.09 21.4546C21.09 21.6242 21.0826 21.7938 21.0704 21.9581C21.0232 22.5923 20.9996 22.9094 20.6813 23.2277C20.363 23.546 20.0459 23.5696 19.4118 23.6168C19.2474 23.629 19.0778 23.6364 18.9082 23.6364C18.7386 23.6364 18.569 23.629 18.4046 23.6168C17.7705 23.5696 17.4534 23.546 17.1351 23.2277C16.8168 22.9094 16.7932 22.5923 16.746 21.9581C16.7338 21.7938 16.7264 21.6242 16.7264 21.4546C16.7264 21.285 16.7338 21.1154 16.746 20.951Z" fill="white"/>
<path d="M25.6958 12.2459C24.3186 8.36828 20.2795 4.68899 16.8379 3.31055C18.5076 5.53544 17.7585 9.41576 18.7164 10.3844C19.8616 11.5425 23.7653 10.6622 25.6958 12.2459Z" fill="#D0D2D5"/>
</g>
<defs>
<linearGradient id="paint0_linear_28728_8185" x1="1.36189" y1="5.52778" x2="31.1193" y2="11.4942" gradientUnits="userSpaceOnUse">
<stop stop-color="#CCD0D4"/>
<stop offset="1" stop-color="#7F868D"/>
</linearGradient>
<clipPath id="clip0_28728_8185">
<rect width="32" height="32" fill="white"/>
</clipPath>
</defs>
</svg>
