<svg xmlns="http://www.w3.org/2000/svg" viewBox="0 0 32 32"><path d="M21.134 12.634a1.25 1.25 0 0 0-1.768-1.768l-4.252 4.25a1.25 1.25 0 1 0 1.768 1.768z"/><path fill-rule="evenodd" d="M21.965 25.5c.885 0 1.762-.277 2.396-.895A11.96 11.96 0 0 0 27.999 16c0-6.627-5.373-12-12-12s-12 5.373-12 12c0 3.375 1.394 6.425 3.637 8.605.634.617 1.51.895 2.396.895zm3.533-9.5c0 2.672-1.1 5.084-2.879 6.813-.066.064-.262.187-.654.187H10.03c-.392 0-.588-.123-.654-.187A9.46 9.46 0 0 1 6.498 16a9.5 9.5 0 1 1 19 0"/></svg>