<svg xmlns="http://www.w3.org/2000/svg" viewBox="0 0 24 24"><path fill-rule="evenodd" d="M11.498 21h1.754c1.063-.042 1.816-.087 2.532-.374 1.92-.767 2.925-2.656 3.078-4.626h.936q.355 0 .669-.024c1.45-.106 2.377-1.36 2.475-2.812a25 25 0 0 0 0-3.328c-.098-1.451-1.025-2.706-2.475-2.812A9 9 0 0 0 19.798 7H19c-.018-1.24-.116-1.943-.588-2.414C17.827 4 16.884 4 15 4H9.997c-1.885 0-2.827 0-3.413.586s-.586 1.528-.586 3.413v3.18a9.5 9.5 0 0 0-3.228 1.443C1.335 13.623.039 15.168-.001 17.121c-.048 2.337 1.929 4.299 4.378 3.804 1.029-.208 2.066-.426 3.12-.426s2.093.218 3.122.426c.3.06.623.075.879.075m3.13-2.119q.148-.026.271-.063c.238-.07.537-.208 1.057-.716.496-.485.648-.791.735-1.077.12-.397.162-.887.23-1.957.047-.76.077-1.616.077-2.568V7.999c0-.643 0-1.303-.057-1.942C16.3 6 15.64 6 14.999 6H9.997c-.642 0-1.303 0-1.942.057-.057.64-.057 1.3-.057 1.942v3.022c1.375.115 2.945.706 4.228 1.601 1.435 1 2.731 2.546 2.771 4.499a4 4 0 0 1-.369 1.76M18.998 9h.8q.282 0 .523.019c.144.01.251.064.356.19.123.147.245.407.269.76a23 23 0 0 1 0 3.061c-.024.354-.146.614-.269.761a.48.48 0 0 1-.357.19q-.24.019-.522.019h-.8zm-17 8.161c.019-.9.552-1.79 1.455-2.547l1.384 4.18q-.429.084-.856.17c-1.043.211-2.007-.586-1.983-1.803m4.934 1.354-1.657-5.003c.795-.337 1.595-.515 2.223-.512.628-.003 1.428.175 2.224.513l-1.657 5.002a10 10 0 0 0-1.133 0m3.229.28 1.383-4.18c.903.757 1.435 1.647 1.454 2.546.024 1.217-.94 2.014-1.983 1.803q-.426-.086-.854-.17"/></svg>