<svg xmlns="http://www.w3.org/2000/svg" viewBox="0 0 24 24"><path fill-rule="evenodd" d="M10.071 5.076A26 26 0 0 1 12 5c.642 0 1.292.028 1.929.076 2.75.204 3.265.318 3.97 1.024.707.706.82 1.22 1.025 3.971.048.637.076 1.287.076 1.929s-.028 1.292-.076 1.929c-.204 2.75-.318 3.265-1.024 3.97-.706.707-1.22.82-3.971 1.025-.637.048-1.287.076-1.929.076s-1.292-.028-1.929-.076c-2.75-.204-3.265-.318-3.97-1.024-.707-.706-.82-1.22-1.025-3.971A26 26 0 0 1 5 12c0-.642.028-1.292.076-1.929.204-2.75.318-3.265 1.024-3.97.706-.707 1.22-.82 3.971-1.025m-6.99 4.847c.195-2.616.292-3.924 1.605-5.237s2.62-1.41 5.237-1.605C10.6 3.031 11.3 3 12 3s1.399.03 2.077.081c2.616.195 3.924.292 5.237 1.605s1.41 2.62 1.605 5.237C20.969 10.6 21 11.3 21 12s-.03 1.399-.081 2.077c-.195 2.616-.292 3.924-1.605 5.237s-2.62 1.41-5.237 1.605C13.4 20.969 12.7 21 12 21s-1.399-.03-2.077-.081c-2.616-.195-3.924-.292-5.237-1.605s-1.41-2.62-1.605-5.237A28 28 0 0 1 3 12c0-.7.03-1.399.081-2.077m10.273-1.79c.322-.397.538-.948.48-1.497-.464.019-1.025.314-1.358.71-.298.351-.559.912-.488 1.45.517.041 1.045-.267 1.366-.663m1.16 3.483c.012 1.393 1.178 1.873 1.234 1.896l.002.001-.002.005c-.02.07-.206.69-.636 1.329-.384.57-.782 1.14-1.41 1.152-.301.005-.503-.084-.712-.176-.22-.096-.447-.197-.808-.197-.378 0-.616.104-.846.203-.2.087-.392.17-.663.181-.606.023-1.067-.618-1.455-1.187-.79-1.163-1.395-3.289-.583-4.723.403-.712 1.123-1.163 1.906-1.175.337-.007.663.125.95.24.218.089.412.167.57.167.14 0 .33-.076.55-.164.348-.14.774-.31 1.213-.265.3.012 1.143.123 1.685.93l-.004.002c-.08.049-1.002.62-.992 1.781"/></svg>