<svg xmlns="http://www.w3.org/2000/svg" viewBox="0 0 16 16"><path fill-rule="evenodd" d="M6.722 3.551c.423-.031.853-.05 1.277-.05.425 0 .855.019 1.277.05 1.844.138 2.12.215 2.539.634s.496.695.634 2.539c.031.422.05.852.05 1.277s-.019.855-.05 1.277c-.138 1.843-.215 2.12-.634 2.539s-.695.496-2.539.633c-.422.032-.852.05-1.277.05s-.854-.018-1.277-.05c-1.843-.137-2.12-.214-2.538-.633-.42-.42-.497-.696-.634-2.539a17 17 0 0 1-.05-1.277c0-.425.018-.855.05-1.277.137-1.844.214-2.12.634-2.539.419-.42.695-.496 2.538-.634M2.054 6.612c.13-1.742.195-2.613 1.07-3.488.873-.874 1.744-.939 3.486-1.069.454-.033.922-.054 1.39-.054s.935.02 1.388.054c1.742.13 2.613.195 3.487 1.07.874.874.94 1.745 1.07 3.487.033.453.054.921.054 1.389s-.02.935-.055 1.389c-.13 1.742-.195 2.613-1.069 3.487s-1.745.94-3.487 1.07a18 18 0 0 1-2.777-.002c-1.742-.13-2.613-.195-3.487-1.069s-.939-1.745-1.069-3.487A19 19 0 0 1 2 8c0-.467.02-.935.054-1.388M10.497 8.9c-.037-.014-.814-.322-.822-1.213-.007-.743.608-1.109.66-1.14q.003 0 .003-.002c-.36-.516-.923-.587-1.123-.595-.292-.029-.576.08-.808.17-.147.057-.273.105-.367.105-.105 0-.235-.05-.38-.106-.19-.074-.409-.158-.633-.154a1.51 1.51 0 0 0-1.27.752c-.542.918-.139 2.278.388 3.022.258.364.566.775.97.76.18-.007.309-.06.442-.116.153-.064.312-.13.564-.13.24 0 .392.064.538.126.14.06.274.116.475.112.418-.007.684-.371.94-.737.286-.409.41-.806.424-.85v-.003M9.221 4.5c.04.35-.105.704-.319.958-.214.253-.566.45-.91.424-.048-.344.126-.703.325-.928.222-.253.595-.442.904-.454"/></svg>