<svg xmlns="http://www.w3.org/2000/svg" viewBox="0 0 17 17"><path fill-rule="evenodd" d="M2.922 2.128H6.64c.34 0 .641.215.753.535l.463 1.332c.596-.276 1.307-.276 2.523-.276h.488c1.462 0 2.193 0 2.873.48s.874 1.024 1.263 2.113q.104.292.191.594h.529a.744.744 0 0 1 .107 1.48c.062.288.106.627.106 1.01v2.556a.797.797 0 0 1-1.594 0v-.266H10.53l1.11 3.191a.797.797 0 0 1-.752 1.059H2.922a.797.797 0 1 1 0-1.594h6.845l-.924-2.656H6.905v.266a.797.797 0 0 1-1.593 0V9.396c0-.383.043-.722.106-1.01a.744.744 0 0 1 .106-1.48h.528q.087-.302.191-.594c.143-.4.259-.726.383-1.002l-.552-1.588H2.922a.797.797 0 1 1 0-1.594m9.464 3.23c-.322-.042-.748-.045-1.52-.045h-.487c-.77 0-1.197.003-1.52.046-.257.034-.35.083-.435.142a.75.75 0 0 0-.262.292c-.107.196-.209.469-.418 1.054l-.057.166a37 37 0 0 1 2.934-.107c1.214 0 2.192.048 2.938.107l-.057-.166c-.209-.585-.31-.858-.418-1.054a.75.75 0 0 0-.262-.292c-.084-.06-.178-.108-.436-.142M7.072 8.674c.726-.082 1.902-.174 3.55-.174 1.646 0 2.825.092 3.552.174a.4.4 0 0 1 .092.02c.043.193.076.428.076.703v.697H6.905v-.697c0-.275.033-.51.077-.703a.4.4 0 0 1 .09-.02"/><path d="M3.718 6.108a.797.797 0 1 0-1.593 0v1.068a.797.797 0 1 0 1.593 0zm0 4.246a.797.797 0 0 0-1.593 0v1.598a.797.797 0 1 0 1.593 0z"/></svg>