<svg xmlns="http://www.w3.org/2000/svg" viewBox="0 0 24 24"><path d="M4 3a1 1 0 0 0-1 1v3h.5a1 1 0 0 1 1 1v2a1 1 0 0 1-1 1H3v2h.5a1 1 0 0 1 1 1v3a1 1 0 0 1-1 1H3v3a1 1 0 0 0 1 1h11a1 1 0 0 0 .951-1.308L15.081 18h-3.789A2.5 2.5 0 0 1 6.5 17v-3.366q0-.318.023-.617a2.5 2.5 0 0 1 1.346-4.514c.43-1.194.872-2.235 2.075-3.084a4.4 4.4 0 0 1 .906-.494l-.399-1.233A1 1 0 0 0 9.5 3z"/><path fill-rule="evenodd" d="M20.89 9.487q.09.254.172.513H22a1 1 0 1 1 0 2h-.189c.108.471.189 1.027.189 1.634V17a1 1 0 1 1-2 0v-.5H10v.5a1 1 0 1 1-2 0v-3.366c0-.607.081-1.163.189-1.634H8a1 1 0 1 1 0-2h.938q.082-.26.172-.513c.522-1.465.784-2.197 1.698-2.842C11.723 6 12.706 6 14.672 6h.656c1.966 0 2.949 0 3.864.645s1.175 1.377 1.698 2.842M11.96 8.28c.29-.205.538-.28 2.712-.28h.656c2.174 0 2.421.075 2.711.28.198.14.29.25.395.44.151.276.292.653.57 1.434A47 47 0 0 0 14.997 10c-1.688 0-3.013.069-4 .153.277-.78.418-1.157.569-1.433.104-.19.197-.3.395-.44"/></svg>