<svg xmlns="http://www.w3.org/2000/svg" viewBox="0 0 17 17"><path d="M2.358 2.362a.8.8 0 0 1 .564-.234H6.64c.34 0 .641.215.753.535l.113.327q-.313.131-.612.34c-.959.676-1.258 1.517-1.61 2.506l-.008.024a1.806 1.806 0 0 0-1.01 3.085q-.016.217-.017.45v2.557a1.86 1.86 0 0 0 3.54.797h3.11l.741 2.128a.797.797 0 0 1-.752 1.059H2.922a.797.797 0 0 1-.797-.797v-2.39h.265c.44 0 .797-.357.797-.797v-1.598a.797.797 0 0 0-.797-.797h-.265V7.968s.172.005.265.005c.44 0 .797-.357.797-.797V6.108a.797.797 0 0 0-.797-.797h-.265V2.925c0-.211.084-.414.233-.563"/><path fill-rule="evenodd" d="M15.194 6.906q-.086-.302-.191-.594c-.389-1.089-.583-1.634-1.263-2.113s-1.411-.48-2.873-.48h-.488c-1.462 0-2.193 0-2.873.48S6.63 5.223 6.243 6.312q-.105.292-.191.594h-.528a.744.744 0 0 0-.106 1.48 4.8 4.8 0 0 0-.106 1.01v2.556a.797.797 0 0 0 1.593 0v-.266h7.437v.266a.797.797 0 0 0 1.594 0V9.396c0-.383-.044-.722-.106-1.01a.744.744 0 0 0-.107-1.48zm-4.327-1.593h-.488c-.77 0-1.197.003-1.52.046-.257.034-.35.083-.435.142a.75.75 0 0 0-.262.292c-.107.196-.209.469-.418 1.054l-.057.166c.745-.06 1.72-.107 2.934-.107s2.192.048 2.938.108l-.057-.167c-.209-.585-.31-.858-.418-1.054a.75.75 0 0 0-.262-.292c-.084-.06-.178-.108-.436-.142-.322-.043-.748-.046-1.52-.046"/></svg>