<svg xmlns="http://www.w3.org/2000/svg" viewBox="0 0 32 32"><path d="M4 5.25C4 4.56 4.56 4 5.25 4h7.497c.547 0 1.03.356 1.194.878l.537 1.723c-.369.157-.73.354-1.082.603C11.899 8.26 11.3 9.544 10.766 11h-.018a3.25 3.25 0 0 0-1.712 6.013q-.037.442-.038.91v4.328a3.25 3.25 0 0 0 6.25 1.25h4.501l1.194 3.827a1.25 1.25 0 0 1-1.189 1.623L5.254 29A1.25 1.25 0 0 1 4 27.75V23.5h.75c.69 0 1.25-.56 1.25-1.25v-4C6 17.56 5.44 17 4.75 17H4v-2.5h.75c.69 0 1.25-.56 1.25-1.25v-3C6 9.56 5.44 9 4.75 9H4z"/><path fill-rule="evenodd" d="M27.815 13a18 18 0 0 0-.16-.467c-.679-1.904-1.018-2.856-2.207-3.694C24.258 8 22.98 8 20.425 8h-.853c-2.556 0-3.833 0-5.023.839-1.189.838-1.528 1.79-2.207 3.694q-.083.231-.16.467h-1.434a1.25 1.25 0 0 0 0 2.5h.556l-.039.15a10.3 10.3 0 0 0-.267 2.274v4.326a1.25 1.25 0 0 0 2.5 0v-.75h13v.75a1.25 1.25 0 0 0 2.5 0v-4.326a10.3 10.3 0 0 0-.306-2.424h.556a1.25 1.25 0 1 0 0-2.5zm-7.39-2.5h-.853c-2.816 0-3.174.094-3.582.382-.27.19-.4.345-.544.606-.19.347-.366.812-.69 1.718C16.03 13.093 17.76 13 19.995 13c2.238 0 3.97.094 5.246.206-.324-.906-.5-1.37-.69-1.718a1.6 1.6 0 0 0-.544-.606c-.408-.288-.766-.382-3.582-.382"/></svg>