<svg xmlns="http://www.w3.org/2000/svg" viewBox="0 0 24 24"><path fill-rule="evenodd" d="M3 11.766v-.912c0-2.607 0-3.91.99-5.042s2.062-1.274 4.204-1.56a28.8 28.8 0 0 1 7.612 0c2.142.286 3.213.429 4.204 1.56s.99 2.435.99 5.042v.912q.063.053.121.113C22 12.757 22 14.172 22 17a1 1 0 0 1-1 1v1a1 1 0 1 1-2 0v-1H5v1a1 1 0 1 1-2 0v-1a1 1 0 0 1-1-1c0-2.828 0-4.243.879-5.121q.059-.06.121-.113M6 10.5A1.5 1.5 0 0 1 7.5 9h2a1.5 1.5 0 0 1 1.5 1.5v.5H6zm7 0A1.5 1.5 0 0 1 14.5 9h2a1.5 1.5 0 0 1 1.5 1.5v.5h-5z"/></svg>