<svg xmlns="http://www.w3.org/2000/svg" viewBox="0 0 24 24"><path fill-rule="evenodd" d="M3 10.854v.912a2 2 0 0 0-.121.113C2 12.757 2 14.172 2 17a1 1 0 0 0 1 1v1a1 1 0 1 0 2 0v-1h14v1a1 1 0 1 0 2 0v-1a1 1 0 0 0 1-1c0-2.828 0-4.243-.879-5.121q-.059-.06-.121-.113v-.912c0-2.607 0-3.91-.99-5.042s-2.062-1.274-4.204-1.56a28.8 28.8 0 0 0-7.612 0c-2.142.286-3.213.429-4.204 1.56S3 8.247 3 10.854M5.495 7.13C5.101 7.58 5 7.994 5 10.854V11a3 3 0 0 1 3-3h2c.768 0 1.47.289 2 .764A3 3 0 0 1 14 8h2a3 3 0 0 1 3 3v-.146c0-2.86-.101-3.275-.495-3.724a1.54 1.54 0 0 0-.78-.512c-.45-.145-1.048-.232-2.183-.383a26.8 26.8 0 0 0-7.084 0c-1.135.151-1.734.238-2.183.383a1.54 1.54 0 0 0-.78.512M17 11.002V11a1 1 0 0 0-1-1h-2a1 1 0 0 0-1 1h3.001q.532 0 .999.002M11 11a1 1 0 0 0-1-1H8a1 1 0 0 0-1 1v.002Q7.467 11 7.999 11zm8.998 5H4.002c.005-.905.024-1.536.09-2.025.077-.574.187-.67.2-.681v-.001l.002-.001c.011-.013.107-.123.68-.2C5.627 13.004 6.53 13 8 13h8.002c1.47 0 2.372.004 3.024.092.574.077.67.187.681.2h.001l.001.002c.013.011.123.107.2.68.066.49.085 1.12.09 2.026"/></svg>