<svg xmlns="http://www.w3.org/2000/svg" viewBox="0 0 16 16"><path fill-rule="evenodd" d="M8 1a.75.75 0 0 1 .75.75v12.5a.75.75 0 0 1-1.5 0v-.257a35 35 0 0 1-2.259-.11c-1.379-.115-2.068-.172-2.933-1.039s-.914-1.486-1.014-2.726a14 14 0 0 1 .001-2.19v-.005c.1-1.236.15-1.855 1.013-2.721.725-.727 1.327-.885 2.315-.984.05-.33.17-.628.45-1.025.086-.123.349-.409.464-.506.648-.543 1.082-.58 1.95-.653l.013-.001V1.75A.75.75 0 0 1 8 1m-.75 10.488v1.005a34 34 0 0 1-2.135-.106c-.74-.06-1.08-.096-1.35-.177-.185-.056-.364-.144-.645-.425-.3-.301-.38-.474-.426-.619-.07-.22-.1-.497-.155-1.167a12 12 0 0 1 0-1.952c.054-.67.084-.947.155-1.168.046-.145.126-.317.426-.618.244-.245.406-.336.543-.39.167-.065.396-.114.86-.16l1.156-.116.176-1.15a.5.5 0 0 1 .035-.122 1.5 1.5 0 0 1 .17-.278 3 3 0 0 1 .203-.218c.186-.155.272-.184.334-.202.115-.034.262-.053.653-.087v2.974a2.5 2.5 0 0 0 0 4.976m0-1.52V8.031a1 1 0 0 0 0 1.937m3.61.97h2.88l-2.88 1.327v1.368H15v-.93h-2.874L15 11.377v-1.374h-4.14zm0-1.77H15V8.166h-1.596V6.768h-.846v1.398h-.852v-1.86h-.846zm4.104-4.346q.114-.354.114-.816 0-.402-.078-.72a1.6 1.6 0 0 0-.258-.552 1.26 1.26 0 0 0-.444-.372 2 2 0 0 0-.666-.192v1.032q.378.066.516.27.132.204.132.534 0 .21-.054.372a.66.66 0 0 1-.174.276.9.9 0 0 1-.324.168 2 2 0 0 1-.498.054h-.612q-.294 0-.492-.06a.8.8 0 0 1-.318-.168.6.6 0 0 1-.174-.276 1.2 1.2 0 0 1-.054-.366q0-.342.138-.546t.51-.252V2.176a2 2 0 0 0-.666.186 1.24 1.24 0 0 0-.45.372q-.174.228-.252.552a3 3 0 0 0-.078.72q0 .462.12.816t.378.594.666.366q.402.126.972.126.588 0 1.002-.126.408-.126.666-.366t.378-.594"/></svg>