<svg xmlns="http://www.w3.org/2000/svg" viewBox="0 0 24 24"><path fill-rule="evenodd" d="M12 2a1 1 0 0 1 1 1v18a1 1 0 1 1-2 0v-.009a49 49 0 0 1-3.055-.147c-2.046-.166-3.069-.249-4.37-1.558-1.303-1.31-1.373-2.25-1.515-4.133a21.6 21.6 0 0 1 0-3.238c.142-1.882.212-2.823 1.514-4.132.97-.975 1.784-1.27 2.98-1.425.074-.508.251-.961.68-1.569.13-.184.523-.613.697-.758.971-.816 1.622-.87 2.924-.98L11 3.039V3a1 1 0 0 1 1-1m-1 8.17a3.001 3.001 0 0 0 0 5.66zm9.11 6.238h-4.32v-1.404H22v2.061l-4.311 1.99H22v1.394h-6.21v-2.052zM22 13.752h-6.21V9.459h1.269v2.79h1.278v-2.097h1.269v2.097H22zm.117-7.743q0 .693-.171 1.224-.18.531-.567.891t-.999.55q-.621.188-1.503.188-.855 0-1.458-.189-.612-.189-.999-.549a2.1 2.1 0 0 1-.567-.89 3.8 3.8 0 0 1-.18-1.225q0-.603.117-1.08.117-.486.378-.828.261-.351.675-.558.405-.206.999-.279v1.548q-.558.072-.765.378t-.207.82q0 .305.081.548.072.243.261.414.18.162.477.252t.738.09h.918q.441 0 .747-.08.297-.09.486-.253a1 1 0 0 0 .261-.414q.081-.243.081-.558 0-.495-.198-.8-.207-.307-.774-.406V3.255q.585.072.999.288.405.207.666.558T22 4.93q.117.477.117 1.08"/></svg>