<svg xmlns="http://www.w3.org/2000/svg" viewBox="0 0 32 32"><path fill-rule="evenodd" d="M16 3c.69 0 1.25.56 1.25 1.25v23.5a1.25 1.25 0 0 1-2.477.24 62 62 0 0 1-3.878-.186c-2.728-.22-4.092-.33-5.842-2.19s-1.83-3.158-1.994-5.752a30 30 0 0 1 0-3.724c.163-2.594.245-3.892 1.994-5.752 1.338-1.423 2.45-1.822 4.118-2.029.129-1.336.274-2.077 1.32-3.025 1.136-1.032 1.857-1.1 3.298-1.233q.464-.043.98-.07v.002l-.002.013.002-.013A1.25 1.25 0 0 1 16 3m-1.25 19.342v3.015a59 59 0 0 1-3.665-.177c-1.449-.117-2.169-.188-2.752-.374-.445-.142-.874-.375-1.503-1.043-.66-.701-.866-1.138-.98-1.529-.155-.525-.21-1.159-.296-2.546a27 27 0 0 1 0-3.376c.087-1.387.14-2.021.295-2.546.115-.391.322-.828.981-1.529.629-.668 1.058-.901 1.503-1.043.584-.187 1.303-.258 2.752-.374l.15-.012.278-.017v-.004h.009q.015-.471.037-.918.032-.503.075-.964c.078-.86.12-1.19.205-1.438.045-.131.112-.284.443-.584.384-.349.544-.4.6-.418h.002c.156-.051.365-.084 1.166-.158q.333-.03.7-.052v6.403a5.002 5.002 0 0 0 0 9.684M13.5 17.5c0-.925.503-1.733 1.25-2.166v4.332A2.5 2.5 0 0 1 13.5 17.5m7.22 4.378h5.76l-5.76 2.651v2.736H29v-1.86h-5.748L29 22.754v-2.747h-8.28zm0-3.542H29v-2.004h-3.192v-2.796h-1.692v2.796h-1.704v-3.72H20.72zm8.208-8.692q.228-.708.228-1.632 0-.804-.156-1.44a3.2 3.2 0 0 0-.516-1.104 2.5 2.5 0 0 0-.888-.744q-.552-.288-1.332-.384v2.064q.756.132 1.032.54.264.408.264 1.068 0 .42-.108.744t-.348.552a1.8 1.8 0 0 1-.648.336 4 4 0 0 1-.996.108h-1.224q-.588 0-.984-.12a1.65 1.65 0 0 1-.636-.336 1.2 1.2 0 0 1-.348-.552 2.3 2.3 0 0 1-.108-.732q0-.684.276-1.092t1.02-.504V4.352q-.792.096-1.332.372a2.5 2.5 0 0 0-.9.744q-.348.456-.504 1.104a6 6 0 0 0-.156 1.44q0 .924.24 1.632t.756 1.188 1.332.732q.804.252 1.944.252 1.176 0 2.004-.252.816-.252 1.332-.732t.756-1.188"/></svg>