<svg xmlns="http://www.w3.org/2000/svg" viewBox="0 0 44 44"><path fill-rule="evenodd" d="M22 4a1.5 1.5 0 0 1 1.5 1.5v33a1.5 1.5 0 0 1-3 0v-.51a91 91 0 0 1-5.638-.25c-3.757-.287-5.636-.43-8.042-2.861s-2.518-4.118-2.74-7.492a36 36 0 0 1 0-4.774c.222-3.374.334-5.06 2.74-7.492 1.801-1.82 3.307-2.357 5.526-2.633l.02-.206c.205-2.025.307-3.037 1.46-4.27 1.155-1.234 1.97-1.372 3.604-1.648.89-.15 1.914-.27 3.07-.327V5.5A1.5 1.5 0 0 1 22 4m-1.5 14.189a6.003 6.003 0 0 0 0 11.622zm15.93 12.137h-8.16v-2.652H40v3.893l-8.143 3.757H40v2.635H28.27v-3.876zM40 25.31H28.27V17.2h2.397v5.27h2.414v-3.961h2.397v3.961H40zm.221-14.625q0 1.309-.323 2.312a4 4 0 0 1-1.071 1.683q-.73.68-1.887 1.037-1.173.357-2.839.357-1.615 0-2.754-.357-1.156-.357-1.887-1.037a4 4 0 0 1-1.071-1.683q-.34-1.004-.34-2.312 0-1.14.221-2.04.22-.918.714-1.564a3.5 3.5 0 0 1 1.275-1.054q.765-.39 1.887-.527v2.924q-1.054.136-1.445.714-.39.578-.391 1.547 0 .578.153 1.037.136.46.493.782.34.306.901.476t1.394.17h1.734q.833 0 1.411-.153a2.5 2.5 0 0 0 .918-.476 1.9 1.9 0 0 0 .493-.782 3.3 3.3 0 0 0 .153-1.054q0-.935-.374-1.513-.39-.577-1.462-.765V5.482q1.105.136 1.887.544.765.39 1.258 1.054.493.663.731 1.564.22.9.221 2.04"/></svg>