<svg xmlns="http://www.w3.org/2000/svg" viewBox="0 0 16 16"><path fill-rule="evenodd" d="M8 1a.75.75 0 0 1 .75.75v12.5a.75.75 0 0 1-1.5 0v-.257a35 35 0 0 1-2.259-.11c-1.379-.115-2.068-.172-2.933-1.039s-.914-1.486-1.014-2.726a14 14 0 0 1 .001-2.19v-.005c.1-1.236.15-1.855 1.013-2.721.725-.727 1.327-.885 2.315-.984.05-.33.17-.628.45-1.025.086-.123.349-.409.464-.506.648-.543 1.082-.58 1.95-.653l.013-.001V1.75A.75.75 0 0 1 8 1m-.75 6.145a2 2 0 0 0 0 3.71zm6.49 3.794h-2.88v-.936H15v1.374l-2.874 1.326H15v.93h-4.14v-1.368zM15 9.168h-4.14V6.306h.846v1.86h.852V6.768h.846v1.398H15zm.078-5.162q0 .462-.114.816-.12.354-.378.594t-.666.366q-.414.126-1.002.126-.57 0-.972-.126a1.7 1.7 0 0 1-.666-.366 1.4 1.4 0 0 1-.378-.594 2.5 2.5 0 0 1-.12-.816q0-.402.078-.72.078-.324.252-.552.174-.234.45-.372.27-.138.666-.186v1.032q-.372.048-.51.252t-.138.546q0 .204.054.366.048.162.174.276.12.108.318.168t.492.06h.612q.294 0 .498-.054a.9.9 0 0 0 .324-.168.66.66 0 0 0 .174-.276q.054-.162.054-.372 0-.33-.132-.534-.138-.204-.516-.27V2.17q.39.048.666.192.27.138.444.372t.258.552q.078.318.078.72"/></svg>