<svg xmlns="http://www.w3.org/2000/svg" viewBox="0 0 24 24"><path fill-rule="evenodd" d="M16 6a4 4 0 1 0-7.598 1.75c-.557.364-1.49 1.33-1.78 1.855C6 10.732 6 11.32 6 12.5c0 1.398 0 2.097.228 2.648a3 3 0 0 0 1.773 1.678L8 17c0 .775.034 1.451.084 2.027.137 1.575 1.306 2.798 2.88 2.93a12.5 12.5 0 0 0 2.071 0c1.575-.132 2.744-1.355 2.881-2.93a24 24 0 0 0 .083-2.2q.076-.025.15-.055a3 3 0 0 0 1.623-1.624C18 14.597 18 13.898 18 12.5c0-1.179 0-1.768-.622-2.895-.29-.525-1.223-1.491-1.78-1.855A4 4 0 0 0 16 6m-4-2a2 2 0 0 1 1.813 2.847c-.239.48-.654.741-.935.917-.17.108-.291.183-.291.258 0 .2.252.349.616.563.272.161.534.336.797.51.837.555 1.768 1.252 1.953 2.29.041.228.047.482.047 1.115 0 .726-.001 1.17-.024 1.505-.028.412-.18.748-.593.919l-1.393.455.003.453c.01 1.008.018 2.016-.07 3.023-.056.653-.498 1.062-1.054 1.108a10.5 10.5 0 0 1-1.738 0c-.556-.046-.998-.455-1.055-1.108-.087-1.007-.078-2.015-.07-3.024l.004-.452-1.393-.455c-.413-.171-.565-.507-.593-.919C8 13.671 8 13.226 8 12.5c0-.633.006-.887.047-1.115.185-1.038 1.116-1.735 1.953-2.29.263-.174.525-.349.797-.51.364-.214.616-.363.616-.563 0-.075-.12-.15-.291-.258-.28-.176-.696-.436-.935-.917A2 2 0 0 1 10.001 6 2 2 0 0 1 12 4"/></svg>