<svg xmlns="http://www.w3.org/2000/svg" viewBox="0 0 24 24"><path d="M13.853 7.36a3 3 0 1 0-3.706 0c-.833.34-2.355 1.807-2.717 2.63-.395.9-.405 1.293-.424 2.078Q7 12.284 7 12.5c0 1.398 0 2.097.228 2.648A3 3 0 0 0 9 16.826V17c0 1.293.07 2.311.15 3.05.1.92.723 1.687 1.636 1.844.359.062.77.106 1.214.106s.855-.044 1.214-.106c.913-.157 1.536-.923 1.635-1.844a29 29 0 0 0 .15-3.224q.076-.024.15-.054a3 3 0 0 0 1.623-1.624C17 14.597 17 13.898 17 12.5q0-.216-.006-.431c-.02-.785-.03-1.178-.424-2.078-.362-.824-1.884-2.29-2.717-2.631"/></svg>