<svg xmlns="http://www.w3.org/2000/svg" viewBox="0 0 16 16"><path fill-rule="evenodd" d="M7.373 14.974a8 8 0 0 0 1.254 0c1.165-.09 2.033-1.004 2.118-2.17a18 18 0 0 0 .045-1.501 2.1 2.1 0 0 0 1.05-1.099c.16-.386.16-.875.16-1.853 0-.807 0-1.21-.403-1.976-.149-.282-.536-.719-.905-1.05a3 3 0 1 0-5.385 0c-.368.331-.755.768-.904 1.05C4 7.141 4 7.545 4 8.351c0 .978 0 1.467.16 1.853a2.1 2.1 0 0 0 1.05 1.099l-.001.197q.002.738.046 1.305c.085 1.165.953 2.078 2.118 2.17M8 2.5A1.5 1.5 0 0 0 6.5 4c0 .598.473.958.768 1.183.134.102.23.177.23.233 0 .118-.135.212-.36.367-.608.42-1.48 1.053-1.609 1.815-.025.15-.029.318-.029.753 0 .51 0 .817.016 1.047.017.24.091.435.33.546l.874.409-.01.965a18 18 0 0 0 .04 1.377c.035.462.35.753.74.784a6.6 6.6 0 0 0 1.02 0c.39-.03.705-.322.74-.784a16 16 0 0 0 .04-1.377l-.01-.965.874-.409c.24-.112.313-.305.33-.546.015-.23.016-.538.016-1.047 0-.435-.004-.604-.03-.753-.129-.762-1-1.396-1.607-1.815-.226-.155-.362-.249-.362-.367 0-.056.098-.131.232-.233.295-.225.767-.585.767-1.183A1.5 1.5 0 0 0 8 2.5"/></svg>