<svg xmlns="http://www.w3.org/2000/svg" viewBox="0 0 32 32"><path fill-rule="evenodd" d="M4 28q0-1.282.01-2.5c.062-6.97.37-12.339.637-15.778.16-2.064.24-3.096 1.203-4.122s1.799-1.144 3.47-1.38c.933-.131 2-.22 3.18-.22s2.248.089 3.18.22c1.671.236 2.507.354 3.47 1.38s1.043 2.058 1.203 4.122c.12 1.546.248 3.482.359 5.778h.538c.69 0 1.25.56 1.25 1.25v3.75a2 2 0 1 0 4 0v-6a2.5 2.5 0 0 1-1.334-4.614l-2.29-2.243a1.25 1.25 0 1 1 1.749-1.786l4 3.917c.24.235.375.557.375.893V20.5a4.5 4.5 0 0 1-8.04 2.78A274 274 0 0 1 21 28zm8.5-8a3.5 3.5 0 0 0 3.5-3.5c0-1.482-2.058-4.121-3.018-5.271a.623.623 0 0 0-.964 0C11.058 12.379 9 15.018 9 16.5a3.5 3.5 0 0 0 3.5 3.5"/></svg>