<svg xmlns="http://www.w3.org/2000/svg" viewBox="0 0 16 16"><path d="M6.5 10c.967 0 1.75-.825 1.75-1.842 0-.64-.692-1.69-1.206-2.38a.672.672 0 0 0-1.088 0c-.514.69-1.207 1.74-1.207 2.38 0 1.017.784 1.842 1.75 1.842"/><path fill-rule="evenodd" d="M2.008 12.5Q2 13.226 2 14h9a132 132 0 0 0-.015-2.011A2.5 2.5 0 0 0 15 10V5.333a.75.75 0 0 0-.209-.52l-2-2.082a.75.75 0 1 0-1.082 1.038l.95.99A1.5 1.5 0 0 0 13.5 7.5v2.499a1 1 0 0 1-2.001 0V8.25a.75.75 0 0 0-.665-.745 92 92 0 0 0-.174-2.608c-.086-1.048-.129-1.572-.61-2.082-.482-.51-.916-.571-1.784-.693A13 13 0 0 0 6.5 2c-.66 0-1.254.05-1.767.122-.868.122-1.302.183-1.784.693-.481.51-.524 1.034-.61 2.082a109 109 0 0 0-.33 7.603m7.484 0a108 108 0 0 0-.326-7.48c-.047-.569-.072-.821-.117-1.001-.06-.241-.25-.293-.472-.333a14 14 0 0 0-.519-.079C7.608 3.544 7.086 3.5 6.5 3.5s-1.109.044-1.558.107c-.225.032-.384.054-.519.079-.222.04-.412.092-.472.333-.045.18-.07.432-.117 1a108 108 0 0 0-.326 7.481z"/></svg>