<svg xmlns="http://www.w3.org/2000/svg" viewBox="0 0 24 24"><path fill-rule="evenodd" d="m18.191 16.855.105 1.774a4 4 0 0 0 .453-.373c.408-.4.672-.87 1.368-2.166a1.005 1.005 0 0 1 1.352-.41.984.984 0 0 1 .414 1.338l-.063.118c-.611 1.138-1.015 1.89-1.663 2.525a6.4 6.4 0 0 1-2.174 1.363c-.858.308-1.634.344-2.802.398l-.108.006a66 66 0 0 1-6.146 0l-.108-.006c-1.168-.054-1.944-.09-2.802-.398a6.45 6.45 0 0 1-2.174-1.363c-.648-.636-1.052-1.387-1.663-2.525l-.063-.118a.984.984 0 0 1 .414-1.338 1.005 1.005 0 0 1 1.352.41c.696 1.296.96 1.766 1.368 2.166.14.138.313.276.5.406l.51-1.713c.056-.28.12-.568.182-.854.137-.62.271-1.232.338-1.745l.142-1.083-1.06.296-.362.12q-.268.07-.62.045h-.004L4.7 13.71a.97.97 0 0 1-.806-1.252c.386-1.234.953-2.399 1.667-3.142.357-.372.758-.646 1.198-.762.444-.118.915-.073 1.4.17.16.08.398.224.599.398.1.087.196.185.267.29s.125.226.125.358v.174a3.5 3.5 0 0 1 1.197-.298 53 53 0 0 1 1.208-.071c-.117-.97-.121-1.375-.088-2.07.069-1.548.69-2.818 1.822-3.815.328-.288.782-.563 1.254-.772.472-.208.979-.357 1.417-.382l.59-.034c.513-.03.947.344 1.036.836l.001.007.015.143.025.49.053.873a.67.67 0 0 0 .188.424l.894.903v.002l.085.083c.523.51.726 1.146.562 1.874v.002c-.165.71-.613 1.198-1.303 1.399h-.002a1.73 1.73 0 0 1-1.513-.257l.165.755c.172.784.355 1.488.538 2.195.124.475.247.951.369 1.455v.002l.176.764c.06.26.136.74.227 1.428zm-3.774 1.639.127.976a64 64 0 0 1-4.846.01l.135-.836c.221-1.161.558-1.883.94-2.312a1.61 1.61 0 0 1 1.26-.572c.476 0 .973.102 1.396.477.426.377.805 1.052.988 2.257"/></svg>