<svg xmlns="http://www.w3.org/2000/svg" viewBox="0 0 44 44"><path fill-rule="evenodd" d="M32.455 7.022c.043-1.04-.747-2.038-1.92-2.02-1.86.027-6.179.487-8.838 4.076-1.444 1.948-1.737 4.295-1.677 6.15a15.6 15.6 0 0 0 .318 2.643l-2.295.166a5.2 5.2 0 0 0-1.438.308 5 5 0 0 0-.424-.686c-.579-.79-1.597-1.659-3.18-1.659-1.231 0-2.247.634-3.03 1.418-.783.786-1.419 1.806-1.915 2.8a19.4 19.4 0 0 0-1.139 2.859c-.129.417-.23.794-.298 1.105-.063.28-.119.585-.119.818 0 .457.133.904.45 1.265.305.347.698.52 1.047.603.664.159 1.43.06 2.043-.069a13 13 0 0 0 1.696-.49 16 16 0 0 0-.135 1.544c-.058 1.513-.554 3.692-1.063 5.558-.184.678-.367 1.3-.524 1.818-.864-.69-1.488-1.613-1.915-2.457a9.7 9.7 0 0 1-.616-1.538l-.023-.08-.004-.014a1.5 1.5 0 0 0-2.913.716v.002l.001.002.002.006.003.014.012.044.04.145c.035.12.086.286.155.487.14.402.355.954.666 1.57.613 1.212 1.65 2.773 3.304 3.873.924.615 2.256.987 3.533 1.238 1.332.262 2.822.432 4.21.543 2.779.223 5.272.22 5.518.22h.035c.246 0 2.736-.012 5.513-.24 1.386-.115 2.874-.286 4.203-.545 1.275-.248 2.6-.611 3.52-1.204 1.57-1.013 2.609-2.596 3.233-3.799a15 15 0 0 0 .884-2.084l.046-.144.013-.043.004-.014.002-.005v-.004a1.5 1.5 0 0 0-2.88-.837l-.005.018-.03.092a12 12 0 0 1-.697 1.64c-.529 1.019-1.269 2.06-2.196 2.658a2 2 0 0 1-.238.132c-.036-.58-.083-1.264-.14-2.007-.165-2.15-.418-4.822-.769-6.808-.417-2.36-1.269-5.394-1.91-7.527a4.115 4.115 0 0 0 4.202-6.801l-2.361-2.39-.002-.022c-.014-.21-.02-.508-.018-.86.002-.7.032-1.545.059-2.184m-5.979 29.87-.005-.073c-.049-.707-.166-2.63-.43-3.539-.268-.917-.666-1.748-1.231-2.338-.539-.562-1.31-1.442-3.31-1.442-1.5 0-2.135.791-2.614 1.38-.495.61-.886 1.473-1.181 2.418-.29.93-.468 2.87-.573 3.589 2.04.115 4.67.113 4.846.113h.037c.164 0 2.604-.007 4.461-.108"/></svg>