<svg xmlns="http://www.w3.org/2000/svg" viewBox="0 0 44 44"><path fill-rule="evenodd" d="M30.527 4.502c1.493-.023 2.481 1.248 2.427 2.541a60 60 0 0 0-.058 2.164c-.001.262.002.487.009.665l2.227 2.254a4.613 4.613 0 0 1-3.837 7.822c.604 2.058 1.311 4.674 1.682 6.771.357 2.016.586 4.587.726 6.618.052.758.093 1.45.123 2.019.837-.612 1.51-1.578 2.002-2.526a12 12 0 0 0 .697-1.64l.03-.091.005-.017a1.5 1.5 0 0 1 2.88.836v.004l-.002.005-.004.014-.013.043-.046.144a15 15 0 0 1-.884 2.084c-.625 1.203-1.662 2.786-3.234 3.799-.92.593-2.244.956-3.52 1.204-1.328.26-2.816.43-4.202.544-2.777.23-5.268.24-5.514.24h-.034c-.246.002-2.74.004-5.518-.219-1.388-.11-2.878-.28-4.21-.543-1.277-.251-2.609-.623-3.534-1.238-1.654-1.1-2.69-2.661-3.303-3.874a13 13 0 0 1-.666-1.569 10 10 0 0 1-.195-.631l-.012-.045-.004-.014-.001-.006v-.003a1.5 1.5 0 0 1 2.912-.717l.004.014.022.08a9.7 9.7 0 0 0 .616 1.537c.359.709.856 1.473 1.516 2.107l.017-.053c.154-.498.361-1.195.572-1.99.43-1.621.842-3.537.898-5.001q.015-.396.051-.807c-.316.095-.66.188-1.01.261-.627.132-1.485.252-2.262.066-.414-.1-.912-.31-1.306-.759C6.162 26.127 6 25.555 6 25c0-.294.068-.646.13-.927.073-.326.177-.716.31-1.144.263-.853.655-1.903 1.169-2.934.508-1.019 1.172-2.091 2.008-2.93.834-.837 1.97-1.565 3.383-1.565 1.793 0 2.945.991 3.584 1.863q.141.193.255.38a5.8 5.8 0 0 1 1.168-.205l1.736-.125a16 16 0 0 1-.223-2.169c-.061-1.91.236-4.387 1.775-6.464 2.806-3.786 7.337-4.25 9.231-4.278M12.345 36.19q.234.053.493.104c.842.166 1.782.294 2.738.393l.014-.143c.022-.214.058-.515.115-.873a15.7 15.7 0 0 1 .656-2.666c.34-.971.854-2.06 1.653-2.927.83-.901 1.987-1.578 3.485-1.578 1.697 0 3.04.57 4.043 1.486.97.886 1.54 2.018 1.88 3.04a11.8 11.8 0 0 1 .541 2.761c.03.37.039.68.04.902v.017a36 36 0 0 0 2.866-.38l-.013-.275c-.03-.63-.078-1.509-.147-2.507-.139-2.012-.36-4.451-.687-6.303-.597-3.377-2.17-8.336-2.564-9.554-.48-1.48 1.235-2.69 2.47-1.753l.947.719a1.613 1.613 0 0 0 2.122-2.418l-2.565-2.596a1.6 1.6 0 0 1-.382-.628 2 2 0 0 1-.079-.312 4 4 0 0 1-.053-.469c-.02-.297-.024-.663-.023-1.033a55 55 0 0 1 .037-1.668c-1.775.127-4.522.735-6.228 3.037-.968 1.307-1.237 2.997-1.187 4.583.05 1.565.408 2.837.492 3.118.314 1.037-.465 1.95-1.39 2.018l-3.397.245c-1.138.082-2.11.854-2.88 2.328-.767 1.469-1.178 3.385-1.244 5.09-.07 1.814-.557 3.997-.996 5.655a53 53 0 0 1-.757 2.587m12.656.726.001-.028.001-.179a10 10 0 0 0-.03-.684 8.8 8.8 0 0 0-.397-2.05c-.243-.73-.59-1.347-1.057-1.773-.434-.397-1.05-.702-2.02-.702-.501 0-.9.198-1.278.61-.41.445-.756 1.106-1.028 1.885-.266.763-.43 1.544-.525 2.146-.047.298-.077.545-.094.714l-.006.055c1.831.092 3.246.09 3.409.09h.037c.15 0 1.364-.006 2.987-.084M12.684 21.47c-.352.674-.64 1.399-.87 2.141q-.123.03-.244.082l-.005.003-.03.012-.128.053c-.113.045-.278.11-.476.18-.405.146-.916.31-1.405.412a5 5 0 0 1-.394.069q.07-.269.173-.605c.226-.73.56-1.624.988-2.482.434-.87.929-1.63 1.449-2.15.521-.524.939-.684 1.258-.684.54 0 .888.26 1.165.637q.054.074.1.146c-.648.64-1.17 1.4-1.581 2.186"/></svg>