<svg xmlns="http://www.w3.org/2000/svg" viewBox="0 0 24 24"><path fill-rule="evenodd" d="m18.988 17.226.066 1.144c.274-.364.552-.876 1.063-1.838a1 1 0 0 1 1.766.939l-.063.119c-.612 1.15-1.015 1.91-1.663 2.552a6.4 6.4 0 0 1-2.174 1.377c-.858.312-1.634.348-2.802.403l-.108.005a66 66 0 0 1-6.146 0l-.108-.005c-1.168-.055-1.944-.091-2.802-.403a6.4 6.4 0 0 1-2.174-1.377c-.648-.643-1.052-1.402-1.663-2.552l-.063-.12a1 1 0 1 1 1.766-.937c.6 1.129.879 1.637 1.206 2.015l.394-1.34q.093-.455.188-.885a24 24 0 0 0 .293-1.48l-.212.07-.03.009c-.296.08-.604.092-.9.072l-.014-.001-.2-.02-.013-.002a1.827 1.827 0 0 1-1.513-2.359c.403-1.304 1.02-2.622 1.862-3.51.428-.45.959-.835 1.595-1.006.66-.177 1.346-.098 2.005.236.205.105.506.287.773.52a2.4 2.4 0 0 1 .407.448 4 4 0 0 1 .565-.077c.112-.009.247-.018.387-.026a10.5 10.5 0 0 1-.008-1.376c.079-1.779.795-3.265 2.09-4.416.404-.359.931-.677 1.46-.913.523-.233 1.128-.421 1.696-.454l.59-.035c.953-.056 1.716.643 1.87 1.503l.006.036.02.188.026.52.05.832.855.873.08.081c.713.704 1.004 1.623.78 2.634l-.002.007c-.226.985-.876 1.713-1.857 2.002l-.01.002a2.7 2.7 0 0 1-.663.103c.132.568.266 1.09.404 1.624.123.48.25.97.378 1.51l.002.01.177.774c.069.304.148.822.24 1.514v.005zM14.086 4.899c.216-.191.557-.407.946-.58.394-.176.754-.271.998-.285l.381-.023.018.346.054.891v.004c.028.442.21.865.524 1.188l.898.917.006.006.09.09.004.004c.236.232.304.455.233.776-.072.313-.218.452-.466.526a.5.5 0 0 1-.415-.04l-.337-.314a1.04 1.04 0 0 0-1.178-.168c-.414.21-.646.681-.535 1.153l.276 1.28c.175.802.37 1.564.56 2.304q.185.712.351 1.403l.175.766v.001c.046.202.115.633.207 1.33v.003l.119.933.114 1.96.001.332c-.354.106-.722.15-1.364.188l-.14-1.094-.002-.01c-.207-1.38-.667-2.366-1.375-2.999-.718-.642-1.545-.788-2.197-.788a2.8 2.8 0 0 0-2.158.985c-.585.662-.98 1.632-1.22 2.91l-.003.014-.16.996c-.825-.044-1.24-.087-1.652-.217l.025-.087.002-.007.56-1.904.01-.043c.048-.242.106-.508.166-.785.141-.653.295-1.362.369-1.933l.142-1.095q.036-.258.08-.503v-.006c.207-1.182 1.157-2.032 2.238-2.107h.008a58 58 0 0 1 1.362-.08 1.03 1.03 0 0 0 .927-.738c.059-.198.044-.372.04-.417v-.003a2 2 0 0 0-.017-.137v-.003l-.003-.017c-.111-.926-.112-1.27-.082-1.908V7.91c.054-1.241.53-2.22 1.42-3.012M7.818 10.22l-.004-.002c-.223-.146-.486-.263-.757-.19-.174.046-.4.175-.663.452-.394.524-1.007 1.835-1.208 2.515l.337-.114.767-.217a4.6 4.6 0 0 1 1.528-2.444m5.807 8.852.116.904a63 63 0 0 1-3.237.007l.117-.732c.208-1.097.505-1.664.752-1.944.212-.24.418-.308.66-.308.359 0 .636.076.863.279.237.212.562.69.729 1.794"/></svg>