<svg xmlns="http://www.w3.org/2000/svg" viewBox="0 0 24 24"><path fill-rule="evenodd" d="M12.825 16.54c.095-.447.139-1.004.159-1.685q.438.257.941.548l1.197.695c2.606 1.512 3.909 2.268 4.893 1.729.985-.54.985-2.01.985-4.95v-1.755c0-2.94 0-4.41-.985-4.948-.984-.54-2.287.216-4.893 1.728l-1.197.694q-.503.292-.942.55l-.005-.167c-.026-.721-.083-1.295-.208-1.741a2.5 2.5 0 0 0-.136-.377 1.42 1.42 0 0 0-.619-.687c-.984-.54-2.287.216-4.893 1.728l-.001.001-1.143.663-.053.03C3.317 10.11 2 10.875 2 12s1.317 1.89 3.925 3.403l.053.03 1.143.664.474.275c2.294 1.327 3.497 1.96 4.42 1.454l.029-.016c.413-.238.647-.648.78-1.27m1.173-5.67-.998.586v1.088l.998.587.931.543.052.03 1.144.663c1.353.785 2.18 1.26 2.786 1.504.084-.614.089-1.517.089-2.993v-1.756c0-1.476-.005-2.38-.089-2.993-.606.245-1.433.718-2.786 1.503l-1.144.664-.052.03zm-7.069 2.804C5.577 12.889 4.754 12.406 4.24 12q.097-.076.208-.156c.52-.375 1.298-.831 2.481-1.518l1.195-.693h.001c1.353-.786 2.18-1.26 2.786-1.504l.016.13c.028.25.046.558.057.944l.001.025c.014.5.015 1.119.015 1.894v1.756c0 .775-.001 1.393-.015 1.893v.026a12 12 0 0 1-.074 1.074 6 6 0 0 1-.238-.103c-.583-.265-1.364-.713-2.547-1.4h-.002z"/></svg>