<svg xmlns="http://www.w3.org/2000/svg" viewBox="0 0 44 44"><path fill-rule="evenodd" d="M21 5a2 2 0 0 0-.5 3.937v5.102c-2.163.106-4.595.408-6.664.718C11.012 15.181 9 17.645 9 20.501V33.47c0 3.292 3.134 5.703 6.375 5.124 2.203-.393 4.62-.716 6.625-.716s4.422.323 6.625.716c3.241.58 6.375-1.832 6.375-5.124V20.501c0-2.856-2.012-5.32-4.836-5.744-2.069-.31-4.501-.612-6.664-.718V8.937A2 2 0 0 0 23 5zm11 15.501V33.47c0 1.259-1.278 2.451-2.847 2.171-2.26-.404-4.881-.763-7.153-.763s-4.893.36-7.153.763c-1.569.28-2.847-.912-2.847-2.17V20.5c0-1.454 1.006-2.586 2.281-2.777C16.816 17.344 19.758 17 22 17s5.184.344 7.719.724c1.275.191 2.281 1.323 2.281 2.777M18.5 25a2 2 0 1 0 0-4 2 2 0 0 0 0 4m9-2a2 2 0 1 1-4 0 2 2 0 0 1 4 0m-10.552 7.895-.003-.002a1.5 1.5 0 0 1 1.11-2.787l.007.003.034.013.146.055a17 17 0 0 0 1.627.503c.73.185 1.495.32 2.131.32s1.401-.135 2.131-.32a17 17 0 0 0 1.789-.564l.022-.008.003-.002a1.5 1.5 0 0 1 1.11 2.787l-.002.001-.004.002-.01.004-.038.015-.131.05c-.111.04-.268.098-.463.164-.386.133-.926.304-1.538.459-.833.211-1.873.412-2.869.412s-2.036-.2-2.869-.412a20 20 0 0 1-2.11-.665l-.053-.02-.015-.006zM4 22.5A2.5 2.5 0 0 1 6.5 20a.5.5 0 0 1 .5.5v11a.5.5 0 0 1-.5.5A2.5 2.5 0 0 1 4 29.5zM37.5 20a2.5 2.5 0 0 1 2.5 2.5v7a2.5 2.5 0 0 1-2.5 2.5.5.5 0 0 1-.5-.5v-11a.5.5 0 0 1 .5-.5"/></svg>