<svg xmlns="http://www.w3.org/2000/svg" viewBox="0 0 44 44"><path fill-rule="evenodd" d="M19 7a2 2 0 0 1 2-2h2a2 2 0 0 1 .5 3.937v5.102c2.163.106 4.595.408 6.664.718 2.824.424 4.836 2.888 4.836 5.744V33.47c0 3.292-3.134 5.703-6.375 5.124-2.203-.393-4.62-.716-6.625-.716s-4.422.323-6.625.716C12.134 39.173 9 36.761 9 33.47V20.501c0-2.856 2.012-5.32 4.836-5.744 2.069-.31 4.501-.612 6.664-.718V8.937A2 2 0 0 1 19 7m-.5 18a2 2 0 1 0 0-4 2 2 0 0 0 0 4m9-2a2 2 0 1 1-4 0 2 2 0 0 1 4 0m-10.552 7.895-.003-.002a1.5 1.5 0 0 1 1.11-2.787l.007.003.034.013.146.055a17 17 0 0 0 1.627.503c.73.185 1.495.32 2.131.32s1.401-.135 2.131-.32a17 17 0 0 0 1.789-.564l.022-.008.003-.002a1.5 1.5 0 0 1 1.11 2.787l-.002.001-.004.002-.01.004-.038.015-.131.05c-.111.04-.268.098-.463.164-.386.133-.926.304-1.538.459-.833.211-1.873.412-2.869.412s-2.036-.2-2.869-.412a20 20 0 0 1-2.11-.665l-.053-.02-.015-.006zM4 22.5A2.5 2.5 0 0 1 6.5 20a.5.5 0 0 1 .5.5v11a.5.5 0 0 1-.5.5A2.5 2.5 0 0 1 4 29.5zM37.5 20a2.5 2.5 0 0 1 2.5 2.5v7a2.5 2.5 0 0 1-2.5 2.5.5.5 0 0 1-.5-.5v-11a.5.5 0 0 1 .5-.5"/></svg>