<svg xmlns="http://www.w3.org/2000/svg" viewBox="0 0 24 24"><path d="M9.88 14a1.25 1.25 0 1 0 0-2.5 1.25 1.25 0 0 0 0 2.5m5.49-1.25a1.25 1.25 0 1 1-2.5 0 1.25 1.25 0 0 1 2.5 0m-6.54 3.665a.75.75 0 0 1 1.002-.337h.002l.02.01q.032.015.104.044c.096.038.244.092.436.147.384.11.939.221 1.606.221s1.222-.111 1.607-.221a5 5 0 0 0 .539-.19l.02-.01.002-.001a.75.75 0 0 1 .667 1.343l-.335-.67.335.67h-.001l-.002.002-.006.003-.015.007a3 3 0 0 1-.212.092 6 6 0 0 1-.58.196c-.491.14-1.186.28-2.019.28a7.4 7.4 0 0 1-2.018-.28 6 6 0 0 1-.745-.266l-.048-.022-.015-.007-.005-.003-.002-.001-.002-.001.335-.67-.335.67a.75.75 0 0 1-.336-1.006"/><path fill-rule="evenodd" d="M11 4.915A1.5 1.5 0 0 1 11.5 2h1a1.5 1.5 0 0 1 .5 2.915V7.02a20 20 0 0 1 3.846.519c1.706.415 2.654 2.036 2.654 3.792v6.836c0 2.058-1.767 3.67-3.82 3.522-1.4-.102-2.845-.19-3.68-.19s-2.28.088-3.68.19c-2.053.148-3.82-1.463-3.82-3.522v-6.836c0-1.756.948-3.377 2.654-3.792 1-.243 2.282-.454 3.846-.519zm6.5 13.252v-6.836c0-1.115-.564-1.712-1.127-1.849C15.318 9.226 13.862 9 12 9s-3.318.226-4.373.482c-.563.137-1.127.734-1.127 1.849v6.836c0 .873.757 1.593 1.675 1.527 1.39-.1 2.906-.194 3.825-.194s2.435.093 3.825.194c.918.067 1.675-.654 1.675-1.527"/><path d="M3.25 11C2.56 11 2 11.56 2 12.25v3.5c0 .69.56 1.25 1.25 1.25a.25.25 0 0 0 .25-.25v-5.5a.25.25 0 0 0-.25-.25M22 12.25c0-.69-.56-1.25-1.25-1.25a.25.25 0 0 0-.25.25v5.5c0 .138.112.25.25.25.69 0 1.25-.56 1.25-1.25z"/></svg>