<svg xmlns="http://www.w3.org/2000/svg" viewBox="0 0 16 16"><path d="M7.38 7.541a.875.875 0 1 1-1.75 0 .875.875 0 0 1 1.75 0m2.115.875a.875.875 0 1 0 0-1.75.875.875 0 0 0 0 1.75M6.5 10.25l-.28.56h.004l.004.002.01.006.138.06c.088.034.211.079.365.123a4.6 4.6 0 0 0 2.883-.124l.138-.06.01-.005.004-.002h.003l-.279-.56.28.56a.625.625 0 0 0-.556-1.12l-.009.003-.055.024a3 3 0 0 1-.244.082A3.4 3.4 0 0 1 8 9.925c-.381 0-.698-.064-.916-.126a3 3 0 0 1-.3-.106l-.008-.004a.625.625 0 0 0-.555 1.12z"/><path fill-rule="evenodd" d="M7.25 2.969A1 1 0 0 1 7.5 1h1a1 1 0 0 1 .25 1.969v1.048a13 13 0 0 1 2.48.342C12.368 4.636 13 5.716 13 6.887v4.557c0 1.372-1.178 2.447-2.547 2.348-.933-.068-1.897-.126-2.453-.126-.557 0-1.52.058-2.454.126C4.178 13.89 3 12.816 3 11.444V6.887c0-1.17.632-2.251 1.77-2.528a13 13 0 0 1 2.48-.342zm4.25 8.475V6.887a1.4 1.4 0 0 0-.207-.768.67.67 0 0 0-.417-.302C10.186 5.649 9.227 5.5 8 5.5c-1.228 0-2.185.149-2.876.317a.68.68 0 0 0-.417.302 1.4 1.4 0 0 0-.207.768v4.557c0 .483.42.89.938.852.926-.067 1.942-.13 2.562-.13s1.636.063 2.562.13a.867.867 0 0 0 .938-.852"/><path d="M2.029 6.4C1.46 6.4 1 6.86 1 7.428v2.243c0 .568.46 1.029 1.029 1.029a.17.17 0 0 0 .171-.171V6.57a.17.17 0 0 0-.171-.171m11.942.001C14.54 6.4 15 6.86 15 7.428v2.243c0 .568-.46 1.029-1.029 1.029a.17.17 0 0 1-.171-.171V6.57c0-.094.077-.171.171-.171"/></svg>