<svg xmlns="http://www.w3.org/2000/svg" viewBox="0 0 24 24"><path fill-rule="evenodd" d="M10 3.5a1.5 1.5 0 0 0 1 1.415V7.02a20 20 0 0 0-3.846.519C5.448 7.954 4.5 9.575 4.5 11.331v6.836c0 2.058 1.767 3.67 3.82 3.522 1.4-.102 2.845-.19 3.68-.19s2.28.088 3.68.19c2.053.148 3.82-1.463 3.82-3.522v-6.836c0-1.756-.948-3.377-2.654-3.792A20 20 0 0 0 13 7.02V4.915A1.5 1.5 0 0 0 12.5 2h-1A1.5 1.5 0 0 0 10 3.5m1.13 9.25a1.25 1.25 0 1 1-2.5 0 1.25 1.25 0 0 1 2.5 0m4.24 0a1.25 1.25 0 1 1-2.5 0 1.25 1.25 0 0 1 2.5 0m-6.54 3.915a.75.75 0 0 1 1.002-.337h.002l.02.01q.032.015.104.044c.096.038.244.092.435.147.385.11.94.221 1.607.221s1.222-.111 1.607-.221a5 5 0 0 0 .538-.191l.02-.01h.003a.75.75 0 0 1 .667 1.343L14.5 17l.335.671h-.001l-.002.002-.006.002-.015.008a5 5 0 0 1-.212.091 6 6 0 0 1-.58.197A7.4 7.4 0 0 1 12 18.25a7.4 7.4 0 0 1-2.019-.279 6 6 0 0 1-.744-.266l-.048-.022-.015-.008-.006-.002-.002-.001-.001-.001a.75.75 0 0 1-.336-1.006"/><path d="M2 12.25c0-.69.56-1.25 1.25-1.25a.25.25 0 0 1 .25.25v5.5a.25.25 0 0 1-.25.25C2.56 17 2 16.44 2 15.75zm20 0c0-.69-.56-1.25-1.25-1.25a.25.25 0 0 0-.25.25v5.5c0 .138.112.25.25.25.69 0 1.25-.56 1.25-1.25z"/></svg>