<svg xmlns="http://www.w3.org/2000/svg" viewBox="0 0 24 24"><path d="M19 3a1 1 0 0 0-1-1l-7.564.008c-1.437 0-2.578.308-3.36 1.099-.765.775-.99 1.823-1.072 2.809A1 1 0 0 0 7 7h8.172c.24.929.68 1.686 1.43 2.21.917.638 2.11.79 3.398.79a1 1 0 1 0 0-2c-1.212 0-1.869-.163-2.253-.431-.326-.228-.623-.654-.754-1.693L16.886 5H18a1 1 0 0 0 1-1z"/><path d="M14.717 9H7.283c-.923 1.66-2.102 3.91-2.77 5.947C4.214 15.854 4 16.777 4 17.6c0 1.824 1.079 3.67 3.11 4.057 1.004.191 2.3.343 3.89.343 1.589 0 2.886-.152 3.89-.343 2.031-.387 3.11-2.233 3.11-4.058 0-.821-.215-1.745-.512-2.652C16.819 12.91 15.64 10.66 14.717 9"/></svg>