<svg xmlns="http://www.w3.org/2000/svg" viewBox="0 0 24 24"><path fill-rule="evenodd" d="M18 2a1 1 0 0 1 1 1v3a1 1 0 0 1-1 1h-.717c.134.28.295.452.463.57.385.267 1.042.43 2.254.43a1 1 0 1 1 0 2c-1.288 0-2.482-.151-3.398-.79-.568-.397-.959-.927-1.22-1.564-.316.343-.401.867-.778 1.152.937 1.674 2.188 4.028 2.884 6.149.297.907.512 1.83.512 2.653 0 1.824-1.079 3.67-3.11 4.057A21 21 0 0 1 11 22c-1.59 0-2.886-.151-3.89-.343C5.079 21.27 4 19.424 4 17.6c0-.822.215-1.746.512-2.653C5.181 12.91 6.36 10.66 7.283 9H6a1 1 0 0 1-1-1c0-.728 0-1.481.058-2.135.06-.66.184-1.334.483-1.933.314-.627.8-1.135 1.5-1.468C7.71 2.145 8.52 2.002 9.466 2zm-5.58 7H9.58c-1.2 2.102-2.41 4.261-3.167 6.57C6.14 16.399 6 17.089 6 17.6c0 1.118.625 1.929 1.484 2.092.883.17 2.056.308 3.516.308s2.633-.14 3.516-.308C15.375 19.53 16 18.719 16 17.6c0-.512-.14-1.202-.413-2.03-.758-2.309-1.967-4.468-3.167-6.57m4.434-4a4 4 0 0 0-3.464 2H7.006c.006-.346.018-.663.045-.956.05-.556.143-.944.28-1.218.122-.246.29-.423.57-.557C8.21 4.123 8.7 4 9.487 4H17v1z"/></svg>