<svg xmlns="http://www.w3.org/2000/svg" viewBox="0 0 16 16"><path fill-rule="evenodd" d="M12.247.998a.75.75 0 0 1 .75.75v2.006a.75.75 0 0 1-.75.75h-.639c.094.34.218.54.353.665.19.178.54.33 1.289.33a.75.75 0 0 1 0 1.5c-.917 0-1.72-.18-2.312-.733a2.66 2.66 0 0 1-.674-1.046l-.314.455a1 1 0 0 1-.116.133c.342.635.739 1.413 1.097 2.215.282.632.546 1.29.74 1.914.19.614.329 1.241.329 1.796v.25c0 1.242-.724 2.53-2.139 2.798-.654.124-1.494.22-2.53.22a14.4 14.4 0 0 1-2.59-.222c-1.453-.266-2.237-1.582-2.237-2.885v-.16c0-.565.153-1.199.36-1.814.21-.625.495-1.284.797-1.915C4.005 7.288 4.38 6.59 4.71 6h-.96A.75.75 0 0 1 3 5.25c0-.493 0-.996.04-1.456.041-.46.126-.934.327-1.361a2.28 2.28 0 0 1 1.024-1.079c.608-.318 1.289-.35 1.959-.352L7.05 1l4.235-.003zm-.75 1.5h-.211l-4.932.004c-.425.001-.883-.02-1.267.181a.78.78 0 0 0-.363.387c-.092.198-.155.472-.19.856q-.022.268-.028.574h4.433l.211-.307a2.75 2.75 0 0 1 2.265-1.19h.082zM6.433 6a42 42 0 0 0-1.42 2.653c-.287.6-.544 1.199-.728 1.746-.187.557-.281 1.01-.281 1.334v.161c0 .761.432 1.304 1.008 1.41.595.108 1.37.197 2.32.197.941 0 1.688-.088 2.25-.194.521-.099.918-.596.918-1.324v-.25c0-.333-.088-.793-.262-1.351a16 16 0 0 0-.676-1.747A34 34 0 0 0 8.228 6z"/></svg>