<svg xmlns="http://www.w3.org/2000/svg" viewBox="0 0 16 16"><path fill-rule="evenodd" d="M2.054 6.611c.13-1.742.195-2.613 1.07-3.488.874-.874 1.745-.939 3.487-1.069.454-.033.921-.054 1.39-.054.467 0 .935.02 1.388.054 1.743.13 2.614.195 3.488 1.07.874.874.94 1.745 1.07 3.487.033.454.054.921.054 1.39 0 .467-.021.935-.055 1.388-.13 1.743-.195 2.614-1.069 3.488s-1.745.94-3.488 1.07C8.936 13.98 8.468 14 8 14s-.935-.021-1.389-.055c-1.742-.13-2.613-.195-3.488-1.069-.874-.874-.939-1.745-1.069-3.488A19 19 0 0 1 2 8c0-.468.02-.935.054-1.389m5.164-.647a.892.892 0 0 1 1.564 0l.38.695a.45.45 0 0 0 .179.178l.695.38a.892.892 0 0 1 0 1.565l-.695.38a.45.45 0 0 0-.179.179l-.38.695a.892.892 0 0 1-1.564 0l-.38-.694a.45.45 0 0 0-.179-.179l-.695-.38a.892.892 0 0 1 0-1.565l.695-.38a.45.45 0 0 0 .179-.179z"/></svg>