<svg xmlns="http://www.w3.org/2000/svg" viewBox="0 0 24 24"><path fill-rule="evenodd" d="M7.945 4.168C9.097 4.068 10.45 4 11.999 4s2.902.068 4.054.168c2.025.176 3.038.264 4.327 1.558s1.37 2.264 1.532 4.206a25 25 0 0 1 0 4.137c-.162 1.941-.242 2.912-1.532 4.206-1.289 1.294-2.302 1.382-4.326 1.557-1.153.1-2.505.168-4.054.168s-2.903-.068-4.056-.168c-2.024-.176-3.036-.264-4.325-1.557-1.29-1.294-1.37-2.264-1.532-4.205a25 25 0 0 1 0-4.14c.162-1.94.243-2.91 1.532-4.204S5.92 4.344 7.945 4.168M5.999 12a1 1 0 0 1 1-1h1a1 1 0 0 1 0 2H7a1 1 0 0 1-1-1m10 2a1 1 0 0 0 0 2h1a1 1 0 1 0 0-2zM6 15a1 1 0 0 1 1-1h6a1 1 0 0 1 0 2H7a1 1 0 0 1-1-1m5-4a1 1 0 0 0 0 2h6a1 1 0 1 0 0-2z"/></svg>