<svg xmlns="http://www.w3.org/2000/svg" viewBox="0 0 24 24"><path d="M9.751 9.5a1.252 1.252 0 1 1-2.503 0 1.252 1.252 0 0 1 2.503 0"/><path fill-rule="evenodd" d="M17.204 4.363C15.918 4.166 14.186 4 12 4s-3.918.166-5.204.363c-1.871.286-3.343 1.434-3.655 3.364a11.1 11.1 0 0 0 0 3.546c.312 1.93 1.784 3.078 3.655 3.364 1.083.166 2.483.31 4.204.351v2.28a2 2 0 0 0-.732.732H5a1 1 0 1 0 0 2h5.268a2 2 0 0 0 3.464 0H19a1 1 0 1 0 0-2h-5.268a2 2 0 0 0-.732-.733v-2.279a33 33 0 0 0 4.204-.35c1.871-.287 3.343-1.435 3.655-3.365a11.1 11.1 0 0 0 0-3.546c-.312-1.93-1.784-3.078-3.655-3.364M5.116 8.046a9.1 9.1 0 0 0 0 2.908c.174 1.078.962 1.55 1.982 1.706 1.187.182 2.818.34 4.902.34s3.716-.158 4.902-.34c1.02-.156 1.808-.628 1.982-1.706a9.1 9.1 0 0 0 0-2.908c-.174-1.078-.962-1.55-1.982-1.706C15.715 6.158 14.084 6 12 6s-3.716.158-4.902.34c-1.02.156-1.808.628-1.982 1.706"/></svg>