<svg xmlns="http://www.w3.org/2000/svg" viewBox="0 0 16 16"><path d="M6.9 6a.9.9 0 1 1-1.8 0 .9.9 0 0 1 1.8 0"/><path fill-rule="evenodd" d="M8 2.001c-1.45 0-2.602.12-3.458.262-1.286.214-2.21 1-2.427 2.313a8.8 8.8 0 0 0 0 2.85c.216 1.312 1.141 2.098 2.427 2.312.703.117 1.605.218 2.708.251v1.466c-.226.13-.415.32-.547.545H3.75a.75.75 0 0 0 0 1.5h2.948a1.5 1.5 0 0 0 2.604 0h2.948a.75.75 0 0 0 0-1.5H9.297a1.5 1.5 0 0 0-.547-.545V9.99a20 20 0 0 0 2.708-.251c1.285-.214 2.21-1 2.427-2.313a8.8 8.8 0 0 0 0-2.85c-.216-1.312-1.142-2.098-2.427-2.312A21 21 0 0 0 8 2.001m-4.5 4c0-.441.039-.838.095-1.182.097-.584.442-.951 1.192-1.076A20 20 0 0 1 8 3.5c1.368 0 2.437.113 3.213.242.75.125 1.095.492 1.192 1.076a7.3 7.3 0 0 1 0 2.363c-.097.585-.442.952-1.192 1.076-.776.13-1.845.242-3.213.242s-2.437-.113-3.213-.242c-.75-.124-1.095-.491-1.192-1.076A7 7 0 0 1 3.5 6"/></svg>