<svg xmlns="http://www.w3.org/2000/svg" viewBox="0 0 16 16"><path fill-rule="evenodd" d="M4.542 2.263A21 21 0 0 1 8 2.001c1.45 0 2.602.12 3.458.262 1.285.214 2.21 1 2.427 2.313a8.8 8.8 0 0 1 0 2.85c-.216 1.312-1.142 2.098-2.427 2.312-.703.117-1.605.218-2.708.251v1.466c.226.13.415.32.547.545h2.953a.75.75 0 0 1 0 1.5H9.302a1.5 1.5 0 0 1-2.604 0H3.75a.75.75 0 0 1 0-1.5h2.953c.132-.226.32-.414.547-.545V9.99a20 20 0 0 1-2.708-.251c-1.286-.214-2.21-1-2.427-2.313a8.8 8.8 0 0 1 0-2.85c.216-1.312 1.141-2.098 2.427-2.312M6 7a1 1 0 1 0 0-2 1 1 0 0 0 0 2"/></svg>