<svg xmlns="http://www.w3.org/2000/svg" viewBox="0 0 44 44"><path fill-rule="evenodd" d="M7 10.25c0-.828.669-1.5 1.493-1.5h2.44a2.49 2.49 0 0 1 2.342 1.652l.663 1.848h20.31c1.654 0 3.013 1.472 2.71 3.206-.212 1.204-.6 3.058-1.222 4.42-1.666 3.648-3.767 5.127-4.599 5.592a2.3 2.3 0 0 1-1.111.282H18.78l1.073 2.991.003.009h11.286A3.243 3.243 0 0 1 34.378 32a3.243 3.243 0 0 1-3.235 3.25 3.243 3.243 0 0 1-3.226-3.5H18.44q.01.124.01.25a3.243 3.243 0 0 1-3.236 3.25A3.243 3.243 0 0 1 11.978 32a3.243 3.243 0 0 1 3.286-3.25h1.418l-6.098-17h-2.09A1.497 1.497 0 0 1 7 10.25m10.705 12.5h12.14c.535-.344 1.956-1.451 3.176-4.125.41-.897.727-2.243.938-3.375H15.014z"/></svg>