<svg xmlns="http://www.w3.org/2000/svg" viewBox="0 0 24 24"><path d="M9.315 9c0 1.105 1.227 2 2.685 2s2.685-.895 2.685-2c-.324-1.669-.693-3.328-1-5h-3.37c-.306 1.672-.676 3.331-1 5M8.281 4H5.92a1.82 1.82 0 0 0-1.537.845C3.027 6.983 2.134 8.233 2 9.235 2.154 10.23 3.287 11 4.64 11c1.215 0 2.238-.62 2.546-1.466.225-1.371.632-3.058 1.095-5.534M4.04 12.967a50 50 0 0 0 .128 6.09c.067.77.121 1.395.234 1.943H10v-2.5c0-.314.018-.628.043-.917.054-.605.08-.908.363-1.193.386-.39 1.053-.39 1.577-.39h.033c.525 0 1.192 0 1.578.39.283.285.31.588.363 1.193.025.289.043.603.043.917V21h5.599c.113-.548.167-1.172.234-1.943.1-1.153.168-2.506.168-4.056q-.001-1.08-.04-2.034a6 6 0 0 1-.6.033c-1.126 0-2.22-.343-3.075-.992a4.3 4.3 0 0 1-.606-.558q-.282.315-.605.558c-.856.649-1.95.992-3.075.992-1.124 0-2.218-.343-3.074-.992a4.3 4.3 0 0 1-.605-.557 4.2 4.2 0 0 1-.606.557c-.856.65-1.95.992-3.074.992a6 6 0 0 1-.6-.033M22 9.235c-.215-1.604-1.52-3.028-2.384-4.39A1.82 1.82 0 0 0 18.08 4h-2.361c.462 2.47.868 4.156 1.093 5.526.305.85 1.33 1.474 2.548 1.474 1.353 0 2.486-.771 2.64-1.765"/></svg>