<svg xmlns="http://www.w3.org/2000/svg" viewBox="0 0 32 32"><path fill-rule="evenodd" d="M6.097 6.22A2.42 2.42 0 0 1 8.2 5h15.598a2.42 2.42 0 0 1 2.103 1.22q.367.644.699 1.217l.01.017C28.14 10.109 29.04 11.67 29 13c0 1.592-.857 2.849-2.085 3.625A66 66 0 0 1 27 20.002a63 63 0 0 1-.207 5.21c-.093 1.115-.168 2.008-.332 2.788H5.538c-.165-.78-.239-1.673-.332-2.788A63 63 0 0 1 5 20.002q.002-1.826.084-3.376C3.856 15.849 2.999 14.592 2.999 13c-.04-1.331.86-2.894 2.394-5.554l.007-.011q.33-.572.697-1.215m1.451 11.248a65 65 0 0 0-.048 2.534 60 60 0 0 0 .24 5.498h5.76v-1.75c0-.567.032-1.134.074-1.636.068-.807.103-1.21.474-1.59.484-.497 1.292-.524 1.951-.524.66 0 1.468.027 1.952.523.371.38.406.784.474 1.591.042.502.075 1.069.075 1.636v1.75h5.76l.041-.495c.119-1.425.199-3.094.199-5.003q-.001-1.347-.05-2.535a6 6 0 0 1-.617.033c-1.474 0-2.929-.557-3.917-1.535-.989.978-2.443 1.535-3.917 1.535s-2.928-.557-3.917-1.535c-.988.978-2.443 1.535-3.916 1.535q-.31 0-.618-.032m18.415-6.03c.5 1.005.537 1.45.534 1.562 0 .932-.951 2-2.665 2s-2.666-1.068-2.666-2c.031-1.261-.32-2.9-.925-5.5h3.511l.718 1.25c.642 1.112 1.128 1.957 1.493 2.688m-7.434.044c.118.72.15 1.19.137 1.518 0 .932-.953 2-2.667 2s-2.662-1.068-2.662-2c-.014-.327.015-.798.132-1.518.16-.988.446-2.232.855-3.982h3.35c.41 1.75.695 2.994.855 3.982M8.166 15c1.713 0 2.666-1.068 2.666-2-.031-1.261.32-2.9.925-5.5H8.246l-.717 1.247C6.887 9.86 6.4 10.706 6.036 11.438c-.5 1.005-.538 1.45-.534 1.562 0 .932.95 2 2.664 2"/></svg>