<svg xmlns="http://www.w3.org/2000/svg" viewBox="0 0 44 44"><path fill-rule="evenodd" d="M35.71 9.553A3.29 3.29 0 0 0 32.917 8H11.084A3.29 3.29 0 0 0 8.29 9.553a122 122 0 0 1-2.07 3.206C5.185 14.319 4 16.109 4 18c0 2.227 1.29 3.977 3.11 4.999A91 91 0 0 0 7 27.5c0 2.907.13 5.438.322 7.59.1 1.116.185 2.065.319 2.91h28.718c.134-.845.22-1.794.319-2.91.192-2.153.322-4.684.322-7.59 0-1.617-.04-3.117-.11-4.501C38.71 21.977 40 20.227 40 18c0-1.89-1.11-3.568-2.206-5.221l-.19-.287c-.55-.835-1.186-1.798-1.894-2.939m-1.78 14.393Q34 25.611 34 27.5a83 83 0 0 1-.31 7.323l-.016.177H25.5v-2.5c0-.9-.053-1.799-.12-2.576-.094-1.106-.141-1.659-.642-2.18C24.068 27.05 22.919 27 22 27c-.92 0-2.068.05-2.738.745-.5.52-.548 1.073-.643 2.179A31 31 0 0 0 18.5 32.5V35h-8.174l-.016-.177A83 83 0 0 1 10 27.5q.001-1.89.07-3.554A8 8 0 0 0 11 24c2.103 0 4.165-.825 5.5-2.25C17.835 23.174 19.897 24 22 24s4.165-.825 5.5-2.25C28.835 23.174 30.897 24 33 24a8 8 0 0 0 .93-.054m-26.255-7.9C7.303 16.665 7 17.5 7 18c0 1.427 1.485 3 4 3s4-1.573 4-3c-.018-1.538.449-3.45 1.247-6.713l.07-.287h-5.233c-.1 0-.193.052-.245.136a122 122 0 0 1-1.867 2.899l-.051.077a59 59 0 0 0-1.246 1.935m10.505.248c-.141.784-.187 1.312-.18 1.706 0 1.427 1.485 3 4 3s4-1.573 4-3c.007-.394-.039-.922-.18-1.706-.246-1.367-.583-2.716-.92-4.065q-.154-.615-.304-1.229h-5.191l-.262 1.071c-.451 1.848-.77 3.154-.963 4.223M33 21c-2.515 0-4-1.573-4-3 .019-1.539-.449-3.452-1.248-6.72l-.068-.28h5.233c.1 0 .192.052.244.136a123 123 0 0 0 1.867 2.899l.051.077c.523.792.925 1.402 1.246 1.935C37.011 17.185 37 18 37 18c0 1.427-1.485 3-4 3"/></svg>