<svg xmlns="http://www.w3.org/2000/svg" viewBox="0 0 32 32"><path d="M12.166 12.25c.18 1.355 1.854 2.417 3.832 2.417s3.658-1.062 3.837-2.417c-.408-2.425-.924-4.83-1.363-7.25H13.53c-.438 2.419-.955 4.826-1.363 7.25M10.988 5h-2.87c-.822 0-1.586.425-2.019 1.125C4.35 8.947 3 11 3 12.272c-.017 1.228 1.598 2.395 3.314 2.395 1.726 0 3.144-1.062 3.3-2.417.388-2.428.93-4.832 1.374-7.25M5.065 17.039Q5.002 18.416 5 20.002c0 1.979.083 3.716.207 5.21.093 1.115.167 2.008.332 2.788H13.5v-3.75c0-.567.032-1.134.075-1.636.068-.807.102-1.21.474-1.59.37-.381.711-.418 1.391-.492A5 5 0 0 1 16 20.5a5 5 0 0 1 .56.032c.68.074 1.02.11 1.392.491.371.38.405.784.473 1.591.043.502.075 1.069.075 1.636V28h7.961c.165-.78.24-1.673.332-2.788a63 63 0 0 0 .207-5.21 67 67 0 0 0-.064-2.964c-.42.085-.842.129-1.254.129-1.659 0-3.494-.705-4.65-2.035a5.6 5.6 0 0 1-.912.8c-1.157.812-2.622 1.235-4.122 1.235s-2.966-.423-4.122-1.235a5.7 5.7 0 0 1-.911-.797c-1.157 1.328-2.992 2.032-4.65 2.032a6.3 6.3 0 0 1-1.25-.128M29 12.266c0-1.266-1.349-3.319-3.098-6.142A2.38 2.38 0 0 0 23.882 5h-2.868c.443 2.418.984 4.822 1.371 7.25.157 1.355 1.573 2.417 3.297 2.417 1.718 0 3.318-1.135 3.318-2.401"/></svg>