<svg xmlns="http://www.w3.org/2000/svg" viewBox="0 0 16 16"><path fill-rule="evenodd" d="M14.463 5.928c-.124-.527-.501-1.155-1.063-2.092q-.206-.343-.444-.744A1.2 1.2 0 0 0 11.92 2.5H4.08c-.427 0-.82.225-1.037.592q-.236.4-.442.74c-.563.94-.94 1.568-1.064 2.096a1.2 1.2 0 0 0-.014.53c.109.657.502 1.198 1.036 1.557a33 33 0 0 0-.059 1.986c0 .99.041 1.858.103 2.605.047.557.084 1.004.166 1.394h10.462c.082-.39.12-.836.165-1.394.063-.747.104-1.615.104-2.605q-.002-1.091-.059-1.986c.534-.36.927-.9 1.036-1.558.034-.205.03-.337-.014-.529m-2.498 2.57-.127.002a2.85 2.85 0 0 1-1.919-.734c-.502.463-1.2.734-1.919.734s-1.417-.27-1.919-.734a2.85 2.85 0 0 1-2.046.731A32 32 0 0 0 4.1 12.5h2.4V12c0-.296.016-.592.038-.855.037-.437.055-.655.235-.844.28-.294.84-.301 1.227-.301s.947.007 1.227.3c.18.19.198.408.235.845.022.263.038.56.038.855v.5h2.4a32 32 0 0 0 .065-4.003m1.024-2.27a3 3 0 0 0-.211-.472 24 24 0 0 0-.637-1.1q-.176-.291-.392-.656h-1.483c.231.964.379 1.648.413 2.19.065.387.475.81 1.159.81.66 0 1.066-.395 1.151-.771m-9.978 0c.023-.075.079-.22.21-.472.163-.309.368-.65.639-1.102q.176-.292.39-.654h1.483c-.231.965-.379 1.65-.412 2.193C5.254 6.58 4.844 7 4.162 7c-.66 0-1.067-.396-1.151-.772m3.823-.101a6 6 0 0 1 .047-.337c.076-.449.208-1.009.397-1.79h1.443c.19.781.321 1.341.397 1.79q.033.196.048.339C9.137 6.53 8.72 7 8 7c-.721 0-1.138-.47-1.166-.873"/></svg>