<svg xmlns="http://www.w3.org/2000/svg" viewBox="0 0 24 24"><path fill-rule="evenodd" d="M19.99 9.448c.01.134.01.298.01.502V12q0 .465-.008.906-.33.19-.613.473l-2.382 2.382a3 3 0 0 0-4.118 4.36l1.745 1.745-.554.047a25 25 0 0 1-4.14 0c-1.94-.161-2.911-.242-4.205-1.532-1.294-1.289-1.381-2.301-1.557-4.325A47 47 0 0 1 4 12c0-1.549.068-2.901.168-4.054.175-2.025.263-3.038 1.557-4.327s2.265-1.37 4.207-1.532A25 25 0 0 1 12 2h.127a12 12 0 0 1 .414.009c.362.02.71.084 1.05.286.48.287 1.398 1.095 3.197 2.894a32 32 0 0 1 2.803 3.18q.114.147.179.228c.15.183.203.486.22.851M13.002 4.35q.149.125.356.312a56 56 0 0 1 2.017 1.941A30 30 0 0 1 17.542 9H17.5c-1.033 0-2.067-.134-2.825-.263-.548-.093-.822-.14-1.047-.365s-.272-.5-.365-1.047C13.133 6.567 13 5.534 13 4.5z"/><path d="M22.207 16.207a1 1 0 0 0-1.414-1.414L17 18.586l-1.293-1.293a1 1 0 0 0-1.414 1.414l2 2a1 1 0 0 0 1.414 0z"/></svg>