<svg xmlns="http://www.w3.org/2000/svg" viewBox="0 0 24 24"><path fill-rule="evenodd" d="M5.501 3.713C7.311 2.899 9.805 2 12 2s4.69.899 6.499 1.713c1.171.526 1.757.79 2.16 1.45s.368 1.33.297 2.667c-.202 3.804-.95 7.54-3.348 10.62C16.42 19.972 13.934 22 12 22s-4.42-2.027-5.608-3.55c-2.399-3.08-3.146-6.816-3.348-10.62-.07-1.337-.106-2.006.297-2.667.403-.66.989-.924 2.16-1.45m3.134 5.965.008-.008h-.001l-.002.003-.003.003zm-.003.003-.002.002zl.002-.002zm0 0a1 1 0 0 1-1.475-1.35l.001-.002.003-.002.005-.006.012-.013a2 2 0 0 1 .135-.13 3 3 0 0 1 .351-.268c.29-.188.754-.41 1.336-.41s1.045.222 1.336.41a2.8 2.8 0 0 1 .486.398l.013.013.004.006.002.002.002.001v.001a1 1 0 1 1-1.49 1.336 1 1 0 0 0-.101-.077A.5.5 0 0 0 9 9.5a.5.5 0 0 0-.252.09 1 1 0 0 0-.116.091m6.008-.008-.005.005.002-.002zm-.01.01.002-.002a1 1 0 0 1-1.476-1.35h.002v-.002l.003-.002.005-.006.012-.013a2 2 0 0 1 .135-.13c.083-.076.202-.172.351-.268.29-.188.754-.41 1.336-.41s1.045.222 1.336.41a2.8 2.8 0 0 1 .486.398l.012.013.005.006.003.002v.001l-.003-.003.005.004a1 1 0 0 1-1.476 1.35l-.005-.005-.01-.01a1 1 0 0 0-.101-.076A.5.5 0 0 0 15 9.5a.5.5 0 0 0-.252.09 1 1 0 0 0-.116.091zM9.012 12.75a.76.76 0 0 0-.743.918c.028.132.221.979.745 1.811.529.84 1.47 1.771 2.986 1.771s2.457-.931 2.986-1.77c.523-.833.717-1.68.745-1.812a.76.76 0 0 0-.743-.918z"/></svg>