<svg xmlns="http://www.w3.org/2000/svg" viewBox="0 0 44 44"><path fill-rule="evenodd" d="M9.078 10.508C11.453 9.251 16.491 7 21.956 7c4.82 0 10.291 2.327 12.899 3.598.402.196.645.587.642 1.032-.013 2.27-.23 6.616-1.486 10.953-1.075 3.717-3.209 7.401-5.605 10.14-1.195 1.367-2.424 2.462-3.576 3.205-1.172.755-2.15 1.072-2.874 1.072-.718 0-1.676-.317-2.821-1.074-1.126-.746-2.322-1.845-3.483-3.216-2.324-2.747-4.376-6.432-5.399-10.111-1.215-4.372-1.617-8.747-1.748-11.035-.027-.466.202-.86.573-1.056M21.956 4C15.76 4 10.2 6.52 7.673 7.857c-1.45.767-2.257 2.29-2.166 3.879.137 2.386.556 7 1.853 11.665 1.147 4.13 3.418 8.195 6 11.246 1.292 1.527 2.695 2.839 4.117 3.78 1.404.928 2.944 1.573 4.479 1.573 1.527 0 3.077-.633 4.501-1.551 1.444-.93 2.88-2.23 4.21-3.752 2.657-3.037 5.02-7.103 6.229-11.28 1.364-4.715 1.59-9.372 1.604-11.77a4.13 4.13 0 0 0-2.329-3.745C33.526 6.612 27.517 4 21.956 4m-8.724 13.104a1.5 1.5 0 0 0 2.109-.075l.003-.003q.014-.015.058-.054a2 2 0 0 1 .274-.203c.25-.158.536-.269.824-.269.289 0 .574.11.824.269a2.2 2.2 0 0 1 .332.257l.004.003a1.5 1.5 0 0 0 2.109.075 1.5 1.5 0 0 0 .088-2.12l-.006-.007.006.007-.001-.001-.002-.002-.003-.004-.008-.008-.02-.021a4 4 0 0 0-.246-.233 5 5 0 0 0-.65-.484c-.543-.342-1.384-.731-2.427-.731s-1.883.39-2.426.731a5.2 5.2 0 0 0-.838.658l-.058.059-.02.021-.008.008-.004.004-.001.002h-.001s.006-.006 0 .002a1.5 1.5 0 0 0 .088 2.119m11.01 0a1.5 1.5 0 0 0 2.109-.075l.003-.003.058-.054c.06-.053.155-.128.274-.203.25-.158.536-.269.824-.269.289 0 .574.11.824.269a2.2 2.2 0 0 1 .333.257l.003.003a1.5 1.5 0 0 0 2.109.075 1.5 1.5 0 0 0 .088-2.12c-.003-.003 0 0 0 0l-.001-.001-.002-.002-.003-.004-.008-.008-.02-.021a4 4 0 0 0-.246-.233 5 5 0 0 0-.65-.484c-.543-.342-1.384-.731-2.427-.731-1.042 0-1.883.39-2.426.731a5.2 5.2 0 0 0-.837.658l-.059.059-.02.021-.008.008-.004.004-.001.002s.033-.035-.002.002a1.5 1.5 0 0 0 .089 2.119m-8.674 7.865c-.253-1.051.569-1.969 1.555-1.969h9.765c.986 0 1.808.918 1.555 1.969-.108.448-.495 1.872-1.412 3.218C26.098 29.555 24.494 31 22.005 31s-4.093-1.445-5.025-2.813c-.917-1.346-1.305-2.77-1.412-3.218M19.158 26q.136.25.304.498c.601.883 1.395 1.502 2.543 1.502s1.942-.619 2.544-1.501a6 6 0 0 0 .303-.499z"/></svg>