<svg xmlns="http://www.w3.org/2000/svg" viewBox="0 0 24 24"><path fill-rule="evenodd" d="M12 2c-2.195 0-4.69.899-6.499 1.713-1.171.526-1.757.79-2.16 1.45s-.368 1.33-.297 2.667c.202 3.804.95 7.54 3.348 10.62C7.58 19.972 10.066 22 12 22s4.42-2.027 5.608-3.55c2.399-3.08 3.146-6.816 3.348-10.62.07-1.337.106-2.006-.297-2.667-.403-.66-.989-.924-2.16-1.45C16.689 2.899 14.195 2 12 2m0 2c-1.748 0-3.917.745-5.675 1.536-.631.284-.926.421-1.128.547a.52.52 0 0 0-.183.316c-.02.256-.006.607.032 1.325.194 3.646.901 6.895 2.93 9.498.465.597 1.232 1.344 2.08 1.928.903.623 1.592.85 1.944.85s1.041-.227 1.944-.85c.848-.583 1.615-1.331 2.08-1.928 2.029-2.603 2.736-5.852 2.93-9.498.038-.718.052-1.069.032-1.325a.48.48 0 0 0-.183-.316c-.202-.126-.497-.263-1.128-.547C15.917 4.746 13.748 4 12 4M8.635 9.678l.008-.008h-.001l-.002.003-.003.003zm-.003.003-.002.002zl.002-.002zm0 0a1 1 0 0 1-1.475-1.35l.001-.002.003-.002.005-.006.012-.013a2 2 0 0 1 .135-.13 3 3 0 0 1 .351-.268c.29-.188.754-.41 1.336-.41s1.045.222 1.336.41a2.8 2.8 0 0 1 .486.398l.013.013.004.006.002.002.002.001h-.002l.003.001a1 1 0 1 1-1.492 1.336 1 1 0 0 0-.1-.077A.5.5 0 0 0 9 9.5a.5.5 0 0 0-.252.09 1 1 0 0 0-.116.091m6.003-.003.005-.005-.003.003zm-.003.003-.002.002zm-1.4.062a1 1 0 0 0 1.416-.076 1 1 0 0 1 .1-.077A.5.5 0 0 1 15 9.5c.068 0 .155.028.252.09a1 1 0 0 1 .1.077l.01.01.006.005a1 1 0 0 0 1.475-1.35V8.33h-.002l-.002-.003-.005-.006-.012-.013a2 2 0 0 0-.135-.13 3 3 0 0 0-.351-.268A2.47 2.47 0 0 0 15 7.5c-.582 0-1.045.222-1.336.41a2.8 2.8 0 0 0-.486.398l-.013.013-.004.006-.002.002-.002.001v.001a1 1 0 0 0 .074 1.412m-5.174 4.121c-.186-.735.393-1.364 1.064-1.364h5.756c.671 0 1.25.629 1.064 1.364a6.2 6.2 0 0 1-.9 1.98C14.465 16.66 13.488 17.5 12 17.5s-2.465-.84-3.042-1.655a6.2 6.2 0 0 1-.9-1.981m2.408.636q.058.096.124.189c.345.487.784.811 1.41.811s1.065-.324 1.41-.811q.066-.093.124-.189z"/></svg>