<svg xmlns="http://www.w3.org/2000/svg" viewBox="0 0 16 16"><path fill-rule="evenodd" d="M3.69 2.188C4.894 1.622 6.546 1 8 1s3.106.622 4.31 1.188c.788.371 1.182.557 1.456 1.012s.252.914.207 1.831c-.132 2.693-.63 5.341-2.259 7.516C10.924 13.603 9.322 15 8 15s-2.923-1.397-3.714-2.453C2.657 10.372 2.159 7.724 2.027 5.03c-.045-.917-.067-1.376.207-1.83.274-.456.668-.642 1.456-1.013M6.1 8.75h3.8c.313 0 .543.281.444.577-.27.806-.934 2.173-2.344 2.173s-2.074-1.367-2.344-2.173c-.099-.296.131-.577.443-.577m3.957-2.232.016.016-.021-.015A.1.1 0 0 0 10 6.5a.1.1 0 0 0-.051.019l-.022.015a.75.75 0 0 1-1.071-1.05v-.001h.002l.001-.003.004-.004.009-.008a1 1 0 0 1 .088-.081c.053-.045.127-.1.22-.156C9.361 5.122 9.643 5 10 5s.638.122.82.231a1.7 1.7 0 0 1 .308.237l.01.008.003.004.002.002v.001l-.002-.003.003.004a.75.75 0 0 1-1.07 1.05v.001l-.002-.002-.006-.006-.004-.005-.003-.003zm-3.984.016-.017-.017h.001l.002.002.003.003.004.005.006.006.003.003zm-1.19.01a.75.75 0 0 0 1.044-.01l.022-.015A.1.1 0 0 1 6 6.5a.1.1 0 0 1 .051.019l.022.015a.75.75 0 0 0 1.071-1.05v-.001h-.002l-.001-.003-.004-.004-.009-.008a1 1 0 0 0-.088-.081 2 2 0 0 0-.22-.156A1.6 1.6 0 0 0 6 5c-.356 0-.638.122-.82.231a1.7 1.7 0 0 0-.308.237l-.01.008-.003.004-.001.002-.001.001s.015-.015-.001 0a.75.75 0 0 0 .028 1.061"/></svg>