<svg xmlns="http://www.w3.org/2000/svg" viewBox="0 0 16 16"><path fill-rule="evenodd" d="M8 2.5c-1.104 0-2.503.496-3.669 1.045-.202.095-.354.167-.484.233-.129.064-.208.11-.26.143-.07.045-.07.051-.077.14v.002c-.014.167-.005.4.02.895.126 2.586.6 4.873 1.96 6.69.31.414.8.919 1.337 1.308.577.417.989.544 1.173.544s.596-.127 1.173-.544a6.6 6.6 0 0 0 1.337-1.307c1.36-1.818 1.835-4.105 1.96-6.69.025-.496.034-.729.02-.896V4.06c-.007-.09-.008-.095-.078-.14a3 3 0 0 0-.259-.143c-.13-.066-.282-.138-.484-.233C10.503 2.996 9.104 2.5 8 2.5M8 1c-1.454 0-3.106.622-4.31 1.188-.788.371-1.182.557-1.456 1.012s-.252.914-.207 1.831c.132 2.693.63 5.341 2.259 7.516C5.076 13.603 6.678 15 8 15s2.924-1.397 3.714-2.453c1.629-2.175 2.127-4.823 2.259-7.516.045-.917.067-1.376-.207-1.83-.274-.456-.668-.642-1.456-1.013C11.106 1.622 9.454 1 8 1M6.056 6.517l.017.017-.022-.015A.1.1 0 0 0 6 6.5a.1.1 0 0 0-.051.019l-.022.015a.75.75 0 0 1-1.071-1.05v-.001h.002l.001-.003.004-.004.009-.008a1 1 0 0 1 .088-.081c.053-.045.127-.1.22-.156C5.361 5.122 5.643 5 6 5s.638.122.82.231a1.7 1.7 0 0 1 .308.237l.01.008.003.004.002.002v.001h.001a.75.75 0 0 1-1.07 1.05v.002l-.002-.002-.006-.006-.004-.005-.003-.003-.002-.001zm4.017.017-.016-.016.002.001.003.003.004.005zl.003.003zm-.021-.015.021.015a.75.75 0 0 0 1.071-1.05v-.001h-.002l-.001-.003-.004-.004-.009-.008a1 1 0 0 0-.088-.081 2 2 0 0 0-.22-.156A1.6 1.6 0 0 0 10 5c-.356 0-.638.122-.82.231a1.7 1.7 0 0 0-.308.237l-.01.008-.003.004-.002.002v.001h-.001a.75.75 0 0 0 1.07 1.05l.023-.014A.1.1 0 0 1 10 6.5a.1.1 0 0 1 .052.019M6.444 8.5h3.112c.494 0 .862.444.695.91-.317.882-.982 2.09-2.251 2.09-1.27 0-1.934-1.208-2.25-2.09-.168-.466.2-.91.694-.91"/></svg>