<svg xmlns="http://www.w3.org/2000/svg" viewBox="0 0 32 32"><path d="M17 24.01a1.26 1.26 0 0 0-.612-1.08l-2.93-1.757c-2.795-1.677-4.644-2.793-5.828-3.766l-.187-.157H27.75a1.25 1.25 0 1 0 0-2.5H7.442q.088-.077.188-.158c1.184-.973 3.033-2.09 5.828-3.766l2.93-1.758A1.26 1.26 0 0 0 17 7.988a1.24 1.24 0 0 0-1.223-1.242 1.2 1.2 0 0 0-.661.17l-2.944 1.766-.01.006C6.722 11.952 4 13.585 4 15.999c0 2.415 2.722 4.048 8.162 7.312l.01.006 2.944 1.766c.213.128.445.167.665.163a1.23 1.23 0 0 0 1.22-1.236"/></svg>