<svg xmlns="http://www.w3.org/2000/svg" viewBox="0 0 24 24"><path d="M13.007 12.764c.09.565.893.993 1.413.75.05-.024-.016.024-.035.038l.01-.007c.735-.496 1.623-1.195 2.75-2.083 1.739-1.37 2.608-2.055 2.798-2.933.076-.349.076-.71 0-1.06-.19-.877-1.06-1.562-2.798-2.932-.69-.544-2.24-1.824-2.725-2.052-.52-.242-1.324.185-1.413.75-.055.35.079.706.357.932.824.671 1.706 1.282 2.541 1.94.457.36.822.65 1.119.893-1.702 0-3.409-.045-5.107.081-2.618.195-3.927.292-5.24 1.605-1.315 1.313-1.412 2.62-1.607 5.237-.13 1.736-.066 3.47.082 5.204a.96.96 0 0 0 .967.873c.604 0 1.073-.535 1.021-1.136-.138-1.596-.193-3.193-.074-4.793.205-2.75.319-3.265 1.025-3.97.707-.707 1.222-.82 3.974-1.025C13.714 8.953 15.371 9 17.023 9c-.296.243-.661.532-1.117.891-.836.659-1.718 1.27-2.543 1.941a1 1 0 0 0-.356.931"/></svg>