<svg xmlns="http://www.w3.org/2000/svg" viewBox="0 0 24 24"><path d="M15.722 9.673c2.759.088 4.634.371 5.604.558.902.173 1.676.785 1.676 1.767 0 1.019-.817 1.655-1.752 1.835-.995.191-2.856.47-5.563.556l-3.615 6.573a2 2 0 0 1-1.753 1.036h-.816a1 1 0 0 1-.944-1.33l2.206-6.303a97 97 0 0 1-2.737-.124l-1.87.955c-1.35.69-2.025 1.035-2.428.715-.403-.321-.22-1.057.148-2.528l.347-1.385-.347-1.386c-.367-1.471-.551-2.207-.148-2.527s1.078.024 2.429.715l1.937.99c.776-.038 1.68-.075 2.689-.101l-2.226-6.36a1 1 0 0 1 .944-1.331h.816a2 2 0 0 1 1.753 1.036z"/></svg>