<svg xmlns="http://www.w3.org/2000/svg" viewBox="0 0 16 16"><path fill-rule="evenodd" d="M15.292 9.08a2.9 2.9 0 0 0 .21-1.082 2.8 2.8 0 0 0-.21-1.082c-.19-.462-.632-.74-1.116-.864a17.5 17.5 0 0 0-2.738-.448L9.503 2.087A2.1 2.1 0 0 0 7.663.999L5.703.998a.7.7 0 0 0-.661.931L6.32 5.581q-.452.022-.845.045L3.51 4.638l-.094-.047a1 1 0 0 0-1.412.87c-.006.863.143 1.703.352 2.538-.21.835-.357 1.673-.352 2.536a1 1 0 0 0 1.412.87c.019-.008.044-.02.094-.046l1.965-.989q.393.024.845.045l-1.278 3.652a.7.7 0 0 0 .66.931h1.962a2.1 2.1 0 0 0 1.84-1.088l1.934-3.517c1.232-.11 2.156-.3 2.738-.449.484-.123.925-.402 1.116-.864M3.902 8c-.138.548-.273 1.095-.343 1.656l1.603-.806c1.08.065 2.16.11 3.24.16L6.83 13.5l.832-.001a.6.6 0 0 0 .526-.311l2.32-4.217c1.107-.1 2.215-.204 3.296-.48a.6.6 0 0 0 .123-.044c.041-.116.074-.266.074-.447a1.4 1.4 0 0 0-.074-.449.6.6 0 0 0-.123-.044c-1.081-.276-2.189-.38-3.297-.48L8.19 2.81a.6.6 0 0 0-.526-.311H6.83l1.571 4.488c-1.08.05-2.16.096-3.24.16L3.56 6.342c.07.562.206 1.11.343 1.658"/></svg>