<svg xmlns="http://www.w3.org/2000/svg" viewBox="0 0 24 24"><path fill-rule="evenodd" d="M3.002 15.474a1.498 1.498 0 0 0 2.216 1.315l2.838-1.559c.398.023.919.045 1.382.065l-1.881 5.373a1 1 0 0 0 .944 1.33h2.227a3 3 0 0 0 2.629-1.554l2.81-5.108c2.34-.13 3.997-.45 4.955-.689 1.277-.317 1.88-1.388 1.88-2.648 0-1.344-.683-2.454-2.05-2.763-.982-.222-2.59-.5-4.809-.617l-2.786-5.067a3 3 0 0 0-2.629-1.554H8.501a1 1 0 0 0-.944 1.33l1.871 5.346c-.424.02-.912.042-1.281.065l-2.948-1.57a1.5 1.5 0 0 0-2.197 1.318c0 1.198.21 2.355.5 3.511-.286 1.145-.5 2.289-.5 3.476m2.034-6.126c.045.536.137 1.084.267 1.607l.26 1.043-.263 1.054a10 10 0 0 0-.26 1.555l2.472-1.41c.641.036 1.282.072 1.923.1l2.78.116-2.305 6.585h.818a1 1 0 0 0 .876-.518l3.344-6.08 1.107-.061c1.957-.109 3.383-.357 4.267-.558.44-.1.68-.292.68-.782 0-.531-.183-.747-.68-.854-.893-.191-2.324-.426-4.283-.529l-1.112-.058-3.323-6.042a1 1 0 0 0-.876-.518H9.91l2.292 6.546-2.768.128q-.865.044-1.73.098z"/></svg>