<svg xmlns="http://www.w3.org/2000/svg" viewBox="0 0 24 24"><path fill-rule="evenodd" d="M7.946 19.832c1.152.1 2.503.168 4.052.168s2.9-.068 4.051-.168c1.278-.11 2.153-.187 2.948-.553 1.299-.599 2.368-1.882 2.673-3.276.12-.546.19-1.163.235-1.935.091-1.568.09-2.767.095-4.152-.003-.417 0-.821 0-1.238 0-.966-.305-2.179-1.506-2.179-.8 0-1.399.426-1.81.85-.39.399-.681.864-.972 1.33-.222.354-.444.71-.71 1.036-.22-.482-.415-.974-.61-1.467-.152-.383-.303-.766-.467-1.145-.384-.89-.854-1.857-1.427-2.613-.55-.727-1.372-1.49-2.497-1.49-1.126 0-1.948.763-2.498 1.49-.573.756-1.043 1.724-1.427 2.613-.163.379-.315.762-.467 1.145-.195.493-.39.985-.61 1.467a10 10 0 0 1-.71-1.037c-.29-.465-.581-.93-.971-1.33-.412-.423-1.01-.849-1.811-.849C2.306 6.5 2 7.7 2 8.665c0 .432.003.866 0 1.3.007 1.369.008 2.535.092 4.105.04.771.115 1.387.234 1.933.305 1.394 1.375 2.677 2.673 3.276.795.366 1.67.442 2.947.553M12 16.151a1.65 1.65 0 1 0-.001-3.3 1.65 1.65 0 0 0 0 3.3M7.505 15.9a1.4 1.4 0 1 0 0-2.8 1.4 1.4 0 0 0 0 2.8M17.9 14.5a1.4 1.4 0 1 1-2.799 0 1.4 1.4 0 0 1 2.8 0"/></svg>