<svg xmlns="http://www.w3.org/2000/svg" viewBox="0 0 24 24"><path d="M13.5 14.502a1.5 1.5 0 1 1-3 0 1.5 1.5 0 0 1 3 0m-6 1.25a1.25 1.25 0 1 0 0-2.5 1.25 1.25 0 0 0 0 2.5m9-.002a1.25 1.25 0 1 0 0-2.5 1.25 1.25 0 0 0 0 2.5"/><path fill-rule="evenodd" d="M2.085 14.07c.042.771.116 1.387.235 1.932.305 1.394 1.375 2.678 2.675 3.276.795.367 1.67.443 2.948.554 1.153.1 2.505.167 4.055.167s2.9-.067 4.053-.167c1.279-.111 2.154-.187 2.95-.554 1.3-.598 2.37-1.882 2.674-3.276.12-.545.201-1.161.235-1.934.09-2.068.088-3.604.09-5.403C22 7.7 21.7 6.5 20.499 6.5c-.802 0-1.4.426-1.812.849-.688.705-1.068 1.612-1.683 2.366-.39-.856-.704-1.747-1.077-2.611-.384-.89-.854-1.857-1.428-2.613C13.95 3.764 13.126 3 12 3s-1.948.763-2.5 1.49c-.573.756-1.043 1.723-1.427 2.613-.373.864-.686 1.755-1.077 2.611-.616-.754-.995-1.661-1.683-2.366-.412-.423-1.01-.849-1.812-.849C2.3 6.5 2 7.699 2 8.665c.002 1.798 0 3.835.085 5.405M7.265 12c-.796 0-1.358-.492-1.705-.886-.604-.687-.97-1.544-1.56-2.238v2.36c0 .891.004 1.778.078 2.668.087 1.037.137 1.522.26 1.915.237.761.996 1.508 1.756 1.742.42.13.943.185 2.022.278 1.096.095 2.39.16 3.882.16 1.49 0 2.785-.065 3.88-.16 1.08-.093 1.603-.148 2.024-.278.76-.234 1.519-.981 1.756-1.742.122-.394.173-.88.26-1.917.073-.89.082-1.776.082-2.667v-2.36c-.59.695-.956 1.552-1.56 2.239-.347.394-.909.886-1.705.886-.923 0-1.35-.985-1.658-1.697-.344-.796-.642-1.61-.986-2.406-.372-.86-.764-1.643-1.186-2.198C12.462 5.113 12.158 5 12 5s-.462.112-.905.698c-.421.555-.814 1.338-1.186 2.198-.344.796-.642 1.61-.986 2.406C8.616 11.015 8.188 12 7.265 12"/></svg>