<svg xmlns="http://www.w3.org/2000/svg" viewBox="0 0 16 16"><path fill-rule="evenodd" d="M1 7.434V8c0 .465.024.908.064 1.322.024.25.045.473.071.678.2 1.556 1.325 2.594 2.865 2.785.235.03.493.052.783.079A36 36 0 0 0 8 13a36 36 0 0 0 4-.215c1.54-.191 2.665-1.23 2.865-2.785q.038-.306.072-.68C14.976 8.907 15 8.464 15 8V6c0-.122 0-.44-.073-.694a1.2 1.2 0 0 0-.3-.516 1.02 1.02 0 0 0-.725-.29c-.526 0-.94.231-1.245.49-.268.226-.477.498-.686.77-.15.195-.299.39-.47.568-.12-.255-.243-.539-.366-.823a35 35 0 0 0-.366-.822c-.268-.575-.6-1.208-1.007-1.705C9.366 2.494 8.783 2 8 2c-.784 0-1.366.494-1.763.978-.407.497-.738 1.13-1.006 1.705-.12.255-.243.539-.366.822a33 33 0 0 1-.366.823 7 7 0 0 1-.47-.568c-.21-.272-.418-.544-.686-.77-.306-.259-.719-.49-1.245-.49-.274 0-.53.1-.725.29a1.2 1.2 0 0 0-.3.516C1 5.561 1 5.878 1 6zM8 10.6a1.1 1.1 0 1 0 0-2.2 1.1 1.1 0 0 0 0 2.2M6 9.5a1 1 0 1 1-2 0 1 1 0 0 1 2 0m5 1a1 1 0 1 1 0-2 1 1 0 0 1 0 2"/></svg>