<svg width="24" height="24" viewBox="0 0 24 24" fill="none" xmlns="http://www.w3.org/2000/svg">
<path d="M0.108071 9.23043C0.367664 5.74245 0.49746 3.99846 2.24796 2.24796C3.99846 0.49746 5.74245 0.367664 9.23043 0.108071C10.1346 0.0407778 11.0673 0 12 0C12.9327 0 13.8654 0.0407778 14.7696 0.108071C18.2576 0.367664 20.0015 0.49746 21.752 2.24796C23.5025 3.99846 23.6323 5.74245 23.8919 9.23043C23.9592 10.1346 24 11.0673 24 12C24 12.9327 23.9592 13.8654 23.8919 14.7696C23.6323 18.2576 23.5025 20.0015 21.752 21.752C20.0015 23.5025 18.2576 23.6323 14.7696 23.8919C13.8654 23.9592 12.9327 24 12 24C11.0673 24 10.1346 23.9592 9.23043 23.8919C5.74245 23.6323 3.99846 23.5025 2.24796 21.752C0.49746 20.0015 0.367664 18.2576 0.108071 14.7696C0.0407778 13.8654 0 12.9327 0 12C0 11.0673 0.0407778 10.1346 0.108071 9.23043Z" fill="#FF0032"/>
<path fill-rule="evenodd" clip-rule="evenodd" d="M8.00098 10.7461C7.31062 10.7461 6.75098 11.3057 6.75098 11.9961C6.75098 12.6865 7.31062 13.2461 8.00098 13.2461H16.001C16.6913 13.2461 17.251 12.6865 17.251 11.9961C17.251 11.3057 16.6913 10.7461 16.001 10.7461H8.00098Z" fill="white"/>
</svg>
