<svg width="24" height="24" viewBox="0 0 24 24" fill="none" xmlns="http://www.w3.org/2000/svg">
<path d="M0.108071 9.23043C0.367664 5.74245 0.49746 3.99846 2.24796 2.24796C3.99846 0.49746 5.74245 0.367664 9.23043 0.108071C10.1346 0.0407778 11.0673 0 12 0C12.9327 0 13.8654 0.0407778 14.7696 0.108071C18.2576 0.367664 20.0015 0.49746 21.752 2.24796C23.5025 3.99846 23.6323 5.74245 23.8919 9.23043C23.9592 10.1346 24 11.0673 24 12C24 12.9327 23.9592 13.8654 23.8919 14.7696C23.6323 18.2576 23.5025 20.0015 21.752 21.752C20.0015 23.5025 18.2576 23.6323 14.7696 23.8919C13.8654 23.9592 12.9327 24 12 24C11.0673 24 10.1346 23.9592 9.23043 23.8919C5.74245 23.6323 3.99846 23.5025 2.24796 21.752C0.49746 20.0015 0.367664 18.2576 0.108071 14.7696C0.0407778 13.8654 0 12.9327 0 12C0 11.0673 0.0407778 10.1346 0.108071 9.23043Z" fill="#FF0032"/>
<path d="M17.3849 7.61221C17.873 8.10037 17.873 8.89182 17.3849 9.37998L11.3849 15.38C10.8967 15.8681 10.1052 15.8681 9.61709 15.38L7.11709 12.88C6.62894 12.3918 6.62894 11.6004 7.11709 11.1122C7.60525 10.6241 8.3967 10.6241 8.88486 11.1122L10.501 12.7283L15.6171 7.61221C16.1052 7.12405 16.8967 7.12405 17.3849 7.61221Z" fill="white"/>
</svg>
