<svg width="24" height="24" viewBox="0 0 24 24" fill="none" xmlns="http://www.w3.org/2000/svg">
<path d="M12 1C12.904 1 13.8116 1.0397 14.6953 1.10547C18.2505 1.37006 19.5978 1.50792 21.0449 2.95508C22.4921 4.40224 22.6299 5.74952 22.8945 9.30469C22.9603 10.1884 23 11.096 23 12C23 12.904 22.9603 13.8116 22.8945 14.6953C22.6299 18.2505 22.4921 19.5978 21.0449 21.0449C19.5978 22.4921 18.2505 22.6299 14.6953 22.8945C13.8116 22.9603 12.904 23 12 23C11.096 23 10.1884 22.9603 9.30469 22.8945C5.74952 22.6299 4.40224 22.4921 2.95508 21.0449C1.50792 19.5978 1.37006 18.2505 1.10547 14.6953C1.0397 13.8116 1 12.904 1 12C1 11.096 1.0397 10.1884 1.10547 9.30469C1.37006 5.74952 1.50792 4.40224 2.95508 2.95508C4.40224 1.50792 5.74952 1.37006 9.30469 1.10547C10.1884 1.0397 11.096 1 12 1Z" fill="white" stroke="#8D969F" stroke-width="2"/>
</svg>
