<svg width="18" height="18" viewBox="0 0 18 18" fill="none" xmlns="http://www.w3.org/2000/svg">
<path d="M0.0810531 6.92282C0.275748 4.30684 0.373095 2.99884 1.68597 1.68597C2.99884 0.373095 4.30684 0.275748 6.92282 0.0810532C7.60095 0.0305834 8.30048 0 9 0C9.69952 0 10.399 0.0305833 11.0772 0.0810531C13.6932 0.275748 15.0012 0.373095 16.314 1.68597C17.6269 2.99884 17.7243 4.30684 17.9189 6.92282C17.9694 7.60095 18 8.30048 18 9C18 9.69952 17.9694 10.399 17.9189 11.0772C17.7243 13.6932 17.6269 15.0012 16.314 16.314C15.0012 17.6269 13.6932 17.7243 11.0772 17.9189C10.399 17.9694 9.69952 18 9 18C8.30048 18 7.60095 17.9694 6.92282 17.9189C4.30684 17.7243 2.99884 17.6269 1.68597 16.314C0.373095 15.0012 0.275748 13.6932 0.0810532 11.0772C0.0305834 10.399 0 9.69952 0 9C0 8.30048 0.0305833 7.60095 0.0810531 6.92282Z" fill="#FF0032"/>
<path fill-rule="evenodd" clip-rule="evenodd" d="M6 8C5.44772 8 5 8.44771 5 9C5 9.55228 5.44772 10 6 10H12C12.5523 10 13 9.55229 13 9C13 8.44772 12.5523 8 12 8L6 8Z" fill="white"/>
</svg>
