<svg width="18" height="18" viewBox="0 0 18 18" fill="none" xmlns="http://www.w3.org/2000/svg">
<path d="M9 0.75C9.67803 0.75 10.3587 0.779776 11.0215 0.829102C13.6879 1.02755 14.6988 1.13045 15.7842 2.21582C16.8696 3.30119 16.9725 4.31214 17.1709 6.97852C17.2202 7.64127 17.25 8.32197 17.25 9C17.25 9.67803 17.2202 10.3587 17.1709 11.0215C16.9725 13.6879 16.8696 14.6988 15.7842 15.7842C14.6988 16.8696 13.6879 16.9725 11.0215 17.1709C10.3587 17.2202 9.67803 17.25 9 17.25C8.32197 17.25 7.64127 17.2202 6.97852 17.1709C4.31214 16.9725 3.30119 16.8696 2.21582 15.7842C1.13045 14.6988 1.02755 13.6879 0.829102 11.0215C0.779776 10.3587 0.75 9.67803 0.75 9C0.75 8.32197 0.779776 7.64127 0.829102 6.97852C1.02755 4.31214 1.13045 3.30119 2.21582 2.21582C3.30119 1.13045 4.31214 1.02755 6.97852 0.829102C7.64127 0.779776 8.32197 0.75 9 0.75Z" fill="white" stroke="#8D969F" stroke-width="1.5"/>
</svg>
