<svg width="12" height="12" viewBox="0 0 12 12" fill="none" xmlns="http://www.w3.org/2000/svg">
<path d="M0.0540354 4.61522C0.183832 2.87122 0.24873 1.99923 1.12398 1.12398C1.99923 0.24873 2.87122 0.183832 4.61522 0.0540354C5.0673 0.0203889 5.53365 0 6 0C6.46635 0 6.9327 0.0203889 7.38479 0.0540354C9.12878 0.183832 10.0008 0.24873 10.876 1.12398C11.7513 1.99923 11.8162 2.87122 11.946 4.61522C11.9796 5.0673 12 5.53365 12 6C12 6.46635 11.9796 6.9327 11.946 7.38479C11.8162 9.12878 11.7513 10.0008 10.876 10.876C10.0008 11.7513 9.12878 11.8162 7.38478 11.946C6.9327 11.9796 6.46635 12 6 12C5.53365 12 5.0673 11.9796 4.61522 11.946C2.87122 11.8162 1.99923 11.7513 1.12398 10.876C0.24873 10.0008 0.183832 9.12878 0.0540354 7.38478C0.0203889 6.9327 0 6.46635 0 6C0 5.53365 0.0203889 5.0673 0.0540354 4.61522Z" fill="#FF0032"/>
<path fill-rule="evenodd" clip-rule="evenodd" d="M3.75 5.25C3.33579 5.25 3 5.58579 3 6C3 6.41421 3.33579 6.75 3.75 6.75H8.25029C8.66451 6.75 9.00029 6.41421 9.00029 6C9.00029 5.58579 8.66451 5.25 8.25029 5.25H3.75Z" fill="white"/>
</svg>
