<svg width="12" height="12" viewBox="0 0 12 12" fill="none" xmlns="http://www.w3.org/2000/svg">
<path d="M6 0.75C6.44485 0.75 6.89239 0.769256 7.3291 0.801758C9.12348 0.935305 9.69796 1.00655 10.3457 1.6543C10.9934 2.30204 11.0647 2.87652 11.1982 4.6709C11.2307 5.10761 11.25 5.55515 11.25 6C11.25 6.44485 11.2307 6.89239 11.1982 7.3291C11.0647 9.12348 10.9934 9.69796 10.3457 10.3457C9.69796 10.9934 9.12348 11.0647 7.3291 11.1982C6.89239 11.2307 6.44485 11.25 6 11.25C5.55515 11.25 5.10761 11.2307 4.6709 11.1982C2.87652 11.0647 2.30204 10.9934 1.6543 10.3457C1.00655 9.69796 0.935305 9.12348 0.801758 7.3291C0.769256 6.89239 0.75 6.44485 0.75 6C0.75 5.55515 0.769256 5.10761 0.801758 4.6709C0.935305 2.87652 1.00655 2.30204 1.6543 1.6543C2.30204 1.00655 2.87652 0.935305 4.6709 0.801758C5.10761 0.769256 5.55515 0.75 6 0.75Z" fill="white" stroke="#8D969F" stroke-width="1.5"/>
</svg>
