<svg xmlns="http://www.w3.org/2000/svg" viewBox="0 0 32 32"><path d="M12.456 7.865c.101.212.002.577-.196 1.308l-.429 1.577h1.593c2.435 0 4.39 0 5.926.206 1.591.214 2.918.67 3.97 1.721s1.508 2.378 1.722 3.968c.206 1.535.206 3.489.206 5.924v2.182a1.25 1.25 0 0 1-2.5 0v-2.09c0-2.549-.003-4.334-.184-5.683-.177-1.313-.502-2.024-1.012-2.534s-1.221-.835-2.535-1.011c-1.35-.182-3.136-.184-5.686-.184h-1.5l.429 1.578c.198.73.297 1.096.196 1.308a.65.65 0 0 1-.463.358c-.235.046-.573-.135-1.249-.497l-5.773-3.092c-.55-.294-.825-.442-.916-.637a.63.63 0 0 1 0-.534c.091-.195.366-.343.916-.637l5.773-3.092c.676-.362 1.014-.543 1.249-.497.203.04.375.173.463.358"/></svg>