<svg xmlns="http://www.w3.org/2000/svg" viewBox="0 0 44 44"><path d="M16.946 22.014c.131-.283.003-.77-.254-1.745L16.094 18h2.237c3.5 0 5.973.003 7.847.255 1.83.246 2.863.705 3.611 1.454.75.748 1.208 1.78 1.454 3.61.252 1.875.255 4.348.255 7.848V34.5a1.5 1.5 0 0 0 3 0v-3.445c0-3.362 0-6.038-.282-8.135-.29-2.163-.906-3.934-2.305-5.333s-3.17-2.014-5.333-2.305C24.48 15 21.805 15 18.443 15h-2.35l.599-2.27c.257-.973.385-1.46.254-1.744a.85.85 0 0 0-.6-.476c-.303-.062-.74.179-1.615.662l-7.474 4.123c-.711.392-1.067.589-1.184.848a.87.87 0 0 0 0 .714c.117.26.473.456 1.184.848l7.474 4.123c.874.483 1.312.724 1.615.662a.85.85 0 0 0 .6-.476"/></svg>