<svg xmlns="http://www.w3.org/2000/svg" viewBox="0 0 44 44"><g fill-rule="evenodd" clip-rule="evenodd"><path d="M22 9c-1.051 0-2.112.042-3.155.114-4.975.34-6.17.535-7.683 2.048s-1.708 2.708-2.049 7.683A46 46 0 0 0 9 22c0 1.052.042 2.112.113 3.156.341 4.974.536 6.17 2.049 7.683s2.708 1.707 7.682 2.048C19.889 34.958 20.95 35 22 35s2.112-.042 3.156-.113c4.974-.341 6.17-.535 7.683-2.048s1.707-2.709 2.048-7.683A46 46 0 0 0 35 22c0-1.051-.042-2.112-.113-3.155-.341-4.974-.536-6.17-2.048-7.683s-2.71-1.707-7.683-2.048A46 46 0 0 0 22 9m-12.96.04c-2.428 2.429-2.592 4.82-2.92 9.6A49 49 0 0 0 6 22c0 1.13.045 2.26.12 3.36.328 4.781.492 7.172 2.92 9.6s4.819 2.592 9.6 2.92c1.1.075 2.23.12 3.36.12s2.26-.045 3.36-.12c4.781-.328 7.172-.492 9.6-2.92s2.592-4.819 2.92-9.6c.075-1.1.12-2.23.12-3.36s-.045-2.26-.12-3.36c-.328-4.78-.492-7.171-2.92-9.6s-4.819-2.592-9.6-2.92A49 49 0 0 0 22 6c-1.13 0-2.26.045-3.36.12-4.781.328-7.171.492-9.6 2.92"/><path d="m21.762 28.136.238-.173.238.173c2.85 2.069 4.274 3.103 5.224 2.817a2 2 0 0 0 1.02-.71c.599-.791.122-2.486-.83-5.874l.1-.081c2.942-2.392 4.414-3.588 4.233-4.727a2 2 0 0 0-.199-.605c-.53-1.024-2.424-1.115-6.213-1.297-1.435-3.683-2.152-5.525-3.37-5.649a2 2 0 0 0-.406 0c-1.218.124-1.935 1.966-3.37 5.649-3.789.182-5.683.273-6.213 1.297q-.148.287-.2.605c-.18 1.139 1.292 2.335 4.235 4.727l.099.08c-.952 3.39-1.429 5.084-.83 5.875.256.34.613.588 1.02.71.95.286 2.375-.748 5.224-2.817"/></g></svg>