<svg xmlns="http://www.w3.org/2000/svg" viewBox="0 0 16 16"><path fill-rule="evenodd" d="M2.054 6.615c.13-1.744.195-2.616 1.07-3.491s1.747-.94 3.491-1.07C7.067 2.02 7.534 2 8 2s.933.02 1.385.054c1.744.13 2.616.195 3.491 1.07s.94 1.747 1.07 3.491C13.98 7.067 14 7.534 14 8s-.02.933-.054 1.385c-.13 1.744-.195 2.616-1.07 3.491s-1.747.94-3.491 1.07C8.933 13.98 8.466 14 8 14s-.933-.02-1.385-.054c-1.744-.13-2.616-.195-3.491-1.07s-.94-1.747-1.07-3.491A19 19 0 0 1 2 8c0-.466.02-.933.054-1.385M8 10.024l-.081.059c-.972.706-1.458 1.059-1.783.961a.7.7 0 0 1-.348-.242c-.204-.27-.041-.848.284-2.004l-.034-.028c-1.004-.816-1.506-1.224-1.445-1.612a.7.7 0 0 1 .068-.207c.18-.35.827-.38 2.12-.443.49-1.256.734-1.884 1.15-1.927a.7.7 0 0 1 .138 0c.416.043.66.671 1.15 1.927 1.292.063 1.939.094 2.12.443a.7.7 0 0 1 .067.207c.062.388-.44.796-1.444 1.612l-.034.028c.325 1.156.487 1.734.283 2.004a.7.7 0 0 1-.348.242c-.324.098-.81-.255-1.782-.961z"/></svg>