<svg xmlns="http://www.w3.org/2000/svg" viewBox="0 0 24 24"><path fill-rule="evenodd" d="M4.686 4.686c-1.313 1.313-1.41 2.62-1.605 5.237C3.031 10.6 3 11.3 3 12s.03 1.399.081 2.077c.195 2.616.292 3.924 1.605 5.237s2.62 1.41 5.237 1.605C10.6 20.969 11.3 21 12 21s1.399-.03 2.077-.081c2.616-.195 3.924-.292 5.237-1.605s1.41-2.62 1.605-5.237C20.969 13.4 21 12.7 21 12s-.03-1.399-.081-2.077c-.195-2.616-.292-3.924-1.605-5.237s-2.62-1.41-5.237-1.605A28 28 0 0 0 12 3c-.7 0-1.399.03-2.077.081-2.616.195-3.924.292-5.237 1.605M12 5c-.642 0-1.292.028-1.929.076-2.75.204-3.265.318-3.97 1.024-.707.706-.82 1.22-1.025 3.971A26 26 0 0 0 5 12c0 .642.028 1.292.076 1.929.204 2.75.318 3.265 1.024 3.97.706.707 1.22.82 3.971 1.025.637.048 1.287.076 1.929.076s1.292-.028 1.929-.076c2.75-.204 3.265-.318 3.97-1.024.707-.706.82-1.22 1.025-3.971.048-.637.076-1.287.076-1.929s-.028-1.292-.076-1.929c-.204-2.75-.318-3.265-1.024-3.97-.706-.707-1.22-.82-3.971-1.025A26 26 0 0 0 12 5"/><path d="M9.124 16.475c.5.15 1.25-.382 2.751-1.447l.125-.089.125.089c1.5 1.065 2.251 1.597 2.751 1.447.208-.063.39-.187.523-.356.318-.406.067-1.278-.434-3.023l.052-.041c1.55-1.231 2.324-1.846 2.224-2.432a1 1 0 0 0-.1-.296c-.275-.53-1.272-.577-3.267-.67-.755-1.896-1.133-2.843-1.775-2.902a1 1 0 0 0-.198 0c-.642.059-1.02 1.007-1.775 2.902-1.995.093-2.992.14-3.268.67a1 1 0 0 0-.1.296c-.099.586.676 1.201 2.225 2.432l.052.041c-.501 1.745-.752 2.617-.434 3.023.132.169.315.293.523.356"/></svg>