<svg xmlns="http://www.w3.org/2000/svg" viewBox="0 0 16 16"><path fill-rule="evenodd" d="M9.5 2.501a1.5 1.5 0 1 1-3.001.001 1.5 1.5 0 0 1 3.001 0m-4 5.504c0 .713.05 1.287.11 1.719.056.413.14.832.14 1.25v3.275a.75.75 0 1 0 1.5 0v-3.277a8 8 0 0 0 1.5 0v3.278a.75.75 0 1 0 1.5 0v-3.276c0-.418.084-.837.14-1.25.06-.432.11-1.006.11-1.719s-.05-1.287-.11-1.719l-.028-.2c-.034-.219.066-.46.266-.556.255-.123.495-.251.712-.374a15 15 0 0 0 1.583-1.033l.026-.02.007-.006.003-.001v-.001s-.003.002 0 0a.751.751 0 0 0-.919-1.186l-.004.003-.018.014-.077.058c-.07.05-.17.124-.3.213a14 14 0 0 1-1.039.652c-.871.493-1.85.904-2.602.904-.753 0-1.73-.411-2.602-.904a14 14 0 0 1-1.416-.923l-.018-.014-.004-.003a.75.75 0 1 0-.92 1.186l.004.002c.007.006-.004-.002-.004-.002h.002l.002.002.007.006.026.02.093.069a15 15 0 0 0 1.49.964q.327.186.712.374c.2.097.3.337.266.557l-.029.2A13 13 0 0 0 5.5 8.004"/></svg>