<svg xmlns="http://www.w3.org/2000/svg" viewBox="0 0 24 24"><path fill-rule="evenodd" d="M14 4a2 2 0 1 1-4 0 2 2 0 0 1 4 0m-5.5 7.5c0 .812.04 1.504.096 2.074.1 1.01.404 2.035.404 3.05V21a1 1 0 0 0 2 0v-5.048a10.7 10.7 0 0 0 2 0V21a1 1 0 1 0 2 0v-4.376c0-1.015.305-2.04.404-3.05.056-.57.096-1.262.096-2.074s-.04-1.504-.096-2.073a10 10 0 0 0-.079-.666c-.046-.27.078-.563.33-.673a22 22 0 0 0 2.884-1.565 23 23 0 0 0 .977-.662l.058-.042.016-.012.005-.003.002-.001v-.001a1 1 0 0 0-1.194-1.604L18.4 4.2l-.01.008-.046.033-.186.132a20 20 0 0 1-.698.466c-.667.427-1.605.977-2.61 1.418C13.828 6.705 12.824 7 12 7c-.863 0-1.919-.323-2.983-.802A20 20 0 0 1 6.37 4.729a20 20 0 0 1-.727-.497l-.037-.027-.008-.006h-.001a1 1 0 0 0-1.195 1.603l.002.001.004.003.013.01.048.035q.061.045.175.125c.15.105.366.254.633.428.69.45 1.745 1.089 2.918 1.617.333.15.503.54.455.902q-.029.224-.055.504c-.056.57-.096 1.261-.096 2.073"/></svg>