<svg xmlns="http://www.w3.org/2000/svg" viewBox="0 0 16 16"><path fill-rule="evenodd" d="M3.665 11.696C3.572 10.73 3.5 9.497 3.5 8.002s.072-2.728.165-3.694c.108-1.13.163-1.696.818-2.368s1.15-.732 2.14-.853a11 11 0 0 1 1.375-.085c.49 0 .952.033 1.376.085.99.12 1.485.181 2.14.853s.71 1.238.818 2.368c.092.966.165 2.199.165 3.694s-.073 2.728-.165 3.694c-.109 1.13-.163 1.695-.818 2.367s-1.15.733-2.139.854a11.4 11.4 0 0 1-2.753 0c-.99-.121-1.485-.181-2.14-.854-.654-.672-.709-1.237-.817-2.367M7.247 3.5a.75.75 0 0 0 0 1.5h1.5a.75.75 0 1 0 0-1.5z"/></svg>