<svg xmlns="http://www.w3.org/2000/svg" viewBox="0 0 16 16"><path fill-rule="evenodd" d="M11.437 10.882c-.922-.053-1.794-.396-2.451-.97l-1.112-.97-1.11.97c-.717.626-1.688.977-2.701.977h-2.3c-.421 0-.763-.299-.763-.667s.342-.666.764-.666h2.299c.608 0 1.19-.211 1.62-.586L6.794 8l-1.11-.97a2.47 2.47 0 0 0-1.621-.586h-2.3c-.421 0-.763-.298-.763-.666s.342-.667.764-.667h2.299c1.013 0 1.984.351 2.7.976l1.111.97 1.112-.97c.657-.573 1.529-.916 2.451-.969.007-.609.052-.933.318-1.067.319-.16.74.065 1.585.513l.371.196.017.01c.845.448 1.272.674 1.272 1.008s-.427.56-1.272 1.008l-.017.01-.37.196c-.845.448-1.267.672-1.586.512-.26-.13-.308-.442-.317-1.023v-.025a2.44 2.44 0 0 0-1.372.574L8.955 8l1.11.97c.372.323.856.525 1.373.574v-.025c.009-.58.057-.893.317-1.023.319-.16.741.064 1.586.512l.37.197.017.009c.845.448 1.272.675 1.272 1.008 0 .334-.427.56-1.272 1.009l-.017.009-.37.196c-.845.448-1.267.672-1.586.513-.266-.134-.31-.458-.318-1.067"/></svg>