<svg xmlns="http://www.w3.org/2000/svg" viewBox="0 0 16 16"><path d="M13.786 4.999c-.127-.773-.356-1.321-.91-1.875-.875-.875-1.747-.94-3.491-1.07A19 19 0 0 0 8 2c-.466 0-.933.02-1.385.054-1.744.13-2.616.195-3.491 1.07-.554.554-.783 1.102-.91 1.875zm-11.724 1.5-.008.116C2.02 7.067 2 7.534 2 8s.02.933.054 1.385c.13 1.744.195 2.616 1.07 3.491.3.301.602.506.937.651a2.25 2.25 0 0 1 .431-1.932l1-1.25a2.25 2.25 0 0 1 3.257-.272 2.25 2.25 0 0 1 2.5-.338 2.25 2.25 0 0 1 2.632.467q.033-.374.065-.817C13.98 8.933 14 8.466 14 8s-.02-.933-.054-1.385l-.008-.116z"/><path d="M6.663 14.719a.75.75 0 1 0 1.172-.937L7.209 13l.626-.781a.75.75 0 1 0-1.172-.937l-1 1.25a.75.75 0 0 0 0 .937zm5.117.117a.75.75 0 0 0 1.055-.117l1-1.25a.75.75 0 0 0 0-.937l-1-1.25a.75.75 0 0 0-1.172.937l.626.781-.626.781a.75.75 0 0 0 .117 1.055m-.835-2.807a.75.75 0 1 0-1.392-.557l-1 2.5a.75.75 0 0 0 1.392.557z"/></svg>