<svg xmlns="http://www.w3.org/2000/svg" viewBox="0 0 16 16"><path fill-rule="evenodd" d="M2.054 6.615c.13-1.744.195-2.616 1.07-3.491s1.747-.94 3.491-1.07C7.067 2.02 7.534 2 8 2s.933.02 1.385.054c1.744.13 2.616.195 3.491 1.07s.94 1.747 1.07 3.491C13.98 7.067 14 7.534 14 8c0 .42-.017.84-.044 1.25 0 .414-.339.75-.753.75s-.779-.347-.745-.835c.027-.386.042-.778.042-1.165 0-.423-.018-.852-.05-1.273l-.005-.075-.012-.153H3.567l-.012.153-.005.075c-.031.42-.05.85-.05 1.273s.019.852.05 1.273c.137 1.845.214 2.122.635 2.542.207.208.38.332.723.42a.75.75 0 0 1-.308 1.47 2.95 2.95 0 0 1-1.476-.829c-.875-.875-.94-1.747-1.07-3.491A19 19 0 0 1 2 8c0-.466.02-.933.054-1.385M6.727 3.55c.42-.031.85-.05 1.273-.05s.852.019 1.273.05c1.845.137 2.122.214 2.542.635.226.225.353.406.443.814H3.742c.09-.408.217-.589.443-.814.42-.42.697-.498 2.542-.635"/><path d="M11.528 11.054a.75.75 0 0 1 .417.975l-1 2.5a.75.75 0 0 1-1.392-.557l1-2.5a.75.75 0 0 1 .975-.418m-3.865 3.665a.75.75 0 1 0 1.172-.937L8.209 13l.626-.781a.75.75 0 1 0-1.172-.937l-1 1.25a.75.75 0 0 0 0 .937zm6.172 0a.75.75 0 1 1-1.172-.937L13.29 13l-.626-.781a.75.75 0 1 1 1.172-.937l1 1.25a.75.75 0 0 1 0 .937z"/></svg>