<svg xmlns="http://www.w3.org/2000/svg" viewBox="0 0 24 24"><path d="M9.474 9.89c.26.486.247 1.116-.16 1.489s-1.048.35-1.349-.114A5.97 5.97 0 0 1 7 8c0-1.204.355-2.325.965-3.265.301-.463.942-.487 1.349-.114.407.374.42 1.003.16 1.49A4 4 0 0 0 9 8c0 .683.171 1.326.474 1.889"/><path d="M7.103 2.594c.407.373.427 1.003.115 1.459A6.97 6.97 0 0 0 6 8c0 1.465.45 2.824 1.218 3.948.312.455.292 1.085-.115 1.458s-1.045.349-1.371-.097A8.96 8.96 0 0 1 4 8a8.96 8.96 0 0 1 1.732-5.309c.326-.445.963-.47 1.37-.097m7.424 7.296c-.26.486-.247 1.116.16 1.489s1.048.35 1.349-.114c.61-.94.965-2.06.965-3.265a5.97 5.97 0 0 0-.965-3.265c-.301-.463-.942-.487-1.349-.114-.407.374-.42 1.003-.16 1.49C14.83 6.673 15 7.317 15 8s-.171 1.326-.474 1.889"/><path d="M16.898 2.594c-.408.373-.428 1.003-.116 1.459A6.97 6.97 0 0 1 18 8c0 1.465-.45 2.824-1.218 3.948-.312.455-.292 1.085.116 1.458.407.373 1.044.349 1.37-.097A8.96 8.96 0 0 0 20 8a8.96 8.96 0 0 0-1.732-5.309c-.326-.445-.963-.47-1.37-.097m-3.918 9.189a1 1 0 0 0-1.954 0L8.753 22h6.5zM12 9.25a1.25 1.25 0 1 0 0-2.5 1.25 1.25 0 0 0 0 2.5"/></svg>