<svg xmlns="http://www.w3.org/2000/svg" viewBox="0 0 44 44"><path d="M17.622 12.107c.308-.677.257-1.497-.265-2.026-.652-.663-1.748-.604-2.186.217A9.96 9.96 0 0 0 13.999 15c0 1.577.364 3.068 1.014 4.394.42.857 1.547.935 2.216.255.508-.516.573-1.309.297-1.978A7 7 0 0 1 17 15c0-1.032.223-2.011.623-2.893m-4.504-4.423c.423-.647.391-1.513-.15-2.064-.625-.634-1.665-.6-2.169.134A15.93 15.93 0 0 0 8 14.8c0 3.357 1.034 6.472 2.8 9.046.504.733 1.544.768 2.168.134.542-.551.574-1.417.15-2.064A12.94 12.94 0 0 1 11 14.8c0-2.627.779-5.072 2.119-7.116m13.259 4.423c-.308-.677-.257-1.497.265-2.026.652-.663 1.748-.604 2.186.217A9.96 9.96 0 0 1 30.001 15a9.96 9.96 0 0 1-1.014 4.394c-.42.857-1.547.935-2.216.255-.508-.516-.573-1.309-.297-1.978A7 7 0 0 0 27 15a7 7 0 0 0-.623-2.893m4.504-4.423c-.423-.647-.391-1.513.15-2.064.625-.634 1.665-.6 2.169.134A15.93 15.93 0 0 1 36 14.8c0 3.357-1.034 6.472-2.8 9.046-.504.733-1.544.768-2.168.134-.542-.551-.574-1.417-.15-2.064A12.94 12.94 0 0 0 33 14.8a12.94 12.94 0 0 0-2.119-7.116M23.47 21.19a1.5 1.5 0 0 0-2.936 0L16.551 40h10.902zm-1.468-4.39a2 2 0 1 0 0-4 2 2 0 0 0 0 4"/></svg>