<svg xmlns="http://www.w3.org/2000/svg" viewBox="0 0 24 24"><path fill-rule="evenodd" d="M3.081 9.923c.195-2.616.292-3.924 1.605-5.237s2.62-1.41 5.237-1.605C10.6 3.031 11.3 3 12 3s1.399.03 2.077.081c2.616.195 3.924.292 5.237 1.605s1.41 2.62 1.605 5.237C20.969 10.6 21 11.3 21 12s-.03 1.399-.081 2.077c-.195 2.616-.292 3.924-1.605 5.237s-2.62 1.41-5.237 1.605C13.4 20.969 12.7 21 12 21s-1.399-.03-2.077-.081c-2.616-.195-3.924-.292-5.237-1.605s-1.41-2.62-1.605-5.237A28 28 0 0 1 3 12c0-.7.03-1.399.081-2.077M11 8a1 1 0 0 1 1-1h3a1 1 0 1 1 0 2h-3a1 1 0 0 1-1-1m1 3a1 1 0 1 0 0 2h4a1 1 0 1 0 0-2zm-1 5a1 1 0 0 1 1-1h2a1 1 0 1 1 0 2h-2a1 1 0 0 1-1-1M8 9.25a1.25 1.25 0 1 0 0-2.5 1.25 1.25 0 0 0 0 2.5M9.25 12a1.25 1.25 0 1 1-2.5 0 1.25 1.25 0 0 1 2.5 0M8 17.25a1.25 1.25 0 1 0 0-2.5 1.25 1.25 0 0 0 0 2.5"/></svg>