<svg xmlns="http://www.w3.org/2000/svg" viewBox="0 0 16 16"><path fill-rule="evenodd" d="M2.054 6.611c.13-1.742.195-2.613 1.07-3.488.874-.874 1.745-.939 3.487-1.069.454-.033.921-.054 1.39-.054.467 0 .935.02 1.388.054 1.743.13 2.614.195 3.488 1.07.874.874.94 1.745 1.07 3.487.033.454.054.921.054 1.39 0 .467-.021.935-.055 1.388-.13 1.743-.195 2.614-1.069 3.488s-1.745.94-3.488 1.07C8.936 13.98 8.468 14 8 14s-.935-.021-1.389-.055c-1.742-.13-2.613-.195-3.488-1.069-.874-.874-.939-1.745-1.069-3.488A19 19 0 0 1 2 8c0-.468.02-.935.054-1.389M7.5 5.25a.75.75 0 0 1 .75-.75h1.5a.75.75 0 1 1 0 1.5h-1.5a.75.75 0 0 1-.75-.75m.75 2a.75.75 0 0 0 0 1.5h2.5a.75.75 0 0 0 0-1.5zm-.75 3.5a.75.75 0 0 1 .75-.75h1a.75.75 0 0 1 0 1.5h-1a.75.75 0 0 1-.75-.75m-2-4.601a.9.9 0 1 0 0-1.8.9.9 0 0 0 0 1.8m.9 1.85a.9.9 0 1 1-1.8 0 .9.9 0 0 1 1.8 0m-.9 3.65a.9.9 0 1 0 0-1.8.9.9 0 0 0 0 1.8"/></svg>