<svg xmlns="http://www.w3.org/2000/svg" viewBox="0 0 17 17"><path d="M-.004 6.11c0-.44.357-.798.797-.798h15.404a.797.797 0 0 1 0 1.594H.793a.797.797 0 0 1-.797-.797m1.09 5.123a.6.6 0 0 1-.095-.247H0q.026.32.152.55.131.226.367.373.242.147.603.215t.855.068q.964 0 1.437-.277.472-.279.472-.918a.85.85 0 0 0-.126-.483.9.9 0 0 0-.325-.299 1.5 1.5 0 0 0-.456-.168 4 4 0 0 0-.53-.083 14 14 0 0 0-.524-.042 4 4 0 0 1-.462-.053 1 1 0 0 1-.325-.11.24.24 0 0 1-.12-.215q0-.236.214-.315.22-.083.693-.083.393 0 .629.083.236.08.278.336h.991q-.047-.613-.535-.876-.483-.262-1.363-.262-.44 0-.787.063-.346.063-.587.205a.96.96 0 0 0-.367.35 1 1 0 0 0-.126.52q0 .304.12.498a1 1 0 0 0 .325.315q.205.115.462.173.257.052.524.079.268.025.525.042.256.016.456.052a.9.9 0 0 1 .325.115.24.24 0 0 1 .126.22q0 .236-.23.326-.232.09-.714.089-.23 0-.404-.021a1 1 0 0 1-.293-.073.5.5 0 0 1-.194-.147M4.064 8.5v.791h1.463v2.827h.976V9.291H7.97V8.5z"/><path fill-rule="evenodd" d="M8.128 10.288q0-.525.147-.881a1.3 1.3 0 0 1 .435-.577q.288-.215.708-.31.42-.093.965-.094.546 0 .965.094.42.095.708.31.288.214.435.577.147.356.147.88 0 .54-.147.908a1.4 1.4 0 0 1-.435.587 1.8 1.8 0 0 1-.708.315q-.42.094-.965.094-.546 0-.965-.094a1.8 1.8 0 0 1-.708-.315 1.4 1.4 0 0 1-.435-.587q-.147-.367-.147-.907m3.519-.178q0-.52-.32-.724-.315-.205-.944-.205-.63 0-.95.205-.319.204-.32.724v.382q0 .273.08.456a.7.7 0 0 0 .24.289q.159.11.394.157.24.042.556.042.315 0 .55-.042.237-.047.394-.152a.67.67 0 0 0 .241-.288q.08-.184.079-.462zm5.031-1.285q-.314-.326-.986-.326h-2.465v3.619h.976v-1.133h1.49q.675 0 .99-.325t.315-.928q0-.582-.32-.907m-.776.55q.11.116.11.294v.142a.42.42 0 0 1-.11.304q-.105.115-.346.115h-1.353v-.975h1.353q.24 0 .346.12"/></svg>