<svg xmlns="http://www.w3.org/2000/svg" viewBox="0 0 24 24"><path d="M0 8.5a1 1 0 0 1 1-1h22a1 1 0 1 1 0 2H1a1 1 0 0 1-1-1m1.533 6.858a.8.8 0 0 1-.134-.348H0q.037.451.215.778.185.318.518.525.34.208.852.304a6.6 6.6 0 0 0 1.206.096q1.363 0 2.03-.392.666-.393.666-1.296 0-.415-.178-.681a1.2 1.2 0 0 0-.46-.422 2.1 2.1 0 0 0-.643-.237 6 6 0 0 0-.748-.119 21 21 0 0 0-.74-.059 6 6 0 0 1-.652-.074 1.4 1.4 0 0 1-.46-.155.33.33 0 0 1-.17-.304q0-.333.304-.444.31-.12.977-.119.555 0 .889.119a.56.56 0 0 1 .392.474h1.4q-.067-.867-.755-1.237-.682-.37-1.926-.37-.621 0-1.11.089a2.5 2.5 0 0 0-.83.288q-.34.193-.518.497a1.43 1.43 0 0 0-.178.733q0 .429.17.703.179.274.46.444.289.163.651.245.364.074.74.11.38.037.741.06.363.023.645.074.288.052.459.163.177.104.177.31 0 .334-.325.46-.326.126-1.008.126a5 5 0 0 1-.57-.03 1.5 1.5 0 0 1-.414-.104.7.7 0 0 1-.274-.207M5.738 11.5v1.119h2.066v3.99H9.18v-3.99h2.073V11.5z"/><path fill-rule="evenodd" d="M11.476 14.025q0-.74.207-1.244.208-.51.615-.814a2.6 2.6 0 0 1 1-.437 6.3 6.3 0 0 1 1.362-.133q.77 0 1.363.133.591.134 1 .437.406.304.614.814.207.503.207 1.244 0 .764-.207 1.281a1.97 1.97 0 0 1-.615.83 2.5 2.5 0 0 1-1 .444 6.3 6.3 0 0 1-1.362.133q-.77 0-1.362-.133a2.5 2.5 0 0 1-1-.444 1.97 1.97 0 0 1-.614-.83q-.208-.518-.208-1.28m4.969-.251q0-.734-.452-1.022-.444-.29-1.333-.289-.888 0-1.34.289-.452.288-.452 1.022v.54q0 .386.111.644.12.252.34.408.223.154.556.222.34.06.785.059.445 0 .778-.06.333-.066.555-.214a.94.94 0 0 0 .34-.407 1.7 1.7 0 0 0 .112-.652zm7.103-1.815q-.444-.46-1.392-.46h-3.48v5.11h1.377v-1.6h2.103q.956 0 1.4-.459.444-.46.444-1.31 0-.822-.452-1.281m-1.095.777a.58.58 0 0 1 .155.415v.2q0 .265-.155.43-.149.162-.49.162h-1.91v-1.377h1.91q.341 0 .49.17"/></svg>