<svg xmlns="http://www.w3.org/2000/svg" viewBox="0 0 44 44"><path d="M0 15.5A1.5 1.5 0 0 1 1.5 14h41a1.5 1.5 0 0 1 0 3h-41A1.5 1.5 0 0 1 0 15.5m2.808 12.073a1.5 1.5 0 0 1-.244-.638H-.002q.068.828.394 1.425.34.584.95.964.625.381 1.561.557.937.176 2.213.176 2.497 0 3.72-.72 1.221-.718 1.221-2.375 0-.76-.326-1.249a2.24 2.24 0 0 0-.841-.774 3.9 3.9 0 0 0-1.181-.434q-.665-.15-1.371-.217a37 37 0 0 0-1.358-.109 10 10 0 0 1-1.195-.135 2.6 2.6 0 0 1-.841-.285.61.61 0 0 1-.312-.557q0-.61.556-.815.57-.216 1.792-.217 1.019 0 1.629.217.61.204.72.87h2.565q-.122-1.59-1.385-2.268-1.248-.678-3.529-.679-1.14 0-2.036.163t-1.52.53a2.5 2.5 0 0 0-.95.91q-.327.555-.327 1.343t.313 1.29q.325.502.841.814.53.3 1.195.448.665.136 1.357.204.693.068 1.358.108.665.042 1.18.136.53.096.842.299a.62.62 0 0 1 .326.57q0 .61-.597.842-.598.23-1.846.23-.598 0-1.045-.054a2.7 2.7 0 0 1-.76-.19 1.26 1.26 0 0 1-.503-.38m7.71-7.073v2.05h3.787v7.317h2.525V22.55h3.801V20.5z"/><path fill-rule="evenodd" d="M21.038 25.13q0-1.358.38-2.281.38-.937 1.127-1.493.746-.556 1.832-.801t2.498-.245 2.498.245 1.832.8q.747.558 1.127 1.494.38.922.38 2.28 0 1.399-.38 2.349a3.6 3.6 0 0 1-1.127 1.52q-.746.57-1.832.815-1.086.244-2.498.244t-2.498-.244-1.832-.815a3.6 3.6 0 0 1-1.127-1.52q-.38-.95-.38-2.349m9.109-.462q0-1.344-.829-1.873-.814-.53-2.443-.53t-2.457.53-.828 1.873v.99q0 .707.203 1.182.217.461.625.747.406.285 1.018.407.624.108 1.439.108.814 0 1.425-.108.611-.123 1.018-.394.422-.285.625-.747.203-.474.203-1.194zm13.023-3.325q-.815-.841-2.552-.841h-6.38v9.366h2.525v-2.932h3.855q1.751 0 2.566-.842.814-.841.814-2.402 0-1.508-.828-2.349m-2.01 1.425q.285.3.286.76v.367q0 .49-.285.788-.272.298-.896.298h-3.502v-2.525h3.502q.624 0 .896.313"/></svg>