<svg xmlns="http://www.w3.org/2000/svg" viewBox="0 0 32 32"><path fill-rule="evenodd" d="M16 3c.69 0 1.25.56 1.25 1.25v23.5a1.25 1.25 0 0 1-2.477.24 62 62 0 0 1-3.878-.186c-2.728-.22-4.092-.33-5.842-2.19s-1.83-3.158-1.994-5.752a30 30 0 0 1 0-3.724c.163-2.594.245-3.892 1.994-5.752 1.338-1.423 2.45-1.822 4.118-2.029.129-1.336.274-2.077 1.32-3.025 1.136-1.032 1.857-1.1 3.298-1.233q.464-.043.98-.07v.002A1.25 1.25 0 0 1 16 3m-1.25 18.647v-8.294a4.501 4.501 0 0 0 0 8.294m11.73.23h-5.76v-1.871H29v2.747l-5.748 2.653H29v1.86h-8.28V24.53zm2.52-3.54h-8.28v-5.724h1.692v3.72h1.704v-2.796h1.692v2.796H29zm.156-10.324q0 .924-.228 1.632-.24.708-.756 1.188t-1.332.732q-.828.252-2.004.252-1.14 0-1.944-.252-.816-.252-1.332-.732a2.84 2.84 0 0 1-.756-1.188q-.24-.708-.24-1.632 0-.804.156-1.44.156-.648.504-1.104.348-.468.9-.744.54-.276 1.332-.372v2.064q-.744.096-1.02.504t-.276 1.092q0 .408.108.732.096.324.348.552.24.216.636.336t.984.12h1.224q.588 0 .996-.108.396-.12.648-.336.24-.228.348-.552a2.4 2.4 0 0 0 .108-.744q0-.66-.264-1.068-.276-.408-1.032-.54V4.34q.78.096 1.332.384.54.276.888.744T29 6.572q.156.636.156 1.44"/></svg>