<svg xmlns="http://www.w3.org/2000/svg" viewBox="0 0 44 44"><path fill-rule="evenodd" d="M22 4a1.5 1.5 0 0 1 1.5 1.5v33a1.5 1.5 0 0 1-3 0v-.51a91 91 0 0 1-5.638-.25c-3.757-.287-5.636-.43-8.042-2.861s-2.518-4.118-2.74-7.492a36 36 0 0 1 0-4.774c.222-3.374.334-5.06 2.74-7.492 1.801-1.82 3.307-2.357 5.526-2.633l.02-.206c.205-2.025.307-3.037 1.46-4.27 1.155-1.234 1.97-1.372 3.604-1.648.89-.15 1.914-.27 3.07-.327V5.5A1.5 1.5 0 0 1 22 4m-1.5 26.839v4.15a88 88 0 0 1-5.41-.24c-1.98-.152-3.026-.247-3.886-.507-.693-.21-1.345-.558-2.252-1.474-.946-.956-1.273-1.583-1.456-2.172-.23-.74-.305-1.617-.423-3.407a33 33 0 0 1 0-4.378c.118-1.79.193-2.667.423-3.407.183-.589.51-1.216 1.456-2.172.907-.916 1.559-1.264 2.252-1.474.275-.083.57-.15.907-.206.718-.121 1.632-.198 2.98-.3l.043-.004.012-.18c.058-.898.13-1.73.205-2.485.112-1.103.168-1.55.266-1.883.054-.18.119-.338.4-.64.342-.364.486-.422.55-.448l.005-.002c.19-.076.45-.135 1.357-.288a23 23 0 0 1 2.571-.281v8.12a7.003 7.003 0 0 0 0 13.678M18 24a4 4 0 0 1 2.5-3.71v7.42A4 4 0 0 1 18 24m10.27 6.326h8.16l-8.16 3.757v3.876H40v-2.635h-8.143L40 31.567v-3.893H28.27zm0-5.017H40V22.47h-4.522v-3.961h-2.397v3.961h-2.414V17.2H28.27zm11.628-12.313q.323-1.004.323-2.312 0-1.14-.221-2.04a4.5 4.5 0 0 0-.731-1.564 3.56 3.56 0 0 0-1.258-1.054q-.782-.408-1.887-.544v2.924q1.07.188 1.462.765.374.578.374 1.513 0 .595-.153 1.054a1.9 1.9 0 0 1-.493.782 2.5 2.5 0 0 1-.918.476q-.578.153-1.411.153h-1.734q-.833 0-1.394-.17t-.901-.476a1.7 1.7 0 0 1-.493-.782 3.3 3.3 0 0 1-.153-1.037q0-.97.391-1.547.39-.578 1.445-.714V5.5q-1.122.135-1.887.527-.782.39-1.275 1.054-.494.645-.714 1.564a8.6 8.6 0 0 0-.221 2.04q0 1.309.34 2.312.34 1.004 1.071 1.683.73.68 1.887 1.037 1.14.357 2.754.357 1.666 0 2.839-.357 1.156-.357 1.887-1.037a4 4 0 0 0 1.071-1.683"/></svg>