<svg xmlns="http://www.w3.org/2000/svg" viewBox="0 0 24 24"><path fill-rule="evenodd" d="M12 2a1 1 0 0 1 1 1v18a1 1 0 1 1-2 0v-.009a49 49 0 0 1-3.055-.147c-2.046-.166-3.069-.249-4.37-1.558-1.303-1.31-1.373-2.25-1.515-4.133a21.6 21.6 0 0 1 0-3.238c.142-1.882.212-2.823 1.514-4.132.97-.975 1.784-1.27 2.98-1.425.074-.508.251-.961.68-1.569.13-.184.523-.613.697-.758.971-.816 1.622-.87 2.924-.98L11 3.039V3a1 1 0 0 1 1-1m-1 14.874v2.117a47 47 0 0 1-2.893-.14c-1.09-.09-1.62-.142-2.044-.27-.315-.096-.618-.25-1.07-.705-.473-.476-.618-.77-.702-1.038-.116-.371-.16-.826-.236-1.835a19.6 19.6 0 0 1 0-2.938c.075-1.008.12-1.463.236-1.834.084-.269.229-.563.702-1.038.35-.353.602-.513.812-.608.221-.1.507-.179 1.007-.244l1.504-.195.218-1.502c.02-.138.05-.298.325-.69l.04-.048a5 5 0 0 1 .284-.31l.045-.043c.305-.254.466-.318.597-.356.216-.062.485-.093 1.175-.152v4.081a4.002 4.002 0 0 0 0 7.748M10 13a2 2 0 0 1 1-1.732v3.464A2 2 0 0 1 10 13m5.79 3.408h4.32l-4.32 1.99v2.051H22v-1.395h-4.311L22 17.065v-2.06h-6.21zm0-2.656H22v-1.503h-2.394v-2.097h-1.269v2.097h-1.278v-2.79H15.79zm6.156-6.519q.171-.531.171-1.224 0-.603-.117-1.08a2.4 2.4 0 0 0-.387-.828 1.9 1.9 0 0 0-.666-.558 2.9 2.9 0 0 0-.999-.288v1.548q.567.099.774.405.198.306.198.801 0 .315-.081.558a1 1 0 0 1-.261.414 1.3 1.3 0 0 1-.486.252 3 3 0 0 1-.747.081h-.918q-.441 0-.738-.09a1.24 1.24 0 0 1-.477-.252.9.9 0 0 1-.261-.414 1.7 1.7 0 0 1-.081-.549q0-.513.207-.819t.765-.378V3.264a3 3 0 0 0-.999.28 1.9 1.9 0 0 0-.675.557q-.261.342-.378.828a4.6 4.6 0 0 0-.117 1.08q0 .693.18 1.224t.567.891.999.55q.603.188 1.458.188.882 0 1.503-.189.612-.189.999-.549t.567-.89"/></svg>