<svg xmlns="http://www.w3.org/2000/svg" viewBox="0 0 16 16"><path d="M3.248 3.25a.75.75 0 0 1 .75-.75h8a.75.75 0 0 1 0 1.5h-8a.75.75 0 0 1-.75-.75M8 7.254a.75.75 0 0 1 .75-.75h4.497a.75.75 0 0 1 0 1.5H8.75a.75.75 0 0 1-.75-.75m.75 3.246a.75.75 0 0 0 0 1.5h4.497a.75.75 0 0 0 0-1.5zm-6.371.5a.736.736 0 0 0-.594 1.192l.322.416c.721.93 1.082 1.395 1.54 1.516a1.4 1.4 0 0 0 .717 0c.458-.121.818-.586 1.54-1.516l.322-.416A.736.736 0 0 0 5.632 11a.78.78 0 0 0-.613.301l-.269.346.026-.034-.026.03V6.75a.75.75 0 0 0-1.5 0v4.884l-.258-.333A.78.78 0 0 0 2.379 11"/></svg>