<svg xmlns="http://www.w3.org/2000/svg" viewBox="0 0 24 24"><path d="M4.575 5a1 1 0 0 1 1-1h12.872a1 1 0 0 1 0 2H5.575a1 1 0 0 1-1-1M11 11a1 1 0 0 1 1-1h7a1 1 0 1 1 0 2h-7a1 1 0 0 1-1-1m4 7h3.722a1 1 0 1 0 0-2H15a1 1 0 1 0 0 2"/><path fill-rule="evenodd" d="m4.963 16.118-.028.002c-.553.03-.94.531-.935 1.04a.94.94 0 0 0 .168.532l.002.002c.198.254.421.525.65.816 1.108 1.404 1.661 2.106 2.337 2.348a2.5 2.5 0 0 0 1.685 0c.676-.242 1.24-.944 2.347-2.348l.642-.816.002-.003c-.003.003-.012.015-.001 0a.94.94 0 0 0 .168-.52c.011-.512-.377-1.021-.934-1.051l-.029-.002h-.048a1 1 0 0 0-.751.367l-.032.04-.587.747c-.238.301-.448.553-.62.767L9 18v-8a1 1 0 1 0-2 0v8l.001.04c-.172-.213-.381-.466-.62-.768l-.587-.747-.031-.04a1 1 0 0 0-.752-.366z"/></svg>