<svg xmlns="http://www.w3.org/2000/svg" viewBox="0 0 44 44"><path fill-rule="evenodd" d="M18.845 9.114A46 46 0 0 1 22 9c1.051 0 2.112.042 3.156.114 4.974.34 6.17.535 7.683 2.048.532.532.9 1.025 1.17 1.657.284.664.877 1.181 1.599 1.181.95 0 1.692-.866 1.384-1.765-.4-1.176-1.02-2.182-2.032-3.195-2.428-2.428-4.819-2.592-9.6-2.92A49 49 0 0 0 22 6c-1.13 0-2.26.045-3.36.12-4.781.328-7.171.492-9.6 2.92s-2.592 4.82-2.92 9.6A49 49 0 0 0 6 22c0 1.13.045 2.26.12 3.36.328 4.781.492 7.172 2.92 9.6s4.819 2.592 9.6 2.92c1.1.075 2.23.12 3.36.12s2.26-.045 3.36-.12c4.781-.328 7.172-.492 9.6-2.92 1.012-1.013 1.631-2.019 2.033-3.195.307-.9-.434-1.765-1.385-1.765-.722 0-1.315.517-1.598 1.181-.27.632-.64 1.125-1.171 1.658-1.513 1.513-2.71 1.707-7.683 2.048A46 46 0 0 1 22 35c-1.051 0-2.112-.042-3.155-.113-4.975-.341-6.17-.535-7.683-2.048s-1.708-2.709-2.049-7.683A46 46 0 0 1 9 22c0-1.051.042-2.112.113-3.155.341-4.974.536-6.17 2.049-7.683s2.708-1.707 7.682-2.048M34 25a1.5 1.5 0 1 0 3 0v-1.5h1.5a1.5 1.5 0 1 0 0-3H37V19a1.5 1.5 0 0 0-3 0v1.5h-1.5a1.5 1.5 0 0 0 0 3H34zm-8.85 2.094q1.37-1.672 1.369-5.149 0-6.802-5.51-6.802-2.813 0-4.161 1.691-1.35 1.69-1.35 5.111 0 3.477 1.35 5.149 1.349 1.653 4.16 1.653 2.794 0 4.143-1.653m-2.013-7.486q.114.608.114 1.387v1.881q0 1.672-.475 2.508-.456.836-1.767.836-.666 0-1.102-.209a1.9 1.9 0 0 1-.684-.627q-.247-.418-.361-1.045a10 10 0 0 1-.095-1.463v-1.881q0-.798.095-1.425.114-.627.36-1.045.267-.419.685-.627.436-.228 1.102-.228.645 0 1.083.228.436.228.684.665.266.418.36 1.045"/></svg>