<svg xmlns="http://www.w3.org/2000/svg" viewBox="0 0 16 16"><path fill-rule="evenodd" d="M6.24 1.545A1.571 1.571 0 0 1 9 2.57v10.86a1.571 1.571 0 0 1-2.76 1.026l-1.895-2.194a1.8 1.8 0 0 0-.897-.562A3.296 3.296 0 0 1 1 8.514v-.429c0-1.438.801-2.757 2.077-3.42l.34-.176c.337-.175.637-.412.884-.699zm1.189.955q-.032 0-.054.025L5.437 4.77a4.5 4.5 0 0 1-1.328 1.05l-.34.177A2.35 2.35 0 0 0 2.5 8.085v.429c0 .814.547 1.526 1.334 1.736.64.17 1.214.53 1.647 1.031l1.894 2.194a.071.071 0 0 0 .125-.046V2.57a.07.07 0 0 0-.071-.071"/></svg>