<svg xmlns="http://www.w3.org/2000/svg" viewBox="0 0 16 16"><path fill-rule="evenodd" d="M4.918 4.63A35 35 0 0 1 8 4.5c1.214 0 2.242.055 3.082.13.699.063 1.016.099 1.263.173.165.05.319.124.564.368.263.262.332.41.374.54.067.207.1.47.16 1.111a12.4 12.4 0 0 1 0 2.357c-.06.64-.093.904-.16 1.11-.042.13-.11.279-.373.54-.246.244-.4.318-.565.368-.247.075-.564.11-1.263.173-.537.048-1.151.088-1.841.11a.76.76 0 0 0-.741.758.74.74 0 0 0 .76.743 34 34 0 0 0 1.956-.117c1.3-.117 1.951-.176 2.751-.972.8-.795.857-1.387.97-2.571a14 14 0 0 0 0-2.641c-.113-1.184-.17-1.776-.97-2.572s-1.45-.854-2.751-.971A36 36 0 0 0 8 3c-1.26 0-2.332.057-3.217.137-1.3.117-1.95.175-2.75.97-.33.33-.534.623-.667.939-.203.48.232.954.754.954.376 0 .64-.267.81-.602a.9.9 0 0 1 .16-.227c.246-.244.4-.318.565-.368.247-.074.564-.11 1.263-.172M1.013 8.017a.64.64 0 0 1 .67-.646 10 10 0 0 0 .508.001 9 9 0 0 1 .644.006c1.501.14 2.252.21 3 .958s.82 1.498.963 3c.012.127.016.378.02.61.003.171.006.332.012.428a.64.64 0 0 1-.646.671.686.686 0 0 1-.677-.65 11 11 0 0 1-.01-.397 9 9 0 0 0-.015-.538c-.151-1.588-.222-1.83-.58-2.188-.36-.358-.601-.43-2.19-.578-.103-.01-.346-.005-.578-.001-.195.003-.382.006-.47.001a.686.686 0 0 1-.65-.677m3.112 2.035c-.43-.43-1.534-.52-2.363-.564a.661.661 0 0 0-.496 1.128c.196.195.925.238 1.346.263l.217.014c.371.034.42.081.455.452.007.075.008.184.01.31.003.383.009.917.188 1.096.258.258.76.258 1.018 0 .137-.137.156-.534.13-1.02-.026-.485-.074-1.249-.505-1.68M1.75 13a.75.75 0 1 0 0-1.5.75.75 0 0 0 0 1.5"/></svg>