<svg xmlns="http://www.w3.org/2000/svg" viewBox="0 0 44 44"><path fill-rule="evenodd" d="M29.126 35.721c3.723-.306 5.584-.458 7.966-2.854s2.516-4.147 2.784-7.648A42 42 0 0 0 40 22c0-1.123-.046-2.2-.124-3.219-.268-3.501-.401-5.252-2.784-7.648S32.85 8.585 29.127 8.28A87 87 0 0 0 22 8c-2.712 0-5.088.112-7.125.279-3.723.306-5.585.458-7.968 2.855-.676.68-1.17 1.307-1.539 1.938C4.834 13.987 5.621 15 6.68 15c.648 0 1.222-.398 1.614-.914.193-.254.434-.53.74-.837.896-.901 1.542-1.247 2.232-1.458.854-.261 1.892-.36 3.855-.522A84 84 0 0 1 22 11c2.63 0 4.925.108 6.881.27 1.962.16 3 .26 3.853.521.69.211 1.335.557 2.23 1.458.92.923 1.253 1.555 1.448 2.183.244.785.331 1.726.473 3.578a39 39 0 0 1 0 5.98c-.142 1.852-.23 2.793-.473 3.578-.195.628-.529 1.26-1.447 2.183-.896.901-1.542 1.247-2.231 1.458-.854.261-1.891.361-3.853.522q-1.14.094-2.43.16A1.52 1.52 0 0 0 25 34.404a1.48 1.48 0 0 0 1.548 1.486 80 80 0 0 0 2.578-.169M9 33a2 2 0 1 1-4 0 2 2 0 0 1 4 0M5.5 18.5a1.5 1.5 0 1 0 0 3h.094l.291.005a48 48 0 0 1 4.504.298c1.304.15 2.638.374 3.773.695 1.188.336 1.936.721 2.277 1.063s.727 1.089 1.063 2.277c.321 1.135.544 2.469.696 3.773a48 48 0 0 1 .302 4.795v.094a1.5 1.5 0 0 0 3 0v-.12l-.005-.32a51 51 0 0 0-.317-4.795c-.161-1.385-.407-2.894-.79-4.244-.366-1.296-.919-2.673-1.827-3.582-.909-.908-2.286-1.46-3.582-1.828-1.35-.382-2.86-.628-4.243-.789A51 51 0 0 0 5.62 18.5zm-1.497 7.412a1.5 1.5 0 0 1 1.585-1.41h.007l.014.002.054.003.198.014a42 42 0 0 1 2.918.31c.83.12 1.74.281 2.536.5.398.11.799.24 1.16.401.344.153.753.375 1.086.707.332.333.554.742.707 1.085.16.362.292.762.4 1.16.22.798.381 1.706.5 2.537a42 42 0 0 1 .325 3.116l.003.054.001.015v.006a1.5 1.5 0 1 1-2.994.176v-.002l-.001-.01-.003-.045-.012-.177a40 40 0 0 0-.288-2.707c-.111-.775-.252-1.545-.423-2.169a7 7 0 0 0-.25-.737.6.6 0 0 0-.267-.267 7 7 0 0 0-.737-.25 19 19 0 0 0-2.169-.423 39 39 0 0 0-2.884-.3l-.045-.003h-.012a1.5 1.5 0 0 1-1.41-1.586"/></svg>