<svg xmlns="http://www.w3.org/2000/svg" viewBox="0 0 24 24"><path fill-rule="evenodd" d="M8.119 6.16C9.214 6.067 10.509 6 12 6s2.785.066 3.881.16c1.079.094 1.603.15 2.024.279.312.096.612.25 1.06.699.457.459.606.755.696 1.043.122.394.173.88.26 1.917a23 23 0 0 1 0 3.805c-.087 1.037-.138 1.523-.26 1.917-.09.288-.239.584-.696 1.043-.448.45-.748.603-1.06.7-.421.129-.945.184-2.024.277-.578.05-1.213.093-1.902.12-.544.023-.98.466-.98 1.011 0 .56.46 1.012 1.02.99q1.104-.046 2.035-.128c2.025-.176 3.038-.264 4.327-1.558s1.37-2.264 1.532-4.206a25 25 0 0 0 0-4.137c-.161-1.941-.242-2.912-1.532-4.206s-2.302-1.382-4.327-1.558A47 47 0 0 0 12 4c-1.55 0-2.903.068-4.055.168-2.025.176-3.037.264-4.326 1.558-.746.748-1.087 1.388-1.274 2.17C2.207 8.477 2.692 9 3.29 9h.059c.476 0 .85-.365.991-.82.09-.288.239-.583.696-1.043.448-.449.748-.602 1.06-.698.42-.13.944-.185 2.023-.278m-5.994 5.646c0-.274.12-.527.309-.71a1 1 0 0 1 .739-.288q.647.037 1.276.097l.198.02c2.415.23 3.623.346 4.858 1.58 1.236 1.235 1.354 2.443 1.588 4.857l.02.198q.061.629.098 1.277a1 1 0 0 1-.292.744 1 1 0 0 1-.706.304h-.001a.98.98 0 0 1-.998-.941l-.002-.041q-.035-.579-.09-1.149c-.261-2.68-.349-3.153-1.03-3.833-.682-.68-1.155-.768-3.835-1.025a29 29 0 0 0-1.149-.088l-.04-.003a.98.98 0 0 1-.943-.998m9.086 7.03v-.005l.002.038zm-6.506-4.364c.921.165 1.45.34 1.975.865s.701 1.052.867 1.97c.096.534.305 1.755-.133 2.193A1 1 0 0 1 6 19.5c-.167-.167-.285-1.001-.31-1.219a.2.2 0 0 1-.014-.048c-.117-.703-.187-1.006-.262-1.231a.5.5 0 0 0-.147-.25.5.5 0 0 0-.25-.147c-.122-.04-.464-.078-.865-.123-.351-.04-.748-.084-1.078-.139a.2.2 0 0 1-.064-.02 1 1 0 0 1-.576-1.699c.44-.44 1.735-.248 2.27-.152M3.5 19.5a1 1 0 1 0 0-2 1 1 0 0 0 0 2"/></svg>