<svg xmlns="http://www.w3.org/2000/svg" viewBox="0 0 17 17"><path fill-rule="evenodd" d="M1.062 8.508V8.49c0-1.105.108-2.106.24-2.923.152-.932.228-1.398.752-1.91.524-.514.998-.58 1.946-.713 1.095-.154 2.597-.288 4.499-.288q1.264.002 2.292.07.084.004.162.028c.41.033.733.376.733.794v1.233h1.02c1.015 0 1.832.75 2.326 1.413.508.68.903 1.581.903 2.323v.002q-.002.751-.059 1.428c-.086 1.054-.14 1.721-.546 2.384a.8.8 0 0 1-.589.41 2.392 2.392 0 0 1-4.512.008H7.301a2.392 2.392 0 0 1-4.509 0h-.698c-.288 0-.556-.167-.627-.446a11 11 0 0 1-.164-.873 18.4 18.4 0 0 1-.24-2.922m13.226 1.31q-.023.294-.044.514a2.385 2.385 0 0 0-2.558-.636V6.374h1.02l.043.002.145 1.453c.037.38.357.67.74.67h.708c0 .454-.02.908-.054 1.319m-1.804 2.93a.797.797 0 1 1 0-1.595.797.797 0 0 1 0 1.595m-7.437-1.595a.798.798 0 1 0 0 1.595.798.798 0 0 0 0-1.595"/></svg>