<svg xmlns="http://www.w3.org/2000/svg" viewBox="0 0 24 24"><path fill-rule="evenodd" d="M12 4c-2.558 0-4.578.184-6.051.395-1.271.181-1.907.272-2.61.962s-.804 1.32-1.008 2.578A25.6 25.6 0 0 0 2 12c0 1.542.149 2.935.331 4.065.093.573.165 1.015.281 1.392.108.348.453.543.816.543h.742a3.001 3.001 0 0 0 5.66 0h4.34a3.002 3.002 0 0 0 5.66 0h.342a1 1 0 0 0 .866-.501c.668-.963.747-1.892.875-3.43A25 25 0 0 0 22 12c0-.308-.09-.6-.18-.827a5 5 0 0 0-.366-.73 11 11 0 0 0-1.07-1.469A10 10 0 0 0 19.089 7.7a4.3 4.3 0 0 0-.696-.46c-.226-.115-.54-.24-.893-.24H16V5.079a.98.98 0 0 0-.915-.984A49 49 0 0 0 12 4m5 12a1 1 0 0 0-1 .993v.014A1 1 0 1 0 17 16m-1-7v5.17a3 3 0 0 1 3.698 1.517c.097-.373.145-.86.222-1.784.05-.599.08-1.237.08-1.903h-1.153a1 1 0 0 1-.987-.836L17.5 9zM6 17a1 1 0 1 1 2 0 1 1 0 0 1-2 0"/></svg>