<svg xmlns="http://www.w3.org/2000/svg" viewBox="0 0 44 44"><path fill-rule="evenodd" d="M28.998 9.65c0-.78-.6-1.43-1.378-1.48A90 90 0 0 0 21.998 8c-4.602 0-8.237.322-10.888.69-2.298.319-3.447.478-4.717 1.72-1.271 1.24-1.455 2.366-1.822 4.617A43.6 43.6 0 0 0 3.998 22c0 2.634.255 5.02.573 6.973.237 1.45.397 2.433.821 3.281.25.498.796.746 1.353.746h1.67a5.001 5.001 0 0 0 9.169 0h8.832a5.001 5.001 0 0 0 9.168 0h.805c.483 0 .913-.228 1.187-.582 1.89-2.106 2.028-3.824 2.285-7.035.086-1.067.137-2.2.137-3.383v-.017c0-.967-.37-1.995-.828-2.896a14.5 14.5 0 0 0-1.854-2.747c-.726-.856-1.567-1.657-2.443-2.257C34.03 13.505 32.99 13 31.897 13h-2.9v-3q0-.089-.01-.175.011-.085.01-.174M8.1 30a5.002 5.002 0 0 1 9.8 0h8.098V11.088a89 89 0 0 0-4-.088c-4.462 0-7.959.312-10.475.662-1.235.17-1.808.26-2.242.399-.285.091-.487.197-.792.495-.312.304-.42.502-.514.772-.145.418-.245.97-.443 2.182A40.6 40.6 0 0 0 6.998 22c0 2.444.237 4.667.534 6.49.111.68.191 1.153.266 1.51zM31 26c-.712 0-1.39.149-2.002.417V16h2.5l.749 4.48a1.8 1.8 0 0 0 1.775 1.503h2.976V22c0 1.097-.048 2.15-.127 3.143-.147 1.828-.236 2.755-.477 3.525a4 4 0 0 1-.544 1.112A5 5 0 0 0 31 26m-18 7a2 2 0 1 0 0-4 2 2 0 0 0 0 4m18-4a2 2 0 1 0 0 4 2 2 0 0 0 0-4"/></svg>