<svg xmlns="http://www.w3.org/2000/svg" viewBox="0 0 16 16"><path fill-rule="evenodd" d="M2 2h6c1.678 0 2.517 0 3.426.508.394.22.922.671 1.2 1.027.642.82.791 1.779 1.09 3.696.166 1.064.284 2.236.284 3.436 0 .775 0 1.163-.106 1.476a2 2 0 0 1-1.251 1.25c-.313.107-.7.107-1.476.107H7.792a2.5 2.5 0 0 1-4.584 0H2zm1.5 3h1.75a.75.75 0 0 1 .75.75v1.5a.75.75 0 0 1-.75.75H3.5zm8.257.046c.152.436.274 1.114.477 2.416.123.79.217 1.633.251 2.492a1.33 1.33 0 0 1-.985-1.287V5.833c0-.295.095-.567.257-.787M8.75 12c-.334 0-.777-.11-.99-.383-.139-.18-.15-.35-.173-.693A38 38 0 0 1 7.5 8.5c0-.913.048-1.826.087-2.424.023-.343.034-.514.173-.693.213-.274.656-.383.99-.383s.777.11.99.383c.139.18.15.35.173.693.04.598.087 1.511.087 2.424s-.048 1.826-.087 2.424c-.023.343-.034.514-.173.693-.213.274-.656.383-.99.383M5.5 13.5a1 1 0 1 0 0-2 1 1 0 0 0 0 2"/></svg>