<svg xmlns="http://www.w3.org/2000/svg" viewBox="0 0 24 24"><path fill-rule="evenodd" d="M10.663 20H17c.93 0 1.395 0 1.776-.102a3 3 0 0 0 2.122-2.122C21 17.396 21 16.93 21 16c0-1.799-.177-3.558-.426-5.153-.448-2.876-.672-4.314-1.635-5.544-.417-.534-1.208-1.211-1.8-1.541C15.776 3 14.517 3 12 3H3v17h1.337a3.5 3.5 0 0 0 6.326 0m.302-2A3.5 3.5 0 0 0 5 16.05V12h2a2 2 0 0 0 2-2V9a2 2 0 0 0-2-2H5V5h7c2.648 0 3.34.047 4.164.508.36.2.947.703 1.2 1.027.19.243.338.498.468.841A2 2 0 0 0 17 9v4a2 2 0 0 0 1.981 2q.018.498.019 1c0 .483 0 .779-.01 1.003-.01.213-.026.263-.024.256a1 1 0 0 1-.707.707c.007-.002-.043.014-.256.023-.224.01-.52.011-1.003.011h-2.227c.044-.171.058-.375.076-.662A71 71 0 0 0 15 13c0-1.66-.086-3.322-.151-4.338-.032-.498-.048-.746-.239-1.007C14.282 7.205 13.534 7 13 7s-1.282.205-1.61.655c-.191.26-.207.51-.239 1.007A71 71 0 0 0 11 13c0 1.66.086 3.322.151 4.338.018.287.032.49.076.662zM9 18.5a1.5 1.5 0 1 1-3 0 1.5 1.5 0 0 1 3 0"/></svg>