<svg xmlns="http://www.w3.org/2000/svg" viewBox="0 0 44 44"><path fill-rule="evenodd" d="M19.197 37h11.51c1.668 0 2.501 0 3.187-.18a5.5 5.5 0 0 0 3.927-3.926c.179-.686.179-1.52.179-3.188 0-3.392-.336-6.706-.802-9.693-.767-4.914-1.15-7.37-2.749-9.54-.84-1.14-2.514-2.573-3.77-3.227C28.289 6 26.193 6 22 6H6v31h2.803A6 6 0 0 0 14 40c2.22 0 4.16-1.207 5.197-3M20 34h.427c-.065-.3-.09-.658-.122-1.142-.13-1.945-.305-5.151-.305-8.358 0-3.206.175-6.413.305-8.358.063-.928.094-1.393.443-1.87C21.401 13.38 22.954 13 24 13s2.6.38 3.252 1.272c.35.477.38.942.443 1.87.13 1.945.305 5.152.305 8.358s-.175 6.413-.305 8.358c-.033.484-.057.842-.122 1.142h3.134c1.856 0 2.21-.025 2.426-.082a2.5 2.5 0 0 0 1.785-1.785c.057-.217.082-.57.082-2.427q-.002-1.362-.072-2.706h-.261A3.666 3.666 0 0 1 31 23.334v-6.668c0-1.328.706-2.49 1.763-3.134a6 6 0 0 0-.729-1.279c-.569-.772-1.891-1.904-2.742-2.347C27.67 9.06 26.356 9 22 9H9v4h4.333A3.666 3.666 0 0 1 17 16.666V18.4a3.6 3.6 0 0 1-3.6 3.6H9v8.682A6 6 0 0 1 20 34m-3 0a3 3 0 1 1-6 0 3 3 0 0 1 6 0"/></svg>