<svg xmlns="http://www.w3.org/2000/svg" viewBox="0 0 16 16"><path fill-rule="evenodd" d="M7.792 13.5h3.375c.776 0 1.163 0 1.476-.106a2 2 0 0 0 1.25-1.251c.107-.313.107-.7.107-1.476 0-1.2-.118-2.372-.284-3.436-.299-1.917-.448-2.876-1.09-3.696a4.7 4.7 0 0 0-1.2-1.027C10.517 2 9.678 2 8 2H2v11.5h1.208a2.5 2.5 0 0 0 4.584 0m-.24-2.43A2.5 2.5 0 0 0 5.5 10c-.818 0-1.544.393-2 1V8h1.167C5.403 8 6 7.403 6 6.667v-.334C6 5.597 5.403 5 4.667 5H3.5V3.5H8c1.776 0 2.19.035 2.695.317.22.123.595.444.75.642.128.164.225.335.312.587-.162.22-.257.492-.257.787v2.834c0 .616.418 1.134.985 1.287q.015.355.015.713c0 .405 0 .646-.01.826a1 1 0 0 1-.018.173.5.5 0 0 1-.306.306c-.012.002-.06.01-.173.017-.18.01-.421.011-.826.011H9.9l.005-.085C9.944 11.24 10 10.12 10 9s-.055-2.24-.096-2.915c-.02-.321-.029-.482-.153-.655C9.547 5.144 9.09 5 8.75 5s-.797.144-1.001.43c-.124.173-.134.334-.153.655C7.556 6.76 7.5 7.88 7.5 9c0 .731.024 1.463.051 2.07M6.5 12.5a1 1 0 1 1-2 0 1 1 0 0 1 2 0"/></svg>