<svg xmlns="http://www.w3.org/2000/svg" viewBox="0 0 44 44"><path fill-rule="evenodd" d="M6 6h16c4.193 0 6.29 0 8.679 1.246 1.256.654 2.93 2.087 3.77 3.227 1.599 2.17 1.982 4.626 2.749 9.54.466 2.987.802 6.301.802 9.693 0 1.668 0 2.502-.18 3.188a5.5 5.5 0 0 1-3.926 3.927c-.686.179-1.52.179-3.187.179h-11.51A6 6 0 0 1 14 40a6 6 0 0 1-5.197-3H6zm9.25 16H9v-9h6.25c.966 0 1.75.783 1.75 1.75v5.5A1.75 1.75 0 0 1 15.25 22M24 34c-1.037 0-2.567-.313-3.234-1.18-.375-.485-.41-.968-.478-1.935C20.16 29.093 20 26.297 20 23.5s.16-5.593.288-7.385c.069-.966.103-1.45.478-1.936C21.434 13.313 22.964 13 24 13s2.567.313 3.234 1.18c.375.485.41.969.478 1.935.128 1.792.288 4.589.288 7.385 0 2.797-.16 5.593-.288 7.385-.069.966-.103 1.45-.478 1.936C26.566 33.687 25.036 34 24 34m10.234-13.524c.32 2.06.575 4.263.694 6.524h-.261A3.666 3.666 0 0 1 31 23.334v-6.668c0-1.328.706-2.49 1.763-3.134.551 1.302.883 3.176 1.47 6.944M14 37a3 3 0 1 0 0-6 3 3 0 0 0 0 6"/></svg>