<svg xmlns="http://www.w3.org/2000/svg" viewBox="0 0 16 16"><path d="M8 10.5a1 1 0 1 0 0-2 1 1 0 0 0 0 2m-2.1-1a.9.9 0 1 1-1.8 0 .9.9 0 0 1 1.8 0m5.1.9a.9.9 0 1 1 0-1.8.9.9 0 0 1 0 1.8"/><path fill-rule="evenodd" d="M1 7.434V8c0 .465.024.908.064 1.322.024.25.045.473.071.678.2 1.556 1.325 2.594 2.865 2.785.235.03.493.052.783.079A36 36 0 0 0 8 13a36 36 0 0 0 4-.215c1.54-.191 2.665-1.23 2.865-2.785q.038-.306.072-.68C14.976 8.907 15 8.464 15 8V6c0-.122 0-.44-.073-.694a1.2 1.2 0 0 0-.3-.516 1.02 1.02 0 0 0-.725-.29c-.526 0-.94.231-1.245.49-.268.226-.477.498-.686.77-.15.195-.299.39-.47.568-.12-.255-.243-.539-.366-.823a35 35 0 0 0-.366-.822c-.268-.575-.6-1.208-1.007-1.705C9.366 2.494 8.783 2 8 2c-.784 0-1.366.494-1.763.978-.407.497-.738 1.13-1.006 1.705-.12.255-.243.539-.366.822a33 33 0 0 1-.366.823 7 7 0 0 1-.47-.568c-.21-.272-.418-.544-.686-.77-.306-.259-.719-.49-1.245-.49-.274 0-.53.1-.725.29a1.2 1.2 0 0 0-.3.516C1 5.561 1 5.878 1 6zm4.306.343A.93.93 0 0 1 4.712 8c-.521 0-.911-.268-1.176-.515a5 5 0 0 1-.57-.668c-.148-.194-.296-.388-.466-.564V8c0 .411.022.81.057 1.18.061.64.093.903.16 1.11.13.397.54.787.938.907.247.075.564.11 1.263.173.84.075 1.868.13 3.082.13s2.242-.055 3.082-.13c.7-.063 1.016-.098 1.263-.173.397-.12.81-.51.938-.908.067-.206.1-.47.16-1.11.035-.365.056-.775.057-1.18V6.254c-.17.176-.318.37-.466.564a5 5 0 0 1-.57.668c-.265.247-.655.515-1.176.515a.93.93 0 0 1-.594-.223 1.5 1.5 0 0 1-.261-.293 4.4 4.4 0 0 1-.339-.62c-.119-.256-.23-.515-.342-.774a28 28 0 0 0-.342-.773c-.257-.55-.525-1.042-.808-1.389C8.307 3.568 8.108 3.5 8 3.5s-.307.068-.602.428c-.284.347-.551.839-.808 1.39-.12.255-.23.514-.342.772-.112.26-.223.518-.343.774a4.4 4.4 0 0 1-.338.62 1.5 1.5 0 0 1-.261.293"/></svg>