<svg xmlns="http://www.w3.org/2000/svg" viewBox="0 0 44 44"><path d="M7.446 16.433a1.5 1.5 0 0 1 2.121.013l.207.209 2.432 2.452a455 455 0 0 0 4.34 4.319c.963.937 2.209 2.147 3.375 3.122.584.488 1.113.887 1.548 1.156l.018.011a.99.99 0 0 0 1.032.004c.421-.253.928-.627 1.477-1.076 1.091-.893 2.217-1.978 2.943-2.704l7.5-7.5a1.5 1.5 0 0 1 2.122 2.122h-.001l-.001.002-7.498 7.498c-.752.751-1.96 1.917-3.165 2.904-.6.491-1.233.966-1.831 1.325C23.541 30.605 23 31 22 31s-1.57-.412-2.107-.743c-.611-.378-1.265-.88-1.897-1.408-1.267-1.06-2.593-2.35-3.543-3.274a460 460 0 0 1-4.373-4.352 1164 1164 0 0 1-2.44-2.459l-.207-.21a1.5 1.5 0 0 1 .013-2.121"/></svg>