<svg xmlns="http://www.w3.org/2000/svg" viewBox="0 0 28 28"><path fill-rule="evenodd" d="M13.772 2.01a2.4 2.4 0 0 1 .442 0c1.482.137 2.353 2.374 4.094 6.849 4.54.222 6.81.333 7.443 1.576q.165.324.227.682c.24 1.375-1.51 2.826-5.009 5.729l-.15.124c1.157 4.12 1.736 6.181 1 7.138-.303.394-.72.685-1.194.832-1.044.324-2.562-.677-5.41-2.737l-1.007-.73L14 21.32l-.007-.005-.215.156-1.008.731c-2.847 2.06-4.365 3.061-5.409 2.737a2.4 2.4 0 0 1-1.194-.832c-.736-.957-.157-3.017 1-7.138l-.156-.129c-3.486-2.902-5.229-4.352-4.99-5.726a2.4 2.4 0 0 1 .228-.681c.159-.31.42-.55.792-.74 1.116-.565 3.24-.669 6.637-.835 1.741-4.475 2.611-6.712 4.094-6.849M14 18.848l1.169.85.215.157 1.004.728c1.447 1.047 2.43 1.73 3.158 2.123.309.166.498.239.596.27l.002-.001c.005-.12.003-.394-.086-.911-.175-1.022-.573-2.446-1.164-4.553l-.351-1.25 1.15-.954c1.793-1.489 2.987-2.484 3.726-3.27a4.4 4.4 0 0 0 .504-.614 4.6 4.6 0 0 0-.771-.189c-1.062-.184-2.614-.264-4.942-.378l-1.295-.063-.47-1.21c-.893-2.293-1.493-3.822-2.036-4.816A5 5 0 0 0 14 4.119z"/></svg>