<svg xmlns="http://www.w3.org/2000/svg" viewBox="0 0 24 24"><path fill-rule="evenodd" d="M13.415 16.517 12 15.49V4.37l.05.089c.434.795.918 2.028 1.657 3.926l.472 1.21 1.297.063c1.952.094 3.224.159 4.088.307l.113.02-.08.083c-.607.63-1.593 1.437-3.109 2.669l-1.118.91.355 1.264c.49 1.74.81 2.89.951 3.71l.025.153-.135-.076c-.72-.417-1.688-1.117-3.151-2.18M12 2q.102 0 .203.01c1.218.124 1.935 1.966 3.37 5.649 3.789.182 5.683.273 6.213 1.297q.148.287.2.605c.18 1.139-1.292 2.335-4.235 4.727l-.099.08c.952 3.39 1.429 5.084.83 5.875a2 2 0 0 1-1.02.71c-.95.286-2.375-.748-5.224-2.817L12 17.963l-.238.173c-2.137 1.551-3.472 2.521-4.407 2.788-.312.09-.58.1-.817.03a2 2 0 0 1-1.02-.71c-.599-.792-.122-2.487.83-5.875l-.1-.081c-2.207-1.794-3.586-2.915-4.062-3.844-.158-.31-.216-.598-.171-.883a2 2 0 0 1 .199-.605c.53-1.024 2.424-1.115 6.213-1.297 1.076-2.762 1.749-4.489 2.532-5.232.26-.247.534-.386.838-.417A2 2 0 0 1 12 2"/></svg>