<svg xmlns="http://www.w3.org/2000/svg" viewBox="0 0 16 16"><path d="M3.5 8c0 1.447.07 2.632.158 3.551.059.612.09.874.149 1.07.034.118.08.218.25.393.193.199.288.238.361.264.148.05.343.082.886.148.371.045.774.074 1.196.074s.825-.029 1.196-.074c.177-.022.316-.04.43-.056a.758.758 0 0 1 .874.741.75.75 0 0 1-.675.747q-.206.028-.447.057a11.4 11.4 0 0 1-2.756 0c-.99-.121-1.485-.182-2.14-.854-.654-.672-.709-1.237-.817-2.367A39 39 0 0 1 2 8c0-1.495.072-2.727.165-3.694.108-1.13.163-1.695.818-2.368s1.15-.732 2.14-.853A11 11 0 0 1 6.5 1c.49 0 .952.033 1.377.085.99.12 1.485.181 2.14.853.655.673.71 1.238.818 2.368C10.928 5.272 11 6.505 11 8q0 .342-.005.664a.75.75 0 0 1-.745.836.754.754 0 0 1-.753-.752A36 36 0 0 0 9.5 8a37 37 0 0 0-.158-3.55c-.059-.613-.09-.875-.149-1.072-.034-.117-.08-.217-.25-.393-.193-.198-.289-.237-.362-.263-.147-.05-.343-.082-.886-.148A10 10 0 0 0 6.5 2.5a10 10 0 0 0-1.195.074c-.543.066-.74.097-.886.148-.073.026-.169.065-.362.263-.17.176-.216.276-.25.393-.06.197-.09.46-.149 1.072A37 37 0 0 0 3.5 8"/><path d="M5 4.75A.75.75 0 0 1 5.75 4h1.5a.75.75 0 0 1 0 1.5h-1.5A.75.75 0 0 1 5 4.75m10.28 4.47a.75.75 0 0 1 0 1.06l-3.5 3.5a.75.75 0 0 1-1.06 0l-2-2a.75.75 0 1 1 1.06-1.06l1.47 1.47 2.97-2.97a.75.75 0 0 1 1.06 0"/></svg>