<svg xmlns="http://www.w3.org/2000/svg" viewBox="0 0 24 24"><path d="M6.211 16.9A53 53 0 0 1 6 12c0-1.975.092-3.609.211-4.898.084-.91.131-1.322.226-1.642.063-.21.151-.397.442-.692.321-.328.497-.409.643-.459.246-.083.561-.128 1.364-.218A15 15 0 0 1 10.5 4c.567 0 1.109.035 1.614.091.803.09 1.118.135 1.364.218.146.05.322.131.643.459.29.295.38.482.442.692.095.32.141.733.226 1.641.119 1.29.211 2.924.211 4.899 0 .905-.02 1.738-.052 2.5 0 .552.453 1 1.005 1s.999-.496.999-1.049q.047-1.13.048-2.451c0-2.037-.095-3.733-.22-5.083-.156-1.69-.235-2.534-1.231-3.55s-1.736-1.098-3.213-1.263A17 17 0 0 0 10.5 2a17 17 0 0 0-1.836.104c-1.477.165-2.216.247-3.213 1.263s-1.075 1.86-1.231 3.55A55 55 0 0 0 4 12c0 2.037.095 3.733.22 5.084.156 1.689.235 2.533 1.231 3.549.997 1.015 1.735 1.098 3.212 1.263.571.064 1.188.104 1.837.104.65 0 1.266-.04 1.837-.104h.003l.325-.037a1.002 1.002 0 1 0-.347-1.973l-.203.023c-.505.056-1.047.091-1.615.091s-1.11-.035-1.615-.091c-.803-.09-1.118-.135-1.363-.219-.146-.05-.322-.13-.643-.458-.29-.296-.38-.482-.442-.692-.095-.32-.141-.732-.226-1.64"/><path d="M8 7a1 1 0 0 1 1-1h3a1 1 0 1 1 0 2H9a1 1 0 0 1-1-1m9.707 13.707 4.5-4.5a1 1 0 0 0-1.414-1.414L17 18.586l-1.293-1.293a1 1 0 0 0-1.414 1.414l2 2a1 1 0 0 0 1.414 0"/></svg>