<svg xmlns="http://www.w3.org/2000/svg" viewBox="0 0 24 24"><path fill-rule="evenodd" d="M4 12c0 2.037.095 3.733.22 5.084.156 1.689.235 2.533 1.231 3.549.997 1.015 1.735 1.098 3.212 1.263.571.064 1.188.104 1.837.104.65 0 1.266-.04 1.837-.104.819-.091 1.41-.158 1.945-.371l-1.403-1.404a3 3 0 0 1 4.01-4.452C16.956 14.604 17 13.38 17 12c0-2.037-.095-3.733-.22-5.083-.156-1.69-.235-2.534-1.231-3.55s-1.736-1.098-3.213-1.263A17 17 0 0 0 10.5 2a17 17 0 0 0-1.836.104c-1.477.165-2.216.247-3.213 1.263s-1.075 1.86-1.231 3.55A55 55 0 0 0 4 12m5-7a1 1 0 0 0 0 2h3a1 1 0 1 0 0-2z"/><path d="M22.207 16.207a1 1 0 0 0-1.414-1.414L17 18.586l-1.293-1.293a1 1 0 0 0-1.414 1.414l2 2a1 1 0 0 0 1.414 0z"/></svg>