<svg xmlns="http://www.w3.org/2000/svg" viewBox="0 0 16 16"><path fill-rule="evenodd" d="M3.082 6.25h1.974a1.75 1.75 0 0 1 2.626-1.661h.001l.002.002.007.004.024.014a17 17 0 0 1 .379.229c.24.148.565.355.896.582.321.221.693.493 1.002.769.15.135.335.314.496.525.106.14.461.613.461 1.286s-.355 1.146-.461 1.286c-.161.211-.346.39-.496.525-.309.277-.68.548-1.002.769a23 23 0 0 1-1.274.811l-.025.014-.007.005h-.002l-.001.002A1.75 1.75 0 0 1 5.056 9.75H3.081c.117 1.507.23 2.316 1.043 3.128.874.874 1.745.94 3.487 1.07.454.033.921.054 1.39.054.467 0 .935-.02 1.388-.055 1.743-.13 2.614-.195 3.488-1.069s.94-1.745 1.07-3.488c.033-.453.054-.92.054-1.389 0-.467-.021-.935-.055-1.389-.13-1.742-.195-2.613-1.069-3.487s-1.745-.94-3.488-1.07A19 19 0 0 0 9 2.002c-.468 0-.935.02-1.389.055-1.742.13-2.613.195-3.487 1.069-.812.811-.926 1.62-1.042 3.125M6 9.906a.75.75 0 0 0 1.136.643l.056-.033C9.064 9.392 10 8.83 10 8s-.936-1.392-2.808-2.515l-.056-.034a.75.75 0 1 0-.772 1.287l.056.033c.313.188.554.332.73.479h-5.4a.75.75 0 1 0 0 1.5h5.401c-.176.146-.417.291-.73.48l-.057.033A.75.75 0 0 0 6 9.906"/></svg>