<svg xmlns="http://www.w3.org/2000/svg" viewBox="0 0 44 44"><path fill-rule="evenodd" d="M15.528 17.5H8.2c.29-4.037.613-6.232 2.84-8.46 2.429-2.428 4.819-2.592 9.6-2.92C21.74 6.046 22.87 6 24 6s2.26.045 3.36.12c4.781.328 7.172.492 9.6 2.92s2.592 4.82 2.92 9.6c.075 1.1.12 2.23.12 3.36s-.045 2.26-.12 3.36c-.328 4.781-.492 7.172-2.92 9.6s-4.819 2.592-9.6 2.92c-1.1.075-2.23.12-3.36.12s-2.26-.045-3.36-.12c-4.781-.328-7.171-.492-9.6-2.92-2.227-2.227-2.55-4.423-2.84-8.46h7.328a4.5 4.5 0 0 0 6.606 4.462h.001l.002-.002.007-.003.02-.011.066-.036.233-.129a56 56 0 0 0 3.25-1.952c.876-.573 1.9-1.29 2.753-2.044.418-.37.928-.864 1.367-1.456C30.175 24.869 31 23.67 31 22s-.825-2.868-1.167-3.329a9.7 9.7 0 0 0-1.367-1.456c-.852-.753-1.877-1.47-2.753-2.044a53 53 0 0 0-3.483-2.08l-.067-.037-.02-.01-.006-.004-.002-.001-.002-.001a4.5 4.5 0 0 0-6.605 4.462m3.151-1.211a1.5 1.5 0 0 1 2.032-.61l.002.002.005.002.016.008.058.032a40 40 0 0 1 .973.548c.624.36 1.462.86 2.306 1.411.834.545 1.717 1.17 2.407 1.78.343.303.682.641.947.998.232.313.575.858.575 1.54s-.343 1.227-.575 1.54a6.8 6.8 0 0 1-.947.998c-.69.61-1.573 1.235-2.407 1.78a50 50 0 0 1-3.279 1.959l-.058.032-.016.008-.005.003h-.001a1.5 1.5 0 0 1-1.423-2.64l.003-.002.012-.007.05-.027.197-.109a47 47 0 0 0 2.878-1.728q.234-.153.461-.307H5.5a1.5 1.5 0 1 1 0-3h17.39q-.226-.153-.46-.307a47 47 0 0 0-3.076-1.837l-.05-.027-.012-.007-.003-.001a1.5 1.5 0 0 1-.61-2.032"/></svg>