<svg xmlns="http://www.w3.org/2000/svg" viewBox="0 0 32 32"><path fill-rule="evenodd" d="M5.747 12.665h4.468a3.4 3.4 0 0 1 .278-2.158c.803-1.646 2.755-2.314 4.36-1.49h.002l.002.001.005.003.017.009.058.03q.073.037.201.106c.17.09.408.219.69.377.777.433 1.995 1.144 3.052 1.918.518.379 1.11.853 1.607 1.389.25.268.548.63.8 1.077a4.2 4.2 0 0 1 .563 2.071c0 1.573-.93 2.662-1.247 3.02-.461.523-1.009.979-1.485 1.34-.971.737-2.11 1.424-2.917 1.885a41 41 0 0 1-1.232.676l-.08.042-.024.012-.008.004-.002.002h-.002c-1.605.824-3.557.156-4.36-1.49a3.4 3.4 0 0 1-.278-2.158H5.747c.23 3.12.433 4.767 2.045 6.421 1.707 1.75 3.407 1.88 6.808 2.14.882.067 1.79.108 2.7.108s1.819-.04 2.7-.108c3.401-.26 5.102-.39 6.808-2.14 1.707-1.75 1.834-3.494 2.087-6.982.065-.905.105-1.837.105-2.77s-.04-1.865-.105-2.77c-.253-3.488-.38-5.232-2.087-6.982-1.706-1.75-3.407-1.88-6.808-2.14A36 36 0 0 0 17.3 4c-.91 0-1.818.04-2.7.108-3.4.26-5.101.39-6.808 2.14-1.612 1.653-1.814 3.3-2.045 6.417m6.353 7.44c0 1.017 1.063 1.653 1.922 1.17l.047-.028.355-.218c3.65-2.247 5.476-3.37 5.476-5.031s-1.825-2.784-5.476-5.03l-.355-.22-.047-.027c-.859-.483-1.922.153-1.922 1.171 0 .468.24.902.63 1.143l.356.22c.91.558 1.65 1.016 2.255 1.409H4.3c-.718 0-1.3.597-1.3 1.333s.582 1.333 1.3 1.333h11.044a116 116 0 0 1-2.258 1.412l-.355.219a1.34 1.34 0 0 0-.631 1.143"/></svg>