<svg xmlns="http://www.w3.org/2000/svg" viewBox="0 0 16 16"><path fill-rule="evenodd" d="M9 3.501c-.424 0-.855.019-1.277.05-1.843.138-2.12.215-2.539.634-.308.309-.432.54-.53 1.375a.77.77 0 0 1-.76.69.736.736 0 0 1-.739-.81c.114-1.012.316-1.663.969-2.315.874-.874 1.745-.94 3.487-1.07.454-.033.921-.054 1.39-.054.467 0 .935.02 1.388.055 1.743.13 2.614.195 3.488 1.069s.94 1.745 1.07 3.487c.033.454.054.922.054 1.39s-.021.935-.055 1.388c-.13 1.743-.195 2.614-1.069 3.488s-1.745.94-3.488 1.07c-.453.033-.92.054-1.389.054s-.935-.02-1.389-.055c-1.742-.13-2.613-.195-3.487-1.069-.653-.653-.855-1.304-.97-2.318a.736.736 0 0 1 .74-.81c.392 0 .714.3.76.69.098.837.221 1.069.53 1.378.42.419.696.496 2.539.633.422.032.853.05 1.277.05.425 0 .855-.018 1.278-.05 1.843-.137 2.12-.214 2.538-.633.42-.42.497-.696.634-2.54.032-.422.05-.852.05-1.277s-.018-.854-.05-1.277c-.137-1.843-.214-2.12-.634-2.539-.419-.419-.695-.496-2.538-.634-.423-.031-.853-.05-1.278-.05M6 9.906a.75.75 0 0 0 1.136.643l.056-.033C9.064 9.392 10 8.83 10 8s-.936-1.392-2.808-2.515l-.056-.034a.75.75 0 1 0-.772 1.287l.056.033c.313.188.554.332.73.479h-5.4a.75.75 0 1 0 0 1.5h5.401c-.176.146-.417.291-.73.48l-.057.033A.75.75 0 0 0 6 9.906"/></svg>