<svg xmlns="http://www.w3.org/2000/svg" viewBox="0 0 24 24"><path fill-rule="evenodd" d="M4.113 9.5H7.55a2.5 2.5 0 0 1 3.568-2.736h.001l.002.001.004.002.013.007.044.022a24 24 0 0 1 .686.362c.598.326 1.534.859 2.348 1.44.398.283.854.64 1.236 1.04.191.202.422.474.615.809.185.319.433.86.433 1.553 0 1.18-.716 1.996-.96 2.265a8 8 0 0 1-1.14 1.005c-.747.553-1.623 1.068-2.244 1.414a32 32 0 0 1-.948.507l-.062.031-.018.01-.006.002-.002.001-.001.001A2.5 2.5 0 0 1 7.55 14.5H4.113c.178 2.339.333 3.575 1.573 4.816 1.313 1.312 2.621 1.41 5.237 1.604.678.05 1.378.081 2.078.081.699 0 1.399-.03 2.077-.08 2.616-.195 3.924-.293 5.236-1.605 1.313-1.313 1.41-2.621 1.605-5.237C21.97 13.4 22 12.7 22 12s-.03-1.399-.08-2.077c-.195-2.616-.293-3.924-1.606-5.237-1.312-1.312-2.62-1.41-5.236-1.604A28 28 0 0 0 13 3c-.7 0-1.4.031-2.078.082-2.616.194-3.924.292-5.237 1.604-1.24 1.24-1.395 2.476-1.573 4.813M9 15.08a1 1 0 0 0 1.515.857l.273-.164C13.596 14.088 15 13.246 15 12s-1.404-2.088-4.212-3.773l-.274-.164-.035-.02a1 1 0 0 0-.993 1.735l.273.164c.699.42 1.269.763 1.734 1.057H3a1 1 0 1 0 0 2h8.496a92 92 0 0 1-1.737 1.059l-.274.164a1 1 0 0 0-.485.857"/></svg>