<svg xmlns="http://www.w3.org/2000/svg" viewBox="0 0 32 32"><path d="M15.5 12.257c0-1.046 1.168-1.633 1.991-.988l.675.528v.001l.962.754c1.82 1.43 2.694 2.143 2.84 3.075a2.4 2.4 0 0 1 0 .746c-.146.931-1.02 1.646-2.84 3.075l-.962.754-.675.529c-.823.644-1.991.058-1.991-.988 0-.396.183-.77.496-1.015l.627-.492.96-.754q.159-.123.291-.229H10.75a1.25 1.25 0 1 1 0-2.498h7.134q-.137-.11-.3-.237l-.96-.754-.628-.492a1.29 1.29 0 0 1-.496-1.015"/><path fill-rule="evenodd" d="M28.917 13.818c-.186-2.53-.278-3.796-2.016-5.546s-3.094-1.859-5.805-2.077A64 64 0 0 0 15.998 6a1.6 1.6 0 0 1-1.133-.466l-.6-.601c-.365-.365-.548-.547-.739-.706a5.33 5.33 0 0 0-2.907-1.204C10.37 3 10.113 3 9.598 3c-1.177 0-1.765 0-2.255.092A5.33 5.33 0 0 0 3.09 7.345c-.093.49-.093 1.078-.093 2.255v6.346c0 .76.03 1.545.081 2.238.186 2.53.279 3.795 2.017 5.544 1.737 1.75 3.092 1.859 5.802 2.076 1.461.118 3.162.196 5.1.196s3.638-.078 5.098-.195c2.711-.218 4.067-.327 5.805-2.077s1.83-3.015 2.016-5.546a30 30 0 0 0 0-4.364M5.572 18.001a29 29 0 0 1-.074-2.05V9.6c0-1.29.011-1.59.05-1.792A2.83 2.83 0 0 1 7.805 5.55c.203-.038.501-.049 1.792-.049.562 0 .683.003.788.012a2.83 2.83 0 0 1 1.545.64c.08.067.168.151.566.549l.6.6A4.1 4.1 0 0 0 15.999 8.5c1.87 0 3.503.075 4.898.187 1.44.116 2.156.186 2.738.363.443.136.87.356 1.493.984.644.648.854 1.064.976 1.458.162.523.222 1.159.32 2.51a27 27 0 0 1 0 3.997c-.098 1.35-.158 1.986-.32 2.51-.122.392-.332.809-.976 1.457-.623.628-1.05.848-1.493.984-.582.177-1.298.247-2.738.363a61 61 0 0 1-4.898.187 61 61 0 0 1-4.9-.188c-1.439-.115-2.155-.185-2.736-.362-.443-.136-.87-.356-1.493-.983-.644-.649-.854-1.065-.976-1.458-.162-.523-.222-1.158-.32-2.508"/></svg>