<svg xmlns="http://www.w3.org/2000/svg" viewBox="0 0 24 24"><path fill-rule="evenodd" d="M19.901 11h.052a1.017 1.017 0 0 0 .966-1.077c-.195-2.616-.292-3.924-1.605-5.237s-2.62-1.41-5.237-1.605l-.034-.002A1.017 1.017 0 0 0 13 4.047V9c0 .943 0 1.414.293 1.707S14.057 11 15 11zM17.9 6.1c.603.603.774 1.066.938 2.9H15V5.162c1.834.164 2.297.335 2.9.938m1.414 13.214c-1.313 1.313-2.62 1.41-5.237 1.605l-.034.002A1.017 1.017 0 0 1 13 19.953V15c0-.943 0-1.414.293-1.707S14.057 13 15 13h4.953a1.017 1.017 0 0 1 .966 1.077c-.195 2.616-.292 3.924-1.605 5.237M15 15h3.838c-.164 1.834-.335 2.297-.938 2.9s-1.066.774-2.9.938zM11 4.047V9c0 .943 0 1.414-.293 1.707S9.943 11 9 11H4.047a1.017 1.017 0 0 1-.966-1.077c.195-2.616.292-3.924 1.605-5.237s2.62-1.41 5.237-1.605l.034-.002A1.017 1.017 0 0 1 11 4.047M9 5.162c-1.834.164-2.297.335-2.9.938S5.326 7.166 5.162 9H9zM4.099 13h-.052a1.017 1.017 0 0 0-.966 1.077c.195 2.616.292 3.924 1.605 5.237s2.62 1.41 5.237 1.605l.034.002A1.017 1.017 0 0 0 11 19.901V15c0-.943 0-1.414-.293-1.707S9.943 13 9 13zM6.1 17.9c-.603-.603-.774-1.066-.938-2.9H9v3.838c-1.834-.164-2.297-.335-2.9-.938"/></svg>