<svg xmlns="http://www.w3.org/2000/svg" viewBox="0 0 24 24"><path fill-rule="evenodd" d="M19.901 11h.052a1.017 1.017 0 0 0 .966-1.077c-.195-2.616-.292-3.924-1.605-5.237s-2.62-1.41-5.237-1.605l-.034-.002A1.017 1.017 0 0 0 13 4.047V9c0 .943 0 1.414.293 1.707S14.057 11 15 11zm-.587 8.314c-1.313 1.313-2.62 1.41-5.237 1.605l-.034.002A1.017 1.017 0 0 1 13 19.953V15c0-.943 0-1.414.293-1.707S14.057 13 15 13h4.953a1.017 1.017 0 0 1 .966 1.077c-.195 2.616-.292 3.924-1.605 5.237M11 4.047V9c0 .943 0 1.414-.293 1.707S9.943 11 9 11H4.047a1.017 1.017 0 0 1-.966-1.077c.195-2.616.292-3.924 1.605-5.237s2.62-1.41 5.237-1.605l.034-.002A1.017 1.017 0 0 1 11 4.047M4.099 13h-.052a1.017 1.017 0 0 0-.966 1.077c.195 2.616.292 3.924 1.605 5.237s2.62 1.41 5.237 1.605l.034.002A1.017 1.017 0 0 0 11 19.901V15c0-.943 0-1.414-.293-1.707S9.943 13 9 13z"/></svg>