<svg xmlns="http://www.w3.org/2000/svg" viewBox="0 0 44 44"><path d="M19.21 6.786c1.118-.454 1.677-.68 2.253-.753a4.4 4.4 0 0 1 1.074 0c.576.072 1.136.299 2.253.753l1.212.49c2.855 1.156 5.713 2.312 8.503 3.658 1.69.815 3.846 1.855 3.447 4.261-.346 2.082-2.12 2.354-3.759 2.538q-.223.026-.46.047l.004.055v.001c.156 2.168.263 4.724.263 7.664 0 1.616-.032 3.116-.087 4.5H28v-8a1.5 1.5 0 0 0-3 0v8h-6v-8a1.5 1.5 0 0 0-3 0v8h-5.913A113 113 0 0 1 10 25.5c0-2.94.107-5.495.263-7.663l.004-.057a23 23 0 0 1-.46-.047c-1.64-.184-3.413-.456-3.759-2.538-.399-2.406 1.757-3.446 3.447-4.261 2.79-1.346 5.648-2.502 8.503-3.657zM38 36.5a1.5 1.5 0 0 0-1.5-1.5h-.585q.084-.236.085-.5a1.5 1.5 0 0 0-1.5-1.5h-25a1.5 1.5 0 0 0-1.415 2H7.5a1.5 1.5 0 0 0 0 3h29a1.5 1.5 0 0 0 1.5-1.5"/></svg>