<svg xmlns="http://www.w3.org/2000/svg" viewBox="0 0 24 24"><path d="M10.43 3.458c.63-.264.944-.397 1.268-.439q.301-.038.604 0c.324.042.639.175 1.268.44l.681.286c1.607.674 3.214 1.348 4.783 2.133.95.476 2.163 1.082 1.939 2.486-.195 1.214-1.192 1.373-2.114 1.48l-.013.002.006.089A57 57 0 0 1 18.966 16H15.5v-4a1 1 0 1 0-2 0v4h-3v-4a1 1 0 1 0-2 0v4H5.034a58 58 0 0 1 .114-6.065l.006-.09h-.013c-.922-.108-1.92-.267-2.114-1.481-.224-1.404.988-2.01 1.94-2.486 1.568-.785 3.176-1.46 4.782-2.133zM20 19a1 1 0 1 1 0 2H4a1 1 0 1 1 0-2 1 1 0 0 1 1-1h14a1 1 0 0 1 1 1"/></svg>