<svg xmlns="http://www.w3.org/2000/svg" viewBox="0 0 16 16"><path fill-rule="evenodd" d="M1.594 4.675C1.724 3.437 2.6 2.41 3.826 2.192A11 11 0 0 1 5.75 2c.642 0 1.319.084 1.924.192 1.225.22 2.102 1.245 2.232 2.483.043.409.084.861.116 1.339.597.456.982 1.176.982 1.986q-.002.457-.033.875c-.075 1.01-.113 1.515-.808 2.214-.313.315-.595.497-.91.61l.344.732a.75.75 0 1 1-1.357.638l-.537-1.14c-.565.043-1.22.07-1.955.07s-1.386-.027-1.952-.07l-.536 1.14a.75.75 0 1 1-1.357-.638l.344-.732c-.315-.113-.598-.295-.91-.61-.695-.7-.733-1.204-.808-2.214Q.497 8.458.496 8c0-.81.385-1.53.981-1.986.033-.478.074-.93.117-1.34M4.09 3.669A10 10 0 0 1 5.75 3.5c.523 0 1.104.07 1.66.169.51.09.938.528 1.004 1.162q.048.456.09.974C7.46 6.175 6.873 7.09 6.72 8H4.78c-.155-.91-.742-1.824-1.783-2.195q.04-.516.089-.974c.066-.634.494-1.071 1.004-1.162m-.73 5.194a.683.683 0 0 0 .676.637h3.427a.683.683 0 0 0 .676-.637q.022-.292.047-.522c.057-.533.378-.997.893-1.147l.013-.003c.25.181.411.476.411.809q0 .397-.028.764c-.042.555-.064.746-.108.89-.02.064-.055.163-.268.377-.199.2-.3.24-.389.267-.17.053-.398.078-.992.126a25 25 0 0 1-1.97.076c-.754 0-1.41-.03-1.966-.076-.594-.048-.822-.073-.993-.126-.088-.027-.19-.066-.389-.267-.212-.214-.247-.313-.267-.378-.045-.143-.067-.334-.108-.89Q1.997 8.398 1.996 8a1 1 0 0 1 .412-.81l.013.004c.515.15.836.614.893 1.147q.024.23.047.522"/><path d="M13.188 2.496a.75.75 0 0 0-.73.574q-.048.206-.085.379c-.115.533-.184.852-.621 1.24A.75.75 0 0 0 12.25 6H13v6h-.25a.75.75 0 0 0 0 1.5h2a.75.75 0 0 0 0-1.5h-.25V6h.752a.75.75 0 0 0 .498-1.31c-.437-.389-.506-.708-.621-1.241q-.036-.173-.086-.38a.75.75 0 0 0-.729-.573z"/></svg>