<svg xmlns="http://www.w3.org/2000/svg" viewBox="0 0 24 24"><path fill-rule="evenodd" d="M7.352 3.264c-1.762.326-2.99 1.825-3.18 3.607a58 58 0 0 0-.154 1.652A4.01 4.01 0 0 0 1.996 12a17 17 0 0 0 .05 1.318c.115 1.51.172 2.264 1.213 3.31.465.468.885.74 1.354.91l-.507 1.015a1 1 0 1 0 1.788.895l.79-1.58a42 42 0 0 0 6.632 0l.79 1.58a1 1 0 1 0 1.788-.895l-.508-1.017c.468-.17.888-.441 1.352-.908 1.04-1.046 1.098-1.801 1.212-3.311q.048-.629.05-1.317a4 4 0 0 0-2.016-3.474c-.046-.588-.1-1.146-.154-1.655-.191-1.782-1.418-3.28-3.18-3.607A15 15 0 0 0 10 3c-.917 0-1.835.114-2.648.264m.363 1.967c-.78.144-1.446.832-1.555 1.853a56 56 0 0 0-.151 1.63c1.228.714 1.876 2.07 1.993 3.287H12c.117-1.218.765-2.573 1.993-3.287a57 57 0 0 0-.15-1.63c-.11-1.021-.776-1.709-1.556-1.853A13 13 0 0 0 10 5c-.762 0-1.552.095-2.286.23M3.996 12c0-.677.336-1.275.85-1.637.676.314 1.087 1.01 1.161 1.783q.04.406.076.904c.04.532.477.95 1.01.95h5.815c.533 0 .97-.418 1.01-.95q.036-.498.076-.904c.074-.772.484-1.467 1.158-1.781.513.362.848.959.848 1.634q-.002.607-.045 1.166c-.062.822-.096 1.138-.173 1.384-.045.143-.121.325-.463.668-.322.324-.508.408-.688.463-.29.088-.666.128-1.552.2-.868.071-1.896.12-3.08.12-1.186 0-2.214-.05-3.083-.12-.885-.072-1.26-.112-1.55-.2-.18-.055-.367-.14-.689-.463-.341-.343-.418-.525-.463-.668-.076-.245-.11-.56-.173-1.383A16 16 0 0 1 3.996 12"/><path d="M19.75 3.5a1 1 0 0 0-.978.79q-.062.296-.11.55c-.156.814-.258 1.342-.87 1.953A1 1 0 0 0 18.5 8.5h1V18H19a1 1 0 1 0 0 2h3a1 1 0 1 0 0-2h-.5V8.5h1a1 1 0 0 0 .707-1.707c-.71-.71-.806-1.36-.95-2.32l-.018-.122a1 1 0 0 0-.989-.851z"/></svg>