<svg xmlns="http://www.w3.org/2000/svg" viewBox="0 0 44 44"><path fill-rule="evenodd" d="M37 37V9.44c0-1.621 0-2.432-.504-2.937C35.99 6 35.18 6 33.556 6H21.039c-1.623 0-2.435 0-2.94.504-.504.505-.504 1.316-.504 2.938V37zm-5.888-22.878c-.04-.516-.06-.774-.305-1.023-.244-.248-.448-.268-.856-.306a2.6 2.6 0 0 0-.494 0c-.408.038-.612.058-.856.306-.245.25-.265.507-.305 1.023-.026.33-.045.705-.045 1.08s.02.751.045 1.08c.04.517.06.775.305 1.024.244.248.448.268.856.306a2.6 2.6 0 0 0 .494 0c.408-.038.612-.058.856-.306.245-.25.265-.507.305-1.023.026-.33.045-.705.045-1.08s-.02-.751-.045-1.08m-5.148 5.759c.244.249.264.507.304 1.023.026.33.046.705.046 1.08s-.02.75-.046 1.08c-.04.516-.06.774-.304 1.023-.245.249-.449.268-.857.307a2.6 2.6 0 0 1-.494 0c-.407-.039-.611-.058-.856-.307s-.265-.507-.305-1.023c-.025-.33-.045-.705-.045-1.08s.02-.75.045-1.08c.04-.516.06-.774.305-1.023s.448-.268.856-.307a2.6 2.6 0 0 1 .494 0c.408.039.612.058.857.307"/><path d="M7.007 37h7.68V15.206c-.706.466-1.504 1.267-2.636 2.402l-4.486 4.498c-2.61 2.617-3.915 3.926-3.484 5.05.315.824 1.365 1.045 3.318 1.104a7 7 0 0 0-.056.464C7.166 30.774 7 33.402 7 36.031q0 .486.007.969"/></svg>