<svg xmlns="http://www.w3.org/2000/svg" viewBox="0 0 24 24"><path fill-rule="evenodd" d="M21 20.5V4.998c0-.941 0-1.412-.293-1.705S19.943 3 19.001 3h-7.002c-.942 0-1.413 0-1.706.293S10 4.057 10 4.998V20.5zM17.966 7.803c-.027-.303-.04-.454-.176-.595s-.265-.158-.523-.19a2 2 0 0 0-.533 0c-.259.032-.388.049-.524.19-.136.14-.149.292-.176.595-.019.21-.034.454-.034.697s.015.486.034.697c.027.303.04.454.176.595s.265.158.524.19a2 2 0 0 0 .533 0c.258-.032.387-.049.523-.19.136-.14.15-.292.176-.595.02-.21.034-.454.034-.697s-.015-.486-.034-.697m-3.176 3.405c.136.14.15.292.176.595.02.21.034.454.034.697s-.015.486-.034.697c-.026.303-.04.454-.176.595s-.265.158-.523.19a2 2 0 0 1-.533 0c-.258-.032-.388-.049-.524-.19-.136-.14-.149-.292-.176-.595A8 8 0 0 1 13 12.5a8 8 0 0 1 .034-.697c.027-.303.04-.454.176-.595s.265-.158.524-.19a2 2 0 0 1 .533 0c.258.032.387.049.523.19"/><path d="M4 20.5h4V9.302c-.246.22-.523.485-.846.796L4.56 12.585c-1.509 1.447-2.263 2.17-2.014 2.793.168.42.7.557 1.671.6l-.01.106A53 53 0 0 0 4 20.5"/></svg>