<svg xmlns="http://www.w3.org/2000/svg" viewBox="0 0 32 32"><path fill-rule="evenodd" d="M28 26.999V6.664c0-1.256 0-1.884-.39-2.274-.391-.391-1.02-.391-2.276-.391h-9.668c-1.257 0-1.885 0-2.276.39C13 4.78 13 5.409 13 6.665V27zm-4.043-16.94c-.034-.401-.05-.602-.233-.792-.183-.189-.348-.21-.68-.25a2.5 2.5 0 0 0-.589 0c-.33.04-.496.061-.679.25-.182.19-.2.39-.233.792-.024.283-.043.612-.043.94s.019.657.043.94c.034.401.05.602.233.792s.348.21.68.25a2.5 2.5 0 0 0 .589 0c.33-.04.496-.06.679-.25.182-.19.2-.39.233-.792.024-.283.043-.612.043-.94s-.019-.657-.043-.94m-4.233 5.209c.182.189.2.39.233.79.024.284.043.613.043.941s-.019.657-.043.94c-.034.401-.05.602-.233.792s-.348.21-.68.25a2.5 2.5 0 0 1-.589 0c-.33-.04-.496-.06-.679-.25-.182-.19-.2-.39-.233-.792A11 11 0 0 1 17.5 17c0-.328.019-.657.043-.94.034-.401.05-.602.233-.792.183-.189.348-.21.68-.25a2.5 2.5 0 0 1 .589 0c.33.04.496.061.679.25"/><path d="M5 26.999h5.5V12.315c-.256.239-.536.51-.85.814l-3.427 3.317c-1.993 1.93-2.99 2.894-2.661 3.723.194.49.752.69 1.742.773q-.012.097-.02.195A67 67 0 0 0 5 26.999"/></svg>