<svg xmlns="http://www.w3.org/2000/svg" viewBox="0 0 24 24"><path d="M19.076 7.972a.97.97 0 0 0 .665-1.034c-.177-1.393-.496-2.321-1.427-3.252-1.313-1.313-2.62-1.41-5.237-1.605A28 28 0 0 0 11 2c-.7 0-1.4.03-2.077.081-2.616.195-3.924.292-5.237 1.605s-1.41 2.62-1.605 5.237C2.031 9.6 2 10.3 2 11s.03 1.399.081 2.077c.195 2.616.292 3.924 1.605 5.237s2.62 1.41 5.237 1.605l.257.018c.56.034 1.06-.435 1.06-.997v-.002c0-.54-.394-.96-.932-.997l-.036-.002-.2-.015C6.32 17.72 5.805 17.606 5.1 16.9s-.82-1.22-1.024-3.971A26 26 0 0 1 4 11c0-.642.028-1.292.076-1.929.204-2.75.318-3.265 1.024-3.97.706-.707 1.22-.82 3.971-1.025A26 26 0 0 1 11 4c.642 0 1.292.028 1.929.076 2.75.204 3.265.318 3.97 1.024.491.49.696.889.844 2.009.085.641.72 1.068 1.333.863"/><path d="M10.999 6A1 1 0 0 0 10 7v3.588l-1.705 1.705a1 1 0 1 0 1.414 1.414l2-1.999a1 1 0 0 0 .291-.751V7a1 1 0 0 0-.999-1z"/><path fill-rule="evenodd" d="M17.31 10.027c-.505 0-.979 0-1.367.052-.431.058-.903.196-1.292.586-.39.39-.528.86-.586 1.293-.052.387-.052.86-.052 1.365v1.72h-.763a1 1 0 1 0 0 2h.763v.893h-.763a1 1 0 1 0 0 2h.763v.96a1 1 0 0 0 2 0v-.96h2.997a1 1 0 1 0 0-2h-2.997v-.892h2.362q.435-.001.829-.02c1.76-.08 3.569-1.256 3.569-3.382 0-2.207-1.875-3.54-3.785-3.605q-.295-.01-.613-.01zm-1.297 5.017h2.362q.387 0 .737-.018c1.067-.049 1.66-.665 1.66-1.384 0-.85-.717-1.567-1.852-1.606q-.264-.01-.545-.01H17.37c-.584 0-.921.003-1.16.035q-.099.015-.137.026-.011.038-.026.137c-.032.239-.034.576-.034 1.16z"/></svg>