<svg xmlns="http://www.w3.org/2000/svg" viewBox="0 0 16 16"><path d="M8 2.747c0 .39-.3.713-.689.755-1.058.114-1.319.237-1.644.566-.304.307-.428.546-.524 1.4.125-.114.26-.26.426-.437l.041-.045a.69.69 0 0 1 .621-.215c.569.098.796.832.393 1.266l-.042.045c-1.256 1.35-1.884 2.024-2.594 1.901-.71-.122-1.103-.973-1.886-2.674l-.026-.057c-.252-.547.185-1.166.753-1.068.228.04.424.193.525.412l.025.057c.107.23.193.418.28.57.114-.954.324-1.586.942-2.21.688-.695 1.407-.887 2.587-1.01A.74.74 0 0 1 8 2.748"/><path fill-rule="evenodd" d="M11 11h3.331a.667.667 0 0 0 .489-1.12L14 9V7.667c0-1.257 0-1.886-.39-2.276C13.218 5 12.59 5 11.332 5h-.667C9.41 5 8.781 5 8.39 5.39 8 5.782 8 6.41 8 7.668V8h-.334C6.41 8 5.781 8 5.39 8.39 5 8.782 5 9.41 5 10.668V12l-.82.88A.667.667 0 0 0 4.667 14h6.663a.667.667 0 0 0 .489-1.12L11 12zm.333-4.5h-.667c-.568 0-.907.002-1.144.023-.02.236-.022.576-.022 1.144v.353c.527.035.865.126 1.11.37.156.157.25.352.306.61H12.5V7.667c0-.568-.003-.908-.023-1.144-.236-.02-.576-.023-1.144-.023M6.5 10.667V12h3v-1.333c0-.568-.003-.908-.023-1.144-.236-.02-.576-.023-1.144-.023h-.667c-.568 0-.907.002-1.144.023-.02.236-.022.576-.022 1.144"/></svg>