<svg xmlns="http://www.w3.org/2000/svg" viewBox="0 0 24 24"><path d="M14.475 5.477c.89 0 1.337-1.077.707-1.707l-1.768-1.768c-.666-.667-1-1-1.414-1s-.748.333-1.414 1L8.818 3.77c-.63.63-.184 1.707.707 1.707a1 1 0 0 0 .707-.293l.354-.354q.227-.228.41-.404V10a1 1 0 0 0 2 0V4.418q.187.18.418.412l.354.354a1 1 0 0 0 .707.293m-10.768 4.73C3.077 10.837 2 10.391 2 9.5V7c0-.943 0-1.414.293-1.707S3.057 5 4 5h2.5c.89 0 1.337 1.077.707 1.707A1 1 0 0 1 6.5 7H6q-.322 0-.576.003l2.29 2.29a1 1 0 1 1-1.415 1.414L4.006 8.414h-.002Q3.999 8.67 4 9v.5a1 1 0 0 1-.293.707m16.586 0c.63.63 1.707.184 1.707-.707V7c0-.943 0-1.414-.293-1.707S20.943 5 20 5h-2.5c-.89 0-1.337 1.077-.707 1.707A1 1 0 0 0 17.5 7h.5q.322 0 .576.003l-2.29 2.29a1 1 0 1 0 1.415 1.414l2.293-2.293h.002q.005.257.004.586v.5a1 1 0 0 0 .293.707"/><path fill-rule="evenodd" d="M3.816 13.016C4.33 12.55 4.84 12.5 6.87 12.5h10.258c2.03 0 2.54.05 3.056.516.301.272.432.497.521.781.108.346.157.781.235 1.547q.057.546.059 1.13c0 .685-.068 1.328-.167 1.9-.098.565-.152.855-.246 1.094-.076.193-.189.378-.467.637-.462.43-.768.486-2.08.619-1.448.145-3.464.276-6.04.276s-4.593-.13-6.04-.276c-1.312-.133-1.617-.189-2.08-.62-.278-.258-.39-.443-.466-.636-.094-.238-.149-.528-.247-1.092A11.3 11.3 0 0 1 3 16.474q.002-.586.06-1.131c.078-.766.126-1.2.234-1.546.089-.284.22-.51.522-.781M8.75 16.5a1.25 1.25 0 1 1-2.5 0 1.25 1.25 0 0 1 2.5 0"/></svg>