<svg xmlns="http://www.w3.org/2000/svg" viewBox="0 0 24 24"><path d="M14.475 5.477c.89 0 1.337-1.077.707-1.707l-1.768-1.768c-.666-.667-1-1-1.414-1s-.748.333-1.414 1L8.818 3.77c-.63.63-.184 1.707.707 1.707a1 1 0 0 0 .707-.293l.354-.354q.227-.228.41-.404V9a1 1 0 0 0 2 0V4.418q.187.18.418.412l.354.354a1 1 0 0 0 .707.293m-10.768 4.73C3.077 10.837 2 10.391 2 9.5V7c0-.943 0-1.414.293-1.707S3.057 5 4 5h2.5c.89 0 1.337 1.077.707 1.707A1 1 0 0 1 6.5 7H6q-.322 0-.576.003l1.29 1.29a1 1 0 1 1-1.415 1.414L4.006 8.414h-.002Q3.999 8.67 4 9v.5a1 1 0 0 1-.293.707M9.25 16a1.25 1.25 0 1 1-2.5 0 1.25 1.25 0 0 1 2.5 0"/><path fill-rule="evenodd" d="M3.12 17.6c.154 1.045.23 1.567.983 2.28.752.714 1.388.774 2.661.894C8.07 20.896 9.817 21 12 21s3.93-.104 5.235-.226c1.274-.12 1.91-.18 2.663-.893s.829-1.237.983-2.283a11 11 0 0 0 .084-2.481c-.128-1.679-.192-2.518-1.054-3.317s-1.918-.8-4.028-.8H8.117c-2.11 0-3.164 0-4.027.8-.863.799-.927 1.638-1.055 3.316Q3 15.555 3 16c0 .57.047 1.109.12 1.6m1.91-2.332Q5 15.639 5 16c0 .462.038.901.098 1.307.04.274.067.453.097.604.028.142.05.21.063.246.007.02.031.092.221.273.157.149.227.173.314.198.193.056.46.089 1.158.154C8.195 18.9 9.881 19 12 19s3.804-.1 5.048-.218c.698-.065.966-.098 1.159-.154.087-.025.157-.05.314-.198.19-.18.213-.249.22-.27l.002-.003c.013-.035.035-.104.062-.246.03-.152.057-.33.097-.605a9 9 0 0 0 .069-2.037c-.07-.907-.108-1.322-.189-1.62a.66.66 0 0 0-.23-.382c-.076-.07-.157-.138-.498-.191-.446-.07-1.055-.076-2.171-.076H8.117c-1.117 0-1.725.006-2.17.076-.341.053-.423.121-.498.19a.66.66 0 0 0-.231.382c-.08.298-.12.713-.189 1.62"/><path d="M22 9.5c0 .89-1.077 1.337-1.707.707A1 1 0 0 1 20 9.5V9q.001-.329-.004-.586h-.002l-1.293 1.293a1 1 0 0 1-1.414-1.414l1.29-1.29Q18.321 7 18 7h-.5a1 1 0 0 1-.707-.293C16.163 6.077 16.609 5 17.5 5H20c.943 0 1.414 0 1.707.293S22 6.057 22 7z"/></svg>