<svg xmlns="http://www.w3.org/2000/svg" viewBox="0 0 16 16"><path d="M5.718 2.485c-.466.472-.136 1.28.524 1.28a.74.74 0 0 0 .524-.22l.208-.21q.154-.157.278-.278V6.75a.75.75 0 0 0 1.5 0V3.06q.122.12.274.275l.208.21c.139.141.327.22.524.22.66 0 .99-.808.524-1.28l-1.234-1.25C8.578.76 8.344.523 8.055.502a1 1 0 0 0-.11 0c-.289.02-.523.258-.993.733zM2.275 6.78A.747.747 0 0 1 1 6.252V4.494c0-.67 0-1.004.191-1.225a1 1 0 0 1 .078-.078C1.49 3 1.824 3 2.494 3h1.758a.747.747 0 0 1 0 1.494h-.296q-.224 0-.4.002L5.28 6.22a.75.75 0 0 1-1.06 1.06L2.496 5.556q-.002.176-.002.4v.296a.75.75 0 0 1-.22.528M15 6.252a.747.747 0 1 1-1.494 0v-.297q0-.223-.002-.399L11.78 7.28a.75.75 0 1 1-1.06-1.06l1.723-1.724q-.175-.002-.399-.002h-.296a.747.747 0 0 1 0-1.494h1.758c.67 0 1.004 0 1.225.191q.04.037.078.078c.191.22.191.555.191 1.225z"/><path fill-rule="evenodd" d="M2.067 10.146c.092-.7.138-1.049.478-1.347.34-.297.763-.297 1.61-.297h7.696c.848 0 1.272 0 1.611.298.34.297.386.647.479 1.346.038.292.062.604.062.926 0 .55-.07 1.057-.162 1.487-.069.32-.103.48-.24.677-.087.125-.27.291-.404.365-.21.116-.4.137-.78.18-.978.109-2.453.219-4.413.219s-3.435-.11-4.414-.22c-.38-.041-.57-.063-.78-.18a1.4 1.4 0 0 1-.403-.364c-.138-.197-.172-.357-.24-.677a7 7 0 0 1-.163-1.487c0-.322.024-.634.063-.926m3.835 1.104a.9.9 0 1 0-1.8 0 .9.9 0 0 0 1.8 0"/></svg>