<svg xmlns="http://www.w3.org/2000/svg" viewBox="0 0 16 16"><path d="M5.718 2.485c-.466.472-.136 1.28.524 1.28a.74.74 0 0 0 .524-.22l.208-.21q.154-.157.278-.278V5.75a.75.75 0 0 0 1.5 0V3.06q.122.12.274.275l.208.21c.139.141.327.22.524.22.66 0 .99-.808.524-1.28l-1.234-1.25C8.578.76 8.344.523 8.055.502a1 1 0 0 0-.11 0c-.289.02-.523.258-.993.733zM2.275 6.78A.747.747 0 0 1 1 6.252V4.494c0-.67 0-1.004.191-1.225a1 1 0 0 1 .078-.078C1.49 3 1.824 3 2.494 3h1.758a.747.747 0 0 1 0 1.494h-.296q-.224 0-.4.002l.724.724a.75.75 0 0 1-1.06 1.06l-.724-.724q-.002.176-.002.4v.296a.75.75 0 0 1-.22.528m11.451 0A.747.747 0 0 0 15 6.252V4.494c0-.67 0-1.004-.191-1.225a1 1 0 0 0-.078-.078C14.51 3 14.176 3 13.506 3h-1.758a.747.747 0 0 0 0 1.494h.297q.224 0 .399.002l-.724.724a.75.75 0 0 0 1.06 1.06l.724-.724q.003.176.002.4v.296c0 .198.08.388.22.528m-7.493 3.887a.9.9 0 1 1-1.8 0 .9.9 0 0 1 1.8 0"/><path fill-rule="evenodd" d="M2.716 8.035C3.292 7.5 3.99 7.5 5.386 7.5h5.227c1.397 0 2.095 0 2.671.535.576.536.616 1.085.696 2.184q.02.263.02.531c0 .358-.03.696-.074 1.006-.1.684-.15 1.027-.654 1.503-.502.477-.925.516-1.771.594-.872.08-2.04.148-3.501.148s-2.63-.068-3.5-.148c-.847-.078-1.27-.117-1.772-.594-.503-.476-.553-.818-.653-1.502a7 7 0 0 1-.055-1.54c.08-1.097.12-1.647.696-2.182M10.613 9H5.387c-.745 0-1.13.004-1.408.048-.184.03-.215.06-.237.081l-.005.005a.4.4 0 0 0-.074.083.3.3 0 0 0-.032.089 2.4 2.4 0 0 0-.059.35c-.02.18-.035.388-.056.671q-.015.216-.016.423c0 .277.023.543.059.79.026.18.043.291.061.384a1 1 0 0 0 .032.128l.004.007c.007.01.033.045.104.112.055.052.084.07.092.074.006.004.016.01.048.019.04.011.107.026.233.043.131.017.284.032.504.052A37 37 0 0 0 8 12.5c1.414 0 2.537-.066 3.363-.142.22-.02.373-.035.504-.052.126-.017.194-.032.233-.043a.2.2 0 0 0 .048-.019.5.5 0 0 0 .093-.074 1 1 0 0 0 .103-.112l.004-.006v-.002a1 1 0 0 0 .032-.127c.018-.093.035-.205.061-.385a5.5 5.5 0 0 0 .043-1.211 18 18 0 0 0-.056-.672 2.4 2.4 0 0 0-.058-.35.3.3 0 0 0-.033-.089.4.4 0 0 0-.074-.083l-.005-.005c-.022-.02-.053-.051-.237-.08-.277-.045-.663-.049-1.408-.049"/></svg>