<svg xmlns="http://www.w3.org/2000/svg" viewBox="0 0 32 32"><path d="M14.593 4.472a1.5 1.5 0 0 0-1.864-.258l-5 3a1.5 1.5 0 1 0 1.543 2.572l3.964-2.378 2.025 2.151-4.475 4.475q.248-.034.503-.034a3.75 3.75 0 0 1 3.195 1.786c.195.318.718.714 1.512.714.788 0 1.306-.39 1.504-.714a3.75 3.75 0 0 1 5.5-.995v-.747a1.5 1.5 0 0 0-.407-1.072zM26.5 8a3 3 0 1 1-6 0 3 3 0 0 1 6 0"/><path d="M11.29 16.5c.434 0 .837.225 1.064.595.676 1.1 2.03 1.905 3.642 1.905s2.958-.803 3.635-1.905a1.25 1.25 0 0 1 2.13 0c.675 1.1 2.029 1.905 3.642 1.905a4.7 4.7 0 0 0 1.06-.12 1.25 1.25 0 0 1 .567 2.434 7.2 7.2 0 0 1-1.627.186c-1.814 0-3.492-.676-4.707-1.802-1.212 1.125-2.884 1.802-4.7 1.802-1.814 0-3.492-.676-4.707-1.802-1.215 1.126-2.892 1.802-4.707 1.802a7.2 7.2 0 0 1-1.617-.183 1.25 1.25 0 0 1 .563-2.436q.504.117 1.054.119c1.613 0 2.966-.805 3.642-1.905a1.25 1.25 0 0 1 1.065-.595m1.077 6.873a1.25 1.25 0 0 0-1.781 0c-.424.43-1.295.87-2.515 1.047a1.25 1.25 0 1 0 .36 2.474c1.119-.163 2.187-.518 3.045-1.059C12.682 26.596 14.322 27 16 27s3.316-.404 4.521-1.164c.86.542 1.928.897 3.05 1.06a1.25 1.25 0 0 0 .358-2.475c-1.22-.176-2.092-.616-2.517-1.048a1.25 1.25 0 0 0-1.781 0c-.565.573-1.885 1.127-3.63 1.127-1.747 0-3.07-.554-3.635-1.127"/></svg>