<svg xmlns="http://www.w3.org/2000/svg" viewBox="0 0 24 24"><path d="M9.291 3.154a1.25 1.25 0 0 1 1.493.221l6.359 6.493c.246.251.364.579.357.904l-.002.493a3 3 0 0 0-4.605.746c-.154.27-.477.489-.893.489a1.03 1.03 0 0 1-.899-.489 3 3 0 0 0-3.38-1.41l3.356-3.354L9.66 5.8 6.85 7.34a1.25 1.25 0 1 1-1.2-2.193zM20.25 6.25a2.25 2.25 0 1 1-4.5 0 2.25 2.25 0 0 1 4.5 0"/><path d="M9.365 13.004a1 1 0 0 0-1.736 0c-.505.883-1.492 1.496-2.635 1.496q-.392-.001-.753-.091a1 1 0 1 0-.482 1.94q.596.15 1.235.151a5.06 5.06 0 0 0 3.503-1.395A5.06 5.06 0 0 0 12 16.5c1.357 0 2.594-.53 3.498-1.395A5.06 5.06 0 0 0 19 16.5q.644-.002 1.243-.152a1 1 0 0 0-.485-1.94q-.363.091-.758.092c-1.143 0-2.13-.613-2.634-1.496a1 1 0 0 0-1.737 0A3.02 3.02 0 0 1 12 14.5c-1.143 0-2.13-.613-2.635-1.496m-1.526 4.743a1 1 0 0 1 1.317 0c.426.373 1.463.753 2.844.753s2.415-.38 2.842-.753a1 1 0 0 1 1.316 0c.32.279.999.58 1.966.7a1 1 0 1 1-.248 1.984c-.868-.108-1.703-.347-2.376-.721-.937.52-2.207.79-3.5.79-1.292 0-2.564-.27-3.503-.79-.672.373-1.507.612-2.372.72a1 1 0 1 1-.25-1.984c.967-.122 1.647-.421 1.964-.699"/></svg>