<svg xmlns="http://www.w3.org/2000/svg" viewBox="0 0 24 24"><path fill-rule="evenodd" d="M14.936 3.565a2.004 2.004 0 0 0-2.445 1.443l-1.507 5.822h-2.44a2.91 2.91 0 0 0-2.63-1.665A2.92 2.92 0 0 0 3 12.093a2.92 2.92 0 0 0 2.914 2.927c1.35 0 2.486-.923 2.817-2.176h1.732l-.47 1.814c-.488.046-.97.217-1.4.52a2.936 2.936 0 0 0-.706 4.08 2.905 2.905 0 0 0 4.06.708 2.936 2.936 0 0 0-.014-4.798zM10.793 18.32a.906.906 0 0 1-1.266-.221.916.916 0 0 1 .22-1.272.906.906 0 0 1 1.266.22.916.916 0 0 1-.22 1.273m-4.88-7.14c.503 0 .91.41.91.914a.91.91 0 0 1-.91.913.91.91 0 0 1-.908-.913.91.91 0 0 1 .909-.913m9.096 1.665a1.006 1.006 0 0 1-.97-1.26c.115-.444.514-.754.97-.754H21a2.01 2.01 0 0 1-2.005 2.014z"/></svg>