<svg xmlns="http://www.w3.org/2000/svg" viewBox="0 0 16 16"><path fill-rule="evenodd" d="M3.123 3.123c-.874.874-.939 1.746-1.069 3.488C2.021 7.064 2 7.532 2 8s.02.935.054 1.389c.13 1.742.195 2.613 1.07 3.487.873.874 1.744.94 3.487 1.07.453.033.92.053 1.389.053.467 0 .935-.02 1.388-.054 1.743-.13 2.614-.195 3.488-1.069s.939-1.745 1.069-3.487c.034-.454.054-.921.054-1.39 0-.467-.02-.935-.054-1.388-.13-1.742-.195-2.614-1.07-3.488-.873-.874-1.744-.939-3.487-1.069A19 19 0 0 0 8 2c-.468 0-.936.02-1.39.054-1.742.13-2.613.195-3.487 1.07m1.875 4.874c0-1.656 1.37-3 3.06-3 .795 0 1.518.297 2.062.783l-.725.71a2.05 2.05 0 0 0-1.337-.493c-1.127 0-2.04.896-2.04 2s.913 2 2.04 2c.95 0 1.747-.638 1.973-1.5H8.058v-1h2.89c.239 1.177-.336 3.5-2.89 3.5-1.69 0-3.06-1.343-3.06-3"/></svg>