<svg xmlns="http://www.w3.org/2000/svg" viewBox="0 0 24 24"><path fill-rule="evenodd" d="M10.071 5.076A26 26 0 0 1 12 5c.642 0 1.292.028 1.929.076 2.75.204 3.265.318 3.97 1.024.707.706.82 1.22 1.025 3.971.048.637.076 1.287.076 1.929s-.028 1.292-.076 1.929c-.204 2.75-.318 3.265-1.024 3.97-.706.707-1.22.82-3.971 1.025-.637.048-1.287.076-1.929.076s-1.292-.028-1.929-.076c-2.75-.204-3.265-.318-3.97-1.024-.707-.706-.82-1.22-1.025-3.971A26 26 0 0 1 5 12c0-.642.028-1.292.076-1.929.204-2.75.318-3.265 1.024-3.97.706-.707 1.22-.82 3.971-1.025m-6.99 4.847c.195-2.616.292-3.924 1.605-5.237s2.62-1.41 5.237-1.605C10.6 3.031 11.3 3 12 3s1.399.03 2.077.081c2.616.195 3.924.292 5.237 1.605s1.41 2.62 1.605 5.237C20.969 10.6 21 11.3 21 12s-.03 1.399-.081 2.077c-.195 2.616-.292 3.924-1.605 5.237s-2.62 1.41-5.237 1.605C13.4 20.969 12.7 21 12 21s-1.399-.03-2.077-.081c-2.616-.195-3.924-.292-5.237-1.605s-1.41-2.62-1.605-5.237A28 28 0 0 1 3 12c0-.7.03-1.399.081-2.077M7.5 11.999c0-2.486 2.056-4.5 4.592-4.5 1.19 0 2.276.444 3.092 1.173l-1.087 1.065a3.08 3.08 0 0 0-2.006-.738c-1.69 0-3.061 1.343-3.061 3 0 1.656 1.37 3 3.06 3a3.05 3.05 0 0 0 2.961-2.25h-2.96v-1.5h4.335c.358 1.765-.504 5.25-4.334 5.25-2.536 0-4.592-2.015-4.592-4.5"/></svg>