<svg xmlns="http://www.w3.org/2000/svg" viewBox="0 0 32 32"><path d="M12.049 8.278c2.48-2.842 4.01-4.266 5.414-4.278a4 4 0 0 1 2.643.967c1.392 1.197 1.392 4.378 1.392 10.74v.587c0 6.36 0 9.542-1.392 10.739a4 4 0 0 1-2.643.967c-1.404-.012-2.935-1.436-5.414-4.278zm-2.5 1.265A12 12 0 0 0 8.5 9.5c-.942 0-1.721.1-2.337.23-1.129.239-1.835 1.234-1.957 2.381A37 37 0 0 0 4 16c0 1.534.1 2.887.206 3.889.122 1.147.828 2.142 1.957 2.38.616.13 1.395.23 2.337.23q.563 0 1.049-.042zm18.446.493C28.032 8.913 27.121 8 25.997 8s-2.035.914-1.998 2.037c.094 2.824.329 5.577.467 7.03.051.531.076.797.307 1.047s.425.282.81.348q.203.036.414.037.211-.001.413-.037c.386-.066.58-.1.81-.348.231-.25.257-.515.307-1.047.139-1.453.374-4.206.468-7.03M25.998 20a2 2 0 1 1 0 4 2 2 0 0 1 0-4"/></svg>