<svg xmlns="http://www.w3.org/2000/svg" viewBox="0 0 25 24"><path fill-rule="evenodd" d="M8.116 16.861c2.343 2.748 3.662 4.123 4.857 4.134a3 3 0 0 0 1.982-.725C16 19.372 16 16.987 16 12.215v-.44c0-4.771 0-7.157-1.044-8.054a3 3 0 0 0-1.982-.725c-1.196.01-2.516 1.388-4.863 4.14A9 9 0 0 0 6.5 7c-.755 0-1.375.081-1.86.186-.85.182-1.383.928-1.476 1.792A28 28 0 0 0 3 11.999c0 1.196.08 2.25.164 3.022.093.863.627 1.61 1.475 1.792a9 9 0 0 0 1.86.186c.634 0 1.173-.057 1.617-.138m4.16 1.574c-.583-.525-1.302-1.316-2.276-2.448V8.003c.974-1.133 1.693-1.923 2.276-2.449.476-.43.71-.537.764-.56a1 1 0 0 1 .576.212c.027.059.17.367.263 1.287.118 1.181.12 2.85.12 5.281v.44c0 2.432-.002 4.1-.12 5.281-.092.92-.236 1.229-.263 1.287a1 1 0 0 1-.576.212c-.055-.023-.288-.13-.764-.56M8 12c0-1.109-.075-2.088-.152-2.806a.4.4 0 0 0-.014-.074A7 7 0 0 0 6.5 9c-.55 0-.995.054-1.334.12a.4.4 0 0 0-.014.074A26 26 0 0 0 5 11.999c0 1.11.074 2.089.152 2.807q.005.044.014.074c.34.065.784.12 1.334.12s.994-.055 1.334-.12a.4.4 0 0 0 .014-.074c.077-.718.152-1.698.152-2.807"/><path d="M20.998 7.528A1.49 1.49 0 0 0 19.5 6c-.843 0-1.526.685-1.499 1.528.07 2.17.249 4.29.353 5.397.037.396.056.595.228.782.172.186.315.212.602.263q.156.028.316.03.161-.001.316-.03c.287-.051.43-.077.602-.263.172-.187.19-.385.228-.782a92 92 0 0 0 .353-5.397M21 16.5a1.5 1.5 0 1 0-3 0 1.5 1.5 0 0 0 3 0"/></svg>