<svg xmlns="http://www.w3.org/2000/svg" viewBox="0 0 44 44"><path fill-rule="evenodd" d="M15.134 30.677c4.004 4.823 6.276 7.245 8.34 7.318a5.33 5.33 0 0 0 3.722-1.333c1.802-1.592 1.802-5.821 1.802-14.28v-.763c0-8.46 0-12.689-1.802-14.28a5.33 5.33 0 0 0-3.722-1.334c-2.064.074-4.336 2.495-8.34 7.318A14.5 14.5 0 0 0 11.999 13a14.5 14.5 0 0 0-3.158.328c-1.483.331-2.396 1.652-2.554 3.163A54 54 0 0 0 5.998 22c0 2.189.142 4.111.288 5.509.158 1.511 1.071 2.832 2.554 3.163.827.184 1.88.328 3.158.328 1.266 0 2.313-.141 3.136-.323m6.888 3.195c-1.041-.962-2.316-2.403-4.024-4.445V14.574c1.708-2.042 2.983-3.482 4.024-4.445 1.07-.987 1.521-1.11 1.569-1.124l.004-.001c.592-.018 1.17.19 1.614.584l-.003-.004h-.001l.003.005c.037.054.38.557.579 2.606.207 2.133.211 5.128.211 9.425v.763c0 4.296-.004 7.291-.211 9.424-.2 2.05-.542 2.553-.579 2.607l-.003.005.004-.003a2.33 2.33 0 0 1-1.614.583l-.005-.002c-.047-.013-.499-.136-1.568-1.124M14.998 22a51 51 0 0 0-.271-5.197c-.028-.264-.115-.43-.17-.5a.2.2 0 0 0-.04-.043l-.015-.004A11.5 11.5 0 0 0 11.998 16a11.5 11.5 0 0 0-2.518.26s-.016.01-.04.042c-.056.072-.143.236-.17.5A51 51 0 0 0 8.998 22c0 2.063.134 3.88.272 5.198.027.264.114.428.17.5.024.032.04.042.04.042l.014.004c.619.138 1.454.256 2.504.256a11.5 11.5 0 0 0 2.518-.26s.016-.01.041-.042c.055-.072.142-.237.17-.501A51 51 0 0 0 14.998 22"/><path d="M37.999 14.042c.041-1.403-1.096-2.543-2.499-2.543s-2.54 1.14-2.499 2.542c.114 3.848.416 7.624.591 9.58.063.696.094 1.043.403 1.378s.551.376 1.034.458q.232.04.47.042.24-.001.471-.042c.483-.082.725-.123 1.034-.458s.34-.682.403-1.377c.175-1.957.478-5.732.592-9.58M37.998 30a2.5 2.5 0 1 0-5 0c0 1.38.963 2.5 2.344 2.5s2.656-1.12 2.656-2.5"/></svg>