<svg xmlns="http://www.w3.org/2000/svg" viewBox="0 0 44 44"><path d="M16.049 31.772c3.445 4.095 5.524 6.155 7.425 6.223a5.33 5.33 0 0 0 3.722-1.333c1.802-1.592 1.802-5.821 1.802-14.28v-.763c0-8.46 0-12.689-1.802-14.28a5.33 5.33 0 0 0-3.722-1.334c-1.901.068-3.98 2.128-7.425 6.224zm-3-.805V13.032a16 16 0 0 0-1.05-.033 14.5 14.5 0 0 0-3.159.328c-1.483.331-2.396 1.652-2.554 3.163A54 54 0 0 0 5.998 22c0 2.189.142 4.111.288 5.509.158 1.511 1.071 2.832 2.554 3.163.827.184 1.88.328 3.158.328q.554 0 1.05-.034m24.951-16.924c.041-1.403-1.096-2.543-2.499-2.543s-2.54 1.14-2.499 2.542c.114 3.848.416 7.624.591 9.58.063.696.094 1.043.403 1.378s.551.376 1.034.458q.232.04.47.042.24-.001.471-.042c.483-.082.725-.123 1.034-.458s.34-.682.403-1.377c.175-1.957.478-5.732.592-9.58M35.498 27.5a2.5 2.5 0 0 1 2.5 2.5c0 1.38-1.276 2.5-2.656 2.5s-2.344-1.12-2.344-2.5a2.5 2.5 0 0 1 2.5-2.5"/></svg>