<svg xmlns="http://www.w3.org/2000/svg" viewBox="0 0 32 32"><path fill-rule="evenodd" d="M10.806 9.724c3.238-3.806 5.033-5.71 6.657-5.724a4 4 0 0 1 2.643.967c1.392 1.197 1.392 4.378 1.392 10.74v.587c0 6.36 0 9.542-1.392 10.739a4 4 0 0 1-2.643.967c-1.625-.014-3.42-1.918-6.657-5.724-.61.127-1.38.224-2.306.224-.942 0-1.721-.1-2.337-.23-1.129-.239-1.835-1.234-1.957-2.381A37 37 0 0 1 4 15.999c0-1.533.1-2.886.206-3.888.122-1.147.828-2.142 1.957-2.38A11.2 11.2 0 0 1 8.5 9.5c.926 0 1.695.097 2.306.224m5.526 14.905c-.854-.785-1.904-1.96-3.334-3.635v-4.622a35 35 0 0 0 0-.744v-4.623c1.43-1.673 2.48-2.85 3.334-3.634.787-.724 1.136-.852 1.188-.87l.002-.001a1.5 1.5 0 0 1 .929.341l.004.009c.035.066.248.465.381 1.799.159 1.585.162 3.82.162 7.057v.588c0 3.238-.003 5.472-.162 7.057-.133 1.334-.346 1.733-.38 1.799l-.005.009a1.5 1.5 0 0 1-.93.341h-.001c-.052-.02-.401-.148-1.188-.871m-5.834-8.988a35 35 0 0 0-.19-3.267.7.7 0 0 0-.057-.212A9 9 0 0 0 8.5 12c-.725 0-1.308.073-1.75.162l-.017.036a.7.7 0 0 0-.04.176A35 35 0 0 0 6.5 16c0 1.428.094 2.692.192 3.626a.7.7 0 0 0 .057.212A9 9 0 0 0 8.5 20a9 9 0 0 0 1.75-.162l.017-.036a.7.7 0 0 0 .04-.176c.091-.855.177-1.986.191-3.268z"/><path d="M27.995 10.036C28.032 8.913 27.121 8 25.997 8s-2.035.914-1.998 2.037c.094 2.824.329 5.577.467 7.03.051.531.076.797.307 1.047s.425.282.81.348q.203.036.414.037.211-.001.413-.037c.386-.066.58-.1.81-.348.231-.25.257-.515.307-1.047.139-1.453.374-4.206.468-7.03M27.998 22a2 2 0 1 0-4 0 2 2 0 0 0 4 0"/></svg>