<svg xmlns="http://www.w3.org/2000/svg" viewBox="0 0 16 16"><path d="M12.889 5.721c.227.227.62.107.694-.21.417-1.81.626-2.715.124-3.217-.503-.502-1.407-.294-3.217.124-.318.073-.437.467-.21.694l.773.774L9.22 5.72a.75.75 0 0 0 1.06 1.06l1.834-1.833z"/><path fill-rule="evenodd" d="M6.327 3.555c.182.179.542.532.79.942.216.357.25.715.241.945-.008.235-.066.54-.243.835-.191.32-.471.623-.62.779l2.433 2.432c.121-.107.243-.212.354-.304.134-.113.273-.221.416-.307a1.74 1.74 0 0 1 1.784-.002c.333.203.66.523.771.634l.035.033.023.021c.147.136.42.39.65.697.241.324.562.875.538 1.595-.012.343-.1.633-.166.826-.14.407-.394.897-.803 1.291a3.4 3.4 0 0 1-.963.688c-1.228.573-2.673.373-3.866-.232-.94-.477-2.056-1.177-3.448-2.573-1.42-1.424-2.24-2.684-2.712-3.635-.575-1.16-.754-2.548-.23-3.746.206-.472.508-.813.718-1.033.502-.528 1.29-.941 2.137-.941.998 0 1.685.578 2.1.994q.025.026.061.06M4.861 6.596l.442-.461.114-.123c.149-.159.302-.322.412-.506a.25.25 0 0 0 .005-.233c-.142-.234-.351-.443-.548-.638l-.082-.082C4.862 4.21 4.544 4 4.166 4c-.38 0-.792.202-1.051.476-.172.18-.33.37-.43.6-.301.688-.235 1.603.199 2.477.397.8 1.12 1.93 2.43 3.243 1.271 1.275 2.256 1.883 3.066 2.295.914.464 1.862.533 2.554.21.17-.08.336-.193.553-.406.194-.185.34-.45.429-.704.048-.14.08-.265.084-.387.016-.47-.414-.867-.729-1.16l-.002-.001-.122-.116c-.139-.134-.282-.272-.444-.37a.24.24 0 0 0-.232.005 2 2 0 0 0-.228.173q-.276.233-.546.475-.178.16-.358.317a.68.68 0 0 1-.926-.034l-3.541-3.54a.684.684 0 0 1-.01-.957"/></svg>