<svg xmlns="http://www.w3.org/2000/svg" viewBox="0 0 44 44"><path d="M24.012 17.055c.042-1.133-.876-2.055-2.01-2.055-1.132 0-2.05.922-2.009 2.055.088 2.372.282 4.672.42 6.106.07.738.106 1.108.491 1.467l.026.023c.394.349.62.349 1.073.349s.678 0 1.072-.35l.026-.022c.385-.359.42-.728.491-1.467.138-1.434.332-3.734.42-6.106M22 27a2 2 0 1 1 0 4 2 2 0 0 1 0-4"/><path fill-rule="evenodd" d="m12.27 16.824-1.878 3.121c-4.285 7.118-6.428 10.677-4.9 13.366s5.692 2.69 14.021 2.69h4.974c8.33 0 12.494 0 14.021-2.69s-.615-6.248-4.9-13.366l-1.879-3.12C27.384 9.607 25.212 5.998 22 5.998s-5.384 3.609-9.73 10.825m18.757 4.665-1.88-3.121c-2.224-3.695-3.721-6.167-5.033-7.758C22.826 9.048 22.25 9 22 9s-.826.048-2.114 1.61c-1.312 1.591-2.81 4.063-5.034 7.758l-1.879 3.12c-2.195 3.647-3.656 6.09-4.43 7.95-.759 1.822-.505 2.267-.434 2.391l.002.004.002.004c.07.124.323.57 2.28.86 2 .295 4.853.303 9.12.303h4.974c4.267 0 7.12-.008 9.12-.303 1.957-.29 2.21-.736 2.28-.86l.002-.004.002-.004c.07-.124.325-.569-.433-2.39-.775-1.861-2.236-4.304-4.431-7.95"/></svg>