<svg xmlns="http://www.w3.org/2000/svg" viewBox="0 0 24 24"><path fill-rule="evenodd" d="M12 3c-1.795 0-3.009 2.045-5.437 6.134l-1.05 1.768c-2.395 4.034-3.592 6.05-2.738 7.574C3.628 20 5.955 20 10.61 20h2.78c4.654 0 6.982 0 7.835-1.524.854-1.523-.343-3.54-2.738-7.573l-1.05-1.769C15.009 5.044 13.795 3 12 3m1.301 6.338C13.338 8.601 12.74 8 12.001 8c-.737 0-1.335.601-1.298 1.338.059 1.194.171 2.334.255 3.082.05.444.075.665.287.862s.37.204.685.216a2 2 0 0 0 .143 0c.316-.012.474-.019.686-.216.211-.197.236-.418.286-.861.084-.75.197-1.89.256-3.083M12 14.5a1.25 1.25 0 1 1 0 2.5 1.25 1.25 0 0 1 0-2.5"/></svg>