<svg xmlns="http://www.w3.org/2000/svg" viewBox="0 0 32 32"><path d="M17.764 11.816c.05-1-.76-1.816-1.762-1.816-1.001 0-1.812.816-1.762 1.816.08 1.618.232 3.164.347 4.18.067.601.101.902.388 1.17.287.266.501.275.93.293a2 2 0 0 0 .194 0c.428-.018.643-.027.93-.294s.32-.567.388-1.168a69 69 0 0 0 .347-4.181M16 18.75a1.75 1.75 0 1 1 0 3.5 1.75 1.75 0 0 1 0-3.5"/><path fill-rule="evenodd" d="M16 4c-2.362 0-3.96 2.646-7.154 7.938l-1.381 2.289c-3.151 5.22-4.727 7.83-3.604 9.801S8.047 26 14.171 26h3.658c6.124 0 9.186 0 10.31-1.972 1.123-1.972-.453-4.581-3.604-9.801l-1.381-2.289C19.959 6.646 18.362 4 16 4m6.393 11.504-1.382-2.288c-1.64-2.718-2.729-4.508-3.677-5.655-.899-1.087-1.257-1.08-1.328-1.078h-.012c-.071-.001-.43-.01-1.328 1.078-.948 1.147-2.037 2.937-3.677 5.655l-1.382 2.288c-1.619 2.682-2.68 4.452-3.239 5.793-.27.646-.353 1.037-.367 1.261-.011.167.015.213.033.244l.002.003.001.003c.017.03.044.076.194.153.2.103.58.234 1.277.336 1.444.213 3.517.22 6.663.22h3.658c3.146 0 5.22-.007 6.663-.22.697-.102 1.076-.233 1.277-.336.15-.076.177-.123.194-.153l.002-.003.001-.003c.017-.03.044-.077.033-.244-.014-.224-.097-.615-.367-1.261-.56-1.34-1.62-3.11-3.239-5.793"/></svg>