<svg xmlns="http://www.w3.org/2000/svg" viewBox="0 0 44 44"><path fill-rule="evenodd" d="M21.998 6c-3.212 0-5.384 3.608-9.729 10.824l-1.879 3.121c-4.285 7.118-6.428 10.677-4.9 13.366s5.692 2.69 14.021 2.69h4.974c8.33 0 12.494 0 14.021-2.69s-.615-6.248-4.9-13.366l-1.879-3.12C27.382 9.607 25.21 5.998 21.998 5.998m2.014 11.055c.042-1.133-.876-2.055-2.01-2.055-1.132 0-2.05.922-2.009 2.055.088 2.372.282 4.672.42 6.106.07.738.106 1.108.491 1.467l.026.023c.394.349.62.349 1.073.349s.678 0 1.072-.35l.026-.022c.385-.359.42-.728.491-1.467.138-1.434.332-3.734.42-6.106M22 27a2 2 0 1 1 0 4 2 2 0 0 1 0-4"/></svg>