<svg xmlns="http://www.w3.org/2000/svg" viewBox="0 0 32 32"><path fill-rule="evenodd" d="m8.844 11.938-1.381 2.289c-3.151 5.22-4.727 7.83-3.603 9.801C4.983 26 8.045 26 14.17 26h3.657c6.124 0 9.186 0 10.31-1.972 1.123-1.972-.453-4.581-3.604-9.801l-1.381-2.289C19.957 6.646 18.36 4 15.998 4s-3.959 2.646-7.154 7.938m8.92-.123c.05-1-.76-1.815-1.762-1.815-1.001 0-1.812.816-1.762 1.816.08 1.618.232 3.164.347 4.18.067.601.101.902.388 1.17.287.266.501.275.93.293a2 2 0 0 0 .194 0c.428-.018.643-.027.93-.294s.32-.567.388-1.168a69 69 0 0 0 .347-4.181M16 18.75a1.75 1.75 0 1 1 0 3.5 1.75 1.75 0 0 1 0-3.5"/></svg>