<svg xmlns="http://www.w3.org/2000/svg" viewBox="0 0 17 17"><path fill-rule="evenodd" d="M4.393 6.727c1.833-3.066 2.749-4.6 4.104-4.6s2.271 1.534 4.104 4.6l.792 1.326c1.808 3.025 2.712 4.537 2.067 5.68-.644 1.142-2.4 1.142-5.914 1.142H7.448c-3.514 0-5.27 0-5.915-1.143-.644-1.142.26-2.654 2.067-5.679zm5.052.09a.934.934 0 0 0-.944-.974.934.934 0 0 0-.945.973c.043.868.125 1.697.186 2.241.036.322.054.483.208.627.154.143.269.148.499.157a1 1 0 0 0 .104 0c.23-.01.344-.014.498-.157.154-.144.172-.305.208-.627a37 37 0 0 0 .186-2.24M8.5 10.57a.956.956 0 1 1 0 1.912.956.956 0 0 1 0-1.912"/></svg>