<svg xmlns="http://www.w3.org/2000/svg" viewBox="0 0 44 44"><path d="M12.999 22c.011-4.435 1.21-7.417 2.637-9.414 1.446-2.024 3.19-3.2 4.512-4.082l.016-.01L18.5 5.996 10.996 11H5.999v11zm18 0c-.012-4.436-1.212-7.417-2.638-9.414-1.446-2.024-3.19-3.2-4.512-4.082l-.016-.01 1.664-2.497L33.002 11h4.996v11zM14.808 33.439a1.5 1.5 0 0 1 2.12 0c.813.812 2.668 1.561 5.07 1.561s4.252-.748 5.065-1.561a1.5 1.5 0 0 1 2.121 0c.615.614 1.842 1.214 3.526 1.454a1.5 1.5 0 1 1-.423 2.97c-1.548-.22-3.011-.711-4.163-1.455C26.522 37.442 24.298 38 21.999 38s-4.527-.558-6.13-1.592c-1.152.742-2.614 1.232-4.158 1.453a1.5 1.5 0 0 1-.426-2.97c1.684-.241 2.911-.84 3.523-1.452m2.173-8.629a1.5 1.5 0 0 0-2.664 0C13.312 26.75 11.41 28 9.3 28c-.486 0-.956-.066-1.405-.189a1.5 1.5 0 1 0-.793 2.894c.703.193 1.44.295 2.198.295 2.517 0 4.766-1.121 6.35-2.883C17.232 29.88 19.48 31 21.997 31c2.519 0 4.76-1.122 6.34-2.882C29.92 29.879 32.169 31 34.686 31c.763 0 1.504-.104 2.211-.299a1.5 1.5 0 0 0-.798-2.892c-.45.125-.924.191-1.413.191-2.11 0-4.012-1.25-5.017-3.19a1.5 1.5 0 0 0-2.664 0c-1.007 1.943-2.9 3.19-5.007 3.19-2.11 0-4.011-1.25-5.017-3.19"/></svg>