<svg xmlns="http://www.w3.org/2000/svg" viewBox="0 0 32 32"><path d="M9.503 16c0-3.248.866-5.408 1.9-6.894 1.045-1.504 2.316-2.397 3.289-3.046L13.305 4l-6 3.98-.029.02H4v8zm12.996 0c0-3.248-.87-5.408-1.904-6.894-1.046-1.504-2.317-2.397-3.29-3.046L18.692 4l6 3.98.029.02h3.278v8zm-11.023 8c.335 0 .656.134.89.373.565.573 1.888 1.127 3.635 1.127 1.745 0 3.065-.554 3.63-1.127a1.25 1.25 0 0 1 1.781 0c.426.432 1.297.872 2.518 1.049a1.25 1.25 0 1 1-.358 2.474c-1.122-.163-2.191-.518-3.05-1.06C19.316 27.596 17.679 28 16 28s-3.318-.404-4.525-1.164c-.858.54-1.927.895-3.045 1.058a1.25 1.25 0 1 1-.36-2.474c1.22-.178 2.091-.617 2.514-1.047a1.25 1.25 0 0 1 .891-.373m.879-5.904a1.25 1.25 0 0 0-2.13 0C9.548 19.196 8.195 20 6.582 20a4.7 4.7 0 0 1-1.054-.12 1.25 1.25 0 1 0-.563 2.437c.519.12 1.061.183 1.617.183 1.815 0 3.492-.676 4.707-1.802 1.215 1.126 2.893 1.802 4.707 1.802 1.816 0 3.488-.677 4.7-1.802 1.215 1.126 2.893 1.802 4.707 1.802a7.2 7.2 0 0 0 1.627-.186 1.25 1.25 0 0 0-.567-2.434 4.7 4.7 0 0 1-1.06.12c-1.613 0-2.967-.805-3.642-1.904a1.25 1.25 0 0 0-2.13 0c-.677 1.1-2.023 1.904-3.635 1.904-1.613 0-2.966-.805-3.642-1.904"/></svg>