<svg xmlns="http://www.w3.org/2000/svg" viewBox="0 0 17 17"><path fill-rule="evenodd" d="m3.8 4.25 2.793-1.86q.154-.105.286-.191l.116-.077.884 1.326-.315.21c-1.107.745-2.783 2.037-2.783 4.84v.27c0 .44-.357.796-.797.796H1.859a.797.797 0 0 1-.797-.797v-3.72c0-.44.357-.796.797-.796zm-.596 3.72a7 7 0 0 1 .457-2.126H2.656V7.97zm9.992-3.72-2.792-1.86q-.154-.105-.286-.191l-.116-.077-.884 1.326.315.21c1.107.745 2.783 2.037 2.783 4.84v.27c0 .44.357.796.797.796h2.125c.44 0 .797-.357.797-.797v-3.72a.797.797 0 0 0-.797-.796zm.597 3.72a7 7 0 0 0-.457-2.126h1.005V7.97z"/><path d="M5.716 12.892a.8.8 0 0 1 .914 0c.258.18.938.388 1.87.388.93 0 1.608-.207 1.866-.388a.8.8 0 0 1 .914 0c.188.132.63.294 1.282.36a.797.797 0 0 1-.158 1.585c-.568-.057-1.124-.182-1.581-.385-.636.282-1.48.421-2.324.421s-1.689-.139-2.326-.421c-.457.203-1.013.328-1.578.384a.797.797 0 1 1-.16-1.585c.653-.066 1.094-.227 1.281-.359M6.77 9.47a.797.797 0 0 0-1.426 0c-.36.72-1.023 1.154-1.73 1.154q-.247 0-.475-.066a.797.797 0 0 0-.435 1.533q.438.124.91.126c.958 0 1.81-.403 2.443-1.04.631.637 1.485 1.04 2.442 1.04s1.808-.403 2.438-1.039c.632.636 1.485 1.04 2.442 1.04q.475-.002.916-.129a.797.797 0 1 0-.438-1.532 1.7 1.7 0 0 1-.478.067c-.706 0-1.37-.434-1.73-1.154a.797.797 0 0 0-1.424 0c-.361.721-1.021 1.154-1.726 1.154s-1.37-.434-1.73-1.154"/></svg>