<svg xmlns="http://www.w3.org/2000/svg" viewBox="0 0 17 17"><path d="M4.78 8.499c0-2.804 1.677-4.096 2.784-4.842l.314-.21-.883-1.325-.116.077-.286.19-2.785 1.857-.005.003H2.125V8.5zm7.438 0c0-2.804-1.676-4.096-2.783-4.842l-.315-.21.884-1.325.116.077q.133.086.286.19l2.785 1.857.005.003h1.678V8.5zm-6.502 4.393a.8.8 0 0 1 .914 0c.258.18.938.388 1.87.388.93 0 1.608-.207 1.866-.388a.8.8 0 0 1 .914 0c.188.132.63.294 1.282.36a.797.797 0 0 1-.158 1.585c-.568-.057-1.124-.182-1.581-.385-.636.282-1.48.421-2.324.421s-1.689-.139-2.326-.421c-.457.203-1.013.328-1.578.384a.797.797 0 1 1-.16-1.585c.653-.066 1.094-.227 1.281-.359M6.77 9.47a.797.797 0 0 0-1.426 0c-.36.72-1.023 1.154-1.73 1.154q-.247 0-.475-.066a.797.797 0 0 0-.435 1.533q.438.124.91.126c.958 0 1.811-.403 2.443-1.04.632.637 1.485 1.04 2.442 1.04s1.809-.403 2.439-1.039c.631.636 1.484 1.04 2.441 1.04q.476-.002.917-.129a.797.797 0 1 0-.438-1.532 1.7 1.7 0 0 1-.479.067c-.706 0-1.37-.434-1.73-1.154a.797.797 0 0 0-1.424 0c-.36.721-1.021 1.154-1.726 1.154S7.13 10.19 6.77 9.47"/></svg>