<svg xmlns="http://www.w3.org/2000/svg" viewBox="0 0 24 24"><path d="M6.211 16.9A53 53 0 0 1 6 12c0-1.975.092-3.609.211-4.898.084-.91.131-1.322.226-1.642.063-.21.151-.397.442-.692.321-.328.497-.409.643-.459.246-.083.561-.128 1.364-.218A15 15 0 0 1 10.5 4c.567 0 1.109.035 1.614.091.803.09 1.118.135 1.364.218.146.05.322.131.643.459.29.295.38.482.442.692.095.32.141.733.226 1.641q.061.66.11 1.441v.02a.99.99 0 0 0 .998.938h.002c.567 0 1.03-.492.997-1.058l.001.017V8.44v.002a48 48 0 0 0-.117-1.525c-.156-1.69-.235-2.534-1.231-3.55s-1.736-1.098-3.213-1.263A17 17 0 0 0 10.5 2a17 17 0 0 0-1.836.104c-1.477.165-2.216.247-3.213 1.263s-1.075 1.86-1.231 3.55A55 55 0 0 0 4 12c0 2.037.095 3.733.22 5.084.156 1.689.235 2.533 1.231 3.549.997 1.015 1.735 1.098 3.212 1.263q.406.046.838.073c.55.034.999-.417.999-.969s-.448-.997-1-1.035q-.315-.023-.615-.056c-.803-.09-1.118-.135-1.363-.219-.146-.05-.322-.13-.643-.458-.29-.296-.38-.482-.442-.692-.095-.32-.141-.732-.226-1.64"/><path d="M8 7a1 1 0 0 1 1-1h3a1 1 0 1 1 0 2H9a1 1 0 0 1-1-1"/><path fill-rule="evenodd" d="M20.499 15.479q0-.425-.022-.842c-.056-1.136-.084-1.704-.637-2.44a4.3 4.3 0 0 0-.716-.68C18.362 11 17.908 11 17 11s-1.363 0-2.125.516a4.3 4.3 0 0 0-.716.682c-.553.735-.581 1.303-.637 2.44q-.022.416-.022.841a2.8 2.8 0 0 0-.66.524c-.827.863-.832 1.557-.84 2.945v.104c.008 1.388.013 2.082.84 2.945.826.863 1.633.902 3.246.98a19 19 0 0 0 1.828 0c1.613-.078 2.42-.117 3.246-.98s.831-1.557.84-2.945v-.104c-.009-1.388-.013-2.082-.84-2.945a2.8 2.8 0 0 0-.661-.524m-2.007-.426-.013-.317c-.03-.623-.048-.86-.087-1.037a.63.63 0 0 0-.135-.28l-.018-.019a3 3 0 0 0-.258-.242.75.75 0 0 0-.462-.152C17.39 13 17.24 13 17 13c-.238 0-.39 0-.52.006a.75.75 0 0 0-.482.169 3 3 0 0 0-.237.225l-.018.02a.64.64 0 0 0-.135.279c-.039.176-.057.414-.087 1.037q-.008.158-.013.317l.579-.03a19 19 0 0 1 1.828 0zm-2.31 1.968a17 17 0 0 1 1.635 0c.877.042 1.256.07 1.527.137.142.036.219.069.372.23.114.118.16.19.18.223.015.029.029.06.043.12.016.07.034.188.045.398.012.218.014.471.016.831v.08c-.002.36-.004.613-.016.83-.01.211-.029.328-.045.4a.4.4 0 0 1-.044.119 1.2 1.2 0 0 1-.178.224c-.154.16-.231.193-.373.229-.271.068-.65.095-1.527.137a17 17 0 0 1-1.634 0c-.877-.042-1.256-.07-1.527-.137-.142-.036-.219-.069-.373-.23a1.2 1.2 0 0 1-.178-.223.4.4 0 0 1-.044-.12 2.4 2.4 0 0 1-.045-.398A18 18 0 0 1 14 19.04v-.08c.002-.36.004-.613.016-.83.01-.211.029-.328.045-.4a.4.4 0 0 1 .044-.119 1.2 1.2 0 0 1 .178-.224c.154-.16.231-.193.373-.229.271-.068.65-.095 1.527-.137"/></svg>