<svg xmlns="http://www.w3.org/2000/svg" viewBox="0 0 16 16"><path d="M3.5 8c0 1.447.07 2.632.158 3.551.059.612.09.874.149 1.07.034.118.08.218.25.393.193.199.288.238.361.264.148.05.343.082.886.148.297.036.615.064.946.072a.751.751 0 1 1-.09 1.497q-.548-.019-1.038-.08c-.99-.121-1.485-.182-2.14-.854-.654-.672-.709-1.237-.817-2.367A39 39 0 0 1 2 8c0-1.495.072-2.727.165-3.694.108-1.13.163-1.695.818-2.368s1.15-.732 2.14-.853A11 11 0 0 1 6.5 1c.49 0 .952.033 1.377.085.99.12 1.485.181 2.14.853.655.673.71 1.238.818 2.368l.015.151c.027.27.056.559.056.87a.75.75 0 0 1-1.493 0s-.029-.438-.071-.878c-.059-.612-.09-.874-.149-1.071-.034-.117-.08-.217-.25-.393-.193-.198-.289-.237-.362-.263-.147-.05-.343-.082-.886-.148A10 10 0 0 0 6.5 2.5a10 10 0 0 0-1.195.074c-.543.066-.74.097-.886.148-.073.026-.169.065-.362.263-.17.176-.216.276-.25.393-.06.197-.09.46-.149 1.072A37 37 0 0 0 3.5 8"/><path d="M5.75 4a.75.75 0 0 0 0 1.5h1.5a.75.75 0 0 0 0-1.5z"/><path fill-rule="evenodd" d="M8.579 10.705C8 11.312 8 11.791 8 12.75s0 1.438.579 2.045c.578.607 1.143.634 2.272.689a14 14 0 0 0 1.298 0c1.13-.055 1.694-.082 2.273-.69C15 14.189 15 13.71 15 12.75s0-1.438-.578-2.045a2 2 0 0 0-.416-.341 11 11 0 0 0-.011-.774c-.04-.844-.06-1.266-.479-1.796a3 3 0 0 0-.42-.4C12.55 7 12.202 7 11.507 7c-.694 0-1.042 0-1.59.394a3 3 0 0 0-.42.4c-.419.53-.438.952-.478 1.796a12 12 0 0 0-.011.766 2 2 0 0 0-.428.35m2.921.795q-.286 0-.577.015c-.29.014-.505.024-.689.04-.18.017-.289.035-.359.053a.4.4 0 0 0-.1.036.5.5 0 0 0-.11.096.7.7 0 0 0-.112.139.2.2 0 0 0-.019.052c-.009.04-.02.111-.027.252-.007.146-.007.318-.007.567 0 .25 0 .42.007.567.007.14.018.213.027.252.007.03.013.041.019.052a.7.7 0 0 0 .111.14.5.5 0 0 0 .112.095.4.4 0 0 0 .1.036c.07.018.177.036.358.052A18 18 0 0 0 11.5 14q.286 0 .577-.015c.29-.014.505-.024.689-.04.18-.017.289-.035.359-.053a.4.4 0 0 0 .1-.036.5.5 0 0 0 .11-.096.8.8 0 0 0 .112-.139.2.2 0 0 0 .019-.052 1.5 1.5 0 0 0 .027-.252c.007-.146.007-.318.007-.567 0-.25 0-.42-.007-.567a1.5 1.5 0 0 0-.027-.252.2.2 0 0 0-.019-.052.8.8 0 0 0-.111-.14.5.5 0 0 0-.112-.095.4.4 0 0 0-.1-.036 2.4 2.4 0 0 0-.358-.052A18 18 0 0 0 11.5 11.5m-.995-1.466q.003-.187.012-.374c.01-.219.017-.374.029-.507.01-.13.022-.204.033-.25.052-.235.307-.388.53-.398.098-.005.215-.005.398-.005.182 0 .299 0 .398.005.222.01.477.163.53.398.01.046.022.12.032.25a15 15 0 0 1 .04.881l-.358-.018a14 14 0 0 0-1.298 0z"/></svg>