<svg xmlns="http://www.w3.org/2000/svg" viewBox="0 0 24 24"><g fill-rule="evenodd" clip-rule="evenodd"><path d="M4.22 17.084A55 55 0 0 1 4 12c0-2.037.095-3.733.22-5.083.156-1.69.234-2.534 1.231-3.55s1.736-1.098 3.213-1.263C9.235 2.04 9.852 2 10.5 2s1.265.04 1.836.104c1.477.165 2.216.247 3.213 1.263s1.075 1.86 1.231 3.55q.089.932.147 2.083c-.392 0-.915-.001-1.437.104-.635.127-1.184.382-1.737.756-.237.161-.478.378-.635.528s-.386.379-.558.608c-.925 1.231-.978 2.35-1.03 3.41l-.003.08-.131.133c-.632.66-1.035 1.362-1.231 2.208-.165.71-.162 1.443-.165 2.167.002.729 0 1.466.165 2.18q.101.435.277.826a17 17 0 0 1-1.78-.104c-1.476-.165-2.214-.248-3.21-1.263-.997-1.016-1.076-1.86-1.232-3.55M8 6a1 1 0 0 1 1-1h3a1 1 0 1 1 0 2H9a1 1 0 0 1-1-1"/><path d="M13.5 15.48q0-.426.022-.843c.056-1.136.084-1.704.637-2.44a4.3 4.3 0 0 1 .716-.68C15.637 11 16.09 11 17 11c.908 0 1.362 0 2.124.516.193.13.577.496.716.682.553.735.581 1.303.637 2.44q.021.415.022.84c.229.13.445.299.661.525.827.863.832 1.609.84 2.997-.008 1.388-.013 2.134-.84 2.997-.826.863-1.633.902-3.246.98a19 19 0 0 1-1.828 0c-1.613-.078-2.42-.117-3.246-.98S12.008 20.388 12 19c.008-1.388.013-2.134.84-2.997.216-.226.431-.395.66-.524m4.992-.427-.013-.317c-.03-.623-.048-.86-.087-1.037-.057-.259-.393-.63-.668-.673a1.4 1.4 0 0 0-.205-.02C17.39 13 17.24 13 17 13c-.238 0-.39 0-.52.006a1.3 1.3 0 0 0-.204.02c-.275.044-.61.414-.668.673-.039.176-.057.414-.087 1.037q-.008.158-.013.317l.579-.03a19 19 0 0 1 1.828 0zM18.25 19a1.25 1.25 0 1 1-2.5 0 1.25 1.25 0 0 1 2.5 0"/></g></svg>