<svg xmlns="http://www.w3.org/2000/svg" viewBox="0 0 16 16"><path fill-rule="evenodd" d="M8.746 4.5c-1.253 0-2.3.824-2.634 1.936l-.34 1.135-1.184-.069-.122-.003c-1.126 0-1.966.876-1.966 1.87 0 .715.599 1.614 1.342 1.825.268.076.605.113 1.292.177l.04.004c.447.041.816.076 1.287.097.41.019.739.351.739.761a.734.734 0 0 1-.76.74 28 28 0 0 1-1.445-.108c-1.287-.12-1.964-.183-2.756-.915A3.33 3.33 0 0 1 1 9.368c0-1.86 1.552-3.37 3.466-3.37q.105 0 .21.007A4.24 4.24 0 0 1 8.745 3c2.125 0 3.886 1.546 4.197 3.563q.011.075.02.186c.033.413-.307.75-.72.75-.415 0-.745-.338-.797-.749a2 2 0 0 0-.031-.187A2.74 2.74 0 0 0 8.746 4.5m5.627 5.484a.75.75 0 0 0-1.146-.968l-2.223 2.627-.924-.923a.75.75 0 0 0-1.06 1.06l1.384 1.385a.9.9 0 0 0 1.324-.055z"/></svg>