<svg xmlns="http://www.w3.org/2000/svg" viewBox="0 0 32 32"><path fill-rule="evenodd" d="M10.724 6.75a3.605 3.605 0 0 1 7.004.004c2.363.054 4.778.585 6.677 1.658 2.026 1.145 3.591 3 3.591 5.588 0 1.406-.597 2.432-1.417 3.19-.736.679-1.678 1.162-2.441 1.553l-.07.036c-.849.436-1.495.777-1.955 1.202-.398.367-.613.758-.613 1.352 0 .612.23 1.032.607 1.375.415.378 1.027.672 1.747.885a10.5 10.5 0 0 0 1.992.363 12 12 0 0 0 .882.044A1.256 1.256 0 0 1 28 25.234a1.26 1.26 0 0 1-1.245 1.266q-.162 0-.323-.005a14 14 0 0 1-.81-.05 13 13 0 0 1-2.475-.454c-.905-.267-1.918-.702-2.723-1.434-.84-.765-1.424-1.835-1.424-3.224 0-1.405.597-2.431 1.417-3.189.736-.68 1.679-1.163 2.442-1.554l.068-.035c.85-.436 1.496-.778 1.956-1.202.398-.368.613-.759.613-1.353 0-1.412-.808-2.557-2.321-3.412-1.51-.853-3.593-1.323-5.736-1.338L9.212 27.221a1.333 1.333 0 0 1-2.519-.823L10.208 9.25H5.253a1.25 1.25 0 1 1 0-2.5zm3.276 3a1.75 1.75 0 1 0 0-3.5 1.75 1.75 0 0 0 0 3.5"/></svg>