<svg xmlns="http://www.w3.org/2000/svg" viewBox="0 0 32 32"><path d="M5.39 16.435 4.006 6.238a.655.655 0 0 1 .71-.736l3.68.308c.4.034.677.409.587.795l-2.297 9.89c-.164.706-1.199.659-1.296-.06m5.277 6.077 10.167-.012c.389 0 .696.34.665.738l-.278 3.63a.668.668 0 0 1-.888.592l-9.89-3.618c-.704-.258-.524-1.33.224-1.33"/><path fill-rule="evenodd" d="M23.408 14.312a33 33 0 0 0 2.35-3.204c.564-.887.535-1.995-.098-2.833a16.4 16.4 0 0 0-2.244-2.424c-.931-.818-2.247-.089-3.425.977-.532.481-1.5.313-2.467.145-.79-.138-1.579-.275-2.123-.055-.356.144-.78.47-1.287 1.047-1.57 1.789-2.602 3.248-3.233 4.24-.563.887-.535 1.995.098 2.833a16.4 16.4 0 0 0 2.245 2.425c.97.85 1.935 1.48 2.695 1.911.914.519 2.016.403 2.822-.27.752-.629 1.789-1.576 3.022-2.91l5.413 4.746a1.25 1.25 0 1 0 1.648-1.88zm-10.417-.766c.564-.886 1.518-2.242 3.002-3.932.12-.137.217-.234.29-.302.213.02.432.058.754.114l.333.057c.433.073 1.084.178 1.74.159.652-.02 1.684-.169 2.559-.96q.334-.302.602-.486c.569.556 1.028 1.11 1.377 1.571-.563.887-1.518 2.242-3.001 3.932s-2.704 2.813-3.51 3.486a14 14 0 0 1-2.264-1.601 14 14 0 0 1-1.882-2.038"/></svg>