<svg xmlns="http://www.w3.org/2000/svg" viewBox="0 0 17 17"><path d="m2.876 8.603-.743-5.546a.354.354 0 0 1 .381-.4l1.977.168a.354.354 0 0 1 .315.432L3.572 8.635c-.088.384-.643.358-.696-.032m2.79 3.621 5.4-.006c.207 0 .37.18.354.392l-.148 1.928a.355.355 0 0 1-.472.314L5.549 12.93c-.375-.137-.28-.706.118-.706"/><path fill-rule="evenodd" d="M12.476 7.462a17 17 0 0 0 1.206-1.65c.3-.472.285-1.06-.052-1.506a8.7 8.7 0 0 0-1.192-1.287c-.495-.434-1.194-.047-1.82.519-.282.256-.796.166-1.31.077-.42-.073-.838-.146-1.127-.03-.19.077-.415.25-.684.557A18.5 18.5 0 0 0 5.78 6.394c-.3.471-.284 1.06.052 1.505.28.37.677.836 1.192 1.288a8.7 8.7 0 0 0 1.432 1.015c.485.276 1.07.214 1.499-.144.371-.31.873-.766 1.469-1.398l2.923 2.563a.797.797 0 1 0 1.051-1.198z"/></svg>