<svg xmlns="http://www.w3.org/2000/svg" viewBox="0 0 32 32"><path d="M18.999 17.341c.24.095 1.53.778 1.793.92q.078.04.143.076c.184.095.307.16.36.254.066.118.066.684-.153 1.344s-1.267 1.263-1.771 1.344c-.453.073-1.025.104-1.653-.112a15 15 0 0 1-1.497-.595c-2.46-1.144-4.123-3.713-4.437-4.198l-.046-.07-.002-.004c-.139-.2-1.07-1.537-1.07-2.921 0-1.302.594-1.984.868-2.299l.051-.06c.24-.282.525-.353.7-.353s.35.002.503.01h.059c.153 0 .343-.001.532.485l.29.76c.226.591.475 1.245.519 1.34.065.14.109.306.021.495l-.036.08c-.066.145-.114.25-.226.391q-.066.083-.134.174c-.09.118-.18.237-.26.321-.131.141-.268.294-.115.577s.68 1.21 1.46 1.959a6.7 6.7 0 0 0 1.937 1.319q.109.049.174.084c.262.141.415.118.568-.07.153-.19.656-.826.831-1.11.175-.282.35-.235.59-.14"/><path fill-rule="evenodd" d="M2.996 2.998C.662 5.332.49 7.658.143 12.308A50 50 0 0 0 0 16.003c0 1.243.054 2.487.144 3.693.346 4.65.52 6.976 2.853 9.31 2.335 2.334 4.66 2.507 9.31 2.853 1.206.09 2.45.144 3.694.144s2.487-.054 3.693-.144c4.65-.346 6.976-.519 9.31-2.853s2.507-4.66 2.853-9.31c.09-1.206.144-2.45.144-3.693a50 50 0 0 0-.144-3.693c-.346-4.651-.519-6.977-2.853-9.31C26.669.663 24.343.49 19.693.144A50 50 0 0 0 16 .001a50 50 0 0 0-3.693.144c-4.651.346-6.976.52-9.31 2.853m19.606 6.405A9.27 9.27 0 0 0 16 6.666c-5.144 0-9.331 4.193-9.333 9.337 0 1.867.552 3.607 1.5 5.067l-1.072 3.916 4-1.049A9.3 9.3 0 0 0 16 25.333a9.27 9.27 0 0 0 6.602-2.736 9.26 9.26 0 0 0 2.731-6.594 9.27 9.27 0 0 0-2.73-6.6"/></svg>