<svg xmlns="http://www.w3.org/2000/svg" viewBox="0 0 44 44"><path d="M26.123 23.844c.331.13 2.105 1.07 2.466 1.265l.198.104c.251.13.421.22.494.35.09.162.09.94-.21 1.848-.301.908-1.743 1.737-2.436 1.848-.622.1-1.409.142-2.273-.154a20 20 0 0 1-2.057-.819c-3.383-1.573-5.67-5.105-6.102-5.773l-.063-.096-.003-.004c-.191-.275-1.47-2.114-1.47-4.017 0-1.79.816-2.729 1.192-3.16l.07-.083c.331-.389.722-.486.963-.486.24 0 .481.002.692.014h.08c.21 0 .473-.002.731.667.1.258.246.64.4 1.044.31.814.653 1.712.713 1.842.09.195.15.422.03.681l-.05.11c-.09.2-.157.346-.31.539q-.091.114-.185.238a7 7 0 0 1-.357.443c-.18.193-.369.404-.158.793.21.39.934 1.662 2.007 2.693a9.2 9.2 0 0 0 2.664 1.813q.15.07.238.116c.36.195.571.162.782-.097.21-.26.902-1.135 1.142-1.524.241-.39.482-.325.812-.195"/><path fill-rule="evenodd" d="M4.12 4.122C.911 7.332.673 10.53.197 16.924A69 69 0 0 0 0 22.002c0 1.71.075 3.42.198 5.078.476 6.395.714 9.592 3.923 12.801 3.21 3.21 6.407 3.448 12.802 3.924a69 69 0 0 0 5.078.198c1.71 0 3.42-.075 5.078-.198 6.395-.476 9.592-.714 12.801-3.924 3.21-3.209 3.448-6.407 3.924-12.801.123-1.658.198-3.368.198-5.078s-.075-3.42-.198-5.078c-.476-6.395-.714-9.592-3.924-12.802S33.473.675 27.078.2A69 69 0 0 0 22 .001c-1.71 0-3.42.075-5.078.198C10.527.675 7.33.913 4.12 4.122m26.958 8.807A12.75 12.75 0 0 0 22 9.166c-7.073 0-12.83 5.765-12.833 12.839 0 2.566.76 4.96 2.063 6.967l-1.474 5.384 5.5-1.442A12.76 12.76 0 0 0 22 34.834a12.75 12.75 0 0 0 9.078-3.763 12.73 12.73 0 0 0 3.755-9.066 12.75 12.75 0 0 0-3.755-9.076"/></svg>