<svg xmlns="http://www.w3.org/2000/svg" viewBox="0 0 24 24"><path d="M10.783 2.797c.634-.634 1.717-.185 1.717.712 0 .267-.106.523-.294.711l-.356.356-.425.428h6.15l-.425-.428-.355-.356a1 1 0 0 1-.295-.711c0-.897 1.083-1.346 1.717-.712l1.777 1.78C20.664 5.246 21 5.582 21 6s-.335.753-1.006 1.424l-1.777 1.78c-.634.633-1.717.184-1.717-.713 0-.267.106-.523.294-.711l.356-.356.417-.42h-6.134l.417.42.356.356c.188.188.294.444.294.711 0 .897-1.083 1.346-1.717.712l-1.777-1.78C8.336 6.754 8 6.418 8 6s.335-.753 1.006-1.424zm-6.207 9.055.42-.417v6.132l-.42-.417-.356-.355a1 1 0 0 0-.711-.295c-.897 0-1.346 1.083-.712 1.717l1.78 1.777C5.246 20.664 5.582 21 6 21s.753-.335 1.424-1.006l1.78-1.777c.633-.634.184-1.717-.713-1.717-.267 0-.523.106-.711.294l-.356.356-.428.426v-6.15l.428.426.356.355c.188.189.444.295.711.295.897 0 1.346-1.083.712-1.717l-1.78-1.777C6.754 8.338 6.418 8.002 6 8.002s-.753.335-1.424 1.006l-1.78 1.777c-.633.634-.184 1.717.713 1.717.267 0 .523-.106.711-.295z"/><path fill-rule="evenodd" d="M20.13 11.87c-.584-.586-1.203-.65-2.44-.777A17 17 0 0 0 16 11c-.576 0-1.152.037-1.69.093-1.237.127-1.856.19-2.44.776-.586.585-.65 1.204-.777 2.442A17 17 0 0 0 11 16c0 .576.037 1.152.093 1.69.127 1.237.19 1.855.776 2.44.585.586 1.204.65 2.442.777.537.056 1.113.093 1.689.093s1.152-.037 1.69-.093c1.237-.127 1.855-.19 2.44-.776.586-.585.65-1.204.777-2.442.056-.537.093-1.113.093-1.689s-.037-1.152-.093-1.69c-.127-1.237-.19-1.856-.776-2.44"/></svg>