<svg xmlns="http://www.w3.org/2000/svg" viewBox="0 0 16 16"><path d="M7.25 4.002a.75.75 0 1 0 0 1.5h1.5a.75.75 0 1 0 0-1.5z"/><path fill-rule="evenodd" d="M12.336 4.308c-.109-1.13-.163-1.696-.818-2.368s-1.15-.732-2.14-.853a11 11 0 0 0-1.376-.085c-.489 0-.951.033-1.375.085-.99.12-1.485.181-2.14.853-.656.672-.71 1.238-.818 2.368a39 39 0 0 0-.165 3.694c0 1.495.072 2.728.165 3.694.108 1.13.162 1.695.817 2.367s1.15.733 2.14.854a11.3 11.3 0 0 0 2.753 0c.99-.121 1.484-.181 2.139-.854.655-.672.71-1.237.817-2.367.093-.966.165-2.199.165-3.694s-.072-2.728-.164-3.694m-7.174 7.245a37 37 0 0 1-.158-3.551c0-1.447.07-2.631.158-3.55.059-.613.09-.875.148-1.072.035-.117.08-.218.25-.393.194-.198.29-.238.362-.263.148-.051.344-.082.886-.148a9.7 9.7 0 0 1 2.388 0c.543.066.739.097.886.148.073.025.168.065.362.263.17.175.215.276.25.393.059.197.09.459.148 1.071.089.92.159 2.104.159 3.551s-.07 2.632-.159 3.551c-.058.612-.09.874-.148 1.071-.035.117-.08.217-.25.393-.194.198-.289.237-.362.263-.147.05-.343.082-.885.148a10 10 0 0 1-1.195.074c-.422 0-.823-.029-1.194-.074-.543-.066-.739-.097-.886-.148-.073-.026-.168-.065-.361-.263-.171-.176-.216-.276-.25-.393-.06-.197-.09-.459-.149-1.07"/></svg>