<svg xmlns="http://www.w3.org/2000/svg" viewBox="0 0 24 24"><path fill-rule="evenodd" d="M5.72 17.084A55 55 0 0 1 5.5 12c0-2.037.095-3.733.22-5.083.156-1.69.234-2.534 1.231-3.55s1.736-1.098 3.214-1.263C10.735 2.04 11.352 2 12 2c.649 0 1.265.04 1.836.104 1.477.165 2.216.247 3.213 1.263s1.075 1.86 1.231 3.55c.125 1.35.22 3.046.22 5.083s-.095 3.733-.22 5.084c-.156 1.689-.235 2.533-1.231 3.549-.997 1.015-1.735 1.098-3.212 1.263C13.266 21.96 12.65 22 12 22s-1.266-.04-1.837-.104c-1.477-.165-2.215-.248-3.212-1.263-.996-1.016-1.075-1.86-1.231-3.55M10.5 5a1 1 0 0 0 0 2h3a1 1 0 1 0 0-2z"/></svg>