<svg xmlns="http://www.w3.org/2000/svg" viewBox="0 0 24 24"><path d="M10.5 6a1 1 0 0 0 0 2h3a1 1 0 1 0 0-2z"/><path fill-rule="evenodd" d="M12 22c.65 0 1.266-.04 1.837-.104 1.477-.165 2.215-.248 3.212-1.263.996-1.016 1.075-1.86 1.231-3.55.125-1.35.22-3.046.22-5.083s-.095-3.733-.22-5.083c-.156-1.69-.235-2.534-1.231-3.55s-1.736-1.098-3.213-1.263A17 17 0 0 0 12 2c-.649 0-1.265.04-1.835.104-1.478.165-2.217.247-3.214 1.263s-1.075 1.86-1.231 3.55A55 55 0 0 0 5.5 12c0 2.037.095 3.733.22 5.084.156 1.689.235 2.533 1.231 3.549.997 1.015 1.735 1.098 3.212 1.263.571.064 1.188.104 1.837.104m-4.289-5.1A53 53 0 0 1 7.5 12c0-1.975.092-3.609.211-4.898.084-.91.131-1.322.226-1.642.063-.21.151-.397.442-.692.321-.328.497-.409.643-.459.246-.083.561-.128 1.364-.218A15 15 0 0 1 12 4c.567 0 1.109.035 1.614.091.803.09 1.118.135 1.364.218.146.05.322.131.643.459.29.295.38.482.442.692.095.32.142.733.226 1.641.119 1.29.211 2.924.211 4.899s-.092 3.61-.212 4.9c-.084.908-.13 1.32-.225 1.64-.063.21-.151.396-.442.692-.321.328-.497.409-.643.458-.245.084-.56.129-1.363.219-.505.056-1.047.091-1.615.091s-1.11-.035-1.615-.091c-.803-.09-1.118-.135-1.363-.219-.146-.05-.322-.13-.643-.458-.29-.296-.38-.482-.442-.692-.095-.32-.141-.732-.226-1.64"/></svg>