<svg xmlns="http://www.w3.org/2000/svg" viewBox="0 0 24 24"><path d="M14.962 5.275a1 1 0 1 0-1.923-.55l-4 14a1 1 0 0 0 1.922.55zM7 7.003c0-.897-1.086-1.341-1.712-.7L4.102 7.517C2.034 9.634 1 10.693 1 12s1.034 2.366 3.102 4.483l1.186 1.214c.626.641 1.712.197 1.712-.7a1 1 0 0 0-.285-.7l-1.186-1.215c-1.073-1.099-1.736-1.783-2.154-2.344-.378-.506-.378-.682-.378-.735v-.005c0-.054 0-.23.378-.736.418-.561 1.08-1.245 2.154-2.344l1.186-1.214c.183-.187.285-.439.285-.7m10-.001c0-.897 1.086-1.341 1.712-.7l1.186 1.214C21.966 9.634 23 10.693 23 12s-1.034 2.366-3.102 4.483l-1.186 1.214c-.626.641-1.712.197-1.712-.7 0-.262.102-.514.285-.7l1.186-1.215c1.073-1.099 1.736-1.783 2.154-2.344.378-.506.378-.682.378-.735v-.005c0-.054 0-.23-.378-.736-.418-.561-1.08-1.245-2.154-2.344l-1.186-1.214a1 1 0 0 1-.285-.7"/></svg>