<svg xmlns="http://www.w3.org/2000/svg" viewBox="0 0 16 16"><path d="M9.445 2.525c.4.106.64.516.534.916l-2.504 9.497a.75.75 0 0 1-1.45-.383L8.528 3.06a.75.75 0 0 1 .917-.534M4.5 4.75a.76.76 0 0 1-.245.563l-.712.751C2.846 6.8 2.427 7.247 2.165 7.61a1.5 1.5 0 0 0-.195.325c-.017.043-.017.058-.017.066v.002c0 .008 0 .023.017.066.022.056.073.158.195.325.262.363.681.81 1.378 1.545l.691.73a.76.76 0 0 1 .266.58.74.74 0 0 1-.726.751.72.72 0 0 1-.541-.242l-.728-.768C1.168 9.579.5 8.873.5 8.002c0-.872.668-1.577 2.005-2.988l.728-.769A.72.72 0 0 1 3.773 4c.402 0 .727.336.727.75m7.245.563a.76.76 0 0 1-.245-.562c0-.415.325-.751.726-.751.214 0 .408.094.54.245l.729.769C14.832 6.424 15.5 7.13 15.5 8.002s-.668 1.577-2.005 2.988l-.728.768a.72.72 0 0 1-.54.242.74.74 0 0 1-.727-.75c0-.235.103-.443.266-.581l.69-.73c.698-.735 1.117-1.182 1.38-1.545.12-.167.172-.27.194-.325.017-.043.017-.058.017-.066V8c0-.008 0-.023-.017-.066a1.6 1.6 0 0 0-.194-.325c-.263-.363-.682-.81-1.38-1.546z"/></svg>