<svg xmlns="http://www.w3.org/2000/svg" viewBox="0 0 16 16"><path fill-rule="evenodd" d="m13.064 4.018-.205-.076A13.5 13.5 0 0 1 8.81 1.5l-.31-.269A.66.66 0 0 0 8.004 1a.66.66 0 0 0-.495.23l-.31.27a13.5 13.5 0 0 1-5.032 2.776l-.08.024q-.287.083-.582.11c.066.329.289.626.644.764a12 12 0 0 0 2.099.605c-.055.36-.088.778-.127 1.285-.034.453-.065.937-.087 1.436H2c.026.424.09.688.371.975.353.36.756.382 1.561.425L4 9.904V10c0 .591.018 1.182.046 1.75a.75.75 0 0 0 1.5 0A36 36 0 0 1 5.5 9.965 85 85 0 0 0 8 10q1.423-.002 2.5-.035c0 .588-.018 1.216-.048 1.785a.751.751 0 0 0 1.501 0c.028-.568.047-1.159.047-1.75v-.096l.068-.004c.805-.043 1.208-.065 1.561-.425.282-.287.346-.551.371-.975h-2.034a44 44 0 0 0-.087-1.436 18 18 0 0 0-.127-1.283 12 12 0 0 0 2.107-.607c.355-.138.578-.435.644-.764a3 3 0 0 1-.581-.11l-.08-.024a14 14 0 0 1-.778-.258m-7.477.438a15 15 0 0 0 2.417-1.67 15 15 0 0 0 2.418 1.67q-.482.044-.968.044h-2.9q-.486 0-.967-.044m.149 1.516Q6.143 6 6.554 6h2.9q.406 0 .81-.027c.044.27.075.633.119 1.206.032.42.06.865.081 1.321H5.536c.02-.456.049-.9.081-1.32.044-.574.075-.938.119-1.208"/><path d="M2 15h12c-.026-.424-.09-.688-.371-.975-.353-.36-.756-.382-1.562-.425-.955-.052-2.317-.1-4.068-.1s-3.112.048-4.067.1c-.805.043-1.208.065-1.561.425-.282.287-.345.551-.371.975"/></svg>