<svg xmlns="http://www.w3.org/2000/svg" viewBox="0 0 32 32"><path fill-rule="evenodd" d="M16.959 3.408q.039.034.079.066l.423.343a27.35 27.35 0 0 0 10.082 5.13q.473.128.957.18a1.97 1.97 0 0 1-1.282 1.45 24 24 0 0 1-3.749 1.015c.142.783.213 1.708.302 2.867q.058.747.105 1.541H28c-.094.583-.275 1.009-.701 1.435-.697.697-1.508.746-3.13.843l-.193.011q.023.852.024 1.711c0 1.358-.05 2.717-.124 4H20v-5.55q-1.794.048-4.001.05-2.206-.002-3.999-.05V24H8.124A69 69 0 0 1 8 20q0-.86.024-1.71l-.193-.012c-1.622-.097-2.433-.146-3.13-.843C4.276 17.01 4.096 16.583 4 16h4.124q.047-.794.105-1.541c.089-1.159.16-2.084.302-2.867a24 24 0 0 1-3.749-1.015A1.97 1.97 0 0 1 3.5 9.127a6 6 0 0 0 .956-.18 27.35 27.35 0 0 0 10.081-5.13l.424-.343.09-.076c.24-.245.576-.398.95-.398.377 0 .717.157.958.408M12 16h8v-4.02q-.48.02-.963.02h-6.074q-.481 0-.963-.02z"/><path d="M4 29h24c-.094-.583-.275-1.009-.701-1.435-.697-.697-1.508-.746-3.13-.843-1.925-.115-4.66-.222-8.17-.222s-6.243.107-8.168.222c-1.622.097-2.433.146-3.13.843-.426.426-.606.852-.701 1.435"/></svg>