<svg xmlns="http://www.w3.org/2000/svg" viewBox="0 0 32 32"><path fill-rule="evenodd" d="m14.537 3.817.424-.343c.24-.245.666-.474 1.04-.474.377 0 .796.223 1.037.474l.423.343a27.3 27.3 0 0 0 10.082 5.13q.473.128.957.18a1.97 1.97 0 0 1-1.282 1.45l-.126.044a24 24 0 0 1-3.623.97c.142.784.213 1.71.302 2.868.074.96.137 1.985.178 3.041H28c-.094.583-.275 1.009-.701 1.435-.697.697-1.508.746-3.13.843l-.17.01L24 20c0 1.125-.034 2.25-.088 3.331a1.235 1.235 0 0 1-1.238 1.169c-.722 0-1.293-.61-1.257-1.332.051-1.035.083-2.2.083-3.263-1.546.056-3.382.095-5.501.095-2.118 0-3.953-.039-5.499-.095 0 1.064.031 2.228.083 3.263A1.265 1.265 0 0 1 9.326 24.5a1.235 1.235 0 0 1-1.238-1.169A67 67 0 0 1 8 19.788l-.169-.01c-1.622-.097-2.433-.146-3.13-.843-.426-.426-.606-.852-.701-1.435h4.05c.042-1.056.105-2.082.179-3.041.089-1.159.16-2.084.302-2.867a24 24 0 0 1-3.749-1.015A1.97 1.97 0 0 1 3.5 9.127q.483-.053.956-.18a28 28 0 0 0 1.735-.53 27.3 27.3 0 0 0 8.346-4.6m-3.522 8.105c-.11.572-.192 1.407-.294 2.728a81 81 0 0 0-.168 2.85h10.894a81 81 0 0 0-.168-2.85c-.102-1.32-.184-2.155-.294-2.728q-.971.078-1.948.078h-6.074a24 24 0 0 1-1.948-.078M16 5.849a29.7 29.7 0 0 0 5.54 3.507q-1.245.144-2.502.144h-6.074q-1.258 0-2.503-.145A29.7 29.7 0 0 0 16 5.85"/><path d="M28 29H4c.095-.583.275-1.009.702-1.435.696-.697 1.507-.746 3.13-.843 1.924-.115 4.657-.222 8.167-.222s6.245.107 8.17.222c1.622.097 2.433.146 3.13.843.426.426.607.852.701 1.435"/></svg>