<svg xmlns="http://www.w3.org/2000/svg" viewBox="0 0 44 44"><path d="M12.808 21.765a1.5 1.5 0 0 0-2.615 1.47l.024.044.069.12.258.451a140 140 0 0 0 3.968 6.473c1.159 1.766 2.428 3.575 3.594 4.957.58.687 1.17 1.312 1.738 1.778.491.403 1.26.942 2.156.942s1.665-.539 2.157-.942c.568-.466 1.158-1.091 1.738-1.778 1.165-1.382 2.435-3.19 3.594-4.957a142 142 0 0 0 4.226-6.924l.068-.12.025-.044a1.5 1.5 0 1 0-2.615-1.47l-.001.001-.02.036-.065.114-.25.437c-.218.378-.532.919-.918 1.569a128 128 0 0 1-2.958 4.755c-1.138 1.734-2.33 3.425-3.38 4.668l-.1.12V5.5a1.5 1.5 0 0 0-3 0v27.965l-.102-.12c-1.05-1.243-2.241-2.934-3.379-4.668a128 128 0 0 1-2.958-4.755 140 140 0 0 1-1.169-2.006l-.064-.114z"/></svg>