<svg xmlns="http://www.w3.org/2000/svg" viewBox="0 0 32 32"><path d="M12.64.54a1.286 1.286 0 0 1 2.028 1.052c0 .662-.32 1.006-.82 1.36-.571.403-1.054.747-1.463 1.048h3.616c.933 0 1.865.04 2.77.108 3.488.26 5.232.39 6.982 2.14s1.88 3.494 2.14 6.982c.067.905.108 1.837.108 2.77s-.04 1.865-.108 2.77c-.26 3.488-.39 5.232-2.14 6.982s-3.494 1.88-6.983 2.14c-.904.067-1.836.108-2.769.108s-1.865-.04-2.77-.108c-3.488-.26-5.232-.39-6.982-2.14s-1.907-3.494-2.166-6.982A40 40 0 0 1 4 17.333 1.295 1.295 0 0 1 5.308 16c.736 0 1.331.597 1.362 1.333q.026.623.072 1.239c.273 3.667.45 4.353 1.393 5.294.941.942 1.627 1.094 5.294 1.367.85.063 1.716.1 2.572.1s1.722-.037 2.572-.1c3.667-.273 4.353-.425 5.294-1.367.942-.941 1.094-1.627 1.367-5.294.063-.85.1-1.716.1-2.572s-.037-1.722-.1-2.572c-.273-3.667-.425-4.353-1.367-5.294-.941-.942-1.627-1.094-5.294-1.367-.85-.063-1.716-.1-2.572-.1h-3.616c.41.3.892.644 1.463 1.048.5.354.82.698.82 1.36a1.286 1.286 0 0 1-2.029 1.051l-.006-.004C9.546 7.942 8 6.852 8 5.333S9.546 2.724 12.633.545z"/><path d="M11.566 12 10 13.274v1.855l1.566-1.32v6.043h1.842V12zm7.284 6.236q-.254.25-.762.25-.551 0-.805-.227-.253-.24-.32-.74h-1.94q.066 1.297.849 1.89.782.591 2.217.591 1.39 0 2.15-.671.76-.684.761-2.094 0-1.24-.629-1.89-.628-.648-1.852-.648-.562 0-.949.16-.375.147-.595.375l.132-1.593h3.364V12h-4.787l-.342 4.085 1.622.364a1.3 1.3 0 0 1 .452-.352q.264-.137.662-.137.507 0 .771.262.265.25.265.83v.353q0 .58-.265.831"/></svg>