<svg xmlns="http://www.w3.org/2000/svg" viewBox="0 0 16 16"><path d="M6.986.341a.643.643 0 0 1 1.015.526c0 .407-.222.75-.583 1.006L7.24 2H8c.466 0 .932.02 1.384.054 1.744.13 2.616.195 3.492 1.07s.94 1.747 1.07 3.491C13.98 7.067 14 7.534 14 8s-.02.933-.054 1.385c-.13 1.744-.195 2.616-1.07 3.491-.876.875-1.748.94-3.492 1.07A19 19 0 0 1 8 14c-.467 0-.933-.02-1.385-.054-1.744-.13-2.616-.195-3.491-1.07-.876-.875-.957-1.747-1.087-3.491A20 20 0 0 1 2 8.75.725.725 0 0 1 2.733 8c.414 0 .749.336.768.75q.013.263.032.524c.137 1.844.231 2.121.651 2.541s.697.498 2.542.635c.422.032.85.05 1.274.05.423 0 .852-.018 1.273-.05 1.845-.137 2.122-.214 2.542-.635.42-.42.497-.697.635-2.541.031-.422.05-.85.05-1.274 0-.423-.019-.852-.05-1.273-.138-1.845-.215-2.122-.635-2.542s-.697-.498-2.542-.635C8.852 3.519 8.423 3.5 8 3.5h-.76l.097.07.045.031c.36.257.618.6.618 1.007a.643.643 0 0 1-1.015.526l-.55-.386C5.22 3.903 4.5 3.402 4.5 2.738c0-.665.72-1.166 1.934-2.011z"/><path d="m5.2 6.774.781-.616H6.9v3.795h-.92v-2.92l-.78.637zm4.134 2.519q.253 0 .38-.12.13-.121.131-.402V8.6q0-.282-.132-.402-.132-.127-.385-.127a.74.74 0 0 0-.33.066.65.65 0 0 0-.225.17l-.809-.175.17-1.975h2.388v.792H8.844l-.066.77a.8.8 0 0 1 .297-.181q.193-.077.473-.077.61 0 .924.313.315.315.314.913 0 .682-.38 1.012-.38.325-1.072.325-.715 0-1.106-.286-.39-.285-.423-.913h.968q.033.242.16.357.127.11.4.11"/></svg>