<svg xmlns="http://www.w3.org/2000/svg" viewBox="0 0 44 44"><path fill-rule="evenodd" d="M7.673 7.857C10.2 6.519 15.76 4 21.955 4c5.562 0 11.57 2.612 14.216 3.902a4.13 4.13 0 0 1 2.329 3.745c-.014 2.398-.24 7.055-1.604 11.77-1.209 4.177-3.572 8.243-6.228 11.28-1.33 1.521-2.767 2.821-4.21 3.752-1.425.918-2.975 1.551-4.502 1.551-1.535 0-3.075-.645-4.479-1.573-1.422-.941-2.825-2.253-4.118-3.78-2.581-3.05-4.852-7.116-6-11.246-1.296-4.665-1.715-9.279-1.852-11.665-.091-1.59.716-3.112 2.166-3.879m5.559 9.247a1.5 1.5 0 0 0 2.109-.075l.003-.003q.014-.015.058-.054c.06-.053.154-.128.274-.203.25-.158.536-.269.824-.269.289 0 .574.11.824.269a2.2 2.2 0 0 1 .332.257l.004.003a1.5 1.5 0 0 0 2.109.075 1.5 1.5 0 0 0 .088-2.12c-.003-.003 0 0 0 0l-.001-.001-.002-.002-.003-.004-.008-.008-.02-.021a4 4 0 0 0-.246-.233 5 5 0 0 0-.65-.484c-.543-.342-1.384-.731-2.427-.731s-1.883.39-2.426.731a5.2 5.2 0 0 0-.838.658l-.058.059-.02.021-.008.008-.004.004-.001.002h-.001v.002a1.5 1.5 0 0 0 .088 2.119m13.119-.075a1.5 1.5 0 0 1-2.11.075 1.5 1.5 0 0 1-.088-2.12h.001v-.001l.002-.002.004-.004.008-.008.02-.021a4 4 0 0 1 .246-.233 5 5 0 0 1 .65-.484c.543-.342 1.384-.731 2.426-.731s1.884.39 2.427.731a5.2 5.2 0 0 1 .837.658l.059.059.02.021.008.008.003.004.002.002.002.002a1.5 1.5 0 0 1-.089 2.119 1.5 1.5 0 0 1-2.11-.075l-.002-.003-.059-.054a2 2 0 0 0-.273-.203c-.251-.158-.536-.269-.825-.269s-.573.11-.824.269a2.2 2.2 0 0 0-.332.257zm-9.338 6.221a1.257 1.257 0 0 0-1.234 1.518c.037.177.35 1.59 1.22 2.99.876 1.41 2.453 2.992 5.006 2.992s4.13-1.583 5.007-2.993a10 10 0 0 0 1.22-2.99 1.257 1.257 0 0 0-1.234-1.517z"/></svg>