<svg xmlns="http://www.w3.org/2000/svg" viewBox="0 0 32 32"><path fill-rule="evenodd" d="M12.266 8.265a4.7 4.7 0 0 0-1.238 1.215 41 41 0 0 0-1.986 3.14 41 41 0 0 0-1.639 3.154 4.9 4.9 0 0 0-.46 2.22 4.3 4.3 0 0 0 .791 2.37c-.83.271-1.557.758-2.041 1.423-.36.491-.64 1.08-.68 1.75a8 8 0 0 0 0 .927c.118 1.99 1.945 3.264 3.92 3.406 1.035.074 2.326.13 3.87.13h4.548c1.332 0 2.71-.915 3.476-1.96 1.024-1.396.579-3.258-.439-4.659q-.584-.804-1.39-1.868a31 31 0 0 0 2.657-.755c1.98-.664 3.222-2.572 2.742-4.617a12 12 0 0 0-.174-.655c-.42-1.409-1.537-2.335-2.87-2.62a5 5 0 0 0 .877-2.845C22.23 5.248 19.998 3 17.245 3S12.26 5.248 12.26 8.021q0 .123.005.244m4.894 3.186c-.205-.298-.319-.525-.24-.71.04-.092.215-.127.464-.175 1.022-.197 1.778-.646 2.19-1.617.113-.287.174-.6.174-.928A2.51 2.51 0 0 0 17.245 5.5c-1.027 0-1.91.623-2.296 1.515l.004.003c-.5 1.282.036 2.143.352 2.65.133.213.227.364.188.457-.099.232-.492.27-1.032.321-.536.052-1.078.01-1.407.478a38 38 0 0 0-1.862 2.947 38 38 0 0 0-1.539 2.959c-.346.749-.272 1.465.021 1.96.902 1.507 2.29 2.631 3.642 3.71-1.6-.003-3.222-.045-4.805.238-.445.146-.988.414-1.02.946a5 5 0 0 0 0 .632c.014.226.104.421.337.615.261.216.746.406 1.282.445.976.07 2.209.124 3.693.124h4.548c.615 0 1.687-.538 1.563-1.45-.044-.324-.212-.756-.529-1.192-1.196-1.646-2.454-3.228-3.693-4.843a1.256 1.256 0 0 1 .223-1.754 1.237 1.237 0 0 1 1.64.108c1.252 1.146 2.905.49 4.316.017.947-.317 1.252-1.067 1.11-1.67-.04-.168-.071-.343-.134-.504l-.002-.008c-.142-.478-.585-.894-1.264-.93a3.2 3.2 0 0 0-1.228.025q-.38.08-.85.186l-.238-.425a10.6 10.6 0 0 0-1.105-1.61"/></svg>