<svg xmlns="http://www.w3.org/2000/svg" viewBox="0 0 44 44"><path fill-rule="evenodd" d="M29.25 15.52a6.96 6.96 0 0 0 1.657-4.519c0-3.866-3.143-7.001-7.02-7.001a7.015 7.015 0 0 0-6.986 6.295 8 8 0 0 0-.027 1.137 6.5 6.5 0 0 0-1.62 1.605 56 56 0 0 0-2.76 4.32 56 56 0 0 0-2.372 4.543c-.613 1.33-.756 2.766-.44 4.079a5.6 5.6 0 0 0 1.466 2.636c-.98.4-1.822 1.03-2.388 1.849A4.25 4.25 0 0 0 8 32.997l.001.145c.04 2.763 2.531 4.557 5.296 4.732a67 67 0 0 0 4.202.126h5.482c2.197 0 4.167-1.324 5.34-3.126 1.113-1.707.755-3.863-.357-5.571a59 59 0 0 0-1.693-2.455 46 46 0 0 0 3.758-1.052c2.741-.9 4.524-3.492 3.815-6.282a14 14 0 0 0-.096-.356c-.601-2.123-2.413-3.415-4.499-3.638m-5.569-.7c-.157.367.114.823.566 1.525.316.423.673.954 1.056 1.615q.28.484.51.91.825-.19 1.473-.324a4.6 4.6 0 0 1 1.698-.044c.547.065.99.282 1.315.582.27.238.475.548.58.94q.03.113.047.222c.243.957-.278 2.187-1.838 2.7q-.885.292-1.993.597a89 89 0 0 1-6.096 1.62c1.593 1.902 3.068 3.664 4.44 5.773.723 1.11.601 1.932.36 2.304-.67 1.026-1.615 1.615-2.808 1.76h-5.492c-1.568 0-2.906-.05-4.011-.12-.82-.053-1.5-.343-1.925-.699-.385-.322-.547-.67-.553-1.082v-.206c.007-.46.245-.974.974-1.36 1.028-.5 3.45-.524 6.46-.527a53 53 0 0 0-.781-.555c-1.407-.988-2.663-1.87-4.613-4.214l.004-.004c-.577-.777-.736-1.914-.198-3.079a53 53 0 0 1 2.244-4.297 53 53 0 0 1 2.609-4.086c.392-.553 1.09-.508 1.73-.59.769-.1 1.304-.17 1.448-.507.054-.126-.072-.332-.25-.623-.432-.705-1.171-1.912-.404-3.701l-.001-.001A4.01 4.01 0 0 1 23.886 7a4.006 4.006 0 0 1 3.758 5.407c-.767 1.79-2.341 2.038-3.26 2.184-.38.06-.649.102-.703.228"/></svg>