<svg xmlns="http://www.w3.org/2000/svg" viewBox="0 0 16 16"><path d="M9.241 5.496a2.247 2.247 0 0 0 2.246-2.248 2.247 2.247 0 1 0-4.09 1.282c-.749-.095-1.501.245-1.99.884-.299.392-.639.887-.988 1.493q-.41.717-.682 1.275c-.509 1.039-.303 2.282.674 2.901.27.172.56.335.868.427q-.728.017-1.237.048c-.752.043-1.544.437-1.544 1.192s.792 1.149 1.544 1.192c.546.031 1.281.058 2.202.058h2.552c.768 0 1.197-.517 1.197-1.239 0-.361-.07-.719-.244-1.035-.238-.433-.673-1.139-1.402-2.068.343-.073.758-.17 1.24-.3a23 23 0 0 0 1.397-.418c.626-.21 1.152-.75.981-1.388-.17-.64-.896-.844-1.543-.712q-.377.076-.886.2c.054-.56-.085-1.114-.427-1.548q.066.004.132.004"/></svg>