<svg xmlns="http://www.w3.org/2000/svg" viewBox="0 0 24 24"><path d="M14 8a3 3 0 1 0-2.246-1.011c-1.386-.402-2.855.265-3.704 1.53a32 32 0 0 0-1.144 1.842c-.413.715-.75 1.355-1.023 1.912-.764 1.558-.455 3.424 1.011 4.352.232.146.47.288.72.405q-.681.022-1.212.054C5.213 17.154 4 17.81 4 19s1.213 1.845 2.402 1.916c.786.046 1.82.084 3.098.084h3.501C14.19 21 15 20.424 15 19.144c0-.538-.104-1.08-.367-1.557-.358-.649-1.01-1.708-2.104-3.1a37 37 0 0 0 1.857-.45 36 36 0 0 0 2.092-.623c.94-.315 1.73-1.125 1.473-2.083s-1.346-1.266-2.318-1.068q-.561.113-1.319.298c.095-.977-.203-1.94-.912-2.62q.29.058.598.059"/></svg>