<svg xmlns="http://www.w3.org/2000/svg" viewBox="0 0 32 32"><path d="M18.286 10.66c0-1.225-1.033-2.222-2.303-2.222-1.269 0-2.303.997-2.303 2.222s1.034 2.223 2.303 2.223c1.27 0 2.303-.998 2.303-2.223"/><path fill-rule="evenodd" d="M.142 12.308c.346-4.651.52-6.977 2.853-9.31C5.33.662 7.655.49 12.305.143 13.512.054 14.756 0 16 0s2.487.054 3.693.144c4.65.346 6.976.52 9.31 2.853s2.507 4.66 2.853 9.31c.09 1.206.144 2.45.144 3.694a50 50 0 0 1-.144 3.693c-.346 4.65-.519 6.976-2.853 9.31s-4.66 2.507-9.31 2.853c-1.206.09-2.45.144-3.693.144a50 50 0 0 1-3.693-.144c-4.651-.346-6.976-.519-9.31-2.853s-2.508-4.66-2.854-9.31A50 50 0 0 1-.002 16a50 50 0 0 1 .144-3.693m15.843 3.72c3.068 0 5.562-2.408 5.562-5.368s-2.494-5.37-5.562-5.37-5.562 2.41-5.562 5.37 2.494 5.368 5.562 5.368m2.263 4.38a10.6 10.6 0 0 0 3.23-1.29c.76-.464.99-1.435.51-2.17-.479-.736-1.484-.958-2.247-.495a7.28 7.28 0 0 1-7.488 0c-.762-.463-1.768-.241-2.246.495-.48.735-.251 1.706.51 2.17a10.6 10.6 0 0 0 3.23 1.29l-3.11 3.002a1.535 1.535 0 0 0 0 2.224c.32.307.736.46 1.152.46.418 0 .835-.153 1.154-.46l3.054-2.95 3.057 2.95a1.67 1.67 0 0 0 2.303 0 1.533 1.533 0 0 0 0-2.224z"/></svg>