<svg xmlns="http://www.w3.org/2000/svg" viewBox="0 0 24 24"><path d="M15 16h-1a1 1 0 1 1 0-2h1a1 1 0 1 1 0 2m-6-2a1 1 0 1 0 0 2h1a1 1 0 1 0 0-2z"/><path fill-rule="evenodd" d="M5 12v8.5a1.5 1.5 0 0 0 3 0V20h8v.5a1.5 1.5 0 0 0 3 0V12c0-1.554-.06-2.91-.148-4.065-.057-.75-.103-1.363-.204-1.903-.333-1.797-1.832-3.44-3.648-3.807-.504-.101-1.067-.138-1.763-.184a19 19 0 0 0-2.474 0c-.696.046-1.259.083-1.763.184-1.816.368-3.314 2.01-3.648 3.807-.1.54-.147 1.153-.204 1.903A54 54 0 0 0 5 12m2 6v-6c0-1.503.058-2.808.142-3.913.084-1.098.134-1.629.263-2.055.227-.754.988-1.548 1.744-1.784.347-.108.768-.147 1.745-.211a17 17 0 0 1 2.212 0c.978.064 1.399.103 1.745.211.756.236 1.517 1.03 1.745 1.784.128.426.179.957.262 2.055A52 52 0 0 1 17 12v6z"/><path d="M20.995 12a1.01 1.01 0 0 1-1.006-.998 74 74 0 0 0-.159-3.918A1.01 1.01 0 0 1 20.835 6c.52 0 .953.398.988.917.084 1.215.155 2.576.177 4.08A1 1 0 0 1 20.995 12M4.169 7.084A1.01 1.01 0 0 0 3.164 6a.987.987 0 0 0-.989.917A75 75 0 0 0 2 10.997 1 1 0 0 0 3.004 12a1.01 1.01 0 0 0 1.006-.998c.021-1.446.08-2.752.159-3.918"/></svg>