<svg xmlns="http://www.w3.org/2000/svg" viewBox="0 0 16 16"><path d="M6.75 10.75h-1a.75.75 0 0 1 0-1.5h1a.75.75 0 0 1 0 1.5m2.5-1.5a.75.75 0 0 0 0 1.5h1a.75.75 0 0 0 0-1.5z"/><path fill-rule="evenodd" d="M3.09 5.354C3.036 6.13 3 7.016 3 8.001V14a1 1 0 1 0 2 0v-.5h6v.5a1 1 0 1 0 2 0V8c0-.984-.036-1.87-.09-2.645-.113-1.625-.17-2.437-1.064-3.322-.895-.884-1.626-.926-3.09-1.01a13 13 0 0 0-1.513 0c-1.463.084-2.194.126-3.089 1.01-.895.885-.951 1.697-1.064 3.321m8.41 2.647V12h-7V8c0-.948.035-1.8.086-2.542.06-.862.097-1.305.19-1.649.07-.254.168-.447.433-.709.285-.282.472-.37.675-.426.292-.08.663-.109 1.445-.154a12 12 0 0 1 1.341 0c.783.045 1.154.074 1.446.154.203.056.39.144.675.426.265.262.364.455.432.71.094.343.13.786.19 1.649.053.742.087 1.593.087 2.542"/><path d="M2.1 4.806A.76.76 0 0 0 1.348 4a.74.74 0 0 0-.742.694A56 56 0 0 0 .5 7.247.75.75 0 0 0 1.253 8a.76.76 0 0 0 .755-.747q.024-1.323.093-2.447M14.747 8a.76.76 0 0 1-.755-.747 56 56 0 0 0-.093-2.447.76.76 0 0 1 .754-.806.74.74 0 0 1 .742.694c.048.781.09 1.634.105 2.553a.75.75 0 0 1-.753.753"/></svg>