<svg xmlns="http://www.w3.org/2000/svg" viewBox="0 0 24 24"><path fill-rule="evenodd" d="M5 12c0-1.554.06-2.91.148-4.065.058-.765.105-1.387.21-1.935.34-1.784 1.84-3.41 3.642-3.775.504-.101 1.067-.138 1.763-.184a19 19 0 0 1 2.474 0c.696.046 1.26.083 1.763.184 1.802.365 3.302 1.991 3.642 3.775.105.548.152 1.17.21 1.934A54 54 0 0 1 19 12v8.5a1.5 1.5 0 0 1-3 0V20H8v.5a1.5 1.5 0 0 1-3 0zm2.5 3a1 1 0 0 1 1-1h1a1 1 0 1 1 0 2h-1a1 1 0 0 1-1-1m8 1h-1a1 1 0 1 1 0-2h1a1 1 0 1 1 0 2"/><path d="M20.993 12a1.01 1.01 0 0 1-1.006-.998 74 74 0 0 0-.159-3.918A1.01 1.01 0 0 1 20.833 6c.52 0 .953.398.989.917.083 1.215.157 2.576.178 4.08A1 1 0 0 1 20.993 12M3.162 6c.585 0 1.044.5 1.005 1.084a74 74 0 0 0-.159 3.918A1.01 1.01 0 0 1 3.002 12 1 1 0 0 1 2 10.997c.022-1.504.09-2.865.173-4.08A.987.987 0 0 1 3.163 6"/></svg>