<svg xmlns="http://www.w3.org/2000/svg" viewBox="0 0 16 16"><path fill-rule="evenodd" d="M3 8c0-.984.036-1.87.09-2.646.113-1.624.17-2.436 1.064-3.32.895-.885 1.626-.927 3.089-1.012a13 13 0 0 1 1.514 0c1.463.085 2.194.127 3.089 1.012.895.884.951 1.696 1.064 3.32.054.776.09 1.662.09 2.647V14a1 1 0 1 1-2 0v-.5H5v.5a1 1 0 1 1-2 0zm3.25 2.75h-1a.75.75 0 0 1 0-1.5h1a.75.75 0 0 1 0 1.5M9 10a.75.75 0 0 1 .75-.75h1a.75.75 0 0 1 0 1.5h-1A.75.75 0 0 1 9 10"/><path d="M14.747 8a.76.76 0 0 1-.755-.747 56 56 0 0 0-.093-2.447.76.76 0 0 1 .754-.806.74.74 0 0 1 .742.694c.048.781.09 1.634.105 2.553a.75.75 0 0 1-.753.753m-13.4-4c.436 0 .78.37.754.806a56 56 0 0 0-.093 2.447.76.76 0 0 1-.755.747.75.75 0 0 1-.753-.753c.015-.92.058-1.772.105-2.553A.74.74 0 0 1 1.347 4"/></svg>