<svg xmlns="http://www.w3.org/2000/svg" viewBox="0 0 24 24"><path d="M19.927 11.889q.269-.506.455-.955c.83-1.985.469-4.7-1.066-6.234-1.578-1.58-4.353-1.9-6.368-1.016-1.005.44-2.213 1.154-3.594 2.298l.004-.004-.03.025.026-.02a1.02 1.02 0 0 0-.064 1.469l.002.002a.975.975 0 0 0 1.34.065l.036-.03c1.238-1.02 2.276-1.62 3.083-1.975 1.249-.548 3.17-.384 4.152.599.946.946 1.148 2.825.636 4.049q-.163.393-.416.862a1 1 0 0 0-.12.484 1 1 0 0 0 1.924.38m-8.837 6.178a8.3 8.3 0 0 1-1.348.592c-1.15.381-2.8.076-3.629-.752-.906-.906-1.15-2.683-.68-3.895.322-.834.926-1.962 2.059-3.343l.03-.037a.975.975 0 0 0-.066-1.339l-.002-.002a1.02 1.02 0 0 0-1.47.065l.02-.024-.024.028.004-.004c-1.273 1.543-2.003 2.868-2.416 3.935-.75 1.94-.345 4.552 1.132 6.03 1.377 1.377 3.812 1.852 5.67 1.236a10.5 10.5 0 0 0 1.712-.754c.26-.18.426-.488.426-.828a1 1 0 0 0-1.417-.908"/><path d="M14.713 10.716A1 1 0 0 0 13.3 9.302L9.303 13.3a1 1 0 0 0 1.413 1.413zM18.003 22a1 1 0 0 1-.999-1v-1.998h-1.998a1 1 0 0 1 0-2h1.998v-1.998a1 1 0 1 1 1.999 0v1.999H21a1 1 0 0 1 0 1.999h-1.998V21a1 1 0 0 1-1 .999"/></svg>