<svg xmlns="http://www.w3.org/2000/svg" viewBox="0 0 24 24"><path fill-rule="evenodd" d="m9.042 16.795-.393-3.17a2.46 2.46 0 0 1-1.272-1.927L7.175 9.57c-.093-.983.295-1.96 1.08-2.56.18-.138.343-.256.452-.323a3.5 3.5 0 1 1 6.587 0c.108.067.27.185.451.324.785.599 1.173 1.576 1.08 2.559l-.202 2.128a2.46 2.46 0 0 1-1.272 1.927l-.393 3.17a9 9 0 0 1-.085.468c.583.11.924.219 1.432.764.567.608.602.93.672 1.573q.022.204.023.4c0 .943 0 1.414-.293 1.707s-.764.293-1.706.293H9c-.942 0-1.413 0-1.706-.293S7 20.943 7 20q0-.196.023-.399c.07-.644.105-.966.671-1.574.509-.545.85-.654 1.434-.764a9 9 0 0 1-.086-.468M12 17h.883a8 8 0 0 0 .093-.478l.517-4.163.902-.49a.46.46 0 0 0 .237-.36l.202-2.128c.033-.354-.111-.635-.303-.781l-.206-.154-.08-.056-1.384-.853.551-1.528q.086-.235.088-.509a1.5 1.5 0 1 0-2.912.509l.551 1.528-1.383.853-.081.056q-.084.06-.206.154c-.192.146-.336.427-.302.781l.201 2.128a.46.46 0 0 0 .237.36l.902.49.517 4.163c.015.1.048.28.093.478zm0 2a13 13 0 0 0-2.683.266l-.044.01a2 2 0 0 0-.226.24c-.009.06-.018.14-.036.301A2 2 0 0 0 9 20h6q0-.068-.011-.183a7 7 0 0 0-.037-.3 2 2 0 0 0-.225-.24l-.044-.011A13 13 0 0 0 12 19"/></svg>