<svg xmlns="http://www.w3.org/2000/svg" viewBox="0 0 24 24"><path fill-rule="evenodd" d="m14.02 16.636.003-.015.486-3.992.508-.281a1.49 1.49 0 0 0 .76-1.168l.214-2.292c.064-.695-.21-1.34-.701-1.723a10 10 0 0 0-.36-.268l-.013-.008-.797-.5.315-.892c.097-.274.15-.57.15-.882C14.585 3.19 13.445 2 12 2S9.415 3.189 9.415 4.615c0 .312.053.608.15.882l.315.891-.796.5-.013.009q-.022.014-.12.085-.104.076-.24.183c-.493.382-.766 1.028-.702 1.723l.213 2.292c.045.486.326.927.761 1.168l.508.281.486 3.992.002.015.002.01A13 13 0 0 1 12 16.5c.804 0 1.473.06 2.019.146z"/><path d="M12 22h2.502c.941 0 1.412 0 1.705-.293s.293-.764.293-1.707c0-.727-.264-1.057-.408-1.184-.013-.01-.019-.016-.068-.05a1 1 0 0 0-.122-.071C15.57 18.52 14.374 18 12 18s-3.57.522-3.902.695a1 1 0 0 0-.19.121c-.144.126-.408.457-.408 1.184 0 .943 0 1.414.293 1.707S8.557 22 9.499 22z"/></svg>