<svg xmlns="http://www.w3.org/2000/svg" viewBox="0 0 32 32"><path d="M14.583 17.334a1.25 1.25 0 0 0-2.5 0v4a1.25 1.25 0 1 0 2.5 0zm4.084-1.25c.69 0 1.25.56 1.25 1.25v4a1.25 1.25 0 1 1-2.5 0v-4c0-.69.56-1.25 1.25-1.25"/><path fill-rule="evenodd" d="M13 6.74a1.25 1.25 0 0 0-2.322-.633L7.742 11H4.25a1.25 1.25 0 0 0-.16 2.49A36 36 0 0 0 4 16c0 .933.04 1.865.108 2.77.26 3.488.39 5.232 2.14 6.982s3.494 1.88 6.982 2.14c.904.067 1.837.108 2.77.108.932 0 1.865-.04 2.77-.108 3.487-.26 5.231-.39 6.982-2.14 1.75-1.75 1.88-3.494 2.14-6.982.067-.905.108-1.837.108-2.77 0-.844-.034-1.687-.09-2.51a1.25 1.25 0 0 0-.16-2.49h-3.492l-2.936-4.893a1.25 1.25 0 1 0-2.144 1.286L21.342 11H10.658l2.164-3.606c.123-.205.18-.431.178-.654M6.595 13.5h18.81c.06.826.095 1.667.095 2.5 0 .861-.038 1.731-.101 2.584-.273 3.656-.423 4.408-1.415 5.4s-1.744 1.143-5.4 1.415c-.853.063-1.723.101-2.584.101a35 35 0 0 1-2.584-.101c-3.656-.272-4.408-.422-5.4-1.415-.993-.992-1.143-1.744-1.415-5.4A35 35 0 0 1 6.5 16c0-.833.035-1.674.095-2.5"/></svg>