<svg xmlns="http://www.w3.org/2000/svg" viewBox="0 0 28 28"><path fill-rule="evenodd" d="M10.515 5.145a1 1 0 0 1 .342 1.372L8.768 10h10.466l-2.09-3.483a1 1 0 0 1 1.715-1.03l2.559 4.266a1 1 0 0 1 .106.247H25a1 1 0 1 1 0 2h-.063c.04.658.063 1.33.063 2 0 .855-.037 1.71-.099 2.539-.238 3.197-.357 4.796-1.962 6.4s-3.203 1.724-6.4 1.962c-.83.062-1.684.1-2.54.1-.854 0-1.71-.038-2.538-.1-3.198-.238-4.796-.357-6.401-1.961s-1.724-3.204-1.962-6.401a35 35 0 0 1-.099-2.54c0-.67.023-1.34.063-1.999H3a1 1 0 1 1 0-2h3.477a1 1 0 0 1 .106-.247l2.56-4.265a1 1 0 0 1 1.371-.343M12.6 15.5a1.1 1.1 0 0 0-2.2 0v4a1.1 1.1 0 0 0 2.2 0zm3.9-1.1a1.1 1.1 0 0 1 1.1 1.1v4a1.1 1.1 0 0 1-2.2 0v-4a1.1 1.1 0 0 1 1.1-1.1"/></svg>