<svg xmlns="http://www.w3.org/2000/svg" viewBox="0 0 16 16"><path d="M7.497 8.75A.748.748 0 1 0 6 8.75v1.5a.748.748 0 1 0 1.497 0zM9.25 8a.75.75 0 0 1 .75.75v1.5a.75.75 0 0 1-1.5 0v-1.5A.75.75 0 0 1 9.25 8"/><path fill-rule="evenodd" d="M6.643 3.636a.75.75 0 1 0-1.286-.772L4.075 5H1.751a.75.75 0 1 0 0 1.5h.311l-.008.115A19 19 0 0 0 2 8c0 .466.02.933.054 1.385.13 1.744.195 2.616 1.07 3.491s1.747.94 3.491 1.07C7.067 13.98 7.533 14 8 14s.932-.02 1.385-.054c1.744-.13 2.616-.195 3.49-1.07.876-.875.941-1.747 1.07-3.491a18 18 0 0 0 .001-2.77l-.009-.115h.314a.75.75 0 0 0 0-1.5h-2.326l-1.282-2.136a.75.75 0 1 0-1.286.772L10.175 5h-4.35zM3.567 6.5h8.866l.017.227c.031.42.05.85.05 1.273s-.019.852-.05 1.273c-.137 1.845-.215 2.122-.635 2.542s-.697.498-2.542.635c-.421.032-.85.05-1.273.05-.424 0-.852-.018-1.274-.05-1.844-.137-2.121-.214-2.542-.635-.42-.42-.497-.697-.634-2.542-.032-.42-.05-.85-.05-1.273a17 17 0 0 1 .067-1.5"/></svg>