<svg xmlns="http://www.w3.org/2000/svg" viewBox="0 0 16 16"><path fill-rule="evenodd" d="M6.386 2.607a.75.75 0 0 1 .257 1.029L5.825 5h4.35l-.818-1.364a.75.75 0 0 1 1.286-.772L11.925 5h2.326a.75.75 0 0 1 0 1.5h-.314l.009.115c.033.452.054.919.054 1.385s-.02.933-.054 1.385c-.13 1.744-.195 2.616-1.07 3.491s-1.747.94-3.491 1.07C8.932 13.98 8.466 14 8 14c-.467 0-.933-.02-1.385-.054-1.744-.13-2.616-.195-3.491-1.07s-.94-1.747-1.07-3.491A19 19 0 0 1 2 8c0-.466.02-.933.054-1.385l.008-.115h-.311a.75.75 0 1 1 0-1.5h2.324l1.282-2.136a.75.75 0 0 1 1.029-.257M7.497 8.75A.748.748 0 1 0 6 8.75v1.5a.748.748 0 1 0 1.497 0zM9.25 8a.75.75 0 0 1 .75.75v1.5a.75.75 0 0 1-1.5 0v-1.5A.75.75 0 0 1 9.25 8"/></svg>