<svg xmlns="http://www.w3.org/2000/svg" viewBox="0 0 24 24"><path d="M10.9 13a.9.9 0 1 0-1.8 0v3a.9.9 0 1 0 1.8 0zm3.1-.9a.9.9 0 0 1 .9.9v3a.9.9 0 1 1-1.8 0v-3a.9.9 0 0 1 .9-.9"/><path fill-rule="evenodd" d="M9.858 5.515a1 1 0 0 0-1.715-1.03L6.034 8H3a1 1 0 0 0 0 2h.075A28 28 0 0 0 3 12c0 .7.03 1.399.08 2.077.196 2.616.293 3.924 1.606 5.237s2.62 1.41 5.237 1.605C10.6 20.969 11.3 21 12 21s1.399-.03 2.077-.081c2.616-.195 3.924-.292 5.237-1.605s1.41-2.62 1.605-5.237c.05-.678.08-1.377.08-2.077 0-.673-.028-1.346-.075-2H21a1 1 0 0 0 0-2h-3.034l-2.109-3.514a1 1 0 1 0-1.714 1.029L15.633 8H8.367zM5.08 10h13.838l.005.071c.048.637.076 1.287.076 1.929s-.028 1.292-.076 1.929c-.204 2.75-.318 3.265-1.024 3.97-.707.707-1.221.82-3.971 1.025a26 26 0 0 1-1.93.076c-.642 0-1.29-.028-1.928-.076-2.75-.204-3.265-.318-3.971-1.024s-.82-1.22-1.025-3.971A26 26 0 0 1 5 12c0-.642.028-1.292.075-1.929z"/></svg>