<svg xmlns="http://www.w3.org/2000/svg" viewBox="0 0 44 44"><path d="M18.5 21a1.5 1.5 0 0 1 1.5 1.5v5a1.5 1.5 0 1 1-3 0v-5a1.5 1.5 0 0 1 1.5-1.5m8.5 1.5a1.5 1.5 0 0 0-3 0v5a1.5 1.5 0 1 0 3 0z"/><path fill-rule="evenodd" d="M26.198 9.244 28.915 14h-13.83l2.717-4.756a1.5 1.5 0 0 0-2.604-1.488L11.63 14H5.5a1.5 1.5 0 0 0 0 3h.173a49 49 0 0 0-.173 4c0 2.901.304 5.782.652 8.134a9.11 9.11 0 0 0 7.714 7.714c2.352.348 5.233.652 8.134.652 2.9 0 5.782-.304 8.134-.652a9.11 9.11 0 0 0 7.714-7.714c.348-2.352.652-5.233.652-8.134 0-1.356-.066-2.707-.173-4h.173a1.5 1.5 0 1 0 0-3h-6.13l-3.568-6.244a1.5 1.5 0 0 0-2.604 1.488M12.47 17H8.683a47 47 0 0 0-.183 4c0 2.706.285 5.431.62 7.695a6.11 6.11 0 0 0 5.186 5.185c2.263.335 4.988.62 7.694.62s5.431-.285 7.695-.62a6.11 6.11 0 0 0 5.185-5.185c.335-2.264.62-4.99.62-7.695 0-1.346-.07-2.7-.183-4z"/></svg>