<svg xmlns="http://www.w3.org/2000/svg" viewBox="0 0 44 44"><path fill-rule="evenodd" d="M12 27a9.97 9.97 0 0 1 3.594-7.679A8.97 8.97 0 0 0 22 22a8.97 8.97 0 0 0 6.406-2.679A9.97 9.97 0 0 1 32 27c0 2.48-.825 5.16-2.135 7.162C28.508 36.234 27.058 37 26 37h-8c-.94 0-2.402-.8-3.838-3.074C12.8 31.77 12 29.068 12 27M22 7a6 6 0 0 1-6 6 6 6 0 0 0 12 0 6 6 0 0 1-6-6m8.134 9.858A9 9 0 1 0 13 13a8.96 8.96 0 0 0 .865 3.858A12.98 12.98 0 0 0 9 27c0 5.408 4 13 9 13h8c5 0 9-6.853 9-13 0-4.102-1.9-7.76-4.866-10.142"/></svg>