<svg xmlns="http://www.w3.org/2000/svg" viewBox="0 0 16 16"><path d="M9.992 7.747a.75.75 0 0 0 0-1.501h-1.25v-1.25a.75.75 0 1 0-1.5 0v1.25h-1.25a.75.75 0 0 0 0 1.5h1.25v1.251a.75.75 0 1 0 1.5 0v-1.25z"/><path fill-rule="evenodd" d="M2.5 7.939q0 .88.019 1.694c.049 2.227.073 3.34.712 4.24.755 1.065 1.849 1.53 2.871.707.915-.735 1.372-1.102 1.898-1.102s.983.367 1.897 1.102c1.021.821 2.167.287 2.872-.707.638-.9.663-2.013.712-4.24q.017-.813.018-1.694c0-1.073-.046-2.01-.114-2.808-.12-1.39-.18-2.084-1.002-2.974s-1.46-.953-2.736-1.076a17 17 0 0 0-3.294 0c-1.276.123-1.914.185-2.737 1.076-.822.89-.882 1.585-1.001 2.974A33 33 0 0 0 2.5 7.939m1.518 1.66A76 76 0 0 1 4 7.94c0-1.03.044-1.923.11-2.68.063-.74.1-1.098.183-1.385.06-.211.154-.406.425-.7.273-.295.434-.374.576-.421.224-.076.513-.112 1.203-.18a15.6 15.6 0 0 1 3.005 0c.69.068.979.104 1.204.18.142.047.302.126.575.422.271.293.365.488.426.699.083.287.12.644.183 1.385.065.756.11 1.65.11 2.68q0 .864-.019 1.66c-.025 1.149-.044 1.883-.121 2.448-.072.52-.18.768-.315.958-.22.312-.435.438-.536.47a.2.2 0 0 1-.04.008h-.011a.1.1 0 0 1-.03-.011.5.5 0 0 1-.091-.06l-.054-.044c-.41-.33-.814-.655-1.186-.887-.42-.262-.945-.503-1.597-.503s-1.178.241-1.598.503c-.371.232-.775.557-1.185.887l-.054.043a.4.4 0 0 1-.15.089h-.001l-.02-.004c-.07-.02-.281-.129-.538-.49-.135-.19-.243-.44-.314-.96-.078-.564-.096-1.298-.122-2.446"/></svg>