<svg xmlns="http://www.w3.org/2000/svg" viewBox="0 0 24 24"><path fill-rule="evenodd" d="M4.042 14.99C4.016 14.042 4 13.033 4 11.98c0-1.547.068-2.896.168-4.046.175-2.021.263-3.032 1.557-4.318C7.02 2.329 7.99 2.247 9.932 2.085a25 25 0 0 1 4.137 0c1.94.162 2.912.243 4.206 1.53s1.382 2.297 1.557 4.318c.1 1.15.168 2.5.168 4.045 0 1.054-.016 2.063-.041 3.01-.072 2.628-.108 3.942-.801 5.076-.976 1.597-2.583 2.594-4.29 1.401-1.387-.968-2.08-1.452-2.868-1.452s-1.481.484-2.867 1.452c-1.69 1.18-3.273.265-4.291-1.4-.693-1.135-.729-2.449-.8-5.076m6.96-1.99a1 1 0 1 0 2 0v-2h2a1 1 0 0 0 0-2h-2V7a1 1 0 1 0-2 0v2h-2a1 1 0 1 0 0 2h2z"/></svg>