<svg xmlns="http://www.w3.org/2000/svg" viewBox="0 0 44 44"><path fill-rule="evenodd" d="M14 40c-3.5 0-6-4-6-18 0-2.712.112-5.088.279-7.124.306-3.724.458-5.586 2.855-7.969s4.147-2.516 7.65-2.783A42 42 0 0 1 22 4c1.122 0 2.198.046 3.215.124 3.503.267 5.255.4 7.651 2.783s2.55 4.245 2.855 7.968C35.888 16.912 36 19.288 36 22c0 13.739-2.5 18-6 18-1.817 0-3.096-1.079-4.324-2.116C24.538 36.924 23.441 36 22 36s-2.538.924-3.675 1.884C17.095 38.921 15.817 40 14 40m8-29a1.5 1.5 0 0 1 1.5 1.5V17H28a1.5 1.5 0 0 1 0 3h-4.5v4.5a1.5 1.5 0 0 1-3 0V20H16a1.5 1.5 0 0 1 0-3h4.5v-4.5A1.5 1.5 0 0 1 22 11"/></svg>